<?xml version="1.0" encoding="utf-8" standalone="no"?>
<!DOCTYPE svg PUBLIC "-//W3C//DTD SVG 1.1//EN"
  "http://www.w3.org/Graphics/SVG/1.1/DTD/svg11.dtd">
<!-- Created with matplotlib (http://matplotlib.org/) -->
<svg height="345.6pt" version="1.1" viewBox="0 0 460.8 345.6" width="460.8pt" xmlns="http://www.w3.org/2000/svg" xmlns:xlink="http://www.w3.org/1999/xlink">
 <defs>
  <style type="text/css">
*{stroke-linecap:butt;stroke-linejoin:round;}
  </style>
 </defs>
 <g id="figure_1">
  <g id="patch_1">
   <path d="M 0 345.6 
L 460.8 345.6 
L 460.8 0 
L 0 0 
z
" style="fill:#ffffff;"/>
  </g>
  <g id="axes_1">
   <g id="patch_2">
    <path d="M 25.9 311.24 
L 450.072 311.24 
L 450.072 28.32 
L 25.9 28.32 
z
" style="fill:#ffffff;"/>
   </g>
   <g id="line2d_1">
    <path clip-path="url(#p26513fd2e3)" d="M 39.784034 216.612204 
L 93.214783 216.524374 
L 160.529565 211.650054 
L 251.870034 180.109241 
L 343.210502 152.893573 
L 434.550971 137.790752 
" style="fill:none;stroke:#f5deb3;stroke-linecap:square;stroke-width:10;"/>
    <defs>
     <path d="M -0 17.67767 
L 10.606602 0 
L 0 -17.67767 
L -10.606602 -0 
z
" id="m61180633f6" style="stroke:#000000;stroke-linejoin:miter;"/>
    </defs>
    <g clip-path="url(#p26513fd2e3)">
     <use style="fill:#f5deb3;stroke:#000000;stroke-linejoin:miter;" x="39.784034" xlink:href="#m61180633f6" y="216.612204"/>
     <use style="fill:#f5deb3;stroke:#000000;stroke-linejoin:miter;" x="93.214783" xlink:href="#m61180633f6" y="216.524374"/>
     <use style="fill:#f5deb3;stroke:#000000;stroke-linejoin:miter;" x="160.529565" xlink:href="#m61180633f6" y="211.650054"/>
     <use style="fill:#f5deb3;stroke:#000000;stroke-linejoin:miter;" x="251.870034" xlink:href="#m61180633f6" y="180.109241"/>
     <use style="fill:#f5deb3;stroke:#000000;stroke-linejoin:miter;" x="343.210502" xlink:href="#m61180633f6" y="152.893573"/>
     <use style="fill:#f5deb3;stroke:#000000;stroke-linejoin:miter;" x="434.550971" xlink:href="#m61180633f6" y="137.790752"/>
    </g>
   </g>
   <g id="line2d_2">
    <defs>
     <path d="M -15 0 
L 15 0 
M 0 15 
L 0 -15 
" id="m3cb934c6ee" style="stroke:#ff0000;stroke-width:5;"/>
    </defs>
    <g clip-path="url(#p26513fd2e3)">
     <use style="fill:#ff0000;stroke:#ff0000;stroke-width:5;" x="39.784034" xlink:href="#m3cb934c6ee" y="123.545471"/>
    </g>
   </g>
   <g id="line2d_3">
    <g clip-path="url(#p26513fd2e3)">
     <use style="fill:#ff0000;stroke:#ff0000;stroke-width:5;" x="93.214783" xlink:href="#m3cb934c6ee" y="139.444726"/>
    </g>
   </g>
   <g id="line2d_4">
    <g clip-path="url(#p26513fd2e3)">
     <use style="fill:#ff0000;stroke:#ff0000;stroke-width:5;" x="160.529565" xlink:href="#m3cb934c6ee" y="132.463414"/>
    </g>
   </g>
   <g id="line2d_5">
    <defs>
     <path d="M -15 0 
L 15 0 
M 0 15 
L 0 -15 
" id="ma30cdc6ad4" style="stroke:#0000ff;stroke-width:5;"/>
    </defs>
    <g clip-path="url(#p26513fd2e3)">
     <use style="fill:#0000ff;stroke:#0000ff;stroke-width:5;" x="434.550971" xlink:href="#ma30cdc6ad4" y="205.633729"/>
    </g>
   </g>
   <g id="line2d_6">
    <g clip-path="url(#p26513fd2e3)">
     <use style="fill:#0000ff;stroke:#0000ff;stroke-width:5;" x="251.870034" xlink:href="#ma30cdc6ad4" y="189.352805"/>
    </g>
   </g>
   <g id="line2d_7">
    <g clip-path="url(#p26513fd2e3)">
     <use style="fill:#0000ff;stroke:#0000ff;stroke-width:5;" x="343.210502" xlink:href="#ma30cdc6ad4" y="195.177592"/>
    </g>
   </g>
   <g id="matplotlib.axis_1">
    <g id="xtick_1">
     <g id="line2d_8">
      <defs>
       <path d="M 0 0 
L 0 3.5 
" id="m2a06d5c77a" style="stroke:#000000;stroke-width:0.8;"/>
      </defs>
      <g>
       <use style="stroke:#000000;stroke-width:0.8;" x="39.784034" xlink:href="#m2a06d5c77a" y="311.24"/>
      </g>
     </g>
     <g id="text_1">
      <!-- 2 -->
      <defs>
       <path d="M 19.1875 8.296875 
L 53.609375 8.296875 
L 53.609375 0 
L 7.328125 0 
L 7.328125 8.296875 
Q 12.9375 14.109375 22.625 23.890625 
Q 32.328125 33.6875 34.8125 36.53125 
Q 39.546875 41.84375 41.421875 45.53125 
Q 43.3125 49.21875 43.3125 52.78125 
Q 43.3125 58.59375 39.234375 62.25 
Q 35.15625 65.921875 28.609375 65.921875 
Q 23.96875 65.921875 18.8125 64.3125 
Q 13.671875 62.703125 7.8125 59.421875 
L 7.8125 69.390625 
Q 13.765625 71.78125 18.9375 73 
Q 24.125 74.21875 28.421875 74.21875 
Q 39.75 74.21875 46.484375 68.546875 
Q 53.21875 62.890625 53.21875 53.421875 
Q 53.21875 48.921875 51.53125 44.890625 
Q 49.859375 40.875 45.40625 35.40625 
Q 44.1875 33.984375 37.640625 27.21875 
Q 31.109375 20.453125 19.1875 8.296875 
z
" id="DejaVuSans-32"/>
      </defs>
      <g transform="translate(32.149034 336.47625)scale(0.24 -0.24)">
       <use xlink:href="#DejaVuSans-32"/>
      </g>
     </g>
    </g>
    <g id="xtick_2">
     <g id="line2d_9">
      <g>
       <use style="stroke:#000000;stroke-width:0.8;" x="93.214783" xlink:href="#m2a06d5c77a" y="311.24"/>
      </g>
     </g>
     <g id="text_2">
      <!-- 3 -->
      <defs>
       <path d="M 40.578125 39.3125 
Q 47.65625 37.796875 51.625 33 
Q 55.609375 28.21875 55.609375 21.1875 
Q 55.609375 10.40625 48.1875 4.484375 
Q 40.765625 -1.421875 27.09375 -1.421875 
Q 22.515625 -1.421875 17.65625 -0.515625 
Q 12.796875 0.390625 7.625 2.203125 
L 7.625 11.71875 
Q 11.71875 9.328125 16.59375 8.109375 
Q 21.484375 6.890625 26.8125 6.890625 
Q 36.078125 6.890625 40.9375 10.546875 
Q 45.796875 14.203125 45.796875 21.1875 
Q 45.796875 27.640625 41.28125 31.265625 
Q 36.765625 34.90625 28.71875 34.90625 
L 20.21875 34.90625 
L 20.21875 43.015625 
L 29.109375 43.015625 
Q 36.375 43.015625 40.234375 45.921875 
Q 44.09375 48.828125 44.09375 54.296875 
Q 44.09375 59.90625 40.109375 62.90625 
Q 36.140625 65.921875 28.71875 65.921875 
Q 24.65625 65.921875 20.015625 65.03125 
Q 15.375 64.15625 9.8125 62.3125 
L 9.8125 71.09375 
Q 15.4375 72.65625 20.34375 73.4375 
Q 25.25 74.21875 29.59375 74.21875 
Q 40.828125 74.21875 47.359375 69.109375 
Q 53.90625 64.015625 53.90625 55.328125 
Q 53.90625 49.265625 50.4375 45.09375 
Q 46.96875 40.921875 40.578125 39.3125 
z
" id="DejaVuSans-33"/>
      </defs>
      <g transform="translate(85.579783 336.47625)scale(0.24 -0.24)">
       <use xlink:href="#DejaVuSans-33"/>
      </g>
     </g>
    </g>
    <g id="xtick_3">
     <g id="line2d_10">
      <g>
       <use style="stroke:#000000;stroke-width:0.8;" x="160.529565" xlink:href="#m2a06d5c77a" y="311.24"/>
      </g>
     </g>
     <g id="text_3">
      <!-- 5 -->
      <defs>
       <path d="M 10.796875 72.90625 
L 49.515625 72.90625 
L 49.515625 64.59375 
L 19.828125 64.59375 
L 19.828125 46.734375 
Q 21.96875 47.46875 24.109375 47.828125 
Q 26.265625 48.1875 28.421875 48.1875 
Q 40.625 48.1875 47.75 41.5 
Q 54.890625 34.8125 54.890625 23.390625 
Q 54.890625 11.625 47.5625 5.09375 
Q 40.234375 -1.421875 26.90625 -1.421875 
Q 22.3125 -1.421875 17.546875 -0.640625 
Q 12.796875 0.140625 7.71875 1.703125 
L 7.71875 11.625 
Q 12.109375 9.234375 16.796875 8.0625 
Q 21.484375 6.890625 26.703125 6.890625 
Q 35.15625 6.890625 40.078125 11.328125 
Q 45.015625 15.765625 45.015625 23.390625 
Q 45.015625 31 40.078125 35.4375 
Q 35.15625 39.890625 26.703125 39.890625 
Q 22.75 39.890625 18.8125 39.015625 
Q 14.890625 38.140625 10.796875 36.28125 
z
" id="DejaVuSans-35"/>
      </defs>
      <g transform="translate(152.894565 336.47625)scale(0.24 -0.24)">
       <use xlink:href="#DejaVuSans-35"/>
      </g>
     </g>
    </g>
    <g id="xtick_4">
     <g id="line2d_11">
      <g>
       <use style="stroke:#000000;stroke-width:0.8;" x="251.870034" xlink:href="#m2a06d5c77a" y="311.24"/>
      </g>
     </g>
     <g id="text_4">
      <!-- 10 -->
      <defs>
       <path d="M 12.40625 8.296875 
L 28.515625 8.296875 
L 28.515625 63.921875 
L 10.984375 60.40625 
L 10.984375 69.390625 
L 28.421875 72.90625 
L 38.28125 72.90625 
L 38.28125 8.296875 
L 54.390625 8.296875 
L 54.390625 0 
L 12.40625 0 
z
" id="DejaVuSans-31"/>
       <path d="M 31.78125 66.40625 
Q 24.171875 66.40625 20.328125 58.90625 
Q 16.5 51.421875 16.5 36.375 
Q 16.5 21.390625 20.328125 13.890625 
Q 24.171875 6.390625 31.78125 6.390625 
Q 39.453125 6.390625 43.28125 13.890625 
Q 47.125 21.390625 47.125 36.375 
Q 47.125 51.421875 43.28125 58.90625 
Q 39.453125 66.40625 31.78125 66.40625 
z
M 31.78125 74.21875 
Q 44.046875 74.21875 50.515625 64.515625 
Q 56.984375 54.828125 56.984375 36.375 
Q 56.984375 17.96875 50.515625 8.265625 
Q 44.046875 -1.421875 31.78125 -1.421875 
Q 19.53125 -1.421875 13.0625 8.265625 
Q 6.59375 17.96875 6.59375 36.375 
Q 6.59375 54.828125 13.0625 64.515625 
Q 19.53125 74.21875 31.78125 74.21875 
z
" id="DejaVuSans-30"/>
      </defs>
      <g transform="translate(236.600034 336.47625)scale(0.24 -0.24)">
       <use xlink:href="#DejaVuSans-31"/>
       <use x="63.623047" xlink:href="#DejaVuSans-30"/>
      </g>
     </g>
    </g>
    <g id="xtick_5">
     <g id="line2d_12">
      <g>
       <use style="stroke:#000000;stroke-width:0.8;" x="343.210502" xlink:href="#m2a06d5c77a" y="311.24"/>
      </g>
     </g>
     <g id="text_5">
      <!-- 20 -->
      <g transform="translate(327.940502 336.47625)scale(0.24 -0.24)">
       <use xlink:href="#DejaVuSans-32"/>
       <use x="63.623047" xlink:href="#DejaVuSans-30"/>
      </g>
     </g>
    </g>
    <g id="xtick_6">
     <g id="line2d_13">
      <g>
       <use style="stroke:#000000;stroke-width:0.8;" x="434.550971" xlink:href="#m2a06d5c77a" y="311.24"/>
      </g>
     </g>
     <g id="text_6">
      <!-- 40 -->
      <defs>
       <path d="M 37.796875 64.3125 
L 12.890625 25.390625 
L 37.796875 25.390625 
z
M 35.203125 72.90625 
L 47.609375 72.90625 
L 47.609375 25.390625 
L 58.015625 25.390625 
L 58.015625 17.1875 
L 47.609375 17.1875 
L 47.609375 0 
L 37.796875 0 
L 37.796875 17.1875 
L 4.890625 17.1875 
L 4.890625 26.703125 
z
" id="DejaVuSans-34"/>
      </defs>
      <g transform="translate(419.280971 336.47625)scale(0.24 -0.24)">
       <use xlink:href="#DejaVuSans-34"/>
       <use x="63.623047" xlink:href="#DejaVuSans-30"/>
      </g>
     </g>
    </g>
    <g id="xtick_7">
     <g id="line2d_14">
      <defs>
       <path d="M 0 0 
L 0 2 
" id="mffeccdc2ac" style="stroke:#000000;stroke-width:0.6;"/>
      </defs>
      <g>
       <use style="stroke:#000000;stroke-width:0.6;" x="39.784034" xlink:href="#mffeccdc2ac" y="311.24"/>
      </g>
     </g>
    </g>
    <g id="xtick_8">
     <g id="line2d_15">
      <g>
       <use style="stroke:#000000;stroke-width:0.6;" x="93.214783" xlink:href="#mffeccdc2ac" y="311.24"/>
      </g>
     </g>
    </g>
    <g id="xtick_9">
     <g id="line2d_16">
      <g>
       <use style="stroke:#000000;stroke-width:0.6;" x="131.124502" xlink:href="#mffeccdc2ac" y="311.24"/>
      </g>
     </g>
    </g>
    <g id="xtick_10">
     <g id="line2d_17">
      <g>
       <use style="stroke:#000000;stroke-width:0.6;" x="160.529565" xlink:href="#mffeccdc2ac" y="311.24"/>
      </g>
     </g>
    </g>
    <g id="xtick_11">
     <g id="line2d_18">
      <g>
       <use style="stroke:#000000;stroke-width:0.6;" x="184.555251" xlink:href="#mffeccdc2ac" y="311.24"/>
      </g>
     </g>
    </g>
    <g id="xtick_12">
     <g id="line2d_19">
      <g>
       <use style="stroke:#000000;stroke-width:0.6;" x="204.868679" xlink:href="#mffeccdc2ac" y="311.24"/>
      </g>
     </g>
    </g>
    <g id="xtick_13">
     <g id="line2d_20">
      <g>
       <use style="stroke:#000000;stroke-width:0.6;" x="222.464971" xlink:href="#mffeccdc2ac" y="311.24"/>
      </g>
     </g>
    </g>
    <g id="xtick_14">
     <g id="line2d_21">
      <g>
       <use style="stroke:#000000;stroke-width:0.6;" x="237.986" xlink:href="#mffeccdc2ac" y="311.24"/>
      </g>
     </g>
    </g>
    <g id="xtick_15">
     <g id="line2d_22">
      <g>
       <use style="stroke:#000000;stroke-width:0.6;" x="343.210502" xlink:href="#mffeccdc2ac" y="311.24"/>
      </g>
     </g>
    </g>
    <g id="xtick_16">
     <g id="line2d_23">
      <g>
       <use style="stroke:#000000;stroke-width:0.6;" x="396.641251" xlink:href="#mffeccdc2ac" y="311.24"/>
      </g>
     </g>
    </g>
    <g id="xtick_17">
     <g id="line2d_24">
      <g>
       <use style="stroke:#000000;stroke-width:0.6;" x="434.550971" xlink:href="#mffeccdc2ac" y="311.24"/>
      </g>
     </g>
    </g>
   </g>
   <g id="matplotlib.axis_2">
    <g id="ytick_1">
     <g id="line2d_25">
      <path clip-path="url(#p26513fd2e3)" d="M 25.9 303.381112 
L 450.072 303.381112 
" style="fill:none;stroke:#b0b0b0;stroke-linecap:square;stroke-width:0.8;"/>
     </g>
     <g id="line2d_26">
      <defs>
       <path d="M 0 0 
L -3.5 0 
" id="m9c0249cebf" style="stroke:#000000;stroke-width:0.8;"/>
      </defs>
      <g>
       <use style="stroke:#000000;stroke-width:0.8;" x="25.9" xlink:href="#m9c0249cebf" y="303.381112"/>
      </g>
     </g>
     <g id="text_7">
      <!-- 0 -->
      <g transform="translate(3.63 312.499237)scale(0.24 -0.24)">
       <use xlink:href="#DejaVuSans-30"/>
      </g>
     </g>
    </g>
    <g id="ytick_2">
     <g id="line2d_27">
      <path clip-path="url(#p26513fd2e3)" d="M 25.9 264.08667 
L 450.072 264.08667 
" style="fill:none;stroke:#b0b0b0;stroke-linecap:square;stroke-width:0.8;"/>
     </g>
     <g id="line2d_28">
      <g>
       <use style="stroke:#000000;stroke-width:0.8;" x="25.9" xlink:href="#m9c0249cebf" y="264.08667"/>
      </g>
     </g>
     <g id="text_8">
      <!-- 1 -->
      <g transform="translate(3.63 273.204795)scale(0.24 -0.24)">
       <use xlink:href="#DejaVuSans-31"/>
      </g>
     </g>
    </g>
    <g id="ytick_3">
     <g id="line2d_29">
      <path clip-path="url(#p26513fd2e3)" d="M 25.9 224.792227 
L 450.072 224.792227 
" style="fill:none;stroke:#b0b0b0;stroke-linecap:square;stroke-width:0.8;"/>
     </g>
     <g id="line2d_30">
      <g>
       <use style="stroke:#000000;stroke-width:0.8;" x="25.9" xlink:href="#m9c0249cebf" y="224.792227"/>
      </g>
     </g>
     <g id="text_9">
      <!-- 2 -->
      <g transform="translate(3.63 233.910352)scale(0.24 -0.24)">
       <use xlink:href="#DejaVuSans-32"/>
      </g>
     </g>
    </g>
    <g id="ytick_4">
     <g id="line2d_31">
      <path clip-path="url(#p26513fd2e3)" d="M 25.9 185.497785 
L 450.072 185.497785 
" style="fill:none;stroke:#b0b0b0;stroke-linecap:square;stroke-width:0.8;"/>
     </g>
     <g id="line2d_32">
      <g>
       <use style="stroke:#000000;stroke-width:0.8;" x="25.9" xlink:href="#m9c0249cebf" y="185.497785"/>
      </g>
     </g>
     <g id="text_10">
      <!-- 3 -->
      <g transform="translate(3.63 194.61591)scale(0.24 -0.24)">
       <use xlink:href="#DejaVuSans-33"/>
      </g>
     </g>
    </g>
    <g id="ytick_5">
     <g id="line2d_33">
      <path clip-path="url(#p26513fd2e3)" d="M 25.9 146.203343 
L 450.072 146.203343 
" style="fill:none;stroke:#b0b0b0;stroke-linecap:square;stroke-width:0.8;"/>
     </g>
     <g id="line2d_34">
      <g>
       <use style="stroke:#000000;stroke-width:0.8;" x="25.9" xlink:href="#m9c0249cebf" y="146.203343"/>
      </g>
     </g>
     <g id="text_11">
      <!-- 4 -->
      <g transform="translate(3.63 155.321468)scale(0.24 -0.24)">
       <use xlink:href="#DejaVuSans-34"/>
      </g>
     </g>
    </g>
    <g id="ytick_6">
     <g id="line2d_35">
      <path clip-path="url(#p26513fd2e3)" d="M 25.9 106.908901 
L 450.072 106.908901 
" style="fill:none;stroke:#b0b0b0;stroke-linecap:square;stroke-width:0.8;"/>
     </g>
     <g id="line2d_36">
      <g>
       <use style="stroke:#000000;stroke-width:0.8;" x="25.9" xlink:href="#m9c0249cebf" y="106.908901"/>
      </g>
     </g>
     <g id="text_12">
      <!-- 5 -->
      <g transform="translate(3.63 116.027026)scale(0.24 -0.24)">
       <use xlink:href="#DejaVuSans-35"/>
      </g>
     </g>
    </g>
    <g id="ytick_7">
     <g id="line2d_37">
      <path clip-path="url(#p26513fd2e3)" d="M 25.9 67.614459 
L 450.072 67.614459 
" style="fill:none;stroke:#b0b0b0;stroke-linecap:square;stroke-width:0.8;"/>
     </g>
     <g id="line2d_38">
      <g>
       <use style="stroke:#000000;stroke-width:0.8;" x="25.9" xlink:href="#m9c0249cebf" y="67.614459"/>
      </g>
     </g>
     <g id="text_13">
      <!-- 6 -->
      <defs>
       <path d="M 33.015625 40.375 
Q 26.375 40.375 22.484375 35.828125 
Q 18.609375 31.296875 18.609375 23.390625 
Q 18.609375 15.53125 22.484375 10.953125 
Q 26.375 6.390625 33.015625 6.390625 
Q 39.65625 6.390625 43.53125 10.953125 
Q 47.40625 15.53125 47.40625 23.390625 
Q 47.40625 31.296875 43.53125 35.828125 
Q 39.65625 40.375 33.015625 40.375 
z
M 52.59375 71.296875 
L 52.59375 62.3125 
Q 48.875 64.0625 45.09375 64.984375 
Q 41.3125 65.921875 37.59375 65.921875 
Q 27.828125 65.921875 22.671875 59.328125 
Q 17.53125 52.734375 16.796875 39.40625 
Q 19.671875 43.65625 24.015625 45.921875 
Q 28.375 48.1875 33.59375 48.1875 
Q 44.578125 48.1875 50.953125 41.515625 
Q 57.328125 34.859375 57.328125 23.390625 
Q 57.328125 12.15625 50.6875 5.359375 
Q 44.046875 -1.421875 33.015625 -1.421875 
Q 20.359375 -1.421875 13.671875 8.265625 
Q 6.984375 17.96875 6.984375 36.375 
Q 6.984375 53.65625 15.1875 63.9375 
Q 23.390625 74.21875 37.203125 74.21875 
Q 40.921875 74.21875 44.703125 73.484375 
Q 48.484375 72.75 52.59375 71.296875 
z
" id="DejaVuSans-36"/>
      </defs>
      <g transform="translate(3.63 76.732584)scale(0.24 -0.24)">
       <use xlink:href="#DejaVuSans-36"/>
      </g>
     </g>
    </g>
    <g id="ytick_8">
     <g id="line2d_39">
      <path clip-path="url(#p26513fd2e3)" d="M 25.9 28.320017 
L 450.072 28.320017 
" style="fill:none;stroke:#b0b0b0;stroke-linecap:square;stroke-width:0.8;"/>
     </g>
     <g id="line2d_40">
      <g>
       <use style="stroke:#000000;stroke-width:0.8;" x="25.9" xlink:href="#m9c0249cebf" y="28.320017"/>
      </g>
     </g>
     <g id="text_14">
      <!-- 7 -->
      <defs>
       <path d="M 8.203125 72.90625 
L 55.078125 72.90625 
L 55.078125 68.703125 
L 28.609375 0 
L 18.3125 0 
L 43.21875 64.59375 
L 8.203125 64.59375 
z
" id="DejaVuSans-37"/>
      </defs>
      <g transform="translate(3.63 37.438142)scale(0.24 -0.24)">
       <use xlink:href="#DejaVuSans-37"/>
      </g>
     </g>
    </g>
   </g>
   <g id="line2d_41">
    <path clip-path="url(#p26513fd2e3)" d="M 36.644125 279.7235 
L 38.842061 271.438135 
L 36.644125 267.894694 
L 42.923943 267.894694 
L 40.726006 271.438135 
L 42.923943 279.7235 
L 36.644125 279.7235 
" style="fill:none;stroke:#000000;stroke-linecap:square;"/>
   </g>
   <g id="line2d_42">
    <path clip-path="url(#p26513fd2e3)" d="M 36.644125 279.7235 
L 42.923943 279.7235 
L 42.923943 267.894694 
L 36.644125 267.894694 
L 36.644125 279.7235 
" style="fill:none;"/>
    <defs>
     <path d="M 0 3 
C 0.795609 3 1.55874 2.683901 2.12132 2.12132 
C 2.683901 1.55874 3 0.795609 3 0 
C 3 -0.795609 2.683901 -1.55874 2.12132 -2.12132 
C 1.55874 -2.683901 0.795609 -3 0 -3 
C -0.795609 -3 -1.55874 -2.683901 -2.12132 -2.12132 
C -2.683901 -1.55874 -3 -0.795609 -3 0 
C -3 0.795609 -2.683901 1.55874 -2.12132 2.12132 
C -1.55874 2.683901 -0.795609 3 0 3 
z
" id="mc41e5a6659" style="stroke:#000000;stroke-width:2;"/>
    </defs>
    <g clip-path="url(#p26513fd2e3)">
     <use style="stroke:#000000;stroke-width:2;" x="36.644125" xlink:href="#mc41e5a6659" y="279.7235"/>
     <use style="stroke:#000000;stroke-width:2;" x="42.923943" xlink:href="#mc41e5a6659" y="279.7235"/>
     <use style="stroke:#000000;stroke-width:2;" x="42.923943" xlink:href="#mc41e5a6659" y="267.894694"/>
     <use style="stroke:#000000;stroke-width:2;" x="36.644125" xlink:href="#mc41e5a6659" y="267.894694"/>
     <use style="stroke:#000000;stroke-width:2;" x="36.644125" xlink:href="#mc41e5a6659" y="279.7235"/>
    </g>
   </g>
   <g id="line2d_43">
    <path clip-path="url(#p26513fd2e3)" d="M 36.644125 271.438135 
L 42.923943 271.438135 
" style="fill:none;stroke:#000000;stroke-linecap:square;stroke-width:2;"/>
   </g>
   <g id="line2d_44">
    <path clip-path="url(#p26513fd2e3)" d="M 90.074874 272.804092 
L 92.27281 261.456033 
L 90.074874 244.237083 
L 96.354692 244.237083 
L 94.156755 261.456033 
L 96.354692 272.804092 
L 90.074874 272.804092 
" style="fill:none;stroke:#000000;stroke-linecap:square;"/>
   </g>
   <g id="line2d_45">
    <path clip-path="url(#p26513fd2e3)" d="M 90.074874 272.804092 
L 96.354692 272.804092 
L 96.354692 244.237083 
L 90.074874 244.237083 
L 90.074874 272.804092 
" style="fill:none;"/>
    <g clip-path="url(#p26513fd2e3)">
     <use style="stroke:#000000;stroke-width:2;" x="90.074874" xlink:href="#mc41e5a6659" y="272.804092"/>
     <use style="stroke:#000000;stroke-width:2;" x="96.354692" xlink:href="#mc41e5a6659" y="272.804092"/>
     <use style="stroke:#000000;stroke-width:2;" x="96.354692" xlink:href="#mc41e5a6659" y="244.237083"/>
     <use style="stroke:#000000;stroke-width:2;" x="90.074874" xlink:href="#mc41e5a6659" y="244.237083"/>
     <use style="stroke:#000000;stroke-width:2;" x="90.074874" xlink:href="#mc41e5a6659" y="272.804092"/>
    </g>
   </g>
   <g id="line2d_46">
    <path clip-path="url(#p26513fd2e3)" d="M 90.074874 261.456033 
L 96.354692 261.456033 
" style="fill:none;stroke:#000000;stroke-linecap:square;stroke-width:2;"/>
   </g>
   <g id="line2d_47">
    <path clip-path="url(#p26513fd2e3)" d="M 157.389656 236.350149 
L 159.587593 219.570005 
L 157.389656 213.83876 
L 163.669474 213.83876 
L 161.471538 219.570005 
L 163.669474 236.350149 
L 157.389656 236.350149 
" style="fill:none;stroke:#000000;stroke-linecap:square;"/>
   </g>
   <g id="line2d_48">
    <path clip-path="url(#p26513fd2e3)" d="M 157.389656 236.350149 
L 163.669474 236.350149 
L 163.669474 213.83876 
L 157.389656 213.83876 
L 157.389656 236.350149 
" style="fill:none;"/>
    <g clip-path="url(#p26513fd2e3)">
     <use style="stroke:#000000;stroke-width:2;" x="157.389656" xlink:href="#mc41e5a6659" y="236.350149"/>
     <use style="stroke:#000000;stroke-width:2;" x="163.669474" xlink:href="#mc41e5a6659" y="236.350149"/>
     <use style="stroke:#000000;stroke-width:2;" x="163.669474" xlink:href="#mc41e5a6659" y="213.83876"/>
     <use style="stroke:#000000;stroke-width:2;" x="157.389656" xlink:href="#mc41e5a6659" y="213.83876"/>
     <use style="stroke:#000000;stroke-width:2;" x="157.389656" xlink:href="#mc41e5a6659" y="236.350149"/>
    </g>
   </g>
   <g id="line2d_49">
    <path clip-path="url(#p26513fd2e3)" d="M 157.389656 219.570005 
L 163.669474 219.570005 
" style="fill:none;stroke:#000000;stroke-linecap:square;stroke-width:2;"/>
   </g>
   <g id="line2d_50">
    <path clip-path="url(#p26513fd2e3)" d="M 248.730125 206.681504 
L 250.928061 199.940171 
L 248.730125 193.215463 
L 255.009943 193.215463 
L 252.812006 199.940171 
L 255.009943 206.681504 
L 248.730125 206.681504 
" style="fill:none;stroke:#000000;stroke-linecap:square;"/>
   </g>
   <g id="line2d_51">
    <path clip-path="url(#p26513fd2e3)" d="M 248.730125 206.681504 
L 255.009943 206.681504 
L 255.009943 193.215463 
L 248.730125 193.215463 
L 248.730125 206.681504 
" style="fill:none;"/>
    <g clip-path="url(#p26513fd2e3)">
     <use style="stroke:#000000;stroke-width:2;" x="248.730125" xlink:href="#mc41e5a6659" y="206.681504"/>
     <use style="stroke:#000000;stroke-width:2;" x="255.009943" xlink:href="#mc41e5a6659" y="206.681504"/>
     <use style="stroke:#000000;stroke-width:2;" x="255.009943" xlink:href="#mc41e5a6659" y="193.215463"/>
     <use style="stroke:#000000;stroke-width:2;" x="248.730125" xlink:href="#mc41e5a6659" y="193.215463"/>
     <use style="stroke:#000000;stroke-width:2;" x="248.730125" xlink:href="#mc41e5a6659" y="206.681504"/>
    </g>
   </g>
   <g id="line2d_52">
    <path clip-path="url(#p26513fd2e3)" d="M 248.730125 199.940171 
L 255.009943 199.940171 
" style="fill:none;stroke:#000000;stroke-linecap:square;stroke-width:2;"/>
   </g>
   <g id="line2d_53">
    <path clip-path="url(#p26513fd2e3)" d="M 340.070593 208.420571 
L 342.26853 208.170679 
L 340.070593 118.674631 
L 346.350411 118.674631 
L 344.152475 208.170679 
L 346.350411 208.420571 
L 340.070593 208.420571 
" style="fill:none;stroke:#000000;stroke-linecap:square;"/>
   </g>
   <g id="line2d_54">
    <path clip-path="url(#p26513fd2e3)" d="M 340.070593 208.420571 
L 346.350411 208.420571 
L 346.350411 118.674631 
L 340.070593 118.674631 
L 340.070593 208.420571 
" style="fill:none;"/>
    <g clip-path="url(#p26513fd2e3)">
     <use style="stroke:#000000;stroke-width:2;" x="340.070593" xlink:href="#mc41e5a6659" y="208.420571"/>
     <use style="stroke:#000000;stroke-width:2;" x="346.350411" xlink:href="#mc41e5a6659" y="208.420571"/>
     <use style="stroke:#000000;stroke-width:2;" x="346.350411" xlink:href="#mc41e5a6659" y="118.674631"/>
     <use style="stroke:#000000;stroke-width:2;" x="340.070593" xlink:href="#mc41e5a6659" y="118.674631"/>
     <use style="stroke:#000000;stroke-width:2;" x="340.070593" xlink:href="#mc41e5a6659" y="208.420571"/>
    </g>
   </g>
   <g id="line2d_55">
    <path clip-path="url(#p26513fd2e3)" d="M 340.070593 208.170679 
L 346.350411 208.170679 
" style="fill:none;stroke:#000000;stroke-linecap:square;stroke-width:2;"/>
   </g>
   <g id="line2d_56">
    <path clip-path="url(#p26513fd2e3)" d="M 431.411062 217.318755 
L 433.608998 216.122655 
L 431.411062 213.870225 
L 437.69088 213.870225 
L 435.492943 216.122655 
L 437.69088 217.318755 
L 431.411062 217.318755 
" style="fill:none;stroke:#000000;stroke-linecap:square;"/>
   </g>
   <g id="line2d_57">
    <path clip-path="url(#p26513fd2e3)" d="M 431.411062 217.318755 
L 437.69088 217.318755 
L 437.69088 213.870225 
L 431.411062 213.870225 
L 431.411062 217.318755 
" style="fill:none;"/>
    <g clip-path="url(#p26513fd2e3)">
     <use style="stroke:#000000;stroke-width:2;" x="431.411062" xlink:href="#mc41e5a6659" y="217.318755"/>
     <use style="stroke:#000000;stroke-width:2;" x="437.69088" xlink:href="#mc41e5a6659" y="217.318755"/>
     <use style="stroke:#000000;stroke-width:2;" x="437.69088" xlink:href="#mc41e5a6659" y="213.870225"/>
     <use style="stroke:#000000;stroke-width:2;" x="431.411062" xlink:href="#mc41e5a6659" y="213.870225"/>
     <use style="stroke:#000000;stroke-width:2;" x="431.411062" xlink:href="#mc41e5a6659" y="217.318755"/>
    </g>
   </g>
   <g id="line2d_58">
    <path clip-path="url(#p26513fd2e3)" d="M 431.411062 216.122655 
L 437.69088 216.122655 
" style="fill:none;stroke:#000000;stroke-linecap:square;stroke-width:2;"/>
   </g>
   <g id="line2d_59">
    <path clip-path="url(#p26513fd2e3)" d="M 39.784034 265.633719 
L 93.214783 243.517702 
" style="fill:none;stroke:#000000;stroke-linecap:square;stroke-width:4;"/>
   </g>
   <g id="line2d_60">
    <path clip-path="url(#p26513fd2e3)" d="M 93.214783 243.517702 
L 160.529565 223.445184 
" style="fill:none;stroke:#000000;stroke-linecap:square;stroke-width:4;"/>
   </g>
   <g id="line2d_61">
    <path clip-path="url(#p26513fd2e3)" d="M 160.529565 223.445184 
L 251.870034 118.599882 
" style="fill:none;stroke:#000000;stroke-linecap:square;stroke-width:4;"/>
   </g>
   <g id="line2d_62">
    <path clip-path="url(#p26513fd2e3)" d="M 251.870034 118.599882 
L 343.210502 141.960622 
" style="fill:none;stroke:#000000;stroke-linecap:square;stroke-width:4;"/>
   </g>
   <g id="line2d_63">
    <path clip-path="url(#p26513fd2e3)" d="M 343.210502 141.960622 
L 434.550971 142.180994 
" style="fill:none;stroke:#000000;stroke-linecap:square;stroke-width:4;"/>
   </g>
   <g id="line2d_64">
    <path clip-path="url(#p26513fd2e3)" d="M 39.784034 265.633719 
L 93.214783 243.517702 
L 160.529565 223.445184 
L 251.870034 118.599882 
L 343.210502 141.960622 
L 434.550971 142.180994 
" style="fill:none;"/>
    <defs>
     <path d="M 0 10 
C 2.652031 10 5.195799 8.946337 7.071068 7.071068 
C 8.946337 5.195799 10 2.652031 10 0 
C 10 -2.652031 8.946337 -5.195799 7.071068 -7.071068 
C 5.195799 -8.946337 2.652031 -10 0 -10 
C -2.652031 -10 -5.195799 -8.946337 -7.071068 -7.071068 
C -8.946337 -5.195799 -10 -2.652031 -10 0 
C -10 2.652031 -8.946337 5.195799 -7.071068 7.071068 
C -5.195799 8.946337 -2.652031 10 0 10 
z
" id="me4dbeffdda" style="stroke:#000000;stroke-width:2;"/>
    </defs>
    <g clip-path="url(#p26513fd2e3)">
     <use style="stroke:#000000;stroke-width:2;" x="39.784034" xlink:href="#me4dbeffdda" y="265.633719"/>
     <use style="stroke:#000000;stroke-width:2;" x="93.214783" xlink:href="#me4dbeffdda" y="243.517702"/>
     <use style="stroke:#000000;stroke-width:2;" x="160.529565" xlink:href="#me4dbeffdda" y="223.445184"/>
     <use style="stroke:#000000;stroke-width:2;" x="251.870034" xlink:href="#me4dbeffdda" y="118.599882"/>
     <use style="stroke:#000000;stroke-width:2;" x="343.210502" xlink:href="#me4dbeffdda" y="141.960622"/>
     <use style="stroke:#000000;stroke-width:2;" x="434.550971" xlink:href="#me4dbeffdda" y="142.180994"/>
    </g>
   </g>
   <g id="line2d_65">
    <path clip-path="url(#p26513fd2e3)" d="M 35.597488 249.146481 
L 38.52807 230.51719 
L 35.597488 214.293863 
L 43.970579 214.293863 
L 41.039997 230.51719 
L 43.970579 249.146481 
L 35.597488 249.146481 
" style="fill:none;stroke:#0000ff;stroke-linecap:square;"/>
   </g>
   <g id="line2d_66">
    <path clip-path="url(#p26513fd2e3)" d="M 35.597488 249.146481 
L 43.970579 249.146481 
L 43.970579 214.293863 
L 35.597488 214.293863 
L 35.597488 249.146481 
" style="fill:none;"/>
    <defs>
     <path d="M 0 1.5 
C 0.397805 1.5 0.77937 1.341951 1.06066 1.06066 
C 1.341951 0.77937 1.5 0.397805 1.5 0 
C 1.5 -0.397805 1.341951 -0.77937 1.06066 -1.06066 
C 0.77937 -1.341951 0.397805 -1.5 0 -1.5 
C -0.397805 -1.5 -0.77937 -1.341951 -1.06066 -1.06066 
C -1.341951 -0.77937 -1.5 -0.397805 -1.5 0 
C -1.5 0.397805 -1.341951 0.77937 -1.06066 1.06066 
C -0.77937 1.341951 -0.397805 1.5 0 1.5 
z
" id="m4772adf2b0" style="stroke:#0000ff;"/>
    </defs>
    <g clip-path="url(#p26513fd2e3)">
     <use style="fill:#0000ff;stroke:#0000ff;" x="35.597488" xlink:href="#m4772adf2b0" y="249.146481"/>
     <use style="fill:#0000ff;stroke:#0000ff;" x="43.970579" xlink:href="#m4772adf2b0" y="249.146481"/>
     <use style="fill:#0000ff;stroke:#0000ff;" x="43.970579" xlink:href="#m4772adf2b0" y="214.293863"/>
     <use style="fill:#0000ff;stroke:#0000ff;" x="35.597488" xlink:href="#m4772adf2b0" y="214.293863"/>
     <use style="fill:#0000ff;stroke:#0000ff;" x="35.597488" xlink:href="#m4772adf2b0" y="249.146481"/>
    </g>
   </g>
   <g id="line2d_67">
    <path clip-path="url(#p26513fd2e3)" d="M 35.597488 230.51719 
L 43.970579 230.51719 
" style="fill:none;stroke:#0000ff;stroke-linecap:square;stroke-width:2;"/>
   </g>
   <g id="line2d_68">
    <path clip-path="url(#p26513fd2e3)" d="M 89.028237 219.96837 
L 91.958819 198.848746 
L 89.028237 86.362383 
L 97.401328 86.362383 
L 94.470746 198.848746 
L 97.401328 219.96837 
L 89.028237 219.96837 
" style="fill:none;stroke:#0000ff;stroke-linecap:square;"/>
   </g>
   <g id="line2d_69">
    <path clip-path="url(#p26513fd2e3)" d="M 89.028237 219.96837 
L 97.401328 219.96837 
L 97.401328 86.362383 
L 89.028237 86.362383 
L 89.028237 219.96837 
" style="fill:none;"/>
    <g clip-path="url(#p26513fd2e3)">
     <use style="fill:#0000ff;stroke:#0000ff;" x="89.028237" xlink:href="#m4772adf2b0" y="219.96837"/>
     <use style="fill:#0000ff;stroke:#0000ff;" x="97.401328" xlink:href="#m4772adf2b0" y="219.96837"/>
     <use style="fill:#0000ff;stroke:#0000ff;" x="97.401328" xlink:href="#m4772adf2b0" y="86.362383"/>
     <use style="fill:#0000ff;stroke:#0000ff;" x="89.028237" xlink:href="#m4772adf2b0" y="86.362383"/>
     <use style="fill:#0000ff;stroke:#0000ff;" x="89.028237" xlink:href="#m4772adf2b0" y="219.96837"/>
    </g>
   </g>
   <g id="line2d_70">
    <path clip-path="url(#p26513fd2e3)" d="M 89.028237 198.848746 
L 97.401328 198.848746 
" style="fill:none;stroke:#0000ff;stroke-linecap:square;stroke-width:2;"/>
   </g>
   <g id="line2d_71">
    <path clip-path="url(#p26513fd2e3)" d="M 156.34302 256.497946 
L 159.273602 106.775275 
L 156.34302 94.955852 
L 164.716111 94.955852 
L 161.785529 106.775275 
L 164.716111 256.497946 
L 156.34302 256.497946 
" style="fill:none;stroke:#0000ff;stroke-linecap:square;"/>
   </g>
   <g id="line2d_72">
    <path clip-path="url(#p26513fd2e3)" d="M 156.34302 256.497946 
L 164.716111 256.497946 
L 164.716111 94.955852 
L 156.34302 94.955852 
L 156.34302 256.497946 
" style="fill:none;"/>
    <g clip-path="url(#p26513fd2e3)">
     <use style="fill:#0000ff;stroke:#0000ff;" x="156.34302" xlink:href="#m4772adf2b0" y="256.497946"/>
     <use style="fill:#0000ff;stroke:#0000ff;" x="164.716111" xlink:href="#m4772adf2b0" y="256.497946"/>
     <use style="fill:#0000ff;stroke:#0000ff;" x="164.716111" xlink:href="#m4772adf2b0" y="94.955852"/>
     <use style="fill:#0000ff;stroke:#0000ff;" x="156.34302" xlink:href="#m4772adf2b0" y="94.955852"/>
     <use style="fill:#0000ff;stroke:#0000ff;" x="156.34302" xlink:href="#m4772adf2b0" y="256.497946"/>
    </g>
   </g>
   <g id="line2d_73">
    <path clip-path="url(#p26513fd2e3)" d="M 156.34302 106.775275 
L 164.716111 106.775275 
" style="fill:none;stroke:#0000ff;stroke-linecap:square;stroke-width:2;"/>
   </g>
   <g id="line2d_74">
    <path clip-path="url(#p26513fd2e3)" d="M 247.683488 185.710719 
L 250.61407 99.89945 
L 247.683488 79.41634 
L 256.056579 79.41634 
L 253.125997 99.89945 
L 256.056579 185.710719 
L 247.683488 185.710719 
" style="fill:none;stroke:#0000ff;stroke-linecap:square;"/>
   </g>
   <g id="line2d_75">
    <path clip-path="url(#p26513fd2e3)" d="M 247.683488 185.710719 
L 256.056579 185.710719 
L 256.056579 79.41634 
L 247.683488 79.41634 
L 247.683488 185.710719 
" style="fill:none;"/>
    <g clip-path="url(#p26513fd2e3)">
     <use style="fill:#0000ff;stroke:#0000ff;" x="247.683488" xlink:href="#m4772adf2b0" y="185.710719"/>
     <use style="fill:#0000ff;stroke:#0000ff;" x="256.056579" xlink:href="#m4772adf2b0" y="185.710719"/>
     <use style="fill:#0000ff;stroke:#0000ff;" x="256.056579" xlink:href="#m4772adf2b0" y="79.41634"/>
     <use style="fill:#0000ff;stroke:#0000ff;" x="247.683488" xlink:href="#m4772adf2b0" y="79.41634"/>
     <use style="fill:#0000ff;stroke:#0000ff;" x="247.683488" xlink:href="#m4772adf2b0" y="185.710719"/>
    </g>
   </g>
   <g id="line2d_76">
    <path clip-path="url(#p26513fd2e3)" d="M 247.683488 99.89945 
L 256.056579 99.89945 
" style="fill:none;stroke:#0000ff;stroke-linecap:square;stroke-width:2;"/>
   </g>
   <g id="line2d_77">
    <path clip-path="url(#p26513fd2e3)" d="M 339.023957 193.534957 
L 341.954539 118.51855 
L 339.023957 99.941851 
L 347.397048 99.941851 
L 344.466466 118.51855 
L 347.397048 193.534957 
L 339.023957 193.534957 
" style="fill:none;stroke:#0000ff;stroke-linecap:square;"/>
   </g>
   <g id="line2d_78">
    <path clip-path="url(#p26513fd2e3)" d="M 339.023957 193.534957 
L 347.397048 193.534957 
L 347.397048 99.941851 
L 339.023957 99.941851 
L 339.023957 193.534957 
" style="fill:none;"/>
    <g clip-path="url(#p26513fd2e3)">
     <use style="fill:#0000ff;stroke:#0000ff;" x="339.023957" xlink:href="#m4772adf2b0" y="193.534957"/>
     <use style="fill:#0000ff;stroke:#0000ff;" x="347.397048" xlink:href="#m4772adf2b0" y="193.534957"/>
     <use style="fill:#0000ff;stroke:#0000ff;" x="347.397048" xlink:href="#m4772adf2b0" y="99.941851"/>
     <use style="fill:#0000ff;stroke:#0000ff;" x="339.023957" xlink:href="#m4772adf2b0" y="99.941851"/>
     <use style="fill:#0000ff;stroke:#0000ff;" x="339.023957" xlink:href="#m4772adf2b0" y="193.534957"/>
    </g>
   </g>
   <g id="line2d_79">
    <path clip-path="url(#p26513fd2e3)" d="M 339.023957 118.51855 
L 347.397048 118.51855 
" style="fill:none;stroke:#0000ff;stroke-linecap:square;stroke-width:2;"/>
   </g>
   <g id="line2d_80">
    <path clip-path="url(#p26513fd2e3)" d="M 430.364425 130.395304 
L 433.295007 130.357653 
L 430.364425 111.761027 
L 438.737516 111.761027 
L 435.806934 130.357653 
L 438.737516 130.395304 
L 430.364425 130.395304 
" style="fill:none;stroke:#0000ff;stroke-linecap:square;"/>
   </g>
   <g id="line2d_81">
    <path clip-path="url(#p26513fd2e3)" d="M 430.364425 130.395304 
L 438.737516 130.395304 
L 438.737516 111.761027 
L 430.364425 111.761027 
L 430.364425 130.395304 
" style="fill:none;"/>
    <g clip-path="url(#p26513fd2e3)">
     <use style="fill:#0000ff;stroke:#0000ff;" x="430.364425" xlink:href="#m4772adf2b0" y="130.395304"/>
     <use style="fill:#0000ff;stroke:#0000ff;" x="438.737516" xlink:href="#m4772adf2b0" y="130.395304"/>
     <use style="fill:#0000ff;stroke:#0000ff;" x="438.737516" xlink:href="#m4772adf2b0" y="111.761027"/>
     <use style="fill:#0000ff;stroke:#0000ff;" x="430.364425" xlink:href="#m4772adf2b0" y="111.761027"/>
     <use style="fill:#0000ff;stroke:#0000ff;" x="430.364425" xlink:href="#m4772adf2b0" y="130.395304"/>
    </g>
   </g>
   <g id="line2d_82">
    <path clip-path="url(#p26513fd2e3)" d="M 430.364425 130.357653 
L 438.737516 130.357653 
" style="fill:none;stroke:#0000ff;stroke-linecap:square;stroke-width:2;"/>
   </g>
   <g id="line2d_83">
    <path clip-path="url(#p26513fd2e3)" d="M 39.784034 228.276261 
L 93.214783 103.601006 
" style="fill:none;stroke:#0000ff;stroke-linecap:square;stroke-width:4;"/>
   </g>
   <g id="line2d_84">
    <path clip-path="url(#p26513fd2e3)" d="M 93.214783 103.601006 
L 160.529565 97.273551 
" style="fill:none;stroke:#0000ff;stroke-linecap:square;stroke-width:4;"/>
   </g>
   <g id="line2d_85">
    <path clip-path="url(#p26513fd2e3)" d="M 160.529565 97.273551 
L 251.870034 83.214701 
" style="fill:none;stroke:#0000ff;stroke-linecap:square;stroke-width:4;"/>
   </g>
   <g id="line2d_86">
    <path clip-path="url(#p26513fd2e3)" d="M 251.870034 83.214701 
L 343.210502 106.813066 
" style="fill:none;stroke:#0000ff;stroke-linecap:square;stroke-width:4;"/>
   </g>
   <g id="line2d_87">
    <path clip-path="url(#p26513fd2e3)" d="M 343.210502 106.813066 
L 434.550971 123.509682 
" style="fill:none;stroke:#0000ff;stroke-linecap:square;stroke-width:4;"/>
   </g>
   <g id="line2d_88">
    <path clip-path="url(#p26513fd2e3)" d="M 39.784034 228.276261 
L 93.214783 103.601006 
L 160.529565 97.273551 
L 251.870034 83.214701 
L 343.210502 106.813066 
L 434.550971 123.509682 
" style="fill:none;"/>
    <defs>
     <path d="M 0 5 
C 1.326016 5 2.597899 4.473168 3.535534 3.535534 
C 4.473168 2.597899 5 1.326016 5 0 
C 5 -1.326016 4.473168 -2.597899 3.535534 -3.535534 
C 2.597899 -4.473168 1.326016 -5 0 -5 
C -1.326016 -5 -2.597899 -4.473168 -3.535534 -3.535534 
C -4.473168 -2.597899 -5 -1.326016 -5 0 
C -5 1.326016 -4.473168 2.597899 -3.535534 3.535534 
C -2.597899 4.473168 -1.326016 5 0 5 
z
" id="m4bc232a75f" style="stroke:#0000ff;"/>
    </defs>
    <g clip-path="url(#p26513fd2e3)">
     <use style="fill:#0000ff;stroke:#0000ff;" x="39.784034" xlink:href="#m4bc232a75f" y="228.276261"/>
     <use style="fill:#0000ff;stroke:#0000ff;" x="93.214783" xlink:href="#m4bc232a75f" y="103.601006"/>
     <use style="fill:#0000ff;stroke:#0000ff;" x="160.529565" xlink:href="#m4bc232a75f" y="97.273551"/>
     <use style="fill:#0000ff;stroke:#0000ff;" x="251.870034" xlink:href="#m4bc232a75f" y="83.214701"/>
     <use style="fill:#0000ff;stroke:#0000ff;" x="343.210502" xlink:href="#m4bc232a75f" y="106.813066"/>
     <use style="fill:#0000ff;stroke:#0000ff;" x="434.550971" xlink:href="#m4bc232a75f" y="123.509682"/>
    </g>
   </g>
   <g id="line2d_89">
    <path clip-path="url(#p26513fd2e3)" d="M 34.550852 249.146481 
L 38.214079 214.572867 
L 34.550852 208.290301 
L 45.017216 208.290301 
L 41.353988 214.572867 
L 45.017216 249.146481 
L 34.550852 249.146481 
" style="fill:none;stroke:#00bfbf;stroke-linecap:square;"/>
   </g>
   <g id="line2d_90">
    <path clip-path="url(#p26513fd2e3)" d="M 34.550852 249.146481 
L 45.017216 249.146481 
L 45.017216 208.290301 
L 34.550852 208.290301 
L 34.550852 249.146481 
" style="fill:none;"/>
    <defs>
     <path d="M -0 3 
L 3 -3 
L -3 -3 
z
" id="m2a65335c38" style="stroke:#00bfbf;stroke-linejoin:miter;stroke-width:2;"/>
    </defs>
    <g clip-path="url(#p26513fd2e3)">
     <use style="fill:#00bfbf;stroke:#00bfbf;stroke-linejoin:miter;stroke-width:2;" x="34.550852" xlink:href="#m2a65335c38" y="249.146481"/>
     <use style="fill:#00bfbf;stroke:#00bfbf;stroke-linejoin:miter;stroke-width:2;" x="45.017216" xlink:href="#m2a65335c38" y="249.146481"/>
     <use style="fill:#00bfbf;stroke:#00bfbf;stroke-linejoin:miter;stroke-width:2;" x="45.017216" xlink:href="#m2a65335c38" y="208.290301"/>
     <use style="fill:#00bfbf;stroke:#00bfbf;stroke-linejoin:miter;stroke-width:2;" x="34.550852" xlink:href="#m2a65335c38" y="208.290301"/>
     <use style="fill:#00bfbf;stroke:#00bfbf;stroke-linejoin:miter;stroke-width:2;" x="34.550852" xlink:href="#m2a65335c38" y="249.146481"/>
    </g>
   </g>
   <g id="line2d_91">
    <path clip-path="url(#p26513fd2e3)" d="M 34.550852 214.572867 
L 45.017216 214.572867 
" style="fill:none;stroke:#00bfbf;stroke-linecap:square;stroke-width:2;"/>
   </g>
   <g id="line2d_92">
    <path clip-path="url(#p26513fd2e3)" d="M 87.981601 206.939324 
L 91.644828 189.171241 
L 87.981601 86.362348 
L 98.447964 86.362348 
L 94.784737 189.171241 
L 98.447964 206.939324 
L 87.981601 206.939324 
" style="fill:none;stroke:#00bfbf;stroke-linecap:square;"/>
   </g>
   <g id="line2d_93">
    <path clip-path="url(#p26513fd2e3)" d="M 87.981601 206.939324 
L 98.447964 206.939324 
L 98.447964 86.362348 
L 87.981601 86.362348 
L 87.981601 206.939324 
" style="fill:none;"/>
    <g clip-path="url(#p26513fd2e3)">
     <use style="fill:#00bfbf;stroke:#00bfbf;stroke-linejoin:miter;stroke-width:2;" x="87.981601" xlink:href="#m2a65335c38" y="206.939324"/>
     <use style="fill:#00bfbf;stroke:#00bfbf;stroke-linejoin:miter;stroke-width:2;" x="98.447964" xlink:href="#m2a65335c38" y="206.939324"/>
     <use style="fill:#00bfbf;stroke:#00bfbf;stroke-linejoin:miter;stroke-width:2;" x="98.447964" xlink:href="#m2a65335c38" y="86.362348"/>
     <use style="fill:#00bfbf;stroke:#00bfbf;stroke-linejoin:miter;stroke-width:2;" x="87.981601" xlink:href="#m2a65335c38" y="86.362348"/>
     <use style="fill:#00bfbf;stroke:#00bfbf;stroke-linejoin:miter;stroke-width:2;" x="87.981601" xlink:href="#m2a65335c38" y="206.939324"/>
    </g>
   </g>
   <g id="line2d_94">
    <path clip-path="url(#p26513fd2e3)" d="M 87.981601 189.171241 
L 98.447964 189.171241 
" style="fill:none;stroke:#00bfbf;stroke-linecap:square;stroke-width:2;"/>
   </g>
   <g id="line2d_95">
    <path clip-path="url(#p26513fd2e3)" d="M 155.296383 76.281483 
L 158.959611 69.4005 
L 155.296383 59.574751 
L 165.762747 59.574751 
L 162.09952 69.4005 
L 165.762747 76.281483 
L 155.296383 76.281483 
" style="fill:none;stroke:#00bfbf;stroke-linecap:square;"/>
   </g>
   <g id="line2d_96">
    <path clip-path="url(#p26513fd2e3)" d="M 155.296383 76.281483 
L 165.762747 76.281483 
L 165.762747 59.574751 
L 155.296383 59.574751 
L 155.296383 76.281483 
" style="fill:none;"/>
    <g clip-path="url(#p26513fd2e3)">
     <use style="fill:#00bfbf;stroke:#00bfbf;stroke-linejoin:miter;stroke-width:2;" x="155.296383" xlink:href="#m2a65335c38" y="76.281483"/>
     <use style="fill:#00bfbf;stroke:#00bfbf;stroke-linejoin:miter;stroke-width:2;" x="165.762747" xlink:href="#m2a65335c38" y="76.281483"/>
     <use style="fill:#00bfbf;stroke:#00bfbf;stroke-linejoin:miter;stroke-width:2;" x="165.762747" xlink:href="#m2a65335c38" y="59.574751"/>
     <use style="fill:#00bfbf;stroke:#00bfbf;stroke-linejoin:miter;stroke-width:2;" x="155.296383" xlink:href="#m2a65335c38" y="59.574751"/>
     <use style="fill:#00bfbf;stroke:#00bfbf;stroke-linejoin:miter;stroke-width:2;" x="155.296383" xlink:href="#m2a65335c38" y="76.281483"/>
    </g>
   </g>
   <g id="line2d_97">
    <path clip-path="url(#p26513fd2e3)" d="M 155.296383 69.4005 
L 165.762747 69.4005 
" style="fill:none;stroke:#00bfbf;stroke-linecap:square;stroke-width:2;"/>
   </g>
   <g id="line2d_98">
    <path clip-path="url(#p26513fd2e3)" d="M 39.784034 111.336381 
L 93.214783 93.255831 
" style="fill:none;stroke:#00bfbf;stroke-linecap:square;stroke-width:4;"/>
   </g>
   <g id="line2d_99">
    <path clip-path="url(#p26513fd2e3)" d="M 93.214783 93.255831 
L 160.529565 71.400896 
" style="fill:none;stroke:#00bfbf;stroke-linecap:square;stroke-width:4;"/>
   </g>
   <g id="line2d_100">
    <path clip-path="url(#p26513fd2e3)" d="M 39.784034 111.336381 
L 93.214783 93.255831 
L 160.529565 71.400896 
" style="fill:none;"/>
    <defs>
     <path d="M -0 10 
L 10 -10 
L -10 -10 
z
" id="m256f3a3d9c" style="stroke:#000000;stroke-linejoin:miter;stroke-width:2;"/>
    </defs>
    <g clip-path="url(#p26513fd2e3)">
     <use style="fill:#00bfbf;stroke:#000000;stroke-linejoin:miter;stroke-width:2;" x="39.784034" xlink:href="#m256f3a3d9c" y="111.336381"/>
     <use style="fill:#00bfbf;stroke:#000000;stroke-linejoin:miter;stroke-width:2;" x="93.214783" xlink:href="#m256f3a3d9c" y="93.255831"/>
     <use style="fill:#00bfbf;stroke:#000000;stroke-linejoin:miter;stroke-width:2;" x="160.529565" xlink:href="#m256f3a3d9c" y="71.400896"/>
    </g>
   </g>
   <g id="line2d_101">
    <path clip-path="url(#p26513fd2e3)" d="M 33.504216 208.290301 
L 37.900088 191.706904 
L 33.504216 79.441541 
L 46.063852 79.441541 
L 41.667979 191.706904 
L 46.063852 208.290301 
L 33.504216 208.290301 
" style="fill:none;stroke:#008000;stroke-linecap:square;"/>
   </g>
   <g id="line2d_102">
    <path clip-path="url(#p26513fd2e3)" d="M 33.504216 208.290301 
L 46.063852 208.290301 
L 46.063852 79.441541 
L 33.504216 79.441541 
L 33.504216 208.290301 
" style="fill:none;"/>
    <defs>
     <path d="M 0 1.5 
C 0.397805 1.5 0.77937 1.341951 1.06066 1.06066 
C 1.341951 0.77937 1.5 0.397805 1.5 0 
C 1.5 -0.397805 1.341951 -0.77937 1.06066 -1.06066 
C 0.77937 -1.341951 0.397805 -1.5 0 -1.5 
C -0.397805 -1.5 -0.77937 -1.341951 -1.06066 -1.06066 
C -1.341951 -0.77937 -1.5 -0.397805 -1.5 0 
C -1.5 0.397805 -1.341951 0.77937 -1.06066 1.06066 
C -0.77937 1.341951 -0.397805 1.5 0 1.5 
z
" id="m70a8717e32" style="stroke:#008000;"/>
    </defs>
    <g clip-path="url(#p26513fd2e3)">
     <use style="fill:#008000;stroke:#008000;" x="33.504216" xlink:href="#m70a8717e32" y="208.290301"/>
     <use style="fill:#008000;stroke:#008000;" x="46.063852" xlink:href="#m70a8717e32" y="208.290301"/>
     <use style="fill:#008000;stroke:#008000;" x="46.063852" xlink:href="#m70a8717e32" y="79.441541"/>
     <use style="fill:#008000;stroke:#008000;" x="33.504216" xlink:href="#m70a8717e32" y="79.441541"/>
     <use style="fill:#008000;stroke:#008000;" x="33.504216" xlink:href="#m70a8717e32" y="208.290301"/>
    </g>
   </g>
   <g id="line2d_103">
    <path clip-path="url(#p26513fd2e3)" d="M 33.504216 191.706904 
L 46.063852 191.706904 
" style="fill:none;stroke:#008000;stroke-linecap:square;stroke-width:2;"/>
   </g>
   <g id="line2d_104">
    <path clip-path="url(#p26513fd2e3)" d="M 86.934964 186.017583 
L 91.330837 186.017583 
L 86.934964 86.325528 
L 99.494601 86.325528 
L 95.098728 186.017583 
L 99.494601 186.017583 
L 86.934964 186.017583 
" style="fill:none;stroke:#008000;stroke-linecap:square;"/>
   </g>
   <g id="line2d_105">
    <path clip-path="url(#p26513fd2e3)" d="M 86.934964 186.017583 
L 99.494601 186.017583 
L 99.494601 86.325528 
L 86.934964 86.325528 
L 86.934964 186.017583 
" style="fill:none;"/>
    <g clip-path="url(#p26513fd2e3)">
     <use style="fill:#008000;stroke:#008000;" x="86.934964" xlink:href="#m70a8717e32" y="186.017583"/>
     <use style="fill:#008000;stroke:#008000;" x="99.494601" xlink:href="#m70a8717e32" y="186.017583"/>
     <use style="fill:#008000;stroke:#008000;" x="99.494601" xlink:href="#m70a8717e32" y="86.325528"/>
     <use style="fill:#008000;stroke:#008000;" x="86.934964" xlink:href="#m70a8717e32" y="86.325528"/>
     <use style="fill:#008000;stroke:#008000;" x="86.934964" xlink:href="#m70a8717e32" y="186.017583"/>
    </g>
   </g>
   <g id="line2d_106">
    <path clip-path="url(#p26513fd2e3)" d="M 86.934964 186.017583 
L 99.494601 186.017583 
" style="fill:none;stroke:#008000;stroke-linecap:square;stroke-width:2;"/>
   </g>
   <g id="line2d_107">
    <path clip-path="url(#p26513fd2e3)" d="M 154.249747 170.703272 
L 158.64562 88.023043 
L 154.249747 67.573882 
L 166.809383 67.573882 
L 162.413511 88.023043 
L 166.809383 170.703272 
L 154.249747 170.703272 
" style="fill:none;stroke:#008000;stroke-linecap:square;"/>
   </g>
   <g id="line2d_108">
    <path clip-path="url(#p26513fd2e3)" d="M 154.249747 170.703272 
L 166.809383 170.703272 
L 166.809383 67.573882 
L 154.249747 67.573882 
L 154.249747 170.703272 
" style="fill:none;"/>
    <g clip-path="url(#p26513fd2e3)">
     <use style="fill:#008000;stroke:#008000;" x="154.249747" xlink:href="#m70a8717e32" y="170.703272"/>
     <use style="fill:#008000;stroke:#008000;" x="166.809383" xlink:href="#m70a8717e32" y="170.703272"/>
     <use style="fill:#008000;stroke:#008000;" x="166.809383" xlink:href="#m70a8717e32" y="67.573882"/>
     <use style="fill:#008000;stroke:#008000;" x="154.249747" xlink:href="#m70a8717e32" y="67.573882"/>
     <use style="fill:#008000;stroke:#008000;" x="154.249747" xlink:href="#m70a8717e32" y="170.703272"/>
    </g>
   </g>
   <g id="line2d_109">
    <path clip-path="url(#p26513fd2e3)" d="M 154.249747 88.023043 
L 166.809383 88.023043 
" style="fill:none;stroke:#008000;stroke-linecap:square;stroke-width:2;"/>
   </g>
   <g id="line2d_110">
    <path clip-path="url(#p26513fd2e3)" d="M 39.784034 96.673608 
L 93.214783 79.415378 
" style="fill:none;stroke:#008000;stroke-linecap:square;stroke-width:4;"/>
   </g>
   <g id="line2d_111">
    <path clip-path="url(#p26513fd2e3)" d="M 93.214783 79.415378 
L 160.529565 71.370792 
" style="fill:none;stroke:#008000;stroke-linecap:square;stroke-width:4;"/>
   </g>
   <g id="line2d_112">
    <path clip-path="url(#p26513fd2e3)" d="M 39.784034 96.673608 
L 93.214783 79.415378 
L 160.529565 71.370792 
" style="fill:none;"/>
    <defs>
     <path d="M 0 5 
C 1.326016 5 2.597899 4.473168 3.535534 3.535534 
C 4.473168 2.597899 5 1.326016 5 0 
C 5 -1.326016 4.473168 -2.597899 3.535534 -3.535534 
C 2.597899 -4.473168 1.326016 -5 0 -5 
C -1.326016 -5 -2.597899 -4.473168 -3.535534 -3.535534 
C -4.473168 -2.597899 -5 -1.326016 -5 0 
C -5 1.326016 -4.473168 2.597899 -3.535534 3.535534 
C -2.597899 4.473168 -1.326016 5 0 5 
z
" id="m9455f594ab" style="stroke:#008000;"/>
    </defs>
    <g clip-path="url(#p26513fd2e3)">
     <use style="fill:#008000;stroke:#008000;" x="39.784034" xlink:href="#m9455f594ab" y="96.673608"/>
     <use style="fill:#008000;stroke:#008000;" x="93.214783" xlink:href="#m9455f594ab" y="79.415378"/>
     <use style="fill:#008000;stroke:#008000;" x="160.529565" xlink:href="#m9455f594ab" y="71.370792"/>
    </g>
   </g>
   <g id="line2d_113">
    <path clip-path="url(#p26513fd2e3)" d="M 32.457579 178.129263 
L 37.586097 79.426634 
L 32.457579 60.689824 
L 47.110488 60.689824 
L 41.98197 79.426634 
L 47.110488 178.129263 
L 32.457579 178.129263 
" style="fill:none;stroke:#bfbf00;stroke-linecap:square;"/>
   </g>
   <g id="line2d_114">
    <path clip-path="url(#p26513fd2e3)" d="M 32.457579 178.129263 
L 47.110488 178.129263 
L 47.110488 60.689824 
L 32.457579 60.689824 
L 32.457579 178.129263 
" style="fill:none;"/>
    <defs>
     <path d="M 0 -3 
L -3 3 
L 3 3 
z
" id="md2336ce75f" style="stroke:#bfbf00;stroke-linejoin:miter;stroke-width:2;"/>
    </defs>
    <g clip-path="url(#p26513fd2e3)">
     <use style="fill:#bfbf00;stroke:#bfbf00;stroke-linejoin:miter;stroke-width:2;" x="32.457579" xlink:href="#md2336ce75f" y="178.129263"/>
     <use style="fill:#bfbf00;stroke:#bfbf00;stroke-linejoin:miter;stroke-width:2;" x="47.110488" xlink:href="#md2336ce75f" y="178.129263"/>
     <use style="fill:#bfbf00;stroke:#bfbf00;stroke-linejoin:miter;stroke-width:2;" x="47.110488" xlink:href="#md2336ce75f" y="60.689824"/>
     <use style="fill:#bfbf00;stroke:#bfbf00;stroke-linejoin:miter;stroke-width:2;" x="32.457579" xlink:href="#md2336ce75f" y="60.689824"/>
     <use style="fill:#bfbf00;stroke:#bfbf00;stroke-linejoin:miter;stroke-width:2;" x="32.457579" xlink:href="#md2336ce75f" y="178.129263"/>
    </g>
   </g>
   <g id="line2d_115">
    <path clip-path="url(#p26513fd2e3)" d="M 32.457579 79.426634 
L 47.110488 79.426634 
" style="fill:none;stroke:#bfbf00;stroke-linecap:square;stroke-width:2;"/>
   </g>
   <g id="line2d_116">
    <path clip-path="url(#p26513fd2e3)" d="M 85.888328 86.324097 
L 91.016846 86.264573 
L 85.888328 74.484738 
L 100.541237 74.484738 
L 95.412719 86.264573 
L 100.541237 86.324097 
L 85.888328 86.324097 
" style="fill:none;stroke:#bfbf00;stroke-linecap:square;"/>
   </g>
   <g id="line2d_117">
    <path clip-path="url(#p26513fd2e3)" d="M 85.888328 86.324097 
L 100.541237 86.324097 
L 100.541237 74.484738 
L 85.888328 74.484738 
L 85.888328 86.324097 
" style="fill:none;"/>
    <g clip-path="url(#p26513fd2e3)">
     <use style="fill:#bfbf00;stroke:#bfbf00;stroke-linejoin:miter;stroke-width:2;" x="85.888328" xlink:href="#md2336ce75f" y="86.324097"/>
     <use style="fill:#bfbf00;stroke:#bfbf00;stroke-linejoin:miter;stroke-width:2;" x="100.541237" xlink:href="#md2336ce75f" y="86.324097"/>
     <use style="fill:#bfbf00;stroke:#bfbf00;stroke-linejoin:miter;stroke-width:2;" x="100.541237" xlink:href="#md2336ce75f" y="74.484738"/>
     <use style="fill:#bfbf00;stroke:#bfbf00;stroke-linejoin:miter;stroke-width:2;" x="85.888328" xlink:href="#md2336ce75f" y="74.484738"/>
     <use style="fill:#bfbf00;stroke:#bfbf00;stroke-linejoin:miter;stroke-width:2;" x="85.888328" xlink:href="#md2336ce75f" y="86.324097"/>
    </g>
   </g>
   <g id="line2d_118">
    <path clip-path="url(#p26513fd2e3)" d="M 85.888328 86.264573 
L 100.541237 86.264573 
" style="fill:none;stroke:#bfbf00;stroke-linecap:square;stroke-width:2;"/>
   </g>
   <g id="line2d_119">
    <path clip-path="url(#p26513fd2e3)" d="M 153.203111 94.806507 
L 158.331629 79.274888 
L 153.203111 67.559376 
L 167.85602 67.559376 
L 162.727502 79.274888 
L 167.85602 94.806507 
L 153.203111 94.806507 
" style="fill:none;stroke:#bfbf00;stroke-linecap:square;"/>
   </g>
   <g id="line2d_120">
    <path clip-path="url(#p26513fd2e3)" d="M 153.203111 94.806507 
L 167.85602 94.806507 
L 167.85602 67.559376 
L 153.203111 67.559376 
L 153.203111 94.806507 
" style="fill:none;"/>
    <g clip-path="url(#p26513fd2e3)">
     <use style="fill:#bfbf00;stroke:#bfbf00;stroke-linejoin:miter;stroke-width:2;" x="153.203111" xlink:href="#md2336ce75f" y="94.806507"/>
     <use style="fill:#bfbf00;stroke:#bfbf00;stroke-linejoin:miter;stroke-width:2;" x="167.85602" xlink:href="#md2336ce75f" y="94.806507"/>
     <use style="fill:#bfbf00;stroke:#bfbf00;stroke-linejoin:miter;stroke-width:2;" x="167.85602" xlink:href="#md2336ce75f" y="67.559376"/>
     <use style="fill:#bfbf00;stroke:#bfbf00;stroke-linejoin:miter;stroke-width:2;" x="153.203111" xlink:href="#md2336ce75f" y="67.559376"/>
     <use style="fill:#bfbf00;stroke:#bfbf00;stroke-linejoin:miter;stroke-width:2;" x="153.203111" xlink:href="#md2336ce75f" y="94.806507"/>
    </g>
   </g>
   <g id="line2d_121">
    <path clip-path="url(#p26513fd2e3)" d="M 153.203111 79.274888 
L 167.85602 79.274888 
" style="fill:none;stroke:#bfbf00;stroke-linecap:square;stroke-width:2;"/>
   </g>
   <g id="line2d_122">
    <path clip-path="url(#p26513fd2e3)" d="M 39.784034 77.143671 
L 93.214783 69.062337 
" style="fill:none;stroke:#bfbf00;stroke-linecap:square;stroke-width:4;"/>
   </g>
   <g id="line2d_123">
    <path clip-path="url(#p26513fd2e3)" d="M 93.214783 69.062337 
L 160.529565 71.329244 
" style="fill:none;stroke:#bfbf00;stroke-linecap:square;stroke-width:4;"/>
   </g>
   <g id="line2d_124">
    <path clip-path="url(#p26513fd2e3)" d="M 39.784034 77.143671 
L 93.214783 69.062337 
L 160.529565 71.329244 
" style="fill:none;"/>
    <defs>
     <path d="M 0 -10 
L -10 10 
L 10 10 
z
" id="m0e501d7943" style="stroke:#000000;stroke-linejoin:miter;stroke-width:2;"/>
    </defs>
    <g clip-path="url(#p26513fd2e3)">
     <use style="fill:#bfbf00;stroke:#000000;stroke-linejoin:miter;stroke-width:2;" x="39.784034" xlink:href="#m0e501d7943" y="77.143671"/>
     <use style="fill:#bfbf00;stroke:#000000;stroke-linejoin:miter;stroke-width:2;" x="93.214783" xlink:href="#m0e501d7943" y="69.062337"/>
     <use style="fill:#bfbf00;stroke:#000000;stroke-linejoin:miter;stroke-width:2;" x="160.529565" xlink:href="#m0e501d7943" y="71.329244"/>
    </g>
   </g>
   <g id="line2d_125">
    <path clip-path="url(#p26513fd2e3)" d="M 31.410943 197.987717 
L 37.272107 143.913493 
L 31.410943 60.685628 
L 48.157125 60.685628 
L 42.295961 143.913493 
L 48.157125 197.987717 
L 31.410943 197.987717 
" style="fill:none;stroke:#bf00bf;stroke-linecap:square;"/>
   </g>
   <g id="line2d_126">
    <path clip-path="url(#p26513fd2e3)" d="M 31.410943 197.987717 
L 48.157125 197.987717 
L 48.157125 60.685628 
L 31.410943 60.685628 
L 31.410943 197.987717 
" style="fill:none;"/>
    <defs>
     <path d="M 0 1.5 
C 0.397805 1.5 0.77937 1.341951 1.06066 1.06066 
C 1.341951 0.77937 1.5 0.397805 1.5 0 
C 1.5 -0.397805 1.341951 -0.77937 1.06066 -1.06066 
C 0.77937 -1.341951 0.397805 -1.5 0 -1.5 
C -0.397805 -1.5 -0.77937 -1.341951 -1.06066 -1.06066 
C -1.341951 -0.77937 -1.5 -0.397805 -1.5 0 
C -1.5 0.397805 -1.341951 0.77937 -1.06066 1.06066 
C -0.77937 1.341951 -0.397805 1.5 0 1.5 
z
" id="mf56c181785" style="stroke:#bf00bf;"/>
    </defs>
    <g clip-path="url(#p26513fd2e3)">
     <use style="fill:#bf00bf;stroke:#bf00bf;" x="31.410943" xlink:href="#mf56c181785" y="197.987717"/>
     <use style="fill:#bf00bf;stroke:#bf00bf;" x="48.157125" xlink:href="#mf56c181785" y="197.987717"/>
     <use style="fill:#bf00bf;stroke:#bf00bf;" x="48.157125" xlink:href="#mf56c181785" y="60.685628"/>
     <use style="fill:#bf00bf;stroke:#bf00bf;" x="31.410943" xlink:href="#mf56c181785" y="60.685628"/>
     <use style="fill:#bf00bf;stroke:#bf00bf;" x="31.410943" xlink:href="#mf56c181785" y="197.987717"/>
    </g>
   </g>
   <g id="line2d_127">
    <path clip-path="url(#p26513fd2e3)" d="M 31.410943 143.913493 
L 48.157125 143.913493 
" style="fill:none;stroke:#bf00bf;stroke-linecap:square;stroke-width:2;"/>
   </g>
   <g id="line2d_128">
    <path clip-path="url(#p26513fd2e3)" d="M 84.841692 169.261795 
L 90.702855 151.230709 
L 84.841692 74.467696 
L 101.587873 74.467696 
L 95.72671 151.230709 
L 101.587873 169.261795 
L 84.841692 169.261795 
" style="fill:none;stroke:#bf00bf;stroke-linecap:square;"/>
   </g>
   <g id="line2d_129">
    <path clip-path="url(#p26513fd2e3)" d="M 84.841692 169.261795 
L 101.587873 169.261795 
L 101.587873 74.467696 
L 84.841692 74.467696 
L 84.841692 169.261795 
" style="fill:none;"/>
    <g clip-path="url(#p26513fd2e3)">
     <use style="fill:#bf00bf;stroke:#bf00bf;" x="84.841692" xlink:href="#mf56c181785" y="169.261795"/>
     <use style="fill:#bf00bf;stroke:#bf00bf;" x="101.587873" xlink:href="#mf56c181785" y="169.261795"/>
     <use style="fill:#bf00bf;stroke:#bf00bf;" x="101.587873" xlink:href="#mf56c181785" y="74.467696"/>
     <use style="fill:#bf00bf;stroke:#bf00bf;" x="84.841692" xlink:href="#mf56c181785" y="74.467696"/>
     <use style="fill:#bf00bf;stroke:#bf00bf;" x="84.841692" xlink:href="#mf56c181785" y="169.261795"/>
    </g>
   </g>
   <g id="line2d_130">
    <path clip-path="url(#p26513fd2e3)" d="M 84.841692 151.230709 
L 101.587873 151.230709 
" style="fill:none;stroke:#bf00bf;stroke-linecap:square;stroke-width:2;"/>
   </g>
   <g id="line2d_131">
    <path clip-path="url(#p26513fd2e3)" d="M 152.156474 144.870393 
L 158.017638 79.110403 
L 152.156474 61.719729 
L 168.902656 61.719729 
L 163.041493 79.110403 
L 168.902656 144.870393 
L 152.156474 144.870393 
" style="fill:none;stroke:#bf00bf;stroke-linecap:square;"/>
   </g>
   <g id="line2d_132">
    <path clip-path="url(#p26513fd2e3)" d="M 152.156474 144.870393 
L 168.902656 144.870393 
L 168.902656 61.719729 
L 152.156474 61.719729 
L 152.156474 144.870393 
" style="fill:none;"/>
    <g clip-path="url(#p26513fd2e3)">
     <use style="fill:#bf00bf;stroke:#bf00bf;" x="152.156474" xlink:href="#mf56c181785" y="144.870393"/>
     <use style="fill:#bf00bf;stroke:#bf00bf;" x="168.902656" xlink:href="#mf56c181785" y="144.870393"/>
     <use style="fill:#bf00bf;stroke:#bf00bf;" x="168.902656" xlink:href="#mf56c181785" y="61.719729"/>
     <use style="fill:#bf00bf;stroke:#bf00bf;" x="152.156474" xlink:href="#mf56c181785" y="61.719729"/>
     <use style="fill:#bf00bf;stroke:#bf00bf;" x="152.156474" xlink:href="#mf56c181785" y="144.870393"/>
    </g>
   </g>
   <g id="line2d_133">
    <path clip-path="url(#p26513fd2e3)" d="M 152.156474 79.110403 
L 168.902656 79.110403 
" style="fill:none;stroke:#bf00bf;stroke-linecap:square;stroke-width:2;"/>
   </g>
   <g id="line2d_134">
    <path clip-path="url(#p26513fd2e3)" d="M 39.784034 76.927721 
L 93.214783 68.93549 
" style="fill:none;stroke:#bf00bf;stroke-linecap:square;stroke-width:4;"/>
   </g>
   <g id="line2d_135">
    <path clip-path="url(#p26513fd2e3)" d="M 93.214783 68.93549 
L 160.529565 71.194479 
" style="fill:none;stroke:#bf00bf;stroke-linecap:square;stroke-width:4;"/>
   </g>
   <g id="line2d_136">
    <path clip-path="url(#p26513fd2e3)" d="M 39.784034 76.927721 
L 93.214783 68.93549 
L 160.529565 71.194479 
" style="fill:none;"/>
    <defs>
     <path d="M 0 5 
C 1.326016 5 2.597899 4.473168 3.535534 3.535534 
C 4.473168 2.597899 5 1.326016 5 0 
C 5 -1.326016 4.473168 -2.597899 3.535534 -3.535534 
C 2.597899 -4.473168 1.326016 -5 0 -5 
C -1.326016 -5 -2.597899 -4.473168 -3.535534 -3.535534 
C -4.473168 -2.597899 -5 -1.326016 -5 0 
C -5 1.326016 -4.473168 2.597899 -3.535534 3.535534 
C -2.597899 4.473168 -1.326016 5 0 5 
z
" id="m033cbd062e" style="stroke:#bf00bf;"/>
    </defs>
    <g clip-path="url(#p26513fd2e3)">
     <use style="fill:#bf00bf;stroke:#bf00bf;" x="39.784034" xlink:href="#m033cbd062e" y="76.927721"/>
     <use style="fill:#bf00bf;stroke:#bf00bf;" x="93.214783" xlink:href="#m033cbd062e" y="68.93549"/>
     <use style="fill:#bf00bf;stroke:#bf00bf;" x="160.529565" xlink:href="#m033cbd062e" y="71.194479"/>
    </g>
   </g>
   <g id="line2d_137">
    <path clip-path="url(#p26513fd2e3)" d="M 30.364307 79.306185 
L 36.958116 78.009271 
L 30.364307 60.649224 
L 49.203761 60.649224 
L 42.609952 78.009271 
L 49.203761 79.306185 
L 30.364307 79.306185 
" style="fill:none;stroke:#ff0000;stroke-linecap:square;"/>
   </g>
   <g id="line2d_138">
    <path clip-path="url(#p26513fd2e3)" d="M 30.364307 79.306185 
L 49.203761 79.306185 
L 49.203761 60.649224 
L 30.364307 60.649224 
L 30.364307 79.306185 
" style="fill:none;"/>
    <defs>
     <path d="M 0 3 
C 0.795609 3 1.55874 2.683901 2.12132 2.12132 
C 2.683901 1.55874 3 0.795609 3 0 
C 3 -0.795609 2.683901 -1.55874 2.12132 -2.12132 
C 1.55874 -2.683901 0.795609 -3 0 -3 
C -0.795609 -3 -1.55874 -2.683901 -2.12132 -2.12132 
C -2.683901 -1.55874 -3 -0.795609 -3 0 
C -3 0.795609 -2.683901 1.55874 -2.12132 2.12132 
C -1.55874 2.683901 -0.795609 3 0 3 
z
" id="ma656bec1de" style="stroke:#ff0000;stroke-width:2;"/>
    </defs>
    <g clip-path="url(#p26513fd2e3)">
     <use style="fill:#ff0000;stroke:#ff0000;stroke-width:2;" x="30.364307" xlink:href="#ma656bec1de" y="79.306185"/>
     <use style="fill:#ff0000;stroke:#ff0000;stroke-width:2;" x="49.203761" xlink:href="#ma656bec1de" y="79.306185"/>
     <use style="fill:#ff0000;stroke:#ff0000;stroke-width:2;" x="49.203761" xlink:href="#ma656bec1de" y="60.649224"/>
     <use style="fill:#ff0000;stroke:#ff0000;stroke-width:2;" x="30.364307" xlink:href="#ma656bec1de" y="60.649224"/>
     <use style="fill:#ff0000;stroke:#ff0000;stroke-width:2;" x="30.364307" xlink:href="#ma656bec1de" y="79.306185"/>
    </g>
   </g>
   <g id="line2d_139">
    <path clip-path="url(#p26513fd2e3)" d="M 30.364307 78.009271 
L 49.203761 78.009271 
" style="fill:none;stroke:#ff0000;stroke-linecap:square;stroke-width:2;"/>
   </g>
   <g id="line2d_140">
    <path clip-path="url(#p26513fd2e3)" d="M 83.795055 67.544028 
L 90.388864 58.854736 
L 83.795055 52.968904 
L 102.63451 52.968904 
L 96.040701 58.854736 
L 102.63451 67.544028 
L 83.795055 67.544028 
" style="fill:none;stroke:#ff0000;stroke-linecap:square;"/>
   </g>
   <g id="line2d_141">
    <path clip-path="url(#p26513fd2e3)" d="M 83.795055 67.544028 
L 102.63451 67.544028 
L 102.63451 52.968904 
L 83.795055 52.968904 
L 83.795055 67.544028 
" style="fill:none;"/>
    <g clip-path="url(#p26513fd2e3)">
     <use style="fill:#ff0000;stroke:#ff0000;stroke-width:2;" x="83.795055" xlink:href="#ma656bec1de" y="67.544028"/>
     <use style="fill:#ff0000;stroke:#ff0000;stroke-width:2;" x="102.63451" xlink:href="#ma656bec1de" y="67.544028"/>
     <use style="fill:#ff0000;stroke:#ff0000;stroke-width:2;" x="102.63451" xlink:href="#ma656bec1de" y="52.968904"/>
     <use style="fill:#ff0000;stroke:#ff0000;stroke-width:2;" x="83.795055" xlink:href="#ma656bec1de" y="52.968904"/>
     <use style="fill:#ff0000;stroke:#ff0000;stroke-width:2;" x="83.795055" xlink:href="#ma656bec1de" y="67.544028"/>
    </g>
   </g>
   <g id="line2d_142">
    <path clip-path="url(#p26513fd2e3)" d="M 83.795055 58.854736 
L 102.63451 58.854736 
" style="fill:none;stroke:#ff0000;stroke-linecap:square;stroke-width:2;"/>
   </g>
   <g id="line2d_143">
    <path clip-path="url(#p26513fd2e3)" d="M 151.109838 93.080692 
L 157.703647 73.135015 
L 151.109838 64.153134 
L 169.949292 64.153134 
L 163.355483 73.135015 
L 169.949292 93.080692 
L 151.109838 93.080692 
" style="fill:none;stroke:#ff0000;stroke-linecap:square;"/>
   </g>
   <g id="line2d_144">
    <path clip-path="url(#p26513fd2e3)" d="M 151.109838 93.080692 
L 169.949292 93.080692 
L 169.949292 64.153134 
L 151.109838 64.153134 
L 151.109838 93.080692 
" style="fill:none;"/>
    <g clip-path="url(#p26513fd2e3)">
     <use style="fill:#ff0000;stroke:#ff0000;stroke-width:2;" x="151.109838" xlink:href="#ma656bec1de" y="93.080692"/>
     <use style="fill:#ff0000;stroke:#ff0000;stroke-width:2;" x="169.949292" xlink:href="#ma656bec1de" y="93.080692"/>
     <use style="fill:#ff0000;stroke:#ff0000;stroke-width:2;" x="169.949292" xlink:href="#ma656bec1de" y="64.153134"/>
     <use style="fill:#ff0000;stroke:#ff0000;stroke-width:2;" x="151.109838" xlink:href="#ma656bec1de" y="64.153134"/>
     <use style="fill:#ff0000;stroke:#ff0000;stroke-width:2;" x="151.109838" xlink:href="#ma656bec1de" y="93.080692"/>
    </g>
   </g>
   <g id="line2d_145">
    <path clip-path="url(#p26513fd2e3)" d="M 151.109838 73.135015 
L 169.949292 73.135015 
" style="fill:none;stroke:#ff0000;stroke-linecap:square;stroke-width:2;"/>
   </g>
   <g id="line2d_146">
    <path clip-path="url(#p26513fd2e3)" d="M 39.784034 61.801536 
L 93.214783 68.814646 
" style="fill:none;stroke:#ff0000;stroke-linecap:square;stroke-width:4;"/>
   </g>
   <g id="line2d_147">
    <path clip-path="url(#p26513fd2e3)" d="M 93.214783 68.814646 
L 160.529565 70.951077 
" style="fill:none;stroke:#ff0000;stroke-linecap:square;stroke-width:4;"/>
   </g>
   <g id="line2d_148">
    <path clip-path="url(#p26513fd2e3)" d="M 39.784034 61.801536 
L 93.214783 68.814646 
L 160.529565 70.951077 
" style="fill:none;"/>
    <defs>
     <path d="M 0 10 
C 2.652031 10 5.195799 8.946337 7.071068 7.071068 
C 8.946337 5.195799 10 2.652031 10 0 
C 10 -2.652031 8.946337 -5.195799 7.071068 -7.071068 
C 5.195799 -8.946337 2.652031 -10 0 -10 
C -2.652031 -10 -5.195799 -8.946337 -7.071068 -7.071068 
C -8.946337 -5.195799 -10 -2.652031 -10 0 
C -10 2.652031 -8.946337 5.195799 -7.071068 7.071068 
C -5.195799 8.946337 -2.652031 10 0 10 
z
" id="mb9770dedf5" style="stroke:#000000;stroke-width:2;"/>
    </defs>
    <g clip-path="url(#p26513fd2e3)">
     <use style="fill:#ff0000;stroke:#000000;stroke-width:2;" x="39.784034" xlink:href="#mb9770dedf5" y="61.801536"/>
     <use style="fill:#ff0000;stroke:#000000;stroke-width:2;" x="93.214783" xlink:href="#mb9770dedf5" y="68.814646"/>
     <use style="fill:#ff0000;stroke:#000000;stroke-width:2;" x="160.529565" xlink:href="#mb9770dedf5" y="70.951077"/>
    </g>
   </g>
   <g id="line2d_149"/>
   <g id="line2d_150"/>
   <g id="line2d_151"/>
   <g id="line2d_152"/>
   <g id="line2d_153"/>
   <g id="line2d_154"/>
   <g id="line2d_155"/>
   <g id="line2d_156">
    <defs>
     <path d="M -10 10 
L 10 -10 
M -10 -10 
L 10 10 
" id="maf642e4c60" style="stroke:#ff0000;"/>
    </defs>
    <g clip-path="url(#p26513fd2e3)">
     <use style="fill:#ff0000;stroke:#ff0000;" x="39.784034" xlink:href="#maf642e4c60" y="79.443248"/>
     <use style="fill:#ff0000;stroke:#ff0000;" x="93.214783" xlink:href="#maf642e4c60" y="86.362656"/>
     <use style="fill:#ff0000;stroke:#ff0000;" x="160.529565" xlink:href="#maf642e4c60" y="95.080078"/>
     <use style="fill:#ff0000;stroke:#ff0000;" x="251.870034" xlink:href="#maf642e4c60" y="106.908884"/>
     <use style="fill:#ff0000;stroke:#ff0000;" x="343.210502" xlink:href="#maf642e4c60" y="118.73769"/>
     <use style="fill:#ff0000;stroke:#ff0000;" x="434.550971" xlink:href="#maf642e4c60" y="130.566496"/>
    </g>
   </g>
   <g id="line2d_157">
    <path clip-path="url(#p26513fd2e3)" d="M 9.47998 346.6 
L 461.8 288.023492 
" style="fill:none;stroke:#000000;stroke-dasharray:0.5,0.825;stroke-dashoffset:0;stroke-width:0.5;"/>
   </g>
   <g id="line2d_158">
    <path clip-path="url(#p26513fd2e3)" d="M -1 269.368298 
L 461.8 209.434608 
" style="fill:none;stroke:#000000;stroke-dasharray:0.5,0.825;stroke-dashoffset:0;stroke-width:0.5;"/>
   </g>
   <g id="line2d_159">
    <path clip-path="url(#p26513fd2e3)" d="M -1 190.779414 
L 461.8 130.845724 
" style="fill:none;stroke:#000000;stroke-dasharray:0.5,0.825;stroke-dashoffset:0;stroke-width:0.5;"/>
   </g>
   <g id="line2d_160">
    <path clip-path="url(#p26513fd2e3)" d="M -1 112.19053 
L 461.8 52.25684 
" style="fill:none;stroke:#000000;stroke-dasharray:0.5,0.825;stroke-dashoffset:0;stroke-width:0.5;"/>
   </g>
   <g id="line2d_161">
    <path clip-path="url(#p26513fd2e3)" d="M -1 33.601645 
L 266.189316 -1 
" style="fill:none;stroke:#000000;stroke-dasharray:0.5,0.825;stroke-dashoffset:0;stroke-width:0.5;"/>
   </g>
   <g id="patch_3">
    <path d="M 25.9 311.24 
L 25.9 28.32 
" style="fill:none;stroke:#000000;stroke-linecap:square;stroke-linejoin:miter;stroke-width:0.8;"/>
   </g>
   <g id="patch_4">
    <path d="M 450.072 311.24 
L 450.072 28.32 
" style="fill:none;stroke:#000000;stroke-linecap:square;stroke-linejoin:miter;stroke-width:0.8;"/>
   </g>
   <g id="patch_5">
    <path d="M 25.9 311.24 
L 450.072 311.24 
" style="fill:none;stroke:#000000;stroke-linecap:square;stroke-linejoin:miter;stroke-width:0.8;"/>
   </g>
   <g id="patch_6">
    <path d="M 25.9 28.32 
L 450.072 28.32 
" style="fill:none;stroke:#000000;stroke-linecap:square;stroke-linejoin:miter;stroke-width:0.8;"/>
   </g>
   <g id="text_15">
    <!-- 4 -->
    <g transform="translate(33.294284 50.639565)scale(0.204 -0.204)">
     <use xlink:href="#DejaVuSans-34"/>
    </g>
   </g>
   <g id="text_16">
    <!-- 4 -->
    <g transform="translate(86.725033 57.652676)scale(0.204 -0.204)">
     <use xlink:href="#DejaVuSans-34"/>
    </g>
   </g>
   <g id="text_17">
    <!-- 3 -->
    <g transform="translate(154.039815 59.789107)scale(0.204 -0.204)">
     <use xlink:href="#DejaVuSans-33"/>
    </g>
   </g>
   <g id="text_18">
    <!-- 6 -->
    <g transform="translate(428.061221 112.347712)scale(0.204 -0.204)">
     <use xlink:href="#DejaVuSans-36"/>
    </g>
   </g>
   <g id="text_19">
    <!-- 3 -->
    <g transform="translate(245.380284 72.052731)scale(0.204 -0.204)">
     <use xlink:href="#DejaVuSans-33"/>
    </g>
   </g>
   <g id="text_20">
    <!-- 5 -->
    <g transform="translate(336.720752 95.651095)scale(0.204 -0.204)">
     <use xlink:href="#DejaVuSans-35"/>
    </g>
   </g>
   <g id="text_21">
    <!-- 15 instances -->
    <defs>
     <path id="DejaVuSans-20"/>
     <path d="M 9.421875 54.6875 
L 18.40625 54.6875 
L 18.40625 0 
L 9.421875 0 
z
M 9.421875 75.984375 
L 18.40625 75.984375 
L 18.40625 64.59375 
L 9.421875 64.59375 
z
" id="DejaVuSans-69"/>
     <path d="M 54.890625 33.015625 
L 54.890625 0 
L 45.90625 0 
L 45.90625 32.71875 
Q 45.90625 40.484375 42.875 44.328125 
Q 39.84375 48.1875 33.796875 48.1875 
Q 26.515625 48.1875 22.3125 43.546875 
Q 18.109375 38.921875 18.109375 30.90625 
L 18.109375 0 
L 9.078125 0 
L 9.078125 54.6875 
L 18.109375 54.6875 
L 18.109375 46.1875 
Q 21.34375 51.125 25.703125 53.5625 
Q 30.078125 56 35.796875 56 
Q 45.21875 56 50.046875 50.171875 
Q 54.890625 44.34375 54.890625 33.015625 
z
" id="DejaVuSans-6e"/>
     <path d="M 44.28125 53.078125 
L 44.28125 44.578125 
Q 40.484375 46.53125 36.375 47.5 
Q 32.28125 48.484375 27.875 48.484375 
Q 21.1875 48.484375 17.84375 46.4375 
Q 14.5 44.390625 14.5 40.28125 
Q 14.5 37.15625 16.890625 35.375 
Q 19.28125 33.59375 26.515625 31.984375 
L 29.59375 31.296875 
Q 39.15625 29.25 43.1875 25.515625 
Q 47.21875 21.78125 47.21875 15.09375 
Q 47.21875 7.46875 41.1875 3.015625 
Q 35.15625 -1.421875 24.609375 -1.421875 
Q 20.21875 -1.421875 15.453125 -0.5625 
Q 10.6875 0.296875 5.421875 2 
L 5.421875 11.28125 
Q 10.40625 8.6875 15.234375 7.390625 
Q 20.0625 6.109375 24.8125 6.109375 
Q 31.15625 6.109375 34.5625 8.28125 
Q 37.984375 10.453125 37.984375 14.40625 
Q 37.984375 18.0625 35.515625 20.015625 
Q 33.0625 21.96875 24.703125 23.78125 
L 21.578125 24.515625 
Q 13.234375 26.265625 9.515625 29.90625 
Q 5.8125 33.546875 5.8125 39.890625 
Q 5.8125 47.609375 11.28125 51.796875 
Q 16.75 56 26.8125 56 
Q 31.78125 56 36.171875 55.265625 
Q 40.578125 54.546875 44.28125 53.078125 
z
" id="DejaVuSans-73"/>
     <path d="M 18.3125 70.21875 
L 18.3125 54.6875 
L 36.8125 54.6875 
L 36.8125 47.703125 
L 18.3125 47.703125 
L 18.3125 18.015625 
Q 18.3125 11.328125 20.140625 9.421875 
Q 21.96875 7.515625 27.59375 7.515625 
L 36.8125 7.515625 
L 36.8125 0 
L 27.59375 0 
Q 17.1875 0 13.234375 3.875 
Q 9.28125 7.765625 9.28125 18.015625 
L 9.28125 47.703125 
L 2.6875 47.703125 
L 2.6875 54.6875 
L 9.28125 54.6875 
L 9.28125 70.21875 
z
" id="DejaVuSans-74"/>
     <path d="M 34.28125 27.484375 
Q 23.390625 27.484375 19.1875 25 
Q 14.984375 22.515625 14.984375 16.5 
Q 14.984375 11.71875 18.140625 8.90625 
Q 21.296875 6.109375 26.703125 6.109375 
Q 34.1875 6.109375 38.703125 11.40625 
Q 43.21875 16.703125 43.21875 25.484375 
L 43.21875 27.484375 
z
M 52.203125 31.203125 
L 52.203125 0 
L 43.21875 0 
L 43.21875 8.296875 
Q 40.140625 3.328125 35.546875 0.953125 
Q 30.953125 -1.421875 24.3125 -1.421875 
Q 15.921875 -1.421875 10.953125 3.296875 
Q 6 8.015625 6 15.921875 
Q 6 25.140625 12.171875 29.828125 
Q 18.359375 34.515625 30.609375 34.515625 
L 43.21875 34.515625 
L 43.21875 35.40625 
Q 43.21875 41.609375 39.140625 45 
Q 35.0625 48.390625 27.6875 48.390625 
Q 23 48.390625 18.546875 47.265625 
Q 14.109375 46.140625 10.015625 43.890625 
L 10.015625 52.203125 
Q 14.9375 54.109375 19.578125 55.046875 
Q 24.21875 56 28.609375 56 
Q 40.484375 56 46.34375 49.84375 
Q 52.203125 43.703125 52.203125 31.203125 
z
" id="DejaVuSans-61"/>
     <path d="M 48.78125 52.59375 
L 48.78125 44.1875 
Q 44.96875 46.296875 41.140625 47.34375 
Q 37.3125 48.390625 33.40625 48.390625 
Q 24.65625 48.390625 19.8125 42.84375 
Q 14.984375 37.3125 14.984375 27.296875 
Q 14.984375 17.28125 19.8125 11.734375 
Q 24.65625 6.203125 33.40625 6.203125 
Q 37.3125 6.203125 41.140625 7.25 
Q 44.96875 8.296875 48.78125 10.40625 
L 48.78125 2.09375 
Q 45.015625 0.34375 40.984375 -0.53125 
Q 36.96875 -1.421875 32.421875 -1.421875 
Q 20.0625 -1.421875 12.78125 6.34375 
Q 5.515625 14.109375 5.515625 27.296875 
Q 5.515625 40.671875 12.859375 48.328125 
Q 20.21875 56 33.015625 56 
Q 37.15625 56 41.109375 55.140625 
Q 45.0625 54.296875 48.78125 52.59375 
z
" id="DejaVuSans-63"/>
     <path d="M 56.203125 29.59375 
L 56.203125 25.203125 
L 14.890625 25.203125 
Q 15.484375 15.921875 20.484375 11.0625 
Q 25.484375 6.203125 34.421875 6.203125 
Q 39.59375 6.203125 44.453125 7.46875 
Q 49.3125 8.734375 54.109375 11.28125 
L 54.109375 2.78125 
Q 49.265625 0.734375 44.1875 -0.34375 
Q 39.109375 -1.421875 33.890625 -1.421875 
Q 20.796875 -1.421875 13.15625 6.1875 
Q 5.515625 13.8125 5.515625 26.8125 
Q 5.515625 40.234375 12.765625 48.109375 
Q 20.015625 56 32.328125 56 
Q 43.359375 56 49.78125 48.890625 
Q 56.203125 41.796875 56.203125 29.59375 
z
M 47.21875 32.234375 
Q 47.125 39.59375 43.09375 43.984375 
Q 39.0625 48.390625 32.421875 48.390625 
Q 24.90625 48.390625 20.390625 44.140625 
Q 15.875 39.890625 15.1875 32.171875 
z
" id="DejaVuSans-65"/>
    </defs>
    <g transform="translate(25.9 292.6515)scale(0.14 -0.14)">
     <use xlink:href="#DejaVuSans-31"/>
     <use x="63.623047" xlink:href="#DejaVuSans-35"/>
     <use x="127.246094" xlink:href="#DejaVuSans-20"/>
     <use x="159.033203" xlink:href="#DejaVuSans-69"/>
     <use x="186.816406" xlink:href="#DejaVuSans-6e"/>
     <use x="250.195312" xlink:href="#DejaVuSans-73"/>
     <use x="302.294922" xlink:href="#DejaVuSans-74"/>
     <use x="341.503906" xlink:href="#DejaVuSans-61"/>
     <use x="402.783203" xlink:href="#DejaVuSans-6e"/>
     <use x="466.162109" xlink:href="#DejaVuSans-63"/>
     <use x="521.142578" xlink:href="#DejaVuSans-65"/>
     <use x="582.666016" xlink:href="#DejaVuSans-73"/>
    </g>
    <!-- absolute targets -->
    <defs>
     <path d="M 48.6875 27.296875 
Q 48.6875 37.203125 44.609375 42.84375 
Q 40.53125 48.484375 33.40625 48.484375 
Q 26.265625 48.484375 22.1875 42.84375 
Q 18.109375 37.203125 18.109375 27.296875 
Q 18.109375 17.390625 22.1875 11.75 
Q 26.265625 6.109375 33.40625 6.109375 
Q 40.53125 6.109375 44.609375 11.75 
Q 48.6875 17.390625 48.6875 27.296875 
z
M 18.109375 46.390625 
Q 20.953125 51.265625 25.265625 53.625 
Q 29.59375 56 35.59375 56 
Q 45.5625 56 51.78125 48.09375 
Q 58.015625 40.1875 58.015625 27.296875 
Q 58.015625 14.40625 51.78125 6.484375 
Q 45.5625 -1.421875 35.59375 -1.421875 
Q 29.59375 -1.421875 25.265625 0.953125 
Q 20.953125 3.328125 18.109375 8.203125 
L 18.109375 0 
L 9.078125 0 
L 9.078125 75.984375 
L 18.109375 75.984375 
z
" id="DejaVuSans-62"/>
     <path d="M 30.609375 48.390625 
Q 23.390625 48.390625 19.1875 42.75 
Q 14.984375 37.109375 14.984375 27.296875 
Q 14.984375 17.484375 19.15625 11.84375 
Q 23.34375 6.203125 30.609375 6.203125 
Q 37.796875 6.203125 41.984375 11.859375 
Q 46.1875 17.53125 46.1875 27.296875 
Q 46.1875 37.015625 41.984375 42.703125 
Q 37.796875 48.390625 30.609375 48.390625 
z
M 30.609375 56 
Q 42.328125 56 49.015625 48.375 
Q 55.71875 40.765625 55.71875 27.296875 
Q 55.71875 13.875 49.015625 6.21875 
Q 42.328125 -1.421875 30.609375 -1.421875 
Q 18.84375 -1.421875 12.171875 6.21875 
Q 5.515625 13.875 5.515625 27.296875 
Q 5.515625 40.765625 12.171875 48.375 
Q 18.84375 56 30.609375 56 
z
" id="DejaVuSans-6f"/>
     <path d="M 9.421875 75.984375 
L 18.40625 75.984375 
L 18.40625 0 
L 9.421875 0 
z
" id="DejaVuSans-6c"/>
     <path d="M 8.5 21.578125 
L 8.5 54.6875 
L 17.484375 54.6875 
L 17.484375 21.921875 
Q 17.484375 14.15625 20.5 10.265625 
Q 23.53125 6.390625 29.59375 6.390625 
Q 36.859375 6.390625 41.078125 11.03125 
Q 45.3125 15.671875 45.3125 23.6875 
L 45.3125 54.6875 
L 54.296875 54.6875 
L 54.296875 0 
L 45.3125 0 
L 45.3125 8.40625 
Q 42.046875 3.421875 37.71875 1 
Q 33.40625 -1.421875 27.6875 -1.421875 
Q 18.265625 -1.421875 13.375 4.4375 
Q 8.5 10.296875 8.5 21.578125 
z
M 31.109375 56 
z
" id="DejaVuSans-75"/>
     <path d="M 41.109375 46.296875 
Q 39.59375 47.171875 37.8125 47.578125 
Q 36.03125 48 33.890625 48 
Q 26.265625 48 22.1875 43.046875 
Q 18.109375 38.09375 18.109375 28.8125 
L 18.109375 0 
L 9.078125 0 
L 9.078125 54.6875 
L 18.109375 54.6875 
L 18.109375 46.1875 
Q 20.953125 51.171875 25.484375 53.578125 
Q 30.03125 56 36.53125 56 
Q 37.453125 56 38.578125 55.875 
Q 39.703125 55.765625 41.0625 55.515625 
z
" id="DejaVuSans-72"/>
     <path d="M 45.40625 27.984375 
Q 45.40625 37.75 41.375 43.109375 
Q 37.359375 48.484375 30.078125 48.484375 
Q 22.859375 48.484375 18.828125 43.109375 
Q 14.796875 37.75 14.796875 27.984375 
Q 14.796875 18.265625 18.828125 12.890625 
Q 22.859375 7.515625 30.078125 7.515625 
Q 37.359375 7.515625 41.375 12.890625 
Q 45.40625 18.265625 45.40625 27.984375 
z
M 54.390625 6.78125 
Q 54.390625 -7.171875 48.1875 -13.984375 
Q 42 -20.796875 29.203125 -20.796875 
Q 24.46875 -20.796875 20.265625 -20.09375 
Q 16.0625 -19.390625 12.109375 -17.921875 
L 12.109375 -9.1875 
Q 16.0625 -11.328125 19.921875 -12.34375 
Q 23.78125 -13.375 27.78125 -13.375 
Q 36.625 -13.375 41.015625 -8.765625 
Q 45.40625 -4.15625 45.40625 5.171875 
L 45.40625 9.625 
Q 42.625 4.78125 38.28125 2.390625 
Q 33.9375 0 27.875 0 
Q 17.828125 0 11.671875 7.65625 
Q 5.515625 15.328125 5.515625 27.984375 
Q 5.515625 40.671875 11.671875 48.328125 
Q 17.828125 56 27.875 56 
Q 33.9375 56 38.28125 53.609375 
Q 42.625 51.21875 45.40625 46.390625 
L 45.40625 54.6875 
L 54.390625 54.6875 
z
" id="DejaVuSans-67"/>
    </defs>
    <g transform="translate(25.9 308.328437)scale(0.14 -0.14)">
     <use xlink:href="#DejaVuSans-61"/>
     <use x="61.279297" xlink:href="#DejaVuSans-62"/>
     <use x="124.755859" xlink:href="#DejaVuSans-73"/>
     <use x="176.855469" xlink:href="#DejaVuSans-6f"/>
     <use x="238.037109" xlink:href="#DejaVuSans-6c"/>
     <use x="265.820312" xlink:href="#DejaVuSans-75"/>
     <use x="329.199219" xlink:href="#DejaVuSans-74"/>
     <use x="368.408203" xlink:href="#DejaVuSans-65"/>
     <use x="429.931641" xlink:href="#DejaVuSans-20"/>
     <use x="461.71875" xlink:href="#DejaVuSans-74"/>
     <use x="500.927734" xlink:href="#DejaVuSans-61"/>
     <use x="562.207031" xlink:href="#DejaVuSans-72"/>
     <use x="603.304688" xlink:href="#DejaVuSans-67"/>
     <use x="666.78125" xlink:href="#DejaVuSans-65"/>
     <use x="728.304688" xlink:href="#DejaVuSans-74"/>
     <use x="767.513672" xlink:href="#DejaVuSans-73"/>
    </g>
   </g>
   <g id="text_22">
    <!-- v0.0.0 -->
    <defs>
     <path d="M 2.984375 54.6875 
L 12.5 54.6875 
L 29.59375 8.796875 
L 46.6875 54.6875 
L 56.203125 54.6875 
L 35.6875 0 
L 23.484375 0 
z
" id="DejaVuSans-76"/>
     <path d="M 10.6875 12.40625 
L 21 12.40625 
L 21 0 
L 10.6875 0 
z
" id="DejaVuSans-2e"/>
    </defs>
    <g style="fill:#808080;" transform="translate(222.30475 306.331112)scale(0.1 -0.1)">
     <use xlink:href="#DejaVuSans-76"/>
     <use x="59.179688" xlink:href="#DejaVuSans-30"/>
     <use x="122.802734" xlink:href="#DejaVuSans-2e"/>
     <use x="154.589844" xlink:href="#DejaVuSans-30"/>
     <use x="218.212891" xlink:href="#DejaVuSans-2e"/>
     <use x="250" xlink:href="#DejaVuSans-30"/>
    </g>
   </g>
   <g id="text_23">
    <!-- 22 Gallagher 21 peaks -->
    <defs>
     <path d="M 59.515625 10.40625 
L 59.515625 29.984375 
L 43.40625 29.984375 
L 43.40625 38.09375 
L 69.28125 38.09375 
L 69.28125 6.78125 
Q 63.578125 2.734375 56.6875 0.65625 
Q 49.8125 -1.421875 42 -1.421875 
Q 24.90625 -1.421875 15.25 8.5625 
Q 5.609375 18.5625 5.609375 36.375 
Q 5.609375 54.25 15.25 64.234375 
Q 24.90625 74.21875 42 74.21875 
Q 49.125 74.21875 55.546875 72.453125 
Q 61.96875 70.703125 67.390625 67.28125 
L 67.390625 56.78125 
Q 61.921875 61.421875 55.765625 63.765625 
Q 49.609375 66.109375 42.828125 66.109375 
Q 29.4375 66.109375 22.71875 58.640625 
Q 16.015625 51.171875 16.015625 36.375 
Q 16.015625 21.625 22.71875 14.15625 
Q 29.4375 6.6875 42.828125 6.6875 
Q 48.046875 6.6875 52.140625 7.59375 
Q 56.25 8.5 59.515625 10.40625 
z
" id="DejaVuSans-47"/>
     <path d="M 54.890625 33.015625 
L 54.890625 0 
L 45.90625 0 
L 45.90625 32.71875 
Q 45.90625 40.484375 42.875 44.328125 
Q 39.84375 48.1875 33.796875 48.1875 
Q 26.515625 48.1875 22.3125 43.546875 
Q 18.109375 38.921875 18.109375 30.90625 
L 18.109375 0 
L 9.078125 0 
L 9.078125 75.984375 
L 18.109375 75.984375 
L 18.109375 46.1875 
Q 21.34375 51.125 25.703125 53.5625 
Q 30.078125 56 35.796875 56 
Q 45.21875 56 50.046875 50.171875 
Q 54.890625 44.34375 54.890625 33.015625 
z
" id="DejaVuSans-68"/>
     <path d="M 18.109375 8.203125 
L 18.109375 -20.796875 
L 9.078125 -20.796875 
L 9.078125 54.6875 
L 18.109375 54.6875 
L 18.109375 46.390625 
Q 20.953125 51.265625 25.265625 53.625 
Q 29.59375 56 35.59375 56 
Q 45.5625 56 51.78125 48.09375 
Q 58.015625 40.1875 58.015625 27.296875 
Q 58.015625 14.40625 51.78125 6.484375 
Q 45.5625 -1.421875 35.59375 -1.421875 
Q 29.59375 -1.421875 25.265625 0.953125 
Q 20.953125 3.328125 18.109375 8.203125 
z
M 48.6875 27.296875 
Q 48.6875 37.203125 44.609375 42.84375 
Q 40.53125 48.484375 33.40625 48.484375 
Q 26.265625 48.484375 22.1875 42.84375 
Q 18.109375 37.203125 18.109375 27.296875 
Q 18.109375 17.390625 22.1875 11.75 
Q 26.265625 6.109375 33.40625 6.109375 
Q 40.53125 6.109375 44.609375 11.75 
Q 48.6875 17.390625 48.6875 27.296875 
z
" id="DejaVuSans-70"/>
     <path d="M 9.078125 75.984375 
L 18.109375 75.984375 
L 18.109375 31.109375 
L 44.921875 54.6875 
L 56.390625 54.6875 
L 27.390625 29.109375 
L 57.625 0 
L 45.90625 0 
L 18.109375 26.703125 
L 18.109375 0 
L 9.078125 0 
z
" id="DejaVuSans-6b"/>
    </defs>
    <g transform="translate(102.236 22.32)scale(0.24 -0.24)">
     <use xlink:href="#DejaVuSans-32"/>
     <use x="63.623047" xlink:href="#DejaVuSans-32"/>
     <use x="127.246094" xlink:href="#DejaVuSans-20"/>
     <use x="159.033203" xlink:href="#DejaVuSans-47"/>
     <use x="236.523438" xlink:href="#DejaVuSans-61"/>
     <use x="297.802734" xlink:href="#DejaVuSans-6c"/>
     <use x="325.585938" xlink:href="#DejaVuSans-6c"/>
     <use x="353.369141" xlink:href="#DejaVuSans-61"/>
     <use x="414.648438" xlink:href="#DejaVuSans-67"/>
     <use x="478.125" xlink:href="#DejaVuSans-68"/>
     <use x="541.503906" xlink:href="#DejaVuSans-65"/>
     <use x="603.027344" xlink:href="#DejaVuSans-72"/>
     <use x="644.140625" xlink:href="#DejaVuSans-20"/>
     <use x="675.927734" xlink:href="#DejaVuSans-32"/>
     <use x="739.550781" xlink:href="#DejaVuSans-31"/>
     <use x="803.173828" xlink:href="#DejaVuSans-20"/>
     <use x="834.960938" xlink:href="#DejaVuSans-70"/>
     <use x="898.4375" xlink:href="#DejaVuSans-65"/>
     <use x="959.960938" xlink:href="#DejaVuSans-61"/>
     <use x="1021.240234" xlink:href="#DejaVuSans-6b"/>
     <use x="1079.150391" xlink:href="#DejaVuSans-73"/>
    </g>
   </g>
  </g>
 </g>
 <defs>
  <clipPath id="p26513fd2e3">
   <rect height="282.92" width="424.172" x="25.9" y="28.32"/>
  </clipPath>
 </defs>
</svg>
