<?xml version="1.0" encoding="utf-8" standalone="no"?>
<!DOCTYPE svg PUBLIC "-//W3C//DTD SVG 1.1//EN"
  "http://www.w3.org/Graphics/SVG/1.1/DTD/svg11.dtd">
<!-- Created with matplotlib (http://matplotlib.org/) -->
<svg height="345.6pt" version="1.1" viewBox="0 0 460.8 345.6" width="460.8pt" xmlns="http://www.w3.org/2000/svg" xmlns:xlink="http://www.w3.org/1999/xlink">
 <defs>
  <style type="text/css">
*{stroke-linecap:butt;stroke-linejoin:round;}
  </style>
 </defs>
 <g id="figure_1">
  <g id="patch_1">
   <path d="M 0 345.6 
L 460.8 345.6 
L 460.8 0 
L 0 0 
z
" style="fill:#ffffff;"/>
  </g>
  <g id="axes_1">
   <g id="patch_2">
    <path d="M 25.9 311.24 
L 450.072 311.24 
L 450.072 28.32 
L 25.9 28.32 
z
" style="fill:#ffffff;"/>
   </g>
   <g id="line2d_1">
    <path clip-path="url(#p2deb27a811)" d="M 39.784034 221.644353 
L 93.214783 217.917565 
L 160.529565 214.116498 
L 251.870034 204.886941 
L 343.210502 194.602777 
L 434.550971 188.899358 
" style="fill:none;stroke:#f5deb3;stroke-linecap:square;stroke-width:10;"/>
    <defs>
     <path d="M -0 17.67767 
L 10.606602 0 
L 0 -17.67767 
L -10.606602 -0 
z
" id="m081713d6ac" style="stroke:#000000;stroke-linejoin:miter;"/>
    </defs>
    <g clip-path="url(#p2deb27a811)">
     <use style="fill:#f5deb3;stroke:#000000;stroke-linejoin:miter;" x="39.784034" xlink:href="#m081713d6ac" y="221.644353"/>
     <use style="fill:#f5deb3;stroke:#000000;stroke-linejoin:miter;" x="93.214783" xlink:href="#m081713d6ac" y="217.917565"/>
     <use style="fill:#f5deb3;stroke:#000000;stroke-linejoin:miter;" x="160.529565" xlink:href="#m081713d6ac" y="214.116498"/>
     <use style="fill:#f5deb3;stroke:#000000;stroke-linejoin:miter;" x="251.870034" xlink:href="#m081713d6ac" y="204.886941"/>
     <use style="fill:#f5deb3;stroke:#000000;stroke-linejoin:miter;" x="343.210502" xlink:href="#m081713d6ac" y="194.602777"/>
     <use style="fill:#f5deb3;stroke:#000000;stroke-linejoin:miter;" x="434.550971" xlink:href="#m081713d6ac" y="188.899358"/>
    </g>
   </g>
   <g id="matplotlib.axis_1">
    <g id="xtick_1">
     <g id="line2d_2">
      <defs>
       <path d="M 0 0 
L 0 3.5 
" id="m684902657b" style="stroke:#000000;stroke-width:0.8;"/>
      </defs>
      <g>
       <use style="stroke:#000000;stroke-width:0.8;" x="39.784034" xlink:href="#m684902657b" y="311.24"/>
      </g>
     </g>
     <g id="text_1">
      <!-- 2 -->
      <defs>
       <path d="M 19.1875 8.296875 
L 53.609375 8.296875 
L 53.609375 0 
L 7.328125 0 
L 7.328125 8.296875 
Q 12.9375 14.109375 22.625 23.890625 
Q 32.328125 33.6875 34.8125 36.53125 
Q 39.546875 41.84375 41.421875 45.53125 
Q 43.3125 49.21875 43.3125 52.78125 
Q 43.3125 58.59375 39.234375 62.25 
Q 35.15625 65.921875 28.609375 65.921875 
Q 23.96875 65.921875 18.8125 64.3125 
Q 13.671875 62.703125 7.8125 59.421875 
L 7.8125 69.390625 
Q 13.765625 71.78125 18.9375 73 
Q 24.125 74.21875 28.421875 74.21875 
Q 39.75 74.21875 46.484375 68.546875 
Q 53.21875 62.890625 53.21875 53.421875 
Q 53.21875 48.921875 51.53125 44.890625 
Q 49.859375 40.875 45.40625 35.40625 
Q 44.1875 33.984375 37.640625 27.21875 
Q 31.109375 20.453125 19.1875 8.296875 
z
" id="DejaVuSans-32"/>
      </defs>
      <g transform="translate(32.149034 336.47625)scale(0.24 -0.24)">
       <use xlink:href="#DejaVuSans-32"/>
      </g>
     </g>
    </g>
    <g id="xtick_2">
     <g id="line2d_3">
      <g>
       <use style="stroke:#000000;stroke-width:0.8;" x="93.214783" xlink:href="#m684902657b" y="311.24"/>
      </g>
     </g>
     <g id="text_2">
      <!-- 3 -->
      <defs>
       <path d="M 40.578125 39.3125 
Q 47.65625 37.796875 51.625 33 
Q 55.609375 28.21875 55.609375 21.1875 
Q 55.609375 10.40625 48.1875 4.484375 
Q 40.765625 -1.421875 27.09375 -1.421875 
Q 22.515625 -1.421875 17.65625 -0.515625 
Q 12.796875 0.390625 7.625 2.203125 
L 7.625 11.71875 
Q 11.71875 9.328125 16.59375 8.109375 
Q 21.484375 6.890625 26.8125 6.890625 
Q 36.078125 6.890625 40.9375 10.546875 
Q 45.796875 14.203125 45.796875 21.1875 
Q 45.796875 27.640625 41.28125 31.265625 
Q 36.765625 34.90625 28.71875 34.90625 
L 20.21875 34.90625 
L 20.21875 43.015625 
L 29.109375 43.015625 
Q 36.375 43.015625 40.234375 45.921875 
Q 44.09375 48.828125 44.09375 54.296875 
Q 44.09375 59.90625 40.109375 62.90625 
Q 36.140625 65.921875 28.71875 65.921875 
Q 24.65625 65.921875 20.015625 65.03125 
Q 15.375 64.15625 9.8125 62.3125 
L 9.8125 71.09375 
Q 15.4375 72.65625 20.34375 73.4375 
Q 25.25 74.21875 29.59375 74.21875 
Q 40.828125 74.21875 47.359375 69.109375 
Q 53.90625 64.015625 53.90625 55.328125 
Q 53.90625 49.265625 50.4375 45.09375 
Q 46.96875 40.921875 40.578125 39.3125 
z
" id="DejaVuSans-33"/>
      </defs>
      <g transform="translate(85.579783 336.47625)scale(0.24 -0.24)">
       <use xlink:href="#DejaVuSans-33"/>
      </g>
     </g>
    </g>
    <g id="xtick_3">
     <g id="line2d_4">
      <g>
       <use style="stroke:#000000;stroke-width:0.8;" x="160.529565" xlink:href="#m684902657b" y="311.24"/>
      </g>
     </g>
     <g id="text_3">
      <!-- 5 -->
      <defs>
       <path d="M 10.796875 72.90625 
L 49.515625 72.90625 
L 49.515625 64.59375 
L 19.828125 64.59375 
L 19.828125 46.734375 
Q 21.96875 47.46875 24.109375 47.828125 
Q 26.265625 48.1875 28.421875 48.1875 
Q 40.625 48.1875 47.75 41.5 
Q 54.890625 34.8125 54.890625 23.390625 
Q 54.890625 11.625 47.5625 5.09375 
Q 40.234375 -1.421875 26.90625 -1.421875 
Q 22.3125 -1.421875 17.546875 -0.640625 
Q 12.796875 0.140625 7.71875 1.703125 
L 7.71875 11.625 
Q 12.109375 9.234375 16.796875 8.0625 
Q 21.484375 6.890625 26.703125 6.890625 
Q 35.15625 6.890625 40.078125 11.328125 
Q 45.015625 15.765625 45.015625 23.390625 
Q 45.015625 31 40.078125 35.4375 
Q 35.15625 39.890625 26.703125 39.890625 
Q 22.75 39.890625 18.8125 39.015625 
Q 14.890625 38.140625 10.796875 36.28125 
z
" id="DejaVuSans-35"/>
      </defs>
      <g transform="translate(152.894565 336.47625)scale(0.24 -0.24)">
       <use xlink:href="#DejaVuSans-35"/>
      </g>
     </g>
    </g>
    <g id="xtick_4">
     <g id="line2d_5">
      <g>
       <use style="stroke:#000000;stroke-width:0.8;" x="251.870034" xlink:href="#m684902657b" y="311.24"/>
      </g>
     </g>
     <g id="text_4">
      <!-- 10 -->
      <defs>
       <path d="M 12.40625 8.296875 
L 28.515625 8.296875 
L 28.515625 63.921875 
L 10.984375 60.40625 
L 10.984375 69.390625 
L 28.421875 72.90625 
L 38.28125 72.90625 
L 38.28125 8.296875 
L 54.390625 8.296875 
L 54.390625 0 
L 12.40625 0 
z
" id="DejaVuSans-31"/>
       <path d="M 31.78125 66.40625 
Q 24.171875 66.40625 20.328125 58.90625 
Q 16.5 51.421875 16.5 36.375 
Q 16.5 21.390625 20.328125 13.890625 
Q 24.171875 6.390625 31.78125 6.390625 
Q 39.453125 6.390625 43.28125 13.890625 
Q 47.125 21.390625 47.125 36.375 
Q 47.125 51.421875 43.28125 58.90625 
Q 39.453125 66.40625 31.78125 66.40625 
z
M 31.78125 74.21875 
Q 44.046875 74.21875 50.515625 64.515625 
Q 56.984375 54.828125 56.984375 36.375 
Q 56.984375 17.96875 50.515625 8.265625 
Q 44.046875 -1.421875 31.78125 -1.421875 
Q 19.53125 -1.421875 13.0625 8.265625 
Q 6.59375 17.96875 6.59375 36.375 
Q 6.59375 54.828125 13.0625 64.515625 
Q 19.53125 74.21875 31.78125 74.21875 
z
" id="DejaVuSans-30"/>
      </defs>
      <g transform="translate(236.600034 336.47625)scale(0.24 -0.24)">
       <use xlink:href="#DejaVuSans-31"/>
       <use x="63.623047" xlink:href="#DejaVuSans-30"/>
      </g>
     </g>
    </g>
    <g id="xtick_5">
     <g id="line2d_6">
      <g>
       <use style="stroke:#000000;stroke-width:0.8;" x="343.210502" xlink:href="#m684902657b" y="311.24"/>
      </g>
     </g>
     <g id="text_5">
      <!-- 20 -->
      <g transform="translate(327.940502 336.47625)scale(0.24 -0.24)">
       <use xlink:href="#DejaVuSans-32"/>
       <use x="63.623047" xlink:href="#DejaVuSans-30"/>
      </g>
     </g>
    </g>
    <g id="xtick_6">
     <g id="line2d_7">
      <g>
       <use style="stroke:#000000;stroke-width:0.8;" x="434.550971" xlink:href="#m684902657b" y="311.24"/>
      </g>
     </g>
     <g id="text_6">
      <!-- 40 -->
      <defs>
       <path d="M 37.796875 64.3125 
L 12.890625 25.390625 
L 37.796875 25.390625 
z
M 35.203125 72.90625 
L 47.609375 72.90625 
L 47.609375 25.390625 
L 58.015625 25.390625 
L 58.015625 17.1875 
L 47.609375 17.1875 
L 47.609375 0 
L 37.796875 0 
L 37.796875 17.1875 
L 4.890625 17.1875 
L 4.890625 26.703125 
z
" id="DejaVuSans-34"/>
      </defs>
      <g transform="translate(419.280971 336.47625)scale(0.24 -0.24)">
       <use xlink:href="#DejaVuSans-34"/>
       <use x="63.623047" xlink:href="#DejaVuSans-30"/>
      </g>
     </g>
    </g>
    <g id="xtick_7">
     <g id="line2d_8">
      <defs>
       <path d="M 0 0 
L 0 2 
" id="m5940ca40ce" style="stroke:#000000;stroke-width:0.6;"/>
      </defs>
      <g>
       <use style="stroke:#000000;stroke-width:0.6;" x="39.784034" xlink:href="#m5940ca40ce" y="311.24"/>
      </g>
     </g>
    </g>
    <g id="xtick_8">
     <g id="line2d_9">
      <g>
       <use style="stroke:#000000;stroke-width:0.6;" x="93.214783" xlink:href="#m5940ca40ce" y="311.24"/>
      </g>
     </g>
    </g>
    <g id="xtick_9">
     <g id="line2d_10">
      <g>
       <use style="stroke:#000000;stroke-width:0.6;" x="131.124502" xlink:href="#m5940ca40ce" y="311.24"/>
      </g>
     </g>
    </g>
    <g id="xtick_10">
     <g id="line2d_11">
      <g>
       <use style="stroke:#000000;stroke-width:0.6;" x="160.529565" xlink:href="#m5940ca40ce" y="311.24"/>
      </g>
     </g>
    </g>
    <g id="xtick_11">
     <g id="line2d_12">
      <g>
       <use style="stroke:#000000;stroke-width:0.6;" x="184.555251" xlink:href="#m5940ca40ce" y="311.24"/>
      </g>
     </g>
    </g>
    <g id="xtick_12">
     <g id="line2d_13">
      <g>
       <use style="stroke:#000000;stroke-width:0.6;" x="204.868679" xlink:href="#m5940ca40ce" y="311.24"/>
      </g>
     </g>
    </g>
    <g id="xtick_13">
     <g id="line2d_14">
      <g>
       <use style="stroke:#000000;stroke-width:0.6;" x="222.464971" xlink:href="#m5940ca40ce" y="311.24"/>
      </g>
     </g>
    </g>
    <g id="xtick_14">
     <g id="line2d_15">
      <g>
       <use style="stroke:#000000;stroke-width:0.6;" x="237.986" xlink:href="#m5940ca40ce" y="311.24"/>
      </g>
     </g>
    </g>
    <g id="xtick_15">
     <g id="line2d_16">
      <g>
       <use style="stroke:#000000;stroke-width:0.6;" x="343.210502" xlink:href="#m5940ca40ce" y="311.24"/>
      </g>
     </g>
    </g>
    <g id="xtick_16">
     <g id="line2d_17">
      <g>
       <use style="stroke:#000000;stroke-width:0.6;" x="396.641251" xlink:href="#m5940ca40ce" y="311.24"/>
      </g>
     </g>
    </g>
    <g id="xtick_17">
     <g id="line2d_18">
      <g>
       <use style="stroke:#000000;stroke-width:0.6;" x="434.550971" xlink:href="#m5940ca40ce" y="311.24"/>
      </g>
     </g>
    </g>
   </g>
   <g id="matplotlib.axis_2">
    <g id="ytick_1">
     <g id="line2d_19">
      <path clip-path="url(#p2deb27a811)" d="M 25.9 302.113549 
L 450.072 302.113549 
" style="fill:none;stroke:#b0b0b0;stroke-linecap:square;stroke-width:0.8;"/>
     </g>
     <g id="line2d_20">
      <defs>
       <path d="M 0 0 
L -3.5 0 
" id="mddf1fadd12" style="stroke:#000000;stroke-width:0.8;"/>
      </defs>
      <g>
       <use style="stroke:#000000;stroke-width:0.8;" x="25.9" xlink:href="#mddf1fadd12" y="302.113549"/>
      </g>
     </g>
     <g id="text_7">
      <!-- 0 -->
      <g transform="translate(3.63 311.231674)scale(0.24 -0.24)">
       <use xlink:href="#DejaVuSans-30"/>
      </g>
     </g>
    </g>
    <g id="ytick_2">
     <g id="line2d_21">
      <path clip-path="url(#p2deb27a811)" d="M 25.9 256.481294 
L 450.072 256.481294 
" style="fill:none;stroke:#b0b0b0;stroke-linecap:square;stroke-width:0.8;"/>
     </g>
     <g id="line2d_22">
      <g>
       <use style="stroke:#000000;stroke-width:0.8;" x="25.9" xlink:href="#mddf1fadd12" y="256.481294"/>
      </g>
     </g>
     <g id="text_8">
      <!-- 1 -->
      <g transform="translate(3.63 265.599419)scale(0.24 -0.24)">
       <use xlink:href="#DejaVuSans-31"/>
      </g>
     </g>
    </g>
    <g id="ytick_3">
     <g id="line2d_23">
      <path clip-path="url(#p2deb27a811)" d="M 25.9 210.849039 
L 450.072 210.849039 
" style="fill:none;stroke:#b0b0b0;stroke-linecap:square;stroke-width:0.8;"/>
     </g>
     <g id="line2d_24">
      <g>
       <use style="stroke:#000000;stroke-width:0.8;" x="25.9" xlink:href="#mddf1fadd12" y="210.849039"/>
      </g>
     </g>
     <g id="text_9">
      <!-- 2 -->
      <g transform="translate(3.63 219.967164)scale(0.24 -0.24)">
       <use xlink:href="#DejaVuSans-32"/>
      </g>
     </g>
    </g>
    <g id="ytick_4">
     <g id="line2d_25">
      <path clip-path="url(#p2deb27a811)" d="M 25.9 165.216784 
L 450.072 165.216784 
" style="fill:none;stroke:#b0b0b0;stroke-linecap:square;stroke-width:0.8;"/>
     </g>
     <g id="line2d_26">
      <g>
       <use style="stroke:#000000;stroke-width:0.8;" x="25.9" xlink:href="#mddf1fadd12" y="165.216784"/>
      </g>
     </g>
     <g id="text_10">
      <!-- 3 -->
      <g transform="translate(3.63 174.334909)scale(0.24 -0.24)">
       <use xlink:href="#DejaVuSans-33"/>
      </g>
     </g>
    </g>
    <g id="ytick_5">
     <g id="line2d_27">
      <path clip-path="url(#p2deb27a811)" d="M 25.9 119.58453 
L 450.072 119.58453 
" style="fill:none;stroke:#b0b0b0;stroke-linecap:square;stroke-width:0.8;"/>
     </g>
     <g id="line2d_28">
      <g>
       <use style="stroke:#000000;stroke-width:0.8;" x="25.9" xlink:href="#mddf1fadd12" y="119.58453"/>
      </g>
     </g>
     <g id="text_11">
      <!-- 4 -->
      <g transform="translate(3.63 128.702655)scale(0.24 -0.24)">
       <use xlink:href="#DejaVuSans-34"/>
      </g>
     </g>
    </g>
    <g id="ytick_6">
     <g id="line2d_29">
      <path clip-path="url(#p2deb27a811)" d="M 25.9 73.952275 
L 450.072 73.952275 
" style="fill:none;stroke:#b0b0b0;stroke-linecap:square;stroke-width:0.8;"/>
     </g>
     <g id="line2d_30">
      <g>
       <use style="stroke:#000000;stroke-width:0.8;" x="25.9" xlink:href="#mddf1fadd12" y="73.952275"/>
      </g>
     </g>
     <g id="text_12">
      <!-- 5 -->
      <g transform="translate(3.63 83.0704)scale(0.24 -0.24)">
       <use xlink:href="#DejaVuSans-35"/>
      </g>
     </g>
    </g>
    <g id="ytick_7">
     <g id="line2d_31">
      <path clip-path="url(#p2deb27a811)" d="M 25.9 28.32002 
L 450.072 28.32002 
" style="fill:none;stroke:#b0b0b0;stroke-linecap:square;stroke-width:0.8;"/>
     </g>
     <g id="line2d_32">
      <g>
       <use style="stroke:#000000;stroke-width:0.8;" x="25.9" xlink:href="#mddf1fadd12" y="28.32002"/>
      </g>
     </g>
     <g id="text_13">
      <!-- 6 -->
      <defs>
       <path d="M 33.015625 40.375 
Q 26.375 40.375 22.484375 35.828125 
Q 18.609375 31.296875 18.609375 23.390625 
Q 18.609375 15.53125 22.484375 10.953125 
Q 26.375 6.390625 33.015625 6.390625 
Q 39.65625 6.390625 43.53125 10.953125 
Q 47.40625 15.53125 47.40625 23.390625 
Q 47.40625 31.296875 43.53125 35.828125 
Q 39.65625 40.375 33.015625 40.375 
z
M 52.59375 71.296875 
L 52.59375 62.3125 
Q 48.875 64.0625 45.09375 64.984375 
Q 41.3125 65.921875 37.59375 65.921875 
Q 27.828125 65.921875 22.671875 59.328125 
Q 17.53125 52.734375 16.796875 39.40625 
Q 19.671875 43.65625 24.015625 45.921875 
Q 28.375 48.1875 33.59375 48.1875 
Q 44.578125 48.1875 50.953125 41.515625 
Q 57.328125 34.859375 57.328125 23.390625 
Q 57.328125 12.15625 50.6875 5.359375 
Q 44.046875 -1.421875 33.015625 -1.421875 
Q 20.359375 -1.421875 13.671875 8.265625 
Q 6.984375 17.96875 6.984375 36.375 
Q 6.984375 53.65625 15.1875 63.9375 
Q 23.390625 74.21875 37.203125 74.21875 
Q 40.921875 74.21875 44.703125 73.484375 
Q 48.484375 72.75 52.59375 71.296875 
z
" id="DejaVuSans-36"/>
      </defs>
      <g transform="translate(3.63 37.438145)scale(0.24 -0.24)">
       <use xlink:href="#DejaVuSans-36"/>
      </g>
     </g>
    </g>
   </g>
   <g id="line2d_33">
    <path clip-path="url(#p2deb27a811)" d="M 36.644125 247.166839 
L 38.842061 239.131398 
L 36.644125 233.430162 
L 42.923943 233.430162 
L 40.726006 239.131398 
L 42.923943 247.166839 
L 36.644125 247.166839 
" style="fill:none;stroke:#000000;stroke-linecap:square;"/>
   </g>
   <g id="line2d_34">
    <path clip-path="url(#p2deb27a811)" d="M 36.644125 247.166839 
L 42.923943 247.166839 
L 42.923943 233.430162 
L 36.644125 233.430162 
L 36.644125 247.166839 
" style="fill:none;"/>
    <defs>
     <path d="M 0 3 
C 0.795609 3 1.55874 2.683901 2.12132 2.12132 
C 2.683901 1.55874 3 0.795609 3 0 
C 3 -0.795609 2.683901 -1.55874 2.12132 -2.12132 
C 1.55874 -2.683901 0.795609 -3 0 -3 
C -0.795609 -3 -1.55874 -2.683901 -2.12132 -2.12132 
C -2.683901 -1.55874 -3 -0.795609 -3 0 
C -3 0.795609 -2.683901 1.55874 -2.12132 2.12132 
C -1.55874 2.683901 -0.795609 3 0 3 
z
" id="m94a5df9a24" style="stroke:#000000;stroke-width:2;"/>
    </defs>
    <g clip-path="url(#p2deb27a811)">
     <use style="stroke:#000000;stroke-width:2;" x="36.644125" xlink:href="#m94a5df9a24" y="247.166839"/>
     <use style="stroke:#000000;stroke-width:2;" x="42.923943" xlink:href="#m94a5df9a24" y="247.166839"/>
     <use style="stroke:#000000;stroke-width:2;" x="42.923943" xlink:href="#m94a5df9a24" y="233.430162"/>
     <use style="stroke:#000000;stroke-width:2;" x="36.644125" xlink:href="#m94a5df9a24" y="233.430162"/>
     <use style="stroke:#000000;stroke-width:2;" x="36.644125" xlink:href="#m94a5df9a24" y="247.166839"/>
    </g>
   </g>
   <g id="line2d_35">
    <path clip-path="url(#p2deb27a811)" d="M 36.644125 239.131398 
L 42.923943 239.131398 
" style="fill:none;stroke:#000000;stroke-linecap:square;stroke-width:2;"/>
   </g>
   <g id="line2d_36">
    <path clip-path="url(#p2deb27a811)" d="M 90.074874 215.271262 
L 92.27281 188.749346 
L 90.074874 173.133674 
L 96.354692 173.133674 
L 94.156755 188.749346 
L 96.354692 215.271262 
L 90.074874 215.271262 
" style="fill:none;stroke:#000000;stroke-linecap:square;"/>
   </g>
   <g id="line2d_37">
    <path clip-path="url(#p2deb27a811)" d="M 90.074874 215.271262 
L 96.354692 215.271262 
L 96.354692 173.133674 
L 90.074874 173.133674 
L 90.074874 215.271262 
" style="fill:none;"/>
    <g clip-path="url(#p2deb27a811)">
     <use style="stroke:#000000;stroke-width:2;" x="90.074874" xlink:href="#m94a5df9a24" y="215.271262"/>
     <use style="stroke:#000000;stroke-width:2;" x="96.354692" xlink:href="#m94a5df9a24" y="215.271262"/>
     <use style="stroke:#000000;stroke-width:2;" x="96.354692" xlink:href="#m94a5df9a24" y="173.133674"/>
     <use style="stroke:#000000;stroke-width:2;" x="90.074874" xlink:href="#m94a5df9a24" y="173.133674"/>
     <use style="stroke:#000000;stroke-width:2;" x="90.074874" xlink:href="#m94a5df9a24" y="215.271262"/>
    </g>
   </g>
   <g id="line2d_38">
    <path clip-path="url(#p2deb27a811)" d="M 90.074874 188.749346 
L 96.354692 188.749346 
" style="fill:none;stroke:#000000;stroke-linecap:square;stroke-width:2;"/>
   </g>
   <g id="line2d_39">
    <path clip-path="url(#p2deb27a811)" d="M 157.389656 168.058832 
L 159.587593 167.795257 
L 157.389656 163.055971 
L 163.669474 163.055971 
L 161.471538 167.795257 
L 163.669474 168.058832 
L 157.389656 168.058832 
" style="fill:none;stroke:#000000;stroke-linecap:square;"/>
   </g>
   <g id="line2d_40">
    <path clip-path="url(#p2deb27a811)" d="M 157.389656 168.058832 
L 163.669474 168.058832 
L 163.669474 163.055971 
L 157.389656 163.055971 
L 157.389656 168.058832 
" style="fill:none;"/>
    <g clip-path="url(#p2deb27a811)">
     <use style="stroke:#000000;stroke-width:2;" x="157.389656" xlink:href="#m94a5df9a24" y="168.058832"/>
     <use style="stroke:#000000;stroke-width:2;" x="163.669474" xlink:href="#m94a5df9a24" y="168.058832"/>
     <use style="stroke:#000000;stroke-width:2;" x="163.669474" xlink:href="#m94a5df9a24" y="163.055971"/>
     <use style="stroke:#000000;stroke-width:2;" x="157.389656" xlink:href="#m94a5df9a24" y="163.055971"/>
     <use style="stroke:#000000;stroke-width:2;" x="157.389656" xlink:href="#m94a5df9a24" y="168.058832"/>
    </g>
   </g>
   <g id="line2d_41">
    <path clip-path="url(#p2deb27a811)" d="M 157.389656 167.795257 
L 163.669474 167.795257 
" style="fill:none;stroke:#000000;stroke-linecap:square;stroke-width:2;"/>
   </g>
   <g id="line2d_42">
    <path clip-path="url(#p2deb27a811)" d="M 248.730125 163.034658 
L 250.928061 161.261376 
L 248.730125 161.033814 
L 255.009943 161.033814 
L 252.812006 161.261376 
L 255.009943 163.034658 
L 248.730125 163.034658 
" style="fill:none;stroke:#000000;stroke-linecap:square;"/>
   </g>
   <g id="line2d_43">
    <path clip-path="url(#p2deb27a811)" d="M 248.730125 163.034658 
L 255.009943 163.034658 
L 255.009943 161.033814 
L 248.730125 161.033814 
L 248.730125 163.034658 
" style="fill:none;"/>
    <g clip-path="url(#p2deb27a811)">
     <use style="stroke:#000000;stroke-width:2;" x="248.730125" xlink:href="#m94a5df9a24" y="163.034658"/>
     <use style="stroke:#000000;stroke-width:2;" x="255.009943" xlink:href="#m94a5df9a24" y="163.034658"/>
     <use style="stroke:#000000;stroke-width:2;" x="255.009943" xlink:href="#m94a5df9a24" y="161.033814"/>
     <use style="stroke:#000000;stroke-width:2;" x="248.730125" xlink:href="#m94a5df9a24" y="161.033814"/>
     <use style="stroke:#000000;stroke-width:2;" x="248.730125" xlink:href="#m94a5df9a24" y="163.034658"/>
    </g>
   </g>
   <g id="line2d_44">
    <path clip-path="url(#p2deb27a811)" d="M 248.730125 161.261376 
L 255.009943 161.261376 
" style="fill:none;stroke:#000000;stroke-linecap:square;stroke-width:2;"/>
   </g>
   <g id="line2d_45">
    <path clip-path="url(#p2deb27a811)" d="M 340.070593 115.432072 
L 342.26853 115.106579 
L 340.070593 115.036035 
L 346.350411 115.036035 
L 344.152475 115.106579 
L 346.350411 115.432072 
L 340.070593 115.432072 
" style="fill:none;stroke:#000000;stroke-linecap:square;"/>
   </g>
   <g id="line2d_46">
    <path clip-path="url(#p2deb27a811)" d="M 340.070593 115.432072 
L 346.350411 115.432072 
L 346.350411 115.036035 
L 340.070593 115.036035 
L 340.070593 115.432072 
" style="fill:none;"/>
    <g clip-path="url(#p2deb27a811)">
     <use style="stroke:#000000;stroke-width:2;" x="340.070593" xlink:href="#m94a5df9a24" y="115.432072"/>
     <use style="stroke:#000000;stroke-width:2;" x="346.350411" xlink:href="#m94a5df9a24" y="115.432072"/>
     <use style="stroke:#000000;stroke-width:2;" x="346.350411" xlink:href="#m94a5df9a24" y="115.036035"/>
     <use style="stroke:#000000;stroke-width:2;" x="340.070593" xlink:href="#m94a5df9a24" y="115.036035"/>
     <use style="stroke:#000000;stroke-width:2;" x="340.070593" xlink:href="#m94a5df9a24" y="115.432072"/>
    </g>
   </g>
   <g id="line2d_47">
    <path clip-path="url(#p2deb27a811)" d="M 340.070593 115.106579 
L 346.350411 115.106579 
" style="fill:none;stroke:#000000;stroke-linecap:square;stroke-width:2;"/>
   </g>
   <g id="line2d_48">
    <path clip-path="url(#p2deb27a811)" d="M 431.411062 89.045656 
L 433.608998 88.872763 
L 431.411062 88.74354 
L 437.69088 88.74354 
L 435.492943 88.872763 
L 437.69088 89.045656 
L 431.411062 89.045656 
" style="fill:none;stroke:#000000;stroke-linecap:square;"/>
   </g>
   <g id="line2d_49">
    <path clip-path="url(#p2deb27a811)" d="M 431.411062 89.045656 
L 437.69088 89.045656 
L 437.69088 88.74354 
L 431.411062 88.74354 
L 431.411062 89.045656 
" style="fill:none;"/>
    <g clip-path="url(#p2deb27a811)">
     <use style="stroke:#000000;stroke-width:2;" x="431.411062" xlink:href="#m94a5df9a24" y="89.045656"/>
     <use style="stroke:#000000;stroke-width:2;" x="437.69088" xlink:href="#m94a5df9a24" y="89.045656"/>
     <use style="stroke:#000000;stroke-width:2;" x="437.69088" xlink:href="#m94a5df9a24" y="88.74354"/>
     <use style="stroke:#000000;stroke-width:2;" x="431.411062" xlink:href="#m94a5df9a24" y="88.74354"/>
     <use style="stroke:#000000;stroke-width:2;" x="431.411062" xlink:href="#m94a5df9a24" y="89.045656"/>
    </g>
   </g>
   <g id="line2d_50">
    <path clip-path="url(#p2deb27a811)" d="M 431.411062 88.872763 
L 437.69088 88.872763 
" style="fill:none;stroke:#000000;stroke-linecap:square;stroke-width:2;"/>
   </g>
   <g id="line2d_51">
    <path clip-path="url(#p2deb27a811)" d="M 39.784034 236.123706 
L 93.214783 185.302877 
" style="fill:none;stroke:#000000;stroke-linecap:square;stroke-width:4;"/>
   </g>
   <g id="line2d_52">
    <path clip-path="url(#p2deb27a811)" d="M 93.214783 185.302877 
L 160.529565 166.860613 
" style="fill:none;stroke:#000000;stroke-linecap:square;stroke-width:4;"/>
   </g>
   <g id="line2d_53">
    <path clip-path="url(#p2deb27a811)" d="M 160.529565 166.860613 
L 251.870034 162.218328 
" style="fill:none;stroke:#000000;stroke-linecap:square;stroke-width:4;"/>
   </g>
   <g id="line2d_54">
    <path clip-path="url(#p2deb27a811)" d="M 251.870034 162.218328 
L 343.210502 115.259828 
" style="fill:none;stroke:#000000;stroke-linecap:square;stroke-width:4;"/>
   </g>
   <g id="line2d_55">
    <path clip-path="url(#p2deb27a811)" d="M 343.210502 115.259828 
L 434.550971 88.771772 
" style="fill:none;stroke:#000000;stroke-linecap:square;stroke-width:4;"/>
   </g>
   <g id="line2d_56">
    <path clip-path="url(#p2deb27a811)" d="M 39.784034 236.123706 
L 93.214783 185.302877 
L 160.529565 166.860613 
L 251.870034 162.218328 
L 343.210502 115.259828 
L 434.550971 88.771772 
" style="fill:none;"/>
    <defs>
     <path d="M 0 10 
C 2.652031 10 5.195799 8.946337 7.071068 7.071068 
C 8.946337 5.195799 10 2.652031 10 0 
C 10 -2.652031 8.946337 -5.195799 7.071068 -7.071068 
C 5.195799 -8.946337 2.652031 -10 0 -10 
C -2.652031 -10 -5.195799 -8.946337 -7.071068 -7.071068 
C -8.946337 -5.195799 -10 -2.652031 -10 0 
C -10 2.652031 -8.946337 5.195799 -7.071068 7.071068 
C -5.195799 8.946337 -2.652031 10 0 10 
z
" id="mc43b55129d" style="stroke:#000000;stroke-width:2;"/>
    </defs>
    <g clip-path="url(#p2deb27a811)">
     <use style="stroke:#000000;stroke-width:2;" x="39.784034" xlink:href="#mc43b55129d" y="236.123706"/>
     <use style="stroke:#000000;stroke-width:2;" x="93.214783" xlink:href="#mc43b55129d" y="185.302877"/>
     <use style="stroke:#000000;stroke-width:2;" x="160.529565" xlink:href="#mc43b55129d" y="166.860613"/>
     <use style="stroke:#000000;stroke-width:2;" x="251.870034" xlink:href="#mc43b55129d" y="162.218328"/>
     <use style="stroke:#000000;stroke-width:2;" x="343.210502" xlink:href="#mc43b55129d" y="115.259828"/>
     <use style="stroke:#000000;stroke-width:2;" x="434.550971" xlink:href="#mc43b55129d" y="88.771772"/>
    </g>
   </g>
   <g id="line2d_57">
    <path clip-path="url(#p2deb27a811)" d="M 35.597488 221.305579 
L 38.52807 214.304346 
L 35.597488 200.924757 
L 43.970579 200.924757 
L 41.039997 214.304346 
L 43.970579 221.305579 
L 35.597488 221.305579 
" style="fill:none;stroke:#0000ff;stroke-linecap:square;"/>
   </g>
   <g id="line2d_58">
    <path clip-path="url(#p2deb27a811)" d="M 35.597488 221.305579 
L 43.970579 221.305579 
L 43.970579 200.924757 
L 35.597488 200.924757 
L 35.597488 221.305579 
" style="fill:none;"/>
    <defs>
     <path d="M 0 1.5 
C 0.397805 1.5 0.77937 1.341951 1.06066 1.06066 
C 1.341951 0.77937 1.5 0.397805 1.5 0 
C 1.5 -0.397805 1.341951 -0.77937 1.06066 -1.06066 
C 0.77937 -1.341951 0.397805 -1.5 0 -1.5 
C -0.397805 -1.5 -0.77937 -1.341951 -1.06066 -1.06066 
C -1.341951 -0.77937 -1.5 -0.397805 -1.5 0 
C -1.5 0.397805 -1.341951 0.77937 -1.06066 1.06066 
C -0.77937 1.341951 -0.397805 1.5 0 1.5 
z
" id="m64ffa6287b" style="stroke:#0000ff;"/>
    </defs>
    <g clip-path="url(#p2deb27a811)">
     <use style="fill:#0000ff;stroke:#0000ff;" x="35.597488" xlink:href="#m64ffa6287b" y="221.305579"/>
     <use style="fill:#0000ff;stroke:#0000ff;" x="43.970579" xlink:href="#m64ffa6287b" y="221.305579"/>
     <use style="fill:#0000ff;stroke:#0000ff;" x="43.970579" xlink:href="#m64ffa6287b" y="200.924757"/>
     <use style="fill:#0000ff;stroke:#0000ff;" x="35.597488" xlink:href="#m64ffa6287b" y="200.924757"/>
     <use style="fill:#0000ff;stroke:#0000ff;" x="35.597488" xlink:href="#m64ffa6287b" y="221.305579"/>
    </g>
   </g>
   <g id="line2d_59">
    <path clip-path="url(#p2deb27a811)" d="M 35.597488 214.304346 
L 43.970579 214.304346 
" style="fill:none;stroke:#0000ff;stroke-linecap:square;stroke-width:2;"/>
   </g>
   <g id="line2d_60">
    <path clip-path="url(#p2deb27a811)" d="M 89.028237 153.96101 
L 91.958819 152.306321 
L 89.028237 150.419045 
L 97.401328 150.419045 
L 94.470746 152.306321 
L 97.401328 153.96101 
L 89.028237 153.96101 
" style="fill:none;stroke:#0000ff;stroke-linecap:square;"/>
   </g>
   <g id="line2d_61">
    <path clip-path="url(#p2deb27a811)" d="M 89.028237 153.96101 
L 97.401328 153.96101 
L 97.401328 150.419045 
L 89.028237 150.419045 
L 89.028237 153.96101 
" style="fill:none;"/>
    <g clip-path="url(#p2deb27a811)">
     <use style="fill:#0000ff;stroke:#0000ff;" x="89.028237" xlink:href="#m64ffa6287b" y="153.96101"/>
     <use style="fill:#0000ff;stroke:#0000ff;" x="97.401328" xlink:href="#m64ffa6287b" y="153.96101"/>
     <use style="fill:#0000ff;stroke:#0000ff;" x="97.401328" xlink:href="#m64ffa6287b" y="150.419045"/>
     <use style="fill:#0000ff;stroke:#0000ff;" x="89.028237" xlink:href="#m64ffa6287b" y="150.419045"/>
     <use style="fill:#0000ff;stroke:#0000ff;" x="89.028237" xlink:href="#m64ffa6287b" y="153.96101"/>
    </g>
   </g>
   <g id="line2d_62">
    <path clip-path="url(#p2deb27a811)" d="M 89.028237 152.306321 
L 97.401328 152.306321 
" style="fill:none;stroke:#0000ff;stroke-linecap:square;stroke-width:2;"/>
   </g>
   <g id="line2d_63">
    <path clip-path="url(#p2deb27a811)" d="M 156.34302 128.159557 
L 159.273602 127.075975 
L 156.34302 126.886578 
L 164.716111 126.886578 
L 161.785529 127.075975 
L 164.716111 128.159557 
L 156.34302 128.159557 
" style="fill:none;stroke:#0000ff;stroke-linecap:square;"/>
   </g>
   <g id="line2d_64">
    <path clip-path="url(#p2deb27a811)" d="M 156.34302 128.159557 
L 164.716111 128.159557 
L 164.716111 126.886578 
L 156.34302 126.886578 
L 156.34302 128.159557 
" style="fill:none;"/>
    <g clip-path="url(#p2deb27a811)">
     <use style="fill:#0000ff;stroke:#0000ff;" x="156.34302" xlink:href="#m64ffa6287b" y="128.159557"/>
     <use style="fill:#0000ff;stroke:#0000ff;" x="164.716111" xlink:href="#m64ffa6287b" y="128.159557"/>
     <use style="fill:#0000ff;stroke:#0000ff;" x="164.716111" xlink:href="#m64ffa6287b" y="126.886578"/>
     <use style="fill:#0000ff;stroke:#0000ff;" x="156.34302" xlink:href="#m64ffa6287b" y="126.886578"/>
     <use style="fill:#0000ff;stroke:#0000ff;" x="156.34302" xlink:href="#m64ffa6287b" y="128.159557"/>
    </g>
   </g>
   <g id="line2d_65">
    <path clip-path="url(#p2deb27a811)" d="M 156.34302 127.075975 
L 164.716111 127.075975 
" style="fill:none;stroke:#0000ff;stroke-linecap:square;stroke-width:2;"/>
   </g>
   <g id="line2d_66">
    <path clip-path="url(#p2deb27a811)" d="M 247.683488 108.301222 
L 250.61407 107.728322 
L 247.683488 107.529397 
L 256.056579 107.529397 
L 253.125997 107.728322 
L 256.056579 108.301222 
L 247.683488 108.301222 
" style="fill:none;stroke:#0000ff;stroke-linecap:square;"/>
   </g>
   <g id="line2d_67">
    <path clip-path="url(#p2deb27a811)" d="M 247.683488 108.301222 
L 256.056579 108.301222 
L 256.056579 107.529397 
L 247.683488 107.529397 
L 247.683488 108.301222 
" style="fill:none;"/>
    <g clip-path="url(#p2deb27a811)">
     <use style="fill:#0000ff;stroke:#0000ff;" x="247.683488" xlink:href="#m64ffa6287b" y="108.301222"/>
     <use style="fill:#0000ff;stroke:#0000ff;" x="256.056579" xlink:href="#m64ffa6287b" y="108.301222"/>
     <use style="fill:#0000ff;stroke:#0000ff;" x="256.056579" xlink:href="#m64ffa6287b" y="107.529397"/>
     <use style="fill:#0000ff;stroke:#0000ff;" x="247.683488" xlink:href="#m64ffa6287b" y="107.529397"/>
     <use style="fill:#0000ff;stroke:#0000ff;" x="247.683488" xlink:href="#m64ffa6287b" y="108.301222"/>
    </g>
   </g>
   <g id="line2d_68">
    <path clip-path="url(#p2deb27a811)" d="M 247.683488 107.728322 
L 256.056579 107.728322 
" style="fill:none;stroke:#0000ff;stroke-linecap:square;stroke-width:2;"/>
   </g>
   <g id="line2d_69">
    <path clip-path="url(#p2deb27a811)" d="M 339.023957 92.24924 
L 341.954539 92.216339 
L 339.023957 91.887362 
L 347.397048 91.887362 
L 344.466466 92.216339 
L 347.397048 92.24924 
L 339.023957 92.24924 
" style="fill:none;stroke:#0000ff;stroke-linecap:square;"/>
   </g>
   <g id="line2d_70">
    <path clip-path="url(#p2deb27a811)" d="M 339.023957 92.24924 
L 347.397048 92.24924 
L 347.397048 91.887362 
L 339.023957 91.887362 
L 339.023957 92.24924 
" style="fill:none;"/>
    <g clip-path="url(#p2deb27a811)">
     <use style="fill:#0000ff;stroke:#0000ff;" x="339.023957" xlink:href="#m64ffa6287b" y="92.24924"/>
     <use style="fill:#0000ff;stroke:#0000ff;" x="347.397048" xlink:href="#m64ffa6287b" y="92.24924"/>
     <use style="fill:#0000ff;stroke:#0000ff;" x="347.397048" xlink:href="#m64ffa6287b" y="91.887362"/>
     <use style="fill:#0000ff;stroke:#0000ff;" x="339.023957" xlink:href="#m64ffa6287b" y="91.887362"/>
     <use style="fill:#0000ff;stroke:#0000ff;" x="339.023957" xlink:href="#m64ffa6287b" y="92.24924"/>
    </g>
   </g>
   <g id="line2d_71">
    <path clip-path="url(#p2deb27a811)" d="M 339.023957 92.216339 
L 347.397048 92.216339 
" style="fill:none;stroke:#0000ff;stroke-linecap:square;stroke-width:2;"/>
   </g>
   <g id="line2d_72">
    <path clip-path="url(#p2deb27a811)" d="M 39.784034 201.476866 
L 93.214783 153.952028 
" style="fill:none;stroke:#0000ff;stroke-linecap:square;stroke-width:4;"/>
   </g>
   <g id="line2d_73">
    <path clip-path="url(#p2deb27a811)" d="M 93.214783 153.952028 
L 160.529565 127.719627 
" style="fill:none;stroke:#0000ff;stroke-linecap:square;stroke-width:4;"/>
   </g>
   <g id="line2d_74">
    <path clip-path="url(#p2deb27a811)" d="M 160.529565 127.719627 
L 251.870034 108.030147 
" style="fill:none;stroke:#0000ff;stroke-linecap:square;stroke-width:4;"/>
   </g>
   <g id="line2d_75">
    <path clip-path="url(#p2deb27a811)" d="M 251.870034 108.030147 
L 343.210502 92.278264 
" style="fill:none;stroke:#0000ff;stroke-linecap:square;stroke-width:4;"/>
   </g>
   <g id="line2d_76">
    <path clip-path="url(#p2deb27a811)" d="M 39.784034 201.476866 
L 93.214783 153.952028 
L 160.529565 127.719627 
L 251.870034 108.030147 
L 343.210502 92.278264 
" style="fill:none;"/>
    <defs>
     <path d="M 0 5 
C 1.326016 5 2.597899 4.473168 3.535534 3.535534 
C 4.473168 2.597899 5 1.326016 5 0 
C 5 -1.326016 4.473168 -2.597899 3.535534 -3.535534 
C 2.597899 -4.473168 1.326016 -5 0 -5 
C -1.326016 -5 -2.597899 -4.473168 -3.535534 -3.535534 
C -4.473168 -2.597899 -5 -1.326016 -5 0 
C -5 1.326016 -4.473168 2.597899 -3.535534 3.535534 
C -2.597899 4.473168 -1.326016 5 0 5 
z
" id="md1a32073c2" style="stroke:#0000ff;"/>
    </defs>
    <g clip-path="url(#p2deb27a811)">
     <use style="fill:#0000ff;stroke:#0000ff;" x="39.784034" xlink:href="#md1a32073c2" y="201.476866"/>
     <use style="fill:#0000ff;stroke:#0000ff;" x="93.214783" xlink:href="#md1a32073c2" y="153.952028"/>
     <use style="fill:#0000ff;stroke:#0000ff;" x="160.529565" xlink:href="#md1a32073c2" y="127.719627"/>
     <use style="fill:#0000ff;stroke:#0000ff;" x="251.870034" xlink:href="#md1a32073c2" y="108.030147"/>
     <use style="fill:#0000ff;stroke:#0000ff;" x="343.210502" xlink:href="#md1a32073c2" y="92.278264"/>
    </g>
   </g>
   <g id="line2d_77">
    <path clip-path="url(#p2deb27a811)" d="M 34.550852 186.713378 
L 38.214079 163.63661 
L 34.550852 152.258169 
L 45.017216 152.258169 
L 41.353988 163.63661 
L 45.017216 186.713378 
L 34.550852 186.713378 
" style="fill:none;stroke:#00bfbf;stroke-linecap:square;"/>
   </g>
   <g id="line2d_78">
    <path clip-path="url(#p2deb27a811)" d="M 34.550852 186.713378 
L 45.017216 186.713378 
L 45.017216 152.258169 
L 34.550852 152.258169 
L 34.550852 186.713378 
" style="fill:none;"/>
    <defs>
     <path d="M -0 3 
L 3 -3 
L -3 -3 
z
" id="m37ca64b184" style="stroke:#00bfbf;stroke-linejoin:miter;stroke-width:2;"/>
    </defs>
    <g clip-path="url(#p2deb27a811)">
     <use style="fill:#00bfbf;stroke:#00bfbf;stroke-linejoin:miter;stroke-width:2;" x="34.550852" xlink:href="#m37ca64b184" y="186.713378"/>
     <use style="fill:#00bfbf;stroke:#00bfbf;stroke-linejoin:miter;stroke-width:2;" x="45.017216" xlink:href="#m37ca64b184" y="186.713378"/>
     <use style="fill:#00bfbf;stroke:#00bfbf;stroke-linejoin:miter;stroke-width:2;" x="45.017216" xlink:href="#m37ca64b184" y="152.258169"/>
     <use style="fill:#00bfbf;stroke:#00bfbf;stroke-linejoin:miter;stroke-width:2;" x="34.550852" xlink:href="#m37ca64b184" y="152.258169"/>
     <use style="fill:#00bfbf;stroke:#00bfbf;stroke-linejoin:miter;stroke-width:2;" x="34.550852" xlink:href="#m37ca64b184" y="186.713378"/>
    </g>
   </g>
   <g id="line2d_79">
    <path clip-path="url(#p2deb27a811)" d="M 34.550852 163.63661 
L 45.017216 163.63661 
" style="fill:none;stroke:#00bfbf;stroke-linecap:square;stroke-width:2;"/>
   </g>
   <g id="line2d_80">
    <path clip-path="url(#p2deb27a811)" d="M 87.981601 111.482261 
L 91.644828 110.681405 
L 87.981601 110.531069 
L 98.447964 110.531069 
L 94.784737 110.681405 
L 98.447964 111.482261 
L 87.981601 111.482261 
" style="fill:none;stroke:#00bfbf;stroke-linecap:square;"/>
   </g>
   <g id="line2d_81">
    <path clip-path="url(#p2deb27a811)" d="M 87.981601 111.482261 
L 98.447964 111.482261 
L 98.447964 110.531069 
L 87.981601 110.531069 
L 87.981601 111.482261 
" style="fill:none;"/>
    <g clip-path="url(#p2deb27a811)">
     <use style="fill:#00bfbf;stroke:#00bfbf;stroke-linejoin:miter;stroke-width:2;" x="87.981601" xlink:href="#m37ca64b184" y="111.482261"/>
     <use style="fill:#00bfbf;stroke:#00bfbf;stroke-linejoin:miter;stroke-width:2;" x="98.447964" xlink:href="#m37ca64b184" y="111.482261"/>
     <use style="fill:#00bfbf;stroke:#00bfbf;stroke-linejoin:miter;stroke-width:2;" x="98.447964" xlink:href="#m37ca64b184" y="110.531069"/>
     <use style="fill:#00bfbf;stroke:#00bfbf;stroke-linejoin:miter;stroke-width:2;" x="87.981601" xlink:href="#m37ca64b184" y="110.531069"/>
     <use style="fill:#00bfbf;stroke:#00bfbf;stroke-linejoin:miter;stroke-width:2;" x="87.981601" xlink:href="#m37ca64b184" y="111.482261"/>
    </g>
   </g>
   <g id="line2d_82">
    <path clip-path="url(#p2deb27a811)" d="M 87.981601 110.681405 
L 98.447964 110.681405 
" style="fill:none;stroke:#00bfbf;stroke-linecap:square;stroke-width:2;"/>
   </g>
   <g id="line2d_83">
    <path clip-path="url(#p2deb27a811)" d="M 155.296383 101.438952 
L 158.959611 100.785116 
L 155.296383 99.832723 
L 165.762747 99.832723 
L 162.09952 100.785116 
L 165.762747 101.438952 
L 155.296383 101.438952 
" style="fill:none;stroke:#00bfbf;stroke-linecap:square;"/>
   </g>
   <g id="line2d_84">
    <path clip-path="url(#p2deb27a811)" d="M 155.296383 101.438952 
L 165.762747 101.438952 
L 165.762747 99.832723 
L 155.296383 99.832723 
L 155.296383 101.438952 
" style="fill:none;"/>
    <g clip-path="url(#p2deb27a811)">
     <use style="fill:#00bfbf;stroke:#00bfbf;stroke-linejoin:miter;stroke-width:2;" x="155.296383" xlink:href="#m37ca64b184" y="101.438952"/>
     <use style="fill:#00bfbf;stroke:#00bfbf;stroke-linejoin:miter;stroke-width:2;" x="165.762747" xlink:href="#m37ca64b184" y="101.438952"/>
     <use style="fill:#00bfbf;stroke:#00bfbf;stroke-linejoin:miter;stroke-width:2;" x="165.762747" xlink:href="#m37ca64b184" y="99.832723"/>
     <use style="fill:#00bfbf;stroke:#00bfbf;stroke-linejoin:miter;stroke-width:2;" x="155.296383" xlink:href="#m37ca64b184" y="99.832723"/>
     <use style="fill:#00bfbf;stroke:#00bfbf;stroke-linejoin:miter;stroke-width:2;" x="155.296383" xlink:href="#m37ca64b184" y="101.438952"/>
    </g>
   </g>
   <g id="line2d_85">
    <path clip-path="url(#p2deb27a811)" d="M 155.296383 100.785116 
L 165.762747 100.785116 
" style="fill:none;stroke:#00bfbf;stroke-linecap:square;stroke-width:2;"/>
   </g>
   <g id="line2d_86">
    <path clip-path="url(#p2deb27a811)" d="M 246.636852 91.474941 
L 250.300079 91.214217 
L 246.636852 91.065898 
L 257.103216 91.065898 
L 253.439988 91.214217 
L 257.103216 91.474941 
L 246.636852 91.474941 
" style="fill:none;stroke:#00bfbf;stroke-linecap:square;"/>
   </g>
   <g id="line2d_87">
    <path clip-path="url(#p2deb27a811)" d="M 246.636852 91.474941 
L 257.103216 91.474941 
L 257.103216 91.065898 
L 246.636852 91.065898 
L 246.636852 91.474941 
" style="fill:none;"/>
    <g clip-path="url(#p2deb27a811)">
     <use style="fill:#00bfbf;stroke:#00bfbf;stroke-linejoin:miter;stroke-width:2;" x="246.636852" xlink:href="#m37ca64b184" y="91.474941"/>
     <use style="fill:#00bfbf;stroke:#00bfbf;stroke-linejoin:miter;stroke-width:2;" x="257.103216" xlink:href="#m37ca64b184" y="91.474941"/>
     <use style="fill:#00bfbf;stroke:#00bfbf;stroke-linejoin:miter;stroke-width:2;" x="257.103216" xlink:href="#m37ca64b184" y="91.065898"/>
     <use style="fill:#00bfbf;stroke:#00bfbf;stroke-linejoin:miter;stroke-width:2;" x="246.636852" xlink:href="#m37ca64b184" y="91.065898"/>
     <use style="fill:#00bfbf;stroke:#00bfbf;stroke-linejoin:miter;stroke-width:2;" x="246.636852" xlink:href="#m37ca64b184" y="91.474941"/>
    </g>
   </g>
   <g id="line2d_88">
    <path clip-path="url(#p2deb27a811)" d="M 246.636852 91.214217 
L 257.103216 91.214217 
" style="fill:none;stroke:#00bfbf;stroke-linecap:square;stroke-width:2;"/>
   </g>
   <g id="line2d_89">
    <path clip-path="url(#p2deb27a811)" d="M 337.97732 83.580837 
L 341.640548 83.477584 
L 337.97732 83.355904 
L 348.443684 83.355904 
L 344.780457 83.477584 
L 348.443684 83.580837 
L 337.97732 83.580837 
" style="fill:none;stroke:#00bfbf;stroke-linecap:square;"/>
   </g>
   <g id="line2d_90">
    <path clip-path="url(#p2deb27a811)" d="M 337.97732 83.580837 
L 348.443684 83.580837 
L 348.443684 83.355904 
L 337.97732 83.355904 
L 337.97732 83.580837 
" style="fill:none;"/>
    <g clip-path="url(#p2deb27a811)">
     <use style="fill:#00bfbf;stroke:#00bfbf;stroke-linejoin:miter;stroke-width:2;" x="337.97732" xlink:href="#m37ca64b184" y="83.580837"/>
     <use style="fill:#00bfbf;stroke:#00bfbf;stroke-linejoin:miter;stroke-width:2;" x="348.443684" xlink:href="#m37ca64b184" y="83.580837"/>
     <use style="fill:#00bfbf;stroke:#00bfbf;stroke-linejoin:miter;stroke-width:2;" x="348.443684" xlink:href="#m37ca64b184" y="83.355904"/>
     <use style="fill:#00bfbf;stroke:#00bfbf;stroke-linejoin:miter;stroke-width:2;" x="337.97732" xlink:href="#m37ca64b184" y="83.355904"/>
     <use style="fill:#00bfbf;stroke:#00bfbf;stroke-linejoin:miter;stroke-width:2;" x="337.97732" xlink:href="#m37ca64b184" y="83.580837"/>
    </g>
   </g>
   <g id="line2d_91">
    <path clip-path="url(#p2deb27a811)" d="M 337.97732 83.477584 
L 348.443684 83.477584 
" style="fill:none;stroke:#00bfbf;stroke-linecap:square;stroke-width:2;"/>
   </g>
   <g id="line2d_92">
    <path clip-path="url(#p2deb27a811)" d="M 39.784034 169.808178 
L 93.214783 112.236136 
" style="fill:none;stroke:#00bfbf;stroke-linecap:square;stroke-width:4;"/>
   </g>
   <g id="line2d_93">
    <path clip-path="url(#p2deb27a811)" d="M 93.214783 112.236136 
L 160.529565 100.695185 
" style="fill:none;stroke:#00bfbf;stroke-linecap:square;stroke-width:4;"/>
   </g>
   <g id="line2d_94">
    <path clip-path="url(#p2deb27a811)" d="M 160.529565 100.695185 
L 251.870034 91.272603 
" style="fill:none;stroke:#00bfbf;stroke-linecap:square;stroke-width:4;"/>
   </g>
   <g id="line2d_95">
    <path clip-path="url(#p2deb27a811)" d="M 251.870034 91.272603 
L 343.210502 83.360347 
" style="fill:none;stroke:#00bfbf;stroke-linecap:square;stroke-width:4;"/>
   </g>
   <g id="line2d_96">
    <path clip-path="url(#p2deb27a811)" d="M 39.784034 169.808178 
L 93.214783 112.236136 
L 160.529565 100.695185 
L 251.870034 91.272603 
L 343.210502 83.360347 
" style="fill:none;"/>
    <defs>
     <path d="M -0 10 
L 10 -10 
L -10 -10 
z
" id="mffc14e2db0" style="stroke:#000000;stroke-linejoin:miter;stroke-width:2;"/>
    </defs>
    <g clip-path="url(#p2deb27a811)">
     <use style="fill:#00bfbf;stroke:#000000;stroke-linejoin:miter;stroke-width:2;" x="39.784034" xlink:href="#mffc14e2db0" y="169.808178"/>
     <use style="fill:#00bfbf;stroke:#000000;stroke-linejoin:miter;stroke-width:2;" x="93.214783" xlink:href="#mffc14e2db0" y="112.236136"/>
     <use style="fill:#00bfbf;stroke:#000000;stroke-linejoin:miter;stroke-width:2;" x="160.529565" xlink:href="#mffc14e2db0" y="100.695185"/>
     <use style="fill:#00bfbf;stroke:#000000;stroke-linejoin:miter;stroke-width:2;" x="251.870034" xlink:href="#mffc14e2db0" y="91.272603"/>
     <use style="fill:#00bfbf;stroke:#000000;stroke-linejoin:miter;stroke-width:2;" x="343.210502" xlink:href="#mffc14e2db0" y="83.360347"/>
    </g>
   </g>
   <g id="line2d_97">
    <path clip-path="url(#p2deb27a811)" d="M 33.504216 155.220568 
L 37.900088 116.148812 
L 33.504216 101.167311 
L 46.063852 101.167311 
L 41.667979 116.148812 
L 46.063852 155.220568 
L 33.504216 155.220568 
" style="fill:none;stroke:#008000;stroke-linecap:square;"/>
   </g>
   <g id="line2d_98">
    <path clip-path="url(#p2deb27a811)" d="M 33.504216 155.220568 
L 46.063852 155.220568 
L 46.063852 101.167311 
L 33.504216 101.167311 
L 33.504216 155.220568 
" style="fill:none;"/>
    <defs>
     <path d="M 0 1.5 
C 0.397805 1.5 0.77937 1.341951 1.06066 1.06066 
C 1.341951 0.77937 1.5 0.397805 1.5 0 
C 1.5 -0.397805 1.341951 -0.77937 1.06066 -1.06066 
C 0.77937 -1.341951 0.397805 -1.5 0 -1.5 
C -0.397805 -1.5 -0.77937 -1.341951 -1.06066 -1.06066 
C -1.341951 -0.77937 -1.5 -0.397805 -1.5 0 
C -1.5 0.397805 -1.341951 0.77937 -1.06066 1.06066 
C -0.77937 1.341951 -0.397805 1.5 0 1.5 
z
" id="m78e7b79a1c" style="stroke:#008000;"/>
    </defs>
    <g clip-path="url(#p2deb27a811)">
     <use style="fill:#008000;stroke:#008000;" x="33.504216" xlink:href="#m78e7b79a1c" y="155.220568"/>
     <use style="fill:#008000;stroke:#008000;" x="46.063852" xlink:href="#m78e7b79a1c" y="155.220568"/>
     <use style="fill:#008000;stroke:#008000;" x="46.063852" xlink:href="#m78e7b79a1c" y="101.167311"/>
     <use style="fill:#008000;stroke:#008000;" x="33.504216" xlink:href="#m78e7b79a1c" y="101.167311"/>
     <use style="fill:#008000;stroke:#008000;" x="33.504216" xlink:href="#m78e7b79a1c" y="155.220568"/>
    </g>
   </g>
   <g id="line2d_99">
    <path clip-path="url(#p2deb27a811)" d="M 33.504216 116.148812 
L 46.063852 116.148812 
" style="fill:none;stroke:#008000;stroke-linecap:square;stroke-width:2;"/>
   </g>
   <g id="line2d_100">
    <path clip-path="url(#p2deb27a811)" d="M 86.934964 89.012125 
L 91.330837 88.713264 
L 86.934964 88.245789 
L 99.494601 88.245789 
L 95.098728 88.713264 
L 99.494601 89.012125 
L 86.934964 89.012125 
" style="fill:none;stroke:#008000;stroke-linecap:square;"/>
   </g>
   <g id="line2d_101">
    <path clip-path="url(#p2deb27a811)" d="M 86.934964 89.012125 
L 99.494601 89.012125 
L 99.494601 88.245789 
L 86.934964 88.245789 
L 86.934964 89.012125 
" style="fill:none;"/>
    <g clip-path="url(#p2deb27a811)">
     <use style="fill:#008000;stroke:#008000;" x="86.934964" xlink:href="#m78e7b79a1c" y="89.012125"/>
     <use style="fill:#008000;stroke:#008000;" x="99.494601" xlink:href="#m78e7b79a1c" y="89.012125"/>
     <use style="fill:#008000;stroke:#008000;" x="99.494601" xlink:href="#m78e7b79a1c" y="88.245789"/>
     <use style="fill:#008000;stroke:#008000;" x="86.934964" xlink:href="#m78e7b79a1c" y="88.245789"/>
     <use style="fill:#008000;stroke:#008000;" x="86.934964" xlink:href="#m78e7b79a1c" y="89.012125"/>
    </g>
   </g>
   <g id="line2d_102">
    <path clip-path="url(#p2deb27a811)" d="M 86.934964 88.713264 
L 99.494601 88.713264 
" style="fill:none;stroke:#008000;stroke-linecap:square;stroke-width:2;"/>
   </g>
   <g id="line2d_103">
    <path clip-path="url(#p2deb27a811)" d="M 154.249747 81.707031 
L 158.64562 81.450258 
L 154.249747 80.868844 
L 166.809383 80.868844 
L 162.413511 81.450258 
L 166.809383 81.707031 
L 154.249747 81.707031 
" style="fill:none;stroke:#008000;stroke-linecap:square;"/>
   </g>
   <g id="line2d_104">
    <path clip-path="url(#p2deb27a811)" d="M 154.249747 81.707031 
L 166.809383 81.707031 
L 166.809383 80.868844 
L 154.249747 80.868844 
L 154.249747 81.707031 
" style="fill:none;"/>
    <g clip-path="url(#p2deb27a811)">
     <use style="fill:#008000;stroke:#008000;" x="154.249747" xlink:href="#m78e7b79a1c" y="81.707031"/>
     <use style="fill:#008000;stroke:#008000;" x="166.809383" xlink:href="#m78e7b79a1c" y="81.707031"/>
     <use style="fill:#008000;stroke:#008000;" x="166.809383" xlink:href="#m78e7b79a1c" y="80.868844"/>
     <use style="fill:#008000;stroke:#008000;" x="154.249747" xlink:href="#m78e7b79a1c" y="80.868844"/>
     <use style="fill:#008000;stroke:#008000;" x="154.249747" xlink:href="#m78e7b79a1c" y="81.707031"/>
    </g>
   </g>
   <g id="line2d_105">
    <path clip-path="url(#p2deb27a811)" d="M 154.249747 81.450258 
L 166.809383 81.450258 
" style="fill:none;stroke:#008000;stroke-linecap:square;stroke-width:2;"/>
   </g>
   <g id="line2d_106">
    <path clip-path="url(#p2deb27a811)" d="M 245.590216 76.728966 
L 249.986088 76.533659 
L 245.590216 76.44179 
L 258.149852 76.44179 
L 253.753979 76.533659 
L 258.149852 76.728966 
L 245.590216 76.728966 
" style="fill:none;stroke:#008000;stroke-linecap:square;"/>
   </g>
   <g id="line2d_107">
    <path clip-path="url(#p2deb27a811)" d="M 245.590216 76.728966 
L 258.149852 76.728966 
L 258.149852 76.44179 
L 245.590216 76.44179 
L 245.590216 76.728966 
" style="fill:none;"/>
    <g clip-path="url(#p2deb27a811)">
     <use style="fill:#008000;stroke:#008000;" x="245.590216" xlink:href="#m78e7b79a1c" y="76.728966"/>
     <use style="fill:#008000;stroke:#008000;" x="258.149852" xlink:href="#m78e7b79a1c" y="76.728966"/>
     <use style="fill:#008000;stroke:#008000;" x="258.149852" xlink:href="#m78e7b79a1c" y="76.44179"/>
     <use style="fill:#008000;stroke:#008000;" x="245.590216" xlink:href="#m78e7b79a1c" y="76.44179"/>
     <use style="fill:#008000;stroke:#008000;" x="245.590216" xlink:href="#m78e7b79a1c" y="76.728966"/>
    </g>
   </g>
   <g id="line2d_108">
    <path clip-path="url(#p2deb27a811)" d="M 245.590216 76.533659 
L 258.149852 76.533659 
" style="fill:none;stroke:#008000;stroke-linecap:square;stroke-width:2;"/>
   </g>
   <g id="line2d_109">
    <path clip-path="url(#p2deb27a811)" d="M 39.784034 113.721745 
L 93.214783 88.864206 
" style="fill:none;stroke:#008000;stroke-linecap:square;stroke-width:4;"/>
   </g>
   <g id="line2d_110">
    <path clip-path="url(#p2deb27a811)" d="M 93.214783 88.864206 
L 160.529565 81.529127 
" style="fill:none;stroke:#008000;stroke-linecap:square;stroke-width:4;"/>
   </g>
   <g id="line2d_111">
    <path clip-path="url(#p2deb27a811)" d="M 160.529565 81.529127 
L 251.870034 76.530266 
" style="fill:none;stroke:#008000;stroke-linecap:square;stroke-width:4;"/>
   </g>
   <g id="line2d_112">
    <path clip-path="url(#p2deb27a811)" d="M 39.784034 113.721745 
L 93.214783 88.864206 
L 160.529565 81.529127 
L 251.870034 76.530266 
" style="fill:none;"/>
    <defs>
     <path d="M 0 5 
C 1.326016 5 2.597899 4.473168 3.535534 3.535534 
C 4.473168 2.597899 5 1.326016 5 0 
C 5 -1.326016 4.473168 -2.597899 3.535534 -3.535534 
C 2.597899 -4.473168 1.326016 -5 0 -5 
C -1.326016 -5 -2.597899 -4.473168 -3.535534 -3.535534 
C -4.473168 -2.597899 -5 -1.326016 -5 0 
C -5 1.326016 -4.473168 2.597899 -3.535534 3.535534 
C -2.597899 4.473168 -1.326016 5 0 5 
z
" id="md539d4b3f8" style="stroke:#008000;"/>
    </defs>
    <g clip-path="url(#p2deb27a811)">
     <use style="fill:#008000;stroke:#008000;" x="39.784034" xlink:href="#md539d4b3f8" y="113.721745"/>
     <use style="fill:#008000;stroke:#008000;" x="93.214783" xlink:href="#md539d4b3f8" y="88.864206"/>
     <use style="fill:#008000;stroke:#008000;" x="160.529565" xlink:href="#md539d4b3f8" y="81.529127"/>
     <use style="fill:#008000;stroke:#008000;" x="251.870034" xlink:href="#md539d4b3f8" y="76.530266"/>
    </g>
   </g>
   <g id="line2d_113">
    <path clip-path="url(#p2deb27a811)" d="M 32.457579 90.024693 
L 37.586097 89.611195 
L 32.457579 88.820543 
L 47.110488 88.820543 
L 41.98197 89.611195 
L 47.110488 90.024693 
L 32.457579 90.024693 
" style="fill:none;stroke:#bfbf00;stroke-linecap:square;"/>
   </g>
   <g id="line2d_114">
    <path clip-path="url(#p2deb27a811)" d="M 32.457579 90.024693 
L 47.110488 90.024693 
L 47.110488 88.820543 
L 32.457579 88.820543 
L 32.457579 90.024693 
" style="fill:none;"/>
    <defs>
     <path d="M 0 -3 
L -3 3 
L 3 3 
z
" id="m1de47ab149" style="stroke:#bfbf00;stroke-linejoin:miter;stroke-width:2;"/>
    </defs>
    <g clip-path="url(#p2deb27a811)">
     <use style="fill:#bfbf00;stroke:#bfbf00;stroke-linejoin:miter;stroke-width:2;" x="32.457579" xlink:href="#m1de47ab149" y="90.024693"/>
     <use style="fill:#bfbf00;stroke:#bfbf00;stroke-linejoin:miter;stroke-width:2;" x="47.110488" xlink:href="#m1de47ab149" y="90.024693"/>
     <use style="fill:#bfbf00;stroke:#bfbf00;stroke-linejoin:miter;stroke-width:2;" x="47.110488" xlink:href="#m1de47ab149" y="88.820543"/>
     <use style="fill:#bfbf00;stroke:#bfbf00;stroke-linejoin:miter;stroke-width:2;" x="32.457579" xlink:href="#m1de47ab149" y="88.820543"/>
     <use style="fill:#bfbf00;stroke:#bfbf00;stroke-linejoin:miter;stroke-width:2;" x="32.457579" xlink:href="#m1de47ab149" y="90.024693"/>
    </g>
   </g>
   <g id="line2d_115">
    <path clip-path="url(#p2deb27a811)" d="M 32.457579 89.611195 
L 47.110488 89.611195 
" style="fill:none;stroke:#bfbf00;stroke-linecap:square;stroke-width:2;"/>
   </g>
   <g id="line2d_116">
    <path clip-path="url(#p2deb27a811)" d="M 85.888328 75.998352 
L 91.016846 75.810132 
L 85.888328 75.359239 
L 100.541237 75.359239 
L 95.412719 75.810132 
L 100.541237 75.998352 
L 85.888328 75.998352 
" style="fill:none;stroke:#bfbf00;stroke-linecap:square;"/>
   </g>
   <g id="line2d_117">
    <path clip-path="url(#p2deb27a811)" d="M 85.888328 75.998352 
L 100.541237 75.998352 
L 100.541237 75.359239 
L 85.888328 75.359239 
L 85.888328 75.998352 
" style="fill:none;"/>
    <g clip-path="url(#p2deb27a811)">
     <use style="fill:#bfbf00;stroke:#bfbf00;stroke-linejoin:miter;stroke-width:2;" x="85.888328" xlink:href="#m1de47ab149" y="75.998352"/>
     <use style="fill:#bfbf00;stroke:#bfbf00;stroke-linejoin:miter;stroke-width:2;" x="100.541237" xlink:href="#m1de47ab149" y="75.998352"/>
     <use style="fill:#bfbf00;stroke:#bfbf00;stroke-linejoin:miter;stroke-width:2;" x="100.541237" xlink:href="#m1de47ab149" y="75.359239"/>
     <use style="fill:#bfbf00;stroke:#bfbf00;stroke-linejoin:miter;stroke-width:2;" x="85.888328" xlink:href="#m1de47ab149" y="75.359239"/>
     <use style="fill:#bfbf00;stroke:#bfbf00;stroke-linejoin:miter;stroke-width:2;" x="85.888328" xlink:href="#m1de47ab149" y="75.998352"/>
    </g>
   </g>
   <g id="line2d_118">
    <path clip-path="url(#p2deb27a811)" d="M 85.888328 75.810132 
L 100.541237 75.810132 
" style="fill:none;stroke:#bfbf00;stroke-linecap:square;stroke-width:2;"/>
   </g>
   <g id="line2d_119">
    <path clip-path="url(#p2deb27a811)" d="M 153.203111 69.812807 
L 158.331629 69.733392 
L 153.203111 69.420833 
L 167.85602 69.420833 
L 162.727502 69.733392 
L 167.85602 69.812807 
L 153.203111 69.812807 
" style="fill:none;stroke:#bfbf00;stroke-linecap:square;"/>
   </g>
   <g id="line2d_120">
    <path clip-path="url(#p2deb27a811)" d="M 153.203111 69.812807 
L 167.85602 69.812807 
L 167.85602 69.420833 
L 153.203111 69.420833 
L 153.203111 69.812807 
" style="fill:none;"/>
    <g clip-path="url(#p2deb27a811)">
     <use style="fill:#bfbf00;stroke:#bfbf00;stroke-linejoin:miter;stroke-width:2;" x="153.203111" xlink:href="#m1de47ab149" y="69.812807"/>
     <use style="fill:#bfbf00;stroke:#bfbf00;stroke-linejoin:miter;stroke-width:2;" x="167.85602" xlink:href="#m1de47ab149" y="69.812807"/>
     <use style="fill:#bfbf00;stroke:#bfbf00;stroke-linejoin:miter;stroke-width:2;" x="167.85602" xlink:href="#m1de47ab149" y="69.420833"/>
     <use style="fill:#bfbf00;stroke:#bfbf00;stroke-linejoin:miter;stroke-width:2;" x="153.203111" xlink:href="#m1de47ab149" y="69.420833"/>
     <use style="fill:#bfbf00;stroke:#bfbf00;stroke-linejoin:miter;stroke-width:2;" x="153.203111" xlink:href="#m1de47ab149" y="69.812807"/>
    </g>
   </g>
   <g id="line2d_121">
    <path clip-path="url(#p2deb27a811)" d="M 153.203111 69.733392 
L 167.85602 69.733392 
" style="fill:none;stroke:#bfbf00;stroke-linecap:square;stroke-width:2;"/>
   </g>
   <g id="line2d_122">
    <path clip-path="url(#p2deb27a811)" d="M 244.543579 66.651522 
L 249.672097 66.602771 
L 244.543579 66.516029 
L 259.196488 66.516029 
L 254.06797 66.602771 
L 259.196488 66.651522 
L 244.543579 66.651522 
" style="fill:none;stroke:#bfbf00;stroke-linecap:square;"/>
   </g>
   <g id="line2d_123">
    <path clip-path="url(#p2deb27a811)" d="M 244.543579 66.651522 
L 259.196488 66.651522 
L 259.196488 66.516029 
L 244.543579 66.516029 
L 244.543579 66.651522 
" style="fill:none;"/>
    <g clip-path="url(#p2deb27a811)">
     <use style="fill:#bfbf00;stroke:#bfbf00;stroke-linejoin:miter;stroke-width:2;" x="244.543579" xlink:href="#m1de47ab149" y="66.651522"/>
     <use style="fill:#bfbf00;stroke:#bfbf00;stroke-linejoin:miter;stroke-width:2;" x="259.196488" xlink:href="#m1de47ab149" y="66.651522"/>
     <use style="fill:#bfbf00;stroke:#bfbf00;stroke-linejoin:miter;stroke-width:2;" x="259.196488" xlink:href="#m1de47ab149" y="66.516029"/>
     <use style="fill:#bfbf00;stroke:#bfbf00;stroke-linejoin:miter;stroke-width:2;" x="244.543579" xlink:href="#m1de47ab149" y="66.516029"/>
     <use style="fill:#bfbf00;stroke:#bfbf00;stroke-linejoin:miter;stroke-width:2;" x="244.543579" xlink:href="#m1de47ab149" y="66.651522"/>
    </g>
   </g>
   <g id="line2d_124">
    <path clip-path="url(#p2deb27a811)" d="M 244.543579 66.602771 
L 259.196488 66.602771 
" style="fill:none;stroke:#bfbf00;stroke-linecap:square;stroke-width:2;"/>
   </g>
   <g id="line2d_125">
    <path clip-path="url(#p2deb27a811)" d="M 39.784034 90.648707 
L 93.214783 75.816266 
" style="fill:none;stroke:#bfbf00;stroke-linecap:square;stroke-width:4;"/>
   </g>
   <g id="line2d_126">
    <path clip-path="url(#p2deb27a811)" d="M 93.214783 75.816266 
L 160.529565 69.581945 
" style="fill:none;stroke:#bfbf00;stroke-linecap:square;stroke-width:4;"/>
   </g>
   <g id="line2d_127">
    <path clip-path="url(#p2deb27a811)" d="M 160.529565 69.581945 
L 251.870034 66.50596 
" style="fill:none;stroke:#bfbf00;stroke-linecap:square;stroke-width:4;"/>
   </g>
   <g id="line2d_128">
    <path clip-path="url(#p2deb27a811)" d="M 39.784034 90.648707 
L 93.214783 75.816266 
L 160.529565 69.581945 
L 251.870034 66.50596 
" style="fill:none;"/>
    <defs>
     <path d="M 0 -10 
L -10 10 
L 10 10 
z
" id="m4cb181624d" style="stroke:#000000;stroke-linejoin:miter;stroke-width:2;"/>
    </defs>
    <g clip-path="url(#p2deb27a811)">
     <use style="fill:#bfbf00;stroke:#000000;stroke-linejoin:miter;stroke-width:2;" x="39.784034" xlink:href="#m4cb181624d" y="90.648707"/>
     <use style="fill:#bfbf00;stroke:#000000;stroke-linejoin:miter;stroke-width:2;" x="93.214783" xlink:href="#m4cb181624d" y="75.816266"/>
     <use style="fill:#bfbf00;stroke:#000000;stroke-linejoin:miter;stroke-width:2;" x="160.529565" xlink:href="#m4cb181624d" y="69.581945"/>
     <use style="fill:#bfbf00;stroke:#000000;stroke-linejoin:miter;stroke-width:2;" x="251.870034" xlink:href="#m4cb181624d" y="66.50596"/>
    </g>
   </g>
   <g id="line2d_129">
    <path clip-path="url(#p2deb27a811)" d="M 31.410943 74.284012 
L 37.272107 73.862703 
L 31.410943 73.805966 
L 48.157125 73.805966 
L 42.295961 73.862703 
L 48.157125 74.284012 
L 31.410943 74.284012 
" style="fill:none;stroke:#bf00bf;stroke-linecap:square;"/>
   </g>
   <g id="line2d_130">
    <path clip-path="url(#p2deb27a811)" d="M 31.410943 74.284012 
L 48.157125 74.284012 
L 48.157125 73.805966 
L 31.410943 73.805966 
L 31.410943 74.284012 
" style="fill:none;"/>
    <defs>
     <path d="M 0 1.5 
C 0.397805 1.5 0.77937 1.341951 1.06066 1.06066 
C 1.341951 0.77937 1.5 0.397805 1.5 0 
C 1.5 -0.397805 1.341951 -0.77937 1.06066 -1.06066 
C 0.77937 -1.341951 0.397805 -1.5 0 -1.5 
C -0.397805 -1.5 -0.77937 -1.341951 -1.06066 -1.06066 
C -1.341951 -0.77937 -1.5 -0.397805 -1.5 0 
C -1.5 0.397805 -1.341951 0.77937 -1.06066 1.06066 
C -0.77937 1.341951 -0.397805 1.5 0 1.5 
z
" id="mb91d7b8e3c" style="stroke:#bf00bf;"/>
    </defs>
    <g clip-path="url(#p2deb27a811)">
     <use style="fill:#bf00bf;stroke:#bf00bf;" x="31.410943" xlink:href="#mb91d7b8e3c" y="74.284012"/>
     <use style="fill:#bf00bf;stroke:#bf00bf;" x="48.157125" xlink:href="#mb91d7b8e3c" y="74.284012"/>
     <use style="fill:#bf00bf;stroke:#bf00bf;" x="48.157125" xlink:href="#mb91d7b8e3c" y="73.805966"/>
     <use style="fill:#bf00bf;stroke:#bf00bf;" x="31.410943" xlink:href="#mb91d7b8e3c" y="73.805966"/>
     <use style="fill:#bf00bf;stroke:#bf00bf;" x="31.410943" xlink:href="#mb91d7b8e3c" y="74.284012"/>
    </g>
   </g>
   <g id="line2d_131">
    <path clip-path="url(#p2deb27a811)" d="M 31.410943 73.862703 
L 48.157125 73.862703 
" style="fill:none;stroke:#bf00bf;stroke-linecap:square;stroke-width:2;"/>
   </g>
   <g id="line2d_132">
    <path clip-path="url(#p2deb27a811)" d="M 84.841692 61.290407 
L 90.702855 61.165615 
L 84.841692 60.98892 
L 101.587873 60.98892 
L 95.72671 61.165615 
L 101.587873 61.290407 
L 84.841692 61.290407 
" style="fill:none;stroke:#bf00bf;stroke-linecap:square;"/>
   </g>
   <g id="line2d_133">
    <path clip-path="url(#p2deb27a811)" d="M 84.841692 61.290407 
L 101.587873 61.290407 
L 101.587873 60.98892 
L 84.841692 60.98892 
L 84.841692 61.290407 
" style="fill:none;"/>
    <g clip-path="url(#p2deb27a811)">
     <use style="fill:#bf00bf;stroke:#bf00bf;" x="84.841692" xlink:href="#mb91d7b8e3c" y="61.290407"/>
     <use style="fill:#bf00bf;stroke:#bf00bf;" x="101.587873" xlink:href="#mb91d7b8e3c" y="61.290407"/>
     <use style="fill:#bf00bf;stroke:#bf00bf;" x="101.587873" xlink:href="#mb91d7b8e3c" y="60.98892"/>
     <use style="fill:#bf00bf;stroke:#bf00bf;" x="84.841692" xlink:href="#mb91d7b8e3c" y="60.98892"/>
     <use style="fill:#bf00bf;stroke:#bf00bf;" x="84.841692" xlink:href="#mb91d7b8e3c" y="61.290407"/>
    </g>
   </g>
   <g id="line2d_134">
    <path clip-path="url(#p2deb27a811)" d="M 84.841692 61.165615 
L 101.587873 61.165615 
" style="fill:none;stroke:#bf00bf;stroke-linecap:square;stroke-width:2;"/>
   </g>
   <g id="line2d_135">
    <path clip-path="url(#p2deb27a811)" d="M 152.156474 55.979199 
L 158.017638 55.919611 
L 152.156474 55.899055 
L 168.902656 55.899055 
L 163.041493 55.919611 
L 168.902656 55.979199 
L 152.156474 55.979199 
" style="fill:none;stroke:#bf00bf;stroke-linecap:square;"/>
   </g>
   <g id="line2d_136">
    <path clip-path="url(#p2deb27a811)" d="M 152.156474 55.979199 
L 168.902656 55.979199 
L 168.902656 55.899055 
L 152.156474 55.899055 
L 152.156474 55.979199 
" style="fill:none;"/>
    <g clip-path="url(#p2deb27a811)">
     <use style="fill:#bf00bf;stroke:#bf00bf;" x="152.156474" xlink:href="#mb91d7b8e3c" y="55.979199"/>
     <use style="fill:#bf00bf;stroke:#bf00bf;" x="168.902656" xlink:href="#mb91d7b8e3c" y="55.979199"/>
     <use style="fill:#bf00bf;stroke:#bf00bf;" x="168.902656" xlink:href="#mb91d7b8e3c" y="55.899055"/>
     <use style="fill:#bf00bf;stroke:#bf00bf;" x="152.156474" xlink:href="#mb91d7b8e3c" y="55.899055"/>
     <use style="fill:#bf00bf;stroke:#bf00bf;" x="152.156474" xlink:href="#mb91d7b8e3c" y="55.979199"/>
    </g>
   </g>
   <g id="line2d_137">
    <path clip-path="url(#p2deb27a811)" d="M 152.156474 55.919611 
L 168.902656 55.919611 
" style="fill:none;stroke:#bf00bf;stroke-linecap:square;stroke-width:2;"/>
   </g>
   <g id="line2d_138">
    <path clip-path="url(#p2deb27a811)" d="M 39.784034 74.05994 
L 93.214783 61.102032 
" style="fill:none;stroke:#bf00bf;stroke-linecap:square;stroke-width:4;"/>
   </g>
   <g id="line2d_139">
    <path clip-path="url(#p2deb27a811)" d="M 93.214783 61.102032 
L 160.529565 55.900122 
" style="fill:none;stroke:#bf00bf;stroke-linecap:square;stroke-width:4;"/>
   </g>
   <g id="line2d_140">
    <path clip-path="url(#p2deb27a811)" d="M 39.784034 74.05994 
L 93.214783 61.102032 
L 160.529565 55.900122 
" style="fill:none;"/>
    <defs>
     <path d="M 0 5 
C 1.326016 5 2.597899 4.473168 3.535534 3.535534 
C 4.473168 2.597899 5 1.326016 5 0 
C 5 -1.326016 4.473168 -2.597899 3.535534 -3.535534 
C 2.597899 -4.473168 1.326016 -5 0 -5 
C -1.326016 -5 -2.597899 -4.473168 -3.535534 -3.535534 
C -4.473168 -2.597899 -5 -1.326016 -5 0 
C -5 1.326016 -4.473168 2.597899 -3.535534 3.535534 
C -2.597899 4.473168 -1.326016 5 0 5 
z
" id="m1eb7788af6" style="stroke:#bf00bf;"/>
    </defs>
    <g clip-path="url(#p2deb27a811)">
     <use style="fill:#bf00bf;stroke:#bf00bf;" x="39.784034" xlink:href="#m1eb7788af6" y="74.05994"/>
     <use style="fill:#bf00bf;stroke:#bf00bf;" x="93.214783" xlink:href="#m1eb7788af6" y="61.102032"/>
     <use style="fill:#bf00bf;stroke:#bf00bf;" x="160.529565" xlink:href="#m1eb7788af6" y="55.900122"/>
    </g>
   </g>
   <g id="line2d_141">
    <path clip-path="url(#p2deb27a811)" d="M 30.364307 62.308129 
L 36.958116 62.007741 
L 30.364307 61.750452 
L 49.203761 61.750452 
L 42.609952 62.007741 
L 49.203761 62.308129 
L 30.364307 62.308129 
" style="fill:none;stroke:#ff0000;stroke-linecap:square;"/>
   </g>
   <g id="line2d_142">
    <path clip-path="url(#p2deb27a811)" d="M 30.364307 62.308129 
L 49.203761 62.308129 
L 49.203761 61.750452 
L 30.364307 61.750452 
L 30.364307 62.308129 
" style="fill:none;"/>
    <defs>
     <path d="M 0 3 
C 0.795609 3 1.55874 2.683901 2.12132 2.12132 
C 2.683901 1.55874 3 0.795609 3 0 
C 3 -0.795609 2.683901 -1.55874 2.12132 -2.12132 
C 1.55874 -2.683901 0.795609 -3 0 -3 
C -0.795609 -3 -1.55874 -2.683901 -2.12132 -2.12132 
C -2.683901 -1.55874 -3 -0.795609 -3 0 
C -3 0.795609 -2.683901 1.55874 -2.12132 2.12132 
C -1.55874 2.683901 -0.795609 3 0 3 
z
" id="m42efa2468b" style="stroke:#ff0000;stroke-width:2;"/>
    </defs>
    <g clip-path="url(#p2deb27a811)">
     <use style="fill:#ff0000;stroke:#ff0000;stroke-width:2;" x="30.364307" xlink:href="#m42efa2468b" y="62.308129"/>
     <use style="fill:#ff0000;stroke:#ff0000;stroke-width:2;" x="49.203761" xlink:href="#m42efa2468b" y="62.308129"/>
     <use style="fill:#ff0000;stroke:#ff0000;stroke-width:2;" x="49.203761" xlink:href="#m42efa2468b" y="61.750452"/>
     <use style="fill:#ff0000;stroke:#ff0000;stroke-width:2;" x="30.364307" xlink:href="#m42efa2468b" y="61.750452"/>
     <use style="fill:#ff0000;stroke:#ff0000;stroke-width:2;" x="30.364307" xlink:href="#m42efa2468b" y="62.308129"/>
    </g>
   </g>
   <g id="line2d_143">
    <path clip-path="url(#p2deb27a811)" d="M 30.364307 62.007741 
L 49.203761 62.007741 
" style="fill:none;stroke:#ff0000;stroke-linecap:square;stroke-width:2;"/>
   </g>
   <g id="line2d_144">
    <path clip-path="url(#p2deb27a811)" d="M 83.795055 49.47524 
L 90.388864 49.44445 
L 83.795055 49.176968 
L 102.63451 49.176968 
L 96.040701 49.44445 
L 102.63451 49.47524 
L 83.795055 49.47524 
" style="fill:none;stroke:#ff0000;stroke-linecap:square;"/>
   </g>
   <g id="line2d_145">
    <path clip-path="url(#p2deb27a811)" d="M 83.795055 49.47524 
L 102.63451 49.47524 
L 102.63451 49.176968 
L 83.795055 49.176968 
L 83.795055 49.47524 
" style="fill:none;"/>
    <g clip-path="url(#p2deb27a811)">
     <use style="fill:#ff0000;stroke:#ff0000;stroke-width:2;" x="83.795055" xlink:href="#m42efa2468b" y="49.47524"/>
     <use style="fill:#ff0000;stroke:#ff0000;stroke-width:2;" x="102.63451" xlink:href="#m42efa2468b" y="49.47524"/>
     <use style="fill:#ff0000;stroke:#ff0000;stroke-width:2;" x="102.63451" xlink:href="#m42efa2468b" y="49.176968"/>
     <use style="fill:#ff0000;stroke:#ff0000;stroke-width:2;" x="83.795055" xlink:href="#m42efa2468b" y="49.176968"/>
     <use style="fill:#ff0000;stroke:#ff0000;stroke-width:2;" x="83.795055" xlink:href="#m42efa2468b" y="49.47524"/>
    </g>
   </g>
   <g id="line2d_146">
    <path clip-path="url(#p2deb27a811)" d="M 83.795055 49.44445 
L 102.63451 49.44445 
" style="fill:none;stroke:#ff0000;stroke-linecap:square;stroke-width:2;"/>
   </g>
   <g id="line2d_147">
    <path clip-path="url(#p2deb27a811)" d="M 39.784034 61.996814 
L 93.214783 49.38906 
" style="fill:none;stroke:#ff0000;stroke-linecap:square;stroke-width:4;"/>
   </g>
   <g id="line2d_148">
    <path clip-path="url(#p2deb27a811)" d="M 39.784034 61.996814 
L 93.214783 49.38906 
" style="fill:none;"/>
    <defs>
     <path d="M 0 10 
C 2.652031 10 5.195799 8.946337 7.071068 7.071068 
C 8.946337 5.195799 10 2.652031 10 0 
C 10 -2.652031 8.946337 -5.195799 7.071068 -7.071068 
C 5.195799 -8.946337 2.652031 -10 0 -10 
C -2.652031 -10 -5.195799 -8.946337 -7.071068 -7.071068 
C -8.946337 -5.195799 -10 -2.652031 -10 0 
C -10 2.652031 -8.946337 5.195799 -7.071068 7.071068 
C -5.195799 8.946337 -2.652031 10 0 10 
z
" id="ma964276d58" style="stroke:#000000;stroke-width:2;"/>
    </defs>
    <g clip-path="url(#p2deb27a811)">
     <use style="fill:#ff0000;stroke:#000000;stroke-width:2;" x="39.784034" xlink:href="#ma964276d58" y="61.996814"/>
     <use style="fill:#ff0000;stroke:#000000;stroke-width:2;" x="93.214783" xlink:href="#ma964276d58" y="49.38906"/>
    </g>
   </g>
   <g id="line2d_149"/>
   <g id="line2d_150"/>
   <g id="line2d_151"/>
   <g id="line2d_152"/>
   <g id="line2d_153"/>
   <g id="line2d_154"/>
   <g id="line2d_155"/>
   <g id="line2d_156">
    <defs>
     <path d="M -10 10 
L 10 -10 
M -10 -10 
L 10 10 
" id="mf6671100ae" style="stroke:#ff0000;"/>
    </defs>
    <g clip-path="url(#p2deb27a811)">
     <use style="fill:#ff0000;stroke:#ff0000;" x="39.784034" xlink:href="#mf6671100ae" y="60.865767"/>
     <use style="fill:#ff0000;stroke:#ff0000;" x="93.214783" xlink:href="#mf6671100ae" y="49.133038"/>
     <use style="fill:#ff0000;stroke:#ff0000;" x="160.529565" xlink:href="#mf6671100ae" y="60.215577"/>
     <use style="fill:#ff0000;stroke:#ff0000;" x="251.870034" xlink:href="#mf6671100ae" y="73.952255"/>
     <use style="fill:#ff0000;stroke:#ff0000;" x="343.210502" xlink:href="#mf6671100ae" y="87.688932"/>
     <use style="fill:#ff0000;stroke:#ff0000;" x="434.550971" xlink:href="#mf6671100ae" y="101.42561"/>
    </g>
   </g>
   <g id="line2d_157">
    <path clip-path="url(#p2deb27a811)" d="M 47.402926 346.6 
L 461.8 284.278895 
" style="fill:none;stroke:#000000;stroke-dasharray:0.5,0.825;stroke-dashoffset:0;stroke-width:0.5;"/>
   </g>
   <g id="line2d_158">
    <path clip-path="url(#p2deb27a811)" d="M -1 262.614798 
L 461.8 193.014385 
" style="fill:none;stroke:#000000;stroke-dasharray:0.5,0.825;stroke-dashoffset:0;stroke-width:0.5;"/>
   </g>
   <g id="line2d_159">
    <path clip-path="url(#p2deb27a811)" d="M -1 171.350288 
L 461.8 101.749875 
" style="fill:none;stroke:#000000;stroke-dasharray:0.5,0.825;stroke-dashoffset:0;stroke-width:0.5;"/>
   </g>
   <g id="line2d_160">
    <path clip-path="url(#p2deb27a811)" d="M -1 80.085779 
L 461.8 10.485365 
" style="fill:none;stroke:#000000;stroke-dasharray:0.5,0.825;stroke-dashoffset:0;stroke-width:0.5;"/>
   </g>
   <g id="line2d_161">
    <path clip-path="url(#p2deb27a811)" style="fill:none;stroke:#000000;stroke-dasharray:0.5,0.825;stroke-dashoffset:0;stroke-width:0.5;"/>
   </g>
   <g id="patch_3">
    <path d="M 25.9 311.24 
L 25.9 28.32 
" style="fill:none;stroke:#000000;stroke-linecap:square;stroke-linejoin:miter;stroke-width:0.8;"/>
   </g>
   <g id="patch_4">
    <path d="M 450.072 311.24 
L 450.072 28.32 
" style="fill:none;stroke:#000000;stroke-linecap:square;stroke-linejoin:miter;stroke-width:0.8;"/>
   </g>
   <g id="patch_5">
    <path d="M 25.9 311.24 
L 450.072 311.24 
" style="fill:none;stroke:#000000;stroke-linecap:square;stroke-linejoin:miter;stroke-width:0.8;"/>
   </g>
   <g id="patch_6">
    <path d="M 25.9 28.32 
L 450.072 28.32 
" style="fill:none;stroke:#000000;stroke-linecap:square;stroke-linejoin:miter;stroke-width:0.8;"/>
   </g>
   <g id="text_14">
    <!-- 15 instances -->
    <defs>
     <path id="DejaVuSans-20"/>
     <path d="M 9.421875 54.6875 
L 18.40625 54.6875 
L 18.40625 0 
L 9.421875 0 
z
M 9.421875 75.984375 
L 18.40625 75.984375 
L 18.40625 64.59375 
L 9.421875 64.59375 
z
" id="DejaVuSans-69"/>
     <path d="M 54.890625 33.015625 
L 54.890625 0 
L 45.90625 0 
L 45.90625 32.71875 
Q 45.90625 40.484375 42.875 44.328125 
Q 39.84375 48.1875 33.796875 48.1875 
Q 26.515625 48.1875 22.3125 43.546875 
Q 18.109375 38.921875 18.109375 30.90625 
L 18.109375 0 
L 9.078125 0 
L 9.078125 54.6875 
L 18.109375 54.6875 
L 18.109375 46.1875 
Q 21.34375 51.125 25.703125 53.5625 
Q 30.078125 56 35.796875 56 
Q 45.21875 56 50.046875 50.171875 
Q 54.890625 44.34375 54.890625 33.015625 
z
" id="DejaVuSans-6e"/>
     <path d="M 44.28125 53.078125 
L 44.28125 44.578125 
Q 40.484375 46.53125 36.375 47.5 
Q 32.28125 48.484375 27.875 48.484375 
Q 21.1875 48.484375 17.84375 46.4375 
Q 14.5 44.390625 14.5 40.28125 
Q 14.5 37.15625 16.890625 35.375 
Q 19.28125 33.59375 26.515625 31.984375 
L 29.59375 31.296875 
Q 39.15625 29.25 43.1875 25.515625 
Q 47.21875 21.78125 47.21875 15.09375 
Q 47.21875 7.46875 41.1875 3.015625 
Q 35.15625 -1.421875 24.609375 -1.421875 
Q 20.21875 -1.421875 15.453125 -0.5625 
Q 10.6875 0.296875 5.421875 2 
L 5.421875 11.28125 
Q 10.40625 8.6875 15.234375 7.390625 
Q 20.0625 6.109375 24.8125 6.109375 
Q 31.15625 6.109375 34.5625 8.28125 
Q 37.984375 10.453125 37.984375 14.40625 
Q 37.984375 18.0625 35.515625 20.015625 
Q 33.0625 21.96875 24.703125 23.78125 
L 21.578125 24.515625 
Q 13.234375 26.265625 9.515625 29.90625 
Q 5.8125 33.546875 5.8125 39.890625 
Q 5.8125 47.609375 11.28125 51.796875 
Q 16.75 56 26.8125 56 
Q 31.78125 56 36.171875 55.265625 
Q 40.578125 54.546875 44.28125 53.078125 
z
" id="DejaVuSans-73"/>
     <path d="M 18.3125 70.21875 
L 18.3125 54.6875 
L 36.8125 54.6875 
L 36.8125 47.703125 
L 18.3125 47.703125 
L 18.3125 18.015625 
Q 18.3125 11.328125 20.140625 9.421875 
Q 21.96875 7.515625 27.59375 7.515625 
L 36.8125 7.515625 
L 36.8125 0 
L 27.59375 0 
Q 17.1875 0 13.234375 3.875 
Q 9.28125 7.765625 9.28125 18.015625 
L 9.28125 47.703125 
L 2.6875 47.703125 
L 2.6875 54.6875 
L 9.28125 54.6875 
L 9.28125 70.21875 
z
" id="DejaVuSans-74"/>
     <path d="M 34.28125 27.484375 
Q 23.390625 27.484375 19.1875 25 
Q 14.984375 22.515625 14.984375 16.5 
Q 14.984375 11.71875 18.140625 8.90625 
Q 21.296875 6.109375 26.703125 6.109375 
Q 34.1875 6.109375 38.703125 11.40625 
Q 43.21875 16.703125 43.21875 25.484375 
L 43.21875 27.484375 
z
M 52.203125 31.203125 
L 52.203125 0 
L 43.21875 0 
L 43.21875 8.296875 
Q 40.140625 3.328125 35.546875 0.953125 
Q 30.953125 -1.421875 24.3125 -1.421875 
Q 15.921875 -1.421875 10.953125 3.296875 
Q 6 8.015625 6 15.921875 
Q 6 25.140625 12.171875 29.828125 
Q 18.359375 34.515625 30.609375 34.515625 
L 43.21875 34.515625 
L 43.21875 35.40625 
Q 43.21875 41.609375 39.140625 45 
Q 35.0625 48.390625 27.6875 48.390625 
Q 23 48.390625 18.546875 47.265625 
Q 14.109375 46.140625 10.015625 43.890625 
L 10.015625 52.203125 
Q 14.9375 54.109375 19.578125 55.046875 
Q 24.21875 56 28.609375 56 
Q 40.484375 56 46.34375 49.84375 
Q 52.203125 43.703125 52.203125 31.203125 
z
" id="DejaVuSans-61"/>
     <path d="M 48.78125 52.59375 
L 48.78125 44.1875 
Q 44.96875 46.296875 41.140625 47.34375 
Q 37.3125 48.390625 33.40625 48.390625 
Q 24.65625 48.390625 19.8125 42.84375 
Q 14.984375 37.3125 14.984375 27.296875 
Q 14.984375 17.28125 19.8125 11.734375 
Q 24.65625 6.203125 33.40625 6.203125 
Q 37.3125 6.203125 41.140625 7.25 
Q 44.96875 8.296875 48.78125 10.40625 
L 48.78125 2.09375 
Q 45.015625 0.34375 40.984375 -0.53125 
Q 36.96875 -1.421875 32.421875 -1.421875 
Q 20.0625 -1.421875 12.78125 6.34375 
Q 5.515625 14.109375 5.515625 27.296875 
Q 5.515625 40.671875 12.859375 48.328125 
Q 20.21875 56 33.015625 56 
Q 37.15625 56 41.109375 55.140625 
Q 45.0625 54.296875 48.78125 52.59375 
z
" id="DejaVuSans-63"/>
     <path d="M 56.203125 29.59375 
L 56.203125 25.203125 
L 14.890625 25.203125 
Q 15.484375 15.921875 20.484375 11.0625 
Q 25.484375 6.203125 34.421875 6.203125 
Q 39.59375 6.203125 44.453125 7.46875 
Q 49.3125 8.734375 54.109375 11.28125 
L 54.109375 2.78125 
Q 49.265625 0.734375 44.1875 -0.34375 
Q 39.109375 -1.421875 33.890625 -1.421875 
Q 20.796875 -1.421875 13.15625 6.1875 
Q 5.515625 13.8125 5.515625 26.8125 
Q 5.515625 40.234375 12.765625 48.109375 
Q 20.015625 56 32.328125 56 
Q 43.359375 56 49.78125 48.890625 
Q 56.203125 41.796875 56.203125 29.59375 
z
M 47.21875 32.234375 
Q 47.125 39.59375 43.09375 43.984375 
Q 39.0625 48.390625 32.421875 48.390625 
Q 24.90625 48.390625 20.390625 44.140625 
Q 15.875 39.890625 15.1875 32.171875 
z
" id="DejaVuSans-65"/>
    </defs>
    <g transform="translate(25.9 292.6515)scale(0.14 -0.14)">
     <use xlink:href="#DejaVuSans-31"/>
     <use x="63.623047" xlink:href="#DejaVuSans-35"/>
     <use x="127.246094" xlink:href="#DejaVuSans-20"/>
     <use x="159.033203" xlink:href="#DejaVuSans-69"/>
     <use x="186.816406" xlink:href="#DejaVuSans-6e"/>
     <use x="250.195312" xlink:href="#DejaVuSans-73"/>
     <use x="302.294922" xlink:href="#DejaVuSans-74"/>
     <use x="341.503906" xlink:href="#DejaVuSans-61"/>
     <use x="402.783203" xlink:href="#DejaVuSans-6e"/>
     <use x="466.162109" xlink:href="#DejaVuSans-63"/>
     <use x="521.142578" xlink:href="#DejaVuSans-65"/>
     <use x="582.666016" xlink:href="#DejaVuSans-73"/>
    </g>
    <!-- absolute targets -->
    <defs>
     <path d="M 48.6875 27.296875 
Q 48.6875 37.203125 44.609375 42.84375 
Q 40.53125 48.484375 33.40625 48.484375 
Q 26.265625 48.484375 22.1875 42.84375 
Q 18.109375 37.203125 18.109375 27.296875 
Q 18.109375 17.390625 22.1875 11.75 
Q 26.265625 6.109375 33.40625 6.109375 
Q 40.53125 6.109375 44.609375 11.75 
Q 48.6875 17.390625 48.6875 27.296875 
z
M 18.109375 46.390625 
Q 20.953125 51.265625 25.265625 53.625 
Q 29.59375 56 35.59375 56 
Q 45.5625 56 51.78125 48.09375 
Q 58.015625 40.1875 58.015625 27.296875 
Q 58.015625 14.40625 51.78125 6.484375 
Q 45.5625 -1.421875 35.59375 -1.421875 
Q 29.59375 -1.421875 25.265625 0.953125 
Q 20.953125 3.328125 18.109375 8.203125 
L 18.109375 0 
L 9.078125 0 
L 9.078125 75.984375 
L 18.109375 75.984375 
z
" id="DejaVuSans-62"/>
     <path d="M 30.609375 48.390625 
Q 23.390625 48.390625 19.1875 42.75 
Q 14.984375 37.109375 14.984375 27.296875 
Q 14.984375 17.484375 19.15625 11.84375 
Q 23.34375 6.203125 30.609375 6.203125 
Q 37.796875 6.203125 41.984375 11.859375 
Q 46.1875 17.53125 46.1875 27.296875 
Q 46.1875 37.015625 41.984375 42.703125 
Q 37.796875 48.390625 30.609375 48.390625 
z
M 30.609375 56 
Q 42.328125 56 49.015625 48.375 
Q 55.71875 40.765625 55.71875 27.296875 
Q 55.71875 13.875 49.015625 6.21875 
Q 42.328125 -1.421875 30.609375 -1.421875 
Q 18.84375 -1.421875 12.171875 6.21875 
Q 5.515625 13.875 5.515625 27.296875 
Q 5.515625 40.765625 12.171875 48.375 
Q 18.84375 56 30.609375 56 
z
" id="DejaVuSans-6f"/>
     <path d="M 9.421875 75.984375 
L 18.40625 75.984375 
L 18.40625 0 
L 9.421875 0 
z
" id="DejaVuSans-6c"/>
     <path d="M 8.5 21.578125 
L 8.5 54.6875 
L 17.484375 54.6875 
L 17.484375 21.921875 
Q 17.484375 14.15625 20.5 10.265625 
Q 23.53125 6.390625 29.59375 6.390625 
Q 36.859375 6.390625 41.078125 11.03125 
Q 45.3125 15.671875 45.3125 23.6875 
L 45.3125 54.6875 
L 54.296875 54.6875 
L 54.296875 0 
L 45.3125 0 
L 45.3125 8.40625 
Q 42.046875 3.421875 37.71875 1 
Q 33.40625 -1.421875 27.6875 -1.421875 
Q 18.265625 -1.421875 13.375 4.4375 
Q 8.5 10.296875 8.5 21.578125 
z
M 31.109375 56 
z
" id="DejaVuSans-75"/>
     <path d="M 41.109375 46.296875 
Q 39.59375 47.171875 37.8125 47.578125 
Q 36.03125 48 33.890625 48 
Q 26.265625 48 22.1875 43.046875 
Q 18.109375 38.09375 18.109375 28.8125 
L 18.109375 0 
L 9.078125 0 
L 9.078125 54.6875 
L 18.109375 54.6875 
L 18.109375 46.1875 
Q 20.953125 51.171875 25.484375 53.578125 
Q 30.03125 56 36.53125 56 
Q 37.453125 56 38.578125 55.875 
Q 39.703125 55.765625 41.0625 55.515625 
z
" id="DejaVuSans-72"/>
     <path d="M 45.40625 27.984375 
Q 45.40625 37.75 41.375 43.109375 
Q 37.359375 48.484375 30.078125 48.484375 
Q 22.859375 48.484375 18.828125 43.109375 
Q 14.796875 37.75 14.796875 27.984375 
Q 14.796875 18.265625 18.828125 12.890625 
Q 22.859375 7.515625 30.078125 7.515625 
Q 37.359375 7.515625 41.375 12.890625 
Q 45.40625 18.265625 45.40625 27.984375 
z
M 54.390625 6.78125 
Q 54.390625 -7.171875 48.1875 -13.984375 
Q 42 -20.796875 29.203125 -20.796875 
Q 24.46875 -20.796875 20.265625 -20.09375 
Q 16.0625 -19.390625 12.109375 -17.921875 
L 12.109375 -9.1875 
Q 16.0625 -11.328125 19.921875 -12.34375 
Q 23.78125 -13.375 27.78125 -13.375 
Q 36.625 -13.375 41.015625 -8.765625 
Q 45.40625 -4.15625 45.40625 5.171875 
L 45.40625 9.625 
Q 42.625 4.78125 38.28125 2.390625 
Q 33.9375 0 27.875 0 
Q 17.828125 0 11.671875 7.65625 
Q 5.515625 15.328125 5.515625 27.984375 
Q 5.515625 40.671875 11.671875 48.328125 
Q 17.828125 56 27.875 56 
Q 33.9375 56 38.28125 53.609375 
Q 42.625 51.21875 45.40625 46.390625 
L 45.40625 54.6875 
L 54.390625 54.6875 
z
" id="DejaVuSans-67"/>
    </defs>
    <g transform="translate(25.9 308.328437)scale(0.14 -0.14)">
     <use xlink:href="#DejaVuSans-61"/>
     <use x="61.279297" xlink:href="#DejaVuSans-62"/>
     <use x="124.755859" xlink:href="#DejaVuSans-73"/>
     <use x="176.855469" xlink:href="#DejaVuSans-6f"/>
     <use x="238.037109" xlink:href="#DejaVuSans-6c"/>
     <use x="265.820312" xlink:href="#DejaVuSans-75"/>
     <use x="329.199219" xlink:href="#DejaVuSans-74"/>
     <use x="368.408203" xlink:href="#DejaVuSans-65"/>
     <use x="429.931641" xlink:href="#DejaVuSans-20"/>
     <use x="461.71875" xlink:href="#DejaVuSans-74"/>
     <use x="500.927734" xlink:href="#DejaVuSans-61"/>
     <use x="562.207031" xlink:href="#DejaVuSans-72"/>
     <use x="603.304688" xlink:href="#DejaVuSans-67"/>
     <use x="666.78125" xlink:href="#DejaVuSans-65"/>
     <use x="728.304688" xlink:href="#DejaVuSans-74"/>
     <use x="767.513672" xlink:href="#DejaVuSans-73"/>
    </g>
   </g>
   <g id="text_15">
    <!-- v0.0.0 -->
    <defs>
     <path d="M 2.984375 54.6875 
L 12.5 54.6875 
L 29.59375 8.796875 
L 46.6875 54.6875 
L 56.203125 54.6875 
L 35.6875 0 
L 23.484375 0 
z
" id="DejaVuSans-76"/>
     <path d="M 10.6875 12.40625 
L 21 12.40625 
L 21 0 
L 10.6875 0 
z
" id="DejaVuSans-2e"/>
    </defs>
    <g style="fill:#808080;" transform="translate(222.30475 306.331112)scale(0.1 -0.1)">
     <use xlink:href="#DejaVuSans-76"/>
     <use x="59.179688" xlink:href="#DejaVuSans-30"/>
     <use x="122.802734" xlink:href="#DejaVuSans-2e"/>
     <use x="154.589844" xlink:href="#DejaVuSans-30"/>
     <use x="218.212891" xlink:href="#DejaVuSans-2e"/>
     <use x="250" xlink:href="#DejaVuSans-30"/>
    </g>
   </g>
   <g id="text_16">
    <!-- 8 Rosenbrock original -->
    <defs>
     <path d="M 31.78125 34.625 
Q 24.75 34.625 20.71875 30.859375 
Q 16.703125 27.09375 16.703125 20.515625 
Q 16.703125 13.921875 20.71875 10.15625 
Q 24.75 6.390625 31.78125 6.390625 
Q 38.8125 6.390625 42.859375 10.171875 
Q 46.921875 13.96875 46.921875 20.515625 
Q 46.921875 27.09375 42.890625 30.859375 
Q 38.875 34.625 31.78125 34.625 
z
M 21.921875 38.8125 
Q 15.578125 40.375 12.03125 44.71875 
Q 8.5 49.078125 8.5 55.328125 
Q 8.5 64.0625 14.71875 69.140625 
Q 20.953125 74.21875 31.78125 74.21875 
Q 42.671875 74.21875 48.875 69.140625 
Q 55.078125 64.0625 55.078125 55.328125 
Q 55.078125 49.078125 51.53125 44.71875 
Q 48 40.375 41.703125 38.8125 
Q 48.828125 37.15625 52.796875 32.3125 
Q 56.78125 27.484375 56.78125 20.515625 
Q 56.78125 9.90625 50.3125 4.234375 
Q 43.84375 -1.421875 31.78125 -1.421875 
Q 19.734375 -1.421875 13.25 4.234375 
Q 6.78125 9.90625 6.78125 20.515625 
Q 6.78125 27.484375 10.78125 32.3125 
Q 14.796875 37.15625 21.921875 38.8125 
z
M 18.3125 54.390625 
Q 18.3125 48.734375 21.84375 45.5625 
Q 25.390625 42.390625 31.78125 42.390625 
Q 38.140625 42.390625 41.71875 45.5625 
Q 45.3125 48.734375 45.3125 54.390625 
Q 45.3125 60.0625 41.71875 63.234375 
Q 38.140625 66.40625 31.78125 66.40625 
Q 25.390625 66.40625 21.84375 63.234375 
Q 18.3125 60.0625 18.3125 54.390625 
z
" id="DejaVuSans-38"/>
     <path d="M 44.390625 34.1875 
Q 47.5625 33.109375 50.5625 29.59375 
Q 53.5625 26.078125 56.59375 19.921875 
L 66.609375 0 
L 56 0 
L 46.6875 18.703125 
Q 43.0625 26.03125 39.671875 28.421875 
Q 36.28125 30.8125 30.421875 30.8125 
L 19.671875 30.8125 
L 19.671875 0 
L 9.8125 0 
L 9.8125 72.90625 
L 32.078125 72.90625 
Q 44.578125 72.90625 50.734375 67.671875 
Q 56.890625 62.453125 56.890625 51.90625 
Q 56.890625 45.015625 53.6875 40.46875 
Q 50.484375 35.9375 44.390625 34.1875 
z
M 19.671875 64.796875 
L 19.671875 38.921875 
L 32.078125 38.921875 
Q 39.203125 38.921875 42.84375 42.21875 
Q 46.484375 45.515625 46.484375 51.90625 
Q 46.484375 58.296875 42.84375 61.546875 
Q 39.203125 64.796875 32.078125 64.796875 
z
" id="DejaVuSans-52"/>
     <path d="M 9.078125 75.984375 
L 18.109375 75.984375 
L 18.109375 31.109375 
L 44.921875 54.6875 
L 56.390625 54.6875 
L 27.390625 29.109375 
L 57.625 0 
L 45.90625 0 
L 18.109375 26.703125 
L 18.109375 0 
L 9.078125 0 
z
" id="DejaVuSans-6b"/>
    </defs>
    <g transform="translate(107.51975 22.32)scale(0.24 -0.24)">
     <use xlink:href="#DejaVuSans-38"/>
     <use x="63.623047" xlink:href="#DejaVuSans-20"/>
     <use x="95.410156" xlink:href="#DejaVuSans-52"/>
     <use x="164.830078" xlink:href="#DejaVuSans-6f"/>
     <use x="226.011719" xlink:href="#DejaVuSans-73"/>
     <use x="278.111328" xlink:href="#DejaVuSans-65"/>
     <use x="339.634766" xlink:href="#DejaVuSans-6e"/>
     <use x="403.013672" xlink:href="#DejaVuSans-62"/>
     <use x="466.490234" xlink:href="#DejaVuSans-72"/>
     <use x="507.572266" xlink:href="#DejaVuSans-6f"/>
     <use x="568.753906" xlink:href="#DejaVuSans-63"/>
     <use x="623.734375" xlink:href="#DejaVuSans-6b"/>
     <use x="681.644531" xlink:href="#DejaVuSans-20"/>
     <use x="713.431641" xlink:href="#DejaVuSans-6f"/>
     <use x="774.613281" xlink:href="#DejaVuSans-72"/>
     <use x="815.726562" xlink:href="#DejaVuSans-69"/>
     <use x="843.509766" xlink:href="#DejaVuSans-67"/>
     <use x="906.986328" xlink:href="#DejaVuSans-69"/>
     <use x="934.769531" xlink:href="#DejaVuSans-6e"/>
     <use x="998.148438" xlink:href="#DejaVuSans-61"/>
     <use x="1059.427734" xlink:href="#DejaVuSans-6c"/>
    </g>
   </g>
  </g>
 </g>
 <defs>
  <clipPath id="p2deb27a811">
   <rect height="282.92" width="424.172" x="25.9" y="28.32"/>
  </clipPath>
 </defs>
</svg>
