<?xml version="1.0" encoding="utf-8" standalone="no"?>
<!DOCTYPE svg PUBLIC "-//W3C//DTD SVG 1.1//EN"
  "http://www.w3.org/Graphics/SVG/1.1/DTD/svg11.dtd">
<!-- Created with matplotlib (http://matplotlib.org/) -->
<svg height="345.6pt" version="1.1" viewBox="0 0 460.8 345.6" width="460.8pt" xmlns="http://www.w3.org/2000/svg" xmlns:xlink="http://www.w3.org/1999/xlink">
 <defs>
  <style type="text/css">
*{stroke-linecap:butt;stroke-linejoin:round;}
  </style>
 </defs>
 <g id="figure_1">
  <g id="patch_1">
   <path d="M 0 345.6 
L 460.8 345.6 
L 460.8 0 
L 0 0 
z
" style="fill:#ffffff;"/>
  </g>
  <g id="axes_1">
   <g id="patch_2">
    <path d="M 25.9 311.24 
L 447.692625 311.24 
L 447.692625 28.32 
L 25.9 28.32 
z
" style="fill:#ffffff;"/>
   </g>
   <g id="line2d_1">
    <path clip-path="url(#p17aa8c6989)" d="M 39.706152 204.039835 
L 92.837183 147.105504 
L 159.774366 101.842026 
L 250.602464 67.343368 
L 341.430562 49.823902 
L 432.25866 25.76756 
" style="fill:none;stroke:#f5deb3;stroke-linecap:square;stroke-width:10;"/>
    <defs>
     <path d="M -0 17.67767 
L 10.606602 0 
L 0 -17.67767 
L -10.606602 -0 
z
" id="m19df923827" style="stroke:#000000;stroke-linejoin:miter;"/>
    </defs>
    <g clip-path="url(#p17aa8c6989)">
     <use style="fill:#f5deb3;stroke:#000000;stroke-linejoin:miter;" x="39.706152" xlink:href="#m19df923827" y="204.039835"/>
     <use style="fill:#f5deb3;stroke:#000000;stroke-linejoin:miter;" x="92.837183" xlink:href="#m19df923827" y="147.105504"/>
     <use style="fill:#f5deb3;stroke:#000000;stroke-linejoin:miter;" x="159.774366" xlink:href="#m19df923827" y="101.842026"/>
     <use style="fill:#f5deb3;stroke:#000000;stroke-linejoin:miter;" x="250.602464" xlink:href="#m19df923827" y="67.343368"/>
     <use style="fill:#f5deb3;stroke:#000000;stroke-linejoin:miter;" x="341.430562" xlink:href="#m19df923827" y="49.823902"/>
     <use style="fill:#f5deb3;stroke:#000000;stroke-linejoin:miter;" x="432.25866" xlink:href="#m19df923827" y="25.76756"/>
    </g>
   </g>
   <g id="line2d_2">
    <defs>
     <path d="M -15 0 
L 15 0 
M 0 15 
L 0 -15 
" id="m938d76aa6f" style="stroke:#00bfbf;stroke-width:5;"/>
    </defs>
    <g clip-path="url(#p17aa8c6989)">
     <use style="fill:#00bfbf;stroke:#00bfbf;stroke-width:5;" x="250.602464" xlink:href="#m938d76aa6f" y="127.810141"/>
    </g>
   </g>
   <g id="line2d_3">
    <defs>
     <path d="M -15 0 
L 15 0 
M 0 15 
L 0 -15 
" id="m5c594b7bb6" style="stroke:#ff0000;stroke-width:5;"/>
    </defs>
    <g clip-path="url(#p17aa8c6989)">
     <use style="fill:#ff0000;stroke:#ff0000;stroke-width:5;" x="92.837183" xlink:href="#m5c594b7bb6" y="63.80299"/>
    </g>
   </g>
   <g id="line2d_4">
    <g clip-path="url(#p17aa8c6989)">
     <use style="fill:#00bfbf;stroke:#00bfbf;stroke-width:5;" x="341.430562" xlink:href="#m938d76aa6f" y="136.526599"/>
    </g>
   </g>
   <g id="line2d_5">
    <g clip-path="url(#p17aa8c6989)">
     <use style="fill:#ff0000;stroke:#ff0000;stroke-width:5;" x="159.774366" xlink:href="#m5c594b7bb6" y="66.222953"/>
    </g>
   </g>
   <g id="matplotlib.axis_1">
    <g id="xtick_1">
     <g id="line2d_6">
      <defs>
       <path d="M 0 0 
L 0 3.5 
" id="m8c71c417ca" style="stroke:#000000;stroke-width:0.8;"/>
      </defs>
      <g>
       <use style="stroke:#000000;stroke-width:0.8;" x="39.706152" xlink:href="#m8c71c417ca" y="311.24"/>
      </g>
     </g>
     <g id="text_1">
      <!-- 2 -->
      <defs>
       <path d="M 19.1875 8.296875 
L 53.609375 8.296875 
L 53.609375 0 
L 7.328125 0 
L 7.328125 8.296875 
Q 12.9375 14.109375 22.625 23.890625 
Q 32.328125 33.6875 34.8125 36.53125 
Q 39.546875 41.84375 41.421875 45.53125 
Q 43.3125 49.21875 43.3125 52.78125 
Q 43.3125 58.59375 39.234375 62.25 
Q 35.15625 65.921875 28.609375 65.921875 
Q 23.96875 65.921875 18.8125 64.3125 
Q 13.671875 62.703125 7.8125 59.421875 
L 7.8125 69.390625 
Q 13.765625 71.78125 18.9375 73 
Q 24.125 74.21875 28.421875 74.21875 
Q 39.75 74.21875 46.484375 68.546875 
Q 53.21875 62.890625 53.21875 53.421875 
Q 53.21875 48.921875 51.53125 44.890625 
Q 49.859375 40.875 45.40625 35.40625 
Q 44.1875 33.984375 37.640625 27.21875 
Q 31.109375 20.453125 19.1875 8.296875 
z
" id="DejaVuSans-32"/>
      </defs>
      <g transform="translate(32.071152 336.47625)scale(0.24 -0.24)">
       <use xlink:href="#DejaVuSans-32"/>
      </g>
     </g>
    </g>
    <g id="xtick_2">
     <g id="line2d_7">
      <g>
       <use style="stroke:#000000;stroke-width:0.8;" x="92.837183" xlink:href="#m8c71c417ca" y="311.24"/>
      </g>
     </g>
     <g id="text_2">
      <!-- 3 -->
      <defs>
       <path d="M 40.578125 39.3125 
Q 47.65625 37.796875 51.625 33 
Q 55.609375 28.21875 55.609375 21.1875 
Q 55.609375 10.40625 48.1875 4.484375 
Q 40.765625 -1.421875 27.09375 -1.421875 
Q 22.515625 -1.421875 17.65625 -0.515625 
Q 12.796875 0.390625 7.625 2.203125 
L 7.625 11.71875 
Q 11.71875 9.328125 16.59375 8.109375 
Q 21.484375 6.890625 26.8125 6.890625 
Q 36.078125 6.890625 40.9375 10.546875 
Q 45.796875 14.203125 45.796875 21.1875 
Q 45.796875 27.640625 41.28125 31.265625 
Q 36.765625 34.90625 28.71875 34.90625 
L 20.21875 34.90625 
L 20.21875 43.015625 
L 29.109375 43.015625 
Q 36.375 43.015625 40.234375 45.921875 
Q 44.09375 48.828125 44.09375 54.296875 
Q 44.09375 59.90625 40.109375 62.90625 
Q 36.140625 65.921875 28.71875 65.921875 
Q 24.65625 65.921875 20.015625 65.03125 
Q 15.375 64.15625 9.8125 62.3125 
L 9.8125 71.09375 
Q 15.4375 72.65625 20.34375 73.4375 
Q 25.25 74.21875 29.59375 74.21875 
Q 40.828125 74.21875 47.359375 69.109375 
Q 53.90625 64.015625 53.90625 55.328125 
Q 53.90625 49.265625 50.4375 45.09375 
Q 46.96875 40.921875 40.578125 39.3125 
z
" id="DejaVuSans-33"/>
      </defs>
      <g transform="translate(85.202183 336.47625)scale(0.24 -0.24)">
       <use xlink:href="#DejaVuSans-33"/>
      </g>
     </g>
    </g>
    <g id="xtick_3">
     <g id="line2d_8">
      <g>
       <use style="stroke:#000000;stroke-width:0.8;" x="159.774366" xlink:href="#m8c71c417ca" y="311.24"/>
      </g>
     </g>
     <g id="text_3">
      <!-- 5 -->
      <defs>
       <path d="M 10.796875 72.90625 
L 49.515625 72.90625 
L 49.515625 64.59375 
L 19.828125 64.59375 
L 19.828125 46.734375 
Q 21.96875 47.46875 24.109375 47.828125 
Q 26.265625 48.1875 28.421875 48.1875 
Q 40.625 48.1875 47.75 41.5 
Q 54.890625 34.8125 54.890625 23.390625 
Q 54.890625 11.625 47.5625 5.09375 
Q 40.234375 -1.421875 26.90625 -1.421875 
Q 22.3125 -1.421875 17.546875 -0.640625 
Q 12.796875 0.140625 7.71875 1.703125 
L 7.71875 11.625 
Q 12.109375 9.234375 16.796875 8.0625 
Q 21.484375 6.890625 26.703125 6.890625 
Q 35.15625 6.890625 40.078125 11.328125 
Q 45.015625 15.765625 45.015625 23.390625 
Q 45.015625 31 40.078125 35.4375 
Q 35.15625 39.890625 26.703125 39.890625 
Q 22.75 39.890625 18.8125 39.015625 
Q 14.890625 38.140625 10.796875 36.28125 
z
" id="DejaVuSans-35"/>
      </defs>
      <g transform="translate(152.139366 336.47625)scale(0.24 -0.24)">
       <use xlink:href="#DejaVuSans-35"/>
      </g>
     </g>
    </g>
    <g id="xtick_4">
     <g id="line2d_9">
      <g>
       <use style="stroke:#000000;stroke-width:0.8;" x="250.602464" xlink:href="#m8c71c417ca" y="311.24"/>
      </g>
     </g>
     <g id="text_4">
      <!-- 10 -->
      <defs>
       <path d="M 12.40625 8.296875 
L 28.515625 8.296875 
L 28.515625 63.921875 
L 10.984375 60.40625 
L 10.984375 69.390625 
L 28.421875 72.90625 
L 38.28125 72.90625 
L 38.28125 8.296875 
L 54.390625 8.296875 
L 54.390625 0 
L 12.40625 0 
z
" id="DejaVuSans-31"/>
       <path d="M 31.78125 66.40625 
Q 24.171875 66.40625 20.328125 58.90625 
Q 16.5 51.421875 16.5 36.375 
Q 16.5 21.390625 20.328125 13.890625 
Q 24.171875 6.390625 31.78125 6.390625 
Q 39.453125 6.390625 43.28125 13.890625 
Q 47.125 21.390625 47.125 36.375 
Q 47.125 51.421875 43.28125 58.90625 
Q 39.453125 66.40625 31.78125 66.40625 
z
M 31.78125 74.21875 
Q 44.046875 74.21875 50.515625 64.515625 
Q 56.984375 54.828125 56.984375 36.375 
Q 56.984375 17.96875 50.515625 8.265625 
Q 44.046875 -1.421875 31.78125 -1.421875 
Q 19.53125 -1.421875 13.0625 8.265625 
Q 6.59375 17.96875 6.59375 36.375 
Q 6.59375 54.828125 13.0625 64.515625 
Q 19.53125 74.21875 31.78125 74.21875 
z
" id="DejaVuSans-30"/>
      </defs>
      <g transform="translate(235.332464 336.47625)scale(0.24 -0.24)">
       <use xlink:href="#DejaVuSans-31"/>
       <use x="63.623047" xlink:href="#DejaVuSans-30"/>
      </g>
     </g>
    </g>
    <g id="xtick_5">
     <g id="line2d_10">
      <g>
       <use style="stroke:#000000;stroke-width:0.8;" x="341.430562" xlink:href="#m8c71c417ca" y="311.24"/>
      </g>
     </g>
     <g id="text_5">
      <!-- 20 -->
      <g transform="translate(326.160562 336.47625)scale(0.24 -0.24)">
       <use xlink:href="#DejaVuSans-32"/>
       <use x="63.623047" xlink:href="#DejaVuSans-30"/>
      </g>
     </g>
    </g>
    <g id="xtick_6">
     <g id="line2d_11">
      <g>
       <use style="stroke:#000000;stroke-width:0.8;" x="432.25866" xlink:href="#m8c71c417ca" y="311.24"/>
      </g>
     </g>
     <g id="text_6">
      <!-- 40 -->
      <defs>
       <path d="M 37.796875 64.3125 
L 12.890625 25.390625 
L 37.796875 25.390625 
z
M 35.203125 72.90625 
L 47.609375 72.90625 
L 47.609375 25.390625 
L 58.015625 25.390625 
L 58.015625 17.1875 
L 47.609375 17.1875 
L 47.609375 0 
L 37.796875 0 
L 37.796875 17.1875 
L 4.890625 17.1875 
L 4.890625 26.703125 
z
" id="DejaVuSans-34"/>
      </defs>
      <g transform="translate(416.98866 336.47625)scale(0.24 -0.24)">
       <use xlink:href="#DejaVuSans-34"/>
       <use x="63.623047" xlink:href="#DejaVuSans-30"/>
      </g>
     </g>
    </g>
    <g id="xtick_7">
     <g id="line2d_12">
      <defs>
       <path d="M 0 0 
L 0 2 
" id="mdcd2bfaf9b" style="stroke:#000000;stroke-width:0.6;"/>
      </defs>
      <g>
       <use style="stroke:#000000;stroke-width:0.6;" x="39.706152" xlink:href="#mdcd2bfaf9b" y="311.24"/>
      </g>
     </g>
    </g>
    <g id="xtick_8">
     <g id="line2d_13">
      <g>
       <use style="stroke:#000000;stroke-width:0.6;" x="92.837183" xlink:href="#mdcd2bfaf9b" y="311.24"/>
      </g>
     </g>
    </g>
    <g id="xtick_9">
     <g id="line2d_14">
      <g>
       <use style="stroke:#000000;stroke-width:0.6;" x="130.53425" xlink:href="#mdcd2bfaf9b" y="311.24"/>
      </g>
     </g>
    </g>
    <g id="xtick_10">
     <g id="line2d_15">
      <g>
       <use style="stroke:#000000;stroke-width:0.6;" x="159.774366" xlink:href="#mdcd2bfaf9b" y="311.24"/>
      </g>
     </g>
    </g>
    <g id="xtick_11">
     <g id="line2d_16">
      <g>
       <use style="stroke:#000000;stroke-width:0.6;" x="183.665281" xlink:href="#mdcd2bfaf9b" y="311.24"/>
      </g>
     </g>
    </g>
    <g id="xtick_12">
     <g id="line2d_17">
      <g>
       <use style="stroke:#000000;stroke-width:0.6;" x="203.864762" xlink:href="#mdcd2bfaf9b" y="311.24"/>
      </g>
     </g>
    </g>
    <g id="xtick_13">
     <g id="line2d_18">
      <g>
       <use style="stroke:#000000;stroke-width:0.6;" x="221.362348" xlink:href="#mdcd2bfaf9b" y="311.24"/>
      </g>
     </g>
    </g>
    <g id="xtick_14">
     <g id="line2d_19">
      <g>
       <use style="stroke:#000000;stroke-width:0.6;" x="236.796313" xlink:href="#mdcd2bfaf9b" y="311.24"/>
      </g>
     </g>
    </g>
    <g id="xtick_15">
     <g id="line2d_20">
      <g>
       <use style="stroke:#000000;stroke-width:0.6;" x="341.430562" xlink:href="#mdcd2bfaf9b" y="311.24"/>
      </g>
     </g>
    </g>
    <g id="xtick_16">
     <g id="line2d_21">
      <g>
       <use style="stroke:#000000;stroke-width:0.6;" x="394.561594" xlink:href="#mdcd2bfaf9b" y="311.24"/>
      </g>
     </g>
    </g>
    <g id="xtick_17">
     <g id="line2d_22">
      <g>
       <use style="stroke:#000000;stroke-width:0.6;" x="432.25866" xlink:href="#mdcd2bfaf9b" y="311.24"/>
      </g>
     </g>
    </g>
   </g>
   <g id="matplotlib.axis_2">
    <g id="ytick_1">
     <g id="line2d_23">
      <path clip-path="url(#p17aa8c6989)" d="M 25.9 302.113549 
L 447.692625 302.113549 
" style="fill:none;stroke:#b0b0b0;stroke-linecap:square;stroke-width:0.8;"/>
     </g>
     <g id="line2d_24">
      <defs>
       <path d="M 0 0 
L -3.5 0 
" id="medf3e7ab36" style="stroke:#000000;stroke-width:0.8;"/>
      </defs>
      <g>
       <use style="stroke:#000000;stroke-width:0.8;" x="25.9" xlink:href="#medf3e7ab36" y="302.113549"/>
      </g>
     </g>
     <g id="text_7">
      <!-- 0 -->
      <g transform="translate(3.63 311.231674)scale(0.24 -0.24)">
       <use xlink:href="#DejaVuSans-30"/>
      </g>
     </g>
    </g>
    <g id="ytick_2">
     <g id="line2d_25">
      <path clip-path="url(#p17aa8c6989)" d="M 25.9 256.481294 
L 447.692625 256.481294 
" style="fill:none;stroke:#b0b0b0;stroke-linecap:square;stroke-width:0.8;"/>
     </g>
     <g id="line2d_26">
      <g>
       <use style="stroke:#000000;stroke-width:0.8;" x="25.9" xlink:href="#medf3e7ab36" y="256.481294"/>
      </g>
     </g>
     <g id="text_8">
      <!-- 1 -->
      <g transform="translate(3.63 265.599419)scale(0.24 -0.24)">
       <use xlink:href="#DejaVuSans-31"/>
      </g>
     </g>
    </g>
    <g id="ytick_3">
     <g id="line2d_27">
      <path clip-path="url(#p17aa8c6989)" d="M 25.9 210.849039 
L 447.692625 210.849039 
" style="fill:none;stroke:#b0b0b0;stroke-linecap:square;stroke-width:0.8;"/>
     </g>
     <g id="line2d_28">
      <g>
       <use style="stroke:#000000;stroke-width:0.8;" x="25.9" xlink:href="#medf3e7ab36" y="210.849039"/>
      </g>
     </g>
     <g id="text_9">
      <!-- 2 -->
      <g transform="translate(3.63 219.967164)scale(0.24 -0.24)">
       <use xlink:href="#DejaVuSans-32"/>
      </g>
     </g>
    </g>
    <g id="ytick_4">
     <g id="line2d_29">
      <path clip-path="url(#p17aa8c6989)" d="M 25.9 165.216784 
L 447.692625 165.216784 
" style="fill:none;stroke:#b0b0b0;stroke-linecap:square;stroke-width:0.8;"/>
     </g>
     <g id="line2d_30">
      <g>
       <use style="stroke:#000000;stroke-width:0.8;" x="25.9" xlink:href="#medf3e7ab36" y="165.216784"/>
      </g>
     </g>
     <g id="text_10">
      <!-- 3 -->
      <g transform="translate(3.63 174.334909)scale(0.24 -0.24)">
       <use xlink:href="#DejaVuSans-33"/>
      </g>
     </g>
    </g>
    <g id="ytick_5">
     <g id="line2d_31">
      <path clip-path="url(#p17aa8c6989)" d="M 25.9 119.58453 
L 447.692625 119.58453 
" style="fill:none;stroke:#b0b0b0;stroke-linecap:square;stroke-width:0.8;"/>
     </g>
     <g id="line2d_32">
      <g>
       <use style="stroke:#000000;stroke-width:0.8;" x="25.9" xlink:href="#medf3e7ab36" y="119.58453"/>
      </g>
     </g>
     <g id="text_11">
      <!-- 4 -->
      <g transform="translate(3.63 128.702655)scale(0.24 -0.24)">
       <use xlink:href="#DejaVuSans-34"/>
      </g>
     </g>
    </g>
    <g id="ytick_6">
     <g id="line2d_33">
      <path clip-path="url(#p17aa8c6989)" d="M 25.9 73.952275 
L 447.692625 73.952275 
" style="fill:none;stroke:#b0b0b0;stroke-linecap:square;stroke-width:0.8;"/>
     </g>
     <g id="line2d_34">
      <g>
       <use style="stroke:#000000;stroke-width:0.8;" x="25.9" xlink:href="#medf3e7ab36" y="73.952275"/>
      </g>
     </g>
     <g id="text_12">
      <!-- 5 -->
      <g transform="translate(3.63 83.0704)scale(0.24 -0.24)">
       <use xlink:href="#DejaVuSans-35"/>
      </g>
     </g>
    </g>
    <g id="ytick_7">
     <g id="line2d_35">
      <path clip-path="url(#p17aa8c6989)" d="M 25.9 28.32002 
L 447.692625 28.32002 
" style="fill:none;stroke:#b0b0b0;stroke-linecap:square;stroke-width:0.8;"/>
     </g>
     <g id="line2d_36">
      <g>
       <use style="stroke:#000000;stroke-width:0.8;" x="25.9" xlink:href="#medf3e7ab36" y="28.32002"/>
      </g>
     </g>
     <g id="text_13">
      <!-- 6 -->
      <defs>
       <path d="M 33.015625 40.375 
Q 26.375 40.375 22.484375 35.828125 
Q 18.609375 31.296875 18.609375 23.390625 
Q 18.609375 15.53125 22.484375 10.953125 
Q 26.375 6.390625 33.015625 6.390625 
Q 39.65625 6.390625 43.53125 10.953125 
Q 47.40625 15.53125 47.40625 23.390625 
Q 47.40625 31.296875 43.53125 35.828125 
Q 39.65625 40.375 33.015625 40.375 
z
M 52.59375 71.296875 
L 52.59375 62.3125 
Q 48.875 64.0625 45.09375 64.984375 
Q 41.3125 65.921875 37.59375 65.921875 
Q 27.828125 65.921875 22.671875 59.328125 
Q 17.53125 52.734375 16.796875 39.40625 
Q 19.671875 43.65625 24.015625 45.921875 
Q 28.375 48.1875 33.59375 48.1875 
Q 44.578125 48.1875 50.953125 41.515625 
Q 57.328125 34.859375 57.328125 23.390625 
Q 57.328125 12.15625 50.6875 5.359375 
Q 44.046875 -1.421875 33.015625 -1.421875 
Q 20.359375 -1.421875 13.671875 8.265625 
Q 6.984375 17.96875 6.984375 36.375 
Q 6.984375 53.65625 15.1875 63.9375 
Q 23.390625 74.21875 37.203125 74.21875 
Q 40.921875 74.21875 44.703125 73.484375 
Q 48.484375 72.75 52.59375 71.296875 
z
" id="DejaVuSans-36"/>
      </defs>
      <g transform="translate(3.63 37.438145)scale(0.24 -0.24)">
       <use xlink:href="#DejaVuSans-36"/>
      </g>
     </g>
    </g>
   </g>
   <g id="line2d_37">
    <path clip-path="url(#p17aa8c6989)" d="M 36.583856 302.113549 
L 38.769463 283.954649 
L 36.583856 280.34143 
L 42.828448 280.34143 
L 40.642841 283.954649 
L 42.828448 302.113549 
L 36.583856 302.113549 
" style="fill:none;stroke:#000000;stroke-linecap:square;"/>
   </g>
   <g id="line2d_38">
    <path clip-path="url(#p17aa8c6989)" d="M 36.583856 302.113549 
L 42.828448 302.113549 
L 42.828448 280.34143 
L 36.583856 280.34143 
L 36.583856 302.113549 
" style="fill:none;"/>
    <defs>
     <path d="M 0 3 
C 0.795609 3 1.55874 2.683901 2.12132 2.12132 
C 2.683901 1.55874 3 0.795609 3 0 
C 3 -0.795609 2.683901 -1.55874 2.12132 -2.12132 
C 1.55874 -2.683901 0.795609 -3 0 -3 
C -0.795609 -3 -1.55874 -2.683901 -2.12132 -2.12132 
C -2.683901 -1.55874 -3 -0.795609 -3 0 
C -3 0.795609 -2.683901 1.55874 -2.12132 2.12132 
C -1.55874 2.683901 -0.795609 3 0 3 
z
" id="m6342399aa8" style="stroke:#000000;stroke-width:2;"/>
    </defs>
    <g clip-path="url(#p17aa8c6989)">
     <use style="stroke:#000000;stroke-width:2;" x="36.583856" xlink:href="#m6342399aa8" y="302.113549"/>
     <use style="stroke:#000000;stroke-width:2;" x="42.828448" xlink:href="#m6342399aa8" y="302.113549"/>
     <use style="stroke:#000000;stroke-width:2;" x="42.828448" xlink:href="#m6342399aa8" y="280.34143"/>
     <use style="stroke:#000000;stroke-width:2;" x="36.583856" xlink:href="#m6342399aa8" y="280.34143"/>
     <use style="stroke:#000000;stroke-width:2;" x="36.583856" xlink:href="#m6342399aa8" y="302.113549"/>
    </g>
   </g>
   <g id="line2d_39">
    <path clip-path="url(#p17aa8c6989)" d="M 36.583856 283.954649 
L 42.828448 283.954649 
" style="fill:none;stroke:#000000;stroke-linecap:square;stroke-width:2;"/>
   </g>
   <g id="line2d_40">
    <path clip-path="url(#p17aa8c6989)" d="M 89.714887 310.14899 
L 91.900494 310.14899 
L 89.714887 296.412313 
L 95.959479 296.412313 
L 93.773872 310.14899 
L 95.959479 310.14899 
L 89.714887 310.14899 
" style="fill:none;stroke:#000000;stroke-linecap:square;"/>
   </g>
   <g id="line2d_41">
    <path clip-path="url(#p17aa8c6989)" d="M 89.714887 310.14899 
L 95.959479 310.14899 
L 95.959479 296.412313 
L 89.714887 296.412313 
L 89.714887 310.14899 
" style="fill:none;"/>
    <g clip-path="url(#p17aa8c6989)">
     <use style="stroke:#000000;stroke-width:2;" x="89.714887" xlink:href="#m6342399aa8" y="310.14899"/>
     <use style="stroke:#000000;stroke-width:2;" x="95.959479" xlink:href="#m6342399aa8" y="310.14899"/>
     <use style="stroke:#000000;stroke-width:2;" x="95.959479" xlink:href="#m6342399aa8" y="296.412313"/>
     <use style="stroke:#000000;stroke-width:2;" x="89.714887" xlink:href="#m6342399aa8" y="296.412313"/>
     <use style="stroke:#000000;stroke-width:2;" x="89.714887" xlink:href="#m6342399aa8" y="310.14899"/>
    </g>
   </g>
   <g id="line2d_42">
    <path clip-path="url(#p17aa8c6989)" d="M 89.714887 310.14899 
L 95.959479 310.14899 
" style="fill:none;stroke:#000000;stroke-linecap:square;stroke-width:2;"/>
   </g>
   <g id="line2d_43">
    <path clip-path="url(#p17aa8c6989)" d="M 156.652071 320.272449 
L 158.837678 320.272449 
L 156.652071 320.272449 
L 162.896662 320.272449 
L 160.711055 320.272449 
L 162.896662 320.272449 
L 156.652071 320.272449 
" style="fill:none;stroke:#000000;stroke-linecap:square;"/>
   </g>
   <g id="line2d_44">
    <path clip-path="url(#p17aa8c6989)" d="M 156.652071 320.272449 
L 162.896662 320.272449 
L 162.896662 320.272449 
L 156.652071 320.272449 
L 156.652071 320.272449 
" style="fill:none;"/>
    <g clip-path="url(#p17aa8c6989)">
     <use style="stroke:#000000;stroke-width:2;" x="156.652071" xlink:href="#m6342399aa8" y="320.272449"/>
     <use style="stroke:#000000;stroke-width:2;" x="162.896662" xlink:href="#m6342399aa8" y="320.272449"/>
     <use style="stroke:#000000;stroke-width:2;" x="162.896662" xlink:href="#m6342399aa8" y="320.272449"/>
     <use style="stroke:#000000;stroke-width:2;" x="156.652071" xlink:href="#m6342399aa8" y="320.272449"/>
     <use style="stroke:#000000;stroke-width:2;" x="156.652071" xlink:href="#m6342399aa8" y="320.272449"/>
    </g>
   </g>
   <g id="line2d_45">
    <path clip-path="url(#p17aa8c6989)" d="M 156.652071 320.272449 
L 162.896662 320.272449 
" style="fill:none;stroke:#000000;stroke-linecap:square;stroke-width:2;"/>
   </g>
   <g id="line2d_46">
    <path clip-path="url(#p17aa8c6989)" d="M 247.480168 334.009126 
L 249.665776 302.113549 
L 247.480168 298.50033 
L 253.72476 298.50033 
L 251.539153 302.113549 
L 253.72476 334.009126 
L 247.480168 334.009126 
" style="fill:none;stroke:#000000;stroke-linecap:square;"/>
   </g>
   <g id="line2d_47">
    <path clip-path="url(#p17aa8c6989)" d="M 247.480168 334.009126 
L 253.72476 334.009126 
L 253.72476 298.50033 
L 247.480168 298.50033 
L 247.480168 334.009126 
" style="fill:none;"/>
    <g clip-path="url(#p17aa8c6989)">
     <use style="stroke:#000000;stroke-width:2;" x="247.480168" xlink:href="#m6342399aa8" y="334.009126"/>
     <use style="stroke:#000000;stroke-width:2;" x="253.72476" xlink:href="#m6342399aa8" y="334.009126"/>
     <use style="stroke:#000000;stroke-width:2;" x="253.72476" xlink:href="#m6342399aa8" y="298.50033"/>
     <use style="stroke:#000000;stroke-width:2;" x="247.480168" xlink:href="#m6342399aa8" y="298.50033"/>
     <use style="stroke:#000000;stroke-width:2;" x="247.480168" xlink:href="#m6342399aa8" y="334.009126"/>
    </g>
   </g>
   <g id="line2d_48">
    <path clip-path="url(#p17aa8c6989)" d="M 247.480168 302.113549 
L 253.72476 302.113549 
" style="fill:none;stroke:#000000;stroke-linecap:square;stroke-width:2;"/>
   </g>
   <g id="line2d_49">
    <path clip-path="url(#p17aa8c6989)" d="M 338.61992 346.6 
L 340.493874 339.710363 
L 338.308266 325.973685 
L 344.552858 325.973685 
L 342.367251 339.710363 
L 344.241204 346.6 
" style="fill:none;stroke:#000000;stroke-linecap:square;"/>
   </g>
   <g id="line2d_50">
    <path clip-path="url(#p17aa8c6989)" d="M 344.552858 346.6 
L 344.552858 325.973685 
L 338.308266 325.973685 
L 338.308266 346.6 
" style="fill:none;"/>
    <g clip-path="url(#p17aa8c6989)">
     <use style="stroke:#000000;stroke-width:2;" x="338.308266" xlink:href="#m6342399aa8" y="347.745804"/>
     <use style="stroke:#000000;stroke-width:2;" x="344.552858" xlink:href="#m6342399aa8" y="347.745804"/>
     <use style="stroke:#000000;stroke-width:2;" x="344.552858" xlink:href="#m6342399aa8" y="325.973685"/>
     <use style="stroke:#000000;stroke-width:2;" x="338.308266" xlink:href="#m6342399aa8" y="325.973685"/>
     <use style="stroke:#000000;stroke-width:2;" x="338.308266" xlink:href="#m6342399aa8" y="347.745804"/>
    </g>
   </g>
   <g id="line2d_51">
    <path clip-path="url(#p17aa8c6989)" d="M 338.308266 339.710363 
L 344.552858 339.710363 
" style="fill:none;stroke:#000000;stroke-linecap:square;stroke-width:2;"/>
   </g>
   <g id="line2d_52">
    <path clip-path="url(#p17aa8c6989)" d="M 430.777264 346.6 
L 429.136364 325.973685 
L 435.380956 325.973685 
L 433.740056 346.6 
" style="fill:none;stroke:#000000;stroke-linecap:square;"/>
   </g>
   <g id="line2d_53">
    <path clip-path="url(#p17aa8c6989)" d="M 435.380956 346.6 
L 435.380956 325.973685 
L 429.136364 325.973685 
L 429.136364 346.6 
" style="fill:none;"/>
    <g clip-path="url(#p17aa8c6989)">
     <use style="stroke:#000000;stroke-width:2;" x="429.136364" xlink:href="#m6342399aa8" y="361.482481"/>
     <use style="stroke:#000000;stroke-width:2;" x="435.380956" xlink:href="#m6342399aa8" y="361.482481"/>
     <use style="stroke:#000000;stroke-width:2;" x="435.380956" xlink:href="#m6342399aa8" y="325.973685"/>
     <use style="stroke:#000000;stroke-width:2;" x="429.136364" xlink:href="#m6342399aa8" y="325.973685"/>
     <use style="stroke:#000000;stroke-width:2;" x="429.136364" xlink:href="#m6342399aa8" y="361.482481"/>
    </g>
   </g>
   <g id="line2d_54">
    <path clip-path="url(#p17aa8c6989)" style="fill:none;stroke:#000000;stroke-linecap:square;stroke-width:2;"/>
   </g>
   <g id="line2d_55">
    <path clip-path="url(#p17aa8c6989)" d="M 39.706152 286.48803 
L 92.837183 297.084168 
" style="fill:none;stroke:#000000;stroke-linecap:square;stroke-width:4;"/>
   </g>
   <g id="line2d_56">
    <path clip-path="url(#p17aa8c6989)" d="M 92.837183 297.084168 
L 159.774366 306.535771 
" style="fill:none;stroke:#000000;stroke-linecap:square;stroke-width:4;"/>
   </g>
   <g id="line2d_57">
    <path clip-path="url(#p17aa8c6989)" d="M 159.774366 306.535771 
L 250.602464 306.208196 
" style="fill:none;stroke:#000000;stroke-linecap:square;stroke-width:4;"/>
   </g>
   <g id="line2d_58">
    <path clip-path="url(#p17aa8c6989)" d="M 250.602464 306.208196 
L 341.430562 325.538111 
" style="fill:none;stroke:#000000;stroke-linecap:square;stroke-width:4;"/>
   </g>
   <g id="line2d_59">
    <path clip-path="url(#p17aa8c6989)" d="M 341.430562 325.538111 
L 432.25866 330.954193 
" style="fill:none;stroke:#000000;stroke-linecap:square;stroke-width:4;"/>
   </g>
   <g id="line2d_60">
    <path clip-path="url(#p17aa8c6989)" d="M 39.706152 286.48803 
L 92.837183 297.084168 
L 159.774366 306.535771 
L 250.602464 306.208196 
L 341.430562 325.538111 
L 432.25866 330.954193 
" style="fill:none;"/>
    <defs>
     <path d="M 0 10 
C 2.652031 10 5.195799 8.946337 7.071068 7.071068 
C 8.946337 5.195799 10 2.652031 10 0 
C 10 -2.652031 8.946337 -5.195799 7.071068 -7.071068 
C 5.195799 -8.946337 2.652031 -10 0 -10 
C -2.652031 -10 -5.195799 -8.946337 -7.071068 -7.071068 
C -8.946337 -5.195799 -10 -2.652031 -10 0 
C -10 2.652031 -8.946337 5.195799 -7.071068 7.071068 
C -5.195799 8.946337 -2.652031 10 0 10 
z
" id="md6b65a5cd3" style="stroke:#000000;stroke-width:2;"/>
    </defs>
    <g clip-path="url(#p17aa8c6989)">
     <use style="stroke:#000000;stroke-width:2;" x="39.706152" xlink:href="#md6b65a5cd3" y="286.48803"/>
     <use style="stroke:#000000;stroke-width:2;" x="92.837183" xlink:href="#md6b65a5cd3" y="297.084168"/>
     <use style="stroke:#000000;stroke-width:2;" x="159.774366" xlink:href="#md6b65a5cd3" y="306.535771"/>
     <use style="stroke:#000000;stroke-width:2;" x="250.602464" xlink:href="#md6b65a5cd3" y="306.208196"/>
     <use style="stroke:#000000;stroke-width:2;" x="341.430562" xlink:href="#md6b65a5cd3" y="325.538111"/>
     <use style="stroke:#000000;stroke-width:2;" x="432.25866" xlink:href="#md6b65a5cd3" y="330.954193"/>
    </g>
   </g>
   <g id="line2d_61">
    <path clip-path="url(#p17aa8c6989)" d="M 35.543091 263.54982 
L 38.457234 249.813142 
L 35.543091 239.974837 
L 43.869213 239.974837 
L 40.95507 249.813142 
L 43.869213 263.54982 
L 35.543091 263.54982 
" style="fill:none;stroke:#0000ff;stroke-linecap:square;"/>
   </g>
   <g id="line2d_62">
    <path clip-path="url(#p17aa8c6989)" d="M 35.543091 263.54982 
L 43.869213 263.54982 
L 43.869213 239.974837 
L 35.543091 239.974837 
L 35.543091 263.54982 
" style="fill:none;"/>
    <defs>
     <path d="M 0 1.5 
C 0.397805 1.5 0.77937 1.341951 1.06066 1.06066 
C 1.341951 0.77937 1.5 0.397805 1.5 0 
C 1.5 -0.397805 1.341951 -0.77937 1.06066 -1.06066 
C 0.77937 -1.341951 0.397805 -1.5 0 -1.5 
C -0.397805 -1.5 -0.77937 -1.341951 -1.06066 -1.06066 
C -1.341951 -0.77937 -1.5 -0.397805 -1.5 0 
C -1.5 0.397805 -1.341951 0.77937 -1.06066 1.06066 
C -0.77937 1.341951 -0.397805 1.5 0 1.5 
z
" id="mc1e65e5591" style="stroke:#0000ff;"/>
    </defs>
    <g clip-path="url(#p17aa8c6989)">
     <use style="fill:#0000ff;stroke:#0000ff;" x="35.543091" xlink:href="#mc1e65e5591" y="263.54982"/>
     <use style="fill:#0000ff;stroke:#0000ff;" x="43.869213" xlink:href="#mc1e65e5591" y="263.54982"/>
     <use style="fill:#0000ff;stroke:#0000ff;" x="43.869213" xlink:href="#mc1e65e5591" y="239.974837"/>
     <use style="fill:#0000ff;stroke:#0000ff;" x="35.543091" xlink:href="#mc1e65e5591" y="239.974837"/>
     <use style="fill:#0000ff;stroke:#0000ff;" x="35.543091" xlink:href="#mc1e65e5591" y="263.54982"/>
    </g>
   </g>
   <g id="line2d_63">
    <path clip-path="url(#p17aa8c6989)" d="M 35.543091 249.813142 
L 43.869213 249.813142 
" style="fill:none;stroke:#0000ff;stroke-linecap:square;stroke-width:2;"/>
   </g>
   <g id="line2d_64">
    <path clip-path="url(#p17aa8c6989)" d="M 88.674122 288.376872 
L 91.588265 226.969528 
L 88.674122 226.23816 
L 97.000244 226.23816 
L 94.086102 226.969528 
L 97.000244 288.376872 
L 88.674122 288.376872 
" style="fill:none;stroke:#0000ff;stroke-linecap:square;"/>
   </g>
   <g id="line2d_65">
    <path clip-path="url(#p17aa8c6989)" d="M 88.674122 288.376872 
L 97.000244 288.376872 
L 97.000244 226.23816 
L 88.674122 226.23816 
L 88.674122 288.376872 
" style="fill:none;"/>
    <g clip-path="url(#p17aa8c6989)">
     <use style="fill:#0000ff;stroke:#0000ff;" x="88.674122" xlink:href="#mc1e65e5591" y="288.376872"/>
     <use style="fill:#0000ff;stroke:#0000ff;" x="97.000244" xlink:href="#mc1e65e5591" y="288.376872"/>
     <use style="fill:#0000ff;stroke:#0000ff;" x="97.000244" xlink:href="#mc1e65e5591" y="226.23816"/>
     <use style="fill:#0000ff;stroke:#0000ff;" x="88.674122" xlink:href="#mc1e65e5591" y="226.23816"/>
     <use style="fill:#0000ff;stroke:#0000ff;" x="88.674122" xlink:href="#mc1e65e5591" y="288.376872"/>
    </g>
   </g>
   <g id="line2d_66">
    <path clip-path="url(#p17aa8c6989)" d="M 88.674122 226.969528 
L 97.000244 226.969528 
" style="fill:none;stroke:#0000ff;stroke-linecap:square;stroke-width:2;"/>
   </g>
   <g id="line2d_67">
    <path clip-path="url(#p17aa8c6989)" d="M 155.611305 232.463246 
L 158.525448 204.380063 
L 155.611305 182.164912 
L 163.937428 182.164912 
L 161.023285 204.380063 
L 163.937428 232.463246 
L 155.611305 232.463246 
" style="fill:none;stroke:#0000ff;stroke-linecap:square;"/>
   </g>
   <g id="line2d_68">
    <path clip-path="url(#p17aa8c6989)" d="M 155.611305 232.463246 
L 163.937428 232.463246 
L 163.937428 182.164912 
L 155.611305 182.164912 
L 155.611305 232.463246 
" style="fill:none;"/>
    <g clip-path="url(#p17aa8c6989)">
     <use style="fill:#0000ff;stroke:#0000ff;" x="155.611305" xlink:href="#mc1e65e5591" y="232.463246"/>
     <use style="fill:#0000ff;stroke:#0000ff;" x="163.937428" xlink:href="#mc1e65e5591" y="232.463246"/>
     <use style="fill:#0000ff;stroke:#0000ff;" x="163.937428" xlink:href="#mc1e65e5591" y="182.164912"/>
     <use style="fill:#0000ff;stroke:#0000ff;" x="155.611305" xlink:href="#mc1e65e5591" y="182.164912"/>
     <use style="fill:#0000ff;stroke:#0000ff;" x="155.611305" xlink:href="#mc1e65e5591" y="232.463246"/>
    </g>
   </g>
   <g id="line2d_69">
    <path clip-path="url(#p17aa8c6989)" d="M 155.611305 204.380063 
L 163.937428 204.380063 
" style="fill:none;stroke:#0000ff;stroke-linecap:square;stroke-width:2;"/>
   </g>
   <g id="line2d_70">
    <path clip-path="url(#p17aa8c6989)" d="M 246.439403 146.015616 
L 249.353546 136.784065 
L 246.439403 132.678545 
L 254.765526 132.678545 
L 251.851383 136.784065 
L 254.765526 146.015616 
L 246.439403 146.015616 
" style="fill:none;stroke:#0000ff;stroke-linecap:square;"/>
   </g>
   <g id="line2d_71">
    <path clip-path="url(#p17aa8c6989)" d="M 246.439403 146.015616 
L 254.765526 146.015616 
L 254.765526 132.678545 
L 246.439403 132.678545 
L 246.439403 146.015616 
" style="fill:none;"/>
    <g clip-path="url(#p17aa8c6989)">
     <use style="fill:#0000ff;stroke:#0000ff;" x="246.439403" xlink:href="#mc1e65e5591" y="146.015616"/>
     <use style="fill:#0000ff;stroke:#0000ff;" x="254.765526" xlink:href="#mc1e65e5591" y="146.015616"/>
     <use style="fill:#0000ff;stroke:#0000ff;" x="254.765526" xlink:href="#mc1e65e5591" y="132.678545"/>
     <use style="fill:#0000ff;stroke:#0000ff;" x="246.439403" xlink:href="#mc1e65e5591" y="132.678545"/>
     <use style="fill:#0000ff;stroke:#0000ff;" x="246.439403" xlink:href="#mc1e65e5591" y="146.015616"/>
    </g>
   </g>
   <g id="line2d_72">
    <path clip-path="url(#p17aa8c6989)" d="M 246.439403 136.784065 
L 254.765526 136.784065 
" style="fill:none;stroke:#0000ff;stroke-linecap:square;stroke-width:2;"/>
   </g>
   <g id="line2d_73">
    <path clip-path="url(#p17aa8c6989)" d="M 337.267501 137.843763 
L 340.181644 134.779016 
L 337.267501 129.303889 
L 345.593624 129.303889 
L 342.679481 134.779016 
L 345.593624 137.843763 
L 337.267501 137.843763 
" style="fill:none;stroke:#0000ff;stroke-linecap:square;"/>
   </g>
   <g id="line2d_74">
    <path clip-path="url(#p17aa8c6989)" d="M 337.267501 137.843763 
L 345.593624 137.843763 
L 345.593624 129.303889 
L 337.267501 129.303889 
L 337.267501 137.843763 
" style="fill:none;"/>
    <g clip-path="url(#p17aa8c6989)">
     <use style="fill:#0000ff;stroke:#0000ff;" x="337.267501" xlink:href="#mc1e65e5591" y="137.843763"/>
     <use style="fill:#0000ff;stroke:#0000ff;" x="345.593624" xlink:href="#mc1e65e5591" y="137.843763"/>
     <use style="fill:#0000ff;stroke:#0000ff;" x="345.593624" xlink:href="#mc1e65e5591" y="129.303889"/>
     <use style="fill:#0000ff;stroke:#0000ff;" x="337.267501" xlink:href="#mc1e65e5591" y="129.303889"/>
     <use style="fill:#0000ff;stroke:#0000ff;" x="337.267501" xlink:href="#mc1e65e5591" y="137.843763"/>
    </g>
   </g>
   <g id="line2d_75">
    <path clip-path="url(#p17aa8c6989)" d="M 337.267501 134.779016 
L 345.593624 134.779016 
" style="fill:none;stroke:#0000ff;stroke-linecap:square;stroke-width:2;"/>
   </g>
   <g id="line2d_76">
    <path clip-path="url(#p17aa8c6989)" d="M 428.095599 157.710207 
L 431.009742 151.063875 
L 428.095599 145.716296 
L 436.421721 145.716296 
L 433.507579 151.063875 
L 436.421721 157.710207 
L 428.095599 157.710207 
" style="fill:none;stroke:#0000ff;stroke-linecap:square;"/>
   </g>
   <g id="line2d_77">
    <path clip-path="url(#p17aa8c6989)" d="M 428.095599 157.710207 
L 436.421721 157.710207 
L 436.421721 145.716296 
L 428.095599 145.716296 
L 428.095599 157.710207 
" style="fill:none;"/>
    <g clip-path="url(#p17aa8c6989)">
     <use style="fill:#0000ff;stroke:#0000ff;" x="428.095599" xlink:href="#mc1e65e5591" y="157.710207"/>
     <use style="fill:#0000ff;stroke:#0000ff;" x="436.421721" xlink:href="#mc1e65e5591" y="157.710207"/>
     <use style="fill:#0000ff;stroke:#0000ff;" x="436.421721" xlink:href="#mc1e65e5591" y="145.716296"/>
     <use style="fill:#0000ff;stroke:#0000ff;" x="428.095599" xlink:href="#mc1e65e5591" y="145.716296"/>
     <use style="fill:#0000ff;stroke:#0000ff;" x="428.095599" xlink:href="#mc1e65e5591" y="157.710207"/>
    </g>
   </g>
   <g id="line2d_78">
    <path clip-path="url(#p17aa8c6989)" d="M 428.095599 151.063875 
L 436.421721 151.063875 
" style="fill:none;stroke:#0000ff;stroke-linecap:square;stroke-width:2;"/>
   </g>
   <g id="line2d_79">
    <path clip-path="url(#p17aa8c6989)" d="M 39.706152 255.959742 
L 92.837183 227.832413 
" style="fill:none;stroke:#0000ff;stroke-linecap:square;stroke-width:4;"/>
   </g>
   <g id="line2d_80">
    <path clip-path="url(#p17aa8c6989)" d="M 92.837183 227.832413 
L 159.774366 189.181128 
" style="fill:none;stroke:#0000ff;stroke-linecap:square;stroke-width:4;"/>
   </g>
   <g id="line2d_81">
    <path clip-path="url(#p17aa8c6989)" d="M 159.774366 189.181128 
L 250.602464 137.189796 
" style="fill:none;stroke:#0000ff;stroke-linecap:square;stroke-width:4;"/>
   </g>
   <g id="line2d_82">
    <path clip-path="url(#p17aa8c6989)" d="M 250.602464 137.189796 
L 341.430562 137.754002 
" style="fill:none;stroke:#0000ff;stroke-linecap:square;stroke-width:4;"/>
   </g>
   <g id="line2d_83">
    <path clip-path="url(#p17aa8c6989)" d="M 341.430562 137.754002 
L 432.25866 149.427278 
" style="fill:none;stroke:#0000ff;stroke-linecap:square;stroke-width:4;"/>
   </g>
   <g id="line2d_84">
    <path clip-path="url(#p17aa8c6989)" d="M 39.706152 255.959742 
L 92.837183 227.832413 
L 159.774366 189.181128 
L 250.602464 137.189796 
L 341.430562 137.754002 
L 432.25866 149.427278 
" style="fill:none;"/>
    <defs>
     <path d="M 0 5 
C 1.326016 5 2.597899 4.473168 3.535534 3.535534 
C 4.473168 2.597899 5 1.326016 5 0 
C 5 -1.326016 4.473168 -2.597899 3.535534 -3.535534 
C 2.597899 -4.473168 1.326016 -5 0 -5 
C -1.326016 -5 -2.597899 -4.473168 -3.535534 -3.535534 
C -4.473168 -2.597899 -5 -1.326016 -5 0 
C -5 1.326016 -4.473168 2.597899 -3.535534 3.535534 
C -2.597899 4.473168 -1.326016 5 0 5 
z
" id="md098640ff0" style="stroke:#0000ff;"/>
    </defs>
    <g clip-path="url(#p17aa8c6989)">
     <use style="fill:#0000ff;stroke:#0000ff;" x="39.706152" xlink:href="#md098640ff0" y="255.959742"/>
     <use style="fill:#0000ff;stroke:#0000ff;" x="92.837183" xlink:href="#md098640ff0" y="227.832413"/>
     <use style="fill:#0000ff;stroke:#0000ff;" x="159.774366" xlink:href="#md098640ff0" y="189.181128"/>
     <use style="fill:#0000ff;stroke:#0000ff;" x="250.602464" xlink:href="#md098640ff0" y="137.189796"/>
     <use style="fill:#0000ff;stroke:#0000ff;" x="341.430562" xlink:href="#md098640ff0" y="137.754002"/>
     <use style="fill:#0000ff;stroke:#0000ff;" x="432.25866" xlink:href="#md098640ff0" y="149.427278"/>
    </g>
   </g>
   <g id="line2d_85">
    <path clip-path="url(#p17aa8c6989)" d="M 34.502325 237.545125 
L 38.145004 228.761752 
L 34.502325 219.693484 
L 44.909978 219.693484 
L 41.2673 228.761752 
L 44.909978 237.545125 
L 34.502325 237.545125 
" style="fill:none;stroke:#00bfbf;stroke-linecap:square;"/>
   </g>
   <g id="line2d_86">
    <path clip-path="url(#p17aa8c6989)" d="M 34.502325 237.545125 
L 44.909978 237.545125 
L 44.909978 219.693484 
L 34.502325 219.693484 
L 34.502325 237.545125 
" style="fill:none;"/>
    <defs>
     <path d="M -0 3 
L 3 -3 
L -3 -3 
z
" id="md67c126d83" style="stroke:#00bfbf;stroke-linejoin:miter;stroke-width:2;"/>
    </defs>
    <g clip-path="url(#p17aa8c6989)">
     <use style="fill:#00bfbf;stroke:#00bfbf;stroke-linejoin:miter;stroke-width:2;" x="34.502325" xlink:href="#md67c126d83" y="237.545125"/>
     <use style="fill:#00bfbf;stroke:#00bfbf;stroke-linejoin:miter;stroke-width:2;" x="44.909978" xlink:href="#md67c126d83" y="237.545125"/>
     <use style="fill:#00bfbf;stroke:#00bfbf;stroke-linejoin:miter;stroke-width:2;" x="44.909978" xlink:href="#md67c126d83" y="219.693484"/>
     <use style="fill:#00bfbf;stroke:#00bfbf;stroke-linejoin:miter;stroke-width:2;" x="34.502325" xlink:href="#md67c126d83" y="219.693484"/>
     <use style="fill:#00bfbf;stroke:#00bfbf;stroke-linejoin:miter;stroke-width:2;" x="34.502325" xlink:href="#md67c126d83" y="237.545125"/>
    </g>
   </g>
   <g id="line2d_87">
    <path clip-path="url(#p17aa8c6989)" d="M 34.502325 228.761752 
L 44.909978 228.761752 
" style="fill:none;stroke:#00bfbf;stroke-linecap:square;stroke-width:2;"/>
   </g>
   <g id="line2d_88">
    <path clip-path="url(#p17aa8c6989)" d="M 87.633357 183.244004 
L 91.276035 170.944462 
L 87.633357 152.399517 
L 98.04101 152.399517 
L 94.398331 170.944462 
L 98.04101 183.244004 
L 87.633357 183.244004 
" style="fill:none;stroke:#00bfbf;stroke-linecap:square;"/>
   </g>
   <g id="line2d_89">
    <path clip-path="url(#p17aa8c6989)" d="M 87.633357 183.244004 
L 98.04101 183.244004 
L 98.04101 152.399517 
L 87.633357 152.399517 
L 87.633357 183.244004 
" style="fill:none;"/>
    <g clip-path="url(#p17aa8c6989)">
     <use style="fill:#00bfbf;stroke:#00bfbf;stroke-linejoin:miter;stroke-width:2;" x="87.633357" xlink:href="#md67c126d83" y="183.244004"/>
     <use style="fill:#00bfbf;stroke:#00bfbf;stroke-linejoin:miter;stroke-width:2;" x="98.04101" xlink:href="#md67c126d83" y="183.244004"/>
     <use style="fill:#00bfbf;stroke:#00bfbf;stroke-linejoin:miter;stroke-width:2;" x="98.04101" xlink:href="#md67c126d83" y="152.399517"/>
     <use style="fill:#00bfbf;stroke:#00bfbf;stroke-linejoin:miter;stroke-width:2;" x="87.633357" xlink:href="#md67c126d83" y="152.399517"/>
     <use style="fill:#00bfbf;stroke:#00bfbf;stroke-linejoin:miter;stroke-width:2;" x="87.633357" xlink:href="#md67c126d83" y="183.244004"/>
    </g>
   </g>
   <g id="line2d_90">
    <path clip-path="url(#p17aa8c6989)" d="M 87.633357 170.944462 
L 98.04101 170.944462 
" style="fill:none;stroke:#00bfbf;stroke-linecap:square;stroke-width:2;"/>
   </g>
   <g id="line2d_91">
    <path clip-path="url(#p17aa8c6989)" d="M 154.57054 113.990201 
L 158.213218 59.77931 
L 154.57054 46.342568 
L 164.978193 46.342568 
L 161.335514 59.77931 
L 164.978193 113.990201 
L 154.57054 113.990201 
" style="fill:none;stroke:#00bfbf;stroke-linecap:square;"/>
   </g>
   <g id="line2d_92">
    <path clip-path="url(#p17aa8c6989)" d="M 154.57054 113.990201 
L 164.978193 113.990201 
L 164.978193 46.342568 
L 154.57054 46.342568 
L 154.57054 113.990201 
" style="fill:none;"/>
    <g clip-path="url(#p17aa8c6989)">
     <use style="fill:#00bfbf;stroke:#00bfbf;stroke-linejoin:miter;stroke-width:2;" x="154.57054" xlink:href="#md67c126d83" y="113.990201"/>
     <use style="fill:#00bfbf;stroke:#00bfbf;stroke-linejoin:miter;stroke-width:2;" x="164.978193" xlink:href="#md67c126d83" y="113.990201"/>
     <use style="fill:#00bfbf;stroke:#00bfbf;stroke-linejoin:miter;stroke-width:2;" x="164.978193" xlink:href="#md67c126d83" y="46.342568"/>
     <use style="fill:#00bfbf;stroke:#00bfbf;stroke-linejoin:miter;stroke-width:2;" x="154.57054" xlink:href="#md67c126d83" y="46.342568"/>
     <use style="fill:#00bfbf;stroke:#00bfbf;stroke-linejoin:miter;stroke-width:2;" x="154.57054" xlink:href="#md67c126d83" y="113.990201"/>
    </g>
   </g>
   <g id="line2d_93">
    <path clip-path="url(#p17aa8c6989)" d="M 154.57054 59.77931 
L 164.978193 59.77931 
" style="fill:none;stroke:#00bfbf;stroke-linecap:square;stroke-width:2;"/>
   </g>
   <g id="line2d_94">
    <path clip-path="url(#p17aa8c6989)" d="M 245.398638 131.176038 
L 249.041316 126.403792 
L 245.398638 77.816383 
L 255.806291 77.816383 
L 252.163612 126.403792 
L 255.806291 131.176038 
L 245.398638 131.176038 
" style="fill:none;stroke:#00bfbf;stroke-linecap:square;"/>
   </g>
   <g id="line2d_95">
    <path clip-path="url(#p17aa8c6989)" d="M 245.398638 131.176038 
L 255.806291 131.176038 
L 255.806291 77.816383 
L 245.398638 77.816383 
L 245.398638 131.176038 
" style="fill:none;"/>
    <g clip-path="url(#p17aa8c6989)">
     <use style="fill:#00bfbf;stroke:#00bfbf;stroke-linejoin:miter;stroke-width:2;" x="245.398638" xlink:href="#md67c126d83" y="131.176038"/>
     <use style="fill:#00bfbf;stroke:#00bfbf;stroke-linejoin:miter;stroke-width:2;" x="255.806291" xlink:href="#md67c126d83" y="131.176038"/>
     <use style="fill:#00bfbf;stroke:#00bfbf;stroke-linejoin:miter;stroke-width:2;" x="255.806291" xlink:href="#md67c126d83" y="77.816383"/>
     <use style="fill:#00bfbf;stroke:#00bfbf;stroke-linejoin:miter;stroke-width:2;" x="245.398638" xlink:href="#md67c126d83" y="77.816383"/>
     <use style="fill:#00bfbf;stroke:#00bfbf;stroke-linejoin:miter;stroke-width:2;" x="245.398638" xlink:href="#md67c126d83" y="131.176038"/>
    </g>
   </g>
   <g id="line2d_96">
    <path clip-path="url(#p17aa8c6989)" d="M 245.398638 126.403792 
L 255.806291 126.403792 
" style="fill:none;stroke:#00bfbf;stroke-linecap:square;stroke-width:2;"/>
   </g>
   <g id="line2d_97">
    <path clip-path="url(#p17aa8c6989)" d="M 336.226736 86.153313 
L 339.869414 62.410857 
L 336.226736 55.459026 
L 346.634389 55.459026 
L 342.99171 62.410857 
L 346.634389 86.153313 
L 336.226736 86.153313 
" style="fill:none;stroke:#00bfbf;stroke-linecap:square;"/>
   </g>
   <g id="line2d_98">
    <path clip-path="url(#p17aa8c6989)" d="M 336.226736 86.153313 
L 346.634389 86.153313 
L 346.634389 55.459026 
L 336.226736 55.459026 
L 336.226736 86.153313 
" style="fill:none;"/>
    <g clip-path="url(#p17aa8c6989)">
     <use style="fill:#00bfbf;stroke:#00bfbf;stroke-linejoin:miter;stroke-width:2;" x="336.226736" xlink:href="#md67c126d83" y="86.153313"/>
     <use style="fill:#00bfbf;stroke:#00bfbf;stroke-linejoin:miter;stroke-width:2;" x="346.634389" xlink:href="#md67c126d83" y="86.153313"/>
     <use style="fill:#00bfbf;stroke:#00bfbf;stroke-linejoin:miter;stroke-width:2;" x="346.634389" xlink:href="#md67c126d83" y="55.459026"/>
     <use style="fill:#00bfbf;stroke:#00bfbf;stroke-linejoin:miter;stroke-width:2;" x="336.226736" xlink:href="#md67c126d83" y="55.459026"/>
     <use style="fill:#00bfbf;stroke:#00bfbf;stroke-linejoin:miter;stroke-width:2;" x="336.226736" xlink:href="#md67c126d83" y="86.153313"/>
    </g>
   </g>
   <g id="line2d_99">
    <path clip-path="url(#p17aa8c6989)" d="M 336.226736 62.410857 
L 346.634389 62.410857 
" style="fill:none;stroke:#00bfbf;stroke-linecap:square;stroke-width:2;"/>
   </g>
   <g id="line2d_100">
    <path clip-path="url(#p17aa8c6989)" d="M 39.706152 218.337208 
L 92.837183 86.898241 
" style="fill:none;stroke:#00bfbf;stroke-linecap:square;stroke-width:4;"/>
   </g>
   <g id="line2d_101">
    <path clip-path="url(#p17aa8c6989)" d="M 92.837183 86.898241 
L 159.774366 78.526423 
" style="fill:none;stroke:#00bfbf;stroke-linecap:square;stroke-width:4;"/>
   </g>
   <g id="line2d_102">
    <path clip-path="url(#p17aa8c6989)" d="M 159.774366 78.526423 
L 250.602464 83.701925 
" style="fill:none;stroke:#00bfbf;stroke-linecap:square;stroke-width:4;"/>
   </g>
   <g id="line2d_103">
    <path clip-path="url(#p17aa8c6989)" d="M 250.602464 83.701925 
L 341.430562 58.77185 
" style="fill:none;stroke:#00bfbf;stroke-linecap:square;stroke-width:4;"/>
   </g>
   <g id="line2d_104">
    <path clip-path="url(#p17aa8c6989)" d="M 39.706152 218.337208 
L 92.837183 86.898241 
L 159.774366 78.526423 
L 250.602464 83.701925 
L 341.430562 58.77185 
" style="fill:none;"/>
    <defs>
     <path d="M -0 10 
L 10 -10 
L -10 -10 
z
" id="m293a8f1e44" style="stroke:#000000;stroke-linejoin:miter;stroke-width:2;"/>
    </defs>
    <g clip-path="url(#p17aa8c6989)">
     <use style="fill:#00bfbf;stroke:#000000;stroke-linejoin:miter;stroke-width:2;" x="39.706152" xlink:href="#m293a8f1e44" y="218.337208"/>
     <use style="fill:#00bfbf;stroke:#000000;stroke-linejoin:miter;stroke-width:2;" x="92.837183" xlink:href="#m293a8f1e44" y="86.898241"/>
     <use style="fill:#00bfbf;stroke:#000000;stroke-linejoin:miter;stroke-width:2;" x="159.774366" xlink:href="#m293a8f1e44" y="78.526423"/>
     <use style="fill:#00bfbf;stroke:#000000;stroke-linejoin:miter;stroke-width:2;" x="250.602464" xlink:href="#m293a8f1e44" y="83.701925"/>
     <use style="fill:#00bfbf;stroke:#000000;stroke-linejoin:miter;stroke-width:2;" x="341.430562" xlink:href="#m293a8f1e44" y="58.77185"/>
    </g>
   </g>
   <g id="line2d_105">
    <path clip-path="url(#p17aa8c6989)" d="M 33.46156 202.421153 
L 37.832774 186.393494 
L 33.46156 156.277442 
L 45.950744 156.277442 
L 41.579529 186.393494 
L 45.950744 202.421153 
L 33.46156 202.421153 
" style="fill:none;stroke:#008000;stroke-linecap:square;"/>
   </g>
   <g id="line2d_106">
    <path clip-path="url(#p17aa8c6989)" d="M 33.46156 202.421153 
L 45.950744 202.421153 
L 45.950744 156.277442 
L 33.46156 156.277442 
L 33.46156 202.421153 
" style="fill:none;"/>
    <defs>
     <path d="M 0 1.5 
C 0.397805 1.5 0.77937 1.341951 1.06066 1.06066 
C 1.341951 0.77937 1.5 0.397805 1.5 0 
C 1.5 -0.397805 1.341951 -0.77937 1.06066 -1.06066 
C 0.77937 -1.341951 0.397805 -1.5 0 -1.5 
C -0.397805 -1.5 -0.77937 -1.341951 -1.06066 -1.06066 
C -1.341951 -0.77937 -1.5 -0.397805 -1.5 0 
C -1.5 0.397805 -1.341951 0.77937 -1.06066 1.06066 
C -0.77937 1.341951 -0.397805 1.5 0 1.5 
z
" id="me0b97b35ef" style="stroke:#008000;"/>
    </defs>
    <g clip-path="url(#p17aa8c6989)">
     <use style="fill:#008000;stroke:#008000;" x="33.46156" xlink:href="#me0b97b35ef" y="202.421153"/>
     <use style="fill:#008000;stroke:#008000;" x="45.950744" xlink:href="#me0b97b35ef" y="202.421153"/>
     <use style="fill:#008000;stroke:#008000;" x="45.950744" xlink:href="#me0b97b35ef" y="156.277442"/>
     <use style="fill:#008000;stroke:#008000;" x="33.46156" xlink:href="#me0b97b35ef" y="156.277442"/>
     <use style="fill:#008000;stroke:#008000;" x="33.46156" xlink:href="#me0b97b35ef" y="202.421153"/>
    </g>
   </g>
   <g id="line2d_107">
    <path clip-path="url(#p17aa8c6989)" d="M 33.46156 186.393494 
L 45.950744 186.393494 
" style="fill:none;stroke:#008000;stroke-linecap:square;stroke-width:2;"/>
   </g>
   <g id="line2d_108">
    <path clip-path="url(#p17aa8c6989)" d="M 86.592591 133.147573 
L 90.963806 128.686622 
L 86.592591 109.629043 
L 99.081775 109.629043 
L 94.710561 128.686622 
L 99.081775 133.147573 
L 86.592591 133.147573 
" style="fill:none;stroke:#008000;stroke-linecap:square;"/>
   </g>
   <g id="line2d_109">
    <path clip-path="url(#p17aa8c6989)" d="M 86.592591 133.147573 
L 99.081775 133.147573 
L 99.081775 109.629043 
L 86.592591 109.629043 
L 86.592591 133.147573 
" style="fill:none;"/>
    <g clip-path="url(#p17aa8c6989)">
     <use style="fill:#008000;stroke:#008000;" x="86.592591" xlink:href="#me0b97b35ef" y="133.147573"/>
     <use style="fill:#008000;stroke:#008000;" x="99.081775" xlink:href="#me0b97b35ef" y="133.147573"/>
     <use style="fill:#008000;stroke:#008000;" x="99.081775" xlink:href="#me0b97b35ef" y="109.629043"/>
     <use style="fill:#008000;stroke:#008000;" x="86.592591" xlink:href="#me0b97b35ef" y="109.629043"/>
     <use style="fill:#008000;stroke:#008000;" x="86.592591" xlink:href="#me0b97b35ef" y="133.147573"/>
    </g>
   </g>
   <g id="line2d_110">
    <path clip-path="url(#p17aa8c6989)" d="M 86.592591 128.686622 
L 99.081775 128.686622 
" style="fill:none;stroke:#008000;stroke-linecap:square;stroke-width:2;"/>
   </g>
   <g id="line2d_111">
    <path clip-path="url(#p17aa8c6989)" d="M 153.529775 116.938524 
L 157.900989 59.614015 
L 153.529775 59.11432 
L 166.018958 59.11432 
L 161.647744 59.614015 
L 166.018958 116.938524 
L 153.529775 116.938524 
" style="fill:none;stroke:#008000;stroke-linecap:square;"/>
   </g>
   <g id="line2d_112">
    <path clip-path="url(#p17aa8c6989)" d="M 153.529775 116.938524 
L 166.018958 116.938524 
L 166.018958 59.11432 
L 153.529775 59.11432 
L 153.529775 116.938524 
" style="fill:none;"/>
    <g clip-path="url(#p17aa8c6989)">
     <use style="fill:#008000;stroke:#008000;" x="153.529775" xlink:href="#me0b97b35ef" y="116.938524"/>
     <use style="fill:#008000;stroke:#008000;" x="166.018958" xlink:href="#me0b97b35ef" y="116.938524"/>
     <use style="fill:#008000;stroke:#008000;" x="166.018958" xlink:href="#me0b97b35ef" y="59.11432"/>
     <use style="fill:#008000;stroke:#008000;" x="153.529775" xlink:href="#me0b97b35ef" y="59.11432"/>
     <use style="fill:#008000;stroke:#008000;" x="153.529775" xlink:href="#me0b97b35ef" y="116.938524"/>
    </g>
   </g>
   <g id="line2d_113">
    <path clip-path="url(#p17aa8c6989)" d="M 153.529775 59.614015 
L 166.018958 59.614015 
" style="fill:none;stroke:#008000;stroke-linecap:square;stroke-width:2;"/>
   </g>
   <g id="line2d_114">
    <path clip-path="url(#p17aa8c6989)" d="M 39.706152 175.709185 
L 92.837183 75.697784 
" style="fill:none;stroke:#008000;stroke-linecap:square;stroke-width:4;"/>
   </g>
   <g id="line2d_115">
    <path clip-path="url(#p17aa8c6989)" d="M 92.837183 75.697784 
L 159.774366 51.654437 
" style="fill:none;stroke:#008000;stroke-linecap:square;stroke-width:4;"/>
   </g>
   <g id="line2d_116">
    <path clip-path="url(#p17aa8c6989)" d="M 39.706152 175.709185 
L 92.837183 75.697784 
L 159.774366 51.654437 
" style="fill:none;"/>
    <defs>
     <path d="M 0 5 
C 1.326016 5 2.597899 4.473168 3.535534 3.535534 
C 4.473168 2.597899 5 1.326016 5 0 
C 5 -1.326016 4.473168 -2.597899 3.535534 -3.535534 
C 2.597899 -4.473168 1.326016 -5 0 -5 
C -1.326016 -5 -2.597899 -4.473168 -3.535534 -3.535534 
C -4.473168 -2.597899 -5 -1.326016 -5 0 
C -5 1.326016 -4.473168 2.597899 -3.535534 3.535534 
C -2.597899 4.473168 -1.326016 5 0 5 
z
" id="m08e9f732cb" style="stroke:#008000;"/>
    </defs>
    <g clip-path="url(#p17aa8c6989)">
     <use style="fill:#008000;stroke:#008000;" x="39.706152" xlink:href="#m08e9f732cb" y="175.709185"/>
     <use style="fill:#008000;stroke:#008000;" x="92.837183" xlink:href="#m08e9f732cb" y="75.697784"/>
     <use style="fill:#008000;stroke:#008000;" x="159.774366" xlink:href="#m08e9f732cb" y="51.654437"/>
    </g>
   </g>
   <g id="line2d_117">
    <path clip-path="url(#p17aa8c6989)" d="M 32.420795 167.064052 
L 37.520545 151.61932 
L 32.420795 146.782359 
L 46.991509 146.782359 
L 41.891759 151.61932 
L 46.991509 167.064052 
L 32.420795 167.064052 
" style="fill:none;stroke:#bfbf00;stroke-linecap:square;"/>
   </g>
   <g id="line2d_118">
    <path clip-path="url(#p17aa8c6989)" d="M 32.420795 167.064052 
L 46.991509 167.064052 
L 46.991509 146.782359 
L 32.420795 146.782359 
L 32.420795 167.064052 
" style="fill:none;"/>
    <defs>
     <path d="M 0 -3 
L -3 3 
L 3 3 
z
" id="m6188d9b429" style="stroke:#bfbf00;stroke-linejoin:miter;stroke-width:2;"/>
    </defs>
    <g clip-path="url(#p17aa8c6989)">
     <use style="fill:#bfbf00;stroke:#bfbf00;stroke-linejoin:miter;stroke-width:2;" x="32.420795" xlink:href="#m6188d9b429" y="167.064052"/>
     <use style="fill:#bfbf00;stroke:#bfbf00;stroke-linejoin:miter;stroke-width:2;" x="46.991509" xlink:href="#m6188d9b429" y="167.064052"/>
     <use style="fill:#bfbf00;stroke:#bfbf00;stroke-linejoin:miter;stroke-width:2;" x="46.991509" xlink:href="#m6188d9b429" y="146.782359"/>
     <use style="fill:#bfbf00;stroke:#bfbf00;stroke-linejoin:miter;stroke-width:2;" x="32.420795" xlink:href="#m6188d9b429" y="146.782359"/>
     <use style="fill:#bfbf00;stroke:#bfbf00;stroke-linejoin:miter;stroke-width:2;" x="32.420795" xlink:href="#m6188d9b429" y="167.064052"/>
    </g>
   </g>
   <g id="line2d_119">
    <path clip-path="url(#p17aa8c6989)" d="M 32.420795 151.61932 
L 46.991509 151.61932 
" style="fill:none;stroke:#bfbf00;stroke-linecap:square;stroke-width:2;"/>
   </g>
   <g id="line2d_120">
    <path clip-path="url(#p17aa8c6989)" d="M 85.551826 134.014942 
L 90.651576 99.585371 
L 85.551826 49.807136 
L 100.12254 49.807136 
L 95.02279 99.585371 
L 100.12254 134.014942 
L 85.551826 134.014942 
" style="fill:none;stroke:#bfbf00;stroke-linecap:square;"/>
   </g>
   <g id="line2d_121">
    <path clip-path="url(#p17aa8c6989)" d="M 85.551826 134.014942 
L 100.12254 134.014942 
L 100.12254 49.807136 
L 85.551826 49.807136 
L 85.551826 134.014942 
" style="fill:none;"/>
    <g clip-path="url(#p17aa8c6989)">
     <use style="fill:#bfbf00;stroke:#bfbf00;stroke-linejoin:miter;stroke-width:2;" x="85.551826" xlink:href="#m6188d9b429" y="134.014942"/>
     <use style="fill:#bfbf00;stroke:#bfbf00;stroke-linejoin:miter;stroke-width:2;" x="100.12254" xlink:href="#m6188d9b429" y="134.014942"/>
     <use style="fill:#bfbf00;stroke:#bfbf00;stroke-linejoin:miter;stroke-width:2;" x="100.12254" xlink:href="#m6188d9b429" y="49.807136"/>
     <use style="fill:#bfbf00;stroke:#bfbf00;stroke-linejoin:miter;stroke-width:2;" x="85.551826" xlink:href="#m6188d9b429" y="49.807136"/>
     <use style="fill:#bfbf00;stroke:#bfbf00;stroke-linejoin:miter;stroke-width:2;" x="85.551826" xlink:href="#m6188d9b429" y="134.014942"/>
    </g>
   </g>
   <g id="line2d_122">
    <path clip-path="url(#p17aa8c6989)" d="M 85.551826 99.585371 
L 100.12254 99.585371 
" style="fill:none;stroke:#bfbf00;stroke-linecap:square;stroke-width:2;"/>
   </g>
   <g id="line2d_123">
    <path clip-path="url(#p17aa8c6989)" d="M 152.489009 123.559979 
L 157.588759 58.947003 
L 152.489009 45.623087 
L 167.059723 45.623087 
L 161.959974 58.947003 
L 167.059723 123.559979 
L 152.489009 123.559979 
" style="fill:none;stroke:#bfbf00;stroke-linecap:square;"/>
   </g>
   <g id="line2d_124">
    <path clip-path="url(#p17aa8c6989)" d="M 152.489009 123.559979 
L 167.059723 123.559979 
L 167.059723 45.623087 
L 152.489009 45.623087 
L 152.489009 123.559979 
" style="fill:none;"/>
    <g clip-path="url(#p17aa8c6989)">
     <use style="fill:#bfbf00;stroke:#bfbf00;stroke-linejoin:miter;stroke-width:2;" x="152.489009" xlink:href="#m6188d9b429" y="123.559979"/>
     <use style="fill:#bfbf00;stroke:#bfbf00;stroke-linejoin:miter;stroke-width:2;" x="167.059723" xlink:href="#m6188d9b429" y="123.559979"/>
     <use style="fill:#bfbf00;stroke:#bfbf00;stroke-linejoin:miter;stroke-width:2;" x="167.059723" xlink:href="#m6188d9b429" y="45.623087"/>
     <use style="fill:#bfbf00;stroke:#bfbf00;stroke-linejoin:miter;stroke-width:2;" x="152.489009" xlink:href="#m6188d9b429" y="45.623087"/>
     <use style="fill:#bfbf00;stroke:#bfbf00;stroke-linejoin:miter;stroke-width:2;" x="152.489009" xlink:href="#m6188d9b429" y="123.559979"/>
    </g>
   </g>
   <g id="line2d_125">
    <path clip-path="url(#p17aa8c6989)" d="M 152.489009 58.947003 
L 167.059723 58.947003 
" style="fill:none;stroke:#bfbf00;stroke-linecap:square;stroke-width:2;"/>
   </g>
   <g id="line2d_126">
    <path clip-path="url(#p17aa8c6989)" d="M 39.706152 148.118402 
L 92.837183 74.049394 
" style="fill:none;stroke:#bfbf00;stroke-linecap:square;stroke-width:4;"/>
   </g>
   <g id="line2d_127">
    <path clip-path="url(#p17aa8c6989)" d="M 92.837183 74.049394 
L 159.774366 51.3196 
" style="fill:none;stroke:#bfbf00;stroke-linecap:square;stroke-width:4;"/>
   </g>
   <g id="line2d_128">
    <path clip-path="url(#p17aa8c6989)" d="M 39.706152 148.118402 
L 92.837183 74.049394 
L 159.774366 51.3196 
" style="fill:none;"/>
    <defs>
     <path d="M 0 -10 
L -10 10 
L 10 10 
z
" id="m2e5ca2f00e" style="stroke:#000000;stroke-linejoin:miter;stroke-width:2;"/>
    </defs>
    <g clip-path="url(#p17aa8c6989)">
     <use style="fill:#bfbf00;stroke:#000000;stroke-linejoin:miter;stroke-width:2;" x="39.706152" xlink:href="#m2e5ca2f00e" y="148.118402"/>
     <use style="fill:#bfbf00;stroke:#000000;stroke-linejoin:miter;stroke-width:2;" x="92.837183" xlink:href="#m2e5ca2f00e" y="74.049394"/>
     <use style="fill:#bfbf00;stroke:#000000;stroke-linejoin:miter;stroke-width:2;" x="159.774366" xlink:href="#m2e5ca2f00e" y="51.3196"/>
    </g>
   </g>
   <g id="line2d_129">
    <path clip-path="url(#p17aa8c6989)" d="M 31.38003 140.732413 
L 37.208315 136.541981 
L 31.38003 92.013811 
L 48.032274 92.013811 
L 42.203989 136.541981 
L 48.032274 140.732413 
L 31.38003 140.732413 
" style="fill:none;stroke:#bf00bf;stroke-linecap:square;"/>
   </g>
   <g id="line2d_130">
    <path clip-path="url(#p17aa8c6989)" d="M 31.38003 140.732413 
L 48.032274 140.732413 
L 48.032274 92.013811 
L 31.38003 92.013811 
L 31.38003 140.732413 
" style="fill:none;"/>
    <defs>
     <path d="M 0 1.5 
C 0.397805 1.5 0.77937 1.341951 1.06066 1.06066 
C 1.341951 0.77937 1.5 0.397805 1.5 0 
C 1.5 -0.397805 1.341951 -0.77937 1.06066 -1.06066 
C 0.77937 -1.341951 0.397805 -1.5 0 -1.5 
C -0.397805 -1.5 -0.77937 -1.341951 -1.06066 -1.06066 
C -1.341951 -0.77937 -1.5 -0.397805 -1.5 0 
C -1.5 0.397805 -1.341951 0.77937 -1.06066 1.06066 
C -0.77937 1.341951 -0.397805 1.5 0 1.5 
z
" id="mba9a9ee258" style="stroke:#bf00bf;"/>
    </defs>
    <g clip-path="url(#p17aa8c6989)">
     <use style="fill:#bf00bf;stroke:#bf00bf;" x="31.38003" xlink:href="#mba9a9ee258" y="140.732413"/>
     <use style="fill:#bf00bf;stroke:#bf00bf;" x="48.032274" xlink:href="#mba9a9ee258" y="140.732413"/>
     <use style="fill:#bf00bf;stroke:#bf00bf;" x="48.032274" xlink:href="#mba9a9ee258" y="92.013811"/>
     <use style="fill:#bf00bf;stroke:#bf00bf;" x="31.38003" xlink:href="#mba9a9ee258" y="92.013811"/>
     <use style="fill:#bf00bf;stroke:#bf00bf;" x="31.38003" xlink:href="#mba9a9ee258" y="140.732413"/>
    </g>
   </g>
   <g id="line2d_131">
    <path clip-path="url(#p17aa8c6989)" d="M 31.38003 136.541981 
L 48.032274 136.541981 
" style="fill:none;stroke:#bf00bf;stroke-linecap:square;stroke-width:2;"/>
   </g>
   <g id="line2d_132">
    <path clip-path="url(#p17aa8c6989)" d="M 84.511061 86.43175 
L 90.339346 84.12534 
L 84.511061 82.44236 
L 101.163306 82.44236 
L 95.33502 84.12534 
L 101.163306 86.43175 
L 84.511061 86.43175 
" style="fill:none;stroke:#bf00bf;stroke-linecap:square;"/>
   </g>
   <g id="line2d_133">
    <path clip-path="url(#p17aa8c6989)" d="M 84.511061 86.43175 
L 101.163306 86.43175 
L 101.163306 82.44236 
L 84.511061 82.44236 
L 84.511061 86.43175 
" style="fill:none;"/>
    <g clip-path="url(#p17aa8c6989)">
     <use style="fill:#bf00bf;stroke:#bf00bf;" x="84.511061" xlink:href="#mba9a9ee258" y="86.43175"/>
     <use style="fill:#bf00bf;stroke:#bf00bf;" x="101.163306" xlink:href="#mba9a9ee258" y="86.43175"/>
     <use style="fill:#bf00bf;stroke:#bf00bf;" x="101.163306" xlink:href="#mba9a9ee258" y="82.44236"/>
     <use style="fill:#bf00bf;stroke:#bf00bf;" x="84.511061" xlink:href="#mba9a9ee258" y="82.44236"/>
     <use style="fill:#bf00bf;stroke:#bf00bf;" x="84.511061" xlink:href="#mba9a9ee258" y="86.43175"/>
    </g>
   </g>
   <g id="line2d_134">
    <path clip-path="url(#p17aa8c6989)" d="M 84.511061 84.12534 
L 101.163306 84.12534 
" style="fill:none;stroke:#bf00bf;stroke-linecap:square;stroke-width:2;"/>
   </g>
   <g id="line2d_135">
    <path clip-path="url(#p17aa8c6989)" d="M 151.448244 59.490666 
L 157.27653 49.771453 
L 151.448244 38.153906 
L 168.100489 38.153906 
L 162.272203 49.771453 
L 168.100489 59.490666 
L 151.448244 59.490666 
" style="fill:none;stroke:#bf00bf;stroke-linecap:square;"/>
   </g>
   <g id="line2d_136">
    <path clip-path="url(#p17aa8c6989)" d="M 151.448244 59.490666 
L 168.100489 59.490666 
L 168.100489 38.153906 
L 151.448244 38.153906 
L 151.448244 59.490666 
" style="fill:none;"/>
    <g clip-path="url(#p17aa8c6989)">
     <use style="fill:#bf00bf;stroke:#bf00bf;" x="151.448244" xlink:href="#mba9a9ee258" y="59.490666"/>
     <use style="fill:#bf00bf;stroke:#bf00bf;" x="168.100489" xlink:href="#mba9a9ee258" y="59.490666"/>
     <use style="fill:#bf00bf;stroke:#bf00bf;" x="168.100489" xlink:href="#mba9a9ee258" y="38.153906"/>
     <use style="fill:#bf00bf;stroke:#bf00bf;" x="151.448244" xlink:href="#mba9a9ee258" y="38.153906"/>
     <use style="fill:#bf00bf;stroke:#bf00bf;" x="151.448244" xlink:href="#mba9a9ee258" y="59.490666"/>
    </g>
   </g>
   <g id="line2d_137">
    <path clip-path="url(#p17aa8c6989)" d="M 151.448244 49.771453 
L 168.100489 49.771453 
" style="fill:none;stroke:#bf00bf;stroke-linecap:square;stroke-width:2;"/>
   </g>
   <g id="line2d_138">
    <path clip-path="url(#p17aa8c6989)" d="M 39.706152 109.715895 
L 92.837183 68.857386 
" style="fill:none;stroke:#bf00bf;stroke-linecap:square;stroke-width:4;"/>
   </g>
   <g id="line2d_139">
    <path clip-path="url(#p17aa8c6989)" d="M 92.837183 68.857386 
L 159.774366 50.239166 
" style="fill:none;stroke:#bf00bf;stroke-linecap:square;stroke-width:4;"/>
   </g>
   <g id="line2d_140">
    <path clip-path="url(#p17aa8c6989)" d="M 39.706152 109.715895 
L 92.837183 68.857386 
L 159.774366 50.239166 
" style="fill:none;"/>
    <defs>
     <path d="M 0 5 
C 1.326016 5 2.597899 4.473168 3.535534 3.535534 
C 4.473168 2.597899 5 1.326016 5 0 
C 5 -1.326016 4.473168 -2.597899 3.535534 -3.535534 
C 2.597899 -4.473168 1.326016 -5 0 -5 
C -1.326016 -5 -2.597899 -4.473168 -3.535534 -3.535534 
C -4.473168 -2.597899 -5 -1.326016 -5 0 
C -5 1.326016 -4.473168 2.597899 -3.535534 3.535534 
C -2.597899 4.473168 -1.326016 5 0 5 
z
" id="m417a4b07db" style="stroke:#bf00bf;"/>
    </defs>
    <g clip-path="url(#p17aa8c6989)">
     <use style="fill:#bf00bf;stroke:#bf00bf;" x="39.706152" xlink:href="#m417a4b07db" y="109.715895"/>
     <use style="fill:#bf00bf;stroke:#bf00bf;" x="92.837183" xlink:href="#m417a4b07db" y="68.857386"/>
     <use style="fill:#bf00bf;stroke:#bf00bf;" x="159.774366" xlink:href="#m417a4b07db" y="50.239166"/>
    </g>
   </g>
   <g id="line2d_141">
    <path clip-path="url(#p17aa8c6989)" d="M 30.339264 74.28502 
L 36.896086 72.843463 
L 30.339264 72.105997 
L 49.07304 72.105997 
L 42.516218 72.843463 
L 49.07304 74.28502 
L 30.339264 74.28502 
" style="fill:none;stroke:#ff0000;stroke-linecap:square;"/>
   </g>
   <g id="line2d_142">
    <path clip-path="url(#p17aa8c6989)" d="M 30.339264 74.28502 
L 49.07304 74.28502 
L 49.07304 72.105997 
L 30.339264 72.105997 
L 30.339264 74.28502 
" style="fill:none;"/>
    <defs>
     <path d="M 0 3 
C 0.795609 3 1.55874 2.683901 2.12132 2.12132 
C 2.683901 1.55874 3 0.795609 3 0 
C 3 -0.795609 2.683901 -1.55874 2.12132 -2.12132 
C 1.55874 -2.683901 0.795609 -3 0 -3 
C -0.795609 -3 -1.55874 -2.683901 -2.12132 -2.12132 
C -2.683901 -1.55874 -3 -0.795609 -3 0 
C -3 0.795609 -2.683901 1.55874 -2.12132 2.12132 
C -1.55874 2.683901 -0.795609 3 0 3 
z
" id="m63feb8f6f1" style="stroke:#ff0000;stroke-width:2;"/>
    </defs>
    <g clip-path="url(#p17aa8c6989)">
     <use style="fill:#ff0000;stroke:#ff0000;stroke-width:2;" x="30.339264" xlink:href="#m63feb8f6f1" y="74.28502"/>
     <use style="fill:#ff0000;stroke:#ff0000;stroke-width:2;" x="49.07304" xlink:href="#m63feb8f6f1" y="74.28502"/>
     <use style="fill:#ff0000;stroke:#ff0000;stroke-width:2;" x="49.07304" xlink:href="#m63feb8f6f1" y="72.105997"/>
     <use style="fill:#ff0000;stroke:#ff0000;stroke-width:2;" x="30.339264" xlink:href="#m63feb8f6f1" y="72.105997"/>
     <use style="fill:#ff0000;stroke:#ff0000;stroke-width:2;" x="30.339264" xlink:href="#m63feb8f6f1" y="74.28502"/>
    </g>
   </g>
   <g id="line2d_143">
    <path clip-path="url(#p17aa8c6989)" d="M 30.339264 72.843463 
L 49.07304 72.843463 
" style="fill:none;stroke:#ff0000;stroke-linecap:square;stroke-width:2;"/>
   </g>
   <g id="line2d_144">
    <path clip-path="url(#p17aa8c6989)" d="M 83.470296 63.778701 
L 90.027117 63.698999 
L 83.470296 41.930044 
L 102.204071 41.930044 
L 95.647249 63.698999 
L 102.204071 63.778701 
L 83.470296 63.778701 
" style="fill:none;stroke:#ff0000;stroke-linecap:square;"/>
   </g>
   <g id="line2d_145">
    <path clip-path="url(#p17aa8c6989)" d="M 83.470296 63.778701 
L 102.204071 63.778701 
L 102.204071 41.930044 
L 83.470296 41.930044 
L 83.470296 63.778701 
" style="fill:none;"/>
    <g clip-path="url(#p17aa8c6989)">
     <use style="fill:#ff0000;stroke:#ff0000;stroke-width:2;" x="83.470296" xlink:href="#m63feb8f6f1" y="63.778701"/>
     <use style="fill:#ff0000;stroke:#ff0000;stroke-width:2;" x="102.204071" xlink:href="#m63feb8f6f1" y="63.778701"/>
     <use style="fill:#ff0000;stroke:#ff0000;stroke-width:2;" x="102.204071" xlink:href="#m63feb8f6f1" y="41.930044"/>
     <use style="fill:#ff0000;stroke:#ff0000;stroke-width:2;" x="83.470296" xlink:href="#m63feb8f6f1" y="41.930044"/>
     <use style="fill:#ff0000;stroke:#ff0000;stroke-width:2;" x="83.470296" xlink:href="#m63feb8f6f1" y="63.778701"/>
    </g>
   </g>
   <g id="line2d_146">
    <path clip-path="url(#p17aa8c6989)" d="M 83.470296 63.698999 
L 102.204071 63.698999 
" style="fill:none;stroke:#ff0000;stroke-linecap:square;stroke-width:2;"/>
   </g>
   <g id="line2d_147">
    <path clip-path="url(#p17aa8c6989)" d="M 150.407479 65.117827 
L 156.9643 37.599325 
L 150.407479 33.816116 
L 169.141254 33.816116 
L 162.584433 37.599325 
L 169.141254 65.117827 
L 150.407479 65.117827 
" style="fill:none;stroke:#ff0000;stroke-linecap:square;"/>
   </g>
   <g id="line2d_148">
    <path clip-path="url(#p17aa8c6989)" d="M 150.407479 65.117827 
L 169.141254 65.117827 
L 169.141254 33.816116 
L 150.407479 33.816116 
L 150.407479 65.117827 
" style="fill:none;"/>
    <g clip-path="url(#p17aa8c6989)">
     <use style="fill:#ff0000;stroke:#ff0000;stroke-width:2;" x="150.407479" xlink:href="#m63feb8f6f1" y="65.117827"/>
     <use style="fill:#ff0000;stroke:#ff0000;stroke-width:2;" x="169.141254" xlink:href="#m63feb8f6f1" y="65.117827"/>
     <use style="fill:#ff0000;stroke:#ff0000;stroke-width:2;" x="169.141254" xlink:href="#m63feb8f6f1" y="33.816116"/>
     <use style="fill:#ff0000;stroke:#ff0000;stroke-width:2;" x="150.407479" xlink:href="#m63feb8f6f1" y="33.816116"/>
     <use style="fill:#ff0000;stroke:#ff0000;stroke-width:2;" x="150.407479" xlink:href="#m63feb8f6f1" y="65.117827"/>
    </g>
   </g>
   <g id="line2d_149">
    <path clip-path="url(#p17aa8c6989)" d="M 150.407479 37.599325 
L 169.141254 37.599325 
" style="fill:none;stroke:#ff0000;stroke-linecap:square;stroke-width:2;"/>
   </g>
   <g id="line2d_150">
    <path clip-path="url(#p17aa8c6989)" d="M 39.706152 74.376809 
L 92.837183 57.15442 
" style="fill:none;stroke:#ff0000;stroke-linecap:square;stroke-width:4;"/>
   </g>
   <g id="line2d_151">
    <path clip-path="url(#p17aa8c6989)" d="M 92.837183 57.15442 
L 159.774366 44.826211 
" style="fill:none;stroke:#ff0000;stroke-linecap:square;stroke-width:4;"/>
   </g>
   <g id="line2d_152">
    <path clip-path="url(#p17aa8c6989)" d="M 39.706152 74.376809 
L 92.837183 57.15442 
L 159.774366 44.826211 
" style="fill:none;"/>
    <defs>
     <path d="M 0 10 
C 2.652031 10 5.195799 8.946337 7.071068 7.071068 
C 8.946337 5.195799 10 2.652031 10 0 
C 10 -2.652031 8.946337 -5.195799 7.071068 -7.071068 
C 5.195799 -8.946337 2.652031 -10 0 -10 
C -2.652031 -10 -5.195799 -8.946337 -7.071068 -7.071068 
C -8.946337 -5.195799 -10 -2.652031 -10 0 
C -10 2.652031 -8.946337 5.195799 -7.071068 7.071068 
C -5.195799 8.946337 -2.652031 10 0 10 
z
" id="m0c0d5c4e1d" style="stroke:#000000;stroke-width:2;"/>
    </defs>
    <g clip-path="url(#p17aa8c6989)">
     <use style="fill:#ff0000;stroke:#000000;stroke-width:2;" x="39.706152" xlink:href="#m0c0d5c4e1d" y="74.376809"/>
     <use style="fill:#ff0000;stroke:#000000;stroke-width:2;" x="92.837183" xlink:href="#m0c0d5c4e1d" y="57.15442"/>
     <use style="fill:#ff0000;stroke:#000000;stroke-width:2;" x="159.774366" xlink:href="#m0c0d5c4e1d" y="44.826211"/>
    </g>
   </g>
   <g id="line2d_153"/>
   <g id="line2d_154"/>
   <g id="line2d_155"/>
   <g id="line2d_156"/>
   <g id="line2d_157"/>
   <g id="line2d_158"/>
   <g id="line2d_159"/>
   <g id="line2d_160">
    <defs>
     <path d="M -10 10 
L 10 -10 
M -10 -10 
L 10 10 
" id="m9c96af8727" style="stroke:#ff0000;"/>
    </defs>
    <g clip-path="url(#p17aa8c6989)">
     <use style="fill:#ff0000;stroke:#ff0000;" x="39.706152" xlink:href="#m9c96af8727" y="70.579813"/>
     <use style="fill:#ff0000;stroke:#ff0000;" x="92.837183" xlink:href="#m9c96af8727" y="50.092119"/>
     <use style="fill:#ff0000;stroke:#ff0000;" x="159.774366" xlink:href="#m9c96af8727" y="60.215577"/>
     <use style="fill:#ff0000;stroke:#ff0000;" x="250.602464" xlink:href="#m9c96af8727" y="73.952255"/>
     <use style="fill:#ff0000;stroke:#ff0000;" x="341.430562" xlink:href="#m9c96af8727" y="87.688932"/>
     <use style="fill:#ff0000;stroke:#ff0000;" x="432.25866" xlink:href="#m9c96af8727" y="101.42561"/>
    </g>
   </g>
   <g id="line2d_161">
    <path clip-path="url(#p17aa8c6989)" d="M 47.282306 346.6 
L 461.8 283.909093 
" style="fill:none;stroke:#000000;stroke-dasharray:0.5,0.825;stroke-dashoffset:0;stroke-width:0.5;"/>
   </g>
   <g id="line2d_162">
    <path clip-path="url(#p17aa8c6989)" d="M -1 262.637619 
L 461.8 192.644583 
" style="fill:none;stroke:#000000;stroke-dasharray:0.5,0.825;stroke-dashoffset:0;stroke-width:0.5;"/>
   </g>
   <g id="line2d_163">
    <path clip-path="url(#p17aa8c6989)" d="M -1 171.373109 
L 461.8 101.380073 
" style="fill:none;stroke:#000000;stroke-dasharray:0.5,0.825;stroke-dashoffset:0;stroke-width:0.5;"/>
   </g>
   <g id="line2d_164">
    <path clip-path="url(#p17aa8c6989)" d="M -1 80.1086 
L 461.8 10.115563 
" style="fill:none;stroke:#000000;stroke-dasharray:0.5,0.825;stroke-dashoffset:0;stroke-width:0.5;"/>
   </g>
   <g id="line2d_165">
    <path clip-path="url(#p17aa8c6989)" style="fill:none;stroke:#000000;stroke-dasharray:0.5,0.825;stroke-dashoffset:0;stroke-width:0.5;"/>
   </g>
   <g id="patch_3">
    <path d="M 25.9 311.24 
L 25.9 28.32 
" style="fill:none;stroke:#000000;stroke-linecap:square;stroke-linejoin:miter;stroke-width:0.8;"/>
   </g>
   <g id="patch_4">
    <path d="M 447.692625 311.24 
L 447.692625 28.32 
" style="fill:none;stroke:#000000;stroke-linecap:square;stroke-linejoin:miter;stroke-width:0.8;"/>
   </g>
   <g id="patch_5">
    <path d="M 25.9 311.24 
L 447.692625 311.24 
" style="fill:none;stroke:#000000;stroke-linecap:square;stroke-linejoin:miter;stroke-width:0.8;"/>
   </g>
   <g id="patch_6">
    <path d="M 25.9 28.32 
L 447.692625 28.32 
" style="fill:none;stroke:#000000;stroke-linecap:square;stroke-linejoin:miter;stroke-width:0.8;"/>
   </g>
   <g id="text_14">
    <!-- 11 -->
    <g transform="translate(237.622964 71.423922)scale(0.204 -0.204)">
     <use xlink:href="#DejaVuSans-31"/>
     <use x="63.623047" xlink:href="#DejaVuSans-31"/>
    </g>
   </g>
   <g id="text_15">
    <!-- 12 -->
    <g transform="translate(79.857683 44.876417)scale(0.204 -0.204)">
     <use xlink:href="#DejaVuSans-31"/>
     <use x="63.623047" xlink:href="#DejaVuSans-32"/>
    </g>
   </g>
   <g id="text_16">
    <!-- 3 -->
    <g transform="translate(334.940812 46.493846)scale(0.204 -0.204)">
     <use xlink:href="#DejaVuSans-33"/>
    </g>
   </g>
   <g id="text_17">
    <!-- 6 -->
    <g transform="translate(153.284616 32.548207)scale(0.204 -0.204)">
     <use xlink:href="#DejaVuSans-36"/>
    </g>
   </g>
   <g id="text_18">
    <!-- 15 instances -->
    <defs>
     <path id="DejaVuSans-20"/>
     <path d="M 9.421875 54.6875 
L 18.40625 54.6875 
L 18.40625 0 
L 9.421875 0 
z
M 9.421875 75.984375 
L 18.40625 75.984375 
L 18.40625 64.59375 
L 9.421875 64.59375 
z
" id="DejaVuSans-69"/>
     <path d="M 54.890625 33.015625 
L 54.890625 0 
L 45.90625 0 
L 45.90625 32.71875 
Q 45.90625 40.484375 42.875 44.328125 
Q 39.84375 48.1875 33.796875 48.1875 
Q 26.515625 48.1875 22.3125 43.546875 
Q 18.109375 38.921875 18.109375 30.90625 
L 18.109375 0 
L 9.078125 0 
L 9.078125 54.6875 
L 18.109375 54.6875 
L 18.109375 46.1875 
Q 21.34375 51.125 25.703125 53.5625 
Q 30.078125 56 35.796875 56 
Q 45.21875 56 50.046875 50.171875 
Q 54.890625 44.34375 54.890625 33.015625 
z
" id="DejaVuSans-6e"/>
     <path d="M 44.28125 53.078125 
L 44.28125 44.578125 
Q 40.484375 46.53125 36.375 47.5 
Q 32.28125 48.484375 27.875 48.484375 
Q 21.1875 48.484375 17.84375 46.4375 
Q 14.5 44.390625 14.5 40.28125 
Q 14.5 37.15625 16.890625 35.375 
Q 19.28125 33.59375 26.515625 31.984375 
L 29.59375 31.296875 
Q 39.15625 29.25 43.1875 25.515625 
Q 47.21875 21.78125 47.21875 15.09375 
Q 47.21875 7.46875 41.1875 3.015625 
Q 35.15625 -1.421875 24.609375 -1.421875 
Q 20.21875 -1.421875 15.453125 -0.5625 
Q 10.6875 0.296875 5.421875 2 
L 5.421875 11.28125 
Q 10.40625 8.6875 15.234375 7.390625 
Q 20.0625 6.109375 24.8125 6.109375 
Q 31.15625 6.109375 34.5625 8.28125 
Q 37.984375 10.453125 37.984375 14.40625 
Q 37.984375 18.0625 35.515625 20.015625 
Q 33.0625 21.96875 24.703125 23.78125 
L 21.578125 24.515625 
Q 13.234375 26.265625 9.515625 29.90625 
Q 5.8125 33.546875 5.8125 39.890625 
Q 5.8125 47.609375 11.28125 51.796875 
Q 16.75 56 26.8125 56 
Q 31.78125 56 36.171875 55.265625 
Q 40.578125 54.546875 44.28125 53.078125 
z
" id="DejaVuSans-73"/>
     <path d="M 18.3125 70.21875 
L 18.3125 54.6875 
L 36.8125 54.6875 
L 36.8125 47.703125 
L 18.3125 47.703125 
L 18.3125 18.015625 
Q 18.3125 11.328125 20.140625 9.421875 
Q 21.96875 7.515625 27.59375 7.515625 
L 36.8125 7.515625 
L 36.8125 0 
L 27.59375 0 
Q 17.1875 0 13.234375 3.875 
Q 9.28125 7.765625 9.28125 18.015625 
L 9.28125 47.703125 
L 2.6875 47.703125 
L 2.6875 54.6875 
L 9.28125 54.6875 
L 9.28125 70.21875 
z
" id="DejaVuSans-74"/>
     <path d="M 34.28125 27.484375 
Q 23.390625 27.484375 19.1875 25 
Q 14.984375 22.515625 14.984375 16.5 
Q 14.984375 11.71875 18.140625 8.90625 
Q 21.296875 6.109375 26.703125 6.109375 
Q 34.1875 6.109375 38.703125 11.40625 
Q 43.21875 16.703125 43.21875 25.484375 
L 43.21875 27.484375 
z
M 52.203125 31.203125 
L 52.203125 0 
L 43.21875 0 
L 43.21875 8.296875 
Q 40.140625 3.328125 35.546875 0.953125 
Q 30.953125 -1.421875 24.3125 -1.421875 
Q 15.921875 -1.421875 10.953125 3.296875 
Q 6 8.015625 6 15.921875 
Q 6 25.140625 12.171875 29.828125 
Q 18.359375 34.515625 30.609375 34.515625 
L 43.21875 34.515625 
L 43.21875 35.40625 
Q 43.21875 41.609375 39.140625 45 
Q 35.0625 48.390625 27.6875 48.390625 
Q 23 48.390625 18.546875 47.265625 
Q 14.109375 46.140625 10.015625 43.890625 
L 10.015625 52.203125 
Q 14.9375 54.109375 19.578125 55.046875 
Q 24.21875 56 28.609375 56 
Q 40.484375 56 46.34375 49.84375 
Q 52.203125 43.703125 52.203125 31.203125 
z
" id="DejaVuSans-61"/>
     <path d="M 48.78125 52.59375 
L 48.78125 44.1875 
Q 44.96875 46.296875 41.140625 47.34375 
Q 37.3125 48.390625 33.40625 48.390625 
Q 24.65625 48.390625 19.8125 42.84375 
Q 14.984375 37.3125 14.984375 27.296875 
Q 14.984375 17.28125 19.8125 11.734375 
Q 24.65625 6.203125 33.40625 6.203125 
Q 37.3125 6.203125 41.140625 7.25 
Q 44.96875 8.296875 48.78125 10.40625 
L 48.78125 2.09375 
Q 45.015625 0.34375 40.984375 -0.53125 
Q 36.96875 -1.421875 32.421875 -1.421875 
Q 20.0625 -1.421875 12.78125 6.34375 
Q 5.515625 14.109375 5.515625 27.296875 
Q 5.515625 40.671875 12.859375 48.328125 
Q 20.21875 56 33.015625 56 
Q 37.15625 56 41.109375 55.140625 
Q 45.0625 54.296875 48.78125 52.59375 
z
" id="DejaVuSans-63"/>
     <path d="M 56.203125 29.59375 
L 56.203125 25.203125 
L 14.890625 25.203125 
Q 15.484375 15.921875 20.484375 11.0625 
Q 25.484375 6.203125 34.421875 6.203125 
Q 39.59375 6.203125 44.453125 7.46875 
Q 49.3125 8.734375 54.109375 11.28125 
L 54.109375 2.78125 
Q 49.265625 0.734375 44.1875 -0.34375 
Q 39.109375 -1.421875 33.890625 -1.421875 
Q 20.796875 -1.421875 13.15625 6.1875 
Q 5.515625 13.8125 5.515625 26.8125 
Q 5.515625 40.234375 12.765625 48.109375 
Q 20.015625 56 32.328125 56 
Q 43.359375 56 49.78125 48.890625 
Q 56.203125 41.796875 56.203125 29.59375 
z
M 47.21875 32.234375 
Q 47.125 39.59375 43.09375 43.984375 
Q 39.0625 48.390625 32.421875 48.390625 
Q 24.90625 48.390625 20.390625 44.140625 
Q 15.875 39.890625 15.1875 32.171875 
z
" id="DejaVuSans-65"/>
    </defs>
    <g transform="translate(25.9 292.6515)scale(0.14 -0.14)">
     <use xlink:href="#DejaVuSans-31"/>
     <use x="63.623047" xlink:href="#DejaVuSans-35"/>
     <use x="127.246094" xlink:href="#DejaVuSans-20"/>
     <use x="159.033203" xlink:href="#DejaVuSans-69"/>
     <use x="186.816406" xlink:href="#DejaVuSans-6e"/>
     <use x="250.195312" xlink:href="#DejaVuSans-73"/>
     <use x="302.294922" xlink:href="#DejaVuSans-74"/>
     <use x="341.503906" xlink:href="#DejaVuSans-61"/>
     <use x="402.783203" xlink:href="#DejaVuSans-6e"/>
     <use x="466.162109" xlink:href="#DejaVuSans-63"/>
     <use x="521.142578" xlink:href="#DejaVuSans-65"/>
     <use x="582.666016" xlink:href="#DejaVuSans-73"/>
    </g>
    <!-- absolute targets -->
    <defs>
     <path d="M 48.6875 27.296875 
Q 48.6875 37.203125 44.609375 42.84375 
Q 40.53125 48.484375 33.40625 48.484375 
Q 26.265625 48.484375 22.1875 42.84375 
Q 18.109375 37.203125 18.109375 27.296875 
Q 18.109375 17.390625 22.1875 11.75 
Q 26.265625 6.109375 33.40625 6.109375 
Q 40.53125 6.109375 44.609375 11.75 
Q 48.6875 17.390625 48.6875 27.296875 
z
M 18.109375 46.390625 
Q 20.953125 51.265625 25.265625 53.625 
Q 29.59375 56 35.59375 56 
Q 45.5625 56 51.78125 48.09375 
Q 58.015625 40.1875 58.015625 27.296875 
Q 58.015625 14.40625 51.78125 6.484375 
Q 45.5625 -1.421875 35.59375 -1.421875 
Q 29.59375 -1.421875 25.265625 0.953125 
Q 20.953125 3.328125 18.109375 8.203125 
L 18.109375 0 
L 9.078125 0 
L 9.078125 75.984375 
L 18.109375 75.984375 
z
" id="DejaVuSans-62"/>
     <path d="M 30.609375 48.390625 
Q 23.390625 48.390625 19.1875 42.75 
Q 14.984375 37.109375 14.984375 27.296875 
Q 14.984375 17.484375 19.15625 11.84375 
Q 23.34375 6.203125 30.609375 6.203125 
Q 37.796875 6.203125 41.984375 11.859375 
Q 46.1875 17.53125 46.1875 27.296875 
Q 46.1875 37.015625 41.984375 42.703125 
Q 37.796875 48.390625 30.609375 48.390625 
z
M 30.609375 56 
Q 42.328125 56 49.015625 48.375 
Q 55.71875 40.765625 55.71875 27.296875 
Q 55.71875 13.875 49.015625 6.21875 
Q 42.328125 -1.421875 30.609375 -1.421875 
Q 18.84375 -1.421875 12.171875 6.21875 
Q 5.515625 13.875 5.515625 27.296875 
Q 5.515625 40.765625 12.171875 48.375 
Q 18.84375 56 30.609375 56 
z
" id="DejaVuSans-6f"/>
     <path d="M 9.421875 75.984375 
L 18.40625 75.984375 
L 18.40625 0 
L 9.421875 0 
z
" id="DejaVuSans-6c"/>
     <path d="M 8.5 21.578125 
L 8.5 54.6875 
L 17.484375 54.6875 
L 17.484375 21.921875 
Q 17.484375 14.15625 20.5 10.265625 
Q 23.53125 6.390625 29.59375 6.390625 
Q 36.859375 6.390625 41.078125 11.03125 
Q 45.3125 15.671875 45.3125 23.6875 
L 45.3125 54.6875 
L 54.296875 54.6875 
L 54.296875 0 
L 45.3125 0 
L 45.3125 8.40625 
Q 42.046875 3.421875 37.71875 1 
Q 33.40625 -1.421875 27.6875 -1.421875 
Q 18.265625 -1.421875 13.375 4.4375 
Q 8.5 10.296875 8.5 21.578125 
z
M 31.109375 56 
z
" id="DejaVuSans-75"/>
     <path d="M 41.109375 46.296875 
Q 39.59375 47.171875 37.8125 47.578125 
Q 36.03125 48 33.890625 48 
Q 26.265625 48 22.1875 43.046875 
Q 18.109375 38.09375 18.109375 28.8125 
L 18.109375 0 
L 9.078125 0 
L 9.078125 54.6875 
L 18.109375 54.6875 
L 18.109375 46.1875 
Q 20.953125 51.171875 25.484375 53.578125 
Q 30.03125 56 36.53125 56 
Q 37.453125 56 38.578125 55.875 
Q 39.703125 55.765625 41.0625 55.515625 
z
" id="DejaVuSans-72"/>
     <path d="M 45.40625 27.984375 
Q 45.40625 37.75 41.375 43.109375 
Q 37.359375 48.484375 30.078125 48.484375 
Q 22.859375 48.484375 18.828125 43.109375 
Q 14.796875 37.75 14.796875 27.984375 
Q 14.796875 18.265625 18.828125 12.890625 
Q 22.859375 7.515625 30.078125 7.515625 
Q 37.359375 7.515625 41.375 12.890625 
Q 45.40625 18.265625 45.40625 27.984375 
z
M 54.390625 6.78125 
Q 54.390625 -7.171875 48.1875 -13.984375 
Q 42 -20.796875 29.203125 -20.796875 
Q 24.46875 -20.796875 20.265625 -20.09375 
Q 16.0625 -19.390625 12.109375 -17.921875 
L 12.109375 -9.1875 
Q 16.0625 -11.328125 19.921875 -12.34375 
Q 23.78125 -13.375 27.78125 -13.375 
Q 36.625 -13.375 41.015625 -8.765625 
Q 45.40625 -4.15625 45.40625 5.171875 
L 45.40625 9.625 
Q 42.625 4.78125 38.28125 2.390625 
Q 33.9375 0 27.875 0 
Q 17.828125 0 11.671875 7.65625 
Q 5.515625 15.328125 5.515625 27.984375 
Q 5.515625 40.671875 11.671875 48.328125 
Q 17.828125 56 27.875 56 
Q 33.9375 56 38.28125 53.609375 
Q 42.625 51.21875 45.40625 46.390625 
L 45.40625 54.6875 
L 54.390625 54.6875 
z
" id="DejaVuSans-67"/>
    </defs>
    <g transform="translate(25.9 308.328437)scale(0.14 -0.14)">
     <use xlink:href="#DejaVuSans-61"/>
     <use x="61.279297" xlink:href="#DejaVuSans-62"/>
     <use x="124.755859" xlink:href="#DejaVuSans-73"/>
     <use x="176.855469" xlink:href="#DejaVuSans-6f"/>
     <use x="238.037109" xlink:href="#DejaVuSans-6c"/>
     <use x="265.820312" xlink:href="#DejaVuSans-75"/>
     <use x="329.199219" xlink:href="#DejaVuSans-74"/>
     <use x="368.408203" xlink:href="#DejaVuSans-65"/>
     <use x="429.931641" xlink:href="#DejaVuSans-20"/>
     <use x="461.71875" xlink:href="#DejaVuSans-74"/>
     <use x="500.927734" xlink:href="#DejaVuSans-61"/>
     <use x="562.207031" xlink:href="#DejaVuSans-72"/>
     <use x="603.304688" xlink:href="#DejaVuSans-67"/>
     <use x="666.78125" xlink:href="#DejaVuSans-65"/>
     <use x="728.304688" xlink:href="#DejaVuSans-74"/>
     <use x="767.513672" xlink:href="#DejaVuSans-73"/>
    </g>
   </g>
   <g id="text_19">
    <!-- v0.0.0 -->
    <defs>
     <path d="M 2.984375 54.6875 
L 12.5 54.6875 
L 29.59375 8.796875 
L 46.6875 54.6875 
L 56.203125 54.6875 
L 35.6875 0 
L 23.484375 0 
z
" id="DejaVuSans-76"/>
     <path d="M 10.6875 12.40625 
L 21 12.40625 
L 21 0 
L 10.6875 0 
z
" id="DejaVuSans-2e"/>
    </defs>
    <g style="fill:#808080;" transform="translate(221.115062 306.331112)scale(0.1 -0.1)">
     <use xlink:href="#DejaVuSans-76"/>
     <use x="59.179688" xlink:href="#DejaVuSans-30"/>
     <use x="122.802734" xlink:href="#DejaVuSans-2e"/>
     <use x="154.589844" xlink:href="#DejaVuSans-30"/>
     <use x="218.212891" xlink:href="#DejaVuSans-2e"/>
     <use x="250" xlink:href="#DejaVuSans-30"/>
    </g>
   </g>
   <g id="text_20">
    <!-- 19 Griewank-Rosenbrock F8F2 -->
    <defs>
     <path d="M 10.984375 1.515625 
L 10.984375 10.5 
Q 14.703125 8.734375 18.5 7.8125 
Q 22.3125 6.890625 25.984375 6.890625 
Q 35.75 6.890625 40.890625 13.453125 
Q 46.046875 20.015625 46.78125 33.40625 
Q 43.953125 29.203125 39.59375 26.953125 
Q 35.25 24.703125 29.984375 24.703125 
Q 19.046875 24.703125 12.671875 31.3125 
Q 6.296875 37.9375 6.296875 49.421875 
Q 6.296875 60.640625 12.9375 67.421875 
Q 19.578125 74.21875 30.609375 74.21875 
Q 43.265625 74.21875 49.921875 64.515625 
Q 56.59375 54.828125 56.59375 36.375 
Q 56.59375 19.140625 48.40625 8.859375 
Q 40.234375 -1.421875 26.421875 -1.421875 
Q 22.703125 -1.421875 18.890625 -0.6875 
Q 15.09375 0.046875 10.984375 1.515625 
z
M 30.609375 32.421875 
Q 37.25 32.421875 41.125 36.953125 
Q 45.015625 41.5 45.015625 49.421875 
Q 45.015625 57.28125 41.125 61.84375 
Q 37.25 66.40625 30.609375 66.40625 
Q 23.96875 66.40625 20.09375 61.84375 
Q 16.21875 57.28125 16.21875 49.421875 
Q 16.21875 41.5 20.09375 36.953125 
Q 23.96875 32.421875 30.609375 32.421875 
z
" id="DejaVuSans-39"/>
     <path d="M 59.515625 10.40625 
L 59.515625 29.984375 
L 43.40625 29.984375 
L 43.40625 38.09375 
L 69.28125 38.09375 
L 69.28125 6.78125 
Q 63.578125 2.734375 56.6875 0.65625 
Q 49.8125 -1.421875 42 -1.421875 
Q 24.90625 -1.421875 15.25 8.5625 
Q 5.609375 18.5625 5.609375 36.375 
Q 5.609375 54.25 15.25 64.234375 
Q 24.90625 74.21875 42 74.21875 
Q 49.125 74.21875 55.546875 72.453125 
Q 61.96875 70.703125 67.390625 67.28125 
L 67.390625 56.78125 
Q 61.921875 61.421875 55.765625 63.765625 
Q 49.609375 66.109375 42.828125 66.109375 
Q 29.4375 66.109375 22.71875 58.640625 
Q 16.015625 51.171875 16.015625 36.375 
Q 16.015625 21.625 22.71875 14.15625 
Q 29.4375 6.6875 42.828125 6.6875 
Q 48.046875 6.6875 52.140625 7.59375 
Q 56.25 8.5 59.515625 10.40625 
z
" id="DejaVuSans-47"/>
     <path d="M 4.203125 54.6875 
L 13.1875 54.6875 
L 24.421875 12.015625 
L 35.59375 54.6875 
L 46.1875 54.6875 
L 57.421875 12.015625 
L 68.609375 54.6875 
L 77.59375 54.6875 
L 63.28125 0 
L 52.6875 0 
L 40.921875 44.828125 
L 29.109375 0 
L 18.5 0 
z
" id="DejaVuSans-77"/>
     <path d="M 9.078125 75.984375 
L 18.109375 75.984375 
L 18.109375 31.109375 
L 44.921875 54.6875 
L 56.390625 54.6875 
L 27.390625 29.109375 
L 57.625 0 
L 45.90625 0 
L 18.109375 26.703125 
L 18.109375 0 
L 9.078125 0 
z
" id="DejaVuSans-6b"/>
     <path d="M 4.890625 31.390625 
L 31.203125 31.390625 
L 31.203125 23.390625 
L 4.890625 23.390625 
z
" id="DejaVuSans-2d"/>
     <path d="M 44.390625 34.1875 
Q 47.5625 33.109375 50.5625 29.59375 
Q 53.5625 26.078125 56.59375 19.921875 
L 66.609375 0 
L 56 0 
L 46.6875 18.703125 
Q 43.0625 26.03125 39.671875 28.421875 
Q 36.28125 30.8125 30.421875 30.8125 
L 19.671875 30.8125 
L 19.671875 0 
L 9.8125 0 
L 9.8125 72.90625 
L 32.078125 72.90625 
Q 44.578125 72.90625 50.734375 67.671875 
Q 56.890625 62.453125 56.890625 51.90625 
Q 56.890625 45.015625 53.6875 40.46875 
Q 50.484375 35.9375 44.390625 34.1875 
z
M 19.671875 64.796875 
L 19.671875 38.921875 
L 32.078125 38.921875 
Q 39.203125 38.921875 42.84375 42.21875 
Q 46.484375 45.515625 46.484375 51.90625 
Q 46.484375 58.296875 42.84375 61.546875 
Q 39.203125 64.796875 32.078125 64.796875 
z
" id="DejaVuSans-52"/>
     <path d="M 9.8125 72.90625 
L 51.703125 72.90625 
L 51.703125 64.59375 
L 19.671875 64.59375 
L 19.671875 43.109375 
L 48.578125 43.109375 
L 48.578125 34.8125 
L 19.671875 34.8125 
L 19.671875 0 
L 9.8125 0 
z
" id="DejaVuSans-46"/>
     <path d="M 31.78125 34.625 
Q 24.75 34.625 20.71875 30.859375 
Q 16.703125 27.09375 16.703125 20.515625 
Q 16.703125 13.921875 20.71875 10.15625 
Q 24.75 6.390625 31.78125 6.390625 
Q 38.8125 6.390625 42.859375 10.171875 
Q 46.921875 13.96875 46.921875 20.515625 
Q 46.921875 27.09375 42.890625 30.859375 
Q 38.875 34.625 31.78125 34.625 
z
M 21.921875 38.8125 
Q 15.578125 40.375 12.03125 44.71875 
Q 8.5 49.078125 8.5 55.328125 
Q 8.5 64.0625 14.71875 69.140625 
Q 20.953125 74.21875 31.78125 74.21875 
Q 42.671875 74.21875 48.875 69.140625 
Q 55.078125 64.0625 55.078125 55.328125 
Q 55.078125 49.078125 51.53125 44.71875 
Q 48 40.375 41.703125 38.8125 
Q 48.828125 37.15625 52.796875 32.3125 
Q 56.78125 27.484375 56.78125 20.515625 
Q 56.78125 9.90625 50.3125 4.234375 
Q 43.84375 -1.421875 31.78125 -1.421875 
Q 19.734375 -1.421875 13.25 4.234375 
Q 6.78125 9.90625 6.78125 20.515625 
Q 6.78125 27.484375 10.78125 32.3125 
Q 14.796875 37.15625 21.921875 38.8125 
z
M 18.3125 54.390625 
Q 18.3125 48.734375 21.84375 45.5625 
Q 25.390625 42.390625 31.78125 42.390625 
Q 38.140625 42.390625 41.71875 45.5625 
Q 45.3125 48.734375 45.3125 54.390625 
Q 45.3125 60.0625 41.71875 63.234375 
Q 38.140625 66.40625 31.78125 66.40625 
Q 25.390625 66.40625 21.84375 63.234375 
Q 18.3125 60.0625 18.3125 54.390625 
z
" id="DejaVuSans-38"/>
    </defs>
    <g transform="translate(53.475687 22.32)scale(0.24 -0.24)">
     <use xlink:href="#DejaVuSans-31"/>
     <use x="63.623047" xlink:href="#DejaVuSans-39"/>
     <use x="127.246094" xlink:href="#DejaVuSans-20"/>
     <use x="159.033203" xlink:href="#DejaVuSans-47"/>
     <use x="236.523438" xlink:href="#DejaVuSans-72"/>
     <use x="277.636719" xlink:href="#DejaVuSans-69"/>
     <use x="305.419922" xlink:href="#DejaVuSans-65"/>
     <use x="366.943359" xlink:href="#DejaVuSans-77"/>
     <use x="448.730469" xlink:href="#DejaVuSans-61"/>
     <use x="510.009766" xlink:href="#DejaVuSans-6e"/>
     <use x="573.388672" xlink:href="#DejaVuSans-6b"/>
     <use x="631.298828" xlink:href="#DejaVuSans-2d"/>
     <use x="667.382812" xlink:href="#DejaVuSans-52"/>
     <use x="736.802734" xlink:href="#DejaVuSans-6f"/>
     <use x="797.984375" xlink:href="#DejaVuSans-73"/>
     <use x="850.083984" xlink:href="#DejaVuSans-65"/>
     <use x="911.607422" xlink:href="#DejaVuSans-6e"/>
     <use x="974.986328" xlink:href="#DejaVuSans-62"/>
     <use x="1038.462891" xlink:href="#DejaVuSans-72"/>
     <use x="1079.544922" xlink:href="#DejaVuSans-6f"/>
     <use x="1140.726562" xlink:href="#DejaVuSans-63"/>
     <use x="1195.707031" xlink:href="#DejaVuSans-6b"/>
     <use x="1253.617188" xlink:href="#DejaVuSans-20"/>
     <use x="1285.404297" xlink:href="#DejaVuSans-46"/>
     <use x="1342.923828" xlink:href="#DejaVuSans-38"/>
     <use x="1406.546875" xlink:href="#DejaVuSans-46"/>
     <use x="1464.066406" xlink:href="#DejaVuSans-32"/>
    </g>
   </g>
  </g>
 </g>
 <defs>
  <clipPath id="p17aa8c6989">
   <rect height="282.92" width="421.792625" x="25.9" y="28.32"/>
  </clipPath>
 </defs>
</svg>
