<?xml version="1.0" encoding="utf-8" standalone="no"?>
<!DOCTYPE svg PUBLIC "-//W3C//DTD SVG 1.1//EN"
  "http://www.w3.org/Graphics/SVG/1.1/DTD/svg11.dtd">
<!-- Created with matplotlib (http://matplotlib.org/) -->
<svg height="345.6pt" version="1.1" viewBox="0 0 460.8 345.6" width="460.8pt" xmlns="http://www.w3.org/2000/svg" xmlns:xlink="http://www.w3.org/1999/xlink">
 <defs>
  <style type="text/css">
*{stroke-linecap:butt;stroke-linejoin:round;}
  </style>
 </defs>
 <g id="figure_1">
  <g id="patch_1">
   <path d="M 0 345.6 
L 460.8 345.6 
L 460.8 0 
L 0 0 
z
" style="fill:#ffffff;"/>
  </g>
  <g id="axes_1">
   <g id="patch_2">
    <path d="M 25.9 311.24 
L 450.072 311.24 
L 450.072 28.32 
L 25.9 28.32 
z
" style="fill:#ffffff;"/>
   </g>
   <g id="line2d_1">
    <path clip-path="url(#pb05e9d30b4)" d="M 39.784034 207.221402 
L 93.214783 183.226848 
L 160.529565 170.198757 
L 251.870034 151.772448 
L 343.210502 144.407496 
L 434.550971 118.440481 
" style="fill:none;stroke:#f5deb3;stroke-linecap:square;stroke-width:10;"/>
    <defs>
     <path d="M -0 17.67767 
L 10.606602 0 
L 0 -17.67767 
L -10.606602 -0 
z
" id="m21c6bcea49" style="stroke:#000000;stroke-linejoin:miter;"/>
    </defs>
    <g clip-path="url(#pb05e9d30b4)">
     <use style="fill:#f5deb3;stroke:#000000;stroke-linejoin:miter;" x="39.784034" xlink:href="#m21c6bcea49" y="207.221402"/>
     <use style="fill:#f5deb3;stroke:#000000;stroke-linejoin:miter;" x="93.214783" xlink:href="#m21c6bcea49" y="183.226848"/>
     <use style="fill:#f5deb3;stroke:#000000;stroke-linejoin:miter;" x="160.529565" xlink:href="#m21c6bcea49" y="170.198757"/>
     <use style="fill:#f5deb3;stroke:#000000;stroke-linejoin:miter;" x="251.870034" xlink:href="#m21c6bcea49" y="151.772448"/>
     <use style="fill:#f5deb3;stroke:#000000;stroke-linejoin:miter;" x="343.210502" xlink:href="#m21c6bcea49" y="144.407496"/>
     <use style="fill:#f5deb3;stroke:#000000;stroke-linejoin:miter;" x="434.550971" xlink:href="#m21c6bcea49" y="118.440481"/>
    </g>
   </g>
   <g id="line2d_2">
    <defs>
     <path d="M -15 0 
L 15 0 
M 0 15 
L 0 -15 
" id="m6b959f79dc" style="stroke:#00bfbf;stroke-width:5;"/>
    </defs>
    <g clip-path="url(#pb05e9d30b4)">
     <use style="fill:#00bfbf;stroke:#00bfbf;stroke-width:5;" x="434.550971" xlink:href="#m6b959f79dc" y="167.744788"/>
    </g>
   </g>
   <g id="line2d_3">
    <defs>
     <path d="M -15 0 
L 15 0 
M 0 15 
L 0 -15 
" id="m20a7a010e9" style="stroke:#bf00bf;stroke-width:5;"/>
    </defs>
    <g clip-path="url(#pb05e9d30b4)">
     <use style="fill:#bf00bf;stroke:#bf00bf;stroke-width:5;" x="251.870034" xlink:href="#m20a7a010e9" y="149.059705"/>
    </g>
   </g>
   <g id="line2d_4">
    <defs>
     <path d="M -15 0 
L 15 0 
M 0 15 
L 0 -15 
" id="m7703ea0b3d" style="stroke:#ff0000;stroke-width:5;"/>
    </defs>
    <g clip-path="url(#pb05e9d30b4)">
     <use style="fill:#ff0000;stroke:#ff0000;stroke-width:5;" x="93.214783" xlink:href="#m7703ea0b3d" y="142.121747"/>
    </g>
   </g>
   <g id="line2d_5">
    <defs>
     <path d="M -15 0 
L 15 0 
M 0 15 
L 0 -15 
" id="mbd4ebc0e4a" style="stroke:#bfbf00;stroke-width:5;"/>
    </defs>
    <g clip-path="url(#pb05e9d30b4)">
     <use style="fill:#bfbf00;stroke:#bfbf00;stroke-width:5;" x="343.210502" xlink:href="#mbd4ebc0e4a" y="164.752208"/>
    </g>
   </g>
   <g id="line2d_6">
    <g clip-path="url(#pb05e9d30b4)">
     <use style="fill:#ff0000;stroke:#ff0000;stroke-width:5;" x="160.529565" xlink:href="#m7703ea0b3d" y="143.078314"/>
    </g>
   </g>
   <g id="matplotlib.axis_1">
    <g id="xtick_1">
     <g id="line2d_7">
      <defs>
       <path d="M 0 0 
L 0 3.5 
" id="m504d36369d" style="stroke:#000000;stroke-width:0.8;"/>
      </defs>
      <g>
       <use style="stroke:#000000;stroke-width:0.8;" x="39.784034" xlink:href="#m504d36369d" y="311.24"/>
      </g>
     </g>
     <g id="text_1">
      <!-- 2 -->
      <defs>
       <path d="M 19.1875 8.296875 
L 53.609375 8.296875 
L 53.609375 0 
L 7.328125 0 
L 7.328125 8.296875 
Q 12.9375 14.109375 22.625 23.890625 
Q 32.328125 33.6875 34.8125 36.53125 
Q 39.546875 41.84375 41.421875 45.53125 
Q 43.3125 49.21875 43.3125 52.78125 
Q 43.3125 58.59375 39.234375 62.25 
Q 35.15625 65.921875 28.609375 65.921875 
Q 23.96875 65.921875 18.8125 64.3125 
Q 13.671875 62.703125 7.8125 59.421875 
L 7.8125 69.390625 
Q 13.765625 71.78125 18.9375 73 
Q 24.125 74.21875 28.421875 74.21875 
Q 39.75 74.21875 46.484375 68.546875 
Q 53.21875 62.890625 53.21875 53.421875 
Q 53.21875 48.921875 51.53125 44.890625 
Q 49.859375 40.875 45.40625 35.40625 
Q 44.1875 33.984375 37.640625 27.21875 
Q 31.109375 20.453125 19.1875 8.296875 
z
" id="DejaVuSans-32"/>
      </defs>
      <g transform="translate(32.149034 336.47625)scale(0.24 -0.24)">
       <use xlink:href="#DejaVuSans-32"/>
      </g>
     </g>
    </g>
    <g id="xtick_2">
     <g id="line2d_8">
      <g>
       <use style="stroke:#000000;stroke-width:0.8;" x="93.214783" xlink:href="#m504d36369d" y="311.24"/>
      </g>
     </g>
     <g id="text_2">
      <!-- 3 -->
      <defs>
       <path d="M 40.578125 39.3125 
Q 47.65625 37.796875 51.625 33 
Q 55.609375 28.21875 55.609375 21.1875 
Q 55.609375 10.40625 48.1875 4.484375 
Q 40.765625 -1.421875 27.09375 -1.421875 
Q 22.515625 -1.421875 17.65625 -0.515625 
Q 12.796875 0.390625 7.625 2.203125 
L 7.625 11.71875 
Q 11.71875 9.328125 16.59375 8.109375 
Q 21.484375 6.890625 26.8125 6.890625 
Q 36.078125 6.890625 40.9375 10.546875 
Q 45.796875 14.203125 45.796875 21.1875 
Q 45.796875 27.640625 41.28125 31.265625 
Q 36.765625 34.90625 28.71875 34.90625 
L 20.21875 34.90625 
L 20.21875 43.015625 
L 29.109375 43.015625 
Q 36.375 43.015625 40.234375 45.921875 
Q 44.09375 48.828125 44.09375 54.296875 
Q 44.09375 59.90625 40.109375 62.90625 
Q 36.140625 65.921875 28.71875 65.921875 
Q 24.65625 65.921875 20.015625 65.03125 
Q 15.375 64.15625 9.8125 62.3125 
L 9.8125 71.09375 
Q 15.4375 72.65625 20.34375 73.4375 
Q 25.25 74.21875 29.59375 74.21875 
Q 40.828125 74.21875 47.359375 69.109375 
Q 53.90625 64.015625 53.90625 55.328125 
Q 53.90625 49.265625 50.4375 45.09375 
Q 46.96875 40.921875 40.578125 39.3125 
z
" id="DejaVuSans-33"/>
      </defs>
      <g transform="translate(85.579783 336.47625)scale(0.24 -0.24)">
       <use xlink:href="#DejaVuSans-33"/>
      </g>
     </g>
    </g>
    <g id="xtick_3">
     <g id="line2d_9">
      <g>
       <use style="stroke:#000000;stroke-width:0.8;" x="160.529565" xlink:href="#m504d36369d" y="311.24"/>
      </g>
     </g>
     <g id="text_3">
      <!-- 5 -->
      <defs>
       <path d="M 10.796875 72.90625 
L 49.515625 72.90625 
L 49.515625 64.59375 
L 19.828125 64.59375 
L 19.828125 46.734375 
Q 21.96875 47.46875 24.109375 47.828125 
Q 26.265625 48.1875 28.421875 48.1875 
Q 40.625 48.1875 47.75 41.5 
Q 54.890625 34.8125 54.890625 23.390625 
Q 54.890625 11.625 47.5625 5.09375 
Q 40.234375 -1.421875 26.90625 -1.421875 
Q 22.3125 -1.421875 17.546875 -0.640625 
Q 12.796875 0.140625 7.71875 1.703125 
L 7.71875 11.625 
Q 12.109375 9.234375 16.796875 8.0625 
Q 21.484375 6.890625 26.703125 6.890625 
Q 35.15625 6.890625 40.078125 11.328125 
Q 45.015625 15.765625 45.015625 23.390625 
Q 45.015625 31 40.078125 35.4375 
Q 35.15625 39.890625 26.703125 39.890625 
Q 22.75 39.890625 18.8125 39.015625 
Q 14.890625 38.140625 10.796875 36.28125 
z
" id="DejaVuSans-35"/>
      </defs>
      <g transform="translate(152.894565 336.47625)scale(0.24 -0.24)">
       <use xlink:href="#DejaVuSans-35"/>
      </g>
     </g>
    </g>
    <g id="xtick_4">
     <g id="line2d_10">
      <g>
       <use style="stroke:#000000;stroke-width:0.8;" x="251.870034" xlink:href="#m504d36369d" y="311.24"/>
      </g>
     </g>
     <g id="text_4">
      <!-- 10 -->
      <defs>
       <path d="M 12.40625 8.296875 
L 28.515625 8.296875 
L 28.515625 63.921875 
L 10.984375 60.40625 
L 10.984375 69.390625 
L 28.421875 72.90625 
L 38.28125 72.90625 
L 38.28125 8.296875 
L 54.390625 8.296875 
L 54.390625 0 
L 12.40625 0 
z
" id="DejaVuSans-31"/>
       <path d="M 31.78125 66.40625 
Q 24.171875 66.40625 20.328125 58.90625 
Q 16.5 51.421875 16.5 36.375 
Q 16.5 21.390625 20.328125 13.890625 
Q 24.171875 6.390625 31.78125 6.390625 
Q 39.453125 6.390625 43.28125 13.890625 
Q 47.125 21.390625 47.125 36.375 
Q 47.125 51.421875 43.28125 58.90625 
Q 39.453125 66.40625 31.78125 66.40625 
z
M 31.78125 74.21875 
Q 44.046875 74.21875 50.515625 64.515625 
Q 56.984375 54.828125 56.984375 36.375 
Q 56.984375 17.96875 50.515625 8.265625 
Q 44.046875 -1.421875 31.78125 -1.421875 
Q 19.53125 -1.421875 13.0625 8.265625 
Q 6.59375 17.96875 6.59375 36.375 
Q 6.59375 54.828125 13.0625 64.515625 
Q 19.53125 74.21875 31.78125 74.21875 
z
" id="DejaVuSans-30"/>
      </defs>
      <g transform="translate(236.600034 336.47625)scale(0.24 -0.24)">
       <use xlink:href="#DejaVuSans-31"/>
       <use x="63.623047" xlink:href="#DejaVuSans-30"/>
      </g>
     </g>
    </g>
    <g id="xtick_5">
     <g id="line2d_11">
      <g>
       <use style="stroke:#000000;stroke-width:0.8;" x="343.210502" xlink:href="#m504d36369d" y="311.24"/>
      </g>
     </g>
     <g id="text_5">
      <!-- 20 -->
      <g transform="translate(327.940502 336.47625)scale(0.24 -0.24)">
       <use xlink:href="#DejaVuSans-32"/>
       <use x="63.623047" xlink:href="#DejaVuSans-30"/>
      </g>
     </g>
    </g>
    <g id="xtick_6">
     <g id="line2d_12">
      <g>
       <use style="stroke:#000000;stroke-width:0.8;" x="434.550971" xlink:href="#m504d36369d" y="311.24"/>
      </g>
     </g>
     <g id="text_6">
      <!-- 40 -->
      <defs>
       <path d="M 37.796875 64.3125 
L 12.890625 25.390625 
L 37.796875 25.390625 
z
M 35.203125 72.90625 
L 47.609375 72.90625 
L 47.609375 25.390625 
L 58.015625 25.390625 
L 58.015625 17.1875 
L 47.609375 17.1875 
L 47.609375 0 
L 37.796875 0 
L 37.796875 17.1875 
L 4.890625 17.1875 
L 4.890625 26.703125 
z
" id="DejaVuSans-34"/>
      </defs>
      <g transform="translate(419.280971 336.47625)scale(0.24 -0.24)">
       <use xlink:href="#DejaVuSans-34"/>
       <use x="63.623047" xlink:href="#DejaVuSans-30"/>
      </g>
     </g>
    </g>
    <g id="xtick_7">
     <g id="line2d_13">
      <defs>
       <path d="M 0 0 
L 0 2 
" id="m699f9d2500" style="stroke:#000000;stroke-width:0.6;"/>
      </defs>
      <g>
       <use style="stroke:#000000;stroke-width:0.6;" x="39.784034" xlink:href="#m699f9d2500" y="311.24"/>
      </g>
     </g>
    </g>
    <g id="xtick_8">
     <g id="line2d_14">
      <g>
       <use style="stroke:#000000;stroke-width:0.6;" x="93.214783" xlink:href="#m699f9d2500" y="311.24"/>
      </g>
     </g>
    </g>
    <g id="xtick_9">
     <g id="line2d_15">
      <g>
       <use style="stroke:#000000;stroke-width:0.6;" x="131.124502" xlink:href="#m699f9d2500" y="311.24"/>
      </g>
     </g>
    </g>
    <g id="xtick_10">
     <g id="line2d_16">
      <g>
       <use style="stroke:#000000;stroke-width:0.6;" x="160.529565" xlink:href="#m699f9d2500" y="311.24"/>
      </g>
     </g>
    </g>
    <g id="xtick_11">
     <g id="line2d_17">
      <g>
       <use style="stroke:#000000;stroke-width:0.6;" x="184.555251" xlink:href="#m699f9d2500" y="311.24"/>
      </g>
     </g>
    </g>
    <g id="xtick_12">
     <g id="line2d_18">
      <g>
       <use style="stroke:#000000;stroke-width:0.6;" x="204.868679" xlink:href="#m699f9d2500" y="311.24"/>
      </g>
     </g>
    </g>
    <g id="xtick_13">
     <g id="line2d_19">
      <g>
       <use style="stroke:#000000;stroke-width:0.6;" x="222.464971" xlink:href="#m699f9d2500" y="311.24"/>
      </g>
     </g>
    </g>
    <g id="xtick_14">
     <g id="line2d_20">
      <g>
       <use style="stroke:#000000;stroke-width:0.6;" x="237.986" xlink:href="#m699f9d2500" y="311.24"/>
      </g>
     </g>
    </g>
    <g id="xtick_15">
     <g id="line2d_21">
      <g>
       <use style="stroke:#000000;stroke-width:0.6;" x="343.210502" xlink:href="#m699f9d2500" y="311.24"/>
      </g>
     </g>
    </g>
    <g id="xtick_16">
     <g id="line2d_22">
      <g>
       <use style="stroke:#000000;stroke-width:0.6;" x="396.641251" xlink:href="#m699f9d2500" y="311.24"/>
      </g>
     </g>
    </g>
    <g id="xtick_17">
     <g id="line2d_23">
      <g>
       <use style="stroke:#000000;stroke-width:0.6;" x="434.550971" xlink:href="#m699f9d2500" y="311.24"/>
      </g>
     </g>
    </g>
   </g>
   <g id="matplotlib.axis_2">
    <g id="ytick_1">
     <g id="line2d_24">
      <path clip-path="url(#pb05e9d30b4)" d="M 25.9 303.381112 
L 450.072 303.381112 
" style="fill:none;stroke:#b0b0b0;stroke-linecap:square;stroke-width:0.8;"/>
     </g>
     <g id="line2d_25">
      <defs>
       <path d="M 0 0 
L -3.5 0 
" id="mcd83b09283" style="stroke:#000000;stroke-width:0.8;"/>
      </defs>
      <g>
       <use style="stroke:#000000;stroke-width:0.8;" x="25.9" xlink:href="#mcd83b09283" y="303.381112"/>
      </g>
     </g>
     <g id="text_7">
      <!-- 0 -->
      <g transform="translate(3.63 312.499237)scale(0.24 -0.24)">
       <use xlink:href="#DejaVuSans-30"/>
      </g>
     </g>
    </g>
    <g id="ytick_2">
     <g id="line2d_26">
      <path clip-path="url(#pb05e9d30b4)" d="M 25.9 264.08667 
L 450.072 264.08667 
" style="fill:none;stroke:#b0b0b0;stroke-linecap:square;stroke-width:0.8;"/>
     </g>
     <g id="line2d_27">
      <g>
       <use style="stroke:#000000;stroke-width:0.8;" x="25.9" xlink:href="#mcd83b09283" y="264.08667"/>
      </g>
     </g>
     <g id="text_8">
      <!-- 1 -->
      <g transform="translate(3.63 273.204795)scale(0.24 -0.24)">
       <use xlink:href="#DejaVuSans-31"/>
      </g>
     </g>
    </g>
    <g id="ytick_3">
     <g id="line2d_28">
      <path clip-path="url(#pb05e9d30b4)" d="M 25.9 224.792227 
L 450.072 224.792227 
" style="fill:none;stroke:#b0b0b0;stroke-linecap:square;stroke-width:0.8;"/>
     </g>
     <g id="line2d_29">
      <g>
       <use style="stroke:#000000;stroke-width:0.8;" x="25.9" xlink:href="#mcd83b09283" y="224.792227"/>
      </g>
     </g>
     <g id="text_9">
      <!-- 2 -->
      <g transform="translate(3.63 233.910352)scale(0.24 -0.24)">
       <use xlink:href="#DejaVuSans-32"/>
      </g>
     </g>
    </g>
    <g id="ytick_4">
     <g id="line2d_30">
      <path clip-path="url(#pb05e9d30b4)" d="M 25.9 185.497785 
L 450.072 185.497785 
" style="fill:none;stroke:#b0b0b0;stroke-linecap:square;stroke-width:0.8;"/>
     </g>
     <g id="line2d_31">
      <g>
       <use style="stroke:#000000;stroke-width:0.8;" x="25.9" xlink:href="#mcd83b09283" y="185.497785"/>
      </g>
     </g>
     <g id="text_10">
      <!-- 3 -->
      <g transform="translate(3.63 194.61591)scale(0.24 -0.24)">
       <use xlink:href="#DejaVuSans-33"/>
      </g>
     </g>
    </g>
    <g id="ytick_5">
     <g id="line2d_32">
      <path clip-path="url(#pb05e9d30b4)" d="M 25.9 146.203343 
L 450.072 146.203343 
" style="fill:none;stroke:#b0b0b0;stroke-linecap:square;stroke-width:0.8;"/>
     </g>
     <g id="line2d_33">
      <g>
       <use style="stroke:#000000;stroke-width:0.8;" x="25.9" xlink:href="#mcd83b09283" y="146.203343"/>
      </g>
     </g>
     <g id="text_11">
      <!-- 4 -->
      <g transform="translate(3.63 155.321468)scale(0.24 -0.24)">
       <use xlink:href="#DejaVuSans-34"/>
      </g>
     </g>
    </g>
    <g id="ytick_6">
     <g id="line2d_34">
      <path clip-path="url(#pb05e9d30b4)" d="M 25.9 106.908901 
L 450.072 106.908901 
" style="fill:none;stroke:#b0b0b0;stroke-linecap:square;stroke-width:0.8;"/>
     </g>
     <g id="line2d_35">
      <g>
       <use style="stroke:#000000;stroke-width:0.8;" x="25.9" xlink:href="#mcd83b09283" y="106.908901"/>
      </g>
     </g>
     <g id="text_12">
      <!-- 5 -->
      <g transform="translate(3.63 116.027026)scale(0.24 -0.24)">
       <use xlink:href="#DejaVuSans-35"/>
      </g>
     </g>
    </g>
    <g id="ytick_7">
     <g id="line2d_36">
      <path clip-path="url(#pb05e9d30b4)" d="M 25.9 67.614459 
L 450.072 67.614459 
" style="fill:none;stroke:#b0b0b0;stroke-linecap:square;stroke-width:0.8;"/>
     </g>
     <g id="line2d_37">
      <g>
       <use style="stroke:#000000;stroke-width:0.8;" x="25.9" xlink:href="#mcd83b09283" y="67.614459"/>
      </g>
     </g>
     <g id="text_13">
      <!-- 6 -->
      <defs>
       <path d="M 33.015625 40.375 
Q 26.375 40.375 22.484375 35.828125 
Q 18.609375 31.296875 18.609375 23.390625 
Q 18.609375 15.53125 22.484375 10.953125 
Q 26.375 6.390625 33.015625 6.390625 
Q 39.65625 6.390625 43.53125 10.953125 
Q 47.40625 15.53125 47.40625 23.390625 
Q 47.40625 31.296875 43.53125 35.828125 
Q 39.65625 40.375 33.015625 40.375 
z
M 52.59375 71.296875 
L 52.59375 62.3125 
Q 48.875 64.0625 45.09375 64.984375 
Q 41.3125 65.921875 37.59375 65.921875 
Q 27.828125 65.921875 22.671875 59.328125 
Q 17.53125 52.734375 16.796875 39.40625 
Q 19.671875 43.65625 24.015625 45.921875 
Q 28.375 48.1875 33.59375 48.1875 
Q 44.578125 48.1875 50.953125 41.515625 
Q 57.328125 34.859375 57.328125 23.390625 
Q 57.328125 12.15625 50.6875 5.359375 
Q 44.046875 -1.421875 33.015625 -1.421875 
Q 20.359375 -1.421875 13.671875 8.265625 
Q 6.984375 17.96875 6.984375 36.375 
Q 6.984375 53.65625 15.1875 63.9375 
Q 23.390625 74.21875 37.203125 74.21875 
Q 40.921875 74.21875 44.703125 73.484375 
Q 48.484375 72.75 52.59375 71.296875 
z
" id="DejaVuSans-36"/>
      </defs>
      <g transform="translate(3.63 76.732584)scale(0.24 -0.24)">
       <use xlink:href="#DejaVuSans-36"/>
      </g>
     </g>
    </g>
    <g id="ytick_8">
     <g id="line2d_38">
      <path clip-path="url(#pb05e9d30b4)" d="M 25.9 28.320017 
L 450.072 28.320017 
" style="fill:none;stroke:#b0b0b0;stroke-linecap:square;stroke-width:0.8;"/>
     </g>
     <g id="line2d_39">
      <g>
       <use style="stroke:#000000;stroke-width:0.8;" x="25.9" xlink:href="#mcd83b09283" y="28.320017"/>
      </g>
     </g>
     <g id="text_14">
      <!-- 7 -->
      <defs>
       <path d="M 8.203125 72.90625 
L 55.078125 72.90625 
L 55.078125 68.703125 
L 28.609375 0 
L 18.3125 0 
L 43.21875 64.59375 
L 8.203125 64.59375 
z
" id="DejaVuSans-37"/>
      </defs>
      <g transform="translate(3.63 37.438142)scale(0.24 -0.24)">
       <use xlink:href="#DejaVuSans-37"/>
      </g>
     </g>
    </g>
   </g>
   <g id="line2d_40">
    <path clip-path="url(#pb05e9d30b4)" d="M 36.644125 291.552306 
L 38.842061 254.536625 
L 36.644125 238.04397 
L 42.923943 238.04397 
L 40.726006 254.536625 
L 42.923943 291.552306 
L 36.644125 291.552306 
" style="fill:none;stroke:#000000;stroke-linecap:square;"/>
   </g>
   <g id="line2d_41">
    <path clip-path="url(#pb05e9d30b4)" d="M 36.644125 291.552306 
L 42.923943 291.552306 
L 42.923943 238.04397 
L 36.644125 238.04397 
L 36.644125 291.552306 
" style="fill:none;"/>
    <defs>
     <path d="M 0 3 
C 0.795609 3 1.55874 2.683901 2.12132 2.12132 
C 2.683901 1.55874 3 0.795609 3 0 
C 3 -0.795609 2.683901 -1.55874 2.12132 -2.12132 
C 1.55874 -2.683901 0.795609 -3 0 -3 
C -0.795609 -3 -1.55874 -2.683901 -2.12132 -2.12132 
C -2.683901 -1.55874 -3 -0.795609 -3 0 
C -3 0.795609 -2.683901 1.55874 -2.12132 2.12132 
C -1.55874 2.683901 -0.795609 3 0 3 
z
" id="m411a985eea" style="stroke:#000000;stroke-width:2;"/>
    </defs>
    <g clip-path="url(#pb05e9d30b4)">
     <use style="stroke:#000000;stroke-width:2;" x="36.644125" xlink:href="#m411a985eea" y="291.552306"/>
     <use style="stroke:#000000;stroke-width:2;" x="42.923943" xlink:href="#m411a985eea" y="291.552306"/>
     <use style="stroke:#000000;stroke-width:2;" x="42.923943" xlink:href="#m411a985eea" y="238.04397"/>
     <use style="stroke:#000000;stroke-width:2;" x="36.644125" xlink:href="#m411a985eea" y="238.04397"/>
     <use style="stroke:#000000;stroke-width:2;" x="36.644125" xlink:href="#m411a985eea" y="291.552306"/>
    </g>
   </g>
   <g id="line2d_42">
    <path clip-path="url(#pb05e9d30b4)" d="M 36.644125 254.536625 
L 42.923943 254.536625 
" style="fill:none;stroke:#000000;stroke-linecap:square;stroke-width:2;"/>
   </g>
   <g id="line2d_43">
    <path clip-path="url(#pb05e9d30b4)" d="M 90.074874 241.913938 
L 92.27281 222.909098 
L 90.074874 213.958939 
L 96.354692 213.958939 
L 94.156755 222.909098 
L 96.354692 241.913938 
L 90.074874 241.913938 
" style="fill:none;stroke:#000000;stroke-linecap:square;"/>
   </g>
   <g id="line2d_44">
    <path clip-path="url(#pb05e9d30b4)" d="M 90.074874 241.913938 
L 96.354692 241.913938 
L 96.354692 213.958939 
L 90.074874 213.958939 
L 90.074874 241.913938 
" style="fill:none;"/>
    <g clip-path="url(#pb05e9d30b4)">
     <use style="stroke:#000000;stroke-width:2;" x="90.074874" xlink:href="#m411a985eea" y="241.913938"/>
     <use style="stroke:#000000;stroke-width:2;" x="96.354692" xlink:href="#m411a985eea" y="241.913938"/>
     <use style="stroke:#000000;stroke-width:2;" x="96.354692" xlink:href="#m411a985eea" y="213.958939"/>
     <use style="stroke:#000000;stroke-width:2;" x="90.074874" xlink:href="#m411a985eea" y="213.958939"/>
     <use style="stroke:#000000;stroke-width:2;" x="90.074874" xlink:href="#m411a985eea" y="241.913938"/>
    </g>
   </g>
   <g id="line2d_45">
    <path clip-path="url(#pb05e9d30b4)" d="M 90.074874 222.909098 
L 96.354692 222.909098 
" style="fill:none;stroke:#000000;stroke-linecap:square;stroke-width:2;"/>
   </g>
   <g id="line2d_46">
    <path clip-path="url(#pb05e9d30b4)" d="M 157.389656 241.667503 
L 159.587593 224.588662 
L 157.389656 219.544891 
L 163.669474 219.544891 
L 161.471538 224.588662 
L 163.669474 241.667503 
L 157.389656 241.667503 
" style="fill:none;stroke:#000000;stroke-linecap:square;"/>
   </g>
   <g id="line2d_47">
    <path clip-path="url(#pb05e9d30b4)" d="M 157.389656 241.667503 
L 163.669474 241.667503 
L 163.669474 219.544891 
L 157.389656 219.544891 
L 157.389656 241.667503 
" style="fill:none;"/>
    <g clip-path="url(#pb05e9d30b4)">
     <use style="stroke:#000000;stroke-width:2;" x="157.389656" xlink:href="#m411a985eea" y="241.667503"/>
     <use style="stroke:#000000;stroke-width:2;" x="163.669474" xlink:href="#m411a985eea" y="241.667503"/>
     <use style="stroke:#000000;stroke-width:2;" x="163.669474" xlink:href="#m411a985eea" y="219.544891"/>
     <use style="stroke:#000000;stroke-width:2;" x="157.389656" xlink:href="#m411a985eea" y="219.544891"/>
     <use style="stroke:#000000;stroke-width:2;" x="157.389656" xlink:href="#m411a985eea" y="241.667503"/>
    </g>
   </g>
   <g id="line2d_48">
    <path clip-path="url(#pb05e9d30b4)" d="M 157.389656 224.588662 
L 163.669474 224.588662 
" style="fill:none;stroke:#000000;stroke-linecap:square;stroke-width:2;"/>
   </g>
   <g id="line2d_49">
    <path clip-path="url(#pb05e9d30b4)" d="M 248.730125 214.761437 
L 250.928061 185.40588 
L 248.730125 167.227198 
L 255.009943 167.227198 
L 252.812006 185.40588 
L 255.009943 214.761437 
L 248.730125 214.761437 
" style="fill:none;stroke:#000000;stroke-linecap:square;"/>
   </g>
   <g id="line2d_50">
    <path clip-path="url(#pb05e9d30b4)" d="M 248.730125 214.761437 
L 255.009943 214.761437 
L 255.009943 167.227198 
L 248.730125 167.227198 
L 248.730125 214.761437 
" style="fill:none;"/>
    <g clip-path="url(#pb05e9d30b4)">
     <use style="stroke:#000000;stroke-width:2;" x="248.730125" xlink:href="#m411a985eea" y="214.761437"/>
     <use style="stroke:#000000;stroke-width:2;" x="255.009943" xlink:href="#m411a985eea" y="214.761437"/>
     <use style="stroke:#000000;stroke-width:2;" x="255.009943" xlink:href="#m411a985eea" y="167.227198"/>
     <use style="stroke:#000000;stroke-width:2;" x="248.730125" xlink:href="#m411a985eea" y="167.227198"/>
     <use style="stroke:#000000;stroke-width:2;" x="248.730125" xlink:href="#m411a985eea" y="214.761437"/>
    </g>
   </g>
   <g id="line2d_51">
    <path clip-path="url(#pb05e9d30b4)" d="M 248.730125 185.40588 
L 255.009943 185.40588 
" style="fill:none;stroke:#000000;stroke-linecap:square;stroke-width:2;"/>
   </g>
   <g id="line2d_52">
    <path clip-path="url(#pb05e9d30b4)" d="M 340.070593 196.159218 
L 342.26853 190.821747 
L 340.070593 190.473297 
L 346.350411 190.473297 
L 344.152475 190.821747 
L 346.350411 196.159218 
L 340.070593 196.159218 
" style="fill:none;stroke:#000000;stroke-linecap:square;"/>
   </g>
   <g id="line2d_53">
    <path clip-path="url(#pb05e9d30b4)" d="M 340.070593 196.159218 
L 346.350411 196.159218 
L 346.350411 190.473297 
L 340.070593 190.473297 
L 340.070593 196.159218 
" style="fill:none;"/>
    <g clip-path="url(#pb05e9d30b4)">
     <use style="stroke:#000000;stroke-width:2;" x="340.070593" xlink:href="#m411a985eea" y="196.159218"/>
     <use style="stroke:#000000;stroke-width:2;" x="346.350411" xlink:href="#m411a985eea" y="196.159218"/>
     <use style="stroke:#000000;stroke-width:2;" x="346.350411" xlink:href="#m411a985eea" y="190.473297"/>
     <use style="stroke:#000000;stroke-width:2;" x="340.070593" xlink:href="#m411a985eea" y="190.473297"/>
     <use style="stroke:#000000;stroke-width:2;" x="340.070593" xlink:href="#m411a985eea" y="196.159218"/>
    </g>
   </g>
   <g id="line2d_54">
    <path clip-path="url(#pb05e9d30b4)" d="M 340.070593 190.821747 
L 346.350411 190.821747 
" style="fill:none;stroke:#000000;stroke-linecap:square;stroke-width:2;"/>
   </g>
   <g id="line2d_55">
    <path clip-path="url(#pb05e9d30b4)" d="M 431.411062 199.537227 
L 433.608998 197.792813 
L 431.411062 193.934529 
L 437.69088 193.934529 
L 435.492943 197.792813 
L 437.69088 199.537227 
L 431.411062 199.537227 
" style="fill:none;stroke:#000000;stroke-linecap:square;"/>
   </g>
   <g id="line2d_56">
    <path clip-path="url(#pb05e9d30b4)" d="M 431.411062 199.537227 
L 437.69088 199.537227 
L 437.69088 193.934529 
L 431.411062 193.934529 
L 431.411062 199.537227 
" style="fill:none;"/>
    <g clip-path="url(#pb05e9d30b4)">
     <use style="stroke:#000000;stroke-width:2;" x="431.411062" xlink:href="#m411a985eea" y="199.537227"/>
     <use style="stroke:#000000;stroke-width:2;" x="437.69088" xlink:href="#m411a985eea" y="199.537227"/>
     <use style="stroke:#000000;stroke-width:2;" x="437.69088" xlink:href="#m411a985eea" y="193.934529"/>
     <use style="stroke:#000000;stroke-width:2;" x="431.411062" xlink:href="#m411a985eea" y="193.934529"/>
     <use style="stroke:#000000;stroke-width:2;" x="431.411062" xlink:href="#m411a985eea" y="199.537227"/>
    </g>
   </g>
   <g id="line2d_57">
    <path clip-path="url(#pb05e9d30b4)" d="M 431.411062 197.792813 
L 437.69088 197.792813 
" style="fill:none;stroke:#000000;stroke-linecap:square;stroke-width:2;"/>
   </g>
   <g id="line2d_58">
    <path clip-path="url(#pb05e9d30b4)" d="M 39.784034 252.719118 
L 93.214783 232.779669 
" style="fill:none;stroke:#000000;stroke-linecap:square;stroke-width:4;"/>
   </g>
   <g id="line2d_59">
    <path clip-path="url(#pb05e9d30b4)" d="M 93.214783 232.779669 
L 160.529565 216.539799 
" style="fill:none;stroke:#000000;stroke-linecap:square;stroke-width:4;"/>
   </g>
   <g id="line2d_60">
    <path clip-path="url(#pb05e9d30b4)" d="M 160.529565 216.539799 
L 251.870034 177.417238 
" style="fill:none;stroke:#000000;stroke-linecap:square;stroke-width:4;"/>
   </g>
   <g id="line2d_61">
    <path clip-path="url(#pb05e9d30b4)" d="M 251.870034 177.417238 
L 343.210502 188.929712 
" style="fill:none;stroke:#000000;stroke-linecap:square;stroke-width:4;"/>
   </g>
   <g id="line2d_62">
    <path clip-path="url(#pb05e9d30b4)" d="M 343.210502 188.929712 
L 434.550971 192.222483 
" style="fill:none;stroke:#000000;stroke-linecap:square;stroke-width:4;"/>
   </g>
   <g id="line2d_63">
    <path clip-path="url(#pb05e9d30b4)" d="M 39.784034 252.719118 
L 93.214783 232.779669 
L 160.529565 216.539799 
L 251.870034 177.417238 
L 343.210502 188.929712 
L 434.550971 192.222483 
" style="fill:none;"/>
    <defs>
     <path d="M 0 10 
C 2.652031 10 5.195799 8.946337 7.071068 7.071068 
C 8.946337 5.195799 10 2.652031 10 0 
C 10 -2.652031 8.946337 -5.195799 7.071068 -7.071068 
C 5.195799 -8.946337 2.652031 -10 0 -10 
C -2.652031 -10 -5.195799 -8.946337 -7.071068 -7.071068 
C -8.946337 -5.195799 -10 -2.652031 -10 0 
C -10 2.652031 -8.946337 5.195799 -7.071068 7.071068 
C -5.195799 8.946337 -2.652031 10 0 10 
z
" id="m73c063d7f3" style="stroke:#000000;stroke-width:2;"/>
    </defs>
    <g clip-path="url(#pb05e9d30b4)">
     <use style="stroke:#000000;stroke-width:2;" x="39.784034" xlink:href="#m73c063d7f3" y="252.719118"/>
     <use style="stroke:#000000;stroke-width:2;" x="93.214783" xlink:href="#m73c063d7f3" y="232.779669"/>
     <use style="stroke:#000000;stroke-width:2;" x="160.529565" xlink:href="#m73c063d7f3" y="216.539799"/>
     <use style="stroke:#000000;stroke-width:2;" x="251.870034" xlink:href="#m73c063d7f3" y="177.417238"/>
     <use style="stroke:#000000;stroke-width:2;" x="343.210502" xlink:href="#m73c063d7f3" y="188.929712"/>
     <use style="stroke:#000000;stroke-width:2;" x="434.550971" xlink:href="#m73c063d7f3" y="192.222483"/>
    </g>
   </g>
   <g id="line2d_64">
    <path clip-path="url(#pb05e9d30b4)" d="M 35.597488 209.019417 
L 38.52807 195.54565 
L 35.597488 195.180602 
L 43.970579 195.180602 
L 41.039997 195.54565 
L 43.970579 209.019417 
L 35.597488 209.019417 
" style="fill:none;stroke:#0000ff;stroke-linecap:square;"/>
   </g>
   <g id="line2d_65">
    <path clip-path="url(#pb05e9d30b4)" d="M 35.597488 209.019417 
L 43.970579 209.019417 
L 43.970579 195.180602 
L 35.597488 195.180602 
L 35.597488 209.019417 
" style="fill:none;"/>
    <defs>
     <path d="M 0 1.5 
C 0.397805 1.5 0.77937 1.341951 1.06066 1.06066 
C 1.341951 0.77937 1.5 0.397805 1.5 0 
C 1.5 -0.397805 1.341951 -0.77937 1.06066 -1.06066 
C 0.77937 -1.341951 0.397805 -1.5 0 -1.5 
C -0.397805 -1.5 -0.77937 -1.341951 -1.06066 -1.06066 
C -1.341951 -0.77937 -1.5 -0.397805 -1.5 0 
C -1.5 0.397805 -1.341951 0.77937 -1.06066 1.06066 
C -0.77937 1.341951 -0.397805 1.5 0 1.5 
z
" id="mf455600e44" style="stroke:#0000ff;"/>
    </defs>
    <g clip-path="url(#pb05e9d30b4)">
     <use style="fill:#0000ff;stroke:#0000ff;" x="35.597488" xlink:href="#mf455600e44" y="209.019417"/>
     <use style="fill:#0000ff;stroke:#0000ff;" x="43.970579" xlink:href="#mf455600e44" y="209.019417"/>
     <use style="fill:#0000ff;stroke:#0000ff;" x="43.970579" xlink:href="#mf455600e44" y="195.180602"/>
     <use style="fill:#0000ff;stroke:#0000ff;" x="35.597488" xlink:href="#mf455600e44" y="195.180602"/>
     <use style="fill:#0000ff;stroke:#0000ff;" x="35.597488" xlink:href="#mf455600e44" y="209.019417"/>
    </g>
   </g>
   <g id="line2d_66">
    <path clip-path="url(#pb05e9d30b4)" d="M 35.597488 195.54565 
L 43.970579 195.54565 
" style="fill:none;stroke:#0000ff;stroke-linecap:square;stroke-width:2;"/>
   </g>
   <g id="line2d_67">
    <path clip-path="url(#pb05e9d30b4)" d="M 89.028237 189.41996 
L 91.958819 182.852527 
L 89.028237 176.651156 
L 97.401328 176.651156 
L 94.470746 182.852527 
L 97.401328 189.41996 
L 89.028237 189.41996 
" style="fill:none;stroke:#0000ff;stroke-linecap:square;"/>
   </g>
   <g id="line2d_68">
    <path clip-path="url(#pb05e9d30b4)" d="M 89.028237 189.41996 
L 97.401328 189.41996 
L 97.401328 176.651156 
L 89.028237 176.651156 
L 89.028237 189.41996 
" style="fill:none;"/>
    <g clip-path="url(#pb05e9d30b4)">
     <use style="fill:#0000ff;stroke:#0000ff;" x="89.028237" xlink:href="#mf455600e44" y="189.41996"/>
     <use style="fill:#0000ff;stroke:#0000ff;" x="97.401328" xlink:href="#mf455600e44" y="189.41996"/>
     <use style="fill:#0000ff;stroke:#0000ff;" x="97.401328" xlink:href="#mf455600e44" y="176.651156"/>
     <use style="fill:#0000ff;stroke:#0000ff;" x="89.028237" xlink:href="#mf455600e44" y="176.651156"/>
     <use style="fill:#0000ff;stroke:#0000ff;" x="89.028237" xlink:href="#mf455600e44" y="189.41996"/>
    </g>
   </g>
   <g id="line2d_69">
    <path clip-path="url(#pb05e9d30b4)" d="M 89.028237 182.852527 
L 97.401328 182.852527 
" style="fill:none;stroke:#0000ff;stroke-linecap:square;stroke-width:2;"/>
   </g>
   <g id="line2d_70">
    <path clip-path="url(#pb05e9d30b4)" d="M 156.34302 171.762433 
L 159.273602 164.907244 
L 156.34302 159.072106 
L 164.716111 159.072106 
L 161.785529 164.907244 
L 164.716111 171.762433 
L 156.34302 171.762433 
" style="fill:none;stroke:#0000ff;stroke-linecap:square;"/>
   </g>
   <g id="line2d_71">
    <path clip-path="url(#pb05e9d30b4)" d="M 156.34302 171.762433 
L 164.716111 171.762433 
L 164.716111 159.072106 
L 156.34302 159.072106 
L 156.34302 171.762433 
" style="fill:none;"/>
    <g clip-path="url(#pb05e9d30b4)">
     <use style="fill:#0000ff;stroke:#0000ff;" x="156.34302" xlink:href="#mf455600e44" y="171.762433"/>
     <use style="fill:#0000ff;stroke:#0000ff;" x="164.716111" xlink:href="#mf455600e44" y="171.762433"/>
     <use style="fill:#0000ff;stroke:#0000ff;" x="164.716111" xlink:href="#mf455600e44" y="159.072106"/>
     <use style="fill:#0000ff;stroke:#0000ff;" x="156.34302" xlink:href="#mf455600e44" y="159.072106"/>
     <use style="fill:#0000ff;stroke:#0000ff;" x="156.34302" xlink:href="#mf455600e44" y="171.762433"/>
    </g>
   </g>
   <g id="line2d_72">
    <path clip-path="url(#pb05e9d30b4)" d="M 156.34302 164.907244 
L 164.716111 164.907244 
" style="fill:none;stroke:#0000ff;stroke-linecap:square;stroke-width:2;"/>
   </g>
   <g id="line2d_73">
    <path clip-path="url(#pb05e9d30b4)" d="M 247.683488 182.001125 
L 250.61407 173.385502 
L 247.683488 164.2806 
L 256.056579 164.2806 
L 253.125997 173.385502 
L 256.056579 182.001125 
L 247.683488 182.001125 
" style="fill:none;stroke:#0000ff;stroke-linecap:square;"/>
   </g>
   <g id="line2d_74">
    <path clip-path="url(#pb05e9d30b4)" d="M 247.683488 182.001125 
L 256.056579 182.001125 
L 256.056579 164.2806 
L 247.683488 164.2806 
L 247.683488 182.001125 
" style="fill:none;"/>
    <g clip-path="url(#pb05e9d30b4)">
     <use style="fill:#0000ff;stroke:#0000ff;" x="247.683488" xlink:href="#mf455600e44" y="182.001125"/>
     <use style="fill:#0000ff;stroke:#0000ff;" x="256.056579" xlink:href="#mf455600e44" y="182.001125"/>
     <use style="fill:#0000ff;stroke:#0000ff;" x="256.056579" xlink:href="#mf455600e44" y="164.2806"/>
     <use style="fill:#0000ff;stroke:#0000ff;" x="247.683488" xlink:href="#mf455600e44" y="164.2806"/>
     <use style="fill:#0000ff;stroke:#0000ff;" x="247.683488" xlink:href="#mf455600e44" y="182.001125"/>
    </g>
   </g>
   <g id="line2d_75">
    <path clip-path="url(#pb05e9d30b4)" d="M 247.683488 173.385502 
L 256.056579 173.385502 
" style="fill:none;stroke:#0000ff;stroke-linecap:square;stroke-width:2;"/>
   </g>
   <g id="line2d_76">
    <path clip-path="url(#pb05e9d30b4)" d="M 339.023957 182.23632 
L 341.954539 176.539066 
L 339.023957 176.44142 
L 347.397048 176.44142 
L 344.466466 176.539066 
L 347.397048 182.23632 
L 339.023957 182.23632 
" style="fill:none;stroke:#0000ff;stroke-linecap:square;"/>
   </g>
   <g id="line2d_77">
    <path clip-path="url(#pb05e9d30b4)" d="M 339.023957 182.23632 
L 347.397048 182.23632 
L 347.397048 176.44142 
L 339.023957 176.44142 
L 339.023957 182.23632 
" style="fill:none;"/>
    <g clip-path="url(#pb05e9d30b4)">
     <use style="fill:#0000ff;stroke:#0000ff;" x="339.023957" xlink:href="#mf455600e44" y="182.23632"/>
     <use style="fill:#0000ff;stroke:#0000ff;" x="347.397048" xlink:href="#mf455600e44" y="182.23632"/>
     <use style="fill:#0000ff;stroke:#0000ff;" x="347.397048" xlink:href="#mf455600e44" y="176.44142"/>
     <use style="fill:#0000ff;stroke:#0000ff;" x="339.023957" xlink:href="#mf455600e44" y="176.44142"/>
     <use style="fill:#0000ff;stroke:#0000ff;" x="339.023957" xlink:href="#mf455600e44" y="182.23632"/>
    </g>
   </g>
   <g id="line2d_78">
    <path clip-path="url(#pb05e9d30b4)" d="M 339.023957 176.539066 
L 347.397048 176.539066 
" style="fill:none;stroke:#0000ff;stroke-linecap:square;stroke-width:2;"/>
   </g>
   <g id="line2d_79">
    <path clip-path="url(#pb05e9d30b4)" d="M 430.364425 186.817161 
L 433.295007 184.946199 
L 430.364425 184.330412 
L 438.737516 184.330412 
L 435.806934 184.946199 
L 438.737516 186.817161 
L 430.364425 186.817161 
" style="fill:none;stroke:#0000ff;stroke-linecap:square;"/>
   </g>
   <g id="line2d_80">
    <path clip-path="url(#pb05e9d30b4)" d="M 430.364425 186.817161 
L 438.737516 186.817161 
L 438.737516 184.330412 
L 430.364425 184.330412 
L 430.364425 186.817161 
" style="fill:none;"/>
    <g clip-path="url(#pb05e9d30b4)">
     <use style="fill:#0000ff;stroke:#0000ff;" x="430.364425" xlink:href="#mf455600e44" y="186.817161"/>
     <use style="fill:#0000ff;stroke:#0000ff;" x="438.737516" xlink:href="#mf455600e44" y="186.817161"/>
     <use style="fill:#0000ff;stroke:#0000ff;" x="438.737516" xlink:href="#mf455600e44" y="184.330412"/>
     <use style="fill:#0000ff;stroke:#0000ff;" x="430.364425" xlink:href="#mf455600e44" y="184.330412"/>
     <use style="fill:#0000ff;stroke:#0000ff;" x="430.364425" xlink:href="#mf455600e44" y="186.817161"/>
    </g>
   </g>
   <g id="line2d_81">
    <path clip-path="url(#pb05e9d30b4)" d="M 430.364425 184.946199 
L 438.737516 184.946199 
" style="fill:none;stroke:#0000ff;stroke-linecap:square;stroke-width:2;"/>
   </g>
   <g id="line2d_82">
    <path clip-path="url(#pb05e9d30b4)" d="M 39.784034 199.500358 
L 93.214783 177.080145 
" style="fill:none;stroke:#0000ff;stroke-linecap:square;stroke-width:4;"/>
   </g>
   <g id="line2d_83">
    <path clip-path="url(#pb05e9d30b4)" d="M 93.214783 177.080145 
L 160.529565 169.337359 
" style="fill:none;stroke:#0000ff;stroke-linecap:square;stroke-width:4;"/>
   </g>
   <g id="line2d_84">
    <path clip-path="url(#pb05e9d30b4)" d="M 160.529565 169.337359 
L 251.870034 168.268078 
" style="fill:none;stroke:#0000ff;stroke-linecap:square;stroke-width:4;"/>
   </g>
   <g id="line2d_85">
    <path clip-path="url(#pb05e9d30b4)" d="M 251.870034 168.268078 
L 343.210502 178.477347 
" style="fill:none;stroke:#0000ff;stroke-linecap:square;stroke-width:4;"/>
   </g>
   <g id="line2d_86">
    <path clip-path="url(#pb05e9d30b4)" d="M 343.210502 178.477347 
L 434.550971 183.397002 
" style="fill:none;stroke:#0000ff;stroke-linecap:square;stroke-width:4;"/>
   </g>
   <g id="line2d_87">
    <path clip-path="url(#pb05e9d30b4)" d="M 39.784034 199.500358 
L 93.214783 177.080145 
L 160.529565 169.337359 
L 251.870034 168.268078 
L 343.210502 178.477347 
L 434.550971 183.397002 
" style="fill:none;"/>
    <defs>
     <path d="M 0 5 
C 1.326016 5 2.597899 4.473168 3.535534 3.535534 
C 4.473168 2.597899 5 1.326016 5 0 
C 5 -1.326016 4.473168 -2.597899 3.535534 -3.535534 
C 2.597899 -4.473168 1.326016 -5 0 -5 
C -1.326016 -5 -2.597899 -4.473168 -3.535534 -3.535534 
C -4.473168 -2.597899 -5 -1.326016 -5 0 
C -5 1.326016 -4.473168 2.597899 -3.535534 3.535534 
C -2.597899 4.473168 -1.326016 5 0 5 
z
" id="m5f4b2bb0da" style="stroke:#0000ff;"/>
    </defs>
    <g clip-path="url(#pb05e9d30b4)">
     <use style="fill:#0000ff;stroke:#0000ff;" x="39.784034" xlink:href="#m5f4b2bb0da" y="199.500358"/>
     <use style="fill:#0000ff;stroke:#0000ff;" x="93.214783" xlink:href="#m5f4b2bb0da" y="177.080145"/>
     <use style="fill:#0000ff;stroke:#0000ff;" x="160.529565" xlink:href="#m5f4b2bb0da" y="169.337359"/>
     <use style="fill:#0000ff;stroke:#0000ff;" x="251.870034" xlink:href="#m5f4b2bb0da" y="168.268078"/>
     <use style="fill:#0000ff;stroke:#0000ff;" x="343.210502" xlink:href="#m5f4b2bb0da" y="178.477347"/>
     <use style="fill:#0000ff;stroke:#0000ff;" x="434.550971" xlink:href="#m5f4b2bb0da" y="183.397002"/>
    </g>
   </g>
   <g id="line2d_88">
    <path clip-path="url(#pb05e9d30b4)" d="M 34.550852 175.899052 
L 38.214079 164.11406 
L 34.550852 155.006307 
L 45.017216 155.006307 
L 41.353988 164.11406 
L 45.017216 175.899052 
L 34.550852 175.899052 
" style="fill:none;stroke:#00bfbf;stroke-linecap:square;"/>
   </g>
   <g id="line2d_89">
    <path clip-path="url(#pb05e9d30b4)" d="M 34.550852 175.899052 
L 45.017216 175.899052 
L 45.017216 155.006307 
L 34.550852 155.006307 
L 34.550852 175.899052 
" style="fill:none;"/>
    <defs>
     <path d="M -0 3 
L 3 -3 
L -3 -3 
z
" id="mf4d6ddb31c" style="stroke:#00bfbf;stroke-linejoin:miter;stroke-width:2;"/>
    </defs>
    <g clip-path="url(#pb05e9d30b4)">
     <use style="fill:#00bfbf;stroke:#00bfbf;stroke-linejoin:miter;stroke-width:2;" x="34.550852" xlink:href="#mf4d6ddb31c" y="175.899052"/>
     <use style="fill:#00bfbf;stroke:#00bfbf;stroke-linejoin:miter;stroke-width:2;" x="45.017216" xlink:href="#mf4d6ddb31c" y="175.899052"/>
     <use style="fill:#00bfbf;stroke:#00bfbf;stroke-linejoin:miter;stroke-width:2;" x="45.017216" xlink:href="#mf4d6ddb31c" y="155.006307"/>
     <use style="fill:#00bfbf;stroke:#00bfbf;stroke-linejoin:miter;stroke-width:2;" x="34.550852" xlink:href="#mf4d6ddb31c" y="155.006307"/>
     <use style="fill:#00bfbf;stroke:#00bfbf;stroke-linejoin:miter;stroke-width:2;" x="34.550852" xlink:href="#mf4d6ddb31c" y="175.899052"/>
    </g>
   </g>
   <g id="line2d_90">
    <path clip-path="url(#pb05e9d30b4)" d="M 34.550852 164.11406 
L 45.017216 164.11406 
" style="fill:none;stroke:#00bfbf;stroke-linecap:square;stroke-width:2;"/>
   </g>
   <g id="line2d_91">
    <path clip-path="url(#pb05e9d30b4)" d="M 87.981601 160.187834 
L 91.644828 157.389108 
L 87.981601 156.599112 
L 98.447964 156.599112 
L 94.784737 157.389108 
L 98.447964 160.187834 
L 87.981601 160.187834 
" style="fill:none;stroke:#00bfbf;stroke-linecap:square;"/>
   </g>
   <g id="line2d_92">
    <path clip-path="url(#pb05e9d30b4)" d="M 87.981601 160.187834 
L 98.447964 160.187834 
L 98.447964 156.599112 
L 87.981601 156.599112 
L 87.981601 160.187834 
" style="fill:none;"/>
    <g clip-path="url(#pb05e9d30b4)">
     <use style="fill:#00bfbf;stroke:#00bfbf;stroke-linejoin:miter;stroke-width:2;" x="87.981601" xlink:href="#mf4d6ddb31c" y="160.187834"/>
     <use style="fill:#00bfbf;stroke:#00bfbf;stroke-linejoin:miter;stroke-width:2;" x="98.447964" xlink:href="#mf4d6ddb31c" y="160.187834"/>
     <use style="fill:#00bfbf;stroke:#00bfbf;stroke-linejoin:miter;stroke-width:2;" x="98.447964" xlink:href="#mf4d6ddb31c" y="156.599112"/>
     <use style="fill:#00bfbf;stroke:#00bfbf;stroke-linejoin:miter;stroke-width:2;" x="87.981601" xlink:href="#mf4d6ddb31c" y="156.599112"/>
     <use style="fill:#00bfbf;stroke:#00bfbf;stroke-linejoin:miter;stroke-width:2;" x="87.981601" xlink:href="#mf4d6ddb31c" y="160.187834"/>
    </g>
   </g>
   <g id="line2d_93">
    <path clip-path="url(#pb05e9d30b4)" d="M 87.981601 157.389108 
L 98.447964 157.389108 
" style="fill:none;stroke:#00bfbf;stroke-linecap:square;stroke-width:2;"/>
   </g>
   <g id="line2d_94">
    <path clip-path="url(#pb05e9d30b4)" d="M 155.296383 164.704204 
L 158.959611 162.395194 
L 155.296383 157.276413 
L 165.762747 157.276413 
L 162.09952 162.395194 
L 165.762747 164.704204 
L 155.296383 164.704204 
" style="fill:none;stroke:#00bfbf;stroke-linecap:square;"/>
   </g>
   <g id="line2d_95">
    <path clip-path="url(#pb05e9d30b4)" d="M 155.296383 164.704204 
L 165.762747 164.704204 
L 165.762747 157.276413 
L 155.296383 157.276413 
L 155.296383 164.704204 
" style="fill:none;"/>
    <g clip-path="url(#pb05e9d30b4)">
     <use style="fill:#00bfbf;stroke:#00bfbf;stroke-linejoin:miter;stroke-width:2;" x="155.296383" xlink:href="#mf4d6ddb31c" y="164.704204"/>
     <use style="fill:#00bfbf;stroke:#00bfbf;stroke-linejoin:miter;stroke-width:2;" x="165.762747" xlink:href="#mf4d6ddb31c" y="164.704204"/>
     <use style="fill:#00bfbf;stroke:#00bfbf;stroke-linejoin:miter;stroke-width:2;" x="165.762747" xlink:href="#mf4d6ddb31c" y="157.276413"/>
     <use style="fill:#00bfbf;stroke:#00bfbf;stroke-linejoin:miter;stroke-width:2;" x="155.296383" xlink:href="#mf4d6ddb31c" y="157.276413"/>
     <use style="fill:#00bfbf;stroke:#00bfbf;stroke-linejoin:miter;stroke-width:2;" x="155.296383" xlink:href="#mf4d6ddb31c" y="164.704204"/>
    </g>
   </g>
   <g id="line2d_96">
    <path clip-path="url(#pb05e9d30b4)" d="M 155.296383 162.395194 
L 165.762747 162.395194 
" style="fill:none;stroke:#00bfbf;stroke-linecap:square;stroke-width:2;"/>
   </g>
   <g id="line2d_97">
    <path clip-path="url(#pb05e9d30b4)" d="M 246.636852 171.128785 
L 250.300079 169.63245 
L 246.636852 158.110831 
L 257.103216 158.110831 
L 253.439988 169.63245 
L 257.103216 171.128785 
L 246.636852 171.128785 
" style="fill:none;stroke:#00bfbf;stroke-linecap:square;"/>
   </g>
   <g id="line2d_98">
    <path clip-path="url(#pb05e9d30b4)" d="M 246.636852 171.128785 
L 257.103216 171.128785 
L 257.103216 158.110831 
L 246.636852 158.110831 
L 246.636852 171.128785 
" style="fill:none;"/>
    <g clip-path="url(#pb05e9d30b4)">
     <use style="fill:#00bfbf;stroke:#00bfbf;stroke-linejoin:miter;stroke-width:2;" x="246.636852" xlink:href="#mf4d6ddb31c" y="171.128785"/>
     <use style="fill:#00bfbf;stroke:#00bfbf;stroke-linejoin:miter;stroke-width:2;" x="257.103216" xlink:href="#mf4d6ddb31c" y="171.128785"/>
     <use style="fill:#00bfbf;stroke:#00bfbf;stroke-linejoin:miter;stroke-width:2;" x="257.103216" xlink:href="#mf4d6ddb31c" y="158.110831"/>
     <use style="fill:#00bfbf;stroke:#00bfbf;stroke-linejoin:miter;stroke-width:2;" x="246.636852" xlink:href="#mf4d6ddb31c" y="158.110831"/>
     <use style="fill:#00bfbf;stroke:#00bfbf;stroke-linejoin:miter;stroke-width:2;" x="246.636852" xlink:href="#mf4d6ddb31c" y="171.128785"/>
    </g>
   </g>
   <g id="line2d_99">
    <path clip-path="url(#pb05e9d30b4)" d="M 246.636852 169.63245 
L 257.103216 169.63245 
" style="fill:none;stroke:#00bfbf;stroke-linecap:square;stroke-width:2;"/>
   </g>
   <g id="line2d_100">
    <path clip-path="url(#pb05e9d30b4)" d="M 337.97732 169.98427 
L 341.640548 169.214627 
L 337.97732 166.596107 
L 348.443684 166.596107 
L 344.780457 169.214627 
L 348.443684 169.98427 
L 337.97732 169.98427 
" style="fill:none;stroke:#00bfbf;stroke-linecap:square;"/>
   </g>
   <g id="line2d_101">
    <path clip-path="url(#pb05e9d30b4)" d="M 337.97732 169.98427 
L 348.443684 169.98427 
L 348.443684 166.596107 
L 337.97732 166.596107 
L 337.97732 169.98427 
" style="fill:none;"/>
    <g clip-path="url(#pb05e9d30b4)">
     <use style="fill:#00bfbf;stroke:#00bfbf;stroke-linejoin:miter;stroke-width:2;" x="337.97732" xlink:href="#mf4d6ddb31c" y="169.98427"/>
     <use style="fill:#00bfbf;stroke:#00bfbf;stroke-linejoin:miter;stroke-width:2;" x="348.443684" xlink:href="#mf4d6ddb31c" y="169.98427"/>
     <use style="fill:#00bfbf;stroke:#00bfbf;stroke-linejoin:miter;stroke-width:2;" x="348.443684" xlink:href="#mf4d6ddb31c" y="166.596107"/>
     <use style="fill:#00bfbf;stroke:#00bfbf;stroke-linejoin:miter;stroke-width:2;" x="337.97732" xlink:href="#mf4d6ddb31c" y="166.596107"/>
     <use style="fill:#00bfbf;stroke:#00bfbf;stroke-linejoin:miter;stroke-width:2;" x="337.97732" xlink:href="#mf4d6ddb31c" y="169.98427"/>
    </g>
   </g>
   <g id="line2d_102">
    <path clip-path="url(#pb05e9d30b4)" d="M 337.97732 169.214627 
L 348.443684 169.214627 
" style="fill:none;stroke:#00bfbf;stroke-linecap:square;stroke-width:2;"/>
   </g>
   <g id="line2d_103">
    <path clip-path="url(#pb05e9d30b4)" d="M 429.317789 106.432634 
L 432.981016 86.008159 
L 429.317789 71.902066 
L 439.784153 71.902066 
L 436.120925 86.008159 
L 439.784153 106.432634 
L 429.317789 106.432634 
" style="fill:none;stroke:#00bfbf;stroke-linecap:square;"/>
   </g>
   <g id="line2d_104">
    <path clip-path="url(#pb05e9d30b4)" d="M 429.317789 106.432634 
L 439.784153 106.432634 
L 439.784153 71.902066 
L 429.317789 71.902066 
L 429.317789 106.432634 
" style="fill:none;"/>
    <g clip-path="url(#pb05e9d30b4)">
     <use style="fill:#00bfbf;stroke:#00bfbf;stroke-linejoin:miter;stroke-width:2;" x="429.317789" xlink:href="#mf4d6ddb31c" y="106.432634"/>
     <use style="fill:#00bfbf;stroke:#00bfbf;stroke-linejoin:miter;stroke-width:2;" x="439.784153" xlink:href="#mf4d6ddb31c" y="106.432634"/>
     <use style="fill:#00bfbf;stroke:#00bfbf;stroke-linejoin:miter;stroke-width:2;" x="439.784153" xlink:href="#mf4d6ddb31c" y="71.902066"/>
     <use style="fill:#00bfbf;stroke:#00bfbf;stroke-linejoin:miter;stroke-width:2;" x="429.317789" xlink:href="#mf4d6ddb31c" y="71.902066"/>
     <use style="fill:#00bfbf;stroke:#00bfbf;stroke-linejoin:miter;stroke-width:2;" x="429.317789" xlink:href="#mf4d6ddb31c" y="106.432634"/>
    </g>
   </g>
   <g id="line2d_105">
    <path clip-path="url(#pb05e9d30b4)" d="M 429.317789 86.008159 
L 439.784153 86.008159 
" style="fill:none;stroke:#00bfbf;stroke-linecap:square;stroke-width:2;"/>
   </g>
   <g id="line2d_106">
    <path clip-path="url(#pb05e9d30b4)" d="M 39.784034 170.609345 
L 93.214783 161.618818 
" style="fill:none;stroke:#00bfbf;stroke-linecap:square;stroke-width:4;"/>
   </g>
   <g id="line2d_107">
    <path clip-path="url(#pb05e9d30b4)" d="M 93.214783 161.618818 
L 160.529565 135.78962 
" style="fill:none;stroke:#00bfbf;stroke-linecap:square;stroke-width:4;"/>
   </g>
   <g id="line2d_108">
    <path clip-path="url(#pb05e9d30b4)" d="M 160.529565 135.78962 
L 251.870034 135.010983 
" style="fill:none;stroke:#00bfbf;stroke-linecap:square;stroke-width:4;"/>
   </g>
   <g id="line2d_109">
    <path clip-path="url(#pb05e9d30b4)" d="M 251.870034 135.010983 
L 343.210502 145.812835 
" style="fill:none;stroke:#00bfbf;stroke-linecap:square;stroke-width:4;"/>
   </g>
   <g id="line2d_110">
    <path clip-path="url(#pb05e9d30b4)" d="M 343.210502 145.812835 
L 434.550971 85.392601 
" style="fill:none;stroke:#00bfbf;stroke-linecap:square;stroke-width:4;"/>
   </g>
   <g id="line2d_111">
    <path clip-path="url(#pb05e9d30b4)" d="M 39.784034 170.609345 
L 93.214783 161.618818 
L 160.529565 135.78962 
L 251.870034 135.010983 
L 343.210502 145.812835 
L 434.550971 85.392601 
" style="fill:none;"/>
    <defs>
     <path d="M -0 10 
L 10 -10 
L -10 -10 
z
" id="me6bd8be81b" style="stroke:#000000;stroke-linejoin:miter;stroke-width:2;"/>
    </defs>
    <g clip-path="url(#pb05e9d30b4)">
     <use style="fill:#00bfbf;stroke:#000000;stroke-linejoin:miter;stroke-width:2;" x="39.784034" xlink:href="#me6bd8be81b" y="170.609345"/>
     <use style="fill:#00bfbf;stroke:#000000;stroke-linejoin:miter;stroke-width:2;" x="93.214783" xlink:href="#me6bd8be81b" y="161.618818"/>
     <use style="fill:#00bfbf;stroke:#000000;stroke-linejoin:miter;stroke-width:2;" x="160.529565" xlink:href="#me6bd8be81b" y="135.78962"/>
     <use style="fill:#00bfbf;stroke:#000000;stroke-linejoin:miter;stroke-width:2;" x="251.870034" xlink:href="#me6bd8be81b" y="135.010983"/>
     <use style="fill:#00bfbf;stroke:#000000;stroke-linejoin:miter;stroke-width:2;" x="343.210502" xlink:href="#me6bd8be81b" y="145.812835"/>
     <use style="fill:#00bfbf;stroke:#000000;stroke-linejoin:miter;stroke-width:2;" x="434.550971" xlink:href="#me6bd8be81b" y="85.392601"/>
    </g>
   </g>
   <g id="line2d_112">
    <path clip-path="url(#pb05e9d30b4)" d="M 33.504216 170.247565 
L 37.900088 159.505243 
L 33.504216 156.97991 
L 46.063852 156.97991 
L 41.667979 159.505243 
L 46.063852 170.247565 
L 33.504216 170.247565 
" style="fill:none;stroke:#008000;stroke-linecap:square;"/>
   </g>
   <g id="line2d_113">
    <path clip-path="url(#pb05e9d30b4)" d="M 33.504216 170.247565 
L 46.063852 170.247565 
L 46.063852 156.97991 
L 33.504216 156.97991 
L 33.504216 170.247565 
" style="fill:none;"/>
    <defs>
     <path d="M 0 1.5 
C 0.397805 1.5 0.77937 1.341951 1.06066 1.06066 
C 1.341951 0.77937 1.5 0.397805 1.5 0 
C 1.5 -0.397805 1.341951 -0.77937 1.06066 -1.06066 
C 0.77937 -1.341951 0.397805 -1.5 0 -1.5 
C -0.397805 -1.5 -0.77937 -1.341951 -1.06066 -1.06066 
C -1.341951 -0.77937 -1.5 -0.397805 -1.5 0 
C -1.5 0.397805 -1.341951 0.77937 -1.06066 1.06066 
C -0.77937 1.341951 -0.397805 1.5 0 1.5 
z
" id="mea8380381e" style="stroke:#008000;"/>
    </defs>
    <g clip-path="url(#pb05e9d30b4)">
     <use style="fill:#008000;stroke:#008000;" x="33.504216" xlink:href="#mea8380381e" y="170.247565"/>
     <use style="fill:#008000;stroke:#008000;" x="46.063852" xlink:href="#mea8380381e" y="170.247565"/>
     <use style="fill:#008000;stroke:#008000;" x="46.063852" xlink:href="#mea8380381e" y="156.97991"/>
     <use style="fill:#008000;stroke:#008000;" x="33.504216" xlink:href="#mea8380381e" y="156.97991"/>
     <use style="fill:#008000;stroke:#008000;" x="33.504216" xlink:href="#mea8380381e" y="170.247565"/>
    </g>
   </g>
   <g id="line2d_114">
    <path clip-path="url(#pb05e9d30b4)" d="M 33.504216 159.505243 
L 46.063852 159.505243 
" style="fill:none;stroke:#008000;stroke-linecap:square;stroke-width:2;"/>
   </g>
   <g id="line2d_115">
    <path clip-path="url(#pb05e9d30b4)" d="M 86.934964 162.216895 
L 91.330837 158.150881 
L 86.934964 155.688662 
L 99.494601 155.688662 
L 95.098728 158.150881 
L 99.494601 162.216895 
L 86.934964 162.216895 
" style="fill:none;stroke:#008000;stroke-linecap:square;"/>
   </g>
   <g id="line2d_116">
    <path clip-path="url(#pb05e9d30b4)" d="M 86.934964 162.216895 
L 99.494601 162.216895 
L 99.494601 155.688662 
L 86.934964 155.688662 
L 86.934964 162.216895 
" style="fill:none;"/>
    <g clip-path="url(#pb05e9d30b4)">
     <use style="fill:#008000;stroke:#008000;" x="86.934964" xlink:href="#mea8380381e" y="162.216895"/>
     <use style="fill:#008000;stroke:#008000;" x="99.494601" xlink:href="#mea8380381e" y="162.216895"/>
     <use style="fill:#008000;stroke:#008000;" x="99.494601" xlink:href="#mea8380381e" y="155.688662"/>
     <use style="fill:#008000;stroke:#008000;" x="86.934964" xlink:href="#mea8380381e" y="155.688662"/>
     <use style="fill:#008000;stroke:#008000;" x="86.934964" xlink:href="#mea8380381e" y="162.216895"/>
    </g>
   </g>
   <g id="line2d_117">
    <path clip-path="url(#pb05e9d30b4)" d="M 86.934964 158.150881 
L 99.494601 158.150881 
" style="fill:none;stroke:#008000;stroke-linecap:square;stroke-width:2;"/>
   </g>
   <g id="line2d_118">
    <path clip-path="url(#pb05e9d30b4)" d="M 154.249747 159.391396 
L 158.64562 158.277599 
L 154.249747 94.652132 
L 166.809383 94.652132 
L 162.413511 158.277599 
L 166.809383 159.391396 
L 154.249747 159.391396 
" style="fill:none;stroke:#008000;stroke-linecap:square;"/>
   </g>
   <g id="line2d_119">
    <path clip-path="url(#pb05e9d30b4)" d="M 154.249747 159.391396 
L 166.809383 159.391396 
L 166.809383 94.652132 
L 154.249747 94.652132 
L 154.249747 159.391396 
" style="fill:none;"/>
    <g clip-path="url(#pb05e9d30b4)">
     <use style="fill:#008000;stroke:#008000;" x="154.249747" xlink:href="#mea8380381e" y="159.391396"/>
     <use style="fill:#008000;stroke:#008000;" x="166.809383" xlink:href="#mea8380381e" y="159.391396"/>
     <use style="fill:#008000;stroke:#008000;" x="166.809383" xlink:href="#mea8380381e" y="94.652132"/>
     <use style="fill:#008000;stroke:#008000;" x="154.249747" xlink:href="#mea8380381e" y="94.652132"/>
     <use style="fill:#008000;stroke:#008000;" x="154.249747" xlink:href="#mea8380381e" y="159.391396"/>
    </g>
   </g>
   <g id="line2d_120">
    <path clip-path="url(#pb05e9d30b4)" d="M 154.249747 158.277599 
L 166.809383 158.277599 
" style="fill:none;stroke:#008000;stroke-linecap:square;stroke-width:2;"/>
   </g>
   <g id="line2d_121">
    <path clip-path="url(#pb05e9d30b4)" d="M 245.590216 157.770001 
L 249.986088 99.145331 
L 245.590216 87.943385 
L 258.149852 87.943385 
L 253.753979 99.145331 
L 258.149852 157.770001 
L 245.590216 157.770001 
" style="fill:none;stroke:#008000;stroke-linecap:square;"/>
   </g>
   <g id="line2d_122">
    <path clip-path="url(#pb05e9d30b4)" d="M 245.590216 157.770001 
L 258.149852 157.770001 
L 258.149852 87.943385 
L 245.590216 87.943385 
L 245.590216 157.770001 
" style="fill:none;"/>
    <g clip-path="url(#pb05e9d30b4)">
     <use style="fill:#008000;stroke:#008000;" x="245.590216" xlink:href="#mea8380381e" y="157.770001"/>
     <use style="fill:#008000;stroke:#008000;" x="258.149852" xlink:href="#mea8380381e" y="157.770001"/>
     <use style="fill:#008000;stroke:#008000;" x="258.149852" xlink:href="#mea8380381e" y="87.943385"/>
     <use style="fill:#008000;stroke:#008000;" x="245.590216" xlink:href="#mea8380381e" y="87.943385"/>
     <use style="fill:#008000;stroke:#008000;" x="245.590216" xlink:href="#mea8380381e" y="157.770001"/>
    </g>
   </g>
   <g id="line2d_123">
    <path clip-path="url(#pb05e9d30b4)" d="M 245.590216 99.145331 
L 258.149852 99.145331 
" style="fill:none;stroke:#008000;stroke-linecap:square;stroke-width:2;"/>
   </g>
   <g id="line2d_124">
    <path clip-path="url(#pb05e9d30b4)" d="M 336.930684 165.443053 
L 341.326557 117.973892 
L 336.930684 106.522712 
L 349.49032 106.522712 
L 345.094448 117.973892 
L 349.49032 165.443053 
L 336.930684 165.443053 
" style="fill:none;stroke:#008000;stroke-linecap:square;"/>
   </g>
   <g id="line2d_125">
    <path clip-path="url(#pb05e9d30b4)" d="M 336.930684 165.443053 
L 349.49032 165.443053 
L 349.49032 106.522712 
L 336.930684 106.522712 
L 336.930684 165.443053 
" style="fill:none;"/>
    <g clip-path="url(#pb05e9d30b4)">
     <use style="fill:#008000;stroke:#008000;" x="336.930684" xlink:href="#mea8380381e" y="165.443053"/>
     <use style="fill:#008000;stroke:#008000;" x="349.49032" xlink:href="#mea8380381e" y="165.443053"/>
     <use style="fill:#008000;stroke:#008000;" x="349.49032" xlink:href="#mea8380381e" y="106.522712"/>
     <use style="fill:#008000;stroke:#008000;" x="336.930684" xlink:href="#mea8380381e" y="106.522712"/>
     <use style="fill:#008000;stroke:#008000;" x="336.930684" xlink:href="#mea8380381e" y="165.443053"/>
    </g>
   </g>
   <g id="line2d_126">
    <path clip-path="url(#pb05e9d30b4)" d="M 336.930684 117.973892 
L 349.49032 117.973892 
" style="fill:none;stroke:#008000;stroke-linecap:square;stroke-width:2;"/>
   </g>
   <g id="line2d_127">
    <path clip-path="url(#pb05e9d30b4)" d="M 39.784034 158.468875 
L 93.214783 156.342192 
" style="fill:none;stroke:#008000;stroke-linecap:square;stroke-width:4;"/>
   </g>
   <g id="line2d_128">
    <path clip-path="url(#pb05e9d30b4)" d="M 93.214783 156.342192 
L 160.529565 111.107219 
" style="fill:none;stroke:#008000;stroke-linecap:square;stroke-width:4;"/>
   </g>
   <g id="line2d_129">
    <path clip-path="url(#pb05e9d30b4)" d="M 160.529565 111.107219 
L 251.870034 103.878523 
" style="fill:none;stroke:#008000;stroke-linecap:square;stroke-width:4;"/>
   </g>
   <g id="line2d_130">
    <path clip-path="url(#pb05e9d30b4)" d="M 251.870034 103.878523 
L 343.210502 101.109214 
" style="fill:none;stroke:#008000;stroke-linecap:square;stroke-width:4;"/>
   </g>
   <g id="line2d_131">
    <path clip-path="url(#pb05e9d30b4)" d="M 39.784034 158.468875 
L 93.214783 156.342192 
L 160.529565 111.107219 
L 251.870034 103.878523 
L 343.210502 101.109214 
" style="fill:none;"/>
    <defs>
     <path d="M 0 5 
C 1.326016 5 2.597899 4.473168 3.535534 3.535534 
C 4.473168 2.597899 5 1.326016 5 0 
C 5 -1.326016 4.473168 -2.597899 3.535534 -3.535534 
C 2.597899 -4.473168 1.326016 -5 0 -5 
C -1.326016 -5 -2.597899 -4.473168 -3.535534 -3.535534 
C -4.473168 -2.597899 -5 -1.326016 -5 0 
C -5 1.326016 -4.473168 2.597899 -3.535534 3.535534 
C -2.597899 4.473168 -1.326016 5 0 5 
z
" id="mb5d7cca8d8" style="stroke:#008000;"/>
    </defs>
    <g clip-path="url(#pb05e9d30b4)">
     <use style="fill:#008000;stroke:#008000;" x="39.784034" xlink:href="#mb5d7cca8d8" y="158.468875"/>
     <use style="fill:#008000;stroke:#008000;" x="93.214783" xlink:href="#mb5d7cca8d8" y="156.342192"/>
     <use style="fill:#008000;stroke:#008000;" x="160.529565" xlink:href="#mb5d7cca8d8" y="111.107219"/>
     <use style="fill:#008000;stroke:#008000;" x="251.870034" xlink:href="#mb5d7cca8d8" y="103.878523"/>
     <use style="fill:#008000;stroke:#008000;" x="343.210502" xlink:href="#mb5d7cca8d8" y="101.109214"/>
    </g>
   </g>
   <g id="line2d_132">
    <path clip-path="url(#pb05e9d30b4)" d="M 32.457579 158.583643 
L 37.586097 148.676287 
L 32.457579 142.685841 
L 47.110488 142.685841 
L 41.98197 148.676287 
L 47.110488 158.583643 
L 32.457579 158.583643 
" style="fill:none;stroke:#bfbf00;stroke-linecap:square;"/>
   </g>
   <g id="line2d_133">
    <path clip-path="url(#pb05e9d30b4)" d="M 32.457579 158.583643 
L 47.110488 158.583643 
L 47.110488 142.685841 
L 32.457579 142.685841 
L 32.457579 158.583643 
" style="fill:none;"/>
    <defs>
     <path d="M 0 -3 
L -3 3 
L 3 3 
z
" id="m8fb3c08ec7" style="stroke:#bfbf00;stroke-linejoin:miter;stroke-width:2;"/>
    </defs>
    <g clip-path="url(#pb05e9d30b4)">
     <use style="fill:#bfbf00;stroke:#bfbf00;stroke-linejoin:miter;stroke-width:2;" x="32.457579" xlink:href="#m8fb3c08ec7" y="158.583643"/>
     <use style="fill:#bfbf00;stroke:#bfbf00;stroke-linejoin:miter;stroke-width:2;" x="47.110488" xlink:href="#m8fb3c08ec7" y="158.583643"/>
     <use style="fill:#bfbf00;stroke:#bfbf00;stroke-linejoin:miter;stroke-width:2;" x="47.110488" xlink:href="#m8fb3c08ec7" y="142.685841"/>
     <use style="fill:#bfbf00;stroke:#bfbf00;stroke-linejoin:miter;stroke-width:2;" x="32.457579" xlink:href="#m8fb3c08ec7" y="142.685841"/>
     <use style="fill:#bfbf00;stroke:#bfbf00;stroke-linejoin:miter;stroke-width:2;" x="32.457579" xlink:href="#m8fb3c08ec7" y="158.583643"/>
    </g>
   </g>
   <g id="line2d_134">
    <path clip-path="url(#pb05e9d30b4)" d="M 32.457579 148.676287 
L 47.110488 148.676287 
" style="fill:none;stroke:#bfbf00;stroke-linecap:square;stroke-width:2;"/>
   </g>
   <g id="line2d_135">
    <path clip-path="url(#pb05e9d30b4)" d="M 85.888328 155.419074 
L 91.016846 154.741576 
L 85.888328 145.819735 
L 100.541237 145.819735 
L 95.412719 154.741576 
L 100.541237 155.419074 
L 85.888328 155.419074 
" style="fill:none;stroke:#bfbf00;stroke-linecap:square;"/>
   </g>
   <g id="line2d_136">
    <path clip-path="url(#pb05e9d30b4)" d="M 85.888328 155.419074 
L 100.541237 155.419074 
L 100.541237 145.819735 
L 85.888328 145.819735 
L 85.888328 155.419074 
" style="fill:none;"/>
    <g clip-path="url(#pb05e9d30b4)">
     <use style="fill:#bfbf00;stroke:#bfbf00;stroke-linejoin:miter;stroke-width:2;" x="85.888328" xlink:href="#m8fb3c08ec7" y="155.419074"/>
     <use style="fill:#bfbf00;stroke:#bfbf00;stroke-linejoin:miter;stroke-width:2;" x="100.541237" xlink:href="#m8fb3c08ec7" y="155.419074"/>
     <use style="fill:#bfbf00;stroke:#bfbf00;stroke-linejoin:miter;stroke-width:2;" x="100.541237" xlink:href="#m8fb3c08ec7" y="145.819735"/>
     <use style="fill:#bfbf00;stroke:#bfbf00;stroke-linejoin:miter;stroke-width:2;" x="85.888328" xlink:href="#m8fb3c08ec7" y="145.819735"/>
     <use style="fill:#bfbf00;stroke:#bfbf00;stroke-linejoin:miter;stroke-width:2;" x="85.888328" xlink:href="#m8fb3c08ec7" y="155.419074"/>
    </g>
   </g>
   <g id="line2d_137">
    <path clip-path="url(#pb05e9d30b4)" d="M 85.888328 154.741576 
L 100.541237 154.741576 
" style="fill:none;stroke:#bfbf00;stroke-linecap:square;stroke-width:2;"/>
   </g>
   <g id="line2d_138">
    <path clip-path="url(#pb05e9d30b4)" d="M 153.203111 154.595101 
L 158.331629 154.385435 
L 153.203111 94.566074 
L 167.85602 94.566074 
L 162.727502 154.385435 
L 167.85602 154.595101 
L 153.203111 154.595101 
" style="fill:none;stroke:#bfbf00;stroke-linecap:square;"/>
   </g>
   <g id="line2d_139">
    <path clip-path="url(#pb05e9d30b4)" d="M 153.203111 154.595101 
L 167.85602 154.595101 
L 167.85602 94.566074 
L 153.203111 94.566074 
L 153.203111 154.595101 
" style="fill:none;"/>
    <g clip-path="url(#pb05e9d30b4)">
     <use style="fill:#bfbf00;stroke:#bfbf00;stroke-linejoin:miter;stroke-width:2;" x="153.203111" xlink:href="#m8fb3c08ec7" y="154.595101"/>
     <use style="fill:#bfbf00;stroke:#bfbf00;stroke-linejoin:miter;stroke-width:2;" x="167.85602" xlink:href="#m8fb3c08ec7" y="154.595101"/>
     <use style="fill:#bfbf00;stroke:#bfbf00;stroke-linejoin:miter;stroke-width:2;" x="167.85602" xlink:href="#m8fb3c08ec7" y="94.566074"/>
     <use style="fill:#bfbf00;stroke:#bfbf00;stroke-linejoin:miter;stroke-width:2;" x="153.203111" xlink:href="#m8fb3c08ec7" y="94.566074"/>
     <use style="fill:#bfbf00;stroke:#bfbf00;stroke-linejoin:miter;stroke-width:2;" x="153.203111" xlink:href="#m8fb3c08ec7" y="154.595101"/>
    </g>
   </g>
   <g id="line2d_140">
    <path clip-path="url(#pb05e9d30b4)" d="M 153.203111 154.385435 
L 167.85602 154.385435 
" style="fill:none;stroke:#bfbf00;stroke-linecap:square;stroke-width:2;"/>
   </g>
   <g id="line2d_141">
    <path clip-path="url(#pb05e9d30b4)" d="M 244.543579 159.648347 
L 249.672097 83.021438 
L 244.543579 67.507285 
L 259.196488 67.507285 
L 254.06797 83.021438 
L 259.196488 159.648347 
L 244.543579 159.648347 
" style="fill:none;stroke:#bfbf00;stroke-linecap:square;"/>
   </g>
   <g id="line2d_142">
    <path clip-path="url(#pb05e9d30b4)" d="M 244.543579 159.648347 
L 259.196488 159.648347 
L 259.196488 67.507285 
L 244.543579 67.507285 
L 244.543579 159.648347 
" style="fill:none;"/>
    <g clip-path="url(#pb05e9d30b4)">
     <use style="fill:#bfbf00;stroke:#bfbf00;stroke-linejoin:miter;stroke-width:2;" x="244.543579" xlink:href="#m8fb3c08ec7" y="159.648347"/>
     <use style="fill:#bfbf00;stroke:#bfbf00;stroke-linejoin:miter;stroke-width:2;" x="259.196488" xlink:href="#m8fb3c08ec7" y="159.648347"/>
     <use style="fill:#bfbf00;stroke:#bfbf00;stroke-linejoin:miter;stroke-width:2;" x="259.196488" xlink:href="#m8fb3c08ec7" y="67.507285"/>
     <use style="fill:#bfbf00;stroke:#bfbf00;stroke-linejoin:miter;stroke-width:2;" x="244.543579" xlink:href="#m8fb3c08ec7" y="67.507285"/>
     <use style="fill:#bfbf00;stroke:#bfbf00;stroke-linejoin:miter;stroke-width:2;" x="244.543579" xlink:href="#m8fb3c08ec7" y="159.648347"/>
    </g>
   </g>
   <g id="line2d_143">
    <path clip-path="url(#pb05e9d30b4)" d="M 244.543579 83.021438 
L 259.196488 83.021438 
" style="fill:none;stroke:#bfbf00;stroke-linecap:square;stroke-width:2;"/>
   </g>
   <g id="line2d_144">
    <path clip-path="url(#pb05e9d30b4)" d="M 335.884048 94.794713 
L 341.012566 79.328529 
L 335.884048 68.429306 
L 350.536957 68.429306 
L 345.408439 79.328529 
L 350.536957 94.794713 
L 335.884048 94.794713 
" style="fill:none;stroke:#bfbf00;stroke-linecap:square;"/>
   </g>
   <g id="line2d_145">
    <path clip-path="url(#pb05e9d30b4)" d="M 335.884048 94.794713 
L 350.536957 94.794713 
L 350.536957 68.429306 
L 335.884048 68.429306 
L 335.884048 94.794713 
" style="fill:none;"/>
    <g clip-path="url(#pb05e9d30b4)">
     <use style="fill:#bfbf00;stroke:#bfbf00;stroke-linejoin:miter;stroke-width:2;" x="335.884048" xlink:href="#m8fb3c08ec7" y="94.794713"/>
     <use style="fill:#bfbf00;stroke:#bfbf00;stroke-linejoin:miter;stroke-width:2;" x="350.536957" xlink:href="#m8fb3c08ec7" y="94.794713"/>
     <use style="fill:#bfbf00;stroke:#bfbf00;stroke-linejoin:miter;stroke-width:2;" x="350.536957" xlink:href="#m8fb3c08ec7" y="68.429306"/>
     <use style="fill:#bfbf00;stroke:#bfbf00;stroke-linejoin:miter;stroke-width:2;" x="335.884048" xlink:href="#m8fb3c08ec7" y="68.429306"/>
     <use style="fill:#bfbf00;stroke:#bfbf00;stroke-linejoin:miter;stroke-width:2;" x="335.884048" xlink:href="#m8fb3c08ec7" y="94.794713"/>
    </g>
   </g>
   <g id="line2d_146">
    <path clip-path="url(#pb05e9d30b4)" d="M 335.884048 79.328529 
L 350.536957 79.328529 
" style="fill:none;stroke:#bfbf00;stroke-linecap:square;stroke-width:2;"/>
   </g>
   <g id="line2d_147">
    <path clip-path="url(#pb05e9d30b4)" d="M 39.784034 150.873987 
L 93.214783 152.15716 
" style="fill:none;stroke:#bfbf00;stroke-linecap:square;stroke-width:4;"/>
   </g>
   <g id="line2d_148">
    <path clip-path="url(#pb05e9d30b4)" d="M 93.214783 152.15716 
L 160.529565 110.838007 
" style="fill:none;stroke:#bfbf00;stroke-linecap:square;stroke-width:4;"/>
   </g>
   <g id="line2d_149">
    <path clip-path="url(#pb05e9d30b4)" d="M 160.529565 110.838007 
L 251.870034 74.824105 
" style="fill:none;stroke:#bfbf00;stroke-linecap:square;stroke-width:4;"/>
   </g>
   <g id="line2d_150">
    <path clip-path="url(#pb05e9d30b4)" d="M 251.870034 74.824105 
L 343.210502 73.619207 
" style="fill:none;stroke:#bfbf00;stroke-linecap:square;stroke-width:4;"/>
   </g>
   <g id="line2d_151">
    <path clip-path="url(#pb05e9d30b4)" d="M 39.784034 150.873987 
L 93.214783 152.15716 
L 160.529565 110.838007 
L 251.870034 74.824105 
L 343.210502 73.619207 
" style="fill:none;"/>
    <defs>
     <path d="M 0 -10 
L -10 10 
L 10 10 
z
" id="mf987fb9d74" style="stroke:#000000;stroke-linejoin:miter;stroke-width:2;"/>
    </defs>
    <g clip-path="url(#pb05e9d30b4)">
     <use style="fill:#bfbf00;stroke:#000000;stroke-linejoin:miter;stroke-width:2;" x="39.784034" xlink:href="#mf987fb9d74" y="150.873987"/>
     <use style="fill:#bfbf00;stroke:#000000;stroke-linejoin:miter;stroke-width:2;" x="93.214783" xlink:href="#mf987fb9d74" y="152.15716"/>
     <use style="fill:#bfbf00;stroke:#000000;stroke-linejoin:miter;stroke-width:2;" x="160.529565" xlink:href="#mf987fb9d74" y="110.838007"/>
     <use style="fill:#bfbf00;stroke:#000000;stroke-linejoin:miter;stroke-width:2;" x="251.870034" xlink:href="#mf987fb9d74" y="74.824105"/>
     <use style="fill:#bfbf00;stroke:#000000;stroke-linejoin:miter;stroke-width:2;" x="343.210502" xlink:href="#mf987fb9d74" y="73.619207"/>
    </g>
   </g>
   <g id="line2d_152">
    <path clip-path="url(#pb05e9d30b4)" d="M 31.410943 146.602178 
L 37.272107 143.386013 
L 31.410943 133.519177 
L 48.157125 133.519177 
L 42.295961 143.386013 
L 48.157125 146.602178 
L 31.410943 146.602178 
" style="fill:none;stroke:#bf00bf;stroke-linecap:square;"/>
   </g>
   <g id="line2d_153">
    <path clip-path="url(#pb05e9d30b4)" d="M 31.410943 146.602178 
L 48.157125 146.602178 
L 48.157125 133.519177 
L 31.410943 133.519177 
L 31.410943 146.602178 
" style="fill:none;"/>
    <defs>
     <path d="M 0 1.5 
C 0.397805 1.5 0.77937 1.341951 1.06066 1.06066 
C 1.341951 0.77937 1.5 0.397805 1.5 0 
C 1.5 -0.397805 1.341951 -0.77937 1.06066 -1.06066 
C 0.77937 -1.341951 0.397805 -1.5 0 -1.5 
C -0.397805 -1.5 -0.77937 -1.341951 -1.06066 -1.06066 
C -1.341951 -0.77937 -1.5 -0.397805 -1.5 0 
C -1.5 0.397805 -1.341951 0.77937 -1.06066 1.06066 
C -0.77937 1.341951 -0.397805 1.5 0 1.5 
z
" id="m7c4afff14b" style="stroke:#bf00bf;"/>
    </defs>
    <g clip-path="url(#pb05e9d30b4)">
     <use style="fill:#bf00bf;stroke:#bf00bf;" x="31.410943" xlink:href="#m7c4afff14b" y="146.602178"/>
     <use style="fill:#bf00bf;stroke:#bf00bf;" x="48.157125" xlink:href="#m7c4afff14b" y="146.602178"/>
     <use style="fill:#bf00bf;stroke:#bf00bf;" x="48.157125" xlink:href="#m7c4afff14b" y="133.519177"/>
     <use style="fill:#bf00bf;stroke:#bf00bf;" x="31.410943" xlink:href="#m7c4afff14b" y="133.519177"/>
     <use style="fill:#bf00bf;stroke:#bf00bf;" x="31.410943" xlink:href="#m7c4afff14b" y="146.602178"/>
    </g>
   </g>
   <g id="line2d_154">
    <path clip-path="url(#pb05e9d30b4)" d="M 31.410943 143.386013 
L 48.157125 143.386013 
" style="fill:none;stroke:#bf00bf;stroke-linecap:square;stroke-width:2;"/>
   </g>
   <g id="line2d_155">
    <path clip-path="url(#pb05e9d30b4)" d="M 84.841692 149.438041 
L 90.702855 146.475129 
L 84.841692 141.035663 
L 101.587873 141.035663 
L 95.72671 146.475129 
L 101.587873 149.438041 
L 84.841692 149.438041 
" style="fill:none;stroke:#bf00bf;stroke-linecap:square;"/>
   </g>
   <g id="line2d_156">
    <path clip-path="url(#pb05e9d30b4)" d="M 84.841692 149.438041 
L 101.587873 149.438041 
L 101.587873 141.035663 
L 84.841692 141.035663 
L 84.841692 149.438041 
" style="fill:none;"/>
    <g clip-path="url(#pb05e9d30b4)">
     <use style="fill:#bf00bf;stroke:#bf00bf;" x="84.841692" xlink:href="#m7c4afff14b" y="149.438041"/>
     <use style="fill:#bf00bf;stroke:#bf00bf;" x="101.587873" xlink:href="#m7c4afff14b" y="149.438041"/>
     <use style="fill:#bf00bf;stroke:#bf00bf;" x="101.587873" xlink:href="#m7c4afff14b" y="141.035663"/>
     <use style="fill:#bf00bf;stroke:#bf00bf;" x="84.841692" xlink:href="#m7c4afff14b" y="141.035663"/>
     <use style="fill:#bf00bf;stroke:#bf00bf;" x="84.841692" xlink:href="#m7c4afff14b" y="149.438041"/>
    </g>
   </g>
   <g id="line2d_157">
    <path clip-path="url(#pb05e9d30b4)" d="M 84.841692 146.475129 
L 101.587873 146.475129 
" style="fill:none;stroke:#bf00bf;stroke-linecap:square;stroke-width:2;"/>
   </g>
   <g id="line2d_158">
    <path clip-path="url(#pb05e9d30b4)" d="M 152.156474 150.226894 
L 158.017638 149.143433 
L 152.156474 145.759327 
L 168.902656 145.759327 
L 163.041493 149.143433 
L 168.902656 150.226894 
L 152.156474 150.226894 
" style="fill:none;stroke:#bf00bf;stroke-linecap:square;"/>
   </g>
   <g id="line2d_159">
    <path clip-path="url(#pb05e9d30b4)" d="M 152.156474 150.226894 
L 168.902656 150.226894 
L 168.902656 145.759327 
L 152.156474 145.759327 
L 152.156474 150.226894 
" style="fill:none;"/>
    <g clip-path="url(#pb05e9d30b4)">
     <use style="fill:#bf00bf;stroke:#bf00bf;" x="152.156474" xlink:href="#m7c4afff14b" y="150.226894"/>
     <use style="fill:#bf00bf;stroke:#bf00bf;" x="168.902656" xlink:href="#m7c4afff14b" y="150.226894"/>
     <use style="fill:#bf00bf;stroke:#bf00bf;" x="168.902656" xlink:href="#m7c4afff14b" y="145.759327"/>
     <use style="fill:#bf00bf;stroke:#bf00bf;" x="152.156474" xlink:href="#m7c4afff14b" y="145.759327"/>
     <use style="fill:#bf00bf;stroke:#bf00bf;" x="152.156474" xlink:href="#m7c4afff14b" y="150.226894"/>
    </g>
   </g>
   <g id="line2d_160">
    <path clip-path="url(#pb05e9d30b4)" d="M 152.156474 149.143433 
L 168.902656 149.143433 
" style="fill:none;stroke:#bf00bf;stroke-linecap:square;stroke-width:2;"/>
   </g>
   <g id="line2d_161">
    <path clip-path="url(#pb05e9d30b4)" d="M 243.496943 71.242974 
L 249.358107 63.691324 
L 243.496943 60.59907 
L 260.243125 60.59907 
L 254.381961 63.691324 
L 260.243125 71.242974 
L 243.496943 71.242974 
" style="fill:none;stroke:#bf00bf;stroke-linecap:square;"/>
   </g>
   <g id="line2d_162">
    <path clip-path="url(#pb05e9d30b4)" d="M 243.496943 71.242974 
L 260.243125 71.242974 
L 260.243125 60.59907 
L 243.496943 60.59907 
L 243.496943 71.242974 
" style="fill:none;"/>
    <g clip-path="url(#pb05e9d30b4)">
     <use style="fill:#bf00bf;stroke:#bf00bf;" x="243.496943" xlink:href="#m7c4afff14b" y="71.242974"/>
     <use style="fill:#bf00bf;stroke:#bf00bf;" x="260.243125" xlink:href="#m7c4afff14b" y="71.242974"/>
     <use style="fill:#bf00bf;stroke:#bf00bf;" x="260.243125" xlink:href="#m7c4afff14b" y="60.59907"/>
     <use style="fill:#bf00bf;stroke:#bf00bf;" x="243.496943" xlink:href="#m7c4afff14b" y="60.59907"/>
     <use style="fill:#bf00bf;stroke:#bf00bf;" x="243.496943" xlink:href="#m7c4afff14b" y="71.242974"/>
    </g>
   </g>
   <g id="line2d_163">
    <path clip-path="url(#pb05e9d30b4)" d="M 243.496943 63.691324 
L 260.243125 63.691324 
" style="fill:none;stroke:#bf00bf;stroke-linecap:square;stroke-width:2;"/>
   </g>
   <g id="line2d_164">
    <path clip-path="url(#pb05e9d30b4)" d="M 39.784034 143.355078 
L 93.214783 125.057551 
" style="fill:none;stroke:#bf00bf;stroke-linecap:square;stroke-width:4;"/>
   </g>
   <g id="line2d_165">
    <path clip-path="url(#pb05e9d30b4)" d="M 93.214783 125.057551 
L 160.529565 110.331621 
" style="fill:none;stroke:#bf00bf;stroke-linecap:square;stroke-width:4;"/>
   </g>
   <g id="line2d_166">
    <path clip-path="url(#pb05e9d30b4)" d="M 160.529565 110.331621 
L 251.870034 61.769624 
" style="fill:none;stroke:#bf00bf;stroke-linecap:square;stroke-width:4;"/>
   </g>
   <g id="line2d_167">
    <path clip-path="url(#pb05e9d30b4)" d="M 39.784034 143.355078 
L 93.214783 125.057551 
L 160.529565 110.331621 
L 251.870034 61.769624 
" style="fill:none;"/>
    <defs>
     <path d="M 0 5 
C 1.326016 5 2.597899 4.473168 3.535534 3.535534 
C 4.473168 2.597899 5 1.326016 5 0 
C 5 -1.326016 4.473168 -2.597899 3.535534 -3.535534 
C 2.597899 -4.473168 1.326016 -5 0 -5 
C -1.326016 -5 -2.597899 -4.473168 -3.535534 -3.535534 
C -4.473168 -2.597899 -5 -1.326016 -5 0 
C -5 1.326016 -4.473168 2.597899 -3.535534 3.535534 
C -2.597899 4.473168 -1.326016 5 0 5 
z
" id="m63069a3ab9" style="stroke:#bf00bf;"/>
    </defs>
    <g clip-path="url(#pb05e9d30b4)">
     <use style="fill:#bf00bf;stroke:#bf00bf;" x="39.784034" xlink:href="#m63069a3ab9" y="143.355078"/>
     <use style="fill:#bf00bf;stroke:#bf00bf;" x="93.214783" xlink:href="#m63069a3ab9" y="125.057551"/>
     <use style="fill:#bf00bf;stroke:#bf00bf;" x="160.529565" xlink:href="#m63069a3ab9" y="110.331621"/>
     <use style="fill:#bf00bf;stroke:#bf00bf;" x="251.870034" xlink:href="#m63069a3ab9" y="61.769624"/>
    </g>
   </g>
   <g id="line2d_168">
    <path clip-path="url(#pb05e9d30b4)" d="M 30.364307 144.147886 
L 36.958116 140.224066 
L 30.364307 127.994878 
L 49.203761 127.994878 
L 42.609952 140.224066 
L 49.203761 144.147886 
L 30.364307 144.147886 
" style="fill:none;stroke:#ff0000;stroke-linecap:square;"/>
   </g>
   <g id="line2d_169">
    <path clip-path="url(#pb05e9d30b4)" d="M 30.364307 144.147886 
L 49.203761 144.147886 
L 49.203761 127.994878 
L 30.364307 127.994878 
L 30.364307 144.147886 
" style="fill:none;"/>
    <defs>
     <path d="M 0 3 
C 0.795609 3 1.55874 2.683901 2.12132 2.12132 
C 2.683901 1.55874 3 0.795609 3 0 
C 3 -0.795609 2.683901 -1.55874 2.12132 -2.12132 
C 1.55874 -2.683901 0.795609 -3 0 -3 
C -0.795609 -3 -1.55874 -2.683901 -2.12132 -2.12132 
C -2.683901 -1.55874 -3 -0.795609 -3 0 
C -3 0.795609 -2.683901 1.55874 -2.12132 2.12132 
C -1.55874 2.683901 -0.795609 3 0 3 
z
" id="mcd0ba4d9a0" style="stroke:#ff0000;stroke-width:2;"/>
    </defs>
    <g clip-path="url(#pb05e9d30b4)">
     <use style="fill:#ff0000;stroke:#ff0000;stroke-width:2;" x="30.364307" xlink:href="#mcd0ba4d9a0" y="144.147886"/>
     <use style="fill:#ff0000;stroke:#ff0000;stroke-width:2;" x="49.203761" xlink:href="#mcd0ba4d9a0" y="144.147886"/>
     <use style="fill:#ff0000;stroke:#ff0000;stroke-width:2;" x="49.203761" xlink:href="#mcd0ba4d9a0" y="127.994878"/>
     <use style="fill:#ff0000;stroke:#ff0000;stroke-width:2;" x="30.364307" xlink:href="#mcd0ba4d9a0" y="127.994878"/>
     <use style="fill:#ff0000;stroke:#ff0000;stroke-width:2;" x="30.364307" xlink:href="#mcd0ba4d9a0" y="144.147886"/>
    </g>
   </g>
   <g id="line2d_170">
    <path clip-path="url(#pb05e9d30b4)" d="M 30.364307 140.224066 
L 49.203761 140.224066 
" style="fill:none;stroke:#ff0000;stroke-linecap:square;stroke-width:2;"/>
   </g>
   <g id="line2d_171">
    <path clip-path="url(#pb05e9d30b4)" d="M 83.795055 139.117134 
L 90.388864 138.354793 
L 83.795055 135.590977 
L 102.63451 135.590977 
L 96.040701 138.354793 
L 102.63451 139.117134 
L 83.795055 139.117134 
" style="fill:none;stroke:#ff0000;stroke-linecap:square;"/>
   </g>
   <g id="line2d_172">
    <path clip-path="url(#pb05e9d30b4)" d="M 83.795055 139.117134 
L 102.63451 139.117134 
L 102.63451 135.590977 
L 83.795055 135.590977 
L 83.795055 139.117134 
" style="fill:none;"/>
    <g clip-path="url(#pb05e9d30b4)">
     <use style="fill:#ff0000;stroke:#ff0000;stroke-width:2;" x="83.795055" xlink:href="#mcd0ba4d9a0" y="139.117134"/>
     <use style="fill:#ff0000;stroke:#ff0000;stroke-width:2;" x="102.63451" xlink:href="#mcd0ba4d9a0" y="139.117134"/>
     <use style="fill:#ff0000;stroke:#ff0000;stroke-width:2;" x="102.63451" xlink:href="#mcd0ba4d9a0" y="135.590977"/>
     <use style="fill:#ff0000;stroke:#ff0000;stroke-width:2;" x="83.795055" xlink:href="#mcd0ba4d9a0" y="135.590977"/>
     <use style="fill:#ff0000;stroke:#ff0000;stroke-width:2;" x="83.795055" xlink:href="#mcd0ba4d9a0" y="139.117134"/>
    </g>
   </g>
   <g id="line2d_173">
    <path clip-path="url(#pb05e9d30b4)" d="M 83.795055 138.354793 
L 102.63451 138.354793 
" style="fill:none;stroke:#ff0000;stroke-linecap:square;stroke-width:2;"/>
   </g>
   <g id="line2d_174">
    <path clip-path="url(#pb05e9d30b4)" d="M 151.109838 144.410107 
L 157.703647 143.078314 
L 151.109838 94.319577 
L 169.949292 94.319577 
L 163.355483 143.078314 
L 169.949292 144.410107 
L 151.109838 144.410107 
" style="fill:none;stroke:#ff0000;stroke-linecap:square;"/>
   </g>
   <g id="line2d_175">
    <path clip-path="url(#pb05e9d30b4)" d="M 151.109838 144.410107 
L 169.949292 144.410107 
L 169.949292 94.319577 
L 151.109838 94.319577 
L 151.109838 144.410107 
" style="fill:none;"/>
    <g clip-path="url(#pb05e9d30b4)">
     <use style="fill:#ff0000;stroke:#ff0000;stroke-width:2;" x="151.109838" xlink:href="#mcd0ba4d9a0" y="144.410107"/>
     <use style="fill:#ff0000;stroke:#ff0000;stroke-width:2;" x="169.949292" xlink:href="#mcd0ba4d9a0" y="144.410107"/>
     <use style="fill:#ff0000;stroke:#ff0000;stroke-width:2;" x="169.949292" xlink:href="#mcd0ba4d9a0" y="94.319577"/>
     <use style="fill:#ff0000;stroke:#ff0000;stroke-width:2;" x="151.109838" xlink:href="#mcd0ba4d9a0" y="94.319577"/>
     <use style="fill:#ff0000;stroke:#ff0000;stroke-width:2;" x="151.109838" xlink:href="#mcd0ba4d9a0" y="144.410107"/>
    </g>
   </g>
   <g id="line2d_176">
    <path clip-path="url(#pb05e9d30b4)" d="M 151.109838 143.078314 
L 169.949292 143.078314 
" style="fill:none;stroke:#ff0000;stroke-linecap:square;stroke-width:2;"/>
   </g>
   <g id="line2d_177">
    <path clip-path="url(#pb05e9d30b4)" d="M 39.784034 138.727816 
L 93.214783 114.084376 
" style="fill:none;stroke:#ff0000;stroke-linecap:square;stroke-width:4;"/>
   </g>
   <g id="line2d_178">
    <path clip-path="url(#pb05e9d30b4)" d="M 93.214783 114.084376 
L 160.529565 100.558043 
" style="fill:none;stroke:#ff0000;stroke-linecap:square;stroke-width:4;"/>
   </g>
   <g id="line2d_179">
    <path clip-path="url(#pb05e9d30b4)" d="M 39.784034 138.727816 
L 93.214783 114.084376 
L 160.529565 100.558043 
" style="fill:none;"/>
    <defs>
     <path d="M 0 10 
C 2.652031 10 5.195799 8.946337 7.071068 7.071068 
C 8.946337 5.195799 10 2.652031 10 0 
C 10 -2.652031 8.946337 -5.195799 7.071068 -7.071068 
C 5.195799 -8.946337 2.652031 -10 0 -10 
C -2.652031 -10 -5.195799 -8.946337 -7.071068 -7.071068 
C -8.946337 -5.195799 -10 -2.652031 -10 0 
C -10 2.652031 -8.946337 5.195799 -7.071068 7.071068 
C -5.195799 8.946337 -2.652031 10 0 10 
z
" id="m905ef00b8b" style="stroke:#000000;stroke-width:2;"/>
    </defs>
    <g clip-path="url(#pb05e9d30b4)">
     <use style="fill:#ff0000;stroke:#000000;stroke-width:2;" x="39.784034" xlink:href="#m905ef00b8b" y="138.727816"/>
     <use style="fill:#ff0000;stroke:#000000;stroke-width:2;" x="93.214783" xlink:href="#m905ef00b8b" y="114.084376"/>
     <use style="fill:#ff0000;stroke:#000000;stroke-width:2;" x="160.529565" xlink:href="#m905ef00b8b" y="100.558043"/>
    </g>
   </g>
   <g id="line2d_180"/>
   <g id="line2d_181"/>
   <g id="line2d_182"/>
   <g id="line2d_183"/>
   <g id="line2d_184"/>
   <g id="line2d_185"/>
   <g id="line2d_186"/>
   <g id="line2d_187">
    <defs>
     <path d="M -10 10 
L 10 -10 
M -10 -10 
L 10 10 
" id="m404314581d" style="stroke:#ff0000;"/>
    </defs>
    <g clip-path="url(#pb05e9d30b4)">
     <use style="fill:#ff0000;stroke:#ff0000;" x="39.784034" xlink:href="#m404314581d" y="126.460213"/>
     <use style="fill:#ff0000;stroke:#ff0000;" x="93.214783" xlink:href="#m404314581d" y="86.362656"/>
     <use style="fill:#ff0000;stroke:#ff0000;" x="160.529565" xlink:href="#m404314581d" y="95.080078"/>
     <use style="fill:#ff0000;stroke:#ff0000;" x="251.870034" xlink:href="#m404314581d" y="106.908884"/>
     <use style="fill:#ff0000;stroke:#ff0000;" x="343.210502" xlink:href="#m404314581d" y="118.73769"/>
     <use style="fill:#ff0000;stroke:#ff0000;" x="434.550971" xlink:href="#m404314581d" y="130.566496"/>
    </g>
   </g>
   <g id="line2d_188">
    <path clip-path="url(#pb05e9d30b4)" d="M 9.47998 346.6 
L 461.8 288.023492 
" style="fill:none;stroke:#000000;stroke-dasharray:0.5,0.825;stroke-dashoffset:0;stroke-width:0.5;"/>
   </g>
   <g id="line2d_189">
    <path clip-path="url(#pb05e9d30b4)" d="M -1 269.368298 
L 461.8 209.434608 
" style="fill:none;stroke:#000000;stroke-dasharray:0.5,0.825;stroke-dashoffset:0;stroke-width:0.5;"/>
   </g>
   <g id="line2d_190">
    <path clip-path="url(#pb05e9d30b4)" d="M -1 190.779414 
L 461.8 130.845724 
" style="fill:none;stroke:#000000;stroke-dasharray:0.5,0.825;stroke-dashoffset:0;stroke-width:0.5;"/>
   </g>
   <g id="line2d_191">
    <path clip-path="url(#pb05e9d30b4)" d="M -1 112.19053 
L 461.8 52.25684 
" style="fill:none;stroke:#000000;stroke-dasharray:0.5,0.825;stroke-dashoffset:0;stroke-width:0.5;"/>
   </g>
   <g id="line2d_192">
    <path clip-path="url(#pb05e9d30b4)" d="M -1 33.601645 
L 266.189316 -1 
" style="fill:none;stroke:#000000;stroke-dasharray:0.5,0.825;stroke-dashoffset:0;stroke-width:0.5;"/>
   </g>
   <g id="patch_3">
    <path d="M 25.9 311.24 
L 25.9 28.32 
" style="fill:none;stroke:#000000;stroke-linecap:square;stroke-linejoin:miter;stroke-width:0.8;"/>
   </g>
   <g id="patch_4">
    <path d="M 450.072 311.24 
L 450.072 28.32 
" style="fill:none;stroke:#000000;stroke-linecap:square;stroke-linejoin:miter;stroke-width:0.8;"/>
   </g>
   <g id="patch_5">
    <path d="M 25.9 311.24 
L 450.072 311.24 
" style="fill:none;stroke:#000000;stroke-linecap:square;stroke-linejoin:miter;stroke-width:0.8;"/>
   </g>
   <g id="patch_6">
    <path d="M 25.9 28.32 
L 450.072 28.32 
" style="fill:none;stroke:#000000;stroke-linecap:square;stroke-linejoin:miter;stroke-width:0.8;"/>
   </g>
   <g id="text_15">
    <!-- 1 -->
    <g transform="translate(428.061221 74.230631)scale(0.204 -0.204)">
     <use xlink:href="#DejaVuSans-31"/>
    </g>
   </g>
   <g id="text_16">
    <!-- 1 -->
    <g transform="translate(245.380284 50.607654)scale(0.204 -0.204)">
     <use xlink:href="#DejaVuSans-31"/>
    </g>
   </g>
   <g id="text_17">
    <!-- 13 -->
    <g transform="translate(80.235283 102.922406)scale(0.204 -0.204)">
     <use xlink:href="#DejaVuSans-31"/>
     <use x="63.623047" xlink:href="#DejaVuSans-33"/>
    </g>
   </g>
   <g id="text_18">
    <!-- 1 -->
    <g transform="translate(336.720752 62.457237)scale(0.204 -0.204)">
     <use xlink:href="#DejaVuSans-31"/>
    </g>
   </g>
   <g id="text_19">
    <!-- 9 -->
    <defs>
     <path d="M 10.984375 1.515625 
L 10.984375 10.5 
Q 14.703125 8.734375 18.5 7.8125 
Q 22.3125 6.890625 25.984375 6.890625 
Q 35.75 6.890625 40.890625 13.453125 
Q 46.046875 20.015625 46.78125 33.40625 
Q 43.953125 29.203125 39.59375 26.953125 
Q 35.25 24.703125 29.984375 24.703125 
Q 19.046875 24.703125 12.671875 31.3125 
Q 6.296875 37.9375 6.296875 49.421875 
Q 6.296875 60.640625 12.9375 67.421875 
Q 19.578125 74.21875 30.609375 74.21875 
Q 43.265625 74.21875 49.921875 64.515625 
Q 56.59375 54.828125 56.59375 36.375 
Q 56.59375 19.140625 48.40625 8.859375 
Q 40.234375 -1.421875 26.421875 -1.421875 
Q 22.703125 -1.421875 18.890625 -0.6875 
Q 15.09375 0.046875 10.984375 1.515625 
z
M 30.609375 32.421875 
Q 37.25 32.421875 41.125 36.953125 
Q 45.015625 41.5 45.015625 49.421875 
Q 45.015625 57.28125 41.125 61.84375 
Q 37.25 66.40625 30.609375 66.40625 
Q 23.96875 66.40625 20.09375 61.84375 
Q 16.21875 57.28125 16.21875 49.421875 
Q 16.21875 41.5 20.09375 36.953125 
Q 23.96875 32.421875 30.609375 32.421875 
z
" id="DejaVuSans-39"/>
    </defs>
    <g transform="translate(154.039815 89.396072)scale(0.204 -0.204)">
     <use xlink:href="#DejaVuSans-39"/>
    </g>
   </g>
   <g id="text_20">
    <!-- 15 instances -->
    <defs>
     <path id="DejaVuSans-20"/>
     <path d="M 9.421875 54.6875 
L 18.40625 54.6875 
L 18.40625 0 
L 9.421875 0 
z
M 9.421875 75.984375 
L 18.40625 75.984375 
L 18.40625 64.59375 
L 9.421875 64.59375 
z
" id="DejaVuSans-69"/>
     <path d="M 54.890625 33.015625 
L 54.890625 0 
L 45.90625 0 
L 45.90625 32.71875 
Q 45.90625 40.484375 42.875 44.328125 
Q 39.84375 48.1875 33.796875 48.1875 
Q 26.515625 48.1875 22.3125 43.546875 
Q 18.109375 38.921875 18.109375 30.90625 
L 18.109375 0 
L 9.078125 0 
L 9.078125 54.6875 
L 18.109375 54.6875 
L 18.109375 46.1875 
Q 21.34375 51.125 25.703125 53.5625 
Q 30.078125 56 35.796875 56 
Q 45.21875 56 50.046875 50.171875 
Q 54.890625 44.34375 54.890625 33.015625 
z
" id="DejaVuSans-6e"/>
     <path d="M 44.28125 53.078125 
L 44.28125 44.578125 
Q 40.484375 46.53125 36.375 47.5 
Q 32.28125 48.484375 27.875 48.484375 
Q 21.1875 48.484375 17.84375 46.4375 
Q 14.5 44.390625 14.5 40.28125 
Q 14.5 37.15625 16.890625 35.375 
Q 19.28125 33.59375 26.515625 31.984375 
L 29.59375 31.296875 
Q 39.15625 29.25 43.1875 25.515625 
Q 47.21875 21.78125 47.21875 15.09375 
Q 47.21875 7.46875 41.1875 3.015625 
Q 35.15625 -1.421875 24.609375 -1.421875 
Q 20.21875 -1.421875 15.453125 -0.5625 
Q 10.6875 0.296875 5.421875 2 
L 5.421875 11.28125 
Q 10.40625 8.6875 15.234375 7.390625 
Q 20.0625 6.109375 24.8125 6.109375 
Q 31.15625 6.109375 34.5625 8.28125 
Q 37.984375 10.453125 37.984375 14.40625 
Q 37.984375 18.0625 35.515625 20.015625 
Q 33.0625 21.96875 24.703125 23.78125 
L 21.578125 24.515625 
Q 13.234375 26.265625 9.515625 29.90625 
Q 5.8125 33.546875 5.8125 39.890625 
Q 5.8125 47.609375 11.28125 51.796875 
Q 16.75 56 26.8125 56 
Q 31.78125 56 36.171875 55.265625 
Q 40.578125 54.546875 44.28125 53.078125 
z
" id="DejaVuSans-73"/>
     <path d="M 18.3125 70.21875 
L 18.3125 54.6875 
L 36.8125 54.6875 
L 36.8125 47.703125 
L 18.3125 47.703125 
L 18.3125 18.015625 
Q 18.3125 11.328125 20.140625 9.421875 
Q 21.96875 7.515625 27.59375 7.515625 
L 36.8125 7.515625 
L 36.8125 0 
L 27.59375 0 
Q 17.1875 0 13.234375 3.875 
Q 9.28125 7.765625 9.28125 18.015625 
L 9.28125 47.703125 
L 2.6875 47.703125 
L 2.6875 54.6875 
L 9.28125 54.6875 
L 9.28125 70.21875 
z
" id="DejaVuSans-74"/>
     <path d="M 34.28125 27.484375 
Q 23.390625 27.484375 19.1875 25 
Q 14.984375 22.515625 14.984375 16.5 
Q 14.984375 11.71875 18.140625 8.90625 
Q 21.296875 6.109375 26.703125 6.109375 
Q 34.1875 6.109375 38.703125 11.40625 
Q 43.21875 16.703125 43.21875 25.484375 
L 43.21875 27.484375 
z
M 52.203125 31.203125 
L 52.203125 0 
L 43.21875 0 
L 43.21875 8.296875 
Q 40.140625 3.328125 35.546875 0.953125 
Q 30.953125 -1.421875 24.3125 -1.421875 
Q 15.921875 -1.421875 10.953125 3.296875 
Q 6 8.015625 6 15.921875 
Q 6 25.140625 12.171875 29.828125 
Q 18.359375 34.515625 30.609375 34.515625 
L 43.21875 34.515625 
L 43.21875 35.40625 
Q 43.21875 41.609375 39.140625 45 
Q 35.0625 48.390625 27.6875 48.390625 
Q 23 48.390625 18.546875 47.265625 
Q 14.109375 46.140625 10.015625 43.890625 
L 10.015625 52.203125 
Q 14.9375 54.109375 19.578125 55.046875 
Q 24.21875 56 28.609375 56 
Q 40.484375 56 46.34375 49.84375 
Q 52.203125 43.703125 52.203125 31.203125 
z
" id="DejaVuSans-61"/>
     <path d="M 48.78125 52.59375 
L 48.78125 44.1875 
Q 44.96875 46.296875 41.140625 47.34375 
Q 37.3125 48.390625 33.40625 48.390625 
Q 24.65625 48.390625 19.8125 42.84375 
Q 14.984375 37.3125 14.984375 27.296875 
Q 14.984375 17.28125 19.8125 11.734375 
Q 24.65625 6.203125 33.40625 6.203125 
Q 37.3125 6.203125 41.140625 7.25 
Q 44.96875 8.296875 48.78125 10.40625 
L 48.78125 2.09375 
Q 45.015625 0.34375 40.984375 -0.53125 
Q 36.96875 -1.421875 32.421875 -1.421875 
Q 20.0625 -1.421875 12.78125 6.34375 
Q 5.515625 14.109375 5.515625 27.296875 
Q 5.515625 40.671875 12.859375 48.328125 
Q 20.21875 56 33.015625 56 
Q 37.15625 56 41.109375 55.140625 
Q 45.0625 54.296875 48.78125 52.59375 
z
" id="DejaVuSans-63"/>
     <path d="M 56.203125 29.59375 
L 56.203125 25.203125 
L 14.890625 25.203125 
Q 15.484375 15.921875 20.484375 11.0625 
Q 25.484375 6.203125 34.421875 6.203125 
Q 39.59375 6.203125 44.453125 7.46875 
Q 49.3125 8.734375 54.109375 11.28125 
L 54.109375 2.78125 
Q 49.265625 0.734375 44.1875 -0.34375 
Q 39.109375 -1.421875 33.890625 -1.421875 
Q 20.796875 -1.421875 13.15625 6.1875 
Q 5.515625 13.8125 5.515625 26.8125 
Q 5.515625 40.234375 12.765625 48.109375 
Q 20.015625 56 32.328125 56 
Q 43.359375 56 49.78125 48.890625 
Q 56.203125 41.796875 56.203125 29.59375 
z
M 47.21875 32.234375 
Q 47.125 39.59375 43.09375 43.984375 
Q 39.0625 48.390625 32.421875 48.390625 
Q 24.90625 48.390625 20.390625 44.140625 
Q 15.875 39.890625 15.1875 32.171875 
z
" id="DejaVuSans-65"/>
    </defs>
    <g transform="translate(25.9 292.6515)scale(0.14 -0.14)">
     <use xlink:href="#DejaVuSans-31"/>
     <use x="63.623047" xlink:href="#DejaVuSans-35"/>
     <use x="127.246094" xlink:href="#DejaVuSans-20"/>
     <use x="159.033203" xlink:href="#DejaVuSans-69"/>
     <use x="186.816406" xlink:href="#DejaVuSans-6e"/>
     <use x="250.195312" xlink:href="#DejaVuSans-73"/>
     <use x="302.294922" xlink:href="#DejaVuSans-74"/>
     <use x="341.503906" xlink:href="#DejaVuSans-61"/>
     <use x="402.783203" xlink:href="#DejaVuSans-6e"/>
     <use x="466.162109" xlink:href="#DejaVuSans-63"/>
     <use x="521.142578" xlink:href="#DejaVuSans-65"/>
     <use x="582.666016" xlink:href="#DejaVuSans-73"/>
    </g>
    <!-- absolute targets -->
    <defs>
     <path d="M 48.6875 27.296875 
Q 48.6875 37.203125 44.609375 42.84375 
Q 40.53125 48.484375 33.40625 48.484375 
Q 26.265625 48.484375 22.1875 42.84375 
Q 18.109375 37.203125 18.109375 27.296875 
Q 18.109375 17.390625 22.1875 11.75 
Q 26.265625 6.109375 33.40625 6.109375 
Q 40.53125 6.109375 44.609375 11.75 
Q 48.6875 17.390625 48.6875 27.296875 
z
M 18.109375 46.390625 
Q 20.953125 51.265625 25.265625 53.625 
Q 29.59375 56 35.59375 56 
Q 45.5625 56 51.78125 48.09375 
Q 58.015625 40.1875 58.015625 27.296875 
Q 58.015625 14.40625 51.78125 6.484375 
Q 45.5625 -1.421875 35.59375 -1.421875 
Q 29.59375 -1.421875 25.265625 0.953125 
Q 20.953125 3.328125 18.109375 8.203125 
L 18.109375 0 
L 9.078125 0 
L 9.078125 75.984375 
L 18.109375 75.984375 
z
" id="DejaVuSans-62"/>
     <path d="M 30.609375 48.390625 
Q 23.390625 48.390625 19.1875 42.75 
Q 14.984375 37.109375 14.984375 27.296875 
Q 14.984375 17.484375 19.15625 11.84375 
Q 23.34375 6.203125 30.609375 6.203125 
Q 37.796875 6.203125 41.984375 11.859375 
Q 46.1875 17.53125 46.1875 27.296875 
Q 46.1875 37.015625 41.984375 42.703125 
Q 37.796875 48.390625 30.609375 48.390625 
z
M 30.609375 56 
Q 42.328125 56 49.015625 48.375 
Q 55.71875 40.765625 55.71875 27.296875 
Q 55.71875 13.875 49.015625 6.21875 
Q 42.328125 -1.421875 30.609375 -1.421875 
Q 18.84375 -1.421875 12.171875 6.21875 
Q 5.515625 13.875 5.515625 27.296875 
Q 5.515625 40.765625 12.171875 48.375 
Q 18.84375 56 30.609375 56 
z
" id="DejaVuSans-6f"/>
     <path d="M 9.421875 75.984375 
L 18.40625 75.984375 
L 18.40625 0 
L 9.421875 0 
z
" id="DejaVuSans-6c"/>
     <path d="M 8.5 21.578125 
L 8.5 54.6875 
L 17.484375 54.6875 
L 17.484375 21.921875 
Q 17.484375 14.15625 20.5 10.265625 
Q 23.53125 6.390625 29.59375 6.390625 
Q 36.859375 6.390625 41.078125 11.03125 
Q 45.3125 15.671875 45.3125 23.6875 
L 45.3125 54.6875 
L 54.296875 54.6875 
L 54.296875 0 
L 45.3125 0 
L 45.3125 8.40625 
Q 42.046875 3.421875 37.71875 1 
Q 33.40625 -1.421875 27.6875 -1.421875 
Q 18.265625 -1.421875 13.375 4.4375 
Q 8.5 10.296875 8.5 21.578125 
z
M 31.109375 56 
z
" id="DejaVuSans-75"/>
     <path d="M 41.109375 46.296875 
Q 39.59375 47.171875 37.8125 47.578125 
Q 36.03125 48 33.890625 48 
Q 26.265625 48 22.1875 43.046875 
Q 18.109375 38.09375 18.109375 28.8125 
L 18.109375 0 
L 9.078125 0 
L 9.078125 54.6875 
L 18.109375 54.6875 
L 18.109375 46.1875 
Q 20.953125 51.171875 25.484375 53.578125 
Q 30.03125 56 36.53125 56 
Q 37.453125 56 38.578125 55.875 
Q 39.703125 55.765625 41.0625 55.515625 
z
" id="DejaVuSans-72"/>
     <path d="M 45.40625 27.984375 
Q 45.40625 37.75 41.375 43.109375 
Q 37.359375 48.484375 30.078125 48.484375 
Q 22.859375 48.484375 18.828125 43.109375 
Q 14.796875 37.75 14.796875 27.984375 
Q 14.796875 18.265625 18.828125 12.890625 
Q 22.859375 7.515625 30.078125 7.515625 
Q 37.359375 7.515625 41.375 12.890625 
Q 45.40625 18.265625 45.40625 27.984375 
z
M 54.390625 6.78125 
Q 54.390625 -7.171875 48.1875 -13.984375 
Q 42 -20.796875 29.203125 -20.796875 
Q 24.46875 -20.796875 20.265625 -20.09375 
Q 16.0625 -19.390625 12.109375 -17.921875 
L 12.109375 -9.1875 
Q 16.0625 -11.328125 19.921875 -12.34375 
Q 23.78125 -13.375 27.78125 -13.375 
Q 36.625 -13.375 41.015625 -8.765625 
Q 45.40625 -4.15625 45.40625 5.171875 
L 45.40625 9.625 
Q 42.625 4.78125 38.28125 2.390625 
Q 33.9375 0 27.875 0 
Q 17.828125 0 11.671875 7.65625 
Q 5.515625 15.328125 5.515625 27.984375 
Q 5.515625 40.671875 11.671875 48.328125 
Q 17.828125 56 27.875 56 
Q 33.9375 56 38.28125 53.609375 
Q 42.625 51.21875 45.40625 46.390625 
L 45.40625 54.6875 
L 54.390625 54.6875 
z
" id="DejaVuSans-67"/>
    </defs>
    <g transform="translate(25.9 308.328437)scale(0.14 -0.14)">
     <use xlink:href="#DejaVuSans-61"/>
     <use x="61.279297" xlink:href="#DejaVuSans-62"/>
     <use x="124.755859" xlink:href="#DejaVuSans-73"/>
     <use x="176.855469" xlink:href="#DejaVuSans-6f"/>
     <use x="238.037109" xlink:href="#DejaVuSans-6c"/>
     <use x="265.820312" xlink:href="#DejaVuSans-75"/>
     <use x="329.199219" xlink:href="#DejaVuSans-74"/>
     <use x="368.408203" xlink:href="#DejaVuSans-65"/>
     <use x="429.931641" xlink:href="#DejaVuSans-20"/>
     <use x="461.71875" xlink:href="#DejaVuSans-74"/>
     <use x="500.927734" xlink:href="#DejaVuSans-61"/>
     <use x="562.207031" xlink:href="#DejaVuSans-72"/>
     <use x="603.304688" xlink:href="#DejaVuSans-67"/>
     <use x="666.78125" xlink:href="#DejaVuSans-65"/>
     <use x="728.304688" xlink:href="#DejaVuSans-74"/>
     <use x="767.513672" xlink:href="#DejaVuSans-73"/>
    </g>
   </g>
   <g id="text_21">
    <!-- v0.0.0 -->
    <defs>
     <path d="M 2.984375 54.6875 
L 12.5 54.6875 
L 29.59375 8.796875 
L 46.6875 54.6875 
L 56.203125 54.6875 
L 35.6875 0 
L 23.484375 0 
z
" id="DejaVuSans-76"/>
     <path d="M 10.6875 12.40625 
L 21 12.40625 
L 21 0 
L 10.6875 0 
z
" id="DejaVuSans-2e"/>
    </defs>
    <g style="fill:#808080;" transform="translate(222.30475 306.331112)scale(0.1 -0.1)">
     <use xlink:href="#DejaVuSans-76"/>
     <use x="59.179688" xlink:href="#DejaVuSans-30"/>
     <use x="122.802734" xlink:href="#DejaVuSans-2e"/>
     <use x="154.589844" xlink:href="#DejaVuSans-30"/>
     <use x="218.212891" xlink:href="#DejaVuSans-2e"/>
     <use x="250" xlink:href="#DejaVuSans-30"/>
    </g>
   </g>
   <g id="text_22">
    <!-- 16 Weierstrass -->
    <defs>
     <path d="M 3.328125 72.90625 
L 13.28125 72.90625 
L 28.609375 11.28125 
L 43.890625 72.90625 
L 54.984375 72.90625 
L 70.3125 11.28125 
L 85.59375 72.90625 
L 95.609375 72.90625 
L 77.296875 0 
L 64.890625 0 
L 49.515625 63.28125 
L 33.984375 0 
L 21.578125 0 
z
" id="DejaVuSans-57"/>
    </defs>
    <g transform="translate(148.26725 22.32)scale(0.24 -0.24)">
     <use xlink:href="#DejaVuSans-31"/>
     <use x="63.623047" xlink:href="#DejaVuSans-36"/>
     <use x="127.246094" xlink:href="#DejaVuSans-20"/>
     <use x="159.033203" xlink:href="#DejaVuSans-57"/>
     <use x="257.832031" xlink:href="#DejaVuSans-65"/>
     <use x="319.355469" xlink:href="#DejaVuSans-69"/>
     <use x="347.138672" xlink:href="#DejaVuSans-65"/>
     <use x="408.662109" xlink:href="#DejaVuSans-72"/>
     <use x="449.775391" xlink:href="#DejaVuSans-73"/>
     <use x="501.875" xlink:href="#DejaVuSans-74"/>
     <use x="541.083984" xlink:href="#DejaVuSans-72"/>
     <use x="582.197266" xlink:href="#DejaVuSans-61"/>
     <use x="643.476562" xlink:href="#DejaVuSans-73"/>
     <use x="695.576172" xlink:href="#DejaVuSans-73"/>
    </g>
   </g>
  </g>
 </g>
 <defs>
  <clipPath id="pb05e9d30b4">
   <rect height="282.92" width="424.172" x="25.9" y="28.32"/>
  </clipPath>
 </defs>
</svg>
