<?xml version="1.0" encoding="utf-8" standalone="no"?>
<!DOCTYPE svg PUBLIC "-//W3C//DTD SVG 1.1//EN"
  "http://www.w3.org/Graphics/SVG/1.1/DTD/svg11.dtd">
<!-- Created with matplotlib (http://matplotlib.org/) -->
<svg height="345.6pt" version="1.1" viewBox="0 0 460.8 345.6" width="460.8pt" xmlns="http://www.w3.org/2000/svg" xmlns:xlink="http://www.w3.org/1999/xlink">
 <defs>
  <style type="text/css">
*{stroke-linecap:butt;stroke-linejoin:round;}
  </style>
 </defs>
 <g id="figure_1">
  <g id="patch_1">
   <path d="M 0 345.6 
L 460.8 345.6 
L 460.8 0 
L 0 0 
z
" style="fill:#ffffff;"/>
  </g>
  <g id="axes_1">
   <g id="patch_2">
    <path d="M 25.9 311.24 
L 450.072 311.24 
L 450.072 28.32 
L 25.9 28.32 
z
" style="fill:#ffffff;"/>
   </g>
   <g id="line2d_1">
    <path clip-path="url(#pbcb994af78)" d="M 39.784034 223.878535 
L 93.214783 207.570315 
L 160.529565 204.868143 
L 251.870034 195.793427 
L 343.210502 190.884809 
L 434.550971 192.223538 
" style="fill:none;stroke:#f5deb3;stroke-linecap:square;stroke-width:10;"/>
    <defs>
     <path d="M -0 17.67767 
L 10.606602 0 
L 0 -17.67767 
L -10.606602 -0 
z
" id="m9c85ff0d3a" style="stroke:#000000;stroke-linejoin:miter;"/>
    </defs>
    <g clip-path="url(#pbcb994af78)">
     <use style="fill:#f5deb3;stroke:#000000;stroke-linejoin:miter;" x="39.784034" xlink:href="#m9c85ff0d3a" y="223.878535"/>
     <use style="fill:#f5deb3;stroke:#000000;stroke-linejoin:miter;" x="93.214783" xlink:href="#m9c85ff0d3a" y="207.570315"/>
     <use style="fill:#f5deb3;stroke:#000000;stroke-linejoin:miter;" x="160.529565" xlink:href="#m9c85ff0d3a" y="204.868143"/>
     <use style="fill:#f5deb3;stroke:#000000;stroke-linejoin:miter;" x="251.870034" xlink:href="#m9c85ff0d3a" y="195.793427"/>
     <use style="fill:#f5deb3;stroke:#000000;stroke-linejoin:miter;" x="343.210502" xlink:href="#m9c85ff0d3a" y="190.884809"/>
     <use style="fill:#f5deb3;stroke:#000000;stroke-linejoin:miter;" x="434.550971" xlink:href="#m9c85ff0d3a" y="192.223538"/>
    </g>
   </g>
   <g id="line2d_2">
    <defs>
     <path d="M -15 0 
L 15 0 
M 0 15 
L 0 -15 
" id="m592b7c5ed5" style="stroke:#bfbf00;stroke-width:5;"/>
    </defs>
    <g clip-path="url(#pbcb994af78)">
     <use style="fill:#bfbf00;stroke:#bfbf00;stroke-width:5;" x="39.784034" xlink:href="#m592b7c5ed5" y="156.777346"/>
    </g>
   </g>
   <g id="line2d_3">
    <g clip-path="url(#pbcb994af78)">
     <use style="fill:#bfbf00;stroke:#bfbf00;stroke-width:5;" x="93.214783" xlink:href="#m592b7c5ed5" y="153.150078"/>
    </g>
   </g>
   <g id="line2d_4">
    <g clip-path="url(#pbcb994af78)">
     <use style="fill:#bfbf00;stroke:#bfbf00;stroke-width:5;" x="160.529565" xlink:href="#m592b7c5ed5" y="156.594092"/>
    </g>
   </g>
   <g id="line2d_5">
    <g clip-path="url(#pbcb994af78)">
     <use style="fill:#bfbf00;stroke:#bfbf00;stroke-width:5;" x="434.550971" xlink:href="#m592b7c5ed5" y="182.740604"/>
    </g>
   </g>
   <g id="line2d_6">
    <defs>
     <path d="M -15 0 
L 15 0 
M 0 15 
L 0 -15 
" id="m40baae504e" style="stroke:#008000;stroke-width:5;"/>
    </defs>
    <g clip-path="url(#pbcb994af78)">
     <use style="fill:#008000;stroke:#008000;stroke-width:5;" x="251.870034" xlink:href="#m40baae504e" y="164.105288"/>
    </g>
   </g>
   <g id="line2d_7">
    <g clip-path="url(#pbcb994af78)">
     <use style="fill:#008000;stroke:#008000;stroke-width:5;" x="343.210502" xlink:href="#m40baae504e" y="173.396836"/>
    </g>
   </g>
   <g id="matplotlib.axis_1">
    <g id="xtick_1">
     <g id="line2d_8">
      <defs>
       <path d="M 0 0 
L 0 3.5 
" id="m821edfe5cd" style="stroke:#000000;stroke-width:0.8;"/>
      </defs>
      <g>
       <use style="stroke:#000000;stroke-width:0.8;" x="39.784034" xlink:href="#m821edfe5cd" y="311.24"/>
      </g>
     </g>
     <g id="text_1">
      <!-- 2 -->
      <defs>
       <path d="M 19.1875 8.296875 
L 53.609375 8.296875 
L 53.609375 0 
L 7.328125 0 
L 7.328125 8.296875 
Q 12.9375 14.109375 22.625 23.890625 
Q 32.328125 33.6875 34.8125 36.53125 
Q 39.546875 41.84375 41.421875 45.53125 
Q 43.3125 49.21875 43.3125 52.78125 
Q 43.3125 58.59375 39.234375 62.25 
Q 35.15625 65.921875 28.609375 65.921875 
Q 23.96875 65.921875 18.8125 64.3125 
Q 13.671875 62.703125 7.8125 59.421875 
L 7.8125 69.390625 
Q 13.765625 71.78125 18.9375 73 
Q 24.125 74.21875 28.421875 74.21875 
Q 39.75 74.21875 46.484375 68.546875 
Q 53.21875 62.890625 53.21875 53.421875 
Q 53.21875 48.921875 51.53125 44.890625 
Q 49.859375 40.875 45.40625 35.40625 
Q 44.1875 33.984375 37.640625 27.21875 
Q 31.109375 20.453125 19.1875 8.296875 
z
" id="DejaVuSans-32"/>
      </defs>
      <g transform="translate(32.149034 336.47625)scale(0.24 -0.24)">
       <use xlink:href="#DejaVuSans-32"/>
      </g>
     </g>
    </g>
    <g id="xtick_2">
     <g id="line2d_9">
      <g>
       <use style="stroke:#000000;stroke-width:0.8;" x="93.214783" xlink:href="#m821edfe5cd" y="311.24"/>
      </g>
     </g>
     <g id="text_2">
      <!-- 3 -->
      <defs>
       <path d="M 40.578125 39.3125 
Q 47.65625 37.796875 51.625 33 
Q 55.609375 28.21875 55.609375 21.1875 
Q 55.609375 10.40625 48.1875 4.484375 
Q 40.765625 -1.421875 27.09375 -1.421875 
Q 22.515625 -1.421875 17.65625 -0.515625 
Q 12.796875 0.390625 7.625 2.203125 
L 7.625 11.71875 
Q 11.71875 9.328125 16.59375 8.109375 
Q 21.484375 6.890625 26.8125 6.890625 
Q 36.078125 6.890625 40.9375 10.546875 
Q 45.796875 14.203125 45.796875 21.1875 
Q 45.796875 27.640625 41.28125 31.265625 
Q 36.765625 34.90625 28.71875 34.90625 
L 20.21875 34.90625 
L 20.21875 43.015625 
L 29.109375 43.015625 
Q 36.375 43.015625 40.234375 45.921875 
Q 44.09375 48.828125 44.09375 54.296875 
Q 44.09375 59.90625 40.109375 62.90625 
Q 36.140625 65.921875 28.71875 65.921875 
Q 24.65625 65.921875 20.015625 65.03125 
Q 15.375 64.15625 9.8125 62.3125 
L 9.8125 71.09375 
Q 15.4375 72.65625 20.34375 73.4375 
Q 25.25 74.21875 29.59375 74.21875 
Q 40.828125 74.21875 47.359375 69.109375 
Q 53.90625 64.015625 53.90625 55.328125 
Q 53.90625 49.265625 50.4375 45.09375 
Q 46.96875 40.921875 40.578125 39.3125 
z
" id="DejaVuSans-33"/>
      </defs>
      <g transform="translate(85.579783 336.47625)scale(0.24 -0.24)">
       <use xlink:href="#DejaVuSans-33"/>
      </g>
     </g>
    </g>
    <g id="xtick_3">
     <g id="line2d_10">
      <g>
       <use style="stroke:#000000;stroke-width:0.8;" x="160.529565" xlink:href="#m821edfe5cd" y="311.24"/>
      </g>
     </g>
     <g id="text_3">
      <!-- 5 -->
      <defs>
       <path d="M 10.796875 72.90625 
L 49.515625 72.90625 
L 49.515625 64.59375 
L 19.828125 64.59375 
L 19.828125 46.734375 
Q 21.96875 47.46875 24.109375 47.828125 
Q 26.265625 48.1875 28.421875 48.1875 
Q 40.625 48.1875 47.75 41.5 
Q 54.890625 34.8125 54.890625 23.390625 
Q 54.890625 11.625 47.5625 5.09375 
Q 40.234375 -1.421875 26.90625 -1.421875 
Q 22.3125 -1.421875 17.546875 -0.640625 
Q 12.796875 0.140625 7.71875 1.703125 
L 7.71875 11.625 
Q 12.109375 9.234375 16.796875 8.0625 
Q 21.484375 6.890625 26.703125 6.890625 
Q 35.15625 6.890625 40.078125 11.328125 
Q 45.015625 15.765625 45.015625 23.390625 
Q 45.015625 31 40.078125 35.4375 
Q 35.15625 39.890625 26.703125 39.890625 
Q 22.75 39.890625 18.8125 39.015625 
Q 14.890625 38.140625 10.796875 36.28125 
z
" id="DejaVuSans-35"/>
      </defs>
      <g transform="translate(152.894565 336.47625)scale(0.24 -0.24)">
       <use xlink:href="#DejaVuSans-35"/>
      </g>
     </g>
    </g>
    <g id="xtick_4">
     <g id="line2d_11">
      <g>
       <use style="stroke:#000000;stroke-width:0.8;" x="251.870034" xlink:href="#m821edfe5cd" y="311.24"/>
      </g>
     </g>
     <g id="text_4">
      <!-- 10 -->
      <defs>
       <path d="M 12.40625 8.296875 
L 28.515625 8.296875 
L 28.515625 63.921875 
L 10.984375 60.40625 
L 10.984375 69.390625 
L 28.421875 72.90625 
L 38.28125 72.90625 
L 38.28125 8.296875 
L 54.390625 8.296875 
L 54.390625 0 
L 12.40625 0 
z
" id="DejaVuSans-31"/>
       <path d="M 31.78125 66.40625 
Q 24.171875 66.40625 20.328125 58.90625 
Q 16.5 51.421875 16.5 36.375 
Q 16.5 21.390625 20.328125 13.890625 
Q 24.171875 6.390625 31.78125 6.390625 
Q 39.453125 6.390625 43.28125 13.890625 
Q 47.125 21.390625 47.125 36.375 
Q 47.125 51.421875 43.28125 58.90625 
Q 39.453125 66.40625 31.78125 66.40625 
z
M 31.78125 74.21875 
Q 44.046875 74.21875 50.515625 64.515625 
Q 56.984375 54.828125 56.984375 36.375 
Q 56.984375 17.96875 50.515625 8.265625 
Q 44.046875 -1.421875 31.78125 -1.421875 
Q 19.53125 -1.421875 13.0625 8.265625 
Q 6.59375 17.96875 6.59375 36.375 
Q 6.59375 54.828125 13.0625 64.515625 
Q 19.53125 74.21875 31.78125 74.21875 
z
" id="DejaVuSans-30"/>
      </defs>
      <g transform="translate(236.600034 336.47625)scale(0.24 -0.24)">
       <use xlink:href="#DejaVuSans-31"/>
       <use x="63.623047" xlink:href="#DejaVuSans-30"/>
      </g>
     </g>
    </g>
    <g id="xtick_5">
     <g id="line2d_12">
      <g>
       <use style="stroke:#000000;stroke-width:0.8;" x="343.210502" xlink:href="#m821edfe5cd" y="311.24"/>
      </g>
     </g>
     <g id="text_5">
      <!-- 20 -->
      <g transform="translate(327.940502 336.47625)scale(0.24 -0.24)">
       <use xlink:href="#DejaVuSans-32"/>
       <use x="63.623047" xlink:href="#DejaVuSans-30"/>
      </g>
     </g>
    </g>
    <g id="xtick_6">
     <g id="line2d_13">
      <g>
       <use style="stroke:#000000;stroke-width:0.8;" x="434.550971" xlink:href="#m821edfe5cd" y="311.24"/>
      </g>
     </g>
     <g id="text_6">
      <!-- 40 -->
      <defs>
       <path d="M 37.796875 64.3125 
L 12.890625 25.390625 
L 37.796875 25.390625 
z
M 35.203125 72.90625 
L 47.609375 72.90625 
L 47.609375 25.390625 
L 58.015625 25.390625 
L 58.015625 17.1875 
L 47.609375 17.1875 
L 47.609375 0 
L 37.796875 0 
L 37.796875 17.1875 
L 4.890625 17.1875 
L 4.890625 26.703125 
z
" id="DejaVuSans-34"/>
      </defs>
      <g transform="translate(419.280971 336.47625)scale(0.24 -0.24)">
       <use xlink:href="#DejaVuSans-34"/>
       <use x="63.623047" xlink:href="#DejaVuSans-30"/>
      </g>
     </g>
    </g>
    <g id="xtick_7">
     <g id="line2d_14">
      <defs>
       <path d="M 0 0 
L 0 2 
" id="mcaeb7ce779" style="stroke:#000000;stroke-width:0.6;"/>
      </defs>
      <g>
       <use style="stroke:#000000;stroke-width:0.6;" x="39.784034" xlink:href="#mcaeb7ce779" y="311.24"/>
      </g>
     </g>
    </g>
    <g id="xtick_8">
     <g id="line2d_15">
      <g>
       <use style="stroke:#000000;stroke-width:0.6;" x="93.214783" xlink:href="#mcaeb7ce779" y="311.24"/>
      </g>
     </g>
    </g>
    <g id="xtick_9">
     <g id="line2d_16">
      <g>
       <use style="stroke:#000000;stroke-width:0.6;" x="131.124502" xlink:href="#mcaeb7ce779" y="311.24"/>
      </g>
     </g>
    </g>
    <g id="xtick_10">
     <g id="line2d_17">
      <g>
       <use style="stroke:#000000;stroke-width:0.6;" x="160.529565" xlink:href="#mcaeb7ce779" y="311.24"/>
      </g>
     </g>
    </g>
    <g id="xtick_11">
     <g id="line2d_18">
      <g>
       <use style="stroke:#000000;stroke-width:0.6;" x="184.555251" xlink:href="#mcaeb7ce779" y="311.24"/>
      </g>
     </g>
    </g>
    <g id="xtick_12">
     <g id="line2d_19">
      <g>
       <use style="stroke:#000000;stroke-width:0.6;" x="204.868679" xlink:href="#mcaeb7ce779" y="311.24"/>
      </g>
     </g>
    </g>
    <g id="xtick_13">
     <g id="line2d_20">
      <g>
       <use style="stroke:#000000;stroke-width:0.6;" x="222.464971" xlink:href="#mcaeb7ce779" y="311.24"/>
      </g>
     </g>
    </g>
    <g id="xtick_14">
     <g id="line2d_21">
      <g>
       <use style="stroke:#000000;stroke-width:0.6;" x="237.986" xlink:href="#mcaeb7ce779" y="311.24"/>
      </g>
     </g>
    </g>
    <g id="xtick_15">
     <g id="line2d_22">
      <g>
       <use style="stroke:#000000;stroke-width:0.6;" x="343.210502" xlink:href="#mcaeb7ce779" y="311.24"/>
      </g>
     </g>
    </g>
    <g id="xtick_16">
     <g id="line2d_23">
      <g>
       <use style="stroke:#000000;stroke-width:0.6;" x="396.641251" xlink:href="#mcaeb7ce779" y="311.24"/>
      </g>
     </g>
    </g>
    <g id="xtick_17">
     <g id="line2d_24">
      <g>
       <use style="stroke:#000000;stroke-width:0.6;" x="434.550971" xlink:href="#mcaeb7ce779" y="311.24"/>
      </g>
     </g>
    </g>
   </g>
   <g id="matplotlib.axis_2">
    <g id="ytick_1">
     <g id="line2d_25">
      <path clip-path="url(#pbcb994af78)" d="M 25.9 303.381112 
L 450.072 303.381112 
" style="fill:none;stroke:#b0b0b0;stroke-linecap:square;stroke-width:0.8;"/>
     </g>
     <g id="line2d_26">
      <defs>
       <path d="M 0 0 
L -3.5 0 
" id="mb2c21f4703" style="stroke:#000000;stroke-width:0.8;"/>
      </defs>
      <g>
       <use style="stroke:#000000;stroke-width:0.8;" x="25.9" xlink:href="#mb2c21f4703" y="303.381112"/>
      </g>
     </g>
     <g id="text_7">
      <!-- 0 -->
      <g transform="translate(3.63 312.499237)scale(0.24 -0.24)">
       <use xlink:href="#DejaVuSans-30"/>
      </g>
     </g>
    </g>
    <g id="ytick_2">
     <g id="line2d_27">
      <path clip-path="url(#pbcb994af78)" d="M 25.9 264.08667 
L 450.072 264.08667 
" style="fill:none;stroke:#b0b0b0;stroke-linecap:square;stroke-width:0.8;"/>
     </g>
     <g id="line2d_28">
      <g>
       <use style="stroke:#000000;stroke-width:0.8;" x="25.9" xlink:href="#mb2c21f4703" y="264.08667"/>
      </g>
     </g>
     <g id="text_8">
      <!-- 1 -->
      <g transform="translate(3.63 273.204795)scale(0.24 -0.24)">
       <use xlink:href="#DejaVuSans-31"/>
      </g>
     </g>
    </g>
    <g id="ytick_3">
     <g id="line2d_29">
      <path clip-path="url(#pbcb994af78)" d="M 25.9 224.792227 
L 450.072 224.792227 
" style="fill:none;stroke:#b0b0b0;stroke-linecap:square;stroke-width:0.8;"/>
     </g>
     <g id="line2d_30">
      <g>
       <use style="stroke:#000000;stroke-width:0.8;" x="25.9" xlink:href="#mb2c21f4703" y="224.792227"/>
      </g>
     </g>
     <g id="text_9">
      <!-- 2 -->
      <g transform="translate(3.63 233.910352)scale(0.24 -0.24)">
       <use xlink:href="#DejaVuSans-32"/>
      </g>
     </g>
    </g>
    <g id="ytick_4">
     <g id="line2d_31">
      <path clip-path="url(#pbcb994af78)" d="M 25.9 185.497785 
L 450.072 185.497785 
" style="fill:none;stroke:#b0b0b0;stroke-linecap:square;stroke-width:0.8;"/>
     </g>
     <g id="line2d_32">
      <g>
       <use style="stroke:#000000;stroke-width:0.8;" x="25.9" xlink:href="#mb2c21f4703" y="185.497785"/>
      </g>
     </g>
     <g id="text_10">
      <!-- 3 -->
      <g transform="translate(3.63 194.61591)scale(0.24 -0.24)">
       <use xlink:href="#DejaVuSans-33"/>
      </g>
     </g>
    </g>
    <g id="ytick_5">
     <g id="line2d_33">
      <path clip-path="url(#pbcb994af78)" d="M 25.9 146.203343 
L 450.072 146.203343 
" style="fill:none;stroke:#b0b0b0;stroke-linecap:square;stroke-width:0.8;"/>
     </g>
     <g id="line2d_34">
      <g>
       <use style="stroke:#000000;stroke-width:0.8;" x="25.9" xlink:href="#mb2c21f4703" y="146.203343"/>
      </g>
     </g>
     <g id="text_11">
      <!-- 4 -->
      <g transform="translate(3.63 155.321468)scale(0.24 -0.24)">
       <use xlink:href="#DejaVuSans-34"/>
      </g>
     </g>
    </g>
    <g id="ytick_6">
     <g id="line2d_35">
      <path clip-path="url(#pbcb994af78)" d="M 25.9 106.908901 
L 450.072 106.908901 
" style="fill:none;stroke:#b0b0b0;stroke-linecap:square;stroke-width:0.8;"/>
     </g>
     <g id="line2d_36">
      <g>
       <use style="stroke:#000000;stroke-width:0.8;" x="25.9" xlink:href="#mb2c21f4703" y="106.908901"/>
      </g>
     </g>
     <g id="text_12">
      <!-- 5 -->
      <g transform="translate(3.63 116.027026)scale(0.24 -0.24)">
       <use xlink:href="#DejaVuSans-35"/>
      </g>
     </g>
    </g>
    <g id="ytick_7">
     <g id="line2d_37">
      <path clip-path="url(#pbcb994af78)" d="M 25.9 67.614459 
L 450.072 67.614459 
" style="fill:none;stroke:#b0b0b0;stroke-linecap:square;stroke-width:0.8;"/>
     </g>
     <g id="line2d_38">
      <g>
       <use style="stroke:#000000;stroke-width:0.8;" x="25.9" xlink:href="#mb2c21f4703" y="67.614459"/>
      </g>
     </g>
     <g id="text_13">
      <!-- 6 -->
      <defs>
       <path d="M 33.015625 40.375 
Q 26.375 40.375 22.484375 35.828125 
Q 18.609375 31.296875 18.609375 23.390625 
Q 18.609375 15.53125 22.484375 10.953125 
Q 26.375 6.390625 33.015625 6.390625 
Q 39.65625 6.390625 43.53125 10.953125 
Q 47.40625 15.53125 47.40625 23.390625 
Q 47.40625 31.296875 43.53125 35.828125 
Q 39.65625 40.375 33.015625 40.375 
z
M 52.59375 71.296875 
L 52.59375 62.3125 
Q 48.875 64.0625 45.09375 64.984375 
Q 41.3125 65.921875 37.59375 65.921875 
Q 27.828125 65.921875 22.671875 59.328125 
Q 17.53125 52.734375 16.796875 39.40625 
Q 19.671875 43.65625 24.015625 45.921875 
Q 28.375 48.1875 33.59375 48.1875 
Q 44.578125 48.1875 50.953125 41.515625 
Q 57.328125 34.859375 57.328125 23.390625 
Q 57.328125 12.15625 50.6875 5.359375 
Q 44.046875 -1.421875 33.015625 -1.421875 
Q 20.359375 -1.421875 13.671875 8.265625 
Q 6.984375 17.96875 6.984375 36.375 
Q 6.984375 53.65625 15.1875 63.9375 
Q 23.390625 74.21875 37.203125 74.21875 
Q 40.921875 74.21875 44.703125 73.484375 
Q 48.484375 72.75 52.59375 71.296875 
z
" id="DejaVuSans-36"/>
      </defs>
      <g transform="translate(3.63 76.732584)scale(0.24 -0.24)">
       <use xlink:href="#DejaVuSans-36"/>
      </g>
     </g>
    </g>
    <g id="ytick_8">
     <g id="line2d_39">
      <path clip-path="url(#pbcb994af78)" d="M 25.9 28.320017 
L 450.072 28.320017 
" style="fill:none;stroke:#b0b0b0;stroke-linecap:square;stroke-width:0.8;"/>
     </g>
     <g id="line2d_40">
      <g>
       <use style="stroke:#000000;stroke-width:0.8;" x="25.9" xlink:href="#mb2c21f4703" y="28.320017"/>
      </g>
     </g>
     <g id="text_14">
      <!-- 7 -->
      <defs>
       <path d="M 8.203125 72.90625 
L 55.078125 72.90625 
L 55.078125 68.703125 
L 28.609375 0 
L 18.3125 0 
L 43.21875 64.59375 
L 8.203125 64.59375 
z
" id="DejaVuSans-37"/>
      </defs>
      <g transform="translate(3.63 37.438142)scale(0.24 -0.24)">
       <use xlink:href="#DejaVuSans-37"/>
      </g>
     </g>
    </g>
   </g>
   <g id="line2d_41">
    <path clip-path="url(#pbcb994af78)" d="M 36.644125 213.048963 
L 38.842061 190.75195 
L 36.644125 79.442668 
L 42.923943 79.442668 
L 40.726006 190.75195 
L 42.923943 213.048963 
L 36.644125 213.048963 
" style="fill:none;stroke:#000000;stroke-linecap:square;"/>
   </g>
   <g id="line2d_42">
    <path clip-path="url(#pbcb994af78)" d="M 36.644125 213.048963 
L 42.923943 213.048963 
L 42.923943 79.442668 
L 36.644125 79.442668 
L 36.644125 213.048963 
" style="fill:none;"/>
    <defs>
     <path d="M 0 3 
C 0.795609 3 1.55874 2.683901 2.12132 2.12132 
C 2.683901 1.55874 3 0.795609 3 0 
C 3 -0.795609 2.683901 -1.55874 2.12132 -2.12132 
C 1.55874 -2.683901 0.795609 -3 0 -3 
C -0.795609 -3 -1.55874 -2.683901 -2.12132 -2.12132 
C -2.683901 -1.55874 -3 -0.795609 -3 0 
C -3 0.795609 -2.683901 1.55874 -2.12132 2.12132 
C -1.55874 2.683901 -0.795609 3 0 3 
z
" id="m807e2a719b" style="stroke:#000000;stroke-width:2;"/>
    </defs>
    <g clip-path="url(#pbcb994af78)">
     <use style="stroke:#000000;stroke-width:2;" x="36.644125" xlink:href="#m807e2a719b" y="213.048963"/>
     <use style="stroke:#000000;stroke-width:2;" x="42.923943" xlink:href="#m807e2a719b" y="213.048963"/>
     <use style="stroke:#000000;stroke-width:2;" x="42.923943" xlink:href="#m807e2a719b" y="79.442668"/>
     <use style="stroke:#000000;stroke-width:2;" x="36.644125" xlink:href="#m807e2a719b" y="79.442668"/>
     <use style="stroke:#000000;stroke-width:2;" x="36.644125" xlink:href="#m807e2a719b" y="213.048963"/>
    </g>
   </g>
   <g id="line2d_43">
    <path clip-path="url(#pbcb994af78)" d="M 36.644125 190.75195 
L 42.923943 190.75195 
" style="fill:none;stroke:#000000;stroke-linecap:square;stroke-width:2;"/>
   </g>
   <g id="line2d_44">
    <path clip-path="url(#pbcb994af78)" d="M 90.074874 163.524797 
L 92.27281 97.887654 
L 90.074874 86.173903 
L 96.354692 86.173903 
L 94.156755 97.887654 
L 96.354692 163.524797 
L 90.074874 163.524797 
" style="fill:none;stroke:#000000;stroke-linecap:square;"/>
   </g>
   <g id="line2d_45">
    <path clip-path="url(#pbcb994af78)" d="M 90.074874 163.524797 
L 96.354692 163.524797 
L 96.354692 86.173903 
L 90.074874 86.173903 
L 90.074874 163.524797 
" style="fill:none;"/>
    <g clip-path="url(#pbcb994af78)">
     <use style="stroke:#000000;stroke-width:2;" x="90.074874" xlink:href="#m807e2a719b" y="163.524797"/>
     <use style="stroke:#000000;stroke-width:2;" x="96.354692" xlink:href="#m807e2a719b" y="163.524797"/>
     <use style="stroke:#000000;stroke-width:2;" x="96.354692" xlink:href="#m807e2a719b" y="86.173903"/>
     <use style="stroke:#000000;stroke-width:2;" x="90.074874" xlink:href="#m807e2a719b" y="86.173903"/>
     <use style="stroke:#000000;stroke-width:2;" x="90.074874" xlink:href="#m807e2a719b" y="163.524797"/>
    </g>
   </g>
   <g id="line2d_46">
    <path clip-path="url(#pbcb994af78)" d="M 90.074874 97.887654 
L 96.354692 97.887654 
" style="fill:none;stroke:#000000;stroke-linecap:square;stroke-width:2;"/>
   </g>
   <g id="line2d_47">
    <path clip-path="url(#pbcb994af78)" d="M 157.389656 168.504662 
L 159.587593 166.214241 
L 157.389656 165.960346 
L 163.669474 165.960346 
L 161.471538 166.214241 
L 163.669474 168.504662 
L 157.389656 168.504662 
" style="fill:none;stroke:#000000;stroke-linecap:square;"/>
   </g>
   <g id="line2d_48">
    <path clip-path="url(#pbcb994af78)" d="M 157.389656 168.504662 
L 163.669474 168.504662 
L 163.669474 165.960346 
L 157.389656 165.960346 
L 157.389656 168.504662 
" style="fill:none;"/>
    <g clip-path="url(#pbcb994af78)">
     <use style="stroke:#000000;stroke-width:2;" x="157.389656" xlink:href="#m807e2a719b" y="168.504662"/>
     <use style="stroke:#000000;stroke-width:2;" x="163.669474" xlink:href="#m807e2a719b" y="168.504662"/>
     <use style="stroke:#000000;stroke-width:2;" x="163.669474" xlink:href="#m807e2a719b" y="165.960346"/>
     <use style="stroke:#000000;stroke-width:2;" x="157.389656" xlink:href="#m807e2a719b" y="165.960346"/>
     <use style="stroke:#000000;stroke-width:2;" x="157.389656" xlink:href="#m807e2a719b" y="168.504662"/>
    </g>
   </g>
   <g id="line2d_49">
    <path clip-path="url(#pbcb994af78)" d="M 157.389656 166.214241 
L 163.669474 166.214241 
" style="fill:none;stroke:#000000;stroke-linecap:square;stroke-width:2;"/>
   </g>
   <g id="line2d_50">
    <path clip-path="url(#pbcb994af78)" d="M 248.730125 171.728891 
L 250.928061 171.35229 
L 248.730125 170.328756 
L 255.009943 170.328756 
L 252.812006 171.35229 
L 255.009943 171.728891 
L 248.730125 171.728891 
" style="fill:none;stroke:#000000;stroke-linecap:square;"/>
   </g>
   <g id="line2d_51">
    <path clip-path="url(#pbcb994af78)" d="M 248.730125 171.728891 
L 255.009943 171.728891 
L 255.009943 170.328756 
L 248.730125 170.328756 
L 248.730125 171.728891 
" style="fill:none;"/>
    <g clip-path="url(#pbcb994af78)">
     <use style="stroke:#000000;stroke-width:2;" x="248.730125" xlink:href="#m807e2a719b" y="171.728891"/>
     <use style="stroke:#000000;stroke-width:2;" x="255.009943" xlink:href="#m807e2a719b" y="171.728891"/>
     <use style="stroke:#000000;stroke-width:2;" x="255.009943" xlink:href="#m807e2a719b" y="170.328756"/>
     <use style="stroke:#000000;stroke-width:2;" x="248.730125" xlink:href="#m807e2a719b" y="170.328756"/>
     <use style="stroke:#000000;stroke-width:2;" x="248.730125" xlink:href="#m807e2a719b" y="171.728891"/>
    </g>
   </g>
   <g id="line2d_52">
    <path clip-path="url(#pbcb994af78)" d="M 248.730125 171.35229 
L 255.009943 171.35229 
" style="fill:none;stroke:#000000;stroke-linecap:square;stroke-width:2;"/>
   </g>
   <g id="line2d_53">
    <path clip-path="url(#pbcb994af78)" d="M 340.070593 179.355797 
L 342.26853 177.409942 
L 340.070593 176.811792 
L 346.350411 176.811792 
L 344.152475 177.409942 
L 346.350411 179.355797 
L 340.070593 179.355797 
" style="fill:none;stroke:#000000;stroke-linecap:square;"/>
   </g>
   <g id="line2d_54">
    <path clip-path="url(#pbcb994af78)" d="M 340.070593 179.355797 
L 346.350411 179.355797 
L 346.350411 176.811792 
L 340.070593 176.811792 
L 340.070593 179.355797 
" style="fill:none;"/>
    <g clip-path="url(#pbcb994af78)">
     <use style="stroke:#000000;stroke-width:2;" x="340.070593" xlink:href="#m807e2a719b" y="179.355797"/>
     <use style="stroke:#000000;stroke-width:2;" x="346.350411" xlink:href="#m807e2a719b" y="179.355797"/>
     <use style="stroke:#000000;stroke-width:2;" x="346.350411" xlink:href="#m807e2a719b" y="176.811792"/>
     <use style="stroke:#000000;stroke-width:2;" x="340.070593" xlink:href="#m807e2a719b" y="176.811792"/>
     <use style="stroke:#000000;stroke-width:2;" x="340.070593" xlink:href="#m807e2a719b" y="179.355797"/>
    </g>
   </g>
   <g id="line2d_55">
    <path clip-path="url(#pbcb994af78)" d="M 340.070593 177.409942 
L 346.350411 177.409942 
" style="fill:none;stroke:#000000;stroke-linecap:square;stroke-width:2;"/>
   </g>
   <g id="line2d_56">
    <path clip-path="url(#pbcb994af78)" d="M 431.411062 188.938618 
L 433.608998 188.062705 
L 431.411062 130.017455 
L 437.69088 130.017455 
L 435.492943 188.062705 
L 437.69088 188.938618 
L 431.411062 188.938618 
" style="fill:none;stroke:#000000;stroke-linecap:square;"/>
   </g>
   <g id="line2d_57">
    <path clip-path="url(#pbcb994af78)" d="M 431.411062 188.938618 
L 437.69088 188.938618 
L 437.69088 130.017455 
L 431.411062 130.017455 
L 431.411062 188.938618 
" style="fill:none;"/>
    <g clip-path="url(#pbcb994af78)">
     <use style="stroke:#000000;stroke-width:2;" x="431.411062" xlink:href="#m807e2a719b" y="188.938618"/>
     <use style="stroke:#000000;stroke-width:2;" x="437.69088" xlink:href="#m807e2a719b" y="188.938618"/>
     <use style="stroke:#000000;stroke-width:2;" x="437.69088" xlink:href="#m807e2a719b" y="130.017455"/>
     <use style="stroke:#000000;stroke-width:2;" x="431.411062" xlink:href="#m807e2a719b" y="130.017455"/>
     <use style="stroke:#000000;stroke-width:2;" x="431.411062" xlink:href="#m807e2a719b" y="188.938618"/>
    </g>
   </g>
   <g id="line2d_58">
    <path clip-path="url(#pbcb994af78)" d="M 431.411062 188.062705 
L 437.69088 188.062705 
" style="fill:none;stroke:#000000;stroke-linecap:square;stroke-width:2;"/>
   </g>
   <g id="line2d_59">
    <path clip-path="url(#pbcb994af78)" d="M 39.784034 102.995833 
L 93.214783 117.24021 
" style="fill:none;stroke:#000000;stroke-linecap:square;stroke-width:4;"/>
   </g>
   <g id="line2d_60">
    <path clip-path="url(#pbcb994af78)" d="M 93.214783 117.24021 
L 160.529565 116.777996 
" style="fill:none;stroke:#000000;stroke-linecap:square;stroke-width:4;"/>
   </g>
   <g id="line2d_61">
    <path clip-path="url(#pbcb994af78)" d="M 160.529565 116.777996 
L 251.870034 123.128501 
" style="fill:none;stroke:#000000;stroke-linecap:square;stroke-width:4;"/>
   </g>
   <g id="line2d_62">
    <path clip-path="url(#pbcb994af78)" d="M 251.870034 123.128501 
L 343.210502 177.176053 
" style="fill:none;stroke:#000000;stroke-linecap:square;stroke-width:4;"/>
   </g>
   <g id="line2d_63">
    <path clip-path="url(#pbcb994af78)" d="M 343.210502 177.176053 
L 434.550971 141.265595 
" style="fill:none;stroke:#000000;stroke-linecap:square;stroke-width:4;"/>
   </g>
   <g id="line2d_64">
    <path clip-path="url(#pbcb994af78)" d="M 39.784034 102.995833 
L 93.214783 117.24021 
L 160.529565 116.777996 
L 251.870034 123.128501 
L 343.210502 177.176053 
L 434.550971 141.265595 
" style="fill:none;"/>
    <defs>
     <path d="M 0 10 
C 2.652031 10 5.195799 8.946337 7.071068 7.071068 
C 8.946337 5.195799 10 2.652031 10 0 
C 10 -2.652031 8.946337 -5.195799 7.071068 -7.071068 
C 5.195799 -8.946337 2.652031 -10 0 -10 
C -2.652031 -10 -5.195799 -8.946337 -7.071068 -7.071068 
C -8.946337 -5.195799 -10 -2.652031 -10 0 
C -10 2.652031 -8.946337 5.195799 -7.071068 7.071068 
C -5.195799 8.946337 -2.652031 10 0 10 
z
" id="m0536ce00fc" style="stroke:#000000;stroke-width:2;"/>
    </defs>
    <g clip-path="url(#pbcb994af78)">
     <use style="stroke:#000000;stroke-width:2;" x="39.784034" xlink:href="#m0536ce00fc" y="102.995833"/>
     <use style="stroke:#000000;stroke-width:2;" x="93.214783" xlink:href="#m0536ce00fc" y="117.24021"/>
     <use style="stroke:#000000;stroke-width:2;" x="160.529565" xlink:href="#m0536ce00fc" y="116.777996"/>
     <use style="stroke:#000000;stroke-width:2;" x="251.870034" xlink:href="#m0536ce00fc" y="123.128501"/>
     <use style="stroke:#000000;stroke-width:2;" x="343.210502" xlink:href="#m0536ce00fc" y="177.176053"/>
     <use style="stroke:#000000;stroke-width:2;" x="434.550971" xlink:href="#m0536ce00fc" y="141.265595"/>
    </g>
   </g>
   <g id="line2d_65">
    <path clip-path="url(#pbcb994af78)" d="M 35.597488 175.222258 
L 38.52807 91.036546 
L 35.597488 67.550992 
L 43.970579 67.550992 
L 41.039997 91.036546 
L 43.970579 175.222258 
L 35.597488 175.222258 
" style="fill:none;stroke:#0000ff;stroke-linecap:square;"/>
   </g>
   <g id="line2d_66">
    <path clip-path="url(#pbcb994af78)" d="M 35.597488 175.222258 
L 43.970579 175.222258 
L 43.970579 67.550992 
L 35.597488 67.550992 
L 35.597488 175.222258 
" style="fill:none;"/>
    <defs>
     <path d="M 0 1.5 
C 0.397805 1.5 0.77937 1.341951 1.06066 1.06066 
C 1.341951 0.77937 1.5 0.397805 1.5 0 
C 1.5 -0.397805 1.341951 -0.77937 1.06066 -1.06066 
C 0.77937 -1.341951 0.397805 -1.5 0 -1.5 
C -0.397805 -1.5 -0.77937 -1.341951 -1.06066 -1.06066 
C -1.341951 -0.77937 -1.5 -0.397805 -1.5 0 
C -1.5 0.397805 -1.341951 0.77937 -1.06066 1.06066 
C -0.77937 1.341951 -0.397805 1.5 0 1.5 
z
" id="mb76c6310bb" style="stroke:#0000ff;"/>
    </defs>
    <g clip-path="url(#pbcb994af78)">
     <use style="fill:#0000ff;stroke:#0000ff;" x="35.597488" xlink:href="#mb76c6310bb" y="175.222258"/>
     <use style="fill:#0000ff;stroke:#0000ff;" x="43.970579" xlink:href="#mb76c6310bb" y="175.222258"/>
     <use style="fill:#0000ff;stroke:#0000ff;" x="43.970579" xlink:href="#mb76c6310bb" y="67.550992"/>
     <use style="fill:#0000ff;stroke:#0000ff;" x="35.597488" xlink:href="#mb76c6310bb" y="67.550992"/>
     <use style="fill:#0000ff;stroke:#0000ff;" x="35.597488" xlink:href="#mb76c6310bb" y="175.222258"/>
    </g>
   </g>
   <g id="line2d_67">
    <path clip-path="url(#pbcb994af78)" d="M 35.597488 91.036546 
L 43.970579 91.036546 
" style="fill:none;stroke:#0000ff;stroke-linecap:square;stroke-width:2;"/>
   </g>
   <g id="line2d_68">
    <path clip-path="url(#pbcb994af78)" d="M 89.028237 161.374446 
L 91.958819 160.231781 
L 89.028237 86.128528 
L 97.401328 86.128528 
L 94.470746 160.231781 
L 97.401328 161.374446 
L 89.028237 161.374446 
" style="fill:none;stroke:#0000ff;stroke-linecap:square;"/>
   </g>
   <g id="line2d_69">
    <path clip-path="url(#pbcb994af78)" d="M 89.028237 161.374446 
L 97.401328 161.374446 
L 97.401328 86.128528 
L 89.028237 86.128528 
L 89.028237 161.374446 
" style="fill:none;"/>
    <g clip-path="url(#pbcb994af78)">
     <use style="fill:#0000ff;stroke:#0000ff;" x="89.028237" xlink:href="#mb76c6310bb" y="161.374446"/>
     <use style="fill:#0000ff;stroke:#0000ff;" x="97.401328" xlink:href="#mb76c6310bb" y="161.374446"/>
     <use style="fill:#0000ff;stroke:#0000ff;" x="97.401328" xlink:href="#mb76c6310bb" y="86.128528"/>
     <use style="fill:#0000ff;stroke:#0000ff;" x="89.028237" xlink:href="#mb76c6310bb" y="86.128528"/>
     <use style="fill:#0000ff;stroke:#0000ff;" x="89.028237" xlink:href="#mb76c6310bb" y="161.374446"/>
    </g>
   </g>
   <g id="line2d_70">
    <path clip-path="url(#pbcb994af78)" d="M 89.028237 160.231781 
L 97.401328 160.231781 
" style="fill:none;stroke:#0000ff;stroke-linecap:square;stroke-width:2;"/>
   </g>
   <g id="line2d_71">
    <path clip-path="url(#pbcb994af78)" d="M 156.34302 164.150169 
L 159.273602 161.342371 
L 156.34302 94.757974 
L 164.716111 94.757974 
L 161.785529 161.342371 
L 164.716111 164.150169 
L 156.34302 164.150169 
" style="fill:none;stroke:#0000ff;stroke-linecap:square;"/>
   </g>
   <g id="line2d_72">
    <path clip-path="url(#pbcb994af78)" d="M 156.34302 164.150169 
L 164.716111 164.150169 
L 164.716111 94.757974 
L 156.34302 94.757974 
L 156.34302 164.150169 
" style="fill:none;"/>
    <g clip-path="url(#pbcb994af78)">
     <use style="fill:#0000ff;stroke:#0000ff;" x="156.34302" xlink:href="#mb76c6310bb" y="164.150169"/>
     <use style="fill:#0000ff;stroke:#0000ff;" x="164.716111" xlink:href="#mb76c6310bb" y="164.150169"/>
     <use style="fill:#0000ff;stroke:#0000ff;" x="164.716111" xlink:href="#mb76c6310bb" y="94.757974"/>
     <use style="fill:#0000ff;stroke:#0000ff;" x="156.34302" xlink:href="#mb76c6310bb" y="94.757974"/>
     <use style="fill:#0000ff;stroke:#0000ff;" x="156.34302" xlink:href="#mb76c6310bb" y="164.150169"/>
    </g>
   </g>
   <g id="line2d_73">
    <path clip-path="url(#pbcb994af78)" d="M 156.34302 161.342371 
L 164.716111 161.342371 
" style="fill:none;stroke:#0000ff;stroke-linecap:square;stroke-width:2;"/>
   </g>
   <g id="line2d_74">
    <path clip-path="url(#pbcb994af78)" d="M 247.683488 168.641388 
L 250.61407 117.891585 
L 247.683488 106.467662 
L 256.056579 106.467662 
L 253.125997 117.891585 
L 256.056579 168.641388 
L 247.683488 168.641388 
" style="fill:none;stroke:#0000ff;stroke-linecap:square;"/>
   </g>
   <g id="line2d_75">
    <path clip-path="url(#pbcb994af78)" d="M 247.683488 168.641388 
L 256.056579 168.641388 
L 256.056579 106.467662 
L 247.683488 106.467662 
L 247.683488 168.641388 
" style="fill:none;"/>
    <g clip-path="url(#pbcb994af78)">
     <use style="fill:#0000ff;stroke:#0000ff;" x="247.683488" xlink:href="#mb76c6310bb" y="168.641388"/>
     <use style="fill:#0000ff;stroke:#0000ff;" x="256.056579" xlink:href="#mb76c6310bb" y="168.641388"/>
     <use style="fill:#0000ff;stroke:#0000ff;" x="256.056579" xlink:href="#mb76c6310bb" y="106.467662"/>
     <use style="fill:#0000ff;stroke:#0000ff;" x="247.683488" xlink:href="#mb76c6310bb" y="106.467662"/>
     <use style="fill:#0000ff;stroke:#0000ff;" x="247.683488" xlink:href="#mb76c6310bb" y="168.641388"/>
    </g>
   </g>
   <g id="line2d_76">
    <path clip-path="url(#pbcb994af78)" d="M 247.683488 117.891585 
L 256.056579 117.891585 
" style="fill:none;stroke:#0000ff;stroke-linecap:square;stroke-width:2;"/>
   </g>
   <g id="line2d_77">
    <path clip-path="url(#pbcb994af78)" d="M 339.023957 175.075231 
L 341.954539 174.637082 
L 339.023957 118.255309 
L 347.397048 118.255309 
L 344.466466 174.637082 
L 347.397048 175.075231 
L 339.023957 175.075231 
" style="fill:none;stroke:#0000ff;stroke-linecap:square;"/>
   </g>
   <g id="line2d_78">
    <path clip-path="url(#pbcb994af78)" d="M 339.023957 175.075231 
L 347.397048 175.075231 
L 347.397048 118.255309 
L 339.023957 118.255309 
L 339.023957 175.075231 
" style="fill:none;"/>
    <g clip-path="url(#pbcb994af78)">
     <use style="fill:#0000ff;stroke:#0000ff;" x="339.023957" xlink:href="#mb76c6310bb" y="175.075231"/>
     <use style="fill:#0000ff;stroke:#0000ff;" x="347.397048" xlink:href="#mb76c6310bb" y="175.075231"/>
     <use style="fill:#0000ff;stroke:#0000ff;" x="347.397048" xlink:href="#mb76c6310bb" y="118.255309"/>
     <use style="fill:#0000ff;stroke:#0000ff;" x="339.023957" xlink:href="#mb76c6310bb" y="118.255309"/>
     <use style="fill:#0000ff;stroke:#0000ff;" x="339.023957" xlink:href="#mb76c6310bb" y="175.075231"/>
    </g>
   </g>
   <g id="line2d_79">
    <path clip-path="url(#pbcb994af78)" d="M 339.023957 174.637082 
L 347.397048 174.637082 
" style="fill:none;stroke:#0000ff;stroke-linecap:square;stroke-width:2;"/>
   </g>
   <g id="line2d_80">
    <path clip-path="url(#pbcb994af78)" d="M 430.364425 185.785183 
L 433.295007 129.938253 
L 430.364425 111.622161 
L 438.737516 111.622161 
L 435.806934 129.938253 
L 438.737516 185.785183 
L 430.364425 185.785183 
" style="fill:none;stroke:#0000ff;stroke-linecap:square;"/>
   </g>
   <g id="line2d_81">
    <path clip-path="url(#pbcb994af78)" d="M 430.364425 185.785183 
L 438.737516 185.785183 
L 438.737516 111.622161 
L 430.364425 111.622161 
L 430.364425 185.785183 
" style="fill:none;"/>
    <g clip-path="url(#pbcb994af78)">
     <use style="fill:#0000ff;stroke:#0000ff;" x="430.364425" xlink:href="#mb76c6310bb" y="185.785183"/>
     <use style="fill:#0000ff;stroke:#0000ff;" x="438.737516" xlink:href="#mb76c6310bb" y="185.785183"/>
     <use style="fill:#0000ff;stroke:#0000ff;" x="438.737516" xlink:href="#mb76c6310bb" y="111.622161"/>
     <use style="fill:#0000ff;stroke:#0000ff;" x="430.364425" xlink:href="#mb76c6310bb" y="111.622161"/>
     <use style="fill:#0000ff;stroke:#0000ff;" x="430.364425" xlink:href="#mb76c6310bb" y="185.785183"/>
    </g>
   </g>
   <g id="line2d_82">
    <path clip-path="url(#pbcb994af78)" d="M 430.364425 129.938253 
L 438.737516 129.938253 
" style="fill:none;stroke:#0000ff;stroke-linecap:square;stroke-width:2;"/>
   </g>
   <g id="line2d_83">
    <path clip-path="url(#pbcb994af78)" d="M 39.784034 72.471167 
L 93.214783 92.442255 
" style="fill:none;stroke:#0000ff;stroke-linecap:square;stroke-width:4;"/>
   </g>
   <g id="line2d_84">
    <path clip-path="url(#pbcb994af78)" d="M 93.214783 92.442255 
L 160.529565 106.263136 
" style="fill:none;stroke:#0000ff;stroke-linecap:square;stroke-width:4;"/>
   </g>
   <g id="line2d_85">
    <path clip-path="url(#pbcb994af78)" d="M 160.529565 106.263136 
L 251.870034 113.162861 
" style="fill:none;stroke:#0000ff;stroke-linecap:square;stroke-width:4;"/>
   </g>
   <g id="line2d_86">
    <path clip-path="url(#pbcb994af78)" d="M 251.870034 113.162861 
L 343.210502 124.738344 
" style="fill:none;stroke:#0000ff;stroke-linecap:square;stroke-width:4;"/>
   </g>
   <g id="line2d_87">
    <path clip-path="url(#pbcb994af78)" d="M 343.210502 124.738344 
L 434.550971 118.417813 
" style="fill:none;stroke:#0000ff;stroke-linecap:square;stroke-width:4;"/>
   </g>
   <g id="line2d_88">
    <path clip-path="url(#pbcb994af78)" d="M 39.784034 72.471167 
L 93.214783 92.442255 
L 160.529565 106.263136 
L 251.870034 113.162861 
L 343.210502 124.738344 
L 434.550971 118.417813 
" style="fill:none;"/>
    <defs>
     <path d="M 0 5 
C 1.326016 5 2.597899 4.473168 3.535534 3.535534 
C 4.473168 2.597899 5 1.326016 5 0 
C 5 -1.326016 4.473168 -2.597899 3.535534 -3.535534 
C 2.597899 -4.473168 1.326016 -5 0 -5 
C -1.326016 -5 -2.597899 -4.473168 -3.535534 -3.535534 
C -4.473168 -2.597899 -5 -1.326016 -5 0 
C -5 1.326016 -4.473168 2.597899 -3.535534 3.535534 
C -2.597899 4.473168 -1.326016 5 0 5 
z
" id="mf71749387e" style="stroke:#0000ff;"/>
    </defs>
    <g clip-path="url(#pbcb994af78)">
     <use style="fill:#0000ff;stroke:#0000ff;" x="39.784034" xlink:href="#mf71749387e" y="72.471167"/>
     <use style="fill:#0000ff;stroke:#0000ff;" x="93.214783" xlink:href="#mf71749387e" y="92.442255"/>
     <use style="fill:#0000ff;stroke:#0000ff;" x="160.529565" xlink:href="#mf71749387e" y="106.263136"/>
     <use style="fill:#0000ff;stroke:#0000ff;" x="251.870034" xlink:href="#mf71749387e" y="113.162861"/>
     <use style="fill:#0000ff;stroke:#0000ff;" x="343.210502" xlink:href="#mf71749387e" y="124.738344"/>
     <use style="fill:#0000ff;stroke:#0000ff;" x="434.550971" xlink:href="#mf71749387e" y="118.417813"/>
    </g>
   </g>
   <g id="line2d_89">
    <path clip-path="url(#pbcb994af78)" d="M 34.550852 79.342756 
L 38.214079 63.757067 
L 34.550852 55.764906 
L 45.017216 55.764906 
L 41.353988 63.757067 
L 45.017216 79.342756 
L 34.550852 79.342756 
" style="fill:none;stroke:#00bfbf;stroke-linecap:square;"/>
   </g>
   <g id="line2d_90">
    <path clip-path="url(#pbcb994af78)" d="M 34.550852 79.342756 
L 45.017216 79.342756 
L 45.017216 55.764906 
L 34.550852 55.764906 
L 34.550852 79.342756 
" style="fill:none;"/>
    <defs>
     <path d="M -0 3 
L 3 -3 
L -3 -3 
z
" id="m84d032b14d" style="stroke:#00bfbf;stroke-linejoin:miter;stroke-width:2;"/>
    </defs>
    <g clip-path="url(#pbcb994af78)">
     <use style="fill:#00bfbf;stroke:#00bfbf;stroke-linejoin:miter;stroke-width:2;" x="34.550852" xlink:href="#m84d032b14d" y="79.342756"/>
     <use style="fill:#00bfbf;stroke:#00bfbf;stroke-linejoin:miter;stroke-width:2;" x="45.017216" xlink:href="#m84d032b14d" y="79.342756"/>
     <use style="fill:#00bfbf;stroke:#00bfbf;stroke-linejoin:miter;stroke-width:2;" x="45.017216" xlink:href="#m84d032b14d" y="55.764906"/>
     <use style="fill:#00bfbf;stroke:#00bfbf;stroke-linejoin:miter;stroke-width:2;" x="34.550852" xlink:href="#m84d032b14d" y="55.764906"/>
     <use style="fill:#00bfbf;stroke:#00bfbf;stroke-linejoin:miter;stroke-width:2;" x="34.550852" xlink:href="#m84d032b14d" y="79.342756"/>
    </g>
   </g>
   <g id="line2d_91">
    <path clip-path="url(#pbcb994af78)" d="M 34.550852 63.757067 
L 45.017216 63.757067 
" style="fill:none;stroke:#00bfbf;stroke-linecap:square;stroke-width:2;"/>
   </g>
   <g id="line2d_92">
    <path clip-path="url(#pbcb994af78)" d="M 87.981601 86.102289 
L 91.644828 86.043231 
L 87.981601 74.396228 
L 98.447964 74.396228 
L 94.784737 86.043231 
L 98.447964 86.102289 
L 87.981601 86.102289 
" style="fill:none;stroke:#00bfbf;stroke-linecap:square;"/>
   </g>
   <g id="line2d_93">
    <path clip-path="url(#pbcb994af78)" d="M 87.981601 86.102289 
L 98.447964 86.102289 
L 98.447964 74.396228 
L 87.981601 74.396228 
L 87.981601 86.102289 
" style="fill:none;"/>
    <g clip-path="url(#pbcb994af78)">
     <use style="fill:#00bfbf;stroke:#00bfbf;stroke-linejoin:miter;stroke-width:2;" x="87.981601" xlink:href="#m84d032b14d" y="86.102289"/>
     <use style="fill:#00bfbf;stroke:#00bfbf;stroke-linejoin:miter;stroke-width:2;" x="98.447964" xlink:href="#m84d032b14d" y="86.102289"/>
     <use style="fill:#00bfbf;stroke:#00bfbf;stroke-linejoin:miter;stroke-width:2;" x="98.447964" xlink:href="#m84d032b14d" y="74.396228"/>
     <use style="fill:#00bfbf;stroke:#00bfbf;stroke-linejoin:miter;stroke-width:2;" x="87.981601" xlink:href="#m84d032b14d" y="74.396228"/>
     <use style="fill:#00bfbf;stroke:#00bfbf;stroke-linejoin:miter;stroke-width:2;" x="87.981601" xlink:href="#m84d032b14d" y="86.102289"/>
    </g>
   </g>
   <g id="line2d_94">
    <path clip-path="url(#pbcb994af78)" d="M 87.981601 86.043231 
L 98.447964 86.043231 
" style="fill:none;stroke:#00bfbf;stroke-linecap:square;stroke-width:2;"/>
   </g>
   <g id="line2d_95">
    <path clip-path="url(#pbcb994af78)" d="M 155.296383 158.647922 
L 158.959611 94.673448 
L 155.296383 76.223763 
L 165.762747 76.223763 
L 162.09952 94.673448 
L 165.762747 158.647922 
L 155.296383 158.647922 
" style="fill:none;stroke:#00bfbf;stroke-linecap:square;"/>
   </g>
   <g id="line2d_96">
    <path clip-path="url(#pbcb994af78)" d="M 155.296383 158.647922 
L 165.762747 158.647922 
L 165.762747 76.223763 
L 155.296383 76.223763 
L 155.296383 158.647922 
" style="fill:none;"/>
    <g clip-path="url(#pbcb994af78)">
     <use style="fill:#00bfbf;stroke:#00bfbf;stroke-linejoin:miter;stroke-width:2;" x="155.296383" xlink:href="#m84d032b14d" y="158.647922"/>
     <use style="fill:#00bfbf;stroke:#00bfbf;stroke-linejoin:miter;stroke-width:2;" x="165.762747" xlink:href="#m84d032b14d" y="158.647922"/>
     <use style="fill:#00bfbf;stroke:#00bfbf;stroke-linejoin:miter;stroke-width:2;" x="165.762747" xlink:href="#m84d032b14d" y="76.223763"/>
     <use style="fill:#00bfbf;stroke:#00bfbf;stroke-linejoin:miter;stroke-width:2;" x="155.296383" xlink:href="#m84d032b14d" y="76.223763"/>
     <use style="fill:#00bfbf;stroke:#00bfbf;stroke-linejoin:miter;stroke-width:2;" x="155.296383" xlink:href="#m84d032b14d" y="158.647922"/>
    </g>
   </g>
   <g id="line2d_97">
    <path clip-path="url(#pbcb994af78)" d="M 155.296383 94.673448 
L 165.762747 94.673448 
" style="fill:none;stroke:#00bfbf;stroke-linecap:square;stroke-width:2;"/>
   </g>
   <g id="line2d_98">
    <path clip-path="url(#pbcb994af78)" d="M 246.636852 165.971212 
L 250.300079 91.083814 
L 246.636852 83.117833 
L 257.103216 83.117833 
L 253.439988 91.083814 
L 257.103216 165.971212 
L 246.636852 165.971212 
" style="fill:none;stroke:#00bfbf;stroke-linecap:square;"/>
   </g>
   <g id="line2d_99">
    <path clip-path="url(#pbcb994af78)" d="M 246.636852 165.971212 
L 257.103216 165.971212 
L 257.103216 83.117833 
L 246.636852 83.117833 
L 246.636852 165.971212 
" style="fill:none;"/>
    <g clip-path="url(#pbcb994af78)">
     <use style="fill:#00bfbf;stroke:#00bfbf;stroke-linejoin:miter;stroke-width:2;" x="246.636852" xlink:href="#m84d032b14d" y="165.971212"/>
     <use style="fill:#00bfbf;stroke:#00bfbf;stroke-linejoin:miter;stroke-width:2;" x="257.103216" xlink:href="#m84d032b14d" y="165.971212"/>
     <use style="fill:#00bfbf;stroke:#00bfbf;stroke-linejoin:miter;stroke-width:2;" x="257.103216" xlink:href="#m84d032b14d" y="83.117833"/>
     <use style="fill:#00bfbf;stroke:#00bfbf;stroke-linejoin:miter;stroke-width:2;" x="246.636852" xlink:href="#m84d032b14d" y="83.117833"/>
     <use style="fill:#00bfbf;stroke:#00bfbf;stroke-linejoin:miter;stroke-width:2;" x="246.636852" xlink:href="#m84d032b14d" y="165.971212"/>
    </g>
   </g>
   <g id="line2d_100">
    <path clip-path="url(#pbcb994af78)" d="M 246.636852 91.083814 
L 257.103216 91.083814 
" style="fill:none;stroke:#00bfbf;stroke-linecap:square;stroke-width:2;"/>
   </g>
   <g id="line2d_101">
    <path clip-path="url(#pbcb994af78)" d="M 337.97732 94.935264 
L 341.640548 94.903667 
L 337.97732 91.130779 
L 348.443684 91.130779 
L 344.780457 94.903667 
L 348.443684 94.935264 
L 337.97732 94.935264 
" style="fill:none;stroke:#00bfbf;stroke-linecap:square;"/>
   </g>
   <g id="line2d_102">
    <path clip-path="url(#pbcb994af78)" d="M 337.97732 94.935264 
L 348.443684 94.935264 
L 348.443684 91.130779 
L 337.97732 91.130779 
L 337.97732 94.935264 
" style="fill:none;"/>
    <g clip-path="url(#pbcb994af78)">
     <use style="fill:#00bfbf;stroke:#00bfbf;stroke-linejoin:miter;stroke-width:2;" x="337.97732" xlink:href="#m84d032b14d" y="94.935264"/>
     <use style="fill:#00bfbf;stroke:#00bfbf;stroke-linejoin:miter;stroke-width:2;" x="348.443684" xlink:href="#m84d032b14d" y="94.935264"/>
     <use style="fill:#00bfbf;stroke:#00bfbf;stroke-linejoin:miter;stroke-width:2;" x="348.443684" xlink:href="#m84d032b14d" y="91.130779"/>
     <use style="fill:#00bfbf;stroke:#00bfbf;stroke-linejoin:miter;stroke-width:2;" x="337.97732" xlink:href="#m84d032b14d" y="91.130779"/>
     <use style="fill:#00bfbf;stroke:#00bfbf;stroke-linejoin:miter;stroke-width:2;" x="337.97732" xlink:href="#m84d032b14d" y="94.935264"/>
    </g>
   </g>
   <g id="line2d_103">
    <path clip-path="url(#pbcb994af78)" d="M 337.97732 94.903667 
L 348.443684 94.903667 
" style="fill:none;stroke:#00bfbf;stroke-linecap:square;stroke-width:2;"/>
   </g>
   <g id="line2d_104">
    <path clip-path="url(#pbcb994af78)" d="M 429.317789 111.588779 
L 432.981016 85.480594 
L 429.317789 72.50075 
L 439.784153 72.50075 
L 436.120925 85.480594 
L 439.784153 111.588779 
L 429.317789 111.588779 
" style="fill:none;stroke:#00bfbf;stroke-linecap:square;"/>
   </g>
   <g id="line2d_105">
    <path clip-path="url(#pbcb994af78)" d="M 429.317789 111.588779 
L 439.784153 111.588779 
L 439.784153 72.50075 
L 429.317789 72.50075 
L 429.317789 111.588779 
" style="fill:none;"/>
    <g clip-path="url(#pbcb994af78)">
     <use style="fill:#00bfbf;stroke:#00bfbf;stroke-linejoin:miter;stroke-width:2;" x="429.317789" xlink:href="#m84d032b14d" y="111.588779"/>
     <use style="fill:#00bfbf;stroke:#00bfbf;stroke-linejoin:miter;stroke-width:2;" x="439.784153" xlink:href="#m84d032b14d" y="111.588779"/>
     <use style="fill:#00bfbf;stroke:#00bfbf;stroke-linejoin:miter;stroke-width:2;" x="439.784153" xlink:href="#m84d032b14d" y="72.50075"/>
     <use style="fill:#00bfbf;stroke:#00bfbf;stroke-linejoin:miter;stroke-width:2;" x="429.317789" xlink:href="#m84d032b14d" y="72.50075"/>
     <use style="fill:#00bfbf;stroke:#00bfbf;stroke-linejoin:miter;stroke-width:2;" x="429.317789" xlink:href="#m84d032b14d" y="111.588779"/>
    </g>
   </g>
   <g id="line2d_106">
    <path clip-path="url(#pbcb994af78)" d="M 429.317789 85.480594 
L 439.784153 85.480594 
" style="fill:none;stroke:#00bfbf;stroke-linecap:square;stroke-width:2;"/>
   </g>
   <g id="line2d_107">
    <path clip-path="url(#pbcb994af78)" d="M 39.784034 55.75667 
L 93.214783 74.395175 
" style="fill:none;stroke:#00bfbf;stroke-linecap:square;stroke-width:4;"/>
   </g>
   <g id="line2d_108">
    <path clip-path="url(#pbcb994af78)" d="M 93.214783 74.395175 
L 160.529565 83.057126 
" style="fill:none;stroke:#00bfbf;stroke-linecap:square;stroke-width:4;"/>
   </g>
   <g id="line2d_109">
    <path clip-path="url(#pbcb994af78)" d="M 160.529565 83.057126 
L 251.870034 94.822398 
" style="fill:none;stroke:#00bfbf;stroke-linecap:square;stroke-width:4;"/>
   </g>
   <g id="line2d_110">
    <path clip-path="url(#pbcb994af78)" d="M 251.870034 94.822398 
L 343.210502 94.920994 
" style="fill:none;stroke:#00bfbf;stroke-linecap:square;stroke-width:4;"/>
   </g>
   <g id="line2d_111">
    <path clip-path="url(#pbcb994af78)" d="M 343.210502 94.920994 
L 434.550971 85.480594 
" style="fill:none;stroke:#00bfbf;stroke-linecap:square;stroke-width:4;"/>
   </g>
   <g id="line2d_112">
    <path clip-path="url(#pbcb994af78)" d="M 39.784034 55.75667 
L 93.214783 74.395175 
L 160.529565 83.057126 
L 251.870034 94.822398 
L 343.210502 94.920994 
L 434.550971 85.480594 
" style="fill:none;"/>
    <defs>
     <path d="M -0 10 
L 10 -10 
L -10 -10 
z
" id="m931ecc597e" style="stroke:#000000;stroke-linejoin:miter;stroke-width:2;"/>
    </defs>
    <g clip-path="url(#pbcb994af78)">
     <use style="fill:#00bfbf;stroke:#000000;stroke-linejoin:miter;stroke-width:2;" x="39.784034" xlink:href="#m931ecc597e" y="55.75667"/>
     <use style="fill:#00bfbf;stroke:#000000;stroke-linejoin:miter;stroke-width:2;" x="93.214783" xlink:href="#m931ecc597e" y="74.395175"/>
     <use style="fill:#00bfbf;stroke:#000000;stroke-linejoin:miter;stroke-width:2;" x="160.529565" xlink:href="#m931ecc597e" y="83.057126"/>
     <use style="fill:#00bfbf;stroke:#000000;stroke-linejoin:miter;stroke-width:2;" x="251.870034" xlink:href="#m931ecc597e" y="94.822398"/>
     <use style="fill:#00bfbf;stroke:#000000;stroke-linejoin:miter;stroke-width:2;" x="343.210502" xlink:href="#m931ecc597e" y="94.920994"/>
     <use style="fill:#00bfbf;stroke:#000000;stroke-linejoin:miter;stroke-width:2;" x="434.550971" xlink:href="#m931ecc597e" y="85.480594"/>
    </g>
   </g>
   <g id="line2d_113">
    <path clip-path="url(#pbcb994af78)" d="M 33.504216 79.243123 
L 37.900088 51.941781 
L 33.504216 37.020656 
L 46.063852 37.020656 
L 41.667979 51.941781 
L 46.063852 79.243123 
L 33.504216 79.243123 
" style="fill:none;stroke:#008000;stroke-linecap:square;"/>
   </g>
   <g id="line2d_114">
    <path clip-path="url(#pbcb994af78)" d="M 33.504216 79.243123 
L 46.063852 79.243123 
L 46.063852 37.020656 
L 33.504216 37.020656 
L 33.504216 79.243123 
" style="fill:none;"/>
    <defs>
     <path d="M 0 1.5 
C 0.397805 1.5 0.77937 1.341951 1.06066 1.06066 
C 1.341951 0.77937 1.5 0.397805 1.5 0 
C 1.5 -0.397805 1.341951 -0.77937 1.06066 -1.06066 
C 0.77937 -1.341951 0.397805 -1.5 0 -1.5 
C -0.397805 -1.5 -0.77937 -1.341951 -1.06066 -1.06066 
C -1.341951 -0.77937 -1.5 -0.397805 -1.5 0 
C -1.5 0.397805 -1.341951 0.77937 -1.06066 1.06066 
C -0.77937 1.341951 -0.397805 1.5 0 1.5 
z
" id="mb897c79756" style="stroke:#008000;"/>
    </defs>
    <g clip-path="url(#pbcb994af78)">
     <use style="fill:#008000;stroke:#008000;" x="33.504216" xlink:href="#mb897c79756" y="79.243123"/>
     <use style="fill:#008000;stroke:#008000;" x="46.063852" xlink:href="#mb897c79756" y="79.243123"/>
     <use style="fill:#008000;stroke:#008000;" x="46.063852" xlink:href="#mb897c79756" y="37.020656"/>
     <use style="fill:#008000;stroke:#008000;" x="33.504216" xlink:href="#mb897c79756" y="37.020656"/>
     <use style="fill:#008000;stroke:#008000;" x="33.504216" xlink:href="#mb897c79756" y="79.243123"/>
    </g>
   </g>
   <g id="line2d_115">
    <path clip-path="url(#pbcb994af78)" d="M 33.504216 51.941781 
L 46.063852 51.941781 
" style="fill:none;stroke:#008000;stroke-linecap:square;stroke-width:2;"/>
   </g>
   <g id="line2d_116">
    <path clip-path="url(#pbcb994af78)" d="M 86.934964 85.914151 
L 91.330837 67.493831 
L 86.934964 55.740399 
L 99.494601 55.740399 
L 95.098728 67.493831 
L 99.494601 85.914151 
L 86.934964 85.914151 
" style="fill:none;stroke:#008000;stroke-linecap:square;"/>
   </g>
   <g id="line2d_117">
    <path clip-path="url(#pbcb994af78)" d="M 86.934964 85.914151 
L 99.494601 85.914151 
L 99.494601 55.740399 
L 86.934964 55.740399 
L 86.934964 85.914151 
" style="fill:none;"/>
    <g clip-path="url(#pbcb994af78)">
     <use style="fill:#008000;stroke:#008000;" x="86.934964" xlink:href="#mb897c79756" y="85.914151"/>
     <use style="fill:#008000;stroke:#008000;" x="99.494601" xlink:href="#mb897c79756" y="85.914151"/>
     <use style="fill:#008000;stroke:#008000;" x="99.494601" xlink:href="#mb897c79756" y="55.740399"/>
     <use style="fill:#008000;stroke:#008000;" x="86.934964" xlink:href="#mb897c79756" y="55.740399"/>
     <use style="fill:#008000;stroke:#008000;" x="86.934964" xlink:href="#mb897c79756" y="85.914151"/>
    </g>
   </g>
   <g id="line2d_118">
    <path clip-path="url(#pbcb994af78)" d="M 86.934964 67.493831 
L 99.494601 67.493831 
" style="fill:none;stroke:#008000;stroke-linecap:square;stroke-width:2;"/>
   </g>
   <g id="line2d_119">
    <path clip-path="url(#pbcb994af78)" d="M 154.249747 83.048534 
L 158.64562 79.264584 
L 154.249747 67.533057 
L 166.809383 67.533057 
L 162.413511 79.264584 
L 166.809383 83.048534 
L 154.249747 83.048534 
" style="fill:none;stroke:#008000;stroke-linecap:square;"/>
   </g>
   <g id="line2d_120">
    <path clip-path="url(#pbcb994af78)" d="M 154.249747 83.048534 
L 166.809383 83.048534 
L 166.809383 67.533057 
L 154.249747 67.533057 
L 154.249747 83.048534 
" style="fill:none;"/>
    <g clip-path="url(#pbcb994af78)">
     <use style="fill:#008000;stroke:#008000;" x="154.249747" xlink:href="#mb897c79756" y="83.048534"/>
     <use style="fill:#008000;stroke:#008000;" x="166.809383" xlink:href="#mb897c79756" y="83.048534"/>
     <use style="fill:#008000;stroke:#008000;" x="166.809383" xlink:href="#mb897c79756" y="67.533057"/>
     <use style="fill:#008000;stroke:#008000;" x="154.249747" xlink:href="#mb897c79756" y="67.533057"/>
     <use style="fill:#008000;stroke:#008000;" x="154.249747" xlink:href="#mb897c79756" y="83.048534"/>
    </g>
   </g>
   <g id="line2d_121">
    <path clip-path="url(#pbcb994af78)" d="M 154.249747 79.264584 
L 166.809383 79.264584 
" style="fill:none;stroke:#008000;stroke-linecap:square;stroke-width:2;"/>
   </g>
   <g id="line2d_122">
    <path clip-path="url(#pbcb994af78)" d="M 245.590216 106.32135 
L 249.986088 91.035664 
L 245.590216 87.93412 
L 258.149852 87.93412 
L 253.753979 91.035664 
L 258.149852 106.32135 
L 245.590216 106.32135 
" style="fill:none;stroke:#008000;stroke-linecap:square;"/>
   </g>
   <g id="line2d_123">
    <path clip-path="url(#pbcb994af78)" d="M 245.590216 106.32135 
L 258.149852 106.32135 
L 258.149852 87.93412 
L 245.590216 87.93412 
L 245.590216 106.32135 
" style="fill:none;"/>
    <g clip-path="url(#pbcb994af78)">
     <use style="fill:#008000;stroke:#008000;" x="245.590216" xlink:href="#mb897c79756" y="106.32135"/>
     <use style="fill:#008000;stroke:#008000;" x="258.149852" xlink:href="#mb897c79756" y="106.32135"/>
     <use style="fill:#008000;stroke:#008000;" x="258.149852" xlink:href="#mb897c79756" y="87.93412"/>
     <use style="fill:#008000;stroke:#008000;" x="245.590216" xlink:href="#mb897c79756" y="87.93412"/>
     <use style="fill:#008000;stroke:#008000;" x="245.590216" xlink:href="#mb897c79756" y="106.32135"/>
    </g>
   </g>
   <g id="line2d_124">
    <path clip-path="url(#pbcb994af78)" d="M 245.590216 91.035664 
L 258.149852 91.035664 
" style="fill:none;stroke:#008000;stroke-linecap:square;stroke-width:2;"/>
   </g>
   <g id="line2d_125">
    <path clip-path="url(#pbcb994af78)" d="M 336.930684 118.025601 
L 341.326557 97.152336 
L 336.930684 83.16062 
L 349.49032 83.16062 
L 345.094448 97.152336 
L 349.49032 118.025601 
L 336.930684 118.025601 
" style="fill:none;stroke:#008000;stroke-linecap:square;"/>
   </g>
   <g id="line2d_126">
    <path clip-path="url(#pbcb994af78)" d="M 336.930684 118.025601 
L 349.49032 118.025601 
L 349.49032 83.16062 
L 336.930684 83.16062 
L 336.930684 118.025601 
" style="fill:none;"/>
    <g clip-path="url(#pbcb994af78)">
     <use style="fill:#008000;stroke:#008000;" x="336.930684" xlink:href="#mb897c79756" y="118.025601"/>
     <use style="fill:#008000;stroke:#008000;" x="349.49032" xlink:href="#mb897c79756" y="118.025601"/>
     <use style="fill:#008000;stroke:#008000;" x="349.49032" xlink:href="#mb897c79756" y="83.16062"/>
     <use style="fill:#008000;stroke:#008000;" x="336.930684" xlink:href="#mb897c79756" y="83.16062"/>
     <use style="fill:#008000;stroke:#008000;" x="336.930684" xlink:href="#mb897c79756" y="118.025601"/>
    </g>
   </g>
   <g id="line2d_127">
    <path clip-path="url(#pbcb994af78)" d="M 336.930684 97.152336 
L 349.49032 97.152336 
" style="fill:none;stroke:#008000;stroke-linecap:square;stroke-width:2;"/>
   </g>
   <g id="line2d_128">
    <path clip-path="url(#pbcb994af78)" d="M 428.271153 102.951233 
L 432.667025 96.081555 
L 428.271153 72.498811 
L 440.830789 72.498811 
L 436.434916 96.081555 
L 440.830789 102.951233 
L 428.271153 102.951233 
" style="fill:none;stroke:#008000;stroke-linecap:square;"/>
   </g>
   <g id="line2d_129">
    <path clip-path="url(#pbcb994af78)" d="M 428.271153 102.951233 
L 440.830789 102.951233 
L 440.830789 72.498811 
L 428.271153 72.498811 
L 428.271153 102.951233 
" style="fill:none;"/>
    <g clip-path="url(#pbcb994af78)">
     <use style="fill:#008000;stroke:#008000;" x="428.271153" xlink:href="#mb897c79756" y="102.951233"/>
     <use style="fill:#008000;stroke:#008000;" x="440.830789" xlink:href="#mb897c79756" y="102.951233"/>
     <use style="fill:#008000;stroke:#008000;" x="440.830789" xlink:href="#mb897c79756" y="72.498811"/>
     <use style="fill:#008000;stroke:#008000;" x="428.271153" xlink:href="#mb897c79756" y="72.498811"/>
     <use style="fill:#008000;stroke:#008000;" x="428.271153" xlink:href="#mb897c79756" y="102.951233"/>
    </g>
   </g>
   <g id="line2d_130">
    <path clip-path="url(#pbcb994af78)" d="M 428.271153 96.081555 
L 440.830789 96.081555 
" style="fill:none;stroke:#008000;stroke-linecap:square;stroke-width:2;"/>
   </g>
   <g id="line2d_131">
    <path clip-path="url(#pbcb994af78)" d="M 39.784034 47.472703 
L 93.214783 62.618795 
" style="fill:none;stroke:#008000;stroke-linecap:square;stroke-width:4;"/>
   </g>
   <g id="line2d_132">
    <path clip-path="url(#pbcb994af78)" d="M 93.214783 62.618795 
L 160.529565 71.313577 
" style="fill:none;stroke:#008000;stroke-linecap:square;stroke-width:4;"/>
   </g>
   <g id="line2d_133">
    <path clip-path="url(#pbcb994af78)" d="M 160.529565 71.313577 
L 251.870034 83.102925 
" style="fill:none;stroke:#008000;stroke-linecap:square;stroke-width:4;"/>
   </g>
   <g id="line2d_134">
    <path clip-path="url(#pbcb994af78)" d="M 251.870034 83.102925 
L 343.210502 86.68834 
" style="fill:none;stroke:#008000;stroke-linecap:square;stroke-width:4;"/>
   </g>
   <g id="line2d_135">
    <path clip-path="url(#pbcb994af78)" d="M 343.210502 86.68834 
L 434.550971 85.476445 
" style="fill:none;stroke:#008000;stroke-linecap:square;stroke-width:4;"/>
   </g>
   <g id="line2d_136">
    <path clip-path="url(#pbcb994af78)" d="M 39.784034 47.472703 
L 93.214783 62.618795 
L 160.529565 71.313577 
L 251.870034 83.102925 
L 343.210502 86.68834 
L 434.550971 85.476445 
" style="fill:none;"/>
    <defs>
     <path d="M 0 5 
C 1.326016 5 2.597899 4.473168 3.535534 3.535534 
C 4.473168 2.597899 5 1.326016 5 0 
C 5 -1.326016 4.473168 -2.597899 3.535534 -3.535534 
C 2.597899 -4.473168 1.326016 -5 0 -5 
C -1.326016 -5 -2.597899 -4.473168 -3.535534 -3.535534 
C -4.473168 -2.597899 -5 -1.326016 -5 0 
C -5 1.326016 -4.473168 2.597899 -3.535534 3.535534 
C -2.597899 4.473168 -1.326016 5 0 5 
z
" id="me9b6ca64ac" style="stroke:#008000;"/>
    </defs>
    <g clip-path="url(#pbcb994af78)">
     <use style="fill:#008000;stroke:#008000;" x="39.784034" xlink:href="#me9b6ca64ac" y="47.472703"/>
     <use style="fill:#008000;stroke:#008000;" x="93.214783" xlink:href="#me9b6ca64ac" y="62.618795"/>
     <use style="fill:#008000;stroke:#008000;" x="160.529565" xlink:href="#me9b6ca64ac" y="71.313577"/>
     <use style="fill:#008000;stroke:#008000;" x="251.870034" xlink:href="#me9b6ca64ac" y="83.102925"/>
     <use style="fill:#008000;stroke:#008000;" x="343.210502" xlink:href="#me9b6ca64ac" y="86.68834"/>
     <use style="fill:#008000;stroke:#008000;" x="434.550971" xlink:href="#me9b6ca64ac" y="85.476445"/>
    </g>
   </g>
   <g id="line2d_137">
    <path clip-path="url(#pbcb994af78)" d="M 32.457579 158.499248 
L 37.586097 72.390163 
L 32.457579 40.128687 
L 47.110488 40.128687 
L 41.98197 72.390163 
L 47.110488 158.499248 
L 32.457579 158.499248 
" style="fill:none;stroke:#bfbf00;stroke-linecap:square;"/>
   </g>
   <g id="line2d_138">
    <path clip-path="url(#pbcb994af78)" d="M 32.457579 158.499248 
L 47.110488 158.499248 
L 47.110488 40.128687 
L 32.457579 40.128687 
L 32.457579 158.499248 
" style="fill:none;"/>
    <defs>
     <path d="M 0 -3 
L -3 3 
L 3 3 
z
" id="mbe2229961b" style="stroke:#bfbf00;stroke-linejoin:miter;stroke-width:2;"/>
    </defs>
    <g clip-path="url(#pbcb994af78)">
     <use style="fill:#bfbf00;stroke:#bfbf00;stroke-linejoin:miter;stroke-width:2;" x="32.457579" xlink:href="#mbe2229961b" y="158.499248"/>
     <use style="fill:#bfbf00;stroke:#bfbf00;stroke-linejoin:miter;stroke-width:2;" x="47.110488" xlink:href="#mbe2229961b" y="158.499248"/>
     <use style="fill:#bfbf00;stroke:#bfbf00;stroke-linejoin:miter;stroke-width:2;" x="47.110488" xlink:href="#mbe2229961b" y="40.128687"/>
     <use style="fill:#bfbf00;stroke:#bfbf00;stroke-linejoin:miter;stroke-width:2;" x="32.457579" xlink:href="#mbe2229961b" y="40.128687"/>
     <use style="fill:#bfbf00;stroke:#bfbf00;stroke-linejoin:miter;stroke-width:2;" x="32.457579" xlink:href="#mbe2229961b" y="158.499248"/>
    </g>
   </g>
   <g id="line2d_139">
    <path clip-path="url(#pbcb994af78)" d="M 32.457579 72.390163 
L 47.110488 72.390163 
" style="fill:none;stroke:#bfbf00;stroke-linecap:square;stroke-width:2;"/>
   </g>
   <g id="line2d_140">
    <path clip-path="url(#pbcb994af78)" d="M 85.888328 67.501232 
L 91.016846 44.65352 
L 85.888328 32.113832 
L 100.541237 32.113832 
L 95.412719 44.65352 
L 100.541237 67.501232 
L 85.888328 67.501232 
" style="fill:none;stroke:#bfbf00;stroke-linecap:square;"/>
   </g>
   <g id="line2d_141">
    <path clip-path="url(#pbcb994af78)" d="M 85.888328 67.501232 
L 100.541237 67.501232 
L 100.541237 32.113832 
L 85.888328 32.113832 
L 85.888328 67.501232 
" style="fill:none;"/>
    <g clip-path="url(#pbcb994af78)">
     <use style="fill:#bfbf00;stroke:#bfbf00;stroke-linejoin:miter;stroke-width:2;" x="85.888328" xlink:href="#mbe2229961b" y="67.501232"/>
     <use style="fill:#bfbf00;stroke:#bfbf00;stroke-linejoin:miter;stroke-width:2;" x="100.541237" xlink:href="#mbe2229961b" y="67.501232"/>
     <use style="fill:#bfbf00;stroke:#bfbf00;stroke-linejoin:miter;stroke-width:2;" x="100.541237" xlink:href="#mbe2229961b" y="32.113832"/>
     <use style="fill:#bfbf00;stroke:#bfbf00;stroke-linejoin:miter;stroke-width:2;" x="85.888328" xlink:href="#mbe2229961b" y="32.113832"/>
     <use style="fill:#bfbf00;stroke:#bfbf00;stroke-linejoin:miter;stroke-width:2;" x="85.888328" xlink:href="#mbe2229961b" y="67.501232"/>
    </g>
   </g>
   <g id="line2d_142">
    <path clip-path="url(#pbcb994af78)" d="M 85.888328 44.65352 
L 100.541237 44.65352 
" style="fill:none;stroke:#bfbf00;stroke-linecap:square;stroke-width:2;"/>
   </g>
   <g id="line2d_143">
    <path clip-path="url(#pbcb994af78)" d="M 153.203111 71.306824 
L 158.331629 54.908868 
L 153.203111 47.735871 
L 167.85602 47.735871 
L 162.727502 54.908868 
L 167.85602 71.306824 
L 153.203111 71.306824 
" style="fill:none;stroke:#bfbf00;stroke-linecap:square;"/>
   </g>
   <g id="line2d_144">
    <path clip-path="url(#pbcb994af78)" d="M 153.203111 71.306824 
L 167.85602 71.306824 
L 167.85602 47.735871 
L 153.203111 47.735871 
L 153.203111 71.306824 
" style="fill:none;"/>
    <g clip-path="url(#pbcb994af78)">
     <use style="fill:#bfbf00;stroke:#bfbf00;stroke-linejoin:miter;stroke-width:2;" x="153.203111" xlink:href="#mbe2229961b" y="71.306824"/>
     <use style="fill:#bfbf00;stroke:#bfbf00;stroke-linejoin:miter;stroke-width:2;" x="167.85602" xlink:href="#mbe2229961b" y="71.306824"/>
     <use style="fill:#bfbf00;stroke:#bfbf00;stroke-linejoin:miter;stroke-width:2;" x="167.85602" xlink:href="#mbe2229961b" y="47.735871"/>
     <use style="fill:#bfbf00;stroke:#bfbf00;stroke-linejoin:miter;stroke-width:2;" x="153.203111" xlink:href="#mbe2229961b" y="47.735871"/>
     <use style="fill:#bfbf00;stroke:#bfbf00;stroke-linejoin:miter;stroke-width:2;" x="153.203111" xlink:href="#mbe2229961b" y="71.306824"/>
    </g>
   </g>
   <g id="line2d_145">
    <path clip-path="url(#pbcb994af78)" d="M 153.203111 54.908868 
L 167.85602 54.908868 
" style="fill:none;stroke:#bfbf00;stroke-linecap:square;stroke-width:2;"/>
   </g>
   <g id="line2d_146">
    <path clip-path="url(#pbcb994af78)" d="M 427.224516 129.782474 
L 432.353034 99.856279 
L 427.224516 91.192011 
L 441.877425 91.192011 
L 436.748907 99.856279 
L 441.877425 129.782474 
L 427.224516 129.782474 
" style="fill:none;stroke:#bfbf00;stroke-linecap:square;"/>
   </g>
   <g id="line2d_147">
    <path clip-path="url(#pbcb994af78)" d="M 427.224516 129.782474 
L 441.877425 129.782474 
L 441.877425 91.192011 
L 427.224516 91.192011 
L 427.224516 129.782474 
" style="fill:none;"/>
    <g clip-path="url(#pbcb994af78)">
     <use style="fill:#bfbf00;stroke:#bfbf00;stroke-linejoin:miter;stroke-width:2;" x="427.224516" xlink:href="#mbe2229961b" y="129.782474"/>
     <use style="fill:#bfbf00;stroke:#bfbf00;stroke-linejoin:miter;stroke-width:2;" x="441.877425" xlink:href="#mbe2229961b" y="129.782474"/>
     <use style="fill:#bfbf00;stroke:#bfbf00;stroke-linejoin:miter;stroke-width:2;" x="441.877425" xlink:href="#mbe2229961b" y="91.192011"/>
     <use style="fill:#bfbf00;stroke:#bfbf00;stroke-linejoin:miter;stroke-width:2;" x="427.224516" xlink:href="#mbe2229961b" y="91.192011"/>
     <use style="fill:#bfbf00;stroke:#bfbf00;stroke-linejoin:miter;stroke-width:2;" x="427.224516" xlink:href="#mbe2229961b" y="129.782474"/>
    </g>
   </g>
   <g id="line2d_148">
    <path clip-path="url(#pbcb994af78)" d="M 427.224516 99.856279 
L 441.877425 99.856279 
" style="fill:none;stroke:#bfbf00;stroke-linecap:square;stroke-width:2;"/>
   </g>
   <g id="line2d_149">
    <path clip-path="url(#pbcb994af78)" d="M 39.784034 47.472037 
L 93.214783 41.301871 
" style="fill:none;stroke:#bfbf00;stroke-linecap:square;stroke-width:4;"/>
   </g>
   <g id="line2d_150">
    <path clip-path="url(#pbcb994af78)" d="M 93.214783 41.301871 
L 160.529565 50.010496 
" style="fill:none;stroke:#bfbf00;stroke-linecap:square;stroke-width:4;"/>
   </g>
   <g id="line2d_151">
    <path clip-path="url(#pbcb994af78)" d="M 39.784034 47.472037 
L 93.214783 41.301871 
L 160.529565 50.010496 
L 434.550971 85.472822 
" style="fill:none;"/>
    <defs>
     <path d="M 0 -10 
L -10 10 
L 10 10 
z
" id="m7aa2b55b65" style="stroke:#000000;stroke-linejoin:miter;stroke-width:2;"/>
    </defs>
    <g clip-path="url(#pbcb994af78)">
     <use style="fill:#bfbf00;stroke:#000000;stroke-linejoin:miter;stroke-width:2;" x="39.784034" xlink:href="#m7aa2b55b65" y="47.472037"/>
     <use style="fill:#bfbf00;stroke:#000000;stroke-linejoin:miter;stroke-width:2;" x="93.214783" xlink:href="#m7aa2b55b65" y="41.301871"/>
     <use style="fill:#bfbf00;stroke:#000000;stroke-linejoin:miter;stroke-width:2;" x="160.529565" xlink:href="#m7aa2b55b65" y="50.010496"/>
     <use style="fill:#bfbf00;stroke:#000000;stroke-linejoin:miter;stroke-width:2;" x="434.550971" xlink:href="#m7aa2b55b65" y="85.472822"/>
    </g>
   </g>
   <g id="line2d_152"/>
   <g id="line2d_153"/>
   <g id="line2d_154"/>
   <g id="line2d_155"/>
   <g id="line2d_156"/>
   <g id="line2d_157"/>
   <g id="line2d_158"/>
   <g id="line2d_159">
    <defs>
     <path d="M -10 10 
L 10 -10 
M -10 -10 
L 10 10 
" id="m0939e065c5" style="stroke:#ff0000;"/>
    </defs>
    <g clip-path="url(#pbcb994af78)">
     <use style="fill:#ff0000;stroke:#ff0000;" x="39.784034" xlink:href="#m0939e065c5" y="79.443248"/>
     <use style="fill:#ff0000;stroke:#ff0000;" x="93.214783" xlink:href="#m0939e065c5" y="86.362656"/>
     <use style="fill:#ff0000;stroke:#ff0000;" x="160.529565" xlink:href="#m0939e065c5" y="95.080078"/>
     <use style="fill:#ff0000;stroke:#ff0000;" x="251.870034" xlink:href="#m0939e065c5" y="106.908884"/>
     <use style="fill:#ff0000;stroke:#ff0000;" x="343.210502" xlink:href="#m0939e065c5" y="118.73769"/>
     <use style="fill:#ff0000;stroke:#ff0000;" x="434.550971" xlink:href="#m0939e065c5" y="130.566496"/>
    </g>
   </g>
   <g id="line2d_160">
    <path clip-path="url(#pbcb994af78)" d="M 9.47998 346.6 
L 461.8 288.023492 
" style="fill:none;stroke:#000000;stroke-dasharray:0.5,0.825;stroke-dashoffset:0;stroke-width:0.5;"/>
   </g>
   <g id="line2d_161">
    <path clip-path="url(#pbcb994af78)" d="M -1 269.368298 
L 461.8 209.434608 
" style="fill:none;stroke:#000000;stroke-dasharray:0.5,0.825;stroke-dashoffset:0;stroke-width:0.5;"/>
   </g>
   <g id="line2d_162">
    <path clip-path="url(#pbcb994af78)" d="M -1 190.779414 
L 461.8 130.845724 
" style="fill:none;stroke:#000000;stroke-dasharray:0.5,0.825;stroke-dashoffset:0;stroke-width:0.5;"/>
   </g>
   <g id="line2d_163">
    <path clip-path="url(#pbcb994af78)" d="M -1 112.19053 
L 461.8 52.25684 
" style="fill:none;stroke:#000000;stroke-dasharray:0.5,0.825;stroke-dashoffset:0;stroke-width:0.5;"/>
   </g>
   <g id="line2d_164">
    <path clip-path="url(#pbcb994af78)" d="M -1 33.601645 
L 266.189316 -1 
" style="fill:none;stroke:#000000;stroke-dasharray:0.5,0.825;stroke-dashoffset:0;stroke-width:0.5;"/>
   </g>
   <g id="patch_3">
    <path d="M 25.9 311.24 
L 25.9 28.32 
" style="fill:none;stroke:#000000;stroke-linecap:square;stroke-linejoin:miter;stroke-width:0.8;"/>
   </g>
   <g id="patch_4">
    <path d="M 450.072 311.24 
L 450.072 28.32 
" style="fill:none;stroke:#000000;stroke-linecap:square;stroke-linejoin:miter;stroke-width:0.8;"/>
   </g>
   <g id="patch_5">
    <path d="M 25.9 311.24 
L 450.072 311.24 
" style="fill:none;stroke:#000000;stroke-linecap:square;stroke-linejoin:miter;stroke-width:0.8;"/>
   </g>
   <g id="patch_6">
    <path d="M 25.9 28.32 
L 450.072 28.32 
" style="fill:none;stroke:#000000;stroke-linecap:square;stroke-linejoin:miter;stroke-width:0.8;"/>
   </g>
   <g id="text_15">
    <!-- 2 -->
    <g transform="translate(33.294284 36.310067)scale(0.204 -0.204)">
     <use xlink:href="#DejaVuSans-32"/>
    </g>
   </g>
   <g id="text_16">
    <!-- 1 -->
    <g transform="translate(86.725033 30.139901)scale(0.204 -0.204)">
     <use xlink:href="#DejaVuSans-31"/>
    </g>
   </g>
   <g id="text_17">
    <!-- 1 -->
    <g transform="translate(154.039815 38.848526)scale(0.204 -0.204)">
     <use xlink:href="#DejaVuSans-31"/>
    </g>
   </g>
   <g id="text_18">
    <!-- 1 -->
    <g transform="translate(428.061221 74.310852)scale(0.204 -0.204)">
     <use xlink:href="#DejaVuSans-31"/>
    </g>
   </g>
   <g id="text_19">
    <!-- 3 -->
    <g transform="translate(245.380284 71.940954)scale(0.204 -0.204)">
     <use xlink:href="#DejaVuSans-33"/>
    </g>
   </g>
   <g id="text_20">
    <!-- 2 -->
    <g transform="translate(336.720752 75.526369)scale(0.204 -0.204)">
     <use xlink:href="#DejaVuSans-32"/>
    </g>
   </g>
   <g id="text_21">
    <!-- 15 instances -->
    <defs>
     <path id="DejaVuSans-20"/>
     <path d="M 9.421875 54.6875 
L 18.40625 54.6875 
L 18.40625 0 
L 9.421875 0 
z
M 9.421875 75.984375 
L 18.40625 75.984375 
L 18.40625 64.59375 
L 9.421875 64.59375 
z
" id="DejaVuSans-69"/>
     <path d="M 54.890625 33.015625 
L 54.890625 0 
L 45.90625 0 
L 45.90625 32.71875 
Q 45.90625 40.484375 42.875 44.328125 
Q 39.84375 48.1875 33.796875 48.1875 
Q 26.515625 48.1875 22.3125 43.546875 
Q 18.109375 38.921875 18.109375 30.90625 
L 18.109375 0 
L 9.078125 0 
L 9.078125 54.6875 
L 18.109375 54.6875 
L 18.109375 46.1875 
Q 21.34375 51.125 25.703125 53.5625 
Q 30.078125 56 35.796875 56 
Q 45.21875 56 50.046875 50.171875 
Q 54.890625 44.34375 54.890625 33.015625 
z
" id="DejaVuSans-6e"/>
     <path d="M 44.28125 53.078125 
L 44.28125 44.578125 
Q 40.484375 46.53125 36.375 47.5 
Q 32.28125 48.484375 27.875 48.484375 
Q 21.1875 48.484375 17.84375 46.4375 
Q 14.5 44.390625 14.5 40.28125 
Q 14.5 37.15625 16.890625 35.375 
Q 19.28125 33.59375 26.515625 31.984375 
L 29.59375 31.296875 
Q 39.15625 29.25 43.1875 25.515625 
Q 47.21875 21.78125 47.21875 15.09375 
Q 47.21875 7.46875 41.1875 3.015625 
Q 35.15625 -1.421875 24.609375 -1.421875 
Q 20.21875 -1.421875 15.453125 -0.5625 
Q 10.6875 0.296875 5.421875 2 
L 5.421875 11.28125 
Q 10.40625 8.6875 15.234375 7.390625 
Q 20.0625 6.109375 24.8125 6.109375 
Q 31.15625 6.109375 34.5625 8.28125 
Q 37.984375 10.453125 37.984375 14.40625 
Q 37.984375 18.0625 35.515625 20.015625 
Q 33.0625 21.96875 24.703125 23.78125 
L 21.578125 24.515625 
Q 13.234375 26.265625 9.515625 29.90625 
Q 5.8125 33.546875 5.8125 39.890625 
Q 5.8125 47.609375 11.28125 51.796875 
Q 16.75 56 26.8125 56 
Q 31.78125 56 36.171875 55.265625 
Q 40.578125 54.546875 44.28125 53.078125 
z
" id="DejaVuSans-73"/>
     <path d="M 18.3125 70.21875 
L 18.3125 54.6875 
L 36.8125 54.6875 
L 36.8125 47.703125 
L 18.3125 47.703125 
L 18.3125 18.015625 
Q 18.3125 11.328125 20.140625 9.421875 
Q 21.96875 7.515625 27.59375 7.515625 
L 36.8125 7.515625 
L 36.8125 0 
L 27.59375 0 
Q 17.1875 0 13.234375 3.875 
Q 9.28125 7.765625 9.28125 18.015625 
L 9.28125 47.703125 
L 2.6875 47.703125 
L 2.6875 54.6875 
L 9.28125 54.6875 
L 9.28125 70.21875 
z
" id="DejaVuSans-74"/>
     <path d="M 34.28125 27.484375 
Q 23.390625 27.484375 19.1875 25 
Q 14.984375 22.515625 14.984375 16.5 
Q 14.984375 11.71875 18.140625 8.90625 
Q 21.296875 6.109375 26.703125 6.109375 
Q 34.1875 6.109375 38.703125 11.40625 
Q 43.21875 16.703125 43.21875 25.484375 
L 43.21875 27.484375 
z
M 52.203125 31.203125 
L 52.203125 0 
L 43.21875 0 
L 43.21875 8.296875 
Q 40.140625 3.328125 35.546875 0.953125 
Q 30.953125 -1.421875 24.3125 -1.421875 
Q 15.921875 -1.421875 10.953125 3.296875 
Q 6 8.015625 6 15.921875 
Q 6 25.140625 12.171875 29.828125 
Q 18.359375 34.515625 30.609375 34.515625 
L 43.21875 34.515625 
L 43.21875 35.40625 
Q 43.21875 41.609375 39.140625 45 
Q 35.0625 48.390625 27.6875 48.390625 
Q 23 48.390625 18.546875 47.265625 
Q 14.109375 46.140625 10.015625 43.890625 
L 10.015625 52.203125 
Q 14.9375 54.109375 19.578125 55.046875 
Q 24.21875 56 28.609375 56 
Q 40.484375 56 46.34375 49.84375 
Q 52.203125 43.703125 52.203125 31.203125 
z
" id="DejaVuSans-61"/>
     <path d="M 48.78125 52.59375 
L 48.78125 44.1875 
Q 44.96875 46.296875 41.140625 47.34375 
Q 37.3125 48.390625 33.40625 48.390625 
Q 24.65625 48.390625 19.8125 42.84375 
Q 14.984375 37.3125 14.984375 27.296875 
Q 14.984375 17.28125 19.8125 11.734375 
Q 24.65625 6.203125 33.40625 6.203125 
Q 37.3125 6.203125 41.140625 7.25 
Q 44.96875 8.296875 48.78125 10.40625 
L 48.78125 2.09375 
Q 45.015625 0.34375 40.984375 -0.53125 
Q 36.96875 -1.421875 32.421875 -1.421875 
Q 20.0625 -1.421875 12.78125 6.34375 
Q 5.515625 14.109375 5.515625 27.296875 
Q 5.515625 40.671875 12.859375 48.328125 
Q 20.21875 56 33.015625 56 
Q 37.15625 56 41.109375 55.140625 
Q 45.0625 54.296875 48.78125 52.59375 
z
" id="DejaVuSans-63"/>
     <path d="M 56.203125 29.59375 
L 56.203125 25.203125 
L 14.890625 25.203125 
Q 15.484375 15.921875 20.484375 11.0625 
Q 25.484375 6.203125 34.421875 6.203125 
Q 39.59375 6.203125 44.453125 7.46875 
Q 49.3125 8.734375 54.109375 11.28125 
L 54.109375 2.78125 
Q 49.265625 0.734375 44.1875 -0.34375 
Q 39.109375 -1.421875 33.890625 -1.421875 
Q 20.796875 -1.421875 13.15625 6.1875 
Q 5.515625 13.8125 5.515625 26.8125 
Q 5.515625 40.234375 12.765625 48.109375 
Q 20.015625 56 32.328125 56 
Q 43.359375 56 49.78125 48.890625 
Q 56.203125 41.796875 56.203125 29.59375 
z
M 47.21875 32.234375 
Q 47.125 39.59375 43.09375 43.984375 
Q 39.0625 48.390625 32.421875 48.390625 
Q 24.90625 48.390625 20.390625 44.140625 
Q 15.875 39.890625 15.1875 32.171875 
z
" id="DejaVuSans-65"/>
    </defs>
    <g transform="translate(25.9 292.6515)scale(0.14 -0.14)">
     <use xlink:href="#DejaVuSans-31"/>
     <use x="63.623047" xlink:href="#DejaVuSans-35"/>
     <use x="127.246094" xlink:href="#DejaVuSans-20"/>
     <use x="159.033203" xlink:href="#DejaVuSans-69"/>
     <use x="186.816406" xlink:href="#DejaVuSans-6e"/>
     <use x="250.195312" xlink:href="#DejaVuSans-73"/>
     <use x="302.294922" xlink:href="#DejaVuSans-74"/>
     <use x="341.503906" xlink:href="#DejaVuSans-61"/>
     <use x="402.783203" xlink:href="#DejaVuSans-6e"/>
     <use x="466.162109" xlink:href="#DejaVuSans-63"/>
     <use x="521.142578" xlink:href="#DejaVuSans-65"/>
     <use x="582.666016" xlink:href="#DejaVuSans-73"/>
    </g>
    <!-- absolute targets -->
    <defs>
     <path d="M 48.6875 27.296875 
Q 48.6875 37.203125 44.609375 42.84375 
Q 40.53125 48.484375 33.40625 48.484375 
Q 26.265625 48.484375 22.1875 42.84375 
Q 18.109375 37.203125 18.109375 27.296875 
Q 18.109375 17.390625 22.1875 11.75 
Q 26.265625 6.109375 33.40625 6.109375 
Q 40.53125 6.109375 44.609375 11.75 
Q 48.6875 17.390625 48.6875 27.296875 
z
M 18.109375 46.390625 
Q 20.953125 51.265625 25.265625 53.625 
Q 29.59375 56 35.59375 56 
Q 45.5625 56 51.78125 48.09375 
Q 58.015625 40.1875 58.015625 27.296875 
Q 58.015625 14.40625 51.78125 6.484375 
Q 45.5625 -1.421875 35.59375 -1.421875 
Q 29.59375 -1.421875 25.265625 0.953125 
Q 20.953125 3.328125 18.109375 8.203125 
L 18.109375 0 
L 9.078125 0 
L 9.078125 75.984375 
L 18.109375 75.984375 
z
" id="DejaVuSans-62"/>
     <path d="M 30.609375 48.390625 
Q 23.390625 48.390625 19.1875 42.75 
Q 14.984375 37.109375 14.984375 27.296875 
Q 14.984375 17.484375 19.15625 11.84375 
Q 23.34375 6.203125 30.609375 6.203125 
Q 37.796875 6.203125 41.984375 11.859375 
Q 46.1875 17.53125 46.1875 27.296875 
Q 46.1875 37.015625 41.984375 42.703125 
Q 37.796875 48.390625 30.609375 48.390625 
z
M 30.609375 56 
Q 42.328125 56 49.015625 48.375 
Q 55.71875 40.765625 55.71875 27.296875 
Q 55.71875 13.875 49.015625 6.21875 
Q 42.328125 -1.421875 30.609375 -1.421875 
Q 18.84375 -1.421875 12.171875 6.21875 
Q 5.515625 13.875 5.515625 27.296875 
Q 5.515625 40.765625 12.171875 48.375 
Q 18.84375 56 30.609375 56 
z
" id="DejaVuSans-6f"/>
     <path d="M 9.421875 75.984375 
L 18.40625 75.984375 
L 18.40625 0 
L 9.421875 0 
z
" id="DejaVuSans-6c"/>
     <path d="M 8.5 21.578125 
L 8.5 54.6875 
L 17.484375 54.6875 
L 17.484375 21.921875 
Q 17.484375 14.15625 20.5 10.265625 
Q 23.53125 6.390625 29.59375 6.390625 
Q 36.859375 6.390625 41.078125 11.03125 
Q 45.3125 15.671875 45.3125 23.6875 
L 45.3125 54.6875 
L 54.296875 54.6875 
L 54.296875 0 
L 45.3125 0 
L 45.3125 8.40625 
Q 42.046875 3.421875 37.71875 1 
Q 33.40625 -1.421875 27.6875 -1.421875 
Q 18.265625 -1.421875 13.375 4.4375 
Q 8.5 10.296875 8.5 21.578125 
z
M 31.109375 56 
z
" id="DejaVuSans-75"/>
     <path d="M 41.109375 46.296875 
Q 39.59375 47.171875 37.8125 47.578125 
Q 36.03125 48 33.890625 48 
Q 26.265625 48 22.1875 43.046875 
Q 18.109375 38.09375 18.109375 28.8125 
L 18.109375 0 
L 9.078125 0 
L 9.078125 54.6875 
L 18.109375 54.6875 
L 18.109375 46.1875 
Q 20.953125 51.171875 25.484375 53.578125 
Q 30.03125 56 36.53125 56 
Q 37.453125 56 38.578125 55.875 
Q 39.703125 55.765625 41.0625 55.515625 
z
" id="DejaVuSans-72"/>
     <path d="M 45.40625 27.984375 
Q 45.40625 37.75 41.375 43.109375 
Q 37.359375 48.484375 30.078125 48.484375 
Q 22.859375 48.484375 18.828125 43.109375 
Q 14.796875 37.75 14.796875 27.984375 
Q 14.796875 18.265625 18.828125 12.890625 
Q 22.859375 7.515625 30.078125 7.515625 
Q 37.359375 7.515625 41.375 12.890625 
Q 45.40625 18.265625 45.40625 27.984375 
z
M 54.390625 6.78125 
Q 54.390625 -7.171875 48.1875 -13.984375 
Q 42 -20.796875 29.203125 -20.796875 
Q 24.46875 -20.796875 20.265625 -20.09375 
Q 16.0625 -19.390625 12.109375 -17.921875 
L 12.109375 -9.1875 
Q 16.0625 -11.328125 19.921875 -12.34375 
Q 23.78125 -13.375 27.78125 -13.375 
Q 36.625 -13.375 41.015625 -8.765625 
Q 45.40625 -4.15625 45.40625 5.171875 
L 45.40625 9.625 
Q 42.625 4.78125 38.28125 2.390625 
Q 33.9375 0 27.875 0 
Q 17.828125 0 11.671875 7.65625 
Q 5.515625 15.328125 5.515625 27.984375 
Q 5.515625 40.671875 11.671875 48.328125 
Q 17.828125 56 27.875 56 
Q 33.9375 56 38.28125 53.609375 
Q 42.625 51.21875 45.40625 46.390625 
L 45.40625 54.6875 
L 54.390625 54.6875 
z
" id="DejaVuSans-67"/>
    </defs>
    <g transform="translate(25.9 308.328437)scale(0.14 -0.14)">
     <use xlink:href="#DejaVuSans-61"/>
     <use x="61.279297" xlink:href="#DejaVuSans-62"/>
     <use x="124.755859" xlink:href="#DejaVuSans-73"/>
     <use x="176.855469" xlink:href="#DejaVuSans-6f"/>
     <use x="238.037109" xlink:href="#DejaVuSans-6c"/>
     <use x="265.820312" xlink:href="#DejaVuSans-75"/>
     <use x="329.199219" xlink:href="#DejaVuSans-74"/>
     <use x="368.408203" xlink:href="#DejaVuSans-65"/>
     <use x="429.931641" xlink:href="#DejaVuSans-20"/>
     <use x="461.71875" xlink:href="#DejaVuSans-74"/>
     <use x="500.927734" xlink:href="#DejaVuSans-61"/>
     <use x="562.207031" xlink:href="#DejaVuSans-72"/>
     <use x="603.304688" xlink:href="#DejaVuSans-67"/>
     <use x="666.78125" xlink:href="#DejaVuSans-65"/>
     <use x="728.304688" xlink:href="#DejaVuSans-74"/>
     <use x="767.513672" xlink:href="#DejaVuSans-73"/>
    </g>
   </g>
   <g id="text_22">
    <!-- v0.0.0 -->
    <defs>
     <path d="M 2.984375 54.6875 
L 12.5 54.6875 
L 29.59375 8.796875 
L 46.6875 54.6875 
L 56.203125 54.6875 
L 35.6875 0 
L 23.484375 0 
z
" id="DejaVuSans-76"/>
     <path d="M 10.6875 12.40625 
L 21 12.40625 
L 21 0 
L 10.6875 0 
z
" id="DejaVuSans-2e"/>
    </defs>
    <g style="fill:#808080;" transform="translate(222.30475 306.331112)scale(0.1 -0.1)">
     <use xlink:href="#DejaVuSans-76"/>
     <use x="59.179688" xlink:href="#DejaVuSans-30"/>
     <use x="122.802734" xlink:href="#DejaVuSans-2e"/>
     <use x="154.589844" xlink:href="#DejaVuSans-30"/>
     <use x="218.212891" xlink:href="#DejaVuSans-2e"/>
     <use x="250" xlink:href="#DejaVuSans-30"/>
    </g>
   </g>
   <g id="text_23">
    <!-- 12 Bent cigar -->
    <defs>
     <path d="M 19.671875 34.8125 
L 19.671875 8.109375 
L 35.5 8.109375 
Q 43.453125 8.109375 47.28125 11.40625 
Q 51.125 14.703125 51.125 21.484375 
Q 51.125 28.328125 47.28125 31.5625 
Q 43.453125 34.8125 35.5 34.8125 
z
M 19.671875 64.796875 
L 19.671875 42.828125 
L 34.28125 42.828125 
Q 41.5 42.828125 45.03125 45.53125 
Q 48.578125 48.25 48.578125 53.8125 
Q 48.578125 59.328125 45.03125 62.0625 
Q 41.5 64.796875 34.28125 64.796875 
z
M 9.8125 72.90625 
L 35.015625 72.90625 
Q 46.296875 72.90625 52.390625 68.21875 
Q 58.5 63.53125 58.5 54.890625 
Q 58.5 48.1875 55.375 44.234375 
Q 52.25 40.28125 46.1875 39.3125 
Q 53.46875 37.75 57.5 32.78125 
Q 61.53125 27.828125 61.53125 20.40625 
Q 61.53125 10.640625 54.890625 5.3125 
Q 48.25 0 35.984375 0 
L 9.8125 0 
z
" id="DejaVuSans-42"/>
    </defs>
    <g transform="translate(157.325375 22.32)scale(0.24 -0.24)">
     <use xlink:href="#DejaVuSans-31"/>
     <use x="63.623047" xlink:href="#DejaVuSans-32"/>
     <use x="127.246094" xlink:href="#DejaVuSans-20"/>
     <use x="159.033203" xlink:href="#DejaVuSans-42"/>
     <use x="227.636719" xlink:href="#DejaVuSans-65"/>
     <use x="289.160156" xlink:href="#DejaVuSans-6e"/>
     <use x="352.539062" xlink:href="#DejaVuSans-74"/>
     <use x="391.748047" xlink:href="#DejaVuSans-20"/>
     <use x="423.535156" xlink:href="#DejaVuSans-63"/>
     <use x="478.515625" xlink:href="#DejaVuSans-69"/>
     <use x="506.298828" xlink:href="#DejaVuSans-67"/>
     <use x="569.775391" xlink:href="#DejaVuSans-61"/>
     <use x="631.054688" xlink:href="#DejaVuSans-72"/>
    </g>
   </g>
  </g>
 </g>
 <defs>
  <clipPath id="pbcb994af78">
   <rect height="282.92" width="424.172" x="25.9" y="28.32"/>
  </clipPath>
 </defs>
</svg>
