<?xml version="1.0" encoding="utf-8" standalone="no"?>
<!DOCTYPE svg PUBLIC "-//W3C//DTD SVG 1.1//EN"
  "http://www.w3.org/Graphics/SVG/1.1/DTD/svg11.dtd">
<!-- Created with matplotlib (http://matplotlib.org/) -->
<svg height="345.6pt" version="1.1" viewBox="0 0 460.8 345.6" width="460.8pt" xmlns="http://www.w3.org/2000/svg" xmlns:xlink="http://www.w3.org/1999/xlink">
 <defs>
  <style type="text/css">
*{stroke-linecap:butt;stroke-linejoin:round;}
  </style>
 </defs>
 <g id="figure_1">
  <g id="patch_1">
   <path d="M 0 345.6 
L 460.8 345.6 
L 460.8 0 
L 0 0 
z
" style="fill:#ffffff;"/>
  </g>
  <g id="axes_1">
   <g id="patch_2">
    <path d="M 5.52 291.28 
L 450.672 291.28 
L 450.672 5.52 
L 5.52 5.52 
z
" style="fill:#ffffff;"/>
   </g>
   <g id="matplotlib.axis_1">
    <g id="xtick_1">
     <g id="line2d_1">
      <path clip-path="url(#p89fd99875f)" d="M 5.410562 291.28 
L 5.410562 5.52 
" style="fill:none;stroke:#b0b0b0;stroke-linecap:square;stroke-width:0.8;"/>
     </g>
     <g id="line2d_2">
      <defs>
       <path d="M 0 0 
L 0 3.5 
" id="m547223e011" style="stroke:#000000;stroke-width:0.8;"/>
      </defs>
      <g>
       <use style="stroke:#000000;stroke-width:0.8;" x="5.410562" xlink:href="#m547223e011" y="291.28"/>
      </g>
     </g>
    </g>
    <g id="xtick_2">
     <g id="line2d_3">
      <path clip-path="url(#p89fd99875f)" d="M 106.710074 291.28 
L 106.710074 5.52 
" style="fill:none;stroke:#b0b0b0;stroke-linecap:square;stroke-width:0.8;"/>
     </g>
     <g id="line2d_4">
      <g>
       <use style="stroke:#000000;stroke-width:0.8;" x="106.710074" xlink:href="#m547223e011" y="291.28"/>
      </g>
     </g>
     <g id="text_1">
      <!-- -4 -->
      <defs>
       <path d="M 4.890625 31.390625 
L 31.203125 31.390625 
L 31.203125 23.390625 
L 4.890625 23.390625 
z
" id="DejaVuSans-2d"/>
       <path d="M 37.796875 64.3125 
L 12.890625 25.390625 
L 37.796875 25.390625 
z
M 35.203125 72.90625 
L 47.609375 72.90625 
L 47.609375 25.390625 
L 58.015625 25.390625 
L 58.015625 17.1875 
L 47.609375 17.1875 
L 47.609375 0 
L 37.796875 0 
L 37.796875 17.1875 
L 4.890625 17.1875 
L 4.890625 26.703125 
z
" id="DejaVuSans-34"/>
      </defs>
      <g transform="translate(96.739762 313.476875)scale(0.2 -0.2)">
       <use xlink:href="#DejaVuSans-2d"/>
       <use x="36.083984" xlink:href="#DejaVuSans-34"/>
      </g>
     </g>
    </g>
    <g id="xtick_3">
     <g id="line2d_5">
      <path clip-path="url(#p89fd99875f)" d="M 208.009586 291.28 
L 208.009586 5.52 
" style="fill:none;stroke:#b0b0b0;stroke-linecap:square;stroke-width:0.8;"/>
     </g>
     <g id="line2d_6">
      <g>
       <use style="stroke:#000000;stroke-width:0.8;" x="208.009586" xlink:href="#m547223e011" y="291.28"/>
      </g>
     </g>
     <g id="text_2">
      <!-- 0 -->
      <defs>
       <path d="M 31.78125 66.40625 
Q 24.171875 66.40625 20.328125 58.90625 
Q 16.5 51.421875 16.5 36.375 
Q 16.5 21.390625 20.328125 13.890625 
Q 24.171875 6.390625 31.78125 6.390625 
Q 39.453125 6.390625 43.28125 13.890625 
Q 47.125 21.390625 47.125 36.375 
Q 47.125 51.421875 43.28125 58.90625 
Q 39.453125 66.40625 31.78125 66.40625 
z
M 31.78125 74.21875 
Q 44.046875 74.21875 50.515625 64.515625 
Q 56.984375 54.828125 56.984375 36.375 
Q 56.984375 17.96875 50.515625 8.265625 
Q 44.046875 -1.421875 31.78125 -1.421875 
Q 19.53125 -1.421875 13.0625 8.265625 
Q 6.59375 17.96875 6.59375 36.375 
Q 6.59375 54.828125 13.0625 64.515625 
Q 19.53125 74.21875 31.78125 74.21875 
z
" id="DejaVuSans-30"/>
      </defs>
      <g transform="translate(201.647086 313.476875)scale(0.2 -0.2)">
       <use xlink:href="#DejaVuSans-30"/>
      </g>
     </g>
    </g>
    <g id="xtick_4">
     <g id="line2d_7">
      <path clip-path="url(#p89fd99875f)" d="M 309.309099 291.28 
L 309.309099 5.52 
" style="fill:none;stroke:#b0b0b0;stroke-linecap:square;stroke-width:0.8;"/>
     </g>
     <g id="line2d_8">
      <g>
       <use style="stroke:#000000;stroke-width:0.8;" x="309.309099" xlink:href="#m547223e011" y="291.28"/>
      </g>
     </g>
     <g id="text_3">
      <!-- 4 -->
      <g transform="translate(302.946599 313.476875)scale(0.2 -0.2)">
       <use xlink:href="#DejaVuSans-34"/>
      </g>
     </g>
    </g>
    <g id="xtick_5">
     <g id="line2d_9">
      <path clip-path="url(#p89fd99875f)" d="M 410.608611 291.28 
L 410.608611 5.52 
" style="fill:none;stroke:#b0b0b0;stroke-linecap:square;stroke-width:0.8;"/>
     </g>
     <g id="line2d_10">
      <g>
       <use style="stroke:#000000;stroke-width:0.8;" x="410.608611" xlink:href="#m547223e011" y="291.28"/>
      </g>
     </g>
     <g id="text_4">
      <!-- 8 -->
      <defs>
       <path d="M 31.78125 34.625 
Q 24.75 34.625 20.71875 30.859375 
Q 16.703125 27.09375 16.703125 20.515625 
Q 16.703125 13.921875 20.71875 10.15625 
Q 24.75 6.390625 31.78125 6.390625 
Q 38.8125 6.390625 42.859375 10.171875 
Q 46.921875 13.96875 46.921875 20.515625 
Q 46.921875 27.09375 42.890625 30.859375 
Q 38.875 34.625 31.78125 34.625 
z
M 21.921875 38.8125 
Q 15.578125 40.375 12.03125 44.71875 
Q 8.5 49.078125 8.5 55.328125 
Q 8.5 64.0625 14.71875 69.140625 
Q 20.953125 74.21875 31.78125 74.21875 
Q 42.671875 74.21875 48.875 69.140625 
Q 55.078125 64.0625 55.078125 55.328125 
Q 55.078125 49.078125 51.53125 44.71875 
Q 48 40.375 41.703125 38.8125 
Q 48.828125 37.15625 52.796875 32.3125 
Q 56.78125 27.484375 56.78125 20.515625 
Q 56.78125 9.90625 50.3125 4.234375 
Q 43.84375 -1.421875 31.78125 -1.421875 
Q 19.734375 -1.421875 13.25 4.234375 
Q 6.78125 9.90625 6.78125 20.515625 
Q 6.78125 27.484375 10.78125 32.3125 
Q 14.796875 37.15625 21.921875 38.8125 
z
M 18.3125 54.390625 
Q 18.3125 48.734375 21.84375 45.5625 
Q 25.390625 42.390625 31.78125 42.390625 
Q 38.140625 42.390625 41.71875 45.5625 
Q 45.3125 48.734375 45.3125 54.390625 
Q 45.3125 60.0625 41.71875 63.234375 
Q 38.140625 66.40625 31.78125 66.40625 
Q 25.390625 66.40625 21.84375 63.234375 
Q 18.3125 60.0625 18.3125 54.390625 
z
" id="DejaVuSans-38"/>
      </defs>
      <g transform="translate(404.246111 313.476875)scale(0.2 -0.2)">
       <use xlink:href="#DejaVuSans-38"/>
      </g>
     </g>
    </g>
    <g id="text_5">
     <!-- log10 of Df -->
     <defs>
      <path d="M 9.421875 75.984375 
L 18.40625 75.984375 
L 18.40625 0 
L 9.421875 0 
z
" id="DejaVuSans-6c"/>
      <path d="M 30.609375 48.390625 
Q 23.390625 48.390625 19.1875 42.75 
Q 14.984375 37.109375 14.984375 27.296875 
Q 14.984375 17.484375 19.15625 11.84375 
Q 23.34375 6.203125 30.609375 6.203125 
Q 37.796875 6.203125 41.984375 11.859375 
Q 46.1875 17.53125 46.1875 27.296875 
Q 46.1875 37.015625 41.984375 42.703125 
Q 37.796875 48.390625 30.609375 48.390625 
z
M 30.609375 56 
Q 42.328125 56 49.015625 48.375 
Q 55.71875 40.765625 55.71875 27.296875 
Q 55.71875 13.875 49.015625 6.21875 
Q 42.328125 -1.421875 30.609375 -1.421875 
Q 18.84375 -1.421875 12.171875 6.21875 
Q 5.515625 13.875 5.515625 27.296875 
Q 5.515625 40.765625 12.171875 48.375 
Q 18.84375 56 30.609375 56 
z
" id="DejaVuSans-6f"/>
      <path d="M 45.40625 27.984375 
Q 45.40625 37.75 41.375 43.109375 
Q 37.359375 48.484375 30.078125 48.484375 
Q 22.859375 48.484375 18.828125 43.109375 
Q 14.796875 37.75 14.796875 27.984375 
Q 14.796875 18.265625 18.828125 12.890625 
Q 22.859375 7.515625 30.078125 7.515625 
Q 37.359375 7.515625 41.375 12.890625 
Q 45.40625 18.265625 45.40625 27.984375 
z
M 54.390625 6.78125 
Q 54.390625 -7.171875 48.1875 -13.984375 
Q 42 -20.796875 29.203125 -20.796875 
Q 24.46875 -20.796875 20.265625 -20.09375 
Q 16.0625 -19.390625 12.109375 -17.921875 
L 12.109375 -9.1875 
Q 16.0625 -11.328125 19.921875 -12.34375 
Q 23.78125 -13.375 27.78125 -13.375 
Q 36.625 -13.375 41.015625 -8.765625 
Q 45.40625 -4.15625 45.40625 5.171875 
L 45.40625 9.625 
Q 42.625 4.78125 38.28125 2.390625 
Q 33.9375 0 27.875 0 
Q 17.828125 0 11.671875 7.65625 
Q 5.515625 15.328125 5.515625 27.984375 
Q 5.515625 40.671875 11.671875 48.328125 
Q 17.828125 56 27.875 56 
Q 33.9375 56 38.28125 53.609375 
Q 42.625 51.21875 45.40625 46.390625 
L 45.40625 54.6875 
L 54.390625 54.6875 
z
" id="DejaVuSans-67"/>
      <path d="M 12.40625 8.296875 
L 28.515625 8.296875 
L 28.515625 63.921875 
L 10.984375 60.40625 
L 10.984375 69.390625 
L 28.421875 72.90625 
L 38.28125 72.90625 
L 38.28125 8.296875 
L 54.390625 8.296875 
L 54.390625 0 
L 12.40625 0 
z
" id="DejaVuSans-31"/>
      <path id="DejaVuSans-20"/>
      <path d="M 37.109375 75.984375 
L 37.109375 68.5 
L 28.515625 68.5 
Q 23.6875 68.5 21.796875 66.546875 
Q 19.921875 64.59375 19.921875 59.515625 
L 19.921875 54.6875 
L 34.71875 54.6875 
L 34.71875 47.703125 
L 19.921875 47.703125 
L 19.921875 0 
L 10.890625 0 
L 10.890625 47.703125 
L 2.296875 47.703125 
L 2.296875 54.6875 
L 10.890625 54.6875 
L 10.890625 58.5 
Q 10.890625 67.625 15.140625 71.796875 
Q 19.390625 75.984375 28.609375 75.984375 
z
" id="DejaVuSans-66"/>
      <path d="M 19.671875 64.796875 
L 19.671875 8.109375 
L 31.59375 8.109375 
Q 46.6875 8.109375 53.6875 14.9375 
Q 60.6875 21.78125 60.6875 36.53125 
Q 60.6875 51.171875 53.6875 57.984375 
Q 46.6875 64.796875 31.59375 64.796875 
z
M 9.8125 72.90625 
L 30.078125 72.90625 
Q 51.265625 72.90625 61.171875 64.09375 
Q 71.09375 55.28125 71.09375 36.53125 
Q 71.09375 17.671875 61.125 8.828125 
Q 51.171875 0 30.078125 0 
L 9.8125 0 
z
" id="DejaVuSans-44"/>
     </defs>
     <g transform="translate(172.910063 336.833125)scale(0.2 -0.2)">
      <use xlink:href="#DejaVuSans-6c"/>
      <use x="27.783203" xlink:href="#DejaVuSans-6f"/>
      <use x="88.964844" xlink:href="#DejaVuSans-67"/>
      <use x="152.441406" xlink:href="#DejaVuSans-31"/>
      <use x="216.064453" xlink:href="#DejaVuSans-30"/>
      <use x="279.6875" xlink:href="#DejaVuSans-20"/>
      <use x="311.474609" xlink:href="#DejaVuSans-6f"/>
      <use x="372.65625" xlink:href="#DejaVuSans-66"/>
      <use x="407.861328" xlink:href="#DejaVuSans-20"/>
      <use x="439.648438" xlink:href="#DejaVuSans-44"/>
      <use x="516.650391" xlink:href="#DejaVuSans-66"/>
     </g>
    </g>
   </g>
   <g id="matplotlib.axis_2">
    <g id="ytick_1">
     <g id="line2d_11">
      <path clip-path="url(#p89fd99875f)" d="M 5.52 291.28 
L 450.672 291.28 
" style="fill:none;stroke:#b0b0b0;stroke-linecap:square;stroke-width:0.8;"/>
     </g>
     <g id="line2d_12">
      <defs>
       <path d="M 0 0 
L -3.5 0 
" id="m38f3f7ca19" style="stroke:#000000;stroke-width:0.8;"/>
      </defs>
      <g>
       <use style="stroke:#000000;stroke-width:0.8;" x="5.52" xlink:href="#m38f3f7ca19" y="291.28"/>
      </g>
     </g>
    </g>
    <g id="ytick_2">
     <g id="line2d_13">
      <path clip-path="url(#p89fd99875f)" d="M 5.52 234.693861 
L 450.672 234.693861 
" style="fill:none;stroke:#b0b0b0;stroke-linecap:square;stroke-width:0.8;"/>
     </g>
     <g id="line2d_14">
      <g>
       <use style="stroke:#000000;stroke-width:0.8;" x="5.52" xlink:href="#m38f3f7ca19" y="234.693861"/>
      </g>
     </g>
    </g>
    <g id="ytick_3">
     <g id="line2d_15">
      <path clip-path="url(#p89fd99875f)" d="M 5.52 178.107723 
L 450.672 178.107723 
" style="fill:none;stroke:#b0b0b0;stroke-linecap:square;stroke-width:0.8;"/>
     </g>
     <g id="line2d_16">
      <g>
       <use style="stroke:#000000;stroke-width:0.8;" x="5.52" xlink:href="#m38f3f7ca19" y="178.107723"/>
      </g>
     </g>
    </g>
    <g id="ytick_4">
     <g id="line2d_17">
      <path clip-path="url(#p89fd99875f)" d="M 5.52 121.521584 
L 450.672 121.521584 
" style="fill:none;stroke:#b0b0b0;stroke-linecap:square;stroke-width:0.8;"/>
     </g>
     <g id="line2d_18">
      <g>
       <use style="stroke:#000000;stroke-width:0.8;" x="5.52" xlink:href="#m38f3f7ca19" y="121.521584"/>
      </g>
     </g>
    </g>
    <g id="ytick_5">
     <g id="line2d_19">
      <path clip-path="url(#p89fd99875f)" d="M 5.52 64.935446 
L 450.672 64.935446 
" style="fill:none;stroke:#b0b0b0;stroke-linecap:square;stroke-width:0.8;"/>
     </g>
     <g id="line2d_20">
      <g>
       <use style="stroke:#000000;stroke-width:0.8;" x="5.52" xlink:href="#m38f3f7ca19" y="64.935446"/>
      </g>
     </g>
    </g>
    <g id="ytick_6">
     <g id="line2d_21">
      <path clip-path="url(#p89fd99875f)" d="M 5.52 8.349307 
L 450.672 8.349307 
" style="fill:none;stroke:#b0b0b0;stroke-linecap:square;stroke-width:0.8;"/>
     </g>
     <g id="line2d_22">
      <g>
       <use style="stroke:#000000;stroke-width:0.8;" x="5.52" xlink:href="#m38f3f7ca19" y="8.349307"/>
      </g>
     </g>
    </g>
   </g>
   <g id="line2d_23">
    <path clip-path="url(#p89fd99875f)" d="M -1 264.873135 
L 5.410562 264.873135 
L 5.410562 163.018086 
L 17.578782 163.018086 
L 17.578782 159.245677 
L 67.583738 159.245677 
L 67.583738 155.473267 
L 113.702477 155.473267 
L 113.702477 151.700858 
L 114.051134 151.700858 
L 114.051134 147.928449 
L 114.328454 147.928449 
L 114.328454 144.15604 
L 126.332101 144.15604 
L 126.332101 140.38363 
L 132.73141 140.38363 
L 132.73141 136.611221 
L 139.776335 136.611221 
L 139.776335 132.838812 
L 146.229075 132.838812 
L 146.263938 125.293993 
L 146.706009 125.293993 
L 146.706009 121.521584 
L 151.925232 121.521584 
L 151.925232 117.749175 
L 153.011603 117.749175 
L 153.011603 113.976766 
L 158.586137 113.976766 
L 158.586137 110.204356 
L 165.446674 110.204356 
L 165.446674 106.431947 
L 166.386125 106.431947 
L 166.386125 102.659538 
L 168.288317 102.659538 
L 168.288317 98.887129 
L 172.205593 98.887129 
L 172.205593 95.114719 
L 174.351245 95.114719 
L 174.455055 87.569901 
L 178.882054 87.569901 
L 178.903763 80.025083 
L 179.696786 80.025083 
L 179.696786 76.252673 
L 182.131269 76.252673 
L 182.131269 72.480264 
L 183.044279 72.480264 
L 183.044279 68.707855 
L 185.561371 68.707855 
L 185.561371 64.935446 
L 185.962824 64.935446 
L 185.962824 61.163036 
L 186.507513 61.163036 
L 186.507513 57.390627 
L 195.146486 57.390627 
L 195.146486 53.618218 
L 207.954003 53.618218 
L 207.954003 19.666535 
L 215.577551 19.666535 
L 215.577551 12.121716 
L 220.037041 12.121716 
L 220.037041 8.349307 
L 220.037041 8.349307 
L 450.672 8.349307 
L 450.672 8.349307 
" style="fill:none;stroke:#ff0000;stroke-linecap:square;stroke-width:3;"/>
   </g>
   <g id="line2d_24">
    <path clip-path="url(#p89fd99875f)" d="M 223.042792 291.28 
L 223.042792 287.507591 
L 224.76138 287.507591 
L 224.76138 283.735182 
L 226.9599 283.735182 
L 226.9599 279.962772 
L 227.522802 279.962772 
L 227.522802 276.190363 
L 228.338361 276.190363 
L 228.338361 272.417954 
L 228.654708 272.417954 
L 228.654708 268.645545 
L 228.86481 268.645545 
L 228.86481 264.873135 
L 229.163155 264.873135 
L 229.163155 261.100726 
L 229.748296 261.100726 
L 229.748296 257.328317 
L 230.524123 257.328317 
L 230.524123 253.555908 
L 231.28461 253.555908 
L 231.28461 249.783498 
L 231.522113 249.783498 
L 231.522113 246.011089 
L 231.917925 246.011089 
L 231.917925 242.23868 
L 232.339772 242.23868 
L 232.339772 238.466271 
L 232.568124 238.466271 
L 232.608922 227.149043 
L 233.477851 227.149043 
L 233.477851 223.376634 
L 233.598968 223.376634 
L 233.598968 219.604224 
L 234.117926 219.604224 
L 234.117926 215.831815 
L 234.830889 215.831815 
L 234.830889 212.059406 
L 235.280535 212.059406 
L 235.280535 208.286997 
L 235.534717 208.286997 
L 235.545054 200.742178 
L 236.653063 200.742178 
L 236.653063 196.969769 
L 238.469674 196.969769 
L 238.496374 189.42495 
L 239.193889 189.42495 
L 239.193889 185.652541 
L 240.502272 185.652541 
L 240.502272 181.880132 
L 241.515328 181.880132 
L 241.515328 178.107723 
L 242.119227 178.107723 
L 242.119227 174.335314 
L 243.370746 174.335314 
L 243.370746 170.562904 
L 244.704993 170.562904 
L 244.704993 166.790495 
L 244.949606 166.790495 
L 244.949606 163.018086 
L 245.077545 163.018086 
L 245.077545 159.245677 
L 246.654217 159.245677 
L 246.654217 155.473267 
L 246.790534 155.473267 
L 246.790534 151.700858 
L 247.786104 151.700858 
L 247.786104 147.928449 
L 248.007756 147.928449 
L 248.007756 144.15604 
L 248.868543 144.15604 
L 248.971216 136.611221 
L 249.17424 136.611221 
L 249.17424 132.838812 
L 250.994735 132.838812 
L 250.994735 129.066403 
L 251.626479 129.066403 
L 251.626479 125.293993 
L 251.760589 125.293993 
L 251.776382 117.749175 
L 251.947195 117.749175 
L 251.947195 113.976766 
L 252.513332 113.976766 
L 252.513332 110.204356 
L 252.968612 110.204356 
L 252.968612 106.431947 
L 253.256423 106.431947 
L 253.256423 102.659538 
L 253.377382 102.659538 
L 253.486401 95.114719 
L 254.047684 95.114719 
L 254.047684 91.34231 
L 254.184274 91.34231 
L 254.184274 87.569901 
L 254.969849 87.569901 
L 254.969849 83.797492 
L 256.095535 83.797492 
L 256.128119 76.252673 
L 256.291019 76.252673 
L 256.291019 72.480264 
L 256.872996 72.480264 
L 256.887404 64.935446 
L 257.191799 64.935446 
L 257.191799 61.163036 
L 257.809404 61.163036 
L 257.856573 53.618218 
L 258.888784 53.618218 
L 258.888784 49.845809 
L 261.388446 49.845809 
L 261.388446 46.073399 
L 261.765652 46.073399 
L 261.765652 42.30099 
L 263.474426 42.30099 
L 263.474426 38.528581 
L 264.267877 38.528581 
L 264.267877 34.756172 
L 265.972337 34.756172 
L 265.972337 30.983762 
L 269.202183 30.983762 
L 269.202183 27.211353 
L 269.413405 27.211353 
L 269.413405 23.438944 
L 269.818067 23.438944 
L 269.818067 19.666535 
L 270.05689 19.666535 
L 270.05689 15.894125 
L 270.824381 15.894125 
L 270.824381 12.121716 
L 276.061074 12.121716 
L 276.061074 8.349307 
L 276.061074 8.349307 
L 450.672 8.349307 
L 450.672 8.349307 
" style="fill:none;stroke:#00bfbf;stroke-linecap:square;stroke-width:1.5;"/>
   </g>
   <g id="line2d_25">
    <path clip-path="url(#p89fd99875f)" d="M 218.656498 291.28 
L 218.656498 287.507591 
L 221.162006 287.507591 
L 221.162006 283.735182 
L 221.740922 283.735182 
L 221.740922 279.962772 
L 221.932133 279.962772 
L 221.932133 276.190363 
L 223.042792 276.190363 
L 223.042792 272.417954 
L 224.76138 272.417954 
L 224.815751 264.873135 
L 226.9599 264.873135 
L 226.9599 261.100726 
L 227.150581 261.100726 
L 227.150581 257.328317 
L 227.522802 257.328317 
L 227.522802 253.555908 
L 228.287782 253.555908 
L 228.287782 249.783498 
L 228.86481 249.783498 
L 228.86481 246.011089 
L 229.420182 246.011089 
L 229.494509 238.466271 
L 229.748296 238.466271 
L 229.748296 234.693861 
L 230.148501 234.693861 
L 230.148501 230.921452 
L 231.522113 230.921452 
L 231.522113 227.149043 
L 231.668757 227.149043 
L 231.668757 223.376634 
L 231.968196 223.376634 
L 231.968196 219.604224 
L 232.255608 219.604224 
L 232.339772 212.059406 
L 232.568124 212.059406 
L 232.568124 208.286997 
L 233.477851 208.286997 
L 233.477851 204.514587 
L 233.598968 204.514587 
L 233.670782 196.969769 
L 235.280535 196.969769 
L 235.280535 193.19736 
L 236.653063 193.19736 
L 236.653063 189.42495 
L 236.918356 189.42495 
L 236.918356 185.652541 
L 237.918407 185.652541 
L 237.918407 181.880132 
L 239.193889 181.880132 
L 239.193889 178.107723 
L 239.847907 178.107723 
L 239.847907 174.335314 
L 241.515328 174.335314 
L 241.515328 170.562904 
L 241.697818 170.562904 
L 241.697818 166.790495 
L 242.506134 166.790495 
L 242.51296 159.245677 
L 243.329503 159.245677 
L 243.370746 151.700858 
L 244.535708 151.700858 
L 244.535708 147.928449 
L 244.999366 147.928449 
L 245.077545 140.38363 
L 246.00199 140.38363 
L 246.00199 136.611221 
L 246.654217 136.611221 
L 246.654217 132.838812 
L 247.201611 132.838812 
L 247.299859 125.293993 
L 247.786104 125.293993 
L 247.786104 121.521584 
L 248.007756 121.521584 
L 248.007756 117.749175 
L 248.508474 117.749175 
L 248.508474 113.976766 
L 249.050279 113.976766 
L 249.050279 110.204356 
L 249.379119 110.204356 
L 249.379119 106.431947 
L 250.308425 106.431947 
L 250.308425 102.659538 
L 250.644993 102.659538 
L 250.644993 98.887129 
L 250.823376 98.887129 
L 250.823376 95.114719 
L 251.297106 95.114719 
L 251.297106 91.34231 
L 251.626479 91.34231 
L 251.626479 87.569901 
L 251.760589 87.569901 
L 251.760589 83.797492 
L 251.947195 83.797492 
L 251.947195 80.025083 
L 253.486401 80.025083 
L 253.486401 76.252673 
L 254.898374 76.252673 
L 254.97838 68.707855 
L 255.725134 68.707855 
L 255.725134 64.935446 
L 256.095535 64.935446 
L 256.128119 57.390627 
L 256.291019 57.390627 
L 256.291019 53.618218 
L 257.856573 53.618218 
L 257.856573 49.845809 
L 258.102801 49.845809 
L 258.102801 46.073399 
L 259.366014 46.073399 
L 259.366014 42.30099 
L 259.610319 42.30099 
L 259.610319 38.528581 
L 260.775576 38.528581 
L 260.775576 34.756172 
L 261.163256 34.756172 
L 261.163256 30.983762 
L 261.388446 30.983762 
L 261.388446 27.211353 
L 262.052536 27.211353 
L 262.052536 23.438944 
L 262.465916 23.438944 
L 262.465916 19.666535 
L 263.506852 19.666535 
L 263.506852 15.894125 
L 264.456817 15.894125 
L 264.456817 12.121716 
L 268.131185 12.121716 
L 268.131185 8.349307 
L 268.131185 8.349307 
L 450.672 8.349307 
L 450.672 8.349307 
" style="fill:none;stroke:#bf00bf;stroke-linecap:square;stroke-width:1.5;"/>
   </g>
   <g id="line2d_26">
    <path clip-path="url(#p89fd99875f)" d="M 215.57723 291.28 
L 215.57723 287.507591 
L 216.064044 287.507591 
L 216.064044 283.735182 
L 216.559819 283.735182 
L 216.559819 279.962772 
L 218.656498 279.962772 
L 218.656498 276.190363 
L 221.158839 276.190363 
L 221.162006 268.645545 
L 222.233676 268.645545 
L 222.233676 264.873135 
L 222.47835 264.873135 
L 222.47835 261.100726 
L 223.042792 261.100726 
L 223.042792 257.328317 
L 223.191139 257.328317 
L 223.191139 253.555908 
L 224.76138 253.555908 
L 224.811407 246.011089 
L 225.937866 246.011089 
L 225.987757 238.466271 
L 226.216622 238.466271 
L 226.216622 234.693861 
L 227.150581 234.693861 
L 227.150581 230.921452 
L 229.494509 230.921452 
L 229.523933 219.604224 
L 230.557161 219.604224 
L 230.557161 215.831815 
L 231.162421 215.831815 
L 231.162421 212.059406 
L 231.668757 212.059406 
L 231.668757 208.286997 
L 232.367826 208.286997 
L 232.367826 204.514587 
L 232.597319 204.514587 
L 232.597319 200.742178 
L 232.971635 200.742178 
L 232.971635 196.969769 
L 234.145768 196.969769 
L 234.145768 193.19736 
L 235.280535 193.19736 
L 235.280535 189.42495 
L 235.618434 189.42495 
L 235.618434 185.652541 
L 236.653063 185.652541 
L 236.653063 181.880132 
L 236.918356 181.880132 
L 236.918356 178.107723 
L 237.918407 178.107723 
L 237.918407 174.335314 
L 239.455972 174.335314 
L 239.557676 166.790495 
L 240.758139 166.790495 
L 240.758139 163.018086 
L 241.388921 163.018086 
L 241.388921 159.245677 
L 241.515328 159.245677 
L 241.60525 151.700858 
L 241.697818 151.700858 
L 241.697818 147.928449 
L 241.996561 147.928449 
L 241.996561 144.15604 
L 242.48471 144.15604 
L 242.506134 136.611221 
L 242.871358 136.611221 
L 242.871358 132.838812 
L 243.158488 132.838812 
L 243.158488 129.066403 
L 243.35516 129.066403 
L 243.35516 125.293993 
L 244.535708 125.293993 
L 244.535708 121.521584 
L 244.999366 121.521584 
L 244.999366 117.749175 
L 246.380135 117.749175 
L 246.380135 113.976766 
L 246.654217 113.976766 
L 246.654217 110.204356 
L 247.146367 110.204356 
L 247.146367 106.431947 
L 247.772601 106.431947 
L 247.786104 98.887129 
L 248.007756 98.887129 
L 248.0328 91.34231 
L 248.299654 91.34231 
L 248.299654 87.569901 
L 248.521424 87.569901 
L 248.521424 83.797492 
L 249.682948 83.797492 
L 249.682948 80.025083 
L 249.90519 80.025083 
L 249.90519 76.252673 
L 250.644993 76.252673 
L 250.644993 72.480264 
L 253.194228 72.480264 
L 253.283021 61.163036 
L 254.624862 61.163036 
L 254.628451 53.618218 
L 254.97838 53.618218 
L 254.97838 49.845809 
L 255.430236 49.845809 
L 255.430236 46.073399 
L 255.725134 46.073399 
L 255.725134 42.30099 
L 256.001388 42.30099 
L 256.001388 38.528581 
L 256.794601 38.528581 
L 256.864582 30.983762 
L 256.912305 30.983762 
L 256.912305 27.211353 
L 257.381967 27.211353 
L 257.381967 23.438944 
L 259.516526 23.438944 
L 259.516526 19.666535 
L 262.052536 19.666535 
L 262.052536 15.894125 
L 262.465916 15.894125 
L 262.465916 12.121716 
L 268.131185 12.121716 
L 268.131185 8.349307 
L 268.131185 8.349307 
L 450.672 8.349307 
L 450.672 8.349307 
" style="fill:none;stroke:#000000;stroke-linecap:square;stroke-width:1.5;"/>
   </g>
   <g id="line2d_27">
    <path clip-path="url(#p89fd99875f)" d="M 204.714701 291.28 
L 204.714701 287.507591 
L 206.679792 287.507591 
L 206.679792 283.735182 
L 210.634372 283.735182 
L 210.634372 279.962772 
L 211.58954 279.962772 
L 211.58954 276.190363 
L 214.242177 276.190363 
L 214.242177 272.417954 
L 215.57723 272.417954 
L 215.57723 268.645545 
L 216.064044 268.645545 
L 216.064044 264.873135 
L 216.559819 264.873135 
L 216.559819 261.100726 
L 217.803632 261.100726 
L 217.803632 257.328317 
L 221.009187 257.328317 
L 221.009187 253.555908 
L 221.158839 253.555908 
L 221.162006 246.011089 
L 221.409979 246.011089 
L 221.409979 242.23868 
L 222.12917 242.23868 
L 222.12917 238.466271 
L 223.042792 238.466271 
L 223.042792 234.693861 
L 224.373836 234.693861 
L 224.466443 227.149043 
L 224.76138 227.149043 
L 224.76138 223.376634 
L 225.193918 223.376634 
L 225.193918 219.604224 
L 229.192175 219.604224 
L 229.192175 215.831815 
L 229.496588 215.831815 
L 229.496588 212.059406 
L 229.83011 212.059406 
L 229.83011 208.286997 
L 229.988716 208.286997 
L 230.06561 200.742178 
L 230.574124 200.742178 
L 230.574124 196.969769 
L 231.71604 196.969769 
L 231.71604 193.19736 
L 232.036167 193.19736 
L 232.036167 189.42495 
L 232.559103 189.42495 
L 232.559103 185.652541 
L 233.909065 185.652541 
L 233.909065 181.880132 
L 234.112284 181.880132 
L 234.112284 178.107723 
L 234.656671 178.107723 
L 234.739106 166.790495 
L 234.874188 166.790495 
L 234.874188 163.018086 
L 235.29983 163.018086 
L 235.29983 159.245677 
L 235.584725 159.245677 
L 235.690755 151.700858 
L 236.918356 151.700858 
L 236.918356 147.928449 
L 237.189404 147.928449 
L 237.189404 144.15604 
L 237.871957 144.15604 
L 237.871957 140.38363 
L 239.557676 140.38363 
L 239.557676 136.611221 
L 239.813789 136.611221 
L 239.817514 129.066403 
L 240.758139 129.066403 
L 240.758139 125.293993 
L 241.034331 125.293993 
L 241.034331 121.521584 
L 241.697818 121.521584 
L 241.697818 117.749175 
L 242.268262 117.749175 
L 242.268262 113.976766 
L 244.075161 113.976766 
L 244.075161 110.204356 
L 244.259188 110.204356 
L 244.345201 102.659538 
L 244.535708 102.659538 
L 244.535708 98.887129 
L 244.734524 98.887129 
L 244.734524 95.114719 
L 245.664797 95.114719 
L 245.664797 91.34231 
L 245.911155 91.34231 
L 246.010404 83.797492 
L 246.368352 83.797492 
L 246.368352 80.025083 
L 247.199192 80.025083 
L 247.199192 76.252673 
L 247.772601 76.252673 
L 247.786104 68.707855 
L 248.984191 68.707855 
L 248.984191 64.935446 
L 250.901521 64.935446 
L 250.901521 61.163036 
L 252.393773 61.163036 
L 252.393773 57.390627 
L 253.091767 57.390627 
L 253.091767 53.618218 
L 253.280277 53.618218 
L 253.280277 49.845809 
L 254.212915 49.845809 
L 254.212915 46.073399 
L 254.351958 46.073399 
L 254.351958 42.30099 
L 254.624862 42.30099 
L 254.624862 38.528581 
L 254.756294 38.528581 
L 254.756294 34.756172 
L 254.97838 34.756172 
L 254.97838 30.983762 
L 256.001388 30.983762 
L 256.001388 27.211353 
L 256.864582 27.211353 
L 256.912305 15.894125 
L 261.866866 15.894125 
L 261.866866 12.121716 
L 264.90407 12.121716 
L 264.90407 8.349307 
L 264.90407 8.349307 
L 450.672 8.349307 
L 450.672 8.349307 
" style="fill:none;stroke:#00bfbf;stroke-linecap:square;stroke-width:1.5;"/>
   </g>
   <g id="line2d_28">
    <path clip-path="url(#p89fd99875f)" d="M 197.395083 291.28 
L 197.395083 287.507591 
L 203.548318 287.507591 
L 203.548318 283.735182 
L 204.213232 283.735182 
L 204.213232 279.962772 
L 204.881025 279.962772 
L 204.881025 276.190363 
L 206.022992 276.190363 
L 206.022992 272.417954 
L 206.585437 272.417954 
L 206.679792 264.873135 
L 207.968953 264.873135 
L 207.968953 261.100726 
L 208.195933 261.100726 
L 208.195933 257.328317 
L 208.576922 257.328317 
L 208.576922 253.555908 
L 210.043192 253.555908 
L 210.043192 249.783498 
L 210.332071 249.783498 
L 210.332071 246.011089 
L 210.578583 246.011089 
L 210.578583 242.23868 
L 211.176663 242.23868 
L 211.176663 238.466271 
L 212.865913 238.466271 
L 212.894324 230.921452 
L 213.029421 230.921452 
L 213.100782 223.376634 
L 213.621659 223.376634 
L 213.621659 219.604224 
L 216.396924 219.604224 
L 216.45878 212.059406 
L 216.538642 212.059406 
L 216.538642 208.286997 
L 217.820232 208.286997 
L 217.820232 204.514587 
L 219.524311 204.514587 
L 219.531957 196.969769 
L 219.67897 196.969769 
L 219.67897 193.19736 
L 220.825189 193.19736 
L 220.825189 189.42495 
L 221.558919 189.42495 
L 221.558919 185.652541 
L 222.392598 185.652541 
L 222.392598 181.880132 
L 222.514262 181.880132 
L 222.514262 178.107723 
L 222.626789 178.107723 
L 222.626789 174.335314 
L 226.181431 174.335314 
L 226.181431 170.562904 
L 229.230595 170.562904 
L 229.230595 166.790495 
L 229.487329 166.790495 
L 229.528534 159.245677 
L 229.623429 159.245677 
L 229.623429 155.473267 
L 230.106178 155.473267 
L 230.106178 151.700858 
L 230.305389 151.700858 
L 230.305389 147.928449 
L 230.518908 147.928449 
L 230.518908 144.15604 
L 230.86365 144.15604 
L 230.969824 136.611221 
L 231.229917 136.611221 
L 231.229917 132.838812 
L 231.71604 132.838812 
L 231.71604 129.066403 
L 231.890783 129.066403 
L 231.890783 125.293993 
L 232.016092 125.293993 
L 232.10913 117.749175 
L 232.227943 117.749175 
L 232.227943 113.976766 
L 233.008332 113.976766 
L 233.008332 110.204356 
L 233.420676 110.204356 
L 233.481668 102.659538 
L 234.314601 102.659538 
L 234.314601 98.887129 
L 234.428277 98.887129 
L 234.428277 95.114719 
L 234.601181 95.114719 
L 234.601181 91.34231 
L 235.269342 91.34231 
L 235.269342 87.569901 
L 235.654231 87.569901 
L 235.654231 83.797492 
L 237.065597 83.797492 
L 237.065597 80.025083 
L 237.334506 80.025083 
L 237.40134 68.707855 
L 238.171517 68.707855 
L 238.171517 64.935446 
L 239.207767 64.935446 
L 239.207767 61.163036 
L 243.107747 61.163036 
L 243.107747 57.390627 
L 244.057549 57.390627 
L 244.057549 53.618218 
L 245.398032 53.618218 
L 245.398032 49.845809 
L 247.11663 49.845809 
L 247.213309 42.30099 
L 248.463569 42.30099 
L 248.463569 38.528581 
L 248.796945 38.528581 
L 248.895717 27.211353 
L 249.541999 27.211353 
L 249.541999 23.438944 
L 249.706026 23.438944 
L 249.706026 19.666535 
L 250.749379 19.666535 
L 250.749379 15.894125 
L 250.971029 15.894125 
L 250.971029 12.121716 
L 251.864558 12.121716 
L 251.864558 8.349307 
L 251.864558 8.349307 
L 450.672 8.349307 
L 450.672 8.349307 
" style="fill:none;stroke:#bf00bf;stroke-linecap:square;stroke-width:1.5;"/>
   </g>
   <g id="line2d_29">
    <path clip-path="url(#p89fd99875f)" d="M 177.531603 291.28 
L 177.531603 287.507591 
L 177.983964 287.507591 
L 177.983964 283.735182 
L 179.265891 283.735182 
L 179.265891 279.962772 
L 180.670913 279.962772 
L 180.670913 276.190363 
L 181.004105 276.190363 
L 181.004105 272.417954 
L 181.873234 272.417954 
L 181.873234 268.645545 
L 181.99986 268.645545 
L 182.007792 261.100726 
L 182.693785 261.100726 
L 182.693785 257.328317 
L 184.041689 257.328317 
L 184.041689 253.555908 
L 185.127203 253.555908 
L 185.127203 249.783498 
L 185.75952 249.783498 
L 185.75952 246.011089 
L 186.177441 246.011089 
L 186.177441 242.23868 
L 186.671541 242.23868 
L 186.671541 238.466271 
L 187.941271 238.466271 
L 187.941271 234.693861 
L 188.773031 234.693861 
L 188.773031 230.921452 
L 190.201075 230.921452 
L 190.201075 227.149043 
L 190.911216 227.149043 
L 190.911216 223.376634 
L 191.245017 223.376634 
L 191.245017 219.604224 
L 191.746523 219.604224 
L 191.746523 215.831815 
L 191.941176 215.831815 
L 191.941176 212.059406 
L 194.12981 212.059406 
L 194.12981 208.286997 
L 194.531563 208.286997 
L 194.531563 204.514587 
L 194.872495 204.514587 
L 194.872495 200.742178 
L 195.550568 200.742178 
L 195.550568 196.969769 
L 196.354527 196.969769 
L 196.354527 193.19736 
L 196.516832 193.19736 
L 196.516832 189.42495 
L 198.344149 189.42495 
L 198.344149 185.652541 
L 198.901854 185.652541 
L 198.901854 181.880132 
L 199.118017 181.880132 
L 199.118017 178.107723 
L 199.347623 178.107723 
L 199.347623 174.335314 
L 199.719484 174.335314 
L 199.722716 166.790495 
L 199.914729 166.790495 
L 199.914729 163.018086 
L 200.138051 163.018086 
L 200.138051 159.245677 
L 201.187155 159.245677 
L 201.187155 155.473267 
L 201.344652 155.473267 
L 201.344652 151.700858 
L 201.514823 151.700858 
L 201.514823 147.928449 
L 201.926546 147.928449 
L 201.926546 144.15604 
L 202.11487 144.15604 
L 202.11487 140.38363 
L 202.297937 140.38363 
L 202.360632 132.838812 
L 203.01898 132.838812 
L 203.01898 129.066403 
L 205.13132 129.066403 
L 205.13132 125.293993 
L 205.671945 125.293993 
L 205.671945 121.521584 
L 206.487213 121.521584 
L 206.542847 113.976766 
L 207.116347 113.976766 
L 207.116347 110.204356 
L 209.232795 110.204356 
L 209.232795 106.431947 
L 214.138576 106.431947 
L 214.138576 102.659538 
L 214.36492 102.659538 
L 214.36492 98.887129 
L 215.595327 98.887129 
L 215.595327 95.114719 
L 216.672872 95.114719 
L 216.672872 91.34231 
L 216.889718 91.34231 
L 216.943026 83.797492 
L 218.91823 83.797492 
L 218.91823 80.025083 
L 220.706481 80.025083 
L 220.706481 76.252673 
L 221.811774 76.252673 
L 221.895463 68.707855 
L 224.392638 68.707855 
L 224.392638 64.935446 
L 225.297871 64.935446 
L 225.297871 61.163036 
L 225.491194 61.163036 
L 225.491194 57.390627 
L 225.672114 57.390627 
L 225.672114 53.618218 
L 227.570105 53.618218 
L 227.570105 49.845809 
L 227.991221 49.845809 
L 227.991221 46.073399 
L 228.276678 46.073399 
L 228.276678 42.30099 
L 228.740861 42.30099 
L 228.786767 34.756172 
L 229.765449 34.756172 
L 229.765449 30.983762 
L 230.256406 30.983762 
L 230.256406 27.211353 
L 231.791424 27.211353 
L 231.791424 23.438944 
L 232.477284 23.438944 
L 232.477284 19.666535 
L 232.80169 19.666535 
L 232.80169 15.894125 
L 233.299481 15.894125 
L 233.299481 12.121716 
L 234.081298 12.121716 
L 234.081298 8.349307 
L 234.081298 8.349307 
L 450.672 8.349307 
L 450.672 8.349307 
" style="fill:none;stroke:#000000;stroke-linecap:square;stroke-width:1.5;"/>
   </g>
   <g id="line2d_30">
    <path clip-path="url(#p89fd99875f)" d="M -1 230.921452 
L 5.410562 230.921452 
L 5.410562 185.652541 
L 17.603383 185.652541 
L 17.603383 181.880132 
L 41.621383 181.880132 
L 41.621383 178.107723 
L 49.433624 178.107723 
L 49.433624 174.335314 
L 67.583783 174.335314 
L 67.583783 170.562904 
L 100.073376 170.562904 
L 100.073376 166.790495 
L 113.703406 166.790495 
L 113.703406 163.018086 
L 114.051246 163.018086 
L 114.051246 159.245677 
L 114.334921 159.245677 
L 114.334921 155.473267 
L 126.332101 155.473267 
L 126.332101 151.700858 
L 126.512345 151.700858 
L 126.512345 147.928449 
L 132.282224 147.928449 
L 132.282224 144.15604 
L 132.73274 144.15604 
L 132.835836 136.611221 
L 139.777116 136.611221 
L 139.777116 132.838812 
L 146.22934 132.838812 
L 146.264111 125.293993 
L 146.707045 125.293993 
L 146.707045 121.521584 
L 151.9253 121.521584 
L 151.9253 117.749175 
L 153.01167 117.749175 
L 153.01167 113.976766 
L 158.586137 113.976766 
L 158.586137 110.204356 
L 165.555562 110.204356 
L 165.555562 106.431947 
L 166.386548 106.431947 
L 166.386548 102.659538 
L 174.351359 102.659538 
L 174.455063 95.114719 
L 179.274777 95.114719 
L 179.274777 91.34231 
L 179.696787 91.34231 
L 179.746012 83.797492 
L 180.143702 83.797492 
L 180.143702 80.025083 
L 181.360856 80.025083 
L 181.360856 76.252673 
L 182.579175 76.252673 
L 182.579175 72.480264 
L 185.962824 72.480264 
L 186.054922 64.935446 
L 186.507513 64.935446 
L 186.507513 61.163036 
L 187.180483 61.163036 
L 187.180483 57.390627 
L 195.146486 57.390627 
L 195.146486 53.618218 
L 207.954003 53.618218 
L 207.954003 19.666535 
L 215.577551 19.666535 
L 215.577551 12.121716 
L 220.037041 12.121716 
L 220.037041 8.349307 
L 220.037041 8.349307 
L 450.672 8.349307 
L 450.672 8.349307 
" style="fill:none;stroke:#00bfbf;stroke-linecap:square;stroke-width:1.5;"/>
   </g>
   <g id="line2d_31">
    <path clip-path="url(#p89fd99875f)" d="M -1 264.873135 
L 5.410562 264.873135 
L 5.410562 163.018086 
L 17.578782 163.018086 
L 17.578782 159.245677 
L 67.583738 159.245677 
L 67.583738 155.473267 
L 113.702478 155.473267 
L 113.702478 151.700858 
L 114.051139 151.700858 
L 114.051139 147.928449 
L 114.328454 147.928449 
L 114.328454 144.15604 
L 126.332101 144.15604 
L 126.332101 140.38363 
L 132.731413 140.38363 
L 132.731413 136.611221 
L 139.776335 136.611221 
L 139.776335 132.838812 
L 146.229075 132.838812 
L 146.263939 125.293993 
L 146.706009 125.293993 
L 146.706009 121.521584 
L 151.925232 121.521584 
L 151.925232 117.749175 
L 153.011603 117.749175 
L 153.011603 113.976766 
L 158.586137 113.976766 
L 158.586137 110.204356 
L 165.446674 110.204356 
L 165.446674 106.431947 
L 166.386125 106.431947 
L 166.386125 102.659538 
L 171.249273 102.659538 
L 171.249273 98.887129 
L 174.351246 98.887129 
L 174.455056 91.34231 
L 175.407325 91.34231 
L 175.407325 87.569901 
L 178.898093 87.569901 
L 178.898093 83.797492 
L 179.696786 83.797492 
L 179.696786 80.025083 
L 179.885522 80.025083 
L 179.885522 76.252673 
L 182.277751 76.252673 
L 182.277751 72.480264 
L 183.687448 72.480264 
L 183.687448 68.707855 
L 185.962824 68.707855 
L 185.962824 64.935446 
L 186.507513 64.935446 
L 186.507513 61.163036 
L 186.950002 61.163036 
L 186.950002 57.390627 
L 195.146486 57.390627 
L 195.146486 53.618218 
L 207.954003 53.618218 
L 207.954003 19.666535 
L 215.577551 19.666535 
L 215.577551 12.121716 
L 220.037041 12.121716 
L 220.037041 8.349307 
L 220.037041 8.349307 
L 450.672 8.349307 
L 450.672 8.349307 
" style="fill:none;stroke:#bf00bf;stroke-linecap:square;stroke-width:1.5;"/>
   </g>
   <g id="patch_3">
    <path d="M 5.52 291.28 
L 5.52 5.52 
" style="fill:none;stroke:#000000;stroke-linecap:square;stroke-linejoin:miter;stroke-width:0.8;"/>
   </g>
   <g id="patch_4">
    <path d="M 450.672 291.28 
L 450.672 5.52 
" style="fill:none;stroke:#000000;stroke-linecap:square;stroke-linejoin:miter;stroke-width:0.8;"/>
   </g>
   <g id="patch_5">
    <path d="M 5.52 291.28 
L 450.672 291.28 
" style="fill:none;stroke:#000000;stroke-linecap:square;stroke-linejoin:miter;stroke-width:0.8;"/>
   </g>
   <g id="patch_6">
    <path d="M 5.52 5.52 
L 450.672 5.52 
" style="fill:none;stroke:#000000;stroke-linecap:square;stroke-linejoin:miter;stroke-width:0.8;"/>
   </g>
   <g id="text_6">
    <!-- {f15-f19}, 5-D -->
    <defs>
     <path d="M 51.125 -9.28125 
L 51.125 -16.3125 
L 48.09375 -16.3125 
Q 35.9375 -16.3125 31.8125 -12.6875 
Q 27.6875 -9.078125 27.6875 1.703125 
L 27.6875 13.375 
Q 27.6875 20.75 25.046875 23.578125 
Q 22.40625 26.421875 15.484375 26.421875 
L 12.5 26.421875 
L 12.5 33.40625 
L 15.484375 33.40625 
Q 22.46875 33.40625 25.078125 36.203125 
Q 27.6875 39.015625 27.6875 46.296875 
L 27.6875 58.015625 
Q 27.6875 68.796875 31.8125 72.390625 
Q 35.9375 75.984375 48.09375 75.984375 
L 51.125 75.984375 
L 51.125 69 
L 47.796875 69 
Q 40.921875 69 38.8125 66.84375 
Q 36.71875 64.703125 36.71875 57.8125 
L 36.71875 45.703125 
Q 36.71875 38.03125 34.5 34.5625 
Q 32.28125 31.109375 26.90625 29.890625 
Q 32.328125 28.5625 34.515625 25.09375 
Q 36.71875 21.625 36.71875 14.015625 
L 36.71875 1.90625 
Q 36.71875 -4.984375 38.8125 -7.125 
Q 40.921875 -9.28125 47.796875 -9.28125 
z
" id="DejaVuSans-7b"/>
     <path d="M 10.796875 72.90625 
L 49.515625 72.90625 
L 49.515625 64.59375 
L 19.828125 64.59375 
L 19.828125 46.734375 
Q 21.96875 47.46875 24.109375 47.828125 
Q 26.265625 48.1875 28.421875 48.1875 
Q 40.625 48.1875 47.75 41.5 
Q 54.890625 34.8125 54.890625 23.390625 
Q 54.890625 11.625 47.5625 5.09375 
Q 40.234375 -1.421875 26.90625 -1.421875 
Q 22.3125 -1.421875 17.546875 -0.640625 
Q 12.796875 0.140625 7.71875 1.703125 
L 7.71875 11.625 
Q 12.109375 9.234375 16.796875 8.0625 
Q 21.484375 6.890625 26.703125 6.890625 
Q 35.15625 6.890625 40.078125 11.328125 
Q 45.015625 15.765625 45.015625 23.390625 
Q 45.015625 31 40.078125 35.4375 
Q 35.15625 39.890625 26.703125 39.890625 
Q 22.75 39.890625 18.8125 39.015625 
Q 14.890625 38.140625 10.796875 36.28125 
z
" id="DejaVuSans-35"/>
     <path d="M 10.984375 1.515625 
L 10.984375 10.5 
Q 14.703125 8.734375 18.5 7.8125 
Q 22.3125 6.890625 25.984375 6.890625 
Q 35.75 6.890625 40.890625 13.453125 
Q 46.046875 20.015625 46.78125 33.40625 
Q 43.953125 29.203125 39.59375 26.953125 
Q 35.25 24.703125 29.984375 24.703125 
Q 19.046875 24.703125 12.671875 31.3125 
Q 6.296875 37.9375 6.296875 49.421875 
Q 6.296875 60.640625 12.9375 67.421875 
Q 19.578125 74.21875 30.609375 74.21875 
Q 43.265625 74.21875 49.921875 64.515625 
Q 56.59375 54.828125 56.59375 36.375 
Q 56.59375 19.140625 48.40625 8.859375 
Q 40.234375 -1.421875 26.421875 -1.421875 
Q 22.703125 -1.421875 18.890625 -0.6875 
Q 15.09375 0.046875 10.984375 1.515625 
z
M 30.609375 32.421875 
Q 37.25 32.421875 41.125 36.953125 
Q 45.015625 41.5 45.015625 49.421875 
Q 45.015625 57.28125 41.125 61.84375 
Q 37.25 66.40625 30.609375 66.40625 
Q 23.96875 66.40625 20.09375 61.84375 
Q 16.21875 57.28125 16.21875 49.421875 
Q 16.21875 41.5 20.09375 36.953125 
Q 23.96875 32.421875 30.609375 32.421875 
z
" id="DejaVuSans-39"/>
     <path d="M 12.5 -9.28125 
L 15.921875 -9.28125 
Q 22.75 -9.28125 24.828125 -7.171875 
Q 26.90625 -5.078125 26.90625 1.90625 
L 26.90625 14.015625 
Q 26.90625 21.625 29.09375 25.09375 
Q 31.296875 28.5625 36.71875 29.890625 
Q 31.296875 31.109375 29.09375 34.5625 
Q 26.90625 38.03125 26.90625 45.703125 
L 26.90625 57.8125 
Q 26.90625 64.75 24.828125 66.875 
Q 22.75 69 15.921875 69 
L 12.5 69 
L 12.5 75.984375 
L 15.578125 75.984375 
Q 27.734375 75.984375 31.8125 72.390625 
Q 35.890625 68.796875 35.890625 58.015625 
L 35.890625 46.296875 
Q 35.890625 39.015625 38.515625 36.203125 
Q 41.15625 33.40625 48.09375 33.40625 
L 51.125 33.40625 
L 51.125 26.421875 
L 48.09375 26.421875 
Q 41.15625 26.421875 38.515625 23.578125 
Q 35.890625 20.75 35.890625 13.375 
L 35.890625 1.703125 
Q 35.890625 -9.078125 31.8125 -12.6875 
Q 27.734375 -16.3125 15.578125 -16.3125 
L 12.5 -16.3125 
z
" id="DejaVuSans-7d"/>
     <path d="M 11.71875 12.40625 
L 22.015625 12.40625 
L 22.015625 4 
L 14.015625 -11.625 
L 7.71875 -11.625 
L 11.71875 4 
z
" id="DejaVuSans-2c"/>
    </defs>
    <g transform="translate(296.06896 285.5648)scale(0.2 -0.2)">
     <use xlink:href="#DejaVuSans-7b"/>
     <use x="63.623047" xlink:href="#DejaVuSans-66"/>
     <use x="98.828125" xlink:href="#DejaVuSans-31"/>
     <use x="162.451172" xlink:href="#DejaVuSans-35"/>
     <use x="226.074219" xlink:href="#DejaVuSans-2d"/>
     <use x="262.158203" xlink:href="#DejaVuSans-66"/>
     <use x="297.363281" xlink:href="#DejaVuSans-31"/>
     <use x="360.986328" xlink:href="#DejaVuSans-39"/>
     <use x="424.609375" xlink:href="#DejaVuSans-7d"/>
     <use x="488.232422" xlink:href="#DejaVuSans-2c"/>
     <use x="520.019531" xlink:href="#DejaVuSans-20"/>
     <use x="551.806641" xlink:href="#DejaVuSans-35"/>
     <use x="615.429688" xlink:href="#DejaVuSans-2d"/>
     <use x="651.513672" xlink:href="#DejaVuSans-44"/>
    </g>
   </g>
   <g id="text_7">
    <!-- v0.0.0 -->
    <defs>
     <path d="M 2.984375 54.6875 
L 12.5 54.6875 
L 29.59375 8.796875 
L 46.6875 54.6875 
L 56.203125 54.6875 
L 35.6875 0 
L 23.484375 0 
z
" id="DejaVuSans-76"/>
     <path d="M 10.6875 12.40625 
L 21 12.40625 
L 21 0 
L 10.6875 0 
z
" id="DejaVuSans-2e"/>
    </defs>
    <g style="fill:#808080;" transform="translate(212.41475 286.342713)scale(0.1 -0.1)">
     <use xlink:href="#DejaVuSans-76"/>
     <use x="59.179688" xlink:href="#DejaVuSans-30"/>
     <use x="122.802734" xlink:href="#DejaVuSans-2e"/>
     <use x="154.589844" xlink:href="#DejaVuSans-30"/>
     <use x="218.212891" xlink:href="#DejaVuSans-2e"/>
     <use x="250" xlink:href="#DejaVuSans-30"/>
    </g>
   </g>
  </g>
 </g>
 <defs>
  <clipPath id="p89fd99875f">
   <rect height="285.76" width="445.152" x="5.52" y="5.52"/>
  </clipPath>
 </defs>
</svg>
