<?xml version="1.0" encoding="utf-8" standalone="no"?>
<!DOCTYPE svg PUBLIC "-//W3C//DTD SVG 1.1//EN"
  "http://www.w3.org/Graphics/SVG/1.1/DTD/svg11.dtd">
<!-- Created with matplotlib (http://matplotlib.org/) -->
<svg height="345.6pt" version="1.1" viewBox="0 0 460.8 345.6" width="460.8pt" xmlns="http://www.w3.org/2000/svg" xmlns:xlink="http://www.w3.org/1999/xlink">
 <defs>
  <style type="text/css">
*{stroke-linecap:butt;stroke-linejoin:round;}
  </style>
 </defs>
 <g id="figure_1">
  <g id="patch_1">
   <path d="M 0 345.6 
L 460.8 345.6 
L 460.8 0 
L 0 0 
z
" style="fill:#ffffff;"/>
  </g>
  <g id="axes_1">
   <g id="patch_2">
    <path d="M 5.52 291.28 
L 450.672 291.28 
L 450.672 5.52 
L 5.52 5.52 
z
" style="fill:#ffffff;"/>
   </g>
   <g id="matplotlib.axis_1">
    <g id="xtick_1">
     <g id="line2d_1">
      <path clip-path="url(#pa881bf83d0)" d="M 5.412019 291.28 
L 5.412019 5.52 
" style="fill:none;stroke:#b0b0b0;stroke-linecap:square;stroke-width:0.8;"/>
     </g>
     <g id="line2d_2">
      <defs>
       <path d="M 0 0 
L 0 3.5 
" id="m50b8cda1f2" style="stroke:#000000;stroke-width:0.8;"/>
      </defs>
      <g>
       <use style="stroke:#000000;stroke-width:0.8;" x="5.412019" xlink:href="#m50b8cda1f2" y="291.28"/>
      </g>
     </g>
    </g>
    <g id="xtick_2">
     <g id="line2d_3">
      <path clip-path="url(#pa881bf83d0)" d="M 105.362426 291.28 
L 105.362426 5.52 
" style="fill:none;stroke:#b0b0b0;stroke-linecap:square;stroke-width:0.8;"/>
     </g>
     <g id="line2d_4">
      <g>
       <use style="stroke:#000000;stroke-width:0.8;" x="105.362426" xlink:href="#m50b8cda1f2" y="291.28"/>
      </g>
     </g>
     <g id="text_1">
      <!-- -4 -->
      <defs>
       <path d="M 4.890625 31.390625 
L 31.203125 31.390625 
L 31.203125 23.390625 
L 4.890625 23.390625 
z
" id="DejaVuSans-2d"/>
       <path d="M 37.796875 64.3125 
L 12.890625 25.390625 
L 37.796875 25.390625 
z
M 35.203125 72.90625 
L 47.609375 72.90625 
L 47.609375 25.390625 
L 58.015625 25.390625 
L 58.015625 17.1875 
L 47.609375 17.1875 
L 47.609375 0 
L 37.796875 0 
L 37.796875 17.1875 
L 4.890625 17.1875 
L 4.890625 26.703125 
z
" id="DejaVuSans-34"/>
      </defs>
      <g transform="translate(95.392113 313.476875)scale(0.2 -0.2)">
       <use xlink:href="#DejaVuSans-2d"/>
       <use x="36.083984" xlink:href="#DejaVuSans-34"/>
      </g>
     </g>
    </g>
    <g id="xtick_3">
     <g id="line2d_5">
      <path clip-path="url(#pa881bf83d0)" d="M 205.312832 291.28 
L 205.312832 5.52 
" style="fill:none;stroke:#b0b0b0;stroke-linecap:square;stroke-width:0.8;"/>
     </g>
     <g id="line2d_6">
      <g>
       <use style="stroke:#000000;stroke-width:0.8;" x="205.312832" xlink:href="#m50b8cda1f2" y="291.28"/>
      </g>
     </g>
     <g id="text_2">
      <!-- 0 -->
      <defs>
       <path d="M 31.78125 66.40625 
Q 24.171875 66.40625 20.328125 58.90625 
Q 16.5 51.421875 16.5 36.375 
Q 16.5 21.390625 20.328125 13.890625 
Q 24.171875 6.390625 31.78125 6.390625 
Q 39.453125 6.390625 43.28125 13.890625 
Q 47.125 21.390625 47.125 36.375 
Q 47.125 51.421875 43.28125 58.90625 
Q 39.453125 66.40625 31.78125 66.40625 
z
M 31.78125 74.21875 
Q 44.046875 74.21875 50.515625 64.515625 
Q 56.984375 54.828125 56.984375 36.375 
Q 56.984375 17.96875 50.515625 8.265625 
Q 44.046875 -1.421875 31.78125 -1.421875 
Q 19.53125 -1.421875 13.0625 8.265625 
Q 6.59375 17.96875 6.59375 36.375 
Q 6.59375 54.828125 13.0625 64.515625 
Q 19.53125 74.21875 31.78125 74.21875 
z
" id="DejaVuSans-30"/>
      </defs>
      <g transform="translate(198.950332 313.476875)scale(0.2 -0.2)">
       <use xlink:href="#DejaVuSans-30"/>
      </g>
     </g>
    </g>
    <g id="xtick_4">
     <g id="line2d_7">
      <path clip-path="url(#pa881bf83d0)" d="M 305.263238 291.28 
L 305.263238 5.52 
" style="fill:none;stroke:#b0b0b0;stroke-linecap:square;stroke-width:0.8;"/>
     </g>
     <g id="line2d_8">
      <g>
       <use style="stroke:#000000;stroke-width:0.8;" x="305.263238" xlink:href="#m50b8cda1f2" y="291.28"/>
      </g>
     </g>
     <g id="text_3">
      <!-- 4 -->
      <g transform="translate(298.900738 313.476875)scale(0.2 -0.2)">
       <use xlink:href="#DejaVuSans-34"/>
      </g>
     </g>
    </g>
    <g id="xtick_5">
     <g id="line2d_9">
      <path clip-path="url(#pa881bf83d0)" d="M 405.213645 291.28 
L 405.213645 5.52 
" style="fill:none;stroke:#b0b0b0;stroke-linecap:square;stroke-width:0.8;"/>
     </g>
     <g id="line2d_10">
      <g>
       <use style="stroke:#000000;stroke-width:0.8;" x="405.213645" xlink:href="#m50b8cda1f2" y="291.28"/>
      </g>
     </g>
     <g id="text_4">
      <!-- 8 -->
      <defs>
       <path d="M 31.78125 34.625 
Q 24.75 34.625 20.71875 30.859375 
Q 16.703125 27.09375 16.703125 20.515625 
Q 16.703125 13.921875 20.71875 10.15625 
Q 24.75 6.390625 31.78125 6.390625 
Q 38.8125 6.390625 42.859375 10.171875 
Q 46.921875 13.96875 46.921875 20.515625 
Q 46.921875 27.09375 42.890625 30.859375 
Q 38.875 34.625 31.78125 34.625 
z
M 21.921875 38.8125 
Q 15.578125 40.375 12.03125 44.71875 
Q 8.5 49.078125 8.5 55.328125 
Q 8.5 64.0625 14.71875 69.140625 
Q 20.953125 74.21875 31.78125 74.21875 
Q 42.671875 74.21875 48.875 69.140625 
Q 55.078125 64.0625 55.078125 55.328125 
Q 55.078125 49.078125 51.53125 44.71875 
Q 48 40.375 41.703125 38.8125 
Q 48.828125 37.15625 52.796875 32.3125 
Q 56.78125 27.484375 56.78125 20.515625 
Q 56.78125 9.90625 50.3125 4.234375 
Q 43.84375 -1.421875 31.78125 -1.421875 
Q 19.734375 -1.421875 13.25 4.234375 
Q 6.78125 9.90625 6.78125 20.515625 
Q 6.78125 27.484375 10.78125 32.3125 
Q 14.796875 37.15625 21.921875 38.8125 
z
M 18.3125 54.390625 
Q 18.3125 48.734375 21.84375 45.5625 
Q 25.390625 42.390625 31.78125 42.390625 
Q 38.140625 42.390625 41.71875 45.5625 
Q 45.3125 48.734375 45.3125 54.390625 
Q 45.3125 60.0625 41.71875 63.234375 
Q 38.140625 66.40625 31.78125 66.40625 
Q 25.390625 66.40625 21.84375 63.234375 
Q 18.3125 60.0625 18.3125 54.390625 
z
" id="DejaVuSans-38"/>
      </defs>
      <g transform="translate(398.851145 313.476875)scale(0.2 -0.2)">
       <use xlink:href="#DejaVuSans-38"/>
      </g>
     </g>
    </g>
    <g id="text_5">
     <!-- log10 of Df -->
     <defs>
      <path d="M 9.421875 75.984375 
L 18.40625 75.984375 
L 18.40625 0 
L 9.421875 0 
z
" id="DejaVuSans-6c"/>
      <path d="M 30.609375 48.390625 
Q 23.390625 48.390625 19.1875 42.75 
Q 14.984375 37.109375 14.984375 27.296875 
Q 14.984375 17.484375 19.15625 11.84375 
Q 23.34375 6.203125 30.609375 6.203125 
Q 37.796875 6.203125 41.984375 11.859375 
Q 46.1875 17.53125 46.1875 27.296875 
Q 46.1875 37.015625 41.984375 42.703125 
Q 37.796875 48.390625 30.609375 48.390625 
z
M 30.609375 56 
Q 42.328125 56 49.015625 48.375 
Q 55.71875 40.765625 55.71875 27.296875 
Q 55.71875 13.875 49.015625 6.21875 
Q 42.328125 -1.421875 30.609375 -1.421875 
Q 18.84375 -1.421875 12.171875 6.21875 
Q 5.515625 13.875 5.515625 27.296875 
Q 5.515625 40.765625 12.171875 48.375 
Q 18.84375 56 30.609375 56 
z
" id="DejaVuSans-6f"/>
      <path d="M 45.40625 27.984375 
Q 45.40625 37.75 41.375 43.109375 
Q 37.359375 48.484375 30.078125 48.484375 
Q 22.859375 48.484375 18.828125 43.109375 
Q 14.796875 37.75 14.796875 27.984375 
Q 14.796875 18.265625 18.828125 12.890625 
Q 22.859375 7.515625 30.078125 7.515625 
Q 37.359375 7.515625 41.375 12.890625 
Q 45.40625 18.265625 45.40625 27.984375 
z
M 54.390625 6.78125 
Q 54.390625 -7.171875 48.1875 -13.984375 
Q 42 -20.796875 29.203125 -20.796875 
Q 24.46875 -20.796875 20.265625 -20.09375 
Q 16.0625 -19.390625 12.109375 -17.921875 
L 12.109375 -9.1875 
Q 16.0625 -11.328125 19.921875 -12.34375 
Q 23.78125 -13.375 27.78125 -13.375 
Q 36.625 -13.375 41.015625 -8.765625 
Q 45.40625 -4.15625 45.40625 5.171875 
L 45.40625 9.625 
Q 42.625 4.78125 38.28125 2.390625 
Q 33.9375 0 27.875 0 
Q 17.828125 0 11.671875 7.65625 
Q 5.515625 15.328125 5.515625 27.984375 
Q 5.515625 40.671875 11.671875 48.328125 
Q 17.828125 56 27.875 56 
Q 33.9375 56 38.28125 53.609375 
Q 42.625 51.21875 45.40625 46.390625 
L 45.40625 54.6875 
L 54.390625 54.6875 
z
" id="DejaVuSans-67"/>
      <path d="M 12.40625 8.296875 
L 28.515625 8.296875 
L 28.515625 63.921875 
L 10.984375 60.40625 
L 10.984375 69.390625 
L 28.421875 72.90625 
L 38.28125 72.90625 
L 38.28125 8.296875 
L 54.390625 8.296875 
L 54.390625 0 
L 12.40625 0 
z
" id="DejaVuSans-31"/>
      <path id="DejaVuSans-20"/>
      <path d="M 37.109375 75.984375 
L 37.109375 68.5 
L 28.515625 68.5 
Q 23.6875 68.5 21.796875 66.546875 
Q 19.921875 64.59375 19.921875 59.515625 
L 19.921875 54.6875 
L 34.71875 54.6875 
L 34.71875 47.703125 
L 19.921875 47.703125 
L 19.921875 0 
L 10.890625 0 
L 10.890625 47.703125 
L 2.296875 47.703125 
L 2.296875 54.6875 
L 10.890625 54.6875 
L 10.890625 58.5 
Q 10.890625 67.625 15.140625 71.796875 
Q 19.390625 75.984375 28.609375 75.984375 
z
" id="DejaVuSans-66"/>
      <path d="M 19.671875 64.796875 
L 19.671875 8.109375 
L 31.59375 8.109375 
Q 46.6875 8.109375 53.6875 14.9375 
Q 60.6875 21.78125 60.6875 36.53125 
Q 60.6875 51.171875 53.6875 57.984375 
Q 46.6875 64.796875 31.59375 64.796875 
z
M 9.8125 72.90625 
L 30.078125 72.90625 
Q 51.265625 72.90625 61.171875 64.09375 
Q 71.09375 55.28125 71.09375 36.53125 
Q 71.09375 17.671875 61.125 8.828125 
Q 51.171875 0 30.078125 0 
L 9.8125 0 
z
" id="DejaVuSans-44"/>
     </defs>
     <g transform="translate(172.910063 336.833125)scale(0.2 -0.2)">
      <use xlink:href="#DejaVuSans-6c"/>
      <use x="27.783203" xlink:href="#DejaVuSans-6f"/>
      <use x="88.964844" xlink:href="#DejaVuSans-67"/>
      <use x="152.441406" xlink:href="#DejaVuSans-31"/>
      <use x="216.064453" xlink:href="#DejaVuSans-30"/>
      <use x="279.6875" xlink:href="#DejaVuSans-20"/>
      <use x="311.474609" xlink:href="#DejaVuSans-6f"/>
      <use x="372.65625" xlink:href="#DejaVuSans-66"/>
      <use x="407.861328" xlink:href="#DejaVuSans-20"/>
      <use x="439.648438" xlink:href="#DejaVuSans-44"/>
      <use x="516.650391" xlink:href="#DejaVuSans-66"/>
     </g>
    </g>
   </g>
   <g id="matplotlib.axis_2">
    <g id="ytick_1">
     <g id="line2d_11">
      <path clip-path="url(#pa881bf83d0)" d="M 5.52 291.28 
L 450.672 291.28 
" style="fill:none;stroke:#b0b0b0;stroke-linecap:square;stroke-width:0.8;"/>
     </g>
     <g id="line2d_12">
      <defs>
       <path d="M 0 0 
L -3.5 0 
" id="m9dd73cc278" style="stroke:#000000;stroke-width:0.8;"/>
      </defs>
      <g>
       <use style="stroke:#000000;stroke-width:0.8;" x="5.52" xlink:href="#m9dd73cc278" y="291.28"/>
      </g>
     </g>
    </g>
    <g id="ytick_2">
     <g id="line2d_13">
      <path clip-path="url(#pa881bf83d0)" d="M 5.52 234.693861 
L 450.672 234.693861 
" style="fill:none;stroke:#b0b0b0;stroke-linecap:square;stroke-width:0.8;"/>
     </g>
     <g id="line2d_14">
      <g>
       <use style="stroke:#000000;stroke-width:0.8;" x="5.52" xlink:href="#m9dd73cc278" y="234.693861"/>
      </g>
     </g>
    </g>
    <g id="ytick_3">
     <g id="line2d_15">
      <path clip-path="url(#pa881bf83d0)" d="M 5.52 178.107723 
L 450.672 178.107723 
" style="fill:none;stroke:#b0b0b0;stroke-linecap:square;stroke-width:0.8;"/>
     </g>
     <g id="line2d_16">
      <g>
       <use style="stroke:#000000;stroke-width:0.8;" x="5.52" xlink:href="#m9dd73cc278" y="178.107723"/>
      </g>
     </g>
    </g>
    <g id="ytick_4">
     <g id="line2d_17">
      <path clip-path="url(#pa881bf83d0)" d="M 5.52 121.521584 
L 450.672 121.521584 
" style="fill:none;stroke:#b0b0b0;stroke-linecap:square;stroke-width:0.8;"/>
     </g>
     <g id="line2d_18">
      <g>
       <use style="stroke:#000000;stroke-width:0.8;" x="5.52" xlink:href="#m9dd73cc278" y="121.521584"/>
      </g>
     </g>
    </g>
    <g id="ytick_5">
     <g id="line2d_19">
      <path clip-path="url(#pa881bf83d0)" d="M 5.52 64.935446 
L 450.672 64.935446 
" style="fill:none;stroke:#b0b0b0;stroke-linecap:square;stroke-width:0.8;"/>
     </g>
     <g id="line2d_20">
      <g>
       <use style="stroke:#000000;stroke-width:0.8;" x="5.52" xlink:href="#m9dd73cc278" y="64.935446"/>
      </g>
     </g>
    </g>
    <g id="ytick_6">
     <g id="line2d_21">
      <path clip-path="url(#pa881bf83d0)" d="M 5.52 8.349307 
L 450.672 8.349307 
" style="fill:none;stroke:#b0b0b0;stroke-linecap:square;stroke-width:0.8;"/>
     </g>
     <g id="line2d_22">
      <g>
       <use style="stroke:#000000;stroke-width:0.8;" x="5.52" xlink:href="#m9dd73cc278" y="8.349307"/>
      </g>
     </g>
    </g>
   </g>
   <g id="line2d_23">
    <path clip-path="url(#pa881bf83d0)" d="M 5.412019 291.28 
L 5.412019 178.107723 
L 222.723573 178.107723 
L 222.723573 174.335314 
L 224.702123 174.335314 
L 224.702123 166.790495 
L 226.374963 166.790495 
L 226.374963 159.245677 
L 227.824042 159.245677 
L 227.824042 151.700858 
L 229.102215 151.700858 
L 229.102221 144.15604 
L 230.245586 144.15604 
L 230.245586 140.38363 
L 231.27989 140.38363 
L 231.27989 136.611221 
L 232.224136 136.611221 
L 232.224136 132.838812 
L 233.896972 132.838812 
L 233.89698 125.293993 
L 234.645686 125.293993 
L 234.645689 110.204356 
L 235.346053 110.204356 
L 235.346056 98.887129 
L 237.210972 98.887129 
L 237.210972 95.114719 
L 237.7676 95.114719 
L 237.767606 87.569901 
L 238.297073 87.569901 
L 238.297073 83.797492 
L 238.801908 83.797492 
L 238.801908 80.025083 
L 239.284295 80.025083 
L 239.284297 68.707855 
L 240.614773 68.707855 
L 240.614773 64.935446 
L 252.223365 64.935446 
L 252.223365 61.163036 
L 256.803301 61.163036 
L 256.803301 57.390627 
L 257.289822 57.390627 
L 257.289822 53.618218 
L 258.625459 53.618218 
L 258.625459 49.845809 
L 258.863927 49.845809 
L 258.863927 46.073399 
L 260.151834 46.073399 
L 260.151834 42.30099 
L 261.486998 42.30099 
L 261.486998 38.528581 
L 261.838509 38.528581 
L 261.838509 34.756172 
L 263.130002 34.756172 
L 263.130002 30.983762 
L 264.248407 30.983762 
L 264.248407 27.211353 
L 266.355427 27.211353 
L 266.355427 23.438944 
L 266.6856 23.438944 
L 266.6856 19.666535 
L 269.499179 19.666535 
L 269.562426 12.121716 
L 274.41192 12.121716 
L 274.41192 8.349307 
L 274.41192 8.349307 
L 450.672 8.349307 
L 450.672 8.349307 
" style="fill:none;stroke:#ff0000;stroke-linecap:square;stroke-width:3;"/>
   </g>
   <g id="line2d_24">
    <path clip-path="url(#pa881bf83d0)" d="M 251.297561 291.28 
L 251.297561 287.507591 
L 251.490012 287.507591 
L 251.490012 283.735182 
L 252.584726 283.735182 
L 252.605556 276.190363 
L 252.69978 276.190363 
L 252.69978 272.417954 
L 254.311576 272.417954 
L 254.311576 268.645545 
L 254.748379 268.645545 
L 254.748379 264.873135 
L 254.903613 264.873135 
L 254.903613 261.100726 
L 255.314904 261.100726 
L 255.314904 257.328317 
L 255.643267 257.328317 
L 255.643267 253.555908 
L 256.179982 253.555908 
L 256.179982 249.783498 
L 256.584767 249.783498 
L 256.649121 242.23868 
L 256.881518 242.23868 
L 256.881518 238.466271 
L 257.905322 238.466271 
L 257.905322 234.693861 
L 268.798565 234.693861 
L 268.837303 227.149043 
L 269.046614 227.149043 
L 269.046614 223.376634 
L 269.280423 223.376634 
L 269.32219 215.831815 
L 269.393344 215.831815 
L 269.396114 208.286997 
L 269.5585 208.286997 
L 269.649637 193.19736 
L 269.740729 193.19736 
L 269.740729 189.42495 
L 269.896823 189.42495 
L 269.990147 178.107723 
L 271.641523 178.107723 
L 271.641523 174.335314 
L 272.199601 174.335314 
L 272.199601 170.562904 
L 272.793015 170.562904 
L 272.90279 163.018086 
L 273.115259 163.018086 
L 273.115259 159.245677 
L 273.268644 159.245677 
L 273.268644 155.473267 
L 274.006478 155.473267 
L 274.006478 151.700858 
L 274.190942 151.700858 
L 274.291091 140.38363 
L 274.40356 140.38363 
L 274.40356 136.611221 
L 274.558045 136.611221 
L 274.587385 129.066403 
L 274.6797 129.066403 
L 274.769723 121.521584 
L 275.07194 121.521584 
L 275.081751 113.976766 
L 275.356277 113.976766 
L 275.356277 110.204356 
L 275.783551 110.204356 
L 275.783551 106.431947 
L 275.947736 106.431947 
L 275.964928 95.114719 
L 276.096832 95.114719 
L 276.096832 91.34231 
L 276.337619 91.34231 
L 276.337619 87.569901 
L 276.509472 87.569901 
L 276.509472 83.797492 
L 277.310415 83.797492 
L 277.310415 80.025083 
L 277.585092 80.025083 
L 277.585092 76.252673 
L 278.703307 76.252673 
L 278.703307 72.480264 
L 279.343743 72.480264 
L 279.343743 68.707855 
L 280.195066 68.707855 
L 280.195066 64.935446 
L 366.482249 64.935446 
L 366.482249 61.163036 
L 368.310338 61.163036 
L 368.310338 57.390627 
L 369.738633 57.390627 
L 369.738633 53.618218 
L 370.665967 53.618218 
L 370.665967 49.845809 
L 370.900588 49.845809 
L 370.904566 42.30099 
L 371.56621 42.30099 
L 371.56621 38.528581 
L 371.827189 38.528581 
L 371.827189 34.756172 
L 372.277482 34.756172 
L 372.303408 27.211353 
L 374.257032 27.211353 
L 374.257032 23.438944 
L 374.536919 23.438944 
L 374.536919 19.666535 
L 374.93347 19.666535 
L 374.93347 15.894125 
L 382.134425 15.894125 
L 382.134425 12.121716 
L 384.666543 12.121716 
L 384.666543 8.349307 
L 384.666543 8.349307 
L 450.672 8.349307 
L 450.672 8.349307 
" style="fill:none;stroke:#00bfbf;stroke-linecap:square;stroke-width:1.5;"/>
   </g>
   <g id="line2d_25">
    <path clip-path="url(#pa881bf83d0)" d="M 250.863472 291.28 
L 250.863472 287.507591 
L 251.297561 287.507591 
L 251.297561 283.735182 
L 251.490012 283.735182 
L 251.490012 279.962772 
L 251.941357 279.962772 
L 251.941357 276.190363 
L 252.335104 276.190363 
L 252.335104 272.417954 
L 252.605556 272.417954 
L 252.69978 264.873135 
L 254.277481 264.873135 
L 254.277481 261.100726 
L 254.748379 261.100726 
L 254.748379 257.328317 
L 254.903613 257.328317 
L 254.903613 253.555908 
L 255.866836 253.555908 
L 255.866836 249.783498 
L 256.584767 249.783498 
L 256.649121 242.23868 
L 256.881518 242.23868 
L 256.881518 238.466271 
L 257.725069 238.466271 
L 257.725069 234.693861 
L 268.537254 234.693861 
L 268.573631 227.149043 
L 268.715232 227.149043 
L 268.798565 219.604224 
L 268.837303 219.604224 
L 268.837303 215.831815 
L 268.961742 215.831815 
L 268.961742 212.059406 
L 269.134602 212.059406 
L 269.171703 204.514587 
L 269.258365 204.514587 
L 269.366311 189.42495 
L 269.448967 189.42495 
L 269.532513 181.880132 
L 269.649637 181.880132 
L 269.649637 178.107723 
L 271.641523 178.107723 
L 271.641523 174.335314 
L 272.114771 174.335314 
L 272.199601 166.790495 
L 272.31179 166.790495 
L 272.31179 163.018086 
L 272.770515 163.018086 
L 272.793015 155.473267 
L 273.120698 155.473267 
L 273.120698 151.700858 
L 273.268644 151.700858 
L 273.268644 147.928449 
L 273.651651 147.928449 
L 273.651651 144.15604 
L 273.889255 144.15604 
L 273.889255 140.38363 
L 274.050506 140.38363 
L 274.133251 132.838812 
L 274.222676 132.838812 
L 274.222676 129.066403 
L 274.40356 129.066403 
L 274.40356 125.293993 
L 274.587385 125.293993 
L 274.587385 121.521584 
L 274.716456 121.521584 
L 274.796862 110.204356 
L 275.07194 110.204356 
L 275.159449 102.659538 
L 275.246438 102.659538 
L 275.246438 98.887129 
L 275.47617 98.887129 
L 275.47617 95.114719 
L 275.957771 95.114719 
L 275.964928 87.569901 
L 276.096832 87.569901 
L 276.096832 83.797492 
L 276.280959 83.797492 
L 276.280959 80.025083 
L 276.619901 80.025083 
L 276.619901 76.252673 
L 277.210921 76.252673 
L 277.210921 72.480264 
L 277.585092 72.480264 
L 277.585092 68.707855 
L 278.429657 68.707855 
L 278.429657 64.935446 
L 362.618535 64.935446 
L 362.618535 61.163036 
L 363.118208 61.163036 
L 363.118208 57.390627 
L 366.385606 57.390627 
L 366.385606 53.618218 
L 366.511667 53.618218 
L 366.511667 49.845809 
L 368.310338 49.845809 
L 368.310338 46.073399 
L 369.459695 46.073399 
L 369.459695 42.30099 
L 370.665967 42.30099 
L 370.665967 38.528581 
L 370.900588 38.528581 
L 370.900588 34.756172 
L 371.166483 34.756172 
L 371.166483 30.983762 
L 371.50915 30.983762 
L 371.50915 27.211353 
L 372.303408 27.211353 
L 372.303408 23.438944 
L 374.257032 23.438944 
L 374.257032 19.666535 
L 374.93347 19.666535 
L 374.93347 15.894125 
L 381.563865 15.894125 
L 381.563865 12.121716 
L 382.414516 12.121716 
L 382.414516 8.349307 
L 382.414516 8.349307 
L 450.672 8.349307 
L 450.672 8.349307 
" style="fill:none;stroke:#bf00bf;stroke-linecap:square;stroke-width:1.5;"/>
   </g>
   <g id="line2d_26">
    <path clip-path="url(#pa881bf83d0)" d="M 249.649117 291.28 
L 249.649117 287.507591 
L 250.863472 287.507591 
L 250.863472 283.735182 
L 251.297561 283.735182 
L 251.297561 279.962772 
L 251.725275 279.962772 
L 251.725275 276.190363 
L 252.335104 276.190363 
L 252.335104 272.417954 
L 252.605556 272.417954 
L 252.69978 264.873135 
L 252.741357 264.873135 
L 252.741357 261.100726 
L 253.924051 261.100726 
L 253.924051 257.328317 
L 254.433743 257.328317 
L 254.433743 253.555908 
L 254.837709 253.555908 
L 254.860917 246.011089 
L 255.788166 246.011089 
L 255.789986 238.466271 
L 257.448602 238.466271 
L 257.448602 234.693861 
L 268.404 234.693861 
L 268.407362 227.149043 
L 268.537254 227.149043 
L 268.639095 215.831815 
L 268.715232 215.831815 
L 268.824028 204.514587 
L 268.837303 204.514587 
L 268.935371 193.19736 
L 268.961742 193.19736 
L 269.010391 185.652541 
L 269.088581 185.652541 
L 269.088581 181.880132 
L 269.24317 181.880132 
L 269.336387 174.335314 
L 271.109221 174.335314 
L 271.109221 170.562904 
L 271.641523 170.562904 
L 271.641523 166.790495 
L 272.000433 166.790495 
L 272.049129 159.245677 
L 272.114771 159.245677 
L 272.199601 151.700858 
L 272.519882 151.700858 
L 272.568742 144.15604 
L 272.990985 144.15604 
L 272.990985 140.38363 
L 273.268644 140.38363 
L 273.359353 132.838812 
L 273.440272 132.838812 
L 273.440272 129.066403 
L 273.701755 129.066403 
L 273.701755 125.293993 
L 273.889255 125.293993 
L 273.948895 113.976766 
L 274.008182 113.976766 
L 274.008182 110.204356 
L 274.231568 110.204356 
L 274.231568 106.431947 
L 274.990527 106.431947 
L 275.093337 95.114719 
L 275.159449 95.114719 
L 275.159449 91.34231 
L 275.382138 91.34231 
L 275.382138 87.569901 
L 275.72043 87.569901 
L 275.798405 80.025083 
L 275.957771 80.025083 
L 276.059183 68.707855 
L 277.210921 68.707855 
L 277.210921 64.935446 
L 362.044836 64.935446 
L 362.110719 57.390627 
L 362.618535 57.390627 
L 362.618535 53.618218 
L 363.118208 53.618218 
L 363.118208 49.845809 
L 363.564129 49.845809 
L 363.564129 46.073399 
L 367.599153 46.073399 
L 367.599153 42.30099 
L 369.476712 42.30099 
L 369.476712 38.528581 
L 370.665967 38.528581 
L 370.665967 34.756172 
L 370.827157 34.756172 
L 370.900588 27.211353 
L 372.303408 27.211353 
L 372.303408 23.438944 
L 372.56041 23.438944 
L 372.56041 19.666535 
L 372.977278 19.666535 
L 372.977278 15.894125 
L 378.394736 15.894125 
L 378.394736 12.121716 
L 379.25278 12.121716 
L 379.25278 8.349307 
L 379.25278 8.349307 
L 450.672 8.349307 
L 450.672 8.349307 
" style="fill:none;stroke:#000000;stroke-linecap:square;stroke-width:1.5;"/>
   </g>
   <g id="line2d_27">
    <path clip-path="url(#pa881bf83d0)" d="M 245.582712 291.28 
L 245.582712 287.507591 
L 246.585982 287.507591 
L 246.585982 283.735182 
L 247.794614 283.735182 
L 247.858759 276.190363 
L 249.032066 276.190363 
L 249.142901 264.873135 
L 249.485612 264.873135 
L 249.485612 261.100726 
L 249.605672 261.100726 
L 249.605672 257.328317 
L 249.972638 257.328317 
L 249.972638 253.555908 
L 250.751326 253.555908 
L 250.751326 249.783498 
L 251.34956 249.783498 
L 251.34956 246.011089 
L 251.649902 246.011089 
L 251.649902 242.23868 
L 253.851086 242.23868 
L 253.851086 238.466271 
L 254.381232 238.466271 
L 254.381232 234.693861 
L 266.258072 234.693861 
L 266.258072 230.921452 
L 266.585867 230.921452 
L 266.585867 227.149043 
L 266.923544 227.149043 
L 266.944008 219.604224 
L 267.091254 219.604224 
L 267.091254 215.831815 
L 267.254212 215.831815 
L 267.341569 204.514587 
L 267.386665 204.514587 
L 267.391998 196.969769 
L 267.563251 196.969769 
L 267.666066 185.652541 
L 267.9303 185.652541 
L 267.937264 178.107723 
L 268.055659 178.107723 
L 268.055659 174.335314 
L 268.586479 174.335314 
L 268.586479 170.562904 
L 269.633764 170.562904 
L 269.633764 166.790495 
L 269.80757 166.790495 
L 269.80757 163.018086 
L 270.025371 163.018086 
L 270.025371 159.245677 
L 270.556821 159.245677 
L 270.556821 155.473267 
L 270.848111 155.473267 
L 270.850952 147.928449 
L 271.005001 147.928449 
L 271.092694 140.38363 
L 271.183205 140.38363 
L 271.183205 136.611221 
L 271.328017 136.611221 
L 271.328017 132.838812 
L 271.539762 132.838812 
L 271.539762 129.066403 
L 272.079455 129.066403 
L 272.079455 125.293993 
L 272.236674 125.293993 
L 272.314454 98.887129 
L 272.399814 98.887129 
L 272.399814 95.114719 
L 273.064923 95.114719 
L 273.088426 87.569901 
L 273.254636 87.569901 
L 273.254636 83.797492 
L 273.417366 83.797492 
L 273.417366 80.025083 
L 273.540408 80.025083 
L 273.540408 76.252673 
L 273.72509 76.252673 
L 273.72509 72.480264 
L 273.874738 72.480264 
L 273.874738 68.707855 
L 274.014158 68.707855 
L 274.014158 64.935446 
L 351.687791 64.935446 
L 351.687791 61.163036 
L 352.249617 61.163036 
L 352.249617 57.390627 
L 354.116969 57.390627 
L 354.116969 53.618218 
L 354.929466 53.618218 
L 354.929466 49.845809 
L 356.233754 49.845809 
L 356.233754 46.073399 
L 357.646258 46.073399 
L 357.646258 42.30099 
L 358.181814 42.30099 
L 358.181814 38.528581 
L 360.876729 38.528581 
L 360.876729 34.756172 
L 361.433776 34.756172 
L 361.433776 30.983762 
L 362.09051 30.983762 
L 362.09051 27.211353 
L 363.738619 27.211353 
L 363.738619 23.438944 
L 365.787886 23.438944 
L 365.787886 19.666535 
L 366.101836 19.666535 
L 366.101836 15.894125 
L 366.355197 15.894125 
L 366.355197 12.121716 
L 366.696664 12.121716 
L 366.696664 8.349307 
L 366.696664 8.349307 
L 450.672 8.349307 
L 450.672 8.349307 
" style="fill:none;stroke:#00bfbf;stroke-linecap:square;stroke-width:1.5;"/>
   </g>
   <g id="line2d_28">
    <path clip-path="url(#pa881bf83d0)" d="M 5.412019 291.28 
L 5.412019 234.693861 
L 224.382333 234.693861 
L 224.382333 230.921452 
L 226.235055 230.921452 
L 226.235055 227.149043 
L 227.288002 227.149043 
L 227.288002 223.376634 
L 231.384802 223.376634 
L 231.384802 219.604224 
L 232.249723 219.604224 
L 232.249723 215.831815 
L 232.67552 215.831815 
L 232.67552 212.059406 
L 234.586402 212.059406 
L 234.586402 208.286997 
L 236.406866 208.286997 
L 236.406866 204.514587 
L 236.909741 204.514587 
L 236.909741 200.742178 
L 237.120587 200.742178 
L 237.120587 196.969769 
L 237.708496 196.969769 
L 237.708496 193.19736 
L 238.037503 193.19736 
L 238.037503 189.42495 
L 238.601654 189.42495 
L 238.612157 181.880132 
L 239.977615 181.880132 
L 239.977615 178.107723 
L 262.771189 178.107723 
L 262.771189 174.335314 
L 263.260631 174.335314 
L 263.260631 170.562904 
L 263.464846 170.562904 
L 263.464846 166.790495 
L 263.825596 166.790495 
L 263.844254 159.245677 
L 264.629926 159.245677 
L 264.629926 155.473267 
L 264.835427 155.473267 
L 264.90217 144.15604 
L 265.07697 144.15604 
L 265.087265 136.611221 
L 265.32158 136.611221 
L 265.373911 129.066403 
L 265.529613 129.066403 
L 265.540924 121.521584 
L 265.833401 121.521584 
L 265.833401 117.749175 
L 266.068004 117.749175 
L 266.068004 113.976766 
L 266.329132 113.976766 
L 266.339906 106.431947 
L 266.480082 106.431947 
L 266.589595 91.34231 
L 266.726455 91.34231 
L 266.726455 87.569901 
L 266.914169 87.569901 
L 266.914169 83.797492 
L 267.352322 83.797492 
L 267.352322 80.025083 
L 267.802564 80.025083 
L 267.802564 76.252673 
L 268.11501 76.252673 
L 268.11501 72.480264 
L 269.144883 72.480264 
L 269.144883 68.707855 
L 269.30886 68.707855 
L 269.30886 64.935446 
L 330.587968 64.935446 
L 330.587968 61.163036 
L 334.543206 61.163036 
L 334.543206 57.390627 
L 334.775003 57.390627 
L 334.775003 53.618218 
L 338.695371 53.618218 
L 338.695371 49.845809 
L 339.056992 49.845809 
L 339.056992 46.073399 
L 339.908708 46.073399 
L 339.908708 42.30099 
L 341.126134 42.30099 
L 341.126134 38.528581 
L 341.754079 38.528581 
L 341.754079 34.756172 
L 344.397642 34.756172 
L 344.397642 30.983762 
L 345.348544 30.983762 
L 345.348544 27.211353 
L 345.543362 27.211353 
L 345.543362 23.438944 
L 345.864568 23.438944 
L 345.864568 19.666535 
L 347.259676 19.666535 
L 347.259676 15.894125 
L 347.457724 15.894125 
L 347.457724 12.121716 
L 349.435795 12.121716 
L 349.435795 8.349307 
L 349.435795 8.349307 
L 450.672 8.349307 
L 450.672 8.349307 
" style="fill:none;stroke:#bf00bf;stroke-linecap:square;stroke-width:1.5;"/>
   </g>
   <g id="line2d_29">
    <path clip-path="url(#pa881bf83d0)" d="M -1 287.507591 
L 4.53936 287.507591 
L 4.53936 283.735182 
L 4.668044 283.735182 
L 4.668044 279.962772 
L 5.412019 279.962772 
L 5.412019 223.376634 
L 9.326949 223.376634 
L 9.326949 219.604224 
L 10.284675 219.604224 
L 10.284675 215.831815 
L 10.806042 215.831815 
L 10.806042 212.059406 
L 13.581015 212.059406 
L 13.581015 208.286997 
L 13.718228 208.286997 
L 13.718228 204.514587 
L 22.805179 204.514587 
L 22.805179 200.742178 
L 24.522207 200.742178 
L 24.522207 196.969769 
L 24.943001 196.969769 
L 24.943001 193.19736 
L 25.738477 193.19736 
L 25.738477 189.42495 
L 26.449115 189.42495 
L 26.449115 185.652541 
L 29.534553 185.652541 
L 29.534553 181.880132 
L 30.980149 181.880132 
L 30.980149 178.107723 
L 222.914396 178.107723 
L 222.914396 174.335314 
L 224.715701 174.335314 
L 224.715701 170.562904 
L 224.856222 170.562904 
L 224.856222 166.790495 
L 227.240254 166.790495 
L 227.240254 163.018086 
L 228.678104 163.018086 
L 228.678104 159.245677 
L 230.172075 159.245677 
L 230.172075 155.473267 
L 230.397646 155.473267 
L 230.397646 151.700858 
L 231.080985 151.700858 
L 231.080985 147.928449 
L 232.68902 147.928449 
L 232.71409 140.38363 
L 234.044171 140.38363 
L 234.044171 136.611221 
L 234.681186 136.611221 
L 234.720827 129.066403 
L 235.041796 129.066403 
L 235.041796 125.293993 
L 235.370465 125.293993 
L 235.401808 113.976766 
L 235.865899 113.976766 
L 235.865899 110.204356 
L 236.060693 110.204356 
L 236.060693 106.431947 
L 236.505315 106.431947 
L 236.505315 102.659538 
L 237.796471 102.659538 
L 237.845982 91.34231 
L 238.344428 91.34231 
L 238.344428 87.569901 
L 238.873164 87.569901 
L 238.873164 83.797492 
L 239.292059 83.797492 
L 239.292059 80.025083 
L 239.435787 80.025083 
L 239.435787 76.252673 
L 240.026821 76.252673 
L 240.026821 72.480264 
L 240.759156 72.480264 
L 240.759156 68.707855 
L 254.948762 68.707855 
L 254.948762 64.935446 
L 289.706109 64.935446 
L 289.706109 61.163036 
L 300.685885 61.163036 
L 300.685885 57.390627 
L 302.700166 57.390627 
L 302.700166 53.618218 
L 303.865665 53.618218 
L 303.942882 46.073399 
L 305.424805 46.073399 
L 305.424805 42.30099 
L 307.961055 42.30099 
L 307.961055 38.528581 
L 308.96218 38.528581 
L 309.027177 30.983762 
L 310.237435 30.983762 
L 310.287569 23.438944 
L 310.832311 23.438944 
L 310.876649 15.894125 
L 312.846865 15.894125 
L 312.846865 12.121716 
L 317.043224 12.121716 
L 317.043224 8.349307 
L 317.043224 8.349307 
L 450.672 8.349307 
L 450.672 8.349307 
" style="fill:none;stroke:#000000;stroke-linecap:square;stroke-width:1.5;"/>
   </g>
   <g id="line2d_30">
    <path clip-path="url(#pa881bf83d0)" d="M 5.412019 291.28 
L 5.412019 178.107723 
L 222.723573 178.107723 
L 222.723573 174.335314 
L 224.702123 174.335314 
L 224.702123 166.790495 
L 226.374963 166.790495 
L 226.374963 159.245677 
L 227.824042 159.245677 
L 227.824042 151.700858 
L 229.102215 151.700858 
L 229.102221 144.15604 
L 230.245586 144.15604 
L 230.245586 140.38363 
L 231.27989 140.38363 
L 231.27989 136.611221 
L 232.224136 136.611221 
L 232.224136 132.838812 
L 233.896972 132.838812 
L 233.89698 125.293993 
L 234.645686 125.293993 
L 234.645689 110.204356 
L 235.346053 110.204356 
L 235.346056 98.887129 
L 237.210972 98.887129 
L 237.210972 95.114719 
L 237.7676 95.114719 
L 237.767606 87.569901 
L 238.297073 87.569901 
L 238.297073 83.797492 
L 238.801908 83.797492 
L 238.801908 80.025083 
L 239.284295 80.025083 
L 239.284297 68.707855 
L 240.614773 68.707855 
L 240.614773 64.935446 
L 267.098545 64.935446 
L 267.098545 61.163036 
L 271.775938 61.163036 
L 271.775938 57.390627 
L 273.760537 57.390627 
L 273.760537 53.618218 
L 275.485255 53.618218 
L 275.485255 49.845809 
L 278.319831 49.845809 
L 278.319831 46.073399 
L 278.52276 46.073399 
L 278.52276 42.30099 
L 279.502419 42.30099 
L 279.502419 38.528581 
L 280.315418 38.528581 
L 280.315418 34.756172 
L 282.245836 34.756172 
L 282.245836 30.983762 
L 284.223661 30.983762 
L 284.223661 27.211353 
L 285.106272 27.211353 
L 285.106272 23.438944 
L 285.5106 23.438944 
L 285.5106 19.666535 
L 286.04095 19.666535 
L 286.04095 15.894125 
L 287.891956 15.894125 
L 287.891956 12.121716 
L 290.415349 12.121716 
L 290.415349 8.349307 
L 290.415349 8.349307 
L 450.672 8.349307 
L 450.672 8.349307 
" style="fill:none;stroke:#00bfbf;stroke-linecap:square;stroke-width:1.5;"/>
   </g>
   <g id="patch_3">
    <path d="M 5.52 291.28 
L 5.52 5.52 
" style="fill:none;stroke:#000000;stroke-linecap:square;stroke-linejoin:miter;stroke-width:0.8;"/>
   </g>
   <g id="patch_4">
    <path d="M 450.672 291.28 
L 450.672 5.52 
" style="fill:none;stroke:#000000;stroke-linecap:square;stroke-linejoin:miter;stroke-width:0.8;"/>
   </g>
   <g id="patch_5">
    <path d="M 5.52 291.28 
L 450.672 291.28 
" style="fill:none;stroke:#000000;stroke-linecap:square;stroke-linejoin:miter;stroke-width:0.8;"/>
   </g>
   <g id="patch_6">
    <path d="M 5.52 5.52 
L 450.672 5.52 
" style="fill:none;stroke:#000000;stroke-linecap:square;stroke-linejoin:miter;stroke-width:0.8;"/>
   </g>
   <g id="text_6">
    <!-- {f1-f5}, 20-D -->
    <defs>
     <path d="M 51.125 -9.28125 
L 51.125 -16.3125 
L 48.09375 -16.3125 
Q 35.9375 -16.3125 31.8125 -12.6875 
Q 27.6875 -9.078125 27.6875 1.703125 
L 27.6875 13.375 
Q 27.6875 20.75 25.046875 23.578125 
Q 22.40625 26.421875 15.484375 26.421875 
L 12.5 26.421875 
L 12.5 33.40625 
L 15.484375 33.40625 
Q 22.46875 33.40625 25.078125 36.203125 
Q 27.6875 39.015625 27.6875 46.296875 
L 27.6875 58.015625 
Q 27.6875 68.796875 31.8125 72.390625 
Q 35.9375 75.984375 48.09375 75.984375 
L 51.125 75.984375 
L 51.125 69 
L 47.796875 69 
Q 40.921875 69 38.8125 66.84375 
Q 36.71875 64.703125 36.71875 57.8125 
L 36.71875 45.703125 
Q 36.71875 38.03125 34.5 34.5625 
Q 32.28125 31.109375 26.90625 29.890625 
Q 32.328125 28.5625 34.515625 25.09375 
Q 36.71875 21.625 36.71875 14.015625 
L 36.71875 1.90625 
Q 36.71875 -4.984375 38.8125 -7.125 
Q 40.921875 -9.28125 47.796875 -9.28125 
z
" id="DejaVuSans-7b"/>
     <path d="M 10.796875 72.90625 
L 49.515625 72.90625 
L 49.515625 64.59375 
L 19.828125 64.59375 
L 19.828125 46.734375 
Q 21.96875 47.46875 24.109375 47.828125 
Q 26.265625 48.1875 28.421875 48.1875 
Q 40.625 48.1875 47.75 41.5 
Q 54.890625 34.8125 54.890625 23.390625 
Q 54.890625 11.625 47.5625 5.09375 
Q 40.234375 -1.421875 26.90625 -1.421875 
Q 22.3125 -1.421875 17.546875 -0.640625 
Q 12.796875 0.140625 7.71875 1.703125 
L 7.71875 11.625 
Q 12.109375 9.234375 16.796875 8.0625 
Q 21.484375 6.890625 26.703125 6.890625 
Q 35.15625 6.890625 40.078125 11.328125 
Q 45.015625 15.765625 45.015625 23.390625 
Q 45.015625 31 40.078125 35.4375 
Q 35.15625 39.890625 26.703125 39.890625 
Q 22.75 39.890625 18.8125 39.015625 
Q 14.890625 38.140625 10.796875 36.28125 
z
" id="DejaVuSans-35"/>
     <path d="M 12.5 -9.28125 
L 15.921875 -9.28125 
Q 22.75 -9.28125 24.828125 -7.171875 
Q 26.90625 -5.078125 26.90625 1.90625 
L 26.90625 14.015625 
Q 26.90625 21.625 29.09375 25.09375 
Q 31.296875 28.5625 36.71875 29.890625 
Q 31.296875 31.109375 29.09375 34.5625 
Q 26.90625 38.03125 26.90625 45.703125 
L 26.90625 57.8125 
Q 26.90625 64.75 24.828125 66.875 
Q 22.75 69 15.921875 69 
L 12.5 69 
L 12.5 75.984375 
L 15.578125 75.984375 
Q 27.734375 75.984375 31.8125 72.390625 
Q 35.890625 68.796875 35.890625 58.015625 
L 35.890625 46.296875 
Q 35.890625 39.015625 38.515625 36.203125 
Q 41.15625 33.40625 48.09375 33.40625 
L 51.125 33.40625 
L 51.125 26.421875 
L 48.09375 26.421875 
Q 41.15625 26.421875 38.515625 23.578125 
Q 35.890625 20.75 35.890625 13.375 
L 35.890625 1.703125 
Q 35.890625 -9.078125 31.8125 -12.6875 
Q 27.734375 -16.3125 15.578125 -16.3125 
L 12.5 -16.3125 
z
" id="DejaVuSans-7d"/>
     <path d="M 11.71875 12.40625 
L 22.015625 12.40625 
L 22.015625 4 
L 14.015625 -11.625 
L 7.71875 -11.625 
L 11.71875 4 
z
" id="DejaVuSans-2c"/>
     <path d="M 19.1875 8.296875 
L 53.609375 8.296875 
L 53.609375 0 
L 7.328125 0 
L 7.328125 8.296875 
Q 12.9375 14.109375 22.625 23.890625 
Q 32.328125 33.6875 34.8125 36.53125 
Q 39.546875 41.84375 41.421875 45.53125 
Q 43.3125 49.21875 43.3125 52.78125 
Q 43.3125 58.59375 39.234375 62.25 
Q 35.15625 65.921875 28.609375 65.921875 
Q 23.96875 65.921875 18.8125 64.3125 
Q 13.671875 62.703125 7.8125 59.421875 
L 7.8125 69.390625 
Q 13.765625 71.78125 18.9375 73 
Q 24.125 74.21875 28.421875 74.21875 
Q 39.75 74.21875 46.484375 68.546875 
Q 53.21875 62.890625 53.21875 53.421875 
Q 53.21875 48.921875 51.53125 44.890625 
Q 49.859375 40.875 45.40625 35.40625 
Q 44.1875 33.984375 37.640625 27.21875 
Q 31.109375 20.453125 19.1875 8.296875 
z
" id="DejaVuSans-32"/>
    </defs>
    <g transform="translate(308.79396 285.5648)scale(0.2 -0.2)">
     <use xlink:href="#DejaVuSans-7b"/>
     <use x="63.623047" xlink:href="#DejaVuSans-66"/>
     <use x="98.828125" xlink:href="#DejaVuSans-31"/>
     <use x="162.451172" xlink:href="#DejaVuSans-2d"/>
     <use x="198.535156" xlink:href="#DejaVuSans-66"/>
     <use x="233.740234" xlink:href="#DejaVuSans-35"/>
     <use x="297.363281" xlink:href="#DejaVuSans-7d"/>
     <use x="360.986328" xlink:href="#DejaVuSans-2c"/>
     <use x="392.773438" xlink:href="#DejaVuSans-20"/>
     <use x="424.560547" xlink:href="#DejaVuSans-32"/>
     <use x="488.183594" xlink:href="#DejaVuSans-30"/>
     <use x="551.806641" xlink:href="#DejaVuSans-2d"/>
     <use x="587.890625" xlink:href="#DejaVuSans-44"/>
    </g>
   </g>
   <g id="text_7">
    <!-- v0.0.0 -->
    <defs>
     <path d="M 2.984375 54.6875 
L 12.5 54.6875 
L 29.59375 8.796875 
L 46.6875 54.6875 
L 56.203125 54.6875 
L 35.6875 0 
L 23.484375 0 
z
" id="DejaVuSans-76"/>
     <path d="M 10.6875 12.40625 
L 21 12.40625 
L 21 0 
L 10.6875 0 
z
" id="DejaVuSans-2e"/>
    </defs>
    <g style="fill:#808080;" transform="translate(212.41475 286.342713)scale(0.1 -0.1)">
     <use xlink:href="#DejaVuSans-76"/>
     <use x="59.179688" xlink:href="#DejaVuSans-30"/>
     <use x="122.802734" xlink:href="#DejaVuSans-2e"/>
     <use x="154.589844" xlink:href="#DejaVuSans-30"/>
     <use x="218.212891" xlink:href="#DejaVuSans-2e"/>
     <use x="250" xlink:href="#DejaVuSans-30"/>
    </g>
   </g>
  </g>
 </g>
 <defs>
  <clipPath id="pa881bf83d0">
   <rect height="285.76" width="445.152" x="5.52" y="5.52"/>
  </clipPath>
 </defs>
</svg>
