<?xml version="1.0" encoding="utf-8" standalone="no"?>
<!DOCTYPE svg PUBLIC "-//W3C//DTD SVG 1.1//EN"
  "http://www.w3.org/Graphics/SVG/1.1/DTD/svg11.dtd">
<!-- Created with matplotlib (http://matplotlib.org/) -->
<svg height="345.6pt" version="1.1" viewBox="0 0 460.8 345.6" width="460.8pt" xmlns="http://www.w3.org/2000/svg" xmlns:xlink="http://www.w3.org/1999/xlink">
 <defs>
  <style type="text/css">
*{stroke-linecap:butt;stroke-linejoin:round;}
  </style>
 </defs>
 <g id="figure_1">
  <g id="patch_1">
   <path d="M 0 345.6 
L 460.8 345.6 
L 460.8 0 
L 0 0 
z
" style="fill:#ffffff;"/>
  </g>
  <g id="axes_1">
   <g id="patch_2">
    <path d="M 5.52 291.28 
L 450.672 291.28 
L 450.672 5.52 
L 5.52 5.52 
z
" style="fill:#ffffff;"/>
   </g>
   <g id="matplotlib.axis_1">
    <g id="xtick_1">
     <g id="line2d_1">
      <path clip-path="url(#p642859f8c4)" d="M 5.412019 291.28 
L 5.412019 5.52 
" style="fill:none;stroke:#b0b0b0;stroke-linecap:square;stroke-width:0.8;"/>
     </g>
     <g id="line2d_2">
      <defs>
       <path d="M 0 0 
L 0 3.5 
" id="m8ac4422cdc" style="stroke:#000000;stroke-width:0.8;"/>
      </defs>
      <g>
       <use style="stroke:#000000;stroke-width:0.8;" x="5.412019" xlink:href="#m8ac4422cdc" y="291.28"/>
      </g>
     </g>
    </g>
    <g id="xtick_2">
     <g id="line2d_3">
      <path clip-path="url(#p642859f8c4)" d="M 105.362426 291.28 
L 105.362426 5.52 
" style="fill:none;stroke:#b0b0b0;stroke-linecap:square;stroke-width:0.8;"/>
     </g>
     <g id="line2d_4">
      <g>
       <use style="stroke:#000000;stroke-width:0.8;" x="105.362426" xlink:href="#m8ac4422cdc" y="291.28"/>
      </g>
     </g>
     <g id="text_1">
      <!-- -4 -->
      <defs>
       <path d="M 4.890625 31.390625 
L 31.203125 31.390625 
L 31.203125 23.390625 
L 4.890625 23.390625 
z
" id="DejaVuSans-2d"/>
       <path d="M 37.796875 64.3125 
L 12.890625 25.390625 
L 37.796875 25.390625 
z
M 35.203125 72.90625 
L 47.609375 72.90625 
L 47.609375 25.390625 
L 58.015625 25.390625 
L 58.015625 17.1875 
L 47.609375 17.1875 
L 47.609375 0 
L 37.796875 0 
L 37.796875 17.1875 
L 4.890625 17.1875 
L 4.890625 26.703125 
z
" id="DejaVuSans-34"/>
      </defs>
      <g transform="translate(95.392113 313.476875)scale(0.2 -0.2)">
       <use xlink:href="#DejaVuSans-2d"/>
       <use x="36.083984" xlink:href="#DejaVuSans-34"/>
      </g>
     </g>
    </g>
    <g id="xtick_3">
     <g id="line2d_5">
      <path clip-path="url(#p642859f8c4)" d="M 205.312832 291.28 
L 205.312832 5.52 
" style="fill:none;stroke:#b0b0b0;stroke-linecap:square;stroke-width:0.8;"/>
     </g>
     <g id="line2d_6">
      <g>
       <use style="stroke:#000000;stroke-width:0.8;" x="205.312832" xlink:href="#m8ac4422cdc" y="291.28"/>
      </g>
     </g>
     <g id="text_2">
      <!-- 0 -->
      <defs>
       <path d="M 31.78125 66.40625 
Q 24.171875 66.40625 20.328125 58.90625 
Q 16.5 51.421875 16.5 36.375 
Q 16.5 21.390625 20.328125 13.890625 
Q 24.171875 6.390625 31.78125 6.390625 
Q 39.453125 6.390625 43.28125 13.890625 
Q 47.125 21.390625 47.125 36.375 
Q 47.125 51.421875 43.28125 58.90625 
Q 39.453125 66.40625 31.78125 66.40625 
z
M 31.78125 74.21875 
Q 44.046875 74.21875 50.515625 64.515625 
Q 56.984375 54.828125 56.984375 36.375 
Q 56.984375 17.96875 50.515625 8.265625 
Q 44.046875 -1.421875 31.78125 -1.421875 
Q 19.53125 -1.421875 13.0625 8.265625 
Q 6.59375 17.96875 6.59375 36.375 
Q 6.59375 54.828125 13.0625 64.515625 
Q 19.53125 74.21875 31.78125 74.21875 
z
" id="DejaVuSans-30"/>
      </defs>
      <g transform="translate(198.950332 313.476875)scale(0.2 -0.2)">
       <use xlink:href="#DejaVuSans-30"/>
      </g>
     </g>
    </g>
    <g id="xtick_4">
     <g id="line2d_7">
      <path clip-path="url(#p642859f8c4)" d="M 305.263238 291.28 
L 305.263238 5.52 
" style="fill:none;stroke:#b0b0b0;stroke-linecap:square;stroke-width:0.8;"/>
     </g>
     <g id="line2d_8">
      <g>
       <use style="stroke:#000000;stroke-width:0.8;" x="305.263238" xlink:href="#m8ac4422cdc" y="291.28"/>
      </g>
     </g>
     <g id="text_3">
      <!-- 4 -->
      <g transform="translate(298.900738 313.476875)scale(0.2 -0.2)">
       <use xlink:href="#DejaVuSans-34"/>
      </g>
     </g>
    </g>
    <g id="xtick_5">
     <g id="line2d_9">
      <path clip-path="url(#p642859f8c4)" d="M 405.213645 291.28 
L 405.213645 5.52 
" style="fill:none;stroke:#b0b0b0;stroke-linecap:square;stroke-width:0.8;"/>
     </g>
     <g id="line2d_10">
      <g>
       <use style="stroke:#000000;stroke-width:0.8;" x="405.213645" xlink:href="#m8ac4422cdc" y="291.28"/>
      </g>
     </g>
     <g id="text_4">
      <!-- 8 -->
      <defs>
       <path d="M 31.78125 34.625 
Q 24.75 34.625 20.71875 30.859375 
Q 16.703125 27.09375 16.703125 20.515625 
Q 16.703125 13.921875 20.71875 10.15625 
Q 24.75 6.390625 31.78125 6.390625 
Q 38.8125 6.390625 42.859375 10.171875 
Q 46.921875 13.96875 46.921875 20.515625 
Q 46.921875 27.09375 42.890625 30.859375 
Q 38.875 34.625 31.78125 34.625 
z
M 21.921875 38.8125 
Q 15.578125 40.375 12.03125 44.71875 
Q 8.5 49.078125 8.5 55.328125 
Q 8.5 64.0625 14.71875 69.140625 
Q 20.953125 74.21875 31.78125 74.21875 
Q 42.671875 74.21875 48.875 69.140625 
Q 55.078125 64.0625 55.078125 55.328125 
Q 55.078125 49.078125 51.53125 44.71875 
Q 48 40.375 41.703125 38.8125 
Q 48.828125 37.15625 52.796875 32.3125 
Q 56.78125 27.484375 56.78125 20.515625 
Q 56.78125 9.90625 50.3125 4.234375 
Q 43.84375 -1.421875 31.78125 -1.421875 
Q 19.734375 -1.421875 13.25 4.234375 
Q 6.78125 9.90625 6.78125 20.515625 
Q 6.78125 27.484375 10.78125 32.3125 
Q 14.796875 37.15625 21.921875 38.8125 
z
M 18.3125 54.390625 
Q 18.3125 48.734375 21.84375 45.5625 
Q 25.390625 42.390625 31.78125 42.390625 
Q 38.140625 42.390625 41.71875 45.5625 
Q 45.3125 48.734375 45.3125 54.390625 
Q 45.3125 60.0625 41.71875 63.234375 
Q 38.140625 66.40625 31.78125 66.40625 
Q 25.390625 66.40625 21.84375 63.234375 
Q 18.3125 60.0625 18.3125 54.390625 
z
" id="DejaVuSans-38"/>
      </defs>
      <g transform="translate(398.851145 313.476875)scale(0.2 -0.2)">
       <use xlink:href="#DejaVuSans-38"/>
      </g>
     </g>
    </g>
    <g id="text_5">
     <!-- log10 of Df -->
     <defs>
      <path d="M 9.421875 75.984375 
L 18.40625 75.984375 
L 18.40625 0 
L 9.421875 0 
z
" id="DejaVuSans-6c"/>
      <path d="M 30.609375 48.390625 
Q 23.390625 48.390625 19.1875 42.75 
Q 14.984375 37.109375 14.984375 27.296875 
Q 14.984375 17.484375 19.15625 11.84375 
Q 23.34375 6.203125 30.609375 6.203125 
Q 37.796875 6.203125 41.984375 11.859375 
Q 46.1875 17.53125 46.1875 27.296875 
Q 46.1875 37.015625 41.984375 42.703125 
Q 37.796875 48.390625 30.609375 48.390625 
z
M 30.609375 56 
Q 42.328125 56 49.015625 48.375 
Q 55.71875 40.765625 55.71875 27.296875 
Q 55.71875 13.875 49.015625 6.21875 
Q 42.328125 -1.421875 30.609375 -1.421875 
Q 18.84375 -1.421875 12.171875 6.21875 
Q 5.515625 13.875 5.515625 27.296875 
Q 5.515625 40.765625 12.171875 48.375 
Q 18.84375 56 30.609375 56 
z
" id="DejaVuSans-6f"/>
      <path d="M 45.40625 27.984375 
Q 45.40625 37.75 41.375 43.109375 
Q 37.359375 48.484375 30.078125 48.484375 
Q 22.859375 48.484375 18.828125 43.109375 
Q 14.796875 37.75 14.796875 27.984375 
Q 14.796875 18.265625 18.828125 12.890625 
Q 22.859375 7.515625 30.078125 7.515625 
Q 37.359375 7.515625 41.375 12.890625 
Q 45.40625 18.265625 45.40625 27.984375 
z
M 54.390625 6.78125 
Q 54.390625 -7.171875 48.1875 -13.984375 
Q 42 -20.796875 29.203125 -20.796875 
Q 24.46875 -20.796875 20.265625 -20.09375 
Q 16.0625 -19.390625 12.109375 -17.921875 
L 12.109375 -9.1875 
Q 16.0625 -11.328125 19.921875 -12.34375 
Q 23.78125 -13.375 27.78125 -13.375 
Q 36.625 -13.375 41.015625 -8.765625 
Q 45.40625 -4.15625 45.40625 5.171875 
L 45.40625 9.625 
Q 42.625 4.78125 38.28125 2.390625 
Q 33.9375 0 27.875 0 
Q 17.828125 0 11.671875 7.65625 
Q 5.515625 15.328125 5.515625 27.984375 
Q 5.515625 40.671875 11.671875 48.328125 
Q 17.828125 56 27.875 56 
Q 33.9375 56 38.28125 53.609375 
Q 42.625 51.21875 45.40625 46.390625 
L 45.40625 54.6875 
L 54.390625 54.6875 
z
" id="DejaVuSans-67"/>
      <path d="M 12.40625 8.296875 
L 28.515625 8.296875 
L 28.515625 63.921875 
L 10.984375 60.40625 
L 10.984375 69.390625 
L 28.421875 72.90625 
L 38.28125 72.90625 
L 38.28125 8.296875 
L 54.390625 8.296875 
L 54.390625 0 
L 12.40625 0 
z
" id="DejaVuSans-31"/>
      <path id="DejaVuSans-20"/>
      <path d="M 37.109375 75.984375 
L 37.109375 68.5 
L 28.515625 68.5 
Q 23.6875 68.5 21.796875 66.546875 
Q 19.921875 64.59375 19.921875 59.515625 
L 19.921875 54.6875 
L 34.71875 54.6875 
L 34.71875 47.703125 
L 19.921875 47.703125 
L 19.921875 0 
L 10.890625 0 
L 10.890625 47.703125 
L 2.296875 47.703125 
L 2.296875 54.6875 
L 10.890625 54.6875 
L 10.890625 58.5 
Q 10.890625 67.625 15.140625 71.796875 
Q 19.390625 75.984375 28.609375 75.984375 
z
" id="DejaVuSans-66"/>
      <path d="M 19.671875 64.796875 
L 19.671875 8.109375 
L 31.59375 8.109375 
Q 46.6875 8.109375 53.6875 14.9375 
Q 60.6875 21.78125 60.6875 36.53125 
Q 60.6875 51.171875 53.6875 57.984375 
Q 46.6875 64.796875 31.59375 64.796875 
z
M 9.8125 72.90625 
L 30.078125 72.90625 
Q 51.265625 72.90625 61.171875 64.09375 
Q 71.09375 55.28125 71.09375 36.53125 
Q 71.09375 17.671875 61.125 8.828125 
Q 51.171875 0 30.078125 0 
L 9.8125 0 
z
" id="DejaVuSans-44"/>
     </defs>
     <g transform="translate(172.910063 336.833125)scale(0.2 -0.2)">
      <use xlink:href="#DejaVuSans-6c"/>
      <use x="27.783203" xlink:href="#DejaVuSans-6f"/>
      <use x="88.964844" xlink:href="#DejaVuSans-67"/>
      <use x="152.441406" xlink:href="#DejaVuSans-31"/>
      <use x="216.064453" xlink:href="#DejaVuSans-30"/>
      <use x="279.6875" xlink:href="#DejaVuSans-20"/>
      <use x="311.474609" xlink:href="#DejaVuSans-6f"/>
      <use x="372.65625" xlink:href="#DejaVuSans-66"/>
      <use x="407.861328" xlink:href="#DejaVuSans-20"/>
      <use x="439.648438" xlink:href="#DejaVuSans-44"/>
      <use x="516.650391" xlink:href="#DejaVuSans-66"/>
     </g>
    </g>
   </g>
   <g id="matplotlib.axis_2">
    <g id="ytick_1">
     <g id="line2d_11">
      <path clip-path="url(#p642859f8c4)" d="M 5.52 291.28 
L 450.672 291.28 
" style="fill:none;stroke:#b0b0b0;stroke-linecap:square;stroke-width:0.8;"/>
     </g>
     <g id="line2d_12">
      <defs>
       <path d="M 0 0 
L -3.5 0 
" id="mbdfeaebc27" style="stroke:#000000;stroke-width:0.8;"/>
      </defs>
      <g>
       <use style="stroke:#000000;stroke-width:0.8;" x="5.52" xlink:href="#mbdfeaebc27" y="291.28"/>
      </g>
     </g>
    </g>
    <g id="ytick_2">
     <g id="line2d_13">
      <path clip-path="url(#p642859f8c4)" d="M 5.52 234.693861 
L 450.672 234.693861 
" style="fill:none;stroke:#b0b0b0;stroke-linecap:square;stroke-width:0.8;"/>
     </g>
     <g id="line2d_14">
      <g>
       <use style="stroke:#000000;stroke-width:0.8;" x="5.52" xlink:href="#mbdfeaebc27" y="234.693861"/>
      </g>
     </g>
    </g>
    <g id="ytick_3">
     <g id="line2d_15">
      <path clip-path="url(#p642859f8c4)" d="M 5.52 178.107723 
L 450.672 178.107723 
" style="fill:none;stroke:#b0b0b0;stroke-linecap:square;stroke-width:0.8;"/>
     </g>
     <g id="line2d_16">
      <g>
       <use style="stroke:#000000;stroke-width:0.8;" x="5.52" xlink:href="#mbdfeaebc27" y="178.107723"/>
      </g>
     </g>
    </g>
    <g id="ytick_4">
     <g id="line2d_17">
      <path clip-path="url(#p642859f8c4)" d="M 5.52 121.521584 
L 450.672 121.521584 
" style="fill:none;stroke:#b0b0b0;stroke-linecap:square;stroke-width:0.8;"/>
     </g>
     <g id="line2d_18">
      <g>
       <use style="stroke:#000000;stroke-width:0.8;" x="5.52" xlink:href="#mbdfeaebc27" y="121.521584"/>
      </g>
     </g>
    </g>
    <g id="ytick_5">
     <g id="line2d_19">
      <path clip-path="url(#p642859f8c4)" d="M 5.52 64.935446 
L 450.672 64.935446 
" style="fill:none;stroke:#b0b0b0;stroke-linecap:square;stroke-width:0.8;"/>
     </g>
     <g id="line2d_20">
      <g>
       <use style="stroke:#000000;stroke-width:0.8;" x="5.52" xlink:href="#mbdfeaebc27" y="64.935446"/>
      </g>
     </g>
    </g>
    <g id="ytick_6">
     <g id="line2d_21">
      <path clip-path="url(#p642859f8c4)" d="M 5.52 8.349307 
L 450.672 8.349307 
" style="fill:none;stroke:#b0b0b0;stroke-linecap:square;stroke-width:0.8;"/>
     </g>
     <g id="line2d_22">
      <g>
       <use style="stroke:#000000;stroke-width:0.8;" x="5.52" xlink:href="#mbdfeaebc27" y="8.349307"/>
      </g>
     </g>
    </g>
   </g>
   <g id="line2d_23">
    <path clip-path="url(#p642859f8c4)" d="M 5.412019 291.28 
L 5.412019 283.735182 
L 150.627062 283.735182 
L 150.627062 279.962772 
L 151.767025 279.962772 
L 151.767025 276.190363 
L 153.823083 276.190363 
L 153.823083 272.417954 
L 154.465299 272.417954 
L 154.465299 268.645545 
L 158.782225 268.645545 
L 158.782225 264.873135 
L 158.970241 264.873135 
L 158.970241 261.100726 
L 160.000019 261.100726 
L 160.000019 257.328317 
L 163.42346 257.328317 
L 163.42346 253.555908 
L 164.540148 253.555908 
L 164.540148 249.783498 
L 165.457443 249.783498 
L 165.457443 246.011089 
L 168.23554 246.011089 
L 168.23554 242.23868 
L 169.814162 242.23868 
L 169.814162 238.466271 
L 172.999358 238.466271 
L 172.999358 234.693861 
L 174.844131 234.693861 
L 174.844131 230.921452 
L 183.483702 230.921452 
L 183.483702 227.149043 
L 201.315223 227.149043 
L 201.315223 204.514587 
L 210.15947 204.514587 
L 210.15947 200.742178 
L 210.992833 200.742178 
L 210.992833 196.969769 
L 211.305681 196.969769 
L 211.305681 193.19736 
L 212.250049 193.19736 
L 212.250049 189.42495 
L 212.584359 189.42495 
L 212.587885 178.107723 
L 212.962645 178.107723 
L 213.069205 159.245677 
L 213.376443 159.245677 
L 213.478022 147.928449 
L 213.727841 147.928449 
L 213.727841 144.15604 
L 214.257079 144.15604 
L 214.257079 140.38363 
L 214.672278 140.38363 
L 214.672278 136.611221 
L 214.895616 136.611221 
L 214.940304 129.066403 
L 215.642497 129.066403 
L 215.642497 125.293993 
L 215.99047 125.293993 
L 215.99047 121.521584 
L 217.311891 121.521584 
L 217.311891 117.749175 
L 217.424375 117.749175 
L 217.424375 113.976766 
L 217.832436 113.976766 
L 217.832436 110.204356 
L 222.138583 110.204356 
L 222.138583 106.431947 
L 222.782944 106.431947 
L 222.782944 102.659538 
L 222.913734 102.659538 
L 222.913734 98.887129 
L 224.411763 98.887129 
L 224.411763 95.114719 
L 225.197615 95.114719 
L 225.197615 91.34231 
L 226.446997 91.34231 
L 226.446997 87.569901 
L 228.842359 87.569901 
L 228.842359 76.252673 
L 230.224691 76.252673 
L 230.224691 72.480264 
L 231.309539 72.480264 
L 231.309539 68.707855 
L 231.457963 68.707855 
L 231.457963 64.935446 
L 234.395944 64.935446 
L 234.395944 61.163036 
L 235.183243 61.163036 
L 235.183243 57.390627 
L 235.669026 57.390627 
L 235.669026 53.618218 
L 238.747421 53.618218 
L 238.747421 49.845809 
L 239.281767 49.845809 
L 239.281767 46.073399 
L 239.428698 46.073399 
L 239.475821 38.528581 
L 239.690369 38.528581 
L 239.791314 27.211353 
L 239.965878 27.211353 
L 239.974308 19.666535 
L 240.272024 19.666535 
L 240.360809 12.121716 
L 241.640584 12.121716 
L 241.640584 8.349307 
L 241.640584 8.349307 
L 450.672 8.349307 
L 450.672 8.349307 
" style="fill:none;stroke:#ff0000;stroke-linecap:square;stroke-width:3;"/>
   </g>
   <g id="line2d_24">
    <path clip-path="url(#p642859f8c4)" d="M 223.264174 291.28 
L 223.264174 287.507591 
L 224.233639 287.507591 
L 224.233639 283.735182 
L 224.860579 283.735182 
L 224.860579 279.962772 
L 225.329776 279.962772 
L 225.329776 276.190363 
L 226.472448 276.190363 
L 226.472448 272.417954 
L 227.518851 272.417954 
L 227.518851 268.645545 
L 228.180522 268.645545 
L 228.180522 264.873135 
L 228.632149 264.873135 
L 228.632149 261.100726 
L 230.176673 261.100726 
L 230.176673 257.328317 
L 230.33495 257.328317 
L 230.363812 249.783498 
L 230.458959 249.783498 
L 230.458959 246.011089 
L 230.71103 246.011089 
L 230.71103 242.23868 
L 231.771136 242.23868 
L 231.771136 238.466271 
L 233.47766 238.466271 
L 233.47766 234.693861 
L 248.984938 234.693861 
L 248.984938 230.921452 
L 250.935431 230.921452 
L 250.935431 227.149043 
L 251.387385 227.149043 
L 251.496571 219.604224 
L 251.582869 219.604224 
L 251.582869 215.831815 
L 251.747752 215.831815 
L 251.750525 208.286997 
L 251.888684 208.286997 
L 251.978028 196.969769 
L 252.013594 196.969769 
L 252.072966 185.652541 
L 252.262211 185.652541 
L 252.284669 178.107723 
L 252.449188 178.107723 
L 252.449188 174.335314 
L 252.592551 174.335314 
L 252.690477 163.018086 
L 252.706601 163.018086 
L 252.785209 147.928449 
L 252.878166 147.928449 
L 252.943871 136.611221 
L 253.179293 136.611221 
L 253.248626 125.293993 
L 253.454397 125.293993 
L 253.454397 121.521584 
L 264.189964 121.521584 
L 264.189964 117.749175 
L 265.601115 117.749175 
L 265.601115 113.976766 
L 265.889662 113.976766 
L 265.889662 110.204356 
L 266.180254 110.204356 
L 266.180254 106.431947 
L 266.499237 106.431947 
L 266.604844 98.887129 
L 266.66353 98.887129 
L 266.733745 87.569901 
L 266.947699 87.569901 
L 266.947699 83.797492 
L 267.239467 83.797492 
L 267.260562 76.252673 
L 267.373091 76.252673 
L 267.462724 68.707855 
L 267.64237 68.707855 
L 267.64237 64.935446 
L 300.381511 64.935446 
L 300.381511 61.163036 
L 304.91804 61.163036 
L 304.91804 57.390627 
L 307.994589 57.390627 
L 307.994589 53.618218 
L 308.38933 53.618218 
L 308.38933 49.845809 
L 308.612023 49.845809 
L 308.612023 46.073399 
L 310.855458 46.073399 
L 310.855458 42.30099 
L 311.300707 42.30099 
L 311.300707 38.528581 
L 311.811901 38.528581 
L 311.811901 34.756172 
L 312.041547 34.756172 
L 312.041547 30.983762 
L 312.667729 30.983762 
L 312.667729 27.211353 
L 312.972542 27.211353 
L 312.972542 23.438944 
L 313.516221 23.438944 
L 313.516221 19.666535 
L 314.152056 19.666535 
L 314.152056 15.894125 
L 314.411498 15.894125 
L 314.411498 12.121716 
L 319.331186 12.121716 
L 319.331186 8.349307 
L 319.331186 8.349307 
L 450.672 8.349307 
L 450.672 8.349307 
" style="fill:none;stroke:#00bfbf;stroke-linecap:square;stroke-width:1.5;"/>
   </g>
   <g id="line2d_25">
    <path clip-path="url(#p642859f8c4)" d="M 222.670675 291.28 
L 222.670675 287.507591 
L 223.057607 287.507591 
L 223.057607 283.735182 
L 223.264174 283.735182 
L 223.264174 279.962772 
L 224.233639 279.962772 
L 224.233639 276.190363 
L 224.860579 276.190363 
L 224.860579 272.417954 
L 225.329776 272.417954 
L 225.329776 268.645545 
L 226.472448 268.645545 
L 226.472448 264.873135 
L 226.822496 264.873135 
L 226.822496 261.100726 
L 227.518851 261.100726 
L 227.518851 257.328317 
L 228.178557 257.328317 
L 228.180522 249.783498 
L 228.366565 249.783498 
L 228.366565 246.011089 
L 228.632149 246.011089 
L 228.632149 242.23868 
L 228.959969 242.23868 
L 228.959969 238.466271 
L 229.949123 238.466271 
L 229.949123 234.693861 
L 248.984938 234.693861 
L 248.984938 230.921452 
L 250.279773 230.921452 
L 250.279773 227.149043 
L 250.851392 227.149043 
L 250.851392 223.376634 
L 251.387385 223.376634 
L 251.496571 212.059406 
L 251.623878 212.059406 
L 251.623878 208.286997 
L 251.742062 208.286997 
L 251.750525 200.742178 
L 251.888684 200.742178 
L 251.978028 189.42495 
L 252.013594 189.42495 
L 252.041675 178.107723 
L 252.134884 178.107723 
L 252.134884 174.335314 
L 252.28876 174.335314 
L 252.28876 170.562904 
L 252.583677 170.562904 
L 252.641797 155.473267 
L 252.719723 155.473267 
L 252.785209 140.38363 
L 252.865634 140.38363 
L 252.96055 129.066403 
L 253.213677 129.066403 
L 253.213677 125.293993 
L 253.384607 125.293993 
L 253.384607 121.521584 
L 264.189964 121.521584 
L 264.189964 117.749175 
L 265.090424 117.749175 
L 265.090424 113.976766 
L 265.601115 113.976766 
L 265.601115 110.204356 
L 265.87963 110.204356 
L 265.889662 102.659538 
L 266.094474 102.659538 
L 266.094474 98.887129 
L 266.410032 98.887129 
L 266.458179 91.34231 
L 266.604844 91.34231 
L 266.684599 83.797492 
L 266.733745 83.797492 
L 266.733745 80.025083 
L 266.95024 80.025083 
L 266.95024 76.252673 
L 267.079496 76.252673 
L 267.079496 72.480264 
L 267.239467 72.480264 
L 267.287508 64.935446 
L 291.469122 64.935446 
L 291.469122 61.163036 
L 295.337992 61.163036 
L 295.337992 57.390627 
L 299.264171 57.390627 
L 299.264171 53.618218 
L 299.391487 53.618218 
L 299.391487 49.845809 
L 300.20204 49.845809 
L 300.20204 46.073399 
L 300.381511 46.073399 
L 300.381511 42.30099 
L 302.55624 42.30099 
L 302.55624 38.528581 
L 305.378282 38.528581 
L 305.378282 34.756172 
L 305.588076 34.756172 
L 305.679637 27.211353 
L 305.751626 27.211353 
L 305.751626 23.438944 
L 306.053301 23.438944 
L 306.053301 19.666535 
L 306.902371 19.666535 
L 306.902371 15.894125 
L 308.38933 15.894125 
L 308.38933 12.121716 
L 312.280414 12.121716 
L 312.280414 8.349307 
L 312.280414 8.349307 
L 450.672 8.349307 
L 450.672 8.349307 
" style="fill:none;stroke:#bf00bf;stroke-linecap:square;stroke-width:1.5;"/>
   </g>
   <g id="line2d_26">
    <path clip-path="url(#p642859f8c4)" d="M 213.487064 291.28 
L 213.487064 287.507591 
L 221.68281 287.507591 
L 221.68281 283.735182 
L 222.577747 283.735182 
L 222.670675 276.190363 
L 223.057607 276.190363 
L 223.057607 272.417954 
L 223.477648 272.417954 
L 223.477648 268.645545 
L 224.233639 268.645545 
L 224.233639 264.873135 
L 224.808039 264.873135 
L 224.860579 257.328317 
L 225.005691 257.328317 
L 225.046018 249.783498 
L 226.472448 249.783498 
L 226.472448 246.011089 
L 226.606055 246.011089 
L 226.606055 242.23868 
L 226.822496 242.23868 
L 226.822496 238.466271 
L 227.168876 238.466271 
L 227.168876 234.693861 
L 248.810551 234.693861 
L 248.810551 230.921452 
L 248.984938 230.921452 
L 248.984938 227.149043 
L 250.27578 227.149043 
L 250.279773 219.604224 
L 250.952589 219.604224 
L 251.051643 212.059406 
L 251.212572 212.059406 
L 251.212572 208.286997 
L 251.387385 208.286997 
L 251.387385 204.514587 
L 251.557495 204.514587 
L 251.557495 200.742178 
L 251.677681 200.742178 
L 251.750525 193.19736 
L 251.817637 193.19736 
L 251.888684 185.652541 
L 251.950909 185.652541 
L 252.014806 166.790495 
L 252.386112 166.790495 
L 252.464726 151.700858 
L 252.511545 151.700858 
L 252.578928 144.15604 
L 252.737809 144.15604 
L 252.785209 136.611221 
L 252.865634 136.611221 
L 252.877793 129.066403 
L 252.988444 129.066403 
L 252.988444 125.293993 
L 253.213677 125.293993 
L 253.213677 121.521584 
L 264.189964 121.521584 
L 264.189964 117.749175 
L 264.723837 117.749175 
L 264.723837 113.976766 
L 265.090424 113.976766 
L 265.090424 110.204356 
L 265.493875 110.204356 
L 265.601115 98.887129 
L 265.65958 98.887129 
L 265.661744 91.34231 
L 265.889662 91.34231 
L 265.892297 83.797492 
L 266.094474 83.797492 
L 266.094474 80.025083 
L 266.465622 80.025083 
L 266.465622 76.252673 
L 266.604844 76.252673 
L 266.69313 68.707855 
L 267.025316 68.707855 
L 267.025316 64.935446 
L 291.469122 64.935446 
L 291.469122 61.163036 
L 292.938403 61.163036 
L 292.938403 57.390627 
L 293.098639 57.390627 
L 293.098639 53.618218 
L 293.766549 53.618218 
L 293.766549 49.845809 
L 296.908887 49.845809 
L 296.908887 46.073399 
L 297.425751 46.073399 
L 297.425751 42.30099 
L 299.264171 42.30099 
L 299.264171 38.528581 
L 299.898124 38.528581 
L 299.898124 34.756172 
L 300.20204 34.756172 
L 300.203439 27.211353 
L 302.074681 27.211353 
L 302.074681 23.438944 
L 302.55624 23.438944 
L 302.55624 19.666535 
L 303.473235 19.666535 
L 303.473235 15.894125 
L 305.463707 15.894125 
L 305.463707 12.121716 
L 306.053301 12.121716 
L 306.053301 8.349307 
L 306.053301 8.349307 
L 450.672 8.349307 
L 450.672 8.349307 
" style="fill:none;stroke:#000000;stroke-linecap:square;stroke-width:1.5;"/>
   </g>
   <g id="line2d_27">
    <path clip-path="url(#p642859f8c4)" d="M 213.487064 291.28 
L 213.487064 287.507591 
L 215.465437 287.507591 
L 215.465437 283.735182 
L 217.177821 283.735182 
L 217.177821 279.962772 
L 220.729034 279.962772 
L 220.729034 276.190363 
L 221.68281 276.190363 
L 221.68281 272.417954 
L 222.531686 272.417954 
L 222.637888 264.873135 
L 222.670675 264.873135 
L 222.722391 257.328317 
L 222.848031 257.328317 
L 222.848031 253.555908 
L 222.983005 253.555908 
L 223.057607 246.011089 
L 223.306914 246.011089 
L 223.306914 242.23868 
L 223.955041 242.23868 
L 223.955041 238.466271 
L 224.233639 238.466271 
L 224.233639 234.693861 
L 244.62552 234.693861 
L 244.62552 230.921452 
L 245.607743 230.921452 
L 245.607743 227.149043 
L 248.810551 227.149043 
L 248.810551 223.376634 
L 249.30223 223.376634 
L 249.30223 219.604224 
L 249.97307 219.604224 
L 250.027157 212.059406 
L 250.159928 212.059406 
L 250.159928 208.286997 
L 250.501992 208.286997 
L 250.599573 200.742178 
L 250.704654 200.742178 
L 250.704654 196.969769 
L 250.932159 196.969769 
L 250.942495 189.42495 
L 251.098068 189.42495 
L 251.150805 178.107723 
L 251.228967 178.107723 
L 251.228967 174.335314 
L 251.512165 174.335314 
L 251.623274 163.018086 
L 251.782185 163.018086 
L 251.782185 159.245677 
L 251.950909 159.245677 
L 252.015429 144.15604 
L 252.152146 144.15604 
L 252.232371 136.611221 
L 252.395246 136.611221 
L 252.395246 132.838812 
L 252.567111 132.838812 
L 252.567111 129.066403 
L 252.9267 129.066403 
L 252.951522 121.521584 
L 264.189964 121.521584 
L 264.189964 117.749175 
L 264.377993 117.749175 
L 264.377993 113.976766 
L 264.57419 113.976766 
L 264.640581 106.431947 
L 264.690718 106.431947 
L 264.723837 98.887129 
L 264.804764 98.887129 
L 264.905646 91.34231 
L 265.017606 91.34231 
L 265.058701 83.797492 
L 265.156601 83.797492 
L 265.156601 80.025083 
L 265.333434 80.025083 
L 265.411601 72.480264 
L 265.65958 72.480264 
L 265.661744 64.935446 
L 278.701321 64.935446 
L 278.701321 61.163036 
L 283.879736 61.163036 
L 283.879736 57.390627 
L 284.577358 57.390627 
L 284.577358 53.618218 
L 285.299612 53.618218 
L 285.299612 49.845809 
L 287.808971 49.845809 
L 287.808971 46.073399 
L 287.97918 46.073399 
L 287.97918 42.30099 
L 288.216246 42.30099 
L 288.216246 38.528581 
L 289.29951 38.528581 
L 289.29951 34.756172 
L 289.91745 34.756172 
L 289.91745 30.983762 
L 290.813717 30.983762 
L 290.813717 27.211353 
L 291.689278 27.211353 
L 291.788772 19.666535 
L 292.531244 19.666535 
L 292.531244 15.894125 
L 293.098639 15.894125 
L 293.098639 12.121716 
L 297.29129 12.121716 
L 297.29129 8.349307 
L 297.29129 8.349307 
L 450.672 8.349307 
L 450.672 8.349307 
" style="fill:none;stroke:#00bfbf;stroke-linecap:square;stroke-width:1.5;"/>
   </g>
   <g id="line2d_28">
    <path clip-path="url(#p642859f8c4)" d="M 212.878546 291.28 
L 212.878546 287.507591 
L 213.487064 287.507591 
L 213.487064 283.735182 
L 214.726315 283.735182 
L 214.726315 279.962772 
L 215.465437 279.962772 
L 215.465437 276.190363 
L 216.362465 276.190363 
L 216.362465 272.417954 
L 216.83404 272.417954 
L 216.839408 264.873135 
L 217.114335 264.873135 
L 217.114335 261.100726 
L 217.817305 261.100726 
L 217.817305 257.328317 
L 218.219724 257.328317 
L 218.32561 249.783498 
L 218.341928 249.783498 
L 218.36369 242.23868 
L 218.647841 242.23868 
L 218.647841 238.466271 
L 219.157886 238.466271 
L 219.204546 230.921452 
L 219.274922 230.921452 
L 219.382579 223.376634 
L 219.441354 223.376634 
L 219.441354 219.604224 
L 219.665692 219.604224 
L 219.665692 215.831815 
L 219.916027 215.831815 
L 219.916027 212.059406 
L 220.133733 212.059406 
L 220.133733 208.286997 
L 220.375239 208.286997 
L 220.375239 204.514587 
L 220.6224 204.514587 
L 220.68771 196.969769 
L 221.69639 196.969769 
L 221.718363 189.42495 
L 225.074417 189.42495 
L 225.074417 185.652541 
L 227.617893 185.652541 
L 227.617893 181.880132 
L 229.793158 181.880132 
L 229.793158 178.107723 
L 230.2471 178.107723 
L 230.2471 174.335314 
L 230.426028 174.335314 
L 230.426028 170.562904 
L 234.539784 170.562904 
L 234.539784 166.790495 
L 235.116831 166.790495 
L 235.116831 163.018086 
L 235.459148 163.018086 
L 235.459148 159.245677 
L 236.212491 159.245677 
L 236.212491 155.473267 
L 237.281393 155.473267 
L 237.281393 151.700858 
L 238.11403 151.700858 
L 238.183358 144.15604 
L 238.286031 144.15604 
L 238.38845 136.611221 
L 238.487886 136.611221 
L 238.487886 132.838812 
L 238.650235 132.838812 
L 238.650235 129.066403 
L 239.813327 129.066403 
L 239.813327 125.293993 
L 240.385218 125.293993 
L 240.385218 121.521584 
L 242.031906 121.521584 
L 242.031906 117.749175 
L 242.262201 117.749175 
L 242.262201 113.976766 
L 242.494815 113.976766 
L 242.494815 110.204356 
L 242.619552 110.204356 
L 242.619552 106.431947 
L 242.978784 106.431947 
L 242.978784 102.659538 
L 243.254862 102.659538 
L 243.254862 98.887129 
L 244.488994 98.887129 
L 244.488994 95.114719 
L 244.609507 95.114719 
L 244.694525 87.569901 
L 244.74281 87.569901 
L 244.74281 83.797492 
L 246.541732 83.797492 
L 246.541732 80.025083 
L 247.59775 80.025083 
L 247.59775 76.252673 
L 249.492234 76.252673 
L 249.492234 72.480264 
L 249.804967 72.480264 
L 249.804967 68.707855 
L 259.801372 68.707855 
L 259.801372 64.935446 
L 260.059271 64.935446 
L 260.069648 57.390627 
L 260.930356 57.390627 
L 260.930356 53.618218 
L 261.149393 53.618218 
L 261.149393 49.845809 
L 261.313612 49.845809 
L 261.313612 46.073399 
L 261.448396 46.073399 
L 261.547728 30.983762 
L 261.728811 30.983762 
L 261.728811 27.211353 
L 262.19184 27.211353 
L 262.19184 23.438944 
L 262.665233 23.438944 
L 262.665233 19.666535 
L 262.899721 19.666535 
L 262.899721 15.894125 
L 263.21869 15.894125 
L 263.21869 12.121716 
L 264.371044 12.121716 
L 264.371044 8.349307 
L 264.371044 8.349307 
L 450.672 8.349307 
L 450.672 8.349307 
" style="fill:none;stroke:#bf00bf;stroke-linecap:square;stroke-width:1.5;"/>
   </g>
   <g id="line2d_29">
    <path clip-path="url(#p642859f8c4)" d="M -1 283.735182 
L 201.315223 283.735182 
L 201.315226 261.100726 
L 210.159472 261.100726 
L 210.159472 257.328317 
L 211.006546 257.328317 
L 211.006546 253.555908 
L 212.46188 253.555908 
L 212.46188 249.783498 
L 212.587885 249.783498 
L 212.682275 238.466271 
L 212.701459 238.466271 
L 212.73717 230.921452 
L 212.878546 230.921452 
L 212.878546 227.149043 
L 213.069205 227.149043 
L 213.069206 215.831815 
L 213.267162 215.831815 
L 213.267162 212.059406 
L 213.454203 212.059406 
L 213.454203 208.286997 
L 213.762893 208.286997 
L 213.857754 200.742178 
L 213.886163 200.742178 
L 213.960858 193.19736 
L 214.262163 193.19736 
L 214.288393 185.652541 
L 214.699816 185.652541 
L 214.76008 174.335314 
L 214.897546 174.335314 
L 214.980262 163.018086 
L 215.036484 163.018086 
L 215.117898 155.473267 
L 215.186311 155.473267 
L 215.186311 151.700858 
L 215.463982 151.700858 
L 215.463982 147.928449 
L 215.642497 147.928449 
L 215.6871 140.38363 
L 216.126673 140.38363 
L 216.126673 136.611221 
L 216.416604 136.611221 
L 216.416604 132.838812 
L 216.572347 132.838812 
L 216.572347 129.066403 
L 216.980487 129.066403 
L 216.980487 125.293993 
L 217.120514 125.293993 
L 217.120514 121.521584 
L 217.832436 121.521584 
L 217.832436 117.749175 
L 222.138592 117.749175 
L 222.138592 113.976766 
L 222.913751 113.976766 
L 222.913751 110.204356 
L 226.447039 110.204356 
L 226.447039 106.431947 
L 228.842359 106.431947 
L 228.84535 95.114719 
L 230.224691 95.114719 
L 230.224691 91.34231 
L 231.309546 91.34231 
L 231.309546 87.569901 
L 231.457964 87.569901 
L 231.457964 83.797492 
L 234.395944 83.797492 
L 234.395944 80.025083 
L 235.183243 80.025083 
L 235.183243 76.252673 
L 235.669026 76.252673 
L 235.669026 72.480264 
L 238.747426 72.480264 
L 238.747426 68.707855 
L 239.760495 68.707855 
L 239.760495 64.935446 
L 246.288606 64.935446 
L 246.288606 61.163036 
L 251.262015 61.163036 
L 251.262015 57.390627 
L 254.000852 57.390627 
L 254.000852 53.618218 
L 254.528569 53.618218 
L 254.528569 49.845809 
L 254.962483 49.845809 
L 254.962483 46.073399 
L 255.539326 46.073399 
L 255.566681 38.528581 
L 255.847545 38.528581 
L 255.847545 34.756172 
L 256.058737 34.756172 
L 256.077663 27.211353 
L 256.190064 27.211353 
L 256.243071 19.666535 
L 257.011102 19.666535 
L 257.011102 15.894125 
L 257.162705 15.894125 
L 257.162705 12.121716 
L 257.352748 12.121716 
L 257.352748 8.349307 
L 257.352748 8.349307 
L 450.672 8.349307 
L 450.672 8.349307 
" style="fill:none;stroke:#000000;stroke-linecap:square;stroke-width:1.5;"/>
   </g>
   <g id="line2d_30">
    <path clip-path="url(#p642859f8c4)" d="M 5.412019 291.28 
L 5.412019 283.735182 
L 150.627062 283.735182 
L 150.627062 279.962772 
L 151.767025 279.962772 
L 151.767025 276.190363 
L 153.823083 276.190363 
L 153.823083 272.417954 
L 154.465299 272.417954 
L 154.465299 268.645545 
L 158.782225 268.645545 
L 158.782225 264.873135 
L 158.970241 264.873135 
L 158.970241 261.100726 
L 160.000019 261.100726 
L 160.000019 257.328317 
L 163.42346 257.328317 
L 163.42346 253.555908 
L 164.540148 253.555908 
L 164.540148 249.783498 
L 165.457443 249.783498 
L 165.457443 246.011089 
L 168.23554 246.011089 
L 168.23554 242.23868 
L 170.554066 242.23868 
L 170.554066 238.466271 
L 172.999358 238.466271 
L 172.999358 234.693861 
L 174.844131 234.693861 
L 174.844131 230.921452 
L 183.483702 230.921452 
L 183.483702 227.149043 
L 201.315223 227.149043 
L 201.315223 204.514587 
L 210.15947 204.514587 
L 210.15947 200.742178 
L 210.992833 200.742178 
L 210.992833 196.969769 
L 211.305681 196.969769 
L 211.305681 193.19736 
L 212.250049 193.19736 
L 212.250049 189.42495 
L 212.584359 189.42495 
L 212.587885 178.107723 
L 212.962645 178.107723 
L 213.069205 159.245677 
L 213.376443 159.245677 
L 213.478022 147.928449 
L 213.727841 147.928449 
L 213.727841 144.15604 
L 214.257079 144.15604 
L 214.257079 140.38363 
L 214.672278 140.38363 
L 214.672278 136.611221 
L 214.895616 136.611221 
L 214.940304 129.066403 
L 215.642497 129.066403 
L 215.642497 125.293993 
L 215.99047 125.293993 
L 215.99047 121.521584 
L 217.311891 121.521584 
L 217.311891 117.749175 
L 217.424375 117.749175 
L 217.424375 113.976766 
L 217.832436 113.976766 
L 217.832436 110.204356 
L 222.138583 110.204356 
L 222.138583 106.431947 
L 222.782944 106.431947 
L 222.782944 102.659538 
L 222.913734 102.659538 
L 222.913734 98.887129 
L 224.411763 98.887129 
L 224.411763 95.114719 
L 225.197615 95.114719 
L 225.197615 91.34231 
L 226.446997 91.34231 
L 226.446997 87.569901 
L 228.842359 87.569901 
L 228.842359 76.252673 
L 230.224691 76.252673 
L 230.224691 72.480264 
L 231.309539 72.480264 
L 231.309539 68.707855 
L 231.457963 68.707855 
L 231.457963 64.935446 
L 234.395944 64.935446 
L 234.395944 61.163036 
L 235.183243 61.163036 
L 235.183243 57.390627 
L 235.669026 57.390627 
L 235.669026 53.618218 
L 238.747421 53.618218 
L 238.747421 49.845809 
L 239.281767 49.845809 
L 239.281767 46.073399 
L 239.428698 46.073399 
L 239.475821 38.528581 
L 239.690369 38.528581 
L 239.791314 27.211353 
L 239.965878 27.211353 
L 239.974308 19.666535 
L 240.272024 19.666535 
L 240.360809 12.121716 
L 241.640584 12.121716 
L 241.640584 8.349307 
L 241.640584 8.349307 
L 450.672 8.349307 
L 450.672 8.349307 
" style="fill:none;stroke:#00bfbf;stroke-linecap:square;stroke-width:1.5;"/>
   </g>
   <g id="patch_3">
    <path d="M 5.52 291.28 
L 5.52 5.52 
" style="fill:none;stroke:#000000;stroke-linecap:square;stroke-linejoin:miter;stroke-width:0.8;"/>
   </g>
   <g id="patch_4">
    <path d="M 450.672 291.28 
L 450.672 5.52 
" style="fill:none;stroke:#000000;stroke-linecap:square;stroke-linejoin:miter;stroke-width:0.8;"/>
   </g>
   <g id="patch_5">
    <path d="M 5.52 291.28 
L 450.672 291.28 
" style="fill:none;stroke:#000000;stroke-linecap:square;stroke-linejoin:miter;stroke-width:0.8;"/>
   </g>
   <g id="patch_6">
    <path d="M 5.52 5.52 
L 450.672 5.52 
" style="fill:none;stroke:#000000;stroke-linecap:square;stroke-linejoin:miter;stroke-width:0.8;"/>
   </g>
   <g id="text_6">
    <!-- {f20-f24}, 20-D -->
    <defs>
     <path d="M 51.125 -9.28125 
L 51.125 -16.3125 
L 48.09375 -16.3125 
Q 35.9375 -16.3125 31.8125 -12.6875 
Q 27.6875 -9.078125 27.6875 1.703125 
L 27.6875 13.375 
Q 27.6875 20.75 25.046875 23.578125 
Q 22.40625 26.421875 15.484375 26.421875 
L 12.5 26.421875 
L 12.5 33.40625 
L 15.484375 33.40625 
Q 22.46875 33.40625 25.078125 36.203125 
Q 27.6875 39.015625 27.6875 46.296875 
L 27.6875 58.015625 
Q 27.6875 68.796875 31.8125 72.390625 
Q 35.9375 75.984375 48.09375 75.984375 
L 51.125 75.984375 
L 51.125 69 
L 47.796875 69 
Q 40.921875 69 38.8125 66.84375 
Q 36.71875 64.703125 36.71875 57.8125 
L 36.71875 45.703125 
Q 36.71875 38.03125 34.5 34.5625 
Q 32.28125 31.109375 26.90625 29.890625 
Q 32.328125 28.5625 34.515625 25.09375 
Q 36.71875 21.625 36.71875 14.015625 
L 36.71875 1.90625 
Q 36.71875 -4.984375 38.8125 -7.125 
Q 40.921875 -9.28125 47.796875 -9.28125 
z
" id="DejaVuSans-7b"/>
     <path d="M 19.1875 8.296875 
L 53.609375 8.296875 
L 53.609375 0 
L 7.328125 0 
L 7.328125 8.296875 
Q 12.9375 14.109375 22.625 23.890625 
Q 32.328125 33.6875 34.8125 36.53125 
Q 39.546875 41.84375 41.421875 45.53125 
Q 43.3125 49.21875 43.3125 52.78125 
Q 43.3125 58.59375 39.234375 62.25 
Q 35.15625 65.921875 28.609375 65.921875 
Q 23.96875 65.921875 18.8125 64.3125 
Q 13.671875 62.703125 7.8125 59.421875 
L 7.8125 69.390625 
Q 13.765625 71.78125 18.9375 73 
Q 24.125 74.21875 28.421875 74.21875 
Q 39.75 74.21875 46.484375 68.546875 
Q 53.21875 62.890625 53.21875 53.421875 
Q 53.21875 48.921875 51.53125 44.890625 
Q 49.859375 40.875 45.40625 35.40625 
Q 44.1875 33.984375 37.640625 27.21875 
Q 31.109375 20.453125 19.1875 8.296875 
z
" id="DejaVuSans-32"/>
     <path d="M 12.5 -9.28125 
L 15.921875 -9.28125 
Q 22.75 -9.28125 24.828125 -7.171875 
Q 26.90625 -5.078125 26.90625 1.90625 
L 26.90625 14.015625 
Q 26.90625 21.625 29.09375 25.09375 
Q 31.296875 28.5625 36.71875 29.890625 
Q 31.296875 31.109375 29.09375 34.5625 
Q 26.90625 38.03125 26.90625 45.703125 
L 26.90625 57.8125 
Q 26.90625 64.75 24.828125 66.875 
Q 22.75 69 15.921875 69 
L 12.5 69 
L 12.5 75.984375 
L 15.578125 75.984375 
Q 27.734375 75.984375 31.8125 72.390625 
Q 35.890625 68.796875 35.890625 58.015625 
L 35.890625 46.296875 
Q 35.890625 39.015625 38.515625 36.203125 
Q 41.15625 33.40625 48.09375 33.40625 
L 51.125 33.40625 
L 51.125 26.421875 
L 48.09375 26.421875 
Q 41.15625 26.421875 38.515625 23.578125 
Q 35.890625 20.75 35.890625 13.375 
L 35.890625 1.703125 
Q 35.890625 -9.078125 31.8125 -12.6875 
Q 27.734375 -16.3125 15.578125 -16.3125 
L 12.5 -16.3125 
z
" id="DejaVuSans-7d"/>
     <path d="M 11.71875 12.40625 
L 22.015625 12.40625 
L 22.015625 4 
L 14.015625 -11.625 
L 7.71875 -11.625 
L 11.71875 4 
z
" id="DejaVuSans-2c"/>
    </defs>
    <g transform="translate(283.34396 285.5648)scale(0.2 -0.2)">
     <use xlink:href="#DejaVuSans-7b"/>
     <use x="63.623047" xlink:href="#DejaVuSans-66"/>
     <use x="98.828125" xlink:href="#DejaVuSans-32"/>
     <use x="162.451172" xlink:href="#DejaVuSans-30"/>
     <use x="226.074219" xlink:href="#DejaVuSans-2d"/>
     <use x="262.158203" xlink:href="#DejaVuSans-66"/>
     <use x="297.363281" xlink:href="#DejaVuSans-32"/>
     <use x="360.986328" xlink:href="#DejaVuSans-34"/>
     <use x="424.609375" xlink:href="#DejaVuSans-7d"/>
     <use x="488.232422" xlink:href="#DejaVuSans-2c"/>
     <use x="520.019531" xlink:href="#DejaVuSans-20"/>
     <use x="551.806641" xlink:href="#DejaVuSans-32"/>
     <use x="615.429688" xlink:href="#DejaVuSans-30"/>
     <use x="679.052734" xlink:href="#DejaVuSans-2d"/>
     <use x="715.136719" xlink:href="#DejaVuSans-44"/>
    </g>
   </g>
   <g id="text_7">
    <!-- v0.0.0 -->
    <defs>
     <path d="M 2.984375 54.6875 
L 12.5 54.6875 
L 29.59375 8.796875 
L 46.6875 54.6875 
L 56.203125 54.6875 
L 35.6875 0 
L 23.484375 0 
z
" id="DejaVuSans-76"/>
     <path d="M 10.6875 12.40625 
L 21 12.40625 
L 21 0 
L 10.6875 0 
z
" id="DejaVuSans-2e"/>
    </defs>
    <g style="fill:#808080;" transform="translate(212.41475 286.342713)scale(0.1 -0.1)">
     <use xlink:href="#DejaVuSans-76"/>
     <use x="59.179688" xlink:href="#DejaVuSans-30"/>
     <use x="122.802734" xlink:href="#DejaVuSans-2e"/>
     <use x="154.589844" xlink:href="#DejaVuSans-30"/>
     <use x="218.212891" xlink:href="#DejaVuSans-2e"/>
     <use x="250" xlink:href="#DejaVuSans-30"/>
    </g>
   </g>
  </g>
 </g>
 <defs>
  <clipPath id="p642859f8c4">
   <rect height="285.76" width="445.152" x="5.52" y="5.52"/>
  </clipPath>
 </defs>
</svg>
