<?xml version="1.0" encoding="utf-8" standalone="no"?>
<!DOCTYPE svg PUBLIC "-//W3C//DTD SVG 1.1//EN"
  "http://www.w3.org/Graphics/SVG/1.1/DTD/svg11.dtd">
<!-- Created with matplotlib (http://matplotlib.org/) -->
<svg height="345.6pt" version="1.1" viewBox="0 0 460.8 345.6" width="460.8pt" xmlns="http://www.w3.org/2000/svg" xmlns:xlink="http://www.w3.org/1999/xlink">
 <defs>
  <style type="text/css">
*{stroke-linecap:butt;stroke-linejoin:round;}
  </style>
 </defs>
 <g id="figure_1">
  <g id="patch_1">
   <path d="M 0 345.6 
L 460.8 345.6 
L 460.8 0 
L 0 0 
z
" style="fill:#ffffff;"/>
  </g>
  <g id="axes_1">
   <g id="patch_2">
    <path d="M 5.52 291.28 
L 450.672 291.28 
L 450.672 5.52 
L 5.52 5.52 
z
" style="fill:#ffffff;"/>
   </g>
   <g id="matplotlib.axis_1">
    <g id="xtick_1">
     <g id="line2d_1">
      <path clip-path="url(#pa962f46be7)" d="M 5.412019 291.28 
L 5.412019 5.52 
" style="fill:none;stroke:#b0b0b0;stroke-linecap:square;stroke-width:0.8;"/>
     </g>
     <g id="line2d_2">
      <defs>
       <path d="M 0 0 
L 0 3.5 
" id="md1fb3abd31" style="stroke:#000000;stroke-width:0.8;"/>
      </defs>
      <g>
       <use style="stroke:#000000;stroke-width:0.8;" x="5.412019" xlink:href="#md1fb3abd31" y="291.28"/>
      </g>
     </g>
    </g>
    <g id="xtick_2">
     <g id="line2d_3">
      <path clip-path="url(#pa962f46be7)" d="M 105.362426 291.28 
L 105.362426 5.52 
" style="fill:none;stroke:#b0b0b0;stroke-linecap:square;stroke-width:0.8;"/>
     </g>
     <g id="line2d_4">
      <g>
       <use style="stroke:#000000;stroke-width:0.8;" x="105.362426" xlink:href="#md1fb3abd31" y="291.28"/>
      </g>
     </g>
     <g id="text_1">
      <!-- -4 -->
      <defs>
       <path d="M 4.890625 31.390625 
L 31.203125 31.390625 
L 31.203125 23.390625 
L 4.890625 23.390625 
z
" id="DejaVuSans-2d"/>
       <path d="M 37.796875 64.3125 
L 12.890625 25.390625 
L 37.796875 25.390625 
z
M 35.203125 72.90625 
L 47.609375 72.90625 
L 47.609375 25.390625 
L 58.015625 25.390625 
L 58.015625 17.1875 
L 47.609375 17.1875 
L 47.609375 0 
L 37.796875 0 
L 37.796875 17.1875 
L 4.890625 17.1875 
L 4.890625 26.703125 
z
" id="DejaVuSans-34"/>
      </defs>
      <g transform="translate(95.392113 313.476875)scale(0.2 -0.2)">
       <use xlink:href="#DejaVuSans-2d"/>
       <use x="36.083984" xlink:href="#DejaVuSans-34"/>
      </g>
     </g>
    </g>
    <g id="xtick_3">
     <g id="line2d_5">
      <path clip-path="url(#pa962f46be7)" d="M 205.312832 291.28 
L 205.312832 5.52 
" style="fill:none;stroke:#b0b0b0;stroke-linecap:square;stroke-width:0.8;"/>
     </g>
     <g id="line2d_6">
      <g>
       <use style="stroke:#000000;stroke-width:0.8;" x="205.312832" xlink:href="#md1fb3abd31" y="291.28"/>
      </g>
     </g>
     <g id="text_2">
      <!-- 0 -->
      <defs>
       <path d="M 31.78125 66.40625 
Q 24.171875 66.40625 20.328125 58.90625 
Q 16.5 51.421875 16.5 36.375 
Q 16.5 21.390625 20.328125 13.890625 
Q 24.171875 6.390625 31.78125 6.390625 
Q 39.453125 6.390625 43.28125 13.890625 
Q 47.125 21.390625 47.125 36.375 
Q 47.125 51.421875 43.28125 58.90625 
Q 39.453125 66.40625 31.78125 66.40625 
z
M 31.78125 74.21875 
Q 44.046875 74.21875 50.515625 64.515625 
Q 56.984375 54.828125 56.984375 36.375 
Q 56.984375 17.96875 50.515625 8.265625 
Q 44.046875 -1.421875 31.78125 -1.421875 
Q 19.53125 -1.421875 13.0625 8.265625 
Q 6.59375 17.96875 6.59375 36.375 
Q 6.59375 54.828125 13.0625 64.515625 
Q 19.53125 74.21875 31.78125 74.21875 
z
" id="DejaVuSans-30"/>
      </defs>
      <g transform="translate(198.950332 313.476875)scale(0.2 -0.2)">
       <use xlink:href="#DejaVuSans-30"/>
      </g>
     </g>
    </g>
    <g id="xtick_4">
     <g id="line2d_7">
      <path clip-path="url(#pa962f46be7)" d="M 305.263238 291.28 
L 305.263238 5.52 
" style="fill:none;stroke:#b0b0b0;stroke-linecap:square;stroke-width:0.8;"/>
     </g>
     <g id="line2d_8">
      <g>
       <use style="stroke:#000000;stroke-width:0.8;" x="305.263238" xlink:href="#md1fb3abd31" y="291.28"/>
      </g>
     </g>
     <g id="text_3">
      <!-- 4 -->
      <g transform="translate(298.900738 313.476875)scale(0.2 -0.2)">
       <use xlink:href="#DejaVuSans-34"/>
      </g>
     </g>
    </g>
    <g id="xtick_5">
     <g id="line2d_9">
      <path clip-path="url(#pa962f46be7)" d="M 405.213645 291.28 
L 405.213645 5.52 
" style="fill:none;stroke:#b0b0b0;stroke-linecap:square;stroke-width:0.8;"/>
     </g>
     <g id="line2d_10">
      <g>
       <use style="stroke:#000000;stroke-width:0.8;" x="405.213645" xlink:href="#md1fb3abd31" y="291.28"/>
      </g>
     </g>
     <g id="text_4">
      <!-- 8 -->
      <defs>
       <path d="M 31.78125 34.625 
Q 24.75 34.625 20.71875 30.859375 
Q 16.703125 27.09375 16.703125 20.515625 
Q 16.703125 13.921875 20.71875 10.15625 
Q 24.75 6.390625 31.78125 6.390625 
Q 38.8125 6.390625 42.859375 10.171875 
Q 46.921875 13.96875 46.921875 20.515625 
Q 46.921875 27.09375 42.890625 30.859375 
Q 38.875 34.625 31.78125 34.625 
z
M 21.921875 38.8125 
Q 15.578125 40.375 12.03125 44.71875 
Q 8.5 49.078125 8.5 55.328125 
Q 8.5 64.0625 14.71875 69.140625 
Q 20.953125 74.21875 31.78125 74.21875 
Q 42.671875 74.21875 48.875 69.140625 
Q 55.078125 64.0625 55.078125 55.328125 
Q 55.078125 49.078125 51.53125 44.71875 
Q 48 40.375 41.703125 38.8125 
Q 48.828125 37.15625 52.796875 32.3125 
Q 56.78125 27.484375 56.78125 20.515625 
Q 56.78125 9.90625 50.3125 4.234375 
Q 43.84375 -1.421875 31.78125 -1.421875 
Q 19.734375 -1.421875 13.25 4.234375 
Q 6.78125 9.90625 6.78125 20.515625 
Q 6.78125 27.484375 10.78125 32.3125 
Q 14.796875 37.15625 21.921875 38.8125 
z
M 18.3125 54.390625 
Q 18.3125 48.734375 21.84375 45.5625 
Q 25.390625 42.390625 31.78125 42.390625 
Q 38.140625 42.390625 41.71875 45.5625 
Q 45.3125 48.734375 45.3125 54.390625 
Q 45.3125 60.0625 41.71875 63.234375 
Q 38.140625 66.40625 31.78125 66.40625 
Q 25.390625 66.40625 21.84375 63.234375 
Q 18.3125 60.0625 18.3125 54.390625 
z
" id="DejaVuSans-38"/>
      </defs>
      <g transform="translate(398.851145 313.476875)scale(0.2 -0.2)">
       <use xlink:href="#DejaVuSans-38"/>
      </g>
     </g>
    </g>
    <g id="text_5">
     <!-- log10 of Df -->
     <defs>
      <path d="M 9.421875 75.984375 
L 18.40625 75.984375 
L 18.40625 0 
L 9.421875 0 
z
" id="DejaVuSans-6c"/>
      <path d="M 30.609375 48.390625 
Q 23.390625 48.390625 19.1875 42.75 
Q 14.984375 37.109375 14.984375 27.296875 
Q 14.984375 17.484375 19.15625 11.84375 
Q 23.34375 6.203125 30.609375 6.203125 
Q 37.796875 6.203125 41.984375 11.859375 
Q 46.1875 17.53125 46.1875 27.296875 
Q 46.1875 37.015625 41.984375 42.703125 
Q 37.796875 48.390625 30.609375 48.390625 
z
M 30.609375 56 
Q 42.328125 56 49.015625 48.375 
Q 55.71875 40.765625 55.71875 27.296875 
Q 55.71875 13.875 49.015625 6.21875 
Q 42.328125 -1.421875 30.609375 -1.421875 
Q 18.84375 -1.421875 12.171875 6.21875 
Q 5.515625 13.875 5.515625 27.296875 
Q 5.515625 40.765625 12.171875 48.375 
Q 18.84375 56 30.609375 56 
z
" id="DejaVuSans-6f"/>
      <path d="M 45.40625 27.984375 
Q 45.40625 37.75 41.375 43.109375 
Q 37.359375 48.484375 30.078125 48.484375 
Q 22.859375 48.484375 18.828125 43.109375 
Q 14.796875 37.75 14.796875 27.984375 
Q 14.796875 18.265625 18.828125 12.890625 
Q 22.859375 7.515625 30.078125 7.515625 
Q 37.359375 7.515625 41.375 12.890625 
Q 45.40625 18.265625 45.40625 27.984375 
z
M 54.390625 6.78125 
Q 54.390625 -7.171875 48.1875 -13.984375 
Q 42 -20.796875 29.203125 -20.796875 
Q 24.46875 -20.796875 20.265625 -20.09375 
Q 16.0625 -19.390625 12.109375 -17.921875 
L 12.109375 -9.1875 
Q 16.0625 -11.328125 19.921875 -12.34375 
Q 23.78125 -13.375 27.78125 -13.375 
Q 36.625 -13.375 41.015625 -8.765625 
Q 45.40625 -4.15625 45.40625 5.171875 
L 45.40625 9.625 
Q 42.625 4.78125 38.28125 2.390625 
Q 33.9375 0 27.875 0 
Q 17.828125 0 11.671875 7.65625 
Q 5.515625 15.328125 5.515625 27.984375 
Q 5.515625 40.671875 11.671875 48.328125 
Q 17.828125 56 27.875 56 
Q 33.9375 56 38.28125 53.609375 
Q 42.625 51.21875 45.40625 46.390625 
L 45.40625 54.6875 
L 54.390625 54.6875 
z
" id="DejaVuSans-67"/>
      <path d="M 12.40625 8.296875 
L 28.515625 8.296875 
L 28.515625 63.921875 
L 10.984375 60.40625 
L 10.984375 69.390625 
L 28.421875 72.90625 
L 38.28125 72.90625 
L 38.28125 8.296875 
L 54.390625 8.296875 
L 54.390625 0 
L 12.40625 0 
z
" id="DejaVuSans-31"/>
      <path id="DejaVuSans-20"/>
      <path d="M 37.109375 75.984375 
L 37.109375 68.5 
L 28.515625 68.5 
Q 23.6875 68.5 21.796875 66.546875 
Q 19.921875 64.59375 19.921875 59.515625 
L 19.921875 54.6875 
L 34.71875 54.6875 
L 34.71875 47.703125 
L 19.921875 47.703125 
L 19.921875 0 
L 10.890625 0 
L 10.890625 47.703125 
L 2.296875 47.703125 
L 2.296875 54.6875 
L 10.890625 54.6875 
L 10.890625 58.5 
Q 10.890625 67.625 15.140625 71.796875 
Q 19.390625 75.984375 28.609375 75.984375 
z
" id="DejaVuSans-66"/>
      <path d="M 19.671875 64.796875 
L 19.671875 8.109375 
L 31.59375 8.109375 
Q 46.6875 8.109375 53.6875 14.9375 
Q 60.6875 21.78125 60.6875 36.53125 
Q 60.6875 51.171875 53.6875 57.984375 
Q 46.6875 64.796875 31.59375 64.796875 
z
M 9.8125 72.90625 
L 30.078125 72.90625 
Q 51.265625 72.90625 61.171875 64.09375 
Q 71.09375 55.28125 71.09375 36.53125 
Q 71.09375 17.671875 61.125 8.828125 
Q 51.171875 0 30.078125 0 
L 9.8125 0 
z
" id="DejaVuSans-44"/>
     </defs>
     <g transform="translate(172.910063 336.833125)scale(0.2 -0.2)">
      <use xlink:href="#DejaVuSans-6c"/>
      <use x="27.783203" xlink:href="#DejaVuSans-6f"/>
      <use x="88.964844" xlink:href="#DejaVuSans-67"/>
      <use x="152.441406" xlink:href="#DejaVuSans-31"/>
      <use x="216.064453" xlink:href="#DejaVuSans-30"/>
      <use x="279.6875" xlink:href="#DejaVuSans-20"/>
      <use x="311.474609" xlink:href="#DejaVuSans-6f"/>
      <use x="372.65625" xlink:href="#DejaVuSans-66"/>
      <use x="407.861328" xlink:href="#DejaVuSans-20"/>
      <use x="439.648438" xlink:href="#DejaVuSans-44"/>
      <use x="516.650391" xlink:href="#DejaVuSans-66"/>
     </g>
    </g>
   </g>
   <g id="matplotlib.axis_2">
    <g id="ytick_1">
     <g id="line2d_11">
      <path clip-path="url(#pa962f46be7)" d="M 5.52 291.28 
L 450.672 291.28 
" style="fill:none;stroke:#b0b0b0;stroke-linecap:square;stroke-width:0.8;"/>
     </g>
     <g id="line2d_12">
      <defs>
       <path d="M 0 0 
L -3.5 0 
" id="me0dcd9a155" style="stroke:#000000;stroke-width:0.8;"/>
      </defs>
      <g>
       <use style="stroke:#000000;stroke-width:0.8;" x="5.52" xlink:href="#me0dcd9a155" y="291.28"/>
      </g>
     </g>
    </g>
    <g id="ytick_2">
     <g id="line2d_13">
      <path clip-path="url(#pa962f46be7)" d="M 5.52 234.693861 
L 450.672 234.693861 
" style="fill:none;stroke:#b0b0b0;stroke-linecap:square;stroke-width:0.8;"/>
     </g>
     <g id="line2d_14">
      <g>
       <use style="stroke:#000000;stroke-width:0.8;" x="5.52" xlink:href="#me0dcd9a155" y="234.693861"/>
      </g>
     </g>
    </g>
    <g id="ytick_3">
     <g id="line2d_15">
      <path clip-path="url(#pa962f46be7)" d="M 5.52 178.107723 
L 450.672 178.107723 
" style="fill:none;stroke:#b0b0b0;stroke-linecap:square;stroke-width:0.8;"/>
     </g>
     <g id="line2d_16">
      <g>
       <use style="stroke:#000000;stroke-width:0.8;" x="5.52" xlink:href="#me0dcd9a155" y="178.107723"/>
      </g>
     </g>
    </g>
    <g id="ytick_4">
     <g id="line2d_17">
      <path clip-path="url(#pa962f46be7)" d="M 5.52 121.521584 
L 450.672 121.521584 
" style="fill:none;stroke:#b0b0b0;stroke-linecap:square;stroke-width:0.8;"/>
     </g>
     <g id="line2d_18">
      <g>
       <use style="stroke:#000000;stroke-width:0.8;" x="5.52" xlink:href="#me0dcd9a155" y="121.521584"/>
      </g>
     </g>
    </g>
    <g id="ytick_5">
     <g id="line2d_19">
      <path clip-path="url(#pa962f46be7)" d="M 5.52 64.935446 
L 450.672 64.935446 
" style="fill:none;stroke:#b0b0b0;stroke-linecap:square;stroke-width:0.8;"/>
     </g>
     <g id="line2d_20">
      <g>
       <use style="stroke:#000000;stroke-width:0.8;" x="5.52" xlink:href="#me0dcd9a155" y="64.935446"/>
      </g>
     </g>
    </g>
    <g id="ytick_6">
     <g id="line2d_21">
      <path clip-path="url(#pa962f46be7)" d="M 5.52 8.349307 
L 450.672 8.349307 
" style="fill:none;stroke:#b0b0b0;stroke-linecap:square;stroke-width:0.8;"/>
     </g>
     <g id="line2d_22">
      <g>
       <use style="stroke:#000000;stroke-width:0.8;" x="5.52" xlink:href="#me0dcd9a155" y="8.349307"/>
      </g>
     </g>
    </g>
   </g>
   <g id="line2d_23">
    <path clip-path="url(#pa962f46be7)" d="M -1 220.547327 
L 156.308664 220.547327 
L 156.308664 215.831815 
L 156.395808 215.831815 
L 156.395808 211.116304 
L 156.43936 211.116304 
L 156.43936 206.400792 
L 156.501571 206.400792 
L 156.501571 201.685281 
L 156.536383 201.685281 
L 156.536383 196.969769 
L 156.649472 196.969769 
L 156.649472 192.254257 
L 156.751173 192.254257 
L 156.751173 187.538746 
L 156.7515 187.538746 
L 156.7515 182.823234 
L 156.786669 182.823234 
L 156.786669 178.107723 
L 156.828353 178.107723 
L 156.828353 173.392211 
L 156.849159 173.392211 
L 156.849159 168.6767 
L 156.871322 168.6767 
L 156.871322 163.961188 
L 156.873644 163.961188 
L 156.873644 159.245677 
L 156.909158 159.245677 
L 156.909158 154.530165 
L 156.98159 154.530165 
L 156.98159 149.814653 
L 156.9846 149.814653 
L 156.9846 145.099142 
L 156.985762 145.099142 
L 156.985762 140.38363 
L 156.989457 140.38363 
L 156.989457 135.668119 
L 157.11163 135.668119 
L 157.11163 130.952607 
L 157.129997 130.952607 
L 157.129997 126.237096 
L 157.14138 126.237096 
L 157.14138 121.521584 
L 157.142781 121.521584 
L 157.142781 116.806073 
L 157.173952 116.806073 
L 157.173952 112.090561 
L 157.206827 112.090561 
L 157.206827 107.37505 
L 157.372255 107.37505 
L 157.372255 102.659538 
L 157.389021 102.659538 
L 157.389021 97.944026 
L 157.414506 97.944026 
L 157.414506 93.228515 
L 157.423795 93.228515 
L 157.423795 88.513003 
L 157.447175 88.513003 
L 157.447175 83.797492 
L 157.799467 83.797492 
L 157.799467 79.08198 
L 208.307258 79.08198 
L 208.307258 74.366469 
L 209.158761 74.366469 
L 209.158761 69.650957 
L 210.153445 69.650957 
L 210.153445 64.935446 
L 211.636003 64.935446 
L 211.636003 60.219934 
L 214.11858 60.219934 
L 214.11858 55.504422 
L 214.779974 55.504422 
L 214.779974 50.788911 
L 215.90312 50.788911 
L 215.90312 46.073399 
L 216.374697 46.073399 
L 216.374697 41.357888 
L 218.933668 41.357888 
L 218.933668 36.642376 
L 219.932265 36.642376 
L 219.932265 31.926865 
L 221.102274 31.926865 
L 221.102274 27.211353 
L 223.230743 27.211353 
L 223.230743 22.495842 
L 223.778983 22.495842 
L 223.778983 17.78033 
L 224.642367 17.78033 
L 224.642367 13.064818 
L 226.255189 13.064818 
L 226.255189 8.349307 
L 226.255189 8.349307 
L 226.255189 8.349307 
L 450.672 8.349307 
" style="fill:none;stroke:#ff0000;stroke-linecap:square;stroke-width:3;"/>
   </g>
   <g id="line2d_24">
    <path clip-path="url(#pa962f46be7)" d="M 270.86847 291.28 
L 270.86847 286.564488 
L 272.038012 286.564488 
L 272.038012 281.848977 
L 272.075432 281.848977 
L 272.075432 277.133465 
L 274.415275 277.133465 
L 274.415275 272.417954 
L 274.532501 272.417954 
L 274.532501 267.702442 
L 275.634784 267.702442 
L 275.634784 262.986931 
L 275.735124 262.986931 
L 275.735124 258.271419 
L 276.700333 258.271419 
L 276.700333 253.555908 
L 276.882736 253.555908 
L 276.882736 248.840396 
L 278.271028 248.840396 
L 278.271028 244.124884 
L 280.195661 244.124884 
L 280.195661 239.409373 
L 282.557935 239.409373 
L 282.557935 234.693861 
L 283.77903 234.693861 
L 283.77903 229.97835 
L 284.951781 229.97835 
L 284.951781 225.262838 
L 285.523694 225.262838 
L 285.523694 220.547327 
L 285.751253 220.547327 
L 285.751253 215.831815 
L 285.959401 215.831815 
L 285.959401 211.116304 
L 286.914029 211.116304 
L 286.914029 206.400792 
L 287.184545 206.400792 
L 287.184545 201.685281 
L 288.268848 201.685281 
L 288.268848 196.969769 
L 289.290793 196.969769 
L 289.290793 192.254257 
L 289.463717 192.254257 
L 289.463717 187.538746 
L 289.621151 187.538746 
L 289.621151 182.823234 
L 290.371866 182.823234 
L 290.371866 178.107723 
L 290.404694 178.107723 
L 290.404694 173.392211 
L 290.951275 173.392211 
L 290.951275 168.6767 
L 294.085247 168.6767 
L 294.085247 163.961188 
L 294.264267 163.961188 
L 294.264267 159.245677 
L 294.910224 159.245677 
L 294.910224 154.530165 
L 296.121792 154.530165 
L 296.121792 149.814653 
L 307.842118 149.814653 
L 307.842118 145.099142 
L 308.453772 145.099142 
L 308.453772 140.38363 
L 311.690445 140.38363 
L 311.690445 135.668119 
L 317.77519 135.668119 
L 317.77519 130.952607 
L 318.043405 130.952607 
L 318.043405 126.237096 
L 318.490711 126.237096 
L 318.490711 121.521584 
L 319.734253 121.521584 
L 319.734253 116.806073 
L 319.839805 116.806073 
L 319.839805 112.090561 
L 320.038945 112.090561 
L 320.038945 107.37505 
L 320.524808 107.37505 
L 320.524808 102.659538 
L 320.930931 102.659538 
L 320.930931 97.944026 
L 321.452688 97.944026 
L 321.452688 93.228515 
L 321.987308 93.228515 
L 321.987308 88.513003 
L 324.488748 88.513003 
L 324.488748 83.797492 
L 326.555822 83.797492 
L 326.555822 79.08198 
L 327.621097 79.08198 
L 327.621097 74.366469 
L 327.639085 74.366469 
L 327.639085 69.650957 
L 339.63731 69.650957 
L 339.63731 64.935446 
L 342.079571 64.935446 
L 342.079571 60.219934 
L 342.612042 60.219934 
L 342.612042 55.504422 
L 343.004946 55.504422 
L 343.004946 50.788911 
L 343.021336 50.788911 
L 343.021336 46.073399 
L 343.860701 46.073399 
L 343.860701 41.357888 
L 346.787098 41.357888 
L 346.787098 36.642376 
L 347.683051 36.642376 
L 347.683051 31.926865 
L 349.017765 31.926865 
L 349.017765 27.211353 
L 349.390694 27.211353 
L 349.390694 22.495842 
L 349.397656 22.495842 
L 349.397656 17.78033 
L 353.405136 17.78033 
L 353.405136 13.064818 
L 353.489714 13.064818 
L 353.489714 8.349307 
L 353.489714 8.349307 
L 353.489714 8.349307 
L 450.672 8.349307 
" style="fill:none;stroke:#00bfbf;stroke-linecap:square;stroke-width:1.5;"/>
   </g>
   <g id="line2d_25">
    <path clip-path="url(#pa962f46be7)" d="M 266.500261 291.28 
L 266.500261 286.564488 
L 270.453755 286.564488 
L 270.453755 281.848977 
L 272.038012 281.848977 
L 272.038012 277.133465 
L 272.075432 277.133465 
L 272.075432 272.417954 
L 274.532501 272.417954 
L 274.532501 267.702442 
L 275.634784 267.702442 
L 275.634784 262.986931 
L 275.735124 262.986931 
L 275.735124 258.271419 
L 276.428036 258.271419 
L 276.428036 253.555908 
L 276.508417 253.555908 
L 276.508417 248.840396 
L 276.700333 248.840396 
L 276.700333 244.124884 
L 276.766405 244.124884 
L 276.766405 239.409373 
L 279.444722 239.409373 
L 279.444722 234.693861 
L 282.557935 234.693861 
L 282.557935 229.97835 
L 283.634568 229.97835 
L 283.634568 225.262838 
L 283.77903 225.262838 
L 283.77903 220.547327 
L 284.667113 220.547327 
L 284.667113 215.831815 
L 285.357007 215.831815 
L 285.357007 211.116304 
L 285.523694 211.116304 
L 285.523694 206.400792 
L 285.751253 206.400792 
L 285.751253 201.685281 
L 285.959401 201.685281 
L 285.959401 196.969769 
L 286.344109 196.969769 
L 286.344109 192.254257 
L 287.184545 192.254257 
L 287.184545 187.538746 
L 287.412316 187.538746 
L 287.412316 182.823234 
L 288.268848 182.823234 
L 288.268848 178.107723 
L 288.27715 178.107723 
L 288.27715 173.392211 
L 289.290793 173.392211 
L 289.290793 168.6767 
L 289.496042 168.6767 
L 289.496042 163.961188 
L 290.112514 163.961188 
L 290.112514 159.245677 
L 291.017703 159.245677 
L 291.017703 154.530165 
L 296.121792 154.530165 
L 296.121792 149.814653 
L 307.842118 149.814653 
L 307.842118 145.099142 
L 308.453772 145.099142 
L 308.453772 140.38363 
L 311.12156 140.38363 
L 311.12156 135.668119 
L 311.690445 135.668119 
L 311.690445 130.952607 
L 312.142065 130.952607 
L 312.142065 126.237096 
L 316.599815 126.237096 
L 316.599815 121.521584 
L 317.713039 121.521584 
L 317.713039 116.806073 
L 317.77519 116.806073 
L 317.77519 112.090561 
L 318.043405 112.090561 
L 318.043405 107.37505 
L 318.477919 107.37505 
L 318.477919 102.659538 
L 320.930931 102.659538 
L 320.930931 97.944026 
L 321.452688 97.944026 
L 321.452688 93.228515 
L 321.646906 93.228515 
L 321.646906 88.513003 
L 321.987308 88.513003 
L 321.987308 83.797492 
L 326.555822 83.797492 
L 326.555822 79.08198 
L 327.621097 79.08198 
L 327.621097 74.366469 
L 327.639085 74.366469 
L 327.639085 69.650957 
L 337.031641 69.650957 
L 337.031641 64.935446 
L 339.63731 64.935446 
L 339.63731 60.219934 
L 340.862138 60.219934 
L 340.862138 55.504422 
L 341.437071 55.504422 
L 341.437071 50.788911 
L 342.503654 50.788911 
L 342.503654 46.073399 
L 342.612042 46.073399 
L 342.612042 41.357888 
L 346.787098 41.357888 
L 346.787098 36.642376 
L 347.54224 36.642376 
L 347.54224 31.926865 
L 347.85043 31.926865 
L 347.85043 27.211353 
L 349.017765 27.211353 
L 349.017765 22.495842 
L 349.043659 22.495842 
L 349.043659 17.78033 
L 350.073009 17.78033 
L 350.073009 13.064818 
L 353.405136 13.064818 
L 353.405136 8.349307 
L 353.405136 8.349307 
L 353.405136 8.349307 
L 450.672 8.349307 
" style="fill:none;stroke:#bf00bf;stroke-linecap:square;stroke-width:1.5;"/>
   </g>
   <g id="line2d_26">
    <path clip-path="url(#pa962f46be7)" d="M 266.500261 291.28 
L 266.500261 286.564488 
L 268.980342 286.564488 
L 268.980342 281.848977 
L 269.368674 281.848977 
L 269.368674 277.133465 
L 270.586013 277.133465 
L 270.586013 272.417954 
L 272.018113 272.417954 
L 272.018113 267.702442 
L 272.509446 267.702442 
L 272.509446 262.986931 
L 273.658538 262.986931 
L 273.658538 258.271419 
L 275.634784 258.271419 
L 275.634784 253.555908 
L 275.735124 253.555908 
L 275.735124 248.840396 
L 276.428036 248.840396 
L 276.428036 244.124884 
L 276.670626 244.124884 
L 276.670626 239.409373 
L 276.700333 239.409373 
L 276.700333 234.693861 
L 279.444722 234.693861 
L 279.444722 229.97835 
L 279.628523 229.97835 
L 279.628523 225.262838 
L 281.274446 225.262838 
L 281.274446 220.547327 
L 282.227288 220.547327 
L 282.227288 215.831815 
L 282.525199 215.831815 
L 282.525199 211.116304 
L 282.577864 211.116304 
L 282.577864 206.400792 
L 283.670062 206.400792 
L 283.670062 201.685281 
L 284.24976 201.685281 
L 284.24976 196.969769 
L 284.431519 196.969769 
L 284.431519 192.254257 
L 284.667113 192.254257 
L 284.667113 187.538746 
L 284.859872 187.538746 
L 284.859872 182.823234 
L 285.357007 182.823234 
L 285.357007 178.107723 
L 285.523694 178.107723 
L 285.523694 173.392211 
L 286.487155 173.392211 
L 286.487155 168.6767 
L 286.521692 168.6767 
L 286.521692 163.961188 
L 286.72719 163.961188 
L 286.72719 159.245677 
L 287.412316 159.245677 
L 287.412316 154.530165 
L 287.414659 154.530165 
L 287.414659 149.814653 
L 307.842118 149.814653 
L 307.842118 145.099142 
L 308.453772 145.099142 
L 308.453772 140.38363 
L 309.199951 140.38363 
L 309.199951 135.668119 
L 311.12156 135.668119 
L 311.12156 130.952607 
L 312.142065 130.952607 
L 312.142065 126.237096 
L 314.629993 126.237096 
L 314.629993 121.521584 
L 315.424166 121.521584 
L 315.424166 116.806073 
L 316.401049 116.806073 
L 316.401049 112.090561 
L 316.794234 112.090561 
L 316.794234 107.37505 
L 318.056695 107.37505 
L 318.056695 102.659538 
L 318.477919 102.659538 
L 318.477919 97.944026 
L 319.01522 97.944026 
L 319.01522 93.228515 
L 320.930931 93.228515 
L 320.930931 88.513003 
L 321.180072 88.513003 
L 321.180072 83.797492 
L 321.859139 83.797492 
L 321.859139 79.08198 
L 322.690992 79.08198 
L 322.690992 74.366469 
L 326.555822 74.366469 
L 326.555822 69.650957 
L 335.031121 69.650957 
L 335.031121 64.935446 
L 337.519763 64.935446 
L 337.519763 60.219934 
L 337.581016 60.219934 
L 337.581016 55.504422 
L 338.281064 55.504422 
L 338.281064 50.788911 
L 339.516837 50.788911 
L 339.516837 46.073399 
L 341.229106 46.073399 
L 341.229106 41.357888 
L 341.857285 41.357888 
L 341.857285 36.642376 
L 342.718557 36.642376 
L 342.718557 31.926865 
L 347.228476 31.926865 
L 347.228476 27.211353 
L 348.072498 27.211353 
L 348.072498 22.495842 
L 349.043659 22.495842 
L 349.043659 17.78033 
L 350.073009 17.78033 
L 350.073009 13.064818 
L 351.521166 13.064818 
L 351.521166 8.349307 
L 351.521166 8.349307 
L 351.521166 8.349307 
L 450.672 8.349307 
" style="fill:none;stroke:#000000;stroke-linecap:square;stroke-width:1.5;"/>
   </g>
   <g id="line2d_27">
    <path clip-path="url(#pa962f46be7)" d="M 260.21318 291.28 
L 260.21318 286.564488 
L 260.421787 286.564488 
L 260.421787 281.848977 
L 260.857338 281.848977 
L 260.857338 277.133465 
L 264.009484 277.133465 
L 264.009484 272.417954 
L 264.174353 272.417954 
L 264.174353 267.702442 
L 264.528017 267.702442 
L 264.528017 262.986931 
L 268.618186 262.986931 
L 268.618186 258.271419 
L 268.639744 258.271419 
L 268.639744 253.555908 
L 269.006674 253.555908 
L 269.006674 248.840396 
L 269.281314 248.840396 
L 269.281314 244.124884 
L 271.185332 244.124884 
L 271.185332 239.409373 
L 271.3944 239.409373 
L 271.3944 234.693861 
L 272.509446 234.693861 
L 272.509446 229.97835 
L 276.428036 229.97835 
L 276.428036 225.262838 
L 276.523589 225.262838 
L 276.523589 220.547327 
L 277.787325 220.547327 
L 277.787325 215.831815 
L 278.076071 215.831815 
L 278.076071 211.116304 
L 278.274505 211.116304 
L 278.274505 206.400792 
L 279.628523 206.400792 
L 279.628523 201.685281 
L 279.722181 201.685281 
L 279.722181 196.969769 
L 279.820699 196.969769 
L 279.820699 192.254257 
L 279.918453 192.254257 
L 279.918453 187.538746 
L 280.666219 187.538746 
L 280.666219 182.823234 
L 281.669302 182.823234 
L 281.669302 178.107723 
L 282.020894 178.107723 
L 282.020894 173.392211 
L 282.042571 173.392211 
L 282.042571 168.6767 
L 282.227288 168.6767 
L 282.227288 163.961188 
L 282.52961 163.961188 
L 282.52961 159.245677 
L 282.577864 159.245677 
L 282.577864 154.530165 
L 283.605091 154.530165 
L 283.605091 149.814653 
L 302.431358 149.814653 
L 302.431358 145.099142 
L 304.186457 145.099142 
L 304.186457 140.38363 
L 305.584705 140.38363 
L 305.584705 135.668119 
L 306.939955 135.668119 
L 306.939955 130.952607 
L 307.542557 130.952607 
L 307.542557 126.237096 
L 310.044487 126.237096 
L 310.044487 121.521584 
L 311.062534 121.521584 
L 311.062534 116.806073 
L 311.115875 116.806073 
L 311.115875 112.090561 
L 311.12156 112.090561 
L 311.12156 107.37505 
L 311.716423 107.37505 
L 311.716423 102.659538 
L 313.168896 102.659538 
L 313.168896 97.944026 
L 313.169553 97.944026 
L 313.169553 93.228515 
L 316.464601 93.228515 
L 316.464601 88.513003 
L 317.949032 88.513003 
L 317.949032 83.797492 
L 318.303444 83.797492 
L 318.303444 79.08198 
L 321.180072 79.08198 
L 321.180072 74.366469 
L 323.632618 74.366469 
L 323.632618 69.650957 
L 325.667392 69.650957 
L 325.667392 64.935446 
L 333.144188 64.935446 
L 333.144188 60.219934 
L 334.942988 60.219934 
L 334.942988 55.504422 
L 335.684131 55.504422 
L 335.684131 50.788911 
L 335.776724 50.788911 
L 335.776724 46.073399 
L 338.233443 46.073399 
L 338.233443 41.357888 
L 338.242601 41.357888 
L 338.242601 36.642376 
L 338.346797 36.642376 
L 338.346797 31.926865 
L 338.467471 31.926865 
L 338.467471 27.211353 
L 341.192647 27.211353 
L 341.192647 22.495842 
L 343.067678 22.495842 
L 343.067678 17.78033 
L 347.784766 17.78033 
L 347.784766 13.064818 
L 350.108819 13.064818 
L 350.108819 8.349307 
L 350.108819 8.349307 
L 350.108819 8.349307 
L 450.672 8.349307 
" style="fill:none;stroke:#00bfbf;stroke-linecap:square;stroke-width:1.5;"/>
   </g>
   <g id="line2d_28">
    <path clip-path="url(#pa962f46be7)" d="M 248.807798 291.28 
L 248.807798 286.564488 
L 250.876772 286.564488 
L 250.876772 281.848977 
L 251.593818 281.848977 
L 251.593818 277.133465 
L 253.550126 277.133465 
L 253.550126 272.417954 
L 255.59748 272.417954 
L 255.59748 267.702442 
L 256.117311 267.702442 
L 256.117311 262.986931 
L 256.500168 262.986931 
L 256.500168 258.271419 
L 256.54451 258.271419 
L 256.54451 253.555908 
L 256.731754 253.555908 
L 256.731754 248.840396 
L 256.872788 248.840396 
L 256.872788 244.124884 
L 256.969956 244.124884 
L 256.969956 239.409373 
L 257.198406 239.409373 
L 257.198406 234.693861 
L 257.199794 234.693861 
L 257.199794 229.97835 
L 257.448354 229.97835 
L 257.448354 225.262838 
L 257.565142 225.262838 
L 257.565142 220.547327 
L 257.764284 220.547327 
L 257.764284 215.831815 
L 258.240641 215.831815 
L 258.240641 211.116304 
L 258.748263 211.116304 
L 258.748263 206.400792 
L 259.135019 206.400792 
L 259.135019 201.685281 
L 259.221267 201.685281 
L 259.221267 196.969769 
L 259.232113 196.969769 
L 259.232113 192.254257 
L 259.260049 192.254257 
L 259.260049 187.538746 
L 259.406616 187.538746 
L 259.406616 182.823234 
L 260.044688 182.823234 
L 260.044688 178.107723 
L 261.666588 178.107723 
L 261.666588 173.392211 
L 262.017936 173.392211 
L 262.017936 168.6767 
L 262.119026 168.6767 
L 262.119026 163.961188 
L 262.723347 163.961188 
L 262.723347 159.245677 
L 263.504706 159.245677 
L 263.504706 154.530165 
L 266.293691 154.530165 
L 266.293691 149.814653 
L 269.260975 149.814653 
L 269.260975 145.099142 
L 269.915235 145.099142 
L 269.915235 140.38363 
L 270.712057 140.38363 
L 270.712057 135.668119 
L 275.701934 135.668119 
L 275.701934 130.952607 
L 279.018057 130.952607 
L 279.018057 126.237096 
L 281.846062 126.237096 
L 281.846062 121.521584 
L 282.698205 121.521584 
L 282.698205 116.806073 
L 282.701371 116.806073 
L 282.701371 112.090561 
L 283.331226 112.090561 
L 283.331226 107.37505 
L 283.367517 107.37505 
L 283.367517 102.659538 
L 283.576779 102.659538 
L 283.576779 97.944026 
L 284.105067 97.944026 
L 284.105067 93.228515 
L 284.328167 93.228515 
L 284.328167 88.513003 
L 284.59082 88.513003 
L 284.59082 83.797492 
L 285.395329 83.797492 
L 285.395329 79.08198 
L 286.441563 79.08198 
L 286.441563 74.366469 
L 286.550619 74.366469 
L 286.550619 69.650957 
L 287.228075 69.650957 
L 287.228075 64.935446 
L 287.487983 64.935446 
L 287.487983 60.219934 
L 289.022586 60.219934 
L 289.022586 55.504422 
L 289.600104 55.504422 
L 289.600104 50.788911 
L 290.526617 50.788911 
L 290.526617 46.073399 
L 293.016984 46.073399 
L 293.016984 41.357888 
L 293.486505 41.357888 
L 293.486505 36.642376 
L 294.435145 36.642376 
L 294.435145 31.926865 
L 295.193294 31.926865 
L 295.193294 27.211353 
L 295.760496 27.211353 
L 295.760496 22.495842 
L 296.806465 22.495842 
L 296.806465 17.78033 
L 298.13601 17.78033 
L 298.13601 13.064818 
L 300.940898 13.064818 
L 300.940898 8.349307 
L 300.940898 8.349307 
L 300.940898 8.349307 
L 450.672 8.349307 
" style="fill:none;stroke:#bf00bf;stroke-linecap:square;stroke-width:1.5;"/>
   </g>
   <g id="line2d_29">
    <path clip-path="url(#pa962f46be7)" d="M 208.307258 291.28 
L 208.307258 286.564488 
L 209.158761 286.564488 
L 209.158761 281.848977 
L 210.288295 281.848977 
L 210.288295 277.133465 
L 211.636003 277.133465 
L 211.636003 272.417954 
L 214.11858 272.417954 
L 214.11858 267.702442 
L 214.779974 267.702442 
L 214.779974 262.986931 
L 215.90312 262.986931 
L 215.90312 258.271419 
L 216.374697 258.271419 
L 216.374697 253.555908 
L 218.933668 253.555908 
L 218.933668 248.840396 
L 219.932265 248.840396 
L 219.932265 244.124884 
L 221.102274 244.124884 
L 221.102274 239.409373 
L 223.235767 239.409373 
L 223.235767 234.693861 
L 223.778983 234.693861 
L 223.778983 229.97835 
L 224.642367 229.97835 
L 224.642367 225.262838 
L 226.255189 225.262838 
L 226.255189 220.547327 
L 235.731033 220.547327 
L 235.731033 215.831815 
L 235.80877 215.831815 
L 235.80877 211.116304 
L 235.819187 211.116304 
L 235.819187 206.400792 
L 235.934771 206.400792 
L 235.934771 201.685281 
L 235.953788 201.685281 
L 235.953788 196.969769 
L 235.989235 196.969769 
L 235.989235 192.254257 
L 236.015706 192.254257 
L 236.015706 187.538746 
L 236.022362 187.538746 
L 236.022362 182.823234 
L 236.025718 182.823234 
L 236.025718 178.107723 
L 236.083864 178.107723 
L 236.083864 173.392211 
L 236.090025 173.392211 
L 236.090025 168.6767 
L 236.092715 168.6767 
L 236.092715 163.961188 
L 236.111054 163.961188 
L 236.111054 159.245677 
L 236.1458 159.245677 
L 236.1458 154.530165 
L 236.168568 154.530165 
L 236.168568 149.814653 
L 236.193495 149.814653 
L 236.193495 145.099142 
L 236.203713 145.099142 
L 236.203713 140.38363 
L 236.216766 140.38363 
L 236.216766 135.668119 
L 236.228754 135.668119 
L 236.228754 130.952607 
L 236.23186 130.952607 
L 236.23186 126.237096 
L 236.249401 126.237096 
L 236.249401 121.521584 
L 236.286155 121.521584 
L 236.286155 116.806073 
L 236.292412 116.806073 
L 236.292412 112.090561 
L 236.334687 112.090561 
L 236.334687 107.37505 
L 236.35988 107.37505 
L 236.35988 102.659538 
L 236.378941 102.659538 
L 236.378941 97.944026 
L 236.386768 97.944026 
L 236.386768 93.228515 
L 236.438633 93.228515 
L 236.438633 88.513003 
L 236.490698 88.513003 
L 236.490698 83.797492 
L 236.678219 83.797492 
L 236.678219 79.08198 
L 247.157662 79.08198 
L 247.157662 74.366469 
L 252.299893 74.366469 
L 252.299893 69.650957 
L 253.564752 69.650957 
L 253.564752 64.935446 
L 254.967618 64.935446 
L 254.967618 60.219934 
L 256.657339 60.219934 
L 256.657339 55.504422 
L 268.644788 55.504422 
L 268.644788 50.788911 
L 273.3837 50.788911 
L 273.3837 46.073399 
L 275.666047 46.073399 
L 275.666047 41.357888 
L 275.701934 41.357888 
L 275.701934 36.642376 
L 281.475463 36.642376 
L 281.475463 31.926865 
L 283.110124 31.926865 
L 283.110124 27.211353 
L 287.487983 27.211353 
L 287.487983 22.495842 
L 294.435145 22.495842 
L 294.435145 17.78033 
L 298.13601 17.78033 
L 298.13601 13.064818 
L 300.940898 13.064818 
L 300.940898 8.349307 
L 300.940898 8.349307 
L 300.940898 8.349307 
L 450.672 8.349307 
" style="fill:none;stroke:#000000;stroke-linecap:square;stroke-width:1.5;"/>
   </g>
   <g id="line2d_30">
    <path clip-path="url(#pa962f46be7)" d="M -1 220.547327 
L 208.307258 220.547327 
L 208.307258 215.831815 
L 209.158761 215.831815 
L 209.158761 211.116304 
L 210.153445 211.116304 
L 210.153445 206.400792 
L 211.636003 206.400792 
L 211.636003 201.685281 
L 214.11858 201.685281 
L 214.11858 196.969769 
L 214.779974 196.969769 
L 214.779974 192.254257 
L 215.90312 192.254257 
L 215.90312 187.538746 
L 216.374697 187.538746 
L 216.374697 182.823234 
L 218.933668 182.823234 
L 218.933668 178.107723 
L 219.932265 178.107723 
L 219.932265 173.392211 
L 221.102274 173.392211 
L 221.102274 168.6767 
L 223.230743 168.6767 
L 223.230743 163.961188 
L 223.778983 163.961188 
L 223.778983 159.245677 
L 224.642367 159.245677 
L 224.642367 154.530165 
L 225.714167 154.530165 
L 225.714167 149.814653 
L 225.77013 149.814653 
L 225.77013 145.099142 
L 225.795275 145.099142 
L 225.795275 140.38363 
L 225.808356 140.38363 
L 225.808356 135.668119 
L 225.82071 135.668119 
L 225.82071 130.952607 
L 225.8267 130.952607 
L 225.8267 126.237096 
L 225.975299 126.237096 
L 225.975299 121.521584 
L 226.033948 121.521584 
L 226.033948 116.806073 
L 226.034462 116.806073 
L 226.034462 112.090561 
L 226.091964 112.090561 
L 226.091964 107.37505 
L 226.110957 107.37505 
L 226.110957 102.659538 
L 226.112451 102.659538 
L 226.112451 97.944026 
L 226.136154 97.944026 
L 226.136154 93.228515 
L 226.159537 93.228515 
L 226.159537 88.513003 
L 226.187847 88.513003 
L 226.187847 83.797492 
L 226.210967 83.797492 
L 226.210967 79.08198 
L 226.218694 79.08198 
L 226.218694 74.366469 
L 226.227485 74.366469 
L 226.227485 69.650957 
L 226.255189 69.650957 
L 226.255189 64.935446 
L 226.296333 64.935446 
L 226.296333 60.219934 
L 226.300433 60.219934 
L 226.300433 55.504422 
L 226.306422 55.504422 
L 226.306422 50.788911 
L 226.327219 50.788911 
L 226.327219 46.073399 
L 226.32858 46.073399 
L 226.32858 41.357888 
L 226.40153 41.357888 
L 226.40153 36.642376 
L 226.458414 36.642376 
L 226.458414 31.926865 
L 226.460468 31.926865 
L 226.460468 27.211353 
L 226.463247 27.211353 
L 226.463247 22.495842 
L 226.527922 22.495842 
L 226.527922 17.78033 
L 226.621307 17.78033 
L 226.621307 13.064818 
L 226.673851 13.064818 
L 226.673851 8.349307 
L 226.673851 8.349307 
L 226.673851 8.349307 
L 450.672 8.349307 
" style="fill:none;stroke:#00bfbf;stroke-linecap:square;stroke-width:1.5;"/>
   </g>
   <g id="patch_3">
    <path d="M 5.52 291.28 
L 5.52 5.52 
" style="fill:none;stroke:#000000;stroke-linecap:square;stroke-linejoin:miter;stroke-width:0.8;"/>
   </g>
   <g id="patch_4">
    <path d="M 450.672 291.28 
L 450.672 5.52 
" style="fill:none;stroke:#000000;stroke-linecap:square;stroke-linejoin:miter;stroke-width:0.8;"/>
   </g>
   <g id="patch_5">
    <path d="M 5.52 291.28 
L 450.672 291.28 
" style="fill:none;stroke:#000000;stroke-linecap:square;stroke-linejoin:miter;stroke-width:0.8;"/>
   </g>
   <g id="patch_6">
    <path d="M 5.52 5.52 
L 450.672 5.52 
" style="fill:none;stroke:#000000;stroke-linecap:square;stroke-linejoin:miter;stroke-width:0.8;"/>
   </g>
   <g id="text_6">
    <!-- {f6-f9}, 20-D -->
    <defs>
     <path d="M 51.125 -9.28125 
L 51.125 -16.3125 
L 48.09375 -16.3125 
Q 35.9375 -16.3125 31.8125 -12.6875 
Q 27.6875 -9.078125 27.6875 1.703125 
L 27.6875 13.375 
Q 27.6875 20.75 25.046875 23.578125 
Q 22.40625 26.421875 15.484375 26.421875 
L 12.5 26.421875 
L 12.5 33.40625 
L 15.484375 33.40625 
Q 22.46875 33.40625 25.078125 36.203125 
Q 27.6875 39.015625 27.6875 46.296875 
L 27.6875 58.015625 
Q 27.6875 68.796875 31.8125 72.390625 
Q 35.9375 75.984375 48.09375 75.984375 
L 51.125 75.984375 
L 51.125 69 
L 47.796875 69 
Q 40.921875 69 38.8125 66.84375 
Q 36.71875 64.703125 36.71875 57.8125 
L 36.71875 45.703125 
Q 36.71875 38.03125 34.5 34.5625 
Q 32.28125 31.109375 26.90625 29.890625 
Q 32.328125 28.5625 34.515625 25.09375 
Q 36.71875 21.625 36.71875 14.015625 
L 36.71875 1.90625 
Q 36.71875 -4.984375 38.8125 -7.125 
Q 40.921875 -9.28125 47.796875 -9.28125 
z
" id="DejaVuSans-7b"/>
     <path d="M 33.015625 40.375 
Q 26.375 40.375 22.484375 35.828125 
Q 18.609375 31.296875 18.609375 23.390625 
Q 18.609375 15.53125 22.484375 10.953125 
Q 26.375 6.390625 33.015625 6.390625 
Q 39.65625 6.390625 43.53125 10.953125 
Q 47.40625 15.53125 47.40625 23.390625 
Q 47.40625 31.296875 43.53125 35.828125 
Q 39.65625 40.375 33.015625 40.375 
z
M 52.59375 71.296875 
L 52.59375 62.3125 
Q 48.875 64.0625 45.09375 64.984375 
Q 41.3125 65.921875 37.59375 65.921875 
Q 27.828125 65.921875 22.671875 59.328125 
Q 17.53125 52.734375 16.796875 39.40625 
Q 19.671875 43.65625 24.015625 45.921875 
Q 28.375 48.1875 33.59375 48.1875 
Q 44.578125 48.1875 50.953125 41.515625 
Q 57.328125 34.859375 57.328125 23.390625 
Q 57.328125 12.15625 50.6875 5.359375 
Q 44.046875 -1.421875 33.015625 -1.421875 
Q 20.359375 -1.421875 13.671875 8.265625 
Q 6.984375 17.96875 6.984375 36.375 
Q 6.984375 53.65625 15.1875 63.9375 
Q 23.390625 74.21875 37.203125 74.21875 
Q 40.921875 74.21875 44.703125 73.484375 
Q 48.484375 72.75 52.59375 71.296875 
z
" id="DejaVuSans-36"/>
     <path d="M 10.984375 1.515625 
L 10.984375 10.5 
Q 14.703125 8.734375 18.5 7.8125 
Q 22.3125 6.890625 25.984375 6.890625 
Q 35.75 6.890625 40.890625 13.453125 
Q 46.046875 20.015625 46.78125 33.40625 
Q 43.953125 29.203125 39.59375 26.953125 
Q 35.25 24.703125 29.984375 24.703125 
Q 19.046875 24.703125 12.671875 31.3125 
Q 6.296875 37.9375 6.296875 49.421875 
Q 6.296875 60.640625 12.9375 67.421875 
Q 19.578125 74.21875 30.609375 74.21875 
Q 43.265625 74.21875 49.921875 64.515625 
Q 56.59375 54.828125 56.59375 36.375 
Q 56.59375 19.140625 48.40625 8.859375 
Q 40.234375 -1.421875 26.421875 -1.421875 
Q 22.703125 -1.421875 18.890625 -0.6875 
Q 15.09375 0.046875 10.984375 1.515625 
z
M 30.609375 32.421875 
Q 37.25 32.421875 41.125 36.953125 
Q 45.015625 41.5 45.015625 49.421875 
Q 45.015625 57.28125 41.125 61.84375 
Q 37.25 66.40625 30.609375 66.40625 
Q 23.96875 66.40625 20.09375 61.84375 
Q 16.21875 57.28125 16.21875 49.421875 
Q 16.21875 41.5 20.09375 36.953125 
Q 23.96875 32.421875 30.609375 32.421875 
z
" id="DejaVuSans-39"/>
     <path d="M 12.5 -9.28125 
L 15.921875 -9.28125 
Q 22.75 -9.28125 24.828125 -7.171875 
Q 26.90625 -5.078125 26.90625 1.90625 
L 26.90625 14.015625 
Q 26.90625 21.625 29.09375 25.09375 
Q 31.296875 28.5625 36.71875 29.890625 
Q 31.296875 31.109375 29.09375 34.5625 
Q 26.90625 38.03125 26.90625 45.703125 
L 26.90625 57.8125 
Q 26.90625 64.75 24.828125 66.875 
Q 22.75 69 15.921875 69 
L 12.5 69 
L 12.5 75.984375 
L 15.578125 75.984375 
Q 27.734375 75.984375 31.8125 72.390625 
Q 35.890625 68.796875 35.890625 58.015625 
L 35.890625 46.296875 
Q 35.890625 39.015625 38.515625 36.203125 
Q 41.15625 33.40625 48.09375 33.40625 
L 51.125 33.40625 
L 51.125 26.421875 
L 48.09375 26.421875 
Q 41.15625 26.421875 38.515625 23.578125 
Q 35.890625 20.75 35.890625 13.375 
L 35.890625 1.703125 
Q 35.890625 -9.078125 31.8125 -12.6875 
Q 27.734375 -16.3125 15.578125 -16.3125 
L 12.5 -16.3125 
z
" id="DejaVuSans-7d"/>
     <path d="M 11.71875 12.40625 
L 22.015625 12.40625 
L 22.015625 4 
L 14.015625 -11.625 
L 7.71875 -11.625 
L 11.71875 4 
z
" id="DejaVuSans-2c"/>
     <path d="M 19.1875 8.296875 
L 53.609375 8.296875 
L 53.609375 0 
L 7.328125 0 
L 7.328125 8.296875 
Q 12.9375 14.109375 22.625 23.890625 
Q 32.328125 33.6875 34.8125 36.53125 
Q 39.546875 41.84375 41.421875 45.53125 
Q 43.3125 49.21875 43.3125 52.78125 
Q 43.3125 58.59375 39.234375 62.25 
Q 35.15625 65.921875 28.609375 65.921875 
Q 23.96875 65.921875 18.8125 64.3125 
Q 13.671875 62.703125 7.8125 59.421875 
L 7.8125 69.390625 
Q 13.765625 71.78125 18.9375 73 
Q 24.125 74.21875 28.421875 74.21875 
Q 39.75 74.21875 46.484375 68.546875 
Q 53.21875 62.890625 53.21875 53.421875 
Q 53.21875 48.921875 51.53125 44.890625 
Q 49.859375 40.875 45.40625 35.40625 
Q 44.1875 33.984375 37.640625 27.21875 
Q 31.109375 20.453125 19.1875 8.296875 
z
" id="DejaVuSans-32"/>
    </defs>
    <g transform="translate(308.79396 285.5648)scale(0.2 -0.2)">
     <use xlink:href="#DejaVuSans-7b"/>
     <use x="63.623047" xlink:href="#DejaVuSans-66"/>
     <use x="98.828125" xlink:href="#DejaVuSans-36"/>
     <use x="162.451172" xlink:href="#DejaVuSans-2d"/>
     <use x="198.535156" xlink:href="#DejaVuSans-66"/>
     <use x="233.740234" xlink:href="#DejaVuSans-39"/>
     <use x="297.363281" xlink:href="#DejaVuSans-7d"/>
     <use x="360.986328" xlink:href="#DejaVuSans-2c"/>
     <use x="392.773438" xlink:href="#DejaVuSans-20"/>
     <use x="424.560547" xlink:href="#DejaVuSans-32"/>
     <use x="488.183594" xlink:href="#DejaVuSans-30"/>
     <use x="551.806641" xlink:href="#DejaVuSans-2d"/>
     <use x="587.890625" xlink:href="#DejaVuSans-44"/>
    </g>
   </g>
   <g id="text_7">
    <!-- v0.0.0 -->
    <defs>
     <path d="M 2.984375 54.6875 
L 12.5 54.6875 
L 29.59375 8.796875 
L 46.6875 54.6875 
L 56.203125 54.6875 
L 35.6875 0 
L 23.484375 0 
z
" id="DejaVuSans-76"/>
     <path d="M 10.6875 12.40625 
L 21 12.40625 
L 21 0 
L 10.6875 0 
z
" id="DejaVuSans-2e"/>
    </defs>
    <g style="fill:#808080;" transform="translate(212.41475 286.342713)scale(0.1 -0.1)">
     <use xlink:href="#DejaVuSans-76"/>
     <use x="59.179688" xlink:href="#DejaVuSans-30"/>
     <use x="122.802734" xlink:href="#DejaVuSans-2e"/>
     <use x="154.589844" xlink:href="#DejaVuSans-30"/>
     <use x="218.212891" xlink:href="#DejaVuSans-2e"/>
     <use x="250" xlink:href="#DejaVuSans-30"/>
    </g>
   </g>
  </g>
 </g>
 <defs>
  <clipPath id="pa962f46be7">
   <rect height="285.76" width="445.152" x="5.52" y="5.52"/>
  </clipPath>
 </defs>
</svg>
