<?xml version="1.0" encoding="utf-8" standalone="no"?>
<!DOCTYPE svg PUBLIC "-//W3C//DTD SVG 1.1//EN"
  "http://www.w3.org/Graphics/SVG/1.1/DTD/svg11.dtd">
<!-- Created with matplotlib (http://matplotlib.org/) -->
<svg height="345.6pt" version="1.1" viewBox="0 0 460.8 345.6" width="460.8pt" xmlns="http://www.w3.org/2000/svg" xmlns:xlink="http://www.w3.org/1999/xlink">
 <defs>
  <style type="text/css">
*{stroke-linecap:butt;stroke-linejoin:round;}
  </style>
 </defs>
 <g id="figure_1">
  <g id="patch_1">
   <path d="M 0 345.6 
L 460.8 345.6 
L 460.8 0 
L 0 0 
z
" style="fill:#ffffff;"/>
  </g>
  <g id="axes_1">
   <g id="patch_2">
    <path d="M 5.52 291.28 
L 450.672 291.28 
L 450.672 5.52 
L 5.52 5.52 
z
" style="fill:#ffffff;"/>
   </g>
   <g id="matplotlib.axis_1">
    <g id="xtick_1">
     <g id="line2d_1">
      <path clip-path="url(#pab6e0daaa9)" d="M 5.410562 291.28 
L 5.410562 5.52 
" style="fill:none;stroke:#b0b0b0;stroke-linecap:square;stroke-width:0.8;"/>
     </g>
     <g id="line2d_2">
      <defs>
       <path d="M 0 0 
L 0 3.5 
" id="m6c86edd77f" style="stroke:#000000;stroke-width:0.8;"/>
      </defs>
      <g>
       <use style="stroke:#000000;stroke-width:0.8;" x="5.410562" xlink:href="#m6c86edd77f" y="291.28"/>
      </g>
     </g>
    </g>
    <g id="xtick_2">
     <g id="line2d_3">
      <path clip-path="url(#pab6e0daaa9)" d="M 106.710074 291.28 
L 106.710074 5.52 
" style="fill:none;stroke:#b0b0b0;stroke-linecap:square;stroke-width:0.8;"/>
     </g>
     <g id="line2d_4">
      <g>
       <use style="stroke:#000000;stroke-width:0.8;" x="106.710074" xlink:href="#m6c86edd77f" y="291.28"/>
      </g>
     </g>
     <g id="text_1">
      <!-- -4 -->
      <defs>
       <path d="M 4.890625 31.390625 
L 31.203125 31.390625 
L 31.203125 23.390625 
L 4.890625 23.390625 
z
" id="DejaVuSans-2d"/>
       <path d="M 37.796875 64.3125 
L 12.890625 25.390625 
L 37.796875 25.390625 
z
M 35.203125 72.90625 
L 47.609375 72.90625 
L 47.609375 25.390625 
L 58.015625 25.390625 
L 58.015625 17.1875 
L 47.609375 17.1875 
L 47.609375 0 
L 37.796875 0 
L 37.796875 17.1875 
L 4.890625 17.1875 
L 4.890625 26.703125 
z
" id="DejaVuSans-34"/>
      </defs>
      <g transform="translate(96.739762 313.476875)scale(0.2 -0.2)">
       <use xlink:href="#DejaVuSans-2d"/>
       <use x="36.083984" xlink:href="#DejaVuSans-34"/>
      </g>
     </g>
    </g>
    <g id="xtick_3">
     <g id="line2d_5">
      <path clip-path="url(#pab6e0daaa9)" d="M 208.009586 291.28 
L 208.009586 5.52 
" style="fill:none;stroke:#b0b0b0;stroke-linecap:square;stroke-width:0.8;"/>
     </g>
     <g id="line2d_6">
      <g>
       <use style="stroke:#000000;stroke-width:0.8;" x="208.009586" xlink:href="#m6c86edd77f" y="291.28"/>
      </g>
     </g>
     <g id="text_2">
      <!-- 0 -->
      <defs>
       <path d="M 31.78125 66.40625 
Q 24.171875 66.40625 20.328125 58.90625 
Q 16.5 51.421875 16.5 36.375 
Q 16.5 21.390625 20.328125 13.890625 
Q 24.171875 6.390625 31.78125 6.390625 
Q 39.453125 6.390625 43.28125 13.890625 
Q 47.125 21.390625 47.125 36.375 
Q 47.125 51.421875 43.28125 58.90625 
Q 39.453125 66.40625 31.78125 66.40625 
z
M 31.78125 74.21875 
Q 44.046875 74.21875 50.515625 64.515625 
Q 56.984375 54.828125 56.984375 36.375 
Q 56.984375 17.96875 50.515625 8.265625 
Q 44.046875 -1.421875 31.78125 -1.421875 
Q 19.53125 -1.421875 13.0625 8.265625 
Q 6.59375 17.96875 6.59375 36.375 
Q 6.59375 54.828125 13.0625 64.515625 
Q 19.53125 74.21875 31.78125 74.21875 
z
" id="DejaVuSans-30"/>
      </defs>
      <g transform="translate(201.647086 313.476875)scale(0.2 -0.2)">
       <use xlink:href="#DejaVuSans-30"/>
      </g>
     </g>
    </g>
    <g id="xtick_4">
     <g id="line2d_7">
      <path clip-path="url(#pab6e0daaa9)" d="M 309.309099 291.28 
L 309.309099 5.52 
" style="fill:none;stroke:#b0b0b0;stroke-linecap:square;stroke-width:0.8;"/>
     </g>
     <g id="line2d_8">
      <g>
       <use style="stroke:#000000;stroke-width:0.8;" x="309.309099" xlink:href="#m6c86edd77f" y="291.28"/>
      </g>
     </g>
     <g id="text_3">
      <!-- 4 -->
      <g transform="translate(302.946599 313.476875)scale(0.2 -0.2)">
       <use xlink:href="#DejaVuSans-34"/>
      </g>
     </g>
    </g>
    <g id="xtick_5">
     <g id="line2d_9">
      <path clip-path="url(#pab6e0daaa9)" d="M 410.608611 291.28 
L 410.608611 5.52 
" style="fill:none;stroke:#b0b0b0;stroke-linecap:square;stroke-width:0.8;"/>
     </g>
     <g id="line2d_10">
      <g>
       <use style="stroke:#000000;stroke-width:0.8;" x="410.608611" xlink:href="#m6c86edd77f" y="291.28"/>
      </g>
     </g>
     <g id="text_4">
      <!-- 8 -->
      <defs>
       <path d="M 31.78125 34.625 
Q 24.75 34.625 20.71875 30.859375 
Q 16.703125 27.09375 16.703125 20.515625 
Q 16.703125 13.921875 20.71875 10.15625 
Q 24.75 6.390625 31.78125 6.390625 
Q 38.8125 6.390625 42.859375 10.171875 
Q 46.921875 13.96875 46.921875 20.515625 
Q 46.921875 27.09375 42.890625 30.859375 
Q 38.875 34.625 31.78125 34.625 
z
M 21.921875 38.8125 
Q 15.578125 40.375 12.03125 44.71875 
Q 8.5 49.078125 8.5 55.328125 
Q 8.5 64.0625 14.71875 69.140625 
Q 20.953125 74.21875 31.78125 74.21875 
Q 42.671875 74.21875 48.875 69.140625 
Q 55.078125 64.0625 55.078125 55.328125 
Q 55.078125 49.078125 51.53125 44.71875 
Q 48 40.375 41.703125 38.8125 
Q 48.828125 37.15625 52.796875 32.3125 
Q 56.78125 27.484375 56.78125 20.515625 
Q 56.78125 9.90625 50.3125 4.234375 
Q 43.84375 -1.421875 31.78125 -1.421875 
Q 19.734375 -1.421875 13.25 4.234375 
Q 6.78125 9.90625 6.78125 20.515625 
Q 6.78125 27.484375 10.78125 32.3125 
Q 14.796875 37.15625 21.921875 38.8125 
z
M 18.3125 54.390625 
Q 18.3125 48.734375 21.84375 45.5625 
Q 25.390625 42.390625 31.78125 42.390625 
Q 38.140625 42.390625 41.71875 45.5625 
Q 45.3125 48.734375 45.3125 54.390625 
Q 45.3125 60.0625 41.71875 63.234375 
Q 38.140625 66.40625 31.78125 66.40625 
Q 25.390625 66.40625 21.84375 63.234375 
Q 18.3125 60.0625 18.3125 54.390625 
z
" id="DejaVuSans-38"/>
      </defs>
      <g transform="translate(404.246111 313.476875)scale(0.2 -0.2)">
       <use xlink:href="#DejaVuSans-38"/>
      </g>
     </g>
    </g>
    <g id="text_5">
     <!-- log10 of Df -->
     <defs>
      <path d="M 9.421875 75.984375 
L 18.40625 75.984375 
L 18.40625 0 
L 9.421875 0 
z
" id="DejaVuSans-6c"/>
      <path d="M 30.609375 48.390625 
Q 23.390625 48.390625 19.1875 42.75 
Q 14.984375 37.109375 14.984375 27.296875 
Q 14.984375 17.484375 19.15625 11.84375 
Q 23.34375 6.203125 30.609375 6.203125 
Q 37.796875 6.203125 41.984375 11.859375 
Q 46.1875 17.53125 46.1875 27.296875 
Q 46.1875 37.015625 41.984375 42.703125 
Q 37.796875 48.390625 30.609375 48.390625 
z
M 30.609375 56 
Q 42.328125 56 49.015625 48.375 
Q 55.71875 40.765625 55.71875 27.296875 
Q 55.71875 13.875 49.015625 6.21875 
Q 42.328125 -1.421875 30.609375 -1.421875 
Q 18.84375 -1.421875 12.171875 6.21875 
Q 5.515625 13.875 5.515625 27.296875 
Q 5.515625 40.765625 12.171875 48.375 
Q 18.84375 56 30.609375 56 
z
" id="DejaVuSans-6f"/>
      <path d="M 45.40625 27.984375 
Q 45.40625 37.75 41.375 43.109375 
Q 37.359375 48.484375 30.078125 48.484375 
Q 22.859375 48.484375 18.828125 43.109375 
Q 14.796875 37.75 14.796875 27.984375 
Q 14.796875 18.265625 18.828125 12.890625 
Q 22.859375 7.515625 30.078125 7.515625 
Q 37.359375 7.515625 41.375 12.890625 
Q 45.40625 18.265625 45.40625 27.984375 
z
M 54.390625 6.78125 
Q 54.390625 -7.171875 48.1875 -13.984375 
Q 42 -20.796875 29.203125 -20.796875 
Q 24.46875 -20.796875 20.265625 -20.09375 
Q 16.0625 -19.390625 12.109375 -17.921875 
L 12.109375 -9.1875 
Q 16.0625 -11.328125 19.921875 -12.34375 
Q 23.78125 -13.375 27.78125 -13.375 
Q 36.625 -13.375 41.015625 -8.765625 
Q 45.40625 -4.15625 45.40625 5.171875 
L 45.40625 9.625 
Q 42.625 4.78125 38.28125 2.390625 
Q 33.9375 0 27.875 0 
Q 17.828125 0 11.671875 7.65625 
Q 5.515625 15.328125 5.515625 27.984375 
Q 5.515625 40.671875 11.671875 48.328125 
Q 17.828125 56 27.875 56 
Q 33.9375 56 38.28125 53.609375 
Q 42.625 51.21875 45.40625 46.390625 
L 45.40625 54.6875 
L 54.390625 54.6875 
z
" id="DejaVuSans-67"/>
      <path d="M 12.40625 8.296875 
L 28.515625 8.296875 
L 28.515625 63.921875 
L 10.984375 60.40625 
L 10.984375 69.390625 
L 28.421875 72.90625 
L 38.28125 72.90625 
L 38.28125 8.296875 
L 54.390625 8.296875 
L 54.390625 0 
L 12.40625 0 
z
" id="DejaVuSans-31"/>
      <path id="DejaVuSans-20"/>
      <path d="M 37.109375 75.984375 
L 37.109375 68.5 
L 28.515625 68.5 
Q 23.6875 68.5 21.796875 66.546875 
Q 19.921875 64.59375 19.921875 59.515625 
L 19.921875 54.6875 
L 34.71875 54.6875 
L 34.71875 47.703125 
L 19.921875 47.703125 
L 19.921875 0 
L 10.890625 0 
L 10.890625 47.703125 
L 2.296875 47.703125 
L 2.296875 54.6875 
L 10.890625 54.6875 
L 10.890625 58.5 
Q 10.890625 67.625 15.140625 71.796875 
Q 19.390625 75.984375 28.609375 75.984375 
z
" id="DejaVuSans-66"/>
      <path d="M 19.671875 64.796875 
L 19.671875 8.109375 
L 31.59375 8.109375 
Q 46.6875 8.109375 53.6875 14.9375 
Q 60.6875 21.78125 60.6875 36.53125 
Q 60.6875 51.171875 53.6875 57.984375 
Q 46.6875 64.796875 31.59375 64.796875 
z
M 9.8125 72.90625 
L 30.078125 72.90625 
Q 51.265625 72.90625 61.171875 64.09375 
Q 71.09375 55.28125 71.09375 36.53125 
Q 71.09375 17.671875 61.125 8.828125 
Q 51.171875 0 30.078125 0 
L 9.8125 0 
z
" id="DejaVuSans-44"/>
     </defs>
     <g transform="translate(172.910063 336.833125)scale(0.2 -0.2)">
      <use xlink:href="#DejaVuSans-6c"/>
      <use x="27.783203" xlink:href="#DejaVuSans-6f"/>
      <use x="88.964844" xlink:href="#DejaVuSans-67"/>
      <use x="152.441406" xlink:href="#DejaVuSans-31"/>
      <use x="216.064453" xlink:href="#DejaVuSans-30"/>
      <use x="279.6875" xlink:href="#DejaVuSans-20"/>
      <use x="311.474609" xlink:href="#DejaVuSans-6f"/>
      <use x="372.65625" xlink:href="#DejaVuSans-66"/>
      <use x="407.861328" xlink:href="#DejaVuSans-20"/>
      <use x="439.648438" xlink:href="#DejaVuSans-44"/>
      <use x="516.650391" xlink:href="#DejaVuSans-66"/>
     </g>
    </g>
   </g>
   <g id="matplotlib.axis_2">
    <g id="ytick_1">
     <g id="line2d_11">
      <path clip-path="url(#pab6e0daaa9)" d="M 5.52 291.28 
L 450.672 291.28 
" style="fill:none;stroke:#b0b0b0;stroke-linecap:square;stroke-width:0.8;"/>
     </g>
     <g id="line2d_12">
      <defs>
       <path d="M 0 0 
L -3.5 0 
" id="m6b25975735" style="stroke:#000000;stroke-width:0.8;"/>
      </defs>
      <g>
       <use style="stroke:#000000;stroke-width:0.8;" x="5.52" xlink:href="#m6b25975735" y="291.28"/>
      </g>
     </g>
    </g>
    <g id="ytick_2">
     <g id="line2d_13">
      <path clip-path="url(#pab6e0daaa9)" d="M 5.52 234.693861 
L 450.672 234.693861 
" style="fill:none;stroke:#b0b0b0;stroke-linecap:square;stroke-width:0.8;"/>
     </g>
     <g id="line2d_14">
      <g>
       <use style="stroke:#000000;stroke-width:0.8;" x="5.52" xlink:href="#m6b25975735" y="234.693861"/>
      </g>
     </g>
    </g>
    <g id="ytick_3">
     <g id="line2d_15">
      <path clip-path="url(#pab6e0daaa9)" d="M 5.52 178.107723 
L 450.672 178.107723 
" style="fill:none;stroke:#b0b0b0;stroke-linecap:square;stroke-width:0.8;"/>
     </g>
     <g id="line2d_16">
      <g>
       <use style="stroke:#000000;stroke-width:0.8;" x="5.52" xlink:href="#m6b25975735" y="178.107723"/>
      </g>
     </g>
    </g>
    <g id="ytick_4">
     <g id="line2d_17">
      <path clip-path="url(#pab6e0daaa9)" d="M 5.52 121.521584 
L 450.672 121.521584 
" style="fill:none;stroke:#b0b0b0;stroke-linecap:square;stroke-width:0.8;"/>
     </g>
     <g id="line2d_18">
      <g>
       <use style="stroke:#000000;stroke-width:0.8;" x="5.52" xlink:href="#m6b25975735" y="121.521584"/>
      </g>
     </g>
    </g>
    <g id="ytick_5">
     <g id="line2d_19">
      <path clip-path="url(#pab6e0daaa9)" d="M 5.52 64.935446 
L 450.672 64.935446 
" style="fill:none;stroke:#b0b0b0;stroke-linecap:square;stroke-width:0.8;"/>
     </g>
     <g id="line2d_20">
      <g>
       <use style="stroke:#000000;stroke-width:0.8;" x="5.52" xlink:href="#m6b25975735" y="64.935446"/>
      </g>
     </g>
    </g>
    <g id="ytick_6">
     <g id="line2d_21">
      <path clip-path="url(#pab6e0daaa9)" d="M 5.52 8.349307 
L 450.672 8.349307 
" style="fill:none;stroke:#b0b0b0;stroke-linecap:square;stroke-width:0.8;"/>
     </g>
     <g id="line2d_22">
      <g>
       <use style="stroke:#000000;stroke-width:0.8;" x="5.52" xlink:href="#m6b25975735" y="8.349307"/>
      </g>
     </g>
    </g>
   </g>
   <g id="line2d_23">
    <path clip-path="url(#pab6e0daaa9)" d="M -1 279.962772 
L 5.410562 279.962772 
L 5.410562 249.783498 
L 39.382185 249.783498 
L 39.382185 246.011089 
L 110.0755 246.011089 
L 110.0755 242.23868 
L 154.720212 242.23868 
L 154.720212 238.466271 
L 174.163955 238.466271 
L 174.163955 234.693861 
L 174.425773 234.693861 
L 174.425773 230.921452 
L 175.420019 230.921452 
L 175.420019 227.149043 
L 175.574968 227.149043 
L 175.574968 223.376634 
L 176.986705 223.376634 
L 176.986705 219.604224 
L 177.897145 219.604224 
L 177.897145 215.831815 
L 182.77531 215.831815 
L 182.77531 212.059406 
L 186.661574 212.059406 
L 186.661574 208.286997 
L 187.402511 208.286997 
L 187.402511 204.514587 
L 187.886526 204.514587 
L 187.886526 200.742178 
L 189.376341 200.742178 
L 189.376341 196.969769 
L 199.792987 196.969769 
L 199.902106 189.42495 
L 202.918107 189.42495 
L 202.918107 185.652541 
L 203.35382 185.652541 
L 203.35382 181.880132 
L 203.958018 181.880132 
L 203.958018 166.790495 
L 206.705082 166.790495 
L 206.705082 163.018086 
L 208.921824 163.018086 
L 208.927594 151.700858 
L 209.170015 151.700858 
L 209.214541 144.15604 
L 209.498589 144.15604 
L 209.498589 140.38363 
L 209.776908 140.38363 
L 209.776908 136.611221 
L 210.421996 136.611221 
L 210.421996 132.838812 
L 210.58083 132.838812 
L 210.58083 129.066403 
L 211.545917 129.066403 
L 211.545917 125.293993 
L 212.077841 125.293993 
L 212.077841 121.521584 
L 212.412531 121.521584 
L 212.412531 117.749175 
L 212.921643 117.749175 
L 213.009189 106.431947 
L 213.130232 106.431947 
L 213.130232 102.659538 
L 213.453483 102.659538 
L 213.453483 98.887129 
L 214.003801 98.887129 
L 214.003801 95.114719 
L 214.492765 95.114719 
L 214.492765 91.34231 
L 215.285313 91.34231 
L 215.382836 80.025083 
L 215.468034 80.025083 
L 215.468034 76.252673 
L 216.266918 76.252673 
L 216.266918 72.480264 
L 216.956903 72.480264 
L 216.977807 64.935446 
L 217.967823 64.935446 
L 217.967823 61.163036 
L 218.478678 61.163036 
L 218.478678 57.390627 
L 219.646714 57.390627 
L 219.646714 53.618218 
L 223.438373 53.618218 
L 223.438373 49.845809 
L 226.189475 49.845809 
L 226.278299 38.528581 
L 226.506903 38.528581 
L 226.586354 30.983762 
L 226.64987 30.983762 
L 226.64987 27.211353 
L 227.212766 27.211353 
L 227.212766 23.438944 
L 227.466705 23.438944 
L 227.466705 19.666535 
L 228.231215 19.666535 
L 228.231215 15.894125 
L 228.873612 15.894125 
L 228.873612 12.121716 
L 229.830305 12.121716 
L 229.830305 8.349307 
L 229.830305 8.349307 
L 450.672 8.349307 
L 450.672 8.349307 
" style="fill:none;stroke:#ff0000;stroke-linecap:square;stroke-width:3;"/>
   </g>
   <g id="line2d_24">
    <path clip-path="url(#pab6e0daaa9)" d="M 223.461828 291.28 
L 223.461828 287.507591 
L 224.70885 287.507591 
L 224.70885 283.735182 
L 224.879369 283.735182 
L 224.879369 279.962772 
L 225.280221 279.962772 
L 225.280221 276.190363 
L 227.30438 276.190363 
L 227.30438 272.417954 
L 230.584566 272.417954 
L 230.584566 268.645545 
L 231.736089 268.645545 
L 231.736089 264.873135 
L 232.196431 264.873135 
L 232.196431 261.100726 
L 232.543402 261.100726 
L 232.543402 257.328317 
L 233.169936 257.328317 
L 233.169936 253.555908 
L 233.5716 253.555908 
L 233.5716 249.783498 
L 233.994787 249.783498 
L 233.994787 246.011089 
L 235.872364 246.011089 
L 235.872364 242.23868 
L 236.913026 242.23868 
L 236.913026 238.466271 
L 237.145358 238.466271 
L 237.145358 234.693861 
L 237.61811 234.693861 
L 237.61811 230.921452 
L 238.511798 230.921452 
L 238.511798 227.149043 
L 240.712138 227.149043 
L 240.712138 223.376634 
L 241.149485 223.376634 
L 241.149485 219.604224 
L 241.544264 219.604224 
L 241.544264 215.831815 
L 242.59512 215.831815 
L 242.639334 208.286997 
L 245.941665 208.286997 
L 245.992271 200.742178 
L 246.822908 200.742178 
L 246.822908 196.969769 
L 249.061958 196.969769 
L 249.084053 189.42495 
L 249.70673 189.42495 
L 249.70673 185.652541 
L 251.719225 185.652541 
L 251.801563 178.107723 
L 251.865717 178.107723 
L 251.94379 170.562904 
L 252.132472 170.562904 
L 252.132472 166.790495 
L 252.338445 166.790495 
L 252.338445 163.018086 
L 252.56043 163.018086 
L 252.56043 159.245677 
L 252.758002 159.245677 
L 252.780618 151.700858 
L 253.098911 151.700858 
L 253.098911 147.928449 
L 253.311487 147.928449 
L 253.311487 144.15604 
L 253.617654 144.15604 
L 253.617654 140.38363 
L 253.734283 140.38363 
L 253.734283 136.611221 
L 254.165258 136.611221 
L 254.257403 129.066403 
L 254.371049 129.066403 
L 254.377984 121.521584 
L 254.552894 121.521584 
L 254.6033 102.659538 
L 254.711559 102.659538 
L 254.720913 95.114719 
L 254.905585 95.114719 
L 254.905585 91.34231 
L 255.066701 91.34231 
L 255.102329 80.025083 
L 255.440448 80.025083 
L 255.440448 76.252673 
L 255.787236 76.252673 
L 255.844609 68.707855 
L 255.89865 68.707855 
L 255.89865 64.935446 
L 256.217726 64.935446 
L 256.217726 61.163036 
L 256.740782 61.163036 
L 256.804039 53.618218 
L 259.622612 53.618218 
L 259.622612 49.845809 
L 282.960983 49.845809 
L 282.960983 46.073399 
L 284.518904 46.073399 
L 284.518904 42.30099 
L 289.565643 42.30099 
L 289.576272 34.756172 
L 291.552376 34.756172 
L 291.552376 30.983762 
L 294.247502 30.983762 
L 294.247502 27.211353 
L 296.603486 27.211353 
L 296.603486 23.438944 
L 305.001247 23.438944 
L 305.001247 19.666535 
L 310.968126 19.666535 
L 310.968126 15.894125 
L 311.558467 15.894125 
L 311.558467 12.121716 
L 317.0171 12.121716 
L 317.0171 8.349307 
L 317.0171 8.349307 
L 450.672 8.349307 
L 450.672 8.349307 
" style="fill:none;stroke:#00bfbf;stroke-linecap:square;stroke-width:1.5;"/>
   </g>
   <g id="line2d_25">
    <path clip-path="url(#pab6e0daaa9)" d="M 215.488432 291.28 
L 215.488432 287.507591 
L 220.117024 287.507591 
L 220.117024 283.735182 
L 222.990714 283.735182 
L 222.990714 279.962772 
L 223.461828 279.962772 
L 223.461828 276.190363 
L 224.372596 276.190363 
L 224.372596 272.417954 
L 224.70885 272.417954 
L 224.70885 268.645545 
L 224.879369 268.645545 
L 224.879369 264.873135 
L 225.280221 264.873135 
L 225.280221 261.100726 
L 225.493014 261.100726 
L 225.493014 257.328317 
L 227.30438 257.328317 
L 227.30438 253.555908 
L 229.447479 253.555908 
L 229.447479 249.783498 
L 230.584566 249.783498 
L 230.584566 246.011089 
L 232.196431 246.011089 
L 232.196431 242.23868 
L 232.543402 242.23868 
L 232.543402 238.466271 
L 233.169936 238.466271 
L 233.169936 234.693861 
L 233.5716 234.693861 
L 233.5716 230.921452 
L 233.994787 230.921452 
L 233.994787 227.149043 
L 235.872364 227.149043 
L 235.872364 223.376634 
L 236.198482 223.376634 
L 236.198482 219.604224 
L 236.913026 219.604224 
L 236.913026 215.831815 
L 237.358296 215.831815 
L 237.358296 212.059406 
L 238.099973 212.059406 
L 238.099973 208.286997 
L 240.336638 208.286997 
L 240.336638 204.514587 
L 240.497751 204.514587 
L 240.497751 200.742178 
L 240.666164 200.742178 
L 240.712138 193.19736 
L 241.149485 193.19736 
L 241.149485 189.42495 
L 245.317625 189.42495 
L 245.317625 185.652541 
L 245.941665 185.652541 
L 245.992271 178.107723 
L 246.656646 178.107723 
L 246.656646 174.335314 
L 247.195161 174.335314 
L 247.195161 170.562904 
L 247.714344 170.562904 
L 247.714344 166.790495 
L 248.987333 166.790495 
L 249.061958 159.245677 
L 249.45046 159.245677 
L 249.530954 151.700858 
L 249.70673 151.700858 
L 249.70673 147.928449 
L 250.760778 147.928449 
L 250.760778 144.15604 
L 250.927329 144.15604 
L 250.927329 140.38363 
L 251.052693 140.38363 
L 251.052693 136.611221 
L 251.445322 136.611221 
L 251.554123 129.066403 
L 251.746833 129.066403 
L 251.746833 125.293993 
L 251.863765 125.293993 
L 251.94379 110.204356 
L 252.293316 110.204356 
L 252.293316 106.431947 
L 252.425837 106.431947 
L 252.425837 102.659538 
L 252.710639 102.659538 
L 252.710639 98.887129 
L 252.854563 98.887129 
L 252.854563 95.114719 
L 253.197584 95.114719 
L 253.197584 91.34231 
L 253.311487 91.34231 
L 253.352209 83.797492 
L 254.028532 83.797492 
L 254.122578 76.252673 
L 254.263093 76.252673 
L 254.288306 68.707855 
L 254.377984 68.707855 
L 254.377984 64.935446 
L 254.552894 64.935446 
L 254.552894 61.163036 
L 254.711559 61.163036 
L 254.739044 53.618218 
L 255.017719 53.618218 
L 255.087397 46.073399 
L 255.723224 46.073399 
L 255.723224 42.30099 
L 274.720161 42.30099 
L 274.720161 38.528581 
L 284.518904 38.528581 
L 284.518904 34.756172 
L 284.670517 34.756172 
L 284.670517 30.983762 
L 289.565643 30.983762 
L 289.576272 23.438944 
L 290.142284 23.438944 
L 290.142284 19.666535 
L 291.552376 19.666535 
L 291.552376 15.894125 
L 291.796962 15.894125 
L 291.796962 12.121716 
L 310.968126 12.121716 
L 310.968126 8.349307 
L 310.968126 8.349307 
L 450.672 8.349307 
L 450.672 8.349307 
" style="fill:none;stroke:#bf00bf;stroke-linecap:square;stroke-width:1.5;"/>
   </g>
   <g id="line2d_26">
    <path clip-path="url(#pab6e0daaa9)" d="M 211.025388 291.28 
L 211.025388 287.507591 
L 213.307329 287.507591 
L 213.307329 283.735182 
L 218.980974 283.735182 
L 218.980974 279.962772 
L 221.09965 279.962772 
L 221.09965 276.190363 
L 221.915586 276.190363 
L 221.915586 272.417954 
L 222.990714 272.417954 
L 222.990714 268.645545 
L 224.372596 268.645545 
L 224.372596 264.873135 
L 224.70885 264.873135 
L 224.70885 261.100726 
L 224.879369 261.100726 
L 224.879369 257.328317 
L 225.203067 257.328317 
L 225.280221 249.783498 
L 225.403648 249.783498 
L 225.416056 242.23868 
L 226.217208 242.23868 
L 226.217208 238.466271 
L 227.30438 238.466271 
L 227.396918 230.921452 
L 229.564734 230.921452 
L 229.564734 227.149043 
L 229.752038 227.149043 
L 229.752038 223.376634 
L 229.883718 223.376634 
L 229.883718 219.604224 
L 230.584566 219.604224 
L 230.584566 215.831815 
L 232.196431 215.831815 
L 232.196431 212.059406 
L 232.352989 212.059406 
L 232.352989 208.286997 
L 232.836304 208.286997 
L 232.836304 204.514587 
L 233.169936 204.514587 
L 233.169936 200.742178 
L 233.299557 200.742178 
L 233.299557 196.969769 
L 233.994787 196.969769 
L 233.994787 193.19736 
L 235.449676 193.19736 
L 235.449676 189.42495 
L 238.099973 189.42495 
L 238.099973 185.652541 
L 240.336638 185.652541 
L 240.336638 181.880132 
L 240.712138 181.880132 
L 240.712138 178.107723 
L 241.149485 178.107723 
L 241.149485 174.335314 
L 242.626702 174.335314 
L 242.626702 170.562904 
L 242.828046 170.562904 
L 242.842446 163.018086 
L 243.727242 163.018086 
L 243.727242 159.245677 
L 244.322958 159.245677 
L 244.322958 155.473267 
L 245.2769 155.473267 
L 245.317625 147.928449 
L 245.543197 147.928449 
L 245.543197 144.15604 
L 245.671073 144.15604 
L 245.671073 140.38363 
L 245.992271 140.38363 
L 246.017123 132.838812 
L 246.52238 132.838812 
L 246.52238 129.066403 
L 246.938776 129.066403 
L 246.938776 125.293993 
L 247.195161 125.293993 
L 247.195161 121.521584 
L 247.351722 121.521584 
L 247.351722 117.749175 
L 247.714344 117.749175 
L 247.714344 113.976766 
L 248.10142 113.976766 
L 248.10142 110.204356 
L 248.357948 110.204356 
L 248.357948 106.431947 
L 248.715414 106.431947 
L 248.715414 102.659538 
L 248.987333 102.659538 
L 249.061958 95.114719 
L 249.764239 95.114719 
L 249.764239 91.34231 
L 250.00978 91.34231 
L 250.00978 87.569901 
L 250.760778 87.569901 
L 250.760778 83.797492 
L 251.443337 83.797492 
L 251.546277 72.480264 
L 251.746833 72.480264 
L 251.746833 68.707855 
L 251.865717 68.707855 
L 251.94379 57.390627 
L 252.310175 57.390627 
L 252.376501 49.845809 
L 252.557116 49.845809 
L 252.557116 46.073399 
L 253.063817 46.073399 
L 253.063817 42.30099 
L 253.311487 42.30099 
L 253.352209 34.756172 
L 253.781627 34.756172 
L 253.781627 30.983762 
L 254.122578 30.983762 
L 254.122578 27.211353 
L 254.467519 27.211353 
L 254.552894 19.666535 
L 272.101362 19.666535 
L 272.101362 15.894125 
L 274.720161 15.894125 
L 274.720161 12.121716 
L 289.576272 12.121716 
L 289.576272 8.349307 
L 289.576272 8.349307 
L 450.672 8.349307 
L 450.672 8.349307 
" style="fill:none;stroke:#000000;stroke-linecap:square;stroke-width:1.5;"/>
   </g>
   <g id="line2d_27">
    <path clip-path="url(#pab6e0daaa9)" d="M 162.689829 291.28 
L 162.689829 287.507591 
L 200.601457 287.507591 
L 200.601457 283.735182 
L 213.307329 283.735182 
L 213.307329 279.962772 
L 215.809085 279.962772 
L 215.809085 276.190363 
L 218.980974 276.190363 
L 218.980974 272.417954 
L 219.121082 272.417954 
L 219.121082 268.645545 
L 219.318077 268.645545 
L 219.318077 264.873135 
L 219.608711 264.873135 
L 219.608711 261.100726 
L 220.675486 261.100726 
L 220.675486 257.328317 
L 221.680241 257.328317 
L 221.680241 253.555908 
L 221.915586 253.555908 
L 221.915586 249.783498 
L 222.072304 249.783498 
L 222.072304 246.011089 
L 222.528425 246.011089 
L 222.528425 242.23868 
L 222.990714 242.23868 
L 222.990714 238.466271 
L 224.168358 238.466271 
L 224.168358 234.693861 
L 224.321906 234.693861 
L 224.372596 227.149043 
L 224.635106 227.149043 
L 224.70885 219.604224 
L 224.980741 219.604224 
L 224.980741 215.831815 
L 225.200609 215.831815 
L 225.280221 208.286997 
L 225.403648 208.286997 
L 225.416056 200.742178 
L 226.110678 200.742178 
L 226.217208 193.19736 
L 227.300176 193.19736 
L 227.396918 181.880132 
L 228.07991 181.880132 
L 228.07991 178.107723 
L 229.752038 178.107723 
L 229.752038 174.335314 
L 230.584566 174.335314 
L 230.584566 170.562904 
L 231.847009 170.562904 
L 231.923351 163.018086 
L 233.299557 163.018086 
L 233.299557 159.245677 
L 234.345518 159.245677 
L 234.345518 155.473267 
L 234.800272 155.473267 
L 234.800272 151.700858 
L 235.449676 151.700858 
L 235.449676 147.928449 
L 236.132409 147.928449 
L 236.132409 144.15604 
L 238.515259 144.15604 
L 238.611391 136.611221 
L 238.872087 136.611221 
L 238.872087 132.838812 
L 239.25109 132.838812 
L 239.25109 129.066403 
L 240.336638 129.066403 
L 240.336638 125.293993 
L 240.712138 125.293993 
L 240.712138 121.521584 
L 241.608385 121.521584 
L 241.608385 117.749175 
L 241.822991 117.749175 
L 241.822991 113.976766 
L 242.12411 113.976766 
L 242.12411 110.204356 
L 242.681098 110.204356 
L 242.782391 102.659538 
L 242.828046 102.659538 
L 242.828046 98.887129 
L 243.653941 98.887129 
L 243.653941 95.114719 
L 244.476943 95.114719 
L 244.476943 91.34231 
L 245.723453 91.34231 
L 245.723453 87.569901 
L 246.017123 87.569901 
L 246.017123 83.797492 
L 246.52238 83.797492 
L 246.52238 80.025083 
L 246.838683 80.025083 
L 246.874458 72.480264 
L 247.497358 72.480264 
L 247.497358 68.707855 
L 247.714344 68.707855 
L 247.714344 64.935446 
L 247.917584 64.935446 
L 247.917584 61.163036 
L 248.062134 61.163036 
L 248.10142 53.618218 
L 248.357948 53.618218 
L 248.394407 46.073399 
L 248.647174 46.073399 
L 248.715414 38.528581 
L 248.777934 38.528581 
L 248.777934 34.756172 
L 248.987333 34.756172 
L 248.987333 30.983762 
L 250.00978 30.983762 
L 250.00978 27.211353 
L 250.418667 27.211353 
L 250.418667 23.438944 
L 250.760778 23.438944 
L 250.760778 19.666535 
L 251.271736 19.666535 
L 251.271736 15.894125 
L 252.557116 15.894125 
L 252.557116 12.121716 
L 271.41403 12.121716 
L 271.41403 8.349307 
L 271.41403 8.349307 
L 450.672 8.349307 
L 450.672 8.349307 
" style="fill:none;stroke:#00bfbf;stroke-linecap:square;stroke-width:1.5;"/>
   </g>
   <g id="line2d_28">
    <path clip-path="url(#pab6e0daaa9)" d="M 162.689829 291.28 
L 162.689829 287.507591 
L 182.77531 287.507591 
L 182.77531 283.735182 
L 188.013613 283.735182 
L 188.013613 279.962772 
L 208.295934 279.962772 
L 208.295934 276.190363 
L 208.942309 276.190363 
L 208.942309 272.417954 
L 209.853158 272.417954 
L 209.853158 268.645545 
L 210.112555 268.645545 
L 210.112555 264.873135 
L 213.307329 264.873135 
L 213.307329 261.100726 
L 213.537757 261.100726 
L 213.537757 257.328317 
L 213.860063 257.328317 
L 213.860063 253.555908 
L 214.269823 253.555908 
L 214.269823 249.783498 
L 214.617289 249.783498 
L 214.617289 246.011089 
L 214.732409 246.011089 
L 214.732409 242.23868 
L 215.109644 242.23868 
L 215.109644 238.466271 
L 215.468034 238.466271 
L 215.552766 230.921452 
L 216.039843 230.921452 
L 216.149839 223.376634 
L 216.285459 223.376634 
L 216.285459 219.604224 
L 216.646528 219.604224 
L 216.646528 215.831815 
L 216.776104 215.831815 
L 216.825834 208.286997 
L 216.93644 208.286997 
L 216.93644 204.514587 
L 217.469217 204.514587 
L 217.477003 196.969769 
L 217.629055 196.969769 
L 217.629055 193.19736 
L 217.799992 193.19736 
L 217.799992 189.42495 
L 218.923193 189.42495 
L 218.923193 185.652541 
L 219.044344 185.652541 
L 219.044344 181.880132 
L 219.201008 181.880132 
L 219.201008 178.107723 
L 219.498356 178.107723 
L 219.498356 174.335314 
L 219.646714 174.335314 
L 219.646714 170.562904 
L 219.778145 170.562904 
L 219.834085 163.018086 
L 219.928464 163.018086 
L 219.928464 159.245677 
L 220.223455 159.245677 
L 220.251426 151.700858 
L 220.417229 151.700858 
L 220.417229 147.928449 
L 220.647652 147.928449 
L 220.665221 140.38363 
L 221.17277 140.38363 
L 221.17277 136.611221 
L 221.680241 136.611221 
L 221.680241 132.838812 
L 221.799832 132.838812 
L 221.799832 129.066403 
L 222.075129 129.066403 
L 222.075129 125.293993 
L 222.406713 125.293993 
L 222.406713 121.521584 
L 223.438373 121.521584 
L 223.438373 117.749175 
L 224.452879 117.749175 
L 224.493542 110.204356 
L 228.564851 110.204356 
L 228.639459 102.659538 
L 228.754173 102.659538 
L 228.754173 98.887129 
L 228.926135 98.887129 
L 228.926135 95.114719 
L 229.658966 95.114719 
L 229.658966 91.34231 
L 229.898828 91.34231 
L 229.898828 87.569901 
L 230.040482 87.569901 
L 230.040482 83.797492 
L 231.417101 83.797492 
L 231.417101 80.025083 
L 231.811952 80.025083 
L 231.811952 76.252673 
L 232.901975 76.252673 
L 232.989007 68.707855 
L 238.389803 68.707855 
L 238.389803 64.935446 
L 239.548553 64.935446 
L 239.548553 61.163036 
L 241.602601 61.163036 
L 241.602601 57.390627 
L 243.17094 57.390627 
L 243.17094 53.618218 
L 244.23144 53.618218 
L 244.249566 46.073399 
L 244.476943 46.073399 
L 244.476943 42.30099 
L 244.702586 42.30099 
L 244.702586 38.528581 
L 245.131176 38.528581 
L 245.234871 30.983762 
L 245.485214 30.983762 
L 245.505955 23.438944 
L 245.723453 23.438944 
L 245.723453 19.666535 
L 246.074979 19.666535 
L 246.074979 15.894125 
L 246.958999 15.894125 
L 247.031106 8.349307 
L 247.031106 8.349307 
L 450.672 8.349307 
L 450.672 8.349307 
" style="fill:none;stroke:#bf00bf;stroke-linecap:square;stroke-width:1.5;"/>
   </g>
   <g id="line2d_29">
    <path clip-path="url(#pab6e0daaa9)" d="M 31.302384 291.28 
L 31.302384 287.507591 
L 82.667952 287.507591 
L 82.667952 283.735182 
L 132.37408 283.735182 
L 132.37408 279.962772 
L 145.844 279.962772 
L 145.844 276.190363 
L 146.240852 276.190363 
L 146.240852 272.417954 
L 158.650063 272.417954 
L 158.650063 268.645545 
L 161.647847 268.645545 
L 161.647847 264.873135 
L 163.711171 264.873135 
L 163.711171 261.100726 
L 182.77531 261.100726 
L 182.77531 257.328317 
L 199.902106 257.328317 
L 199.902106 253.555908 
L 204.023392 253.555908 
L 204.077306 246.011089 
L 204.178233 246.011089 
L 204.210147 238.466271 
L 206.38641 238.466271 
L 206.38641 234.693861 
L 208.926737 234.693861 
L 208.942309 227.149043 
L 209.698038 227.149043 
L 209.73446 219.604224 
L 209.853158 219.604224 
L 209.853158 215.831815 
L 210.112555 215.831815 
L 210.112555 212.059406 
L 210.630849 212.059406 
L 210.630849 208.286997 
L 210.804368 208.286997 
L 210.804368 204.514587 
L 210.983274 204.514587 
L 210.983274 200.742178 
L 211.416773 200.742178 
L 211.416773 196.969769 
L 211.545917 196.969769 
L 211.545917 193.19736 
L 212.258763 193.19736 
L 212.258763 189.42495 
L 212.412531 189.42495 
L 212.475907 181.880132 
L 212.865819 181.880132 
L 212.932678 174.335314 
L 213.009189 174.335314 
L 213.009189 170.562904 
L 213.130232 170.562904 
L 213.208366 159.245677 
L 213.247794 159.245677 
L 213.354911 151.700858 
L 213.424219 151.700858 
L 213.424219 147.928449 
L 213.575653 147.928449 
L 213.575653 144.15604 
L 213.860063 144.15604 
L 213.90648 136.611221 
L 214.223837 136.611221 
L 214.223837 132.838812 
L 214.520853 132.838812 
L 214.520853 129.066403 
L 214.77921 129.066403 
L 214.77921 125.293993 
L 214.999221 125.293993 
L 214.999221 121.521584 
L 215.366831 121.521584 
L 215.468034 110.204356 
L 215.512966 110.204356 
L 215.512966 106.431947 
L 215.631089 106.431947 
L 215.631089 102.659538 
L 216.270272 102.659538 
L 216.270272 98.887129 
L 216.977807 98.887129 
L 217.063445 91.34231 
L 217.974699 91.34231 
L 217.976604 83.797492 
L 218.514858 83.797492 
L 218.514858 80.025083 
L 219.646714 80.025083 
L 219.646714 76.252673 
L 223.438373 76.252673 
L 223.438373 72.480264 
L 226.310202 72.480264 
L 226.310202 68.707855 
L 226.734891 68.707855 
L 226.734891 64.935446 
L 228.613114 64.935446 
L 228.631383 57.390627 
L 229.832898 57.390627 
L 229.832898 53.618218 
L 231.347268 53.618218 
L 231.347268 49.845809 
L 232.007104 49.845809 
L 232.007104 46.073399 
L 232.5185 46.073399 
L 232.583989 38.528581 
L 233.344514 38.528581 
L 233.344514 34.756172 
L 233.775901 34.756172 
L 233.775901 30.983762 
L 235.341306 30.983762 
L 235.341306 27.211353 
L 235.594955 27.211353 
L 235.594955 23.438944 
L 235.837893 23.438944 
L 235.837893 19.666535 
L 237.14571 19.666535 
L 237.14571 15.894125 
L 237.39373 15.894125 
L 237.39373 12.121716 
L 238.203406 12.121716 
L 238.203406 8.349307 
L 238.203406 8.349307 
L 450.672 8.349307 
L 450.672 8.349307 
" style="fill:none;stroke:#000000;stroke-linecap:square;stroke-width:1.5;"/>
   </g>
   <g id="line2d_30">
    <path clip-path="url(#pab6e0daaa9)" d="M 5.128141 291.28 
L 5.128141 287.507591 
L 5.410562 287.507591 
L 5.410562 268.645545 
L 18.34335 268.645545 
L 18.34335 264.873135 
L 33.467163 264.873135 
L 33.467163 261.100726 
L 48.99141 261.100726 
L 48.99141 257.328317 
L 79.166359 257.328317 
L 79.166359 253.555908 
L 101.714989 253.555908 
L 101.714989 249.783498 
L 110.346582 249.783498 
L 110.346582 246.011089 
L 154.727488 246.011089 
L 154.727488 242.23868 
L 174.824001 242.23868 
L 174.824001 238.466271 
L 175.448363 238.466271 
L 175.448363 234.693861 
L 175.575498 234.693861 
L 175.575498 230.921452 
L 176.989236 230.921452 
L 176.989236 227.149043 
L 177.897153 227.149043 
L 177.897153 223.376634 
L 182.77531 223.376634 
L 182.77531 219.604224 
L 186.661575 219.604224 
L 186.661575 215.831815 
L 187.402539 215.831815 
L 187.402539 212.059406 
L 187.886526 212.059406 
L 187.886526 208.286997 
L 189.376341 208.286997 
L 189.376341 204.514587 
L 199.792987 204.514587 
L 199.902106 196.969769 
L 202.012108 196.969769 
L 202.012108 193.19736 
L 202.918107 193.19736 
L 202.918107 189.42495 
L 203.35382 189.42495 
L 203.35382 185.652541 
L 203.958018 185.652541 
L 203.958018 170.562904 
L 206.38641 170.562904 
L 206.38641 166.790495 
L 206.705082 166.790495 
L 206.705082 163.018086 
L 208.921824 163.018086 
L 208.927594 151.700858 
L 209.170015 151.700858 
L 209.214541 144.15604 
L 209.498589 144.15604 
L 209.498589 140.38363 
L 209.776908 140.38363 
L 209.776908 136.611221 
L 210.421996 136.611221 
L 210.421996 132.838812 
L 210.58083 132.838812 
L 210.58083 129.066403 
L 211.545917 129.066403 
L 211.545917 125.293993 
L 212.077841 125.293993 
L 212.077841 121.521584 
L 212.412531 121.521584 
L 212.412531 117.749175 
L 212.921643 117.749175 
L 213.009189 106.431947 
L 213.130232 106.431947 
L 213.130232 102.659538 
L 213.453483 102.659538 
L 213.453483 98.887129 
L 214.003801 98.887129 
L 214.003801 95.114719 
L 214.492765 95.114719 
L 214.492765 91.34231 
L 215.28543 91.34231 
L 215.382836 80.025083 
L 215.468034 80.025083 
L 215.468034 76.252673 
L 216.266918 76.252673 
L 216.266918 72.480264 
L 216.956903 72.480264 
L 216.977807 64.935446 
L 217.967823 64.935446 
L 217.967823 61.163036 
L 218.478678 61.163036 
L 218.478678 57.390627 
L 219.646714 57.390627 
L 219.646714 53.618218 
L 223.438373 53.618218 
L 223.438373 49.845809 
L 226.189475 49.845809 
L 226.278299 38.528581 
L 226.506903 38.528581 
L 226.586354 30.983762 
L 226.64987 30.983762 
L 226.64987 27.211353 
L 227.212766 27.211353 
L 227.212766 23.438944 
L 227.466705 23.438944 
L 227.466705 19.666535 
L 228.23123 19.666535 
L 228.23123 15.894125 
L 228.873612 15.894125 
L 228.873612 12.121716 
L 229.830305 12.121716 
L 229.830305 8.349307 
L 229.830305 8.349307 
L 450.672 8.349307 
L 450.672 8.349307 
" style="fill:none;stroke:#00bfbf;stroke-linecap:square;stroke-width:1.5;"/>
   </g>
   <g id="line2d_31">
    <path clip-path="url(#pab6e0daaa9)" d="M -1 279.962772 
L 5.410562 279.962772 
L 5.410562 249.783498 
L 39.382185 249.783498 
L 39.382185 246.011089 
L 110.0755 246.011089 
L 110.0755 242.23868 
L 154.720212 242.23868 
L 154.720212 238.466271 
L 174.163955 238.466271 
L 174.163955 234.693861 
L 174.425773 234.693861 
L 174.425773 230.921452 
L 175.420019 230.921452 
L 175.420019 227.149043 
L 175.574968 227.149043 
L 175.574968 223.376634 
L 176.986705 223.376634 
L 176.986705 219.604224 
L 177.897145 219.604224 
L 177.897145 215.831815 
L 182.77531 215.831815 
L 182.77531 212.059406 
L 186.661574 212.059406 
L 186.661574 208.286997 
L 187.402511 208.286997 
L 187.402511 204.514587 
L 187.886526 204.514587 
L 187.886526 200.742178 
L 189.376341 200.742178 
L 189.376341 196.969769 
L 199.792987 196.969769 
L 199.902106 189.42495 
L 202.918107 189.42495 
L 202.918107 185.652541 
L 203.35382 185.652541 
L 203.35382 181.880132 
L 203.958018 181.880132 
L 203.958018 166.790495 
L 206.705082 166.790495 
L 206.705082 163.018086 
L 208.921824 163.018086 
L 208.927594 151.700858 
L 209.170015 151.700858 
L 209.214541 144.15604 
L 209.498589 144.15604 
L 209.498589 140.38363 
L 209.776908 140.38363 
L 209.776908 136.611221 
L 210.421996 136.611221 
L 210.421996 132.838812 
L 210.58083 132.838812 
L 210.58083 129.066403 
L 211.545917 129.066403 
L 211.545917 125.293993 
L 212.077841 125.293993 
L 212.077841 121.521584 
L 212.412531 121.521584 
L 212.412531 117.749175 
L 212.921643 117.749175 
L 213.009189 106.431947 
L 213.130232 106.431947 
L 213.130232 102.659538 
L 213.453483 102.659538 
L 213.453483 98.887129 
L 214.003801 98.887129 
L 214.003801 95.114719 
L 214.492765 95.114719 
L 214.492765 91.34231 
L 215.285313 91.34231 
L 215.382836 80.025083 
L 215.468034 80.025083 
L 215.468034 76.252673 
L 216.266918 76.252673 
L 216.266918 72.480264 
L 216.956903 72.480264 
L 216.977807 64.935446 
L 217.967823 64.935446 
L 217.967823 61.163036 
L 218.478678 61.163036 
L 218.478678 57.390627 
L 219.646714 57.390627 
L 219.646714 53.618218 
L 223.438373 53.618218 
L 223.438373 49.845809 
L 226.189475 49.845809 
L 226.278299 38.528581 
L 226.506903 38.528581 
L 226.586354 30.983762 
L 226.64987 30.983762 
L 226.64987 27.211353 
L 227.212766 27.211353 
L 227.212766 23.438944 
L 227.466705 23.438944 
L 227.466705 19.666535 
L 228.231215 19.666535 
L 228.231215 15.894125 
L 228.873612 15.894125 
L 228.873612 12.121716 
L 229.830305 12.121716 
L 229.830305 8.349307 
L 229.830305 8.349307 
L 450.672 8.349307 
L 450.672 8.349307 
" style="fill:none;stroke:#bf00bf;stroke-linecap:square;stroke-width:1.5;"/>
   </g>
   <g id="patch_3">
    <path d="M 5.52 291.28 
L 5.52 5.52 
" style="fill:none;stroke:#000000;stroke-linecap:square;stroke-linejoin:miter;stroke-width:0.8;"/>
   </g>
   <g id="patch_4">
    <path d="M 450.672 291.28 
L 450.672 5.52 
" style="fill:none;stroke:#000000;stroke-linecap:square;stroke-linejoin:miter;stroke-width:0.8;"/>
   </g>
   <g id="patch_5">
    <path d="M 5.52 291.28 
L 450.672 291.28 
" style="fill:none;stroke:#000000;stroke-linecap:square;stroke-linejoin:miter;stroke-width:0.8;"/>
   </g>
   <g id="patch_6">
    <path d="M 5.52 5.52 
L 450.672 5.52 
" style="fill:none;stroke:#000000;stroke-linecap:square;stroke-linejoin:miter;stroke-width:0.8;"/>
   </g>
   <g id="text_6">
    <!-- {f20-f24}, 5-D -->
    <defs>
     <path d="M 51.125 -9.28125 
L 51.125 -16.3125 
L 48.09375 -16.3125 
Q 35.9375 -16.3125 31.8125 -12.6875 
Q 27.6875 -9.078125 27.6875 1.703125 
L 27.6875 13.375 
Q 27.6875 20.75 25.046875 23.578125 
Q 22.40625 26.421875 15.484375 26.421875 
L 12.5 26.421875 
L 12.5 33.40625 
L 15.484375 33.40625 
Q 22.46875 33.40625 25.078125 36.203125 
Q 27.6875 39.015625 27.6875 46.296875 
L 27.6875 58.015625 
Q 27.6875 68.796875 31.8125 72.390625 
Q 35.9375 75.984375 48.09375 75.984375 
L 51.125 75.984375 
L 51.125 69 
L 47.796875 69 
Q 40.921875 69 38.8125 66.84375 
Q 36.71875 64.703125 36.71875 57.8125 
L 36.71875 45.703125 
Q 36.71875 38.03125 34.5 34.5625 
Q 32.28125 31.109375 26.90625 29.890625 
Q 32.328125 28.5625 34.515625 25.09375 
Q 36.71875 21.625 36.71875 14.015625 
L 36.71875 1.90625 
Q 36.71875 -4.984375 38.8125 -7.125 
Q 40.921875 -9.28125 47.796875 -9.28125 
z
" id="DejaVuSans-7b"/>
     <path d="M 19.1875 8.296875 
L 53.609375 8.296875 
L 53.609375 0 
L 7.328125 0 
L 7.328125 8.296875 
Q 12.9375 14.109375 22.625 23.890625 
Q 32.328125 33.6875 34.8125 36.53125 
Q 39.546875 41.84375 41.421875 45.53125 
Q 43.3125 49.21875 43.3125 52.78125 
Q 43.3125 58.59375 39.234375 62.25 
Q 35.15625 65.921875 28.609375 65.921875 
Q 23.96875 65.921875 18.8125 64.3125 
Q 13.671875 62.703125 7.8125 59.421875 
L 7.8125 69.390625 
Q 13.765625 71.78125 18.9375 73 
Q 24.125 74.21875 28.421875 74.21875 
Q 39.75 74.21875 46.484375 68.546875 
Q 53.21875 62.890625 53.21875 53.421875 
Q 53.21875 48.921875 51.53125 44.890625 
Q 49.859375 40.875 45.40625 35.40625 
Q 44.1875 33.984375 37.640625 27.21875 
Q 31.109375 20.453125 19.1875 8.296875 
z
" id="DejaVuSans-32"/>
     <path d="M 12.5 -9.28125 
L 15.921875 -9.28125 
Q 22.75 -9.28125 24.828125 -7.171875 
Q 26.90625 -5.078125 26.90625 1.90625 
L 26.90625 14.015625 
Q 26.90625 21.625 29.09375 25.09375 
Q 31.296875 28.5625 36.71875 29.890625 
Q 31.296875 31.109375 29.09375 34.5625 
Q 26.90625 38.03125 26.90625 45.703125 
L 26.90625 57.8125 
Q 26.90625 64.75 24.828125 66.875 
Q 22.75 69 15.921875 69 
L 12.5 69 
L 12.5 75.984375 
L 15.578125 75.984375 
Q 27.734375 75.984375 31.8125 72.390625 
Q 35.890625 68.796875 35.890625 58.015625 
L 35.890625 46.296875 
Q 35.890625 39.015625 38.515625 36.203125 
Q 41.15625 33.40625 48.09375 33.40625 
L 51.125 33.40625 
L 51.125 26.421875 
L 48.09375 26.421875 
Q 41.15625 26.421875 38.515625 23.578125 
Q 35.890625 20.75 35.890625 13.375 
L 35.890625 1.703125 
Q 35.890625 -9.078125 31.8125 -12.6875 
Q 27.734375 -16.3125 15.578125 -16.3125 
L 12.5 -16.3125 
z
" id="DejaVuSans-7d"/>
     <path d="M 11.71875 12.40625 
L 22.015625 12.40625 
L 22.015625 4 
L 14.015625 -11.625 
L 7.71875 -11.625 
L 11.71875 4 
z
" id="DejaVuSans-2c"/>
     <path d="M 10.796875 72.90625 
L 49.515625 72.90625 
L 49.515625 64.59375 
L 19.828125 64.59375 
L 19.828125 46.734375 
Q 21.96875 47.46875 24.109375 47.828125 
Q 26.265625 48.1875 28.421875 48.1875 
Q 40.625 48.1875 47.75 41.5 
Q 54.890625 34.8125 54.890625 23.390625 
Q 54.890625 11.625 47.5625 5.09375 
Q 40.234375 -1.421875 26.90625 -1.421875 
Q 22.3125 -1.421875 17.546875 -0.640625 
Q 12.796875 0.140625 7.71875 1.703125 
L 7.71875 11.625 
Q 12.109375 9.234375 16.796875 8.0625 
Q 21.484375 6.890625 26.703125 6.890625 
Q 35.15625 6.890625 40.078125 11.328125 
Q 45.015625 15.765625 45.015625 23.390625 
Q 45.015625 31 40.078125 35.4375 
Q 35.15625 39.890625 26.703125 39.890625 
Q 22.75 39.890625 18.8125 39.015625 
Q 14.890625 38.140625 10.796875 36.28125 
z
" id="DejaVuSans-35"/>
    </defs>
    <g transform="translate(296.06896 285.5648)scale(0.2 -0.2)">
     <use xlink:href="#DejaVuSans-7b"/>
     <use x="63.623047" xlink:href="#DejaVuSans-66"/>
     <use x="98.828125" xlink:href="#DejaVuSans-32"/>
     <use x="162.451172" xlink:href="#DejaVuSans-30"/>
     <use x="226.074219" xlink:href="#DejaVuSans-2d"/>
     <use x="262.158203" xlink:href="#DejaVuSans-66"/>
     <use x="297.363281" xlink:href="#DejaVuSans-32"/>
     <use x="360.986328" xlink:href="#DejaVuSans-34"/>
     <use x="424.609375" xlink:href="#DejaVuSans-7d"/>
     <use x="488.232422" xlink:href="#DejaVuSans-2c"/>
     <use x="520.019531" xlink:href="#DejaVuSans-20"/>
     <use x="551.806641" xlink:href="#DejaVuSans-35"/>
     <use x="615.429688" xlink:href="#DejaVuSans-2d"/>
     <use x="651.513672" xlink:href="#DejaVuSans-44"/>
    </g>
   </g>
   <g id="text_7">
    <!-- v0.0.0 -->
    <defs>
     <path d="M 2.984375 54.6875 
L 12.5 54.6875 
L 29.59375 8.796875 
L 46.6875 54.6875 
L 56.203125 54.6875 
L 35.6875 0 
L 23.484375 0 
z
" id="DejaVuSans-76"/>
     <path d="M 10.6875 12.40625 
L 21 12.40625 
L 21 0 
L 10.6875 0 
z
" id="DejaVuSans-2e"/>
    </defs>
    <g style="fill:#808080;" transform="translate(212.41475 286.342713)scale(0.1 -0.1)">
     <use xlink:href="#DejaVuSans-76"/>
     <use x="59.179688" xlink:href="#DejaVuSans-30"/>
     <use x="122.802734" xlink:href="#DejaVuSans-2e"/>
     <use x="154.589844" xlink:href="#DejaVuSans-30"/>
     <use x="218.212891" xlink:href="#DejaVuSans-2e"/>
     <use x="250" xlink:href="#DejaVuSans-30"/>
    </g>
   </g>
  </g>
 </g>
 <defs>
  <clipPath id="pab6e0daaa9">
   <rect height="285.76" width="445.152" x="5.52" y="5.52"/>
  </clipPath>
 </defs>
</svg>
