<?xml version="1.0" encoding="utf-8" standalone="no"?>
<!DOCTYPE svg PUBLIC "-//W3C//DTD SVG 1.1//EN"
  "http://www.w3.org/Graphics/SVG/1.1/DTD/svg11.dtd">
<!-- Created with matplotlib (http://matplotlib.org/) -->
<svg height="345.6pt" version="1.1" viewBox="0 0 460.8 345.6" width="460.8pt" xmlns="http://www.w3.org/2000/svg" xmlns:xlink="http://www.w3.org/1999/xlink">
 <defs>
  <style type="text/css">
*{stroke-linecap:butt;stroke-linejoin:round;}
  </style>
 </defs>
 <g id="figure_1">
  <g id="patch_1">
   <path d="M 0 345.6 
L 460.8 345.6 
L 460.8 0 
L 0 0 
z
" style="fill:#ffffff;"/>
  </g>
  <g id="axes_1">
   <g id="patch_2">
    <path d="M 5.52 291.28 
L 450.672 291.28 
L 450.672 5.52 
L 5.52 5.52 
z
" style="fill:#ffffff;"/>
   </g>
   <g id="matplotlib.axis_1">
    <g id="xtick_1">
     <g id="line2d_1">
      <path clip-path="url(#pec45fcc4f3)" d="M 5.410562 291.28 
L 5.410562 5.52 
" style="fill:none;stroke:#b0b0b0;stroke-linecap:square;stroke-width:0.8;"/>
     </g>
     <g id="line2d_2">
      <defs>
       <path d="M 0 0 
L 0 3.5 
" id="mb89f40fa0c" style="stroke:#000000;stroke-width:0.8;"/>
      </defs>
      <g>
       <use style="stroke:#000000;stroke-width:0.8;" x="5.410562" xlink:href="#mb89f40fa0c" y="291.28"/>
      </g>
     </g>
    </g>
    <g id="xtick_2">
     <g id="line2d_3">
      <path clip-path="url(#pec45fcc4f3)" d="M 106.710074 291.28 
L 106.710074 5.52 
" style="fill:none;stroke:#b0b0b0;stroke-linecap:square;stroke-width:0.8;"/>
     </g>
     <g id="line2d_4">
      <g>
       <use style="stroke:#000000;stroke-width:0.8;" x="106.710074" xlink:href="#mb89f40fa0c" y="291.28"/>
      </g>
     </g>
     <g id="text_1">
      <!-- -4 -->
      <defs>
       <path d="M 4.890625 31.390625 
L 31.203125 31.390625 
L 31.203125 23.390625 
L 4.890625 23.390625 
z
" id="DejaVuSans-2d"/>
       <path d="M 37.796875 64.3125 
L 12.890625 25.390625 
L 37.796875 25.390625 
z
M 35.203125 72.90625 
L 47.609375 72.90625 
L 47.609375 25.390625 
L 58.015625 25.390625 
L 58.015625 17.1875 
L 47.609375 17.1875 
L 47.609375 0 
L 37.796875 0 
L 37.796875 17.1875 
L 4.890625 17.1875 
L 4.890625 26.703125 
z
" id="DejaVuSans-34"/>
      </defs>
      <g transform="translate(96.739762 313.476875)scale(0.2 -0.2)">
       <use xlink:href="#DejaVuSans-2d"/>
       <use x="36.083984" xlink:href="#DejaVuSans-34"/>
      </g>
     </g>
    </g>
    <g id="xtick_3">
     <g id="line2d_5">
      <path clip-path="url(#pec45fcc4f3)" d="M 208.009586 291.28 
L 208.009586 5.52 
" style="fill:none;stroke:#b0b0b0;stroke-linecap:square;stroke-width:0.8;"/>
     </g>
     <g id="line2d_6">
      <g>
       <use style="stroke:#000000;stroke-width:0.8;" x="208.009586" xlink:href="#mb89f40fa0c" y="291.28"/>
      </g>
     </g>
     <g id="text_2">
      <!-- 0 -->
      <defs>
       <path d="M 31.78125 66.40625 
Q 24.171875 66.40625 20.328125 58.90625 
Q 16.5 51.421875 16.5 36.375 
Q 16.5 21.390625 20.328125 13.890625 
Q 24.171875 6.390625 31.78125 6.390625 
Q 39.453125 6.390625 43.28125 13.890625 
Q 47.125 21.390625 47.125 36.375 
Q 47.125 51.421875 43.28125 58.90625 
Q 39.453125 66.40625 31.78125 66.40625 
z
M 31.78125 74.21875 
Q 44.046875 74.21875 50.515625 64.515625 
Q 56.984375 54.828125 56.984375 36.375 
Q 56.984375 17.96875 50.515625 8.265625 
Q 44.046875 -1.421875 31.78125 -1.421875 
Q 19.53125 -1.421875 13.0625 8.265625 
Q 6.59375 17.96875 6.59375 36.375 
Q 6.59375 54.828125 13.0625 64.515625 
Q 19.53125 74.21875 31.78125 74.21875 
z
" id="DejaVuSans-30"/>
      </defs>
      <g transform="translate(201.647086 313.476875)scale(0.2 -0.2)">
       <use xlink:href="#DejaVuSans-30"/>
      </g>
     </g>
    </g>
    <g id="xtick_4">
     <g id="line2d_7">
      <path clip-path="url(#pec45fcc4f3)" d="M 309.309099 291.28 
L 309.309099 5.52 
" style="fill:none;stroke:#b0b0b0;stroke-linecap:square;stroke-width:0.8;"/>
     </g>
     <g id="line2d_8">
      <g>
       <use style="stroke:#000000;stroke-width:0.8;" x="309.309099" xlink:href="#mb89f40fa0c" y="291.28"/>
      </g>
     </g>
     <g id="text_3">
      <!-- 4 -->
      <g transform="translate(302.946599 313.476875)scale(0.2 -0.2)">
       <use xlink:href="#DejaVuSans-34"/>
      </g>
     </g>
    </g>
    <g id="xtick_5">
     <g id="line2d_9">
      <path clip-path="url(#pec45fcc4f3)" d="M 410.608611 291.28 
L 410.608611 5.52 
" style="fill:none;stroke:#b0b0b0;stroke-linecap:square;stroke-width:0.8;"/>
     </g>
     <g id="line2d_10">
      <g>
       <use style="stroke:#000000;stroke-width:0.8;" x="410.608611" xlink:href="#mb89f40fa0c" y="291.28"/>
      </g>
     </g>
     <g id="text_4">
      <!-- 8 -->
      <defs>
       <path d="M 31.78125 34.625 
Q 24.75 34.625 20.71875 30.859375 
Q 16.703125 27.09375 16.703125 20.515625 
Q 16.703125 13.921875 20.71875 10.15625 
Q 24.75 6.390625 31.78125 6.390625 
Q 38.8125 6.390625 42.859375 10.171875 
Q 46.921875 13.96875 46.921875 20.515625 
Q 46.921875 27.09375 42.890625 30.859375 
Q 38.875 34.625 31.78125 34.625 
z
M 21.921875 38.8125 
Q 15.578125 40.375 12.03125 44.71875 
Q 8.5 49.078125 8.5 55.328125 
Q 8.5 64.0625 14.71875 69.140625 
Q 20.953125 74.21875 31.78125 74.21875 
Q 42.671875 74.21875 48.875 69.140625 
Q 55.078125 64.0625 55.078125 55.328125 
Q 55.078125 49.078125 51.53125 44.71875 
Q 48 40.375 41.703125 38.8125 
Q 48.828125 37.15625 52.796875 32.3125 
Q 56.78125 27.484375 56.78125 20.515625 
Q 56.78125 9.90625 50.3125 4.234375 
Q 43.84375 -1.421875 31.78125 -1.421875 
Q 19.734375 -1.421875 13.25 4.234375 
Q 6.78125 9.90625 6.78125 20.515625 
Q 6.78125 27.484375 10.78125 32.3125 
Q 14.796875 37.15625 21.921875 38.8125 
z
M 18.3125 54.390625 
Q 18.3125 48.734375 21.84375 45.5625 
Q 25.390625 42.390625 31.78125 42.390625 
Q 38.140625 42.390625 41.71875 45.5625 
Q 45.3125 48.734375 45.3125 54.390625 
Q 45.3125 60.0625 41.71875 63.234375 
Q 38.140625 66.40625 31.78125 66.40625 
Q 25.390625 66.40625 21.84375 63.234375 
Q 18.3125 60.0625 18.3125 54.390625 
z
" id="DejaVuSans-38"/>
      </defs>
      <g transform="translate(404.246111 313.476875)scale(0.2 -0.2)">
       <use xlink:href="#DejaVuSans-38"/>
      </g>
     </g>
    </g>
    <g id="text_5">
     <!-- log10 of Df -->
     <defs>
      <path d="M 9.421875 75.984375 
L 18.40625 75.984375 
L 18.40625 0 
L 9.421875 0 
z
" id="DejaVuSans-6c"/>
      <path d="M 30.609375 48.390625 
Q 23.390625 48.390625 19.1875 42.75 
Q 14.984375 37.109375 14.984375 27.296875 
Q 14.984375 17.484375 19.15625 11.84375 
Q 23.34375 6.203125 30.609375 6.203125 
Q 37.796875 6.203125 41.984375 11.859375 
Q 46.1875 17.53125 46.1875 27.296875 
Q 46.1875 37.015625 41.984375 42.703125 
Q 37.796875 48.390625 30.609375 48.390625 
z
M 30.609375 56 
Q 42.328125 56 49.015625 48.375 
Q 55.71875 40.765625 55.71875 27.296875 
Q 55.71875 13.875 49.015625 6.21875 
Q 42.328125 -1.421875 30.609375 -1.421875 
Q 18.84375 -1.421875 12.171875 6.21875 
Q 5.515625 13.875 5.515625 27.296875 
Q 5.515625 40.765625 12.171875 48.375 
Q 18.84375 56 30.609375 56 
z
" id="DejaVuSans-6f"/>
      <path d="M 45.40625 27.984375 
Q 45.40625 37.75 41.375 43.109375 
Q 37.359375 48.484375 30.078125 48.484375 
Q 22.859375 48.484375 18.828125 43.109375 
Q 14.796875 37.75 14.796875 27.984375 
Q 14.796875 18.265625 18.828125 12.890625 
Q 22.859375 7.515625 30.078125 7.515625 
Q 37.359375 7.515625 41.375 12.890625 
Q 45.40625 18.265625 45.40625 27.984375 
z
M 54.390625 6.78125 
Q 54.390625 -7.171875 48.1875 -13.984375 
Q 42 -20.796875 29.203125 -20.796875 
Q 24.46875 -20.796875 20.265625 -20.09375 
Q 16.0625 -19.390625 12.109375 -17.921875 
L 12.109375 -9.1875 
Q 16.0625 -11.328125 19.921875 -12.34375 
Q 23.78125 -13.375 27.78125 -13.375 
Q 36.625 -13.375 41.015625 -8.765625 
Q 45.40625 -4.15625 45.40625 5.171875 
L 45.40625 9.625 
Q 42.625 4.78125 38.28125 2.390625 
Q 33.9375 0 27.875 0 
Q 17.828125 0 11.671875 7.65625 
Q 5.515625 15.328125 5.515625 27.984375 
Q 5.515625 40.671875 11.671875 48.328125 
Q 17.828125 56 27.875 56 
Q 33.9375 56 38.28125 53.609375 
Q 42.625 51.21875 45.40625 46.390625 
L 45.40625 54.6875 
L 54.390625 54.6875 
z
" id="DejaVuSans-67"/>
      <path d="M 12.40625 8.296875 
L 28.515625 8.296875 
L 28.515625 63.921875 
L 10.984375 60.40625 
L 10.984375 69.390625 
L 28.421875 72.90625 
L 38.28125 72.90625 
L 38.28125 8.296875 
L 54.390625 8.296875 
L 54.390625 0 
L 12.40625 0 
z
" id="DejaVuSans-31"/>
      <path id="DejaVuSans-20"/>
      <path d="M 37.109375 75.984375 
L 37.109375 68.5 
L 28.515625 68.5 
Q 23.6875 68.5 21.796875 66.546875 
Q 19.921875 64.59375 19.921875 59.515625 
L 19.921875 54.6875 
L 34.71875 54.6875 
L 34.71875 47.703125 
L 19.921875 47.703125 
L 19.921875 0 
L 10.890625 0 
L 10.890625 47.703125 
L 2.296875 47.703125 
L 2.296875 54.6875 
L 10.890625 54.6875 
L 10.890625 58.5 
Q 10.890625 67.625 15.140625 71.796875 
Q 19.390625 75.984375 28.609375 75.984375 
z
" id="DejaVuSans-66"/>
      <path d="M 19.671875 64.796875 
L 19.671875 8.109375 
L 31.59375 8.109375 
Q 46.6875 8.109375 53.6875 14.9375 
Q 60.6875 21.78125 60.6875 36.53125 
Q 60.6875 51.171875 53.6875 57.984375 
Q 46.6875 64.796875 31.59375 64.796875 
z
M 9.8125 72.90625 
L 30.078125 72.90625 
Q 51.265625 72.90625 61.171875 64.09375 
Q 71.09375 55.28125 71.09375 36.53125 
Q 71.09375 17.671875 61.125 8.828125 
Q 51.171875 0 30.078125 0 
L 9.8125 0 
z
" id="DejaVuSans-44"/>
     </defs>
     <g transform="translate(172.910063 336.833125)scale(0.2 -0.2)">
      <use xlink:href="#DejaVuSans-6c"/>
      <use x="27.783203" xlink:href="#DejaVuSans-6f"/>
      <use x="88.964844" xlink:href="#DejaVuSans-67"/>
      <use x="152.441406" xlink:href="#DejaVuSans-31"/>
      <use x="216.064453" xlink:href="#DejaVuSans-30"/>
      <use x="279.6875" xlink:href="#DejaVuSans-20"/>
      <use x="311.474609" xlink:href="#DejaVuSans-6f"/>
      <use x="372.65625" xlink:href="#DejaVuSans-66"/>
      <use x="407.861328" xlink:href="#DejaVuSans-20"/>
      <use x="439.648438" xlink:href="#DejaVuSans-44"/>
      <use x="516.650391" xlink:href="#DejaVuSans-66"/>
     </g>
    </g>
   </g>
   <g id="matplotlib.axis_2">
    <g id="ytick_1">
     <g id="line2d_11">
      <path clip-path="url(#pec45fcc4f3)" d="M 5.52 291.28 
L 450.672 291.28 
" style="fill:none;stroke:#b0b0b0;stroke-linecap:square;stroke-width:0.8;"/>
     </g>
     <g id="line2d_12">
      <defs>
       <path d="M 0 0 
L -3.5 0 
" id="me86573270c" style="stroke:#000000;stroke-width:0.8;"/>
      </defs>
      <g>
       <use style="stroke:#000000;stroke-width:0.8;" x="5.52" xlink:href="#me86573270c" y="291.28"/>
      </g>
     </g>
    </g>
    <g id="ytick_2">
     <g id="line2d_13">
      <path clip-path="url(#pec45fcc4f3)" d="M 5.52 234.693861 
L 450.672 234.693861 
" style="fill:none;stroke:#b0b0b0;stroke-linecap:square;stroke-width:0.8;"/>
     </g>
     <g id="line2d_14">
      <g>
       <use style="stroke:#000000;stroke-width:0.8;" x="5.52" xlink:href="#me86573270c" y="234.693861"/>
      </g>
     </g>
    </g>
    <g id="ytick_3">
     <g id="line2d_15">
      <path clip-path="url(#pec45fcc4f3)" d="M 5.52 178.107723 
L 450.672 178.107723 
" style="fill:none;stroke:#b0b0b0;stroke-linecap:square;stroke-width:0.8;"/>
     </g>
     <g id="line2d_16">
      <g>
       <use style="stroke:#000000;stroke-width:0.8;" x="5.52" xlink:href="#me86573270c" y="178.107723"/>
      </g>
     </g>
    </g>
    <g id="ytick_4">
     <g id="line2d_17">
      <path clip-path="url(#pec45fcc4f3)" d="M 5.52 121.521584 
L 450.672 121.521584 
" style="fill:none;stroke:#b0b0b0;stroke-linecap:square;stroke-width:0.8;"/>
     </g>
     <g id="line2d_18">
      <g>
       <use style="stroke:#000000;stroke-width:0.8;" x="5.52" xlink:href="#me86573270c" y="121.521584"/>
      </g>
     </g>
    </g>
    <g id="ytick_5">
     <g id="line2d_19">
      <path clip-path="url(#pec45fcc4f3)" d="M 5.52 64.935446 
L 450.672 64.935446 
" style="fill:none;stroke:#b0b0b0;stroke-linecap:square;stroke-width:0.8;"/>
     </g>
     <g id="line2d_20">
      <g>
       <use style="stroke:#000000;stroke-width:0.8;" x="5.52" xlink:href="#me86573270c" y="64.935446"/>
      </g>
     </g>
    </g>
    <g id="ytick_6">
     <g id="line2d_21">
      <path clip-path="url(#pec45fcc4f3)" d="M 5.52 8.349307 
L 450.672 8.349307 
" style="fill:none;stroke:#b0b0b0;stroke-linecap:square;stroke-width:0.8;"/>
     </g>
     <g id="line2d_22">
      <g>
       <use style="stroke:#000000;stroke-width:0.8;" x="5.52" xlink:href="#me86573270c" y="8.349307"/>
      </g>
     </g>
    </g>
   </g>
   <g id="line2d_23">
    <path clip-path="url(#pec45fcc4f3)" d="M 5.410562 291.28 
L 5.410562 174.335314 
L 184.296629 174.335314 
L 184.296629 170.562904 
L 200.256156 170.562904 
L 200.256156 166.790495 
L 207.954003 166.790495 
L 207.954003 144.15604 
L 210.959234 144.15604 
L 210.959234 140.38363 
L 214.356335 140.38363 
L 214.356335 136.611221 
L 214.677829 136.611221 
L 214.677829 132.838812 
L 215.577551 132.838812 
L 215.577551 117.749175 
L 216.695037 117.749175 
L 216.695037 113.976766 
L 220.037041 113.976766 
L 220.037041 95.114719 
L 221.332511 95.114719 
L 221.332511 91.34231 
L 222.239231 91.34231 
L 222.239231 87.569901 
L 222.668856 87.569901 
L 222.668856 83.797492 
L 223.201099 83.797492 
L 223.201099 72.480264 
L 227.66058 72.480264 
L 227.66058 61.163036 
L 228.574614 61.163036 
L 228.578481 53.618218 
L 229.356 53.618218 
L 229.356 34.756172 
L 230.288087 34.756172 
L 230.288087 30.983762 
L 230.82464 30.983762 
L 230.82464 27.211353 
L 231.409228 27.211353 
L 231.409228 23.438944 
L 234.588191 23.438944 
L 234.588191 19.666535 
L 237.962469 19.666535 
L 237.962469 15.894125 
L 238.737846 15.894125 
L 238.737846 12.121716 
L 240.731949 12.121716 
L 240.731949 8.349307 
L 240.731949 8.349307 
L 450.672 8.349307 
L 450.672 8.349307 
" style="fill:none;stroke:#ff0000;stroke-linecap:square;stroke-width:3;"/>
   </g>
   <g id="line2d_24">
    <path clip-path="url(#pec45fcc4f3)" d="M 232.19692 291.28 
L 232.19692 287.507591 
L 240.251226 287.507591 
L 240.251226 283.735182 
L 240.602294 283.735182 
L 240.602294 279.962772 
L 241.005866 279.962772 
L 241.005866 276.190363 
L 243.02755 276.190363 
L 243.02755 272.417954 
L 243.755518 272.417954 
L 243.755518 268.645545 
L 244.424886 268.645545 
L 244.424886 264.873135 
L 244.985288 264.873135 
L 244.985288 261.100726 
L 245.86308 261.100726 
L 245.966405 253.555908 
L 246.675509 253.555908 
L 246.675509 249.783498 
L 248.017846 249.783498 
L 248.017846 246.011089 
L 249.175324 246.011089 
L 249.175324 242.23868 
L 249.295335 242.23868 
L 249.295335 238.466271 
L 251.606391 238.466271 
L 251.606391 234.693861 
L 252.946453 234.693861 
L 252.946453 230.921452 
L 255.957776 230.921452 
L 255.957776 227.149043 
L 256.170414 227.149043 
L 256.170414 223.376634 
L 256.362421 223.376634 
L 256.362421 219.604224 
L 256.864418 219.604224 
L 256.864418 215.831815 
L 257.020001 215.831815 
L 257.020001 212.059406 
L 257.257411 212.059406 
L 257.257411 208.286997 
L 258.051026 208.286997 
L 258.052227 200.742178 
L 258.227593 200.742178 
L 258.262704 193.19736 
L 258.410718 193.19736 
L 258.457543 181.880132 
L 258.524297 181.880132 
L 258.524297 178.107723 
L 258.649993 178.107723 
L 258.735893 166.790495 
L 258.770852 166.790495 
L 258.770852 163.018086 
L 259.270793 163.018086 
L 259.270793 159.245677 
L 260.018738 159.245677 
L 260.118727 147.928449 
L 260.38561 147.928449 
L 260.403848 140.38363 
L 261.827688 140.38363 
L 261.827688 136.611221 
L 262.134759 136.611221 
L 262.134759 132.838812 
L 263.125568 132.838812 
L 263.125568 129.066403 
L 263.658143 129.066403 
L 263.658143 125.293993 
L 264.660899 125.293993 
L 264.660899 121.521584 
L 265.233407 121.521584 
L 265.233407 117.749175 
L 265.510217 117.749175 
L 265.510217 113.976766 
L 265.869036 113.976766 
L 265.869036 110.204356 
L 266.679958 110.204356 
L 266.679958 106.431947 
L 267.541033 106.431947 
L 267.622489 98.887129 
L 267.749043 98.887129 
L 267.749043 95.114719 
L 268.005924 95.114719 
L 268.005924 91.34231 
L 269.234762 91.34231 
L 269.234762 87.569901 
L 269.36886 87.569901 
L 269.36886 83.797492 
L 269.502795 83.797492 
L 269.502795 80.025083 
L 270.272969 80.025083 
L 270.272969 76.252673 
L 270.470569 76.252673 
L 270.470569 72.480264 
L 275.01595 72.480264 
L 275.01595 68.707855 
L 277.285136 68.707855 
L 277.285136 64.935446 
L 307.868119 64.935446 
L 307.868119 61.163036 
L 343.189007 61.163036 
L 343.189007 57.390627 
L 344.673938 57.390627 
L 344.673938 53.618218 
L 357.528883 53.618218 
L 357.528883 49.845809 
L 364.263376 49.845809 
L 364.263376 46.073399 
L 368.137839 46.073399 
L 368.137839 42.30099 
L 368.566352 42.30099 
L 368.566352 38.528581 
L 369.015678 38.528581 
L 369.015678 34.756172 
L 371.164877 34.756172 
L 371.164877 30.983762 
L 373.160502 30.983762 
L 373.160502 27.211353 
L 378.675028 27.211353 
L 378.675028 23.438944 
L 383.50056 23.438944 
L 383.50056 19.666535 
L 383.740468 19.666535 
L 383.740468 15.894125 
L 384.477725 15.894125 
L 384.477725 12.121716 
L 384.752277 12.121716 
L 384.752277 8.349307 
L 384.752277 8.349307 
L 450.672 8.349307 
L 450.672 8.349307 
" style="fill:none;stroke:#00bfbf;stroke-linecap:square;stroke-width:1.5;"/>
   </g>
   <g id="line2d_25">
    <path clip-path="url(#pec45fcc4f3)" d="M 226.17707 291.28 
L 226.17707 287.507591 
L 229.440596 287.507591 
L 229.440596 283.735182 
L 232.19692 283.735182 
L 232.19692 279.962772 
L 233.966557 279.962772 
L 233.966557 276.190363 
L 237.60398 276.190363 
L 237.60398 272.417954 
L 239.909674 272.417954 
L 239.909674 268.645545 
L 240.783536 268.645545 
L 240.783536 264.873135 
L 241.005866 264.873135 
L 241.005866 261.100726 
L 243.255933 261.100726 
L 243.255933 257.328317 
L 244.424886 257.328317 
L 244.424886 253.555908 
L 245.966405 253.555908 
L 245.966405 249.783498 
L 246.617765 249.783498 
L 246.68273 242.23868 
L 249.295335 242.23868 
L 249.295335 238.466271 
L 251.256375 238.466271 
L 251.256375 234.693861 
L 251.606391 234.693861 
L 251.606391 230.921452 
L 252.390199 230.921452 
L 252.437856 223.376634 
L 253.491239 223.376634 
L 253.491239 219.604224 
L 255.957776 219.604224 
L 255.957776 215.831815 
L 256.170414 215.831815 
L 256.170414 212.059406 
L 256.362421 212.059406 
L 256.362421 208.286997 
L 256.861539 208.286997 
L 256.864418 200.742178 
L 257.257411 200.742178 
L 257.257411 196.969769 
L 257.621669 196.969769 
L 257.717792 185.652541 
L 257.916894 185.652541 
L 257.916894 181.880132 
L 258.051026 181.880132 
L 258.052227 174.335314 
L 258.177328 174.335314 
L 258.257916 159.245677 
L 258.322684 159.245677 
L 258.410718 147.928449 
L 258.457543 147.928449 
L 258.524297 140.38363 
L 258.622785 140.38363 
L 258.649993 132.838812 
L 258.770852 132.838812 
L 258.770852 129.066403 
L 259.185112 129.066403 
L 259.185112 125.293993 
L 259.497147 125.293993 
L 259.497147 121.521584 
L 260.213405 121.521584 
L 260.213405 117.749175 
L 260.639947 117.749175 
L 260.639947 113.976766 
L 260.828372 113.976766 
L 260.932594 106.431947 
L 262.022623 106.431947 
L 262.022623 102.659538 
L 262.134759 102.659538 
L 262.134759 98.887129 
L 262.474878 98.887129 
L 262.474878 95.114719 
L 262.996282 95.114719 
L 262.996282 91.34231 
L 266.590005 91.34231 
L 266.590005 87.569901 
L 267.622489 87.569901 
L 267.641417 76.252673 
L 267.858431 76.252673 
L 267.858431 72.480264 
L 268.952954 72.480264 
L 268.952954 68.707855 
L 269.234762 68.707855 
L 269.234762 64.935446 
L 307.868119 64.935446 
L 307.868119 61.163036 
L 332.490663 61.163036 
L 332.490663 57.390627 
L 338.391992 57.390627 
L 338.391992 53.618218 
L 339.266484 53.618218 
L 339.266484 49.845809 
L 341.039643 49.845809 
L 341.039643 46.073399 
L 355.428299 46.073399 
L 355.428299 42.30099 
L 357.528883 42.30099 
L 357.528883 38.528581 
L 359.44823 38.528581 
L 359.44823 34.756172 
L 360.57686 34.756172 
L 360.57686 30.983762 
L 362.272002 30.983762 
L 362.272002 27.211353 
L 368.137839 27.211353 
L 368.137839 23.438944 
L 369.015678 23.438944 
L 369.015678 19.666535 
L 371.607156 19.666535 
L 371.607156 15.894125 
L 376.245176 15.894125 
L 376.245176 12.121716 
L 383.740468 12.121716 
L 383.740468 8.349307 
L 383.740468 8.349307 
L 450.672 8.349307 
L 450.672 8.349307 
" style="fill:none;stroke:#bf00bf;stroke-linecap:square;stroke-width:1.5;"/>
   </g>
   <g id="line2d_26">
    <path clip-path="url(#pec45fcc4f3)" d="M 226.17707 291.28 
L 226.17707 287.507591 
L 229.440596 287.507591 
L 229.521562 279.962772 
L 232.19692 279.962772 
L 232.19692 276.190363 
L 232.496018 276.190363 
L 232.496018 272.417954 
L 233.966557 272.417954 
L 233.966557 268.645545 
L 236.869652 268.645545 
L 236.869652 264.873135 
L 240.783536 264.873135 
L 240.783536 261.100726 
L 241.947715 261.100726 
L 241.947715 257.328317 
L 242.413339 257.328317 
L 242.413339 253.555908 
L 243.801707 253.555908 
L 243.801707 249.783498 
L 244.096914 249.783498 
L 244.096914 246.011089 
L 245.966405 246.011089 
L 245.966405 242.23868 
L 247.617428 242.23868 
L 247.658415 234.693861 
L 249.247176 234.693861 
L 249.247176 230.921452 
L 250.853699 230.921452 
L 250.853699 227.149043 
L 251.606391 227.149043 
L 251.649881 219.604224 
L 252.390199 219.604224 
L 252.437856 212.059406 
L 253.841896 212.059406 
L 253.925038 204.514587 
L 255.784651 204.514587 
L 255.784651 200.742178 
L 255.957776 200.742178 
L 255.957776 196.969769 
L 256.160406 196.969769 
L 256.24178 185.652541 
L 256.362421 185.652541 
L 256.362421 181.880132 
L 256.582517 181.880132 
L 256.582517 178.107723 
L 256.857132 178.107723 
L 256.864418 170.562904 
L 257.026613 170.562904 
L 257.081038 163.018086 
L 257.218142 163.018086 
L 257.257411 151.700858 
L 257.474477 151.700858 
L 257.474477 147.928449 
L 257.631929 147.928449 
L 257.73778 136.611221 
L 257.951995 136.611221 
L 257.951995 132.838812 
L 258.229792 132.838812 
L 258.229792 129.066403 
L 258.365824 129.066403 
L 258.457543 117.749175 
L 259.497147 117.749175 
L 259.497147 113.976766 
L 260.213405 113.976766 
L 260.263776 106.431947 
L 260.639947 106.431947 
L 260.639947 102.659538 
L 261.276618 102.659538 
L 261.276618 98.887129 
L 261.883405 98.887129 
L 261.912223 91.34231 
L 262.022623 91.34231 
L 262.022623 87.569901 
L 262.629642 87.569901 
L 262.629642 83.797492 
L 265.580204 83.797492 
L 265.580204 80.025083 
L 265.749196 80.025083 
L 265.749196 76.252673 
L 266.779805 76.252673 
L 266.779805 72.480264 
L 267.858431 72.480264 
L 267.858431 68.707855 
L 268.952954 68.707855 
L 268.952954 64.935446 
L 307.868119 64.935446 
L 307.868119 61.163036 
L 319.675442 61.163036 
L 319.675442 57.390627 
L 324.009998 57.390627 
L 324.009998 53.618218 
L 338.221099 53.618218 
L 338.221099 49.845809 
L 338.799809 49.845809 
L 338.799809 46.073399 
L 339.266484 46.073399 
L 339.266484 42.30099 
L 347.038484 42.30099 
L 347.038484 38.528581 
L 348.609603 38.528581 
L 348.609603 34.756172 
L 350.967349 34.756172 
L 350.967349 30.983762 
L 355.428299 30.983762 
L 355.428299 27.211353 
L 359.44823 27.211353 
L 359.44823 23.438944 
L 368.137839 23.438944 
L 368.137839 19.666535 
L 369.015678 19.666535 
L 369.015678 15.894125 
L 376.245176 15.894125 
L 376.245176 12.121716 
L 383.740468 12.121716 
L 383.740468 8.349307 
L 383.740468 8.349307 
L 450.672 8.349307 
L 450.672 8.349307 
" style="fill:none;stroke:#000000;stroke-linecap:square;stroke-width:1.5;"/>
   </g>
   <g id="line2d_27">
    <path clip-path="url(#pec45fcc4f3)" d="M 224.717785 291.28 
L 224.717785 287.507591 
L 226.17707 287.507591 
L 226.17707 283.735182 
L 229.521562 283.735182 
L 229.521562 279.962772 
L 229.660181 279.962772 
L 229.660181 276.190363 
L 231.473064 276.190363 
L 231.473064 272.417954 
L 232.19692 272.417954 
L 232.19692 268.645545 
L 233.966557 268.645545 
L 233.966557 264.873135 
L 236.136257 264.873135 
L 236.136257 261.100726 
L 238.3503 261.100726 
L 238.3503 257.328317 
L 240.783536 257.328317 
L 240.783536 253.555908 
L 241.947715 253.555908 
L 241.947715 249.783498 
L 242.060905 249.783498 
L 242.060905 246.011089 
L 242.753042 246.011089 
L 242.753042 242.23868 
L 245.574978 242.23868 
L 245.574978 238.466271 
L 247.325721 238.466271 
L 247.325721 234.693861 
L 247.658415 234.693861 
L 247.658415 230.921452 
L 249.247176 230.921452 
L 249.247176 227.149043 
L 250.839389 227.149043 
L 250.839389 223.376634 
L 251.22986 223.376634 
L 251.22986 219.604224 
L 251.410287 219.604224 
L 251.410287 215.831815 
L 251.606391 215.831815 
L 251.649881 208.286997 
L 252.390199 208.286997 
L 252.437856 200.742178 
L 253.841896 200.742178 
L 253.925038 193.19736 
L 254.403531 193.19736 
L 254.415182 185.652541 
L 255.376672 185.652541 
L 255.376672 181.880132 
L 255.784651 181.880132 
L 255.784651 178.107723 
L 255.957776 178.107723 
L 256.045346 170.562904 
L 256.076615 170.562904 
L 256.170414 159.245677 
L 256.24178 159.245677 
L 256.331874 147.928449 
L 256.601657 147.928449 
L 256.693514 136.611221 
L 256.857132 136.611221 
L 256.957735 129.066403 
L 257.031948 129.066403 
L 257.031948 125.293993 
L 257.257411 125.293993 
L 257.276243 113.976766 
L 258.457543 113.976766 
L 258.457543 110.204356 
L 259.040037 110.204356 
L 259.040037 106.431947 
L 259.348725 106.431947 
L 259.412992 98.887129 
L 259.497147 98.887129 
L 259.497147 95.114719 
L 259.781722 95.114719 
L 259.781722 91.34231 
L 260.639947 91.34231 
L 260.639947 87.569901 
L 260.977368 87.569901 
L 260.977368 83.797492 
L 262.335413 83.797492 
L 262.375332 76.252673 
L 262.799939 76.252673 
L 262.887569 68.707855 
L 264.680996 68.707855 
L 264.680996 64.935446 
L 294.724142 64.935446 
L 294.724142 61.163036 
L 307.868119 61.163036 
L 307.868119 57.390627 
L 318.959697 57.390627 
L 318.959697 53.618218 
L 323.800205 53.618218 
L 323.800205 49.845809 
L 324.009998 49.845809 
L 324.009998 46.073399 
L 335.117996 46.073399 
L 335.117996 42.30099 
L 338.799809 42.30099 
L 338.799809 38.528581 
L 343.295577 38.528581 
L 343.295577 34.756172 
L 345.897713 34.756172 
L 345.897713 30.983762 
L 347.038484 30.983762 
L 347.038484 27.211353 
L 347.355305 27.211353 
L 347.355305 23.438944 
L 359.44823 23.438944 
L 359.44823 19.666535 
L 365.681194 19.666535 
L 365.681194 15.894125 
L 367.976748 15.894125 
L 367.976748 12.121716 
L 370.508567 12.121716 
L 370.508567 8.349307 
L 370.508567 8.349307 
L 450.672 8.349307 
L 450.672 8.349307 
" style="fill:none;stroke:#00bfbf;stroke-linecap:square;stroke-width:1.5;"/>
   </g>
   <g id="line2d_28">
    <path clip-path="url(#pec45fcc4f3)" d="M 5.410562 291.28 
L 5.410562 238.466271 
L 198.626677 238.466271 
L 198.626677 234.693861 
L 203.419787 234.693861 
L 203.419787 230.921452 
L 205.888411 230.921452 
L 205.888411 227.149043 
L 212.431744 227.149043 
L 212.431744 223.376634 
L 214.18144 223.376634 
L 214.18144 219.604224 
L 214.531184 219.604224 
L 214.604479 212.059406 
L 215.91286 212.059406 
L 215.91286 208.286997 
L 216.230179 208.286997 
L 216.230179 204.514587 
L 216.45382 204.514587 
L 216.530842 196.969769 
L 222.945196 196.969769 
L 222.945196 193.19736 
L 226.004341 193.19736 
L 226.004341 189.42495 
L 226.699554 189.42495 
L 226.699554 185.652541 
L 229.251338 185.652541 
L 229.26 178.107723 
L 239.218789 178.107723 
L 239.218789 174.335314 
L 241.738024 174.335314 
L 241.738024 170.562904 
L 243.768774 170.562904 
L 243.768774 166.790495 
L 244.451281 166.790495 
L 244.451281 163.018086 
L 245.36573 163.018086 
L 245.36573 159.245677 
L 245.496197 159.245677 
L 245.496197 155.473267 
L 245.797491 155.473267 
L 245.897882 144.15604 
L 245.992007 144.15604 
L 246.08098 132.838812 
L 246.516106 132.838812 
L 246.516106 129.066403 
L 246.888768 129.066403 
L 246.888768 125.293993 
L 247.414074 125.293993 
L 247.414074 121.521584 
L 247.630407 121.521584 
L 247.630407 117.749175 
L 247.795049 117.749175 
L 247.795049 113.976766 
L 247.927454 113.976766 
L 247.927454 110.204356 
L 248.759697 110.204356 
L 248.759697 106.431947 
L 249.091744 106.431947 
L 249.194058 98.887129 
L 249.565644 98.887129 
L 249.597013 91.34231 
L 249.772179 91.34231 
L 249.772179 87.569901 
L 250.476192 87.569901 
L 250.476192 83.797492 
L 250.640277 83.797492 
L 250.640277 80.025083 
L 250.907262 80.025083 
L 250.907262 76.252673 
L 252.983255 76.252673 
L 252.983255 72.480264 
L 253.229359 72.480264 
L 253.229359 68.707855 
L 256.509617 68.707855 
L 256.509617 64.935446 
L 279.281179 64.935446 
L 279.281179 61.163036 
L 285.786649 61.163036 
L 285.786649 57.390627 
L 289.227007 57.390627 
L 289.227007 53.618218 
L 290.426731 53.618218 
L 290.426731 49.845809 
L 297.940455 49.845809 
L 297.940455 46.073399 
L 299.476947 46.073399 
L 299.476947 42.30099 
L 300.069757 42.30099 
L 300.069757 38.528581 
L 305.27591 38.528581 
L 305.27591 34.756172 
L 307.105018 34.756172 
L 307.105018 30.983762 
L 309.484078 30.983762 
L 309.484078 27.211353 
L 311.121845 27.211353 
L 311.121845 23.438944 
L 312.304868 23.438944 
L 312.304868 19.666535 
L 314.428256 19.666535 
L 314.428256 15.894125 
L 317.623721 15.894125 
L 317.623721 12.121716 
L 324.2272 12.121716 
L 324.2272 8.349307 
L 324.2272 8.349307 
L 450.672 8.349307 
L 450.672 8.349307 
" style="fill:none;stroke:#bf00bf;stroke-linecap:square;stroke-width:1.5;"/>
   </g>
   <g id="line2d_29">
    <path clip-path="url(#pec45fcc4f3)" d="M 5.410562 291.28 
L 5.410562 234.693861 
L 104.700217 234.693861 
L 104.700217 230.921452 
L 115.255368 230.921452 
L 115.255368 227.149043 
L 117.301783 227.149043 
L 117.301783 223.376634 
L 119.077535 223.376634 
L 119.077535 219.604224 
L 127.894925 219.604224 
L 127.894925 215.831815 
L 128.245117 215.831815 
L 128.245117 212.059406 
L 129.410459 212.059406 
L 129.410459 208.286997 
L 129.916484 208.286997 
L 129.916484 204.514587 
L 130.908868 204.514587 
L 130.908868 200.742178 
L 132.980973 200.742178 
L 132.980973 196.969769 
L 136.187532 196.969769 
L 136.187532 193.19736 
L 143.737227 193.19736 
L 143.737227 189.42495 
L 147.065414 189.42495 
L 147.065414 185.652541 
L 149.005722 185.652541 
L 149.005722 181.880132 
L 150.210824 181.880132 
L 150.210824 178.107723 
L 220.564254 178.107723 
L 220.564254 174.335314 
L 222.556558 174.335314 
L 222.556558 170.562904 
L 223.484013 170.562904 
L 223.484013 166.790495 
L 226.236609 166.790495 
L 226.236609 163.018086 
L 227.10673 163.018086 
L 227.10673 159.245677 
L 228.31779 159.245677 
L 228.31779 155.473267 
L 228.574614 155.473267 
L 228.578481 147.928449 
L 228.77458 147.928449 
L 228.77458 144.15604 
L 229.411507 144.15604 
L 229.411507 140.38363 
L 229.752836 140.38363 
L 229.752836 136.611221 
L 229.97214 136.611221 
L 229.97214 132.838812 
L 230.133904 132.838812 
L 230.133904 129.066403 
L 230.333083 129.066403 
L 230.333083 125.293993 
L 230.86124 125.293993 
L 230.92718 117.749175 
L 231.069137 117.749175 
L 231.069137 113.976766 
L 231.463978 113.976766 
L 231.471933 106.431947 
L 231.739425 106.431947 
L 231.754931 98.887129 
L 232.361588 98.887129 
L 232.361588 95.114719 
L 232.652052 95.114719 
L 232.652052 91.34231 
L 232.84194 91.34231 
L 232.867719 83.797492 
L 234.247814 83.797492 
L 234.247814 80.025083 
L 234.662494 80.025083 
L 234.662494 76.252673 
L 235.791991 76.252673 
L 235.791991 72.480264 
L 235.996736 72.480264 
L 235.996736 68.707855 
L 236.116225 68.707855 
L 236.116225 64.935446 
L 259.04955 64.935446 
L 259.04955 61.163036 
L 271.940536 61.163036 
L 271.940536 57.390627 
L 277.609149 57.390627 
L 277.609149 53.618218 
L 278.239074 53.618218 
L 278.239074 49.845809 
L 282.351279 49.845809 
L 282.351279 46.073399 
L 284.808445 46.073399 
L 284.808445 42.30099 
L 285.786649 42.30099 
L 285.786649 38.528581 
L 286.890301 38.528581 
L 286.890301 34.756172 
L 289.123271 34.756172 
L 289.227007 27.211353 
L 297.940455 27.211353 
L 297.940455 23.438944 
L 301.567752 23.438944 
L 301.574562 15.894125 
L 304.715366 15.894125 
L 304.715366 12.121716 
L 305.27591 12.121716 
L 305.27591 8.349307 
L 305.27591 8.349307 
L 450.672 8.349307 
L 450.672 8.349307 
" style="fill:none;stroke:#000000;stroke-linecap:square;stroke-width:1.5;"/>
   </g>
   <g id="line2d_30">
    <path clip-path="url(#pec45fcc4f3)" d="M 5.410562 291.28 
L 5.410562 174.335314 
L 207.954003 174.335314 
L 207.954003 151.700858 
L 209.4361 151.700858 
L 209.4361 147.928449 
L 215.577551 147.928449 
L 215.577551 132.838812 
L 220.037041 132.838812 
L 220.037041 113.976766 
L 223.201099 113.976766 
L 223.201099 102.659538 
L 227.66058 102.659538 
L 227.66058 91.34231 
L 228.574614 91.34231 
L 228.578481 83.797492 
L 229.356 83.797492 
L 229.356 64.935446 
L 230.82464 64.935446 
L 230.82464 61.163036 
L 235.354883 61.163036 
L 235.354883 57.390627 
L 239.338 57.390627 
L 239.338 53.618218 
L 246.071777 53.618218 
L 246.071777 49.845809 
L 255.195203 49.845809 
L 255.195203 46.073399 
L 256.328877 46.073399 
L 256.328877 42.30099 
L 258.18877 42.30099 
L 258.18877 38.528581 
L 259.04955 38.528581 
L 259.04955 34.756172 
L 260.69802 34.756172 
L 260.69802 30.983762 
L 261.389879 30.983762 
L 261.389879 27.211353 
L 264.689662 27.211353 
L 264.689662 23.438944 
L 273.538758 23.438944 
L 273.538758 19.666535 
L 276.180829 19.666535 
L 276.180829 15.894125 
L 277.9146 15.894125 
L 277.9146 12.121716 
L 285.97325 12.121716 
L 285.97325 8.349307 
L 285.97325 8.349307 
L 450.672 8.349307 
L 450.672 8.349307 
" style="fill:none;stroke:#00bfbf;stroke-linecap:square;stroke-width:1.5;"/>
   </g>
   <g id="line2d_31">
    <path clip-path="url(#pec45fcc4f3)" d="M 5.410562 291.28 
L 5.410562 174.335314 
L 185.701275 174.335314 
L 185.701275 170.562904 
L 207.954003 170.562904 
L 207.954003 147.928449 
L 215.577551 147.928449 
L 215.577551 132.838812 
L 220.037041 132.838812 
L 220.037041 113.976766 
L 223.201099 113.976766 
L 223.201099 102.659538 
L 224.25398 102.659538 
L 224.25398 98.887129 
L 225.630395 98.887129 
L 225.630395 95.114719 
L 227.61828 95.114719 
L 227.66058 80.025083 
L 228.574614 80.025083 
L 228.578481 72.480264 
L 229.356 72.480264 
L 229.356 53.618218 
L 230.090872 53.618218 
L 230.090872 49.845809 
L 230.82464 49.845809 
L 230.82464 46.073399 
L 233.409216 46.073399 
L 233.409216 42.30099 
L 239.012405 42.30099 
L 239.012405 38.528581 
L 240.249285 38.528581 
L 240.249285 34.756172 
L 241.708222 34.756172 
L 241.772539 27.211353 
L 243.333172 27.211353 
L 243.333172 23.438944 
L 243.854282 23.438944 
L 243.854282 19.666535 
L 248.916099 19.666535 
L 248.916099 15.894125 
L 253.673106 15.894125 
L 253.673106 12.121716 
L 254.45585 12.121716 
L 254.45585 8.349307 
L 254.45585 8.349307 
L 450.672 8.349307 
L 450.672 8.349307 
" style="fill:none;stroke:#bf00bf;stroke-linecap:square;stroke-width:1.5;"/>
   </g>
   <g id="patch_3">
    <path d="M 5.52 291.28 
L 5.52 5.52 
" style="fill:none;stroke:#000000;stroke-linecap:square;stroke-linejoin:miter;stroke-width:0.8;"/>
   </g>
   <g id="patch_4">
    <path d="M 450.672 291.28 
L 450.672 5.52 
" style="fill:none;stroke:#000000;stroke-linecap:square;stroke-linejoin:miter;stroke-width:0.8;"/>
   </g>
   <g id="patch_5">
    <path d="M 5.52 291.28 
L 450.672 291.28 
" style="fill:none;stroke:#000000;stroke-linecap:square;stroke-linejoin:miter;stroke-width:0.8;"/>
   </g>
   <g id="patch_6">
    <path d="M 5.52 5.52 
L 450.672 5.52 
" style="fill:none;stroke:#000000;stroke-linecap:square;stroke-linejoin:miter;stroke-width:0.8;"/>
   </g>
   <g id="text_6">
    <!-- {f1-f5}, 5-D -->
    <defs>
     <path d="M 51.125 -9.28125 
L 51.125 -16.3125 
L 48.09375 -16.3125 
Q 35.9375 -16.3125 31.8125 -12.6875 
Q 27.6875 -9.078125 27.6875 1.703125 
L 27.6875 13.375 
Q 27.6875 20.75 25.046875 23.578125 
Q 22.40625 26.421875 15.484375 26.421875 
L 12.5 26.421875 
L 12.5 33.40625 
L 15.484375 33.40625 
Q 22.46875 33.40625 25.078125 36.203125 
Q 27.6875 39.015625 27.6875 46.296875 
L 27.6875 58.015625 
Q 27.6875 68.796875 31.8125 72.390625 
Q 35.9375 75.984375 48.09375 75.984375 
L 51.125 75.984375 
L 51.125 69 
L 47.796875 69 
Q 40.921875 69 38.8125 66.84375 
Q 36.71875 64.703125 36.71875 57.8125 
L 36.71875 45.703125 
Q 36.71875 38.03125 34.5 34.5625 
Q 32.28125 31.109375 26.90625 29.890625 
Q 32.328125 28.5625 34.515625 25.09375 
Q 36.71875 21.625 36.71875 14.015625 
L 36.71875 1.90625 
Q 36.71875 -4.984375 38.8125 -7.125 
Q 40.921875 -9.28125 47.796875 -9.28125 
z
" id="DejaVuSans-7b"/>
     <path d="M 10.796875 72.90625 
L 49.515625 72.90625 
L 49.515625 64.59375 
L 19.828125 64.59375 
L 19.828125 46.734375 
Q 21.96875 47.46875 24.109375 47.828125 
Q 26.265625 48.1875 28.421875 48.1875 
Q 40.625 48.1875 47.75 41.5 
Q 54.890625 34.8125 54.890625 23.390625 
Q 54.890625 11.625 47.5625 5.09375 
Q 40.234375 -1.421875 26.90625 -1.421875 
Q 22.3125 -1.421875 17.546875 -0.640625 
Q 12.796875 0.140625 7.71875 1.703125 
L 7.71875 11.625 
Q 12.109375 9.234375 16.796875 8.0625 
Q 21.484375 6.890625 26.703125 6.890625 
Q 35.15625 6.890625 40.078125 11.328125 
Q 45.015625 15.765625 45.015625 23.390625 
Q 45.015625 31 40.078125 35.4375 
Q 35.15625 39.890625 26.703125 39.890625 
Q 22.75 39.890625 18.8125 39.015625 
Q 14.890625 38.140625 10.796875 36.28125 
z
" id="DejaVuSans-35"/>
     <path d="M 12.5 -9.28125 
L 15.921875 -9.28125 
Q 22.75 -9.28125 24.828125 -7.171875 
Q 26.90625 -5.078125 26.90625 1.90625 
L 26.90625 14.015625 
Q 26.90625 21.625 29.09375 25.09375 
Q 31.296875 28.5625 36.71875 29.890625 
Q 31.296875 31.109375 29.09375 34.5625 
Q 26.90625 38.03125 26.90625 45.703125 
L 26.90625 57.8125 
Q 26.90625 64.75 24.828125 66.875 
Q 22.75 69 15.921875 69 
L 12.5 69 
L 12.5 75.984375 
L 15.578125 75.984375 
Q 27.734375 75.984375 31.8125 72.390625 
Q 35.890625 68.796875 35.890625 58.015625 
L 35.890625 46.296875 
Q 35.890625 39.015625 38.515625 36.203125 
Q 41.15625 33.40625 48.09375 33.40625 
L 51.125 33.40625 
L 51.125 26.421875 
L 48.09375 26.421875 
Q 41.15625 26.421875 38.515625 23.578125 
Q 35.890625 20.75 35.890625 13.375 
L 35.890625 1.703125 
Q 35.890625 -9.078125 31.8125 -12.6875 
Q 27.734375 -16.3125 15.578125 -16.3125 
L 12.5 -16.3125 
z
" id="DejaVuSans-7d"/>
     <path d="M 11.71875 12.40625 
L 22.015625 12.40625 
L 22.015625 4 
L 14.015625 -11.625 
L 7.71875 -11.625 
L 11.71875 4 
z
" id="DejaVuSans-2c"/>
    </defs>
    <g transform="translate(321.51896 285.5648)scale(0.2 -0.2)">
     <use xlink:href="#DejaVuSans-7b"/>
     <use x="63.623047" xlink:href="#DejaVuSans-66"/>
     <use x="98.828125" xlink:href="#DejaVuSans-31"/>
     <use x="162.451172" xlink:href="#DejaVuSans-2d"/>
     <use x="198.535156" xlink:href="#DejaVuSans-66"/>
     <use x="233.740234" xlink:href="#DejaVuSans-35"/>
     <use x="297.363281" xlink:href="#DejaVuSans-7d"/>
     <use x="360.986328" xlink:href="#DejaVuSans-2c"/>
     <use x="392.773438" xlink:href="#DejaVuSans-20"/>
     <use x="424.560547" xlink:href="#DejaVuSans-35"/>
     <use x="488.183594" xlink:href="#DejaVuSans-2d"/>
     <use x="524.267578" xlink:href="#DejaVuSans-44"/>
    </g>
   </g>
   <g id="text_7">
    <!-- v0.0.0 -->
    <defs>
     <path d="M 2.984375 54.6875 
L 12.5 54.6875 
L 29.59375 8.796875 
L 46.6875 54.6875 
L 56.203125 54.6875 
L 35.6875 0 
L 23.484375 0 
z
" id="DejaVuSans-76"/>
     <path d="M 10.6875 12.40625 
L 21 12.40625 
L 21 0 
L 10.6875 0 
z
" id="DejaVuSans-2e"/>
    </defs>
    <g style="fill:#808080;" transform="translate(212.41475 286.342713)scale(0.1 -0.1)">
     <use xlink:href="#DejaVuSans-76"/>
     <use x="59.179688" xlink:href="#DejaVuSans-30"/>
     <use x="122.802734" xlink:href="#DejaVuSans-2e"/>
     <use x="154.589844" xlink:href="#DejaVuSans-30"/>
     <use x="218.212891" xlink:href="#DejaVuSans-2e"/>
     <use x="250" xlink:href="#DejaVuSans-30"/>
    </g>
   </g>
  </g>
 </g>
 <defs>
  <clipPath id="pec45fcc4f3">
   <rect height="285.76" width="445.152" x="5.52" y="5.52"/>
  </clipPath>
 </defs>
</svg>
