<?xml version="1.0" encoding="utf-8" standalone="no"?>
<!DOCTYPE svg PUBLIC "-//W3C//DTD SVG 1.1//EN"
  "http://www.w3.org/Graphics/SVG/1.1/DTD/svg11.dtd">
<!-- Created with matplotlib (http://matplotlib.org/) -->
<svg height="345.6pt" version="1.1" viewBox="0 0 460.8 345.6" width="460.8pt" xmlns="http://www.w3.org/2000/svg" xmlns:xlink="http://www.w3.org/1999/xlink">
 <defs>
  <style type="text/css">
*{stroke-linecap:butt;stroke-linejoin:round;}
  </style>
 </defs>
 <g id="figure_1">
  <g id="patch_1">
   <path d="M 0 345.6 
L 460.8 345.6 
L 460.8 0 
L 0 0 
z
" style="fill:#ffffff;"/>
  </g>
  <g id="axes_1">
   <g id="patch_2">
    <path d="M 5.52 291.28 
L 450.672 291.28 
L 450.672 5.52 
L 5.52 5.52 
z
" style="fill:#ffffff;"/>
   </g>
   <g id="matplotlib.axis_1">
    <g id="xtick_1">
     <g id="line2d_1">
      <path clip-path="url(#p6f20561ecb)" d="M 5.410562 291.28 
L 5.410562 5.52 
" style="fill:none;stroke:#b0b0b0;stroke-linecap:square;stroke-width:0.8;"/>
     </g>
     <g id="line2d_2">
      <defs>
       <path d="M 0 0 
L 0 3.5 
" id="mad996c9f61" style="stroke:#000000;stroke-width:0.8;"/>
      </defs>
      <g>
       <use style="stroke:#000000;stroke-width:0.8;" x="5.410562" xlink:href="#mad996c9f61" y="291.28"/>
      </g>
     </g>
    </g>
    <g id="xtick_2">
     <g id="line2d_3">
      <path clip-path="url(#p6f20561ecb)" d="M 106.710074 291.28 
L 106.710074 5.52 
" style="fill:none;stroke:#b0b0b0;stroke-linecap:square;stroke-width:0.8;"/>
     </g>
     <g id="line2d_4">
      <g>
       <use style="stroke:#000000;stroke-width:0.8;" x="106.710074" xlink:href="#mad996c9f61" y="291.28"/>
      </g>
     </g>
     <g id="text_1">
      <!-- -4 -->
      <defs>
       <path d="M 4.890625 31.390625 
L 31.203125 31.390625 
L 31.203125 23.390625 
L 4.890625 23.390625 
z
" id="DejaVuSans-2d"/>
       <path d="M 37.796875 64.3125 
L 12.890625 25.390625 
L 37.796875 25.390625 
z
M 35.203125 72.90625 
L 47.609375 72.90625 
L 47.609375 25.390625 
L 58.015625 25.390625 
L 58.015625 17.1875 
L 47.609375 17.1875 
L 47.609375 0 
L 37.796875 0 
L 37.796875 17.1875 
L 4.890625 17.1875 
L 4.890625 26.703125 
z
" id="DejaVuSans-34"/>
      </defs>
      <g transform="translate(96.739762 313.476875)scale(0.2 -0.2)">
       <use xlink:href="#DejaVuSans-2d"/>
       <use x="36.083984" xlink:href="#DejaVuSans-34"/>
      </g>
     </g>
    </g>
    <g id="xtick_3">
     <g id="line2d_5">
      <path clip-path="url(#p6f20561ecb)" d="M 208.009586 291.28 
L 208.009586 5.52 
" style="fill:none;stroke:#b0b0b0;stroke-linecap:square;stroke-width:0.8;"/>
     </g>
     <g id="line2d_6">
      <g>
       <use style="stroke:#000000;stroke-width:0.8;" x="208.009586" xlink:href="#mad996c9f61" y="291.28"/>
      </g>
     </g>
     <g id="text_2">
      <!-- 0 -->
      <defs>
       <path d="M 31.78125 66.40625 
Q 24.171875 66.40625 20.328125 58.90625 
Q 16.5 51.421875 16.5 36.375 
Q 16.5 21.390625 20.328125 13.890625 
Q 24.171875 6.390625 31.78125 6.390625 
Q 39.453125 6.390625 43.28125 13.890625 
Q 47.125 21.390625 47.125 36.375 
Q 47.125 51.421875 43.28125 58.90625 
Q 39.453125 66.40625 31.78125 66.40625 
z
M 31.78125 74.21875 
Q 44.046875 74.21875 50.515625 64.515625 
Q 56.984375 54.828125 56.984375 36.375 
Q 56.984375 17.96875 50.515625 8.265625 
Q 44.046875 -1.421875 31.78125 -1.421875 
Q 19.53125 -1.421875 13.0625 8.265625 
Q 6.59375 17.96875 6.59375 36.375 
Q 6.59375 54.828125 13.0625 64.515625 
Q 19.53125 74.21875 31.78125 74.21875 
z
" id="DejaVuSans-30"/>
      </defs>
      <g transform="translate(201.647086 313.476875)scale(0.2 -0.2)">
       <use xlink:href="#DejaVuSans-30"/>
      </g>
     </g>
    </g>
    <g id="xtick_4">
     <g id="line2d_7">
      <path clip-path="url(#p6f20561ecb)" d="M 309.309099 291.28 
L 309.309099 5.52 
" style="fill:none;stroke:#b0b0b0;stroke-linecap:square;stroke-width:0.8;"/>
     </g>
     <g id="line2d_8">
      <g>
       <use style="stroke:#000000;stroke-width:0.8;" x="309.309099" xlink:href="#mad996c9f61" y="291.28"/>
      </g>
     </g>
     <g id="text_3">
      <!-- 4 -->
      <g transform="translate(302.946599 313.476875)scale(0.2 -0.2)">
       <use xlink:href="#DejaVuSans-34"/>
      </g>
     </g>
    </g>
    <g id="xtick_5">
     <g id="line2d_9">
      <path clip-path="url(#p6f20561ecb)" d="M 410.608611 291.28 
L 410.608611 5.52 
" style="fill:none;stroke:#b0b0b0;stroke-linecap:square;stroke-width:0.8;"/>
     </g>
     <g id="line2d_10">
      <g>
       <use style="stroke:#000000;stroke-width:0.8;" x="410.608611" xlink:href="#mad996c9f61" y="291.28"/>
      </g>
     </g>
     <g id="text_4">
      <!-- 8 -->
      <defs>
       <path d="M 31.78125 34.625 
Q 24.75 34.625 20.71875 30.859375 
Q 16.703125 27.09375 16.703125 20.515625 
Q 16.703125 13.921875 20.71875 10.15625 
Q 24.75 6.390625 31.78125 6.390625 
Q 38.8125 6.390625 42.859375 10.171875 
Q 46.921875 13.96875 46.921875 20.515625 
Q 46.921875 27.09375 42.890625 30.859375 
Q 38.875 34.625 31.78125 34.625 
z
M 21.921875 38.8125 
Q 15.578125 40.375 12.03125 44.71875 
Q 8.5 49.078125 8.5 55.328125 
Q 8.5 64.0625 14.71875 69.140625 
Q 20.953125 74.21875 31.78125 74.21875 
Q 42.671875 74.21875 48.875 69.140625 
Q 55.078125 64.0625 55.078125 55.328125 
Q 55.078125 49.078125 51.53125 44.71875 
Q 48 40.375 41.703125 38.8125 
Q 48.828125 37.15625 52.796875 32.3125 
Q 56.78125 27.484375 56.78125 20.515625 
Q 56.78125 9.90625 50.3125 4.234375 
Q 43.84375 -1.421875 31.78125 -1.421875 
Q 19.734375 -1.421875 13.25 4.234375 
Q 6.78125 9.90625 6.78125 20.515625 
Q 6.78125 27.484375 10.78125 32.3125 
Q 14.796875 37.15625 21.921875 38.8125 
z
M 18.3125 54.390625 
Q 18.3125 48.734375 21.84375 45.5625 
Q 25.390625 42.390625 31.78125 42.390625 
Q 38.140625 42.390625 41.71875 45.5625 
Q 45.3125 48.734375 45.3125 54.390625 
Q 45.3125 60.0625 41.71875 63.234375 
Q 38.140625 66.40625 31.78125 66.40625 
Q 25.390625 66.40625 21.84375 63.234375 
Q 18.3125 60.0625 18.3125 54.390625 
z
" id="DejaVuSans-38"/>
      </defs>
      <g transform="translate(404.246111 313.476875)scale(0.2 -0.2)">
       <use xlink:href="#DejaVuSans-38"/>
      </g>
     </g>
    </g>
    <g id="text_5">
     <!-- log10 of Df -->
     <defs>
      <path d="M 9.421875 75.984375 
L 18.40625 75.984375 
L 18.40625 0 
L 9.421875 0 
z
" id="DejaVuSans-6c"/>
      <path d="M 30.609375 48.390625 
Q 23.390625 48.390625 19.1875 42.75 
Q 14.984375 37.109375 14.984375 27.296875 
Q 14.984375 17.484375 19.15625 11.84375 
Q 23.34375 6.203125 30.609375 6.203125 
Q 37.796875 6.203125 41.984375 11.859375 
Q 46.1875 17.53125 46.1875 27.296875 
Q 46.1875 37.015625 41.984375 42.703125 
Q 37.796875 48.390625 30.609375 48.390625 
z
M 30.609375 56 
Q 42.328125 56 49.015625 48.375 
Q 55.71875 40.765625 55.71875 27.296875 
Q 55.71875 13.875 49.015625 6.21875 
Q 42.328125 -1.421875 30.609375 -1.421875 
Q 18.84375 -1.421875 12.171875 6.21875 
Q 5.515625 13.875 5.515625 27.296875 
Q 5.515625 40.765625 12.171875 48.375 
Q 18.84375 56 30.609375 56 
z
" id="DejaVuSans-6f"/>
      <path d="M 45.40625 27.984375 
Q 45.40625 37.75 41.375 43.109375 
Q 37.359375 48.484375 30.078125 48.484375 
Q 22.859375 48.484375 18.828125 43.109375 
Q 14.796875 37.75 14.796875 27.984375 
Q 14.796875 18.265625 18.828125 12.890625 
Q 22.859375 7.515625 30.078125 7.515625 
Q 37.359375 7.515625 41.375 12.890625 
Q 45.40625 18.265625 45.40625 27.984375 
z
M 54.390625 6.78125 
Q 54.390625 -7.171875 48.1875 -13.984375 
Q 42 -20.796875 29.203125 -20.796875 
Q 24.46875 -20.796875 20.265625 -20.09375 
Q 16.0625 -19.390625 12.109375 -17.921875 
L 12.109375 -9.1875 
Q 16.0625 -11.328125 19.921875 -12.34375 
Q 23.78125 -13.375 27.78125 -13.375 
Q 36.625 -13.375 41.015625 -8.765625 
Q 45.40625 -4.15625 45.40625 5.171875 
L 45.40625 9.625 
Q 42.625 4.78125 38.28125 2.390625 
Q 33.9375 0 27.875 0 
Q 17.828125 0 11.671875 7.65625 
Q 5.515625 15.328125 5.515625 27.984375 
Q 5.515625 40.671875 11.671875 48.328125 
Q 17.828125 56 27.875 56 
Q 33.9375 56 38.28125 53.609375 
Q 42.625 51.21875 45.40625 46.390625 
L 45.40625 54.6875 
L 54.390625 54.6875 
z
" id="DejaVuSans-67"/>
      <path d="M 12.40625 8.296875 
L 28.515625 8.296875 
L 28.515625 63.921875 
L 10.984375 60.40625 
L 10.984375 69.390625 
L 28.421875 72.90625 
L 38.28125 72.90625 
L 38.28125 8.296875 
L 54.390625 8.296875 
L 54.390625 0 
L 12.40625 0 
z
" id="DejaVuSans-31"/>
      <path id="DejaVuSans-20"/>
      <path d="M 37.109375 75.984375 
L 37.109375 68.5 
L 28.515625 68.5 
Q 23.6875 68.5 21.796875 66.546875 
Q 19.921875 64.59375 19.921875 59.515625 
L 19.921875 54.6875 
L 34.71875 54.6875 
L 34.71875 47.703125 
L 19.921875 47.703125 
L 19.921875 0 
L 10.890625 0 
L 10.890625 47.703125 
L 2.296875 47.703125 
L 2.296875 54.6875 
L 10.890625 54.6875 
L 10.890625 58.5 
Q 10.890625 67.625 15.140625 71.796875 
Q 19.390625 75.984375 28.609375 75.984375 
z
" id="DejaVuSans-66"/>
      <path d="M 19.671875 64.796875 
L 19.671875 8.109375 
L 31.59375 8.109375 
Q 46.6875 8.109375 53.6875 14.9375 
Q 60.6875 21.78125 60.6875 36.53125 
Q 60.6875 51.171875 53.6875 57.984375 
Q 46.6875 64.796875 31.59375 64.796875 
z
M 9.8125 72.90625 
L 30.078125 72.90625 
Q 51.265625 72.90625 61.171875 64.09375 
Q 71.09375 55.28125 71.09375 36.53125 
Q 71.09375 17.671875 61.125 8.828125 
Q 51.171875 0 30.078125 0 
L 9.8125 0 
z
" id="DejaVuSans-44"/>
     </defs>
     <g transform="translate(172.910063 336.833125)scale(0.2 -0.2)">
      <use xlink:href="#DejaVuSans-6c"/>
      <use x="27.783203" xlink:href="#DejaVuSans-6f"/>
      <use x="88.964844" xlink:href="#DejaVuSans-67"/>
      <use x="152.441406" xlink:href="#DejaVuSans-31"/>
      <use x="216.064453" xlink:href="#DejaVuSans-30"/>
      <use x="279.6875" xlink:href="#DejaVuSans-20"/>
      <use x="311.474609" xlink:href="#DejaVuSans-6f"/>
      <use x="372.65625" xlink:href="#DejaVuSans-66"/>
      <use x="407.861328" xlink:href="#DejaVuSans-20"/>
      <use x="439.648438" xlink:href="#DejaVuSans-44"/>
      <use x="516.650391" xlink:href="#DejaVuSans-66"/>
     </g>
    </g>
   </g>
   <g id="matplotlib.axis_2">
    <g id="ytick_1">
     <g id="line2d_11">
      <path clip-path="url(#p6f20561ecb)" d="M 5.52 291.28 
L 450.672 291.28 
" style="fill:none;stroke:#b0b0b0;stroke-linecap:square;stroke-width:0.8;"/>
     </g>
     <g id="line2d_12">
      <defs>
       <path d="M 0 0 
L -3.5 0 
" id="m1b4e4e722d" style="stroke:#000000;stroke-width:0.8;"/>
      </defs>
      <g>
       <use style="stroke:#000000;stroke-width:0.8;" x="5.52" xlink:href="#m1b4e4e722d" y="291.28"/>
      </g>
     </g>
    </g>
    <g id="ytick_2">
     <g id="line2d_13">
      <path clip-path="url(#p6f20561ecb)" d="M 5.52 234.693861 
L 450.672 234.693861 
" style="fill:none;stroke:#b0b0b0;stroke-linecap:square;stroke-width:0.8;"/>
     </g>
     <g id="line2d_14">
      <g>
       <use style="stroke:#000000;stroke-width:0.8;" x="5.52" xlink:href="#m1b4e4e722d" y="234.693861"/>
      </g>
     </g>
    </g>
    <g id="ytick_3">
     <g id="line2d_15">
      <path clip-path="url(#p6f20561ecb)" d="M 5.52 178.107723 
L 450.672 178.107723 
" style="fill:none;stroke:#b0b0b0;stroke-linecap:square;stroke-width:0.8;"/>
     </g>
     <g id="line2d_16">
      <g>
       <use style="stroke:#000000;stroke-width:0.8;" x="5.52" xlink:href="#m1b4e4e722d" y="178.107723"/>
      </g>
     </g>
    </g>
    <g id="ytick_4">
     <g id="line2d_17">
      <path clip-path="url(#p6f20561ecb)" d="M 5.52 121.521584 
L 450.672 121.521584 
" style="fill:none;stroke:#b0b0b0;stroke-linecap:square;stroke-width:0.8;"/>
     </g>
     <g id="line2d_18">
      <g>
       <use style="stroke:#000000;stroke-width:0.8;" x="5.52" xlink:href="#m1b4e4e722d" y="121.521584"/>
      </g>
     </g>
    </g>
    <g id="ytick_5">
     <g id="line2d_19">
      <path clip-path="url(#p6f20561ecb)" d="M 5.52 64.935446 
L 450.672 64.935446 
" style="fill:none;stroke:#b0b0b0;stroke-linecap:square;stroke-width:0.8;"/>
     </g>
     <g id="line2d_20">
      <g>
       <use style="stroke:#000000;stroke-width:0.8;" x="5.52" xlink:href="#m1b4e4e722d" y="64.935446"/>
      </g>
     </g>
    </g>
    <g id="ytick_6">
     <g id="line2d_21">
      <path clip-path="url(#p6f20561ecb)" d="M 5.52 8.349307 
L 450.672 8.349307 
" style="fill:none;stroke:#b0b0b0;stroke-linecap:square;stroke-width:0.8;"/>
     </g>
     <g id="line2d_22">
      <g>
       <use style="stroke:#000000;stroke-width:0.8;" x="5.52" xlink:href="#m1b4e4e722d" y="8.349307"/>
      </g>
     </g>
    </g>
   </g>
   <g id="line2d_23">
    <path clip-path="url(#p6f20561ecb)" d="M 5.410562 291.28 
L 5.410562 286.564488 
L 5.410562 286.564488 
L 5.410562 281.848977 
L 5.410562 281.848977 
L 5.410562 277.133465 
L 5.410562 277.133465 
L 5.410562 272.417954 
L 5.410562 272.417954 
L 5.410562 267.702442 
L 5.410562 267.702442 
L 5.410562 262.986931 
L 5.410562 262.986931 
L 5.410562 258.271419 
L 5.410562 258.271419 
L 5.410562 253.555908 
L 5.410562 253.555908 
L 5.410562 248.840396 
L 5.410562 248.840396 
L 5.410562 244.124884 
L 5.410562 244.124884 
L 5.410562 239.409373 
L 5.410562 239.409373 
L 5.410562 234.693861 
L 5.410562 234.693861 
L 5.410562 229.97835 
L 5.410562 229.97835 
L 5.410562 225.262838 
L 5.410562 225.262838 
L 5.410562 220.547327 
L 5.410562 220.547327 
L 5.410562 215.831815 
L 5.410562 215.831815 
L 5.410562 211.116304 
L 18.035162 211.116304 
L 18.035162 206.400792 
L 18.971048 206.400792 
L 18.971048 201.685281 
L 19.393124 201.685281 
L 19.393124 196.969769 
L 19.403337 196.969769 
L 19.403337 192.254257 
L 19.76867 192.254257 
L 19.76867 187.538746 
L 19.805341 187.538746 
L 19.805341 182.823234 
L 19.80816 182.823234 
L 19.80816 178.107723 
L 19.906241 178.107723 
L 19.906241 173.392211 
L 20.086124 173.392211 
L 20.086124 168.6767 
L 20.219745 168.6767 
L 20.219745 163.961188 
L 20.229142 163.961188 
L 20.229142 159.245677 
L 20.47367 159.245677 
L 20.47367 154.530165 
L 20.57053 154.530165 
L 20.57053 149.814653 
L 20.6107 149.814653 
L 20.6107 145.099142 
L 20.628314 145.099142 
L 20.628314 140.38363 
L 20.646704 140.38363 
L 20.646704 135.668119 
L 21.145693 135.668119 
L 21.145693 130.952607 
L 21.193652 130.952607 
L 21.193652 126.237096 
L 21.472283 126.237096 
L 21.472283 121.521584 
L 21.477414 121.521584 
L 21.477414 116.806073 
L 21.571625 116.806073 
L 21.571625 112.090561 
L 21.692985 112.090561 
L 21.692985 107.37505 
L 21.721772 107.37505 
L 21.721772 102.659538 
L 21.907483 102.659538 
L 21.907483 97.944026 
L 22.057084 97.944026 
L 22.057084 93.228515 
L 22.095755 93.228515 
L 22.095755 88.513003 
L 22.207748 88.513003 
L 22.207748 83.797492 
L 22.333867 83.797492 
L 22.333867 79.08198 
L 22.44118 79.08198 
L 22.44118 74.366469 
L 23.614639 74.366469 
L 23.614639 69.650957 
L 153.455939 69.650957 
L 153.455939 64.935446 
L 176.993361 64.935446 
L 176.993361 60.219934 
L 179.263638 60.219934 
L 179.263638 55.504422 
L 183.875177 55.504422 
L 183.875177 50.788911 
L 184.396219 50.788911 
L 184.396219 46.073399 
L 189.390153 46.073399 
L 189.390153 41.357888 
L 191.446968 41.357888 
L 191.446968 36.642376 
L 192.27287 36.642376 
L 192.27287 31.926865 
L 192.735275 31.926865 
L 192.735275 27.211353 
L 194.84827 27.211353 
L 194.84827 22.495842 
L 196.691799 22.495842 
L 196.691799 17.78033 
L 197.36568 17.78033 
L 197.36568 13.064818 
L 204.547262 13.064818 
L 204.547262 8.349307 
L 204.547262 8.349307 
L 204.547262 8.349307 
L 450.672 8.349307 
" style="fill:none;stroke:#ff0000;stroke-linecap:square;stroke-width:3;"/>
   </g>
   <g id="line2d_24">
    <path clip-path="url(#p6f20561ecb)" d="M 237.672957 291.28 
L 237.672957 286.564488 
L 245.059384 286.564488 
L 245.059384 281.848977 
L 249.127671 281.848977 
L 249.127671 277.133465 
L 251.979859 277.133465 
L 251.979859 272.417954 
L 254.183388 272.417954 
L 254.183388 267.702442 
L 255.409372 267.702442 
L 255.409372 262.986931 
L 255.970287 262.986931 
L 255.970287 258.271419 
L 258.669622 258.271419 
L 258.669622 253.555908 
L 261.326218 253.555908 
L 261.326218 248.840396 
L 262.080304 248.840396 
L 262.080304 244.124884 
L 263.108113 244.124884 
L 263.108113 239.409373 
L 263.226943 239.409373 
L 263.226943 234.693861 
L 263.6576 234.693861 
L 263.6576 229.97835 
L 263.666945 229.97835 
L 263.666945 225.262838 
L 264.771194 225.262838 
L 264.771194 220.547327 
L 267.230319 220.547327 
L 267.230319 215.831815 
L 268.788556 215.831815 
L 268.788556 211.116304 
L 268.878057 211.116304 
L 268.878057 206.400792 
L 270.149362 206.400792 
L 270.149362 201.685281 
L 270.421683 201.685281 
L 270.421683 196.969769 
L 271.106521 196.969769 
L 271.106521 192.254257 
L 274.908214 192.254257 
L 274.908214 187.538746 
L 275.047528 187.538746 
L 275.047528 182.823234 
L 275.579169 182.823234 
L 275.579169 178.107723 
L 275.951911 178.107723 
L 275.951911 173.392211 
L 277.673065 173.392211 
L 277.673065 168.6767 
L 278.371063 168.6767 
L 278.371063 163.961188 
L 278.619517 163.961188 
L 278.619517 159.245677 
L 278.874231 159.245677 
L 278.874231 154.530165 
L 282.942594 154.530165 
L 282.942594 149.814653 
L 283.377582 149.814653 
L 283.377582 145.099142 
L 289.71493 145.099142 
L 289.71493 140.38363 
L 292.366268 140.38363 
L 292.366268 135.668119 
L 292.700588 135.668119 
L 292.700588 130.952607 
L 296.91739 130.952607 
L 296.91739 126.237096 
L 298.438085 126.237096 
L 298.438085 121.521584 
L 303.248616 121.521584 
L 303.248616 116.806073 
L 304.670139 116.806073 
L 304.670139 112.090561 
L 304.701081 112.090561 
L 304.701081 107.37505 
L 306.512737 107.37505 
L 306.512737 102.659538 
L 307.346614 102.659538 
L 307.346614 97.944026 
L 309.258955 97.944026 
L 309.258955 93.228515 
L 311.794294 93.228515 
L 311.794294 88.513003 
L 315.305062 88.513003 
L 315.305062 83.797492 
L 316.042334 83.797492 
L 316.042334 79.08198 
L 317.198803 79.08198 
L 317.198803 74.366469 
L 326.402059 74.366469 
L 326.402059 69.650957 
L 328.78618 69.650957 
L 328.78618 64.935446 
L 329.401141 64.935446 
L 329.401141 60.219934 
L 329.472311 60.219934 
L 329.472311 55.504422 
L 329.847717 55.504422 
L 329.847717 50.788911 
L 334.431963 50.788911 
L 334.431963 46.073399 
L 336.442993 46.073399 
L 336.442993 41.357888 
L 337.112 41.357888 
L 337.112 36.642376 
L 337.593911 36.642376 
L 337.593911 31.926865 
L 338.00665 31.926865 
L 338.00665 27.211353 
L 341.490959 27.211353 
L 341.490959 22.495842 
L 347.324747 22.495842 
L 347.324747 17.78033 
L 347.986765 17.78033 
L 347.986765 13.064818 
L 353.880189 13.064818 
L 353.880189 8.349307 
L 353.880189 8.349307 
L 353.880189 8.349307 
L 450.672 8.349307 
" style="fill:none;stroke:#00bfbf;stroke-linecap:square;stroke-width:1.5;"/>
   </g>
   <g id="line2d_25">
    <path clip-path="url(#p6f20561ecb)" d="M 231.85601 291.28 
L 231.85601 286.564488 
L 236.990109 286.564488 
L 236.990109 281.848977 
L 245.059384 281.848977 
L 245.059384 277.133465 
L 247.604121 277.133465 
L 247.604121 272.417954 
L 249.127671 272.417954 
L 249.127671 267.702442 
L 252.691661 267.702442 
L 252.691661 262.986931 
L 253.168559 262.986931 
L 253.168559 258.271419 
L 254.183388 258.271419 
L 254.183388 253.555908 
L 254.412914 253.555908 
L 254.412914 248.840396 
L 255.16131 248.840396 
L 255.16131 244.124884 
L 255.970287 244.124884 
L 255.970287 239.409373 
L 256.590666 239.409373 
L 256.590666 234.693861 
L 257.57373 234.693861 
L 257.57373 229.97835 
L 259.668155 229.97835 
L 259.668155 225.262838 
L 259.701865 225.262838 
L 259.701865 220.547327 
L 262.080304 220.547327 
L 262.080304 215.831815 
L 263.108113 215.831815 
L 263.108113 211.116304 
L 263.666945 211.116304 
L 263.666945 206.400792 
L 264.230631 206.400792 
L 264.230631 201.685281 
L 264.480609 201.685281 
L 264.480609 196.969769 
L 264.771194 196.969769 
L 264.771194 192.254257 
L 264.887345 192.254257 
L 264.887345 187.538746 
L 267.115064 187.538746 
L 267.115064 182.823234 
L 270.24832 182.823234 
L 270.24832 178.107723 
L 270.712087 178.107723 
L 270.712087 173.392211 
L 272.692978 173.392211 
L 272.692978 168.6767 
L 274.254792 168.6767 
L 274.254792 163.961188 
L 274.313803 163.961188 
L 274.313803 159.245677 
L 274.908214 159.245677 
L 274.908214 154.530165 
L 275.579169 154.530165 
L 275.579169 149.814653 
L 277.454213 149.814653 
L 277.454213 145.099142 
L 279.366728 145.099142 
L 279.366728 140.38363 
L 282.942594 140.38363 
L 282.942594 135.668119 
L 283.135504 135.668119 
L 283.135504 130.952607 
L 285.56614 130.952607 
L 285.56614 126.237096 
L 289.807343 126.237096 
L 289.807343 121.521584 
L 291.307825 121.521584 
L 291.307825 116.806073 
L 295.911334 116.806073 
L 295.911334 112.090561 
L 296.337918 112.090561 
L 296.337918 107.37505 
L 296.91739 107.37505 
L 296.91739 102.659538 
L 298.438085 102.659538 
L 298.438085 97.944026 
L 300.874639 97.944026 
L 300.874639 93.228515 
L 301.426114 93.228515 
L 301.426114 88.513003 
L 302.823501 88.513003 
L 302.823501 83.797492 
L 303.248616 83.797492 
L 303.248616 79.08198 
L 307.346614 79.08198 
L 307.346614 74.366469 
L 313.691038 74.366469 
L 313.691038 69.650957 
L 316.21243 69.650957 
L 316.21243 64.935446 
L 316.402124 64.935446 
L 316.402124 60.219934 
L 322.244388 60.219934 
L 322.244388 55.504422 
L 328.78618 55.504422 
L 328.78618 50.788911 
L 329.633819 50.788911 
L 329.633819 46.073399 
L 329.847717 46.073399 
L 329.847717 41.357888 
L 335.370834 41.357888 
L 335.370834 36.642376 
L 335.747278 36.642376 
L 335.747278 31.926865 
L 337.593911 31.926865 
L 337.593911 27.211353 
L 341.490959 27.211353 
L 341.490959 22.495842 
L 345.185801 22.495842 
L 345.185801 17.78033 
L 345.452785 17.78033 
L 345.452785 13.064818 
L 353.857403 13.064818 
L 353.857403 8.349307 
L 353.857403 8.349307 
L 353.857403 8.349307 
L 450.672 8.349307 
" style="fill:none;stroke:#bf00bf;stroke-linecap:square;stroke-width:1.5;"/>
   </g>
   <g id="line2d_26">
    <path clip-path="url(#p6f20561ecb)" d="M 231.85601 291.28 
L 231.85601 286.564488 
L 234.362008 286.564488 
L 234.362008 281.848977 
L 235.396266 281.848977 
L 235.396266 277.133465 
L 243.482579 277.133465 
L 243.482579 272.417954 
L 247.604121 272.417954 
L 247.604121 267.702442 
L 249.127671 267.702442 
L 249.127671 262.986931 
L 250.701053 262.986931 
L 250.701053 258.271419 
L 252.033351 258.271419 
L 252.033351 253.555908 
L 252.608577 253.555908 
L 252.608577 248.840396 
L 252.691661 248.840396 
L 252.691661 244.124884 
L 254.066844 244.124884 
L 254.066844 239.409373 
L 254.183388 239.409373 
L 254.183388 234.693861 
L 254.412914 234.693861 
L 254.412914 229.97835 
L 255.16131 229.97835 
L 255.16131 225.262838 
L 255.440846 225.262838 
L 255.440846 220.547327 
L 255.970287 220.547327 
L 255.970287 215.831815 
L 256.590666 215.831815 
L 256.590666 211.116304 
L 257.57373 211.116304 
L 257.57373 206.400792 
L 258.438333 206.400792 
L 258.438333 201.685281 
L 258.460663 201.685281 
L 258.460663 196.969769 
L 259.668155 196.969769 
L 259.668155 192.254257 
L 259.701865 192.254257 
L 259.701865 187.538746 
L 260.526155 187.538746 
L 260.526155 182.823234 
L 260.741324 182.823234 
L 260.741324 178.107723 
L 261.426031 178.107723 
L 261.426031 173.392211 
L 261.836782 173.392211 
L 261.836782 168.6767 
L 264.480609 168.6767 
L 264.480609 163.961188 
L 265.225579 163.961188 
L 265.225579 159.245677 
L 265.573981 159.245677 
L 265.573981 154.530165 
L 269.841447 154.530165 
L 269.841447 149.814653 
L 271.885173 149.814653 
L 271.885173 145.099142 
L 272.692978 145.099142 
L 272.692978 140.38363 
L 274.908214 140.38363 
L 274.908214 135.668119 
L 277.454213 135.668119 
L 277.454213 130.952607 
L 282.942594 130.952607 
L 282.942594 126.237096 
L 283.380144 126.237096 
L 283.380144 121.521584 
L 283.581544 121.521584 
L 283.581544 116.806073 
L 285.500504 116.806073 
L 285.500504 112.090561 
L 287.472678 112.090561 
L 287.472678 107.37505 
L 289.807343 107.37505 
L 289.807343 102.659538 
L 295.162242 102.659538 
L 295.162242 97.944026 
L 296.804788 97.944026 
L 296.804788 93.228515 
L 296.91739 93.228515 
L 296.91739 88.513003 
L 300.874639 88.513003 
L 300.874639 83.797492 
L 301.426114 83.797492 
L 301.426114 79.08198 
L 303.248616 79.08198 
L 303.248616 74.366469 
L 306.250465 74.366469 
L 306.250465 69.650957 
L 307.346614 69.650957 
L 307.346614 64.935446 
L 310.20403 64.935446 
L 310.20403 60.219934 
L 316.21243 60.219934 
L 316.21243 55.504422 
L 316.402124 55.504422 
L 316.402124 50.788911 
L 324.986917 50.788911 
L 324.986917 46.073399 
L 326.795516 46.073399 
L 326.795516 41.357888 
L 329.18287 41.357888 
L 329.18287 36.642376 
L 329.633819 36.642376 
L 329.633819 31.926865 
L 337.428228 31.926865 
L 337.428228 27.211353 
L 341.490959 27.211353 
L 341.490959 22.495842 
L 342.871445 22.495842 
L 342.871445 17.78033 
L 345.452785 17.78033 
L 345.452785 13.064818 
L 350.031401 13.064818 
L 350.031401 8.349307 
L 350.031401 8.349307 
L 350.031401 8.349307 
L 450.672 8.349307 
" style="fill:none;stroke:#000000;stroke-linecap:square;stroke-width:1.5;"/>
   </g>
   <g id="line2d_27">
    <path clip-path="url(#p6f20561ecb)" d="M 227.210348 291.28 
L 227.210348 286.564488 
L 229.030034 286.564488 
L 229.030034 281.848977 
L 230.662509 281.848977 
L 230.662509 277.133465 
L 231.85601 277.133465 
L 231.85601 272.417954 
L 232.533245 272.417954 
L 232.533245 267.702442 
L 236.124445 267.702442 
L 236.124445 262.986931 
L 241.455108 262.986931 
L 241.455108 258.271419 
L 242.471872 258.271419 
L 242.471872 253.555908 
L 242.664503 253.555908 
L 242.664503 248.840396 
L 244.990162 248.840396 
L 244.990162 244.124884 
L 247.604121 244.124884 
L 247.604121 239.409373 
L 248.517357 239.409373 
L 248.517357 234.693861 
L 249.647892 234.693861 
L 249.647892 229.97835 
L 250.343459 229.97835 
L 250.343459 225.262838 
L 250.755679 225.262838 
L 250.755679 220.547327 
L 251.311671 220.547327 
L 251.311671 215.831815 
L 252.456514 215.831815 
L 252.456514 211.116304 
L 252.608577 211.116304 
L 252.608577 206.400792 
L 253.248101 206.400792 
L 253.248101 201.685281 
L 253.531897 201.685281 
L 253.531897 196.969769 
L 253.535312 196.969769 
L 253.535312 192.254257 
L 254.183388 192.254257 
L 254.183388 187.538746 
L 254.699492 187.538746 
L 254.699492 182.823234 
L 255.348336 182.823234 
L 255.348336 178.107723 
L 255.440846 178.107723 
L 255.440846 173.392211 
L 255.462514 173.392211 
L 255.462514 168.6767 
L 255.72245 168.6767 
L 255.72245 163.961188 
L 256.182252 163.961188 
L 256.182252 159.245677 
L 256.356205 159.245677 
L 256.356205 154.530165 
L 258.460663 154.530165 
L 258.460663 149.814653 
L 260.32527 149.814653 
L 260.32527 145.099142 
L 260.526155 145.099142 
L 260.526155 140.38363 
L 261.255673 140.38363 
L 261.255673 135.668119 
L 265.225579 135.668119 
L 265.225579 130.952607 
L 269.178682 130.952607 
L 269.178682 126.237096 
L 274.10996 126.237096 
L 274.10996 121.521584 
L 274.908214 121.521584 
L 274.908214 116.806073 
L 275.138788 116.806073 
L 275.138788 112.090561 
L 280.993423 112.090561 
L 280.993423 107.37505 
L 282.942594 107.37505 
L 282.942594 102.659538 
L 285.500504 102.659538 
L 285.500504 97.944026 
L 285.819094 97.944026 
L 285.819094 93.228515 
L 291.701685 93.228515 
L 291.701685 88.513003 
L 292.466166 88.513003 
L 292.466166 83.797492 
L 295.162242 83.797492 
L 295.162242 79.08198 
L 295.421762 79.08198 
L 295.421762 74.366469 
L 301.426114 74.366469 
L 301.426114 69.650957 
L 302.999719 69.650957 
L 302.999719 64.935446 
L 305.248382 64.935446 
L 305.248382 60.219934 
L 306.701307 60.219934 
L 306.701307 55.504422 
L 307.83134 55.504422 
L 307.83134 50.788911 
L 316.402124 50.788911 
L 316.402124 46.073399 
L 318.833789 46.073399 
L 318.833789 41.357888 
L 324.986917 41.357888 
L 324.986917 36.642376 
L 329.18287 36.642376 
L 329.18287 31.926865 
L 331.174513 31.926865 
L 331.174513 27.211353 
L 333.795919 27.211353 
L 333.795919 22.495842 
L 336.895929 22.495842 
L 336.895929 17.78033 
L 337.483721 17.78033 
L 337.483721 13.064818 
L 337.967541 13.064818 
L 337.967541 8.349307 
L 337.967541 8.349307 
L 337.967541 8.349307 
L 450.672 8.349307 
" style="fill:none;stroke:#00bfbf;stroke-linecap:square;stroke-width:1.5;"/>
   </g>
   <g id="line2d_28">
    <path clip-path="url(#p6f20561ecb)" d="M 217.01474 291.28 
L 217.01474 286.564488 
L 218.994412 286.564488 
L 218.994412 281.848977 
L 220.189448 281.848977 
L 220.189448 277.133465 
L 220.378326 277.133465 
L 220.378326 272.417954 
L 221.143547 272.417954 
L 221.143547 267.702442 
L 223.953542 267.702442 
L 223.953542 262.986931 
L 226.755669 262.986931 
L 226.755669 258.271419 
L 227.023969 258.271419 
L 227.023969 253.555908 
L 229.503407 253.555908 
L 229.503407 248.840396 
L 229.576092 248.840396 
L 229.576092 244.124884 
L 229.77247 244.124884 
L 229.77247 239.409373 
L 229.862934 239.409373 
L 229.862934 234.693861 
L 230.662509 234.693861 
L 230.662509 229.97835 
L 231.291397 229.97835 
L 231.291397 225.262838 
L 231.71956 225.262838 
L 231.71956 220.547327 
L 232.533245 220.547327 
L 232.533245 215.831815 
L 233.401755 215.831815 
L 233.401755 211.116304 
L 233.833463 211.116304 
L 233.833463 206.400792 
L 234.809076 206.400792 
L 234.809076 201.685281 
L 235.331754 201.685281 
L 235.331754 196.969769 
L 235.509457 196.969769 
L 235.509457 192.254257 
L 236.327829 192.254257 
L 236.327829 187.538746 
L 237.756533 187.538746 
L 237.756533 182.823234 
L 240.174266 182.823234 
L 240.174266 178.107723 
L 240.178244 178.107723 
L 240.178244 173.392211 
L 240.475711 173.392211 
L 240.475711 168.6767 
L 240.987373 168.6767 
L 240.987373 163.961188 
L 241.089268 163.961188 
L 241.089268 159.245677 
L 241.492605 159.245677 
L 241.492605 154.530165 
L 242.611759 154.530165 
L 242.611759 149.814653 
L 242.697265 149.814653 
L 242.697265 145.099142 
L 242.844652 145.099142 
L 242.844652 140.38363 
L 242.901383 140.38363 
L 242.901383 135.668119 
L 243.20146 135.668119 
L 243.20146 130.952607 
L 244.033647 130.952607 
L 244.033647 126.237096 
L 245.839689 126.237096 
L 245.839689 121.521584 
L 247.139596 121.521584 
L 247.139596 116.806073 
L 247.997067 116.806073 
L 247.997067 112.090561 
L 248.106589 112.090561 
L 248.106589 107.37505 
L 249.411991 107.37505 
L 249.411991 102.659538 
L 250.165887 102.659538 
L 250.165887 97.944026 
L 250.234796 97.944026 
L 250.234796 93.228515 
L 252.030097 93.228515 
L 252.030097 88.513003 
L 252.660588 88.513003 
L 252.660588 83.797492 
L 253.535312 83.797492 
L 253.535312 79.08198 
L 254.86483 79.08198 
L 254.86483 74.366469 
L 255.665911 74.366469 
L 255.665911 69.650957 
L 255.73534 69.650957 
L 255.73534 64.935446 
L 255.900222 64.935446 
L 255.900222 60.219934 
L 256.573703 60.219934 
L 256.573703 55.504422 
L 258.247486 55.504422 
L 258.247486 50.788911 
L 260.439899 50.788911 
L 260.439899 46.073399 
L 261.883612 46.073399 
L 261.883612 41.357888 
L 264.778092 41.357888 
L 264.778092 36.642376 
L 266.493258 36.642376 
L 266.493258 31.926865 
L 266.567629 31.926865 
L 266.567629 27.211353 
L 268.102857 27.211353 
L 268.102857 22.495842 
L 268.712001 22.495842 
L 268.712001 17.78033 
L 269.178682 17.78033 
L 269.178682 13.064818 
L 277.563761 13.064818 
L 277.563761 8.349307 
L 277.563761 8.349307 
L 277.563761 8.349307 
L 450.672 8.349307 
" style="fill:none;stroke:#bf00bf;stroke-linecap:square;stroke-width:1.5;"/>
   </g>
   <g id="line2d_29">
    <path clip-path="url(#p6f20561ecb)" d="M 47.543862 291.28 
L 47.543862 286.564488 
L 171.994771 286.564488 
L 171.994771 281.848977 
L 176.993361 281.848977 
L 176.993361 277.133465 
L 183.875177 277.133465 
L 183.875177 272.417954 
L 184.437788 272.417954 
L 184.437788 267.702442 
L 186.994843 267.702442 
L 186.994843 262.986931 
L 187.059397 262.986931 
L 187.059397 258.271419 
L 189.390153 258.271419 
L 189.390153 253.555908 
L 191.446968 253.555908 
L 191.446968 248.840396 
L 192.735275 248.840396 
L 192.735275 244.124884 
L 196.389021 244.124884 
L 196.389021 239.409373 
L 196.691799 239.409373 
L 196.691799 234.693861 
L 197.36568 234.693861 
L 197.36568 229.97835 
L 200.068604 229.97835 
L 200.068604 225.262838 
L 204.113054 225.262838 
L 204.113054 220.547327 
L 204.547262 220.547327 
L 204.547262 215.831815 
L 216.815384 215.831815 
L 216.815384 211.116304 
L 217.385683 211.116304 
L 217.385683 206.400792 
L 217.428299 206.400792 
L 217.428299 201.685281 
L 218.060644 201.685281 
L 218.060644 196.969769 
L 218.37894 196.969769 
L 218.37894 192.254257 
L 218.399764 192.254257 
L 218.399764 187.538746 
L 218.951314 187.538746 
L 218.951314 182.823234 
L 219.360519 182.823234 
L 219.360519 178.107723 
L 219.483956 178.107723 
L 219.483956 173.392211 
L 219.861114 173.392211 
L 219.861114 168.6767 
L 220.001953 168.6767 
L 220.001953 163.961188 
L 220.156932 163.961188 
L 220.156932 159.245677 
L 220.324583 159.245677 
L 220.324583 154.530165 
L 220.344299 154.530165 
L 220.344299 149.814653 
L 220.47904 149.814653 
L 220.47904 145.099142 
L 220.521386 145.099142 
L 220.521386 140.38363 
L 220.551221 140.38363 
L 220.551221 135.668119 
L 220.927225 135.668119 
L 220.927225 130.952607 
L 220.931124 130.952607 
L 220.931124 126.237096 
L 220.975619 126.237096 
L 220.975619 121.521584 
L 221.084091 121.521584 
L 221.084091 116.806073 
L 221.358643 116.806073 
L 221.358643 112.090561 
L 221.406836 112.090561 
L 221.406836 107.37505 
L 221.464746 107.37505 
L 221.464746 102.659538 
L 221.492439 102.659538 
L 221.492439 97.944026 
L 221.563135 97.944026 
L 221.563135 93.228515 
L 221.616073 93.228515 
L 221.616073 88.513003 
L 221.807596 88.513003 
L 221.807596 83.797492 
L 221.991303 83.797492 
L 221.991303 79.08198 
L 222.681514 79.08198 
L 222.681514 74.366469 
L 222.723898 74.366469 
L 222.723898 69.650957 
L 223.344353 69.650957 
L 223.344353 64.935446 
L 225.903327 64.935446 
L 225.903327 60.219934 
L 228.358748 60.219934 
L 228.358748 55.504422 
L 235.161401 55.504422 
L 235.161401 50.788911 
L 235.880824 50.788911 
L 235.880824 46.073399 
L 242.901383 46.073399 
L 242.901383 41.357888 
L 244.033647 41.357888 
L 244.033647 36.642376 
L 244.064078 36.642376 
L 244.064078 31.926865 
L 245.839689 31.926865 
L 245.839689 27.211353 
L 248.106589 27.211353 
L 248.106589 22.495842 
L 249.411991 22.495842 
L 249.411991 17.78033 
L 250.165887 17.78033 
L 250.165887 13.064818 
L 257.968249 13.064818 
L 257.968249 8.349307 
L 257.968249 8.349307 
L 257.968249 8.349307 
L 450.672 8.349307 
" style="fill:none;stroke:#000000;stroke-linecap:square;stroke-width:1.5;"/>
   </g>
   <g id="line2d_30">
    <path clip-path="url(#p6f20561ecb)" d="M -1 229.97835 
L 5.410562 229.97835 
L 5.410562 225.262838 
L 5.410562 225.262838 
L 5.410562 220.547327 
L 6.457232 220.547327 
L 6.457232 215.831815 
L 24.056958 215.831815 
L 24.056958 211.116304 
L 153.455939 211.116304 
L 153.455939 206.400792 
L 176.993361 206.400792 
L 176.993361 201.685281 
L 179.263638 201.685281 
L 179.263638 196.969769 
L 183.875177 196.969769 
L 183.875177 192.254257 
L 184.396219 192.254257 
L 184.396219 187.538746 
L 185.991003 187.538746 
L 185.991003 182.823234 
L 186.350013 182.823234 
L 186.350013 178.107723 
L 186.573747 178.107723 
L 186.573747 173.392211 
L 186.618937 173.392211 
L 186.618937 168.6767 
L 186.639722 168.6767 
L 186.639722 163.961188 
L 186.798928 163.961188 
L 186.798928 159.245677 
L 186.815317 159.245677 
L 186.815317 154.530165 
L 186.96568 154.530165 
L 186.96568 149.814653 
L 187.001312 149.814653 
L 187.001312 145.099142 
L 187.005052 145.099142 
L 187.005052 140.38363 
L 187.048919 140.38363 
L 187.048919 135.668119 
L 187.157119 135.668119 
L 187.157119 130.952607 
L 187.179877 130.952607 
L 187.179877 126.237096 
L 187.400673 126.237096 
L 187.400673 121.521584 
L 187.429969 121.521584 
L 187.429969 116.806073 
L 187.646281 116.806073 
L 187.646281 112.090561 
L 187.667721 112.090561 
L 187.667721 107.37505 
L 187.701957 107.37505 
L 187.701957 102.659538 
L 187.703946 102.659538 
L 187.703946 97.944026 
L 187.814357 97.944026 
L 187.814357 93.228515 
L 187.93791 93.228515 
L 187.93791 88.513003 
L 188.083006 88.513003 
L 188.083006 83.797492 
L 188.114237 83.797492 
L 188.114237 79.08198 
L 188.137314 79.08198 
L 188.137314 74.366469 
L 188.143528 74.366469 
L 188.143528 69.650957 
L 188.15363 69.650957 
L 188.15363 64.935446 
L 188.476544 64.935446 
L 188.476544 60.219934 
L 188.478237 60.219934 
L 188.478237 55.504422 
L 188.687345 55.504422 
L 188.687345 50.788911 
L 188.777513 50.788911 
L 188.777513 46.073399 
L 189.390153 46.073399 
L 189.390153 41.357888 
L 191.446968 41.357888 
L 191.446968 36.642376 
L 192.27287 36.642376 
L 192.27287 31.926865 
L 192.735275 31.926865 
L 192.735275 27.211353 
L 194.84827 27.211353 
L 194.84827 22.495842 
L 196.691799 22.495842 
L 196.691799 17.78033 
L 197.36568 17.78033 
L 197.36568 13.064818 
L 204.547262 13.064818 
L 204.547262 8.349307 
L 204.547262 8.349307 
L 204.547262 8.349307 
L 450.672 8.349307 
" style="fill:none;stroke:#00bfbf;stroke-linecap:square;stroke-width:1.5;"/>
   </g>
   <g id="line2d_31">
    <path clip-path="url(#p6f20561ecb)" d="M 5.410562 291.28 
L 5.410562 286.564488 
L 5.410562 286.564488 
L 5.410562 281.848977 
L 5.410562 281.848977 
L 5.410562 277.133465 
L 5.410562 277.133465 
L 5.410562 272.417954 
L 5.410562 272.417954 
L 5.410562 267.702442 
L 5.410562 267.702442 
L 5.410562 262.986931 
L 5.410562 262.986931 
L 5.410562 258.271419 
L 5.410562 258.271419 
L 5.410562 253.555908 
L 5.410562 253.555908 
L 5.410562 248.840396 
L 5.410562 248.840396 
L 5.410562 244.124884 
L 5.410562 244.124884 
L 5.410562 239.409373 
L 5.410562 239.409373 
L 5.410562 234.693861 
L 5.410562 234.693861 
L 5.410562 229.97835 
L 5.410562 229.97835 
L 5.410562 225.262838 
L 5.410562 225.262838 
L 5.410562 220.547327 
L 5.410562 220.547327 
L 5.410562 215.831815 
L 5.410562 215.831815 
L 5.410562 211.116304 
L 99.124291 211.116304 
L 99.124291 206.400792 
L 99.543414 206.400792 
L 99.543414 201.685281 
L 99.5639 201.685281 
L 99.5639 196.969769 
L 99.738747 196.969769 
L 99.738747 192.254257 
L 99.839717 192.254257 
L 99.839717 187.538746 
L 99.857675 187.538746 
L 99.857675 182.823234 
L 99.932103 182.823234 
L 99.932103 178.107723 
L 99.942344 178.107723 
L 99.942344 173.392211 
L 100.096557 173.392211 
L 100.096557 168.6767 
L 100.262817 168.6767 
L 100.262817 163.961188 
L 100.293748 163.961188 
L 100.293748 159.245677 
L 100.40101 159.245677 
L 100.40101 154.530165 
L 100.439024 154.530165 
L 100.439024 149.814653 
L 100.586802 149.814653 
L 100.586802 145.099142 
L 100.760542 145.099142 
L 100.760542 140.38363 
L 100.798263 140.38363 
L 100.798263 135.668119 
L 100.958661 135.668119 
L 100.958661 130.952607 
L 101.016578 130.952607 
L 101.016578 126.237096 
L 101.024844 126.237096 
L 101.024844 121.521584 
L 101.025059 121.521584 
L 101.025059 116.806073 
L 101.025486 116.806073 
L 101.025486 112.090561 
L 101.117564 112.090561 
L 101.117564 107.37505 
L 101.188779 107.37505 
L 101.188779 102.659538 
L 101.279332 102.659538 
L 101.279332 97.944026 
L 101.451217 97.944026 
L 101.451217 93.228515 
L 101.892998 93.228515 
L 101.892998 88.513003 
L 101.916462 88.513003 
L 101.916462 83.797492 
L 102.055327 83.797492 
L 102.055327 79.08198 
L 102.142117 79.08198 
L 102.142117 74.366469 
L 102.494305 74.366469 
L 102.494305 69.650957 
L 153.455939 69.650957 
L 153.455939 64.935446 
L 176.993361 64.935446 
L 176.993361 60.219934 
L 179.263638 60.219934 
L 179.263638 55.504422 
L 183.875177 55.504422 
L 183.875177 50.788911 
L 184.396219 50.788911 
L 184.396219 46.073399 
L 189.390153 46.073399 
L 189.390153 41.357888 
L 191.446968 41.357888 
L 191.446968 36.642376 
L 192.27287 36.642376 
L 192.27287 31.926865 
L 192.735275 31.926865 
L 192.735275 27.211353 
L 194.84827 27.211353 
L 194.84827 22.495842 
L 196.691799 22.495842 
L 196.691799 17.78033 
L 197.36568 17.78033 
L 197.36568 13.064818 
L 204.547262 13.064818 
L 204.547262 8.349307 
L 204.547262 8.349307 
L 204.547262 8.349307 
L 450.672 8.349307 
" style="fill:none;stroke:#bf00bf;stroke-linecap:square;stroke-width:1.5;"/>
   </g>
   <g id="patch_3">
    <path d="M 5.52 291.28 
L 5.52 5.52 
" style="fill:none;stroke:#000000;stroke-linecap:square;stroke-linejoin:miter;stroke-width:0.8;"/>
   </g>
   <g id="patch_4">
    <path d="M 450.672 291.28 
L 450.672 5.52 
" style="fill:none;stroke:#000000;stroke-linecap:square;stroke-linejoin:miter;stroke-width:0.8;"/>
   </g>
   <g id="patch_5">
    <path d="M 5.52 291.28 
L 450.672 291.28 
" style="fill:none;stroke:#000000;stroke-linecap:square;stroke-linejoin:miter;stroke-width:0.8;"/>
   </g>
   <g id="patch_6">
    <path d="M 5.52 5.52 
L 450.672 5.52 
" style="fill:none;stroke:#000000;stroke-linecap:square;stroke-linejoin:miter;stroke-width:0.8;"/>
   </g>
   <g id="text_6">
    <!-- {f6-f9}, 5-D -->
    <defs>
     <path d="M 51.125 -9.28125 
L 51.125 -16.3125 
L 48.09375 -16.3125 
Q 35.9375 -16.3125 31.8125 -12.6875 
Q 27.6875 -9.078125 27.6875 1.703125 
L 27.6875 13.375 
Q 27.6875 20.75 25.046875 23.578125 
Q 22.40625 26.421875 15.484375 26.421875 
L 12.5 26.421875 
L 12.5 33.40625 
L 15.484375 33.40625 
Q 22.46875 33.40625 25.078125 36.203125 
Q 27.6875 39.015625 27.6875 46.296875 
L 27.6875 58.015625 
Q 27.6875 68.796875 31.8125 72.390625 
Q 35.9375 75.984375 48.09375 75.984375 
L 51.125 75.984375 
L 51.125 69 
L 47.796875 69 
Q 40.921875 69 38.8125 66.84375 
Q 36.71875 64.703125 36.71875 57.8125 
L 36.71875 45.703125 
Q 36.71875 38.03125 34.5 34.5625 
Q 32.28125 31.109375 26.90625 29.890625 
Q 32.328125 28.5625 34.515625 25.09375 
Q 36.71875 21.625 36.71875 14.015625 
L 36.71875 1.90625 
Q 36.71875 -4.984375 38.8125 -7.125 
Q 40.921875 -9.28125 47.796875 -9.28125 
z
" id="DejaVuSans-7b"/>
     <path d="M 33.015625 40.375 
Q 26.375 40.375 22.484375 35.828125 
Q 18.609375 31.296875 18.609375 23.390625 
Q 18.609375 15.53125 22.484375 10.953125 
Q 26.375 6.390625 33.015625 6.390625 
Q 39.65625 6.390625 43.53125 10.953125 
Q 47.40625 15.53125 47.40625 23.390625 
Q 47.40625 31.296875 43.53125 35.828125 
Q 39.65625 40.375 33.015625 40.375 
z
M 52.59375 71.296875 
L 52.59375 62.3125 
Q 48.875 64.0625 45.09375 64.984375 
Q 41.3125 65.921875 37.59375 65.921875 
Q 27.828125 65.921875 22.671875 59.328125 
Q 17.53125 52.734375 16.796875 39.40625 
Q 19.671875 43.65625 24.015625 45.921875 
Q 28.375 48.1875 33.59375 48.1875 
Q 44.578125 48.1875 50.953125 41.515625 
Q 57.328125 34.859375 57.328125 23.390625 
Q 57.328125 12.15625 50.6875 5.359375 
Q 44.046875 -1.421875 33.015625 -1.421875 
Q 20.359375 -1.421875 13.671875 8.265625 
Q 6.984375 17.96875 6.984375 36.375 
Q 6.984375 53.65625 15.1875 63.9375 
Q 23.390625 74.21875 37.203125 74.21875 
Q 40.921875 74.21875 44.703125 73.484375 
Q 48.484375 72.75 52.59375 71.296875 
z
" id="DejaVuSans-36"/>
     <path d="M 10.984375 1.515625 
L 10.984375 10.5 
Q 14.703125 8.734375 18.5 7.8125 
Q 22.3125 6.890625 25.984375 6.890625 
Q 35.75 6.890625 40.890625 13.453125 
Q 46.046875 20.015625 46.78125 33.40625 
Q 43.953125 29.203125 39.59375 26.953125 
Q 35.25 24.703125 29.984375 24.703125 
Q 19.046875 24.703125 12.671875 31.3125 
Q 6.296875 37.9375 6.296875 49.421875 
Q 6.296875 60.640625 12.9375 67.421875 
Q 19.578125 74.21875 30.609375 74.21875 
Q 43.265625 74.21875 49.921875 64.515625 
Q 56.59375 54.828125 56.59375 36.375 
Q 56.59375 19.140625 48.40625 8.859375 
Q 40.234375 -1.421875 26.421875 -1.421875 
Q 22.703125 -1.421875 18.890625 -0.6875 
Q 15.09375 0.046875 10.984375 1.515625 
z
M 30.609375 32.421875 
Q 37.25 32.421875 41.125 36.953125 
Q 45.015625 41.5 45.015625 49.421875 
Q 45.015625 57.28125 41.125 61.84375 
Q 37.25 66.40625 30.609375 66.40625 
Q 23.96875 66.40625 20.09375 61.84375 
Q 16.21875 57.28125 16.21875 49.421875 
Q 16.21875 41.5 20.09375 36.953125 
Q 23.96875 32.421875 30.609375 32.421875 
z
" id="DejaVuSans-39"/>
     <path d="M 12.5 -9.28125 
L 15.921875 -9.28125 
Q 22.75 -9.28125 24.828125 -7.171875 
Q 26.90625 -5.078125 26.90625 1.90625 
L 26.90625 14.015625 
Q 26.90625 21.625 29.09375 25.09375 
Q 31.296875 28.5625 36.71875 29.890625 
Q 31.296875 31.109375 29.09375 34.5625 
Q 26.90625 38.03125 26.90625 45.703125 
L 26.90625 57.8125 
Q 26.90625 64.75 24.828125 66.875 
Q 22.75 69 15.921875 69 
L 12.5 69 
L 12.5 75.984375 
L 15.578125 75.984375 
Q 27.734375 75.984375 31.8125 72.390625 
Q 35.890625 68.796875 35.890625 58.015625 
L 35.890625 46.296875 
Q 35.890625 39.015625 38.515625 36.203125 
Q 41.15625 33.40625 48.09375 33.40625 
L 51.125 33.40625 
L 51.125 26.421875 
L 48.09375 26.421875 
Q 41.15625 26.421875 38.515625 23.578125 
Q 35.890625 20.75 35.890625 13.375 
L 35.890625 1.703125 
Q 35.890625 -9.078125 31.8125 -12.6875 
Q 27.734375 -16.3125 15.578125 -16.3125 
L 12.5 -16.3125 
z
" id="DejaVuSans-7d"/>
     <path d="M 11.71875 12.40625 
L 22.015625 12.40625 
L 22.015625 4 
L 14.015625 -11.625 
L 7.71875 -11.625 
L 11.71875 4 
z
" id="DejaVuSans-2c"/>
     <path d="M 10.796875 72.90625 
L 49.515625 72.90625 
L 49.515625 64.59375 
L 19.828125 64.59375 
L 19.828125 46.734375 
Q 21.96875 47.46875 24.109375 47.828125 
Q 26.265625 48.1875 28.421875 48.1875 
Q 40.625 48.1875 47.75 41.5 
Q 54.890625 34.8125 54.890625 23.390625 
Q 54.890625 11.625 47.5625 5.09375 
Q 40.234375 -1.421875 26.90625 -1.421875 
Q 22.3125 -1.421875 17.546875 -0.640625 
Q 12.796875 0.140625 7.71875 1.703125 
L 7.71875 11.625 
Q 12.109375 9.234375 16.796875 8.0625 
Q 21.484375 6.890625 26.703125 6.890625 
Q 35.15625 6.890625 40.078125 11.328125 
Q 45.015625 15.765625 45.015625 23.390625 
Q 45.015625 31 40.078125 35.4375 
Q 35.15625 39.890625 26.703125 39.890625 
Q 22.75 39.890625 18.8125 39.015625 
Q 14.890625 38.140625 10.796875 36.28125 
z
" id="DejaVuSans-35"/>
    </defs>
    <g transform="translate(321.51896 285.5648)scale(0.2 -0.2)">
     <use xlink:href="#DejaVuSans-7b"/>
     <use x="63.623047" xlink:href="#DejaVuSans-66"/>
     <use x="98.828125" xlink:href="#DejaVuSans-36"/>
     <use x="162.451172" xlink:href="#DejaVuSans-2d"/>
     <use x="198.535156" xlink:href="#DejaVuSans-66"/>
     <use x="233.740234" xlink:href="#DejaVuSans-39"/>
     <use x="297.363281" xlink:href="#DejaVuSans-7d"/>
     <use x="360.986328" xlink:href="#DejaVuSans-2c"/>
     <use x="392.773438" xlink:href="#DejaVuSans-20"/>
     <use x="424.560547" xlink:href="#DejaVuSans-35"/>
     <use x="488.183594" xlink:href="#DejaVuSans-2d"/>
     <use x="524.267578" xlink:href="#DejaVuSans-44"/>
    </g>
   </g>
   <g id="text_7">
    <!-- v0.0.0 -->
    <defs>
     <path d="M 2.984375 54.6875 
L 12.5 54.6875 
L 29.59375 8.796875 
L 46.6875 54.6875 
L 56.203125 54.6875 
L 35.6875 0 
L 23.484375 0 
z
" id="DejaVuSans-76"/>
     <path d="M 10.6875 12.40625 
L 21 12.40625 
L 21 0 
L 10.6875 0 
z
" id="DejaVuSans-2e"/>
    </defs>
    <g style="fill:#808080;" transform="translate(212.41475 286.342713)scale(0.1 -0.1)">
     <use xlink:href="#DejaVuSans-76"/>
     <use x="59.179688" xlink:href="#DejaVuSans-30"/>
     <use x="122.802734" xlink:href="#DejaVuSans-2e"/>
     <use x="154.589844" xlink:href="#DejaVuSans-30"/>
     <use x="218.212891" xlink:href="#DejaVuSans-2e"/>
     <use x="250" xlink:href="#DejaVuSans-30"/>
    </g>
   </g>
  </g>
 </g>
 <defs>
  <clipPath id="p6f20561ecb">
   <rect height="285.76" width="445.152" x="5.52" y="5.52"/>
  </clipPath>
 </defs>
</svg>
