<?xml version="1.0" encoding="utf-8" standalone="no"?>
<!DOCTYPE svg PUBLIC "-//W3C//DTD SVG 1.1//EN"
  "http://www.w3.org/Graphics/SVG/1.1/DTD/svg11.dtd">
<!-- Created with matplotlib (http://matplotlib.org/) -->
<svg height="345.6pt" version="1.1" viewBox="0 0 460.8 345.6" width="460.8pt" xmlns="http://www.w3.org/2000/svg" xmlns:xlink="http://www.w3.org/1999/xlink">
 <defs>
  <style type="text/css">
*{stroke-linecap:butt;stroke-linejoin:round;}
  </style>
 </defs>
 <g id="figure_1">
  <g id="patch_1">
   <path d="M 0 345.6 
L 460.8 345.6 
L 460.8 0 
L 0 0 
z
" style="fill:#ffffff;"/>
  </g>
  <g id="axes_1">
   <g id="patch_2">
    <path d="M 5.52 291.28 
L 450.672 291.28 
L 450.672 5.52 
L 5.52 5.52 
z
" style="fill:#ffffff;"/>
   </g>
   <g id="matplotlib.axis_1">
    <g id="xtick_1">
     <g id="line2d_1">
      <path clip-path="url(#pcebfdda649)" d="M 5.412019 291.28 
L 5.412019 5.52 
" style="fill:none;stroke:#b0b0b0;stroke-linecap:square;stroke-width:0.8;"/>
     </g>
     <g id="line2d_2">
      <defs>
       <path d="M 0 0 
L 0 3.5 
" id="mcc9b372956" style="stroke:#000000;stroke-width:0.8;"/>
      </defs>
      <g>
       <use style="stroke:#000000;stroke-width:0.8;" x="5.412019" xlink:href="#mcc9b372956" y="291.28"/>
      </g>
     </g>
    </g>
    <g id="xtick_2">
     <g id="line2d_3">
      <path clip-path="url(#pcebfdda649)" d="M 105.362426 291.28 
L 105.362426 5.52 
" style="fill:none;stroke:#b0b0b0;stroke-linecap:square;stroke-width:0.8;"/>
     </g>
     <g id="line2d_4">
      <g>
       <use style="stroke:#000000;stroke-width:0.8;" x="105.362426" xlink:href="#mcc9b372956" y="291.28"/>
      </g>
     </g>
     <g id="text_1">
      <!-- -4 -->
      <defs>
       <path d="M 4.890625 31.390625 
L 31.203125 31.390625 
L 31.203125 23.390625 
L 4.890625 23.390625 
z
" id="DejaVuSans-2d"/>
       <path d="M 37.796875 64.3125 
L 12.890625 25.390625 
L 37.796875 25.390625 
z
M 35.203125 72.90625 
L 47.609375 72.90625 
L 47.609375 25.390625 
L 58.015625 25.390625 
L 58.015625 17.1875 
L 47.609375 17.1875 
L 47.609375 0 
L 37.796875 0 
L 37.796875 17.1875 
L 4.890625 17.1875 
L 4.890625 26.703125 
z
" id="DejaVuSans-34"/>
      </defs>
      <g transform="translate(95.392113 313.476875)scale(0.2 -0.2)">
       <use xlink:href="#DejaVuSans-2d"/>
       <use x="36.083984" xlink:href="#DejaVuSans-34"/>
      </g>
     </g>
    </g>
    <g id="xtick_3">
     <g id="line2d_5">
      <path clip-path="url(#pcebfdda649)" d="M 205.312832 291.28 
L 205.312832 5.52 
" style="fill:none;stroke:#b0b0b0;stroke-linecap:square;stroke-width:0.8;"/>
     </g>
     <g id="line2d_6">
      <g>
       <use style="stroke:#000000;stroke-width:0.8;" x="205.312832" xlink:href="#mcc9b372956" y="291.28"/>
      </g>
     </g>
     <g id="text_2">
      <!-- 0 -->
      <defs>
       <path d="M 31.78125 66.40625 
Q 24.171875 66.40625 20.328125 58.90625 
Q 16.5 51.421875 16.5 36.375 
Q 16.5 21.390625 20.328125 13.890625 
Q 24.171875 6.390625 31.78125 6.390625 
Q 39.453125 6.390625 43.28125 13.890625 
Q 47.125 21.390625 47.125 36.375 
Q 47.125 51.421875 43.28125 58.90625 
Q 39.453125 66.40625 31.78125 66.40625 
z
M 31.78125 74.21875 
Q 44.046875 74.21875 50.515625 64.515625 
Q 56.984375 54.828125 56.984375 36.375 
Q 56.984375 17.96875 50.515625 8.265625 
Q 44.046875 -1.421875 31.78125 -1.421875 
Q 19.53125 -1.421875 13.0625 8.265625 
Q 6.59375 17.96875 6.59375 36.375 
Q 6.59375 54.828125 13.0625 64.515625 
Q 19.53125 74.21875 31.78125 74.21875 
z
" id="DejaVuSans-30"/>
      </defs>
      <g transform="translate(198.950332 313.476875)scale(0.2 -0.2)">
       <use xlink:href="#DejaVuSans-30"/>
      </g>
     </g>
    </g>
    <g id="xtick_4">
     <g id="line2d_7">
      <path clip-path="url(#pcebfdda649)" d="M 305.263238 291.28 
L 305.263238 5.52 
" style="fill:none;stroke:#b0b0b0;stroke-linecap:square;stroke-width:0.8;"/>
     </g>
     <g id="line2d_8">
      <g>
       <use style="stroke:#000000;stroke-width:0.8;" x="305.263238" xlink:href="#mcc9b372956" y="291.28"/>
      </g>
     </g>
     <g id="text_3">
      <!-- 4 -->
      <g transform="translate(298.900738 313.476875)scale(0.2 -0.2)">
       <use xlink:href="#DejaVuSans-34"/>
      </g>
     </g>
    </g>
    <g id="xtick_5">
     <g id="line2d_9">
      <path clip-path="url(#pcebfdda649)" d="M 405.213645 291.28 
L 405.213645 5.52 
" style="fill:none;stroke:#b0b0b0;stroke-linecap:square;stroke-width:0.8;"/>
     </g>
     <g id="line2d_10">
      <g>
       <use style="stroke:#000000;stroke-width:0.8;" x="405.213645" xlink:href="#mcc9b372956" y="291.28"/>
      </g>
     </g>
     <g id="text_4">
      <!-- 8 -->
      <defs>
       <path d="M 31.78125 34.625 
Q 24.75 34.625 20.71875 30.859375 
Q 16.703125 27.09375 16.703125 20.515625 
Q 16.703125 13.921875 20.71875 10.15625 
Q 24.75 6.390625 31.78125 6.390625 
Q 38.8125 6.390625 42.859375 10.171875 
Q 46.921875 13.96875 46.921875 20.515625 
Q 46.921875 27.09375 42.890625 30.859375 
Q 38.875 34.625 31.78125 34.625 
z
M 21.921875 38.8125 
Q 15.578125 40.375 12.03125 44.71875 
Q 8.5 49.078125 8.5 55.328125 
Q 8.5 64.0625 14.71875 69.140625 
Q 20.953125 74.21875 31.78125 74.21875 
Q 42.671875 74.21875 48.875 69.140625 
Q 55.078125 64.0625 55.078125 55.328125 
Q 55.078125 49.078125 51.53125 44.71875 
Q 48 40.375 41.703125 38.8125 
Q 48.828125 37.15625 52.796875 32.3125 
Q 56.78125 27.484375 56.78125 20.515625 
Q 56.78125 9.90625 50.3125 4.234375 
Q 43.84375 -1.421875 31.78125 -1.421875 
Q 19.734375 -1.421875 13.25 4.234375 
Q 6.78125 9.90625 6.78125 20.515625 
Q 6.78125 27.484375 10.78125 32.3125 
Q 14.796875 37.15625 21.921875 38.8125 
z
M 18.3125 54.390625 
Q 18.3125 48.734375 21.84375 45.5625 
Q 25.390625 42.390625 31.78125 42.390625 
Q 38.140625 42.390625 41.71875 45.5625 
Q 45.3125 48.734375 45.3125 54.390625 
Q 45.3125 60.0625 41.71875 63.234375 
Q 38.140625 66.40625 31.78125 66.40625 
Q 25.390625 66.40625 21.84375 63.234375 
Q 18.3125 60.0625 18.3125 54.390625 
z
" id="DejaVuSans-38"/>
      </defs>
      <g transform="translate(398.851145 313.476875)scale(0.2 -0.2)">
       <use xlink:href="#DejaVuSans-38"/>
      </g>
     </g>
    </g>
    <g id="text_5">
     <!-- log10 of Df -->
     <defs>
      <path d="M 9.421875 75.984375 
L 18.40625 75.984375 
L 18.40625 0 
L 9.421875 0 
z
" id="DejaVuSans-6c"/>
      <path d="M 30.609375 48.390625 
Q 23.390625 48.390625 19.1875 42.75 
Q 14.984375 37.109375 14.984375 27.296875 
Q 14.984375 17.484375 19.15625 11.84375 
Q 23.34375 6.203125 30.609375 6.203125 
Q 37.796875 6.203125 41.984375 11.859375 
Q 46.1875 17.53125 46.1875 27.296875 
Q 46.1875 37.015625 41.984375 42.703125 
Q 37.796875 48.390625 30.609375 48.390625 
z
M 30.609375 56 
Q 42.328125 56 49.015625 48.375 
Q 55.71875 40.765625 55.71875 27.296875 
Q 55.71875 13.875 49.015625 6.21875 
Q 42.328125 -1.421875 30.609375 -1.421875 
Q 18.84375 -1.421875 12.171875 6.21875 
Q 5.515625 13.875 5.515625 27.296875 
Q 5.515625 40.765625 12.171875 48.375 
Q 18.84375 56 30.609375 56 
z
" id="DejaVuSans-6f"/>
      <path d="M 45.40625 27.984375 
Q 45.40625 37.75 41.375 43.109375 
Q 37.359375 48.484375 30.078125 48.484375 
Q 22.859375 48.484375 18.828125 43.109375 
Q 14.796875 37.75 14.796875 27.984375 
Q 14.796875 18.265625 18.828125 12.890625 
Q 22.859375 7.515625 30.078125 7.515625 
Q 37.359375 7.515625 41.375 12.890625 
Q 45.40625 18.265625 45.40625 27.984375 
z
M 54.390625 6.78125 
Q 54.390625 -7.171875 48.1875 -13.984375 
Q 42 -20.796875 29.203125 -20.796875 
Q 24.46875 -20.796875 20.265625 -20.09375 
Q 16.0625 -19.390625 12.109375 -17.921875 
L 12.109375 -9.1875 
Q 16.0625 -11.328125 19.921875 -12.34375 
Q 23.78125 -13.375 27.78125 -13.375 
Q 36.625 -13.375 41.015625 -8.765625 
Q 45.40625 -4.15625 45.40625 5.171875 
L 45.40625 9.625 
Q 42.625 4.78125 38.28125 2.390625 
Q 33.9375 0 27.875 0 
Q 17.828125 0 11.671875 7.65625 
Q 5.515625 15.328125 5.515625 27.984375 
Q 5.515625 40.671875 11.671875 48.328125 
Q 17.828125 56 27.875 56 
Q 33.9375 56 38.28125 53.609375 
Q 42.625 51.21875 45.40625 46.390625 
L 45.40625 54.6875 
L 54.390625 54.6875 
z
" id="DejaVuSans-67"/>
      <path d="M 12.40625 8.296875 
L 28.515625 8.296875 
L 28.515625 63.921875 
L 10.984375 60.40625 
L 10.984375 69.390625 
L 28.421875 72.90625 
L 38.28125 72.90625 
L 38.28125 8.296875 
L 54.390625 8.296875 
L 54.390625 0 
L 12.40625 0 
z
" id="DejaVuSans-31"/>
      <path id="DejaVuSans-20"/>
      <path d="M 37.109375 75.984375 
L 37.109375 68.5 
L 28.515625 68.5 
Q 23.6875 68.5 21.796875 66.546875 
Q 19.921875 64.59375 19.921875 59.515625 
L 19.921875 54.6875 
L 34.71875 54.6875 
L 34.71875 47.703125 
L 19.921875 47.703125 
L 19.921875 0 
L 10.890625 0 
L 10.890625 47.703125 
L 2.296875 47.703125 
L 2.296875 54.6875 
L 10.890625 54.6875 
L 10.890625 58.5 
Q 10.890625 67.625 15.140625 71.796875 
Q 19.390625 75.984375 28.609375 75.984375 
z
" id="DejaVuSans-66"/>
      <path d="M 19.671875 64.796875 
L 19.671875 8.109375 
L 31.59375 8.109375 
Q 46.6875 8.109375 53.6875 14.9375 
Q 60.6875 21.78125 60.6875 36.53125 
Q 60.6875 51.171875 53.6875 57.984375 
Q 46.6875 64.796875 31.59375 64.796875 
z
M 9.8125 72.90625 
L 30.078125 72.90625 
Q 51.265625 72.90625 61.171875 64.09375 
Q 71.09375 55.28125 71.09375 36.53125 
Q 71.09375 17.671875 61.125 8.828125 
Q 51.171875 0 30.078125 0 
L 9.8125 0 
z
" id="DejaVuSans-44"/>
     </defs>
     <g transform="translate(172.910063 336.833125)scale(0.2 -0.2)">
      <use xlink:href="#DejaVuSans-6c"/>
      <use x="27.783203" xlink:href="#DejaVuSans-6f"/>
      <use x="88.964844" xlink:href="#DejaVuSans-67"/>
      <use x="152.441406" xlink:href="#DejaVuSans-31"/>
      <use x="216.064453" xlink:href="#DejaVuSans-30"/>
      <use x="279.6875" xlink:href="#DejaVuSans-20"/>
      <use x="311.474609" xlink:href="#DejaVuSans-6f"/>
      <use x="372.65625" xlink:href="#DejaVuSans-66"/>
      <use x="407.861328" xlink:href="#DejaVuSans-20"/>
      <use x="439.648438" xlink:href="#DejaVuSans-44"/>
      <use x="516.650391" xlink:href="#DejaVuSans-66"/>
     </g>
    </g>
   </g>
   <g id="matplotlib.axis_2">
    <g id="ytick_1">
     <g id="line2d_11">
      <path clip-path="url(#pcebfdda649)" d="M 5.52 291.28 
L 450.672 291.28 
" style="fill:none;stroke:#b0b0b0;stroke-linecap:square;stroke-width:0.8;"/>
     </g>
     <g id="line2d_12">
      <defs>
       <path d="M 0 0 
L -3.5 0 
" id="m9c62ab0898" style="stroke:#000000;stroke-width:0.8;"/>
      </defs>
      <g>
       <use style="stroke:#000000;stroke-width:0.8;" x="5.52" xlink:href="#m9c62ab0898" y="291.28"/>
      </g>
     </g>
    </g>
    <g id="ytick_2">
     <g id="line2d_13">
      <path clip-path="url(#pcebfdda649)" d="M 5.52 234.693861 
L 450.672 234.693861 
" style="fill:none;stroke:#b0b0b0;stroke-linecap:square;stroke-width:0.8;"/>
     </g>
     <g id="line2d_14">
      <g>
       <use style="stroke:#000000;stroke-width:0.8;" x="5.52" xlink:href="#m9c62ab0898" y="234.693861"/>
      </g>
     </g>
    </g>
    <g id="ytick_3">
     <g id="line2d_15">
      <path clip-path="url(#pcebfdda649)" d="M 5.52 178.107723 
L 450.672 178.107723 
" style="fill:none;stroke:#b0b0b0;stroke-linecap:square;stroke-width:0.8;"/>
     </g>
     <g id="line2d_16">
      <g>
       <use style="stroke:#000000;stroke-width:0.8;" x="5.52" xlink:href="#m9c62ab0898" y="178.107723"/>
      </g>
     </g>
    </g>
    <g id="ytick_4">
     <g id="line2d_17">
      <path clip-path="url(#pcebfdda649)" d="M 5.52 121.521584 
L 450.672 121.521584 
" style="fill:none;stroke:#b0b0b0;stroke-linecap:square;stroke-width:0.8;"/>
     </g>
     <g id="line2d_18">
      <g>
       <use style="stroke:#000000;stroke-width:0.8;" x="5.52" xlink:href="#m9c62ab0898" y="121.521584"/>
      </g>
     </g>
    </g>
    <g id="ytick_5">
     <g id="line2d_19">
      <path clip-path="url(#pcebfdda649)" d="M 5.52 64.935446 
L 450.672 64.935446 
" style="fill:none;stroke:#b0b0b0;stroke-linecap:square;stroke-width:0.8;"/>
     </g>
     <g id="line2d_20">
      <g>
       <use style="stroke:#000000;stroke-width:0.8;" x="5.52" xlink:href="#m9c62ab0898" y="64.935446"/>
      </g>
     </g>
    </g>
    <g id="ytick_6">
     <g id="line2d_21">
      <path clip-path="url(#pcebfdda649)" d="M 5.52 8.349307 
L 450.672 8.349307 
" style="fill:none;stroke:#b0b0b0;stroke-linecap:square;stroke-width:0.8;"/>
     </g>
     <g id="line2d_22">
      <g>
       <use style="stroke:#000000;stroke-width:0.8;" x="5.52" xlink:href="#m9c62ab0898" y="8.349307"/>
      </g>
     </g>
    </g>
   </g>
   <g id="line2d_23">
    <path clip-path="url(#pcebfdda649)" d="M 97.258954 291.28 
L 97.258954 287.507591 
L 97.697211 287.507591 
L 97.697211 283.735182 
L 98.338698 283.735182 
L 98.338698 279.962772 
L 98.647881 279.962772 
L 98.717744 272.417954 
L 98.916166 272.417954 
L 98.923723 261.100726 
L 99.609004 261.100726 
L 99.609004 257.328317 
L 99.780773 257.328317 
L 99.780773 253.555908 
L 99.948075 253.555908 
L 99.948075 249.783498 
L 100.163854 249.783498 
L 100.270521 242.23868 
L 100.513422 242.23868 
L 100.514026 234.693861 
L 100.670736 234.693861 
L 100.670736 230.921452 
L 140.886276 230.921452 
L 140.886276 227.149043 
L 143.827694 227.149043 
L 143.827694 223.376634 
L 150.000046 223.376634 
L 150.000046 219.604224 
L 158.223669 219.604224 
L 158.223669 215.831815 
L 164.744409 215.831815 
L 164.744409 212.059406 
L 167.800712 212.059406 
L 167.800712 208.286997 
L 171.125106 208.286997 
L 171.125106 204.514587 
L 180.337409 204.514587 
L 180.337409 200.742178 
L 180.840183 200.742178 
L 180.840183 196.969769 
L 185.786902 196.969769 
L 185.786902 193.19736 
L 187.911424 193.19736 
L 187.911424 189.42495 
L 188.983197 189.42495 
L 188.983197 185.652541 
L 194.891906 185.652541 
L 194.891906 181.880132 
L 195.46743 181.880132 
L 195.46743 178.107723 
L 197.12914 178.107723 
L 197.12914 174.335314 
L 199.847823 174.335314 
L 199.847823 170.562904 
L 202.11951 170.562904 
L 202.11951 166.790495 
L 202.564009 166.790495 
L 202.564009 163.018086 
L 203.233886 163.018086 
L 203.265918 155.473267 
L 205.647762 155.473267 
L 205.647762 151.700858 
L 210.486782 151.700858 
L 210.486782 147.928449 
L 212.333384 147.928449 
L 212.333384 144.15604 
L 212.895333 144.15604 
L 212.895333 140.38363 
L 216.23874 140.38363 
L 216.23874 136.611221 
L 219.061802 136.611221 
L 219.061802 132.838812 
L 225.707801 132.838812 
L 225.707801 129.066403 
L 227.921217 129.066403 
L 227.921217 125.293993 
L 228.051843 125.293993 
L 228.051843 121.521584 
L 250.83273 121.521584 
L 250.83273 117.749175 
L 254.420109 117.749175 
L 254.420109 113.976766 
L 254.762359 113.976766 
L 254.762359 110.204356 
L 255.042456 110.204356 
L 255.042456 106.431947 
L 255.332624 106.431947 
L 255.332624 102.659538 
L 255.77739 102.659538 
L 255.77739 98.887129 
L 256.149519 98.887129 
L 256.149519 95.114719 
L 256.688912 95.114719 
L 256.750263 87.569901 
L 256.850422 87.569901 
L 256.850422 83.797492 
L 257.228575 83.797492 
L 257.228575 80.025083 
L 257.390086 80.025083 
L 257.390086 76.252673 
L 257.753424 76.252673 
L 257.753424 72.480264 
L 258.495476 72.480264 
L 258.495476 68.707855 
L 258.939954 68.707855 
L 258.939954 64.935446 
L 259.141062 64.935446 
L 259.141062 61.163036 
L 259.784327 61.163036 
L 259.784327 57.390627 
L 260.537523 57.390627 
L 260.537523 53.618218 
L 261.15435 53.618218 
L 261.15435 49.845809 
L 261.621306 49.845809 
L 261.621306 46.073399 
L 262.414787 46.073399 
L 262.414787 42.30099 
L 263.112014 42.30099 
L 263.112014 38.528581 
L 263.913606 38.528581 
L 263.913606 34.756172 
L 265.680749 34.756172 
L 265.714039 27.211353 
L 266.703569 27.211353 
L 266.703569 23.438944 
L 266.887175 23.438944 
L 266.887175 19.666535 
L 268.325385 19.666535 
L 268.325385 15.894125 
L 268.692139 15.894125 
L 268.692139 12.121716 
L 270.161112 12.121716 
L 270.161112 8.349307 
L 270.161112 8.349307 
L 450.672 8.349307 
L 450.672 8.349307 
" style="fill:none;stroke:#ff0000;stroke-linecap:square;stroke-width:3;"/>
   </g>
   <g id="line2d_24">
    <path clip-path="url(#pcebfdda649)" d="M 236.097029 291.28 
L 236.097029 287.507591 
L 237.783997 287.507591 
L 237.783997 283.735182 
L 239.846324 283.735182 
L 239.846324 279.962772 
L 240.410936 279.962772 
L 240.410936 276.190363 
L 242.306679 276.190363 
L 242.375342 268.645545 
L 243.289508 268.645545 
L 243.289508 264.873135 
L 243.861041 264.873135 
L 243.861041 261.100726 
L 244.176201 261.100726 
L 244.176201 257.328317 
L 244.338215 257.328317 
L 244.338215 253.555908 
L 245.847387 253.555908 
L 245.847387 249.783498 
L 246.21701 249.783498 
L 246.21701 246.011089 
L 246.604247 246.011089 
L 246.604247 242.23868 
L 249.077564 242.23868 
L 249.077564 238.466271 
L 249.221687 238.466271 
L 249.221687 234.693861 
L 264.881386 234.693861 
L 264.881386 230.921452 
L 269.1837 230.921452 
L 269.1837 227.149043 
L 270.340189 227.149043 
L 270.340189 223.376634 
L 270.775491 223.376634 
L 270.775491 219.604224 
L 280.423535 219.604224 
L 280.423535 215.831815 
L 284.573607 215.831815 
L 284.67081 208.286997 
L 285.676519 208.286997 
L 285.676519 204.514587 
L 285.918598 204.514587 
L 286.008937 196.969769 
L 286.513123 196.969769 
L 286.564043 189.42495 
L 287.519926 189.42495 
L 287.519926 185.652541 
L 288.110669 185.652541 
L 288.110669 181.880132 
L 288.557327 181.880132 
L 288.63258 174.335314 
L 288.795882 174.335314 
L 288.795882 170.562904 
L 288.934208 170.562904 
L 288.942262 163.018086 
L 290.190429 163.018086 
L 290.190429 159.245677 
L 290.355346 159.245677 
L 290.355346 155.473267 
L 302.409034 155.473267 
L 302.409034 151.700858 
L 319.05177 151.700858 
L 319.05177 147.928449 
L 319.262198 147.928449 
L 319.262198 144.15604 
L 348.36162 144.15604 
L 348.36162 140.38363 
L 353.282602 140.38363 
L 353.282602 136.611221 
L 355.514294 136.611221 
L 355.514294 132.838812 
L 357.729905 132.838812 
L 357.729905 129.066403 
L 357.904922 129.066403 
L 357.904922 125.293993 
L 360.91024 125.293993 
L 360.91024 121.521584 
L 362.602374 121.521584 
L 362.602374 117.749175 
L 362.785165 117.749175 
L 362.785165 113.976766 
L 363.301938 113.976766 
L 363.301938 110.204356 
L 364.463785 110.204356 
L 364.463785 106.431947 
L 364.862196 106.431947 
L 364.862196 102.659538 
L 365.992227 102.659538 
L 365.992227 98.887129 
L 368.214373 98.887129 
L 368.214373 95.114719 
L 370.029 95.114719 
L 370.029 91.34231 
L 372.011825 91.34231 
L 372.011825 87.569901 
L 372.977726 87.569901 
L 373.086049 80.025083 
L 375.400546 80.025083 
L 375.400546 76.252673 
L 377.608781 76.252673 
L 377.608781 72.480264 
L 378.920302 72.480264 
L 378.920302 68.707855 
L 384.410189 68.707855 
L 384.410189 64.935446 
L 395.315767 64.935446 
L 395.315767 61.163036 
L 401.402917 61.163036 
L 401.402917 57.390627 
L 407.399582 57.390627 
L 407.399582 53.618218 
L 408.467286 53.618218 
L 408.467286 49.845809 
L 408.910341 49.845809 
L 408.910341 46.073399 
L 409.148284 46.073399 
L 409.148284 42.30099 
L 409.621503 42.30099 
L 409.621503 38.528581 
L 410.051856 38.528581 
L 410.051856 34.756172 
L 410.3335 34.756172 
L 410.3335 30.983762 
L 411.779443 30.983762 
L 411.820989 23.438944 
L 414.84156 23.438944 
L 414.84156 19.666535 
L 415.856144 19.666535 
L 415.856144 15.894125 
L 417.867545 15.894125 
L 417.867545 12.121716 
L 420.362282 12.121716 
L 420.362282 8.349307 
L 420.362282 8.349307 
L 450.672 8.349307 
L 450.672 8.349307 
" style="fill:none;stroke:#00bfbf;stroke-linecap:square;stroke-width:1.5;"/>
   </g>
   <g id="line2d_25">
    <path clip-path="url(#pcebfdda649)" d="M 235.104444 291.28 
L 235.145259 283.735182 
L 237.081959 283.735182 
L 237.081959 279.962772 
L 239.846324 279.962772 
L 239.846324 276.190363 
L 241.68853 276.190363 
L 241.68853 272.417954 
L 242.306679 272.417954 
L 242.375342 264.873135 
L 242.440547 264.873135 
L 242.440547 261.100726 
L 243.289508 261.100726 
L 243.289508 257.328317 
L 244.338215 257.328317 
L 244.338215 253.555908 
L 245.543976 253.555908 
L 245.543976 249.783498 
L 245.847387 249.783498 
L 245.847387 246.011089 
L 246.21701 246.011089 
L 246.21701 242.23868 
L 249.077564 242.23868 
L 249.077564 238.466271 
L 249.221687 238.466271 
L 249.221687 234.693861 
L 264.881386 234.693861 
L 264.881386 230.921452 
L 267.435044 230.921452 
L 267.435044 227.149043 
L 269.1837 227.149043 
L 269.1837 223.376634 
L 270.340189 223.376634 
L 270.340189 219.604224 
L 279.066922 219.604224 
L 279.066922 215.831815 
L 280.423535 215.831815 
L 280.423535 212.059406 
L 283.676821 212.059406 
L 283.676821 208.286997 
L 284.573607 208.286997 
L 284.573607 204.514587 
L 285.676519 204.514587 
L 285.676519 200.742178 
L 285.918598 200.742178 
L 286.008937 193.19736 
L 286.414179 193.19736 
L 286.521518 181.880132 
L 286.991547 181.880132 
L 286.991547 178.107723 
L 287.356211 178.107723 
L 287.356211 174.335314 
L 287.519926 174.335314 
L 287.519926 170.562904 
L 288.250728 170.562904 
L 288.250728 166.790495 
L 288.63258 166.790495 
L 288.741791 159.245677 
L 290.295242 159.245677 
L 290.295242 155.473267 
L 292.008011 155.473267 
L 292.008011 151.700858 
L 299.387386 151.700858 
L 299.387386 147.928449 
L 302.409034 147.928449 
L 302.409034 144.15604 
L 319.262198 144.15604 
L 319.262198 140.38363 
L 319.961034 140.38363 
L 319.961034 136.611221 
L 345.746753 136.611221 
L 345.746753 132.838812 
L 347.811684 132.838812 
L 347.811684 129.066403 
L 351.213162 129.066403 
L 351.213162 125.293993 
L 355.514294 125.293993 
L 355.514294 121.521584 
L 357.904922 121.521584 
L 357.904922 117.749175 
L 360.91024 117.749175 
L 360.91024 113.976766 
L 362.602374 113.976766 
L 362.602374 110.204356 
L 362.785165 110.204356 
L 362.785165 106.431947 
L 363.301938 106.431947 
L 363.301938 102.659538 
L 364.840481 102.659538 
L 364.862196 95.114719 
L 368.214373 95.114719 
L 368.214373 91.34231 
L 370.029 91.34231 
L 370.029 87.569901 
L 370.713987 87.569901 
L 370.713987 83.797492 
L 371.490162 83.797492 
L 371.490162 80.025083 
L 373.086049 80.025083 
L 373.086049 76.252673 
L 375.400546 76.252673 
L 375.400546 72.480264 
L 375.828918 72.480264 
L 375.828918 68.707855 
L 384.126091 68.707855 
L 384.126091 64.935446 
L 395.315767 64.935446 
L 395.315767 61.163036 
L 401.402917 61.163036 
L 401.402917 57.390627 
L 405.937704 57.390627 
L 405.937704 53.618218 
L 407.017265 53.618218 
L 407.017265 49.845809 
L 407.399582 49.845809 
L 407.410661 42.30099 
L 408.910341 42.30099 
L 408.910341 38.528581 
L 409.261461 38.528581 
L 409.261461 34.756172 
L 409.621503 34.756172 
L 409.621503 30.983762 
L 410.3335 30.983762 
L 410.3335 27.211353 
L 411.779443 27.211353 
L 411.779443 23.438944 
L 414.84156 23.438944 
L 414.84156 19.666535 
L 415.856144 19.666535 
L 415.856144 15.894125 
L 417.867545 15.894125 
L 417.867545 12.121716 
L 419.577206 12.121716 
L 419.577206 8.349307 
L 419.577206 8.349307 
L 450.672 8.349307 
L 450.672 8.349307 
" style="fill:none;stroke:#bf00bf;stroke-linecap:square;stroke-width:1.5;"/>
   </g>
   <g id="line2d_26">
    <path clip-path="url(#pcebfdda649)" d="M 231.803765 291.28 
L 231.803765 287.507591 
L 235.145259 287.507591 
L 235.145259 283.735182 
L 237.081959 283.735182 
L 237.081959 279.962772 
L 238.588183 279.962772 
L 238.588183 276.190363 
L 239.398577 276.190363 
L 239.398577 272.417954 
L 240.243131 272.417954 
L 240.243131 268.645545 
L 240.533957 268.645545 
L 240.533957 264.873135 
L 241.317897 264.873135 
L 241.317897 261.100726 
L 242.375342 261.100726 
L 242.440547 253.555908 
L 243.885869 253.555908 
L 243.885869 249.783498 
L 244.338215 249.783498 
L 244.409844 242.23868 
L 244.994973 242.23868 
L 244.994973 238.466271 
L 249.221687 238.466271 
L 249.221687 234.693861 
L 264.881386 234.693861 
L 264.881386 230.921452 
L 267.435044 230.921452 
L 267.435044 227.149043 
L 269.1837 227.149043 
L 269.1837 223.376634 
L 270.340189 223.376634 
L 270.340189 219.604224 
L 278.750444 219.604224 
L 278.750444 215.831815 
L 279.066922 215.831815 
L 279.066922 212.059406 
L 281.082565 212.059406 
L 281.082565 208.286997 
L 283.085217 208.286997 
L 283.085217 204.514587 
L 283.764275 204.514587 
L 283.764275 200.742178 
L 285.676519 200.742178 
L 285.676519 196.969769 
L 285.839716 196.969769 
L 285.918598 181.880132 
L 286.125038 181.880132 
L 286.125038 178.107723 
L 286.298333 178.107723 
L 286.298333 174.335314 
L 286.513123 174.335314 
L 286.513123 170.562904 
L 286.991547 170.562904 
L 286.991547 166.790495 
L 287.9432 166.790495 
L 287.9432 163.018086 
L 288.250728 163.018086 
L 288.250728 159.245677 
L 288.63258 159.245677 
L 288.63258 155.473267 
L 289.398659 155.473267 
L 289.398659 151.700858 
L 292.008011 151.700858 
L 292.008011 147.928449 
L 293.48964 147.928449 
L 293.48964 144.15604 
L 296.411172 144.15604 
L 296.411172 140.38363 
L 299.387386 140.38363 
L 299.387386 136.611221 
L 319.262198 136.611221 
L 319.262198 132.838812 
L 345.746753 132.838812 
L 345.746753 129.066403 
L 351.213162 129.066403 
L 351.213162 125.293993 
L 351.482457 125.293993 
L 351.482457 121.521584 
L 351.705172 121.521584 
L 351.705172 117.749175 
L 353.533862 117.749175 
L 353.533862 113.976766 
L 355.514294 113.976766 
L 355.514294 110.204356 
L 356.712577 110.204356 
L 356.712577 106.431947 
L 359.320694 106.431947 
L 359.320694 102.659538 
L 362.785165 102.659538 
L 362.785165 98.887129 
L 364.840481 98.887129 
L 364.862196 91.34231 
L 364.970645 91.34231 
L 364.970645 87.569901 
L 366.175879 87.569901 
L 366.211808 80.025083 
L 369.240438 80.025083 
L 369.309887 72.480264 
L 370.988248 72.480264 
L 370.988248 68.707855 
L 384.126091 68.707855 
L 384.126091 64.935446 
L 395.315767 64.935446 
L 395.315767 61.163036 
L 400.673782 61.163036 
L 400.673782 57.390627 
L 403.423744 57.390627 
L 403.423744 53.618218 
L 404.993307 53.618218 
L 404.993307 49.845809 
L 406.664162 49.845809 
L 406.664162 46.073399 
L 407.017265 46.073399 
L 407.017265 42.30099 
L 407.399582 42.30099 
L 407.399582 38.528581 
L 408.910341 38.528581 
L 408.910341 34.756172 
L 409.261461 34.756172 
L 409.261461 30.983762 
L 409.621503 30.983762 
L 409.621503 27.211353 
L 411.779443 27.211353 
L 411.779443 23.438944 
L 413.971541 23.438944 
L 413.971541 19.666535 
L 414.768235 19.666535 
L 414.84156 12.121716 
L 418.213972 12.121716 
L 418.213972 8.349307 
L 418.213972 8.349307 
L 450.672 8.349307 
L 450.672 8.349307 
" style="fill:none;stroke:#000000;stroke-linecap:square;stroke-width:1.5;"/>
   </g>
   <g id="line2d_27">
    <path clip-path="url(#pcebfdda649)" d="M 231.803765 291.28 
L 231.803765 287.507591 
L 233.759066 287.507591 
L 233.759066 283.735182 
L 234.695683 283.735182 
L 234.695683 279.962772 
L 235.2998 279.962772 
L 235.2998 276.190363 
L 235.460444 276.190363 
L 235.460444 272.417954 
L 235.850855 272.417954 
L 235.850855 268.645545 
L 236.003344 268.645545 
L 236.003344 264.873135 
L 237.993188 264.873135 
L 237.993188 261.100726 
L 238.577777 261.100726 
L 238.577777 257.328317 
L 239.202408 257.328317 
L 239.202408 253.555908 
L 239.755775 253.555908 
L 239.755775 249.783498 
L 240.50685 249.783498 
L 240.50685 246.011089 
L 240.734906 246.011089 
L 240.734906 242.23868 
L 242.301133 242.23868 
L 242.301133 238.466271 
L 244.553523 238.466271 
L 244.553523 234.693861 
L 257.741988 234.693861 
L 257.741988 230.921452 
L 258.639528 230.921452 
L 258.639528 227.149043 
L 258.90633 227.149043 
L 258.90633 223.376634 
L 259.036392 223.376634 
L 259.036392 219.604224 
L 259.4083 219.604224 
L 259.4083 215.831815 
L 260.420035 215.831815 
L 260.420035 212.059406 
L 261.484555 212.059406 
L 261.484555 208.286997 
L 265.901108 208.286997 
L 265.901108 204.514587 
L 267.658248 204.514587 
L 267.658248 200.742178 
L 270.340189 200.742178 
L 270.340189 196.969769 
L 272.844578 196.969769 
L 272.844578 193.19736 
L 276.138493 193.19736 
L 276.138493 189.42495 
L 280.514075 189.42495 
L 280.514075 185.652541 
L 280.644484 185.652541 
L 280.644484 181.880132 
L 281.082565 181.880132 
L 281.082565 178.107723 
L 282.291762 178.107723 
L 282.291762 174.335314 
L 283.171205 174.335314 
L 283.171205 170.562904 
L 283.429538 170.562904 
L 283.429538 166.790495 
L 283.570277 166.790495 
L 283.570277 163.018086 
L 284.044136 163.018086 
L 284.044136 159.245677 
L 284.373106 159.245677 
L 284.373106 155.473267 
L 284.793309 155.473267 
L 284.857089 147.928449 
L 285.306968 147.928449 
L 285.404168 140.38363 
L 286.618934 140.38363 
L 286.618934 136.611221 
L 286.822668 136.611221 
L 286.822668 132.838812 
L 287.455539 132.838812 
L 287.455539 129.066403 
L 291.008545 129.066403 
L 291.008545 125.293993 
L 326.597006 125.293993 
L 326.597006 121.521584 
L 343.765354 121.521584 
L 343.765354 117.749175 
L 346.205209 117.749175 
L 346.205209 113.976766 
L 348.693643 113.976766 
L 348.693643 110.204356 
L 350.419089 110.204356 
L 350.419089 106.431947 
L 351.525699 106.431947 
L 351.525699 102.659538 
L 353.533862 102.659538 
L 353.533862 98.887129 
L 353.952341 98.887129 
L 353.952341 95.114719 
L 354.260021 95.114719 
L 354.260021 91.34231 
L 354.565713 91.34231 
L 354.565713 87.569901 
L 354.971848 87.569901 
L 354.981514 80.025083 
L 356.996849 80.025083 
L 356.996849 76.252673 
L 357.914477 76.252673 
L 357.914477 72.480264 
L 362.221395 72.480264 
L 362.221395 68.707855 
L 366.943374 68.707855 
L 366.943374 64.935446 
L 392.746666 64.935446 
L 392.746666 61.163036 
L 392.944785 61.163036 
L 392.944785 57.390627 
L 396.036342 57.390627 
L 396.036342 53.618218 
L 397.409757 53.618218 
L 397.409757 49.845809 
L 400.343241 49.845809 
L 400.343241 46.073399 
L 401.83722 46.073399 
L 401.83722 42.30099 
L 403.2851 42.30099 
L 403.2851 38.528581 
L 403.735319 38.528581 
L 403.78972 30.983762 
L 404.737602 30.983762 
L 404.737602 27.211353 
L 405.01932 27.211353 
L 405.01932 23.438944 
L 406.365283 23.438944 
L 406.406496 15.894125 
L 407.744692 15.894125 
L 407.744692 12.121716 
L 409.587216 12.121716 
L 409.587216 8.349307 
L 409.587216 8.349307 
L 450.672 8.349307 
L 450.672 8.349307 
" style="fill:none;stroke:#00bfbf;stroke-linecap:square;stroke-width:1.5;"/>
   </g>
   <g id="line2d_28">
    <path clip-path="url(#pcebfdda649)" d="M 220.0192 291.28 
L 220.0192 287.507591 
L 222.28821 287.507591 
L 222.294828 279.962772 
L 222.665058 279.962772 
L 222.665058 276.190363 
L 223.782107 276.190363 
L 223.782107 272.417954 
L 224.560226 272.417954 
L 224.560226 268.645545 
L 224.751851 268.645545 
L 224.834979 261.100726 
L 225.534837 261.100726 
L 225.594507 253.555908 
L 226.983565 253.555908 
L 226.983565 249.783498 
L 228.341311 249.783498 
L 228.341311 246.011089 
L 228.874838 246.011089 
L 228.874838 242.23868 
L 229.549864 242.23868 
L 229.549864 238.466271 
L 231.473789 238.466271 
L 231.473789 234.693861 
L 251.901088 234.693861 
L 251.901088 230.921452 
L 254.568886 230.921452 
L 254.568886 227.149043 
L 255.332624 227.149043 
L 255.332624 223.376634 
L 255.77739 223.376634 
L 255.77739 219.604224 
L 256.750263 219.604224 
L 256.798771 212.059406 
L 256.977316 212.059406 
L 256.977316 208.286997 
L 257.228575 208.286997 
L 257.228575 204.514587 
L 258.322399 204.514587 
L 258.322399 200.742178 
L 258.570947 200.742178 
L 258.570947 196.969769 
L 258.858691 196.969769 
L 258.858691 193.19736 
L 259.440323 193.19736 
L 259.440323 189.42495 
L 259.784327 189.42495 
L 259.784327 185.652541 
L 261.146166 185.652541 
L 261.161928 178.107723 
L 273.453882 178.107723 
L 273.453882 174.335314 
L 274.086635 174.335314 
L 274.086635 170.562904 
L 274.498048 170.562904 
L 274.498048 166.790495 
L 274.625597 166.790495 
L 274.625597 163.018086 
L 275.2292 163.018086 
L 275.2292 159.245677 
L 276.047314 159.245677 
L 276.047314 155.473267 
L 276.720776 155.473267 
L 276.720776 151.700858 
L 276.846841 151.700858 
L 276.846841 147.928449 
L 277.737582 147.928449 
L 277.760773 140.38363 
L 278.471359 140.38363 
L 278.471359 136.611221 
L 278.658774 136.611221 
L 278.658774 132.838812 
L 278.87384 132.838812 
L 278.87384 129.066403 
L 279.584869 129.066403 
L 279.584869 125.293993 
L 281.172667 125.293993 
L 281.172667 121.521584 
L 328.29447 121.521584 
L 328.29447 117.749175 
L 329.843648 117.749175 
L 329.843648 113.976766 
L 334.506498 113.976766 
L 334.506498 110.204356 
L 335.374239 110.204356 
L 335.377462 102.659538 
L 335.827983 102.659538 
L 335.827983 98.887129 
L 337.485508 98.887129 
L 337.485508 95.114719 
L 338.123397 95.114719 
L 338.123397 91.34231 
L 339.001152 91.34231 
L 339.001152 87.569901 
L 339.758242 87.569901 
L 339.758242 83.797492 
L 340.572107 83.797492 
L 340.572107 80.025083 
L 343.038093 80.025083 
L 343.11246 72.480264 
L 347.070191 72.480264 
L 347.070191 68.707855 
L 348.712191 68.707855 
L 348.712191 64.935446 
L 377.506332 64.935446 
L 377.506332 61.163036 
L 381.527026 61.163036 
L 381.527026 57.390627 
L 385.171533 57.390627 
L 385.171533 53.618218 
L 385.669478 53.618218 
L 385.669478 49.845809 
L 387.240767 49.845809 
L 387.240767 46.073399 
L 394.069823 46.073399 
L 394.069823 42.30099 
L 394.531003 42.30099 
L 394.531003 38.528581 
L 395.033155 38.528581 
L 395.049197 30.983762 
L 395.796284 30.983762 
L 395.796284 27.211353 
L 397.745012 27.211353 
L 397.843073 19.666535 
L 398.202847 19.666535 
L 398.202847 15.894125 
L 398.666511 15.894125 
L 398.666511 12.121716 
L 401.225656 12.121716 
L 401.225656 8.349307 
L 401.225656 8.349307 
L 450.672 8.349307 
L 450.672 8.349307 
" style="fill:none;stroke:#bf00bf;stroke-linecap:square;stroke-width:1.5;"/>
   </g>
   <g id="line2d_29">
    <path clip-path="url(#pcebfdda649)" d="M 129.767698 291.28 
L 129.767698 287.507591 
L 132.254428 287.507591 
L 132.254428 283.735182 
L 134.319455 283.735182 
L 134.319455 279.962772 
L 134.688062 279.962772 
L 134.688062 276.190363 
L 135.589971 276.190363 
L 135.589971 272.417954 
L 136.658949 272.417954 
L 136.679266 264.873135 
L 137.39926 264.873135 
L 137.39926 261.100726 
L 137.562232 261.100726 
L 137.562232 257.328317 
L 137.893501 257.328317 
L 137.937342 249.783498 
L 138.852032 249.783498 
L 138.852032 246.011089 
L 139.518833 246.011089 
L 139.518833 242.23868 
L 141.407337 242.23868 
L 141.407337 238.466271 
L 142.148437 238.466271 
L 142.148437 234.693861 
L 148.119639 234.693861 
L 148.119639 230.921452 
L 170.116128 230.921452 
L 170.116128 227.149043 
L 179.933869 227.149043 
L 179.933869 223.376634 
L 183.566784 223.376634 
L 183.566784 219.604224 
L 185.633674 219.604224 
L 185.633674 215.831815 
L 186.276439 215.831815 
L 186.276439 212.059406 
L 187.732413 212.059406 
L 187.732413 208.286997 
L 189.873499 208.286997 
L 189.873499 204.514587 
L 191.418067 204.514587 
L 191.418067 200.742178 
L 194.1099 200.742178 
L 194.1099 196.969769 
L 195.760219 196.969769 
L 195.760219 193.19736 
L 195.922792 193.19736 
L 195.922792 189.42495 
L 199.546472 189.42495 
L 199.555263 181.880132 
L 200.305516 181.880132 
L 200.305516 178.107723 
L 203.46091 178.107723 
L 203.46091 174.335314 
L 203.896969 174.335314 
L 203.896969 170.562904 
L 204.366136 170.562904 
L 204.366136 166.790495 
L 204.75726 166.790495 
L 204.75726 163.018086 
L 204.925948 163.018086 
L 204.925948 159.245677 
L 205.956009 159.245677 
L 205.956009 155.473267 
L 211.075004 155.473267 
L 211.075004 151.700858 
L 213.146014 151.700858 
L 213.146014 147.928449 
L 213.589465 147.928449 
L 213.589465 144.15604 
L 217.045332 144.15604 
L 217.045332 140.38363 
L 219.965 140.38363 
L 219.965 136.611221 
L 226.132883 136.611221 
L 226.132883 132.838812 
L 228.253955 132.838812 
L 228.253955 129.066403 
L 228.685692 129.066403 
L 228.685692 125.293993 
L 232.940713 125.293993 
L 232.940713 121.521584 
L 251.901088 121.521584 
L 251.901088 117.749175 
L 254.568886 117.749175 
L 254.568886 113.976766 
L 255.042456 113.976766 
L 255.042456 110.204356 
L 255.332624 110.204356 
L 255.332624 106.431947 
L 255.77739 106.431947 
L 255.77739 102.659538 
L 256.149519 102.659538 
L 256.149519 98.887129 
L 256.688912 98.887129 
L 256.750263 91.34231 
L 257.228575 91.34231 
L 257.228575 87.569901 
L 257.390086 87.569901 
L 257.390086 83.797492 
L 257.96471 83.797492 
L 257.96471 80.025083 
L 258.495476 80.025083 
L 258.495476 76.252673 
L 259.784327 76.252673 
L 259.784327 72.480264 
L 259.99117 72.480264 
L 259.99117 68.707855 
L 260.537523 68.707855 
L 260.537523 64.935446 
L 295.882547 64.935446 
L 295.882547 61.163036 
L 298.563661 61.163036 
L 298.563661 57.390627 
L 303.459668 57.390627 
L 303.459668 53.618218 
L 304.079652 53.618218 
L 304.079652 49.845809 
L 304.889196 49.845809 
L 304.889196 46.073399 
L 305.570103 46.073399 
L 305.570103 42.30099 
L 305.742563 42.30099 
L 305.742563 38.528581 
L 306.320736 38.528581 
L 306.320736 34.756172 
L 306.997932 34.756172 
L 306.997932 30.983762 
L 309.342544 30.983762 
L 309.342544 27.211353 
L 310.893821 27.211353 
L 310.893821 23.438944 
L 312.994794 23.438944 
L 313.047007 15.894125 
L 315.462118 15.894125 
L 315.462118 12.121716 
L 318.159651 12.121716 
L 318.159651 8.349307 
L 318.159651 8.349307 
L 450.672 8.349307 
L 450.672 8.349307 
" style="fill:none;stroke:#000000;stroke-linecap:square;stroke-width:1.5;"/>
   </g>
   <g id="line2d_30">
    <path clip-path="url(#pcebfdda649)" d="M 97.697211 291.28 
L 97.697211 287.507591 
L 110.700198 287.507591 
L 110.700198 283.735182 
L 110.88227 283.735182 
L 110.88227 279.962772 
L 112.078623 279.962772 
L 112.078623 276.190363 
L 112.739506 276.190363 
L 112.739506 272.417954 
L 112.897632 272.417954 
L 112.897632 268.645545 
L 113.057273 268.645545 
L 113.099311 261.100726 
L 113.503594 261.100726 
L 113.518576 253.555908 
L 114.096249 253.555908 
L 114.096249 249.783498 
L 114.419008 249.783498 
L 114.419008 246.011089 
L 114.663294 246.011089 
L 114.663294 242.23868 
L 114.78679 242.23868 
L 114.78679 238.466271 
L 115.093074 238.466271 
L 115.11245 230.921452 
L 140.95949 230.921452 
L 140.95949 227.149043 
L 143.88747 227.149043 
L 143.88747 223.376634 
L 150.000046 223.376634 
L 150.000046 219.604224 
L 158.292719 219.604224 
L 158.292719 215.831815 
L 164.744409 215.831815 
L 164.744409 212.059406 
L 167.800712 212.059406 
L 167.800712 208.286997 
L 171.125106 208.286997 
L 171.125106 204.514587 
L 180.412194 204.514587 
L 180.412194 200.742178 
L 180.840183 200.742178 
L 180.840183 196.969769 
L 185.859051 196.969769 
L 185.859051 193.19736 
L 187.981805 193.19736 
L 187.981805 189.42495 
L 188.983197 189.42495 
L 188.983197 185.652541 
L 194.971982 185.652541 
L 194.971982 181.880132 
L 195.46743 181.880132 
L 195.46743 178.107723 
L 197.200762 178.107723 
L 197.200762 174.335314 
L 199.847823 174.335314 
L 199.847823 170.562904 
L 202.199905 170.562904 
L 202.199905 166.790495 
L 202.564009 166.790495 
L 202.564009 163.018086 
L 203.233886 163.018086 
L 203.265918 155.473267 
L 205.733459 155.473267 
L 205.733459 151.700858 
L 210.486782 151.700858 
L 210.486782 147.928449 
L 212.413758 147.928449 
L 212.413758 144.15604 
L 212.895333 144.15604 
L 212.895333 140.38363 
L 216.23874 140.38363 
L 216.23874 136.611221 
L 219.146575 136.611221 
L 219.146575 132.838812 
L 225.791716 132.838812 
L 225.791716 129.066403 
L 228.002398 129.066403 
L 228.002398 125.293993 
L 228.141841 125.293993 
L 228.141841 121.521584 
L 251.901088 121.521584 
L 251.901088 117.749175 
L 254.568886 117.749175 
L 254.568886 113.976766 
L 255.042456 113.976766 
L 255.042456 110.204356 
L 255.332624 110.204356 
L 255.332624 106.431947 
L 255.77739 106.431947 
L 255.77739 102.659538 
L 256.149519 102.659538 
L 256.149519 98.887129 
L 256.688912 98.887129 
L 256.750263 91.34231 
L 257.228575 91.34231 
L 257.228575 87.569901 
L 257.390086 87.569901 
L 257.390086 83.797492 
L 257.96471 83.797492 
L 257.96471 80.025083 
L 258.495476 80.025083 
L 258.495476 76.252673 
L 259.784327 76.252673 
L 259.784327 72.480264 
L 259.99117 72.480264 
L 259.99117 68.707855 
L 260.537523 68.707855 
L 260.537523 64.935446 
L 274.306071 64.935446 
L 274.306071 61.163036 
L 275.403628 61.163036 
L 275.403628 57.390627 
L 278.533025 57.390627 
L 278.533025 53.618218 
L 279.589626 53.618218 
L 279.589626 49.845809 
L 279.890325 49.845809 
L 279.890325 46.073399 
L 281.518242 46.073399 
L 281.518242 42.30099 
L 282.548401 42.30099 
L 282.548401 38.528581 
L 282.976176 38.528581 
L 282.976176 34.756172 
L 283.32994 34.756172 
L 283.32994 30.983762 
L 283.565575 30.983762 
L 283.565575 27.211353 
L 285.913585 27.211353 
L 285.913585 23.438944 
L 286.946839 23.438944 
L 286.946839 19.666535 
L 287.159308 19.666535 
L 287.159308 15.894125 
L 288.593221 15.894125 
L 288.593221 12.121716 
L 292.346961 12.121716 
L 292.346961 8.349307 
L 292.346961 8.349307 
L 450.672 8.349307 
L 450.672 8.349307 
" style="fill:none;stroke:#00bfbf;stroke-linecap:square;stroke-width:1.5;"/>
   </g>
   <g id="patch_3">
    <path d="M 5.52 291.28 
L 5.52 5.52 
" style="fill:none;stroke:#000000;stroke-linecap:square;stroke-linejoin:miter;stroke-width:0.8;"/>
   </g>
   <g id="patch_4">
    <path d="M 450.672 291.28 
L 450.672 5.52 
" style="fill:none;stroke:#000000;stroke-linecap:square;stroke-linejoin:miter;stroke-width:0.8;"/>
   </g>
   <g id="patch_5">
    <path d="M 5.52 291.28 
L 450.672 291.28 
" style="fill:none;stroke:#000000;stroke-linecap:square;stroke-linejoin:miter;stroke-width:0.8;"/>
   </g>
   <g id="patch_6">
    <path d="M 5.52 5.52 
L 450.672 5.52 
" style="fill:none;stroke:#000000;stroke-linecap:square;stroke-linejoin:miter;stroke-width:0.8;"/>
   </g>
   <g id="text_6">
    <!-- {f10-f14}, 20-D -->
    <defs>
     <path d="M 51.125 -9.28125 
L 51.125 -16.3125 
L 48.09375 -16.3125 
Q 35.9375 -16.3125 31.8125 -12.6875 
Q 27.6875 -9.078125 27.6875 1.703125 
L 27.6875 13.375 
Q 27.6875 20.75 25.046875 23.578125 
Q 22.40625 26.421875 15.484375 26.421875 
L 12.5 26.421875 
L 12.5 33.40625 
L 15.484375 33.40625 
Q 22.46875 33.40625 25.078125 36.203125 
Q 27.6875 39.015625 27.6875 46.296875 
L 27.6875 58.015625 
Q 27.6875 68.796875 31.8125 72.390625 
Q 35.9375 75.984375 48.09375 75.984375 
L 51.125 75.984375 
L 51.125 69 
L 47.796875 69 
Q 40.921875 69 38.8125 66.84375 
Q 36.71875 64.703125 36.71875 57.8125 
L 36.71875 45.703125 
Q 36.71875 38.03125 34.5 34.5625 
Q 32.28125 31.109375 26.90625 29.890625 
Q 32.328125 28.5625 34.515625 25.09375 
Q 36.71875 21.625 36.71875 14.015625 
L 36.71875 1.90625 
Q 36.71875 -4.984375 38.8125 -7.125 
Q 40.921875 -9.28125 47.796875 -9.28125 
z
" id="DejaVuSans-7b"/>
     <path d="M 12.5 -9.28125 
L 15.921875 -9.28125 
Q 22.75 -9.28125 24.828125 -7.171875 
Q 26.90625 -5.078125 26.90625 1.90625 
L 26.90625 14.015625 
Q 26.90625 21.625 29.09375 25.09375 
Q 31.296875 28.5625 36.71875 29.890625 
Q 31.296875 31.109375 29.09375 34.5625 
Q 26.90625 38.03125 26.90625 45.703125 
L 26.90625 57.8125 
Q 26.90625 64.75 24.828125 66.875 
Q 22.75 69 15.921875 69 
L 12.5 69 
L 12.5 75.984375 
L 15.578125 75.984375 
Q 27.734375 75.984375 31.8125 72.390625 
Q 35.890625 68.796875 35.890625 58.015625 
L 35.890625 46.296875 
Q 35.890625 39.015625 38.515625 36.203125 
Q 41.15625 33.40625 48.09375 33.40625 
L 51.125 33.40625 
L 51.125 26.421875 
L 48.09375 26.421875 
Q 41.15625 26.421875 38.515625 23.578125 
Q 35.890625 20.75 35.890625 13.375 
L 35.890625 1.703125 
Q 35.890625 -9.078125 31.8125 -12.6875 
Q 27.734375 -16.3125 15.578125 -16.3125 
L 12.5 -16.3125 
z
" id="DejaVuSans-7d"/>
     <path d="M 11.71875 12.40625 
L 22.015625 12.40625 
L 22.015625 4 
L 14.015625 -11.625 
L 7.71875 -11.625 
L 11.71875 4 
z
" id="DejaVuSans-2c"/>
     <path d="M 19.1875 8.296875 
L 53.609375 8.296875 
L 53.609375 0 
L 7.328125 0 
L 7.328125 8.296875 
Q 12.9375 14.109375 22.625 23.890625 
Q 32.328125 33.6875 34.8125 36.53125 
Q 39.546875 41.84375 41.421875 45.53125 
Q 43.3125 49.21875 43.3125 52.78125 
Q 43.3125 58.59375 39.234375 62.25 
Q 35.15625 65.921875 28.609375 65.921875 
Q 23.96875 65.921875 18.8125 64.3125 
Q 13.671875 62.703125 7.8125 59.421875 
L 7.8125 69.390625 
Q 13.765625 71.78125 18.9375 73 
Q 24.125 74.21875 28.421875 74.21875 
Q 39.75 74.21875 46.484375 68.546875 
Q 53.21875 62.890625 53.21875 53.421875 
Q 53.21875 48.921875 51.53125 44.890625 
Q 49.859375 40.875 45.40625 35.40625 
Q 44.1875 33.984375 37.640625 27.21875 
Q 31.109375 20.453125 19.1875 8.296875 
z
" id="DejaVuSans-32"/>
    </defs>
    <g transform="translate(283.34396 285.5648)scale(0.2 -0.2)">
     <use xlink:href="#DejaVuSans-7b"/>
     <use x="63.623047" xlink:href="#DejaVuSans-66"/>
     <use x="98.828125" xlink:href="#DejaVuSans-31"/>
     <use x="162.451172" xlink:href="#DejaVuSans-30"/>
     <use x="226.074219" xlink:href="#DejaVuSans-2d"/>
     <use x="262.158203" xlink:href="#DejaVuSans-66"/>
     <use x="297.363281" xlink:href="#DejaVuSans-31"/>
     <use x="360.986328" xlink:href="#DejaVuSans-34"/>
     <use x="424.609375" xlink:href="#DejaVuSans-7d"/>
     <use x="488.232422" xlink:href="#DejaVuSans-2c"/>
     <use x="520.019531" xlink:href="#DejaVuSans-20"/>
     <use x="551.806641" xlink:href="#DejaVuSans-32"/>
     <use x="615.429688" xlink:href="#DejaVuSans-30"/>
     <use x="679.052734" xlink:href="#DejaVuSans-2d"/>
     <use x="715.136719" xlink:href="#DejaVuSans-44"/>
    </g>
   </g>
   <g id="text_7">
    <!-- v0.0.0 -->
    <defs>
     <path d="M 2.984375 54.6875 
L 12.5 54.6875 
L 29.59375 8.796875 
L 46.6875 54.6875 
L 56.203125 54.6875 
L 35.6875 0 
L 23.484375 0 
z
" id="DejaVuSans-76"/>
     <path d="M 10.6875 12.40625 
L 21 12.40625 
L 21 0 
L 10.6875 0 
z
" id="DejaVuSans-2e"/>
    </defs>
    <g style="fill:#808080;" transform="translate(212.41475 286.342713)scale(0.1 -0.1)">
     <use xlink:href="#DejaVuSans-76"/>
     <use x="59.179688" xlink:href="#DejaVuSans-30"/>
     <use x="122.802734" xlink:href="#DejaVuSans-2e"/>
     <use x="154.589844" xlink:href="#DejaVuSans-30"/>
     <use x="218.212891" xlink:href="#DejaVuSans-2e"/>
     <use x="250" xlink:href="#DejaVuSans-30"/>
    </g>
   </g>
  </g>
 </g>
 <defs>
  <clipPath id="pcebfdda649">
   <rect height="285.76" width="445.152" x="5.52" y="5.52"/>
  </clipPath>
 </defs>
</svg>
