<?xml version="1.0" encoding="utf-8" standalone="no"?>
<!DOCTYPE svg PUBLIC "-//W3C//DTD SVG 1.1//EN"
  "http://www.w3.org/Graphics/SVG/1.1/DTD/svg11.dtd">
<!-- Created with matplotlib (http://matplotlib.org/) -->
<svg height="345.6pt" version="1.1" viewBox="0 0 460.8 345.6" width="460.8pt" xmlns="http://www.w3.org/2000/svg" xmlns:xlink="http://www.w3.org/1999/xlink">
 <defs>
  <style type="text/css">
*{stroke-linecap:butt;stroke-linejoin:round;}
  </style>
 </defs>
 <g id="figure_1">
  <g id="patch_1">
   <path d="M 0 345.6 
L 460.8 345.6 
L 460.8 0 
L 0 0 
z
" style="fill:#ffffff;"/>
  </g>
  <g id="axes_1">
   <g id="patch_2">
    <path d="M 5.52 291.28 
L 450.672 291.28 
L 450.672 5.52 
L 5.52 5.52 
z
" style="fill:#ffffff;"/>
   </g>
   <g id="matplotlib.axis_1">
    <g id="xtick_1">
     <g id="line2d_1">
      <path clip-path="url(#pf5a2fb4101)" d="M 5.410562 291.28 
L 5.410562 5.52 
" style="fill:none;stroke:#b0b0b0;stroke-linecap:square;stroke-width:0.8;"/>
     </g>
     <g id="line2d_2">
      <defs>
       <path d="M 0 0 
L 0 3.5 
" id="m3d3f628b33" style="stroke:#000000;stroke-width:0.8;"/>
      </defs>
      <g>
       <use style="stroke:#000000;stroke-width:0.8;" x="5.410562" xlink:href="#m3d3f628b33" y="291.28"/>
      </g>
     </g>
    </g>
    <g id="xtick_2">
     <g id="line2d_3">
      <path clip-path="url(#pf5a2fb4101)" d="M 106.710074 291.28 
L 106.710074 5.52 
" style="fill:none;stroke:#b0b0b0;stroke-linecap:square;stroke-width:0.8;"/>
     </g>
     <g id="line2d_4">
      <g>
       <use style="stroke:#000000;stroke-width:0.8;" x="106.710074" xlink:href="#m3d3f628b33" y="291.28"/>
      </g>
     </g>
     <g id="text_1">
      <!-- -4 -->
      <defs>
       <path d="M 4.890625 31.390625 
L 31.203125 31.390625 
L 31.203125 23.390625 
L 4.890625 23.390625 
z
" id="DejaVuSans-2d"/>
       <path d="M 37.796875 64.3125 
L 12.890625 25.390625 
L 37.796875 25.390625 
z
M 35.203125 72.90625 
L 47.609375 72.90625 
L 47.609375 25.390625 
L 58.015625 25.390625 
L 58.015625 17.1875 
L 47.609375 17.1875 
L 47.609375 0 
L 37.796875 0 
L 37.796875 17.1875 
L 4.890625 17.1875 
L 4.890625 26.703125 
z
" id="DejaVuSans-34"/>
      </defs>
      <g transform="translate(96.739762 313.476875)scale(0.2 -0.2)">
       <use xlink:href="#DejaVuSans-2d"/>
       <use x="36.083984" xlink:href="#DejaVuSans-34"/>
      </g>
     </g>
    </g>
    <g id="xtick_3">
     <g id="line2d_5">
      <path clip-path="url(#pf5a2fb4101)" d="M 208.009586 291.28 
L 208.009586 5.52 
" style="fill:none;stroke:#b0b0b0;stroke-linecap:square;stroke-width:0.8;"/>
     </g>
     <g id="line2d_6">
      <g>
       <use style="stroke:#000000;stroke-width:0.8;" x="208.009586" xlink:href="#m3d3f628b33" y="291.28"/>
      </g>
     </g>
     <g id="text_2">
      <!-- 0 -->
      <defs>
       <path d="M 31.78125 66.40625 
Q 24.171875 66.40625 20.328125 58.90625 
Q 16.5 51.421875 16.5 36.375 
Q 16.5 21.390625 20.328125 13.890625 
Q 24.171875 6.390625 31.78125 6.390625 
Q 39.453125 6.390625 43.28125 13.890625 
Q 47.125 21.390625 47.125 36.375 
Q 47.125 51.421875 43.28125 58.90625 
Q 39.453125 66.40625 31.78125 66.40625 
z
M 31.78125 74.21875 
Q 44.046875 74.21875 50.515625 64.515625 
Q 56.984375 54.828125 56.984375 36.375 
Q 56.984375 17.96875 50.515625 8.265625 
Q 44.046875 -1.421875 31.78125 -1.421875 
Q 19.53125 -1.421875 13.0625 8.265625 
Q 6.59375 17.96875 6.59375 36.375 
Q 6.59375 54.828125 13.0625 64.515625 
Q 19.53125 74.21875 31.78125 74.21875 
z
" id="DejaVuSans-30"/>
      </defs>
      <g transform="translate(201.647086 313.476875)scale(0.2 -0.2)">
       <use xlink:href="#DejaVuSans-30"/>
      </g>
     </g>
    </g>
    <g id="xtick_4">
     <g id="line2d_7">
      <path clip-path="url(#pf5a2fb4101)" d="M 309.309099 291.28 
L 309.309099 5.52 
" style="fill:none;stroke:#b0b0b0;stroke-linecap:square;stroke-width:0.8;"/>
     </g>
     <g id="line2d_8">
      <g>
       <use style="stroke:#000000;stroke-width:0.8;" x="309.309099" xlink:href="#m3d3f628b33" y="291.28"/>
      </g>
     </g>
     <g id="text_3">
      <!-- 4 -->
      <g transform="translate(302.946599 313.476875)scale(0.2 -0.2)">
       <use xlink:href="#DejaVuSans-34"/>
      </g>
     </g>
    </g>
    <g id="xtick_5">
     <g id="line2d_9">
      <path clip-path="url(#pf5a2fb4101)" d="M 410.608611 291.28 
L 410.608611 5.52 
" style="fill:none;stroke:#b0b0b0;stroke-linecap:square;stroke-width:0.8;"/>
     </g>
     <g id="line2d_10">
      <g>
       <use style="stroke:#000000;stroke-width:0.8;" x="410.608611" xlink:href="#m3d3f628b33" y="291.28"/>
      </g>
     </g>
     <g id="text_4">
      <!-- 8 -->
      <defs>
       <path d="M 31.78125 34.625 
Q 24.75 34.625 20.71875 30.859375 
Q 16.703125 27.09375 16.703125 20.515625 
Q 16.703125 13.921875 20.71875 10.15625 
Q 24.75 6.390625 31.78125 6.390625 
Q 38.8125 6.390625 42.859375 10.171875 
Q 46.921875 13.96875 46.921875 20.515625 
Q 46.921875 27.09375 42.890625 30.859375 
Q 38.875 34.625 31.78125 34.625 
z
M 21.921875 38.8125 
Q 15.578125 40.375 12.03125 44.71875 
Q 8.5 49.078125 8.5 55.328125 
Q 8.5 64.0625 14.71875 69.140625 
Q 20.953125 74.21875 31.78125 74.21875 
Q 42.671875 74.21875 48.875 69.140625 
Q 55.078125 64.0625 55.078125 55.328125 
Q 55.078125 49.078125 51.53125 44.71875 
Q 48 40.375 41.703125 38.8125 
Q 48.828125 37.15625 52.796875 32.3125 
Q 56.78125 27.484375 56.78125 20.515625 
Q 56.78125 9.90625 50.3125 4.234375 
Q 43.84375 -1.421875 31.78125 -1.421875 
Q 19.734375 -1.421875 13.25 4.234375 
Q 6.78125 9.90625 6.78125 20.515625 
Q 6.78125 27.484375 10.78125 32.3125 
Q 14.796875 37.15625 21.921875 38.8125 
z
M 18.3125 54.390625 
Q 18.3125 48.734375 21.84375 45.5625 
Q 25.390625 42.390625 31.78125 42.390625 
Q 38.140625 42.390625 41.71875 45.5625 
Q 45.3125 48.734375 45.3125 54.390625 
Q 45.3125 60.0625 41.71875 63.234375 
Q 38.140625 66.40625 31.78125 66.40625 
Q 25.390625 66.40625 21.84375 63.234375 
Q 18.3125 60.0625 18.3125 54.390625 
z
" id="DejaVuSans-38"/>
      </defs>
      <g transform="translate(404.246111 313.476875)scale(0.2 -0.2)">
       <use xlink:href="#DejaVuSans-38"/>
      </g>
     </g>
    </g>
    <g id="text_5">
     <!-- log10 of Df -->
     <defs>
      <path d="M 9.421875 75.984375 
L 18.40625 75.984375 
L 18.40625 0 
L 9.421875 0 
z
" id="DejaVuSans-6c"/>
      <path d="M 30.609375 48.390625 
Q 23.390625 48.390625 19.1875 42.75 
Q 14.984375 37.109375 14.984375 27.296875 
Q 14.984375 17.484375 19.15625 11.84375 
Q 23.34375 6.203125 30.609375 6.203125 
Q 37.796875 6.203125 41.984375 11.859375 
Q 46.1875 17.53125 46.1875 27.296875 
Q 46.1875 37.015625 41.984375 42.703125 
Q 37.796875 48.390625 30.609375 48.390625 
z
M 30.609375 56 
Q 42.328125 56 49.015625 48.375 
Q 55.71875 40.765625 55.71875 27.296875 
Q 55.71875 13.875 49.015625 6.21875 
Q 42.328125 -1.421875 30.609375 -1.421875 
Q 18.84375 -1.421875 12.171875 6.21875 
Q 5.515625 13.875 5.515625 27.296875 
Q 5.515625 40.765625 12.171875 48.375 
Q 18.84375 56 30.609375 56 
z
" id="DejaVuSans-6f"/>
      <path d="M 45.40625 27.984375 
Q 45.40625 37.75 41.375 43.109375 
Q 37.359375 48.484375 30.078125 48.484375 
Q 22.859375 48.484375 18.828125 43.109375 
Q 14.796875 37.75 14.796875 27.984375 
Q 14.796875 18.265625 18.828125 12.890625 
Q 22.859375 7.515625 30.078125 7.515625 
Q 37.359375 7.515625 41.375 12.890625 
Q 45.40625 18.265625 45.40625 27.984375 
z
M 54.390625 6.78125 
Q 54.390625 -7.171875 48.1875 -13.984375 
Q 42 -20.796875 29.203125 -20.796875 
Q 24.46875 -20.796875 20.265625 -20.09375 
Q 16.0625 -19.390625 12.109375 -17.921875 
L 12.109375 -9.1875 
Q 16.0625 -11.328125 19.921875 -12.34375 
Q 23.78125 -13.375 27.78125 -13.375 
Q 36.625 -13.375 41.015625 -8.765625 
Q 45.40625 -4.15625 45.40625 5.171875 
L 45.40625 9.625 
Q 42.625 4.78125 38.28125 2.390625 
Q 33.9375 0 27.875 0 
Q 17.828125 0 11.671875 7.65625 
Q 5.515625 15.328125 5.515625 27.984375 
Q 5.515625 40.671875 11.671875 48.328125 
Q 17.828125 56 27.875 56 
Q 33.9375 56 38.28125 53.609375 
Q 42.625 51.21875 45.40625 46.390625 
L 45.40625 54.6875 
L 54.390625 54.6875 
z
" id="DejaVuSans-67"/>
      <path d="M 12.40625 8.296875 
L 28.515625 8.296875 
L 28.515625 63.921875 
L 10.984375 60.40625 
L 10.984375 69.390625 
L 28.421875 72.90625 
L 38.28125 72.90625 
L 38.28125 8.296875 
L 54.390625 8.296875 
L 54.390625 0 
L 12.40625 0 
z
" id="DejaVuSans-31"/>
      <path id="DejaVuSans-20"/>
      <path d="M 37.109375 75.984375 
L 37.109375 68.5 
L 28.515625 68.5 
Q 23.6875 68.5 21.796875 66.546875 
Q 19.921875 64.59375 19.921875 59.515625 
L 19.921875 54.6875 
L 34.71875 54.6875 
L 34.71875 47.703125 
L 19.921875 47.703125 
L 19.921875 0 
L 10.890625 0 
L 10.890625 47.703125 
L 2.296875 47.703125 
L 2.296875 54.6875 
L 10.890625 54.6875 
L 10.890625 58.5 
Q 10.890625 67.625 15.140625 71.796875 
Q 19.390625 75.984375 28.609375 75.984375 
z
" id="DejaVuSans-66"/>
      <path d="M 19.671875 64.796875 
L 19.671875 8.109375 
L 31.59375 8.109375 
Q 46.6875 8.109375 53.6875 14.9375 
Q 60.6875 21.78125 60.6875 36.53125 
Q 60.6875 51.171875 53.6875 57.984375 
Q 46.6875 64.796875 31.59375 64.796875 
z
M 9.8125 72.90625 
L 30.078125 72.90625 
Q 51.265625 72.90625 61.171875 64.09375 
Q 71.09375 55.28125 71.09375 36.53125 
Q 71.09375 17.671875 61.125 8.828125 
Q 51.171875 0 30.078125 0 
L 9.8125 0 
z
" id="DejaVuSans-44"/>
     </defs>
     <g transform="translate(172.910063 336.833125)scale(0.2 -0.2)">
      <use xlink:href="#DejaVuSans-6c"/>
      <use x="27.783203" xlink:href="#DejaVuSans-6f"/>
      <use x="88.964844" xlink:href="#DejaVuSans-67"/>
      <use x="152.441406" xlink:href="#DejaVuSans-31"/>
      <use x="216.064453" xlink:href="#DejaVuSans-30"/>
      <use x="279.6875" xlink:href="#DejaVuSans-20"/>
      <use x="311.474609" xlink:href="#DejaVuSans-6f"/>
      <use x="372.65625" xlink:href="#DejaVuSans-66"/>
      <use x="407.861328" xlink:href="#DejaVuSans-20"/>
      <use x="439.648438" xlink:href="#DejaVuSans-44"/>
      <use x="516.650391" xlink:href="#DejaVuSans-66"/>
     </g>
    </g>
   </g>
   <g id="matplotlib.axis_2">
    <g id="ytick_1">
     <g id="line2d_11">
      <path clip-path="url(#pf5a2fb4101)" d="M 5.52 291.28 
L 450.672 291.28 
" style="fill:none;stroke:#b0b0b0;stroke-linecap:square;stroke-width:0.8;"/>
     </g>
     <g id="line2d_12">
      <defs>
       <path d="M 0 0 
L -3.5 0 
" id="m00e79fc572" style="stroke:#000000;stroke-width:0.8;"/>
      </defs>
      <g>
       <use style="stroke:#000000;stroke-width:0.8;" x="5.52" xlink:href="#m00e79fc572" y="291.28"/>
      </g>
     </g>
    </g>
    <g id="ytick_2">
     <g id="line2d_13">
      <path clip-path="url(#pf5a2fb4101)" d="M 5.52 234.693861 
L 450.672 234.693861 
" style="fill:none;stroke:#b0b0b0;stroke-linecap:square;stroke-width:0.8;"/>
     </g>
     <g id="line2d_14">
      <g>
       <use style="stroke:#000000;stroke-width:0.8;" x="5.52" xlink:href="#m00e79fc572" y="234.693861"/>
      </g>
     </g>
    </g>
    <g id="ytick_3">
     <g id="line2d_15">
      <path clip-path="url(#pf5a2fb4101)" d="M 5.52 178.107723 
L 450.672 178.107723 
" style="fill:none;stroke:#b0b0b0;stroke-linecap:square;stroke-width:0.8;"/>
     </g>
     <g id="line2d_16">
      <g>
       <use style="stroke:#000000;stroke-width:0.8;" x="5.52" xlink:href="#m00e79fc572" y="178.107723"/>
      </g>
     </g>
    </g>
    <g id="ytick_4">
     <g id="line2d_17">
      <path clip-path="url(#pf5a2fb4101)" d="M 5.52 121.521584 
L 450.672 121.521584 
" style="fill:none;stroke:#b0b0b0;stroke-linecap:square;stroke-width:0.8;"/>
     </g>
     <g id="line2d_18">
      <g>
       <use style="stroke:#000000;stroke-width:0.8;" x="5.52" xlink:href="#m00e79fc572" y="121.521584"/>
      </g>
     </g>
    </g>
    <g id="ytick_5">
     <g id="line2d_19">
      <path clip-path="url(#pf5a2fb4101)" d="M 5.52 64.935446 
L 450.672 64.935446 
" style="fill:none;stroke:#b0b0b0;stroke-linecap:square;stroke-width:0.8;"/>
     </g>
     <g id="line2d_20">
      <g>
       <use style="stroke:#000000;stroke-width:0.8;" x="5.52" xlink:href="#m00e79fc572" y="64.935446"/>
      </g>
     </g>
    </g>
    <g id="ytick_6">
     <g id="line2d_21">
      <path clip-path="url(#pf5a2fb4101)" d="M 5.52 8.349307 
L 450.672 8.349307 
" style="fill:none;stroke:#b0b0b0;stroke-linecap:square;stroke-width:0.8;"/>
     </g>
     <g id="line2d_22">
      <g>
       <use style="stroke:#000000;stroke-width:0.8;" x="5.52" xlink:href="#m00e79fc572" y="8.349307"/>
      </g>
     </g>
    </g>
   </g>
   <g id="line2d_23">
    <path clip-path="url(#pf5a2fb4101)" d="M 72.876474 291.28 
L 72.876474 287.507591 
L 81.293885 287.507591 
L 81.293885 283.735182 
L 81.54027 283.735182 
L 81.54027 279.962772 
L 82.319731 279.962772 
L 82.319731 276.190363 
L 86.547431 276.190363 
L 86.547431 272.417954 
L 88.999782 272.417954 
L 88.999782 268.645545 
L 90.252242 268.645545 
L 90.252242 264.873135 
L 91.956308 264.873135 
L 92.064269 257.328317 
L 92.26756 257.328317 
L 92.26756 253.555908 
L 92.395317 253.555908 
L 92.395317 249.783498 
L 93.186948 249.783498 
L 93.240297 242.23868 
L 93.298401 242.23868 
L 93.298401 238.466271 
L 93.426989 238.466271 
L 93.426989 234.693861 
L 117.248169 234.693861 
L 117.248169 230.921452 
L 147.797579 230.921452 
L 147.797579 227.149043 
L 150.492862 227.149043 
L 150.492862 223.376634 
L 155.944804 223.376634 
L 155.944804 219.604224 
L 176.731149 219.604224 
L 176.731149 215.831815 
L 177.733045 215.831815 
L 177.733045 212.059406 
L 179.497678 212.059406 
L 179.497678 208.286997 
L 180.520355 208.286997 
L 180.520355 204.514587 
L 181.015572 204.514587 
L 181.015572 200.742178 
L 182.830062 200.742178 
L 182.830062 196.969769 
L 188.883607 196.969769 
L 188.883607 193.19736 
L 189.450429 193.19736 
L 189.450429 189.42495 
L 191.196885 189.42495 
L 191.196885 185.652541 
L 191.799927 185.652541 
L 191.799927 181.880132 
L 195.902679 181.880132 
L 195.902679 178.107723 
L 196.436045 178.107723 
L 196.436045 174.335314 
L 198.077974 174.335314 
L 198.077974 170.562904 
L 201.045468 170.562904 
L 201.045468 166.790495 
L 201.328362 166.790495 
L 201.328362 163.018086 
L 204.207795 163.018086 
L 204.207795 159.245677 
L 205.382555 159.245677 
L 205.382555 155.473267 
L 209.043475 155.473267 
L 209.043475 151.700858 
L 210.391623 151.700858 
L 210.391623 147.928449 
L 213.159488 147.928449 
L 213.159488 144.15604 
L 219.93644 144.15604 
L 219.93644 140.38363 
L 220.112045 140.38363 
L 220.112045 136.611221 
L 220.858093 136.611221 
L 220.879212 129.066403 
L 223.642893 129.066403 
L 223.642893 125.293993 
L 224.281848 125.293993 
L 224.281848 121.521584 
L 226.578868 121.521584 
L 226.578868 117.749175 
L 228.108557 117.749175 
L 228.108557 113.976766 
L 229.067188 113.976766 
L 229.067188 110.204356 
L 229.243829 110.204356 
L 229.243829 106.431947 
L 232.279717 106.431947 
L 232.279717 102.659538 
L 232.769149 102.659538 
L 232.769149 98.887129 
L 233.057338 98.887129 
L 233.057338 95.114719 
L 235.263292 95.114719 
L 235.263292 91.34231 
L 235.747992 91.34231 
L 235.813984 83.797492 
L 236.025312 83.797492 
L 236.025312 80.025083 
L 236.219489 80.025083 
L 236.219489 76.252673 
L 237.003627 76.252673 
L 237.003627 72.480264 
L 237.307937 72.480264 
L 237.307937 68.707855 
L 238.249114 68.707855 
L 238.249114 64.935446 
L 239.270097 64.935446 
L 239.270097 61.163036 
L 239.731148 61.163036 
L 239.731148 57.390627 
L 240.516422 57.390627 
L 240.516422 53.618218 
L 241.732183 53.618218 
L 241.732183 49.845809 
L 242.444121 49.845809 
L 242.444121 46.073399 
L 242.595324 46.073399 
L 242.595324 42.30099 
L 243.288758 42.30099 
L 243.288758 38.528581 
L 243.438465 38.528581 
L 243.438465 34.756172 
L 243.898339 34.756172 
L 243.898339 30.983762 
L 244.558977 30.983762 
L 244.558977 27.211353 
L 245.433145 27.211353 
L 245.433145 23.438944 
L 247.438497 23.438944 
L 247.438497 19.666535 
L 247.665528 19.666535 
L 247.665528 15.894125 
L 248.15911 15.894125 
L 248.15911 12.121716 
L 252.275335 12.121716 
L 252.275335 8.349307 
L 252.275335 8.349307 
L 450.672 8.349307 
L 450.672 8.349307 
" style="fill:none;stroke:#ff0000;stroke-linecap:square;stroke-width:3;"/>
   </g>
   <g id="line2d_24">
    <path clip-path="url(#pf5a2fb4101)" d="M 213.569315 291.28 
L 213.569315 287.507591 
L 221.23326 287.507591 
L 221.23326 283.735182 
L 222.564345 283.735182 
L 222.564345 279.962772 
L 224.897486 279.962772 
L 224.897486 276.190363 
L 227.863546 276.190363 
L 227.863546 272.417954 
L 228.185369 272.417954 
L 228.185369 268.645545 
L 236.856748 268.645545 
L 236.856748 264.873135 
L 237.907076 264.873135 
L 237.907076 261.100726 
L 241.626696 261.100726 
L 241.626696 257.328317 
L 242.640563 257.328317 
L 242.640563 253.555908 
L 244.24283 253.555908 
L 244.24283 249.783498 
L 246.32411 249.783498 
L 246.32411 246.011089 
L 250.847589 246.011089 
L 250.881215 238.466271 
L 262.936389 238.466271 
L 262.936389 234.693861 
L 274.357209 234.693861 
L 274.357209 230.921452 
L 274.56176 230.921452 
L 274.56176 227.149043 
L 278.540832 227.149043 
L 278.540832 223.376634 
L 279.069302 223.376634 
L 279.069302 219.604224 
L 279.289414 219.604224 
L 279.289414 215.831815 
L 279.840574 215.831815 
L 279.840574 212.059406 
L 280.325496 212.059406 
L 280.325496 208.286997 
L 280.483543 208.286997 
L 280.483543 204.514587 
L 283.357917 204.514587 
L 283.357917 200.742178 
L 283.610174 200.742178 
L 283.610174 196.969769 
L 284.166341 196.969769 
L 284.166341 193.19736 
L 286.358883 193.19736 
L 286.358883 189.42495 
L 287.606592 189.42495 
L 287.606592 185.652541 
L 292.185494 185.652541 
L 292.294663 178.107723 
L 325.42905 178.107723 
L 325.42905 174.335314 
L 327.357811 174.335314 
L 327.357811 170.562904 
L 330.77496 170.562904 
L 330.77496 166.790495 
L 333.084375 166.790495 
L 333.084375 163.018086 
L 333.395708 163.018086 
L 333.395708 159.245677 
L 339.132687 159.245677 
L 339.132687 155.473267 
L 344.382002 155.473267 
L 344.382002 151.700858 
L 345.807043 151.700858 
L 345.807043 147.928449 
L 346.885568 147.928449 
L 346.885568 144.15604 
L 353.774639 144.15604 
L 353.774639 140.38363 
L 354.125851 140.38363 
L 354.125851 136.611221 
L 363.273673 136.611221 
L 363.273673 132.838812 
L 364.348946 132.838812 
L 364.348946 129.066403 
L 365.051176 129.066403 
L 365.051176 125.293993 
L 366.068703 125.293993 
L 366.068703 121.521584 
L 366.642749 121.521584 
L 366.642749 117.749175 
L 371.516976 117.749175 
L 371.516976 113.976766 
L 372.883253 113.976766 
L 372.883253 110.204356 
L 373.020098 110.204356 
L 373.020098 106.431947 
L 376.386116 106.431947 
L 376.386116 102.659538 
L 377.785101 102.659538 
L 377.785101 98.887129 
L 378.911305 98.887129 
L 379.002004 91.34231 
L 380.967499 91.34231 
L 380.967499 87.569901 
L 381.913152 87.569901 
L 381.913152 83.797492 
L 382.39713 83.797492 
L 382.39713 80.025083 
L 383.632477 80.025083 
L 383.632477 76.252673 
L 384.890961 76.252673 
L 384.890961 72.480264 
L 385.535635 72.480264 
L 385.535635 68.707855 
L 386.345116 68.707855 
L 386.345116 64.935446 
L 387.177847 64.935446 
L 387.177847 61.163036 
L 387.704549 61.163036 
L 387.704549 57.390627 
L 393.30437 57.390627 
L 393.30437 53.618218 
L 393.828564 53.618218 
L 393.843959 46.073399 
L 395.907872 46.073399 
L 395.907872 42.30099 
L 398.744572 42.30099 
L 398.744572 38.528581 
L 399.767356 38.528581 
L 399.767356 34.756172 
L 400.811826 34.756172 
L 400.811826 30.983762 
L 401.896973 30.983762 
L 401.896973 27.211353 
L 402.233252 27.211353 
L 402.233252 23.438944 
L 408.016425 23.438944 
L 408.016425 19.666535 
L 415.908946 19.666535 
L 415.908946 15.894125 
L 416.240754 15.894125 
L 416.240754 12.121716 
L 420.602316 12.121716 
L 420.602316 8.349307 
L 420.602316 8.349307 
L 450.672 8.349307 
L 450.672 8.349307 
" style="fill:none;stroke:#00bfbf;stroke-linecap:square;stroke-width:1.5;"/>
   </g>
   <g id="line2d_25">
    <path clip-path="url(#pf5a2fb4101)" d="M 213.569315 291.28 
L 213.569315 287.507591 
L 221.23326 287.507591 
L 221.23326 283.735182 
L 221.946291 283.735182 
L 221.946291 279.962772 
L 222.564345 279.962772 
L 222.564345 276.190363 
L 224.897486 276.190363 
L 224.897486 272.417954 
L 227.863546 272.417954 
L 227.863546 268.645545 
L 233.078212 268.645545 
L 233.078212 264.873135 
L 236.856748 264.873135 
L 236.856748 261.100726 
L 237.907076 261.100726 
L 237.907076 257.328317 
L 238.699267 257.328317 
L 238.699267 253.555908 
L 240.071083 253.555908 
L 240.071083 249.783498 
L 241.097131 249.783498 
L 241.097131 246.011089 
L 241.835807 246.011089 
L 241.835807 242.23868 
L 242.165307 242.23868 
L 242.165307 238.466271 
L 250.881215 238.466271 
L 250.881215 234.693861 
L 273.74073 234.693861 
L 273.74073 230.921452 
L 274.479827 230.921452 
L 274.479827 227.149043 
L 275.053796 227.149043 
L 275.053796 223.376634 
L 276.202683 223.376634 
L 276.202683 219.604224 
L 277.13292 219.604224 
L 277.13292 215.831815 
L 278.279202 215.831815 
L 278.279202 212.059406 
L 279.069302 212.059406 
L 279.069302 208.286997 
L 279.289414 208.286997 
L 279.289414 204.514587 
L 280.483543 204.514587 
L 280.483543 200.742178 
L 282.298375 200.742178 
L 282.344417 193.19736 
L 284.166341 193.19736 
L 284.166341 189.42495 
L 284.795351 189.42495 
L 284.795351 185.652541 
L 285.422463 185.652541 
L 285.422463 181.880132 
L 285.777741 181.880132 
L 285.777741 178.107723 
L 291.489742 178.107723 
L 291.489742 174.335314 
L 307.714734 174.335314 
L 307.714734 170.562904 
L 314.910958 170.562904 
L 314.910958 166.790495 
L 316.046842 166.790495 
L 316.046842 163.018086 
L 319.423089 163.018086 
L 319.423089 159.245677 
L 325.42905 159.245677 
L 325.42905 155.473267 
L 328.968646 155.473267 
L 328.968646 151.700858 
L 333.084375 151.700858 
L 333.084375 147.928449 
L 333.395708 147.928449 
L 333.395708 144.15604 
L 335.327032 144.15604 
L 335.327032 140.38363 
L 344.382002 140.38363 
L 344.382002 136.611221 
L 345.648845 136.611221 
L 345.648845 132.838812 
L 345.777829 132.838812 
L 345.777829 129.066403 
L 356.504049 129.066403 
L 356.504049 125.293993 
L 357.55695 125.293993 
L 357.55695 121.521584 
L 361.049658 121.521584 
L 361.049658 117.749175 
L 363.273673 117.749175 
L 363.311585 110.204356 
L 365.051176 110.204356 
L 365.051176 106.431947 
L 365.896909 106.431947 
L 365.896909 102.659538 
L 366.068703 102.659538 
L 366.068703 98.887129 
L 366.642749 98.887129 
L 366.642749 95.114719 
L 367.181685 95.114719 
L 367.181685 91.34231 
L 369.385513 91.34231 
L 369.385513 87.569901 
L 376.589405 87.569901 
L 376.589405 83.797492 
L 377.371175 83.797492 
L 377.371175 80.025083 
L 380.032407 80.025083 
L 380.032407 76.252673 
L 380.836452 76.252673 
L 380.836452 72.480264 
L 381.716876 72.480264 
L 381.716876 68.707855 
L 381.913152 68.707855 
L 381.913152 64.935446 
L 382.39713 64.935446 
L 382.39713 61.163036 
L 382.950341 61.163036 
L 383.032876 53.618218 
L 383.632477 53.618218 
L 383.632477 49.845809 
L 386.005221 49.845809 
L 386.005221 46.073399 
L 386.345116 46.073399 
L 386.345116 42.30099 
L 390.050115 42.30099 
L 390.050115 38.528581 
L 390.954912 38.528581 
L 390.954912 34.756172 
L 393.828564 34.756172 
L 393.828564 30.983762 
L 394.474574 30.983762 
L 394.474574 27.211353 
L 397.649609 27.211353 
L 397.649609 23.438944 
L 399.557711 23.438944 
L 399.557711 19.666535 
L 405.8657 19.666535 
L 405.8657 15.894125 
L 408.809395 15.894125 
L 408.809395 12.121716 
L 415.072736 12.121716 
L 415.072736 8.349307 
L 415.072736 8.349307 
L 450.672 8.349307 
L 450.672 8.349307 
" style="fill:none;stroke:#bf00bf;stroke-linecap:square;stroke-width:1.5;"/>
   </g>
   <g id="line2d_26">
    <path clip-path="url(#pf5a2fb4101)" d="M 213.569315 291.28 
L 213.569315 287.507591 
L 220.07951 287.507591 
L 220.07951 283.735182 
L 221.23326 283.735182 
L 221.23326 279.962772 
L 221.946291 279.962772 
L 221.946291 276.190363 
L 224.897486 276.190363 
L 224.897486 272.417954 
L 225.763942 272.417954 
L 225.763942 268.645545 
L 229.154905 268.645545 
L 229.154905 264.873135 
L 233.078212 264.873135 
L 233.078212 261.100726 
L 236.036536 261.100726 
L 236.036536 257.328317 
L 236.822898 257.328317 
L 236.856748 249.783498 
L 238.699267 249.783498 
L 238.699267 246.011089 
L 240.413547 246.011089 
L 240.413547 242.23868 
L 241.097131 242.23868 
L 241.097131 238.466271 
L 247.938258 238.466271 
L 247.938258 234.693861 
L 253.124848 234.693861 
L 253.124848 230.921452 
L 270.348782 230.921452 
L 270.348782 227.149043 
L 270.585807 227.149043 
L 270.585807 223.376634 
L 272.332364 223.376634 
L 272.332364 219.604224 
L 274.479827 219.604224 
L 274.479827 215.831815 
L 275.053796 215.831815 
L 275.053796 212.059406 
L 277.849366 212.059406 
L 277.849366 208.286997 
L 278.279202 208.286997 
L 278.279202 204.514587 
L 279.069302 204.514587 
L 279.069302 200.742178 
L 279.289414 200.742178 
L 279.289414 196.969769 
L 280.082464 196.969769 
L 280.082464 193.19736 
L 281.386598 193.19736 
L 281.493663 185.652541 
L 281.967114 185.652541 
L 281.967114 181.880132 
L 282.843523 181.880132 
L 282.843523 178.107723 
L 283.655072 178.107723 
L 283.655072 174.335314 
L 284.44542 174.335314 
L 284.44542 170.562904 
L 284.795351 170.562904 
L 284.795351 166.790495 
L 284.935312 166.790495 
L 284.935312 163.018086 
L 286.435984 163.018086 
L 286.435984 159.245677 
L 296.60693 159.245677 
L 296.60693 155.473267 
L 306.925129 155.473267 
L 306.925129 151.700858 
L 314.910958 151.700858 
L 314.910958 147.928449 
L 319.423089 147.928449 
L 319.423089 144.15604 
L 325.459253 144.15604 
L 325.459253 140.38363 
L 328.968646 140.38363 
L 328.968646 136.611221 
L 330.460741 136.611221 
L 330.460741 132.838812 
L 333.084375 132.838812 
L 333.084375 129.066403 
L 335.327032 129.066403 
L 335.327032 125.293993 
L 337.68497 125.293993 
L 337.68497 121.521584 
L 345.018316 121.521584 
L 345.018316 117.749175 
L 350.786829 117.749175 
L 350.786829 113.976766 
L 353.232924 113.976766 
L 353.232924 110.204356 
L 355.615677 110.204356 
L 355.615677 106.431947 
L 356.504049 106.431947 
L 356.504049 102.659538 
L 357.970895 102.659538 
L 357.970895 98.887129 
L 361.049658 98.887129 
L 361.049658 95.114719 
L 363.311585 95.114719 
L 363.311585 91.34231 
L 365.896909 91.34231 
L 365.896909 87.569901 
L 367.181685 87.569901 
L 367.181685 83.797492 
L 369.124015 83.797492 
L 369.124015 80.025083 
L 374.187343 80.025083 
L 374.187343 76.252673 
L 377.291071 76.252673 
L 377.291071 72.480264 
L 378.071993 72.480264 
L 378.071993 68.707855 
L 378.855089 68.707855 
L 378.855089 64.935446 
L 379.150071 64.935446 
L 379.150071 61.163036 
L 379.376914 61.163036 
L 379.376914 57.390627 
L 380.892253 57.390627 
L 380.892253 53.618218 
L 381.716876 53.618218 
L 381.716876 49.845809 
L 381.913152 49.845809 
L 381.913152 46.073399 
L 383.032876 46.073399 
L 383.032876 42.30099 
L 388.619599 42.30099 
L 388.619599 38.528581 
L 390.050115 38.528581 
L 390.050115 34.756172 
L 391.931998 34.756172 
L 391.931998 30.983762 
L 393.828564 30.983762 
L 393.828564 27.211353 
L 394.474574 27.211353 
L 394.474574 23.438944 
L 394.993081 23.438944 
L 394.993081 19.666535 
L 399.651409 19.666535 
L 399.651409 15.894125 
L 408.809395 15.894125 
L 408.809395 12.121716 
L 411.810773 12.121716 
L 411.810773 8.349307 
L 411.810773 8.349307 
L 450.672 8.349307 
L 450.672 8.349307 
" style="fill:none;stroke:#000000;stroke-linecap:square;stroke-width:1.5;"/>
   </g>
   <g id="line2d_27">
    <path clip-path="url(#pf5a2fb4101)" d="M 209.602607 291.28 
L 209.602607 287.507591 
L 213.569315 287.507591 
L 213.569315 283.735182 
L 215.01891 283.735182 
L 215.01891 279.962772 
L 219.355087 279.962772 
L 219.355087 276.190363 
L 221.23326 276.190363 
L 221.23326 272.417954 
L 225.523747 272.417954 
L 225.523747 268.645545 
L 228.380419 268.645545 
L 228.380419 264.873135 
L 229.816987 264.873135 
L 229.816987 261.100726 
L 230.92404 261.100726 
L 230.92404 257.328317 
L 232.844853 257.328317 
L 232.844853 253.555908 
L 233.258768 253.555908 
L 233.258768 249.783498 
L 233.582449 249.783498 
L 233.582449 246.011089 
L 234.602367 246.011089 
L 234.602367 242.23868 
L 235.596575 242.23868 
L 235.596575 238.466271 
L 237.612105 238.466271 
L 237.612105 234.693861 
L 248.827297 234.693861 
L 248.827297 230.921452 
L 253.124848 230.921452 
L 253.124848 227.149043 
L 266.442484 227.149043 
L 266.442484 223.376634 
L 266.986767 223.376634 
L 266.986767 219.604224 
L 268.720292 219.604224 
L 268.720292 215.831815 
L 268.979943 215.831815 
L 268.979943 212.059406 
L 269.923503 212.059406 
L 269.923503 208.286997 
L 270.234756 208.286997 
L 270.234756 204.514587 
L 270.348782 204.514587 
L 270.348782 200.742178 
L 270.585807 200.742178 
L 270.585807 196.969769 
L 272.565011 196.969769 
L 272.565011 193.19736 
L 273.962464 193.19736 
L 273.962464 189.42495 
L 278.22818 189.42495 
L 278.22818 185.652541 
L 278.488803 185.652541 
L 278.488803 181.880132 
L 279.069302 181.880132 
L 279.069302 178.107723 
L 281.272681 178.107723 
L 281.272681 174.335314 
L 281.493663 174.335314 
L 281.493663 170.562904 
L 282.843523 170.562904 
L 282.843523 166.790495 
L 283.327906 166.790495 
L 283.327906 163.018086 
L 284.44542 163.018086 
L 284.44542 159.245677 
L 284.795351 159.245677 
L 284.795351 155.473267 
L 286.435984 155.473267 
L 286.435984 151.700858 
L 296.60693 151.700858 
L 296.60693 147.928449 
L 298.811224 147.928449 
L 298.811224 144.15604 
L 319.423089 144.15604 
L 319.423089 140.38363 
L 320.775666 140.38363 
L 320.775666 136.611221 
L 321.468226 136.611221 
L 321.552853 129.066403 
L 323.518774 129.066403 
L 323.518774 125.293993 
L 328.926989 125.293993 
L 328.926989 121.521584 
L 332.904602 121.521584 
L 332.904602 117.749175 
L 337.626124 117.749175 
L 337.68497 110.204356 
L 338.433805 110.204356 
L 338.433805 106.431947 
L 346.927087 106.431947 
L 346.927087 102.659538 
L 349.543669 102.659538 
L 349.543669 98.887129 
L 350.786829 98.887129 
L 350.786829 95.114719 
L 351.190234 95.114719 
L 351.190234 91.34231 
L 352.764446 91.34231 
L 352.764446 87.569901 
L 355.25656 87.569901 
L 355.25656 83.797492 
L 358.566947 83.797492 
L 358.566947 80.025083 
L 361.049658 80.025083 
L 361.049658 76.252673 
L 364.275272 76.252673 
L 364.275272 72.480264 
L 369.520869 72.480264 
L 369.520869 68.707855 
L 374.295098 68.707855 
L 374.295098 64.935446 
L 376.615264 64.935446 
L 376.615264 61.163036 
L 377.097166 61.163036 
L 377.097166 57.390627 
L 379.150071 57.390627 
L 379.150071 53.618218 
L 381.24204 53.618218 
L 381.24204 49.845809 
L 381.716876 49.845809 
L 381.716876 46.073399 
L 381.913152 46.073399 
L 381.913152 42.30099 
L 387.257694 42.30099 
L 387.257694 38.528581 
L 387.451546 38.528581 
L 387.456648 30.983762 
L 388.149004 30.983762 
L 388.149004 27.211353 
L 392.641421 27.211353 
L 392.641421 23.438944 
L 392.854029 23.438944 
L 392.854029 19.666535 
L 396.643067 19.666535 
L 396.643067 15.894125 
L 398.848352 15.894125 
L 398.848352 12.121716 
L 404.018686 12.121716 
L 404.018686 8.349307 
L 404.018686 8.349307 
L 450.672 8.349307 
L 450.672 8.349307 
" style="fill:none;stroke:#00bfbf;stroke-linecap:square;stroke-width:1.5;"/>
   </g>
   <g id="line2d_28">
    <path clip-path="url(#pf5a2fb4101)" d="M 195.606373 291.28 
L 195.606373 287.507591 
L 199.137877 287.507591 
L 199.137877 283.735182 
L 204.131199 283.735182 
L 204.131199 279.962772 
L 207.525516 279.962772 
L 207.548777 272.417954 
L 207.808677 272.417954 
L 207.808677 268.645545 
L 211.706986 268.645545 
L 211.706986 264.873135 
L 213.728147 264.873135 
L 213.728147 261.100726 
L 214.163503 261.100726 
L 214.163503 257.328317 
L 215.368083 257.328317 
L 215.41144 249.783498 
L 215.506517 249.783498 
L 215.506517 246.011089 
L 215.877239 246.011089 
L 215.877239 242.23868 
L 219.55091 242.23868 
L 219.55091 238.466271 
L 220.30336 238.466271 
L 220.30336 234.693861 
L 232.769149 234.693861 
L 232.769149 230.921452 
L 236.219489 230.921452 
L 236.219489 227.149043 
L 240.166165 227.149043 
L 240.166165 223.376634 
L 240.519944 223.376634 
L 240.519944 219.604224 
L 241.8622 219.604224 
L 241.8622 215.831815 
L 243.4637 215.831815 
L 243.4637 212.059406 
L 244.558977 212.059406 
L 244.558977 208.286997 
L 245.030975 208.286997 
L 245.030975 204.514587 
L 246.83121 204.514587 
L 246.83121 200.742178 
L 247.095823 200.742178 
L 247.095823 196.969769 
L 247.867712 196.969769 
L 247.867712 193.19736 
L 257.589556 193.19736 
L 257.589556 189.42495 
L 259.477161 189.42495 
L 259.570792 178.107723 
L 260.458642 178.107723 
L 260.458642 174.335314 
L 260.62555 174.335314 
L 260.62555 170.562904 
L 261.452271 170.562904 
L 261.452271 166.790495 
L 263.428608 166.790495 
L 263.428608 163.018086 
L 264.518234 163.018086 
L 264.518234 159.245677 
L 264.82623 159.245677 
L 264.82623 155.473267 
L 266.988225 155.473267 
L 266.988225 151.700858 
L 268.102789 151.700858 
L 268.102789 147.928449 
L 268.339652 147.928449 
L 268.339652 144.15604 
L 268.65666 144.15604 
L 268.65666 140.38363 
L 269.941231 140.38363 
L 269.941231 136.611221 
L 270.663012 136.611221 
L 270.663012 132.838812 
L 271.258363 132.838812 
L 271.258363 129.066403 
L 272.057489 129.066403 
L 272.057489 125.293993 
L 282.935232 125.293993 
L 282.935232 121.521584 
L 284.308562 121.521584 
L 284.308562 117.749175 
L 286.784669 117.749175 
L 286.784669 113.976766 
L 289.440539 113.976766 
L 289.440539 110.204356 
L 293.730876 110.204356 
L 293.730876 106.431947 
L 298.234935 106.431947 
L 298.234935 102.659538 
L 301.738642 102.659538 
L 301.738642 98.887129 
L 305.368399 98.887129 
L 305.368399 95.114719 
L 306.384844 95.114719 
L 306.384844 91.34231 
L 307.366989 91.34231 
L 307.366989 87.569901 
L 308.572788 87.569901 
L 308.585296 80.025083 
L 308.933698 80.025083 
L 308.933698 76.252673 
L 317.037152 76.252673 
L 317.037152 72.480264 
L 317.550366 72.480264 
L 317.550366 68.707855 
L 326.155493 68.707855 
L 326.155493 64.935446 
L 332.394075 64.935446 
L 332.394075 61.163036 
L 345.821746 61.163036 
L 345.821746 57.390627 
L 348.003265 57.390627 
L 348.003265 53.618218 
L 348.726381 53.618218 
L 348.726381 49.845809 
L 351.473588 49.845809 
L 351.473588 46.073399 
L 352.764446 46.073399 
L 352.764446 42.30099 
L 358.375864 42.30099 
L 358.375864 38.528581 
L 358.780317 38.528581 
L 358.780317 34.756172 
L 360.120926 34.756172 
L 360.120926 30.983762 
L 360.532281 30.983762 
L 360.532281 27.211353 
L 362.27496 27.211353 
L 362.302951 19.666535 
L 362.885071 19.666535 
L 362.885071 15.894125 
L 363.76074 15.894125 
L 363.76074 12.121716 
L 364.617379 12.121716 
L 364.617379 8.349307 
L 364.617379 8.349307 
L 450.672 8.349307 
L 450.672 8.349307 
" style="fill:none;stroke:#bf00bf;stroke-linecap:square;stroke-width:1.5;"/>
   </g>
   <g id="line2d_29">
    <path clip-path="url(#pf5a2fb4101)" d="M 136.873029 291.28 
L 136.873029 287.507591 
L 137.48067 287.507591 
L 137.48067 283.735182 
L 137.717932 283.735182 
L 137.717932 279.962772 
L 139.750837 279.962772 
L 139.750837 276.190363 
L 141.813643 276.190363 
L 141.813643 272.417954 
L 142.537199 272.417954 
L 142.537199 268.645545 
L 143.795512 268.645545 
L 143.795512 264.873135 
L 145.850646 264.873135 
L 145.94628 257.328317 
L 147.700867 257.328317 
L 147.700867 253.555908 
L 150.057691 253.555908 
L 150.057691 249.783498 
L 150.827704 249.783498 
L 150.827704 246.011089 
L 157.14976 246.011089 
L 157.14976 242.23868 
L 162.09613 242.23868 
L 162.09613 238.466271 
L 166.186124 238.466271 
L 166.186124 234.693861 
L 214.309251 234.693861 
L 214.309251 230.921452 
L 215.316285 230.921452 
L 215.316285 227.149043 
L 223.697978 227.149043 
L 223.740206 219.604224 
L 226.169676 219.604224 
L 226.169676 215.831815 
L 227.347132 215.831815 
L 227.347132 212.059406 
L 227.941619 212.059406 
L 227.941619 208.286997 
L 228.104849 208.286997 
L 228.104849 204.514587 
L 229.096656 204.514587 
L 229.096656 200.742178 
L 229.228061 200.742178 
L 229.228061 196.969769 
L 229.636416 196.969769 
L 229.636416 193.19736 
L 230.761822 193.19736 
L 230.761822 189.42495 
L 231.054851 189.42495 
L 231.054851 185.652541 
L 231.269306 185.652541 
L 231.269306 181.880132 
L 232.20708 181.880132 
L 232.20708 178.107723 
L 232.769149 178.107723 
L 232.769149 174.335314 
L 235.263292 174.335314 
L 235.263292 170.562904 
L 235.747992 170.562904 
L 235.747992 166.790495 
L 236.025312 166.790495 
L 236.025312 163.018086 
L 236.219489 163.018086 
L 236.219489 159.245677 
L 237.449065 159.245677 
L 237.449065 155.473267 
L 240.516422 155.473267 
L 240.519944 147.928449 
L 241.732183 147.928449 
L 241.732183 144.15604 
L 242.444121 144.15604 
L 242.444121 140.38363 
L 243.438465 140.38363 
L 243.438465 136.611221 
L 244.121709 136.611221 
L 244.121709 132.838812 
L 244.558977 132.838812 
L 244.558977 129.066403 
L 245.433145 129.066403 
L 245.433145 125.293993 
L 249.615202 125.293993 
L 249.615202 121.521584 
L 264.045298 121.521584 
L 264.045298 117.749175 
L 266.644904 117.749175 
L 266.644904 113.976766 
L 270.1672 113.976766 
L 270.1672 110.204356 
L 270.381938 110.204356 
L 270.381938 106.431947 
L 272.830724 106.431947 
L 272.830724 102.659538 
L 273.215621 102.659538 
L 273.215621 98.887129 
L 275.349095 98.887129 
L 275.349095 95.114719 
L 276.299417 95.114719 
L 276.299417 91.34231 
L 279.1231 91.34231 
L 279.1231 87.569901 
L 280.496991 87.569901 
L 280.496991 83.797492 
L 281.274927 83.797492 
L 281.274927 80.025083 
L 281.962879 80.025083 
L 281.962879 76.252673 
L 282.423646 76.252673 
L 282.435762 68.707855 
L 283.064534 68.707855 
L 283.064534 64.935446 
L 283.576231 64.935446 
L 283.576231 61.163036 
L 284.015721 61.163036 
L 284.015721 57.390627 
L 284.560979 57.390627 
L 284.560979 53.618218 
L 286.784669 53.618218 
L 286.784669 49.845809 
L 288.911474 49.845809 
L 288.911474 46.073399 
L 289.645021 46.073399 
L 289.645021 42.30099 
L 294.170103 42.30099 
L 294.170103 38.528581 
L 294.988 38.528581 
L 294.988 34.756172 
L 295.996775 34.756172 
L 295.996775 30.983762 
L 298.234935 30.983762 
L 298.234935 27.211353 
L 302.153311 27.211353 
L 302.153311 23.438944 
L 302.438517 23.438944 
L 302.438517 19.666535 
L 304.046502 19.666535 
L 304.046502 15.894125 
L 305.368399 15.894125 
L 305.368399 12.121716 
L 314.79316 12.121716 
L 314.79316 8.349307 
L 314.79316 8.349307 
L 450.672 8.349307 
L 450.672 8.349307 
" style="fill:none;stroke:#000000;stroke-linecap:square;stroke-width:1.5;"/>
   </g>
   <g id="line2d_30">
    <path clip-path="url(#pf5a2fb4101)" d="M 77.502983 291.28 
L 77.502983 287.507591 
L 92.538997 287.507591 
L 92.538997 283.735182 
L 97.086325 283.735182 
L 97.086325 279.962772 
L 98.167286 279.962772 
L 98.167286 276.190363 
L 99.780106 276.190363 
L 99.780106 272.417954 
L 103.386494 272.417954 
L 103.386494 268.645545 
L 109.694084 268.645545 
L 109.694084 264.873135 
L 109.876883 264.873135 
L 109.876883 261.100726 
L 112.07341 261.100726 
L 112.07341 257.328317 
L 113.090415 257.328317 
L 113.090415 253.555908 
L 116.010643 253.555908 
L 116.010643 249.783498 
L 116.222721 249.783498 
L 116.222721 246.011089 
L 116.784566 246.011089 
L 116.784566 242.23868 
L 116.943211 242.23868 
L 116.943211 238.466271 
L 117.581564 238.466271 
L 117.581564 234.693861 
L 118.108054 234.693861 
L 118.108054 230.921452 
L 148.096204 230.921452 
L 148.096204 227.149043 
L 150.726145 227.149043 
L 150.726145 223.376634 
L 155.944804 223.376634 
L 155.944804 219.604224 
L 176.731149 219.604224 
L 176.731149 215.831815 
L 178.007851 215.831815 
L 178.007851 212.059406 
L 179.497678 212.059406 
L 179.497678 208.286997 
L 180.822415 208.286997 
L 180.822415 204.514587 
L 181.015572 204.514587 
L 181.015572 200.742178 
L 183.132385 200.742178 
L 183.132385 196.969769 
L 189.239779 196.969769 
L 189.239779 193.19736 
L 189.450429 193.19736 
L 189.450429 189.42495 
L 191.196885 189.42495 
L 191.196885 185.652541 
L 195.902679 185.652541 
L 195.902679 181.880132 
L 196.778142 181.880132 
L 196.778142 178.107723 
L 198.421404 178.107723 
L 198.421404 174.335314 
L 201.045468 174.335314 
L 201.045468 170.562904 
L 201.328362 170.562904 
L 201.328362 166.790495 
L 204.207795 166.790495 
L 204.207795 163.018086 
L 205.685653 163.018086 
L 205.685653 159.245677 
L 209.043475 159.245677 
L 209.043475 155.473267 
L 210.391623 155.473267 
L 210.391623 151.700858 
L 213.159488 151.700858 
L 213.159488 147.928449 
L 220.423373 147.928449 
L 220.423373 144.15604 
L 220.879212 144.15604 
L 220.879212 140.38363 
L 223.642893 140.38363 
L 223.642893 136.611221 
L 230.923969 136.611221 
L 230.923969 132.838812 
L 232.769149 132.838812 
L 232.769149 129.066403 
L 233.349528 129.066403 
L 233.349528 125.293993 
L 235.263292 125.293993 
L 235.263292 121.521584 
L 235.747992 121.521584 
L 235.747992 117.749175 
L 236.025312 117.749175 
L 236.025312 113.976766 
L 236.219489 113.976766 
L 236.219489 110.204356 
L 237.449065 110.204356 
L 237.449065 106.431947 
L 237.630829 106.431947 
L 237.630829 102.659538 
L 239.559481 102.659538 
L 239.559481 98.887129 
L 240.516422 98.887129 
L 240.519944 91.34231 
L 241.732183 91.34231 
L 241.732183 87.569901 
L 242.444121 87.569901 
L 242.444121 83.797492 
L 243.438465 83.797492 
L 243.438465 80.025083 
L 244.121709 80.025083 
L 244.121709 76.252673 
L 244.558977 76.252673 
L 244.558977 72.480264 
L 245.433145 72.480264 
L 245.433145 68.707855 
L 248.380514 68.707855 
L 248.380514 64.935446 
L 250.023606 64.935446 
L 250.023606 61.163036 
L 250.833332 61.163036 
L 250.833332 57.390627 
L 252.577594 57.390627 
L 252.577594 53.618218 
L 255.838981 53.618218 
L 255.838981 49.845809 
L 256.005131 49.845809 
L 256.005131 46.073399 
L 259.490864 46.073399 
L 259.490864 42.30099 
L 262.802559 42.30099 
L 262.802559 38.528581 
L 263.297504 38.528581 
L 263.297504 34.756172 
L 266.7472 34.756172 
L 266.7472 30.983762 
L 267.090931 30.983762 
L 267.090931 27.211353 
L 270.650108 27.211353 
L 270.650108 23.438944 
L 272.6036 23.438944 
L 272.6036 19.666535 
L 280.697011 19.666535 
L 280.74859 12.121716 
L 282.358348 12.121716 
L 282.358348 8.349307 
L 282.358348 8.349307 
L 450.672 8.349307 
L 450.672 8.349307 
" style="fill:none;stroke:#00bfbf;stroke-linecap:square;stroke-width:1.5;"/>
   </g>
   <g id="line2d_31">
    <path clip-path="url(#pf5a2fb4101)" d="M 74.619119 291.28 
L 74.619119 287.507591 
L 85.773128 287.507591 
L 85.773128 283.735182 
L 86.042578 283.735182 
L 86.042578 279.962772 
L 87.342936 279.962772 
L 87.342936 276.190363 
L 91.663993 276.190363 
L 91.663993 272.417954 
L 92.123163 272.417954 
L 92.123163 268.645545 
L 94.500366 268.645545 
L 94.500366 264.873135 
L 96.837702 264.873135 
L 96.837702 261.100726 
L 97.286718 261.100726 
L 97.395683 253.555908 
L 98.039592 253.555908 
L 98.039592 249.783498 
L 98.931335 249.783498 
L 99.008775 242.23868 
L 99.064679 242.23868 
L 99.137918 234.693861 
L 117.422723 234.693861 
L 117.422723 230.921452 
L 147.955979 230.921452 
L 147.955979 227.149043 
L 150.615039 227.149043 
L 150.615039 223.376634 
L 155.944804 223.376634 
L 155.944804 219.604224 
L 176.731149 219.604224 
L 176.731149 215.831815 
L 177.876586 215.831815 
L 177.876586 212.059406 
L 179.497678 212.059406 
L 179.497678 208.286997 
L 180.680887 208.286997 
L 180.680887 204.514587 
L 181.015572 204.514587 
L 181.015572 200.742178 
L 182.988932 200.742178 
L 182.988932 196.969769 
L 189.070845 196.969769 
L 189.070845 193.19736 
L 189.450429 193.19736 
L 189.450429 189.42495 
L 191.196885 189.42495 
L 191.196885 185.652541 
L 195.902679 185.652541 
L 195.902679 181.880132 
L 196.614144 181.880132 
L 196.614144 178.107723 
L 198.257494 178.107723 
L 198.257494 174.335314 
L 201.045468 174.335314 
L 201.045468 170.562904 
L 201.328362 170.562904 
L 201.328362 166.790495 
L 204.207795 166.790495 
L 204.207795 163.018086 
L 205.542163 163.018086 
L 205.542163 159.245677 
L 209.043475 159.245677 
L 209.043475 155.473267 
L 210.391623 155.473267 
L 210.391623 151.700858 
L 213.159488 151.700858 
L 213.159488 147.928449 
L 220.27461 147.928449 
L 220.27461 144.15604 
L 220.879212 144.15604 
L 220.879212 140.38363 
L 223.642893 140.38363 
L 223.642893 136.611221 
L 228.365037 136.611221 
L 228.365037 132.838812 
L 229.05989 132.838812 
L 229.05989 129.066403 
L 232.769149 129.066403 
L 232.769149 125.293993 
L 233.212899 125.293993 
L 233.212899 121.521584 
L 235.263292 121.521584 
L 235.263292 117.749175 
L 235.747992 117.749175 
L 235.747992 113.976766 
L 236.025312 113.976766 
L 236.025312 110.204356 
L 236.219489 110.204356 
L 236.219489 106.431947 
L 237.171342 106.431947 
L 237.171342 102.659538 
L 237.449065 102.659538 
L 237.478166 95.114719 
L 239.05163 95.114719 
L 239.05163 91.34231 
L 239.421026 91.34231 
L 239.421026 87.569901 
L 239.5897 87.569901 
L 239.634601 80.025083 
L 240.03439 80.025083 
L 240.140951 72.480264 
L 240.516422 72.480264 
L 240.519944 64.935446 
L 241.50569 64.935446 
L 241.50569 61.163036 
L 241.732183 61.163036 
L 241.732183 57.390627 
L 242.444121 57.390627 
L 242.444121 53.618218 
L 243.438465 53.618218 
L 243.438465 49.845809 
L 244.121709 49.845809 
L 244.121709 46.073399 
L 244.558977 46.073399 
L 244.558977 42.30099 
L 245.433145 42.30099 
L 245.433145 38.528581 
L 247.120725 38.528581 
L 247.120725 34.756172 
L 248.380514 34.756172 
L 248.380514 30.983762 
L 252.433253 30.983762 
L 252.433253 27.211353 
L 253.930514 27.211353 
L 253.930514 23.438944 
L 255.098792 23.438944 
L 255.098792 19.666535 
L 255.649271 19.666535 
L 255.649271 15.894125 
L 257.986619 15.894125 
L 257.986619 12.121716 
L 261.18384 12.121716 
L 261.18384 8.349307 
L 261.18384 8.349307 
L 450.672 8.349307 
L 450.672 8.349307 
" style="fill:none;stroke:#bf00bf;stroke-linecap:square;stroke-width:1.5;"/>
   </g>
   <g id="patch_3">
    <path d="M 5.52 291.28 
L 5.52 5.52 
" style="fill:none;stroke:#000000;stroke-linecap:square;stroke-linejoin:miter;stroke-width:0.8;"/>
   </g>
   <g id="patch_4">
    <path d="M 450.672 291.28 
L 450.672 5.52 
" style="fill:none;stroke:#000000;stroke-linecap:square;stroke-linejoin:miter;stroke-width:0.8;"/>
   </g>
   <g id="patch_5">
    <path d="M 5.52 291.28 
L 450.672 291.28 
" style="fill:none;stroke:#000000;stroke-linecap:square;stroke-linejoin:miter;stroke-width:0.8;"/>
   </g>
   <g id="patch_6">
    <path d="M 5.52 5.52 
L 450.672 5.52 
" style="fill:none;stroke:#000000;stroke-linecap:square;stroke-linejoin:miter;stroke-width:0.8;"/>
   </g>
   <g id="text_6">
    <!-- {f10-f14}, 5-D -->
    <defs>
     <path d="M 51.125 -9.28125 
L 51.125 -16.3125 
L 48.09375 -16.3125 
Q 35.9375 -16.3125 31.8125 -12.6875 
Q 27.6875 -9.078125 27.6875 1.703125 
L 27.6875 13.375 
Q 27.6875 20.75 25.046875 23.578125 
Q 22.40625 26.421875 15.484375 26.421875 
L 12.5 26.421875 
L 12.5 33.40625 
L 15.484375 33.40625 
Q 22.46875 33.40625 25.078125 36.203125 
Q 27.6875 39.015625 27.6875 46.296875 
L 27.6875 58.015625 
Q 27.6875 68.796875 31.8125 72.390625 
Q 35.9375 75.984375 48.09375 75.984375 
L 51.125 75.984375 
L 51.125 69 
L 47.796875 69 
Q 40.921875 69 38.8125 66.84375 
Q 36.71875 64.703125 36.71875 57.8125 
L 36.71875 45.703125 
Q 36.71875 38.03125 34.5 34.5625 
Q 32.28125 31.109375 26.90625 29.890625 
Q 32.328125 28.5625 34.515625 25.09375 
Q 36.71875 21.625 36.71875 14.015625 
L 36.71875 1.90625 
Q 36.71875 -4.984375 38.8125 -7.125 
Q 40.921875 -9.28125 47.796875 -9.28125 
z
" id="DejaVuSans-7b"/>
     <path d="M 12.5 -9.28125 
L 15.921875 -9.28125 
Q 22.75 -9.28125 24.828125 -7.171875 
Q 26.90625 -5.078125 26.90625 1.90625 
L 26.90625 14.015625 
Q 26.90625 21.625 29.09375 25.09375 
Q 31.296875 28.5625 36.71875 29.890625 
Q 31.296875 31.109375 29.09375 34.5625 
Q 26.90625 38.03125 26.90625 45.703125 
L 26.90625 57.8125 
Q 26.90625 64.75 24.828125 66.875 
Q 22.75 69 15.921875 69 
L 12.5 69 
L 12.5 75.984375 
L 15.578125 75.984375 
Q 27.734375 75.984375 31.8125 72.390625 
Q 35.890625 68.796875 35.890625 58.015625 
L 35.890625 46.296875 
Q 35.890625 39.015625 38.515625 36.203125 
Q 41.15625 33.40625 48.09375 33.40625 
L 51.125 33.40625 
L 51.125 26.421875 
L 48.09375 26.421875 
Q 41.15625 26.421875 38.515625 23.578125 
Q 35.890625 20.75 35.890625 13.375 
L 35.890625 1.703125 
Q 35.890625 -9.078125 31.8125 -12.6875 
Q 27.734375 -16.3125 15.578125 -16.3125 
L 12.5 -16.3125 
z
" id="DejaVuSans-7d"/>
     <path d="M 11.71875 12.40625 
L 22.015625 12.40625 
L 22.015625 4 
L 14.015625 -11.625 
L 7.71875 -11.625 
L 11.71875 4 
z
" id="DejaVuSans-2c"/>
     <path d="M 10.796875 72.90625 
L 49.515625 72.90625 
L 49.515625 64.59375 
L 19.828125 64.59375 
L 19.828125 46.734375 
Q 21.96875 47.46875 24.109375 47.828125 
Q 26.265625 48.1875 28.421875 48.1875 
Q 40.625 48.1875 47.75 41.5 
Q 54.890625 34.8125 54.890625 23.390625 
Q 54.890625 11.625 47.5625 5.09375 
Q 40.234375 -1.421875 26.90625 -1.421875 
Q 22.3125 -1.421875 17.546875 -0.640625 
Q 12.796875 0.140625 7.71875 1.703125 
L 7.71875 11.625 
Q 12.109375 9.234375 16.796875 8.0625 
Q 21.484375 6.890625 26.703125 6.890625 
Q 35.15625 6.890625 40.078125 11.328125 
Q 45.015625 15.765625 45.015625 23.390625 
Q 45.015625 31 40.078125 35.4375 
Q 35.15625 39.890625 26.703125 39.890625 
Q 22.75 39.890625 18.8125 39.015625 
Q 14.890625 38.140625 10.796875 36.28125 
z
" id="DejaVuSans-35"/>
    </defs>
    <g transform="translate(296.06896 285.5648)scale(0.2 -0.2)">
     <use xlink:href="#DejaVuSans-7b"/>
     <use x="63.623047" xlink:href="#DejaVuSans-66"/>
     <use x="98.828125" xlink:href="#DejaVuSans-31"/>
     <use x="162.451172" xlink:href="#DejaVuSans-30"/>
     <use x="226.074219" xlink:href="#DejaVuSans-2d"/>
     <use x="262.158203" xlink:href="#DejaVuSans-66"/>
     <use x="297.363281" xlink:href="#DejaVuSans-31"/>
     <use x="360.986328" xlink:href="#DejaVuSans-34"/>
     <use x="424.609375" xlink:href="#DejaVuSans-7d"/>
     <use x="488.232422" xlink:href="#DejaVuSans-2c"/>
     <use x="520.019531" xlink:href="#DejaVuSans-20"/>
     <use x="551.806641" xlink:href="#DejaVuSans-35"/>
     <use x="615.429688" xlink:href="#DejaVuSans-2d"/>
     <use x="651.513672" xlink:href="#DejaVuSans-44"/>
    </g>
   </g>
   <g id="text_7">
    <!-- v0.0.0 -->
    <defs>
     <path d="M 2.984375 54.6875 
L 12.5 54.6875 
L 29.59375 8.796875 
L 46.6875 54.6875 
L 56.203125 54.6875 
L 35.6875 0 
L 23.484375 0 
z
" id="DejaVuSans-76"/>
     <path d="M 10.6875 12.40625 
L 21 12.40625 
L 21 0 
L 10.6875 0 
z
" id="DejaVuSans-2e"/>
    </defs>
    <g style="fill:#808080;" transform="translate(212.41475 286.342713)scale(0.1 -0.1)">
     <use xlink:href="#DejaVuSans-76"/>
     <use x="59.179688" xlink:href="#DejaVuSans-30"/>
     <use x="122.802734" xlink:href="#DejaVuSans-2e"/>
     <use x="154.589844" xlink:href="#DejaVuSans-30"/>
     <use x="218.212891" xlink:href="#DejaVuSans-2e"/>
     <use x="250" xlink:href="#DejaVuSans-30"/>
    </g>
   </g>
  </g>
 </g>
 <defs>
  <clipPath id="pf5a2fb4101">
   <rect height="285.76" width="445.152" x="5.52" y="5.52"/>
  </clipPath>
 </defs>
</svg>
