<?xml version="1.0" encoding="utf-8" standalone="no"?>
<!DOCTYPE svg PUBLIC "-//W3C//DTD SVG 1.1//EN"
  "http://www.w3.org/Graphics/SVG/1.1/DTD/svg11.dtd">
<!-- Created with matplotlib (http://matplotlib.org/) -->
<svg height="345.6pt" version="1.1" viewBox="0 0 460.8 345.6" width="460.8pt" xmlns="http://www.w3.org/2000/svg" xmlns:xlink="http://www.w3.org/1999/xlink">
 <defs>
  <style type="text/css">
*{stroke-linecap:butt;stroke-linejoin:round;}
  </style>
 </defs>
 <g id="figure_1">
  <g id="patch_1">
   <path d="M 0 345.6 
L 460.8 345.6 
L 460.8 0 
L 0 0 
z
" style="fill:#ffffff;"/>
  </g>
  <g id="axes_1">
   <g id="patch_2">
    <path d="M 5.52 291.28 
L 450.672 291.28 
L 450.672 5.52 
L 5.52 5.52 
z
" style="fill:#ffffff;"/>
   </g>
   <g id="matplotlib.axis_1">
    <g id="xtick_1">
     <g id="line2d_1">
      <path clip-path="url(#pfb7c7362fd)" d="M 5.412019 291.28 
L 5.412019 5.52 
" style="fill:none;stroke:#b0b0b0;stroke-linecap:square;stroke-width:0.8;"/>
     </g>
     <g id="line2d_2">
      <defs>
       <path d="M 0 0 
L 0 3.5 
" id="m86d031b65e" style="stroke:#000000;stroke-width:0.8;"/>
      </defs>
      <g>
       <use style="stroke:#000000;stroke-width:0.8;" x="5.412019" xlink:href="#m86d031b65e" y="291.28"/>
      </g>
     </g>
    </g>
    <g id="xtick_2">
     <g id="line2d_3">
      <path clip-path="url(#pfb7c7362fd)" d="M 105.362426 291.28 
L 105.362426 5.52 
" style="fill:none;stroke:#b0b0b0;stroke-linecap:square;stroke-width:0.8;"/>
     </g>
     <g id="line2d_4">
      <g>
       <use style="stroke:#000000;stroke-width:0.8;" x="105.362426" xlink:href="#m86d031b65e" y="291.28"/>
      </g>
     </g>
     <g id="text_1">
      <!-- -4 -->
      <defs>
       <path d="M 4.890625 31.390625 
L 31.203125 31.390625 
L 31.203125 23.390625 
L 4.890625 23.390625 
z
" id="DejaVuSans-2d"/>
       <path d="M 37.796875 64.3125 
L 12.890625 25.390625 
L 37.796875 25.390625 
z
M 35.203125 72.90625 
L 47.609375 72.90625 
L 47.609375 25.390625 
L 58.015625 25.390625 
L 58.015625 17.1875 
L 47.609375 17.1875 
L 47.609375 0 
L 37.796875 0 
L 37.796875 17.1875 
L 4.890625 17.1875 
L 4.890625 26.703125 
z
" id="DejaVuSans-34"/>
      </defs>
      <g transform="translate(95.392113 313.476875)scale(0.2 -0.2)">
       <use xlink:href="#DejaVuSans-2d"/>
       <use x="36.083984" xlink:href="#DejaVuSans-34"/>
      </g>
     </g>
    </g>
    <g id="xtick_3">
     <g id="line2d_5">
      <path clip-path="url(#pfb7c7362fd)" d="M 205.312832 291.28 
L 205.312832 5.52 
" style="fill:none;stroke:#b0b0b0;stroke-linecap:square;stroke-width:0.8;"/>
     </g>
     <g id="line2d_6">
      <g>
       <use style="stroke:#000000;stroke-width:0.8;" x="205.312832" xlink:href="#m86d031b65e" y="291.28"/>
      </g>
     </g>
     <g id="text_2">
      <!-- 0 -->
      <defs>
       <path d="M 31.78125 66.40625 
Q 24.171875 66.40625 20.328125 58.90625 
Q 16.5 51.421875 16.5 36.375 
Q 16.5 21.390625 20.328125 13.890625 
Q 24.171875 6.390625 31.78125 6.390625 
Q 39.453125 6.390625 43.28125 13.890625 
Q 47.125 21.390625 47.125 36.375 
Q 47.125 51.421875 43.28125 58.90625 
Q 39.453125 66.40625 31.78125 66.40625 
z
M 31.78125 74.21875 
Q 44.046875 74.21875 50.515625 64.515625 
Q 56.984375 54.828125 56.984375 36.375 
Q 56.984375 17.96875 50.515625 8.265625 
Q 44.046875 -1.421875 31.78125 -1.421875 
Q 19.53125 -1.421875 13.0625 8.265625 
Q 6.59375 17.96875 6.59375 36.375 
Q 6.59375 54.828125 13.0625 64.515625 
Q 19.53125 74.21875 31.78125 74.21875 
z
" id="DejaVuSans-30"/>
      </defs>
      <g transform="translate(198.950332 313.476875)scale(0.2 -0.2)">
       <use xlink:href="#DejaVuSans-30"/>
      </g>
     </g>
    </g>
    <g id="xtick_4">
     <g id="line2d_7">
      <path clip-path="url(#pfb7c7362fd)" d="M 305.263238 291.28 
L 305.263238 5.52 
" style="fill:none;stroke:#b0b0b0;stroke-linecap:square;stroke-width:0.8;"/>
     </g>
     <g id="line2d_8">
      <g>
       <use style="stroke:#000000;stroke-width:0.8;" x="305.263238" xlink:href="#m86d031b65e" y="291.28"/>
      </g>
     </g>
     <g id="text_3">
      <!-- 4 -->
      <g transform="translate(298.900738 313.476875)scale(0.2 -0.2)">
       <use xlink:href="#DejaVuSans-34"/>
      </g>
     </g>
    </g>
    <g id="xtick_5">
     <g id="line2d_9">
      <path clip-path="url(#pfb7c7362fd)" d="M 405.213645 291.28 
L 405.213645 5.52 
" style="fill:none;stroke:#b0b0b0;stroke-linecap:square;stroke-width:0.8;"/>
     </g>
     <g id="line2d_10">
      <g>
       <use style="stroke:#000000;stroke-width:0.8;" x="405.213645" xlink:href="#m86d031b65e" y="291.28"/>
      </g>
     </g>
     <g id="text_4">
      <!-- 8 -->
      <defs>
       <path d="M 31.78125 34.625 
Q 24.75 34.625 20.71875 30.859375 
Q 16.703125 27.09375 16.703125 20.515625 
Q 16.703125 13.921875 20.71875 10.15625 
Q 24.75 6.390625 31.78125 6.390625 
Q 38.8125 6.390625 42.859375 10.171875 
Q 46.921875 13.96875 46.921875 20.515625 
Q 46.921875 27.09375 42.890625 30.859375 
Q 38.875 34.625 31.78125 34.625 
z
M 21.921875 38.8125 
Q 15.578125 40.375 12.03125 44.71875 
Q 8.5 49.078125 8.5 55.328125 
Q 8.5 64.0625 14.71875 69.140625 
Q 20.953125 74.21875 31.78125 74.21875 
Q 42.671875 74.21875 48.875 69.140625 
Q 55.078125 64.0625 55.078125 55.328125 
Q 55.078125 49.078125 51.53125 44.71875 
Q 48 40.375 41.703125 38.8125 
Q 48.828125 37.15625 52.796875 32.3125 
Q 56.78125 27.484375 56.78125 20.515625 
Q 56.78125 9.90625 50.3125 4.234375 
Q 43.84375 -1.421875 31.78125 -1.421875 
Q 19.734375 -1.421875 13.25 4.234375 
Q 6.78125 9.90625 6.78125 20.515625 
Q 6.78125 27.484375 10.78125 32.3125 
Q 14.796875 37.15625 21.921875 38.8125 
z
M 18.3125 54.390625 
Q 18.3125 48.734375 21.84375 45.5625 
Q 25.390625 42.390625 31.78125 42.390625 
Q 38.140625 42.390625 41.71875 45.5625 
Q 45.3125 48.734375 45.3125 54.390625 
Q 45.3125 60.0625 41.71875 63.234375 
Q 38.140625 66.40625 31.78125 66.40625 
Q 25.390625 66.40625 21.84375 63.234375 
Q 18.3125 60.0625 18.3125 54.390625 
z
" id="DejaVuSans-38"/>
      </defs>
      <g transform="translate(398.851145 313.476875)scale(0.2 -0.2)">
       <use xlink:href="#DejaVuSans-38"/>
      </g>
     </g>
    </g>
    <g id="text_5">
     <!-- log10 of Df -->
     <defs>
      <path d="M 9.421875 75.984375 
L 18.40625 75.984375 
L 18.40625 0 
L 9.421875 0 
z
" id="DejaVuSans-6c"/>
      <path d="M 30.609375 48.390625 
Q 23.390625 48.390625 19.1875 42.75 
Q 14.984375 37.109375 14.984375 27.296875 
Q 14.984375 17.484375 19.15625 11.84375 
Q 23.34375 6.203125 30.609375 6.203125 
Q 37.796875 6.203125 41.984375 11.859375 
Q 46.1875 17.53125 46.1875 27.296875 
Q 46.1875 37.015625 41.984375 42.703125 
Q 37.796875 48.390625 30.609375 48.390625 
z
M 30.609375 56 
Q 42.328125 56 49.015625 48.375 
Q 55.71875 40.765625 55.71875 27.296875 
Q 55.71875 13.875 49.015625 6.21875 
Q 42.328125 -1.421875 30.609375 -1.421875 
Q 18.84375 -1.421875 12.171875 6.21875 
Q 5.515625 13.875 5.515625 27.296875 
Q 5.515625 40.765625 12.171875 48.375 
Q 18.84375 56 30.609375 56 
z
" id="DejaVuSans-6f"/>
      <path d="M 45.40625 27.984375 
Q 45.40625 37.75 41.375 43.109375 
Q 37.359375 48.484375 30.078125 48.484375 
Q 22.859375 48.484375 18.828125 43.109375 
Q 14.796875 37.75 14.796875 27.984375 
Q 14.796875 18.265625 18.828125 12.890625 
Q 22.859375 7.515625 30.078125 7.515625 
Q 37.359375 7.515625 41.375 12.890625 
Q 45.40625 18.265625 45.40625 27.984375 
z
M 54.390625 6.78125 
Q 54.390625 -7.171875 48.1875 -13.984375 
Q 42 -20.796875 29.203125 -20.796875 
Q 24.46875 -20.796875 20.265625 -20.09375 
Q 16.0625 -19.390625 12.109375 -17.921875 
L 12.109375 -9.1875 
Q 16.0625 -11.328125 19.921875 -12.34375 
Q 23.78125 -13.375 27.78125 -13.375 
Q 36.625 -13.375 41.015625 -8.765625 
Q 45.40625 -4.15625 45.40625 5.171875 
L 45.40625 9.625 
Q 42.625 4.78125 38.28125 2.390625 
Q 33.9375 0 27.875 0 
Q 17.828125 0 11.671875 7.65625 
Q 5.515625 15.328125 5.515625 27.984375 
Q 5.515625 40.671875 11.671875 48.328125 
Q 17.828125 56 27.875 56 
Q 33.9375 56 38.28125 53.609375 
Q 42.625 51.21875 45.40625 46.390625 
L 45.40625 54.6875 
L 54.390625 54.6875 
z
" id="DejaVuSans-67"/>
      <path d="M 12.40625 8.296875 
L 28.515625 8.296875 
L 28.515625 63.921875 
L 10.984375 60.40625 
L 10.984375 69.390625 
L 28.421875 72.90625 
L 38.28125 72.90625 
L 38.28125 8.296875 
L 54.390625 8.296875 
L 54.390625 0 
L 12.40625 0 
z
" id="DejaVuSans-31"/>
      <path id="DejaVuSans-20"/>
      <path d="M 37.109375 75.984375 
L 37.109375 68.5 
L 28.515625 68.5 
Q 23.6875 68.5 21.796875 66.546875 
Q 19.921875 64.59375 19.921875 59.515625 
L 19.921875 54.6875 
L 34.71875 54.6875 
L 34.71875 47.703125 
L 19.921875 47.703125 
L 19.921875 0 
L 10.890625 0 
L 10.890625 47.703125 
L 2.296875 47.703125 
L 2.296875 54.6875 
L 10.890625 54.6875 
L 10.890625 58.5 
Q 10.890625 67.625 15.140625 71.796875 
Q 19.390625 75.984375 28.609375 75.984375 
z
" id="DejaVuSans-66"/>
      <path d="M 19.671875 64.796875 
L 19.671875 8.109375 
L 31.59375 8.109375 
Q 46.6875 8.109375 53.6875 14.9375 
Q 60.6875 21.78125 60.6875 36.53125 
Q 60.6875 51.171875 53.6875 57.984375 
Q 46.6875 64.796875 31.59375 64.796875 
z
M 9.8125 72.90625 
L 30.078125 72.90625 
Q 51.265625 72.90625 61.171875 64.09375 
Q 71.09375 55.28125 71.09375 36.53125 
Q 71.09375 17.671875 61.125 8.828125 
Q 51.171875 0 30.078125 0 
L 9.8125 0 
z
" id="DejaVuSans-44"/>
     </defs>
     <g transform="translate(172.910063 336.833125)scale(0.2 -0.2)">
      <use xlink:href="#DejaVuSans-6c"/>
      <use x="27.783203" xlink:href="#DejaVuSans-6f"/>
      <use x="88.964844" xlink:href="#DejaVuSans-67"/>
      <use x="152.441406" xlink:href="#DejaVuSans-31"/>
      <use x="216.064453" xlink:href="#DejaVuSans-30"/>
      <use x="279.6875" xlink:href="#DejaVuSans-20"/>
      <use x="311.474609" xlink:href="#DejaVuSans-6f"/>
      <use x="372.65625" xlink:href="#DejaVuSans-66"/>
      <use x="407.861328" xlink:href="#DejaVuSans-20"/>
      <use x="439.648438" xlink:href="#DejaVuSans-44"/>
      <use x="516.650391" xlink:href="#DejaVuSans-66"/>
     </g>
    </g>
   </g>
   <g id="matplotlib.axis_2">
    <g id="ytick_1">
     <g id="line2d_11">
      <path clip-path="url(#pfb7c7362fd)" d="M 5.52 291.28 
L 450.672 291.28 
" style="fill:none;stroke:#b0b0b0;stroke-linecap:square;stroke-width:0.8;"/>
     </g>
     <g id="line2d_12">
      <defs>
       <path d="M 0 0 
L -3.5 0 
" id="mc7a7a98123" style="stroke:#000000;stroke-width:0.8;"/>
      </defs>
      <g>
       <use style="stroke:#000000;stroke-width:0.8;" x="5.52" xlink:href="#mc7a7a98123" y="291.28"/>
      </g>
     </g>
    </g>
    <g id="ytick_2">
     <g id="line2d_13">
      <path clip-path="url(#pfb7c7362fd)" d="M 5.52 234.693861 
L 450.672 234.693861 
" style="fill:none;stroke:#b0b0b0;stroke-linecap:square;stroke-width:0.8;"/>
     </g>
     <g id="line2d_14">
      <g>
       <use style="stroke:#000000;stroke-width:0.8;" x="5.52" xlink:href="#mc7a7a98123" y="234.693861"/>
      </g>
     </g>
    </g>
    <g id="ytick_3">
     <g id="line2d_15">
      <path clip-path="url(#pfb7c7362fd)" d="M 5.52 178.107723 
L 450.672 178.107723 
" style="fill:none;stroke:#b0b0b0;stroke-linecap:square;stroke-width:0.8;"/>
     </g>
     <g id="line2d_16">
      <g>
       <use style="stroke:#000000;stroke-width:0.8;" x="5.52" xlink:href="#mc7a7a98123" y="178.107723"/>
      </g>
     </g>
    </g>
    <g id="ytick_4">
     <g id="line2d_17">
      <path clip-path="url(#pfb7c7362fd)" d="M 5.52 121.521584 
L 450.672 121.521584 
" style="fill:none;stroke:#b0b0b0;stroke-linecap:square;stroke-width:0.8;"/>
     </g>
     <g id="line2d_18">
      <g>
       <use style="stroke:#000000;stroke-width:0.8;" x="5.52" xlink:href="#mc7a7a98123" y="121.521584"/>
      </g>
     </g>
    </g>
    <g id="ytick_5">
     <g id="line2d_19">
      <path clip-path="url(#pfb7c7362fd)" d="M 5.52 64.935446 
L 450.672 64.935446 
" style="fill:none;stroke:#b0b0b0;stroke-linecap:square;stroke-width:0.8;"/>
     </g>
     <g id="line2d_20">
      <g>
       <use style="stroke:#000000;stroke-width:0.8;" x="5.52" xlink:href="#mc7a7a98123" y="64.935446"/>
      </g>
     </g>
    </g>
    <g id="ytick_6">
     <g id="line2d_21">
      <path clip-path="url(#pfb7c7362fd)" d="M 5.52 8.349307 
L 450.672 8.349307 
" style="fill:none;stroke:#b0b0b0;stroke-linecap:square;stroke-width:0.8;"/>
     </g>
     <g id="line2d_22">
      <g>
       <use style="stroke:#000000;stroke-width:0.8;" x="5.52" xlink:href="#mc7a7a98123" y="8.349307"/>
      </g>
     </g>
    </g>
   </g>
   <g id="line2d_23">
    <path clip-path="url(#pfb7c7362fd)" d="M -1 272.417954 
L 31.045309 272.417954 
L 31.045309 268.645545 
L 42.985081 268.645545 
L 43.047544 261.100726 
L 62.647233 261.100726 
L 62.647233 257.328317 
L 66.442045 257.328317 
L 66.442045 253.555908 
L 70.337456 253.555908 
L 70.337456 249.783498 
L 75.103569 249.783498 
L 75.103569 246.011089 
L 80.712515 246.011089 
L 80.712515 242.23868 
L 87.493491 242.23868 
L 87.493491 238.466271 
L 88.399943 238.466271 
L 88.399943 234.693861 
L 96.777078 234.693861 
L 96.777078 230.921452 
L 96.914032 230.921452 
L 96.914032 227.149043 
L 103.808416 227.149043 
L 103.808416 223.376634 
L 104.678617 223.376634 
L 104.678617 219.604224 
L 110.613153 219.604224 
L 110.613153 215.831815 
L 111.210064 215.831815 
L 111.210064 212.059406 
L 111.45588 212.059406 
L 111.45588 208.286997 
L 114.78748 208.286997 
L 114.78748 204.514587 
L 117.752876 204.514587 
L 117.752876 200.742178 
L 119.444865 200.742178 
L 119.444865 196.969769 
L 121.773645 196.969769 
L 121.773645 193.19736 
L 124.643135 193.19736 
L 124.643135 189.42495 
L 127.236071 189.42495 
L 127.236071 185.652541 
L 135.434335 185.652541 
L 135.434335 181.880132 
L 135.742617 181.880132 
L 135.742617 178.107723 
L 139.403253 178.107723 
L 139.403253 174.335314 
L 143.147914 174.335314 
L 143.147914 170.562904 
L 149.990211 170.562904 
L 149.990211 166.790495 
L 157.08485 166.790495 
L 157.08485 163.018086 
L 160.319386 163.018086 
L 160.319386 159.245677 
L 161.416514 159.245677 
L 161.416514 155.473267 
L 163.347976 155.473267 
L 163.347976 151.700858 
L 166.150158 151.700858 
L 166.150158 147.928449 
L 169.469626 147.928449 
L 169.469626 144.15604 
L 172.317575 144.15604 
L 172.317575 140.38363 
L 173.514716 140.38363 
L 173.514716 136.611221 
L 174.151546 136.611221 
L 174.151546 132.838812 
L 174.274582 132.838812 
L 174.274582 129.066403 
L 178.107985 129.066403 
L 178.107985 125.293993 
L 179.314431 125.293993 
L 179.314431 121.521584 
L 179.828897 121.521584 
L 179.828897 117.749175 
L 180.513692 117.749175 
L 180.513692 113.976766 
L 184.479131 113.976766 
L 184.479131 110.204356 
L 185.101274 110.204356 
L 185.16364 98.887129 
L 185.560787 98.887129 
L 185.560787 95.114719 
L 186.948799 95.114719 
L 187.026402 87.569901 
L 187.20236 87.569901 
L 187.20236 83.797492 
L 188.437572 83.797492 
L 188.437572 80.025083 
L 188.742651 80.025083 
L 188.74349 72.480264 
L 188.974165 72.480264 
L 188.974165 68.707855 
L 190.008849 68.707855 
L 190.008849 64.935446 
L 212.780007 64.935446 
L 212.780007 57.390627 
L 217.180105 57.390627 
L 217.180105 53.618218 
L 220.302025 53.618218 
L 220.302025 46.073399 
L 222.723573 46.073399 
L 222.723573 38.528581 
L 226.374963 38.528581 
L 226.374963 19.666535 
L 227.824042 19.666535 
L 227.824042 12.121716 
L 230.245591 12.121716 
L 230.245591 8.349307 
L 230.245591 8.349307 
L 450.672 8.349307 
L 450.672 8.349307 
" style="fill:none;stroke:#ff0000;stroke-linecap:square;stroke-width:3;"/>
   </g>
   <g id="line2d_24">
    <path clip-path="url(#pfb7c7362fd)" d="M 225.985084 291.28 
L 225.985084 287.507591 
L 226.244673 287.507591 
L 226.244673 283.735182 
L 227.203535 283.735182 
L 227.203535 279.962772 
L 227.359684 279.962772 
L 227.359684 276.190363 
L 227.565744 276.190363 
L 227.565744 272.417954 
L 227.776763 272.417954 
L 227.776763 268.645545 
L 227.897902 268.645545 
L 227.897902 264.873135 
L 228.235536 264.873135 
L 228.235536 261.100726 
L 228.491596 261.100726 
L 228.54158 253.555908 
L 228.608465 253.555908 
L 228.608465 249.783498 
L 228.811161 249.783498 
L 228.811161 246.011089 
L 229.141298 246.011089 
L 229.157816 238.466271 
L 229.30453 238.466271 
L 229.30453 234.693861 
L 229.486783 234.693861 
L 229.486783 230.921452 
L 229.709881 230.921452 
L 229.709881 227.149043 
L 230.001059 227.149043 
L 230.001059 223.376634 
L 230.448171 223.376634 
L 230.448171 219.604224 
L 230.905589 219.604224 
L 230.905589 215.831815 
L 232.123883 215.831815 
L 232.123883 212.059406 
L 232.686633 212.059406 
L 232.686633 208.286997 
L 233.406686 208.286997 
L 233.406686 204.514587 
L 233.529009 204.514587 
L 233.529009 200.742178 
L 233.755382 200.742178 
L 233.755382 196.969769 
L 234.233476 196.969769 
L 234.301416 189.42495 
L 237.886217 189.42495 
L 237.886217 185.652541 
L 238.017123 185.652541 
L 238.017123 181.880132 
L 241.644533 181.880132 
L 241.644533 178.107723 
L 244.663961 178.107723 
L 244.663961 174.335314 
L 244.895748 174.335314 
L 245.002809 166.790495 
L 245.157164 166.790495 
L 245.157164 163.018086 
L 245.531421 163.018086 
L 245.539145 155.473267 
L 245.986437 155.473267 
L 246.06074 144.15604 
L 246.131107 144.15604 
L 246.131107 140.38363 
L 246.85125 140.38363 
L 246.85125 136.611221 
L 247.48168 136.611221 
L 247.48168 132.838812 
L 247.795695 132.838812 
L 247.828673 125.293993 
L 247.920884 125.293993 
L 247.96843 117.749175 
L 248.969505 117.749175 
L 249.017515 110.204356 
L 249.172265 110.204356 
L 249.192123 102.659538 
L 249.31095 102.659538 
L 249.406685 91.34231 
L 249.518033 91.34231 
L 249.518033 87.569901 
L 249.705194 87.569901 
L 249.803496 80.025083 
L 250.124165 80.025083 
L 250.124165 76.252673 
L 251.8098 76.252673 
L 251.8098 72.480264 
L 259.820622 72.480264 
L 259.820622 68.707855 
L 261.529534 68.707855 
L 261.529534 64.935446 
L 271.049766 64.935446 
L 271.049766 61.163036 
L 273.933414 61.163036 
L 273.933414 57.390627 
L 274.267236 57.390627 
L 274.375358 49.845809 
L 274.444864 49.845809 
L 274.444864 46.073399 
L 274.664935 46.073399 
L 274.664935 42.30099 
L 274.948486 42.30099 
L 275.043868 34.756172 
L 275.980033 34.756172 
L 275.980033 30.983762 
L 276.455156 30.983762 
L 276.507606 23.438944 
L 277.16648 23.438944 
L 277.16648 19.666535 
L 277.682102 19.666535 
L 277.712382 12.121716 
L 281.620049 12.121716 
L 281.620049 8.349307 
L 281.620049 8.349307 
L 450.672 8.349307 
L 450.672 8.349307 
" style="fill:none;stroke:#00bfbf;stroke-linecap:square;stroke-width:1.5;"/>
   </g>
   <g id="line2d_25">
    <path clip-path="url(#pfb7c7362fd)" d="M 225.178469 291.28 
L 225.178469 287.507591 
L 225.577644 287.507591 
L 225.577644 283.735182 
L 225.933273 283.735182 
L 225.985084 276.190363 
L 226.478897 276.190363 
L 226.478897 272.417954 
L 226.763596 272.417954 
L 226.763596 268.645545 
L 227.002984 268.645545 
L 227.002984 264.873135 
L 227.158809 264.873135 
L 227.268806 257.328317 
L 227.565744 257.328317 
L 227.588479 249.783498 
L 227.735303 249.783498 
L 227.735303 246.011089 
L 227.897902 246.011089 
L 227.897902 242.23868 
L 228.491596 242.23868 
L 228.491596 238.466271 
L 228.811161 238.466271 
L 228.811161 234.693861 
L 229.097775 234.693861 
L 229.157816 227.149043 
L 229.709881 227.149043 
L 229.709881 223.376634 
L 230.001059 223.376634 
L 230.001059 219.604224 
L 230.243612 219.604224 
L 230.243612 215.831815 
L 230.448171 215.831815 
L 230.448171 212.059406 
L 230.905589 212.059406 
L 230.905589 208.286997 
L 231.430125 208.286997 
L 231.430125 204.514587 
L 232.686633 204.514587 
L 232.686633 200.742178 
L 233.529009 200.742178 
L 233.558121 193.19736 
L 234.233476 193.19736 
L 234.233476 189.42495 
L 237.258722 189.42495 
L 237.258722 185.652541 
L 237.886217 185.652541 
L 237.886217 181.880132 
L 241.644533 181.880132 
L 241.644533 178.107723 
L 243.55897 178.107723 
L 243.55897 174.335314 
L 244.192996 174.335314 
L 244.192996 170.562904 
L 244.345668 170.562904 
L 244.345668 166.790495 
L 244.711734 166.790495 
L 244.711734 163.018086 
L 245.002809 163.018086 
L 245.109675 155.473267 
L 245.157164 155.473267 
L 245.157164 151.700858 
L 245.531421 151.700858 
L 245.531421 147.928449 
L 245.986437 147.928449 
L 246.06074 136.611221 
L 246.131107 136.611221 
L 246.131107 132.838812 
L 246.301987 132.838812 
L 246.365116 125.293993 
L 246.840188 125.293993 
L 246.840188 121.521584 
L 247.063945 121.521584 
L 247.063945 117.749175 
L 247.347655 117.749175 
L 247.347655 113.976766 
L 247.48168 113.976766 
L 247.544289 106.431947 
L 247.795695 106.431947 
L 247.877776 98.887129 
L 248.326806 98.887129 
L 248.326806 95.114719 
L 248.599239 95.114719 
L 248.599239 91.34231 
L 249.017515 91.34231 
L 249.017515 87.569901 
L 249.130383 87.569901 
L 249.192123 80.025083 
L 249.406685 80.025083 
L 249.406685 76.252673 
L 251.8098 76.252673 
L 251.8098 72.480264 
L 252.231976 72.480264 
L 252.231976 68.707855 
L 259.160294 68.707855 
L 259.160294 64.935446 
L 271.049766 64.935446 
L 271.049766 61.163036 
L 273.210993 61.163036 
L 273.210993 57.390627 
L 273.375378 57.390627 
L 273.473826 46.073399 
L 273.775322 46.073399 
L 273.841692 38.528581 
L 274.375358 38.528581 
L 274.375358 34.756172 
L 274.917619 34.756172 
L 274.975344 27.211353 
L 275.465806 27.211353 
L 275.465806 23.438944 
L 275.685329 23.438944 
L 275.685329 19.666535 
L 276.507606 19.666535 
L 276.507606 15.894125 
L 277.712382 15.894125 
L 277.712382 12.121716 
L 281.620049 12.121716 
L 281.620049 8.349307 
L 281.620049 8.349307 
L 450.672 8.349307 
L 450.672 8.349307 
" style="fill:none;stroke:#bf00bf;stroke-linecap:square;stroke-width:1.5;"/>
   </g>
   <g id="line2d_26">
    <path clip-path="url(#pfb7c7362fd)" d="M 224.852532 291.28 
L 224.853147 283.735182 
L 225.178469 283.735182 
L 225.178469 279.962772 
L 225.329697 279.962772 
L 225.329697 276.190363 
L 225.471685 276.190363 
L 225.471685 272.417954 
L 225.933273 272.417954 
L 225.985084 264.873135 
L 226.478897 264.873135 
L 226.478897 261.100726 
L 226.652069 261.100726 
L 226.652069 257.328317 
L 226.763596 257.328317 
L 226.763596 253.555908 
L 227.268806 253.555908 
L 227.275847 246.011089 
L 227.588479 246.011089 
L 227.588479 242.23868 
L 227.735303 242.23868 
L 227.735303 238.466271 
L 227.897902 238.466271 
L 227.897902 234.693861 
L 228.063453 234.693861 
L 228.063453 230.921452 
L 228.803476 230.921452 
L 228.803476 227.149043 
L 229.402872 227.149043 
L 229.402872 223.376634 
L 229.577161 223.376634 
L 229.687608 215.831815 
L 230.001059 215.831815 
L 230.001059 212.059406 
L 230.243612 212.059406 
L 230.243612 208.286997 
L 230.448171 208.286997 
L 230.448171 204.514587 
L 230.905589 204.514587 
L 230.905589 200.742178 
L 231.185849 200.742178 
L 231.185849 196.969769 
L 232.686633 196.969769 
L 232.686633 193.19736 
L 234.233476 193.19736 
L 234.233476 189.42495 
L 235.075982 189.42495 
L 235.075982 185.652541 
L 236.651816 185.652541 
L 236.651816 181.880132 
L 239.795664 181.880132 
L 239.795664 178.107723 
L 240.840162 178.107723 
L 240.840162 174.335314 
L 241.516173 174.335314 
L 241.516173 170.562904 
L 243.55897 170.562904 
L 243.603433 163.018086 
L 243.802902 163.018086 
L 243.802902 159.245677 
L 244.221962 159.245677 
L 244.221962 155.473267 
L 244.44202 155.473267 
L 244.44202 151.700858 
L 244.711734 151.700858 
L 244.711734 147.928449 
L 245.002809 147.928449 
L 245.109675 140.38363 
L 245.157164 140.38363 
L 245.15857 132.838812 
L 245.531421 132.838812 
L 245.531421 129.066403 
L 245.986437 129.066403 
L 246.06074 117.749175 
L 246.126644 117.749175 
L 246.131107 110.204356 
L 246.277261 110.204356 
L 246.365116 98.887129 
L 246.840188 98.887129 
L 246.840188 95.114719 
L 247.063945 95.114719 
L 247.171447 87.569901 
L 247.326313 87.569901 
L 247.326313 83.797492 
L 248.740845 83.797492 
L 248.740845 80.025083 
L 249.192123 80.025083 
L 249.192123 76.252673 
L 251.8098 76.252673 
L 251.8098 72.480264 
L 252.231976 72.480264 
L 252.231976 68.707855 
L 259.160294 68.707855 
L 259.160294 64.935446 
L 269.854313 64.935446 
L 269.854313 61.163036 
L 271.049766 61.163036 
L 271.049766 57.390627 
L 271.588221 57.390627 
L 271.588221 53.618218 
L 273.130947 53.618218 
L 273.130947 49.845809 
L 273.375378 49.845809 
L 273.473826 38.528581 
L 273.616572 38.528581 
L 273.616572 34.756172 
L 273.871471 34.756172 
L 273.871471 30.983762 
L 274.522208 30.983762 
L 274.522208 27.211353 
L 274.917619 27.211353 
L 274.975344 19.666535 
L 275.685329 19.666535 
L 275.685329 15.894125 
L 277.712382 15.894125 
L 277.712382 12.121716 
L 281.620049 12.121716 
L 281.620049 8.349307 
L 281.620049 8.349307 
L 450.672 8.349307 
L 450.672 8.349307 
" style="fill:none;stroke:#000000;stroke-linecap:square;stroke-width:1.5;"/>
   </g>
   <g id="line2d_27">
    <path clip-path="url(#pfb7c7362fd)" d="M 223.676781 291.28 
L 223.676781 287.507591 
L 223.973761 287.507591 
L 223.973761 283.735182 
L 224.168897 283.735182 
L 224.168897 279.962772 
L 224.580998 279.962772 
L 224.602907 272.417954 
L 224.852532 272.417954 
L 224.85262 264.873135 
L 225.178469 264.873135 
L 225.178469 261.100726 
L 225.404275 261.100726 
L 225.471685 253.555908 
L 225.825207 253.555908 
L 225.933273 246.011089 
L 225.985084 246.011089 
L 226.066604 238.466271 
L 226.241393 238.466271 
L 226.241393 234.693861 
L 227.164628 234.693861 
L 227.232623 227.149043 
L 227.588479 227.149043 
L 227.628429 219.604224 
L 228.306509 219.604224 
L 228.310324 212.059406 
L 228.503344 212.059406 
L 228.584857 200.742178 
L 228.66824 200.742178 
L 228.66824 196.969769 
L 229.233097 196.969769 
L 229.233097 193.19736 
L 229.59182 193.19736 
L 229.59182 189.42495 
L 230.792971 189.42495 
L 230.792971 185.652541 
L 231.122289 185.652541 
L 231.122289 181.880132 
L 231.930327 181.880132 
L 231.930327 178.107723 
L 238.409297 178.107723 
L 238.409297 174.335314 
L 238.720507 174.335314 
L 238.720507 170.562904 
L 239.502925 170.562904 
L 239.502925 166.790495 
L 239.795664 166.790495 
L 239.795664 163.018086 
L 240.826655 163.018086 
L 240.826655 159.245677 
L 241.587642 159.245677 
L 241.587642 155.473267 
L 241.929412 155.473267 
L 241.929412 151.700858 
L 242.551523 151.700858 
L 242.551523 147.928449 
L 242.727834 147.928449 
L 242.727834 144.15604 
L 243.118875 144.15604 
L 243.212704 129.066403 
L 243.33991 129.066403 
L 243.409797 113.976766 
L 243.55897 113.976766 
L 243.627728 98.887129 
L 244.107488 98.887129 
L 244.107488 95.114719 
L 244.221962 95.114719 
L 244.283351 87.569901 
L 244.561251 87.569901 
L 244.561251 83.797492 
L 244.876146 83.797492 
L 244.953949 76.252673 
L 245.358265 76.252673 
L 245.358265 72.480264 
L 248.1897 72.480264 
L 248.1897 68.707855 
L 251.481369 68.707855 
L 251.481369 64.935446 
L 268.442345 64.935446 
L 268.442345 61.163036 
L 269.274789 61.163036 
L 269.274789 57.390627 
L 269.63899 57.390627 
L 269.63899 53.618218 
L 269.854313 53.618218 
L 269.854313 49.845809 
L 270.626265 49.845809 
L 270.626265 46.073399 
L 270.749338 46.073399 
L 270.858413 38.528581 
L 270.96197 38.528581 
L 270.96197 34.756172 
L 271.285785 34.756172 
L 271.285785 30.983762 
L 271.509137 30.983762 
L 271.509137 27.211353 
L 271.902829 27.211353 
L 271.902829 23.438944 
L 272.789918 23.438944 
L 272.789918 19.666535 
L 273.390637 19.666535 
L 273.390637 15.894125 
L 274.013105 15.894125 
L 274.013105 12.121716 
L 275.97955 12.121716 
L 275.97955 8.349307 
L 275.97955 8.349307 
L 450.672 8.349307 
L 450.672 8.349307 
" style="fill:none;stroke:#00bfbf;stroke-linecap:square;stroke-width:1.5;"/>
   </g>
   <g id="line2d_28">
    <path clip-path="url(#pfb7c7362fd)" d="M 215.937571 291.28 
L 215.937571 287.507591 
L 217.863504 287.507591 
L 217.863504 283.735182 
L 218.055906 283.735182 
L 218.055906 279.962772 
L 218.358319 279.962772 
L 218.358319 276.190363 
L 219.392951 276.190363 
L 219.392951 272.417954 
L 219.927878 272.417954 
L 219.927878 268.645545 
L 220.194718 268.645545 
L 220.194718 264.873135 
L 220.54696 264.873135 
L 220.54696 261.100726 
L 220.932033 261.100726 
L 220.932033 257.328317 
L 221.103611 257.328317 
L 221.12119 249.783498 
L 221.231168 249.783498 
L 221.231168 246.011089 
L 221.600365 246.011089 
L 221.708265 238.466271 
L 221.774163 238.466271 
L 221.774163 234.693861 
L 222.552548 234.693861 
L 222.552548 230.921452 
L 222.748029 230.921452 
L 222.841194 219.604224 
L 223.382421 219.604224 
L 223.382421 215.831815 
L 223.535668 215.831815 
L 223.535668 212.059406 
L 223.787478 212.059406 
L 223.787478 208.286997 
L 223.926873 208.286997 
L 223.942217 200.742178 
L 224.047482 200.742178 
L 224.047509 193.19736 
L 224.252911 193.19736 
L 224.252911 189.42495 
L 224.5538 189.42495 
L 224.596992 181.880132 
L 225.126184 181.880132 
L 225.126184 178.107723 
L 230.965753 178.107723 
L 230.965753 174.335314 
L 232.714791 174.335314 
L 232.714791 170.562904 
L 232.951496 170.562904 
L 232.951496 166.790495 
L 233.667861 166.790495 
L 233.667861 163.018086 
L 234.225123 163.018086 
L 234.225123 159.245677 
L 234.591775 159.245677 
L 234.591775 155.473267 
L 234.846061 155.473267 
L 234.846061 151.700858 
L 235.172943 151.700858 
L 235.172943 147.928449 
L 235.735661 147.928449 
L 235.833717 140.38363 
L 236.283033 140.38363 
L 236.323834 132.838812 
L 237.202957 132.838812 
L 237.202957 129.066403 
L 237.731361 129.066403 
L 237.731361 125.293993 
L 238.184343 125.293993 
L 238.184343 121.521584 
L 238.720507 121.521584 
L 238.720507 117.749175 
L 239.210266 117.749175 
L 239.313429 110.204356 
L 239.323417 110.204356 
L 239.415107 102.659538 
L 239.480238 102.659538 
L 239.502925 95.114719 
L 239.760033 95.114719 
L 239.760033 91.34231 
L 240.111989 91.34231 
L 240.122635 83.797492 
L 240.349372 83.797492 
L 240.349372 80.025083 
L 240.609319 80.025083 
L 240.609319 76.252673 
L 241.018985 76.252673 
L 241.018985 72.480264 
L 241.235312 72.480264 
L 241.235312 68.707855 
L 241.378203 68.707855 
L 241.378203 64.935446 
L 261.776661 64.935446 
L 261.776661 61.163036 
L 262.529132 61.163036 
L 262.529132 57.390627 
L 262.769674 57.390627 
L 262.769674 53.618218 
L 263.181694 53.618218 
L 263.268102 46.073399 
L 263.808702 46.073399 
L 263.808702 42.30099 
L 264.410223 42.30099 
L 264.410223 38.528581 
L 264.632205 38.528581 
L 264.662561 30.983762 
L 264.833734 30.983762 
L 264.833734 27.211353 
L 265.312001 27.211353 
L 265.312001 23.438944 
L 265.649126 23.438944 
L 265.649126 19.666535 
L 266.479602 19.666535 
L 266.479602 15.894125 
L 266.632475 15.894125 
L 266.632475 12.121716 
L 269.16169 12.121716 
L 269.16169 8.349307 
L 269.16169 8.349307 
L 450.672 8.349307 
L 450.672 8.349307 
" style="fill:none;stroke:#bf00bf;stroke-linecap:square;stroke-width:1.5;"/>
   </g>
   <g id="line2d_29">
    <path clip-path="url(#pfb7c7362fd)" d="M 129.361237 291.28 
L 129.361237 287.507591 
L 133.471943 287.507591 
L 133.471943 283.735182 
L 137.803515 283.735182 
L 137.803515 279.962772 
L 138.675608 279.962772 
L 138.675608 276.190363 
L 142.111807 276.190363 
L 142.111807 272.417954 
L 142.366189 272.417954 
L 142.366189 268.645545 
L 142.939905 268.645545 
L 142.939905 264.873135 
L 144.726192 264.873135 
L 144.726192 261.100726 
L 145.105689 261.100726 
L 145.105689 257.328317 
L 145.477847 257.328317 
L 145.477847 253.555908 
L 146.591573 253.555908 
L 146.591573 249.783498 
L 147.952483 249.783498 
L 147.99136 242.23868 
L 149.092544 242.23868 
L 149.092544 238.466271 
L 154.376088 238.466271 
L 154.376088 234.693861 
L 154.976917 234.693861 
L 154.976917 230.921452 
L 156.878291 230.921452 
L 156.878291 227.149043 
L 157.741146 227.149043 
L 157.741146 223.376634 
L 159.130998 223.376634 
L 159.130998 219.604224 
L 159.383413 219.604224 
L 159.383413 215.831815 
L 161.56646 215.831815 
L 161.624338 208.286997 
L 162.529116 208.286997 
L 162.529116 204.514587 
L 163.153922 204.514587 
L 163.153922 200.742178 
L 163.926867 200.742178 
L 163.926867 196.969769 
L 166.831264 196.969769 
L 166.831264 193.19736 
L 167.115018 193.19736 
L 167.115018 189.42495 
L 168.259029 189.42495 
L 168.259029 185.652541 
L 170.604246 185.652541 
L 170.604246 181.880132 
L 170.860982 181.880132 
L 170.860982 178.107723 
L 175.379537 178.107723 
L 175.379537 174.335314 
L 179.19115 174.335314 
L 179.19115 170.562904 
L 179.81431 170.562904 
L 179.81431 166.790495 
L 180.621434 166.790495 
L 180.621434 163.018086 
L 182.820792 163.018086 
L 182.820792 159.245677 
L 186.002451 159.245677 
L 186.002451 155.473267 
L 186.652993 155.473267 
L 186.652993 151.700858 
L 187.674212 151.700858 
L 187.674212 147.928449 
L 193.594079 147.928449 
L 193.594079 144.15604 
L 194.069029 144.15604 
L 194.069029 140.38363 
L 196.873154 140.38363 
L 196.873154 136.611221 
L 199.516376 136.611221 
L 199.516376 132.838812 
L 204.393779 132.838812 
L 204.393779 129.066403 
L 204.792256 129.066403 
L 204.792256 125.293993 
L 205.958778 125.293993 
L 205.958778 121.521584 
L 208.91811 121.521584 
L 208.91811 117.749175 
L 213.397798 117.749175 
L 213.397798 113.976766 
L 216.232987 113.976766 
L 216.232987 110.204356 
L 217.206546 110.204356 
L 217.206546 106.431947 
L 217.860875 106.431947 
L 217.968011 98.887129 
L 217.989609 98.887129 
L 217.989609 95.114719 
L 219.073957 95.114719 
L 219.178964 83.797492 
L 219.23791 83.797492 
L 219.23791 80.025083 
L 219.506683 80.025083 
L 219.506683 76.252673 
L 219.748946 76.252673 
L 219.748946 72.480264 
L 220.071321 72.480264 
L 220.071321 68.707855 
L 220.246093 68.707855 
L 220.246093 64.935446 
L 220.568728 64.935446 
L 220.568728 61.163036 
L 222.48643 61.163036 
L 222.48643 57.390627 
L 222.850853 57.390627 
L 222.850853 53.618218 
L 226.968014 53.618218 
L 227.029133 46.073399 
L 227.429334 46.073399 
L 227.429334 42.30099 
L 227.796166 42.30099 
L 227.867885 34.756172 
L 227.999004 34.756172 
L 227.999004 30.983762 
L 230.482246 30.983762 
L 230.482246 27.211353 
L 234.288153 27.211353 
L 234.288153 23.438944 
L 238.819156 23.438944 
L 238.819156 19.666535 
L 253.466716 19.666535 
L 253.473428 12.121716 
L 255.575866 12.121716 
L 255.575866 8.349307 
L 255.575866 8.349307 
L 450.672 8.349307 
L 450.672 8.349307 
" style="fill:none;stroke:#000000;stroke-linecap:square;stroke-width:1.5;"/>
   </g>
   <g id="line2d_30">
    <path clip-path="url(#pfb7c7362fd)" d="M -1 272.417954 
L 31.045506 272.417954 
L 31.045506 268.645545 
L 42.985524 268.645545 
L 43.04769 261.100726 
L 62.647272 261.100726 
L 62.647272 257.328317 
L 66.442098 257.328317 
L 66.442098 253.555908 
L 70.337525 253.555908 
L 70.337525 249.783498 
L 75.103585 249.783498 
L 75.103585 246.011089 
L 80.712542 246.011089 
L 80.712542 242.23868 
L 87.493523 242.23868 
L 87.493523 238.466271 
L 88.399965 238.466271 
L 88.399965 234.693861 
L 96.777096 234.693861 
L 96.777096 230.921452 
L 96.914055 230.921452 
L 96.914055 227.149043 
L 103.808416 227.149043 
L 103.808416 223.376634 
L 104.678625 223.376634 
L 104.678625 219.604224 
L 110.613182 219.604224 
L 110.613182 215.831815 
L 111.21008 215.831815 
L 111.21008 212.059406 
L 111.45588 212.059406 
L 111.45588 208.286997 
L 114.787571 208.286997 
L 114.787571 204.514587 
L 117.75288 204.514587 
L 117.75288 200.742178 
L 119.444871 200.742178 
L 119.444871 196.969769 
L 121.773653 196.969769 
L 121.773653 193.19736 
L 124.643138 193.19736 
L 124.643138 189.42495 
L 127.236081 189.42495 
L 127.236081 185.652541 
L 135.434338 185.652541 
L 135.434338 181.880132 
L 135.742617 181.880132 
L 135.742617 178.107723 
L 139.403257 178.107723 
L 139.403257 174.335314 
L 143.195459 174.335314 
L 143.195459 170.562904 
L 149.991677 170.562904 
L 149.991677 166.790495 
L 157.08485 166.790495 
L 157.08485 163.018086 
L 160.319386 163.018086 
L 160.319386 159.245677 
L 161.416892 159.245677 
L 161.416892 155.473267 
L 163.347977 155.473267 
L 163.347977 151.700858 
L 166.150158 151.700858 
L 166.150158 147.928449 
L 169.469626 147.928449 
L 169.469626 144.15604 
L 172.317575 144.15604 
L 172.317575 140.38363 
L 173.51485 140.38363 
L 173.51485 136.611221 
L 174.151546 136.611221 
L 174.151546 132.838812 
L 174.639003 132.838812 
L 174.639003 129.066403 
L 179.415805 129.066403 
L 179.415805 125.293993 
L 179.828906 125.293993 
L 179.828906 121.521584 
L 180.77557 121.521584 
L 180.77557 117.749175 
L 181.144114 117.749175 
L 181.144114 113.976766 
L 184.479131 113.976766 
L 184.479131 110.204356 
L 185.338394 110.204356 
L 185.382867 102.659538 
L 185.882903 102.659538 
L 185.882903 98.887129 
L 186.63697 98.887129 
L 186.63697 95.114719 
L 187.510543 95.114719 
L 187.510543 91.34231 
L 188.343457 91.34231 
L 188.343457 87.569901 
L 188.625397 87.569901 
L 188.625397 83.797492 
L 188.974165 83.797492 
L 188.974165 80.025083 
L 189.349845 80.025083 
L 189.349845 76.252673 
L 189.609355 76.252673 
L 189.609355 72.480264 
L 189.846692 72.480264 
L 189.846692 68.707855 
L 190.544482 68.707855 
L 190.544482 64.935446 
L 212.780007 64.935446 
L 212.780007 57.390627 
L 217.180105 57.390627 
L 217.180105 53.618218 
L 220.302025 53.618218 
L 220.302025 46.073399 
L 222.723573 46.073399 
L 222.723573 38.528581 
L 226.374963 38.528581 
L 226.374963 19.666535 
L 227.824042 19.666535 
L 227.824042 12.121716 
L 230.245591 12.121716 
L 230.245591 8.349307 
L 230.245591 8.349307 
L 450.672 8.349307 
L 450.672 8.349307 
" style="fill:none;stroke:#00bfbf;stroke-linecap:square;stroke-width:1.5;"/>
   </g>
   <g id="patch_3">
    <path d="M 5.52 291.28 
L 5.52 5.52 
" style="fill:none;stroke:#000000;stroke-linecap:square;stroke-linejoin:miter;stroke-width:0.8;"/>
   </g>
   <g id="patch_4">
    <path d="M 450.672 291.28 
L 450.672 5.52 
" style="fill:none;stroke:#000000;stroke-linecap:square;stroke-linejoin:miter;stroke-width:0.8;"/>
   </g>
   <g id="patch_5">
    <path d="M 5.52 291.28 
L 450.672 291.28 
" style="fill:none;stroke:#000000;stroke-linecap:square;stroke-linejoin:miter;stroke-width:0.8;"/>
   </g>
   <g id="patch_6">
    <path d="M 5.52 5.52 
L 450.672 5.52 
" style="fill:none;stroke:#000000;stroke-linecap:square;stroke-linejoin:miter;stroke-width:0.8;"/>
   </g>
   <g id="text_6">
    <!-- {f15-f19}, 20-D -->
    <defs>
     <path d="M 51.125 -9.28125 
L 51.125 -16.3125 
L 48.09375 -16.3125 
Q 35.9375 -16.3125 31.8125 -12.6875 
Q 27.6875 -9.078125 27.6875 1.703125 
L 27.6875 13.375 
Q 27.6875 20.75 25.046875 23.578125 
Q 22.40625 26.421875 15.484375 26.421875 
L 12.5 26.421875 
L 12.5 33.40625 
L 15.484375 33.40625 
Q 22.46875 33.40625 25.078125 36.203125 
Q 27.6875 39.015625 27.6875 46.296875 
L 27.6875 58.015625 
Q 27.6875 68.796875 31.8125 72.390625 
Q 35.9375 75.984375 48.09375 75.984375 
L 51.125 75.984375 
L 51.125 69 
L 47.796875 69 
Q 40.921875 69 38.8125 66.84375 
Q 36.71875 64.703125 36.71875 57.8125 
L 36.71875 45.703125 
Q 36.71875 38.03125 34.5 34.5625 
Q 32.28125 31.109375 26.90625 29.890625 
Q 32.328125 28.5625 34.515625 25.09375 
Q 36.71875 21.625 36.71875 14.015625 
L 36.71875 1.90625 
Q 36.71875 -4.984375 38.8125 -7.125 
Q 40.921875 -9.28125 47.796875 -9.28125 
z
" id="DejaVuSans-7b"/>
     <path d="M 10.796875 72.90625 
L 49.515625 72.90625 
L 49.515625 64.59375 
L 19.828125 64.59375 
L 19.828125 46.734375 
Q 21.96875 47.46875 24.109375 47.828125 
Q 26.265625 48.1875 28.421875 48.1875 
Q 40.625 48.1875 47.75 41.5 
Q 54.890625 34.8125 54.890625 23.390625 
Q 54.890625 11.625 47.5625 5.09375 
Q 40.234375 -1.421875 26.90625 -1.421875 
Q 22.3125 -1.421875 17.546875 -0.640625 
Q 12.796875 0.140625 7.71875 1.703125 
L 7.71875 11.625 
Q 12.109375 9.234375 16.796875 8.0625 
Q 21.484375 6.890625 26.703125 6.890625 
Q 35.15625 6.890625 40.078125 11.328125 
Q 45.015625 15.765625 45.015625 23.390625 
Q 45.015625 31 40.078125 35.4375 
Q 35.15625 39.890625 26.703125 39.890625 
Q 22.75 39.890625 18.8125 39.015625 
Q 14.890625 38.140625 10.796875 36.28125 
z
" id="DejaVuSans-35"/>
     <path d="M 10.984375 1.515625 
L 10.984375 10.5 
Q 14.703125 8.734375 18.5 7.8125 
Q 22.3125 6.890625 25.984375 6.890625 
Q 35.75 6.890625 40.890625 13.453125 
Q 46.046875 20.015625 46.78125 33.40625 
Q 43.953125 29.203125 39.59375 26.953125 
Q 35.25 24.703125 29.984375 24.703125 
Q 19.046875 24.703125 12.671875 31.3125 
Q 6.296875 37.9375 6.296875 49.421875 
Q 6.296875 60.640625 12.9375 67.421875 
Q 19.578125 74.21875 30.609375 74.21875 
Q 43.265625 74.21875 49.921875 64.515625 
Q 56.59375 54.828125 56.59375 36.375 
Q 56.59375 19.140625 48.40625 8.859375 
Q 40.234375 -1.421875 26.421875 -1.421875 
Q 22.703125 -1.421875 18.890625 -0.6875 
Q 15.09375 0.046875 10.984375 1.515625 
z
M 30.609375 32.421875 
Q 37.25 32.421875 41.125 36.953125 
Q 45.015625 41.5 45.015625 49.421875 
Q 45.015625 57.28125 41.125 61.84375 
Q 37.25 66.40625 30.609375 66.40625 
Q 23.96875 66.40625 20.09375 61.84375 
Q 16.21875 57.28125 16.21875 49.421875 
Q 16.21875 41.5 20.09375 36.953125 
Q 23.96875 32.421875 30.609375 32.421875 
z
" id="DejaVuSans-39"/>
     <path d="M 12.5 -9.28125 
L 15.921875 -9.28125 
Q 22.75 -9.28125 24.828125 -7.171875 
Q 26.90625 -5.078125 26.90625 1.90625 
L 26.90625 14.015625 
Q 26.90625 21.625 29.09375 25.09375 
Q 31.296875 28.5625 36.71875 29.890625 
Q 31.296875 31.109375 29.09375 34.5625 
Q 26.90625 38.03125 26.90625 45.703125 
L 26.90625 57.8125 
Q 26.90625 64.75 24.828125 66.875 
Q 22.75 69 15.921875 69 
L 12.5 69 
L 12.5 75.984375 
L 15.578125 75.984375 
Q 27.734375 75.984375 31.8125 72.390625 
Q 35.890625 68.796875 35.890625 58.015625 
L 35.890625 46.296875 
Q 35.890625 39.015625 38.515625 36.203125 
Q 41.15625 33.40625 48.09375 33.40625 
L 51.125 33.40625 
L 51.125 26.421875 
L 48.09375 26.421875 
Q 41.15625 26.421875 38.515625 23.578125 
Q 35.890625 20.75 35.890625 13.375 
L 35.890625 1.703125 
Q 35.890625 -9.078125 31.8125 -12.6875 
Q 27.734375 -16.3125 15.578125 -16.3125 
L 12.5 -16.3125 
z
" id="DejaVuSans-7d"/>
     <path d="M 11.71875 12.40625 
L 22.015625 12.40625 
L 22.015625 4 
L 14.015625 -11.625 
L 7.71875 -11.625 
L 11.71875 4 
z
" id="DejaVuSans-2c"/>
     <path d="M 19.1875 8.296875 
L 53.609375 8.296875 
L 53.609375 0 
L 7.328125 0 
L 7.328125 8.296875 
Q 12.9375 14.109375 22.625 23.890625 
Q 32.328125 33.6875 34.8125 36.53125 
Q 39.546875 41.84375 41.421875 45.53125 
Q 43.3125 49.21875 43.3125 52.78125 
Q 43.3125 58.59375 39.234375 62.25 
Q 35.15625 65.921875 28.609375 65.921875 
Q 23.96875 65.921875 18.8125 64.3125 
Q 13.671875 62.703125 7.8125 59.421875 
L 7.8125 69.390625 
Q 13.765625 71.78125 18.9375 73 
Q 24.125 74.21875 28.421875 74.21875 
Q 39.75 74.21875 46.484375 68.546875 
Q 53.21875 62.890625 53.21875 53.421875 
Q 53.21875 48.921875 51.53125 44.890625 
Q 49.859375 40.875 45.40625 35.40625 
Q 44.1875 33.984375 37.640625 27.21875 
Q 31.109375 20.453125 19.1875 8.296875 
z
" id="DejaVuSans-32"/>
    </defs>
    <g transform="translate(283.34396 285.5648)scale(0.2 -0.2)">
     <use xlink:href="#DejaVuSans-7b"/>
     <use x="63.623047" xlink:href="#DejaVuSans-66"/>
     <use x="98.828125" xlink:href="#DejaVuSans-31"/>
     <use x="162.451172" xlink:href="#DejaVuSans-35"/>
     <use x="226.074219" xlink:href="#DejaVuSans-2d"/>
     <use x="262.158203" xlink:href="#DejaVuSans-66"/>
     <use x="297.363281" xlink:href="#DejaVuSans-31"/>
     <use x="360.986328" xlink:href="#DejaVuSans-39"/>
     <use x="424.609375" xlink:href="#DejaVuSans-7d"/>
     <use x="488.232422" xlink:href="#DejaVuSans-2c"/>
     <use x="520.019531" xlink:href="#DejaVuSans-20"/>
     <use x="551.806641" xlink:href="#DejaVuSans-32"/>
     <use x="615.429688" xlink:href="#DejaVuSans-30"/>
     <use x="679.052734" xlink:href="#DejaVuSans-2d"/>
     <use x="715.136719" xlink:href="#DejaVuSans-44"/>
    </g>
   </g>
   <g id="text_7">
    <!-- v0.0.0 -->
    <defs>
     <path d="M 2.984375 54.6875 
L 12.5 54.6875 
L 29.59375 8.796875 
L 46.6875 54.6875 
L 56.203125 54.6875 
L 35.6875 0 
L 23.484375 0 
z
" id="DejaVuSans-76"/>
     <path d="M 10.6875 12.40625 
L 21 12.40625 
L 21 0 
L 10.6875 0 
z
" id="DejaVuSans-2e"/>
    </defs>
    <g style="fill:#808080;" transform="translate(212.41475 286.342713)scale(0.1 -0.1)">
     <use xlink:href="#DejaVuSans-76"/>
     <use x="59.179688" xlink:href="#DejaVuSans-30"/>
     <use x="122.802734" xlink:href="#DejaVuSans-2e"/>
     <use x="154.589844" xlink:href="#DejaVuSans-30"/>
     <use x="218.212891" xlink:href="#DejaVuSans-2e"/>
     <use x="250" xlink:href="#DejaVuSans-30"/>
    </g>
   </g>
  </g>
 </g>
 <defs>
  <clipPath id="pfb7c7362fd">
   <rect height="285.76" width="445.152" x="5.52" y="5.52"/>
  </clipPath>
 </defs>
</svg>
