<?xml version="1.0" encoding="utf-8" standalone="no"?>
<!DOCTYPE svg PUBLIC "-//W3C//DTD SVG 1.1//EN"
  "http://www.w3.org/Graphics/SVG/1.1/DTD/svg11.dtd">
<!-- Created with matplotlib (http://matplotlib.org/) -->
<svg height="345.6pt" version="1.1" viewBox="0 0 460.8 345.6" width="460.8pt" xmlns="http://www.w3.org/2000/svg" xmlns:xlink="http://www.w3.org/1999/xlink">
 <defs>
  <style type="text/css">
*{stroke-linecap:butt;stroke-linejoin:round;}
  </style>
 </defs>
 <g id="figure_1">
  <g id="patch_1">
   <path d="M 0 345.6 
L 460.8 345.6 
L 460.8 0 
L 0 0 
z
" style="fill:#ffffff;"/>
  </g>
  <g id="axes_1">
   <g id="patch_2">
    <path d="M 59.72 291.28 
L 450.672 291.28 
L 450.672 6.845228 
L 59.72 6.845228 
z
" style="fill:#ffffff;"/>
   </g>
   <g id="line2d_1"/>
   <g id="line2d_2">
    <path clip-path="url(#p54a92f5076)" d="M 370.460289 291.28 
L 370.460289 280.015257 
L 374.474893 280.015257 
L 374.474893 268.750513 
L 374.474893 268.750513 
L 374.474893 268.750513 
L 450.672 268.750513 
" style="fill:none;stroke:#f5deb3;stroke-linecap:square;stroke-width:1.5;"/>
   </g>
   <g id="line2d_3"/>
   <g id="line2d_4"/>
   <g id="line2d_5"/>
   <g id="line2d_6"/>
   <g id="line2d_7">
    <path clip-path="url(#p54a92f5076)" d="M 335.650398 291.28 
L 335.650398 287.525086 
L 359.571593 287.525086 
L 359.571593 283.770171 
L 365.439108 283.770171 
L 365.439108 280.015257 
L 365.944835 280.015257 
L 365.944835 276.260342 
L 366.617703 276.260342 
L 366.617703 272.505428 
L 371.043945 272.505428 
L 371.043945 268.750513 
L 371.254512 268.750513 
L 371.254512 264.995599 
L 373.486954 264.995599 
L 373.486954 261.240684 
L 379.056492 261.240684 
L 379.056492 257.48577 
L 384.136996 257.48577 
L 384.136996 253.730855 
L 384.50587 253.730855 
L 384.50587 249.975941 
L 385.789612 249.975941 
L 385.789612 246.221026 
L 395.914472 246.221026 
L 395.914472 242.466112 
L 400.486466 242.466112 
L 400.486466 238.711197 
L 403.470341 238.711197 
L 403.470341 234.956283 
L 407.063191 234.956283 
L 407.063191 231.201368 
L 408.752845 231.201368 
L 408.752845 227.446454 
L 410.083181 227.446454 
L 410.083181 223.691539 
L 413.554313 223.691539 
L 413.601225 216.18171 
L 413.698804 216.18171 
L 413.698804 212.426796 
L 414.876139 212.426796 
L 414.876139 208.671881 
L 419.13535 208.671881 
L 419.13535 204.916967 
L 423.69579 204.916967 
L 423.69579 201.162052 
L 432.660443 201.162052 
L 432.660443 197.407138 
L 433.187993 197.407138 
L 433.187993 193.652223 
L 436.567963 193.652223 
L 436.567963 189.897309 
L 441.023324 189.897309 
L 441.023324 186.142394 
L 443.329302 186.142394 
L 443.329302 182.38748 
L 445.680406 182.38748 
L 445.680406 178.632565 
L 450.584505 178.632565 
L 450.584505 174.877651 
L 452.431924 174.877651 
L 452.431924 171.122736 
L 453.104783 171.122736 
L 453.104783 167.367822 
L 456.952715 167.367822 
L 456.952715 163.612907 
L 458.491475 163.612907 
L 458.491475 159.857993 
L 461.8 159.857993 
L 461.8 159.857993 
" style="fill:none;stroke:#f5deb3;stroke-linecap:square;stroke-width:1.5;"/>
   </g>
   <g id="line2d_8">
    <path clip-path="url(#p54a92f5076)" d="M 353.212448 291.28 
L 353.212448 287.525086 
L 354.587239 287.525086 
L 354.587239 283.770171 
L 355.009638 283.770171 
L 355.009638 280.015257 
L 355.185637 280.015257 
L 355.185637 276.260342 
L 355.689888 276.260342 
L 355.689888 272.505428 
L 355.704801 272.505428 
L 355.704801 268.750513 
L 370.031053 268.750513 
L 370.031053 264.995599 
L 370.888489 264.995599 
L 370.888489 261.240684 
L 371.49597 261.240684 
L 371.49597 257.48577 
L 371.568736 257.48577 
L 371.568736 253.730855 
L 372.000024 253.730855 
L 372.000024 249.975941 
L 372.40936 249.975941 
L 372.40936 246.221026 
L 372.415259 246.221026 
L 372.415259 242.466112 
L 372.774546 242.466112 
L 372.774546 238.711197 
L 372.790947 238.711197 
L 372.790947 234.956283 
L 373.083663 234.956283 
L 373.083663 231.201368 
L 374.581199 231.201368 
L 374.581199 227.446454 
L 410.57326 227.446454 
L 410.57326 223.691539 
L 411.119222 223.691539 
L 411.119222 219.936625 
L 411.119222 219.936625 
L 411.119222 219.936625 
L 450.672 219.936625 
" style="fill:none;stroke:#f5deb3;stroke-linecap:square;stroke-width:1.5;"/>
   </g>
   <g id="line2d_9">
    <path clip-path="url(#p54a92f5076)" d="M 237.651811 291.28 
L 237.651811 287.525086 
L 275.667079 287.525086 
L 275.667079 283.770171 
L 276.24393 283.770171 
L 276.24393 280.015257 
L 276.956129 280.015257 
L 276.956129 276.260342 
L 279.981771 276.260342 
L 279.981771 272.505428 
L 284.064026 272.505428 
L 284.064026 268.750513 
L 284.537431 268.750513 
L 284.537431 264.995599 
L 284.697492 264.995599 
L 284.697492 261.240684 
L 285.56381 261.240684 
L 285.574908 253.730855 
L 285.82911 253.730855 
L 285.82911 249.975941 
L 286.146777 249.975941 
L 286.146777 246.221026 
L 293.358154 246.221026 
L 293.358154 242.466112 
L 298.325936 242.466112 
L 298.325936 238.711197 
L 299.095368 238.711197 
L 299.095368 234.956283 
L 299.992104 234.956283 
L 299.992104 231.201368 
L 300.716059 231.201368 
L 300.716059 227.446454 
L 301.827367 227.446454 
L 301.880766 219.936625 
L 306.43327 219.936625 
L 306.43327 216.18171 
L 307.460915 216.18171 
L 307.460915 212.426796 
L 308.301438 212.426796 
L 308.301438 208.671881 
L 308.543396 208.671881 
L 308.543396 204.916967 
L 308.810409 204.916967 
L 308.810409 201.162052 
L 308.936398 201.162052 
L 309.016558 193.652223 
L 309.125787 193.652223 
L 309.125787 189.897309 
L 309.361619 189.897309 
L 309.361619 186.142394 
L 310.349454 186.142394 
L 310.446582 178.632565 
L 310.619659 178.632565 
L 310.619659 174.877651 
L 311.050807 174.877651 
L 311.050807 171.122736 
L 311.685612 171.122736 
L 311.685612 167.367822 
L 312.621988 167.367822 
L 312.6625 159.857993 
L 313.102431 159.857993 
L 313.102431 156.103079 
L 314.046784 156.103079 
L 314.131062 148.59325 
L 317.88132 148.59325 
L 317.88132 144.838335 
L 323.336217 144.838335 
L 323.336217 141.083421 
L 323.596267 141.083421 
L 323.633487 133.573592 
L 324.722261 133.573592 
L 324.722261 129.818677 
L 328.564786 129.818677 
L 328.564786 126.063763 
L 330.309489 126.063763 
L 330.309489 122.308848 
L 331.332125 122.308848 
L 331.332125 118.553934 
L 333.493841 118.553934 
L 333.493841 114.799019 
L 333.940602 114.799019 
L 333.940602 111.044105 
L 334.895654 111.044105 
L 334.895654 107.28919 
L 335.622501 107.28919 
L 335.622501 103.534276 
L 335.797617 103.534276 
L 335.797617 99.779361 
L 340.351338 99.779361 
L 340.351338 96.024447 
L 341.956783 96.024447 
L 341.98349 88.514618 
L 342.455749 88.514618 
L 342.455749 84.759703 
L 342.800551 84.759703 
L 342.800551 81.004789 
L 342.94151 81.004789 
L 342.94151 77.249874 
L 345.003776 77.249874 
L 345.003776 73.49496 
L 347.186951 73.49496 
L 347.186951 69.740045 
L 347.373622 69.740045 
L 347.373622 65.985131 
L 350.126004 65.985131 
L 350.126004 62.230216 
L 352.368806 62.230216 
L 352.368806 58.475302 
L 354.983599 58.475302 
L 354.983599 54.720387 
L 355.553491 54.720387 
L 355.553491 50.965473 
L 369.377838 50.965473 
L 369.377838 47.210558 
L 375.301808 47.210558 
L 375.301808 43.455644 
L 375.428572 43.455644 
L 375.428572 39.700729 
L 378.414868 39.700729 
L 378.414868 35.945815 
L 386.845103 35.945815 
L 386.845103 32.1909 
L 388.34445 32.1909 
L 388.34445 28.435986 
L 392.623665 28.435986 
L 392.623665 24.681072 
L 397.377082 24.681072 
L 397.377082 20.926157 
L 398.951625 20.926157 
L 399.037807 13.416328 
L 411.602061 13.416328 
L 411.602061 9.661414 
L 411.602061 9.661414 
L 450.672 9.661414 
L 450.672 9.661414 
" style="fill:none;stroke:#f5deb3;stroke-linecap:square;stroke-width:1.5;"/>
   </g>
   <g id="line2d_10"/>
   <g id="line2d_11">
    <path clip-path="url(#p54a92f5076)" d="M 387.257378 291.28 
L 387.257378 287.525086 
L 432.88241 287.525086 
L 432.88241 283.770171 
L 439.594652 283.770171 
L 439.594652 280.015257 
L 446.686451 280.015257 
L 446.686451 276.260342 
L 447.850771 276.260342 
L 447.850771 272.505428 
L 461.8 272.505428 
" style="fill:none;stroke:#f5deb3;stroke-linecap:square;stroke-width:1.5;"/>
   </g>
   <g id="line2d_12"/>
   <g id="line2d_13"/>
   <g id="line2d_14"/>
   <g id="line2d_15"/>
   <g id="line2d_16"/>
   <g id="line2d_17">
    <path clip-path="url(#p54a92f5076)" d="M 346.990217 291.28 
L 346.990217 287.525086 
L 349.157688 287.525086 
L 349.157688 283.770171 
L 350.106773 283.770171 
L 350.106773 280.015257 
L 351.393788 280.015257 
L 351.393788 276.260342 
L 353.890788 276.260342 
L 353.890788 272.505428 
L 354.006283 272.505428 
L 354.006283 268.750513 
L 355.199524 268.750513 
L 355.199524 264.995599 
L 355.52914 264.995599 
L 355.52914 261.240684 
L 355.658799 261.240684 
L 355.658799 257.48577 
L 358.699299 257.48577 
L 358.699299 253.730855 
L 359.143716 253.730855 
L 359.143716 249.975941 
L 366.056542 249.975941 
L 366.056542 246.221026 
L 371.933847 246.221026 
L 371.933847 242.466112 
L 372.010106 242.466112 
L 372.010106 238.711197 
L 372.05488 238.711197 
L 372.05488 234.956283 
L 374.597045 234.956283 
L 374.597045 231.201368 
L 375.256293 231.201368 
L 375.256293 227.446454 
L 377.523369 227.446454 
L 377.523369 223.691539 
L 378.638473 223.691539 
L 378.638473 219.936625 
L 379.514648 219.936625 
L 379.514648 216.18171 
L 380.687738 216.18171 
L 380.687738 212.426796 
L 382.106977 212.426796 
L 382.106977 208.671881 
L 386.175805 208.671881 
L 386.175805 204.916967 
L 387.028083 204.916967 
L 387.028083 201.162052 
L 388.967937 201.162052 
L 388.967937 197.407138 
L 389.903417 197.407138 
L 389.903417 193.652223 
L 392.276128 193.652223 
L 392.276128 189.897309 
L 393.341214 189.897309 
L 393.341214 186.142394 
L 393.341214 186.142394 
L 393.341214 186.142394 
L 450.672 186.142394 
" style="fill:none;stroke:#f5deb3;stroke-linecap:square;stroke-width:1.5;"/>
   </g>
   <g id="line2d_18"/>
   <g id="line2d_19">
    <path clip-path="url(#p54a92f5076)" d="M 362.498135 291.28 
L 362.498135 287.525086 
L 392.658565 287.525086 
L 392.658565 283.770171 
L 401.412351 283.770171 
L 401.412351 280.015257 
L 404.319572 280.015257 
L 404.319572 276.260342 
L 411.840348 276.260342 
L 411.840348 272.505428 
L 416.804023 272.505428 
L 416.804023 268.750513 
L 417.809294 268.750513 
L 417.809294 264.995599 
L 419.018537 264.995599 
L 419.018537 261.240684 
L 421.199221 261.240684 
L 421.199221 257.48577 
L 423.256385 257.48577 
L 423.256385 253.730855 
L 423.423979 253.730855 
L 423.423979 249.975941 
L 424.638754 249.975941 
L 424.638754 246.221026 
L 427.345564 246.221026 
L 427.345564 242.466112 
L 436.621101 242.466112 
L 436.621101 238.711197 
L 437.503484 238.711197 
L 437.503484 234.956283 
L 438.770668 234.956283 
L 438.770668 231.201368 
L 440.798473 231.201368 
L 440.798473 227.446454 
L 450.516892 227.446454 
L 450.516892 223.691539 
L 451.167736 223.691539 
L 451.167736 219.936625 
L 458.541493 219.936625 
L 458.541493 216.18171 
L 459.24876 216.18171 
L 459.24876 212.426796 
L 461.453125 212.426796 
L 461.453125 208.671881 
L 461.8 208.671881 
L 461.8 208.671881 
" style="fill:none;stroke:#f5deb3;stroke-linecap:square;stroke-width:1.5;"/>
   </g>
   <g id="line2d_20">
    <path clip-path="url(#p54a92f5076)" d="M 348.356701 291.28 
L 348.356701 287.525086 
L 348.356701 287.525086 
L 348.356701 287.525086 
L 450.672 287.525086 
" style="fill:none;stroke:#f5deb3;stroke-linecap:square;stroke-width:1.5;"/>
   </g>
   <g id="line2d_21"/>
   <g id="line2d_22">
    <path clip-path="url(#p54a92f5076)" d="M 362.630017 291.28 
L 362.630017 287.525086 
L 381.845753 287.525086 
L 381.845753 283.770171 
L 401.326355 283.770171 
L 401.326355 280.015257 
L 410.769682 280.015257 
L 410.769682 276.260342 
L 425.224399 276.260342 
L 425.224399 272.505428 
L 425.224399 272.505428 
L 425.224399 272.505428 
L 450.672 272.505428 
" style="fill:none;stroke:#f5deb3;stroke-linecap:square;stroke-width:1.5;"/>
   </g>
   <g id="line2d_23">
    <path clip-path="url(#p54a92f5076)" d="M 379.61875 291.28 
L 379.61875 287.525086 
L 386.693902 287.525086 
L 386.693902 283.770171 
L 386.693902 283.770171 
L 386.693902 283.770171 
L 450.672 283.770171 
" style="fill:none;stroke:#f5deb3;stroke-linecap:square;stroke-width:1.5;"/>
   </g>
   <g id="line2d_24">
    <path clip-path="url(#p54a92f5076)" d="M 265.628406 291.28 
L 265.628406 287.525086 
L 268.448052 287.525086 
L 268.448052 283.770171 
L 270.171812 283.770171 
L 270.171812 280.015257 
L 274.371232 280.015257 
L 274.371232 276.260342 
L 277.086565 276.260342 
L 277.086565 272.505428 
L 327.365578 272.505428 
L 327.365578 268.750513 
L 328.983852 268.750513 
L 328.983852 264.995599 
L 329.35935 264.995599 
L 329.35935 261.240684 
L 329.491994 261.240684 
L 329.491994 257.48577 
L 330.759307 257.48577 
L 330.759307 253.730855 
L 331.039618 253.730855 
L 331.121361 246.221026 
L 332.440208 246.221026 
L 332.440208 242.466112 
L 332.74698 242.466112 
L 332.820678 234.956283 
L 332.986512 234.956283 
L 332.986512 231.201368 
L 333.293123 231.201368 
L 333.293123 227.446454 
L 335.495495 227.446454 
L 335.495495 223.691539 
L 337.495856 223.691539 
L 337.495856 219.936625 
L 337.99106 219.936625 
L 337.99106 216.18171 
L 338.177356 216.18171 
L 338.177356 212.426796 
L 338.910839 212.426796 
L 338.910839 208.671881 
L 339.067866 208.671881 
L 339.067866 204.916967 
L 339.281233 204.916967 
L 339.361009 197.407138 
L 339.737514 197.407138 
L 339.845735 189.897309 
L 340.263935 189.897309 
L 340.263935 186.142394 
L 340.610136 186.142394 
L 340.711485 178.632565 
L 340.946727 178.632565 
L 340.946727 174.877651 
L 341.185142 174.877651 
L 341.219335 167.367822 
L 342.568288 167.367822 
L 342.585134 159.857993 
L 343.055124 159.857993 
L 343.055124 156.103079 
L 343.712214 156.103079 
L 343.712214 152.348164 
L 344.70654 152.348164 
L 344.70654 148.59325 
L 344.966446 148.59325 
L 344.966446 144.838335 
L 347.659191 144.838335 
L 347.659191 141.083421 
L 349.358251 141.083421 
L 349.358251 137.328506 
L 353.564374 137.328506 
L 353.564374 133.573592 
L 359.215613 133.573592 
L 359.215613 129.818677 
L 359.363357 129.818677 
L 359.363357 126.063763 
L 360.064929 126.063763 
L 360.064929 122.308848 
L 361.813523 122.308848 
L 361.813523 118.553934 
L 362.69051 118.553934 
L 362.69051 114.799019 
L 364.24547 114.799019 
L 364.24547 111.044105 
L 365.148544 111.044105 
L 365.148544 107.28919 
L 369.302352 107.28919 
L 369.302352 103.534276 
L 373.246811 103.534276 
L 373.246811 99.779361 
L 373.95242 99.779361 
L 373.95242 96.024447 
L 377.407485 96.024447 
L 377.407485 92.269532 
L 382.601935 92.269532 
L 382.601935 88.514618 
L 383.438561 88.514618 
L 383.438561 84.759703 
L 385.190068 84.759703 
L 385.22716 77.249874 
L 385.45102 77.249874 
L 385.45102 73.49496 
L 387.548316 73.49496 
L 387.548316 69.740045 
L 388.581685 69.740045 
L 388.581685 65.985131 
L 406.163672 65.985131 
L 406.163672 62.230216 
L 406.869256 62.230216 
L 406.869256 58.475302 
L 407.976665 58.475302 
L 407.976665 54.720387 
L 411.5355 54.720387 
L 411.5355 50.965473 
L 417.41811 50.965473 
L 417.41811 47.210558 
L 422.011105 47.210558 
L 422.011105 43.455644 
L 422.497848 43.455644 
L 422.497848 39.700729 
L 426.756437 39.700729 
L 426.756437 35.945815 
L 428.777154 35.945815 
L 428.777154 32.1909 
L 435.436305 32.1909 
L 435.436305 28.435986 
L 437.92688 28.435986 
L 437.92688 24.681072 
L 443.274472 24.681072 
L 443.274472 20.926157 
L 444.67126 20.926157 
L 444.67126 17.171243 
L 448.615297 17.171243 
L 448.615297 13.416328 
L 460.319582 13.416328 
L 460.319582 9.661414 
L 460.319582 9.661414 
" style="fill:none;stroke:#f5deb3;stroke-linecap:square;stroke-width:1.5;"/>
   </g>
   <g id="line2d_25">
    <path clip-path="url(#p54a92f5076)" d="M 363.099455 291.28 
L 363.099455 287.525086 
L 365.780168 287.525086 
L 365.780168 283.770171 
L 365.94303 283.770171 
L 365.94303 280.015257 
L 367.083532 280.015257 
L 367.083532 276.260342 
L 368.550032 276.260342 
L 368.550032 272.505428 
L 369.121439 272.505428 
L 369.121439 268.750513 
L 369.365269 268.750513 
L 369.365269 264.995599 
L 370.052096 264.995599 
L 370.052096 261.240684 
L 370.084626 261.240684 
L 370.084626 257.48577 
L 371.895274 257.48577 
L 371.895274 253.730855 
L 372.87937 253.730855 
L 372.87937 249.975941 
L 391.279934 249.975941 
L 391.279934 246.221026 
L 391.84287 246.221026 
L 391.84287 242.466112 
L 392.287628 242.466112 
L 392.287628 238.711197 
L 392.669537 238.711197 
L 392.669537 234.956283 
L 392.760693 234.956283 
L 392.760693 231.201368 
L 392.985904 231.201368 
L 392.985904 227.446454 
L 393.305514 227.446454 
L 393.305514 223.691539 
L 393.337185 223.691539 
L 393.337185 219.936625 
L 393.405795 219.936625 
L 393.405795 216.18171 
L 393.407135 216.18171 
L 393.407135 212.426796 
L 393.433542 212.426796 
L 393.433542 208.671881 
L 393.442339 208.671881 
L 393.442339 204.916967 
L 393.497364 204.916967 
L 393.497364 201.162052 
L 393.640026 201.162052 
L 393.640026 197.407138 
L 393.662634 197.407138 
L 393.662634 193.652223 
L 393.771269 193.652223 
L 393.771269 189.897309 
L 394.09086 189.897309 
L 394.09086 186.142394 
L 394.235199 186.142394 
L 394.235199 182.38748 
L 394.265219 182.38748 
L 394.265219 178.632565 
L 394.346189 178.632565 
L 394.346189 174.877651 
L 394.395415 174.877651 
L 394.395415 171.122736 
L 394.648891 171.122736 
L 394.648891 167.367822 
L 394.749648 167.367822 
L 394.749648 163.612907 
L 394.936167 163.612907 
L 394.936167 159.857993 
L 400.183466 159.857993 
L 400.183466 156.103079 
L 422.945503 156.103079 
L 422.945503 152.348164 
L 422.945503 152.348164 
L 422.945503 152.348164 
L 450.672 152.348164 
" style="fill:none;stroke:#f5deb3;stroke-linecap:square;stroke-width:1.5;"/>
   </g>
   <g id="line2d_26">
    <path clip-path="url(#p54a92f5076)" d="M 315.689444 291.28 
L 315.689444 287.525086 
L 318.185414 287.525086 
L 318.185414 283.770171 
L 324.972962 283.770171 
L 324.972962 280.015257 
L 326.025707 280.015257 
L 326.025707 276.260342 
L 327.149658 276.260342 
L 327.149658 272.505428 
L 328.569135 272.505428 
L 328.569135 268.750513 
L 330.949593 268.750513 
L 330.949593 264.995599 
L 337.354053 264.995599 
L 337.354053 261.240684 
L 340.558344 261.240684 
L 340.558344 257.48577 
L 348.891375 257.48577 
L 348.891375 253.730855 
L 350.677261 253.730855 
L 350.677261 249.975941 
L 359.71716 249.975941 
L 359.71716 246.221026 
L 365.057286 246.221026 
L 365.057286 242.466112 
L 365.870297 242.466112 
L 365.870297 238.711197 
L 371.053563 238.711197 
L 371.053563 234.956283 
L 375.757423 234.956283 
L 375.757423 231.201368 
L 377.785079 231.201368 
L 377.785079 227.446454 
L 380.264068 227.446454 
L 380.264068 223.691539 
L 382.311456 223.691539 
L 382.311456 219.936625 
L 383.05341 219.936625 
L 383.05341 216.18171 
L 383.05341 216.18171 
L 383.05341 216.18171 
L 450.672 216.18171 
" style="fill:none;stroke:#f5deb3;stroke-linecap:square;stroke-width:1.5;"/>
   </g>
   <g id="line2d_27"/>
   <g id="line2d_28">
    <path clip-path="url(#p54a92f5076)" d="M 257.355107 291.28 
L 257.355107 287.525086 
L 268.946098 287.525086 
L 268.946098 283.770171 
L 306.016902 283.770171 
L 306.016902 280.015257 
L 317.096807 280.015257 
L 317.096807 276.260342 
L 320.274453 276.260342 
L 320.274453 272.505428 
L 322.15242 272.505428 
L 322.15242 268.750513 
L 337.300025 268.750513 
L 337.300025 264.995599 
L 337.973776 264.995599 
L 337.973776 261.240684 
L 339.60737 261.240684 
L 339.60737 257.48577 
L 340.297116 257.48577 
L 340.297116 253.730855 
L 341.213476 253.730855 
L 341.213476 249.975941 
L 343.077245 249.975941 
L 343.077245 246.221026 
L 343.970426 246.221026 
L 343.970426 242.466112 
L 344.895138 242.466112 
L 344.895138 238.711197 
L 345.441525 238.711197 
L 345.441525 234.956283 
L 350.508932 234.956283 
L 350.508932 231.201368 
L 350.701962 231.201368 
L 350.701962 227.446454 
L 351.1956 227.446454 
L 351.267032 219.936625 
L 351.549055 219.936625 
L 351.549055 216.18171 
L 358.319125 216.18171 
L 358.319125 212.426796 
L 359.999262 212.426796 
L 359.999262 208.671881 
L 360.754115 208.671881 
L 360.754115 204.916967 
L 361.342944 204.916967 
L 361.342944 201.162052 
L 361.810956 201.162052 
L 361.893504 193.652223 
L 363.756918 193.652223 
L 363.756918 189.897309 
L 363.896717 189.897309 
L 363.896717 186.142394 
L 364.363253 186.142394 
L 364.363253 182.38748 
L 367.211735 182.38748 
L 367.211735 178.632565 
L 368.440444 178.632565 
L 368.440444 174.877651 
L 368.591602 174.877651 
L 368.591602 171.122736 
L 368.785436 171.122736 
L 368.785436 167.367822 
L 369.457189 167.367822 
L 369.457189 163.612907 
L 370.393206 163.612907 
L 370.393206 159.857993 
L 371.545257 159.857993 
L 371.54753 152.348164 
L 371.802961 152.348164 
L 371.802961 148.59325 
L 372.785481 148.59325 
L 372.785481 144.838335 
L 373.157236 144.838335 
L 373.157236 141.083421 
L 373.751489 141.083421 
L 373.751489 137.328506 
L 374.15524 137.328506 
L 374.15524 133.573592 
L 374.709811 133.573592 
L 374.709811 129.818677 
L 375.032839 129.818677 
L 375.032839 126.063763 
L 376.533157 126.063763 
L 376.533157 122.308848 
L 377.94183 122.308848 
L 377.94183 118.553934 
L 378.098434 118.553934 
L 378.098434 114.799019 
L 378.613266 114.799019 
L 378.613266 111.044105 
L 379.881185 111.044105 
L 379.881185 107.28919 
L 380.686029 107.28919 
L 380.686029 103.534276 
L 387.870331 103.534276 
L 387.870331 99.779361 
L 390.650854 99.779361 
L 390.650854 96.024447 
L 394.730734 96.024447 
L 394.730734 92.269532 
L 395.083841 92.269532 
L 395.083841 88.514618 
L 395.421595 88.514618 
L 395.421595 84.759703 
L 397.915233 84.759703 
L 397.915233 81.004789 
L 398.393743 81.004789 
L 398.393743 77.249874 
L 402.654683 77.249874 
L 402.654683 73.49496 
L 403.747242 73.49496 
L 403.747242 69.740045 
L 407.687237 69.740045 
L 407.687237 65.985131 
L 407.845087 65.985131 
L 407.845087 62.230216 
L 427.104474 62.230216 
L 427.104474 58.475302 
L 427.255068 58.475302 
L 427.255068 54.720387 
L 427.503153 54.720387 
L 427.503153 50.965473 
L 430.057814 50.965473 
L 430.057814 47.210558 
L 438.108607 47.210558 
L 438.108607 43.455644 
L 461.8 43.455644 
L 461.8 43.455644 
" style="fill:none;stroke:#f5deb3;stroke-linecap:square;stroke-width:1.5;"/>
   </g>
   <g id="line2d_29"/>
   <g id="line2d_30"/>
   <g id="matplotlib.axis_1">
    <g id="xtick_1">
     <g id="line2d_31">
      <path clip-path="url(#p54a92f5076)" d="M 133.47019 291.28 
L 133.47019 6.845228 
" style="fill:none;stroke:#b0b0b0;stroke-linecap:square;stroke-width:0.8;"/>
     </g>
     <g id="line2d_32">
      <defs>
       <path d="M 0 0 
L 0 3.5 
" id="m205a1b1ce3" style="stroke:#000000;stroke-width:0.8;"/>
      </defs>
      <g>
       <use style="stroke:#000000;stroke-width:0.8;" x="133.47019" xlink:href="#m205a1b1ce3" y="291.28"/>
      </g>
     </g>
     <g id="text_1">
      <!-- 1 -->
      <defs>
       <path d="M 12.40625 8.296875 
L 28.515625 8.296875 
L 28.515625 63.921875 
L 10.984375 60.40625 
L 10.984375 69.390625 
L 28.421875 72.90625 
L 38.28125 72.90625 
L 38.28125 8.296875 
L 54.390625 8.296875 
L 54.390625 0 
L 12.40625 0 
z
" id="DejaVuSans-31"/>
      </defs>
      <g transform="translate(127.10769 313.476875)scale(0.2 -0.2)">
       <use xlink:href="#DejaVuSans-31"/>
      </g>
     </g>
    </g>
    <g id="xtick_2">
     <g id="line2d_33">
      <path clip-path="url(#p54a92f5076)" d="M 280.970569 291.28 
L 280.970569 6.845228 
" style="fill:none;stroke:#b0b0b0;stroke-linecap:square;stroke-width:0.8;"/>
     </g>
     <g id="line2d_34">
      <g>
       <use style="stroke:#000000;stroke-width:0.8;" x="280.970569" xlink:href="#m205a1b1ce3" y="291.28"/>
      </g>
     </g>
     <g id="text_2">
      <!-- 3 -->
      <defs>
       <path d="M 40.578125 39.3125 
Q 47.65625 37.796875 51.625 33 
Q 55.609375 28.21875 55.609375 21.1875 
Q 55.609375 10.40625 48.1875 4.484375 
Q 40.765625 -1.421875 27.09375 -1.421875 
Q 22.515625 -1.421875 17.65625 -0.515625 
Q 12.796875 0.390625 7.625 2.203125 
L 7.625 11.71875 
Q 11.71875 9.328125 16.59375 8.109375 
Q 21.484375 6.890625 26.8125 6.890625 
Q 36.078125 6.890625 40.9375 10.546875 
Q 45.796875 14.203125 45.796875 21.1875 
Q 45.796875 27.640625 41.28125 31.265625 
Q 36.765625 34.90625 28.71875 34.90625 
L 20.21875 34.90625 
L 20.21875 43.015625 
L 29.109375 43.015625 
Q 36.375 43.015625 40.234375 45.921875 
Q 44.09375 48.828125 44.09375 54.296875 
Q 44.09375 59.90625 40.109375 62.90625 
Q 36.140625 65.921875 28.71875 65.921875 
Q 24.65625 65.921875 20.015625 65.03125 
Q 15.375 64.15625 9.8125 62.3125 
L 9.8125 71.09375 
Q 15.4375 72.65625 20.34375 73.4375 
Q 25.25 74.21875 29.59375 74.21875 
Q 40.828125 74.21875 47.359375 69.109375 
Q 53.90625 64.015625 53.90625 55.328125 
Q 53.90625 49.265625 50.4375 45.09375 
Q 46.96875 40.921875 40.578125 39.3125 
z
" id="DejaVuSans-33"/>
      </defs>
      <g transform="translate(274.608069 313.476875)scale(0.2 -0.2)">
       <use xlink:href="#DejaVuSans-33"/>
      </g>
     </g>
    </g>
    <g id="xtick_3">
     <g id="line2d_35">
      <path clip-path="url(#p54a92f5076)" d="M 428.470949 291.28 
L 428.470949 6.845228 
" style="fill:none;stroke:#b0b0b0;stroke-linecap:square;stroke-width:0.8;"/>
     </g>
     <g id="line2d_36">
      <g>
       <use style="stroke:#000000;stroke-width:0.8;" x="428.470949" xlink:href="#m205a1b1ce3" y="291.28"/>
      </g>
     </g>
     <g id="text_3">
      <!-- 5 -->
      <defs>
       <path d="M 10.796875 72.90625 
L 49.515625 72.90625 
L 49.515625 64.59375 
L 19.828125 64.59375 
L 19.828125 46.734375 
Q 21.96875 47.46875 24.109375 47.828125 
Q 26.265625 48.1875 28.421875 48.1875 
Q 40.625 48.1875 47.75 41.5 
Q 54.890625 34.8125 54.890625 23.390625 
Q 54.890625 11.625 47.5625 5.09375 
Q 40.234375 -1.421875 26.90625 -1.421875 
Q 22.3125 -1.421875 17.546875 -0.640625 
Q 12.796875 0.140625 7.71875 1.703125 
L 7.71875 11.625 
Q 12.109375 9.234375 16.796875 8.0625 
Q 21.484375 6.890625 26.703125 6.890625 
Q 35.15625 6.890625 40.078125 11.328125 
Q 45.015625 15.765625 45.015625 23.390625 
Q 45.015625 31 40.078125 35.4375 
Q 35.15625 39.890625 26.703125 39.890625 
Q 22.75 39.890625 18.8125 39.015625 
Q 14.890625 38.140625 10.796875 36.28125 
z
" id="DejaVuSans-35"/>
      </defs>
      <g transform="translate(422.108449 313.476875)scale(0.2 -0.2)">
       <use xlink:href="#DejaVuSans-35"/>
      </g>
     </g>
    </g>
    <g id="xtick_4">
     <g id="line2d_37">
      <defs>
       <path d="M 0 0 
L 0 2 
" id="m95247f0a71" style="stroke:#000000;stroke-width:0.6;"/>
      </defs>
      <g>
       <use style="stroke:#000000;stroke-width:0.6;" x="81.921019" xlink:href="#m95247f0a71" y="291.28"/>
      </g>
     </g>
    </g>
    <g id="xtick_5">
     <g id="line2d_38">
      <g>
       <use style="stroke:#000000;stroke-width:0.6;" x="94.907783" xlink:href="#m95247f0a71" y="291.28"/>
      </g>
     </g>
    </g>
    <g id="xtick_6">
     <g id="line2d_39">
      <g>
       <use style="stroke:#000000;stroke-width:0.6;" x="104.122039" xlink:href="#m95247f0a71" y="291.28"/>
      </g>
     </g>
    </g>
    <g id="xtick_7">
     <g id="line2d_40">
      <g>
       <use style="stroke:#000000;stroke-width:0.6;" x="111.26917" xlink:href="#m95247f0a71" y="291.28"/>
      </g>
     </g>
    </g>
    <g id="xtick_8">
     <g id="line2d_41">
      <g>
       <use style="stroke:#000000;stroke-width:0.6;" x="117.108802" xlink:href="#m95247f0a71" y="291.28"/>
      </g>
     </g>
    </g>
    <g id="xtick_9">
     <g id="line2d_42">
      <g>
       <use style="stroke:#000000;stroke-width:0.6;" x="122.046141" xlink:href="#m95247f0a71" y="291.28"/>
      </g>
     </g>
    </g>
    <g id="xtick_10">
     <g id="line2d_43">
      <g>
       <use style="stroke:#000000;stroke-width:0.6;" x="126.323058" xlink:href="#m95247f0a71" y="291.28"/>
      </g>
     </g>
    </g>
    <g id="xtick_11">
     <g id="line2d_44">
      <g>
       <use style="stroke:#000000;stroke-width:0.6;" x="130.095566" xlink:href="#m95247f0a71" y="291.28"/>
      </g>
     </g>
    </g>
    <g id="xtick_12">
     <g id="line2d_45">
      <g>
       <use style="stroke:#000000;stroke-width:0.6;" x="155.671209" xlink:href="#m95247f0a71" y="291.28"/>
      </g>
     </g>
    </g>
    <g id="xtick_13">
     <g id="line2d_46">
      <g>
       <use style="stroke:#000000;stroke-width:0.6;" x="168.657973" xlink:href="#m95247f0a71" y="291.28"/>
      </g>
     </g>
    </g>
    <g id="xtick_14">
     <g id="line2d_47">
      <g>
       <use style="stroke:#000000;stroke-width:0.6;" x="177.872228" xlink:href="#m95247f0a71" y="291.28"/>
      </g>
     </g>
    </g>
    <g id="xtick_15">
     <g id="line2d_48">
      <g>
       <use style="stroke:#000000;stroke-width:0.6;" x="185.01936" xlink:href="#m95247f0a71" y="291.28"/>
      </g>
     </g>
    </g>
    <g id="xtick_16">
     <g id="line2d_49">
      <g>
       <use style="stroke:#000000;stroke-width:0.6;" x="190.858992" xlink:href="#m95247f0a71" y="291.28"/>
      </g>
     </g>
    </g>
    <g id="xtick_17">
     <g id="line2d_50">
      <g>
       <use style="stroke:#000000;stroke-width:0.6;" x="195.796331" xlink:href="#m95247f0a71" y="291.28"/>
      </g>
     </g>
    </g>
    <g id="xtick_18">
     <g id="line2d_51">
      <g>
       <use style="stroke:#000000;stroke-width:0.6;" x="200.073248" xlink:href="#m95247f0a71" y="291.28"/>
      </g>
     </g>
    </g>
    <g id="xtick_19">
     <g id="line2d_52">
      <g>
       <use style="stroke:#000000;stroke-width:0.6;" x="203.845756" xlink:href="#m95247f0a71" y="291.28"/>
      </g>
     </g>
    </g>
    <g id="xtick_20">
     <g id="line2d_53">
      <g>
       <use style="stroke:#000000;stroke-width:0.6;" x="229.421399" xlink:href="#m95247f0a71" y="291.28"/>
      </g>
     </g>
    </g>
    <g id="xtick_21">
     <g id="line2d_54">
      <g>
       <use style="stroke:#000000;stroke-width:0.6;" x="242.408163" xlink:href="#m95247f0a71" y="291.28"/>
      </g>
     </g>
    </g>
    <g id="xtick_22">
     <g id="line2d_55">
      <g>
       <use style="stroke:#000000;stroke-width:0.6;" x="251.622418" xlink:href="#m95247f0a71" y="291.28"/>
      </g>
     </g>
    </g>
    <g id="xtick_23">
     <g id="line2d_56">
      <g>
       <use style="stroke:#000000;stroke-width:0.6;" x="258.76955" xlink:href="#m95247f0a71" y="291.28"/>
      </g>
     </g>
    </g>
    <g id="xtick_24">
     <g id="line2d_57">
      <g>
       <use style="stroke:#000000;stroke-width:0.6;" x="264.609182" xlink:href="#m95247f0a71" y="291.28"/>
      </g>
     </g>
    </g>
    <g id="xtick_25">
     <g id="line2d_58">
      <g>
       <use style="stroke:#000000;stroke-width:0.6;" x="269.54652" xlink:href="#m95247f0a71" y="291.28"/>
      </g>
     </g>
    </g>
    <g id="xtick_26">
     <g id="line2d_59">
      <g>
       <use style="stroke:#000000;stroke-width:0.6;" x="273.823437" xlink:href="#m95247f0a71" y="291.28"/>
      </g>
     </g>
    </g>
    <g id="xtick_27">
     <g id="line2d_60">
      <g>
       <use style="stroke:#000000;stroke-width:0.6;" x="277.595946" xlink:href="#m95247f0a71" y="291.28"/>
      </g>
     </g>
    </g>
    <g id="xtick_28">
     <g id="line2d_61">
      <g>
       <use style="stroke:#000000;stroke-width:0.6;" x="303.171589" xlink:href="#m95247f0a71" y="291.28"/>
      </g>
     </g>
    </g>
    <g id="xtick_29">
     <g id="line2d_62">
      <g>
       <use style="stroke:#000000;stroke-width:0.6;" x="316.158352" xlink:href="#m95247f0a71" y="291.28"/>
      </g>
     </g>
    </g>
    <g id="xtick_30">
     <g id="line2d_63">
      <g>
       <use style="stroke:#000000;stroke-width:0.6;" x="325.372608" xlink:href="#m95247f0a71" y="291.28"/>
      </g>
     </g>
    </g>
    <g id="xtick_31">
     <g id="line2d_64">
      <g>
       <use style="stroke:#000000;stroke-width:0.6;" x="332.51974" xlink:href="#m95247f0a71" y="291.28"/>
      </g>
     </g>
    </g>
    <g id="xtick_32">
     <g id="line2d_65">
      <g>
       <use style="stroke:#000000;stroke-width:0.6;" x="338.359372" xlink:href="#m95247f0a71" y="291.28"/>
      </g>
     </g>
    </g>
    <g id="xtick_33">
     <g id="line2d_66">
      <g>
       <use style="stroke:#000000;stroke-width:0.6;" x="343.29671" xlink:href="#m95247f0a71" y="291.28"/>
      </g>
     </g>
    </g>
    <g id="xtick_34">
     <g id="line2d_67">
      <g>
       <use style="stroke:#000000;stroke-width:0.6;" x="347.573627" xlink:href="#m95247f0a71" y="291.28"/>
      </g>
     </g>
    </g>
    <g id="xtick_35">
     <g id="line2d_68">
      <g>
       <use style="stroke:#000000;stroke-width:0.6;" x="351.346135" xlink:href="#m95247f0a71" y="291.28"/>
      </g>
     </g>
    </g>
    <g id="xtick_36">
     <g id="line2d_69">
      <g>
       <use style="stroke:#000000;stroke-width:0.6;" x="376.921778" xlink:href="#m95247f0a71" y="291.28"/>
      </g>
     </g>
    </g>
    <g id="xtick_37">
     <g id="line2d_70">
      <g>
       <use style="stroke:#000000;stroke-width:0.6;" x="389.908542" xlink:href="#m95247f0a71" y="291.28"/>
      </g>
     </g>
    </g>
    <g id="xtick_38">
     <g id="line2d_71">
      <g>
       <use style="stroke:#000000;stroke-width:0.6;" x="399.122798" xlink:href="#m95247f0a71" y="291.28"/>
      </g>
     </g>
    </g>
    <g id="xtick_39">
     <g id="line2d_72">
      <g>
       <use style="stroke:#000000;stroke-width:0.6;" x="406.269929" xlink:href="#m95247f0a71" y="291.28"/>
      </g>
     </g>
    </g>
    <g id="xtick_40">
     <g id="line2d_73">
      <g>
       <use style="stroke:#000000;stroke-width:0.6;" x="412.109561" xlink:href="#m95247f0a71" y="291.28"/>
      </g>
     </g>
    </g>
    <g id="xtick_41">
     <g id="line2d_74">
      <g>
       <use style="stroke:#000000;stroke-width:0.6;" x="417.0469" xlink:href="#m95247f0a71" y="291.28"/>
      </g>
     </g>
    </g>
    <g id="xtick_42">
     <g id="line2d_75">
      <g>
       <use style="stroke:#000000;stroke-width:0.6;" x="421.323817" xlink:href="#m95247f0a71" y="291.28"/>
      </g>
     </g>
    </g>
    <g id="xtick_43">
     <g id="line2d_76">
      <g>
       <use style="stroke:#000000;stroke-width:0.6;" x="425.096325" xlink:href="#m95247f0a71" y="291.28"/>
      </g>
     </g>
    </g>
    <g id="xtick_44">
     <g id="line2d_77">
      <g>
       <use style="stroke:#000000;stroke-width:0.6;" x="450.671968" xlink:href="#m95247f0a71" y="291.28"/>
      </g>
     </g>
    </g>
    <g id="text_4">
     <!-- log10 of FEvals / DIM -->
     <defs>
      <path d="M 9.421875 75.984375 
L 18.40625 75.984375 
L 18.40625 0 
L 9.421875 0 
z
" id="DejaVuSans-6c"/>
      <path d="M 30.609375 48.390625 
Q 23.390625 48.390625 19.1875 42.75 
Q 14.984375 37.109375 14.984375 27.296875 
Q 14.984375 17.484375 19.15625 11.84375 
Q 23.34375 6.203125 30.609375 6.203125 
Q 37.796875 6.203125 41.984375 11.859375 
Q 46.1875 17.53125 46.1875 27.296875 
Q 46.1875 37.015625 41.984375 42.703125 
Q 37.796875 48.390625 30.609375 48.390625 
z
M 30.609375 56 
Q 42.328125 56 49.015625 48.375 
Q 55.71875 40.765625 55.71875 27.296875 
Q 55.71875 13.875 49.015625 6.21875 
Q 42.328125 -1.421875 30.609375 -1.421875 
Q 18.84375 -1.421875 12.171875 6.21875 
Q 5.515625 13.875 5.515625 27.296875 
Q 5.515625 40.765625 12.171875 48.375 
Q 18.84375 56 30.609375 56 
z
" id="DejaVuSans-6f"/>
      <path d="M 45.40625 27.984375 
Q 45.40625 37.75 41.375 43.109375 
Q 37.359375 48.484375 30.078125 48.484375 
Q 22.859375 48.484375 18.828125 43.109375 
Q 14.796875 37.75 14.796875 27.984375 
Q 14.796875 18.265625 18.828125 12.890625 
Q 22.859375 7.515625 30.078125 7.515625 
Q 37.359375 7.515625 41.375 12.890625 
Q 45.40625 18.265625 45.40625 27.984375 
z
M 54.390625 6.78125 
Q 54.390625 -7.171875 48.1875 -13.984375 
Q 42 -20.796875 29.203125 -20.796875 
Q 24.46875 -20.796875 20.265625 -20.09375 
Q 16.0625 -19.390625 12.109375 -17.921875 
L 12.109375 -9.1875 
Q 16.0625 -11.328125 19.921875 -12.34375 
Q 23.78125 -13.375 27.78125 -13.375 
Q 36.625 -13.375 41.015625 -8.765625 
Q 45.40625 -4.15625 45.40625 5.171875 
L 45.40625 9.625 
Q 42.625 4.78125 38.28125 2.390625 
Q 33.9375 0 27.875 0 
Q 17.828125 0 11.671875 7.65625 
Q 5.515625 15.328125 5.515625 27.984375 
Q 5.515625 40.671875 11.671875 48.328125 
Q 17.828125 56 27.875 56 
Q 33.9375 56 38.28125 53.609375 
Q 42.625 51.21875 45.40625 46.390625 
L 45.40625 54.6875 
L 54.390625 54.6875 
z
" id="DejaVuSans-67"/>
      <path d="M 31.78125 66.40625 
Q 24.171875 66.40625 20.328125 58.90625 
Q 16.5 51.421875 16.5 36.375 
Q 16.5 21.390625 20.328125 13.890625 
Q 24.171875 6.390625 31.78125 6.390625 
Q 39.453125 6.390625 43.28125 13.890625 
Q 47.125 21.390625 47.125 36.375 
Q 47.125 51.421875 43.28125 58.90625 
Q 39.453125 66.40625 31.78125 66.40625 
z
M 31.78125 74.21875 
Q 44.046875 74.21875 50.515625 64.515625 
Q 56.984375 54.828125 56.984375 36.375 
Q 56.984375 17.96875 50.515625 8.265625 
Q 44.046875 -1.421875 31.78125 -1.421875 
Q 19.53125 -1.421875 13.0625 8.265625 
Q 6.59375 17.96875 6.59375 36.375 
Q 6.59375 54.828125 13.0625 64.515625 
Q 19.53125 74.21875 31.78125 74.21875 
z
" id="DejaVuSans-30"/>
      <path id="DejaVuSans-20"/>
      <path d="M 37.109375 75.984375 
L 37.109375 68.5 
L 28.515625 68.5 
Q 23.6875 68.5 21.796875 66.546875 
Q 19.921875 64.59375 19.921875 59.515625 
L 19.921875 54.6875 
L 34.71875 54.6875 
L 34.71875 47.703125 
L 19.921875 47.703125 
L 19.921875 0 
L 10.890625 0 
L 10.890625 47.703125 
L 2.296875 47.703125 
L 2.296875 54.6875 
L 10.890625 54.6875 
L 10.890625 58.5 
Q 10.890625 67.625 15.140625 71.796875 
Q 19.390625 75.984375 28.609375 75.984375 
z
" id="DejaVuSans-66"/>
      <path d="M 9.8125 72.90625 
L 51.703125 72.90625 
L 51.703125 64.59375 
L 19.671875 64.59375 
L 19.671875 43.109375 
L 48.578125 43.109375 
L 48.578125 34.8125 
L 19.671875 34.8125 
L 19.671875 0 
L 9.8125 0 
z
" id="DejaVuSans-46"/>
      <path d="M 9.8125 72.90625 
L 55.90625 72.90625 
L 55.90625 64.59375 
L 19.671875 64.59375 
L 19.671875 43.015625 
L 54.390625 43.015625 
L 54.390625 34.71875 
L 19.671875 34.71875 
L 19.671875 8.296875 
L 56.78125 8.296875 
L 56.78125 0 
L 9.8125 0 
z
" id="DejaVuSans-45"/>
      <path d="M 2.984375 54.6875 
L 12.5 54.6875 
L 29.59375 8.796875 
L 46.6875 54.6875 
L 56.203125 54.6875 
L 35.6875 0 
L 23.484375 0 
z
" id="DejaVuSans-76"/>
      <path d="M 34.28125 27.484375 
Q 23.390625 27.484375 19.1875 25 
Q 14.984375 22.515625 14.984375 16.5 
Q 14.984375 11.71875 18.140625 8.90625 
Q 21.296875 6.109375 26.703125 6.109375 
Q 34.1875 6.109375 38.703125 11.40625 
Q 43.21875 16.703125 43.21875 25.484375 
L 43.21875 27.484375 
z
M 52.203125 31.203125 
L 52.203125 0 
L 43.21875 0 
L 43.21875 8.296875 
Q 40.140625 3.328125 35.546875 0.953125 
Q 30.953125 -1.421875 24.3125 -1.421875 
Q 15.921875 -1.421875 10.953125 3.296875 
Q 6 8.015625 6 15.921875 
Q 6 25.140625 12.171875 29.828125 
Q 18.359375 34.515625 30.609375 34.515625 
L 43.21875 34.515625 
L 43.21875 35.40625 
Q 43.21875 41.609375 39.140625 45 
Q 35.0625 48.390625 27.6875 48.390625 
Q 23 48.390625 18.546875 47.265625 
Q 14.109375 46.140625 10.015625 43.890625 
L 10.015625 52.203125 
Q 14.9375 54.109375 19.578125 55.046875 
Q 24.21875 56 28.609375 56 
Q 40.484375 56 46.34375 49.84375 
Q 52.203125 43.703125 52.203125 31.203125 
z
" id="DejaVuSans-61"/>
      <path d="M 44.28125 53.078125 
L 44.28125 44.578125 
Q 40.484375 46.53125 36.375 47.5 
Q 32.28125 48.484375 27.875 48.484375 
Q 21.1875 48.484375 17.84375 46.4375 
Q 14.5 44.390625 14.5 40.28125 
Q 14.5 37.15625 16.890625 35.375 
Q 19.28125 33.59375 26.515625 31.984375 
L 29.59375 31.296875 
Q 39.15625 29.25 43.1875 25.515625 
Q 47.21875 21.78125 47.21875 15.09375 
Q 47.21875 7.46875 41.1875 3.015625 
Q 35.15625 -1.421875 24.609375 -1.421875 
Q 20.21875 -1.421875 15.453125 -0.5625 
Q 10.6875 0.296875 5.421875 2 
L 5.421875 11.28125 
Q 10.40625 8.6875 15.234375 7.390625 
Q 20.0625 6.109375 24.8125 6.109375 
Q 31.15625 6.109375 34.5625 8.28125 
Q 37.984375 10.453125 37.984375 14.40625 
Q 37.984375 18.0625 35.515625 20.015625 
Q 33.0625 21.96875 24.703125 23.78125 
L 21.578125 24.515625 
Q 13.234375 26.265625 9.515625 29.90625 
Q 5.8125 33.546875 5.8125 39.890625 
Q 5.8125 47.609375 11.28125 51.796875 
Q 16.75 56 26.8125 56 
Q 31.78125 56 36.171875 55.265625 
Q 40.578125 54.546875 44.28125 53.078125 
z
" id="DejaVuSans-73"/>
      <path d="M 25.390625 72.90625 
L 33.6875 72.90625 
L 8.296875 -9.28125 
L 0 -9.28125 
z
" id="DejaVuSans-2f"/>
      <path d="M 19.671875 64.796875 
L 19.671875 8.109375 
L 31.59375 8.109375 
Q 46.6875 8.109375 53.6875 14.9375 
Q 60.6875 21.78125 60.6875 36.53125 
Q 60.6875 51.171875 53.6875 57.984375 
Q 46.6875 64.796875 31.59375 64.796875 
z
M 9.8125 72.90625 
L 30.078125 72.90625 
Q 51.265625 72.90625 61.171875 64.09375 
Q 71.09375 55.28125 71.09375 36.53125 
Q 71.09375 17.671875 61.125 8.828125 
Q 51.171875 0 30.078125 0 
L 9.8125 0 
z
" id="DejaVuSans-44"/>
      <path d="M 9.8125 72.90625 
L 19.671875 72.90625 
L 19.671875 0 
L 9.8125 0 
z
" id="DejaVuSans-49"/>
      <path d="M 9.8125 72.90625 
L 24.515625 72.90625 
L 43.109375 23.296875 
L 61.8125 72.90625 
L 76.515625 72.90625 
L 76.515625 0 
L 66.890625 0 
L 66.890625 64.015625 
L 48.09375 14.015625 
L 38.1875 14.015625 
L 19.390625 64.015625 
L 19.390625 0 
L 9.8125 0 
z
" id="DejaVuSans-4d"/>
     </defs>
     <g transform="translate(150.122563 336.833125)scale(0.2 -0.2)">
      <use xlink:href="#DejaVuSans-6c"/>
      <use x="27.783203" xlink:href="#DejaVuSans-6f"/>
      <use x="88.964844" xlink:href="#DejaVuSans-67"/>
      <use x="152.441406" xlink:href="#DejaVuSans-31"/>
      <use x="216.064453" xlink:href="#DejaVuSans-30"/>
      <use x="279.6875" xlink:href="#DejaVuSans-20"/>
      <use x="311.474609" xlink:href="#DejaVuSans-6f"/>
      <use x="372.65625" xlink:href="#DejaVuSans-66"/>
      <use x="407.861328" xlink:href="#DejaVuSans-20"/>
      <use x="439.648438" xlink:href="#DejaVuSans-46"/>
      <use x="497.167969" xlink:href="#DejaVuSans-45"/>
      <use x="560.351562" xlink:href="#DejaVuSans-76"/>
      <use x="619.53125" xlink:href="#DejaVuSans-61"/>
      <use x="680.810547" xlink:href="#DejaVuSans-6c"/>
      <use x="708.59375" xlink:href="#DejaVuSans-73"/>
      <use x="760.693359" xlink:href="#DejaVuSans-20"/>
      <use x="792.480469" xlink:href="#DejaVuSans-2f"/>
      <use x="826.171875" xlink:href="#DejaVuSans-20"/>
      <use x="857.958984" xlink:href="#DejaVuSans-44"/>
      <use x="934.960938" xlink:href="#DejaVuSans-49"/>
      <use x="964.453125" xlink:href="#DejaVuSans-4d"/>
     </g>
    </g>
   </g>
   <g id="matplotlib.axis_2">
    <g id="ytick_1">
     <g id="line2d_78">
      <path clip-path="url(#p54a92f5076)" d="M 59.72 291.28 
L 450.672 291.28 
" style="fill:none;stroke:#b0b0b0;stroke-linecap:square;stroke-width:0.8;"/>
     </g>
     <g id="line2d_79">
      <defs>
       <path d="M 0 0 
L -3.5 0 
" id="mcfba453379" style="stroke:#000000;stroke-width:0.8;"/>
      </defs>
      <g>
       <use style="stroke:#000000;stroke-width:0.8;" x="59.72" xlink:href="#mcfba453379" y="291.28"/>
      </g>
     </g>
     <g id="text_5">
      <!-- 0.0 -->
      <defs>
       <path d="M 10.6875 12.40625 
L 21 12.40625 
L 21 0 
L 10.6875 0 
z
" id="DejaVuSans-2e"/>
      </defs>
      <g transform="translate(27.275 297.35875)scale(0.16 -0.16)">
       <use xlink:href="#DejaVuSans-30"/>
       <use x="63.623047" xlink:href="#DejaVuSans-2e"/>
       <use x="95.410156" xlink:href="#DejaVuSans-30"/>
      </g>
     </g>
    </g>
    <g id="ytick_2">
     <g id="line2d_80">
      <path clip-path="url(#p54a92f5076)" d="M 59.72 234.956283 
L 450.672 234.956283 
" style="fill:none;stroke:#b0b0b0;stroke-linecap:square;stroke-width:0.8;"/>
     </g>
     <g id="line2d_81">
      <g>
       <use style="stroke:#000000;stroke-width:0.8;" x="59.72" xlink:href="#mcfba453379" y="234.956283"/>
      </g>
     </g>
     <g id="text_6">
      <!-- 0.2 -->
      <defs>
       <path d="M 19.1875 8.296875 
L 53.609375 8.296875 
L 53.609375 0 
L 7.328125 0 
L 7.328125 8.296875 
Q 12.9375 14.109375 22.625 23.890625 
Q 32.328125 33.6875 34.8125 36.53125 
Q 39.546875 41.84375 41.421875 45.53125 
Q 43.3125 49.21875 43.3125 52.78125 
Q 43.3125 58.59375 39.234375 62.25 
Q 35.15625 65.921875 28.609375 65.921875 
Q 23.96875 65.921875 18.8125 64.3125 
Q 13.671875 62.703125 7.8125 59.421875 
L 7.8125 69.390625 
Q 13.765625 71.78125 18.9375 73 
Q 24.125 74.21875 28.421875 74.21875 
Q 39.75 74.21875 46.484375 68.546875 
Q 53.21875 62.890625 53.21875 53.421875 
Q 53.21875 48.921875 51.53125 44.890625 
Q 49.859375 40.875 45.40625 35.40625 
Q 44.1875 33.984375 37.640625 27.21875 
Q 31.109375 20.453125 19.1875 8.296875 
z
" id="DejaVuSans-32"/>
      </defs>
      <g transform="translate(27.275 241.035033)scale(0.16 -0.16)">
       <use xlink:href="#DejaVuSans-30"/>
       <use x="63.623047" xlink:href="#DejaVuSans-2e"/>
       <use x="95.410156" xlink:href="#DejaVuSans-32"/>
      </g>
     </g>
    </g>
    <g id="ytick_3">
     <g id="line2d_82">
      <path clip-path="url(#p54a92f5076)" d="M 59.72 178.632565 
L 450.672 178.632565 
" style="fill:none;stroke:#b0b0b0;stroke-linecap:square;stroke-width:0.8;"/>
     </g>
     <g id="line2d_83">
      <g>
       <use style="stroke:#000000;stroke-width:0.8;" x="59.72" xlink:href="#mcfba453379" y="178.632565"/>
      </g>
     </g>
     <g id="text_7">
      <!-- 0.4 -->
      <defs>
       <path d="M 37.796875 64.3125 
L 12.890625 25.390625 
L 37.796875 25.390625 
z
M 35.203125 72.90625 
L 47.609375 72.90625 
L 47.609375 25.390625 
L 58.015625 25.390625 
L 58.015625 17.1875 
L 47.609375 17.1875 
L 47.609375 0 
L 37.796875 0 
L 37.796875 17.1875 
L 4.890625 17.1875 
L 4.890625 26.703125 
z
" id="DejaVuSans-34"/>
      </defs>
      <g transform="translate(27.275 184.711315)scale(0.16 -0.16)">
       <use xlink:href="#DejaVuSans-30"/>
       <use x="63.623047" xlink:href="#DejaVuSans-2e"/>
       <use x="95.410156" xlink:href="#DejaVuSans-34"/>
      </g>
     </g>
    </g>
    <g id="ytick_4">
     <g id="line2d_84">
      <path clip-path="url(#p54a92f5076)" d="M 59.72 122.308848 
L 450.672 122.308848 
" style="fill:none;stroke:#b0b0b0;stroke-linecap:square;stroke-width:0.8;"/>
     </g>
     <g id="line2d_85">
      <g>
       <use style="stroke:#000000;stroke-width:0.8;" x="59.72" xlink:href="#mcfba453379" y="122.308848"/>
      </g>
     </g>
     <g id="text_8">
      <!-- 0.6 -->
      <defs>
       <path d="M 33.015625 40.375 
Q 26.375 40.375 22.484375 35.828125 
Q 18.609375 31.296875 18.609375 23.390625 
Q 18.609375 15.53125 22.484375 10.953125 
Q 26.375 6.390625 33.015625 6.390625 
Q 39.65625 6.390625 43.53125 10.953125 
Q 47.40625 15.53125 47.40625 23.390625 
Q 47.40625 31.296875 43.53125 35.828125 
Q 39.65625 40.375 33.015625 40.375 
z
M 52.59375 71.296875 
L 52.59375 62.3125 
Q 48.875 64.0625 45.09375 64.984375 
Q 41.3125 65.921875 37.59375 65.921875 
Q 27.828125 65.921875 22.671875 59.328125 
Q 17.53125 52.734375 16.796875 39.40625 
Q 19.671875 43.65625 24.015625 45.921875 
Q 28.375 48.1875 33.59375 48.1875 
Q 44.578125 48.1875 50.953125 41.515625 
Q 57.328125 34.859375 57.328125 23.390625 
Q 57.328125 12.15625 50.6875 5.359375 
Q 44.046875 -1.421875 33.015625 -1.421875 
Q 20.359375 -1.421875 13.671875 8.265625 
Q 6.984375 17.96875 6.984375 36.375 
Q 6.984375 53.65625 15.1875 63.9375 
Q 23.390625 74.21875 37.203125 74.21875 
Q 40.921875 74.21875 44.703125 73.484375 
Q 48.484375 72.75 52.59375 71.296875 
z
" id="DejaVuSans-36"/>
      </defs>
      <g transform="translate(27.275 128.387598)scale(0.16 -0.16)">
       <use xlink:href="#DejaVuSans-30"/>
       <use x="63.623047" xlink:href="#DejaVuSans-2e"/>
       <use x="95.410156" xlink:href="#DejaVuSans-36"/>
      </g>
     </g>
    </g>
    <g id="ytick_5">
     <g id="line2d_86">
      <path clip-path="url(#p54a92f5076)" d="M 59.72 65.985131 
L 450.672 65.985131 
" style="fill:none;stroke:#b0b0b0;stroke-linecap:square;stroke-width:0.8;"/>
     </g>
     <g id="line2d_87">
      <g>
       <use style="stroke:#000000;stroke-width:0.8;" x="59.72" xlink:href="#mcfba453379" y="65.985131"/>
      </g>
     </g>
     <g id="text_9">
      <!-- 0.8 -->
      <defs>
       <path d="M 31.78125 34.625 
Q 24.75 34.625 20.71875 30.859375 
Q 16.703125 27.09375 16.703125 20.515625 
Q 16.703125 13.921875 20.71875 10.15625 
Q 24.75 6.390625 31.78125 6.390625 
Q 38.8125 6.390625 42.859375 10.171875 
Q 46.921875 13.96875 46.921875 20.515625 
Q 46.921875 27.09375 42.890625 30.859375 
Q 38.875 34.625 31.78125 34.625 
z
M 21.921875 38.8125 
Q 15.578125 40.375 12.03125 44.71875 
Q 8.5 49.078125 8.5 55.328125 
Q 8.5 64.0625 14.71875 69.140625 
Q 20.953125 74.21875 31.78125 74.21875 
Q 42.671875 74.21875 48.875 69.140625 
Q 55.078125 64.0625 55.078125 55.328125 
Q 55.078125 49.078125 51.53125 44.71875 
Q 48 40.375 41.703125 38.8125 
Q 48.828125 37.15625 52.796875 32.3125 
Q 56.78125 27.484375 56.78125 20.515625 
Q 56.78125 9.90625 50.3125 4.234375 
Q 43.84375 -1.421875 31.78125 -1.421875 
Q 19.734375 -1.421875 13.25 4.234375 
Q 6.78125 9.90625 6.78125 20.515625 
Q 6.78125 27.484375 10.78125 32.3125 
Q 14.796875 37.15625 21.921875 38.8125 
z
M 18.3125 54.390625 
Q 18.3125 48.734375 21.84375 45.5625 
Q 25.390625 42.390625 31.78125 42.390625 
Q 38.140625 42.390625 41.71875 45.5625 
Q 45.3125 48.734375 45.3125 54.390625 
Q 45.3125 60.0625 41.71875 63.234375 
Q 38.140625 66.40625 31.78125 66.40625 
Q 25.390625 66.40625 21.84375 63.234375 
Q 18.3125 60.0625 18.3125 54.390625 
z
" id="DejaVuSans-38"/>
      </defs>
      <g transform="translate(27.275 72.063881)scale(0.16 -0.16)">
       <use xlink:href="#DejaVuSans-30"/>
       <use x="63.623047" xlink:href="#DejaVuSans-2e"/>
       <use x="95.410156" xlink:href="#DejaVuSans-38"/>
      </g>
     </g>
    </g>
    <g id="ytick_6">
     <g id="line2d_88">
      <path clip-path="url(#p54a92f5076)" d="M 59.72 9.661414 
L 450.672 9.661414 
" style="fill:none;stroke:#b0b0b0;stroke-linecap:square;stroke-width:0.8;"/>
     </g>
     <g id="line2d_89">
      <g>
       <use style="stroke:#000000;stroke-width:0.8;" x="59.72" xlink:href="#mcfba453379" y="9.661414"/>
      </g>
     </g>
     <g id="text_10">
      <!-- 1.0 -->
      <g transform="translate(27.275 15.740164)scale(0.16 -0.16)">
       <use xlink:href="#DejaVuSans-31"/>
       <use x="63.623047" xlink:href="#DejaVuSans-2e"/>
       <use x="95.410156" xlink:href="#DejaVuSans-30"/>
      </g>
     </g>
    </g>
    <g id="text_11">
     <!-- proportion of trials -->
     <defs>
      <path d="M 18.109375 8.203125 
L 18.109375 -20.796875 
L 9.078125 -20.796875 
L 9.078125 54.6875 
L 18.109375 54.6875 
L 18.109375 46.390625 
Q 20.953125 51.265625 25.265625 53.625 
Q 29.59375 56 35.59375 56 
Q 45.5625 56 51.78125 48.09375 
Q 58.015625 40.1875 58.015625 27.296875 
Q 58.015625 14.40625 51.78125 6.484375 
Q 45.5625 -1.421875 35.59375 -1.421875 
Q 29.59375 -1.421875 25.265625 0.953125 
Q 20.953125 3.328125 18.109375 8.203125 
z
M 48.6875 27.296875 
Q 48.6875 37.203125 44.609375 42.84375 
Q 40.53125 48.484375 33.40625 48.484375 
Q 26.265625 48.484375 22.1875 42.84375 
Q 18.109375 37.203125 18.109375 27.296875 
Q 18.109375 17.390625 22.1875 11.75 
Q 26.265625 6.109375 33.40625 6.109375 
Q 40.53125 6.109375 44.609375 11.75 
Q 48.6875 17.390625 48.6875 27.296875 
z
" id="DejaVuSans-70"/>
      <path d="M 41.109375 46.296875 
Q 39.59375 47.171875 37.8125 47.578125 
Q 36.03125 48 33.890625 48 
Q 26.265625 48 22.1875 43.046875 
Q 18.109375 38.09375 18.109375 28.8125 
L 18.109375 0 
L 9.078125 0 
L 9.078125 54.6875 
L 18.109375 54.6875 
L 18.109375 46.1875 
Q 20.953125 51.171875 25.484375 53.578125 
Q 30.03125 56 36.53125 56 
Q 37.453125 56 38.578125 55.875 
Q 39.703125 55.765625 41.0625 55.515625 
z
" id="DejaVuSans-72"/>
      <path d="M 18.3125 70.21875 
L 18.3125 54.6875 
L 36.8125 54.6875 
L 36.8125 47.703125 
L 18.3125 47.703125 
L 18.3125 18.015625 
Q 18.3125 11.328125 20.140625 9.421875 
Q 21.96875 7.515625 27.59375 7.515625 
L 36.8125 7.515625 
L 36.8125 0 
L 27.59375 0 
Q 17.1875 0 13.234375 3.875 
Q 9.28125 7.765625 9.28125 18.015625 
L 9.28125 47.703125 
L 2.6875 47.703125 
L 2.6875 54.6875 
L 9.28125 54.6875 
L 9.28125 70.21875 
z
" id="DejaVuSans-74"/>
      <path d="M 9.421875 54.6875 
L 18.40625 54.6875 
L 18.40625 0 
L 9.421875 0 
z
M 9.421875 75.984375 
L 18.40625 75.984375 
L 18.40625 64.59375 
L 9.421875 64.59375 
z
" id="DejaVuSans-69"/>
      <path d="M 54.890625 33.015625 
L 54.890625 0 
L 45.90625 0 
L 45.90625 32.71875 
Q 45.90625 40.484375 42.875 44.328125 
Q 39.84375 48.1875 33.796875 48.1875 
Q 26.515625 48.1875 22.3125 43.546875 
Q 18.109375 38.921875 18.109375 30.90625 
L 18.109375 0 
L 9.078125 0 
L 9.078125 54.6875 
L 18.109375 54.6875 
L 18.109375 46.1875 
Q 21.34375 51.125 25.703125 53.5625 
Q 30.078125 56 35.796875 56 
Q 45.21875 56 50.046875 50.171875 
Q 54.890625 44.34375 54.890625 33.015625 
z
" id="DejaVuSans-6e"/>
     </defs>
     <g transform="translate(19.115625 242.290739)rotate(-90)scale(0.2 -0.2)">
      <use xlink:href="#DejaVuSans-70"/>
      <use x="63.476562" xlink:href="#DejaVuSans-72"/>
      <use x="104.558594" xlink:href="#DejaVuSans-6f"/>
      <use x="165.740234" xlink:href="#DejaVuSans-70"/>
      <use x="229.216797" xlink:href="#DejaVuSans-6f"/>
      <use x="290.398438" xlink:href="#DejaVuSans-72"/>
      <use x="331.511719" xlink:href="#DejaVuSans-74"/>
      <use x="370.720703" xlink:href="#DejaVuSans-69"/>
      <use x="398.503906" xlink:href="#DejaVuSans-6f"/>
      <use x="459.685547" xlink:href="#DejaVuSans-6e"/>
      <use x="523.064453" xlink:href="#DejaVuSans-20"/>
      <use x="554.851562" xlink:href="#DejaVuSans-6f"/>
      <use x="616.033203" xlink:href="#DejaVuSans-66"/>
      <use x="651.238281" xlink:href="#DejaVuSans-20"/>
      <use x="683.025391" xlink:href="#DejaVuSans-74"/>
      <use x="722.234375" xlink:href="#DejaVuSans-72"/>
      <use x="763.347656" xlink:href="#DejaVuSans-69"/>
      <use x="791.130859" xlink:href="#DejaVuSans-61"/>
      <use x="852.410156" xlink:href="#DejaVuSans-6c"/>
      <use x="880.193359" xlink:href="#DejaVuSans-73"/>
     </g>
    </g>
   </g>
   <g id="line2d_90">
    <path clip-path="url(#p54a92f5076)" d="M 30.371849 291.28 
L 30.371849 246.221026 
L 52.572868 246.221026 
L 52.572868 227.446454 
L 65.559632 227.446454 
L 65.559632 216.18171 
L 74.773887 216.18171 
L 74.773887 212.426796 
L 87.760651 212.426796 
L 87.760651 208.671881 
L 96.974907 208.671881 
L 96.974907 204.916967 
L 100.747415 204.916967 
L 100.747415 201.162052 
L 112.525382 201.162052 
L 112.525382 197.407138 
L 130.799535 197.407138 
L 130.799535 193.652223 
L 138.223979 193.652223 
L 138.223979 189.897309 
L 145.149454 189.897309 
L 145.149454 186.142394 
L 160.972521 186.142394 
L 160.972521 182.38748 
L 161.510841 182.38748 
L 161.510841 174.877651 
L 162.561076 174.877651 
L 162.561076 171.122736 
L 166.448179 171.122736 
L 166.448179 167.367822 
L 175.54784 167.367822 
L 175.54784 163.612907 
L 178.818976 163.612907 
L 178.818976 159.857993 
L 179.12844 159.857993 
L 179.12844 156.103079 
L 181.214807 156.103079 
L 181.214807 152.348164 
L 183.71186 152.348164 
L 183.71186 148.59325 
L 188.877166 148.59325 
L 188.877166 144.838335 
L 195.242496 144.838335 
L 195.242496 141.083421 
L 204.827037 141.083421 
L 204.827037 137.328506 
L 207.602443 137.328506 
L 207.602443 133.573592 
L 208.353164 133.573592 
L 208.353164 129.818677 
L 209.327515 129.818677 
L 209.327515 126.063763 
L 210.735623 126.063763 
L 210.735623 122.308848 
L 216.306261 122.308848 
L 216.306261 118.553934 
L 217.068899 118.553934 
L 217.068899 114.799019 
L 219.253562 114.799019 
L 219.253562 111.044105 
L 231.588458 111.044105 
L 231.588458 107.28919 
L 232.936642 107.28919 
L 232.936642 103.534276 
L 235.420778 103.534276 
L 235.420778 99.779361 
L 235.632543 99.779361 
L 235.632543 96.024447 
L 237.42809 96.024447 
L 237.42809 92.269532 
L 238.603609 92.269532 
L 238.603609 88.514618 
L 243.664375 88.514618 
L 243.664375 84.759703 
L 244.395113 84.759703 
L 244.395113 81.004789 
L 245.148778 81.004789 
L 245.148778 77.249874 
L 245.499681 77.249874 
L 245.499681 73.49496 
L 252.444538 73.49496 
L 252.444538 69.740045 
L 256.513968 69.740045 
L 256.513968 65.985131 
L 276.110009 65.985131 
L 276.110009 62.230216 
L 281.792689 62.230216 
L 281.792689 58.475302 
L 286.021182 58.475302 
L 286.021182 54.720387 
L 288.736889 54.720387 
L 288.736889 50.965473 
L 291.637536 50.965473 
L 291.710914 43.455644 
L 294.432101 43.455644 
L 294.432101 39.700729 
L 294.750303 39.700729 
L 294.750303 35.945815 
L 295.377378 35.945815 
L 295.377378 32.1909 
L 296.040467 32.1909 
L 296.040467 28.435986 
L 297.434287 28.435986 
L 297.434287 24.681072 
L 297.996352 24.681072 
L 297.996352 20.926157 
L 302.281738 20.926157 
L 302.281738 17.171243 
L 303.062503 17.171243 
L 303.062503 13.416328 
L 305.278724 13.416328 
L 305.278724 9.661414 
L 305.278724 9.661414 
L 450.672 9.661414 
L 450.672 9.661414 
" style="fill:none;stroke:#000000;stroke-linecap:square;stroke-width:1.5;"/>
   </g>
   <g id="line2d_91">
    <path clip-path="url(#p54a92f5076)" style="fill:none;stroke:#000000;stroke-linecap:square;stroke-width:1.5;"/>
   </g>
   <g id="line2d_92">
    <path clip-path="url(#p54a92f5076)" d="M 297.226728 291.28 
L 297.226728 287.525086 
L 297.663341 287.525086 
L 297.663341 283.770171 
L 298.666913 283.770171 
L 298.666913 280.015257 
L 299.690022 280.015257 
L 299.690022 276.260342 
L 300.819636 276.260342 
L 300.819636 272.505428 
L 301.877431 272.505428 
L 301.877431 268.750513 
L 302.010554 268.750513 
L 302.010554 264.995599 
L 302.063649 264.995599 
L 302.063649 261.240684 
L 304.012434 261.240684 
L 304.012434 257.48577 
L 304.285818 257.48577 
L 304.285818 253.730855 
L 304.673237 253.730855 
L 304.673237 249.975941 
L 305.212678 249.975941 
L 305.212678 246.221026 
L 307.012353 246.221026 
L 307.012353 242.466112 
L 307.1654 242.466112 
L 307.1654 238.711197 
L 308.156478 238.711197 
L 308.156478 234.956283 
L 310.154309 234.956283 
L 310.154309 231.201368 
L 310.405722 231.201368 
L 310.405722 227.446454 
L 311.337531 227.446454 
L 311.337531 223.691539 
L 313.50162 223.691539 
L 313.50162 219.936625 
L 315.16515 219.936625 
L 315.16515 216.18171 
L 315.883863 216.18171 
L 315.883863 212.426796 
L 316.064262 212.426796 
L 316.064262 208.671881 
L 316.603653 208.671881 
L 316.603653 204.916967 
L 316.826094 204.916967 
L 316.826094 201.162052 
L 318.623361 201.162052 
L 318.623361 197.407138 
L 318.949892 197.407138 
L 318.949892 193.652223 
L 319.997223 193.652223 
L 319.997223 189.897309 
L 321.358168 189.897309 
L 321.358168 186.142394 
L 321.43432 186.142394 
L 321.43432 182.38748 
L 321.798068 182.38748 
L 321.798068 178.632565 
L 321.973063 178.632565 
L 321.973063 174.877651 
L 323.223384 174.877651 
L 323.223384 171.122736 
L 323.668975 171.122736 
L 323.668975 167.367822 
L 323.790349 167.367822 
L 323.790349 163.612907 
L 323.938074 163.612907 
L 323.938074 159.857993 
L 324.327604 159.857993 
L 324.327604 156.103079 
L 324.330913 156.103079 
L 324.330913 152.348164 
L 325.362998 152.348164 
L 325.362998 148.59325 
L 325.868408 148.59325 
L 325.868408 144.838335 
L 326.41561 144.838335 
L 326.41561 141.083421 
L 327.43773 141.083421 
L 327.43773 137.328506 
L 328.244287 137.328506 
L 328.244287 133.573592 
L 329.284318 133.573592 
L 329.284318 129.818677 
L 329.476501 129.818677 
L 329.476501 126.063763 
L 329.929753 126.063763 
L 329.929753 122.308848 
L 330.401328 122.308848 
L 330.401328 118.553934 
L 333.869439 118.553934 
L 333.869439 114.799019 
L 333.938151 114.799019 
L 333.938151 111.044105 
L 335.628315 111.044105 
L 335.628315 107.28919 
L 338.962219 107.28919 
L 338.962219 103.534276 
L 339.108567 103.534276 
L 339.108567 99.779361 
L 339.471539 99.779361 
L 339.471539 96.024447 
L 341.088224 96.024447 
L 341.088224 92.269532 
L 342.336214 92.269532 
L 342.336214 88.514618 
L 342.531756 88.514618 
L 342.531756 84.759703 
L 345.069647 84.759703 
L 345.069647 81.004789 
L 359.422596 81.004789 
L 359.422596 77.249874 
L 363.762232 77.249874 
L 363.762232 73.49496 
L 363.762232 73.49496 
L 363.762232 73.49496 
L 450.672 73.49496 
" style="fill:none;stroke:#00bfbf;stroke-linecap:square;stroke-width:1.5;"/>
   </g>
   <g id="line2d_93">
    <path clip-path="url(#p54a92f5076)" style="fill:none;stroke:#00bfbf;stroke-linecap:square;stroke-width:1.5;"/>
   </g>
   <g id="line2d_94">
    <path clip-path="url(#p54a92f5076)" d="M 335.716556 291.28 
L 335.716556 287.525086 
L 338.597635 287.525086 
L 338.597635 283.770171 
L 338.886693 283.770171 
L 338.886693 280.015257 
L 339.252173 280.015257 
L 339.252173 276.260342 
L 339.7017 276.260342 
L 339.7017 272.505428 
L 339.746717 272.505428 
L 339.746717 268.750513 
L 340.086386 268.750513 
L 340.086386 264.995599 
L 340.390442 264.995599 
L 340.390442 261.240684 
L 340.514455 261.240684 
L 340.514455 257.48577 
L 340.649919 257.48577 
L 340.649919 253.730855 
L 341.172432 253.730855 
L 341.172432 249.975941 
L 341.373243 249.975941 
L 341.373243 246.221026 
L 341.761529 246.221026 
L 341.761529 242.466112 
L 342.666435 242.466112 
L 342.666435 238.711197 
L 342.96371 238.711197 
L 342.96371 234.956283 
L 343.105797 234.956283 
L 343.105797 231.201368 
L 343.173848 231.201368 
L 343.173848 227.446454 
L 343.210573 227.446454 
L 343.210573 223.691539 
L 343.956085 223.691539 
L 343.956085 219.936625 
L 343.968634 219.936625 
L 343.968634 216.18171 
L 344.28785 216.18171 
L 344.28785 212.426796 
L 344.422428 212.426796 
L 344.422428 208.671881 
L 344.522991 208.671881 
L 344.522991 204.916967 
L 345.39699 204.916967 
L 345.39699 201.162052 
L 346.469003 201.162052 
L 346.469003 197.407138 
L 346.920011 197.407138 
L 346.920011 193.652223 
L 348.086768 193.652223 
L 348.086768 189.897309 
L 349.241409 189.897309 
L 349.241409 186.142394 
L 350.097894 186.142394 
L 350.097894 182.38748 
L 350.484813 182.38748 
L 350.484813 178.632565 
L 351.027106 178.632565 
L 351.027106 174.877651 
L 357.158471 174.877651 
L 357.158471 171.122736 
L 371.405161 171.122736 
L 371.405161 167.367822 
L 389.861104 167.367822 
L 389.861104 163.612907 
L 392.194318 163.612907 
L 392.194318 159.857993 
L 392.312993 159.857993 
L 392.312993 156.103079 
L 392.312993 156.103079 
L 392.312993 156.103079 
L 450.672 156.103079 
" style="fill:none;stroke:#bf00bf;stroke-linecap:square;stroke-width:1.5;"/>
   </g>
   <g id="line2d_95">
    <path clip-path="url(#p54a92f5076)" style="fill:none;stroke:#bf00bf;stroke-linecap:square;stroke-width:1.5;"/>
   </g>
   <g id="line2d_96">
    <path clip-path="url(#p54a92f5076)" d="M 347.393759 291.28 
L 347.393759 287.525086 
L 350.880116 287.525086 
L 350.880116 283.770171 
L 351.750698 283.770171 
L 351.750698 280.015257 
L 357.192884 280.015257 
L 357.192884 276.260342 
L 357.919895 276.260342 
L 357.919895 272.505428 
L 358.086413 272.505428 
L 358.086413 268.750513 
L 358.870267 268.750513 
L 358.870267 264.995599 
L 359.055437 264.995599 
L 359.055437 261.240684 
L 359.322879 261.240684 
L 359.322879 257.48577 
L 359.624403 257.48577 
L 359.624403 253.730855 
L 359.638691 253.730855 
L 359.638691 249.975941 
L 360.480217 249.975941 
L 360.480217 246.221026 
L 360.586004 246.221026 
L 360.586004 242.466112 
L 360.745624 242.466112 
L 360.745624 238.711197 
L 360.927681 238.711197 
L 360.927681 234.956283 
L 360.950893 234.956283 
L 360.950893 231.201368 
L 361.284546 231.201368 
L 361.284546 227.446454 
L 361.317929 227.446454 
L 361.317929 223.691539 
L 361.43242 223.691539 
L 361.43242 219.936625 
L 361.62612 219.936625 
L 361.62612 216.18171 
L 362.005959 216.18171 
L 362.005959 212.426796 
L 362.418645 212.426796 
L 362.418645 208.671881 
L 363.038248 208.671881 
L 363.038248 204.916967 
L 363.180228 204.916967 
L 363.180228 201.162052 
L 363.847134 201.162052 
L 363.847134 197.407138 
L 364.132983 197.407138 
L 364.132983 193.652223 
L 364.156848 193.652223 
L 364.156848 189.897309 
L 368.535469 189.897309 
L 368.535469 186.142394 
L 427.179059 186.142394 
L 427.179059 182.38748 
L 429.51271 182.38748 
L 429.51271 178.632565 
L 439.658364 178.632565 
L 439.658364 174.877651 
L 442.216502 174.877651 
L 442.216502 171.122736 
L 442.749055 171.122736 
L 442.749055 167.367822 
L 443.082027 167.367822 
L 443.082027 163.612907 
L 443.082027 163.612907 
L 443.082027 163.612907 
L 450.672 163.612907 
" style="fill:none;stroke:#ff0000;stroke-linecap:square;stroke-width:3;"/>
   </g>
   <g id="line2d_97">
    <path clip-path="url(#p54a92f5076)" style="fill:none;stroke:#ff0000;stroke-linecap:square;stroke-width:3;"/>
   </g>
   <g id="line2d_98">
    <path clip-path="url(#p54a92f5076)" d="M 450.672 291.28 
L 450.672 6.845228 
" style="fill:none;stroke:#000000;stroke-linecap:square;stroke-width:1.5;"/>
   </g>
   <g id="patch_3">
    <path d="M 59.72 291.28 
L 59.72 6.845228 
" style="fill:none;stroke:#000000;stroke-linecap:square;stroke-linejoin:miter;stroke-width:0.8;"/>
   </g>
   <g id="patch_4">
    <path d="M 450.672 291.28 
L 450.672 6.845228 
" style="fill:none;stroke:#000000;stroke-linecap:square;stroke-linejoin:miter;stroke-width:0.8;"/>
   </g>
   <g id="patch_5">
    <path d="M 59.72 291.28 
L 450.672 291.28 
" style="fill:none;stroke:#000000;stroke-linecap:square;stroke-linejoin:miter;stroke-width:0.8;"/>
   </g>
   <g id="patch_6">
    <path d="M 59.72 6.845228 
L 450.672 6.845228 
" style="fill:none;stroke:#000000;stroke-linecap:square;stroke-linejoin:miter;stroke-width:0.8;"/>
   </g>
   <g id="text_12">
    <!-- {f15-f19}, 5-D -->
    <defs>
     <path d="M 51.125 -9.28125 
L 51.125 -16.3125 
L 48.09375 -16.3125 
Q 35.9375 -16.3125 31.8125 -12.6875 
Q 27.6875 -9.078125 27.6875 1.703125 
L 27.6875 13.375 
Q 27.6875 20.75 25.046875 23.578125 
Q 22.40625 26.421875 15.484375 26.421875 
L 12.5 26.421875 
L 12.5 33.40625 
L 15.484375 33.40625 
Q 22.46875 33.40625 25.078125 36.203125 
Q 27.6875 39.015625 27.6875 46.296875 
L 27.6875 58.015625 
Q 27.6875 68.796875 31.8125 72.390625 
Q 35.9375 75.984375 48.09375 75.984375 
L 51.125 75.984375 
L 51.125 69 
L 47.796875 69 
Q 40.921875 69 38.8125 66.84375 
Q 36.71875 64.703125 36.71875 57.8125 
L 36.71875 45.703125 
Q 36.71875 38.03125 34.5 34.5625 
Q 32.28125 31.109375 26.90625 29.890625 
Q 32.328125 28.5625 34.515625 25.09375 
Q 36.71875 21.625 36.71875 14.015625 
L 36.71875 1.90625 
Q 36.71875 -4.984375 38.8125 -7.125 
Q 40.921875 -9.28125 47.796875 -9.28125 
z
" id="DejaVuSans-7b"/>
     <path d="M 4.890625 31.390625 
L 31.203125 31.390625 
L 31.203125 23.390625 
L 4.890625 23.390625 
z
" id="DejaVuSans-2d"/>
     <path d="M 10.984375 1.515625 
L 10.984375 10.5 
Q 14.703125 8.734375 18.5 7.8125 
Q 22.3125 6.890625 25.984375 6.890625 
Q 35.75 6.890625 40.890625 13.453125 
Q 46.046875 20.015625 46.78125 33.40625 
Q 43.953125 29.203125 39.59375 26.953125 
Q 35.25 24.703125 29.984375 24.703125 
Q 19.046875 24.703125 12.671875 31.3125 
Q 6.296875 37.9375 6.296875 49.421875 
Q 6.296875 60.640625 12.9375 67.421875 
Q 19.578125 74.21875 30.609375 74.21875 
Q 43.265625 74.21875 49.921875 64.515625 
Q 56.59375 54.828125 56.59375 36.375 
Q 56.59375 19.140625 48.40625 8.859375 
Q 40.234375 -1.421875 26.421875 -1.421875 
Q 22.703125 -1.421875 18.890625 -0.6875 
Q 15.09375 0.046875 10.984375 1.515625 
z
M 30.609375 32.421875 
Q 37.25 32.421875 41.125 36.953125 
Q 45.015625 41.5 45.015625 49.421875 
Q 45.015625 57.28125 41.125 61.84375 
Q 37.25 66.40625 30.609375 66.40625 
Q 23.96875 66.40625 20.09375 61.84375 
Q 16.21875 57.28125 16.21875 49.421875 
Q 16.21875 41.5 20.09375 36.953125 
Q 23.96875 32.421875 30.609375 32.421875 
z
" id="DejaVuSans-39"/>
     <path d="M 12.5 -9.28125 
L 15.921875 -9.28125 
Q 22.75 -9.28125 24.828125 -7.171875 
Q 26.90625 -5.078125 26.90625 1.90625 
L 26.90625 14.015625 
Q 26.90625 21.625 29.09375 25.09375 
Q 31.296875 28.5625 36.71875 29.890625 
Q 31.296875 31.109375 29.09375 34.5625 
Q 26.90625 38.03125 26.90625 45.703125 
L 26.90625 57.8125 
Q 26.90625 64.75 24.828125 66.875 
Q 22.75 69 15.921875 69 
L 12.5 69 
L 12.5 75.984375 
L 15.578125 75.984375 
Q 27.734375 75.984375 31.8125 72.390625 
Q 35.890625 68.796875 35.890625 58.015625 
L 35.890625 46.296875 
Q 35.890625 39.015625 38.515625 36.203125 
Q 41.15625 33.40625 48.09375 33.40625 
L 51.125 33.40625 
L 51.125 26.421875 
L 48.09375 26.421875 
Q 41.15625 26.421875 38.515625 23.578125 
Q 35.890625 20.75 35.890625 13.375 
L 35.890625 1.703125 
Q 35.890625 -9.078125 31.8125 -12.6875 
Q 27.734375 -16.3125 15.578125 -16.3125 
L 12.5 -16.3125 
z
" id="DejaVuSans-7d"/>
     <path d="M 11.71875 12.40625 
L 22.015625 12.40625 
L 22.015625 4 
L 14.015625 -11.625 
L 7.71875 -11.625 
L 11.71875 4 
z
" id="DejaVuSans-2c"/>
    </defs>
    <g transform="translate(182.346 27.730798)scale(0.2 -0.2)">
     <use xlink:href="#DejaVuSans-7b"/>
     <use x="63.623047" xlink:href="#DejaVuSans-66"/>
     <use x="98.828125" xlink:href="#DejaVuSans-31"/>
     <use x="162.451172" xlink:href="#DejaVuSans-35"/>
     <use x="226.074219" xlink:href="#DejaVuSans-2d"/>
     <use x="262.158203" xlink:href="#DejaVuSans-66"/>
     <use x="297.363281" xlink:href="#DejaVuSans-31"/>
     <use x="360.986328" xlink:href="#DejaVuSans-39"/>
     <use x="424.609375" xlink:href="#DejaVuSans-7d"/>
     <use x="488.232422" xlink:href="#DejaVuSans-2c"/>
     <use x="520.019531" xlink:href="#DejaVuSans-20"/>
     <use x="551.806641" xlink:href="#DejaVuSans-35"/>
     <use x="615.429688" xlink:href="#DejaVuSans-2d"/>
     <use x="651.513672" xlink:href="#DejaVuSans-44"/>
    </g>
   </g>
   <g id="text_13">
    <!-- absolute targets -->
    <defs>
     <path d="M 48.6875 27.296875 
Q 48.6875 37.203125 44.609375 42.84375 
Q 40.53125 48.484375 33.40625 48.484375 
Q 26.265625 48.484375 22.1875 42.84375 
Q 18.109375 37.203125 18.109375 27.296875 
Q 18.109375 17.390625 22.1875 11.75 
Q 26.265625 6.109375 33.40625 6.109375 
Q 40.53125 6.109375 44.609375 11.75 
Q 48.6875 17.390625 48.6875 27.296875 
z
M 18.109375 46.390625 
Q 20.953125 51.265625 25.265625 53.625 
Q 29.59375 56 35.59375 56 
Q 45.5625 56 51.78125 48.09375 
Q 58.015625 40.1875 58.015625 27.296875 
Q 58.015625 14.40625 51.78125 6.484375 
Q 45.5625 -1.421875 35.59375 -1.421875 
Q 29.59375 -1.421875 25.265625 0.953125 
Q 20.953125 3.328125 18.109375 8.203125 
L 18.109375 0 
L 9.078125 0 
L 9.078125 75.984375 
L 18.109375 75.984375 
z
" id="DejaVuSans-62"/>
     <path d="M 8.5 21.578125 
L 8.5 54.6875 
L 17.484375 54.6875 
L 17.484375 21.921875 
Q 17.484375 14.15625 20.5 10.265625 
Q 23.53125 6.390625 29.59375 6.390625 
Q 36.859375 6.390625 41.078125 11.03125 
Q 45.3125 15.671875 45.3125 23.6875 
L 45.3125 54.6875 
L 54.296875 54.6875 
L 54.296875 0 
L 45.3125 0 
L 45.3125 8.40625 
Q 42.046875 3.421875 37.71875 1 
Q 33.40625 -1.421875 27.6875 -1.421875 
Q 18.265625 -1.421875 13.375 4.4375 
Q 8.5 10.296875 8.5 21.578125 
z
M 31.109375 56 
z
" id="DejaVuSans-75"/>
     <path d="M 56.203125 29.59375 
L 56.203125 25.203125 
L 14.890625 25.203125 
Q 15.484375 15.921875 20.484375 11.0625 
Q 25.484375 6.203125 34.421875 6.203125 
Q 39.59375 6.203125 44.453125 7.46875 
Q 49.3125 8.734375 54.109375 11.28125 
L 54.109375 2.78125 
Q 49.265625 0.734375 44.1875 -0.34375 
Q 39.109375 -1.421875 33.890625 -1.421875 
Q 20.796875 -1.421875 13.15625 6.1875 
Q 5.515625 13.8125 5.515625 26.8125 
Q 5.515625 40.234375 12.765625 48.109375 
Q 20.015625 56 32.328125 56 
Q 43.359375 56 49.78125 48.890625 
Q 56.203125 41.796875 56.203125 29.59375 
z
M 47.21875 32.234375 
Q 47.125 39.59375 43.09375 43.984375 
Q 39.0625 48.390625 32.421875 48.390625 
Q 24.90625 48.390625 20.390625 44.140625 
Q 15.875 39.890625 15.1875 32.171875 
z
" id="DejaVuSans-65"/>
    </defs>
    <g transform="translate(59.72 601.060445)scale(0.14 -0.14)">
     <use xlink:href="#DejaVuSans-61"/>
     <use x="61.279297" xlink:href="#DejaVuSans-62"/>
     <use x="124.755859" xlink:href="#DejaVuSans-73"/>
     <use x="176.855469" xlink:href="#DejaVuSans-6f"/>
     <use x="238.037109" xlink:href="#DejaVuSans-6c"/>
     <use x="265.820312" xlink:href="#DejaVuSans-75"/>
     <use x="329.199219" xlink:href="#DejaVuSans-74"/>
     <use x="368.408203" xlink:href="#DejaVuSans-65"/>
     <use x="429.931641" xlink:href="#DejaVuSans-20"/>
     <use x="461.71875" xlink:href="#DejaVuSans-74"/>
     <use x="500.927734" xlink:href="#DejaVuSans-61"/>
     <use x="562.207031" xlink:href="#DejaVuSans-72"/>
     <use x="603.304688" xlink:href="#DejaVuSans-67"/>
     <use x="666.78125" xlink:href="#DejaVuSans-65"/>
     <use x="728.304688" xlink:href="#DejaVuSans-74"/>
     <use x="767.513672" xlink:href="#DejaVuSans-73"/>
    </g>
   </g>
   <g id="text_14">
    <!-- v0.0.0 -->
    <g style="fill:#808080;" transform="translate(239.51475 286.355965)scale(0.1 -0.1)">
     <use xlink:href="#DejaVuSans-76"/>
     <use x="59.179688" xlink:href="#DejaVuSans-30"/>
     <use x="122.802734" xlink:href="#DejaVuSans-2e"/>
     <use x="154.589844" xlink:href="#DejaVuSans-30"/>
     <use x="218.212891" xlink:href="#DejaVuSans-2e"/>
     <use x="250" xlink:href="#DejaVuSans-30"/>
    </g>
   </g>
   <g id="legend_1">
    <g id="patch_7">
     <path d="M 73.72 140.270228 
L 202.941875 140.270228 
Q 206.941875 140.270228 206.941875 136.270228 
L 206.941875 20.845228 
Q 206.941875 16.845228 202.941875 16.845228 
L 73.72 16.845228 
Q 69.72 16.845228 69.72 20.845228 
L 69.72 136.270228 
Q 69.72 140.270228 73.72 140.270228 
z
" style="fill:#ffffff;opacity:0.2;stroke:#cccccc;stroke-linejoin:miter;"/>
    </g>
    <g id="line2d_99">
     <path d="M 77.72 33.042103 
L 117.72 33.042103 
" style="fill:none;stroke:#000000;stroke-linecap:square;stroke-width:1.5;"/>
    </g>
    <g id="line2d_100"/>
    <g id="text_15">
     <!-- 1: 5/5 -->
     <defs>
      <path d="M 11.71875 12.40625 
L 22.015625 12.40625 
L 22.015625 0 
L 11.71875 0 
z
M 11.71875 51.703125 
L 22.015625 51.703125 
L 22.015625 39.3125 
L 11.71875 39.3125 
z
" id="DejaVuSans-3a"/>
     </defs>
     <g transform="translate(133.72 40.042103)scale(0.2 -0.2)">
      <use xlink:href="#DejaVuSans-31"/>
      <use x="63.623047" xlink:href="#DejaVuSans-3a"/>
      <use x="97.314453" xlink:href="#DejaVuSans-20"/>
      <use x="129.101562" xlink:href="#DejaVuSans-35"/>
      <use x="192.724609" xlink:href="#DejaVuSans-2f"/>
      <use x="226.416016" xlink:href="#DejaVuSans-35"/>
     </g>
    </g>
    <g id="line2d_101">
     <path d="M 77.72 62.398353 
L 117.72 62.398353 
" style="fill:none;stroke:#00bfbf;stroke-linecap:square;stroke-width:1.5;"/>
    </g>
    <g id="line2d_102"/>
    <g id="text_16">
     <!-- -1: 5/5 -->
     <g transform="translate(133.72 69.398353)scale(0.2 -0.2)">
      <use xlink:href="#DejaVuSans-2d"/>
      <use x="36.083984" xlink:href="#DejaVuSans-31"/>
      <use x="99.707031" xlink:href="#DejaVuSans-3a"/>
      <use x="133.398438" xlink:href="#DejaVuSans-20"/>
      <use x="165.185547" xlink:href="#DejaVuSans-35"/>
      <use x="228.808594" xlink:href="#DejaVuSans-2f"/>
      <use x="262.5" xlink:href="#DejaVuSans-35"/>
     </g>
    </g>
    <g id="line2d_103">
     <path d="M 77.72 91.754603 
L 117.72 91.754603 
" style="fill:none;stroke:#bf00bf;stroke-linecap:square;stroke-width:1.5;"/>
    </g>
    <g id="line2d_104"/>
    <g id="text_17">
     <!-- -4: 5/5 -->
     <g transform="translate(133.72 98.754603)scale(0.2 -0.2)">
      <use xlink:href="#DejaVuSans-2d"/>
      <use x="36.083984" xlink:href="#DejaVuSans-34"/>
      <use x="99.707031" xlink:href="#DejaVuSans-3a"/>
      <use x="133.398438" xlink:href="#DejaVuSans-20"/>
      <use x="165.185547" xlink:href="#DejaVuSans-35"/>
      <use x="228.808594" xlink:href="#DejaVuSans-2f"/>
      <use x="262.5" xlink:href="#DejaVuSans-35"/>
     </g>
    </g>
    <g id="line2d_105">
     <path d="M 77.72 121.110853 
L 117.72 121.110853 
" style="fill:none;stroke:#ff0000;stroke-linecap:square;stroke-width:3;"/>
    </g>
    <g id="line2d_106"/>
    <g id="text_18">
     <!-- -8: 5/5 -->
     <g transform="translate(133.72 128.110853)scale(0.2 -0.2)">
      <use xlink:href="#DejaVuSans-2d"/>
      <use x="36.083984" xlink:href="#DejaVuSans-38"/>
      <use x="99.707031" xlink:href="#DejaVuSans-3a"/>
      <use x="133.398438" xlink:href="#DejaVuSans-20"/>
      <use x="165.185547" xlink:href="#DejaVuSans-35"/>
      <use x="228.808594" xlink:href="#DejaVuSans-2f"/>
      <use x="262.5" xlink:href="#DejaVuSans-35"/>
     </g>
    </g>
   </g>
  </g>
 </g>
 <defs>
  <clipPath id="p54a92f5076">
   <rect height="284.434772" width="390.952" x="59.72" y="6.845228"/>
  </clipPath>
 </defs>
</svg>
