<?xml version="1.0" encoding="utf-8" standalone="no"?>
<!DOCTYPE svg PUBLIC "-//W3C//DTD SVG 1.1//EN"
  "http://www.w3.org/Graphics/SVG/1.1/DTD/svg11.dtd">
<!-- Created with matplotlib (http://matplotlib.org/) -->
<svg height="345.6pt" version="1.1" viewBox="0 0 460.8 345.6" width="460.8pt" xmlns="http://www.w3.org/2000/svg" xmlns:xlink="http://www.w3.org/1999/xlink">
 <defs>
  <style type="text/css">
*{stroke-linecap:butt;stroke-linejoin:round;}
  </style>
 </defs>
 <g id="figure_1">
  <g id="patch_1">
   <path d="M 0 345.6 
L 460.8 345.6 
L 460.8 0 
L 0 0 
z
" style="fill:#ffffff;"/>
  </g>
  <g id="axes_1">
   <g id="patch_2">
    <path d="M 59.72 291.28 
L 450.672 291.28 
L 450.672 6.845228 
L 59.72 6.845228 
z
" style="fill:#ffffff;"/>
   </g>
   <g id="line2d_1"/>
   <g id="line2d_2"/>
   <g id="line2d_3">
    <path clip-path="url(#p43cc11fb26)" d="M 225.167115 291.28 
L 225.167115 287.525086 
L 262.108485 287.525086 
L 262.108485 283.770171 
L 278.434641 283.770171 
L 278.434641 280.015257 
L 305.344506 280.015257 
L 305.344506 276.260342 
L 310.808559 276.260342 
L 310.808559 272.505428 
L 311.170807 272.505428 
L 311.170807 268.750513 
L 313.434385 268.750513 
L 313.434385 264.995599 
L 321.553631 264.995599 
L 321.553631 261.240684 
L 332.314254 261.240684 
L 332.314254 257.48577 
L 339.8319 257.48577 
L 339.8319 253.730855 
L 340.76018 253.730855 
L 340.76018 249.975941 
L 345.348001 249.975941 
L 345.348001 246.221026 
L 358.044498 246.221026 
L 358.044498 242.466112 
L 388.441415 242.466112 
L 388.441415 238.711197 
L 390.289561 238.711197 
L 390.289561 234.956283 
L 391.296155 234.956283 
L 391.296155 231.201368 
L 391.296155 231.201368 
L 391.296155 231.201368 
L 450.672 231.201368 
" style="fill:none;stroke:#f5deb3;stroke-linecap:square;stroke-width:1.5;"/>
   </g>
   <g id="line2d_4">
    <path clip-path="url(#p43cc11fb26)" d="M 256.40261 291.28 
L 256.40261 287.525086 
L 265.482507 287.525086 
L 265.482507 283.770171 
L 270.337785 283.770171 
L 270.337785 280.015257 
L 288.765722 280.015257 
L 288.765722 276.260342 
L 291.969755 276.260342 
L 291.969755 272.505428 
L 333.073923 272.505428 
L 333.073923 268.750513 
L 335.718625 268.750513 
L 335.718625 264.995599 
L 339.289759 264.995599 
L 339.289759 261.240684 
L 344.630391 261.240684 
L 344.630391 257.48577 
L 346.515378 257.48577 
L 346.515378 253.730855 
L 351.929175 253.730855 
L 351.929175 249.975941 
L 354.472509 249.975941 
L 354.472509 246.221026 
L 355.848666 246.221026 
L 355.848666 242.466112 
L 359.419081 242.466112 
L 359.419081 238.711197 
L 363.393442 238.711197 
L 363.393442 234.956283 
L 363.552067 234.956283 
L 363.552067 231.201368 
L 364.795046 231.201368 
L 364.795046 227.446454 
L 367.444267 227.446454 
L 367.444267 223.691539 
L 370.022384 223.691539 
L 370.022384 219.936625 
L 370.182639 219.936625 
L 370.182639 216.18171 
L 372.57367 216.18171 
L 372.57367 212.426796 
L 372.856198 212.426796 
L 372.856198 208.671881 
L 378.295016 208.671881 
L 378.295016 204.916967 
L 381.719847 204.916967 
L 381.719847 201.162052 
L 382.176845 201.162052 
L 382.176845 197.407138 
L 384.916941 197.407138 
L 384.916941 193.652223 
L 384.916941 193.652223 
L 384.916941 193.652223 
L 450.672 193.652223 
" style="fill:none;stroke:#f5deb3;stroke-linecap:square;stroke-width:1.5;"/>
   </g>
   <g id="line2d_5">
    <path clip-path="url(#p43cc11fb26)" d="M 224.113158 291.28 
L 224.113158 287.525086 
L 265.9475 287.525086 
L 265.9475 283.770171 
L 269.077987 283.770171 
L 269.077987 280.015257 
L 273.094016 280.015257 
L 273.094016 276.260342 
L 287.864326 276.260342 
L 287.864326 272.505428 
L 294.329279 272.505428 
L 294.329279 268.750513 
L 307.931824 268.750513 
L 307.931824 264.995599 
L 308.759562 264.995599 
L 308.759562 261.240684 
L 318.897073 261.240684 
L 318.897073 257.48577 
L 335.130911 257.48577 
L 335.130911 253.730855 
L 346.756577 253.730855 
L 346.756577 249.975941 
L 352.326425 249.975941 
L 352.326425 246.221026 
L 353.424994 246.221026 
L 353.424994 242.466112 
L 366.644267 242.466112 
L 366.644267 238.711197 
L 370.532254 238.711197 
L 370.532254 234.956283 
L 377.169195 234.956283 
L 377.169195 231.201368 
L 380.790637 231.201368 
L 380.790637 227.446454 
L 381.084365 227.446454 
L 381.084365 223.691539 
L 385.464825 223.691539 
L 385.464825 219.936625 
L 395.304033 219.936625 
L 395.304033 216.18171 
L 408.341269 216.18171 
L 408.341269 212.426796 
L 414.854897 212.426796 
L 414.854897 208.671881 
L 417.044128 208.671881 
L 417.044128 204.916967 
L 426.865188 204.916967 
L 426.865188 201.162052 
L 426.865188 201.162052 
L 426.865188 201.162052 
L 450.672 201.162052 
" style="fill:none;stroke:#f5deb3;stroke-linecap:square;stroke-width:1.5;"/>
   </g>
   <g id="line2d_6"/>
   <g id="line2d_7">
    <path clip-path="url(#p43cc11fb26)" d="M 230.213919 291.28 
L 230.213919 287.525086 
L 297.623862 287.525086 
L 297.623862 283.770171 
L 298.558082 283.770171 
L 298.558082 280.015257 
L 335.236878 280.015257 
L 335.236878 276.260342 
L 337.425669 276.260342 
L 337.425669 272.505428 
L 365.366022 272.505428 
L 365.366022 268.750513 
L 371.200968 268.750513 
L 371.200968 264.995599 
L 375.763544 264.995599 
L 375.763544 261.240684 
L 379.002033 261.240684 
L 379.002033 257.48577 
L 400.212613 257.48577 
L 400.212613 253.730855 
L 418.594136 253.730855 
L 418.594136 249.975941 
L 424.153275 249.975941 
L 424.153275 246.221026 
L 426.842137 246.221026 
L 426.842137 242.466112 
L 433.871512 242.466112 
L 433.871512 238.711197 
L 461.8 238.711197 
" style="fill:none;stroke:#f5deb3;stroke-linecap:square;stroke-width:1.5;"/>
   </g>
   <g id="line2d_8"/>
   <g id="line2d_9">
    <path clip-path="url(#p43cc11fb26)" d="M 230.052249 291.28 
L 230.052249 287.525086 
L 231.216133 287.525086 
L 231.216133 283.770171 
L 276.367833 283.770171 
L 276.367833 280.015257 
L 305.837238 280.015257 
L 305.837238 276.260342 
L 328.224005 276.260342 
L 328.224005 272.505428 
L 331.101944 272.505428 
L 331.101944 268.750513 
L 366.686389 268.750513 
L 366.686389 264.995599 
L 382.943873 264.995599 
L 382.943873 261.240684 
L 398.629224 261.240684 
L 398.629224 257.48577 
L 402.080355 257.48577 
L 402.080355 253.730855 
L 402.614652 253.730855 
L 402.614652 249.975941 
L 402.8277 249.975941 
L 402.8277 246.221026 
L 416.451884 246.221026 
L 416.451884 242.466112 
L 416.720197 242.466112 
L 416.720197 238.711197 
L 417.58631 238.711197 
L 417.58631 234.956283 
L 418.244528 234.956283 
L 418.244528 231.201368 
L 420.066305 231.201368 
L 420.066305 227.446454 
L 431.017439 227.446454 
L 431.017439 223.691539 
L 431.512283 223.691539 
L 431.512283 219.936625 
L 437.246217 219.936625 
L 437.246217 216.18171 
L 438.268986 216.18171 
L 438.268986 212.426796 
L 438.644829 212.426796 
L 438.644829 208.671881 
L 439.329191 208.671881 
L 439.329191 204.916967 
L 447.510718 204.916967 
L 447.510718 201.162052 
L 449.230347 201.162052 
L 449.230347 197.407138 
L 451.26365 197.407138 
L 451.26365 193.652223 
L 454.575578 193.652223 
L 454.575578 189.897309 
L 454.663332 189.897309 
L 454.663332 186.142394 
L 456.573023 186.142394 
L 456.573023 182.38748 
L 457.165977 182.38748 
L 457.165977 178.632565 
L 457.276602 178.632565 
L 457.276602 174.877651 
L 461.8 174.877651 
" style="fill:none;stroke:#f5deb3;stroke-linecap:square;stroke-width:1.5;"/>
   </g>
   <g id="line2d_10">
    <path clip-path="url(#p43cc11fb26)" d="M 411.630403 291.28 
L 411.630403 287.525086 
L 451.683631 287.525086 
L 451.683631 283.770171 
L 451.683631 283.770171 
" style="fill:none;stroke:#f5deb3;stroke-linecap:square;stroke-width:1.5;"/>
   </g>
   <g id="line2d_11">
    <path clip-path="url(#p43cc11fb26)" d="M 255.883153 291.28 
L 255.883153 287.525086 
L 276.756965 287.525086 
L 276.756965 283.770171 
L 297.052526 283.770171 
L 297.052526 280.015257 
L 298.306572 280.015257 
L 298.306572 276.260342 
L 307.0866 276.260342 
L 307.0866 272.505428 
L 320.98909 272.505428 
L 320.98909 268.750513 
L 330.846957 268.750513 
L 330.846957 264.995599 
L 343.662265 264.995599 
L 343.662265 261.240684 
L 343.894771 261.240684 
L 343.894771 257.48577 
L 352.814891 257.48577 
L 352.814891 253.730855 
L 353.321974 253.730855 
L 353.321974 249.975941 
L 353.876299 249.975941 
L 353.876299 246.221026 
L 360.150801 246.221026 
L 360.150801 242.466112 
L 370.296769 242.466112 
L 370.296769 238.711197 
L 373.465256 238.711197 
L 373.465256 234.956283 
L 374.797671 234.956283 
L 374.797671 231.201368 
L 376.986663 231.201368 
L 376.986663 227.446454 
L 385.189709 227.446454 
L 385.189709 223.691539 
L 386.19915 223.691539 
L 386.19915 219.936625 
L 387.659642 219.936625 
L 387.659642 216.18171 
L 394.518983 216.18171 
L 394.518983 212.426796 
L 398.38431 212.426796 
L 398.38431 208.671881 
L 400.233778 208.671881 
L 400.233778 204.916967 
L 403.756477 204.916967 
L 403.756477 201.162052 
L 408.313625 201.162052 
L 408.313625 197.407138 
L 424.953904 197.407138 
L 424.953904 193.652223 
L 428.812809 193.652223 
L 428.812809 189.897309 
L 434.121784 189.897309 
L 434.121784 186.142394 
L 441.793149 186.142394 
L 441.793149 182.38748 
L 453.208853 182.38748 
L 453.208853 178.632565 
L 453.208853 178.632565 
" style="fill:none;stroke:#f5deb3;stroke-linecap:square;stroke-width:1.5;"/>
   </g>
   <g id="line2d_12">
    <path clip-path="url(#p43cc11fb26)" d="M 268.884894 291.28 
L 268.884894 287.525086 
L 349.478487 287.525086 
L 349.478487 283.770171 
L 349.478487 283.770171 
L 349.478487 283.770171 
L 450.672 283.770171 
" style="fill:none;stroke:#f5deb3;stroke-linecap:square;stroke-width:1.5;"/>
   </g>
   <g id="line2d_13"/>
   <g id="line2d_14">
    <path clip-path="url(#p43cc11fb26)" d="M 210.3584 291.28 
L 210.3584 287.525086 
L 240.174662 287.525086 
L 240.174662 283.770171 
L 268.022809 283.770171 
L 268.022809 280.015257 
L 282.385328 280.015257 
L 282.385328 276.260342 
L 290.839716 276.260342 
L 290.839716 272.505428 
L 293.938736 272.505428 
L 293.938736 268.750513 
L 298.318822 268.750513 
L 298.318822 264.995599 
L 310.173693 264.995599 
L 310.173693 261.240684 
L 318.687186 261.240684 
L 318.687186 257.48577 
L 329.591763 257.48577 
L 329.591763 253.730855 
L 339.822581 253.730855 
L 339.822581 249.975941 
L 354.588825 249.975941 
L 354.588825 246.221026 
L 361.641787 246.221026 
L 361.641787 242.466112 
L 376.494604 242.466112 
L 376.494604 238.711197 
L 378.218341 238.711197 
L 378.218341 234.956283 
L 379.093833 234.956283 
L 379.093833 231.201368 
L 381.907896 231.201368 
L 381.907896 227.446454 
L 382.943873 227.446454 
L 382.943873 223.691539 
L 383.861321 223.691539 
L 383.861321 219.936625 
L 387.138199 219.936625 
L 387.138199 216.18171 
L 391.047499 216.18171 
L 391.047499 212.426796 
L 391.589112 212.426796 
L 391.589112 208.671881 
L 391.589112 208.671881 
L 391.589112 208.671881 
L 450.672 208.671881 
" style="fill:none;stroke:#f5deb3;stroke-linecap:square;stroke-width:1.5;"/>
   </g>
   <g id="line2d_15"/>
   <g id="line2d_16">
    <path clip-path="url(#p43cc11fb26)" d="M 314.060884 291.28 
L 314.060884 287.525086 
L 347.352308 287.525086 
L 347.352308 283.770171 
L 356.033613 283.770171 
L 356.033613 280.015257 
L 358.082472 280.015257 
L 358.082472 276.260342 
L 366.982808 276.260342 
L 366.982808 272.505428 
L 390.726946 272.505428 
L 390.726946 268.750513 
L 414.946789 268.750513 
L 414.946789 264.995599 
L 415.044358 264.995599 
L 415.044358 261.240684 
L 422.982062 261.240684 
L 422.982062 257.48577 
L 436.440776 257.48577 
L 436.440776 253.730855 
L 446.394716 253.730855 
L 446.394716 249.975941 
L 458.144797 249.975941 
L 458.144797 246.221026 
L 460.535052 246.221026 
L 460.535052 242.466112 
L 461.326856 242.466112 
L 461.326856 238.711197 
L 461.8 238.711197 
" style="fill:none;stroke:#f5deb3;stroke-linecap:square;stroke-width:1.5;"/>
   </g>
   <g id="line2d_17"/>
   <g id="line2d_18">
    <path clip-path="url(#p43cc11fb26)" d="M 202.036113 291.28 
L 202.036113 287.525086 
L 250.333027 287.525086 
L 250.333027 283.770171 
L 258.357048 283.770171 
L 258.357048 280.015257 
L 263.315876 280.015257 
L 263.315876 276.260342 
L 266.448033 276.260342 
L 266.448033 272.505428 
L 271.416152 272.505428 
L 271.416152 268.750513 
L 271.907906 268.750513 
L 271.907906 264.995599 
L 280.936626 264.995599 
L 280.936626 261.240684 
L 284.974317 261.240684 
L 284.974317 257.48577 
L 294.582788 257.48577 
L 294.582788 253.730855 
L 299.660444 253.730855 
L 299.660444 249.975941 
L 301.303035 249.975941 
L 301.303035 246.221026 
L 310.761719 246.221026 
L 310.761719 242.466112 
L 311.908138 242.466112 
L 311.908138 238.711197 
L 312.846023 238.711197 
L 312.846023 234.956283 
L 315.473174 234.956283 
L 315.473174 231.201368 
L 316.422061 231.201368 
L 316.422061 227.446454 
L 332.723981 227.446454 
L 332.723981 223.691539 
L 345.760228 223.691539 
L 345.760228 219.936625 
L 346.633928 219.936625 
L 346.633928 216.18171 
L 355.725841 216.18171 
L 355.725841 212.426796 
L 356.77768 212.426796 
L 356.77768 208.671881 
L 356.77768 208.671881 
L 356.77768 208.671881 
L 450.672 208.671881 
" style="fill:none;stroke:#f5deb3;stroke-linecap:square;stroke-width:1.5;"/>
   </g>
   <g id="line2d_19">
    <path clip-path="url(#p43cc11fb26)" d="M 368.359747 291.28 
L 368.359747 287.525086 
L 372.875184 287.525086 
L 372.875184 283.770171 
L 375.939769 283.770171 
L 375.939769 280.015257 
L 380.527749 280.015257 
L 380.527749 276.260342 
L 380.606214 276.260342 
L 380.606214 272.505428 
L 380.867536 272.505428 
L 380.867536 268.750513 
L 382.327822 268.750513 
L 382.327822 264.995599 
L 382.959882 264.995599 
L 382.959882 261.240684 
L 383.606978 261.240684 
L 383.606978 257.48577 
L 383.688267 257.48577 
L 383.688267 253.730855 
L 390.776083 253.730855 
L 390.776083 249.975941 
L 399.624086 249.975941 
L 399.624086 246.221026 
L 406.991346 246.221026 
L 406.991346 242.466112 
L 410.910687 242.466112 
L 410.910687 238.711197 
L 432.898542 238.711197 
L 432.898542 234.956283 
L 461.8 234.956283 
" style="fill:none;stroke:#f5deb3;stroke-linecap:square;stroke-width:1.5;"/>
   </g>
   <g id="line2d_20">
    <path clip-path="url(#p43cc11fb26)" d="M 238.095665 291.28 
L 238.095665 287.525086 
L 244.103899 287.525086 
L 244.103899 283.770171 
L 284.431597 283.770171 
L 284.431597 280.015257 
L 291.265028 280.015257 
L 291.265028 276.260342 
L 297.571385 276.260342 
L 297.571385 272.505428 
L 300.22948 272.505428 
L 300.22948 268.750513 
L 302.260052 268.750513 
L 302.260052 264.995599 
L 302.529205 264.995599 
L 302.529205 261.240684 
L 315.57056 261.240684 
L 315.57056 257.48577 
L 328.404491 257.48577 
L 328.404491 253.730855 
L 331.350235 253.730855 
L 331.350235 249.975941 
L 333.624847 249.975941 
L 333.624847 246.221026 
L 333.784919 246.221026 
L 333.784919 242.466112 
L 334.361341 242.466112 
L 334.361341 238.711197 
L 335.785559 238.711197 
L 335.785559 234.956283 
L 342.826499 234.956283 
L 342.826499 231.201368 
L 343.030331 231.201368 
L 343.030331 227.446454 
L 344.094062 227.446454 
L 344.094062 223.691539 
L 345.344668 223.691539 
L 345.344668 219.936625 
L 349.977998 219.936625 
L 349.977998 216.18171 
L 353.013296 216.18171 
L 353.013296 212.426796 
L 358.44101 212.426796 
L 358.44101 208.671881 
L 375.056659 208.671881 
L 375.056659 204.916967 
L 388.886229 204.916967 
L 388.886229 201.162052 
L 405.170378 201.162052 
L 405.170378 197.407138 
L 405.664946 197.407138 
L 405.664946 193.652223 
L 411.468018 193.652223 
L 411.468018 189.897309 
L 414.449936 189.897309 
L 414.449936 186.142394 
L 414.449936 186.142394 
L 414.449936 186.142394 
L 450.672 186.142394 
" style="fill:none;stroke:#f5deb3;stroke-linecap:square;stroke-width:1.5;"/>
   </g>
   <g id="line2d_21">
    <path clip-path="url(#p43cc11fb26)" d="M 387.819454 291.28 
L 387.819454 287.525086 
L 387.819454 287.525086 
L 387.819454 287.525086 
L 450.672 287.525086 
" style="fill:none;stroke:#f5deb3;stroke-linecap:square;stroke-width:1.5;"/>
   </g>
   <g id="line2d_22">
    <path clip-path="url(#p43cc11fb26)" d="M 331.649455 291.28 
L 331.649455 287.525086 
L 356.749979 287.525086 
L 356.749979 283.770171 
L 366.144306 283.770171 
L 366.144306 280.015257 
L 368.432654 280.015257 
L 368.432654 276.260342 
L 371.217911 276.260342 
L 371.217911 272.505428 
L 376.964442 272.505428 
L 376.964442 268.750513 
L 386.744397 268.750513 
L 386.744397 264.995599 
L 386.969651 264.995599 
L 386.969651 261.240684 
L 389.671512 261.240684 
L 389.671512 257.48577 
L 389.671512 257.48577 
L 389.671512 257.48577 
L 450.672 257.48577 
" style="fill:none;stroke:#f5deb3;stroke-linecap:square;stroke-width:1.5;"/>
   </g>
   <g id="line2d_23">
    <path clip-path="url(#p43cc11fb26)" d="M 310.685258 291.28 
L 310.685258 287.525086 
L 310.685258 287.525086 
L 310.685258 287.525086 
L 450.672 287.525086 
" style="fill:none;stroke:#f5deb3;stroke-linecap:square;stroke-width:1.5;"/>
   </g>
   <g id="line2d_24">
    <path clip-path="url(#p43cc11fb26)" d="M 370.144404 291.28 
L 370.144404 287.525086 
L 376.610954 287.525086 
L 376.610954 283.770171 
L 379.368103 283.770171 
L 379.368103 280.015257 
L 417.591455 280.015257 
L 417.591455 276.260342 
L 417.626641 276.260342 
L 417.626641 272.505428 
L 418.829704 272.505428 
L 418.829704 268.750513 
L 418.964038 268.750513 
L 418.964038 264.995599 
L 419.16102 264.995599 
L 419.16102 261.240684 
L 423.239517 261.240684 
L 423.239517 257.48577 
L 426.396744 257.48577 
L 426.396744 253.730855 
L 428.319026 253.730855 
L 428.319026 249.975941 
L 431.664121 249.975941 
L 431.664121 246.221026 
L 451.736647 246.221026 
L 451.736647 242.466112 
L 461.8 242.466112 
" style="fill:none;stroke:#f5deb3;stroke-linecap:square;stroke-width:1.5;"/>
   </g>
   <g id="line2d_25">
    <path clip-path="url(#p43cc11fb26)" d="M 373.77827 291.28 
L 373.77827 287.525086 
L 374.202147 287.525086 
L 374.202147 283.770171 
L 375.281797 283.770171 
L 375.281797 280.015257 
L 375.281797 280.015257 
L 375.281797 280.015257 
L 450.672 280.015257 
" style="fill:none;stroke:#f5deb3;stroke-linecap:square;stroke-width:1.5;"/>
   </g>
   <g id="line2d_26">
    <path clip-path="url(#p43cc11fb26)" d="M 292.508849 291.28 
L 292.508849 288.115746 
L 363.928275 288.115746 
L 363.928275 284.951492 
L 389.593434 284.951492 
L 389.593434 281.787239 
L 391.772348 281.787239 
L 391.772348 278.622985 
L 418.53087 278.622985 
L 418.53087 275.458731 
L 424.148081 275.458731 
L 424.148081 272.294477 
L 424.148081 272.294477 
L 424.148081 272.294477 
L 450.672 272.294477 
" style="fill:none;stroke:#f5deb3;stroke-linecap:square;stroke-width:1.5;"/>
   </g>
   <g id="line2d_27"/>
   <g id="line2d_28">
    <path clip-path="url(#p43cc11fb26)" d="M 366.490883 291.28 
L 366.490883 287.525086 
L 366.673832 287.525086 
L 366.673832 283.770171 
L 369.035948 283.770171 
L 369.035948 280.015257 
L 407.595206 280.015257 
L 407.595206 276.260342 
L 408.08607 276.260342 
L 408.08607 272.505428 
L 438.20547 272.505428 
L 438.20547 268.750513 
L 440.746014 268.750513 
L 440.746014 264.995599 
L 441.656607 264.995599 
L 441.656607 261.240684 
L 458.277655 261.240684 
L 458.277655 257.48577 
L 461.8 257.48577 
" style="fill:none;stroke:#f5deb3;stroke-linecap:square;stroke-width:1.5;"/>
   </g>
   <g id="line2d_29">
    <path clip-path="url(#p43cc11fb26)" d="M 332.803297 291.28 
L 332.803297 287.525086 
L 355.781813 287.525086 
L 355.781813 283.770171 
L 355.781813 283.770171 
L 355.781813 283.770171 
L 450.672 283.770171 
" style="fill:none;stroke:#f5deb3;stroke-linecap:square;stroke-width:1.5;"/>
   </g>
   <g id="line2d_30">
    <path clip-path="url(#p43cc11fb26)" d="M 280.425789 291.28 
L 280.425789 287.525086 
L 304.95725 287.525086 
L 304.95725 283.770171 
L 329.565982 283.770171 
L 329.565982 280.015257 
L 336.342286 280.015257 
L 336.342286 276.260342 
L 358.369958 276.260342 
L 358.369958 272.505428 
L 365.649492 272.505428 
L 365.649492 268.750513 
L 376.78813 268.750513 
L 376.78813 264.995599 
L 389.970519 264.995599 
L 389.970519 261.240684 
L 390.878127 261.240684 
L 390.878127 257.48577 
L 391.750948 257.48577 
L 391.750948 253.730855 
L 391.750948 253.730855 
L 391.750948 253.730855 
L 450.672 253.730855 
" style="fill:none;stroke:#f5deb3;stroke-linecap:square;stroke-width:1.5;"/>
   </g>
   <g id="matplotlib.axis_1">
    <g id="xtick_1">
     <g id="line2d_31">
      <path clip-path="url(#p43cc11fb26)" d="M 59.72 291.28 
L 59.72 6.845228 
" style="fill:none;stroke:#b0b0b0;stroke-linecap:square;stroke-width:0.8;"/>
     </g>
     <g id="line2d_32">
      <defs>
       <path d="M 0 0 
L 0 3.5 
" id="mb2f717e76c" style="stroke:#000000;stroke-width:0.8;"/>
      </defs>
      <g>
       <use style="stroke:#000000;stroke-width:0.8;" x="59.72" xlink:href="#mb2f717e76c" y="291.28"/>
      </g>
     </g>
     <g id="text_1">
      <!-- 0 -->
      <defs>
       <path d="M 31.78125 66.40625 
Q 24.171875 66.40625 20.328125 58.90625 
Q 16.5 51.421875 16.5 36.375 
Q 16.5 21.390625 20.328125 13.890625 
Q 24.171875 6.390625 31.78125 6.390625 
Q 39.453125 6.390625 43.28125 13.890625 
Q 47.125 21.390625 47.125 36.375 
Q 47.125 51.421875 43.28125 58.90625 
Q 39.453125 66.40625 31.78125 66.40625 
z
M 31.78125 74.21875 
Q 44.046875 74.21875 50.515625 64.515625 
Q 56.984375 54.828125 56.984375 36.375 
Q 56.984375 17.96875 50.515625 8.265625 
Q 44.046875 -1.421875 31.78125 -1.421875 
Q 19.53125 -1.421875 13.0625 8.265625 
Q 6.59375 17.96875 6.59375 36.375 
Q 6.59375 54.828125 13.0625 64.515625 
Q 19.53125 74.21875 31.78125 74.21875 
z
" id="DejaVuSans-30"/>
      </defs>
      <g transform="translate(53.3575 313.476875)scale(0.2 -0.2)">
       <use xlink:href="#DejaVuSans-30"/>
      </g>
     </g>
    </g>
    <g id="xtick_2">
     <g id="line2d_33">
      <path clip-path="url(#p43cc11fb26)" d="M 226.119004 291.28 
L 226.119004 6.845228 
" style="fill:none;stroke:#b0b0b0;stroke-linecap:square;stroke-width:0.8;"/>
     </g>
     <g id="line2d_34">
      <g>
       <use style="stroke:#000000;stroke-width:0.8;" x="226.119004" xlink:href="#mb2f717e76c" y="291.28"/>
      </g>
     </g>
     <g id="text_2">
      <!-- 2 -->
      <defs>
       <path d="M 19.1875 8.296875 
L 53.609375 8.296875 
L 53.609375 0 
L 7.328125 0 
L 7.328125 8.296875 
Q 12.9375 14.109375 22.625 23.890625 
Q 32.328125 33.6875 34.8125 36.53125 
Q 39.546875 41.84375 41.421875 45.53125 
Q 43.3125 49.21875 43.3125 52.78125 
Q 43.3125 58.59375 39.234375 62.25 
Q 35.15625 65.921875 28.609375 65.921875 
Q 23.96875 65.921875 18.8125 64.3125 
Q 13.671875 62.703125 7.8125 59.421875 
L 7.8125 69.390625 
Q 13.765625 71.78125 18.9375 73 
Q 24.125 74.21875 28.421875 74.21875 
Q 39.75 74.21875 46.484375 68.546875 
Q 53.21875 62.890625 53.21875 53.421875 
Q 53.21875 48.921875 51.53125 44.890625 
Q 49.859375 40.875 45.40625 35.40625 
Q 44.1875 33.984375 37.640625 27.21875 
Q 31.109375 20.453125 19.1875 8.296875 
z
" id="DejaVuSans-32"/>
      </defs>
      <g transform="translate(219.756504 313.476875)scale(0.2 -0.2)">
       <use xlink:href="#DejaVuSans-32"/>
      </g>
     </g>
    </g>
    <g id="xtick_3">
     <g id="line2d_35">
      <path clip-path="url(#p43cc11fb26)" d="M 392.518008 291.28 
L 392.518008 6.845228 
" style="fill:none;stroke:#b0b0b0;stroke-linecap:square;stroke-width:0.8;"/>
     </g>
     <g id="line2d_36">
      <g>
       <use style="stroke:#000000;stroke-width:0.8;" x="392.518008" xlink:href="#mb2f717e76c" y="291.28"/>
      </g>
     </g>
     <g id="text_3">
      <!-- 4 -->
      <defs>
       <path d="M 37.796875 64.3125 
L 12.890625 25.390625 
L 37.796875 25.390625 
z
M 35.203125 72.90625 
L 47.609375 72.90625 
L 47.609375 25.390625 
L 58.015625 25.390625 
L 58.015625 17.1875 
L 47.609375 17.1875 
L 47.609375 0 
L 37.796875 0 
L 37.796875 17.1875 
L 4.890625 17.1875 
L 4.890625 26.703125 
z
" id="DejaVuSans-34"/>
      </defs>
      <g transform="translate(386.155508 313.476875)scale(0.2 -0.2)">
       <use xlink:href="#DejaVuSans-34"/>
      </g>
     </g>
    </g>
    <g id="xtick_4">
     <g id="line2d_37">
      <defs>
       <path d="M 0 0 
L 0 2 
" id="m3da417cced" style="stroke:#000000;stroke-width:0.6;"/>
      </defs>
      <g>
       <use style="stroke:#000000;stroke-width:0.6;" x="84.765546" xlink:href="#m3da417cced" y="291.28"/>
      </g>
     </g>
    </g>
    <g id="xtick_5">
     <g id="line2d_38">
      <g>
       <use style="stroke:#000000;stroke-width:0.6;" x="99.416251" xlink:href="#m3da417cced" y="291.28"/>
      </g>
     </g>
    </g>
    <g id="xtick_6">
     <g id="line2d_39">
      <g>
       <use style="stroke:#000000;stroke-width:0.6;" x="109.811091" xlink:href="#m3da417cced" y="291.28"/>
      </g>
     </g>
    </g>
    <g id="xtick_7">
     <g id="line2d_40">
      <g>
       <use style="stroke:#000000;stroke-width:0.6;" x="117.873956" xlink:href="#m3da417cced" y="291.28"/>
      </g>
     </g>
    </g>
    <g id="xtick_8">
     <g id="line2d_41">
      <g>
       <use style="stroke:#000000;stroke-width:0.6;" x="124.461796" xlink:href="#m3da417cced" y="291.28"/>
      </g>
     </g>
    </g>
    <g id="xtick_9">
     <g id="line2d_42">
      <g>
       <use style="stroke:#000000;stroke-width:0.6;" x="130.031736" xlink:href="#m3da417cced" y="291.28"/>
      </g>
     </g>
    </g>
    <g id="xtick_10">
     <g id="line2d_43">
      <g>
       <use style="stroke:#000000;stroke-width:0.6;" x="134.856637" xlink:href="#m3da417cced" y="291.28"/>
      </g>
     </g>
    </g>
    <g id="xtick_11">
     <g id="line2d_44">
      <g>
       <use style="stroke:#000000;stroke-width:0.6;" x="139.112501" xlink:href="#m3da417cced" y="291.28"/>
      </g>
     </g>
    </g>
    <g id="xtick_12">
     <g id="line2d_45">
      <g>
       <use style="stroke:#000000;stroke-width:0.6;" x="167.965048" xlink:href="#m3da417cced" y="291.28"/>
      </g>
     </g>
    </g>
    <g id="xtick_13">
     <g id="line2d_46">
      <g>
       <use style="stroke:#000000;stroke-width:0.6;" x="182.615753" xlink:href="#m3da417cced" y="291.28"/>
      </g>
     </g>
    </g>
    <g id="xtick_14">
     <g id="line2d_47">
      <g>
       <use style="stroke:#000000;stroke-width:0.6;" x="193.010593" xlink:href="#m3da417cced" y="291.28"/>
      </g>
     </g>
    </g>
    <g id="xtick_15">
     <g id="line2d_48">
      <g>
       <use style="stroke:#000000;stroke-width:0.6;" x="201.073458" xlink:href="#m3da417cced" y="291.28"/>
      </g>
     </g>
    </g>
    <g id="xtick_16">
     <g id="line2d_49">
      <g>
       <use style="stroke:#000000;stroke-width:0.6;" x="207.661298" xlink:href="#m3da417cced" y="291.28"/>
      </g>
     </g>
    </g>
    <g id="xtick_17">
     <g id="line2d_50">
      <g>
       <use style="stroke:#000000;stroke-width:0.6;" x="213.231238" xlink:href="#m3da417cced" y="291.28"/>
      </g>
     </g>
    </g>
    <g id="xtick_18">
     <g id="line2d_51">
      <g>
       <use style="stroke:#000000;stroke-width:0.6;" x="218.056139" xlink:href="#m3da417cced" y="291.28"/>
      </g>
     </g>
    </g>
    <g id="xtick_19">
     <g id="line2d_52">
      <g>
       <use style="stroke:#000000;stroke-width:0.6;" x="222.312003" xlink:href="#m3da417cced" y="291.28"/>
      </g>
     </g>
    </g>
    <g id="xtick_20">
     <g id="line2d_53">
      <g>
       <use style="stroke:#000000;stroke-width:0.6;" x="251.16455" xlink:href="#m3da417cced" y="291.28"/>
      </g>
     </g>
    </g>
    <g id="xtick_21">
     <g id="line2d_54">
      <g>
       <use style="stroke:#000000;stroke-width:0.6;" x="265.815255" xlink:href="#m3da417cced" y="291.28"/>
      </g>
     </g>
    </g>
    <g id="xtick_22">
     <g id="line2d_55">
      <g>
       <use style="stroke:#000000;stroke-width:0.6;" x="276.210095" xlink:href="#m3da417cced" y="291.28"/>
      </g>
     </g>
    </g>
    <g id="xtick_23">
     <g id="line2d_56">
      <g>
       <use style="stroke:#000000;stroke-width:0.6;" x="284.27296" xlink:href="#m3da417cced" y="291.28"/>
      </g>
     </g>
    </g>
    <g id="xtick_24">
     <g id="line2d_57">
      <g>
       <use style="stroke:#000000;stroke-width:0.6;" x="290.8608" xlink:href="#m3da417cced" y="291.28"/>
      </g>
     </g>
    </g>
    <g id="xtick_25">
     <g id="line2d_58">
      <g>
       <use style="stroke:#000000;stroke-width:0.6;" x="296.43074" xlink:href="#m3da417cced" y="291.28"/>
      </g>
     </g>
    </g>
    <g id="xtick_26">
     <g id="line2d_59">
      <g>
       <use style="stroke:#000000;stroke-width:0.6;" x="301.255641" xlink:href="#m3da417cced" y="291.28"/>
      </g>
     </g>
    </g>
    <g id="xtick_27">
     <g id="line2d_60">
      <g>
       <use style="stroke:#000000;stroke-width:0.6;" x="305.511505" xlink:href="#m3da417cced" y="291.28"/>
      </g>
     </g>
    </g>
    <g id="xtick_28">
     <g id="line2d_61">
      <g>
       <use style="stroke:#000000;stroke-width:0.6;" x="334.364051" xlink:href="#m3da417cced" y="291.28"/>
      </g>
     </g>
    </g>
    <g id="xtick_29">
     <g id="line2d_62">
      <g>
       <use style="stroke:#000000;stroke-width:0.6;" x="349.014756" xlink:href="#m3da417cced" y="291.28"/>
      </g>
     </g>
    </g>
    <g id="xtick_30">
     <g id="line2d_63">
      <g>
       <use style="stroke:#000000;stroke-width:0.6;" x="359.409597" xlink:href="#m3da417cced" y="291.28"/>
      </g>
     </g>
    </g>
    <g id="xtick_31">
     <g id="line2d_64">
      <g>
       <use style="stroke:#000000;stroke-width:0.6;" x="367.472462" xlink:href="#m3da417cced" y="291.28"/>
      </g>
     </g>
    </g>
    <g id="xtick_32">
     <g id="line2d_65">
      <g>
       <use style="stroke:#000000;stroke-width:0.6;" x="374.060302" xlink:href="#m3da417cced" y="291.28"/>
      </g>
     </g>
    </g>
    <g id="xtick_33">
     <g id="line2d_66">
      <g>
       <use style="stroke:#000000;stroke-width:0.6;" x="379.630242" xlink:href="#m3da417cced" y="291.28"/>
      </g>
     </g>
    </g>
    <g id="xtick_34">
     <g id="line2d_67">
      <g>
       <use style="stroke:#000000;stroke-width:0.6;" x="384.455143" xlink:href="#m3da417cced" y="291.28"/>
      </g>
     </g>
    </g>
    <g id="xtick_35">
     <g id="line2d_68">
      <g>
       <use style="stroke:#000000;stroke-width:0.6;" x="388.711007" xlink:href="#m3da417cced" y="291.28"/>
      </g>
     </g>
    </g>
    <g id="xtick_36">
     <g id="line2d_69">
      <g>
       <use style="stroke:#000000;stroke-width:0.6;" x="417.563553" xlink:href="#m3da417cced" y="291.28"/>
      </g>
     </g>
    </g>
    <g id="xtick_37">
     <g id="line2d_70">
      <g>
       <use style="stroke:#000000;stroke-width:0.6;" x="432.214258" xlink:href="#m3da417cced" y="291.28"/>
      </g>
     </g>
    </g>
    <g id="xtick_38">
     <g id="line2d_71">
      <g>
       <use style="stroke:#000000;stroke-width:0.6;" x="442.609099" xlink:href="#m3da417cced" y="291.28"/>
      </g>
     </g>
    </g>
    <g id="xtick_39">
     <g id="line2d_72">
      <g>
       <use style="stroke:#000000;stroke-width:0.6;" x="450.671964" xlink:href="#m3da417cced" y="291.28"/>
      </g>
     </g>
    </g>
    <g id="text_4">
     <!-- log10 of FEvals / DIM -->
     <defs>
      <path d="M 9.421875 75.984375 
L 18.40625 75.984375 
L 18.40625 0 
L 9.421875 0 
z
" id="DejaVuSans-6c"/>
      <path d="M 30.609375 48.390625 
Q 23.390625 48.390625 19.1875 42.75 
Q 14.984375 37.109375 14.984375 27.296875 
Q 14.984375 17.484375 19.15625 11.84375 
Q 23.34375 6.203125 30.609375 6.203125 
Q 37.796875 6.203125 41.984375 11.859375 
Q 46.1875 17.53125 46.1875 27.296875 
Q 46.1875 37.015625 41.984375 42.703125 
Q 37.796875 48.390625 30.609375 48.390625 
z
M 30.609375 56 
Q 42.328125 56 49.015625 48.375 
Q 55.71875 40.765625 55.71875 27.296875 
Q 55.71875 13.875 49.015625 6.21875 
Q 42.328125 -1.421875 30.609375 -1.421875 
Q 18.84375 -1.421875 12.171875 6.21875 
Q 5.515625 13.875 5.515625 27.296875 
Q 5.515625 40.765625 12.171875 48.375 
Q 18.84375 56 30.609375 56 
z
" id="DejaVuSans-6f"/>
      <path d="M 45.40625 27.984375 
Q 45.40625 37.75 41.375 43.109375 
Q 37.359375 48.484375 30.078125 48.484375 
Q 22.859375 48.484375 18.828125 43.109375 
Q 14.796875 37.75 14.796875 27.984375 
Q 14.796875 18.265625 18.828125 12.890625 
Q 22.859375 7.515625 30.078125 7.515625 
Q 37.359375 7.515625 41.375 12.890625 
Q 45.40625 18.265625 45.40625 27.984375 
z
M 54.390625 6.78125 
Q 54.390625 -7.171875 48.1875 -13.984375 
Q 42 -20.796875 29.203125 -20.796875 
Q 24.46875 -20.796875 20.265625 -20.09375 
Q 16.0625 -19.390625 12.109375 -17.921875 
L 12.109375 -9.1875 
Q 16.0625 -11.328125 19.921875 -12.34375 
Q 23.78125 -13.375 27.78125 -13.375 
Q 36.625 -13.375 41.015625 -8.765625 
Q 45.40625 -4.15625 45.40625 5.171875 
L 45.40625 9.625 
Q 42.625 4.78125 38.28125 2.390625 
Q 33.9375 0 27.875 0 
Q 17.828125 0 11.671875 7.65625 
Q 5.515625 15.328125 5.515625 27.984375 
Q 5.515625 40.671875 11.671875 48.328125 
Q 17.828125 56 27.875 56 
Q 33.9375 56 38.28125 53.609375 
Q 42.625 51.21875 45.40625 46.390625 
L 45.40625 54.6875 
L 54.390625 54.6875 
z
" id="DejaVuSans-67"/>
      <path d="M 12.40625 8.296875 
L 28.515625 8.296875 
L 28.515625 63.921875 
L 10.984375 60.40625 
L 10.984375 69.390625 
L 28.421875 72.90625 
L 38.28125 72.90625 
L 38.28125 8.296875 
L 54.390625 8.296875 
L 54.390625 0 
L 12.40625 0 
z
" id="DejaVuSans-31"/>
      <path id="DejaVuSans-20"/>
      <path d="M 37.109375 75.984375 
L 37.109375 68.5 
L 28.515625 68.5 
Q 23.6875 68.5 21.796875 66.546875 
Q 19.921875 64.59375 19.921875 59.515625 
L 19.921875 54.6875 
L 34.71875 54.6875 
L 34.71875 47.703125 
L 19.921875 47.703125 
L 19.921875 0 
L 10.890625 0 
L 10.890625 47.703125 
L 2.296875 47.703125 
L 2.296875 54.6875 
L 10.890625 54.6875 
L 10.890625 58.5 
Q 10.890625 67.625 15.140625 71.796875 
Q 19.390625 75.984375 28.609375 75.984375 
z
" id="DejaVuSans-66"/>
      <path d="M 9.8125 72.90625 
L 51.703125 72.90625 
L 51.703125 64.59375 
L 19.671875 64.59375 
L 19.671875 43.109375 
L 48.578125 43.109375 
L 48.578125 34.8125 
L 19.671875 34.8125 
L 19.671875 0 
L 9.8125 0 
z
" id="DejaVuSans-46"/>
      <path d="M 9.8125 72.90625 
L 55.90625 72.90625 
L 55.90625 64.59375 
L 19.671875 64.59375 
L 19.671875 43.015625 
L 54.390625 43.015625 
L 54.390625 34.71875 
L 19.671875 34.71875 
L 19.671875 8.296875 
L 56.78125 8.296875 
L 56.78125 0 
L 9.8125 0 
z
" id="DejaVuSans-45"/>
      <path d="M 2.984375 54.6875 
L 12.5 54.6875 
L 29.59375 8.796875 
L 46.6875 54.6875 
L 56.203125 54.6875 
L 35.6875 0 
L 23.484375 0 
z
" id="DejaVuSans-76"/>
      <path d="M 34.28125 27.484375 
Q 23.390625 27.484375 19.1875 25 
Q 14.984375 22.515625 14.984375 16.5 
Q 14.984375 11.71875 18.140625 8.90625 
Q 21.296875 6.109375 26.703125 6.109375 
Q 34.1875 6.109375 38.703125 11.40625 
Q 43.21875 16.703125 43.21875 25.484375 
L 43.21875 27.484375 
z
M 52.203125 31.203125 
L 52.203125 0 
L 43.21875 0 
L 43.21875 8.296875 
Q 40.140625 3.328125 35.546875 0.953125 
Q 30.953125 -1.421875 24.3125 -1.421875 
Q 15.921875 -1.421875 10.953125 3.296875 
Q 6 8.015625 6 15.921875 
Q 6 25.140625 12.171875 29.828125 
Q 18.359375 34.515625 30.609375 34.515625 
L 43.21875 34.515625 
L 43.21875 35.40625 
Q 43.21875 41.609375 39.140625 45 
Q 35.0625 48.390625 27.6875 48.390625 
Q 23 48.390625 18.546875 47.265625 
Q 14.109375 46.140625 10.015625 43.890625 
L 10.015625 52.203125 
Q 14.9375 54.109375 19.578125 55.046875 
Q 24.21875 56 28.609375 56 
Q 40.484375 56 46.34375 49.84375 
Q 52.203125 43.703125 52.203125 31.203125 
z
" id="DejaVuSans-61"/>
      <path d="M 44.28125 53.078125 
L 44.28125 44.578125 
Q 40.484375 46.53125 36.375 47.5 
Q 32.28125 48.484375 27.875 48.484375 
Q 21.1875 48.484375 17.84375 46.4375 
Q 14.5 44.390625 14.5 40.28125 
Q 14.5 37.15625 16.890625 35.375 
Q 19.28125 33.59375 26.515625 31.984375 
L 29.59375 31.296875 
Q 39.15625 29.25 43.1875 25.515625 
Q 47.21875 21.78125 47.21875 15.09375 
Q 47.21875 7.46875 41.1875 3.015625 
Q 35.15625 -1.421875 24.609375 -1.421875 
Q 20.21875 -1.421875 15.453125 -0.5625 
Q 10.6875 0.296875 5.421875 2 
L 5.421875 11.28125 
Q 10.40625 8.6875 15.234375 7.390625 
Q 20.0625 6.109375 24.8125 6.109375 
Q 31.15625 6.109375 34.5625 8.28125 
Q 37.984375 10.453125 37.984375 14.40625 
Q 37.984375 18.0625 35.515625 20.015625 
Q 33.0625 21.96875 24.703125 23.78125 
L 21.578125 24.515625 
Q 13.234375 26.265625 9.515625 29.90625 
Q 5.8125 33.546875 5.8125 39.890625 
Q 5.8125 47.609375 11.28125 51.796875 
Q 16.75 56 26.8125 56 
Q 31.78125 56 36.171875 55.265625 
Q 40.578125 54.546875 44.28125 53.078125 
z
" id="DejaVuSans-73"/>
      <path d="M 25.390625 72.90625 
L 33.6875 72.90625 
L 8.296875 -9.28125 
L 0 -9.28125 
z
" id="DejaVuSans-2f"/>
      <path d="M 19.671875 64.796875 
L 19.671875 8.109375 
L 31.59375 8.109375 
Q 46.6875 8.109375 53.6875 14.9375 
Q 60.6875 21.78125 60.6875 36.53125 
Q 60.6875 51.171875 53.6875 57.984375 
Q 46.6875 64.796875 31.59375 64.796875 
z
M 9.8125 72.90625 
L 30.078125 72.90625 
Q 51.265625 72.90625 61.171875 64.09375 
Q 71.09375 55.28125 71.09375 36.53125 
Q 71.09375 17.671875 61.125 8.828125 
Q 51.171875 0 30.078125 0 
L 9.8125 0 
z
" id="DejaVuSans-44"/>
      <path d="M 9.8125 72.90625 
L 19.671875 72.90625 
L 19.671875 0 
L 9.8125 0 
z
" id="DejaVuSans-49"/>
      <path d="M 9.8125 72.90625 
L 24.515625 72.90625 
L 43.109375 23.296875 
L 61.8125 72.90625 
L 76.515625 72.90625 
L 76.515625 0 
L 66.890625 0 
L 66.890625 64.015625 
L 48.09375 14.015625 
L 38.1875 14.015625 
L 19.390625 64.015625 
L 19.390625 0 
L 9.8125 0 
z
" id="DejaVuSans-4d"/>
     </defs>
     <g transform="translate(150.122563 336.833125)scale(0.2 -0.2)">
      <use xlink:href="#DejaVuSans-6c"/>
      <use x="27.783203" xlink:href="#DejaVuSans-6f"/>
      <use x="88.964844" xlink:href="#DejaVuSans-67"/>
      <use x="152.441406" xlink:href="#DejaVuSans-31"/>
      <use x="216.064453" xlink:href="#DejaVuSans-30"/>
      <use x="279.6875" xlink:href="#DejaVuSans-20"/>
      <use x="311.474609" xlink:href="#DejaVuSans-6f"/>
      <use x="372.65625" xlink:href="#DejaVuSans-66"/>
      <use x="407.861328" xlink:href="#DejaVuSans-20"/>
      <use x="439.648438" xlink:href="#DejaVuSans-46"/>
      <use x="497.167969" xlink:href="#DejaVuSans-45"/>
      <use x="560.351562" xlink:href="#DejaVuSans-76"/>
      <use x="619.53125" xlink:href="#DejaVuSans-61"/>
      <use x="680.810547" xlink:href="#DejaVuSans-6c"/>
      <use x="708.59375" xlink:href="#DejaVuSans-73"/>
      <use x="760.693359" xlink:href="#DejaVuSans-20"/>
      <use x="792.480469" xlink:href="#DejaVuSans-2f"/>
      <use x="826.171875" xlink:href="#DejaVuSans-20"/>
      <use x="857.958984" xlink:href="#DejaVuSans-44"/>
      <use x="934.960938" xlink:href="#DejaVuSans-49"/>
      <use x="964.453125" xlink:href="#DejaVuSans-4d"/>
     </g>
    </g>
   </g>
   <g id="matplotlib.axis_2">
    <g id="ytick_1">
     <g id="line2d_73">
      <path clip-path="url(#p43cc11fb26)" d="M 59.72 291.28 
L 450.672 291.28 
" style="fill:none;stroke:#b0b0b0;stroke-linecap:square;stroke-width:0.8;"/>
     </g>
     <g id="line2d_74">
      <defs>
       <path d="M 0 0 
L -3.5 0 
" id="maadaf9a0b8" style="stroke:#000000;stroke-width:0.8;"/>
      </defs>
      <g>
       <use style="stroke:#000000;stroke-width:0.8;" x="59.72" xlink:href="#maadaf9a0b8" y="291.28"/>
      </g>
     </g>
     <g id="text_5">
      <!-- 0.0 -->
      <defs>
       <path d="M 10.6875 12.40625 
L 21 12.40625 
L 21 0 
L 10.6875 0 
z
" id="DejaVuSans-2e"/>
      </defs>
      <g transform="translate(27.275 297.35875)scale(0.16 -0.16)">
       <use xlink:href="#DejaVuSans-30"/>
       <use x="63.623047" xlink:href="#DejaVuSans-2e"/>
       <use x="95.410156" xlink:href="#DejaVuSans-30"/>
      </g>
     </g>
    </g>
    <g id="ytick_2">
     <g id="line2d_75">
      <path clip-path="url(#p43cc11fb26)" d="M 59.72 234.956283 
L 450.672 234.956283 
" style="fill:none;stroke:#b0b0b0;stroke-linecap:square;stroke-width:0.8;"/>
     </g>
     <g id="line2d_76">
      <g>
       <use style="stroke:#000000;stroke-width:0.8;" x="59.72" xlink:href="#maadaf9a0b8" y="234.956283"/>
      </g>
     </g>
     <g id="text_6">
      <!-- 0.2 -->
      <g transform="translate(27.275 241.035033)scale(0.16 -0.16)">
       <use xlink:href="#DejaVuSans-30"/>
       <use x="63.623047" xlink:href="#DejaVuSans-2e"/>
       <use x="95.410156" xlink:href="#DejaVuSans-32"/>
      </g>
     </g>
    </g>
    <g id="ytick_3">
     <g id="line2d_77">
      <path clip-path="url(#p43cc11fb26)" d="M 59.72 178.632565 
L 450.672 178.632565 
" style="fill:none;stroke:#b0b0b0;stroke-linecap:square;stroke-width:0.8;"/>
     </g>
     <g id="line2d_78">
      <g>
       <use style="stroke:#000000;stroke-width:0.8;" x="59.72" xlink:href="#maadaf9a0b8" y="178.632565"/>
      </g>
     </g>
     <g id="text_7">
      <!-- 0.4 -->
      <g transform="translate(27.275 184.711315)scale(0.16 -0.16)">
       <use xlink:href="#DejaVuSans-30"/>
       <use x="63.623047" xlink:href="#DejaVuSans-2e"/>
       <use x="95.410156" xlink:href="#DejaVuSans-34"/>
      </g>
     </g>
    </g>
    <g id="ytick_4">
     <g id="line2d_79">
      <path clip-path="url(#p43cc11fb26)" d="M 59.72 122.308848 
L 450.672 122.308848 
" style="fill:none;stroke:#b0b0b0;stroke-linecap:square;stroke-width:0.8;"/>
     </g>
     <g id="line2d_80">
      <g>
       <use style="stroke:#000000;stroke-width:0.8;" x="59.72" xlink:href="#maadaf9a0b8" y="122.308848"/>
      </g>
     </g>
     <g id="text_8">
      <!-- 0.6 -->
      <defs>
       <path d="M 33.015625 40.375 
Q 26.375 40.375 22.484375 35.828125 
Q 18.609375 31.296875 18.609375 23.390625 
Q 18.609375 15.53125 22.484375 10.953125 
Q 26.375 6.390625 33.015625 6.390625 
Q 39.65625 6.390625 43.53125 10.953125 
Q 47.40625 15.53125 47.40625 23.390625 
Q 47.40625 31.296875 43.53125 35.828125 
Q 39.65625 40.375 33.015625 40.375 
z
M 52.59375 71.296875 
L 52.59375 62.3125 
Q 48.875 64.0625 45.09375 64.984375 
Q 41.3125 65.921875 37.59375 65.921875 
Q 27.828125 65.921875 22.671875 59.328125 
Q 17.53125 52.734375 16.796875 39.40625 
Q 19.671875 43.65625 24.015625 45.921875 
Q 28.375 48.1875 33.59375 48.1875 
Q 44.578125 48.1875 50.953125 41.515625 
Q 57.328125 34.859375 57.328125 23.390625 
Q 57.328125 12.15625 50.6875 5.359375 
Q 44.046875 -1.421875 33.015625 -1.421875 
Q 20.359375 -1.421875 13.671875 8.265625 
Q 6.984375 17.96875 6.984375 36.375 
Q 6.984375 53.65625 15.1875 63.9375 
Q 23.390625 74.21875 37.203125 74.21875 
Q 40.921875 74.21875 44.703125 73.484375 
Q 48.484375 72.75 52.59375 71.296875 
z
" id="DejaVuSans-36"/>
      </defs>
      <g transform="translate(27.275 128.387598)scale(0.16 -0.16)">
       <use xlink:href="#DejaVuSans-30"/>
       <use x="63.623047" xlink:href="#DejaVuSans-2e"/>
       <use x="95.410156" xlink:href="#DejaVuSans-36"/>
      </g>
     </g>
    </g>
    <g id="ytick_5">
     <g id="line2d_81">
      <path clip-path="url(#p43cc11fb26)" d="M 59.72 65.985131 
L 450.672 65.985131 
" style="fill:none;stroke:#b0b0b0;stroke-linecap:square;stroke-width:0.8;"/>
     </g>
     <g id="line2d_82">
      <g>
       <use style="stroke:#000000;stroke-width:0.8;" x="59.72" xlink:href="#maadaf9a0b8" y="65.985131"/>
      </g>
     </g>
     <g id="text_9">
      <!-- 0.8 -->
      <defs>
       <path d="M 31.78125 34.625 
Q 24.75 34.625 20.71875 30.859375 
Q 16.703125 27.09375 16.703125 20.515625 
Q 16.703125 13.921875 20.71875 10.15625 
Q 24.75 6.390625 31.78125 6.390625 
Q 38.8125 6.390625 42.859375 10.171875 
Q 46.921875 13.96875 46.921875 20.515625 
Q 46.921875 27.09375 42.890625 30.859375 
Q 38.875 34.625 31.78125 34.625 
z
M 21.921875 38.8125 
Q 15.578125 40.375 12.03125 44.71875 
Q 8.5 49.078125 8.5 55.328125 
Q 8.5 64.0625 14.71875 69.140625 
Q 20.953125 74.21875 31.78125 74.21875 
Q 42.671875 74.21875 48.875 69.140625 
Q 55.078125 64.0625 55.078125 55.328125 
Q 55.078125 49.078125 51.53125 44.71875 
Q 48 40.375 41.703125 38.8125 
Q 48.828125 37.15625 52.796875 32.3125 
Q 56.78125 27.484375 56.78125 20.515625 
Q 56.78125 9.90625 50.3125 4.234375 
Q 43.84375 -1.421875 31.78125 -1.421875 
Q 19.734375 -1.421875 13.25 4.234375 
Q 6.78125 9.90625 6.78125 20.515625 
Q 6.78125 27.484375 10.78125 32.3125 
Q 14.796875 37.15625 21.921875 38.8125 
z
M 18.3125 54.390625 
Q 18.3125 48.734375 21.84375 45.5625 
Q 25.390625 42.390625 31.78125 42.390625 
Q 38.140625 42.390625 41.71875 45.5625 
Q 45.3125 48.734375 45.3125 54.390625 
Q 45.3125 60.0625 41.71875 63.234375 
Q 38.140625 66.40625 31.78125 66.40625 
Q 25.390625 66.40625 21.84375 63.234375 
Q 18.3125 60.0625 18.3125 54.390625 
z
" id="DejaVuSans-38"/>
      </defs>
      <g transform="translate(27.275 72.063881)scale(0.16 -0.16)">
       <use xlink:href="#DejaVuSans-30"/>
       <use x="63.623047" xlink:href="#DejaVuSans-2e"/>
       <use x="95.410156" xlink:href="#DejaVuSans-38"/>
      </g>
     </g>
    </g>
    <g id="ytick_6">
     <g id="line2d_83">
      <path clip-path="url(#p43cc11fb26)" d="M 59.72 9.661414 
L 450.672 9.661414 
" style="fill:none;stroke:#b0b0b0;stroke-linecap:square;stroke-width:0.8;"/>
     </g>
     <g id="line2d_84">
      <g>
       <use style="stroke:#000000;stroke-width:0.8;" x="59.72" xlink:href="#maadaf9a0b8" y="9.661414"/>
      </g>
     </g>
     <g id="text_10">
      <!-- 1.0 -->
      <g transform="translate(27.275 15.740164)scale(0.16 -0.16)">
       <use xlink:href="#DejaVuSans-31"/>
       <use x="63.623047" xlink:href="#DejaVuSans-2e"/>
       <use x="95.410156" xlink:href="#DejaVuSans-30"/>
      </g>
     </g>
    </g>
    <g id="text_11">
     <!-- proportion of trials -->
     <defs>
      <path d="M 18.109375 8.203125 
L 18.109375 -20.796875 
L 9.078125 -20.796875 
L 9.078125 54.6875 
L 18.109375 54.6875 
L 18.109375 46.390625 
Q 20.953125 51.265625 25.265625 53.625 
Q 29.59375 56 35.59375 56 
Q 45.5625 56 51.78125 48.09375 
Q 58.015625 40.1875 58.015625 27.296875 
Q 58.015625 14.40625 51.78125 6.484375 
Q 45.5625 -1.421875 35.59375 -1.421875 
Q 29.59375 -1.421875 25.265625 0.953125 
Q 20.953125 3.328125 18.109375 8.203125 
z
M 48.6875 27.296875 
Q 48.6875 37.203125 44.609375 42.84375 
Q 40.53125 48.484375 33.40625 48.484375 
Q 26.265625 48.484375 22.1875 42.84375 
Q 18.109375 37.203125 18.109375 27.296875 
Q 18.109375 17.390625 22.1875 11.75 
Q 26.265625 6.109375 33.40625 6.109375 
Q 40.53125 6.109375 44.609375 11.75 
Q 48.6875 17.390625 48.6875 27.296875 
z
" id="DejaVuSans-70"/>
      <path d="M 41.109375 46.296875 
Q 39.59375 47.171875 37.8125 47.578125 
Q 36.03125 48 33.890625 48 
Q 26.265625 48 22.1875 43.046875 
Q 18.109375 38.09375 18.109375 28.8125 
L 18.109375 0 
L 9.078125 0 
L 9.078125 54.6875 
L 18.109375 54.6875 
L 18.109375 46.1875 
Q 20.953125 51.171875 25.484375 53.578125 
Q 30.03125 56 36.53125 56 
Q 37.453125 56 38.578125 55.875 
Q 39.703125 55.765625 41.0625 55.515625 
z
" id="DejaVuSans-72"/>
      <path d="M 18.3125 70.21875 
L 18.3125 54.6875 
L 36.8125 54.6875 
L 36.8125 47.703125 
L 18.3125 47.703125 
L 18.3125 18.015625 
Q 18.3125 11.328125 20.140625 9.421875 
Q 21.96875 7.515625 27.59375 7.515625 
L 36.8125 7.515625 
L 36.8125 0 
L 27.59375 0 
Q 17.1875 0 13.234375 3.875 
Q 9.28125 7.765625 9.28125 18.015625 
L 9.28125 47.703125 
L 2.6875 47.703125 
L 2.6875 54.6875 
L 9.28125 54.6875 
L 9.28125 70.21875 
z
" id="DejaVuSans-74"/>
      <path d="M 9.421875 54.6875 
L 18.40625 54.6875 
L 18.40625 0 
L 9.421875 0 
z
M 9.421875 75.984375 
L 18.40625 75.984375 
L 18.40625 64.59375 
L 9.421875 64.59375 
z
" id="DejaVuSans-69"/>
      <path d="M 54.890625 33.015625 
L 54.890625 0 
L 45.90625 0 
L 45.90625 32.71875 
Q 45.90625 40.484375 42.875 44.328125 
Q 39.84375 48.1875 33.796875 48.1875 
Q 26.515625 48.1875 22.3125 43.546875 
Q 18.109375 38.921875 18.109375 30.90625 
L 18.109375 0 
L 9.078125 0 
L 9.078125 54.6875 
L 18.109375 54.6875 
L 18.109375 46.1875 
Q 21.34375 51.125 25.703125 53.5625 
Q 30.078125 56 35.796875 56 
Q 45.21875 56 50.046875 50.171875 
Q 54.890625 44.34375 54.890625 33.015625 
z
" id="DejaVuSans-6e"/>
     </defs>
     <g transform="translate(19.115625 242.290739)rotate(-90)scale(0.2 -0.2)">
      <use xlink:href="#DejaVuSans-70"/>
      <use x="63.476562" xlink:href="#DejaVuSans-72"/>
      <use x="104.558594" xlink:href="#DejaVuSans-6f"/>
      <use x="165.740234" xlink:href="#DejaVuSans-70"/>
      <use x="229.216797" xlink:href="#DejaVuSans-6f"/>
      <use x="290.398438" xlink:href="#DejaVuSans-72"/>
      <use x="331.511719" xlink:href="#DejaVuSans-74"/>
      <use x="370.720703" xlink:href="#DejaVuSans-69"/>
      <use x="398.503906" xlink:href="#DejaVuSans-6f"/>
      <use x="459.685547" xlink:href="#DejaVuSans-6e"/>
      <use x="523.064453" xlink:href="#DejaVuSans-20"/>
      <use x="554.851562" xlink:href="#DejaVuSans-6f"/>
      <use x="616.033203" xlink:href="#DejaVuSans-66"/>
      <use x="651.238281" xlink:href="#DejaVuSans-20"/>
      <use x="683.025391" xlink:href="#DejaVuSans-74"/>
      <use x="722.234375" xlink:href="#DejaVuSans-72"/>
      <use x="763.347656" xlink:href="#DejaVuSans-69"/>
      <use x="791.130859" xlink:href="#DejaVuSans-61"/>
      <use x="852.410156" xlink:href="#DejaVuSans-6c"/>
      <use x="880.193359" xlink:href="#DejaVuSans-73"/>
     </g>
    </g>
   </g>
   <g id="line2d_85">
    <path clip-path="url(#p43cc11fb26)" d="M -1 283.770171 
L 1.566044 283.770171 
L 1.566044 280.015257 
L 1.566044 280.015257 
L 1.566044 276.260342 
L 1.566044 276.260342 
L 1.566044 272.505428 
L 16.216749 272.505428 
L 16.216749 268.750513 
L 16.216749 268.750513 
L 16.216749 264.995599 
L 16.216749 264.995599 
L 16.216749 261.240684 
L 55.913 261.240684 
L 55.913 257.48577 
L 63.163851 257.48577 
L 63.163851 253.730855 
L 63.163851 253.730855 
L 63.163851 249.975941 
L 66.30784 249.975941 
L 66.30784 246.221026 
L 69.20003 246.221026 
L 69.20003 242.466112 
L 78.893235 242.466112 
L 78.893235 238.711197 
L 86.528485 238.711197 
L 86.528485 234.956283 
L 236.095906 234.956283 
L 236.095906 231.201368 
L 236.287304 231.201368 
L 236.287304 227.446454 
L 237.835339 227.446454 
L 237.835339 223.691539 
L 238.379874 223.691539 
L 238.379874 219.936625 
L 238.941672 219.936625 
L 238.941672 216.18171 
L 238.967001 216.18171 
L 238.967001 212.426796 
L 239.017608 212.426796 
L 239.017608 208.671881 
L 239.544741 208.671881 
L 239.544741 204.916967 
L 241.129245 204.916967 
L 241.129245 201.162052 
L 244.583935 201.162052 
L 244.583935 197.407138 
L 245.270978 197.407138 
L 245.270978 193.652223 
L 245.398357 193.652223 
L 245.398357 189.897309 
L 248.171347 189.897309 
L 248.171347 186.142394 
L 248.367085 186.142394 
L 248.367085 182.38748 
L 248.503473 182.38748 
L 248.503473 178.632565 
L 250.026695 178.632565 
L 250.026695 174.877651 
L 251.950859 174.877651 
L 251.950859 171.122736 
L 254.772269 171.122736 
L 254.772269 167.367822 
L 255.000445 167.367822 
L 255.000445 163.612907 
L 255.17872 163.612907 
L 255.17872 159.857993 
L 256.449465 159.857993 
L 256.449465 156.103079 
L 256.760289 156.103079 
L 256.760289 152.348164 
L 256.991665 152.348164 
L 256.991665 148.59325 
L 258.556373 148.59325 
L 258.556373 144.838335 
L 259.515329 144.838335 
L 259.515329 141.083421 
L 260.783287 141.083421 
L 260.783287 137.328506 
L 261.155157 137.328506 
L 261.155157 133.573592 
L 261.196241 133.573592 
L 261.196241 129.818677 
L 261.42817 129.818677 
L 261.42817 126.063763 
L 262.658123 126.063763 
L 262.658123 122.308848 
L 263.515383 122.308848 
L 263.515383 118.553934 
L 265.573561 118.553934 
L 265.573561 114.799019 
L 269.813255 114.799019 
L 269.813255 111.044105 
L 270.4121 111.044105 
L 270.4121 107.28919 
L 281.487206 107.28919 
L 281.487206 103.534276 
L 281.813571 103.534276 
L 281.813571 99.779361 
L 286.89285 99.779361 
L 286.89285 96.024447 
L 293.490771 96.024447 
L 293.490771 92.269532 
L 358.500345 92.269532 
L 358.500345 88.514618 
L 362.457103 88.514618 
L 362.457103 84.759703 
L 364.596047 84.759703 
L 364.596047 81.004789 
L 364.797381 81.004789 
L 364.797381 77.249874 
L 366.376347 77.249874 
L 366.376347 73.49496 
L 366.376347 73.49496 
L 366.376347 73.49496 
L 450.672 73.49496 
" style="fill:none;stroke:#000000;stroke-linecap:square;stroke-width:1.5;"/>
   </g>
   <g id="line2d_86">
    <path clip-path="url(#p43cc11fb26)" style="fill:none;stroke:#000000;stroke-linecap:square;stroke-width:1.5;"/>
   </g>
   <g id="line2d_87">
    <path clip-path="url(#p43cc11fb26)" d="M 272.372971 291.28 
L 272.372971 287.525086 
L 283.660767 287.525086 
L 283.660767 283.770171 
L 368.9944 283.770171 
L 368.9944 280.015257 
L 369.491894 280.015257 
L 369.491894 276.260342 
L 369.616056 276.260342 
L 369.616056 272.505428 
L 374.582251 272.505428 
L 374.582251 268.750513 
L 376.293341 268.750513 
L 376.293341 264.995599 
L 377.733906 264.995599 
L 377.733906 261.240684 
L 377.918936 261.240684 
L 377.918936 257.48577 
L 380.401396 257.48577 
L 380.401396 253.730855 
L 381.156931 253.730855 
L 381.156931 249.975941 
L 381.824197 249.975941 
L 381.824197 246.221026 
L 387.271931 246.221026 
L 387.271931 242.466112 
L 390.025728 242.466112 
L 390.025728 238.711197 
L 397.744188 238.711197 
L 397.744188 234.956283 
L 415.859337 234.956283 
L 415.859337 231.201368 
L 415.859337 231.201368 
L 415.859337 231.201368 
L 450.672 231.201368 
" style="fill:none;stroke:#00bfbf;stroke-linecap:square;stroke-width:1.5;"/>
   </g>
   <g id="line2d_88">
    <path clip-path="url(#p43cc11fb26)" style="fill:none;stroke:#00bfbf;stroke-linecap:square;stroke-width:1.5;"/>
   </g>
   <g id="line2d_89">
    <path clip-path="url(#p43cc11fb26)" d="M 302.446266 291.28 
L 302.446266 287.525086 
L 308.838373 287.525086 
L 308.838373 283.770171 
L 308.838373 283.770171 
L 308.838373 283.770171 
L 450.672 283.770171 
" style="fill:none;stroke:#bf00bf;stroke-linecap:square;stroke-width:1.5;"/>
   </g>
   <g id="line2d_90">
    <path clip-path="url(#p43cc11fb26)" style="fill:none;stroke:#bf00bf;stroke-linecap:square;stroke-width:1.5;"/>
   </g>
   <g id="line2d_91">
    <path clip-path="url(#p43cc11fb26)" d="M 321.334055 291.28 
L 321.334055 287.525086 
L 325.677048 287.525086 
L 325.677048 283.770171 
L 325.677048 283.770171 
L 325.677048 283.770171 
L 450.672 283.770171 
" style="fill:none;stroke:#ff0000;stroke-linecap:square;stroke-width:3;"/>
   </g>
   <g id="line2d_92">
    <path clip-path="url(#p43cc11fb26)" style="fill:none;stroke:#ff0000;stroke-linecap:square;stroke-width:3;"/>
   </g>
   <g id="line2d_93">
    <path clip-path="url(#p43cc11fb26)" d="M 450.672 291.28 
L 450.672 6.845228 
" style="fill:none;stroke:#000000;stroke-linecap:square;stroke-width:1.5;"/>
   </g>
   <g id="patch_3">
    <path d="M 59.72 291.28 
L 59.72 6.845228 
" style="fill:none;stroke:#000000;stroke-linecap:square;stroke-linejoin:miter;stroke-width:0.8;"/>
   </g>
   <g id="patch_4">
    <path d="M 450.672 291.28 
L 450.672 6.845228 
" style="fill:none;stroke:#000000;stroke-linecap:square;stroke-linejoin:miter;stroke-width:0.8;"/>
   </g>
   <g id="patch_5">
    <path d="M 59.72 291.28 
L 450.672 291.28 
" style="fill:none;stroke:#000000;stroke-linecap:square;stroke-linejoin:miter;stroke-width:0.8;"/>
   </g>
   <g id="patch_6">
    <path d="M 59.72 6.845228 
L 450.672 6.845228 
" style="fill:none;stroke:#000000;stroke-linecap:square;stroke-linejoin:miter;stroke-width:0.8;"/>
   </g>
   <g id="text_12">
    <!-- {f20-f24}, 20-D -->
    <defs>
     <path d="M 51.125 -9.28125 
L 51.125 -16.3125 
L 48.09375 -16.3125 
Q 35.9375 -16.3125 31.8125 -12.6875 
Q 27.6875 -9.078125 27.6875 1.703125 
L 27.6875 13.375 
Q 27.6875 20.75 25.046875 23.578125 
Q 22.40625 26.421875 15.484375 26.421875 
L 12.5 26.421875 
L 12.5 33.40625 
L 15.484375 33.40625 
Q 22.46875 33.40625 25.078125 36.203125 
Q 27.6875 39.015625 27.6875 46.296875 
L 27.6875 58.015625 
Q 27.6875 68.796875 31.8125 72.390625 
Q 35.9375 75.984375 48.09375 75.984375 
L 51.125 75.984375 
L 51.125 69 
L 47.796875 69 
Q 40.921875 69 38.8125 66.84375 
Q 36.71875 64.703125 36.71875 57.8125 
L 36.71875 45.703125 
Q 36.71875 38.03125 34.5 34.5625 
Q 32.28125 31.109375 26.90625 29.890625 
Q 32.328125 28.5625 34.515625 25.09375 
Q 36.71875 21.625 36.71875 14.015625 
L 36.71875 1.90625 
Q 36.71875 -4.984375 38.8125 -7.125 
Q 40.921875 -9.28125 47.796875 -9.28125 
z
" id="DejaVuSans-7b"/>
     <path d="M 4.890625 31.390625 
L 31.203125 31.390625 
L 31.203125 23.390625 
L 4.890625 23.390625 
z
" id="DejaVuSans-2d"/>
     <path d="M 12.5 -9.28125 
L 15.921875 -9.28125 
Q 22.75 -9.28125 24.828125 -7.171875 
Q 26.90625 -5.078125 26.90625 1.90625 
L 26.90625 14.015625 
Q 26.90625 21.625 29.09375 25.09375 
Q 31.296875 28.5625 36.71875 29.890625 
Q 31.296875 31.109375 29.09375 34.5625 
Q 26.90625 38.03125 26.90625 45.703125 
L 26.90625 57.8125 
Q 26.90625 64.75 24.828125 66.875 
Q 22.75 69 15.921875 69 
L 12.5 69 
L 12.5 75.984375 
L 15.578125 75.984375 
Q 27.734375 75.984375 31.8125 72.390625 
Q 35.890625 68.796875 35.890625 58.015625 
L 35.890625 46.296875 
Q 35.890625 39.015625 38.515625 36.203125 
Q 41.15625 33.40625 48.09375 33.40625 
L 51.125 33.40625 
L 51.125 26.421875 
L 48.09375 26.421875 
Q 41.15625 26.421875 38.515625 23.578125 
Q 35.890625 20.75 35.890625 13.375 
L 35.890625 1.703125 
Q 35.890625 -9.078125 31.8125 -12.6875 
Q 27.734375 -16.3125 15.578125 -16.3125 
L 12.5 -16.3125 
z
" id="DejaVuSans-7d"/>
     <path d="M 11.71875 12.40625 
L 22.015625 12.40625 
L 22.015625 4 
L 14.015625 -11.625 
L 7.71875 -11.625 
L 11.71875 4 
z
" id="DejaVuSans-2c"/>
    </defs>
    <g transform="translate(175.9835 27.730798)scale(0.2 -0.2)">
     <use xlink:href="#DejaVuSans-7b"/>
     <use x="63.623047" xlink:href="#DejaVuSans-66"/>
     <use x="98.828125" xlink:href="#DejaVuSans-32"/>
     <use x="162.451172" xlink:href="#DejaVuSans-30"/>
     <use x="226.074219" xlink:href="#DejaVuSans-2d"/>
     <use x="262.158203" xlink:href="#DejaVuSans-66"/>
     <use x="297.363281" xlink:href="#DejaVuSans-32"/>
     <use x="360.986328" xlink:href="#DejaVuSans-34"/>
     <use x="424.609375" xlink:href="#DejaVuSans-7d"/>
     <use x="488.232422" xlink:href="#DejaVuSans-2c"/>
     <use x="520.019531" xlink:href="#DejaVuSans-20"/>
     <use x="551.806641" xlink:href="#DejaVuSans-32"/>
     <use x="615.429688" xlink:href="#DejaVuSans-30"/>
     <use x="679.052734" xlink:href="#DejaVuSans-2d"/>
     <use x="715.136719" xlink:href="#DejaVuSans-44"/>
    </g>
   </g>
   <g id="text_13">
    <!-- absolute targets -->
    <defs>
     <path d="M 48.6875 27.296875 
Q 48.6875 37.203125 44.609375 42.84375 
Q 40.53125 48.484375 33.40625 48.484375 
Q 26.265625 48.484375 22.1875 42.84375 
Q 18.109375 37.203125 18.109375 27.296875 
Q 18.109375 17.390625 22.1875 11.75 
Q 26.265625 6.109375 33.40625 6.109375 
Q 40.53125 6.109375 44.609375 11.75 
Q 48.6875 17.390625 48.6875 27.296875 
z
M 18.109375 46.390625 
Q 20.953125 51.265625 25.265625 53.625 
Q 29.59375 56 35.59375 56 
Q 45.5625 56 51.78125 48.09375 
Q 58.015625 40.1875 58.015625 27.296875 
Q 58.015625 14.40625 51.78125 6.484375 
Q 45.5625 -1.421875 35.59375 -1.421875 
Q 29.59375 -1.421875 25.265625 0.953125 
Q 20.953125 3.328125 18.109375 8.203125 
L 18.109375 0 
L 9.078125 0 
L 9.078125 75.984375 
L 18.109375 75.984375 
z
" id="DejaVuSans-62"/>
     <path d="M 8.5 21.578125 
L 8.5 54.6875 
L 17.484375 54.6875 
L 17.484375 21.921875 
Q 17.484375 14.15625 20.5 10.265625 
Q 23.53125 6.390625 29.59375 6.390625 
Q 36.859375 6.390625 41.078125 11.03125 
Q 45.3125 15.671875 45.3125 23.6875 
L 45.3125 54.6875 
L 54.296875 54.6875 
L 54.296875 0 
L 45.3125 0 
L 45.3125 8.40625 
Q 42.046875 3.421875 37.71875 1 
Q 33.40625 -1.421875 27.6875 -1.421875 
Q 18.265625 -1.421875 13.375 4.4375 
Q 8.5 10.296875 8.5 21.578125 
z
M 31.109375 56 
z
" id="DejaVuSans-75"/>
     <path d="M 56.203125 29.59375 
L 56.203125 25.203125 
L 14.890625 25.203125 
Q 15.484375 15.921875 20.484375 11.0625 
Q 25.484375 6.203125 34.421875 6.203125 
Q 39.59375 6.203125 44.453125 7.46875 
Q 49.3125 8.734375 54.109375 11.28125 
L 54.109375 2.78125 
Q 49.265625 0.734375 44.1875 -0.34375 
Q 39.109375 -1.421875 33.890625 -1.421875 
Q 20.796875 -1.421875 13.15625 6.1875 
Q 5.515625 13.8125 5.515625 26.8125 
Q 5.515625 40.234375 12.765625 48.109375 
Q 20.015625 56 32.328125 56 
Q 43.359375 56 49.78125 48.890625 
Q 56.203125 41.796875 56.203125 29.59375 
z
M 47.21875 32.234375 
Q 47.125 39.59375 43.09375 43.984375 
Q 39.0625 48.390625 32.421875 48.390625 
Q 24.90625 48.390625 20.390625 44.140625 
Q 15.875 39.890625 15.1875 32.171875 
z
" id="DejaVuSans-65"/>
    </defs>
    <g transform="translate(59.72 597.868768)scale(0.14 -0.14)">
     <use xlink:href="#DejaVuSans-61"/>
     <use x="61.279297" xlink:href="#DejaVuSans-62"/>
     <use x="124.755859" xlink:href="#DejaVuSans-73"/>
     <use x="176.855469" xlink:href="#DejaVuSans-6f"/>
     <use x="238.037109" xlink:href="#DejaVuSans-6c"/>
     <use x="265.820312" xlink:href="#DejaVuSans-75"/>
     <use x="329.199219" xlink:href="#DejaVuSans-74"/>
     <use x="368.408203" xlink:href="#DejaVuSans-65"/>
     <use x="429.931641" xlink:href="#DejaVuSans-20"/>
     <use x="461.71875" xlink:href="#DejaVuSans-74"/>
     <use x="500.927734" xlink:href="#DejaVuSans-61"/>
     <use x="562.207031" xlink:href="#DejaVuSans-72"/>
     <use x="603.304688" xlink:href="#DejaVuSans-67"/>
     <use x="666.78125" xlink:href="#DejaVuSans-65"/>
     <use x="728.304688" xlink:href="#DejaVuSans-74"/>
     <use x="767.513672" xlink:href="#DejaVuSans-73"/>
    </g>
   </g>
   <g id="text_14">
    <!-- v0.0.0 -->
    <g style="fill:#808080;" transform="translate(239.51475 286.355965)scale(0.1 -0.1)">
     <use xlink:href="#DejaVuSans-76"/>
     <use x="59.179688" xlink:href="#DejaVuSans-30"/>
     <use x="122.802734" xlink:href="#DejaVuSans-2e"/>
     <use x="154.589844" xlink:href="#DejaVuSans-30"/>
     <use x="218.212891" xlink:href="#DejaVuSans-2e"/>
     <use x="250" xlink:href="#DejaVuSans-30"/>
    </g>
   </g>
   <g id="legend_1">
    <g id="patch_7">
     <path d="M 73.72 140.270228 
L 202.941875 140.270228 
Q 206.941875 140.270228 206.941875 136.270228 
L 206.941875 20.845228 
Q 206.941875 16.845228 202.941875 16.845228 
L 73.72 16.845228 
Q 69.72 16.845228 69.72 20.845228 
L 69.72 136.270228 
Q 69.72 140.270228 73.72 140.270228 
z
" style="fill:#ffffff;opacity:0.2;stroke:#cccccc;stroke-linejoin:miter;"/>
    </g>
    <g id="line2d_94">
     <path d="M 77.72 33.042103 
L 117.72 33.042103 
" style="fill:none;stroke:#000000;stroke-linecap:square;stroke-width:1.5;"/>
    </g>
    <g id="line2d_95"/>
    <g id="text_15">
     <!-- 1: 5/5 -->
     <defs>
      <path d="M 11.71875 12.40625 
L 22.015625 12.40625 
L 22.015625 0 
L 11.71875 0 
z
M 11.71875 51.703125 
L 22.015625 51.703125 
L 22.015625 39.3125 
L 11.71875 39.3125 
z
" id="DejaVuSans-3a"/>
      <path d="M 10.796875 72.90625 
L 49.515625 72.90625 
L 49.515625 64.59375 
L 19.828125 64.59375 
L 19.828125 46.734375 
Q 21.96875 47.46875 24.109375 47.828125 
Q 26.265625 48.1875 28.421875 48.1875 
Q 40.625 48.1875 47.75 41.5 
Q 54.890625 34.8125 54.890625 23.390625 
Q 54.890625 11.625 47.5625 5.09375 
Q 40.234375 -1.421875 26.90625 -1.421875 
Q 22.3125 -1.421875 17.546875 -0.640625 
Q 12.796875 0.140625 7.71875 1.703125 
L 7.71875 11.625 
Q 12.109375 9.234375 16.796875 8.0625 
Q 21.484375 6.890625 26.703125 6.890625 
Q 35.15625 6.890625 40.078125 11.328125 
Q 45.015625 15.765625 45.015625 23.390625 
Q 45.015625 31 40.078125 35.4375 
Q 35.15625 39.890625 26.703125 39.890625 
Q 22.75 39.890625 18.8125 39.015625 
Q 14.890625 38.140625 10.796875 36.28125 
z
" id="DejaVuSans-35"/>
     </defs>
     <g transform="translate(133.72 40.042103)scale(0.2 -0.2)">
      <use xlink:href="#DejaVuSans-31"/>
      <use x="63.623047" xlink:href="#DejaVuSans-3a"/>
      <use x="97.314453" xlink:href="#DejaVuSans-20"/>
      <use x="129.101562" xlink:href="#DejaVuSans-35"/>
      <use x="192.724609" xlink:href="#DejaVuSans-2f"/>
      <use x="226.416016" xlink:href="#DejaVuSans-35"/>
     </g>
    </g>
    <g id="line2d_96">
     <path d="M 77.72 62.398353 
L 117.72 62.398353 
" style="fill:none;stroke:#00bfbf;stroke-linecap:square;stroke-width:1.5;"/>
    </g>
    <g id="line2d_97"/>
    <g id="text_16">
     <!-- -1: 2/5 -->
     <g transform="translate(133.72 69.398353)scale(0.2 -0.2)">
      <use xlink:href="#DejaVuSans-2d"/>
      <use x="36.083984" xlink:href="#DejaVuSans-31"/>
      <use x="99.707031" xlink:href="#DejaVuSans-3a"/>
      <use x="133.398438" xlink:href="#DejaVuSans-20"/>
      <use x="165.185547" xlink:href="#DejaVuSans-32"/>
      <use x="228.808594" xlink:href="#DejaVuSans-2f"/>
      <use x="262.5" xlink:href="#DejaVuSans-35"/>
     </g>
    </g>
    <g id="line2d_98">
     <path d="M 77.72 91.754603 
L 117.72 91.754603 
" style="fill:none;stroke:#bf00bf;stroke-linecap:square;stroke-width:1.5;"/>
    </g>
    <g id="line2d_99"/>
    <g id="text_17">
     <!-- -4: 1/5 -->
     <g transform="translate(133.72 98.754603)scale(0.2 -0.2)">
      <use xlink:href="#DejaVuSans-2d"/>
      <use x="36.083984" xlink:href="#DejaVuSans-34"/>
      <use x="99.707031" xlink:href="#DejaVuSans-3a"/>
      <use x="133.398438" xlink:href="#DejaVuSans-20"/>
      <use x="165.185547" xlink:href="#DejaVuSans-31"/>
      <use x="228.808594" xlink:href="#DejaVuSans-2f"/>
      <use x="262.5" xlink:href="#DejaVuSans-35"/>
     </g>
    </g>
    <g id="line2d_100">
     <path d="M 77.72 121.110853 
L 117.72 121.110853 
" style="fill:none;stroke:#ff0000;stroke-linecap:square;stroke-width:3;"/>
    </g>
    <g id="line2d_101"/>
    <g id="text_18">
     <!-- -8: 1/5 -->
     <g transform="translate(133.72 128.110853)scale(0.2 -0.2)">
      <use xlink:href="#DejaVuSans-2d"/>
      <use x="36.083984" xlink:href="#DejaVuSans-38"/>
      <use x="99.707031" xlink:href="#DejaVuSans-3a"/>
      <use x="133.398438" xlink:href="#DejaVuSans-20"/>
      <use x="165.185547" xlink:href="#DejaVuSans-31"/>
      <use x="228.808594" xlink:href="#DejaVuSans-2f"/>
      <use x="262.5" xlink:href="#DejaVuSans-35"/>
     </g>
    </g>
   </g>
  </g>
 </g>
 <defs>
  <clipPath id="p43cc11fb26">
   <rect height="284.434772" width="390.952" x="59.72" y="6.845228"/>
  </clipPath>
 </defs>
</svg>
