<?xml version="1.0" encoding="utf-8" standalone="no"?>
<!DOCTYPE svg PUBLIC "-//W3C//DTD SVG 1.1//EN"
  "http://www.w3.org/Graphics/SVG/1.1/DTD/svg11.dtd">
<!-- Created with matplotlib (http://matplotlib.org/) -->
<svg height="345.6pt" version="1.1" viewBox="0 0 460.8 345.6" width="460.8pt" xmlns="http://www.w3.org/2000/svg" xmlns:xlink="http://www.w3.org/1999/xlink">
 <defs>
  <style type="text/css">
*{stroke-linecap:butt;stroke-linejoin:round;}
  </style>
 </defs>
 <g id="figure_1">
  <g id="patch_1">
   <path d="M 0 345.6 
L 460.8 345.6 
L 460.8 0 
L 0 0 
z
" style="fill:#ffffff;"/>
  </g>
  <g id="axes_1">
   <g id="patch_2">
    <path d="M 59.72 291.28 
L 450.672 291.28 
L 450.672 6.845228 
L 59.72 6.845228 
z
" style="fill:#ffffff;"/>
   </g>
   <g id="line2d_1">
    <path clip-path="url(#pbc59399765)" d="M 200.073248 291.28 
L 200.073248 287.525086 
L 203.053089 287.525086 
L 203.053089 283.770171 
L 203.987793 283.770171 
L 203.987793 280.015257 
L 205.101968 280.015257 
L 205.101968 276.260342 
L 205.238554 276.260342 
L 205.238554 272.505428 
L 205.50999 272.505428 
L 205.50999 268.750513 
L 209.20733 268.750513 
L 209.20733 264.995599 
L 210.850218 264.995599 
L 210.850218 261.240684 
L 213.060011 261.240684 
L 213.060011 257.48577 
L 216.306261 257.48577 
L 216.306261 253.730855 
L 217.209894 253.730855 
L 217.209894 249.975941 
L 222.672152 249.975941 
L 222.672152 246.221026 
L 228.93732 246.221026 
L 228.93732 242.466112 
L 233.335944 242.466112 
L 233.335944 238.711197 
L 233.981322 238.711197 
L 233.981322 234.956283 
L 234.586705 234.956283 
L 234.586705 231.201368 
L 235.207604 231.201368 
L 235.207604 227.446454 
L 235.447325 227.446454 
L 235.447325 223.691539 
L 237.775429 223.691539 
L 237.775429 219.936625 
L 238.53139 219.936625 
L 238.53139 216.18171 
L 249.504006 216.18171 
L 249.504006 212.426796 
L 250.331596 212.426796 
L 250.331596 208.671881 
L 251.349005 208.671881 
L 251.349005 204.916967 
L 253.503835 204.916967 
L 253.503835 201.162052 
L 261.222693 201.162052 
L 261.222693 197.407138 
L 264.651859 197.407138 
L 264.651859 193.652223 
L 267.271294 193.652223 
L 267.271294 189.897309 
L 276.883434 189.897309 
L 276.883434 186.142394 
L 276.883434 186.142394 
L 276.883434 186.142394 
L 450.672 186.142394 
" style="fill:none;stroke:#f5deb3;stroke-linecap:square;stroke-width:1.5;"/>
   </g>
   <g id="line2d_2">
    <path clip-path="url(#pbc59399765)" d="M 262.638712 291.28 
L 262.638712 280.015257 
L 277.667043 280.015257 
L 277.667043 268.750513 
L 288.887332 268.750513 
L 288.887332 257.48577 
L 324.839716 257.48577 
L 324.839716 246.221026 
L 350.942885 246.221026 
L 350.942885 234.956283 
L 350.942885 234.956283 
L 350.942885 234.956283 
L 450.672 234.956283 
" style="fill:none;stroke:#f5deb3;stroke-linecap:square;stroke-width:1.5;"/>
   </g>
   <g id="line2d_3">
    <path clip-path="url(#pbc59399765)" d="M 168.443729 291.28 
L 168.443729 287.525086 
L 172.287811 287.525086 
L 172.287811 283.770171 
L 202.538256 283.770171 
L 202.538256 280.015257 
L 203.7745 280.015257 
L 203.7745 276.260342 
L 205.64485 276.260342 
L 205.64485 272.505428 
L 211.078185 272.505428 
L 211.078185 268.750513 
L 214.367511 268.750513 
L 214.367511 264.995599 
L 217.209894 264.995599 
L 217.209894 261.240684 
L 219.603612 261.240684 
L 219.603612 257.48577 
L 219.9929 257.48577 
L 219.9929 253.730855 
L 223.60738 253.730855 
L 223.60738 249.975941 
L 225.399697 249.975941 
L 225.399697 246.221026 
L 230.677611 246.221026 
L 230.677611 242.466112 
L 232.210981 242.466112 
L 232.210981 238.711197 
L 237.824743 238.711197 
L 237.824743 234.956283 
L 244.535285 234.956283 
L 244.535285 231.201368 
L 251.766227 231.201368 
L 251.766227 227.446454 
L 260.708299 227.446454 
L 260.708299 223.691539 
L 261.246419 223.691539 
L 261.246419 219.936625 
L 262.943809 219.936625 
L 262.943809 216.18171 
L 266.131199 216.18171 
L 266.131199 212.426796 
L 269.628776 212.426796 
L 269.628776 208.671881 
L 270.36864 208.671881 
L 270.36864 204.916967 
L 281.244843 204.916967 
L 281.244843 201.162052 
L 284.046573 201.162052 
L 284.046573 197.407138 
L 308.654247 197.407138 
L 308.654247 193.652223 
L 310.609504 193.652223 
L 310.609504 189.897309 
L 311.080846 189.897309 
L 311.080846 186.142394 
L 319.767212 186.142394 
L 319.767212 182.38748 
L 333.343108 182.38748 
L 333.343108 178.632565 
L 333.343108 178.632565 
L 333.343108 178.632565 
L 450.672 178.632565 
" style="fill:none;stroke:#f5deb3;stroke-linecap:square;stroke-width:1.5;"/>
   </g>
   <g id="line2d_4">
    <path clip-path="url(#pbc59399765)" d="M 193.224992 291.28 
L 193.224992 287.525086 
L 209.862836 287.525086 
L 209.862836 283.770171 
L 209.921767 283.770171 
L 209.921767 280.015257 
L 212.194302 280.015257 
L 212.194302 276.260342 
L 237.527715 276.260342 
L 237.527715 272.505428 
L 238.459007 272.505428 
L 238.459007 268.750513 
L 241.913242 268.750513 
L 241.913242 264.995599 
L 242.129365 264.995599 
L 242.129365 261.240684 
L 245.344198 261.240684 
L 245.344198 257.48577 
L 254.426676 257.48577 
L 254.426676 253.730855 
L 255.621884 253.730855 
L 255.621884 249.975941 
L 258.148607 249.975941 
L 258.148607 246.221026 
L 258.239914 246.221026 
L 258.239914 242.466112 
L 261.45916 242.466112 
L 261.45916 238.711197 
L 262.065927 238.711197 
L 262.065927 234.956283 
L 263.257166 234.956283 
L 263.257166 231.201368 
L 267.192598 231.201368 
L 267.192598 227.446454 
L 279.468972 227.446454 
L 279.468972 223.691539 
L 288.056146 223.691539 
L 288.056146 219.936625 
L 288.428791 219.936625 
L 288.428791 216.18171 
L 292.783011 216.18171 
L 292.783011 212.426796 
L 294.237958 212.426796 
L 294.237958 208.671881 
L 302.426311 208.671881 
L 302.426311 204.916967 
L 305.128422 204.916967 
L 305.128422 201.162052 
L 308.255013 201.162052 
L 308.255013 197.407138 
L 311.344976 197.407138 
L 311.344976 193.652223 
L 321.555428 193.652223 
L 321.555428 189.897309 
L 325.508444 189.897309 
L 325.508444 186.142394 
L 338.372181 186.142394 
L 338.372181 182.38748 
L 339.108567 182.38748 
L 339.108567 178.632565 
L 340.524435 178.632565 
L 340.524435 174.877651 
L 343.119603 174.877651 
L 343.119603 171.122736 
L 348.134013 171.122736 
L 348.134013 167.367822 
L 348.134013 167.367822 
L 348.134013 167.367822 
L 450.672 167.367822 
" style="fill:none;stroke:#f5deb3;stroke-linecap:square;stroke-width:1.5;"/>
   </g>
   <g id="line2d_5">
    <path clip-path="url(#pbc59399765)" d="M 201.175101 291.28 
L 201.175101 287.525086 
L 208.722028 287.525086 
L 208.722028 283.770171 
L 237.552572 283.770171 
L 237.552572 280.015257 
L 248.176539 280.015257 
L 248.176539 276.260342 
L 268.13399 276.260342 
L 268.13399 272.505428 
L 280.816458 272.505428 
L 280.816458 268.750513 
L 285.082914 268.750513 
L 285.082914 264.995599 
L 285.884106 264.995599 
L 285.884106 261.240684 
L 286.217548 261.240684 
L 286.217548 257.48577 
L 293.166126 257.48577 
L 293.166126 253.730855 
L 295.348768 253.730855 
L 295.348768 249.975941 
L 295.356945 249.975941 
L 295.356945 246.221026 
L 297.781047 246.221026 
L 297.781047 242.466112 
L 300.354378 242.466112 
L 300.354378 238.711197 
L 302.413195 238.711197 
L 302.413195 234.956283 
L 304.667124 234.956283 
L 304.667124 231.201368 
L 304.761745 231.201368 
L 304.761745 227.446454 
L 306.034481 227.446454 
L 306.034481 223.691539 
L 308.904278 223.691539 
L 308.904278 219.936625 
L 312.502538 219.936625 
L 312.502538 216.18171 
L 316.723459 216.18171 
L 316.723459 212.426796 
L 319.548987 212.426796 
L 319.548987 208.671881 
L 319.87577 208.671881 
L 319.87577 204.916967 
L 329.826796 204.916967 
L 329.826796 201.162052 
L 330.18984 201.162052 
L 330.18984 197.407138 
L 331.140093 197.407138 
L 331.140093 193.652223 
L 333.410465 193.652223 
L 333.410465 189.897309 
L 335.411325 189.897309 
L 335.411325 186.142394 
L 336.293387 186.142394 
L 336.293387 182.38748 
L 340.320222 182.38748 
L 340.320222 178.632565 
L 395.394799 178.632565 
L 395.394799 174.877651 
L 395.394799 174.877651 
L 395.394799 174.877651 
L 450.672 174.877651 
" style="fill:none;stroke:#f5deb3;stroke-linecap:square;stroke-width:1.5;"/>
   </g>
   <g id="line2d_6"/>
   <g id="line2d_7">
    <path clip-path="url(#pbc59399765)" d="M 212.630081 291.28 
L 212.630081 287.525086 
L 218.225317 287.525086 
L 218.225317 283.770171 
L 219.863662 283.770171 
L 219.863662 280.015257 
L 223.259862 280.015257 
L 223.259862 276.260342 
L 230.337035 276.260342 
L 230.337035 272.505428 
L 276.517465 272.505428 
L 276.517465 268.750513 
L 288.367832 268.750513 
L 288.367832 264.995599 
L 291.29132 264.995599 
L 291.29132 261.240684 
L 291.993675 261.240684 
L 291.993675 257.48577 
L 295.520048 257.48577 
L 295.520048 253.730855 
L 304.384655 253.730855 
L 304.384655 249.975941 
L 306.384054 249.975941 
L 306.384054 246.221026 
L 307.418865 246.221026 
L 307.418865 242.466112 
L 307.603472 242.466112 
L 307.603472 238.711197 
L 308.829205 238.711197 
L 308.829205 234.956283 
L 310.33153 234.956283 
L 310.33153 231.201368 
L 314.280849 231.201368 
L 314.280849 227.446454 
L 315.292643 227.446454 
L 315.292643 223.691539 
L 316.343586 223.691539 
L 316.343586 219.936625 
L 321.544601 219.936625 
L 321.544601 216.18171 
L 322.854772 216.18171 
L 322.854772 212.426796 
L 324.148409 212.426796 
L 324.148409 208.671881 
L 327.739599 208.671881 
L 327.739599 204.916967 
L 330.707831 204.916967 
L 330.707831 201.162052 
L 333.787037 201.162052 
L 333.787037 197.407138 
L 343.463741 197.407138 
L 343.463741 193.652223 
L 343.578242 193.652223 
L 343.578242 189.897309 
L 347.896293 189.897309 
L 347.896293 186.142394 
L 361.218197 186.142394 
L 361.218197 182.38748 
L 363.083671 182.38748 
L 363.083671 178.632565 
L 364.533461 178.632565 
L 364.533461 174.877651 
L 370.655636 174.877651 
L 370.655636 171.122736 
L 372.7231 171.122736 
L 372.7231 167.367822 
L 373.303161 167.367822 
L 373.303161 163.612907 
L 381.109811 163.612907 
L 381.109811 159.857993 
L 383.170101 159.857993 
L 383.170101 156.103079 
L 388.339068 156.103079 
L 388.339068 152.348164 
L 392.707322 152.348164 
L 392.707322 148.59325 
L 395.707043 148.59325 
L 395.707043 144.838335 
L 396.771879 144.838335 
L 396.771879 141.083421 
L 398.53743 141.083421 
L 398.53743 137.328506 
L 400.882268 137.328506 
L 400.882268 133.573592 
L 407.664185 133.573592 
L 407.664185 129.818677 
L 410.132051 129.818677 
L 410.132051 126.063763 
L 412.714819 126.063763 
L 412.714819 122.308848 
L 412.893156 122.308848 
L 412.893156 118.553934 
L 416.071124 118.553934 
L 416.071124 114.799019 
L 416.218338 114.799019 
L 416.218338 111.044105 
L 419.182213 111.044105 
L 419.182213 107.28919 
L 427.014433 107.28919 
L 427.014433 103.534276 
L 445.334632 103.534276 
L 445.334632 99.779361 
L 446.65328 99.779361 
L 446.65328 96.024447 
L 454.599294 96.024447 
L 454.599294 92.269532 
L 455.223806 92.269532 
L 455.223806 88.514618 
L 455.330355 88.514618 
L 455.330355 84.759703 
L 461.8 84.759703 
" style="fill:none;stroke:#f5deb3;stroke-linecap:square;stroke-width:1.5;"/>
   </g>
   <g id="line2d_8">
    <path clip-path="url(#pbc59399765)" d="M 319.702283 291.28 
L 319.702283 287.525086 
L 325.29404 287.525086 
L 325.29404 283.770171 
L 327.60396 283.770171 
L 327.60396 280.015257 
L 329.608661 280.015257 
L 329.608661 276.260342 
L 330.120874 276.260342 
L 330.120874 272.505428 
L 330.897074 272.505428 
L 330.897074 268.750513 
L 334.308605 268.750513 
L 334.308605 264.995599 
L 354.263982 264.995599 
L 354.263982 261.240684 
L 354.416319 261.240684 
L 354.416319 257.48577 
L 354.432483 257.48577 
L 354.432483 253.730855 
L 355.211512 253.730855 
L 355.211512 249.975941 
L 355.908528 249.975941 
L 355.908528 246.221026 
L 356.482352 246.221026 
L 356.482352 242.466112 
L 379.003412 242.466112 
L 379.003412 238.711197 
L 379.343161 238.711197 
L 379.343161 234.956283 
L 379.384414 234.956283 
L 379.384414 231.201368 
L 380.133375 231.201368 
L 380.133375 227.446454 
L 380.378707 227.446454 
L 380.378707 223.691539 
L 387.888303 223.691539 
L 387.888303 219.936625 
L 388.567438 219.936625 
L 388.567438 216.18171 
L 407.62098 216.18171 
L 407.62098 212.426796 
L 407.679514 212.426796 
L 407.679514 208.671881 
L 407.957954 208.671881 
L 407.957954 204.916967 
L 410.908537 204.916967 
L 410.908537 201.162052 
L 422.086725 201.162052 
L 422.086725 197.407138 
L 428.46121 197.407138 
L 428.46121 193.652223 
L 428.46121 193.652223 
L 428.46121 193.652223 
L 450.672 193.652223 
" style="fill:none;stroke:#f5deb3;stroke-linecap:square;stroke-width:1.5;"/>
   </g>
   <g id="line2d_9">
    <path clip-path="url(#pbc59399765)" d="M 205.033456 291.28 
L 205.033456 287.525086 
L 208.904879 287.525086 
L 208.904879 283.770171 
L 219.253562 283.770171 
L 219.253562 280.015257 
L 220.078769 280.015257 
L 220.078769 276.260342 
L 251.300513 276.260342 
L 251.300513 272.505428 
L 255.08021 272.505428 
L 255.08021 268.750513 
L 258.897412 268.750513 
L 258.897412 264.995599 
L 261.822268 264.995599 
L 261.822268 261.240684 
L 266.726312 261.240684 
L 266.726312 257.48577 
L 278.872683 257.48577 
L 278.872683 253.730855 
L 279.955334 253.730855 
L 279.955334 249.975941 
L 279.981771 249.975941 
L 279.981771 246.221026 
L 289.364056 246.221026 
L 289.364056 242.466112 
L 291.825231 242.466112 
L 291.825231 238.711197 
L 300.657217 238.711197 
L 300.657217 234.956283 
L 304.186675 234.956283 
L 304.186675 231.201368 
L 306.302828 231.201368 
L 306.302828 227.446454 
L 307.592314 227.446454 
L 307.592314 223.691539 
L 310.945447 223.691539 
L 310.945447 219.936625 
L 313.024818 219.936625 
L 313.024818 216.18171 
L 315.84076 216.18171 
L 315.84076 212.426796 
L 315.842917 212.426796 
L 315.842917 208.671881 
L 318.231481 208.671881 
L 318.231481 204.916967 
L 322.665377 204.916967 
L 322.665377 201.162052 
L 324.823428 201.162052 
L 324.823428 197.407138 
L 327.022142 197.407138 
L 327.022142 193.652223 
L 329.920028 193.652223 
L 329.920028 189.897309 
L 336.911436 189.897309 
L 336.911436 186.142394 
L 338.129002 186.142394 
L 338.129002 182.38748 
L 339.319592 182.38748 
L 339.319592 178.632565 
L 345.950119 178.632565 
L 345.950119 174.877651 
L 347.592039 174.877651 
L 347.592039 171.122736 
L 351.790032 171.122736 
L 351.790032 167.367822 
L 361.004638 167.367822 
L 361.004638 163.612907 
L 361.141753 163.612907 
L 361.141753 159.857993 
L 362.462439 159.857993 
L 362.462439 156.103079 
L 365.611916 156.103079 
L 365.611916 152.348164 
L 367.983914 152.348164 
L 367.983914 148.59325 
L 368.934978 148.59325 
L 368.934978 144.838335 
L 369.080961 144.838335 
L 369.080961 141.083421 
L 372.718353 141.083421 
L 372.718353 137.328506 
L 372.91968 137.328506 
L 372.91968 133.573592 
L 375.253594 133.573592 
L 375.253594 129.818677 
L 376.04444 129.818677 
L 376.04444 126.063763 
L 383.16404 126.063763 
L 383.16404 122.308848 
L 385.123443 122.308848 
L 385.123443 118.553934 
L 385.170021 118.553934 
L 385.170021 114.799019 
L 385.397967 114.799019 
L 385.397967 111.044105 
L 385.424996 111.044105 
L 385.424996 107.28919 
L 386.207699 107.28919 
L 386.207699 103.534276 
L 387.26735 103.534276 
L 387.26735 99.779361 
L 387.977332 99.779361 
L 387.977332 96.024447 
L 388.034661 96.024447 
L 388.034661 92.269532 
L 389.305664 92.269532 
L 389.305664 88.514618 
L 390.173923 88.514618 
L 390.173923 84.759703 
L 390.369001 84.759703 
L 390.369001 81.004789 
L 395.422853 81.004789 
L 395.422853 77.249874 
L 398.974479 77.249874 
L 398.974479 73.49496 
L 410.847626 73.49496 
L 410.847626 69.740045 
L 415.096504 69.740045 
L 415.096504 65.985131 
L 424.07962 65.985131 
L 424.07962 62.230216 
L 461.137477 62.230216 
L 461.137477 58.475302 
L 461.8 58.475302 
" style="fill:none;stroke:#f5deb3;stroke-linecap:square;stroke-width:1.5;"/>
   </g>
   <g id="line2d_10">
    <path clip-path="url(#pbc59399765)" d="M 305.88475 291.28 
L 305.88475 287.525086 
L 319.780564 287.525086 
L 319.780564 283.770171 
L 323.586109 283.770171 
L 323.586109 280.015257 
L 326.547103 280.015257 
L 326.547103 276.260342 
L 335.917672 276.260342 
L 335.917672 272.505428 
L 337.913206 272.505428 
L 337.913206 268.750513 
L 338.975837 268.750513 
L 338.975837 264.995599 
L 339.776352 264.995599 
L 339.776352 261.240684 
L 342.721453 261.240684 
L 342.721453 257.48577 
L 366.996758 257.48577 
L 366.996758 253.730855 
L 374.125196 253.730855 
L 374.125196 249.975941 
L 377.044854 249.975941 
L 377.044854 246.221026 
L 380.713641 246.221026 
L 380.713641 242.466112 
L 383.820943 242.466112 
L 383.820943 238.711197 
L 385.494674 238.711197 
L 385.494674 234.956283 
L 385.646507 234.956283 
L 385.646507 231.201368 
L 402.777935 231.201368 
L 402.777935 227.446454 
L 409.725306 227.446454 
L 409.725306 223.691539 
L 412.713038 223.691539 
L 412.713038 219.936625 
L 412.713038 219.936625 
L 412.713038 219.936625 
L 450.672 219.936625 
" style="fill:none;stroke:#f5deb3;stroke-linecap:square;stroke-width:1.5;"/>
   </g>
   <g id="line2d_11">
    <path clip-path="url(#pbc59399765)" d="M 260.025762 291.28 
L 260.025762 287.525086 
L 286.991188 287.525086 
L 286.991188 283.770171 
L 299.157148 283.770171 
L 299.157148 280.015257 
L 304.925905 280.015257 
L 304.925905 276.260342 
L 307.695378 276.260342 
L 307.695378 272.505428 
L 310.599345 272.505428 
L 310.599345 268.750513 
L 311.692977 268.750513 
L 311.692977 264.995599 
L 312.738619 264.995599 
L 312.738619 261.240684 
L 320.862402 261.240684 
L 320.862402 257.48577 
L 322.277904 257.48577 
L 322.277904 253.730855 
L 322.327255 253.730855 
L 322.327255 249.975941 
L 324.294495 249.975941 
L 324.294495 246.221026 
L 329.618481 246.221026 
L 329.618481 242.466112 
L 329.988041 242.466112 
L 329.988041 238.711197 
L 332.513333 238.711197 
L 332.513333 234.956283 
L 333.09869 234.956283 
L 333.09869 231.201368 
L 333.567082 231.201368 
L 333.567082 227.446454 
L 333.941827 227.446454 
L 333.941827 223.691539 
L 334.631673 223.691539 
L 334.631673 219.936625 
L 338.452122 219.936625 
L 338.452122 216.18171 
L 348.285515 216.18171 
L 348.285515 212.426796 
L 348.832919 212.426796 
L 348.832919 208.671881 
L 350.592843 208.671881 
L 350.592843 204.916967 
L 354.107 204.916967 
L 354.107 201.162052 
L 355.234215 201.162052 
L 355.234215 197.407138 
L 356.865659 197.407138 
L 356.865659 193.652223 
L 365.063316 193.652223 
L 365.063316 189.897309 
L 366.053844 189.897309 
L 366.053844 186.142394 
L 366.149932 186.142394 
L 366.149932 182.38748 
L 368.409542 182.38748 
L 368.409542 178.632565 
L 371.9634 178.632565 
L 371.9634 174.877651 
L 389.353497 174.877651 
L 389.353497 171.122736 
L 427.18126 171.122736 
L 427.18126 167.367822 
L 435.968581 167.367822 
L 435.968581 163.612907 
L 437.668785 163.612907 
L 437.668785 159.857993 
L 438.164032 159.857993 
L 438.164032 156.103079 
L 438.430812 156.103079 
L 438.430812 152.348164 
L 455.007121 152.348164 
L 455.007121 148.59325 
L 461.8 148.59325 
" style="fill:none;stroke:#f5deb3;stroke-linecap:square;stroke-width:1.5;"/>
   </g>
   <g id="line2d_12">
    <path clip-path="url(#pbc59399765)" d="M 207.917385 291.28 
L 207.917385 287.525086 
L 210.792972 287.525086 
L 210.792972 283.770171 
L 212.13941 283.770171 
L 212.13941 280.015257 
L 223.875089 280.015257 
L 223.875089 276.260342 
L 224.102787 276.260342 
L 224.102787 272.505428 
L 236.388662 272.505428 
L 236.388662 268.750513 
L 238.04572 268.750513 
L 238.04572 264.995599 
L 239.199188 264.995599 
L 239.199188 261.240684 
L 239.899565 261.240684 
L 239.899565 257.48577 
L 243.930179 257.48577 
L 243.930179 253.730855 
L 249.521112 253.730855 
L 249.521112 249.975941 
L 251.219528 249.975941 
L 251.219528 246.221026 
L 252.460143 246.221026 
L 252.460143 242.466112 
L 254.013199 242.466112 
L 254.013199 238.711197 
L 254.102251 238.711197 
L 254.102251 234.956283 
L 254.279618 234.956283 
L 254.279618 231.201368 
L 255.833207 231.201368 
L 255.833207 227.446454 
L 259.416372 227.446454 
L 259.416372 223.691539 
L 266.242994 223.691539 
L 266.242994 219.936625 
L 273.266111 219.936625 
L 273.266111 216.18171 
L 280.538475 216.18171 
L 280.538475 212.426796 
L 284.249603 212.426796 
L 284.249603 208.671881 
L 287.386845 208.671881 
L 287.386845 204.916967 
L 289.516495 204.916967 
L 289.516495 201.162052 
L 299.65072 201.162052 
L 299.65072 197.407138 
L 304.052967 197.407138 
L 304.052967 193.652223 
L 309.029899 193.652223 
L 309.029899 189.897309 
L 309.600969 189.897309 
L 309.600969 186.142394 
L 319.686986 186.142394 
L 319.686986 182.38748 
L 320.097453 182.38748 
L 320.097453 178.632565 
L 320.097453 178.632565 
L 320.097453 178.632565 
L 450.672 178.632565 
" style="fill:none;stroke:#f5deb3;stroke-linecap:square;stroke-width:1.5;"/>
   </g>
   <g id="line2d_13">
    <path clip-path="url(#pbc59399765)" d="M 260.160985 291.28 
L 260.160985 287.525086 
L 271.239701 287.525086 
L 271.239701 283.770171 
L 275.43949 283.770171 
L 275.43949 280.015257 
L 276.392076 280.015257 
L 276.392076 276.260342 
L 280.726217 276.260342 
L 280.726217 272.505428 
L 284.214889 272.505428 
L 284.214889 268.750513 
L 287.086592 268.750513 
L 287.086592 264.995599 
L 287.313359 264.995599 
L 287.313359 261.240684 
L 287.313359 261.240684 
L 287.313359 257.48577 
L 289.349266 257.48577 
L 289.349266 253.730855 
L 300.981236 253.730855 
L 300.981236 249.975941 
L 300.981236 249.975941 
L 300.981236 249.975941 
L 450.672 249.975941 
" style="fill:none;stroke:#f5deb3;stroke-linecap:square;stroke-width:1.5;"/>
   </g>
   <g id="line2d_14">
    <path clip-path="url(#pbc59399765)" d="M 178.818976 291.28 
L 178.818976 287.525086 
L 187.838287 287.525086 
L 187.838287 283.770171 
L 235.764188 283.770171 
L 235.764188 280.015257 
L 266.344288 280.015257 
L 266.344288 276.260342 
L 273.823437 276.260342 
L 273.823437 272.505428 
L 277.595946 272.505428 
L 277.595946 268.750513 
L 278.604826 268.750513 
L 278.604826 264.995599 
L 284.703194 264.995599 
L 284.703194 261.240684 
L 285.435904 261.240684 
L 285.435904 257.48577 
L 289.403465 257.48577 
L 289.403465 253.730855 
L 291.619165 253.730855 
L 291.619165 249.975941 
L 292.061711 249.975941 
L 292.061711 246.221026 
L 292.309949 246.221026 
L 292.309949 242.466112 
L 293.953062 242.466112 
L 293.953062 238.711197 
L 296.402564 238.711197 
L 296.402564 234.956283 
L 299.571971 234.956283 
L 299.571971 231.201368 
L 302.632183 231.201368 
L 302.632183 227.446454 
L 318.028693 227.446454 
L 318.028693 223.691539 
L 318.482677 223.691539 
L 318.482677 219.936625 
L 319.618061 219.936625 
L 319.618061 216.18171 
L 320.347603 216.18171 
L 320.347603 212.426796 
L 329.110933 212.426796 
L 329.110933 208.671881 
L 332.078554 208.671881 
L 332.078554 204.916967 
L 335.740896 204.916967 
L 335.740896 201.162052 
L 337.827565 201.162052 
L 337.827565 197.407138 
L 340.606155 197.407138 
L 340.606155 193.652223 
L 349.137105 193.652223 
L 349.137105 189.897309 
L 349.137105 189.897309 
L 349.137105 189.897309 
L 450.672 189.897309 
" style="fill:none;stroke:#f5deb3;stroke-linecap:square;stroke-width:1.5;"/>
   </g>
   <g id="line2d_15">
    <path clip-path="url(#pbc59399765)" d="M 364.377946 291.28 
L 364.377946 287.525086 
L 365.827755 287.525086 
L 365.827755 283.770171 
L 368.106884 283.770171 
L 368.106884 280.015257 
L 370.727224 280.015257 
L 370.727224 276.260342 
L 372.818628 276.260342 
L 372.818628 272.505428 
L 376.085233 272.505428 
L 376.085233 268.750513 
L 378.340189 268.750513 
L 378.340189 264.995599 
L 382.099621 264.995599 
L 382.099621 261.240684 
L 387.243921 261.240684 
L 387.243921 257.48577 
L 389.800314 257.48577 
L 389.800314 253.730855 
L 390.058089 253.730855 
L 390.058089 249.975941 
L 394.037597 249.975941 
L 394.037597 246.221026 
L 394.705927 246.221026 
L 394.705927 242.466112 
L 394.749465 242.466112 
L 394.749465 238.711197 
L 395.318605 238.711197 
L 395.318605 234.956283 
L 396.166087 234.956283 
L 396.166087 231.201368 
L 397.875962 231.201368 
L 397.875962 227.446454 
L 400.819754 227.446454 
L 400.819754 223.691539 
L 405.329852 223.691539 
L 405.329852 219.936625 
L 405.329852 219.936625 
L 405.329852 219.936625 
L 450.672 219.936625 
" style="fill:none;stroke:#f5deb3;stroke-linecap:square;stroke-width:1.5;"/>
   </g>
   <g id="line2d_16">
    <path clip-path="url(#pbc59399765)" d="M 264.938453 291.28 
L 264.938453 287.525086 
L 330.221515 287.525086 
L 330.221515 283.770171 
L 351.328336 283.770171 
L 351.328336 280.015257 
L 352.052193 280.015257 
L 352.052193 276.260342 
L 358.567205 276.260342 
L 358.567205 272.505428 
L 364.482966 272.505428 
L 364.482966 268.750513 
L 378.475035 268.750513 
L 378.475035 264.995599 
L 386.020681 264.995599 
L 386.020681 261.240684 
L 387.006582 261.240684 
L 387.006582 257.48577 
L 388.783135 257.48577 
L 388.783135 253.730855 
L 394.775889 253.730855 
L 394.775889 249.975941 
L 398.51214 249.975941 
L 398.51214 246.221026 
L 400.80213 246.221026 
L 400.80213 242.466112 
L 401.892411 242.466112 
L 401.892411 238.711197 
L 403.237959 238.711197 
L 403.237959 234.956283 
L 403.405259 234.956283 
L 403.405259 231.201368 
L 407.075312 231.201368 
L 407.075312 227.446454 
L 407.286878 227.446454 
L 407.286878 223.691539 
L 409.142311 223.691539 
L 409.142311 219.936625 
L 413.290128 219.936625 
L 413.290128 216.18171 
L 413.511217 216.18171 
L 413.511217 212.426796 
L 419.482492 212.426796 
L 419.482492 208.671881 
L 422.245211 208.671881 
L 422.245211 204.916967 
L 423.357918 204.916967 
L 423.357918 201.162052 
L 428.66376 201.162052 
L 428.66376 197.407138 
L 431.368679 197.407138 
L 431.368679 193.652223 
L 432.395696 193.652223 
L 432.395696 189.897309 
L 433.368161 189.897309 
L 433.368161 186.142394 
L 434.279497 186.142394 
L 434.279497 182.38748 
L 434.51274 182.38748 
L 434.51274 178.632565 
L 435.239858 178.632565 
L 435.239858 174.877651 
L 441.031894 174.877651 
L 441.031894 171.122736 
L 444.283443 171.122736 
L 444.283443 167.367822 
L 448.353124 167.367822 
L 448.353124 163.612907 
L 453.252134 163.612907 
L 453.252134 159.857993 
L 460.285864 159.857993 
L 460.285864 156.103079 
L 460.81675 156.103079 
L 460.81675 152.348164 
L 461.8 152.348164 
" style="fill:none;stroke:#f5deb3;stroke-linecap:square;stroke-width:1.5;"/>
   </g>
   <g id="line2d_17">
    <path clip-path="url(#pbc59399765)" d="M 272.582596 291.28 
L 272.582596 287.525086 
L 274.496929 287.525086 
L 274.496929 283.770171 
L 289.702371 283.770171 
L 289.702371 280.015257 
L 347.750898 280.015257 
L 347.750898 276.260342 
L 378.417314 276.260342 
L 378.417314 272.505428 
L 378.417314 272.505428 
L 378.417314 272.505428 
L 450.672 272.505428 
" style="fill:none;stroke:#f5deb3;stroke-linecap:square;stroke-width:1.5;"/>
   </g>
   <g id="line2d_18">
    <path clip-path="url(#pbc59399765)" d="M 187.00631 291.28 
L 187.00631 287.525086 
L 202.165384 287.525086 
L 202.165384 283.770171 
L 208.476591 283.770171 
L 208.476591 280.015257 
L 209.803796 280.015257 
L 209.803796 276.260342 
L 210.097914 276.260342 
L 210.097914 272.505428 
L 219.863662 272.505428 
L 219.863662 268.750513 
L 225.868338 268.750513 
L 225.868338 264.995599 
L 227.028056 264.995599 
L 227.028056 261.240684 
L 229.357276 261.240684 
L 229.357276 257.48577 
L 232.619375 257.48577 
L 232.619375 253.730855 
L 239.551291 253.730855 
L 239.551291 249.975941 
L 240.26693 249.975941 
L 240.26693 246.221026 
L 241.630085 246.221026 
L 241.630085 242.466112 
L 242.107819 242.466112 
L 242.107819 238.711197 
L 251.477961 238.711197 
L 251.477961 234.956283 
L 252.894025 234.956283 
L 252.894025 231.201368 
L 253.230856 231.201368 
L 253.230856 227.446454 
L 253.624416 227.446454 
L 253.624416 223.691539 
L 254.426676 223.691539 
L 254.426676 219.936625 
L 263.787318 219.936625 
L 263.787318 216.18171 
L 264.373435 216.18171 
L 264.373435 212.426796 
L 269.001995 212.426796 
L 269.001995 208.671881 
L 271.412833 208.671881 
L 271.412833 204.916967 
L 276.759473 204.916967 
L 276.759473 201.162052 
L 285.003941 201.162052 
L 285.003941 197.407138 
L 288.06128 197.407138 
L 288.06128 193.652223 
L 290.691661 193.652223 
L 290.691661 189.897309 
L 294.381568 189.897309 
L 294.381568 186.142394 
L 307.449707 186.142394 
L 307.449707 182.38748 
L 312.569485 182.38748 
L 312.569485 178.632565 
L 312.569485 178.632565 
L 312.569485 178.632565 
L 450.672 178.632565 
" style="fill:none;stroke:#f5deb3;stroke-linecap:square;stroke-width:1.5;"/>
   </g>
   <g id="line2d_19">
    <path clip-path="url(#pbc59399765)" d="M 304.353801 291.28 
L 304.353801 287.158752 
L 307.275481 287.158752 
L 307.275481 283.037505 
L 310.071786 283.037505 
L 310.071786 278.916257 
L 313.538718 278.916257 
L 313.538718 274.79501 
L 314.38709 274.79501 
L 314.38709 270.673762 
L 314.652279 270.673762 
L 314.652279 266.552514 
L 317.262269 266.552514 
L 317.262269 262.431267 
L 317.383752 262.431267 
L 317.383752 258.310019 
L 317.976282 258.310019 
L 317.976282 254.188772 
L 319.292496 254.188772 
L 319.292496 250.067524 
L 320.948935 250.067524 
L 320.948935 245.946276 
L 321.513905 245.946276 
L 321.513905 241.825029 
L 321.652705 241.825029 
L 321.652705 237.703781 
L 321.996205 237.703781 
L 321.996205 233.582534 
L 323.695987 233.582534 
L 323.695987 229.461286 
L 329.272978 229.461286 
L 329.272978 225.340038 
L 330.495634 225.340038 
L 330.495634 221.218791 
L 335.040454 221.218791 
L 335.040454 217.097543 
L 338.302736 217.097543 
L 338.302736 212.976295 
L 339.3227 212.976295 
L 339.3227 208.855048 
L 339.934286 208.855048 
L 339.934286 204.7338 
L 340.235754 204.7338 
L 340.237768 196.491305 
L 342.42097 196.491305 
L 342.482044 188.24881 
L 343.638961 188.24881 
L 343.638961 184.127562 
L 346.097195 184.127562 
L 346.097195 180.006315 
L 348.612753 180.006315 
L 348.612753 175.885067 
L 349.659012 175.885067 
L 349.659012 171.763819 
L 349.794522 171.763819 
L 349.794522 167.642572 
L 357.520909 167.642572 
L 357.520909 163.521324 
L 358.878707 163.521324 
L 358.904576 155.278829 
L 359.960668 155.278829 
L 359.960668 151.157581 
L 361.176333 151.157581 
L 361.176333 147.036334 
L 362.387902 147.036334 
L 362.387902 142.915086 
L 362.673524 142.915086 
L 362.673524 138.793839 
L 364.837575 138.793839 
L 364.837575 134.672591 
L 365.18368 134.672591 
L 365.18368 130.551343 
L 366.134236 130.551343 
L 366.134236 126.430096 
L 366.308252 126.430096 
L 366.308252 122.308848 
L 374.979794 122.308848 
L 374.979794 118.187601 
L 376.113166 118.187601 
L 376.113166 114.066353 
L 380.713071 114.066353 
L 380.713071 109.945105 
L 407.864597 109.945105 
L 407.864597 105.823858 
L 407.864597 105.823858 
L 450.672 105.823858 
L 450.672 105.823858 
" style="fill:none;stroke:#f5deb3;stroke-linecap:square;stroke-width:1.5;"/>
   </g>
   <g id="line2d_20">
    <path clip-path="url(#pbc59399765)" d="M 183.17354 291.28 
L 183.17354 287.525086 
L 183.17354 287.525086 
L 183.17354 283.770171 
L 186.521009 283.770171 
L 186.521009 280.015257 
L 188.304176 280.015257 
L 188.304176 276.260342 
L 198.849049 276.260342 
L 198.849049 272.505428 
L 213.484247 272.505428 
L 213.484247 268.750513 
L 217.162965 268.750513 
L 217.162965 264.995599 
L 222.790559 264.995599 
L 222.790559 261.240684 
L 229.708373 261.240684 
L 229.708373 257.48577 
L 237.60223 257.48577 
L 237.60223 253.730855 
L 238.675666 253.730855 
L 238.675666 249.975941 
L 240.335344 249.975941 
L 240.335344 246.221026 
L 241.630085 246.221026 
L 241.630085 242.466112 
L 244.375038 242.466112 
L 244.375038 238.711197 
L 244.455262 238.711197 
L 244.455262 234.956283 
L 249.861309 234.956283 
L 249.861309 231.201368 
L 252.413305 231.201368 
L 252.413305 227.446454 
L 252.98624 227.446454 
L 252.98624 223.691539 
L 253.564182 223.691539 
L 253.564182 219.936625 
L 254.382629 219.936625 
L 254.382629 216.18171 
L 256.950862 216.18171 
L 256.950862 212.426796 
L 259.951763 212.426796 
L 259.951763 208.671881 
L 265.001794 208.671881 
L 265.001794 204.916967 
L 265.012338 204.916967 
L 265.012338 201.162052 
L 266.313934 201.162052 
L 266.313934 197.407138 
L 275.171909 197.407138 
L 275.171909 193.652223 
L 276.095094 193.652223 
L 276.095094 189.897309 
L 277.324327 189.897309 
L 277.324327 186.142394 
L 293.117938 186.142394 
L 293.117938 182.38748 
L 294.495155 182.38748 
L 294.495155 178.632565 
L 374.469016 178.632565 
L 374.469016 174.877651 
L 374.469016 174.877651 
L 374.469016 174.877651 
L 450.672 174.877651 
" style="fill:none;stroke:#f5deb3;stroke-linecap:square;stroke-width:1.5;"/>
   </g>
   <g id="line2d_21">
    <path clip-path="url(#pbc59399765)" d="M 322.849574 291.28 
L 322.849574 287.525086 
L 339.632005 287.525086 
L 339.632005 283.770171 
L 345.262151 283.770171 
L 345.262151 280.015257 
L 345.262151 280.015257 
L 345.262151 280.015257 
L 450.672 280.015257 
" style="fill:none;stroke:#f5deb3;stroke-linecap:square;stroke-width:1.5;"/>
   </g>
   <g id="line2d_22">
    <path clip-path="url(#pbc59399765)" d="M 171.320085 291.28 
L 171.320085 287.525086 
L 176.22934 287.525086 
L 176.22934 283.770171 
L 182.626017 283.770171 
L 182.626017 280.015257 
L 183.443831 280.015257 
L 183.443831 276.260342 
L 188.304176 276.260342 
L 188.304176 272.505428 
L 190.965579 272.505428 
L 190.965579 268.750513 
L 231.227221 268.750513 
L 231.227221 264.995599 
L 251.349005 264.995599 
L 251.349005 261.240684 
L 252.98624 261.240684 
L 252.98624 257.48577 
L 256.015231 257.48577 
L 256.015231 253.730855 
L 257.925771 253.730855 
L 257.925771 249.975941 
L 263.951207 249.975941 
L 263.951207 246.221026 
L 266.696318 246.221026 
L 266.696318 242.466112 
L 272.889099 242.466112 
L 272.889099 238.711197 
L 276.406854 238.711197 
L 276.406854 234.956283 
L 280.172795 234.956283 
L 280.172795 231.201368 
L 296.024457 231.201368 
L 296.024457 227.446454 
L 296.489493 227.446454 
L 296.489493 223.691539 
L 299.153518 223.691539 
L 299.153518 219.936625 
L 300.200121 219.936625 
L 300.200121 216.18171 
L 302.749232 216.18171 
L 302.749232 212.426796 
L 310.20835 212.426796 
L 310.20835 208.671881 
L 318.305449 208.671881 
L 318.305449 204.916967 
L 323.506424 204.916967 
L 323.506424 201.162052 
L 324.183331 201.162052 
L 324.183331 197.407138 
L 324.779411 197.407138 
L 324.779411 193.652223 
L 335.869242 193.652223 
L 335.869242 189.897309 
L 344.270988 189.897309 
L 344.270988 186.142394 
L 349.56735 186.142394 
L 349.56735 182.38748 
L 357.678413 182.38748 
L 357.678413 178.632565 
L 360.225002 178.632565 
L 360.225002 174.877651 
L 363.790718 174.877651 
L 363.790718 171.122736 
L 368.627309 171.122736 
L 368.627309 167.367822 
L 371.409346 167.367822 
L 371.409346 163.612907 
L 373.546087 163.612907 
L 373.546087 159.857993 
L 383.457893 159.857993 
L 383.457893 156.103079 
L 384.393193 156.103079 
L 384.393193 152.348164 
L 387.489879 152.348164 
L 387.489879 148.59325 
L 396.52048 148.59325 
L 396.52048 144.838335 
L 409.526056 144.838335 
L 409.526056 141.083421 
L 411.460304 141.083421 
L 411.460304 137.328506 
L 413.035053 137.328506 
L 413.035053 133.573592 
L 418.463647 133.573592 
L 418.463647 129.818677 
L 418.574821 129.818677 
L 418.574821 126.063763 
L 418.574821 126.063763 
L 418.574821 126.063763 
L 450.672 126.063763 
" style="fill:none;stroke:#f5deb3;stroke-linecap:square;stroke-width:1.5;"/>
   </g>
   <g id="line2d_23">
    <path clip-path="url(#pbc59399765)" d="M 266.826092 291.28 
L 266.826092 287.525086 
L 271.850129 287.525086 
L 271.850129 283.770171 
L 274.150067 283.770171 
L 274.150067 280.015257 
L 274.770185 280.015257 
L 274.770185 276.260342 
L 275.945564 276.260342 
L 275.945564 272.505428 
L 278.292951 272.505428 
L 278.292951 268.750513 
L 290.354132 268.750513 
L 290.354132 264.995599 
L 293.449399 264.995599 
L 293.449399 261.240684 
L 293.626799 261.240684 
L 293.626799 257.48577 
L 294.937233 257.48577 
L 294.937233 253.730855 
L 300.864415 253.730855 
L 300.864415 249.975941 
L 303.117092 249.975941 
L 303.117092 246.221026 
L 308.164701 246.221026 
L 308.164701 242.466112 
L 313.229029 242.466112 
L 313.229029 238.711197 
L 315.314573 238.711197 
L 315.314573 234.956283 
L 319.267315 234.956283 
L 319.267315 231.201368 
L 329.9103 231.201368 
L 329.9103 227.446454 
L 329.939475 227.446454 
L 329.939475 223.691539 
L 332.135657 223.691539 
L 332.135657 219.936625 
L 336.017758 219.936625 
L 336.017758 216.18171 
L 349.365067 216.18171 
L 349.365067 212.426796 
L 349.365067 212.426796 
L 349.365067 212.426796 
L 450.672 212.426796 
" style="fill:none;stroke:#f5deb3;stroke-linecap:square;stroke-width:1.5;"/>
   </g>
   <g id="line2d_24">
    <path clip-path="url(#pbc59399765)" d="M 232.735109 291.28 
L 232.735109 287.525086 
L 233.814212 287.525086 
L 233.814212 283.770171 
L 238.914692 283.770171 
L 238.914692 280.015257 
L 239.783894 280.015257 
L 239.783894 276.260342 
L 244.654946 276.260342 
L 244.654946 272.505428 
L 245.38314 272.505428 
L 245.38314 268.750513 
L 252.693311 268.750513 
L 252.693311 264.995599 
L 271.841611 264.995599 
L 271.841611 261.240684 
L 292.968535 261.240684 
L 292.968535 257.48577 
L 293.704373 257.48577 
L 293.704373 253.730855 
L 294.796098 253.730855 
L 294.796098 249.975941 
L 295.88 249.975941 
L 295.88 246.221026 
L 297.326831 246.221026 
L 297.326831 242.466112 
L 298.007644 242.466112 
L 298.007644 238.711197 
L 298.191516 238.711197 
L 298.191516 234.956283 
L 300.305377 234.956283 
L 300.305377 231.201368 
L 307.359902 231.201368 
L 307.359902 227.446454 
L 307.93918 227.446454 
L 307.93918 223.691539 
L 308.823836 223.691539 
L 308.823836 219.936625 
L 316.489737 219.936625 
L 316.489737 216.18171 
L 320.888202 216.18171 
L 320.888202 212.426796 
L 321.781949 212.426796 
L 321.781949 208.671881 
L 322.809697 208.671881 
L 322.809697 204.916967 
L 322.951642 204.916967 
L 322.951642 201.162052 
L 325.002137 201.162052 
L 325.002137 197.407138 
L 330.203616 197.407138 
L 330.203616 193.652223 
L 331.574516 193.652223 
L 331.574516 189.897309 
L 332.087645 189.897309 
L 332.087645 186.142394 
L 336.810747 186.142394 
L 336.810747 182.38748 
L 339.781459 182.38748 
L 339.781459 178.632565 
L 341.191006 178.632565 
L 341.191006 174.877651 
L 344.693402 174.877651 
L 344.693402 171.122736 
L 345.971171 171.122736 
L 345.971171 167.367822 
L 349.56434 167.367822 
L 349.56434 163.612907 
L 354.493185 163.612907 
L 354.493185 159.857993 
L 355.655066 159.857993 
L 355.655066 156.103079 
L 359.908409 156.103079 
L 359.908409 152.348164 
L 372.604937 152.348164 
L 372.604937 148.59325 
L 374.574996 148.59325 
L 374.574996 144.838335 
L 376.533481 144.838335 
L 376.533481 141.083421 
L 384.96736 141.083421 
L 384.96736 137.328506 
L 388.040773 137.328506 
L 388.040773 133.573592 
L 403.027279 133.573592 
L 403.027279 129.818677 
L 405.395882 129.818677 
L 405.395882 126.063763 
L 406.410932 126.063763 
L 406.410932 122.308848 
L 406.662879 122.308848 
L 406.662879 118.553934 
L 407.080184 118.553934 
L 407.080184 114.799019 
L 408.724378 114.799019 
L 408.724378 111.044105 
L 409.1354 111.044105 
L 409.1354 107.28919 
L 411.165987 107.28919 
L 411.165987 103.534276 
L 423.64556 103.534276 
L 423.64556 99.779361 
L 424.104591 99.779361 
L 424.104591 96.024447 
L 427.463382 96.024447 
L 427.463382 92.269532 
L 436.901629 92.269532 
L 436.901629 88.514618 
L 438.304864 88.514618 
L 438.304864 84.759703 
L 461.8 84.759703 
" style="fill:none;stroke:#f5deb3;stroke-linecap:square;stroke-width:1.5;"/>
   </g>
   <g id="line2d_25">
    <path clip-path="url(#pbc59399765)" d="M 338.673845 291.28 
L 338.673845 287.525086 
L 340.855998 287.525086 
L 340.855998 283.770171 
L 344.069736 283.770171 
L 344.069736 280.015257 
L 344.908194 280.015257 
L 344.908194 276.260342 
L 344.93429 276.260342 
L 344.93429 272.505428 
L 345.616495 272.505428 
L 345.616495 268.750513 
L 345.745615 268.750513 
L 345.745615 264.995599 
L 346.23859 264.995599 
L 346.23859 261.240684 
L 347.145591 261.240684 
L 347.145591 257.48577 
L 348.100161 257.48577 
L 348.100161 253.730855 
L 348.466689 253.730855 
L 348.466689 249.975941 
L 348.516488 249.975941 
L 348.516488 246.221026 
L 348.562328 246.221026 
L 348.562328 242.466112 
L 348.615854 242.466112 
L 348.615854 238.711197 
L 348.928239 238.711197 
L 348.928239 234.956283 
L 349.357494 234.956283 
L 349.357494 231.201368 
L 349.565845 231.201368 
L 349.565845 227.446454 
L 350.066797 227.446454 
L 350.066797 223.691539 
L 350.946489 223.691539 
L 350.946489 219.936625 
L 351.269886 219.936625 
L 351.269886 216.18171 
L 352.259696 216.18171 
L 352.259696 212.426796 
L 352.340529 212.426796 
L 352.340529 208.671881 
L 353.852636 208.671881 
L 353.852636 204.916967 
L 354.014142 204.916967 
L 354.014142 201.162052 
L 363.06936 201.162052 
L 363.06936 197.407138 
L 363.969267 197.407138 
L 363.969267 193.652223 
L 364.776796 193.652223 
L 364.776796 189.897309 
L 365.046151 189.897309 
L 365.046151 186.142394 
L 365.45469 186.142394 
L 365.45469 182.38748 
L 365.894258 182.38748 
L 365.894258 178.632565 
L 365.913685 178.632565 
L 365.913685 174.877651 
L 366.15038 174.877651 
L 366.15038 171.122736 
L 366.721808 171.122736 
L 366.721808 167.367822 
L 366.728854 167.367822 
L 366.728854 163.612907 
L 366.806254 163.612907 
L 366.806254 159.857993 
L 367.992381 159.857993 
L 367.992381 156.103079 
L 368.255842 156.103079 
L 368.255842 152.348164 
L 368.255842 152.348164 
L 368.255842 152.348164 
L 450.672 152.348164 
" style="fill:none;stroke:#f5deb3;stroke-linecap:square;stroke-width:1.5;"/>
   </g>
   <g id="line2d_26">
    <path clip-path="url(#pbc59399765)" d="M 245.344198 291.28 
L 245.344198 287.525086 
L 246.511116 287.525086 
L 246.511116 283.770171 
L 246.791666 283.770171 
L 246.791666 280.015257 
L 247.161951 280.015257 
L 247.161951 276.260342 
L 247.308875 276.260342 
L 247.308875 272.505428 
L 248.140852 272.505428 
L 248.140852 268.750513 
L 248.742193 268.750513 
L 248.742193 264.995599 
L 248.951763 264.995599 
L 248.951763 261.240684 
L 251.526186 261.240684 
L 251.526186 257.48577 
L 259.126284 257.48577 
L 259.126284 253.730855 
L 259.865214 253.730855 
L 259.865214 249.975941 
L 260.768539 249.975941 
L 260.768539 246.221026 
L 261.103802 246.221026 
L 261.103802 242.466112 
L 263.490188 242.466112 
L 263.490188 238.711197 
L 269.819887 238.711197 
L 269.819887 234.956283 
L 270.413206 234.956283 
L 270.413206 231.201368 
L 270.431015 231.201368 
L 270.431015 227.446454 
L 270.881828 227.446454 
L 270.881828 223.691539 
L 272.273131 223.691539 
L 272.273131 219.936625 
L 272.482556 219.936625 
L 272.482556 216.18171 
L 273.225346 216.18171 
L 273.225346 212.426796 
L 282.208297 212.426796 
L 282.208297 208.671881 
L 284.382325 208.671881 
L 284.382325 204.916967 
L 284.462844 204.916967 
L 284.462844 201.162052 
L 285.223455 201.162052 
L 285.223455 197.407138 
L 286.493688 197.407138 
L 286.493688 193.652223 
L 290.823799 193.652223 
L 290.823799 189.897309 
L 290.988209 189.897309 
L 290.988209 186.142394 
L 293.648366 186.142394 
L 293.648366 182.38748 
L 294.469948 182.38748 
L 294.469948 178.632565 
L 302.49181 178.632565 
L 302.49181 174.877651 
L 303.458563 174.877651 
L 303.458563 171.122736 
L 306.652373 171.122736 
L 306.652373 167.367822 
L 308.864082 167.367822 
L 308.864082 163.612907 
L 324.131766 163.612907 
L 324.131766 159.857993 
L 325.920402 159.857993 
L 325.920402 156.103079 
L 347.228257 156.103079 
L 347.228257 152.348164 
L 347.517527 152.348164 
L 347.517527 148.59325 
L 360.247112 148.59325 
L 360.247112 144.838335 
L 363.905374 144.838335 
L 363.905374 141.083421 
L 366.377327 141.083421 
L 366.377327 137.328506 
L 366.773294 137.328506 
L 366.773294 133.573592 
L 369.275118 133.573592 
L 369.275118 129.818677 
L 369.624558 129.818677 
L 369.624558 126.063763 
L 369.95351 126.063763 
L 369.95351 122.308848 
L 371.88628 122.308848 
L 371.88628 118.553934 
L 373.273383 118.553934 
L 373.273383 114.799019 
L 373.333986 114.799019 
L 373.333986 111.044105 
L 373.388395 111.044105 
L 373.388395 107.28919 
L 378.187228 107.28919 
L 378.187228 103.534276 
L 378.187228 103.534276 
L 378.187228 103.534276 
L 450.672 103.534276 
" style="fill:none;stroke:#f5deb3;stroke-linecap:square;stroke-width:1.5;"/>
   </g>
   <g id="line2d_27">
    <path clip-path="url(#pbc59399765)" d="M 283.035691 291.28 
L 283.035691 287.525086 
L 283.035691 287.525086 
L 283.035691 287.525086 
L 450.672 287.525086 
" style="fill:none;stroke:#f5deb3;stroke-linecap:square;stroke-width:1.5;"/>
   </g>
   <g id="line2d_28">
    <path clip-path="url(#pbc59399765)" d="M 214.264853 291.28 
L 214.264853 287.525086 
L 214.774885 287.525086 
L 214.774885 283.770171 
L 221.463355 283.770171 
L 221.463355 280.015257 
L 229.099494 280.015257 
L 229.099494 276.260342 
L 244.575222 276.260342 
L 244.575222 272.505428 
L 263.885752 272.505428 
L 263.885752 268.750513 
L 275.386152 268.750513 
L 275.386152 264.995599 
L 294.051148 264.995599 
L 294.051148 261.240684 
L 295.928224 261.240684 
L 295.928224 257.48577 
L 297.571916 257.48577 
L 297.571916 253.730855 
L 297.598608 253.730855 
L 297.598608 249.975941 
L 299.073535 249.975941 
L 299.073535 246.221026 
L 299.377854 246.221026 
L 299.377854 242.466112 
L 301.413863 242.466112 
L 301.413863 238.711197 
L 305.51775 238.711197 
L 305.51775 234.956283 
L 306.63513 234.956283 
L 306.63513 231.201368 
L 320.580938 231.201368 
L 320.580938 227.446454 
L 321.544601 227.446454 
L 321.544601 223.691539 
L 322.026442 223.691539 
L 322.026442 219.936625 
L 322.299064 219.936625 
L 322.299064 216.18171 
L 322.844375 216.18171 
L 322.844375 212.426796 
L 323.701049 212.426796 
L 323.701049 208.671881 
L 324.564981 208.671881 
L 324.564981 204.916967 
L 324.97134 204.916967 
L 324.97134 201.162052 
L 325.497279 201.162052 
L 325.497279 197.407138 
L 329.274396 197.407138 
L 329.274396 193.652223 
L 329.345207 193.652223 
L 329.345207 189.897309 
L 332.875207 189.897309 
L 332.875207 186.142394 
L 333.757468 186.142394 
L 333.757468 182.38748 
L 333.870667 182.38748 
L 333.870667 178.632565 
L 336.740075 178.632565 
L 336.740075 174.877651 
L 336.969468 174.877651 
L 336.969468 171.122736 
L 347.06271 171.122736 
L 347.06271 167.367822 
L 350.357338 167.367822 
L 350.357338 163.612907 
L 353.148594 163.612907 
L 353.148594 159.857993 
L 354.686149 159.857993 
L 354.686149 156.103079 
L 355.297822 156.103079 
L 355.297822 152.348164 
L 357.415081 152.348164 
L 357.415081 148.59325 
L 364.27971 148.59325 
L 364.27971 144.838335 
L 369.321037 144.838335 
L 369.321037 141.083421 
L 371.796948 141.083421 
L 371.796948 137.328506 
L 372.922946 137.328506 
L 372.922946 133.573592 
L 375.017886 133.573592 
L 375.017886 129.818677 
L 391.681249 129.818677 
L 391.681249 126.063763 
L 401.532745 126.063763 
L 401.532745 122.308848 
L 411.542673 122.308848 
L 411.542673 118.553934 
L 415.452813 118.553934 
L 415.452813 114.799019 
L 428.800938 114.799019 
L 428.800938 111.044105 
L 429.574659 111.044105 
L 429.574659 107.28919 
L 438.486245 107.28919 
L 438.486245 103.534276 
L 439.078862 103.534276 
L 439.078862 99.779361 
L 439.672862 99.779361 
L 439.672862 96.024447 
L 439.756421 96.024447 
L 439.756421 92.269532 
L 441.910172 92.269532 
L 441.910172 88.514618 
L 458.019946 88.514618 
L 458.019946 84.759703 
L 461.8 84.759703 
" style="fill:none;stroke:#f5deb3;stroke-linecap:square;stroke-width:1.5;"/>
   </g>
   <g id="line2d_29">
    <path clip-path="url(#pbc59399765)" d="M 211.021346 291.28 
L 211.021346 287.525086 
L 211.021346 287.525086 
L 211.021346 283.770171 
L 211.021346 283.770171 
L 211.021346 280.015257 
L 233.477354 280.015257 
L 233.477354 276.260342 
L 233.477354 276.260342 
L 233.477354 272.505428 
L 233.477354 272.505428 
L 233.477354 268.750513 
L 238.192196 268.750513 
L 238.192196 264.995599 
L 238.192196 264.995599 
L 238.192196 261.240684 
L 238.192196 261.240684 
L 238.192196 257.48577 
L 266.28355 257.48577 
L 266.28355 253.730855 
L 266.28355 253.730855 
L 266.28355 249.975941 
L 266.28355 249.975941 
L 266.28355 246.221026 
L 296.760613 246.221026 
L 296.760613 242.466112 
L 296.760613 242.466112 
L 296.760613 238.711197 
L 296.760613 238.711197 
L 296.760613 234.956283 
L 308.944423 234.956283 
L 308.944423 231.201368 
L 308.944423 231.201368 
L 308.944423 227.446454 
L 308.944423 227.446454 
L 308.944423 223.691539 
L 315.318957 223.691539 
L 315.318957 219.936625 
L 315.318957 219.936625 
L 315.318957 216.18171 
L 315.318957 216.18171 
L 315.318957 212.426796 
L 317.354967 212.426796 
L 317.354967 208.671881 
L 318.028693 208.671881 
L 318.028693 204.916967 
L 326.757908 204.916967 
L 326.757908 201.162052 
L 327.632328 201.162052 
L 327.632328 197.407138 
L 327.840582 197.407138 
L 327.840582 193.652223 
L 334.493442 193.652223 
L 334.493442 189.897309 
L 336.87679 189.897309 
L 336.87679 186.142394 
L 339.926153 186.142394 
L 339.926153 182.38748 
L 351.895854 182.38748 
L 351.895854 178.632565 
L 351.895854 178.632565 
L 351.895854 178.632565 
L 450.672 178.632565 
" style="fill:none;stroke:#f5deb3;stroke-linecap:square;stroke-width:1.5;"/>
   </g>
   <g id="line2d_30">
    <path clip-path="url(#pbc59399765)" d="M 289.692615 291.28 
L 289.692615 287.525086 
L 291.692585 287.525086 
L 291.692585 283.770171 
L 325.444593 283.770171 
L 325.444593 280.015257 
L 334.801539 280.015257 
L 334.801539 276.260342 
L 347.946986 276.260342 
L 347.946986 272.505428 
L 352.531092 272.505428 
L 352.531092 268.750513 
L 353.526496 268.750513 
L 353.526496 264.995599 
L 353.785431 264.995599 
L 353.785431 261.240684 
L 354.049486 261.240684 
L 354.049486 257.48577 
L 354.325653 257.48577 
L 354.325653 253.730855 
L 354.325653 253.730855 
L 354.325653 253.730855 
L 450.672 253.730855 
" style="fill:none;stroke:#f5deb3;stroke-linecap:square;stroke-width:1.5;"/>
   </g>
   <g id="matplotlib.axis_1">
    <g id="xtick_1">
     <g id="line2d_31">
      <path clip-path="url(#pbc59399765)" d="M 133.47019 291.28 
L 133.47019 6.845228 
" style="fill:none;stroke:#b0b0b0;stroke-linecap:square;stroke-width:0.8;"/>
     </g>
     <g id="line2d_32">
      <defs>
       <path d="M 0 0 
L 0 3.5 
" id="m9d95d1cdb8" style="stroke:#000000;stroke-width:0.8;"/>
      </defs>
      <g>
       <use style="stroke:#000000;stroke-width:0.8;" x="133.47019" xlink:href="#m9d95d1cdb8" y="291.28"/>
      </g>
     </g>
     <g id="text_1">
      <!-- 1 -->
      <defs>
       <path d="M 12.40625 8.296875 
L 28.515625 8.296875 
L 28.515625 63.921875 
L 10.984375 60.40625 
L 10.984375 69.390625 
L 28.421875 72.90625 
L 38.28125 72.90625 
L 38.28125 8.296875 
L 54.390625 8.296875 
L 54.390625 0 
L 12.40625 0 
z
" id="DejaVuSans-31"/>
      </defs>
      <g transform="translate(127.10769 313.476875)scale(0.2 -0.2)">
       <use xlink:href="#DejaVuSans-31"/>
      </g>
     </g>
    </g>
    <g id="xtick_2">
     <g id="line2d_33">
      <path clip-path="url(#pbc59399765)" d="M 280.970569 291.28 
L 280.970569 6.845228 
" style="fill:none;stroke:#b0b0b0;stroke-linecap:square;stroke-width:0.8;"/>
     </g>
     <g id="line2d_34">
      <g>
       <use style="stroke:#000000;stroke-width:0.8;" x="280.970569" xlink:href="#m9d95d1cdb8" y="291.28"/>
      </g>
     </g>
     <g id="text_2">
      <!-- 3 -->
      <defs>
       <path d="M 40.578125 39.3125 
Q 47.65625 37.796875 51.625 33 
Q 55.609375 28.21875 55.609375 21.1875 
Q 55.609375 10.40625 48.1875 4.484375 
Q 40.765625 -1.421875 27.09375 -1.421875 
Q 22.515625 -1.421875 17.65625 -0.515625 
Q 12.796875 0.390625 7.625 2.203125 
L 7.625 11.71875 
Q 11.71875 9.328125 16.59375 8.109375 
Q 21.484375 6.890625 26.8125 6.890625 
Q 36.078125 6.890625 40.9375 10.546875 
Q 45.796875 14.203125 45.796875 21.1875 
Q 45.796875 27.640625 41.28125 31.265625 
Q 36.765625 34.90625 28.71875 34.90625 
L 20.21875 34.90625 
L 20.21875 43.015625 
L 29.109375 43.015625 
Q 36.375 43.015625 40.234375 45.921875 
Q 44.09375 48.828125 44.09375 54.296875 
Q 44.09375 59.90625 40.109375 62.90625 
Q 36.140625 65.921875 28.71875 65.921875 
Q 24.65625 65.921875 20.015625 65.03125 
Q 15.375 64.15625 9.8125 62.3125 
L 9.8125 71.09375 
Q 15.4375 72.65625 20.34375 73.4375 
Q 25.25 74.21875 29.59375 74.21875 
Q 40.828125 74.21875 47.359375 69.109375 
Q 53.90625 64.015625 53.90625 55.328125 
Q 53.90625 49.265625 50.4375 45.09375 
Q 46.96875 40.921875 40.578125 39.3125 
z
" id="DejaVuSans-33"/>
      </defs>
      <g transform="translate(274.608069 313.476875)scale(0.2 -0.2)">
       <use xlink:href="#DejaVuSans-33"/>
      </g>
     </g>
    </g>
    <g id="xtick_3">
     <g id="line2d_35">
      <path clip-path="url(#pbc59399765)" d="M 428.470949 291.28 
L 428.470949 6.845228 
" style="fill:none;stroke:#b0b0b0;stroke-linecap:square;stroke-width:0.8;"/>
     </g>
     <g id="line2d_36">
      <g>
       <use style="stroke:#000000;stroke-width:0.8;" x="428.470949" xlink:href="#m9d95d1cdb8" y="291.28"/>
      </g>
     </g>
     <g id="text_3">
      <!-- 5 -->
      <defs>
       <path d="M 10.796875 72.90625 
L 49.515625 72.90625 
L 49.515625 64.59375 
L 19.828125 64.59375 
L 19.828125 46.734375 
Q 21.96875 47.46875 24.109375 47.828125 
Q 26.265625 48.1875 28.421875 48.1875 
Q 40.625 48.1875 47.75 41.5 
Q 54.890625 34.8125 54.890625 23.390625 
Q 54.890625 11.625 47.5625 5.09375 
Q 40.234375 -1.421875 26.90625 -1.421875 
Q 22.3125 -1.421875 17.546875 -0.640625 
Q 12.796875 0.140625 7.71875 1.703125 
L 7.71875 11.625 
Q 12.109375 9.234375 16.796875 8.0625 
Q 21.484375 6.890625 26.703125 6.890625 
Q 35.15625 6.890625 40.078125 11.328125 
Q 45.015625 15.765625 45.015625 23.390625 
Q 45.015625 31 40.078125 35.4375 
Q 35.15625 39.890625 26.703125 39.890625 
Q 22.75 39.890625 18.8125 39.015625 
Q 14.890625 38.140625 10.796875 36.28125 
z
" id="DejaVuSans-35"/>
      </defs>
      <g transform="translate(422.108449 313.476875)scale(0.2 -0.2)">
       <use xlink:href="#DejaVuSans-35"/>
      </g>
     </g>
    </g>
    <g id="xtick_4">
     <g id="line2d_37">
      <defs>
       <path d="M 0 0 
L 0 2 
" id="m3f4e869e6f" style="stroke:#000000;stroke-width:0.6;"/>
      </defs>
      <g>
       <use style="stroke:#000000;stroke-width:0.6;" x="81.921019" xlink:href="#m3f4e869e6f" y="291.28"/>
      </g>
     </g>
    </g>
    <g id="xtick_5">
     <g id="line2d_38">
      <g>
       <use style="stroke:#000000;stroke-width:0.6;" x="94.907783" xlink:href="#m3f4e869e6f" y="291.28"/>
      </g>
     </g>
    </g>
    <g id="xtick_6">
     <g id="line2d_39">
      <g>
       <use style="stroke:#000000;stroke-width:0.6;" x="104.122039" xlink:href="#m3f4e869e6f" y="291.28"/>
      </g>
     </g>
    </g>
    <g id="xtick_7">
     <g id="line2d_40">
      <g>
       <use style="stroke:#000000;stroke-width:0.6;" x="111.26917" xlink:href="#m3f4e869e6f" y="291.28"/>
      </g>
     </g>
    </g>
    <g id="xtick_8">
     <g id="line2d_41">
      <g>
       <use style="stroke:#000000;stroke-width:0.6;" x="117.108802" xlink:href="#m3f4e869e6f" y="291.28"/>
      </g>
     </g>
    </g>
    <g id="xtick_9">
     <g id="line2d_42">
      <g>
       <use style="stroke:#000000;stroke-width:0.6;" x="122.046141" xlink:href="#m3f4e869e6f" y="291.28"/>
      </g>
     </g>
    </g>
    <g id="xtick_10">
     <g id="line2d_43">
      <g>
       <use style="stroke:#000000;stroke-width:0.6;" x="126.323058" xlink:href="#m3f4e869e6f" y="291.28"/>
      </g>
     </g>
    </g>
    <g id="xtick_11">
     <g id="line2d_44">
      <g>
       <use style="stroke:#000000;stroke-width:0.6;" x="130.095566" xlink:href="#m3f4e869e6f" y="291.28"/>
      </g>
     </g>
    </g>
    <g id="xtick_12">
     <g id="line2d_45">
      <g>
       <use style="stroke:#000000;stroke-width:0.6;" x="155.671209" xlink:href="#m3f4e869e6f" y="291.28"/>
      </g>
     </g>
    </g>
    <g id="xtick_13">
     <g id="line2d_46">
      <g>
       <use style="stroke:#000000;stroke-width:0.6;" x="168.657973" xlink:href="#m3f4e869e6f" y="291.28"/>
      </g>
     </g>
    </g>
    <g id="xtick_14">
     <g id="line2d_47">
      <g>
       <use style="stroke:#000000;stroke-width:0.6;" x="177.872228" xlink:href="#m3f4e869e6f" y="291.28"/>
      </g>
     </g>
    </g>
    <g id="xtick_15">
     <g id="line2d_48">
      <g>
       <use style="stroke:#000000;stroke-width:0.6;" x="185.01936" xlink:href="#m3f4e869e6f" y="291.28"/>
      </g>
     </g>
    </g>
    <g id="xtick_16">
     <g id="line2d_49">
      <g>
       <use style="stroke:#000000;stroke-width:0.6;" x="190.858992" xlink:href="#m3f4e869e6f" y="291.28"/>
      </g>
     </g>
    </g>
    <g id="xtick_17">
     <g id="line2d_50">
      <g>
       <use style="stroke:#000000;stroke-width:0.6;" x="195.796331" xlink:href="#m3f4e869e6f" y="291.28"/>
      </g>
     </g>
    </g>
    <g id="xtick_18">
     <g id="line2d_51">
      <g>
       <use style="stroke:#000000;stroke-width:0.6;" x="200.073248" xlink:href="#m3f4e869e6f" y="291.28"/>
      </g>
     </g>
    </g>
    <g id="xtick_19">
     <g id="line2d_52">
      <g>
       <use style="stroke:#000000;stroke-width:0.6;" x="203.845756" xlink:href="#m3f4e869e6f" y="291.28"/>
      </g>
     </g>
    </g>
    <g id="xtick_20">
     <g id="line2d_53">
      <g>
       <use style="stroke:#000000;stroke-width:0.6;" x="229.421399" xlink:href="#m3f4e869e6f" y="291.28"/>
      </g>
     </g>
    </g>
    <g id="xtick_21">
     <g id="line2d_54">
      <g>
       <use style="stroke:#000000;stroke-width:0.6;" x="242.408163" xlink:href="#m3f4e869e6f" y="291.28"/>
      </g>
     </g>
    </g>
    <g id="xtick_22">
     <g id="line2d_55">
      <g>
       <use style="stroke:#000000;stroke-width:0.6;" x="251.622418" xlink:href="#m3f4e869e6f" y="291.28"/>
      </g>
     </g>
    </g>
    <g id="xtick_23">
     <g id="line2d_56">
      <g>
       <use style="stroke:#000000;stroke-width:0.6;" x="258.76955" xlink:href="#m3f4e869e6f" y="291.28"/>
      </g>
     </g>
    </g>
    <g id="xtick_24">
     <g id="line2d_57">
      <g>
       <use style="stroke:#000000;stroke-width:0.6;" x="264.609182" xlink:href="#m3f4e869e6f" y="291.28"/>
      </g>
     </g>
    </g>
    <g id="xtick_25">
     <g id="line2d_58">
      <g>
       <use style="stroke:#000000;stroke-width:0.6;" x="269.54652" xlink:href="#m3f4e869e6f" y="291.28"/>
      </g>
     </g>
    </g>
    <g id="xtick_26">
     <g id="line2d_59">
      <g>
       <use style="stroke:#000000;stroke-width:0.6;" x="273.823437" xlink:href="#m3f4e869e6f" y="291.28"/>
      </g>
     </g>
    </g>
    <g id="xtick_27">
     <g id="line2d_60">
      <g>
       <use style="stroke:#000000;stroke-width:0.6;" x="277.595946" xlink:href="#m3f4e869e6f" y="291.28"/>
      </g>
     </g>
    </g>
    <g id="xtick_28">
     <g id="line2d_61">
      <g>
       <use style="stroke:#000000;stroke-width:0.6;" x="303.171589" xlink:href="#m3f4e869e6f" y="291.28"/>
      </g>
     </g>
    </g>
    <g id="xtick_29">
     <g id="line2d_62">
      <g>
       <use style="stroke:#000000;stroke-width:0.6;" x="316.158352" xlink:href="#m3f4e869e6f" y="291.28"/>
      </g>
     </g>
    </g>
    <g id="xtick_30">
     <g id="line2d_63">
      <g>
       <use style="stroke:#000000;stroke-width:0.6;" x="325.372608" xlink:href="#m3f4e869e6f" y="291.28"/>
      </g>
     </g>
    </g>
    <g id="xtick_31">
     <g id="line2d_64">
      <g>
       <use style="stroke:#000000;stroke-width:0.6;" x="332.51974" xlink:href="#m3f4e869e6f" y="291.28"/>
      </g>
     </g>
    </g>
    <g id="xtick_32">
     <g id="line2d_65">
      <g>
       <use style="stroke:#000000;stroke-width:0.6;" x="338.359372" xlink:href="#m3f4e869e6f" y="291.28"/>
      </g>
     </g>
    </g>
    <g id="xtick_33">
     <g id="line2d_66">
      <g>
       <use style="stroke:#000000;stroke-width:0.6;" x="343.29671" xlink:href="#m3f4e869e6f" y="291.28"/>
      </g>
     </g>
    </g>
    <g id="xtick_34">
     <g id="line2d_67">
      <g>
       <use style="stroke:#000000;stroke-width:0.6;" x="347.573627" xlink:href="#m3f4e869e6f" y="291.28"/>
      </g>
     </g>
    </g>
    <g id="xtick_35">
     <g id="line2d_68">
      <g>
       <use style="stroke:#000000;stroke-width:0.6;" x="351.346135" xlink:href="#m3f4e869e6f" y="291.28"/>
      </g>
     </g>
    </g>
    <g id="xtick_36">
     <g id="line2d_69">
      <g>
       <use style="stroke:#000000;stroke-width:0.6;" x="376.921778" xlink:href="#m3f4e869e6f" y="291.28"/>
      </g>
     </g>
    </g>
    <g id="xtick_37">
     <g id="line2d_70">
      <g>
       <use style="stroke:#000000;stroke-width:0.6;" x="389.908542" xlink:href="#m3f4e869e6f" y="291.28"/>
      </g>
     </g>
    </g>
    <g id="xtick_38">
     <g id="line2d_71">
      <g>
       <use style="stroke:#000000;stroke-width:0.6;" x="399.122798" xlink:href="#m3f4e869e6f" y="291.28"/>
      </g>
     </g>
    </g>
    <g id="xtick_39">
     <g id="line2d_72">
      <g>
       <use style="stroke:#000000;stroke-width:0.6;" x="406.269929" xlink:href="#m3f4e869e6f" y="291.28"/>
      </g>
     </g>
    </g>
    <g id="xtick_40">
     <g id="line2d_73">
      <g>
       <use style="stroke:#000000;stroke-width:0.6;" x="412.109561" xlink:href="#m3f4e869e6f" y="291.28"/>
      </g>
     </g>
    </g>
    <g id="xtick_41">
     <g id="line2d_74">
      <g>
       <use style="stroke:#000000;stroke-width:0.6;" x="417.0469" xlink:href="#m3f4e869e6f" y="291.28"/>
      </g>
     </g>
    </g>
    <g id="xtick_42">
     <g id="line2d_75">
      <g>
       <use style="stroke:#000000;stroke-width:0.6;" x="421.323817" xlink:href="#m3f4e869e6f" y="291.28"/>
      </g>
     </g>
    </g>
    <g id="xtick_43">
     <g id="line2d_76">
      <g>
       <use style="stroke:#000000;stroke-width:0.6;" x="425.096325" xlink:href="#m3f4e869e6f" y="291.28"/>
      </g>
     </g>
    </g>
    <g id="xtick_44">
     <g id="line2d_77">
      <g>
       <use style="stroke:#000000;stroke-width:0.6;" x="450.671968" xlink:href="#m3f4e869e6f" y="291.28"/>
      </g>
     </g>
    </g>
    <g id="text_4">
     <!-- log10 of FEvals / DIM -->
     <defs>
      <path d="M 9.421875 75.984375 
L 18.40625 75.984375 
L 18.40625 0 
L 9.421875 0 
z
" id="DejaVuSans-6c"/>
      <path d="M 30.609375 48.390625 
Q 23.390625 48.390625 19.1875 42.75 
Q 14.984375 37.109375 14.984375 27.296875 
Q 14.984375 17.484375 19.15625 11.84375 
Q 23.34375 6.203125 30.609375 6.203125 
Q 37.796875 6.203125 41.984375 11.859375 
Q 46.1875 17.53125 46.1875 27.296875 
Q 46.1875 37.015625 41.984375 42.703125 
Q 37.796875 48.390625 30.609375 48.390625 
z
M 30.609375 56 
Q 42.328125 56 49.015625 48.375 
Q 55.71875 40.765625 55.71875 27.296875 
Q 55.71875 13.875 49.015625 6.21875 
Q 42.328125 -1.421875 30.609375 -1.421875 
Q 18.84375 -1.421875 12.171875 6.21875 
Q 5.515625 13.875 5.515625 27.296875 
Q 5.515625 40.765625 12.171875 48.375 
Q 18.84375 56 30.609375 56 
z
" id="DejaVuSans-6f"/>
      <path d="M 45.40625 27.984375 
Q 45.40625 37.75 41.375 43.109375 
Q 37.359375 48.484375 30.078125 48.484375 
Q 22.859375 48.484375 18.828125 43.109375 
Q 14.796875 37.75 14.796875 27.984375 
Q 14.796875 18.265625 18.828125 12.890625 
Q 22.859375 7.515625 30.078125 7.515625 
Q 37.359375 7.515625 41.375 12.890625 
Q 45.40625 18.265625 45.40625 27.984375 
z
M 54.390625 6.78125 
Q 54.390625 -7.171875 48.1875 -13.984375 
Q 42 -20.796875 29.203125 -20.796875 
Q 24.46875 -20.796875 20.265625 -20.09375 
Q 16.0625 -19.390625 12.109375 -17.921875 
L 12.109375 -9.1875 
Q 16.0625 -11.328125 19.921875 -12.34375 
Q 23.78125 -13.375 27.78125 -13.375 
Q 36.625 -13.375 41.015625 -8.765625 
Q 45.40625 -4.15625 45.40625 5.171875 
L 45.40625 9.625 
Q 42.625 4.78125 38.28125 2.390625 
Q 33.9375 0 27.875 0 
Q 17.828125 0 11.671875 7.65625 
Q 5.515625 15.328125 5.515625 27.984375 
Q 5.515625 40.671875 11.671875 48.328125 
Q 17.828125 56 27.875 56 
Q 33.9375 56 38.28125 53.609375 
Q 42.625 51.21875 45.40625 46.390625 
L 45.40625 54.6875 
L 54.390625 54.6875 
z
" id="DejaVuSans-67"/>
      <path d="M 31.78125 66.40625 
Q 24.171875 66.40625 20.328125 58.90625 
Q 16.5 51.421875 16.5 36.375 
Q 16.5 21.390625 20.328125 13.890625 
Q 24.171875 6.390625 31.78125 6.390625 
Q 39.453125 6.390625 43.28125 13.890625 
Q 47.125 21.390625 47.125 36.375 
Q 47.125 51.421875 43.28125 58.90625 
Q 39.453125 66.40625 31.78125 66.40625 
z
M 31.78125 74.21875 
Q 44.046875 74.21875 50.515625 64.515625 
Q 56.984375 54.828125 56.984375 36.375 
Q 56.984375 17.96875 50.515625 8.265625 
Q 44.046875 -1.421875 31.78125 -1.421875 
Q 19.53125 -1.421875 13.0625 8.265625 
Q 6.59375 17.96875 6.59375 36.375 
Q 6.59375 54.828125 13.0625 64.515625 
Q 19.53125 74.21875 31.78125 74.21875 
z
" id="DejaVuSans-30"/>
      <path id="DejaVuSans-20"/>
      <path d="M 37.109375 75.984375 
L 37.109375 68.5 
L 28.515625 68.5 
Q 23.6875 68.5 21.796875 66.546875 
Q 19.921875 64.59375 19.921875 59.515625 
L 19.921875 54.6875 
L 34.71875 54.6875 
L 34.71875 47.703125 
L 19.921875 47.703125 
L 19.921875 0 
L 10.890625 0 
L 10.890625 47.703125 
L 2.296875 47.703125 
L 2.296875 54.6875 
L 10.890625 54.6875 
L 10.890625 58.5 
Q 10.890625 67.625 15.140625 71.796875 
Q 19.390625 75.984375 28.609375 75.984375 
z
" id="DejaVuSans-66"/>
      <path d="M 9.8125 72.90625 
L 51.703125 72.90625 
L 51.703125 64.59375 
L 19.671875 64.59375 
L 19.671875 43.109375 
L 48.578125 43.109375 
L 48.578125 34.8125 
L 19.671875 34.8125 
L 19.671875 0 
L 9.8125 0 
z
" id="DejaVuSans-46"/>
      <path d="M 9.8125 72.90625 
L 55.90625 72.90625 
L 55.90625 64.59375 
L 19.671875 64.59375 
L 19.671875 43.015625 
L 54.390625 43.015625 
L 54.390625 34.71875 
L 19.671875 34.71875 
L 19.671875 8.296875 
L 56.78125 8.296875 
L 56.78125 0 
L 9.8125 0 
z
" id="DejaVuSans-45"/>
      <path d="M 2.984375 54.6875 
L 12.5 54.6875 
L 29.59375 8.796875 
L 46.6875 54.6875 
L 56.203125 54.6875 
L 35.6875 0 
L 23.484375 0 
z
" id="DejaVuSans-76"/>
      <path d="M 34.28125 27.484375 
Q 23.390625 27.484375 19.1875 25 
Q 14.984375 22.515625 14.984375 16.5 
Q 14.984375 11.71875 18.140625 8.90625 
Q 21.296875 6.109375 26.703125 6.109375 
Q 34.1875 6.109375 38.703125 11.40625 
Q 43.21875 16.703125 43.21875 25.484375 
L 43.21875 27.484375 
z
M 52.203125 31.203125 
L 52.203125 0 
L 43.21875 0 
L 43.21875 8.296875 
Q 40.140625 3.328125 35.546875 0.953125 
Q 30.953125 -1.421875 24.3125 -1.421875 
Q 15.921875 -1.421875 10.953125 3.296875 
Q 6 8.015625 6 15.921875 
Q 6 25.140625 12.171875 29.828125 
Q 18.359375 34.515625 30.609375 34.515625 
L 43.21875 34.515625 
L 43.21875 35.40625 
Q 43.21875 41.609375 39.140625 45 
Q 35.0625 48.390625 27.6875 48.390625 
Q 23 48.390625 18.546875 47.265625 
Q 14.109375 46.140625 10.015625 43.890625 
L 10.015625 52.203125 
Q 14.9375 54.109375 19.578125 55.046875 
Q 24.21875 56 28.609375 56 
Q 40.484375 56 46.34375 49.84375 
Q 52.203125 43.703125 52.203125 31.203125 
z
" id="DejaVuSans-61"/>
      <path d="M 44.28125 53.078125 
L 44.28125 44.578125 
Q 40.484375 46.53125 36.375 47.5 
Q 32.28125 48.484375 27.875 48.484375 
Q 21.1875 48.484375 17.84375 46.4375 
Q 14.5 44.390625 14.5 40.28125 
Q 14.5 37.15625 16.890625 35.375 
Q 19.28125 33.59375 26.515625 31.984375 
L 29.59375 31.296875 
Q 39.15625 29.25 43.1875 25.515625 
Q 47.21875 21.78125 47.21875 15.09375 
Q 47.21875 7.46875 41.1875 3.015625 
Q 35.15625 -1.421875 24.609375 -1.421875 
Q 20.21875 -1.421875 15.453125 -0.5625 
Q 10.6875 0.296875 5.421875 2 
L 5.421875 11.28125 
Q 10.40625 8.6875 15.234375 7.390625 
Q 20.0625 6.109375 24.8125 6.109375 
Q 31.15625 6.109375 34.5625 8.28125 
Q 37.984375 10.453125 37.984375 14.40625 
Q 37.984375 18.0625 35.515625 20.015625 
Q 33.0625 21.96875 24.703125 23.78125 
L 21.578125 24.515625 
Q 13.234375 26.265625 9.515625 29.90625 
Q 5.8125 33.546875 5.8125 39.890625 
Q 5.8125 47.609375 11.28125 51.796875 
Q 16.75 56 26.8125 56 
Q 31.78125 56 36.171875 55.265625 
Q 40.578125 54.546875 44.28125 53.078125 
z
" id="DejaVuSans-73"/>
      <path d="M 25.390625 72.90625 
L 33.6875 72.90625 
L 8.296875 -9.28125 
L 0 -9.28125 
z
" id="DejaVuSans-2f"/>
      <path d="M 19.671875 64.796875 
L 19.671875 8.109375 
L 31.59375 8.109375 
Q 46.6875 8.109375 53.6875 14.9375 
Q 60.6875 21.78125 60.6875 36.53125 
Q 60.6875 51.171875 53.6875 57.984375 
Q 46.6875 64.796875 31.59375 64.796875 
z
M 9.8125 72.90625 
L 30.078125 72.90625 
Q 51.265625 72.90625 61.171875 64.09375 
Q 71.09375 55.28125 71.09375 36.53125 
Q 71.09375 17.671875 61.125 8.828125 
Q 51.171875 0 30.078125 0 
L 9.8125 0 
z
" id="DejaVuSans-44"/>
      <path d="M 9.8125 72.90625 
L 19.671875 72.90625 
L 19.671875 0 
L 9.8125 0 
z
" id="DejaVuSans-49"/>
      <path d="M 9.8125 72.90625 
L 24.515625 72.90625 
L 43.109375 23.296875 
L 61.8125 72.90625 
L 76.515625 72.90625 
L 76.515625 0 
L 66.890625 0 
L 66.890625 64.015625 
L 48.09375 14.015625 
L 38.1875 14.015625 
L 19.390625 64.015625 
L 19.390625 0 
L 9.8125 0 
z
" id="DejaVuSans-4d"/>
     </defs>
     <g transform="translate(150.122563 336.833125)scale(0.2 -0.2)">
      <use xlink:href="#DejaVuSans-6c"/>
      <use x="27.783203" xlink:href="#DejaVuSans-6f"/>
      <use x="88.964844" xlink:href="#DejaVuSans-67"/>
      <use x="152.441406" xlink:href="#DejaVuSans-31"/>
      <use x="216.064453" xlink:href="#DejaVuSans-30"/>
      <use x="279.6875" xlink:href="#DejaVuSans-20"/>
      <use x="311.474609" xlink:href="#DejaVuSans-6f"/>
      <use x="372.65625" xlink:href="#DejaVuSans-66"/>
      <use x="407.861328" xlink:href="#DejaVuSans-20"/>
      <use x="439.648438" xlink:href="#DejaVuSans-46"/>
      <use x="497.167969" xlink:href="#DejaVuSans-45"/>
      <use x="560.351562" xlink:href="#DejaVuSans-76"/>
      <use x="619.53125" xlink:href="#DejaVuSans-61"/>
      <use x="680.810547" xlink:href="#DejaVuSans-6c"/>
      <use x="708.59375" xlink:href="#DejaVuSans-73"/>
      <use x="760.693359" xlink:href="#DejaVuSans-20"/>
      <use x="792.480469" xlink:href="#DejaVuSans-2f"/>
      <use x="826.171875" xlink:href="#DejaVuSans-20"/>
      <use x="857.958984" xlink:href="#DejaVuSans-44"/>
      <use x="934.960938" xlink:href="#DejaVuSans-49"/>
      <use x="964.453125" xlink:href="#DejaVuSans-4d"/>
     </g>
    </g>
   </g>
   <g id="matplotlib.axis_2">
    <g id="ytick_1">
     <g id="line2d_78">
      <path clip-path="url(#pbc59399765)" d="M 59.72 291.28 
L 450.672 291.28 
" style="fill:none;stroke:#b0b0b0;stroke-linecap:square;stroke-width:0.8;"/>
     </g>
     <g id="line2d_79">
      <defs>
       <path d="M 0 0 
L -3.5 0 
" id="m92180b2065" style="stroke:#000000;stroke-width:0.8;"/>
      </defs>
      <g>
       <use style="stroke:#000000;stroke-width:0.8;" x="59.72" xlink:href="#m92180b2065" y="291.28"/>
      </g>
     </g>
     <g id="text_5">
      <!-- 0.0 -->
      <defs>
       <path d="M 10.6875 12.40625 
L 21 12.40625 
L 21 0 
L 10.6875 0 
z
" id="DejaVuSans-2e"/>
      </defs>
      <g transform="translate(27.275 297.35875)scale(0.16 -0.16)">
       <use xlink:href="#DejaVuSans-30"/>
       <use x="63.623047" xlink:href="#DejaVuSans-2e"/>
       <use x="95.410156" xlink:href="#DejaVuSans-30"/>
      </g>
     </g>
    </g>
    <g id="ytick_2">
     <g id="line2d_80">
      <path clip-path="url(#pbc59399765)" d="M 59.72 234.956283 
L 450.672 234.956283 
" style="fill:none;stroke:#b0b0b0;stroke-linecap:square;stroke-width:0.8;"/>
     </g>
     <g id="line2d_81">
      <g>
       <use style="stroke:#000000;stroke-width:0.8;" x="59.72" xlink:href="#m92180b2065" y="234.956283"/>
      </g>
     </g>
     <g id="text_6">
      <!-- 0.2 -->
      <defs>
       <path d="M 19.1875 8.296875 
L 53.609375 8.296875 
L 53.609375 0 
L 7.328125 0 
L 7.328125 8.296875 
Q 12.9375 14.109375 22.625 23.890625 
Q 32.328125 33.6875 34.8125 36.53125 
Q 39.546875 41.84375 41.421875 45.53125 
Q 43.3125 49.21875 43.3125 52.78125 
Q 43.3125 58.59375 39.234375 62.25 
Q 35.15625 65.921875 28.609375 65.921875 
Q 23.96875 65.921875 18.8125 64.3125 
Q 13.671875 62.703125 7.8125 59.421875 
L 7.8125 69.390625 
Q 13.765625 71.78125 18.9375 73 
Q 24.125 74.21875 28.421875 74.21875 
Q 39.75 74.21875 46.484375 68.546875 
Q 53.21875 62.890625 53.21875 53.421875 
Q 53.21875 48.921875 51.53125 44.890625 
Q 49.859375 40.875 45.40625 35.40625 
Q 44.1875 33.984375 37.640625 27.21875 
Q 31.109375 20.453125 19.1875 8.296875 
z
" id="DejaVuSans-32"/>
      </defs>
      <g transform="translate(27.275 241.035033)scale(0.16 -0.16)">
       <use xlink:href="#DejaVuSans-30"/>
       <use x="63.623047" xlink:href="#DejaVuSans-2e"/>
       <use x="95.410156" xlink:href="#DejaVuSans-32"/>
      </g>
     </g>
    </g>
    <g id="ytick_3">
     <g id="line2d_82">
      <path clip-path="url(#pbc59399765)" d="M 59.72 178.632565 
L 450.672 178.632565 
" style="fill:none;stroke:#b0b0b0;stroke-linecap:square;stroke-width:0.8;"/>
     </g>
     <g id="line2d_83">
      <g>
       <use style="stroke:#000000;stroke-width:0.8;" x="59.72" xlink:href="#m92180b2065" y="178.632565"/>
      </g>
     </g>
     <g id="text_7">
      <!-- 0.4 -->
      <defs>
       <path d="M 37.796875 64.3125 
L 12.890625 25.390625 
L 37.796875 25.390625 
z
M 35.203125 72.90625 
L 47.609375 72.90625 
L 47.609375 25.390625 
L 58.015625 25.390625 
L 58.015625 17.1875 
L 47.609375 17.1875 
L 47.609375 0 
L 37.796875 0 
L 37.796875 17.1875 
L 4.890625 17.1875 
L 4.890625 26.703125 
z
" id="DejaVuSans-34"/>
      </defs>
      <g transform="translate(27.275 184.711315)scale(0.16 -0.16)">
       <use xlink:href="#DejaVuSans-30"/>
       <use x="63.623047" xlink:href="#DejaVuSans-2e"/>
       <use x="95.410156" xlink:href="#DejaVuSans-34"/>
      </g>
     </g>
    </g>
    <g id="ytick_4">
     <g id="line2d_84">
      <path clip-path="url(#pbc59399765)" d="M 59.72 122.308848 
L 450.672 122.308848 
" style="fill:none;stroke:#b0b0b0;stroke-linecap:square;stroke-width:0.8;"/>
     </g>
     <g id="line2d_85">
      <g>
       <use style="stroke:#000000;stroke-width:0.8;" x="59.72" xlink:href="#m92180b2065" y="122.308848"/>
      </g>
     </g>
     <g id="text_8">
      <!-- 0.6 -->
      <defs>
       <path d="M 33.015625 40.375 
Q 26.375 40.375 22.484375 35.828125 
Q 18.609375 31.296875 18.609375 23.390625 
Q 18.609375 15.53125 22.484375 10.953125 
Q 26.375 6.390625 33.015625 6.390625 
Q 39.65625 6.390625 43.53125 10.953125 
Q 47.40625 15.53125 47.40625 23.390625 
Q 47.40625 31.296875 43.53125 35.828125 
Q 39.65625 40.375 33.015625 40.375 
z
M 52.59375 71.296875 
L 52.59375 62.3125 
Q 48.875 64.0625 45.09375 64.984375 
Q 41.3125 65.921875 37.59375 65.921875 
Q 27.828125 65.921875 22.671875 59.328125 
Q 17.53125 52.734375 16.796875 39.40625 
Q 19.671875 43.65625 24.015625 45.921875 
Q 28.375 48.1875 33.59375 48.1875 
Q 44.578125 48.1875 50.953125 41.515625 
Q 57.328125 34.859375 57.328125 23.390625 
Q 57.328125 12.15625 50.6875 5.359375 
Q 44.046875 -1.421875 33.015625 -1.421875 
Q 20.359375 -1.421875 13.671875 8.265625 
Q 6.984375 17.96875 6.984375 36.375 
Q 6.984375 53.65625 15.1875 63.9375 
Q 23.390625 74.21875 37.203125 74.21875 
Q 40.921875 74.21875 44.703125 73.484375 
Q 48.484375 72.75 52.59375 71.296875 
z
" id="DejaVuSans-36"/>
      </defs>
      <g transform="translate(27.275 128.387598)scale(0.16 -0.16)">
       <use xlink:href="#DejaVuSans-30"/>
       <use x="63.623047" xlink:href="#DejaVuSans-2e"/>
       <use x="95.410156" xlink:href="#DejaVuSans-36"/>
      </g>
     </g>
    </g>
    <g id="ytick_5">
     <g id="line2d_86">
      <path clip-path="url(#pbc59399765)" d="M 59.72 65.985131 
L 450.672 65.985131 
" style="fill:none;stroke:#b0b0b0;stroke-linecap:square;stroke-width:0.8;"/>
     </g>
     <g id="line2d_87">
      <g>
       <use style="stroke:#000000;stroke-width:0.8;" x="59.72" xlink:href="#m92180b2065" y="65.985131"/>
      </g>
     </g>
     <g id="text_9">
      <!-- 0.8 -->
      <defs>
       <path d="M 31.78125 34.625 
Q 24.75 34.625 20.71875 30.859375 
Q 16.703125 27.09375 16.703125 20.515625 
Q 16.703125 13.921875 20.71875 10.15625 
Q 24.75 6.390625 31.78125 6.390625 
Q 38.8125 6.390625 42.859375 10.171875 
Q 46.921875 13.96875 46.921875 20.515625 
Q 46.921875 27.09375 42.890625 30.859375 
Q 38.875 34.625 31.78125 34.625 
z
M 21.921875 38.8125 
Q 15.578125 40.375 12.03125 44.71875 
Q 8.5 49.078125 8.5 55.328125 
Q 8.5 64.0625 14.71875 69.140625 
Q 20.953125 74.21875 31.78125 74.21875 
Q 42.671875 74.21875 48.875 69.140625 
Q 55.078125 64.0625 55.078125 55.328125 
Q 55.078125 49.078125 51.53125 44.71875 
Q 48 40.375 41.703125 38.8125 
Q 48.828125 37.15625 52.796875 32.3125 
Q 56.78125 27.484375 56.78125 20.515625 
Q 56.78125 9.90625 50.3125 4.234375 
Q 43.84375 -1.421875 31.78125 -1.421875 
Q 19.734375 -1.421875 13.25 4.234375 
Q 6.78125 9.90625 6.78125 20.515625 
Q 6.78125 27.484375 10.78125 32.3125 
Q 14.796875 37.15625 21.921875 38.8125 
z
M 18.3125 54.390625 
Q 18.3125 48.734375 21.84375 45.5625 
Q 25.390625 42.390625 31.78125 42.390625 
Q 38.140625 42.390625 41.71875 45.5625 
Q 45.3125 48.734375 45.3125 54.390625 
Q 45.3125 60.0625 41.71875 63.234375 
Q 38.140625 66.40625 31.78125 66.40625 
Q 25.390625 66.40625 21.84375 63.234375 
Q 18.3125 60.0625 18.3125 54.390625 
z
" id="DejaVuSans-38"/>
      </defs>
      <g transform="translate(27.275 72.063881)scale(0.16 -0.16)">
       <use xlink:href="#DejaVuSans-30"/>
       <use x="63.623047" xlink:href="#DejaVuSans-2e"/>
       <use x="95.410156" xlink:href="#DejaVuSans-38"/>
      </g>
     </g>
    </g>
    <g id="ytick_6">
     <g id="line2d_88">
      <path clip-path="url(#pbc59399765)" d="M 59.72 9.661414 
L 450.672 9.661414 
" style="fill:none;stroke:#b0b0b0;stroke-linecap:square;stroke-width:0.8;"/>
     </g>
     <g id="line2d_89">
      <g>
       <use style="stroke:#000000;stroke-width:0.8;" x="59.72" xlink:href="#m92180b2065" y="9.661414"/>
      </g>
     </g>
     <g id="text_10">
      <!-- 1.0 -->
      <g transform="translate(27.275 15.740164)scale(0.16 -0.16)">
       <use xlink:href="#DejaVuSans-31"/>
       <use x="63.623047" xlink:href="#DejaVuSans-2e"/>
       <use x="95.410156" xlink:href="#DejaVuSans-30"/>
      </g>
     </g>
    </g>
    <g id="text_11">
     <!-- proportion of trials -->
     <defs>
      <path d="M 18.109375 8.203125 
L 18.109375 -20.796875 
L 9.078125 -20.796875 
L 9.078125 54.6875 
L 18.109375 54.6875 
L 18.109375 46.390625 
Q 20.953125 51.265625 25.265625 53.625 
Q 29.59375 56 35.59375 56 
Q 45.5625 56 51.78125 48.09375 
Q 58.015625 40.1875 58.015625 27.296875 
Q 58.015625 14.40625 51.78125 6.484375 
Q 45.5625 -1.421875 35.59375 -1.421875 
Q 29.59375 -1.421875 25.265625 0.953125 
Q 20.953125 3.328125 18.109375 8.203125 
z
M 48.6875 27.296875 
Q 48.6875 37.203125 44.609375 42.84375 
Q 40.53125 48.484375 33.40625 48.484375 
Q 26.265625 48.484375 22.1875 42.84375 
Q 18.109375 37.203125 18.109375 27.296875 
Q 18.109375 17.390625 22.1875 11.75 
Q 26.265625 6.109375 33.40625 6.109375 
Q 40.53125 6.109375 44.609375 11.75 
Q 48.6875 17.390625 48.6875 27.296875 
z
" id="DejaVuSans-70"/>
      <path d="M 41.109375 46.296875 
Q 39.59375 47.171875 37.8125 47.578125 
Q 36.03125 48 33.890625 48 
Q 26.265625 48 22.1875 43.046875 
Q 18.109375 38.09375 18.109375 28.8125 
L 18.109375 0 
L 9.078125 0 
L 9.078125 54.6875 
L 18.109375 54.6875 
L 18.109375 46.1875 
Q 20.953125 51.171875 25.484375 53.578125 
Q 30.03125 56 36.53125 56 
Q 37.453125 56 38.578125 55.875 
Q 39.703125 55.765625 41.0625 55.515625 
z
" id="DejaVuSans-72"/>
      <path d="M 18.3125 70.21875 
L 18.3125 54.6875 
L 36.8125 54.6875 
L 36.8125 47.703125 
L 18.3125 47.703125 
L 18.3125 18.015625 
Q 18.3125 11.328125 20.140625 9.421875 
Q 21.96875 7.515625 27.59375 7.515625 
L 36.8125 7.515625 
L 36.8125 0 
L 27.59375 0 
Q 17.1875 0 13.234375 3.875 
Q 9.28125 7.765625 9.28125 18.015625 
L 9.28125 47.703125 
L 2.6875 47.703125 
L 2.6875 54.6875 
L 9.28125 54.6875 
L 9.28125 70.21875 
z
" id="DejaVuSans-74"/>
      <path d="M 9.421875 54.6875 
L 18.40625 54.6875 
L 18.40625 0 
L 9.421875 0 
z
M 9.421875 75.984375 
L 18.40625 75.984375 
L 18.40625 64.59375 
L 9.421875 64.59375 
z
" id="DejaVuSans-69"/>
      <path d="M 54.890625 33.015625 
L 54.890625 0 
L 45.90625 0 
L 45.90625 32.71875 
Q 45.90625 40.484375 42.875 44.328125 
Q 39.84375 48.1875 33.796875 48.1875 
Q 26.515625 48.1875 22.3125 43.546875 
Q 18.109375 38.921875 18.109375 30.90625 
L 18.109375 0 
L 9.078125 0 
L 9.078125 54.6875 
L 18.109375 54.6875 
L 18.109375 46.1875 
Q 21.34375 51.125 25.703125 53.5625 
Q 30.078125 56 35.796875 56 
Q 45.21875 56 50.046875 50.171875 
Q 54.890625 44.34375 54.890625 33.015625 
z
" id="DejaVuSans-6e"/>
     </defs>
     <g transform="translate(19.115625 242.290739)rotate(-90)scale(0.2 -0.2)">
      <use xlink:href="#DejaVuSans-70"/>
      <use x="63.476562" xlink:href="#DejaVuSans-72"/>
      <use x="104.558594" xlink:href="#DejaVuSans-6f"/>
      <use x="165.740234" xlink:href="#DejaVuSans-70"/>
      <use x="229.216797" xlink:href="#DejaVuSans-6f"/>
      <use x="290.398438" xlink:href="#DejaVuSans-72"/>
      <use x="331.511719" xlink:href="#DejaVuSans-74"/>
      <use x="370.720703" xlink:href="#DejaVuSans-69"/>
      <use x="398.503906" xlink:href="#DejaVuSans-6f"/>
      <use x="459.685547" xlink:href="#DejaVuSans-6e"/>
      <use x="523.064453" xlink:href="#DejaVuSans-20"/>
      <use x="554.851562" xlink:href="#DejaVuSans-6f"/>
      <use x="616.033203" xlink:href="#DejaVuSans-66"/>
      <use x="651.238281" xlink:href="#DejaVuSans-20"/>
      <use x="683.025391" xlink:href="#DejaVuSans-74"/>
      <use x="722.234375" xlink:href="#DejaVuSans-72"/>
      <use x="763.347656" xlink:href="#DejaVuSans-69"/>
      <use x="791.130859" xlink:href="#DejaVuSans-61"/>
      <use x="852.410156" xlink:href="#DejaVuSans-6c"/>
      <use x="880.193359" xlink:href="#DejaVuSans-73"/>
     </g>
    </g>
   </g>
   <g id="line2d_90">
    <path clip-path="url(#pbc59399765)" d="M 30.371849 291.28 
L 30.371849 276.260342 
L 52.572868 276.260342 
L 52.572868 253.730855 
L 65.559632 253.730855 
L 65.559632 242.466112 
L 74.773887 242.466112 
L 74.773887 238.711197 
L 87.760651 238.711197 
L 87.760651 234.956283 
L 92.69799 234.956283 
L 92.69799 227.446454 
L 96.974907 227.446454 
L 96.974907 223.691539 
L 100.747415 223.691539 
L 100.747415 219.936625 
L 104.122039 219.936625 
L 104.122039 208.671881 
L 109.961671 208.671881 
L 109.961671 204.916967 
L 112.525382 204.916967 
L 112.525382 201.162052 
L 114.899009 201.162052 
L 114.899009 197.407138 
L 121.11769 197.407138 
L 121.11769 193.652223 
L 124.68017 193.652223 
L 124.68017 186.142394 
L 126.323058 186.142394 
L 126.323058 182.38748 
L 132.16269 182.38748 
L 132.16269 178.632565 
L 138.223979 178.632565 
L 138.223979 174.877651 
L 139.309822 174.877651 
L 139.309822 171.122736 
L 145.149454 171.122736 
L 145.149454 167.367822 
L 147.713166 167.367822 
L 147.713166 163.612907 
L 151.576796 163.612907 
L 151.576796 159.857993 
L 165.987318 159.857993 
L 165.987318 156.103079 
L 171.515984 156.103079 
L 171.515984 152.348164 
L 178.818976 152.348164 
L 178.818976 148.59325 
L 181.502067 148.59325 
L 181.502067 144.838335 
L 184.502747 144.838335 
L 184.502747 141.083421 
L 185.527772 141.083421 
L 185.527772 137.328506 
L 191.701917 137.328506 
L 191.701917 133.573592 
L 192.926116 133.573592 
L 192.926116 129.818677 
L 193.324 129.818677 
L 193.324 122.308848 
L 194.105242 122.308848 
L 194.105242 118.553934 
L 196.160304 118.553934 
L 196.160304 114.799019 
L 197.576194 114.799019 
L 197.576194 111.044105 
L 201.019995 111.044105 
L 201.019995 107.28919 
L 207.728792 107.28919 
L 207.728792 103.534276 
L 214.724245 103.534276 
L 214.724245 99.779361 
L 215.426011 99.779361 
L 215.426011 96.024447 
L 218.54177 96.024447 
L 218.54177 92.269532 
L 221.708792 92.269532 
L 221.708792 88.514618 
L 223.221015 88.514618 
L 223.221015 84.759703 
L 224.216031 84.759703 
L 224.216031 81.004789 
L 225.254109 81.004789 
L 225.254109 77.249874 
L 226.8897 77.249874 
L 226.8897 73.49496 
L 227.77851 73.49496 
L 227.77851 69.740045 
L 241.278111 69.740045 
L 241.278111 65.985131 
L 273.355613 65.985131 
L 273.355613 62.230216 
L 279.138318 62.230216 
L 279.138318 58.475302 
L 289.988848 58.475302 
L 289.988848 54.720387 
L 291.536367 54.720387 
L 291.536367 50.965473 
L 293.327681 50.965473 
L 293.327681 47.210558 
L 300.41727 47.210558 
L 300.41727 43.455644 
L 302.830266 43.455644 
L 302.830266 39.700729 
L 307.385185 39.700729 
L 307.385185 35.945815 
L 308.008105 35.945815 
L 308.008105 32.1909 
L 319.354396 32.1909 
L 319.354396 28.435986 
L 320.310111 28.435986 
L 320.310111 24.681072 
L 321.132275 24.681072 
L 321.132275 20.926157 
L 322.628759 20.926157 
L 322.628759 17.171243 
L 325.802111 17.171243 
L 325.802111 13.416328 
L 329.099531 13.416328 
L 329.099531 9.661414 
L 329.099531 9.661414 
L 450.672 9.661414 
L 450.672 9.661414 
" style="fill:none;stroke:#000000;stroke-linecap:square;stroke-width:1.5;"/>
   </g>
   <g id="line2d_91">
    <path clip-path="url(#pbc59399765)" style="fill:none;stroke:#000000;stroke-linecap:square;stroke-width:1.5;"/>
   </g>
   <g id="line2d_92">
    <path clip-path="url(#pbc59399765)" d="M 147.713166 291.28 
L 147.713166 287.525086 
L 237.873981 287.525086 
L 237.873981 283.770171 
L 272.079244 283.770171 
L 272.079244 280.015257 
L 288.015043 280.015257 
L 288.015043 276.260342 
L 292.596406 276.260342 
L 292.596406 272.505428 
L 293.828959 272.505428 
L 293.828959 268.750513 
L 296.548627 268.750513 
L 296.548627 264.995599 
L 299.330946 264.995599 
L 299.330946 261.240684 
L 345.57476 261.240684 
L 345.57476 257.48577 
L 355.441574 257.48577 
L 355.441574 253.730855 
L 355.495393 253.730855 
L 355.495393 249.975941 
L 356.461124 249.975941 
L 356.461124 246.221026 
L 360.796535 246.221026 
L 360.796535 242.466112 
L 362.958107 242.466112 
L 362.958107 238.711197 
L 365.808276 238.711197 
L 365.808276 234.956283 
L 365.850843 234.956283 
L 365.850843 231.201368 
L 367.823472 231.201368 
L 367.823472 227.446454 
L 372.115598 227.446454 
L 372.115598 223.691539 
L 379.330389 223.691539 
L 379.330389 219.936625 
L 380.228556 219.936625 
L 380.228556 216.18171 
L 380.228556 216.18171 
L 380.228556 216.18171 
L 450.672 216.18171 
" style="fill:none;stroke:#00bfbf;stroke-linecap:square;stroke-width:1.5;"/>
   </g>
   <g id="line2d_93">
    <path clip-path="url(#pbc59399765)" style="fill:none;stroke:#00bfbf;stroke-linecap:square;stroke-width:1.5;"/>
   </g>
   <g id="line2d_94">
    <path clip-path="url(#pbc59399765)" d="M 282.423281 291.28 
L 282.423281 287.525086 
L 294.042631 287.525086 
L 294.042631 283.770171 
L 308.178401 283.770171 
L 308.178401 280.015257 
L 310.675455 280.015257 
L 310.675455 276.260342 
L 313.998851 276.260342 
L 313.998851 272.505428 
L 337.966211 272.505428 
L 337.966211 268.750513 
L 344.913415 268.750513 
L 344.913415 264.995599 
L 353.57699 264.995599 
L 353.57699 261.240684 
L 368.03468 261.240684 
L 368.03468 257.48577 
L 374.204438 257.48577 
L 374.204438 253.730855 
L 376.026 253.730855 
L 376.026 249.975941 
L 386.919733 249.975941 
L 386.919733 246.221026 
L 386.919733 246.221026 
L 386.919733 246.221026 
L 450.672 246.221026 
" style="fill:none;stroke:#bf00bf;stroke-linecap:square;stroke-width:1.5;"/>
   </g>
   <g id="line2d_95">
    <path clip-path="url(#pbc59399765)" style="fill:none;stroke:#bf00bf;stroke-linecap:square;stroke-width:1.5;"/>
   </g>
   <g id="line2d_96">
    <path clip-path="url(#pbc59399765)" d="M 306.86428 291.28 
L 306.86428 287.525086 
L 316.696174 287.525086 
L 316.696174 283.770171 
L 322.688024 283.770171 
L 322.688024 280.015257 
L 325.956591 280.015257 
L 325.956591 276.260342 
L 328.9452 276.260342 
L 328.9452 272.505428 
L 376.903196 272.505428 
L 376.903196 268.750513 
L 380.508692 268.750513 
L 380.508692 264.995599 
L 382.86374 264.995599 
L 382.86374 261.240684 
L 383.889042 261.240684 
L 383.889042 257.48577 
L 385.093181 257.48577 
L 385.093181 253.730855 
L 394.706846 253.730855 
L 394.706846 249.975941 
L 394.706846 249.975941 
L 394.706846 249.975941 
L 450.672 249.975941 
" style="fill:none;stroke:#ff0000;stroke-linecap:square;stroke-width:3;"/>
   </g>
   <g id="line2d_97">
    <path clip-path="url(#pbc59399765)" style="fill:none;stroke:#ff0000;stroke-linecap:square;stroke-width:3;"/>
   </g>
   <g id="line2d_98">
    <path clip-path="url(#pbc59399765)" d="M 450.672 291.28 
L 450.672 6.845228 
" style="fill:none;stroke:#000000;stroke-linecap:square;stroke-width:1.5;"/>
   </g>
   <g id="patch_3">
    <path d="M 59.72 291.28 
L 59.72 6.845228 
" style="fill:none;stroke:#000000;stroke-linecap:square;stroke-linejoin:miter;stroke-width:0.8;"/>
   </g>
   <g id="patch_4">
    <path d="M 450.672 291.28 
L 450.672 6.845228 
" style="fill:none;stroke:#000000;stroke-linecap:square;stroke-linejoin:miter;stroke-width:0.8;"/>
   </g>
   <g id="patch_5">
    <path d="M 59.72 291.28 
L 450.672 291.28 
" style="fill:none;stroke:#000000;stroke-linecap:square;stroke-linejoin:miter;stroke-width:0.8;"/>
   </g>
   <g id="patch_6">
    <path d="M 59.72 6.845228 
L 450.672 6.845228 
" style="fill:none;stroke:#000000;stroke-linecap:square;stroke-linejoin:miter;stroke-width:0.8;"/>
   </g>
   <g id="text_12">
    <!-- {f20-f24}, 5-D -->
    <defs>
     <path d="M 51.125 -9.28125 
L 51.125 -16.3125 
L 48.09375 -16.3125 
Q 35.9375 -16.3125 31.8125 -12.6875 
Q 27.6875 -9.078125 27.6875 1.703125 
L 27.6875 13.375 
Q 27.6875 20.75 25.046875 23.578125 
Q 22.40625 26.421875 15.484375 26.421875 
L 12.5 26.421875 
L 12.5 33.40625 
L 15.484375 33.40625 
Q 22.46875 33.40625 25.078125 36.203125 
Q 27.6875 39.015625 27.6875 46.296875 
L 27.6875 58.015625 
Q 27.6875 68.796875 31.8125 72.390625 
Q 35.9375 75.984375 48.09375 75.984375 
L 51.125 75.984375 
L 51.125 69 
L 47.796875 69 
Q 40.921875 69 38.8125 66.84375 
Q 36.71875 64.703125 36.71875 57.8125 
L 36.71875 45.703125 
Q 36.71875 38.03125 34.5 34.5625 
Q 32.28125 31.109375 26.90625 29.890625 
Q 32.328125 28.5625 34.515625 25.09375 
Q 36.71875 21.625 36.71875 14.015625 
L 36.71875 1.90625 
Q 36.71875 -4.984375 38.8125 -7.125 
Q 40.921875 -9.28125 47.796875 -9.28125 
z
" id="DejaVuSans-7b"/>
     <path d="M 4.890625 31.390625 
L 31.203125 31.390625 
L 31.203125 23.390625 
L 4.890625 23.390625 
z
" id="DejaVuSans-2d"/>
     <path d="M 12.5 -9.28125 
L 15.921875 -9.28125 
Q 22.75 -9.28125 24.828125 -7.171875 
Q 26.90625 -5.078125 26.90625 1.90625 
L 26.90625 14.015625 
Q 26.90625 21.625 29.09375 25.09375 
Q 31.296875 28.5625 36.71875 29.890625 
Q 31.296875 31.109375 29.09375 34.5625 
Q 26.90625 38.03125 26.90625 45.703125 
L 26.90625 57.8125 
Q 26.90625 64.75 24.828125 66.875 
Q 22.75 69 15.921875 69 
L 12.5 69 
L 12.5 75.984375 
L 15.578125 75.984375 
Q 27.734375 75.984375 31.8125 72.390625 
Q 35.890625 68.796875 35.890625 58.015625 
L 35.890625 46.296875 
Q 35.890625 39.015625 38.515625 36.203125 
Q 41.15625 33.40625 48.09375 33.40625 
L 51.125 33.40625 
L 51.125 26.421875 
L 48.09375 26.421875 
Q 41.15625 26.421875 38.515625 23.578125 
Q 35.890625 20.75 35.890625 13.375 
L 35.890625 1.703125 
Q 35.890625 -9.078125 31.8125 -12.6875 
Q 27.734375 -16.3125 15.578125 -16.3125 
L 12.5 -16.3125 
z
" id="DejaVuSans-7d"/>
     <path d="M 11.71875 12.40625 
L 22.015625 12.40625 
L 22.015625 4 
L 14.015625 -11.625 
L 7.71875 -11.625 
L 11.71875 4 
z
" id="DejaVuSans-2c"/>
    </defs>
    <g transform="translate(182.346 27.730798)scale(0.2 -0.2)">
     <use xlink:href="#DejaVuSans-7b"/>
     <use x="63.623047" xlink:href="#DejaVuSans-66"/>
     <use x="98.828125" xlink:href="#DejaVuSans-32"/>
     <use x="162.451172" xlink:href="#DejaVuSans-30"/>
     <use x="226.074219" xlink:href="#DejaVuSans-2d"/>
     <use x="262.158203" xlink:href="#DejaVuSans-66"/>
     <use x="297.363281" xlink:href="#DejaVuSans-32"/>
     <use x="360.986328" xlink:href="#DejaVuSans-34"/>
     <use x="424.609375" xlink:href="#DejaVuSans-7d"/>
     <use x="488.232422" xlink:href="#DejaVuSans-2c"/>
     <use x="520.019531" xlink:href="#DejaVuSans-20"/>
     <use x="551.806641" xlink:href="#DejaVuSans-35"/>
     <use x="615.429688" xlink:href="#DejaVuSans-2d"/>
     <use x="651.513672" xlink:href="#DejaVuSans-44"/>
    </g>
   </g>
   <g id="text_13">
    <!-- absolute targets -->
    <defs>
     <path d="M 48.6875 27.296875 
Q 48.6875 37.203125 44.609375 42.84375 
Q 40.53125 48.484375 33.40625 48.484375 
Q 26.265625 48.484375 22.1875 42.84375 
Q 18.109375 37.203125 18.109375 27.296875 
Q 18.109375 17.390625 22.1875 11.75 
Q 26.265625 6.109375 33.40625 6.109375 
Q 40.53125 6.109375 44.609375 11.75 
Q 48.6875 17.390625 48.6875 27.296875 
z
M 18.109375 46.390625 
Q 20.953125 51.265625 25.265625 53.625 
Q 29.59375 56 35.59375 56 
Q 45.5625 56 51.78125 48.09375 
Q 58.015625 40.1875 58.015625 27.296875 
Q 58.015625 14.40625 51.78125 6.484375 
Q 45.5625 -1.421875 35.59375 -1.421875 
Q 29.59375 -1.421875 25.265625 0.953125 
Q 20.953125 3.328125 18.109375 8.203125 
L 18.109375 0 
L 9.078125 0 
L 9.078125 75.984375 
L 18.109375 75.984375 
z
" id="DejaVuSans-62"/>
     <path d="M 8.5 21.578125 
L 8.5 54.6875 
L 17.484375 54.6875 
L 17.484375 21.921875 
Q 17.484375 14.15625 20.5 10.265625 
Q 23.53125 6.390625 29.59375 6.390625 
Q 36.859375 6.390625 41.078125 11.03125 
Q 45.3125 15.671875 45.3125 23.6875 
L 45.3125 54.6875 
L 54.296875 54.6875 
L 54.296875 0 
L 45.3125 0 
L 45.3125 8.40625 
Q 42.046875 3.421875 37.71875 1 
Q 33.40625 -1.421875 27.6875 -1.421875 
Q 18.265625 -1.421875 13.375 4.4375 
Q 8.5 10.296875 8.5 21.578125 
z
M 31.109375 56 
z
" id="DejaVuSans-75"/>
     <path d="M 56.203125 29.59375 
L 56.203125 25.203125 
L 14.890625 25.203125 
Q 15.484375 15.921875 20.484375 11.0625 
Q 25.484375 6.203125 34.421875 6.203125 
Q 39.59375 6.203125 44.453125 7.46875 
Q 49.3125 8.734375 54.109375 11.28125 
L 54.109375 2.78125 
Q 49.265625 0.734375 44.1875 -0.34375 
Q 39.109375 -1.421875 33.890625 -1.421875 
Q 20.796875 -1.421875 13.15625 6.1875 
Q 5.515625 13.8125 5.515625 26.8125 
Q 5.515625 40.234375 12.765625 48.109375 
Q 20.015625 56 32.328125 56 
Q 43.359375 56 49.78125 48.890625 
Q 56.203125 41.796875 56.203125 29.59375 
z
M 47.21875 32.234375 
Q 47.125 39.59375 43.09375 43.984375 
Q 39.0625 48.390625 32.421875 48.390625 
Q 24.90625 48.390625 20.390625 44.140625 
Q 15.875 39.890625 15.1875 32.171875 
z
" id="DejaVuSans-65"/>
    </defs>
    <g transform="translate(59.72 601.060445)scale(0.14 -0.14)">
     <use xlink:href="#DejaVuSans-61"/>
     <use x="61.279297" xlink:href="#DejaVuSans-62"/>
     <use x="124.755859" xlink:href="#DejaVuSans-73"/>
     <use x="176.855469" xlink:href="#DejaVuSans-6f"/>
     <use x="238.037109" xlink:href="#DejaVuSans-6c"/>
     <use x="265.820312" xlink:href="#DejaVuSans-75"/>
     <use x="329.199219" xlink:href="#DejaVuSans-74"/>
     <use x="368.408203" xlink:href="#DejaVuSans-65"/>
     <use x="429.931641" xlink:href="#DejaVuSans-20"/>
     <use x="461.71875" xlink:href="#DejaVuSans-74"/>
     <use x="500.927734" xlink:href="#DejaVuSans-61"/>
     <use x="562.207031" xlink:href="#DejaVuSans-72"/>
     <use x="603.304688" xlink:href="#DejaVuSans-67"/>
     <use x="666.78125" xlink:href="#DejaVuSans-65"/>
     <use x="728.304688" xlink:href="#DejaVuSans-74"/>
     <use x="767.513672" xlink:href="#DejaVuSans-73"/>
    </g>
   </g>
   <g id="text_14">
    <!-- v0.0.0 -->
    <g style="fill:#808080;" transform="translate(239.51475 286.355965)scale(0.1 -0.1)">
     <use xlink:href="#DejaVuSans-76"/>
     <use x="59.179688" xlink:href="#DejaVuSans-30"/>
     <use x="122.802734" xlink:href="#DejaVuSans-2e"/>
     <use x="154.589844" xlink:href="#DejaVuSans-30"/>
     <use x="218.212891" xlink:href="#DejaVuSans-2e"/>
     <use x="250" xlink:href="#DejaVuSans-30"/>
    </g>
   </g>
   <g id="legend_1">
    <g id="patch_7">
     <path d="M 73.72 140.270228 
L 202.941875 140.270228 
Q 206.941875 140.270228 206.941875 136.270228 
L 206.941875 20.845228 
Q 206.941875 16.845228 202.941875 16.845228 
L 73.72 16.845228 
Q 69.72 16.845228 69.72 20.845228 
L 69.72 136.270228 
Q 69.72 140.270228 73.72 140.270228 
z
" style="fill:#ffffff;opacity:0.2;stroke:#cccccc;stroke-linejoin:miter;"/>
    </g>
    <g id="line2d_99">
     <path d="M 77.72 33.042103 
L 117.72 33.042103 
" style="fill:none;stroke:#000000;stroke-linecap:square;stroke-width:1.5;"/>
    </g>
    <g id="line2d_100"/>
    <g id="text_15">
     <!-- 1: 5/5 -->
     <defs>
      <path d="M 11.71875 12.40625 
L 22.015625 12.40625 
L 22.015625 0 
L 11.71875 0 
z
M 11.71875 51.703125 
L 22.015625 51.703125 
L 22.015625 39.3125 
L 11.71875 39.3125 
z
" id="DejaVuSans-3a"/>
     </defs>
     <g transform="translate(133.72 40.042103)scale(0.2 -0.2)">
      <use xlink:href="#DejaVuSans-31"/>
      <use x="63.623047" xlink:href="#DejaVuSans-3a"/>
      <use x="97.314453" xlink:href="#DejaVuSans-20"/>
      <use x="129.101562" xlink:href="#DejaVuSans-35"/>
      <use x="192.724609" xlink:href="#DejaVuSans-2f"/>
      <use x="226.416016" xlink:href="#DejaVuSans-35"/>
     </g>
    </g>
    <g id="line2d_101">
     <path d="M 77.72 62.398353 
L 117.72 62.398353 
" style="fill:none;stroke:#00bfbf;stroke-linecap:square;stroke-width:1.5;"/>
    </g>
    <g id="line2d_102"/>
    <g id="text_16">
     <!-- -1: 3/5 -->
     <g transform="translate(133.72 69.398353)scale(0.2 -0.2)">
      <use xlink:href="#DejaVuSans-2d"/>
      <use x="36.083984" xlink:href="#DejaVuSans-31"/>
      <use x="99.707031" xlink:href="#DejaVuSans-3a"/>
      <use x="133.398438" xlink:href="#DejaVuSans-20"/>
      <use x="165.185547" xlink:href="#DejaVuSans-33"/>
      <use x="228.808594" xlink:href="#DejaVuSans-2f"/>
      <use x="262.5" xlink:href="#DejaVuSans-35"/>
     </g>
    </g>
    <g id="line2d_103">
     <path d="M 77.72 91.754603 
L 117.72 91.754603 
" style="fill:none;stroke:#bf00bf;stroke-linecap:square;stroke-width:1.5;"/>
    </g>
    <g id="line2d_104"/>
    <g id="text_17">
     <!-- -4: 3/5 -->
     <g transform="translate(133.72 98.754603)scale(0.2 -0.2)">
      <use xlink:href="#DejaVuSans-2d"/>
      <use x="36.083984" xlink:href="#DejaVuSans-34"/>
      <use x="99.707031" xlink:href="#DejaVuSans-3a"/>
      <use x="133.398438" xlink:href="#DejaVuSans-20"/>
      <use x="165.185547" xlink:href="#DejaVuSans-33"/>
      <use x="228.808594" xlink:href="#DejaVuSans-2f"/>
      <use x="262.5" xlink:href="#DejaVuSans-35"/>
     </g>
    </g>
    <g id="line2d_105">
     <path d="M 77.72 121.110853 
L 117.72 121.110853 
" style="fill:none;stroke:#ff0000;stroke-linecap:square;stroke-width:3;"/>
    </g>
    <g id="line2d_106"/>
    <g id="text_18">
     <!-- -8: 3/5 -->
     <g transform="translate(133.72 128.110853)scale(0.2 -0.2)">
      <use xlink:href="#DejaVuSans-2d"/>
      <use x="36.083984" xlink:href="#DejaVuSans-38"/>
      <use x="99.707031" xlink:href="#DejaVuSans-3a"/>
      <use x="133.398438" xlink:href="#DejaVuSans-20"/>
      <use x="165.185547" xlink:href="#DejaVuSans-33"/>
      <use x="228.808594" xlink:href="#DejaVuSans-2f"/>
      <use x="262.5" xlink:href="#DejaVuSans-35"/>
     </g>
    </g>
   </g>
  </g>
 </g>
 <defs>
  <clipPath id="pbc59399765">
   <rect height="284.434772" width="390.952" x="59.72" y="6.845228"/>
  </clipPath>
 </defs>
</svg>
