<?xml version="1.0" encoding="utf-8" standalone="no"?>
<!DOCTYPE svg PUBLIC "-//W3C//DTD SVG 1.1//EN"
  "http://www.w3.org/Graphics/SVG/1.1/DTD/svg11.dtd">
<!-- Created with matplotlib (http://matplotlib.org/) -->
<svg height="345.6pt" version="1.1" viewBox="0 0 460.8 345.6" width="460.8pt" xmlns="http://www.w3.org/2000/svg" xmlns:xlink="http://www.w3.org/1999/xlink">
 <defs>
  <style type="text/css">
*{stroke-linecap:butt;stroke-linejoin:round;}
  </style>
 </defs>
 <g id="figure_1">
  <g id="patch_1">
   <path d="M 0 345.6 
L 460.8 345.6 
L 460.8 0 
L 0 0 
z
" style="fill:#ffffff;"/>
  </g>
  <g id="axes_1">
   <g id="patch_2">
    <path d="M 59.72 291.28 
L 450.672 291.28 
L 450.672 6.845228 
L 59.72 6.845228 
z
" style="fill:#ffffff;"/>
   </g>
   <g id="line2d_1">
    <path clip-path="url(#p1e3f8347db)" d="M 249.58587 291.28 
L 249.58587 286.586357 
L 252.442474 286.586357 
L 252.442474 281.892714 
L 253.524743 281.892714 
L 253.524743 277.199071 
L 253.524743 277.199071 
L 253.524743 272.505428 
L 254.05396 272.505428 
L 254.05396 267.811784 
L 254.228657 267.811784 
L 254.228657 263.118141 
L 254.402513 263.118141 
L 254.402513 258.424498 
L 255.259464 258.424498 
L 255.259464 253.730855 
L 255.764046 253.730855 
L 255.764046 249.037212 
L 255.930687 249.037212 
L 255.930687 244.343569 
L 255.930687 244.343569 
L 255.930687 239.649926 
L 256.096562 239.649926 
L 256.096562 234.956283 
L 256.096562 234.956283 
L 256.096562 230.26264 
L 256.589667 230.26264 
L 256.589667 225.568997 
L 256.589667 225.568997 
L 256.589667 220.875353 
L 257.714732 220.875353 
L 257.714732 216.18171 
L 258.029848 216.18171 
L 258.029848 211.488067 
L 258.186381 211.488067 
L 258.186381 206.794424 
L 258.342239 206.794424 
L 258.342239 202.100781 
L 258.497428 202.100781 
L 258.497428 197.407138 
L 258.959035 197.407138 
L 258.959035 192.713495 
L 258.959035 192.713495 
L 258.959035 188.019852 
L 259.111603 188.019852 
L 259.111603 183.326209 
L 261.753085 183.326209 
L 261.753085 178.632565 
L 263.141211 178.632565 
L 263.141211 173.938922 
L 263.412549 173.938922 
L 263.412549 169.245279 
L 279.936157 169.245279 
L 279.936157 164.551636 
L 282.914427 164.551636 
L 282.914427 159.857993 
L 286.132126 159.857993 
L 286.132126 155.16435 
L 293.257644 155.16435 
L 293.257644 150.470707 
L 293.257644 150.470707 
L 293.257644 150.470707 
L 450.672 150.470707 
" style="fill:none;stroke:#f5deb3;stroke-linecap:square;stroke-width:1.5;"/>
   </g>
   <g id="line2d_2"/>
   <g id="line2d_3">
    <path clip-path="url(#p1e3f8347db)" d="M 250.166259 291.28 
L 250.166259 286.586357 
L 256.238137 286.586357 
L 256.238137 281.892714 
L 259.184029 281.892714 
L 259.184029 277.199071 
L 263.892072 277.199071 
L 263.892072 272.505428 
L 264.459223 272.505428 
L 264.459223 267.811784 
L 264.751901 267.811784 
L 264.751901 263.118141 
L 264.776701 263.118141 
L 264.776701 258.424498 
L 264.875729 258.424498 
L 264.875729 253.730855 
L 265.69461 253.730855 
L 265.69461 249.037212 
L 266.281958 249.037212 
L 266.281958 244.343569 
L 266.448033 244.343569 
L 266.448033 239.649926 
L 266.748579 239.649926 
L 266.748579 234.956283 
L 266.935888 234.956283 
L 266.935888 230.26264 
L 266.982564 230.26264 
L 266.982564 225.568997 
L 267.011706 225.568997 
L 267.011706 220.875353 
L 267.040824 220.875353 
L 267.040824 216.18171 
L 267.133846 216.18171 
L 267.133846 211.488067 
L 268.713003 211.488067 
L 268.713003 206.794424 
L 269.270053 206.794424 
L 269.270053 202.100781 
L 269.80247 202.100781 
L 269.80247 197.407138 
L 270.252666 197.407138 
L 270.252666 192.713495 
L 271.15216 192.713495 
L 271.15216 188.019852 
L 271.560273 188.019852 
L 271.560273 183.326209 
L 278.110423 183.326209 
L 278.110423 178.632565 
L 278.781224 178.632565 
L 278.781224 173.938922 
L 279.18696 173.938922 
L 279.18696 169.245279 
L 279.813727 169.245279 
L 279.813727 164.551636 
L 279.874994 164.551636 
L 279.874994 159.857993 
L 279.899472 159.857993 
L 279.899472 155.16435 
L 281.138167 155.16435 
L 281.138167 150.470707 
L 281.260125 150.470707 
L 281.260125 145.777064 
L 282.19447 145.777064 
L 282.19447 141.083421 
L 282.756509 141.083421 
L 282.756509 136.389777 
L 282.858107 136.389777 
L 282.858107 131.696134 
L 283.531911 131.696134 
L 283.531911 127.002491 
L 284.026416 127.002491 
L 284.026416 122.308848 
L 285.13344 122.308848 
L 285.13344 117.615205 
L 287.307179 117.615205 
L 287.307179 112.921562 
L 289.064423 112.921562 
L 289.064423 108.227919 
L 295.489449 108.227919 
L 295.489449 103.534276 
L 298.070568 103.534276 
L 298.070568 98.840633 
L 298.245261 98.840633 
L 298.245261 94.14699 
L 299.221137 94.14699 
L 299.221137 89.453346 
L 299.511441 89.453346 
L 299.511441 84.759703 
L 299.940227 84.759703 
L 299.940227 80.06606 
L 299.940227 80.06606 
L 299.940227 80.06606 
L 450.672 80.06606 
" style="fill:none;stroke:#f5deb3;stroke-linecap:square;stroke-width:1.5;"/>
   </g>
   <g id="line2d_4">
    <path clip-path="url(#p1e3f8347db)" d="M 296.262588 291.28 
L 296.262588 286.586357 
L 300.514131 286.586357 
L 300.514131 281.892714 
L 303.078752 281.892714 
L 303.078752 277.199071 
L 303.526873 277.199071 
L 303.526873 272.505428 
L 306.480024 272.505428 
L 306.480024 267.811784 
L 306.497608 267.811784 
L 306.497608 263.118141 
L 308.008713 263.118141 
L 308.008713 258.424498 
L 308.658506 258.424498 
L 308.658506 253.730855 
L 308.673222 253.730855 
L 308.673222 249.037212 
L 309.062865 249.037212 
L 309.062865 244.343569 
L 309.57235 244.343569 
L 309.57235 239.649926 
L 309.925829 239.649926 
L 309.925829 234.956283 
L 310.983236 234.956283 
L 310.983236 230.26264 
L 311.357409 230.26264 
L 311.357409 225.568997 
L 311.520961 225.568997 
L 311.520961 220.875353 
L 313.584004 220.875353 
L 313.584004 216.18171 
L 314.752951 216.18171 
L 314.752951 211.488067 
L 315.245426 211.488067 
L 315.245426 206.794424 
L 315.57056 206.794424 
L 315.57056 202.100781 
L 318.356689 202.100781 
L 318.356689 197.407138 
L 325.993881 197.407138 
L 325.993881 192.713495 
L 328.61375 192.713495 
L 328.61375 188.019852 
L 331.803959 188.019852 
L 331.803959 183.326209 
L 333.934231 183.326209 
L 333.934231 178.632565 
L 335.235996 178.632565 
L 335.235996 173.938922 
L 338.040375 173.938922 
L 338.040375 169.245279 
L 340.978229 169.245279 
L 340.978229 164.551636 
L 345.065621 164.551636 
L 345.065621 159.857993 
L 345.636127 159.857993 
L 345.636127 155.16435 
L 347.239891 155.16435 
L 347.239891 150.470707 
L 347.239891 150.470707 
L 347.239891 150.470707 
L 450.672 150.470707 
" style="fill:none;stroke:#f5deb3;stroke-linecap:square;stroke-width:1.5;"/>
   </g>
   <g id="line2d_5">
    <path clip-path="url(#p1e3f8347db)" d="M 285.85651 291.28 
L 285.85651 286.586357 
L 287.913365 286.586357 
L 287.913365 281.892714 
L 289.955253 281.892714 
L 289.955253 277.199071 
L 290.115448 277.199071 
L 290.115448 272.505428 
L 291.602889 272.505428 
L 291.602889 267.811784 
L 291.996026 267.811784 
L 291.996026 263.118141 
L 293.597004 263.118141 
L 293.597004 258.424498 
L 293.988476 258.424498 
L 293.988476 253.730855 
L 294.046419 253.730855 
L 294.046419 249.037212 
L 294.090504 249.037212 
L 294.090504 244.343569 
L 294.642499 244.343569 
L 294.642499 239.649926 
L 296.135309 239.649926 
L 296.135309 234.956283 
L 296.402338 234.956283 
L 296.402338 230.26264 
L 296.864306 230.26264 
L 296.864306 225.568997 
L 296.869406 225.568997 
L 296.869406 220.875353 
L 297.115893 220.875353 
L 297.115893 216.18171 
L 297.214524 216.18171 
L 297.214524 211.488067 
L 297.606378 211.488067 
L 297.606378 206.794424 
L 297.718627 206.794424 
L 297.718627 202.100781 
L 297.927231 202.100781 
L 297.927231 197.407138 
L 297.961882 197.407138 
L 297.961882 192.713495 
L 298.033553 192.713495 
L 298.033553 188.019852 
L 298.404454 188.019852 
L 298.404454 183.326209 
L 298.506945 183.326209 
L 298.506945 178.632565 
L 298.897158 178.632565 
L 298.897158 173.938922 
L 300.031452 173.938922 
L 300.031452 169.245279 
L 300.417185 169.245279 
L 300.417185 164.551636 
L 300.507215 164.551636 
L 300.507215 159.857993 
L 300.693486 159.857993 
L 300.693486 155.16435 
L 301.074522 155.16435 
L 301.074522 150.470707 
L 302.537924 150.470707 
L 302.537924 145.777064 
L 303.275756 145.777064 
L 303.275756 141.083421 
L 303.386633 141.083421 
L 303.386633 136.389777 
L 304.103332 136.389777 
L 304.103332 131.696134 
L 304.342563 131.696134 
L 304.342563 127.002491 
L 307.023126 127.002491 
L 307.023126 122.308848 
L 307.0866 122.308848 
L 307.0866 117.615205 
L 307.546803 117.615205 
L 307.546803 112.921562 
L 325.917501 112.921562 
L 325.917501 108.227919 
L 326.773463 108.227919 
L 326.773463 103.534276 
L 336.611524 103.534276 
L 336.611524 98.840633 
L 337.392456 98.840633 
L 337.392456 94.14699 
L 341.623114 94.14699 
L 341.623114 89.453346 
L 343.70205 89.453346 
L 343.70205 84.759703 
L 348.83969 84.759703 
L 348.83969 80.06606 
L 348.83969 80.06606 
L 348.83969 80.06606 
L 450.672 80.06606 
" style="fill:none;stroke:#f5deb3;stroke-linecap:square;stroke-width:1.5;"/>
   </g>
   <g id="line2d_6"/>
   <g id="line2d_7">
    <path clip-path="url(#p1e3f8347db)" d="M 282.408163 291.28 
L 282.408163 286.586357 
L 282.809225 286.586357 
L 282.809225 281.892714 
L 284.492702 281.892714 
L 284.492702 277.199071 
L 285.009739 277.199071 
L 285.009739 272.505428 
L 285.298889 272.505428 
L 285.298889 267.811784 
L 285.547396 267.811784 
L 285.547396 263.118141 
L 286.180143 263.118141 
L 286.180143 258.424498 
L 286.483913 258.424498 
L 286.483913 253.730855 
L 286.751429 253.730855 
L 286.751429 249.037212 
L 287.69381 249.037212 
L 287.69381 244.343569 
L 287.746362 244.343569 
L 287.746362 239.649926 
L 288.525612 239.649926 
L 288.525612 234.956283 
L 289.819147 234.956283 
L 289.819147 230.26264 
L 289.961428 230.26264 
L 289.961428 225.568997 
L 291.655948 225.568997 
L 291.655948 220.875353 
L 310.339166 220.875353 
L 310.339166 216.18171 
L 312.049126 216.18171 
L 312.049126 211.488067 
L 312.511843 211.488067 
L 312.511843 206.794424 
L 313.43116 206.794424 
L 313.43116 202.100781 
L 313.539023 202.100781 
L 313.539023 197.407138 
L 314.125788 197.407138 
L 314.125788 192.713495 
L 314.311935 192.713495 
L 314.311935 188.019852 
L 315.827973 188.019852 
L 315.827973 183.326209 
L 316.174839 183.326209 
L 316.174839 178.632565 
L 316.999237 178.632565 
L 316.999237 173.938922 
L 317.076571 173.938922 
L 317.076571 169.245279 
L 317.166827 169.245279 
L 317.166827 164.551636 
L 317.217679 164.551636 
L 317.217679 159.857993 
L 318.581084 159.857993 
L 318.581084 155.16435 
L 319.269354 155.16435 
L 319.269354 150.470707 
L 319.484079 150.470707 
L 319.484079 145.777064 
L 320.605126 145.777064 
L 320.605126 141.083421 
L 320.758149 141.083421 
L 320.758149 136.389777 
L 321.236757 136.389777 
L 321.236757 131.696134 
L 321.359956 131.696134 
L 321.359956 127.002491 
L 321.773161 127.002491 
L 321.773161 122.308848 
L 322.330716 122.308848 
L 322.330716 117.615205 
L 323.091441 117.615205 
L 323.091441 112.921562 
L 323.279759 112.921562 
L 323.279759 108.227919 
L 324.220065 108.227919 
L 324.220065 103.534276 
L 324.534465 103.534276 
L 324.534465 98.840633 
L 324.767304 98.840633 
L 324.767304 94.14699 
L 325.321464 94.14699 
L 325.321464 89.453346 
L 350.434817 89.453346 
L 350.434817 84.759703 
L 374.00003 84.759703 
L 374.00003 80.06606 
L 443.779484 80.06606 
L 443.779484 75.372417 
L 460.134368 75.372417 
L 460.134368 70.678774 
L 461.8 70.678774 
" style="fill:none;stroke:#f5deb3;stroke-linecap:square;stroke-width:1.5;"/>
   </g>
   <g id="line2d_8">
    <path clip-path="url(#p1e3f8347db)" d="M 399.649307 291.28 
L 399.649307 286.586357 
L 399.713319 286.586357 
L 399.713319 281.892714 
L 399.76288 281.892714 
L 399.76288 277.199071 
L 400.185736 277.199071 
L 400.185736 272.505428 
L 400.199323 272.505428 
L 400.199323 267.811784 
L 400.228087 267.811784 
L 400.228087 263.118141 
L 400.288751 263.118141 
L 400.288751 258.424498 
L 400.290645 258.424498 
L 400.290645 253.730855 
L 400.307688 253.730855 
L 400.307688 249.037212 
L 400.394669 249.037212 
L 400.394669 244.343569 
L 400.442145 244.343569 
L 400.442145 239.649926 
L 400.870651 239.649926 
L 400.870651 234.956283 
L 400.872085 234.956283 
L 400.872085 230.26264 
L 401.044008 230.26264 
L 401.044008 225.568997 
L 402.093248 225.568997 
L 402.093248 220.875353 
L 402.093248 220.875353 
L 402.093248 220.875353 
L 450.672 220.875353 
" style="fill:none;stroke:#f5deb3;stroke-linecap:square;stroke-width:1.5;"/>
   </g>
   <g id="line2d_9">
    <path clip-path="url(#p1e3f8347db)" d="M 281.510616 291.28 
L 281.510616 286.586357 
L 283.635033 286.586357 
L 283.635033 281.892714 
L 283.763522 281.892714 
L 283.763522 277.199071 
L 285.460089 277.199071 
L 285.460089 272.505428 
L 285.710965 272.505428 
L 285.710965 267.811784 
L 285.783811 267.811784 
L 285.783811 263.118141 
L 286.03934 263.118141 
L 286.03934 258.424498 
L 286.402249 258.424498 
L 286.402249 253.730855 
L 287.050454 253.730855 
L 287.050454 249.037212 
L 287.184045 249.037212 
L 287.184045 244.343569 
L 287.492749 244.343569 
L 287.492749 239.649926 
L 288.966187 239.649926 
L 288.966187 234.956283 
L 289.332415 234.956283 
L 289.332415 230.26264 
L 290.24432 230.26264 
L 290.24432 225.568997 
L 292.289545 225.568997 
L 292.289545 220.875353 
L 293.122135 220.875353 
L 293.122135 216.18171 
L 307.055839 216.18171 
L 307.055839 211.488067 
L 307.259147 211.488067 
L 307.259147 206.794424 
L 307.741714 206.794424 
L 307.741714 202.100781 
L 307.745488 202.100781 
L 307.745488 197.407138 
L 308.301637 197.407138 
L 308.301637 192.713495 
L 308.385161 192.713495 
L 308.385161 188.019852 
L 309.374469 188.019852 
L 309.374469 183.326209 
L 309.735237 183.326209 
L 309.735237 178.632565 
L 309.808386 178.632565 
L 309.808386 173.938922 
L 309.879609 173.938922 
L 309.879609 169.245279 
L 309.920499 169.245279 
L 309.920499 164.551636 
L 310.055284 164.551636 
L 310.055284 159.857993 
L 310.284679 159.857993 
L 310.284679 155.16435 
L 310.791218 155.16435 
L 310.791218 150.470707 
L 310.905514 150.470707 
L 310.905514 145.777064 
L 311.42735 145.777064 
L 311.42735 141.083421 
L 311.852599 141.083421 
L 311.852599 136.389777 
L 312.284554 136.389777 
L 312.284554 131.696134 
L 312.314499 131.696134 
L 312.314499 127.002491 
L 312.678496 127.002491 
L 312.678496 122.308848 
L 313.167396 122.308848 
L 313.167396 117.615205 
L 314.233176 117.615205 
L 314.233176 112.921562 
L 314.712514 112.921562 
L 314.712514 108.227919 
L 315.581195 108.227919 
L 315.581195 103.534276 
L 316.076073 103.534276 
L 316.076073 98.840633 
L 317.813815 98.840633 
L 317.813815 94.14699 
L 318.541916 94.14699 
L 318.541916 89.453346 
L 318.575491 89.453346 
L 318.575491 84.759703 
L 324.879053 84.759703 
L 324.879053 80.06606 
L 326.702064 80.06606 
L 326.702064 75.372417 
L 327.985537 75.372417 
L 327.985537 70.678774 
L 328.195086 70.678774 
L 328.195086 65.985131 
L 328.469417 65.985131 
L 328.469417 61.291488 
L 328.683587 61.291488 
L 328.683587 56.597845 
L 330.036414 56.597845 
L 330.036414 51.904202 
L 330.577119 51.904202 
L 330.577119 47.210558 
L 331.564634 47.210558 
L 331.564634 42.516915 
L 332.324769 42.516915 
L 332.324769 37.823272 
L 333.488133 37.823272 
L 333.488133 33.129629 
L 334.543368 33.129629 
L 334.543368 28.435986 
L 334.783462 28.435986 
L 334.783462 23.742343 
L 335.474174 23.742343 
L 335.474174 19.0487 
L 335.575647 19.0487 
L 335.575647 14.355057 
L 341.955571 14.355057 
L 341.955571 9.661414 
L 341.955571 9.661414 
L 341.955571 9.661414 
L 450.672 9.661414 
" style="fill:none;stroke:#f5deb3;stroke-linecap:square;stroke-width:1.5;"/>
   </g>
   <g id="line2d_10">
    <path clip-path="url(#p1e3f8347db)" style="fill:none;stroke:#f5deb3;stroke-linecap:square;stroke-width:1.5;"/>
   </g>
   <g id="line2d_11">
    <path clip-path="url(#p1e3f8347db)" d="M 291.389871 291.28 
L 291.389871 286.586357 
L 294.271788 286.586357 
L 294.271788 281.892714 
L 298.348204 281.892714 
L 298.348204 277.199071 
L 304.448152 277.199071 
L 304.448152 272.505428 
L 305.326352 272.505428 
L 305.326352 267.811784 
L 305.783485 267.811784 
L 305.783485 263.118141 
L 308.867654 263.118141 
L 308.867654 258.424498 
L 308.915186 258.424498 
L 308.915186 253.730855 
L 309.424941 253.730855 
L 309.424941 249.037212 
L 319.482715 249.037212 
L 319.482715 244.343569 
L 319.994539 244.343569 
L 319.994539 239.649926 
L 322.670656 239.649926 
L 322.670656 234.956283 
L 324.322784 234.956283 
L 324.322784 230.26264 
L 336.645462 230.26264 
L 336.645462 225.568997 
L 414.553566 225.568997 
L 414.553566 220.875353 
L 436.151176 220.875353 
L 436.151176 216.18171 
L 437.174683 216.18171 
L 437.174683 211.488067 
L 439.282274 211.488067 
L 439.282274 206.794424 
L 439.421313 206.794424 
L 439.421313 202.100781 
L 439.458687 202.100781 
L 439.458687 197.407138 
L 439.662333 197.407138 
L 439.662333 192.713495 
L 439.791278 192.713495 
L 439.791278 188.019852 
L 439.823198 188.019852 
L 439.823198 183.326209 
L 439.853433 183.326209 
L 439.853433 178.632565 
L 439.945883 178.632565 
L 439.945883 173.938922 
L 439.965472 173.938922 
L 439.965472 169.245279 
L 439.973441 169.245279 
L 439.973441 164.551636 
L 439.983982 164.551636 
L 439.983982 159.857993 
L 440.011219 159.857993 
L 440.011219 155.16435 
L 440.014083 155.16435 
L 440.014083 150.470707 
L 440.036787 150.470707 
L 440.036787 145.777064 
L 440.056376 145.777064 
L 440.056376 141.083421 
L 440.076099 141.083421 
L 440.076099 136.389777 
L 440.078763 136.389777 
L 440.078763 131.696134 
L 440.102734 131.696134 
L 440.102734 127.002491 
L 440.170301 127.002491 
L 440.170301 122.308848 
L 440.316174 122.308848 
L 440.316174 117.615205 
L 440.4182 117.615205 
L 440.4182 112.921562 
L 440.628502 112.921562 
L 440.628502 108.227919 
L 461.8 108.227919 
" style="fill:none;stroke:#f5deb3;stroke-linecap:square;stroke-width:1.5;"/>
   </g>
   <g id="line2d_12">
    <path clip-path="url(#p1e3f8347db)" d="M 252.390119 291.28 
L 252.390119 286.586357 
L 256.868449 286.586357 
L 256.868449 281.892714 
L 257.030084 281.892714 
L 257.030084 277.199071 
L 258.453157 277.199071 
L 258.453157 272.505428 
L 258.761925 272.505428 
L 258.761925 267.811784 
L 259.371658 267.811784 
L 259.371658 263.118141 
L 259.8223 263.118141 
L 259.8223 258.424498 
L 259.8223 258.424498 
L 259.8223 253.730855 
L 260.119635 253.730855 
L 260.119635 249.037212 
L 260.119635 249.037212 
L 260.119635 244.343569 
L 260.26739 244.343569 
L 260.26739 239.649926 
L 260.414543 239.649926 
L 260.414543 234.956283 
L 260.561099 234.956283 
L 260.561099 230.26264 
L 260.707064 230.26264 
L 260.707064 225.568997 
L 260.707064 225.568997 
L 260.707064 220.875353 
L 261.141452 220.875353 
L 261.141452 216.18171 
L 261.141452 216.18171 
L 261.141452 211.488067 
L 261.141452 211.488067 
L 261.141452 206.794424 
L 261.57068 206.794424 
L 261.57068 202.100781 
L 261.57068 202.100781 
L 261.57068 197.407138 
L 261.57068 197.407138 
L 261.57068 192.713495 
L 261.994869 192.713495 
L 261.994869 188.019852 
L 262.135166 188.019852 
L 262.135166 183.326209 
L 264.571593 183.326209 
L 264.571593 178.632565 
L 268.768541 178.632565 
L 268.768541 173.938922 
L 284.186136 173.938922 
L 284.186136 169.245279 
L 286.754803 169.245279 
L 286.754803 164.551636 
L 287.107291 164.551636 
L 287.107291 159.857993 
L 287.525787 159.857993 
L 287.525787 155.16435 
L 296.451381 155.16435 
L 296.451381 150.470707 
L 296.451381 150.470707 
L 296.451381 150.470707 
L 450.672 150.470707 
" style="fill:none;stroke:#f5deb3;stroke-linecap:square;stroke-width:1.5;"/>
   </g>
   <g id="line2d_13"/>
   <g id="line2d_14"/>
   <g id="line2d_15"/>
   <g id="line2d_16">
    <path clip-path="url(#p1e3f8347db)" d="M 384.23042 291.28 
L 384.23042 286.586357 
L 385.030696 286.586357 
L 385.030696 281.892714 
L 390.470314 281.892714 
L 390.470314 277.199071 
L 408.894008 277.199071 
L 408.894008 272.505428 
L 408.977048 272.505428 
L 408.977048 267.811784 
L 409.309809 267.811784 
L 409.309809 263.118141 
L 422.292541 263.118141 
L 422.292541 258.424498 
L 425.464033 258.424498 
L 425.464033 253.730855 
L 426.830676 253.730855 
L 426.830676 249.037212 
L 430.939667 249.037212 
L 430.939667 244.343569 
L 433.135374 244.343569 
L 433.135374 239.649926 
L 434.975577 239.649926 
L 434.975577 234.956283 
L 443.826285 234.956283 
L 443.826285 230.26264 
L 451.278008 230.26264 
L 451.278008 225.568997 
L 451.564114 225.568997 
L 451.564114 220.875353 
L 461.8 220.875353 
" style="fill:none;stroke:#f5deb3;stroke-linecap:square;stroke-width:1.5;"/>
   </g>
   <g id="line2d_17">
    <path clip-path="url(#p1e3f8347db)" d="M 386.287271 291.28 
L 386.287271 286.586357 
L 388.64792 286.586357 
L 388.64792 281.892714 
L 390.466681 281.892714 
L 390.466681 277.199071 
L 390.671849 277.199071 
L 390.671849 272.505428 
L 394.333388 272.505428 
L 394.333388 267.811784 
L 395.161415 267.811784 
L 395.161415 263.118141 
L 395.215444 263.118141 
L 395.215444 258.424498 
L 399.737738 258.424498 
L 399.737738 253.730855 
L 400.387841 253.730855 
L 400.387841 249.037212 
L 400.460276 249.037212 
L 400.460276 244.343569 
L 402.138129 244.343569 
L 402.138129 239.649926 
L 404.064776 239.649926 
L 404.064776 234.956283 
L 404.379576 234.956283 
L 404.379576 230.26264 
L 411.179542 230.26264 
L 411.179542 225.568997 
L 416.259661 225.568997 
L 416.259661 220.875353 
L 438.334983 220.875353 
L 438.334983 216.18171 
L 444.166096 216.18171 
L 444.166096 211.488067 
L 445.913157 211.488067 
L 445.913157 206.794424 
L 446.966715 206.794424 
L 446.966715 202.100781 
L 447.911765 202.100781 
L 447.911765 197.407138 
L 448.234035 197.407138 
L 448.234035 192.713495 
L 449.166288 192.713495 
L 449.166288 188.019852 
L 449.491649 188.019852 
L 449.491649 183.326209 
L 450.403002 183.326209 
L 450.403002 178.632565 
L 450.602087 178.632565 
L 450.602087 173.938922 
L 450.602087 173.938922 
L 450.602087 173.938922 
L 450.672 173.938922 
" style="fill:none;stroke:#f5deb3;stroke-linecap:square;stroke-width:1.5;"/>
   </g>
   <g id="line2d_18">
    <path clip-path="url(#p1e3f8347db)" d="M 230.278385 291.28 
L 230.278385 286.586357 
L 238.482671 286.586357 
L 238.482671 281.892714 
L 238.623541 281.892714 
L 238.623541 277.199071 
L 239.169004 277.199071 
L 239.169004 272.505428 
L 239.369883 272.505428 
L 239.369883 267.811784 
L 241.779244 267.811784 
L 241.779244 263.118141 
L 241.861139 263.118141 
L 241.861139 258.424498 
L 241.942849 258.424498 
L 241.942849 253.730855 
L 241.989457 253.730855 
L 241.989457 249.037212 
L 242.371699 249.037212 
L 242.371699 244.343569 
L 242.658607 244.343569 
L 242.658607 239.649926 
L 242.772736 239.649926 
L 242.772736 234.956283 
L 242.806904 234.956283 
L 242.806904 230.26264 
L 242.977263 230.26264 
L 242.977263 225.568997 
L 243.259422 225.568997 
L 243.259422 220.875353 
L 243.39408 220.875353 
L 243.39408 216.18171 
L 244.388327 216.18171 
L 244.388327 211.488067 
L 244.692151 211.488067 
L 244.692151 206.794424 
L 244.713755 206.794424 
L 244.713755 202.100781 
L 244.767709 202.100781 
L 244.767709 197.407138 
L 245.5464 197.407138 
L 245.5464 192.713495 
L 247.517785 192.713495 
L 247.517785 188.019852 
L 247.766739 188.019852 
L 247.766739 183.326209 
L 252.2326 183.326209 
L 252.2326 178.632565 
L 264.974487 178.632565 
L 264.974487 173.938922 
L 269.000873 173.938922 
L 269.000873 169.245279 
L 270.560274 169.245279 
L 270.560274 164.551636 
L 271.457388 164.551636 
L 271.457388 159.857993 
L 272.950954 159.857993 
L 272.950954 155.16435 
L 273.280624 155.16435 
L 273.280624 150.470707 
L 273.916641 150.470707 
L 273.916641 145.777064 
L 274.299613 145.777064 
L 274.299613 141.083421 
L 275.183935 141.083421 
L 275.183935 136.389777 
L 276.796982 136.389777 
L 276.796982 131.696134 
L 280.777764 131.696134 
L 280.777764 127.002491 
L 282.400553 127.002491 
L 282.400553 122.308848 
L 284.803811 122.308848 
L 284.803811 117.615205 
L 285.200415 117.615205 
L 285.200415 112.921562 
L 288.199724 112.921562 
L 288.199724 108.227919 
L 288.496692 108.227919 
L 288.496692 103.534276 
L 290.106225 103.534276 
L 290.106225 98.840633 
L 295.853181 98.840633 
L 295.853181 94.14699 
L 306.341001 94.14699 
L 306.341001 89.453346 
L 308.150807 89.453346 
L 308.150807 84.759703 
L 314.346535 84.759703 
L 314.346535 80.06606 
L 314.346535 80.06606 
L 314.346535 80.06606 
L 450.672 80.06606 
" style="fill:none;stroke:#f5deb3;stroke-linecap:square;stroke-width:1.5;"/>
   </g>
   <g id="line2d_19"/>
   <g id="line2d_20">
    <path clip-path="url(#p1e3f8347db)" d="M 303.492926 291.28 
L 303.492926 286.586357 
L 307.034675 286.586357 
L 307.034675 281.892714 
L 310.895138 281.892714 
L 310.895138 277.199071 
L 314.617466 277.199071 
L 314.617466 272.505428 
L 316.380479 272.505428 
L 316.380479 267.811784 
L 317.728025 267.811784 
L 317.728025 263.118141 
L 319.445877 263.118141 
L 319.445877 258.424498 
L 320.213029 258.424498 
L 320.213029 253.730855 
L 321.431091 253.730855 
L 321.431091 249.037212 
L 321.76676 249.037212 
L 321.76676 244.343569 
L 321.963365 244.343569 
L 321.963365 239.649926 
L 324.826162 239.649926 
L 324.826162 234.956283 
L 324.874354 234.956283 
L 324.874354 230.26264 
L 326.311348 230.26264 
L 326.311348 225.568997 
L 326.812449 225.568997 
L 326.812449 220.875353 
L 327.720523 220.875353 
L 327.720523 216.18171 
L 329.523661 216.18171 
L 329.523661 211.488067 
L 329.654592 211.488067 
L 329.654592 206.794424 
L 331.627051 206.794424 
L 331.627051 202.100781 
L 334.351403 202.100781 
L 334.351403 197.407138 
L 339.19663 197.407138 
L 339.19663 192.713495 
L 341.329311 192.713495 
L 341.329311 188.019852 
L 351.517396 188.019852 
L 351.517396 183.326209 
L 360.315475 183.326209 
L 360.315475 178.632565 
L 363.36471 178.632565 
L 363.36471 173.938922 
L 363.412853 173.938922 
L 363.412853 169.245279 
L 364.874728 169.245279 
L 364.874728 164.551636 
L 368.130558 164.551636 
L 368.130558 159.857993 
L 395.24444 159.857993 
L 395.24444 155.16435 
L 395.961858 155.16435 
L 395.961858 150.470707 
L 395.961858 150.470707 
L 395.961858 150.470707 
L 450.672 150.470707 
" style="fill:none;stroke:#f5deb3;stroke-linecap:square;stroke-width:1.5;"/>
   </g>
   <g id="line2d_21"/>
   <g id="line2d_22">
    <path clip-path="url(#p1e3f8347db)" d="M 307.514532 291.28 
L 307.514532 286.586357 
L 307.732276 286.586357 
L 307.732276 281.892714 
L 308.917013 281.892714 
L 308.917013 277.199071 
L 309.71916 277.199071 
L 309.71916 272.505428 
L 310.072982 272.505428 
L 310.072982 267.811784 
L 310.150748 267.811784 
L 310.150748 263.118141 
L 310.552807 263.118141 
L 310.552807 258.424498 
L 310.902055 258.424498 
L 310.902055 253.730855 
L 311.398366 253.730855 
L 311.398366 249.037212 
L 311.758156 249.037212 
L 311.758156 244.343569 
L 312.553166 244.343569 
L 312.553166 239.649926 
L 313.36338 239.649926 
L 313.36338 234.956283 
L 313.448891 234.956283 
L 313.448891 230.26264 
L 314.56438 230.26264 
L 314.56438 225.568997 
L 314.829035 225.568997 
L 314.829035 220.875353 
L 315.337309 220.875353 
L 315.337309 216.18171 
L 315.3633 216.18171 
L 315.3633 211.488067 
L 315.590309 211.488067 
L 315.590309 206.794424 
L 316.335874 206.794424 
L 316.335874 202.100781 
L 317.110079 202.100781 
L 317.110079 197.407138 
L 317.465102 197.407138 
L 317.465102 192.713495 
L 317.848074 192.713495 
L 317.848074 188.019852 
L 318.462048 188.019852 
L 318.462048 183.326209 
L 319.919169 183.326209 
L 319.919169 178.632565 
L 320.927563 178.632565 
L 320.927563 173.938922 
L 321.753957 173.938922 
L 321.753957 169.245279 
L 321.757798 169.245279 
L 321.757798 164.551636 
L 324.605539 164.551636 
L 324.605539 159.857993 
L 325.486992 159.857993 
L 325.486992 155.16435 
L 326.56669 155.16435 
L 326.56669 150.470707 
L 339.726924 150.470707 
L 339.726924 145.777064 
L 342.390765 145.777064 
L 342.390765 141.083421 
L 343.169359 141.083421 
L 343.169359 136.389777 
L 343.672739 136.389777 
L 343.672739 131.696134 
L 345.145473 131.696134 
L 345.145473 127.002491 
L 345.864854 127.002491 
L 345.864854 122.308848 
L 346.41068 122.308848 
L 346.41068 117.615205 
L 358.240499 117.615205 
L 358.240499 112.921562 
L 360.341454 112.921562 
L 360.341454 108.227919 
L 365.152817 108.227919 
L 365.152817 103.534276 
L 369.099906 103.534276 
L 369.099906 98.840633 
L 376.594396 98.840633 
L 376.594396 94.14699 
L 382.152543 94.14699 
L 382.152543 89.453346 
L 389.124563 89.453346 
L 389.124563 84.759703 
L 389.124563 84.759703 
L 389.124563 84.759703 
L 450.672 84.759703 
" style="fill:none;stroke:#f5deb3;stroke-linecap:square;stroke-width:1.5;"/>
   </g>
   <g id="line2d_23">
    <path clip-path="url(#p1e3f8347db)" d="M 432.270101 291.28 
L 432.270101 286.586357 
L 441.004271 286.586357 
L 441.004271 281.892714 
L 453.088606 281.892714 
L 453.088606 277.199071 
L 457.096566 277.199071 
L 457.096566 272.505428 
L 461.8 272.505428 
" style="fill:none;stroke:#f5deb3;stroke-linecap:square;stroke-width:1.5;"/>
   </g>
   <g id="line2d_24">
    <path clip-path="url(#p1e3f8347db)" d="M 290.945013 291.28 
L 290.945013 286.586357 
L 299.0295 286.586357 
L 299.0295 281.892714 
L 300.454148 281.892714 
L 300.454148 277.199071 
L 302.169887 277.199071 
L 302.169887 272.505428 
L 302.2029 272.505428 
L 302.2029 267.811784 
L 302.882826 267.811784 
L 302.882826 263.118141 
L 303.567145 263.118141 
L 303.567145 258.424498 
L 306.729313 258.424498 
L 306.729313 253.730855 
L 307.501236 253.730855 
L 307.501236 249.037212 
L 307.775668 249.037212 
L 307.775668 244.343569 
L 308.711825 244.343569 
L 308.711825 239.649926 
L 309.104689 239.649926 
L 309.104689 234.956283 
L 309.119225 234.956283 
L 309.119225 230.26264 
L 310.791218 230.26264 
L 310.791218 225.568997 
L 310.945259 225.568997 
L 310.945259 220.875353 
L 362.528021 220.875353 
L 362.528021 216.18171 
L 362.732528 216.18171 
L 362.732528 211.488067 
L 363.12262 211.488067 
L 363.12262 206.794424 
L 364.398306 206.794424 
L 364.398306 202.100781 
L 364.42151 202.100781 
L 364.42151 197.407138 
L 364.754555 197.407138 
L 364.754555 192.713495 
L 365.20364 192.713495 
L 365.20364 188.019852 
L 365.381723 188.019852 
L 365.381723 183.326209 
L 365.503647 183.326209 
L 365.503647 178.632565 
L 365.56198 178.632565 
L 365.56198 173.938922 
L 366.119181 173.938922 
L 366.119181 169.245279 
L 366.392731 169.245279 
L 366.392731 164.551636 
L 366.397571 164.551636 
L 366.397571 159.857993 
L 366.483828 159.857993 
L 366.483828 155.16435 
L 366.583584 155.16435 
L 366.583584 150.470707 
L 366.589509 150.470707 
L 366.589509 145.777064 
L 366.763854 145.777064 
L 366.763854 141.083421 
L 366.817613 141.083421 
L 366.817613 136.389777 
L 367.025269 136.389777 
L 367.025269 131.696134 
L 367.162925 131.696134 
L 367.162925 127.002491 
L 367.194617 127.002491 
L 367.194617 122.308848 
L 367.285896 122.308848 
L 367.285896 117.615205 
L 367.682865 117.615205 
L 367.682865 112.921562 
L 367.88062 112.921562 
L 367.88062 108.227919 
L 368.617958 108.227919 
L 368.617958 103.534276 
L 369.111649 103.534276 
L 369.111649 98.840633 
L 369.466942 98.840633 
L 369.466942 94.14699 
L 369.94452 94.14699 
L 369.94452 89.453346 
L 371.633131 89.453346 
L 371.633131 84.759703 
L 372.857755 84.759703 
L 372.857755 80.06606 
L 377.68682 80.06606 
L 377.68682 75.372417 
L 379.855371 75.372417 
L 379.855371 70.678774 
L 380.507351 70.678774 
L 380.507351 65.985131 
L 380.725845 65.985131 
L 380.725845 61.291488 
L 381.134904 61.291488 
L 381.134904 56.597845 
L 381.283879 56.597845 
L 381.283879 51.904202 
L 382.253493 51.904202 
L 382.253493 47.210558 
L 383.25781 47.210558 
L 383.25781 42.516915 
L 383.313093 42.516915 
L 383.313093 37.823272 
L 383.720087 37.823272 
L 383.720087 33.129629 
L 383.984163 33.129629 
L 383.984163 28.435986 
L 384.559552 28.435986 
L 384.559552 23.742343 
L 385.069571 23.742343 
L 385.069571 19.0487 
L 385.50872 19.0487 
L 385.50872 14.355057 
L 386.309375 14.355057 
L 386.309375 9.661414 
L 386.309375 9.661414 
L 386.309375 9.661414 
L 450.672 9.661414 
" style="fill:none;stroke:#f5deb3;stroke-linecap:square;stroke-width:1.5;"/>
   </g>
   <g id="line2d_25">
    <path clip-path="url(#p1e3f8347db)" d="M 405.239813 291.28 
L 405.239813 286.586357 
L 405.747847 286.586357 
L 405.747847 281.892714 
L 405.910213 281.892714 
L 405.910213 277.199071 
L 405.911709 277.199071 
L 405.911709 272.505428 
L 406.691265 272.505428 
L 406.691265 267.811784 
L 406.95841 267.811784 
L 406.95841 263.118141 
L 407.102408 263.118141 
L 407.102408 258.424498 
L 407.368457 258.424498 
L 407.368457 253.730855 
L 407.808709 253.730855 
L 407.808709 249.037212 
L 408.009782 249.037212 
L 408.009782 244.343569 
L 408.181528 244.343569 
L 408.181528 239.649926 
L 408.52665 239.649926 
L 408.52665 234.956283 
L 408.781531 234.956283 
L 408.781531 230.26264 
L 409.274262 230.26264 
L 409.274262 225.568997 
L 410.396103 225.568997 
L 410.396103 220.875353 
L 410.396103 220.875353 
L 410.396103 220.875353 
L 450.672 220.875353 
" style="fill:none;stroke:#f5deb3;stroke-linecap:square;stroke-width:1.5;"/>
   </g>
   <g id="line2d_26">
    <path clip-path="url(#p1e3f8347db)" d="M 321.019162 291.28 
L 321.019162 286.586357 
L 324.565281 286.586357 
L 324.565281 281.892714 
L 325.772275 281.892714 
L 325.772275 277.199071 
L 326.760086 277.199071 
L 326.760086 272.505428 
L 327.117315 272.505428 
L 327.117315 267.811784 
L 327.911097 267.811784 
L 327.911097 263.118141 
L 328.091 263.118141 
L 328.091 258.424498 
L 329.26349 258.424498 
L 329.26349 253.730855 
L 330.955323 253.730855 
L 330.955323 249.037212 
L 331.287338 249.037212 
L 331.287338 244.343569 
L 332.82687 244.343569 
L 332.82687 239.649926 
L 333.961645 239.649926 
L 333.961645 234.956283 
L 335.496943 234.956283 
L 335.496943 230.26264 
L 335.687288 230.26264 
L 335.687288 225.568997 
L 337.240117 225.568997 
L 337.240117 220.875353 
L 337.25513 220.875353 
L 337.25513 216.18171 
L 338.251899 216.18171 
L 338.251899 211.488067 
L 338.94525 211.488067 
L 338.94525 206.794424 
L 339.810929 206.794424 
L 339.810929 202.100781 
L 342.872211 202.100781 
L 342.872211 197.407138 
L 343.560858 197.407138 
L 343.560858 192.713495 
L 344.072663 192.713495 
L 344.072663 188.019852 
L 344.115448 188.019852 
L 344.115448 183.326209 
L 344.825677 183.326209 
L 344.825677 178.632565 
L 344.896613 178.632565 
L 344.896613 173.938922 
L 345.556028 173.938922 
L 345.556028 169.245279 
L 345.595107 169.245279 
L 345.595107 164.551636 
L 346.064707 164.551636 
L 346.064707 159.857993 
L 346.26801 159.857993 
L 346.26801 155.16435 
L 346.804625 155.16435 
L 346.804625 150.470707 
L 347.902994 150.470707 
L 347.902994 145.777064 
L 347.932171 145.777064 
L 347.932171 141.083421 
L 347.990455 141.083421 
L 347.990455 136.389777 
L 348.022037 136.389777 
L 348.022037 131.696134 
L 348.143773 131.696134 
L 348.143773 127.002491 
L 348.746377 127.002491 
L 348.746377 122.308848 
L 349.120592 122.308848 
L 349.120592 117.615205 
L 349.87406 117.615205 
L 349.87406 112.921562 
L 353.13171 112.921562 
L 353.13171 108.227919 
L 385.480633 108.227919 
L 385.480633 103.534276 
L 395.345489 103.534276 
L 395.345489 98.840633 
L 395.973682 98.840633 
L 395.973682 94.14699 
L 396.455142 94.14699 
L 396.455142 89.453346 
L 399.698215 89.453346 
L 399.698215 84.759703 
L 403.8737 84.759703 
L 403.8737 80.06606 
L 427.190457 80.06606 
L 427.190457 75.372417 
L 433.332148 75.372417 
L 433.332148 70.678774 
L 449.073764 70.678774 
L 449.073764 65.985131 
L 461.8 65.985131 
" style="fill:none;stroke:#f5deb3;stroke-linecap:square;stroke-width:1.5;"/>
   </g>
   <g id="line2d_27"/>
   <g id="line2d_28">
    <path clip-path="url(#p1e3f8347db)" d="M 269.586104 291.28 
L 269.586104 286.586357 
L 271.503722 286.586357 
L 271.503722 281.892714 
L 272.393056 281.892714 
L 272.393056 277.199071 
L 272.847002 277.199071 
L 272.847002 272.505428 
L 274.786787 272.505428 
L 274.786787 267.811784 
L 274.974224 267.811784 
L 274.974224 263.118141 
L 275.323069 263.118141 
L 275.323069 258.424498 
L 275.654821 258.424498 
L 275.654821 253.730855 
L 322.063807 253.730855 
L 322.063807 249.037212 
L 322.118361 249.037212 
L 322.118361 244.343569 
L 322.290364 244.343569 
L 322.290364 239.649926 
L 322.401225 239.649926 
L 322.401225 234.956283 
L 322.745489 234.956283 
L 322.745489 230.26264 
L 332.265463 230.26264 
L 332.265463 225.568997 
L 333.802355 225.568997 
L 333.802355 220.875353 
L 334.056519 220.875353 
L 334.056519 216.18171 
L 334.132966 216.18171 
L 334.132966 211.488067 
L 334.24824 211.488067 
L 334.24824 206.794424 
L 334.637625 206.794424 
L 334.637625 202.100781 
L 335.197177 202.100781 
L 335.197177 197.407138 
L 335.660281 197.407138 
L 335.660281 192.713495 
L 335.857571 192.713495 
L 335.857571 188.019852 
L 336.362805 188.019852 
L 336.362805 183.326209 
L 336.776672 183.326209 
L 336.776672 178.632565 
L 336.851797 178.632565 
L 336.851797 173.938922 
L 336.883826 173.938922 
L 336.883826 169.245279 
L 337.432308 169.245279 
L 337.432308 164.551636 
L 337.697693 164.551636 
L 337.697693 159.857993 
L 337.733918 159.857993 
L 337.733918 155.16435 
L 337.88911 155.16435 
L 337.88911 150.470707 
L 338.604656 150.470707 
L 338.604656 145.777064 
L 338.863992 145.777064 
L 338.863992 141.083421 
L 338.971501 141.083421 
L 338.971501 136.389777 
L 339.033472 136.389777 
L 339.033472 131.696134 
L 339.058072 131.696134 
L 339.058072 127.002491 
L 339.809375 127.002491 
L 339.809375 122.308848 
L 340.139621 122.308848 
L 340.139621 117.615205 
L 340.192705 117.615205 
L 340.192705 112.921562 
L 340.248013 112.921562 
L 340.248013 108.227919 
L 340.337708 108.227919 
L 340.337708 103.534276 
L 340.437109 103.534276 
L 340.437109 98.840633 
L 340.848614 98.840633 
L 340.848614 94.14699 
L 342.274838 94.14699 
L 342.274838 89.453346 
L 343.584662 89.453346 
L 343.584662 84.759703 
L 343.725761 84.759703 
L 343.725761 80.06606 
L 345.474422 80.06606 
L 345.474422 75.372417 
L 345.548074 75.372417 
L 345.548074 70.678774 
L 345.788553 70.678774 
L 345.788553 65.985131 
L 346.349142 65.985131 
L 346.349142 61.291488 
L 347.340325 61.291488 
L 347.340325 56.597845 
L 347.875659 56.597845 
L 347.875659 51.904202 
L 348.802151 51.904202 
L 348.802151 47.210558 
L 349.115187 47.210558 
L 349.115187 42.516915 
L 350.005547 42.516915 
L 350.005547 37.823272 
L 351.098028 37.823272 
L 351.098028 33.129629 
L 353.681531 33.129629 
L 353.681531 28.435986 
L 354.939632 28.435986 
L 354.939632 23.742343 
L 355.315911 23.742343 
L 355.315911 19.0487 
L 373.077485 19.0487 
L 373.077485 14.355057 
L 374.400455 14.355057 
L 374.400455 9.661414 
L 374.400455 9.661414 
L 374.400455 9.661414 
L 450.672 9.661414 
" style="fill:none;stroke:#f5deb3;stroke-linecap:square;stroke-width:1.5;"/>
   </g>
   <g id="line2d_29">
    <path clip-path="url(#p1e3f8347db)" d="M 236.041034 291.28 
L 236.041034 286.586357 
L 236.041034 286.586357 
L 236.041034 281.892714 
L 236.041034 281.892714 
L 236.041034 277.199071 
L 246.494174 277.199071 
L 246.494174 272.505428 
L 246.494174 272.505428 
L 246.494174 267.811784 
L 246.494174 267.811784 
L 246.494174 263.118141 
L 263.451146 263.118141 
L 263.451146 258.424498 
L 263.451146 258.424498 
L 263.451146 253.730855 
L 263.451146 253.730855 
L 263.451146 249.037212 
L 264.063154 249.037212 
L 264.063154 244.343569 
L 264.063154 244.343569 
L 264.063154 239.649926 
L 264.063154 239.649926 
L 264.063154 234.956283 
L 275.011595 234.956283 
L 275.011595 230.26264 
L 275.011595 230.26264 
L 275.011595 225.568997 
L 275.011595 225.568997 
L 275.011595 220.875353 
L 276.4442 220.875353 
L 276.4442 216.18171 
L 276.4442 216.18171 
L 276.4442 211.488067 
L 276.4442 211.488067 
L 276.4442 206.794424 
L 276.748067 206.794424 
L 276.748067 202.100781 
L 276.748067 202.100781 
L 276.748067 197.407138 
L 276.748067 197.407138 
L 276.748067 192.713495 
L 277.761641 192.713495 
L 277.761641 188.019852 
L 277.761641 188.019852 
L 277.761641 183.326209 
L 277.761641 183.326209 
L 277.761641 178.632565 
L 277.813525 178.632565 
L 277.813525 173.938922 
L 277.813525 173.938922 
L 277.813525 169.245279 
L 277.813525 169.245279 
L 277.813525 164.551636 
L 296.469433 164.551636 
L 296.469433 159.857993 
L 296.469433 159.857993 
L 296.469433 155.16435 
L 296.469433 155.16435 
L 296.469433 150.470707 
L 296.469433 150.470707 
L 296.469433 150.470707 
L 450.672 150.470707 
" style="fill:none;stroke:#f5deb3;stroke-linecap:square;stroke-width:1.5;"/>
   </g>
   <g id="line2d_30"/>
   <g id="matplotlib.axis_1">
    <g id="xtick_1">
     <g id="line2d_31">
      <path clip-path="url(#p1e3f8347db)" d="M 59.72 291.28 
L 59.72 6.845228 
" style="fill:none;stroke:#b0b0b0;stroke-linecap:square;stroke-width:0.8;"/>
     </g>
     <g id="line2d_32">
      <defs>
       <path d="M 0 0 
L 0 3.5 
" id="mcf70c2037e" style="stroke:#000000;stroke-width:0.8;"/>
      </defs>
      <g>
       <use style="stroke:#000000;stroke-width:0.8;" x="59.72" xlink:href="#mcf70c2037e" y="291.28"/>
      </g>
     </g>
     <g id="text_1">
      <!-- 0 -->
      <defs>
       <path d="M 31.78125 66.40625 
Q 24.171875 66.40625 20.328125 58.90625 
Q 16.5 51.421875 16.5 36.375 
Q 16.5 21.390625 20.328125 13.890625 
Q 24.171875 6.390625 31.78125 6.390625 
Q 39.453125 6.390625 43.28125 13.890625 
Q 47.125 21.390625 47.125 36.375 
Q 47.125 51.421875 43.28125 58.90625 
Q 39.453125 66.40625 31.78125 66.40625 
z
M 31.78125 74.21875 
Q 44.046875 74.21875 50.515625 64.515625 
Q 56.984375 54.828125 56.984375 36.375 
Q 56.984375 17.96875 50.515625 8.265625 
Q 44.046875 -1.421875 31.78125 -1.421875 
Q 19.53125 -1.421875 13.0625 8.265625 
Q 6.59375 17.96875 6.59375 36.375 
Q 6.59375 54.828125 13.0625 64.515625 
Q 19.53125 74.21875 31.78125 74.21875 
z
" id="DejaVuSans-30"/>
      </defs>
      <g transform="translate(53.3575 313.476875)scale(0.2 -0.2)">
       <use xlink:href="#DejaVuSans-30"/>
      </g>
     </g>
    </g>
    <g id="xtick_2">
     <g id="line2d_33">
      <path clip-path="url(#p1e3f8347db)" d="M 142.919502 291.28 
L 142.919502 6.845228 
" style="fill:none;stroke:#b0b0b0;stroke-linecap:square;stroke-width:0.8;"/>
     </g>
     <g id="line2d_34">
      <g>
       <use style="stroke:#000000;stroke-width:0.8;" x="142.919502" xlink:href="#mcf70c2037e" y="291.28"/>
      </g>
     </g>
     <g id="text_2">
      <!-- 1 -->
      <defs>
       <path d="M 12.40625 8.296875 
L 28.515625 8.296875 
L 28.515625 63.921875 
L 10.984375 60.40625 
L 10.984375 69.390625 
L 28.421875 72.90625 
L 38.28125 72.90625 
L 38.28125 8.296875 
L 54.390625 8.296875 
L 54.390625 0 
L 12.40625 0 
z
" id="DejaVuSans-31"/>
      </defs>
      <g transform="translate(136.557002 313.476875)scale(0.2 -0.2)">
       <use xlink:href="#DejaVuSans-31"/>
      </g>
     </g>
    </g>
    <g id="xtick_3">
     <g id="line2d_35">
      <path clip-path="url(#p1e3f8347db)" d="M 226.119004 291.28 
L 226.119004 6.845228 
" style="fill:none;stroke:#b0b0b0;stroke-linecap:square;stroke-width:0.8;"/>
     </g>
     <g id="line2d_36">
      <g>
       <use style="stroke:#000000;stroke-width:0.8;" x="226.119004" xlink:href="#mcf70c2037e" y="291.28"/>
      </g>
     </g>
     <g id="text_3">
      <!-- 2 -->
      <defs>
       <path d="M 19.1875 8.296875 
L 53.609375 8.296875 
L 53.609375 0 
L 7.328125 0 
L 7.328125 8.296875 
Q 12.9375 14.109375 22.625 23.890625 
Q 32.328125 33.6875 34.8125 36.53125 
Q 39.546875 41.84375 41.421875 45.53125 
Q 43.3125 49.21875 43.3125 52.78125 
Q 43.3125 58.59375 39.234375 62.25 
Q 35.15625 65.921875 28.609375 65.921875 
Q 23.96875 65.921875 18.8125 64.3125 
Q 13.671875 62.703125 7.8125 59.421875 
L 7.8125 69.390625 
Q 13.765625 71.78125 18.9375 73 
Q 24.125 74.21875 28.421875 74.21875 
Q 39.75 74.21875 46.484375 68.546875 
Q 53.21875 62.890625 53.21875 53.421875 
Q 53.21875 48.921875 51.53125 44.890625 
Q 49.859375 40.875 45.40625 35.40625 
Q 44.1875 33.984375 37.640625 27.21875 
Q 31.109375 20.453125 19.1875 8.296875 
z
" id="DejaVuSans-32"/>
      </defs>
      <g transform="translate(219.756504 313.476875)scale(0.2 -0.2)">
       <use xlink:href="#DejaVuSans-32"/>
      </g>
     </g>
    </g>
    <g id="xtick_4">
     <g id="line2d_37">
      <path clip-path="url(#p1e3f8347db)" d="M 309.318506 291.28 
L 309.318506 6.845228 
" style="fill:none;stroke:#b0b0b0;stroke-linecap:square;stroke-width:0.8;"/>
     </g>
     <g id="line2d_38">
      <g>
       <use style="stroke:#000000;stroke-width:0.8;" x="309.318506" xlink:href="#mcf70c2037e" y="291.28"/>
      </g>
     </g>
     <g id="text_4">
      <!-- 3 -->
      <defs>
       <path d="M 40.578125 39.3125 
Q 47.65625 37.796875 51.625 33 
Q 55.609375 28.21875 55.609375 21.1875 
Q 55.609375 10.40625 48.1875 4.484375 
Q 40.765625 -1.421875 27.09375 -1.421875 
Q 22.515625 -1.421875 17.65625 -0.515625 
Q 12.796875 0.390625 7.625 2.203125 
L 7.625 11.71875 
Q 11.71875 9.328125 16.59375 8.109375 
Q 21.484375 6.890625 26.8125 6.890625 
Q 36.078125 6.890625 40.9375 10.546875 
Q 45.796875 14.203125 45.796875 21.1875 
Q 45.796875 27.640625 41.28125 31.265625 
Q 36.765625 34.90625 28.71875 34.90625 
L 20.21875 34.90625 
L 20.21875 43.015625 
L 29.109375 43.015625 
Q 36.375 43.015625 40.234375 45.921875 
Q 44.09375 48.828125 44.09375 54.296875 
Q 44.09375 59.90625 40.109375 62.90625 
Q 36.140625 65.921875 28.71875 65.921875 
Q 24.65625 65.921875 20.015625 65.03125 
Q 15.375 64.15625 9.8125 62.3125 
L 9.8125 71.09375 
Q 15.4375 72.65625 20.34375 73.4375 
Q 25.25 74.21875 29.59375 74.21875 
Q 40.828125 74.21875 47.359375 69.109375 
Q 53.90625 64.015625 53.90625 55.328125 
Q 53.90625 49.265625 50.4375 45.09375 
Q 46.96875 40.921875 40.578125 39.3125 
z
" id="DejaVuSans-33"/>
      </defs>
      <g transform="translate(302.956006 313.476875)scale(0.2 -0.2)">
       <use xlink:href="#DejaVuSans-33"/>
      </g>
     </g>
    </g>
    <g id="xtick_5">
     <g id="line2d_39">
      <path clip-path="url(#p1e3f8347db)" d="M 392.518008 291.28 
L 392.518008 6.845228 
" style="fill:none;stroke:#b0b0b0;stroke-linecap:square;stroke-width:0.8;"/>
     </g>
     <g id="line2d_40">
      <g>
       <use style="stroke:#000000;stroke-width:0.8;" x="392.518008" xlink:href="#mcf70c2037e" y="291.28"/>
      </g>
     </g>
     <g id="text_5">
      <!-- 4 -->
      <defs>
       <path d="M 37.796875 64.3125 
L 12.890625 25.390625 
L 37.796875 25.390625 
z
M 35.203125 72.90625 
L 47.609375 72.90625 
L 47.609375 25.390625 
L 58.015625 25.390625 
L 58.015625 17.1875 
L 47.609375 17.1875 
L 47.609375 0 
L 37.796875 0 
L 37.796875 17.1875 
L 4.890625 17.1875 
L 4.890625 26.703125 
z
" id="DejaVuSans-34"/>
      </defs>
      <g transform="translate(386.155508 313.476875)scale(0.2 -0.2)">
       <use xlink:href="#DejaVuSans-34"/>
      </g>
     </g>
    </g>
    <g id="xtick_6">
     <g id="line2d_41">
      <defs>
       <path d="M 0 0 
L 0 2 
" id="m88fef3e6d5" style="stroke:#000000;stroke-width:0.6;"/>
      </defs>
      <g>
       <use style="stroke:#000000;stroke-width:0.6;" x="84.765546" xlink:href="#m88fef3e6d5" y="291.28"/>
      </g>
     </g>
    </g>
    <g id="xtick_7">
     <g id="line2d_42">
      <g>
       <use style="stroke:#000000;stroke-width:0.6;" x="99.416251" xlink:href="#m88fef3e6d5" y="291.28"/>
      </g>
     </g>
    </g>
    <g id="xtick_8">
     <g id="line2d_43">
      <g>
       <use style="stroke:#000000;stroke-width:0.6;" x="109.811091" xlink:href="#m88fef3e6d5" y="291.28"/>
      </g>
     </g>
    </g>
    <g id="xtick_9">
     <g id="line2d_44">
      <g>
       <use style="stroke:#000000;stroke-width:0.6;" x="117.873956" xlink:href="#m88fef3e6d5" y="291.28"/>
      </g>
     </g>
    </g>
    <g id="xtick_10">
     <g id="line2d_45">
      <g>
       <use style="stroke:#000000;stroke-width:0.6;" x="124.461796" xlink:href="#m88fef3e6d5" y="291.28"/>
      </g>
     </g>
    </g>
    <g id="xtick_11">
     <g id="line2d_46">
      <g>
       <use style="stroke:#000000;stroke-width:0.6;" x="130.031736" xlink:href="#m88fef3e6d5" y="291.28"/>
      </g>
     </g>
    </g>
    <g id="xtick_12">
     <g id="line2d_47">
      <g>
       <use style="stroke:#000000;stroke-width:0.6;" x="134.856637" xlink:href="#m88fef3e6d5" y="291.28"/>
      </g>
     </g>
    </g>
    <g id="xtick_13">
     <g id="line2d_48">
      <g>
       <use style="stroke:#000000;stroke-width:0.6;" x="139.112501" xlink:href="#m88fef3e6d5" y="291.28"/>
      </g>
     </g>
    </g>
    <g id="xtick_14">
     <g id="line2d_49">
      <g>
       <use style="stroke:#000000;stroke-width:0.6;" x="167.965048" xlink:href="#m88fef3e6d5" y="291.28"/>
      </g>
     </g>
    </g>
    <g id="xtick_15">
     <g id="line2d_50">
      <g>
       <use style="stroke:#000000;stroke-width:0.6;" x="182.615753" xlink:href="#m88fef3e6d5" y="291.28"/>
      </g>
     </g>
    </g>
    <g id="xtick_16">
     <g id="line2d_51">
      <g>
       <use style="stroke:#000000;stroke-width:0.6;" x="193.010593" xlink:href="#m88fef3e6d5" y="291.28"/>
      </g>
     </g>
    </g>
    <g id="xtick_17">
     <g id="line2d_52">
      <g>
       <use style="stroke:#000000;stroke-width:0.6;" x="201.073458" xlink:href="#m88fef3e6d5" y="291.28"/>
      </g>
     </g>
    </g>
    <g id="xtick_18">
     <g id="line2d_53">
      <g>
       <use style="stroke:#000000;stroke-width:0.6;" x="207.661298" xlink:href="#m88fef3e6d5" y="291.28"/>
      </g>
     </g>
    </g>
    <g id="xtick_19">
     <g id="line2d_54">
      <g>
       <use style="stroke:#000000;stroke-width:0.6;" x="213.231238" xlink:href="#m88fef3e6d5" y="291.28"/>
      </g>
     </g>
    </g>
    <g id="xtick_20">
     <g id="line2d_55">
      <g>
       <use style="stroke:#000000;stroke-width:0.6;" x="218.056139" xlink:href="#m88fef3e6d5" y="291.28"/>
      </g>
     </g>
    </g>
    <g id="xtick_21">
     <g id="line2d_56">
      <g>
       <use style="stroke:#000000;stroke-width:0.6;" x="222.312003" xlink:href="#m88fef3e6d5" y="291.28"/>
      </g>
     </g>
    </g>
    <g id="xtick_22">
     <g id="line2d_57">
      <g>
       <use style="stroke:#000000;stroke-width:0.6;" x="251.16455" xlink:href="#m88fef3e6d5" y="291.28"/>
      </g>
     </g>
    </g>
    <g id="xtick_23">
     <g id="line2d_58">
      <g>
       <use style="stroke:#000000;stroke-width:0.6;" x="265.815255" xlink:href="#m88fef3e6d5" y="291.28"/>
      </g>
     </g>
    </g>
    <g id="xtick_24">
     <g id="line2d_59">
      <g>
       <use style="stroke:#000000;stroke-width:0.6;" x="276.210095" xlink:href="#m88fef3e6d5" y="291.28"/>
      </g>
     </g>
    </g>
    <g id="xtick_25">
     <g id="line2d_60">
      <g>
       <use style="stroke:#000000;stroke-width:0.6;" x="284.27296" xlink:href="#m88fef3e6d5" y="291.28"/>
      </g>
     </g>
    </g>
    <g id="xtick_26">
     <g id="line2d_61">
      <g>
       <use style="stroke:#000000;stroke-width:0.6;" x="290.8608" xlink:href="#m88fef3e6d5" y="291.28"/>
      </g>
     </g>
    </g>
    <g id="xtick_27">
     <g id="line2d_62">
      <g>
       <use style="stroke:#000000;stroke-width:0.6;" x="296.43074" xlink:href="#m88fef3e6d5" y="291.28"/>
      </g>
     </g>
    </g>
    <g id="xtick_28">
     <g id="line2d_63">
      <g>
       <use style="stroke:#000000;stroke-width:0.6;" x="301.255641" xlink:href="#m88fef3e6d5" y="291.28"/>
      </g>
     </g>
    </g>
    <g id="xtick_29">
     <g id="line2d_64">
      <g>
       <use style="stroke:#000000;stroke-width:0.6;" x="305.511505" xlink:href="#m88fef3e6d5" y="291.28"/>
      </g>
     </g>
    </g>
    <g id="xtick_30">
     <g id="line2d_65">
      <g>
       <use style="stroke:#000000;stroke-width:0.6;" x="334.364051" xlink:href="#m88fef3e6d5" y="291.28"/>
      </g>
     </g>
    </g>
    <g id="xtick_31">
     <g id="line2d_66">
      <g>
       <use style="stroke:#000000;stroke-width:0.6;" x="349.014756" xlink:href="#m88fef3e6d5" y="291.28"/>
      </g>
     </g>
    </g>
    <g id="xtick_32">
     <g id="line2d_67">
      <g>
       <use style="stroke:#000000;stroke-width:0.6;" x="359.409597" xlink:href="#m88fef3e6d5" y="291.28"/>
      </g>
     </g>
    </g>
    <g id="xtick_33">
     <g id="line2d_68">
      <g>
       <use style="stroke:#000000;stroke-width:0.6;" x="367.472462" xlink:href="#m88fef3e6d5" y="291.28"/>
      </g>
     </g>
    </g>
    <g id="xtick_34">
     <g id="line2d_69">
      <g>
       <use style="stroke:#000000;stroke-width:0.6;" x="374.060302" xlink:href="#m88fef3e6d5" y="291.28"/>
      </g>
     </g>
    </g>
    <g id="xtick_35">
     <g id="line2d_70">
      <g>
       <use style="stroke:#000000;stroke-width:0.6;" x="379.630242" xlink:href="#m88fef3e6d5" y="291.28"/>
      </g>
     </g>
    </g>
    <g id="xtick_36">
     <g id="line2d_71">
      <g>
       <use style="stroke:#000000;stroke-width:0.6;" x="384.455143" xlink:href="#m88fef3e6d5" y="291.28"/>
      </g>
     </g>
    </g>
    <g id="xtick_37">
     <g id="line2d_72">
      <g>
       <use style="stroke:#000000;stroke-width:0.6;" x="388.711007" xlink:href="#m88fef3e6d5" y="291.28"/>
      </g>
     </g>
    </g>
    <g id="xtick_38">
     <g id="line2d_73">
      <g>
       <use style="stroke:#000000;stroke-width:0.6;" x="417.563553" xlink:href="#m88fef3e6d5" y="291.28"/>
      </g>
     </g>
    </g>
    <g id="xtick_39">
     <g id="line2d_74">
      <g>
       <use style="stroke:#000000;stroke-width:0.6;" x="432.214258" xlink:href="#m88fef3e6d5" y="291.28"/>
      </g>
     </g>
    </g>
    <g id="xtick_40">
     <g id="line2d_75">
      <g>
       <use style="stroke:#000000;stroke-width:0.6;" x="442.609099" xlink:href="#m88fef3e6d5" y="291.28"/>
      </g>
     </g>
    </g>
    <g id="xtick_41">
     <g id="line2d_76">
      <g>
       <use style="stroke:#000000;stroke-width:0.6;" x="450.671964" xlink:href="#m88fef3e6d5" y="291.28"/>
      </g>
     </g>
    </g>
    <g id="text_6">
     <!-- log10 of FEvals / DIM -->
     <defs>
      <path d="M 9.421875 75.984375 
L 18.40625 75.984375 
L 18.40625 0 
L 9.421875 0 
z
" id="DejaVuSans-6c"/>
      <path d="M 30.609375 48.390625 
Q 23.390625 48.390625 19.1875 42.75 
Q 14.984375 37.109375 14.984375 27.296875 
Q 14.984375 17.484375 19.15625 11.84375 
Q 23.34375 6.203125 30.609375 6.203125 
Q 37.796875 6.203125 41.984375 11.859375 
Q 46.1875 17.53125 46.1875 27.296875 
Q 46.1875 37.015625 41.984375 42.703125 
Q 37.796875 48.390625 30.609375 48.390625 
z
M 30.609375 56 
Q 42.328125 56 49.015625 48.375 
Q 55.71875 40.765625 55.71875 27.296875 
Q 55.71875 13.875 49.015625 6.21875 
Q 42.328125 -1.421875 30.609375 -1.421875 
Q 18.84375 -1.421875 12.171875 6.21875 
Q 5.515625 13.875 5.515625 27.296875 
Q 5.515625 40.765625 12.171875 48.375 
Q 18.84375 56 30.609375 56 
z
" id="DejaVuSans-6f"/>
      <path d="M 45.40625 27.984375 
Q 45.40625 37.75 41.375 43.109375 
Q 37.359375 48.484375 30.078125 48.484375 
Q 22.859375 48.484375 18.828125 43.109375 
Q 14.796875 37.75 14.796875 27.984375 
Q 14.796875 18.265625 18.828125 12.890625 
Q 22.859375 7.515625 30.078125 7.515625 
Q 37.359375 7.515625 41.375 12.890625 
Q 45.40625 18.265625 45.40625 27.984375 
z
M 54.390625 6.78125 
Q 54.390625 -7.171875 48.1875 -13.984375 
Q 42 -20.796875 29.203125 -20.796875 
Q 24.46875 -20.796875 20.265625 -20.09375 
Q 16.0625 -19.390625 12.109375 -17.921875 
L 12.109375 -9.1875 
Q 16.0625 -11.328125 19.921875 -12.34375 
Q 23.78125 -13.375 27.78125 -13.375 
Q 36.625 -13.375 41.015625 -8.765625 
Q 45.40625 -4.15625 45.40625 5.171875 
L 45.40625 9.625 
Q 42.625 4.78125 38.28125 2.390625 
Q 33.9375 0 27.875 0 
Q 17.828125 0 11.671875 7.65625 
Q 5.515625 15.328125 5.515625 27.984375 
Q 5.515625 40.671875 11.671875 48.328125 
Q 17.828125 56 27.875 56 
Q 33.9375 56 38.28125 53.609375 
Q 42.625 51.21875 45.40625 46.390625 
L 45.40625 54.6875 
L 54.390625 54.6875 
z
" id="DejaVuSans-67"/>
      <path id="DejaVuSans-20"/>
      <path d="M 37.109375 75.984375 
L 37.109375 68.5 
L 28.515625 68.5 
Q 23.6875 68.5 21.796875 66.546875 
Q 19.921875 64.59375 19.921875 59.515625 
L 19.921875 54.6875 
L 34.71875 54.6875 
L 34.71875 47.703125 
L 19.921875 47.703125 
L 19.921875 0 
L 10.890625 0 
L 10.890625 47.703125 
L 2.296875 47.703125 
L 2.296875 54.6875 
L 10.890625 54.6875 
L 10.890625 58.5 
Q 10.890625 67.625 15.140625 71.796875 
Q 19.390625 75.984375 28.609375 75.984375 
z
" id="DejaVuSans-66"/>
      <path d="M 9.8125 72.90625 
L 51.703125 72.90625 
L 51.703125 64.59375 
L 19.671875 64.59375 
L 19.671875 43.109375 
L 48.578125 43.109375 
L 48.578125 34.8125 
L 19.671875 34.8125 
L 19.671875 0 
L 9.8125 0 
z
" id="DejaVuSans-46"/>
      <path d="M 9.8125 72.90625 
L 55.90625 72.90625 
L 55.90625 64.59375 
L 19.671875 64.59375 
L 19.671875 43.015625 
L 54.390625 43.015625 
L 54.390625 34.71875 
L 19.671875 34.71875 
L 19.671875 8.296875 
L 56.78125 8.296875 
L 56.78125 0 
L 9.8125 0 
z
" id="DejaVuSans-45"/>
      <path d="M 2.984375 54.6875 
L 12.5 54.6875 
L 29.59375 8.796875 
L 46.6875 54.6875 
L 56.203125 54.6875 
L 35.6875 0 
L 23.484375 0 
z
" id="DejaVuSans-76"/>
      <path d="M 34.28125 27.484375 
Q 23.390625 27.484375 19.1875 25 
Q 14.984375 22.515625 14.984375 16.5 
Q 14.984375 11.71875 18.140625 8.90625 
Q 21.296875 6.109375 26.703125 6.109375 
Q 34.1875 6.109375 38.703125 11.40625 
Q 43.21875 16.703125 43.21875 25.484375 
L 43.21875 27.484375 
z
M 52.203125 31.203125 
L 52.203125 0 
L 43.21875 0 
L 43.21875 8.296875 
Q 40.140625 3.328125 35.546875 0.953125 
Q 30.953125 -1.421875 24.3125 -1.421875 
Q 15.921875 -1.421875 10.953125 3.296875 
Q 6 8.015625 6 15.921875 
Q 6 25.140625 12.171875 29.828125 
Q 18.359375 34.515625 30.609375 34.515625 
L 43.21875 34.515625 
L 43.21875 35.40625 
Q 43.21875 41.609375 39.140625 45 
Q 35.0625 48.390625 27.6875 48.390625 
Q 23 48.390625 18.546875 47.265625 
Q 14.109375 46.140625 10.015625 43.890625 
L 10.015625 52.203125 
Q 14.9375 54.109375 19.578125 55.046875 
Q 24.21875 56 28.609375 56 
Q 40.484375 56 46.34375 49.84375 
Q 52.203125 43.703125 52.203125 31.203125 
z
" id="DejaVuSans-61"/>
      <path d="M 44.28125 53.078125 
L 44.28125 44.578125 
Q 40.484375 46.53125 36.375 47.5 
Q 32.28125 48.484375 27.875 48.484375 
Q 21.1875 48.484375 17.84375 46.4375 
Q 14.5 44.390625 14.5 40.28125 
Q 14.5 37.15625 16.890625 35.375 
Q 19.28125 33.59375 26.515625 31.984375 
L 29.59375 31.296875 
Q 39.15625 29.25 43.1875 25.515625 
Q 47.21875 21.78125 47.21875 15.09375 
Q 47.21875 7.46875 41.1875 3.015625 
Q 35.15625 -1.421875 24.609375 -1.421875 
Q 20.21875 -1.421875 15.453125 -0.5625 
Q 10.6875 0.296875 5.421875 2 
L 5.421875 11.28125 
Q 10.40625 8.6875 15.234375 7.390625 
Q 20.0625 6.109375 24.8125 6.109375 
Q 31.15625 6.109375 34.5625 8.28125 
Q 37.984375 10.453125 37.984375 14.40625 
Q 37.984375 18.0625 35.515625 20.015625 
Q 33.0625 21.96875 24.703125 23.78125 
L 21.578125 24.515625 
Q 13.234375 26.265625 9.515625 29.90625 
Q 5.8125 33.546875 5.8125 39.890625 
Q 5.8125 47.609375 11.28125 51.796875 
Q 16.75 56 26.8125 56 
Q 31.78125 56 36.171875 55.265625 
Q 40.578125 54.546875 44.28125 53.078125 
z
" id="DejaVuSans-73"/>
      <path d="M 25.390625 72.90625 
L 33.6875 72.90625 
L 8.296875 -9.28125 
L 0 -9.28125 
z
" id="DejaVuSans-2f"/>
      <path d="M 19.671875 64.796875 
L 19.671875 8.109375 
L 31.59375 8.109375 
Q 46.6875 8.109375 53.6875 14.9375 
Q 60.6875 21.78125 60.6875 36.53125 
Q 60.6875 51.171875 53.6875 57.984375 
Q 46.6875 64.796875 31.59375 64.796875 
z
M 9.8125 72.90625 
L 30.078125 72.90625 
Q 51.265625 72.90625 61.171875 64.09375 
Q 71.09375 55.28125 71.09375 36.53125 
Q 71.09375 17.671875 61.125 8.828125 
Q 51.171875 0 30.078125 0 
L 9.8125 0 
z
" id="DejaVuSans-44"/>
      <path d="M 9.8125 72.90625 
L 19.671875 72.90625 
L 19.671875 0 
L 9.8125 0 
z
" id="DejaVuSans-49"/>
      <path d="M 9.8125 72.90625 
L 24.515625 72.90625 
L 43.109375 23.296875 
L 61.8125 72.90625 
L 76.515625 72.90625 
L 76.515625 0 
L 66.890625 0 
L 66.890625 64.015625 
L 48.09375 14.015625 
L 38.1875 14.015625 
L 19.390625 64.015625 
L 19.390625 0 
L 9.8125 0 
z
" id="DejaVuSans-4d"/>
     </defs>
     <g transform="translate(150.122563 336.833125)scale(0.2 -0.2)">
      <use xlink:href="#DejaVuSans-6c"/>
      <use x="27.783203" xlink:href="#DejaVuSans-6f"/>
      <use x="88.964844" xlink:href="#DejaVuSans-67"/>
      <use x="152.441406" xlink:href="#DejaVuSans-31"/>
      <use x="216.064453" xlink:href="#DejaVuSans-30"/>
      <use x="279.6875" xlink:href="#DejaVuSans-20"/>
      <use x="311.474609" xlink:href="#DejaVuSans-6f"/>
      <use x="372.65625" xlink:href="#DejaVuSans-66"/>
      <use x="407.861328" xlink:href="#DejaVuSans-20"/>
      <use x="439.648438" xlink:href="#DejaVuSans-46"/>
      <use x="497.167969" xlink:href="#DejaVuSans-45"/>
      <use x="560.351562" xlink:href="#DejaVuSans-76"/>
      <use x="619.53125" xlink:href="#DejaVuSans-61"/>
      <use x="680.810547" xlink:href="#DejaVuSans-6c"/>
      <use x="708.59375" xlink:href="#DejaVuSans-73"/>
      <use x="760.693359" xlink:href="#DejaVuSans-20"/>
      <use x="792.480469" xlink:href="#DejaVuSans-2f"/>
      <use x="826.171875" xlink:href="#DejaVuSans-20"/>
      <use x="857.958984" xlink:href="#DejaVuSans-44"/>
      <use x="934.960938" xlink:href="#DejaVuSans-49"/>
      <use x="964.453125" xlink:href="#DejaVuSans-4d"/>
     </g>
    </g>
   </g>
   <g id="matplotlib.axis_2">
    <g id="ytick_1">
     <g id="line2d_77">
      <path clip-path="url(#p1e3f8347db)" d="M 59.72 291.28 
L 450.672 291.28 
" style="fill:none;stroke:#b0b0b0;stroke-linecap:square;stroke-width:0.8;"/>
     </g>
     <g id="line2d_78">
      <defs>
       <path d="M 0 0 
L -3.5 0 
" id="mdd5074d4ee" style="stroke:#000000;stroke-width:0.8;"/>
      </defs>
      <g>
       <use style="stroke:#000000;stroke-width:0.8;" x="59.72" xlink:href="#mdd5074d4ee" y="291.28"/>
      </g>
     </g>
     <g id="text_7">
      <!-- 0.0 -->
      <defs>
       <path d="M 10.6875 12.40625 
L 21 12.40625 
L 21 0 
L 10.6875 0 
z
" id="DejaVuSans-2e"/>
      </defs>
      <g transform="translate(27.275 297.35875)scale(0.16 -0.16)">
       <use xlink:href="#DejaVuSans-30"/>
       <use x="63.623047" xlink:href="#DejaVuSans-2e"/>
       <use x="95.410156" xlink:href="#DejaVuSans-30"/>
      </g>
     </g>
    </g>
    <g id="ytick_2">
     <g id="line2d_79">
      <path clip-path="url(#p1e3f8347db)" d="M 59.72 234.956283 
L 450.672 234.956283 
" style="fill:none;stroke:#b0b0b0;stroke-linecap:square;stroke-width:0.8;"/>
     </g>
     <g id="line2d_80">
      <g>
       <use style="stroke:#000000;stroke-width:0.8;" x="59.72" xlink:href="#mdd5074d4ee" y="234.956283"/>
      </g>
     </g>
     <g id="text_8">
      <!-- 0.2 -->
      <g transform="translate(27.275 241.035033)scale(0.16 -0.16)">
       <use xlink:href="#DejaVuSans-30"/>
       <use x="63.623047" xlink:href="#DejaVuSans-2e"/>
       <use x="95.410156" xlink:href="#DejaVuSans-32"/>
      </g>
     </g>
    </g>
    <g id="ytick_3">
     <g id="line2d_81">
      <path clip-path="url(#p1e3f8347db)" d="M 59.72 178.632565 
L 450.672 178.632565 
" style="fill:none;stroke:#b0b0b0;stroke-linecap:square;stroke-width:0.8;"/>
     </g>
     <g id="line2d_82">
      <g>
       <use style="stroke:#000000;stroke-width:0.8;" x="59.72" xlink:href="#mdd5074d4ee" y="178.632565"/>
      </g>
     </g>
     <g id="text_9">
      <!-- 0.4 -->
      <g transform="translate(27.275 184.711315)scale(0.16 -0.16)">
       <use xlink:href="#DejaVuSans-30"/>
       <use x="63.623047" xlink:href="#DejaVuSans-2e"/>
       <use x="95.410156" xlink:href="#DejaVuSans-34"/>
      </g>
     </g>
    </g>
    <g id="ytick_4">
     <g id="line2d_83">
      <path clip-path="url(#p1e3f8347db)" d="M 59.72 122.308848 
L 450.672 122.308848 
" style="fill:none;stroke:#b0b0b0;stroke-linecap:square;stroke-width:0.8;"/>
     </g>
     <g id="line2d_84">
      <g>
       <use style="stroke:#000000;stroke-width:0.8;" x="59.72" xlink:href="#mdd5074d4ee" y="122.308848"/>
      </g>
     </g>
     <g id="text_10">
      <!-- 0.6 -->
      <defs>
       <path d="M 33.015625 40.375 
Q 26.375 40.375 22.484375 35.828125 
Q 18.609375 31.296875 18.609375 23.390625 
Q 18.609375 15.53125 22.484375 10.953125 
Q 26.375 6.390625 33.015625 6.390625 
Q 39.65625 6.390625 43.53125 10.953125 
Q 47.40625 15.53125 47.40625 23.390625 
Q 47.40625 31.296875 43.53125 35.828125 
Q 39.65625 40.375 33.015625 40.375 
z
M 52.59375 71.296875 
L 52.59375 62.3125 
Q 48.875 64.0625 45.09375 64.984375 
Q 41.3125 65.921875 37.59375 65.921875 
Q 27.828125 65.921875 22.671875 59.328125 
Q 17.53125 52.734375 16.796875 39.40625 
Q 19.671875 43.65625 24.015625 45.921875 
Q 28.375 48.1875 33.59375 48.1875 
Q 44.578125 48.1875 50.953125 41.515625 
Q 57.328125 34.859375 57.328125 23.390625 
Q 57.328125 12.15625 50.6875 5.359375 
Q 44.046875 -1.421875 33.015625 -1.421875 
Q 20.359375 -1.421875 13.671875 8.265625 
Q 6.984375 17.96875 6.984375 36.375 
Q 6.984375 53.65625 15.1875 63.9375 
Q 23.390625 74.21875 37.203125 74.21875 
Q 40.921875 74.21875 44.703125 73.484375 
Q 48.484375 72.75 52.59375 71.296875 
z
" id="DejaVuSans-36"/>
      </defs>
      <g transform="translate(27.275 128.387598)scale(0.16 -0.16)">
       <use xlink:href="#DejaVuSans-30"/>
       <use x="63.623047" xlink:href="#DejaVuSans-2e"/>
       <use x="95.410156" xlink:href="#DejaVuSans-36"/>
      </g>
     </g>
    </g>
    <g id="ytick_5">
     <g id="line2d_85">
      <path clip-path="url(#p1e3f8347db)" d="M 59.72 65.985131 
L 450.672 65.985131 
" style="fill:none;stroke:#b0b0b0;stroke-linecap:square;stroke-width:0.8;"/>
     </g>
     <g id="line2d_86">
      <g>
       <use style="stroke:#000000;stroke-width:0.8;" x="59.72" xlink:href="#mdd5074d4ee" y="65.985131"/>
      </g>
     </g>
     <g id="text_11">
      <!-- 0.8 -->
      <defs>
       <path d="M 31.78125 34.625 
Q 24.75 34.625 20.71875 30.859375 
Q 16.703125 27.09375 16.703125 20.515625 
Q 16.703125 13.921875 20.71875 10.15625 
Q 24.75 6.390625 31.78125 6.390625 
Q 38.8125 6.390625 42.859375 10.171875 
Q 46.921875 13.96875 46.921875 20.515625 
Q 46.921875 27.09375 42.890625 30.859375 
Q 38.875 34.625 31.78125 34.625 
z
M 21.921875 38.8125 
Q 15.578125 40.375 12.03125 44.71875 
Q 8.5 49.078125 8.5 55.328125 
Q 8.5 64.0625 14.71875 69.140625 
Q 20.953125 74.21875 31.78125 74.21875 
Q 42.671875 74.21875 48.875 69.140625 
Q 55.078125 64.0625 55.078125 55.328125 
Q 55.078125 49.078125 51.53125 44.71875 
Q 48 40.375 41.703125 38.8125 
Q 48.828125 37.15625 52.796875 32.3125 
Q 56.78125 27.484375 56.78125 20.515625 
Q 56.78125 9.90625 50.3125 4.234375 
Q 43.84375 -1.421875 31.78125 -1.421875 
Q 19.734375 -1.421875 13.25 4.234375 
Q 6.78125 9.90625 6.78125 20.515625 
Q 6.78125 27.484375 10.78125 32.3125 
Q 14.796875 37.15625 21.921875 38.8125 
z
M 18.3125 54.390625 
Q 18.3125 48.734375 21.84375 45.5625 
Q 25.390625 42.390625 31.78125 42.390625 
Q 38.140625 42.390625 41.71875 45.5625 
Q 45.3125 48.734375 45.3125 54.390625 
Q 45.3125 60.0625 41.71875 63.234375 
Q 38.140625 66.40625 31.78125 66.40625 
Q 25.390625 66.40625 21.84375 63.234375 
Q 18.3125 60.0625 18.3125 54.390625 
z
" id="DejaVuSans-38"/>
      </defs>
      <g transform="translate(27.275 72.063881)scale(0.16 -0.16)">
       <use xlink:href="#DejaVuSans-30"/>
       <use x="63.623047" xlink:href="#DejaVuSans-2e"/>
       <use x="95.410156" xlink:href="#DejaVuSans-38"/>
      </g>
     </g>
    </g>
    <g id="ytick_6">
     <g id="line2d_87">
      <path clip-path="url(#p1e3f8347db)" d="M 59.72 9.661414 
L 450.672 9.661414 
" style="fill:none;stroke:#b0b0b0;stroke-linecap:square;stroke-width:0.8;"/>
     </g>
     <g id="line2d_88">
      <g>
       <use style="stroke:#000000;stroke-width:0.8;" x="59.72" xlink:href="#mdd5074d4ee" y="9.661414"/>
      </g>
     </g>
     <g id="text_12">
      <!-- 1.0 -->
      <g transform="translate(27.275 15.740164)scale(0.16 -0.16)">
       <use xlink:href="#DejaVuSans-31"/>
       <use x="63.623047" xlink:href="#DejaVuSans-2e"/>
       <use x="95.410156" xlink:href="#DejaVuSans-30"/>
      </g>
     </g>
    </g>
    <g id="text_13">
     <!-- proportion of trials -->
     <defs>
      <path d="M 18.109375 8.203125 
L 18.109375 -20.796875 
L 9.078125 -20.796875 
L 9.078125 54.6875 
L 18.109375 54.6875 
L 18.109375 46.390625 
Q 20.953125 51.265625 25.265625 53.625 
Q 29.59375 56 35.59375 56 
Q 45.5625 56 51.78125 48.09375 
Q 58.015625 40.1875 58.015625 27.296875 
Q 58.015625 14.40625 51.78125 6.484375 
Q 45.5625 -1.421875 35.59375 -1.421875 
Q 29.59375 -1.421875 25.265625 0.953125 
Q 20.953125 3.328125 18.109375 8.203125 
z
M 48.6875 27.296875 
Q 48.6875 37.203125 44.609375 42.84375 
Q 40.53125 48.484375 33.40625 48.484375 
Q 26.265625 48.484375 22.1875 42.84375 
Q 18.109375 37.203125 18.109375 27.296875 
Q 18.109375 17.390625 22.1875 11.75 
Q 26.265625 6.109375 33.40625 6.109375 
Q 40.53125 6.109375 44.609375 11.75 
Q 48.6875 17.390625 48.6875 27.296875 
z
" id="DejaVuSans-70"/>
      <path d="M 41.109375 46.296875 
Q 39.59375 47.171875 37.8125 47.578125 
Q 36.03125 48 33.890625 48 
Q 26.265625 48 22.1875 43.046875 
Q 18.109375 38.09375 18.109375 28.8125 
L 18.109375 0 
L 9.078125 0 
L 9.078125 54.6875 
L 18.109375 54.6875 
L 18.109375 46.1875 
Q 20.953125 51.171875 25.484375 53.578125 
Q 30.03125 56 36.53125 56 
Q 37.453125 56 38.578125 55.875 
Q 39.703125 55.765625 41.0625 55.515625 
z
" id="DejaVuSans-72"/>
      <path d="M 18.3125 70.21875 
L 18.3125 54.6875 
L 36.8125 54.6875 
L 36.8125 47.703125 
L 18.3125 47.703125 
L 18.3125 18.015625 
Q 18.3125 11.328125 20.140625 9.421875 
Q 21.96875 7.515625 27.59375 7.515625 
L 36.8125 7.515625 
L 36.8125 0 
L 27.59375 0 
Q 17.1875 0 13.234375 3.875 
Q 9.28125 7.765625 9.28125 18.015625 
L 9.28125 47.703125 
L 2.6875 47.703125 
L 2.6875 54.6875 
L 9.28125 54.6875 
L 9.28125 70.21875 
z
" id="DejaVuSans-74"/>
      <path d="M 9.421875 54.6875 
L 18.40625 54.6875 
L 18.40625 0 
L 9.421875 0 
z
M 9.421875 75.984375 
L 18.40625 75.984375 
L 18.40625 64.59375 
L 9.421875 64.59375 
z
" id="DejaVuSans-69"/>
      <path d="M 54.890625 33.015625 
L 54.890625 0 
L 45.90625 0 
L 45.90625 32.71875 
Q 45.90625 40.484375 42.875 44.328125 
Q 39.84375 48.1875 33.796875 48.1875 
Q 26.515625 48.1875 22.3125 43.546875 
Q 18.109375 38.921875 18.109375 30.90625 
L 18.109375 0 
L 9.078125 0 
L 9.078125 54.6875 
L 18.109375 54.6875 
L 18.109375 46.1875 
Q 21.34375 51.125 25.703125 53.5625 
Q 30.078125 56 35.796875 56 
Q 45.21875 56 50.046875 50.171875 
Q 54.890625 44.34375 54.890625 33.015625 
z
" id="DejaVuSans-6e"/>
     </defs>
     <g transform="translate(19.115625 242.290739)rotate(-90)scale(0.2 -0.2)">
      <use xlink:href="#DejaVuSans-70"/>
      <use x="63.476562" xlink:href="#DejaVuSans-72"/>
      <use x="104.558594" xlink:href="#DejaVuSans-6f"/>
      <use x="165.740234" xlink:href="#DejaVuSans-70"/>
      <use x="229.216797" xlink:href="#DejaVuSans-6f"/>
      <use x="290.398438" xlink:href="#DejaVuSans-72"/>
      <use x="331.511719" xlink:href="#DejaVuSans-74"/>
      <use x="370.720703" xlink:href="#DejaVuSans-69"/>
      <use x="398.503906" xlink:href="#DejaVuSans-6f"/>
      <use x="459.685547" xlink:href="#DejaVuSans-6e"/>
      <use x="523.064453" xlink:href="#DejaVuSans-20"/>
      <use x="554.851562" xlink:href="#DejaVuSans-6f"/>
      <use x="616.033203" xlink:href="#DejaVuSans-66"/>
      <use x="651.238281" xlink:href="#DejaVuSans-20"/>
      <use x="683.025391" xlink:href="#DejaVuSans-74"/>
      <use x="722.234375" xlink:href="#DejaVuSans-72"/>
      <use x="763.347656" xlink:href="#DejaVuSans-69"/>
      <use x="791.130859" xlink:href="#DejaVuSans-61"/>
      <use x="852.410156" xlink:href="#DejaVuSans-6c"/>
      <use x="880.193359" xlink:href="#DejaVuSans-73"/>
     </g>
    </g>
   </g>
   <g id="line2d_89">
    <path clip-path="url(#p1e3f8347db)" d="M 285.39009 291.28 
L 285.39009 286.586357 
L 286.480514 286.586357 
L 286.480514 281.892714 
L 287.207373 281.892714 
L 287.207373 277.199071 
L 288.535248 277.199071 
L 288.535248 272.505428 
L 289.039097 272.505428 
L 289.039097 267.811784 
L 291.835181 267.811784 
L 291.835181 263.118141 
L 293.680652 263.118141 
L 293.680652 258.424498 
L 294.096011 258.424498 
L 294.096011 253.730855 
L 294.44126 253.730855 
L 294.44126 249.037212 
L 294.998705 249.037212 
L 294.998705 244.343569 
L 296.841347 244.343569 
L 296.841347 239.649926 
L 302.121413 239.649926 
L 302.121413 234.956283 
L 302.275423 234.956283 
L 302.275423 230.26264 
L 303.50566 230.26264 
L 303.50566 225.568997 
L 304.793807 225.568997 
L 304.793807 220.875353 
L 344.694246 220.875353 
L 344.694246 216.18171 
L 345.843164 216.18171 
L 345.843164 211.488067 
L 346.270609 211.488067 
L 346.270609 206.794424 
L 346.415858 206.794424 
L 346.415858 202.100781 
L 350.568321 202.100781 
L 350.568321 197.407138 
L 352.249967 197.407138 
L 352.249967 192.713495 
L 353.872614 192.713495 
L 353.872614 188.019852 
L 355.301238 188.019852 
L 355.301238 183.326209 
L 357.517205 183.326209 
L 357.517205 178.632565 
L 358.234434 178.632565 
L 358.234434 173.938922 
L 360.119813 173.938922 
L 360.119813 169.245279 
L 361.376712 169.245279 
L 361.376712 164.551636 
L 370.485412 164.551636 
L 370.485412 159.857993 
L 379.385776 159.857993 
L 379.385776 155.16435 
L 387.9929 155.16435 
L 387.9929 150.470707 
L 398.308818 150.470707 
L 398.308818 145.777064 
L 398.382006 145.777064 
L 398.382006 141.083421 
L 398.544763 141.083421 
L 398.544763 136.389777 
L 398.655911 136.389777 
L 398.655911 131.696134 
L 398.939252 131.696134 
L 398.939252 127.002491 
L 398.991849 127.002491 
L 398.991849 122.308848 
L 399.047084 122.308848 
L 399.047084 117.615205 
L 399.175337 117.615205 
L 399.175337 112.921562 
L 399.291456 112.921562 
L 399.291456 108.227919 
L 399.650938 108.227919 
L 399.650938 103.534276 
L 400.083453 103.534276 
L 400.083453 98.840633 
L 400.089021 98.840633 
L 400.089021 94.14699 
L 400.213343 94.14699 
L 400.213343 89.453346 
L 400.298512 89.453346 
L 400.298512 84.759703 
L 400.400916 84.759703 
L 400.400916 80.06606 
L 400.438372 80.06606 
L 400.438372 75.372417 
L 400.446787 75.372417 
L 400.446787 70.678774 
L 400.450269 70.678774 
L 400.450269 65.985131 
L 400.547036 65.985131 
L 400.547036 61.291488 
L 400.68248 61.291488 
L 400.68248 56.597845 
L 400.806217 56.597845 
L 400.806217 51.904202 
L 400.8111 51.904202 
L 400.8111 47.210558 
L 400.984171 47.210558 
L 400.984171 42.516915 
L 401.095483 42.516915 
L 401.095483 37.823272 
L 401.300086 37.823272 
L 401.300086 33.129629 
L 401.412974 33.129629 
L 401.412974 28.435986 
L 401.418058 28.435986 
L 401.418058 23.742343 
L 401.504383 23.742343 
L 401.504383 19.0487 
L 401.774154 19.0487 
L 401.774154 14.355057 
L 402.633092 14.355057 
L 402.633092 9.661414 
L 402.633092 9.661414 
L 402.633092 9.661414 
L 450.672 9.661414 
" style="fill:none;stroke:#000000;stroke-linecap:square;stroke-width:1.5;"/>
   </g>
   <g id="line2d_90">
    <path clip-path="url(#p1e3f8347db)" style="fill:none;stroke:#000000;stroke-linecap:square;stroke-width:1.5;"/>
   </g>
   <g id="line2d_91">
    <path clip-path="url(#p1e3f8347db)" d="M 360.966335 291.28 
L 360.966335 286.586357 
L 362.14273 286.586357 
L 362.14273 281.892714 
L 364.001935 281.892714 
L 364.001935 277.199071 
L 364.600742 277.199071 
L 364.600742 272.505428 
L 364.94261 272.505428 
L 364.94261 267.811784 
L 365.338817 267.811784 
L 365.338817 263.118141 
L 367.904906 263.118141 
L 367.904906 258.424498 
L 369.849576 258.424498 
L 369.849576 253.730855 
L 371.830318 253.730855 
L 371.830318 249.037212 
L 371.870651 249.037212 
L 371.870651 244.343569 
L 378.055606 244.343569 
L 378.055606 239.649926 
L 379.037469 239.649926 
L 379.037469 234.956283 
L 379.575484 234.956283 
L 379.575484 230.26264 
L 387.565694 230.26264 
L 387.565694 225.568997 
L 396.471987 225.568997 
L 396.471987 220.875353 
L 457.894535 220.875353 
L 457.894535 216.18171 
L 457.999769 216.18171 
L 457.999769 211.488067 
L 458.145326 211.488067 
L 458.145326 206.794424 
L 458.149968 206.794424 
L 458.149968 202.100781 
L 458.162128 202.100781 
L 458.162128 197.407138 
L 458.265181 197.407138 
L 458.265181 192.713495 
L 458.288602 192.713495 
L 458.288602 188.019852 
L 458.304987 188.019852 
L 458.304987 183.326209 
L 458.306625 183.326209 
L 458.306625 178.632565 
L 458.35918 178.632565 
L 458.35918 173.938922 
L 458.389836 173.938922 
L 458.389836 169.245279 
L 458.394096 169.245279 
L 458.394096 164.551636 
L 458.396723 164.551636 
L 458.396723 159.857993 
L 458.427638 159.857993 
L 458.427638 155.16435 
L 458.491428 155.16435 
L 458.491428 150.470707 
L 458.57224 150.470707 
L 458.57224 145.777064 
L 458.58217 145.777064 
L 458.58217 141.083421 
L 458.605907 141.083421 
L 458.605907 136.389777 
L 458.606255 136.389777 
L 458.606255 131.696134 
L 458.711754 131.696134 
L 458.711754 127.002491 
L 458.736736 127.002491 
L 458.736736 122.308848 
L 458.785206 122.308848 
L 458.785206 117.615205 
L 458.838858 117.615205 
L 458.838858 112.921562 
L 458.855456 112.921562 
L 458.855456 108.227919 
L 458.875214 108.227919 
L 458.875214 103.534276 
L 458.894214 103.534276 
L 458.894214 98.840633 
L 458.924822 98.840633 
L 458.924822 94.14699 
L 458.942473 94.14699 
L 458.942473 89.453346 
L 458.960001 89.453346 
L 458.960001 84.759703 
L 459.133153 84.759703 
L 459.133153 80.06606 
L 459.133153 80.06606 
" style="fill:none;stroke:#00bfbf;stroke-linecap:square;stroke-width:1.5;"/>
   </g>
   <g id="line2d_92">
    <path clip-path="url(#p1e3f8347db)" style="fill:none;stroke:#00bfbf;stroke-linecap:square;stroke-width:1.5;"/>
   </g>
   <g id="line2d_93">
    <path clip-path="url(#p1e3f8347db)" d="M 378.433742 291.28 
L 378.433742 286.586357 
L 379.717887 286.586357 
L 379.717887 281.892714 
L 381.39613 281.892714 
L 381.39613 277.199071 
L 382.624572 277.199071 
L 382.624572 272.505428 
L 384.469142 272.505428 
L 384.469142 267.811784 
L 384.471399 267.811784 
L 384.471399 263.118141 
L 385.516615 263.118141 
L 385.516615 258.424498 
L 386.941202 258.424498 
L 386.941202 253.730855 
L 388.862049 253.730855 
L 388.862049 249.037212 
L 390.326053 249.037212 
L 390.326053 244.343569 
L 390.799774 244.343569 
L 390.799774 239.649926 
L 393.448632 239.649926 
L 393.448632 234.956283 
L 394.157194 234.956283 
L 394.157194 230.26264 
L 396.101849 230.26264 
L 396.101849 225.568997 
L 403.977128 225.568997 
L 403.977128 220.875353 
L 403.977128 220.875353 
L 403.977128 220.875353 
L 450.672 220.875353 
" style="fill:none;stroke:#bf00bf;stroke-linecap:square;stroke-width:1.5;"/>
   </g>
   <g id="line2d_94">
    <path clip-path="url(#p1e3f8347db)" style="fill:none;stroke:#bf00bf;stroke-linecap:square;stroke-width:1.5;"/>
   </g>
   <g id="line2d_95">
    <path clip-path="url(#p1e3f8347db)" d="M 392.268917 291.28 
L 392.268917 286.586357 
L 393.707584 286.586357 
L 393.707584 281.892714 
L 395.721267 281.892714 
L 395.721267 277.199071 
L 396.558036 277.199071 
L 396.558036 272.505428 
L 397.583116 272.505428 
L 397.583116 267.811784 
L 399.047989 267.811784 
L 399.047989 263.118141 
L 399.833774 263.118141 
L 399.833774 258.424498 
L 400.465061 258.424498 
L 400.465061 253.730855 
L 401.896723 253.730855 
L 401.896723 249.037212 
L 404.880905 249.037212 
L 404.880905 244.343569 
L 405.618835 244.343569 
L 405.618835 239.649926 
L 406.093697 239.649926 
L 406.093697 234.956283 
L 406.1594 234.956283 
L 406.1594 230.26264 
L 406.959015 230.26264 
L 406.959015 225.568997 
L 415.022074 225.568997 
L 415.022074 220.875353 
L 415.022074 220.875353 
L 415.022074 220.875353 
L 450.672 220.875353 
" style="fill:none;stroke:#ff0000;stroke-linecap:square;stroke-width:3;"/>
   </g>
   <g id="line2d_96">
    <path clip-path="url(#p1e3f8347db)" style="fill:none;stroke:#ff0000;stroke-linecap:square;stroke-width:3;"/>
   </g>
   <g id="line2d_97">
    <path clip-path="url(#p1e3f8347db)" d="M 450.672 291.28 
L 450.672 6.845228 
" style="fill:none;stroke:#000000;stroke-linecap:square;stroke-width:1.5;"/>
   </g>
   <g id="patch_3">
    <path d="M 59.72 291.28 
L 59.72 6.845228 
" style="fill:none;stroke:#000000;stroke-linecap:square;stroke-linejoin:miter;stroke-width:0.8;"/>
   </g>
   <g id="patch_4">
    <path d="M 450.672 291.28 
L 450.672 6.845228 
" style="fill:none;stroke:#000000;stroke-linecap:square;stroke-linejoin:miter;stroke-width:0.8;"/>
   </g>
   <g id="patch_5">
    <path d="M 59.72 291.28 
L 450.672 291.28 
" style="fill:none;stroke:#000000;stroke-linecap:square;stroke-linejoin:miter;stroke-width:0.8;"/>
   </g>
   <g id="patch_6">
    <path d="M 59.72 6.845228 
L 450.672 6.845228 
" style="fill:none;stroke:#000000;stroke-linecap:square;stroke-linejoin:miter;stroke-width:0.8;"/>
   </g>
   <g id="text_14">
    <!-- {f6-f9}, 20-D -->
    <defs>
     <path d="M 51.125 -9.28125 
L 51.125 -16.3125 
L 48.09375 -16.3125 
Q 35.9375 -16.3125 31.8125 -12.6875 
Q 27.6875 -9.078125 27.6875 1.703125 
L 27.6875 13.375 
Q 27.6875 20.75 25.046875 23.578125 
Q 22.40625 26.421875 15.484375 26.421875 
L 12.5 26.421875 
L 12.5 33.40625 
L 15.484375 33.40625 
Q 22.46875 33.40625 25.078125 36.203125 
Q 27.6875 39.015625 27.6875 46.296875 
L 27.6875 58.015625 
Q 27.6875 68.796875 31.8125 72.390625 
Q 35.9375 75.984375 48.09375 75.984375 
L 51.125 75.984375 
L 51.125 69 
L 47.796875 69 
Q 40.921875 69 38.8125 66.84375 
Q 36.71875 64.703125 36.71875 57.8125 
L 36.71875 45.703125 
Q 36.71875 38.03125 34.5 34.5625 
Q 32.28125 31.109375 26.90625 29.890625 
Q 32.328125 28.5625 34.515625 25.09375 
Q 36.71875 21.625 36.71875 14.015625 
L 36.71875 1.90625 
Q 36.71875 -4.984375 38.8125 -7.125 
Q 40.921875 -9.28125 47.796875 -9.28125 
z
" id="DejaVuSans-7b"/>
     <path d="M 4.890625 31.390625 
L 31.203125 31.390625 
L 31.203125 23.390625 
L 4.890625 23.390625 
z
" id="DejaVuSans-2d"/>
     <path d="M 10.984375 1.515625 
L 10.984375 10.5 
Q 14.703125 8.734375 18.5 7.8125 
Q 22.3125 6.890625 25.984375 6.890625 
Q 35.75 6.890625 40.890625 13.453125 
Q 46.046875 20.015625 46.78125 33.40625 
Q 43.953125 29.203125 39.59375 26.953125 
Q 35.25 24.703125 29.984375 24.703125 
Q 19.046875 24.703125 12.671875 31.3125 
Q 6.296875 37.9375 6.296875 49.421875 
Q 6.296875 60.640625 12.9375 67.421875 
Q 19.578125 74.21875 30.609375 74.21875 
Q 43.265625 74.21875 49.921875 64.515625 
Q 56.59375 54.828125 56.59375 36.375 
Q 56.59375 19.140625 48.40625 8.859375 
Q 40.234375 -1.421875 26.421875 -1.421875 
Q 22.703125 -1.421875 18.890625 -0.6875 
Q 15.09375 0.046875 10.984375 1.515625 
z
M 30.609375 32.421875 
Q 37.25 32.421875 41.125 36.953125 
Q 45.015625 41.5 45.015625 49.421875 
Q 45.015625 57.28125 41.125 61.84375 
Q 37.25 66.40625 30.609375 66.40625 
Q 23.96875 66.40625 20.09375 61.84375 
Q 16.21875 57.28125 16.21875 49.421875 
Q 16.21875 41.5 20.09375 36.953125 
Q 23.96875 32.421875 30.609375 32.421875 
z
" id="DejaVuSans-39"/>
     <path d="M 12.5 -9.28125 
L 15.921875 -9.28125 
Q 22.75 -9.28125 24.828125 -7.171875 
Q 26.90625 -5.078125 26.90625 1.90625 
L 26.90625 14.015625 
Q 26.90625 21.625 29.09375 25.09375 
Q 31.296875 28.5625 36.71875 29.890625 
Q 31.296875 31.109375 29.09375 34.5625 
Q 26.90625 38.03125 26.90625 45.703125 
L 26.90625 57.8125 
Q 26.90625 64.75 24.828125 66.875 
Q 22.75 69 15.921875 69 
L 12.5 69 
L 12.5 75.984375 
L 15.578125 75.984375 
Q 27.734375 75.984375 31.8125 72.390625 
Q 35.890625 68.796875 35.890625 58.015625 
L 35.890625 46.296875 
Q 35.890625 39.015625 38.515625 36.203125 
Q 41.15625 33.40625 48.09375 33.40625 
L 51.125 33.40625 
L 51.125 26.421875 
L 48.09375 26.421875 
Q 41.15625 26.421875 38.515625 23.578125 
Q 35.890625 20.75 35.890625 13.375 
L 35.890625 1.703125 
Q 35.890625 -9.078125 31.8125 -12.6875 
Q 27.734375 -16.3125 15.578125 -16.3125 
L 12.5 -16.3125 
z
" id="DejaVuSans-7d"/>
     <path d="M 11.71875 12.40625 
L 22.015625 12.40625 
L 22.015625 4 
L 14.015625 -11.625 
L 7.71875 -11.625 
L 11.71875 4 
z
" id="DejaVuSans-2c"/>
    </defs>
    <g transform="translate(188.7085 27.730798)scale(0.2 -0.2)">
     <use xlink:href="#DejaVuSans-7b"/>
     <use x="63.623047" xlink:href="#DejaVuSans-66"/>
     <use x="98.828125" xlink:href="#DejaVuSans-36"/>
     <use x="162.451172" xlink:href="#DejaVuSans-2d"/>
     <use x="198.535156" xlink:href="#DejaVuSans-66"/>
     <use x="233.740234" xlink:href="#DejaVuSans-39"/>
     <use x="297.363281" xlink:href="#DejaVuSans-7d"/>
     <use x="360.986328" xlink:href="#DejaVuSans-2c"/>
     <use x="392.773438" xlink:href="#DejaVuSans-20"/>
     <use x="424.560547" xlink:href="#DejaVuSans-32"/>
     <use x="488.183594" xlink:href="#DejaVuSans-30"/>
     <use x="551.806641" xlink:href="#DejaVuSans-2d"/>
     <use x="587.890625" xlink:href="#DejaVuSans-44"/>
    </g>
   </g>
   <g id="text_15">
    <!-- absolute targets -->
    <defs>
     <path d="M 48.6875 27.296875 
Q 48.6875 37.203125 44.609375 42.84375 
Q 40.53125 48.484375 33.40625 48.484375 
Q 26.265625 48.484375 22.1875 42.84375 
Q 18.109375 37.203125 18.109375 27.296875 
Q 18.109375 17.390625 22.1875 11.75 
Q 26.265625 6.109375 33.40625 6.109375 
Q 40.53125 6.109375 44.609375 11.75 
Q 48.6875 17.390625 48.6875 27.296875 
z
M 18.109375 46.390625 
Q 20.953125 51.265625 25.265625 53.625 
Q 29.59375 56 35.59375 56 
Q 45.5625 56 51.78125 48.09375 
Q 58.015625 40.1875 58.015625 27.296875 
Q 58.015625 14.40625 51.78125 6.484375 
Q 45.5625 -1.421875 35.59375 -1.421875 
Q 29.59375 -1.421875 25.265625 0.953125 
Q 20.953125 3.328125 18.109375 8.203125 
L 18.109375 0 
L 9.078125 0 
L 9.078125 75.984375 
L 18.109375 75.984375 
z
" id="DejaVuSans-62"/>
     <path d="M 8.5 21.578125 
L 8.5 54.6875 
L 17.484375 54.6875 
L 17.484375 21.921875 
Q 17.484375 14.15625 20.5 10.265625 
Q 23.53125 6.390625 29.59375 6.390625 
Q 36.859375 6.390625 41.078125 11.03125 
Q 45.3125 15.671875 45.3125 23.6875 
L 45.3125 54.6875 
L 54.296875 54.6875 
L 54.296875 0 
L 45.3125 0 
L 45.3125 8.40625 
Q 42.046875 3.421875 37.71875 1 
Q 33.40625 -1.421875 27.6875 -1.421875 
Q 18.265625 -1.421875 13.375 4.4375 
Q 8.5 10.296875 8.5 21.578125 
z
M 31.109375 56 
z
" id="DejaVuSans-75"/>
     <path d="M 56.203125 29.59375 
L 56.203125 25.203125 
L 14.890625 25.203125 
Q 15.484375 15.921875 20.484375 11.0625 
Q 25.484375 6.203125 34.421875 6.203125 
Q 39.59375 6.203125 44.453125 7.46875 
Q 49.3125 8.734375 54.109375 11.28125 
L 54.109375 2.78125 
Q 49.265625 0.734375 44.1875 -0.34375 
Q 39.109375 -1.421875 33.890625 -1.421875 
Q 20.796875 -1.421875 13.15625 6.1875 
Q 5.515625 13.8125 5.515625 26.8125 
Q 5.515625 40.234375 12.765625 48.109375 
Q 20.015625 56 32.328125 56 
Q 43.359375 56 49.78125 48.890625 
Q 56.203125 41.796875 56.203125 29.59375 
z
M 47.21875 32.234375 
Q 47.125 39.59375 43.09375 43.984375 
Q 39.0625 48.390625 32.421875 48.390625 
Q 24.90625 48.390625 20.390625 44.140625 
Q 15.875 39.890625 15.1875 32.171875 
z
" id="DejaVuSans-65"/>
    </defs>
    <g transform="translate(59.72 601.060445)scale(0.14 -0.14)">
     <use xlink:href="#DejaVuSans-61"/>
     <use x="61.279297" xlink:href="#DejaVuSans-62"/>
     <use x="124.755859" xlink:href="#DejaVuSans-73"/>
     <use x="176.855469" xlink:href="#DejaVuSans-6f"/>
     <use x="238.037109" xlink:href="#DejaVuSans-6c"/>
     <use x="265.820312" xlink:href="#DejaVuSans-75"/>
     <use x="329.199219" xlink:href="#DejaVuSans-74"/>
     <use x="368.408203" xlink:href="#DejaVuSans-65"/>
     <use x="429.931641" xlink:href="#DejaVuSans-20"/>
     <use x="461.71875" xlink:href="#DejaVuSans-74"/>
     <use x="500.927734" xlink:href="#DejaVuSans-61"/>
     <use x="562.207031" xlink:href="#DejaVuSans-72"/>
     <use x="603.304688" xlink:href="#DejaVuSans-67"/>
     <use x="666.78125" xlink:href="#DejaVuSans-65"/>
     <use x="728.304688" xlink:href="#DejaVuSans-74"/>
     <use x="767.513672" xlink:href="#DejaVuSans-73"/>
    </g>
   </g>
   <g id="text_16">
    <!-- v0.0.0 -->
    <g style="fill:#808080;" transform="translate(239.51475 286.355965)scale(0.1 -0.1)">
     <use xlink:href="#DejaVuSans-76"/>
     <use x="59.179688" xlink:href="#DejaVuSans-30"/>
     <use x="122.802734" xlink:href="#DejaVuSans-2e"/>
     <use x="154.589844" xlink:href="#DejaVuSans-30"/>
     <use x="218.212891" xlink:href="#DejaVuSans-2e"/>
     <use x="250" xlink:href="#DejaVuSans-30"/>
    </g>
   </g>
   <g id="legend_1">
    <g id="patch_7">
     <path d="M 73.72 140.270228 
L 202.941875 140.270228 
Q 206.941875 140.270228 206.941875 136.270228 
L 206.941875 20.845228 
Q 206.941875 16.845228 202.941875 16.845228 
L 73.72 16.845228 
Q 69.72 16.845228 69.72 20.845228 
L 69.72 136.270228 
Q 69.72 140.270228 73.72 140.270228 
z
" style="fill:#ffffff;opacity:0.2;stroke:#cccccc;stroke-linejoin:miter;"/>
    </g>
    <g id="line2d_98">
     <path d="M 77.72 33.042103 
L 117.72 33.042103 
" style="fill:none;stroke:#000000;stroke-linecap:square;stroke-width:1.5;"/>
    </g>
    <g id="line2d_99"/>
    <g id="text_17">
     <!-- 1: 4/4 -->
     <defs>
      <path d="M 11.71875 12.40625 
L 22.015625 12.40625 
L 22.015625 0 
L 11.71875 0 
z
M 11.71875 51.703125 
L 22.015625 51.703125 
L 22.015625 39.3125 
L 11.71875 39.3125 
z
" id="DejaVuSans-3a"/>
     </defs>
     <g transform="translate(133.72 40.042103)scale(0.2 -0.2)">
      <use xlink:href="#DejaVuSans-31"/>
      <use x="63.623047" xlink:href="#DejaVuSans-3a"/>
      <use x="97.314453" xlink:href="#DejaVuSans-20"/>
      <use x="129.101562" xlink:href="#DejaVuSans-34"/>
      <use x="192.724609" xlink:href="#DejaVuSans-2f"/>
      <use x="226.416016" xlink:href="#DejaVuSans-34"/>
     </g>
    </g>
    <g id="line2d_100">
     <path d="M 77.72 62.398353 
L 117.72 62.398353 
" style="fill:none;stroke:#00bfbf;stroke-linecap:square;stroke-width:1.5;"/>
    </g>
    <g id="line2d_101"/>
    <g id="text_18">
     <!-- -1: 1/4 -->
     <g transform="translate(133.72 69.398353)scale(0.2 -0.2)">
      <use xlink:href="#DejaVuSans-2d"/>
      <use x="36.083984" xlink:href="#DejaVuSans-31"/>
      <use x="99.707031" xlink:href="#DejaVuSans-3a"/>
      <use x="133.398438" xlink:href="#DejaVuSans-20"/>
      <use x="165.185547" xlink:href="#DejaVuSans-31"/>
      <use x="228.808594" xlink:href="#DejaVuSans-2f"/>
      <use x="262.5" xlink:href="#DejaVuSans-34"/>
     </g>
    </g>
    <g id="line2d_102">
     <path d="M 77.72 91.754603 
L 117.72 91.754603 
" style="fill:none;stroke:#bf00bf;stroke-linecap:square;stroke-width:1.5;"/>
    </g>
    <g id="line2d_103"/>
    <g id="text_19">
     <!-- -4: 1/4 -->
     <g transform="translate(133.72 98.754603)scale(0.2 -0.2)">
      <use xlink:href="#DejaVuSans-2d"/>
      <use x="36.083984" xlink:href="#DejaVuSans-34"/>
      <use x="99.707031" xlink:href="#DejaVuSans-3a"/>
      <use x="133.398438" xlink:href="#DejaVuSans-20"/>
      <use x="165.185547" xlink:href="#DejaVuSans-31"/>
      <use x="228.808594" xlink:href="#DejaVuSans-2f"/>
      <use x="262.5" xlink:href="#DejaVuSans-34"/>
     </g>
    </g>
    <g id="line2d_104">
     <path d="M 77.72 121.110853 
L 117.72 121.110853 
" style="fill:none;stroke:#ff0000;stroke-linecap:square;stroke-width:3;"/>
    </g>
    <g id="line2d_105"/>
    <g id="text_20">
     <!-- -8: 1/4 -->
     <g transform="translate(133.72 128.110853)scale(0.2 -0.2)">
      <use xlink:href="#DejaVuSans-2d"/>
      <use x="36.083984" xlink:href="#DejaVuSans-38"/>
      <use x="99.707031" xlink:href="#DejaVuSans-3a"/>
      <use x="133.398438" xlink:href="#DejaVuSans-20"/>
      <use x="165.185547" xlink:href="#DejaVuSans-31"/>
      <use x="228.808594" xlink:href="#DejaVuSans-2f"/>
      <use x="262.5" xlink:href="#DejaVuSans-34"/>
     </g>
    </g>
   </g>
  </g>
 </g>
 <defs>
  <clipPath id="p1e3f8347db">
   <rect height="284.434772" width="390.952" x="59.72" y="6.845228"/>
  </clipPath>
 </defs>
</svg>
