<?xml version="1.0" encoding="utf-8" standalone="no"?>
<!DOCTYPE svg PUBLIC "-//W3C//DTD SVG 1.1//EN"
  "http://www.w3.org/Graphics/SVG/1.1/DTD/svg11.dtd">
<!-- Created with matplotlib (http://matplotlib.org/) -->
<svg height="345.6pt" version="1.1" viewBox="0 0 460.8 345.6" width="460.8pt" xmlns="http://www.w3.org/2000/svg" xmlns:xlink="http://www.w3.org/1999/xlink">
 <defs>
  <style type="text/css">
*{stroke-linecap:butt;stroke-linejoin:round;}
  </style>
 </defs>
 <g id="figure_1">
  <g id="patch_1">
   <path d="M 0 345.6 
L 460.8 345.6 
L 460.8 0 
L 0 0 
z
" style="fill:#ffffff;"/>
  </g>
  <g id="axes_1">
   <g id="patch_2">
    <path d="M 56.12 294.88 
L 399.984 294.88 
L 399.984 6.845228 
L 56.12 6.845228 
z
" style="fill:#ffffff;"/>
   </g>
   <g id="matplotlib.axis_1">
    <g id="xtick_1">
     <g id="line2d_1">
      <path clip-path="url(#p2c7e734c9a)" d="M 56.12 294.88 
L 56.12 6.845228 
" style="fill:none;stroke:#b0b0b0;stroke-linecap:square;stroke-width:0.8;"/>
     </g>
     <g id="line2d_2">
      <defs>
       <path d="M 0 0 
L 0 3.5 
" id="m826d2584e1" style="stroke:#000000;stroke-width:0.8;"/>
      </defs>
      <g>
       <use style="stroke:#000000;stroke-width:0.8;" x="56.12" xlink:href="#m826d2584e1" y="294.88"/>
      </g>
     </g>
     <g id="text_1">
      <!-- 0 -->
      <defs>
       <path d="M 31.78125 66.40625 
Q 24.171875 66.40625 20.328125 58.90625 
Q 16.5 51.421875 16.5 36.375 
Q 16.5 21.390625 20.328125 13.890625 
Q 24.171875 6.390625 31.78125 6.390625 
Q 39.453125 6.390625 43.28125 13.890625 
Q 47.125 21.390625 47.125 36.375 
Q 47.125 51.421875 43.28125 58.90625 
Q 39.453125 66.40625 31.78125 66.40625 
z
M 31.78125 74.21875 
Q 44.046875 74.21875 50.515625 64.515625 
Q 56.984375 54.828125 56.984375 36.375 
Q 56.984375 17.96875 50.515625 8.265625 
Q 44.046875 -1.421875 31.78125 -1.421875 
Q 19.53125 -1.421875 13.0625 8.265625 
Q 6.59375 17.96875 6.59375 36.375 
Q 6.59375 54.828125 13.0625 64.515625 
Q 19.53125 74.21875 31.78125 74.21875 
z
" id="DejaVuSans-30"/>
      </defs>
      <g transform="translate(49.7575 317.076875)scale(0.2 -0.2)">
       <use xlink:href="#DejaVuSans-30"/>
      </g>
     </g>
    </g>
    <g id="xtick_2">
     <g id="line2d_3">
      <path clip-path="url(#p2c7e734c9a)" d="M 135.351336 294.88 
L 135.351336 6.845228 
" style="fill:none;stroke:#b0b0b0;stroke-linecap:square;stroke-width:0.8;"/>
     </g>
     <g id="line2d_4">
      <g>
       <use style="stroke:#000000;stroke-width:0.8;" x="135.351336" xlink:href="#m826d2584e1" y="294.88"/>
      </g>
     </g>
     <g id="text_2">
      <!-- 2 -->
      <defs>
       <path d="M 19.1875 8.296875 
L 53.609375 8.296875 
L 53.609375 0 
L 7.328125 0 
L 7.328125 8.296875 
Q 12.9375 14.109375 22.625 23.890625 
Q 32.328125 33.6875 34.8125 36.53125 
Q 39.546875 41.84375 41.421875 45.53125 
Q 43.3125 49.21875 43.3125 52.78125 
Q 43.3125 58.59375 39.234375 62.25 
Q 35.15625 65.921875 28.609375 65.921875 
Q 23.96875 65.921875 18.8125 64.3125 
Q 13.671875 62.703125 7.8125 59.421875 
L 7.8125 69.390625 
Q 13.765625 71.78125 18.9375 73 
Q 24.125 74.21875 28.421875 74.21875 
Q 39.75 74.21875 46.484375 68.546875 
Q 53.21875 62.890625 53.21875 53.421875 
Q 53.21875 48.921875 51.53125 44.890625 
Q 49.859375 40.875 45.40625 35.40625 
Q 44.1875 33.984375 37.640625 27.21875 
Q 31.109375 20.453125 19.1875 8.296875 
z
" id="DejaVuSans-32"/>
      </defs>
      <g transform="translate(128.988836 317.076875)scale(0.2 -0.2)">
       <use xlink:href="#DejaVuSans-32"/>
      </g>
     </g>
    </g>
    <g id="xtick_3">
     <g id="line2d_5">
      <path clip-path="url(#p2c7e734c9a)" d="M 214.582673 294.88 
L 214.582673 6.845228 
" style="fill:none;stroke:#b0b0b0;stroke-linecap:square;stroke-width:0.8;"/>
     </g>
     <g id="line2d_6">
      <g>
       <use style="stroke:#000000;stroke-width:0.8;" x="214.582673" xlink:href="#m826d2584e1" y="294.88"/>
      </g>
     </g>
     <g id="text_3">
      <!-- 4 -->
      <defs>
       <path d="M 37.796875 64.3125 
L 12.890625 25.390625 
L 37.796875 25.390625 
z
M 35.203125 72.90625 
L 47.609375 72.90625 
L 47.609375 25.390625 
L 58.015625 25.390625 
L 58.015625 17.1875 
L 47.609375 17.1875 
L 47.609375 0 
L 37.796875 0 
L 37.796875 17.1875 
L 4.890625 17.1875 
L 4.890625 26.703125 
z
" id="DejaVuSans-34"/>
      </defs>
      <g transform="translate(208.220173 317.076875)scale(0.2 -0.2)">
       <use xlink:href="#DejaVuSans-34"/>
      </g>
     </g>
    </g>
    <g id="xtick_4">
     <g id="line2d_7">
      <path clip-path="url(#p2c7e734c9a)" d="M 293.814009 294.88 
L 293.814009 6.845228 
" style="fill:none;stroke:#b0b0b0;stroke-linecap:square;stroke-width:0.8;"/>
     </g>
     <g id="line2d_8">
      <g>
       <use style="stroke:#000000;stroke-width:0.8;" x="293.814009" xlink:href="#m826d2584e1" y="294.88"/>
      </g>
     </g>
     <g id="text_4">
      <!-- 6 -->
      <defs>
       <path d="M 33.015625 40.375 
Q 26.375 40.375 22.484375 35.828125 
Q 18.609375 31.296875 18.609375 23.390625 
Q 18.609375 15.53125 22.484375 10.953125 
Q 26.375 6.390625 33.015625 6.390625 
Q 39.65625 6.390625 43.53125 10.953125 
Q 47.40625 15.53125 47.40625 23.390625 
Q 47.40625 31.296875 43.53125 35.828125 
Q 39.65625 40.375 33.015625 40.375 
z
M 52.59375 71.296875 
L 52.59375 62.3125 
Q 48.875 64.0625 45.09375 64.984375 
Q 41.3125 65.921875 37.59375 65.921875 
Q 27.828125 65.921875 22.671875 59.328125 
Q 17.53125 52.734375 16.796875 39.40625 
Q 19.671875 43.65625 24.015625 45.921875 
Q 28.375 48.1875 33.59375 48.1875 
Q 44.578125 48.1875 50.953125 41.515625 
Q 57.328125 34.859375 57.328125 23.390625 
Q 57.328125 12.15625 50.6875 5.359375 
Q 44.046875 -1.421875 33.015625 -1.421875 
Q 20.359375 -1.421875 13.671875 8.265625 
Q 6.984375 17.96875 6.984375 36.375 
Q 6.984375 53.65625 15.1875 63.9375 
Q 23.390625 74.21875 37.203125 74.21875 
Q 40.921875 74.21875 44.703125 73.484375 
Q 48.484375 72.75 52.59375 71.296875 
z
" id="DejaVuSans-36"/>
      </defs>
      <g transform="translate(287.451509 317.076875)scale(0.2 -0.2)">
       <use xlink:href="#DejaVuSans-36"/>
      </g>
     </g>
    </g>
    <g id="xtick_5">
     <g id="line2d_9">
      <path clip-path="url(#p2c7e734c9a)" d="M 373.045346 294.88 
L 373.045346 6.845228 
" style="fill:none;stroke:#b0b0b0;stroke-linecap:square;stroke-width:0.8;"/>
     </g>
     <g id="line2d_10">
      <g>
       <use style="stroke:#000000;stroke-width:0.8;" x="373.045346" xlink:href="#m826d2584e1" y="294.88"/>
      </g>
     </g>
     <g id="text_5">
      <!-- 8 -->
      <defs>
       <path d="M 31.78125 34.625 
Q 24.75 34.625 20.71875 30.859375 
Q 16.703125 27.09375 16.703125 20.515625 
Q 16.703125 13.921875 20.71875 10.15625 
Q 24.75 6.390625 31.78125 6.390625 
Q 38.8125 6.390625 42.859375 10.171875 
Q 46.921875 13.96875 46.921875 20.515625 
Q 46.921875 27.09375 42.890625 30.859375 
Q 38.875 34.625 31.78125 34.625 
z
M 21.921875 38.8125 
Q 15.578125 40.375 12.03125 44.71875 
Q 8.5 49.078125 8.5 55.328125 
Q 8.5 64.0625 14.71875 69.140625 
Q 20.953125 74.21875 31.78125 74.21875 
Q 42.671875 74.21875 48.875 69.140625 
Q 55.078125 64.0625 55.078125 55.328125 
Q 55.078125 49.078125 51.53125 44.71875 
Q 48 40.375 41.703125 38.8125 
Q 48.828125 37.15625 52.796875 32.3125 
Q 56.78125 27.484375 56.78125 20.515625 
Q 56.78125 9.90625 50.3125 4.234375 
Q 43.84375 -1.421875 31.78125 -1.421875 
Q 19.734375 -1.421875 13.25 4.234375 
Q 6.78125 9.90625 6.78125 20.515625 
Q 6.78125 27.484375 10.78125 32.3125 
Q 14.796875 37.15625 21.921875 38.8125 
z
M 18.3125 54.390625 
Q 18.3125 48.734375 21.84375 45.5625 
Q 25.390625 42.390625 31.78125 42.390625 
Q 38.140625 42.390625 41.71875 45.5625 
Q 45.3125 48.734375 45.3125 54.390625 
Q 45.3125 60.0625 41.71875 63.234375 
Q 38.140625 66.40625 31.78125 66.40625 
Q 25.390625 66.40625 21.84375 63.234375 
Q 18.3125 60.0625 18.3125 54.390625 
z
" id="DejaVuSans-38"/>
      </defs>
      <g transform="translate(366.682846 317.076875)scale(0.2 -0.2)">
       <use xlink:href="#DejaVuSans-38"/>
      </g>
     </g>
    </g>
    <g id="text_6">
     <!-- log10(# f-evals / dimension) -->
     <defs>
      <path d="M 9.421875 75.984375 
L 18.40625 75.984375 
L 18.40625 0 
L 9.421875 0 
z
" id="DejaVuSans-6c"/>
      <path d="M 30.609375 48.390625 
Q 23.390625 48.390625 19.1875 42.75 
Q 14.984375 37.109375 14.984375 27.296875 
Q 14.984375 17.484375 19.15625 11.84375 
Q 23.34375 6.203125 30.609375 6.203125 
Q 37.796875 6.203125 41.984375 11.859375 
Q 46.1875 17.53125 46.1875 27.296875 
Q 46.1875 37.015625 41.984375 42.703125 
Q 37.796875 48.390625 30.609375 48.390625 
z
M 30.609375 56 
Q 42.328125 56 49.015625 48.375 
Q 55.71875 40.765625 55.71875 27.296875 
Q 55.71875 13.875 49.015625 6.21875 
Q 42.328125 -1.421875 30.609375 -1.421875 
Q 18.84375 -1.421875 12.171875 6.21875 
Q 5.515625 13.875 5.515625 27.296875 
Q 5.515625 40.765625 12.171875 48.375 
Q 18.84375 56 30.609375 56 
z
" id="DejaVuSans-6f"/>
      <path d="M 45.40625 27.984375 
Q 45.40625 37.75 41.375 43.109375 
Q 37.359375 48.484375 30.078125 48.484375 
Q 22.859375 48.484375 18.828125 43.109375 
Q 14.796875 37.75 14.796875 27.984375 
Q 14.796875 18.265625 18.828125 12.890625 
Q 22.859375 7.515625 30.078125 7.515625 
Q 37.359375 7.515625 41.375 12.890625 
Q 45.40625 18.265625 45.40625 27.984375 
z
M 54.390625 6.78125 
Q 54.390625 -7.171875 48.1875 -13.984375 
Q 42 -20.796875 29.203125 -20.796875 
Q 24.46875 -20.796875 20.265625 -20.09375 
Q 16.0625 -19.390625 12.109375 -17.921875 
L 12.109375 -9.1875 
Q 16.0625 -11.328125 19.921875 -12.34375 
Q 23.78125 -13.375 27.78125 -13.375 
Q 36.625 -13.375 41.015625 -8.765625 
Q 45.40625 -4.15625 45.40625 5.171875 
L 45.40625 9.625 
Q 42.625 4.78125 38.28125 2.390625 
Q 33.9375 0 27.875 0 
Q 17.828125 0 11.671875 7.65625 
Q 5.515625 15.328125 5.515625 27.984375 
Q 5.515625 40.671875 11.671875 48.328125 
Q 17.828125 56 27.875 56 
Q 33.9375 56 38.28125 53.609375 
Q 42.625 51.21875 45.40625 46.390625 
L 45.40625 54.6875 
L 54.390625 54.6875 
z
" id="DejaVuSans-67"/>
      <path d="M 12.40625 8.296875 
L 28.515625 8.296875 
L 28.515625 63.921875 
L 10.984375 60.40625 
L 10.984375 69.390625 
L 28.421875 72.90625 
L 38.28125 72.90625 
L 38.28125 8.296875 
L 54.390625 8.296875 
L 54.390625 0 
L 12.40625 0 
z
" id="DejaVuSans-31"/>
      <path d="M 31 75.875 
Q 24.46875 64.65625 21.28125 53.65625 
Q 18.109375 42.671875 18.109375 31.390625 
Q 18.109375 20.125 21.3125 9.0625 
Q 24.515625 -2 31 -13.1875 
L 23.1875 -13.1875 
Q 15.875 -1.703125 12.234375 9.375 
Q 8.59375 20.453125 8.59375 31.390625 
Q 8.59375 42.28125 12.203125 53.3125 
Q 15.828125 64.359375 23.1875 75.875 
z
" id="DejaVuSans-28"/>
      <path d="M 51.125 44 
L 36.921875 44 
L 32.8125 27.6875 
L 47.125 27.6875 
z
M 43.796875 71.78125 
L 38.71875 51.515625 
L 52.984375 51.515625 
L 58.109375 71.78125 
L 65.921875 71.78125 
L 60.890625 51.515625 
L 76.125 51.515625 
L 76.125 44 
L 58.984375 44 
L 54.984375 27.6875 
L 70.515625 27.6875 
L 70.515625 20.21875 
L 53.078125 20.21875 
L 48 0 
L 40.1875 0 
L 45.21875 20.21875 
L 30.90625 20.21875 
L 25.875 0 
L 18.015625 0 
L 23.09375 20.21875 
L 7.71875 20.21875 
L 7.71875 27.6875 
L 24.90625 27.6875 
L 29 44 
L 13.28125 44 
L 13.28125 51.515625 
L 30.90625 51.515625 
L 35.890625 71.78125 
z
" id="DejaVuSans-23"/>
      <path id="DejaVuSans-20"/>
      <path d="M 37.109375 75.984375 
L 37.109375 68.5 
L 28.515625 68.5 
Q 23.6875 68.5 21.796875 66.546875 
Q 19.921875 64.59375 19.921875 59.515625 
L 19.921875 54.6875 
L 34.71875 54.6875 
L 34.71875 47.703125 
L 19.921875 47.703125 
L 19.921875 0 
L 10.890625 0 
L 10.890625 47.703125 
L 2.296875 47.703125 
L 2.296875 54.6875 
L 10.890625 54.6875 
L 10.890625 58.5 
Q 10.890625 67.625 15.140625 71.796875 
Q 19.390625 75.984375 28.609375 75.984375 
z
" id="DejaVuSans-66"/>
      <path d="M 4.890625 31.390625 
L 31.203125 31.390625 
L 31.203125 23.390625 
L 4.890625 23.390625 
z
" id="DejaVuSans-2d"/>
      <path d="M 56.203125 29.59375 
L 56.203125 25.203125 
L 14.890625 25.203125 
Q 15.484375 15.921875 20.484375 11.0625 
Q 25.484375 6.203125 34.421875 6.203125 
Q 39.59375 6.203125 44.453125 7.46875 
Q 49.3125 8.734375 54.109375 11.28125 
L 54.109375 2.78125 
Q 49.265625 0.734375 44.1875 -0.34375 
Q 39.109375 -1.421875 33.890625 -1.421875 
Q 20.796875 -1.421875 13.15625 6.1875 
Q 5.515625 13.8125 5.515625 26.8125 
Q 5.515625 40.234375 12.765625 48.109375 
Q 20.015625 56 32.328125 56 
Q 43.359375 56 49.78125 48.890625 
Q 56.203125 41.796875 56.203125 29.59375 
z
M 47.21875 32.234375 
Q 47.125 39.59375 43.09375 43.984375 
Q 39.0625 48.390625 32.421875 48.390625 
Q 24.90625 48.390625 20.390625 44.140625 
Q 15.875 39.890625 15.1875 32.171875 
z
" id="DejaVuSans-65"/>
      <path d="M 2.984375 54.6875 
L 12.5 54.6875 
L 29.59375 8.796875 
L 46.6875 54.6875 
L 56.203125 54.6875 
L 35.6875 0 
L 23.484375 0 
z
" id="DejaVuSans-76"/>
      <path d="M 34.28125 27.484375 
Q 23.390625 27.484375 19.1875 25 
Q 14.984375 22.515625 14.984375 16.5 
Q 14.984375 11.71875 18.140625 8.90625 
Q 21.296875 6.109375 26.703125 6.109375 
Q 34.1875 6.109375 38.703125 11.40625 
Q 43.21875 16.703125 43.21875 25.484375 
L 43.21875 27.484375 
z
M 52.203125 31.203125 
L 52.203125 0 
L 43.21875 0 
L 43.21875 8.296875 
Q 40.140625 3.328125 35.546875 0.953125 
Q 30.953125 -1.421875 24.3125 -1.421875 
Q 15.921875 -1.421875 10.953125 3.296875 
Q 6 8.015625 6 15.921875 
Q 6 25.140625 12.171875 29.828125 
Q 18.359375 34.515625 30.609375 34.515625 
L 43.21875 34.515625 
L 43.21875 35.40625 
Q 43.21875 41.609375 39.140625 45 
Q 35.0625 48.390625 27.6875 48.390625 
Q 23 48.390625 18.546875 47.265625 
Q 14.109375 46.140625 10.015625 43.890625 
L 10.015625 52.203125 
Q 14.9375 54.109375 19.578125 55.046875 
Q 24.21875 56 28.609375 56 
Q 40.484375 56 46.34375 49.84375 
Q 52.203125 43.703125 52.203125 31.203125 
z
" id="DejaVuSans-61"/>
      <path d="M 44.28125 53.078125 
L 44.28125 44.578125 
Q 40.484375 46.53125 36.375 47.5 
Q 32.28125 48.484375 27.875 48.484375 
Q 21.1875 48.484375 17.84375 46.4375 
Q 14.5 44.390625 14.5 40.28125 
Q 14.5 37.15625 16.890625 35.375 
Q 19.28125 33.59375 26.515625 31.984375 
L 29.59375 31.296875 
Q 39.15625 29.25 43.1875 25.515625 
Q 47.21875 21.78125 47.21875 15.09375 
Q 47.21875 7.46875 41.1875 3.015625 
Q 35.15625 -1.421875 24.609375 -1.421875 
Q 20.21875 -1.421875 15.453125 -0.5625 
Q 10.6875 0.296875 5.421875 2 
L 5.421875 11.28125 
Q 10.40625 8.6875 15.234375 7.390625 
Q 20.0625 6.109375 24.8125 6.109375 
Q 31.15625 6.109375 34.5625 8.28125 
Q 37.984375 10.453125 37.984375 14.40625 
Q 37.984375 18.0625 35.515625 20.015625 
Q 33.0625 21.96875 24.703125 23.78125 
L 21.578125 24.515625 
Q 13.234375 26.265625 9.515625 29.90625 
Q 5.8125 33.546875 5.8125 39.890625 
Q 5.8125 47.609375 11.28125 51.796875 
Q 16.75 56 26.8125 56 
Q 31.78125 56 36.171875 55.265625 
Q 40.578125 54.546875 44.28125 53.078125 
z
" id="DejaVuSans-73"/>
      <path d="M 25.390625 72.90625 
L 33.6875 72.90625 
L 8.296875 -9.28125 
L 0 -9.28125 
z
" id="DejaVuSans-2f"/>
      <path d="M 45.40625 46.390625 
L 45.40625 75.984375 
L 54.390625 75.984375 
L 54.390625 0 
L 45.40625 0 
L 45.40625 8.203125 
Q 42.578125 3.328125 38.25 0.953125 
Q 33.9375 -1.421875 27.875 -1.421875 
Q 17.96875 -1.421875 11.734375 6.484375 
Q 5.515625 14.40625 5.515625 27.296875 
Q 5.515625 40.1875 11.734375 48.09375 
Q 17.96875 56 27.875 56 
Q 33.9375 56 38.25 53.625 
Q 42.578125 51.265625 45.40625 46.390625 
z
M 14.796875 27.296875 
Q 14.796875 17.390625 18.875 11.75 
Q 22.953125 6.109375 30.078125 6.109375 
Q 37.203125 6.109375 41.296875 11.75 
Q 45.40625 17.390625 45.40625 27.296875 
Q 45.40625 37.203125 41.296875 42.84375 
Q 37.203125 48.484375 30.078125 48.484375 
Q 22.953125 48.484375 18.875 42.84375 
Q 14.796875 37.203125 14.796875 27.296875 
z
" id="DejaVuSans-64"/>
      <path d="M 9.421875 54.6875 
L 18.40625 54.6875 
L 18.40625 0 
L 9.421875 0 
z
M 9.421875 75.984375 
L 18.40625 75.984375 
L 18.40625 64.59375 
L 9.421875 64.59375 
z
" id="DejaVuSans-69"/>
      <path d="M 52 44.1875 
Q 55.375 50.25 60.0625 53.125 
Q 64.75 56 71.09375 56 
Q 79.640625 56 84.28125 50.015625 
Q 88.921875 44.046875 88.921875 33.015625 
L 88.921875 0 
L 79.890625 0 
L 79.890625 32.71875 
Q 79.890625 40.578125 77.09375 44.375 
Q 74.3125 48.1875 68.609375 48.1875 
Q 61.625 48.1875 57.5625 43.546875 
Q 53.515625 38.921875 53.515625 30.90625 
L 53.515625 0 
L 44.484375 0 
L 44.484375 32.71875 
Q 44.484375 40.625 41.703125 44.40625 
Q 38.921875 48.1875 33.109375 48.1875 
Q 26.21875 48.1875 22.15625 43.53125 
Q 18.109375 38.875 18.109375 30.90625 
L 18.109375 0 
L 9.078125 0 
L 9.078125 54.6875 
L 18.109375 54.6875 
L 18.109375 46.1875 
Q 21.1875 51.21875 25.484375 53.609375 
Q 29.78125 56 35.6875 56 
Q 41.65625 56 45.828125 52.96875 
Q 50 49.953125 52 44.1875 
z
" id="DejaVuSans-6d"/>
      <path d="M 54.890625 33.015625 
L 54.890625 0 
L 45.90625 0 
L 45.90625 32.71875 
Q 45.90625 40.484375 42.875 44.328125 
Q 39.84375 48.1875 33.796875 48.1875 
Q 26.515625 48.1875 22.3125 43.546875 
Q 18.109375 38.921875 18.109375 30.90625 
L 18.109375 0 
L 9.078125 0 
L 9.078125 54.6875 
L 18.109375 54.6875 
L 18.109375 46.1875 
Q 21.34375 51.125 25.703125 53.5625 
Q 30.078125 56 35.796875 56 
Q 45.21875 56 50.046875 50.171875 
Q 54.890625 44.34375 54.890625 33.015625 
z
" id="DejaVuSans-6e"/>
      <path d="M 8.015625 75.875 
L 15.828125 75.875 
Q 23.140625 64.359375 26.78125 53.3125 
Q 30.421875 42.28125 30.421875 31.390625 
Q 30.421875 20.453125 26.78125 9.375 
Q 23.140625 -1.703125 15.828125 -13.1875 
L 8.015625 -13.1875 
Q 14.5 -2 17.703125 9.0625 
Q 20.90625 20.125 20.90625 31.390625 
Q 20.90625 42.671875 17.703125 53.65625 
Q 14.5 64.65625 8.015625 75.875 
z
" id="DejaVuSans-29"/>
     </defs>
     <g transform="translate(107.211219 338.153594)scale(0.17 -0.17)">
      <use xlink:href="#DejaVuSans-6c"/>
      <use x="27.783203" xlink:href="#DejaVuSans-6f"/>
      <use x="88.964844" xlink:href="#DejaVuSans-67"/>
      <use x="152.441406" xlink:href="#DejaVuSans-31"/>
      <use x="216.064453" xlink:href="#DejaVuSans-30"/>
      <use x="279.6875" xlink:href="#DejaVuSans-28"/>
      <use x="318.701172" xlink:href="#DejaVuSans-23"/>
      <use x="402.490234" xlink:href="#DejaVuSans-20"/>
      <use x="434.277344" xlink:href="#DejaVuSans-66"/>
      <use x="469.404297" xlink:href="#DejaVuSans-2d"/>
      <use x="505.488281" xlink:href="#DejaVuSans-65"/>
      <use x="567.011719" xlink:href="#DejaVuSans-76"/>
      <use x="626.191406" xlink:href="#DejaVuSans-61"/>
      <use x="687.470703" xlink:href="#DejaVuSans-6c"/>
      <use x="715.253906" xlink:href="#DejaVuSans-73"/>
      <use x="767.353516" xlink:href="#DejaVuSans-20"/>
      <use x="799.140625" xlink:href="#DejaVuSans-2f"/>
      <use x="832.832031" xlink:href="#DejaVuSans-20"/>
      <use x="864.619141" xlink:href="#DejaVuSans-64"/>
      <use x="928.095703" xlink:href="#DejaVuSans-69"/>
      <use x="955.878906" xlink:href="#DejaVuSans-6d"/>
      <use x="1053.291016" xlink:href="#DejaVuSans-65"/>
      <use x="1114.814453" xlink:href="#DejaVuSans-6e"/>
      <use x="1178.193359" xlink:href="#DejaVuSans-73"/>
      <use x="1230.292969" xlink:href="#DejaVuSans-69"/>
      <use x="1258.076172" xlink:href="#DejaVuSans-6f"/>
      <use x="1319.257812" xlink:href="#DejaVuSans-6e"/>
      <use x="1382.636719" xlink:href="#DejaVuSans-29"/>
     </g>
    </g>
   </g>
   <g id="matplotlib.axis_2">
    <g id="ytick_1">
     <g id="line2d_11">
      <path clip-path="url(#p2c7e734c9a)" d="M 56.12 294.88 
L 399.984 294.88 
" style="fill:none;stroke:#b0b0b0;stroke-linecap:square;stroke-width:0.8;"/>
     </g>
     <g id="line2d_12">
      <defs>
       <path d="M 0 0 
L -3.5 0 
" id="mff94483280" style="stroke:#000000;stroke-width:0.8;"/>
      </defs>
      <g>
       <use style="stroke:#000000;stroke-width:0.8;" x="56.12" xlink:href="#mff94483280" y="294.88"/>
      </g>
     </g>
     <g id="text_7">
      <!-- 0.0 -->
      <defs>
       <path d="M 10.6875 12.40625 
L 21 12.40625 
L 21 0 
L 10.6875 0 
z
" id="DejaVuSans-2e"/>
      </defs>
      <g transform="translate(23.675 300.95875)scale(0.16 -0.16)">
       <use xlink:href="#DejaVuSans-30"/>
       <use x="63.623047" xlink:href="#DejaVuSans-2e"/>
       <use x="95.410156" xlink:href="#DejaVuSans-30"/>
      </g>
     </g>
    </g>
    <g id="ytick_2">
     <g id="line2d_13">
      <path clip-path="url(#p2c7e734c9a)" d="M 56.12 237.843411 
L 399.984 237.843411 
" style="fill:none;stroke:#b0b0b0;stroke-linecap:square;stroke-width:0.8;"/>
     </g>
     <g id="line2d_14">
      <g>
       <use style="stroke:#000000;stroke-width:0.8;" x="56.12" xlink:href="#mff94483280" y="237.843411"/>
      </g>
     </g>
     <g id="text_8">
      <!-- 0.2 -->
      <g transform="translate(23.675 243.922161)scale(0.16 -0.16)">
       <use xlink:href="#DejaVuSans-30"/>
       <use x="63.623047" xlink:href="#DejaVuSans-2e"/>
       <use x="95.410156" xlink:href="#DejaVuSans-32"/>
      </g>
     </g>
    </g>
    <g id="ytick_3">
     <g id="line2d_15">
      <path clip-path="url(#p2c7e734c9a)" d="M 56.12 180.806823 
L 399.984 180.806823 
" style="fill:none;stroke:#b0b0b0;stroke-linecap:square;stroke-width:0.8;"/>
     </g>
     <g id="line2d_16">
      <g>
       <use style="stroke:#000000;stroke-width:0.8;" x="56.12" xlink:href="#mff94483280" y="180.806823"/>
      </g>
     </g>
     <g id="text_9">
      <!-- 0.4 -->
      <g transform="translate(23.675 186.885573)scale(0.16 -0.16)">
       <use xlink:href="#DejaVuSans-30"/>
       <use x="63.623047" xlink:href="#DejaVuSans-2e"/>
       <use x="95.410156" xlink:href="#DejaVuSans-34"/>
      </g>
     </g>
    </g>
    <g id="ytick_4">
     <g id="line2d_17">
      <path clip-path="url(#p2c7e734c9a)" d="M 56.12 123.770234 
L 399.984 123.770234 
" style="fill:none;stroke:#b0b0b0;stroke-linecap:square;stroke-width:0.8;"/>
     </g>
     <g id="line2d_18">
      <g>
       <use style="stroke:#000000;stroke-width:0.8;" x="56.12" xlink:href="#mff94483280" y="123.770234"/>
      </g>
     </g>
     <g id="text_10">
      <!-- 0.6 -->
      <g transform="translate(23.675 129.848984)scale(0.16 -0.16)">
       <use xlink:href="#DejaVuSans-30"/>
       <use x="63.623047" xlink:href="#DejaVuSans-2e"/>
       <use x="95.410156" xlink:href="#DejaVuSans-36"/>
      </g>
     </g>
    </g>
    <g id="ytick_5">
     <g id="line2d_19">
      <path clip-path="url(#p2c7e734c9a)" d="M 56.12 66.733646 
L 399.984 66.733646 
" style="fill:none;stroke:#b0b0b0;stroke-linecap:square;stroke-width:0.8;"/>
     </g>
     <g id="line2d_20">
      <g>
       <use style="stroke:#000000;stroke-width:0.8;" x="56.12" xlink:href="#mff94483280" y="66.733646"/>
      </g>
     </g>
     <g id="text_11">
      <!-- 0.8 -->
      <g transform="translate(23.675 72.812396)scale(0.16 -0.16)">
       <use xlink:href="#DejaVuSans-30"/>
       <use x="63.623047" xlink:href="#DejaVuSans-2e"/>
       <use x="95.410156" xlink:href="#DejaVuSans-38"/>
      </g>
     </g>
    </g>
    <g id="ytick_6">
     <g id="line2d_21">
      <path clip-path="url(#p2c7e734c9a)" d="M 56.12 9.697057 
L 399.984 9.697057 
" style="fill:none;stroke:#b0b0b0;stroke-linecap:square;stroke-width:0.8;"/>
     </g>
     <g id="line2d_22">
      <g>
       <use style="stroke:#000000;stroke-width:0.8;" x="56.12" xlink:href="#mff94483280" y="9.697057"/>
      </g>
     </g>
     <g id="text_12">
      <!-- 1.0 -->
      <g transform="translate(23.675 15.775807)scale(0.16 -0.16)">
       <use xlink:href="#DejaVuSans-31"/>
       <use x="63.623047" xlink:href="#DejaVuSans-2e"/>
       <use x="95.410156" xlink:href="#DejaVuSans-30"/>
      </g>
     </g>
    </g>
    <g id="text_13">
     <!-- Fraction of function,target pairs -->
     <defs>
      <path d="M 9.8125 72.90625 
L 51.703125 72.90625 
L 51.703125 64.59375 
L 19.671875 64.59375 
L 19.671875 43.109375 
L 48.578125 43.109375 
L 48.578125 34.8125 
L 19.671875 34.8125 
L 19.671875 0 
L 9.8125 0 
z
" id="DejaVuSans-46"/>
      <path d="M 41.109375 46.296875 
Q 39.59375 47.171875 37.8125 47.578125 
Q 36.03125 48 33.890625 48 
Q 26.265625 48 22.1875 43.046875 
Q 18.109375 38.09375 18.109375 28.8125 
L 18.109375 0 
L 9.078125 0 
L 9.078125 54.6875 
L 18.109375 54.6875 
L 18.109375 46.1875 
Q 20.953125 51.171875 25.484375 53.578125 
Q 30.03125 56 36.53125 56 
Q 37.453125 56 38.578125 55.875 
Q 39.703125 55.765625 41.0625 55.515625 
z
" id="DejaVuSans-72"/>
      <path d="M 48.78125 52.59375 
L 48.78125 44.1875 
Q 44.96875 46.296875 41.140625 47.34375 
Q 37.3125 48.390625 33.40625 48.390625 
Q 24.65625 48.390625 19.8125 42.84375 
Q 14.984375 37.3125 14.984375 27.296875 
Q 14.984375 17.28125 19.8125 11.734375 
Q 24.65625 6.203125 33.40625 6.203125 
Q 37.3125 6.203125 41.140625 7.25 
Q 44.96875 8.296875 48.78125 10.40625 
L 48.78125 2.09375 
Q 45.015625 0.34375 40.984375 -0.53125 
Q 36.96875 -1.421875 32.421875 -1.421875 
Q 20.0625 -1.421875 12.78125 6.34375 
Q 5.515625 14.109375 5.515625 27.296875 
Q 5.515625 40.671875 12.859375 48.328125 
Q 20.21875 56 33.015625 56 
Q 37.15625 56 41.109375 55.140625 
Q 45.0625 54.296875 48.78125 52.59375 
z
" id="DejaVuSans-63"/>
      <path d="M 18.3125 70.21875 
L 18.3125 54.6875 
L 36.8125 54.6875 
L 36.8125 47.703125 
L 18.3125 47.703125 
L 18.3125 18.015625 
Q 18.3125 11.328125 20.140625 9.421875 
Q 21.96875 7.515625 27.59375 7.515625 
L 36.8125 7.515625 
L 36.8125 0 
L 27.59375 0 
Q 17.1875 0 13.234375 3.875 
Q 9.28125 7.765625 9.28125 18.015625 
L 9.28125 47.703125 
L 2.6875 47.703125 
L 2.6875 54.6875 
L 9.28125 54.6875 
L 9.28125 70.21875 
z
" id="DejaVuSans-74"/>
      <path d="M 8.5 21.578125 
L 8.5 54.6875 
L 17.484375 54.6875 
L 17.484375 21.921875 
Q 17.484375 14.15625 20.5 10.265625 
Q 23.53125 6.390625 29.59375 6.390625 
Q 36.859375 6.390625 41.078125 11.03125 
Q 45.3125 15.671875 45.3125 23.6875 
L 45.3125 54.6875 
L 54.296875 54.6875 
L 54.296875 0 
L 45.3125 0 
L 45.3125 8.40625 
Q 42.046875 3.421875 37.71875 1 
Q 33.40625 -1.421875 27.6875 -1.421875 
Q 18.265625 -1.421875 13.375 4.4375 
Q 8.5 10.296875 8.5 21.578125 
z
M 31.109375 56 
z
" id="DejaVuSans-75"/>
      <path d="M 11.71875 12.40625 
L 22.015625 12.40625 
L 22.015625 4 
L 14.015625 -11.625 
L 7.71875 -11.625 
L 11.71875 4 
z
" id="DejaVuSans-2c"/>
      <path d="M 18.109375 8.203125 
L 18.109375 -20.796875 
L 9.078125 -20.796875 
L 9.078125 54.6875 
L 18.109375 54.6875 
L 18.109375 46.390625 
Q 20.953125 51.265625 25.265625 53.625 
Q 29.59375 56 35.59375 56 
Q 45.5625 56 51.78125 48.09375 
Q 58.015625 40.1875 58.015625 27.296875 
Q 58.015625 14.40625 51.78125 6.484375 
Q 45.5625 -1.421875 35.59375 -1.421875 
Q 29.59375 -1.421875 25.265625 0.953125 
Q 20.953125 3.328125 18.109375 8.203125 
z
M 48.6875 27.296875 
Q 48.6875 37.203125 44.609375 42.84375 
Q 40.53125 48.484375 33.40625 48.484375 
Q 26.265625 48.484375 22.1875 42.84375 
Q 18.109375 37.203125 18.109375 27.296875 
Q 18.109375 17.390625 22.1875 11.75 
Q 26.265625 6.109375 33.40625 6.109375 
Q 40.53125 6.109375 44.609375 11.75 
Q 48.6875 17.390625 48.6875 27.296875 
z
" id="DejaVuSans-70"/>
     </defs>
     <g transform="translate(16.139531 286.001989)rotate(-90)scale(0.17 -0.17)">
      <use xlink:href="#DejaVuSans-46"/>
      <use x="57.410156" xlink:href="#DejaVuSans-72"/>
      <use x="98.523438" xlink:href="#DejaVuSans-61"/>
      <use x="159.802734" xlink:href="#DejaVuSans-63"/>
      <use x="214.783203" xlink:href="#DejaVuSans-74"/>
      <use x="253.992188" xlink:href="#DejaVuSans-69"/>
      <use x="281.775391" xlink:href="#DejaVuSans-6f"/>
      <use x="342.957031" xlink:href="#DejaVuSans-6e"/>
      <use x="406.335938" xlink:href="#DejaVuSans-20"/>
      <use x="438.123047" xlink:href="#DejaVuSans-6f"/>
      <use x="499.304688" xlink:href="#DejaVuSans-66"/>
      <use x="534.509766" xlink:href="#DejaVuSans-20"/>
      <use x="566.296875" xlink:href="#DejaVuSans-66"/>
      <use x="601.501953" xlink:href="#DejaVuSans-75"/>
      <use x="664.880859" xlink:href="#DejaVuSans-6e"/>
      <use x="728.259766" xlink:href="#DejaVuSans-63"/>
      <use x="783.240234" xlink:href="#DejaVuSans-74"/>
      <use x="822.449219" xlink:href="#DejaVuSans-69"/>
      <use x="850.232422" xlink:href="#DejaVuSans-6f"/>
      <use x="911.414062" xlink:href="#DejaVuSans-6e"/>
      <use x="974.792969" xlink:href="#DejaVuSans-2c"/>
      <use x="1006.580078" xlink:href="#DejaVuSans-74"/>
      <use x="1045.789062" xlink:href="#DejaVuSans-61"/>
      <use x="1107.068359" xlink:href="#DejaVuSans-72"/>
      <use x="1148.166016" xlink:href="#DejaVuSans-67"/>
      <use x="1211.642578" xlink:href="#DejaVuSans-65"/>
      <use x="1273.166016" xlink:href="#DejaVuSans-74"/>
      <use x="1312.375" xlink:href="#DejaVuSans-20"/>
      <use x="1344.162109" xlink:href="#DejaVuSans-70"/>
      <use x="1407.638672" xlink:href="#DejaVuSans-61"/>
      <use x="1468.917969" xlink:href="#DejaVuSans-69"/>
      <use x="1496.701172" xlink:href="#DejaVuSans-72"/>
      <use x="1537.814453" xlink:href="#DejaVuSans-73"/>
     </g>
    </g>
   </g>
   <g id="line2d_23">
    <defs>
     <path d="M 0 1.5 
C 0.397805 1.5 0.77937 1.341951 1.06066 1.06066 
C 1.341951 0.77937 1.5 0.397805 1.5 0 
C 1.5 -0.397805 1.341951 -0.77937 1.06066 -1.06066 
C 0.77937 -1.341951 0.397805 -1.5 0 -1.5 
C -0.397805 -1.5 -0.77937 -1.341951 -1.06066 -1.06066 
C -1.341951 -0.77937 -1.5 -0.397805 -1.5 0 
C -1.5 0.397805 -1.341951 0.77937 -1.06066 1.06066 
C -0.77937 1.341951 -0.397805 1.5 0 1.5 
z
" id="m1283dacf0e" style="stroke:#000080;"/>
    </defs>
    <g>
     <use style="fill:#000080;stroke:#000080;" x="298.351835" xlink:href="#m1283dacf0e" y="166.268085"/>
     <use style="fill:#000080;stroke:#000080;" x="298.351835" xlink:href="#m1283dacf0e" y="166.268085"/>
    </g>
   </g>
   <g id="line2d_24">
    <path d="M 177.172966 294.88 
L 177.172966 293.761636 
L 178.674903 293.761636 
L 178.71231 290.965724 
L 178.800653 290.965724 
L 178.835039 289.84736 
L 179.138763 289.84736 
L 179.138763 289.288178 
L 179.28663 289.288178 
L 179.333413 287.610631 
L 179.782679 287.610631 
L 179.782679 287.051449 
L 180.24838 287.051449 
L 180.301458 285.373902 
L 180.594218 285.373902 
L 180.691942 283.696355 
L 180.737521 283.696355 
L 180.803826 282.018808 
L 180.873538 282.018808 
L 180.873538 280.900444 
L 181.159203 280.900444 
L 181.234666 279.222897 
L 181.306228 279.222897 
L 181.306228 278.663715 
L 181.422478 278.663715 
L 181.444925 277.545351 
L 181.539122 277.545351 
L 181.636308 274.749439 
L 181.863653 274.749439 
L 181.969338 272.51271 
L 182.354377 272.51271 
L 182.410281 271.394346 
L 182.506012 271.394346 
L 182.506012 270.835164 
L 182.684909 270.835164 
L 182.787867 268.598435 
L 183.003819 268.598435 
L 183.085583 265.802523 
L 183.128461 265.802523 
L 183.221354 264.124977 
L 183.33386 264.124977 
L 183.442482 260.769883 
L 183.525331 260.769883 
L 183.585904 259.651519 
L 183.715729 259.651519 
L 183.743643 257.973972 
L 183.836365 257.973972 
L 183.928589 255.178061 
L 184.043685 255.178061 
L 184.138846 252.38215 
L 184.221431 252.38215 
L 184.321611 249.586238 
L 184.410284 249.586238 
L 184.497513 246.231145 
L 184.60593 246.231145 
L 184.60593 245.671963 
L 184.792575 245.671963 
L 184.792575 245.112781 
L 185.014676 245.112781 
L 185.014676 244.553598 
L 185.232052 244.553598 
L 185.28408 243.435234 
L 185.408311 243.435234 
L 185.474762 241.757687 
L 185.661506 241.757687 
L 185.661506 240.639323 
L 185.833441 240.639323 
L 185.889157 239.520958 
L 185.966495 239.520958 
L 185.966495 238.402594 
L 186.187484 238.402594 
L 186.298258 236.165865 
L 186.389734 236.165865 
L 186.389734 235.0475 
L 186.590509 235.0475 
L 186.631608 233.369954 
L 186.822688 233.369954 
L 186.822688 232.810771 
L 186.961191 232.810771 
L 187.019356 231.133225 
L 187.134252 231.133225 
L 187.134252 230.01486 
L 187.604478 230.01486 
L 187.713084 227.778131 
L 187.77939 227.778131 
L 187.77939 227.218949 
L 187.98002 227.218949 
L 187.98002 226.659767 
L 188.161565 226.659767 
L 188.161565 225.541402 
L 188.631341 225.541402 
L 188.631341 224.98222 
L 188.783841 224.98222 
L 188.790005 222.745491 
L 189.567248 222.745491 
L 189.567248 222.186309 
L 189.726306 222.186309 
L 189.726306 221.067944 
L 189.971162 221.067944 
L 189.971162 219.94958 
L 242.744521 219.94958 
L 242.849558 217.153669 
L 242.866687 217.153669 
L 242.973494 209.884299 
L 242.979935 209.884299 
L 243.076819 205.970024 
L 254.477298 205.970024 
L 254.562809 201.496566 
L 261.353302 201.496566 
L 261.451866 192.54965 
L 266.264751 192.54965 
L 266.323685 188.076192 
L 270.081754 188.076192 
L 270.12454 183.043552 
L 273.200242 183.043552 
L 273.233308 179.688458 
L 275.840458 179.688458 
L 275.866445 177.451729 
L 278.133688 177.451729 
L 278.141206 175.774183 
L 280.153182 175.774183 
L 280.164905 174.096636 
L 281.949951 174.096636 
L 281.956011 172.978271 
L 283.587239 172.978271 
L 283.587239 172.419089 
L 285.081599 172.419089 
L 285.089258 170.741543 
L 286.461473 170.741543 
L 286.461473 170.18236 
L 288.908799 170.18236 
L 288.915648 168.504814 
L 292.045919 168.504814 
L 292.045919 167.945631 
L 292.970073 167.945631 
L 292.970073 167.386449 
L 296.250456 167.386449 
L 296.250456 166.827267 
L 298.351835 166.827267 
L 298.351835 166.268085 
L 333.429677 166.268085 
L 333.429677 166.268085 
" style="fill:none;stroke:#000080;stroke-linecap:square;stroke-width:1.5;"/>
   </g>
   <g id="line2d_25">
    <defs>
     <path d="M 0 6 
C 1.591219 6 3.117479 5.367802 4.242641 4.242641 
C 5.367802 3.117479 6 1.591219 6 0 
C 6 -1.591219 5.367802 -3.117479 4.242641 -4.242641 
C 3.117479 -5.367802 1.591219 -6 0 -6 
C -1.591219 -6 -3.117479 -5.367802 -4.242641 -4.242641 
C -5.367802 -3.117479 -6 -1.591219 -6 0 
C -6 1.591219 -5.367802 3.117479 -4.242641 4.242641 
C -3.117479 5.367802 -1.591219 6 0 6 
z
" id="md7c86b899b" style="stroke:#000080;stroke-width:1.5;"/>
    </defs>
    <g>
     <use style="fill-opacity:0;stroke:#000080;stroke-width:1.5;" x="184.221431" xlink:href="#md7c86b899b" y="250.704603"/>
     <use style="fill-opacity:0;stroke:#000080;stroke-width:1.5;" x="254.562809" xlink:href="#md7c86b899b" y="202.055748"/>
     <use style="fill-opacity:0;stroke:#000080;stroke-width:1.5;" x="298.351835" xlink:href="#md7c86b899b" y="166.268085"/>
     <use style="fill-opacity:0;stroke:#000080;stroke-width:1.5;" x="333.429677" xlink:href="#md7c86b899b" y="166.268085"/>
    </g>
   </g>
   <g id="line2d_26">
    <path style="fill:none;stroke:#000080;stroke-linecap:square;stroke-width:1.5;"/>
    <g/>
   </g>
   <g id="line2d_27">
    <path clip-path="url(#p2c7e734c9a)" d="M 242.272854 219.94958 
" style="fill:none;stroke:#000080;stroke-linecap:square;stroke-width:1.5;"/>
    <defs>
     <path d="M -12 12 
L 12 -12 
M -12 -12 
L 12 12 
" id="m0f9d1e7097" style="stroke:#000080;stroke-width:3;"/>
    </defs>
    <g clip-path="url(#p2c7e734c9a)">
     <use style="fill:#000080;stroke:#000080;stroke-width:3;" x="242.272854" xlink:href="#m0f9d1e7097" y="219.94958"/>
    </g>
   </g>
   <g id="line2d_28">
    <defs>
     <path d="M 0 1.5 
C 0.397805 1.5 0.77937 1.341951 1.06066 1.06066 
C 1.341951 0.77937 1.5 0.397805 1.5 0 
C 1.5 -0.397805 1.341951 -0.77937 1.06066 -1.06066 
C 0.77937 -1.341951 0.397805 -1.5 0 -1.5 
C -0.397805 -1.5 -0.77937 -1.341951 -1.06066 -1.06066 
C -1.341951 -0.77937 -1.5 -0.397805 -1.5 0 
C -1.5 0.397805 -1.341951 0.77937 -1.06066 1.06066 
C -0.77937 1.341951 -0.397805 1.5 0 1.5 
z
" id="me135209ab6" style="stroke:#ff00ff;"/>
    </defs>
    <g>
     <use style="fill:#ff00ff;stroke:#ff00ff;" x="318.103337" xlink:href="#me135209ab6" y="115.941683"/>
     <use style="fill:#ff00ff;stroke:#ff00ff;" x="318.103337" xlink:href="#me135209ab6" y="115.941683"/>
    </g>
   </g>
   <g id="line2d_29">
    <path d="M 163.182005 294.88 
L 163.182005 294.320818 
L 164.208774 294.320818 
L 164.208774 293.761636 
L 164.678171 293.761636 
L 164.678171 293.202453 
L 165.618761 293.202453 
L 165.618761 292.643271 
L 166.767419 292.643271 
L 166.767419 292.084089 
L 167.04776 292.084089 
L 167.04776 291.524907 
L 167.435917 291.524907 
L 167.435917 290.406542 
L 167.851972 290.406542 
L 167.945378 289.288178 
L 168.120441 289.288178 
L 168.120441 288.728995 
L 168.512945 288.728995 
L 168.512945 288.169813 
L 168.90159 288.169813 
L 168.950474 287.051449 
L 169.228896 287.051449 
L 169.228896 285.373902 
L 169.599521 285.373902 
L 169.627702 284.255537 
L 169.823691 284.255537 
L 169.823691 283.696355 
L 170.097576 283.696355 
L 170.097576 282.577991 
L 170.911433 282.577991 
L 170.911433 281.459626 
L 171.043771 281.459626 
L 171.043771 280.341262 
L 171.168663 280.341262 
L 171.168663 279.782079 
L 171.458006 279.782079 
L 171.458006 279.222897 
L 171.634317 279.222897 
L 171.634317 278.663715 
L 172.026573 278.663715 
L 172.026573 277.545351 
L 172.185051 277.545351 
L 172.207283 274.749439 
L 172.808657 274.749439 
L 172.808657 273.631075 
L 172.965922 273.631075 
L 173.008389 272.51271 
L 174.264668 272.51271 
L 174.264668 271.953528 
L 174.645734 271.953528 
L 174.645734 271.394346 
L 174.942901 271.394346 
L 174.942901 270.835164 
L 175.390159 270.835164 
L 175.390159 270.275981 
L 175.580473 270.275981 
L 175.664937 268.598435 
L 175.935394 268.598435 
L 175.935394 268.039252 
L 176.100485 268.039252 
L 176.100485 267.48007 
L 176.230467 267.48007 
L 176.230467 266.361706 
L 176.489096 266.361706 
L 176.489096 265.802523 
L 176.7749 265.802523 
L 176.788834 264.684159 
L 176.950572 264.684159 
L 177.007204 263.006612 
L 177.251486 263.006612 
L 177.353628 261.888248 
L 177.373086 261.888248 
L 177.481945 260.210701 
L 177.920767 260.210701 
L 177.964185 257.973972 
L 178.389617 257.973972 
L 178.389617 257.41479 
L 178.52306 257.41479 
L 178.52306 256.855608 
L 179.096861 256.855608 
L 179.096861 256.296425 
L 179.704475 256.296425 
L 179.780078 254.618879 
L 180.132813 254.618879 
L 180.132813 254.059696 
L 180.301458 254.059696 
L 180.321635 252.941332 
L 180.424674 252.941332 
L 180.525853 250.704603 
L 180.813627 250.704603 
L 180.913769 249.027056 
L 181.038737 249.027056 
L 181.090641 246.790327 
L 181.691099 246.790327 
L 181.765428 245.112781 
L 182.098265 245.112781 
L 182.098265 244.553598 
L 182.358856 244.553598 
L 182.358856 243.994416 
L 182.639808 243.994416 
L 182.639808 243.435234 
L 183.028604 243.435234 
L 183.028604 242.876052 
L 183.270268 242.876052 
L 183.33386 240.08014 
L 183.632754 240.08014 
L 183.632754 239.520958 
L 183.857928 239.520958 
L 183.857928 238.961776 
L 183.994889 238.961776 
L 183.999978 236.725047 
L 184.263578 236.725047 
L 184.263578 236.165865 
L 184.6344 236.165865 
L 184.6344 235.606682 
L 185.053969 235.606682 
L 185.053969 235.0475 
L 186.017257 235.0475 
L 186.07148 233.929136 
L 186.148903 233.929136 
L 186.203608 231.133225 
L 186.375556 231.133225 
L 186.406555 230.01486 
L 186.501858 230.01486 
L 186.58438 228.337313 
L 186.845993 228.337313 
L 186.845993 227.778131 
L 187.468582 227.778131 
L 187.525889 226.100584 
L 187.64899 226.100584 
L 187.64899 225.541402 
L 188.285772 225.541402 
L 188.285772 224.98222 
L 188.686459 224.98222 
L 188.686459 224.423038 
L 188.935765 224.423038 
L 188.935765 223.863855 
L 189.743079 223.863855 
L 189.743079 223.304673 
L 190.403731 223.304673 
L 190.498165 222.186309 
L 190.671687 222.186309 
L 190.671687 221.627126 
L 191.014243 221.627126 
L 191.014243 221.067944 
L 191.415713 221.067944 
L 191.415713 219.390397 
L 192.816122 219.390397 
L 192.816122 218.831215 
L 193.155389 218.831215 
L 193.155389 218.272033 
L 193.763211 218.272033 
L 193.763211 217.712851 
L 194.317916 217.712851 
L 194.317916 216.594486 
L 196.813548 216.594486 
L 196.813548 216.035304 
L 197.102519 216.035304 
L 197.102519 215.476122 
L 197.584238 215.476122 
L 197.584238 214.357757 
L 198.470429 214.357757 
L 198.470429 213.798575 
L 200.147294 213.798575 
L 200.147294 213.239393 
L 242.785951 213.239393 
L 242.889044 208.765935 
L 242.928042 208.765935 
L 243.003366 206.529206 
L 243.045232 206.529206 
L 243.140834 203.174112 
L 243.201775 203.174112 
L 243.301117 200.937384 
L 243.343656 200.937384 
L 243.372989 199.819019 
L 243.610715 199.819019 
L 243.610715 199.259837 
L 254.486775 199.259837 
L 254.574175 195.904743 
L 254.630139 195.904743 
L 254.709151 193.108832 
L 254.78007 193.108832 
L 254.800217 191.990468 
L 261.378393 191.990468 
L 261.463385 186.957828 
L 261.489577 186.957828 
L 261.564316 183.043552 
L 261.618177 183.043552 
L 261.618177 181.925187 
L 266.290014 181.925187 
L 266.381155 178.570094 
L 266.405561 178.570094 
L 266.417177 176.892547 
L 270.09972 176.892547 
L 270.198068 173.537454 
L 270.239042 173.537454 
L 270.239042 172.978271 
L 273.218426 172.978271 
L 273.312045 167.945631 
L 273.345892 167.945631 
L 273.345892 167.386449 
L 275.853676 167.386449 
L 275.963098 157.321169 
L 278.16029 157.321169 
L 278.222401 154.525258 
L 280.201578 154.525258 
L 280.240236 152.288529 
L 281.977317 152.288529 
L 282.001756 149.492617 
L 283.628468 149.492617 
L 283.635759 147.255888 
L 285.111532 147.255888 
L 285.123668 145.578342 
L 286.48378 145.578342 
L 286.505911 143.341613 
L 287.768749 143.341613 
L 287.776571 142.223248 
L 288.933202 142.223248 
L 288.96334 137.74979 
L 290.04867 137.74979 
L 290.04867 137.190608 
L 291.070198 137.190608 
L 291.099554 133.276332 
L 292.0507 133.276332 
L 292.078432 131.598786 
L 293.002379 131.598786 
L 293.009615 129.921239 
L 293.856407 129.921239 
L 293.876202 128.243692 
L 294.71169 128.243692 
L 294.712675 127.125328 
L 295.505388 127.125328 
L 295.510358 125.447781 
L 296.283141 125.447781 
L 296.283141 124.888599 
L 297.712557 124.888599 
L 297.712557 124.329417 
L 298.37502 124.329417 
L 298.37502 123.770234 
L 299.022597 123.770234 
L 299.028737 122.65187 
L 299.642573 122.65187 
L 299.642573 122.092688 
L 300.244951 122.092688 
L 300.257925 120.974323 
L 302.463393 120.974323 
L 302.463393 120.415141 
L 302.976022 120.415141 
L 302.980016 119.296776 
L 303.958346 119.296776 
L 303.958346 118.737594 
L 304.886086 118.737594 
L 304.886086 118.178412 
L 308.541365 118.178412 
L 308.541365 117.61923 
L 310.606626 117.61923 
L 310.606626 117.060047 
L 313.84436 117.060047 
L 313.84436 116.500865 
L 318.103337 116.500865 
L 318.103337 115.941683 
L 333.429677 115.941683 
L 333.429677 115.941683 
" style="fill:none;stroke:#ff00ff;stroke-linecap:square;stroke-width:1.5;"/>
   </g>
   <g id="line2d_30">
    <defs>
     <path d="M -0 8.485281 
L 5.091169 0 
L 0 -8.485281 
L -5.091169 -0 
z
" id="mcbfff75c9c" style="stroke:#ff00ff;stroke-linejoin:miter;stroke-width:1.5;"/>
    </defs>
    <g>
     <use style="fill-opacity:0;stroke:#ff00ff;stroke-linejoin:miter;stroke-width:1.5;" x="200.147294" xlink:href="#mcbfff75c9c" y="213.239393"/>
     <use style="fill-opacity:0;stroke:#ff00ff;stroke-linejoin:miter;stroke-width:1.5;" x="295.510358" xlink:href="#mcbfff75c9c" y="125.447781"/>
     <use style="fill-opacity:0;stroke:#ff00ff;stroke-linejoin:miter;stroke-width:1.5;" x="318.103337" xlink:href="#mcbfff75c9c" y="115.941683"/>
     <use style="fill-opacity:0;stroke:#ff00ff;stroke-linejoin:miter;stroke-width:1.5;" x="333.429677" xlink:href="#mcbfff75c9c" y="115.941683"/>
    </g>
   </g>
   <g id="line2d_31">
    <path style="fill:none;stroke:#ff00ff;stroke-linecap:square;stroke-width:1.5;"/>
    <g/>
   </g>
   <g id="line2d_32">
    <path clip-path="url(#p2c7e734c9a)" d="M 242.272854 213.239393 
" style="fill:none;stroke:#ff00ff;stroke-linecap:square;stroke-width:1.5;"/>
    <defs>
     <path d="M -12 12 
L 12 -12 
M -12 -12 
L 12 12 
" id="m880006f4b6" style="stroke:#ff00ff;stroke-width:3;"/>
    </defs>
    <g clip-path="url(#p2c7e734c9a)">
     <use style="fill:#ff00ff;stroke:#ff00ff;stroke-width:3;" x="242.272854" xlink:href="#m880006f4b6" y="213.239393"/>
    </g>
   </g>
   <g id="line2d_33">
    <defs>
     <path d="M 0 1.5 
C 0.397805 1.5 0.77937 1.341951 1.06066 1.06066 
C 1.341951 0.77937 1.5 0.397805 1.5 0 
C 1.5 -0.397805 1.341951 -0.77937 1.06066 -1.06066 
C 0.77937 -1.341951 0.397805 -1.5 0 -1.5 
C -0.397805 -1.5 -0.77937 -1.341951 -1.06066 -1.06066 
C -1.341951 -0.77937 -1.5 -0.397805 -1.5 0 
C -1.5 0.397805 -1.341951 0.77937 -1.06066 1.06066 
C -0.77937 1.341951 -0.397805 1.5 0 1.5 
z
" id="m978ccb53c9" style="stroke:#ffa500;"/>
    </defs>
    <g>
     <use style="fill:#ffa500;stroke:#ffa500;" x="297.598714" xlink:href="#m978ccb53c9" y="289.288178"/>
     <use style="fill:#ffa500;stroke:#ffa500;" x="297.598714" xlink:href="#m978ccb53c9" y="289.288178"/>
    </g>
   </g>
   <g id="line2d_34">
    <path d="M 253.504801 294.88 
L 253.504801 294.320818 
L 272.871742 294.320818 
L 272.871742 293.761636 
L 275.556655 293.761636 
L 275.556655 293.202453 
L 279.924083 293.202453 
L 279.924083 292.643271 
L 284.911671 292.643271 
L 284.911671 291.524907 
L 287.580098 291.524907 
L 287.580098 290.965724 
L 291.925617 290.965724 
L 291.925617 290.406542 
L 295.391917 290.406542 
L 295.391917 289.84736 
L 297.598714 289.84736 
L 297.598714 289.288178 
L 333.429677 289.288178 
" style="fill:none;stroke:#ffa500;stroke-linecap:square;stroke-width:1.5;"/>
   </g>
   <g id="line2d_35">
    <defs>
     <path d="M 0 -6 
L -1.347084 -1.854102 
L -5.706339 -1.854102 
L -2.179628 0.708204 
L -3.526712 4.854102 
L -0 2.291796 
L 3.526712 4.854102 
L 2.179628 0.708204 
L 5.706339 -1.854102 
L 1.347084 -1.854102 
z
" id="m50fa00b72c" style="stroke:#ffa500;stroke-linejoin:bevel;stroke-width:1.5;"/>
    </defs>
    <g>
     <use style="fill-opacity:0;stroke:#ffa500;stroke-linejoin:bevel;stroke-width:1.5;" x="297.598714" xlink:href="#m50fa00b72c" y="289.288178"/>
     <use style="fill-opacity:0;stroke:#ffa500;stroke-linejoin:bevel;stroke-width:1.5;" x="297.598714" xlink:href="#m50fa00b72c" y="289.288178"/>
     <use style="fill-opacity:0;stroke:#ffa500;stroke-linejoin:bevel;stroke-width:1.5;" x="333.429677" xlink:href="#m50fa00b72c" y="289.288178"/>
    </g>
   </g>
   <g id="line2d_36">
    <path style="fill:none;stroke:#ffa500;stroke-linecap:square;stroke-width:1.5;"/>
    <g/>
   </g>
   <g id="line2d_37">
    <path clip-path="url(#p2c7e734c9a)" d="M 242.272854 294.88 
" style="fill:none;stroke:#ffa500;stroke-linecap:square;stroke-width:1.5;"/>
    <defs>
     <path d="M -12 12 
L 12 -12 
M -12 -12 
L 12 12 
" id="mee4f6df78e" style="stroke:#ffa500;stroke-width:3;"/>
    </defs>
    <g clip-path="url(#p2c7e734c9a)">
     <use style="fill:#ffa500;stroke:#ffa500;stroke-width:3;" x="242.272854" xlink:href="#mee4f6df78e" y="294.88"/>
    </g>
   </g>
   <g id="line2d_38">
    <defs>
     <path d="M 0 1.5 
C 0.397805 1.5 0.77937 1.341951 1.06066 1.06066 
C 1.341951 0.77937 1.5 0.397805 1.5 0 
C 1.5 -0.397805 1.341951 -0.77937 1.06066 -1.06066 
C 0.77937 -1.341951 0.397805 -1.5 0 -1.5 
C -0.397805 -1.5 -0.77937 -1.341951 -1.06066 -1.06066 
C -1.341951 -0.77937 -1.5 -0.397805 -1.5 0 
C -1.5 0.397805 -1.341951 0.77937 -1.06066 1.06066 
C -0.77937 1.341951 -0.397805 1.5 0 1.5 
z
" id="m54d755741c" style="stroke:#6495ed;"/>
    </defs>
    <g>
     <use style="fill:#6495ed;stroke:#6495ed;" x="280.078324" xlink:href="#m54d755741c" y="289.288178"/>
     <use style="fill:#6495ed;stroke:#6495ed;" x="280.078324" xlink:href="#m54d755741c" y="289.288178"/>
    </g>
   </g>
   <g id="line2d_39">
    <path d="M 128.150234 294.88 
L 128.150234 293.761636 
L 131.852883 293.761636 
L 131.852883 293.202453 
L 169.00652 293.202453 
L 169.00652 292.643271 
L 242.29548 292.643271 
L 242.29548 292.084089 
L 266.184592 292.084089 
L 266.184592 291.524907 
L 269.968632 291.524907 
L 269.968632 290.965724 
L 273.104515 290.965724 
L 273.104515 290.406542 
L 280.078324 290.406542 
L 280.078324 289.288178 
L 333.429677 289.288178 
" style="fill:none;stroke:#6495ed;stroke-linecap:square;stroke-width:1.5;"/>
   </g>
   <g id="line2d_40">
    <defs>
     <path d="M -0 6 
L 6 -6 
L -6 -6 
z
" id="m036668d4ed" style="stroke:#6495ed;stroke-linejoin:miter;stroke-width:1.5;"/>
    </defs>
    <g>
     <use style="fill-opacity:0;stroke:#6495ed;stroke-linejoin:miter;stroke-width:1.5;" x="169.00652" xlink:href="#m036668d4ed" y="293.202453"/>
     <use style="fill-opacity:0;stroke:#6495ed;stroke-linejoin:miter;stroke-width:1.5;" x="169.00652" xlink:href="#m036668d4ed" y="292.643271"/>
     <use style="fill-opacity:0;stroke:#6495ed;stroke-linejoin:miter;stroke-width:1.5;" x="273.104515" xlink:href="#m036668d4ed" y="290.965724"/>
     <use style="fill-opacity:0;stroke:#6495ed;stroke-linejoin:miter;stroke-width:1.5;" x="280.078324" xlink:href="#m036668d4ed" y="289.288178"/>
     <use style="fill-opacity:0;stroke:#6495ed;stroke-linejoin:miter;stroke-width:1.5;" x="333.429677" xlink:href="#m036668d4ed" y="289.288178"/>
    </g>
   </g>
   <g id="line2d_41">
    <path style="fill:none;stroke:#6495ed;stroke-linecap:square;stroke-width:1.5;"/>
    <g/>
   </g>
   <g id="line2d_42">
    <path clip-path="url(#p2c7e734c9a)" d="M 242.272854 292.643271 
" style="fill:none;stroke:#6495ed;stroke-linecap:square;stroke-width:1.5;"/>
    <defs>
     <path d="M -12 12 
L 12 -12 
M -12 -12 
L 12 12 
" id="med70e050e2" style="stroke:#6495ed;stroke-width:3;"/>
    </defs>
    <g clip-path="url(#p2c7e734c9a)">
     <use style="fill:#6495ed;stroke:#6495ed;stroke-width:3;" x="242.272854" xlink:href="#med70e050e2" y="292.643271"/>
    </g>
   </g>
   <g id="line2d_43">
    <defs>
     <path d="M 0 1.5 
C 0.397805 1.5 0.77937 1.341951 1.06066 1.06066 
C 1.341951 0.77937 1.5 0.397805 1.5 0 
C 1.5 -0.397805 1.341951 -0.77937 1.06066 -1.06066 
C 0.77937 -1.341951 0.397805 -1.5 0 -1.5 
C -0.397805 -1.5 -0.77937 -1.341951 -1.06066 -1.06066 
C -1.341951 -0.77937 -1.5 -0.397805 -1.5 0 
C -1.5 0.397805 -1.341951 0.77937 -1.06066 1.06066 
C -0.77937 1.341951 -0.397805 1.5 0 1.5 
z
" id="m73f057dc23" style="stroke:#ff0000;"/>
    </defs>
    <g>
     <use style="fill:#ff0000;stroke:#ff0000;" x="260.914408" xlink:href="#m73f057dc23" y="115.941683"/>
     <use style="fill:#ff0000;stroke:#ff0000;" x="260.914408" xlink:href="#m73f057dc23" y="115.941683"/>
    </g>
   </g>
   <g id="line2d_44">
    <path d="M 16.504332 294.88 
L 16.504332 287.051449 
L 28.429836 287.051449 
L 28.429836 282.577991 
L 35.405809 282.577991 
L 35.405809 281.459626 
L 44.194496 281.459626 
L 44.194496 280.900444 
L 54.307286 280.900444 
L 54.307286 280.341262 
L 56.12 280.341262 
L 56.12 279.782079 
L 59.256818 279.782079 
L 59.256818 278.663715 
L 73.208764 278.663715 
L 73.208764 277.545351 
L 79.088515 277.545351 
L 79.088515 276.986168 
L 80.810437 276.986168 
L 80.810437 275.867804 
L 85.449963 275.867804 
L 85.449963 274.749439 
L 86.064487 274.749439 
L 86.064487 274.190257 
L 101.401295 274.190257 
L 101.401295 273.071893 
L 109.222589 273.071893 
L 109.222589 272.51271 
L 110.288718 272.51271 
L 110.288718 271.953528 
L 110.726154 271.953528 
L 110.726154 271.394346 
L 113.694177 271.394346 
L 113.694177 270.835164 
L 123.183262 270.835164 
L 123.183262 270.275981 
L 131.768338 270.275981 
L 131.768338 269.716799 
L 132.453716 269.716799 
L 132.453716 269.157617 
L 135.522531 269.157617 
L 135.522531 268.598435 
L 135.993005 268.598435 
L 136.009572 267.48007 
L 137.239585 267.48007 
L 137.239585 266.920888 
L 137.499691 266.920888 
L 137.499691 266.361706 
L 137.620745 266.361706 
L 137.620745 265.802523 
L 138.673538 265.802523 
L 138.673538 265.243341 
L 140.140982 265.243341 
L 140.21895 263.565795 
L 140.692098 263.565795 
L 140.692098 262.44743 
L 140.855297 262.44743 
L 140.855297 261.888248 
L 141.565129 261.888248 
L 141.565129 261.329066 
L 142.407412 261.329066 
L 142.407412 260.769883 
L 143.122987 260.769883 
L 143.122987 260.210701 
L 144.091782 260.210701 
L 144.091782 259.651519 
L 145.349044 259.651519 
L 145.349044 259.092337 
L 147.439516 259.092337 
L 147.439516 258.533154 
L 147.609107 258.533154 
L 147.609107 257.973972 
L 147.793746 257.973972 
L 147.793746 257.41479 
L 148.368389 257.41479 
L 148.368389 255.737243 
L 148.846112 255.737243 
L 148.846112 255.178061 
L 148.994666 255.178061 
L 148.994666 254.618879 
L 149.643984 254.618879 
L 149.643984 254.059696 
L 150.313003 254.059696 
L 150.313003 253.500514 
L 150.606133 253.500514 
L 150.662751 251.822967 
L 151.711192 251.822967 
L 151.711192 251.263785 
L 152.202699 251.263785 
L 152.202699 250.704603 
L 153.858349 250.704603 
L 153.858349 250.145421 
L 154.51462 250.145421 
L 154.56538 248.467874 
L 156.017286 248.467874 
L 156.017286 247.34951 
L 156.973638 247.34951 
L 156.973638 246.790327 
L 157.288976 246.790327 
L 157.370505 245.671963 
L 157.570287 245.671963 
L 157.570287 244.553598 
L 158.638344 244.553598 
L 158.700456 243.435234 
L 159.296713 243.435234 
L 159.296713 242.876052 
L 159.694189 242.876052 
L 159.702547 241.198505 
L 159.814983 241.198505 
L 159.814983 240.639323 
L 159.934936 240.639323 
L 159.934936 239.520958 
L 160.486577 239.520958 
L 160.486577 238.961776 
L 161.324105 238.961776 
L 161.35829 235.606682 
L 162.424973 235.606682 
L 162.424973 235.0475 
L 162.697426 235.0475 
L 162.697426 234.488318 
L 162.809396 234.488318 
L 162.809396 233.929136 
L 163.486464 233.929136 
L 163.486464 233.369954 
L 163.77574 233.369954 
L 163.77574 232.810771 
L 164.034268 232.810771 
L 164.066717 231.692407 
L 164.279364 231.692407 
L 164.381528 229.455678 
L 164.514703 229.455678 
L 164.580906 227.778131 
L 164.640585 227.778131 
L 164.640585 226.659767 
L 164.982086 226.659767 
L 164.982086 226.100584 
L 165.122909 226.100584 
L 165.122909 224.423038 
L 165.332007 224.423038 
L 165.371119 221.067944 
L 166.275537 221.067944 
L 166.346673 217.712851 
L 166.459882 217.712851 
L 166.459882 217.153669 
L 166.932879 217.153669 
L 167.001353 215.476122 
L 167.180827 215.476122 
L 167.291383 214.357757 
L 167.896144 214.357757 
L 167.896144 213.798575 
L 168.009947 213.798575 
L 168.009947 212.680211 
L 168.20221 212.680211 
L 168.20221 211.561846 
L 168.430126 211.561846 
L 168.430126 211.002664 
L 168.709602 211.002664 
L 168.781233 208.206753 
L 169.069658 208.206753 
L 169.069658 207.64757 
L 169.474497 207.64757 
L 169.474497 207.088388 
L 169.627702 207.088388 
L 169.627702 206.529206 
L 169.90008 206.529206 
L 169.90008 205.970024 
L 170.024354 205.970024 
L 170.081585 204.292477 
L 170.143182 204.292477 
L 170.143182 203.733295 
L 170.758306 203.733295 
L 170.758306 203.174112 
L 171.895441 203.174112 
L 171.903666 200.937384 
L 172.010236 200.937384 
L 172.077527 199.819019 
L 172.398105 199.819019 
L 172.398105 198.700655 
L 172.580904 198.700655 
L 172.636156 197.58229 
L 172.738297 197.58229 
L 172.738297 195.904743 
L 173.18485 195.904743 
L 173.281897 193.668014 
L 173.794118 193.668014 
L 173.794118 193.108832 
L 173.982792 193.108832 
L 173.99736 190.872103 
L 174.153193 190.872103 
L 174.153193 189.753739 
L 174.418108 189.753739 
L 174.418108 189.194556 
L 174.642227 189.194556 
L 174.658 188.076192 
L 175.064794 188.076192 
L 175.064794 187.51701 
L 175.520601 187.51701 
L 175.520601 186.957828 
L 175.993843 186.957828 
L 175.993843 186.398645 
L 176.168005 186.398645 
L 176.168005 185.839463 
L 176.351538 185.839463 
L 176.351538 184.721099 
L 176.631811 184.721099 
L 176.631811 184.161916 
L 176.824393 184.161916 
L 176.824393 183.602734 
L 177.013316 183.602734 
L 177.107764 181.925187 
L 177.334148 181.925187 
L 177.334148 181.366005 
L 177.535376 181.366005 
L 177.535376 180.806823 
L 177.786933 180.806823 
L 177.896115 179.688458 
L 178.085174 179.688458 
L 178.151071 178.570094 
L 178.458575 178.570094 
L 178.458575 177.451729 
L 178.651309 177.451729 
L 178.651309 176.892547 
L 178.943251 176.892547 
L 178.943251 176.333365 
L 179.140113 176.333365 
L 179.145512 174.655818 
L 180.24205 174.655818 
L 180.335493 173.537454 
L 180.389559 173.537454 
L 180.389559 172.978271 
L 180.612816 172.978271 
L 180.612816 171.859907 
L 180.86255 171.859907 
L 180.930808 170.18236 
L 181.001221 170.18236 
L 181.001221 169.623178 
L 181.132773 169.623178 
L 181.132773 169.063996 
L 181.797846 169.063996 
L 181.797846 168.504814 
L 182.165199 168.504814 
L 182.165199 167.945631 
L 182.602317 167.945631 
L 182.602317 167.386449 
L 182.977918 167.386449 
L 182.977918 166.268085 
L 183.258584 166.268085 
L 183.258584 165.708902 
L 184.091332 165.708902 
L 184.110555 164.031356 
L 184.410284 164.031356 
L 184.410284 163.472173 
L 184.935821 163.472173 
L 184.935821 162.353809 
L 185.93833 162.353809 
L 185.93833 160.11708 
L 187.602002 160.11708 
L 187.602002 159.557898 
L 188.209443 159.557898 
L 188.209443 158.439533 
L 188.493161 158.439533 
L 188.493161 157.880351 
L 189.650992 157.880351 
L 189.650992 157.321169 
L 190.498863 157.321169 
L 190.498863 156.761987 
L 191.021688 156.761987 
L 191.021688 156.202804 
L 192.539559 156.202804 
L 192.621146 155.08444 
L 192.734844 155.08444 
L 192.734844 154.525258 
L 193.112296 154.525258 
L 193.112296 153.966075 
L 193.866761 153.966075 
L 193.866761 152.847711 
L 196.067884 152.847711 
L 196.157482 151.729346 
L 196.397291 151.729346 
L 196.397291 151.170164 
L 198.396535 151.170164 
L 198.396535 150.0518 
L 198.713608 150.0518 
L 198.713608 149.492617 
L 200.176334 149.492617 
L 200.176334 148.933435 
L 201.077241 148.933435 
L 201.077241 147.815071 
L 201.945151 147.815071 
L 201.945151 147.255888 
L 204.123737 147.255888 
L 204.123737 146.137524 
L 204.773908 146.137524 
L 204.773908 145.578342 
L 204.930799 145.578342 
L 204.959719 144.459977 
L 207.005413 144.459977 
L 207.095242 142.78243 
L 208.467253 142.78243 
L 208.467253 142.223248 
L 210.250483 142.223248 
L 210.250483 141.664066 
L 210.993317 141.664066 
L 210.993317 141.104884 
L 212.653336 141.104884 
L 212.653336 140.545702 
L 213.791394 140.545702 
L 213.791394 139.986519 
L 215.688425 139.986519 
L 215.688425 139.427337 
L 216.651424 139.427337 
L 216.651424 138.308973 
L 219.796453 138.308973 
L 219.796453 137.74979 
L 221.579852 137.74979 
L 221.579852 137.190608 
L 221.841451 137.190608 
L 221.841451 136.631426 
L 222.118683 136.631426 
L 222.118683 136.072244 
L 222.909917 136.072244 
L 222.909917 135.513061 
L 223.207618 135.513061 
L 223.207618 134.953879 
L 225.240265 134.953879 
L 225.240265 134.394697 
L 225.513942 134.394697 
L 225.513942 133.835515 
L 225.888708 133.835515 
L 225.994858 132.71715 
L 227.407717 132.71715 
L 227.407717 132.157968 
L 227.72233 132.157968 
L 227.72233 131.039603 
L 230.46557 131.039603 
L 230.46557 130.480421 
L 231.429965 130.480421 
L 231.429965 129.362057 
L 232.854244 129.362057 
L 232.854244 128.243692 
L 234.586084 128.243692 
L 234.586084 127.68451 
L 235.251728 127.68451 
L 235.251728 127.125328 
L 239.382748 127.125328 
L 239.382748 126.006963 
L 241.21944 126.006963 
L 241.285855 124.888599 
L 241.333091 124.888599 
L 241.333091 124.329417 
L 241.581321 124.329417 
L 241.581321 123.770234 
L 243.586296 123.770234 
L 243.586296 122.65187 
L 244.254809 122.65187 
L 244.254809 122.092688 
L 244.57617 122.092688 
L 244.57617 121.533505 
L 250.387508 121.533505 
L 250.387508 120.974323 
L 250.971928 120.974323 
L 250.971928 119.296776 
L 251.451239 119.296776 
L 251.451239 118.737594 
L 252.516004 118.737594 
L 252.516004 118.178412 
L 259.013931 118.178412 
L 259.091937 117.060047 
L 260.354181 117.060047 
L 260.354181 116.500865 
L 260.914408 116.500865 
L 260.914408 115.941683 
L 333.429677 115.941683 
L 333.429677 115.941683 
" style="fill:none;stroke:#ff0000;stroke-linecap:square;stroke-width:1.5;"/>
   </g>
   <g id="line2d_45">
    <defs>
     <path d="M 0 -6 
L -5.196152 -3 
L -5.196152 3 
L -0 6 
L 5.196152 3 
L 5.196152 -3 
z
" id="m781647fac1" style="stroke:#ff0000;stroke-linejoin:miter;stroke-width:1.5;"/>
    </defs>
    <g>
     <use style="fill-opacity:0;stroke:#ff0000;stroke-linejoin:miter;stroke-width:1.5;" x="86.064487" xlink:href="#m781647fac1" y="274.190257"/>
     <use style="fill-opacity:0;stroke:#ff0000;stroke-linejoin:miter;stroke-width:1.5;" x="166.346673" xlink:href="#m781647fac1" y="218.831215"/>
     <use style="fill-opacity:0;stroke:#ff0000;stroke-linejoin:miter;stroke-width:1.5;" x="208.467253" xlink:href="#m781647fac1" y="142.223248"/>
     <use style="fill-opacity:0;stroke:#ff0000;stroke-linejoin:miter;stroke-width:1.5;" x="260.914408" xlink:href="#m781647fac1" y="116.500865"/>
     <use style="fill-opacity:0;stroke:#ff0000;stroke-linejoin:miter;stroke-width:1.5;" x="260.914408" xlink:href="#m781647fac1" y="115.941683"/>
     <use style="fill-opacity:0;stroke:#ff0000;stroke-linejoin:miter;stroke-width:1.5;" x="333.429677" xlink:href="#m781647fac1" y="115.941683"/>
    </g>
   </g>
   <g id="line2d_46">
    <path style="fill:none;stroke:#ff0000;stroke-linecap:square;stroke-width:1.5;"/>
    <g/>
   </g>
   <g id="line2d_47">
    <path clip-path="url(#p2c7e734c9a)" d="M 242.272854 123.770234 
" style="fill:none;stroke:#ff0000;stroke-linecap:square;stroke-width:1.5;"/>
    <defs>
     <path d="M -12 12 
L 12 -12 
M -12 -12 
L 12 12 
" id="m47342eee46" style="stroke:#ff0000;stroke-width:3;"/>
    </defs>
    <g clip-path="url(#p2c7e734c9a)">
     <use style="fill:#ff0000;stroke:#ff0000;stroke-width:3;" x="242.272854" xlink:href="#m47342eee46" y="123.770234"/>
    </g>
   </g>
   <g id="line2d_48">
    <path d="M 333.429677 289.288178 
L 363.933742 289.176341 
" style="fill:none;stroke:#ffa500;stroke-linecap:square;stroke-width:1.5;"/>
    <g>
     <use style="fill-opacity:0;stroke:#ffa500;stroke-linejoin:bevel;stroke-width:1.5;" x="333.429677" xlink:href="#m50fa00b72c" y="289.288178"/>
     <use style="fill-opacity:0;stroke:#ffa500;stroke-linejoin:bevel;stroke-width:1.5;" x="363.933742" xlink:href="#m50fa00b72c" y="289.176341"/>
    </g>
   </g>
   <g id="line2d_49">
    <path d="M 333.429677 289.288178 
L 363.933742 220.732435 
" style="fill:none;stroke:#6495ed;stroke-linecap:square;stroke-width:1.5;"/>
    <g>
     <use style="fill-opacity:0;stroke:#6495ed;stroke-linejoin:miter;stroke-width:1.5;" x="333.429677" xlink:href="#m036668d4ed" y="289.288178"/>
     <use style="fill-opacity:0;stroke:#6495ed;stroke-linejoin:miter;stroke-width:1.5;" x="363.933742" xlink:href="#m036668d4ed" y="220.732435"/>
    </g>
   </g>
   <g id="line2d_50">
    <path d="M 333.429677 166.268085 
L 363.933742 152.288529 
" style="fill:none;stroke:#000080;stroke-linecap:square;stroke-width:1.5;"/>
    <g>
     <use style="fill-opacity:0;stroke:#000080;stroke-width:1.5;" x="333.429677" xlink:href="#md7c86b899b" y="166.268085"/>
     <use style="fill-opacity:0;stroke:#000080;stroke-width:1.5;" x="363.933742" xlink:href="#md7c86b899b" y="152.288529"/>
    </g>
   </g>
   <g id="line2d_51">
    <path d="M 333.429677 115.941683 
L 363.933742 83.844622 
" style="fill:none;stroke:#ff00ff;stroke-linecap:square;stroke-width:1.5;"/>
    <g>
     <use style="fill-opacity:0;stroke:#ff00ff;stroke-linejoin:miter;stroke-width:1.5;" x="333.429677" xlink:href="#mcbfff75c9c" y="115.941683"/>
     <use style="fill-opacity:0;stroke:#ff00ff;stroke-linejoin:miter;stroke-width:1.5;" x="363.933742" xlink:href="#mcbfff75c9c" y="83.844622"/>
    </g>
   </g>
   <g id="line2d_52">
    <path d="M 333.429677 115.941683 
L 363.933742 15.400716 
" style="fill:none;stroke:#ff0000;stroke-linecap:square;stroke-width:1.5;"/>
    <g>
     <use style="fill-opacity:0;stroke:#ff0000;stroke-linejoin:miter;stroke-width:1.5;" x="333.429677" xlink:href="#m781647fac1" y="115.941683"/>
     <use style="fill-opacity:0;stroke:#ff0000;stroke-linejoin:miter;stroke-width:1.5;" x="363.933742" xlink:href="#m781647fac1" y="15.400716"/>
    </g>
   </g>
   <g id="line2d_53">
    <path d="M 333.429677 294.88 
L 333.429677 9.697057 
" style="fill:none;stroke:#000000;stroke-linecap:square;stroke-width:1.5;"/>
   </g>
   <g id="patch_3">
    <path d="M 56.12 294.88 
L 56.12 6.845228 
" style="fill:none;stroke:#000000;stroke-linecap:square;stroke-linejoin:miter;stroke-width:0.8;"/>
   </g>
   <g id="patch_4">
    <path d="M 399.984 294.88 
L 399.984 6.845228 
" style="fill:none;stroke:#000000;stroke-linecap:square;stroke-linejoin:miter;stroke-width:0.8;"/>
   </g>
   <g id="patch_5">
    <path d="M 56.12 294.88 
L 399.984 294.88 
" style="fill:none;stroke:#000000;stroke-linecap:square;stroke-linejoin:miter;stroke-width:0.8;"/>
   </g>
   <g id="patch_6">
    <path d="M 56.12 6.845228 
L 399.984 6.845228 
" style="fill:none;stroke:#000000;stroke-linecap:square;stroke-linejoin:miter;stroke-width:0.8;"/>
   </g>
   <g id="text_14">
    <!-- f10 -->
    <g transform="translate(369.479935 293.867279)scale(0.17 -0.17)">
     <use xlink:href="#DejaVuSans-66"/>
     <use x="35.205078" xlink:href="#DejaVuSans-31"/>
     <use x="98.828125" xlink:href="#DejaVuSans-30"/>
    </g>
   </g>
   <g id="text_15">
    <!-- f11 -->
    <g transform="translate(369.479935 225.423372)scale(0.17 -0.17)">
     <use xlink:href="#DejaVuSans-66"/>
     <use x="35.205078" xlink:href="#DejaVuSans-31"/>
     <use x="98.828125" xlink:href="#DejaVuSans-31"/>
    </g>
   </g>
   <g id="text_16">
    <!-- f12 -->
    <g transform="translate(369.479935 156.979466)scale(0.17 -0.17)">
     <use xlink:href="#DejaVuSans-66"/>
     <use x="35.205078" xlink:href="#DejaVuSans-31"/>
     <use x="98.828125" xlink:href="#DejaVuSans-32"/>
    </g>
   </g>
   <g id="text_17">
    <!-- f13 -->
    <defs>
     <path d="M 40.578125 39.3125 
Q 47.65625 37.796875 51.625 33 
Q 55.609375 28.21875 55.609375 21.1875 
Q 55.609375 10.40625 48.1875 4.484375 
Q 40.765625 -1.421875 27.09375 -1.421875 
Q 22.515625 -1.421875 17.65625 -0.515625 
Q 12.796875 0.390625 7.625 2.203125 
L 7.625 11.71875 
Q 11.71875 9.328125 16.59375 8.109375 
Q 21.484375 6.890625 26.8125 6.890625 
Q 36.078125 6.890625 40.9375 10.546875 
Q 45.796875 14.203125 45.796875 21.1875 
Q 45.796875 27.640625 41.28125 31.265625 
Q 36.765625 34.90625 28.71875 34.90625 
L 20.21875 34.90625 
L 20.21875 43.015625 
L 29.109375 43.015625 
Q 36.375 43.015625 40.234375 45.921875 
Q 44.09375 48.828125 44.09375 54.296875 
Q 44.09375 59.90625 40.109375 62.90625 
Q 36.140625 65.921875 28.71875 65.921875 
Q 24.65625 65.921875 20.015625 65.03125 
Q 15.375 64.15625 9.8125 62.3125 
L 9.8125 71.09375 
Q 15.4375 72.65625 20.34375 73.4375 
Q 25.25 74.21875 29.59375 74.21875 
Q 40.828125 74.21875 47.359375 69.109375 
Q 53.90625 64.015625 53.90625 55.328125 
Q 53.90625 49.265625 50.4375 45.09375 
Q 46.96875 40.921875 40.578125 39.3125 
z
" id="DejaVuSans-33"/>
    </defs>
    <g transform="translate(369.479935 88.53556)scale(0.17 -0.17)">
     <use xlink:href="#DejaVuSans-66"/>
     <use x="35.205078" xlink:href="#DejaVuSans-31"/>
     <use x="98.828125" xlink:href="#DejaVuSans-33"/>
    </g>
   </g>
   <g id="text_18">
    <!-- f14 -->
    <g transform="translate(369.479935 20.091654)scale(0.17 -0.17)">
     <use xlink:href="#DejaVuSans-66"/>
     <use x="35.205078" xlink:href="#DejaVuSans-31"/>
     <use x="98.828125" xlink:href="#DejaVuSans-34"/>
    </g>
   </g>
   <g id="text_19">
    <!-- bbob -->
    <defs>
     <path d="M 48.6875 27.296875 
Q 48.6875 37.203125 44.609375 42.84375 
Q 40.53125 48.484375 33.40625 48.484375 
Q 26.265625 48.484375 22.1875 42.84375 
Q 18.109375 37.203125 18.109375 27.296875 
Q 18.109375 17.390625 22.1875 11.75 
Q 26.265625 6.109375 33.40625 6.109375 
Q 40.53125 6.109375 44.609375 11.75 
Q 48.6875 17.390625 48.6875 27.296875 
z
M 18.109375 46.390625 
Q 20.953125 51.265625 25.265625 53.625 
Q 29.59375 56 35.59375 56 
Q 45.5625 56 51.78125 48.09375 
Q 58.015625 40.1875 58.015625 27.296875 
Q 58.015625 14.40625 51.78125 6.484375 
Q 45.5625 -1.421875 35.59375 -1.421875 
Q 29.59375 -1.421875 25.265625 0.953125 
Q 20.953125 3.328125 18.109375 8.203125 
L 18.109375 0 
L 9.078125 0 
L 9.078125 75.984375 
L 18.109375 75.984375 
z
" id="DejaVuSans-62"/>
    </defs>
    <g transform="translate(59.55864 17.475982)scale(0.102 -0.102)">
     <use xlink:href="#DejaVuSans-62"/>
     <use x="63.476562" xlink:href="#DejaVuSans-62"/>
     <use x="126.953125" xlink:href="#DejaVuSans-6f"/>
     <use x="188.134766" xlink:href="#DejaVuSans-62"/>
    </g>
    <!-- Ill-conditioned functions, 20-D -->
    <defs>
     <path d="M 9.8125 72.90625 
L 19.671875 72.90625 
L 19.671875 0 
L 9.8125 0 
z
" id="DejaVuSans-49"/>
     <path d="M 19.671875 64.796875 
L 19.671875 8.109375 
L 31.59375 8.109375 
Q 46.6875 8.109375 53.6875 14.9375 
Q 60.6875 21.78125 60.6875 36.53125 
Q 60.6875 51.171875 53.6875 57.984375 
Q 46.6875 64.796875 31.59375 64.796875 
z
M 9.8125 72.90625 
L 30.078125 72.90625 
Q 51.265625 72.90625 61.171875 64.09375 
Q 71.09375 55.28125 71.09375 36.53125 
Q 71.09375 17.671875 61.125 8.828125 
Q 51.171875 0 30.078125 0 
L 9.8125 0 
z
" id="DejaVuSans-44"/>
    </defs>
    <g transform="translate(59.55864 28.89775)scale(0.102 -0.102)">
     <use xlink:href="#DejaVuSans-49"/>
     <use x="29.492188" xlink:href="#DejaVuSans-6c"/>
     <use x="57.275391" xlink:href="#DejaVuSans-6c"/>
     <use x="85.058594" xlink:href="#DejaVuSans-2d"/>
     <use x="121.142578" xlink:href="#DejaVuSans-63"/>
     <use x="176.123047" xlink:href="#DejaVuSans-6f"/>
     <use x="237.304688" xlink:href="#DejaVuSans-6e"/>
     <use x="300.683594" xlink:href="#DejaVuSans-64"/>
     <use x="364.160156" xlink:href="#DejaVuSans-69"/>
     <use x="391.943359" xlink:href="#DejaVuSans-74"/>
     <use x="431.152344" xlink:href="#DejaVuSans-69"/>
     <use x="458.935547" xlink:href="#DejaVuSans-6f"/>
     <use x="520.117188" xlink:href="#DejaVuSans-6e"/>
     <use x="583.496094" xlink:href="#DejaVuSans-65"/>
     <use x="645.019531" xlink:href="#DejaVuSans-64"/>
     <use x="708.496094" xlink:href="#DejaVuSans-20"/>
     <use x="740.283203" xlink:href="#DejaVuSans-66"/>
     <use x="775.488281" xlink:href="#DejaVuSans-75"/>
     <use x="838.867188" xlink:href="#DejaVuSans-6e"/>
     <use x="902.246094" xlink:href="#DejaVuSans-63"/>
     <use x="957.226562" xlink:href="#DejaVuSans-74"/>
     <use x="996.435547" xlink:href="#DejaVuSans-69"/>
     <use x="1024.21875" xlink:href="#DejaVuSans-6f"/>
     <use x="1085.400391" xlink:href="#DejaVuSans-6e"/>
     <use x="1148.779297" xlink:href="#DejaVuSans-73"/>
     <use x="1200.878906" xlink:href="#DejaVuSans-2c"/>
     <use x="1232.666016" xlink:href="#DejaVuSans-20"/>
     <use x="1264.453125" xlink:href="#DejaVuSans-32"/>
     <use x="1328.076172" xlink:href="#DejaVuSans-30"/>
     <use x="1391.699219" xlink:href="#DejaVuSans-2d"/>
     <use x="1427.783203" xlink:href="#DejaVuSans-44"/>
    </g>
    <!-- 51 targets: 100..1e-08 -->
    <defs>
     <path d="M 10.796875 72.90625 
L 49.515625 72.90625 
L 49.515625 64.59375 
L 19.828125 64.59375 
L 19.828125 46.734375 
Q 21.96875 47.46875 24.109375 47.828125 
Q 26.265625 48.1875 28.421875 48.1875 
Q 40.625 48.1875 47.75 41.5 
Q 54.890625 34.8125 54.890625 23.390625 
Q 54.890625 11.625 47.5625 5.09375 
Q 40.234375 -1.421875 26.90625 -1.421875 
Q 22.3125 -1.421875 17.546875 -0.640625 
Q 12.796875 0.140625 7.71875 1.703125 
L 7.71875 11.625 
Q 12.109375 9.234375 16.796875 8.0625 
Q 21.484375 6.890625 26.703125 6.890625 
Q 35.15625 6.890625 40.078125 11.328125 
Q 45.015625 15.765625 45.015625 23.390625 
Q 45.015625 31 40.078125 35.4375 
Q 35.15625 39.890625 26.703125 39.890625 
Q 22.75 39.890625 18.8125 39.015625 
Q 14.890625 38.140625 10.796875 36.28125 
z
" id="DejaVuSans-35"/>
     <path d="M 11.71875 12.40625 
L 22.015625 12.40625 
L 22.015625 0 
L 11.71875 0 
z
M 11.71875 51.703125 
L 22.015625 51.703125 
L 22.015625 39.3125 
L 11.71875 39.3125 
z
" id="DejaVuSans-3a"/>
    </defs>
    <g transform="translate(59.55864 40.319519)scale(0.102 -0.102)">
     <use xlink:href="#DejaVuSans-35"/>
     <use x="63.623047" xlink:href="#DejaVuSans-31"/>
     <use x="127.246094" xlink:href="#DejaVuSans-20"/>
     <use x="159.033203" xlink:href="#DejaVuSans-74"/>
     <use x="198.242188" xlink:href="#DejaVuSans-61"/>
     <use x="259.521484" xlink:href="#DejaVuSans-72"/>
     <use x="300.619141" xlink:href="#DejaVuSans-67"/>
     <use x="364.095703" xlink:href="#DejaVuSans-65"/>
     <use x="425.619141" xlink:href="#DejaVuSans-74"/>
     <use x="464.828125" xlink:href="#DejaVuSans-73"/>
     <use x="516.927734" xlink:href="#DejaVuSans-3a"/>
     <use x="550.619141" xlink:href="#DejaVuSans-20"/>
     <use x="582.40625" xlink:href="#DejaVuSans-31"/>
     <use x="646.029297" xlink:href="#DejaVuSans-30"/>
     <use x="709.652344" xlink:href="#DejaVuSans-30"/>
     <use x="773.275391" xlink:href="#DejaVuSans-2e"/>
     <use x="805.0625" xlink:href="#DejaVuSans-2e"/>
     <use x="836.849609" xlink:href="#DejaVuSans-31"/>
     <use x="900.472656" xlink:href="#DejaVuSans-65"/>
     <use x="961.996094" xlink:href="#DejaVuSans-2d"/>
     <use x="998.080078" xlink:href="#DejaVuSans-30"/>
     <use x="1061.703125" xlink:href="#DejaVuSans-38"/>
    </g>
    <!-- 15 instances -->
    <g transform="translate(59.55864 51.741288)scale(0.102 -0.102)">
     <use xlink:href="#DejaVuSans-31"/>
     <use x="63.623047" xlink:href="#DejaVuSans-35"/>
     <use x="127.246094" xlink:href="#DejaVuSans-20"/>
     <use x="159.033203" xlink:href="#DejaVuSans-69"/>
     <use x="186.816406" xlink:href="#DejaVuSans-6e"/>
     <use x="250.195312" xlink:href="#DejaVuSans-73"/>
     <use x="302.294922" xlink:href="#DejaVuSans-74"/>
     <use x="341.503906" xlink:href="#DejaVuSans-61"/>
     <use x="402.783203" xlink:href="#DejaVuSans-6e"/>
     <use x="466.162109" xlink:href="#DejaVuSans-63"/>
     <use x="521.142578" xlink:href="#DejaVuSans-65"/>
     <use x="582.666016" xlink:href="#DejaVuSans-73"/>
    </g>
   </g>
   <g id="text_20">
    <!-- v0.0.0 -->
    <g style="fill:#808080;" transform="translate(212.37075 289.919965)scale(0.1 -0.1)">
     <use xlink:href="#DejaVuSans-76"/>
     <use x="59.179688" xlink:href="#DejaVuSans-30"/>
     <use x="122.802734" xlink:href="#DejaVuSans-2e"/>
     <use x="154.589844" xlink:href="#DejaVuSans-30"/>
     <use x="218.212891" xlink:href="#DejaVuSans-2e"/>
     <use x="250" xlink:href="#DejaVuSans-30"/>
    </g>
   </g>
  </g>
 </g>
 <defs>
  <clipPath id="p2c7e734c9a">
   <rect height="288.034772" width="343.864" x="56.12" y="6.845228"/>
  </clipPath>
 </defs>
</svg>
