<?xml version="1.0" encoding="utf-8" standalone="no"?>
<!DOCTYPE svg PUBLIC "-//W3C//DTD SVG 1.1//EN"
  "http://www.w3.org/Graphics/SVG/1.1/DTD/svg11.dtd">
<!-- Created with matplotlib (http://matplotlib.org/) -->
<svg height="345.6pt" version="1.1" viewBox="0 0 460.8 345.6" width="460.8pt" xmlns="http://www.w3.org/2000/svg" xmlns:xlink="http://www.w3.org/1999/xlink">
 <defs>
  <style type="text/css">
*{stroke-linecap:butt;stroke-linejoin:round;}
  </style>
 </defs>
 <g id="figure_1">
  <g id="patch_1">
   <path d="M 0 345.6 
L 460.8 345.6 
L 460.8 0 
L 0 0 
z
" style="fill:#ffffff;"/>
  </g>
  <g id="axes_1">
   <g id="patch_2">
    <path d="M 56.12 294.88 
L 399.984 294.88 
L 399.984 6.845228 
L 56.12 6.845228 
z
" style="fill:#ffffff;"/>
   </g>
   <g id="matplotlib.axis_1">
    <g id="xtick_1">
     <g id="line2d_1">
      <path clip-path="url(#p0f555c7dfe)" d="M 56.12 294.88 
L 56.12 6.845228 
" style="fill:none;stroke:#b0b0b0;stroke-linecap:square;stroke-width:0.8;"/>
     </g>
     <g id="line2d_2">
      <defs>
       <path d="M 0 0 
L 0 3.5 
" id="m9c11a7b83b" style="stroke:#000000;stroke-width:0.8;"/>
      </defs>
      <g>
       <use style="stroke:#000000;stroke-width:0.8;" x="56.12" xlink:href="#m9c11a7b83b" y="294.88"/>
      </g>
     </g>
     <g id="text_1">
      <!-- 0 -->
      <defs>
       <path d="M 31.78125 66.40625 
Q 24.171875 66.40625 20.328125 58.90625 
Q 16.5 51.421875 16.5 36.375 
Q 16.5 21.390625 20.328125 13.890625 
Q 24.171875 6.390625 31.78125 6.390625 
Q 39.453125 6.390625 43.28125 13.890625 
Q 47.125 21.390625 47.125 36.375 
Q 47.125 51.421875 43.28125 58.90625 
Q 39.453125 66.40625 31.78125 66.40625 
z
M 31.78125 74.21875 
Q 44.046875 74.21875 50.515625 64.515625 
Q 56.984375 54.828125 56.984375 36.375 
Q 56.984375 17.96875 50.515625 8.265625 
Q 44.046875 -1.421875 31.78125 -1.421875 
Q 19.53125 -1.421875 13.0625 8.265625 
Q 6.59375 17.96875 6.59375 36.375 
Q 6.59375 54.828125 13.0625 64.515625 
Q 19.53125 74.21875 31.78125 74.21875 
z
" id="DejaVuSans-30"/>
      </defs>
      <g transform="translate(49.7575 317.076875)scale(0.2 -0.2)">
       <use xlink:href="#DejaVuSans-30"/>
      </g>
     </g>
    </g>
    <g id="xtick_2">
     <g id="line2d_3">
      <path clip-path="url(#p0f555c7dfe)" d="M 135.351336 294.88 
L 135.351336 6.845228 
" style="fill:none;stroke:#b0b0b0;stroke-linecap:square;stroke-width:0.8;"/>
     </g>
     <g id="line2d_4">
      <g>
       <use style="stroke:#000000;stroke-width:0.8;" x="135.351336" xlink:href="#m9c11a7b83b" y="294.88"/>
      </g>
     </g>
     <g id="text_2">
      <!-- 2 -->
      <defs>
       <path d="M 19.1875 8.296875 
L 53.609375 8.296875 
L 53.609375 0 
L 7.328125 0 
L 7.328125 8.296875 
Q 12.9375 14.109375 22.625 23.890625 
Q 32.328125 33.6875 34.8125 36.53125 
Q 39.546875 41.84375 41.421875 45.53125 
Q 43.3125 49.21875 43.3125 52.78125 
Q 43.3125 58.59375 39.234375 62.25 
Q 35.15625 65.921875 28.609375 65.921875 
Q 23.96875 65.921875 18.8125 64.3125 
Q 13.671875 62.703125 7.8125 59.421875 
L 7.8125 69.390625 
Q 13.765625 71.78125 18.9375 73 
Q 24.125 74.21875 28.421875 74.21875 
Q 39.75 74.21875 46.484375 68.546875 
Q 53.21875 62.890625 53.21875 53.421875 
Q 53.21875 48.921875 51.53125 44.890625 
Q 49.859375 40.875 45.40625 35.40625 
Q 44.1875 33.984375 37.640625 27.21875 
Q 31.109375 20.453125 19.1875 8.296875 
z
" id="DejaVuSans-32"/>
      </defs>
      <g transform="translate(128.988836 317.076875)scale(0.2 -0.2)">
       <use xlink:href="#DejaVuSans-32"/>
      </g>
     </g>
    </g>
    <g id="xtick_3">
     <g id="line2d_5">
      <path clip-path="url(#p0f555c7dfe)" d="M 214.582673 294.88 
L 214.582673 6.845228 
" style="fill:none;stroke:#b0b0b0;stroke-linecap:square;stroke-width:0.8;"/>
     </g>
     <g id="line2d_6">
      <g>
       <use style="stroke:#000000;stroke-width:0.8;" x="214.582673" xlink:href="#m9c11a7b83b" y="294.88"/>
      </g>
     </g>
     <g id="text_3">
      <!-- 4 -->
      <defs>
       <path d="M 37.796875 64.3125 
L 12.890625 25.390625 
L 37.796875 25.390625 
z
M 35.203125 72.90625 
L 47.609375 72.90625 
L 47.609375 25.390625 
L 58.015625 25.390625 
L 58.015625 17.1875 
L 47.609375 17.1875 
L 47.609375 0 
L 37.796875 0 
L 37.796875 17.1875 
L 4.890625 17.1875 
L 4.890625 26.703125 
z
" id="DejaVuSans-34"/>
      </defs>
      <g transform="translate(208.220173 317.076875)scale(0.2 -0.2)">
       <use xlink:href="#DejaVuSans-34"/>
      </g>
     </g>
    </g>
    <g id="xtick_4">
     <g id="line2d_7">
      <path clip-path="url(#p0f555c7dfe)" d="M 293.814009 294.88 
L 293.814009 6.845228 
" style="fill:none;stroke:#b0b0b0;stroke-linecap:square;stroke-width:0.8;"/>
     </g>
     <g id="line2d_8">
      <g>
       <use style="stroke:#000000;stroke-width:0.8;" x="293.814009" xlink:href="#m9c11a7b83b" y="294.88"/>
      </g>
     </g>
     <g id="text_4">
      <!-- 6 -->
      <defs>
       <path d="M 33.015625 40.375 
Q 26.375 40.375 22.484375 35.828125 
Q 18.609375 31.296875 18.609375 23.390625 
Q 18.609375 15.53125 22.484375 10.953125 
Q 26.375 6.390625 33.015625 6.390625 
Q 39.65625 6.390625 43.53125 10.953125 
Q 47.40625 15.53125 47.40625 23.390625 
Q 47.40625 31.296875 43.53125 35.828125 
Q 39.65625 40.375 33.015625 40.375 
z
M 52.59375 71.296875 
L 52.59375 62.3125 
Q 48.875 64.0625 45.09375 64.984375 
Q 41.3125 65.921875 37.59375 65.921875 
Q 27.828125 65.921875 22.671875 59.328125 
Q 17.53125 52.734375 16.796875 39.40625 
Q 19.671875 43.65625 24.015625 45.921875 
Q 28.375 48.1875 33.59375 48.1875 
Q 44.578125 48.1875 50.953125 41.515625 
Q 57.328125 34.859375 57.328125 23.390625 
Q 57.328125 12.15625 50.6875 5.359375 
Q 44.046875 -1.421875 33.015625 -1.421875 
Q 20.359375 -1.421875 13.671875 8.265625 
Q 6.984375 17.96875 6.984375 36.375 
Q 6.984375 53.65625 15.1875 63.9375 
Q 23.390625 74.21875 37.203125 74.21875 
Q 40.921875 74.21875 44.703125 73.484375 
Q 48.484375 72.75 52.59375 71.296875 
z
" id="DejaVuSans-36"/>
      </defs>
      <g transform="translate(287.451509 317.076875)scale(0.2 -0.2)">
       <use xlink:href="#DejaVuSans-36"/>
      </g>
     </g>
    </g>
    <g id="xtick_5">
     <g id="line2d_9">
      <path clip-path="url(#p0f555c7dfe)" d="M 373.045346 294.88 
L 373.045346 6.845228 
" style="fill:none;stroke:#b0b0b0;stroke-linecap:square;stroke-width:0.8;"/>
     </g>
     <g id="line2d_10">
      <g>
       <use style="stroke:#000000;stroke-width:0.8;" x="373.045346" xlink:href="#m9c11a7b83b" y="294.88"/>
      </g>
     </g>
     <g id="text_5">
      <!-- 8 -->
      <defs>
       <path d="M 31.78125 34.625 
Q 24.75 34.625 20.71875 30.859375 
Q 16.703125 27.09375 16.703125 20.515625 
Q 16.703125 13.921875 20.71875 10.15625 
Q 24.75 6.390625 31.78125 6.390625 
Q 38.8125 6.390625 42.859375 10.171875 
Q 46.921875 13.96875 46.921875 20.515625 
Q 46.921875 27.09375 42.890625 30.859375 
Q 38.875 34.625 31.78125 34.625 
z
M 21.921875 38.8125 
Q 15.578125 40.375 12.03125 44.71875 
Q 8.5 49.078125 8.5 55.328125 
Q 8.5 64.0625 14.71875 69.140625 
Q 20.953125 74.21875 31.78125 74.21875 
Q 42.671875 74.21875 48.875 69.140625 
Q 55.078125 64.0625 55.078125 55.328125 
Q 55.078125 49.078125 51.53125 44.71875 
Q 48 40.375 41.703125 38.8125 
Q 48.828125 37.15625 52.796875 32.3125 
Q 56.78125 27.484375 56.78125 20.515625 
Q 56.78125 9.90625 50.3125 4.234375 
Q 43.84375 -1.421875 31.78125 -1.421875 
Q 19.734375 -1.421875 13.25 4.234375 
Q 6.78125 9.90625 6.78125 20.515625 
Q 6.78125 27.484375 10.78125 32.3125 
Q 14.796875 37.15625 21.921875 38.8125 
z
M 18.3125 54.390625 
Q 18.3125 48.734375 21.84375 45.5625 
Q 25.390625 42.390625 31.78125 42.390625 
Q 38.140625 42.390625 41.71875 45.5625 
Q 45.3125 48.734375 45.3125 54.390625 
Q 45.3125 60.0625 41.71875 63.234375 
Q 38.140625 66.40625 31.78125 66.40625 
Q 25.390625 66.40625 21.84375 63.234375 
Q 18.3125 60.0625 18.3125 54.390625 
z
" id="DejaVuSans-38"/>
      </defs>
      <g transform="translate(366.682846 317.076875)scale(0.2 -0.2)">
       <use xlink:href="#DejaVuSans-38"/>
      </g>
     </g>
    </g>
    <g id="text_6">
     <!-- log10(# f-evals / dimension) -->
     <defs>
      <path d="M 9.421875 75.984375 
L 18.40625 75.984375 
L 18.40625 0 
L 9.421875 0 
z
" id="DejaVuSans-6c"/>
      <path d="M 30.609375 48.390625 
Q 23.390625 48.390625 19.1875 42.75 
Q 14.984375 37.109375 14.984375 27.296875 
Q 14.984375 17.484375 19.15625 11.84375 
Q 23.34375 6.203125 30.609375 6.203125 
Q 37.796875 6.203125 41.984375 11.859375 
Q 46.1875 17.53125 46.1875 27.296875 
Q 46.1875 37.015625 41.984375 42.703125 
Q 37.796875 48.390625 30.609375 48.390625 
z
M 30.609375 56 
Q 42.328125 56 49.015625 48.375 
Q 55.71875 40.765625 55.71875 27.296875 
Q 55.71875 13.875 49.015625 6.21875 
Q 42.328125 -1.421875 30.609375 -1.421875 
Q 18.84375 -1.421875 12.171875 6.21875 
Q 5.515625 13.875 5.515625 27.296875 
Q 5.515625 40.765625 12.171875 48.375 
Q 18.84375 56 30.609375 56 
z
" id="DejaVuSans-6f"/>
      <path d="M 45.40625 27.984375 
Q 45.40625 37.75 41.375 43.109375 
Q 37.359375 48.484375 30.078125 48.484375 
Q 22.859375 48.484375 18.828125 43.109375 
Q 14.796875 37.75 14.796875 27.984375 
Q 14.796875 18.265625 18.828125 12.890625 
Q 22.859375 7.515625 30.078125 7.515625 
Q 37.359375 7.515625 41.375 12.890625 
Q 45.40625 18.265625 45.40625 27.984375 
z
M 54.390625 6.78125 
Q 54.390625 -7.171875 48.1875 -13.984375 
Q 42 -20.796875 29.203125 -20.796875 
Q 24.46875 -20.796875 20.265625 -20.09375 
Q 16.0625 -19.390625 12.109375 -17.921875 
L 12.109375 -9.1875 
Q 16.0625 -11.328125 19.921875 -12.34375 
Q 23.78125 -13.375 27.78125 -13.375 
Q 36.625 -13.375 41.015625 -8.765625 
Q 45.40625 -4.15625 45.40625 5.171875 
L 45.40625 9.625 
Q 42.625 4.78125 38.28125 2.390625 
Q 33.9375 0 27.875 0 
Q 17.828125 0 11.671875 7.65625 
Q 5.515625 15.328125 5.515625 27.984375 
Q 5.515625 40.671875 11.671875 48.328125 
Q 17.828125 56 27.875 56 
Q 33.9375 56 38.28125 53.609375 
Q 42.625 51.21875 45.40625 46.390625 
L 45.40625 54.6875 
L 54.390625 54.6875 
z
" id="DejaVuSans-67"/>
      <path d="M 12.40625 8.296875 
L 28.515625 8.296875 
L 28.515625 63.921875 
L 10.984375 60.40625 
L 10.984375 69.390625 
L 28.421875 72.90625 
L 38.28125 72.90625 
L 38.28125 8.296875 
L 54.390625 8.296875 
L 54.390625 0 
L 12.40625 0 
z
" id="DejaVuSans-31"/>
      <path d="M 31 75.875 
Q 24.46875 64.65625 21.28125 53.65625 
Q 18.109375 42.671875 18.109375 31.390625 
Q 18.109375 20.125 21.3125 9.0625 
Q 24.515625 -2 31 -13.1875 
L 23.1875 -13.1875 
Q 15.875 -1.703125 12.234375 9.375 
Q 8.59375 20.453125 8.59375 31.390625 
Q 8.59375 42.28125 12.203125 53.3125 
Q 15.828125 64.359375 23.1875 75.875 
z
" id="DejaVuSans-28"/>
      <path d="M 51.125 44 
L 36.921875 44 
L 32.8125 27.6875 
L 47.125 27.6875 
z
M 43.796875 71.78125 
L 38.71875 51.515625 
L 52.984375 51.515625 
L 58.109375 71.78125 
L 65.921875 71.78125 
L 60.890625 51.515625 
L 76.125 51.515625 
L 76.125 44 
L 58.984375 44 
L 54.984375 27.6875 
L 70.515625 27.6875 
L 70.515625 20.21875 
L 53.078125 20.21875 
L 48 0 
L 40.1875 0 
L 45.21875 20.21875 
L 30.90625 20.21875 
L 25.875 0 
L 18.015625 0 
L 23.09375 20.21875 
L 7.71875 20.21875 
L 7.71875 27.6875 
L 24.90625 27.6875 
L 29 44 
L 13.28125 44 
L 13.28125 51.515625 
L 30.90625 51.515625 
L 35.890625 71.78125 
z
" id="DejaVuSans-23"/>
      <path id="DejaVuSans-20"/>
      <path d="M 37.109375 75.984375 
L 37.109375 68.5 
L 28.515625 68.5 
Q 23.6875 68.5 21.796875 66.546875 
Q 19.921875 64.59375 19.921875 59.515625 
L 19.921875 54.6875 
L 34.71875 54.6875 
L 34.71875 47.703125 
L 19.921875 47.703125 
L 19.921875 0 
L 10.890625 0 
L 10.890625 47.703125 
L 2.296875 47.703125 
L 2.296875 54.6875 
L 10.890625 54.6875 
L 10.890625 58.5 
Q 10.890625 67.625 15.140625 71.796875 
Q 19.390625 75.984375 28.609375 75.984375 
z
" id="DejaVuSans-66"/>
      <path d="M 4.890625 31.390625 
L 31.203125 31.390625 
L 31.203125 23.390625 
L 4.890625 23.390625 
z
" id="DejaVuSans-2d"/>
      <path d="M 56.203125 29.59375 
L 56.203125 25.203125 
L 14.890625 25.203125 
Q 15.484375 15.921875 20.484375 11.0625 
Q 25.484375 6.203125 34.421875 6.203125 
Q 39.59375 6.203125 44.453125 7.46875 
Q 49.3125 8.734375 54.109375 11.28125 
L 54.109375 2.78125 
Q 49.265625 0.734375 44.1875 -0.34375 
Q 39.109375 -1.421875 33.890625 -1.421875 
Q 20.796875 -1.421875 13.15625 6.1875 
Q 5.515625 13.8125 5.515625 26.8125 
Q 5.515625 40.234375 12.765625 48.109375 
Q 20.015625 56 32.328125 56 
Q 43.359375 56 49.78125 48.890625 
Q 56.203125 41.796875 56.203125 29.59375 
z
M 47.21875 32.234375 
Q 47.125 39.59375 43.09375 43.984375 
Q 39.0625 48.390625 32.421875 48.390625 
Q 24.90625 48.390625 20.390625 44.140625 
Q 15.875 39.890625 15.1875 32.171875 
z
" id="DejaVuSans-65"/>
      <path d="M 2.984375 54.6875 
L 12.5 54.6875 
L 29.59375 8.796875 
L 46.6875 54.6875 
L 56.203125 54.6875 
L 35.6875 0 
L 23.484375 0 
z
" id="DejaVuSans-76"/>
      <path d="M 34.28125 27.484375 
Q 23.390625 27.484375 19.1875 25 
Q 14.984375 22.515625 14.984375 16.5 
Q 14.984375 11.71875 18.140625 8.90625 
Q 21.296875 6.109375 26.703125 6.109375 
Q 34.1875 6.109375 38.703125 11.40625 
Q 43.21875 16.703125 43.21875 25.484375 
L 43.21875 27.484375 
z
M 52.203125 31.203125 
L 52.203125 0 
L 43.21875 0 
L 43.21875 8.296875 
Q 40.140625 3.328125 35.546875 0.953125 
Q 30.953125 -1.421875 24.3125 -1.421875 
Q 15.921875 -1.421875 10.953125 3.296875 
Q 6 8.015625 6 15.921875 
Q 6 25.140625 12.171875 29.828125 
Q 18.359375 34.515625 30.609375 34.515625 
L 43.21875 34.515625 
L 43.21875 35.40625 
Q 43.21875 41.609375 39.140625 45 
Q 35.0625 48.390625 27.6875 48.390625 
Q 23 48.390625 18.546875 47.265625 
Q 14.109375 46.140625 10.015625 43.890625 
L 10.015625 52.203125 
Q 14.9375 54.109375 19.578125 55.046875 
Q 24.21875 56 28.609375 56 
Q 40.484375 56 46.34375 49.84375 
Q 52.203125 43.703125 52.203125 31.203125 
z
" id="DejaVuSans-61"/>
      <path d="M 44.28125 53.078125 
L 44.28125 44.578125 
Q 40.484375 46.53125 36.375 47.5 
Q 32.28125 48.484375 27.875 48.484375 
Q 21.1875 48.484375 17.84375 46.4375 
Q 14.5 44.390625 14.5 40.28125 
Q 14.5 37.15625 16.890625 35.375 
Q 19.28125 33.59375 26.515625 31.984375 
L 29.59375 31.296875 
Q 39.15625 29.25 43.1875 25.515625 
Q 47.21875 21.78125 47.21875 15.09375 
Q 47.21875 7.46875 41.1875 3.015625 
Q 35.15625 -1.421875 24.609375 -1.421875 
Q 20.21875 -1.421875 15.453125 -0.5625 
Q 10.6875 0.296875 5.421875 2 
L 5.421875 11.28125 
Q 10.40625 8.6875 15.234375 7.390625 
Q 20.0625 6.109375 24.8125 6.109375 
Q 31.15625 6.109375 34.5625 8.28125 
Q 37.984375 10.453125 37.984375 14.40625 
Q 37.984375 18.0625 35.515625 20.015625 
Q 33.0625 21.96875 24.703125 23.78125 
L 21.578125 24.515625 
Q 13.234375 26.265625 9.515625 29.90625 
Q 5.8125 33.546875 5.8125 39.890625 
Q 5.8125 47.609375 11.28125 51.796875 
Q 16.75 56 26.8125 56 
Q 31.78125 56 36.171875 55.265625 
Q 40.578125 54.546875 44.28125 53.078125 
z
" id="DejaVuSans-73"/>
      <path d="M 25.390625 72.90625 
L 33.6875 72.90625 
L 8.296875 -9.28125 
L 0 -9.28125 
z
" id="DejaVuSans-2f"/>
      <path d="M 45.40625 46.390625 
L 45.40625 75.984375 
L 54.390625 75.984375 
L 54.390625 0 
L 45.40625 0 
L 45.40625 8.203125 
Q 42.578125 3.328125 38.25 0.953125 
Q 33.9375 -1.421875 27.875 -1.421875 
Q 17.96875 -1.421875 11.734375 6.484375 
Q 5.515625 14.40625 5.515625 27.296875 
Q 5.515625 40.1875 11.734375 48.09375 
Q 17.96875 56 27.875 56 
Q 33.9375 56 38.25 53.625 
Q 42.578125 51.265625 45.40625 46.390625 
z
M 14.796875 27.296875 
Q 14.796875 17.390625 18.875 11.75 
Q 22.953125 6.109375 30.078125 6.109375 
Q 37.203125 6.109375 41.296875 11.75 
Q 45.40625 17.390625 45.40625 27.296875 
Q 45.40625 37.203125 41.296875 42.84375 
Q 37.203125 48.484375 30.078125 48.484375 
Q 22.953125 48.484375 18.875 42.84375 
Q 14.796875 37.203125 14.796875 27.296875 
z
" id="DejaVuSans-64"/>
      <path d="M 9.421875 54.6875 
L 18.40625 54.6875 
L 18.40625 0 
L 9.421875 0 
z
M 9.421875 75.984375 
L 18.40625 75.984375 
L 18.40625 64.59375 
L 9.421875 64.59375 
z
" id="DejaVuSans-69"/>
      <path d="M 52 44.1875 
Q 55.375 50.25 60.0625 53.125 
Q 64.75 56 71.09375 56 
Q 79.640625 56 84.28125 50.015625 
Q 88.921875 44.046875 88.921875 33.015625 
L 88.921875 0 
L 79.890625 0 
L 79.890625 32.71875 
Q 79.890625 40.578125 77.09375 44.375 
Q 74.3125 48.1875 68.609375 48.1875 
Q 61.625 48.1875 57.5625 43.546875 
Q 53.515625 38.921875 53.515625 30.90625 
L 53.515625 0 
L 44.484375 0 
L 44.484375 32.71875 
Q 44.484375 40.625 41.703125 44.40625 
Q 38.921875 48.1875 33.109375 48.1875 
Q 26.21875 48.1875 22.15625 43.53125 
Q 18.109375 38.875 18.109375 30.90625 
L 18.109375 0 
L 9.078125 0 
L 9.078125 54.6875 
L 18.109375 54.6875 
L 18.109375 46.1875 
Q 21.1875 51.21875 25.484375 53.609375 
Q 29.78125 56 35.6875 56 
Q 41.65625 56 45.828125 52.96875 
Q 50 49.953125 52 44.1875 
z
" id="DejaVuSans-6d"/>
      <path d="M 54.890625 33.015625 
L 54.890625 0 
L 45.90625 0 
L 45.90625 32.71875 
Q 45.90625 40.484375 42.875 44.328125 
Q 39.84375 48.1875 33.796875 48.1875 
Q 26.515625 48.1875 22.3125 43.546875 
Q 18.109375 38.921875 18.109375 30.90625 
L 18.109375 0 
L 9.078125 0 
L 9.078125 54.6875 
L 18.109375 54.6875 
L 18.109375 46.1875 
Q 21.34375 51.125 25.703125 53.5625 
Q 30.078125 56 35.796875 56 
Q 45.21875 56 50.046875 50.171875 
Q 54.890625 44.34375 54.890625 33.015625 
z
" id="DejaVuSans-6e"/>
      <path d="M 8.015625 75.875 
L 15.828125 75.875 
Q 23.140625 64.359375 26.78125 53.3125 
Q 30.421875 42.28125 30.421875 31.390625 
Q 30.421875 20.453125 26.78125 9.375 
Q 23.140625 -1.703125 15.828125 -13.1875 
L 8.015625 -13.1875 
Q 14.5 -2 17.703125 9.0625 
Q 20.90625 20.125 20.90625 31.390625 
Q 20.90625 42.671875 17.703125 53.65625 
Q 14.5 64.65625 8.015625 75.875 
z
" id="DejaVuSans-29"/>
     </defs>
     <g transform="translate(107.211219 338.153594)scale(0.17 -0.17)">
      <use xlink:href="#DejaVuSans-6c"/>
      <use x="27.783203" xlink:href="#DejaVuSans-6f"/>
      <use x="88.964844" xlink:href="#DejaVuSans-67"/>
      <use x="152.441406" xlink:href="#DejaVuSans-31"/>
      <use x="216.064453" xlink:href="#DejaVuSans-30"/>
      <use x="279.6875" xlink:href="#DejaVuSans-28"/>
      <use x="318.701172" xlink:href="#DejaVuSans-23"/>
      <use x="402.490234" xlink:href="#DejaVuSans-20"/>
      <use x="434.277344" xlink:href="#DejaVuSans-66"/>
      <use x="469.404297" xlink:href="#DejaVuSans-2d"/>
      <use x="505.488281" xlink:href="#DejaVuSans-65"/>
      <use x="567.011719" xlink:href="#DejaVuSans-76"/>
      <use x="626.191406" xlink:href="#DejaVuSans-61"/>
      <use x="687.470703" xlink:href="#DejaVuSans-6c"/>
      <use x="715.253906" xlink:href="#DejaVuSans-73"/>
      <use x="767.353516" xlink:href="#DejaVuSans-20"/>
      <use x="799.140625" xlink:href="#DejaVuSans-2f"/>
      <use x="832.832031" xlink:href="#DejaVuSans-20"/>
      <use x="864.619141" xlink:href="#DejaVuSans-64"/>
      <use x="928.095703" xlink:href="#DejaVuSans-69"/>
      <use x="955.878906" xlink:href="#DejaVuSans-6d"/>
      <use x="1053.291016" xlink:href="#DejaVuSans-65"/>
      <use x="1114.814453" xlink:href="#DejaVuSans-6e"/>
      <use x="1178.193359" xlink:href="#DejaVuSans-73"/>
      <use x="1230.292969" xlink:href="#DejaVuSans-69"/>
      <use x="1258.076172" xlink:href="#DejaVuSans-6f"/>
      <use x="1319.257812" xlink:href="#DejaVuSans-6e"/>
      <use x="1382.636719" xlink:href="#DejaVuSans-29"/>
     </g>
    </g>
   </g>
   <g id="matplotlib.axis_2">
    <g id="ytick_1">
     <g id="line2d_11">
      <path clip-path="url(#p0f555c7dfe)" d="M 56.12 294.88 
L 399.984 294.88 
" style="fill:none;stroke:#b0b0b0;stroke-linecap:square;stroke-width:0.8;"/>
     </g>
     <g id="line2d_12">
      <defs>
       <path d="M 0 0 
L -3.5 0 
" id="m5537736da6" style="stroke:#000000;stroke-width:0.8;"/>
      </defs>
      <g>
       <use style="stroke:#000000;stroke-width:0.8;" x="56.12" xlink:href="#m5537736da6" y="294.88"/>
      </g>
     </g>
     <g id="text_7">
      <!-- 0.0 -->
      <defs>
       <path d="M 10.6875 12.40625 
L 21 12.40625 
L 21 0 
L 10.6875 0 
z
" id="DejaVuSans-2e"/>
      </defs>
      <g transform="translate(23.675 300.95875)scale(0.16 -0.16)">
       <use xlink:href="#DejaVuSans-30"/>
       <use x="63.623047" xlink:href="#DejaVuSans-2e"/>
       <use x="95.410156" xlink:href="#DejaVuSans-30"/>
      </g>
     </g>
    </g>
    <g id="ytick_2">
     <g id="line2d_13">
      <path clip-path="url(#p0f555c7dfe)" d="M 56.12 237.843411 
L 399.984 237.843411 
" style="fill:none;stroke:#b0b0b0;stroke-linecap:square;stroke-width:0.8;"/>
     </g>
     <g id="line2d_14">
      <g>
       <use style="stroke:#000000;stroke-width:0.8;" x="56.12" xlink:href="#m5537736da6" y="237.843411"/>
      </g>
     </g>
     <g id="text_8">
      <!-- 0.2 -->
      <g transform="translate(23.675 243.922161)scale(0.16 -0.16)">
       <use xlink:href="#DejaVuSans-30"/>
       <use x="63.623047" xlink:href="#DejaVuSans-2e"/>
       <use x="95.410156" xlink:href="#DejaVuSans-32"/>
      </g>
     </g>
    </g>
    <g id="ytick_3">
     <g id="line2d_15">
      <path clip-path="url(#p0f555c7dfe)" d="M 56.12 180.806823 
L 399.984 180.806823 
" style="fill:none;stroke:#b0b0b0;stroke-linecap:square;stroke-width:0.8;"/>
     </g>
     <g id="line2d_16">
      <g>
       <use style="stroke:#000000;stroke-width:0.8;" x="56.12" xlink:href="#m5537736da6" y="180.806823"/>
      </g>
     </g>
     <g id="text_9">
      <!-- 0.4 -->
      <g transform="translate(23.675 186.885573)scale(0.16 -0.16)">
       <use xlink:href="#DejaVuSans-30"/>
       <use x="63.623047" xlink:href="#DejaVuSans-2e"/>
       <use x="95.410156" xlink:href="#DejaVuSans-34"/>
      </g>
     </g>
    </g>
    <g id="ytick_4">
     <g id="line2d_17">
      <path clip-path="url(#p0f555c7dfe)" d="M 56.12 123.770234 
L 399.984 123.770234 
" style="fill:none;stroke:#b0b0b0;stroke-linecap:square;stroke-width:0.8;"/>
     </g>
     <g id="line2d_18">
      <g>
       <use style="stroke:#000000;stroke-width:0.8;" x="56.12" xlink:href="#m5537736da6" y="123.770234"/>
      </g>
     </g>
     <g id="text_10">
      <!-- 0.6 -->
      <g transform="translate(23.675 129.848984)scale(0.16 -0.16)">
       <use xlink:href="#DejaVuSans-30"/>
       <use x="63.623047" xlink:href="#DejaVuSans-2e"/>
       <use x="95.410156" xlink:href="#DejaVuSans-36"/>
      </g>
     </g>
    </g>
    <g id="ytick_5">
     <g id="line2d_19">
      <path clip-path="url(#p0f555c7dfe)" d="M 56.12 66.733646 
L 399.984 66.733646 
" style="fill:none;stroke:#b0b0b0;stroke-linecap:square;stroke-width:0.8;"/>
     </g>
     <g id="line2d_20">
      <g>
       <use style="stroke:#000000;stroke-width:0.8;" x="56.12" xlink:href="#m5537736da6" y="66.733646"/>
      </g>
     </g>
     <g id="text_11">
      <!-- 0.8 -->
      <g transform="translate(23.675 72.812396)scale(0.16 -0.16)">
       <use xlink:href="#DejaVuSans-30"/>
       <use x="63.623047" xlink:href="#DejaVuSans-2e"/>
       <use x="95.410156" xlink:href="#DejaVuSans-38"/>
      </g>
     </g>
    </g>
    <g id="ytick_6">
     <g id="line2d_21">
      <path clip-path="url(#p0f555c7dfe)" d="M 56.12 9.697057 
L 399.984 9.697057 
" style="fill:none;stroke:#b0b0b0;stroke-linecap:square;stroke-width:0.8;"/>
     </g>
     <g id="line2d_22">
      <g>
       <use style="stroke:#000000;stroke-width:0.8;" x="56.12" xlink:href="#m5537736da6" y="9.697057"/>
      </g>
     </g>
     <g id="text_12">
      <!-- 1.0 -->
      <g transform="translate(23.675 15.775807)scale(0.16 -0.16)">
       <use xlink:href="#DejaVuSans-31"/>
       <use x="63.623047" xlink:href="#DejaVuSans-2e"/>
       <use x="95.410156" xlink:href="#DejaVuSans-30"/>
      </g>
     </g>
    </g>
    <g id="text_13">
     <!-- Fraction of function,target pairs -->
     <defs>
      <path d="M 9.8125 72.90625 
L 51.703125 72.90625 
L 51.703125 64.59375 
L 19.671875 64.59375 
L 19.671875 43.109375 
L 48.578125 43.109375 
L 48.578125 34.8125 
L 19.671875 34.8125 
L 19.671875 0 
L 9.8125 0 
z
" id="DejaVuSans-46"/>
      <path d="M 41.109375 46.296875 
Q 39.59375 47.171875 37.8125 47.578125 
Q 36.03125 48 33.890625 48 
Q 26.265625 48 22.1875 43.046875 
Q 18.109375 38.09375 18.109375 28.8125 
L 18.109375 0 
L 9.078125 0 
L 9.078125 54.6875 
L 18.109375 54.6875 
L 18.109375 46.1875 
Q 20.953125 51.171875 25.484375 53.578125 
Q 30.03125 56 36.53125 56 
Q 37.453125 56 38.578125 55.875 
Q 39.703125 55.765625 41.0625 55.515625 
z
" id="DejaVuSans-72"/>
      <path d="M 48.78125 52.59375 
L 48.78125 44.1875 
Q 44.96875 46.296875 41.140625 47.34375 
Q 37.3125 48.390625 33.40625 48.390625 
Q 24.65625 48.390625 19.8125 42.84375 
Q 14.984375 37.3125 14.984375 27.296875 
Q 14.984375 17.28125 19.8125 11.734375 
Q 24.65625 6.203125 33.40625 6.203125 
Q 37.3125 6.203125 41.140625 7.25 
Q 44.96875 8.296875 48.78125 10.40625 
L 48.78125 2.09375 
Q 45.015625 0.34375 40.984375 -0.53125 
Q 36.96875 -1.421875 32.421875 -1.421875 
Q 20.0625 -1.421875 12.78125 6.34375 
Q 5.515625 14.109375 5.515625 27.296875 
Q 5.515625 40.671875 12.859375 48.328125 
Q 20.21875 56 33.015625 56 
Q 37.15625 56 41.109375 55.140625 
Q 45.0625 54.296875 48.78125 52.59375 
z
" id="DejaVuSans-63"/>
      <path d="M 18.3125 70.21875 
L 18.3125 54.6875 
L 36.8125 54.6875 
L 36.8125 47.703125 
L 18.3125 47.703125 
L 18.3125 18.015625 
Q 18.3125 11.328125 20.140625 9.421875 
Q 21.96875 7.515625 27.59375 7.515625 
L 36.8125 7.515625 
L 36.8125 0 
L 27.59375 0 
Q 17.1875 0 13.234375 3.875 
Q 9.28125 7.765625 9.28125 18.015625 
L 9.28125 47.703125 
L 2.6875 47.703125 
L 2.6875 54.6875 
L 9.28125 54.6875 
L 9.28125 70.21875 
z
" id="DejaVuSans-74"/>
      <path d="M 8.5 21.578125 
L 8.5 54.6875 
L 17.484375 54.6875 
L 17.484375 21.921875 
Q 17.484375 14.15625 20.5 10.265625 
Q 23.53125 6.390625 29.59375 6.390625 
Q 36.859375 6.390625 41.078125 11.03125 
Q 45.3125 15.671875 45.3125 23.6875 
L 45.3125 54.6875 
L 54.296875 54.6875 
L 54.296875 0 
L 45.3125 0 
L 45.3125 8.40625 
Q 42.046875 3.421875 37.71875 1 
Q 33.40625 -1.421875 27.6875 -1.421875 
Q 18.265625 -1.421875 13.375 4.4375 
Q 8.5 10.296875 8.5 21.578125 
z
M 31.109375 56 
z
" id="DejaVuSans-75"/>
      <path d="M 11.71875 12.40625 
L 22.015625 12.40625 
L 22.015625 4 
L 14.015625 -11.625 
L 7.71875 -11.625 
L 11.71875 4 
z
" id="DejaVuSans-2c"/>
      <path d="M 18.109375 8.203125 
L 18.109375 -20.796875 
L 9.078125 -20.796875 
L 9.078125 54.6875 
L 18.109375 54.6875 
L 18.109375 46.390625 
Q 20.953125 51.265625 25.265625 53.625 
Q 29.59375 56 35.59375 56 
Q 45.5625 56 51.78125 48.09375 
Q 58.015625 40.1875 58.015625 27.296875 
Q 58.015625 14.40625 51.78125 6.484375 
Q 45.5625 -1.421875 35.59375 -1.421875 
Q 29.59375 -1.421875 25.265625 0.953125 
Q 20.953125 3.328125 18.109375 8.203125 
z
M 48.6875 27.296875 
Q 48.6875 37.203125 44.609375 42.84375 
Q 40.53125 48.484375 33.40625 48.484375 
Q 26.265625 48.484375 22.1875 42.84375 
Q 18.109375 37.203125 18.109375 27.296875 
Q 18.109375 17.390625 22.1875 11.75 
Q 26.265625 6.109375 33.40625 6.109375 
Q 40.53125 6.109375 44.609375 11.75 
Q 48.6875 17.390625 48.6875 27.296875 
z
" id="DejaVuSans-70"/>
     </defs>
     <g transform="translate(16.139531 286.001989)rotate(-90)scale(0.17 -0.17)">
      <use xlink:href="#DejaVuSans-46"/>
      <use x="57.410156" xlink:href="#DejaVuSans-72"/>
      <use x="98.523438" xlink:href="#DejaVuSans-61"/>
      <use x="159.802734" xlink:href="#DejaVuSans-63"/>
      <use x="214.783203" xlink:href="#DejaVuSans-74"/>
      <use x="253.992188" xlink:href="#DejaVuSans-69"/>
      <use x="281.775391" xlink:href="#DejaVuSans-6f"/>
      <use x="342.957031" xlink:href="#DejaVuSans-6e"/>
      <use x="406.335938" xlink:href="#DejaVuSans-20"/>
      <use x="438.123047" xlink:href="#DejaVuSans-6f"/>
      <use x="499.304688" xlink:href="#DejaVuSans-66"/>
      <use x="534.509766" xlink:href="#DejaVuSans-20"/>
      <use x="566.296875" xlink:href="#DejaVuSans-66"/>
      <use x="601.501953" xlink:href="#DejaVuSans-75"/>
      <use x="664.880859" xlink:href="#DejaVuSans-6e"/>
      <use x="728.259766" xlink:href="#DejaVuSans-63"/>
      <use x="783.240234" xlink:href="#DejaVuSans-74"/>
      <use x="822.449219" xlink:href="#DejaVuSans-69"/>
      <use x="850.232422" xlink:href="#DejaVuSans-6f"/>
      <use x="911.414062" xlink:href="#DejaVuSans-6e"/>
      <use x="974.792969" xlink:href="#DejaVuSans-2c"/>
      <use x="1006.580078" xlink:href="#DejaVuSans-74"/>
      <use x="1045.789062" xlink:href="#DejaVuSans-61"/>
      <use x="1107.068359" xlink:href="#DejaVuSans-72"/>
      <use x="1148.166016" xlink:href="#DejaVuSans-67"/>
      <use x="1211.642578" xlink:href="#DejaVuSans-65"/>
      <use x="1273.166016" xlink:href="#DejaVuSans-74"/>
      <use x="1312.375" xlink:href="#DejaVuSans-20"/>
      <use x="1344.162109" xlink:href="#DejaVuSans-70"/>
      <use x="1407.638672" xlink:href="#DejaVuSans-61"/>
      <use x="1468.917969" xlink:href="#DejaVuSans-69"/>
      <use x="1496.701172" xlink:href="#DejaVuSans-72"/>
      <use x="1537.814453" xlink:href="#DejaVuSans-73"/>
     </g>
    </g>
   </g>
   <g id="line2d_23">
    <defs>
     <path d="M 0 1.5 
C 0.397805 1.5 0.77937 1.341951 1.06066 1.06066 
C 1.341951 0.77937 1.5 0.397805 1.5 0 
C 1.5 -0.397805 1.341951 -0.77937 1.06066 -1.06066 
C 0.77937 -1.341951 0.397805 -1.5 0 -1.5 
C -0.397805 -1.5 -0.77937 -1.341951 -1.06066 -1.06066 
C -1.341951 -0.77937 -1.5 -0.397805 -1.5 0 
C -1.5 0.397805 -1.341951 0.77937 -1.06066 1.06066 
C -0.77937 1.341951 -0.397805 1.5 0 1.5 
z
" id="m7690cc2a0e" style="stroke:#000080;"/>
    </defs>
    <g>
     <use style="fill:#000080;stroke:#000080;" x="305.780419" xlink:href="#m7690cc2a0e" y="82.390748"/>
     <use style="fill:#000080;stroke:#000080;" x="305.780419" xlink:href="#m7690cc2a0e" y="82.390748"/>
    </g>
   </g>
   <g id="line2d_24">
    <path d="M 16.504332 294.88 
L 16.504332 284.81472 
L 28.429836 284.81472 
L 28.429836 284.255537 
L 35.405809 284.255537 
L 35.405809 283.696355 
L 47.331314 283.696355 
L 47.331314 282.577991 
L 49.983455 282.577991 
L 49.983455 282.018808 
L 66.232791 282.018808 
L 66.232791 281.459626 
L 71.182322 281.459626 
L 71.182322 280.900444 
L 97.218344 280.900444 
L 97.218344 280.341262 
L 97.685473 280.341262 
L 97.685473 279.782079 
L 98.583322 279.782079 
L 98.583322 279.222897 
L 100.642134 279.222897 
L 100.642134 276.986168 
L 104.55873 276.986168 
L 104.55873 276.426986 
L 112.632197 276.426986 
L 112.632197 275.867804 
L 123.391388 275.867804 
L 123.391388 275.308622 
L 127.753486 275.308622 
L 127.753486 274.749439 
L 130.332847 274.749439 
L 130.332847 274.190257 
L 133.053947 274.190257 
L 133.053947 273.631075 
L 138.94094 273.631075 
L 138.94094 273.071893 
L 141.201633 273.071893 
L 141.201633 271.953528 
L 142.90255 271.953528 
L 142.90255 271.394346 
L 143.662031 271.394346 
L 143.662031 270.275981 
L 144.821426 270.275981 
L 144.821426 269.716799 
L 145.568948 269.716799 
L 145.568948 268.598435 
L 147.473568 268.598435 
L 147.473568 268.039252 
L 148.238724 268.039252 
L 148.238724 267.48007 
L 148.632777 267.48007 
L 148.632777 266.920888 
L 149.992768 266.920888 
L 149.992768 266.361706 
L 150.591949 266.361706 
L 150.591949 265.802523 
L 152.592357 265.802523 
L 152.592357 265.243341 
L 153.834861 265.243341 
L 153.834861 264.684159 
L 155.195706 264.684159 
L 155.195706 263.565795 
L 155.619347 263.565795 
L 155.619347 263.006612 
L 156.135923 263.006612 
L 156.135923 262.44743 
L 156.466845 262.44743 
L 156.466845 261.329066 
L 157.55136 261.329066 
L 157.55136 260.769883 
L 158.004576 260.769883 
L 158.004576 259.651519 
L 159.517727 259.651519 
L 159.517727 257.973972 
L 159.694189 257.973972 
L 159.694189 257.41479 
L 160.013075 257.41479 
L 160.013075 256.855608 
L 160.720499 256.855608 
L 160.720499 256.296425 
L 160.853871 256.296425 
L 160.931844 254.618879 
L 161.662942 254.618879 
L 161.662942 254.059696 
L 161.892541 254.059696 
L 161.892541 252.941332 
L 162.03906 252.941332 
L 162.03906 252.38215 
L 164.272959 252.38215 
L 164.272959 251.822967 
L 164.867972 251.822967 
L 164.867972 251.263785 
L 165.223229 251.263785 
L 165.22626 249.027056 
L 165.395144 249.027056 
L 165.395144 247.908692 
L 166.146747 247.908692 
L 166.146747 247.34951 
L 166.636689 247.34951 
L 166.636689 246.790327 
L 166.910909 246.790327 
L 166.910909 246.231145 
L 167.467872 246.231145 
L 167.467872 245.671963 
L 167.581891 245.671963 
L 167.581891 245.112781 
L 168.105065 245.112781 
L 168.105065 244.553598 
L 169.052682 244.553598 
L 169.052682 243.435234 
L 169.257691 243.435234 
L 169.279255 241.757687 
L 169.566584 241.757687 
L 169.566584 240.639323 
L 171.434783 240.639323 
L 171.434783 240.08014 
L 171.777804 240.08014 
L 171.852195 237.843411 
L 172.628274 237.843411 
L 172.628274 237.284229 
L 172.785235 237.284229 
L 172.785235 236.725047 
L 172.960123 236.725047 
L 172.960123 236.165865 
L 173.733229 236.165865 
L 173.733229 235.0475 
L 173.957268 235.0475 
L 173.957268 234.488318 
L 174.316562 234.488318 
L 174.352261 232.810771 
L 174.566671 232.810771 
L 174.607126 231.133225 
L 174.747103 231.133225 
L 174.747103 230.01486 
L 175.863687 230.01486 
L 175.863687 229.455678 
L 176.235262 229.455678 
L 176.235262 228.896496 
L 176.419664 228.896496 
L 176.419664 227.778131 
L 177.160854 227.778131 
L 177.160854 227.218949 
L 177.286102 227.218949 
L 177.286102 226.659767 
L 177.423873 226.659767 
L 177.423873 225.541402 
L 177.609312 225.541402 
L 177.649106 224.423038 
L 177.789854 224.423038 
L 177.794234 222.745491 
L 178.331705 222.745491 
L 178.331705 221.627126 
L 179.146861 221.627126 
L 179.146861 221.067944 
L 179.281275 221.067944 
L 179.282614 219.390397 
L 179.921267 219.390397 
L 179.921267 218.831215 
L 180.560691 218.831215 
L 180.616533 216.594486 
L 180.717826 216.594486 
L 180.737521 215.476122 
L 181.455548 215.476122 
L 181.553207 212.680211 
L 181.727142 212.680211 
L 181.807097 211.561846 
L 181.842899 211.561846 
L 181.914279 210.443482 
L 182.220591 210.443482 
L 182.289301 208.765935 
L 182.489353 208.765935 
L 182.489353 208.206753 
L 182.622176 208.206753 
L 182.622176 207.088388 
L 182.756169 207.088388 
L 182.836938 205.410841 
L 182.990873 205.410841 
L 183.051203 204.292477 
L 183.156275 204.292477 
L 183.193645 202.61493 
L 183.834309 202.61493 
L 183.922456 200.378201 
L 184.324608 200.378201 
L 184.422205 198.700655 
L 184.53011 198.700655 
L 184.53011 198.141472 
L 184.895291 198.141472 
L 184.907846 195.904743 
L 185.287858 195.904743 
L 185.337835 193.668014 
L 185.479432 193.668014 
L 185.479432 193.108832 
L 185.692895 193.108832 
L 185.714096 190.872103 
L 186.182105 190.872103 
L 186.182105 190.312921 
L 186.298258 190.312921 
L 186.298258 189.753739 
L 186.601887 189.753739 
L 186.601887 189.194556 
L 186.950906 189.194556 
L 186.950906 188.635374 
L 187.281216 188.635374 
L 187.391875 186.398645 
L 187.443606 186.398645 
L 187.443606 184.721099 
L 187.589615 184.721099 
L 187.589615 184.161916 
L 187.862525 184.161916 
L 187.862525 183.602734 
L 187.981635 183.602734 
L 187.988901 182.48437 
L 188.264338 182.48437 
L 188.264338 181.925187 
L 188.639892 181.925187 
L 188.642224 179.688458 
L 188.820025 179.688458 
L 188.864574 178.010912 
L 189.082572 178.010912 
L 189.096957 176.892547 
L 189.535554 176.892547 
L 189.535554 176.333365 
L 189.95965 176.333365 
L 190.060125 174.655818 
L 190.079435 174.655818 
L 190.079435 172.978271 
L 190.872851 172.978271 
L 190.872851 171.859907 
L 191.196735 171.859907 
L 191.196735 171.300725 
L 191.380624 171.300725 
L 191.380624 170.741543 
L 191.521865 170.741543 
L 191.615603 168.504814 
L 192.026431 168.504814 
L 192.026431 167.386449 
L 192.275474 167.386449 
L 192.275474 166.827267 
L 192.555041 166.827267 
L 192.555041 166.268085 
L 192.678396 166.268085 
L 192.678396 164.031356 
L 192.855096 164.031356 
L 192.920666 162.912991 
L 193.034214 162.912991 
L 193.034214 162.353809 
L 193.517971 162.353809 
L 193.517971 161.794627 
L 194.097496 161.794627 
L 194.174289 159.557898 
L 194.346944 159.557898 
L 194.390395 156.761987 
L 194.96326 156.761987 
L 195.072691 155.08444 
L 195.172396 155.08444 
L 195.176117 153.406893 
L 195.387948 153.406893 
L 195.387948 152.847711 
L 195.520789 152.847711 
L 195.614829 150.610982 
L 195.907154 150.610982 
L 195.911228 149.492617 
L 196.076966 149.492617 
L 196.076966 148.933435 
L 196.228627 148.933435 
L 196.228627 147.815071 
L 196.464 147.815071 
L 196.464 147.255888 
L 197.07541 147.255888 
L 197.07541 146.137524 
L 197.593016 146.137524 
L 197.593016 145.578342 
L 197.707178 145.578342 
L 197.707178 144.459977 
L 198.085631 144.459977 
L 198.085631 143.900795 
L 198.277108 143.900795 
L 198.277108 143.341613 
L 198.89569 143.341613 
L 198.89569 142.78243 
L 199.102539 142.78243 
L 199.102539 141.664066 
L 199.278478 141.664066 
L 199.278478 141.104884 
L 199.900679 141.104884 
L 199.900679 139.986519 
L 200.107035 139.986519 
L 200.107035 139.427337 
L 200.948896 139.427337 
L 200.948896 138.868155 
L 201.084407 138.868155 
L 201.184032 137.74979 
L 201.829642 137.74979 
L 201.829642 137.190608 
L 202.239216 137.190608 
L 202.239216 136.631426 
L 202.664393 136.631426 
L 202.664393 136.072244 
L 202.984708 136.072244 
L 202.984708 135.513061 
L 204.673819 135.513061 
L 204.673819 134.953879 
L 209.190021 134.953879 
L 209.190021 134.394697 
L 242.938506 134.394697 
L 242.991127 132.71715 
L 243.188175 132.71715 
L 243.292817 128.802874 
L 243.302803 128.802874 
L 243.408233 125.447781 
L 243.491686 125.447781 
L 243.602723 121.533505 
L 243.618195 121.533505 
L 243.695823 119.296776 
L 243.775468 119.296776 
L 243.775468 118.737594 
L 244.106068 118.737594 
L 244.106068 118.178412 
L 244.620282 118.178412 
L 244.620282 117.61923 
L 254.722541 117.61923 
L 254.818565 114.264136 
L 254.91607 114.264136 
L 254.966064 111.468225 
L 255.053525 111.468225 
L 255.139371 110.349861 
L 261.55706 110.349861 
L 261.629138 108.113132 
L 261.689922 108.113132 
L 261.749139 103.080491 
L 261.992914 103.080491 
L 261.992914 101.962127 
L 266.411704 101.962127 
L 266.508986 100.843762 
L 266.52844 100.843762 
L 266.536278 99.166216 
L 266.741422 99.166216 
L 266.741422 98.047851 
L 270.223153 98.047851 
L 270.310201 96.370304 
L 270.458826 96.370304 
L 270.458826 95.25194 
L 273.328742 95.25194 
L 273.419259 94.133576 
L 275.945098 94.133576 
L 275.945098 93.574393 
L 276.107578 93.574393 
L 276.107578 93.015211 
L 278.243006 93.015211 
L 278.252845 91.337664 
L 280.256796 91.337664 
L 280.269553 90.2193 
L 283.669365 90.2193 
L 283.687001 88.541753 
L 287.781863 88.541753 
L 287.856201 87.423389 
L 292.098458 87.423389 
L 292.098458 86.864206 
L 294.731254 86.864206 
L 294.732776 85.745842 
L 295.524492 85.745842 
L 295.524492 85.18666 
L 297.723181 85.18666 
L 297.723181 84.627477 
L 300.2631 84.627477 
L 300.2631 84.068295 
L 300.848352 84.068295 
L 300.848352 83.509113 
L 302.482854 83.509113 
L 302.482854 82.949931 
L 305.780419 82.949931 
L 305.780419 82.390748 
L 333.429677 82.390748 
L 333.429677 82.390748 
" style="fill:none;stroke:#000080;stroke-linecap:square;stroke-width:1.5;"/>
   </g>
   <g id="line2d_25">
    <defs>
     <path d="M 0 6 
C 1.591219 6 3.117479 5.367802 4.242641 4.242641 
C 5.367802 3.117479 6 1.591219 6 0 
C 6 -1.591219 5.367802 -3.117479 4.242641 -4.242641 
C 3.117479 -5.367802 1.591219 -6 0 -6 
C -1.591219 -6 -3.117479 -5.367802 -4.242641 -4.242641 
C -5.367802 -3.117479 -6 -1.591219 -6 0 
C -6 1.591219 -5.367802 3.117479 -4.242641 4.242641 
C -3.117479 5.367802 -1.591219 6 0 6 
z
" id="m5ea1582362" style="stroke:#000080;stroke-width:1.5;"/>
    </defs>
    <g>
     <use style="fill-opacity:0;stroke:#000080;stroke-width:1.5;" x="148.632777" xlink:href="#m5ea1582362" y="267.48007"/>
     <use style="fill-opacity:0;stroke:#000080;stroke-width:1.5;" x="184.895291" xlink:href="#m5ea1582362" y="197.023108"/>
     <use style="fill-opacity:0;stroke:#000080;stroke-width:1.5;" x="244.620282" xlink:href="#m5ea1582362" y="117.61923"/>
     <use style="fill-opacity:0;stroke:#000080;stroke-width:1.5;" x="305.780419" xlink:href="#m5ea1582362" y="82.390748"/>
     <use style="fill-opacity:0;stroke:#000080;stroke-width:1.5;" x="305.780419" xlink:href="#m5ea1582362" y="82.390748"/>
     <use style="fill-opacity:0;stroke:#000080;stroke-width:1.5;" x="333.429677" xlink:href="#m5ea1582362" y="82.390748"/>
    </g>
   </g>
   <g id="line2d_26">
    <path style="fill:none;stroke:#000080;stroke-linecap:square;stroke-width:1.5;"/>
    <g/>
   </g>
   <g id="line2d_27">
    <path clip-path="url(#p0f555c7dfe)" d="M 242.272854 134.394697 
" style="fill:none;stroke:#000080;stroke-linecap:square;stroke-width:1.5;"/>
    <defs>
     <path d="M -12 12 
L 12 -12 
M -12 -12 
L 12 12 
" id="m7b3f67081b" style="stroke:#000080;stroke-width:3;"/>
    </defs>
    <g clip-path="url(#p0f555c7dfe)">
     <use style="fill:#000080;stroke:#000080;stroke-width:3;" x="242.272854" xlink:href="#m7b3f67081b" y="134.394697"/>
    </g>
   </g>
   <g id="line2d_28">
    <defs>
     <path d="M 0 1.5 
C 0.397805 1.5 0.77937 1.341951 1.06066 1.06066 
C 1.341951 0.77937 1.5 0.397805 1.5 0 
C 1.5 -0.397805 1.341951 -0.77937 1.06066 -1.06066 
C 0.77937 -1.341951 0.397805 -1.5 0 -1.5 
C -0.397805 -1.5 -0.77937 -1.341951 -1.06066 -1.06066 
C -1.341951 -0.77937 -1.5 -0.397805 -1.5 0 
C -1.5 0.397805 -1.341951 0.77937 -1.06066 1.06066 
C -0.77937 1.341951 -0.397805 1.5 0 1.5 
z
" id="m20498d69b9" style="stroke:#ff00ff;"/>
    </defs>
    <g>
     <use style="fill:#ff00ff;stroke:#ff00ff;" x="312.46632" xlink:href="#m20498d69b9" y="199.819019"/>
     <use style="fill:#ff00ff;stroke:#ff00ff;" x="312.46632" xlink:href="#m20498d69b9" y="199.819019"/>
    </g>
   </g>
   <g id="line2d_29">
    <path d="M 16.504332 294.88 
L 16.504332 265.802523 
L 28.429836 265.802523 
L 28.429836 264.684159 
L 35.405809 264.684159 
L 35.405809 264.124977 
L 40.355341 264.124977 
L 40.355341 263.565795 
L 44.194496 263.565795 
L 44.194496 263.006612 
L 52.280845 263.006612 
L 52.280845 262.44743 
L 54.307286 262.44743 
L 54.307286 261.329066 
L 100.77101 261.329066 
L 100.77101 259.651519 
L 102.128369 259.651519 
L 102.128369 258.533154 
L 109.143848 258.533154 
L 109.143848 257.41479 
L 126.903352 257.41479 
L 126.903352 256.855608 
L 129.65161 256.855608 
L 129.65161 255.737243 
L 160.414574 255.737243 
L 160.414574 255.178061 
L 171.424217 255.178061 
L 171.424217 254.618879 
L 173.991899 254.618879 
L 173.991899 254.059696 
L 176.089206 254.059696 
L 176.089206 252.941332 
L 177.150249 252.941332 
L 177.150249 252.38215 
L 179.376075 252.38215 
L 179.376075 251.263785 
L 180.723983 251.263785 
L 180.723983 250.145421 
L 185.341601 250.145421 
L 185.341601 249.027056 
L 188.705825 249.027056 
L 188.705825 248.467874 
L 189.54588 248.467874 
L 189.54588 247.908692 
L 190.124407 247.908692 
L 190.124407 247.34951 
L 192.069145 247.34951 
L 192.069145 246.231145 
L 192.880625 246.231145 
L 192.880625 245.671963 
L 193.605542 245.671963 
L 193.605542 244.553598 
L 194.20356 244.553598 
L 194.20356 243.994416 
L 194.902342 243.994416 
L 194.902342 243.435234 
L 195.272055 243.435234 
L 195.272055 242.876052 
L 195.53537 242.876052 
L 195.53537 242.316869 
L 195.711965 242.316869 
L 195.711965 241.757687 
L 195.962082 241.757687 
L 195.962082 241.198505 
L 196.094107 241.198505 
L 196.094107 239.520958 
L 196.387386 239.520958 
L 196.387386 238.402594 
L 196.606923 238.402594 
L 196.606923 237.843411 
L 197.240255 237.843411 
L 197.240255 237.284229 
L 197.616554 237.284229 
L 197.616554 236.165865 
L 197.797327 236.165865 
L 197.846094 234.488318 
L 198.154612 234.488318 
L 198.249567 230.574042 
L 198.402264 230.574042 
L 198.402264 229.455678 
L 198.634234 229.455678 
L 198.730909 228.337313 
L 198.939736 228.337313 
L 198.939736 227.778131 
L 199.436877 227.778131 
L 199.436877 227.218949 
L 199.874406 227.218949 
L 199.921265 226.100584 
L 200.198578 226.100584 
L 200.198578 224.98222 
L 200.799281 224.98222 
L 200.799281 223.863855 
L 201.300964 223.863855 
L 201.395645 222.745491 
L 201.481703 222.745491 
L 201.499011 220.508762 
L 201.964148 220.508762 
L 201.964148 219.94958 
L 202.204277 219.94958 
L 202.204277 219.390397 
L 202.451551 219.390397 
L 202.451551 218.831215 
L 204.631534 218.831215 
L 204.631534 218.272033 
L 205.202407 218.272033 
L 205.250418 216.594486 
L 205.341919 216.594486 
L 205.341919 216.035304 
L 205.500739 216.035304 
L 205.500739 214.91694 
L 206.144805 214.91694 
L 206.144805 214.357757 
L 206.352858 214.357757 
L 206.352858 213.798575 
L 206.774298 213.798575 
L 206.774298 213.239393 
L 206.966886 213.239393 
L 206.966886 212.680211 
L 208.106567 212.680211 
L 208.106567 212.121028 
L 237.120148 212.121028 
L 237.120148 211.561846 
L 244.485834 211.561846 
L 244.485834 211.002664 
L 244.838511 211.002664 
L 244.838511 210.443482 
L 248.488727 210.443482 
L 248.488727 209.884299 
L 257.859339 209.884299 
L 257.859339 209.325117 
L 259.622138 209.325117 
L 259.622138 208.765935 
L 261.630289 208.765935 
L 261.630289 208.206753 
L 266.70436 208.206753 
L 266.70436 207.088388 
L 269.048602 207.088388 
L 269.048602 206.529206 
L 270.253265 206.529206 
L 270.253265 205.970024 
L 273.315279 205.970024 
L 273.329325 204.851659 
L 273.489002 204.851659 
L 273.489002 204.292477 
L 276.086085 204.292477 
L 276.086085 203.733295 
L 278.22177 203.733295 
L 278.22177 203.174112 
L 282.108138 203.174112 
L 282.108138 202.61493 
L 287.781705 202.61493 
L 287.781705 202.055748 
L 291.15627 202.055748 
L 291.15627 201.496566 
L 293.931703 201.496566 
L 293.931703 200.937384 
L 297.747387 200.937384 
L 297.747387 200.378201 
L 312.46632 200.378201 
L 312.46632 199.819019 
L 333.429677 199.819019 
L 333.429677 199.819019 
" style="fill:none;stroke:#ff00ff;stroke-linecap:square;stroke-width:1.5;"/>
   </g>
   <g id="line2d_30">
    <defs>
     <path d="M -0 8.485281 
L 5.091169 0 
L 0 -8.485281 
L -5.091169 -0 
z
" id="m10ab8a6e38" style="stroke:#ff00ff;stroke-linejoin:miter;stroke-width:1.5;"/>
    </defs>
    <g>
     <use style="fill-opacity:0;stroke:#ff00ff;stroke-linejoin:miter;stroke-width:1.5;" x="109.143848" xlink:href="#m10ab8a6e38" y="257.41479"/>
     <use style="fill-opacity:0;stroke:#ff00ff;stroke-linejoin:miter;stroke-width:1.5;" x="176.089206" xlink:href="#m10ab8a6e38" y="252.941332"/>
     <use style="fill-opacity:0;stroke:#ff00ff;stroke-linejoin:miter;stroke-width:1.5;" x="237.120148" xlink:href="#m10ab8a6e38" y="211.561846"/>
     <use style="fill-opacity:0;stroke:#ff00ff;stroke-linejoin:miter;stroke-width:1.5;" x="312.46632" xlink:href="#m10ab8a6e38" y="199.819019"/>
     <use style="fill-opacity:0;stroke:#ff00ff;stroke-linejoin:miter;stroke-width:1.5;" x="312.46632" xlink:href="#m10ab8a6e38" y="199.819019"/>
     <use style="fill-opacity:0;stroke:#ff00ff;stroke-linejoin:miter;stroke-width:1.5;" x="333.429677" xlink:href="#m10ab8a6e38" y="199.819019"/>
    </g>
   </g>
   <g id="line2d_31">
    <path style="fill:none;stroke:#ff00ff;stroke-linecap:square;stroke-width:1.5;"/>
    <g/>
   </g>
   <g id="line2d_32">
    <path clip-path="url(#p0f555c7dfe)" d="M 242.272854 211.561846 
" style="fill:none;stroke:#ff00ff;stroke-linecap:square;stroke-width:1.5;"/>
    <defs>
     <path d="M -12 12 
L 12 -12 
M -12 -12 
L 12 12 
" id="m1d69c6139a" style="stroke:#ff00ff;stroke-width:3;"/>
    </defs>
    <g clip-path="url(#p0f555c7dfe)">
     <use style="fill:#ff00ff;stroke:#ff00ff;stroke-width:3;" x="242.272854" xlink:href="#m1d69c6139a" y="211.561846"/>
    </g>
   </g>
   <g id="line2d_33">
    <defs>
     <path d="M 0 1.5 
C 0.397805 1.5 0.77937 1.341951 1.06066 1.06066 
C 1.341951 0.77937 1.5 0.397805 1.5 0 
C 1.5 -0.397805 1.341951 -0.77937 1.06066 -1.06066 
C 0.77937 -1.341951 0.397805 -1.5 0 -1.5 
C -0.397805 -1.5 -0.77937 -1.341951 -1.06066 -1.06066 
C -1.341951 -0.77937 -1.5 -0.397805 -1.5 0 
C -1.5 0.397805 -1.341951 0.77937 -1.06066 1.06066 
C -0.77937 1.341951 -0.397805 1.5 0 1.5 
z
" id="mcc28598b98" style="stroke:#ffa500;"/>
    </defs>
    <g>
     <use style="fill:#ffa500;stroke:#ffa500;" x="318.72082" xlink:href="#mcc28598b98" y="132.71715"/>
     <use style="fill:#ffa500;stroke:#ffa500;" x="318.72082" xlink:href="#mcc28598b98" y="132.71715"/>
    </g>
   </g>
   <g id="line2d_34">
    <path d="M 16.504332 294.88 
L 16.504332 289.288178 
L 28.429836 289.288178 
L 28.429836 287.610631 
L 40.355341 287.610631 
L 40.355341 285.933084 
L 44.194496 285.933084 
L 44.194496 285.373902 
L 49.983455 285.373902 
L 49.983455 284.255537 
L 52.280845 284.255537 
L 52.280845 283.137173 
L 56.12 283.137173 
L 56.12 282.577991 
L 86.946982 282.577991 
L 86.946982 282.018808 
L 87.511126 282.018808 
L 87.511126 281.459626 
L 91.680097 281.459626 
L 91.680097 280.341262 
L 103.275786 280.341262 
L 103.275786 278.663715 
L 105.461817 278.663715 
L 105.461817 278.104533 
L 120.178549 278.104533 
L 120.178549 277.545351 
L 142.611694 277.545351 
L 142.611694 276.986168 
L 145.106786 276.986168 
L 145.106786 275.308622 
L 146.735048 275.308622 
L 146.735048 274.749439 
L 157.356145 274.749439 
L 157.356145 273.631075 
L 158.832801 273.631075 
L 158.832801 273.071893 
L 159.150653 273.071893 
L 159.150653 272.51271 
L 160.342267 272.51271 
L 160.342267 271.953528 
L 162.108222 271.953528 
L 162.108222 270.835164 
L 164.218417 270.835164 
L 164.218417 270.275981 
L 164.448244 270.275981 
L 164.448244 269.716799 
L 165.443093 269.716799 
L 165.443093 269.157617 
L 167.023207 269.157617 
L 167.023207 268.039252 
L 169.839923 268.039252 
L 169.839923 267.48007 
L 169.962329 267.48007 
L 169.962329 265.802523 
L 170.081585 265.802523 
L 170.081585 263.565795 
L 170.243091 263.565795 
L 170.31539 262.44743 
L 170.405339 262.44743 
L 170.405339 261.329066 
L 171.621783 261.329066 
L 171.621783 260.769883 
L 172.340078 260.769883 
L 172.340078 260.210701 
L 172.952388 260.210701 
L 172.952388 259.092337 
L 173.374626 259.092337 
L 173.374626 258.533154 
L 174.79409 258.533154 
L 174.853076 255.178061 
L 175.088728 255.178061 
L 175.088728 254.618879 
L 175.385122 254.618879 
L 175.385122 254.059696 
L 175.565524 254.059696 
L 175.628552 252.38215 
L 176.027846 252.38215 
L 176.027846 251.822967 
L 176.32294 251.822967 
L 176.32294 251.263785 
L 176.487521 251.263785 
L 176.487521 250.145421 
L 176.68483 250.145421 
L 176.68483 249.586238 
L 176.94137 249.586238 
L 176.953638 247.34951 
L 177.347636 247.34951 
L 177.347636 246.790327 
L 177.57682 246.790327 
L 177.57682 246.231145 
L 177.753311 246.231145 
L 177.753311 245.671963 
L 178.67629 245.671963 
L 178.67629 245.112781 
L 178.818543 245.112781 
L 178.904975 242.876052 
L 179.113093 242.876052 
L 179.113093 242.316869 
L 179.947048 242.316869 
L 179.993356 240.08014 
L 180.433441 240.08014 
L 180.495936 238.402594 
L 180.637582 238.402594 
L 180.669724 236.725047 
L 181.748036 236.725047 
L 181.748036 236.165865 
L 181.864805 236.165865 
L 181.864805 235.606682 
L 182.081207 235.606682 
L 182.081207 234.488318 
L 182.339812 234.488318 
L 182.402465 232.810771 
L 182.756169 232.810771 
L 182.756169 231.692407 
L 182.896724 231.692407 
L 182.996268 230.01486 
L 183.046901 230.01486 
L 183.082363 227.778131 
L 183.463494 227.778131 
L 183.556689 226.659767 
L 183.646265 226.659767 
L 183.704344 225.541402 
L 184.097405 225.541402 
L 184.193276 223.863855 
L 184.324608 223.863855 
L 184.324608 222.745491 
L 184.77118 222.745491 
L 184.77118 222.186309 
L 185.37076 222.186309 
L 185.390484 221.067944 
L 185.513019 221.067944 
L 185.513019 219.94958 
L 185.638389 219.94958 
L 185.638389 219.390397 
L 185.972848 219.390397 
L 185.972848 218.831215 
L 186.122834 218.831215 
L 186.122834 218.272033 
L 186.40567 218.272033 
L 186.40567 217.712851 
L 186.606261 217.712851 
L 186.606261 217.153669 
L 186.949192 217.153669 
L 186.949192 215.476122 
L 187.687639 215.476122 
L 187.687639 214.357757 
L 188.106341 214.357757 
L 188.106341 213.798575 
L 188.448426 213.798575 
L 188.521356 211.561846 
L 188.92736 211.561846 
L 188.92736 211.002664 
L 189.212358 211.002664 
L 189.212358 209.325117 
L 189.338934 209.325117 
L 189.338934 208.765935 
L 189.508975 208.765935 
L 189.508975 208.206753 
L 189.632662 208.206753 
L 189.632662 207.64757 
L 189.769299 207.64757 
L 189.769299 207.088388 
L 190.089439 207.088388 
L 190.188451 205.970024 
L 191.225514 205.970024 
L 191.225514 204.292477 
L 191.370018 204.292477 
L 191.370018 203.733295 
L 191.552731 203.733295 
L 191.552731 203.174112 
L 192.081238 203.174112 
L 192.081238 202.055748 
L 192.661795 202.055748 
L 192.661795 201.496566 
L 193.129665 201.496566 
L 193.155389 200.378201 
L 193.409348 200.378201 
L 193.409348 198.700655 
L 193.605542 198.700655 
L 193.605542 198.141472 
L 194.157942 198.141472 
L 194.157942 197.58229 
L 194.62853 197.58229 
L 194.706272 195.345561 
L 195.882174 195.345561 
L 195.882174 194.786379 
L 196.249613 194.786379 
L 196.249613 194.227197 
L 197.526842 194.227197 
L 197.526842 193.668014 
L 197.790479 193.668014 
L 197.790479 193.108832 
L 199.710204 193.108832 
L 199.710204 191.990468 
L 200.064681 191.990468 
L 200.064681 191.431285 
L 201.242037 191.431285 
L 201.269288 190.312921 
L 201.665303 190.312921 
L 201.665303 189.194556 
L 242.814584 189.194556 
L 242.814584 188.635374 
L 242.960638 188.635374 
L 243.061509 186.398645 
L 243.090409 186.398645 
L 243.143222 185.280281 
L 243.20862 185.280281 
L 243.319291 182.48437 
L 243.323889 182.48437 
L 243.352674 180.247641 
L 243.439483 180.247641 
L 243.474367 177.451729 
L 243.664655 177.451729 
L 243.664655 176.892547 
L 254.53037 176.892547 
L 254.611992 175.215 
L 254.645484 175.215 
L 254.731567 172.978271 
L 254.781134 172.978271 
L 254.791559 171.859907 
L 254.972973 171.859907 
L 254.972973 171.300725 
L 255.293942 171.300725 
L 255.293942 170.741543 
L 261.473702 170.741543 
L 261.58423 167.945631 
L 261.594777 167.945631 
L 261.660076 166.268085 
L 261.725528 166.268085 
L 261.761558 164.590538 
L 266.398646 164.590538 
L 266.440156 163.472173 
L 266.538907 163.472173 
L 266.538907 162.912991 
L 266.680374 162.912991 
L 266.680374 162.353809 
L 270.12893 162.353809 
L 270.193559 159.557898 
L 270.250531 159.557898 
L 270.317754 156.761987 
L 273.306005 156.761987 
L 273.395954 153.966075 
L 275.99037 153.966075 
L 275.99037 153.406893 
L 278.204226 153.406893 
L 278.271933 151.170164 
L 280.204268 151.170164 
L 280.239252 149.492617 
L 281.987276 149.492617 
L 281.987276 148.933435 
L 283.618121 148.933435 
L 283.659605 147.255888 
L 285.115421 147.255888 
L 285.145722 145.578342 
L 286.485632 145.578342 
L 286.539768 143.900795 
L 288.983555 143.900795 
L 288.983555 143.341613 
L 290.052475 143.341613 
L 290.052475 142.78243 
L 291.090958 142.78243 
L 291.090958 141.664066 
L 293.009242 141.664066 
L 293.009242 141.104884 
L 293.876137 141.104884 
L 293.876137 140.545702 
L 294.722347 140.545702 
L 294.722347 139.986519 
L 295.506493 139.986519 
L 295.520959 138.868155 
L 296.265669 138.868155 
L 296.265669 138.308973 
L 299.013927 138.308973 
L 299.013927 137.74979 
L 299.638321 137.74979 
L 299.654682 136.072244 
L 300.246697 136.072244 
L 300.268413 134.953879 
L 302.977512 134.953879 
L 302.977512 134.394697 
L 304.885534 134.394697 
L 304.885534 133.835515 
L 307.405684 133.835515 
L 307.405684 133.276332 
L 318.72082 133.276332 
L 318.72082 132.71715 
L 333.429677 132.71715 
L 333.429677 132.71715 
" style="fill:none;stroke:#ffa500;stroke-linecap:square;stroke-width:1.5;"/>
   </g>
   <g id="line2d_35">
    <defs>
     <path d="M 0 -6 
L -1.347084 -1.854102 
L -5.706339 -1.854102 
L -2.179628 0.708204 
L -3.526712 4.854102 
L -0 2.291796 
L 3.526712 4.854102 
L 2.179628 0.708204 
L 5.706339 -1.854102 
L 1.347084 -1.854102 
z
" id="mf12bd37801" style="stroke:#ffa500;stroke-linejoin:bevel;stroke-width:1.5;"/>
    </defs>
    <g>
     <use style="fill-opacity:0;stroke:#ffa500;stroke-linejoin:bevel;stroke-width:1.5;" x="120.178549" xlink:href="#mf12bd37801" y="277.545351"/>
     <use style="fill-opacity:0;stroke:#ffa500;stroke-linejoin:bevel;stroke-width:1.5;" x="186.40567" xlink:href="#mf12bd37801" y="218.272033"/>
     <use style="fill-opacity:0;stroke:#ffa500;stroke-linejoin:bevel;stroke-width:1.5;" x="266.680374" xlink:href="#mf12bd37801" y="162.353809"/>
     <use style="fill-opacity:0;stroke:#ffa500;stroke-linejoin:bevel;stroke-width:1.5;" x="318.72082" xlink:href="#mf12bd37801" y="133.276332"/>
     <use style="fill-opacity:0;stroke:#ffa500;stroke-linejoin:bevel;stroke-width:1.5;" x="318.72082" xlink:href="#mf12bd37801" y="132.71715"/>
     <use style="fill-opacity:0;stroke:#ffa500;stroke-linejoin:bevel;stroke-width:1.5;" x="333.429677" xlink:href="#mf12bd37801" y="132.71715"/>
    </g>
   </g>
   <g id="line2d_36">
    <path style="fill:none;stroke:#ffa500;stroke-linecap:square;stroke-width:1.5;"/>
    <g/>
   </g>
   <g id="line2d_37">
    <path clip-path="url(#p0f555c7dfe)" d="M 242.272854 189.194556 
" style="fill:none;stroke:#ffa500;stroke-linecap:square;stroke-width:1.5;"/>
    <defs>
     <path d="M -12 12 
L 12 -12 
M -12 -12 
L 12 12 
" id="m91f7deefcf" style="stroke:#ffa500;stroke-width:3;"/>
    </defs>
    <g clip-path="url(#p0f555c7dfe)">
     <use style="fill:#ffa500;stroke:#ffa500;stroke-width:3;" x="242.272854" xlink:href="#m91f7deefcf" y="189.194556"/>
    </g>
   </g>
   <g id="line2d_38">
    <defs>
     <path d="M 0 1.5 
C 0.397805 1.5 0.77937 1.341951 1.06066 1.06066 
C 1.341951 0.77937 1.5 0.397805 1.5 0 
C 1.5 -0.397805 1.341951 -0.77937 1.06066 -1.06066 
C 0.77937 -1.341951 0.397805 -1.5 0 -1.5 
C -0.397805 -1.5 -0.77937 -1.341951 -1.06066 -1.06066 
C -1.341951 -0.77937 -1.5 -0.397805 -1.5 0 
C -1.5 0.397805 -1.341951 0.77937 -1.06066 1.06066 
C -0.77937 1.341951 -0.397805 1.5 0 1.5 
z
" id="m5bfe562ef7" style="stroke:#6495ed;"/>
    </defs>
    <g>
     <use style="fill:#6495ed;stroke:#6495ed;" x="283.681908" xlink:href="#m5bfe562ef7" y="9.697057"/>
     <use style="fill:#6495ed;stroke:#6495ed;" x="283.681908" xlink:href="#m5bfe562ef7" y="9.697057"/>
    </g>
   </g>
   <g id="line2d_39">
    <path d="M 16.504332 294.88 
L 16.504332 269.716799 
L 28.429836 269.716799 
L 28.429836 269.157617 
L 35.405809 269.157617 
L 35.405809 268.039252 
L 54.307286 268.039252 
L 54.307286 267.48007 
L 71.884659 267.48007 
L 71.884659 266.920888 
L 73.208764 266.920888 
L 73.208764 266.361706 
L 96.575096 266.361706 
L 96.575096 265.802523 
L 97.685473 265.802523 
L 97.685473 265.243341 
L 97.989992 265.243341 
L 97.989992 264.684159 
L 102.939523 264.684159 
L 102.939523 264.124977 
L 111.773426 264.124977 
L 111.773426 263.565795 
L 113.994444 263.565795 
L 113.994444 263.006612 
L 123.113323 263.006612 
L 123.113323 261.888248 
L 130.516123 261.888248 
L 130.516123 260.769883 
L 130.988135 260.769883 
L 130.988135 260.210701 
L 135.759376 260.210701 
L 135.759376 259.651519 
L 139.625393 259.651519 
L 139.652212 258.533154 
L 141.091069 258.533154 
L 141.091069 256.296425 
L 141.553136 256.296425 
L 141.553136 255.737243 
L 142.668011 255.737243 
L 142.668011 255.178061 
L 144.731895 255.178061 
L 144.731895 254.618879 
L 145.329789 254.618879 
L 145.329789 253.500514 
L 145.786077 253.500514 
L 145.786077 252.941332 
L 146.166464 252.941332 
L 146.166464 252.38215 
L 148.206155 252.38215 
L 148.206155 251.822967 
L 149.402402 251.822967 
L 149.402402 251.263785 
L 149.696381 251.263785 
L 149.696381 250.145421 
L 153.157724 250.145421 
L 153.157724 249.586238 
L 153.657673 249.586238 
L 153.657673 249.027056 
L 153.770104 249.027056 
L 153.770104 248.467874 
L 155.975829 248.467874 
L 155.975829 247.908692 
L 156.279255 247.908692 
L 156.279255 246.231145 
L 156.939331 246.231145 
L 156.939331 245.112781 
L 157.260109 245.112781 
L 157.260109 244.553598 
L 157.527671 244.553598 
L 157.527671 243.994416 
L 157.879617 243.994416 
L 157.879617 243.435234 
L 158.146936 243.435234 
L 158.146936 241.757687 
L 158.819613 241.757687 
L 158.819613 241.198505 
L 159.275311 241.198505 
L 159.275311 240.08014 
L 159.394819 240.08014 
L 159.394819 239.520958 
L 161.343105 239.520958 
L 161.343105 238.961776 
L 162.009856 238.961776 
L 162.009856 238.402594 
L 162.679865 238.402594 
L 162.679865 237.843411 
L 162.996709 237.843411 
L 162.996709 236.725047 
L 163.147841 236.725047 
L 163.22972 235.606682 
L 163.903853 235.606682 
L 163.903853 234.488318 
L 164.81839 234.488318 
L 164.87416 232.810771 
L 166.169714 232.810771 
L 166.247 231.692407 
L 166.603151 231.692407 
L 166.681305 229.455678 
L 166.723027 229.455678 
L 166.723027 228.896496 
L 166.850348 228.896496 
L 166.850348 228.337313 
L 167.151044 228.337313 
L 167.151044 227.218949 
L 168.660028 227.218949 
L 168.660028 226.659767 
L 169.438947 226.659767 
L 169.438947 226.100584 
L 169.590116 226.100584 
L 169.590116 225.541402 
L 170.331165 225.541402 
L 170.331165 224.98222 
L 170.720911 224.98222 
L 170.720911 224.423038 
L 171.058892 224.423038 
L 171.058892 223.304673 
L 171.273473 223.304673 
L 171.273473 222.186309 
L 171.607148 222.186309 
L 171.607148 221.627126 
L 172.083631 221.627126 
L 172.083631 221.067944 
L 172.253677 221.067944 
L 172.253677 219.94958 
L 173.312231 219.94958 
L 173.312231 219.390397 
L 173.552994 219.390397 
L 173.554862 217.712851 
L 173.818046 217.712851 
L 173.818046 217.153669 
L 174.33799 217.153669 
L 174.407447 214.91694 
L 174.534944 214.91694 
L 174.640474 211.561846 
L 175.175634 211.561846 
L 175.175634 211.002664 
L 175.598726 211.002664 
L 175.598726 209.884299 
L 176.448102 209.884299 
L 176.448102 209.325117 
L 176.594286 209.325117 
L 176.594286 208.765935 
L 176.729924 208.765935 
L 176.729924 208.206753 
L 176.859878 208.206753 
L 176.921417 206.529206 
L 177.221328 206.529206 
L 177.280087 205.410841 
L 177.519068 205.410841 
L 177.593074 203.174112 
L 178.093783 203.174112 
L 178.129611 202.055748 
L 178.306218 202.055748 
L 178.306218 201.496566 
L 179.365419 201.496566 
L 179.430582 200.378201 
L 179.642966 200.378201 
L 179.658691 199.259837 
L 180.010048 199.259837 
L 180.010048 198.700655 
L 180.134087 198.700655 
L 180.134087 197.023108 
L 180.732599 197.023108 
L 180.732599 196.463926 
L 180.912551 196.463926 
L 180.941753 193.668014 
L 181.312179 193.668014 
L 181.312179 193.108832 
L 181.43784 193.108832 
L 181.43784 191.990468 
L 181.924616 191.990468 
L 182.021938 190.872103 
L 182.337571 190.872103 
L 182.438165 189.194556 
L 182.521546 189.194556 
L 182.521546 188.076192 
L 182.640909 188.076192 
L 182.740845 186.398645 
L 182.847824 186.398645 
L 182.847824 185.280281 
L 183.083436 185.280281 
L 183.083436 184.721099 
L 183.270268 184.721099 
L 183.270268 183.602734 
L 183.829171 183.602734 
L 183.873313 182.48437 
L 184.144903 182.48437 
L 184.211381 181.366005 
L 184.31162 181.366005 
L 184.31162 180.806823 
L 184.448005 180.806823 
L 184.526162 179.688458 
L 184.675548 179.688458 
L 184.769233 178.010912 
L 185.093172 178.010912 
L 185.093172 177.451729 
L 185.228262 177.451729 
L 185.281247 175.215 
L 185.429865 175.215 
L 185.429865 174.096636 
L 185.582782 174.096636 
L 185.64764 172.419089 
L 185.847158 172.419089 
L 185.914672 171.300725 
L 186.456037 171.300725 
L 186.484249 170.18236 
L 186.588758 170.18236 
L 186.588758 169.623178 
L 186.784641 169.623178 
L 186.85203 167.945631 
L 186.979175 167.945631 
L 186.979175 166.827267 
L 187.090937 166.827267 
L 187.090937 166.268085 
L 187.202822 166.268085 
L 187.202822 165.708902 
L 187.460261 165.708902 
L 187.513447 164.031356 
L 187.621802 164.031356 
L 187.621802 163.472173 
L 187.754862 163.472173 
L 187.832415 160.676262 
L 188.038871 160.676262 
L 188.038871 159.557898 
L 188.287358 159.557898 
L 188.362553 158.439533 
L 188.704276 158.439533 
L 188.790005 157.321169 
L 188.842314 157.321169 
L 188.94951 156.202804 
L 188.989156 156.202804 
L 188.989156 155.643622 
L 189.225884 155.643622 
L 189.324003 153.406893 
L 189.510453 153.406893 
L 189.510453 152.847711 
L 189.704404 152.847711 
L 189.810007 151.729346 
L 189.922181 151.729346 
L 189.963968 150.610982 
L 190.239514 150.610982 
L 190.318647 147.815071 
L 190.443666 147.815071 
L 190.443666 146.696706 
L 190.635046 146.696706 
L 190.74611 144.459977 
L 190.895361 144.459977 
L 190.895361 143.900795 
L 191.056165 143.900795 
L 191.056165 143.341613 
L 191.264256 143.341613 
L 191.302245 139.986519 
L 191.422986 139.986519 
L 191.488969 138.308973 
L 191.567159 138.308973 
L 191.622793 137.190608 
L 191.778265 137.190608 
L 191.802208 135.513061 
L 191.94774 135.513061 
L 191.97209 134.394697 
L 192.09078 134.394697 
L 192.113658 133.276332 
L 192.39647 133.276332 
L 192.407711 132.157968 
L 192.509795 132.157968 
L 192.567417 129.921239 
L 193.067292 129.921239 
L 193.112296 128.802874 
L 193.526748 128.802874 
L 193.528503 127.125328 
L 193.876509 127.125328 
L 193.882813 126.006963 
L 194.011262 126.006963 
L 194.102023 124.329417 
L 194.126333 124.329417 
L 194.213119 120.415141 
L 194.437066 120.415141 
L 194.437066 119.296776 
L 194.599974 119.296776 
L 194.62853 115.941683 
L 194.771696 115.941683 
L 194.771696 115.382501 
L 194.957339 115.382501 
L 194.985309 113.704954 
L 195.474359 113.704954 
L 195.547338 112.586589 
L 195.860734 112.586589 
L 195.921411 111.468225 
L 196.053242 111.468225 
L 196.102168 109.231496 
L 196.216122 109.231496 
L 196.216122 108.672314 
L 196.430431 108.672314 
L 196.430431 107.553949 
L 196.562847 107.553949 
L 196.562847 106.994767 
L 196.862289 106.994767 
L 196.862289 106.435585 
L 196.975165 106.435585 
L 196.975165 105.876403 
L 197.242612 105.876403 
L 197.307068 101.962127 
L 197.387184 101.962127 
L 197.456689 100.843762 
L 197.526842 100.843762 
L 197.599019 99.166216 
L 197.682844 99.166216 
L 197.682844 98.607033 
L 197.842907 98.607033 
L 197.930991 97.488669 
L 198.238894 97.488669 
L 198.317452 96.370304 
L 198.435281 96.370304 
L 198.498933 95.25194 
L 198.568899 95.25194 
L 198.568899 94.692758 
L 198.739121 94.692758 
L 198.817153 90.2193 
L 198.852389 90.2193 
L 198.852389 89.660118 
L 199.093229 89.660118 
L 199.094075 88.541753 
L 199.229413 88.541753 
L 199.319468 87.423389 
L 199.342013 87.423389 
L 199.342013 86.864206 
L 199.45388 86.864206 
L 199.50727 84.068295 
L 199.59383 84.068295 
L 199.59383 82.949931 
L 199.729388 82.949931 
L 199.729388 81.272384 
L 199.887749 81.272384 
L 199.965582 80.15402 
L 200.024228 80.15402 
L 200.024228 79.594837 
L 200.152072 79.594837 
L 200.152072 79.035655 
L 200.346796 79.035655 
L 200.428853 77.917291 
L 200.606925 77.917291 
L 200.66111 76.239744 
L 200.893324 76.239744 
L 200.893324 75.680562 
L 201.081013 75.680562 
L 201.081013 75.121379 
L 201.413779 75.121379 
L 201.444821 73.443833 
L 201.5666 73.443833 
L 201.5666 72.325468 
L 201.723527 72.325468 
L 201.759455 70.647921 
L 201.905656 70.647921 
L 201.905656 70.088739 
L 202.265637 70.088739 
L 202.265637 69.529557 
L 202.420879 69.529557 
L 202.420879 68.970375 
L 202.57888 68.970375 
L 202.57888 68.411192 
L 202.701843 68.411192 
L 202.776499 67.292828 
L 202.997533 67.292828 
L 203.0642 66.174463 
L 203.139646 66.174463 
L 203.139646 65.615281 
L 203.440795 65.615281 
L 203.440795 65.056099 
L 203.693729 65.056099 
L 203.719951 63.937735 
L 204.283824 63.937735 
L 204.348816 62.81937 
L 243.252721 62.81937 
L 243.33887 60.023459 
L 243.398341 60.023459 
L 243.491686 56.668365 
L 243.509564 56.668365 
L 243.609888 52.75409 
L 243.673507 52.75409 
L 243.775184 47.72145 
L 243.791321 47.72145 
L 243.897379 42.688809 
L 243.903139 42.688809 
L 244.012027 34.860258 
L 244.03543 34.860258 
L 244.06705 33.182711 
L 244.159004 33.182711 
L 244.159004 32.623529 
L 254.717049 32.623529 
L 254.770304 31.505165 
L 254.846788 31.505165 
L 254.946918 27.590889 
L 254.964929 27.590889 
L 255.061381 24.235795 
L 255.102208 24.235795 
L 255.102208 23.676613 
L 261.571098 23.676613 
L 261.647716 21.439884 
L 261.69552 21.439884 
L 261.74956 18.643973 
L 266.495084 18.643973 
L 266.590256 14.170515 
L 270.278689 14.170515 
L 270.306795 11.933786 
L 275.972394 11.933786 
L 276.006133 10.815422 
L 280.270142 10.815422 
L 280.270142 10.256239 
L 283.681908 10.256239 
L 283.681908 9.697057 
L 333.429677 9.697057 
L 333.429677 9.697057 
" style="fill:none;stroke:#6495ed;stroke-linecap:square;stroke-width:1.5;"/>
   </g>
   <g id="line2d_40">
    <defs>
     <path d="M -0 6 
L 6 -6 
L -6 -6 
z
" id="m24de3cece4" style="stroke:#6495ed;stroke-linejoin:miter;stroke-width:1.5;"/>
    </defs>
    <g>
     <use style="fill-opacity:0;stroke:#6495ed;stroke-linejoin:miter;stroke-width:1.5;" x="149.696381" xlink:href="#m24de3cece4" y="251.263785"/>
     <use style="fill-opacity:0;stroke:#6495ed;stroke-linejoin:miter;stroke-width:1.5;" x="200.152072" xlink:href="#m24de3cece4" y="79.035655"/>
     <use style="fill-opacity:0;stroke:#6495ed;stroke-linejoin:miter;stroke-width:1.5;" x="255.102208" xlink:href="#m24de3cece4" y="24.235795"/>
     <use style="fill-opacity:0;stroke:#6495ed;stroke-linejoin:miter;stroke-width:1.5;" x="283.681908" xlink:href="#m24de3cece4" y="9.697057"/>
     <use style="fill-opacity:0;stroke:#6495ed;stroke-linejoin:miter;stroke-width:1.5;" x="333.429677" xlink:href="#m24de3cece4" y="9.697057"/>
    </g>
   </g>
   <g id="line2d_41">
    <path style="fill:none;stroke:#6495ed;stroke-linecap:square;stroke-width:1.5;"/>
    <g/>
   </g>
   <g id="line2d_42">
    <path clip-path="url(#p0f555c7dfe)" d="M 242.272854 62.81937 
" style="fill:none;stroke:#6495ed;stroke-linecap:square;stroke-width:1.5;"/>
    <defs>
     <path d="M -12 12 
L 12 -12 
M -12 -12 
L 12 12 
" id="m29aba52be5" style="stroke:#6495ed;stroke-width:3;"/>
    </defs>
    <g clip-path="url(#p0f555c7dfe)">
     <use style="fill:#6495ed;stroke:#6495ed;stroke-width:3;" x="242.272854" xlink:href="#m29aba52be5" y="62.81937"/>
    </g>
   </g>
   <g id="line2d_43">
    <defs>
     <path d="M 0 1.5 
C 0.397805 1.5 0.77937 1.341951 1.06066 1.06066 
C 1.341951 0.77937 1.5 0.397805 1.5 0 
C 1.5 -0.397805 1.341951 -0.77937 1.06066 -1.06066 
C 0.77937 -1.341951 0.397805 -1.5 0 -1.5 
C -0.397805 -1.5 -0.77937 -1.341951 -1.06066 -1.06066 
C -1.341951 -0.77937 -1.5 -0.397805 -1.5 0 
C -1.5 0.397805 -1.341951 0.77937 -1.06066 1.06066 
C -0.77937 1.341951 -0.397805 1.5 0 1.5 
z
" id="mc3b93cb4ee" style="stroke:#ff0000;"/>
    </defs>
    <g>
     <use style="fill:#ff0000;stroke:#ff0000;" x="295.498774" xlink:href="#mc3b93cb4ee" y="244.553598"/>
     <use style="fill:#ff0000;stroke:#ff0000;" x="295.498774" xlink:href="#mc3b93cb4ee" y="244.553598"/>
    </g>
   </g>
   <g id="line2d_44">
    <path d="M 174.670257 294.88 
L 174.670257 294.320818 
L 175.376724 294.320818 
L 175.376724 293.202453 
L 176.264006 293.202453 
L 176.264006 292.643271 
L 178.286369 292.643271 
L 178.286369 292.084089 
L 178.616553 292.084089 
L 178.616553 290.965724 
L 179.266541 290.965724 
L 179.298672 289.84736 
L 180.081767 289.84736 
L 180.170998 287.610631 
L 180.640056 287.610631 
L 180.640056 287.051449 
L 180.757193 287.051449 
L 180.757193 286.492266 
L 181.059276 286.492266 
L 181.059276 285.373902 
L 181.493265 285.373902 
L 181.493265 284.255537 
L 181.666639 284.255537 
L 181.666639 283.137173 
L 182.109628 283.137173 
L 182.109628 282.577991 
L 182.57691 282.577991 
L 182.57691 281.459626 
L 182.876094 281.459626 
L 182.879353 279.222897 
L 183.227742 279.222897 
L 183.227742 277.545351 
L 183.3624 277.545351 
L 183.3624 276.426986 
L 183.636913 276.426986 
L 183.636913 275.308622 
L 184.079179 275.308622 
L 184.079179 274.749439 
L 184.197301 274.749439 
L 184.230472 273.631075 
L 184.574461 273.631075 
L 184.574461 272.51271 
L 184.705856 272.51271 
L 184.717574 270.835164 
L 185.05684 270.835164 
L 185.05684 270.275981 
L 185.168458 270.275981 
L 185.168458 269.716799 
L 185.353835 269.716799 
L 185.395177 268.039252 
L 185.682746 268.039252 
L 185.682746 267.48007 
L 186.027211 267.48007 
L 186.027211 266.361706 
L 186.648194 266.361706 
L 186.648194 265.802523 
L 187.218867 265.802523 
L 187.218867 264.684159 
L 187.49269 264.684159 
L 187.49269 264.124977 
L 187.70488 264.124977 
L 187.70488 263.565795 
L 188.967057 263.565795 
L 188.999814 260.769883 
L 189.772937 260.769883 
L 189.772937 260.210701 
L 190.072285 260.210701 
L 190.072285 259.651519 
L 190.752985 259.651519 
L 190.752985 259.092337 
L 191.272927 259.092337 
L 191.272927 258.533154 
L 192.257219 258.533154 
L 192.257219 257.973972 
L 192.776447 257.973972 
L 192.776447 257.41479 
L 242.975179 257.41479 
L 242.975179 255.737243 
L 243.121094 255.737243 
L 243.215365 254.059696 
L 243.235582 254.059696 
L 243.235582 253.500514 
L 254.435961 253.500514 
L 254.461327 252.38215 
L 254.553104 252.38215 
L 254.636597 251.263785 
L 254.685904 251.263785 
L 254.685904 250.704603 
L 261.480735 250.704603 
L 261.500892 249.027056 
L 266.354175 249.027056 
L 266.369642 247.908692 
L 270.147514 247.908692 
L 270.147514 247.34951 
L 273.253719 247.34951 
L 273.253719 246.790327 
L 281.981017 246.790327 
L 281.981017 246.231145 
L 285.102454 246.231145 
L 285.102454 245.671963 
L 286.478463 245.671963 
L 286.478463 245.112781 
L 295.498774 245.112781 
L 295.498774 244.553598 
L 333.429677 244.553598 
L 333.429677 244.553598 
" style="fill:none;stroke:#ff0000;stroke-linecap:square;stroke-width:1.5;"/>
   </g>
   <g id="line2d_45">
    <defs>
     <path d="M 0 -6 
L -5.196152 -3 
L -5.196152 3 
L -0 6 
L 5.196152 3 
L 5.196152 -3 
z
" id="m9dff8b4862" style="stroke:#ff0000;stroke-linejoin:miter;stroke-width:1.5;"/>
    </defs>
    <g>
     <use style="fill-opacity:0;stroke:#ff0000;stroke-linejoin:miter;stroke-width:1.5;" x="192.776447" xlink:href="#m9dff8b4862" y="257.41479"/>
     <use style="fill-opacity:0;stroke:#ff0000;stroke-linejoin:miter;stroke-width:1.5;" x="295.498774" xlink:href="#m9dff8b4862" y="245.112781"/>
     <use style="fill-opacity:0;stroke:#ff0000;stroke-linejoin:miter;stroke-width:1.5;" x="295.498774" xlink:href="#m9dff8b4862" y="244.553598"/>
     <use style="fill-opacity:0;stroke:#ff0000;stroke-linejoin:miter;stroke-width:1.5;" x="333.429677" xlink:href="#m9dff8b4862" y="244.553598"/>
    </g>
   </g>
   <g id="line2d_46">
    <path style="fill:none;stroke:#ff0000;stroke-linecap:square;stroke-width:1.5;"/>
    <g/>
   </g>
   <g id="line2d_47">
    <path clip-path="url(#p0f555c7dfe)" d="M 242.272854 257.41479 
" style="fill:none;stroke:#ff0000;stroke-linecap:square;stroke-width:1.5;"/>
    <defs>
     <path d="M -12 12 
L 12 -12 
M -12 -12 
L 12 12 
" id="m54ddb9a004" style="stroke:#ff0000;stroke-width:3;"/>
    </defs>
    <g clip-path="url(#p0f555c7dfe)">
     <use style="fill:#ff0000;stroke:#ff0000;stroke-width:3;" x="242.272854" xlink:href="#m54ddb9a004" y="257.41479"/>
    </g>
   </g>
   <g id="line2d_48">
    <path d="M 333.429677 244.553598 
L 363.933742 289.176341 
" style="fill:none;stroke:#ff0000;stroke-linecap:square;stroke-width:1.5;"/>
    <g>
     <use style="fill-opacity:0;stroke:#ff0000;stroke-linejoin:miter;stroke-width:1.5;" x="333.429677" xlink:href="#m9dff8b4862" y="244.553598"/>
     <use style="fill-opacity:0;stroke:#ff0000;stroke-linejoin:miter;stroke-width:1.5;" x="363.933742" xlink:href="#m9dff8b4862" y="289.176341"/>
    </g>
   </g>
   <g id="line2d_49">
    <path d="M 333.429677 199.819019 
L 363.933742 220.732435 
" style="fill:none;stroke:#ff00ff;stroke-linecap:square;stroke-width:1.5;"/>
    <g>
     <use style="fill-opacity:0;stroke:#ff00ff;stroke-linejoin:miter;stroke-width:1.5;" x="333.429677" xlink:href="#m10ab8a6e38" y="199.819019"/>
     <use style="fill-opacity:0;stroke:#ff00ff;stroke-linejoin:miter;stroke-width:1.5;" x="363.933742" xlink:href="#m10ab8a6e38" y="220.732435"/>
    </g>
   </g>
   <g id="line2d_50">
    <path d="M 333.429677 132.71715 
L 363.933742 152.288529 
" style="fill:none;stroke:#ffa500;stroke-linecap:square;stroke-width:1.5;"/>
    <g>
     <use style="fill-opacity:0;stroke:#ffa500;stroke-linejoin:bevel;stroke-width:1.5;" x="333.429677" xlink:href="#mf12bd37801" y="132.71715"/>
     <use style="fill-opacity:0;stroke:#ffa500;stroke-linejoin:bevel;stroke-width:1.5;" x="363.933742" xlink:href="#mf12bd37801" y="152.288529"/>
    </g>
   </g>
   <g id="line2d_51">
    <path d="M 333.429677 82.390748 
L 363.933742 83.844622 
" style="fill:none;stroke:#000080;stroke-linecap:square;stroke-width:1.5;"/>
    <g>
     <use style="fill-opacity:0;stroke:#000080;stroke-width:1.5;" x="333.429677" xlink:href="#m5ea1582362" y="82.390748"/>
     <use style="fill-opacity:0;stroke:#000080;stroke-width:1.5;" x="363.933742" xlink:href="#m5ea1582362" y="83.844622"/>
    </g>
   </g>
   <g id="line2d_52">
    <path d="M 333.429677 9.697057 
L 363.933742 15.400716 
" style="fill:none;stroke:#6495ed;stroke-linecap:square;stroke-width:1.5;"/>
    <g>
     <use style="fill-opacity:0;stroke:#6495ed;stroke-linejoin:miter;stroke-width:1.5;" x="333.429677" xlink:href="#m24de3cece4" y="9.697057"/>
     <use style="fill-opacity:0;stroke:#6495ed;stroke-linejoin:miter;stroke-width:1.5;" x="363.933742" xlink:href="#m24de3cece4" y="15.400716"/>
    </g>
   </g>
   <g id="line2d_53">
    <path d="M 333.429677 294.88 
L 333.429677 9.697057 
" style="fill:none;stroke:#000000;stroke-linecap:square;stroke-width:1.5;"/>
   </g>
   <g id="patch_3">
    <path d="M 56.12 294.88 
L 56.12 6.845228 
" style="fill:none;stroke:#000000;stroke-linecap:square;stroke-linejoin:miter;stroke-width:0.8;"/>
   </g>
   <g id="patch_4">
    <path d="M 399.984 294.88 
L 399.984 6.845228 
" style="fill:none;stroke:#000000;stroke-linecap:square;stroke-linejoin:miter;stroke-width:0.8;"/>
   </g>
   <g id="patch_5">
    <path d="M 56.12 294.88 
L 399.984 294.88 
" style="fill:none;stroke:#000000;stroke-linecap:square;stroke-linejoin:miter;stroke-width:0.8;"/>
   </g>
   <g id="patch_6">
    <path d="M 56.12 6.845228 
L 399.984 6.845228 
" style="fill:none;stroke:#000000;stroke-linecap:square;stroke-linejoin:miter;stroke-width:0.8;"/>
   </g>
   <g id="text_14">
    <!-- f15 -->
    <defs>
     <path d="M 10.796875 72.90625 
L 49.515625 72.90625 
L 49.515625 64.59375 
L 19.828125 64.59375 
L 19.828125 46.734375 
Q 21.96875 47.46875 24.109375 47.828125 
Q 26.265625 48.1875 28.421875 48.1875 
Q 40.625 48.1875 47.75 41.5 
Q 54.890625 34.8125 54.890625 23.390625 
Q 54.890625 11.625 47.5625 5.09375 
Q 40.234375 -1.421875 26.90625 -1.421875 
Q 22.3125 -1.421875 17.546875 -0.640625 
Q 12.796875 0.140625 7.71875 1.703125 
L 7.71875 11.625 
Q 12.109375 9.234375 16.796875 8.0625 
Q 21.484375 6.890625 26.703125 6.890625 
Q 35.15625 6.890625 40.078125 11.328125 
Q 45.015625 15.765625 45.015625 23.390625 
Q 45.015625 31 40.078125 35.4375 
Q 35.15625 39.890625 26.703125 39.890625 
Q 22.75 39.890625 18.8125 39.015625 
Q 14.890625 38.140625 10.796875 36.28125 
z
" id="DejaVuSans-35"/>
    </defs>
    <g transform="translate(369.479935 293.867279)scale(0.17 -0.17)">
     <use xlink:href="#DejaVuSans-66"/>
     <use x="35.205078" xlink:href="#DejaVuSans-31"/>
     <use x="98.828125" xlink:href="#DejaVuSans-35"/>
    </g>
   </g>
   <g id="text_15">
    <!-- f19 -->
    <defs>
     <path d="M 10.984375 1.515625 
L 10.984375 10.5 
Q 14.703125 8.734375 18.5 7.8125 
Q 22.3125 6.890625 25.984375 6.890625 
Q 35.75 6.890625 40.890625 13.453125 
Q 46.046875 20.015625 46.78125 33.40625 
Q 43.953125 29.203125 39.59375 26.953125 
Q 35.25 24.703125 29.984375 24.703125 
Q 19.046875 24.703125 12.671875 31.3125 
Q 6.296875 37.9375 6.296875 49.421875 
Q 6.296875 60.640625 12.9375 67.421875 
Q 19.578125 74.21875 30.609375 74.21875 
Q 43.265625 74.21875 49.921875 64.515625 
Q 56.59375 54.828125 56.59375 36.375 
Q 56.59375 19.140625 48.40625 8.859375 
Q 40.234375 -1.421875 26.421875 -1.421875 
Q 22.703125 -1.421875 18.890625 -0.6875 
Q 15.09375 0.046875 10.984375 1.515625 
z
M 30.609375 32.421875 
Q 37.25 32.421875 41.125 36.953125 
Q 45.015625 41.5 45.015625 49.421875 
Q 45.015625 57.28125 41.125 61.84375 
Q 37.25 66.40625 30.609375 66.40625 
Q 23.96875 66.40625 20.09375 61.84375 
Q 16.21875 57.28125 16.21875 49.421875 
Q 16.21875 41.5 20.09375 36.953125 
Q 23.96875 32.421875 30.609375 32.421875 
z
" id="DejaVuSans-39"/>
    </defs>
    <g transform="translate(369.479935 225.423372)scale(0.17 -0.17)">
     <use xlink:href="#DejaVuSans-66"/>
     <use x="35.205078" xlink:href="#DejaVuSans-31"/>
     <use x="98.828125" xlink:href="#DejaVuSans-39"/>
    </g>
   </g>
   <g id="text_16">
    <!-- f16 -->
    <g transform="translate(369.479935 156.979466)scale(0.17 -0.17)">
     <use xlink:href="#DejaVuSans-66"/>
     <use x="35.205078" xlink:href="#DejaVuSans-31"/>
     <use x="98.828125" xlink:href="#DejaVuSans-36"/>
    </g>
   </g>
   <g id="text_17">
    <!-- f18 -->
    <g transform="translate(369.479935 88.53556)scale(0.17 -0.17)">
     <use xlink:href="#DejaVuSans-66"/>
     <use x="35.205078" xlink:href="#DejaVuSans-31"/>
     <use x="98.828125" xlink:href="#DejaVuSans-38"/>
    </g>
   </g>
   <g id="text_18">
    <!-- f17 -->
    <defs>
     <path d="M 8.203125 72.90625 
L 55.078125 72.90625 
L 55.078125 68.703125 
L 28.609375 0 
L 18.3125 0 
L 43.21875 64.59375 
L 8.203125 64.59375 
z
" id="DejaVuSans-37"/>
    </defs>
    <g transform="translate(369.479935 20.091654)scale(0.17 -0.17)">
     <use xlink:href="#DejaVuSans-66"/>
     <use x="35.205078" xlink:href="#DejaVuSans-31"/>
     <use x="98.828125" xlink:href="#DejaVuSans-37"/>
    </g>
   </g>
   <g id="text_19">
    <!-- bbob -->
    <defs>
     <path d="M 48.6875 27.296875 
Q 48.6875 37.203125 44.609375 42.84375 
Q 40.53125 48.484375 33.40625 48.484375 
Q 26.265625 48.484375 22.1875 42.84375 
Q 18.109375 37.203125 18.109375 27.296875 
Q 18.109375 17.390625 22.1875 11.75 
Q 26.265625 6.109375 33.40625 6.109375 
Q 40.53125 6.109375 44.609375 11.75 
Q 48.6875 17.390625 48.6875 27.296875 
z
M 18.109375 46.390625 
Q 20.953125 51.265625 25.265625 53.625 
Q 29.59375 56 35.59375 56 
Q 45.5625 56 51.78125 48.09375 
Q 58.015625 40.1875 58.015625 27.296875 
Q 58.015625 14.40625 51.78125 6.484375 
Q 45.5625 -1.421875 35.59375 -1.421875 
Q 29.59375 -1.421875 25.265625 0.953125 
Q 20.953125 3.328125 18.109375 8.203125 
L 18.109375 0 
L 9.078125 0 
L 9.078125 75.984375 
L 18.109375 75.984375 
z
" id="DejaVuSans-62"/>
    </defs>
    <g transform="translate(59.55864 17.475982)scale(0.102 -0.102)">
     <use xlink:href="#DejaVuSans-62"/>
     <use x="63.476562" xlink:href="#DejaVuSans-62"/>
     <use x="126.953125" xlink:href="#DejaVuSans-6f"/>
     <use x="188.134766" xlink:href="#DejaVuSans-62"/>
    </g>
    <!-- Multi-modal functions, 20-D -->
    <defs>
     <path d="M 9.8125 72.90625 
L 24.515625 72.90625 
L 43.109375 23.296875 
L 61.8125 72.90625 
L 76.515625 72.90625 
L 76.515625 0 
L 66.890625 0 
L 66.890625 64.015625 
L 48.09375 14.015625 
L 38.1875 14.015625 
L 19.390625 64.015625 
L 19.390625 0 
L 9.8125 0 
z
" id="DejaVuSans-4d"/>
     <path d="M 19.671875 64.796875 
L 19.671875 8.109375 
L 31.59375 8.109375 
Q 46.6875 8.109375 53.6875 14.9375 
Q 60.6875 21.78125 60.6875 36.53125 
Q 60.6875 51.171875 53.6875 57.984375 
Q 46.6875 64.796875 31.59375 64.796875 
z
M 9.8125 72.90625 
L 30.078125 72.90625 
Q 51.265625 72.90625 61.171875 64.09375 
Q 71.09375 55.28125 71.09375 36.53125 
Q 71.09375 17.671875 61.125 8.828125 
Q 51.171875 0 30.078125 0 
L 9.8125 0 
z
" id="DejaVuSans-44"/>
    </defs>
    <g transform="translate(59.55864 28.89775)scale(0.102 -0.102)">
     <use xlink:href="#DejaVuSans-4d"/>
     <use x="86.279297" xlink:href="#DejaVuSans-75"/>
     <use x="149.658203" xlink:href="#DejaVuSans-6c"/>
     <use x="177.441406" xlink:href="#DejaVuSans-74"/>
     <use x="216.650391" xlink:href="#DejaVuSans-69"/>
     <use x="244.433594" xlink:href="#DejaVuSans-2d"/>
     <use x="280.517578" xlink:href="#DejaVuSans-6d"/>
     <use x="377.929688" xlink:href="#DejaVuSans-6f"/>
     <use x="439.111328" xlink:href="#DejaVuSans-64"/>
     <use x="502.587891" xlink:href="#DejaVuSans-61"/>
     <use x="563.867188" xlink:href="#DejaVuSans-6c"/>
     <use x="591.650391" xlink:href="#DejaVuSans-20"/>
     <use x="623.4375" xlink:href="#DejaVuSans-66"/>
     <use x="658.642578" xlink:href="#DejaVuSans-75"/>
     <use x="722.021484" xlink:href="#DejaVuSans-6e"/>
     <use x="785.400391" xlink:href="#DejaVuSans-63"/>
     <use x="840.380859" xlink:href="#DejaVuSans-74"/>
     <use x="879.589844" xlink:href="#DejaVuSans-69"/>
     <use x="907.373047" xlink:href="#DejaVuSans-6f"/>
     <use x="968.554688" xlink:href="#DejaVuSans-6e"/>
     <use x="1031.933594" xlink:href="#DejaVuSans-73"/>
     <use x="1084.033203" xlink:href="#DejaVuSans-2c"/>
     <use x="1115.820312" xlink:href="#DejaVuSans-20"/>
     <use x="1147.607422" xlink:href="#DejaVuSans-32"/>
     <use x="1211.230469" xlink:href="#DejaVuSans-30"/>
     <use x="1274.853516" xlink:href="#DejaVuSans-2d"/>
     <use x="1310.9375" xlink:href="#DejaVuSans-44"/>
    </g>
    <!-- 51 targets: 100..1e-08 -->
    <defs>
     <path d="M 11.71875 12.40625 
L 22.015625 12.40625 
L 22.015625 0 
L 11.71875 0 
z
M 11.71875 51.703125 
L 22.015625 51.703125 
L 22.015625 39.3125 
L 11.71875 39.3125 
z
" id="DejaVuSans-3a"/>
    </defs>
    <g transform="translate(59.55864 40.319519)scale(0.102 -0.102)">
     <use xlink:href="#DejaVuSans-35"/>
     <use x="63.623047" xlink:href="#DejaVuSans-31"/>
     <use x="127.246094" xlink:href="#DejaVuSans-20"/>
     <use x="159.033203" xlink:href="#DejaVuSans-74"/>
     <use x="198.242188" xlink:href="#DejaVuSans-61"/>
     <use x="259.521484" xlink:href="#DejaVuSans-72"/>
     <use x="300.619141" xlink:href="#DejaVuSans-67"/>
     <use x="364.095703" xlink:href="#DejaVuSans-65"/>
     <use x="425.619141" xlink:href="#DejaVuSans-74"/>
     <use x="464.828125" xlink:href="#DejaVuSans-73"/>
     <use x="516.927734" xlink:href="#DejaVuSans-3a"/>
     <use x="550.619141" xlink:href="#DejaVuSans-20"/>
     <use x="582.40625" xlink:href="#DejaVuSans-31"/>
     <use x="646.029297" xlink:href="#DejaVuSans-30"/>
     <use x="709.652344" xlink:href="#DejaVuSans-30"/>
     <use x="773.275391" xlink:href="#DejaVuSans-2e"/>
     <use x="805.0625" xlink:href="#DejaVuSans-2e"/>
     <use x="836.849609" xlink:href="#DejaVuSans-31"/>
     <use x="900.472656" xlink:href="#DejaVuSans-65"/>
     <use x="961.996094" xlink:href="#DejaVuSans-2d"/>
     <use x="998.080078" xlink:href="#DejaVuSans-30"/>
     <use x="1061.703125" xlink:href="#DejaVuSans-38"/>
    </g>
    <!-- 15 instances -->
    <g transform="translate(59.55864 51.741288)scale(0.102 -0.102)">
     <use xlink:href="#DejaVuSans-31"/>
     <use x="63.623047" xlink:href="#DejaVuSans-35"/>
     <use x="127.246094" xlink:href="#DejaVuSans-20"/>
     <use x="159.033203" xlink:href="#DejaVuSans-69"/>
     <use x="186.816406" xlink:href="#DejaVuSans-6e"/>
     <use x="250.195312" xlink:href="#DejaVuSans-73"/>
     <use x="302.294922" xlink:href="#DejaVuSans-74"/>
     <use x="341.503906" xlink:href="#DejaVuSans-61"/>
     <use x="402.783203" xlink:href="#DejaVuSans-6e"/>
     <use x="466.162109" xlink:href="#DejaVuSans-63"/>
     <use x="521.142578" xlink:href="#DejaVuSans-65"/>
     <use x="582.666016" xlink:href="#DejaVuSans-73"/>
    </g>
   </g>
   <g id="text_20">
    <!-- v0.0.0 -->
    <g style="fill:#808080;" transform="translate(212.37075 289.919965)scale(0.1 -0.1)">
     <use xlink:href="#DejaVuSans-76"/>
     <use x="59.179688" xlink:href="#DejaVuSans-30"/>
     <use x="122.802734" xlink:href="#DejaVuSans-2e"/>
     <use x="154.589844" xlink:href="#DejaVuSans-30"/>
     <use x="218.212891" xlink:href="#DejaVuSans-2e"/>
     <use x="250" xlink:href="#DejaVuSans-30"/>
    </g>
   </g>
  </g>
 </g>
 <defs>
  <clipPath id="p0f555c7dfe">
   <rect height="288.034772" width="343.864" x="56.12" y="6.845228"/>
  </clipPath>
 </defs>
</svg>
