<?xml version="1.0" encoding="utf-8" standalone="no"?>
<!DOCTYPE svg PUBLIC "-//W3C//DTD SVG 1.1//EN"
  "http://www.w3.org/Graphics/SVG/1.1/DTD/svg11.dtd">
<!-- Created with matplotlib (http://matplotlib.org/) -->
<svg height="345.6pt" version="1.1" viewBox="0 0 460.8 345.6" width="460.8pt" xmlns="http://www.w3.org/2000/svg" xmlns:xlink="http://www.w3.org/1999/xlink">
 <defs>
  <style type="text/css">
*{stroke-linecap:butt;stroke-linejoin:round;}
  </style>
 </defs>
 <g id="figure_1">
  <g id="patch_1">
   <path d="M 0 345.6 
L 460.8 345.6 
L 460.8 0 
L 0 0 
z
" style="fill:#ffffff;"/>
  </g>
  <g id="axes_1">
   <g id="patch_2">
    <path d="M 56.12 294.88 
L 399.984 294.88 
L 399.984 6.845228 
L 56.12 6.845228 
z
" style="fill:#ffffff;"/>
   </g>
   <g id="matplotlib.axis_1">
    <g id="xtick_1">
     <g id="line2d_1">
      <path clip-path="url(#p18bf07d617)" d="M 56.12 294.88 
L 56.12 6.845228 
" style="fill:none;stroke:#b0b0b0;stroke-linecap:square;stroke-width:0.8;"/>
     </g>
     <g id="line2d_2">
      <defs>
       <path d="M 0 0 
L 0 3.5 
" id="m21ea8a455c" style="stroke:#000000;stroke-width:0.8;"/>
      </defs>
      <g>
       <use style="stroke:#000000;stroke-width:0.8;" x="56.12" xlink:href="#m21ea8a455c" y="294.88"/>
      </g>
     </g>
     <g id="text_1">
      <!-- 0 -->
      <defs>
       <path d="M 31.78125 66.40625 
Q 24.171875 66.40625 20.328125 58.90625 
Q 16.5 51.421875 16.5 36.375 
Q 16.5 21.390625 20.328125 13.890625 
Q 24.171875 6.390625 31.78125 6.390625 
Q 39.453125 6.390625 43.28125 13.890625 
Q 47.125 21.390625 47.125 36.375 
Q 47.125 51.421875 43.28125 58.90625 
Q 39.453125 66.40625 31.78125 66.40625 
z
M 31.78125 74.21875 
Q 44.046875 74.21875 50.515625 64.515625 
Q 56.984375 54.828125 56.984375 36.375 
Q 56.984375 17.96875 50.515625 8.265625 
Q 44.046875 -1.421875 31.78125 -1.421875 
Q 19.53125 -1.421875 13.0625 8.265625 
Q 6.59375 17.96875 6.59375 36.375 
Q 6.59375 54.828125 13.0625 64.515625 
Q 19.53125 74.21875 31.78125 74.21875 
z
" id="DejaVuSans-30"/>
      </defs>
      <g transform="translate(49.7575 317.076875)scale(0.2 -0.2)">
       <use xlink:href="#DejaVuSans-30"/>
      </g>
     </g>
    </g>
    <g id="xtick_2">
     <g id="line2d_3">
      <path clip-path="url(#p18bf07d617)" d="M 135.351336 294.88 
L 135.351336 6.845228 
" style="fill:none;stroke:#b0b0b0;stroke-linecap:square;stroke-width:0.8;"/>
     </g>
     <g id="line2d_4">
      <g>
       <use style="stroke:#000000;stroke-width:0.8;" x="135.351336" xlink:href="#m21ea8a455c" y="294.88"/>
      </g>
     </g>
     <g id="text_2">
      <!-- 2 -->
      <defs>
       <path d="M 19.1875 8.296875 
L 53.609375 8.296875 
L 53.609375 0 
L 7.328125 0 
L 7.328125 8.296875 
Q 12.9375 14.109375 22.625 23.890625 
Q 32.328125 33.6875 34.8125 36.53125 
Q 39.546875 41.84375 41.421875 45.53125 
Q 43.3125 49.21875 43.3125 52.78125 
Q 43.3125 58.59375 39.234375 62.25 
Q 35.15625 65.921875 28.609375 65.921875 
Q 23.96875 65.921875 18.8125 64.3125 
Q 13.671875 62.703125 7.8125 59.421875 
L 7.8125 69.390625 
Q 13.765625 71.78125 18.9375 73 
Q 24.125 74.21875 28.421875 74.21875 
Q 39.75 74.21875 46.484375 68.546875 
Q 53.21875 62.890625 53.21875 53.421875 
Q 53.21875 48.921875 51.53125 44.890625 
Q 49.859375 40.875 45.40625 35.40625 
Q 44.1875 33.984375 37.640625 27.21875 
Q 31.109375 20.453125 19.1875 8.296875 
z
" id="DejaVuSans-32"/>
      </defs>
      <g transform="translate(128.988836 317.076875)scale(0.2 -0.2)">
       <use xlink:href="#DejaVuSans-32"/>
      </g>
     </g>
    </g>
    <g id="xtick_3">
     <g id="line2d_5">
      <path clip-path="url(#p18bf07d617)" d="M 214.582673 294.88 
L 214.582673 6.845228 
" style="fill:none;stroke:#b0b0b0;stroke-linecap:square;stroke-width:0.8;"/>
     </g>
     <g id="line2d_6">
      <g>
       <use style="stroke:#000000;stroke-width:0.8;" x="214.582673" xlink:href="#m21ea8a455c" y="294.88"/>
      </g>
     </g>
     <g id="text_3">
      <!-- 4 -->
      <defs>
       <path d="M 37.796875 64.3125 
L 12.890625 25.390625 
L 37.796875 25.390625 
z
M 35.203125 72.90625 
L 47.609375 72.90625 
L 47.609375 25.390625 
L 58.015625 25.390625 
L 58.015625 17.1875 
L 47.609375 17.1875 
L 47.609375 0 
L 37.796875 0 
L 37.796875 17.1875 
L 4.890625 17.1875 
L 4.890625 26.703125 
z
" id="DejaVuSans-34"/>
      </defs>
      <g transform="translate(208.220173 317.076875)scale(0.2 -0.2)">
       <use xlink:href="#DejaVuSans-34"/>
      </g>
     </g>
    </g>
    <g id="xtick_4">
     <g id="line2d_7">
      <path clip-path="url(#p18bf07d617)" d="M 293.814009 294.88 
L 293.814009 6.845228 
" style="fill:none;stroke:#b0b0b0;stroke-linecap:square;stroke-width:0.8;"/>
     </g>
     <g id="line2d_8">
      <g>
       <use style="stroke:#000000;stroke-width:0.8;" x="293.814009" xlink:href="#m21ea8a455c" y="294.88"/>
      </g>
     </g>
     <g id="text_4">
      <!-- 6 -->
      <defs>
       <path d="M 33.015625 40.375 
Q 26.375 40.375 22.484375 35.828125 
Q 18.609375 31.296875 18.609375 23.390625 
Q 18.609375 15.53125 22.484375 10.953125 
Q 26.375 6.390625 33.015625 6.390625 
Q 39.65625 6.390625 43.53125 10.953125 
Q 47.40625 15.53125 47.40625 23.390625 
Q 47.40625 31.296875 43.53125 35.828125 
Q 39.65625 40.375 33.015625 40.375 
z
M 52.59375 71.296875 
L 52.59375 62.3125 
Q 48.875 64.0625 45.09375 64.984375 
Q 41.3125 65.921875 37.59375 65.921875 
Q 27.828125 65.921875 22.671875 59.328125 
Q 17.53125 52.734375 16.796875 39.40625 
Q 19.671875 43.65625 24.015625 45.921875 
Q 28.375 48.1875 33.59375 48.1875 
Q 44.578125 48.1875 50.953125 41.515625 
Q 57.328125 34.859375 57.328125 23.390625 
Q 57.328125 12.15625 50.6875 5.359375 
Q 44.046875 -1.421875 33.015625 -1.421875 
Q 20.359375 -1.421875 13.671875 8.265625 
Q 6.984375 17.96875 6.984375 36.375 
Q 6.984375 53.65625 15.1875 63.9375 
Q 23.390625 74.21875 37.203125 74.21875 
Q 40.921875 74.21875 44.703125 73.484375 
Q 48.484375 72.75 52.59375 71.296875 
z
" id="DejaVuSans-36"/>
      </defs>
      <g transform="translate(287.451509 317.076875)scale(0.2 -0.2)">
       <use xlink:href="#DejaVuSans-36"/>
      </g>
     </g>
    </g>
    <g id="xtick_5">
     <g id="line2d_9">
      <path clip-path="url(#p18bf07d617)" d="M 373.045346 294.88 
L 373.045346 6.845228 
" style="fill:none;stroke:#b0b0b0;stroke-linecap:square;stroke-width:0.8;"/>
     </g>
     <g id="line2d_10">
      <g>
       <use style="stroke:#000000;stroke-width:0.8;" x="373.045346" xlink:href="#m21ea8a455c" y="294.88"/>
      </g>
     </g>
     <g id="text_5">
      <!-- 8 -->
      <defs>
       <path d="M 31.78125 34.625 
Q 24.75 34.625 20.71875 30.859375 
Q 16.703125 27.09375 16.703125 20.515625 
Q 16.703125 13.921875 20.71875 10.15625 
Q 24.75 6.390625 31.78125 6.390625 
Q 38.8125 6.390625 42.859375 10.171875 
Q 46.921875 13.96875 46.921875 20.515625 
Q 46.921875 27.09375 42.890625 30.859375 
Q 38.875 34.625 31.78125 34.625 
z
M 21.921875 38.8125 
Q 15.578125 40.375 12.03125 44.71875 
Q 8.5 49.078125 8.5 55.328125 
Q 8.5 64.0625 14.71875 69.140625 
Q 20.953125 74.21875 31.78125 74.21875 
Q 42.671875 74.21875 48.875 69.140625 
Q 55.078125 64.0625 55.078125 55.328125 
Q 55.078125 49.078125 51.53125 44.71875 
Q 48 40.375 41.703125 38.8125 
Q 48.828125 37.15625 52.796875 32.3125 
Q 56.78125 27.484375 56.78125 20.515625 
Q 56.78125 9.90625 50.3125 4.234375 
Q 43.84375 -1.421875 31.78125 -1.421875 
Q 19.734375 -1.421875 13.25 4.234375 
Q 6.78125 9.90625 6.78125 20.515625 
Q 6.78125 27.484375 10.78125 32.3125 
Q 14.796875 37.15625 21.921875 38.8125 
z
M 18.3125 54.390625 
Q 18.3125 48.734375 21.84375 45.5625 
Q 25.390625 42.390625 31.78125 42.390625 
Q 38.140625 42.390625 41.71875 45.5625 
Q 45.3125 48.734375 45.3125 54.390625 
Q 45.3125 60.0625 41.71875 63.234375 
Q 38.140625 66.40625 31.78125 66.40625 
Q 25.390625 66.40625 21.84375 63.234375 
Q 18.3125 60.0625 18.3125 54.390625 
z
" id="DejaVuSans-38"/>
      </defs>
      <g transform="translate(366.682846 317.076875)scale(0.2 -0.2)">
       <use xlink:href="#DejaVuSans-38"/>
      </g>
     </g>
    </g>
    <g id="text_6">
     <!-- log10(# f-evals / dimension) -->
     <defs>
      <path d="M 9.421875 75.984375 
L 18.40625 75.984375 
L 18.40625 0 
L 9.421875 0 
z
" id="DejaVuSans-6c"/>
      <path d="M 30.609375 48.390625 
Q 23.390625 48.390625 19.1875 42.75 
Q 14.984375 37.109375 14.984375 27.296875 
Q 14.984375 17.484375 19.15625 11.84375 
Q 23.34375 6.203125 30.609375 6.203125 
Q 37.796875 6.203125 41.984375 11.859375 
Q 46.1875 17.53125 46.1875 27.296875 
Q 46.1875 37.015625 41.984375 42.703125 
Q 37.796875 48.390625 30.609375 48.390625 
z
M 30.609375 56 
Q 42.328125 56 49.015625 48.375 
Q 55.71875 40.765625 55.71875 27.296875 
Q 55.71875 13.875 49.015625 6.21875 
Q 42.328125 -1.421875 30.609375 -1.421875 
Q 18.84375 -1.421875 12.171875 6.21875 
Q 5.515625 13.875 5.515625 27.296875 
Q 5.515625 40.765625 12.171875 48.375 
Q 18.84375 56 30.609375 56 
z
" id="DejaVuSans-6f"/>
      <path d="M 45.40625 27.984375 
Q 45.40625 37.75 41.375 43.109375 
Q 37.359375 48.484375 30.078125 48.484375 
Q 22.859375 48.484375 18.828125 43.109375 
Q 14.796875 37.75 14.796875 27.984375 
Q 14.796875 18.265625 18.828125 12.890625 
Q 22.859375 7.515625 30.078125 7.515625 
Q 37.359375 7.515625 41.375 12.890625 
Q 45.40625 18.265625 45.40625 27.984375 
z
M 54.390625 6.78125 
Q 54.390625 -7.171875 48.1875 -13.984375 
Q 42 -20.796875 29.203125 -20.796875 
Q 24.46875 -20.796875 20.265625 -20.09375 
Q 16.0625 -19.390625 12.109375 -17.921875 
L 12.109375 -9.1875 
Q 16.0625 -11.328125 19.921875 -12.34375 
Q 23.78125 -13.375 27.78125 -13.375 
Q 36.625 -13.375 41.015625 -8.765625 
Q 45.40625 -4.15625 45.40625 5.171875 
L 45.40625 9.625 
Q 42.625 4.78125 38.28125 2.390625 
Q 33.9375 0 27.875 0 
Q 17.828125 0 11.671875 7.65625 
Q 5.515625 15.328125 5.515625 27.984375 
Q 5.515625 40.671875 11.671875 48.328125 
Q 17.828125 56 27.875 56 
Q 33.9375 56 38.28125 53.609375 
Q 42.625 51.21875 45.40625 46.390625 
L 45.40625 54.6875 
L 54.390625 54.6875 
z
" id="DejaVuSans-67"/>
      <path d="M 12.40625 8.296875 
L 28.515625 8.296875 
L 28.515625 63.921875 
L 10.984375 60.40625 
L 10.984375 69.390625 
L 28.421875 72.90625 
L 38.28125 72.90625 
L 38.28125 8.296875 
L 54.390625 8.296875 
L 54.390625 0 
L 12.40625 0 
z
" id="DejaVuSans-31"/>
      <path d="M 31 75.875 
Q 24.46875 64.65625 21.28125 53.65625 
Q 18.109375 42.671875 18.109375 31.390625 
Q 18.109375 20.125 21.3125 9.0625 
Q 24.515625 -2 31 -13.1875 
L 23.1875 -13.1875 
Q 15.875 -1.703125 12.234375 9.375 
Q 8.59375 20.453125 8.59375 31.390625 
Q 8.59375 42.28125 12.203125 53.3125 
Q 15.828125 64.359375 23.1875 75.875 
z
" id="DejaVuSans-28"/>
      <path d="M 51.125 44 
L 36.921875 44 
L 32.8125 27.6875 
L 47.125 27.6875 
z
M 43.796875 71.78125 
L 38.71875 51.515625 
L 52.984375 51.515625 
L 58.109375 71.78125 
L 65.921875 71.78125 
L 60.890625 51.515625 
L 76.125 51.515625 
L 76.125 44 
L 58.984375 44 
L 54.984375 27.6875 
L 70.515625 27.6875 
L 70.515625 20.21875 
L 53.078125 20.21875 
L 48 0 
L 40.1875 0 
L 45.21875 20.21875 
L 30.90625 20.21875 
L 25.875 0 
L 18.015625 0 
L 23.09375 20.21875 
L 7.71875 20.21875 
L 7.71875 27.6875 
L 24.90625 27.6875 
L 29 44 
L 13.28125 44 
L 13.28125 51.515625 
L 30.90625 51.515625 
L 35.890625 71.78125 
z
" id="DejaVuSans-23"/>
      <path id="DejaVuSans-20"/>
      <path d="M 37.109375 75.984375 
L 37.109375 68.5 
L 28.515625 68.5 
Q 23.6875 68.5 21.796875 66.546875 
Q 19.921875 64.59375 19.921875 59.515625 
L 19.921875 54.6875 
L 34.71875 54.6875 
L 34.71875 47.703125 
L 19.921875 47.703125 
L 19.921875 0 
L 10.890625 0 
L 10.890625 47.703125 
L 2.296875 47.703125 
L 2.296875 54.6875 
L 10.890625 54.6875 
L 10.890625 58.5 
Q 10.890625 67.625 15.140625 71.796875 
Q 19.390625 75.984375 28.609375 75.984375 
z
" id="DejaVuSans-66"/>
      <path d="M 4.890625 31.390625 
L 31.203125 31.390625 
L 31.203125 23.390625 
L 4.890625 23.390625 
z
" id="DejaVuSans-2d"/>
      <path d="M 56.203125 29.59375 
L 56.203125 25.203125 
L 14.890625 25.203125 
Q 15.484375 15.921875 20.484375 11.0625 
Q 25.484375 6.203125 34.421875 6.203125 
Q 39.59375 6.203125 44.453125 7.46875 
Q 49.3125 8.734375 54.109375 11.28125 
L 54.109375 2.78125 
Q 49.265625 0.734375 44.1875 -0.34375 
Q 39.109375 -1.421875 33.890625 -1.421875 
Q 20.796875 -1.421875 13.15625 6.1875 
Q 5.515625 13.8125 5.515625 26.8125 
Q 5.515625 40.234375 12.765625 48.109375 
Q 20.015625 56 32.328125 56 
Q 43.359375 56 49.78125 48.890625 
Q 56.203125 41.796875 56.203125 29.59375 
z
M 47.21875 32.234375 
Q 47.125 39.59375 43.09375 43.984375 
Q 39.0625 48.390625 32.421875 48.390625 
Q 24.90625 48.390625 20.390625 44.140625 
Q 15.875 39.890625 15.1875 32.171875 
z
" id="DejaVuSans-65"/>
      <path d="M 2.984375 54.6875 
L 12.5 54.6875 
L 29.59375 8.796875 
L 46.6875 54.6875 
L 56.203125 54.6875 
L 35.6875 0 
L 23.484375 0 
z
" id="DejaVuSans-76"/>
      <path d="M 34.28125 27.484375 
Q 23.390625 27.484375 19.1875 25 
Q 14.984375 22.515625 14.984375 16.5 
Q 14.984375 11.71875 18.140625 8.90625 
Q 21.296875 6.109375 26.703125 6.109375 
Q 34.1875 6.109375 38.703125 11.40625 
Q 43.21875 16.703125 43.21875 25.484375 
L 43.21875 27.484375 
z
M 52.203125 31.203125 
L 52.203125 0 
L 43.21875 0 
L 43.21875 8.296875 
Q 40.140625 3.328125 35.546875 0.953125 
Q 30.953125 -1.421875 24.3125 -1.421875 
Q 15.921875 -1.421875 10.953125 3.296875 
Q 6 8.015625 6 15.921875 
Q 6 25.140625 12.171875 29.828125 
Q 18.359375 34.515625 30.609375 34.515625 
L 43.21875 34.515625 
L 43.21875 35.40625 
Q 43.21875 41.609375 39.140625 45 
Q 35.0625 48.390625 27.6875 48.390625 
Q 23 48.390625 18.546875 47.265625 
Q 14.109375 46.140625 10.015625 43.890625 
L 10.015625 52.203125 
Q 14.9375 54.109375 19.578125 55.046875 
Q 24.21875 56 28.609375 56 
Q 40.484375 56 46.34375 49.84375 
Q 52.203125 43.703125 52.203125 31.203125 
z
" id="DejaVuSans-61"/>
      <path d="M 44.28125 53.078125 
L 44.28125 44.578125 
Q 40.484375 46.53125 36.375 47.5 
Q 32.28125 48.484375 27.875 48.484375 
Q 21.1875 48.484375 17.84375 46.4375 
Q 14.5 44.390625 14.5 40.28125 
Q 14.5 37.15625 16.890625 35.375 
Q 19.28125 33.59375 26.515625 31.984375 
L 29.59375 31.296875 
Q 39.15625 29.25 43.1875 25.515625 
Q 47.21875 21.78125 47.21875 15.09375 
Q 47.21875 7.46875 41.1875 3.015625 
Q 35.15625 -1.421875 24.609375 -1.421875 
Q 20.21875 -1.421875 15.453125 -0.5625 
Q 10.6875 0.296875 5.421875 2 
L 5.421875 11.28125 
Q 10.40625 8.6875 15.234375 7.390625 
Q 20.0625 6.109375 24.8125 6.109375 
Q 31.15625 6.109375 34.5625 8.28125 
Q 37.984375 10.453125 37.984375 14.40625 
Q 37.984375 18.0625 35.515625 20.015625 
Q 33.0625 21.96875 24.703125 23.78125 
L 21.578125 24.515625 
Q 13.234375 26.265625 9.515625 29.90625 
Q 5.8125 33.546875 5.8125 39.890625 
Q 5.8125 47.609375 11.28125 51.796875 
Q 16.75 56 26.8125 56 
Q 31.78125 56 36.171875 55.265625 
Q 40.578125 54.546875 44.28125 53.078125 
z
" id="DejaVuSans-73"/>
      <path d="M 25.390625 72.90625 
L 33.6875 72.90625 
L 8.296875 -9.28125 
L 0 -9.28125 
z
" id="DejaVuSans-2f"/>
      <path d="M 45.40625 46.390625 
L 45.40625 75.984375 
L 54.390625 75.984375 
L 54.390625 0 
L 45.40625 0 
L 45.40625 8.203125 
Q 42.578125 3.328125 38.25 0.953125 
Q 33.9375 -1.421875 27.875 -1.421875 
Q 17.96875 -1.421875 11.734375 6.484375 
Q 5.515625 14.40625 5.515625 27.296875 
Q 5.515625 40.1875 11.734375 48.09375 
Q 17.96875 56 27.875 56 
Q 33.9375 56 38.25 53.625 
Q 42.578125 51.265625 45.40625 46.390625 
z
M 14.796875 27.296875 
Q 14.796875 17.390625 18.875 11.75 
Q 22.953125 6.109375 30.078125 6.109375 
Q 37.203125 6.109375 41.296875 11.75 
Q 45.40625 17.390625 45.40625 27.296875 
Q 45.40625 37.203125 41.296875 42.84375 
Q 37.203125 48.484375 30.078125 48.484375 
Q 22.953125 48.484375 18.875 42.84375 
Q 14.796875 37.203125 14.796875 27.296875 
z
" id="DejaVuSans-64"/>
      <path d="M 9.421875 54.6875 
L 18.40625 54.6875 
L 18.40625 0 
L 9.421875 0 
z
M 9.421875 75.984375 
L 18.40625 75.984375 
L 18.40625 64.59375 
L 9.421875 64.59375 
z
" id="DejaVuSans-69"/>
      <path d="M 52 44.1875 
Q 55.375 50.25 60.0625 53.125 
Q 64.75 56 71.09375 56 
Q 79.640625 56 84.28125 50.015625 
Q 88.921875 44.046875 88.921875 33.015625 
L 88.921875 0 
L 79.890625 0 
L 79.890625 32.71875 
Q 79.890625 40.578125 77.09375 44.375 
Q 74.3125 48.1875 68.609375 48.1875 
Q 61.625 48.1875 57.5625 43.546875 
Q 53.515625 38.921875 53.515625 30.90625 
L 53.515625 0 
L 44.484375 0 
L 44.484375 32.71875 
Q 44.484375 40.625 41.703125 44.40625 
Q 38.921875 48.1875 33.109375 48.1875 
Q 26.21875 48.1875 22.15625 43.53125 
Q 18.109375 38.875 18.109375 30.90625 
L 18.109375 0 
L 9.078125 0 
L 9.078125 54.6875 
L 18.109375 54.6875 
L 18.109375 46.1875 
Q 21.1875 51.21875 25.484375 53.609375 
Q 29.78125 56 35.6875 56 
Q 41.65625 56 45.828125 52.96875 
Q 50 49.953125 52 44.1875 
z
" id="DejaVuSans-6d"/>
      <path d="M 54.890625 33.015625 
L 54.890625 0 
L 45.90625 0 
L 45.90625 32.71875 
Q 45.90625 40.484375 42.875 44.328125 
Q 39.84375 48.1875 33.796875 48.1875 
Q 26.515625 48.1875 22.3125 43.546875 
Q 18.109375 38.921875 18.109375 30.90625 
L 18.109375 0 
L 9.078125 0 
L 9.078125 54.6875 
L 18.109375 54.6875 
L 18.109375 46.1875 
Q 21.34375 51.125 25.703125 53.5625 
Q 30.078125 56 35.796875 56 
Q 45.21875 56 50.046875 50.171875 
Q 54.890625 44.34375 54.890625 33.015625 
z
" id="DejaVuSans-6e"/>
      <path d="M 8.015625 75.875 
L 15.828125 75.875 
Q 23.140625 64.359375 26.78125 53.3125 
Q 30.421875 42.28125 30.421875 31.390625 
Q 30.421875 20.453125 26.78125 9.375 
Q 23.140625 -1.703125 15.828125 -13.1875 
L 8.015625 -13.1875 
Q 14.5 -2 17.703125 9.0625 
Q 20.90625 20.125 20.90625 31.390625 
Q 20.90625 42.671875 17.703125 53.65625 
Q 14.5 64.65625 8.015625 75.875 
z
" id="DejaVuSans-29"/>
     </defs>
     <g transform="translate(107.211219 338.153594)scale(0.17 -0.17)">
      <use xlink:href="#DejaVuSans-6c"/>
      <use x="27.783203" xlink:href="#DejaVuSans-6f"/>
      <use x="88.964844" xlink:href="#DejaVuSans-67"/>
      <use x="152.441406" xlink:href="#DejaVuSans-31"/>
      <use x="216.064453" xlink:href="#DejaVuSans-30"/>
      <use x="279.6875" xlink:href="#DejaVuSans-28"/>
      <use x="318.701172" xlink:href="#DejaVuSans-23"/>
      <use x="402.490234" xlink:href="#DejaVuSans-20"/>
      <use x="434.277344" xlink:href="#DejaVuSans-66"/>
      <use x="469.404297" xlink:href="#DejaVuSans-2d"/>
      <use x="505.488281" xlink:href="#DejaVuSans-65"/>
      <use x="567.011719" xlink:href="#DejaVuSans-76"/>
      <use x="626.191406" xlink:href="#DejaVuSans-61"/>
      <use x="687.470703" xlink:href="#DejaVuSans-6c"/>
      <use x="715.253906" xlink:href="#DejaVuSans-73"/>
      <use x="767.353516" xlink:href="#DejaVuSans-20"/>
      <use x="799.140625" xlink:href="#DejaVuSans-2f"/>
      <use x="832.832031" xlink:href="#DejaVuSans-20"/>
      <use x="864.619141" xlink:href="#DejaVuSans-64"/>
      <use x="928.095703" xlink:href="#DejaVuSans-69"/>
      <use x="955.878906" xlink:href="#DejaVuSans-6d"/>
      <use x="1053.291016" xlink:href="#DejaVuSans-65"/>
      <use x="1114.814453" xlink:href="#DejaVuSans-6e"/>
      <use x="1178.193359" xlink:href="#DejaVuSans-73"/>
      <use x="1230.292969" xlink:href="#DejaVuSans-69"/>
      <use x="1258.076172" xlink:href="#DejaVuSans-6f"/>
      <use x="1319.257812" xlink:href="#DejaVuSans-6e"/>
      <use x="1382.636719" xlink:href="#DejaVuSans-29"/>
     </g>
    </g>
   </g>
   <g id="matplotlib.axis_2">
    <g id="ytick_1">
     <g id="line2d_11">
      <path clip-path="url(#p18bf07d617)" d="M 56.12 294.88 
L 399.984 294.88 
" style="fill:none;stroke:#b0b0b0;stroke-linecap:square;stroke-width:0.8;"/>
     </g>
     <g id="line2d_12">
      <defs>
       <path d="M 0 0 
L -3.5 0 
" id="m0ebb76d0e9" style="stroke:#000000;stroke-width:0.8;"/>
      </defs>
      <g>
       <use style="stroke:#000000;stroke-width:0.8;" x="56.12" xlink:href="#m0ebb76d0e9" y="294.88"/>
      </g>
     </g>
     <g id="text_7">
      <!-- 0.0 -->
      <defs>
       <path d="M 10.6875 12.40625 
L 21 12.40625 
L 21 0 
L 10.6875 0 
z
" id="DejaVuSans-2e"/>
      </defs>
      <g transform="translate(23.675 300.95875)scale(0.16 -0.16)">
       <use xlink:href="#DejaVuSans-30"/>
       <use x="63.623047" xlink:href="#DejaVuSans-2e"/>
       <use x="95.410156" xlink:href="#DejaVuSans-30"/>
      </g>
     </g>
    </g>
    <g id="ytick_2">
     <g id="line2d_13">
      <path clip-path="url(#p18bf07d617)" d="M 56.12 237.843411 
L 399.984 237.843411 
" style="fill:none;stroke:#b0b0b0;stroke-linecap:square;stroke-width:0.8;"/>
     </g>
     <g id="line2d_14">
      <g>
       <use style="stroke:#000000;stroke-width:0.8;" x="56.12" xlink:href="#m0ebb76d0e9" y="237.843411"/>
      </g>
     </g>
     <g id="text_8">
      <!-- 0.2 -->
      <g transform="translate(23.675 243.922161)scale(0.16 -0.16)">
       <use xlink:href="#DejaVuSans-30"/>
       <use x="63.623047" xlink:href="#DejaVuSans-2e"/>
       <use x="95.410156" xlink:href="#DejaVuSans-32"/>
      </g>
     </g>
    </g>
    <g id="ytick_3">
     <g id="line2d_15">
      <path clip-path="url(#p18bf07d617)" d="M 56.12 180.806823 
L 399.984 180.806823 
" style="fill:none;stroke:#b0b0b0;stroke-linecap:square;stroke-width:0.8;"/>
     </g>
     <g id="line2d_16">
      <g>
       <use style="stroke:#000000;stroke-width:0.8;" x="56.12" xlink:href="#m0ebb76d0e9" y="180.806823"/>
      </g>
     </g>
     <g id="text_9">
      <!-- 0.4 -->
      <g transform="translate(23.675 186.885573)scale(0.16 -0.16)">
       <use xlink:href="#DejaVuSans-30"/>
       <use x="63.623047" xlink:href="#DejaVuSans-2e"/>
       <use x="95.410156" xlink:href="#DejaVuSans-34"/>
      </g>
     </g>
    </g>
    <g id="ytick_4">
     <g id="line2d_17">
      <path clip-path="url(#p18bf07d617)" d="M 56.12 123.770234 
L 399.984 123.770234 
" style="fill:none;stroke:#b0b0b0;stroke-linecap:square;stroke-width:0.8;"/>
     </g>
     <g id="line2d_18">
      <g>
       <use style="stroke:#000000;stroke-width:0.8;" x="56.12" xlink:href="#m0ebb76d0e9" y="123.770234"/>
      </g>
     </g>
     <g id="text_10">
      <!-- 0.6 -->
      <g transform="translate(23.675 129.848984)scale(0.16 -0.16)">
       <use xlink:href="#DejaVuSans-30"/>
       <use x="63.623047" xlink:href="#DejaVuSans-2e"/>
       <use x="95.410156" xlink:href="#DejaVuSans-36"/>
      </g>
     </g>
    </g>
    <g id="ytick_5">
     <g id="line2d_19">
      <path clip-path="url(#p18bf07d617)" d="M 56.12 66.733646 
L 399.984 66.733646 
" style="fill:none;stroke:#b0b0b0;stroke-linecap:square;stroke-width:0.8;"/>
     </g>
     <g id="line2d_20">
      <g>
       <use style="stroke:#000000;stroke-width:0.8;" x="56.12" xlink:href="#m0ebb76d0e9" y="66.733646"/>
      </g>
     </g>
     <g id="text_11">
      <!-- 0.8 -->
      <g transform="translate(23.675 72.812396)scale(0.16 -0.16)">
       <use xlink:href="#DejaVuSans-30"/>
       <use x="63.623047" xlink:href="#DejaVuSans-2e"/>
       <use x="95.410156" xlink:href="#DejaVuSans-38"/>
      </g>
     </g>
    </g>
    <g id="ytick_6">
     <g id="line2d_21">
      <path clip-path="url(#p18bf07d617)" d="M 56.12 9.697057 
L 399.984 9.697057 
" style="fill:none;stroke:#b0b0b0;stroke-linecap:square;stroke-width:0.8;"/>
     </g>
     <g id="line2d_22">
      <g>
       <use style="stroke:#000000;stroke-width:0.8;" x="56.12" xlink:href="#m0ebb76d0e9" y="9.697057"/>
      </g>
     </g>
     <g id="text_12">
      <!-- 1.0 -->
      <g transform="translate(23.675 15.775807)scale(0.16 -0.16)">
       <use xlink:href="#DejaVuSans-31"/>
       <use x="63.623047" xlink:href="#DejaVuSans-2e"/>
       <use x="95.410156" xlink:href="#DejaVuSans-30"/>
      </g>
     </g>
    </g>
    <g id="text_13">
     <!-- Fraction of function,target pairs -->
     <defs>
      <path d="M 9.8125 72.90625 
L 51.703125 72.90625 
L 51.703125 64.59375 
L 19.671875 64.59375 
L 19.671875 43.109375 
L 48.578125 43.109375 
L 48.578125 34.8125 
L 19.671875 34.8125 
L 19.671875 0 
L 9.8125 0 
z
" id="DejaVuSans-46"/>
      <path d="M 41.109375 46.296875 
Q 39.59375 47.171875 37.8125 47.578125 
Q 36.03125 48 33.890625 48 
Q 26.265625 48 22.1875 43.046875 
Q 18.109375 38.09375 18.109375 28.8125 
L 18.109375 0 
L 9.078125 0 
L 9.078125 54.6875 
L 18.109375 54.6875 
L 18.109375 46.1875 
Q 20.953125 51.171875 25.484375 53.578125 
Q 30.03125 56 36.53125 56 
Q 37.453125 56 38.578125 55.875 
Q 39.703125 55.765625 41.0625 55.515625 
z
" id="DejaVuSans-72"/>
      <path d="M 48.78125 52.59375 
L 48.78125 44.1875 
Q 44.96875 46.296875 41.140625 47.34375 
Q 37.3125 48.390625 33.40625 48.390625 
Q 24.65625 48.390625 19.8125 42.84375 
Q 14.984375 37.3125 14.984375 27.296875 
Q 14.984375 17.28125 19.8125 11.734375 
Q 24.65625 6.203125 33.40625 6.203125 
Q 37.3125 6.203125 41.140625 7.25 
Q 44.96875 8.296875 48.78125 10.40625 
L 48.78125 2.09375 
Q 45.015625 0.34375 40.984375 -0.53125 
Q 36.96875 -1.421875 32.421875 -1.421875 
Q 20.0625 -1.421875 12.78125 6.34375 
Q 5.515625 14.109375 5.515625 27.296875 
Q 5.515625 40.671875 12.859375 48.328125 
Q 20.21875 56 33.015625 56 
Q 37.15625 56 41.109375 55.140625 
Q 45.0625 54.296875 48.78125 52.59375 
z
" id="DejaVuSans-63"/>
      <path d="M 18.3125 70.21875 
L 18.3125 54.6875 
L 36.8125 54.6875 
L 36.8125 47.703125 
L 18.3125 47.703125 
L 18.3125 18.015625 
Q 18.3125 11.328125 20.140625 9.421875 
Q 21.96875 7.515625 27.59375 7.515625 
L 36.8125 7.515625 
L 36.8125 0 
L 27.59375 0 
Q 17.1875 0 13.234375 3.875 
Q 9.28125 7.765625 9.28125 18.015625 
L 9.28125 47.703125 
L 2.6875 47.703125 
L 2.6875 54.6875 
L 9.28125 54.6875 
L 9.28125 70.21875 
z
" id="DejaVuSans-74"/>
      <path d="M 8.5 21.578125 
L 8.5 54.6875 
L 17.484375 54.6875 
L 17.484375 21.921875 
Q 17.484375 14.15625 20.5 10.265625 
Q 23.53125 6.390625 29.59375 6.390625 
Q 36.859375 6.390625 41.078125 11.03125 
Q 45.3125 15.671875 45.3125 23.6875 
L 45.3125 54.6875 
L 54.296875 54.6875 
L 54.296875 0 
L 45.3125 0 
L 45.3125 8.40625 
Q 42.046875 3.421875 37.71875 1 
Q 33.40625 -1.421875 27.6875 -1.421875 
Q 18.265625 -1.421875 13.375 4.4375 
Q 8.5 10.296875 8.5 21.578125 
z
M 31.109375 56 
z
" id="DejaVuSans-75"/>
      <path d="M 11.71875 12.40625 
L 22.015625 12.40625 
L 22.015625 4 
L 14.015625 -11.625 
L 7.71875 -11.625 
L 11.71875 4 
z
" id="DejaVuSans-2c"/>
      <path d="M 18.109375 8.203125 
L 18.109375 -20.796875 
L 9.078125 -20.796875 
L 9.078125 54.6875 
L 18.109375 54.6875 
L 18.109375 46.390625 
Q 20.953125 51.265625 25.265625 53.625 
Q 29.59375 56 35.59375 56 
Q 45.5625 56 51.78125 48.09375 
Q 58.015625 40.1875 58.015625 27.296875 
Q 58.015625 14.40625 51.78125 6.484375 
Q 45.5625 -1.421875 35.59375 -1.421875 
Q 29.59375 -1.421875 25.265625 0.953125 
Q 20.953125 3.328125 18.109375 8.203125 
z
M 48.6875 27.296875 
Q 48.6875 37.203125 44.609375 42.84375 
Q 40.53125 48.484375 33.40625 48.484375 
Q 26.265625 48.484375 22.1875 42.84375 
Q 18.109375 37.203125 18.109375 27.296875 
Q 18.109375 17.390625 22.1875 11.75 
Q 26.265625 6.109375 33.40625 6.109375 
Q 40.53125 6.109375 44.609375 11.75 
Q 48.6875 17.390625 48.6875 27.296875 
z
" id="DejaVuSans-70"/>
     </defs>
     <g transform="translate(16.139531 286.001989)rotate(-90)scale(0.17 -0.17)">
      <use xlink:href="#DejaVuSans-46"/>
      <use x="57.410156" xlink:href="#DejaVuSans-72"/>
      <use x="98.523438" xlink:href="#DejaVuSans-61"/>
      <use x="159.802734" xlink:href="#DejaVuSans-63"/>
      <use x="214.783203" xlink:href="#DejaVuSans-74"/>
      <use x="253.992188" xlink:href="#DejaVuSans-69"/>
      <use x="281.775391" xlink:href="#DejaVuSans-6f"/>
      <use x="342.957031" xlink:href="#DejaVuSans-6e"/>
      <use x="406.335938" xlink:href="#DejaVuSans-20"/>
      <use x="438.123047" xlink:href="#DejaVuSans-6f"/>
      <use x="499.304688" xlink:href="#DejaVuSans-66"/>
      <use x="534.509766" xlink:href="#DejaVuSans-20"/>
      <use x="566.296875" xlink:href="#DejaVuSans-66"/>
      <use x="601.501953" xlink:href="#DejaVuSans-75"/>
      <use x="664.880859" xlink:href="#DejaVuSans-6e"/>
      <use x="728.259766" xlink:href="#DejaVuSans-63"/>
      <use x="783.240234" xlink:href="#DejaVuSans-74"/>
      <use x="822.449219" xlink:href="#DejaVuSans-69"/>
      <use x="850.232422" xlink:href="#DejaVuSans-6f"/>
      <use x="911.414062" xlink:href="#DejaVuSans-6e"/>
      <use x="974.792969" xlink:href="#DejaVuSans-2c"/>
      <use x="1006.580078" xlink:href="#DejaVuSans-74"/>
      <use x="1045.789062" xlink:href="#DejaVuSans-61"/>
      <use x="1107.068359" xlink:href="#DejaVuSans-72"/>
      <use x="1148.166016" xlink:href="#DejaVuSans-67"/>
      <use x="1211.642578" xlink:href="#DejaVuSans-65"/>
      <use x="1273.166016" xlink:href="#DejaVuSans-74"/>
      <use x="1312.375" xlink:href="#DejaVuSans-20"/>
      <use x="1344.162109" xlink:href="#DejaVuSans-70"/>
      <use x="1407.638672" xlink:href="#DejaVuSans-61"/>
      <use x="1468.917969" xlink:href="#DejaVuSans-69"/>
      <use x="1496.701172" xlink:href="#DejaVuSans-72"/>
      <use x="1537.814453" xlink:href="#DejaVuSans-73"/>
     </g>
    </g>
   </g>
   <g id="line2d_23">
    <defs>
     <path d="M 0 1.5 
C 0.397805 1.5 0.77937 1.341951 1.06066 1.06066 
C 1.341951 0.77937 1.5 0.397805 1.5 0 
C 1.5 -0.397805 1.341951 -0.77937 1.06066 -1.06066 
C 0.77937 -1.341951 0.397805 -1.5 0 -1.5 
C -0.397805 -1.5 -0.77937 -1.341951 -1.06066 -1.06066 
C -1.341951 -0.77937 -1.5 -0.397805 -1.5 0 
C -1.5 0.397805 -1.341951 0.77937 -1.06066 1.06066 
C -0.77937 1.341951 -0.397805 1.5 0 1.5 
z
" id="m44ce8d6858" style="stroke:#000080;"/>
    </defs>
    <g>
     <use style="fill:#000080;stroke:#000080;" x="265.187025" xlink:href="#m44ce8d6858" y="9.697057"/>
     <use style="fill:#000080;stroke:#000080;" x="265.187025" xlink:href="#m44ce8d6858" y="9.697057"/>
    </g>
   </g>
   <g id="line2d_24">
    <path d="M 56.12 294.88 
L 56.12 290.406542 
L 68.045504 290.406542 
L 68.045504 289.288178 
L 75.021477 289.288178 
L 75.021477 287.051449 
L 79.971009 287.051449 
L 79.971009 281.459626 
L 83.810164 281.459626 
L 83.810164 277.545351 
L 86.946982 277.545351 
L 86.946982 276.986168 
L 89.599124 276.986168 
L 89.599124 274.749439 
L 91.896513 274.749439 
L 91.896513 273.631075 
L 93.922955 273.631075 
L 93.922955 270.835164 
L 95.735668 270.835164 
L 95.735668 269.716799 
L 97.375467 269.716799 
L 97.375467 269.157617 
L 98.872486 269.157617 
L 98.872486 266.920888 
L 103.822018 266.920888 
L 103.822018 264.124977 
L 114.053874 264.124977 
L 114.053874 263.006612 
L 114.637146 263.006612 
L 114.637146 261.888248 
L 115.20129 261.888248 
L 115.20129 259.092337 
L 115.747522 259.092337 
L 115.747522 256.855608 
L 117.773963 256.855608 
L 117.773963 255.178061 
L 120.830944 255.178061 
L 120.830944 254.059696 
L 123.078247 254.059696 
L 123.078247 252.38215 
L 123.425832 252.38215 
L 123.425832 251.263785 
L 125.065631 251.263785 
L 125.065631 250.704603 
L 125.680156 250.704603 
L 125.680156 250.145421 
L 126.273486 250.145421 
L 126.273486 243.994416 
L 128.461173 243.994416 
L 128.461173 242.316869 
L 129.458837 242.316869 
L 129.458837 241.757687 
L 131.295765 241.757687 
L 131.295765 241.198505 
L 131.725909 241.198505 
L 131.725909 238.961776 
L 132.35161 238.961776 
L 132.35161 237.843411 
L 134.102767 237.843411 
L 134.102767 237.284229 
L 135.178422 237.284229 
L 135.178422 236.725047 
L 135.351336 236.725047 
L 135.351336 235.606682 
L 136.026124 235.606682 
L 136.026124 235.0475 
L 136.515394 235.0475 
L 136.515394 233.369954 
L 137.301141 233.369954 
L 137.301141 232.251589 
L 138.052565 232.251589 
L 138.052565 230.574042 
L 140.127953 230.574042 
L 140.127953 230.01486 
L 142.441628 230.01486 
L 142.441628 226.100584 
L 143.967108 226.100584 
L 143.967108 224.423038 
L 145.748512 224.423038 
L 145.748512 223.304673 
L 152.312182 223.304673 
L 152.312182 222.745491 
L 152.630211 222.745491 
L 152.630211 222.186309 
L 154.927601 222.186309 
L 154.927601 220.508762 
L 155.94467 220.508762 
L 155.94467 219.94958 
L 156.304725 219.94958 
L 156.304725 218.831215 
L 156.657399 218.831215 
L 156.657399 216.594486 
L 157.245657 216.594486 
L 157.341774 213.798575 
L 157.953776 213.798575 
L 157.953776 213.239393 
L 164.555716 213.239393 
L 164.555716 212.680211 
L 166.005403 212.680211 
L 166.005403 211.561846 
L 167.288695 211.561846 
L 167.288695 209.325117 
L 167.660994 209.325117 
L 167.660994 207.64757 
L 168.128123 207.64757 
L 168.128123 206.529206 
L 170.20002 206.529206 
L 170.20002 203.733295 
L 171.384006 203.733295 
L 171.384006 202.61493 
L 173.718436 202.61493 
L 173.718436 200.937384 
L 173.92074 200.937384 
L 173.92074 200.378201 
L 174.915312 200.378201 
L 174.915312 199.259837 
L 176.338834 199.259837 
L 176.338834 197.58229 
L 180.053627 197.58229 
L 180.053627 195.904743 
L 180.545769 195.904743 
L 180.607858 193.108832 
L 181.228689 193.108832 
L 181.228689 192.54965 
L 182.451533 192.54965 
L 182.451533 191.431285 
L 183.645226 191.431285 
L 183.645226 188.076192 
L 183.974516 188.076192 
L 183.974516 186.957828 
L 185.6069 186.957828 
L 185.6069 185.280281 
L 186.217034 185.280281 
L 186.217034 184.721099 
L 188.524486 184.721099 
L 188.524486 184.161916 
L 189.078784 184.161916 
L 189.078784 183.043552 
L 194.27092 183.043552 
L 194.27092 181.925187 
L 195.287904 181.925187 
L 195.287904 180.247641 
L 209.5826 180.247641 
L 209.5826 179.129276 
L 219.992669 179.129276 
L 219.992669 178.570094 
L 223.655292 178.570094 
L 223.655292 178.010912 
L 225.849693 178.010912 
L 225.849693 176.892547 
L 228.002687 176.892547 
L 228.079019 175.215 
L 228.888809 175.215 
L 228.888809 174.096636 
L 229.861555 174.096636 
L 229.861555 173.537454 
L 230.429718 173.537454 
L 230.429718 172.419089 
L 230.957812 172.419089 
L 230.957812 171.859907 
L 231.10332 171.859907 
L 231.10332 171.300725 
L 232.005265 171.300725 
L 232.062666 169.623178 
L 232.833708 169.623178 
L 232.944133 168.504814 
L 233.094966 168.504814 
L 233.094966 167.945631 
L 233.401368 167.945631 
L 233.401368 167.386449 
L 234.068263 167.386449 
L 234.068263 166.268085 
L 234.311558 166.268085 
L 234.311558 165.708902 
L 234.57839 165.708902 
L 234.57839 165.14972 
L 234.763591 165.14972 
L 234.763591 164.590538 
L 235.701207 164.590538 
L 235.809761 163.472173 
L 235.841295 163.472173 
L 235.841295 162.912991 
L 237.068167 162.912991 
L 237.068167 162.353809 
L 237.70489 162.353809 
L 237.770727 160.11708 
L 238.498079 160.11708 
L 238.577172 158.998715 
L 238.894146 158.998715 
L 238.976029 157.880351 
L 239.261226 157.880351 
L 239.261226 157.321169 
L 239.547418 157.321169 
L 239.547418 156.202804 
L 239.661136 156.202804 
L 239.661136 155.643622 
L 240.222205 155.643622 
L 240.245062 154.525258 
L 240.685364 154.525258 
L 240.776443 152.288529 
L 240.92817 152.288529 
L 240.92817 151.729346 
L 241.290446 151.729346 
L 241.290446 151.170164 
L 241.548621 151.170164 
L 241.548621 150.0518 
L 241.962781 150.0518 
L 241.962781 149.492617 
L 242.11243 149.492617 
L 242.11243 148.374253 
L 242.224595 148.374253 
L 242.324717 146.696706 
L 242.731207 146.696706 
L 242.731207 146.137524 
L 242.893608 146.137524 
L 242.893608 145.578342 
L 243.099807 145.578342 
L 243.099807 144.459977 
L 243.727077 144.459977 
L 243.727077 143.341613 
L 244.01369 143.341613 
L 244.094357 141.664066 
L 244.345402 141.664066 
L 244.345402 141.104884 
L 244.506019 141.104884 
L 244.506019 140.545702 
L 244.693572 140.545702 
L 244.731793 138.308973 
L 244.906584 138.308973 
L 244.906584 137.74979 
L 245.215583 137.74979 
L 245.291973 136.072244 
L 245.336378 136.072244 
L 245.336378 135.513061 
L 245.729822 135.513061 
L 245.729822 134.953879 
L 245.936574 134.953879 
L 245.976851 133.835515 
L 246.068443 133.835515 
L 246.068443 133.276332 
L 246.180948 133.276332 
L 246.180948 132.71715 
L 246.456201 132.71715 
L 246.456201 132.157968 
L 246.806355 132.157968 
L 246.876275 130.480421 
L 247.084089 130.480421 
L 247.084089 129.921239 
L 247.231226 129.921239 
L 247.269874 127.68451 
L 247.408801 127.68451 
L 247.408801 126.006963 
L 247.617382 126.006963 
L 247.617382 125.447781 
L 248.23299 125.447781 
L 248.23299 124.888599 
L 248.403221 124.888599 
L 248.403221 124.329417 
L 248.671232 124.329417 
L 248.671232 123.770234 
L 249.112467 123.770234 
L 249.112467 122.65187 
L 249.329369 122.65187 
L 249.365634 120.415141 
L 249.566781 120.415141 
L 249.609516 119.296776 
L 249.70517 119.296776 
L 249.70517 117.61923 
L 249.885395 117.61923 
L 249.885395 117.060047 
L 250.081027 117.060047 
L 250.081027 116.500865 
L 250.276404 116.500865 
L 250.276404 115.941683 
L 250.421655 115.941683 
L 250.421655 114.823318 
L 250.665697 114.823318 
L 250.767646 113.704954 
L 250.901325 113.704954 
L 250.979294 110.909043 
L 251.164991 110.909043 
L 251.164991 110.349861 
L 251.332454 110.349861 
L 251.332454 109.790678 
L 251.462841 109.790678 
L 251.462841 109.231496 
L 251.772667 109.231496 
L 251.852119 108.113132 
L 252.151392 108.113132 
L 252.22661 106.435585 
L 252.292085 106.435585 
L 252.292085 105.31722 
L 252.42973 105.31722 
L 252.42973 104.758038 
L 252.742814 104.758038 
L 252.828542 103.080491 
L 252.947922 103.080491 
L 253.027665 101.962127 
L 253.326167 101.962127 
L 253.326167 100.28458 
L 253.666843 100.28458 
L 253.74015 99.166216 
L 253.780212 99.166216 
L 253.780212 96.929487 
L 253.910343 96.929487 
L 253.910343 96.370304 
L 254.249192 96.370304 
L 254.249192 95.811122 
L 254.363742 95.811122 
L 254.410879 94.133576 
L 254.778573 94.133576 
L 254.778573 93.574393 
L 254.901559 93.574393 
L 254.983119 89.660118 
L 255.192245 89.660118 
L 255.192245 89.100935 
L 255.458765 89.100935 
L 255.458765 87.982571 
L 255.573824 87.982571 
L 255.573824 87.423389 
L 255.80918 87.423389 
L 255.817795 85.745842 
L 255.972748 85.745842 
L 255.972748 84.627477 
L 256.201368 84.627477 
L 256.303363 82.390748 
L 256.381434 82.390748 
L 256.381434 81.831566 
L 256.499236 81.831566 
L 256.544631 80.713202 
L 256.669224 80.713202 
L 256.669224 80.15402 
L 256.832974 80.15402 
L 256.937467 79.035655 
L 256.957117 79.035655 
L 257.068143 77.917291 
L 257.130499 77.917291 
L 257.228301 75.680562 
L 257.335732 75.680562 
L 257.399128 74.562197 
L 257.59414 74.562197 
L 257.665596 73.443833 
L 257.707879 73.443833 
L 257.740538 71.766286 
L 257.993119 71.766286 
L 258.021247 70.647921 
L 258.168032 70.647921 
L 258.177181 68.970375 
L 258.35308 68.970375 
L 258.35308 67.85201 
L 258.546452 67.85201 
L 258.607012 66.174463 
L 258.780438 66.174463 
L 258.81073 65.056099 
L 258.913458 65.056099 
L 258.936465 63.378552 
L 259.226619 63.378552 
L 259.283172 60.023459 
L 259.470094 60.023459 
L 259.520677 58.345912 
L 259.590489 58.345912 
L 259.625414 56.668365 
L 259.71629 56.668365 
L 259.71629 55.550001 
L 259.887964 55.550001 
L 259.965166 53.313272 
L 260.154357 53.313272 
L 260.246847 52.194907 
L 260.276963 52.194907 
L 260.352443 51.076543 
L 260.497526 51.076543 
L 260.497526 50.517361 
L 260.723778 50.517361 
L 260.812561 48.839814 
L 260.839131 48.839814 
L 260.874999 47.162267 
L 261.248136 47.162267 
L 261.275752 43.807174 
L 261.431939 43.807174 
L 261.462759 41.570445 
L 261.834316 41.570445 
L 261.937325 39.892898 
L 261.95268 39.892898 
L 262.001394 38.215351 
L 262.107974 38.215351 
L 262.115577 37.096987 
L 262.220483 37.096987 
L 262.287164 35.978622 
L 262.358941 35.978622 
L 262.358941 34.860258 
L 262.531522 34.860258 
L 262.531522 34.301076 
L 262.643304 34.301076 
L 262.717285 29.268436 
L 262.818804 29.268436 
L 262.836829 28.150071 
L 262.946962 28.150071 
L 262.946962 27.590889 
L 263.125962 27.590889 
L 263.125962 27.031707 
L 263.329955 27.031707 
L 263.391975 24.235795 
L 263.548352 24.235795 
L 263.548352 23.676613 
L 263.748513 23.676613 
L 263.830879 20.880702 
L 263.896802 20.880702 
L 263.974467 18.643973 
L 264.183728 18.643973 
L 264.183728 18.084791 
L 264.346175 18.084791 
L 264.384288 16.966426 
L 264.464809 16.966426 
L 264.476836 14.729697 
L 264.590345 14.729697 
L 264.594952 13.052151 
L 264.79136 13.052151 
L 264.79136 12.492968 
L 264.934743 12.492968 
L 264.934743 11.374604 
L 265.100877 11.374604 
L 265.187025 9.697057 
L 333.429677 9.697057 
L 333.429677 9.697057 
" style="fill:none;stroke:#000080;stroke-linecap:square;stroke-width:1.5;"/>
   </g>
   <g id="line2d_25">
    <defs>
     <path d="M 0 6 
C 1.591219 6 3.117479 5.367802 4.242641 4.242641 
C 5.367802 3.117479 6 1.591219 6 0 
C 6 -1.591219 5.367802 -3.117479 4.242641 -4.242641 
C 3.117479 -5.367802 1.591219 -6 0 -6 
C -1.591219 -6 -3.117479 -5.367802 -4.242641 -4.242641 
C -5.367802 -3.117479 -6 -1.591219 -6 0 
C -6 1.591219 -5.367802 3.117479 -4.242641 4.242641 
C -3.117479 5.367802 -1.591219 6 0 6 
z
" id="m089c159e10" style="stroke:#000080;stroke-width:1.5;"/>
    </defs>
    <g>
     <use style="fill-opacity:0;stroke:#000080;stroke-width:1.5;" x="166.005403" xlink:href="#m089c159e10" y="211.561846"/>
     <use style="fill-opacity:0;stroke:#000080;stroke-width:1.5;" x="245.729822" xlink:href="#m089c159e10" y="134.953879"/>
     <use style="fill-opacity:0;stroke:#000080;stroke-width:1.5;" x="265.187025" xlink:href="#m089c159e10" y="10.256239"/>
     <use style="fill-opacity:0;stroke:#000080;stroke-width:1.5;" x="265.187025" xlink:href="#m089c159e10" y="9.697057"/>
     <use style="fill-opacity:0;stroke:#000080;stroke-width:1.5;" x="333.429677" xlink:href="#m089c159e10" y="9.697057"/>
    </g>
   </g>
   <g id="line2d_26">
    <path style="fill:none;stroke:#000080;stroke-linecap:square;stroke-width:1.5;"/>
    <g/>
   </g>
   <g id="line2d_27">
    <defs>
     <path d="M 0 1.5 
C 0.397805 1.5 0.77937 1.341951 1.06066 1.06066 
C 1.341951 0.77937 1.5 0.397805 1.5 0 
C 1.5 -0.397805 1.341951 -0.77937 1.06066 -1.06066 
C 0.77937 -1.341951 0.397805 -1.5 0 -1.5 
C -0.397805 -1.5 -0.77937 -1.341951 -1.06066 -1.06066 
C -1.341951 -0.77937 -1.5 -0.397805 -1.5 0 
C -1.5 0.397805 -1.341951 0.77937 -1.06066 1.06066 
C -0.77937 1.341951 -0.397805 1.5 0 1.5 
z
" id="m5b9dee1b39" style="stroke:#ff00ff;"/>
    </defs>
    <g>
     <use style="fill:#ff00ff;stroke:#ff00ff;" x="265.414518" xlink:href="#m5b9dee1b39" y="9.697057"/>
     <use style="fill:#ff00ff;stroke:#ff00ff;" x="265.414518" xlink:href="#m5b9dee1b39" y="9.697057"/>
    </g>
   </g>
   <g id="line2d_28">
    <path d="M 56.12 294.88 
L 56.12 285.373902 
L 68.045504 285.373902 
L 68.045504 269.157617 
L 75.021477 269.157617 
L 75.021477 255.737243 
L 79.971009 255.737243 
L 79.971009 251.263785 
L 83.810164 251.263785 
L 83.810164 249.027056 
L 89.599124 249.027056 
L 89.599124 246.231145 
L 91.896513 246.231145 
L 91.896513 244.553598 
L 93.922955 244.553598 
L 93.922955 243.994416 
L 97.375467 243.994416 
L 97.375467 242.316869 
L 98.872486 242.316869 
L 98.872486 235.606682 
L 100.24961 235.606682 
L 100.24961 233.929136 
L 101.524628 233.929136 
L 101.524628 232.251589 
L 106.778678 232.251589 
L 106.778678 228.337313 
L 107.661173 228.337313 
L 107.661173 227.218949 
L 111.500328 227.218949 
L 111.500328 226.659767 
L 112.175115 226.659767 
L 112.175115 224.423038 
L 118.245359 224.423038 
L 118.245359 222.186309 
L 120.01151 222.186309 
L 120.01151 219.390397 
L 121.613118 219.390397 
L 121.613118 218.831215 
L 124.428341 218.831215 
L 124.428341 217.153669 
L 125.680156 217.153669 
L 125.680156 212.680211 
L 125.979378 212.680211 
L 125.979378 209.884299 
L 132.35161 209.884299 
L 132.35161 208.765935 
L 136.834012 208.765935 
L 136.834012 208.206753 
L 137.904883 208.206753 
L 137.904883 207.64757 
L 138.630934 207.64757 
L 138.630934 207.088388 
L 142.212226 207.088388 
L 142.212226 206.529206 
L 144.880856 206.529206 
L 144.880856 199.259837 
L 148.600945 199.259837 
L 148.600945 197.023108 
L 151.184678 197.023108 
L 151.184678 195.904743 
L 152.118505 195.904743 
L 152.118505 191.990468 
L 158.091969 191.990468 
L 158.091969 191.431285 
L 161.829891 191.431285 
L 161.829891 190.872103 
L 164.429209 190.872103 
L 164.429209 188.635374 
L 166.547109 188.635374 
L 166.547109 186.398645 
L 167.475851 186.398645 
L 167.475851 184.161916 
L 169.410454 184.161916 
L 169.410454 183.043552 
L 173.077655 183.043552 
L 173.077655 181.925187 
L 175.707837 181.925187 
L 175.707837 179.688458 
L 178.598452 179.688458 
L 178.709541 174.655818 
L 180.332975 174.655818 
L 180.332975 174.096636 
L 209.5895 174.096636 
L 209.5895 173.537454 
L 215.593295 173.537454 
L 215.593295 172.978271 
L 220.457443 172.978271 
L 220.457443 171.859907 
L 222.622722 171.859907 
L 222.622722 171.300725 
L 224.762242 171.300725 
L 224.762242 170.741543 
L 227.784424 170.741543 
L 227.784424 169.623178 
L 228.326911 169.623178 
L 228.326911 169.063996 
L 228.536148 169.063996 
L 228.536148 167.945631 
L 229.96671 167.945631 
L 229.96671 167.386449 
L 230.332874 167.386449 
L 230.332874 166.827267 
L 231.513963 166.827267 
L 231.513963 166.268085 
L 231.701996 166.268085 
L 231.701996 165.708902 
L 232.07512 165.708902 
L 232.07512 165.14972 
L 233.551119 165.14972 
L 233.551119 164.031356 
L 234.154525 164.031356 
L 234.154525 162.912991 
L 234.450914 162.912991 
L 234.450914 162.353809 
L 234.904629 162.353809 
L 234.922573 161.235444 
L 235.906679 161.235444 
L 235.906679 160.676262 
L 236.764696 160.676262 
L 236.764696 160.11708 
L 237.149 160.11708 
L 237.149 159.557898 
L 237.39884 159.557898 
L 237.39884 158.998715 
L 237.662207 158.998715 
L 237.705787 156.761987 
L 238.502364 156.761987 
L 238.502364 156.202804 
L 238.94683 156.202804 
L 238.94683 154.525258 
L 239.122938 154.525258 
L 239.122938 153.966075 
L 239.553868 153.966075 
L 239.553868 153.406893 
L 240.159291 153.406893 
L 240.159291 151.729346 
L 240.516615 151.729346 
L 240.516615 151.170164 
L 241.172367 151.170164 
L 241.268938 148.933435 
L 241.54575 148.933435 
L 241.54575 146.696706 
L 241.75482 146.696706 
L 241.75482 145.578342 
L 241.993584 145.578342 
L 241.993584 144.459977 
L 242.22218 144.459977 
L 242.22218 143.900795 
L 242.747952 143.900795 
L 242.848077 142.223248 
L 242.932066 142.223248 
L 242.932066 141.104884 
L 243.577814 141.104884 
L 243.577814 139.427337 
L 243.747303 139.427337 
L 243.747303 138.868155 
L 244.068647 138.868155 
L 244.068647 138.308973 
L 244.329532 138.308973 
L 244.329532 137.74979 
L 244.92311 137.74979 
L 244.962591 136.072244 
L 245.036595 136.072244 
L 245.036595 135.513061 
L 245.214133 135.513061 
L 245.214133 134.953879 
L 245.662703 134.953879 
L 245.693193 133.835515 
L 245.819934 133.835515 
L 245.819934 133.276332 
L 246.073685 133.276332 
L 246.073685 132.71715 
L 246.209712 132.71715 
L 246.209712 131.598786 
L 246.533736 131.598786 
L 246.559771 130.480421 
L 247.076803 130.480421 
L 247.076803 129.921239 
L 247.219873 129.921239 
L 247.219873 128.243692 
L 247.441703 128.243692 
L 247.441703 127.68451 
L 247.883667 127.68451 
L 247.987162 126.566145 
L 248.043107 126.566145 
L 248.145161 124.888599 
L 248.434997 124.888599 
L 248.503407 123.211052 
L 248.755952 123.211052 
L 248.849415 121.533505 
L 249.098357 121.533505 
L 249.203099 119.296776 
L 249.63533 119.296776 
L 249.63533 118.737594 
L 249.840681 118.737594 
L 249.918081 116.500865 
L 250.01204 116.500865 
L 250.01204 115.941683 
L 250.185185 115.941683 
L 250.251102 114.823318 
L 250.424869 114.823318 
L 250.424869 114.264136 
L 250.822163 114.264136 
L 250.822163 113.145772 
L 251.021354 113.145772 
L 251.021354 112.027407 
L 251.150825 112.027407 
L 251.150825 111.468225 
L 251.262604 111.468225 
L 251.290334 109.790678 
L 251.862763 109.790678 
L 251.862763 109.231496 
L 252.040188 109.231496 
L 252.09238 106.994767 
L 252.167856 106.994767 
L 252.256682 105.31722 
L 252.291701 105.31722 
L 252.291701 104.758038 
L 252.434496 104.758038 
L 252.453358 103.639674 
L 253.080255 103.639674 
L 253.153539 102.521309 
L 253.226512 102.521309 
L 253.236704 101.402945 
L 253.387415 101.402945 
L 253.440716 99.166216 
L 253.519823 99.166216 
L 253.519823 98.047851 
L 253.833894 98.047851 
L 253.833894 96.929487 
L 254.15631 96.929487 
L 254.22619 95.25194 
L 254.305537 95.25194 
L 254.416147 93.574393 
L 254.56382 93.574393 
L 254.56382 93.015211 
L 254.718919 93.015211 
L 254.814798 91.896847 
L 255.06642 91.896847 
L 255.170308 90.778482 
L 255.311674 90.778482 
L 255.311674 90.2193 
L 255.566198 90.2193 
L 255.674386 88.541753 
L 255.779701 88.541753 
L 255.779701 87.982571 
L 256.03332 87.982571 
L 256.12155 85.18666 
L 256.19616 85.18666 
L 256.19616 84.627477 
L 256.447986 84.627477 
L 256.535171 82.390748 
L 256.588858 82.390748 
L 256.588858 81.272384 
L 256.733189 81.272384 
L 256.800171 78.476473 
L 256.887066 78.476473 
L 256.953599 77.358108 
L 257.32928 77.358108 
L 257.32928 75.680562 
L 257.474526 75.680562 
L 257.474526 74.562197 
L 257.621236 74.562197 
L 257.720501 70.647921 
L 257.806369 70.647921 
L 257.806369 70.088739 
L 258.001259 70.088739 
L 258.029649 68.970375 
L 258.217682 68.970375 
L 258.217682 68.411192 
L 258.482594 68.411192 
L 258.489433 67.292828 
L 258.748375 67.292828 
L 258.777538 64.496917 
L 259.201297 64.496917 
L 259.301725 61.701006 
L 259.31962 61.701006 
L 259.338518 60.023459 
L 259.564815 60.023459 
L 259.564815 59.464277 
L 259.738872 59.464277 
L 259.833492 57.78673 
L 260.020695 57.78673 
L 260.123417 55.550001 
L 260.211828 55.550001 
L 260.318723 52.75409 
L 260.39186 52.75409 
L 260.406498 50.517361 
L 260.556717 50.517361 
L 260.655351 47.72145 
L 260.674018 47.72145 
L 260.768344 46.603085 
L 261.338806 46.603085 
L 261.352888 45.484721 
L 261.485303 45.484721 
L 261.563413 43.247992 
L 261.695893 43.247992 
L 261.695893 42.688809 
L 261.83244 42.688809 
L 261.874999 41.011263 
L 261.948733 41.011263 
L 262.048008 38.215351 
L 262.079813 38.215351 
L 262.114382 35.41944 
L 262.287916 35.41944 
L 262.380769 33.182711 
L 262.451519 33.182711 
L 262.561282 31.505165 
L 262.617062 31.505165 
L 262.699764 28.150071 
L 262.911436 28.150071 
L 262.977149 26.472524 
L 263.023772 26.472524 
L 263.040657 25.35416 
L 263.428436 25.35416 
L 263.467129 23.117431 
L 263.65086 23.117431 
L 263.671804 20.32152 
L 263.899446 20.32152 
L 263.993074 16.966426 
L 264.044892 16.966426 
L 264.050813 15.28888 
L 264.201052 15.28888 
L 264.284156 13.052151 
L 264.317726 13.052151 
L 264.428204 10.815422 
L 265.044089 10.815422 
L 265.044089 10.256239 
L 265.414518 10.256239 
L 265.414518 9.697057 
L 333.429677 9.697057 
L 333.429677 9.697057 
" style="fill:none;stroke:#ff00ff;stroke-linecap:square;stroke-width:1.5;"/>
   </g>
   <g id="line2d_29">
    <defs>
     <path d="M -0 8.485281 
L 5.091169 0 
L 0 -8.485281 
L -5.091169 -0 
z
" id="mfee9a3c2e4" style="stroke:#ff00ff;stroke-linejoin:miter;stroke-width:1.5;"/>
    </defs>
    <g>
     <use style="fill-opacity:0;stroke:#ff00ff;stroke-linejoin:miter;stroke-width:1.5;" x="158.091969" xlink:href="#mfee9a3c2e4" y="191.990468"/>
     <use style="fill-opacity:0;stroke:#ff00ff;stroke-linejoin:miter;stroke-width:1.5;" x="254.305537" xlink:href="#mfee9a3c2e4" y="94.692758"/>
     <use style="fill-opacity:0;stroke:#ff00ff;stroke-linejoin:miter;stroke-width:1.5;" x="265.414518" xlink:href="#mfee9a3c2e4" y="9.697057"/>
     <use style="fill-opacity:0;stroke:#ff00ff;stroke-linejoin:miter;stroke-width:1.5;" x="265.414518" xlink:href="#mfee9a3c2e4" y="9.697057"/>
     <use style="fill-opacity:0;stroke:#ff00ff;stroke-linejoin:miter;stroke-width:1.5;" x="333.429677" xlink:href="#mfee9a3c2e4" y="9.697057"/>
    </g>
   </g>
   <g id="line2d_30">
    <path style="fill:none;stroke:#ff00ff;stroke-linecap:square;stroke-width:1.5;"/>
    <g/>
   </g>
   <g id="line2d_31">
    <defs>
     <path d="M 0 1.5 
C 0.397805 1.5 0.77937 1.341951 1.06066 1.06066 
C 1.341951 0.77937 1.5 0.397805 1.5 0 
C 1.5 -0.397805 1.341951 -0.77937 1.06066 -1.06066 
C 0.77937 -1.341951 0.397805 -1.5 0 -1.5 
C -0.397805 -1.5 -0.77937 -1.341951 -1.06066 -1.06066 
C -1.341951 -0.77937 -1.5 -0.397805 -1.5 0 
C -1.5 0.397805 -1.341951 0.77937 -1.06066 1.06066 
C -0.77937 1.341951 -0.397805 1.5 0 1.5 
z
" id="m514deb3dfa" style="stroke:#ffa500;"/>
    </defs>
    <g>
     <use style="fill:#ffa500;stroke:#ffa500;" x="231.823061" xlink:href="#m514deb3dfa" y="9.697057"/>
     <use style="fill:#ffa500;stroke:#ffa500;" x="231.823061" xlink:href="#m514deb3dfa" y="9.697057"/>
    </g>
   </g>
   <g id="line2d_32">
    <path d="M 56.12 294.88 
L 56.12 292.643271 
L 68.045504 292.643271 
L 68.045504 292.084089 
L 75.021477 292.084089 
L 75.021477 289.288178 
L 83.810164 289.288178 
L 83.810164 287.610631 
L 86.946982 287.610631 
L 86.946982 286.492266 
L 93.922955 286.492266 
L 93.922955 284.81472 
L 97.375467 284.81472 
L 97.375467 283.696355 
L 98.872486 283.696355 
L 98.872486 282.577991 
L 104.865056 282.577991 
L 104.865056 278.663715 
L 105.848459 278.663715 
L 105.848459 273.631075 
L 115.747522 273.631075 
L 115.747522 273.071893 
L 118.245359 273.071893 
L 118.245359 271.394346 
L 120.830944 271.394346 
L 120.830944 269.716799 
L 123.078247 269.716799 
L 123.078247 268.598435 
L 125.979378 268.598435 
L 125.979378 268.039252 
L 135.003752 268.039252 
L 135.003752 266.920888 
L 135.522531 266.920888 
L 135.522531 266.361706 
L 136.991135 266.361706 
L 136.991135 265.802523 
L 137.146836 265.802523 
L 137.146836 265.243341 
L 137.904883 265.243341 
L 137.904883 261.329066 
L 138.052565 261.329066 
L 138.052565 260.210701 
L 138.488154 260.210701 
L 138.488154 256.296425 
L 138.772539 256.296425 
L 138.772539 255.178061 
L 138.912987 255.178061 
L 138.912987 252.941332 
L 139.865278 252.941332 
L 139.865278 251.263785 
L 140.386678 251.263785 
L 140.386678 249.027056 
L 141.262751 249.027056 
L 141.262751 246.790327 
L 141.384341 246.790327 
L 141.384341 245.112781 
L 143.437686 245.112781 
L 143.437686 244.553598 
L 144.681953 244.553598 
L 144.681953 243.435234 
L 146.752794 243.435234 
L 146.752794 240.08014 
L 147.103926 240.08014 
L 147.103926 239.520958 
L 149.149666 239.520958 
L 149.149666 236.725047 
L 150.197243 236.725047 
L 150.197243 234.488318 
L 150.908289 234.488318 
L 150.908289 233.929136 
L 151.321225 233.929136 
L 151.321225 232.810771 
L 154.021872 232.810771 
L 154.021872 231.692407 
L 154.761369 231.692407 
L 154.761369 229.455678 
L 156.954042 229.455678 
L 156.954042 228.896496 
L 157.149 228.896496 
L 157.149 228.337313 
L 160.285818 228.337313 
L 160.285818 227.218949 
L 161.15215 227.218949 
L 161.15215 226.100584 
L 162.588256 226.100584 
L 162.588256 224.98222 
L 164.365605 224.98222 
L 164.365605 224.423038 
L 166.575153 224.423038 
L 166.575153 221.627126 
L 166.853105 221.627126 
L 166.853105 221.067944 
L 167.765902 221.067944 
L 167.765902 217.712851 
L 168.20476 217.712851 
L 168.20476 217.153669 
L 168.331733 217.153669 
L 168.331733 214.91694 
L 169.669888 214.91694 
L 169.669888 213.239393 
L 176.870663 213.239393 
L 176.870663 212.680211 
L 177.281591 212.680211 
L 177.281591 212.121028 
L 178.218141 212.121028 
L 178.218141 211.561846 
L 179.950912 211.561846 
L 179.950912 211.002664 
L 180.395835 211.002664 
L 180.395835 209.884299 
L 182.650819 209.884299 
L 182.661823 207.088388 
L 184.227459 207.088388 
L 184.227459 205.970024 
L 185.003159 205.970024 
L 185.003159 205.410841 
L 187.690924 205.410841 
L 187.690924 204.851659 
L 188.656981 204.851659 
L 188.656981 202.61493 
L 189.237147 202.61493 
L 189.237147 202.055748 
L 189.593738 202.055748 
L 189.593738 201.496566 
L 189.885352 201.496566 
L 189.885352 200.378201 
L 190.496072 200.378201 
L 190.496072 198.700655 
L 192.176416 198.700655 
L 192.176416 196.463926 
L 192.650718 196.463926 
L 192.650718 195.345561 
L 192.949729 195.345561 
L 192.949729 194.227197 
L 193.509189 194.227197 
L 193.509189 193.668014 
L 195.705265 193.668014 
L 195.782406 191.431285 
L 195.833641 191.431285 
L 195.833641 190.872103 
L 196.273067 190.872103 
L 196.273067 189.194556 
L 196.691818 189.194556 
L 196.691818 188.635374 
L 197.133855 188.635374 
L 197.133855 185.280281 
L 197.998789 185.280281 
L 197.998789 183.602734 
L 198.822314 183.602734 
L 198.890979 180.806823 
L 198.938028 180.806823 
L 198.938028 177.451729 
L 199.179786 177.451729 
L 199.179786 176.333365 
L 199.525855 176.333365 
L 199.525855 175.774183 
L 200.675402 175.774183 
L 200.771658 172.419089 
L 201.300964 172.419089 
L 201.300964 171.300725 
L 202.253312 171.300725 
L 202.253312 169.623178 
L 202.404126 169.623178 
L 202.43901 167.386449 
L 202.804498 167.386449 
L 202.804498 163.472173 
L 203.028205 163.472173 
L 203.028205 162.912991 
L 203.394705 162.912991 
L 203.394705 161.235444 
L 203.588112 161.235444 
L 203.630437 157.880351 
L 203.949382 157.880351 
L 203.949382 156.761987 
L 204.136687 156.761987 
L 204.136687 156.202804 
L 204.325098 156.202804 
L 204.325098 155.643622 
L 204.545417 155.643622 
L 204.610045 146.137524 
L 204.91451 146.137524 
L 204.91451 144.459977 
L 205.204781 144.459977 
L 205.204781 142.78243 
L 205.498989 142.78243 
L 205.498989 141.664066 
L 205.661574 141.664066 
L 205.701982 137.190608 
L 205.911153 137.190608 
L 205.911153 134.394697 
L 206.064263 134.394697 
L 206.064263 133.835515 
L 207.800025 133.835515 
L 207.901799 131.039603 
L 208.600279 131.039603 
L 208.600279 130.480421 
L 208.743401 130.480421 
L 208.743401 129.921239 
L 209.052243 129.921239 
L 209.123278 128.243692 
L 209.215189 128.243692 
L 209.325304 127.125328 
L 209.598697 127.125328 
L 209.598697 125.447781 
L 209.90624 125.447781 
L 210.014277 122.65187 
L 210.933865 122.65187 
L 210.933865 121.533505 
L 211.069454 121.533505 
L 211.069454 120.974323 
L 211.18932 120.974323 
L 211.18932 119.855959 
L 211.329155 119.855959 
L 211.395543 118.737594 
L 211.607507 118.737594 
L 211.666718 116.500865 
L 212.34417 116.500865 
L 212.408714 114.823318 
L 212.539018 114.823318 
L 212.622129 109.790678 
L 212.714432 109.790678 
L 212.735515 108.113132 
L 212.827213 108.113132 
L 212.910843 102.521309 
L 213.46679 102.521309 
L 213.468625 98.607033 
L 213.914354 98.607033 
L 214.012448 97.488669 
L 214.712935 97.488669 
L 214.82187 94.133576 
L 214.938548 94.133576 
L 215.049418 91.337664 
L 215.056114 91.337664 
L 215.129604 87.423389 
L 215.310317 87.423389 
L 215.310317 85.745842 
L 215.461382 85.745842 
L 215.482621 84.068295 
L 215.580312 84.068295 
L 215.580312 83.509113 
L 215.802917 83.509113 
L 215.802917 82.949931 
L 216.202127 82.949931 
L 216.261529 78.476473 
L 216.590753 78.476473 
L 216.590753 74.562197 
L 216.800738 74.562197 
L 216.800738 73.443833 
L 217.180657 73.443833 
L 217.180657 71.766286 
L 217.431785 71.766286 
L 217.431785 67.85201 
L 217.591412 67.85201 
L 217.591412 66.733646 
L 217.713755 66.733646 
L 217.713755 66.174463 
L 217.92047 66.174463 
L 217.92047 65.615281 
L 218.316903 65.615281 
L 218.316903 65.056099 
L 218.447959 65.056099 
L 218.447959 64.496917 
L 218.598472 64.496917 
L 218.701699 59.464277 
L 218.75038 59.464277 
L 218.827179 57.227548 
L 218.906313 57.227548 
L 218.949081 55.550001 
L 219.210057 55.550001 
L 219.288762 51.635725 
L 219.389242 51.635725 
L 219.419142 49.398996 
L 219.516282 49.398996 
L 219.516282 48.839814 
L 219.644956 48.839814 
L 219.701269 47.72145 
L 219.905766 47.72145 
L 219.905766 47.162267 
L 220.125323 47.162267 
L 220.136539 45.484721 
L 220.360569 45.484721 
L 220.462333 43.247992 
L 220.651987 43.247992 
L 220.68098 40.45208 
L 220.788071 40.45208 
L 220.828807 38.774534 
L 220.958754 38.774534 
L 220.958754 36.537805 
L 221.095978 36.537805 
L 221.095978 35.978622 
L 221.274147 35.978622 
L 221.297453 34.301076 
L 221.421609 34.301076 
L 221.421609 33.182711 
L 221.770674 33.182711 
L 221.872338 31.505165 
L 222.184838 31.505165 
L 222.184838 30.3868 
L 222.372931 30.3868 
L 222.372931 29.827618 
L 222.584943 29.827618 
L 222.584943 29.268436 
L 222.873189 29.268436 
L 222.873189 28.150071 
L 223.225534 28.150071 
L 223.257777 24.235795 
L 223.517665 24.235795 
L 223.522782 23.117431 
L 223.769651 23.117431 
L 223.769651 21.439884 
L 224.419902 21.439884 
L 224.528341 19.203155 
L 224.720297 19.203155 
L 224.720297 18.084791 
L 225.543083 18.084791 
L 225.543083 16.407244 
L 226.508177 16.407244 
L 226.508177 15.28888 
L 226.717656 15.28888 
L 226.717656 14.729697 
L 227.105035 14.729697 
L 227.105035 12.492968 
L 229.369677 12.492968 
L 229.369677 11.374604 
L 229.630652 11.374604 
L 229.630652 10.815422 
L 231.823061 10.815422 
L 231.823061 9.697057 
L 333.429677 9.697057 
L 333.429677 9.697057 
" style="fill:none;stroke:#ffa500;stroke-linecap:square;stroke-width:1.5;"/>
   </g>
   <g id="line2d_33">
    <defs>
     <path d="M 0 -6 
L -1.347084 -1.854102 
L -5.706339 -1.854102 
L -2.179628 0.708204 
L -3.526712 4.854102 
L -0 2.291796 
L 3.526712 4.854102 
L 2.179628 0.708204 
L 5.706339 -1.854102 
L 1.347084 -1.854102 
z
" id="m0e5bc37369" style="stroke:#ffa500;stroke-linejoin:bevel;stroke-width:1.5;"/>
    </defs>
    <g>
     <use style="fill-opacity:0;stroke:#ffa500;stroke-linejoin:bevel;stroke-width:1.5;" x="160.285818" xlink:href="#m0e5bc37369" y="228.337313"/>
     <use style="fill-opacity:0;stroke:#ffa500;stroke-linejoin:bevel;stroke-width:1.5;" x="223.769651" xlink:href="#m0e5bc37369" y="21.439884"/>
     <use style="fill-opacity:0;stroke:#ffa500;stroke-linejoin:bevel;stroke-width:1.5;" x="231.823061" xlink:href="#m0e5bc37369" y="9.697057"/>
     <use style="fill-opacity:0;stroke:#ffa500;stroke-linejoin:bevel;stroke-width:1.5;" x="231.823061" xlink:href="#m0e5bc37369" y="9.697057"/>
     <use style="fill-opacity:0;stroke:#ffa500;stroke-linejoin:bevel;stroke-width:1.5;" x="333.429677" xlink:href="#m0e5bc37369" y="9.697057"/>
    </g>
   </g>
   <g id="line2d_34">
    <path style="fill:none;stroke:#ffa500;stroke-linecap:square;stroke-width:1.5;"/>
    <g/>
   </g>
   <g id="line2d_35">
    <defs>
     <path d="M 0 1.5 
C 0.397805 1.5 0.77937 1.341951 1.06066 1.06066 
C 1.341951 0.77937 1.5 0.397805 1.5 0 
C 1.5 -0.397805 1.341951 -0.77937 1.06066 -1.06066 
C 0.77937 -1.341951 0.397805 -1.5 0 -1.5 
C -0.397805 -1.5 -0.77937 -1.341951 -1.06066 -1.06066 
C -1.341951 -0.77937 -1.5 -0.397805 -1.5 0 
C -1.5 0.397805 -1.341951 0.77937 -1.06066 1.06066 
C -0.77937 1.341951 -0.397805 1.5 0 1.5 
z
" id="m6ace39497c" style="stroke:#6495ed;"/>
    </defs>
    <g>
     <use style="fill:#6495ed;stroke:#6495ed;" x="309.603917" xlink:href="#m6ace39497c" y="9.697057"/>
     <use style="fill:#6495ed;stroke:#6495ed;" x="309.603917" xlink:href="#m6ace39497c" y="9.697057"/>
    </g>
   </g>
   <g id="line2d_36">
    <path d="M 56.12 294.88 
L 56.12 287.051449 
L 68.045504 287.051449 
L 68.045504 285.373902 
L 75.021477 285.373902 
L 75.021477 282.577991 
L 79.971009 282.577991 
L 79.971009 279.782079 
L 83.810164 279.782079 
L 83.810164 279.222897 
L 91.896513 279.222897 
L 91.896513 277.545351 
L 93.922955 277.545351 
L 93.922955 271.394346 
L 97.375467 271.394346 
L 97.375467 270.275981 
L 98.872486 270.275981 
L 98.872486 269.716799 
L 101.524628 269.716799 
L 101.524628 269.157617 
L 102.711641 269.157617 
L 102.711641 268.598435 
L 106.778678 268.598435 
L 106.778678 265.802523 
L 107.661173 265.802523 
L 107.661173 265.243341 
L 111.500328 265.243341 
L 111.500328 264.124977 
L 112.824432 264.124977 
L 112.824432 259.092337 
L 114.053874 259.092337 
L 114.053874 254.059696 
L 115.20129 254.059696 
L 115.20129 253.500514 
L 116.276944 253.500514 
L 116.276944 252.38215 
L 117.773963 252.38215 
L 117.773963 251.822967 
L 120.01151 251.822967 
L 120.01151 250.704603 
L 127.126794 250.704603 
L 127.126794 249.586238 
L 128.461173 249.586238 
L 128.461173 249.027056 
L 131.937015 249.027056 
L 131.937015 246.790327 
L 135.522531 246.790327 
L 135.522531 246.231145 
L 135.859892 246.231145 
L 135.859892 243.994416 
L 136.353845 243.994416 
L 136.353845 243.435234 
L 136.515394 243.435234 
L 136.515394 242.316869 
L 136.675441 242.316869 
L 136.675441 241.757687 
L 137.301141 241.757687 
L 137.301141 236.725047 
L 138.052565 236.725047 
L 138.052565 233.929136 
L 138.34418 233.929136 
L 138.34418 232.810771 
L 138.772539 232.810771 
L 138.772539 230.01486 
L 139.327583 230.01486 
L 139.327583 229.455678 
L 139.46359 229.455678 
L 139.46359 226.100584 
L 140.257802 226.100584 
L 140.257802 225.541402 
L 141.505077 225.541402 
L 141.505077 221.627126 
L 141.624972 221.627126 
L 141.624972 221.067944 
L 148.521108 221.067944 
L 148.521108 219.94958 
L 148.759517 219.94958 
L 148.838258 215.476122 
L 150.124495 215.476122 
L 150.124495 213.239393 
L 152.053458 213.239393 
L 152.053458 211.561846 
L 156.048314 211.561846 
L 156.048314 210.443482 
L 157.002989 210.443482 
L 157.002989 209.884299 
L 157.767776 209.884299 
L 157.767776 209.325117 
L 157.907464 209.325117 
L 157.907464 207.64757 
L 159.66909 207.64757 
L 159.66909 204.851659 
L 160.000761 204.851659 
L 160.000761 204.292477 
L 165.505825 204.292477 
L 165.505825 202.055748 
L 166.908161 202.055748 
L 166.908161 201.496566 
L 169.122901 201.496566 
L 169.122901 195.345561 
L 170.714304 195.345561 
L 170.714304 194.786379 
L 173.975503 194.786379 
L 173.975503 194.227197 
L 176.147134 194.227197 
L 176.147134 193.668014 
L 179.065706 193.668014 
L 179.065706 193.108832 
L 179.546992 193.108832 
L 179.546992 185.839463 
L 181.096666 185.839463 
L 181.096666 181.925187 
L 181.793219 181.925187 
L 181.793219 181.366005 
L 182.891298 181.366005 
L 182.891298 178.570094 
L 183.181909 178.570094 
L 183.181909 176.892547 
L 183.759132 176.892547 
L 183.759132 171.859907 
L 184.663801 171.859907 
L 184.663801 161.794627 
L 185.827951 161.794627 
L 185.827951 161.235444 
L 187.258493 161.235444 
L 187.275328 153.406893 
L 188.024378 153.406893 
L 188.024378 151.729346 
L 188.160766 151.729346 
L 188.160766 151.170164 
L 188.351492 151.170164 
L 188.367291 147.255888 
L 188.842314 147.255888 
L 188.842314 146.137524 
L 189.116622 146.137524 
L 189.116622 134.394697 
L 189.549566 134.394697 
L 189.549566 126.006963 
L 191.682155 126.006963 
L 191.773083 124.329417 
L 193.02217 124.329417 
L 193.02217 113.145772 
L 193.857008 113.145772 
L 193.857008 112.027407 
L 194.27092 112.027407 
L 194.27092 111.468225 
L 194.746101 111.468225 
L 194.746101 110.349861 
L 194.951955 110.349861 
L 194.951955 109.231496 
L 195.612238 109.231496 
L 195.617419 106.435585 
L 196.026957 106.435585 
L 196.026957 105.876403 
L 197.331939 105.876403 
L 197.331939 104.758038 
L 198.826614 104.758038 
L 198.826614 104.198856 
L 199.372443 104.198856 
L 199.372443 101.962127 
L 200.582486 101.962127 
L 200.582486 100.843762 
L 200.970163 100.843762 
L 200.970163 100.28458 
L 201.445559 100.28458 
L 201.445559 99.166216 
L 204.31885 99.166216 
L 204.31885 98.607033 
L 209.146892 98.607033 
L 209.146892 98.047851 
L 209.31596 98.047851 
L 209.31596 93.015211 
L 281.892547 93.015211 
L 282.002419 49.958178 
L 282.010381 49.958178 
L 282.07698 44.366356 
L 282.140033 44.366356 
L 282.140033 42.688809 
L 293.816039 42.688809 
L 293.89184 26.472524 
L 293.940242 26.472524 
L 293.940242 25.913342 
L 300.798164 25.913342 
L 300.874246 14.729697 
L 305.750753 14.729697 
L 305.759597 12.492968 
L 309.590154 12.492968 
L 309.603917 9.697057 
L 333.429677 9.697057 
L 333.429677 9.697057 
" style="fill:none;stroke:#6495ed;stroke-linecap:square;stroke-width:1.5;"/>
   </g>
   <g id="line2d_37">
    <defs>
     <path d="M -0 6 
L 6 -6 
L -6 -6 
z
" id="ma03d1badfd" style="stroke:#6495ed;stroke-linejoin:miter;stroke-width:1.5;"/>
    </defs>
    <g>
     <use style="fill-opacity:0;stroke:#6495ed;stroke-linejoin:miter;stroke-width:1.5;" x="157.907464" xlink:href="#ma03d1badfd" y="209.325117"/>
     <use style="fill-opacity:0;stroke:#6495ed;stroke-linejoin:miter;stroke-width:1.5;" x="209.31596" xlink:href="#ma03d1badfd" y="98.047851"/>
     <use style="fill-opacity:0;stroke:#6495ed;stroke-linejoin:miter;stroke-width:1.5;" x="300.828037" xlink:href="#ma03d1badfd" y="16.407244"/>
     <use style="fill-opacity:0;stroke:#6495ed;stroke-linejoin:miter;stroke-width:1.5;" x="309.603917" xlink:href="#ma03d1badfd" y="9.697057"/>
     <use style="fill-opacity:0;stroke:#6495ed;stroke-linejoin:miter;stroke-width:1.5;" x="333.429677" xlink:href="#ma03d1badfd" y="9.697057"/>
    </g>
   </g>
   <g id="line2d_38">
    <path style="fill:none;stroke:#6495ed;stroke-linecap:square;stroke-width:1.5;"/>
    <g/>
   </g>
   <g id="line2d_39">
    <path clip-path="url(#p18bf07d617)" d="M 281.888522 93.015211 
" style="fill:none;stroke:#6495ed;stroke-linecap:square;stroke-width:1.5;"/>
    <defs>
     <path d="M -12 12 
L 12 -12 
M -12 -12 
L 12 12 
" id="ma04a07c0f0" style="stroke:#6495ed;stroke-width:3;"/>
    </defs>
    <g clip-path="url(#p18bf07d617)">
     <use style="fill:#6495ed;stroke:#6495ed;stroke-width:3;" x="281.888522" xlink:href="#ma04a07c0f0" y="93.015211"/>
    </g>
   </g>
   <g id="line2d_40">
    <path d="M 333.429677 9.697057 
L 363.933742 289.176341 
" style="fill:none;stroke:#6495ed;stroke-linecap:square;stroke-width:1.5;"/>
    <g>
     <use style="fill-opacity:0;stroke:#6495ed;stroke-linejoin:miter;stroke-width:1.5;" x="333.429677" xlink:href="#ma03d1badfd" y="9.697057"/>
     <use style="fill-opacity:0;stroke:#6495ed;stroke-linejoin:miter;stroke-width:1.5;" x="363.933742" xlink:href="#ma03d1badfd" y="289.176341"/>
    </g>
   </g>
   <g id="line2d_41">
    <path d="M 333.429677 9.697057 
L 363.933742 197.917799 
" style="fill:none;stroke:#ff00ff;stroke-linecap:square;stroke-width:1.5;"/>
    <g>
     <use style="fill-opacity:0;stroke:#ff00ff;stroke-linejoin:miter;stroke-width:1.5;" x="333.429677" xlink:href="#mfee9a3c2e4" y="9.697057"/>
     <use style="fill-opacity:0;stroke:#ff00ff;stroke-linejoin:miter;stroke-width:1.5;" x="363.933742" xlink:href="#mfee9a3c2e4" y="197.917799"/>
    </g>
   </g>
   <g id="line2d_42">
    <path d="M 333.429677 9.697057 
L 363.933742 106.659258 
" style="fill:none;stroke:#000080;stroke-linecap:square;stroke-width:1.5;"/>
    <g>
     <use style="fill-opacity:0;stroke:#000080;stroke-width:1.5;" x="333.429677" xlink:href="#m089c159e10" y="9.697057"/>
     <use style="fill-opacity:0;stroke:#000080;stroke-width:1.5;" x="363.933742" xlink:href="#m089c159e10" y="106.659258"/>
    </g>
   </g>
   <g id="line2d_43">
    <path d="M 333.429677 9.697057 
L 363.933742 15.400716 
" style="fill:none;stroke:#ffa500;stroke-linecap:square;stroke-width:1.5;"/>
    <g>
     <use style="fill-opacity:0;stroke:#ffa500;stroke-linejoin:bevel;stroke-width:1.5;" x="333.429677" xlink:href="#m0e5bc37369" y="9.697057"/>
     <use style="fill-opacity:0;stroke:#ffa500;stroke-linejoin:bevel;stroke-width:1.5;" x="363.933742" xlink:href="#m0e5bc37369" y="15.400716"/>
    </g>
   </g>
   <g id="line2d_44">
    <path d="M 333.429677 294.88 
L 333.429677 9.697057 
" style="fill:none;stroke:#000000;stroke-linecap:square;stroke-width:1.5;"/>
   </g>
   <g id="patch_3">
    <path d="M 56.12 294.88 
L 56.12 6.845228 
" style="fill:none;stroke:#000000;stroke-linecap:square;stroke-linejoin:miter;stroke-width:0.8;"/>
   </g>
   <g id="patch_4">
    <path d="M 399.984 294.88 
L 399.984 6.845228 
" style="fill:none;stroke:#000000;stroke-linecap:square;stroke-linejoin:miter;stroke-width:0.8;"/>
   </g>
   <g id="patch_5">
    <path d="M 56.12 294.88 
L 399.984 294.88 
" style="fill:none;stroke:#000000;stroke-linecap:square;stroke-linejoin:miter;stroke-width:0.8;"/>
   </g>
   <g id="patch_6">
    <path d="M 56.12 6.845228 
L 399.984 6.845228 
" style="fill:none;stroke:#000000;stroke-linecap:square;stroke-linejoin:miter;stroke-width:0.8;"/>
   </g>
   <g id="text_14">
    <!-- f7 -->
    <defs>
     <path d="M 8.203125 72.90625 
L 55.078125 72.90625 
L 55.078125 68.703125 
L 28.609375 0 
L 18.3125 0 
L 43.21875 64.59375 
L 8.203125 64.59375 
z
" id="DejaVuSans-37"/>
    </defs>
    <g transform="translate(369.479935 293.867279)scale(0.17 -0.17)">
     <use xlink:href="#DejaVuSans-66"/>
     <use x="35.205078" xlink:href="#DejaVuSans-37"/>
    </g>
   </g>
   <g id="text_15">
    <!-- f9 -->
    <defs>
     <path d="M 10.984375 1.515625 
L 10.984375 10.5 
Q 14.703125 8.734375 18.5 7.8125 
Q 22.3125 6.890625 25.984375 6.890625 
Q 35.75 6.890625 40.890625 13.453125 
Q 46.046875 20.015625 46.78125 33.40625 
Q 43.953125 29.203125 39.59375 26.953125 
Q 35.25 24.703125 29.984375 24.703125 
Q 19.046875 24.703125 12.671875 31.3125 
Q 6.296875 37.9375 6.296875 49.421875 
Q 6.296875 60.640625 12.9375 67.421875 
Q 19.578125 74.21875 30.609375 74.21875 
Q 43.265625 74.21875 49.921875 64.515625 
Q 56.59375 54.828125 56.59375 36.375 
Q 56.59375 19.140625 48.40625 8.859375 
Q 40.234375 -1.421875 26.421875 -1.421875 
Q 22.703125 -1.421875 18.890625 -0.6875 
Q 15.09375 0.046875 10.984375 1.515625 
z
M 30.609375 32.421875 
Q 37.25 32.421875 41.125 36.953125 
Q 45.015625 41.5 45.015625 49.421875 
Q 45.015625 57.28125 41.125 61.84375 
Q 37.25 66.40625 30.609375 66.40625 
Q 23.96875 66.40625 20.09375 61.84375 
Q 16.21875 57.28125 16.21875 49.421875 
Q 16.21875 41.5 20.09375 36.953125 
Q 23.96875 32.421875 30.609375 32.421875 
z
" id="DejaVuSans-39"/>
    </defs>
    <g transform="translate(369.479935 202.608737)scale(0.17 -0.17)">
     <use xlink:href="#DejaVuSans-66"/>
     <use x="35.205078" xlink:href="#DejaVuSans-39"/>
    </g>
   </g>
   <g id="text_16">
    <!-- f8 -->
    <g transform="translate(369.479935 111.350195)scale(0.17 -0.17)">
     <use xlink:href="#DejaVuSans-66"/>
     <use x="35.205078" xlink:href="#DejaVuSans-38"/>
    </g>
   </g>
   <g id="text_17">
    <!-- f6 -->
    <g transform="translate(369.479935 20.091654)scale(0.17 -0.17)">
     <use xlink:href="#DejaVuSans-66"/>
     <use x="35.205078" xlink:href="#DejaVuSans-36"/>
    </g>
   </g>
   <g id="text_18">
    <!-- bbob -->
    <defs>
     <path d="M 48.6875 27.296875 
Q 48.6875 37.203125 44.609375 42.84375 
Q 40.53125 48.484375 33.40625 48.484375 
Q 26.265625 48.484375 22.1875 42.84375 
Q 18.109375 37.203125 18.109375 27.296875 
Q 18.109375 17.390625 22.1875 11.75 
Q 26.265625 6.109375 33.40625 6.109375 
Q 40.53125 6.109375 44.609375 11.75 
Q 48.6875 17.390625 48.6875 27.296875 
z
M 18.109375 46.390625 
Q 20.953125 51.265625 25.265625 53.625 
Q 29.59375 56 35.59375 56 
Q 45.5625 56 51.78125 48.09375 
Q 58.015625 40.1875 58.015625 27.296875 
Q 58.015625 14.40625 51.78125 6.484375 
Q 45.5625 -1.421875 35.59375 -1.421875 
Q 29.59375 -1.421875 25.265625 0.953125 
Q 20.953125 3.328125 18.109375 8.203125 
L 18.109375 0 
L 9.078125 0 
L 9.078125 75.984375 
L 18.109375 75.984375 
z
" id="DejaVuSans-62"/>
    </defs>
    <g transform="translate(59.55864 17.475982)scale(0.102 -0.102)">
     <use xlink:href="#DejaVuSans-62"/>
     <use x="63.476562" xlink:href="#DejaVuSans-62"/>
     <use x="126.953125" xlink:href="#DejaVuSans-6f"/>
     <use x="188.134766" xlink:href="#DejaVuSans-62"/>
    </g>
    <!-- Misc. moderate functions, 2-D -->
    <defs>
     <path d="M 9.8125 72.90625 
L 24.515625 72.90625 
L 43.109375 23.296875 
L 61.8125 72.90625 
L 76.515625 72.90625 
L 76.515625 0 
L 66.890625 0 
L 66.890625 64.015625 
L 48.09375 14.015625 
L 38.1875 14.015625 
L 19.390625 64.015625 
L 19.390625 0 
L 9.8125 0 
z
" id="DejaVuSans-4d"/>
     <path d="M 19.671875 64.796875 
L 19.671875 8.109375 
L 31.59375 8.109375 
Q 46.6875 8.109375 53.6875 14.9375 
Q 60.6875 21.78125 60.6875 36.53125 
Q 60.6875 51.171875 53.6875 57.984375 
Q 46.6875 64.796875 31.59375 64.796875 
z
M 9.8125 72.90625 
L 30.078125 72.90625 
Q 51.265625 72.90625 61.171875 64.09375 
Q 71.09375 55.28125 71.09375 36.53125 
Q 71.09375 17.671875 61.125 8.828125 
Q 51.171875 0 30.078125 0 
L 9.8125 0 
z
" id="DejaVuSans-44"/>
    </defs>
    <g transform="translate(59.55864 28.89775)scale(0.102 -0.102)">
     <use xlink:href="#DejaVuSans-4d"/>
     <use x="86.279297" xlink:href="#DejaVuSans-69"/>
     <use x="114.0625" xlink:href="#DejaVuSans-73"/>
     <use x="166.162109" xlink:href="#DejaVuSans-63"/>
     <use x="221.142578" xlink:href="#DejaVuSans-2e"/>
     <use x="252.929688" xlink:href="#DejaVuSans-20"/>
     <use x="284.716797" xlink:href="#DejaVuSans-6d"/>
     <use x="382.128906" xlink:href="#DejaVuSans-6f"/>
     <use x="443.310547" xlink:href="#DejaVuSans-64"/>
     <use x="506.787109" xlink:href="#DejaVuSans-65"/>
     <use x="568.310547" xlink:href="#DejaVuSans-72"/>
     <use x="609.423828" xlink:href="#DejaVuSans-61"/>
     <use x="670.703125" xlink:href="#DejaVuSans-74"/>
     <use x="709.912109" xlink:href="#DejaVuSans-65"/>
     <use x="771.435547" xlink:href="#DejaVuSans-20"/>
     <use x="803.222656" xlink:href="#DejaVuSans-66"/>
     <use x="838.427734" xlink:href="#DejaVuSans-75"/>
     <use x="901.806641" xlink:href="#DejaVuSans-6e"/>
     <use x="965.185547" xlink:href="#DejaVuSans-63"/>
     <use x="1020.166016" xlink:href="#DejaVuSans-74"/>
     <use x="1059.375" xlink:href="#DejaVuSans-69"/>
     <use x="1087.158203" xlink:href="#DejaVuSans-6f"/>
     <use x="1148.339844" xlink:href="#DejaVuSans-6e"/>
     <use x="1211.71875" xlink:href="#DejaVuSans-73"/>
     <use x="1263.818359" xlink:href="#DejaVuSans-2c"/>
     <use x="1295.605469" xlink:href="#DejaVuSans-20"/>
     <use x="1327.392578" xlink:href="#DejaVuSans-32"/>
     <use x="1391.015625" xlink:href="#DejaVuSans-2d"/>
     <use x="1427.099609" xlink:href="#DejaVuSans-44"/>
    </g>
    <!-- 51 targets: 100..1e-08 -->
    <defs>
     <path d="M 10.796875 72.90625 
L 49.515625 72.90625 
L 49.515625 64.59375 
L 19.828125 64.59375 
L 19.828125 46.734375 
Q 21.96875 47.46875 24.109375 47.828125 
Q 26.265625 48.1875 28.421875 48.1875 
Q 40.625 48.1875 47.75 41.5 
Q 54.890625 34.8125 54.890625 23.390625 
Q 54.890625 11.625 47.5625 5.09375 
Q 40.234375 -1.421875 26.90625 -1.421875 
Q 22.3125 -1.421875 17.546875 -0.640625 
Q 12.796875 0.140625 7.71875 1.703125 
L 7.71875 11.625 
Q 12.109375 9.234375 16.796875 8.0625 
Q 21.484375 6.890625 26.703125 6.890625 
Q 35.15625 6.890625 40.078125 11.328125 
Q 45.015625 15.765625 45.015625 23.390625 
Q 45.015625 31 40.078125 35.4375 
Q 35.15625 39.890625 26.703125 39.890625 
Q 22.75 39.890625 18.8125 39.015625 
Q 14.890625 38.140625 10.796875 36.28125 
z
" id="DejaVuSans-35"/>
     <path d="M 11.71875 12.40625 
L 22.015625 12.40625 
L 22.015625 0 
L 11.71875 0 
z
M 11.71875 51.703125 
L 22.015625 51.703125 
L 22.015625 39.3125 
L 11.71875 39.3125 
z
" id="DejaVuSans-3a"/>
    </defs>
    <g transform="translate(59.55864 40.319519)scale(0.102 -0.102)">
     <use xlink:href="#DejaVuSans-35"/>
     <use x="63.623047" xlink:href="#DejaVuSans-31"/>
     <use x="127.246094" xlink:href="#DejaVuSans-20"/>
     <use x="159.033203" xlink:href="#DejaVuSans-74"/>
     <use x="198.242188" xlink:href="#DejaVuSans-61"/>
     <use x="259.521484" xlink:href="#DejaVuSans-72"/>
     <use x="300.619141" xlink:href="#DejaVuSans-67"/>
     <use x="364.095703" xlink:href="#DejaVuSans-65"/>
     <use x="425.619141" xlink:href="#DejaVuSans-74"/>
     <use x="464.828125" xlink:href="#DejaVuSans-73"/>
     <use x="516.927734" xlink:href="#DejaVuSans-3a"/>
     <use x="550.619141" xlink:href="#DejaVuSans-20"/>
     <use x="582.40625" xlink:href="#DejaVuSans-31"/>
     <use x="646.029297" xlink:href="#DejaVuSans-30"/>
     <use x="709.652344" xlink:href="#DejaVuSans-30"/>
     <use x="773.275391" xlink:href="#DejaVuSans-2e"/>
     <use x="805.0625" xlink:href="#DejaVuSans-2e"/>
     <use x="836.849609" xlink:href="#DejaVuSans-31"/>
     <use x="900.472656" xlink:href="#DejaVuSans-65"/>
     <use x="961.996094" xlink:href="#DejaVuSans-2d"/>
     <use x="998.080078" xlink:href="#DejaVuSans-30"/>
     <use x="1061.703125" xlink:href="#DejaVuSans-38"/>
    </g>
    <!-- 15 instances -->
    <g transform="translate(59.55864 51.741288)scale(0.102 -0.102)">
     <use xlink:href="#DejaVuSans-31"/>
     <use x="63.623047" xlink:href="#DejaVuSans-35"/>
     <use x="127.246094" xlink:href="#DejaVuSans-20"/>
     <use x="159.033203" xlink:href="#DejaVuSans-69"/>
     <use x="186.816406" xlink:href="#DejaVuSans-6e"/>
     <use x="250.195312" xlink:href="#DejaVuSans-73"/>
     <use x="302.294922" xlink:href="#DejaVuSans-74"/>
     <use x="341.503906" xlink:href="#DejaVuSans-61"/>
     <use x="402.783203" xlink:href="#DejaVuSans-6e"/>
     <use x="466.162109" xlink:href="#DejaVuSans-63"/>
     <use x="521.142578" xlink:href="#DejaVuSans-65"/>
     <use x="582.666016" xlink:href="#DejaVuSans-73"/>
    </g>
   </g>
   <g id="text_19">
    <!-- v0.0.0 -->
    <g style="fill:#808080;" transform="translate(212.37075 289.919965)scale(0.1 -0.1)">
     <use xlink:href="#DejaVuSans-76"/>
     <use x="59.179688" xlink:href="#DejaVuSans-30"/>
     <use x="122.802734" xlink:href="#DejaVuSans-2e"/>
     <use x="154.589844" xlink:href="#DejaVuSans-30"/>
     <use x="218.212891" xlink:href="#DejaVuSans-2e"/>
     <use x="250" xlink:href="#DejaVuSans-30"/>
    </g>
   </g>
  </g>
 </g>
 <defs>
  <clipPath id="p18bf07d617">
   <rect height="288.034772" width="343.864" x="56.12" y="6.845228"/>
  </clipPath>
 </defs>
</svg>
