<?xml version="1.0" encoding="utf-8" standalone="no"?>
<!DOCTYPE svg PUBLIC "-//W3C//DTD SVG 1.1//EN"
  "http://www.w3.org/Graphics/SVG/1.1/DTD/svg11.dtd">
<!-- Created with matplotlib (http://matplotlib.org/) -->
<svg height="345.6pt" version="1.1" viewBox="0 0 460.8 345.6" width="460.8pt" xmlns="http://www.w3.org/2000/svg" xmlns:xlink="http://www.w3.org/1999/xlink">
 <defs>
  <style type="text/css">
*{stroke-linecap:butt;stroke-linejoin:round;}
  </style>
 </defs>
 <g id="figure_1">
  <g id="patch_1">
   <path d="M 0 345.6 
L 460.8 345.6 
L 460.8 0 
L 0 0 
z
" style="fill:#ffffff;"/>
  </g>
  <g id="axes_1">
   <g id="patch_2">
    <path d="M 56.12 294.88 
L 399.984 294.88 
L 399.984 6.845228 
L 56.12 6.845228 
z
" style="fill:#ffffff;"/>
   </g>
   <g id="matplotlib.axis_1">
    <g id="xtick_1">
     <g id="line2d_1">
      <path clip-path="url(#pf3bec2743f)" d="M 56.12 294.88 
L 56.12 6.845228 
" style="fill:none;stroke:#b0b0b0;stroke-linecap:square;stroke-width:0.8;"/>
     </g>
     <g id="line2d_2">
      <defs>
       <path d="M 0 0 
L 0 3.5 
" id="m352e30c180" style="stroke:#000000;stroke-width:0.8;"/>
      </defs>
      <g>
       <use style="stroke:#000000;stroke-width:0.8;" x="56.12" xlink:href="#m352e30c180" y="294.88"/>
      </g>
     </g>
     <g id="text_1">
      <!-- 0 -->
      <defs>
       <path d="M 31.78125 66.40625 
Q 24.171875 66.40625 20.328125 58.90625 
Q 16.5 51.421875 16.5 36.375 
Q 16.5 21.390625 20.328125 13.890625 
Q 24.171875 6.390625 31.78125 6.390625 
Q 39.453125 6.390625 43.28125 13.890625 
Q 47.125 21.390625 47.125 36.375 
Q 47.125 51.421875 43.28125 58.90625 
Q 39.453125 66.40625 31.78125 66.40625 
z
M 31.78125 74.21875 
Q 44.046875 74.21875 50.515625 64.515625 
Q 56.984375 54.828125 56.984375 36.375 
Q 56.984375 17.96875 50.515625 8.265625 
Q 44.046875 -1.421875 31.78125 -1.421875 
Q 19.53125 -1.421875 13.0625 8.265625 
Q 6.59375 17.96875 6.59375 36.375 
Q 6.59375 54.828125 13.0625 64.515625 
Q 19.53125 74.21875 31.78125 74.21875 
z
" id="DejaVuSans-30"/>
      </defs>
      <g transform="translate(49.7575 317.076875)scale(0.2 -0.2)">
       <use xlink:href="#DejaVuSans-30"/>
      </g>
     </g>
    </g>
    <g id="xtick_2">
     <g id="line2d_3">
      <path clip-path="url(#pf3bec2743f)" d="M 135.351336 294.88 
L 135.351336 6.845228 
" style="fill:none;stroke:#b0b0b0;stroke-linecap:square;stroke-width:0.8;"/>
     </g>
     <g id="line2d_4">
      <g>
       <use style="stroke:#000000;stroke-width:0.8;" x="135.351336" xlink:href="#m352e30c180" y="294.88"/>
      </g>
     </g>
     <g id="text_2">
      <!-- 2 -->
      <defs>
       <path d="M 19.1875 8.296875 
L 53.609375 8.296875 
L 53.609375 0 
L 7.328125 0 
L 7.328125 8.296875 
Q 12.9375 14.109375 22.625 23.890625 
Q 32.328125 33.6875 34.8125 36.53125 
Q 39.546875 41.84375 41.421875 45.53125 
Q 43.3125 49.21875 43.3125 52.78125 
Q 43.3125 58.59375 39.234375 62.25 
Q 35.15625 65.921875 28.609375 65.921875 
Q 23.96875 65.921875 18.8125 64.3125 
Q 13.671875 62.703125 7.8125 59.421875 
L 7.8125 69.390625 
Q 13.765625 71.78125 18.9375 73 
Q 24.125 74.21875 28.421875 74.21875 
Q 39.75 74.21875 46.484375 68.546875 
Q 53.21875 62.890625 53.21875 53.421875 
Q 53.21875 48.921875 51.53125 44.890625 
Q 49.859375 40.875 45.40625 35.40625 
Q 44.1875 33.984375 37.640625 27.21875 
Q 31.109375 20.453125 19.1875 8.296875 
z
" id="DejaVuSans-32"/>
      </defs>
      <g transform="translate(128.988836 317.076875)scale(0.2 -0.2)">
       <use xlink:href="#DejaVuSans-32"/>
      </g>
     </g>
    </g>
    <g id="xtick_3">
     <g id="line2d_5">
      <path clip-path="url(#pf3bec2743f)" d="M 214.582673 294.88 
L 214.582673 6.845228 
" style="fill:none;stroke:#b0b0b0;stroke-linecap:square;stroke-width:0.8;"/>
     </g>
     <g id="line2d_6">
      <g>
       <use style="stroke:#000000;stroke-width:0.8;" x="214.582673" xlink:href="#m352e30c180" y="294.88"/>
      </g>
     </g>
     <g id="text_3">
      <!-- 4 -->
      <defs>
       <path d="M 37.796875 64.3125 
L 12.890625 25.390625 
L 37.796875 25.390625 
z
M 35.203125 72.90625 
L 47.609375 72.90625 
L 47.609375 25.390625 
L 58.015625 25.390625 
L 58.015625 17.1875 
L 47.609375 17.1875 
L 47.609375 0 
L 37.796875 0 
L 37.796875 17.1875 
L 4.890625 17.1875 
L 4.890625 26.703125 
z
" id="DejaVuSans-34"/>
      </defs>
      <g transform="translate(208.220173 317.076875)scale(0.2 -0.2)">
       <use xlink:href="#DejaVuSans-34"/>
      </g>
     </g>
    </g>
    <g id="xtick_4">
     <g id="line2d_7">
      <path clip-path="url(#pf3bec2743f)" d="M 293.814009 294.88 
L 293.814009 6.845228 
" style="fill:none;stroke:#b0b0b0;stroke-linecap:square;stroke-width:0.8;"/>
     </g>
     <g id="line2d_8">
      <g>
       <use style="stroke:#000000;stroke-width:0.8;" x="293.814009" xlink:href="#m352e30c180" y="294.88"/>
      </g>
     </g>
     <g id="text_4">
      <!-- 6 -->
      <defs>
       <path d="M 33.015625 40.375 
Q 26.375 40.375 22.484375 35.828125 
Q 18.609375 31.296875 18.609375 23.390625 
Q 18.609375 15.53125 22.484375 10.953125 
Q 26.375 6.390625 33.015625 6.390625 
Q 39.65625 6.390625 43.53125 10.953125 
Q 47.40625 15.53125 47.40625 23.390625 
Q 47.40625 31.296875 43.53125 35.828125 
Q 39.65625 40.375 33.015625 40.375 
z
M 52.59375 71.296875 
L 52.59375 62.3125 
Q 48.875 64.0625 45.09375 64.984375 
Q 41.3125 65.921875 37.59375 65.921875 
Q 27.828125 65.921875 22.671875 59.328125 
Q 17.53125 52.734375 16.796875 39.40625 
Q 19.671875 43.65625 24.015625 45.921875 
Q 28.375 48.1875 33.59375 48.1875 
Q 44.578125 48.1875 50.953125 41.515625 
Q 57.328125 34.859375 57.328125 23.390625 
Q 57.328125 12.15625 50.6875 5.359375 
Q 44.046875 -1.421875 33.015625 -1.421875 
Q 20.359375 -1.421875 13.671875 8.265625 
Q 6.984375 17.96875 6.984375 36.375 
Q 6.984375 53.65625 15.1875 63.9375 
Q 23.390625 74.21875 37.203125 74.21875 
Q 40.921875 74.21875 44.703125 73.484375 
Q 48.484375 72.75 52.59375 71.296875 
z
" id="DejaVuSans-36"/>
      </defs>
      <g transform="translate(287.451509 317.076875)scale(0.2 -0.2)">
       <use xlink:href="#DejaVuSans-36"/>
      </g>
     </g>
    </g>
    <g id="xtick_5">
     <g id="line2d_9">
      <path clip-path="url(#pf3bec2743f)" d="M 373.045346 294.88 
L 373.045346 6.845228 
" style="fill:none;stroke:#b0b0b0;stroke-linecap:square;stroke-width:0.8;"/>
     </g>
     <g id="line2d_10">
      <g>
       <use style="stroke:#000000;stroke-width:0.8;" x="373.045346" xlink:href="#m352e30c180" y="294.88"/>
      </g>
     </g>
     <g id="text_5">
      <!-- 8 -->
      <defs>
       <path d="M 31.78125 34.625 
Q 24.75 34.625 20.71875 30.859375 
Q 16.703125 27.09375 16.703125 20.515625 
Q 16.703125 13.921875 20.71875 10.15625 
Q 24.75 6.390625 31.78125 6.390625 
Q 38.8125 6.390625 42.859375 10.171875 
Q 46.921875 13.96875 46.921875 20.515625 
Q 46.921875 27.09375 42.890625 30.859375 
Q 38.875 34.625 31.78125 34.625 
z
M 21.921875 38.8125 
Q 15.578125 40.375 12.03125 44.71875 
Q 8.5 49.078125 8.5 55.328125 
Q 8.5 64.0625 14.71875 69.140625 
Q 20.953125 74.21875 31.78125 74.21875 
Q 42.671875 74.21875 48.875 69.140625 
Q 55.078125 64.0625 55.078125 55.328125 
Q 55.078125 49.078125 51.53125 44.71875 
Q 48 40.375 41.703125 38.8125 
Q 48.828125 37.15625 52.796875 32.3125 
Q 56.78125 27.484375 56.78125 20.515625 
Q 56.78125 9.90625 50.3125 4.234375 
Q 43.84375 -1.421875 31.78125 -1.421875 
Q 19.734375 -1.421875 13.25 4.234375 
Q 6.78125 9.90625 6.78125 20.515625 
Q 6.78125 27.484375 10.78125 32.3125 
Q 14.796875 37.15625 21.921875 38.8125 
z
M 18.3125 54.390625 
Q 18.3125 48.734375 21.84375 45.5625 
Q 25.390625 42.390625 31.78125 42.390625 
Q 38.140625 42.390625 41.71875 45.5625 
Q 45.3125 48.734375 45.3125 54.390625 
Q 45.3125 60.0625 41.71875 63.234375 
Q 38.140625 66.40625 31.78125 66.40625 
Q 25.390625 66.40625 21.84375 63.234375 
Q 18.3125 60.0625 18.3125 54.390625 
z
" id="DejaVuSans-38"/>
      </defs>
      <g transform="translate(366.682846 317.076875)scale(0.2 -0.2)">
       <use xlink:href="#DejaVuSans-38"/>
      </g>
     </g>
    </g>
    <g id="text_6">
     <!-- log10(# f-evals / dimension) -->
     <defs>
      <path d="M 9.421875 75.984375 
L 18.40625 75.984375 
L 18.40625 0 
L 9.421875 0 
z
" id="DejaVuSans-6c"/>
      <path d="M 30.609375 48.390625 
Q 23.390625 48.390625 19.1875 42.75 
Q 14.984375 37.109375 14.984375 27.296875 
Q 14.984375 17.484375 19.15625 11.84375 
Q 23.34375 6.203125 30.609375 6.203125 
Q 37.796875 6.203125 41.984375 11.859375 
Q 46.1875 17.53125 46.1875 27.296875 
Q 46.1875 37.015625 41.984375 42.703125 
Q 37.796875 48.390625 30.609375 48.390625 
z
M 30.609375 56 
Q 42.328125 56 49.015625 48.375 
Q 55.71875 40.765625 55.71875 27.296875 
Q 55.71875 13.875 49.015625 6.21875 
Q 42.328125 -1.421875 30.609375 -1.421875 
Q 18.84375 -1.421875 12.171875 6.21875 
Q 5.515625 13.875 5.515625 27.296875 
Q 5.515625 40.765625 12.171875 48.375 
Q 18.84375 56 30.609375 56 
z
" id="DejaVuSans-6f"/>
      <path d="M 45.40625 27.984375 
Q 45.40625 37.75 41.375 43.109375 
Q 37.359375 48.484375 30.078125 48.484375 
Q 22.859375 48.484375 18.828125 43.109375 
Q 14.796875 37.75 14.796875 27.984375 
Q 14.796875 18.265625 18.828125 12.890625 
Q 22.859375 7.515625 30.078125 7.515625 
Q 37.359375 7.515625 41.375 12.890625 
Q 45.40625 18.265625 45.40625 27.984375 
z
M 54.390625 6.78125 
Q 54.390625 -7.171875 48.1875 -13.984375 
Q 42 -20.796875 29.203125 -20.796875 
Q 24.46875 -20.796875 20.265625 -20.09375 
Q 16.0625 -19.390625 12.109375 -17.921875 
L 12.109375 -9.1875 
Q 16.0625 -11.328125 19.921875 -12.34375 
Q 23.78125 -13.375 27.78125 -13.375 
Q 36.625 -13.375 41.015625 -8.765625 
Q 45.40625 -4.15625 45.40625 5.171875 
L 45.40625 9.625 
Q 42.625 4.78125 38.28125 2.390625 
Q 33.9375 0 27.875 0 
Q 17.828125 0 11.671875 7.65625 
Q 5.515625 15.328125 5.515625 27.984375 
Q 5.515625 40.671875 11.671875 48.328125 
Q 17.828125 56 27.875 56 
Q 33.9375 56 38.28125 53.609375 
Q 42.625 51.21875 45.40625 46.390625 
L 45.40625 54.6875 
L 54.390625 54.6875 
z
" id="DejaVuSans-67"/>
      <path d="M 12.40625 8.296875 
L 28.515625 8.296875 
L 28.515625 63.921875 
L 10.984375 60.40625 
L 10.984375 69.390625 
L 28.421875 72.90625 
L 38.28125 72.90625 
L 38.28125 8.296875 
L 54.390625 8.296875 
L 54.390625 0 
L 12.40625 0 
z
" id="DejaVuSans-31"/>
      <path d="M 31 75.875 
Q 24.46875 64.65625 21.28125 53.65625 
Q 18.109375 42.671875 18.109375 31.390625 
Q 18.109375 20.125 21.3125 9.0625 
Q 24.515625 -2 31 -13.1875 
L 23.1875 -13.1875 
Q 15.875 -1.703125 12.234375 9.375 
Q 8.59375 20.453125 8.59375 31.390625 
Q 8.59375 42.28125 12.203125 53.3125 
Q 15.828125 64.359375 23.1875 75.875 
z
" id="DejaVuSans-28"/>
      <path d="M 51.125 44 
L 36.921875 44 
L 32.8125 27.6875 
L 47.125 27.6875 
z
M 43.796875 71.78125 
L 38.71875 51.515625 
L 52.984375 51.515625 
L 58.109375 71.78125 
L 65.921875 71.78125 
L 60.890625 51.515625 
L 76.125 51.515625 
L 76.125 44 
L 58.984375 44 
L 54.984375 27.6875 
L 70.515625 27.6875 
L 70.515625 20.21875 
L 53.078125 20.21875 
L 48 0 
L 40.1875 0 
L 45.21875 20.21875 
L 30.90625 20.21875 
L 25.875 0 
L 18.015625 0 
L 23.09375 20.21875 
L 7.71875 20.21875 
L 7.71875 27.6875 
L 24.90625 27.6875 
L 29 44 
L 13.28125 44 
L 13.28125 51.515625 
L 30.90625 51.515625 
L 35.890625 71.78125 
z
" id="DejaVuSans-23"/>
      <path id="DejaVuSans-20"/>
      <path d="M 37.109375 75.984375 
L 37.109375 68.5 
L 28.515625 68.5 
Q 23.6875 68.5 21.796875 66.546875 
Q 19.921875 64.59375 19.921875 59.515625 
L 19.921875 54.6875 
L 34.71875 54.6875 
L 34.71875 47.703125 
L 19.921875 47.703125 
L 19.921875 0 
L 10.890625 0 
L 10.890625 47.703125 
L 2.296875 47.703125 
L 2.296875 54.6875 
L 10.890625 54.6875 
L 10.890625 58.5 
Q 10.890625 67.625 15.140625 71.796875 
Q 19.390625 75.984375 28.609375 75.984375 
z
" id="DejaVuSans-66"/>
      <path d="M 4.890625 31.390625 
L 31.203125 31.390625 
L 31.203125 23.390625 
L 4.890625 23.390625 
z
" id="DejaVuSans-2d"/>
      <path d="M 56.203125 29.59375 
L 56.203125 25.203125 
L 14.890625 25.203125 
Q 15.484375 15.921875 20.484375 11.0625 
Q 25.484375 6.203125 34.421875 6.203125 
Q 39.59375 6.203125 44.453125 7.46875 
Q 49.3125 8.734375 54.109375 11.28125 
L 54.109375 2.78125 
Q 49.265625 0.734375 44.1875 -0.34375 
Q 39.109375 -1.421875 33.890625 -1.421875 
Q 20.796875 -1.421875 13.15625 6.1875 
Q 5.515625 13.8125 5.515625 26.8125 
Q 5.515625 40.234375 12.765625 48.109375 
Q 20.015625 56 32.328125 56 
Q 43.359375 56 49.78125 48.890625 
Q 56.203125 41.796875 56.203125 29.59375 
z
M 47.21875 32.234375 
Q 47.125 39.59375 43.09375 43.984375 
Q 39.0625 48.390625 32.421875 48.390625 
Q 24.90625 48.390625 20.390625 44.140625 
Q 15.875 39.890625 15.1875 32.171875 
z
" id="DejaVuSans-65"/>
      <path d="M 2.984375 54.6875 
L 12.5 54.6875 
L 29.59375 8.796875 
L 46.6875 54.6875 
L 56.203125 54.6875 
L 35.6875 0 
L 23.484375 0 
z
" id="DejaVuSans-76"/>
      <path d="M 34.28125 27.484375 
Q 23.390625 27.484375 19.1875 25 
Q 14.984375 22.515625 14.984375 16.5 
Q 14.984375 11.71875 18.140625 8.90625 
Q 21.296875 6.109375 26.703125 6.109375 
Q 34.1875 6.109375 38.703125 11.40625 
Q 43.21875 16.703125 43.21875 25.484375 
L 43.21875 27.484375 
z
M 52.203125 31.203125 
L 52.203125 0 
L 43.21875 0 
L 43.21875 8.296875 
Q 40.140625 3.328125 35.546875 0.953125 
Q 30.953125 -1.421875 24.3125 -1.421875 
Q 15.921875 -1.421875 10.953125 3.296875 
Q 6 8.015625 6 15.921875 
Q 6 25.140625 12.171875 29.828125 
Q 18.359375 34.515625 30.609375 34.515625 
L 43.21875 34.515625 
L 43.21875 35.40625 
Q 43.21875 41.609375 39.140625 45 
Q 35.0625 48.390625 27.6875 48.390625 
Q 23 48.390625 18.546875 47.265625 
Q 14.109375 46.140625 10.015625 43.890625 
L 10.015625 52.203125 
Q 14.9375 54.109375 19.578125 55.046875 
Q 24.21875 56 28.609375 56 
Q 40.484375 56 46.34375 49.84375 
Q 52.203125 43.703125 52.203125 31.203125 
z
" id="DejaVuSans-61"/>
      <path d="M 44.28125 53.078125 
L 44.28125 44.578125 
Q 40.484375 46.53125 36.375 47.5 
Q 32.28125 48.484375 27.875 48.484375 
Q 21.1875 48.484375 17.84375 46.4375 
Q 14.5 44.390625 14.5 40.28125 
Q 14.5 37.15625 16.890625 35.375 
Q 19.28125 33.59375 26.515625 31.984375 
L 29.59375 31.296875 
Q 39.15625 29.25 43.1875 25.515625 
Q 47.21875 21.78125 47.21875 15.09375 
Q 47.21875 7.46875 41.1875 3.015625 
Q 35.15625 -1.421875 24.609375 -1.421875 
Q 20.21875 -1.421875 15.453125 -0.5625 
Q 10.6875 0.296875 5.421875 2 
L 5.421875 11.28125 
Q 10.40625 8.6875 15.234375 7.390625 
Q 20.0625 6.109375 24.8125 6.109375 
Q 31.15625 6.109375 34.5625 8.28125 
Q 37.984375 10.453125 37.984375 14.40625 
Q 37.984375 18.0625 35.515625 20.015625 
Q 33.0625 21.96875 24.703125 23.78125 
L 21.578125 24.515625 
Q 13.234375 26.265625 9.515625 29.90625 
Q 5.8125 33.546875 5.8125 39.890625 
Q 5.8125 47.609375 11.28125 51.796875 
Q 16.75 56 26.8125 56 
Q 31.78125 56 36.171875 55.265625 
Q 40.578125 54.546875 44.28125 53.078125 
z
" id="DejaVuSans-73"/>
      <path d="M 25.390625 72.90625 
L 33.6875 72.90625 
L 8.296875 -9.28125 
L 0 -9.28125 
z
" id="DejaVuSans-2f"/>
      <path d="M 45.40625 46.390625 
L 45.40625 75.984375 
L 54.390625 75.984375 
L 54.390625 0 
L 45.40625 0 
L 45.40625 8.203125 
Q 42.578125 3.328125 38.25 0.953125 
Q 33.9375 -1.421875 27.875 -1.421875 
Q 17.96875 -1.421875 11.734375 6.484375 
Q 5.515625 14.40625 5.515625 27.296875 
Q 5.515625 40.1875 11.734375 48.09375 
Q 17.96875 56 27.875 56 
Q 33.9375 56 38.25 53.625 
Q 42.578125 51.265625 45.40625 46.390625 
z
M 14.796875 27.296875 
Q 14.796875 17.390625 18.875 11.75 
Q 22.953125 6.109375 30.078125 6.109375 
Q 37.203125 6.109375 41.296875 11.75 
Q 45.40625 17.390625 45.40625 27.296875 
Q 45.40625 37.203125 41.296875 42.84375 
Q 37.203125 48.484375 30.078125 48.484375 
Q 22.953125 48.484375 18.875 42.84375 
Q 14.796875 37.203125 14.796875 27.296875 
z
" id="DejaVuSans-64"/>
      <path d="M 9.421875 54.6875 
L 18.40625 54.6875 
L 18.40625 0 
L 9.421875 0 
z
M 9.421875 75.984375 
L 18.40625 75.984375 
L 18.40625 64.59375 
L 9.421875 64.59375 
z
" id="DejaVuSans-69"/>
      <path d="M 52 44.1875 
Q 55.375 50.25 60.0625 53.125 
Q 64.75 56 71.09375 56 
Q 79.640625 56 84.28125 50.015625 
Q 88.921875 44.046875 88.921875 33.015625 
L 88.921875 0 
L 79.890625 0 
L 79.890625 32.71875 
Q 79.890625 40.578125 77.09375 44.375 
Q 74.3125 48.1875 68.609375 48.1875 
Q 61.625 48.1875 57.5625 43.546875 
Q 53.515625 38.921875 53.515625 30.90625 
L 53.515625 0 
L 44.484375 0 
L 44.484375 32.71875 
Q 44.484375 40.625 41.703125 44.40625 
Q 38.921875 48.1875 33.109375 48.1875 
Q 26.21875 48.1875 22.15625 43.53125 
Q 18.109375 38.875 18.109375 30.90625 
L 18.109375 0 
L 9.078125 0 
L 9.078125 54.6875 
L 18.109375 54.6875 
L 18.109375 46.1875 
Q 21.1875 51.21875 25.484375 53.609375 
Q 29.78125 56 35.6875 56 
Q 41.65625 56 45.828125 52.96875 
Q 50 49.953125 52 44.1875 
z
" id="DejaVuSans-6d"/>
      <path d="M 54.890625 33.015625 
L 54.890625 0 
L 45.90625 0 
L 45.90625 32.71875 
Q 45.90625 40.484375 42.875 44.328125 
Q 39.84375 48.1875 33.796875 48.1875 
Q 26.515625 48.1875 22.3125 43.546875 
Q 18.109375 38.921875 18.109375 30.90625 
L 18.109375 0 
L 9.078125 0 
L 9.078125 54.6875 
L 18.109375 54.6875 
L 18.109375 46.1875 
Q 21.34375 51.125 25.703125 53.5625 
Q 30.078125 56 35.796875 56 
Q 45.21875 56 50.046875 50.171875 
Q 54.890625 44.34375 54.890625 33.015625 
z
" id="DejaVuSans-6e"/>
      <path d="M 8.015625 75.875 
L 15.828125 75.875 
Q 23.140625 64.359375 26.78125 53.3125 
Q 30.421875 42.28125 30.421875 31.390625 
Q 30.421875 20.453125 26.78125 9.375 
Q 23.140625 -1.703125 15.828125 -13.1875 
L 8.015625 -13.1875 
Q 14.5 -2 17.703125 9.0625 
Q 20.90625 20.125 20.90625 31.390625 
Q 20.90625 42.671875 17.703125 53.65625 
Q 14.5 64.65625 8.015625 75.875 
z
" id="DejaVuSans-29"/>
     </defs>
     <g transform="translate(107.211219 338.153594)scale(0.17 -0.17)">
      <use xlink:href="#DejaVuSans-6c"/>
      <use x="27.783203" xlink:href="#DejaVuSans-6f"/>
      <use x="88.964844" xlink:href="#DejaVuSans-67"/>
      <use x="152.441406" xlink:href="#DejaVuSans-31"/>
      <use x="216.064453" xlink:href="#DejaVuSans-30"/>
      <use x="279.6875" xlink:href="#DejaVuSans-28"/>
      <use x="318.701172" xlink:href="#DejaVuSans-23"/>
      <use x="402.490234" xlink:href="#DejaVuSans-20"/>
      <use x="434.277344" xlink:href="#DejaVuSans-66"/>
      <use x="469.404297" xlink:href="#DejaVuSans-2d"/>
      <use x="505.488281" xlink:href="#DejaVuSans-65"/>
      <use x="567.011719" xlink:href="#DejaVuSans-76"/>
      <use x="626.191406" xlink:href="#DejaVuSans-61"/>
      <use x="687.470703" xlink:href="#DejaVuSans-6c"/>
      <use x="715.253906" xlink:href="#DejaVuSans-73"/>
      <use x="767.353516" xlink:href="#DejaVuSans-20"/>
      <use x="799.140625" xlink:href="#DejaVuSans-2f"/>
      <use x="832.832031" xlink:href="#DejaVuSans-20"/>
      <use x="864.619141" xlink:href="#DejaVuSans-64"/>
      <use x="928.095703" xlink:href="#DejaVuSans-69"/>
      <use x="955.878906" xlink:href="#DejaVuSans-6d"/>
      <use x="1053.291016" xlink:href="#DejaVuSans-65"/>
      <use x="1114.814453" xlink:href="#DejaVuSans-6e"/>
      <use x="1178.193359" xlink:href="#DejaVuSans-73"/>
      <use x="1230.292969" xlink:href="#DejaVuSans-69"/>
      <use x="1258.076172" xlink:href="#DejaVuSans-6f"/>
      <use x="1319.257812" xlink:href="#DejaVuSans-6e"/>
      <use x="1382.636719" xlink:href="#DejaVuSans-29"/>
     </g>
    </g>
   </g>
   <g id="matplotlib.axis_2">
    <g id="ytick_1">
     <g id="line2d_11">
      <path clip-path="url(#pf3bec2743f)" d="M 56.12 294.88 
L 399.984 294.88 
" style="fill:none;stroke:#b0b0b0;stroke-linecap:square;stroke-width:0.8;"/>
     </g>
     <g id="line2d_12">
      <defs>
       <path d="M 0 0 
L -3.5 0 
" id="m0fe35abd75" style="stroke:#000000;stroke-width:0.8;"/>
      </defs>
      <g>
       <use style="stroke:#000000;stroke-width:0.8;" x="56.12" xlink:href="#m0fe35abd75" y="294.88"/>
      </g>
     </g>
     <g id="text_7">
      <!-- 0.0 -->
      <defs>
       <path d="M 10.6875 12.40625 
L 21 12.40625 
L 21 0 
L 10.6875 0 
z
" id="DejaVuSans-2e"/>
      </defs>
      <g transform="translate(23.675 300.95875)scale(0.16 -0.16)">
       <use xlink:href="#DejaVuSans-30"/>
       <use x="63.623047" xlink:href="#DejaVuSans-2e"/>
       <use x="95.410156" xlink:href="#DejaVuSans-30"/>
      </g>
     </g>
    </g>
    <g id="ytick_2">
     <g id="line2d_13">
      <path clip-path="url(#pf3bec2743f)" d="M 56.12 237.843411 
L 399.984 237.843411 
" style="fill:none;stroke:#b0b0b0;stroke-linecap:square;stroke-width:0.8;"/>
     </g>
     <g id="line2d_14">
      <g>
       <use style="stroke:#000000;stroke-width:0.8;" x="56.12" xlink:href="#m0fe35abd75" y="237.843411"/>
      </g>
     </g>
     <g id="text_8">
      <!-- 0.2 -->
      <g transform="translate(23.675 243.922161)scale(0.16 -0.16)">
       <use xlink:href="#DejaVuSans-30"/>
       <use x="63.623047" xlink:href="#DejaVuSans-2e"/>
       <use x="95.410156" xlink:href="#DejaVuSans-32"/>
      </g>
     </g>
    </g>
    <g id="ytick_3">
     <g id="line2d_15">
      <path clip-path="url(#pf3bec2743f)" d="M 56.12 180.806823 
L 399.984 180.806823 
" style="fill:none;stroke:#b0b0b0;stroke-linecap:square;stroke-width:0.8;"/>
     </g>
     <g id="line2d_16">
      <g>
       <use style="stroke:#000000;stroke-width:0.8;" x="56.12" xlink:href="#m0fe35abd75" y="180.806823"/>
      </g>
     </g>
     <g id="text_9">
      <!-- 0.4 -->
      <g transform="translate(23.675 186.885573)scale(0.16 -0.16)">
       <use xlink:href="#DejaVuSans-30"/>
       <use x="63.623047" xlink:href="#DejaVuSans-2e"/>
       <use x="95.410156" xlink:href="#DejaVuSans-34"/>
      </g>
     </g>
    </g>
    <g id="ytick_4">
     <g id="line2d_17">
      <path clip-path="url(#pf3bec2743f)" d="M 56.12 123.770234 
L 399.984 123.770234 
" style="fill:none;stroke:#b0b0b0;stroke-linecap:square;stroke-width:0.8;"/>
     </g>
     <g id="line2d_18">
      <g>
       <use style="stroke:#000000;stroke-width:0.8;" x="56.12" xlink:href="#m0fe35abd75" y="123.770234"/>
      </g>
     </g>
     <g id="text_10">
      <!-- 0.6 -->
      <g transform="translate(23.675 129.848984)scale(0.16 -0.16)">
       <use xlink:href="#DejaVuSans-30"/>
       <use x="63.623047" xlink:href="#DejaVuSans-2e"/>
       <use x="95.410156" xlink:href="#DejaVuSans-36"/>
      </g>
     </g>
    </g>
    <g id="ytick_5">
     <g id="line2d_19">
      <path clip-path="url(#pf3bec2743f)" d="M 56.12 66.733646 
L 399.984 66.733646 
" style="fill:none;stroke:#b0b0b0;stroke-linecap:square;stroke-width:0.8;"/>
     </g>
     <g id="line2d_20">
      <g>
       <use style="stroke:#000000;stroke-width:0.8;" x="56.12" xlink:href="#m0fe35abd75" y="66.733646"/>
      </g>
     </g>
     <g id="text_11">
      <!-- 0.8 -->
      <g transform="translate(23.675 72.812396)scale(0.16 -0.16)">
       <use xlink:href="#DejaVuSans-30"/>
       <use x="63.623047" xlink:href="#DejaVuSans-2e"/>
       <use x="95.410156" xlink:href="#DejaVuSans-38"/>
      </g>
     </g>
    </g>
    <g id="ytick_6">
     <g id="line2d_21">
      <path clip-path="url(#pf3bec2743f)" d="M 56.12 9.697057 
L 399.984 9.697057 
" style="fill:none;stroke:#b0b0b0;stroke-linecap:square;stroke-width:0.8;"/>
     </g>
     <g id="line2d_22">
      <g>
       <use style="stroke:#000000;stroke-width:0.8;" x="56.12" xlink:href="#m0fe35abd75" y="9.697057"/>
      </g>
     </g>
     <g id="text_12">
      <!-- 1.0 -->
      <g transform="translate(23.675 15.775807)scale(0.16 -0.16)">
       <use xlink:href="#DejaVuSans-31"/>
       <use x="63.623047" xlink:href="#DejaVuSans-2e"/>
       <use x="95.410156" xlink:href="#DejaVuSans-30"/>
      </g>
     </g>
    </g>
    <g id="text_13">
     <!-- Fraction of function,target pairs -->
     <defs>
      <path d="M 9.8125 72.90625 
L 51.703125 72.90625 
L 51.703125 64.59375 
L 19.671875 64.59375 
L 19.671875 43.109375 
L 48.578125 43.109375 
L 48.578125 34.8125 
L 19.671875 34.8125 
L 19.671875 0 
L 9.8125 0 
z
" id="DejaVuSans-46"/>
      <path d="M 41.109375 46.296875 
Q 39.59375 47.171875 37.8125 47.578125 
Q 36.03125 48 33.890625 48 
Q 26.265625 48 22.1875 43.046875 
Q 18.109375 38.09375 18.109375 28.8125 
L 18.109375 0 
L 9.078125 0 
L 9.078125 54.6875 
L 18.109375 54.6875 
L 18.109375 46.1875 
Q 20.953125 51.171875 25.484375 53.578125 
Q 30.03125 56 36.53125 56 
Q 37.453125 56 38.578125 55.875 
Q 39.703125 55.765625 41.0625 55.515625 
z
" id="DejaVuSans-72"/>
      <path d="M 48.78125 52.59375 
L 48.78125 44.1875 
Q 44.96875 46.296875 41.140625 47.34375 
Q 37.3125 48.390625 33.40625 48.390625 
Q 24.65625 48.390625 19.8125 42.84375 
Q 14.984375 37.3125 14.984375 27.296875 
Q 14.984375 17.28125 19.8125 11.734375 
Q 24.65625 6.203125 33.40625 6.203125 
Q 37.3125 6.203125 41.140625 7.25 
Q 44.96875 8.296875 48.78125 10.40625 
L 48.78125 2.09375 
Q 45.015625 0.34375 40.984375 -0.53125 
Q 36.96875 -1.421875 32.421875 -1.421875 
Q 20.0625 -1.421875 12.78125 6.34375 
Q 5.515625 14.109375 5.515625 27.296875 
Q 5.515625 40.671875 12.859375 48.328125 
Q 20.21875 56 33.015625 56 
Q 37.15625 56 41.109375 55.140625 
Q 45.0625 54.296875 48.78125 52.59375 
z
" id="DejaVuSans-63"/>
      <path d="M 18.3125 70.21875 
L 18.3125 54.6875 
L 36.8125 54.6875 
L 36.8125 47.703125 
L 18.3125 47.703125 
L 18.3125 18.015625 
Q 18.3125 11.328125 20.140625 9.421875 
Q 21.96875 7.515625 27.59375 7.515625 
L 36.8125 7.515625 
L 36.8125 0 
L 27.59375 0 
Q 17.1875 0 13.234375 3.875 
Q 9.28125 7.765625 9.28125 18.015625 
L 9.28125 47.703125 
L 2.6875 47.703125 
L 2.6875 54.6875 
L 9.28125 54.6875 
L 9.28125 70.21875 
z
" id="DejaVuSans-74"/>
      <path d="M 8.5 21.578125 
L 8.5 54.6875 
L 17.484375 54.6875 
L 17.484375 21.921875 
Q 17.484375 14.15625 20.5 10.265625 
Q 23.53125 6.390625 29.59375 6.390625 
Q 36.859375 6.390625 41.078125 11.03125 
Q 45.3125 15.671875 45.3125 23.6875 
L 45.3125 54.6875 
L 54.296875 54.6875 
L 54.296875 0 
L 45.3125 0 
L 45.3125 8.40625 
Q 42.046875 3.421875 37.71875 1 
Q 33.40625 -1.421875 27.6875 -1.421875 
Q 18.265625 -1.421875 13.375 4.4375 
Q 8.5 10.296875 8.5 21.578125 
z
M 31.109375 56 
z
" id="DejaVuSans-75"/>
      <path d="M 11.71875 12.40625 
L 22.015625 12.40625 
L 22.015625 4 
L 14.015625 -11.625 
L 7.71875 -11.625 
L 11.71875 4 
z
" id="DejaVuSans-2c"/>
      <path d="M 18.109375 8.203125 
L 18.109375 -20.796875 
L 9.078125 -20.796875 
L 9.078125 54.6875 
L 18.109375 54.6875 
L 18.109375 46.390625 
Q 20.953125 51.265625 25.265625 53.625 
Q 29.59375 56 35.59375 56 
Q 45.5625 56 51.78125 48.09375 
Q 58.015625 40.1875 58.015625 27.296875 
Q 58.015625 14.40625 51.78125 6.484375 
Q 45.5625 -1.421875 35.59375 -1.421875 
Q 29.59375 -1.421875 25.265625 0.953125 
Q 20.953125 3.328125 18.109375 8.203125 
z
M 48.6875 27.296875 
Q 48.6875 37.203125 44.609375 42.84375 
Q 40.53125 48.484375 33.40625 48.484375 
Q 26.265625 48.484375 22.1875 42.84375 
Q 18.109375 37.203125 18.109375 27.296875 
Q 18.109375 17.390625 22.1875 11.75 
Q 26.265625 6.109375 33.40625 6.109375 
Q 40.53125 6.109375 44.609375 11.75 
Q 48.6875 17.390625 48.6875 27.296875 
z
" id="DejaVuSans-70"/>
     </defs>
     <g transform="translate(16.139531 286.001989)rotate(-90)scale(0.17 -0.17)">
      <use xlink:href="#DejaVuSans-46"/>
      <use x="57.410156" xlink:href="#DejaVuSans-72"/>
      <use x="98.523438" xlink:href="#DejaVuSans-61"/>
      <use x="159.802734" xlink:href="#DejaVuSans-63"/>
      <use x="214.783203" xlink:href="#DejaVuSans-74"/>
      <use x="253.992188" xlink:href="#DejaVuSans-69"/>
      <use x="281.775391" xlink:href="#DejaVuSans-6f"/>
      <use x="342.957031" xlink:href="#DejaVuSans-6e"/>
      <use x="406.335938" xlink:href="#DejaVuSans-20"/>
      <use x="438.123047" xlink:href="#DejaVuSans-6f"/>
      <use x="499.304688" xlink:href="#DejaVuSans-66"/>
      <use x="534.509766" xlink:href="#DejaVuSans-20"/>
      <use x="566.296875" xlink:href="#DejaVuSans-66"/>
      <use x="601.501953" xlink:href="#DejaVuSans-75"/>
      <use x="664.880859" xlink:href="#DejaVuSans-6e"/>
      <use x="728.259766" xlink:href="#DejaVuSans-63"/>
      <use x="783.240234" xlink:href="#DejaVuSans-74"/>
      <use x="822.449219" xlink:href="#DejaVuSans-69"/>
      <use x="850.232422" xlink:href="#DejaVuSans-6f"/>
      <use x="911.414062" xlink:href="#DejaVuSans-6e"/>
      <use x="974.792969" xlink:href="#DejaVuSans-2c"/>
      <use x="1006.580078" xlink:href="#DejaVuSans-74"/>
      <use x="1045.789062" xlink:href="#DejaVuSans-61"/>
      <use x="1107.068359" xlink:href="#DejaVuSans-72"/>
      <use x="1148.166016" xlink:href="#DejaVuSans-67"/>
      <use x="1211.642578" xlink:href="#DejaVuSans-65"/>
      <use x="1273.166016" xlink:href="#DejaVuSans-74"/>
      <use x="1312.375" xlink:href="#DejaVuSans-20"/>
      <use x="1344.162109" xlink:href="#DejaVuSans-70"/>
      <use x="1407.638672" xlink:href="#DejaVuSans-61"/>
      <use x="1468.917969" xlink:href="#DejaVuSans-69"/>
      <use x="1496.701172" xlink:href="#DejaVuSans-72"/>
      <use x="1537.814453" xlink:href="#DejaVuSans-73"/>
     </g>
    </g>
   </g>
   <g id="line2d_23">
    <defs>
     <path d="M 0 1.5 
C 0.397805 1.5 0.77937 1.341951 1.06066 1.06066 
C 1.341951 0.77937 1.5 0.397805 1.5 0 
C 1.5 -0.397805 1.341951 -0.77937 1.06066 -1.06066 
C 0.77937 -1.341951 0.397805 -1.5 0 -1.5 
C -0.397805 -1.5 -0.77937 -1.341951 -1.06066 -1.06066 
C -1.341951 -0.77937 -1.5 -0.397805 -1.5 0 
C -1.5 0.397805 -1.341951 0.77937 -1.06066 1.06066 
C -0.77937 1.341951 -0.397805 1.5 0 1.5 
z
" id="mf058a879e5" style="stroke:#000080;"/>
    </defs>
    <g>
     <use style="fill:#000080;stroke:#000080;" x="337.683674" xlink:href="#mf058a879e5" y="138.308973"/>
     <use style="fill:#000080;stroke:#000080;" x="337.683674" xlink:href="#mf058a879e5" y="138.308973"/>
    </g>
   </g>
   <g id="line2d_24">
    <path d="M 188.836168 294.88 
L 188.836168 292.643271 
L 189.237147 292.643271 
L 189.237147 290.965724 
L 189.579026 290.965724 
L 189.579026 290.406542 
L 189.980511 290.406542 
L 190.043658 289.288178 
L 190.384079 289.288178 
L 190.384079 288.728995 
L 190.73992 288.728995 
L 190.73992 288.169813 
L 190.999343 288.169813 
L 190.999343 287.610631 
L 191.238883 287.610631 
L 191.324201 285.373902 
L 191.387913 285.373902 
L 191.46986 283.137173 
L 191.632592 283.137173 
L 191.632592 282.577991 
L 191.95351 282.577991 
L 192.04812 281.459626 
L 192.099045 281.459626 
L 192.134602 278.663715 
L 192.293709 278.663715 
L 192.358946 277.545351 
L 192.710938 277.545351 
L 192.710938 276.426986 
L 192.966659 276.426986 
L 192.966659 275.867804 
L 193.282837 275.867804 
L 193.282837 275.308622 
L 193.65613 275.308622 
L 193.6747 274.190257 
L 193.991913 274.190257 
L 193.991913 273.071893 
L 194.256348 273.071893 
L 194.256348 270.835164 
L 194.405966 270.835164 
L 194.425965 268.039252 
L 194.66416 268.039252 
L 194.66416 266.920888 
L 194.834161 266.920888 
L 194.883971 265.802523 
L 195.011087 265.802523 
L 195.011087 265.243341 
L 195.190462 265.243341 
L 195.190462 264.124977 
L 195.628813 264.124977 
L 195.647441 261.888248 
L 195.871458 261.888248 
L 195.871458 260.210701 
L 196.191087 260.210701 
L 196.253108 256.855608 
L 196.306945 256.855608 
L 196.306945 255.737243 
L 196.457588 255.737243 
L 196.457588 255.178061 
L 196.768545 255.178061 
L 196.768545 254.618879 
L 197.016766 254.618879 
L 197.016766 254.059696 
L 197.142391 254.059696 
L 197.187847 252.38215 
L 197.255805 252.38215 
L 197.255805 251.822967 
L 197.405871 251.822967 
L 197.478555 249.586238 
L 197.76992 249.586238 
L 197.76992 249.027056 
L 197.993375 249.027056 
L 197.993375 247.908692 
L 198.140749 247.908692 
L 198.178289 246.231145 
L 198.509008 246.231145 
L 198.509008 245.671963 
L 198.91067 245.671963 
L 198.91067 245.112781 
L 199.436462 245.112781 
L 199.497763 241.198505 
L 199.686911 241.198505 
L 199.744067 238.402594 
L 200.105439 238.402594 
L 200.105439 237.843411 
L 200.346403 237.843411 
L 200.346403 236.165865 
L 200.649126 236.165865 
L 200.649126 233.929136 
L 200.926841 233.929136 
L 200.926841 232.810771 
L 201.060259 232.810771 
L 201.060259 231.692407 
L 201.495698 231.692407 
L 201.495698 230.574042 
L 201.884434 230.574042 
L 201.884434 229.455678 
L 202.036361 229.455678 
L 202.091923 225.541402 
L 202.253312 225.541402 
L 202.253312 224.98222 
L 202.835175 224.98222 
L 202.835175 224.423038 
L 203.098779 224.423038 
L 203.098779 223.863855 
L 203.286899 223.863855 
L 203.286899 223.304673 
L 204.106981 223.304673 
L 204.106981 222.745491 
L 206.882843 222.745491 
L 206.882843 221.067944 
L 266.349005 221.067944 
L 266.458052 212.121028 
L 266.464092 212.121028 
L 266.564332 202.055748 
L 266.58555 202.055748 
L 266.611023 200.937384 
L 278.183983 200.937384 
L 278.294672 188.635374 
L 278.322127 188.635374 
L 278.322127 188.076192 
L 285.110191 188.076192 
L 285.192865 179.688458 
L 290.057745 179.688458 
L 290.08311 175.774183 
L 293.8795 175.774183 
L 293.914737 171.300725 
L 297.013408 171.300725 
L 297.042246 169.063996 
L 299.656626 169.063996 
L 299.669705 164.590538 
L 301.954559 164.590538 
L 301.963389 161.235444 
L 303.968551 161.235444 
L 303.978732 159.557898 
L 305.781103 159.557898 
L 305.786261 157.321169 
L 307.418793 157.321169 
L 307.421817 155.08444 
L 308.912504 155.08444 
L 308.912504 154.525258 
L 311.551903 154.525258 
L 311.559485 152.847711 
L 312.744434 152.847711 
L 312.74914 151.729346 
L 313.855102 151.729346 
L 313.855102 151.170164 
L 314.893385 151.170164 
L 314.896423 149.492617 
L 315.870534 149.492617 
L 315.880356 147.815071 
L 316.807152 147.815071 
L 316.807152 147.255888 
L 317.686738 147.255888 
L 317.690268 145.578342 
L 319.324565 145.578342 
L 319.324565 145.019159 
L 320.089008 145.019159 
L 320.091565 143.341613 
L 321.521554 143.341613 
L 321.521554 142.78243 
L 323.472022 142.78243 
L 323.472022 142.223248 
L 324.075143 142.223248 
L 324.075143 141.664066 
L 327.307573 141.664066 
L 327.307573 141.104884 
L 327.790215 141.104884 
L 327.790215 140.545702 
L 328.260956 140.545702 
L 328.260956 139.986519 
L 331.240207 139.986519 
L 331.240207 139.427337 
L 332.374627 139.427337 
L 332.374627 138.868155 
L 333.429677 138.868155 
L 333.429677 138.868155 
" style="fill:none;stroke:#000080;stroke-linecap:square;stroke-width:1.5;"/>
   </g>
   <g id="line2d_25">
    <defs>
     <path d="M 0 6 
C 1.591219 6 3.117479 5.367802 4.242641 4.242641 
C 5.367802 3.117479 6 1.591219 6 0 
C 6 -1.591219 5.367802 -3.117479 4.242641 -4.242641 
C 3.117479 -5.367802 1.591219 -6 0 -6 
C -1.591219 -6 -3.117479 -5.367802 -4.242641 -4.242641 
C -5.367802 -3.117479 -6 -1.591219 -6 0 
C -6 1.591219 -5.367802 3.117479 -4.242641 4.242641 
C -3.117479 5.367802 -1.591219 6 0 6 
z
" id="m454a70fc39" style="stroke:#000080;stroke-width:1.5;"/>
    </defs>
    <g>
     <use style="fill-opacity:0;stroke:#000080;stroke-width:1.5;" x="201.884434" xlink:href="#m454a70fc39" y="230.574042"/>
     <use style="fill-opacity:0;stroke:#000080;stroke-width:1.5;" x="278.322127" xlink:href="#m454a70fc39" y="188.076192"/>
     <use style="fill-opacity:0;stroke:#000080;stroke-width:1.5;" x="332.374627" xlink:href="#m454a70fc39" y="138.868155"/>
     <use style="fill-opacity:0;stroke:#000080;stroke-width:1.5;" x="333.429677" xlink:href="#m454a70fc39" y="138.868155"/>
    </g>
   </g>
   <g id="line2d_26">
    <path style="fill:none;stroke:#000080;stroke-linecap:square;stroke-width:1.5;"/>
    <g/>
   </g>
   <g id="line2d_27">
    <path clip-path="url(#pf3bec2743f)" d="M 266.123863 221.067944 
" style="fill:none;stroke:#000080;stroke-linecap:square;stroke-width:1.5;"/>
    <defs>
     <path d="M -12 12 
L 12 -12 
M -12 -12 
L 12 12 
" id="m1f35d4273b" style="stroke:#000080;stroke-width:3;"/>
    </defs>
    <g clip-path="url(#pf3bec2743f)">
     <use style="fill:#000080;stroke:#000080;stroke-width:3;" x="266.123863" xlink:href="#m1f35d4273b" y="221.067944"/>
    </g>
   </g>
   <g id="line2d_28">
    <defs>
     <path d="M 0 1.5 
C 0.397805 1.5 0.77937 1.341951 1.06066 1.06066 
C 1.341951 0.77937 1.5 0.397805 1.5 0 
C 1.5 -0.397805 1.341951 -0.77937 1.06066 -1.06066 
C 0.77937 -1.341951 0.397805 -1.5 0 -1.5 
C -0.397805 -1.5 -0.77937 -1.341951 -1.06066 -1.06066 
C -1.341951 -0.77937 -1.5 -0.397805 -1.5 0 
C -1.5 0.397805 -1.341951 0.77937 -1.06066 1.06066 
C -0.77937 1.341951 -0.397805 1.5 0 1.5 
z
" id="m9d7e32600f" style="stroke:#ff00ff;"/>
    </defs>
    <g>
     <use style="fill:#ff00ff;stroke:#ff00ff;" x="335.387992" xlink:href="#m9d7e32600f" y="177.451729"/>
     <use style="fill:#ff00ff;stroke:#ff00ff;" x="335.387992" xlink:href="#m9d7e32600f" y="177.451729"/>
    </g>
   </g>
   <g id="line2d_29">
    <path d="M 146.646042 294.88 
L 146.646042 294.320818 
L 151.68458 294.320818 
L 151.68458 293.202453 
L 152.967205 293.202453 
L 152.967205 292.643271 
L 163.355193 292.643271 
L 163.355193 291.524907 
L 163.689798 291.524907 
L 163.689798 290.965724 
L 164.479923 290.965724 
L 164.479923 290.406542 
L 168.148593 290.406542 
L 168.148593 288.169813 
L 170.479194 288.169813 
L 170.479194 287.051449 
L 170.824099 287.051449 
L 170.824099 286.492266 
L 171.333079 286.492266 
L 171.333079 285.933084 
L 172.443987 285.933084 
L 172.443987 284.81472 
L 173.636843 284.81472 
L 173.636843 284.255537 
L 174.221602 284.255537 
L 174.221602 283.137173 
L 174.633459 283.137173 
L 174.633459 282.577991 
L 176.001945 282.577991 
L 176.001945 280.900444 
L 176.631811 280.900444 
L 176.669253 279.222897 
L 177.609312 279.222897 
L 177.609312 278.663715 
L 177.977189 278.663715 
L 178.080867 275.308622 
L 178.52306 275.308622 
L 178.52306 274.749439 
L 179.165742 274.749439 
L 179.165742 273.631075 
L 180.058747 273.631075 
L 180.058747 273.071893 
L 180.206561 273.071893 
L 180.206561 272.51271 
L 181.800159 272.51271 
L 181.800159 271.953528 
L 182.283679 271.953528 
L 182.283679 271.394346 
L 182.675019 271.394346 
L 182.675019 270.835164 
L 182.954141 270.835164 
L 183.053354 269.716799 
L 183.177639 269.716799 
L 183.177639 268.598435 
L 183.570259 268.598435 
L 183.665992 265.243341 
L 184.317615 265.243341 
L 184.317615 264.684159 
L 184.492568 264.684159 
L 184.492568 263.565795 
L 184.852729 263.565795 
L 184.852729 263.006612 
L 184.976255 263.006612 
L 184.976255 262.44743 
L 185.117986 262.44743 
L 185.117986 261.329066 
L 185.864518 261.329066 
L 185.955598 260.210701 
L 186.325841 260.210701 
L 186.325841 259.092337 
L 186.702207 259.092337 
L 186.702207 257.973972 
L 187.364277 257.973972 
L 187.364277 257.41479 
L 188.178338 257.41479 
L 188.283391 255.737243 
L 188.845386 255.737243 
L 188.863807 254.059696 
L 189.531865 254.059696 
L 189.531865 253.500514 
L 189.983386 253.500514 
L 189.983386 252.38215 
L 190.169263 252.38215 
L 190.200521 250.704603 
L 190.887861 250.704603 
L 190.887861 250.145421 
L 191.155826 250.145421 
L 191.155826 248.467874 
L 191.29492 248.467874 
L 191.334836 247.34951 
L 191.637816 247.34951 
L 191.637816 246.790327 
L 192.083783 246.790327 
L 192.185272 243.994416 
L 193.01494 243.994416 
L 193.01494 243.435234 
L 193.151802 243.435234 
L 193.251955 241.757687 
L 193.653808 241.757687 
L 193.653808 241.198505 
L 193.898278 241.198505 
L 193.898278 240.639323 
L 194.037405 240.639323 
L 194.037405 240.08014 
L 194.399294 240.08014 
L 194.399294 239.520958 
L 195.066808 239.520958 
L 195.154311 237.843411 
L 195.268883 237.843411 
L 195.268883 237.284229 
L 195.512451 237.284229 
L 195.512451 236.725047 
L 195.873499 236.725047 
L 195.873499 236.165865 
L 196.768545 236.165865 
L 196.768545 235.606682 
L 196.955525 235.606682 
L 196.955525 234.488318 
L 197.072078 234.488318 
L 197.121517 232.251589 
L 197.584238 232.251589 
L 197.628542 231.133225 
L 197.944572 231.133225 
L 197.944572 230.574042 
L 198.438799 230.574042 
L 198.438799 229.455678 
L 198.571953 229.455678 
L 198.571953 228.896496 
L 198.831772 228.896496 
L 198.831772 228.337313 
L 199.458025 228.337313 
L 199.458025 226.659767 
L 199.890174 226.659767 
L 199.890174 226.100584 
L 200.284898 226.100584 
L 200.284898 225.541402 
L 201.37156 225.541402 
L 201.37156 224.423038 
L 201.500115 224.423038 
L 201.500115 223.304673 
L 201.623332 223.304673 
L 201.623332 222.186309 
L 201.964865 222.186309 
L 201.964865 221.627126 
L 202.964102 221.627126 
L 202.964102 221.067944 
L 266.30827 221.067944 
L 266.418961 218.831215 
L 266.429917 218.831215 
L 266.537143 212.121028 
L 266.553797 212.121028 
L 266.553797 211.561846 
L 266.665626 211.561846 
L 266.665626 211.002664 
L 278.201421 211.002664 
L 278.266918 205.970024 
L 278.322381 205.970024 
L 278.322381 204.851659 
L 285.143976 204.851659 
L 285.215783 198.700655 
L 290.063925 198.700655 
L 290.117901 195.345561 
L 293.885306 195.345561 
L 293.901377 193.108832 
L 297.04633 193.108832 
L 297.04633 191.990468 
L 299.660751 191.990468 
L 299.684863 190.872103 
L 301.945119 190.872103 
L 301.97204 189.194556 
L 303.97959 189.194556 
L 303.97959 188.635374 
L 307.41909 188.635374 
L 307.429292 186.957828 
L 308.910069 186.957828 
L 308.924158 185.280281 
L 310.295758 185.280281 
L 310.295758 184.721099 
L 312.747187 184.721099 
L 312.747187 183.602734 
L 313.861749 183.602734 
L 313.861749 183.043552 
L 316.807559 183.043552 
L 316.807559 182.48437 
L 318.52374 182.48437 
L 318.52374 181.925187 
L 319.324726 181.925187 
L 319.326442 180.806823 
L 320.094581 180.806823 
L 320.094581 180.247641 
L 322.843289 180.247641 
L 322.843289 179.688458 
L 323.470975 179.688458 
L 323.470975 179.129276 
L 324.077536 179.129276 
L 324.077536 178.570094 
L 333.429677 178.570094 
L 333.429677 178.570094 
" style="fill:none;stroke:#ff00ff;stroke-linecap:square;stroke-width:1.5;"/>
   </g>
   <g id="line2d_30">
    <defs>
     <path d="M -0 8.485281 
L 5.091169 0 
L 0 -8.485281 
L -5.091169 -0 
z
" id="md112e67408" style="stroke:#ff00ff;stroke-linejoin:miter;stroke-width:1.5;"/>
    </defs>
    <g>
     <use style="fill-opacity:0;stroke:#ff00ff;stroke-linejoin:miter;stroke-width:1.5;" x="183.665992" xlink:href="#md112e67408" y="266.361706"/>
     <use style="fill-opacity:0;stroke:#ff00ff;stroke-linejoin:miter;stroke-width:1.5;" x="202.964102" xlink:href="#md112e67408" y="221.627126"/>
     <use style="fill-opacity:0;stroke:#ff00ff;stroke-linejoin:miter;stroke-width:1.5;" x="285.215783" xlink:href="#md112e67408" y="199.259837"/>
     <use style="fill-opacity:0;stroke:#ff00ff;stroke-linejoin:miter;stroke-width:1.5;" x="324.077536" xlink:href="#md112e67408" y="178.570094"/>
     <use style="fill-opacity:0;stroke:#ff00ff;stroke-linejoin:miter;stroke-width:1.5;" x="333.429677" xlink:href="#md112e67408" y="178.570094"/>
    </g>
   </g>
   <g id="line2d_31">
    <path style="fill:none;stroke:#ff00ff;stroke-linecap:square;stroke-width:1.5;"/>
    <g/>
   </g>
   <g id="line2d_32">
    <path clip-path="url(#pf3bec2743f)" d="M 266.123863 221.067944 
" style="fill:none;stroke:#ff00ff;stroke-linecap:square;stroke-width:1.5;"/>
    <defs>
     <path d="M -12 12 
L 12 -12 
M -12 -12 
L 12 12 
" id="mdd2feb69ae" style="stroke:#ff00ff;stroke-width:3;"/>
    </defs>
    <g clip-path="url(#pf3bec2743f)">
     <use style="fill:#ff00ff;stroke:#ff00ff;stroke-width:3;" x="266.123863" xlink:href="#mdd2feb69ae" y="221.067944"/>
    </g>
   </g>
   <g id="line2d_33">
    <defs>
     <path d="M 0 1.5 
C 0.397805 1.5 0.77937 1.341951 1.06066 1.06066 
C 1.341951 0.77937 1.5 0.397805 1.5 0 
C 1.5 -0.397805 1.341951 -0.77937 1.06066 -1.06066 
C 0.77937 -1.341951 0.397805 -1.5 0 -1.5 
C -0.397805 -1.5 -0.77937 -1.341951 -1.06066 -1.06066 
C -1.341951 -0.77937 -1.5 -0.397805 -1.5 0 
C -1.5 0.397805 -1.341951 0.77937 -1.06066 1.06066 
C -0.77937 1.341951 -0.397805 1.5 0 1.5 
z
" id="m23f9362d5b" style="stroke:#ffa500;"/>
    </defs>
    <g>
     <use style="fill:#ffa500;stroke:#ffa500;" x="337.757432" xlink:href="#m23f9362d5b" y="216.594486"/>
     <use style="fill:#ffa500;stroke:#ffa500;" x="337.757432" xlink:href="#m23f9362d5b" y="216.594486"/>
    </g>
   </g>
   <g id="line2d_34">
    <path d="M 215.958315 294.88 
L 215.958315 294.320818 
L 218.057943 294.320818 
L 218.057943 293.761636 
L 219.984878 293.761636 
L 219.984878 293.202453 
L 221.711205 293.202453 
L 221.711205 292.643271 
L 224.428447 292.643271 
L 224.428447 292.084089 
L 224.998641 292.084089 
L 224.998641 290.965724 
L 228.310806 290.965724 
L 228.310806 290.406542 
L 231.669907 290.406542 
L 231.669907 289.84736 
L 232.48949 289.84736 
L 232.48949 289.288178 
L 239.855956 289.288178 
L 239.855956 288.728995 
L 247.085078 288.728995 
L 247.085078 287.610631 
L 247.78699 287.610631 
L 247.78699 287.051449 
L 249.395456 287.051449 
L 249.395456 285.933084 
L 251.860714 285.933084 
L 251.860714 285.373902 
L 255.520088 285.373902 
L 255.550078 283.696355 
L 258.432089 283.696355 
L 258.432089 283.137173 
L 258.636255 283.137173 
L 258.636255 282.577991 
L 259.219451 282.577991 
L 259.219451 282.018808 
L 259.527141 282.018808 
L 259.527141 281.459626 
L 259.770785 281.459626 
L 259.770785 280.900444 
L 261.183487 280.900444 
L 261.210612 279.222897 
L 263.224759 279.222897 
L 263.224759 278.663715 
L 263.997572 278.663715 
L 263.997572 278.104533 
L 264.875572 278.104533 
L 264.875572 277.545351 
L 266.832248 277.545351 
L 266.832248 276.426986 
L 267.343576 276.426986 
L 267.343576 275.867804 
L 267.802515 275.867804 
L 267.802515 275.308622 
L 268.024546 275.308622 
L 268.024546 274.749439 
L 268.325629 274.749439 
L 268.325629 274.190257 
L 269.065374 274.190257 
L 269.153777 273.071893 
L 269.845386 273.071893 
L 269.873219 271.953528 
L 270.706601 271.953528 
L 270.706601 271.394346 
L 272.931977 271.394346 
L 272.931977 270.835164 
L 273.242166 270.835164 
L 273.339468 269.716799 
L 273.369891 269.716799 
L 273.384428 268.598435 
L 274.557874 268.598435 
L 274.557874 268.039252 
L 275.77279 268.039252 
L 275.836968 265.802523 
L 276.233482 265.802523 
L 276.233482 264.684159 
L 276.535371 264.684159 
L 276.535371 264.124977 
L 276.977744 264.124977 
L 276.977744 263.006612 
L 277.630816 263.006612 
L 277.630816 262.44743 
L 278.359553 262.44743 
L 278.359553 261.888248 
L 278.491153 261.888248 
L 278.491153 261.329066 
L 279.185447 261.329066 
L 279.185447 260.210701 
L 280.492872 260.210701 
L 280.492872 259.092337 
L 281.525822 259.092337 
L 281.525822 258.533154 
L 282.542336 258.533154 
L 282.542336 257.973972 
L 282.778085 257.973972 
L 282.778085 257.41479 
L 282.977205 257.41479 
L 282.977205 256.855608 
L 283.582454 256.855608 
L 283.582454 256.296425 
L 283.873819 256.296425 
L 283.873819 255.737243 
L 284.318391 255.737243 
L 284.318391 255.178061 
L 284.74744 255.178061 
L 284.74744 254.618879 
L 285.232751 254.618879 
L 285.232751 254.059696 
L 285.540313 254.059696 
L 285.540313 253.500514 
L 288.147013 253.500514 
L 288.147013 252.941332 
L 288.568388 252.941332 
L 288.568388 252.38215 
L 289.090875 252.38215 
L 289.090875 251.822967 
L 291.800758 251.822967 
L 291.800758 251.263785 
L 292.367606 251.263785 
L 292.367606 250.704603 
L 292.61462 250.704603 
L 292.61462 250.145421 
L 292.852434 250.145421 
L 292.852434 249.586238 
L 293.647826 249.586238 
L 293.721041 248.467874 
L 295.250976 248.467874 
L 295.289909 247.34951 
L 296.812456 247.34951 
L 296.812456 246.790327 
L 297.791127 246.790327 
L 297.791127 246.231145 
L 298.921662 246.231145 
L 298.921662 245.671963 
L 299.10342 245.671963 
L 299.118883 244.553598 
L 299.53662 244.553598 
L 299.53662 243.435234 
L 301.638662 243.435234 
L 301.638662 242.876052 
L 301.796689 242.876052 
L 301.796689 241.757687 
L 302.837529 241.757687 
L 302.837529 241.198505 
L 303.69438 241.198505 
L 303.69438 240.639323 
L 304.49154 240.639323 
L 304.49154 240.08014 
L 305.150277 240.08014 
L 305.150277 238.961776 
L 305.319227 238.961776 
L 305.319227 238.402594 
L 305.53048 238.402594 
L 305.53048 237.843411 
L 305.693101 237.843411 
L 305.693101 237.284229 
L 306.493293 237.284229 
L 306.493293 235.606682 
L 306.948893 235.606682 
L 306.948893 235.0475 
L 307.063107 235.0475 
L 307.063107 234.488318 
L 308.386716 234.488318 
L 308.386716 233.929136 
L 308.586701 233.929136 
L 308.586701 233.369954 
L 309.802003 233.369954 
L 309.802003 232.251589 
L 309.986279 232.251589 
L 309.986279 231.692407 
L 310.646401 231.692407 
L 310.646401 231.133225 
L 311.893648 231.133225 
L 311.893648 230.574042 
L 312.684565 230.574042 
L 312.684565 230.01486 
L 315.826543 230.01486 
L 315.826543 229.455678 
L 316.474925 229.455678 
L 316.474925 228.896496 
L 317.372931 228.896496 
L 317.372931 228.337313 
L 317.560827 228.337313 
L 317.560827 227.778131 
L 318.046044 227.778131 
L 318.046044 227.218949 
L 318.748761 227.218949 
L 318.748761 226.659767 
L 319.283745 226.659767 
L 319.283745 226.100584 
L 321.709632 226.100584 
L 321.709632 225.541402 
L 322.751164 225.541402 
L 322.751164 224.98222 
L 323.379625 224.98222 
L 323.379625 224.423038 
L 323.637542 224.423038 
L 323.637542 223.863855 
L 324.234987 223.863855 
L 324.321401 222.745491 
L 325.190189 222.745491 
L 325.190189 222.186309 
L 325.451928 222.186309 
L 325.451928 221.627126 
L 325.569402 221.627126 
L 325.569402 221.067944 
L 327.19439 221.067944 
L 327.19439 220.508762 
L 327.440144 220.508762 
L 327.440144 219.94958 
L 329.578944 219.94958 
L 329.578944 219.390397 
L 332.291646 219.390397 
L 332.291646 218.831215 
L 333.072644 218.831215 
L 333.072644 218.272033 
L 333.429677 218.272033 
L 333.429677 218.272033 
" style="fill:none;stroke:#ffa500;stroke-linecap:square;stroke-width:1.5;"/>
   </g>
   <g id="line2d_35">
    <defs>
     <path d="M 0 -6 
L -1.347084 -1.854102 
L -5.706339 -1.854102 
L -2.179628 0.708204 
L -3.526712 4.854102 
L -0 2.291796 
L 3.526712 4.854102 
L 2.179628 0.708204 
L 5.706339 -1.854102 
L 1.347084 -1.854102 
z
" id="mebc32fac5a" style="stroke:#ffa500;stroke-linejoin:bevel;stroke-width:1.5;"/>
    </defs>
    <g>
     <use style="fill-opacity:0;stroke:#ffa500;stroke-linejoin:bevel;stroke-width:1.5;" x="275.836968" xlink:href="#mebc32fac5a" y="265.802523"/>
     <use style="fill-opacity:0;stroke:#ffa500;stroke-linejoin:bevel;stroke-width:1.5;" x="315.826543" xlink:href="#mebc32fac5a" y="229.455678"/>
     <use style="fill-opacity:0;stroke:#ffa500;stroke-linejoin:bevel;stroke-width:1.5;" x="333.072644" xlink:href="#mebc32fac5a" y="218.272033"/>
     <use style="fill-opacity:0;stroke:#ffa500;stroke-linejoin:bevel;stroke-width:1.5;" x="333.429677" xlink:href="#mebc32fac5a" y="218.272033"/>
    </g>
   </g>
   <g id="line2d_36">
    <path style="fill:none;stroke:#ffa500;stroke-linecap:square;stroke-width:1.5;"/>
    <g/>
   </g>
   <g id="line2d_37">
    <path clip-path="url(#pf3bec2743f)" d="M 266.123863 277.545351 
" style="fill:none;stroke:#ffa500;stroke-linecap:square;stroke-width:1.5;"/>
    <defs>
     <path d="M -12 12 
L 12 -12 
M -12 -12 
L 12 12 
" id="m57a8036953" style="stroke:#ffa500;stroke-width:3;"/>
    </defs>
    <g clip-path="url(#pf3bec2743f)">
     <use style="fill:#ffa500;stroke:#ffa500;stroke-width:3;" x="266.123863" xlink:href="#m57a8036953" y="277.545351"/>
    </g>
   </g>
   <g id="line2d_38">
    <defs>
     <path d="M 0 1.5 
C 0.397805 1.5 0.77937 1.341951 1.06066 1.06066 
C 1.341951 0.77937 1.5 0.397805 1.5 0 
C 1.5 -0.397805 1.341951 -0.77937 1.06066 -1.06066 
C 0.77937 -1.341951 0.397805 -1.5 0 -1.5 
C -0.397805 -1.5 -0.77937 -1.341951 -1.06066 -1.06066 
C -1.341951 -0.77937 -1.5 -0.397805 -1.5 0 
C -1.5 0.397805 -1.341951 0.77937 -1.06066 1.06066 
C -0.77937 1.341951 -0.397805 1.5 0 1.5 
z
" id="m61e1d7403b" style="stroke:#6495ed;"/>
    </defs>
    <g>
     <use style="fill:#6495ed;stroke:#6495ed;" x="324.641341" xlink:href="#m61e1d7403b" y="261.329066"/>
     <use style="fill:#6495ed;stroke:#6495ed;" x="324.641341" xlink:href="#m61e1d7403b" y="261.329066"/>
    </g>
   </g>
   <g id="line2d_39">
    <path d="M 81.610808 294.88 
L 81.610808 292.084089 
L 118.152108 292.084089 
L 118.152108 291.524907 
L 119.757871 291.524907 
L 119.757871 290.965724 
L 123.28764 290.965724 
L 123.28764 289.288178 
L 125.619682 289.288178 
L 125.619682 288.169813 
L 129.794786 288.169813 
L 129.794786 287.051449 
L 131.252153 287.051449 
L 131.252153 286.492266 
L 137.904883 286.492266 
L 137.904883 283.696355 
L 138.659348 283.696355 
L 138.659348 280.900444 
L 141.862285 280.900444 
L 141.862285 279.222897 
L 141.956301 279.222897 
L 141.956301 278.104533 
L 143.98795 278.104533 
L 143.98795 276.986168 
L 150.007454 276.986168 
L 150.007454 275.867804 
L 150.698043 275.867804 
L 150.698043 274.190257 
L 156.845866 274.190257 
L 156.845866 273.631075 
L 169.823691 273.631075 
L 169.823691 272.51271 
L 266.13009 272.51271 
L 266.13009 271.953528 
L 266.132876 271.953528 
L 266.132876 271.394346 
L 266.133839 271.394346 
L 266.133839 270.835164 
L 266.153086 270.835164 
L 266.153086 270.275981 
L 266.153842 270.275981 
L 266.153842 269.716799 
L 266.175297 269.716799 
L 266.175297 269.157617 
L 266.18754 269.157617 
L 266.18754 268.598435 
L 285.028666 268.598435 
L 285.028666 268.039252 
L 285.030076 268.039252 
L 285.030076 266.920888 
L 289.977366 266.920888 
L 289.977366 265.802523 
L 293.816022 265.802523 
L 293.816022 264.684159 
L 299.607164 264.684159 
L 299.607164 264.124977 
L 312.716169 264.124977 
L 312.716169 263.565795 
L 316.783066 263.565795 
L 316.783066 263.006612 
L 320.070055 263.006612 
L 320.070055 262.44743 
L 323.454351 262.44743 
L 323.454351 261.888248 
L 324.641341 261.888248 
L 324.641341 261.329066 
L 333.429677 261.329066 
" style="fill:none;stroke:#6495ed;stroke-linecap:square;stroke-width:1.5;"/>
   </g>
   <g id="line2d_40">
    <defs>
     <path d="M -0 6 
L 6 -6 
L -6 -6 
z
" id="mdab27dc898" style="stroke:#6495ed;stroke-linejoin:miter;stroke-width:1.5;"/>
    </defs>
    <g>
     <use style="fill-opacity:0;stroke:#6495ed;stroke-linejoin:miter;stroke-width:1.5;" x="131.252153" xlink:href="#mdab27dc898" y="286.492266"/>
     <use style="fill-opacity:0;stroke:#6495ed;stroke-linejoin:miter;stroke-width:1.5;" x="169.823691" xlink:href="#mdab27dc898" y="273.631075"/>
     <use style="fill-opacity:0;stroke:#6495ed;stroke-linejoin:miter;stroke-width:1.5;" x="266.153086" xlink:href="#mdab27dc898" y="270.275981"/>
     <use style="fill-opacity:0;stroke:#6495ed;stroke-linejoin:miter;stroke-width:1.5;" x="324.641341" xlink:href="#mdab27dc898" y="261.329066"/>
     <use style="fill-opacity:0;stroke:#6495ed;stroke-linejoin:miter;stroke-width:1.5;" x="333.429677" xlink:href="#mdab27dc898" y="261.329066"/>
    </g>
   </g>
   <g id="line2d_41">
    <path style="fill:none;stroke:#6495ed;stroke-linecap:square;stroke-width:1.5;"/>
    <g/>
   </g>
   <g id="line2d_42">
    <path clip-path="url(#pf3bec2743f)" d="M 266.123863 272.51271 
" style="fill:none;stroke:#6495ed;stroke-linecap:square;stroke-width:1.5;"/>
    <defs>
     <path d="M -12 12 
L 12 -12 
M -12 -12 
L 12 12 
" id="m1e8bd39d84" style="stroke:#6495ed;stroke-width:3;"/>
    </defs>
    <g clip-path="url(#pf3bec2743f)">
     <use style="fill:#6495ed;stroke:#6495ed;stroke-width:3;" x="266.123863" xlink:href="#m1e8bd39d84" y="272.51271"/>
    </g>
   </g>
   <g id="line2d_43">
    <defs>
     <path d="M 0 1.5 
C 0.397805 1.5 0.77937 1.341951 1.06066 1.06066 
C 1.341951 0.77937 1.5 0.397805 1.5 0 
C 1.5 -0.397805 1.341951 -0.77937 1.06066 -1.06066 
C 0.77937 -1.341951 0.397805 -1.5 0 -1.5 
C -0.397805 -1.5 -0.77937 -1.341951 -1.06066 -1.06066 
C -1.341951 -0.77937 -1.5 -0.397805 -1.5 0 
C -1.5 0.397805 -1.341951 0.77937 -1.06066 1.06066 
C -0.77937 1.341951 -0.397805 1.5 0 1.5 
z
" id="m0210c67987" style="stroke:#ff0000;"/>
    </defs>
    <g>
     <use style="fill:#ff0000;stroke:#ff0000;" x="319.257405" xlink:href="#m0210c67987" y="87.982571"/>
     <use style="fill:#ff0000;stroke:#ff0000;" x="319.257405" xlink:href="#m0210c67987" y="87.982571"/>
    </g>
   </g>
   <g id="line2d_44">
    <path d="M 40.355341 294.88 
L 40.355341 275.308622 
L 52.280845 275.308622 
L 52.280845 266.920888 
L 59.256818 266.920888 
L 59.256818 265.243341 
L 64.20635 265.243341 
L 64.20635 262.44743 
L 68.045504 262.44743 
L 68.045504 260.769883 
L 71.182322 260.769883 
L 71.182322 260.210701 
L 84.484951 260.210701 
L 84.484951 259.651519 
L 95.033331 259.651519 
L 95.033331 258.533154 
L 95.735668 258.533154 
L 95.735668 257.973972 
L 98.872486 257.973972 
L 98.872486 257.41479 
L 104.661446 257.41479 
L 104.661446 256.855608 
L 105.461817 256.855608 
L 105.461817 255.737243 
L 106.226603 255.737243 
L 106.226603 255.178061 
L 106.596615 255.178061 
L 106.596615 254.059696 
L 119.927379 254.059696 
L 119.927379 253.500514 
L 120.589186 253.500514 
L 120.589186 252.941332 
L 122.434331 252.941332 
L 122.434331 251.822967 
L 122.723495 251.822967 
L 122.723495 250.704603 
L 124.100619 250.704603 
L 124.100619 250.145421 
L 126.331709 250.145421 
L 126.331709 247.908692 
L 126.790532 247.908692 
L 126.790532 247.34951 
L 127.015436 247.34951 
L 127.015436 245.671963 
L 128.816974 245.671963 
L 128.816974 244.553598 
L 131.339267 244.553598 
L 131.339267 243.994416 
L 135.959823 243.994416 
L 135.959823 243.435234 
L 141.529123 243.435234 
L 141.529123 242.876052 
L 142.281368 242.876052 
L 142.281368 241.757687 
L 144.641895 241.757687 
L 144.641895 240.639323 
L 148.822538 240.639323 
L 148.822538 240.08014 
L 150.556439 240.08014 
L 150.556439 239.520958 
L 150.977803 239.520958 
L 150.977803 238.402594 
L 156.223088 238.402594 
L 156.263955 237.284229 
L 157.216717 237.284229 
L 157.216717 235.606682 
L 159.098805 235.606682 
L 159.098805 234.488318 
L 159.407575 234.488318 
L 159.49237 231.692407 
L 161.350699 231.692407 
L 161.350699 230.574042 
L 162.382122 230.574042 
L 162.382122 230.01486 
L 164.01802 230.01486 
L 164.01802 229.455678 
L 164.555716 229.455678 
L 164.555716 228.896496 
L 165.150327 228.896496 
L 165.150327 227.778131 
L 166.132377 227.778131 
L 166.132377 226.659767 
L 166.428824 226.659767 
L 166.51902 224.423038 
L 167.159172 224.423038 
L 167.159172 223.863855 
L 167.984148 223.863855 
L 167.984148 223.304673 
L 168.502927 223.304673 
L 168.532962 221.067944 
L 168.622753 221.067944 
L 168.622753 220.508762 
L 169.151874 220.508762 
L 169.151874 219.390397 
L 169.343787 219.390397 
L 169.343787 218.831215 
L 169.999111 218.831215 
L 169.999111 217.153669 
L 170.2725 217.153669 
L 170.32666 215.476122 
L 170.648088 215.476122 
L 170.648088 214.91694 
L 171.384006 214.91694 
L 171.476983 213.239393 
L 171.852195 213.239393 
L 171.852195 212.121028 
L 172.19516 212.121028 
L 172.235538 209.884299 
L 172.931098 209.884299 
L 172.931098 208.206753 
L 173.32927 208.206753 
L 173.32927 207.64757 
L 173.777533 207.64757 
L 173.777533 206.529206 
L 175.287453 206.529206 
L 175.381764 204.292477 
L 175.714428 204.292477 
L 175.714428 202.61493 
L 176.3293 202.61493 
L 176.392763 201.496566 
L 176.861419 201.496566 
L 176.935233 199.819019 
L 177.075832 199.819019 
L 177.075832 199.259837 
L 177.925114 199.259837 
L 177.925114 198.141472 
L 178.040622 198.141472 
L 178.126747 195.904743 
L 178.34302 195.904743 
L 178.427648 194.786379 
L 178.684609 194.786379 
L 178.684609 194.227197 
L 178.981441 194.227197 
L 178.997783 193.108832 
L 179.560171 193.108832 
L 179.560171 191.990468 
L 180.084323 191.990468 
L 180.084323 191.431285 
L 180.373232 191.431285 
L 180.373232 190.312921 
L 181.302657 190.312921 
L 181.302657 189.194556 
L 181.702734 189.194556 
L 181.73527 187.51701 
L 181.924616 187.51701 
L 181.924616 184.721099 
L 182.179913 184.721099 
L 182.179913 183.602734 
L 182.560319 183.602734 
L 182.560319 183.043552 
L 183.027527 183.043552 
L 183.027527 182.48437 
L 183.151999 182.48437 
L 183.228806 180.806823 
L 183.452991 180.806823 
L 183.507536 179.688458 
L 183.591116 179.688458 
L 183.591116 179.129276 
L 183.855875 179.129276 
L 183.880489 175.774183 
L 184.003031 175.774183 
L 184.003031 175.215 
L 184.205348 175.215 
L 184.205348 174.096636 
L 184.361521 174.096636 
L 184.361521 172.419089 
L 184.976255 172.419089 
L 184.976255 170.741543 
L 185.91194 170.741543 
L 185.91194 169.623178 
L 186.046197 169.623178 
L 186.118335 168.504814 
L 186.670865 168.504814 
L 186.670865 167.945631 
L 186.782044 167.945631 
L 186.882183 166.268085 
L 187.300549 166.268085 
L 187.300549 165.14972 
L 187.878779 165.14972 
L 187.930689 164.031356 
L 188.162365 164.031356 
L 188.162365 162.353809 
L 188.529179 162.353809 
L 188.529179 161.794627 
L 188.660087 161.794627 
L 188.660087 160.676262 
L 188.992202 160.676262 
L 188.992202 160.11708 
L 189.137775 160.11708 
L 189.137775 159.557898 
L 189.457917 159.557898 
L 189.457917 158.998715 
L 189.710977 158.998715 
L 189.710977 158.439533 
L 190.089439 158.439533 
L 190.089439 157.321169 
L 190.364405 157.321169 
L 190.364405 155.643622 
L 190.635046 155.643622 
L 190.635046 155.08444 
L 191.29492 155.08444 
L 191.369354 153.966075 
L 191.598598 153.966075 
L 191.622139 152.847711 
L 191.739366 152.847711 
L 191.739366 152.288529 
L 192.009827 152.288529 
L 192.009827 151.729346 
L 192.36145 151.729346 
L 192.36145 148.933435 
L 192.523444 148.933435 
L 192.523444 148.374253 
L 192.908543 148.374253 
L 192.908543 147.815071 
L 193.089508 147.815071 
L 193.089508 146.137524 
L 193.247199 146.137524 
L 193.318401 143.341613 
L 193.734914 143.341613 
L 193.734914 142.223248 
L 193.907435 142.223248 
L 193.907435 141.664066 
L 194.50352 141.664066 
L 194.50352 141.104884 
L 195.167079 141.104884 
L 195.266768 136.072244 
L 195.487414 136.072244 
L 195.487414 135.513061 
L 195.618456 135.513061 
L 195.618456 134.953879 
L 195.985425 134.953879 
L 195.985425 132.71715 
L 196.52259 132.71715 
L 196.52259 132.157968 
L 197.398398 132.157968 
L 197.398398 131.598786 
L 197.959047 131.598786 
L 197.959047 131.039603 
L 198.726585 131.039603 
L 198.726585 130.480421 
L 199.353274 130.480421 
L 199.353274 129.362057 
L 200.824562 129.362057 
L 200.824562 128.243692 
L 201.24652 128.243692 
L 201.24652 127.125328 
L 202.267397 127.125328 
L 202.267397 126.566145 
L 202.450854 126.566145 
L 202.450854 126.006963 
L 214.861867 126.006963 
L 214.861867 124.888599 
L 220.144012 124.888599 
L 220.144012 124.329417 
L 224.19505 124.329417 
L 224.19505 123.770234 
L 227.19983 123.770234 
L 227.19983 123.211052 
L 229.851641 123.211052 
L 229.851641 122.65187 
L 230.405044 122.65187 
L 230.405044 122.092688 
L 233.989142 122.092688 
L 234.046741 120.974323 
L 236.037499 120.974323 
L 236.037499 120.415141 
L 241.909374 120.415141 
L 241.909374 119.855959 
L 246.283349 119.855959 
L 246.283349 118.737594 
L 246.506692 118.737594 
L 246.506692 117.61923 
L 248.589622 117.61923 
L 248.589622 117.060047 
L 249.187313 117.060047 
L 249.187313 116.500865 
L 249.817482 116.500865 
L 249.817482 115.941683 
L 253.141908 115.941683 
L 253.141908 115.382501 
L 254.170378 115.382501 
L 254.170378 114.823318 
L 254.663144 114.823318 
L 254.663144 113.704954 
L 255.559237 113.704954 
L 255.559237 113.145772 
L 260.043297 113.145772 
L 260.043297 112.586589 
L 260.269155 112.586589 
L 260.269155 112.027407 
L 265.048961 112.027407 
L 265.048961 110.909043 
L 266.396843 110.909043 
L 266.396843 110.349861 
L 266.625233 110.349861 
L 266.725888 109.231496 
L 267.941372 109.231496 
L 267.985835 108.113132 
L 268.864761 108.113132 
L 268.864761 107.553949 
L 271.04575 107.553949 
L 271.111178 105.876403 
L 271.425524 105.876403 
L 271.425524 105.31722 
L 271.586062 105.31722 
L 271.586062 104.758038 
L 273.090514 104.758038 
L 273.090514 104.198856 
L 277.089214 104.198856 
L 277.089214 103.639674 
L 277.52031 103.639674 
L 277.52031 103.080491 
L 277.823627 103.080491 
L 277.823627 102.521309 
L 278.291211 102.521309 
L 278.301879 100.843762 
L 280.903607 100.843762 
L 280.903607 99.725398 
L 282.784932 99.725398 
L 282.784932 99.166216 
L 285.988312 99.166216 
L 285.988312 98.607033 
L 286.979771 98.607033 
L 286.979771 98.047851 
L 289.501492 98.047851 
L 289.501492 97.488669 
L 290.043524 97.488669 
L 290.043524 96.929487 
L 290.702106 96.929487 
L 290.702106 96.370304 
L 291.461113 96.370304 
L 291.461113 95.811122 
L 295.013113 95.811122 
L 295.013113 95.25194 
L 296.776293 95.25194 
L 296.875926 94.133576 
L 299.538791 94.133576 
L 299.538791 93.574393 
L 299.672432 93.574393 
L 299.672432 93.015211 
L 301.963852 93.015211 
L 301.963852 92.456029 
L 304.603265 92.456029 
L 304.603265 91.896847 
L 310.292563 91.896847 
L 310.292563 91.337664 
L 313.124556 91.337664 
L 313.124556 90.778482 
L 313.797824 90.778482 
L 313.797824 90.2193 
L 315.827385 90.2193 
L 315.827385 89.660118 
L 317.106281 89.660118 
L 317.106281 89.100935 
L 318.528673 89.100935 
L 318.528673 88.541753 
L 319.257405 88.541753 
L 319.257405 87.982571 
L 333.429677 87.982571 
L 333.429677 87.982571 
" style="fill:none;stroke:#ff0000;stroke-linecap:square;stroke-width:1.5;"/>
   </g>
   <g id="line2d_45">
    <defs>
     <path d="M 0 -6 
L -5.196152 -3 
L -5.196152 3 
L -0 6 
L 5.196152 3 
L 5.196152 -3 
z
" id="m196db37d3b" style="stroke:#ff0000;stroke-linejoin:miter;stroke-width:1.5;"/>
    </defs>
    <g>
     <use style="fill-opacity:0;stroke:#ff0000;stroke-linejoin:miter;stroke-width:1.5;" x="84.484951" xlink:href="#m196db37d3b" y="259.651519"/>
     <use style="fill-opacity:0;stroke:#ff0000;stroke-linejoin:miter;stroke-width:1.5;" x="169.343787" xlink:href="#m196db37d3b" y="219.390397"/>
     <use style="fill-opacity:0;stroke:#ff0000;stroke-linejoin:miter;stroke-width:1.5;" x="220.144012" xlink:href="#m196db37d3b" y="124.888599"/>
     <use style="fill-opacity:0;stroke:#ff0000;stroke-linejoin:miter;stroke-width:1.5;" x="280.903607" xlink:href="#m196db37d3b" y="100.843762"/>
     <use style="fill-opacity:0;stroke:#ff0000;stroke-linejoin:miter;stroke-width:1.5;" x="319.257405" xlink:href="#m196db37d3b" y="87.982571"/>
     <use style="fill-opacity:0;stroke:#ff0000;stroke-linejoin:miter;stroke-width:1.5;" x="333.429677" xlink:href="#m196db37d3b" y="87.982571"/>
    </g>
   </g>
   <g id="line2d_46">
    <path style="fill:none;stroke:#ff0000;stroke-linecap:square;stroke-width:1.5;"/>
    <g/>
   </g>
   <g id="line2d_47">
    <path clip-path="url(#pf3bec2743f)" d="M 266.123863 110.909043 
" style="fill:none;stroke:#ff0000;stroke-linecap:square;stroke-width:1.5;"/>
    <defs>
     <path d="M -12 12 
L 12 -12 
M -12 -12 
L 12 12 
" id="m7628f7a876" style="stroke:#ff0000;stroke-width:3;"/>
    </defs>
    <g clip-path="url(#pf3bec2743f)">
     <use style="fill:#ff0000;stroke:#ff0000;stroke-width:3;" x="266.123863" xlink:href="#m7628f7a876" y="110.909043"/>
    </g>
   </g>
   <g id="line2d_48">
    <path d="M 333.429677 261.329066 
L 363.933742 289.176341 
" style="fill:none;stroke:#6495ed;stroke-linecap:square;stroke-width:1.5;"/>
    <g>
     <use style="fill-opacity:0;stroke:#6495ed;stroke-linejoin:miter;stroke-width:1.5;" x="333.429677" xlink:href="#mdab27dc898" y="261.329066"/>
     <use style="fill-opacity:0;stroke:#6495ed;stroke-linejoin:miter;stroke-width:1.5;" x="363.933742" xlink:href="#mdab27dc898" y="289.176341"/>
    </g>
   </g>
   <g id="line2d_49">
    <path d="M 333.429677 218.272033 
L 363.933742 220.732435 
" style="fill:none;stroke:#ffa500;stroke-linecap:square;stroke-width:1.5;"/>
    <g>
     <use style="fill-opacity:0;stroke:#ffa500;stroke-linejoin:bevel;stroke-width:1.5;" x="333.429677" xlink:href="#mebc32fac5a" y="218.272033"/>
     <use style="fill-opacity:0;stroke:#ffa500;stroke-linejoin:bevel;stroke-width:1.5;" x="363.933742" xlink:href="#mebc32fac5a" y="220.732435"/>
    </g>
   </g>
   <g id="line2d_50">
    <path d="M 333.429677 178.570094 
L 363.933742 152.288529 
" style="fill:none;stroke:#ff00ff;stroke-linecap:square;stroke-width:1.5;"/>
    <g>
     <use style="fill-opacity:0;stroke:#ff00ff;stroke-linejoin:miter;stroke-width:1.5;" x="333.429677" xlink:href="#md112e67408" y="178.570094"/>
     <use style="fill-opacity:0;stroke:#ff00ff;stroke-linejoin:miter;stroke-width:1.5;" x="363.933742" xlink:href="#md112e67408" y="152.288529"/>
    </g>
   </g>
   <g id="line2d_51">
    <path d="M 333.429677 138.868155 
L 363.933742 83.844622 
" style="fill:none;stroke:#000080;stroke-linecap:square;stroke-width:1.5;"/>
    <g>
     <use style="fill-opacity:0;stroke:#000080;stroke-width:1.5;" x="333.429677" xlink:href="#m454a70fc39" y="138.868155"/>
     <use style="fill-opacity:0;stroke:#000080;stroke-width:1.5;" x="363.933742" xlink:href="#m454a70fc39" y="83.844622"/>
    </g>
   </g>
   <g id="line2d_52">
    <path d="M 333.429677 87.982571 
L 363.933742 15.400716 
" style="fill:none;stroke:#ff0000;stroke-linecap:square;stroke-width:1.5;"/>
    <g>
     <use style="fill-opacity:0;stroke:#ff0000;stroke-linejoin:miter;stroke-width:1.5;" x="333.429677" xlink:href="#m196db37d3b" y="87.982571"/>
     <use style="fill-opacity:0;stroke:#ff0000;stroke-linejoin:miter;stroke-width:1.5;" x="363.933742" xlink:href="#m196db37d3b" y="15.400716"/>
    </g>
   </g>
   <g id="line2d_53">
    <path d="M 333.429677 294.88 
L 333.429677 9.697057 
" style="fill:none;stroke:#000000;stroke-linecap:square;stroke-width:1.5;"/>
   </g>
   <g id="patch_3">
    <path d="M 56.12 294.88 
L 56.12 6.845228 
" style="fill:none;stroke:#000000;stroke-linecap:square;stroke-linejoin:miter;stroke-width:0.8;"/>
   </g>
   <g id="patch_4">
    <path d="M 399.984 294.88 
L 399.984 6.845228 
" style="fill:none;stroke:#000000;stroke-linecap:square;stroke-linejoin:miter;stroke-width:0.8;"/>
   </g>
   <g id="patch_5">
    <path d="M 56.12 294.88 
L 399.984 294.88 
" style="fill:none;stroke:#000000;stroke-linecap:square;stroke-linejoin:miter;stroke-width:0.8;"/>
   </g>
   <g id="patch_6">
    <path d="M 56.12 6.845228 
L 399.984 6.845228 
" style="fill:none;stroke:#000000;stroke-linecap:square;stroke-linejoin:miter;stroke-width:0.8;"/>
   </g>
   <g id="text_14">
    <!-- f11 -->
    <g transform="translate(369.479935 293.867279)scale(0.17 -0.17)">
     <use xlink:href="#DejaVuSans-66"/>
     <use x="35.205078" xlink:href="#DejaVuSans-31"/>
     <use x="98.828125" xlink:href="#DejaVuSans-31"/>
    </g>
   </g>
   <g id="text_15">
    <!-- f10 -->
    <g transform="translate(369.479935 225.423372)scale(0.17 -0.17)">
     <use xlink:href="#DejaVuSans-66"/>
     <use x="35.205078" xlink:href="#DejaVuSans-31"/>
     <use x="98.828125" xlink:href="#DejaVuSans-30"/>
    </g>
   </g>
   <g id="text_16">
    <!-- f13 -->
    <defs>
     <path d="M 40.578125 39.3125 
Q 47.65625 37.796875 51.625 33 
Q 55.609375 28.21875 55.609375 21.1875 
Q 55.609375 10.40625 48.1875 4.484375 
Q 40.765625 -1.421875 27.09375 -1.421875 
Q 22.515625 -1.421875 17.65625 -0.515625 
Q 12.796875 0.390625 7.625 2.203125 
L 7.625 11.71875 
Q 11.71875 9.328125 16.59375 8.109375 
Q 21.484375 6.890625 26.8125 6.890625 
Q 36.078125 6.890625 40.9375 10.546875 
Q 45.796875 14.203125 45.796875 21.1875 
Q 45.796875 27.640625 41.28125 31.265625 
Q 36.765625 34.90625 28.71875 34.90625 
L 20.21875 34.90625 
L 20.21875 43.015625 
L 29.109375 43.015625 
Q 36.375 43.015625 40.234375 45.921875 
Q 44.09375 48.828125 44.09375 54.296875 
Q 44.09375 59.90625 40.109375 62.90625 
Q 36.140625 65.921875 28.71875 65.921875 
Q 24.65625 65.921875 20.015625 65.03125 
Q 15.375 64.15625 9.8125 62.3125 
L 9.8125 71.09375 
Q 15.4375 72.65625 20.34375 73.4375 
Q 25.25 74.21875 29.59375 74.21875 
Q 40.828125 74.21875 47.359375 69.109375 
Q 53.90625 64.015625 53.90625 55.328125 
Q 53.90625 49.265625 50.4375 45.09375 
Q 46.96875 40.921875 40.578125 39.3125 
z
" id="DejaVuSans-33"/>
    </defs>
    <g transform="translate(369.479935 156.979466)scale(0.17 -0.17)">
     <use xlink:href="#DejaVuSans-66"/>
     <use x="35.205078" xlink:href="#DejaVuSans-31"/>
     <use x="98.828125" xlink:href="#DejaVuSans-33"/>
    </g>
   </g>
   <g id="text_17">
    <!-- f12 -->
    <g transform="translate(369.479935 88.53556)scale(0.17 -0.17)">
     <use xlink:href="#DejaVuSans-66"/>
     <use x="35.205078" xlink:href="#DejaVuSans-31"/>
     <use x="98.828125" xlink:href="#DejaVuSans-32"/>
    </g>
   </g>
   <g id="text_18">
    <!-- f14 -->
    <g transform="translate(369.479935 20.091654)scale(0.17 -0.17)">
     <use xlink:href="#DejaVuSans-66"/>
     <use x="35.205078" xlink:href="#DejaVuSans-31"/>
     <use x="98.828125" xlink:href="#DejaVuSans-34"/>
    </g>
   </g>
   <g id="text_19">
    <!-- bbob -->
    <defs>
     <path d="M 48.6875 27.296875 
Q 48.6875 37.203125 44.609375 42.84375 
Q 40.53125 48.484375 33.40625 48.484375 
Q 26.265625 48.484375 22.1875 42.84375 
Q 18.109375 37.203125 18.109375 27.296875 
Q 18.109375 17.390625 22.1875 11.75 
Q 26.265625 6.109375 33.40625 6.109375 
Q 40.53125 6.109375 44.609375 11.75 
Q 48.6875 17.390625 48.6875 27.296875 
z
M 18.109375 46.390625 
Q 20.953125 51.265625 25.265625 53.625 
Q 29.59375 56 35.59375 56 
Q 45.5625 56 51.78125 48.09375 
Q 58.015625 40.1875 58.015625 27.296875 
Q 58.015625 14.40625 51.78125 6.484375 
Q 45.5625 -1.421875 35.59375 -1.421875 
Q 29.59375 -1.421875 25.265625 0.953125 
Q 20.953125 3.328125 18.109375 8.203125 
L 18.109375 0 
L 9.078125 0 
L 9.078125 75.984375 
L 18.109375 75.984375 
z
" id="DejaVuSans-62"/>
    </defs>
    <g transform="translate(59.55864 17.475982)scale(0.102 -0.102)">
     <use xlink:href="#DejaVuSans-62"/>
     <use x="63.476562" xlink:href="#DejaVuSans-62"/>
     <use x="126.953125" xlink:href="#DejaVuSans-6f"/>
     <use x="188.134766" xlink:href="#DejaVuSans-62"/>
    </g>
    <!-- Ill-conditioned functions, 5-D -->
    <defs>
     <path d="M 9.8125 72.90625 
L 19.671875 72.90625 
L 19.671875 0 
L 9.8125 0 
z
" id="DejaVuSans-49"/>
     <path d="M 10.796875 72.90625 
L 49.515625 72.90625 
L 49.515625 64.59375 
L 19.828125 64.59375 
L 19.828125 46.734375 
Q 21.96875 47.46875 24.109375 47.828125 
Q 26.265625 48.1875 28.421875 48.1875 
Q 40.625 48.1875 47.75 41.5 
Q 54.890625 34.8125 54.890625 23.390625 
Q 54.890625 11.625 47.5625 5.09375 
Q 40.234375 -1.421875 26.90625 -1.421875 
Q 22.3125 -1.421875 17.546875 -0.640625 
Q 12.796875 0.140625 7.71875 1.703125 
L 7.71875 11.625 
Q 12.109375 9.234375 16.796875 8.0625 
Q 21.484375 6.890625 26.703125 6.890625 
Q 35.15625 6.890625 40.078125 11.328125 
Q 45.015625 15.765625 45.015625 23.390625 
Q 45.015625 31 40.078125 35.4375 
Q 35.15625 39.890625 26.703125 39.890625 
Q 22.75 39.890625 18.8125 39.015625 
Q 14.890625 38.140625 10.796875 36.28125 
z
" id="DejaVuSans-35"/>
     <path d="M 19.671875 64.796875 
L 19.671875 8.109375 
L 31.59375 8.109375 
Q 46.6875 8.109375 53.6875 14.9375 
Q 60.6875 21.78125 60.6875 36.53125 
Q 60.6875 51.171875 53.6875 57.984375 
Q 46.6875 64.796875 31.59375 64.796875 
z
M 9.8125 72.90625 
L 30.078125 72.90625 
Q 51.265625 72.90625 61.171875 64.09375 
Q 71.09375 55.28125 71.09375 36.53125 
Q 71.09375 17.671875 61.125 8.828125 
Q 51.171875 0 30.078125 0 
L 9.8125 0 
z
" id="DejaVuSans-44"/>
    </defs>
    <g transform="translate(59.55864 28.89775)scale(0.102 -0.102)">
     <use xlink:href="#DejaVuSans-49"/>
     <use x="29.492188" xlink:href="#DejaVuSans-6c"/>
     <use x="57.275391" xlink:href="#DejaVuSans-6c"/>
     <use x="85.058594" xlink:href="#DejaVuSans-2d"/>
     <use x="121.142578" xlink:href="#DejaVuSans-63"/>
     <use x="176.123047" xlink:href="#DejaVuSans-6f"/>
     <use x="237.304688" xlink:href="#DejaVuSans-6e"/>
     <use x="300.683594" xlink:href="#DejaVuSans-64"/>
     <use x="364.160156" xlink:href="#DejaVuSans-69"/>
     <use x="391.943359" xlink:href="#DejaVuSans-74"/>
     <use x="431.152344" xlink:href="#DejaVuSans-69"/>
     <use x="458.935547" xlink:href="#DejaVuSans-6f"/>
     <use x="520.117188" xlink:href="#DejaVuSans-6e"/>
     <use x="583.496094" xlink:href="#DejaVuSans-65"/>
     <use x="645.019531" xlink:href="#DejaVuSans-64"/>
     <use x="708.496094" xlink:href="#DejaVuSans-20"/>
     <use x="740.283203" xlink:href="#DejaVuSans-66"/>
     <use x="775.488281" xlink:href="#DejaVuSans-75"/>
     <use x="838.867188" xlink:href="#DejaVuSans-6e"/>
     <use x="902.246094" xlink:href="#DejaVuSans-63"/>
     <use x="957.226562" xlink:href="#DejaVuSans-74"/>
     <use x="996.435547" xlink:href="#DejaVuSans-69"/>
     <use x="1024.21875" xlink:href="#DejaVuSans-6f"/>
     <use x="1085.400391" xlink:href="#DejaVuSans-6e"/>
     <use x="1148.779297" xlink:href="#DejaVuSans-73"/>
     <use x="1200.878906" xlink:href="#DejaVuSans-2c"/>
     <use x="1232.666016" xlink:href="#DejaVuSans-20"/>
     <use x="1264.453125" xlink:href="#DejaVuSans-35"/>
     <use x="1328.076172" xlink:href="#DejaVuSans-2d"/>
     <use x="1364.160156" xlink:href="#DejaVuSans-44"/>
    </g>
    <!-- 51 targets: 100..1e-08 -->
    <defs>
     <path d="M 11.71875 12.40625 
L 22.015625 12.40625 
L 22.015625 0 
L 11.71875 0 
z
M 11.71875 51.703125 
L 22.015625 51.703125 
L 22.015625 39.3125 
L 11.71875 39.3125 
z
" id="DejaVuSans-3a"/>
    </defs>
    <g transform="translate(59.55864 40.319519)scale(0.102 -0.102)">
     <use xlink:href="#DejaVuSans-35"/>
     <use x="63.623047" xlink:href="#DejaVuSans-31"/>
     <use x="127.246094" xlink:href="#DejaVuSans-20"/>
     <use x="159.033203" xlink:href="#DejaVuSans-74"/>
     <use x="198.242188" xlink:href="#DejaVuSans-61"/>
     <use x="259.521484" xlink:href="#DejaVuSans-72"/>
     <use x="300.619141" xlink:href="#DejaVuSans-67"/>
     <use x="364.095703" xlink:href="#DejaVuSans-65"/>
     <use x="425.619141" xlink:href="#DejaVuSans-74"/>
     <use x="464.828125" xlink:href="#DejaVuSans-73"/>
     <use x="516.927734" xlink:href="#DejaVuSans-3a"/>
     <use x="550.619141" xlink:href="#DejaVuSans-20"/>
     <use x="582.40625" xlink:href="#DejaVuSans-31"/>
     <use x="646.029297" xlink:href="#DejaVuSans-30"/>
     <use x="709.652344" xlink:href="#DejaVuSans-30"/>
     <use x="773.275391" xlink:href="#DejaVuSans-2e"/>
     <use x="805.0625" xlink:href="#DejaVuSans-2e"/>
     <use x="836.849609" xlink:href="#DejaVuSans-31"/>
     <use x="900.472656" xlink:href="#DejaVuSans-65"/>
     <use x="961.996094" xlink:href="#DejaVuSans-2d"/>
     <use x="998.080078" xlink:href="#DejaVuSans-30"/>
     <use x="1061.703125" xlink:href="#DejaVuSans-38"/>
    </g>
    <!-- 15 instances -->
    <g transform="translate(59.55864 51.741288)scale(0.102 -0.102)">
     <use xlink:href="#DejaVuSans-31"/>
     <use x="63.623047" xlink:href="#DejaVuSans-35"/>
     <use x="127.246094" xlink:href="#DejaVuSans-20"/>
     <use x="159.033203" xlink:href="#DejaVuSans-69"/>
     <use x="186.816406" xlink:href="#DejaVuSans-6e"/>
     <use x="250.195312" xlink:href="#DejaVuSans-73"/>
     <use x="302.294922" xlink:href="#DejaVuSans-74"/>
     <use x="341.503906" xlink:href="#DejaVuSans-61"/>
     <use x="402.783203" xlink:href="#DejaVuSans-6e"/>
     <use x="466.162109" xlink:href="#DejaVuSans-63"/>
     <use x="521.142578" xlink:href="#DejaVuSans-65"/>
     <use x="582.666016" xlink:href="#DejaVuSans-73"/>
    </g>
   </g>
   <g id="text_20">
    <!-- v0.0.0 -->
    <g style="fill:#808080;" transform="translate(212.37075 289.919965)scale(0.1 -0.1)">
     <use xlink:href="#DejaVuSans-76"/>
     <use x="59.179688" xlink:href="#DejaVuSans-30"/>
     <use x="122.802734" xlink:href="#DejaVuSans-2e"/>
     <use x="154.589844" xlink:href="#DejaVuSans-30"/>
     <use x="218.212891" xlink:href="#DejaVuSans-2e"/>
     <use x="250" xlink:href="#DejaVuSans-30"/>
    </g>
   </g>
  </g>
 </g>
 <defs>
  <clipPath id="pf3bec2743f">
   <rect height="288.034772" width="343.864" x="56.12" y="6.845228"/>
  </clipPath>
 </defs>
</svg>
