<?xml version="1.0" encoding="utf-8" standalone="no"?>
<!DOCTYPE svg PUBLIC "-//W3C//DTD SVG 1.1//EN"
  "http://www.w3.org/Graphics/SVG/1.1/DTD/svg11.dtd">
<!-- Created with matplotlib (http://matplotlib.org/) -->
<svg height="345.6pt" version="1.1" viewBox="0 0 460.8 345.6" width="460.8pt" xmlns="http://www.w3.org/2000/svg" xmlns:xlink="http://www.w3.org/1999/xlink">
 <defs>
  <style type="text/css">
*{stroke-linecap:butt;stroke-linejoin:round;}
  </style>
 </defs>
 <g id="figure_1">
  <g id="patch_1">
   <path d="M 0 345.6 
L 460.8 345.6 
L 460.8 0 
L 0 0 
z
" style="fill:#ffffff;"/>
  </g>
  <g id="axes_1">
   <g id="patch_2">
    <path d="M 56.12 294.88 
L 399.984 294.88 
L 399.984 24.84 
L 56.12 24.84 
z
" style="fill:#ffffff;"/>
   </g>
   <g id="matplotlib.axis_1">
    <g id="xtick_1">
     <g id="line2d_1">
      <path clip-path="url(#pb9b6295dbe)" d="M 56.12 294.88 
L 56.12 24.84 
" style="fill:none;stroke:#b0b0b0;stroke-linecap:square;stroke-width:0.8;"/>
     </g>
     <g id="line2d_2">
      <defs>
       <path d="M 0 0 
L 0 3.5 
" id="mb9b199c4d1" style="stroke:#000000;stroke-width:0.8;"/>
      </defs>
      <g>
       <use style="stroke:#000000;stroke-width:0.8;" x="56.12" xlink:href="#mb9b199c4d1" y="294.88"/>
      </g>
     </g>
     <g id="text_1">
      <!-- 0 -->
      <defs>
       <path d="M 31.78125 66.40625 
Q 24.171875 66.40625 20.328125 58.90625 
Q 16.5 51.421875 16.5 36.375 
Q 16.5 21.390625 20.328125 13.890625 
Q 24.171875 6.390625 31.78125 6.390625 
Q 39.453125 6.390625 43.28125 13.890625 
Q 47.125 21.390625 47.125 36.375 
Q 47.125 51.421875 43.28125 58.90625 
Q 39.453125 66.40625 31.78125 66.40625 
z
M 31.78125 74.21875 
Q 44.046875 74.21875 50.515625 64.515625 
Q 56.984375 54.828125 56.984375 36.375 
Q 56.984375 17.96875 50.515625 8.265625 
Q 44.046875 -1.421875 31.78125 -1.421875 
Q 19.53125 -1.421875 13.0625 8.265625 
Q 6.59375 17.96875 6.59375 36.375 
Q 6.59375 54.828125 13.0625 64.515625 
Q 19.53125 74.21875 31.78125 74.21875 
z
" id="DejaVuSans-30"/>
      </defs>
      <g transform="translate(49.7575 317.076875)scale(0.2 -0.2)">
       <use xlink:href="#DejaVuSans-30"/>
      </g>
     </g>
    </g>
    <g id="xtick_2">
     <g id="line2d_3">
      <path clip-path="url(#pb9b6295dbe)" d="M 135.351336 294.88 
L 135.351336 24.84 
" style="fill:none;stroke:#b0b0b0;stroke-linecap:square;stroke-width:0.8;"/>
     </g>
     <g id="line2d_4">
      <g>
       <use style="stroke:#000000;stroke-width:0.8;" x="135.351336" xlink:href="#mb9b199c4d1" y="294.88"/>
      </g>
     </g>
     <g id="text_2">
      <!-- 2 -->
      <defs>
       <path d="M 19.1875 8.296875 
L 53.609375 8.296875 
L 53.609375 0 
L 7.328125 0 
L 7.328125 8.296875 
Q 12.9375 14.109375 22.625 23.890625 
Q 32.328125 33.6875 34.8125 36.53125 
Q 39.546875 41.84375 41.421875 45.53125 
Q 43.3125 49.21875 43.3125 52.78125 
Q 43.3125 58.59375 39.234375 62.25 
Q 35.15625 65.921875 28.609375 65.921875 
Q 23.96875 65.921875 18.8125 64.3125 
Q 13.671875 62.703125 7.8125 59.421875 
L 7.8125 69.390625 
Q 13.765625 71.78125 18.9375 73 
Q 24.125 74.21875 28.421875 74.21875 
Q 39.75 74.21875 46.484375 68.546875 
Q 53.21875 62.890625 53.21875 53.421875 
Q 53.21875 48.921875 51.53125 44.890625 
Q 49.859375 40.875 45.40625 35.40625 
Q 44.1875 33.984375 37.640625 27.21875 
Q 31.109375 20.453125 19.1875 8.296875 
z
" id="DejaVuSans-32"/>
      </defs>
      <g transform="translate(128.988836 317.076875)scale(0.2 -0.2)">
       <use xlink:href="#DejaVuSans-32"/>
      </g>
     </g>
    </g>
    <g id="xtick_3">
     <g id="line2d_5">
      <path clip-path="url(#pb9b6295dbe)" d="M 214.582673 294.88 
L 214.582673 24.84 
" style="fill:none;stroke:#b0b0b0;stroke-linecap:square;stroke-width:0.8;"/>
     </g>
     <g id="line2d_6">
      <g>
       <use style="stroke:#000000;stroke-width:0.8;" x="214.582673" xlink:href="#mb9b199c4d1" y="294.88"/>
      </g>
     </g>
     <g id="text_3">
      <!-- 4 -->
      <defs>
       <path d="M 37.796875 64.3125 
L 12.890625 25.390625 
L 37.796875 25.390625 
z
M 35.203125 72.90625 
L 47.609375 72.90625 
L 47.609375 25.390625 
L 58.015625 25.390625 
L 58.015625 17.1875 
L 47.609375 17.1875 
L 47.609375 0 
L 37.796875 0 
L 37.796875 17.1875 
L 4.890625 17.1875 
L 4.890625 26.703125 
z
" id="DejaVuSans-34"/>
      </defs>
      <g transform="translate(208.220173 317.076875)scale(0.2 -0.2)">
       <use xlink:href="#DejaVuSans-34"/>
      </g>
     </g>
    </g>
    <g id="xtick_4">
     <g id="line2d_7">
      <path clip-path="url(#pb9b6295dbe)" d="M 293.814009 294.88 
L 293.814009 24.84 
" style="fill:none;stroke:#b0b0b0;stroke-linecap:square;stroke-width:0.8;"/>
     </g>
     <g id="line2d_8">
      <g>
       <use style="stroke:#000000;stroke-width:0.8;" x="293.814009" xlink:href="#mb9b199c4d1" y="294.88"/>
      </g>
     </g>
     <g id="text_4">
      <!-- 6 -->
      <defs>
       <path d="M 33.015625 40.375 
Q 26.375 40.375 22.484375 35.828125 
Q 18.609375 31.296875 18.609375 23.390625 
Q 18.609375 15.53125 22.484375 10.953125 
Q 26.375 6.390625 33.015625 6.390625 
Q 39.65625 6.390625 43.53125 10.953125 
Q 47.40625 15.53125 47.40625 23.390625 
Q 47.40625 31.296875 43.53125 35.828125 
Q 39.65625 40.375 33.015625 40.375 
z
M 52.59375 71.296875 
L 52.59375 62.3125 
Q 48.875 64.0625 45.09375 64.984375 
Q 41.3125 65.921875 37.59375 65.921875 
Q 27.828125 65.921875 22.671875 59.328125 
Q 17.53125 52.734375 16.796875 39.40625 
Q 19.671875 43.65625 24.015625 45.921875 
Q 28.375 48.1875 33.59375 48.1875 
Q 44.578125 48.1875 50.953125 41.515625 
Q 57.328125 34.859375 57.328125 23.390625 
Q 57.328125 12.15625 50.6875 5.359375 
Q 44.046875 -1.421875 33.015625 -1.421875 
Q 20.359375 -1.421875 13.671875 8.265625 
Q 6.984375 17.96875 6.984375 36.375 
Q 6.984375 53.65625 15.1875 63.9375 
Q 23.390625 74.21875 37.203125 74.21875 
Q 40.921875 74.21875 44.703125 73.484375 
Q 48.484375 72.75 52.59375 71.296875 
z
" id="DejaVuSans-36"/>
      </defs>
      <g transform="translate(287.451509 317.076875)scale(0.2 -0.2)">
       <use xlink:href="#DejaVuSans-36"/>
      </g>
     </g>
    </g>
    <g id="xtick_5">
     <g id="line2d_9">
      <path clip-path="url(#pb9b6295dbe)" d="M 373.045346 294.88 
L 373.045346 24.84 
" style="fill:none;stroke:#b0b0b0;stroke-linecap:square;stroke-width:0.8;"/>
     </g>
     <g id="line2d_10">
      <g>
       <use style="stroke:#000000;stroke-width:0.8;" x="373.045346" xlink:href="#mb9b199c4d1" y="294.88"/>
      </g>
     </g>
     <g id="text_5">
      <!-- 8 -->
      <defs>
       <path d="M 31.78125 34.625 
Q 24.75 34.625 20.71875 30.859375 
Q 16.703125 27.09375 16.703125 20.515625 
Q 16.703125 13.921875 20.71875 10.15625 
Q 24.75 6.390625 31.78125 6.390625 
Q 38.8125 6.390625 42.859375 10.171875 
Q 46.921875 13.96875 46.921875 20.515625 
Q 46.921875 27.09375 42.890625 30.859375 
Q 38.875 34.625 31.78125 34.625 
z
M 21.921875 38.8125 
Q 15.578125 40.375 12.03125 44.71875 
Q 8.5 49.078125 8.5 55.328125 
Q 8.5 64.0625 14.71875 69.140625 
Q 20.953125 74.21875 31.78125 74.21875 
Q 42.671875 74.21875 48.875 69.140625 
Q 55.078125 64.0625 55.078125 55.328125 
Q 55.078125 49.078125 51.53125 44.71875 
Q 48 40.375 41.703125 38.8125 
Q 48.828125 37.15625 52.796875 32.3125 
Q 56.78125 27.484375 56.78125 20.515625 
Q 56.78125 9.90625 50.3125 4.234375 
Q 43.84375 -1.421875 31.78125 -1.421875 
Q 19.734375 -1.421875 13.25 4.234375 
Q 6.78125 9.90625 6.78125 20.515625 
Q 6.78125 27.484375 10.78125 32.3125 
Q 14.796875 37.15625 21.921875 38.8125 
z
M 18.3125 54.390625 
Q 18.3125 48.734375 21.84375 45.5625 
Q 25.390625 42.390625 31.78125 42.390625 
Q 38.140625 42.390625 41.71875 45.5625 
Q 45.3125 48.734375 45.3125 54.390625 
Q 45.3125 60.0625 41.71875 63.234375 
Q 38.140625 66.40625 31.78125 66.40625 
Q 25.390625 66.40625 21.84375 63.234375 
Q 18.3125 60.0625 18.3125 54.390625 
z
" id="DejaVuSans-38"/>
      </defs>
      <g transform="translate(366.682846 317.076875)scale(0.2 -0.2)">
       <use xlink:href="#DejaVuSans-38"/>
      </g>
     </g>
    </g>
    <g id="text_6">
     <!-- log10(# f-evals / dimension) -->
     <defs>
      <path d="M 9.421875 75.984375 
L 18.40625 75.984375 
L 18.40625 0 
L 9.421875 0 
z
" id="DejaVuSans-6c"/>
      <path d="M 30.609375 48.390625 
Q 23.390625 48.390625 19.1875 42.75 
Q 14.984375 37.109375 14.984375 27.296875 
Q 14.984375 17.484375 19.15625 11.84375 
Q 23.34375 6.203125 30.609375 6.203125 
Q 37.796875 6.203125 41.984375 11.859375 
Q 46.1875 17.53125 46.1875 27.296875 
Q 46.1875 37.015625 41.984375 42.703125 
Q 37.796875 48.390625 30.609375 48.390625 
z
M 30.609375 56 
Q 42.328125 56 49.015625 48.375 
Q 55.71875 40.765625 55.71875 27.296875 
Q 55.71875 13.875 49.015625 6.21875 
Q 42.328125 -1.421875 30.609375 -1.421875 
Q 18.84375 -1.421875 12.171875 6.21875 
Q 5.515625 13.875 5.515625 27.296875 
Q 5.515625 40.765625 12.171875 48.375 
Q 18.84375 56 30.609375 56 
z
" id="DejaVuSans-6f"/>
      <path d="M 45.40625 27.984375 
Q 45.40625 37.75 41.375 43.109375 
Q 37.359375 48.484375 30.078125 48.484375 
Q 22.859375 48.484375 18.828125 43.109375 
Q 14.796875 37.75 14.796875 27.984375 
Q 14.796875 18.265625 18.828125 12.890625 
Q 22.859375 7.515625 30.078125 7.515625 
Q 37.359375 7.515625 41.375 12.890625 
Q 45.40625 18.265625 45.40625 27.984375 
z
M 54.390625 6.78125 
Q 54.390625 -7.171875 48.1875 -13.984375 
Q 42 -20.796875 29.203125 -20.796875 
Q 24.46875 -20.796875 20.265625 -20.09375 
Q 16.0625 -19.390625 12.109375 -17.921875 
L 12.109375 -9.1875 
Q 16.0625 -11.328125 19.921875 -12.34375 
Q 23.78125 -13.375 27.78125 -13.375 
Q 36.625 -13.375 41.015625 -8.765625 
Q 45.40625 -4.15625 45.40625 5.171875 
L 45.40625 9.625 
Q 42.625 4.78125 38.28125 2.390625 
Q 33.9375 0 27.875 0 
Q 17.828125 0 11.671875 7.65625 
Q 5.515625 15.328125 5.515625 27.984375 
Q 5.515625 40.671875 11.671875 48.328125 
Q 17.828125 56 27.875 56 
Q 33.9375 56 38.28125 53.609375 
Q 42.625 51.21875 45.40625 46.390625 
L 45.40625 54.6875 
L 54.390625 54.6875 
z
" id="DejaVuSans-67"/>
      <path d="M 12.40625 8.296875 
L 28.515625 8.296875 
L 28.515625 63.921875 
L 10.984375 60.40625 
L 10.984375 69.390625 
L 28.421875 72.90625 
L 38.28125 72.90625 
L 38.28125 8.296875 
L 54.390625 8.296875 
L 54.390625 0 
L 12.40625 0 
z
" id="DejaVuSans-31"/>
      <path d="M 31 75.875 
Q 24.46875 64.65625 21.28125 53.65625 
Q 18.109375 42.671875 18.109375 31.390625 
Q 18.109375 20.125 21.3125 9.0625 
Q 24.515625 -2 31 -13.1875 
L 23.1875 -13.1875 
Q 15.875 -1.703125 12.234375 9.375 
Q 8.59375 20.453125 8.59375 31.390625 
Q 8.59375 42.28125 12.203125 53.3125 
Q 15.828125 64.359375 23.1875 75.875 
z
" id="DejaVuSans-28"/>
      <path d="M 51.125 44 
L 36.921875 44 
L 32.8125 27.6875 
L 47.125 27.6875 
z
M 43.796875 71.78125 
L 38.71875 51.515625 
L 52.984375 51.515625 
L 58.109375 71.78125 
L 65.921875 71.78125 
L 60.890625 51.515625 
L 76.125 51.515625 
L 76.125 44 
L 58.984375 44 
L 54.984375 27.6875 
L 70.515625 27.6875 
L 70.515625 20.21875 
L 53.078125 20.21875 
L 48 0 
L 40.1875 0 
L 45.21875 20.21875 
L 30.90625 20.21875 
L 25.875 0 
L 18.015625 0 
L 23.09375 20.21875 
L 7.71875 20.21875 
L 7.71875 27.6875 
L 24.90625 27.6875 
L 29 44 
L 13.28125 44 
L 13.28125 51.515625 
L 30.90625 51.515625 
L 35.890625 71.78125 
z
" id="DejaVuSans-23"/>
      <path id="DejaVuSans-20"/>
      <path d="M 37.109375 75.984375 
L 37.109375 68.5 
L 28.515625 68.5 
Q 23.6875 68.5 21.796875 66.546875 
Q 19.921875 64.59375 19.921875 59.515625 
L 19.921875 54.6875 
L 34.71875 54.6875 
L 34.71875 47.703125 
L 19.921875 47.703125 
L 19.921875 0 
L 10.890625 0 
L 10.890625 47.703125 
L 2.296875 47.703125 
L 2.296875 54.6875 
L 10.890625 54.6875 
L 10.890625 58.5 
Q 10.890625 67.625 15.140625 71.796875 
Q 19.390625 75.984375 28.609375 75.984375 
z
" id="DejaVuSans-66"/>
      <path d="M 4.890625 31.390625 
L 31.203125 31.390625 
L 31.203125 23.390625 
L 4.890625 23.390625 
z
" id="DejaVuSans-2d"/>
      <path d="M 56.203125 29.59375 
L 56.203125 25.203125 
L 14.890625 25.203125 
Q 15.484375 15.921875 20.484375 11.0625 
Q 25.484375 6.203125 34.421875 6.203125 
Q 39.59375 6.203125 44.453125 7.46875 
Q 49.3125 8.734375 54.109375 11.28125 
L 54.109375 2.78125 
Q 49.265625 0.734375 44.1875 -0.34375 
Q 39.109375 -1.421875 33.890625 -1.421875 
Q 20.796875 -1.421875 13.15625 6.1875 
Q 5.515625 13.8125 5.515625 26.8125 
Q 5.515625 40.234375 12.765625 48.109375 
Q 20.015625 56 32.328125 56 
Q 43.359375 56 49.78125 48.890625 
Q 56.203125 41.796875 56.203125 29.59375 
z
M 47.21875 32.234375 
Q 47.125 39.59375 43.09375 43.984375 
Q 39.0625 48.390625 32.421875 48.390625 
Q 24.90625 48.390625 20.390625 44.140625 
Q 15.875 39.890625 15.1875 32.171875 
z
" id="DejaVuSans-65"/>
      <path d="M 2.984375 54.6875 
L 12.5 54.6875 
L 29.59375 8.796875 
L 46.6875 54.6875 
L 56.203125 54.6875 
L 35.6875 0 
L 23.484375 0 
z
" id="DejaVuSans-76"/>
      <path d="M 34.28125 27.484375 
Q 23.390625 27.484375 19.1875 25 
Q 14.984375 22.515625 14.984375 16.5 
Q 14.984375 11.71875 18.140625 8.90625 
Q 21.296875 6.109375 26.703125 6.109375 
Q 34.1875 6.109375 38.703125 11.40625 
Q 43.21875 16.703125 43.21875 25.484375 
L 43.21875 27.484375 
z
M 52.203125 31.203125 
L 52.203125 0 
L 43.21875 0 
L 43.21875 8.296875 
Q 40.140625 3.328125 35.546875 0.953125 
Q 30.953125 -1.421875 24.3125 -1.421875 
Q 15.921875 -1.421875 10.953125 3.296875 
Q 6 8.015625 6 15.921875 
Q 6 25.140625 12.171875 29.828125 
Q 18.359375 34.515625 30.609375 34.515625 
L 43.21875 34.515625 
L 43.21875 35.40625 
Q 43.21875 41.609375 39.140625 45 
Q 35.0625 48.390625 27.6875 48.390625 
Q 23 48.390625 18.546875 47.265625 
Q 14.109375 46.140625 10.015625 43.890625 
L 10.015625 52.203125 
Q 14.9375 54.109375 19.578125 55.046875 
Q 24.21875 56 28.609375 56 
Q 40.484375 56 46.34375 49.84375 
Q 52.203125 43.703125 52.203125 31.203125 
z
" id="DejaVuSans-61"/>
      <path d="M 44.28125 53.078125 
L 44.28125 44.578125 
Q 40.484375 46.53125 36.375 47.5 
Q 32.28125 48.484375 27.875 48.484375 
Q 21.1875 48.484375 17.84375 46.4375 
Q 14.5 44.390625 14.5 40.28125 
Q 14.5 37.15625 16.890625 35.375 
Q 19.28125 33.59375 26.515625 31.984375 
L 29.59375 31.296875 
Q 39.15625 29.25 43.1875 25.515625 
Q 47.21875 21.78125 47.21875 15.09375 
Q 47.21875 7.46875 41.1875 3.015625 
Q 35.15625 -1.421875 24.609375 -1.421875 
Q 20.21875 -1.421875 15.453125 -0.5625 
Q 10.6875 0.296875 5.421875 2 
L 5.421875 11.28125 
Q 10.40625 8.6875 15.234375 7.390625 
Q 20.0625 6.109375 24.8125 6.109375 
Q 31.15625 6.109375 34.5625 8.28125 
Q 37.984375 10.453125 37.984375 14.40625 
Q 37.984375 18.0625 35.515625 20.015625 
Q 33.0625 21.96875 24.703125 23.78125 
L 21.578125 24.515625 
Q 13.234375 26.265625 9.515625 29.90625 
Q 5.8125 33.546875 5.8125 39.890625 
Q 5.8125 47.609375 11.28125 51.796875 
Q 16.75 56 26.8125 56 
Q 31.78125 56 36.171875 55.265625 
Q 40.578125 54.546875 44.28125 53.078125 
z
" id="DejaVuSans-73"/>
      <path d="M 25.390625 72.90625 
L 33.6875 72.90625 
L 8.296875 -9.28125 
L 0 -9.28125 
z
" id="DejaVuSans-2f"/>
      <path d="M 45.40625 46.390625 
L 45.40625 75.984375 
L 54.390625 75.984375 
L 54.390625 0 
L 45.40625 0 
L 45.40625 8.203125 
Q 42.578125 3.328125 38.25 0.953125 
Q 33.9375 -1.421875 27.875 -1.421875 
Q 17.96875 -1.421875 11.734375 6.484375 
Q 5.515625 14.40625 5.515625 27.296875 
Q 5.515625 40.1875 11.734375 48.09375 
Q 17.96875 56 27.875 56 
Q 33.9375 56 38.25 53.625 
Q 42.578125 51.265625 45.40625 46.390625 
z
M 14.796875 27.296875 
Q 14.796875 17.390625 18.875 11.75 
Q 22.953125 6.109375 30.078125 6.109375 
Q 37.203125 6.109375 41.296875 11.75 
Q 45.40625 17.390625 45.40625 27.296875 
Q 45.40625 37.203125 41.296875 42.84375 
Q 37.203125 48.484375 30.078125 48.484375 
Q 22.953125 48.484375 18.875 42.84375 
Q 14.796875 37.203125 14.796875 27.296875 
z
" id="DejaVuSans-64"/>
      <path d="M 9.421875 54.6875 
L 18.40625 54.6875 
L 18.40625 0 
L 9.421875 0 
z
M 9.421875 75.984375 
L 18.40625 75.984375 
L 18.40625 64.59375 
L 9.421875 64.59375 
z
" id="DejaVuSans-69"/>
      <path d="M 52 44.1875 
Q 55.375 50.25 60.0625 53.125 
Q 64.75 56 71.09375 56 
Q 79.640625 56 84.28125 50.015625 
Q 88.921875 44.046875 88.921875 33.015625 
L 88.921875 0 
L 79.890625 0 
L 79.890625 32.71875 
Q 79.890625 40.578125 77.09375 44.375 
Q 74.3125 48.1875 68.609375 48.1875 
Q 61.625 48.1875 57.5625 43.546875 
Q 53.515625 38.921875 53.515625 30.90625 
L 53.515625 0 
L 44.484375 0 
L 44.484375 32.71875 
Q 44.484375 40.625 41.703125 44.40625 
Q 38.921875 48.1875 33.109375 48.1875 
Q 26.21875 48.1875 22.15625 43.53125 
Q 18.109375 38.875 18.109375 30.90625 
L 18.109375 0 
L 9.078125 0 
L 9.078125 54.6875 
L 18.109375 54.6875 
L 18.109375 46.1875 
Q 21.1875 51.21875 25.484375 53.609375 
Q 29.78125 56 35.6875 56 
Q 41.65625 56 45.828125 52.96875 
Q 50 49.953125 52 44.1875 
z
" id="DejaVuSans-6d"/>
      <path d="M 54.890625 33.015625 
L 54.890625 0 
L 45.90625 0 
L 45.90625 32.71875 
Q 45.90625 40.484375 42.875 44.328125 
Q 39.84375 48.1875 33.796875 48.1875 
Q 26.515625 48.1875 22.3125 43.546875 
Q 18.109375 38.921875 18.109375 30.90625 
L 18.109375 0 
L 9.078125 0 
L 9.078125 54.6875 
L 18.109375 54.6875 
L 18.109375 46.1875 
Q 21.34375 51.125 25.703125 53.5625 
Q 30.078125 56 35.796875 56 
Q 45.21875 56 50.046875 50.171875 
Q 54.890625 44.34375 54.890625 33.015625 
z
" id="DejaVuSans-6e"/>
      <path d="M 8.015625 75.875 
L 15.828125 75.875 
Q 23.140625 64.359375 26.78125 53.3125 
Q 30.421875 42.28125 30.421875 31.390625 
Q 30.421875 20.453125 26.78125 9.375 
Q 23.140625 -1.703125 15.828125 -13.1875 
L 8.015625 -13.1875 
Q 14.5 -2 17.703125 9.0625 
Q 20.90625 20.125 20.90625 31.390625 
Q 20.90625 42.671875 17.703125 53.65625 
Q 14.5 64.65625 8.015625 75.875 
z
" id="DejaVuSans-29"/>
     </defs>
     <g transform="translate(107.211219 338.153594)scale(0.17 -0.17)">
      <use xlink:href="#DejaVuSans-6c"/>
      <use x="27.783203" xlink:href="#DejaVuSans-6f"/>
      <use x="88.964844" xlink:href="#DejaVuSans-67"/>
      <use x="152.441406" xlink:href="#DejaVuSans-31"/>
      <use x="216.064453" xlink:href="#DejaVuSans-30"/>
      <use x="279.6875" xlink:href="#DejaVuSans-28"/>
      <use x="318.701172" xlink:href="#DejaVuSans-23"/>
      <use x="402.490234" xlink:href="#DejaVuSans-20"/>
      <use x="434.277344" xlink:href="#DejaVuSans-66"/>
      <use x="469.404297" xlink:href="#DejaVuSans-2d"/>
      <use x="505.488281" xlink:href="#DejaVuSans-65"/>
      <use x="567.011719" xlink:href="#DejaVuSans-76"/>
      <use x="626.191406" xlink:href="#DejaVuSans-61"/>
      <use x="687.470703" xlink:href="#DejaVuSans-6c"/>
      <use x="715.253906" xlink:href="#DejaVuSans-73"/>
      <use x="767.353516" xlink:href="#DejaVuSans-20"/>
      <use x="799.140625" xlink:href="#DejaVuSans-2f"/>
      <use x="832.832031" xlink:href="#DejaVuSans-20"/>
      <use x="864.619141" xlink:href="#DejaVuSans-64"/>
      <use x="928.095703" xlink:href="#DejaVuSans-69"/>
      <use x="955.878906" xlink:href="#DejaVuSans-6d"/>
      <use x="1053.291016" xlink:href="#DejaVuSans-65"/>
      <use x="1114.814453" xlink:href="#DejaVuSans-6e"/>
      <use x="1178.193359" xlink:href="#DejaVuSans-73"/>
      <use x="1230.292969" xlink:href="#DejaVuSans-69"/>
      <use x="1258.076172" xlink:href="#DejaVuSans-6f"/>
      <use x="1319.257812" xlink:href="#DejaVuSans-6e"/>
      <use x="1382.636719" xlink:href="#DejaVuSans-29"/>
     </g>
    </g>
   </g>
   <g id="matplotlib.axis_2">
    <g id="ytick_1">
     <g id="line2d_11">
      <path clip-path="url(#pb9b6295dbe)" d="M 56.12 294.88 
L 399.984 294.88 
" style="fill:none;stroke:#b0b0b0;stroke-linecap:square;stroke-width:0.8;"/>
     </g>
     <g id="line2d_12">
      <defs>
       <path d="M 0 0 
L -3.5 0 
" id="m503924dfda" style="stroke:#000000;stroke-width:0.8;"/>
      </defs>
      <g>
       <use style="stroke:#000000;stroke-width:0.8;" x="56.12" xlink:href="#m503924dfda" y="294.88"/>
      </g>
     </g>
     <g id="text_7">
      <!-- 0.0 -->
      <defs>
       <path d="M 10.6875 12.40625 
L 21 12.40625 
L 21 0 
L 10.6875 0 
z
" id="DejaVuSans-2e"/>
      </defs>
      <g transform="translate(23.675 300.95875)scale(0.16 -0.16)">
       <use xlink:href="#DejaVuSans-30"/>
       <use x="63.623047" xlink:href="#DejaVuSans-2e"/>
       <use x="95.410156" xlink:href="#DejaVuSans-30"/>
      </g>
     </g>
    </g>
    <g id="ytick_2">
     <g id="line2d_13">
      <path clip-path="url(#pb9b6295dbe)" d="M 56.12 241.406733 
L 399.984 241.406733 
" style="fill:none;stroke:#b0b0b0;stroke-linecap:square;stroke-width:0.8;"/>
     </g>
     <g id="line2d_14">
      <g>
       <use style="stroke:#000000;stroke-width:0.8;" x="56.12" xlink:href="#m503924dfda" y="241.406733"/>
      </g>
     </g>
     <g id="text_8">
      <!-- 0.2 -->
      <g transform="translate(23.675 247.485483)scale(0.16 -0.16)">
       <use xlink:href="#DejaVuSans-30"/>
       <use x="63.623047" xlink:href="#DejaVuSans-2e"/>
       <use x="95.410156" xlink:href="#DejaVuSans-32"/>
      </g>
     </g>
    </g>
    <g id="ytick_3">
     <g id="line2d_15">
      <path clip-path="url(#pb9b6295dbe)" d="M 56.12 187.933465 
L 399.984 187.933465 
" style="fill:none;stroke:#b0b0b0;stroke-linecap:square;stroke-width:0.8;"/>
     </g>
     <g id="line2d_16">
      <g>
       <use style="stroke:#000000;stroke-width:0.8;" x="56.12" xlink:href="#m503924dfda" y="187.933465"/>
      </g>
     </g>
     <g id="text_9">
      <!-- 0.4 -->
      <g transform="translate(23.675 194.012215)scale(0.16 -0.16)">
       <use xlink:href="#DejaVuSans-30"/>
       <use x="63.623047" xlink:href="#DejaVuSans-2e"/>
       <use x="95.410156" xlink:href="#DejaVuSans-34"/>
      </g>
     </g>
    </g>
    <g id="ytick_4">
     <g id="line2d_17">
      <path clip-path="url(#pb9b6295dbe)" d="M 56.12 134.460198 
L 399.984 134.460198 
" style="fill:none;stroke:#b0b0b0;stroke-linecap:square;stroke-width:0.8;"/>
     </g>
     <g id="line2d_18">
      <g>
       <use style="stroke:#000000;stroke-width:0.8;" x="56.12" xlink:href="#m503924dfda" y="134.460198"/>
      </g>
     </g>
     <g id="text_10">
      <!-- 0.6 -->
      <g transform="translate(23.675 140.538948)scale(0.16 -0.16)">
       <use xlink:href="#DejaVuSans-30"/>
       <use x="63.623047" xlink:href="#DejaVuSans-2e"/>
       <use x="95.410156" xlink:href="#DejaVuSans-36"/>
      </g>
     </g>
    </g>
    <g id="ytick_5">
     <g id="line2d_19">
      <path clip-path="url(#pb9b6295dbe)" d="M 56.12 80.986931 
L 399.984 80.986931 
" style="fill:none;stroke:#b0b0b0;stroke-linecap:square;stroke-width:0.8;"/>
     </g>
     <g id="line2d_20">
      <g>
       <use style="stroke:#000000;stroke-width:0.8;" x="56.12" xlink:href="#m503924dfda" y="80.986931"/>
      </g>
     </g>
     <g id="text_11">
      <!-- 0.8 -->
      <g transform="translate(23.675 87.065681)scale(0.16 -0.16)">
       <use xlink:href="#DejaVuSans-30"/>
       <use x="63.623047" xlink:href="#DejaVuSans-2e"/>
       <use x="95.410156" xlink:href="#DejaVuSans-38"/>
      </g>
     </g>
    </g>
    <g id="ytick_6">
     <g id="line2d_21">
      <path clip-path="url(#pb9b6295dbe)" d="M 56.12 27.513663 
L 399.984 27.513663 
" style="fill:none;stroke:#b0b0b0;stroke-linecap:square;stroke-width:0.8;"/>
     </g>
     <g id="line2d_22">
      <g>
       <use style="stroke:#000000;stroke-width:0.8;" x="56.12" xlink:href="#m503924dfda" y="27.513663"/>
      </g>
     </g>
     <g id="text_12">
      <!-- 1.0 -->
      <g transform="translate(23.675 33.592413)scale(0.16 -0.16)">
       <use xlink:href="#DejaVuSans-31"/>
       <use x="63.623047" xlink:href="#DejaVuSans-2e"/>
       <use x="95.410156" xlink:href="#DejaVuSans-30"/>
      </g>
     </g>
    </g>
    <g id="text_13">
     <!-- Fraction of function,target pairs -->
     <defs>
      <path d="M 9.8125 72.90625 
L 51.703125 72.90625 
L 51.703125 64.59375 
L 19.671875 64.59375 
L 19.671875 43.109375 
L 48.578125 43.109375 
L 48.578125 34.8125 
L 19.671875 34.8125 
L 19.671875 0 
L 9.8125 0 
z
" id="DejaVuSans-46"/>
      <path d="M 41.109375 46.296875 
Q 39.59375 47.171875 37.8125 47.578125 
Q 36.03125 48 33.890625 48 
Q 26.265625 48 22.1875 43.046875 
Q 18.109375 38.09375 18.109375 28.8125 
L 18.109375 0 
L 9.078125 0 
L 9.078125 54.6875 
L 18.109375 54.6875 
L 18.109375 46.1875 
Q 20.953125 51.171875 25.484375 53.578125 
Q 30.03125 56 36.53125 56 
Q 37.453125 56 38.578125 55.875 
Q 39.703125 55.765625 41.0625 55.515625 
z
" id="DejaVuSans-72"/>
      <path d="M 48.78125 52.59375 
L 48.78125 44.1875 
Q 44.96875 46.296875 41.140625 47.34375 
Q 37.3125 48.390625 33.40625 48.390625 
Q 24.65625 48.390625 19.8125 42.84375 
Q 14.984375 37.3125 14.984375 27.296875 
Q 14.984375 17.28125 19.8125 11.734375 
Q 24.65625 6.203125 33.40625 6.203125 
Q 37.3125 6.203125 41.140625 7.25 
Q 44.96875 8.296875 48.78125 10.40625 
L 48.78125 2.09375 
Q 45.015625 0.34375 40.984375 -0.53125 
Q 36.96875 -1.421875 32.421875 -1.421875 
Q 20.0625 -1.421875 12.78125 6.34375 
Q 5.515625 14.109375 5.515625 27.296875 
Q 5.515625 40.671875 12.859375 48.328125 
Q 20.21875 56 33.015625 56 
Q 37.15625 56 41.109375 55.140625 
Q 45.0625 54.296875 48.78125 52.59375 
z
" id="DejaVuSans-63"/>
      <path d="M 18.3125 70.21875 
L 18.3125 54.6875 
L 36.8125 54.6875 
L 36.8125 47.703125 
L 18.3125 47.703125 
L 18.3125 18.015625 
Q 18.3125 11.328125 20.140625 9.421875 
Q 21.96875 7.515625 27.59375 7.515625 
L 36.8125 7.515625 
L 36.8125 0 
L 27.59375 0 
Q 17.1875 0 13.234375 3.875 
Q 9.28125 7.765625 9.28125 18.015625 
L 9.28125 47.703125 
L 2.6875 47.703125 
L 2.6875 54.6875 
L 9.28125 54.6875 
L 9.28125 70.21875 
z
" id="DejaVuSans-74"/>
      <path d="M 8.5 21.578125 
L 8.5 54.6875 
L 17.484375 54.6875 
L 17.484375 21.921875 
Q 17.484375 14.15625 20.5 10.265625 
Q 23.53125 6.390625 29.59375 6.390625 
Q 36.859375 6.390625 41.078125 11.03125 
Q 45.3125 15.671875 45.3125 23.6875 
L 45.3125 54.6875 
L 54.296875 54.6875 
L 54.296875 0 
L 45.3125 0 
L 45.3125 8.40625 
Q 42.046875 3.421875 37.71875 1 
Q 33.40625 -1.421875 27.6875 -1.421875 
Q 18.265625 -1.421875 13.375 4.4375 
Q 8.5 10.296875 8.5 21.578125 
z
M 31.109375 56 
z
" id="DejaVuSans-75"/>
      <path d="M 11.71875 12.40625 
L 22.015625 12.40625 
L 22.015625 4 
L 14.015625 -11.625 
L 7.71875 -11.625 
L 11.71875 4 
z
" id="DejaVuSans-2c"/>
      <path d="M 18.109375 8.203125 
L 18.109375 -20.796875 
L 9.078125 -20.796875 
L 9.078125 54.6875 
L 18.109375 54.6875 
L 18.109375 46.390625 
Q 20.953125 51.265625 25.265625 53.625 
Q 29.59375 56 35.59375 56 
Q 45.5625 56 51.78125 48.09375 
Q 58.015625 40.1875 58.015625 27.296875 
Q 58.015625 14.40625 51.78125 6.484375 
Q 45.5625 -1.421875 35.59375 -1.421875 
Q 29.59375 -1.421875 25.265625 0.953125 
Q 20.953125 3.328125 18.109375 8.203125 
z
M 48.6875 27.296875 
Q 48.6875 37.203125 44.609375 42.84375 
Q 40.53125 48.484375 33.40625 48.484375 
Q 26.265625 48.484375 22.1875 42.84375 
Q 18.109375 37.203125 18.109375 27.296875 
Q 18.109375 17.390625 22.1875 11.75 
Q 26.265625 6.109375 33.40625 6.109375 
Q 40.53125 6.109375 44.609375 11.75 
Q 48.6875 17.390625 48.6875 27.296875 
z
" id="DejaVuSans-70"/>
     </defs>
     <g transform="translate(16.139531 294.999375)rotate(-90)scale(0.17 -0.17)">
      <use xlink:href="#DejaVuSans-46"/>
      <use x="57.410156" xlink:href="#DejaVuSans-72"/>
      <use x="98.523438" xlink:href="#DejaVuSans-61"/>
      <use x="159.802734" xlink:href="#DejaVuSans-63"/>
      <use x="214.783203" xlink:href="#DejaVuSans-74"/>
      <use x="253.992188" xlink:href="#DejaVuSans-69"/>
      <use x="281.775391" xlink:href="#DejaVuSans-6f"/>
      <use x="342.957031" xlink:href="#DejaVuSans-6e"/>
      <use x="406.335938" xlink:href="#DejaVuSans-20"/>
      <use x="438.123047" xlink:href="#DejaVuSans-6f"/>
      <use x="499.304688" xlink:href="#DejaVuSans-66"/>
      <use x="534.509766" xlink:href="#DejaVuSans-20"/>
      <use x="566.296875" xlink:href="#DejaVuSans-66"/>
      <use x="601.501953" xlink:href="#DejaVuSans-75"/>
      <use x="664.880859" xlink:href="#DejaVuSans-6e"/>
      <use x="728.259766" xlink:href="#DejaVuSans-63"/>
      <use x="783.240234" xlink:href="#DejaVuSans-74"/>
      <use x="822.449219" xlink:href="#DejaVuSans-69"/>
      <use x="850.232422" xlink:href="#DejaVuSans-6f"/>
      <use x="911.414062" xlink:href="#DejaVuSans-6e"/>
      <use x="974.792969" xlink:href="#DejaVuSans-2c"/>
      <use x="1006.580078" xlink:href="#DejaVuSans-74"/>
      <use x="1045.789062" xlink:href="#DejaVuSans-61"/>
      <use x="1107.068359" xlink:href="#DejaVuSans-72"/>
      <use x="1148.166016" xlink:href="#DejaVuSans-67"/>
      <use x="1211.642578" xlink:href="#DejaVuSans-65"/>
      <use x="1273.166016" xlink:href="#DejaVuSans-74"/>
      <use x="1312.375" xlink:href="#DejaVuSans-20"/>
      <use x="1344.162109" xlink:href="#DejaVuSans-70"/>
      <use x="1407.638672" xlink:href="#DejaVuSans-61"/>
      <use x="1468.917969" xlink:href="#DejaVuSans-69"/>
      <use x="1496.701172" xlink:href="#DejaVuSans-72"/>
      <use x="1537.814453" xlink:href="#DejaVuSans-73"/>
     </g>
    </g>
   </g>
   <g id="line2d_23">
    <defs>
     <path d="M 0 1.5 
C 0.397805 1.5 0.77937 1.341951 1.06066 1.06066 
C 1.341951 0.77937 1.5 0.397805 1.5 0 
C 1.5 -0.397805 1.341951 -0.77937 1.06066 -1.06066 
C 0.77937 -1.341951 0.397805 -1.5 0 -1.5 
C -0.397805 -1.5 -0.77937 -1.341951 -1.06066 -1.06066 
C -1.341951 -0.77937 -1.5 -0.397805 -1.5 0 
C -1.5 0.397805 -1.341951 0.77937 -1.06066 1.06066 
C -0.77937 1.341951 -0.397805 1.5 0 1.5 
z
" id="m004c36be44" style="stroke:#00bfbf;"/>
    </defs>
    <g>
     <use style="fill:#00bfbf;stroke:#00bfbf;" x="327.37601" xlink:href="#m004c36be44" y="27.513663"/>
     <use style="fill:#00bfbf;stroke:#00bfbf;" x="327.37601" xlink:href="#m004c36be44" y="27.513663"/>
    </g>
   </g>
   <g id="line2d_24">
    <path d="M 56.12 294.88 
L 56.12 272.861596 
L 68.045504 272.861596 
L 68.045504 270.240357 
L 75.021477 270.240357 
L 75.021477 269.716109 
L 83.810164 269.716109 
L 83.810164 268.667614 
L 86.946982 268.667614 
L 86.946982 262.376641 
L 89.599124 262.376641 
L 89.599124 260.803898 
L 91.896513 260.803898 
L 91.896513 252.940182 
L 95.735668 252.940182 
L 95.735668 252.415935 
L 97.375467 252.415935 
L 97.375467 251.891687 
L 98.872486 251.891687 
L 98.872486 251.367439 
L 101.524628 251.367439 
L 101.524628 250.318944 
L 107.661173 250.318944 
L 107.661173 249.270448 
L 109.300972 249.270448 
L 109.300972 248.221953 
L 110.797991 248.221953 
L 110.797991 244.552219 
L 111.500328 244.552219 
L 111.500328 240.882485 
L 112.175115 240.882485 
L 112.175115 239.309742 
L 112.824432 239.309742 
L 112.824432 238.261246 
L 115.20129 238.261246 
L 115.20129 236.164255 
L 115.747522 236.164255 
L 115.747522 234.591512 
L 119.586677 234.591512 
L 119.586677 229.873283 
L 122.361274 229.873283 
L 122.361274 228.824787 
L 123.425832 228.824787 
L 123.425832 223.58231 
L 133.728734 223.58231 
L 133.728734 222.533815 
L 136.026124 222.533815 
L 136.026124 222.009567 
L 136.834012 222.009567 
L 136.834012 218.864081 
L 137.301141 218.864081 
L 137.301141 216.242842 
L 140.386678 216.242842 
L 140.386678 215.718594 
L 143.002096 215.718594 
L 143.002096 214.145851 
L 145.368278 214.145851 
L 145.368278 213.097356 
L 145.935523 213.097356 
L 145.935523 209.427622 
L 147.448035 209.427622 
L 147.448035 208.379126 
L 148.521108 208.379126 
L 148.521108 207.330631 
L 148.759517 207.330631 
L 148.759517 206.806383 
L 151.184678 206.806383 
L 151.253087 203.136649 
L 151.988164 203.136649 
L 152.053458 192.127447 
L 152.312182 192.127447 
L 152.312182 191.078952 
L 153.127137 191.078952 
L 153.127137 187.409218 
L 155.36319 187.409218 
L 155.36319 183.739484 
L 155.840397 183.739484 
L 155.840397 183.215236 
L 156.75685 183.215236 
L 156.75685 181.642493 
L 159.585164 181.642493 
L 159.585164 179.545502 
L 159.752609 179.545502 
L 159.752609 177.972759 
L 161.531964 177.972759 
L 161.531964 177.448511 
L 162.374969 177.448511 
L 162.374969 175.875768 
L 168.657545 175.875768 
L 168.707127 169.584795 
L 171.69893 169.584795 
L 171.69893 166.439309 
L 175.641792 166.439309 
L 175.69135 161.196832 
L 179.374743 161.196832 
L 179.374743 160.672584 
L 179.717534 160.672584 
L 179.717534 160.148336 
L 182.395763 160.148336 
L 182.395763 159.624089 
L 189.475693 159.624089 
L 189.475693 159.099841 
L 198.955105 159.099841 
L 198.955105 150.18763 
L 224.603459 150.18763 
L 224.603459 149.663382 
L 225.316862 149.663382 
L 225.316862 148.614886 
L 226.411559 148.614886 
L 226.411559 147.566391 
L 226.669148 147.566391 
L 226.669148 147.042143 
L 227.522855 147.042143 
L 227.522855 146.517896 
L 229.582514 146.517896 
L 229.582514 145.993648 
L 230.423553 145.993648 
L 230.423553 145.4694 
L 231.069038 145.4694 
L 231.069038 144.420905 
L 231.463084 144.420905 
L 231.463084 143.372409 
L 231.76105 143.372409 
L 231.76105 142.323914 
L 231.918174 142.323914 
L 231.918174 141.799666 
L 233.256696 141.799666 
L 233.256696 141.275418 
L 233.5334 141.275418 
L 233.5334 140.751171 
L 234.256814 140.751171 
L 234.256814 140.226923 
L 235.599064 140.226923 
L 235.599064 139.702675 
L 235.711287 139.702675 
L 235.711287 138.65418 
L 236.493853 138.65418 
L 236.493853 138.129932 
L 238.704664 138.129932 
L 238.704664 137.605684 
L 238.819024 137.605684 
L 238.819024 136.032941 
L 281.888728 136.032941 
L 281.968305 110.869051 
L 282.026705 110.869051 
L 282.026705 109.296308 
L 282.569528 109.296308 
L 282.649316 107.199317 
L 282.691962 107.199317 
L 282.782754 104.05383 
L 282.806095 104.05383 
L 282.893821 99.859849 
L 282.924628 99.859849 
L 283.017941 96.190115 
L 283.103282 96.190115 
L 283.213135 94.093124 
L 283.241467 94.093124 
L 283.334221 93.044628 
L 293.814457 93.044628 
L 293.883257 80.986931 
L 294.157898 80.986931 
L 294.220436 79.938435 
L 294.304565 79.938435 
L 294.388002 77.317197 
L 294.424771 77.317197 
L 294.499315 74.695958 
L 300.793222 74.695958 
L 300.836184 71.026224 
L 300.99414 71.026224 
L 301.092019 69.977729 
L 301.129329 69.977729 
L 301.217652 65.259499 
L 301.249877 65.259499 
L 301.249877 64.735251 
L 305.741948 64.735251 
L 305.774181 61.065517 
L 305.932906 61.065517 
L 306.032414 55.82304 
L 306.087871 55.82304 
L 306.112503 54.774545 
L 309.580888 54.774545 
L 309.606411 50.580563 
L 309.73356 50.580563 
L 309.840598 43.241095 
L 309.851893 43.241095 
L 309.877708 42.192599 
L 312.717115 42.192599 
L 312.738612 40.619856 
L 312.858915 40.619856 
L 312.946979 36.950122 
L 315.372772 36.950122 
L 315.387454 35.377379 
L 315.495327 35.377379 
L 315.544368 32.756141 
L 317.682369 32.756141 
L 317.682369 32.231893 
L 317.804563 32.231893 
L 317.8121 30.65915 
L 319.805635 30.65915 
L 319.805635 30.134902 
L 321.505157 30.134902 
L 321.505157 29.610654 
L 321.633606 29.610654 
L 321.633606 29.086407 
L 323.14499 29.086407 
L 323.14499 28.562159 
L 324.730749 28.562159 
L 324.730749 28.037911 
L 327.37601 28.037911 
L 327.37601 27.513663 
L 333.429677 27.513663 
L 333.429677 27.513663 
" style="fill:none;stroke:#00bfbf;stroke-linecap:square;stroke-width:1.5;"/>
   </g>
   <g id="line2d_25">
    <defs>
     <path d="M -6 0 
L 6 0 
M 0 6 
L 0 -6 
" id="m53b19df52d" style="stroke:#00bfbf;stroke-width:1.5;"/>
    </defs>
    <g>
     <use style="fill-opacity:0;stroke:#00bfbf;stroke-width:1.5;" x="110.797991" xlink:href="#m53b19df52d" y="248.221953"/>
     <use style="fill-opacity:0;stroke:#00bfbf;stroke-width:1.5;" x="198.955105" xlink:href="#m53b19df52d" y="159.099841"/>
     <use style="fill-opacity:0;stroke:#00bfbf;stroke-width:1.5;" x="293.836687" xlink:href="#m53b19df52d" y="84.656665"/>
     <use style="fill-opacity:0;stroke:#00bfbf;stroke-width:1.5;" x="327.37601" xlink:href="#m53b19df52d" y="27.513663"/>
     <use style="fill-opacity:0;stroke:#00bfbf;stroke-width:1.5;" x="333.429677" xlink:href="#m53b19df52d" y="27.513663"/>
    </g>
   </g>
   <g id="line2d_26">
    <path style="fill:none;stroke:#00bfbf;stroke-linecap:square;stroke-width:1.5;"/>
    <g/>
   </g>
   <g id="line2d_27">
    <path clip-path="url(#pb9b6295dbe)" d="M 281.888522 136.032941 
" style="fill:none;stroke:#00bfbf;stroke-linecap:square;stroke-width:1.5;"/>
    <defs>
     <path d="M -12 12 
L 12 -12 
M -12 -12 
L 12 12 
" id="md349ff9405" style="stroke:#00bfbf;stroke-width:3;"/>
    </defs>
    <g clip-path="url(#pb9b6295dbe)">
     <use style="fill:#00bfbf;stroke:#00bfbf;stroke-width:3;" x="281.888522" xlink:href="#md349ff9405" y="136.032941"/>
    </g>
   </g>
   <g id="line2d_28">
    <defs>
     <path d="M 0 1.5 
C 0.397805 1.5 0.77937 1.341951 1.06066 1.06066 
C 1.341951 0.77937 1.5 0.397805 1.5 0 
C 1.5 -0.397805 1.341951 -0.77937 1.06066 -1.06066 
C 0.77937 -1.341951 0.397805 -1.5 0 -1.5 
C -0.397805 -1.5 -0.77937 -1.341951 -1.06066 -1.06066 
C -1.341951 -0.77937 -1.5 -0.397805 -1.5 0 
C -1.5 0.397805 -1.341951 0.77937 -1.06066 1.06066 
C -0.77937 1.341951 -0.397805 1.5 0 1.5 
z
" id="m0af2a9efeb" style="stroke:#008000;"/>
    </defs>
    <g>
     <use style="fill:#008000;stroke:#008000;" x="330.299837" xlink:href="#m0af2a9efeb" y="27.513663"/>
     <use style="fill:#008000;stroke:#008000;" x="330.299837" xlink:href="#m0af2a9efeb" y="27.513663"/>
    </g>
   </g>
   <g id="line2d_29">
    <path d="M 49.144027 294.88 
L 49.144027 283.870798 
L 61.069532 283.870798 
L 61.069532 281.773807 
L 68.045504 281.773807 
L 68.045504 280.725312 
L 72.995036 280.725312 
L 72.995036 280.201064 
L 76.834191 280.201064 
L 76.834191 278.628321 
L 79.971009 278.628321 
L 79.971009 278.104073 
L 82.623151 278.104073 
L 82.623151 277.055578 
L 84.92054 277.055578 
L 84.92054 271.288853 
L 86.946982 271.288853 
L 86.946982 268.667614 
L 88.759695 268.667614 
L 88.759695 268.143366 
L 90.399494 268.143366 
L 90.399494 267.619119 
L 93.273637 267.619119 
L 93.273637 265.522128 
L 96.846045 265.522128 
L 96.846045 264.99788 
L 98.872486 264.99788 
L 98.872486 263.949385 
L 99.802705 263.949385 
L 99.802705 263.425137 
L 101.524628 263.425137 
L 101.524628 261.328146 
L 103.089785 261.328146 
L 103.089785 260.803898 
L 105.199142 260.803898 
L 105.199142 260.279651 
L 108.225317 260.279651 
L 108.225317 258.706907 
L 109.814588 258.706907 
L 109.814588 256.609917 
L 110.313314 256.609917 
L 110.313314 255.561421 
L 113.854971 255.561421 
L 113.854971 254.512926 
L 115.747522 254.512926 
L 115.747522 253.46443 
L 120.426105 253.46443 
L 120.426105 251.891687 
L 120.697054 251.891687 
L 120.697054 251.367439 
L 125.375637 251.367439 
L 125.375637 250.843192 
L 125.979378 250.843192 
L 125.979378 250.318944 
L 129.539422 250.318944 
L 129.539422 248.746201 
L 131.223017 248.746201 
L 131.223017 247.173458 
L 131.654961 247.173458 
L 131.654961 246.124962 
L 134.286778 246.124962 
L 134.286778 245.600714 
L 135.804122 245.600714 
L 135.804122 243.503724 
L 136.568909 243.503724 
L 136.568909 240.882485 
L 138.866299 240.882485 
L 138.866299 240.358237 
L 140.214628 240.358237 
L 140.214628 238.785494 
L 141.303377 238.785494 
L 141.303377 237.212751 
L 143.365849 237.212751 
L 143.365849 236.688503 
L 143.509224 236.688503 
L 143.509224 236.164255 
L 145.142532 236.164255 
L 145.142532 233.018769 
L 145.527731 233.018769 
L 145.591101 231.446026 
L 146.394347 231.446026 
L 146.394347 229.873283 
L 146.929256 229.873283 
L 146.929256 227.252044 
L 151.023991 227.252044 
L 151.023991 226.203549 
L 152.009956 226.203549 
L 152.009956 225.679301 
L 153.350185 225.679301 
L 153.350185 223.058063 
L 154.742799 223.058063 
L 154.742799 220.436824 
L 154.890799 220.436824 
L 154.890799 218.864081 
L 155.470386 218.864081 
L 155.470386 218.339833 
L 157.984582 218.339833 
L 157.984582 215.718594 
L 158.737321 215.718594 
L 158.737321 214.670099 
L 165.174662 214.670099 
L 165.174662 214.145851 
L 166.425055 214.145851 
L 166.425055 213.097356 
L 169.283246 213.097356 
L 169.283246 212.573108 
L 169.457916 212.573108 
L 169.457916 210.476117 
L 170.867822 210.476117 
L 170.867822 207.854879 
L 173.951186 207.854879 
L 173.951186 206.806383 
L 174.442958 206.806383 
L 174.442958 205.23364 
L 179.498584 205.23364 
L 179.498584 204.185145 
L 183.415127 204.185145 
L 183.415127 203.660897 
L 184.417239 203.660897 
L 184.417239 201.563906 
L 184.932608 201.563906 
L 184.932608 199.991163 
L 186.202116 199.991163 
L 186.202116 194.224438 
L 186.626658 194.224438 
L 186.638302 193.175943 
L 189.08131 193.175943 
L 189.08131 190.554704 
L 191.335722 190.554704 
L 191.335722 190.030456 
L 193.864658 190.030456 
L 193.864658 188.981961 
L 194.780581 188.981961 
L 194.780581 187.409218 
L 195.879623 187.409218 
L 195.879623 185.312227 
L 196.644706 185.312227 
L 196.644706 184.263731 
L 198.106713 184.263731 
L 198.106713 183.739484 
L 199.359944 183.739484 
L 199.387707 180.593997 
L 200.813841 180.593997 
L 200.813841 179.545502 
L 205.177063 179.545502 
L 205.177063 179.021254 
L 212.406762 179.021254 
L 212.406762 177.972759 
L 214.018375 177.972759 
L 214.018375 176.400016 
L 214.698131 176.400016 
L 214.698131 175.875768 
L 216.982271 175.875768 
L 216.982271 174.827272 
L 217.85184 174.827272 
L 217.871747 173.778777 
L 219.780731 173.778777 
L 219.780731 172.730281 
L 220.687416 172.730281 
L 220.687416 172.206034 
L 222.721274 172.206034 
L 222.721274 171.681786 
L 223.880583 171.681786 
L 223.880583 171.157538 
L 224.971071 171.157538 
L 224.971071 170.633291 
L 225.342043 170.633291 
L 225.342043 170.109043 
L 226.664602 170.109043 
L 226.664602 169.584795 
L 226.815111 169.584795 
L 226.815111 169.060547 
L 227.13271 169.060547 
L 227.13271 168.5363 
L 227.386886 168.5363 
L 227.386886 168.012052 
L 228.534109 168.012052 
L 228.534109 167.487804 
L 228.930208 167.487804 
L 228.930208 166.439309 
L 229.275451 166.439309 
L 229.275451 165.915061 
L 230.480327 165.915061 
L 230.577025 164.342318 
L 232.779822 164.342318 
L 232.779822 162.769575 
L 274.912859 162.769575 
L 275.011433 140.226923 
L 275.029385 140.226923 
L 275.116452 133.411703 
L 275.208764 133.411703 
L 275.302736 131.838959 
L 275.424478 131.838959 
L 275.526349 130.266216 
L 275.569526 130.266216 
L 275.62455 129.217721 
L 275.706989 129.217721 
L 275.783506 124.499491 
L 275.851118 124.499491 
L 275.95102 122.4025 
L 275.989816 122.4025 
L 276.093063 120.829757 
L 276.111238 120.829757 
L 276.166127 118.732766 
L 276.257763 118.732766 
L 276.338148 117.684271 
L 286.838208 117.684271 
L 286.944428 101.956839 
L 286.953591 101.956839 
L 287.034253 100.384096 
L 287.095922 100.384096 
L 287.132222 99.335601 
L 287.22787 99.335601 
L 287.330716 96.190115 
L 287.351184 96.190115 
L 287.458709 94.617371 
L 287.476257 94.617371 
L 287.485953 93.568876 
L 293.81413 93.568876 
L 293.908976 79.414188 
L 293.945074 79.414188 
L 294.054649 77.841444 
L 294.074883 77.841444 
L 294.172396 75.220206 
L 294.244498 75.220206 
L 294.288963 74.17171 
L 298.767231 74.17171 
L 298.807014 66.832242 
L 298.930169 66.832242 
L 299.033032 64.735251 
L 299.051459 64.735251 
L 299.120984 62.114013 
L 302.606559 62.114013 
L 302.702322 55.298792 
L 302.759701 55.298792 
L 302.860842 52.153306 
L 305.742209 52.153306 
L 305.838147 46.386581 
L 305.906965 46.386581 
L 305.945202 45.338086 
L 308.397231 45.338086 
L 308.496494 40.619856 
L 308.574791 40.619856 
L 308.574791 40.095609 
L 310.70371 40.095609 
L 310.809222 36.950122 
L 310.86308 36.950122 
L 310.86308 36.425875 
L 312.720909 36.425875 
L 312.813677 34.328884 
L 312.849693 34.328884 
L 312.849693 33.804636 
L 314.549545 33.804636 
L 314.60689 32.756141 
L 316.177029 32.756141 
L 316.177029 32.231893 
L 319.124305 32.231893 
L 319.127464 31.183397 
L 320.323755 31.183397 
L 320.326721 30.134902 
L 321.515789 30.134902 
L 321.515789 29.086407 
L 323.721118 29.086407 
L 323.721118 28.562159 
L 328.157003 28.562159 
L 328.157003 28.037911 
L 330.299837 28.037911 
L 330.299837 27.513663 
L 333.429677 27.513663 
L 333.429677 27.513663 
" style="fill:none;stroke:#008000;stroke-linecap:square;stroke-width:1.5;"/>
   </g>
   <g id="line2d_30">
    <defs>
     <path d="M -0 6 
L 6 -6 
L -6 -6 
z
" id="m9736e960d7" style="stroke:#008000;stroke-linejoin:miter;stroke-width:1.5;"/>
    </defs>
    <g>
     <use style="fill-opacity:0;stroke:#008000;stroke-linejoin:miter;stroke-width:1.5;" x="103.089785" xlink:href="#m9736e960d7" y="260.803898"/>
     <use style="fill-opacity:0;stroke:#008000;stroke-linejoin:miter;stroke-width:1.5;" x="166.425055" xlink:href="#m9736e960d7" y="214.145851"/>
     <use style="fill-opacity:0;stroke:#008000;stroke-linejoin:miter;stroke-width:1.5;" x="232.779822" xlink:href="#m9736e960d7" y="162.769575"/>
     <use style="fill-opacity:0;stroke:#008000;stroke-linejoin:miter;stroke-width:1.5;" x="299.056348" xlink:href="#m9736e960d7" y="63.686756"/>
     <use style="fill-opacity:0;stroke:#008000;stroke-linejoin:miter;stroke-width:1.5;" x="330.299837" xlink:href="#m9736e960d7" y="27.513663"/>
     <use style="fill-opacity:0;stroke:#008000;stroke-linejoin:miter;stroke-width:1.5;" x="333.429677" xlink:href="#m9736e960d7" y="27.513663"/>
    </g>
   </g>
   <g id="line2d_31">
    <path style="fill:none;stroke:#008000;stroke-linecap:square;stroke-width:1.5;"/>
    <g/>
   </g>
   <g id="line2d_32">
    <path clip-path="url(#pb9b6295dbe)" d="M 274.912549 162.769575 
" style="fill:none;stroke:#008000;stroke-linecap:square;stroke-width:1.5;"/>
    <defs>
     <path d="M -12 12 
L 12 -12 
M -12 -12 
L 12 12 
" id="m773dabe1e8" style="stroke:#008000;stroke-width:3;"/>
    </defs>
    <g clip-path="url(#pb9b6295dbe)">
     <use style="fill:#008000;stroke:#008000;stroke-width:3;" x="274.912549" xlink:href="#m773dabe1e8" y="162.769575"/>
    </g>
   </g>
   <g id="line2d_33">
    <defs>
     <path d="M 0 1.5 
C 0.397805 1.5 0.77937 1.341951 1.06066 1.06066 
C 1.341951 0.77937 1.5 0.397805 1.5 0 
C 1.5 -0.397805 1.341951 -0.77937 1.06066 -1.06066 
C 0.77937 -1.341951 0.397805 -1.5 0 -1.5 
C -0.397805 -1.5 -0.77937 -1.341951 -1.06066 -1.06066 
C -1.341951 -0.77937 -1.5 -0.397805 -1.5 0 
C -1.5 0.397805 -1.341951 0.77937 -1.06066 1.06066 
C -0.77937 1.341951 -0.397805 1.5 0 1.5 
z
" id="m3279069245" style="stroke:#0000ff;"/>
    </defs>
    <g>
     <use style="fill:#0000ff;stroke:#0000ff;" x="320.094877" xlink:href="#m3279069245" y="27.513663"/>
     <use style="fill:#0000ff;stroke:#0000ff;" x="320.094877" xlink:href="#m3279069245" y="27.513663"/>
    </g>
   </g>
   <g id="line2d_34">
    <path d="M 40.355341 294.88 
L 40.355341 289.637523 
L 52.280845 289.637523 
L 52.280845 286.492036 
L 59.256818 286.492036 
L 59.256818 285.443541 
L 64.20635 285.443541 
L 64.20635 283.34655 
L 78.158295 283.34655 
L 78.158295 281.773807 
L 84.484951 281.773807 
L 84.484951 281.249559 
L 91.014019 281.249559 
L 91.014019 280.201064 
L 91.896513 280.201064 
L 91.896513 279.676816 
L 94.301099 279.676816 
L 94.301099 279.152568 
L 96.410455 279.152568 
L 96.410455 277.579825 
L 98.289215 277.579825 
L 98.289215 276.007082 
L 103.386428 276.007082 
L 103.386428 270.240357 
L 107.661173 270.240357 
L 107.661173 269.716109 
L 111.362135 269.716109 
L 111.362135 269.191862 
L 112.696514 269.191862 
L 112.696514 268.667614 
L 115.089931 268.667614 
L 115.089931 267.619119 
L 118.152108 267.619119 
L 118.152108 267.094871 
L 120.095232 267.094871 
L 120.095232 266.046375 
L 123.698931 266.046375 
L 123.698931 265.522128 
L 123.967762 265.522128 
L 123.967762 263.949385 
L 125.002954 263.949385 
L 125.002954 262.376641 
L 127.886754 262.376641 
L 127.886754 260.803898 
L 131.937015 260.803898 
L 131.937015 259.231155 
L 133.307682 259.231155 
L 133.307682 258.18266 
L 134.720537 258.18266 
L 134.720537 257.658412 
L 136.026124 257.658412 
L 136.026124 256.609917 
L 139.382115 256.609917 
L 139.382115 255.037173 
L 141.432737 255.037173 
L 141.432737 253.988678 
L 142.555192 253.988678 
L 142.555192 253.46443 
L 145.916913 253.46443 
L 145.916913 251.367439 
L 146.102113 251.367439 
L 146.102113 250.843192 
L 146.394347 250.843192 
L 146.394347 249.794696 
L 150.669815 249.794696 
L 150.669815 249.270448 
L 154.458043 249.270448 
L 154.458043 248.746201 
L 161.815117 248.746201 
L 161.815117 248.221953 
L 163.80868 248.221953 
L 163.80868 247.173458 
L 164.301765 247.173458 
L 164.301765 246.64921 
L 164.606059 246.64921 
L 164.606059 246.124962 
L 166.485252 246.124962 
L 166.485252 245.600714 
L 166.875149 245.600714 
L 166.875149 245.076467 
L 167.353092 245.076467 
L 167.353092 244.027971 
L 167.922074 244.027971 
L 167.922074 242.455228 
L 170.236298 242.455228 
L 170.236298 241.93098 
L 171.205098 241.93098 
L 171.205098 241.406733 
L 174.098993 241.406733 
L 174.098993 240.882485 
L 176.040782 240.882485 
L 176.040782 239.83399 
L 176.650542 239.83399 
L 176.737687 238.785494 
L 178.795145 238.785494 
L 178.795145 238.261246 
L 179.332078 238.261246 
L 179.332078 237.736999 
L 181.492088 237.736999 
L 181.492088 237.212751 
L 182.639808 237.212751 
L 182.639808 236.164255 
L 184.829468 236.164255 
L 184.829468 235.640008 
L 185.732511 235.640008 
L 185.732511 234.591512 
L 185.973756 234.591512 
L 185.973756 234.067265 
L 189.882461 234.067265 
L 189.882461 233.543017 
L 190.172107 233.543017 
L 190.172107 232.494521 
L 192.078693 232.494521 
L 192.078693 231.970274 
L 192.453849 231.970274 
L 192.453849 230.921778 
L 193.194796 230.921778 
L 193.194796 230.397531 
L 196.169026 230.397531 
L 196.169026 229.873283 
L 196.72391 229.873283 
L 196.72391 228.824787 
L 198.997723 228.824787 
L 198.997723 227.252044 
L 199.262977 227.252044 
L 199.262977 226.727797 
L 201.513359 226.727797 
L 201.513359 226.203549 
L 202.320816 226.203549 
L 202.320816 225.155053 
L 205.239168 225.155053 
L 205.239168 224.630806 
L 205.582796 224.630806 
L 205.582796 223.58231 
L 207.370062 223.58231 
L 207.370062 222.533815 
L 207.708937 222.533815 
L 207.708937 222.009567 
L 207.839788 222.009567 
L 207.839788 221.485319 
L 208.980436 221.485319 
L 208.980436 220.961072 
L 209.314558 220.961072 
L 209.314558 220.436824 
L 209.822042 220.436824 
L 209.822042 219.912576 
L 210.646035 219.912576 
L 210.646035 219.388328 
L 211.792223 219.388328 
L 211.855239 217.815585 
L 212.545217 217.815585 
L 212.545217 217.291338 
L 213.714661 217.291338 
L 213.714661 216.76709 
L 214.961789 216.76709 
L 214.961789 215.718594 
L 215.92652 215.718594 
L 215.92652 215.194347 
L 217.001017 215.194347 
L 217.001017 214.670099 
L 217.912248 214.670099 
L 218.021353 213.621604 
L 218.535417 213.621604 
L 218.535417 213.097356 
L 218.686796 213.097356 
L 218.686796 212.573108 
L 218.86317 212.573108 
L 218.86317 211.524613 
L 219.152638 211.524613 
L 219.152638 210.476117 
L 220.135542 210.476117 
L 220.135542 209.95187 
L 221.571029 209.95187 
L 221.571029 209.427622 
L 222.058736 209.427622 
L 222.058736 207.854879 
L 222.773226 207.854879 
L 222.773226 207.330631 
L 224.090425 207.330631 
L 224.090425 206.806383 
L 224.837864 206.806383 
L 224.837864 206.282136 
L 224.950113 206.282136 
L 224.950113 205.757888 
L 225.268116 205.757888 
L 225.272923 203.660897 
L 226.410867 203.660897 
L 226.498196 201.563906 
L 227.151172 201.563906 
L 227.151172 201.039658 
L 227.51523 201.039658 
L 227.51523 200.515411 
L 228.434924 200.515411 
L 228.434924 199.466915 
L 228.81795 199.466915 
L 228.81795 198.942667 
L 266.124172 198.942667 
L 266.230716 188.981961 
L 266.235879 188.981961 
L 266.335789 184.263731 
L 266.35488 184.263731 
L 266.436778 181.118245 
L 266.4734 181.118245 
L 266.521683 179.545502 
L 266.594157 179.545502 
L 266.695575 177.448511 
L 266.734076 177.448511 
L 266.840188 176.400016 
L 266.871549 176.400016 
L 266.964339 174.303025 
L 267.04124 174.303025 
L 267.053827 172.730281 
L 267.173603 172.730281 
L 267.246191 170.109043 
L 267.298014 170.109043 
L 267.359644 166.963557 
L 267.442421 166.963557 
L 267.442421 166.439309 
L 267.61834 166.439309 
L 267.627706 165.390813 
L 267.736768 165.390813 
L 267.827356 164.342318 
L 267.926706 164.342318 
L 267.986932 163.293823 
L 278.050038 163.293823 
L 278.153143 152.808868 
L 278.165263 152.808868 
L 278.273542 149.663382 
L 278.277481 149.663382 
L 278.36316 146.517896 
L 278.423871 146.517896 
L 278.487237 143.372409 
L 278.537414 143.372409 
L 278.563567 141.799666 
L 278.665524 141.799666 
L 278.753526 139.702675 
L 278.780919 139.702675 
L 278.888319 136.557189 
L 278.905794 136.557189 
L 278.974392 133.93595 
L 279.086736 133.93595 
L 279.086736 133.411703 
L 285.025787 133.411703 
L 285.107863 125.023739 
L 285.140855 125.023739 
L 285.251943 121.878253 
L 285.299827 121.878253 
L 285.407642 116.635776 
L 285.476181 116.635776 
L 285.579946 112.441794 
L 285.589162 112.441794 
L 285.655125 110.869051 
L 285.723822 110.869051 
L 285.723822 110.344803 
L 289.975207 110.344803 
L 290.06158 104.05383 
L 290.093656 104.05383 
L 290.181146 101.956839 
L 290.212118 101.956839 
L 290.314105 98.287105 
L 290.370608 98.287105 
L 290.424981 95.141619 
L 293.815437 95.141619 
L 293.909119 90.947637 
L 293.926788 90.947637 
L 294.016563 87.802151 
L 294.044426 87.802151 
L 294.133482 84.656665 
L 294.20909 84.656665 
L 294.20909 84.132417 
L 296.966098 84.132417 
L 297.076587 78.88994 
L 297.096792 78.88994 
L 297.207882 74.695958 
L 299.609597 74.695958 
L 299.70255 68.404985 
L 299.737073 68.404985 
L 299.815194 64.735251 
L 299.881812 64.735251 
L 299.886097 63.162508 
L 301.900544 63.162508 
L 302.010893 56.347288 
L 302.051602 56.347288 
L 302.086201 53.726049 
L 303.945736 53.726049 
L 304.028583 50.580563 
L 304.103775 50.580563 
L 304.103775 50.056315 
L 305.833501 50.056315 
L 305.935183 47.435077 
L 307.379452 47.435077 
L 307.478316 43.241095 
L 307.499673 43.241095 
L 307.509521 42.192599 
L 308.876461 42.192599 
L 308.911462 40.095609 
L 308.993302 40.095609 
L 309.034015 39.047113 
L 310.266015 39.047113 
L 310.269868 37.998618 
L 311.528994 37.998618 
L 311.634941 36.425875 
L 311.648849 36.425875 
L 311.648849 35.901627 
L 312.764198 35.901627 
L 312.788897 33.804636 
L 313.880756 33.804636 
L 313.939516 32.231893 
L 314.963494 32.231893 
L 314.963494 31.707645 
L 315.936243 31.707645 
L 315.936243 31.183397 
L 316.79806 31.183397 
L 316.803491 30.134902 
L 317.665102 30.134902 
L 317.712085 29.086407 
L 319.345104 29.086407 
L 319.395421 28.037911 
L 320.094877 28.037911 
L 320.094877 27.513663 
L 333.429677 27.513663 
L 333.429677 27.513663 
" style="fill:none;stroke:#0000ff;stroke-linecap:square;stroke-width:1.5;"/>
   </g>
   <g id="line2d_35">
    <defs>
     <path d="M 0 -6 
L -1.347084 -1.854102 
L -5.706339 -1.854102 
L -2.179628 0.708204 
L -3.526712 4.854102 
L -0 2.291796 
L 3.526712 4.854102 
L 2.179628 0.708204 
L 5.706339 -1.854102 
L 1.347084 -1.854102 
z
" id="maa851057a5" style="stroke:#0000ff;stroke-linejoin:bevel;stroke-width:1.5;"/>
    </defs>
    <g>
     <use style="fill-opacity:0;stroke:#0000ff;stroke-linejoin:bevel;stroke-width:1.5;" x="133.307682" xlink:href="#maa851057a5" y="259.231155"/>
     <use style="fill-opacity:0;stroke:#0000ff;stroke-linejoin:bevel;stroke-width:1.5;" x="199.262977" xlink:href="#maa851057a5" y="227.252044"/>
     <use style="fill-opacity:0;stroke:#0000ff;stroke-linejoin:bevel;stroke-width:1.5;" x="267.986932" xlink:href="#maa851057a5" y="163.81807"/>
     <use style="fill-opacity:0;stroke:#0000ff;stroke-linejoin:bevel;stroke-width:1.5;" x="317.712085" xlink:href="#maa851057a5" y="29.610654"/>
     <use style="fill-opacity:0;stroke:#0000ff;stroke-linejoin:bevel;stroke-width:1.5;" x="320.094877" xlink:href="#maa851057a5" y="27.513663"/>
     <use style="fill-opacity:0;stroke:#0000ff;stroke-linejoin:bevel;stroke-width:1.5;" x="333.429677" xlink:href="#maa851057a5" y="27.513663"/>
    </g>
   </g>
   <g id="line2d_36">
    <path style="fill:none;stroke:#0000ff;stroke-linecap:square;stroke-width:1.5;"/>
    <g/>
   </g>
   <g id="line2d_37">
    <path clip-path="url(#pb9b6295dbe)" d="M 266.123863 198.942667 
" style="fill:none;stroke:#0000ff;stroke-linecap:square;stroke-width:1.5;"/>
    <defs>
     <path d="M -12 12 
L 12 -12 
M -12 -12 
L 12 12 
" id="m0d569b09a1" style="stroke:#0000ff;stroke-width:3;"/>
    </defs>
    <g clip-path="url(#pb9b6295dbe)">
     <use style="fill:#0000ff;stroke:#0000ff;stroke-width:3;" x="266.123863" xlink:href="#m0d569b09a1" y="198.942667"/>
    </g>
   </g>
   <g id="line2d_38">
    <defs>
     <path d="M 0 1.5 
C 0.397805 1.5 0.77937 1.341951 1.06066 1.06066 
C 1.341951 0.77937 1.5 0.397805 1.5 0 
C 1.5 -0.397805 1.341951 -0.77937 1.06066 -1.06066 
C 0.77937 -1.341951 0.397805 -1.5 0 -1.5 
C -0.397805 -1.5 -0.77937 -1.341951 -1.06066 -1.06066 
C -1.341951 -0.77937 -1.5 -0.397805 -1.5 0 
C -1.5 0.397805 -1.341951 0.77937 -1.06066 1.06066 
C -0.77937 1.341951 -0.397805 1.5 0 1.5 
z
" id="mbc6de46ee7" style="stroke:#000000;"/>
    </defs>
    <g>
     <use style="stroke:#000000;" x="299.615119" xlink:href="#mbc6de46ee7" y="237.212751"/>
     <use style="stroke:#000000;" x="299.615119" xlink:href="#mbc6de46ee7" y="237.212751"/>
    </g>
   </g>
   <g id="line2d_39">
    <path d="M 28.429836 294.88 
L 28.429836 289.637523 
L 77.174892 289.637523 
L 77.174892 289.113275 
L 92.321346 289.113275 
L 92.321346 288.06478 
L 101.768673 288.06478 
L 101.768673 287.540532 
L 111.082375 287.540532 
L 111.082375 286.492036 
L 117.773963 286.492036 
L 117.773963 285.443541 
L 118.88434 285.443541 
L 118.88434 283.34655 
L 123.425832 283.34655 
L 123.425832 282.822302 
L 131.937015 282.822302 
L 131.937015 281.773807 
L 132.269486 281.773807 
L 132.269486 281.249559 
L 138.659348 281.249559 
L 138.659348 280.201064 
L 143.22127 280.201064 
L 143.22127 279.676816 
L 143.736167 279.676816 
L 143.736167 279.152568 
L 144.500954 279.152568 
L 144.500954 278.628321 
L 144.861069 278.628321 
L 144.861069 278.104073 
L 145.972683 278.104073 
L 145.972683 277.579825 
L 147.362651 277.579825 
L 147.362651 277.055578 
L 147.901927 277.055578 
L 147.901927 276.53133 
L 148.017674 276.53133 
L 148.017674 276.007082 
L 150.007454 276.007082 
L 150.007454 275.482834 
L 151.909483 275.482834 
L 151.909483 274.434339 
L 152.793292 274.434339 
L 152.793292 273.910091 
L 153.610112 273.910091 
L 153.610112 273.385844 
L 154.389905 273.385844 
L 154.389905 272.861596 
L 157.749065 272.861596 
L 157.749065 271.8131 
L 159.020739 271.8131 
L 159.020739 271.288853 
L 159.433057 271.288853 
L 159.450024 269.191862 
L 160.188615 269.191862 
L 160.188615 268.667614 
L 162.122747 268.667614 
L 162.122747 268.143366 
L 164.85559 268.143366 
L 164.85559 267.094871 
L 166.326785 267.094871 
L 166.394878 265.522128 
L 167.186236 265.522128 
L 167.186236 264.99788 
L 167.571316 264.99788 
L 167.571316 264.473632 
L 167.718772 264.473632 
L 167.718772 263.949385 
L 168.412507 263.949385 
L 168.412507 261.852394 
L 169.055108 261.852394 
L 169.055108 260.803898 
L 170.889641 260.803898 
L 170.889641 260.279651 
L 172.040856 260.279651 
L 172.040856 259.755403 
L 178.323214 259.755403 
L 178.323214 258.706907 
L 254.226345 258.706907 
L 254.335791 252.415935 
L 254.36744 252.415935 
L 254.36744 251.891687 
L 266.1592 251.891687 
L 266.180631 248.221953 
L 273.125601 248.221953 
L 273.145768 244.552219 
L 278.067045 244.552219 
L 278.077569 243.503724 
L 281.922471 243.503724 
L 281.922471 241.93098 
L 285.035431 241.93098 
L 285.048201 240.358237 
L 287.697079 240.358237 
L 287.697079 239.83399 
L 289.99202 239.83399 
L 289.99202 239.309742 
L 292.016389 239.309742 
L 292.016637 238.261246 
L 296.959519 238.261246 
L 296.959519 237.736999 
L 299.615119 237.736999 
L 299.615119 237.212751 
L 333.429677 237.212751 
L 333.429677 237.212751 
" style="fill:none;stroke:#000000;stroke-linecap:square;stroke-width:1.5;"/>
   </g>
   <g id="line2d_40">
    <defs>
     <path d="M 0 6 
C 1.591219 6 3.117479 5.367802 4.242641 4.242641 
C 5.367802 3.117479 6 1.591219 6 0 
C 6 -1.591219 5.367802 -3.117479 4.242641 -4.242641 
C 3.117479 -5.367802 1.591219 -6 0 -6 
C -1.591219 -6 -3.117479 -5.367802 -4.242641 -4.242641 
C -5.367802 -3.117479 -6 -1.591219 -6 0 
C -6 1.591219 -5.367802 3.117479 -4.242641 4.242641 
C -3.117479 5.367802 -1.591219 6 0 6 
z
" id="m8b089ae6c7" style="stroke:#000000;stroke-width:1.5;"/>
    </defs>
    <g>
     <use style="fill-opacity:0;stroke:#000000;stroke-width:1.5;" x="111.082375" xlink:href="#m8b089ae6c7" y="286.492036"/>
     <use style="fill-opacity:0;stroke:#000000;stroke-width:1.5;" x="164.85559" xlink:href="#m8b089ae6c7" y="268.143366"/>
     <use style="fill-opacity:0;stroke:#000000;stroke-width:1.5;" x="178.323214" xlink:href="#m8b089ae6c7" y="258.706907"/>
     <use style="fill-opacity:0;stroke:#000000;stroke-width:1.5;" x="299.615119" xlink:href="#m8b089ae6c7" y="237.212751"/>
     <use style="fill-opacity:0;stroke:#000000;stroke-width:1.5;" x="299.615119" xlink:href="#m8b089ae6c7" y="237.212751"/>
     <use style="fill-opacity:0;stroke:#000000;stroke-width:1.5;" x="333.429677" xlink:href="#m8b089ae6c7" y="237.212751"/>
    </g>
   </g>
   <g id="line2d_41">
    <path style="fill:none;stroke:#000000;stroke-linecap:square;stroke-width:1.5;"/>
    <g/>
   </g>
   <g id="line2d_42">
    <path clip-path="url(#pb9b6295dbe)" d="M 254.198358 258.706907 
" style="fill:none;stroke:#000000;stroke-linecap:square;stroke-width:1.5;"/>
    <defs>
     <path d="M -12 12 
L 12 -12 
M -12 -12 
L 12 12 
" id="m6c8f8155ab" style="stroke:#000000;stroke-width:3;"/>
    </defs>
    <g clip-path="url(#pb9b6295dbe)">
     <use style="stroke:#000000;stroke-width:3;" x="254.198358" xlink:href="#m6c8f8155ab" y="258.706907"/>
    </g>
   </g>
   <g id="line2d_43">
    <defs>
     <path d="M 0 1.5 
C 0.397805 1.5 0.77937 1.341951 1.06066 1.06066 
C 1.341951 0.77937 1.5 0.397805 1.5 0 
C 1.5 -0.397805 1.341951 -0.77937 1.06066 -1.06066 
C 0.77937 -1.341951 0.397805 -1.5 0 -1.5 
C -0.397805 -1.5 -0.77937 -1.341951 -1.06066 -1.06066 
C -1.341951 -0.77937 -1.5 -0.397805 -1.5 0 
C -1.5 0.397805 -1.341951 0.77937 -1.06066 1.06066 
C -0.77937 1.341951 -0.397805 1.5 0 1.5 
z
" id="mb61f58bd3a" style="stroke:#ff0000;"/>
    </defs>
    <g>
     <use style="fill:#ff0000;stroke:#ff0000;" x="275.775753" xlink:href="#mb61f58bd3a" y="237.212751"/>
     <use style="fill:#ff0000;stroke:#ff0000;" x="275.775753" xlink:href="#mb61f58bd3a" y="237.212751"/>
    </g>
   </g>
   <g id="line2d_44">
    <path d="M 16.504332 294.88 
L 16.504332 289.637523 
L 109.687614 289.637523 
L 109.687614 289.113275 
L 113.014543 289.113275 
L 113.014543 288.589027 
L 129.140898 288.589027 
L 129.140898 288.06478 
L 131.999844 288.06478 
L 131.999844 287.540532 
L 133.557729 287.540532 
L 133.557729 287.016284 
L 135.454257 287.016284 
L 135.454257 285.967789 
L 136.386277 285.967789 
L 136.386277 284.919293 
L 137.022388 284.919293 
L 137.115809 283.870798 
L 138.687716 283.870798 
L 138.687716 283.34655 
L 138.982784 283.34655 
L 138.982784 282.822302 
L 139.745754 282.822302 
L 139.838789 281.773807 
L 140.20598 281.773807 
L 140.20598 280.725312 
L 141.31149 280.725312 
L 141.408556 279.676816 
L 142.304354 279.676816 
L 142.304354 278.628321 
L 142.600408 278.628321 
L 142.600408 278.104073 
L 143.502083 278.104073 
L 143.502083 276.53133 
L 143.662031 276.53133 
L 143.662031 276.007082 
L 144.060698 276.007082 
L 144.060698 275.482834 
L 144.571569 275.482834 
L 144.571569 274.434339 
L 146.565541 274.434339 
L 146.565541 273.910091 
L 147.328378 273.910091 
L 147.328378 273.385844 
L 148.424812 273.385844 
L 148.424812 272.861596 
L 150.17545 272.861596 
L 150.17545 272.337348 
L 150.620305 272.337348 
L 150.676877 271.288853 
L 151.253087 271.288853 
L 151.253087 270.240357 
L 151.38232 270.240357 
L 151.38232 268.667614 
L 151.948869 268.667614 
L 152.053458 267.619119 
L 152.163891 267.619119 
L 152.163891 267.094871 
L 153.592243 267.094871 
L 153.592243 266.570623 
L 153.905229 266.570623 
L 153.905229 265.522128 
L 154.103055 265.522128 
L 154.103055 264.99788 
L 154.666453 264.99788 
L 154.666453 264.473632 
L 155.656386 264.473632 
L 155.656386 263.949385 
L 156.223088 263.949385 
L 156.223088 263.425137 
L 156.441614 263.425137 
L 156.441614 262.900889 
L 157.584469 262.900889 
L 157.584469 261.852394 
L 157.837762 261.852394 
L 157.837762 261.328146 
L 158.105727 261.328146 
L 158.105727 259.755403 
L 158.328904 259.755403 
L 158.410165 258.706907 
L 158.832801 258.706907 
L 158.832801 258.18266 
L 160.510512 258.18266 
L 160.578146 257.134164 
L 160.806916 257.134164 
L 160.846054 255.561421 
L 161.715056 255.561421 
L 161.715056 255.037173 
L 162.22408 255.037173 
L 162.22408 254.512926 
L 162.481943 254.512926 
L 162.481943 253.988678 
L 164.985159 253.988678 
L 164.985159 253.46443 
L 166.86413 253.46443 
L 166.86413 252.940182 
L 167.430586 252.940182 
L 167.430586 252.415935 
L 242.363456 252.415935 
L 242.466893 246.64921 
L 254.245881 246.64921 
L 254.305451 240.882485 
L 261.222346 240.882485 
L 261.242956 239.309742 
L 266.169961 239.309742 
L 266.169961 238.785494 
L 269.984153 238.785494 
L 269.984153 238.261246 
L 275.775753 238.261246 
L 275.775753 237.212751 
L 333.429677 237.212751 
L 333.429677 237.212751 
" style="fill:none;stroke:#ff0000;stroke-linecap:square;stroke-width:1.5;"/>
   </g>
   <g id="line2d_45">
    <defs>
     <path d="M -6 6 
L 6 6 
L 6 -6 
L -6 -6 
z
" id="mb764d2a7fb" style="stroke:#ff0000;stroke-linejoin:miter;stroke-width:1.5;"/>
    </defs>
    <g>
     <use style="fill-opacity:0;stroke:#ff0000;stroke-linejoin:miter;stroke-width:1.5;" x="162.481943" xlink:href="#mb764d2a7fb" y="254.512926"/>
     <use style="fill-opacity:0;stroke:#ff0000;stroke-linejoin:miter;stroke-width:1.5;" x="167.430586" xlink:href="#mb764d2a7fb" y="252.415935"/>
     <use style="fill-opacity:0;stroke:#ff0000;stroke-linejoin:miter;stroke-width:1.5;" x="275.775753" xlink:href="#mb764d2a7fb" y="238.261246"/>
     <use style="fill-opacity:0;stroke:#ff0000;stroke-linejoin:miter;stroke-width:1.5;" x="275.775753" xlink:href="#mb764d2a7fb" y="237.212751"/>
     <use style="fill-opacity:0;stroke:#ff0000;stroke-linejoin:miter;stroke-width:1.5;" x="333.429677" xlink:href="#mb764d2a7fb" y="237.212751"/>
    </g>
   </g>
   <g id="line2d_46">
    <path style="fill:none;stroke:#ff0000;stroke-linecap:square;stroke-width:1.5;"/>
    <g/>
   </g>
   <g id="line2d_47">
    <path clip-path="url(#pb9b6295dbe)" d="M 242.272854 252.415935 
" style="fill:none;stroke:#ff0000;stroke-linecap:square;stroke-width:1.5;"/>
    <defs>
     <path d="M -12 12 
L 12 -12 
M -12 -12 
L 12 12 
" id="m745566598e" style="stroke:#ff0000;stroke-width:3;"/>
    </defs>
    <g clip-path="url(#pb9b6295dbe)">
     <use style="fill:#ff0000;stroke:#ff0000;stroke-width:3;" x="242.272854" xlink:href="#m745566598e" y="252.415935"/>
    </g>
   </g>
   <g id="line2d_48">
    <defs>
     <path d="M 0 1.5 
C 0.397805 1.5 0.77937 1.341951 1.06066 1.06066 
C 1.341951 0.77937 1.5 0.397805 1.5 0 
C 1.5 -0.397805 1.341951 -0.77937 1.06066 -1.06066 
C 0.77937 -1.341951 0.397805 -1.5 0 -1.5 
C -0.397805 -1.5 -0.77937 -1.341951 -1.06066 -1.06066 
C -1.341951 -0.77937 -1.5 -0.397805 -1.5 0 
C -1.5 0.397805 -1.341951 0.77937 -1.06066 1.06066 
C -0.77937 1.341951 -0.397805 1.5 0 1.5 
z
" id="m406d0a5ea8" style="stroke:#bf00bf;"/>
    </defs>
    <g>
     <use style="fill:#bf00bf;stroke:#bf00bf;" x="254.252297" xlink:href="#m406d0a5ea8" y="237.212751"/>
     <use style="fill:#bf00bf;stroke:#bf00bf;" x="254.252297" xlink:href="#m406d0a5ea8" y="237.212751"/>
    </g>
   </g>
   <g id="line2d_49">
    <path d="M 4.578827 294.88 
L 4.578827 289.637523 
L 128.70341 289.637523 
L 128.70341 289.113275 
L 129.818533 289.113275 
L 129.818533 288.589027 
L 130.888074 288.589027 
L 130.888074 287.016284 
L 131.789513 287.016284 
L 131.789513 286.492036 
L 134.102767 286.492036 
L 134.139727 284.919293 
L 134.486943 284.919293 
L 134.577163 283.870798 
L 135.20447 283.870798 
L 135.282379 281.773807 
L 135.607493 281.773807 
L 135.607493 281.249559 
L 136.841902 281.249559 
L 136.841902 280.725312 
L 136.998954 280.725312 
L 136.998954 280.201064 
L 137.598112 280.201064 
L 137.598112 279.152568 
L 138.278996 279.152568 
L 138.278996 278.628321 
L 138.538262 278.628321 
L 138.538262 278.104073 
L 139.20425 278.104073 
L 139.293412 274.958587 
L 139.904936 274.958587 
L 139.904936 274.434339 
L 140.729897 274.434339 
L 140.729897 273.910091 
L 140.867787 273.910091 
L 140.867787 272.861596 
L 141.219991 272.861596 
L 141.219991 272.337348 
L 142.287118 272.337348 
L 142.390278 270.764605 
L 142.628608 270.764605 
L 142.628608 270.240357 
L 142.885903 270.240357 
L 142.885903 269.191862 
L 143.035151 269.191862 
L 143.035151 268.667614 
L 143.566241 268.667614 
L 143.566241 268.143366 
L 143.736167 268.143366 
L 143.736167 267.094871 
L 144.034752 267.094871 
L 144.034752 266.570623 
L 144.984366 266.570623 
L 144.984366 265.522128 
L 145.459347 265.522128 
L 145.478459 264.473632 
L 145.786077 264.473632 
L 145.786077 263.949385 
L 145.954113 263.949385 
L 145.954113 263.425137 
L 146.25798 263.425137 
L 146.362624 261.328146 
L 146.484661 261.328146 
L 146.520654 260.279651 
L 146.632651 260.279651 
L 146.632651 259.755403 
L 147.294037 259.755403 
L 147.294037 258.706907 
L 147.926795 258.706907 
L 147.926795 258.18266 
L 148.553087 258.18266 
L 148.553087 257.658412 
L 148.943989 257.658412 
L 148.943989 257.134164 
L 149.072341 257.134164 
L 149.072341 256.609917 
L 150.18635 256.609917 
L 150.18635 256.085669 
L 150.42799 256.085669 
L 150.44231 253.46443 
L 150.883892 253.46443 
L 150.883892 252.940182 
L 151.2565 252.940182 
L 151.2565 252.415935 
L 151.691237 252.415935 
L 151.691237 251.891687 
L 154.287189 251.891687 
L 154.287189 251.367439 
L 155.037536 251.367439 
L 155.094973 249.794696 
L 230.411233 249.794696 
L 230.512001 244.552219 
L 230.525662 244.552219 
L 230.552987 243.503724 
L 242.335846 243.503724 
L 242.380921 241.406733 
L 249.29715 241.406733 
L 249.320947 239.309742 
L 254.22205 239.309742 
L 254.252297 237.212751 
L 333.429677 237.212751 
L 333.429677 237.212751 
" style="fill:none;stroke:#bf00bf;stroke-linecap:square;stroke-width:1.5;"/>
   </g>
   <g id="line2d_50">
    <defs>
     <path d="M -0 8.485281 
L 8.485281 0 
L 0 -8.485281 
L -8.485281 -0 
z
" id="m14311be7d1" style="stroke:#bf00bf;stroke-linejoin:miter;stroke-width:1.5;"/>
    </defs>
    <g>
     <use style="fill-opacity:0;stroke:#bf00bf;stroke-linejoin:miter;stroke-width:1.5;" x="143.035151" xlink:href="#m14311be7d1" y="269.191862"/>
     <use style="fill-opacity:0;stroke:#bf00bf;stroke-linejoin:miter;stroke-width:1.5;" x="155.094973" xlink:href="#m14311be7d1" y="249.794696"/>
     <use style="fill-opacity:0;stroke:#bf00bf;stroke-linejoin:miter;stroke-width:1.5;" x="254.252297" xlink:href="#m14311be7d1" y="237.212751"/>
     <use style="fill-opacity:0;stroke:#bf00bf;stroke-linejoin:miter;stroke-width:1.5;" x="254.252297" xlink:href="#m14311be7d1" y="237.212751"/>
     <use style="fill-opacity:0;stroke:#bf00bf;stroke-linejoin:miter;stroke-width:1.5;" x="333.429677" xlink:href="#m14311be7d1" y="237.212751"/>
    </g>
   </g>
   <g id="line2d_51">
    <path style="fill:none;stroke:#bf00bf;stroke-linecap:square;stroke-width:1.5;"/>
    <g/>
   </g>
   <g id="line2d_52">
    <path clip-path="url(#pb9b6295dbe)" d="M 230.347349 249.794696 
" style="fill:none;stroke:#bf00bf;stroke-linecap:square;stroke-width:1.5;"/>
    <defs>
     <path d="M -12 12 
L 12 -12 
M -12 -12 
L 12 12 
" id="m6bf99f3a4b" style="stroke:#bf00bf;stroke-width:3;"/>
    </defs>
    <g clip-path="url(#pb9b6295dbe)">
     <use style="fill:#bf00bf;stroke:#bf00bf;stroke-width:3;" x="230.347349" xlink:href="#m6bf99f3a4b" y="249.794696"/>
    </g>
   </g>
   <g id="line2d_53">
    <path d="M 333.429677 237.212751 
L 363.933742 289.532673 
" style="fill:none;stroke:#000000;stroke-linecap:square;stroke-width:1.5;"/>
    <g>
     <use style="fill-opacity:0;stroke:#000000;stroke-width:1.5;" x="333.429677" xlink:href="#m8b089ae6c7" y="237.212751"/>
     <use style="fill-opacity:0;stroke:#000000;stroke-width:1.5;" x="363.933742" xlink:href="#m8b089ae6c7" y="289.532673"/>
    </g>
   </g>
   <g id="line2d_54">
    <path d="M 333.429677 237.212751 
L 363.933742 238.198337 
" style="fill:none;stroke:#ff0000;stroke-linecap:square;stroke-width:1.5;"/>
    <g>
     <use style="fill-opacity:0;stroke:#ff0000;stroke-linejoin:miter;stroke-width:1.5;" x="333.429677" xlink:href="#mb764d2a7fb" y="237.212751"/>
     <use style="fill-opacity:0;stroke:#ff0000;stroke-linejoin:miter;stroke-width:1.5;" x="363.933742" xlink:href="#mb764d2a7fb" y="238.198337"/>
    </g>
   </g>
   <g id="line2d_55">
    <path d="M 333.429677 237.212751 
L 363.933742 186.864 
" style="fill:none;stroke:#bf00bf;stroke-linecap:square;stroke-width:1.5;"/>
    <g>
     <use style="fill-opacity:0;stroke:#bf00bf;stroke-linejoin:miter;stroke-width:1.5;" x="333.429677" xlink:href="#m14311be7d1" y="237.212751"/>
     <use style="fill-opacity:0;stroke:#bf00bf;stroke-linejoin:miter;stroke-width:1.5;" x="363.933742" xlink:href="#m14311be7d1" y="186.864"/>
    </g>
   </g>
   <g id="line2d_56">
    <path d="M 333.429677 27.513663 
L 363.933742 135.529663 
" style="fill:none;stroke:#008000;stroke-linecap:square;stroke-width:1.5;"/>
    <g>
     <use style="fill-opacity:0;stroke:#008000;stroke-linejoin:miter;stroke-width:1.5;" x="333.429677" xlink:href="#m9736e960d7" y="27.513663"/>
     <use style="fill-opacity:0;stroke:#008000;stroke-linejoin:miter;stroke-width:1.5;" x="363.933742" xlink:href="#m9736e960d7" y="135.529663"/>
    </g>
   </g>
   <g id="line2d_57">
    <path d="M 333.429677 27.513663 
L 363.933742 84.195327 
" style="fill:none;stroke:#00bfbf;stroke-linecap:square;stroke-width:1.5;"/>
    <g>
     <use style="fill-opacity:0;stroke:#00bfbf;stroke-width:1.5;" x="333.429677" xlink:href="#m53b19df52d" y="27.513663"/>
     <use style="fill-opacity:0;stroke:#00bfbf;stroke-width:1.5;" x="363.933742" xlink:href="#m53b19df52d" y="84.195327"/>
    </g>
   </g>
   <g id="line2d_58">
    <path d="M 333.429677 27.513663 
L 363.933742 32.86099 
" style="fill:none;stroke:#0000ff;stroke-linecap:square;stroke-width:1.5;"/>
    <g>
     <use style="fill-opacity:0;stroke:#0000ff;stroke-linejoin:bevel;stroke-width:1.5;" x="333.429677" xlink:href="#maa851057a5" y="27.513663"/>
     <use style="fill-opacity:0;stroke:#0000ff;stroke-linejoin:bevel;stroke-width:1.5;" x="363.933742" xlink:href="#maa851057a5" y="32.86099"/>
    </g>
   </g>
   <g id="line2d_59">
    <path d="M 333.429677 294.88 
L 333.429677 27.513663 
" style="fill:none;stroke:#000000;stroke-linecap:square;stroke-width:1.5;"/>
   </g>
   <g id="patch_3">
    <path d="M 56.12 294.88 
L 56.12 24.84 
" style="fill:none;stroke:#000000;stroke-linecap:square;stroke-linejoin:miter;stroke-width:0.8;"/>
   </g>
   <g id="patch_4">
    <path d="M 399.984 294.88 
L 399.984 24.84 
" style="fill:none;stroke:#000000;stroke-linecap:square;stroke-linejoin:miter;stroke-width:0.8;"/>
   </g>
   <g id="patch_5">
    <path d="M 56.12 294.88 
L 399.984 294.88 
" style="fill:none;stroke:#000000;stroke-linecap:square;stroke-linejoin:miter;stroke-width:0.8;"/>
   </g>
   <g id="patch_6">
    <path d="M 56.12 24.84 
L 399.984 24.84 
" style="fill:none;stroke:#000000;stroke-linecap:square;stroke-linejoin:miter;stroke-width:0.8;"/>
   </g>
   <g id="text_14">
    <!-- 10-D -->
    <defs>
     <path d="M 19.671875 64.796875 
L 19.671875 8.109375 
L 31.59375 8.109375 
Q 46.6875 8.109375 53.6875 14.9375 
Q 60.6875 21.78125 60.6875 36.53125 
Q 60.6875 51.171875 53.6875 57.984375 
Q 46.6875 64.796875 31.59375 64.796875 
z
M 9.8125 72.90625 
L 30.078125 72.90625 
Q 51.265625 72.90625 61.171875 64.09375 
Q 71.09375 55.28125 71.09375 36.53125 
Q 71.09375 17.671875 61.125 8.828125 
Q 51.171875 0 30.078125 0 
L 9.8125 0 
z
" id="DejaVuSans-44"/>
    </defs>
    <g transform="translate(369.479935 294.223611)scale(0.17 -0.17)">
     <use xlink:href="#DejaVuSans-31"/>
     <use x="63.623047" xlink:href="#DejaVuSans-30"/>
     <use x="127.246094" xlink:href="#DejaVuSans-2d"/>
     <use x="163.330078" xlink:href="#DejaVuSans-44"/>
    </g>
   </g>
   <g id="text_15">
    <!-- 20-D -->
    <g transform="translate(369.479935 242.889274)scale(0.17 -0.17)">
     <use xlink:href="#DejaVuSans-32"/>
     <use x="63.623047" xlink:href="#DejaVuSans-30"/>
     <use x="127.246094" xlink:href="#DejaVuSans-2d"/>
     <use x="163.330078" xlink:href="#DejaVuSans-44"/>
    </g>
   </g>
   <g id="text_16">
    <!-- 40-D -->
    <g transform="translate(369.479935 191.554937)scale(0.17 -0.17)">
     <use xlink:href="#DejaVuSans-34"/>
     <use x="63.623047" xlink:href="#DejaVuSans-30"/>
     <use x="127.246094" xlink:href="#DejaVuSans-2d"/>
     <use x="163.330078" xlink:href="#DejaVuSans-44"/>
    </g>
   </g>
   <g id="text_17">
    <!-- 3-D -->
    <defs>
     <path d="M 40.578125 39.3125 
Q 47.65625 37.796875 51.625 33 
Q 55.609375 28.21875 55.609375 21.1875 
Q 55.609375 10.40625 48.1875 4.484375 
Q 40.765625 -1.421875 27.09375 -1.421875 
Q 22.515625 -1.421875 17.65625 -0.515625 
Q 12.796875 0.390625 7.625 2.203125 
L 7.625 11.71875 
Q 11.71875 9.328125 16.59375 8.109375 
Q 21.484375 6.890625 26.8125 6.890625 
Q 36.078125 6.890625 40.9375 10.546875 
Q 45.796875 14.203125 45.796875 21.1875 
Q 45.796875 27.640625 41.28125 31.265625 
Q 36.765625 34.90625 28.71875 34.90625 
L 20.21875 34.90625 
L 20.21875 43.015625 
L 29.109375 43.015625 
Q 36.375 43.015625 40.234375 45.921875 
Q 44.09375 48.828125 44.09375 54.296875 
Q 44.09375 59.90625 40.109375 62.90625 
Q 36.140625 65.921875 28.71875 65.921875 
Q 24.65625 65.921875 20.015625 65.03125 
Q 15.375 64.15625 9.8125 62.3125 
L 9.8125 71.09375 
Q 15.4375 72.65625 20.34375 73.4375 
Q 25.25 74.21875 29.59375 74.21875 
Q 40.828125 74.21875 47.359375 69.109375 
Q 53.90625 64.015625 53.90625 55.328125 
Q 53.90625 49.265625 50.4375 45.09375 
Q 46.96875 40.921875 40.578125 39.3125 
z
" id="DejaVuSans-33"/>
    </defs>
    <g transform="translate(369.479935 140.220601)scale(0.17 -0.17)">
     <use xlink:href="#DejaVuSans-33"/>
     <use x="63.623047" xlink:href="#DejaVuSans-2d"/>
     <use x="99.707031" xlink:href="#DejaVuSans-44"/>
    </g>
   </g>
   <g id="text_18">
    <!-- 2-D -->
    <g transform="translate(369.479935 88.886264)scale(0.17 -0.17)">
     <use xlink:href="#DejaVuSans-32"/>
     <use x="63.623047" xlink:href="#DejaVuSans-2d"/>
     <use x="99.707031" xlink:href="#DejaVuSans-44"/>
    </g>
   </g>
   <g id="text_19">
    <!-- 5-D -->
    <defs>
     <path d="M 10.796875 72.90625 
L 49.515625 72.90625 
L 49.515625 64.59375 
L 19.828125 64.59375 
L 19.828125 46.734375 
Q 21.96875 47.46875 24.109375 47.828125 
Q 26.265625 48.1875 28.421875 48.1875 
Q 40.625 48.1875 47.75 41.5 
Q 54.890625 34.8125 54.890625 23.390625 
Q 54.890625 11.625 47.5625 5.09375 
Q 40.234375 -1.421875 26.90625 -1.421875 
Q 22.3125 -1.421875 17.546875 -0.640625 
Q 12.796875 0.140625 7.71875 1.703125 
L 7.71875 11.625 
Q 12.109375 9.234375 16.796875 8.0625 
Q 21.484375 6.890625 26.703125 6.890625 
Q 35.15625 6.890625 40.078125 11.328125 
Q 45.015625 15.765625 45.015625 23.390625 
Q 45.015625 31 40.078125 35.4375 
Q 35.15625 39.890625 26.703125 39.890625 
Q 22.75 39.890625 18.8125 39.015625 
Q 14.890625 38.140625 10.796875 36.28125 
z
" id="DejaVuSans-35"/>
    </defs>
    <g transform="translate(369.479935 37.551928)scale(0.17 -0.17)">
     <use xlink:href="#DejaVuSans-35"/>
     <use x="63.623047" xlink:href="#DejaVuSans-2d"/>
     <use x="99.707031" xlink:href="#DejaVuSans-44"/>
    </g>
   </g>
   <g id="text_20">
    <!-- bbob f22 -->
    <defs>
     <path d="M 48.6875 27.296875 
Q 48.6875 37.203125 44.609375 42.84375 
Q 40.53125 48.484375 33.40625 48.484375 
Q 26.265625 48.484375 22.1875 42.84375 
Q 18.109375 37.203125 18.109375 27.296875 
Q 18.109375 17.390625 22.1875 11.75 
Q 26.265625 6.109375 33.40625 6.109375 
Q 40.53125 6.109375 44.609375 11.75 
Q 48.6875 17.390625 48.6875 27.296875 
z
M 18.109375 46.390625 
Q 20.953125 51.265625 25.265625 53.625 
Q 29.59375 56 35.59375 56 
Q 45.5625 56 51.78125 48.09375 
Q 58.015625 40.1875 58.015625 27.296875 
Q 58.015625 14.40625 51.78125 6.484375 
Q 45.5625 -1.421875 35.59375 -1.421875 
Q 29.59375 -1.421875 25.265625 0.953125 
Q 20.953125 3.328125 18.109375 8.203125 
L 18.109375 0 
L 9.078125 0 
L 9.078125 75.984375 
L 18.109375 75.984375 
z
" id="DejaVuSans-62"/>
    </defs>
    <g transform="translate(59.55864 35.290806)scale(0.102 -0.102)">
     <use xlink:href="#DejaVuSans-62"/>
     <use x="63.476562" xlink:href="#DejaVuSans-62"/>
     <use x="126.953125" xlink:href="#DejaVuSans-6f"/>
     <use x="188.134766" xlink:href="#DejaVuSans-62"/>
     <use x="251.611328" xlink:href="#DejaVuSans-20"/>
     <use x="283.398438" xlink:href="#DejaVuSans-66"/>
     <use x="318.603516" xlink:href="#DejaVuSans-32"/>
     <use x="382.226562" xlink:href="#DejaVuSans-32"/>
    </g>
    <!-- 51 targets: 100..1e-08 -->
    <defs>
     <path d="M 11.71875 12.40625 
L 22.015625 12.40625 
L 22.015625 0 
L 11.71875 0 
z
M 11.71875 51.703125 
L 22.015625 51.703125 
L 22.015625 39.3125 
L 11.71875 39.3125 
z
" id="DejaVuSans-3a"/>
    </defs>
    <g transform="translate(59.55864 46.712575)scale(0.102 -0.102)">
     <use xlink:href="#DejaVuSans-35"/>
     <use x="63.623047" xlink:href="#DejaVuSans-31"/>
     <use x="127.246094" xlink:href="#DejaVuSans-20"/>
     <use x="159.033203" xlink:href="#DejaVuSans-74"/>
     <use x="198.242188" xlink:href="#DejaVuSans-61"/>
     <use x="259.521484" xlink:href="#DejaVuSans-72"/>
     <use x="300.619141" xlink:href="#DejaVuSans-67"/>
     <use x="364.095703" xlink:href="#DejaVuSans-65"/>
     <use x="425.619141" xlink:href="#DejaVuSans-74"/>
     <use x="464.828125" xlink:href="#DejaVuSans-73"/>
     <use x="516.927734" xlink:href="#DejaVuSans-3a"/>
     <use x="550.619141" xlink:href="#DejaVuSans-20"/>
     <use x="582.40625" xlink:href="#DejaVuSans-31"/>
     <use x="646.029297" xlink:href="#DejaVuSans-30"/>
     <use x="709.652344" xlink:href="#DejaVuSans-30"/>
     <use x="773.275391" xlink:href="#DejaVuSans-2e"/>
     <use x="805.0625" xlink:href="#DejaVuSans-2e"/>
     <use x="836.849609" xlink:href="#DejaVuSans-31"/>
     <use x="900.472656" xlink:href="#DejaVuSans-65"/>
     <use x="961.996094" xlink:href="#DejaVuSans-2d"/>
     <use x="998.080078" xlink:href="#DejaVuSans-30"/>
     <use x="1061.703125" xlink:href="#DejaVuSans-38"/>
    </g>
    <!-- 15 instances -->
    <g transform="translate(59.55864 58.134344)scale(0.102 -0.102)">
     <use xlink:href="#DejaVuSans-31"/>
     <use x="63.623047" xlink:href="#DejaVuSans-35"/>
     <use x="127.246094" xlink:href="#DejaVuSans-20"/>
     <use x="159.033203" xlink:href="#DejaVuSans-69"/>
     <use x="186.816406" xlink:href="#DejaVuSans-6e"/>
     <use x="250.195312" xlink:href="#DejaVuSans-73"/>
     <use x="302.294922" xlink:href="#DejaVuSans-74"/>
     <use x="341.503906" xlink:href="#DejaVuSans-61"/>
     <use x="402.783203" xlink:href="#DejaVuSans-6e"/>
     <use x="466.162109" xlink:href="#DejaVuSans-63"/>
     <use x="521.142578" xlink:href="#DejaVuSans-65"/>
     <use x="582.666016" xlink:href="#DejaVuSans-73"/>
    </g>
   </g>
   <g id="text_21">
    <!-- v0.0.0 -->
    <g style="fill:#808080;" transform="translate(212.37075 290.099912)scale(0.1 -0.1)">
     <use xlink:href="#DejaVuSans-76"/>
     <use x="59.179688" xlink:href="#DejaVuSans-30"/>
     <use x="122.802734" xlink:href="#DejaVuSans-2e"/>
     <use x="154.589844" xlink:href="#DejaVuSans-30"/>
     <use x="218.212891" xlink:href="#DejaVuSans-2e"/>
     <use x="250" xlink:href="#DejaVuSans-30"/>
    </g>
   </g>
   <g id="text_22">
    <!-- 22 Gallagher 21 peaks -->
    <defs>
     <path d="M 59.515625 10.40625 
L 59.515625 29.984375 
L 43.40625 29.984375 
L 43.40625 38.09375 
L 69.28125 38.09375 
L 69.28125 6.78125 
Q 63.578125 2.734375 56.6875 0.65625 
Q 49.8125 -1.421875 42 -1.421875 
Q 24.90625 -1.421875 15.25 8.5625 
Q 5.609375 18.5625 5.609375 36.375 
Q 5.609375 54.25 15.25 64.234375 
Q 24.90625 74.21875 42 74.21875 
Q 49.125 74.21875 55.546875 72.453125 
Q 61.96875 70.703125 67.390625 67.28125 
L 67.390625 56.78125 
Q 61.921875 61.421875 55.765625 63.765625 
Q 49.609375 66.109375 42.828125 66.109375 
Q 29.4375 66.109375 22.71875 58.640625 
Q 16.015625 51.171875 16.015625 36.375 
Q 16.015625 21.625 22.71875 14.15625 
Q 29.4375 6.6875 42.828125 6.6875 
Q 48.046875 6.6875 52.140625 7.59375 
Q 56.25 8.5 59.515625 10.40625 
z
" id="DejaVuSans-47"/>
     <path d="M 54.890625 33.015625 
L 54.890625 0 
L 45.90625 0 
L 45.90625 32.71875 
Q 45.90625 40.484375 42.875 44.328125 
Q 39.84375 48.1875 33.796875 48.1875 
Q 26.515625 48.1875 22.3125 43.546875 
Q 18.109375 38.921875 18.109375 30.90625 
L 18.109375 0 
L 9.078125 0 
L 9.078125 75.984375 
L 18.109375 75.984375 
L 18.109375 46.1875 
Q 21.34375 51.125 25.703125 53.5625 
Q 30.078125 56 35.796875 56 
Q 45.21875 56 50.046875 50.171875 
Q 54.890625 44.34375 54.890625 33.015625 
z
" id="DejaVuSans-68"/>
     <path d="M 9.078125 75.984375 
L 18.109375 75.984375 
L 18.109375 31.109375 
L 44.921875 54.6875 
L 56.390625 54.6875 
L 27.390625 29.109375 
L 57.625 0 
L 45.90625 0 
L 18.109375 26.703125 
L 18.109375 0 
L 9.078125 0 
z
" id="DejaVuSans-6b"/>
    </defs>
    <g transform="translate(114.927 18.84)scale(0.2 -0.2)">
     <use xlink:href="#DejaVuSans-32"/>
     <use x="63.623047" xlink:href="#DejaVuSans-32"/>
     <use x="127.246094" xlink:href="#DejaVuSans-20"/>
     <use x="159.033203" xlink:href="#DejaVuSans-47"/>
     <use x="236.523438" xlink:href="#DejaVuSans-61"/>
     <use x="297.802734" xlink:href="#DejaVuSans-6c"/>
     <use x="325.585938" xlink:href="#DejaVuSans-6c"/>
     <use x="353.369141" xlink:href="#DejaVuSans-61"/>
     <use x="414.648438" xlink:href="#DejaVuSans-67"/>
     <use x="478.125" xlink:href="#DejaVuSans-68"/>
     <use x="541.503906" xlink:href="#DejaVuSans-65"/>
     <use x="603.027344" xlink:href="#DejaVuSans-72"/>
     <use x="644.140625" xlink:href="#DejaVuSans-20"/>
     <use x="675.927734" xlink:href="#DejaVuSans-32"/>
     <use x="739.550781" xlink:href="#DejaVuSans-31"/>
     <use x="803.173828" xlink:href="#DejaVuSans-20"/>
     <use x="834.960938" xlink:href="#DejaVuSans-70"/>
     <use x="898.4375" xlink:href="#DejaVuSans-65"/>
     <use x="959.960938" xlink:href="#DejaVuSans-61"/>
     <use x="1021.240234" xlink:href="#DejaVuSans-6b"/>
     <use x="1079.150391" xlink:href="#DejaVuSans-73"/>
    </g>
   </g>
  </g>
 </g>
 <defs>
  <clipPath id="pb9b6295dbe">
   <rect height="270.04" width="343.864" x="56.12" y="24.84"/>
  </clipPath>
 </defs>
</svg>
