<?xml version="1.0" encoding="utf-8" standalone="no"?>
<!DOCTYPE svg PUBLIC "-//W3C//DTD SVG 1.1//EN"
  "http://www.w3.org/Graphics/SVG/1.1/DTD/svg11.dtd">
<!-- Created with matplotlib (http://matplotlib.org/) -->
<svg height="345.6pt" version="1.1" viewBox="0 0 460.8 345.6" width="460.8pt" xmlns="http://www.w3.org/2000/svg" xmlns:xlink="http://www.w3.org/1999/xlink">
 <defs>
  <style type="text/css">
*{stroke-linecap:butt;stroke-linejoin:round;}
  </style>
 </defs>
 <g id="figure_1">
  <g id="patch_1">
   <path d="M 0 345.6 
L 460.8 345.6 
L 460.8 0 
L 0 0 
z
" style="fill:#ffffff;"/>
  </g>
  <g id="axes_1">
   <g id="patch_2">
    <path d="M 56.12 294.88 
L 399.984 294.88 
L 399.984 6.845228 
L 56.12 6.845228 
z
" style="fill:#ffffff;"/>
   </g>
   <g id="matplotlib.axis_1">
    <g id="xtick_1">
     <g id="line2d_1">
      <path clip-path="url(#pc5cdffd5b7)" d="M 56.12 294.88 
L 56.12 6.845228 
" style="fill:none;stroke:#b0b0b0;stroke-linecap:square;stroke-width:0.8;"/>
     </g>
     <g id="line2d_2">
      <defs>
       <path d="M 0 0 
L 0 3.5 
" id="mcf892a5ad3" style="stroke:#000000;stroke-width:0.8;"/>
      </defs>
      <g>
       <use style="stroke:#000000;stroke-width:0.8;" x="56.12" xlink:href="#mcf892a5ad3" y="294.88"/>
      </g>
     </g>
     <g id="text_1">
      <!-- 0 -->
      <defs>
       <path d="M 31.78125 66.40625 
Q 24.171875 66.40625 20.328125 58.90625 
Q 16.5 51.421875 16.5 36.375 
Q 16.5 21.390625 20.328125 13.890625 
Q 24.171875 6.390625 31.78125 6.390625 
Q 39.453125 6.390625 43.28125 13.890625 
Q 47.125 21.390625 47.125 36.375 
Q 47.125 51.421875 43.28125 58.90625 
Q 39.453125 66.40625 31.78125 66.40625 
z
M 31.78125 74.21875 
Q 44.046875 74.21875 50.515625 64.515625 
Q 56.984375 54.828125 56.984375 36.375 
Q 56.984375 17.96875 50.515625 8.265625 
Q 44.046875 -1.421875 31.78125 -1.421875 
Q 19.53125 -1.421875 13.0625 8.265625 
Q 6.59375 17.96875 6.59375 36.375 
Q 6.59375 54.828125 13.0625 64.515625 
Q 19.53125 74.21875 31.78125 74.21875 
z
" id="DejaVuSans-30"/>
      </defs>
      <g transform="translate(49.7575 317.076875)scale(0.2 -0.2)">
       <use xlink:href="#DejaVuSans-30"/>
      </g>
     </g>
    </g>
    <g id="xtick_2">
     <g id="line2d_3">
      <path clip-path="url(#pc5cdffd5b7)" d="M 135.351336 294.88 
L 135.351336 6.845228 
" style="fill:none;stroke:#b0b0b0;stroke-linecap:square;stroke-width:0.8;"/>
     </g>
     <g id="line2d_4">
      <g>
       <use style="stroke:#000000;stroke-width:0.8;" x="135.351336" xlink:href="#mcf892a5ad3" y="294.88"/>
      </g>
     </g>
     <g id="text_2">
      <!-- 2 -->
      <defs>
       <path d="M 19.1875 8.296875 
L 53.609375 8.296875 
L 53.609375 0 
L 7.328125 0 
L 7.328125 8.296875 
Q 12.9375 14.109375 22.625 23.890625 
Q 32.328125 33.6875 34.8125 36.53125 
Q 39.546875 41.84375 41.421875 45.53125 
Q 43.3125 49.21875 43.3125 52.78125 
Q 43.3125 58.59375 39.234375 62.25 
Q 35.15625 65.921875 28.609375 65.921875 
Q 23.96875 65.921875 18.8125 64.3125 
Q 13.671875 62.703125 7.8125 59.421875 
L 7.8125 69.390625 
Q 13.765625 71.78125 18.9375 73 
Q 24.125 74.21875 28.421875 74.21875 
Q 39.75 74.21875 46.484375 68.546875 
Q 53.21875 62.890625 53.21875 53.421875 
Q 53.21875 48.921875 51.53125 44.890625 
Q 49.859375 40.875 45.40625 35.40625 
Q 44.1875 33.984375 37.640625 27.21875 
Q 31.109375 20.453125 19.1875 8.296875 
z
" id="DejaVuSans-32"/>
      </defs>
      <g transform="translate(128.988836 317.076875)scale(0.2 -0.2)">
       <use xlink:href="#DejaVuSans-32"/>
      </g>
     </g>
    </g>
    <g id="xtick_3">
     <g id="line2d_5">
      <path clip-path="url(#pc5cdffd5b7)" d="M 214.582673 294.88 
L 214.582673 6.845228 
" style="fill:none;stroke:#b0b0b0;stroke-linecap:square;stroke-width:0.8;"/>
     </g>
     <g id="line2d_6">
      <g>
       <use style="stroke:#000000;stroke-width:0.8;" x="214.582673" xlink:href="#mcf892a5ad3" y="294.88"/>
      </g>
     </g>
     <g id="text_3">
      <!-- 4 -->
      <defs>
       <path d="M 37.796875 64.3125 
L 12.890625 25.390625 
L 37.796875 25.390625 
z
M 35.203125 72.90625 
L 47.609375 72.90625 
L 47.609375 25.390625 
L 58.015625 25.390625 
L 58.015625 17.1875 
L 47.609375 17.1875 
L 47.609375 0 
L 37.796875 0 
L 37.796875 17.1875 
L 4.890625 17.1875 
L 4.890625 26.703125 
z
" id="DejaVuSans-34"/>
      </defs>
      <g transform="translate(208.220173 317.076875)scale(0.2 -0.2)">
       <use xlink:href="#DejaVuSans-34"/>
      </g>
     </g>
    </g>
    <g id="xtick_4">
     <g id="line2d_7">
      <path clip-path="url(#pc5cdffd5b7)" d="M 293.814009 294.88 
L 293.814009 6.845228 
" style="fill:none;stroke:#b0b0b0;stroke-linecap:square;stroke-width:0.8;"/>
     </g>
     <g id="line2d_8">
      <g>
       <use style="stroke:#000000;stroke-width:0.8;" x="293.814009" xlink:href="#mcf892a5ad3" y="294.88"/>
      </g>
     </g>
     <g id="text_4">
      <!-- 6 -->
      <defs>
       <path d="M 33.015625 40.375 
Q 26.375 40.375 22.484375 35.828125 
Q 18.609375 31.296875 18.609375 23.390625 
Q 18.609375 15.53125 22.484375 10.953125 
Q 26.375 6.390625 33.015625 6.390625 
Q 39.65625 6.390625 43.53125 10.953125 
Q 47.40625 15.53125 47.40625 23.390625 
Q 47.40625 31.296875 43.53125 35.828125 
Q 39.65625 40.375 33.015625 40.375 
z
M 52.59375 71.296875 
L 52.59375 62.3125 
Q 48.875 64.0625 45.09375 64.984375 
Q 41.3125 65.921875 37.59375 65.921875 
Q 27.828125 65.921875 22.671875 59.328125 
Q 17.53125 52.734375 16.796875 39.40625 
Q 19.671875 43.65625 24.015625 45.921875 
Q 28.375 48.1875 33.59375 48.1875 
Q 44.578125 48.1875 50.953125 41.515625 
Q 57.328125 34.859375 57.328125 23.390625 
Q 57.328125 12.15625 50.6875 5.359375 
Q 44.046875 -1.421875 33.015625 -1.421875 
Q 20.359375 -1.421875 13.671875 8.265625 
Q 6.984375 17.96875 6.984375 36.375 
Q 6.984375 53.65625 15.1875 63.9375 
Q 23.390625 74.21875 37.203125 74.21875 
Q 40.921875 74.21875 44.703125 73.484375 
Q 48.484375 72.75 52.59375 71.296875 
z
" id="DejaVuSans-36"/>
      </defs>
      <g transform="translate(287.451509 317.076875)scale(0.2 -0.2)">
       <use xlink:href="#DejaVuSans-36"/>
      </g>
     </g>
    </g>
    <g id="xtick_5">
     <g id="line2d_9">
      <path clip-path="url(#pc5cdffd5b7)" d="M 373.045346 294.88 
L 373.045346 6.845228 
" style="fill:none;stroke:#b0b0b0;stroke-linecap:square;stroke-width:0.8;"/>
     </g>
     <g id="line2d_10">
      <g>
       <use style="stroke:#000000;stroke-width:0.8;" x="373.045346" xlink:href="#mcf892a5ad3" y="294.88"/>
      </g>
     </g>
     <g id="text_5">
      <!-- 8 -->
      <defs>
       <path d="M 31.78125 34.625 
Q 24.75 34.625 20.71875 30.859375 
Q 16.703125 27.09375 16.703125 20.515625 
Q 16.703125 13.921875 20.71875 10.15625 
Q 24.75 6.390625 31.78125 6.390625 
Q 38.8125 6.390625 42.859375 10.171875 
Q 46.921875 13.96875 46.921875 20.515625 
Q 46.921875 27.09375 42.890625 30.859375 
Q 38.875 34.625 31.78125 34.625 
z
M 21.921875 38.8125 
Q 15.578125 40.375 12.03125 44.71875 
Q 8.5 49.078125 8.5 55.328125 
Q 8.5 64.0625 14.71875 69.140625 
Q 20.953125 74.21875 31.78125 74.21875 
Q 42.671875 74.21875 48.875 69.140625 
Q 55.078125 64.0625 55.078125 55.328125 
Q 55.078125 49.078125 51.53125 44.71875 
Q 48 40.375 41.703125 38.8125 
Q 48.828125 37.15625 52.796875 32.3125 
Q 56.78125 27.484375 56.78125 20.515625 
Q 56.78125 9.90625 50.3125 4.234375 
Q 43.84375 -1.421875 31.78125 -1.421875 
Q 19.734375 -1.421875 13.25 4.234375 
Q 6.78125 9.90625 6.78125 20.515625 
Q 6.78125 27.484375 10.78125 32.3125 
Q 14.796875 37.15625 21.921875 38.8125 
z
M 18.3125 54.390625 
Q 18.3125 48.734375 21.84375 45.5625 
Q 25.390625 42.390625 31.78125 42.390625 
Q 38.140625 42.390625 41.71875 45.5625 
Q 45.3125 48.734375 45.3125 54.390625 
Q 45.3125 60.0625 41.71875 63.234375 
Q 38.140625 66.40625 31.78125 66.40625 
Q 25.390625 66.40625 21.84375 63.234375 
Q 18.3125 60.0625 18.3125 54.390625 
z
" id="DejaVuSans-38"/>
      </defs>
      <g transform="translate(366.682846 317.076875)scale(0.2 -0.2)">
       <use xlink:href="#DejaVuSans-38"/>
      </g>
     </g>
    </g>
    <g id="text_6">
     <!-- log10(# f-evals / dimension) -->
     <defs>
      <path d="M 9.421875 75.984375 
L 18.40625 75.984375 
L 18.40625 0 
L 9.421875 0 
z
" id="DejaVuSans-6c"/>
      <path d="M 30.609375 48.390625 
Q 23.390625 48.390625 19.1875 42.75 
Q 14.984375 37.109375 14.984375 27.296875 
Q 14.984375 17.484375 19.15625 11.84375 
Q 23.34375 6.203125 30.609375 6.203125 
Q 37.796875 6.203125 41.984375 11.859375 
Q 46.1875 17.53125 46.1875 27.296875 
Q 46.1875 37.015625 41.984375 42.703125 
Q 37.796875 48.390625 30.609375 48.390625 
z
M 30.609375 56 
Q 42.328125 56 49.015625 48.375 
Q 55.71875 40.765625 55.71875 27.296875 
Q 55.71875 13.875 49.015625 6.21875 
Q 42.328125 -1.421875 30.609375 -1.421875 
Q 18.84375 -1.421875 12.171875 6.21875 
Q 5.515625 13.875 5.515625 27.296875 
Q 5.515625 40.765625 12.171875 48.375 
Q 18.84375 56 30.609375 56 
z
" id="DejaVuSans-6f"/>
      <path d="M 45.40625 27.984375 
Q 45.40625 37.75 41.375 43.109375 
Q 37.359375 48.484375 30.078125 48.484375 
Q 22.859375 48.484375 18.828125 43.109375 
Q 14.796875 37.75 14.796875 27.984375 
Q 14.796875 18.265625 18.828125 12.890625 
Q 22.859375 7.515625 30.078125 7.515625 
Q 37.359375 7.515625 41.375 12.890625 
Q 45.40625 18.265625 45.40625 27.984375 
z
M 54.390625 6.78125 
Q 54.390625 -7.171875 48.1875 -13.984375 
Q 42 -20.796875 29.203125 -20.796875 
Q 24.46875 -20.796875 20.265625 -20.09375 
Q 16.0625 -19.390625 12.109375 -17.921875 
L 12.109375 -9.1875 
Q 16.0625 -11.328125 19.921875 -12.34375 
Q 23.78125 -13.375 27.78125 -13.375 
Q 36.625 -13.375 41.015625 -8.765625 
Q 45.40625 -4.15625 45.40625 5.171875 
L 45.40625 9.625 
Q 42.625 4.78125 38.28125 2.390625 
Q 33.9375 0 27.875 0 
Q 17.828125 0 11.671875 7.65625 
Q 5.515625 15.328125 5.515625 27.984375 
Q 5.515625 40.671875 11.671875 48.328125 
Q 17.828125 56 27.875 56 
Q 33.9375 56 38.28125 53.609375 
Q 42.625 51.21875 45.40625 46.390625 
L 45.40625 54.6875 
L 54.390625 54.6875 
z
" id="DejaVuSans-67"/>
      <path d="M 12.40625 8.296875 
L 28.515625 8.296875 
L 28.515625 63.921875 
L 10.984375 60.40625 
L 10.984375 69.390625 
L 28.421875 72.90625 
L 38.28125 72.90625 
L 38.28125 8.296875 
L 54.390625 8.296875 
L 54.390625 0 
L 12.40625 0 
z
" id="DejaVuSans-31"/>
      <path d="M 31 75.875 
Q 24.46875 64.65625 21.28125 53.65625 
Q 18.109375 42.671875 18.109375 31.390625 
Q 18.109375 20.125 21.3125 9.0625 
Q 24.515625 -2 31 -13.1875 
L 23.1875 -13.1875 
Q 15.875 -1.703125 12.234375 9.375 
Q 8.59375 20.453125 8.59375 31.390625 
Q 8.59375 42.28125 12.203125 53.3125 
Q 15.828125 64.359375 23.1875 75.875 
z
" id="DejaVuSans-28"/>
      <path d="M 51.125 44 
L 36.921875 44 
L 32.8125 27.6875 
L 47.125 27.6875 
z
M 43.796875 71.78125 
L 38.71875 51.515625 
L 52.984375 51.515625 
L 58.109375 71.78125 
L 65.921875 71.78125 
L 60.890625 51.515625 
L 76.125 51.515625 
L 76.125 44 
L 58.984375 44 
L 54.984375 27.6875 
L 70.515625 27.6875 
L 70.515625 20.21875 
L 53.078125 20.21875 
L 48 0 
L 40.1875 0 
L 45.21875 20.21875 
L 30.90625 20.21875 
L 25.875 0 
L 18.015625 0 
L 23.09375 20.21875 
L 7.71875 20.21875 
L 7.71875 27.6875 
L 24.90625 27.6875 
L 29 44 
L 13.28125 44 
L 13.28125 51.515625 
L 30.90625 51.515625 
L 35.890625 71.78125 
z
" id="DejaVuSans-23"/>
      <path id="DejaVuSans-20"/>
      <path d="M 37.109375 75.984375 
L 37.109375 68.5 
L 28.515625 68.5 
Q 23.6875 68.5 21.796875 66.546875 
Q 19.921875 64.59375 19.921875 59.515625 
L 19.921875 54.6875 
L 34.71875 54.6875 
L 34.71875 47.703125 
L 19.921875 47.703125 
L 19.921875 0 
L 10.890625 0 
L 10.890625 47.703125 
L 2.296875 47.703125 
L 2.296875 54.6875 
L 10.890625 54.6875 
L 10.890625 58.5 
Q 10.890625 67.625 15.140625 71.796875 
Q 19.390625 75.984375 28.609375 75.984375 
z
" id="DejaVuSans-66"/>
      <path d="M 4.890625 31.390625 
L 31.203125 31.390625 
L 31.203125 23.390625 
L 4.890625 23.390625 
z
" id="DejaVuSans-2d"/>
      <path d="M 56.203125 29.59375 
L 56.203125 25.203125 
L 14.890625 25.203125 
Q 15.484375 15.921875 20.484375 11.0625 
Q 25.484375 6.203125 34.421875 6.203125 
Q 39.59375 6.203125 44.453125 7.46875 
Q 49.3125 8.734375 54.109375 11.28125 
L 54.109375 2.78125 
Q 49.265625 0.734375 44.1875 -0.34375 
Q 39.109375 -1.421875 33.890625 -1.421875 
Q 20.796875 -1.421875 13.15625 6.1875 
Q 5.515625 13.8125 5.515625 26.8125 
Q 5.515625 40.234375 12.765625 48.109375 
Q 20.015625 56 32.328125 56 
Q 43.359375 56 49.78125 48.890625 
Q 56.203125 41.796875 56.203125 29.59375 
z
M 47.21875 32.234375 
Q 47.125 39.59375 43.09375 43.984375 
Q 39.0625 48.390625 32.421875 48.390625 
Q 24.90625 48.390625 20.390625 44.140625 
Q 15.875 39.890625 15.1875 32.171875 
z
" id="DejaVuSans-65"/>
      <path d="M 2.984375 54.6875 
L 12.5 54.6875 
L 29.59375 8.796875 
L 46.6875 54.6875 
L 56.203125 54.6875 
L 35.6875 0 
L 23.484375 0 
z
" id="DejaVuSans-76"/>
      <path d="M 34.28125 27.484375 
Q 23.390625 27.484375 19.1875 25 
Q 14.984375 22.515625 14.984375 16.5 
Q 14.984375 11.71875 18.140625 8.90625 
Q 21.296875 6.109375 26.703125 6.109375 
Q 34.1875 6.109375 38.703125 11.40625 
Q 43.21875 16.703125 43.21875 25.484375 
L 43.21875 27.484375 
z
M 52.203125 31.203125 
L 52.203125 0 
L 43.21875 0 
L 43.21875 8.296875 
Q 40.140625 3.328125 35.546875 0.953125 
Q 30.953125 -1.421875 24.3125 -1.421875 
Q 15.921875 -1.421875 10.953125 3.296875 
Q 6 8.015625 6 15.921875 
Q 6 25.140625 12.171875 29.828125 
Q 18.359375 34.515625 30.609375 34.515625 
L 43.21875 34.515625 
L 43.21875 35.40625 
Q 43.21875 41.609375 39.140625 45 
Q 35.0625 48.390625 27.6875 48.390625 
Q 23 48.390625 18.546875 47.265625 
Q 14.109375 46.140625 10.015625 43.890625 
L 10.015625 52.203125 
Q 14.9375 54.109375 19.578125 55.046875 
Q 24.21875 56 28.609375 56 
Q 40.484375 56 46.34375 49.84375 
Q 52.203125 43.703125 52.203125 31.203125 
z
" id="DejaVuSans-61"/>
      <path d="M 44.28125 53.078125 
L 44.28125 44.578125 
Q 40.484375 46.53125 36.375 47.5 
Q 32.28125 48.484375 27.875 48.484375 
Q 21.1875 48.484375 17.84375 46.4375 
Q 14.5 44.390625 14.5 40.28125 
Q 14.5 37.15625 16.890625 35.375 
Q 19.28125 33.59375 26.515625 31.984375 
L 29.59375 31.296875 
Q 39.15625 29.25 43.1875 25.515625 
Q 47.21875 21.78125 47.21875 15.09375 
Q 47.21875 7.46875 41.1875 3.015625 
Q 35.15625 -1.421875 24.609375 -1.421875 
Q 20.21875 -1.421875 15.453125 -0.5625 
Q 10.6875 0.296875 5.421875 2 
L 5.421875 11.28125 
Q 10.40625 8.6875 15.234375 7.390625 
Q 20.0625 6.109375 24.8125 6.109375 
Q 31.15625 6.109375 34.5625 8.28125 
Q 37.984375 10.453125 37.984375 14.40625 
Q 37.984375 18.0625 35.515625 20.015625 
Q 33.0625 21.96875 24.703125 23.78125 
L 21.578125 24.515625 
Q 13.234375 26.265625 9.515625 29.90625 
Q 5.8125 33.546875 5.8125 39.890625 
Q 5.8125 47.609375 11.28125 51.796875 
Q 16.75 56 26.8125 56 
Q 31.78125 56 36.171875 55.265625 
Q 40.578125 54.546875 44.28125 53.078125 
z
" id="DejaVuSans-73"/>
      <path d="M 25.390625 72.90625 
L 33.6875 72.90625 
L 8.296875 -9.28125 
L 0 -9.28125 
z
" id="DejaVuSans-2f"/>
      <path d="M 45.40625 46.390625 
L 45.40625 75.984375 
L 54.390625 75.984375 
L 54.390625 0 
L 45.40625 0 
L 45.40625 8.203125 
Q 42.578125 3.328125 38.25 0.953125 
Q 33.9375 -1.421875 27.875 -1.421875 
Q 17.96875 -1.421875 11.734375 6.484375 
Q 5.515625 14.40625 5.515625 27.296875 
Q 5.515625 40.1875 11.734375 48.09375 
Q 17.96875 56 27.875 56 
Q 33.9375 56 38.25 53.625 
Q 42.578125 51.265625 45.40625 46.390625 
z
M 14.796875 27.296875 
Q 14.796875 17.390625 18.875 11.75 
Q 22.953125 6.109375 30.078125 6.109375 
Q 37.203125 6.109375 41.296875 11.75 
Q 45.40625 17.390625 45.40625 27.296875 
Q 45.40625 37.203125 41.296875 42.84375 
Q 37.203125 48.484375 30.078125 48.484375 
Q 22.953125 48.484375 18.875 42.84375 
Q 14.796875 37.203125 14.796875 27.296875 
z
" id="DejaVuSans-64"/>
      <path d="M 9.421875 54.6875 
L 18.40625 54.6875 
L 18.40625 0 
L 9.421875 0 
z
M 9.421875 75.984375 
L 18.40625 75.984375 
L 18.40625 64.59375 
L 9.421875 64.59375 
z
" id="DejaVuSans-69"/>
      <path d="M 52 44.1875 
Q 55.375 50.25 60.0625 53.125 
Q 64.75 56 71.09375 56 
Q 79.640625 56 84.28125 50.015625 
Q 88.921875 44.046875 88.921875 33.015625 
L 88.921875 0 
L 79.890625 0 
L 79.890625 32.71875 
Q 79.890625 40.578125 77.09375 44.375 
Q 74.3125 48.1875 68.609375 48.1875 
Q 61.625 48.1875 57.5625 43.546875 
Q 53.515625 38.921875 53.515625 30.90625 
L 53.515625 0 
L 44.484375 0 
L 44.484375 32.71875 
Q 44.484375 40.625 41.703125 44.40625 
Q 38.921875 48.1875 33.109375 48.1875 
Q 26.21875 48.1875 22.15625 43.53125 
Q 18.109375 38.875 18.109375 30.90625 
L 18.109375 0 
L 9.078125 0 
L 9.078125 54.6875 
L 18.109375 54.6875 
L 18.109375 46.1875 
Q 21.1875 51.21875 25.484375 53.609375 
Q 29.78125 56 35.6875 56 
Q 41.65625 56 45.828125 52.96875 
Q 50 49.953125 52 44.1875 
z
" id="DejaVuSans-6d"/>
      <path d="M 54.890625 33.015625 
L 54.890625 0 
L 45.90625 0 
L 45.90625 32.71875 
Q 45.90625 40.484375 42.875 44.328125 
Q 39.84375 48.1875 33.796875 48.1875 
Q 26.515625 48.1875 22.3125 43.546875 
Q 18.109375 38.921875 18.109375 30.90625 
L 18.109375 0 
L 9.078125 0 
L 9.078125 54.6875 
L 18.109375 54.6875 
L 18.109375 46.1875 
Q 21.34375 51.125 25.703125 53.5625 
Q 30.078125 56 35.796875 56 
Q 45.21875 56 50.046875 50.171875 
Q 54.890625 44.34375 54.890625 33.015625 
z
" id="DejaVuSans-6e"/>
      <path d="M 8.015625 75.875 
L 15.828125 75.875 
Q 23.140625 64.359375 26.78125 53.3125 
Q 30.421875 42.28125 30.421875 31.390625 
Q 30.421875 20.453125 26.78125 9.375 
Q 23.140625 -1.703125 15.828125 -13.1875 
L 8.015625 -13.1875 
Q 14.5 -2 17.703125 9.0625 
Q 20.90625 20.125 20.90625 31.390625 
Q 20.90625 42.671875 17.703125 53.65625 
Q 14.5 64.65625 8.015625 75.875 
z
" id="DejaVuSans-29"/>
     </defs>
     <g transform="translate(107.211219 338.153594)scale(0.17 -0.17)">
      <use xlink:href="#DejaVuSans-6c"/>
      <use x="27.783203" xlink:href="#DejaVuSans-6f"/>
      <use x="88.964844" xlink:href="#DejaVuSans-67"/>
      <use x="152.441406" xlink:href="#DejaVuSans-31"/>
      <use x="216.064453" xlink:href="#DejaVuSans-30"/>
      <use x="279.6875" xlink:href="#DejaVuSans-28"/>
      <use x="318.701172" xlink:href="#DejaVuSans-23"/>
      <use x="402.490234" xlink:href="#DejaVuSans-20"/>
      <use x="434.277344" xlink:href="#DejaVuSans-66"/>
      <use x="469.404297" xlink:href="#DejaVuSans-2d"/>
      <use x="505.488281" xlink:href="#DejaVuSans-65"/>
      <use x="567.011719" xlink:href="#DejaVuSans-76"/>
      <use x="626.191406" xlink:href="#DejaVuSans-61"/>
      <use x="687.470703" xlink:href="#DejaVuSans-6c"/>
      <use x="715.253906" xlink:href="#DejaVuSans-73"/>
      <use x="767.353516" xlink:href="#DejaVuSans-20"/>
      <use x="799.140625" xlink:href="#DejaVuSans-2f"/>
      <use x="832.832031" xlink:href="#DejaVuSans-20"/>
      <use x="864.619141" xlink:href="#DejaVuSans-64"/>
      <use x="928.095703" xlink:href="#DejaVuSans-69"/>
      <use x="955.878906" xlink:href="#DejaVuSans-6d"/>
      <use x="1053.291016" xlink:href="#DejaVuSans-65"/>
      <use x="1114.814453" xlink:href="#DejaVuSans-6e"/>
      <use x="1178.193359" xlink:href="#DejaVuSans-73"/>
      <use x="1230.292969" xlink:href="#DejaVuSans-69"/>
      <use x="1258.076172" xlink:href="#DejaVuSans-6f"/>
      <use x="1319.257812" xlink:href="#DejaVuSans-6e"/>
      <use x="1382.636719" xlink:href="#DejaVuSans-29"/>
     </g>
    </g>
   </g>
   <g id="matplotlib.axis_2">
    <g id="ytick_1">
     <g id="line2d_11">
      <path clip-path="url(#pc5cdffd5b7)" d="M 56.12 294.88 
L 399.984 294.88 
" style="fill:none;stroke:#b0b0b0;stroke-linecap:square;stroke-width:0.8;"/>
     </g>
     <g id="line2d_12">
      <defs>
       <path d="M 0 0 
L -3.5 0 
" id="mac99b67c30" style="stroke:#000000;stroke-width:0.8;"/>
      </defs>
      <g>
       <use style="stroke:#000000;stroke-width:0.8;" x="56.12" xlink:href="#mac99b67c30" y="294.88"/>
      </g>
     </g>
     <g id="text_7">
      <!-- 0.0 -->
      <defs>
       <path d="M 10.6875 12.40625 
L 21 12.40625 
L 21 0 
L 10.6875 0 
z
" id="DejaVuSans-2e"/>
      </defs>
      <g transform="translate(23.675 300.95875)scale(0.16 -0.16)">
       <use xlink:href="#DejaVuSans-30"/>
       <use x="63.623047" xlink:href="#DejaVuSans-2e"/>
       <use x="95.410156" xlink:href="#DejaVuSans-30"/>
      </g>
     </g>
    </g>
    <g id="ytick_2">
     <g id="line2d_13">
      <path clip-path="url(#pc5cdffd5b7)" d="M 56.12 237.843411 
L 399.984 237.843411 
" style="fill:none;stroke:#b0b0b0;stroke-linecap:square;stroke-width:0.8;"/>
     </g>
     <g id="line2d_14">
      <g>
       <use style="stroke:#000000;stroke-width:0.8;" x="56.12" xlink:href="#mac99b67c30" y="237.843411"/>
      </g>
     </g>
     <g id="text_8">
      <!-- 0.2 -->
      <g transform="translate(23.675 243.922161)scale(0.16 -0.16)">
       <use xlink:href="#DejaVuSans-30"/>
       <use x="63.623047" xlink:href="#DejaVuSans-2e"/>
       <use x="95.410156" xlink:href="#DejaVuSans-32"/>
      </g>
     </g>
    </g>
    <g id="ytick_3">
     <g id="line2d_15">
      <path clip-path="url(#pc5cdffd5b7)" d="M 56.12 180.806823 
L 399.984 180.806823 
" style="fill:none;stroke:#b0b0b0;stroke-linecap:square;stroke-width:0.8;"/>
     </g>
     <g id="line2d_16">
      <g>
       <use style="stroke:#000000;stroke-width:0.8;" x="56.12" xlink:href="#mac99b67c30" y="180.806823"/>
      </g>
     </g>
     <g id="text_9">
      <!-- 0.4 -->
      <g transform="translate(23.675 186.885573)scale(0.16 -0.16)">
       <use xlink:href="#DejaVuSans-30"/>
       <use x="63.623047" xlink:href="#DejaVuSans-2e"/>
       <use x="95.410156" xlink:href="#DejaVuSans-34"/>
      </g>
     </g>
    </g>
    <g id="ytick_4">
     <g id="line2d_17">
      <path clip-path="url(#pc5cdffd5b7)" d="M 56.12 123.770234 
L 399.984 123.770234 
" style="fill:none;stroke:#b0b0b0;stroke-linecap:square;stroke-width:0.8;"/>
     </g>
     <g id="line2d_18">
      <g>
       <use style="stroke:#000000;stroke-width:0.8;" x="56.12" xlink:href="#mac99b67c30" y="123.770234"/>
      </g>
     </g>
     <g id="text_10">
      <!-- 0.6 -->
      <g transform="translate(23.675 129.848984)scale(0.16 -0.16)">
       <use xlink:href="#DejaVuSans-30"/>
       <use x="63.623047" xlink:href="#DejaVuSans-2e"/>
       <use x="95.410156" xlink:href="#DejaVuSans-36"/>
      </g>
     </g>
    </g>
    <g id="ytick_5">
     <g id="line2d_19">
      <path clip-path="url(#pc5cdffd5b7)" d="M 56.12 66.733646 
L 399.984 66.733646 
" style="fill:none;stroke:#b0b0b0;stroke-linecap:square;stroke-width:0.8;"/>
     </g>
     <g id="line2d_20">
      <g>
       <use style="stroke:#000000;stroke-width:0.8;" x="56.12" xlink:href="#mac99b67c30" y="66.733646"/>
      </g>
     </g>
     <g id="text_11">
      <!-- 0.8 -->
      <g transform="translate(23.675 72.812396)scale(0.16 -0.16)">
       <use xlink:href="#DejaVuSans-30"/>
       <use x="63.623047" xlink:href="#DejaVuSans-2e"/>
       <use x="95.410156" xlink:href="#DejaVuSans-38"/>
      </g>
     </g>
    </g>
    <g id="ytick_6">
     <g id="line2d_21">
      <path clip-path="url(#pc5cdffd5b7)" d="M 56.12 9.697057 
L 399.984 9.697057 
" style="fill:none;stroke:#b0b0b0;stroke-linecap:square;stroke-width:0.8;"/>
     </g>
     <g id="line2d_22">
      <g>
       <use style="stroke:#000000;stroke-width:0.8;" x="56.12" xlink:href="#mac99b67c30" y="9.697057"/>
      </g>
     </g>
     <g id="text_12">
      <!-- 1.0 -->
      <g transform="translate(23.675 15.775807)scale(0.16 -0.16)">
       <use xlink:href="#DejaVuSans-31"/>
       <use x="63.623047" xlink:href="#DejaVuSans-2e"/>
       <use x="95.410156" xlink:href="#DejaVuSans-30"/>
      </g>
     </g>
    </g>
    <g id="text_13">
     <!-- Fraction of function,target pairs -->
     <defs>
      <path d="M 9.8125 72.90625 
L 51.703125 72.90625 
L 51.703125 64.59375 
L 19.671875 64.59375 
L 19.671875 43.109375 
L 48.578125 43.109375 
L 48.578125 34.8125 
L 19.671875 34.8125 
L 19.671875 0 
L 9.8125 0 
z
" id="DejaVuSans-46"/>
      <path d="M 41.109375 46.296875 
Q 39.59375 47.171875 37.8125 47.578125 
Q 36.03125 48 33.890625 48 
Q 26.265625 48 22.1875 43.046875 
Q 18.109375 38.09375 18.109375 28.8125 
L 18.109375 0 
L 9.078125 0 
L 9.078125 54.6875 
L 18.109375 54.6875 
L 18.109375 46.1875 
Q 20.953125 51.171875 25.484375 53.578125 
Q 30.03125 56 36.53125 56 
Q 37.453125 56 38.578125 55.875 
Q 39.703125 55.765625 41.0625 55.515625 
z
" id="DejaVuSans-72"/>
      <path d="M 48.78125 52.59375 
L 48.78125 44.1875 
Q 44.96875 46.296875 41.140625 47.34375 
Q 37.3125 48.390625 33.40625 48.390625 
Q 24.65625 48.390625 19.8125 42.84375 
Q 14.984375 37.3125 14.984375 27.296875 
Q 14.984375 17.28125 19.8125 11.734375 
Q 24.65625 6.203125 33.40625 6.203125 
Q 37.3125 6.203125 41.140625 7.25 
Q 44.96875 8.296875 48.78125 10.40625 
L 48.78125 2.09375 
Q 45.015625 0.34375 40.984375 -0.53125 
Q 36.96875 -1.421875 32.421875 -1.421875 
Q 20.0625 -1.421875 12.78125 6.34375 
Q 5.515625 14.109375 5.515625 27.296875 
Q 5.515625 40.671875 12.859375 48.328125 
Q 20.21875 56 33.015625 56 
Q 37.15625 56 41.109375 55.140625 
Q 45.0625 54.296875 48.78125 52.59375 
z
" id="DejaVuSans-63"/>
      <path d="M 18.3125 70.21875 
L 18.3125 54.6875 
L 36.8125 54.6875 
L 36.8125 47.703125 
L 18.3125 47.703125 
L 18.3125 18.015625 
Q 18.3125 11.328125 20.140625 9.421875 
Q 21.96875 7.515625 27.59375 7.515625 
L 36.8125 7.515625 
L 36.8125 0 
L 27.59375 0 
Q 17.1875 0 13.234375 3.875 
Q 9.28125 7.765625 9.28125 18.015625 
L 9.28125 47.703125 
L 2.6875 47.703125 
L 2.6875 54.6875 
L 9.28125 54.6875 
L 9.28125 70.21875 
z
" id="DejaVuSans-74"/>
      <path d="M 8.5 21.578125 
L 8.5 54.6875 
L 17.484375 54.6875 
L 17.484375 21.921875 
Q 17.484375 14.15625 20.5 10.265625 
Q 23.53125 6.390625 29.59375 6.390625 
Q 36.859375 6.390625 41.078125 11.03125 
Q 45.3125 15.671875 45.3125 23.6875 
L 45.3125 54.6875 
L 54.296875 54.6875 
L 54.296875 0 
L 45.3125 0 
L 45.3125 8.40625 
Q 42.046875 3.421875 37.71875 1 
Q 33.40625 -1.421875 27.6875 -1.421875 
Q 18.265625 -1.421875 13.375 4.4375 
Q 8.5 10.296875 8.5 21.578125 
z
M 31.109375 56 
z
" id="DejaVuSans-75"/>
      <path d="M 11.71875 12.40625 
L 22.015625 12.40625 
L 22.015625 4 
L 14.015625 -11.625 
L 7.71875 -11.625 
L 11.71875 4 
z
" id="DejaVuSans-2c"/>
      <path d="M 18.109375 8.203125 
L 18.109375 -20.796875 
L 9.078125 -20.796875 
L 9.078125 54.6875 
L 18.109375 54.6875 
L 18.109375 46.390625 
Q 20.953125 51.265625 25.265625 53.625 
Q 29.59375 56 35.59375 56 
Q 45.5625 56 51.78125 48.09375 
Q 58.015625 40.1875 58.015625 27.296875 
Q 58.015625 14.40625 51.78125 6.484375 
Q 45.5625 -1.421875 35.59375 -1.421875 
Q 29.59375 -1.421875 25.265625 0.953125 
Q 20.953125 3.328125 18.109375 8.203125 
z
M 48.6875 27.296875 
Q 48.6875 37.203125 44.609375 42.84375 
Q 40.53125 48.484375 33.40625 48.484375 
Q 26.265625 48.484375 22.1875 42.84375 
Q 18.109375 37.203125 18.109375 27.296875 
Q 18.109375 17.390625 22.1875 11.75 
Q 26.265625 6.109375 33.40625 6.109375 
Q 40.53125 6.109375 44.609375 11.75 
Q 48.6875 17.390625 48.6875 27.296875 
z
" id="DejaVuSans-70"/>
     </defs>
     <g transform="translate(16.139531 286.001989)rotate(-90)scale(0.17 -0.17)">
      <use xlink:href="#DejaVuSans-46"/>
      <use x="57.410156" xlink:href="#DejaVuSans-72"/>
      <use x="98.523438" xlink:href="#DejaVuSans-61"/>
      <use x="159.802734" xlink:href="#DejaVuSans-63"/>
      <use x="214.783203" xlink:href="#DejaVuSans-74"/>
      <use x="253.992188" xlink:href="#DejaVuSans-69"/>
      <use x="281.775391" xlink:href="#DejaVuSans-6f"/>
      <use x="342.957031" xlink:href="#DejaVuSans-6e"/>
      <use x="406.335938" xlink:href="#DejaVuSans-20"/>
      <use x="438.123047" xlink:href="#DejaVuSans-6f"/>
      <use x="499.304688" xlink:href="#DejaVuSans-66"/>
      <use x="534.509766" xlink:href="#DejaVuSans-20"/>
      <use x="566.296875" xlink:href="#DejaVuSans-66"/>
      <use x="601.501953" xlink:href="#DejaVuSans-75"/>
      <use x="664.880859" xlink:href="#DejaVuSans-6e"/>
      <use x="728.259766" xlink:href="#DejaVuSans-63"/>
      <use x="783.240234" xlink:href="#DejaVuSans-74"/>
      <use x="822.449219" xlink:href="#DejaVuSans-69"/>
      <use x="850.232422" xlink:href="#DejaVuSans-6f"/>
      <use x="911.414062" xlink:href="#DejaVuSans-6e"/>
      <use x="974.792969" xlink:href="#DejaVuSans-2c"/>
      <use x="1006.580078" xlink:href="#DejaVuSans-74"/>
      <use x="1045.789062" xlink:href="#DejaVuSans-61"/>
      <use x="1107.068359" xlink:href="#DejaVuSans-72"/>
      <use x="1148.166016" xlink:href="#DejaVuSans-67"/>
      <use x="1211.642578" xlink:href="#DejaVuSans-65"/>
      <use x="1273.166016" xlink:href="#DejaVuSans-74"/>
      <use x="1312.375" xlink:href="#DejaVuSans-20"/>
      <use x="1344.162109" xlink:href="#DejaVuSans-70"/>
      <use x="1407.638672" xlink:href="#DejaVuSans-61"/>
      <use x="1468.917969" xlink:href="#DejaVuSans-69"/>
      <use x="1496.701172" xlink:href="#DejaVuSans-72"/>
      <use x="1537.814453" xlink:href="#DejaVuSans-73"/>
     </g>
    </g>
   </g>
   <g id="line2d_23">
    <defs>
     <path d="M 0 1.5 
C 0.397805 1.5 0.77937 1.341951 1.06066 1.06066 
C 1.341951 0.77937 1.5 0.397805 1.5 0 
C 1.5 -0.397805 1.341951 -0.77937 1.06066 -1.06066 
C 0.77937 -1.341951 0.397805 -1.5 0 -1.5 
C -0.397805 -1.5 -0.77937 -1.341951 -1.06066 -1.06066 
C -1.341951 -0.77937 -1.5 -0.397805 -1.5 0 
C -1.5 0.397805 -1.341951 0.77937 -1.06066 1.06066 
C -0.77937 1.341951 -0.397805 1.5 0 1.5 
z
" id="m517f53a517" style="stroke:#000080;"/>
    </defs>
    <g>
     <use style="fill:#000080;stroke:#000080;" x="286.612544" xlink:href="#m517f53a517" y="177.451729"/>
     <use style="fill:#000080;stroke:#000080;" x="286.612544" xlink:href="#m517f53a517" y="177.451729"/>
    </g>
   </g>
   <g id="line2d_24">
    <path d="M 16.504332 294.88 
L 16.504332 267.48007 
L 28.429836 267.48007 
L 28.429836 264.124977 
L 35.405809 264.124977 
L 35.405809 261.329066 
L 57.759799 261.329066 
L 57.759799 260.210701 
L 60.633942 260.210701 
L 60.633942 259.651519 
L 68.884933 259.651519 
L 68.884933 259.092337 
L 71.884659 259.092337 
L 71.884659 258.533154 
L 72.559446 258.533154 
L 72.559446 257.973972 
L 75.585622 257.973972 
L 75.585622 256.855608 
L 76.661276 256.855608 
L 76.661276 256.296425 
L 84.150865 256.296425 
L 84.150865 255.178061 
L 86.657818 255.178061 
L 86.657818 254.618879 
L 87.231366 254.618879 
L 87.231366 253.500514 
L 111.975443 253.500514 
L 111.975443 252.941332 
L 118.105292 252.941332 
L 118.105292 252.38215 
L 129.723347 252.38215 
L 129.723347 251.822967 
L 130.899221 251.822967 
L 130.899221 251.263785 
L 143.736167 251.263785 
L 143.736167 250.704603 
L 144.541341 250.704603 
L 144.541341 250.145421 
L 152.209159 250.145421 
L 152.209159 249.586238 
L 159.731768 249.586238 
L 159.731768 249.027056 
L 177.981521 249.027056 
L 177.981521 247.908692 
L 180.611577 247.908692 
L 180.611577 247.34951 
L 184.391392 247.34951 
L 184.391392 246.790327 
L 185.341601 246.790327 
L 185.341601 246.231145 
L 191.033865 246.231145 
L 191.033865 245.671963 
L 192.833184 245.671963 
L 192.833184 245.112781 
L 194.27092 245.112781 
L 194.27092 244.553598 
L 199.914809 244.553598 
L 199.922072 243.435234 
L 200.608863 243.435234 
L 200.608863 242.876052 
L 200.832598 242.876052 
L 200.832598 242.316869 
L 202.795625 242.316869 
L 202.795625 241.757687 
L 203.334602 241.757687 
L 203.381843 240.08014 
L 203.618726 240.08014 
L 203.618726 239.520958 
L 203.927663 239.520958 
L 203.987962 237.843411 
L 204.363468 237.843411 
L 204.391179 236.165865 
L 204.606666 236.165865 
L 204.632148 235.0475 
L 204.874023 235.0475 
L 204.874023 234.488318 
L 205.303902 234.488318 
L 205.347806 233.369954 
L 205.91514 233.369954 
L 205.966884 232.251589 
L 206.042513 232.251589 
L 206.088803 230.01486 
L 206.212944 230.01486 
L 206.212944 229.455678 
L 206.344806 229.455678 
L 206.344806 228.896496 
L 206.746105 228.896496 
L 206.746105 228.337313 
L 206.857254 228.337313 
L 206.87342 227.218949 
L 207.15893 227.218949 
L 207.15893 225.541402 
L 207.407697 225.541402 
L 207.445512 223.863855 
L 207.543183 223.863855 
L 207.543183 222.745491 
L 207.812779 222.745491 
L 207.818643 221.627126 
L 207.960047 221.627126 
L 208.000452 219.390397 
L 208.115088 219.390397 
L 208.115088 218.831215 
L 208.253341 218.831215 
L 208.253341 217.712851 
L 208.429161 217.712851 
L 208.473879 215.476122 
L 208.580293 215.476122 
L 208.580293 214.357757 
L 208.77116 214.357757 
L 208.877195 212.121028 
L 208.956592 212.121028 
L 208.956592 211.002664 
L 209.156093 211.002664 
L 209.156093 209.884299 
L 209.299595 209.884299 
L 209.361465 208.765935 
L 209.51852 208.765935 
L 209.51852 207.64757 
L 209.885455 207.64757 
L 209.971369 205.970024 
L 210.028183 205.970024 
L 210.028183 205.410841 
L 210.712306 205.410841 
L 210.712306 204.851659 
L 211.108871 204.851659 
L 211.108871 202.61493 
L 211.292324 202.61493 
L 211.292324 201.496566 
L 212.084739 201.496566 
L 212.141936 200.378201 
L 212.231125 200.378201 
L 212.231125 199.819019 
L 212.855008 199.819019 
L 212.855008 199.259837 
L 213.040047 199.259837 
L 213.040047 198.700655 
L 213.236704 198.700655 
L 213.236704 197.58229 
L 213.745756 197.58229 
L 213.808859 196.463926 
L 213.968286 196.463926 
L 213.968286 195.904743 
L 216.341865 195.904743 
L 216.341865 195.345561 
L 216.854494 195.345561 
L 216.854494 194.786379 
L 217.071133 194.786379 
L 217.071133 194.227197 
L 224.668584 194.227197 
L 224.769381 192.54965 
L 224.995635 192.54965 
L 224.995635 191.990468 
L 225.204297 191.990468 
L 225.204297 191.431285 
L 225.945243 191.431285 
L 225.945243 190.872103 
L 226.592018 190.872103 
L 226.592018 190.312921 
L 244.189844 190.312921 
L 244.189844 189.194556 
L 244.339773 189.194556 
L 244.339773 188.635374 
L 244.486863 188.635374 
L 244.486863 188.076192 
L 244.710558 188.076192 
L 244.797927 186.957828 
L 245 186.957828 
L 245 186.398645 
L 245.16198 186.398645 
L 245.16198 185.839463 
L 245.971399 185.839463 
L 245.971399 184.721099 
L 246.29339 184.721099 
L 246.29339 184.161916 
L 248.085805 184.161916 
L 248.085805 183.602734 
L 255.084813 183.602734 
L 255.084813 183.043552 
L 255.208428 183.043552 
L 255.208428 182.48437 
L 257.349175 182.48437 
L 257.349175 181.925187 
L 266.636309 181.925187 
L 266.740227 180.247641 
L 267.005971 180.247641 
L 267.005971 179.688458 
L 270.441801 179.688458 
L 270.441801 179.129276 
L 270.580961 179.129276 
L 270.580961 178.010912 
L 286.612544 178.010912 
L 286.612544 177.451729 
L 333.429677 177.451729 
L 333.429677 177.451729 
" style="fill:none;stroke:#000080;stroke-linecap:square;stroke-width:1.5;"/>
   </g>
   <g id="line2d_25">
    <defs>
     <path d="M 0 6 
C 1.591219 6 3.117479 5.367802 4.242641 4.242641 
C 5.367802 3.117479 6 1.591219 6 0 
C 6 -1.591219 5.367802 -3.117479 4.242641 -4.242641 
C 3.117479 -5.367802 1.591219 -6 0 -6 
C -1.591219 -6 -3.117479 -5.367802 -4.242641 -4.242641 
C -5.367802 -3.117479 -6 -1.591219 -6 0 
C -6 1.591219 -5.367802 3.117479 -4.242641 4.242641 
C -3.117479 5.367802 -1.591219 6 0 6 
z
" id="m3e4ece48e9" style="stroke:#000080;stroke-width:1.5;"/>
    </defs>
    <g>
     <use style="fill-opacity:0;stroke:#000080;stroke-width:1.5;" x="76.661276" xlink:href="#m3e4ece48e9" y="256.296425"/>
     <use style="fill-opacity:0;stroke:#000080;stroke-width:1.5;" x="194.27092" xlink:href="#m3e4ece48e9" y="244.553598"/>
     <use style="fill-opacity:0;stroke:#000080;stroke-width:1.5;" x="209.361465" xlink:href="#m3e4ece48e9" y="209.325117"/>
     <use style="fill-opacity:0;stroke:#000080;stroke-width:1.5;" x="270.580961" xlink:href="#m3e4ece48e9" y="178.010912"/>
     <use style="fill-opacity:0;stroke:#000080;stroke-width:1.5;" x="286.612544" xlink:href="#m3e4ece48e9" y="177.451729"/>
     <use style="fill-opacity:0;stroke:#000080;stroke-width:1.5;" x="333.429677" xlink:href="#m3e4ece48e9" y="177.451729"/>
    </g>
   </g>
   <g id="line2d_26">
    <path style="fill:none;stroke:#000080;stroke-linecap:square;stroke-width:1.5;"/>
    <g/>
   </g>
   <g id="line2d_27">
    <path clip-path="url(#pc5cdffd5b7)" d="M 242.272854 190.312921 
" style="fill:none;stroke:#000080;stroke-linecap:square;stroke-width:1.5;"/>
    <defs>
     <path d="M -12 12 
L 12 -12 
M -12 -12 
L 12 12 
" id="mf76edd3a88" style="stroke:#000080;stroke-width:3;"/>
    </defs>
    <g clip-path="url(#pc5cdffd5b7)">
     <use style="fill:#000080;stroke:#000080;stroke-width:3;" x="242.272854" xlink:href="#mf76edd3a88" y="190.312921"/>
    </g>
   </g>
   <g id="line2d_28">
    <defs>
     <path d="M 0 1.5 
C 0.397805 1.5 0.77937 1.341951 1.06066 1.06066 
C 1.341951 0.77937 1.5 0.397805 1.5 0 
C 1.5 -0.397805 1.341951 -0.77937 1.06066 -1.06066 
C 0.77937 -1.341951 0.397805 -1.5 0 -1.5 
C -0.397805 -1.5 -0.77937 -1.341951 -1.06066 -1.06066 
C -1.341951 -0.77937 -1.5 -0.397805 -1.5 0 
C -1.5 0.397805 -1.341951 0.77937 -1.06066 1.06066 
C -0.77937 1.341951 -0.397805 1.5 0 1.5 
z
" id="m7686890b41" style="stroke:#ff00ff;"/>
    </defs>
    <g>
     <use style="fill:#ff00ff;stroke:#ff00ff;" x="270.004225" xlink:href="#m7686890b41" y="233.369954"/>
     <use style="fill:#ff00ff;stroke:#ff00ff;" x="270.004225" xlink:href="#m7686890b41" y="233.369954"/>
    </g>
   </g>
   <g id="line2d_29">
    <path d="M 16.504332 294.88 
L 16.504332 289.288178 
L 107.137126 289.288178 
L 107.137126 288.728995 
L 110.1404 288.728995 
L 110.1404 288.169813 
L 113.014543 288.169813 
L 113.014543 287.610631 
L 114.5797 287.610631 
L 114.5797 287.051449 
L 126.733844 287.051449 
L 126.733844 286.492266 
L 131.999844 286.492266 
L 131.999844 285.933084 
L 136.386277 285.933084 
L 136.386277 284.255537 
L 136.579592 284.255537 
L 136.579592 283.696355 
L 137.022388 283.696355 
L 137.115809 282.018808 
L 139.838789 282.018808 
L 139.838789 280.900444 
L 142.600408 280.900444 
L 142.600408 279.782079 
L 143.502083 279.782079 
L 143.502083 278.104533 
L 143.662031 278.104533 
L 143.662031 276.986168 
L 144.060698 276.986168 
L 144.060698 275.867804 
L 144.571569 275.867804 
L 144.571569 275.308622 
L 146.565541 275.308622 
L 146.565541 273.631075 
L 147.328378 273.631075 
L 147.422464 272.51271 
L 148.624824 272.51271 
L 148.624824 270.835164 
L 148.8304 270.835164 
L 148.8304 270.275981 
L 149.188199 270.275981 
L 149.188199 269.716799 
L 149.874825 269.716799 
L 149.874825 269.157617 
L 150.17545 269.157617 
L 150.17545 268.598435 
L 150.676877 268.598435 
L 150.676877 267.48007 
L 151.856829 267.48007 
L 151.856829 266.361706 
L 152.053458 266.361706 
L 152.163891 261.888248 
L 152.855606 261.888248 
L 152.855606 260.769883 
L 153.905229 260.769883 
L 153.905229 259.651519 
L 155.432944 259.651519 
L 155.534384 258.533154 
L 156.161606 258.533154 
L 156.161606 257.973972 
L 157.837762 257.973972 
L 157.837762 257.41479 
L 158.328904 257.41479 
L 158.410165 256.296425 
L 158.441664 256.296425 
L 158.441664 255.737243 
L 160.008971 255.737243 
L 160.008971 255.178061 
L 160.846054 255.178061 
L 160.846054 254.618879 
L 165.208067 254.618879 
L 165.208067 253.500514 
L 166.163975 253.500514 
L 166.163975 252.941332 
L 167.430586 252.941332 
L 167.430586 251.822967 
L 242.356507 251.822967 
L 242.456512 242.316869 
L 254.245881 242.316869 
L 254.295651 238.402594 
L 261.209542 238.402594 
L 261.239254 236.165865 
L 266.157508 236.165865 
L 266.175357 233.929136 
L 270.004225 233.929136 
L 270.004225 233.369954 
L 333.429677 233.369954 
L 333.429677 233.369954 
" style="fill:none;stroke:#ff00ff;stroke-linecap:square;stroke-width:1.5;"/>
   </g>
   <g id="line2d_30">
    <defs>
     <path d="M -0 8.485281 
L 5.091169 0 
L 0 -8.485281 
L -5.091169 -0 
z
" id="mdb01021332" style="stroke:#ff00ff;stroke-linejoin:miter;stroke-width:1.5;"/>
    </defs>
    <g>
     <use style="fill-opacity:0;stroke:#ff00ff;stroke-linejoin:miter;stroke-width:1.5;" x="151.856829" xlink:href="#mdb01021332" y="266.361706"/>
     <use style="fill-opacity:0;stroke:#ff00ff;stroke-linejoin:miter;stroke-width:1.5;" x="167.430586" xlink:href="#mdb01021332" y="251.822967"/>
     <use style="fill-opacity:0;stroke:#ff00ff;stroke-linejoin:miter;stroke-width:1.5;" x="270.004225" xlink:href="#mdb01021332" y="233.929136"/>
     <use style="fill-opacity:0;stroke:#ff00ff;stroke-linejoin:miter;stroke-width:1.5;" x="270.004225" xlink:href="#mdb01021332" y="233.369954"/>
     <use style="fill-opacity:0;stroke:#ff00ff;stroke-linejoin:miter;stroke-width:1.5;" x="333.429677" xlink:href="#mdb01021332" y="233.369954"/>
    </g>
   </g>
   <g id="line2d_31">
    <path style="fill:none;stroke:#ff00ff;stroke-linecap:square;stroke-width:1.5;"/>
    <g/>
   </g>
   <g id="line2d_32">
    <path clip-path="url(#pc5cdffd5b7)" d="M 242.272854 251.822967 
" style="fill:none;stroke:#ff00ff;stroke-linecap:square;stroke-width:1.5;"/>
    <defs>
     <path d="M -12 12 
L 12 -12 
M -12 -12 
L 12 12 
" id="me2fcf998d7" style="stroke:#ff00ff;stroke-width:3;"/>
    </defs>
    <g clip-path="url(#pc5cdffd5b7)">
     <use style="fill:#ff00ff;stroke:#ff00ff;stroke-width:3;" x="242.272854" xlink:href="#me2fcf998d7" y="251.822967"/>
    </g>
   </g>
   <g id="line2d_33">
    <defs>
     <path d="M 0 1.5 
C 0.397805 1.5 0.77937 1.341951 1.06066 1.06066 
C 1.341951 0.77937 1.5 0.397805 1.5 0 
C 1.5 -0.397805 1.341951 -0.77937 1.06066 -1.06066 
C 0.77937 -1.341951 0.397805 -1.5 0 -1.5 
C -0.397805 -1.5 -0.77937 -1.341951 -1.06066 -1.06066 
C -1.341951 -0.77937 -1.5 -0.397805 -1.5 0 
C -1.5 0.397805 -1.341951 0.77937 -1.06066 1.06066 
C -0.77937 1.341951 -0.397805 1.5 0 1.5 
z
" id="m3f5aa123c8" style="stroke:#ffa500;"/>
    </defs>
    <g>
     <use style="fill:#ffa500;stroke:#ffa500;" x="310.589069" xlink:href="#m3f5aa123c8" y="9.697057"/>
     <use style="fill:#ffa500;stroke:#ffa500;" x="310.589069" xlink:href="#m3f5aa123c8" y="9.697057"/>
    </g>
   </g>
   <g id="line2d_34">
    <path d="M 16.504332 294.88 
L 16.504332 289.288178 
L 67.16301 289.288178 
L 67.16301 288.728995 
L 75.585622 288.728995 
L 75.585622 288.169813 
L 102.939523 288.169813 
L 102.939523 287.610631 
L 109.533998 287.610631 
L 109.533998 287.051449 
L 119.06263 287.051449 
L 119.06263 286.492266 
L 120.790886 286.492266 
L 120.790886 285.933084 
L 128.09786 285.933084 
L 128.09786 285.373902 
L 128.538038 285.373902 
L 128.538038 284.81472 
L 129.165565 284.81472 
L 129.165565 284.255537 
L 129.483052 284.255537 
L 129.483052 283.696355 
L 129.913196 283.696355 
L 129.913196 283.137173 
L 130.899221 283.137173 
L 130.899221 282.577991 
L 132.166277 282.577991 
L 132.166277 281.459626 
L 133.230007 281.459626 
L 133.230007 280.900444 
L 140.603576 280.900444 
L 140.61625 279.222897 
L 141.335808 279.222897 
L 141.335808 278.104533 
L 142.521201 278.104533 
L 142.566507 276.986168 
L 142.88035 276.986168 
L 142.88035 276.426986 
L 144.490842 276.426986 
L 144.490842 275.867804 
L 145.425852 275.867804 
L 145.425852 275.308622 
L 145.757911 275.308622 
L 145.757911 274.749439 
L 146.36716 274.749439 
L 146.36716 274.190257 
L 146.493666 274.190257 
L 146.601366 272.51271 
L 148.198003 272.51271 
L 148.198003 271.953528 
L 148.963498 271.953528 
L 148.963498 271.394346 
L 149.440373 271.394346 
L 149.440373 270.275981 
L 149.941267 270.275981 
L 149.941267 268.598435 
L 151.402636 268.598435 
L 151.402636 266.920888 
L 151.597804 266.920888 
L 151.597804 266.361706 
L 151.737763 266.361706 
L 151.737763 265.802523 
L 152.033896 265.802523 
L 152.033896 265.243341 
L 152.228523 265.243341 
L 152.228523 264.684159 
L 152.573398 264.684159 
L 152.573398 264.124977 
L 153.206549 264.124977 
L 153.206549 263.565795 
L 153.705102 263.565795 
L 153.705102 263.006612 
L 154.844686 263.006612 
L 154.844686 261.888248 
L 155.086779 261.888248 
L 155.086779 260.769883 
L 156.120495 260.769883 
L 156.156472 259.651519 
L 156.248641 259.651519 
L 156.248641 259.092337 
L 157.375288 259.092337 
L 157.427822 257.973972 
L 157.861027 257.973972 
L 157.861027 257.41479 
L 158.513444 257.41479 
L 158.513444 256.855608 
L 158.82401 256.855608 
L 158.82401 256.296425 
L 160.233235 256.296425 
L 160.233235 255.737243 
L 161.633092 255.737243 
L 161.633092 255.178061 
L 161.778125 255.178061 
L 161.778125 253.500514 
L 162.13726 253.500514 
L 162.159006 252.38215 
L 162.750003 252.38215 
L 162.750003 251.822967 
L 164.963632 251.822967 
L 165.064883 250.704603 
L 165.733903 250.704603 
L 165.733903 250.145421 
L 166.720249 250.145421 
L 166.720249 249.027056 
L 167.700409 249.027056 
L 167.700409 248.467874 
L 168.532962 248.467874 
L 168.532962 247.908692 
L 168.687311 247.908692 
L 168.687311 247.34951 
L 168.996786 247.34951 
L 169.055108 246.231145 
L 169.913933 246.231145 
L 169.913933 243.994416 
L 170.800004 243.994416 
L 170.800004 242.876052 
L 171.565267 242.876052 
L 171.565267 242.316869 
L 171.694769 242.316869 
L 171.694769 240.08014 
L 172.991028 240.08014 
L 172.991028 239.520958 
L 173.922568 239.520958 
L 173.922568 238.402594 
L 174.162209 238.402594 
L 174.162209 237.843411 
L 174.277208 237.843411 
L 174.277208 237.284229 
L 174.738388 237.284229 
L 174.738388 236.165865 
L 175.868586 236.165865 
L 175.868586 235.606682 
L 176.742343 235.606682 
L 176.795024 232.810771 
L 177.185069 232.810771 
L 177.185069 231.692407 
L 178.044939 231.692407 
L 178.044939 230.574042 
L 178.292043 230.574042 
L 178.292043 230.01486 
L 178.992337 230.01486 
L 178.992337 229.455678 
L 180.177354 229.455678 
L 180.177354 228.896496 
L 180.314072 228.896496 
L 180.314072 227.778131 
L 181.189188 227.778131 
L 181.240641 226.659767 
L 181.537947 226.659767 
L 181.537947 226.100584 
L 182.49824 226.100584 
L 182.49824 225.541402 
L 182.756169 225.541402 
L 182.756169 224.98222 
L 242.319485 224.98222 
L 242.418375 215.476122 
L 242.431983 215.476122 
L 242.515173 207.088388 
L 242.555027 207.088388 
L 242.659912 198.141472 
L 242.678776 198.141472 
L 242.769745 192.54965 
L 254.233283 192.54965 
L 254.337463 179.688458 
L 254.347734 179.688458 
L 254.445935 172.978271 
L 254.463191 172.978271 
L 254.463191 172.419089 
L 261.197622 172.419089 
L 261.30432 150.610982 
L 261.312389 150.610982 
L 261.353768 142.223248 
L 266.14813 142.223248 
L 266.258615 126.006963 
L 269.987754 126.006963 
L 270.06944 106.994767 
L 273.120452 106.994767 
L 273.183654 93.574393 
L 275.76965 93.574393 
L 275.823847 81.272384 
L 278.061505 81.272384 
L 278.111596 68.411192 
L 280.097171 68.411192 
L 280.135829 61.701006 
L 281.903157 61.701006 
L 281.929623 54.990819 
L 283.53925 54.990819 
L 283.573307 47.72145 
L 285.038657 47.72145 
L 285.062717 39.333716 
L 286.413723 39.333716 
L 286.436969 35.978622 
L 287.691847 35.978622 
L 287.715516 33.182711 
L 288.875149 33.182711 
L 288.894403 31.505165 
L 289.985071 31.505165 
L 290.006351 29.827618 
L 291.023623 29.827618 
L 291.047032 26.472524 
L 292.006709 26.472524 
L 292.019294 24.794978 
L 292.940433 24.794978 
L 292.959566 21.999066 
L 293.833091 21.999066 
L 293.833091 21.439884 
L 294.661002 21.439884 
L 294.661002 20.880702 
L 295.459094 20.880702 
L 295.472486 18.084791 
L 296.956944 18.084791 
L 296.966782 16.966426 
L 297.666399 16.966426 
L 297.671132 15.28888 
L 298.334116 15.28888 
L 298.34268 14.170515 
L 299.609856 14.170515 
L 299.609856 13.611333 
L 300.220886 13.611333 
L 300.220886 13.052151 
L 300.805493 13.052151 
L 300.805493 12.492968 
L 301.369283 12.492968 
L 301.369283 11.933786 
L 302.443399 11.933786 
L 302.443399 11.374604 
L 303.454064 11.374604 
L 303.454064 10.815422 
L 304.405335 10.815422 
L 304.405335 10.256239 
L 310.589069 10.256239 
L 310.589069 9.697057 
L 333.429677 9.697057 
L 333.429677 9.697057 
" style="fill:none;stroke:#ffa500;stroke-linecap:square;stroke-width:1.5;"/>
   </g>
   <g id="line2d_35">
    <defs>
     <path d="M 0 -6 
L -1.347084 -1.854102 
L -5.706339 -1.854102 
L -2.179628 0.708204 
L -3.526712 4.854102 
L -0 2.291796 
L 3.526712 4.854102 
L 2.179628 0.708204 
L 5.706339 -1.854102 
L 1.347084 -1.854102 
z
" id="m0052502ac8" style="stroke:#ffa500;stroke-linejoin:bevel;stroke-width:1.5;"/>
    </defs>
    <g>
     <use style="fill-opacity:0;stroke:#ffa500;stroke-linejoin:bevel;stroke-width:1.5;" x="132.166277" xlink:href="#m0052502ac8" y="282.577991"/>
     <use style="fill-opacity:0;stroke:#ffa500;stroke-linejoin:bevel;stroke-width:1.5;" x="182.756169" xlink:href="#m0052502ac8" y="225.541402"/>
     <use style="fill-opacity:0;stroke:#ffa500;stroke-linejoin:bevel;stroke-width:1.5;" x="266.258615" xlink:href="#m0052502ac8" y="126.006963"/>
     <use style="fill-opacity:0;stroke:#ffa500;stroke-linejoin:bevel;stroke-width:1.5;" x="310.589069" xlink:href="#m0052502ac8" y="10.256239"/>
     <use style="fill-opacity:0;stroke:#ffa500;stroke-linejoin:bevel;stroke-width:1.5;" x="310.589069" xlink:href="#m0052502ac8" y="9.697057"/>
     <use style="fill-opacity:0;stroke:#ffa500;stroke-linejoin:bevel;stroke-width:1.5;" x="333.429677" xlink:href="#m0052502ac8" y="9.697057"/>
    </g>
   </g>
   <g id="line2d_36">
    <path style="fill:none;stroke:#ffa500;stroke-linecap:square;stroke-width:1.5;"/>
    <g/>
   </g>
   <g id="line2d_37">
    <path clip-path="url(#pc5cdffd5b7)" d="M 242.272854 224.98222 
" style="fill:none;stroke:#ffa500;stroke-linecap:square;stroke-width:1.5;"/>
    <defs>
     <path d="M -12 12 
L 12 -12 
M -12 -12 
L 12 12 
" id="me37f8e8db8" style="stroke:#ffa500;stroke-width:3;"/>
    </defs>
    <g clip-path="url(#pc5cdffd5b7)">
     <use style="fill:#ffa500;stroke:#ffa500;stroke-width:3;" x="242.272854" xlink:href="#me37f8e8db8" y="224.98222"/>
    </g>
   </g>
   <g id="line2d_38">
    <defs>
     <path d="M 0 1.5 
C 0.397805 1.5 0.77937 1.341951 1.06066 1.06066 
C 1.341951 0.77937 1.5 0.397805 1.5 0 
C 1.5 -0.397805 1.341951 -0.77937 1.06066 -1.06066 
C 0.77937 -1.341951 0.397805 -1.5 0 -1.5 
C -0.397805 -1.5 -0.77937 -1.341951 -1.06066 -1.06066 
C -1.341951 -0.77937 -1.5 -0.397805 -1.5 0 
C -1.5 0.397805 -1.341951 0.77937 -1.06066 1.06066 
C -0.77937 1.341951 -0.397805 1.5 0 1.5 
z
" id="m4b89f78c36" style="stroke:#6495ed;"/>
    </defs>
    <g>
     <use style="fill:#6495ed;stroke:#6495ed;" x="242.845764" xlink:href="#m4b89f78c36" y="244.553598"/>
     <use style="fill:#6495ed;stroke:#6495ed;" x="242.845764" xlink:href="#m4b89f78c36" y="244.553598"/>
    </g>
   </g>
   <g id="line2d_39">
    <path d="M 139.692364 294.88 
L 139.692364 293.202453 
L 140.193 293.202453 
L 140.193 292.084089 
L 140.930101 292.084089 
L 140.930101 286.492266 
L 141.177124 286.492266 
L 141.177124 285.933084 
L 141.189383 285.933084 
L 141.189383 285.373902 
L 141.226106 285.373902 
L 141.226106 282.018808 
L 141.493042 282.018808 
L 141.493042 278.663715 
L 141.744038 278.663715 
L 141.744038 277.545351 
L 142.498503 277.545351 
L 142.498503 275.867804 
L 144.143463 275.867804 
L 144.143463 274.190257 
L 144.470601 274.190257 
L 144.470601 270.275981 
L 144.531253 270.275981 
L 144.531253 268.039252 
L 144.621831 268.039252 
L 144.621831 267.48007 
L 145.559445 267.48007 
L 145.559445 263.565795 
L 145.673134 263.565795 
L 145.673134 263.006612 
L 145.851619 263.006612 
L 145.851619 260.210701 
L 146.009762 260.210701 
L 146.009762 259.092337 
L 146.430529 259.092337 
L 146.430529 257.973972 
L 146.457616 257.973972 
L 146.457616 257.41479 
L 146.735048 257.41479 
L 146.735048 256.855608 
L 147.651244 256.855608 
L 147.651244 255.178061 
L 147.901927 255.178061 
L 147.901927 254.618879 
L 148.017674 254.618879 
L 148.017674 254.059696 
L 149.080089 254.059696 
L 149.080089 253.500514 
L 149.103313 253.500514 
L 149.103313 251.263785 
L 152.137971 251.263785 
L 152.137971 250.704603 
L 156.572412 250.704603 
L 156.572412 250.145421 
L 179.661311 250.145421 
L 179.661311 249.027056 
L 179.750137 249.027056 
L 179.750137 248.467874 
L 182.521546 248.467874 
L 182.521546 246.790327 
L 182.710158 246.790327 
L 182.710158 245.671963 
L 188.136776 245.671963 
L 188.136776 245.112781 
L 242.845764 245.112781 
L 242.845764 244.553598 
L 333.429677 244.553598 
" style="fill:none;stroke:#6495ed;stroke-linecap:square;stroke-width:1.5;"/>
   </g>
   <g id="line2d_40">
    <defs>
     <path d="M -0 6 
L 6 -6 
L -6 -6 
z
" id="mb65f387c58" style="stroke:#6495ed;stroke-linejoin:miter;stroke-width:1.5;"/>
    </defs>
    <g>
     <use style="fill-opacity:0;stroke:#6495ed;stroke-linejoin:miter;stroke-width:1.5;" x="182.710158" xlink:href="#mb65f387c58" y="246.790327"/>
     <use style="fill-opacity:0;stroke:#6495ed;stroke-linejoin:miter;stroke-width:1.5;" x="242.845764" xlink:href="#mb65f387c58" y="245.112781"/>
     <use style="fill-opacity:0;stroke:#6495ed;stroke-linejoin:miter;stroke-width:1.5;" x="242.845764" xlink:href="#mb65f387c58" y="244.553598"/>
     <use style="fill-opacity:0;stroke:#6495ed;stroke-linejoin:miter;stroke-width:1.5;" x="242.845764" xlink:href="#mb65f387c58" y="244.553598"/>
     <use style="fill-opacity:0;stroke:#6495ed;stroke-linejoin:miter;stroke-width:1.5;" x="333.429677" xlink:href="#mb65f387c58" y="244.553598"/>
    </g>
   </g>
   <g id="line2d_41">
    <path style="fill:none;stroke:#6495ed;stroke-linecap:square;stroke-width:1.5;"/>
    <g/>
   </g>
   <g id="line2d_42">
    <path clip-path="url(#pc5cdffd5b7)" d="M 242.272854 245.112781 
" style="fill:none;stroke:#6495ed;stroke-linecap:square;stroke-width:1.5;"/>
    <defs>
     <path d="M -12 12 
L 12 -12 
M -12 -12 
L 12 12 
" id="m510c446941" style="stroke:#6495ed;stroke-width:3;"/>
    </defs>
    <g clip-path="url(#pc5cdffd5b7)">
     <use style="fill:#6495ed;stroke:#6495ed;stroke-width:3;" x="242.272854" xlink:href="#m510c446941" y="245.112781"/>
    </g>
   </g>
   <g id="line2d_43">
    <defs>
     <path d="M 0 1.5 
C 0.397805 1.5 0.77937 1.341951 1.06066 1.06066 
C 1.341951 0.77937 1.5 0.397805 1.5 0 
C 1.5 -0.397805 1.341951 -0.77937 1.06066 -1.06066 
C 0.77937 -1.341951 0.397805 -1.5 0 -1.5 
C -0.397805 -1.5 -0.77937 -1.341951 -1.06066 -1.06066 
C -1.341951 -0.77937 -1.5 -0.397805 -1.5 0 
C -1.5 0.397805 -1.341951 0.77937 -1.06066 1.06066 
C -0.77937 1.341951 -0.397805 1.5 0 1.5 
z
" id="m64353a1693" style="stroke:#ff0000;"/>
    </defs>
    <g>
     <use style="fill:#ff0000;stroke:#ff0000;" x="288.980673" xlink:href="#m64353a1693" y="250.145421"/>
     <use style="fill:#ff0000;stroke:#ff0000;" x="288.980673" xlink:href="#m64353a1693" y="250.145421"/>
    </g>
   </g>
   <g id="line2d_44">
    <path d="M 183.208571 294.88 
L 183.208571 294.320818 
L 184.182203 294.320818 
L 184.182203 293.761636 
L 189.940925 293.761636 
L 189.940925 293.202453 
L 192.958801 293.202453 
L 192.958801 292.643271 
L 193.253738 292.643271 
L 193.253738 290.965724 
L 194.175415 290.965724 
L 194.175415 290.406542 
L 194.221549 290.406542 
L 194.221549 289.288178 
L 194.520645 289.288178 
L 194.520645 288.728995 
L 194.77496 288.728995 
L 194.77496 287.610631 
L 194.991757 287.610631 
L 194.991757 287.051449 
L 195.43147 287.051449 
L 195.43147 286.492266 
L 196.447224 286.492266 
L 196.447224 285.933084 
L 196.961276 285.933084 
L 196.961276 285.373902 
L 197.232711 285.373902 
L 197.232711 284.255537 
L 197.745675 284.255537 
L 197.745675 283.137173 
L 198.325864 283.137173 
L 198.325864 282.577991 
L 199.017717 282.577991 
L 199.017717 280.900444 
L 199.512228 280.900444 
L 199.512228 280.341262 
L 199.620945 280.341262 
L 199.620945 278.663715 
L 199.706937 278.663715 
L 199.706937 277.545351 
L 200.167588 277.545351 
L 200.167588 276.986168 
L 200.269092 276.986168 
L 200.269092 276.426986 
L 200.394743 276.426986 
L 200.394743 275.867804 
L 200.891799 275.867804 
L 200.891799 275.308622 
L 200.892942 275.308622 
L 200.892942 274.749439 
L 201.383421 274.749439 
L 201.383421 274.190257 
L 202.13525 274.190257 
L 202.13525 273.631075 
L 202.277954 273.631075 
L 202.277954 273.071893 
L 202.579226 273.071893 
L 202.579226 272.51271 
L 202.977279 272.51271 
L 202.977279 271.953528 
L 204.781209 271.953528 
L 204.781209 271.394346 
L 211.857658 271.394346 
L 211.857658 269.716799 
L 243.650368 269.716799 
L 243.650368 269.157617 
L 243.743686 269.157617 
L 243.743686 268.598435 
L 243.79255 268.598435 
L 243.79255 268.039252 
L 243.835589 268.039252 
L 243.835589 267.48007 
L 243.918312 267.48007 
L 243.918312 266.920888 
L 243.938158 266.920888 
L 243.938158 266.361706 
L 254.936273 266.361706 
L 254.936273 265.802523 
L 254.949487 265.802523 
L 254.949487 265.243341 
L 254.957704 265.243341 
L 254.957704 264.684159 
L 254.979222 264.684159 
L 254.979222 264.124977 
L 254.984549 264.124977 
L 254.984549 263.565795 
L 255.051151 263.565795 
L 255.051151 263.006612 
L 261.616008 263.006612 
L 261.616008 262.44743 
L 261.645864 262.44743 
L 261.645864 261.329066 
L 261.695954 261.329066 
L 261.695954 260.769883 
L 261.702429 260.769883 
L 261.702429 260.210701 
L 261.721884 260.210701 
L 261.721884 259.651519 
L 261.74753 259.651519 
L 261.74753 259.092337 
L 266.478718 259.092337 
L 266.478718 258.533154 
L 266.494225 258.533154 
L 266.494225 257.973972 
L 266.521448 257.973972 
L 266.521448 257.41479 
L 266.546798 257.41479 
L 266.546798 256.296425 
L 270.261992 256.296425 
L 270.261992 255.737243 
L 270.267415 255.737243 
L 270.267415 255.178061 
L 273.37579 255.178061 
L 273.37579 254.618879 
L 273.382945 254.618879 
L 273.382945 254.059696 
L 276.007882 254.059696 
L 276.007882 253.500514 
L 278.242368 253.500514 
L 278.242368 252.38215 
L 280.269004 252.38215 
L 280.269004 251.263785 
L 286.512432 251.263785 
L 286.512432 250.704603 
L 288.980673 250.704603 
L 288.980673 250.145421 
L 333.429677 250.145421 
" style="fill:none;stroke:#ff0000;stroke-linecap:square;stroke-width:1.5;"/>
   </g>
   <g id="line2d_45">
    <defs>
     <path d="M 0 -6 
L -5.196152 -3 
L -5.196152 3 
L -0 6 
L 5.196152 3 
L 5.196152 -3 
z
" id="m1269eeaa7c" style="stroke:#ff0000;stroke-linejoin:miter;stroke-width:1.5;"/>
    </defs>
    <g>
     <use style="fill-opacity:0;stroke:#ff0000;stroke-linejoin:miter;stroke-width:1.5;" x="211.857658" xlink:href="#m1269eeaa7c" y="271.394346"/>
     <use style="fill-opacity:0;stroke:#ff0000;stroke-linejoin:miter;stroke-width:1.5;" x="286.512432" xlink:href="#m1269eeaa7c" y="250.704603"/>
     <use style="fill-opacity:0;stroke:#ff0000;stroke-linejoin:miter;stroke-width:1.5;" x="288.980673" xlink:href="#m1269eeaa7c" y="250.145421"/>
     <use style="fill-opacity:0;stroke:#ff0000;stroke-linejoin:miter;stroke-width:1.5;" x="333.429677" xlink:href="#m1269eeaa7c" y="250.145421"/>
    </g>
   </g>
   <g id="line2d_46">
    <path style="fill:none;stroke:#ff0000;stroke-linecap:square;stroke-width:1.5;"/>
    <g/>
   </g>
   <g id="line2d_47">
    <path clip-path="url(#pc5cdffd5b7)" d="M 242.272854 269.716799 
" style="fill:none;stroke:#ff0000;stroke-linecap:square;stroke-width:1.5;"/>
    <defs>
     <path d="M -12 12 
L 12 -12 
M -12 -12 
L 12 12 
" id="m9d542f1cce" style="stroke:#ff0000;stroke-width:3;"/>
    </defs>
    <g clip-path="url(#pc5cdffd5b7)">
     <use style="fill:#ff0000;stroke:#ff0000;stroke-width:3;" x="242.272854" xlink:href="#m9d542f1cce" y="269.716799"/>
    </g>
   </g>
   <g id="line2d_48">
    <path d="M 333.429677 250.145421 
L 363.933742 289.176341 
" style="fill:none;stroke:#ff0000;stroke-linecap:square;stroke-width:1.5;"/>
    <g>
     <use style="fill-opacity:0;stroke:#ff0000;stroke-linejoin:miter;stroke-width:1.5;" x="333.429677" xlink:href="#m1269eeaa7c" y="250.145421"/>
     <use style="fill-opacity:0;stroke:#ff0000;stroke-linejoin:miter;stroke-width:1.5;" x="363.933742" xlink:href="#m1269eeaa7c" y="289.176341"/>
    </g>
   </g>
   <g id="line2d_49">
    <path d="M 333.429677 244.553598 
L 363.933742 220.732435 
" style="fill:none;stroke:#6495ed;stroke-linecap:square;stroke-width:1.5;"/>
    <g>
     <use style="fill-opacity:0;stroke:#6495ed;stroke-linejoin:miter;stroke-width:1.5;" x="333.429677" xlink:href="#mb65f387c58" y="244.553598"/>
     <use style="fill-opacity:0;stroke:#6495ed;stroke-linejoin:miter;stroke-width:1.5;" x="363.933742" xlink:href="#mb65f387c58" y="220.732435"/>
    </g>
   </g>
   <g id="line2d_50">
    <path d="M 333.429677 233.369954 
L 363.933742 152.288529 
" style="fill:none;stroke:#ff00ff;stroke-linecap:square;stroke-width:1.5;"/>
    <g>
     <use style="fill-opacity:0;stroke:#ff00ff;stroke-linejoin:miter;stroke-width:1.5;" x="333.429677" xlink:href="#mdb01021332" y="233.369954"/>
     <use style="fill-opacity:0;stroke:#ff00ff;stroke-linejoin:miter;stroke-width:1.5;" x="363.933742" xlink:href="#mdb01021332" y="152.288529"/>
    </g>
   </g>
   <g id="line2d_51">
    <path d="M 333.429677 177.451729 
L 363.933742 83.844622 
" style="fill:none;stroke:#000080;stroke-linecap:square;stroke-width:1.5;"/>
    <g>
     <use style="fill-opacity:0;stroke:#000080;stroke-width:1.5;" x="333.429677" xlink:href="#m3e4ece48e9" y="177.451729"/>
     <use style="fill-opacity:0;stroke:#000080;stroke-width:1.5;" x="363.933742" xlink:href="#m3e4ece48e9" y="83.844622"/>
    </g>
   </g>
   <g id="line2d_52">
    <path d="M 333.429677 9.697057 
L 363.933742 15.400716 
" style="fill:none;stroke:#ffa500;stroke-linecap:square;stroke-width:1.5;"/>
    <g>
     <use style="fill-opacity:0;stroke:#ffa500;stroke-linejoin:bevel;stroke-width:1.5;" x="333.429677" xlink:href="#m0052502ac8" y="9.697057"/>
     <use style="fill-opacity:0;stroke:#ffa500;stroke-linejoin:bevel;stroke-width:1.5;" x="363.933742" xlink:href="#m0052502ac8" y="15.400716"/>
    </g>
   </g>
   <g id="line2d_53">
    <path d="M 333.429677 294.88 
L 333.429677 9.697057 
" style="fill:none;stroke:#000000;stroke-linecap:square;stroke-width:1.5;"/>
   </g>
   <g id="patch_3">
    <path d="M 56.12 294.88 
L 56.12 6.845228 
" style="fill:none;stroke:#000000;stroke-linecap:square;stroke-linejoin:miter;stroke-width:0.8;"/>
   </g>
   <g id="patch_4">
    <path d="M 399.984 294.88 
L 399.984 6.845228 
" style="fill:none;stroke:#000000;stroke-linecap:square;stroke-linejoin:miter;stroke-width:0.8;"/>
   </g>
   <g id="patch_5">
    <path d="M 56.12 294.88 
L 399.984 294.88 
" style="fill:none;stroke:#000000;stroke-linecap:square;stroke-linejoin:miter;stroke-width:0.8;"/>
   </g>
   <g id="patch_6">
    <path d="M 56.12 6.845228 
L 399.984 6.845228 
" style="fill:none;stroke:#000000;stroke-linecap:square;stroke-linejoin:miter;stroke-width:0.8;"/>
   </g>
   <g id="text_14">
    <!-- f24 -->
    <g transform="translate(369.479935 293.867279)scale(0.17 -0.17)">
     <use xlink:href="#DejaVuSans-66"/>
     <use x="35.205078" xlink:href="#DejaVuSans-32"/>
     <use x="98.828125" xlink:href="#DejaVuSans-34"/>
    </g>
   </g>
   <g id="text_15">
    <!-- f20 -->
    <g transform="translate(369.479935 225.423372)scale(0.17 -0.17)">
     <use xlink:href="#DejaVuSans-66"/>
     <use x="35.205078" xlink:href="#DejaVuSans-32"/>
     <use x="98.828125" xlink:href="#DejaVuSans-30"/>
    </g>
   </g>
   <g id="text_16">
    <!-- f22 -->
    <g transform="translate(369.479935 156.979466)scale(0.17 -0.17)">
     <use xlink:href="#DejaVuSans-66"/>
     <use x="35.205078" xlink:href="#DejaVuSans-32"/>
     <use x="98.828125" xlink:href="#DejaVuSans-32"/>
    </g>
   </g>
   <g id="text_17">
    <!-- f23 -->
    <defs>
     <path d="M 40.578125 39.3125 
Q 47.65625 37.796875 51.625 33 
Q 55.609375 28.21875 55.609375 21.1875 
Q 55.609375 10.40625 48.1875 4.484375 
Q 40.765625 -1.421875 27.09375 -1.421875 
Q 22.515625 -1.421875 17.65625 -0.515625 
Q 12.796875 0.390625 7.625 2.203125 
L 7.625 11.71875 
Q 11.71875 9.328125 16.59375 8.109375 
Q 21.484375 6.890625 26.8125 6.890625 
Q 36.078125 6.890625 40.9375 10.546875 
Q 45.796875 14.203125 45.796875 21.1875 
Q 45.796875 27.640625 41.28125 31.265625 
Q 36.765625 34.90625 28.71875 34.90625 
L 20.21875 34.90625 
L 20.21875 43.015625 
L 29.109375 43.015625 
Q 36.375 43.015625 40.234375 45.921875 
Q 44.09375 48.828125 44.09375 54.296875 
Q 44.09375 59.90625 40.109375 62.90625 
Q 36.140625 65.921875 28.71875 65.921875 
Q 24.65625 65.921875 20.015625 65.03125 
Q 15.375 64.15625 9.8125 62.3125 
L 9.8125 71.09375 
Q 15.4375 72.65625 20.34375 73.4375 
Q 25.25 74.21875 29.59375 74.21875 
Q 40.828125 74.21875 47.359375 69.109375 
Q 53.90625 64.015625 53.90625 55.328125 
Q 53.90625 49.265625 50.4375 45.09375 
Q 46.96875 40.921875 40.578125 39.3125 
z
" id="DejaVuSans-33"/>
    </defs>
    <g transform="translate(369.479935 88.53556)scale(0.17 -0.17)">
     <use xlink:href="#DejaVuSans-66"/>
     <use x="35.205078" xlink:href="#DejaVuSans-32"/>
     <use x="98.828125" xlink:href="#DejaVuSans-33"/>
    </g>
   </g>
   <g id="text_18">
    <!-- f21 -->
    <g transform="translate(369.479935 20.091654)scale(0.17 -0.17)">
     <use xlink:href="#DejaVuSans-66"/>
     <use x="35.205078" xlink:href="#DejaVuSans-32"/>
     <use x="98.828125" xlink:href="#DejaVuSans-31"/>
    </g>
   </g>
   <g id="text_19">
    <!-- bbob -->
    <defs>
     <path d="M 48.6875 27.296875 
Q 48.6875 37.203125 44.609375 42.84375 
Q 40.53125 48.484375 33.40625 48.484375 
Q 26.265625 48.484375 22.1875 42.84375 
Q 18.109375 37.203125 18.109375 27.296875 
Q 18.109375 17.390625 22.1875 11.75 
Q 26.265625 6.109375 33.40625 6.109375 
Q 40.53125 6.109375 44.609375 11.75 
Q 48.6875 17.390625 48.6875 27.296875 
z
M 18.109375 46.390625 
Q 20.953125 51.265625 25.265625 53.625 
Q 29.59375 56 35.59375 56 
Q 45.5625 56 51.78125 48.09375 
Q 58.015625 40.1875 58.015625 27.296875 
Q 58.015625 14.40625 51.78125 6.484375 
Q 45.5625 -1.421875 35.59375 -1.421875 
Q 29.59375 -1.421875 25.265625 0.953125 
Q 20.953125 3.328125 18.109375 8.203125 
L 18.109375 0 
L 9.078125 0 
L 9.078125 75.984375 
L 18.109375 75.984375 
z
" id="DejaVuSans-62"/>
    </defs>
    <g transform="translate(59.55864 17.475982)scale(0.102 -0.102)">
     <use xlink:href="#DejaVuSans-62"/>
     <use x="63.476562" xlink:href="#DejaVuSans-62"/>
     <use x="126.953125" xlink:href="#DejaVuSans-6f"/>
     <use x="188.134766" xlink:href="#DejaVuSans-62"/>
    </g>
    <!-- Weak structure functions, 20-D -->
    <defs>
     <path d="M 3.328125 72.90625 
L 13.28125 72.90625 
L 28.609375 11.28125 
L 43.890625 72.90625 
L 54.984375 72.90625 
L 70.3125 11.28125 
L 85.59375 72.90625 
L 95.609375 72.90625 
L 77.296875 0 
L 64.890625 0 
L 49.515625 63.28125 
L 33.984375 0 
L 21.578125 0 
z
" id="DejaVuSans-57"/>
     <path d="M 9.078125 75.984375 
L 18.109375 75.984375 
L 18.109375 31.109375 
L 44.921875 54.6875 
L 56.390625 54.6875 
L 27.390625 29.109375 
L 57.625 0 
L 45.90625 0 
L 18.109375 26.703125 
L 18.109375 0 
L 9.078125 0 
z
" id="DejaVuSans-6b"/>
     <path d="M 19.671875 64.796875 
L 19.671875 8.109375 
L 31.59375 8.109375 
Q 46.6875 8.109375 53.6875 14.9375 
Q 60.6875 21.78125 60.6875 36.53125 
Q 60.6875 51.171875 53.6875 57.984375 
Q 46.6875 64.796875 31.59375 64.796875 
z
M 9.8125 72.90625 
L 30.078125 72.90625 
Q 51.265625 72.90625 61.171875 64.09375 
Q 71.09375 55.28125 71.09375 36.53125 
Q 71.09375 17.671875 61.125 8.828125 
Q 51.171875 0 30.078125 0 
L 9.8125 0 
z
" id="DejaVuSans-44"/>
    </defs>
    <g transform="translate(59.55864 28.89775)scale(0.102 -0.102)">
     <use xlink:href="#DejaVuSans-57"/>
     <use x="98.798828" xlink:href="#DejaVuSans-65"/>
     <use x="160.322266" xlink:href="#DejaVuSans-61"/>
     <use x="221.601562" xlink:href="#DejaVuSans-6b"/>
     <use x="279.511719" xlink:href="#DejaVuSans-20"/>
     <use x="311.298828" xlink:href="#DejaVuSans-73"/>
     <use x="363.398438" xlink:href="#DejaVuSans-74"/>
     <use x="402.607422" xlink:href="#DejaVuSans-72"/>
     <use x="443.720703" xlink:href="#DejaVuSans-75"/>
     <use x="507.099609" xlink:href="#DejaVuSans-63"/>
     <use x="562.080078" xlink:href="#DejaVuSans-74"/>
     <use x="601.289062" xlink:href="#DejaVuSans-75"/>
     <use x="664.667969" xlink:href="#DejaVuSans-72"/>
     <use x="705.75" xlink:href="#DejaVuSans-65"/>
     <use x="767.273438" xlink:href="#DejaVuSans-20"/>
     <use x="799.060547" xlink:href="#DejaVuSans-66"/>
     <use x="834.265625" xlink:href="#DejaVuSans-75"/>
     <use x="897.644531" xlink:href="#DejaVuSans-6e"/>
     <use x="961.023438" xlink:href="#DejaVuSans-63"/>
     <use x="1016.003906" xlink:href="#DejaVuSans-74"/>
     <use x="1055.212891" xlink:href="#DejaVuSans-69"/>
     <use x="1082.996094" xlink:href="#DejaVuSans-6f"/>
     <use x="1144.177734" xlink:href="#DejaVuSans-6e"/>
     <use x="1207.556641" xlink:href="#DejaVuSans-73"/>
     <use x="1259.65625" xlink:href="#DejaVuSans-2c"/>
     <use x="1291.443359" xlink:href="#DejaVuSans-20"/>
     <use x="1323.230469" xlink:href="#DejaVuSans-32"/>
     <use x="1386.853516" xlink:href="#DejaVuSans-30"/>
     <use x="1450.476562" xlink:href="#DejaVuSans-2d"/>
     <use x="1486.560547" xlink:href="#DejaVuSans-44"/>
    </g>
    <!-- 51 targets: 100..1e-08 -->
    <defs>
     <path d="M 10.796875 72.90625 
L 49.515625 72.90625 
L 49.515625 64.59375 
L 19.828125 64.59375 
L 19.828125 46.734375 
Q 21.96875 47.46875 24.109375 47.828125 
Q 26.265625 48.1875 28.421875 48.1875 
Q 40.625 48.1875 47.75 41.5 
Q 54.890625 34.8125 54.890625 23.390625 
Q 54.890625 11.625 47.5625 5.09375 
Q 40.234375 -1.421875 26.90625 -1.421875 
Q 22.3125 -1.421875 17.546875 -0.640625 
Q 12.796875 0.140625 7.71875 1.703125 
L 7.71875 11.625 
Q 12.109375 9.234375 16.796875 8.0625 
Q 21.484375 6.890625 26.703125 6.890625 
Q 35.15625 6.890625 40.078125 11.328125 
Q 45.015625 15.765625 45.015625 23.390625 
Q 45.015625 31 40.078125 35.4375 
Q 35.15625 39.890625 26.703125 39.890625 
Q 22.75 39.890625 18.8125 39.015625 
Q 14.890625 38.140625 10.796875 36.28125 
z
" id="DejaVuSans-35"/>
     <path d="M 11.71875 12.40625 
L 22.015625 12.40625 
L 22.015625 0 
L 11.71875 0 
z
M 11.71875 51.703125 
L 22.015625 51.703125 
L 22.015625 39.3125 
L 11.71875 39.3125 
z
" id="DejaVuSans-3a"/>
    </defs>
    <g transform="translate(59.55864 40.319519)scale(0.102 -0.102)">
     <use xlink:href="#DejaVuSans-35"/>
     <use x="63.623047" xlink:href="#DejaVuSans-31"/>
     <use x="127.246094" xlink:href="#DejaVuSans-20"/>
     <use x="159.033203" xlink:href="#DejaVuSans-74"/>
     <use x="198.242188" xlink:href="#DejaVuSans-61"/>
     <use x="259.521484" xlink:href="#DejaVuSans-72"/>
     <use x="300.619141" xlink:href="#DejaVuSans-67"/>
     <use x="364.095703" xlink:href="#DejaVuSans-65"/>
     <use x="425.619141" xlink:href="#DejaVuSans-74"/>
     <use x="464.828125" xlink:href="#DejaVuSans-73"/>
     <use x="516.927734" xlink:href="#DejaVuSans-3a"/>
     <use x="550.619141" xlink:href="#DejaVuSans-20"/>
     <use x="582.40625" xlink:href="#DejaVuSans-31"/>
     <use x="646.029297" xlink:href="#DejaVuSans-30"/>
     <use x="709.652344" xlink:href="#DejaVuSans-30"/>
     <use x="773.275391" xlink:href="#DejaVuSans-2e"/>
     <use x="805.0625" xlink:href="#DejaVuSans-2e"/>
     <use x="836.849609" xlink:href="#DejaVuSans-31"/>
     <use x="900.472656" xlink:href="#DejaVuSans-65"/>
     <use x="961.996094" xlink:href="#DejaVuSans-2d"/>
     <use x="998.080078" xlink:href="#DejaVuSans-30"/>
     <use x="1061.703125" xlink:href="#DejaVuSans-38"/>
    </g>
    <!-- 15 instances -->
    <g transform="translate(59.55864 51.741288)scale(0.102 -0.102)">
     <use xlink:href="#DejaVuSans-31"/>
     <use x="63.623047" xlink:href="#DejaVuSans-35"/>
     <use x="127.246094" xlink:href="#DejaVuSans-20"/>
     <use x="159.033203" xlink:href="#DejaVuSans-69"/>
     <use x="186.816406" xlink:href="#DejaVuSans-6e"/>
     <use x="250.195312" xlink:href="#DejaVuSans-73"/>
     <use x="302.294922" xlink:href="#DejaVuSans-74"/>
     <use x="341.503906" xlink:href="#DejaVuSans-61"/>
     <use x="402.783203" xlink:href="#DejaVuSans-6e"/>
     <use x="466.162109" xlink:href="#DejaVuSans-63"/>
     <use x="521.142578" xlink:href="#DejaVuSans-65"/>
     <use x="582.666016" xlink:href="#DejaVuSans-73"/>
    </g>
   </g>
   <g id="text_20">
    <!-- v0.0.0 -->
    <g style="fill:#808080;" transform="translate(212.37075 289.919965)scale(0.1 -0.1)">
     <use xlink:href="#DejaVuSans-76"/>
     <use x="59.179688" xlink:href="#DejaVuSans-30"/>
     <use x="122.802734" xlink:href="#DejaVuSans-2e"/>
     <use x="154.589844" xlink:href="#DejaVuSans-30"/>
     <use x="218.212891" xlink:href="#DejaVuSans-2e"/>
     <use x="250" xlink:href="#DejaVuSans-30"/>
    </g>
   </g>
  </g>
 </g>
 <defs>
  <clipPath id="pc5cdffd5b7">
   <rect height="288.034772" width="343.864" x="56.12" y="6.845228"/>
  </clipPath>
 </defs>
</svg>
