<?xml version="1.0" encoding="utf-8" standalone="no"?>
<!DOCTYPE svg PUBLIC "-//W3C//DTD SVG 1.1//EN"
  "http://www.w3.org/Graphics/SVG/1.1/DTD/svg11.dtd">
<!-- Created with matplotlib (http://matplotlib.org/) -->
<svg height="345.6pt" version="1.1" viewBox="0 0 460.8 345.6" width="460.8pt" xmlns="http://www.w3.org/2000/svg" xmlns:xlink="http://www.w3.org/1999/xlink">
 <defs>
  <style type="text/css">
*{stroke-linecap:butt;stroke-linejoin:round;}
  </style>
 </defs>
 <g id="figure_1">
  <g id="patch_1">
   <path d="M 0 345.6 
L 460.8 345.6 
L 460.8 0 
L 0 0 
z
" style="fill:#ffffff;"/>
  </g>
  <g id="axes_1">
   <g id="patch_2">
    <path d="M 56.12 294.88 
L 399.984 294.88 
L 399.984 24.84 
L 56.12 24.84 
z
" style="fill:#ffffff;"/>
   </g>
   <g id="matplotlib.axis_1">
    <g id="xtick_1">
     <g id="line2d_1">
      <path clip-path="url(#pf7f56dab41)" d="M 56.12 294.88 
L 56.12 24.84 
" style="fill:none;stroke:#b0b0b0;stroke-linecap:square;stroke-width:0.8;"/>
     </g>
     <g id="line2d_2">
      <defs>
       <path d="M 0 0 
L 0 3.5 
" id="m8bd5fbd51f" style="stroke:#000000;stroke-width:0.8;"/>
      </defs>
      <g>
       <use style="stroke:#000000;stroke-width:0.8;" x="56.12" xlink:href="#m8bd5fbd51f" y="294.88"/>
      </g>
     </g>
     <g id="text_1">
      <!-- 0 -->
      <defs>
       <path d="M 31.78125 66.40625 
Q 24.171875 66.40625 20.328125 58.90625 
Q 16.5 51.421875 16.5 36.375 
Q 16.5 21.390625 20.328125 13.890625 
Q 24.171875 6.390625 31.78125 6.390625 
Q 39.453125 6.390625 43.28125 13.890625 
Q 47.125 21.390625 47.125 36.375 
Q 47.125 51.421875 43.28125 58.90625 
Q 39.453125 66.40625 31.78125 66.40625 
z
M 31.78125 74.21875 
Q 44.046875 74.21875 50.515625 64.515625 
Q 56.984375 54.828125 56.984375 36.375 
Q 56.984375 17.96875 50.515625 8.265625 
Q 44.046875 -1.421875 31.78125 -1.421875 
Q 19.53125 -1.421875 13.0625 8.265625 
Q 6.59375 17.96875 6.59375 36.375 
Q 6.59375 54.828125 13.0625 64.515625 
Q 19.53125 74.21875 31.78125 74.21875 
z
" id="DejaVuSans-30"/>
      </defs>
      <g transform="translate(49.7575 317.076875)scale(0.2 -0.2)">
       <use xlink:href="#DejaVuSans-30"/>
      </g>
     </g>
    </g>
    <g id="xtick_2">
     <g id="line2d_3">
      <path clip-path="url(#pf7f56dab41)" d="M 135.351336 294.88 
L 135.351336 24.84 
" style="fill:none;stroke:#b0b0b0;stroke-linecap:square;stroke-width:0.8;"/>
     </g>
     <g id="line2d_4">
      <g>
       <use style="stroke:#000000;stroke-width:0.8;" x="135.351336" xlink:href="#m8bd5fbd51f" y="294.88"/>
      </g>
     </g>
     <g id="text_2">
      <!-- 2 -->
      <defs>
       <path d="M 19.1875 8.296875 
L 53.609375 8.296875 
L 53.609375 0 
L 7.328125 0 
L 7.328125 8.296875 
Q 12.9375 14.109375 22.625 23.890625 
Q 32.328125 33.6875 34.8125 36.53125 
Q 39.546875 41.84375 41.421875 45.53125 
Q 43.3125 49.21875 43.3125 52.78125 
Q 43.3125 58.59375 39.234375 62.25 
Q 35.15625 65.921875 28.609375 65.921875 
Q 23.96875 65.921875 18.8125 64.3125 
Q 13.671875 62.703125 7.8125 59.421875 
L 7.8125 69.390625 
Q 13.765625 71.78125 18.9375 73 
Q 24.125 74.21875 28.421875 74.21875 
Q 39.75 74.21875 46.484375 68.546875 
Q 53.21875 62.890625 53.21875 53.421875 
Q 53.21875 48.921875 51.53125 44.890625 
Q 49.859375 40.875 45.40625 35.40625 
Q 44.1875 33.984375 37.640625 27.21875 
Q 31.109375 20.453125 19.1875 8.296875 
z
" id="DejaVuSans-32"/>
      </defs>
      <g transform="translate(128.988836 317.076875)scale(0.2 -0.2)">
       <use xlink:href="#DejaVuSans-32"/>
      </g>
     </g>
    </g>
    <g id="xtick_3">
     <g id="line2d_5">
      <path clip-path="url(#pf7f56dab41)" d="M 214.582673 294.88 
L 214.582673 24.84 
" style="fill:none;stroke:#b0b0b0;stroke-linecap:square;stroke-width:0.8;"/>
     </g>
     <g id="line2d_6">
      <g>
       <use style="stroke:#000000;stroke-width:0.8;" x="214.582673" xlink:href="#m8bd5fbd51f" y="294.88"/>
      </g>
     </g>
     <g id="text_3">
      <!-- 4 -->
      <defs>
       <path d="M 37.796875 64.3125 
L 12.890625 25.390625 
L 37.796875 25.390625 
z
M 35.203125 72.90625 
L 47.609375 72.90625 
L 47.609375 25.390625 
L 58.015625 25.390625 
L 58.015625 17.1875 
L 47.609375 17.1875 
L 47.609375 0 
L 37.796875 0 
L 37.796875 17.1875 
L 4.890625 17.1875 
L 4.890625 26.703125 
z
" id="DejaVuSans-34"/>
      </defs>
      <g transform="translate(208.220173 317.076875)scale(0.2 -0.2)">
       <use xlink:href="#DejaVuSans-34"/>
      </g>
     </g>
    </g>
    <g id="xtick_4">
     <g id="line2d_7">
      <path clip-path="url(#pf7f56dab41)" d="M 293.814009 294.88 
L 293.814009 24.84 
" style="fill:none;stroke:#b0b0b0;stroke-linecap:square;stroke-width:0.8;"/>
     </g>
     <g id="line2d_8">
      <g>
       <use style="stroke:#000000;stroke-width:0.8;" x="293.814009" xlink:href="#m8bd5fbd51f" y="294.88"/>
      </g>
     </g>
     <g id="text_4">
      <!-- 6 -->
      <defs>
       <path d="M 33.015625 40.375 
Q 26.375 40.375 22.484375 35.828125 
Q 18.609375 31.296875 18.609375 23.390625 
Q 18.609375 15.53125 22.484375 10.953125 
Q 26.375 6.390625 33.015625 6.390625 
Q 39.65625 6.390625 43.53125 10.953125 
Q 47.40625 15.53125 47.40625 23.390625 
Q 47.40625 31.296875 43.53125 35.828125 
Q 39.65625 40.375 33.015625 40.375 
z
M 52.59375 71.296875 
L 52.59375 62.3125 
Q 48.875 64.0625 45.09375 64.984375 
Q 41.3125 65.921875 37.59375 65.921875 
Q 27.828125 65.921875 22.671875 59.328125 
Q 17.53125 52.734375 16.796875 39.40625 
Q 19.671875 43.65625 24.015625 45.921875 
Q 28.375 48.1875 33.59375 48.1875 
Q 44.578125 48.1875 50.953125 41.515625 
Q 57.328125 34.859375 57.328125 23.390625 
Q 57.328125 12.15625 50.6875 5.359375 
Q 44.046875 -1.421875 33.015625 -1.421875 
Q 20.359375 -1.421875 13.671875 8.265625 
Q 6.984375 17.96875 6.984375 36.375 
Q 6.984375 53.65625 15.1875 63.9375 
Q 23.390625 74.21875 37.203125 74.21875 
Q 40.921875 74.21875 44.703125 73.484375 
Q 48.484375 72.75 52.59375 71.296875 
z
" id="DejaVuSans-36"/>
      </defs>
      <g transform="translate(287.451509 317.076875)scale(0.2 -0.2)">
       <use xlink:href="#DejaVuSans-36"/>
      </g>
     </g>
    </g>
    <g id="xtick_5">
     <g id="line2d_9">
      <path clip-path="url(#pf7f56dab41)" d="M 373.045346 294.88 
L 373.045346 24.84 
" style="fill:none;stroke:#b0b0b0;stroke-linecap:square;stroke-width:0.8;"/>
     </g>
     <g id="line2d_10">
      <g>
       <use style="stroke:#000000;stroke-width:0.8;" x="373.045346" xlink:href="#m8bd5fbd51f" y="294.88"/>
      </g>
     </g>
     <g id="text_5">
      <!-- 8 -->
      <defs>
       <path d="M 31.78125 34.625 
Q 24.75 34.625 20.71875 30.859375 
Q 16.703125 27.09375 16.703125 20.515625 
Q 16.703125 13.921875 20.71875 10.15625 
Q 24.75 6.390625 31.78125 6.390625 
Q 38.8125 6.390625 42.859375 10.171875 
Q 46.921875 13.96875 46.921875 20.515625 
Q 46.921875 27.09375 42.890625 30.859375 
Q 38.875 34.625 31.78125 34.625 
z
M 21.921875 38.8125 
Q 15.578125 40.375 12.03125 44.71875 
Q 8.5 49.078125 8.5 55.328125 
Q 8.5 64.0625 14.71875 69.140625 
Q 20.953125 74.21875 31.78125 74.21875 
Q 42.671875 74.21875 48.875 69.140625 
Q 55.078125 64.0625 55.078125 55.328125 
Q 55.078125 49.078125 51.53125 44.71875 
Q 48 40.375 41.703125 38.8125 
Q 48.828125 37.15625 52.796875 32.3125 
Q 56.78125 27.484375 56.78125 20.515625 
Q 56.78125 9.90625 50.3125 4.234375 
Q 43.84375 -1.421875 31.78125 -1.421875 
Q 19.734375 -1.421875 13.25 4.234375 
Q 6.78125 9.90625 6.78125 20.515625 
Q 6.78125 27.484375 10.78125 32.3125 
Q 14.796875 37.15625 21.921875 38.8125 
z
M 18.3125 54.390625 
Q 18.3125 48.734375 21.84375 45.5625 
Q 25.390625 42.390625 31.78125 42.390625 
Q 38.140625 42.390625 41.71875 45.5625 
Q 45.3125 48.734375 45.3125 54.390625 
Q 45.3125 60.0625 41.71875 63.234375 
Q 38.140625 66.40625 31.78125 66.40625 
Q 25.390625 66.40625 21.84375 63.234375 
Q 18.3125 60.0625 18.3125 54.390625 
z
" id="DejaVuSans-38"/>
      </defs>
      <g transform="translate(366.682846 317.076875)scale(0.2 -0.2)">
       <use xlink:href="#DejaVuSans-38"/>
      </g>
     </g>
    </g>
    <g id="text_6">
     <!-- log10(# f-evals / dimension) -->
     <defs>
      <path d="M 9.421875 75.984375 
L 18.40625 75.984375 
L 18.40625 0 
L 9.421875 0 
z
" id="DejaVuSans-6c"/>
      <path d="M 30.609375 48.390625 
Q 23.390625 48.390625 19.1875 42.75 
Q 14.984375 37.109375 14.984375 27.296875 
Q 14.984375 17.484375 19.15625 11.84375 
Q 23.34375 6.203125 30.609375 6.203125 
Q 37.796875 6.203125 41.984375 11.859375 
Q 46.1875 17.53125 46.1875 27.296875 
Q 46.1875 37.015625 41.984375 42.703125 
Q 37.796875 48.390625 30.609375 48.390625 
z
M 30.609375 56 
Q 42.328125 56 49.015625 48.375 
Q 55.71875 40.765625 55.71875 27.296875 
Q 55.71875 13.875 49.015625 6.21875 
Q 42.328125 -1.421875 30.609375 -1.421875 
Q 18.84375 -1.421875 12.171875 6.21875 
Q 5.515625 13.875 5.515625 27.296875 
Q 5.515625 40.765625 12.171875 48.375 
Q 18.84375 56 30.609375 56 
z
" id="DejaVuSans-6f"/>
      <path d="M 45.40625 27.984375 
Q 45.40625 37.75 41.375 43.109375 
Q 37.359375 48.484375 30.078125 48.484375 
Q 22.859375 48.484375 18.828125 43.109375 
Q 14.796875 37.75 14.796875 27.984375 
Q 14.796875 18.265625 18.828125 12.890625 
Q 22.859375 7.515625 30.078125 7.515625 
Q 37.359375 7.515625 41.375 12.890625 
Q 45.40625 18.265625 45.40625 27.984375 
z
M 54.390625 6.78125 
Q 54.390625 -7.171875 48.1875 -13.984375 
Q 42 -20.796875 29.203125 -20.796875 
Q 24.46875 -20.796875 20.265625 -20.09375 
Q 16.0625 -19.390625 12.109375 -17.921875 
L 12.109375 -9.1875 
Q 16.0625 -11.328125 19.921875 -12.34375 
Q 23.78125 -13.375 27.78125 -13.375 
Q 36.625 -13.375 41.015625 -8.765625 
Q 45.40625 -4.15625 45.40625 5.171875 
L 45.40625 9.625 
Q 42.625 4.78125 38.28125 2.390625 
Q 33.9375 0 27.875 0 
Q 17.828125 0 11.671875 7.65625 
Q 5.515625 15.328125 5.515625 27.984375 
Q 5.515625 40.671875 11.671875 48.328125 
Q 17.828125 56 27.875 56 
Q 33.9375 56 38.28125 53.609375 
Q 42.625 51.21875 45.40625 46.390625 
L 45.40625 54.6875 
L 54.390625 54.6875 
z
" id="DejaVuSans-67"/>
      <path d="M 12.40625 8.296875 
L 28.515625 8.296875 
L 28.515625 63.921875 
L 10.984375 60.40625 
L 10.984375 69.390625 
L 28.421875 72.90625 
L 38.28125 72.90625 
L 38.28125 8.296875 
L 54.390625 8.296875 
L 54.390625 0 
L 12.40625 0 
z
" id="DejaVuSans-31"/>
      <path d="M 31 75.875 
Q 24.46875 64.65625 21.28125 53.65625 
Q 18.109375 42.671875 18.109375 31.390625 
Q 18.109375 20.125 21.3125 9.0625 
Q 24.515625 -2 31 -13.1875 
L 23.1875 -13.1875 
Q 15.875 -1.703125 12.234375 9.375 
Q 8.59375 20.453125 8.59375 31.390625 
Q 8.59375 42.28125 12.203125 53.3125 
Q 15.828125 64.359375 23.1875 75.875 
z
" id="DejaVuSans-28"/>
      <path d="M 51.125 44 
L 36.921875 44 
L 32.8125 27.6875 
L 47.125 27.6875 
z
M 43.796875 71.78125 
L 38.71875 51.515625 
L 52.984375 51.515625 
L 58.109375 71.78125 
L 65.921875 71.78125 
L 60.890625 51.515625 
L 76.125 51.515625 
L 76.125 44 
L 58.984375 44 
L 54.984375 27.6875 
L 70.515625 27.6875 
L 70.515625 20.21875 
L 53.078125 20.21875 
L 48 0 
L 40.1875 0 
L 45.21875 20.21875 
L 30.90625 20.21875 
L 25.875 0 
L 18.015625 0 
L 23.09375 20.21875 
L 7.71875 20.21875 
L 7.71875 27.6875 
L 24.90625 27.6875 
L 29 44 
L 13.28125 44 
L 13.28125 51.515625 
L 30.90625 51.515625 
L 35.890625 71.78125 
z
" id="DejaVuSans-23"/>
      <path id="DejaVuSans-20"/>
      <path d="M 37.109375 75.984375 
L 37.109375 68.5 
L 28.515625 68.5 
Q 23.6875 68.5 21.796875 66.546875 
Q 19.921875 64.59375 19.921875 59.515625 
L 19.921875 54.6875 
L 34.71875 54.6875 
L 34.71875 47.703125 
L 19.921875 47.703125 
L 19.921875 0 
L 10.890625 0 
L 10.890625 47.703125 
L 2.296875 47.703125 
L 2.296875 54.6875 
L 10.890625 54.6875 
L 10.890625 58.5 
Q 10.890625 67.625 15.140625 71.796875 
Q 19.390625 75.984375 28.609375 75.984375 
z
" id="DejaVuSans-66"/>
      <path d="M 4.890625 31.390625 
L 31.203125 31.390625 
L 31.203125 23.390625 
L 4.890625 23.390625 
z
" id="DejaVuSans-2d"/>
      <path d="M 56.203125 29.59375 
L 56.203125 25.203125 
L 14.890625 25.203125 
Q 15.484375 15.921875 20.484375 11.0625 
Q 25.484375 6.203125 34.421875 6.203125 
Q 39.59375 6.203125 44.453125 7.46875 
Q 49.3125 8.734375 54.109375 11.28125 
L 54.109375 2.78125 
Q 49.265625 0.734375 44.1875 -0.34375 
Q 39.109375 -1.421875 33.890625 -1.421875 
Q 20.796875 -1.421875 13.15625 6.1875 
Q 5.515625 13.8125 5.515625 26.8125 
Q 5.515625 40.234375 12.765625 48.109375 
Q 20.015625 56 32.328125 56 
Q 43.359375 56 49.78125 48.890625 
Q 56.203125 41.796875 56.203125 29.59375 
z
M 47.21875 32.234375 
Q 47.125 39.59375 43.09375 43.984375 
Q 39.0625 48.390625 32.421875 48.390625 
Q 24.90625 48.390625 20.390625 44.140625 
Q 15.875 39.890625 15.1875 32.171875 
z
" id="DejaVuSans-65"/>
      <path d="M 2.984375 54.6875 
L 12.5 54.6875 
L 29.59375 8.796875 
L 46.6875 54.6875 
L 56.203125 54.6875 
L 35.6875 0 
L 23.484375 0 
z
" id="DejaVuSans-76"/>
      <path d="M 34.28125 27.484375 
Q 23.390625 27.484375 19.1875 25 
Q 14.984375 22.515625 14.984375 16.5 
Q 14.984375 11.71875 18.140625 8.90625 
Q 21.296875 6.109375 26.703125 6.109375 
Q 34.1875 6.109375 38.703125 11.40625 
Q 43.21875 16.703125 43.21875 25.484375 
L 43.21875 27.484375 
z
M 52.203125 31.203125 
L 52.203125 0 
L 43.21875 0 
L 43.21875 8.296875 
Q 40.140625 3.328125 35.546875 0.953125 
Q 30.953125 -1.421875 24.3125 -1.421875 
Q 15.921875 -1.421875 10.953125 3.296875 
Q 6 8.015625 6 15.921875 
Q 6 25.140625 12.171875 29.828125 
Q 18.359375 34.515625 30.609375 34.515625 
L 43.21875 34.515625 
L 43.21875 35.40625 
Q 43.21875 41.609375 39.140625 45 
Q 35.0625 48.390625 27.6875 48.390625 
Q 23 48.390625 18.546875 47.265625 
Q 14.109375 46.140625 10.015625 43.890625 
L 10.015625 52.203125 
Q 14.9375 54.109375 19.578125 55.046875 
Q 24.21875 56 28.609375 56 
Q 40.484375 56 46.34375 49.84375 
Q 52.203125 43.703125 52.203125 31.203125 
z
" id="DejaVuSans-61"/>
      <path d="M 44.28125 53.078125 
L 44.28125 44.578125 
Q 40.484375 46.53125 36.375 47.5 
Q 32.28125 48.484375 27.875 48.484375 
Q 21.1875 48.484375 17.84375 46.4375 
Q 14.5 44.390625 14.5 40.28125 
Q 14.5 37.15625 16.890625 35.375 
Q 19.28125 33.59375 26.515625 31.984375 
L 29.59375 31.296875 
Q 39.15625 29.25 43.1875 25.515625 
Q 47.21875 21.78125 47.21875 15.09375 
Q 47.21875 7.46875 41.1875 3.015625 
Q 35.15625 -1.421875 24.609375 -1.421875 
Q 20.21875 -1.421875 15.453125 -0.5625 
Q 10.6875 0.296875 5.421875 2 
L 5.421875 11.28125 
Q 10.40625 8.6875 15.234375 7.390625 
Q 20.0625 6.109375 24.8125 6.109375 
Q 31.15625 6.109375 34.5625 8.28125 
Q 37.984375 10.453125 37.984375 14.40625 
Q 37.984375 18.0625 35.515625 20.015625 
Q 33.0625 21.96875 24.703125 23.78125 
L 21.578125 24.515625 
Q 13.234375 26.265625 9.515625 29.90625 
Q 5.8125 33.546875 5.8125 39.890625 
Q 5.8125 47.609375 11.28125 51.796875 
Q 16.75 56 26.8125 56 
Q 31.78125 56 36.171875 55.265625 
Q 40.578125 54.546875 44.28125 53.078125 
z
" id="DejaVuSans-73"/>
      <path d="M 25.390625 72.90625 
L 33.6875 72.90625 
L 8.296875 -9.28125 
L 0 -9.28125 
z
" id="DejaVuSans-2f"/>
      <path d="M 45.40625 46.390625 
L 45.40625 75.984375 
L 54.390625 75.984375 
L 54.390625 0 
L 45.40625 0 
L 45.40625 8.203125 
Q 42.578125 3.328125 38.25 0.953125 
Q 33.9375 -1.421875 27.875 -1.421875 
Q 17.96875 -1.421875 11.734375 6.484375 
Q 5.515625 14.40625 5.515625 27.296875 
Q 5.515625 40.1875 11.734375 48.09375 
Q 17.96875 56 27.875 56 
Q 33.9375 56 38.25 53.625 
Q 42.578125 51.265625 45.40625 46.390625 
z
M 14.796875 27.296875 
Q 14.796875 17.390625 18.875 11.75 
Q 22.953125 6.109375 30.078125 6.109375 
Q 37.203125 6.109375 41.296875 11.75 
Q 45.40625 17.390625 45.40625 27.296875 
Q 45.40625 37.203125 41.296875 42.84375 
Q 37.203125 48.484375 30.078125 48.484375 
Q 22.953125 48.484375 18.875 42.84375 
Q 14.796875 37.203125 14.796875 27.296875 
z
" id="DejaVuSans-64"/>
      <path d="M 9.421875 54.6875 
L 18.40625 54.6875 
L 18.40625 0 
L 9.421875 0 
z
M 9.421875 75.984375 
L 18.40625 75.984375 
L 18.40625 64.59375 
L 9.421875 64.59375 
z
" id="DejaVuSans-69"/>
      <path d="M 52 44.1875 
Q 55.375 50.25 60.0625 53.125 
Q 64.75 56 71.09375 56 
Q 79.640625 56 84.28125 50.015625 
Q 88.921875 44.046875 88.921875 33.015625 
L 88.921875 0 
L 79.890625 0 
L 79.890625 32.71875 
Q 79.890625 40.578125 77.09375 44.375 
Q 74.3125 48.1875 68.609375 48.1875 
Q 61.625 48.1875 57.5625 43.546875 
Q 53.515625 38.921875 53.515625 30.90625 
L 53.515625 0 
L 44.484375 0 
L 44.484375 32.71875 
Q 44.484375 40.625 41.703125 44.40625 
Q 38.921875 48.1875 33.109375 48.1875 
Q 26.21875 48.1875 22.15625 43.53125 
Q 18.109375 38.875 18.109375 30.90625 
L 18.109375 0 
L 9.078125 0 
L 9.078125 54.6875 
L 18.109375 54.6875 
L 18.109375 46.1875 
Q 21.1875 51.21875 25.484375 53.609375 
Q 29.78125 56 35.6875 56 
Q 41.65625 56 45.828125 52.96875 
Q 50 49.953125 52 44.1875 
z
" id="DejaVuSans-6d"/>
      <path d="M 54.890625 33.015625 
L 54.890625 0 
L 45.90625 0 
L 45.90625 32.71875 
Q 45.90625 40.484375 42.875 44.328125 
Q 39.84375 48.1875 33.796875 48.1875 
Q 26.515625 48.1875 22.3125 43.546875 
Q 18.109375 38.921875 18.109375 30.90625 
L 18.109375 0 
L 9.078125 0 
L 9.078125 54.6875 
L 18.109375 54.6875 
L 18.109375 46.1875 
Q 21.34375 51.125 25.703125 53.5625 
Q 30.078125 56 35.796875 56 
Q 45.21875 56 50.046875 50.171875 
Q 54.890625 44.34375 54.890625 33.015625 
z
" id="DejaVuSans-6e"/>
      <path d="M 8.015625 75.875 
L 15.828125 75.875 
Q 23.140625 64.359375 26.78125 53.3125 
Q 30.421875 42.28125 30.421875 31.390625 
Q 30.421875 20.453125 26.78125 9.375 
Q 23.140625 -1.703125 15.828125 -13.1875 
L 8.015625 -13.1875 
Q 14.5 -2 17.703125 9.0625 
Q 20.90625 20.125 20.90625 31.390625 
Q 20.90625 42.671875 17.703125 53.65625 
Q 14.5 64.65625 8.015625 75.875 
z
" id="DejaVuSans-29"/>
     </defs>
     <g transform="translate(107.211219 338.153594)scale(0.17 -0.17)">
      <use xlink:href="#DejaVuSans-6c"/>
      <use x="27.783203" xlink:href="#DejaVuSans-6f"/>
      <use x="88.964844" xlink:href="#DejaVuSans-67"/>
      <use x="152.441406" xlink:href="#DejaVuSans-31"/>
      <use x="216.064453" xlink:href="#DejaVuSans-30"/>
      <use x="279.6875" xlink:href="#DejaVuSans-28"/>
      <use x="318.701172" xlink:href="#DejaVuSans-23"/>
      <use x="402.490234" xlink:href="#DejaVuSans-20"/>
      <use x="434.277344" xlink:href="#DejaVuSans-66"/>
      <use x="469.404297" xlink:href="#DejaVuSans-2d"/>
      <use x="505.488281" xlink:href="#DejaVuSans-65"/>
      <use x="567.011719" xlink:href="#DejaVuSans-76"/>
      <use x="626.191406" xlink:href="#DejaVuSans-61"/>
      <use x="687.470703" xlink:href="#DejaVuSans-6c"/>
      <use x="715.253906" xlink:href="#DejaVuSans-73"/>
      <use x="767.353516" xlink:href="#DejaVuSans-20"/>
      <use x="799.140625" xlink:href="#DejaVuSans-2f"/>
      <use x="832.832031" xlink:href="#DejaVuSans-20"/>
      <use x="864.619141" xlink:href="#DejaVuSans-64"/>
      <use x="928.095703" xlink:href="#DejaVuSans-69"/>
      <use x="955.878906" xlink:href="#DejaVuSans-6d"/>
      <use x="1053.291016" xlink:href="#DejaVuSans-65"/>
      <use x="1114.814453" xlink:href="#DejaVuSans-6e"/>
      <use x="1178.193359" xlink:href="#DejaVuSans-73"/>
      <use x="1230.292969" xlink:href="#DejaVuSans-69"/>
      <use x="1258.076172" xlink:href="#DejaVuSans-6f"/>
      <use x="1319.257812" xlink:href="#DejaVuSans-6e"/>
      <use x="1382.636719" xlink:href="#DejaVuSans-29"/>
     </g>
    </g>
   </g>
   <g id="matplotlib.axis_2">
    <g id="ytick_1">
     <g id="line2d_11">
      <path clip-path="url(#pf7f56dab41)" d="M 56.12 294.88 
L 399.984 294.88 
" style="fill:none;stroke:#b0b0b0;stroke-linecap:square;stroke-width:0.8;"/>
     </g>
     <g id="line2d_12">
      <defs>
       <path d="M 0 0 
L -3.5 0 
" id="mcba9cc1495" style="stroke:#000000;stroke-width:0.8;"/>
      </defs>
      <g>
       <use style="stroke:#000000;stroke-width:0.8;" x="56.12" xlink:href="#mcba9cc1495" y="294.88"/>
      </g>
     </g>
     <g id="text_7">
      <!-- 0.0 -->
      <defs>
       <path d="M 10.6875 12.40625 
L 21 12.40625 
L 21 0 
L 10.6875 0 
z
" id="DejaVuSans-2e"/>
      </defs>
      <g transform="translate(23.675 300.95875)scale(0.16 -0.16)">
       <use xlink:href="#DejaVuSans-30"/>
       <use x="63.623047" xlink:href="#DejaVuSans-2e"/>
       <use x="95.410156" xlink:href="#DejaVuSans-30"/>
      </g>
     </g>
    </g>
    <g id="ytick_2">
     <g id="line2d_13">
      <path clip-path="url(#pf7f56dab41)" d="M 56.12 241.406733 
L 399.984 241.406733 
" style="fill:none;stroke:#b0b0b0;stroke-linecap:square;stroke-width:0.8;"/>
     </g>
     <g id="line2d_14">
      <g>
       <use style="stroke:#000000;stroke-width:0.8;" x="56.12" xlink:href="#mcba9cc1495" y="241.406733"/>
      </g>
     </g>
     <g id="text_8">
      <!-- 0.2 -->
      <g transform="translate(23.675 247.485483)scale(0.16 -0.16)">
       <use xlink:href="#DejaVuSans-30"/>
       <use x="63.623047" xlink:href="#DejaVuSans-2e"/>
       <use x="95.410156" xlink:href="#DejaVuSans-32"/>
      </g>
     </g>
    </g>
    <g id="ytick_3">
     <g id="line2d_15">
      <path clip-path="url(#pf7f56dab41)" d="M 56.12 187.933465 
L 399.984 187.933465 
" style="fill:none;stroke:#b0b0b0;stroke-linecap:square;stroke-width:0.8;"/>
     </g>
     <g id="line2d_16">
      <g>
       <use style="stroke:#000000;stroke-width:0.8;" x="56.12" xlink:href="#mcba9cc1495" y="187.933465"/>
      </g>
     </g>
     <g id="text_9">
      <!-- 0.4 -->
      <g transform="translate(23.675 194.012215)scale(0.16 -0.16)">
       <use xlink:href="#DejaVuSans-30"/>
       <use x="63.623047" xlink:href="#DejaVuSans-2e"/>
       <use x="95.410156" xlink:href="#DejaVuSans-34"/>
      </g>
     </g>
    </g>
    <g id="ytick_4">
     <g id="line2d_17">
      <path clip-path="url(#pf7f56dab41)" d="M 56.12 134.460198 
L 399.984 134.460198 
" style="fill:none;stroke:#b0b0b0;stroke-linecap:square;stroke-width:0.8;"/>
     </g>
     <g id="line2d_18">
      <g>
       <use style="stroke:#000000;stroke-width:0.8;" x="56.12" xlink:href="#mcba9cc1495" y="134.460198"/>
      </g>
     </g>
     <g id="text_10">
      <!-- 0.6 -->
      <g transform="translate(23.675 140.538948)scale(0.16 -0.16)">
       <use xlink:href="#DejaVuSans-30"/>
       <use x="63.623047" xlink:href="#DejaVuSans-2e"/>
       <use x="95.410156" xlink:href="#DejaVuSans-36"/>
      </g>
     </g>
    </g>
    <g id="ytick_5">
     <g id="line2d_19">
      <path clip-path="url(#pf7f56dab41)" d="M 56.12 80.986931 
L 399.984 80.986931 
" style="fill:none;stroke:#b0b0b0;stroke-linecap:square;stroke-width:0.8;"/>
     </g>
     <g id="line2d_20">
      <g>
       <use style="stroke:#000000;stroke-width:0.8;" x="56.12" xlink:href="#mcba9cc1495" y="80.986931"/>
      </g>
     </g>
     <g id="text_11">
      <!-- 0.8 -->
      <g transform="translate(23.675 87.065681)scale(0.16 -0.16)">
       <use xlink:href="#DejaVuSans-30"/>
       <use x="63.623047" xlink:href="#DejaVuSans-2e"/>
       <use x="95.410156" xlink:href="#DejaVuSans-38"/>
      </g>
     </g>
    </g>
    <g id="ytick_6">
     <g id="line2d_21">
      <path clip-path="url(#pf7f56dab41)" d="M 56.12 27.513663 
L 399.984 27.513663 
" style="fill:none;stroke:#b0b0b0;stroke-linecap:square;stroke-width:0.8;"/>
     </g>
     <g id="line2d_22">
      <g>
       <use style="stroke:#000000;stroke-width:0.8;" x="56.12" xlink:href="#mcba9cc1495" y="27.513663"/>
      </g>
     </g>
     <g id="text_12">
      <!-- 1.0 -->
      <g transform="translate(23.675 33.592413)scale(0.16 -0.16)">
       <use xlink:href="#DejaVuSans-31"/>
       <use x="63.623047" xlink:href="#DejaVuSans-2e"/>
       <use x="95.410156" xlink:href="#DejaVuSans-30"/>
      </g>
     </g>
    </g>
    <g id="text_13">
     <!-- Fraction of function,target pairs -->
     <defs>
      <path d="M 9.8125 72.90625 
L 51.703125 72.90625 
L 51.703125 64.59375 
L 19.671875 64.59375 
L 19.671875 43.109375 
L 48.578125 43.109375 
L 48.578125 34.8125 
L 19.671875 34.8125 
L 19.671875 0 
L 9.8125 0 
z
" id="DejaVuSans-46"/>
      <path d="M 41.109375 46.296875 
Q 39.59375 47.171875 37.8125 47.578125 
Q 36.03125 48 33.890625 48 
Q 26.265625 48 22.1875 43.046875 
Q 18.109375 38.09375 18.109375 28.8125 
L 18.109375 0 
L 9.078125 0 
L 9.078125 54.6875 
L 18.109375 54.6875 
L 18.109375 46.1875 
Q 20.953125 51.171875 25.484375 53.578125 
Q 30.03125 56 36.53125 56 
Q 37.453125 56 38.578125 55.875 
Q 39.703125 55.765625 41.0625 55.515625 
z
" id="DejaVuSans-72"/>
      <path d="M 48.78125 52.59375 
L 48.78125 44.1875 
Q 44.96875 46.296875 41.140625 47.34375 
Q 37.3125 48.390625 33.40625 48.390625 
Q 24.65625 48.390625 19.8125 42.84375 
Q 14.984375 37.3125 14.984375 27.296875 
Q 14.984375 17.28125 19.8125 11.734375 
Q 24.65625 6.203125 33.40625 6.203125 
Q 37.3125 6.203125 41.140625 7.25 
Q 44.96875 8.296875 48.78125 10.40625 
L 48.78125 2.09375 
Q 45.015625 0.34375 40.984375 -0.53125 
Q 36.96875 -1.421875 32.421875 -1.421875 
Q 20.0625 -1.421875 12.78125 6.34375 
Q 5.515625 14.109375 5.515625 27.296875 
Q 5.515625 40.671875 12.859375 48.328125 
Q 20.21875 56 33.015625 56 
Q 37.15625 56 41.109375 55.140625 
Q 45.0625 54.296875 48.78125 52.59375 
z
" id="DejaVuSans-63"/>
      <path d="M 18.3125 70.21875 
L 18.3125 54.6875 
L 36.8125 54.6875 
L 36.8125 47.703125 
L 18.3125 47.703125 
L 18.3125 18.015625 
Q 18.3125 11.328125 20.140625 9.421875 
Q 21.96875 7.515625 27.59375 7.515625 
L 36.8125 7.515625 
L 36.8125 0 
L 27.59375 0 
Q 17.1875 0 13.234375 3.875 
Q 9.28125 7.765625 9.28125 18.015625 
L 9.28125 47.703125 
L 2.6875 47.703125 
L 2.6875 54.6875 
L 9.28125 54.6875 
L 9.28125 70.21875 
z
" id="DejaVuSans-74"/>
      <path d="M 8.5 21.578125 
L 8.5 54.6875 
L 17.484375 54.6875 
L 17.484375 21.921875 
Q 17.484375 14.15625 20.5 10.265625 
Q 23.53125 6.390625 29.59375 6.390625 
Q 36.859375 6.390625 41.078125 11.03125 
Q 45.3125 15.671875 45.3125 23.6875 
L 45.3125 54.6875 
L 54.296875 54.6875 
L 54.296875 0 
L 45.3125 0 
L 45.3125 8.40625 
Q 42.046875 3.421875 37.71875 1 
Q 33.40625 -1.421875 27.6875 -1.421875 
Q 18.265625 -1.421875 13.375 4.4375 
Q 8.5 10.296875 8.5 21.578125 
z
M 31.109375 56 
z
" id="DejaVuSans-75"/>
      <path d="M 11.71875 12.40625 
L 22.015625 12.40625 
L 22.015625 4 
L 14.015625 -11.625 
L 7.71875 -11.625 
L 11.71875 4 
z
" id="DejaVuSans-2c"/>
      <path d="M 18.109375 8.203125 
L 18.109375 -20.796875 
L 9.078125 -20.796875 
L 9.078125 54.6875 
L 18.109375 54.6875 
L 18.109375 46.390625 
Q 20.953125 51.265625 25.265625 53.625 
Q 29.59375 56 35.59375 56 
Q 45.5625 56 51.78125 48.09375 
Q 58.015625 40.1875 58.015625 27.296875 
Q 58.015625 14.40625 51.78125 6.484375 
Q 45.5625 -1.421875 35.59375 -1.421875 
Q 29.59375 -1.421875 25.265625 0.953125 
Q 20.953125 3.328125 18.109375 8.203125 
z
M 48.6875 27.296875 
Q 48.6875 37.203125 44.609375 42.84375 
Q 40.53125 48.484375 33.40625 48.484375 
Q 26.265625 48.484375 22.1875 42.84375 
Q 18.109375 37.203125 18.109375 27.296875 
Q 18.109375 17.390625 22.1875 11.75 
Q 26.265625 6.109375 33.40625 6.109375 
Q 40.53125 6.109375 44.609375 11.75 
Q 48.6875 17.390625 48.6875 27.296875 
z
" id="DejaVuSans-70"/>
     </defs>
     <g transform="translate(16.139531 294.999375)rotate(-90)scale(0.17 -0.17)">
      <use xlink:href="#DejaVuSans-46"/>
      <use x="57.410156" xlink:href="#DejaVuSans-72"/>
      <use x="98.523438" xlink:href="#DejaVuSans-61"/>
      <use x="159.802734" xlink:href="#DejaVuSans-63"/>
      <use x="214.783203" xlink:href="#DejaVuSans-74"/>
      <use x="253.992188" xlink:href="#DejaVuSans-69"/>
      <use x="281.775391" xlink:href="#DejaVuSans-6f"/>
      <use x="342.957031" xlink:href="#DejaVuSans-6e"/>
      <use x="406.335938" xlink:href="#DejaVuSans-20"/>
      <use x="438.123047" xlink:href="#DejaVuSans-6f"/>
      <use x="499.304688" xlink:href="#DejaVuSans-66"/>
      <use x="534.509766" xlink:href="#DejaVuSans-20"/>
      <use x="566.296875" xlink:href="#DejaVuSans-66"/>
      <use x="601.501953" xlink:href="#DejaVuSans-75"/>
      <use x="664.880859" xlink:href="#DejaVuSans-6e"/>
      <use x="728.259766" xlink:href="#DejaVuSans-63"/>
      <use x="783.240234" xlink:href="#DejaVuSans-74"/>
      <use x="822.449219" xlink:href="#DejaVuSans-69"/>
      <use x="850.232422" xlink:href="#DejaVuSans-6f"/>
      <use x="911.414062" xlink:href="#DejaVuSans-6e"/>
      <use x="974.792969" xlink:href="#DejaVuSans-2c"/>
      <use x="1006.580078" xlink:href="#DejaVuSans-74"/>
      <use x="1045.789062" xlink:href="#DejaVuSans-61"/>
      <use x="1107.068359" xlink:href="#DejaVuSans-72"/>
      <use x="1148.166016" xlink:href="#DejaVuSans-67"/>
      <use x="1211.642578" xlink:href="#DejaVuSans-65"/>
      <use x="1273.166016" xlink:href="#DejaVuSans-74"/>
      <use x="1312.375" xlink:href="#DejaVuSans-20"/>
      <use x="1344.162109" xlink:href="#DejaVuSans-70"/>
      <use x="1407.638672" xlink:href="#DejaVuSans-61"/>
      <use x="1468.917969" xlink:href="#DejaVuSans-69"/>
      <use x="1496.701172" xlink:href="#DejaVuSans-72"/>
      <use x="1537.814453" xlink:href="#DejaVuSans-73"/>
     </g>
    </g>
   </g>
   <g id="line2d_23">
    <defs>
     <path d="M 0 1.5 
C 0.397805 1.5 0.77937 1.341951 1.06066 1.06066 
C 1.341951 0.77937 1.5 0.397805 1.5 0 
C 1.5 -0.397805 1.341951 -0.77937 1.06066 -1.06066 
C 0.77937 -1.341951 0.397805 -1.5 0 -1.5 
C -0.397805 -1.5 -0.77937 -1.341951 -1.06066 -1.06066 
C -1.341951 -0.77937 -1.5 -0.397805 -1.5 0 
C -1.5 0.397805 -1.341951 0.77937 -1.06066 1.06066 
C -0.77937 1.341951 -0.397805 1.5 0 1.5 
z
" id="m18f15bfaad" style="stroke:#00bfbf;"/>
    </defs>
    <g>
     <use style="fill:#00bfbf;stroke:#00bfbf;" x="312.743256" xlink:href="#m18f15bfaad" y="27.513663"/>
     <use style="fill:#00bfbf;stroke:#00bfbf;" x="312.743256" xlink:href="#m18f15bfaad" y="27.513663"/>
    </g>
   </g>
   <g id="line2d_24">
    <path d="M 56.12 294.88 
L 56.12 264.99788 
L 68.045504 264.99788 
L 68.045504 259.755403 
L 75.021477 259.755403 
L 75.021477 257.658412 
L 79.971009 257.658412 
L 79.971009 254.512926 
L 83.810164 254.512926 
L 83.810164 253.988678 
L 89.599124 253.988678 
L 89.599124 251.367439 
L 91.896513 251.367439 
L 91.896513 250.318944 
L 95.735668 250.318944 
L 95.735668 248.221953 
L 102.711641 248.221953 
L 102.711641 247.697705 
L 106.778678 247.697705 
L 106.778678 246.124962 
L 116.276944 246.124962 
L 116.276944 245.600714 
L 116.790561 245.600714 
L 116.790561 244.552219 
L 118.704183 244.552219 
L 118.704183 240.358237 
L 121.613118 240.358237 
L 121.613118 238.785494 
L 124.428341 238.785494 
L 124.428341 237.736999 
L 128.716065 237.736999 
L 128.716065 237.212751 
L 129.458837 237.212751 
L 129.458837 236.688503 
L 131.512181 236.688503 
L 131.512181 236.164255 
L 131.937015 236.164255 
L 131.937015 234.591512 
L 132.955351 234.591512 
L 132.955351 227.252044 
L 133.728734 227.252044 
L 133.728734 226.727797 
L 135.859892 226.727797 
L 135.859892 226.203549 
L 136.515394 226.203549 
L 136.515394 225.679301 
L 140.767613 225.679301 
L 140.767613 220.961072 
L 142.780095 220.961072 
L 142.780095 219.912576 
L 142.891454 219.912576 
L 142.891454 219.388328 
L 146.028272 219.388328 
L 146.028272 218.864081 
L 147.701674 218.864081 
L 147.701674 216.76709 
L 151.724483 216.76709 
L 151.724483 213.097356 
L 151.988164 213.097356 
L 151.988164 208.903374 
L 153.905229 208.903374 
L 153.905229 199.466915 
L 154.649649 199.466915 
L 154.649649 198.942667 
L 155.255322 198.942667 
L 155.255322 196.845677 
L 155.470386 196.845677 
L 155.470386 195.797181 
L 155.840397 195.797181 
L 155.840397 193.175943 
L 159.245304 193.175943 
L 159.245304 191.078952 
L 161.681572 191.078952 
L 161.681572 188.981961 
L 169.147048 188.981961 
L 169.171162 187.409218 
L 171.320324 187.409218 
L 171.320324 183.215236 
L 172.3521 183.215236 
L 172.3521 181.642493 
L 172.787188 181.642493 
L 172.787188 181.118245 
L 173.325485 181.118245 
L 173.325485 180.593997 
L 173.736925 180.593997 
L 173.736925 175.875768 
L 176.211272 175.875768 
L 176.211272 173.778777 
L 176.591156 173.778777 
L 176.591156 173.254529 
L 178.695695 173.254529 
L 178.695695 171.681786 
L 183.139164 171.681786 
L 183.139164 170.633291 
L 185.070235 170.633291 
L 185.070235 165.390813 
L 187.317342 165.390813 
L 187.317342 162.769575 
L 188.343587 162.769575 
L 188.343587 161.196832 
L 189.289613 161.196832 
L 189.289613 160.672584 
L 193.602631 160.672584 
L 193.602631 158.575593 
L 193.914301 158.575593 
L 193.948585 157.00285 
L 194.220425 157.00285 
L 194.220425 155.430107 
L 195.833641 155.430107 
L 195.833641 154.381611 
L 196.377475 154.381611 
L 196.377475 151.760373 
L 197.219028 151.760373 
L 197.242612 148.090639 
L 197.397464 148.090639 
L 197.411473 144.420905 
L 197.808277 144.420905 
L 197.808277 141.799666 
L 198.173824 141.799666 
L 198.173824 140.226923 
L 199.272196 140.226923 
L 199.272196 138.129932 
L 200.504671 138.129932 
L 200.504671 137.081437 
L 201.286065 137.081437 
L 201.364142 134.460198 
L 202.108272 134.460198 
L 202.108272 133.93595 
L 202.940425 133.93595 
L 202.940425 132.363207 
L 203.078644 132.363207 
L 203.078644 130.790464 
L 203.923827 130.790464 
L 203.923827 129.741969 
L 281.889485 129.741969 
L 281.993563 94.093124 
L 282.003854 94.093124 
L 282.072725 79.938435 
L 293.816383 79.938435 
L 293.897148 58.444279 
L 300.791571 58.444279 
L 300.85162 43.241095 
L 305.74298 43.241095 
L 305.785767 36.425875 
L 309.579629 36.425875 
L 309.604625 31.707645 
L 312.71719 31.707645 
L 312.743256 27.513663 
L 333.429677 27.513663 
L 333.429677 27.513663 
" style="fill:none;stroke:#00bfbf;stroke-linecap:square;stroke-width:1.5;"/>
   </g>
   <g id="line2d_25">
    <defs>
     <path d="M -6 0 
L 6 0 
M 0 6 
L 0 -6 
" id="m2dc05205b7" style="stroke:#00bfbf;stroke-width:1.5;"/>
    </defs>
    <g>
     <use style="fill-opacity:0;stroke:#00bfbf;stroke-width:1.5;" x="172.787188" xlink:href="#m2dc05205b7" y="181.118245"/>
     <use style="fill-opacity:0;stroke:#00bfbf;stroke-width:1.5;" x="203.923827" xlink:href="#m2dc05205b7" y="129.741969"/>
     <use style="fill-opacity:0;stroke:#00bfbf;stroke-width:1.5;" x="312.743256" xlink:href="#m2dc05205b7" y="28.037911"/>
     <use style="fill-opacity:0;stroke:#00bfbf;stroke-width:1.5;" x="312.743256" xlink:href="#m2dc05205b7" y="27.513663"/>
     <use style="fill-opacity:0;stroke:#00bfbf;stroke-width:1.5;" x="333.429677" xlink:href="#m2dc05205b7" y="27.513663"/>
    </g>
   </g>
   <g id="line2d_26">
    <path style="fill:none;stroke:#00bfbf;stroke-linecap:square;stroke-width:1.5;"/>
    <g/>
   </g>
   <g id="line2d_27">
    <path clip-path="url(#pf7f56dab41)" d="M 281.888522 129.741969 
" style="fill:none;stroke:#00bfbf;stroke-linecap:square;stroke-width:1.5;"/>
    <defs>
     <path d="M -12 12 
L 12 -12 
M -12 -12 
L 12 12 
" id="m2462ef56f8" style="stroke:#00bfbf;stroke-width:3;"/>
    </defs>
    <g clip-path="url(#pf7f56dab41)">
     <use style="fill:#00bfbf;stroke:#00bfbf;stroke-width:3;" x="281.888522" xlink:href="#m2462ef56f8" y="129.741969"/>
    </g>
   </g>
   <g id="line2d_28">
    <defs>
     <path d="M 0 1.5 
C 0.397805 1.5 0.77937 1.341951 1.06066 1.06066 
C 1.341951 0.77937 1.5 0.397805 1.5 0 
C 1.5 -0.397805 1.341951 -0.77937 1.06066 -1.06066 
C 0.77937 -1.341951 0.397805 -1.5 0 -1.5 
C -0.397805 -1.5 -0.77937 -1.341951 -1.06066 -1.06066 
C -1.341951 -0.77937 -1.5 -0.397805 -1.5 0 
C -1.5 0.397805 -1.341951 0.77937 -1.06066 1.06066 
C -0.77937 1.341951 -0.397805 1.5 0 1.5 
z
" id="m59cc52d09d" style="stroke:#008000;"/>
    </defs>
    <g>
     <use style="fill:#008000;stroke:#008000;" x="319.049842" xlink:href="#m59cc52d09d" y="27.513663"/>
     <use style="fill:#008000;stroke:#008000;" x="319.049842" xlink:href="#m59cc52d09d" y="27.513663"/>
    </g>
   </g>
   <g id="line2d_29">
    <path d="M 49.144027 294.88 
L 49.144027 277.055578 
L 61.069532 277.055578 
L 61.069532 274.434339 
L 68.045504 274.434339 
L 68.045504 270.764605 
L 76.834191 270.764605 
L 76.834191 269.716109 
L 79.971009 269.716109 
L 79.971009 267.619119 
L 82.623151 267.619119 
L 82.623151 267.094871 
L 84.92054 267.094871 
L 84.92054 266.570623 
L 86.946982 266.570623 
L 86.946982 266.046375 
L 95.735668 266.046375 
L 95.735668 265.522128 
L 97.889083 265.522128 
L 97.889083 262.900889 
L 101.524628 262.900889 
L 101.524628 262.376641 
L 103.089785 262.376641 
L 103.089785 261.852394 
L 103.822018 261.852394 
L 103.822018 260.803898 
L 104.524355 260.803898 
L 104.524355 258.18266 
L 107.077901 258.18266 
L 107.077901 257.658412 
L 108.225317 257.658412 
L 108.225317 251.891687 
L 109.814588 251.891687 
L 109.814588 250.318944 
L 113.450132 250.318944 
L 113.450132 249.794696 
L 117.773963 249.794696 
L 117.773963 249.270448 
L 123.425832 249.270448 
L 123.425832 247.697705 
L 124.100619 247.697705 
L 124.100619 246.124962 
L 128.883919 246.124962 
L 128.883919 244.027971 
L 129.214792 244.027971 
L 129.214792 243.503724 
L 131.076592 243.503724 
L 131.076592 242.979476 
L 132.214518 242.979476 
L 132.214518 242.455228 
L 134.04099 242.455228 
L 134.04099 241.93098 
L 135.804122 241.93098 
L 135.804122 240.882485 
L 139.23631 240.882485 
L 139.327583 238.261246 
L 140.809423 238.261246 
L 140.809423 235.640008 
L 141.303377 235.640008 
L 141.303377 234.067265 
L 143.075465 234.067265 
L 143.075465 231.970274 
L 143.293711 231.970274 
L 143.293711 231.446026 
L 145.717145 231.446026 
L 145.717145 230.921778 
L 146.574504 230.921778 
L 146.574504 229.873283 
L 147.785396 229.873283 
L 147.785396 228.30054 
L 152.818244 228.30054 
L 152.818244 227.252044 
L 155.50597 227.252044 
L 155.50597 226.727797 
L 156.640768 226.727797 
L 156.640768 225.155053 
L 157.674016 225.155053 
L 157.674016 224.630806 
L 161.406289 224.630806 
L 161.406289 223.58231 
L 164.471481 223.58231 
L 164.471481 223.058063 
L 165.436109 223.058063 
L 165.436109 217.815585 
L 166.631104 217.815585 
L 166.631104 216.76709 
L 167.360233 216.76709 
L 167.360233 215.718594 
L 171.027194 215.718594 
L 171.027194 213.097356 
L 174.300474 213.097356 
L 174.371863 209.427622 
L 175.553335 209.427622 
L 175.553335 206.806383 
L 180.189635 206.806383 
L 180.189635 205.757888 
L 181.26452 205.757888 
L 181.26452 205.23364 
L 181.391318 205.23364 
L 181.391318 204.709392 
L 181.704285 204.709392 
L 181.704285 203.660897 
L 184.673591 203.660897 
L 184.673591 200.515411 
L 185.919224 200.515411 
L 185.919224 197.894172 
L 186.327026 197.894172 
L 186.380283 188.981961 
L 187.35088 188.981961 
L 187.35088 187.933465 
L 187.808234 187.933465 
L 187.808234 187.409218 
L 188.826946 187.409218 
L 188.826946 186.88497 
L 189.126698 186.88497 
L 189.126698 185.836474 
L 189.257153 185.836474 
L 189.257153 183.739484 
L 190.318412 183.739484 
L 190.318412 179.021254 
L 191.979132 179.021254 
L 191.979132 177.972759 
L 194.009366 177.972759 
L 194.009366 171.157538 
L 194.149105 171.157538 
L 194.149105 170.109043 
L 195.157149 170.109043 
L 195.157149 169.060547 
L 196.339432 169.060547 
L 196.339432 168.5363 
L 196.540275 168.5363 
L 196.540275 168.012052 
L 196.774359 168.012052 
L 196.774359 167.487804 
L 197.377209 167.487804 
L 197.467393 165.390813 
L 197.835623 165.390813 
L 197.835623 164.342318 
L 198.193163 164.342318 
L 198.193163 162.769575 
L 198.682711 162.769575 
L 198.682711 161.721079 
L 199.256829 161.721079 
L 199.256829 160.672584 
L 199.84215 160.672584 
L 199.84215 159.624089 
L 274.913409 159.624089 
L 275.01824 131.314712 
L 275.025113 131.314712 
L 275.123048 113.490289 
L 286.840445 113.490289 
L 286.947933 79.414188 
L 293.816722 79.414188 
L 293.890567 59.492774 
L 298.763773 59.492774 
L 298.81326 47.435077 
L 302.61339 47.435077 
L 302.640845 41.668352 
L 305.741905 41.668352 
L 305.765743 34.328884 
L 308.396214 34.328884 
L 308.419507 31.183397 
L 310.694275 31.183397 
L 310.709911 29.086407 
L 312.725583 29.086407 
L 312.732983 28.037911 
L 319.049842 28.037911 
L 319.049842 27.513663 
L 333.429677 27.513663 
L 333.429677 27.513663 
" style="fill:none;stroke:#008000;stroke-linecap:square;stroke-width:1.5;"/>
   </g>
   <g id="line2d_30">
    <defs>
     <path d="M -0 6 
L 6 -6 
L -6 -6 
z
" id="m4673f6ae60" style="stroke:#008000;stroke-linejoin:miter;stroke-width:1.5;"/>
    </defs>
    <g>
     <use style="fill-opacity:0;stroke:#008000;stroke-linejoin:miter;stroke-width:1.5;" x="108.225317" xlink:href="#m4673f6ae60" y="257.658412"/>
     <use style="fill-opacity:0;stroke:#008000;stroke-linejoin:miter;stroke-width:1.5;" x="181.704285" xlink:href="#m4673f6ae60" y="204.709392"/>
     <use style="fill-opacity:0;stroke:#008000;stroke-linejoin:miter;stroke-width:1.5;" x="199.84215" xlink:href="#m4673f6ae60" y="159.624089"/>
     <use style="fill-opacity:0;stroke:#008000;stroke-linejoin:miter;stroke-width:1.5;" x="293.890567" xlink:href="#m4673f6ae60" y="60.017022"/>
     <use style="fill-opacity:0;stroke:#008000;stroke-linejoin:miter;stroke-width:1.5;" x="319.049842" xlink:href="#m4673f6ae60" y="27.513663"/>
     <use style="fill-opacity:0;stroke:#008000;stroke-linejoin:miter;stroke-width:1.5;" x="333.429677" xlink:href="#m4673f6ae60" y="27.513663"/>
    </g>
   </g>
   <g id="line2d_31">
    <path style="fill:none;stroke:#008000;stroke-linecap:square;stroke-width:1.5;"/>
    <g/>
   </g>
   <g id="line2d_32">
    <path clip-path="url(#pf7f56dab41)" d="M 274.912549 159.624089 
" style="fill:none;stroke:#008000;stroke-linecap:square;stroke-width:1.5;"/>
    <defs>
     <path d="M -12 12 
L 12 -12 
M -12 -12 
L 12 12 
" id="mca707f5588" style="stroke:#008000;stroke-width:3;"/>
    </defs>
    <g clip-path="url(#pf7f56dab41)">
     <use style="fill:#008000;stroke:#008000;stroke-width:3;" x="274.912549" xlink:href="#mca707f5588" y="159.624089"/>
    </g>
   </g>
   <g id="line2d_33">
    <defs>
     <path d="M 0 1.5 
C 0.397805 1.5 0.77937 1.341951 1.06066 1.06066 
C 1.341951 0.77937 1.5 0.397805 1.5 0 
C 1.5 -0.397805 1.341951 -0.77937 1.06066 -1.06066 
C 0.77937 -1.341951 0.397805 -1.5 0 -1.5 
C -0.397805 -1.5 -0.77937 -1.341951 -1.06066 -1.06066 
C -1.341951 -0.77937 -1.5 -0.397805 -1.5 0 
C -1.5 0.397805 -1.341951 0.77937 -1.06066 1.06066 
C -0.77937 1.341951 -0.397805 1.5 0 1.5 
z
" id="ma940d57f3a" style="stroke:#0000ff;"/>
    </defs>
    <g>
     <use style="fill:#0000ff;stroke:#0000ff;" x="310.275732" xlink:href="#ma940d57f3a" y="27.513663"/>
     <use style="fill:#0000ff;stroke:#0000ff;" x="310.275732" xlink:href="#ma940d57f3a" y="27.513663"/>
    </g>
   </g>
   <g id="line2d_34">
    <path d="M 40.355341 294.88 
L 40.355341 281.773807 
L 52.280845 281.773807 
L 52.280845 280.201064 
L 59.256818 280.201064 
L 59.256818 277.055578 
L 71.182322 277.055578 
L 71.182322 276.007082 
L 73.834464 276.007082 
L 73.834464 274.958587 
L 78.158295 274.958587 
L 78.158295 273.910091 
L 79.971009 273.910091 
L 79.971009 272.337348 
L 81.610808 272.337348 
L 81.610808 271.8131 
L 84.484951 271.8131 
L 84.484951 271.288853 
L 86.946982 271.288853 
L 86.946982 270.764605 
L 90.0838 270.764605 
L 90.0838 269.716109 
L 97.685473 269.716109 
L 97.685473 269.191862 
L 98.289215 269.191862 
L 98.289215 268.143366 
L 102.009304 268.143366 
L 102.009304 267.619119 
L 102.939523 267.619119 
L 102.939523 267.094871 
L 107.313588 267.094871 
L 107.313588 264.99788 
L 109.915496 264.99788 
L 109.915496 264.473632 
L 114.637146 264.473632 
L 114.637146 263.949385 
L 121.536482 263.949385 
L 121.536482 262.376641 
L 127.015436 262.376641 
L 127.015436 261.852394 
L 127.886754 261.852394 
L 127.886754 260.803898 
L 128.306406 260.803898 
L 128.306406 259.755403 
L 129.794786 259.755403 
L 129.794786 259.231155 
L 132.020737 259.231155 
L 132.104053 257.658412 
L 132.915754 257.658412 
L 132.915754 256.085669 
L 134.933384 256.085669 
L 134.933384 255.561421 
L 135.624435 255.561421 
L 135.624435 254.512926 
L 137.484499 254.512926 
L 137.484499 253.46443 
L 139.107709 253.46443 
L 139.107709 252.940182 
L 143.133935 252.940182 
L 143.133935 252.415935 
L 144.153781 252.415935 
L 144.153781 251.891687 
L 144.76179 251.891687 
L 144.76179 250.843192 
L 147.718451 250.843192 
L 147.718451 250.318944 
L 149.287982 250.318944 
L 149.287982 249.794696 
L 150.810494 249.794696 
L 150.810494 249.270448 
L 152.541754 249.270448 
L 152.541754 248.746201 
L 153.928621 248.746201 
L 153.928621 247.173458 
L 158.464127 247.173458 
L 158.464127 246.64921 
L 158.942317 246.64921 
L 158.942317 246.124962 
L 159.133388 246.124962 
L 159.133388 243.503724 
L 161.829891 243.503724 
L 161.829891 242.979476 
L 162.166249 242.979476 
L 162.166249 242.455228 
L 162.805908 242.455228 
L 162.805908 241.93098 
L 164.618622 241.93098 
L 164.618622 241.406733 
L 165.27166 241.406733 
L 165.27166 240.882485 
L 166.016985 240.882485 
L 166.016985 240.358237 
L 168.612799 240.358237 
L 168.612799 239.309742 
L 170.20002 239.309742 
L 170.20002 238.261246 
L 170.488125 238.261246 
L 170.488125 237.212751 
L 172.50762 237.212751 
L 172.50762 235.640008 
L 173.799643 235.640008 
L 173.799643 234.067265 
L 174.414555 234.067265 
L 174.414555 233.018769 
L 175.083602 233.018769 
L 175.110922 231.446026 
L 175.246876 231.446026 
L 175.246876 230.921778 
L 175.648408 230.921778 
L 175.648408 229.349035 
L 175.852251 229.349035 
L 175.852251 228.30054 
L 178.601238 228.30054 
L 178.601238 227.776292 
L 178.789635 227.776292 
L 178.789635 226.203549 
L 179.888986 226.203549 
L 179.888986 224.630806 
L 181.87402 224.630806 
L 181.87402 224.106558 
L 181.988796 224.106558 
L 181.988796 223.058063 
L 182.310646 223.058063 
L 182.310646 222.009567 
L 182.810784 222.009567 
L 182.810784 221.485319 
L 183.057655 221.485319 
L 183.139164 218.339833 
L 183.334918 218.339833 
L 183.334918 215.718594 
L 183.532653 215.718594 
L 183.532653 213.621604 
L 183.99896 213.621604 
L 183.99896 213.097356 
L 184.205348 213.097356 
L 184.297621 211.524613 
L 185.409248 211.524613 
L 185.409248 211.000365 
L 185.721464 211.000365 
L 185.721464 210.476117 
L 185.835271 210.476117 
L 185.835271 209.427622 
L 186.154291 209.427622 
L 186.154291 206.806383 
L 186.569485 206.806383 
L 186.569485 206.282136 
L 187.087535 206.282136 
L 187.087535 205.757888 
L 187.878779 205.757888 
L 187.878779 205.23364 
L 188.572926 205.23364 
L 188.572926 203.136649 
L 188.876076 203.136649 
L 188.876076 201.563906 
L 189.03175 201.563906 
L 189.03175 199.466915 
L 189.228137 199.466915 
L 189.228137 198.942667 
L 189.457917 198.942667 
L 189.457917 198.41842 
L 189.581969 198.41842 
L 189.611374 196.845677 
L 190.115137 196.845677 
L 190.115137 195.797181 
L 190.23739 195.797181 
L 190.23739 194.748686 
L 190.615657 194.748686 
L 190.615657 190.554704 
L 190.923287 190.554704 
L 190.923287 188.981961 
L 191.501477 188.981961 
L 191.501477 186.88497 
L 191.723782 186.88497 
L 191.723782 185.312227 
L 192.23327 185.312227 
L 192.23327 183.739484 
L 192.708484 183.739484 
L 192.708484 182.690988 
L 194.157379 182.690988 
L 194.188931 180.06975 
L 194.549885 180.06975 
L 194.549885 179.021254 
L 194.760264 179.021254 
L 194.760264 178.497006 
L 195.143664 178.497006 
L 195.143664 177.448511 
L 195.464431 177.448511 
L 195.464431 176.924263 
L 195.848982 176.924263 
L 195.848982 175.875768 
L 196.088563 175.875768 
L 196.088563 173.778777 
L 196.263091 173.778777 
L 196.316896 172.730281 
L 197.072078 172.730281 
L 197.072078 171.681786 
L 197.375962 171.681786 
L 197.474835 168.5363 
L 199.131706 168.5363 
L 199.131706 166.439309 
L 266.146249 166.439309 
L 266.255184 152.28462 
L 266.259042 152.28462 
L 266.363874 131.838959 
L 266.384798 131.838959 
L 266.47077 122.4025 
L 278.059928 122.4025 
L 278.169791 99.859849 
L 278.178093 99.859849 
L 278.24065 90.947637 
L 285.025902 90.947637 
L 285.131099 68.404985 
L 285.141755 68.404985 
L 285.141755 67.880738 
L 289.987108 67.880738 
L 290.054252 56.347288 
L 293.827283 56.347288 
L 293.87756 46.386581 
L 296.955065 46.386581 
L 297.002582 41.144104 
L 299.621808 41.144104 
L 299.648131 35.901627 
L 301.903176 35.901627 
L 301.937039 33.804636 
L 303.9351 33.804636 
L 303.948451 32.231893 
L 305.756005 32.231893 
L 305.759003 31.183397 
L 307.38125 31.183397 
L 307.411157 29.610654 
L 308.893631 29.610654 
L 308.898709 28.037911 
L 310.275732 28.037911 
L 310.275732 27.513663 
L 333.429677 27.513663 
L 333.429677 27.513663 
" style="fill:none;stroke:#0000ff;stroke-linecap:square;stroke-width:1.5;"/>
   </g>
   <g id="line2d_35">
    <defs>
     <path d="M 0 -6 
L -1.347084 -1.854102 
L -5.706339 -1.854102 
L -2.179628 0.708204 
L -3.526712 4.854102 
L -0 2.291796 
L 3.526712 4.854102 
L 2.179628 0.708204 
L 5.706339 -1.854102 
L 1.347084 -1.854102 
z
" id="m0cda505844" style="stroke:#0000ff;stroke-linejoin:bevel;stroke-width:1.5;"/>
    </defs>
    <g>
     <use style="fill-opacity:0;stroke:#0000ff;stroke-linejoin:bevel;stroke-width:1.5;" x="90.0838" xlink:href="#m0cda505844" y="270.764605"/>
     <use style="fill-opacity:0;stroke:#0000ff;stroke-linejoin:bevel;stroke-width:1.5;" x="166.016985" xlink:href="#m0cda505844" y="240.882485"/>
     <use style="fill-opacity:0;stroke:#0000ff;stroke-linejoin:bevel;stroke-width:1.5;" x="199.131706" xlink:href="#m0cda505844" y="166.439309"/>
     <use style="fill-opacity:0;stroke:#0000ff;stroke-linejoin:bevel;stroke-width:1.5;" x="293.827283" xlink:href="#m0cda505844" y="56.347288"/>
     <use style="fill-opacity:0;stroke:#0000ff;stroke-linejoin:bevel;stroke-width:1.5;" x="310.275732" xlink:href="#m0cda505844" y="27.513663"/>
     <use style="fill-opacity:0;stroke:#0000ff;stroke-linejoin:bevel;stroke-width:1.5;" x="333.429677" xlink:href="#m0cda505844" y="27.513663"/>
    </g>
   </g>
   <g id="line2d_36">
    <path style="fill:none;stroke:#0000ff;stroke-linecap:square;stroke-width:1.5;"/>
    <g/>
   </g>
   <g id="line2d_37">
    <path clip-path="url(#pf7f56dab41)" d="M 266.123863 166.439309 
" style="fill:none;stroke:#0000ff;stroke-linecap:square;stroke-width:1.5;"/>
    <defs>
     <path d="M -12 12 
L 12 -12 
M -12 -12 
L 12 12 
" id="m8519f2919d" style="stroke:#0000ff;stroke-width:3;"/>
    </defs>
    <g clip-path="url(#pf7f56dab41)">
     <use style="fill:#0000ff;stroke:#0000ff;stroke-width:3;" x="266.123863" xlink:href="#m8519f2919d" y="166.439309"/>
    </g>
   </g>
   <g id="line2d_38">
    <defs>
     <path d="M 0 1.5 
C 0.397805 1.5 0.77937 1.341951 1.06066 1.06066 
C 1.341951 0.77937 1.5 0.397805 1.5 0 
C 1.5 -0.397805 1.341951 -0.77937 1.06066 -1.06066 
C 0.77937 -1.341951 0.397805 -1.5 0 -1.5 
C -0.397805 -1.5 -0.77937 -1.341951 -1.06066 -1.06066 
C -1.341951 -0.77937 -1.5 -0.397805 -1.5 0 
C -1.5 0.397805 -1.341951 0.77937 -1.06066 1.06066 
C -0.77937 1.341951 -0.397805 1.5 0 1.5 
z
" id="m5ca1a6e2bc" style="stroke:#000000;"/>
    </defs>
    <g>
     <use style="stroke:#000000;" x="298.340621" xlink:href="#m5ca1a6e2bc" y="27.513663"/>
     <use style="stroke:#000000;" x="298.340621" xlink:href="#m5ca1a6e2bc" y="27.513663"/>
    </g>
   </g>
   <g id="line2d_39">
    <path d="M 28.429836 294.88 
L 28.429836 289.637523 
L 47.331314 289.637523 
L 47.331314 289.113275 
L 56.12 289.113275 
L 56.12 288.589027 
L 61.90896 288.589027 
L 61.90896 287.540532 
L 66.232791 287.540532 
L 66.232791 286.492036 
L 78.158295 286.492036 
L 78.158295 285.967789 
L 80.810437 285.967789 
L 80.810437 284.919293 
L 89.100397 284.919293 
L 89.100397 283.34655 
L 92.735942 283.34655 
L 92.735942 282.822302 
L 95.388083 282.822302 
L 95.388083 282.298055 
L 98.872486 282.298055 
L 98.872486 281.773807 
L 100.77101 281.773807 
L 100.77101 281.249559 
L 105.265187 281.249559 
L 105.265187 280.725312 
L 107.137126 280.725312 
L 107.137126 280.201064 
L 108.825231 280.201064 
L 108.825231 279.676816 
L 109.763911 279.676816 
L 109.763911 279.152568 
L 114.406204 279.152568 
L 114.406204 278.104073 
L 119.500437 278.104073 
L 119.500437 277.055578 
L 127.51097 277.055578 
L 127.51097 276.53133 
L 128.867207 276.53133 
L 128.867207 275.482834 
L 130.764982 275.482834 
L 130.764982 274.434339 
L 136.190765 274.434339 
L 136.190765 272.861596 
L 136.483206 272.861596 
L 136.483206 271.8131 
L 137.993644 271.8131 
L 137.993644 271.288853 
L 142.487143 271.288853 
L 142.487143 270.764605 
L 143.502083 270.764605 
L 143.502083 270.240357 
L 144.419894 270.240357 
L 144.419894 267.619119 
L 144.920362 267.619119 
L 144.920362 267.094871 
L 146.894108 267.094871 
L 146.894108 266.046375 
L 148.198003 266.046375 
L 148.198003 265.522128 
L 151.804012 265.522128 
L 151.804012 263.949385 
L 152.053458 263.949385 
L 152.053458 263.425137 
L 152.247865 263.425137 
L 152.247865 262.900889 
L 153.176049 262.900889 
L 153.176049 262.376641 
L 155.975829 262.376641 
L 155.975829 261.328146 
L 157.427822 261.328146 
L 157.427822 260.803898 
L 157.935266 260.803898 
L 157.999964 259.231155 
L 158.731427 259.231155 
L 158.731427 258.706907 
L 159.210946 258.706907 
L 159.210946 258.18266 
L 159.543047 258.18266 
L 159.543047 257.658412 
L 160.912384 257.658412 
L 160.912384 257.134164 
L 162.202416 257.134164 
L 162.202416 256.609917 
L 162.32482 256.609917 
L 162.32482 256.085669 
L 162.777978 256.085669 
L 162.777978 255.037173 
L 163.048381 255.037173 
L 163.048381 253.988678 
L 163.722903 253.988678 
L 163.722903 252.940182 
L 164.929749 252.940182 
L 164.929749 251.891687 
L 165.854125 251.891687 
L 165.947377 248.746201 
L 166.080547 248.746201 
L 166.080547 248.221953 
L 166.394878 248.221953 
L 166.40054 246.64921 
L 166.963041 246.64921 
L 166.963041 245.600714 
L 167.411912 245.600714 
L 167.411912 244.552219 
L 167.901333 244.552219 
L 167.973818 242.979476 
L 168.48789 242.979476 
L 168.48789 242.455228 
L 169.122901 242.455228 
L 169.122901 241.93098 
L 169.415206 241.93098 
L 169.415206 241.406733 
L 169.888528 241.406733 
L 169.985327 239.83399 
L 170.049559 239.83399 
L 170.049559 239.309742 
L 170.245355 239.309742 
L 170.254408 237.736999 
L 170.824099 237.736999 
L 170.824099 237.212751 
L 170.972305 237.212751 
L 170.972305 236.688503 
L 171.455896 236.688503 
L 171.455896 235.640008 
L 171.594595 235.640008 
L 171.678114 233.018769 
L 172.275821 233.018769 
L 172.275821 231.446026 
L 172.938843 231.446026 
L 172.938843 230.921778 
L 173.714735 230.921778 
L 173.714735 230.397531 
L 174.171221 230.397531 
L 174.200028 227.252044 
L 174.485474 227.252044 
L 174.485474 226.727797 
L 176.691057 226.727797 
L 176.691057 226.203549 
L 176.861419 226.203549 
L 176.861419 225.679301 
L 177.867068 225.679301 
L 177.867068 224.630806 
L 178.017582 224.630806 
L 178.017582 224.106558 
L 178.444524 224.106558 
L 178.444524 223.58231 
L 178.756538 223.58231 
L 178.844655 222.009567 
L 179.035853 222.009567 
L 179.035853 220.961072 
L 179.433236 220.961072 
L 179.483593 218.339833 
L 179.568073 218.339833 
L 179.568073 217.815585 
L 179.97922 217.815585 
L 179.97922 216.76709 
L 180.28252 216.76709 
L 180.28252 215.194347 
L 180.817301 215.194347 
L 180.914987 212.573108 
L 180.966051 212.573108 
L 180.966051 212.04886 
L 181.252584 212.04886 
L 181.252584 211.524613 
L 181.628133 211.524613 
L 181.628133 210.476117 
L 181.774697 210.476117 
L 181.774697 209.95187 
L 182.039056 209.95187 
L 182.039056 209.427622 
L 182.424786 209.427622 
L 182.431477 205.757888 
L 182.756169 205.757888 
L 182.756169 205.23364 
L 183.237319 205.23364 
L 183.347607 203.136649 
L 183.572346 203.136649 
L 183.572346 202.612401 
L 183.70745 202.612401 
L 183.812717 198.41842 
L 183.866135 198.41842 
L 183.866135 197.894172 
L 184.025403 197.894172 
L 184.025403 195.797181 
L 184.31162 195.797181 
L 184.31162 194.748686 
L 184.472777 194.748686 
L 184.472777 194.224438 
L 184.673591 194.224438 
L 184.70488 193.175943 
L 184.825589 193.175943 
L 184.825589 191.603199 
L 184.947383 191.603199 
L 184.985869 190.554704 
L 185.068322 190.554704 
L 185.068322 190.030456 
L 186.082304 190.030456 
L 186.082304 189.506209 
L 186.688284 189.506209 
L 186.707425 184.263731 
L 187.065407 184.263731 
L 187.065407 183.739484 
L 188.077457 183.739484 
L 188.077457 183.215236 
L 188.389385 183.215236 
L 188.389385 182.690988 
L 188.705051 182.690988 
L 188.731354 181.118245 
L 189.503802 181.118245 
L 189.503802 180.06975 
L 189.804197 180.06975 
L 189.804197 178.497006 
L 190.230306 178.497006 
L 190.340485 176.924263 
L 190.452761 176.924263 
L 190.500258 174.827272 
L 190.666852 174.827272 
L 190.666852 173.778777 
L 254.224387 173.778777 
L 254.33306 158.051345 
L 254.335961 158.051345 
L 254.440474 139.178427 
L 254.448377 139.178427 
L 254.542466 123.975244 
L 254.575926 123.975244 
L 254.621613 120.30551 
L 266.152365 120.30551 
L 266.263309 101.956839 
L 266.271584 101.956839 
L 266.334752 88.326399 
L 273.122772 88.326399 
L 273.21846 65.783747 
L 273.235151 65.783747 
L 273.242081 63.686756 
L 278.066572 63.686756 
L 278.155135 47.435077 
L 281.910118 47.435077 
L 281.973188 36.950122 
L 285.052697 36.950122 
L 285.080691 33.280388 
L 287.719043 33.280388 
L 287.721426 32.231893 
L 290.010298 32.231893 
L 290.027013 30.65915 
L 292.012626 30.65915 
L 292.037844 29.086407 
L 296.972956 29.086407 
L 296.978178 28.037911 
L 298.340621 28.037911 
L 298.340621 27.513663 
L 333.429677 27.513663 
L 333.429677 27.513663 
" style="fill:none;stroke:#000000;stroke-linecap:square;stroke-width:1.5;"/>
   </g>
   <g id="line2d_40">
    <defs>
     <path d="M 0 6 
C 1.591219 6 3.117479 5.367802 4.242641 4.242641 
C 5.367802 3.117479 6 1.591219 6 0 
C 6 -1.591219 5.367802 -3.117479 4.242641 -4.242641 
C 3.117479 -5.367802 1.591219 -6 0 -6 
C -1.591219 -6 -3.117479 -5.367802 -4.242641 -4.242641 
C -5.367802 -3.117479 -6 -1.591219 -6 0 
C -6 1.591219 -5.367802 3.117479 -4.242641 4.242641 
C -3.117479 5.367802 -1.591219 6 0 6 
z
" id="me2f0bc1880" style="stroke:#000000;stroke-width:1.5;"/>
    </defs>
    <g>
     <use style="fill-opacity:0;stroke:#000000;stroke-width:1.5;" x="136.483206" xlink:href="#me2f0bc1880" y="271.8131"/>
     <use style="fill-opacity:0;stroke:#000000;stroke-width:1.5;" x="190.666852" xlink:href="#me2f0bc1880" y="174.827272"/>
     <use style="fill-opacity:0;stroke:#000000;stroke-width:1.5;" x="254.542466" xlink:href="#me2f0bc1880" y="124.499491"/>
     <use style="fill-opacity:0;stroke:#000000;stroke-width:1.5;" x="298.340621" xlink:href="#me2f0bc1880" y="28.037911"/>
     <use style="fill-opacity:0;stroke:#000000;stroke-width:1.5;" x="298.340621" xlink:href="#me2f0bc1880" y="27.513663"/>
     <use style="fill-opacity:0;stroke:#000000;stroke-width:1.5;" x="333.429677" xlink:href="#me2f0bc1880" y="27.513663"/>
    </g>
   </g>
   <g id="line2d_41">
    <path style="fill:none;stroke:#000000;stroke-linecap:square;stroke-width:1.5;"/>
    <g/>
   </g>
   <g id="line2d_42">
    <path clip-path="url(#pf7f56dab41)" d="M 254.198358 173.778777 
" style="fill:none;stroke:#000000;stroke-linecap:square;stroke-width:1.5;"/>
    <defs>
     <path d="M -12 12 
L 12 -12 
M -12 -12 
L 12 12 
" id="m69da59f0fe" style="stroke:#000000;stroke-width:3;"/>
    </defs>
    <g clip-path="url(#pf7f56dab41)">
     <use style="stroke:#000000;stroke-width:3;" x="254.198358" xlink:href="#m69da59f0fe" y="173.778777"/>
    </g>
   </g>
   <g id="line2d_43">
    <defs>
     <path d="M 0 1.5 
C 0.397805 1.5 0.77937 1.341951 1.06066 1.06066 
C 1.341951 0.77937 1.5 0.397805 1.5 0 
C 1.5 -0.397805 1.341951 -0.77937 1.06066 -1.06066 
C 0.77937 -1.341951 0.397805 -1.5 0 -1.5 
C -0.397805 -1.5 -0.77937 -1.341951 -1.06066 -1.06066 
C -1.341951 -0.77937 -1.5 -0.397805 -1.5 0 
C -1.5 0.397805 -1.341951 0.77937 -1.06066 1.06066 
C -0.77937 1.341951 -0.397805 1.5 0 1.5 
z
" id="mb67a50a6dc" style="stroke:#ff0000;"/>
    </defs>
    <g>
     <use style="fill:#ff0000;stroke:#ff0000;" x="306.58759" xlink:href="#mb67a50a6dc" y="27.513663"/>
     <use style="fill:#ff0000;stroke:#ff0000;" x="306.58759" xlink:href="#mb67a50a6dc" y="27.513663"/>
    </g>
   </g>
   <g id="line2d_44">
    <path d="M 16.504332 294.88 
L 16.504332 289.637523 
L 52.280845 289.637523 
L 52.280845 289.113275 
L 67.16301 289.113275 
L 67.16301 288.589027 
L 102.939523 288.589027 
L 102.939523 285.967789 
L 103.71415 285.967789 
L 103.71415 285.443541 
L 122.795033 285.443541 
L 122.795033 284.919293 
L 128.538038 284.919293 
L 128.538038 284.395046 
L 129.165565 284.395046 
L 129.165565 283.870798 
L 129.483052 283.870798 
L 129.483052 283.34655 
L 130.030796 283.34655 
L 130.030796 282.822302 
L 130.899221 282.822302 
L 130.899221 282.298055 
L 133.230007 282.298055 
L 133.230007 281.773807 
L 138.502486 281.773807 
L 138.502486 280.201064 
L 140.21895 280.201064 
L 140.21895 279.676816 
L 140.603576 279.676816 
L 140.603576 279.152568 
L 140.867787 279.152568 
L 140.867787 278.628321 
L 141.335808 278.628321 
L 141.335808 278.104073 
L 142.521201 278.104073 
L 142.566507 277.055578 
L 144.490842 277.055578 
L 144.490842 276.53133 
L 145.425852 276.53133 
L 145.425852 275.482834 
L 146.36716 275.482834 
L 146.36716 274.958587 
L 147.430992 274.958587 
L 147.430992 273.910091 
L 147.54994 273.910091 
L 147.54994 273.385844 
L 149.440373 273.385844 
L 149.440373 271.288853 
L 149.793268 271.288853 
L 149.793268 270.240357 
L 149.970715 270.240357 
L 149.970715 269.716109 
L 151.102226 269.716109 
L 151.102226 268.667614 
L 151.597804 268.667614 
L 151.597804 268.143366 
L 151.737763 268.143366 
L 151.737763 267.619119 
L 152.749537 267.619119 
L 152.749537 267.094871 
L 154.137731 267.094871 
L 154.137731 265.522128 
L 154.384215 265.522128 
L 154.384215 264.473632 
L 154.844686 264.473632 
L 154.844686 263.949385 
L 155.086779 263.949385 
L 155.086779 263.425137 
L 156.120495 263.425137 
L 156.156472 262.376641 
L 156.865585 262.376641 
L 156.865585 261.852394 
L 157.375288 261.852394 
L 157.375288 260.803898 
L 157.556093 260.803898 
L 157.626944 259.755403 
L 157.861027 259.755403 
L 157.861027 259.231155 
L 158.414669 259.231155 
L 158.414669 257.658412 
L 159.877132 257.658412 
L 159.877132 257.134164 
L 160.265613 257.134164 
L 160.265613 256.609917 
L 161.778125 256.609917 
L 161.778125 256.085669 
L 162.159006 256.085669 
L 162.159006 255.561421 
L 162.353495 255.561421 
L 162.353495 255.037173 
L 162.750003 255.037173 
L 162.750003 254.512926 
L 162.993259 254.512926 
L 162.993259 253.988678 
L 163.331525 253.988678 
L 163.331525 253.46443 
L 164.288968 253.46443 
L 164.288968 252.415935 
L 164.963632 252.415935 
L 165.064883 250.843192 
L 165.733903 250.843192 
L 165.733903 250.318944 
L 167.700409 250.318944 
L 167.700409 249.794696 
L 168.687311 249.794696 
L 168.687311 248.746201 
L 169.331855 248.746201 
L 169.331855 247.697705 
L 170.38065 247.697705 
L 170.38065 247.173458 
L 170.800004 247.173458 
L 170.800004 246.64921 
L 171.694769 246.64921 
L 171.694769 245.600714 
L 172.32203 245.600714 
L 172.32203 245.076467 
L 172.610525 245.076467 
L 172.610525 244.552219 
L 172.991028 244.552219 
L 172.991028 243.503724 
L 173.483744 243.503724 
L 173.483744 242.455228 
L 173.922568 242.455228 
L 173.922568 241.406733 
L 174.277208 241.406733 
L 174.277208 240.882485 
L 174.738388 240.882485 
L 174.738388 240.358237 
L 175.182432 240.358237 
L 175.182432 239.83399 
L 175.656674 239.83399 
L 175.656674 239.309742 
L 175.953275 239.309742 
L 175.953275 238.785494 
L 176.742343 238.785494 
L 176.742343 237.212751 
L 177.185069 237.212751 
L 177.185069 235.640008 
L 178.992337 235.640008 
L 178.992337 234.591512 
L 179.545674 234.591512 
L 179.545674 232.494521 
L 180.177354 232.494521 
L 180.177354 231.970274 
L 181.240641 231.970274 
L 181.240641 230.921778 
L 181.537947 230.921778 
L 181.537947 229.349035 
L 182.49824 229.349035 
L 182.520437 227.776292 
L 242.335743 227.776292 
L 242.443571 212.573108 
L 242.452256 212.573108 
L 242.555027 206.806383 
L 242.565415 206.806383 
L 242.659912 197.369924 
L 242.683749 197.369924 
L 242.764496 193.175943 
L 242.798505 193.175943 
L 242.805645 191.603199 
L 254.233283 191.603199 
L 254.337463 178.497006 
L 254.345261 178.497006 
L 254.448598 166.963557 
L 254.462852 166.963557 
L 254.462852 166.439309 
L 261.197622 166.439309 
L 261.30432 151.236125 
L 261.312924 151.236125 
L 261.353768 148.614886 
L 266.14813 148.614886 
L 266.256789 132.363207 
L 269.99222 132.363207 
L 270.070904 115.58728 
L 273.115737 115.58728 
L 273.188567 103.529583 
L 275.76853 103.529583 
L 275.829108 93.044628 
L 278.063852 93.044628 
L 278.115958 80.462683 
L 280.093413 80.462683 
L 280.125626 75.220206 
L 281.900895 75.220206 
L 281.941747 65.259499 
L 283.539569 65.259499 
L 283.573173 57.920031 
L 285.038955 57.920031 
L 285.052866 53.201802 
L 286.413723 53.201802 
L 286.4412 49.532068 
L 287.68576 49.532068 
L 287.709524 46.910829 
L 288.875149 46.910829 
L 288.897398 45.338086 
L 289.98402 45.338086 
L 290.002025 43.765343 
L 291.026504 43.765343 
L 291.042099 41.144104 
L 292.006615 41.144104 
L 292.017974 39.571361 
L 292.949394 39.571361 
L 292.952122 38.522865 
L 293.831319 38.522865 
L 293.838002 36.425875 
L 294.660412 36.425875 
L 294.679203 34.853131 
L 295.45824 34.853131 
L 295.471609 33.804636 
L 296.960795 33.804636 
L 296.963342 32.756141 
L 297.667751 32.756141 
L 297.667751 32.231893 
L 298.984452 32.231893 
L 298.990097 31.183397 
L 300.802711 31.183397 
L 300.805493 30.134902 
L 301.360349 30.134902 
L 301.360349 29.610654 
L 302.955688 29.610654 
L 302.955688 29.086407 
L 304.4059 29.086407 
L 304.4059 28.562159 
L 305.314642 28.562159 
L 305.314642 28.037911 
L 306.58759 28.037911 
L 306.58759 27.513663 
L 333.429677 27.513663 
L 333.429677 27.513663 
" style="fill:none;stroke:#ff0000;stroke-linecap:square;stroke-width:1.5;"/>
   </g>
   <g id="line2d_45">
    <defs>
     <path d="M -6 6 
L 6 6 
L 6 -6 
L -6 -6 
z
" id="m0e6cb5e6c1" style="stroke:#ff0000;stroke-linejoin:miter;stroke-width:1.5;"/>
    </defs>
    <g>
     <use style="fill-opacity:0;stroke:#ff0000;stroke-linejoin:miter;stroke-width:1.5;" x="67.16301" xlink:href="#m0e6cb5e6c1" y="289.113275"/>
     <use style="fill-opacity:0;stroke:#ff0000;stroke-linejoin:miter;stroke-width:1.5;" x="164.288968" xlink:href="#m0e6cb5e6c1" y="252.415935"/>
     <use style="fill-opacity:0;stroke:#ff0000;stroke-linejoin:miter;stroke-width:1.5;" x="242.361745" xlink:href="#m0e6cb5e6c1" y="225.155053"/>
     <use style="fill-opacity:0;stroke:#ff0000;stroke-linejoin:miter;stroke-width:1.5;" x="286.415656" xlink:href="#m0e6cb5e6c1" y="51.629058"/>
     <use style="fill-opacity:0;stroke:#ff0000;stroke-linejoin:miter;stroke-width:1.5;" x="306.58759" xlink:href="#m0e6cb5e6c1" y="27.513663"/>
     <use style="fill-opacity:0;stroke:#ff0000;stroke-linejoin:miter;stroke-width:1.5;" x="333.429677" xlink:href="#m0e6cb5e6c1" y="27.513663"/>
    </g>
   </g>
   <g id="line2d_46">
    <path style="fill:none;stroke:#ff0000;stroke-linecap:square;stroke-width:1.5;"/>
    <g/>
   </g>
   <g id="line2d_47">
    <path clip-path="url(#pf7f56dab41)" d="M 242.272854 227.776292 
" style="fill:none;stroke:#ff0000;stroke-linecap:square;stroke-width:1.5;"/>
    <defs>
     <path d="M -12 12 
L 12 -12 
M -12 -12 
L 12 12 
" id="m3b313aa257" style="stroke:#ff0000;stroke-width:3;"/>
    </defs>
    <g clip-path="url(#pf7f56dab41)">
     <use style="fill:#ff0000;stroke:#ff0000;stroke-width:3;" x="242.272854" xlink:href="#m3b313aa257" y="227.776292"/>
    </g>
   </g>
   <g id="line2d_48">
    <defs>
     <path d="M 0 1.5 
C 0.397805 1.5 0.77937 1.341951 1.06066 1.06066 
C 1.341951 0.77937 1.5 0.397805 1.5 0 
C 1.5 -0.397805 1.341951 -0.77937 1.06066 -1.06066 
C 0.77937 -1.341951 0.397805 -1.5 0 -1.5 
C -0.397805 -1.5 -0.77937 -1.341951 -1.06066 -1.06066 
C -1.341951 -0.77937 -1.5 -0.397805 -1.5 0 
C -1.5 0.397805 -1.341951 0.77937 -1.06066 1.06066 
C -0.77937 1.341951 -0.397805 1.5 0 1.5 
z
" id="m2519267a9b" style="stroke:#bf00bf;"/>
    </defs>
    <g>
     <use style="fill:#bf00bf;stroke:#bf00bf;" x="285.038401" xlink:href="#m2519267a9b" y="27.513663"/>
     <use style="fill:#bf00bf;stroke:#bf00bf;" x="285.038401" xlink:href="#m2519267a9b" y="27.513663"/>
    </g>
   </g>
   <g id="line2d_49">
    <path d="M 4.578827 294.88 
L 4.578827 289.637523 
L 124.605962 289.637523 
L 124.605962 289.113275 
L 126.875216 289.113275 
L 126.875216 288.06478 
L 127.415727 288.06478 
L 127.415727 287.016284 
L 130.720002 287.016284 
L 130.720002 286.492036 
L 131.010292 286.492036 
L 131.010292 285.967789 
L 131.436745 285.967789 
L 131.436745 284.919293 
L 132.796414 284.919293 
L 132.796414 284.395046 
L 133.268888 284.395046 
L 133.268888 283.870798 
L 134.986187 283.870798 
L 134.986187 283.34655 
L 135.16973 283.34655 
L 135.16973 282.822302 
L 137.201001 282.822302 
L 137.201001 281.773807 
L 137.560324 281.773807 
L 137.560324 281.249559 
L 137.785817 281.249559 
L 137.785817 280.725312 
L 138.067264 280.725312 
L 138.067264 280.201064 
L 139.719079 280.201064 
L 139.719079 279.152568 
L 140.127953 279.152568 
L 140.127953 278.104073 
L 140.520967 278.104073 
L 140.520967 277.055578 
L 140.874029 277.055578 
L 140.874029 276.007082 
L 141.152581 276.007082 
L 141.152581 275.482834 
L 141.432737 275.482834 
L 141.432737 274.958587 
L 141.577115 274.958587 
L 141.577115 273.910091 
L 142.229538 273.910091 
L 142.298611 271.8131 
L 142.43023 271.8131 
L 142.43023 271.288853 
L 142.763329 271.288853 
L 142.763329 270.764605 
L 143.507439 270.764605 
L 143.507439 270.240357 
L 143.624842 270.240357 
L 143.635476 269.191862 
L 144.034752 269.191862 
L 144.034752 268.667614 
L 144.353751 268.667614 
L 144.455405 267.619119 
L 145.184681 267.619119 
L 145.184681 266.570623 
L 145.757911 266.570623 
L 145.757911 265.522128 
L 145.9634 265.522128 
L 146.060616 263.425137 
L 146.453105 263.425137 
L 146.5476 262.376641 
L 147.003708 262.376641 
L 147.021179 260.279651 
L 147.332666 260.279651 
L 147.332666 259.755403 
L 147.676478 259.755403 
L 147.731023 258.706907 
L 148.132647 258.706907 
L 148.238724 257.134164 
L 149.383385 257.134164 
L 149.383385 256.609917 
L 149.733709 256.609917 
L 149.733709 255.561421 
L 149.88222 255.561421 
L 149.88222 255.037173 
L 151.133192 255.037173 
L 151.133192 253.988678 
L 151.550897 253.988678 
L 151.62121 252.415935 
L 152.58288 252.415935 
L 152.633362 251.367439 
L 152.765177 251.367439 
L 152.765177 250.318944 
L 152.880468 250.318944 
L 152.880468 249.794696 
L 153.379372 249.794696 
L 153.427574 247.697705 
L 154.229859 247.697705 
L 154.304351 246.124962 
L 154.429685 246.124962 
L 154.429685 245.600714 
L 154.576639 245.600714 
L 154.576639 245.076467 
L 155.621995 245.076467 
L 155.621995 244.552219 
L 155.753895 244.552219 
L 155.753895 244.027971 
L 155.916058 244.027971 
L 155.916058 242.979476 
L 156.416346 242.979476 
L 156.416346 242.455228 
L 157.629301 242.455228 
L 157.657556 241.406733 
L 158.9445 241.406733 
L 158.9445 240.882485 
L 159.744276 240.882485 
L 159.744276 240.358237 
L 160.160161 240.358237 
L 160.160161 239.83399 
L 160.356351 239.83399 
L 160.37645 238.785494 
L 161.443458 238.785494 
L 161.443458 238.261246 
L 161.558239 238.261246 
L 161.62749 236.688503 
L 161.986091 236.688503 
L 161.986091 236.164255 
L 162.281718 236.164255 
L 162.281718 235.640008 
L 162.880746 235.640008 
L 162.880746 235.11576 
L 163.30613 235.11576 
L 163.30613 234.591512 
L 163.484787 234.591512 
L 163.484787 234.067265 
L 163.952874 234.067265 
L 163.952874 233.543017 
L 164.086158 233.543017 
L 164.086158 233.018769 
L 164.316149 233.018769 
L 164.316149 232.494521 
L 164.446659 232.494521 
L 164.446659 231.970274 
L 164.897344 231.970274 
L 164.897344 231.446026 
L 165.332007 231.446026 
L 165.332007 230.397531 
L 165.967708 230.397531 
L 165.967708 229.873283 
L 166.306873 229.873283 
L 166.306873 228.824787 
L 166.462703 228.824787 
L 166.462703 228.30054 
L 166.614338 228.30054 
L 166.614338 227.776292 
L 167.156463 227.776292 
L 167.156463 226.727797 
L 167.276593 226.727797 
L 167.276593 225.679301 
L 167.423919 225.679301 
L 167.423919 225.155053 
L 167.953139 225.155053 
L 167.953139 223.58231 
L 168.149871 223.58231 
L 168.149871 221.485319 
L 168.635187 221.485319 
L 168.635187 219.912576 
L 169.01868 219.912576 
L 169.01868 218.864081 
L 169.219287 218.864081 
L 169.219287 218.339833 
L 169.346172 218.339833 
L 169.34975 217.291338 
L 169.727142 217.291338 
L 169.727142 216.242842 
L 170.142043 216.242842 
L 170.142043 215.194347 
L 170.519346 215.194347 
L 170.519346 214.145851 
L 170.772582 214.145851 
L 170.772582 212.573108 
L 171.02431 212.573108 
L 171.122472 211.000365 
L 171.797466 211.000365 
L 171.797466 210.476117 
L 172.405095 210.476117 
L 172.481798 209.427622 
L 173.472488 209.427622 
L 173.472488 208.903374 
L 174.388775 208.903374 
L 174.388775 207.854879 
L 174.689501 207.854879 
L 174.714835 206.806383 
L 174.998804 206.806383 
L 174.998804 206.282136 
L 176.136689 206.282136 
L 176.136689 205.757888 
L 230.402386 205.757888 
L 230.502217 195.797181 
L 230.522904 195.797181 
L 230.629116 185.836474 
L 230.634328 185.836474 
L 230.736022 176.924263 
L 230.758413 176.924263 
L 230.859545 169.584795 
L 230.87053 169.584795 
L 230.930342 165.915061 
L 230.98169 165.915061 
L 231.068625 163.293823 
L 242.324099 163.293823 
L 242.433909 152.28462 
L 242.443639 152.28462 
L 242.547781 137.605684 
L 242.556702 137.605684 
L 242.608646 133.411703 
L 249.297185 133.411703 
L 249.406865 117.684271 
L 249.413501 117.684271 
L 249.488669 110.344803 
L 254.222342 110.344803 
L 254.330704 93.568876 
L 254.343487 93.568876 
L 254.378553 88.850646 
L 258.076716 88.850646 
L 258.172617 75.744454 
L 261.205862 75.744454 
L 261.28886 66.832242 
L 263.856246 66.832242 
L 263.922942 58.968526 
L 266.14694 58.968526 
L 266.208303 51.104811 
L 268.175317 51.104811 
L 268.226741 45.862334 
L 270.021017 45.862334 
L 270.026987 43.765343 
L 271.628623 43.765343 
L 271.672131 41.668352 
L 273.115714 41.668352 
L 273.16111 39.571361 
L 274.492048 39.571361 
L 274.528072 37.47437 
L 275.779434 37.47437 
L 275.80028 35.901627 
L 276.954592 35.901627 
L 276.984143 33.804636 
L 278.059087 33.804636 
L 278.075816 32.231893 
L 279.106874 32.231893 
L 279.130063 30.65915 
L 280.09197 30.65915 
L 280.099321 29.610654 
L 281.908905 29.610654 
L 281.923424 28.562159 
L 282.746192 28.562159 
L 282.746192 28.037911 
L 285.038401 28.037911 
L 285.038401 27.513663 
L 333.429677 27.513663 
L 333.429677 27.513663 
" style="fill:none;stroke:#bf00bf;stroke-linecap:square;stroke-width:1.5;"/>
   </g>
   <g id="line2d_50">
    <defs>
     <path d="M -0 8.485281 
L 8.485281 0 
L 0 -8.485281 
L -8.485281 -0 
z
" id="m48e601a8b9" style="stroke:#bf00bf;stroke-linejoin:miter;stroke-width:1.5;"/>
    </defs>
    <g>
     <use style="fill-opacity:0;stroke:#bf00bf;stroke-linejoin:miter;stroke-width:1.5;" x="161.986091" xlink:href="#m48e601a8b9" y="236.688503"/>
     <use style="fill-opacity:0;stroke:#bf00bf;stroke-linejoin:miter;stroke-width:1.5;" x="230.635952" xlink:href="#m48e601a8b9" y="185.312227"/>
     <use style="fill-opacity:0;stroke:#bf00bf;stroke-linejoin:miter;stroke-width:1.5;" x="280.099321" xlink:href="#m48e601a8b9" y="30.134902"/>
     <use style="fill-opacity:0;stroke:#bf00bf;stroke-linejoin:miter;stroke-width:1.5;" x="285.038401" xlink:href="#m48e601a8b9" y="27.513663"/>
     <use style="fill-opacity:0;stroke:#bf00bf;stroke-linejoin:miter;stroke-width:1.5;" x="333.429677" xlink:href="#m48e601a8b9" y="27.513663"/>
    </g>
   </g>
   <g id="line2d_51">
    <path style="fill:none;stroke:#bf00bf;stroke-linecap:square;stroke-width:1.5;"/>
    <g/>
   </g>
   <g id="line2d_52">
    <path clip-path="url(#pf7f56dab41)" d="M 230.347349 205.757888 
" style="fill:none;stroke:#bf00bf;stroke-linecap:square;stroke-width:1.5;"/>
    <defs>
     <path d="M -12 12 
L 12 -12 
M -12 -12 
L 12 12 
" id="m7897a01311" style="stroke:#bf00bf;stroke-width:3;"/>
    </defs>
    <g clip-path="url(#pf7f56dab41)">
     <use style="fill:#bf00bf;stroke:#bf00bf;stroke-width:3;" x="230.347349" xlink:href="#m7897a01311" y="205.757888"/>
    </g>
   </g>
   <g id="line2d_53">
    <path d="M 333.429677 27.513663 
L 363.933742 289.532673 
" style="fill:none;stroke:#008000;stroke-linecap:square;stroke-width:1.5;"/>
    <g>
     <use style="fill-opacity:0;stroke:#008000;stroke-linejoin:miter;stroke-width:1.5;" x="333.429677" xlink:href="#m4673f6ae60" y="27.513663"/>
     <use style="fill-opacity:0;stroke:#008000;stroke-linejoin:miter;stroke-width:1.5;" x="363.933742" xlink:href="#m4673f6ae60" y="289.532673"/>
    </g>
   </g>
   <g id="line2d_54">
    <path d="M 333.429677 27.513663 
L 363.933742 238.198337 
" style="fill:none;stroke:#00bfbf;stroke-linecap:square;stroke-width:1.5;"/>
    <g>
     <use style="fill-opacity:0;stroke:#00bfbf;stroke-width:1.5;" x="333.429677" xlink:href="#m2dc05205b7" y="27.513663"/>
     <use style="fill-opacity:0;stroke:#00bfbf;stroke-width:1.5;" x="363.933742" xlink:href="#m2dc05205b7" y="238.198337"/>
    </g>
   </g>
   <g id="line2d_55">
    <path d="M 333.429677 27.513663 
L 363.933742 186.864 
" style="fill:none;stroke:#0000ff;stroke-linecap:square;stroke-width:1.5;"/>
    <g>
     <use style="fill-opacity:0;stroke:#0000ff;stroke-linejoin:bevel;stroke-width:1.5;" x="333.429677" xlink:href="#m0cda505844" y="27.513663"/>
     <use style="fill-opacity:0;stroke:#0000ff;stroke-linejoin:bevel;stroke-width:1.5;" x="363.933742" xlink:href="#m0cda505844" y="186.864"/>
    </g>
   </g>
   <g id="line2d_56">
    <path d="M 333.429677 27.513663 
L 363.933742 135.529663 
" style="fill:none;stroke:#ff0000;stroke-linecap:square;stroke-width:1.5;"/>
    <g>
     <use style="fill-opacity:0;stroke:#ff0000;stroke-linejoin:miter;stroke-width:1.5;" x="333.429677" xlink:href="#m0e6cb5e6c1" y="27.513663"/>
     <use style="fill-opacity:0;stroke:#ff0000;stroke-linejoin:miter;stroke-width:1.5;" x="363.933742" xlink:href="#m0e6cb5e6c1" y="135.529663"/>
    </g>
   </g>
   <g id="line2d_57">
    <path d="M 333.429677 27.513663 
L 363.933742 84.195327 
" style="fill:none;stroke:#000000;stroke-linecap:square;stroke-width:1.5;"/>
    <g>
     <use style="fill-opacity:0;stroke:#000000;stroke-width:1.5;" x="333.429677" xlink:href="#me2f0bc1880" y="27.513663"/>
     <use style="fill-opacity:0;stroke:#000000;stroke-width:1.5;" x="363.933742" xlink:href="#me2f0bc1880" y="84.195327"/>
    </g>
   </g>
   <g id="line2d_58">
    <path d="M 333.429677 27.513663 
L 363.933742 32.86099 
" style="fill:none;stroke:#bf00bf;stroke-linecap:square;stroke-width:1.5;"/>
    <g>
     <use style="fill-opacity:0;stroke:#bf00bf;stroke-linejoin:miter;stroke-width:1.5;" x="333.429677" xlink:href="#m48e601a8b9" y="27.513663"/>
     <use style="fill-opacity:0;stroke:#bf00bf;stroke-linejoin:miter;stroke-width:1.5;" x="363.933742" xlink:href="#m48e601a8b9" y="32.86099"/>
    </g>
   </g>
   <g id="line2d_59">
    <path d="M 333.429677 294.88 
L 333.429677 27.513663 
" style="fill:none;stroke:#000000;stroke-linecap:square;stroke-width:1.5;"/>
   </g>
   <g id="patch_3">
    <path d="M 56.12 294.88 
L 56.12 24.84 
" style="fill:none;stroke:#000000;stroke-linecap:square;stroke-linejoin:miter;stroke-width:0.8;"/>
   </g>
   <g id="patch_4">
    <path d="M 399.984 294.88 
L 399.984 24.84 
" style="fill:none;stroke:#000000;stroke-linecap:square;stroke-linejoin:miter;stroke-width:0.8;"/>
   </g>
   <g id="patch_5">
    <path d="M 56.12 294.88 
L 399.984 294.88 
" style="fill:none;stroke:#000000;stroke-linecap:square;stroke-linejoin:miter;stroke-width:0.8;"/>
   </g>
   <g id="patch_6">
    <path d="M 56.12 24.84 
L 399.984 24.84 
" style="fill:none;stroke:#000000;stroke-linecap:square;stroke-linejoin:miter;stroke-width:0.8;"/>
   </g>
   <g id="text_14">
    <!-- 3-D -->
    <defs>
     <path d="M 40.578125 39.3125 
Q 47.65625 37.796875 51.625 33 
Q 55.609375 28.21875 55.609375 21.1875 
Q 55.609375 10.40625 48.1875 4.484375 
Q 40.765625 -1.421875 27.09375 -1.421875 
Q 22.515625 -1.421875 17.65625 -0.515625 
Q 12.796875 0.390625 7.625 2.203125 
L 7.625 11.71875 
Q 11.71875 9.328125 16.59375 8.109375 
Q 21.484375 6.890625 26.8125 6.890625 
Q 36.078125 6.890625 40.9375 10.546875 
Q 45.796875 14.203125 45.796875 21.1875 
Q 45.796875 27.640625 41.28125 31.265625 
Q 36.765625 34.90625 28.71875 34.90625 
L 20.21875 34.90625 
L 20.21875 43.015625 
L 29.109375 43.015625 
Q 36.375 43.015625 40.234375 45.921875 
Q 44.09375 48.828125 44.09375 54.296875 
Q 44.09375 59.90625 40.109375 62.90625 
Q 36.140625 65.921875 28.71875 65.921875 
Q 24.65625 65.921875 20.015625 65.03125 
Q 15.375 64.15625 9.8125 62.3125 
L 9.8125 71.09375 
Q 15.4375 72.65625 20.34375 73.4375 
Q 25.25 74.21875 29.59375 74.21875 
Q 40.828125 74.21875 47.359375 69.109375 
Q 53.90625 64.015625 53.90625 55.328125 
Q 53.90625 49.265625 50.4375 45.09375 
Q 46.96875 40.921875 40.578125 39.3125 
z
" id="DejaVuSans-33"/>
     <path d="M 19.671875 64.796875 
L 19.671875 8.109375 
L 31.59375 8.109375 
Q 46.6875 8.109375 53.6875 14.9375 
Q 60.6875 21.78125 60.6875 36.53125 
Q 60.6875 51.171875 53.6875 57.984375 
Q 46.6875 64.796875 31.59375 64.796875 
z
M 9.8125 72.90625 
L 30.078125 72.90625 
Q 51.265625 72.90625 61.171875 64.09375 
Q 71.09375 55.28125 71.09375 36.53125 
Q 71.09375 17.671875 61.125 8.828125 
Q 51.171875 0 30.078125 0 
L 9.8125 0 
z
" id="DejaVuSans-44"/>
    </defs>
    <g transform="translate(369.479935 294.223611)scale(0.17 -0.17)">
     <use xlink:href="#DejaVuSans-33"/>
     <use x="63.623047" xlink:href="#DejaVuSans-2d"/>
     <use x="99.707031" xlink:href="#DejaVuSans-44"/>
    </g>
   </g>
   <g id="text_15">
    <!-- 2-D -->
    <g transform="translate(369.479935 242.889274)scale(0.17 -0.17)">
     <use xlink:href="#DejaVuSans-32"/>
     <use x="63.623047" xlink:href="#DejaVuSans-2d"/>
     <use x="99.707031" xlink:href="#DejaVuSans-44"/>
    </g>
   </g>
   <g id="text_16">
    <!-- 5-D -->
    <defs>
     <path d="M 10.796875 72.90625 
L 49.515625 72.90625 
L 49.515625 64.59375 
L 19.828125 64.59375 
L 19.828125 46.734375 
Q 21.96875 47.46875 24.109375 47.828125 
Q 26.265625 48.1875 28.421875 48.1875 
Q 40.625 48.1875 47.75 41.5 
Q 54.890625 34.8125 54.890625 23.390625 
Q 54.890625 11.625 47.5625 5.09375 
Q 40.234375 -1.421875 26.90625 -1.421875 
Q 22.3125 -1.421875 17.546875 -0.640625 
Q 12.796875 0.140625 7.71875 1.703125 
L 7.71875 11.625 
Q 12.109375 9.234375 16.796875 8.0625 
Q 21.484375 6.890625 26.703125 6.890625 
Q 35.15625 6.890625 40.078125 11.328125 
Q 45.015625 15.765625 45.015625 23.390625 
Q 45.015625 31 40.078125 35.4375 
Q 35.15625 39.890625 26.703125 39.890625 
Q 22.75 39.890625 18.8125 39.015625 
Q 14.890625 38.140625 10.796875 36.28125 
z
" id="DejaVuSans-35"/>
    </defs>
    <g transform="translate(369.479935 191.554937)scale(0.17 -0.17)">
     <use xlink:href="#DejaVuSans-35"/>
     <use x="63.623047" xlink:href="#DejaVuSans-2d"/>
     <use x="99.707031" xlink:href="#DejaVuSans-44"/>
    </g>
   </g>
   <g id="text_17">
    <!-- 20-D -->
    <g transform="translate(369.479935 140.220601)scale(0.17 -0.17)">
     <use xlink:href="#DejaVuSans-32"/>
     <use x="63.623047" xlink:href="#DejaVuSans-30"/>
     <use x="127.246094" xlink:href="#DejaVuSans-2d"/>
     <use x="163.330078" xlink:href="#DejaVuSans-44"/>
    </g>
   </g>
   <g id="text_18">
    <!-- 10-D -->
    <g transform="translate(369.479935 88.886264)scale(0.17 -0.17)">
     <use xlink:href="#DejaVuSans-31"/>
     <use x="63.623047" xlink:href="#DejaVuSans-30"/>
     <use x="127.246094" xlink:href="#DejaVuSans-2d"/>
     <use x="163.330078" xlink:href="#DejaVuSans-44"/>
    </g>
   </g>
   <g id="text_19">
    <!-- 40-D -->
    <g transform="translate(369.479935 37.551928)scale(0.17 -0.17)">
     <use xlink:href="#DejaVuSans-34"/>
     <use x="63.623047" xlink:href="#DejaVuSans-30"/>
     <use x="127.246094" xlink:href="#DejaVuSans-2d"/>
     <use x="163.330078" xlink:href="#DejaVuSans-44"/>
    </g>
   </g>
   <g id="text_20">
    <!-- bbob f21 -->
    <defs>
     <path d="M 48.6875 27.296875 
Q 48.6875 37.203125 44.609375 42.84375 
Q 40.53125 48.484375 33.40625 48.484375 
Q 26.265625 48.484375 22.1875 42.84375 
Q 18.109375 37.203125 18.109375 27.296875 
Q 18.109375 17.390625 22.1875 11.75 
Q 26.265625 6.109375 33.40625 6.109375 
Q 40.53125 6.109375 44.609375 11.75 
Q 48.6875 17.390625 48.6875 27.296875 
z
M 18.109375 46.390625 
Q 20.953125 51.265625 25.265625 53.625 
Q 29.59375 56 35.59375 56 
Q 45.5625 56 51.78125 48.09375 
Q 58.015625 40.1875 58.015625 27.296875 
Q 58.015625 14.40625 51.78125 6.484375 
Q 45.5625 -1.421875 35.59375 -1.421875 
Q 29.59375 -1.421875 25.265625 0.953125 
Q 20.953125 3.328125 18.109375 8.203125 
L 18.109375 0 
L 9.078125 0 
L 9.078125 75.984375 
L 18.109375 75.984375 
z
" id="DejaVuSans-62"/>
    </defs>
    <g transform="translate(59.55864 35.290806)scale(0.102 -0.102)">
     <use xlink:href="#DejaVuSans-62"/>
     <use x="63.476562" xlink:href="#DejaVuSans-62"/>
     <use x="126.953125" xlink:href="#DejaVuSans-6f"/>
     <use x="188.134766" xlink:href="#DejaVuSans-62"/>
     <use x="251.611328" xlink:href="#DejaVuSans-20"/>
     <use x="283.398438" xlink:href="#DejaVuSans-66"/>
     <use x="318.603516" xlink:href="#DejaVuSans-32"/>
     <use x="382.226562" xlink:href="#DejaVuSans-31"/>
    </g>
    <!-- 51 targets: 100..1e-08 -->
    <defs>
     <path d="M 11.71875 12.40625 
L 22.015625 12.40625 
L 22.015625 0 
L 11.71875 0 
z
M 11.71875 51.703125 
L 22.015625 51.703125 
L 22.015625 39.3125 
L 11.71875 39.3125 
z
" id="DejaVuSans-3a"/>
    </defs>
    <g transform="translate(59.55864 46.712575)scale(0.102 -0.102)">
     <use xlink:href="#DejaVuSans-35"/>
     <use x="63.623047" xlink:href="#DejaVuSans-31"/>
     <use x="127.246094" xlink:href="#DejaVuSans-20"/>
     <use x="159.033203" xlink:href="#DejaVuSans-74"/>
     <use x="198.242188" xlink:href="#DejaVuSans-61"/>
     <use x="259.521484" xlink:href="#DejaVuSans-72"/>
     <use x="300.619141" xlink:href="#DejaVuSans-67"/>
     <use x="364.095703" xlink:href="#DejaVuSans-65"/>
     <use x="425.619141" xlink:href="#DejaVuSans-74"/>
     <use x="464.828125" xlink:href="#DejaVuSans-73"/>
     <use x="516.927734" xlink:href="#DejaVuSans-3a"/>
     <use x="550.619141" xlink:href="#DejaVuSans-20"/>
     <use x="582.40625" xlink:href="#DejaVuSans-31"/>
     <use x="646.029297" xlink:href="#DejaVuSans-30"/>
     <use x="709.652344" xlink:href="#DejaVuSans-30"/>
     <use x="773.275391" xlink:href="#DejaVuSans-2e"/>
     <use x="805.0625" xlink:href="#DejaVuSans-2e"/>
     <use x="836.849609" xlink:href="#DejaVuSans-31"/>
     <use x="900.472656" xlink:href="#DejaVuSans-65"/>
     <use x="961.996094" xlink:href="#DejaVuSans-2d"/>
     <use x="998.080078" xlink:href="#DejaVuSans-30"/>
     <use x="1061.703125" xlink:href="#DejaVuSans-38"/>
    </g>
    <!-- 15 instances -->
    <g transform="translate(59.55864 58.134344)scale(0.102 -0.102)">
     <use xlink:href="#DejaVuSans-31"/>
     <use x="63.623047" xlink:href="#DejaVuSans-35"/>
     <use x="127.246094" xlink:href="#DejaVuSans-20"/>
     <use x="159.033203" xlink:href="#DejaVuSans-69"/>
     <use x="186.816406" xlink:href="#DejaVuSans-6e"/>
     <use x="250.195312" xlink:href="#DejaVuSans-73"/>
     <use x="302.294922" xlink:href="#DejaVuSans-74"/>
     <use x="341.503906" xlink:href="#DejaVuSans-61"/>
     <use x="402.783203" xlink:href="#DejaVuSans-6e"/>
     <use x="466.162109" xlink:href="#DejaVuSans-63"/>
     <use x="521.142578" xlink:href="#DejaVuSans-65"/>
     <use x="582.666016" xlink:href="#DejaVuSans-73"/>
    </g>
   </g>
   <g id="text_21">
    <!-- v0.0.0 -->
    <g style="fill:#808080;" transform="translate(212.37075 290.099912)scale(0.1 -0.1)">
     <use xlink:href="#DejaVuSans-76"/>
     <use x="59.179688" xlink:href="#DejaVuSans-30"/>
     <use x="122.802734" xlink:href="#DejaVuSans-2e"/>
     <use x="154.589844" xlink:href="#DejaVuSans-30"/>
     <use x="218.212891" xlink:href="#DejaVuSans-2e"/>
     <use x="250" xlink:href="#DejaVuSans-30"/>
    </g>
   </g>
   <g id="text_22">
    <!-- 21 Gallagher 101 peaks -->
    <defs>
     <path d="M 59.515625 10.40625 
L 59.515625 29.984375 
L 43.40625 29.984375 
L 43.40625 38.09375 
L 69.28125 38.09375 
L 69.28125 6.78125 
Q 63.578125 2.734375 56.6875 0.65625 
Q 49.8125 -1.421875 42 -1.421875 
Q 24.90625 -1.421875 15.25 8.5625 
Q 5.609375 18.5625 5.609375 36.375 
Q 5.609375 54.25 15.25 64.234375 
Q 24.90625 74.21875 42 74.21875 
Q 49.125 74.21875 55.546875 72.453125 
Q 61.96875 70.703125 67.390625 67.28125 
L 67.390625 56.78125 
Q 61.921875 61.421875 55.765625 63.765625 
Q 49.609375 66.109375 42.828125 66.109375 
Q 29.4375 66.109375 22.71875 58.640625 
Q 16.015625 51.171875 16.015625 36.375 
Q 16.015625 21.625 22.71875 14.15625 
Q 29.4375 6.6875 42.828125 6.6875 
Q 48.046875 6.6875 52.140625 7.59375 
Q 56.25 8.5 59.515625 10.40625 
z
" id="DejaVuSans-47"/>
     <path d="M 54.890625 33.015625 
L 54.890625 0 
L 45.90625 0 
L 45.90625 32.71875 
Q 45.90625 40.484375 42.875 44.328125 
Q 39.84375 48.1875 33.796875 48.1875 
Q 26.515625 48.1875 22.3125 43.546875 
Q 18.109375 38.921875 18.109375 30.90625 
L 18.109375 0 
L 9.078125 0 
L 9.078125 75.984375 
L 18.109375 75.984375 
L 18.109375 46.1875 
Q 21.34375 51.125 25.703125 53.5625 
Q 30.078125 56 35.796875 56 
Q 45.21875 56 50.046875 50.171875 
Q 54.890625 44.34375 54.890625 33.015625 
z
" id="DejaVuSans-68"/>
     <path d="M 9.078125 75.984375 
L 18.109375 75.984375 
L 18.109375 31.109375 
L 44.921875 54.6875 
L 56.390625 54.6875 
L 27.390625 29.109375 
L 57.625 0 
L 45.90625 0 
L 18.109375 26.703125 
L 18.109375 0 
L 9.078125 0 
z
" id="DejaVuSans-6b"/>
    </defs>
    <g transform="translate(108.5645 18.84)scale(0.2 -0.2)">
     <use xlink:href="#DejaVuSans-32"/>
     <use x="63.623047" xlink:href="#DejaVuSans-31"/>
     <use x="127.246094" xlink:href="#DejaVuSans-20"/>
     <use x="159.033203" xlink:href="#DejaVuSans-47"/>
     <use x="236.523438" xlink:href="#DejaVuSans-61"/>
     <use x="297.802734" xlink:href="#DejaVuSans-6c"/>
     <use x="325.585938" xlink:href="#DejaVuSans-6c"/>
     <use x="353.369141" xlink:href="#DejaVuSans-61"/>
     <use x="414.648438" xlink:href="#DejaVuSans-67"/>
     <use x="478.125" xlink:href="#DejaVuSans-68"/>
     <use x="541.503906" xlink:href="#DejaVuSans-65"/>
     <use x="603.027344" xlink:href="#DejaVuSans-72"/>
     <use x="644.140625" xlink:href="#DejaVuSans-20"/>
     <use x="675.927734" xlink:href="#DejaVuSans-31"/>
     <use x="739.550781" xlink:href="#DejaVuSans-30"/>
     <use x="803.173828" xlink:href="#DejaVuSans-31"/>
     <use x="866.796875" xlink:href="#DejaVuSans-20"/>
     <use x="898.583984" xlink:href="#DejaVuSans-70"/>
     <use x="962.060547" xlink:href="#DejaVuSans-65"/>
     <use x="1023.583984" xlink:href="#DejaVuSans-61"/>
     <use x="1084.863281" xlink:href="#DejaVuSans-6b"/>
     <use x="1142.773438" xlink:href="#DejaVuSans-73"/>
    </g>
   </g>
  </g>
 </g>
 <defs>
  <clipPath id="pf7f56dab41">
   <rect height="270.04" width="343.864" x="56.12" y="24.84"/>
  </clipPath>
 </defs>
</svg>
