<?xml version="1.0" encoding="utf-8" standalone="no"?>
<!DOCTYPE svg PUBLIC "-//W3C//DTD SVG 1.1//EN"
  "http://www.w3.org/Graphics/SVG/1.1/DTD/svg11.dtd">
<!-- Created with matplotlib (http://matplotlib.org/) -->
<svg height="345.6pt" version="1.1" viewBox="0 0 460.8 345.6" width="460.8pt" xmlns="http://www.w3.org/2000/svg" xmlns:xlink="http://www.w3.org/1999/xlink">
 <defs>
  <style type="text/css">
*{stroke-linecap:butt;stroke-linejoin:round;}
  </style>
 </defs>
 <g id="figure_1">
  <g id="patch_1">
   <path d="M 0 345.6 
L 460.8 345.6 
L 460.8 0 
L 0 0 
z
" style="fill:#ffffff;"/>
  </g>
  <g id="axes_1">
   <g id="patch_2">
    <path d="M 56.12 294.88 
L 399.984 294.88 
L 399.984 6.845228 
L 56.12 6.845228 
z
" style="fill:#ffffff;"/>
   </g>
   <g id="matplotlib.axis_1">
    <g id="xtick_1">
     <g id="line2d_1">
      <path clip-path="url(#p5a618939b2)" d="M 56.12 294.88 
L 56.12 6.845228 
" style="fill:none;stroke:#b0b0b0;stroke-linecap:square;stroke-width:0.8;"/>
     </g>
     <g id="line2d_2">
      <defs>
       <path d="M 0 0 
L 0 3.5 
" id="m4f88191141" style="stroke:#000000;stroke-width:0.8;"/>
      </defs>
      <g>
       <use style="stroke:#000000;stroke-width:0.8;" x="56.12" xlink:href="#m4f88191141" y="294.88"/>
      </g>
     </g>
     <g id="text_1">
      <!-- 0 -->
      <defs>
       <path d="M 31.78125 66.40625 
Q 24.171875 66.40625 20.328125 58.90625 
Q 16.5 51.421875 16.5 36.375 
Q 16.5 21.390625 20.328125 13.890625 
Q 24.171875 6.390625 31.78125 6.390625 
Q 39.453125 6.390625 43.28125 13.890625 
Q 47.125 21.390625 47.125 36.375 
Q 47.125 51.421875 43.28125 58.90625 
Q 39.453125 66.40625 31.78125 66.40625 
z
M 31.78125 74.21875 
Q 44.046875 74.21875 50.515625 64.515625 
Q 56.984375 54.828125 56.984375 36.375 
Q 56.984375 17.96875 50.515625 8.265625 
Q 44.046875 -1.421875 31.78125 -1.421875 
Q 19.53125 -1.421875 13.0625 8.265625 
Q 6.59375 17.96875 6.59375 36.375 
Q 6.59375 54.828125 13.0625 64.515625 
Q 19.53125 74.21875 31.78125 74.21875 
z
" id="DejaVuSans-30"/>
      </defs>
      <g transform="translate(49.7575 317.076875)scale(0.2 -0.2)">
       <use xlink:href="#DejaVuSans-30"/>
      </g>
     </g>
    </g>
    <g id="xtick_2">
     <g id="line2d_3">
      <path clip-path="url(#p5a618939b2)" d="M 135.351336 294.88 
L 135.351336 6.845228 
" style="fill:none;stroke:#b0b0b0;stroke-linecap:square;stroke-width:0.8;"/>
     </g>
     <g id="line2d_4">
      <g>
       <use style="stroke:#000000;stroke-width:0.8;" x="135.351336" xlink:href="#m4f88191141" y="294.88"/>
      </g>
     </g>
     <g id="text_2">
      <!-- 2 -->
      <defs>
       <path d="M 19.1875 8.296875 
L 53.609375 8.296875 
L 53.609375 0 
L 7.328125 0 
L 7.328125 8.296875 
Q 12.9375 14.109375 22.625 23.890625 
Q 32.328125 33.6875 34.8125 36.53125 
Q 39.546875 41.84375 41.421875 45.53125 
Q 43.3125 49.21875 43.3125 52.78125 
Q 43.3125 58.59375 39.234375 62.25 
Q 35.15625 65.921875 28.609375 65.921875 
Q 23.96875 65.921875 18.8125 64.3125 
Q 13.671875 62.703125 7.8125 59.421875 
L 7.8125 69.390625 
Q 13.765625 71.78125 18.9375 73 
Q 24.125 74.21875 28.421875 74.21875 
Q 39.75 74.21875 46.484375 68.546875 
Q 53.21875 62.890625 53.21875 53.421875 
Q 53.21875 48.921875 51.53125 44.890625 
Q 49.859375 40.875 45.40625 35.40625 
Q 44.1875 33.984375 37.640625 27.21875 
Q 31.109375 20.453125 19.1875 8.296875 
z
" id="DejaVuSans-32"/>
      </defs>
      <g transform="translate(128.988836 317.076875)scale(0.2 -0.2)">
       <use xlink:href="#DejaVuSans-32"/>
      </g>
     </g>
    </g>
    <g id="xtick_3">
     <g id="line2d_5">
      <path clip-path="url(#p5a618939b2)" d="M 214.582673 294.88 
L 214.582673 6.845228 
" style="fill:none;stroke:#b0b0b0;stroke-linecap:square;stroke-width:0.8;"/>
     </g>
     <g id="line2d_6">
      <g>
       <use style="stroke:#000000;stroke-width:0.8;" x="214.582673" xlink:href="#m4f88191141" y="294.88"/>
      </g>
     </g>
     <g id="text_3">
      <!-- 4 -->
      <defs>
       <path d="M 37.796875 64.3125 
L 12.890625 25.390625 
L 37.796875 25.390625 
z
M 35.203125 72.90625 
L 47.609375 72.90625 
L 47.609375 25.390625 
L 58.015625 25.390625 
L 58.015625 17.1875 
L 47.609375 17.1875 
L 47.609375 0 
L 37.796875 0 
L 37.796875 17.1875 
L 4.890625 17.1875 
L 4.890625 26.703125 
z
" id="DejaVuSans-34"/>
      </defs>
      <g transform="translate(208.220173 317.076875)scale(0.2 -0.2)">
       <use xlink:href="#DejaVuSans-34"/>
      </g>
     </g>
    </g>
    <g id="xtick_4">
     <g id="line2d_7">
      <path clip-path="url(#p5a618939b2)" d="M 293.814009 294.88 
L 293.814009 6.845228 
" style="fill:none;stroke:#b0b0b0;stroke-linecap:square;stroke-width:0.8;"/>
     </g>
     <g id="line2d_8">
      <g>
       <use style="stroke:#000000;stroke-width:0.8;" x="293.814009" xlink:href="#m4f88191141" y="294.88"/>
      </g>
     </g>
     <g id="text_4">
      <!-- 6 -->
      <defs>
       <path d="M 33.015625 40.375 
Q 26.375 40.375 22.484375 35.828125 
Q 18.609375 31.296875 18.609375 23.390625 
Q 18.609375 15.53125 22.484375 10.953125 
Q 26.375 6.390625 33.015625 6.390625 
Q 39.65625 6.390625 43.53125 10.953125 
Q 47.40625 15.53125 47.40625 23.390625 
Q 47.40625 31.296875 43.53125 35.828125 
Q 39.65625 40.375 33.015625 40.375 
z
M 52.59375 71.296875 
L 52.59375 62.3125 
Q 48.875 64.0625 45.09375 64.984375 
Q 41.3125 65.921875 37.59375 65.921875 
Q 27.828125 65.921875 22.671875 59.328125 
Q 17.53125 52.734375 16.796875 39.40625 
Q 19.671875 43.65625 24.015625 45.921875 
Q 28.375 48.1875 33.59375 48.1875 
Q 44.578125 48.1875 50.953125 41.515625 
Q 57.328125 34.859375 57.328125 23.390625 
Q 57.328125 12.15625 50.6875 5.359375 
Q 44.046875 -1.421875 33.015625 -1.421875 
Q 20.359375 -1.421875 13.671875 8.265625 
Q 6.984375 17.96875 6.984375 36.375 
Q 6.984375 53.65625 15.1875 63.9375 
Q 23.390625 74.21875 37.203125 74.21875 
Q 40.921875 74.21875 44.703125 73.484375 
Q 48.484375 72.75 52.59375 71.296875 
z
" id="DejaVuSans-36"/>
      </defs>
      <g transform="translate(287.451509 317.076875)scale(0.2 -0.2)">
       <use xlink:href="#DejaVuSans-36"/>
      </g>
     </g>
    </g>
    <g id="xtick_5">
     <g id="line2d_9">
      <path clip-path="url(#p5a618939b2)" d="M 373.045346 294.88 
L 373.045346 6.845228 
" style="fill:none;stroke:#b0b0b0;stroke-linecap:square;stroke-width:0.8;"/>
     </g>
     <g id="line2d_10">
      <g>
       <use style="stroke:#000000;stroke-width:0.8;" x="373.045346" xlink:href="#m4f88191141" y="294.88"/>
      </g>
     </g>
     <g id="text_5">
      <!-- 8 -->
      <defs>
       <path d="M 31.78125 34.625 
Q 24.75 34.625 20.71875 30.859375 
Q 16.703125 27.09375 16.703125 20.515625 
Q 16.703125 13.921875 20.71875 10.15625 
Q 24.75 6.390625 31.78125 6.390625 
Q 38.8125 6.390625 42.859375 10.171875 
Q 46.921875 13.96875 46.921875 20.515625 
Q 46.921875 27.09375 42.890625 30.859375 
Q 38.875 34.625 31.78125 34.625 
z
M 21.921875 38.8125 
Q 15.578125 40.375 12.03125 44.71875 
Q 8.5 49.078125 8.5 55.328125 
Q 8.5 64.0625 14.71875 69.140625 
Q 20.953125 74.21875 31.78125 74.21875 
Q 42.671875 74.21875 48.875 69.140625 
Q 55.078125 64.0625 55.078125 55.328125 
Q 55.078125 49.078125 51.53125 44.71875 
Q 48 40.375 41.703125 38.8125 
Q 48.828125 37.15625 52.796875 32.3125 
Q 56.78125 27.484375 56.78125 20.515625 
Q 56.78125 9.90625 50.3125 4.234375 
Q 43.84375 -1.421875 31.78125 -1.421875 
Q 19.734375 -1.421875 13.25 4.234375 
Q 6.78125 9.90625 6.78125 20.515625 
Q 6.78125 27.484375 10.78125 32.3125 
Q 14.796875 37.15625 21.921875 38.8125 
z
M 18.3125 54.390625 
Q 18.3125 48.734375 21.84375 45.5625 
Q 25.390625 42.390625 31.78125 42.390625 
Q 38.140625 42.390625 41.71875 45.5625 
Q 45.3125 48.734375 45.3125 54.390625 
Q 45.3125 60.0625 41.71875 63.234375 
Q 38.140625 66.40625 31.78125 66.40625 
Q 25.390625 66.40625 21.84375 63.234375 
Q 18.3125 60.0625 18.3125 54.390625 
z
" id="DejaVuSans-38"/>
      </defs>
      <g transform="translate(366.682846 317.076875)scale(0.2 -0.2)">
       <use xlink:href="#DejaVuSans-38"/>
      </g>
     </g>
    </g>
    <g id="text_6">
     <!-- log10(# f-evals / dimension) -->
     <defs>
      <path d="M 9.421875 75.984375 
L 18.40625 75.984375 
L 18.40625 0 
L 9.421875 0 
z
" id="DejaVuSans-6c"/>
      <path d="M 30.609375 48.390625 
Q 23.390625 48.390625 19.1875 42.75 
Q 14.984375 37.109375 14.984375 27.296875 
Q 14.984375 17.484375 19.15625 11.84375 
Q 23.34375 6.203125 30.609375 6.203125 
Q 37.796875 6.203125 41.984375 11.859375 
Q 46.1875 17.53125 46.1875 27.296875 
Q 46.1875 37.015625 41.984375 42.703125 
Q 37.796875 48.390625 30.609375 48.390625 
z
M 30.609375 56 
Q 42.328125 56 49.015625 48.375 
Q 55.71875 40.765625 55.71875 27.296875 
Q 55.71875 13.875 49.015625 6.21875 
Q 42.328125 -1.421875 30.609375 -1.421875 
Q 18.84375 -1.421875 12.171875 6.21875 
Q 5.515625 13.875 5.515625 27.296875 
Q 5.515625 40.765625 12.171875 48.375 
Q 18.84375 56 30.609375 56 
z
" id="DejaVuSans-6f"/>
      <path d="M 45.40625 27.984375 
Q 45.40625 37.75 41.375 43.109375 
Q 37.359375 48.484375 30.078125 48.484375 
Q 22.859375 48.484375 18.828125 43.109375 
Q 14.796875 37.75 14.796875 27.984375 
Q 14.796875 18.265625 18.828125 12.890625 
Q 22.859375 7.515625 30.078125 7.515625 
Q 37.359375 7.515625 41.375 12.890625 
Q 45.40625 18.265625 45.40625 27.984375 
z
M 54.390625 6.78125 
Q 54.390625 -7.171875 48.1875 -13.984375 
Q 42 -20.796875 29.203125 -20.796875 
Q 24.46875 -20.796875 20.265625 -20.09375 
Q 16.0625 -19.390625 12.109375 -17.921875 
L 12.109375 -9.1875 
Q 16.0625 -11.328125 19.921875 -12.34375 
Q 23.78125 -13.375 27.78125 -13.375 
Q 36.625 -13.375 41.015625 -8.765625 
Q 45.40625 -4.15625 45.40625 5.171875 
L 45.40625 9.625 
Q 42.625 4.78125 38.28125 2.390625 
Q 33.9375 0 27.875 0 
Q 17.828125 0 11.671875 7.65625 
Q 5.515625 15.328125 5.515625 27.984375 
Q 5.515625 40.671875 11.671875 48.328125 
Q 17.828125 56 27.875 56 
Q 33.9375 56 38.28125 53.609375 
Q 42.625 51.21875 45.40625 46.390625 
L 45.40625 54.6875 
L 54.390625 54.6875 
z
" id="DejaVuSans-67"/>
      <path d="M 12.40625 8.296875 
L 28.515625 8.296875 
L 28.515625 63.921875 
L 10.984375 60.40625 
L 10.984375 69.390625 
L 28.421875 72.90625 
L 38.28125 72.90625 
L 38.28125 8.296875 
L 54.390625 8.296875 
L 54.390625 0 
L 12.40625 0 
z
" id="DejaVuSans-31"/>
      <path d="M 31 75.875 
Q 24.46875 64.65625 21.28125 53.65625 
Q 18.109375 42.671875 18.109375 31.390625 
Q 18.109375 20.125 21.3125 9.0625 
Q 24.515625 -2 31 -13.1875 
L 23.1875 -13.1875 
Q 15.875 -1.703125 12.234375 9.375 
Q 8.59375 20.453125 8.59375 31.390625 
Q 8.59375 42.28125 12.203125 53.3125 
Q 15.828125 64.359375 23.1875 75.875 
z
" id="DejaVuSans-28"/>
      <path d="M 51.125 44 
L 36.921875 44 
L 32.8125 27.6875 
L 47.125 27.6875 
z
M 43.796875 71.78125 
L 38.71875 51.515625 
L 52.984375 51.515625 
L 58.109375 71.78125 
L 65.921875 71.78125 
L 60.890625 51.515625 
L 76.125 51.515625 
L 76.125 44 
L 58.984375 44 
L 54.984375 27.6875 
L 70.515625 27.6875 
L 70.515625 20.21875 
L 53.078125 20.21875 
L 48 0 
L 40.1875 0 
L 45.21875 20.21875 
L 30.90625 20.21875 
L 25.875 0 
L 18.015625 0 
L 23.09375 20.21875 
L 7.71875 20.21875 
L 7.71875 27.6875 
L 24.90625 27.6875 
L 29 44 
L 13.28125 44 
L 13.28125 51.515625 
L 30.90625 51.515625 
L 35.890625 71.78125 
z
" id="DejaVuSans-23"/>
      <path id="DejaVuSans-20"/>
      <path d="M 37.109375 75.984375 
L 37.109375 68.5 
L 28.515625 68.5 
Q 23.6875 68.5 21.796875 66.546875 
Q 19.921875 64.59375 19.921875 59.515625 
L 19.921875 54.6875 
L 34.71875 54.6875 
L 34.71875 47.703125 
L 19.921875 47.703125 
L 19.921875 0 
L 10.890625 0 
L 10.890625 47.703125 
L 2.296875 47.703125 
L 2.296875 54.6875 
L 10.890625 54.6875 
L 10.890625 58.5 
Q 10.890625 67.625 15.140625 71.796875 
Q 19.390625 75.984375 28.609375 75.984375 
z
" id="DejaVuSans-66"/>
      <path d="M 4.890625 31.390625 
L 31.203125 31.390625 
L 31.203125 23.390625 
L 4.890625 23.390625 
z
" id="DejaVuSans-2d"/>
      <path d="M 56.203125 29.59375 
L 56.203125 25.203125 
L 14.890625 25.203125 
Q 15.484375 15.921875 20.484375 11.0625 
Q 25.484375 6.203125 34.421875 6.203125 
Q 39.59375 6.203125 44.453125 7.46875 
Q 49.3125 8.734375 54.109375 11.28125 
L 54.109375 2.78125 
Q 49.265625 0.734375 44.1875 -0.34375 
Q 39.109375 -1.421875 33.890625 -1.421875 
Q 20.796875 -1.421875 13.15625 6.1875 
Q 5.515625 13.8125 5.515625 26.8125 
Q 5.515625 40.234375 12.765625 48.109375 
Q 20.015625 56 32.328125 56 
Q 43.359375 56 49.78125 48.890625 
Q 56.203125 41.796875 56.203125 29.59375 
z
M 47.21875 32.234375 
Q 47.125 39.59375 43.09375 43.984375 
Q 39.0625 48.390625 32.421875 48.390625 
Q 24.90625 48.390625 20.390625 44.140625 
Q 15.875 39.890625 15.1875 32.171875 
z
" id="DejaVuSans-65"/>
      <path d="M 2.984375 54.6875 
L 12.5 54.6875 
L 29.59375 8.796875 
L 46.6875 54.6875 
L 56.203125 54.6875 
L 35.6875 0 
L 23.484375 0 
z
" id="DejaVuSans-76"/>
      <path d="M 34.28125 27.484375 
Q 23.390625 27.484375 19.1875 25 
Q 14.984375 22.515625 14.984375 16.5 
Q 14.984375 11.71875 18.140625 8.90625 
Q 21.296875 6.109375 26.703125 6.109375 
Q 34.1875 6.109375 38.703125 11.40625 
Q 43.21875 16.703125 43.21875 25.484375 
L 43.21875 27.484375 
z
M 52.203125 31.203125 
L 52.203125 0 
L 43.21875 0 
L 43.21875 8.296875 
Q 40.140625 3.328125 35.546875 0.953125 
Q 30.953125 -1.421875 24.3125 -1.421875 
Q 15.921875 -1.421875 10.953125 3.296875 
Q 6 8.015625 6 15.921875 
Q 6 25.140625 12.171875 29.828125 
Q 18.359375 34.515625 30.609375 34.515625 
L 43.21875 34.515625 
L 43.21875 35.40625 
Q 43.21875 41.609375 39.140625 45 
Q 35.0625 48.390625 27.6875 48.390625 
Q 23 48.390625 18.546875 47.265625 
Q 14.109375 46.140625 10.015625 43.890625 
L 10.015625 52.203125 
Q 14.9375 54.109375 19.578125 55.046875 
Q 24.21875 56 28.609375 56 
Q 40.484375 56 46.34375 49.84375 
Q 52.203125 43.703125 52.203125 31.203125 
z
" id="DejaVuSans-61"/>
      <path d="M 44.28125 53.078125 
L 44.28125 44.578125 
Q 40.484375 46.53125 36.375 47.5 
Q 32.28125 48.484375 27.875 48.484375 
Q 21.1875 48.484375 17.84375 46.4375 
Q 14.5 44.390625 14.5 40.28125 
Q 14.5 37.15625 16.890625 35.375 
Q 19.28125 33.59375 26.515625 31.984375 
L 29.59375 31.296875 
Q 39.15625 29.25 43.1875 25.515625 
Q 47.21875 21.78125 47.21875 15.09375 
Q 47.21875 7.46875 41.1875 3.015625 
Q 35.15625 -1.421875 24.609375 -1.421875 
Q 20.21875 -1.421875 15.453125 -0.5625 
Q 10.6875 0.296875 5.421875 2 
L 5.421875 11.28125 
Q 10.40625 8.6875 15.234375 7.390625 
Q 20.0625 6.109375 24.8125 6.109375 
Q 31.15625 6.109375 34.5625 8.28125 
Q 37.984375 10.453125 37.984375 14.40625 
Q 37.984375 18.0625 35.515625 20.015625 
Q 33.0625 21.96875 24.703125 23.78125 
L 21.578125 24.515625 
Q 13.234375 26.265625 9.515625 29.90625 
Q 5.8125 33.546875 5.8125 39.890625 
Q 5.8125 47.609375 11.28125 51.796875 
Q 16.75 56 26.8125 56 
Q 31.78125 56 36.171875 55.265625 
Q 40.578125 54.546875 44.28125 53.078125 
z
" id="DejaVuSans-73"/>
      <path d="M 25.390625 72.90625 
L 33.6875 72.90625 
L 8.296875 -9.28125 
L 0 -9.28125 
z
" id="DejaVuSans-2f"/>
      <path d="M 45.40625 46.390625 
L 45.40625 75.984375 
L 54.390625 75.984375 
L 54.390625 0 
L 45.40625 0 
L 45.40625 8.203125 
Q 42.578125 3.328125 38.25 0.953125 
Q 33.9375 -1.421875 27.875 -1.421875 
Q 17.96875 -1.421875 11.734375 6.484375 
Q 5.515625 14.40625 5.515625 27.296875 
Q 5.515625 40.1875 11.734375 48.09375 
Q 17.96875 56 27.875 56 
Q 33.9375 56 38.25 53.625 
Q 42.578125 51.265625 45.40625 46.390625 
z
M 14.796875 27.296875 
Q 14.796875 17.390625 18.875 11.75 
Q 22.953125 6.109375 30.078125 6.109375 
Q 37.203125 6.109375 41.296875 11.75 
Q 45.40625 17.390625 45.40625 27.296875 
Q 45.40625 37.203125 41.296875 42.84375 
Q 37.203125 48.484375 30.078125 48.484375 
Q 22.953125 48.484375 18.875 42.84375 
Q 14.796875 37.203125 14.796875 27.296875 
z
" id="DejaVuSans-64"/>
      <path d="M 9.421875 54.6875 
L 18.40625 54.6875 
L 18.40625 0 
L 9.421875 0 
z
M 9.421875 75.984375 
L 18.40625 75.984375 
L 18.40625 64.59375 
L 9.421875 64.59375 
z
" id="DejaVuSans-69"/>
      <path d="M 52 44.1875 
Q 55.375 50.25 60.0625 53.125 
Q 64.75 56 71.09375 56 
Q 79.640625 56 84.28125 50.015625 
Q 88.921875 44.046875 88.921875 33.015625 
L 88.921875 0 
L 79.890625 0 
L 79.890625 32.71875 
Q 79.890625 40.578125 77.09375 44.375 
Q 74.3125 48.1875 68.609375 48.1875 
Q 61.625 48.1875 57.5625 43.546875 
Q 53.515625 38.921875 53.515625 30.90625 
L 53.515625 0 
L 44.484375 0 
L 44.484375 32.71875 
Q 44.484375 40.625 41.703125 44.40625 
Q 38.921875 48.1875 33.109375 48.1875 
Q 26.21875 48.1875 22.15625 43.53125 
Q 18.109375 38.875 18.109375 30.90625 
L 18.109375 0 
L 9.078125 0 
L 9.078125 54.6875 
L 18.109375 54.6875 
L 18.109375 46.1875 
Q 21.1875 51.21875 25.484375 53.609375 
Q 29.78125 56 35.6875 56 
Q 41.65625 56 45.828125 52.96875 
Q 50 49.953125 52 44.1875 
z
" id="DejaVuSans-6d"/>
      <path d="M 54.890625 33.015625 
L 54.890625 0 
L 45.90625 0 
L 45.90625 32.71875 
Q 45.90625 40.484375 42.875 44.328125 
Q 39.84375 48.1875 33.796875 48.1875 
Q 26.515625 48.1875 22.3125 43.546875 
Q 18.109375 38.921875 18.109375 30.90625 
L 18.109375 0 
L 9.078125 0 
L 9.078125 54.6875 
L 18.109375 54.6875 
L 18.109375 46.1875 
Q 21.34375 51.125 25.703125 53.5625 
Q 30.078125 56 35.796875 56 
Q 45.21875 56 50.046875 50.171875 
Q 54.890625 44.34375 54.890625 33.015625 
z
" id="DejaVuSans-6e"/>
      <path d="M 8.015625 75.875 
L 15.828125 75.875 
Q 23.140625 64.359375 26.78125 53.3125 
Q 30.421875 42.28125 30.421875 31.390625 
Q 30.421875 20.453125 26.78125 9.375 
Q 23.140625 -1.703125 15.828125 -13.1875 
L 8.015625 -13.1875 
Q 14.5 -2 17.703125 9.0625 
Q 20.90625 20.125 20.90625 31.390625 
Q 20.90625 42.671875 17.703125 53.65625 
Q 14.5 64.65625 8.015625 75.875 
z
" id="DejaVuSans-29"/>
     </defs>
     <g transform="translate(107.211219 338.153594)scale(0.17 -0.17)">
      <use xlink:href="#DejaVuSans-6c"/>
      <use x="27.783203" xlink:href="#DejaVuSans-6f"/>
      <use x="88.964844" xlink:href="#DejaVuSans-67"/>
      <use x="152.441406" xlink:href="#DejaVuSans-31"/>
      <use x="216.064453" xlink:href="#DejaVuSans-30"/>
      <use x="279.6875" xlink:href="#DejaVuSans-28"/>
      <use x="318.701172" xlink:href="#DejaVuSans-23"/>
      <use x="402.490234" xlink:href="#DejaVuSans-20"/>
      <use x="434.277344" xlink:href="#DejaVuSans-66"/>
      <use x="469.404297" xlink:href="#DejaVuSans-2d"/>
      <use x="505.488281" xlink:href="#DejaVuSans-65"/>
      <use x="567.011719" xlink:href="#DejaVuSans-76"/>
      <use x="626.191406" xlink:href="#DejaVuSans-61"/>
      <use x="687.470703" xlink:href="#DejaVuSans-6c"/>
      <use x="715.253906" xlink:href="#DejaVuSans-73"/>
      <use x="767.353516" xlink:href="#DejaVuSans-20"/>
      <use x="799.140625" xlink:href="#DejaVuSans-2f"/>
      <use x="832.832031" xlink:href="#DejaVuSans-20"/>
      <use x="864.619141" xlink:href="#DejaVuSans-64"/>
      <use x="928.095703" xlink:href="#DejaVuSans-69"/>
      <use x="955.878906" xlink:href="#DejaVuSans-6d"/>
      <use x="1053.291016" xlink:href="#DejaVuSans-65"/>
      <use x="1114.814453" xlink:href="#DejaVuSans-6e"/>
      <use x="1178.193359" xlink:href="#DejaVuSans-73"/>
      <use x="1230.292969" xlink:href="#DejaVuSans-69"/>
      <use x="1258.076172" xlink:href="#DejaVuSans-6f"/>
      <use x="1319.257812" xlink:href="#DejaVuSans-6e"/>
      <use x="1382.636719" xlink:href="#DejaVuSans-29"/>
     </g>
    </g>
   </g>
   <g id="matplotlib.axis_2">
    <g id="ytick_1">
     <g id="line2d_11">
      <path clip-path="url(#p5a618939b2)" d="M 56.12 294.88 
L 399.984 294.88 
" style="fill:none;stroke:#b0b0b0;stroke-linecap:square;stroke-width:0.8;"/>
     </g>
     <g id="line2d_12">
      <defs>
       <path d="M 0 0 
L -3.5 0 
" id="m3cdf0b042f" style="stroke:#000000;stroke-width:0.8;"/>
      </defs>
      <g>
       <use style="stroke:#000000;stroke-width:0.8;" x="56.12" xlink:href="#m3cdf0b042f" y="294.88"/>
      </g>
     </g>
     <g id="text_7">
      <!-- 0.0 -->
      <defs>
       <path d="M 10.6875 12.40625 
L 21 12.40625 
L 21 0 
L 10.6875 0 
z
" id="DejaVuSans-2e"/>
      </defs>
      <g transform="translate(23.675 300.95875)scale(0.16 -0.16)">
       <use xlink:href="#DejaVuSans-30"/>
       <use x="63.623047" xlink:href="#DejaVuSans-2e"/>
       <use x="95.410156" xlink:href="#DejaVuSans-30"/>
      </g>
     </g>
    </g>
    <g id="ytick_2">
     <g id="line2d_13">
      <path clip-path="url(#p5a618939b2)" d="M 56.12 237.843411 
L 399.984 237.843411 
" style="fill:none;stroke:#b0b0b0;stroke-linecap:square;stroke-width:0.8;"/>
     </g>
     <g id="line2d_14">
      <g>
       <use style="stroke:#000000;stroke-width:0.8;" x="56.12" xlink:href="#m3cdf0b042f" y="237.843411"/>
      </g>
     </g>
     <g id="text_8">
      <!-- 0.2 -->
      <g transform="translate(23.675 243.922161)scale(0.16 -0.16)">
       <use xlink:href="#DejaVuSans-30"/>
       <use x="63.623047" xlink:href="#DejaVuSans-2e"/>
       <use x="95.410156" xlink:href="#DejaVuSans-32"/>
      </g>
     </g>
    </g>
    <g id="ytick_3">
     <g id="line2d_15">
      <path clip-path="url(#p5a618939b2)" d="M 56.12 180.806823 
L 399.984 180.806823 
" style="fill:none;stroke:#b0b0b0;stroke-linecap:square;stroke-width:0.8;"/>
     </g>
     <g id="line2d_16">
      <g>
       <use style="stroke:#000000;stroke-width:0.8;" x="56.12" xlink:href="#m3cdf0b042f" y="180.806823"/>
      </g>
     </g>
     <g id="text_9">
      <!-- 0.4 -->
      <g transform="translate(23.675 186.885573)scale(0.16 -0.16)">
       <use xlink:href="#DejaVuSans-30"/>
       <use x="63.623047" xlink:href="#DejaVuSans-2e"/>
       <use x="95.410156" xlink:href="#DejaVuSans-34"/>
      </g>
     </g>
    </g>
    <g id="ytick_4">
     <g id="line2d_17">
      <path clip-path="url(#p5a618939b2)" d="M 56.12 123.770234 
L 399.984 123.770234 
" style="fill:none;stroke:#b0b0b0;stroke-linecap:square;stroke-width:0.8;"/>
     </g>
     <g id="line2d_18">
      <g>
       <use style="stroke:#000000;stroke-width:0.8;" x="56.12" xlink:href="#m3cdf0b042f" y="123.770234"/>
      </g>
     </g>
     <g id="text_10">
      <!-- 0.6 -->
      <g transform="translate(23.675 129.848984)scale(0.16 -0.16)">
       <use xlink:href="#DejaVuSans-30"/>
       <use x="63.623047" xlink:href="#DejaVuSans-2e"/>
       <use x="95.410156" xlink:href="#DejaVuSans-36"/>
      </g>
     </g>
    </g>
    <g id="ytick_5">
     <g id="line2d_19">
      <path clip-path="url(#p5a618939b2)" d="M 56.12 66.733646 
L 399.984 66.733646 
" style="fill:none;stroke:#b0b0b0;stroke-linecap:square;stroke-width:0.8;"/>
     </g>
     <g id="line2d_20">
      <g>
       <use style="stroke:#000000;stroke-width:0.8;" x="56.12" xlink:href="#m3cdf0b042f" y="66.733646"/>
      </g>
     </g>
     <g id="text_11">
      <!-- 0.8 -->
      <g transform="translate(23.675 72.812396)scale(0.16 -0.16)">
       <use xlink:href="#DejaVuSans-30"/>
       <use x="63.623047" xlink:href="#DejaVuSans-2e"/>
       <use x="95.410156" xlink:href="#DejaVuSans-38"/>
      </g>
     </g>
    </g>
    <g id="ytick_6">
     <g id="line2d_21">
      <path clip-path="url(#p5a618939b2)" d="M 56.12 9.697057 
L 399.984 9.697057 
" style="fill:none;stroke:#b0b0b0;stroke-linecap:square;stroke-width:0.8;"/>
     </g>
     <g id="line2d_22">
      <g>
       <use style="stroke:#000000;stroke-width:0.8;" x="56.12" xlink:href="#m3cdf0b042f" y="9.697057"/>
      </g>
     </g>
     <g id="text_12">
      <!-- 1.0 -->
      <g transform="translate(23.675 15.775807)scale(0.16 -0.16)">
       <use xlink:href="#DejaVuSans-31"/>
       <use x="63.623047" xlink:href="#DejaVuSans-2e"/>
       <use x="95.410156" xlink:href="#DejaVuSans-30"/>
      </g>
     </g>
    </g>
    <g id="text_13">
     <!-- Fraction of function,target pairs -->
     <defs>
      <path d="M 9.8125 72.90625 
L 51.703125 72.90625 
L 51.703125 64.59375 
L 19.671875 64.59375 
L 19.671875 43.109375 
L 48.578125 43.109375 
L 48.578125 34.8125 
L 19.671875 34.8125 
L 19.671875 0 
L 9.8125 0 
z
" id="DejaVuSans-46"/>
      <path d="M 41.109375 46.296875 
Q 39.59375 47.171875 37.8125 47.578125 
Q 36.03125 48 33.890625 48 
Q 26.265625 48 22.1875 43.046875 
Q 18.109375 38.09375 18.109375 28.8125 
L 18.109375 0 
L 9.078125 0 
L 9.078125 54.6875 
L 18.109375 54.6875 
L 18.109375 46.1875 
Q 20.953125 51.171875 25.484375 53.578125 
Q 30.03125 56 36.53125 56 
Q 37.453125 56 38.578125 55.875 
Q 39.703125 55.765625 41.0625 55.515625 
z
" id="DejaVuSans-72"/>
      <path d="M 48.78125 52.59375 
L 48.78125 44.1875 
Q 44.96875 46.296875 41.140625 47.34375 
Q 37.3125 48.390625 33.40625 48.390625 
Q 24.65625 48.390625 19.8125 42.84375 
Q 14.984375 37.3125 14.984375 27.296875 
Q 14.984375 17.28125 19.8125 11.734375 
Q 24.65625 6.203125 33.40625 6.203125 
Q 37.3125 6.203125 41.140625 7.25 
Q 44.96875 8.296875 48.78125 10.40625 
L 48.78125 2.09375 
Q 45.015625 0.34375 40.984375 -0.53125 
Q 36.96875 -1.421875 32.421875 -1.421875 
Q 20.0625 -1.421875 12.78125 6.34375 
Q 5.515625 14.109375 5.515625 27.296875 
Q 5.515625 40.671875 12.859375 48.328125 
Q 20.21875 56 33.015625 56 
Q 37.15625 56 41.109375 55.140625 
Q 45.0625 54.296875 48.78125 52.59375 
z
" id="DejaVuSans-63"/>
      <path d="M 18.3125 70.21875 
L 18.3125 54.6875 
L 36.8125 54.6875 
L 36.8125 47.703125 
L 18.3125 47.703125 
L 18.3125 18.015625 
Q 18.3125 11.328125 20.140625 9.421875 
Q 21.96875 7.515625 27.59375 7.515625 
L 36.8125 7.515625 
L 36.8125 0 
L 27.59375 0 
Q 17.1875 0 13.234375 3.875 
Q 9.28125 7.765625 9.28125 18.015625 
L 9.28125 47.703125 
L 2.6875 47.703125 
L 2.6875 54.6875 
L 9.28125 54.6875 
L 9.28125 70.21875 
z
" id="DejaVuSans-74"/>
      <path d="M 8.5 21.578125 
L 8.5 54.6875 
L 17.484375 54.6875 
L 17.484375 21.921875 
Q 17.484375 14.15625 20.5 10.265625 
Q 23.53125 6.390625 29.59375 6.390625 
Q 36.859375 6.390625 41.078125 11.03125 
Q 45.3125 15.671875 45.3125 23.6875 
L 45.3125 54.6875 
L 54.296875 54.6875 
L 54.296875 0 
L 45.3125 0 
L 45.3125 8.40625 
Q 42.046875 3.421875 37.71875 1 
Q 33.40625 -1.421875 27.6875 -1.421875 
Q 18.265625 -1.421875 13.375 4.4375 
Q 8.5 10.296875 8.5 21.578125 
z
M 31.109375 56 
z
" id="DejaVuSans-75"/>
      <path d="M 11.71875 12.40625 
L 22.015625 12.40625 
L 22.015625 4 
L 14.015625 -11.625 
L 7.71875 -11.625 
L 11.71875 4 
z
" id="DejaVuSans-2c"/>
      <path d="M 18.109375 8.203125 
L 18.109375 -20.796875 
L 9.078125 -20.796875 
L 9.078125 54.6875 
L 18.109375 54.6875 
L 18.109375 46.390625 
Q 20.953125 51.265625 25.265625 53.625 
Q 29.59375 56 35.59375 56 
Q 45.5625 56 51.78125 48.09375 
Q 58.015625 40.1875 58.015625 27.296875 
Q 58.015625 14.40625 51.78125 6.484375 
Q 45.5625 -1.421875 35.59375 -1.421875 
Q 29.59375 -1.421875 25.265625 0.953125 
Q 20.953125 3.328125 18.109375 8.203125 
z
M 48.6875 27.296875 
Q 48.6875 37.203125 44.609375 42.84375 
Q 40.53125 48.484375 33.40625 48.484375 
Q 26.265625 48.484375 22.1875 42.84375 
Q 18.109375 37.203125 18.109375 27.296875 
Q 18.109375 17.390625 22.1875 11.75 
Q 26.265625 6.109375 33.40625 6.109375 
Q 40.53125 6.109375 44.609375 11.75 
Q 48.6875 17.390625 48.6875 27.296875 
z
" id="DejaVuSans-70"/>
     </defs>
     <g transform="translate(16.139531 286.001989)rotate(-90)scale(0.17 -0.17)">
      <use xlink:href="#DejaVuSans-46"/>
      <use x="57.410156" xlink:href="#DejaVuSans-72"/>
      <use x="98.523438" xlink:href="#DejaVuSans-61"/>
      <use x="159.802734" xlink:href="#DejaVuSans-63"/>
      <use x="214.783203" xlink:href="#DejaVuSans-74"/>
      <use x="253.992188" xlink:href="#DejaVuSans-69"/>
      <use x="281.775391" xlink:href="#DejaVuSans-6f"/>
      <use x="342.957031" xlink:href="#DejaVuSans-6e"/>
      <use x="406.335938" xlink:href="#DejaVuSans-20"/>
      <use x="438.123047" xlink:href="#DejaVuSans-6f"/>
      <use x="499.304688" xlink:href="#DejaVuSans-66"/>
      <use x="534.509766" xlink:href="#DejaVuSans-20"/>
      <use x="566.296875" xlink:href="#DejaVuSans-66"/>
      <use x="601.501953" xlink:href="#DejaVuSans-75"/>
      <use x="664.880859" xlink:href="#DejaVuSans-6e"/>
      <use x="728.259766" xlink:href="#DejaVuSans-63"/>
      <use x="783.240234" xlink:href="#DejaVuSans-74"/>
      <use x="822.449219" xlink:href="#DejaVuSans-69"/>
      <use x="850.232422" xlink:href="#DejaVuSans-6f"/>
      <use x="911.414062" xlink:href="#DejaVuSans-6e"/>
      <use x="974.792969" xlink:href="#DejaVuSans-2c"/>
      <use x="1006.580078" xlink:href="#DejaVuSans-74"/>
      <use x="1045.789062" xlink:href="#DejaVuSans-61"/>
      <use x="1107.068359" xlink:href="#DejaVuSans-72"/>
      <use x="1148.166016" xlink:href="#DejaVuSans-67"/>
      <use x="1211.642578" xlink:href="#DejaVuSans-65"/>
      <use x="1273.166016" xlink:href="#DejaVuSans-74"/>
      <use x="1312.375" xlink:href="#DejaVuSans-20"/>
      <use x="1344.162109" xlink:href="#DejaVuSans-70"/>
      <use x="1407.638672" xlink:href="#DejaVuSans-61"/>
      <use x="1468.917969" xlink:href="#DejaVuSans-69"/>
      <use x="1496.701172" xlink:href="#DejaVuSans-72"/>
      <use x="1537.814453" xlink:href="#DejaVuSans-73"/>
     </g>
    </g>
   </g>
   <g id="line2d_23">
    <defs>
     <path d="M 0 1.5 
C 0.397805 1.5 0.77937 1.341951 1.06066 1.06066 
C 1.341951 0.77937 1.5 0.397805 1.5 0 
C 1.5 -0.397805 1.341951 -0.77937 1.06066 -1.06066 
C 0.77937 -1.341951 0.397805 -1.5 0 -1.5 
C -0.397805 -1.5 -0.77937 -1.341951 -1.06066 -1.06066 
C -1.341951 -0.77937 -1.5 -0.397805 -1.5 0 
C -1.5 0.397805 -1.341951 0.77937 -1.06066 1.06066 
C -0.77937 1.341951 -0.397805 1.5 0 1.5 
z
" id="ma776e02451" style="stroke:#000080;"/>
    </defs>
    <g>
     <use style="fill:#000080;stroke:#000080;" x="314.699435" xlink:href="#ma776e02451" y="9.697057"/>
     <use style="fill:#000080;stroke:#000080;" x="314.699435" xlink:href="#ma776e02451" y="9.697057"/>
    </g>
   </g>
   <g id="line2d_24">
    <path d="M 49.144027 294.88 
L 49.144027 274.190257 
L 61.069532 274.190257 
L 61.069532 269.157617 
L 68.045504 269.157617 
L 68.045504 267.48007 
L 72.995036 267.48007 
L 72.995036 266.361706 
L 76.834191 266.361706 
L 76.834191 265.243341 
L 79.971009 265.243341 
L 79.971009 264.684159 
L 82.623151 264.684159 
L 82.623151 260.210701 
L 86.946982 260.210701 
L 86.946982 259.651519 
L 88.759695 259.651519 
L 88.759695 259.092337 
L 90.399494 259.092337 
L 90.399494 257.973972 
L 93.273637 257.973972 
L 93.273637 256.855608 
L 102.324999 256.855608 
L 102.324999 256.296425 
L 104.524355 256.296425 
L 104.524355 255.737243 
L 111.72821 255.737243 
L 111.72821 255.178061 
L 113.035537 255.178061 
L 113.035537 254.618879 
L 114.637146 254.618879 
L 114.637146 252.38215 
L 115.385301 252.38215 
L 115.385301 250.704603 
L 117.452368 250.704603 
L 117.452368 249.027056 
L 121.226476 249.027056 
L 121.226476 248.467874 
L 130.92891 248.467874 
L 130.92891 247.908692 
L 134.648999 247.908692 
L 134.648999 245.671963 
L 137.805719 245.671963 
L 137.805719 244.553598 
L 140.386678 244.553598 
L 140.386678 243.994416 
L 141.384341 243.994416 
L 141.384341 242.316869 
L 150.31781 242.316869 
L 150.31781 241.757687 
L 151.524035 241.757687 
L 151.524035 240.639323 
L 153.147534 240.639323 
L 153.147534 238.961776 
L 161.531964 238.961776 
L 161.531964 238.402594 
L 170.425513 238.402594 
L 170.425513 237.843411 
L 192.660975 237.843411 
L 192.660975 236.725047 
L 194.365898 236.725047 
L 194.365898 235.606682 
L 196.109385 235.606682 
L 196.109385 233.929136 
L 198.555074 233.929136 
L 198.555074 233.369954 
L 199.108038 233.369954 
L 199.108038 232.251589 
L 205.362318 232.251589 
L 205.362318 231.133225 
L 205.748045 231.133225 
L 205.748045 230.574042 
L 208.10523 230.574042 
L 208.10523 228.896496 
L 209.305831 228.896496 
L 209.305831 228.337313 
L 209.65912 228.337313 
L 209.65912 227.778131 
L 212.240656 227.778131 
L 212.240656 227.218949 
L 213.154336 227.218949 
L 213.212811 226.100584 
L 213.482692 226.100584 
L 213.482692 224.98222 
L 213.623946 224.98222 
L 213.623946 223.863855 
L 213.760441 223.863855 
L 213.760441 223.304673 
L 214.387731 223.304673 
L 214.387731 221.627126 
L 214.895239 221.627126 
L 214.923374 220.508762 
L 215.196695 220.508762 
L 215.196695 219.94958 
L 215.586264 219.94958 
L 215.586264 218.831215 
L 215.757447 218.831215 
L 215.757447 218.272033 
L 216.158748 218.272033 
L 216.158748 217.712851 
L 216.38747 217.712851 
L 216.38747 216.594486 
L 216.969296 216.594486 
L 216.989253 214.91694 
L 217.278018 214.91694 
L 217.278018 214.357757 
L 217.417686 214.357757 
L 217.501139 212.680211 
L 217.787221 212.680211 
L 217.787221 211.561846 
L 218.039564 211.561846 
L 218.039564 210.443482 
L 218.370366 210.443482 
L 218.370366 209.884299 
L 218.559829 209.884299 
L 218.559829 209.325117 
L 218.736421 209.325117 
L 218.838826 208.206753 
L 218.956643 208.206753 
L 218.956643 207.64757 
L 219.341032 207.64757 
L 219.352337 205.970024 
L 219.539945 205.970024 
L 219.544244 204.292477 
L 219.699139 204.292477 
L 219.699139 203.733295 
L 219.911658 203.733295 
L 220.011503 202.055748 
L 220.077469 202.055748 
L 220.077469 201.496566 
L 220.206991 201.496566 
L 220.206991 200.937384 
L 220.426437 200.937384 
L 220.426437 200.378201 
L 220.569574 200.378201 
L 220.569574 199.259837 
L 220.849935 199.259837 
L 220.940534 197.023108 
L 220.999878 197.023108 
L 221.000668 195.345561 
L 221.158703 195.345561 
L 221.158703 194.786379 
L 221.566291 194.786379 
L 221.566291 194.227197 
L 221.679799 194.227197 
L 221.679799 193.668014 
L 221.85055 193.668014 
L 221.85055 193.108832 
L 222.053833 193.108832 
L 222.053833 192.54965 
L 222.168609 192.54965 
L 222.205471 188.635374 
L 222.298014 188.635374 
L 222.298014 187.51701 
L 222.544555 187.51701 
L 222.5799 185.280281 
L 222.686219 185.280281 
L 222.686219 184.721099 
L 223.011129 184.721099 
L 223.032199 182.48437 
L 223.172009 182.48437 
L 223.172009 181.925187 
L 223.330708 181.925187 
L 223.330708 181.366005 
L 223.652584 181.366005 
L 223.706662 179.688458 
L 223.921957 179.688458 
L 223.949262 178.010912 
L 224.065326 178.010912 
L 224.098343 175.774183 
L 224.412778 175.774183 
L 224.489691 174.655818 
L 224.572681 174.655818 
L 224.572681 172.978271 
L 224.862241 172.978271 
L 224.862241 172.419089 
L 225.053649 172.419089 
L 225.055521 171.300725 
L 225.375764 171.300725 
L 225.375764 169.063996 
L 225.693764 169.063996 
L 225.693764 166.827267 
L 225.824946 166.827267 
L 225.824946 166.268085 
L 225.951582 166.268085 
L 225.951582 165.14972 
L 226.212013 165.14972 
L 226.212013 164.590538 
L 226.484648 164.590538 
L 226.540263 163.472173 
L 226.601974 163.472173 
L 226.601974 161.794627 
L 226.732664 161.794627 
L 226.801021 160.11708 
L 226.940842 160.11708 
L 226.940842 159.557898 
L 227.066216 159.557898 
L 227.087855 158.439533 
L 227.187375 158.439533 
L 227.188478 156.761987 
L 227.585726 156.761987 
L 227.585726 156.202804 
L 227.720406 156.202804 
L 227.720406 155.643622 
L 227.959255 155.643622 
L 228.048107 154.525258 
L 228.167776 154.525258 
L 228.254524 150.610982 
L 228.363506 150.610982 
L 228.425693 149.492617 
L 228.641846 149.492617 
L 228.711616 148.374253 
L 229.201561 148.374253 
L 229.201561 147.255888 
L 229.33346 147.255888 
L 229.435353 143.341613 
L 229.473529 143.341613 
L 229.572199 140.545702 
L 229.643083 140.545702 
L 229.643083 139.986519 
L 230.188778 139.986519 
L 230.188778 139.427337 
L 230.379876 139.427337 
L 230.423781 138.308973 
L 230.581099 138.308973 
L 230.581099 137.74979 
L 230.932775 137.74979 
L 231.016825 134.953879 
L 231.065738 134.953879 
L 231.139505 133.276332 
L 231.200737 133.276332 
L 231.200737 132.71715 
L 231.334685 132.71715 
L 231.334685 132.157968 
L 231.465879 132.157968 
L 231.465879 131.598786 
L 231.712594 131.598786 
L 231.739696 130.480421 
L 231.98588 130.480421 
L 231.98588 129.921239 
L 232.351533 129.921239 
L 232.428538 127.68451 
L 232.56338 127.68451 
L 232.56338 127.125328 
L 232.687566 127.125328 
L 232.752716 126.006963 
L 233.013232 126.006963 
L 233.061496 124.329417 
L 233.614033 124.329417 
L 233.614033 123.770234 
L 234.007918 123.770234 
L 234.007918 123.211052 
L 234.91589 123.211052 
L 234.91589 122.65187 
L 235.056387 122.65187 
L 235.056387 122.092688 
L 235.31131 122.092688 
L 235.31131 121.533505 
L 235.597036 121.533505 
L 235.597036 120.974323 
L 236.483739 120.974323 
L 236.483739 120.415141 
L 236.851366 120.415141 
L 236.939165 118.737594 
L 237.068788 118.737594 
L 237.068788 117.61923 
L 237.363632 117.61923 
L 237.363632 117.060047 
L 237.899877 117.060047 
L 237.899877 116.500865 
L 275.447976 116.500865 
L 275.550935 110.909043 
L 275.585383 110.909043 
L 275.678577 108.672314 
L 275.717335 108.672314 
L 275.817558 103.080491 
L 275.85291 103.080491 
L 275.931767 98.047851 
L 275.982316 98.047851 
L 276.087986 90.778482 
L 276.094734 90.778482 
L 276.204379 84.627477 
L 276.213282 84.627477 
L 276.321035 79.594837 
L 276.354737 79.594837 
L 276.459188 74.562197 
L 276.552565 74.562197 
L 276.641486 71.766286 
L 276.750836 71.766286 
L 276.805945 70.647921 
L 287.160207 70.647921 
L 287.270958 62.81937 
L 287.280988 62.81937 
L 287.39065 57.227548 
L 287.404323 57.227548 
L 287.51413 46.603085 
L 287.522713 46.603085 
L 287.580781 43.247992 
L 287.659529 43.247992 
L 287.767399 40.45208 
L 294.055972 40.45208 
L 294.159158 37.096987 
L 294.179337 37.096987 
L 294.260174 33.182711 
L 294.296448 33.182711 
L 294.387936 28.709253 
L 294.439134 28.709253 
L 294.439134 28.150071 
L 298.919047 28.150071 
L 299.028094 23.117431 
L 299.038172 23.117431 
L 299.136193 20.32152 
L 299.234505 20.32152 
L 299.234505 19.762337 
L 302.779446 19.762337 
L 302.810621 18.084791 
L 302.904521 18.084791 
L 302.943697 15.28888 
L 305.905364 15.28888 
L 305.997614 12.492968 
L 306.040024 12.492968 
L 306.040024 11.933786 
L 308.523911 11.933786 
L 308.533893 10.815422 
L 314.672377 10.815422 
L 314.699435 9.697057 
L 333.429677 9.697057 
L 333.429677 9.697057 
" style="fill:none;stroke:#000080;stroke-linecap:square;stroke-width:1.5;"/>
   </g>
   <g id="line2d_25">
    <defs>
     <path d="M 0 6 
C 1.591219 6 3.117479 5.367802 4.242641 4.242641 
C 5.367802 3.117479 6 1.591219 6 0 
C 6 -1.591219 5.367802 -3.117479 4.242641 -4.242641 
C 3.117479 -5.367802 1.591219 -6 0 -6 
C -1.591219 -6 -3.117479 -5.367802 -4.242641 -4.242641 
C -5.367802 -3.117479 -6 -1.591219 -6 0 
C -6 1.591219 -5.367802 3.117479 -4.242641 4.242641 
C -3.117479 5.367802 -1.591219 6 0 6 
z
" id="m444334d7eb" style="stroke:#000080;stroke-width:1.5;"/>
    </defs>
    <g>
     <use style="fill-opacity:0;stroke:#000080;stroke-width:1.5;" x="104.524355" xlink:href="#m444334d7eb" y="255.737243"/>
     <use style="fill-opacity:0;stroke:#000080;stroke-width:1.5;" x="212.240656" xlink:href="#m444334d7eb" y="227.218949"/>
     <use style="fill-opacity:0;stroke:#000080;stroke-width:1.5;" x="232.687566" xlink:href="#m444334d7eb" y="127.125328"/>
     <use style="fill-opacity:0;stroke:#000080;stroke-width:1.5;" x="287.481644" xlink:href="#m444334d7eb" y="51.076543"/>
     <use style="fill-opacity:0;stroke:#000080;stroke-width:1.5;" x="314.699435" xlink:href="#m444334d7eb" y="9.697057"/>
     <use style="fill-opacity:0;stroke:#000080;stroke-width:1.5;" x="333.429677" xlink:href="#m444334d7eb" y="9.697057"/>
    </g>
   </g>
   <g id="line2d_26">
    <path style="fill:none;stroke:#000080;stroke-linecap:square;stroke-width:1.5;"/>
    <g/>
   </g>
   <g id="line2d_27">
    <path clip-path="url(#p5a618939b2)" d="M 274.912549 116.500865 
" style="fill:none;stroke:#000080;stroke-linecap:square;stroke-width:1.5;"/>
    <defs>
     <path d="M -12 12 
L 12 -12 
M -12 -12 
L 12 12 
" id="m87b720b259" style="stroke:#000080;stroke-width:3;"/>
    </defs>
    <g clip-path="url(#p5a618939b2)">
     <use style="fill:#000080;stroke:#000080;stroke-width:3;" x="274.912549" xlink:href="#m87b720b259" y="116.500865"/>
    </g>
   </g>
   <g id="line2d_28">
    <defs>
     <path d="M 0 1.5 
C 0.397805 1.5 0.77937 1.341951 1.06066 1.06066 
C 1.341951 0.77937 1.5 0.397805 1.5 0 
C 1.5 -0.397805 1.341951 -0.77937 1.06066 -1.06066 
C 0.77937 -1.341951 0.397805 -1.5 0 -1.5 
C -0.397805 -1.5 -0.77937 -1.341951 -1.06066 -1.06066 
C -1.341951 -0.77937 -1.5 -0.397805 -1.5 0 
C -1.5 0.397805 -1.341951 0.77937 -1.06066 1.06066 
C -0.77937 1.341951 -0.397805 1.5 0 1.5 
z
" id="m6b96b5b458" style="stroke:#ff00ff;"/>
    </defs>
    <g>
     <use style="fill:#ff00ff;stroke:#ff00ff;" x="327.297867" xlink:href="#m6b96b5b458" y="9.697057"/>
     <use style="fill:#ff00ff;stroke:#ff00ff;" x="327.297867" xlink:href="#m6b96b5b458" y="9.697057"/>
    </g>
   </g>
   <g id="line2d_29">
    <path d="M 49.144027 294.88 
L 49.144027 281.459626 
L 61.069532 281.459626 
L 61.069532 279.782079 
L 68.045504 279.782079 
L 68.045504 279.222897 
L 72.995036 279.222897 
L 72.995036 278.663715 
L 76.834191 278.663715 
L 76.834191 276.986168 
L 79.971009 276.986168 
L 79.971009 276.426986 
L 82.623151 276.426986 
L 82.623151 275.867804 
L 84.92054 275.867804 
L 84.92054 269.157617 
L 90.399494 269.157617 
L 90.399494 268.598435 
L 91.896513 268.598435 
L 91.896513 268.039252 
L 93.273637 268.039252 
L 93.273637 266.361706 
L 96.846045 266.361706 
L 96.846045 265.243341 
L 99.802705 265.243341 
L 99.802705 264.124977 
L 101.524628 264.124977 
L 101.524628 263.565795 
L 103.089785 263.565795 
L 103.089785 263.006612 
L 105.199142 263.006612 
L 105.199142 259.651519 
L 108.225317 259.651519 
L 108.225317 258.533154 
L 109.814588 258.533154 
L 109.814588 257.973972 
L 110.313314 257.973972 
L 110.313314 255.178061 
L 113.035537 255.178061 
L 113.035537 254.618879 
L 113.854971 254.618879 
L 113.854971 253.500514 
L 116.790561 253.500514 
L 116.790561 252.38215 
L 120.697054 252.38215 
L 120.697054 251.263785 
L 125.375637 251.263785 
L 125.375637 249.586238 
L 125.979378 249.586238 
L 125.979378 249.027056 
L 126.56265 249.027056 
L 126.56265 247.908692 
L 128.716065 247.908692 
L 128.716065 246.790327 
L 129.539422 246.790327 
L 129.539422 243.994416 
L 131.076592 243.994416 
L 131.076592 243.435234 
L 131.223017 243.435234 
L 131.223017 240.639323 
L 131.654961 240.639323 
L 131.654961 239.520958 
L 134.286778 239.520958 
L 134.286778 238.961776 
L 135.804122 238.961776 
L 135.804122 236.165865 
L 139.418374 236.165865 
L 139.418374 235.0475 
L 140.214628 235.0475 
L 140.214628 234.488318 
L 141.303377 234.488318 
L 141.303377 233.369954 
L 143.509224 233.369954 
L 143.509224 232.251589 
L 144.74851 232.251589 
L 144.74851 231.133225 
L 145.142532 231.133225 
L 145.142532 228.896496 
L 146.394347 228.896496 
L 146.394347 227.778131 
L 146.929256 227.778131 
L 146.929256 226.100584 
L 152.009956 226.100584 
L 152.009956 224.98222 
L 153.350185 224.98222 
L 153.350185 222.186309 
L 154.742799 222.186309 
L 154.742799 219.94958 
L 154.890799 219.94958 
L 154.890799 217.712851 
L 155.470386 217.712851 
L 155.470386 217.153669 
L 157.984582 217.153669 
L 157.984582 216.594486 
L 158.737321 216.594486 
L 158.737321 214.91694 
L 162.693915 214.91694 
L 162.693915 214.357757 
L 165.174662 214.357757 
L 165.174662 213.798575 
L 166.425055 213.798575 
L 166.425055 211.002664 
L 169.283246 211.002664 
L 169.331059 208.206753 
L 169.457916 208.206753 
L 169.457916 206.529206 
L 170.108989 206.529206 
L 170.108989 204.292477 
L 170.867822 204.292477 
L 170.867822 200.937384 
L 173.951186 200.937384 
L 173.951186 199.819019 
L 174.442958 199.819019 
L 174.442958 199.259837 
L 179.498584 199.259837 
L 179.498584 198.700655 
L 182.807876 198.700655 
L 182.807876 198.141472 
L 183.415127 198.141472 
L 183.415127 197.58229 
L 184.417239 197.58229 
L 184.417239 197.023108 
L 184.932608 197.023108 
L 184.932608 195.345561 
L 186.184197 195.345561 
L 186.202116 193.108832 
L 186.626658 193.108832 
L 186.638302 191.990468 
L 189.08131 191.990468 
L 189.08131 191.431285 
L 191.335722 191.431285 
L 191.335722 190.312921 
L 193.864658 190.312921 
L 193.864658 189.753739 
L 194.780581 189.753739 
L 194.780581 187.51701 
L 195.879623 187.51701 
L 195.879623 183.602734 
L 198.106713 183.602734 
L 198.106713 182.48437 
L 199.387707 182.48437 
L 199.387707 181.366005 
L 200.813841 181.366005 
L 200.813841 180.806823 
L 214.018375 180.806823 
L 214.018375 180.247641 
L 217.85184 180.247641 
L 217.871747 179.129276 
L 218.154578 179.129276 
L 218.154578 178.010912 
L 220.474553 178.010912 
L 220.474553 176.892547 
L 221.87384 176.892547 
L 221.87384 176.333365 
L 223.880583 176.333365 
L 223.880583 175.215 
L 224.971071 175.215 
L 224.971071 174.655818 
L 225.342043 174.655818 
L 225.342043 174.096636 
L 225.953951 174.096636 
L 225.953951 172.419089 
L 227.13271 172.419089 
L 227.13271 171.859907 
L 227.386886 171.859907 
L 227.386886 171.300725 
L 227.783359 171.300725 
L 227.783359 170.741543 
L 228.534109 170.741543 
L 228.534109 169.623178 
L 228.826272 169.623178 
L 228.930208 168.504814 
L 229.275451 168.504814 
L 229.275451 167.945631 
L 229.991787 167.945631 
L 229.991787 167.386449 
L 230.324836 167.386449 
L 230.324836 166.268085 
L 230.480327 166.268085 
L 230.577025 164.031356 
L 231.512676 164.031356 
L 231.512676 163.472173 
L 231.740542 163.472173 
L 231.740542 161.794627 
L 232.290582 161.794627 
L 232.290582 161.235444 
L 274.912824 161.235444 
L 275.013965 135.513061 
L 275.029385 135.513061 
L 275.124645 129.362057 
L 275.208764 129.362057 
L 275.302736 128.243692 
L 275.361468 128.243692 
L 275.404927 127.125328 
L 275.525652 127.125328 
L 275.569526 124.888599 
L 275.683546 124.888599 
L 275.783506 120.415141 
L 275.831622 120.415141 
L 275.932577 117.060047 
L 275.961609 117.060047 
L 275.989816 114.264136 
L 276.17294 114.264136 
L 276.257763 112.027407 
L 276.338148 112.027407 
L 276.338148 111.468225 
L 286.838208 111.468225 
L 286.944428 90.778482 
L 286.980281 90.778482 
L 286.980281 90.2193 
L 287.147691 90.2193 
L 287.247319 87.423389 
L 287.279043 87.423389 
L 287.385117 85.18666 
L 287.409117 85.18666 
L 287.479788 81.831566 
L 287.54563 81.831566 
L 287.54563 81.272384 
L 293.81538 81.272384 
L 293.891138 65.056099 
L 293.964971 65.056099 
L 294.054649 62.81937 
L 294.109125 62.81937 
L 294.203316 61.141823 
L 294.230274 61.141823 
L 294.268242 59.464277 
L 298.764573 59.464277 
L 298.85339 49.958178 
L 298.876891 49.958178 
L 298.946578 48.280632 
L 299.003044 48.280632 
L 299.10985 46.043903 
L 302.604536 46.043903 
L 302.702322 39.333716 
L 302.767589 39.333716 
L 302.849225 35.978622 
L 305.747638 35.978622 
L 305.845079 30.3868 
L 305.877037 30.3868 
L 305.941994 28.709253 
L 308.392253 28.709253 
L 308.476235 24.794978 
L 310.692989 24.794978 
L 310.753893 21.439884 
L 310.860801 21.439884 
L 310.860801 20.880702 
L 312.7392 20.880702 
L 312.82621 17.525609 
L 314.541577 17.525609 
L 314.649035 16.407244 
L 316.174819 16.407244 
L 316.280505 13.611333 
L 319.045902 13.611333 
L 319.156114 11.933786 
L 320.325549 11.933786 
L 320.332414 10.815422 
L 321.524097 10.815422 
L 321.524097 10.256239 
L 327.297867 10.256239 
L 327.297867 9.697057 
L 333.429677 9.697057 
L 333.429677 9.697057 
" style="fill:none;stroke:#ff00ff;stroke-linecap:square;stroke-width:1.5;"/>
   </g>
   <g id="line2d_30">
    <defs>
     <path d="M -0 8.485281 
L 5.091169 0 
L 0 -8.485281 
L -5.091169 -0 
z
" id="maf89eb2003" style="stroke:#ff00ff;stroke-linejoin:miter;stroke-width:1.5;"/>
    </defs>
    <g>
     <use style="fill-opacity:0;stroke:#ff00ff;stroke-linejoin:miter;stroke-width:1.5;" x="143.509224" xlink:href="#maf89eb2003" y="233.369954"/>
     <use style="fill-opacity:0;stroke:#ff00ff;stroke-linejoin:miter;stroke-width:1.5;" x="200.813841" xlink:href="#maf89eb2003" y="181.366005"/>
     <use style="fill-opacity:0;stroke:#ff00ff;stroke-linejoin:miter;stroke-width:1.5;" x="275.932577" xlink:href="#maf89eb2003" y="117.060047"/>
     <use style="fill-opacity:0;stroke:#ff00ff;stroke-linejoin:miter;stroke-width:1.5;" x="316.280505" xlink:href="#maf89eb2003" y="14.170515"/>
     <use style="fill-opacity:0;stroke:#ff00ff;stroke-linejoin:miter;stroke-width:1.5;" x="327.297867" xlink:href="#maf89eb2003" y="9.697057"/>
     <use style="fill-opacity:0;stroke:#ff00ff;stroke-linejoin:miter;stroke-width:1.5;" x="333.429677" xlink:href="#maf89eb2003" y="9.697057"/>
    </g>
   </g>
   <g id="line2d_31">
    <path style="fill:none;stroke:#ff00ff;stroke-linecap:square;stroke-width:1.5;"/>
    <g/>
   </g>
   <g id="line2d_32">
    <path clip-path="url(#p5a618939b2)" d="M 274.912549 161.235444 
" style="fill:none;stroke:#ff00ff;stroke-linecap:square;stroke-width:1.5;"/>
    <defs>
     <path d="M -12 12 
L 12 -12 
M -12 -12 
L 12 12 
" id="m74932f8fd6" style="stroke:#ff00ff;stroke-width:3;"/>
    </defs>
    <g clip-path="url(#p5a618939b2)">
     <use style="fill:#ff00ff;stroke:#ff00ff;stroke-width:3;" x="274.912549" xlink:href="#m74932f8fd6" y="161.235444"/>
    </g>
   </g>
   <g id="line2d_33">
    <defs>
     <path d="M 0 1.5 
C 0.397805 1.5 0.77937 1.341951 1.06066 1.06066 
C 1.341951 0.77937 1.5 0.397805 1.5 0 
C 1.5 -0.397805 1.341951 -0.77937 1.06066 -1.06066 
C 0.77937 -1.341951 0.397805 -1.5 0 -1.5 
C -0.397805 -1.5 -0.77937 -1.341951 -1.06066 -1.06066 
C -1.341951 -0.77937 -1.5 -0.397805 -1.5 0 
C -1.5 0.397805 -1.341951 0.77937 -1.06066 1.06066 
C -0.77937 1.341951 -0.397805 1.5 0 1.5 
z
" id="m109eb1746c" style="stroke:#ffa500;"/>
    </defs>
    <g>
     <use style="fill:#ffa500;stroke:#ffa500;" x="322.624321" xlink:href="#m109eb1746c" y="9.697057"/>
     <use style="fill:#ffa500;stroke:#ffa500;" x="322.624321" xlink:href="#m109eb1746c" y="9.697057"/>
    </g>
   </g>
   <g id="line2d_34">
    <path d="M 49.144027 294.88 
L 49.144027 280.341262 
L 61.069532 280.341262 
L 61.069532 275.308622 
L 68.045504 275.308622 
L 68.045504 272.51271 
L 72.995036 272.51271 
L 72.995036 267.48007 
L 76.834191 267.48007 
L 76.834191 265.802523 
L 79.971009 265.802523 
L 79.971009 265.243341 
L 82.623151 265.243341 
L 82.623151 264.684159 
L 91.896513 264.684159 
L 91.896513 263.565795 
L 95.735668 263.565795 
L 95.735668 261.329066 
L 97.889083 261.329066 
L 97.889083 259.092337 
L 103.822018 259.092337 
L 103.822018 257.973972 
L 104.524355 257.973972 
L 104.524355 257.41479 
L 105.199142 257.41479 
L 105.199142 256.296425 
L 108.225317 256.296425 
L 108.225317 254.059696 
L 109.814588 254.059696 
L 109.814588 253.500514 
L 113.450132 253.500514 
L 113.450132 252.941332 
L 117.773963 252.941332 
L 117.773963 251.263785 
L 121.226476 251.263785 
L 121.226476 247.908692 
L 122.238819 247.908692 
L 122.238819 247.34951 
L 123.425832 247.34951 
L 123.425832 246.790327 
L 124.100619 246.790327 
L 124.100619 246.231145 
L 124.319792 246.231145 
L 124.319792 244.553598 
L 128.883919 244.553598 
L 128.883919 243.435234 
L 131.076592 243.435234 
L 131.076592 241.757687 
L 132.214518 241.757687 
L 132.214518 241.198505 
L 134.04099 241.198505 
L 134.04099 238.961776 
L 135.804122 238.961776 
L 135.804122 237.843411 
L 139.23631 237.843411 
L 139.327583 233.929136 
L 141.140296 233.929136 
L 141.140296 232.810771 
L 143.075465 232.810771 
L 143.075465 227.778131 
L 143.293711 227.778131 
L 143.365849 226.659767 
L 145.717145 226.659767 
L 145.717145 226.100584 
L 146.574504 226.100584 
L 146.574504 224.98222 
L 147.785396 224.98222 
L 147.785396 223.863855 
L 149.631485 223.863855 
L 149.631485 223.304673 
L 152.818244 223.304673 
L 152.818244 221.627126 
L 156.640768 221.627126 
L 156.640768 221.067944 
L 157.674016 221.067944 
L 157.674016 219.94958 
L 160.711308 219.94958 
L 160.711308 219.390397 
L 161.406289 219.390397 
L 161.406289 216.594486 
L 162.001329 216.594486 
L 162.001329 215.476122 
L 164.471481 215.476122 
L 164.471481 213.239393 
L 165.436109 213.239393 
L 165.436109 210.443482 
L 165.986083 210.443482 
L 165.986083 209.325117 
L 166.631104 209.325117 
L 166.631104 208.765935 
L 167.360233 208.765935 
L 167.360233 207.64757 
L 171.027194 207.64757 
L 171.027194 204.851659 
L 171.299044 204.851659 
L 171.299044 203.733295 
L 174.300474 203.733295 
L 174.300474 202.055748 
L 175.430959 202.055748 
L 175.430959 200.378201 
L 175.553335 200.378201 
L 175.553335 198.141472 
L 176.906565 198.141472 
L 176.906565 197.58229 
L 180.189635 197.58229 
L 180.189635 197.023108 
L 181.26452 197.023108 
L 181.26452 196.463926 
L 181.391318 196.463926 
L 181.391318 195.904743 
L 181.532858 195.904743 
L 181.532858 195.345561 
L 184.673591 195.345561 
L 184.673591 194.786379 
L 185.919224 194.786379 
L 185.919224 191.990468 
L 186.327026 191.990468 
L 186.380283 185.280281 
L 187.35088 185.280281 
L 187.35088 183.602734 
L 187.808234 183.602734 
L 187.808234 182.48437 
L 188.438206 182.48437 
L 188.438206 181.925187 
L 188.826946 181.925187 
L 188.826946 181.366005 
L 189.126698 181.366005 
L 189.126698 180.806823 
L 189.257153 180.806823 
L 189.257153 176.333365 
L 190.318412 176.333365 
L 190.318412 173.537454 
L 191.979132 173.537454 
L 191.979132 172.978271 
L 194.009366 172.978271 
L 194.009366 167.945631 
L 194.149105 167.945631 
L 194.149105 162.912991 
L 195.157149 162.912991 
L 195.157149 162.353809 
L 195.859202 162.353809 
L 195.859202 161.794627 
L 196.540275 161.794627 
L 196.540275 160.676262 
L 196.774359 160.676262 
L 196.774359 160.11708 
L 196.899836 160.11708 
L 196.899836 159.557898 
L 197.377209 159.557898 
L 197.467393 156.761987 
L 197.835623 156.761987 
L 197.835623 155.08444 
L 198.193163 155.08444 
L 198.193163 152.847711 
L 198.682711 152.847711 
L 198.682711 151.729346 
L 199.256829 151.729346 
L 199.256829 151.170164 
L 199.84215 151.170164 
L 199.84215 150.610982 
L 200.685695 150.610982 
L 200.685695 149.492617 
L 274.916575 149.492617 
L 275.025113 118.178412 
L 275.030581 118.178412 
L 275.141156 100.28458 
L 286.842096 100.28458 
L 286.952736 68.970375 
L 293.816194 68.970375 
L 293.882172 49.958178 
L 298.765184 49.958178 
L 298.814692 38.774534 
L 302.610921 38.774534 
L 302.646481 32.064347 
L 305.748429 32.064347 
L 305.777844 25.35416 
L 308.397536 25.35416 
L 308.418918 19.762337 
L 310.700401 19.762337 
L 310.711964 16.966426 
L 312.729495 16.966426 
L 312.736699 14.729697 
L 314.538234 14.729697 
L 314.549383 12.492968 
L 317.669485 12.492968 
L 317.669485 11.933786 
L 319.050313 11.933786 
L 319.054164 10.815422 
L 320.323657 10.815422 
L 320.323657 10.256239 
L 322.624321 10.256239 
L 322.624321 9.697057 
L 333.429677 9.697057 
L 333.429677 9.697057 
" style="fill:none;stroke:#ffa500;stroke-linecap:square;stroke-width:1.5;"/>
   </g>
   <g id="line2d_35">
    <defs>
     <path d="M 0 -6 
L -1.347084 -1.854102 
L -5.706339 -1.854102 
L -2.179628 0.708204 
L -3.526712 4.854102 
L -0 2.291796 
L 3.526712 4.854102 
L 2.179628 0.708204 
L 5.706339 -1.854102 
L 1.347084 -1.854102 
z
" id="m90b4ac4caa" style="stroke:#ffa500;stroke-linejoin:bevel;stroke-width:1.5;"/>
    </defs>
    <g>
     <use style="fill-opacity:0;stroke:#ffa500;stroke-linejoin:bevel;stroke-width:1.5;" x="149.631485" xlink:href="#m90b4ac4caa" y="223.863855"/>
     <use style="fill-opacity:0;stroke:#ffa500;stroke-linejoin:bevel;stroke-width:1.5;" x="191.979132" xlink:href="#m90b4ac4caa" y="172.978271"/>
     <use style="fill-opacity:0;stroke:#ffa500;stroke-linejoin:bevel;stroke-width:1.5;" x="275.141156" xlink:href="#m90b4ac4caa" y="100.28458"/>
     <use style="fill-opacity:0;stroke:#ffa500;stroke-linejoin:bevel;stroke-width:1.5;" x="308.399246" xlink:href="#m90b4ac4caa" y="24.235795"/>
     <use style="fill-opacity:0;stroke:#ffa500;stroke-linejoin:bevel;stroke-width:1.5;" x="322.624321" xlink:href="#m90b4ac4caa" y="9.697057"/>
     <use style="fill-opacity:0;stroke:#ffa500;stroke-linejoin:bevel;stroke-width:1.5;" x="333.429677" xlink:href="#m90b4ac4caa" y="9.697057"/>
    </g>
   </g>
   <g id="line2d_36">
    <path style="fill:none;stroke:#ffa500;stroke-linecap:square;stroke-width:1.5;"/>
    <g/>
   </g>
   <g id="line2d_37">
    <path clip-path="url(#p5a618939b2)" d="M 274.912549 149.492617 
" style="fill:none;stroke:#ffa500;stroke-linecap:square;stroke-width:1.5;"/>
    <defs>
     <path d="M -12 12 
L 12 -12 
M -12 -12 
L 12 12 
" id="m00381a521d" style="stroke:#ffa500;stroke-width:3;"/>
    </defs>
    <g clip-path="url(#p5a618939b2)">
     <use style="fill:#ffa500;stroke:#ffa500;stroke-width:3;" x="274.912549" xlink:href="#m00381a521d" y="149.492617"/>
    </g>
   </g>
   <g id="line2d_38">
    <defs>
     <path d="M 0 1.5 
C 0.397805 1.5 0.77937 1.341951 1.06066 1.06066 
C 1.341951 0.77937 1.5 0.397805 1.5 0 
C 1.5 -0.397805 1.341951 -0.77937 1.06066 -1.06066 
C 0.77937 -1.341951 0.397805 -1.5 0 -1.5 
C -0.397805 -1.5 -0.77937 -1.341951 -1.06066 -1.06066 
C -1.341951 -0.77937 -1.5 -0.397805 -1.5 0 
C -1.5 0.397805 -1.341951 0.77937 -1.06066 1.06066 
C -0.77937 1.341951 -0.397805 1.5 0 1.5 
z
" id="m5a06c6de28" style="stroke:#6495ed;"/>
    </defs>
    <g>
     <use style="fill:#6495ed;stroke:#6495ed;" x="335.072604" xlink:href="#m5a06c6de28" y="216.594486"/>
     <use style="fill:#6495ed;stroke:#6495ed;" x="335.072604" xlink:href="#m5a06c6de28" y="216.594486"/>
    </g>
   </g>
   <g id="line2d_39">
    <path d="M 49.144027 294.88 
L 49.144027 290.406542 
L 68.045504 290.406542 
L 68.045504 288.728995 
L 76.834191 288.728995 
L 76.834191 284.81472 
L 79.971009 284.81472 
L 79.971009 283.696355 
L 82.623151 283.696355 
L 82.623151 276.426986 
L 84.92054 276.426986 
L 84.92054 275.867804 
L 88.759695 275.867804 
L 88.759695 274.749439 
L 90.399494 274.749439 
L 90.399494 271.953528 
L 91.896513 271.953528 
L 91.896513 266.361706 
L 93.273637 266.361706 
L 93.273637 264.124977 
L 95.735668 264.124977 
L 95.735668 262.44743 
L 96.846045 262.44743 
L 96.846045 260.210701 
L 99.802705 260.210701 
L 99.802705 258.533154 
L 100.6852 258.533154 
L 100.6852 257.973972 
L 106.47416 257.973972 
L 106.47416 256.296425 
L 108.225317 256.296425 
L 108.225317 255.178061 
L 114.250503 255.178061 
L 114.250503 254.059696 
L 115.747522 254.059696 
L 115.747522 253.500514 
L 116.790561 253.500514 
L 116.790561 251.822967 
L 119.297513 251.822967 
L 119.297513 251.263785 
L 123.194891 251.263785 
L 123.194891 250.145421 
L 126.940794 250.145421 
L 126.940794 249.586238 
L 132.622558 249.586238 
L 132.622558 249.027056 
L 136.353845 249.027056 
L 136.353845 248.467874 
L 138.19899 248.467874 
L 138.19899 247.908692 
L 139.598531 247.908692 
L 139.598531 246.790327 
L 141.862285 246.790327 
L 141.862285 245.671963 
L 142.327309 245.671963 
L 142.327309 245.112781 
L 146.454609 245.112781 
L 146.454609 244.553598 
L 147.391159 244.553598 
L 147.391159 243.435234 
L 152.226372 243.435234 
L 152.226372 242.876052 
L 159.230996 242.876052 
L 159.230996 242.316869 
L 165.772114 242.316869 
L 165.772114 241.198505 
L 168.928494 241.198505 
L 168.928494 240.639323 
L 169.139003 240.639323 
L 169.139003 238.402594 
L 169.802025 238.402594 
L 169.802025 237.843411 
L 172.07617 237.843411 
L 172.07617 237.284229 
L 172.702355 237.284229 
L 172.702355 236.725047 
L 183.9881 236.725047 
L 183.9881 236.165865 
L 186.794738 236.165865 
L 186.794738 233.929136 
L 189.247153 233.929136 
L 189.247153 232.810771 
L 189.267147 232.810771 
L 189.267147 232.251589 
L 189.933478 232.251589 
L 189.933478 230.01486 
L 192.607575 230.01486 
L 192.607575 228.896496 
L 194.054811 228.896496 
L 194.054811 228.337313 
L 208.398544 228.337313 
L 208.398544 227.778131 
L 274.986234 227.778131 
L 274.986234 227.218949 
L 274.990654 227.218949 
L 274.990654 226.659767 
L 275.014888 226.659767 
L 275.014888 226.100584 
L 275.055852 226.100584 
L 275.055852 225.541402 
L 275.134329 225.541402 
L 275.134329 224.98222 
L 275.269132 224.98222 
L 275.269132 224.423038 
L 286.889299 224.423038 
L 286.889299 223.304673 
L 286.899537 223.304673 
L 286.899537 222.745491 
L 286.979565 222.745491 
L 286.979565 222.186309 
L 298.7892 222.186309 
L 298.7892 221.627126 
L 302.623229 221.627126 
L 302.623229 221.067944 
L 308.40633 221.067944 
L 308.40633 219.390397 
L 308.409262 219.390397 
L 308.409262 218.831215 
L 314.538479 218.831215 
L 314.538479 218.272033 
L 316.177345 218.272033 
L 316.177345 217.712851 
L 328.098186 217.712851 
L 328.098186 217.153669 
L 333.429677 217.153669 
" style="fill:none;stroke:#6495ed;stroke-linecap:square;stroke-width:1.5;"/>
   </g>
   <g id="line2d_40">
    <defs>
     <path d="M -0 6 
L 6 -6 
L -6 -6 
z
" id="m9acd11de9d" style="stroke:#6495ed;stroke-linejoin:miter;stroke-width:1.5;"/>
    </defs>
    <g>
     <use style="fill-opacity:0;stroke:#6495ed;stroke-linejoin:miter;stroke-width:1.5;" x="95.735668" xlink:href="#m9acd11de9d" y="264.124977"/>
     <use style="fill-opacity:0;stroke:#6495ed;stroke-linejoin:miter;stroke-width:1.5;" x="159.230996" xlink:href="#m9acd11de9d" y="242.316869"/>
     <use style="fill-opacity:0;stroke:#6495ed;stroke-linejoin:miter;stroke-width:1.5;" x="208.398544" xlink:href="#m9acd11de9d" y="228.337313"/>
     <use style="fill-opacity:0;stroke:#6495ed;stroke-linejoin:miter;stroke-width:1.5;" x="308.409262" xlink:href="#m9acd11de9d" y="219.390397"/>
     <use style="fill-opacity:0;stroke:#6495ed;stroke-linejoin:miter;stroke-width:1.5;" x="328.098186" xlink:href="#m9acd11de9d" y="217.153669"/>
     <use style="fill-opacity:0;stroke:#6495ed;stroke-linejoin:miter;stroke-width:1.5;" x="333.429677" xlink:href="#m9acd11de9d" y="217.153669"/>
    </g>
   </g>
   <g id="line2d_41">
    <path style="fill:none;stroke:#6495ed;stroke-linecap:square;stroke-width:1.5;"/>
    <g/>
   </g>
   <g id="line2d_42">
    <path clip-path="url(#p5a618939b2)" d="M 274.912549 227.778131 
" style="fill:none;stroke:#6495ed;stroke-linecap:square;stroke-width:1.5;"/>
    <defs>
     <path d="M -12 12 
L 12 -12 
M -12 -12 
L 12 12 
" id="ma3a2e447f5" style="stroke:#6495ed;stroke-width:3;"/>
    </defs>
    <g clip-path="url(#p5a618939b2)">
     <use style="fill:#6495ed;stroke:#6495ed;stroke-width:3;" x="274.912549" xlink:href="#ma3a2e447f5" y="227.778131"/>
    </g>
   </g>
   <g id="line2d_43">
    <defs>
     <path d="M 0 1.5 
C 0.397805 1.5 0.77937 1.341951 1.06066 1.06066 
C 1.341951 0.77937 1.5 0.397805 1.5 0 
C 1.5 -0.397805 1.341951 -0.77937 1.06066 -1.06066 
C 0.77937 -1.341951 0.397805 -1.5 0 -1.5 
C -0.397805 -1.5 -0.77937 -1.341951 -1.06066 -1.06066 
C -1.341951 -0.77937 -1.5 -0.397805 -1.5 0 
C -1.5 0.397805 -1.341951 0.77937 -1.06066 1.06066 
C -0.77937 1.341951 -0.397805 1.5 0 1.5 
z
" id="m122606842b" style="stroke:#ff0000;"/>
    </defs>
    <g>
     <use style="fill:#ff0000;stroke:#ff0000;" x="340.424876" xlink:href="#m122606842b" y="205.410841"/>
     <use style="fill:#ff0000;stroke:#ff0000;" x="340.424876" xlink:href="#m122606842b" y="205.410841"/>
    </g>
   </g>
   <g id="line2d_44">
    <path d="M 49.144027 294.88 
L 49.144027 282.577991 
L 61.069532 282.577991 
L 61.069532 279.222897 
L 72.995036 279.222897 
L 72.995036 277.545351 
L 76.834191 277.545351 
L 76.834191 276.986168 
L 79.971009 276.986168 
L 79.971009 275.867804 
L 82.623151 275.867804 
L 82.623151 275.308622 
L 88.759695 275.308622 
L 88.759695 274.749439 
L 90.399494 274.749439 
L 90.399494 273.631075 
L 91.896513 273.631075 
L 91.896513 273.071893 
L 98.872486 273.071893 
L 98.872486 272.51271 
L 108.225317 272.51271 
L 108.225317 271.394346 
L 110.313314 271.394346 
L 110.313314 269.716799 
L 117.773963 269.716799 
L 117.773963 269.157617 
L 119.871061 269.157617 
L 119.871061 268.598435 
L 123.653714 268.598435 
L 123.653714 267.48007 
L 144.880856 267.48007 
L 144.880856 266.920888 
L 149.12393 266.920888 
L 149.12393 266.361706 
L 150.075824 266.361706 
L 150.075824 265.802523 
L 152.776636 265.802523 
L 152.776636 265.243341 
L 153.106716 265.243341 
L 153.106716 264.124977 
L 156.372461 264.124977 
L 156.439931 263.006612 
L 156.507137 263.006612 
L 156.507137 262.44743 
L 157.984582 262.44743 
L 157.984582 260.769883 
L 159.087262 260.769883 
L 159.087262 259.651519 
L 161.556989 259.651519 
L 161.556989 259.092337 
L 162.386888 259.092337 
L 162.386888 257.973972 
L 162.972543 257.973972 
L 162.972543 257.41479 
L 166.406201 257.41479 
L 166.406201 256.855608 
L 169.15509 256.855608 
L 169.15509 255.178061 
L 169.552448 255.178061 
L 169.552448 254.059696 
L 173.369592 254.059696 
L 173.369592 253.500514 
L 174.264668 253.500514 
L 174.264668 252.941332 
L 175.828266 252.941332 
L 175.828266 251.822967 
L 176.088131 251.822967 
L 176.088131 250.145421 
L 177.301631 250.145421 
L 177.301631 248.467874 
L 180.919045 248.467874 
L 180.919045 247.34951 
L 184.542605 247.34951 
L 184.542605 246.231145 
L 184.900443 246.231145 
L 184.900443 245.671963 
L 187.578321 245.671963 
L 187.578321 244.553598 
L 188.067283 244.553598 
L 188.067283 243.994416 
L 188.184723 243.994416 
L 188.184723 242.316869 
L 189.735302 242.316869 
L 189.735302 241.757687 
L 190.072285 241.757687 
L 190.072285 240.639323 
L 193.489658 240.639323 
L 193.489658 240.08014 
L 193.784163 240.08014 
L 193.784163 238.961776 
L 195.739593 238.961776 
L 195.739593 238.402594 
L 197.634072 238.402594 
L 197.634072 237.843411 
L 198.103725 237.843411 
L 198.103725 237.284229 
L 198.219904 237.284229 
L 198.219904 236.725047 
L 200.463025 236.725047 
L 200.463025 236.165865 
L 201.277368 236.165865 
L 201.277368 235.0475 
L 202.837445 235.0475 
L 202.837445 233.929136 
L 204.848999 233.929136 
L 204.848999 233.369954 
L 205.995437 233.369954 
L 205.995437 232.251589 
L 206.129064 232.251589 
L 206.129064 230.574042 
L 206.841522 230.574042 
L 206.841522 230.01486 
L 209.756572 230.01486 
L 209.756572 228.896496 
L 211.606143 228.896496 
L 211.606143 228.337313 
L 213.074389 228.337313 
L 213.074389 227.778131 
L 213.367371 227.778131 
L 213.367371 226.659767 
L 213.932826 226.659767 
L 213.932826 226.100584 
L 214.184687 226.100584 
L 214.184687 225.541402 
L 220.925467 225.541402 
L 220.925467 224.98222 
L 223.463331 224.98222 
L 223.463331 224.423038 
L 224.8256 224.423038 
L 224.8256 222.745491 
L 274.985343 222.745491 
L 275.063358 220.508762 
L 275.131204 220.508762 
L 275.205246 218.831215 
L 275.298093 218.831215 
L 275.316791 217.712851 
L 275.643062 217.712851 
L 275.643062 217.153669 
L 275.756367 217.153669 
L 275.756367 216.594486 
L 286.967957 216.594486 
L 287.041362 215.476122 
L 287.084783 215.476122 
L 287.084783 214.91694 
L 294.099178 214.91694 
L 294.099922 213.798575 
L 298.828633 213.798575 
L 298.828633 213.239393 
L 302.77482 213.239393 
L 302.77482 212.680211 
L 305.883073 212.680211 
L 305.883073 212.121028 
L 308.450006 212.121028 
L 308.51446 211.002664 
L 312.811331 211.002664 
L 312.811331 210.443482 
L 314.61426 210.443482 
L 314.61426 208.765935 
L 316.20516 208.765935 
L 316.20516 208.206753 
L 324.688989 208.206753 
L 324.688989 207.64757 
L 329.626538 207.64757 
L 329.626538 207.088388 
L 333.429677 207.088388 
L 333.429677 207.088388 
" style="fill:none;stroke:#ff0000;stroke-linecap:square;stroke-width:1.5;"/>
   </g>
   <g id="line2d_45">
    <defs>
     <path d="M 0 -6 
L -5.196152 -3 
L -5.196152 3 
L -0 6 
L 5.196152 3 
L 5.196152 -3 
z
" id="mda026ed4eb" style="stroke:#ff0000;stroke-linejoin:miter;stroke-width:1.5;"/>
    </defs>
    <g>
     <use style="fill-opacity:0;stroke:#ff0000;stroke-linejoin:miter;stroke-width:1.5;" x="98.872486" xlink:href="#mda026ed4eb" y="273.071893"/>
     <use style="fill-opacity:0;stroke:#ff0000;stroke-linejoin:miter;stroke-width:1.5;" x="152.776636" xlink:href="#mda026ed4eb" y="265.802523"/>
     <use style="fill-opacity:0;stroke:#ff0000;stroke-linejoin:miter;stroke-width:1.5;" x="214.184687" xlink:href="#mda026ed4eb" y="226.100584"/>
     <use style="fill-opacity:0;stroke:#ff0000;stroke-linejoin:miter;stroke-width:1.5;" x="224.8256" xlink:href="#mda026ed4eb" y="222.745491"/>
     <use style="fill-opacity:0;stroke:#ff0000;stroke-linejoin:miter;stroke-width:1.5;" x="329.626538" xlink:href="#mda026ed4eb" y="207.088388"/>
     <use style="fill-opacity:0;stroke:#ff0000;stroke-linejoin:miter;stroke-width:1.5;" x="333.429677" xlink:href="#mda026ed4eb" y="207.088388"/>
    </g>
   </g>
   <g id="line2d_46">
    <path style="fill:none;stroke:#ff0000;stroke-linecap:square;stroke-width:1.5;"/>
    <g/>
   </g>
   <g id="line2d_47">
    <path clip-path="url(#p5a618939b2)" d="M 274.912549 222.745491 
" style="fill:none;stroke:#ff0000;stroke-linecap:square;stroke-width:1.5;"/>
    <defs>
     <path d="M -12 12 
L 12 -12 
M -12 -12 
L 12 12 
" id="mf29e003ea6" style="stroke:#ff0000;stroke-width:3;"/>
    </defs>
    <g clip-path="url(#p5a618939b2)">
     <use style="fill:#ff0000;stroke:#ff0000;stroke-width:3;" x="274.912549" xlink:href="#mf29e003ea6" y="222.745491"/>
    </g>
   </g>
   <g id="line2d_48">
    <path d="M 333.429677 217.153669 
L 363.933742 289.176341 
" style="fill:none;stroke:#6495ed;stroke-linecap:square;stroke-width:1.5;"/>
    <g>
     <use style="fill-opacity:0;stroke:#6495ed;stroke-linejoin:miter;stroke-width:1.5;" x="333.429677" xlink:href="#m9acd11de9d" y="217.153669"/>
     <use style="fill-opacity:0;stroke:#6495ed;stroke-linejoin:miter;stroke-width:1.5;" x="363.933742" xlink:href="#m9acd11de9d" y="289.176341"/>
    </g>
   </g>
   <g id="line2d_49">
    <path d="M 333.429677 207.088388 
L 363.933742 220.732435 
" style="fill:none;stroke:#ff0000;stroke-linecap:square;stroke-width:1.5;"/>
    <g>
     <use style="fill-opacity:0;stroke:#ff0000;stroke-linejoin:miter;stroke-width:1.5;" x="333.429677" xlink:href="#mda026ed4eb" y="207.088388"/>
     <use style="fill-opacity:0;stroke:#ff0000;stroke-linejoin:miter;stroke-width:1.5;" x="363.933742" xlink:href="#mda026ed4eb" y="220.732435"/>
    </g>
   </g>
   <g id="line2d_50">
    <path d="M 333.429677 9.697057 
L 363.933742 152.288529 
" style="fill:none;stroke:#ff00ff;stroke-linecap:square;stroke-width:1.5;"/>
    <g>
     <use style="fill-opacity:0;stroke:#ff00ff;stroke-linejoin:miter;stroke-width:1.5;" x="333.429677" xlink:href="#maf89eb2003" y="9.697057"/>
     <use style="fill-opacity:0;stroke:#ff00ff;stroke-linejoin:miter;stroke-width:1.5;" x="363.933742" xlink:href="#maf89eb2003" y="152.288529"/>
    </g>
   </g>
   <g id="line2d_51">
    <path d="M 333.429677 9.697057 
L 363.933742 83.844622 
" style="fill:none;stroke:#ffa500;stroke-linecap:square;stroke-width:1.5;"/>
    <g>
     <use style="fill-opacity:0;stroke:#ffa500;stroke-linejoin:bevel;stroke-width:1.5;" x="333.429677" xlink:href="#m90b4ac4caa" y="9.697057"/>
     <use style="fill-opacity:0;stroke:#ffa500;stroke-linejoin:bevel;stroke-width:1.5;" x="363.933742" xlink:href="#m90b4ac4caa" y="83.844622"/>
    </g>
   </g>
   <g id="line2d_52">
    <path d="M 333.429677 9.697057 
L 363.933742 15.400716 
" style="fill:none;stroke:#000080;stroke-linecap:square;stroke-width:1.5;"/>
    <g>
     <use style="fill-opacity:0;stroke:#000080;stroke-width:1.5;" x="333.429677" xlink:href="#m444334d7eb" y="9.697057"/>
     <use style="fill-opacity:0;stroke:#000080;stroke-width:1.5;" x="363.933742" xlink:href="#m444334d7eb" y="15.400716"/>
    </g>
   </g>
   <g id="line2d_53">
    <path d="M 333.429677 294.88 
L 333.429677 9.697057 
" style="fill:none;stroke:#000000;stroke-linecap:square;stroke-width:1.5;"/>
   </g>
   <g id="patch_3">
    <path d="M 56.12 294.88 
L 56.12 6.845228 
" style="fill:none;stroke:#000000;stroke-linecap:square;stroke-linejoin:miter;stroke-width:0.8;"/>
   </g>
   <g id="patch_4">
    <path d="M 399.984 294.88 
L 399.984 6.845228 
" style="fill:none;stroke:#000000;stroke-linecap:square;stroke-linejoin:miter;stroke-width:0.8;"/>
   </g>
   <g id="patch_5">
    <path d="M 56.12 294.88 
L 399.984 294.88 
" style="fill:none;stroke:#000000;stroke-linecap:square;stroke-linejoin:miter;stroke-width:0.8;"/>
   </g>
   <g id="patch_6">
    <path d="M 56.12 6.845228 
L 399.984 6.845228 
" style="fill:none;stroke:#000000;stroke-linecap:square;stroke-linejoin:miter;stroke-width:0.8;"/>
   </g>
   <g id="text_14">
    <!-- f20 -->
    <g transform="translate(369.479935 293.867279)scale(0.17 -0.17)">
     <use xlink:href="#DejaVuSans-66"/>
     <use x="35.205078" xlink:href="#DejaVuSans-32"/>
     <use x="98.828125" xlink:href="#DejaVuSans-30"/>
    </g>
   </g>
   <g id="text_15">
    <!-- f24 -->
    <g transform="translate(369.479935 225.423372)scale(0.17 -0.17)">
     <use xlink:href="#DejaVuSans-66"/>
     <use x="35.205078" xlink:href="#DejaVuSans-32"/>
     <use x="98.828125" xlink:href="#DejaVuSans-34"/>
    </g>
   </g>
   <g id="text_16">
    <!-- f22 -->
    <g transform="translate(369.479935 156.979466)scale(0.17 -0.17)">
     <use xlink:href="#DejaVuSans-66"/>
     <use x="35.205078" xlink:href="#DejaVuSans-32"/>
     <use x="98.828125" xlink:href="#DejaVuSans-32"/>
    </g>
   </g>
   <g id="text_17">
    <!-- f21 -->
    <g transform="translate(369.479935 88.53556)scale(0.17 -0.17)">
     <use xlink:href="#DejaVuSans-66"/>
     <use x="35.205078" xlink:href="#DejaVuSans-32"/>
     <use x="98.828125" xlink:href="#DejaVuSans-31"/>
    </g>
   </g>
   <g id="text_18">
    <!-- f23 -->
    <defs>
     <path d="M 40.578125 39.3125 
Q 47.65625 37.796875 51.625 33 
Q 55.609375 28.21875 55.609375 21.1875 
Q 55.609375 10.40625 48.1875 4.484375 
Q 40.765625 -1.421875 27.09375 -1.421875 
Q 22.515625 -1.421875 17.65625 -0.515625 
Q 12.796875 0.390625 7.625 2.203125 
L 7.625 11.71875 
Q 11.71875 9.328125 16.59375 8.109375 
Q 21.484375 6.890625 26.8125 6.890625 
Q 36.078125 6.890625 40.9375 10.546875 
Q 45.796875 14.203125 45.796875 21.1875 
Q 45.796875 27.640625 41.28125 31.265625 
Q 36.765625 34.90625 28.71875 34.90625 
L 20.21875 34.90625 
L 20.21875 43.015625 
L 29.109375 43.015625 
Q 36.375 43.015625 40.234375 45.921875 
Q 44.09375 48.828125 44.09375 54.296875 
Q 44.09375 59.90625 40.109375 62.90625 
Q 36.140625 65.921875 28.71875 65.921875 
Q 24.65625 65.921875 20.015625 65.03125 
Q 15.375 64.15625 9.8125 62.3125 
L 9.8125 71.09375 
Q 15.4375 72.65625 20.34375 73.4375 
Q 25.25 74.21875 29.59375 74.21875 
Q 40.828125 74.21875 47.359375 69.109375 
Q 53.90625 64.015625 53.90625 55.328125 
Q 53.90625 49.265625 50.4375 45.09375 
Q 46.96875 40.921875 40.578125 39.3125 
z
" id="DejaVuSans-33"/>
    </defs>
    <g transform="translate(369.479935 20.091654)scale(0.17 -0.17)">
     <use xlink:href="#DejaVuSans-66"/>
     <use x="35.205078" xlink:href="#DejaVuSans-32"/>
     <use x="98.828125" xlink:href="#DejaVuSans-33"/>
    </g>
   </g>
   <g id="text_19">
    <!-- bbob -->
    <defs>
     <path d="M 48.6875 27.296875 
Q 48.6875 37.203125 44.609375 42.84375 
Q 40.53125 48.484375 33.40625 48.484375 
Q 26.265625 48.484375 22.1875 42.84375 
Q 18.109375 37.203125 18.109375 27.296875 
Q 18.109375 17.390625 22.1875 11.75 
Q 26.265625 6.109375 33.40625 6.109375 
Q 40.53125 6.109375 44.609375 11.75 
Q 48.6875 17.390625 48.6875 27.296875 
z
M 18.109375 46.390625 
Q 20.953125 51.265625 25.265625 53.625 
Q 29.59375 56 35.59375 56 
Q 45.5625 56 51.78125 48.09375 
Q 58.015625 40.1875 58.015625 27.296875 
Q 58.015625 14.40625 51.78125 6.484375 
Q 45.5625 -1.421875 35.59375 -1.421875 
Q 29.59375 -1.421875 25.265625 0.953125 
Q 20.953125 3.328125 18.109375 8.203125 
L 18.109375 0 
L 9.078125 0 
L 9.078125 75.984375 
L 18.109375 75.984375 
z
" id="DejaVuSans-62"/>
    </defs>
    <g transform="translate(59.55864 17.475982)scale(0.102 -0.102)">
     <use xlink:href="#DejaVuSans-62"/>
     <use x="63.476562" xlink:href="#DejaVuSans-62"/>
     <use x="126.953125" xlink:href="#DejaVuSans-6f"/>
     <use x="188.134766" xlink:href="#DejaVuSans-62"/>
    </g>
    <!-- Weak structure functions, 3-D -->
    <defs>
     <path d="M 3.328125 72.90625 
L 13.28125 72.90625 
L 28.609375 11.28125 
L 43.890625 72.90625 
L 54.984375 72.90625 
L 70.3125 11.28125 
L 85.59375 72.90625 
L 95.609375 72.90625 
L 77.296875 0 
L 64.890625 0 
L 49.515625 63.28125 
L 33.984375 0 
L 21.578125 0 
z
" id="DejaVuSans-57"/>
     <path d="M 9.078125 75.984375 
L 18.109375 75.984375 
L 18.109375 31.109375 
L 44.921875 54.6875 
L 56.390625 54.6875 
L 27.390625 29.109375 
L 57.625 0 
L 45.90625 0 
L 18.109375 26.703125 
L 18.109375 0 
L 9.078125 0 
z
" id="DejaVuSans-6b"/>
     <path d="M 19.671875 64.796875 
L 19.671875 8.109375 
L 31.59375 8.109375 
Q 46.6875 8.109375 53.6875 14.9375 
Q 60.6875 21.78125 60.6875 36.53125 
Q 60.6875 51.171875 53.6875 57.984375 
Q 46.6875 64.796875 31.59375 64.796875 
z
M 9.8125 72.90625 
L 30.078125 72.90625 
Q 51.265625 72.90625 61.171875 64.09375 
Q 71.09375 55.28125 71.09375 36.53125 
Q 71.09375 17.671875 61.125 8.828125 
Q 51.171875 0 30.078125 0 
L 9.8125 0 
z
" id="DejaVuSans-44"/>
    </defs>
    <g transform="translate(59.55864 28.89775)scale(0.102 -0.102)">
     <use xlink:href="#DejaVuSans-57"/>
     <use x="98.798828" xlink:href="#DejaVuSans-65"/>
     <use x="160.322266" xlink:href="#DejaVuSans-61"/>
     <use x="221.601562" xlink:href="#DejaVuSans-6b"/>
     <use x="279.511719" xlink:href="#DejaVuSans-20"/>
     <use x="311.298828" xlink:href="#DejaVuSans-73"/>
     <use x="363.398438" xlink:href="#DejaVuSans-74"/>
     <use x="402.607422" xlink:href="#DejaVuSans-72"/>
     <use x="443.720703" xlink:href="#DejaVuSans-75"/>
     <use x="507.099609" xlink:href="#DejaVuSans-63"/>
     <use x="562.080078" xlink:href="#DejaVuSans-74"/>
     <use x="601.289062" xlink:href="#DejaVuSans-75"/>
     <use x="664.667969" xlink:href="#DejaVuSans-72"/>
     <use x="705.75" xlink:href="#DejaVuSans-65"/>
     <use x="767.273438" xlink:href="#DejaVuSans-20"/>
     <use x="799.060547" xlink:href="#DejaVuSans-66"/>
     <use x="834.265625" xlink:href="#DejaVuSans-75"/>
     <use x="897.644531" xlink:href="#DejaVuSans-6e"/>
     <use x="961.023438" xlink:href="#DejaVuSans-63"/>
     <use x="1016.003906" xlink:href="#DejaVuSans-74"/>
     <use x="1055.212891" xlink:href="#DejaVuSans-69"/>
     <use x="1082.996094" xlink:href="#DejaVuSans-6f"/>
     <use x="1144.177734" xlink:href="#DejaVuSans-6e"/>
     <use x="1207.556641" xlink:href="#DejaVuSans-73"/>
     <use x="1259.65625" xlink:href="#DejaVuSans-2c"/>
     <use x="1291.443359" xlink:href="#DejaVuSans-20"/>
     <use x="1323.230469" xlink:href="#DejaVuSans-33"/>
     <use x="1386.853516" xlink:href="#DejaVuSans-2d"/>
     <use x="1422.9375" xlink:href="#DejaVuSans-44"/>
    </g>
    <!-- 51 targets: 100..1e-08 -->
    <defs>
     <path d="M 10.796875 72.90625 
L 49.515625 72.90625 
L 49.515625 64.59375 
L 19.828125 64.59375 
L 19.828125 46.734375 
Q 21.96875 47.46875 24.109375 47.828125 
Q 26.265625 48.1875 28.421875 48.1875 
Q 40.625 48.1875 47.75 41.5 
Q 54.890625 34.8125 54.890625 23.390625 
Q 54.890625 11.625 47.5625 5.09375 
Q 40.234375 -1.421875 26.90625 -1.421875 
Q 22.3125 -1.421875 17.546875 -0.640625 
Q 12.796875 0.140625 7.71875 1.703125 
L 7.71875 11.625 
Q 12.109375 9.234375 16.796875 8.0625 
Q 21.484375 6.890625 26.703125 6.890625 
Q 35.15625 6.890625 40.078125 11.328125 
Q 45.015625 15.765625 45.015625 23.390625 
Q 45.015625 31 40.078125 35.4375 
Q 35.15625 39.890625 26.703125 39.890625 
Q 22.75 39.890625 18.8125 39.015625 
Q 14.890625 38.140625 10.796875 36.28125 
z
" id="DejaVuSans-35"/>
     <path d="M 11.71875 12.40625 
L 22.015625 12.40625 
L 22.015625 0 
L 11.71875 0 
z
M 11.71875 51.703125 
L 22.015625 51.703125 
L 22.015625 39.3125 
L 11.71875 39.3125 
z
" id="DejaVuSans-3a"/>
    </defs>
    <g transform="translate(59.55864 40.319519)scale(0.102 -0.102)">
     <use xlink:href="#DejaVuSans-35"/>
     <use x="63.623047" xlink:href="#DejaVuSans-31"/>
     <use x="127.246094" xlink:href="#DejaVuSans-20"/>
     <use x="159.033203" xlink:href="#DejaVuSans-74"/>
     <use x="198.242188" xlink:href="#DejaVuSans-61"/>
     <use x="259.521484" xlink:href="#DejaVuSans-72"/>
     <use x="300.619141" xlink:href="#DejaVuSans-67"/>
     <use x="364.095703" xlink:href="#DejaVuSans-65"/>
     <use x="425.619141" xlink:href="#DejaVuSans-74"/>
     <use x="464.828125" xlink:href="#DejaVuSans-73"/>
     <use x="516.927734" xlink:href="#DejaVuSans-3a"/>
     <use x="550.619141" xlink:href="#DejaVuSans-20"/>
     <use x="582.40625" xlink:href="#DejaVuSans-31"/>
     <use x="646.029297" xlink:href="#DejaVuSans-30"/>
     <use x="709.652344" xlink:href="#DejaVuSans-30"/>
     <use x="773.275391" xlink:href="#DejaVuSans-2e"/>
     <use x="805.0625" xlink:href="#DejaVuSans-2e"/>
     <use x="836.849609" xlink:href="#DejaVuSans-31"/>
     <use x="900.472656" xlink:href="#DejaVuSans-65"/>
     <use x="961.996094" xlink:href="#DejaVuSans-2d"/>
     <use x="998.080078" xlink:href="#DejaVuSans-30"/>
     <use x="1061.703125" xlink:href="#DejaVuSans-38"/>
    </g>
    <!-- 15 instances -->
    <g transform="translate(59.55864 51.741288)scale(0.102 -0.102)">
     <use xlink:href="#DejaVuSans-31"/>
     <use x="63.623047" xlink:href="#DejaVuSans-35"/>
     <use x="127.246094" xlink:href="#DejaVuSans-20"/>
     <use x="159.033203" xlink:href="#DejaVuSans-69"/>
     <use x="186.816406" xlink:href="#DejaVuSans-6e"/>
     <use x="250.195312" xlink:href="#DejaVuSans-73"/>
     <use x="302.294922" xlink:href="#DejaVuSans-74"/>
     <use x="341.503906" xlink:href="#DejaVuSans-61"/>
     <use x="402.783203" xlink:href="#DejaVuSans-6e"/>
     <use x="466.162109" xlink:href="#DejaVuSans-63"/>
     <use x="521.142578" xlink:href="#DejaVuSans-65"/>
     <use x="582.666016" xlink:href="#DejaVuSans-73"/>
    </g>
   </g>
   <g id="text_20">
    <!-- v0.0.0 -->
    <g style="fill:#808080;" transform="translate(212.37075 289.919965)scale(0.1 -0.1)">
     <use xlink:href="#DejaVuSans-76"/>
     <use x="59.179688" xlink:href="#DejaVuSans-30"/>
     <use x="122.802734" xlink:href="#DejaVuSans-2e"/>
     <use x="154.589844" xlink:href="#DejaVuSans-30"/>
     <use x="218.212891" xlink:href="#DejaVuSans-2e"/>
     <use x="250" xlink:href="#DejaVuSans-30"/>
    </g>
   </g>
  </g>
 </g>
 <defs>
  <clipPath id="p5a618939b2">
   <rect height="288.034772" width="343.864" x="56.12" y="6.845228"/>
  </clipPath>
 </defs>
</svg>
