<?xml version="1.0" encoding="utf-8" standalone="no"?>
<!DOCTYPE svg PUBLIC "-//W3C//DTD SVG 1.1//EN"
  "http://www.w3.org/Graphics/SVG/1.1/DTD/svg11.dtd">
<!-- Created with matplotlib (http://matplotlib.org/) -->
<svg height="345.6pt" version="1.1" viewBox="0 0 460.8 345.6" width="460.8pt" xmlns="http://www.w3.org/2000/svg" xmlns:xlink="http://www.w3.org/1999/xlink">
 <defs>
  <style type="text/css">
*{stroke-linecap:butt;stroke-linejoin:round;}
  </style>
 </defs>
 <g id="figure_1">
  <g id="patch_1">
   <path d="M 0 345.6 
L 460.8 345.6 
L 460.8 0 
L 0 0 
z
" style="fill:#ffffff;"/>
  </g>
  <g id="axes_1">
   <g id="patch_2">
    <path d="M 56.12 294.88 
L 399.984 294.88 
L 399.984 24.84 
L 56.12 24.84 
z
" style="fill:#ffffff;"/>
   </g>
   <g id="matplotlib.axis_1">
    <g id="xtick_1">
     <g id="line2d_1">
      <path clip-path="url(#p7865e91ab1)" d="M 56.12 294.88 
L 56.12 24.84 
" style="fill:none;stroke:#b0b0b0;stroke-linecap:square;stroke-width:0.8;"/>
     </g>
     <g id="line2d_2">
      <defs>
       <path d="M 0 0 
L 0 3.5 
" id="m55d278b2af" style="stroke:#000000;stroke-width:0.8;"/>
      </defs>
      <g>
       <use style="stroke:#000000;stroke-width:0.8;" x="56.12" xlink:href="#m55d278b2af" y="294.88"/>
      </g>
     </g>
     <g id="text_1">
      <!-- 0 -->
      <defs>
       <path d="M 31.78125 66.40625 
Q 24.171875 66.40625 20.328125 58.90625 
Q 16.5 51.421875 16.5 36.375 
Q 16.5 21.390625 20.328125 13.890625 
Q 24.171875 6.390625 31.78125 6.390625 
Q 39.453125 6.390625 43.28125 13.890625 
Q 47.125 21.390625 47.125 36.375 
Q 47.125 51.421875 43.28125 58.90625 
Q 39.453125 66.40625 31.78125 66.40625 
z
M 31.78125 74.21875 
Q 44.046875 74.21875 50.515625 64.515625 
Q 56.984375 54.828125 56.984375 36.375 
Q 56.984375 17.96875 50.515625 8.265625 
Q 44.046875 -1.421875 31.78125 -1.421875 
Q 19.53125 -1.421875 13.0625 8.265625 
Q 6.59375 17.96875 6.59375 36.375 
Q 6.59375 54.828125 13.0625 64.515625 
Q 19.53125 74.21875 31.78125 74.21875 
z
" id="DejaVuSans-30"/>
      </defs>
      <g transform="translate(49.7575 317.076875)scale(0.2 -0.2)">
       <use xlink:href="#DejaVuSans-30"/>
      </g>
     </g>
    </g>
    <g id="xtick_2">
     <g id="line2d_3">
      <path clip-path="url(#p7865e91ab1)" d="M 135.351336 294.88 
L 135.351336 24.84 
" style="fill:none;stroke:#b0b0b0;stroke-linecap:square;stroke-width:0.8;"/>
     </g>
     <g id="line2d_4">
      <g>
       <use style="stroke:#000000;stroke-width:0.8;" x="135.351336" xlink:href="#m55d278b2af" y="294.88"/>
      </g>
     </g>
     <g id="text_2">
      <!-- 2 -->
      <defs>
       <path d="M 19.1875 8.296875 
L 53.609375 8.296875 
L 53.609375 0 
L 7.328125 0 
L 7.328125 8.296875 
Q 12.9375 14.109375 22.625 23.890625 
Q 32.328125 33.6875 34.8125 36.53125 
Q 39.546875 41.84375 41.421875 45.53125 
Q 43.3125 49.21875 43.3125 52.78125 
Q 43.3125 58.59375 39.234375 62.25 
Q 35.15625 65.921875 28.609375 65.921875 
Q 23.96875 65.921875 18.8125 64.3125 
Q 13.671875 62.703125 7.8125 59.421875 
L 7.8125 69.390625 
Q 13.765625 71.78125 18.9375 73 
Q 24.125 74.21875 28.421875 74.21875 
Q 39.75 74.21875 46.484375 68.546875 
Q 53.21875 62.890625 53.21875 53.421875 
Q 53.21875 48.921875 51.53125 44.890625 
Q 49.859375 40.875 45.40625 35.40625 
Q 44.1875 33.984375 37.640625 27.21875 
Q 31.109375 20.453125 19.1875 8.296875 
z
" id="DejaVuSans-32"/>
      </defs>
      <g transform="translate(128.988836 317.076875)scale(0.2 -0.2)">
       <use xlink:href="#DejaVuSans-32"/>
      </g>
     </g>
    </g>
    <g id="xtick_3">
     <g id="line2d_5">
      <path clip-path="url(#p7865e91ab1)" d="M 214.582673 294.88 
L 214.582673 24.84 
" style="fill:none;stroke:#b0b0b0;stroke-linecap:square;stroke-width:0.8;"/>
     </g>
     <g id="line2d_6">
      <g>
       <use style="stroke:#000000;stroke-width:0.8;" x="214.582673" xlink:href="#m55d278b2af" y="294.88"/>
      </g>
     </g>
     <g id="text_3">
      <!-- 4 -->
      <defs>
       <path d="M 37.796875 64.3125 
L 12.890625 25.390625 
L 37.796875 25.390625 
z
M 35.203125 72.90625 
L 47.609375 72.90625 
L 47.609375 25.390625 
L 58.015625 25.390625 
L 58.015625 17.1875 
L 47.609375 17.1875 
L 47.609375 0 
L 37.796875 0 
L 37.796875 17.1875 
L 4.890625 17.1875 
L 4.890625 26.703125 
z
" id="DejaVuSans-34"/>
      </defs>
      <g transform="translate(208.220173 317.076875)scale(0.2 -0.2)">
       <use xlink:href="#DejaVuSans-34"/>
      </g>
     </g>
    </g>
    <g id="xtick_4">
     <g id="line2d_7">
      <path clip-path="url(#p7865e91ab1)" d="M 293.814009 294.88 
L 293.814009 24.84 
" style="fill:none;stroke:#b0b0b0;stroke-linecap:square;stroke-width:0.8;"/>
     </g>
     <g id="line2d_8">
      <g>
       <use style="stroke:#000000;stroke-width:0.8;" x="293.814009" xlink:href="#m55d278b2af" y="294.88"/>
      </g>
     </g>
     <g id="text_4">
      <!-- 6 -->
      <defs>
       <path d="M 33.015625 40.375 
Q 26.375 40.375 22.484375 35.828125 
Q 18.609375 31.296875 18.609375 23.390625 
Q 18.609375 15.53125 22.484375 10.953125 
Q 26.375 6.390625 33.015625 6.390625 
Q 39.65625 6.390625 43.53125 10.953125 
Q 47.40625 15.53125 47.40625 23.390625 
Q 47.40625 31.296875 43.53125 35.828125 
Q 39.65625 40.375 33.015625 40.375 
z
M 52.59375 71.296875 
L 52.59375 62.3125 
Q 48.875 64.0625 45.09375 64.984375 
Q 41.3125 65.921875 37.59375 65.921875 
Q 27.828125 65.921875 22.671875 59.328125 
Q 17.53125 52.734375 16.796875 39.40625 
Q 19.671875 43.65625 24.015625 45.921875 
Q 28.375 48.1875 33.59375 48.1875 
Q 44.578125 48.1875 50.953125 41.515625 
Q 57.328125 34.859375 57.328125 23.390625 
Q 57.328125 12.15625 50.6875 5.359375 
Q 44.046875 -1.421875 33.015625 -1.421875 
Q 20.359375 -1.421875 13.671875 8.265625 
Q 6.984375 17.96875 6.984375 36.375 
Q 6.984375 53.65625 15.1875 63.9375 
Q 23.390625 74.21875 37.203125 74.21875 
Q 40.921875 74.21875 44.703125 73.484375 
Q 48.484375 72.75 52.59375 71.296875 
z
" id="DejaVuSans-36"/>
      </defs>
      <g transform="translate(287.451509 317.076875)scale(0.2 -0.2)">
       <use xlink:href="#DejaVuSans-36"/>
      </g>
     </g>
    </g>
    <g id="xtick_5">
     <g id="line2d_9">
      <path clip-path="url(#p7865e91ab1)" d="M 373.045346 294.88 
L 373.045346 24.84 
" style="fill:none;stroke:#b0b0b0;stroke-linecap:square;stroke-width:0.8;"/>
     </g>
     <g id="line2d_10">
      <g>
       <use style="stroke:#000000;stroke-width:0.8;" x="373.045346" xlink:href="#m55d278b2af" y="294.88"/>
      </g>
     </g>
     <g id="text_5">
      <!-- 8 -->
      <defs>
       <path d="M 31.78125 34.625 
Q 24.75 34.625 20.71875 30.859375 
Q 16.703125 27.09375 16.703125 20.515625 
Q 16.703125 13.921875 20.71875 10.15625 
Q 24.75 6.390625 31.78125 6.390625 
Q 38.8125 6.390625 42.859375 10.171875 
Q 46.921875 13.96875 46.921875 20.515625 
Q 46.921875 27.09375 42.890625 30.859375 
Q 38.875 34.625 31.78125 34.625 
z
M 21.921875 38.8125 
Q 15.578125 40.375 12.03125 44.71875 
Q 8.5 49.078125 8.5 55.328125 
Q 8.5 64.0625 14.71875 69.140625 
Q 20.953125 74.21875 31.78125 74.21875 
Q 42.671875 74.21875 48.875 69.140625 
Q 55.078125 64.0625 55.078125 55.328125 
Q 55.078125 49.078125 51.53125 44.71875 
Q 48 40.375 41.703125 38.8125 
Q 48.828125 37.15625 52.796875 32.3125 
Q 56.78125 27.484375 56.78125 20.515625 
Q 56.78125 9.90625 50.3125 4.234375 
Q 43.84375 -1.421875 31.78125 -1.421875 
Q 19.734375 -1.421875 13.25 4.234375 
Q 6.78125 9.90625 6.78125 20.515625 
Q 6.78125 27.484375 10.78125 32.3125 
Q 14.796875 37.15625 21.921875 38.8125 
z
M 18.3125 54.390625 
Q 18.3125 48.734375 21.84375 45.5625 
Q 25.390625 42.390625 31.78125 42.390625 
Q 38.140625 42.390625 41.71875 45.5625 
Q 45.3125 48.734375 45.3125 54.390625 
Q 45.3125 60.0625 41.71875 63.234375 
Q 38.140625 66.40625 31.78125 66.40625 
Q 25.390625 66.40625 21.84375 63.234375 
Q 18.3125 60.0625 18.3125 54.390625 
z
" id="DejaVuSans-38"/>
      </defs>
      <g transform="translate(366.682846 317.076875)scale(0.2 -0.2)">
       <use xlink:href="#DejaVuSans-38"/>
      </g>
     </g>
    </g>
    <g id="text_6">
     <!-- log10(# f-evals / dimension) -->
     <defs>
      <path d="M 9.421875 75.984375 
L 18.40625 75.984375 
L 18.40625 0 
L 9.421875 0 
z
" id="DejaVuSans-6c"/>
      <path d="M 30.609375 48.390625 
Q 23.390625 48.390625 19.1875 42.75 
Q 14.984375 37.109375 14.984375 27.296875 
Q 14.984375 17.484375 19.15625 11.84375 
Q 23.34375 6.203125 30.609375 6.203125 
Q 37.796875 6.203125 41.984375 11.859375 
Q 46.1875 17.53125 46.1875 27.296875 
Q 46.1875 37.015625 41.984375 42.703125 
Q 37.796875 48.390625 30.609375 48.390625 
z
M 30.609375 56 
Q 42.328125 56 49.015625 48.375 
Q 55.71875 40.765625 55.71875 27.296875 
Q 55.71875 13.875 49.015625 6.21875 
Q 42.328125 -1.421875 30.609375 -1.421875 
Q 18.84375 -1.421875 12.171875 6.21875 
Q 5.515625 13.875 5.515625 27.296875 
Q 5.515625 40.765625 12.171875 48.375 
Q 18.84375 56 30.609375 56 
z
" id="DejaVuSans-6f"/>
      <path d="M 45.40625 27.984375 
Q 45.40625 37.75 41.375 43.109375 
Q 37.359375 48.484375 30.078125 48.484375 
Q 22.859375 48.484375 18.828125 43.109375 
Q 14.796875 37.75 14.796875 27.984375 
Q 14.796875 18.265625 18.828125 12.890625 
Q 22.859375 7.515625 30.078125 7.515625 
Q 37.359375 7.515625 41.375 12.890625 
Q 45.40625 18.265625 45.40625 27.984375 
z
M 54.390625 6.78125 
Q 54.390625 -7.171875 48.1875 -13.984375 
Q 42 -20.796875 29.203125 -20.796875 
Q 24.46875 -20.796875 20.265625 -20.09375 
Q 16.0625 -19.390625 12.109375 -17.921875 
L 12.109375 -9.1875 
Q 16.0625 -11.328125 19.921875 -12.34375 
Q 23.78125 -13.375 27.78125 -13.375 
Q 36.625 -13.375 41.015625 -8.765625 
Q 45.40625 -4.15625 45.40625 5.171875 
L 45.40625 9.625 
Q 42.625 4.78125 38.28125 2.390625 
Q 33.9375 0 27.875 0 
Q 17.828125 0 11.671875 7.65625 
Q 5.515625 15.328125 5.515625 27.984375 
Q 5.515625 40.671875 11.671875 48.328125 
Q 17.828125 56 27.875 56 
Q 33.9375 56 38.28125 53.609375 
Q 42.625 51.21875 45.40625 46.390625 
L 45.40625 54.6875 
L 54.390625 54.6875 
z
" id="DejaVuSans-67"/>
      <path d="M 12.40625 8.296875 
L 28.515625 8.296875 
L 28.515625 63.921875 
L 10.984375 60.40625 
L 10.984375 69.390625 
L 28.421875 72.90625 
L 38.28125 72.90625 
L 38.28125 8.296875 
L 54.390625 8.296875 
L 54.390625 0 
L 12.40625 0 
z
" id="DejaVuSans-31"/>
      <path d="M 31 75.875 
Q 24.46875 64.65625 21.28125 53.65625 
Q 18.109375 42.671875 18.109375 31.390625 
Q 18.109375 20.125 21.3125 9.0625 
Q 24.515625 -2 31 -13.1875 
L 23.1875 -13.1875 
Q 15.875 -1.703125 12.234375 9.375 
Q 8.59375 20.453125 8.59375 31.390625 
Q 8.59375 42.28125 12.203125 53.3125 
Q 15.828125 64.359375 23.1875 75.875 
z
" id="DejaVuSans-28"/>
      <path d="M 51.125 44 
L 36.921875 44 
L 32.8125 27.6875 
L 47.125 27.6875 
z
M 43.796875 71.78125 
L 38.71875 51.515625 
L 52.984375 51.515625 
L 58.109375 71.78125 
L 65.921875 71.78125 
L 60.890625 51.515625 
L 76.125 51.515625 
L 76.125 44 
L 58.984375 44 
L 54.984375 27.6875 
L 70.515625 27.6875 
L 70.515625 20.21875 
L 53.078125 20.21875 
L 48 0 
L 40.1875 0 
L 45.21875 20.21875 
L 30.90625 20.21875 
L 25.875 0 
L 18.015625 0 
L 23.09375 20.21875 
L 7.71875 20.21875 
L 7.71875 27.6875 
L 24.90625 27.6875 
L 29 44 
L 13.28125 44 
L 13.28125 51.515625 
L 30.90625 51.515625 
L 35.890625 71.78125 
z
" id="DejaVuSans-23"/>
      <path id="DejaVuSans-20"/>
      <path d="M 37.109375 75.984375 
L 37.109375 68.5 
L 28.515625 68.5 
Q 23.6875 68.5 21.796875 66.546875 
Q 19.921875 64.59375 19.921875 59.515625 
L 19.921875 54.6875 
L 34.71875 54.6875 
L 34.71875 47.703125 
L 19.921875 47.703125 
L 19.921875 0 
L 10.890625 0 
L 10.890625 47.703125 
L 2.296875 47.703125 
L 2.296875 54.6875 
L 10.890625 54.6875 
L 10.890625 58.5 
Q 10.890625 67.625 15.140625 71.796875 
Q 19.390625 75.984375 28.609375 75.984375 
z
" id="DejaVuSans-66"/>
      <path d="M 4.890625 31.390625 
L 31.203125 31.390625 
L 31.203125 23.390625 
L 4.890625 23.390625 
z
" id="DejaVuSans-2d"/>
      <path d="M 56.203125 29.59375 
L 56.203125 25.203125 
L 14.890625 25.203125 
Q 15.484375 15.921875 20.484375 11.0625 
Q 25.484375 6.203125 34.421875 6.203125 
Q 39.59375 6.203125 44.453125 7.46875 
Q 49.3125 8.734375 54.109375 11.28125 
L 54.109375 2.78125 
Q 49.265625 0.734375 44.1875 -0.34375 
Q 39.109375 -1.421875 33.890625 -1.421875 
Q 20.796875 -1.421875 13.15625 6.1875 
Q 5.515625 13.8125 5.515625 26.8125 
Q 5.515625 40.234375 12.765625 48.109375 
Q 20.015625 56 32.328125 56 
Q 43.359375 56 49.78125 48.890625 
Q 56.203125 41.796875 56.203125 29.59375 
z
M 47.21875 32.234375 
Q 47.125 39.59375 43.09375 43.984375 
Q 39.0625 48.390625 32.421875 48.390625 
Q 24.90625 48.390625 20.390625 44.140625 
Q 15.875 39.890625 15.1875 32.171875 
z
" id="DejaVuSans-65"/>
      <path d="M 2.984375 54.6875 
L 12.5 54.6875 
L 29.59375 8.796875 
L 46.6875 54.6875 
L 56.203125 54.6875 
L 35.6875 0 
L 23.484375 0 
z
" id="DejaVuSans-76"/>
      <path d="M 34.28125 27.484375 
Q 23.390625 27.484375 19.1875 25 
Q 14.984375 22.515625 14.984375 16.5 
Q 14.984375 11.71875 18.140625 8.90625 
Q 21.296875 6.109375 26.703125 6.109375 
Q 34.1875 6.109375 38.703125 11.40625 
Q 43.21875 16.703125 43.21875 25.484375 
L 43.21875 27.484375 
z
M 52.203125 31.203125 
L 52.203125 0 
L 43.21875 0 
L 43.21875 8.296875 
Q 40.140625 3.328125 35.546875 0.953125 
Q 30.953125 -1.421875 24.3125 -1.421875 
Q 15.921875 -1.421875 10.953125 3.296875 
Q 6 8.015625 6 15.921875 
Q 6 25.140625 12.171875 29.828125 
Q 18.359375 34.515625 30.609375 34.515625 
L 43.21875 34.515625 
L 43.21875 35.40625 
Q 43.21875 41.609375 39.140625 45 
Q 35.0625 48.390625 27.6875 48.390625 
Q 23 48.390625 18.546875 47.265625 
Q 14.109375 46.140625 10.015625 43.890625 
L 10.015625 52.203125 
Q 14.9375 54.109375 19.578125 55.046875 
Q 24.21875 56 28.609375 56 
Q 40.484375 56 46.34375 49.84375 
Q 52.203125 43.703125 52.203125 31.203125 
z
" id="DejaVuSans-61"/>
      <path d="M 44.28125 53.078125 
L 44.28125 44.578125 
Q 40.484375 46.53125 36.375 47.5 
Q 32.28125 48.484375 27.875 48.484375 
Q 21.1875 48.484375 17.84375 46.4375 
Q 14.5 44.390625 14.5 40.28125 
Q 14.5 37.15625 16.890625 35.375 
Q 19.28125 33.59375 26.515625 31.984375 
L 29.59375 31.296875 
Q 39.15625 29.25 43.1875 25.515625 
Q 47.21875 21.78125 47.21875 15.09375 
Q 47.21875 7.46875 41.1875 3.015625 
Q 35.15625 -1.421875 24.609375 -1.421875 
Q 20.21875 -1.421875 15.453125 -0.5625 
Q 10.6875 0.296875 5.421875 2 
L 5.421875 11.28125 
Q 10.40625 8.6875 15.234375 7.390625 
Q 20.0625 6.109375 24.8125 6.109375 
Q 31.15625 6.109375 34.5625 8.28125 
Q 37.984375 10.453125 37.984375 14.40625 
Q 37.984375 18.0625 35.515625 20.015625 
Q 33.0625 21.96875 24.703125 23.78125 
L 21.578125 24.515625 
Q 13.234375 26.265625 9.515625 29.90625 
Q 5.8125 33.546875 5.8125 39.890625 
Q 5.8125 47.609375 11.28125 51.796875 
Q 16.75 56 26.8125 56 
Q 31.78125 56 36.171875 55.265625 
Q 40.578125 54.546875 44.28125 53.078125 
z
" id="DejaVuSans-73"/>
      <path d="M 25.390625 72.90625 
L 33.6875 72.90625 
L 8.296875 -9.28125 
L 0 -9.28125 
z
" id="DejaVuSans-2f"/>
      <path d="M 45.40625 46.390625 
L 45.40625 75.984375 
L 54.390625 75.984375 
L 54.390625 0 
L 45.40625 0 
L 45.40625 8.203125 
Q 42.578125 3.328125 38.25 0.953125 
Q 33.9375 -1.421875 27.875 -1.421875 
Q 17.96875 -1.421875 11.734375 6.484375 
Q 5.515625 14.40625 5.515625 27.296875 
Q 5.515625 40.1875 11.734375 48.09375 
Q 17.96875 56 27.875 56 
Q 33.9375 56 38.25 53.625 
Q 42.578125 51.265625 45.40625 46.390625 
z
M 14.796875 27.296875 
Q 14.796875 17.390625 18.875 11.75 
Q 22.953125 6.109375 30.078125 6.109375 
Q 37.203125 6.109375 41.296875 11.75 
Q 45.40625 17.390625 45.40625 27.296875 
Q 45.40625 37.203125 41.296875 42.84375 
Q 37.203125 48.484375 30.078125 48.484375 
Q 22.953125 48.484375 18.875 42.84375 
Q 14.796875 37.203125 14.796875 27.296875 
z
" id="DejaVuSans-64"/>
      <path d="M 9.421875 54.6875 
L 18.40625 54.6875 
L 18.40625 0 
L 9.421875 0 
z
M 9.421875 75.984375 
L 18.40625 75.984375 
L 18.40625 64.59375 
L 9.421875 64.59375 
z
" id="DejaVuSans-69"/>
      <path d="M 52 44.1875 
Q 55.375 50.25 60.0625 53.125 
Q 64.75 56 71.09375 56 
Q 79.640625 56 84.28125 50.015625 
Q 88.921875 44.046875 88.921875 33.015625 
L 88.921875 0 
L 79.890625 0 
L 79.890625 32.71875 
Q 79.890625 40.578125 77.09375 44.375 
Q 74.3125 48.1875 68.609375 48.1875 
Q 61.625 48.1875 57.5625 43.546875 
Q 53.515625 38.921875 53.515625 30.90625 
L 53.515625 0 
L 44.484375 0 
L 44.484375 32.71875 
Q 44.484375 40.625 41.703125 44.40625 
Q 38.921875 48.1875 33.109375 48.1875 
Q 26.21875 48.1875 22.15625 43.53125 
Q 18.109375 38.875 18.109375 30.90625 
L 18.109375 0 
L 9.078125 0 
L 9.078125 54.6875 
L 18.109375 54.6875 
L 18.109375 46.1875 
Q 21.1875 51.21875 25.484375 53.609375 
Q 29.78125 56 35.6875 56 
Q 41.65625 56 45.828125 52.96875 
Q 50 49.953125 52 44.1875 
z
" id="DejaVuSans-6d"/>
      <path d="M 54.890625 33.015625 
L 54.890625 0 
L 45.90625 0 
L 45.90625 32.71875 
Q 45.90625 40.484375 42.875 44.328125 
Q 39.84375 48.1875 33.796875 48.1875 
Q 26.515625 48.1875 22.3125 43.546875 
Q 18.109375 38.921875 18.109375 30.90625 
L 18.109375 0 
L 9.078125 0 
L 9.078125 54.6875 
L 18.109375 54.6875 
L 18.109375 46.1875 
Q 21.34375 51.125 25.703125 53.5625 
Q 30.078125 56 35.796875 56 
Q 45.21875 56 50.046875 50.171875 
Q 54.890625 44.34375 54.890625 33.015625 
z
" id="DejaVuSans-6e"/>
      <path d="M 8.015625 75.875 
L 15.828125 75.875 
Q 23.140625 64.359375 26.78125 53.3125 
Q 30.421875 42.28125 30.421875 31.390625 
Q 30.421875 20.453125 26.78125 9.375 
Q 23.140625 -1.703125 15.828125 -13.1875 
L 8.015625 -13.1875 
Q 14.5 -2 17.703125 9.0625 
Q 20.90625 20.125 20.90625 31.390625 
Q 20.90625 42.671875 17.703125 53.65625 
Q 14.5 64.65625 8.015625 75.875 
z
" id="DejaVuSans-29"/>
     </defs>
     <g transform="translate(107.211219 338.153594)scale(0.17 -0.17)">
      <use xlink:href="#DejaVuSans-6c"/>
      <use x="27.783203" xlink:href="#DejaVuSans-6f"/>
      <use x="88.964844" xlink:href="#DejaVuSans-67"/>
      <use x="152.441406" xlink:href="#DejaVuSans-31"/>
      <use x="216.064453" xlink:href="#DejaVuSans-30"/>
      <use x="279.6875" xlink:href="#DejaVuSans-28"/>
      <use x="318.701172" xlink:href="#DejaVuSans-23"/>
      <use x="402.490234" xlink:href="#DejaVuSans-20"/>
      <use x="434.277344" xlink:href="#DejaVuSans-66"/>
      <use x="469.404297" xlink:href="#DejaVuSans-2d"/>
      <use x="505.488281" xlink:href="#DejaVuSans-65"/>
      <use x="567.011719" xlink:href="#DejaVuSans-76"/>
      <use x="626.191406" xlink:href="#DejaVuSans-61"/>
      <use x="687.470703" xlink:href="#DejaVuSans-6c"/>
      <use x="715.253906" xlink:href="#DejaVuSans-73"/>
      <use x="767.353516" xlink:href="#DejaVuSans-20"/>
      <use x="799.140625" xlink:href="#DejaVuSans-2f"/>
      <use x="832.832031" xlink:href="#DejaVuSans-20"/>
      <use x="864.619141" xlink:href="#DejaVuSans-64"/>
      <use x="928.095703" xlink:href="#DejaVuSans-69"/>
      <use x="955.878906" xlink:href="#DejaVuSans-6d"/>
      <use x="1053.291016" xlink:href="#DejaVuSans-65"/>
      <use x="1114.814453" xlink:href="#DejaVuSans-6e"/>
      <use x="1178.193359" xlink:href="#DejaVuSans-73"/>
      <use x="1230.292969" xlink:href="#DejaVuSans-69"/>
      <use x="1258.076172" xlink:href="#DejaVuSans-6f"/>
      <use x="1319.257812" xlink:href="#DejaVuSans-6e"/>
      <use x="1382.636719" xlink:href="#DejaVuSans-29"/>
     </g>
    </g>
   </g>
   <g id="matplotlib.axis_2">
    <g id="ytick_1">
     <g id="line2d_11">
      <path clip-path="url(#p7865e91ab1)" d="M 56.12 294.88 
L 399.984 294.88 
" style="fill:none;stroke:#b0b0b0;stroke-linecap:square;stroke-width:0.8;"/>
     </g>
     <g id="line2d_12">
      <defs>
       <path d="M 0 0 
L -3.5 0 
" id="md5a1ac5fe6" style="stroke:#000000;stroke-width:0.8;"/>
      </defs>
      <g>
       <use style="stroke:#000000;stroke-width:0.8;" x="56.12" xlink:href="#md5a1ac5fe6" y="294.88"/>
      </g>
     </g>
     <g id="text_7">
      <!-- 0.0 -->
      <defs>
       <path d="M 10.6875 12.40625 
L 21 12.40625 
L 21 0 
L 10.6875 0 
z
" id="DejaVuSans-2e"/>
      </defs>
      <g transform="translate(23.675 300.95875)scale(0.16 -0.16)">
       <use xlink:href="#DejaVuSans-30"/>
       <use x="63.623047" xlink:href="#DejaVuSans-2e"/>
       <use x="95.410156" xlink:href="#DejaVuSans-30"/>
      </g>
     </g>
    </g>
    <g id="ytick_2">
     <g id="line2d_13">
      <path clip-path="url(#p7865e91ab1)" d="M 56.12 241.406733 
L 399.984 241.406733 
" style="fill:none;stroke:#b0b0b0;stroke-linecap:square;stroke-width:0.8;"/>
     </g>
     <g id="line2d_14">
      <g>
       <use style="stroke:#000000;stroke-width:0.8;" x="56.12" xlink:href="#md5a1ac5fe6" y="241.406733"/>
      </g>
     </g>
     <g id="text_8">
      <!-- 0.2 -->
      <g transform="translate(23.675 247.485483)scale(0.16 -0.16)">
       <use xlink:href="#DejaVuSans-30"/>
       <use x="63.623047" xlink:href="#DejaVuSans-2e"/>
       <use x="95.410156" xlink:href="#DejaVuSans-32"/>
      </g>
     </g>
    </g>
    <g id="ytick_3">
     <g id="line2d_15">
      <path clip-path="url(#p7865e91ab1)" d="M 56.12 187.933465 
L 399.984 187.933465 
" style="fill:none;stroke:#b0b0b0;stroke-linecap:square;stroke-width:0.8;"/>
     </g>
     <g id="line2d_16">
      <g>
       <use style="stroke:#000000;stroke-width:0.8;" x="56.12" xlink:href="#md5a1ac5fe6" y="187.933465"/>
      </g>
     </g>
     <g id="text_9">
      <!-- 0.4 -->
      <g transform="translate(23.675 194.012215)scale(0.16 -0.16)">
       <use xlink:href="#DejaVuSans-30"/>
       <use x="63.623047" xlink:href="#DejaVuSans-2e"/>
       <use x="95.410156" xlink:href="#DejaVuSans-34"/>
      </g>
     </g>
    </g>
    <g id="ytick_4">
     <g id="line2d_17">
      <path clip-path="url(#p7865e91ab1)" d="M 56.12 134.460198 
L 399.984 134.460198 
" style="fill:none;stroke:#b0b0b0;stroke-linecap:square;stroke-width:0.8;"/>
     </g>
     <g id="line2d_18">
      <g>
       <use style="stroke:#000000;stroke-width:0.8;" x="56.12" xlink:href="#md5a1ac5fe6" y="134.460198"/>
      </g>
     </g>
     <g id="text_10">
      <!-- 0.6 -->
      <g transform="translate(23.675 140.538948)scale(0.16 -0.16)">
       <use xlink:href="#DejaVuSans-30"/>
       <use x="63.623047" xlink:href="#DejaVuSans-2e"/>
       <use x="95.410156" xlink:href="#DejaVuSans-36"/>
      </g>
     </g>
    </g>
    <g id="ytick_5">
     <g id="line2d_19">
      <path clip-path="url(#p7865e91ab1)" d="M 56.12 80.986931 
L 399.984 80.986931 
" style="fill:none;stroke:#b0b0b0;stroke-linecap:square;stroke-width:0.8;"/>
     </g>
     <g id="line2d_20">
      <g>
       <use style="stroke:#000000;stroke-width:0.8;" x="56.12" xlink:href="#md5a1ac5fe6" y="80.986931"/>
      </g>
     </g>
     <g id="text_11">
      <!-- 0.8 -->
      <g transform="translate(23.675 87.065681)scale(0.16 -0.16)">
       <use xlink:href="#DejaVuSans-30"/>
       <use x="63.623047" xlink:href="#DejaVuSans-2e"/>
       <use x="95.410156" xlink:href="#DejaVuSans-38"/>
      </g>
     </g>
    </g>
    <g id="ytick_6">
     <g id="line2d_21">
      <path clip-path="url(#p7865e91ab1)" d="M 56.12 27.513663 
L 399.984 27.513663 
" style="fill:none;stroke:#b0b0b0;stroke-linecap:square;stroke-width:0.8;"/>
     </g>
     <g id="line2d_22">
      <g>
       <use style="stroke:#000000;stroke-width:0.8;" x="56.12" xlink:href="#md5a1ac5fe6" y="27.513663"/>
      </g>
     </g>
     <g id="text_12">
      <!-- 1.0 -->
      <g transform="translate(23.675 33.592413)scale(0.16 -0.16)">
       <use xlink:href="#DejaVuSans-31"/>
       <use x="63.623047" xlink:href="#DejaVuSans-2e"/>
       <use x="95.410156" xlink:href="#DejaVuSans-30"/>
      </g>
     </g>
    </g>
    <g id="text_13">
     <!-- Fraction of function,target pairs -->
     <defs>
      <path d="M 9.8125 72.90625 
L 51.703125 72.90625 
L 51.703125 64.59375 
L 19.671875 64.59375 
L 19.671875 43.109375 
L 48.578125 43.109375 
L 48.578125 34.8125 
L 19.671875 34.8125 
L 19.671875 0 
L 9.8125 0 
z
" id="DejaVuSans-46"/>
      <path d="M 41.109375 46.296875 
Q 39.59375 47.171875 37.8125 47.578125 
Q 36.03125 48 33.890625 48 
Q 26.265625 48 22.1875 43.046875 
Q 18.109375 38.09375 18.109375 28.8125 
L 18.109375 0 
L 9.078125 0 
L 9.078125 54.6875 
L 18.109375 54.6875 
L 18.109375 46.1875 
Q 20.953125 51.171875 25.484375 53.578125 
Q 30.03125 56 36.53125 56 
Q 37.453125 56 38.578125 55.875 
Q 39.703125 55.765625 41.0625 55.515625 
z
" id="DejaVuSans-72"/>
      <path d="M 48.78125 52.59375 
L 48.78125 44.1875 
Q 44.96875 46.296875 41.140625 47.34375 
Q 37.3125 48.390625 33.40625 48.390625 
Q 24.65625 48.390625 19.8125 42.84375 
Q 14.984375 37.3125 14.984375 27.296875 
Q 14.984375 17.28125 19.8125 11.734375 
Q 24.65625 6.203125 33.40625 6.203125 
Q 37.3125 6.203125 41.140625 7.25 
Q 44.96875 8.296875 48.78125 10.40625 
L 48.78125 2.09375 
Q 45.015625 0.34375 40.984375 -0.53125 
Q 36.96875 -1.421875 32.421875 -1.421875 
Q 20.0625 -1.421875 12.78125 6.34375 
Q 5.515625 14.109375 5.515625 27.296875 
Q 5.515625 40.671875 12.859375 48.328125 
Q 20.21875 56 33.015625 56 
Q 37.15625 56 41.109375 55.140625 
Q 45.0625 54.296875 48.78125 52.59375 
z
" id="DejaVuSans-63"/>
      <path d="M 18.3125 70.21875 
L 18.3125 54.6875 
L 36.8125 54.6875 
L 36.8125 47.703125 
L 18.3125 47.703125 
L 18.3125 18.015625 
Q 18.3125 11.328125 20.140625 9.421875 
Q 21.96875 7.515625 27.59375 7.515625 
L 36.8125 7.515625 
L 36.8125 0 
L 27.59375 0 
Q 17.1875 0 13.234375 3.875 
Q 9.28125 7.765625 9.28125 18.015625 
L 9.28125 47.703125 
L 2.6875 47.703125 
L 2.6875 54.6875 
L 9.28125 54.6875 
L 9.28125 70.21875 
z
" id="DejaVuSans-74"/>
      <path d="M 8.5 21.578125 
L 8.5 54.6875 
L 17.484375 54.6875 
L 17.484375 21.921875 
Q 17.484375 14.15625 20.5 10.265625 
Q 23.53125 6.390625 29.59375 6.390625 
Q 36.859375 6.390625 41.078125 11.03125 
Q 45.3125 15.671875 45.3125 23.6875 
L 45.3125 54.6875 
L 54.296875 54.6875 
L 54.296875 0 
L 45.3125 0 
L 45.3125 8.40625 
Q 42.046875 3.421875 37.71875 1 
Q 33.40625 -1.421875 27.6875 -1.421875 
Q 18.265625 -1.421875 13.375 4.4375 
Q 8.5 10.296875 8.5 21.578125 
z
M 31.109375 56 
z
" id="DejaVuSans-75"/>
      <path d="M 11.71875 12.40625 
L 22.015625 12.40625 
L 22.015625 4 
L 14.015625 -11.625 
L 7.71875 -11.625 
L 11.71875 4 
z
" id="DejaVuSans-2c"/>
      <path d="M 18.109375 8.203125 
L 18.109375 -20.796875 
L 9.078125 -20.796875 
L 9.078125 54.6875 
L 18.109375 54.6875 
L 18.109375 46.390625 
Q 20.953125 51.265625 25.265625 53.625 
Q 29.59375 56 35.59375 56 
Q 45.5625 56 51.78125 48.09375 
Q 58.015625 40.1875 58.015625 27.296875 
Q 58.015625 14.40625 51.78125 6.484375 
Q 45.5625 -1.421875 35.59375 -1.421875 
Q 29.59375 -1.421875 25.265625 0.953125 
Q 20.953125 3.328125 18.109375 8.203125 
z
M 48.6875 27.296875 
Q 48.6875 37.203125 44.609375 42.84375 
Q 40.53125 48.484375 33.40625 48.484375 
Q 26.265625 48.484375 22.1875 42.84375 
Q 18.109375 37.203125 18.109375 27.296875 
Q 18.109375 17.390625 22.1875 11.75 
Q 26.265625 6.109375 33.40625 6.109375 
Q 40.53125 6.109375 44.609375 11.75 
Q 48.6875 17.390625 48.6875 27.296875 
z
" id="DejaVuSans-70"/>
     </defs>
     <g transform="translate(16.139531 294.999375)rotate(-90)scale(0.17 -0.17)">
      <use xlink:href="#DejaVuSans-46"/>
      <use x="57.410156" xlink:href="#DejaVuSans-72"/>
      <use x="98.523438" xlink:href="#DejaVuSans-61"/>
      <use x="159.802734" xlink:href="#DejaVuSans-63"/>
      <use x="214.783203" xlink:href="#DejaVuSans-74"/>
      <use x="253.992188" xlink:href="#DejaVuSans-69"/>
      <use x="281.775391" xlink:href="#DejaVuSans-6f"/>
      <use x="342.957031" xlink:href="#DejaVuSans-6e"/>
      <use x="406.335938" xlink:href="#DejaVuSans-20"/>
      <use x="438.123047" xlink:href="#DejaVuSans-6f"/>
      <use x="499.304688" xlink:href="#DejaVuSans-66"/>
      <use x="534.509766" xlink:href="#DejaVuSans-20"/>
      <use x="566.296875" xlink:href="#DejaVuSans-66"/>
      <use x="601.501953" xlink:href="#DejaVuSans-75"/>
      <use x="664.880859" xlink:href="#DejaVuSans-6e"/>
      <use x="728.259766" xlink:href="#DejaVuSans-63"/>
      <use x="783.240234" xlink:href="#DejaVuSans-74"/>
      <use x="822.449219" xlink:href="#DejaVuSans-69"/>
      <use x="850.232422" xlink:href="#DejaVuSans-6f"/>
      <use x="911.414062" xlink:href="#DejaVuSans-6e"/>
      <use x="974.792969" xlink:href="#DejaVuSans-2c"/>
      <use x="1006.580078" xlink:href="#DejaVuSans-74"/>
      <use x="1045.789062" xlink:href="#DejaVuSans-61"/>
      <use x="1107.068359" xlink:href="#DejaVuSans-72"/>
      <use x="1148.166016" xlink:href="#DejaVuSans-67"/>
      <use x="1211.642578" xlink:href="#DejaVuSans-65"/>
      <use x="1273.166016" xlink:href="#DejaVuSans-74"/>
      <use x="1312.375" xlink:href="#DejaVuSans-20"/>
      <use x="1344.162109" xlink:href="#DejaVuSans-70"/>
      <use x="1407.638672" xlink:href="#DejaVuSans-61"/>
      <use x="1468.917969" xlink:href="#DejaVuSans-69"/>
      <use x="1496.701172" xlink:href="#DejaVuSans-72"/>
      <use x="1537.814453" xlink:href="#DejaVuSans-73"/>
     </g>
    </g>
   </g>
   <g id="line2d_23">
    <defs>
     <path d="M 0 1.5 
C 0.397805 1.5 0.77937 1.341951 1.06066 1.06066 
C 1.341951 0.77937 1.5 0.397805 1.5 0 
C 1.5 -0.397805 1.341951 -0.77937 1.06066 -1.06066 
C 0.77937 -1.341951 0.397805 -1.5 0 -1.5 
C -0.397805 -1.5 -0.77937 -1.341951 -1.06066 -1.06066 
C -1.341951 -0.77937 -1.5 -0.397805 -1.5 0 
C -1.5 0.397805 -1.341951 0.77937 -1.06066 1.06066 
C -0.77937 1.341951 -0.397805 1.5 0 1.5 
z
" id="mf3d3449b21" style="stroke:#00bfbf;"/>
    </defs>
    <g>
     <use style="fill:#00bfbf;stroke:#00bfbf;" x="337.277517" xlink:href="#mf3d3449b21" y="184.787979"/>
     <use style="fill:#00bfbf;stroke:#00bfbf;" x="337.277517" xlink:href="#mf3d3449b21" y="184.787979"/>
    </g>
   </g>
   <g id="line2d_24">
    <path d="M 56.12 294.88 
L 56.12 293.307257 
L 79.971009 293.307257 
L 79.971009 292.783009 
L 83.810164 292.783009 
L 83.810164 291.734514 
L 89.599124 291.734514 
L 89.599124 289.637523 
L 95.735668 289.637523 
L 95.735668 286.492036 
L 98.872486 286.492036 
L 98.872486 283.870798 
L 104.865056 283.870798 
L 104.865056 283.34655 
L 105.848459 283.34655 
L 105.848459 281.773807 
L 106.778678 281.773807 
L 106.778678 281.249559 
L 108.500601 281.249559 
L 108.500601 279.152568 
L 111.500328 279.152568 
L 111.500328 278.104073 
L 112.175115 278.104073 
L 112.175115 277.579825 
L 115.747522 277.579825 
L 115.747522 276.53133 
L 118.245359 276.53133 
L 118.245359 274.434339 
L 119.586677 274.434339 
L 119.586677 273.910091 
L 125.680156 273.910091 
L 125.680156 271.8131 
L 126.56265 271.8131 
L 126.56265 269.716109 
L 128.967235 269.716109 
L 128.967235 269.191862 
L 134.648999 269.191862 
L 134.648999 268.667614 
L 136.991135 268.667614 
L 136.991135 268.143366 
L 137.454074 268.143366 
L 137.454074 265.522128 
L 139.052299 265.522128 
L 139.052299 264.99788 
L 141.016963 264.99788 
L 141.016963 263.425137 
L 142.212226 263.425137 
L 142.212226 262.376641 
L 142.327309 262.376641 
L 142.327309 261.852394 
L 144.174398 261.852394 
L 144.174398 260.803898 
L 148.360314 260.803898 
L 148.360314 260.279651 
L 152.183306 260.279651 
L 152.183306 259.755403 
L 157.293783 259.755403 
L 157.293783 258.706907 
L 157.72096 258.706907 
L 157.72096 258.18266 
L 158.985929 258.18266 
L 158.985929 256.609917 
L 159.245304 256.609917 
L 159.245304 254.512926 
L 168.83046 254.512926 
L 168.83046 251.891687 
L 169.69328 251.891687 
L 169.69328 250.318944 
L 169.809766 250.318944 
L 169.809766 249.270448 
L 174.228787 249.270448 
L 174.228787 248.746201 
L 175.558877 248.746201 
L 175.558877 248.221953 
L 175.953275 248.221953 
L 175.953275 247.697705 
L 178.77861 247.697705 
L 178.77861 246.64921 
L 180.358146 246.64921 
L 180.40838 245.076467 
L 181.324073 245.076467 
L 181.324073 244.027971 
L 183.309511 244.027971 
L 183.309511 242.455228 
L 185.184616 242.455228 
L 185.241523 239.83399 
L 186.06426 239.83399 
L 186.06426 237.212751 
L 187.616854 237.212751 
L 187.616854 234.067265 
L 189.01807 234.067265 
L 189.01807 233.543017 
L 189.244652 233.543017 
L 189.244652 232.494521 
L 189.50528 232.494521 
L 189.50528 231.970274 
L 189.834675 231.970274 
L 189.834675 231.446026 
L 190.786632 231.446026 
L 190.786632 230.397531 
L 190.936893 230.397531 
L 190.936893 229.873283 
L 191.805441 229.873283 
L 191.805441 229.349035 
L 192.779503 229.349035 
L 192.779503 227.776292 
L 193.67238 227.776292 
L 193.67238 227.252044 
L 193.788005 227.252044 
L 193.788005 226.203549 
L 194.598325 226.203549 
L 194.598325 225.679301 
L 195.513494 225.679301 
L 195.513494 225.155053 
L 196.122806 225.155053 
L 196.122806 224.106558 
L 199.251237 224.106558 
L 199.251237 223.058063 
L 201.654728 223.058063 
L 201.654728 222.533815 
L 205.204781 222.533815 
L 205.204781 221.485319 
L 206.474287 221.485319 
L 206.474287 220.961072 
L 281.894474 220.961072 
L 281.990964 212.573108 
L 282.015677 212.573108 
L 282.101978 207.330631 
L 293.845156 207.330631 
L 293.913492 200.515411 
L 300.81628 200.515411 
L 300.862097 195.272933 
L 305.755103 195.272933 
L 305.778155 193.70019 
L 309.591186 193.70019 
L 309.607854 192.651695 
L 312.730259 192.651695 
L 312.742534 190.030456 
L 315.389727 190.030456 
L 315.389727 189.506209 
L 319.707687 189.506209 
L 319.707687 188.981961 
L 321.525851 188.981961 
L 321.525851 188.457713 
L 323.157254 188.457713 
L 323.163682 186.360722 
L 328.494476 186.360722 
L 328.494476 185.836474 
L 331.628061 185.836474 
L 331.628061 185.312227 
L 333.429677 185.312227 
L 333.429677 185.312227 
" style="fill:none;stroke:#00bfbf;stroke-linecap:square;stroke-width:1.5;"/>
   </g>
   <g id="line2d_25">
    <defs>
     <path d="M -6 0 
L 6 0 
M 0 6 
L 0 -6 
" id="m7b7cffee2c" style="stroke:#00bfbf;stroke-width:1.5;"/>
    </defs>
    <g>
     <use style="fill-opacity:0;stroke:#00bfbf;stroke-width:1.5;" x="128.967235" xlink:href="#m7b7cffee2c" y="269.191862"/>
     <use style="fill-opacity:0;stroke:#00bfbf;stroke-width:1.5;" x="206.474287" xlink:href="#m7b7cffee2c" y="221.485319"/>
     <use style="fill-opacity:0;stroke:#00bfbf;stroke-width:1.5;" x="312.741263" xlink:href="#m7b7cffee2c" y="191.078952"/>
     <use style="fill-opacity:0;stroke:#00bfbf;stroke-width:1.5;" x="331.628061" xlink:href="#m7b7cffee2c" y="185.312227"/>
     <use style="fill-opacity:0;stroke:#00bfbf;stroke-width:1.5;" x="333.429677" xlink:href="#m7b7cffee2c" y="185.312227"/>
    </g>
   </g>
   <g id="line2d_26">
    <path style="fill:none;stroke:#00bfbf;stroke-linecap:square;stroke-width:1.5;"/>
    <g/>
   </g>
   <g id="line2d_27">
    <path clip-path="url(#p7865e91ab1)" d="M 281.888522 220.961072 
" style="fill:none;stroke:#00bfbf;stroke-linecap:square;stroke-width:1.5;"/>
    <defs>
     <path d="M -12 12 
L 12 -12 
M -12 -12 
L 12 12 
" id="m33ec1b4972" style="stroke:#00bfbf;stroke-width:3;"/>
    </defs>
    <g clip-path="url(#p7865e91ab1)">
     <use style="fill:#00bfbf;stroke:#00bfbf;stroke-width:3;" x="281.888522" xlink:href="#m33ec1b4972" y="220.961072"/>
    </g>
   </g>
   <g id="line2d_28">
    <defs>
     <path d="M 0 1.5 
C 0.397805 1.5 0.77937 1.341951 1.06066 1.06066 
C 1.341951 0.77937 1.5 0.397805 1.5 0 
C 1.5 -0.397805 1.341951 -0.77937 1.06066 -1.06066 
C 0.77937 -1.341951 0.397805 -1.5 0 -1.5 
C -0.397805 -1.5 -0.77937 -1.341951 -1.06066 -1.06066 
C -1.341951 -0.77937 -1.5 -0.397805 -1.5 0 
C -1.5 0.397805 -1.341951 0.77937 -1.06066 1.06066 
C -0.77937 1.341951 -0.397805 1.5 0 1.5 
z
" id="mba006d0550" style="stroke:#008000;"/>
    </defs>
    <g>
     <use style="fill:#008000;stroke:#008000;" x="336.576019" xlink:href="#mba006d0550" y="195.272933"/>
     <use style="fill:#008000;stroke:#008000;" x="336.576019" xlink:href="#mba006d0550" y="195.272933"/>
    </g>
   </g>
   <g id="line2d_29">
    <path d="M 84.92054 294.88 
L 84.92054 294.355752 
L 86.946982 294.355752 
L 86.946982 293.831505 
L 107.077901 293.831505 
L 107.077901 293.307257 
L 124.961042 293.307257 
L 124.961042 292.783009 
L 126.56265 292.783009 
L 126.56265 292.258761 
L 132.487617 292.258761 
L 132.487617 291.210266 
L 134.408368 291.210266 
L 134.408368 290.686018 
L 134.768065 290.686018 
L 134.768065 289.637523 
L 136.781317 289.637523 
L 136.781317 289.113275 
L 137.60566 289.113275 
L 137.60566 288.589027 
L 138.101512 288.589027 
L 138.101512 288.06478 
L 141.464926 288.06478 
L 141.464926 286.492036 
L 142.250673 286.492036 
L 142.327309 284.919293 
L 148.600945 284.919293 
L 148.600945 284.395046 
L 149.928983 284.395046 
L 149.928983 283.34655 
L 153.188256 283.34655 
L 153.188256 282.822302 
L 155.753019 282.822302 
L 155.753019 281.249559 
L 157.953776 281.249559 
L 157.953776 280.725312 
L 163.404677 280.725312 
L 163.404677 279.676816 
L 165.194915 279.676816 
L 165.194915 279.152568 
L 165.575259 279.152568 
L 165.575259 278.628321 
L 166.797873 278.628321 
L 166.797873 277.579825 
L 167.413692 277.579825 
L 167.413692 277.055578 
L 167.783325 277.055578 
L 167.783325 276.007082 
L 168.797658 276.007082 
L 168.797658 274.434339 
L 169.267278 274.434339 
L 169.267278 273.910091 
L 169.677689 273.910091 
L 169.72442 271.8131 
L 169.879281 271.8131 
L 169.879281 270.764605 
L 170.260441 270.764605 
L 170.260441 269.716109 
L 170.662825 269.716109 
L 170.662825 269.191862 
L 173.644277 269.191862 
L 173.644277 268.667614 
L 174.120693 268.667614 
L 174.120693 268.143366 
L 174.240755 268.143366 
L 174.240755 267.619119 
L 175.206202 267.619119 
L 175.206202 266.570623 
L 175.352628 266.570623 
L 175.352628 266.046375 
L 175.958689 266.046375 
L 175.958689 265.522128 
L 176.669253 265.522128 
L 176.669253 264.473632 
L 180.231918 264.473632 
L 180.29094 262.900889 
L 180.780525 262.900889 
L 180.780525 261.852394 
L 181.032288 261.852394 
L 181.032288 261.328146 
L 181.7662 261.328146 
L 181.7662 259.755403 
L 182.253666 259.755403 
L 182.253666 259.231155 
L 183.638298 259.231155 
L 183.638298 258.18266 
L 185.815745 258.18266 
L 185.815745 257.658412 
L 186.374374 257.658412 
L 186.374374 255.561421 
L 186.719594 255.561421 
L 186.719594 255.037173 
L 187.367624 255.037173 
L 187.367624 254.512926 
L 187.932849 254.512926 
L 187.932849 253.988678 
L 189.086359 253.988678 
L 189.086359 253.46443 
L 189.46582 253.46443 
L 189.46582 252.415935 
L 189.686618 252.415935 
L 189.686618 251.891687 
L 189.80807 251.891687 
L 189.80807 251.367439 
L 190.542522 251.367439 
L 190.542522 250.843192 
L 190.905129 250.843192 
L 190.945958 247.697705 
L 192.013235 247.697705 
L 192.013235 247.173458 
L 192.681469 247.173458 
L 192.681469 246.64921 
L 192.885079 246.64921 
L 192.885079 245.076467 
L 193.233716 245.076467 
L 193.233716 244.027971 
L 193.415237 244.027971 
L 193.458362 242.979476 
L 193.822541 242.979476 
L 193.822541 241.406733 
L 194.827653 241.406733 
L 194.827653 240.882485 
L 196.176383 240.882485 
L 196.176383 239.83399 
L 197.615632 239.83399 
L 197.615632 239.309742 
L 197.95362 239.309742 
L 197.95362 238.785494 
L 198.989208 238.785494 
L 198.989208 237.212751 
L 199.925702 237.212751 
L 199.925702 236.688503 
L 200.374192 236.688503 
L 200.374192 234.591512 
L 200.548809 234.591512 
L 200.548809 234.067265 
L 201.112535 234.067265 
L 201.112535 233.543017 
L 202.236865 233.543017 
L 202.236865 232.494521 
L 202.979869 232.494521 
L 203.087596 231.446026 
L 203.123355 231.446026 
L 203.123355 230.921778 
L 203.657513 230.921778 
L 203.657513 229.873283 
L 204.122999 229.873283 
L 204.122999 229.349035 
L 204.768025 229.349035 
L 204.768025 228.30054 
L 205.190928 228.30054 
L 205.190928 227.776292 
L 205.790163 227.776292 
L 205.790163 227.252044 
L 206.164648 227.252044 
L 206.164648 226.203549 
L 206.276538 226.203549 
L 206.276538 225.679301 
L 207.518731 225.679301 
L 207.518731 225.155053 
L 213.622734 225.155053 
L 213.622734 224.106558 
L 275.063085 224.106558 
L 275.173519 215.718594 
L 275.175145 215.718594 
L 275.254161 213.097356 
L 286.915096 213.097356 
L 287.009707 206.806383 
L 293.878595 206.806383 
L 293.975974 201.563906 
L 298.821184 201.563906 
L 298.885161 198.942667 
L 302.655554 198.942667 
L 302.67158 197.369924 
L 308.436818 197.369924 
L 308.436818 196.845677 
L 310.720102 196.845677 
L 310.720102 196.321429 
L 312.769656 196.321429 
L 312.769656 195.797181 
L 333.429677 195.797181 
L 333.429677 195.797181 
" style="fill:none;stroke:#008000;stroke-linecap:square;stroke-width:1.5;"/>
   </g>
   <g id="line2d_30">
    <defs>
     <path d="M -0 6 
L 6 -6 
L -6 -6 
z
" id="m9f79e9099f" style="stroke:#008000;stroke-linejoin:miter;stroke-width:1.5;"/>
    </defs>
    <g>
     <use style="fill-opacity:0;stroke:#008000;stroke-linejoin:miter;stroke-width:1.5;" x="169.879281" xlink:href="#m9f79e9099f" y="270.764605"/>
     <use style="fill-opacity:0;stroke:#008000;stroke-linejoin:miter;stroke-width:1.5;" x="213.622734" xlink:href="#m9f79e9099f" y="225.155053"/>
     <use style="fill-opacity:0;stroke:#008000;stroke-linejoin:miter;stroke-width:1.5;" x="302.655554" xlink:href="#m9f79e9099f" y="198.41842"/>
     <use style="fill-opacity:0;stroke:#008000;stroke-linejoin:miter;stroke-width:1.5;" x="312.769656" xlink:href="#m9f79e9099f" y="195.797181"/>
     <use style="fill-opacity:0;stroke:#008000;stroke-linejoin:miter;stroke-width:1.5;" x="333.429677" xlink:href="#m9f79e9099f" y="195.797181"/>
    </g>
   </g>
   <g id="line2d_31">
    <path style="fill:none;stroke:#008000;stroke-linecap:square;stroke-width:1.5;"/>
    <g/>
   </g>
   <g id="line2d_32">
    <path clip-path="url(#p7865e91ab1)" d="M 274.912549 224.106558 
" style="fill:none;stroke:#008000;stroke-linecap:square;stroke-width:1.5;"/>
    <defs>
     <path d="M -12 12 
L 12 -12 
M -12 -12 
L 12 12 
" id="m056e39d640" style="stroke:#008000;stroke-width:3;"/>
    </defs>
    <g clip-path="url(#p7865e91ab1)">
     <use style="fill:#008000;stroke:#008000;stroke-width:3;" x="274.912549" xlink:href="#m056e39d640" y="224.106558"/>
    </g>
   </g>
   <g id="line2d_33">
    <defs>
     <path d="M 0 1.5 
C 0.397805 1.5 0.77937 1.341951 1.06066 1.06066 
C 1.341951 0.77937 1.5 0.397805 1.5 0 
C 1.5 -0.397805 1.341951 -0.77937 1.06066 -1.06066 
C 0.77937 -1.341951 0.397805 -1.5 0 -1.5 
C -0.397805 -1.5 -0.77937 -1.341951 -1.06066 -1.06066 
C -1.341951 -0.77937 -1.5 -0.397805 -1.5 0 
C -1.5 0.397805 -1.341951 0.77937 -1.06066 1.06066 
C -0.77937 1.341951 -0.397805 1.5 0 1.5 
z
" id="mab4054bcf7" style="stroke:#0000ff;"/>
    </defs>
    <g>
     <use style="fill:#0000ff;stroke:#0000ff;" x="350.39409" xlink:href="#mab4054bcf7" y="184.787979"/>
     <use style="fill:#0000ff;stroke:#0000ff;" x="350.39409" xlink:href="#mab4054bcf7" y="184.787979"/>
    </g>
   </g>
   <g id="line2d_34">
    <path d="M 151.68458 294.88 
L 151.68458 293.831505 
L 152.967205 293.831505 
L 152.967205 292.783009 
L 155.015605 292.783009 
L 155.015605 292.258761 
L 160.285818 292.258761 
L 160.285818 291.734514 
L 160.857778 291.734514 
L 160.857778 291.210266 
L 160.982338 291.210266 
L 160.982338 289.637523 
L 163.355193 289.637523 
L 163.355193 289.113275 
L 166.097841 289.113275 
L 166.097841 288.589027 
L 167.170003 288.589027 
L 167.170003 288.06478 
L 168.148593 288.06478 
L 168.148593 287.016284 
L 169.267278 287.016284 
L 169.267278 285.967789 
L 170.090724 285.967789 
L 170.090724 285.443541 
L 170.479194 285.443541 
L 170.479194 284.919293 
L 170.824099 284.919293 
L 170.824099 284.395046 
L 171.628051 284.395046 
L 171.628051 282.822302 
L 173.138991 282.822302 
L 173.138991 282.298055 
L 173.298967 282.298055 
L 173.397259 281.249559 
L 174.221602 281.249559 
L 174.221602 280.725312 
L 176.001945 280.725312 
L 176.001945 280.201064 
L 177.609312 280.201064 
L 177.609312 279.676816 
L 177.977189 279.676816 
L 178.080867 278.104073 
L 178.461383 278.104073 
L 178.52306 276.007082 
L 179.079258 276.007082 
L 179.079258 275.482834 
L 180.058747 275.482834 
L 180.058747 274.958587 
L 181.800159 274.958587 
L 181.800159 273.910091 
L 182.283679 273.910091 
L 182.283679 273.385844 
L 182.675019 273.385844 
L 182.675019 272.861596 
L 183.053354 272.861596 
L 183.053354 272.337348 
L 183.177639 272.337348 
L 183.177639 270.764605 
L 183.570259 270.764605 
L 183.570259 270.240357 
L 184.265583 270.240357 
L 184.265583 269.191862 
L 184.492568 269.191862 
L 184.492568 267.619119 
L 185.091262 267.619119 
L 185.095082 266.046375 
L 185.288802 266.046375 
L 185.288802 265.522128 
L 185.864518 265.522128 
L 185.955598 263.425137 
L 186.06426 263.425137 
L 186.150699 260.803898 
L 186.325841 260.803898 
L 186.325841 260.279651 
L 186.702207 260.279651 
L 186.702207 259.755403 
L 187.364277 259.755403 
L 187.364277 259.231155 
L 188.178338 259.231155 
L 188.178338 258.706907 
L 188.845386 258.706907 
L 188.863807 257.134164 
L 189.531865 257.134164 
L 189.614312 256.085669 
L 189.963248 256.085669 
L 189.963248 255.561421 
L 190.169263 255.561421 
L 190.200521 252.940182 
L 191.155826 252.940182 
L 191.155826 252.415935 
L 191.29492 252.415935 
L 191.334836 250.318944 
L 191.637816 250.318944 
L 191.637816 249.794696 
L 192.032813 249.794696 
L 192.083783 248.746201 
L 192.271069 248.746201 
L 192.271069 248.221953 
L 193.01494 248.221953 
L 193.099107 247.173458 
L 193.154193 247.173458 
L 193.251955 246.124962 
L 193.639865 246.124962 
L 193.639865 245.600714 
L 193.898278 245.600714 
L 193.898278 245.076467 
L 194.399294 245.076467 
L 194.445941 243.503724 
L 195.077503 243.503724 
L 195.154311 242.455228 
L 195.268883 242.455228 
L 195.268883 241.93098 
L 196.237124 241.93098 
L 196.322864 240.358237 
L 196.768545 240.358237 
L 196.768545 239.309742 
L 196.955525 239.309742 
L 196.955525 238.785494 
L 197.072078 238.785494 
L 197.072078 237.736999 
L 197.584238 237.736999 
L 197.628542 236.688503 
L 197.944572 236.688503 
L 197.944572 236.164255 
L 198.438799 236.164255 
L 198.438799 235.640008 
L 198.571953 235.640008 
L 198.571953 234.591512 
L 199.458025 234.591512 
L 199.458025 233.543017 
L 200.284898 233.543017 
L 200.343254 232.494521 
L 202.177053 232.494521 
L 202.177053 231.446026 
L 202.654415 231.446026 
L 202.654415 230.921778 
L 204.389312 230.921778 
L 204.389312 230.397531 
L 206.898986 230.397531 
L 206.898986 229.873283 
L 266.349073 229.873283 
L 266.459773 225.155053 
L 266.477345 225.155053 
L 266.556247 221.485319 
L 266.665626 221.485319 
L 266.665626 220.961072 
L 278.188779 220.961072 
L 278.266918 213.621604 
L 278.334248 213.621604 
L 278.334248 213.097356 
L 285.107669 213.097356 
L 285.20783 209.427622 
L 290.059466 209.427622 
L 290.117901 204.709392 
L 293.885306 204.709392 
L 293.928545 200.515411 
L 301.955022 200.515411 
L 301.959733 199.466915 
L 303.971763 199.466915 
L 303.990533 197.894172 
L 305.76927 197.894172 
L 305.787033 195.272933 
L 307.429292 195.272933 
L 307.431478 194.224438 
L 308.915943 194.224438 
L 308.915943 193.70019 
L 310.290025 193.70019 
L 310.290025 193.175943 
L 311.559738 193.175943 
L 311.559738 192.651695 
L 312.739296 192.651695 
L 312.742485 191.078952 
L 313.848187 191.078952 
L 313.861749 190.030456 
L 314.892728 190.030456 
L 314.892728 189.506209 
L 315.87663 189.506209 
L 315.87663 188.981961 
L 318.525302 188.981961 
L 318.531799 187.409218 
L 323.469626 187.409218 
L 323.469626 186.88497 
L 329.604896 186.88497 
L 329.604896 186.360722 
L 331.629743 186.360722 
L 331.629743 185.836474 
L 333.429677 185.836474 
L 333.429677 185.836474 
" style="fill:none;stroke:#0000ff;stroke-linecap:square;stroke-width:1.5;"/>
   </g>
   <g id="line2d_35">
    <defs>
     <path d="M 0 -6 
L -1.347084 -1.854102 
L -5.706339 -1.854102 
L -2.179628 0.708204 
L -3.526712 4.854102 
L -0 2.291796 
L 3.526712 4.854102 
L 2.179628 0.708204 
L 5.706339 -1.854102 
L 1.347084 -1.854102 
z
" id="me76f1da309" style="stroke:#0000ff;stroke-linejoin:bevel;stroke-width:1.5;"/>
    </defs>
    <g>
     <use style="fill-opacity:0;stroke:#0000ff;stroke-linejoin:bevel;stroke-width:1.5;" x="206.898986" xlink:href="#me76f1da309" y="230.397531"/>
     <use style="fill-opacity:0;stroke:#0000ff;stroke-linejoin:bevel;stroke-width:1.5;" x="303.990533" xlink:href="#me76f1da309" y="197.894172"/>
     <use style="fill-opacity:0;stroke:#0000ff;stroke-linejoin:bevel;stroke-width:1.5;" x="331.629743" xlink:href="#me76f1da309" y="185.836474"/>
     <use style="fill-opacity:0;stroke:#0000ff;stroke-linejoin:bevel;stroke-width:1.5;" x="333.429677" xlink:href="#me76f1da309" y="185.836474"/>
    </g>
   </g>
   <g id="line2d_36">
    <path style="fill:none;stroke:#0000ff;stroke-linecap:square;stroke-width:1.5;"/>
    <g/>
   </g>
   <g id="line2d_37">
    <path clip-path="url(#p7865e91ab1)" d="M 266.123863 229.873283 
" style="fill:none;stroke:#0000ff;stroke-linecap:square;stroke-width:1.5;"/>
    <defs>
     <path d="M -12 12 
L 12 -12 
M -12 -12 
L 12 12 
" id="m8683a88873" style="stroke:#0000ff;stroke-width:3;"/>
    </defs>
    <g clip-path="url(#p7865e91ab1)">
     <use style="fill:#0000ff;stroke:#0000ff;stroke-width:3;" x="266.123863" xlink:href="#m8683a88873" y="229.873283"/>
    </g>
   </g>
   <g id="line2d_38">
    <defs>
     <path d="M 0 1.5 
C 0.397805 1.5 0.77937 1.341951 1.06066 1.06066 
C 1.341951 0.77937 1.5 0.397805 1.5 0 
C 1.5 -0.397805 1.341951 -0.77937 1.06066 -1.06066 
C 0.77937 -1.341951 0.397805 -1.5 0 -1.5 
C -0.397805 -1.5 -0.77937 -1.341951 -1.06066 -1.06066 
C -1.341951 -0.77937 -1.5 -0.397805 -1.5 0 
C -1.5 0.397805 -1.341951 0.77937 -1.06066 1.06066 
C -0.77937 1.341951 -0.397805 1.5 0 1.5 
z
" id="md3a83c2a04" style="stroke:#000000;"/>
    </defs>
    <g>
     <use style="stroke:#000000;" x="320.083331" xlink:href="#md3a83c2a04" y="169.060547"/>
     <use style="stroke:#000000;" x="320.083331" xlink:href="#md3a83c2a04" y="169.060547"/>
    </g>
   </g>
   <g id="line2d_39">
    <path d="M 166.103602 294.88 
L 166.103602 294.355752 
L 167.034124 294.355752 
L 167.034124 293.831505 
L 168.020255 293.831505 
L 168.020255 293.307257 
L 168.582904 293.307257 
L 168.582904 292.783009 
L 168.957795 292.783009 
L 168.957795 292.258761 
L 169.118067 292.258761 
L 169.118067 291.734514 
L 170.358175 291.734514 
L 170.358175 290.686018 
L 170.845974 290.686018 
L 170.845974 290.161771 
L 171.006992 290.161771 
L 171.006992 289.637523 
L 171.715565 289.637523 
L 171.715565 289.113275 
L 172.012279 289.113275 
L 172.081596 287.016284 
L 172.531422 287.016284 
L 172.531422 285.967789 
L 172.755914 285.967789 
L 172.755914 284.919293 
L 173.264811 284.919293 
L 173.264811 284.395046 
L 174.019189 284.395046 
L 174.019189 283.870798 
L 174.386106 283.870798 
L 174.467772 282.298055 
L 174.745361 282.298055 
L 174.745361 281.773807 
L 175.304332 281.773807 
L 175.304332 280.201064 
L 175.917496 280.201064 
L 175.917496 279.676816 
L 176.259219 279.676816 
L 176.259219 279.152568 
L 176.459148 279.152568 
L 176.528421 277.579825 
L 177.48789 277.579825 
L 177.48789 277.055578 
L 177.823404 277.055578 
L 177.823404 276.53133 
L 177.939595 276.53133 
L 178.023345 274.958587 
L 178.478226 274.958587 
L 178.478226 274.434339 
L 178.687381 274.434339 
L 178.687381 273.385844 
L 179.163046 273.385844 
L 179.163046 272.861596 
L 179.798277 272.861596 
L 179.894155 271.8131 
L 180.370718 271.8131 
L 180.370718 270.764605 
L 181.461447 270.764605 
L 181.461447 270.240357 
L 182.075517 270.240357 
L 182.14594 268.667614 
L 182.21156 268.667614 
L 182.29492 266.570623 
L 182.653021 266.570623 
L 182.688204 264.99788 
L 182.988715 264.99788 
L 182.988715 263.949385 
L 183.117752 263.949385 
L 183.117752 262.900889 
L 183.247955 262.900889 
L 183.247955 262.376641 
L 183.599452 262.376641 
L 183.599452 261.328146 
L 183.732277 261.328146 
L 183.792127 260.279651 
L 184.423198 260.279651 
L 184.494546 258.18266 
L 184.854666 258.18266 
L 184.935821 255.037173 
L 185.538166 255.037173 
L 185.538166 254.512926 
L 185.726989 254.512926 
L 185.726989 253.988678 
L 186.12913 253.988678 
L 186.12913 253.46443 
L 186.393276 253.46443 
L 186.393276 252.940182 
L 186.724807 252.940182 
L 186.728281 251.891687 
L 186.983454 251.891687 
L 186.983454 251.367439 
L 187.128313 251.367439 
L 187.128313 250.843192 
L 187.317342 250.843192 
L 187.317342 250.318944 
L 187.743403 250.318944 
L 187.743403 249.794696 
L 188.11756 249.794696 
L 188.11756 249.270448 
L 188.296082 249.270448 
L 188.324601 248.221953 
L 188.622786 248.221953 
L 188.622786 247.697705 
L 189.528913 247.697705 
L 189.528913 247.173458 
L 189.656853 247.173458 
L 189.656853 246.64921 
L 189.924344 246.64921 
L 189.924344 245.600714 
L 190.224636 245.600714 
L 190.224636 245.076467 
L 190.522564 245.076467 
L 190.522564 244.552219 
L 190.675139 244.552219 
L 190.745422 243.503724 
L 191.320211 243.503724 
L 191.320211 242.455228 
L 191.531722 242.455228 
L 191.531722 241.93098 
L 191.692571 241.93098 
L 191.692571 241.406733 
L 192.539559 241.406733 
L 192.539559 240.882485 
L 192.712164 240.882485 
L 192.819779 239.83399 
L 192.823436 239.83399 
L 192.823436 238.785494 
L 193.0739 238.785494 
L 193.0739 238.261246 
L 193.916588 238.261246 
L 193.916588 237.736999 
L 194.036269 237.736999 
L 194.036269 237.212751 
L 194.438176 237.212751 
L 194.459246 235.640008 
L 194.660874 235.640008 
L 194.660874 235.11576 
L 194.928245 235.11576 
L 194.944414 234.067265 
L 195.208509 234.067265 
L 195.238193 231.970274 
L 196.625499 231.970274 
L 196.625499 231.446026 
L 196.749153 231.446026 
L 196.749153 230.921778 
L 197.322558 230.921778 
L 197.322558 228.824787 
L 198.297514 228.824787 
L 198.380659 226.727797 
L 202.053476 226.727797 
L 202.053476 226.203549 
L 204.245589 226.203549 
L 204.245589 225.679301 
L 254.520563 225.679301 
L 254.62742 218.339833 
L 254.647278 218.339833 
L 254.739221 212.573108 
L 254.775495 212.573108 
L 254.856527 209.427622 
L 254.924319 209.427622 
L 254.924319 208.903374 
L 266.294239 208.903374 
L 266.388899 203.660897 
L 266.412415 203.660897 
L 266.443061 199.991163 
L 266.53422 199.991163 
L 266.53422 199.466915 
L 273.242729 199.466915 
L 273.345242 196.321429 
L 278.155836 196.321429 
L 278.233749 190.030456 
L 281.981343 190.030456 
L 282.016913 186.88497 
L 285.148481 186.88497 
L 285.181867 185.836474 
L 287.744538 185.836474 
L 287.772602 182.16674 
L 290.05813 182.16674 
L 290.078382 180.593997 
L 292.063196 180.593997 
L 292.105822 179.545502 
L 293.874505 179.545502 
L 293.877615 178.497006 
L 296.997278 178.497006 
L 297.019921 175.875768 
L 298.391741 175.875768 
L 298.391741 174.827272 
L 299.662211 174.827272 
L 299.662211 174.303025 
L 300.832008 174.303025 
L 300.832008 173.778777 
L 301.942056 173.778777 
L 301.942056 173.254529 
L 302.976204 173.254529 
L 302.976204 172.730281 
L 305.78101 172.730281 
L 305.78101 172.206034 
L 310.933525 172.206034 
L 310.933525 171.681786 
L 312.743168 171.681786 
L 312.743168 171.157538 
L 313.299322 171.157538 
L 313.299322 170.633291 
L 315.869838 170.633291 
L 315.869838 170.109043 
L 319.319167 170.109043 
L 319.319167 169.584795 
L 320.083331 169.584795 
L 320.083331 169.060547 
L 333.429677 169.060547 
L 333.429677 169.060547 
" style="fill:none;stroke:#000000;stroke-linecap:square;stroke-width:1.5;"/>
   </g>
   <g id="line2d_40">
    <defs>
     <path d="M 0 6 
C 1.591219 6 3.117479 5.367802 4.242641 4.242641 
C 5.367802 3.117479 6 1.591219 6 0 
C 6 -1.591219 5.367802 -3.117479 4.242641 -4.242641 
C 3.117479 -5.367802 1.591219 -6 0 -6 
C -1.591219 -6 -3.117479 -5.367802 -4.242641 -4.242641 
C -5.367802 -3.117479 -6 -1.591219 -6 0 
C -6 1.591219 -5.367802 3.117479 -4.242641 4.242641 
C -3.117479 5.367802 -1.591219 6 0 6 
z
" id="m0026d03626" style="stroke:#000000;stroke-width:1.5;"/>
    </defs>
    <g>
     <use style="fill-opacity:0;stroke:#000000;stroke-width:1.5;" x="204.245589" xlink:href="#m0026d03626" y="225.679301"/>
     <use style="fill-opacity:0;stroke:#000000;stroke-width:1.5;" x="285.181867" xlink:href="#m0026d03626" y="185.836474"/>
     <use style="fill-opacity:0;stroke:#000000;stroke-width:1.5;" x="320.083331" xlink:href="#m0026d03626" y="169.060547"/>
     <use style="fill-opacity:0;stroke:#000000;stroke-width:1.5;" x="333.429677" xlink:href="#m0026d03626" y="169.060547"/>
    </g>
   </g>
   <g id="line2d_41">
    <path style="fill:none;stroke:#000000;stroke-linecap:square;stroke-width:1.5;"/>
    <g/>
   </g>
   <g id="line2d_42">
    <path clip-path="url(#p7865e91ab1)" d="M 254.198358 225.679301 
" style="fill:none;stroke:#000000;stroke-linecap:square;stroke-width:1.5;"/>
    <defs>
     <path d="M -12 12 
L 12 -12 
M -12 -12 
L 12 12 
" id="mbfd2309433" style="stroke:#000000;stroke-width:3;"/>
    </defs>
    <g clip-path="url(#p7865e91ab1)">
     <use style="stroke:#000000;stroke-width:3;" x="254.198358" xlink:href="#mbfd2309433" y="225.679301"/>
    </g>
   </g>
   <g id="line2d_43">
    <defs>
     <path d="M 0 1.5 
C 0.397805 1.5 0.77937 1.341951 1.06066 1.06066 
C 1.341951 0.77937 1.5 0.397805 1.5 0 
C 1.5 -0.397805 1.341951 -0.77937 1.06066 -1.06066 
C 0.77937 -1.341951 0.397805 -1.5 0 -1.5 
C -0.397805 -1.5 -0.77937 -1.341951 -1.06066 -1.06066 
C -1.341951 -0.77937 -1.5 -0.397805 -1.5 0 
C -1.5 0.397805 -1.341951 0.77937 -1.06066 1.06066 
C -0.77937 1.341951 -0.397805 1.5 0 1.5 
z
" id="m3ef890236a" style="stroke:#ff0000;"/>
    </defs>
    <g>
     <use style="fill:#ff0000;stroke:#ff0000;" x="321.167925" xlink:href="#m3ef890236a" y="127.12073"/>
     <use style="fill:#ff0000;stroke:#ff0000;" x="321.167925" xlink:href="#m3ef890236a" y="127.12073"/>
    </g>
   </g>
   <g id="line2d_44">
    <path d="M 163.182005 294.88 
L 163.182005 294.355752 
L 164.208774 294.355752 
L 164.208774 293.831505 
L 165.618761 293.831505 
L 165.618761 293.307257 
L 165.862889 293.307257 
L 165.862889 292.783009 
L 167.102198 292.783009 
L 167.102198 291.210266 
L 167.259098 291.210266 
L 167.259098 290.686018 
L 168.120441 290.686018 
L 168.120441 290.161771 
L 168.490397 290.161771 
L 168.490397 289.113275 
L 168.881997 289.113275 
L 168.881997 288.589027 
L 169.228896 288.589027 
L 169.228896 288.06478 
L 169.58306 288.06478 
L 169.58306 287.016284 
L 170.015179 287.016284 
L 170.097576 285.443541 
L 170.499282 285.443541 
L 170.499282 284.919293 
L 170.707694 284.919293 
L 170.707694 283.870798 
L 171.043771 283.870798 
L 171.043771 283.34655 
L 171.168663 283.34655 
L 171.168663 282.822302 
L 171.634317 282.822302 
L 171.634317 281.773807 
L 172.026573 281.773807 
L 172.040856 280.201064 
L 172.138472 280.201064 
L 172.178983 278.104073 
L 172.314003 278.104073 
L 172.314003 277.579825 
L 172.965922 277.579825 
L 173.008389 276.007082 
L 173.580989 276.007082 
L 173.580989 275.482834 
L 173.819885 275.482834 
L 173.819885 273.910091 
L 174.102611 273.910091 
L 174.102611 273.385844 
L 174.264668 273.385844 
L 174.264668 272.861596 
L 174.795828 272.861596 
L 174.906682 271.8131 
L 175.390159 271.8131 
L 175.452159 270.764605 
L 175.664937 270.764605 
L 175.664937 270.240357 
L 175.935394 270.240357 
L 175.935394 269.716109 
L 176.273577 269.716109 
L 176.273577 268.667614 
L 176.489096 268.667614 
L 176.489096 268.143366 
L 176.634934 268.143366 
L 176.634934 267.094871 
L 176.788834 267.094871 
L 176.788834 266.570623 
L 177.007204 266.570623 
L 177.007204 266.046375 
L 177.251486 266.046375 
L 177.251486 265.522128 
L 177.443252 265.522128 
L 177.443252 264.473632 
L 177.631431 264.473632 
L 177.631431 262.900889 
L 177.750385 262.900889 
L 177.750385 262.376641 
L 177.920767 262.376641 
L 177.920767 261.328146 
L 178.662416 261.328146 
L 178.662416 260.803898 
L 178.810288 260.803898 
L 178.810288 260.279651 
L 178.936422 260.279651 
L 178.936422 259.231155 
L 179.061638 259.231155 
L 179.061638 258.18266 
L 179.704475 258.18266 
L 179.764463 256.085669 
L 179.986932 256.085669 
L 179.986932 255.561421 
L 180.132813 255.561421 
L 180.132813 254.512926 
L 180.277467 254.512926 
L 180.321635 252.940182 
L 180.585532 252.940182 
L 180.585532 252.415935 
L 180.813627 252.415935 
L 180.913769 250.843192 
L 181.060483 250.843192 
L 181.060483 250.318944 
L 181.430752 250.318944 
L 181.520324 249.270448 
L 181.691099 249.270448 
L 181.691099 248.746201 
L 182.098265 248.746201 
L 182.098265 248.221953 
L 182.639808 248.221953 
L 182.669522 246.64921 
L 182.902149 246.64921 
L 182.902149 246.124962 
L 183.028604 246.124962 
L 183.028604 245.600714 
L 183.270268 245.600714 
L 183.287249 244.027971 
L 183.410915 244.027971 
L 183.410915 242.979476 
L 183.632754 242.979476 
L 183.679477 239.309742 
L 183.812717 239.309742 
L 183.812717 238.785494 
L 183.994889 238.785494 
L 184.049775 237.212751 
L 184.981063 237.212751 
L 185.053969 235.11576 
L 185.291635 235.11576 
L 185.291635 234.591512 
L 186.017257 234.591512 
L 186.017257 234.067265 
L 186.58438 234.067265 
L 186.58438 232.494521 
L 187.222243 232.494521 
L 187.222243 231.970274 
L 187.521742 231.970274 
L 187.525889 230.921778 
L 187.64899 230.921778 
L 187.64899 230.397531 
L 188.285772 230.397531 
L 188.285772 229.349035 
L 188.686459 229.349035 
L 188.686459 228.824787 
L 188.935765 228.824787 
L 188.935765 228.30054 
L 189.265648 228.30054 
L 189.265648 227.252044 
L 189.525223 227.252044 
L 189.525223 226.203549 
L 190.403731 226.203549 
L 190.498165 225.155053 
L 191.014243 225.155053 
L 191.014243 224.630806 
L 191.415713 224.630806 
L 191.415713 224.106558 
L 192.519722 224.106558 
L 192.519722 223.58231 
L 193.763211 223.58231 
L 193.763211 223.058063 
L 194.317916 223.058063 
L 194.317916 222.009567 
L 196.217623 222.009567 
L 196.217623 220.961072 
L 196.813548 220.961072 
L 196.813548 220.436824 
L 197.102519 220.436824 
L 197.102519 219.912576 
L 199.00283 219.912576 
L 199.00283 219.388328 
L 200.147294 219.388328 
L 200.147294 218.864081 
L 242.743349 218.864081 
L 242.844932 216.242842 
L 242.880443 216.242842 
L 242.977359 211.524613 
L 243.003366 211.524613 
L 243.10943 208.903374 
L 243.125679 208.903374 
L 243.201775 207.330631 
L 243.26942 207.330631 
L 243.372989 205.757888 
L 243.417251 205.757888 
L 243.417251 205.23364 
L 243.571449 205.23364 
L 243.571449 204.185145 
L 254.484423 204.185145 
L 254.588881 199.466915 
L 254.615266 199.466915 
L 254.703856 196.845677 
L 254.757218 196.845677 
L 254.859905 194.748686 
L 261.401568 194.748686 
L 261.489577 190.554704 
L 261.512974 190.554704 
L 261.577901 187.409218 
L 261.631942 187.409218 
L 261.631942 186.88497 
L 266.26592 186.88497 
L 266.360837 184.263731 
L 266.380112 184.263731 
L 266.457816 179.545502 
L 270.076757 179.545502 
L 270.173645 175.35152 
L 270.188744 175.35152 
L 270.257866 172.206034 
L 273.26999 172.206034 
L 273.345892 166.963557 
L 275.878688 166.963557 
L 275.963098 163.293823 
L 278.16029 163.293823 
L 278.234239 160.148336 
L 280.155527 160.148336 
L 280.217572 157.527098 
L 281.977803 157.527098 
L 282.036578 153.333116 
L 283.628909 153.333116 
L 283.66297 151.236125 
L 285.117163 151.236125 
L 285.131772 150.18763 
L 286.475728 150.18763 
L 286.489633 148.090639 
L 287.761797 148.090639 
L 287.776571 147.042143 
L 290.048807 147.042143 
L 290.051265 145.4694 
L 292.062583 145.4694 
L 292.070383 143.372409 
L 293.876202 143.372409 
L 293.883449 142.323914 
L 294.707468 142.323914 
L 294.714354 141.275418 
L 295.504193 141.275418 
L 295.504193 140.751171 
L 297.697318 140.751171 
L 297.708742 139.702675 
L 299.018157 139.702675 
L 299.027171 138.65418 
L 299.642399 138.65418 
L 299.642399 138.129932 
L 300.249632 138.129932 
L 300.249632 137.605684 
L 300.82695 137.605684 
L 300.834903 136.557189 
L 301.934867 136.557189 
L 301.943798 135.508693 
L 302.978183 135.508693 
L 302.987093 134.460198 
L 303.473818 134.460198 
L 303.473818 133.93595 
L 304.42889 133.93595 
L 304.432804 132.887455 
L 305.767909 132.887455 
L 305.767909 132.363207 
L 306.612052 132.363207 
L 306.612052 131.838959 
L 307.793634 131.838959 
L 307.793634 131.314712 
L 308.903019 131.314712 
L 308.903019 130.790464 
L 311.855471 130.790464 
L 311.855471 130.266216 
L 312.735909 130.266216 
L 312.735909 129.741969 
L 314.115489 129.741969 
L 314.115489 129.217721 
L 314.373222 129.217721 
L 314.373222 128.693473 
L 314.633138 128.693473 
L 314.633138 128.169225 
L 316.106691 128.169225 
L 316.106691 127.644978 
L 321.167925 127.644978 
L 321.167925 127.12073 
L 333.429677 127.12073 
L 333.429677 127.12073 
" style="fill:none;stroke:#ff0000;stroke-linecap:square;stroke-width:1.5;"/>
   </g>
   <g id="line2d_45">
    <defs>
     <path d="M -6 6 
L 6 6 
L 6 -6 
L -6 -6 
z
" id="md50ca66f7e" style="stroke:#ff0000;stroke-linejoin:miter;stroke-width:1.5;"/>
    </defs>
    <g>
     <use style="fill-opacity:0;stroke:#ff0000;stroke-linejoin:miter;stroke-width:1.5;" x="194.317916" xlink:href="#md50ca66f7e" y="223.058063"/>
     <use style="fill-opacity:0;stroke:#ff0000;stroke-linejoin:miter;stroke-width:1.5;" x="261.453389" xlink:href="#md50ca66f7e" y="193.175943"/>
     <use style="fill-opacity:0;stroke:#ff0000;stroke-linejoin:miter;stroke-width:1.5;" x="321.167925" xlink:href="#md50ca66f7e" y="127.12073"/>
     <use style="fill-opacity:0;stroke:#ff0000;stroke-linejoin:miter;stroke-width:1.5;" x="333.429677" xlink:href="#md50ca66f7e" y="127.12073"/>
    </g>
   </g>
   <g id="line2d_46">
    <path style="fill:none;stroke:#ff0000;stroke-linecap:square;stroke-width:1.5;"/>
    <g/>
   </g>
   <g id="line2d_47">
    <path clip-path="url(#p7865e91ab1)" d="M 242.272854 218.864081 
" style="fill:none;stroke:#ff0000;stroke-linecap:square;stroke-width:1.5;"/>
    <defs>
     <path d="M -12 12 
L 12 -12 
M -12 -12 
L 12 12 
" id="mde2677f677" style="stroke:#ff0000;stroke-width:3;"/>
    </defs>
    <g clip-path="url(#p7865e91ab1)">
     <use style="fill:#ff0000;stroke:#ff0000;stroke-width:3;" x="242.272854" xlink:href="#mde2677f677" y="218.864081"/>
    </g>
   </g>
   <g id="line2d_48">
    <defs>
     <path d="M 0 1.5 
C 0.397805 1.5 0.77937 1.341951 1.06066 1.06066 
C 1.341951 0.77937 1.5 0.397805 1.5 0 
C 1.5 -0.397805 1.341951 -0.77937 1.06066 -1.06066 
C 0.77937 -1.341951 0.397805 -1.5 0 -1.5 
C -0.397805 -1.5 -0.77937 -1.341951 -1.06066 -1.06066 
C -1.341951 -0.77937 -1.5 -0.397805 -1.5 0 
C -1.5 0.397805 -1.341951 0.77937 -1.06066 1.06066 
C -0.77937 1.341951 -0.397805 1.5 0 1.5 
z
" id="m1d0e3937e2" style="stroke:#bf00bf;"/>
    </defs>
    <g>
     <use style="fill:#bf00bf;stroke:#bf00bf;" x="282.775597" xlink:href="#m1d0e3937e2" y="184.787979"/>
     <use style="fill:#bf00bf;stroke:#bf00bf;" x="282.775597" xlink:href="#m1d0e3937e2" y="184.787979"/>
    </g>
   </g>
   <g id="line2d_49">
    <path d="M 155.440974 294.88 
L 155.440974 294.355752 
L 157.55136 294.355752 
L 157.659908 293.307257 
L 157.872648 293.307257 
L 157.872648 292.783009 
L 158.213122 292.783009 
L 158.213122 292.258761 
L 158.351515 292.258761 
L 158.351515 291.734514 
L 158.742475 291.734514 
L 158.742475 290.161771 
L 159.057648 290.161771 
L 159.150653 288.589027 
L 159.315952 288.589027 
L 159.315952 288.06478 
L 159.677461 288.06478 
L 159.696278 286.492036 
L 160.512505 286.492036 
L 160.512505 284.919293 
L 160.690939 284.919293 
L 160.690939 284.395046 
L 160.920171 284.395046 
L 160.920171 283.870798 
L 161.061664 283.870798 
L 161.061664 281.773807 
L 161.240253 281.773807 
L 161.240253 281.249559 
L 161.44157 281.249559 
L 161.490592 280.201064 
L 161.644292 280.201064 
L 161.644292 279.676816 
L 161.982432 279.676816 
L 161.982432 279.152568 
L 162.528092 279.152568 
L 162.528092 278.628321 
L 162.889427 278.628321 
L 162.917177 277.055578 
L 163.513268 277.055578 
L 163.596762 275.482834 
L 163.628384 275.482834 
L 163.628384 274.958587 
L 163.8432 274.958587 
L 163.8432 274.434339 
L 164.41333 274.434339 
L 164.41333 273.910091 
L 164.651556 273.910091 
L 164.651556 273.385844 
L 164.782665 273.385844 
L 164.782665 272.337348 
L 165.432616 272.337348 
L 165.452069 271.288853 
L 165.602461 271.288853 
L 165.704453 267.619119 
L 165.913923 267.619119 
L 165.913923 266.046375 
L 166.151056 266.046375 
L 166.252712 262.900889 
L 166.696614 262.900889 
L 166.696614 262.376641 
L 166.92327 262.376641 
L 166.92327 261.852394 
L 167.622806 261.852394 
L 167.712216 260.279651 
L 167.938908 260.279651 
L 167.938908 259.231155 
L 168.188184 259.231155 
L 168.188184 258.18266 
L 168.312747 258.18266 
L 168.312747 257.658412 
L 168.581657 257.658412 
L 168.60782 256.085669 
L 168.867288 256.085669 
L 168.867288 255.561421 
L 169.039332 255.561421 
L 169.09872 252.940182 
L 169.802799 252.940182 
L 169.802799 252.415935 
L 170.056427 252.415935 
L 170.061004 250.843192 
L 170.531595 250.843192 
L 170.531595 250.318944 
L 171.242524 250.318944 
L 171.242524 249.794696 
L 171.674989 249.794696 
L 171.674989 248.746201 
L 172.213342 248.746201 
L 172.30095 246.64921 
L 172.411084 246.64921 
L 172.493721 244.552219 
L 172.62236 244.552219 
L 172.62236 242.979476 
L 172.874844 242.979476 
L 172.874844 242.455228 
L 173.316966 242.455228 
L 173.316966 241.93098 
L 173.469673 241.93098 
L 173.469673 240.882485 
L 173.780299 240.882485 
L 173.783064 239.309742 
L 173.901531 239.309742 
L 173.901531 238.261246 
L 174.032818 238.261246 
L 174.032818 237.736999 
L 174.278999 237.736999 
L 174.370082 236.688503 
L 174.425212 236.688503 
L 174.446505 235.640008 
L 175.490587 235.640008 
L 175.490587 235.11576 
L 176.550404 235.11576 
L 176.562953 232.494521 
L 176.764055 232.494521 
L 176.764055 231.446026 
L 177.022479 231.446026 
L 177.022479 230.921778 
L 177.532412 230.921778 
L 177.532412 229.873283 
L 177.967798 229.873283 
L 178.031266 228.30054 
L 178.090914 228.30054 
L 178.090914 227.776292 
L 179.307364 227.776292 
L 179.307364 227.252044 
L 181.903936 227.252044 
L 181.903936 226.727797 
L 230.854401 226.727797 
L 230.946201 223.58231 
L 230.977975 223.58231 
L 231.086336 219.912576 
L 231.103369 219.912576 
L 231.147768 218.339833 
L 231.321234 218.339833 
L 231.34765 216.242842 
L 242.547713 216.242842 
L 242.650657 210.476117 
L 242.679196 210.476117 
L 242.780273 208.903374 
L 249.433722 208.903374 
L 249.513072 204.709392 
L 249.588763 204.709392 
L 249.588763 204.185145 
L 254.352918 204.185145 
L 254.3905 201.039658 
L 258.160753 201.039658 
L 258.24228 197.894172 
L 261.29963 197.894172 
L 261.345139 195.797181 
L 263.920674 195.797181 
L 263.952534 193.175943 
L 266.214487 193.175943 
L 266.220202 192.127447 
L 268.264364 192.127447 
L 268.264364 191.603199 
L 270.035555 191.603199 
L 270.045057 190.554704 
L 271.675287 190.554704 
L 271.675287 190.030456 
L 273.168229 190.030456 
L 273.183132 188.457713 
L 275.810617 188.457713 
L 275.825388 187.409218 
L 278.111877 187.409218 
L 278.111877 186.88497 
L 279.140534 186.88497 
L 279.152885 185.836474 
L 281.938548 185.836474 
L 281.938548 185.312227 
L 282.775597 185.312227 
L 282.775597 184.787979 
L 333.429677 184.787979 
L 333.429677 184.787979 
" style="fill:none;stroke:#bf00bf;stroke-linecap:square;stroke-width:1.5;"/>
   </g>
   <g id="line2d_50">
    <defs>
     <path d="M -0 8.485281 
L 8.485281 0 
L 0 -8.485281 
L -8.485281 -0 
z
" id="m86fb7866d9" style="stroke:#bf00bf;stroke-linejoin:miter;stroke-width:1.5;"/>
    </defs>
    <g>
     <use style="fill-opacity:0;stroke:#bf00bf;stroke-linejoin:miter;stroke-width:1.5;" x="231.103369" xlink:href="#m86fb7866d9" y="219.388328"/>
     <use style="fill-opacity:0;stroke:#bf00bf;stroke-linejoin:miter;stroke-width:1.5;" x="282.775597" xlink:href="#m86fb7866d9" y="184.787979"/>
     <use style="fill-opacity:0;stroke:#bf00bf;stroke-linejoin:miter;stroke-width:1.5;" x="282.775597" xlink:href="#m86fb7866d9" y="184.787979"/>
     <use style="fill-opacity:0;stroke:#bf00bf;stroke-linejoin:miter;stroke-width:1.5;" x="333.429677" xlink:href="#m86fb7866d9" y="184.787979"/>
    </g>
   </g>
   <g id="line2d_51">
    <path style="fill:none;stroke:#bf00bf;stroke-linecap:square;stroke-width:1.5;"/>
    <g/>
   </g>
   <g id="line2d_52">
    <path clip-path="url(#p7865e91ab1)" d="M 230.347349 226.727797 
" style="fill:none;stroke:#bf00bf;stroke-linecap:square;stroke-width:1.5;"/>
    <defs>
     <path d="M -12 12 
L 12 -12 
M -12 -12 
L 12 12 
" id="mf4a53de419" style="stroke:#bf00bf;stroke-width:3;"/>
    </defs>
    <g clip-path="url(#p7865e91ab1)">
     <use style="fill:#bf00bf;stroke:#bf00bf;stroke-width:3;" x="230.347349" xlink:href="#mf4a53de419" y="226.727797"/>
    </g>
   </g>
   <g id="line2d_53">
    <path d="M 333.429677 195.797181 
L 363.933742 289.532673 
" style="fill:none;stroke:#008000;stroke-linecap:square;stroke-width:1.5;"/>
    <g>
     <use style="fill-opacity:0;stroke:#008000;stroke-linejoin:miter;stroke-width:1.5;" x="333.429677" xlink:href="#m9f79e9099f" y="195.797181"/>
     <use style="fill-opacity:0;stroke:#008000;stroke-linejoin:miter;stroke-width:1.5;" x="363.933742" xlink:href="#m9f79e9099f" y="289.532673"/>
    </g>
   </g>
   <g id="line2d_54">
    <path d="M 333.429677 185.836474 
L 363.933742 238.198337 
" style="fill:none;stroke:#0000ff;stroke-linecap:square;stroke-width:1.5;"/>
    <g>
     <use style="fill-opacity:0;stroke:#0000ff;stroke-linejoin:bevel;stroke-width:1.5;" x="333.429677" xlink:href="#me76f1da309" y="185.836474"/>
     <use style="fill-opacity:0;stroke:#0000ff;stroke-linejoin:bevel;stroke-width:1.5;" x="363.933742" xlink:href="#me76f1da309" y="238.198337"/>
    </g>
   </g>
   <g id="line2d_55">
    <path d="M 333.429677 185.312227 
L 363.933742 186.864 
" style="fill:none;stroke:#00bfbf;stroke-linecap:square;stroke-width:1.5;"/>
    <g>
     <use style="fill-opacity:0;stroke:#00bfbf;stroke-width:1.5;" x="333.429677" xlink:href="#m7b7cffee2c" y="185.312227"/>
     <use style="fill-opacity:0;stroke:#00bfbf;stroke-width:1.5;" x="363.933742" xlink:href="#m7b7cffee2c" y="186.864"/>
    </g>
   </g>
   <g id="line2d_56">
    <path d="M 333.429677 184.787979 
L 363.933742 135.529663 
" style="fill:none;stroke:#bf00bf;stroke-linecap:square;stroke-width:1.5;"/>
    <g>
     <use style="fill-opacity:0;stroke:#bf00bf;stroke-linejoin:miter;stroke-width:1.5;" x="333.429677" xlink:href="#m86fb7866d9" y="184.787979"/>
     <use style="fill-opacity:0;stroke:#bf00bf;stroke-linejoin:miter;stroke-width:1.5;" x="363.933742" xlink:href="#m86fb7866d9" y="135.529663"/>
    </g>
   </g>
   <g id="line2d_57">
    <path d="M 333.429677 169.060547 
L 363.933742 84.195327 
" style="fill:none;stroke:#000000;stroke-linecap:square;stroke-width:1.5;"/>
    <g>
     <use style="fill-opacity:0;stroke:#000000;stroke-width:1.5;" x="333.429677" xlink:href="#m0026d03626" y="169.060547"/>
     <use style="fill-opacity:0;stroke:#000000;stroke-width:1.5;" x="363.933742" xlink:href="#m0026d03626" y="84.195327"/>
    </g>
   </g>
   <g id="line2d_58">
    <path d="M 333.429677 127.12073 
L 363.933742 32.86099 
" style="fill:none;stroke:#ff0000;stroke-linecap:square;stroke-width:1.5;"/>
    <g>
     <use style="fill-opacity:0;stroke:#ff0000;stroke-linejoin:miter;stroke-width:1.5;" x="333.429677" xlink:href="#md50ca66f7e" y="127.12073"/>
     <use style="fill-opacity:0;stroke:#ff0000;stroke-linejoin:miter;stroke-width:1.5;" x="363.933742" xlink:href="#md50ca66f7e" y="32.86099"/>
    </g>
   </g>
   <g id="line2d_59">
    <path d="M 333.429677 294.88 
L 333.429677 27.513663 
" style="fill:none;stroke:#000000;stroke-linecap:square;stroke-width:1.5;"/>
   </g>
   <g id="patch_3">
    <path d="M 56.12 294.88 
L 56.12 24.84 
" style="fill:none;stroke:#000000;stroke-linecap:square;stroke-linejoin:miter;stroke-width:0.8;"/>
   </g>
   <g id="patch_4">
    <path d="M 399.984 294.88 
L 399.984 24.84 
" style="fill:none;stroke:#000000;stroke-linecap:square;stroke-linejoin:miter;stroke-width:0.8;"/>
   </g>
   <g id="patch_5">
    <path d="M 56.12 294.88 
L 399.984 294.88 
" style="fill:none;stroke:#000000;stroke-linecap:square;stroke-linejoin:miter;stroke-width:0.8;"/>
   </g>
   <g id="patch_6">
    <path d="M 56.12 24.84 
L 399.984 24.84 
" style="fill:none;stroke:#000000;stroke-linecap:square;stroke-linejoin:miter;stroke-width:0.8;"/>
   </g>
   <g id="text_14">
    <!-- 3-D -->
    <defs>
     <path d="M 40.578125 39.3125 
Q 47.65625 37.796875 51.625 33 
Q 55.609375 28.21875 55.609375 21.1875 
Q 55.609375 10.40625 48.1875 4.484375 
Q 40.765625 -1.421875 27.09375 -1.421875 
Q 22.515625 -1.421875 17.65625 -0.515625 
Q 12.796875 0.390625 7.625 2.203125 
L 7.625 11.71875 
Q 11.71875 9.328125 16.59375 8.109375 
Q 21.484375 6.890625 26.8125 6.890625 
Q 36.078125 6.890625 40.9375 10.546875 
Q 45.796875 14.203125 45.796875 21.1875 
Q 45.796875 27.640625 41.28125 31.265625 
Q 36.765625 34.90625 28.71875 34.90625 
L 20.21875 34.90625 
L 20.21875 43.015625 
L 29.109375 43.015625 
Q 36.375 43.015625 40.234375 45.921875 
Q 44.09375 48.828125 44.09375 54.296875 
Q 44.09375 59.90625 40.109375 62.90625 
Q 36.140625 65.921875 28.71875 65.921875 
Q 24.65625 65.921875 20.015625 65.03125 
Q 15.375 64.15625 9.8125 62.3125 
L 9.8125 71.09375 
Q 15.4375 72.65625 20.34375 73.4375 
Q 25.25 74.21875 29.59375 74.21875 
Q 40.828125 74.21875 47.359375 69.109375 
Q 53.90625 64.015625 53.90625 55.328125 
Q 53.90625 49.265625 50.4375 45.09375 
Q 46.96875 40.921875 40.578125 39.3125 
z
" id="DejaVuSans-33"/>
     <path d="M 19.671875 64.796875 
L 19.671875 8.109375 
L 31.59375 8.109375 
Q 46.6875 8.109375 53.6875 14.9375 
Q 60.6875 21.78125 60.6875 36.53125 
Q 60.6875 51.171875 53.6875 57.984375 
Q 46.6875 64.796875 31.59375 64.796875 
z
M 9.8125 72.90625 
L 30.078125 72.90625 
Q 51.265625 72.90625 61.171875 64.09375 
Q 71.09375 55.28125 71.09375 36.53125 
Q 71.09375 17.671875 61.125 8.828125 
Q 51.171875 0 30.078125 0 
L 9.8125 0 
z
" id="DejaVuSans-44"/>
    </defs>
    <g transform="translate(369.479935 294.223611)scale(0.17 -0.17)">
     <use xlink:href="#DejaVuSans-33"/>
     <use x="63.623047" xlink:href="#DejaVuSans-2d"/>
     <use x="99.707031" xlink:href="#DejaVuSans-44"/>
    </g>
   </g>
   <g id="text_15">
    <!-- 5-D -->
    <defs>
     <path d="M 10.796875 72.90625 
L 49.515625 72.90625 
L 49.515625 64.59375 
L 19.828125 64.59375 
L 19.828125 46.734375 
Q 21.96875 47.46875 24.109375 47.828125 
Q 26.265625 48.1875 28.421875 48.1875 
Q 40.625 48.1875 47.75 41.5 
Q 54.890625 34.8125 54.890625 23.390625 
Q 54.890625 11.625 47.5625 5.09375 
Q 40.234375 -1.421875 26.90625 -1.421875 
Q 22.3125 -1.421875 17.546875 -0.640625 
Q 12.796875 0.140625 7.71875 1.703125 
L 7.71875 11.625 
Q 12.109375 9.234375 16.796875 8.0625 
Q 21.484375 6.890625 26.703125 6.890625 
Q 35.15625 6.890625 40.078125 11.328125 
Q 45.015625 15.765625 45.015625 23.390625 
Q 45.015625 31 40.078125 35.4375 
Q 35.15625 39.890625 26.703125 39.890625 
Q 22.75 39.890625 18.8125 39.015625 
Q 14.890625 38.140625 10.796875 36.28125 
z
" id="DejaVuSans-35"/>
    </defs>
    <g transform="translate(369.479935 242.889274)scale(0.17 -0.17)">
     <use xlink:href="#DejaVuSans-35"/>
     <use x="63.623047" xlink:href="#DejaVuSans-2d"/>
     <use x="99.707031" xlink:href="#DejaVuSans-44"/>
    </g>
   </g>
   <g id="text_16">
    <!-- 2-D -->
    <g transform="translate(369.479935 191.554937)scale(0.17 -0.17)">
     <use xlink:href="#DejaVuSans-32"/>
     <use x="63.623047" xlink:href="#DejaVuSans-2d"/>
     <use x="99.707031" xlink:href="#DejaVuSans-44"/>
    </g>
   </g>
   <g id="text_17">
    <!-- 40-D -->
    <g transform="translate(369.479935 140.220601)scale(0.17 -0.17)">
     <use xlink:href="#DejaVuSans-34"/>
     <use x="63.623047" xlink:href="#DejaVuSans-30"/>
     <use x="127.246094" xlink:href="#DejaVuSans-2d"/>
     <use x="163.330078" xlink:href="#DejaVuSans-44"/>
    </g>
   </g>
   <g id="text_18">
    <!-- 10-D -->
    <g transform="translate(369.479935 88.886264)scale(0.17 -0.17)">
     <use xlink:href="#DejaVuSans-31"/>
     <use x="63.623047" xlink:href="#DejaVuSans-30"/>
     <use x="127.246094" xlink:href="#DejaVuSans-2d"/>
     <use x="163.330078" xlink:href="#DejaVuSans-44"/>
    </g>
   </g>
   <g id="text_19">
    <!-- 20-D -->
    <g transform="translate(369.479935 37.551928)scale(0.17 -0.17)">
     <use xlink:href="#DejaVuSans-32"/>
     <use x="63.623047" xlink:href="#DejaVuSans-30"/>
     <use x="127.246094" xlink:href="#DejaVuSans-2d"/>
     <use x="163.330078" xlink:href="#DejaVuSans-44"/>
    </g>
   </g>
   <g id="text_20">
    <!-- bbob f13 -->
    <defs>
     <path d="M 48.6875 27.296875 
Q 48.6875 37.203125 44.609375 42.84375 
Q 40.53125 48.484375 33.40625 48.484375 
Q 26.265625 48.484375 22.1875 42.84375 
Q 18.109375 37.203125 18.109375 27.296875 
Q 18.109375 17.390625 22.1875 11.75 
Q 26.265625 6.109375 33.40625 6.109375 
Q 40.53125 6.109375 44.609375 11.75 
Q 48.6875 17.390625 48.6875 27.296875 
z
M 18.109375 46.390625 
Q 20.953125 51.265625 25.265625 53.625 
Q 29.59375 56 35.59375 56 
Q 45.5625 56 51.78125 48.09375 
Q 58.015625 40.1875 58.015625 27.296875 
Q 58.015625 14.40625 51.78125 6.484375 
Q 45.5625 -1.421875 35.59375 -1.421875 
Q 29.59375 -1.421875 25.265625 0.953125 
Q 20.953125 3.328125 18.109375 8.203125 
L 18.109375 0 
L 9.078125 0 
L 9.078125 75.984375 
L 18.109375 75.984375 
z
" id="DejaVuSans-62"/>
    </defs>
    <g transform="translate(59.55864 35.290806)scale(0.102 -0.102)">
     <use xlink:href="#DejaVuSans-62"/>
     <use x="63.476562" xlink:href="#DejaVuSans-62"/>
     <use x="126.953125" xlink:href="#DejaVuSans-6f"/>
     <use x="188.134766" xlink:href="#DejaVuSans-62"/>
     <use x="251.611328" xlink:href="#DejaVuSans-20"/>
     <use x="283.398438" xlink:href="#DejaVuSans-66"/>
     <use x="318.603516" xlink:href="#DejaVuSans-31"/>
     <use x="382.226562" xlink:href="#DejaVuSans-33"/>
    </g>
    <!-- 51 targets: 100..1e-08 -->
    <defs>
     <path d="M 11.71875 12.40625 
L 22.015625 12.40625 
L 22.015625 0 
L 11.71875 0 
z
M 11.71875 51.703125 
L 22.015625 51.703125 
L 22.015625 39.3125 
L 11.71875 39.3125 
z
" id="DejaVuSans-3a"/>
    </defs>
    <g transform="translate(59.55864 46.712575)scale(0.102 -0.102)">
     <use xlink:href="#DejaVuSans-35"/>
     <use x="63.623047" xlink:href="#DejaVuSans-31"/>
     <use x="127.246094" xlink:href="#DejaVuSans-20"/>
     <use x="159.033203" xlink:href="#DejaVuSans-74"/>
     <use x="198.242188" xlink:href="#DejaVuSans-61"/>
     <use x="259.521484" xlink:href="#DejaVuSans-72"/>
     <use x="300.619141" xlink:href="#DejaVuSans-67"/>
     <use x="364.095703" xlink:href="#DejaVuSans-65"/>
     <use x="425.619141" xlink:href="#DejaVuSans-74"/>
     <use x="464.828125" xlink:href="#DejaVuSans-73"/>
     <use x="516.927734" xlink:href="#DejaVuSans-3a"/>
     <use x="550.619141" xlink:href="#DejaVuSans-20"/>
     <use x="582.40625" xlink:href="#DejaVuSans-31"/>
     <use x="646.029297" xlink:href="#DejaVuSans-30"/>
     <use x="709.652344" xlink:href="#DejaVuSans-30"/>
     <use x="773.275391" xlink:href="#DejaVuSans-2e"/>
     <use x="805.0625" xlink:href="#DejaVuSans-2e"/>
     <use x="836.849609" xlink:href="#DejaVuSans-31"/>
     <use x="900.472656" xlink:href="#DejaVuSans-65"/>
     <use x="961.996094" xlink:href="#DejaVuSans-2d"/>
     <use x="998.080078" xlink:href="#DejaVuSans-30"/>
     <use x="1061.703125" xlink:href="#DejaVuSans-38"/>
    </g>
    <!-- 15 instances -->
    <g transform="translate(59.55864 58.134344)scale(0.102 -0.102)">
     <use xlink:href="#DejaVuSans-31"/>
     <use x="63.623047" xlink:href="#DejaVuSans-35"/>
     <use x="127.246094" xlink:href="#DejaVuSans-20"/>
     <use x="159.033203" xlink:href="#DejaVuSans-69"/>
     <use x="186.816406" xlink:href="#DejaVuSans-6e"/>
     <use x="250.195312" xlink:href="#DejaVuSans-73"/>
     <use x="302.294922" xlink:href="#DejaVuSans-74"/>
     <use x="341.503906" xlink:href="#DejaVuSans-61"/>
     <use x="402.783203" xlink:href="#DejaVuSans-6e"/>
     <use x="466.162109" xlink:href="#DejaVuSans-63"/>
     <use x="521.142578" xlink:href="#DejaVuSans-65"/>
     <use x="582.666016" xlink:href="#DejaVuSans-73"/>
    </g>
   </g>
   <g id="text_21">
    <!-- v0.0.0 -->
    <g style="fill:#808080;" transform="translate(212.37075 290.099912)scale(0.1 -0.1)">
     <use xlink:href="#DejaVuSans-76"/>
     <use x="59.179688" xlink:href="#DejaVuSans-30"/>
     <use x="122.802734" xlink:href="#DejaVuSans-2e"/>
     <use x="154.589844" xlink:href="#DejaVuSans-30"/>
     <use x="218.212891" xlink:href="#DejaVuSans-2e"/>
     <use x="250" xlink:href="#DejaVuSans-30"/>
    </g>
   </g>
   <g id="text_22">
    <!-- 13 Sharp ridge -->
    <defs>
     <path d="M 53.515625 70.515625 
L 53.515625 60.890625 
Q 47.90625 63.578125 42.921875 64.890625 
Q 37.9375 66.21875 33.296875 66.21875 
Q 25.25 66.21875 20.875 63.09375 
Q 16.5 59.96875 16.5 54.203125 
Q 16.5 49.359375 19.40625 46.890625 
Q 22.3125 44.4375 30.421875 42.921875 
L 36.375 41.703125 
Q 47.40625 39.59375 52.65625 34.296875 
Q 57.90625 29 57.90625 20.125 
Q 57.90625 9.515625 50.796875 4.046875 
Q 43.703125 -1.421875 29.984375 -1.421875 
Q 24.8125 -1.421875 18.96875 -0.25 
Q 13.140625 0.921875 6.890625 3.21875 
L 6.890625 13.375 
Q 12.890625 10.015625 18.65625 8.296875 
Q 24.421875 6.59375 29.984375 6.59375 
Q 38.421875 6.59375 43.015625 9.90625 
Q 47.609375 13.234375 47.609375 19.390625 
Q 47.609375 24.75 44.3125 27.78125 
Q 41.015625 30.8125 33.5 32.328125 
L 27.484375 33.5 
Q 16.453125 35.6875 11.515625 40.375 
Q 6.59375 45.0625 6.59375 53.421875 
Q 6.59375 63.09375 13.40625 68.65625 
Q 20.21875 74.21875 32.171875 74.21875 
Q 37.3125 74.21875 42.625 73.28125 
Q 47.953125 72.359375 53.515625 70.515625 
z
" id="DejaVuSans-53"/>
     <path d="M 54.890625 33.015625 
L 54.890625 0 
L 45.90625 0 
L 45.90625 32.71875 
Q 45.90625 40.484375 42.875 44.328125 
Q 39.84375 48.1875 33.796875 48.1875 
Q 26.515625 48.1875 22.3125 43.546875 
Q 18.109375 38.921875 18.109375 30.90625 
L 18.109375 0 
L 9.078125 0 
L 9.078125 75.984375 
L 18.109375 75.984375 
L 18.109375 46.1875 
Q 21.34375 51.125 25.703125 53.5625 
Q 30.078125 56 35.796875 56 
Q 45.21875 56 50.046875 50.171875 
Q 54.890625 44.34375 54.890625 33.015625 
z
" id="DejaVuSans-68"/>
    </defs>
    <g transform="translate(153.95825 18.84)scale(0.2 -0.2)">
     <use xlink:href="#DejaVuSans-31"/>
     <use x="63.623047" xlink:href="#DejaVuSans-33"/>
     <use x="127.246094" xlink:href="#DejaVuSans-20"/>
     <use x="159.033203" xlink:href="#DejaVuSans-53"/>
     <use x="222.509766" xlink:href="#DejaVuSans-68"/>
     <use x="285.888672" xlink:href="#DejaVuSans-61"/>
     <use x="347.167969" xlink:href="#DejaVuSans-72"/>
     <use x="388.28125" xlink:href="#DejaVuSans-70"/>
     <use x="451.757812" xlink:href="#DejaVuSans-20"/>
     <use x="483.544922" xlink:href="#DejaVuSans-72"/>
     <use x="524.658203" xlink:href="#DejaVuSans-69"/>
     <use x="552.441406" xlink:href="#DejaVuSans-64"/>
     <use x="615.917969" xlink:href="#DejaVuSans-67"/>
     <use x="679.394531" xlink:href="#DejaVuSans-65"/>
    </g>
   </g>
  </g>
 </g>
 <defs>
  <clipPath id="p7865e91ab1">
   <rect height="270.04" width="343.864" x="56.12" y="24.84"/>
  </clipPath>
 </defs>
</svg>
