<?xml version="1.0" encoding="utf-8" standalone="no"?>
<!DOCTYPE svg PUBLIC "-//W3C//DTD SVG 1.1//EN"
  "http://www.w3.org/Graphics/SVG/1.1/DTD/svg11.dtd">
<!-- Created with matplotlib (http://matplotlib.org/) -->
<svg height="345.6pt" version="1.1" viewBox="0 0 460.8 345.6" width="460.8pt" xmlns="http://www.w3.org/2000/svg" xmlns:xlink="http://www.w3.org/1999/xlink">
 <defs>
  <style type="text/css">
*{stroke-linecap:butt;stroke-linejoin:round;}
  </style>
 </defs>
 <g id="figure_1">
  <g id="patch_1">
   <path d="M 0 345.6 
L 460.8 345.6 
L 460.8 0 
L 0 0 
z
" style="fill:#ffffff;"/>
  </g>
  <g id="axes_1">
   <g id="patch_2">
    <path d="M 56.12 294.88 
L 399.984 294.88 
L 399.984 6.845228 
L 56.12 6.845228 
z
" style="fill:#ffffff;"/>
   </g>
   <g id="matplotlib.axis_1">
    <g id="xtick_1">
     <g id="line2d_1">
      <path clip-path="url(#p613dd973f4)" d="M 56.12 294.88 
L 56.12 6.845228 
" style="fill:none;stroke:#b0b0b0;stroke-linecap:square;stroke-width:0.8;"/>
     </g>
     <g id="line2d_2">
      <defs>
       <path d="M 0 0 
L 0 3.5 
" id="mffb044b415" style="stroke:#000000;stroke-width:0.8;"/>
      </defs>
      <g>
       <use style="stroke:#000000;stroke-width:0.8;" x="56.12" xlink:href="#mffb044b415" y="294.88"/>
      </g>
     </g>
     <g id="text_1">
      <!-- 0 -->
      <defs>
       <path d="M 31.78125 66.40625 
Q 24.171875 66.40625 20.328125 58.90625 
Q 16.5 51.421875 16.5 36.375 
Q 16.5 21.390625 20.328125 13.890625 
Q 24.171875 6.390625 31.78125 6.390625 
Q 39.453125 6.390625 43.28125 13.890625 
Q 47.125 21.390625 47.125 36.375 
Q 47.125 51.421875 43.28125 58.90625 
Q 39.453125 66.40625 31.78125 66.40625 
z
M 31.78125 74.21875 
Q 44.046875 74.21875 50.515625 64.515625 
Q 56.984375 54.828125 56.984375 36.375 
Q 56.984375 17.96875 50.515625 8.265625 
Q 44.046875 -1.421875 31.78125 -1.421875 
Q 19.53125 -1.421875 13.0625 8.265625 
Q 6.59375 17.96875 6.59375 36.375 
Q 6.59375 54.828125 13.0625 64.515625 
Q 19.53125 74.21875 31.78125 74.21875 
z
" id="DejaVuSans-30"/>
      </defs>
      <g transform="translate(49.7575 317.076875)scale(0.2 -0.2)">
       <use xlink:href="#DejaVuSans-30"/>
      </g>
     </g>
    </g>
    <g id="xtick_2">
     <g id="line2d_3">
      <path clip-path="url(#p613dd973f4)" d="M 135.351336 294.88 
L 135.351336 6.845228 
" style="fill:none;stroke:#b0b0b0;stroke-linecap:square;stroke-width:0.8;"/>
     </g>
     <g id="line2d_4">
      <g>
       <use style="stroke:#000000;stroke-width:0.8;" x="135.351336" xlink:href="#mffb044b415" y="294.88"/>
      </g>
     </g>
     <g id="text_2">
      <!-- 2 -->
      <defs>
       <path d="M 19.1875 8.296875 
L 53.609375 8.296875 
L 53.609375 0 
L 7.328125 0 
L 7.328125 8.296875 
Q 12.9375 14.109375 22.625 23.890625 
Q 32.328125 33.6875 34.8125 36.53125 
Q 39.546875 41.84375 41.421875 45.53125 
Q 43.3125 49.21875 43.3125 52.78125 
Q 43.3125 58.59375 39.234375 62.25 
Q 35.15625 65.921875 28.609375 65.921875 
Q 23.96875 65.921875 18.8125 64.3125 
Q 13.671875 62.703125 7.8125 59.421875 
L 7.8125 69.390625 
Q 13.765625 71.78125 18.9375 73 
Q 24.125 74.21875 28.421875 74.21875 
Q 39.75 74.21875 46.484375 68.546875 
Q 53.21875 62.890625 53.21875 53.421875 
Q 53.21875 48.921875 51.53125 44.890625 
Q 49.859375 40.875 45.40625 35.40625 
Q 44.1875 33.984375 37.640625 27.21875 
Q 31.109375 20.453125 19.1875 8.296875 
z
" id="DejaVuSans-32"/>
      </defs>
      <g transform="translate(128.988836 317.076875)scale(0.2 -0.2)">
       <use xlink:href="#DejaVuSans-32"/>
      </g>
     </g>
    </g>
    <g id="xtick_3">
     <g id="line2d_5">
      <path clip-path="url(#p613dd973f4)" d="M 214.582673 294.88 
L 214.582673 6.845228 
" style="fill:none;stroke:#b0b0b0;stroke-linecap:square;stroke-width:0.8;"/>
     </g>
     <g id="line2d_6">
      <g>
       <use style="stroke:#000000;stroke-width:0.8;" x="214.582673" xlink:href="#mffb044b415" y="294.88"/>
      </g>
     </g>
     <g id="text_3">
      <!-- 4 -->
      <defs>
       <path d="M 37.796875 64.3125 
L 12.890625 25.390625 
L 37.796875 25.390625 
z
M 35.203125 72.90625 
L 47.609375 72.90625 
L 47.609375 25.390625 
L 58.015625 25.390625 
L 58.015625 17.1875 
L 47.609375 17.1875 
L 47.609375 0 
L 37.796875 0 
L 37.796875 17.1875 
L 4.890625 17.1875 
L 4.890625 26.703125 
z
" id="DejaVuSans-34"/>
      </defs>
      <g transform="translate(208.220173 317.076875)scale(0.2 -0.2)">
       <use xlink:href="#DejaVuSans-34"/>
      </g>
     </g>
    </g>
    <g id="xtick_4">
     <g id="line2d_7">
      <path clip-path="url(#p613dd973f4)" d="M 293.814009 294.88 
L 293.814009 6.845228 
" style="fill:none;stroke:#b0b0b0;stroke-linecap:square;stroke-width:0.8;"/>
     </g>
     <g id="line2d_8">
      <g>
       <use style="stroke:#000000;stroke-width:0.8;" x="293.814009" xlink:href="#mffb044b415" y="294.88"/>
      </g>
     </g>
     <g id="text_4">
      <!-- 6 -->
      <defs>
       <path d="M 33.015625 40.375 
Q 26.375 40.375 22.484375 35.828125 
Q 18.609375 31.296875 18.609375 23.390625 
Q 18.609375 15.53125 22.484375 10.953125 
Q 26.375 6.390625 33.015625 6.390625 
Q 39.65625 6.390625 43.53125 10.953125 
Q 47.40625 15.53125 47.40625 23.390625 
Q 47.40625 31.296875 43.53125 35.828125 
Q 39.65625 40.375 33.015625 40.375 
z
M 52.59375 71.296875 
L 52.59375 62.3125 
Q 48.875 64.0625 45.09375 64.984375 
Q 41.3125 65.921875 37.59375 65.921875 
Q 27.828125 65.921875 22.671875 59.328125 
Q 17.53125 52.734375 16.796875 39.40625 
Q 19.671875 43.65625 24.015625 45.921875 
Q 28.375 48.1875 33.59375 48.1875 
Q 44.578125 48.1875 50.953125 41.515625 
Q 57.328125 34.859375 57.328125 23.390625 
Q 57.328125 12.15625 50.6875 5.359375 
Q 44.046875 -1.421875 33.015625 -1.421875 
Q 20.359375 -1.421875 13.671875 8.265625 
Q 6.984375 17.96875 6.984375 36.375 
Q 6.984375 53.65625 15.1875 63.9375 
Q 23.390625 74.21875 37.203125 74.21875 
Q 40.921875 74.21875 44.703125 73.484375 
Q 48.484375 72.75 52.59375 71.296875 
z
" id="DejaVuSans-36"/>
      </defs>
      <g transform="translate(287.451509 317.076875)scale(0.2 -0.2)">
       <use xlink:href="#DejaVuSans-36"/>
      </g>
     </g>
    </g>
    <g id="xtick_5">
     <g id="line2d_9">
      <path clip-path="url(#p613dd973f4)" d="M 373.045346 294.88 
L 373.045346 6.845228 
" style="fill:none;stroke:#b0b0b0;stroke-linecap:square;stroke-width:0.8;"/>
     </g>
     <g id="line2d_10">
      <g>
       <use style="stroke:#000000;stroke-width:0.8;" x="373.045346" xlink:href="#mffb044b415" y="294.88"/>
      </g>
     </g>
     <g id="text_5">
      <!-- 8 -->
      <defs>
       <path d="M 31.78125 34.625 
Q 24.75 34.625 20.71875 30.859375 
Q 16.703125 27.09375 16.703125 20.515625 
Q 16.703125 13.921875 20.71875 10.15625 
Q 24.75 6.390625 31.78125 6.390625 
Q 38.8125 6.390625 42.859375 10.171875 
Q 46.921875 13.96875 46.921875 20.515625 
Q 46.921875 27.09375 42.890625 30.859375 
Q 38.875 34.625 31.78125 34.625 
z
M 21.921875 38.8125 
Q 15.578125 40.375 12.03125 44.71875 
Q 8.5 49.078125 8.5 55.328125 
Q 8.5 64.0625 14.71875 69.140625 
Q 20.953125 74.21875 31.78125 74.21875 
Q 42.671875 74.21875 48.875 69.140625 
Q 55.078125 64.0625 55.078125 55.328125 
Q 55.078125 49.078125 51.53125 44.71875 
Q 48 40.375 41.703125 38.8125 
Q 48.828125 37.15625 52.796875 32.3125 
Q 56.78125 27.484375 56.78125 20.515625 
Q 56.78125 9.90625 50.3125 4.234375 
Q 43.84375 -1.421875 31.78125 -1.421875 
Q 19.734375 -1.421875 13.25 4.234375 
Q 6.78125 9.90625 6.78125 20.515625 
Q 6.78125 27.484375 10.78125 32.3125 
Q 14.796875 37.15625 21.921875 38.8125 
z
M 18.3125 54.390625 
Q 18.3125 48.734375 21.84375 45.5625 
Q 25.390625 42.390625 31.78125 42.390625 
Q 38.140625 42.390625 41.71875 45.5625 
Q 45.3125 48.734375 45.3125 54.390625 
Q 45.3125 60.0625 41.71875 63.234375 
Q 38.140625 66.40625 31.78125 66.40625 
Q 25.390625 66.40625 21.84375 63.234375 
Q 18.3125 60.0625 18.3125 54.390625 
z
" id="DejaVuSans-38"/>
      </defs>
      <g transform="translate(366.682846 317.076875)scale(0.2 -0.2)">
       <use xlink:href="#DejaVuSans-38"/>
      </g>
     </g>
    </g>
    <g id="text_6">
     <!-- log10(# f-evals / dimension) -->
     <defs>
      <path d="M 9.421875 75.984375 
L 18.40625 75.984375 
L 18.40625 0 
L 9.421875 0 
z
" id="DejaVuSans-6c"/>
      <path d="M 30.609375 48.390625 
Q 23.390625 48.390625 19.1875 42.75 
Q 14.984375 37.109375 14.984375 27.296875 
Q 14.984375 17.484375 19.15625 11.84375 
Q 23.34375 6.203125 30.609375 6.203125 
Q 37.796875 6.203125 41.984375 11.859375 
Q 46.1875 17.53125 46.1875 27.296875 
Q 46.1875 37.015625 41.984375 42.703125 
Q 37.796875 48.390625 30.609375 48.390625 
z
M 30.609375 56 
Q 42.328125 56 49.015625 48.375 
Q 55.71875 40.765625 55.71875 27.296875 
Q 55.71875 13.875 49.015625 6.21875 
Q 42.328125 -1.421875 30.609375 -1.421875 
Q 18.84375 -1.421875 12.171875 6.21875 
Q 5.515625 13.875 5.515625 27.296875 
Q 5.515625 40.765625 12.171875 48.375 
Q 18.84375 56 30.609375 56 
z
" id="DejaVuSans-6f"/>
      <path d="M 45.40625 27.984375 
Q 45.40625 37.75 41.375 43.109375 
Q 37.359375 48.484375 30.078125 48.484375 
Q 22.859375 48.484375 18.828125 43.109375 
Q 14.796875 37.75 14.796875 27.984375 
Q 14.796875 18.265625 18.828125 12.890625 
Q 22.859375 7.515625 30.078125 7.515625 
Q 37.359375 7.515625 41.375 12.890625 
Q 45.40625 18.265625 45.40625 27.984375 
z
M 54.390625 6.78125 
Q 54.390625 -7.171875 48.1875 -13.984375 
Q 42 -20.796875 29.203125 -20.796875 
Q 24.46875 -20.796875 20.265625 -20.09375 
Q 16.0625 -19.390625 12.109375 -17.921875 
L 12.109375 -9.1875 
Q 16.0625 -11.328125 19.921875 -12.34375 
Q 23.78125 -13.375 27.78125 -13.375 
Q 36.625 -13.375 41.015625 -8.765625 
Q 45.40625 -4.15625 45.40625 5.171875 
L 45.40625 9.625 
Q 42.625 4.78125 38.28125 2.390625 
Q 33.9375 0 27.875 0 
Q 17.828125 0 11.671875 7.65625 
Q 5.515625 15.328125 5.515625 27.984375 
Q 5.515625 40.671875 11.671875 48.328125 
Q 17.828125 56 27.875 56 
Q 33.9375 56 38.28125 53.609375 
Q 42.625 51.21875 45.40625 46.390625 
L 45.40625 54.6875 
L 54.390625 54.6875 
z
" id="DejaVuSans-67"/>
      <path d="M 12.40625 8.296875 
L 28.515625 8.296875 
L 28.515625 63.921875 
L 10.984375 60.40625 
L 10.984375 69.390625 
L 28.421875 72.90625 
L 38.28125 72.90625 
L 38.28125 8.296875 
L 54.390625 8.296875 
L 54.390625 0 
L 12.40625 0 
z
" id="DejaVuSans-31"/>
      <path d="M 31 75.875 
Q 24.46875 64.65625 21.28125 53.65625 
Q 18.109375 42.671875 18.109375 31.390625 
Q 18.109375 20.125 21.3125 9.0625 
Q 24.515625 -2 31 -13.1875 
L 23.1875 -13.1875 
Q 15.875 -1.703125 12.234375 9.375 
Q 8.59375 20.453125 8.59375 31.390625 
Q 8.59375 42.28125 12.203125 53.3125 
Q 15.828125 64.359375 23.1875 75.875 
z
" id="DejaVuSans-28"/>
      <path d="M 51.125 44 
L 36.921875 44 
L 32.8125 27.6875 
L 47.125 27.6875 
z
M 43.796875 71.78125 
L 38.71875 51.515625 
L 52.984375 51.515625 
L 58.109375 71.78125 
L 65.921875 71.78125 
L 60.890625 51.515625 
L 76.125 51.515625 
L 76.125 44 
L 58.984375 44 
L 54.984375 27.6875 
L 70.515625 27.6875 
L 70.515625 20.21875 
L 53.078125 20.21875 
L 48 0 
L 40.1875 0 
L 45.21875 20.21875 
L 30.90625 20.21875 
L 25.875 0 
L 18.015625 0 
L 23.09375 20.21875 
L 7.71875 20.21875 
L 7.71875 27.6875 
L 24.90625 27.6875 
L 29 44 
L 13.28125 44 
L 13.28125 51.515625 
L 30.90625 51.515625 
L 35.890625 71.78125 
z
" id="DejaVuSans-23"/>
      <path id="DejaVuSans-20"/>
      <path d="M 37.109375 75.984375 
L 37.109375 68.5 
L 28.515625 68.5 
Q 23.6875 68.5 21.796875 66.546875 
Q 19.921875 64.59375 19.921875 59.515625 
L 19.921875 54.6875 
L 34.71875 54.6875 
L 34.71875 47.703125 
L 19.921875 47.703125 
L 19.921875 0 
L 10.890625 0 
L 10.890625 47.703125 
L 2.296875 47.703125 
L 2.296875 54.6875 
L 10.890625 54.6875 
L 10.890625 58.5 
Q 10.890625 67.625 15.140625 71.796875 
Q 19.390625 75.984375 28.609375 75.984375 
z
" id="DejaVuSans-66"/>
      <path d="M 4.890625 31.390625 
L 31.203125 31.390625 
L 31.203125 23.390625 
L 4.890625 23.390625 
z
" id="DejaVuSans-2d"/>
      <path d="M 56.203125 29.59375 
L 56.203125 25.203125 
L 14.890625 25.203125 
Q 15.484375 15.921875 20.484375 11.0625 
Q 25.484375 6.203125 34.421875 6.203125 
Q 39.59375 6.203125 44.453125 7.46875 
Q 49.3125 8.734375 54.109375 11.28125 
L 54.109375 2.78125 
Q 49.265625 0.734375 44.1875 -0.34375 
Q 39.109375 -1.421875 33.890625 -1.421875 
Q 20.796875 -1.421875 13.15625 6.1875 
Q 5.515625 13.8125 5.515625 26.8125 
Q 5.515625 40.234375 12.765625 48.109375 
Q 20.015625 56 32.328125 56 
Q 43.359375 56 49.78125 48.890625 
Q 56.203125 41.796875 56.203125 29.59375 
z
M 47.21875 32.234375 
Q 47.125 39.59375 43.09375 43.984375 
Q 39.0625 48.390625 32.421875 48.390625 
Q 24.90625 48.390625 20.390625 44.140625 
Q 15.875 39.890625 15.1875 32.171875 
z
" id="DejaVuSans-65"/>
      <path d="M 2.984375 54.6875 
L 12.5 54.6875 
L 29.59375 8.796875 
L 46.6875 54.6875 
L 56.203125 54.6875 
L 35.6875 0 
L 23.484375 0 
z
" id="DejaVuSans-76"/>
      <path d="M 34.28125 27.484375 
Q 23.390625 27.484375 19.1875 25 
Q 14.984375 22.515625 14.984375 16.5 
Q 14.984375 11.71875 18.140625 8.90625 
Q 21.296875 6.109375 26.703125 6.109375 
Q 34.1875 6.109375 38.703125 11.40625 
Q 43.21875 16.703125 43.21875 25.484375 
L 43.21875 27.484375 
z
M 52.203125 31.203125 
L 52.203125 0 
L 43.21875 0 
L 43.21875 8.296875 
Q 40.140625 3.328125 35.546875 0.953125 
Q 30.953125 -1.421875 24.3125 -1.421875 
Q 15.921875 -1.421875 10.953125 3.296875 
Q 6 8.015625 6 15.921875 
Q 6 25.140625 12.171875 29.828125 
Q 18.359375 34.515625 30.609375 34.515625 
L 43.21875 34.515625 
L 43.21875 35.40625 
Q 43.21875 41.609375 39.140625 45 
Q 35.0625 48.390625 27.6875 48.390625 
Q 23 48.390625 18.546875 47.265625 
Q 14.109375 46.140625 10.015625 43.890625 
L 10.015625 52.203125 
Q 14.9375 54.109375 19.578125 55.046875 
Q 24.21875 56 28.609375 56 
Q 40.484375 56 46.34375 49.84375 
Q 52.203125 43.703125 52.203125 31.203125 
z
" id="DejaVuSans-61"/>
      <path d="M 44.28125 53.078125 
L 44.28125 44.578125 
Q 40.484375 46.53125 36.375 47.5 
Q 32.28125 48.484375 27.875 48.484375 
Q 21.1875 48.484375 17.84375 46.4375 
Q 14.5 44.390625 14.5 40.28125 
Q 14.5 37.15625 16.890625 35.375 
Q 19.28125 33.59375 26.515625 31.984375 
L 29.59375 31.296875 
Q 39.15625 29.25 43.1875 25.515625 
Q 47.21875 21.78125 47.21875 15.09375 
Q 47.21875 7.46875 41.1875 3.015625 
Q 35.15625 -1.421875 24.609375 -1.421875 
Q 20.21875 -1.421875 15.453125 -0.5625 
Q 10.6875 0.296875 5.421875 2 
L 5.421875 11.28125 
Q 10.40625 8.6875 15.234375 7.390625 
Q 20.0625 6.109375 24.8125 6.109375 
Q 31.15625 6.109375 34.5625 8.28125 
Q 37.984375 10.453125 37.984375 14.40625 
Q 37.984375 18.0625 35.515625 20.015625 
Q 33.0625 21.96875 24.703125 23.78125 
L 21.578125 24.515625 
Q 13.234375 26.265625 9.515625 29.90625 
Q 5.8125 33.546875 5.8125 39.890625 
Q 5.8125 47.609375 11.28125 51.796875 
Q 16.75 56 26.8125 56 
Q 31.78125 56 36.171875 55.265625 
Q 40.578125 54.546875 44.28125 53.078125 
z
" id="DejaVuSans-73"/>
      <path d="M 25.390625 72.90625 
L 33.6875 72.90625 
L 8.296875 -9.28125 
L 0 -9.28125 
z
" id="DejaVuSans-2f"/>
      <path d="M 45.40625 46.390625 
L 45.40625 75.984375 
L 54.390625 75.984375 
L 54.390625 0 
L 45.40625 0 
L 45.40625 8.203125 
Q 42.578125 3.328125 38.25 0.953125 
Q 33.9375 -1.421875 27.875 -1.421875 
Q 17.96875 -1.421875 11.734375 6.484375 
Q 5.515625 14.40625 5.515625 27.296875 
Q 5.515625 40.1875 11.734375 48.09375 
Q 17.96875 56 27.875 56 
Q 33.9375 56 38.25 53.625 
Q 42.578125 51.265625 45.40625 46.390625 
z
M 14.796875 27.296875 
Q 14.796875 17.390625 18.875 11.75 
Q 22.953125 6.109375 30.078125 6.109375 
Q 37.203125 6.109375 41.296875 11.75 
Q 45.40625 17.390625 45.40625 27.296875 
Q 45.40625 37.203125 41.296875 42.84375 
Q 37.203125 48.484375 30.078125 48.484375 
Q 22.953125 48.484375 18.875 42.84375 
Q 14.796875 37.203125 14.796875 27.296875 
z
" id="DejaVuSans-64"/>
      <path d="M 9.421875 54.6875 
L 18.40625 54.6875 
L 18.40625 0 
L 9.421875 0 
z
M 9.421875 75.984375 
L 18.40625 75.984375 
L 18.40625 64.59375 
L 9.421875 64.59375 
z
" id="DejaVuSans-69"/>
      <path d="M 52 44.1875 
Q 55.375 50.25 60.0625 53.125 
Q 64.75 56 71.09375 56 
Q 79.640625 56 84.28125 50.015625 
Q 88.921875 44.046875 88.921875 33.015625 
L 88.921875 0 
L 79.890625 0 
L 79.890625 32.71875 
Q 79.890625 40.578125 77.09375 44.375 
Q 74.3125 48.1875 68.609375 48.1875 
Q 61.625 48.1875 57.5625 43.546875 
Q 53.515625 38.921875 53.515625 30.90625 
L 53.515625 0 
L 44.484375 0 
L 44.484375 32.71875 
Q 44.484375 40.625 41.703125 44.40625 
Q 38.921875 48.1875 33.109375 48.1875 
Q 26.21875 48.1875 22.15625 43.53125 
Q 18.109375 38.875 18.109375 30.90625 
L 18.109375 0 
L 9.078125 0 
L 9.078125 54.6875 
L 18.109375 54.6875 
L 18.109375 46.1875 
Q 21.1875 51.21875 25.484375 53.609375 
Q 29.78125 56 35.6875 56 
Q 41.65625 56 45.828125 52.96875 
Q 50 49.953125 52 44.1875 
z
" id="DejaVuSans-6d"/>
      <path d="M 54.890625 33.015625 
L 54.890625 0 
L 45.90625 0 
L 45.90625 32.71875 
Q 45.90625 40.484375 42.875 44.328125 
Q 39.84375 48.1875 33.796875 48.1875 
Q 26.515625 48.1875 22.3125 43.546875 
Q 18.109375 38.921875 18.109375 30.90625 
L 18.109375 0 
L 9.078125 0 
L 9.078125 54.6875 
L 18.109375 54.6875 
L 18.109375 46.1875 
Q 21.34375 51.125 25.703125 53.5625 
Q 30.078125 56 35.796875 56 
Q 45.21875 56 50.046875 50.171875 
Q 54.890625 44.34375 54.890625 33.015625 
z
" id="DejaVuSans-6e"/>
      <path d="M 8.015625 75.875 
L 15.828125 75.875 
Q 23.140625 64.359375 26.78125 53.3125 
Q 30.421875 42.28125 30.421875 31.390625 
Q 30.421875 20.453125 26.78125 9.375 
Q 23.140625 -1.703125 15.828125 -13.1875 
L 8.015625 -13.1875 
Q 14.5 -2 17.703125 9.0625 
Q 20.90625 20.125 20.90625 31.390625 
Q 20.90625 42.671875 17.703125 53.65625 
Q 14.5 64.65625 8.015625 75.875 
z
" id="DejaVuSans-29"/>
     </defs>
     <g transform="translate(107.211219 338.153594)scale(0.17 -0.17)">
      <use xlink:href="#DejaVuSans-6c"/>
      <use x="27.783203" xlink:href="#DejaVuSans-6f"/>
      <use x="88.964844" xlink:href="#DejaVuSans-67"/>
      <use x="152.441406" xlink:href="#DejaVuSans-31"/>
      <use x="216.064453" xlink:href="#DejaVuSans-30"/>
      <use x="279.6875" xlink:href="#DejaVuSans-28"/>
      <use x="318.701172" xlink:href="#DejaVuSans-23"/>
      <use x="402.490234" xlink:href="#DejaVuSans-20"/>
      <use x="434.277344" xlink:href="#DejaVuSans-66"/>
      <use x="469.404297" xlink:href="#DejaVuSans-2d"/>
      <use x="505.488281" xlink:href="#DejaVuSans-65"/>
      <use x="567.011719" xlink:href="#DejaVuSans-76"/>
      <use x="626.191406" xlink:href="#DejaVuSans-61"/>
      <use x="687.470703" xlink:href="#DejaVuSans-6c"/>
      <use x="715.253906" xlink:href="#DejaVuSans-73"/>
      <use x="767.353516" xlink:href="#DejaVuSans-20"/>
      <use x="799.140625" xlink:href="#DejaVuSans-2f"/>
      <use x="832.832031" xlink:href="#DejaVuSans-20"/>
      <use x="864.619141" xlink:href="#DejaVuSans-64"/>
      <use x="928.095703" xlink:href="#DejaVuSans-69"/>
      <use x="955.878906" xlink:href="#DejaVuSans-6d"/>
      <use x="1053.291016" xlink:href="#DejaVuSans-65"/>
      <use x="1114.814453" xlink:href="#DejaVuSans-6e"/>
      <use x="1178.193359" xlink:href="#DejaVuSans-73"/>
      <use x="1230.292969" xlink:href="#DejaVuSans-69"/>
      <use x="1258.076172" xlink:href="#DejaVuSans-6f"/>
      <use x="1319.257812" xlink:href="#DejaVuSans-6e"/>
      <use x="1382.636719" xlink:href="#DejaVuSans-29"/>
     </g>
    </g>
   </g>
   <g id="matplotlib.axis_2">
    <g id="ytick_1">
     <g id="line2d_11">
      <path clip-path="url(#p613dd973f4)" d="M 56.12 294.88 
L 399.984 294.88 
" style="fill:none;stroke:#b0b0b0;stroke-linecap:square;stroke-width:0.8;"/>
     </g>
     <g id="line2d_12">
      <defs>
       <path d="M 0 0 
L -3.5 0 
" id="m4afc3fb13e" style="stroke:#000000;stroke-width:0.8;"/>
      </defs>
      <g>
       <use style="stroke:#000000;stroke-width:0.8;" x="56.12" xlink:href="#m4afc3fb13e" y="294.88"/>
      </g>
     </g>
     <g id="text_7">
      <!-- 0.0 -->
      <defs>
       <path d="M 10.6875 12.40625 
L 21 12.40625 
L 21 0 
L 10.6875 0 
z
" id="DejaVuSans-2e"/>
      </defs>
      <g transform="translate(23.675 300.95875)scale(0.16 -0.16)">
       <use xlink:href="#DejaVuSans-30"/>
       <use x="63.623047" xlink:href="#DejaVuSans-2e"/>
       <use x="95.410156" xlink:href="#DejaVuSans-30"/>
      </g>
     </g>
    </g>
    <g id="ytick_2">
     <g id="line2d_13">
      <path clip-path="url(#p613dd973f4)" d="M 56.12 237.843411 
L 399.984 237.843411 
" style="fill:none;stroke:#b0b0b0;stroke-linecap:square;stroke-width:0.8;"/>
     </g>
     <g id="line2d_14">
      <g>
       <use style="stroke:#000000;stroke-width:0.8;" x="56.12" xlink:href="#m4afc3fb13e" y="237.843411"/>
      </g>
     </g>
     <g id="text_8">
      <!-- 0.2 -->
      <g transform="translate(23.675 243.922161)scale(0.16 -0.16)">
       <use xlink:href="#DejaVuSans-30"/>
       <use x="63.623047" xlink:href="#DejaVuSans-2e"/>
       <use x="95.410156" xlink:href="#DejaVuSans-32"/>
      </g>
     </g>
    </g>
    <g id="ytick_3">
     <g id="line2d_15">
      <path clip-path="url(#p613dd973f4)" d="M 56.12 180.806823 
L 399.984 180.806823 
" style="fill:none;stroke:#b0b0b0;stroke-linecap:square;stroke-width:0.8;"/>
     </g>
     <g id="line2d_16">
      <g>
       <use style="stroke:#000000;stroke-width:0.8;" x="56.12" xlink:href="#m4afc3fb13e" y="180.806823"/>
      </g>
     </g>
     <g id="text_9">
      <!-- 0.4 -->
      <g transform="translate(23.675 186.885573)scale(0.16 -0.16)">
       <use xlink:href="#DejaVuSans-30"/>
       <use x="63.623047" xlink:href="#DejaVuSans-2e"/>
       <use x="95.410156" xlink:href="#DejaVuSans-34"/>
      </g>
     </g>
    </g>
    <g id="ytick_4">
     <g id="line2d_17">
      <path clip-path="url(#p613dd973f4)" d="M 56.12 123.770234 
L 399.984 123.770234 
" style="fill:none;stroke:#b0b0b0;stroke-linecap:square;stroke-width:0.8;"/>
     </g>
     <g id="line2d_18">
      <g>
       <use style="stroke:#000000;stroke-width:0.8;" x="56.12" xlink:href="#m4afc3fb13e" y="123.770234"/>
      </g>
     </g>
     <g id="text_10">
      <!-- 0.6 -->
      <g transform="translate(23.675 129.848984)scale(0.16 -0.16)">
       <use xlink:href="#DejaVuSans-30"/>
       <use x="63.623047" xlink:href="#DejaVuSans-2e"/>
       <use x="95.410156" xlink:href="#DejaVuSans-36"/>
      </g>
     </g>
    </g>
    <g id="ytick_5">
     <g id="line2d_19">
      <path clip-path="url(#p613dd973f4)" d="M 56.12 66.733646 
L 399.984 66.733646 
" style="fill:none;stroke:#b0b0b0;stroke-linecap:square;stroke-width:0.8;"/>
     </g>
     <g id="line2d_20">
      <g>
       <use style="stroke:#000000;stroke-width:0.8;" x="56.12" xlink:href="#m4afc3fb13e" y="66.733646"/>
      </g>
     </g>
     <g id="text_11">
      <!-- 0.8 -->
      <g transform="translate(23.675 72.812396)scale(0.16 -0.16)">
       <use xlink:href="#DejaVuSans-30"/>
       <use x="63.623047" xlink:href="#DejaVuSans-2e"/>
       <use x="95.410156" xlink:href="#DejaVuSans-38"/>
      </g>
     </g>
    </g>
    <g id="ytick_6">
     <g id="line2d_21">
      <path clip-path="url(#p613dd973f4)" d="M 56.12 9.697057 
L 399.984 9.697057 
" style="fill:none;stroke:#b0b0b0;stroke-linecap:square;stroke-width:0.8;"/>
     </g>
     <g id="line2d_22">
      <g>
       <use style="stroke:#000000;stroke-width:0.8;" x="56.12" xlink:href="#m4afc3fb13e" y="9.697057"/>
      </g>
     </g>
     <g id="text_12">
      <!-- 1.0 -->
      <g transform="translate(23.675 15.775807)scale(0.16 -0.16)">
       <use xlink:href="#DejaVuSans-31"/>
       <use x="63.623047" xlink:href="#DejaVuSans-2e"/>
       <use x="95.410156" xlink:href="#DejaVuSans-30"/>
      </g>
     </g>
    </g>
    <g id="text_13">
     <!-- Fraction of function,target pairs -->
     <defs>
      <path d="M 9.8125 72.90625 
L 51.703125 72.90625 
L 51.703125 64.59375 
L 19.671875 64.59375 
L 19.671875 43.109375 
L 48.578125 43.109375 
L 48.578125 34.8125 
L 19.671875 34.8125 
L 19.671875 0 
L 9.8125 0 
z
" id="DejaVuSans-46"/>
      <path d="M 41.109375 46.296875 
Q 39.59375 47.171875 37.8125 47.578125 
Q 36.03125 48 33.890625 48 
Q 26.265625 48 22.1875 43.046875 
Q 18.109375 38.09375 18.109375 28.8125 
L 18.109375 0 
L 9.078125 0 
L 9.078125 54.6875 
L 18.109375 54.6875 
L 18.109375 46.1875 
Q 20.953125 51.171875 25.484375 53.578125 
Q 30.03125 56 36.53125 56 
Q 37.453125 56 38.578125 55.875 
Q 39.703125 55.765625 41.0625 55.515625 
z
" id="DejaVuSans-72"/>
      <path d="M 48.78125 52.59375 
L 48.78125 44.1875 
Q 44.96875 46.296875 41.140625 47.34375 
Q 37.3125 48.390625 33.40625 48.390625 
Q 24.65625 48.390625 19.8125 42.84375 
Q 14.984375 37.3125 14.984375 27.296875 
Q 14.984375 17.28125 19.8125 11.734375 
Q 24.65625 6.203125 33.40625 6.203125 
Q 37.3125 6.203125 41.140625 7.25 
Q 44.96875 8.296875 48.78125 10.40625 
L 48.78125 2.09375 
Q 45.015625 0.34375 40.984375 -0.53125 
Q 36.96875 -1.421875 32.421875 -1.421875 
Q 20.0625 -1.421875 12.78125 6.34375 
Q 5.515625 14.109375 5.515625 27.296875 
Q 5.515625 40.671875 12.859375 48.328125 
Q 20.21875 56 33.015625 56 
Q 37.15625 56 41.109375 55.140625 
Q 45.0625 54.296875 48.78125 52.59375 
z
" id="DejaVuSans-63"/>
      <path d="M 18.3125 70.21875 
L 18.3125 54.6875 
L 36.8125 54.6875 
L 36.8125 47.703125 
L 18.3125 47.703125 
L 18.3125 18.015625 
Q 18.3125 11.328125 20.140625 9.421875 
Q 21.96875 7.515625 27.59375 7.515625 
L 36.8125 7.515625 
L 36.8125 0 
L 27.59375 0 
Q 17.1875 0 13.234375 3.875 
Q 9.28125 7.765625 9.28125 18.015625 
L 9.28125 47.703125 
L 2.6875 47.703125 
L 2.6875 54.6875 
L 9.28125 54.6875 
L 9.28125 70.21875 
z
" id="DejaVuSans-74"/>
      <path d="M 8.5 21.578125 
L 8.5 54.6875 
L 17.484375 54.6875 
L 17.484375 21.921875 
Q 17.484375 14.15625 20.5 10.265625 
Q 23.53125 6.390625 29.59375 6.390625 
Q 36.859375 6.390625 41.078125 11.03125 
Q 45.3125 15.671875 45.3125 23.6875 
L 45.3125 54.6875 
L 54.296875 54.6875 
L 54.296875 0 
L 45.3125 0 
L 45.3125 8.40625 
Q 42.046875 3.421875 37.71875 1 
Q 33.40625 -1.421875 27.6875 -1.421875 
Q 18.265625 -1.421875 13.375 4.4375 
Q 8.5 10.296875 8.5 21.578125 
z
M 31.109375 56 
z
" id="DejaVuSans-75"/>
      <path d="M 11.71875 12.40625 
L 22.015625 12.40625 
L 22.015625 4 
L 14.015625 -11.625 
L 7.71875 -11.625 
L 11.71875 4 
z
" id="DejaVuSans-2c"/>
      <path d="M 18.109375 8.203125 
L 18.109375 -20.796875 
L 9.078125 -20.796875 
L 9.078125 54.6875 
L 18.109375 54.6875 
L 18.109375 46.390625 
Q 20.953125 51.265625 25.265625 53.625 
Q 29.59375 56 35.59375 56 
Q 45.5625 56 51.78125 48.09375 
Q 58.015625 40.1875 58.015625 27.296875 
Q 58.015625 14.40625 51.78125 6.484375 
Q 45.5625 -1.421875 35.59375 -1.421875 
Q 29.59375 -1.421875 25.265625 0.953125 
Q 20.953125 3.328125 18.109375 8.203125 
z
M 48.6875 27.296875 
Q 48.6875 37.203125 44.609375 42.84375 
Q 40.53125 48.484375 33.40625 48.484375 
Q 26.265625 48.484375 22.1875 42.84375 
Q 18.109375 37.203125 18.109375 27.296875 
Q 18.109375 17.390625 22.1875 11.75 
Q 26.265625 6.109375 33.40625 6.109375 
Q 40.53125 6.109375 44.609375 11.75 
Q 48.6875 17.390625 48.6875 27.296875 
z
" id="DejaVuSans-70"/>
     </defs>
     <g transform="translate(16.139531 286.001989)rotate(-90)scale(0.17 -0.17)">
      <use xlink:href="#DejaVuSans-46"/>
      <use x="57.410156" xlink:href="#DejaVuSans-72"/>
      <use x="98.523438" xlink:href="#DejaVuSans-61"/>
      <use x="159.802734" xlink:href="#DejaVuSans-63"/>
      <use x="214.783203" xlink:href="#DejaVuSans-74"/>
      <use x="253.992188" xlink:href="#DejaVuSans-69"/>
      <use x="281.775391" xlink:href="#DejaVuSans-6f"/>
      <use x="342.957031" xlink:href="#DejaVuSans-6e"/>
      <use x="406.335938" xlink:href="#DejaVuSans-20"/>
      <use x="438.123047" xlink:href="#DejaVuSans-6f"/>
      <use x="499.304688" xlink:href="#DejaVuSans-66"/>
      <use x="534.509766" xlink:href="#DejaVuSans-20"/>
      <use x="566.296875" xlink:href="#DejaVuSans-66"/>
      <use x="601.501953" xlink:href="#DejaVuSans-75"/>
      <use x="664.880859" xlink:href="#DejaVuSans-6e"/>
      <use x="728.259766" xlink:href="#DejaVuSans-63"/>
      <use x="783.240234" xlink:href="#DejaVuSans-74"/>
      <use x="822.449219" xlink:href="#DejaVuSans-69"/>
      <use x="850.232422" xlink:href="#DejaVuSans-6f"/>
      <use x="911.414062" xlink:href="#DejaVuSans-6e"/>
      <use x="974.792969" xlink:href="#DejaVuSans-2c"/>
      <use x="1006.580078" xlink:href="#DejaVuSans-74"/>
      <use x="1045.789062" xlink:href="#DejaVuSans-61"/>
      <use x="1107.068359" xlink:href="#DejaVuSans-72"/>
      <use x="1148.166016" xlink:href="#DejaVuSans-67"/>
      <use x="1211.642578" xlink:href="#DejaVuSans-65"/>
      <use x="1273.166016" xlink:href="#DejaVuSans-74"/>
      <use x="1312.375" xlink:href="#DejaVuSans-20"/>
      <use x="1344.162109" xlink:href="#DejaVuSans-70"/>
      <use x="1407.638672" xlink:href="#DejaVuSans-61"/>
      <use x="1468.917969" xlink:href="#DejaVuSans-69"/>
      <use x="1496.701172" xlink:href="#DejaVuSans-72"/>
      <use x="1537.814453" xlink:href="#DejaVuSans-73"/>
     </g>
    </g>
   </g>
   <g id="line2d_23">
    <defs>
     <path d="M 0 1.5 
C 0.397805 1.5 0.77937 1.341951 1.06066 1.06066 
C 1.341951 0.77937 1.5 0.397805 1.5 0 
C 1.5 -0.397805 1.341951 -0.77937 1.06066 -1.06066 
C 0.77937 -1.341951 0.397805 -1.5 0 -1.5 
C -0.397805 -1.5 -0.77937 -1.341951 -1.06066 -1.06066 
C -1.341951 -0.77937 -1.5 -0.397805 -1.5 0 
C -1.5 0.397805 -1.341951 0.77937 -1.06066 1.06066 
C -0.77937 1.341951 -0.397805 1.5 0 1.5 
z
" id="m25f5f55d00" style="stroke:#000080;"/>
    </defs>
    <g>
     <use style="fill:#000080;stroke:#000080;" x="316.893224" xlink:href="#m25f5f55d00" y="9.697057"/>
     <use style="fill:#000080;stroke:#000080;" x="316.893224" xlink:href="#m25f5f55d00" y="9.697057"/>
    </g>
   </g>
   <g id="line2d_24">
    <path d="M 40.355341 294.88 
L 40.355341 268.598435 
L 52.280845 268.598435 
L 52.280845 263.565795 
L 59.256818 263.565795 
L 59.256818 261.888248 
L 73.834464 261.888248 
L 73.834464 261.329066 
L 76.131854 261.329066 
L 76.131854 260.769883 
L 79.971009 260.769883 
L 79.971009 259.092337 
L 92.735942 259.092337 
L 92.735942 258.533154 
L 96.410455 258.533154 
L 96.410455 257.41479 
L 98.872486 257.41479 
L 98.872486 256.855608 
L 103.386428 256.855608 
L 103.386428 255.737243 
L 107.661173 255.737243 
L 107.661173 254.618879 
L 110.214719 254.618879 
L 110.214719 253.500514 
L 111.362135 253.500514 
L 111.362135 252.941332 
L 113.694177 252.941332 
L 113.694177 251.822967 
L 127.780222 251.822967 
L 127.780222 250.704603 
L 131.512181 250.704603 
L 131.512181 250.145421 
L 135.003752 250.145421 
L 135.003752 249.027056 
L 135.692038 249.027056 
L 135.692038 248.467874 
L 139.272877 248.467874 
L 139.272877 247.908692 
L 144.071065 247.908692 
L 144.071065 247.34951 
L 146.102113 247.34951 
L 146.102113 246.790327 
L 151.033214 246.790327 
L 151.033214 244.553598 
L 168.751629 244.553598 
L 168.751629 242.876052 
L 171.409413 242.876052 
L 171.409413 242.316869 
L 183.372958 242.316869 
L 183.372958 240.08014 
L 188.181531 240.08014 
L 188.181531 239.520958 
L 191.382612 239.520958 
L 191.382612 238.961776 
L 194.677297 238.961776 
L 194.677297 238.402594 
L 195.006794 238.402594 
L 195.006794 236.725047 
L 199.309857 236.725047 
L 199.309857 236.165865 
L 200.710887 236.165865 
L 200.710887 235.606682 
L 206.069343 235.606682 
L 206.069343 234.488318 
L 207.119153 234.488318 
L 207.119153 233.929136 
L 208.659128 233.929136 
L 208.659128 233.369954 
L 209.285556 233.369954 
L 209.285556 232.251589 
L 211.047916 232.251589 
L 211.047916 231.692407 
L 211.922844 231.692407 
L 211.922844 231.133225 
L 212.256945 231.133225 
L 212.256945 230.01486 
L 212.498671 230.01486 
L 212.498671 228.337313 
L 212.76843 228.337313 
L 212.76843 227.218949 
L 213.073137 227.218949 
L 213.073137 226.659767 
L 213.44107 226.659767 
L 213.44107 226.100584 
L 213.599918 226.100584 
L 213.599918 225.541402 
L 213.77968 225.541402 
L 213.77968 224.98222 
L 214.998775 224.98222 
L 214.998775 224.423038 
L 215.611132 224.423038 
L 215.698425 223.304673 
L 215.911874 223.304673 
L 215.911874 222.745491 
L 216.081756 222.745491 
L 216.081756 221.067944 
L 216.226851 221.067944 
L 216.226851 219.94958 
L 216.370731 219.94958 
L 216.461052 218.831215 
L 216.646389 218.831215 
L 216.646389 218.272033 
L 217.273899 218.272033 
L 217.273899 217.712851 
L 217.491455 217.712851 
L 217.525709 216.594486 
L 217.651685 216.594486 
L 217.651685 216.035304 
L 217.970561 216.035304 
L 217.970561 214.91694 
L 218.176186 214.91694 
L 218.254195 213.798575 
L 218.381038 213.798575 
L 218.381038 213.239393 
L 218.519549 213.239393 
L 218.520643 212.121028 
L 218.822339 212.121028 
L 218.822339 210.443482 
L 219.007448 210.443482 
L 219.007448 209.325117 
L 219.204797 209.325117 
L 219.204797 208.206753 
L 219.436797 208.206753 
L 219.457546 207.088388 
L 219.616987 207.088388 
L 219.616987 206.529206 
L 219.89364 206.529206 
L 219.969286 205.410841 
L 220.402083 205.410841 
L 220.402083 204.851659 
L 220.581719 204.851659 
L 220.61083 202.61493 
L 220.776312 202.61493 
L 220.858698 200.937384 
L 220.965879 200.937384 
L 220.965879 200.378201 
L 221.153381 200.378201 
L 221.224632 199.259837 
L 221.279277 199.259837 
L 221.347688 197.023108 
L 221.620929 197.023108 
L 221.620929 195.904743 
L 221.734382 195.904743 
L 221.734382 195.345561 
L 222.029744 195.345561 
L 222.03867 194.227197 
L 222.27177 194.227197 
L 222.336792 193.108832 
L 222.786901 193.108832 
L 222.786901 192.54965 
L 223.281661 192.54965 
L 223.281661 190.312921 
L 223.59263 190.312921 
L 223.659354 189.194556 
L 223.838305 189.194556 
L 223.926488 186.398645 
L 224.128796 186.398645 
L 224.178116 184.161916 
L 224.389183 184.161916 
L 224.423399 181.925187 
L 224.923723 181.925187 
L 224.923723 180.806823 
L 225.04853 180.806823 
L 225.04853 180.247641 
L 225.288813 180.247641 
L 225.376499 178.570094 
L 225.474706 178.570094 
L 225.5338 174.655818 
L 225.589424 174.655818 
L 225.589424 174.096636 
L 226.005048 174.096636 
L 226.11559 172.419089 
L 226.354716 172.419089 
L 226.395981 170.741543 
L 226.507489 170.741543 
L 226.511274 169.623178 
L 227.047773 169.623178 
L 227.047773 169.063996 
L 227.543441 169.063996 
L 227.543441 167.945631 
L 227.724574 167.945631 
L 227.724574 167.386449 
L 228.100049 167.386449 
L 228.100049 166.827267 
L 228.365874 166.827267 
L 228.475485 164.031356 
L 228.804104 164.031356 
L 228.904981 162.912991 
L 228.937281 162.912991 
L 228.937281 161.794627 
L 229.123609 161.794627 
L 229.199403 159.557898 
L 229.24877 159.557898 
L 229.24877 158.998715 
L 229.361079 158.998715 
L 229.418413 157.880351 
L 229.539436 157.880351 
L 229.539436 156.761987 
L 229.699963 156.761987 
L 229.699963 156.202804 
L 230.492614 156.202804 
L 230.492614 155.643622 
L 230.80262 155.643622 
L 230.903394 151.729346 
L 232.450314 151.729346 
L 232.450314 151.170164 
L 232.84002 151.170164 
L 232.84002 150.610982 
L 233.032319 150.610982 
L 233.032319 150.0518 
L 233.667605 150.0518 
L 233.667605 149.492617 
L 234.745267 149.492617 
L 234.745267 148.933435 
L 234.961985 148.933435 
L 234.961985 148.374253 
L 235.197823 148.374253 
L 235.197823 147.255888 
L 236.061608 147.255888 
L 236.061608 146.696706 
L 266.747123 146.696706 
L 266.747123 146.137524 
L 266.917743 146.137524 
L 266.917743 145.578342 
L 267.094073 145.578342 
L 267.190719 141.104884 
L 267.220157 141.104884 
L 267.314687 137.74979 
L 267.345035 137.74979 
L 267.418852 134.394697 
L 267.466594 134.394697 
L 267.560448 130.480421 
L 267.586922 130.480421 
L 267.672232 127.125328 
L 267.728338 127.125328 
L 267.839444 124.329417 
L 267.860392 124.329417 
L 267.952313 120.415141 
L 267.975101 120.415141 
L 268.043469 118.178412 
L 268.151648 118.178412 
L 268.212982 114.264136 
L 268.32734 114.264136 
L 268.397069 113.145772 
L 268.47018 113.145772 
L 268.528625 109.790678 
L 268.594863 109.790678 
L 268.693625 108.672314 
L 268.761888 108.672314 
L 268.815027 107.553949 
L 268.887354 107.553949 
L 268.887354 105.876403 
L 278.52254 105.876403 
L 278.616252 103.639674 
L 278.661673 103.639674 
L 278.75767 98.607033 
L 278.78471 98.607033 
L 278.888942 94.133576 
L 278.94871 94.133576 
L 279.045917 85.18666 
L 279.06101 85.18666 
L 279.15928 80.713202 
L 279.249468 80.713202 
L 279.334636 79.035655 
L 279.364563 79.035655 
L 279.447515 76.239744 
L 285.388359 76.239744 
L 285.461818 72.325468 
L 285.510627 72.325468 
L 285.610771 67.85201 
L 285.62387 67.85201 
L 285.733511 61.141823 
L 285.739278 61.141823 
L 285.826251 59.464277 
L 285.95036 59.464277 
L 285.95036 58.905094 
L 290.208299 58.905094 
L 290.308976 56.668365 
L 290.335549 56.668365 
L 290.445609 53.872454 
L 290.447484 53.872454 
L 290.552757 46.043903 
L 290.562903 46.043903 
L 290.65548 44.366356 
L 290.675198 44.366356 
L 290.675198 43.807174 
L 294.012495 43.807174 
L 294.012495 43.247992 
L 294.136089 43.247992 
L 294.242417 38.215351 
L 294.311573 38.215351 
L 294.339711 37.096987 
L 297.15485 37.096987 
L 297.261963 32.623529 
L 297.269362 32.623529 
L 297.36646 30.3868 
L 297.42963 30.3868 
L 297.443362 28.150071 
L 299.736761 28.150071 
L 299.840346 25.35416 
L 299.862053 25.35416 
L 299.954498 21.999066 
L 299.989126 21.999066 
L 299.989126 21.439884 
L 302.029584 21.439884 
L 302.065377 19.762337 
L 302.148941 19.762337 
L 302.201503 16.407244 
L 304.252335 16.407244 
L 304.252335 15.848062 
L 305.889436 15.848062 
L 305.980852 14.170515 
L 307.562964 14.170515 
L 307.562964 13.611333 
L 308.971141 13.611333 
L 309.032242 11.933786 
L 311.635178 11.933786 
L 311.635178 11.374604 
L 312.829081 11.374604 
L 312.829081 10.815422 
L 314.984185 10.815422 
L 314.984185 10.256239 
L 316.893224 10.256239 
L 316.893224 9.697057 
L 333.429677 9.697057 
L 333.429677 9.697057 
" style="fill:none;stroke:#000080;stroke-linecap:square;stroke-width:1.5;"/>
   </g>
   <g id="line2d_25">
    <defs>
     <path d="M 0 6 
C 1.591219 6 3.117479 5.367802 4.242641 4.242641 
C 5.367802 3.117479 6 1.591219 6 0 
C 6 -1.591219 5.367802 -3.117479 4.242641 -4.242641 
C 3.117479 -5.367802 1.591219 -6 0 -6 
C -1.591219 -6 -3.117479 -5.367802 -4.242641 -4.242641 
C -5.367802 -3.117479 -6 -1.591219 -6 0 
C -6 1.591219 -5.367802 3.117479 -4.242641 4.242641 
C -3.117479 5.367802 -1.591219 6 0 6 
z
" id="mab6e10d594" style="stroke:#000080;stroke-width:1.5;"/>
    </defs>
    <g>
     <use style="fill-opacity:0;stroke:#000080;stroke-width:1.5;" x="168.751629" xlink:href="#mab6e10d594" y="244.553598"/>
     <use style="fill-opacity:0;stroke:#000080;stroke-width:1.5;" x="226.511274" xlink:href="#mab6e10d594" y="170.18236"/>
     <use style="fill-opacity:0;stroke:#000080;stroke-width:1.5;" x="278.966336" xlink:href="#mab6e10d594" y="93.015211"/>
     <use style="fill-opacity:0;stroke:#000080;stroke-width:1.5;" x="305.980852" xlink:href="#mab6e10d594" y="14.729697"/>
     <use style="fill-opacity:0;stroke:#000080;stroke-width:1.5;" x="316.893224" xlink:href="#mab6e10d594" y="9.697057"/>
     <use style="fill-opacity:0;stroke:#000080;stroke-width:1.5;" x="333.429677" xlink:href="#mab6e10d594" y="9.697057"/>
    </g>
   </g>
   <g id="line2d_26">
    <path style="fill:none;stroke:#000080;stroke-linecap:square;stroke-width:1.5;"/>
    <g/>
   </g>
   <g id="line2d_27">
    <path clip-path="url(#p613dd973f4)" d="M 266.123863 146.696706 
" style="fill:none;stroke:#000080;stroke-linecap:square;stroke-width:1.5;"/>
    <defs>
     <path d="M -12 12 
L 12 -12 
M -12 -12 
L 12 12 
" id="m36cc18277d" style="stroke:#000080;stroke-width:3;"/>
    </defs>
    <g clip-path="url(#p613dd973f4)">
     <use style="fill:#000080;stroke:#000080;stroke-width:3;" x="266.123863" xlink:href="#m36cc18277d" y="146.696706"/>
    </g>
   </g>
   <g id="line2d_28">
    <defs>
     <path d="M 0 1.5 
C 0.397805 1.5 0.77937 1.341951 1.06066 1.06066 
C 1.341951 0.77937 1.5 0.397805 1.5 0 
C 1.5 -0.397805 1.341951 -0.77937 1.06066 -1.06066 
C 0.77937 -1.341951 0.397805 -1.5 0 -1.5 
C -0.397805 -1.5 -0.77937 -1.341951 -1.06066 -1.06066 
C -1.341951 -0.77937 -1.5 -0.397805 -1.5 0 
C -1.5 0.397805 -1.341951 0.77937 -1.06066 1.06066 
C -0.77937 1.341951 -0.397805 1.5 0 1.5 
z
" id="m0aee78d336" style="stroke:#ff00ff;"/>
    </defs>
    <g>
     <use style="fill:#ff00ff;stroke:#ff00ff;" x="319.354399" xlink:href="#m0aee78d336" y="9.697057"/>
     <use style="fill:#ff00ff;stroke:#ff00ff;" x="319.354399" xlink:href="#m0aee78d336" y="9.697057"/>
    </g>
   </g>
   <g id="line2d_29">
    <path d="M 40.355341 294.88 
L 40.355341 289.288178 
L 52.280845 289.288178 
L 52.280845 286.492266 
L 59.256818 286.492266 
L 59.256818 285.933084 
L 64.20635 285.933084 
L 64.20635 282.577991 
L 68.045504 282.577991 
L 68.045504 282.018808 
L 78.158295 282.018808 
L 78.158295 280.900444 
L 79.971009 280.900444 
L 79.971009 279.782079 
L 83.107827 279.782079 
L 83.107827 279.222897 
L 84.484951 279.222897 
L 84.484951 276.986168 
L 91.014019 276.986168 
L 91.014019 275.867804 
L 91.896513 275.867804 
L 91.896513 274.749439 
L 96.410455 274.749439 
L 96.410455 274.190257 
L 98.289215 274.190257 
L 98.289215 273.631075 
L 103.386428 273.631075 
L 103.386428 266.361706 
L 112.696514 266.361706 
L 112.696514 264.684159 
L 115.089931 264.684159 
L 115.089931 264.124977 
L 118.522119 264.124977 
L 118.522119 263.565795 
L 120.095232 263.565795 
L 120.095232 263.006612 
L 123.148328 263.006612 
L 123.148328 261.888248 
L 123.698931 261.888248 
L 123.698931 260.769883 
L 125.002954 260.769883 
L 125.002954 259.651519 
L 125.619682 259.651519 
L 125.619682 259.092337 
L 127.886754 259.092337 
L 127.886754 258.533154 
L 131.937015 258.533154 
L 131.937015 256.855608 
L 132.676239 256.855608 
L 132.676239 255.737243 
L 133.307682 255.737243 
L 133.307682 252.941332 
L 134.720537 252.941332 
L 134.720537 252.38215 
L 136.026124 252.38215 
L 136.026124 250.704603 
L 139.382115 250.704603 
L 139.382115 249.586238 
L 139.759075 249.586238 
L 139.759075 249.027056 
L 143.946241 249.027056 
L 143.946241 247.34951 
L 144.920362 247.34951 
L 144.920362 246.790327 
L 146.102113 246.790327 
L 146.102113 246.231145 
L 150.669815 246.231145 
L 150.669815 244.553598 
L 154.458043 244.553598 
L 154.458043 243.435234 
L 163.80868 243.435234 
L 163.80868 242.876052 
L 164.301765 242.876052 
L 164.301765 242.316869 
L 164.606059 242.316869 
L 164.606059 241.198505 
L 166.485252 241.198505 
L 166.485252 240.639323 
L 166.875149 240.639323 
L 166.875149 240.08014 
L 167.544851 240.08014 
L 167.544851 239.520958 
L 167.922074 239.520958 
L 167.922074 238.961776 
L 169.286437 238.961776 
L 169.286437 238.402594 
L 169.69328 238.402594 
L 169.69328 237.843411 
L 170.281538 237.843411 
L 170.281538 237.284229 
L 174.098993 237.284229 
L 174.098993 236.725047 
L 176.040782 236.725047 
L 176.040782 235.0475 
L 176.650542 235.0475 
L 176.650542 233.929136 
L 178.751016 233.929136 
L 178.751016 233.369954 
L 179.56544 233.369954 
L 179.56544 232.251589 
L 181.492088 232.251589 
L 181.492088 231.692407 
L 181.827894 231.692407 
L 181.827894 230.574042 
L 184.829468 230.574042 
L 184.829468 229.455678 
L 185.732511 229.455678 
L 185.732511 228.896496 
L 186.72307 228.896496 
L 186.72307 227.218949 
L 189.882461 227.218949 
L 189.882461 226.659767 
L 190.172107 226.659767 
L 190.172107 226.100584 
L 191.361395 226.100584 
L 191.361395 225.541402 
L 192.078693 225.541402 
L 192.078693 224.98222 
L 192.453849 224.98222 
L 192.453849 224.423038 
L 193.194796 224.423038 
L 193.194796 223.304673 
L 195.150053 223.304673 
L 195.150053 222.745491 
L 196.72391 222.745491 
L 196.72391 221.627126 
L 199.262977 221.627126 
L 199.262977 221.067944 
L 203.483483 221.067944 
L 203.483483 219.94958 
L 203.785171 219.94958 
L 203.785171 219.390397 
L 204.429093 219.390397 
L 204.429093 218.831215 
L 205.582796 218.831215 
L 205.582796 217.712851 
L 207.708937 217.712851 
L 207.708937 217.153669 
L 207.839788 217.153669 
L 207.839788 216.594486 
L 208.557842 216.594486 
L 208.557842 215.476122 
L 210.646035 215.476122 
L 210.646035 214.91694 
L 211.010689 214.91694 
L 211.010689 214.357757 
L 212.545217 214.357757 
L 212.545217 213.239393 
L 213.714661 213.239393 
L 213.714661 212.680211 
L 213.968286 212.680211 
L 213.968286 212.121028 
L 214.961789 212.121028 
L 214.961789 211.561846 
L 215.711964 211.561846 
L 215.711964 211.002664 
L 217.001017 211.002664 
L 217.001017 209.325117 
L 218.006695 209.325117 
L 218.006695 208.765935 
L 218.535417 208.765935 
L 218.535417 207.64757 
L 218.86317 207.64757 
L 218.86317 207.088388 
L 219.152638 207.088388 
L 219.152638 205.970024 
L 220.135542 205.970024 
L 220.135542 204.851659 
L 220.525297 204.851659 
L 220.525297 204.292477 
L 221.246137 204.292477 
L 221.246137 203.733295 
L 221.436633 203.733295 
L 221.436633 203.174112 
L 221.571029 203.174112 
L 221.571029 202.61493 
L 222.058736 202.61493 
L 222.058736 202.055748 
L 223.19177 202.055748 
L 223.19177 201.496566 
L 224.090425 201.496566 
L 224.090425 200.937384 
L 224.950113 200.937384 
L 224.950113 200.378201 
L 225.268116 200.378201 
L 225.272923 199.259837 
L 225.389724 199.259837 
L 225.389724 198.700655 
L 226.410867 198.700655 
L 226.410867 198.141472 
L 227.196194 198.141472 
L 227.196194 197.58229 
L 227.51523 197.58229 
L 227.51523 196.463926 
L 228.221954 196.463926 
L 228.221954 195.904743 
L 228.434924 195.904743 
L 228.434924 195.345561 
L 228.81795 195.345561 
L 228.81795 194.227197 
L 230.250714 194.227197 
L 230.250714 193.108832 
L 266.125205 193.108832 
L 266.235879 183.602734 
L 266.251564 183.602734 
L 266.35488 178.010912 
L 266.370253 178.010912 
L 266.468106 175.215 
L 266.517615 175.215 
L 266.626303 172.419089 
L 266.680424 172.419089 
L 266.691314 171.300725 
L 266.79491 171.300725 
L 266.864892 168.504814 
L 266.934526 168.504814 
L 267.04124 164.590538 
L 267.086493 164.590538 
L 267.1826 159.557898 
L 267.246191 159.557898 
L 267.298014 157.880351 
L 267.403494 157.880351 
L 267.487237 156.202804 
L 267.611461 156.202804 
L 267.654549 153.406893 
L 267.736768 153.406893 
L 267.823117 151.170164 
L 267.857685 151.170164 
L 267.857685 150.610982 
L 267.986932 150.610982 
L 267.986932 150.0518 
L 268.139594 150.0518 
L 268.139594 149.492617 
L 278.050038 149.492617 
L 278.155657 139.986519 
L 278.187824 139.986519 
L 278.297453 131.039603 
L 278.329898 131.039603 
L 278.412572 124.329417 
L 278.483547 124.329417 
L 278.59233 121.533505 
L 278.619681 121.533505 
L 278.727545 116.500865 
L 278.753526 116.500865 
L 278.837152 113.145772 
L 278.888319 113.145772 
L 278.985606 112.027407 
L 279.006108 112.027407 
L 279.006108 111.468225 
L 285.025787 111.468225 
L 285.107863 103.080491 
L 285.140855 103.080491 
L 285.226194 99.725398 
L 285.295842 99.725398 
L 285.395321 96.370304 
L 285.438553 96.370304 
L 285.541365 92.456029 
L 285.622907 92.456029 
L 285.622907 91.896847 
L 289.975207 91.896847 
L 290.079998 85.745842 
L 290.087324 85.745842 
L 290.195199 81.272384 
L 290.212118 81.272384 
L 290.314105 77.358108 
L 290.325977 77.358108 
L 290.424981 71.766286 
L 290.4436 71.766286 
L 290.501373 69.529557 
L 293.814295 69.529557 
L 293.91369 62.260188 
L 293.950346 62.260188 
L 293.950346 61.701006 
L 294.063143 61.701006 
L 294.168486 56.668365 
L 296.951068 56.668365 
L 297.054061 51.635725 
L 297.124906 51.635725 
L 297.201389 48.280632 
L 297.246732 48.280632 
L 297.275705 46.603085 
L 299.603178 46.603085 
L 299.707163 41.570445 
L 299.733717 41.570445 
L 299.815233 38.215351 
L 299.852061 38.215351 
L 299.852061 37.656169 
L 301.913769 37.656169 
L 302.019408 34.301076 
L 302.044737 34.301076 
L 302.139255 31.505165 
L 303.938723 31.505165 
L 304.028583 28.150071 
L 304.115862 28.150071 
L 304.115862 27.590889 
L 305.739665 27.590889 
L 305.844268 24.794978 
L 305.864691 24.794978 
L 305.938197 21.999066 
L 307.394151 21.999066 
L 307.495414 19.762337 
L 307.544372 19.762337 
L 307.544372 19.203155 
L 308.937195 19.203155 
L 309.024929 16.966426 
L 310.291874 16.966426 
L 310.368064 14.729697 
L 311.543391 14.729697 
L 311.543391 14.170515 
L 313.861198 14.170515 
L 313.880756 13.052151 
L 314.887989 13.052151 
L 314.943295 11.374604 
L 316.791505 11.374604 
L 316.791505 10.815422 
L 318.557808 10.815422 
L 318.557808 10.256239 
L 319.354399 10.256239 
L 319.354399 9.697057 
L 333.429677 9.697057 
L 333.429677 9.697057 
" style="fill:none;stroke:#ff00ff;stroke-linecap:square;stroke-width:1.5;"/>
   </g>
   <g id="line2d_30">
    <defs>
     <path d="M -0 8.485281 
L 5.091169 0 
L 0 -8.485281 
L -5.091169 -0 
z
" id="m76ea87a138" style="stroke:#ff00ff;stroke-linejoin:miter;stroke-width:1.5;"/>
    </defs>
    <g>
     <use style="fill-opacity:0;stroke:#ff00ff;stroke-linejoin:miter;stroke-width:1.5;" x="118.522119" xlink:href="#m76ea87a138" y="263.565795"/>
     <use style="fill-opacity:0;stroke:#ff00ff;stroke-linejoin:miter;stroke-width:1.5;" x="212.545217" xlink:href="#m76ea87a138" y="213.239393"/>
     <use style="fill-opacity:0;stroke:#ff00ff;stroke-linejoin:miter;stroke-width:1.5;" x="267.857685" xlink:href="#m76ea87a138" y="150.610982"/>
     <use style="fill-opacity:0;stroke:#ff00ff;stroke-linejoin:miter;stroke-width:1.5;" x="299.707163" xlink:href="#m76ea87a138" y="41.570445"/>
     <use style="fill-opacity:0;stroke:#ff00ff;stroke-linejoin:miter;stroke-width:1.5;" x="319.354399" xlink:href="#m76ea87a138" y="9.697057"/>
     <use style="fill-opacity:0;stroke:#ff00ff;stroke-linejoin:miter;stroke-width:1.5;" x="333.429677" xlink:href="#m76ea87a138" y="9.697057"/>
    </g>
   </g>
   <g id="line2d_31">
    <path style="fill:none;stroke:#ff00ff;stroke-linecap:square;stroke-width:1.5;"/>
    <g/>
   </g>
   <g id="line2d_32">
    <path clip-path="url(#p613dd973f4)" d="M 266.123863 193.108832 
" style="fill:none;stroke:#ff00ff;stroke-linecap:square;stroke-width:1.5;"/>
    <defs>
     <path d="M -12 12 
L 12 -12 
M -12 -12 
L 12 12 
" id="m46d2570b04" style="stroke:#ff00ff;stroke-width:3;"/>
    </defs>
    <g clip-path="url(#p613dd973f4)">
     <use style="fill:#ff00ff;stroke:#ff00ff;stroke-width:3;" x="266.123863" xlink:href="#m46d2570b04" y="193.108832"/>
    </g>
   </g>
   <g id="line2d_33">
    <defs>
     <path d="M 0 1.5 
C 0.397805 1.5 0.77937 1.341951 1.06066 1.06066 
C 1.341951 0.77937 1.5 0.397805 1.5 0 
C 1.5 -0.397805 1.341951 -0.77937 1.06066 -1.06066 
C 0.77937 -1.341951 0.397805 -1.5 0 -1.5 
C -0.397805 -1.5 -0.77937 -1.341951 -1.06066 -1.06066 
C -1.341951 -0.77937 -1.5 -0.397805 -1.5 0 
C -1.5 0.397805 -1.341951 0.77937 -1.06066 1.06066 
C -0.77937 1.341951 -0.397805 1.5 0 1.5 
z
" id="m79d194289e" style="stroke:#ffa500;"/>
    </defs>
    <g>
     <use style="fill:#ffa500;stroke:#ffa500;" x="313.83847" xlink:href="#m79d194289e" y="9.697057"/>
     <use style="fill:#ffa500;stroke:#ffa500;" x="313.83847" xlink:href="#m79d194289e" y="9.697057"/>
    </g>
   </g>
   <g id="line2d_34">
    <path d="M 40.355341 294.88 
L 40.355341 279.222897 
L 52.280845 279.222897 
L 52.280845 276.986168 
L 59.256818 276.986168 
L 59.256818 271.953528 
L 78.158295 271.953528 
L 78.158295 270.835164 
L 81.610808 270.835164 
L 81.610808 270.275981 
L 86.946982 270.275981 
L 86.946982 269.716799 
L 90.0838 269.716799 
L 90.0838 268.598435 
L 91.896513 268.598435 
L 91.896513 268.039252 
L 95.033331 268.039252 
L 95.033331 266.361706 
L 97.059773 266.361706 
L 97.059773 264.684159 
L 121.536482 264.684159 
L 121.536482 262.44743 
L 127.015436 262.44743 
L 127.015436 261.888248 
L 127.886754 261.888248 
L 127.886754 261.329066 
L 128.306406 261.329066 
L 128.306406 259.651519 
L 129.794786 259.651519 
L 129.794786 258.533154 
L 132.104053 258.533154 
L 132.104053 257.973972 
L 132.915754 257.973972 
L 132.915754 256.855608 
L 133.073598 256.855608 
L 133.073598 256.296425 
L 133.461986 256.296425 
L 133.461986 255.737243 
L 134.933384 255.737243 
L 134.933384 254.059696 
L 137.484499 254.059696 
L 137.484499 252.941332 
L 139.107709 252.941332 
L 139.107709 251.822967 
L 144.153781 251.822967 
L 144.153781 251.263785 
L 144.480724 251.263785 
L 144.480724 249.586238 
L 149.287982 249.586238 
L 149.287982 249.027056 
L 153.928621 249.027056 
L 153.928621 246.231145 
L 159.133388 246.231145 
L 159.133388 243.435234 
L 160.350316 243.435234 
L 160.350316 242.876052 
L 161.829891 242.876052 
L 161.829891 242.316869 
L 165.27166 242.316869 
L 165.27166 241.757687 
L 166.016985 241.757687 
L 166.016985 241.198505 
L 166.764648 241.198505 
L 166.764648 240.639323 
L 170.488125 240.639323 
L 170.488125 238.402594 
L 172.50762 238.402594 
L 172.50762 237.284229 
L 173.799643 237.284229 
L 173.799643 236.725047 
L 174.414555 236.725047 
L 174.414555 236.165865 
L 175.110922 236.165865 
L 175.110922 234.488318 
L 175.648408 234.488318 
L 175.747343 232.251589 
L 175.852251 232.251589 
L 175.852251 230.574042 
L 176.518991 230.574042 
L 176.518991 228.896496 
L 178.601238 228.896496 
L 178.601238 227.778131 
L 178.789635 227.778131 
L 178.789635 226.100584 
L 179.888986 226.100584 
L 179.888986 224.98222 
L 181.211942 224.98222 
L 181.211942 223.863855 
L 181.87402 223.863855 
L 181.87402 222.186309 
L 181.988796 222.186309 
L 181.988796 221.067944 
L 182.310646 221.067944 
L 182.310646 218.272033 
L 182.810784 218.272033 
L 182.810784 217.153669 
L 183.334918 217.153669 
L 183.334918 216.035304 
L 183.532653 216.035304 
L 183.532653 213.798575 
L 183.99896 213.798575 
L 183.99896 213.239393 
L 184.205348 213.239393 
L 184.297621 209.325117 
L 185.721464 209.325117 
L 185.721464 207.64757 
L 185.835271 207.64757 
L 185.835271 204.851659 
L 186.154291 204.851659 
L 186.154291 203.174112 
L 186.569485 203.174112 
L 186.569485 202.61493 
L 187.087535 202.61493 
L 187.087535 202.055748 
L 187.878779 202.055748 
L 187.878779 200.937384 
L 188.139977 200.937384 
L 188.139977 199.819019 
L 188.572926 199.819019 
L 188.572926 199.259837 
L 188.876076 199.259837 
L 188.876076 197.58229 
L 189.03175 197.58229 
L 189.03175 195.345561 
L 189.228137 195.345561 
L 189.228137 194.786379 
L 189.457917 194.786379 
L 189.457917 193.668014 
L 189.581969 193.668014 
L 189.611374 191.431285 
L 190.115137 191.431285 
L 190.115137 189.753739 
L 190.615657 189.753739 
L 190.615657 187.51701 
L 190.923287 187.51701 
L 190.923287 186.957828 
L 191.501477 186.957828 
L 191.501477 184.721099 
L 192.23327 184.721099 
L 192.303762 181.925187 
L 192.708484 181.925187 
L 192.708484 181.366005 
L 193.891406 181.366005 
L 193.891406 180.806823 
L 194.157379 180.806823 
L 194.188931 178.570094 
L 194.549885 178.570094 
L 194.549885 176.892547 
L 194.760264 176.892547 
L 194.760264 175.774183 
L 195.143664 175.774183 
L 195.143664 174.096636 
L 195.464431 174.096636 
L 195.464431 173.537454 
L 195.848982 173.537454 
L 195.848982 171.859907 
L 196.088563 171.859907 
L 196.088563 170.741543 
L 196.316896 170.741543 
L 196.316896 169.623178 
L 197.072078 169.623178 
L 197.072078 166.827267 
L 197.474835 166.827267 
L 197.474835 166.268085 
L 199.131706 166.268085 
L 199.131706 165.708902 
L 266.123966 165.708902 
L 266.229793 149.492617 
L 266.237999 149.492617 
L 266.347307 127.125328 
L 266.350398 127.125328 
L 266.43921 113.704954 
L 266.47077 113.704954 
L 266.47077 112.027407 
L 278.05021 112.027407 
L 278.149825 90.778482 
L 278.161452 90.778482 
L 278.223695 80.15402 
L 285.032805 80.15402 
L 285.141755 57.227548 
L 289.975293 57.227548 
L 290.054252 38.774534 
L 293.819091 38.774534 
L 293.88397 29.268436 
L 296.954365 29.268436 
L 296.98641 22.558249 
L 299.606604 22.558249 
L 299.647342 16.966426 
L 301.904659 16.966426 
L 301.929685 13.611333 
L 303.950021 13.611333 
L 303.956625 12.492968 
L 305.741017 12.492968 
L 305.741017 11.933786 
L 307.393935 11.933786 
L 307.393935 11.374604 
L 308.889738 11.374604 
L 308.889738 10.815422 
L 311.538874 10.815422 
L 311.538874 10.256239 
L 313.83847 10.256239 
L 313.83847 9.697057 
L 333.429677 9.697057 
L 333.429677 9.697057 
" style="fill:none;stroke:#ffa500;stroke-linecap:square;stroke-width:1.5;"/>
   </g>
   <g id="line2d_35">
    <defs>
     <path d="M 0 -6 
L -1.347084 -1.854102 
L -5.706339 -1.854102 
L -2.179628 0.708204 
L -3.526712 4.854102 
L -0 2.291796 
L 3.526712 4.854102 
L 2.179628 0.708204 
L 5.706339 -1.854102 
L 1.347084 -1.854102 
z
" id="m0267ee425c" style="stroke:#ffa500;stroke-linejoin:bevel;stroke-width:1.5;"/>
    </defs>
    <g>
     <use style="fill-opacity:0;stroke:#ffa500;stroke-linejoin:bevel;stroke-width:1.5;" x="97.059773" xlink:href="#m0267ee425c" y="264.684159"/>
     <use style="fill-opacity:0;stroke:#ffa500;stroke-linejoin:bevel;stroke-width:1.5;" x="185.721464" xlink:href="#m0267ee425c" y="207.64757"/>
     <use style="fill-opacity:0;stroke:#ffa500;stroke-linejoin:bevel;stroke-width:1.5;" x="199.131706" xlink:href="#m0267ee425c" y="165.708902"/>
     <use style="fill-opacity:0;stroke:#ffa500;stroke-linejoin:bevel;stroke-width:1.5;" x="285.070518" xlink:href="#m0267ee425c" y="74.003015"/>
     <use style="fill-opacity:0;stroke:#ffa500;stroke-linejoin:bevel;stroke-width:1.5;" x="313.83847" xlink:href="#m0267ee425c" y="9.697057"/>
     <use style="fill-opacity:0;stroke:#ffa500;stroke-linejoin:bevel;stroke-width:1.5;" x="333.429677" xlink:href="#m0267ee425c" y="9.697057"/>
    </g>
   </g>
   <g id="line2d_36">
    <path style="fill:none;stroke:#ffa500;stroke-linecap:square;stroke-width:1.5;"/>
    <g/>
   </g>
   <g id="line2d_37">
    <path clip-path="url(#p613dd973f4)" d="M 266.123863 165.708902 
" style="fill:none;stroke:#ffa500;stroke-linecap:square;stroke-width:1.5;"/>
    <defs>
     <path d="M -12 12 
L 12 -12 
M -12 -12 
L 12 12 
" id="m2e9e9d6c23" style="stroke:#ffa500;stroke-width:3;"/>
    </defs>
    <g clip-path="url(#p613dd973f4)">
     <use style="fill:#ffa500;stroke:#ffa500;stroke-width:3;" x="266.123863" xlink:href="#m2e9e9d6c23" y="165.708902"/>
    </g>
   </g>
   <g id="line2d_38">
    <defs>
     <path d="M 0 1.5 
C 0.397805 1.5 0.77937 1.341951 1.06066 1.06066 
C 1.341951 0.77937 1.5 0.397805 1.5 0 
C 1.5 -0.397805 1.341951 -0.77937 1.06066 -1.06066 
C 0.77937 -1.341951 0.397805 -1.5 0 -1.5 
C -0.397805 -1.5 -0.77937 -1.341951 -1.06066 -1.06066 
C -1.341951 -0.77937 -1.5 -0.397805 -1.5 0 
C -1.5 0.397805 -1.341951 0.77937 -1.06066 1.06066 
C -0.77937 1.341951 -0.397805 1.5 0 1.5 
z
" id="m168ac0eaf0" style="stroke:#6495ed;"/>
    </defs>
    <g>
     <use style="fill:#6495ed;stroke:#6495ed;" x="335.384586" xlink:href="#m168ac0eaf0" y="227.778131"/>
     <use style="fill:#6495ed;stroke:#6495ed;" x="335.384586" xlink:href="#m168ac0eaf0" y="227.778131"/>
    </g>
   </g>
   <g id="line2d_39">
    <path d="M 52.280845 294.88 
L 52.280845 285.933084 
L 59.256818 285.933084 
L 59.256818 284.255537 
L 68.045504 284.255537 
L 68.045504 283.696355 
L 73.834464 283.696355 
L 73.834464 282.018808 
L 76.131854 282.018808 
L 76.131854 280.900444 
L 83.107827 280.900444 
L 83.107827 278.104533 
L 85.759969 278.104533 
L 85.759969 274.749439 
L 91.014019 274.749439 
L 91.014019 270.275981 
L 91.896513 270.275981 
L 91.896513 268.039252 
L 94.301099 268.039252 
L 94.301099 267.48007 
L 98.289215 267.48007 
L 98.289215 266.920888 
L 98.872486 266.920888 
L 98.872486 265.243341 
L 99.436631 265.243341 
L 99.436631 264.684159 
L 103.386428 264.684159 
L 103.386428 263.006612 
L 105.461817 263.006612 
L 105.461817 260.210701 
L 113.202576 260.210701 
L 113.202576 257.41479 
L 114.637146 257.41479 
L 114.637146 256.855608 
L 116.172355 256.855608 
L 116.172355 253.500514 
L 120.426105 253.500514 
L 120.426105 252.941332 
L 121.382177 252.941332 
L 121.382177 251.822967 
L 127.673027 251.822967 
L 127.673027 250.145421 
L 131.512181 250.145421 
L 131.512181 249.586238 
L 137.845453 249.586238 
L 137.845453 248.467874 
L 154.275738 248.467874 
L 154.275738 247.908692 
L 154.321496 247.908692 
L 154.321496 247.34951 
L 157.916737 247.34951 
L 157.916737 246.790327 
L 158.283592 246.790327 
L 158.283592 246.231145 
L 160.510512 246.231145 
L 160.510512 245.671963 
L 170.434471 245.671963 
L 170.434471 244.553598 
L 182.954141 244.553598 
L 182.954141 243.435234 
L 186.516812 243.435234 
L 186.516812 242.316869 
L 188.494729 242.316869 
L 188.494729 241.757687 
L 191.530408 241.757687 
L 191.530408 241.198505 
L 191.59598 241.198505 
L 191.59598 240.639323 
L 195.57073 240.639323 
L 195.57073 239.520958 
L 266.288173 239.520958 
L 266.288173 238.961776 
L 266.291377 238.961776 
L 266.291377 238.402594 
L 266.474378 238.402594 
L 266.474378 237.843411 
L 285.12005 237.843411 
L 285.12005 237.284229 
L 290.045953 237.284229 
L 290.045953 236.725047 
L 293.870915 236.725047 
L 293.870915 236.165865 
L 296.998264 236.165865 
L 296.998264 235.606682 
L 299.64364 235.606682 
L 299.64364 235.0475 
L 303.958445 235.0475 
L 303.958445 234.488318 
L 316.79753 234.488318 
L 316.79753 233.929136 
L 317.679275 233.929136 
L 317.679275 232.810771 
L 319.31778 232.810771 
L 319.31778 232.251589 
L 321.515583 232.251589 
L 321.515583 231.133225 
L 324.650503 231.133225 
L 324.650503 229.455678 
L 325.214341 229.455678 
L 325.214341 228.896496 
L 325.760286 228.896496 
L 325.760286 228.337313 
L 333.429677 228.337313 
" style="fill:none;stroke:#6495ed;stroke-linecap:square;stroke-width:1.5;"/>
   </g>
   <g id="line2d_40">
    <defs>
     <path d="M -0 6 
L 6 -6 
L -6 -6 
z
" id="m1a2ebdbbea" style="stroke:#6495ed;stroke-linejoin:miter;stroke-width:1.5;"/>
    </defs>
    <g>
     <use style="fill-opacity:0;stroke:#6495ed;stroke-linejoin:miter;stroke-width:1.5;" x="137.845453" xlink:href="#m1a2ebdbbea" y="249.586238"/>
     <use style="fill-opacity:0;stroke:#6495ed;stroke-linejoin:miter;stroke-width:1.5;" x="191.59598" xlink:href="#m1a2ebdbbea" y="241.198505"/>
     <use style="fill-opacity:0;stroke:#6495ed;stroke-linejoin:miter;stroke-width:1.5;" x="195.57073" xlink:href="#m1a2ebdbbea" y="239.520958"/>
     <use style="fill-opacity:0;stroke:#6495ed;stroke-linejoin:miter;stroke-width:1.5;" x="325.760286" xlink:href="#m1a2ebdbbea" y="228.337313"/>
     <use style="fill-opacity:0;stroke:#6495ed;stroke-linejoin:miter;stroke-width:1.5;" x="325.760286" xlink:href="#m1a2ebdbbea" y="228.337313"/>
     <use style="fill-opacity:0;stroke:#6495ed;stroke-linejoin:miter;stroke-width:1.5;" x="333.429677" xlink:href="#m1a2ebdbbea" y="228.337313"/>
    </g>
   </g>
   <g id="line2d_41">
    <path style="fill:none;stroke:#6495ed;stroke-linecap:square;stroke-width:1.5;"/>
    <g/>
   </g>
   <g id="line2d_42">
    <path clip-path="url(#p613dd973f4)" d="M 266.123863 239.520958 
" style="fill:none;stroke:#6495ed;stroke-linecap:square;stroke-width:1.5;"/>
    <defs>
     <path d="M -12 12 
L 12 -12 
M -12 -12 
L 12 12 
" id="m756150870d" style="stroke:#6495ed;stroke-width:3;"/>
    </defs>
    <g clip-path="url(#p613dd973f4)">
     <use style="fill:#6495ed;stroke:#6495ed;stroke-width:3;" x="266.123863" xlink:href="#m756150870d" y="239.520958"/>
    </g>
   </g>
   <g id="line2d_43">
    <defs>
     <path d="M 0 1.5 
C 0.397805 1.5 0.77937 1.341951 1.06066 1.06066 
C 1.341951 0.77937 1.5 0.397805 1.5 0 
C 1.5 -0.397805 1.341951 -0.77937 1.06066 -1.06066 
C 0.77937 -1.341951 0.397805 -1.5 0 -1.5 
C -0.397805 -1.5 -0.77937 -1.341951 -1.06066 -1.06066 
C -1.341951 -0.77937 -1.5 -0.397805 -1.5 0 
C -1.5 0.397805 -1.341951 0.77937 -1.06066 1.06066 
C -0.77937 1.341951 -0.397805 1.5 0 1.5 
z
" id="mb3c7f6936c" style="stroke:#ff0000;"/>
    </defs>
    <g>
     <use style="fill:#ff0000;stroke:#ff0000;" x="343.738101" xlink:href="#mb3c7f6936c" y="216.594486"/>
     <use style="fill:#ff0000;stroke:#ff0000;" x="343.738101" xlink:href="#mb3c7f6936c" y="216.594486"/>
    </g>
   </g>
   <g id="line2d_44">
    <path d="M 40.355341 294.88 
L 40.355341 289.84736 
L 52.280845 289.84736 
L 52.280845 287.051449 
L 64.20635 287.051449 
L 64.20635 285.933084 
L 68.045504 285.933084 
L 68.045504 284.255537 
L 78.158295 284.255537 
L 78.158295 282.577991 
L 92.735942 282.577991 
L 92.735942 282.018808 
L 97.685473 282.018808 
L 97.685473 280.900444 
L 101.025901 280.900444 
L 101.025901 280.341262 
L 105.066285 280.341262 
L 105.066285 279.782079 
L 107.313588 279.782079 
L 107.313588 279.222897 
L 124.100619 279.222897 
L 124.100619 278.663715 
L 126.331709 278.663715 
L 126.331709 278.104533 
L 146.964332 278.104533 
L 146.964332 277.545351 
L 147.651244 277.545351 
L 147.651244 276.426986 
L 149.379579 276.426986 
L 149.379579 275.867804 
L 153.090361 275.867804 
L 153.090361 275.308622 
L 154.683241 275.308622 
L 154.683241 274.749439 
L 156.079286 274.749439 
L 156.079286 274.190257 
L 157.427822 274.190257 
L 157.427822 273.631075 
L 159.253883 273.631075 
L 159.253883 273.071893 
L 161.501885 273.071893 
L 161.501885 271.953528 
L 163.623395 271.953528 
L 163.623395 271.394346 
L 164.186252 271.394346 
L 164.186252 270.835164 
L 170.434471 270.835164 
L 170.434471 270.275981 
L 170.876553 270.275981 
L 170.876553 269.157617 
L 172.954322 269.157617 
L 172.954322 268.598435 
L 173.982792 268.598435 
L 173.982792 268.039252 
L 176.053708 268.039252 
L 176.073079 266.920888 
L 179.811265 266.920888 
L 179.811265 266.361706 
L 180.033133 266.361706 
L 180.033133 265.802523 
L 180.642531 265.802523 
L 180.642531 263.006612 
L 181.1544 263.006612 
L 181.1544 262.44743 
L 181.604753 262.44743 
L 181.604753 261.329066 
L 188.194296 261.329066 
L 188.194296 260.769883 
L 189.490493 260.769883 
L 189.490493 260.210701 
L 192.348925 260.210701 
L 192.348925 259.651519 
L 196.799528 259.651519 
L 196.799528 259.092337 
L 199.048725 259.092337 
L 199.048725 258.533154 
L 199.34827 258.533154 
L 199.34827 257.973972 
L 202.523138 257.973972 
L 202.523138 256.855608 
L 205.28176 256.855608 
L 205.28176 255.178061 
L 206.609366 255.178061 
L 206.609366 254.059696 
L 207.691483 254.059696 
L 207.691483 252.941332 
L 208.05334 252.941332 
L 208.05334 252.38215 
L 208.547094 252.38215 
L 208.547094 251.822967 
L 213.005386 251.822967 
L 213.005386 251.263785 
L 213.857381 251.263785 
L 213.857381 250.704603 
L 214.411843 250.704603 
L 214.411843 249.586238 
L 215.132604 249.586238 
L 215.132604 249.027056 
L 215.295137 249.027056 
L 215.295137 246.790327 
L 215.585831 246.790327 
L 215.585831 245.671963 
L 216.003996 245.671963 
L 216.003996 244.553598 
L 216.69637 244.553598 
L 216.69637 243.435234 
L 220.278969 243.435234 
L 220.278969 242.316869 
L 222.96539 242.316869 
L 222.96539 241.757687 
L 266.47512 241.757687 
L 266.47512 241.198505 
L 266.690748 241.198505 
L 266.690748 240.639323 
L 266.822785 240.639323 
L 266.822785 240.08014 
L 266.98988 240.08014 
L 266.98988 239.520958 
L 278.192619 239.520958 
L 278.298064 236.725047 
L 278.335144 236.725047 
L 278.349589 235.606682 
L 285.167016 235.606682 
L 285.220604 233.929136 
L 285.306937 233.929136 
L 285.306937 233.369954 
L 290.1865 233.369954 
L 290.246675 231.692407 
L 293.992421 231.692407 
L 294.007473 230.574042 
L 296.998728 230.574042 
L 297.034674 228.337313 
L 299.663847 228.337313 
L 299.67441 227.218949 
L 303.982749 227.218949 
L 303.982749 226.659767 
L 305.782156 226.659767 
L 305.789878 224.98222 
L 307.418085 224.98222 
L 307.424815 223.863855 
L 308.918049 223.863855 
L 308.918049 223.304673 
L 312.749085 223.304673 
L 312.749085 222.745491 
L 313.852534 222.745491 
L 313.852534 222.186309 
L 314.93326 222.186309 
L 314.93326 221.627126 
L 316.809058 221.627126 
L 316.809058 221.067944 
L 319.327737 221.067944 
L 319.327737 220.508762 
L 320.088167 220.508762 
L 320.091529 218.831215 
L 324.6577 218.831215 
L 324.6577 218.272033 
L 333.429677 218.272033 
L 333.429677 218.272033 
" style="fill:none;stroke:#ff0000;stroke-linecap:square;stroke-width:1.5;"/>
   </g>
   <g id="line2d_45">
    <defs>
     <path d="M 0 -6 
L -5.196152 -3 
L -5.196152 3 
L -0 6 
L 5.196152 3 
L 5.196152 -3 
z
" id="ma9580df0ff" style="stroke:#ff0000;stroke-linejoin:miter;stroke-width:1.5;"/>
    </defs>
    <g>
     <use style="fill-opacity:0;stroke:#ff0000;stroke-linejoin:miter;stroke-width:1.5;" x="105.066285" xlink:href="#ma9580df0ff" y="279.782079"/>
     <use style="fill-opacity:0;stroke:#ff0000;stroke-linejoin:miter;stroke-width:1.5;" x="188.194296" xlink:href="#ma9580df0ff" y="260.769883"/>
     <use style="fill-opacity:0;stroke:#ff0000;stroke-linejoin:miter;stroke-width:1.5;" x="222.96539" xlink:href="#ma9580df0ff" y="242.316869"/>
     <use style="fill-opacity:0;stroke:#ff0000;stroke-linejoin:miter;stroke-width:1.5;" x="299.67441" xlink:href="#ma9580df0ff" y="227.778131"/>
     <use style="fill-opacity:0;stroke:#ff0000;stroke-linejoin:miter;stroke-width:1.5;" x="324.6577" xlink:href="#ma9580df0ff" y="218.272033"/>
     <use style="fill-opacity:0;stroke:#ff0000;stroke-linejoin:miter;stroke-width:1.5;" x="333.429677" xlink:href="#ma9580df0ff" y="218.272033"/>
    </g>
   </g>
   <g id="line2d_46">
    <path style="fill:none;stroke:#ff0000;stroke-linecap:square;stroke-width:1.5;"/>
    <g/>
   </g>
   <g id="line2d_47">
    <path clip-path="url(#p613dd973f4)" d="M 266.123863 241.757687 
" style="fill:none;stroke:#ff0000;stroke-linecap:square;stroke-width:1.5;"/>
    <defs>
     <path d="M -12 12 
L 12 -12 
M -12 -12 
L 12 12 
" id="md7d16144d5" style="stroke:#ff0000;stroke-width:3;"/>
    </defs>
    <g clip-path="url(#p613dd973f4)">
     <use style="fill:#ff0000;stroke:#ff0000;stroke-width:3;" x="266.123863" xlink:href="#md7d16144d5" y="241.757687"/>
    </g>
   </g>
   <g id="line2d_48">
    <path d="M 333.429677 228.337313 
L 363.933742 289.176341 
" style="fill:none;stroke:#6495ed;stroke-linecap:square;stroke-width:1.5;"/>
    <g>
     <use style="fill-opacity:0;stroke:#6495ed;stroke-linejoin:miter;stroke-width:1.5;" x="333.429677" xlink:href="#m1a2ebdbbea" y="228.337313"/>
     <use style="fill-opacity:0;stroke:#6495ed;stroke-linejoin:miter;stroke-width:1.5;" x="363.933742" xlink:href="#m1a2ebdbbea" y="289.176341"/>
    </g>
   </g>
   <g id="line2d_49">
    <path d="M 333.429677 218.272033 
L 363.933742 220.732435 
" style="fill:none;stroke:#ff0000;stroke-linecap:square;stroke-width:1.5;"/>
    <g>
     <use style="fill-opacity:0;stroke:#ff0000;stroke-linejoin:miter;stroke-width:1.5;" x="333.429677" xlink:href="#ma9580df0ff" y="218.272033"/>
     <use style="fill-opacity:0;stroke:#ff0000;stroke-linejoin:miter;stroke-width:1.5;" x="363.933742" xlink:href="#ma9580df0ff" y="220.732435"/>
    </g>
   </g>
   <g id="line2d_50">
    <path d="M 333.429677 9.697057 
L 363.933742 152.288529 
" style="fill:none;stroke:#ff00ff;stroke-linecap:square;stroke-width:1.5;"/>
    <g>
     <use style="fill-opacity:0;stroke:#ff00ff;stroke-linejoin:miter;stroke-width:1.5;" x="333.429677" xlink:href="#m76ea87a138" y="9.697057"/>
     <use style="fill-opacity:0;stroke:#ff00ff;stroke-linejoin:miter;stroke-width:1.5;" x="363.933742" xlink:href="#m76ea87a138" y="152.288529"/>
    </g>
   </g>
   <g id="line2d_51">
    <path d="M 333.429677 9.697057 
L 363.933742 83.844622 
" style="fill:none;stroke:#000080;stroke-linecap:square;stroke-width:1.5;"/>
    <g>
     <use style="fill-opacity:0;stroke:#000080;stroke-width:1.5;" x="333.429677" xlink:href="#mab6e10d594" y="9.697057"/>
     <use style="fill-opacity:0;stroke:#000080;stroke-width:1.5;" x="363.933742" xlink:href="#mab6e10d594" y="83.844622"/>
    </g>
   </g>
   <g id="line2d_52">
    <path d="M 333.429677 9.697057 
L 363.933742 15.400716 
" style="fill:none;stroke:#ffa500;stroke-linecap:square;stroke-width:1.5;"/>
    <g>
     <use style="fill-opacity:0;stroke:#ffa500;stroke-linejoin:bevel;stroke-width:1.5;" x="333.429677" xlink:href="#m0267ee425c" y="9.697057"/>
     <use style="fill-opacity:0;stroke:#ffa500;stroke-linejoin:bevel;stroke-width:1.5;" x="363.933742" xlink:href="#m0267ee425c" y="15.400716"/>
    </g>
   </g>
   <g id="line2d_53">
    <path d="M 333.429677 294.88 
L 333.429677 9.697057 
" style="fill:none;stroke:#000000;stroke-linecap:square;stroke-width:1.5;"/>
   </g>
   <g id="patch_3">
    <path d="M 56.12 294.88 
L 56.12 6.845228 
" style="fill:none;stroke:#000000;stroke-linecap:square;stroke-linejoin:miter;stroke-width:0.8;"/>
   </g>
   <g id="patch_4">
    <path d="M 399.984 294.88 
L 399.984 6.845228 
" style="fill:none;stroke:#000000;stroke-linecap:square;stroke-linejoin:miter;stroke-width:0.8;"/>
   </g>
   <g id="patch_5">
    <path d="M 56.12 294.88 
L 399.984 294.88 
" style="fill:none;stroke:#000000;stroke-linecap:square;stroke-linejoin:miter;stroke-width:0.8;"/>
   </g>
   <g id="patch_6">
    <path d="M 56.12 6.845228 
L 399.984 6.845228 
" style="fill:none;stroke:#000000;stroke-linecap:square;stroke-linejoin:miter;stroke-width:0.8;"/>
   </g>
   <g id="text_14">
    <!-- f20 -->
    <g transform="translate(369.479935 293.867279)scale(0.17 -0.17)">
     <use xlink:href="#DejaVuSans-66"/>
     <use x="35.205078" xlink:href="#DejaVuSans-32"/>
     <use x="98.828125" xlink:href="#DejaVuSans-30"/>
    </g>
   </g>
   <g id="text_15">
    <!-- f24 -->
    <g transform="translate(369.479935 225.423372)scale(0.17 -0.17)">
     <use xlink:href="#DejaVuSans-66"/>
     <use x="35.205078" xlink:href="#DejaVuSans-32"/>
     <use x="98.828125" xlink:href="#DejaVuSans-34"/>
    </g>
   </g>
   <g id="text_16">
    <!-- f22 -->
    <g transform="translate(369.479935 156.979466)scale(0.17 -0.17)">
     <use xlink:href="#DejaVuSans-66"/>
     <use x="35.205078" xlink:href="#DejaVuSans-32"/>
     <use x="98.828125" xlink:href="#DejaVuSans-32"/>
    </g>
   </g>
   <g id="text_17">
    <!-- f23 -->
    <defs>
     <path d="M 40.578125 39.3125 
Q 47.65625 37.796875 51.625 33 
Q 55.609375 28.21875 55.609375 21.1875 
Q 55.609375 10.40625 48.1875 4.484375 
Q 40.765625 -1.421875 27.09375 -1.421875 
Q 22.515625 -1.421875 17.65625 -0.515625 
Q 12.796875 0.390625 7.625 2.203125 
L 7.625 11.71875 
Q 11.71875 9.328125 16.59375 8.109375 
Q 21.484375 6.890625 26.8125 6.890625 
Q 36.078125 6.890625 40.9375 10.546875 
Q 45.796875 14.203125 45.796875 21.1875 
Q 45.796875 27.640625 41.28125 31.265625 
Q 36.765625 34.90625 28.71875 34.90625 
L 20.21875 34.90625 
L 20.21875 43.015625 
L 29.109375 43.015625 
Q 36.375 43.015625 40.234375 45.921875 
Q 44.09375 48.828125 44.09375 54.296875 
Q 44.09375 59.90625 40.109375 62.90625 
Q 36.140625 65.921875 28.71875 65.921875 
Q 24.65625 65.921875 20.015625 65.03125 
Q 15.375 64.15625 9.8125 62.3125 
L 9.8125 71.09375 
Q 15.4375 72.65625 20.34375 73.4375 
Q 25.25 74.21875 29.59375 74.21875 
Q 40.828125 74.21875 47.359375 69.109375 
Q 53.90625 64.015625 53.90625 55.328125 
Q 53.90625 49.265625 50.4375 45.09375 
Q 46.96875 40.921875 40.578125 39.3125 
z
" id="DejaVuSans-33"/>
    </defs>
    <g transform="translate(369.479935 88.53556)scale(0.17 -0.17)">
     <use xlink:href="#DejaVuSans-66"/>
     <use x="35.205078" xlink:href="#DejaVuSans-32"/>
     <use x="98.828125" xlink:href="#DejaVuSans-33"/>
    </g>
   </g>
   <g id="text_18">
    <!-- f21 -->
    <g transform="translate(369.479935 20.091654)scale(0.17 -0.17)">
     <use xlink:href="#DejaVuSans-66"/>
     <use x="35.205078" xlink:href="#DejaVuSans-32"/>
     <use x="98.828125" xlink:href="#DejaVuSans-31"/>
    </g>
   </g>
   <g id="text_19">
    <!-- bbob -->
    <defs>
     <path d="M 48.6875 27.296875 
Q 48.6875 37.203125 44.609375 42.84375 
Q 40.53125 48.484375 33.40625 48.484375 
Q 26.265625 48.484375 22.1875 42.84375 
Q 18.109375 37.203125 18.109375 27.296875 
Q 18.109375 17.390625 22.1875 11.75 
Q 26.265625 6.109375 33.40625 6.109375 
Q 40.53125 6.109375 44.609375 11.75 
Q 48.6875 17.390625 48.6875 27.296875 
z
M 18.109375 46.390625 
Q 20.953125 51.265625 25.265625 53.625 
Q 29.59375 56 35.59375 56 
Q 45.5625 56 51.78125 48.09375 
Q 58.015625 40.1875 58.015625 27.296875 
Q 58.015625 14.40625 51.78125 6.484375 
Q 45.5625 -1.421875 35.59375 -1.421875 
Q 29.59375 -1.421875 25.265625 0.953125 
Q 20.953125 3.328125 18.109375 8.203125 
L 18.109375 0 
L 9.078125 0 
L 9.078125 75.984375 
L 18.109375 75.984375 
z
" id="DejaVuSans-62"/>
    </defs>
    <g transform="translate(59.55864 17.475982)scale(0.102 -0.102)">
     <use xlink:href="#DejaVuSans-62"/>
     <use x="63.476562" xlink:href="#DejaVuSans-62"/>
     <use x="126.953125" xlink:href="#DejaVuSans-6f"/>
     <use x="188.134766" xlink:href="#DejaVuSans-62"/>
    </g>
    <!-- Weak structure functions, 5-D -->
    <defs>
     <path d="M 3.328125 72.90625 
L 13.28125 72.90625 
L 28.609375 11.28125 
L 43.890625 72.90625 
L 54.984375 72.90625 
L 70.3125 11.28125 
L 85.59375 72.90625 
L 95.609375 72.90625 
L 77.296875 0 
L 64.890625 0 
L 49.515625 63.28125 
L 33.984375 0 
L 21.578125 0 
z
" id="DejaVuSans-57"/>
     <path d="M 9.078125 75.984375 
L 18.109375 75.984375 
L 18.109375 31.109375 
L 44.921875 54.6875 
L 56.390625 54.6875 
L 27.390625 29.109375 
L 57.625 0 
L 45.90625 0 
L 18.109375 26.703125 
L 18.109375 0 
L 9.078125 0 
z
" id="DejaVuSans-6b"/>
     <path d="M 10.796875 72.90625 
L 49.515625 72.90625 
L 49.515625 64.59375 
L 19.828125 64.59375 
L 19.828125 46.734375 
Q 21.96875 47.46875 24.109375 47.828125 
Q 26.265625 48.1875 28.421875 48.1875 
Q 40.625 48.1875 47.75 41.5 
Q 54.890625 34.8125 54.890625 23.390625 
Q 54.890625 11.625 47.5625 5.09375 
Q 40.234375 -1.421875 26.90625 -1.421875 
Q 22.3125 -1.421875 17.546875 -0.640625 
Q 12.796875 0.140625 7.71875 1.703125 
L 7.71875 11.625 
Q 12.109375 9.234375 16.796875 8.0625 
Q 21.484375 6.890625 26.703125 6.890625 
Q 35.15625 6.890625 40.078125 11.328125 
Q 45.015625 15.765625 45.015625 23.390625 
Q 45.015625 31 40.078125 35.4375 
Q 35.15625 39.890625 26.703125 39.890625 
Q 22.75 39.890625 18.8125 39.015625 
Q 14.890625 38.140625 10.796875 36.28125 
z
" id="DejaVuSans-35"/>
     <path d="M 19.671875 64.796875 
L 19.671875 8.109375 
L 31.59375 8.109375 
Q 46.6875 8.109375 53.6875 14.9375 
Q 60.6875 21.78125 60.6875 36.53125 
Q 60.6875 51.171875 53.6875 57.984375 
Q 46.6875 64.796875 31.59375 64.796875 
z
M 9.8125 72.90625 
L 30.078125 72.90625 
Q 51.265625 72.90625 61.171875 64.09375 
Q 71.09375 55.28125 71.09375 36.53125 
Q 71.09375 17.671875 61.125 8.828125 
Q 51.171875 0 30.078125 0 
L 9.8125 0 
z
" id="DejaVuSans-44"/>
    </defs>
    <g transform="translate(59.55864 28.89775)scale(0.102 -0.102)">
     <use xlink:href="#DejaVuSans-57"/>
     <use x="98.798828" xlink:href="#DejaVuSans-65"/>
     <use x="160.322266" xlink:href="#DejaVuSans-61"/>
     <use x="221.601562" xlink:href="#DejaVuSans-6b"/>
     <use x="279.511719" xlink:href="#DejaVuSans-20"/>
     <use x="311.298828" xlink:href="#DejaVuSans-73"/>
     <use x="363.398438" xlink:href="#DejaVuSans-74"/>
     <use x="402.607422" xlink:href="#DejaVuSans-72"/>
     <use x="443.720703" xlink:href="#DejaVuSans-75"/>
     <use x="507.099609" xlink:href="#DejaVuSans-63"/>
     <use x="562.080078" xlink:href="#DejaVuSans-74"/>
     <use x="601.289062" xlink:href="#DejaVuSans-75"/>
     <use x="664.667969" xlink:href="#DejaVuSans-72"/>
     <use x="705.75" xlink:href="#DejaVuSans-65"/>
     <use x="767.273438" xlink:href="#DejaVuSans-20"/>
     <use x="799.060547" xlink:href="#DejaVuSans-66"/>
     <use x="834.265625" xlink:href="#DejaVuSans-75"/>
     <use x="897.644531" xlink:href="#DejaVuSans-6e"/>
     <use x="961.023438" xlink:href="#DejaVuSans-63"/>
     <use x="1016.003906" xlink:href="#DejaVuSans-74"/>
     <use x="1055.212891" xlink:href="#DejaVuSans-69"/>
     <use x="1082.996094" xlink:href="#DejaVuSans-6f"/>
     <use x="1144.177734" xlink:href="#DejaVuSans-6e"/>
     <use x="1207.556641" xlink:href="#DejaVuSans-73"/>
     <use x="1259.65625" xlink:href="#DejaVuSans-2c"/>
     <use x="1291.443359" xlink:href="#DejaVuSans-20"/>
     <use x="1323.230469" xlink:href="#DejaVuSans-35"/>
     <use x="1386.853516" xlink:href="#DejaVuSans-2d"/>
     <use x="1422.9375" xlink:href="#DejaVuSans-44"/>
    </g>
    <!-- 51 targets: 100..1e-08 -->
    <defs>
     <path d="M 11.71875 12.40625 
L 22.015625 12.40625 
L 22.015625 0 
L 11.71875 0 
z
M 11.71875 51.703125 
L 22.015625 51.703125 
L 22.015625 39.3125 
L 11.71875 39.3125 
z
" id="DejaVuSans-3a"/>
    </defs>
    <g transform="translate(59.55864 40.319519)scale(0.102 -0.102)">
     <use xlink:href="#DejaVuSans-35"/>
     <use x="63.623047" xlink:href="#DejaVuSans-31"/>
     <use x="127.246094" xlink:href="#DejaVuSans-20"/>
     <use x="159.033203" xlink:href="#DejaVuSans-74"/>
     <use x="198.242188" xlink:href="#DejaVuSans-61"/>
     <use x="259.521484" xlink:href="#DejaVuSans-72"/>
     <use x="300.619141" xlink:href="#DejaVuSans-67"/>
     <use x="364.095703" xlink:href="#DejaVuSans-65"/>
     <use x="425.619141" xlink:href="#DejaVuSans-74"/>
     <use x="464.828125" xlink:href="#DejaVuSans-73"/>
     <use x="516.927734" xlink:href="#DejaVuSans-3a"/>
     <use x="550.619141" xlink:href="#DejaVuSans-20"/>
     <use x="582.40625" xlink:href="#DejaVuSans-31"/>
     <use x="646.029297" xlink:href="#DejaVuSans-30"/>
     <use x="709.652344" xlink:href="#DejaVuSans-30"/>
     <use x="773.275391" xlink:href="#DejaVuSans-2e"/>
     <use x="805.0625" xlink:href="#DejaVuSans-2e"/>
     <use x="836.849609" xlink:href="#DejaVuSans-31"/>
     <use x="900.472656" xlink:href="#DejaVuSans-65"/>
     <use x="961.996094" xlink:href="#DejaVuSans-2d"/>
     <use x="998.080078" xlink:href="#DejaVuSans-30"/>
     <use x="1061.703125" xlink:href="#DejaVuSans-38"/>
    </g>
    <!-- 15 instances -->
    <g transform="translate(59.55864 51.741288)scale(0.102 -0.102)">
     <use xlink:href="#DejaVuSans-31"/>
     <use x="63.623047" xlink:href="#DejaVuSans-35"/>
     <use x="127.246094" xlink:href="#DejaVuSans-20"/>
     <use x="159.033203" xlink:href="#DejaVuSans-69"/>
     <use x="186.816406" xlink:href="#DejaVuSans-6e"/>
     <use x="250.195312" xlink:href="#DejaVuSans-73"/>
     <use x="302.294922" xlink:href="#DejaVuSans-74"/>
     <use x="341.503906" xlink:href="#DejaVuSans-61"/>
     <use x="402.783203" xlink:href="#DejaVuSans-6e"/>
     <use x="466.162109" xlink:href="#DejaVuSans-63"/>
     <use x="521.142578" xlink:href="#DejaVuSans-65"/>
     <use x="582.666016" xlink:href="#DejaVuSans-73"/>
    </g>
   </g>
   <g id="text_20">
    <!-- v0.0.0 -->
    <g style="fill:#808080;" transform="translate(212.37075 289.919965)scale(0.1 -0.1)">
     <use xlink:href="#DejaVuSans-76"/>
     <use x="59.179688" xlink:href="#DejaVuSans-30"/>
     <use x="122.802734" xlink:href="#DejaVuSans-2e"/>
     <use x="154.589844" xlink:href="#DejaVuSans-30"/>
     <use x="218.212891" xlink:href="#DejaVuSans-2e"/>
     <use x="250" xlink:href="#DejaVuSans-30"/>
    </g>
   </g>
  </g>
 </g>
 <defs>
  <clipPath id="p613dd973f4">
   <rect height="288.034772" width="343.864" x="56.12" y="6.845228"/>
  </clipPath>
 </defs>
</svg>
