<?xml version="1.0" encoding="utf-8" standalone="no"?>
<!DOCTYPE svg PUBLIC "-//W3C//DTD SVG 1.1//EN"
  "http://www.w3.org/Graphics/SVG/1.1/DTD/svg11.dtd">
<!-- Created with matplotlib (http://matplotlib.org/) -->
<svg height="345.6pt" version="1.1" viewBox="0 0 460.8 345.6" width="460.8pt" xmlns="http://www.w3.org/2000/svg" xmlns:xlink="http://www.w3.org/1999/xlink">
 <defs>
  <style type="text/css">
*{stroke-linecap:butt;stroke-linejoin:round;}
  </style>
 </defs>
 <g id="figure_1">
  <g id="patch_1">
   <path d="M 0 345.6 
L 460.8 345.6 
L 460.8 0 
L 0 0 
z
" style="fill:#ffffff;"/>
  </g>
  <g id="axes_1">
   <g id="patch_2">
    <path d="M 56.12 294.88 
L 399.984 294.88 
L 399.984 6.845228 
L 56.12 6.845228 
z
" style="fill:#ffffff;"/>
   </g>
   <g id="matplotlib.axis_1">
    <g id="xtick_1">
     <g id="line2d_1">
      <path clip-path="url(#p55aac651db)" d="M 56.12 294.88 
L 56.12 6.845228 
" style="fill:none;stroke:#b0b0b0;stroke-linecap:square;stroke-width:0.8;"/>
     </g>
     <g id="line2d_2">
      <defs>
       <path d="M 0 0 
L 0 3.5 
" id="m5012796558" style="stroke:#000000;stroke-width:0.8;"/>
      </defs>
      <g>
       <use style="stroke:#000000;stroke-width:0.8;" x="56.12" xlink:href="#m5012796558" y="294.88"/>
      </g>
     </g>
     <g id="text_1">
      <!-- 0 -->
      <defs>
       <path d="M 31.78125 66.40625 
Q 24.171875 66.40625 20.328125 58.90625 
Q 16.5 51.421875 16.5 36.375 
Q 16.5 21.390625 20.328125 13.890625 
Q 24.171875 6.390625 31.78125 6.390625 
Q 39.453125 6.390625 43.28125 13.890625 
Q 47.125 21.390625 47.125 36.375 
Q 47.125 51.421875 43.28125 58.90625 
Q 39.453125 66.40625 31.78125 66.40625 
z
M 31.78125 74.21875 
Q 44.046875 74.21875 50.515625 64.515625 
Q 56.984375 54.828125 56.984375 36.375 
Q 56.984375 17.96875 50.515625 8.265625 
Q 44.046875 -1.421875 31.78125 -1.421875 
Q 19.53125 -1.421875 13.0625 8.265625 
Q 6.59375 17.96875 6.59375 36.375 
Q 6.59375 54.828125 13.0625 64.515625 
Q 19.53125 74.21875 31.78125 74.21875 
z
" id="DejaVuSans-30"/>
      </defs>
      <g transform="translate(49.7575 317.076875)scale(0.2 -0.2)">
       <use xlink:href="#DejaVuSans-30"/>
      </g>
     </g>
    </g>
    <g id="xtick_2">
     <g id="line2d_3">
      <path clip-path="url(#p55aac651db)" d="M 135.351336 294.88 
L 135.351336 6.845228 
" style="fill:none;stroke:#b0b0b0;stroke-linecap:square;stroke-width:0.8;"/>
     </g>
     <g id="line2d_4">
      <g>
       <use style="stroke:#000000;stroke-width:0.8;" x="135.351336" xlink:href="#m5012796558" y="294.88"/>
      </g>
     </g>
     <g id="text_2">
      <!-- 2 -->
      <defs>
       <path d="M 19.1875 8.296875 
L 53.609375 8.296875 
L 53.609375 0 
L 7.328125 0 
L 7.328125 8.296875 
Q 12.9375 14.109375 22.625 23.890625 
Q 32.328125 33.6875 34.8125 36.53125 
Q 39.546875 41.84375 41.421875 45.53125 
Q 43.3125 49.21875 43.3125 52.78125 
Q 43.3125 58.59375 39.234375 62.25 
Q 35.15625 65.921875 28.609375 65.921875 
Q 23.96875 65.921875 18.8125 64.3125 
Q 13.671875 62.703125 7.8125 59.421875 
L 7.8125 69.390625 
Q 13.765625 71.78125 18.9375 73 
Q 24.125 74.21875 28.421875 74.21875 
Q 39.75 74.21875 46.484375 68.546875 
Q 53.21875 62.890625 53.21875 53.421875 
Q 53.21875 48.921875 51.53125 44.890625 
Q 49.859375 40.875 45.40625 35.40625 
Q 44.1875 33.984375 37.640625 27.21875 
Q 31.109375 20.453125 19.1875 8.296875 
z
" id="DejaVuSans-32"/>
      </defs>
      <g transform="translate(128.988836 317.076875)scale(0.2 -0.2)">
       <use xlink:href="#DejaVuSans-32"/>
      </g>
     </g>
    </g>
    <g id="xtick_3">
     <g id="line2d_5">
      <path clip-path="url(#p55aac651db)" d="M 214.582673 294.88 
L 214.582673 6.845228 
" style="fill:none;stroke:#b0b0b0;stroke-linecap:square;stroke-width:0.8;"/>
     </g>
     <g id="line2d_6">
      <g>
       <use style="stroke:#000000;stroke-width:0.8;" x="214.582673" xlink:href="#m5012796558" y="294.88"/>
      </g>
     </g>
     <g id="text_3">
      <!-- 4 -->
      <defs>
       <path d="M 37.796875 64.3125 
L 12.890625 25.390625 
L 37.796875 25.390625 
z
M 35.203125 72.90625 
L 47.609375 72.90625 
L 47.609375 25.390625 
L 58.015625 25.390625 
L 58.015625 17.1875 
L 47.609375 17.1875 
L 47.609375 0 
L 37.796875 0 
L 37.796875 17.1875 
L 4.890625 17.1875 
L 4.890625 26.703125 
z
" id="DejaVuSans-34"/>
      </defs>
      <g transform="translate(208.220173 317.076875)scale(0.2 -0.2)">
       <use xlink:href="#DejaVuSans-34"/>
      </g>
     </g>
    </g>
    <g id="xtick_4">
     <g id="line2d_7">
      <path clip-path="url(#p55aac651db)" d="M 293.814009 294.88 
L 293.814009 6.845228 
" style="fill:none;stroke:#b0b0b0;stroke-linecap:square;stroke-width:0.8;"/>
     </g>
     <g id="line2d_8">
      <g>
       <use style="stroke:#000000;stroke-width:0.8;" x="293.814009" xlink:href="#m5012796558" y="294.88"/>
      </g>
     </g>
     <g id="text_4">
      <!-- 6 -->
      <defs>
       <path d="M 33.015625 40.375 
Q 26.375 40.375 22.484375 35.828125 
Q 18.609375 31.296875 18.609375 23.390625 
Q 18.609375 15.53125 22.484375 10.953125 
Q 26.375 6.390625 33.015625 6.390625 
Q 39.65625 6.390625 43.53125 10.953125 
Q 47.40625 15.53125 47.40625 23.390625 
Q 47.40625 31.296875 43.53125 35.828125 
Q 39.65625 40.375 33.015625 40.375 
z
M 52.59375 71.296875 
L 52.59375 62.3125 
Q 48.875 64.0625 45.09375 64.984375 
Q 41.3125 65.921875 37.59375 65.921875 
Q 27.828125 65.921875 22.671875 59.328125 
Q 17.53125 52.734375 16.796875 39.40625 
Q 19.671875 43.65625 24.015625 45.921875 
Q 28.375 48.1875 33.59375 48.1875 
Q 44.578125 48.1875 50.953125 41.515625 
Q 57.328125 34.859375 57.328125 23.390625 
Q 57.328125 12.15625 50.6875 5.359375 
Q 44.046875 -1.421875 33.015625 -1.421875 
Q 20.359375 -1.421875 13.671875 8.265625 
Q 6.984375 17.96875 6.984375 36.375 
Q 6.984375 53.65625 15.1875 63.9375 
Q 23.390625 74.21875 37.203125 74.21875 
Q 40.921875 74.21875 44.703125 73.484375 
Q 48.484375 72.75 52.59375 71.296875 
z
" id="DejaVuSans-36"/>
      </defs>
      <g transform="translate(287.451509 317.076875)scale(0.2 -0.2)">
       <use xlink:href="#DejaVuSans-36"/>
      </g>
     </g>
    </g>
    <g id="xtick_5">
     <g id="line2d_9">
      <path clip-path="url(#p55aac651db)" d="M 373.045346 294.88 
L 373.045346 6.845228 
" style="fill:none;stroke:#b0b0b0;stroke-linecap:square;stroke-width:0.8;"/>
     </g>
     <g id="line2d_10">
      <g>
       <use style="stroke:#000000;stroke-width:0.8;" x="373.045346" xlink:href="#m5012796558" y="294.88"/>
      </g>
     </g>
     <g id="text_5">
      <!-- 8 -->
      <defs>
       <path d="M 31.78125 34.625 
Q 24.75 34.625 20.71875 30.859375 
Q 16.703125 27.09375 16.703125 20.515625 
Q 16.703125 13.921875 20.71875 10.15625 
Q 24.75 6.390625 31.78125 6.390625 
Q 38.8125 6.390625 42.859375 10.171875 
Q 46.921875 13.96875 46.921875 20.515625 
Q 46.921875 27.09375 42.890625 30.859375 
Q 38.875 34.625 31.78125 34.625 
z
M 21.921875 38.8125 
Q 15.578125 40.375 12.03125 44.71875 
Q 8.5 49.078125 8.5 55.328125 
Q 8.5 64.0625 14.71875 69.140625 
Q 20.953125 74.21875 31.78125 74.21875 
Q 42.671875 74.21875 48.875 69.140625 
Q 55.078125 64.0625 55.078125 55.328125 
Q 55.078125 49.078125 51.53125 44.71875 
Q 48 40.375 41.703125 38.8125 
Q 48.828125 37.15625 52.796875 32.3125 
Q 56.78125 27.484375 56.78125 20.515625 
Q 56.78125 9.90625 50.3125 4.234375 
Q 43.84375 -1.421875 31.78125 -1.421875 
Q 19.734375 -1.421875 13.25 4.234375 
Q 6.78125 9.90625 6.78125 20.515625 
Q 6.78125 27.484375 10.78125 32.3125 
Q 14.796875 37.15625 21.921875 38.8125 
z
M 18.3125 54.390625 
Q 18.3125 48.734375 21.84375 45.5625 
Q 25.390625 42.390625 31.78125 42.390625 
Q 38.140625 42.390625 41.71875 45.5625 
Q 45.3125 48.734375 45.3125 54.390625 
Q 45.3125 60.0625 41.71875 63.234375 
Q 38.140625 66.40625 31.78125 66.40625 
Q 25.390625 66.40625 21.84375 63.234375 
Q 18.3125 60.0625 18.3125 54.390625 
z
" id="DejaVuSans-38"/>
      </defs>
      <g transform="translate(366.682846 317.076875)scale(0.2 -0.2)">
       <use xlink:href="#DejaVuSans-38"/>
      </g>
     </g>
    </g>
    <g id="text_6">
     <!-- log10(# f-evals / dimension) -->
     <defs>
      <path d="M 9.421875 75.984375 
L 18.40625 75.984375 
L 18.40625 0 
L 9.421875 0 
z
" id="DejaVuSans-6c"/>
      <path d="M 30.609375 48.390625 
Q 23.390625 48.390625 19.1875 42.75 
Q 14.984375 37.109375 14.984375 27.296875 
Q 14.984375 17.484375 19.15625 11.84375 
Q 23.34375 6.203125 30.609375 6.203125 
Q 37.796875 6.203125 41.984375 11.859375 
Q 46.1875 17.53125 46.1875 27.296875 
Q 46.1875 37.015625 41.984375 42.703125 
Q 37.796875 48.390625 30.609375 48.390625 
z
M 30.609375 56 
Q 42.328125 56 49.015625 48.375 
Q 55.71875 40.765625 55.71875 27.296875 
Q 55.71875 13.875 49.015625 6.21875 
Q 42.328125 -1.421875 30.609375 -1.421875 
Q 18.84375 -1.421875 12.171875 6.21875 
Q 5.515625 13.875 5.515625 27.296875 
Q 5.515625 40.765625 12.171875 48.375 
Q 18.84375 56 30.609375 56 
z
" id="DejaVuSans-6f"/>
      <path d="M 45.40625 27.984375 
Q 45.40625 37.75 41.375 43.109375 
Q 37.359375 48.484375 30.078125 48.484375 
Q 22.859375 48.484375 18.828125 43.109375 
Q 14.796875 37.75 14.796875 27.984375 
Q 14.796875 18.265625 18.828125 12.890625 
Q 22.859375 7.515625 30.078125 7.515625 
Q 37.359375 7.515625 41.375 12.890625 
Q 45.40625 18.265625 45.40625 27.984375 
z
M 54.390625 6.78125 
Q 54.390625 -7.171875 48.1875 -13.984375 
Q 42 -20.796875 29.203125 -20.796875 
Q 24.46875 -20.796875 20.265625 -20.09375 
Q 16.0625 -19.390625 12.109375 -17.921875 
L 12.109375 -9.1875 
Q 16.0625 -11.328125 19.921875 -12.34375 
Q 23.78125 -13.375 27.78125 -13.375 
Q 36.625 -13.375 41.015625 -8.765625 
Q 45.40625 -4.15625 45.40625 5.171875 
L 45.40625 9.625 
Q 42.625 4.78125 38.28125 2.390625 
Q 33.9375 0 27.875 0 
Q 17.828125 0 11.671875 7.65625 
Q 5.515625 15.328125 5.515625 27.984375 
Q 5.515625 40.671875 11.671875 48.328125 
Q 17.828125 56 27.875 56 
Q 33.9375 56 38.28125 53.609375 
Q 42.625 51.21875 45.40625 46.390625 
L 45.40625 54.6875 
L 54.390625 54.6875 
z
" id="DejaVuSans-67"/>
      <path d="M 12.40625 8.296875 
L 28.515625 8.296875 
L 28.515625 63.921875 
L 10.984375 60.40625 
L 10.984375 69.390625 
L 28.421875 72.90625 
L 38.28125 72.90625 
L 38.28125 8.296875 
L 54.390625 8.296875 
L 54.390625 0 
L 12.40625 0 
z
" id="DejaVuSans-31"/>
      <path d="M 31 75.875 
Q 24.46875 64.65625 21.28125 53.65625 
Q 18.109375 42.671875 18.109375 31.390625 
Q 18.109375 20.125 21.3125 9.0625 
Q 24.515625 -2 31 -13.1875 
L 23.1875 -13.1875 
Q 15.875 -1.703125 12.234375 9.375 
Q 8.59375 20.453125 8.59375 31.390625 
Q 8.59375 42.28125 12.203125 53.3125 
Q 15.828125 64.359375 23.1875 75.875 
z
" id="DejaVuSans-28"/>
      <path d="M 51.125 44 
L 36.921875 44 
L 32.8125 27.6875 
L 47.125 27.6875 
z
M 43.796875 71.78125 
L 38.71875 51.515625 
L 52.984375 51.515625 
L 58.109375 71.78125 
L 65.921875 71.78125 
L 60.890625 51.515625 
L 76.125 51.515625 
L 76.125 44 
L 58.984375 44 
L 54.984375 27.6875 
L 70.515625 27.6875 
L 70.515625 20.21875 
L 53.078125 20.21875 
L 48 0 
L 40.1875 0 
L 45.21875 20.21875 
L 30.90625 20.21875 
L 25.875 0 
L 18.015625 0 
L 23.09375 20.21875 
L 7.71875 20.21875 
L 7.71875 27.6875 
L 24.90625 27.6875 
L 29 44 
L 13.28125 44 
L 13.28125 51.515625 
L 30.90625 51.515625 
L 35.890625 71.78125 
z
" id="DejaVuSans-23"/>
      <path id="DejaVuSans-20"/>
      <path d="M 37.109375 75.984375 
L 37.109375 68.5 
L 28.515625 68.5 
Q 23.6875 68.5 21.796875 66.546875 
Q 19.921875 64.59375 19.921875 59.515625 
L 19.921875 54.6875 
L 34.71875 54.6875 
L 34.71875 47.703125 
L 19.921875 47.703125 
L 19.921875 0 
L 10.890625 0 
L 10.890625 47.703125 
L 2.296875 47.703125 
L 2.296875 54.6875 
L 10.890625 54.6875 
L 10.890625 58.5 
Q 10.890625 67.625 15.140625 71.796875 
Q 19.390625 75.984375 28.609375 75.984375 
z
" id="DejaVuSans-66"/>
      <path d="M 4.890625 31.390625 
L 31.203125 31.390625 
L 31.203125 23.390625 
L 4.890625 23.390625 
z
" id="DejaVuSans-2d"/>
      <path d="M 56.203125 29.59375 
L 56.203125 25.203125 
L 14.890625 25.203125 
Q 15.484375 15.921875 20.484375 11.0625 
Q 25.484375 6.203125 34.421875 6.203125 
Q 39.59375 6.203125 44.453125 7.46875 
Q 49.3125 8.734375 54.109375 11.28125 
L 54.109375 2.78125 
Q 49.265625 0.734375 44.1875 -0.34375 
Q 39.109375 -1.421875 33.890625 -1.421875 
Q 20.796875 -1.421875 13.15625 6.1875 
Q 5.515625 13.8125 5.515625 26.8125 
Q 5.515625 40.234375 12.765625 48.109375 
Q 20.015625 56 32.328125 56 
Q 43.359375 56 49.78125 48.890625 
Q 56.203125 41.796875 56.203125 29.59375 
z
M 47.21875 32.234375 
Q 47.125 39.59375 43.09375 43.984375 
Q 39.0625 48.390625 32.421875 48.390625 
Q 24.90625 48.390625 20.390625 44.140625 
Q 15.875 39.890625 15.1875 32.171875 
z
" id="DejaVuSans-65"/>
      <path d="M 2.984375 54.6875 
L 12.5 54.6875 
L 29.59375 8.796875 
L 46.6875 54.6875 
L 56.203125 54.6875 
L 35.6875 0 
L 23.484375 0 
z
" id="DejaVuSans-76"/>
      <path d="M 34.28125 27.484375 
Q 23.390625 27.484375 19.1875 25 
Q 14.984375 22.515625 14.984375 16.5 
Q 14.984375 11.71875 18.140625 8.90625 
Q 21.296875 6.109375 26.703125 6.109375 
Q 34.1875 6.109375 38.703125 11.40625 
Q 43.21875 16.703125 43.21875 25.484375 
L 43.21875 27.484375 
z
M 52.203125 31.203125 
L 52.203125 0 
L 43.21875 0 
L 43.21875 8.296875 
Q 40.140625 3.328125 35.546875 0.953125 
Q 30.953125 -1.421875 24.3125 -1.421875 
Q 15.921875 -1.421875 10.953125 3.296875 
Q 6 8.015625 6 15.921875 
Q 6 25.140625 12.171875 29.828125 
Q 18.359375 34.515625 30.609375 34.515625 
L 43.21875 34.515625 
L 43.21875 35.40625 
Q 43.21875 41.609375 39.140625 45 
Q 35.0625 48.390625 27.6875 48.390625 
Q 23 48.390625 18.546875 47.265625 
Q 14.109375 46.140625 10.015625 43.890625 
L 10.015625 52.203125 
Q 14.9375 54.109375 19.578125 55.046875 
Q 24.21875 56 28.609375 56 
Q 40.484375 56 46.34375 49.84375 
Q 52.203125 43.703125 52.203125 31.203125 
z
" id="DejaVuSans-61"/>
      <path d="M 44.28125 53.078125 
L 44.28125 44.578125 
Q 40.484375 46.53125 36.375 47.5 
Q 32.28125 48.484375 27.875 48.484375 
Q 21.1875 48.484375 17.84375 46.4375 
Q 14.5 44.390625 14.5 40.28125 
Q 14.5 37.15625 16.890625 35.375 
Q 19.28125 33.59375 26.515625 31.984375 
L 29.59375 31.296875 
Q 39.15625 29.25 43.1875 25.515625 
Q 47.21875 21.78125 47.21875 15.09375 
Q 47.21875 7.46875 41.1875 3.015625 
Q 35.15625 -1.421875 24.609375 -1.421875 
Q 20.21875 -1.421875 15.453125 -0.5625 
Q 10.6875 0.296875 5.421875 2 
L 5.421875 11.28125 
Q 10.40625 8.6875 15.234375 7.390625 
Q 20.0625 6.109375 24.8125 6.109375 
Q 31.15625 6.109375 34.5625 8.28125 
Q 37.984375 10.453125 37.984375 14.40625 
Q 37.984375 18.0625 35.515625 20.015625 
Q 33.0625 21.96875 24.703125 23.78125 
L 21.578125 24.515625 
Q 13.234375 26.265625 9.515625 29.90625 
Q 5.8125 33.546875 5.8125 39.890625 
Q 5.8125 47.609375 11.28125 51.796875 
Q 16.75 56 26.8125 56 
Q 31.78125 56 36.171875 55.265625 
Q 40.578125 54.546875 44.28125 53.078125 
z
" id="DejaVuSans-73"/>
      <path d="M 25.390625 72.90625 
L 33.6875 72.90625 
L 8.296875 -9.28125 
L 0 -9.28125 
z
" id="DejaVuSans-2f"/>
      <path d="M 45.40625 46.390625 
L 45.40625 75.984375 
L 54.390625 75.984375 
L 54.390625 0 
L 45.40625 0 
L 45.40625 8.203125 
Q 42.578125 3.328125 38.25 0.953125 
Q 33.9375 -1.421875 27.875 -1.421875 
Q 17.96875 -1.421875 11.734375 6.484375 
Q 5.515625 14.40625 5.515625 27.296875 
Q 5.515625 40.1875 11.734375 48.09375 
Q 17.96875 56 27.875 56 
Q 33.9375 56 38.25 53.625 
Q 42.578125 51.265625 45.40625 46.390625 
z
M 14.796875 27.296875 
Q 14.796875 17.390625 18.875 11.75 
Q 22.953125 6.109375 30.078125 6.109375 
Q 37.203125 6.109375 41.296875 11.75 
Q 45.40625 17.390625 45.40625 27.296875 
Q 45.40625 37.203125 41.296875 42.84375 
Q 37.203125 48.484375 30.078125 48.484375 
Q 22.953125 48.484375 18.875 42.84375 
Q 14.796875 37.203125 14.796875 27.296875 
z
" id="DejaVuSans-64"/>
      <path d="M 9.421875 54.6875 
L 18.40625 54.6875 
L 18.40625 0 
L 9.421875 0 
z
M 9.421875 75.984375 
L 18.40625 75.984375 
L 18.40625 64.59375 
L 9.421875 64.59375 
z
" id="DejaVuSans-69"/>
      <path d="M 52 44.1875 
Q 55.375 50.25 60.0625 53.125 
Q 64.75 56 71.09375 56 
Q 79.640625 56 84.28125 50.015625 
Q 88.921875 44.046875 88.921875 33.015625 
L 88.921875 0 
L 79.890625 0 
L 79.890625 32.71875 
Q 79.890625 40.578125 77.09375 44.375 
Q 74.3125 48.1875 68.609375 48.1875 
Q 61.625 48.1875 57.5625 43.546875 
Q 53.515625 38.921875 53.515625 30.90625 
L 53.515625 0 
L 44.484375 0 
L 44.484375 32.71875 
Q 44.484375 40.625 41.703125 44.40625 
Q 38.921875 48.1875 33.109375 48.1875 
Q 26.21875 48.1875 22.15625 43.53125 
Q 18.109375 38.875 18.109375 30.90625 
L 18.109375 0 
L 9.078125 0 
L 9.078125 54.6875 
L 18.109375 54.6875 
L 18.109375 46.1875 
Q 21.1875 51.21875 25.484375 53.609375 
Q 29.78125 56 35.6875 56 
Q 41.65625 56 45.828125 52.96875 
Q 50 49.953125 52 44.1875 
z
" id="DejaVuSans-6d"/>
      <path d="M 54.890625 33.015625 
L 54.890625 0 
L 45.90625 0 
L 45.90625 32.71875 
Q 45.90625 40.484375 42.875 44.328125 
Q 39.84375 48.1875 33.796875 48.1875 
Q 26.515625 48.1875 22.3125 43.546875 
Q 18.109375 38.921875 18.109375 30.90625 
L 18.109375 0 
L 9.078125 0 
L 9.078125 54.6875 
L 18.109375 54.6875 
L 18.109375 46.1875 
Q 21.34375 51.125 25.703125 53.5625 
Q 30.078125 56 35.796875 56 
Q 45.21875 56 50.046875 50.171875 
Q 54.890625 44.34375 54.890625 33.015625 
z
" id="DejaVuSans-6e"/>
      <path d="M 8.015625 75.875 
L 15.828125 75.875 
Q 23.140625 64.359375 26.78125 53.3125 
Q 30.421875 42.28125 30.421875 31.390625 
Q 30.421875 20.453125 26.78125 9.375 
Q 23.140625 -1.703125 15.828125 -13.1875 
L 8.015625 -13.1875 
Q 14.5 -2 17.703125 9.0625 
Q 20.90625 20.125 20.90625 31.390625 
Q 20.90625 42.671875 17.703125 53.65625 
Q 14.5 64.65625 8.015625 75.875 
z
" id="DejaVuSans-29"/>
     </defs>
     <g transform="translate(107.211219 338.153594)scale(0.17 -0.17)">
      <use xlink:href="#DejaVuSans-6c"/>
      <use x="27.783203" xlink:href="#DejaVuSans-6f"/>
      <use x="88.964844" xlink:href="#DejaVuSans-67"/>
      <use x="152.441406" xlink:href="#DejaVuSans-31"/>
      <use x="216.064453" xlink:href="#DejaVuSans-30"/>
      <use x="279.6875" xlink:href="#DejaVuSans-28"/>
      <use x="318.701172" xlink:href="#DejaVuSans-23"/>
      <use x="402.490234" xlink:href="#DejaVuSans-20"/>
      <use x="434.277344" xlink:href="#DejaVuSans-66"/>
      <use x="469.404297" xlink:href="#DejaVuSans-2d"/>
      <use x="505.488281" xlink:href="#DejaVuSans-65"/>
      <use x="567.011719" xlink:href="#DejaVuSans-76"/>
      <use x="626.191406" xlink:href="#DejaVuSans-61"/>
      <use x="687.470703" xlink:href="#DejaVuSans-6c"/>
      <use x="715.253906" xlink:href="#DejaVuSans-73"/>
      <use x="767.353516" xlink:href="#DejaVuSans-20"/>
      <use x="799.140625" xlink:href="#DejaVuSans-2f"/>
      <use x="832.832031" xlink:href="#DejaVuSans-20"/>
      <use x="864.619141" xlink:href="#DejaVuSans-64"/>
      <use x="928.095703" xlink:href="#DejaVuSans-69"/>
      <use x="955.878906" xlink:href="#DejaVuSans-6d"/>
      <use x="1053.291016" xlink:href="#DejaVuSans-65"/>
      <use x="1114.814453" xlink:href="#DejaVuSans-6e"/>
      <use x="1178.193359" xlink:href="#DejaVuSans-73"/>
      <use x="1230.292969" xlink:href="#DejaVuSans-69"/>
      <use x="1258.076172" xlink:href="#DejaVuSans-6f"/>
      <use x="1319.257812" xlink:href="#DejaVuSans-6e"/>
      <use x="1382.636719" xlink:href="#DejaVuSans-29"/>
     </g>
    </g>
   </g>
   <g id="matplotlib.axis_2">
    <g id="ytick_1">
     <g id="line2d_11">
      <path clip-path="url(#p55aac651db)" d="M 56.12 294.88 
L 399.984 294.88 
" style="fill:none;stroke:#b0b0b0;stroke-linecap:square;stroke-width:0.8;"/>
     </g>
     <g id="line2d_12">
      <defs>
       <path d="M 0 0 
L -3.5 0 
" id="m09767c24d0" style="stroke:#000000;stroke-width:0.8;"/>
      </defs>
      <g>
       <use style="stroke:#000000;stroke-width:0.8;" x="56.12" xlink:href="#m09767c24d0" y="294.88"/>
      </g>
     </g>
     <g id="text_7">
      <!-- 0.0 -->
      <defs>
       <path d="M 10.6875 12.40625 
L 21 12.40625 
L 21 0 
L 10.6875 0 
z
" id="DejaVuSans-2e"/>
      </defs>
      <g transform="translate(23.675 300.95875)scale(0.16 -0.16)">
       <use xlink:href="#DejaVuSans-30"/>
       <use x="63.623047" xlink:href="#DejaVuSans-2e"/>
       <use x="95.410156" xlink:href="#DejaVuSans-30"/>
      </g>
     </g>
    </g>
    <g id="ytick_2">
     <g id="line2d_13">
      <path clip-path="url(#p55aac651db)" d="M 56.12 237.843411 
L 399.984 237.843411 
" style="fill:none;stroke:#b0b0b0;stroke-linecap:square;stroke-width:0.8;"/>
     </g>
     <g id="line2d_14">
      <g>
       <use style="stroke:#000000;stroke-width:0.8;" x="56.12" xlink:href="#m09767c24d0" y="237.843411"/>
      </g>
     </g>
     <g id="text_8">
      <!-- 0.2 -->
      <g transform="translate(23.675 243.922161)scale(0.16 -0.16)">
       <use xlink:href="#DejaVuSans-30"/>
       <use x="63.623047" xlink:href="#DejaVuSans-2e"/>
       <use x="95.410156" xlink:href="#DejaVuSans-32"/>
      </g>
     </g>
    </g>
    <g id="ytick_3">
     <g id="line2d_15">
      <path clip-path="url(#p55aac651db)" d="M 56.12 180.806823 
L 399.984 180.806823 
" style="fill:none;stroke:#b0b0b0;stroke-linecap:square;stroke-width:0.8;"/>
     </g>
     <g id="line2d_16">
      <g>
       <use style="stroke:#000000;stroke-width:0.8;" x="56.12" xlink:href="#m09767c24d0" y="180.806823"/>
      </g>
     </g>
     <g id="text_9">
      <!-- 0.4 -->
      <g transform="translate(23.675 186.885573)scale(0.16 -0.16)">
       <use xlink:href="#DejaVuSans-30"/>
       <use x="63.623047" xlink:href="#DejaVuSans-2e"/>
       <use x="95.410156" xlink:href="#DejaVuSans-34"/>
      </g>
     </g>
    </g>
    <g id="ytick_4">
     <g id="line2d_17">
      <path clip-path="url(#p55aac651db)" d="M 56.12 123.770234 
L 399.984 123.770234 
" style="fill:none;stroke:#b0b0b0;stroke-linecap:square;stroke-width:0.8;"/>
     </g>
     <g id="line2d_18">
      <g>
       <use style="stroke:#000000;stroke-width:0.8;" x="56.12" xlink:href="#m09767c24d0" y="123.770234"/>
      </g>
     </g>
     <g id="text_10">
      <!-- 0.6 -->
      <g transform="translate(23.675 129.848984)scale(0.16 -0.16)">
       <use xlink:href="#DejaVuSans-30"/>
       <use x="63.623047" xlink:href="#DejaVuSans-2e"/>
       <use x="95.410156" xlink:href="#DejaVuSans-36"/>
      </g>
     </g>
    </g>
    <g id="ytick_5">
     <g id="line2d_19">
      <path clip-path="url(#p55aac651db)" d="M 56.12 66.733646 
L 399.984 66.733646 
" style="fill:none;stroke:#b0b0b0;stroke-linecap:square;stroke-width:0.8;"/>
     </g>
     <g id="line2d_20">
      <g>
       <use style="stroke:#000000;stroke-width:0.8;" x="56.12" xlink:href="#m09767c24d0" y="66.733646"/>
      </g>
     </g>
     <g id="text_11">
      <!-- 0.8 -->
      <g transform="translate(23.675 72.812396)scale(0.16 -0.16)">
       <use xlink:href="#DejaVuSans-30"/>
       <use x="63.623047" xlink:href="#DejaVuSans-2e"/>
       <use x="95.410156" xlink:href="#DejaVuSans-38"/>
      </g>
     </g>
    </g>
    <g id="ytick_6">
     <g id="line2d_21">
      <path clip-path="url(#p55aac651db)" d="M 56.12 9.697057 
L 399.984 9.697057 
" style="fill:none;stroke:#b0b0b0;stroke-linecap:square;stroke-width:0.8;"/>
     </g>
     <g id="line2d_22">
      <g>
       <use style="stroke:#000000;stroke-width:0.8;" x="56.12" xlink:href="#m09767c24d0" y="9.697057"/>
      </g>
     </g>
     <g id="text_12">
      <!-- 1.0 -->
      <g transform="translate(23.675 15.775807)scale(0.16 -0.16)">
       <use xlink:href="#DejaVuSans-31"/>
       <use x="63.623047" xlink:href="#DejaVuSans-2e"/>
       <use x="95.410156" xlink:href="#DejaVuSans-30"/>
      </g>
     </g>
    </g>
    <g id="text_13">
     <!-- Fraction of function,target pairs -->
     <defs>
      <path d="M 9.8125 72.90625 
L 51.703125 72.90625 
L 51.703125 64.59375 
L 19.671875 64.59375 
L 19.671875 43.109375 
L 48.578125 43.109375 
L 48.578125 34.8125 
L 19.671875 34.8125 
L 19.671875 0 
L 9.8125 0 
z
" id="DejaVuSans-46"/>
      <path d="M 41.109375 46.296875 
Q 39.59375 47.171875 37.8125 47.578125 
Q 36.03125 48 33.890625 48 
Q 26.265625 48 22.1875 43.046875 
Q 18.109375 38.09375 18.109375 28.8125 
L 18.109375 0 
L 9.078125 0 
L 9.078125 54.6875 
L 18.109375 54.6875 
L 18.109375 46.1875 
Q 20.953125 51.171875 25.484375 53.578125 
Q 30.03125 56 36.53125 56 
Q 37.453125 56 38.578125 55.875 
Q 39.703125 55.765625 41.0625 55.515625 
z
" id="DejaVuSans-72"/>
      <path d="M 48.78125 52.59375 
L 48.78125 44.1875 
Q 44.96875 46.296875 41.140625 47.34375 
Q 37.3125 48.390625 33.40625 48.390625 
Q 24.65625 48.390625 19.8125 42.84375 
Q 14.984375 37.3125 14.984375 27.296875 
Q 14.984375 17.28125 19.8125 11.734375 
Q 24.65625 6.203125 33.40625 6.203125 
Q 37.3125 6.203125 41.140625 7.25 
Q 44.96875 8.296875 48.78125 10.40625 
L 48.78125 2.09375 
Q 45.015625 0.34375 40.984375 -0.53125 
Q 36.96875 -1.421875 32.421875 -1.421875 
Q 20.0625 -1.421875 12.78125 6.34375 
Q 5.515625 14.109375 5.515625 27.296875 
Q 5.515625 40.671875 12.859375 48.328125 
Q 20.21875 56 33.015625 56 
Q 37.15625 56 41.109375 55.140625 
Q 45.0625 54.296875 48.78125 52.59375 
z
" id="DejaVuSans-63"/>
      <path d="M 18.3125 70.21875 
L 18.3125 54.6875 
L 36.8125 54.6875 
L 36.8125 47.703125 
L 18.3125 47.703125 
L 18.3125 18.015625 
Q 18.3125 11.328125 20.140625 9.421875 
Q 21.96875 7.515625 27.59375 7.515625 
L 36.8125 7.515625 
L 36.8125 0 
L 27.59375 0 
Q 17.1875 0 13.234375 3.875 
Q 9.28125 7.765625 9.28125 18.015625 
L 9.28125 47.703125 
L 2.6875 47.703125 
L 2.6875 54.6875 
L 9.28125 54.6875 
L 9.28125 70.21875 
z
" id="DejaVuSans-74"/>
      <path d="M 8.5 21.578125 
L 8.5 54.6875 
L 17.484375 54.6875 
L 17.484375 21.921875 
Q 17.484375 14.15625 20.5 10.265625 
Q 23.53125 6.390625 29.59375 6.390625 
Q 36.859375 6.390625 41.078125 11.03125 
Q 45.3125 15.671875 45.3125 23.6875 
L 45.3125 54.6875 
L 54.296875 54.6875 
L 54.296875 0 
L 45.3125 0 
L 45.3125 8.40625 
Q 42.046875 3.421875 37.71875 1 
Q 33.40625 -1.421875 27.6875 -1.421875 
Q 18.265625 -1.421875 13.375 4.4375 
Q 8.5 10.296875 8.5 21.578125 
z
M 31.109375 56 
z
" id="DejaVuSans-75"/>
      <path d="M 11.71875 12.40625 
L 22.015625 12.40625 
L 22.015625 4 
L 14.015625 -11.625 
L 7.71875 -11.625 
L 11.71875 4 
z
" id="DejaVuSans-2c"/>
      <path d="M 18.109375 8.203125 
L 18.109375 -20.796875 
L 9.078125 -20.796875 
L 9.078125 54.6875 
L 18.109375 54.6875 
L 18.109375 46.390625 
Q 20.953125 51.265625 25.265625 53.625 
Q 29.59375 56 35.59375 56 
Q 45.5625 56 51.78125 48.09375 
Q 58.015625 40.1875 58.015625 27.296875 
Q 58.015625 14.40625 51.78125 6.484375 
Q 45.5625 -1.421875 35.59375 -1.421875 
Q 29.59375 -1.421875 25.265625 0.953125 
Q 20.953125 3.328125 18.109375 8.203125 
z
M 48.6875 27.296875 
Q 48.6875 37.203125 44.609375 42.84375 
Q 40.53125 48.484375 33.40625 48.484375 
Q 26.265625 48.484375 22.1875 42.84375 
Q 18.109375 37.203125 18.109375 27.296875 
Q 18.109375 17.390625 22.1875 11.75 
Q 26.265625 6.109375 33.40625 6.109375 
Q 40.53125 6.109375 44.609375 11.75 
Q 48.6875 17.390625 48.6875 27.296875 
z
" id="DejaVuSans-70"/>
     </defs>
     <g transform="translate(16.139531 286.001989)rotate(-90)scale(0.17 -0.17)">
      <use xlink:href="#DejaVuSans-46"/>
      <use x="57.410156" xlink:href="#DejaVuSans-72"/>
      <use x="98.523438" xlink:href="#DejaVuSans-61"/>
      <use x="159.802734" xlink:href="#DejaVuSans-63"/>
      <use x="214.783203" xlink:href="#DejaVuSans-74"/>
      <use x="253.992188" xlink:href="#DejaVuSans-69"/>
      <use x="281.775391" xlink:href="#DejaVuSans-6f"/>
      <use x="342.957031" xlink:href="#DejaVuSans-6e"/>
      <use x="406.335938" xlink:href="#DejaVuSans-20"/>
      <use x="438.123047" xlink:href="#DejaVuSans-6f"/>
      <use x="499.304688" xlink:href="#DejaVuSans-66"/>
      <use x="534.509766" xlink:href="#DejaVuSans-20"/>
      <use x="566.296875" xlink:href="#DejaVuSans-66"/>
      <use x="601.501953" xlink:href="#DejaVuSans-75"/>
      <use x="664.880859" xlink:href="#DejaVuSans-6e"/>
      <use x="728.259766" xlink:href="#DejaVuSans-63"/>
      <use x="783.240234" xlink:href="#DejaVuSans-74"/>
      <use x="822.449219" xlink:href="#DejaVuSans-69"/>
      <use x="850.232422" xlink:href="#DejaVuSans-6f"/>
      <use x="911.414062" xlink:href="#DejaVuSans-6e"/>
      <use x="974.792969" xlink:href="#DejaVuSans-2c"/>
      <use x="1006.580078" xlink:href="#DejaVuSans-74"/>
      <use x="1045.789062" xlink:href="#DejaVuSans-61"/>
      <use x="1107.068359" xlink:href="#DejaVuSans-72"/>
      <use x="1148.166016" xlink:href="#DejaVuSans-67"/>
      <use x="1211.642578" xlink:href="#DejaVuSans-65"/>
      <use x="1273.166016" xlink:href="#DejaVuSans-74"/>
      <use x="1312.375" xlink:href="#DejaVuSans-20"/>
      <use x="1344.162109" xlink:href="#DejaVuSans-70"/>
      <use x="1407.638672" xlink:href="#DejaVuSans-61"/>
      <use x="1468.917969" xlink:href="#DejaVuSans-69"/>
      <use x="1496.701172" xlink:href="#DejaVuSans-72"/>
      <use x="1537.814453" xlink:href="#DejaVuSans-73"/>
     </g>
    </g>
   </g>
   <g id="line2d_23">
    <defs>
     <path d="M 0 1.5 
C 0.397805 1.5 0.77937 1.341951 1.06066 1.06066 
C 1.341951 0.77937 1.5 0.397805 1.5 0 
C 1.5 -0.397805 1.341951 -0.77937 1.06066 -1.06066 
C 0.77937 -1.341951 0.397805 -1.5 0 -1.5 
C -0.397805 -1.5 -0.77937 -1.341951 -1.06066 -1.06066 
C -1.341951 -0.77937 -1.5 -0.397805 -1.5 0 
C -1.5 0.397805 -1.341951 0.77937 -1.06066 1.06066 
C -0.77937 1.341951 -0.397805 1.5 0 1.5 
z
" id="md931db3993" style="stroke:#000080;"/>
    </defs>
    <g>
     <use style="fill:#000080;stroke:#000080;" x="318.123039" xlink:href="#md931db3993" y="9.697057"/>
     <use style="fill:#000080;stroke:#000080;" x="318.123039" xlink:href="#md931db3993" y="9.697057"/>
    </g>
   </g>
   <g id="line2d_24">
    <path d="M 28.429836 294.88 
L 28.429836 288.728995 
L 40.355341 288.728995 
L 40.355341 287.610631 
L 47.331314 287.610631 
L 47.331314 286.492266 
L 59.256818 286.492266 
L 59.256818 285.933084 
L 61.90896 285.933084 
L 61.90896 284.255537 
L 64.20635 284.255537 
L 64.20635 283.137173 
L 75.021477 283.137173 
L 75.021477 282.577991 
L 77.174892 282.577991 
L 77.174892 282.018808 
L 83.107827 282.018808 
L 83.107827 281.459626 
L 95.735668 281.459626 
L 95.735668 280.341262 
L 102.4807 280.341262 
L 102.4807 279.782079 
L 107.832367 279.782079 
L 107.832367 278.663715 
L 113.077449 278.663715 
L 113.077449 277.545351 
L 117.964074 277.545351 
L 117.964074 276.986168 
L 118.522119 276.986168 
L 118.522119 276.426986 
L 118.704183 276.426986 
L 118.704183 275.867804 
L 119.672487 275.867804 
L 119.672487 274.190257 
L 120.507839 274.190257 
L 120.507839 273.071893 
L 125.314081 273.071893 
L 125.314081 272.51271 
L 139.107709 272.51271 
L 139.107709 271.953528 
L 139.436475 271.953528 
L 139.436475 270.275981 
L 139.838789 270.275981 
L 139.838789 269.716799 
L 147.768684 269.716799 
L 147.768684 269.157617 
L 148.311781 269.157617 
L 148.311781 268.598435 
L 149.651479 268.598435 
L 149.651479 268.039252 
L 154.195368 268.039252 
L 154.195368 267.48007 
L 154.839144 267.48007 
L 154.839144 265.802523 
L 155.491745 265.802523 
L 155.491745 263.565795 
L 156.446663 263.565795 
L 156.446663 263.006612 
L 156.954042 263.006612 
L 156.973638 261.888248 
L 157.981504 261.888248 
L 157.981504 261.329066 
L 160.285818 261.329066 
L 160.285818 260.769883 
L 160.889003 260.769883 
L 160.889003 260.210701 
L 161.50941 260.210701 
L 161.50941 259.651519 
L 163.382202 259.651519 
L 163.382202 257.973972 
L 163.926747 257.973972 
L 163.926747 257.41479 
L 165.150327 257.41479 
L 165.150327 256.855608 
L 165.99961 256.855608 
L 165.99961 256.296425 
L 166.269834 256.296425 
L 166.269834 255.737243 
L 166.77573 255.737243 
L 166.77573 254.618879 
L 167.148334 254.618879 
L 167.148334 254.059696 
L 167.807687 254.059696 
L 167.807687 252.38215 
L 168.943151 252.38215 
L 168.943151 251.822967 
L 169.059959 251.822967 
L 169.059959 251.263785 
L 169.185613 251.263785 
L 169.185613 250.704603 
L 171.032962 250.704603 
L 171.032962 249.586238 
L 171.277737 249.586238 
L 171.290524 247.34951 
L 171.761229 247.34951 
L 171.761229 246.790327 
L 172.012279 246.790327 
L 172.012279 246.231145 
L 172.16684 246.231145 
L 172.16684 245.671963 
L 173.370851 245.671963 
L 173.453711 243.435234 
L 174.055509 243.435234 
L 174.055509 242.316869 
L 174.192831 242.316869 
L 174.192831 241.757687 
L 174.797565 241.757687 
L 174.797565 241.198505 
L 175.368322 241.198505 
L 175.368322 240.639323 
L 175.806433 240.639323 
L 175.806433 240.08014 
L 176.095652 240.08014 
L 176.095652 239.520958 
L 176.575493 239.520958 
L 176.575493 238.961776 
L 176.821304 238.961776 
L 176.821304 237.843411 
L 177.302633 237.843411 
L 177.302633 236.725047 
L 178.489445 236.725047 
L 178.489445 235.606682 
L 178.817167 235.606682 
L 178.817167 234.488318 
L 179.294659 234.488318 
L 179.294659 232.251589 
L 179.43589 232.251589 
L 179.43589 231.692407 
L 179.717534 231.692407 
L 179.717534 231.133225 
L 180.130264 231.133225 
L 180.155734 230.01486 
L 180.797697 230.01486 
L 180.797697 229.455678 
L 181.176001 229.455678 
L 181.176001 228.896496 
L 181.485022 228.896496 
L 181.485022 228.337313 
L 182.615559 228.337313 
L 182.615559 227.778131 
L 182.806421 227.778131 
L 182.806421 226.659767 
L 182.936828 226.659767 
L 182.984397 223.863855 
L 183.100603 223.863855 
L 183.181909 222.745491 
L 183.655612 222.745491 
L 183.655612 221.627126 
L 183.794187 221.627126 
L 183.837392 219.94958 
L 184.567569 219.94958 
L 184.567569 219.390397 
L 184.769233 219.390397 
L 184.831408 216.594486 
L 185.64579 216.594486 
L 185.703038 215.476122 
L 185.926505 215.476122 
L 185.99552 214.357757 
L 186.356042 214.357757 
L 186.389734 213.239393 
L 187.303909 213.239393 
L 187.303909 212.680211 
L 187.65146 212.680211 
L 187.65146 212.121028 
L 187.990515 212.121028 
L 187.990515 211.002664 
L 188.123968 211.002664 
L 188.123968 209.884299 
L 188.511963 209.884299 
L 188.511963 209.325117 
L 189.039345 209.325117 
L 189.039345 208.765935 
L 189.368757 208.765935 
L 189.389602 207.64757 
L 189.776575 207.64757 
L 189.840475 205.970024 
L 190.206198 205.970024 
L 190.206198 205.410841 
L 190.3911 205.410841 
L 190.475129 204.292477 
L 190.623969 204.292477 
L 190.623969 203.733295 
L 190.81268 203.733295 
L 190.81268 203.174112 
L 191.116838 203.174112 
L 191.116838 202.61493 
L 191.501477 202.61493 
L 191.59598 200.378201 
L 191.889289 200.378201 
L 191.982972 198.700655 
L 192.028984 198.700655 
L 192.069781 197.023108 
L 192.162489 197.023108 
L 192.162489 196.463926 
L 192.360198 196.463926 
L 192.407711 194.786379 
L 192.723201 194.786379 
L 192.789275 192.54965 
L 192.935204 192.54965 
L 192.958196 190.312921 
L 193.14941 190.312921 
L 193.14941 189.753739 
L 193.687455 189.753739 
L 193.687455 189.194556 
L 194.033997 189.194556 
L 194.039676 188.076192 
L 194.595026 188.076192 
L 194.609315 185.280281 
L 194.70791 185.280281 
L 194.70791 184.721099 
L 194.873155 184.721099 
L 194.887214 183.602734 
L 195.049683 183.602734 
L 195.108481 182.48437 
L 195.272055 182.48437 
L 195.272055 181.366005 
L 195.447697 181.366005 
L 195.447697 180.806823 
L 195.653646 180.806823 
L 195.653646 180.247641 
L 195.91632 180.247641 
L 195.91632 179.688458 
L 196.079487 179.688458 
L 196.138896 178.010912 
L 196.288022 178.010912 
L 196.288022 176.892547 
L 196.506854 176.892547 
L 196.589306 175.215 
L 196.774359 175.215 
L 196.782107 172.419089 
L 196.937302 172.419089 
L 196.937302 171.859907 
L 197.353496 171.859907 
L 197.353496 171.300725 
L 197.679168 171.300725 
L 197.737891 170.18236 
L 198.301947 170.18236 
L 198.356818 168.504814 
L 198.64423 168.504814 
L 198.726585 166.268085 
L 198.847237 166.268085 
L 198.847237 165.708902 
L 199.565437 165.708902 
L 199.565437 165.14972 
L 199.876428 165.14972 
L 199.876428 164.590538 
L 200.091065 164.590538 
L 200.091065 164.031356 
L 200.222379 164.031356 
L 200.222379 163.472173 
L 200.37 163.472173 
L 200.478914 162.353809 
L 200.983063 162.353809 
L 201.056483 161.235444 
L 201.460321 161.235444 
L 201.460321 160.676262 
L 201.662022 160.676262 
L 201.683155 159.557898 
L 201.808688 159.557898 
L 201.89307 158.439533 
L 202.038501 158.439533 
L 202.038501 157.321169 
L 202.539776 157.321169 
L 202.646154 156.202804 
L 202.757353 156.202804 
L 202.822911 155.08444 
L 203.298174 155.08444 
L 203.298174 154.525258 
L 203.495286 154.525258 
L 203.568543 152.847711 
L 203.667466 152.847711 
L 203.667466 151.729346 
L 203.935971 151.729346 
L 203.935971 150.610982 
L 204.283824 150.610982 
L 204.283824 150.0518 
L 204.433438 150.0518 
L 204.436541 148.933435 
L 204.747112 148.933435 
L 204.747112 148.374253 
L 205.446987 148.374253 
L 205.446987 147.815071 
L 205.651168 147.815071 
L 205.651168 147.255888 
L 206.138061 147.255888 
L 206.138061 146.696706 
L 206.453878 146.696706 
L 206.453878 145.578342 
L 206.608819 145.578342 
L 206.608819 145.019159 
L 206.88069 145.019159 
L 206.88069 143.900795 
L 207.279819 143.900795 
L 207.279819 143.341613 
L 207.417094 143.341613 
L 207.417094 142.78243 
L 207.637984 142.78243 
L 207.666297 141.104884 
L 208.013059 141.104884 
L 208.013059 140.545702 
L 208.268247 140.545702 
L 208.268247 139.986519 
L 208.685326 139.986519 
L 208.685326 139.427337 
L 209.472272 139.427337 
L 209.472272 138.868155 
L 209.797066 138.868155 
L 209.797066 137.74979 
L 209.975192 137.74979 
L 209.975192 136.631426 
L 210.554086 136.631426 
L 210.554086 136.072244 
L 210.774029 136.072244 
L 210.857552 134.953879 
L 212.307684 134.953879 
L 212.307684 133.276332 
L 212.508378 133.276332 
L 212.508378 132.71715 
L 212.723635 132.71715 
L 212.723635 132.157968 
L 212.847778 132.157968 
L 212.847778 131.039603 
L 213.405365 131.039603 
L 213.405365 128.802874 
L 213.894667 128.802874 
L 213.894667 127.68451 
L 214.285925 127.68451 
L 214.285925 126.566145 
L 254.861792 126.566145 
L 254.927782 125.447781 
L 254.99651 125.447781 
L 255.106141 116.500865 
L 255.118834 116.500865 
L 255.203787 113.704954 
L 255.238902 113.704954 
L 255.340888 109.231496 
L 255.380961 109.231496 
L 255.438591 105.876403 
L 255.524723 105.876403 
L 255.59825 104.758038 
L 255.675665 104.758038 
L 255.747042 102.521309 
L 255.811389 102.521309 
L 255.811389 101.962127 
L 266.485955 101.962127 
L 266.590256 96.370304 
L 266.623128 96.370304 
L 266.723877 91.337664 
L 266.751453 91.337664 
L 266.853864 87.423389 
L 266.878367 87.423389 
L 266.963732 84.627477 
L 273.319351 84.627477 
L 273.42061 81.272384 
L 273.4338 81.272384 
L 273.528685 76.239744 
L 273.555592 76.239744 
L 273.64221 72.325468 
L 273.686265 72.325468 
L 273.697657 70.647921 
L 278.256781 70.647921 
L 278.353427 65.615281 
L 278.386374 65.615281 
L 278.467023 61.141823 
L 282.058558 61.141823 
L 282.163422 54.431636 
L 282.177761 54.431636 
L 282.249702 52.194907 
L 285.175904 52.194907 
L 285.280536 46.603085 
L 287.805461 46.603085 
L 287.864501 43.807174 
L 287.93126 43.807174 
L 287.93126 43.247992 
L 290.116925 43.247992 
L 290.201496 38.774534 
L 292.1269 38.774534 
L 292.202904 33.182711 
L 293.927096 33.182711 
L 293.992063 29.827618 
L 295.551941 29.827618 
L 295.599272 26.472524 
L 297.045121 26.472524 
L 297.099336 22.558249 
L 298.416278 22.558249 
L 298.435177 19.762337 
L 299.694601 19.762337 
L 299.694601 19.203155 
L 300.871609 19.203155 
L 300.871609 18.084791 
L 301.974712 18.084791 
L 301.974712 17.525609 
L 303.019875 17.525609 
L 303.048365 16.407244 
L 304.933583 16.407244 
L 304.938709 14.729697 
L 307.435015 14.729697 
L 307.435015 14.170515 
L 308.210296 14.170515 
L 308.210296 13.611333 
L 308.939776 13.611333 
L 308.939776 13.052151 
L 310.305752 13.052151 
L 310.305752 12.492968 
L 313.327691 12.492968 
L 313.327691 11.933786 
L 313.862541 11.933786 
L 313.862541 11.374604 
L 314.907191 11.374604 
L 314.907191 10.815422 
L 316.826985 10.815422 
L 316.826985 10.256239 
L 318.123039 10.256239 
L 318.123039 9.697057 
L 333.429677 9.697057 
L 333.429677 9.697057 
" style="fill:none;stroke:#000080;stroke-linecap:square;stroke-width:1.5;"/>
   </g>
   <g id="line2d_25">
    <defs>
     <path d="M 0 6 
C 1.591219 6 3.117479 5.367802 4.242641 4.242641 
C 5.367802 3.117479 6 1.591219 6 0 
C 6 -1.591219 5.367802 -3.117479 4.242641 -4.242641 
C 3.117479 -5.367802 1.591219 -6 0 -6 
C -1.591219 -6 -3.117479 -5.367802 -4.242641 -4.242641 
C -5.367802 -3.117479 -6 -1.591219 -6 0 
C -6 1.591219 -5.367802 3.117479 -4.242641 4.242641 
C -3.117479 5.367802 -1.591219 6 0 6 
z
" id="mfc772ab74a" style="stroke:#000080;stroke-width:1.5;"/>
    </defs>
    <g>
     <use style="fill-opacity:0;stroke:#000080;stroke-width:1.5;" x="157.981504" xlink:href="#mfc772ab74a" y="261.329066"/>
     <use style="fill-opacity:0;stroke:#000080;stroke-width:1.5;" x="196.774359" xlink:href="#mfc772ab74a" y="174.655818"/>
     <use style="fill-opacity:0;stroke:#000080;stroke-width:1.5;" x="266.909017" xlink:href="#mfc772ab74a" y="86.305024"/>
     <use style="fill-opacity:0;stroke:#000080;stroke-width:1.5;" x="318.123039" xlink:href="#mfc772ab74a" y="10.256239"/>
     <use style="fill-opacity:0;stroke:#000080;stroke-width:1.5;" x="318.123039" xlink:href="#mfc772ab74a" y="9.697057"/>
     <use style="fill-opacity:0;stroke:#000080;stroke-width:1.5;" x="333.429677" xlink:href="#mfc772ab74a" y="9.697057"/>
    </g>
   </g>
   <g id="line2d_26">
    <path style="fill:none;stroke:#000080;stroke-linecap:square;stroke-width:1.5;"/>
    <g/>
   </g>
   <g id="line2d_27">
    <path clip-path="url(#p55aac651db)" d="M 254.198358 126.566145 
" style="fill:none;stroke:#000080;stroke-linecap:square;stroke-width:1.5;"/>
    <defs>
     <path d="M -12 12 
L 12 -12 
M -12 -12 
L 12 12 
" id="mb12c0f103c" style="stroke:#000080;stroke-width:3;"/>
    </defs>
    <g clip-path="url(#p55aac651db)">
     <use style="fill:#000080;stroke:#000080;stroke-width:3;" x="254.198358" xlink:href="#mb12c0f103c" y="126.566145"/>
    </g>
   </g>
   <g id="line2d_28">
    <defs>
     <path d="M 0 1.5 
C 0.397805 1.5 0.77937 1.341951 1.06066 1.06066 
C 1.341951 0.77937 1.5 0.397805 1.5 0 
C 1.5 -0.397805 1.341951 -0.77937 1.06066 -1.06066 
C 0.77937 -1.341951 0.397805 -1.5 0 -1.5 
C -0.397805 -1.5 -0.77937 -1.341951 -1.06066 -1.06066 
C -1.341951 -0.77937 -1.5 -0.397805 -1.5 0 
C -1.5 0.397805 -1.341951 0.77937 -1.06066 1.06066 
C -0.77937 1.341951 -0.397805 1.5 0 1.5 
z
" id="m0288b04788" style="stroke:#ff00ff;"/>
    </defs>
    <g>
     <use style="fill:#ff00ff;stroke:#ff00ff;" x="294.033614" xlink:href="#m0288b04788" y="194.227197"/>
     <use style="fill:#ff00ff;stroke:#ff00ff;" x="294.033614" xlink:href="#m0288b04788" y="194.227197"/>
    </g>
   </g>
   <g id="line2d_29">
    <path d="M 28.429836 294.88 
L 28.429836 265.802523 
L 40.355341 265.802523 
L 40.355341 264.124977 
L 52.280845 264.124977 
L 52.280845 263.006612 
L 59.256818 263.006612 
L 59.256818 261.329066 
L 61.90896 261.329066 
L 61.90896 260.769883 
L 66.232791 260.769883 
L 66.232791 259.651519 
L 69.685303 259.651519 
L 69.685303 259.092337 
L 72.559446 259.092337 
L 72.559446 257.973972 
L 78.158295 257.973972 
L 78.158295 257.41479 
L 86.36371 257.41479 
L 86.36371 256.855608 
L 89.100397 256.855608 
L 89.100397 256.296425 
L 98.289215 256.296425 
L 98.289215 255.737243 
L 106.778678 255.737243 
L 106.778678 255.178061 
L 114.637146 255.178061 
L 114.637146 254.618879 
L 131.978927 254.618879 
L 131.978927 254.059696 
L 133.766505 254.059696 
L 133.766505 253.500514 
L 137.665922 253.500514 
L 137.665922 252.38215 
L 140.437959 252.38215 
L 140.437959 251.263785 
L 153.309845 251.263785 
L 153.309845 250.704603 
L 153.47864 250.704603 
L 153.47864 249.586238 
L 155.882182 249.586238 
L 155.882182 249.027056 
L 158.310793 249.027056 
L 158.310793 248.467874 
L 165.332007 248.467874 
L 165.332007 247.908692 
L 166.625517 247.908692 
L 166.731359 245.112781 
L 168.552956 245.112781 
L 168.552956 243.994416 
L 171.392479 243.994416 
L 171.392479 243.435234 
L 176.373748 243.435234 
L 176.430729 242.316869 
L 176.827481 242.316869 
L 176.827481 241.757687 
L 181.156802 241.757687 
L 181.156802 240.639323 
L 182.780221 240.639323 
L 182.780221 240.08014 
L 186.463976 240.08014 
L 186.463976 239.520958 
L 187.35758 239.520958 
L 187.35758 238.961776 
L 189.048454 238.961776 
L 189.048454 238.402594 
L 191.63651 238.402594 
L 191.63651 237.843411 
L 192.606341 237.843411 
L 192.606341 237.284229 
L 193.889115 237.284229 
L 193.889115 236.725047 
L 195.671214 236.725047 
L 195.671214 236.165865 
L 196.102671 236.165865 
L 196.102671 235.606682 
L 196.221125 235.606682 
L 196.221125 235.0475 
L 196.753033 235.0475 
L 196.753033 233.929136 
L 197.747048 233.929136 
L 197.747048 233.369954 
L 198.356818 233.369954 
L 198.356818 232.810771 
L 198.503753 232.810771 
L 198.503753 232.251589 
L 199.251237 232.251589 
L 199.251237 231.133225 
L 201.155894 231.133225 
L 201.155894 230.574042 
L 201.373784 230.574042 
L 201.465485 228.896496 
L 201.537613 228.896496 
L 201.537613 228.337313 
L 201.699897 228.337313 
L 201.699897 227.778131 
L 201.89307 227.778131 
L 201.89307 227.218949 
L 202.108272 227.218949 
L 202.108272 226.659767 
L 202.500235 226.659767 
L 202.500235 225.541402 
L 202.926203 225.541402 
L 202.926203 224.98222 
L 203.169732 224.98222 
L 203.215096 223.863855 
L 204.022642 223.863855 
L 204.022642 223.304673 
L 204.513939 223.304673 
L 204.519498 222.186309 
L 205.021012 222.186309 
L 205.021012 221.067944 
L 205.318942 221.067944 
L 205.318942 220.508762 
L 205.693331 220.508762 
L 205.693331 219.94958 
L 205.810037 219.94958 
L 205.810037 219.390397 
L 206.275795 219.390397 
L 206.293074 217.153669 
L 206.392506 217.153669 
L 206.392506 216.594486 
L 208.453991 216.594486 
L 208.547094 214.91694 
L 208.672717 214.91694 
L 208.672717 214.357757 
L 209.308948 214.357757 
L 209.308948 213.798575 
L 211.463739 213.798575 
L 211.463739 213.239393 
L 212.339467 213.239393 
L 212.371191 211.561846 
L 219.810552 211.561846 
L 219.810552 211.002664 
L 220.836225 211.002664 
L 220.836225 210.443482 
L 232.384292 210.443482 
L 232.384292 209.325117 
L 236.951734 209.325117 
L 236.951734 208.765935 
L 237.962587 208.765935 
L 237.962587 207.64757 
L 239.905463 207.64757 
L 239.905463 207.088388 
L 250.843713 207.088388 
L 250.843713 206.529206 
L 255.131192 206.529206 
L 255.131192 205.970024 
L 255.376655 205.970024 
L 255.376655 205.410841 
L 258.296256 205.410841 
L 258.296256 204.292477 
L 259.854026 204.292477 
L 259.854026 203.733295 
L 261.578657 203.733295 
L 261.578657 202.61493 
L 263.521374 202.61493 
L 263.521374 202.055748 
L 267.194802 202.055748 
L 267.194802 200.378201 
L 268.29453 200.378201 
L 268.29453 199.259837 
L 269.183052 199.259837 
L 269.183052 198.700655 
L 270.206751 198.700655 
L 270.206751 198.141472 
L 271.40929 198.141472 
L 271.40929 197.023108 
L 275.926425 197.023108 
L 275.926425 195.904743 
L 280.211642 195.904743 
L 280.211642 195.345561 
L 284.200823 195.345561 
L 284.200823 194.786379 
L 294.033614 194.786379 
L 294.033614 194.227197 
L 333.429677 194.227197 
L 333.429677 194.227197 
" style="fill:none;stroke:#ff00ff;stroke-linecap:square;stroke-width:1.5;"/>
   </g>
   <g id="line2d_30">
    <defs>
     <path d="M -0 8.485281 
L 5.091169 0 
L 0 -8.485281 
L -5.091169 -0 
z
" id="mf4d8411ea7" style="stroke:#ff00ff;stroke-linejoin:miter;stroke-width:1.5;"/>
    </defs>
    <g>
     <use style="fill-opacity:0;stroke:#ff00ff;stroke-linejoin:miter;stroke-width:1.5;" x="140.437959" xlink:href="#mf4d8411ea7" y="252.38215"/>
     <use style="fill-opacity:0;stroke:#ff00ff;stroke-linejoin:miter;stroke-width:1.5;" x="203.215096" xlink:href="#mf4d8411ea7" y="223.863855"/>
     <use style="fill-opacity:0;stroke:#ff00ff;stroke-linejoin:miter;stroke-width:1.5;" x="271.40929" xlink:href="#mf4d8411ea7" y="198.141472"/>
     <use style="fill-opacity:0;stroke:#ff00ff;stroke-linejoin:miter;stroke-width:1.5;" x="294.033614" xlink:href="#mf4d8411ea7" y="194.227197"/>
     <use style="fill-opacity:0;stroke:#ff00ff;stroke-linejoin:miter;stroke-width:1.5;" x="333.429677" xlink:href="#mf4d8411ea7" y="194.227197"/>
    </g>
   </g>
   <g id="line2d_31">
    <path style="fill:none;stroke:#ff00ff;stroke-linecap:square;stroke-width:1.5;"/>
    <g/>
   </g>
   <g id="line2d_32">
    <path clip-path="url(#p55aac651db)" d="M 254.198358 206.529206 
" style="fill:none;stroke:#ff00ff;stroke-linecap:square;stroke-width:1.5;"/>
    <defs>
     <path d="M -12 12 
L 12 -12 
M -12 -12 
L 12 12 
" id="md8f258c822" style="stroke:#ff00ff;stroke-width:3;"/>
    </defs>
    <g clip-path="url(#p55aac651db)">
     <use style="fill:#ff00ff;stroke:#ff00ff;stroke-width:3;" x="254.198358" xlink:href="#md8f258c822" y="206.529206"/>
    </g>
   </g>
   <g id="line2d_33">
    <defs>
     <path d="M 0 1.5 
C 0.397805 1.5 0.77937 1.341951 1.06066 1.06066 
C 1.341951 0.77937 1.5 0.397805 1.5 0 
C 1.5 -0.397805 1.341951 -0.77937 1.06066 -1.06066 
C 0.77937 -1.341951 0.397805 -1.5 0 -1.5 
C -0.397805 -1.5 -0.77937 -1.341951 -1.06066 -1.06066 
C -1.341951 -0.77937 -1.5 -0.397805 -1.5 0 
C -1.5 0.397805 -1.341951 0.77937 -1.06066 1.06066 
C -0.77937 1.341951 -0.397805 1.5 0 1.5 
z
" id="m1a2e91e5db" style="stroke:#ffa500;"/>
    </defs>
    <g>
     <use style="fill:#ffa500;stroke:#ffa500;" x="333.270477" xlink:href="#m1a2e91e5db" y="65.615281"/>
     <use style="fill:#ffa500;stroke:#ffa500;" x="333.270477" xlink:href="#m1a2e91e5db" y="65.615281"/>
    </g>
   </g>
   <g id="line2d_34">
    <path d="M 28.429836 294.88 
L 28.429836 289.288178 
L 40.355341 289.288178 
L 40.355341 287.051449 
L 47.331314 287.051449 
L 47.331314 284.81472 
L 52.280845 284.81472 
L 52.280845 283.696355 
L 56.12 283.696355 
L 56.12 283.137173 
L 64.20635 283.137173 
L 64.20635 282.577991 
L 66.232791 282.577991 
L 66.232791 281.459626 
L 69.685303 281.459626 
L 69.685303 280.341262 
L 72.559446 280.341262 
L 72.559446 279.782079 
L 81.610808 279.782079 
L 81.610808 279.222897 
L 91.460924 279.222897 
L 91.460924 278.663715 
L 95.735668 278.663715 
L 95.735668 278.104533 
L 96.07637 278.104533 
L 96.07637 277.545351 
L 102.009304 277.545351 
L 102.009304 276.986168 
L 105.066285 276.986168 
L 105.066285 275.867804 
L 106.412604 275.867804 
L 106.412604 275.308622 
L 114.637146 275.308622 
L 114.637146 274.190257 
L 120.507839 274.190257 
L 120.507839 273.631075 
L 120.99025 273.631075 
L 120.99025 273.071893 
L 131.597991 273.071893 
L 131.597991 272.51271 
L 132.062446 272.51271 
L 132.062446 271.953528 
L 139.107709 271.953528 
L 139.107709 271.394346 
L 142.049805 271.394346 
L 142.049805 270.275981 
L 145.464127 270.275981 
L 145.464127 268.598435 
L 152.57972 268.598435 
L 152.57972 267.48007 
L 153.681403 267.48007 
L 153.681403 266.361706 
L 156.835998 266.361706 
L 156.835998 265.802523 
L 156.973638 265.802523 
L 156.973638 265.243341 
L 161.554488 265.243341 
L 161.554488 263.565795 
L 161.718772 263.565795 
L 161.718772 263.006612 
L 163.985478 263.006612 
L 163.985478 262.44743 
L 167.603021 262.44743 
L 167.603021 261.888248 
L 169.391433 261.888248 
L 169.391433 260.769883 
L 172.740255 260.769883 
L 172.740255 260.210701 
L 173.851122 260.210701 
L 173.851122 259.651519 
L 174.138756 259.651519 
L 174.138756 258.533154 
L 174.325494 258.533154 
L 174.325494 257.41479 
L 175.826084 257.41479 
L 175.826084 256.855608 
L 176.201667 256.855608 
L 176.201667 256.296425 
L 176.41492 256.296425 
L 176.41492 255.737243 
L 176.999562 255.737243 
L 176.999562 255.178061 
L 178.060757 255.178061 
L 178.060757 254.618879 
L 178.492249 254.618879 
L 178.492249 253.500514 
L 180.198946 253.500514 
L 180.198946 252.941332 
L 180.667254 252.941332 
L 180.667254 251.263785 
L 181.038737 251.263785 
L 181.038737 250.145421 
L 182.699184 250.145421 
L 182.729892 249.027056 
L 183.233063 249.027056 
L 183.233063 247.908692 
L 183.5932 247.908692 
L 183.618192 246.231145 
L 184.494546 246.231145 
L 184.494546 245.671963 
L 184.663801 245.671963 
L 184.663801 245.112781 
L 185.216887 245.112781 
L 185.216887 244.553598 
L 186.037159 244.553598 
L 186.037159 243.994416 
L 186.644703 243.994416 
L 186.712641 242.316869 
L 186.988588 242.316869 
L 186.988588 241.198505 
L 187.196062 241.198505 
L 187.196062 240.639323 
L 187.37599 240.639323 
L 187.37599 240.08014 
L 187.736852 240.08014 
L 187.736852 239.520958 
L 188.109547 239.520958 
L 188.109547 237.843411 
L 188.726715 237.843411 
L 188.726715 236.725047 
L 188.961718 236.725047 
L 188.961718 236.165865 
L 189.358325 236.165865 
L 189.45347 235.0475 
L 190.51002 235.0475 
L 190.51002 234.488318 
L 190.88104 234.488318 
L 190.88104 233.369954 
L 191.200083 233.369954 
L 191.200083 232.810771 
L 191.410421 232.810771 
L 191.410421 231.692407 
L 191.734173 231.692407 
L 191.734173 231.133225 
L 191.991928 231.133225 
L 191.991928 230.574042 
L 192.119372 230.574042 
L 192.119372 230.01486 
L 192.348925 230.01486 
L 192.348925 229.455678 
L 192.710938 229.455678 
L 192.710938 228.896496 
L 193.386952 228.896496 
L 193.386952 228.337313 
L 193.625912 228.337313 
L 193.625912 227.778131 
L 194.658683 227.778131 
L 194.658683 227.218949 
L 194.856918 227.218949 
L 194.873155 226.100584 
L 195.063599 226.100584 
L 195.063599 225.541402 
L 195.876562 225.541402 
L 195.93057 223.863855 
L 196.357637 223.863855 
L 196.357637 222.745491 
L 197.064459 222.745491 
L 197.160398 221.067944 
L 197.300963 221.067944 
L 197.300963 220.508762 
L 197.727812 220.508762 
L 197.727812 219.94958 
L 197.919212 219.94958 
L 197.919212 219.390397 
L 198.111195 219.390397 
L 198.140749 217.153669 
L 198.384188 217.153669 
L 198.384188 216.594486 
L 198.741281 216.594486 
L 198.741281 216.035304 
L 199.133395 216.035304 
L 199.133395 214.91694 
L 199.662357 214.91694 
L 199.662357 214.357757 
L 200.084673 214.357757 
L 200.084673 213.798575 
L 201.068564 213.798575 
L 201.111532 212.680211 
L 201.58602 212.680211 
L 201.655458 211.561846 
L 201.729702 211.561846 
L 201.729702 210.443482 
L 201.908891 210.443482 
L 201.908891 209.884299 
L 202.073422 209.884299 
L 202.134541 207.64757 
L 202.233574 207.64757 
L 202.233574 205.970024 
L 202.577843 205.970024 
L 202.633065 204.292477 
L 202.762825 204.292477 
L 202.784016 203.174112 
L 203.169732 203.174112 
L 203.169732 202.61493 
L 203.296848 202.61493 
L 203.296848 202.055748 
L 203.453284 202.055748 
L 203.453284 201.496566 
L 203.722538 201.496566 
L 203.749686 199.819019 
L 204.325722 199.819019 
L 204.325722 199.259837 
L 204.769039 199.259837 
L 204.769039 198.141472 
L 204.949482 198.141472 
L 204.949482 197.023108 
L 205.183997 197.023108 
L 205.183997 196.463926 
L 205.405389 196.463926 
L 205.405389 195.904743 
L 205.764139 195.904743 
L 205.764139 194.786379 
L 206.328691 194.786379 
L 206.328691 193.668014 
L 206.630683 193.668014 
L 206.630683 192.54965 
L 206.942494 192.54965 
L 206.942494 190.312921 
L 207.40822 190.312921 
L 207.40822 189.194556 
L 208.573463 189.194556 
L 208.660099 187.51701 
L 208.802245 187.51701 
L 208.802245 186.398645 
L 209.498186 186.398645 
L 209.498186 185.280281 
L 209.752928 185.280281 
L 209.752928 184.721099 
L 209.940976 184.721099 
L 209.965745 183.043552 
L 210.112273 183.043552 
L 210.112273 182.48437 
L 210.479123 182.48437 
L 210.49353 180.806823 
L 211.556709 180.806823 
L 211.633667 179.129276 
L 212.034934 179.129276 
L 212.034934 178.570094 
L 212.41418 178.570094 
L 212.41418 178.010912 
L 213.201505 178.010912 
L 213.201505 177.451729 
L 214.692433 177.451729 
L 214.692433 176.333365 
L 215.659683 176.333365 
L 215.659683 175.774183 
L 216.928512 175.774183 
L 216.928512 174.655818 
L 254.658404 174.655818 
L 254.740755 171.300725 
L 254.770869 171.300725 
L 254.812258 167.945631 
L 254.911284 167.945631 
L 254.979025 166.827267 
L 255.109993 166.827267 
L 255.193301 164.590538 
L 255.224223 164.590538 
L 255.224223 164.031356 
L 255.352346 164.031356 
L 255.447489 161.235444 
L 255.504068 161.235444 
L 255.595395 158.439533 
L 255.621518 158.439533 
L 255.717078 156.202804 
L 255.848163 156.202804 
L 255.938899 154.525258 
L 266.376171 154.525258 
L 266.452364 152.847711 
L 266.510736 152.847711 
L 266.556432 149.492617 
L 266.666976 149.492617 
L 266.769376 146.137524 
L 266.789101 146.137524 
L 266.862354 142.78243 
L 266.922704 142.78243 
L 266.968533 141.104884 
L 267.082556 141.104884 
L 267.082556 140.545702 
L 273.341646 140.545702 
L 273.437916 137.190608 
L 273.45734 137.190608 
L 273.555682 131.598786 
L 273.576334 131.598786 
L 273.667531 127.68451 
L 273.744863 127.68451 
L 273.744863 127.125328 
L 278.175984 127.125328 
L 278.231043 126.006963 
L 278.305083 126.006963 
L 278.385201 121.533505 
L 278.431353 121.533505 
L 278.441799 119.855959 
L 282.020676 119.855959 
L 282.129484 118.178412 
L 282.145709 118.178412 
L 282.145709 117.61923 
L 285.144044 117.61923 
L 285.228467 115.941683 
L 285.2662 115.941683 
L 285.280937 114.264136 
L 287.793532 114.264136 
L 287.902823 110.909043 
L 287.909532 110.909043 
L 287.909532 110.349861 
L 290.084038 110.349861 
L 290.178086 106.435585 
L 292.091642 106.435585 
L 292.172132 103.639674 
L 293.92206 103.639674 
L 293.986311 99.166216 
L 295.524816 99.166216 
L 295.564919 98.047851 
L 297.039111 98.047851 
L 297.086587 93.574393 
L 298.411131 93.574393 
L 298.444247 91.896847 
L 301.99667 91.896847 
L 301.99667 91.337664 
L 303.003926 91.337664 
L 303.034059 88.541753 
L 303.98692 88.541753 
L 304.017431 87.423389 
L 304.926137 87.423389 
L 304.942893 85.745842 
L 305.804377 85.745842 
L 305.818737 82.390748 
L 306.640544 82.390748 
L 306.647844 81.272384 
L 307.445354 81.272384 
L 307.445354 80.713202 
L 308.204264 80.713202 
L 308.219235 79.035655 
L 308.930405 79.035655 
L 308.930405 78.476473 
L 309.6368 78.476473 
L 309.6368 77.917291 
L 310.956607 77.917291 
L 310.963253 76.239744 
L 311.577913 76.239744 
L 311.577913 75.121379 
L 312.186896 75.121379 
L 312.186896 74.562197 
L 313.326342 74.562197 
L 313.326342 74.003015 
L 313.866942 74.003015 
L 313.866942 73.443833 
L 314.40335 73.443833 
L 314.40335 72.88465 
L 314.913471 72.88465 
L 314.913471 72.325468 
L 315.409009 72.325468 
L 315.409009 71.766286 
L 316.825523 71.766286 
L 316.825523 71.207104 
L 317.697489 71.207104 
L 317.697489 70.647921 
L 318.128551 70.647921 
L 318.128551 70.088739 
L 318.94454 70.088739 
L 318.94454 69.529557 
L 320.099721 69.529557 
L 320.099721 68.970375 
L 320.46847 68.970375 
L 320.46847 68.411192 
L 320.830091 68.411192 
L 320.837888 67.292828 
L 323.781295 67.292828 
L 323.781295 66.733646 
L 328.727107 66.733646 
L 328.727107 66.174463 
L 333.270477 66.174463 
L 333.270477 65.615281 
L 333.429677 65.615281 
L 333.429677 65.615281 
" style="fill:none;stroke:#ffa500;stroke-linecap:square;stroke-width:1.5;"/>
   </g>
   <g id="line2d_35">
    <defs>
     <path d="M 0 -6 
L -1.347084 -1.854102 
L -5.706339 -1.854102 
L -2.179628 0.708204 
L -3.526712 4.854102 
L -0 2.291796 
L 3.526712 4.854102 
L 2.179628 0.708204 
L 5.706339 -1.854102 
L 1.347084 -1.854102 
z
" id="m0089c01bf8" style="stroke:#ffa500;stroke-linejoin:bevel;stroke-width:1.5;"/>
    </defs>
    <g>
     <use style="fill-opacity:0;stroke:#ffa500;stroke-linejoin:bevel;stroke-width:1.5;" x="106.412604" xlink:href="#m0089c01bf8" y="275.867804"/>
     <use style="fill-opacity:0;stroke:#ffa500;stroke-linejoin:bevel;stroke-width:1.5;" x="188.109547" xlink:href="#m0089c01bf8" y="237.843411"/>
     <use style="fill-opacity:0;stroke:#ffa500;stroke-linejoin:bevel;stroke-width:1.5;" x="216.928512" xlink:href="#m0089c01bf8" y="174.655818"/>
     <use style="fill-opacity:0;stroke:#ffa500;stroke-linejoin:bevel;stroke-width:1.5;" x="303.003926" xlink:href="#m0089c01bf8" y="91.337664"/>
     <use style="fill-opacity:0;stroke:#ffa500;stroke-linejoin:bevel;stroke-width:1.5;" x="333.270477" xlink:href="#m0089c01bf8" y="65.615281"/>
     <use style="fill-opacity:0;stroke:#ffa500;stroke-linejoin:bevel;stroke-width:1.5;" x="333.429677" xlink:href="#m0089c01bf8" y="65.615281"/>
    </g>
   </g>
   <g id="line2d_36">
    <path style="fill:none;stroke:#ffa500;stroke-linecap:square;stroke-width:1.5;"/>
    <g/>
   </g>
   <g id="line2d_37">
    <path clip-path="url(#p55aac651db)" d="M 254.198358 174.655818 
" style="fill:none;stroke:#ffa500;stroke-linecap:square;stroke-width:1.5;"/>
    <defs>
     <path d="M -12 12 
L 12 -12 
M -12 -12 
L 12 12 
" id="m98989f0916" style="stroke:#ffa500;stroke-width:3;"/>
    </defs>
    <g clip-path="url(#p55aac651db)">
     <use style="fill:#ffa500;stroke:#ffa500;stroke-width:3;" x="254.198358" xlink:href="#m98989f0916" y="174.655818"/>
    </g>
   </g>
   <g id="line2d_38">
    <defs>
     <path d="M 0 1.5 
C 0.397805 1.5 0.77937 1.341951 1.06066 1.06066 
C 1.341951 0.77937 1.5 0.397805 1.5 0 
C 1.5 -0.397805 1.341951 -0.77937 1.06066 -1.06066 
C 0.77937 -1.341951 0.397805 -1.5 0 -1.5 
C -0.397805 -1.5 -0.77937 -1.341951 -1.06066 -1.06066 
C -1.341951 -0.77937 -1.5 -0.397805 -1.5 0 
C -1.5 0.397805 -1.341951 0.77937 -1.06066 1.06066 
C -0.77937 1.341951 -0.397805 1.5 0 1.5 
z
" id="mad51969097" style="stroke:#6495ed;"/>
    </defs>
    <g>
     <use style="fill:#6495ed;stroke:#6495ed;" x="266.766542" xlink:href="#mad51969097" y="9.697057"/>
     <use style="fill:#6495ed;stroke:#6495ed;" x="266.766542" xlink:href="#mad51969097" y="9.697057"/>
    </g>
   </g>
   <g id="line2d_39">
    <path d="M 28.429836 294.88 
L 28.429836 275.867804 
L 40.355341 275.867804 
L 40.355341 273.071893 
L 47.331314 273.071893 
L 47.331314 272.51271 
L 56.12 272.51271 
L 56.12 271.394346 
L 73.834464 271.394346 
L 73.834464 270.275981 
L 75.021477 270.275981 
L 75.021477 269.716799 
L 76.131854 269.716799 
L 76.131854 269.157617 
L 78.158295 269.157617 
L 78.158295 268.598435 
L 79.088515 268.598435 
L 79.088515 268.039252 
L 88.057358 268.039252 
L 88.057358 266.920888 
L 99.156871 266.920888 
L 99.156871 266.361706 
L 106.226603 266.361706 
L 106.226603 265.243341 
L 106.596615 265.243341 
L 106.596615 264.684159 
L 108.001874 264.684159 
L 108.001874 264.124977 
L 108.169728 264.124977 
L 108.169728 263.565795 
L 108.33596 263.565795 
L 108.33596 263.006612 
L 109.300972 263.006612 
L 109.300972 262.44743 
L 116.380902 262.44743 
L 116.380902 261.888248 
L 118.245359 261.888248 
L 118.245359 261.329066 
L 121.304503 261.329066 
L 121.304503 260.769883 
L 121.613118 260.769883 
L 121.613118 260.210701 
L 124.034319 260.210701 
L 124.034319 259.092337 
L 127.015436 259.092337 
L 127.015436 258.533154 
L 128.045326 258.533154 
L 128.045326 257.973972 
L 131.252153 257.973972 
L 131.252153 257.41479 
L 137.845453 257.41479 
L 137.845453 256.296425 
L 139.217997 256.296425 
L 139.217997 255.178061 
L 140.867787 255.178061 
L 140.867787 254.618879 
L 146.717284 254.618879 
L 146.717284 254.059696 
L 147.328378 254.059696 
L 147.328378 253.500514 
L 147.532997 253.500514 
L 147.532997 252.941332 
L 153.102629 252.941332 
L 153.102629 251.263785 
L 154.683241 251.263785 
L 154.683241 250.145421 
L 154.949644 250.145421 
L 154.949644 249.586238 
L 155.491745 249.586238 
L 155.491745 248.467874 
L 155.798511 248.467874 
L 155.798511 247.34951 
L 157.711581 247.34951 
L 157.711581 246.231145 
L 157.990736 246.231145 
L 157.990736 245.671963 
L 159.702547 245.671963 
L 159.702547 244.553598 
L 160.277739 244.553598 
L 160.277739 243.435234 
L 161.113703 243.435234 
L 161.113703 242.876052 
L 163.062134 242.876052 
L 163.062134 242.316869 
L 163.260325 242.316869 
L 163.260325 241.757687 
L 163.848126 241.757687 
L 163.920209 240.08014 
L 165.801448 240.08014 
L 165.801448 238.961776 
L 166.625517 238.961776 
L 166.625517 238.402594 
L 167.337016 238.402594 
L 167.337016 237.843411 
L 168.051144 237.843411 
L 168.051144 237.284229 
L 168.220046 237.284229 
L 168.220046 236.725047 
L 169.089038 236.725047 
L 169.17598 235.606682 
L 169.907008 235.606682 
L 169.966931 231.692407 
L 171.12785 231.692407 
L 171.12785 231.133225 
L 171.561073 231.133225 
L 171.561073 230.01486 
L 171.765374 230.01486 
L 171.765374 229.455678 
L 172.061238 229.455678 
L 172.061238 228.896496 
L 172.483785 228.896496 
L 172.483785 227.778131 
L 172.783282 227.778131 
L 172.841782 226.659767 
L 172.915598 226.659767 
L 172.927224 224.98222 
L 173.491244 224.98222 
L 173.491244 224.423038 
L 174.091753 224.423038 
L 174.091753 223.863855 
L 174.253911 223.863855 
L 174.253911 223.304673 
L 174.682505 223.304673 
L 174.682505 222.745491 
L 174.987638 222.745491 
L 174.987638 221.067944 
L 175.468877 221.067944 
L 175.468877 220.508762 
L 176.496968 220.508762 
L 176.496968 219.94958 
L 177.389534 219.94958 
L 177.389534 219.390397 
L 177.97141 219.390397 
L 177.97141 218.831215 
L 178.328875 218.831215 
L 178.328875 218.272033 
L 178.822668 218.272033 
L 178.855638 216.594486 
L 180.453464 216.594486 
L 180.485952 214.91694 
L 180.588014 214.91694 
L 180.588014 213.798575 
L 181.274062 213.798575 
L 181.274062 213.239393 
L 181.452008 213.239393 
L 181.452008 211.002664 
L 181.63981 211.002664 
L 181.688771 209.325117 
L 181.756154 209.325117 
L 181.756154 208.765935 
L 183.296793 208.765935 
L 183.296793 207.64757 
L 183.896878 207.64757 
L 183.896878 206.529206 
L 184.393382 206.529206 
L 184.40929 204.851659 
L 184.555749 204.851659 
L 184.555749 204.292477 
L 184.716598 204.292477 
L 184.716598 203.733295 
L 184.947383 203.733295 
L 184.947383 203.174112 
L 185.106538 203.174112 
L 185.106538 202.61493 
L 185.390484 202.61493 
L 185.424245 200.937384 
L 185.538166 200.937384 
L 185.538166 200.378201 
L 185.656885 200.378201 
L 185.66982 197.58229 
L 186.161473 197.58229 
L 186.18838 195.345561 
L 186.297368 195.345561 
L 186.359592 194.227197 
L 186.594011 194.227197 
L 186.594011 193.668014 
L 186.769919 193.668014 
L 186.769919 192.54965 
L 186.932035 192.54965 
L 187.007397 190.872103 
L 187.704059 190.872103 
L 187.704059 190.312921 
L 187.966286 190.312921 
L 187.974366 188.635374 
L 188.131974 188.635374 
L 188.131974 188.076192 
L 188.364132 188.076192 
L 188.364132 187.51701 
L 188.751442 187.51701 
L 188.751442 186.957828 
L 188.869942 186.957828 
L 188.869942 186.398645 
L 189.542193 186.398645 
L 189.542193 185.839463 
L 189.89836 185.839463 
L 189.984824 184.161916 
L 190.036494 184.161916 
L 190.056547 181.366005 
L 190.164996 181.366005 
L 190.240222 179.129276 
L 190.312301 179.129276 
L 190.312301 178.570094 
L 190.816789 178.570094 
L 190.886497 177.451729 
L 190.972219 177.451729 
L 191.072366 176.333365 
L 191.31622 176.333365 
L 191.31622 174.655818 
L 191.576335 174.655818 
L 191.576335 173.537454 
L 191.911151 173.537454 
L 191.911151 172.978271 
L 192.296223 172.978271 
L 192.296223 172.419089 
L 192.428925 172.419089 
L 192.448867 171.300725 
L 192.593994 171.300725 
L 192.593994 170.18236 
L 192.955777 170.18236 
L 193.064288 167.945631 
L 193.115891 167.945631 
L 193.182864 165.708902 
L 193.410526 165.708902 
L 193.486922 164.031356 
L 193.751089 164.031356 
L 193.764942 162.912991 
L 193.966841 162.912991 
L 193.974823 161.794627 
L 194.408189 161.794627 
L 194.408189 161.235444 
L 194.755908 161.235444 
L 194.828738 158.998715 
L 195.104211 158.998715 
L 195.188338 157.321169 
L 195.24137 157.321169 
L 195.24137 156.761987 
L 195.685668 156.761987 
L 195.701142 155.643622 
L 195.798818 155.643622 
L 195.798818 155.08444 
L 196.031003 155.08444 
L 196.031003 154.525258 
L 196.240122 154.525258 
L 196.336782 151.729346 
L 196.383422 151.729346 
L 196.383422 151.170164 
L 196.793723 151.170164 
L 196.852648 148.374253 
L 197.069221 148.374253 
L 197.069221 147.815071 
L 197.443183 147.815071 
L 197.478555 146.137524 
L 197.581465 146.137524 
L 197.581465 145.578342 
L 197.744301 145.578342 
L 197.791849 143.900795 
L 197.966279 143.900795 
L 197.966279 143.341613 
L 198.215747 143.341613 
L 198.311695 141.664066 
L 198.422962 141.664066 
L 198.422962 141.104884 
L 198.59114 141.104884 
L 198.59114 139.986519 
L 198.747329 139.986519 
L 198.846378 138.308973 
L 199.071627 138.308973 
L 199.163775 136.631426 
L 199.191575 136.631426 
L 199.191575 136.072244 
L 199.349104 136.072244 
L 199.40074 134.953879 
L 199.519249 134.953879 
L 199.519249 133.835515 
L 199.717962 133.835515 
L 199.753846 129.921239 
L 199.87481 129.921239 
L 199.87481 128.802874 
L 200.192226 128.802874 
L 200.218415 127.125328 
L 200.322773 127.125328 
L 200.340892 124.888599 
L 200.521041 124.888599 
L 200.60266 121.533505 
L 200.708575 121.533505 
L 200.720902 119.855959 
L 200.871961 119.855959 
L 200.871961 119.296776 
L 201.114543 119.296776 
L 201.21362 117.060047 
L 201.414518 117.060047 
L 201.519977 114.264136 
L 201.580892 114.264136 
L 201.580892 113.145772 
L 201.787709 113.145772 
L 201.794946 112.027407 
L 201.956265 112.027407 
L 201.956265 111.468225 
L 202.068438 111.468225 
L 202.092634 108.113132 
L 202.304667 108.113132 
L 202.336949 105.31722 
L 202.56747 105.31722 
L 202.668176 101.402945 
L 202.748456 101.402945 
L 202.814048 99.166216 
L 202.871236 99.166216 
L 202.916037 98.047851 
L 203.151018 98.047851 
L 203.151018 97.488669 
L 203.304141 97.488669 
L 203.383493 96.370304 
L 203.459854 96.370304 
L 203.511665 95.25194 
L 203.631737 95.25194 
L 203.631737 94.692758 
L 203.75356 94.692758 
L 203.75356 94.133576 
L 204.05059 94.133576 
L 204.118996 91.337664 
L 204.176425 91.337664 
L 204.200978 90.2193 
L 204.425988 90.2193 
L 204.455148 87.982571 
L 204.706229 87.982571 
L 204.706229 87.423389 
L 204.827982 87.423389 
L 204.918735 85.745842 
L 205.00601 85.745842 
L 205.02761 84.627477 
L 205.226133 84.627477 
L 205.300066 80.15402 
L 205.544435 80.15402 
L 205.608323 76.798926 
L 205.742869 76.798926 
L 205.840377 74.562197 
L 205.886643 74.562197 
L 205.978803 71.766286 
L 206.007714 71.766286 
L 206.084575 70.088739 
L 206.178488 70.088739 
L 206.194183 68.411192 
L 206.322574 68.411192 
L 206.386412 67.292828 
L 206.441732 67.292828 
L 206.469325 65.056099 
L 206.579805 65.056099 
L 206.649247 62.260188 
L 206.754785 62.260188 
L 206.842422 59.464277 
L 207.009956 59.464277 
L 207.009956 58.905094 
L 207.155222 58.905094 
L 207.174816 56.109183 
L 207.308727 56.109183 
L 207.35645 53.313272 
L 207.882508 53.313272 
L 207.97521 51.076543 
L 208.049316 51.076543 
L 208.140626 49.398996 
L 208.438753 49.398996 
L 208.545628 43.807174 
L 208.716808 43.807174 
L 208.753062 42.129627 
L 208.829187 42.129627 
L 208.88055 41.011263 
L 208.952297 41.011263 
L 209.004246 39.333716 
L 209.223178 39.333716 
L 209.323436 37.656169 
L 209.507432 37.656169 
L 209.607429 35.41944 
L 209.663395 35.41944 
L 209.689024 32.623529 
L 209.899465 32.623529 
L 209.919782 30.945982 
L 210.042077 30.945982 
L 210.097989 28.150071 
L 210.199506 28.150071 
L 210.284973 24.235795 
L 210.316308 24.235795 
L 210.370898 23.117431 
L 210.452021 23.117431 
L 210.452021 22.558249 
L 210.636948 22.558249 
L 210.689669 19.203155 
L 211.184709 19.203155 
L 211.184709 18.084791 
L 211.325829 18.084791 
L 211.325829 16.966426 
L 211.530432 16.966426 
L 211.636117 14.170515 
L 255.106762 14.170515 
L 255.208947 13.052151 
L 255.25881 13.052151 
L 255.272038 11.933786 
L 255.460572 11.933786 
L 255.541408 10.256239 
L 266.766542 10.256239 
L 266.766542 9.697057 
L 333.429677 9.697057 
L 333.429677 9.697057 
" style="fill:none;stroke:#6495ed;stroke-linecap:square;stroke-width:1.5;"/>
   </g>
   <g id="line2d_40">
    <defs>
     <path d="M -0 6 
L 6 -6 
L -6 -6 
z
" id="mf497354124" style="stroke:#6495ed;stroke-linejoin:miter;stroke-width:1.5;"/>
    </defs>
    <g>
     <use style="fill-opacity:0;stroke:#6495ed;stroke-linejoin:miter;stroke-width:1.5;" x="73.834464" xlink:href="#mf497354124" y="270.275981"/>
     <use style="fill-opacity:0;stroke:#6495ed;stroke-linejoin:miter;stroke-width:1.5;" x="161.113703" xlink:href="#mf497354124" y="243.435234"/>
     <use style="fill-opacity:0;stroke:#6495ed;stroke-linejoin:miter;stroke-width:1.5;" x="201.114543" xlink:href="#mf497354124" y="118.737594"/>
     <use style="fill-opacity:0;stroke:#6495ed;stroke-linejoin:miter;stroke-width:1.5;" x="266.766542" xlink:href="#mf497354124" y="10.256239"/>
     <use style="fill-opacity:0;stroke:#6495ed;stroke-linejoin:miter;stroke-width:1.5;" x="266.766542" xlink:href="#mf497354124" y="9.697057"/>
     <use style="fill-opacity:0;stroke:#6495ed;stroke-linejoin:miter;stroke-width:1.5;" x="333.429677" xlink:href="#mf497354124" y="9.697057"/>
    </g>
   </g>
   <g id="line2d_41">
    <path style="fill:none;stroke:#6495ed;stroke-linecap:square;stroke-width:1.5;"/>
    <g/>
   </g>
   <g id="line2d_42">
    <path clip-path="url(#p55aac651db)" d="M 254.198358 14.170515 
" style="fill:none;stroke:#6495ed;stroke-linecap:square;stroke-width:1.5;"/>
    <defs>
     <path d="M -12 12 
L 12 -12 
M -12 -12 
L 12 12 
" id="m3c38a321f5" style="stroke:#6495ed;stroke-width:3;"/>
    </defs>
    <g clip-path="url(#p55aac651db)">
     <use style="fill:#6495ed;stroke:#6495ed;stroke-width:3;" x="254.198358" xlink:href="#m3c38a321f5" y="14.170515"/>
    </g>
   </g>
   <g id="line2d_43">
    <defs>
     <path d="M 0 1.5 
C 0.397805 1.5 0.77937 1.341951 1.06066 1.06066 
C 1.341951 0.77937 1.5 0.397805 1.5 0 
C 1.5 -0.397805 1.341951 -0.77937 1.06066 -1.06066 
C 0.77937 -1.341951 0.397805 -1.5 0 -1.5 
C -0.397805 -1.5 -0.77937 -1.341951 -1.06066 -1.06066 
C -1.341951 -0.77937 -1.5 -0.397805 -1.5 0 
C -1.5 0.397805 -1.341951 0.77937 -1.06066 1.06066 
C -0.77937 1.341951 -0.397805 1.5 0 1.5 
z
" id="md8e0f7e700" style="stroke:#ff0000;"/>
    </defs>
    <g>
     <use style="fill:#ff0000;stroke:#ff0000;" x="326.804955" xlink:href="#md8e0f7e700" y="9.697057"/>
     <use style="fill:#ff0000;stroke:#ff0000;" x="326.804955" xlink:href="#md8e0f7e700" y="9.697057"/>
    </g>
   </g>
   <g id="line2d_44">
    <path d="M 131.937015 294.88 
L 131.937015 293.761636 
L 140.867787 293.761636 
L 140.89274 292.084089 
L 146.964332 292.084089 
L 146.964332 291.524907 
L 147.173301 291.524907 
L 147.173301 290.965724 
L 156.58744 290.965724 
L 156.597452 289.84736 
L 157.236016 289.84736 
L 157.236016 289.288178 
L 159.167901 289.288178 
L 159.167901 288.728995 
L 159.885402 288.728995 
L 159.885402 287.610631 
L 161.28223 287.610631 
L 161.28223 287.051449 
L 161.66667 287.051449 
L 161.66667 286.492266 
L 165.795585 286.492266 
L 165.795585 285.933084 
L 165.953188 285.933084 
L 165.993814 283.696355 
L 167.251018 283.696355 
L 167.251018 282.577991 
L 167.79725 282.577991 
L 167.79725 281.459626 
L 170.577177 281.459626 
L 170.577177 280.900444 
L 177.481945 280.900444 
L 177.481945 280.341262 
L 179.398696 280.341262 
L 179.398696 279.782079 
L 181.72598 279.782079 
L 181.72598 279.222897 
L 181.869413 279.222897 
L 181.878626 278.104533 
L 183.230935 278.104533 
L 183.230935 276.426986 
L 183.752938 276.426986 
L 183.752938 275.867804 
L 184.456927 275.867804 
L 184.456927 275.308622 
L 184.755603 275.308622 
L 184.831408 274.190257 
L 185.412999 274.190257 
L 185.412999 273.631075 
L 185.732511 273.631075 
L 185.732511 273.071893 
L 186.771651 273.071893 
L 186.771651 272.51271 
L 187.751589 272.51271 
L 187.798987 271.394346 
L 188.319851 271.394346 
L 188.319851 270.275981 
L 188.703502 270.275981 
L 188.703502 269.716799 
L 189.238648 269.716799 
L 189.238648 269.157617 
L 189.443089 269.157617 
L 189.509714 266.920888 
L 189.702212 266.920888 
L 189.702212 266.361706 
L 189.852067 266.361706 
L 189.95749 263.565795 
L 190.241639 263.565795 
L 190.241639 262.44743 
L 190.417754 262.44743 
L 190.417754 261.329066 
L 190.58098 261.329066 
L 190.58098 260.210701 
L 190.80857 260.210701 
L 190.80857 259.092337 
L 191.234873 259.092337 
L 191.248235 257.973972 
L 191.646954 257.973972 
L 191.67955 255.737243 
L 192.316319 255.737243 
L 192.316319 254.618879 
L 192.427678 254.618879 
L 192.427678 254.059696 
L 192.672864 254.059696 
L 192.672864 253.500514 
L 192.904904 253.500514 
L 192.904904 252.941332 
L 193.442301 252.941332 
L 193.442301 252.38215 
L 193.56298 252.38215 
L 193.56298 251.822967 
L 194.227166 251.822967 
L 194.227166 250.704603 
L 194.356981 250.704603 
L 194.371468 249.027056 
L 194.690423 249.027056 
L 194.690423 248.467874 
L 194.950878 248.467874 
L 194.950878 247.908692 
L 195.481149 247.908692 
L 195.511409 246.231145 
L 195.957004 246.231145 
L 195.957004 245.112781 
L 196.330819 245.112781 
L 196.330819 243.994416 
L 196.491104 243.994416 
L 196.491104 242.316869 
L 196.664541 242.316869 
L 196.664541 240.639323 
L 197.141443 240.639323 
L 197.205806 239.520958 
L 198.074407 239.520958 
L 198.074407 238.402594 
L 198.632929 238.402594 
L 198.632929 237.284229 
L 199.508509 237.284229 
L 199.508509 236.725047 
L 199.768504 236.725047 
L 199.768504 235.0475 
L 199.931347 235.0475 
L 200.010187 233.929136 
L 200.117408 233.929136 
L 200.117408 233.369954 
L 200.554513 233.369954 
L 200.633652 232.251589 
L 201.45368 232.251589 
L 201.466222 230.574042 
L 202.00351 230.574042 
L 202.00351 230.01486 
L 202.140215 230.01486 
L 202.140215 228.896496 
L 202.856276 228.896496 
L 202.856276 228.337313 
L 203.577678 228.337313 
L 203.577678 227.778131 
L 204.667085 227.778131 
L 204.667085 227.218949 
L 204.882491 227.218949 
L 204.882491 224.98222 
L 205.589762 224.98222 
L 205.589762 224.423038 
L 206.06031 224.423038 
L 206.06031 223.863855 
L 206.732534 223.863855 
L 206.766171 222.186309 
L 254.619531 222.186309 
L 254.721339 219.94958 
L 254.731417 219.94958 
L 254.812125 217.712851 
L 254.845131 217.712851 
L 254.94354 212.680211 
L 254.958099 212.680211 
L 255.047319 209.325117 
L 255.082754 209.325117 
L 255.189371 205.970024 
L 255.255381 205.970024 
L 255.255381 205.410841 
L 266.392456 205.410841 
L 266.488752 198.700655 
L 266.520608 198.700655 
L 266.626553 193.668014 
L 266.64676 193.668014 
L 266.647945 191.990468 
L 273.259453 191.990468 
L 273.351742 186.398645 
L 273.371015 186.398645 
L 273.465269 179.688458 
L 278.169219 179.688458 
L 278.277345 174.096636 
L 278.292399 174.096636 
L 278.320298 167.945631 
L 282.001721 167.945631 
L 282.096934 157.321169 
L 285.11969 157.321169 
L 285.209027 147.255888 
L 287.759848 147.255888 
L 287.826604 138.868155 
L 290.045708 138.868155 
L 290.101928 130.480421 
L 292.069759 130.480421 
L 292.117409 124.329417 
L 293.870719 124.329417 
L 293.920128 114.264136 
L 295.509847 114.264136 
L 295.554261 105.876403 
L 296.998939 105.876403 
L 297.035653 101.962127 
L 298.371595 101.962127 
L 298.411624 94.692758 
L 299.6435 94.692758 
L 299.68068 86.864206 
L 300.829658 86.864206 
L 300.857879 82.390748 
L 301.93891 82.390748 
L 301.96851 75.121379 
L 302.979684 75.121379 
L 303.004974 71.207104 
L 303.968521 71.207104 
L 303.988264 68.970375 
L 304.887428 68.970375 
L 304.912961 64.496917 
L 305.768404 64.496917 
L 305.793953 61.701006 
L 306.605979 61.701006 
L 306.625516 59.464277 
L 307.40558 59.464277 
L 307.429621 56.668365 
L 308.170497 56.668365 
L 308.18663 52.194907 
L 308.901146 52.194907 
L 308.922455 47.72145 
L 309.604997 47.72145 
L 309.619446 44.366356 
L 310.933133 44.366356 
L 310.943119 43.247992 
L 311.557114 43.247992 
L 311.567381 41.570445 
L 312.152756 41.570445 
L 312.168809 39.892898 
L 312.736066 39.892898 
L 312.749477 37.096987 
L 313.845158 37.096987 
L 313.860471 34.301076 
L 314.373341 34.301076 
L 314.388846 32.064347 
L 314.886427 32.064347 
L 314.895897 29.827618 
L 315.386466 29.827618 
L 315.396767 27.590889 
L 315.877802 27.590889 
L 315.877802 27.031707 
L 316.799975 27.031707 
L 316.799975 26.472524 
L 317.248955 26.472524 
L 317.248955 25.913342 
L 317.681598 25.913342 
L 317.691561 24.235795 
L 318.528737 24.235795 
L 318.528737 23.676613 
L 318.922738 23.676613 
L 318.926998 22.558249 
L 319.320301 22.558249 
L 319.32895 20.32152 
L 319.7066 20.32152 
L 319.714131 19.203155 
L 320.458138 19.203155 
L 320.458138 18.643973 
L 321.859348 18.643973 
L 321.864078 15.848062 
L 322.190651 15.848062 
L 322.195705 14.729697 
L 322.521057 14.729697 
L 322.521057 14.170515 
L 323.16178 14.170515 
L 323.16178 13.611333 
L 323.471251 13.611333 
L 323.471251 13.052151 
L 323.773153 13.052151 
L 323.773153 12.492968 
L 324.370614 12.492968 
L 324.370614 11.933786 
L 324.942109 11.933786 
L 324.942109 11.374604 
L 326.549354 11.374604 
L 326.5515 10.256239 
L 326.804955 10.256239 
L 326.804955 9.697057 
L 333.429677 9.697057 
L 333.429677 9.697057 
" style="fill:none;stroke:#ff0000;stroke-linecap:square;stroke-width:1.5;"/>
   </g>
   <g id="line2d_45">
    <defs>
     <path d="M 0 -6 
L -5.196152 -3 
L -5.196152 3 
L -0 6 
L 5.196152 3 
L 5.196152 -3 
z
" id="m9c289eda3a" style="stroke:#ff0000;stroke-linejoin:miter;stroke-width:1.5;"/>
    </defs>
    <g>
     <use style="fill-opacity:0;stroke:#ff0000;stroke-linejoin:miter;stroke-width:1.5;" x="204.882491" xlink:href="#m9c289eda3a" y="227.218949"/>
     <use style="fill-opacity:0;stroke:#ff0000;stroke-linejoin:miter;stroke-width:1.5;" x="282.096934" xlink:href="#m9c289eda3a" y="157.321169"/>
     <use style="fill-opacity:0;stroke:#ff0000;stroke-linejoin:miter;stroke-width:1.5;" x="320.458138" xlink:href="#m9c289eda3a" y="19.203155"/>
     <use style="fill-opacity:0;stroke:#ff0000;stroke-linejoin:miter;stroke-width:1.5;" x="326.804955" xlink:href="#m9c289eda3a" y="9.697057"/>
     <use style="fill-opacity:0;stroke:#ff0000;stroke-linejoin:miter;stroke-width:1.5;" x="333.429677" xlink:href="#m9c289eda3a" y="9.697057"/>
    </g>
   </g>
   <g id="line2d_46">
    <path style="fill:none;stroke:#ff0000;stroke-linecap:square;stroke-width:1.5;"/>
    <g/>
   </g>
   <g id="line2d_47">
    <path clip-path="url(#p55aac651db)" d="M 254.198358 222.186309 
" style="fill:none;stroke:#ff0000;stroke-linecap:square;stroke-width:1.5;"/>
    <defs>
     <path d="M -12 12 
L 12 -12 
M -12 -12 
L 12 12 
" id="m49b5a61928" style="stroke:#ff0000;stroke-width:3;"/>
    </defs>
    <g clip-path="url(#p55aac651db)">
     <use style="fill:#ff0000;stroke:#ff0000;stroke-width:3;" x="254.198358" xlink:href="#m49b5a61928" y="222.186309"/>
    </g>
   </g>
   <g id="line2d_48">
    <path d="M 333.429677 194.227197 
L 363.933742 289.176341 
" style="fill:none;stroke:#ff00ff;stroke-linecap:square;stroke-width:1.5;"/>
    <g>
     <use style="fill-opacity:0;stroke:#ff00ff;stroke-linejoin:miter;stroke-width:1.5;" x="333.429677" xlink:href="#mf4d8411ea7" y="194.227197"/>
     <use style="fill-opacity:0;stroke:#ff00ff;stroke-linejoin:miter;stroke-width:1.5;" x="363.933742" xlink:href="#mf4d8411ea7" y="289.176341"/>
    </g>
   </g>
   <g id="line2d_49">
    <path d="M 333.429677 65.615281 
L 363.933742 220.732435 
" style="fill:none;stroke:#ffa500;stroke-linecap:square;stroke-width:1.5;"/>
    <g>
     <use style="fill-opacity:0;stroke:#ffa500;stroke-linejoin:bevel;stroke-width:1.5;" x="333.429677" xlink:href="#m0089c01bf8" y="65.615281"/>
     <use style="fill-opacity:0;stroke:#ffa500;stroke-linejoin:bevel;stroke-width:1.5;" x="363.933742" xlink:href="#m0089c01bf8" y="220.732435"/>
    </g>
   </g>
   <g id="line2d_50">
    <path d="M 333.429677 9.697057 
L 363.933742 152.288529 
" style="fill:none;stroke:#ff0000;stroke-linecap:square;stroke-width:1.5;"/>
    <g>
     <use style="fill-opacity:0;stroke:#ff0000;stroke-linejoin:miter;stroke-width:1.5;" x="333.429677" xlink:href="#m9c289eda3a" y="9.697057"/>
     <use style="fill-opacity:0;stroke:#ff0000;stroke-linejoin:miter;stroke-width:1.5;" x="363.933742" xlink:href="#m9c289eda3a" y="152.288529"/>
    </g>
   </g>
   <g id="line2d_51">
    <path d="M 333.429677 9.697057 
L 363.933742 83.844622 
" style="fill:none;stroke:#000080;stroke-linecap:square;stroke-width:1.5;"/>
    <g>
     <use style="fill-opacity:0;stroke:#000080;stroke-width:1.5;" x="333.429677" xlink:href="#mfc772ab74a" y="9.697057"/>
     <use style="fill-opacity:0;stroke:#000080;stroke-width:1.5;" x="363.933742" xlink:href="#mfc772ab74a" y="83.844622"/>
    </g>
   </g>
   <g id="line2d_52">
    <path d="M 333.429677 9.697057 
L 363.933742 15.400716 
" style="fill:none;stroke:#6495ed;stroke-linecap:square;stroke-width:1.5;"/>
    <g>
     <use style="fill-opacity:0;stroke:#6495ed;stroke-linejoin:miter;stroke-width:1.5;" x="333.429677" xlink:href="#mf497354124" y="9.697057"/>
     <use style="fill-opacity:0;stroke:#6495ed;stroke-linejoin:miter;stroke-width:1.5;" x="363.933742" xlink:href="#mf497354124" y="15.400716"/>
    </g>
   </g>
   <g id="line2d_53">
    <path d="M 333.429677 294.88 
L 333.429677 9.697057 
" style="fill:none;stroke:#000000;stroke-linecap:square;stroke-width:1.5;"/>
   </g>
   <g id="patch_3">
    <path d="M 56.12 294.88 
L 56.12 6.845228 
" style="fill:none;stroke:#000000;stroke-linecap:square;stroke-linejoin:miter;stroke-width:0.8;"/>
   </g>
   <g id="patch_4">
    <path d="M 399.984 294.88 
L 399.984 6.845228 
" style="fill:none;stroke:#000000;stroke-linecap:square;stroke-linejoin:miter;stroke-width:0.8;"/>
   </g>
   <g id="patch_5">
    <path d="M 56.12 294.88 
L 399.984 294.88 
" style="fill:none;stroke:#000000;stroke-linecap:square;stroke-linejoin:miter;stroke-width:0.8;"/>
   </g>
   <g id="patch_6">
    <path d="M 56.12 6.845228 
L 399.984 6.845228 
" style="fill:none;stroke:#000000;stroke-linecap:square;stroke-linejoin:miter;stroke-width:0.8;"/>
   </g>
   <g id="text_14">
    <!-- f19 -->
    <defs>
     <path d="M 10.984375 1.515625 
L 10.984375 10.5 
Q 14.703125 8.734375 18.5 7.8125 
Q 22.3125 6.890625 25.984375 6.890625 
Q 35.75 6.890625 40.890625 13.453125 
Q 46.046875 20.015625 46.78125 33.40625 
Q 43.953125 29.203125 39.59375 26.953125 
Q 35.25 24.703125 29.984375 24.703125 
Q 19.046875 24.703125 12.671875 31.3125 
Q 6.296875 37.9375 6.296875 49.421875 
Q 6.296875 60.640625 12.9375 67.421875 
Q 19.578125 74.21875 30.609375 74.21875 
Q 43.265625 74.21875 49.921875 64.515625 
Q 56.59375 54.828125 56.59375 36.375 
Q 56.59375 19.140625 48.40625 8.859375 
Q 40.234375 -1.421875 26.421875 -1.421875 
Q 22.703125 -1.421875 18.890625 -0.6875 
Q 15.09375 0.046875 10.984375 1.515625 
z
M 30.609375 32.421875 
Q 37.25 32.421875 41.125 36.953125 
Q 45.015625 41.5 45.015625 49.421875 
Q 45.015625 57.28125 41.125 61.84375 
Q 37.25 66.40625 30.609375 66.40625 
Q 23.96875 66.40625 20.09375 61.84375 
Q 16.21875 57.28125 16.21875 49.421875 
Q 16.21875 41.5 20.09375 36.953125 
Q 23.96875 32.421875 30.609375 32.421875 
z
" id="DejaVuSans-39"/>
    </defs>
    <g transform="translate(369.479935 293.867279)scale(0.17 -0.17)">
     <use xlink:href="#DejaVuSans-66"/>
     <use x="35.205078" xlink:href="#DejaVuSans-31"/>
     <use x="98.828125" xlink:href="#DejaVuSans-39"/>
    </g>
   </g>
   <g id="text_15">
    <!-- f16 -->
    <g transform="translate(369.479935 225.423372)scale(0.17 -0.17)">
     <use xlink:href="#DejaVuSans-66"/>
     <use x="35.205078" xlink:href="#DejaVuSans-31"/>
     <use x="98.828125" xlink:href="#DejaVuSans-36"/>
    </g>
   </g>
   <g id="text_16">
    <!-- f15 -->
    <defs>
     <path d="M 10.796875 72.90625 
L 49.515625 72.90625 
L 49.515625 64.59375 
L 19.828125 64.59375 
L 19.828125 46.734375 
Q 21.96875 47.46875 24.109375 47.828125 
Q 26.265625 48.1875 28.421875 48.1875 
Q 40.625 48.1875 47.75 41.5 
Q 54.890625 34.8125 54.890625 23.390625 
Q 54.890625 11.625 47.5625 5.09375 
Q 40.234375 -1.421875 26.90625 -1.421875 
Q 22.3125 -1.421875 17.546875 -0.640625 
Q 12.796875 0.140625 7.71875 1.703125 
L 7.71875 11.625 
Q 12.109375 9.234375 16.796875 8.0625 
Q 21.484375 6.890625 26.703125 6.890625 
Q 35.15625 6.890625 40.078125 11.328125 
Q 45.015625 15.765625 45.015625 23.390625 
Q 45.015625 31 40.078125 35.4375 
Q 35.15625 39.890625 26.703125 39.890625 
Q 22.75 39.890625 18.8125 39.015625 
Q 14.890625 38.140625 10.796875 36.28125 
z
" id="DejaVuSans-35"/>
    </defs>
    <g transform="translate(369.479935 156.979466)scale(0.17 -0.17)">
     <use xlink:href="#DejaVuSans-66"/>
     <use x="35.205078" xlink:href="#DejaVuSans-31"/>
     <use x="98.828125" xlink:href="#DejaVuSans-35"/>
    </g>
   </g>
   <g id="text_17">
    <!-- f18 -->
    <g transform="translate(369.479935 88.53556)scale(0.17 -0.17)">
     <use xlink:href="#DejaVuSans-66"/>
     <use x="35.205078" xlink:href="#DejaVuSans-31"/>
     <use x="98.828125" xlink:href="#DejaVuSans-38"/>
    </g>
   </g>
   <g id="text_18">
    <!-- f17 -->
    <defs>
     <path d="M 8.203125 72.90625 
L 55.078125 72.90625 
L 55.078125 68.703125 
L 28.609375 0 
L 18.3125 0 
L 43.21875 64.59375 
L 8.203125 64.59375 
z
" id="DejaVuSans-37"/>
    </defs>
    <g transform="translate(369.479935 20.091654)scale(0.17 -0.17)">
     <use xlink:href="#DejaVuSans-66"/>
     <use x="35.205078" xlink:href="#DejaVuSans-31"/>
     <use x="98.828125" xlink:href="#DejaVuSans-37"/>
    </g>
   </g>
   <g id="text_19">
    <!-- bbob -->
    <defs>
     <path d="M 48.6875 27.296875 
Q 48.6875 37.203125 44.609375 42.84375 
Q 40.53125 48.484375 33.40625 48.484375 
Q 26.265625 48.484375 22.1875 42.84375 
Q 18.109375 37.203125 18.109375 27.296875 
Q 18.109375 17.390625 22.1875 11.75 
Q 26.265625 6.109375 33.40625 6.109375 
Q 40.53125 6.109375 44.609375 11.75 
Q 48.6875 17.390625 48.6875 27.296875 
z
M 18.109375 46.390625 
Q 20.953125 51.265625 25.265625 53.625 
Q 29.59375 56 35.59375 56 
Q 45.5625 56 51.78125 48.09375 
Q 58.015625 40.1875 58.015625 27.296875 
Q 58.015625 14.40625 51.78125 6.484375 
Q 45.5625 -1.421875 35.59375 -1.421875 
Q 29.59375 -1.421875 25.265625 0.953125 
Q 20.953125 3.328125 18.109375 8.203125 
L 18.109375 0 
L 9.078125 0 
L 9.078125 75.984375 
L 18.109375 75.984375 
z
" id="DejaVuSans-62"/>
    </defs>
    <g transform="translate(59.55864 17.475982)scale(0.102 -0.102)">
     <use xlink:href="#DejaVuSans-62"/>
     <use x="63.476562" xlink:href="#DejaVuSans-62"/>
     <use x="126.953125" xlink:href="#DejaVuSans-6f"/>
     <use x="188.134766" xlink:href="#DejaVuSans-62"/>
    </g>
    <!-- Multi-modal functions, 10-D -->
    <defs>
     <path d="M 9.8125 72.90625 
L 24.515625 72.90625 
L 43.109375 23.296875 
L 61.8125 72.90625 
L 76.515625 72.90625 
L 76.515625 0 
L 66.890625 0 
L 66.890625 64.015625 
L 48.09375 14.015625 
L 38.1875 14.015625 
L 19.390625 64.015625 
L 19.390625 0 
L 9.8125 0 
z
" id="DejaVuSans-4d"/>
     <path d="M 19.671875 64.796875 
L 19.671875 8.109375 
L 31.59375 8.109375 
Q 46.6875 8.109375 53.6875 14.9375 
Q 60.6875 21.78125 60.6875 36.53125 
Q 60.6875 51.171875 53.6875 57.984375 
Q 46.6875 64.796875 31.59375 64.796875 
z
M 9.8125 72.90625 
L 30.078125 72.90625 
Q 51.265625 72.90625 61.171875 64.09375 
Q 71.09375 55.28125 71.09375 36.53125 
Q 71.09375 17.671875 61.125 8.828125 
Q 51.171875 0 30.078125 0 
L 9.8125 0 
z
" id="DejaVuSans-44"/>
    </defs>
    <g transform="translate(59.55864 28.89775)scale(0.102 -0.102)">
     <use xlink:href="#DejaVuSans-4d"/>
     <use x="86.279297" xlink:href="#DejaVuSans-75"/>
     <use x="149.658203" xlink:href="#DejaVuSans-6c"/>
     <use x="177.441406" xlink:href="#DejaVuSans-74"/>
     <use x="216.650391" xlink:href="#DejaVuSans-69"/>
     <use x="244.433594" xlink:href="#DejaVuSans-2d"/>
     <use x="280.517578" xlink:href="#DejaVuSans-6d"/>
     <use x="377.929688" xlink:href="#DejaVuSans-6f"/>
     <use x="439.111328" xlink:href="#DejaVuSans-64"/>
     <use x="502.587891" xlink:href="#DejaVuSans-61"/>
     <use x="563.867188" xlink:href="#DejaVuSans-6c"/>
     <use x="591.650391" xlink:href="#DejaVuSans-20"/>
     <use x="623.4375" xlink:href="#DejaVuSans-66"/>
     <use x="658.642578" xlink:href="#DejaVuSans-75"/>
     <use x="722.021484" xlink:href="#DejaVuSans-6e"/>
     <use x="785.400391" xlink:href="#DejaVuSans-63"/>
     <use x="840.380859" xlink:href="#DejaVuSans-74"/>
     <use x="879.589844" xlink:href="#DejaVuSans-69"/>
     <use x="907.373047" xlink:href="#DejaVuSans-6f"/>
     <use x="968.554688" xlink:href="#DejaVuSans-6e"/>
     <use x="1031.933594" xlink:href="#DejaVuSans-73"/>
     <use x="1084.033203" xlink:href="#DejaVuSans-2c"/>
     <use x="1115.820312" xlink:href="#DejaVuSans-20"/>
     <use x="1147.607422" xlink:href="#DejaVuSans-31"/>
     <use x="1211.230469" xlink:href="#DejaVuSans-30"/>
     <use x="1274.853516" xlink:href="#DejaVuSans-2d"/>
     <use x="1310.9375" xlink:href="#DejaVuSans-44"/>
    </g>
    <!-- 51 targets: 100..1e-08 -->
    <defs>
     <path d="M 11.71875 12.40625 
L 22.015625 12.40625 
L 22.015625 0 
L 11.71875 0 
z
M 11.71875 51.703125 
L 22.015625 51.703125 
L 22.015625 39.3125 
L 11.71875 39.3125 
z
" id="DejaVuSans-3a"/>
    </defs>
    <g transform="translate(59.55864 40.319519)scale(0.102 -0.102)">
     <use xlink:href="#DejaVuSans-35"/>
     <use x="63.623047" xlink:href="#DejaVuSans-31"/>
     <use x="127.246094" xlink:href="#DejaVuSans-20"/>
     <use x="159.033203" xlink:href="#DejaVuSans-74"/>
     <use x="198.242188" xlink:href="#DejaVuSans-61"/>
     <use x="259.521484" xlink:href="#DejaVuSans-72"/>
     <use x="300.619141" xlink:href="#DejaVuSans-67"/>
     <use x="364.095703" xlink:href="#DejaVuSans-65"/>
     <use x="425.619141" xlink:href="#DejaVuSans-74"/>
     <use x="464.828125" xlink:href="#DejaVuSans-73"/>
     <use x="516.927734" xlink:href="#DejaVuSans-3a"/>
     <use x="550.619141" xlink:href="#DejaVuSans-20"/>
     <use x="582.40625" xlink:href="#DejaVuSans-31"/>
     <use x="646.029297" xlink:href="#DejaVuSans-30"/>
     <use x="709.652344" xlink:href="#DejaVuSans-30"/>
     <use x="773.275391" xlink:href="#DejaVuSans-2e"/>
     <use x="805.0625" xlink:href="#DejaVuSans-2e"/>
     <use x="836.849609" xlink:href="#DejaVuSans-31"/>
     <use x="900.472656" xlink:href="#DejaVuSans-65"/>
     <use x="961.996094" xlink:href="#DejaVuSans-2d"/>
     <use x="998.080078" xlink:href="#DejaVuSans-30"/>
     <use x="1061.703125" xlink:href="#DejaVuSans-38"/>
    </g>
    <!-- 15 instances -->
    <g transform="translate(59.55864 51.741288)scale(0.102 -0.102)">
     <use xlink:href="#DejaVuSans-31"/>
     <use x="63.623047" xlink:href="#DejaVuSans-35"/>
     <use x="127.246094" xlink:href="#DejaVuSans-20"/>
     <use x="159.033203" xlink:href="#DejaVuSans-69"/>
     <use x="186.816406" xlink:href="#DejaVuSans-6e"/>
     <use x="250.195312" xlink:href="#DejaVuSans-73"/>
     <use x="302.294922" xlink:href="#DejaVuSans-74"/>
     <use x="341.503906" xlink:href="#DejaVuSans-61"/>
     <use x="402.783203" xlink:href="#DejaVuSans-6e"/>
     <use x="466.162109" xlink:href="#DejaVuSans-63"/>
     <use x="521.142578" xlink:href="#DejaVuSans-65"/>
     <use x="582.666016" xlink:href="#DejaVuSans-73"/>
    </g>
   </g>
   <g id="text_20">
    <!-- v0.0.0 -->
    <g style="fill:#808080;" transform="translate(212.37075 289.919965)scale(0.1 -0.1)">
     <use xlink:href="#DejaVuSans-76"/>
     <use x="59.179688" xlink:href="#DejaVuSans-30"/>
     <use x="122.802734" xlink:href="#DejaVuSans-2e"/>
     <use x="154.589844" xlink:href="#DejaVuSans-30"/>
     <use x="218.212891" xlink:href="#DejaVuSans-2e"/>
     <use x="250" xlink:href="#DejaVuSans-30"/>
    </g>
   </g>
  </g>
 </g>
 <defs>
  <clipPath id="p55aac651db">
   <rect height="288.034772" width="343.864" x="56.12" y="6.845228"/>
  </clipPath>
 </defs>
</svg>
