<?xml version="1.0" encoding="utf-8" standalone="no"?>
<!DOCTYPE svg PUBLIC "-//W3C//DTD SVG 1.1//EN"
  "http://www.w3.org/Graphics/SVG/1.1/DTD/svg11.dtd">
<!-- Created with matplotlib (http://matplotlib.org/) -->
<svg height="345.6pt" version="1.1" viewBox="0 0 460.8 345.6" width="460.8pt" xmlns="http://www.w3.org/2000/svg" xmlns:xlink="http://www.w3.org/1999/xlink">
 <defs>
  <style type="text/css">
*{stroke-linecap:butt;stroke-linejoin:round;}
  </style>
 </defs>
 <g id="figure_1">
  <g id="patch_1">
   <path d="M 0 345.6 
L 460.8 345.6 
L 460.8 0 
L 0 0 
z
" style="fill:#ffffff;"/>
  </g>
  <g id="axes_1">
   <g id="patch_2">
    <path d="M 56.12 294.88 
L 399.984 294.88 
L 399.984 6.845228 
L 56.12 6.845228 
z
" style="fill:#ffffff;"/>
   </g>
   <g id="matplotlib.axis_1">
    <g id="xtick_1">
     <g id="line2d_1">
      <path clip-path="url(#p3d5c6c03fa)" d="M 56.12 294.88 
L 56.12 6.845228 
" style="fill:none;stroke:#b0b0b0;stroke-linecap:square;stroke-width:0.8;"/>
     </g>
     <g id="line2d_2">
      <defs>
       <path d="M 0 0 
L 0 3.5 
" id="mf942ad2086" style="stroke:#000000;stroke-width:0.8;"/>
      </defs>
      <g>
       <use style="stroke:#000000;stroke-width:0.8;" x="56.12" xlink:href="#mf942ad2086" y="294.88"/>
      </g>
     </g>
     <g id="text_1">
      <!-- 0 -->
      <defs>
       <path d="M 31.78125 66.40625 
Q 24.171875 66.40625 20.328125 58.90625 
Q 16.5 51.421875 16.5 36.375 
Q 16.5 21.390625 20.328125 13.890625 
Q 24.171875 6.390625 31.78125 6.390625 
Q 39.453125 6.390625 43.28125 13.890625 
Q 47.125 21.390625 47.125 36.375 
Q 47.125 51.421875 43.28125 58.90625 
Q 39.453125 66.40625 31.78125 66.40625 
z
M 31.78125 74.21875 
Q 44.046875 74.21875 50.515625 64.515625 
Q 56.984375 54.828125 56.984375 36.375 
Q 56.984375 17.96875 50.515625 8.265625 
Q 44.046875 -1.421875 31.78125 -1.421875 
Q 19.53125 -1.421875 13.0625 8.265625 
Q 6.59375 17.96875 6.59375 36.375 
Q 6.59375 54.828125 13.0625 64.515625 
Q 19.53125 74.21875 31.78125 74.21875 
z
" id="DejaVuSans-30"/>
      </defs>
      <g transform="translate(49.7575 317.076875)scale(0.2 -0.2)">
       <use xlink:href="#DejaVuSans-30"/>
      </g>
     </g>
    </g>
    <g id="xtick_2">
     <g id="line2d_3">
      <path clip-path="url(#p3d5c6c03fa)" d="M 135.351336 294.88 
L 135.351336 6.845228 
" style="fill:none;stroke:#b0b0b0;stroke-linecap:square;stroke-width:0.8;"/>
     </g>
     <g id="line2d_4">
      <g>
       <use style="stroke:#000000;stroke-width:0.8;" x="135.351336" xlink:href="#mf942ad2086" y="294.88"/>
      </g>
     </g>
     <g id="text_2">
      <!-- 2 -->
      <defs>
       <path d="M 19.1875 8.296875 
L 53.609375 8.296875 
L 53.609375 0 
L 7.328125 0 
L 7.328125 8.296875 
Q 12.9375 14.109375 22.625 23.890625 
Q 32.328125 33.6875 34.8125 36.53125 
Q 39.546875 41.84375 41.421875 45.53125 
Q 43.3125 49.21875 43.3125 52.78125 
Q 43.3125 58.59375 39.234375 62.25 
Q 35.15625 65.921875 28.609375 65.921875 
Q 23.96875 65.921875 18.8125 64.3125 
Q 13.671875 62.703125 7.8125 59.421875 
L 7.8125 69.390625 
Q 13.765625 71.78125 18.9375 73 
Q 24.125 74.21875 28.421875 74.21875 
Q 39.75 74.21875 46.484375 68.546875 
Q 53.21875 62.890625 53.21875 53.421875 
Q 53.21875 48.921875 51.53125 44.890625 
Q 49.859375 40.875 45.40625 35.40625 
Q 44.1875 33.984375 37.640625 27.21875 
Q 31.109375 20.453125 19.1875 8.296875 
z
" id="DejaVuSans-32"/>
      </defs>
      <g transform="translate(128.988836 317.076875)scale(0.2 -0.2)">
       <use xlink:href="#DejaVuSans-32"/>
      </g>
     </g>
    </g>
    <g id="xtick_3">
     <g id="line2d_5">
      <path clip-path="url(#p3d5c6c03fa)" d="M 214.582673 294.88 
L 214.582673 6.845228 
" style="fill:none;stroke:#b0b0b0;stroke-linecap:square;stroke-width:0.8;"/>
     </g>
     <g id="line2d_6">
      <g>
       <use style="stroke:#000000;stroke-width:0.8;" x="214.582673" xlink:href="#mf942ad2086" y="294.88"/>
      </g>
     </g>
     <g id="text_3">
      <!-- 4 -->
      <defs>
       <path d="M 37.796875 64.3125 
L 12.890625 25.390625 
L 37.796875 25.390625 
z
M 35.203125 72.90625 
L 47.609375 72.90625 
L 47.609375 25.390625 
L 58.015625 25.390625 
L 58.015625 17.1875 
L 47.609375 17.1875 
L 47.609375 0 
L 37.796875 0 
L 37.796875 17.1875 
L 4.890625 17.1875 
L 4.890625 26.703125 
z
" id="DejaVuSans-34"/>
      </defs>
      <g transform="translate(208.220173 317.076875)scale(0.2 -0.2)">
       <use xlink:href="#DejaVuSans-34"/>
      </g>
     </g>
    </g>
    <g id="xtick_4">
     <g id="line2d_7">
      <path clip-path="url(#p3d5c6c03fa)" d="M 293.814009 294.88 
L 293.814009 6.845228 
" style="fill:none;stroke:#b0b0b0;stroke-linecap:square;stroke-width:0.8;"/>
     </g>
     <g id="line2d_8">
      <g>
       <use style="stroke:#000000;stroke-width:0.8;" x="293.814009" xlink:href="#mf942ad2086" y="294.88"/>
      </g>
     </g>
     <g id="text_4">
      <!-- 6 -->
      <defs>
       <path d="M 33.015625 40.375 
Q 26.375 40.375 22.484375 35.828125 
Q 18.609375 31.296875 18.609375 23.390625 
Q 18.609375 15.53125 22.484375 10.953125 
Q 26.375 6.390625 33.015625 6.390625 
Q 39.65625 6.390625 43.53125 10.953125 
Q 47.40625 15.53125 47.40625 23.390625 
Q 47.40625 31.296875 43.53125 35.828125 
Q 39.65625 40.375 33.015625 40.375 
z
M 52.59375 71.296875 
L 52.59375 62.3125 
Q 48.875 64.0625 45.09375 64.984375 
Q 41.3125 65.921875 37.59375 65.921875 
Q 27.828125 65.921875 22.671875 59.328125 
Q 17.53125 52.734375 16.796875 39.40625 
Q 19.671875 43.65625 24.015625 45.921875 
Q 28.375 48.1875 33.59375 48.1875 
Q 44.578125 48.1875 50.953125 41.515625 
Q 57.328125 34.859375 57.328125 23.390625 
Q 57.328125 12.15625 50.6875 5.359375 
Q 44.046875 -1.421875 33.015625 -1.421875 
Q 20.359375 -1.421875 13.671875 8.265625 
Q 6.984375 17.96875 6.984375 36.375 
Q 6.984375 53.65625 15.1875 63.9375 
Q 23.390625 74.21875 37.203125 74.21875 
Q 40.921875 74.21875 44.703125 73.484375 
Q 48.484375 72.75 52.59375 71.296875 
z
" id="DejaVuSans-36"/>
      </defs>
      <g transform="translate(287.451509 317.076875)scale(0.2 -0.2)">
       <use xlink:href="#DejaVuSans-36"/>
      </g>
     </g>
    </g>
    <g id="xtick_5">
     <g id="line2d_9">
      <path clip-path="url(#p3d5c6c03fa)" d="M 373.045346 294.88 
L 373.045346 6.845228 
" style="fill:none;stroke:#b0b0b0;stroke-linecap:square;stroke-width:0.8;"/>
     </g>
     <g id="line2d_10">
      <g>
       <use style="stroke:#000000;stroke-width:0.8;" x="373.045346" xlink:href="#mf942ad2086" y="294.88"/>
      </g>
     </g>
     <g id="text_5">
      <!-- 8 -->
      <defs>
       <path d="M 31.78125 34.625 
Q 24.75 34.625 20.71875 30.859375 
Q 16.703125 27.09375 16.703125 20.515625 
Q 16.703125 13.921875 20.71875 10.15625 
Q 24.75 6.390625 31.78125 6.390625 
Q 38.8125 6.390625 42.859375 10.171875 
Q 46.921875 13.96875 46.921875 20.515625 
Q 46.921875 27.09375 42.890625 30.859375 
Q 38.875 34.625 31.78125 34.625 
z
M 21.921875 38.8125 
Q 15.578125 40.375 12.03125 44.71875 
Q 8.5 49.078125 8.5 55.328125 
Q 8.5 64.0625 14.71875 69.140625 
Q 20.953125 74.21875 31.78125 74.21875 
Q 42.671875 74.21875 48.875 69.140625 
Q 55.078125 64.0625 55.078125 55.328125 
Q 55.078125 49.078125 51.53125 44.71875 
Q 48 40.375 41.703125 38.8125 
Q 48.828125 37.15625 52.796875 32.3125 
Q 56.78125 27.484375 56.78125 20.515625 
Q 56.78125 9.90625 50.3125 4.234375 
Q 43.84375 -1.421875 31.78125 -1.421875 
Q 19.734375 -1.421875 13.25 4.234375 
Q 6.78125 9.90625 6.78125 20.515625 
Q 6.78125 27.484375 10.78125 32.3125 
Q 14.796875 37.15625 21.921875 38.8125 
z
M 18.3125 54.390625 
Q 18.3125 48.734375 21.84375 45.5625 
Q 25.390625 42.390625 31.78125 42.390625 
Q 38.140625 42.390625 41.71875 45.5625 
Q 45.3125 48.734375 45.3125 54.390625 
Q 45.3125 60.0625 41.71875 63.234375 
Q 38.140625 66.40625 31.78125 66.40625 
Q 25.390625 66.40625 21.84375 63.234375 
Q 18.3125 60.0625 18.3125 54.390625 
z
" id="DejaVuSans-38"/>
      </defs>
      <g transform="translate(366.682846 317.076875)scale(0.2 -0.2)">
       <use xlink:href="#DejaVuSans-38"/>
      </g>
     </g>
    </g>
    <g id="text_6">
     <!-- log10(# f-evals / dimension) -->
     <defs>
      <path d="M 9.421875 75.984375 
L 18.40625 75.984375 
L 18.40625 0 
L 9.421875 0 
z
" id="DejaVuSans-6c"/>
      <path d="M 30.609375 48.390625 
Q 23.390625 48.390625 19.1875 42.75 
Q 14.984375 37.109375 14.984375 27.296875 
Q 14.984375 17.484375 19.15625 11.84375 
Q 23.34375 6.203125 30.609375 6.203125 
Q 37.796875 6.203125 41.984375 11.859375 
Q 46.1875 17.53125 46.1875 27.296875 
Q 46.1875 37.015625 41.984375 42.703125 
Q 37.796875 48.390625 30.609375 48.390625 
z
M 30.609375 56 
Q 42.328125 56 49.015625 48.375 
Q 55.71875 40.765625 55.71875 27.296875 
Q 55.71875 13.875 49.015625 6.21875 
Q 42.328125 -1.421875 30.609375 -1.421875 
Q 18.84375 -1.421875 12.171875 6.21875 
Q 5.515625 13.875 5.515625 27.296875 
Q 5.515625 40.765625 12.171875 48.375 
Q 18.84375 56 30.609375 56 
z
" id="DejaVuSans-6f"/>
      <path d="M 45.40625 27.984375 
Q 45.40625 37.75 41.375 43.109375 
Q 37.359375 48.484375 30.078125 48.484375 
Q 22.859375 48.484375 18.828125 43.109375 
Q 14.796875 37.75 14.796875 27.984375 
Q 14.796875 18.265625 18.828125 12.890625 
Q 22.859375 7.515625 30.078125 7.515625 
Q 37.359375 7.515625 41.375 12.890625 
Q 45.40625 18.265625 45.40625 27.984375 
z
M 54.390625 6.78125 
Q 54.390625 -7.171875 48.1875 -13.984375 
Q 42 -20.796875 29.203125 -20.796875 
Q 24.46875 -20.796875 20.265625 -20.09375 
Q 16.0625 -19.390625 12.109375 -17.921875 
L 12.109375 -9.1875 
Q 16.0625 -11.328125 19.921875 -12.34375 
Q 23.78125 -13.375 27.78125 -13.375 
Q 36.625 -13.375 41.015625 -8.765625 
Q 45.40625 -4.15625 45.40625 5.171875 
L 45.40625 9.625 
Q 42.625 4.78125 38.28125 2.390625 
Q 33.9375 0 27.875 0 
Q 17.828125 0 11.671875 7.65625 
Q 5.515625 15.328125 5.515625 27.984375 
Q 5.515625 40.671875 11.671875 48.328125 
Q 17.828125 56 27.875 56 
Q 33.9375 56 38.28125 53.609375 
Q 42.625 51.21875 45.40625 46.390625 
L 45.40625 54.6875 
L 54.390625 54.6875 
z
" id="DejaVuSans-67"/>
      <path d="M 12.40625 8.296875 
L 28.515625 8.296875 
L 28.515625 63.921875 
L 10.984375 60.40625 
L 10.984375 69.390625 
L 28.421875 72.90625 
L 38.28125 72.90625 
L 38.28125 8.296875 
L 54.390625 8.296875 
L 54.390625 0 
L 12.40625 0 
z
" id="DejaVuSans-31"/>
      <path d="M 31 75.875 
Q 24.46875 64.65625 21.28125 53.65625 
Q 18.109375 42.671875 18.109375 31.390625 
Q 18.109375 20.125 21.3125 9.0625 
Q 24.515625 -2 31 -13.1875 
L 23.1875 -13.1875 
Q 15.875 -1.703125 12.234375 9.375 
Q 8.59375 20.453125 8.59375 31.390625 
Q 8.59375 42.28125 12.203125 53.3125 
Q 15.828125 64.359375 23.1875 75.875 
z
" id="DejaVuSans-28"/>
      <path d="M 51.125 44 
L 36.921875 44 
L 32.8125 27.6875 
L 47.125 27.6875 
z
M 43.796875 71.78125 
L 38.71875 51.515625 
L 52.984375 51.515625 
L 58.109375 71.78125 
L 65.921875 71.78125 
L 60.890625 51.515625 
L 76.125 51.515625 
L 76.125 44 
L 58.984375 44 
L 54.984375 27.6875 
L 70.515625 27.6875 
L 70.515625 20.21875 
L 53.078125 20.21875 
L 48 0 
L 40.1875 0 
L 45.21875 20.21875 
L 30.90625 20.21875 
L 25.875 0 
L 18.015625 0 
L 23.09375 20.21875 
L 7.71875 20.21875 
L 7.71875 27.6875 
L 24.90625 27.6875 
L 29 44 
L 13.28125 44 
L 13.28125 51.515625 
L 30.90625 51.515625 
L 35.890625 71.78125 
z
" id="DejaVuSans-23"/>
      <path id="DejaVuSans-20"/>
      <path d="M 37.109375 75.984375 
L 37.109375 68.5 
L 28.515625 68.5 
Q 23.6875 68.5 21.796875 66.546875 
Q 19.921875 64.59375 19.921875 59.515625 
L 19.921875 54.6875 
L 34.71875 54.6875 
L 34.71875 47.703125 
L 19.921875 47.703125 
L 19.921875 0 
L 10.890625 0 
L 10.890625 47.703125 
L 2.296875 47.703125 
L 2.296875 54.6875 
L 10.890625 54.6875 
L 10.890625 58.5 
Q 10.890625 67.625 15.140625 71.796875 
Q 19.390625 75.984375 28.609375 75.984375 
z
" id="DejaVuSans-66"/>
      <path d="M 4.890625 31.390625 
L 31.203125 31.390625 
L 31.203125 23.390625 
L 4.890625 23.390625 
z
" id="DejaVuSans-2d"/>
      <path d="M 56.203125 29.59375 
L 56.203125 25.203125 
L 14.890625 25.203125 
Q 15.484375 15.921875 20.484375 11.0625 
Q 25.484375 6.203125 34.421875 6.203125 
Q 39.59375 6.203125 44.453125 7.46875 
Q 49.3125 8.734375 54.109375 11.28125 
L 54.109375 2.78125 
Q 49.265625 0.734375 44.1875 -0.34375 
Q 39.109375 -1.421875 33.890625 -1.421875 
Q 20.796875 -1.421875 13.15625 6.1875 
Q 5.515625 13.8125 5.515625 26.8125 
Q 5.515625 40.234375 12.765625 48.109375 
Q 20.015625 56 32.328125 56 
Q 43.359375 56 49.78125 48.890625 
Q 56.203125 41.796875 56.203125 29.59375 
z
M 47.21875 32.234375 
Q 47.125 39.59375 43.09375 43.984375 
Q 39.0625 48.390625 32.421875 48.390625 
Q 24.90625 48.390625 20.390625 44.140625 
Q 15.875 39.890625 15.1875 32.171875 
z
" id="DejaVuSans-65"/>
      <path d="M 2.984375 54.6875 
L 12.5 54.6875 
L 29.59375 8.796875 
L 46.6875 54.6875 
L 56.203125 54.6875 
L 35.6875 0 
L 23.484375 0 
z
" id="DejaVuSans-76"/>
      <path d="M 34.28125 27.484375 
Q 23.390625 27.484375 19.1875 25 
Q 14.984375 22.515625 14.984375 16.5 
Q 14.984375 11.71875 18.140625 8.90625 
Q 21.296875 6.109375 26.703125 6.109375 
Q 34.1875 6.109375 38.703125 11.40625 
Q 43.21875 16.703125 43.21875 25.484375 
L 43.21875 27.484375 
z
M 52.203125 31.203125 
L 52.203125 0 
L 43.21875 0 
L 43.21875 8.296875 
Q 40.140625 3.328125 35.546875 0.953125 
Q 30.953125 -1.421875 24.3125 -1.421875 
Q 15.921875 -1.421875 10.953125 3.296875 
Q 6 8.015625 6 15.921875 
Q 6 25.140625 12.171875 29.828125 
Q 18.359375 34.515625 30.609375 34.515625 
L 43.21875 34.515625 
L 43.21875 35.40625 
Q 43.21875 41.609375 39.140625 45 
Q 35.0625 48.390625 27.6875 48.390625 
Q 23 48.390625 18.546875 47.265625 
Q 14.109375 46.140625 10.015625 43.890625 
L 10.015625 52.203125 
Q 14.9375 54.109375 19.578125 55.046875 
Q 24.21875 56 28.609375 56 
Q 40.484375 56 46.34375 49.84375 
Q 52.203125 43.703125 52.203125 31.203125 
z
" id="DejaVuSans-61"/>
      <path d="M 44.28125 53.078125 
L 44.28125 44.578125 
Q 40.484375 46.53125 36.375 47.5 
Q 32.28125 48.484375 27.875 48.484375 
Q 21.1875 48.484375 17.84375 46.4375 
Q 14.5 44.390625 14.5 40.28125 
Q 14.5 37.15625 16.890625 35.375 
Q 19.28125 33.59375 26.515625 31.984375 
L 29.59375 31.296875 
Q 39.15625 29.25 43.1875 25.515625 
Q 47.21875 21.78125 47.21875 15.09375 
Q 47.21875 7.46875 41.1875 3.015625 
Q 35.15625 -1.421875 24.609375 -1.421875 
Q 20.21875 -1.421875 15.453125 -0.5625 
Q 10.6875 0.296875 5.421875 2 
L 5.421875 11.28125 
Q 10.40625 8.6875 15.234375 7.390625 
Q 20.0625 6.109375 24.8125 6.109375 
Q 31.15625 6.109375 34.5625 8.28125 
Q 37.984375 10.453125 37.984375 14.40625 
Q 37.984375 18.0625 35.515625 20.015625 
Q 33.0625 21.96875 24.703125 23.78125 
L 21.578125 24.515625 
Q 13.234375 26.265625 9.515625 29.90625 
Q 5.8125 33.546875 5.8125 39.890625 
Q 5.8125 47.609375 11.28125 51.796875 
Q 16.75 56 26.8125 56 
Q 31.78125 56 36.171875 55.265625 
Q 40.578125 54.546875 44.28125 53.078125 
z
" id="DejaVuSans-73"/>
      <path d="M 25.390625 72.90625 
L 33.6875 72.90625 
L 8.296875 -9.28125 
L 0 -9.28125 
z
" id="DejaVuSans-2f"/>
      <path d="M 45.40625 46.390625 
L 45.40625 75.984375 
L 54.390625 75.984375 
L 54.390625 0 
L 45.40625 0 
L 45.40625 8.203125 
Q 42.578125 3.328125 38.25 0.953125 
Q 33.9375 -1.421875 27.875 -1.421875 
Q 17.96875 -1.421875 11.734375 6.484375 
Q 5.515625 14.40625 5.515625 27.296875 
Q 5.515625 40.1875 11.734375 48.09375 
Q 17.96875 56 27.875 56 
Q 33.9375 56 38.25 53.625 
Q 42.578125 51.265625 45.40625 46.390625 
z
M 14.796875 27.296875 
Q 14.796875 17.390625 18.875 11.75 
Q 22.953125 6.109375 30.078125 6.109375 
Q 37.203125 6.109375 41.296875 11.75 
Q 45.40625 17.390625 45.40625 27.296875 
Q 45.40625 37.203125 41.296875 42.84375 
Q 37.203125 48.484375 30.078125 48.484375 
Q 22.953125 48.484375 18.875 42.84375 
Q 14.796875 37.203125 14.796875 27.296875 
z
" id="DejaVuSans-64"/>
      <path d="M 9.421875 54.6875 
L 18.40625 54.6875 
L 18.40625 0 
L 9.421875 0 
z
M 9.421875 75.984375 
L 18.40625 75.984375 
L 18.40625 64.59375 
L 9.421875 64.59375 
z
" id="DejaVuSans-69"/>
      <path d="M 52 44.1875 
Q 55.375 50.25 60.0625 53.125 
Q 64.75 56 71.09375 56 
Q 79.640625 56 84.28125 50.015625 
Q 88.921875 44.046875 88.921875 33.015625 
L 88.921875 0 
L 79.890625 0 
L 79.890625 32.71875 
Q 79.890625 40.578125 77.09375 44.375 
Q 74.3125 48.1875 68.609375 48.1875 
Q 61.625 48.1875 57.5625 43.546875 
Q 53.515625 38.921875 53.515625 30.90625 
L 53.515625 0 
L 44.484375 0 
L 44.484375 32.71875 
Q 44.484375 40.625 41.703125 44.40625 
Q 38.921875 48.1875 33.109375 48.1875 
Q 26.21875 48.1875 22.15625 43.53125 
Q 18.109375 38.875 18.109375 30.90625 
L 18.109375 0 
L 9.078125 0 
L 9.078125 54.6875 
L 18.109375 54.6875 
L 18.109375 46.1875 
Q 21.1875 51.21875 25.484375 53.609375 
Q 29.78125 56 35.6875 56 
Q 41.65625 56 45.828125 52.96875 
Q 50 49.953125 52 44.1875 
z
" id="DejaVuSans-6d"/>
      <path d="M 54.890625 33.015625 
L 54.890625 0 
L 45.90625 0 
L 45.90625 32.71875 
Q 45.90625 40.484375 42.875 44.328125 
Q 39.84375 48.1875 33.796875 48.1875 
Q 26.515625 48.1875 22.3125 43.546875 
Q 18.109375 38.921875 18.109375 30.90625 
L 18.109375 0 
L 9.078125 0 
L 9.078125 54.6875 
L 18.109375 54.6875 
L 18.109375 46.1875 
Q 21.34375 51.125 25.703125 53.5625 
Q 30.078125 56 35.796875 56 
Q 45.21875 56 50.046875 50.171875 
Q 54.890625 44.34375 54.890625 33.015625 
z
" id="DejaVuSans-6e"/>
      <path d="M 8.015625 75.875 
L 15.828125 75.875 
Q 23.140625 64.359375 26.78125 53.3125 
Q 30.421875 42.28125 30.421875 31.390625 
Q 30.421875 20.453125 26.78125 9.375 
Q 23.140625 -1.703125 15.828125 -13.1875 
L 8.015625 -13.1875 
Q 14.5 -2 17.703125 9.0625 
Q 20.90625 20.125 20.90625 31.390625 
Q 20.90625 42.671875 17.703125 53.65625 
Q 14.5 64.65625 8.015625 75.875 
z
" id="DejaVuSans-29"/>
     </defs>
     <g transform="translate(107.211219 338.153594)scale(0.17 -0.17)">
      <use xlink:href="#DejaVuSans-6c"/>
      <use x="27.783203" xlink:href="#DejaVuSans-6f"/>
      <use x="88.964844" xlink:href="#DejaVuSans-67"/>
      <use x="152.441406" xlink:href="#DejaVuSans-31"/>
      <use x="216.064453" xlink:href="#DejaVuSans-30"/>
      <use x="279.6875" xlink:href="#DejaVuSans-28"/>
      <use x="318.701172" xlink:href="#DejaVuSans-23"/>
      <use x="402.490234" xlink:href="#DejaVuSans-20"/>
      <use x="434.277344" xlink:href="#DejaVuSans-66"/>
      <use x="469.404297" xlink:href="#DejaVuSans-2d"/>
      <use x="505.488281" xlink:href="#DejaVuSans-65"/>
      <use x="567.011719" xlink:href="#DejaVuSans-76"/>
      <use x="626.191406" xlink:href="#DejaVuSans-61"/>
      <use x="687.470703" xlink:href="#DejaVuSans-6c"/>
      <use x="715.253906" xlink:href="#DejaVuSans-73"/>
      <use x="767.353516" xlink:href="#DejaVuSans-20"/>
      <use x="799.140625" xlink:href="#DejaVuSans-2f"/>
      <use x="832.832031" xlink:href="#DejaVuSans-20"/>
      <use x="864.619141" xlink:href="#DejaVuSans-64"/>
      <use x="928.095703" xlink:href="#DejaVuSans-69"/>
      <use x="955.878906" xlink:href="#DejaVuSans-6d"/>
      <use x="1053.291016" xlink:href="#DejaVuSans-65"/>
      <use x="1114.814453" xlink:href="#DejaVuSans-6e"/>
      <use x="1178.193359" xlink:href="#DejaVuSans-73"/>
      <use x="1230.292969" xlink:href="#DejaVuSans-69"/>
      <use x="1258.076172" xlink:href="#DejaVuSans-6f"/>
      <use x="1319.257812" xlink:href="#DejaVuSans-6e"/>
      <use x="1382.636719" xlink:href="#DejaVuSans-29"/>
     </g>
    </g>
   </g>
   <g id="matplotlib.axis_2">
    <g id="ytick_1">
     <g id="line2d_11">
      <path clip-path="url(#p3d5c6c03fa)" d="M 56.12 294.88 
L 399.984 294.88 
" style="fill:none;stroke:#b0b0b0;stroke-linecap:square;stroke-width:0.8;"/>
     </g>
     <g id="line2d_12">
      <defs>
       <path d="M 0 0 
L -3.5 0 
" id="me238e0b016" style="stroke:#000000;stroke-width:0.8;"/>
      </defs>
      <g>
       <use style="stroke:#000000;stroke-width:0.8;" x="56.12" xlink:href="#me238e0b016" y="294.88"/>
      </g>
     </g>
     <g id="text_7">
      <!-- 0.0 -->
      <defs>
       <path d="M 10.6875 12.40625 
L 21 12.40625 
L 21 0 
L 10.6875 0 
z
" id="DejaVuSans-2e"/>
      </defs>
      <g transform="translate(23.675 300.95875)scale(0.16 -0.16)">
       <use xlink:href="#DejaVuSans-30"/>
       <use x="63.623047" xlink:href="#DejaVuSans-2e"/>
       <use x="95.410156" xlink:href="#DejaVuSans-30"/>
      </g>
     </g>
    </g>
    <g id="ytick_2">
     <g id="line2d_13">
      <path clip-path="url(#p3d5c6c03fa)" d="M 56.12 237.843411 
L 399.984 237.843411 
" style="fill:none;stroke:#b0b0b0;stroke-linecap:square;stroke-width:0.8;"/>
     </g>
     <g id="line2d_14">
      <g>
       <use style="stroke:#000000;stroke-width:0.8;" x="56.12" xlink:href="#me238e0b016" y="237.843411"/>
      </g>
     </g>
     <g id="text_8">
      <!-- 0.2 -->
      <g transform="translate(23.675 243.922161)scale(0.16 -0.16)">
       <use xlink:href="#DejaVuSans-30"/>
       <use x="63.623047" xlink:href="#DejaVuSans-2e"/>
       <use x="95.410156" xlink:href="#DejaVuSans-32"/>
      </g>
     </g>
    </g>
    <g id="ytick_3">
     <g id="line2d_15">
      <path clip-path="url(#p3d5c6c03fa)" d="M 56.12 180.806823 
L 399.984 180.806823 
" style="fill:none;stroke:#b0b0b0;stroke-linecap:square;stroke-width:0.8;"/>
     </g>
     <g id="line2d_16">
      <g>
       <use style="stroke:#000000;stroke-width:0.8;" x="56.12" xlink:href="#me238e0b016" y="180.806823"/>
      </g>
     </g>
     <g id="text_9">
      <!-- 0.4 -->
      <g transform="translate(23.675 186.885573)scale(0.16 -0.16)">
       <use xlink:href="#DejaVuSans-30"/>
       <use x="63.623047" xlink:href="#DejaVuSans-2e"/>
       <use x="95.410156" xlink:href="#DejaVuSans-34"/>
      </g>
     </g>
    </g>
    <g id="ytick_4">
     <g id="line2d_17">
      <path clip-path="url(#p3d5c6c03fa)" d="M 56.12 123.770234 
L 399.984 123.770234 
" style="fill:none;stroke:#b0b0b0;stroke-linecap:square;stroke-width:0.8;"/>
     </g>
     <g id="line2d_18">
      <g>
       <use style="stroke:#000000;stroke-width:0.8;" x="56.12" xlink:href="#me238e0b016" y="123.770234"/>
      </g>
     </g>
     <g id="text_10">
      <!-- 0.6 -->
      <g transform="translate(23.675 129.848984)scale(0.16 -0.16)">
       <use xlink:href="#DejaVuSans-30"/>
       <use x="63.623047" xlink:href="#DejaVuSans-2e"/>
       <use x="95.410156" xlink:href="#DejaVuSans-36"/>
      </g>
     </g>
    </g>
    <g id="ytick_5">
     <g id="line2d_19">
      <path clip-path="url(#p3d5c6c03fa)" d="M 56.12 66.733646 
L 399.984 66.733646 
" style="fill:none;stroke:#b0b0b0;stroke-linecap:square;stroke-width:0.8;"/>
     </g>
     <g id="line2d_20">
      <g>
       <use style="stroke:#000000;stroke-width:0.8;" x="56.12" xlink:href="#me238e0b016" y="66.733646"/>
      </g>
     </g>
     <g id="text_11">
      <!-- 0.8 -->
      <g transform="translate(23.675 72.812396)scale(0.16 -0.16)">
       <use xlink:href="#DejaVuSans-30"/>
       <use x="63.623047" xlink:href="#DejaVuSans-2e"/>
       <use x="95.410156" xlink:href="#DejaVuSans-38"/>
      </g>
     </g>
    </g>
    <g id="ytick_6">
     <g id="line2d_21">
      <path clip-path="url(#p3d5c6c03fa)" d="M 56.12 9.697057 
L 399.984 9.697057 
" style="fill:none;stroke:#b0b0b0;stroke-linecap:square;stroke-width:0.8;"/>
     </g>
     <g id="line2d_22">
      <g>
       <use style="stroke:#000000;stroke-width:0.8;" x="56.12" xlink:href="#me238e0b016" y="9.697057"/>
      </g>
     </g>
     <g id="text_12">
      <!-- 1.0 -->
      <g transform="translate(23.675 15.775807)scale(0.16 -0.16)">
       <use xlink:href="#DejaVuSans-31"/>
       <use x="63.623047" xlink:href="#DejaVuSans-2e"/>
       <use x="95.410156" xlink:href="#DejaVuSans-30"/>
      </g>
     </g>
    </g>
    <g id="text_13">
     <!-- Fraction of function,target pairs -->
     <defs>
      <path d="M 9.8125 72.90625 
L 51.703125 72.90625 
L 51.703125 64.59375 
L 19.671875 64.59375 
L 19.671875 43.109375 
L 48.578125 43.109375 
L 48.578125 34.8125 
L 19.671875 34.8125 
L 19.671875 0 
L 9.8125 0 
z
" id="DejaVuSans-46"/>
      <path d="M 41.109375 46.296875 
Q 39.59375 47.171875 37.8125 47.578125 
Q 36.03125 48 33.890625 48 
Q 26.265625 48 22.1875 43.046875 
Q 18.109375 38.09375 18.109375 28.8125 
L 18.109375 0 
L 9.078125 0 
L 9.078125 54.6875 
L 18.109375 54.6875 
L 18.109375 46.1875 
Q 20.953125 51.171875 25.484375 53.578125 
Q 30.03125 56 36.53125 56 
Q 37.453125 56 38.578125 55.875 
Q 39.703125 55.765625 41.0625 55.515625 
z
" id="DejaVuSans-72"/>
      <path d="M 48.78125 52.59375 
L 48.78125 44.1875 
Q 44.96875 46.296875 41.140625 47.34375 
Q 37.3125 48.390625 33.40625 48.390625 
Q 24.65625 48.390625 19.8125 42.84375 
Q 14.984375 37.3125 14.984375 27.296875 
Q 14.984375 17.28125 19.8125 11.734375 
Q 24.65625 6.203125 33.40625 6.203125 
Q 37.3125 6.203125 41.140625 7.25 
Q 44.96875 8.296875 48.78125 10.40625 
L 48.78125 2.09375 
Q 45.015625 0.34375 40.984375 -0.53125 
Q 36.96875 -1.421875 32.421875 -1.421875 
Q 20.0625 -1.421875 12.78125 6.34375 
Q 5.515625 14.109375 5.515625 27.296875 
Q 5.515625 40.671875 12.859375 48.328125 
Q 20.21875 56 33.015625 56 
Q 37.15625 56 41.109375 55.140625 
Q 45.0625 54.296875 48.78125 52.59375 
z
" id="DejaVuSans-63"/>
      <path d="M 18.3125 70.21875 
L 18.3125 54.6875 
L 36.8125 54.6875 
L 36.8125 47.703125 
L 18.3125 47.703125 
L 18.3125 18.015625 
Q 18.3125 11.328125 20.140625 9.421875 
Q 21.96875 7.515625 27.59375 7.515625 
L 36.8125 7.515625 
L 36.8125 0 
L 27.59375 0 
Q 17.1875 0 13.234375 3.875 
Q 9.28125 7.765625 9.28125 18.015625 
L 9.28125 47.703125 
L 2.6875 47.703125 
L 2.6875 54.6875 
L 9.28125 54.6875 
L 9.28125 70.21875 
z
" id="DejaVuSans-74"/>
      <path d="M 8.5 21.578125 
L 8.5 54.6875 
L 17.484375 54.6875 
L 17.484375 21.921875 
Q 17.484375 14.15625 20.5 10.265625 
Q 23.53125 6.390625 29.59375 6.390625 
Q 36.859375 6.390625 41.078125 11.03125 
Q 45.3125 15.671875 45.3125 23.6875 
L 45.3125 54.6875 
L 54.296875 54.6875 
L 54.296875 0 
L 45.3125 0 
L 45.3125 8.40625 
Q 42.046875 3.421875 37.71875 1 
Q 33.40625 -1.421875 27.6875 -1.421875 
Q 18.265625 -1.421875 13.375 4.4375 
Q 8.5 10.296875 8.5 21.578125 
z
M 31.109375 56 
z
" id="DejaVuSans-75"/>
      <path d="M 11.71875 12.40625 
L 22.015625 12.40625 
L 22.015625 4 
L 14.015625 -11.625 
L 7.71875 -11.625 
L 11.71875 4 
z
" id="DejaVuSans-2c"/>
      <path d="M 18.109375 8.203125 
L 18.109375 -20.796875 
L 9.078125 -20.796875 
L 9.078125 54.6875 
L 18.109375 54.6875 
L 18.109375 46.390625 
Q 20.953125 51.265625 25.265625 53.625 
Q 29.59375 56 35.59375 56 
Q 45.5625 56 51.78125 48.09375 
Q 58.015625 40.1875 58.015625 27.296875 
Q 58.015625 14.40625 51.78125 6.484375 
Q 45.5625 -1.421875 35.59375 -1.421875 
Q 29.59375 -1.421875 25.265625 0.953125 
Q 20.953125 3.328125 18.109375 8.203125 
z
M 48.6875 27.296875 
Q 48.6875 37.203125 44.609375 42.84375 
Q 40.53125 48.484375 33.40625 48.484375 
Q 26.265625 48.484375 22.1875 42.84375 
Q 18.109375 37.203125 18.109375 27.296875 
Q 18.109375 17.390625 22.1875 11.75 
Q 26.265625 6.109375 33.40625 6.109375 
Q 40.53125 6.109375 44.609375 11.75 
Q 48.6875 17.390625 48.6875 27.296875 
z
" id="DejaVuSans-70"/>
     </defs>
     <g transform="translate(16.139531 286.001989)rotate(-90)scale(0.17 -0.17)">
      <use xlink:href="#DejaVuSans-46"/>
      <use x="57.410156" xlink:href="#DejaVuSans-72"/>
      <use x="98.523438" xlink:href="#DejaVuSans-61"/>
      <use x="159.802734" xlink:href="#DejaVuSans-63"/>
      <use x="214.783203" xlink:href="#DejaVuSans-74"/>
      <use x="253.992188" xlink:href="#DejaVuSans-69"/>
      <use x="281.775391" xlink:href="#DejaVuSans-6f"/>
      <use x="342.957031" xlink:href="#DejaVuSans-6e"/>
      <use x="406.335938" xlink:href="#DejaVuSans-20"/>
      <use x="438.123047" xlink:href="#DejaVuSans-6f"/>
      <use x="499.304688" xlink:href="#DejaVuSans-66"/>
      <use x="534.509766" xlink:href="#DejaVuSans-20"/>
      <use x="566.296875" xlink:href="#DejaVuSans-66"/>
      <use x="601.501953" xlink:href="#DejaVuSans-75"/>
      <use x="664.880859" xlink:href="#DejaVuSans-6e"/>
      <use x="728.259766" xlink:href="#DejaVuSans-63"/>
      <use x="783.240234" xlink:href="#DejaVuSans-74"/>
      <use x="822.449219" xlink:href="#DejaVuSans-69"/>
      <use x="850.232422" xlink:href="#DejaVuSans-6f"/>
      <use x="911.414062" xlink:href="#DejaVuSans-6e"/>
      <use x="974.792969" xlink:href="#DejaVuSans-2c"/>
      <use x="1006.580078" xlink:href="#DejaVuSans-74"/>
      <use x="1045.789062" xlink:href="#DejaVuSans-61"/>
      <use x="1107.068359" xlink:href="#DejaVuSans-72"/>
      <use x="1148.166016" xlink:href="#DejaVuSans-67"/>
      <use x="1211.642578" xlink:href="#DejaVuSans-65"/>
      <use x="1273.166016" xlink:href="#DejaVuSans-74"/>
      <use x="1312.375" xlink:href="#DejaVuSans-20"/>
      <use x="1344.162109" xlink:href="#DejaVuSans-70"/>
      <use x="1407.638672" xlink:href="#DejaVuSans-61"/>
      <use x="1468.917969" xlink:href="#DejaVuSans-69"/>
      <use x="1496.701172" xlink:href="#DejaVuSans-72"/>
      <use x="1537.814453" xlink:href="#DejaVuSans-73"/>
     </g>
    </g>
   </g>
   <g id="line2d_23">
    <defs>
     <path d="M 0 1.5 
C 0.397805 1.5 0.77937 1.341951 1.06066 1.06066 
C 1.341951 0.77937 1.5 0.397805 1.5 0 
C 1.5 -0.397805 1.341951 -0.77937 1.06066 -1.06066 
C 0.77937 -1.341951 0.397805 -1.5 0 -1.5 
C -0.397805 -1.5 -0.77937 -1.341951 -1.06066 -1.06066 
C -1.341951 -0.77937 -1.5 -0.397805 -1.5 0 
C -1.5 0.397805 -1.341951 0.77937 -1.06066 1.06066 
C -0.77937 1.341951 -0.397805 1.5 0 1.5 
z
" id="m7528758830" style="stroke:#000080;"/>
    </defs>
    <g>
     <use style="fill:#000080;stroke:#000080;" x="209.813418" xlink:href="#m7528758830" y="9.697057"/>
     <use style="fill:#000080;stroke:#000080;" x="209.813418" xlink:href="#m7528758830" y="9.697057"/>
    </g>
   </g>
   <g id="line2d_24">
    <path d="M 56.12 294.88 
L 56.12 257.973972 
L 68.045504 257.973972 
L 68.045504 256.855608 
L 75.021477 256.855608 
L 75.021477 251.822967 
L 79.971009 251.822967 
L 79.971009 251.263785 
L 86.946982 251.263785 
L 86.946982 250.145421 
L 89.599124 250.145421 
L 89.599124 248.467874 
L 93.922955 248.467874 
L 93.922955 247.908692 
L 98.872486 247.908692 
L 98.872486 246.231145 
L 100.24961 246.231145 
L 100.24961 245.671963 
L 101.524628 245.671963 
L 101.524628 245.112781 
L 109.300972 245.112781 
L 109.300972 243.994416 
L 112.175115 243.994416 
L 112.175115 243.435234 
L 115.747522 243.435234 
L 115.747522 242.316869 
L 118.245359 242.316869 
L 118.245359 241.198505 
L 119.586677 241.198505 
L 119.586677 240.08014 
L 123.766534 240.08014 
L 123.766534 239.520958 
L 124.749936 239.520958 
L 124.749936 237.284229 
L 127.673027 237.284229 
L 127.673027 236.725047 
L 128.716065 236.725047 
L 128.716065 235.606682 
L 129.699468 235.606682 
L 129.699468 235.0475 
L 131.512181 235.0475 
L 131.512181 233.929136 
L 133.346388 233.929136 
L 133.346388 233.369954 
L 135.859892 233.369954 
L 135.859892 231.692407 
L 136.190765 231.692407 
L 136.190765 231.133225 
L 136.353845 231.133225 
L 136.353845 230.574042 
L 136.515394 230.574042 
L 136.515394 228.337313 
L 136.675441 228.337313 
L 136.675441 226.100584 
L 136.991135 226.100584 
L 136.991135 223.863855 
L 138.488154 223.863855 
L 138.488154 222.186309 
L 139.190491 222.186309 
L 139.190491 219.94958 
L 139.732422 219.94958 
L 139.732422 219.390397 
L 140.89274 219.390397 
L 140.89274 218.272033 
L 141.384341 218.272033 
L 141.384341 217.712851 
L 141.979724 217.712851 
L 141.979724 217.153669 
L 142.327309 217.153669 
L 142.327309 216.594486 
L 143.22127 216.594486 
L 143.22127 216.035304 
L 144.581633 216.035304 
L 144.581633 215.476122 
L 145.368278 215.476122 
L 145.368278 211.561846 
L 146.028272 211.561846 
L 146.120523 208.765935 
L 146.574504 208.765935 
L 146.574504 206.529206 
L 146.752794 206.529206 
L 146.752794 203.733295 
L 152.37626 203.733295 
L 152.37626 200.378201 
L 153.669542 200.378201 
L 153.669542 199.259837 
L 154.310068 199.259837 
L 154.310068 198.700655 
L 155.576918 198.700655 
L 155.682795 196.463926 
L 158.722584 196.463926 
L 158.722584 195.345561 
L 159.794217 195.345561 
L 159.794217 194.227197 
L 160.082689 194.227197 
L 160.082689 193.668014 
L 160.52645 193.668014 
L 160.56623 192.54965 
L 163.110182 192.54965 
L 163.110182 190.872103 
L 163.550055 190.872103 
L 163.550055 189.194556 
L 163.716287 189.194556 
L 163.716287 188.635374 
L 164.492578 188.635374 
L 164.492578 187.51701 
L 165.947377 187.51701 
L 165.947377 185.839463 
L 166.659011 185.839463 
L 166.659011 184.721099 
L 166.797873 184.721099 
L 166.797873 183.602734 
L 166.990415 183.602734 
L 166.990415 183.043552 
L 167.126638 183.043552 
L 167.126638 182.48437 
L 169.528864 182.48437 
L 169.528864 181.925187 
L 171.170808 181.925187 
L 171.170808 180.806823 
L 174.28258 180.806823 
L 174.389665 177.451729 
L 174.531415 177.451729 
L 174.531415 176.892547 
L 174.863464 176.892547 
L 174.863464 175.774183 
L 175.458848 175.774183 
L 175.458848 175.215 
L 176.528421 175.215 
L 176.528421 174.096636 
L 176.993446 174.096636 
L 177.05451 172.978271 
L 177.653522 172.978271 
L 177.653522 172.419089 
L 177.887406 172.419089 
L 177.887406 170.741543 
L 178.764818 170.741543 
L 178.764818 170.18236 
L 180.015181 170.18236 
L 180.015181 169.063996 
L 180.143004 169.063996 
L 180.143004 166.827267 
L 180.358146 166.827267 
L 180.358146 165.14972 
L 180.755964 165.14972 
L 180.755964 164.031356 
L 181.816344 164.031356 
L 181.816344 161.235444 
L 182.760544 161.235444 
L 182.760544 160.11708 
L 183.697095 160.11708 
L 183.697095 158.998715 
L 183.882538 158.998715 
L 183.882538 156.202804 
L 183.994889 156.202804 
L 184.066004 148.933435 
L 184.20736 148.933435 
L 184.20736 148.374253 
L 184.839164 148.374253 
L 184.839164 147.255888 
L 185.317108 147.255888 
L 185.411124 143.900795 
L 187.089236 143.900795 
L 187.089236 143.341613 
L 187.46775 143.341613 
L 187.46775 142.223248 
L 187.870654 142.223248 
L 187.903131 139.986519 
L 188.152773 139.986519 
L 188.152773 138.868155 
L 188.304008 138.868155 
L 188.375185 136.631426 
L 188.477478 136.631426 
L 188.477478 135.513061 
L 188.880675 135.513061 
L 188.880675 134.394697 
L 189.071207 134.394697 
L 189.071207 133.835515 
L 189.475693 133.835515 
L 189.475693 133.276332 
L 189.791119 133.276332 
L 189.791119 132.157968 
L 189.986261 132.157968 
L 190.022157 129.921239 
L 190.299603 129.921239 
L 190.299603 127.125328 
L 190.868755 127.125328 
L 190.868755 123.770234 
L 191.079111 123.770234 
L 191.15314 122.092688 
L 191.610373 122.092688 
L 191.610373 121.533505 
L 192.296223 121.533505 
L 192.296223 119.296776 
L 192.675323 119.296776 
L 192.687612 117.060047 
L 192.937625 117.060047 
L 192.937625 116.500865 
L 193.154193 116.500865 
L 193.237683 114.823318 
L 193.397564 114.823318 
L 193.468148 113.704954 
L 193.509189 113.704954 
L 193.509189 113.145772 
L 194.237273 113.145772 
L 194.237273 112.027407 
L 194.443723 112.027407 
L 194.443723 108.672314 
L 195.134075 108.672314 
L 195.134075 106.435585 
L 195.25619 106.435585 
L 195.25619 104.758038 
L 195.387948 104.758038 
L 195.387948 103.080491 
L 195.534329 103.080491 
L 195.534329 102.521309 
L 196.087555 102.521309 
L 196.132864 99.166216 
L 196.297984 99.166216 
L 196.377475 97.488669 
L 196.51079 97.488669 
L 196.51079 96.370304 
L 196.711275 96.370304 
L 196.793723 94.692758 
L 197.739723 94.692758 
L 197.803715 91.896847 
L 197.908332 91.896847 
L 197.95362 87.423389 
L 198.457257 87.423389 
L 198.457257 86.864206 
L 199.07417 86.864206 
L 199.07417 86.305024 
L 199.322392 86.305024 
L 199.330744 81.272384 
L 199.488664 81.272384 
L 199.488664 80.15402 
L 199.796158 80.15402 
L 199.796158 79.035655 
L 200.046269 79.035655 
L 200.046269 78.476473 
L 200.30858 78.476473 
L 200.30858 77.917291 
L 200.426502 77.917291 
L 200.426502 77.358108 
L 200.894086 77.358108 
L 200.996711 72.325468 
L 201.061014 72.325468 
L 201.128839 68.411192 
L 201.286065 68.411192 
L 201.286065 66.174463 
L 201.478756 66.174463 
L 201.478756 65.615281 
L 201.63283 65.615281 
L 201.698442 63.937735 
L 201.80001 63.937735 
L 201.868591 60.023459 
L 201.911765 60.023459 
L 201.911765 59.464277 
L 202.111824 59.464277 
L 202.111824 58.905094 
L 202.299047 58.905094 
L 202.299047 58.345912 
L 202.470345 58.345912 
L 202.570928 57.227548 
L 202.749825 57.227548 
L 202.749825 56.668365 
L 203.024837 56.668365 
L 203.024837 54.431636 
L 203.282254 54.431636 
L 203.288889 52.194907 
L 203.57833 52.194907 
L 203.646687 48.280632 
L 203.994012 48.280632 
L 203.994012 47.72145 
L 204.139844 47.72145 
L 204.139844 46.603085 
L 204.32822 46.603085 
L 204.365649 44.925538 
L 204.563907 44.925538 
L 204.659123 43.247992 
L 204.756861 43.247992 
L 204.781209 38.774534 
L 205.204781 38.774534 
L 205.29062 37.096987 
L 205.355456 37.096987 
L 205.361338 33.741894 
L 205.528135 33.741894 
L 205.528135 33.182711 
L 205.701982 33.182711 
L 205.733664 31.505165 
L 206.010546 31.505165 
L 206.098103 28.709253 
L 206.151547 28.709253 
L 206.174 27.031707 
L 206.419072 27.031707 
L 206.419072 25.35416 
L 206.726017 25.35416 
L 206.726017 24.794978 
L 207.2477 24.794978 
L 207.2477 22.558249 
L 207.452023 22.558249 
L 207.452023 21.999066 
L 207.661668 21.999066 
L 207.661668 21.439884 
L 207.810229 21.439884 
L 207.891648 19.203155 
L 207.949931 19.203155 
L 208.025657 17.525609 
L 208.106066 17.525609 
L 208.106066 16.966426 
L 208.285622 16.966426 
L 208.290583 13.052151 
L 208.517258 13.052151 
L 208.595407 11.374604 
L 208.834955 11.374604 
L 208.933194 10.256239 
L 209.813418 10.256239 
L 209.813418 9.697057 
L 333.429677 9.697057 
L 333.429677 9.697057 
" style="fill:none;stroke:#000080;stroke-linecap:square;stroke-width:1.5;"/>
   </g>
   <g id="line2d_25">
    <defs>
     <path d="M 0 6 
C 1.591219 6 3.117479 5.367802 4.242641 4.242641 
C 5.367802 3.117479 6 1.591219 6 0 
C 6 -1.591219 5.367802 -3.117479 4.242641 -4.242641 
C 3.117479 -5.367802 1.591219 -6 0 -6 
C -1.591219 -6 -3.117479 -5.367802 -4.242641 -4.242641 
C -5.367802 -3.117479 -6 -1.591219 -6 0 
C -6 1.591219 -5.367802 3.117479 -4.242641 4.242641 
C -3.117479 5.367802 -1.591219 6 0 6 
z
" id="mb32d1d9ac3" style="stroke:#000080;stroke-width:1.5;"/>
    </defs>
    <g>
     <use style="fill-opacity:0;stroke:#000080;stroke-width:1.5;" x="144.581633" xlink:href="#mb32d1d9ac3" y="215.476122"/>
     <use style="fill-opacity:0;stroke:#000080;stroke-width:1.5;" x="191.610373" xlink:href="#mb32d1d9ac3" y="122.092688"/>
     <use style="fill-opacity:0;stroke:#000080;stroke-width:1.5;" x="209.813418" xlink:href="#mb32d1d9ac3" y="9.697057"/>
     <use style="fill-opacity:0;stroke:#000080;stroke-width:1.5;" x="209.813418" xlink:href="#mb32d1d9ac3" y="9.697057"/>
     <use style="fill-opacity:0;stroke:#000080;stroke-width:1.5;" x="333.429677" xlink:href="#mb32d1d9ac3" y="9.697057"/>
    </g>
   </g>
   <g id="line2d_26">
    <path style="fill:none;stroke:#000080;stroke-linecap:square;stroke-width:1.5;"/>
    <g/>
   </g>
   <g id="line2d_27">
    <defs>
     <path d="M 0 1.5 
C 0.397805 1.5 0.77937 1.341951 1.06066 1.06066 
C 1.341951 0.77937 1.5 0.397805 1.5 0 
C 1.5 -0.397805 1.341951 -0.77937 1.06066 -1.06066 
C 0.77937 -1.341951 0.397805 -1.5 0 -1.5 
C -0.397805 -1.5 -0.77937 -1.341951 -1.06066 -1.06066 
C -1.341951 -0.77937 -1.5 -0.397805 -1.5 0 
C -1.5 0.397805 -1.341951 0.77937 -1.06066 1.06066 
C -0.77937 1.341951 -0.397805 1.5 0 1.5 
z
" id="m958df50900" style="stroke:#ff00ff;"/>
    </defs>
    <g>
     <use style="fill:#ff00ff;stroke:#ff00ff;" x="346.999261" xlink:href="#m958df50900" y="205.410841"/>
     <use style="fill:#ff00ff;stroke:#ff00ff;" x="346.999261" xlink:href="#m958df50900" y="205.410841"/>
    </g>
   </g>
   <g id="line2d_28">
    <path d="M 93.922955 294.88 
L 93.922955 294.320818 
L 114.053874 294.320818 
L 114.053874 293.761636 
L 118.704183 293.761636 
L 118.704183 293.202453 
L 120.830944 293.202453 
L 120.830944 291.524907 
L 126.847034 291.524907 
L 126.847034 285.933084 
L 135.522531 285.933084 
L 135.522531 284.81472 
L 136.026124 284.81472 
L 136.026124 283.137173 
L 136.675441 283.137173 
L 136.675441 280.900444 
L 137.60566 280.900444 
L 137.60566 279.782079 
L 138.772539 279.782079 
L 138.772539 278.663715 
L 139.190491 278.663715 
L 139.190491 276.426986 
L 143.862519 276.426986 
L 143.862519 272.51271 
L 144.979451 272.51271 
L 144.979451 271.394346 
L 152.312182 271.394346 
L 152.312182 270.275981 
L 152.567074 270.275981 
L 152.567074 268.598435 
L 153.550477 268.598435 
L 153.550477 268.039252 
L 154.480696 268.039252 
L 154.480696 267.48007 
L 160.123507 267.48007 
L 160.123507 266.361706 
L 160.285818 266.361706 
L 160.285818 263.006612 
L 160.486577 263.006612 
L 160.486577 262.44743 
L 162.903308 262.44743 
L 162.903308 261.888248 
L 165.083228 261.888248 
L 165.083228 260.210701 
L 170.38065 260.210701 
L 170.38065 258.533154 
L 170.62596 258.533154 
L 170.62596 257.41479 
L 172.491734 257.41479 
L 172.551232 255.178061 
L 173.306547 255.178061 
L 173.306547 252.38215 
L 173.569796 252.38215 
L 173.569796 251.822967 
L 177.431329 251.822967 
L 177.431329 250.704603 
L 179.494176 250.704603 
L 179.494176 250.145421 
L 186.046197 250.145421 
L 186.046197 247.908692 
L 186.38619 247.908692 
L 186.395047 246.790327 
L 186.500978 246.790327 
L 186.500978 243.994416 
L 186.667379 243.994416 
L 186.667379 243.435234 
L 187.182533 243.435234 
L 187.182533 242.876052 
L 188.571366 242.876052 
L 188.571366 241.757687 
L 193.654969 241.757687 
L 193.654969 241.198505 
L 204.146157 241.198505 
L 204.146157 240.639323 
L 281.890621 240.639323 
L 281.956313 234.488318 
L 282.012875 234.488318 
L 282.075108 232.810771 
L 291.416323 232.810771 
L 291.416323 232.251589 
L 293.815076 232.251589 
L 293.881629 227.218949 
L 298.197408 227.218949 
L 298.197408 226.659767 
L 299.229212 226.659767 
L 299.229212 225.541402 
L 300.790699 225.541402 
L 300.822394 222.745491 
L 305.756237 222.745491 
L 305.773365 220.508762 
L 309.584933 220.508762 
L 309.605759 217.153669 
L 312.715854 217.153669 
L 312.738067 216.035304 
L 314.715994 216.035304 
L 314.715994 214.91694 
L 315.367945 214.91694 
L 315.381537 213.798575 
L 317.68847 213.798575 
L 317.68847 212.680211 
L 319.69645 212.680211 
L 319.69645 212.121028 
L 323.157844 212.121028 
L 323.157844 211.561846 
L 324.649113 211.561846 
L 324.656635 210.443482 
L 326.032557 210.443482 
L 326.032557 209.884299 
L 327.306545 209.884299 
L 327.306545 209.325117 
L 329.308474 209.325117 
L 329.308474 208.765935 
L 331.366486 208.765935 
L 331.366486 208.206753 
L 332.557071 208.206753 
L 332.557071 207.64757 
L 333.429677 207.64757 
L 333.429677 207.64757 
" style="fill:none;stroke:#ff00ff;stroke-linecap:square;stroke-width:1.5;"/>
   </g>
   <g id="line2d_29">
    <defs>
     <path d="M -0 8.485281 
L 5.091169 0 
L 0 -8.485281 
L -5.091169 -0 
z
" id="m605dcc1386" style="stroke:#ff00ff;stroke-linejoin:miter;stroke-width:1.5;"/>
    </defs>
    <g>
     <use style="fill-opacity:0;stroke:#ff00ff;stroke-linejoin:miter;stroke-width:1.5;" x="173.306547" xlink:href="#m605dcc1386" y="252.38215"/>
     <use style="fill-opacity:0;stroke:#ff00ff;stroke-linejoin:miter;stroke-width:1.5;" x="204.146157" xlink:href="#m605dcc1386" y="240.639323"/>
     <use style="fill-opacity:0;stroke:#ff00ff;stroke-linejoin:miter;stroke-width:1.5;" x="332.557071" xlink:href="#m605dcc1386" y="207.64757"/>
     <use style="fill-opacity:0;stroke:#ff00ff;stroke-linejoin:miter;stroke-width:1.5;" x="332.557071" xlink:href="#m605dcc1386" y="207.64757"/>
     <use style="fill-opacity:0;stroke:#ff00ff;stroke-linejoin:miter;stroke-width:1.5;" x="333.429677" xlink:href="#m605dcc1386" y="207.64757"/>
    </g>
   </g>
   <g id="line2d_30">
    <path style="fill:none;stroke:#ff00ff;stroke-linecap:square;stroke-width:1.5;"/>
    <g/>
   </g>
   <g id="line2d_31">
    <path clip-path="url(#p3d5c6c03fa)" d="M 281.888522 240.639323 
" style="fill:none;stroke:#ff00ff;stroke-linecap:square;stroke-width:1.5;"/>
    <defs>
     <path d="M -12 12 
L 12 -12 
M -12 -12 
L 12 12 
" id="mb6232be606" style="stroke:#ff00ff;stroke-width:3;"/>
    </defs>
    <g clip-path="url(#p3d5c6c03fa)">
     <use style="fill:#ff00ff;stroke:#ff00ff;stroke-width:3;" x="281.888522" xlink:href="#mb6232be606" y="240.639323"/>
    </g>
   </g>
   <g id="line2d_32">
    <defs>
     <path d="M 0 1.5 
C 0.397805 1.5 0.77937 1.341951 1.06066 1.06066 
C 1.341951 0.77937 1.5 0.397805 1.5 0 
C 1.5 -0.397805 1.341951 -0.77937 1.06066 -1.06066 
C 0.77937 -1.341951 0.397805 -1.5 0 -1.5 
C -0.397805 -1.5 -0.77937 -1.341951 -1.06066 -1.06066 
C -1.341951 -0.77937 -1.5 -0.397805 -1.5 0 
C -1.5 0.397805 -1.341951 0.77937 -1.06066 1.06066 
C -0.77937 1.341951 -0.397805 1.5 0 1.5 
z
" id="m4ead8a2c41" style="stroke:#ffa500;"/>
    </defs>
    <g>
     <use style="fill:#ffa500;stroke:#ffa500;" x="342.053278" xlink:href="#m4ead8a2c41" y="9.697057"/>
     <use style="fill:#ffa500;stroke:#ffa500;" x="342.053278" xlink:href="#m4ead8a2c41" y="9.697057"/>
    </g>
   </g>
   <g id="line2d_33">
    <path d="M 56.12 294.88 
L 56.12 282.018808 
L 68.045504 282.018808 
L 68.045504 274.749439 
L 75.021477 274.749439 
L 75.021477 274.190257 
L 79.971009 274.190257 
L 79.971009 270.835164 
L 83.810164 270.835164 
L 83.810164 269.716799 
L 86.946982 269.716799 
L 86.946982 268.598435 
L 89.599124 268.598435 
L 89.599124 266.920888 
L 106.778678 266.920888 
L 106.778678 266.361706 
L 107.661173 266.361706 
L 107.661173 265.802523 
L 108.500601 265.802523 
L 108.500601 264.124977 
L 117.289287 264.124977 
L 117.289287 263.006612 
L 118.245359 263.006612 
L 118.245359 262.44743 
L 122.723495 262.44743 
L 122.723495 261.888248 
L 128.461173 261.888248 
L 128.461173 261.329066 
L 136.353845 261.329066 
L 136.353845 260.210701 
L 136.515394 260.210701 
L 136.515394 259.651519 
L 139.052299 259.651519 
L 139.052299 259.092337 
L 141.262751 259.092337 
L 141.262751 257.41479 
L 142.441628 257.41479 
L 142.441628 255.178061 
L 146.120523 255.178061 
L 146.120523 254.618879 
L 150.341822 254.618879 
L 150.341822 253.500514 
L 151.856829 253.500514 
L 151.856829 252.38215 
L 152.183306 252.38215 
L 152.183306 251.822967 
L 153.004245 251.822967 
L 153.004245 251.263785 
L 153.249158 251.263785 
L 153.249158 250.704603 
L 153.96365 250.704603 
L 153.96365 250.145421 
L 154.480696 250.145421 
L 154.480696 249.586238 
L 155.523735 249.586238 
L 155.523735 249.027056 
L 159.794217 249.027056 
L 159.794217 248.467874 
L 162.374969 248.467874 
L 162.374969 247.908692 
L 165.11376 247.908692 
L 165.11376 247.34951 
L 166.797873 247.34951 
L 166.797873 246.790327 
L 168.128123 246.790327 
L 168.128123 246.231145 
L 169.786532 246.231145 
L 169.786532 245.112781 
L 171.170808 245.112781 
L 171.170808 244.553598 
L 174.584272 244.553598 
L 174.584272 242.876052 
L 174.828812 242.876052 
L 174.828812 242.316869 
L 175.969513 242.316869 
L 175.969513 241.757687 
L 176.370577 241.757687 
L 176.370577 239.520958 
L 177.9743 239.520958 
L 177.9743 238.961776 
L 178.146781 238.961776 
L 178.146781 237.284229 
L 179.361422 237.284229 
L 179.361422 236.165865 
L 180.939322 236.165865 
L 180.939322 235.606682 
L 183.831226 235.606682 
L 183.831226 234.488318 
L 184.015237 234.488318 
L 184.015237 232.251589 
L 184.307621 232.251589 
L 184.307621 231.692407 
L 187.37599 231.692407 
L 187.37599 231.133225 
L 190.129397 231.133225 
L 190.129397 230.574042 
L 190.419155 230.574042 
L 190.496072 228.896496 
L 190.766039 228.896496 
L 190.766039 227.778131 
L 191.139704 227.778131 
L 191.139704 227.218949 
L 191.413067 227.218949 
L 191.413067 226.659767 
L 192.415201 226.659767 
L 192.415201 226.100584 
L 192.961824 226.100584 
L 192.961824 225.541402 
L 193.237683 225.541402 
L 193.237683 222.186309 
L 193.515044 222.186309 
L 193.515044 220.508762 
L 194.158506 220.508762 
L 194.20356 218.272033 
L 194.410412 218.272033 
L 194.410412 217.712851 
L 194.603821 217.712851 
L 194.603821 211.561846 
L 194.914219 211.561846 
L 194.989608 206.529206 
L 196.21312 206.529206 
L 196.21312 204.851659 
L 197.033951 204.851659 
L 197.033951 202.055748 
L 197.652493 202.055748 
L 197.652493 199.819019 
L 198.218419 199.819019 
L 198.218419 197.023108 
L 198.496742 197.023108 
L 198.597241 195.345561 
L 198.938028 195.345561 
L 198.938028 194.227197 
L 199.188208 194.227197 
L 199.188208 192.54965 
L 200.578603 192.54965 
L 200.578603 189.194556 
L 200.698552 189.194556 
L 200.698552 187.51701 
L 202.161478 187.51701 
L 202.161478 186.957828 
L 203.437507 186.957828 
L 203.437507 186.398645 
L 203.672657 186.398645 
L 203.672657 185.839463 
L 204.829802 185.839463 
L 204.829802 185.280281 
L 205.516482 185.280281 
L 205.516482 183.602734 
L 207.496235 183.602734 
L 207.496235 181.366005 
L 207.820428 181.366005 
L 207.820428 180.806823 
L 208.573463 180.806823 
L 208.573463 179.688458 
L 210.444144 179.688458 
L 210.444144 175.774183 
L 211.107397 175.774183 
L 211.107397 174.096636 
L 212.214351 174.096636 
L 212.214351 171.300725 
L 213.172397 171.300725 
L 213.172397 167.945631 
L 214.980629 167.945631 
L 214.980629 167.386449 
L 215.214394 167.386449 
L 215.214394 165.708902 
L 215.640279 165.708902 
L 215.727425 164.590538 
L 215.944968 164.590538 
L 215.944968 159.557898 
L 216.36732 159.557898 
L 216.36732 158.998715 
L 217.005202 158.998715 
L 217.005202 156.761987 
L 218.032057 156.761987 
L 218.032057 156.202804 
L 218.386004 156.202804 
L 218.386004 155.08444 
L 281.995923 155.08444 
L 282.090487 146.696706 
L 282.129484 146.696706 
L 282.237115 139.986519 
L 282.241835 139.986519 
L 282.266056 133.276332 
L 293.84938 133.276332 
L 293.948762 123.770234 
L 293.9633 123.770234 
L 294.027312 109.231496 
L 300.83282 109.231496 
L 300.932483 94.133576 
L 305.766444 94.133576 
L 305.844333 76.798926 
L 309.605937 76.798926 
L 309.662578 68.970375 
L 312.754171 68.970375 
L 312.777467 63.937735 
L 315.405553 63.937735 
L 315.428855 54.990819 
L 317.693503 54.990819 
L 317.710945 46.043903 
L 319.714035 46.043903 
L 319.731094 42.129627 
L 321.526968 42.129627 
L 321.546188 33.741894 
L 323.155678 33.741894 
L 323.177815 28.709253 
L 324.662481 28.709253 
L 324.676013 22.558249 
L 326.033752 22.558249 
L 326.050447 19.762337 
L 327.319267 19.762337 
L 327.319267 18.643973 
L 328.496333 18.643973 
L 328.497343 17.525609 
L 329.61351 17.525609 
L 329.61351 16.966426 
L 330.647846 16.966426 
L 330.650109 15.848062 
L 331.634584 15.848062 
L 331.634584 15.28888 
L 332.559967 15.28888 
L 332.567278 13.611333 
L 333.429677 13.611333 
L 333.429677 13.611333 
" style="fill:none;stroke:#ffa500;stroke-linecap:square;stroke-width:1.5;"/>
   </g>
   <g id="line2d_34">
    <defs>
     <path d="M 0 -6 
L -1.347084 -1.854102 
L -5.706339 -1.854102 
L -2.179628 0.708204 
L -3.526712 4.854102 
L -0 2.291796 
L 3.526712 4.854102 
L 2.179628 0.708204 
L 5.706339 -1.854102 
L 1.347084 -1.854102 
z
" id="mf8f3a0aaed" style="stroke:#ffa500;stroke-linejoin:bevel;stroke-width:1.5;"/>
    </defs>
    <g>
     <use style="fill-opacity:0;stroke:#ffa500;stroke-linejoin:bevel;stroke-width:1.5;" x="183.831226" xlink:href="#mf8f3a0aaed" y="234.488318"/>
     <use style="fill-opacity:0;stroke:#ffa500;stroke-linejoin:bevel;stroke-width:1.5;" x="218.386004" xlink:href="#mf8f3a0aaed" y="155.08444"/>
     <use style="fill-opacity:0;stroke:#ffa500;stroke-linejoin:bevel;stroke-width:1.5;" x="323.177815" xlink:href="#mf8f3a0aaed" y="28.709253"/>
     <use style="fill-opacity:0;stroke:#ffa500;stroke-linejoin:bevel;stroke-width:1.5;" x="332.567278" xlink:href="#mf8f3a0aaed" y="13.611333"/>
     <use style="fill-opacity:0;stroke:#ffa500;stroke-linejoin:bevel;stroke-width:1.5;" x="333.429677" xlink:href="#mf8f3a0aaed" y="13.611333"/>
    </g>
   </g>
   <g id="line2d_35">
    <path style="fill:none;stroke:#ffa500;stroke-linecap:square;stroke-width:1.5;"/>
    <g/>
   </g>
   <g id="line2d_36">
    <path clip-path="url(#p3d5c6c03fa)" d="M 281.888522 155.08444 
" style="fill:none;stroke:#ffa500;stroke-linecap:square;stroke-width:1.5;"/>
    <defs>
     <path d="M -12 12 
L 12 -12 
M -12 -12 
L 12 12 
" id="m37ef292c68" style="stroke:#ffa500;stroke-width:3;"/>
    </defs>
    <g clip-path="url(#p3d5c6c03fa)">
     <use style="fill:#ffa500;stroke:#ffa500;stroke-width:3;" x="281.888522" xlink:href="#m37ef292c68" y="155.08444"/>
    </g>
   </g>
   <g id="line2d_37">
    <defs>
     <path d="M 0 1.5 
C 0.397805 1.5 0.77937 1.341951 1.06066 1.06066 
C 1.341951 0.77937 1.5 0.397805 1.5 0 
C 1.5 -0.397805 1.341951 -0.77937 1.06066 -1.06066 
C 0.77937 -1.341951 0.397805 -1.5 0 -1.5 
C -0.397805 -1.5 -0.77937 -1.341951 -1.06066 -1.06066 
C -1.341951 -0.77937 -1.5 -0.397805 -1.5 0 
C -1.5 0.397805 -1.341951 0.77937 -1.06066 1.06066 
C -0.77937 1.341951 -0.397805 1.5 0 1.5 
z
" id="m7d3571d85f" style="stroke:#6495ed;"/>
    </defs>
    <g>
     <use style="fill:#6495ed;stroke:#6495ed;" x="353.4422" xlink:href="#m7d3571d85f" y="183.043552"/>
     <use style="fill:#6495ed;stroke:#6495ed;" x="353.4422" xlink:href="#m7d3571d85f" y="183.043552"/>
    </g>
   </g>
   <g id="line2d_38">
    <path d="M 56.12 294.88 
L 56.12 284.81472 
L 68.045504 284.81472 
L 68.045504 280.900444 
L 75.021477 280.900444 
L 75.021477 276.986168 
L 79.971009 276.986168 
L 79.971009 275.308622 
L 86.946982 275.308622 
L 86.946982 274.749439 
L 91.896513 274.749439 
L 91.896513 272.51271 
L 97.375467 272.51271 
L 97.375467 271.394346 
L 98.872486 271.394346 
L 98.872486 270.275981 
L 106.778678 270.275981 
L 106.778678 267.48007 
L 107.661173 267.48007 
L 107.661173 266.920888 
L 112.175115 266.920888 
L 112.175115 264.684159 
L 117.773963 264.684159 
L 117.773963 263.006612 
L 125.065631 263.006612 
L 125.065631 262.44743 
L 126.273486 262.44743 
L 126.273486 261.329066 
L 132.145561 261.329066 
L 132.145561 260.210701 
L 134.286778 260.210701 
L 134.286778 259.651519 
L 134.82729 259.651519 
L 134.82729 259.092337 
L 137.755922 259.092337 
L 137.755922 258.533154 
L 139.327583 258.533154 
L 139.327583 257.973972 
L 139.865278 257.973972 
L 139.865278 257.41479 
L 140.89274 257.41479 
L 140.89274 256.296425 
L 141.016963 256.296425 
L 141.016963 255.178061 
L 145.935523 255.178061 
L 145.935523 254.059696 
L 147.103926 254.059696 
L 147.103926 253.500514 
L 148.440899 253.500514 
L 148.440899 252.941332 
L 148.91664 252.941332 
L 148.91664 252.38215 
L 151.115996 252.38215 
L 151.115996 251.822967 
L 151.321225 251.822967 
L 151.321225 250.704603 
L 153.550477 250.704603 
L 153.550477 249.586238 
L 153.728767 249.586238 
L 153.728767 249.027056 
L 154.195368 249.027056 
L 154.195368 248.467874 
L 159.543047 248.467874 
L 159.543047 247.34951 
L 164.743749 247.34951 
L 164.743749 246.790327 
L 168.457777 246.790327 
L 168.457777 246.231145 
L 169.074505 246.231145 
L 169.074505 245.671963 
L 174.1568 245.671963 
L 174.1568 244.553598 
L 177.341643 244.553598 
L 177.341643 242.876052 
L 177.887406 242.876052 
L 177.887406 241.198505 
L 178.275017 241.198505 
L 178.275017 235.0475 
L 182.057296 235.0475 
L 182.057296 234.488318 
L 184.644206 234.488318 
L 184.644206 233.929136 
L 184.761446 233.929136 
L 184.761446 233.369954 
L 185.222575 233.369954 
L 185.222575 232.251589 
L 186.667379 232.251589 
L 186.667379 231.133225 
L 196.137891 231.133225 
L 196.137891 230.574042 
L 200.383358 230.574042 
L 200.383358 230.01486 
L 204.762951 230.01486 
L 204.762951 229.455678 
L 211.55835 229.455678 
L 211.55835 228.896496 
L 212.52545 228.896496 
L 212.52545 227.778131 
L 281.927979 227.778131 
L 281.957341 223.863855 
L 293.833766 223.863855 
L 293.847955 216.594486 
L 300.803895 216.594486 
L 300.812626 213.239393 
L 305.749404 213.239393 
L 305.756504 210.443482 
L 309.586584 210.443482 
L 309.592265 204.851659 
L 312.722453 204.851659 
L 312.726821 201.496566 
L 315.373602 201.496566 
L 315.373602 200.378201 
L 317.669972 200.378201 
L 317.669972 199.259837 
L 319.69611 199.259837 
L 319.699022 197.023108 
L 321.50836 197.023108 
L 321.50836 195.345561 
L 323.14778 195.345561 
L 323.14778 194.227197 
L 324.646668 194.227197 
L 324.646668 193.668014 
L 326.021171 193.668014 
L 326.02134 191.431285 
L 328.482943 191.431285 
L 328.482943 190.872103 
L 330.636031 190.872103 
L 330.636031 190.312921 
L 331.619298 190.312921 
L 331.619298 189.753739 
L 332.549395 189.753739 
L 332.549395 189.194556 
L 333.429677 189.194556 
L 333.429677 189.194556 
" style="fill:none;stroke:#6495ed;stroke-linecap:square;stroke-width:1.5;"/>
   </g>
   <g id="line2d_39">
    <defs>
     <path d="M -0 6 
L 6 -6 
L -6 -6 
z
" id="m1553f0063f" style="stroke:#6495ed;stroke-linejoin:miter;stroke-width:1.5;"/>
    </defs>
    <g>
     <use style="fill-opacity:0;stroke:#6495ed;stroke-linejoin:miter;stroke-width:1.5;" x="145.935523" xlink:href="#m1553f0063f" y="255.178061"/>
     <use style="fill-opacity:0;stroke:#6495ed;stroke-linejoin:miter;stroke-width:1.5;" x="212.52545" xlink:href="#m1553f0063f" y="228.896496"/>
     <use style="fill-opacity:0;stroke:#6495ed;stroke-linejoin:miter;stroke-width:1.5;" x="293.847955" xlink:href="#m1553f0063f" y="216.594486"/>
     <use style="fill-opacity:0;stroke:#6495ed;stroke-linejoin:miter;stroke-width:1.5;" x="332.549395" xlink:href="#m1553f0063f" y="189.194556"/>
     <use style="fill-opacity:0;stroke:#6495ed;stroke-linejoin:miter;stroke-width:1.5;" x="333.429677" xlink:href="#m1553f0063f" y="189.194556"/>
    </g>
   </g>
   <g id="line2d_40">
    <path style="fill:none;stroke:#6495ed;stroke-linecap:square;stroke-width:1.5;"/>
    <g/>
   </g>
   <g id="line2d_41">
    <path clip-path="url(#p3d5c6c03fa)" d="M 281.888522 227.778131 
" style="fill:none;stroke:#6495ed;stroke-linecap:square;stroke-width:1.5;"/>
    <defs>
     <path d="M -12 12 
L 12 -12 
M -12 -12 
L 12 12 
" id="m03b565077e" style="stroke:#6495ed;stroke-width:3;"/>
    </defs>
    <g clip-path="url(#p3d5c6c03fa)">
     <use style="fill:#6495ed;stroke:#6495ed;stroke-width:3;" x="281.888522" xlink:href="#m03b565077e" y="227.778131"/>
    </g>
   </g>
   <g id="line2d_42">
    <defs>
     <path d="M 0 1.5 
C 0.397805 1.5 0.77937 1.341951 1.06066 1.06066 
C 1.341951 0.77937 1.5 0.397805 1.5 0 
C 1.5 -0.397805 1.341951 -0.77937 1.06066 -1.06066 
C 0.77937 -1.341951 0.397805 -1.5 0 -1.5 
C -0.397805 -1.5 -0.77937 -1.341951 -1.06066 -1.06066 
C -1.341951 -0.77937 -1.5 -0.397805 -1.5 0 
C -1.5 0.397805 -1.341951 0.77937 -1.06066 1.06066 
C -0.77937 1.341951 -0.397805 1.5 0 1.5 
z
" id="m9ec09dd9d1" style="stroke:#ff0000;"/>
    </defs>
    <g>
     <use style="fill:#ff0000;stroke:#ff0000;" x="153.550477" xlink:href="#m9ec09dd9d1" y="9.697057"/>
     <use style="fill:#ff0000;stroke:#ff0000;" x="153.550477" xlink:href="#m9ec09dd9d1" y="9.697057"/>
    </g>
   </g>
   <g id="line2d_43">
    <path d="M 56.12 294.88 
L 56.12 284.255537 
L 68.045504 284.255537 
L 68.045504 283.696355 
L 75.021477 283.696355 
L 75.021477 282.577991 
L 83.810164 282.577991 
L 83.810164 280.341262 
L 89.599124 280.341262 
L 89.599124 279.782079 
L 98.872486 279.782079 
L 98.872486 278.663715 
L 104.865056 278.663715 
L 104.865056 278.104533 
L 108.500601 278.104533 
L 108.500601 276.986168 
L 133.346388 276.986168 
L 133.346388 276.426986 
L 135.522531 276.426986 
L 135.522531 273.071893 
L 135.692038 273.071893 
L 135.692038 255.737243 
L 136.026124 255.737243 
L 136.026124 254.059696 
L 136.190765 254.059696 
L 136.190765 252.38215 
L 136.515394 252.38215 
L 136.515394 251.822967 
L 136.675441 251.822967 
L 136.675441 247.908692 
L 137.146836 247.908692 
L 137.146836 247.34951 
L 137.454074 247.34951 
L 137.454074 246.231145 
L 137.755922 246.231145 
L 137.755922 245.671963 
L 137.904883 245.671963 
L 137.904883 244.553598 
L 139.865278 244.553598 
L 139.865278 242.876052 
L 139.997117 242.876052 
L 139.997117 226.659767 
L 141.016963 226.659767 
L 141.016963 226.100584 
L 143.002096 226.100584 
L 143.002096 224.98222 
L 143.75729 224.98222 
L 143.75729 224.423038 
L 146.028272 224.423038 
L 146.028272 223.863855 
L 146.484661 223.863855 
L 146.484661 222.745491 
L 146.66388 222.745491 
L 146.66388 222.186309 
L 146.841251 222.186309 
L 146.841251 221.627126 
L 147.362651 221.627126 
L 147.362651 221.067944 
L 147.448035 221.067944 
L 147.448035 217.153669 
L 147.532997 217.153669 
L 147.532997 200.378201 
L 147.785396 200.378201 
L 147.785396 168.504814 
L 147.951628 168.504814 
L 147.951628 148.933435 
L 148.198003 148.933435 
L 148.198003 136.072244 
L 148.27935 136.072244 
L 148.27935 123.211052 
L 148.440899 123.211052 
L 148.440899 121.533505 
L 149.149666 121.533505 
L 149.149666 106.435585 
L 149.226646 106.435585 
L 149.226646 93.015211 
L 149.379579 93.015211 
L 149.379579 72.88465 
L 149.681426 72.88465 
L 149.681426 71.766286 
L 150.908289 71.766286 
L 150.908289 71.207104 
L 151.253087 71.207104 
L 151.253087 54.990819 
L 151.389095 54.990819 
L 151.389095 53.872454 
L 152.503704 53.872454 
L 152.503704 37.096987 
L 153.430582 37.096987 
L 153.430582 21.999066 
L 153.550477 21.999066 
L 153.550477 9.697057 
L 333.429677 9.697057 
" style="fill:none;stroke:#ff0000;stroke-linecap:square;stroke-width:1.5;"/>
   </g>
   <g id="line2d_44">
    <defs>
     <path d="M 0 -6 
L -5.196152 -3 
L -5.196152 3 
L -0 6 
L 5.196152 3 
L 5.196152 -3 
z
" id="md04f13bd51" style="stroke:#ff0000;stroke-linejoin:miter;stroke-width:1.5;"/>
    </defs>
    <g>
     <use style="fill-opacity:0;stroke:#ff0000;stroke-linejoin:miter;stroke-width:1.5;" x="147.785396" xlink:href="#md04f13bd51" y="200.378201"/>
     <use style="fill-opacity:0;stroke:#ff0000;stroke-linejoin:miter;stroke-width:1.5;" x="153.550477" xlink:href="#md04f13bd51" y="21.999066"/>
     <use style="fill-opacity:0;stroke:#ff0000;stroke-linejoin:miter;stroke-width:1.5;" x="153.550477" xlink:href="#md04f13bd51" y="9.697057"/>
     <use style="fill-opacity:0;stroke:#ff0000;stroke-linejoin:miter;stroke-width:1.5;" x="153.550477" xlink:href="#md04f13bd51" y="9.697057"/>
     <use style="fill-opacity:0;stroke:#ff0000;stroke-linejoin:miter;stroke-width:1.5;" x="333.429677" xlink:href="#md04f13bd51" y="9.697057"/>
    </g>
   </g>
   <g id="line2d_45">
    <path style="fill:none;stroke:#ff0000;stroke-linecap:square;stroke-width:1.5;"/>
    <g/>
   </g>
   <g id="line2d_46">
    <path d="M 333.429677 207.64757 
L 363.933742 289.176341 
" style="fill:none;stroke:#ff00ff;stroke-linecap:square;stroke-width:1.5;"/>
    <g>
     <use style="fill-opacity:0;stroke:#ff00ff;stroke-linejoin:miter;stroke-width:1.5;" x="333.429677" xlink:href="#m605dcc1386" y="207.64757"/>
     <use style="fill-opacity:0;stroke:#ff00ff;stroke-linejoin:miter;stroke-width:1.5;" x="363.933742" xlink:href="#m605dcc1386" y="289.176341"/>
    </g>
   </g>
   <g id="line2d_47">
    <path d="M 333.429677 189.194556 
L 363.933742 220.732435 
" style="fill:none;stroke:#6495ed;stroke-linecap:square;stroke-width:1.5;"/>
    <g>
     <use style="fill-opacity:0;stroke:#6495ed;stroke-linejoin:miter;stroke-width:1.5;" x="333.429677" xlink:href="#m1553f0063f" y="189.194556"/>
     <use style="fill-opacity:0;stroke:#6495ed;stroke-linejoin:miter;stroke-width:1.5;" x="363.933742" xlink:href="#m1553f0063f" y="220.732435"/>
    </g>
   </g>
   <g id="line2d_48">
    <path d="M 333.429677 13.611333 
L 363.933742 152.288529 
" style="fill:none;stroke:#ffa500;stroke-linecap:square;stroke-width:1.5;"/>
    <g>
     <use style="fill-opacity:0;stroke:#ffa500;stroke-linejoin:bevel;stroke-width:1.5;" x="333.429677" xlink:href="#mf8f3a0aaed" y="13.611333"/>
     <use style="fill-opacity:0;stroke:#ffa500;stroke-linejoin:bevel;stroke-width:1.5;" x="363.933742" xlink:href="#mf8f3a0aaed" y="152.288529"/>
    </g>
   </g>
   <g id="line2d_49">
    <path d="M 333.429677 9.697057 
L 363.933742 83.844622 
" style="fill:none;stroke:#000080;stroke-linecap:square;stroke-width:1.5;"/>
    <g>
     <use style="fill-opacity:0;stroke:#000080;stroke-width:1.5;" x="333.429677" xlink:href="#mb32d1d9ac3" y="9.697057"/>
     <use style="fill-opacity:0;stroke:#000080;stroke-width:1.5;" x="363.933742" xlink:href="#mb32d1d9ac3" y="83.844622"/>
    </g>
   </g>
   <g id="line2d_50">
    <path d="M 333.429677 9.697057 
L 363.933742 15.400716 
" style="fill:none;stroke:#ff0000;stroke-linecap:square;stroke-width:1.5;"/>
    <g>
     <use style="fill-opacity:0;stroke:#ff0000;stroke-linejoin:miter;stroke-width:1.5;" x="333.429677" xlink:href="#md04f13bd51" y="9.697057"/>
     <use style="fill-opacity:0;stroke:#ff0000;stroke-linejoin:miter;stroke-width:1.5;" x="363.933742" xlink:href="#md04f13bd51" y="15.400716"/>
    </g>
   </g>
   <g id="line2d_51">
    <path d="M 333.429677 294.88 
L 333.429677 9.697057 
" style="fill:none;stroke:#000000;stroke-linecap:square;stroke-width:1.5;"/>
   </g>
   <g id="patch_3">
    <path d="M 56.12 294.88 
L 56.12 6.845228 
" style="fill:none;stroke:#000000;stroke-linecap:square;stroke-linejoin:miter;stroke-width:0.8;"/>
   </g>
   <g id="patch_4">
    <path d="M 399.984 294.88 
L 399.984 6.845228 
" style="fill:none;stroke:#000000;stroke-linecap:square;stroke-linejoin:miter;stroke-width:0.8;"/>
   </g>
   <g id="patch_5">
    <path d="M 56.12 294.88 
L 399.984 294.88 
" style="fill:none;stroke:#000000;stroke-linecap:square;stroke-linejoin:miter;stroke-width:0.8;"/>
   </g>
   <g id="patch_6">
    <path d="M 56.12 6.845228 
L 399.984 6.845228 
" style="fill:none;stroke:#000000;stroke-linecap:square;stroke-linejoin:miter;stroke-width:0.8;"/>
   </g>
   <g id="text_14">
    <!-- f2 -->
    <g transform="translate(369.479935 293.867279)scale(0.17 -0.17)">
     <use xlink:href="#DejaVuSans-66"/>
     <use x="35.205078" xlink:href="#DejaVuSans-32"/>
    </g>
   </g>
   <g id="text_15">
    <!-- f4 -->
    <g transform="translate(369.479935 225.423372)scale(0.17 -0.17)">
     <use xlink:href="#DejaVuSans-66"/>
     <use x="35.205078" xlink:href="#DejaVuSans-34"/>
    </g>
   </g>
   <g id="text_16">
    <!-- f3 -->
    <defs>
     <path d="M 40.578125 39.3125 
Q 47.65625 37.796875 51.625 33 
Q 55.609375 28.21875 55.609375 21.1875 
Q 55.609375 10.40625 48.1875 4.484375 
Q 40.765625 -1.421875 27.09375 -1.421875 
Q 22.515625 -1.421875 17.65625 -0.515625 
Q 12.796875 0.390625 7.625 2.203125 
L 7.625 11.71875 
Q 11.71875 9.328125 16.59375 8.109375 
Q 21.484375 6.890625 26.8125 6.890625 
Q 36.078125 6.890625 40.9375 10.546875 
Q 45.796875 14.203125 45.796875 21.1875 
Q 45.796875 27.640625 41.28125 31.265625 
Q 36.765625 34.90625 28.71875 34.90625 
L 20.21875 34.90625 
L 20.21875 43.015625 
L 29.109375 43.015625 
Q 36.375 43.015625 40.234375 45.921875 
Q 44.09375 48.828125 44.09375 54.296875 
Q 44.09375 59.90625 40.109375 62.90625 
Q 36.140625 65.921875 28.71875 65.921875 
Q 24.65625 65.921875 20.015625 65.03125 
Q 15.375 64.15625 9.8125 62.3125 
L 9.8125 71.09375 
Q 15.4375 72.65625 20.34375 73.4375 
Q 25.25 74.21875 29.59375 74.21875 
Q 40.828125 74.21875 47.359375 69.109375 
Q 53.90625 64.015625 53.90625 55.328125 
Q 53.90625 49.265625 50.4375 45.09375 
Q 46.96875 40.921875 40.578125 39.3125 
z
" id="DejaVuSans-33"/>
    </defs>
    <g transform="translate(369.479935 156.979466)scale(0.17 -0.17)">
     <use xlink:href="#DejaVuSans-66"/>
     <use x="35.205078" xlink:href="#DejaVuSans-33"/>
    </g>
   </g>
   <g id="text_17">
    <!-- f1 -->
    <g transform="translate(369.479935 88.53556)scale(0.17 -0.17)">
     <use xlink:href="#DejaVuSans-66"/>
     <use x="35.205078" xlink:href="#DejaVuSans-31"/>
    </g>
   </g>
   <g id="text_18">
    <!-- f5 -->
    <defs>
     <path d="M 10.796875 72.90625 
L 49.515625 72.90625 
L 49.515625 64.59375 
L 19.828125 64.59375 
L 19.828125 46.734375 
Q 21.96875 47.46875 24.109375 47.828125 
Q 26.265625 48.1875 28.421875 48.1875 
Q 40.625 48.1875 47.75 41.5 
Q 54.890625 34.8125 54.890625 23.390625 
Q 54.890625 11.625 47.5625 5.09375 
Q 40.234375 -1.421875 26.90625 -1.421875 
Q 22.3125 -1.421875 17.546875 -0.640625 
Q 12.796875 0.140625 7.71875 1.703125 
L 7.71875 11.625 
Q 12.109375 9.234375 16.796875 8.0625 
Q 21.484375 6.890625 26.703125 6.890625 
Q 35.15625 6.890625 40.078125 11.328125 
Q 45.015625 15.765625 45.015625 23.390625 
Q 45.015625 31 40.078125 35.4375 
Q 35.15625 39.890625 26.703125 39.890625 
Q 22.75 39.890625 18.8125 39.015625 
Q 14.890625 38.140625 10.796875 36.28125 
z
" id="DejaVuSans-35"/>
    </defs>
    <g transform="translate(369.479935 20.091654)scale(0.17 -0.17)">
     <use xlink:href="#DejaVuSans-66"/>
     <use x="35.205078" xlink:href="#DejaVuSans-35"/>
    </g>
   </g>
   <g id="text_19">
    <!-- bbob -->
    <defs>
     <path d="M 48.6875 27.296875 
Q 48.6875 37.203125 44.609375 42.84375 
Q 40.53125 48.484375 33.40625 48.484375 
Q 26.265625 48.484375 22.1875 42.84375 
Q 18.109375 37.203125 18.109375 27.296875 
Q 18.109375 17.390625 22.1875 11.75 
Q 26.265625 6.109375 33.40625 6.109375 
Q 40.53125 6.109375 44.609375 11.75 
Q 48.6875 17.390625 48.6875 27.296875 
z
M 18.109375 46.390625 
Q 20.953125 51.265625 25.265625 53.625 
Q 29.59375 56 35.59375 56 
Q 45.5625 56 51.78125 48.09375 
Q 58.015625 40.1875 58.015625 27.296875 
Q 58.015625 14.40625 51.78125 6.484375 
Q 45.5625 -1.421875 35.59375 -1.421875 
Q 29.59375 -1.421875 25.265625 0.953125 
Q 20.953125 3.328125 18.109375 8.203125 
L 18.109375 0 
L 9.078125 0 
L 9.078125 75.984375 
L 18.109375 75.984375 
z
" id="DejaVuSans-62"/>
    </defs>
    <g transform="translate(59.55864 17.475982)scale(0.102 -0.102)">
     <use xlink:href="#DejaVuSans-62"/>
     <use x="63.476562" xlink:href="#DejaVuSans-62"/>
     <use x="126.953125" xlink:href="#DejaVuSans-6f"/>
     <use x="188.134766" xlink:href="#DejaVuSans-62"/>
    </g>
    <!-- Separable functions, 2-D -->
    <defs>
     <path d="M 53.515625 70.515625 
L 53.515625 60.890625 
Q 47.90625 63.578125 42.921875 64.890625 
Q 37.9375 66.21875 33.296875 66.21875 
Q 25.25 66.21875 20.875 63.09375 
Q 16.5 59.96875 16.5 54.203125 
Q 16.5 49.359375 19.40625 46.890625 
Q 22.3125 44.4375 30.421875 42.921875 
L 36.375 41.703125 
Q 47.40625 39.59375 52.65625 34.296875 
Q 57.90625 29 57.90625 20.125 
Q 57.90625 9.515625 50.796875 4.046875 
Q 43.703125 -1.421875 29.984375 -1.421875 
Q 24.8125 -1.421875 18.96875 -0.25 
Q 13.140625 0.921875 6.890625 3.21875 
L 6.890625 13.375 
Q 12.890625 10.015625 18.65625 8.296875 
Q 24.421875 6.59375 29.984375 6.59375 
Q 38.421875 6.59375 43.015625 9.90625 
Q 47.609375 13.234375 47.609375 19.390625 
Q 47.609375 24.75 44.3125 27.78125 
Q 41.015625 30.8125 33.5 32.328125 
L 27.484375 33.5 
Q 16.453125 35.6875 11.515625 40.375 
Q 6.59375 45.0625 6.59375 53.421875 
Q 6.59375 63.09375 13.40625 68.65625 
Q 20.21875 74.21875 32.171875 74.21875 
Q 37.3125 74.21875 42.625 73.28125 
Q 47.953125 72.359375 53.515625 70.515625 
z
" id="DejaVuSans-53"/>
     <path d="M 19.671875 64.796875 
L 19.671875 8.109375 
L 31.59375 8.109375 
Q 46.6875 8.109375 53.6875 14.9375 
Q 60.6875 21.78125 60.6875 36.53125 
Q 60.6875 51.171875 53.6875 57.984375 
Q 46.6875 64.796875 31.59375 64.796875 
z
M 9.8125 72.90625 
L 30.078125 72.90625 
Q 51.265625 72.90625 61.171875 64.09375 
Q 71.09375 55.28125 71.09375 36.53125 
Q 71.09375 17.671875 61.125 8.828125 
Q 51.171875 0 30.078125 0 
L 9.8125 0 
z
" id="DejaVuSans-44"/>
    </defs>
    <g transform="translate(59.55864 28.89775)scale(0.102 -0.102)">
     <use xlink:href="#DejaVuSans-53"/>
     <use x="63.476562" xlink:href="#DejaVuSans-65"/>
     <use x="125" xlink:href="#DejaVuSans-70"/>
     <use x="188.476562" xlink:href="#DejaVuSans-61"/>
     <use x="249.755859" xlink:href="#DejaVuSans-72"/>
     <use x="290.869141" xlink:href="#DejaVuSans-61"/>
     <use x="352.148438" xlink:href="#DejaVuSans-62"/>
     <use x="415.625" xlink:href="#DejaVuSans-6c"/>
     <use x="443.408203" xlink:href="#DejaVuSans-65"/>
     <use x="504.931641" xlink:href="#DejaVuSans-20"/>
     <use x="536.71875" xlink:href="#DejaVuSans-66"/>
     <use x="571.923828" xlink:href="#DejaVuSans-75"/>
     <use x="635.302734" xlink:href="#DejaVuSans-6e"/>
     <use x="698.681641" xlink:href="#DejaVuSans-63"/>
     <use x="753.662109" xlink:href="#DejaVuSans-74"/>
     <use x="792.871094" xlink:href="#DejaVuSans-69"/>
     <use x="820.654297" xlink:href="#DejaVuSans-6f"/>
     <use x="881.835938" xlink:href="#DejaVuSans-6e"/>
     <use x="945.214844" xlink:href="#DejaVuSans-73"/>
     <use x="997.314453" xlink:href="#DejaVuSans-2c"/>
     <use x="1029.101562" xlink:href="#DejaVuSans-20"/>
     <use x="1060.888672" xlink:href="#DejaVuSans-32"/>
     <use x="1124.511719" xlink:href="#DejaVuSans-2d"/>
     <use x="1160.595703" xlink:href="#DejaVuSans-44"/>
    </g>
    <!-- 51 targets: 100..1e-08 -->
    <defs>
     <path d="M 11.71875 12.40625 
L 22.015625 12.40625 
L 22.015625 0 
L 11.71875 0 
z
M 11.71875 51.703125 
L 22.015625 51.703125 
L 22.015625 39.3125 
L 11.71875 39.3125 
z
" id="DejaVuSans-3a"/>
    </defs>
    <g transform="translate(59.55864 40.319519)scale(0.102 -0.102)">
     <use xlink:href="#DejaVuSans-35"/>
     <use x="63.623047" xlink:href="#DejaVuSans-31"/>
     <use x="127.246094" xlink:href="#DejaVuSans-20"/>
     <use x="159.033203" xlink:href="#DejaVuSans-74"/>
     <use x="198.242188" xlink:href="#DejaVuSans-61"/>
     <use x="259.521484" xlink:href="#DejaVuSans-72"/>
     <use x="300.619141" xlink:href="#DejaVuSans-67"/>
     <use x="364.095703" xlink:href="#DejaVuSans-65"/>
     <use x="425.619141" xlink:href="#DejaVuSans-74"/>
     <use x="464.828125" xlink:href="#DejaVuSans-73"/>
     <use x="516.927734" xlink:href="#DejaVuSans-3a"/>
     <use x="550.619141" xlink:href="#DejaVuSans-20"/>
     <use x="582.40625" xlink:href="#DejaVuSans-31"/>
     <use x="646.029297" xlink:href="#DejaVuSans-30"/>
     <use x="709.652344" xlink:href="#DejaVuSans-30"/>
     <use x="773.275391" xlink:href="#DejaVuSans-2e"/>
     <use x="805.0625" xlink:href="#DejaVuSans-2e"/>
     <use x="836.849609" xlink:href="#DejaVuSans-31"/>
     <use x="900.472656" xlink:href="#DejaVuSans-65"/>
     <use x="961.996094" xlink:href="#DejaVuSans-2d"/>
     <use x="998.080078" xlink:href="#DejaVuSans-30"/>
     <use x="1061.703125" xlink:href="#DejaVuSans-38"/>
    </g>
    <!-- 15 instances -->
    <g transform="translate(59.55864 51.741288)scale(0.102 -0.102)">
     <use xlink:href="#DejaVuSans-31"/>
     <use x="63.623047" xlink:href="#DejaVuSans-35"/>
     <use x="127.246094" xlink:href="#DejaVuSans-20"/>
     <use x="159.033203" xlink:href="#DejaVuSans-69"/>
     <use x="186.816406" xlink:href="#DejaVuSans-6e"/>
     <use x="250.195312" xlink:href="#DejaVuSans-73"/>
     <use x="302.294922" xlink:href="#DejaVuSans-74"/>
     <use x="341.503906" xlink:href="#DejaVuSans-61"/>
     <use x="402.783203" xlink:href="#DejaVuSans-6e"/>
     <use x="466.162109" xlink:href="#DejaVuSans-63"/>
     <use x="521.142578" xlink:href="#DejaVuSans-65"/>
     <use x="582.666016" xlink:href="#DejaVuSans-73"/>
    </g>
   </g>
   <g id="text_20">
    <!-- v0.0.0 -->
    <g style="fill:#808080;" transform="translate(212.37075 289.919965)scale(0.1 -0.1)">
     <use xlink:href="#DejaVuSans-76"/>
     <use x="59.179688" xlink:href="#DejaVuSans-30"/>
     <use x="122.802734" xlink:href="#DejaVuSans-2e"/>
     <use x="154.589844" xlink:href="#DejaVuSans-30"/>
     <use x="218.212891" xlink:href="#DejaVuSans-2e"/>
     <use x="250" xlink:href="#DejaVuSans-30"/>
    </g>
   </g>
  </g>
 </g>
 <defs>
  <clipPath id="p3d5c6c03fa">
   <rect height="288.034772" width="343.864" x="56.12" y="6.845228"/>
  </clipPath>
 </defs>
</svg>
