<?xml version="1.0" encoding="utf-8" standalone="no"?>
<!DOCTYPE svg PUBLIC "-//W3C//DTD SVG 1.1//EN"
  "http://www.w3.org/Graphics/SVG/1.1/DTD/svg11.dtd">
<!-- Created with matplotlib (http://matplotlib.org/) -->
<svg height="345.6pt" version="1.1" viewBox="0 0 460.8 345.6" width="460.8pt" xmlns="http://www.w3.org/2000/svg" xmlns:xlink="http://www.w3.org/1999/xlink">
 <defs>
  <style type="text/css">
*{stroke-linecap:butt;stroke-linejoin:round;}
  </style>
 </defs>
 <g id="figure_1">
  <g id="patch_1">
   <path d="M 0 345.6 
L 460.8 345.6 
L 460.8 0 
L 0 0 
z
" style="fill:#ffffff;"/>
  </g>
  <g id="axes_1">
   <g id="patch_2">
    <path d="M 56.12 294.88 
L 399.984 294.88 
L 399.984 24.84 
L 56.12 24.84 
z
" style="fill:#ffffff;"/>
   </g>
   <g id="matplotlib.axis_1">
    <g id="xtick_1">
     <g id="line2d_1">
      <path clip-path="url(#p6871417c5f)" d="M 56.12 294.88 
L 56.12 24.84 
" style="fill:none;stroke:#b0b0b0;stroke-linecap:square;stroke-width:0.8;"/>
     </g>
     <g id="line2d_2">
      <defs>
       <path d="M 0 0 
L 0 3.5 
" id="mf32fb3168a" style="stroke:#000000;stroke-width:0.8;"/>
      </defs>
      <g>
       <use style="stroke:#000000;stroke-width:0.8;" x="56.12" xlink:href="#mf32fb3168a" y="294.88"/>
      </g>
     </g>
     <g id="text_1">
      <!-- 0 -->
      <defs>
       <path d="M 31.78125 66.40625 
Q 24.171875 66.40625 20.328125 58.90625 
Q 16.5 51.421875 16.5 36.375 
Q 16.5 21.390625 20.328125 13.890625 
Q 24.171875 6.390625 31.78125 6.390625 
Q 39.453125 6.390625 43.28125 13.890625 
Q 47.125 21.390625 47.125 36.375 
Q 47.125 51.421875 43.28125 58.90625 
Q 39.453125 66.40625 31.78125 66.40625 
z
M 31.78125 74.21875 
Q 44.046875 74.21875 50.515625 64.515625 
Q 56.984375 54.828125 56.984375 36.375 
Q 56.984375 17.96875 50.515625 8.265625 
Q 44.046875 -1.421875 31.78125 -1.421875 
Q 19.53125 -1.421875 13.0625 8.265625 
Q 6.59375 17.96875 6.59375 36.375 
Q 6.59375 54.828125 13.0625 64.515625 
Q 19.53125 74.21875 31.78125 74.21875 
z
" id="DejaVuSans-30"/>
      </defs>
      <g transform="translate(49.7575 317.076875)scale(0.2 -0.2)">
       <use xlink:href="#DejaVuSans-30"/>
      </g>
     </g>
    </g>
    <g id="xtick_2">
     <g id="line2d_3">
      <path clip-path="url(#p6871417c5f)" d="M 135.351336 294.88 
L 135.351336 24.84 
" style="fill:none;stroke:#b0b0b0;stroke-linecap:square;stroke-width:0.8;"/>
     </g>
     <g id="line2d_4">
      <g>
       <use style="stroke:#000000;stroke-width:0.8;" x="135.351336" xlink:href="#mf32fb3168a" y="294.88"/>
      </g>
     </g>
     <g id="text_2">
      <!-- 2 -->
      <defs>
       <path d="M 19.1875 8.296875 
L 53.609375 8.296875 
L 53.609375 0 
L 7.328125 0 
L 7.328125 8.296875 
Q 12.9375 14.109375 22.625 23.890625 
Q 32.328125 33.6875 34.8125 36.53125 
Q 39.546875 41.84375 41.421875 45.53125 
Q 43.3125 49.21875 43.3125 52.78125 
Q 43.3125 58.59375 39.234375 62.25 
Q 35.15625 65.921875 28.609375 65.921875 
Q 23.96875 65.921875 18.8125 64.3125 
Q 13.671875 62.703125 7.8125 59.421875 
L 7.8125 69.390625 
Q 13.765625 71.78125 18.9375 73 
Q 24.125 74.21875 28.421875 74.21875 
Q 39.75 74.21875 46.484375 68.546875 
Q 53.21875 62.890625 53.21875 53.421875 
Q 53.21875 48.921875 51.53125 44.890625 
Q 49.859375 40.875 45.40625 35.40625 
Q 44.1875 33.984375 37.640625 27.21875 
Q 31.109375 20.453125 19.1875 8.296875 
z
" id="DejaVuSans-32"/>
      </defs>
      <g transform="translate(128.988836 317.076875)scale(0.2 -0.2)">
       <use xlink:href="#DejaVuSans-32"/>
      </g>
     </g>
    </g>
    <g id="xtick_3">
     <g id="line2d_5">
      <path clip-path="url(#p6871417c5f)" d="M 214.582673 294.88 
L 214.582673 24.84 
" style="fill:none;stroke:#b0b0b0;stroke-linecap:square;stroke-width:0.8;"/>
     </g>
     <g id="line2d_6">
      <g>
       <use style="stroke:#000000;stroke-width:0.8;" x="214.582673" xlink:href="#mf32fb3168a" y="294.88"/>
      </g>
     </g>
     <g id="text_3">
      <!-- 4 -->
      <defs>
       <path d="M 37.796875 64.3125 
L 12.890625 25.390625 
L 37.796875 25.390625 
z
M 35.203125 72.90625 
L 47.609375 72.90625 
L 47.609375 25.390625 
L 58.015625 25.390625 
L 58.015625 17.1875 
L 47.609375 17.1875 
L 47.609375 0 
L 37.796875 0 
L 37.796875 17.1875 
L 4.890625 17.1875 
L 4.890625 26.703125 
z
" id="DejaVuSans-34"/>
      </defs>
      <g transform="translate(208.220173 317.076875)scale(0.2 -0.2)">
       <use xlink:href="#DejaVuSans-34"/>
      </g>
     </g>
    </g>
    <g id="xtick_4">
     <g id="line2d_7">
      <path clip-path="url(#p6871417c5f)" d="M 293.814009 294.88 
L 293.814009 24.84 
" style="fill:none;stroke:#b0b0b0;stroke-linecap:square;stroke-width:0.8;"/>
     </g>
     <g id="line2d_8">
      <g>
       <use style="stroke:#000000;stroke-width:0.8;" x="293.814009" xlink:href="#mf32fb3168a" y="294.88"/>
      </g>
     </g>
     <g id="text_4">
      <!-- 6 -->
      <defs>
       <path d="M 33.015625 40.375 
Q 26.375 40.375 22.484375 35.828125 
Q 18.609375 31.296875 18.609375 23.390625 
Q 18.609375 15.53125 22.484375 10.953125 
Q 26.375 6.390625 33.015625 6.390625 
Q 39.65625 6.390625 43.53125 10.953125 
Q 47.40625 15.53125 47.40625 23.390625 
Q 47.40625 31.296875 43.53125 35.828125 
Q 39.65625 40.375 33.015625 40.375 
z
M 52.59375 71.296875 
L 52.59375 62.3125 
Q 48.875 64.0625 45.09375 64.984375 
Q 41.3125 65.921875 37.59375 65.921875 
Q 27.828125 65.921875 22.671875 59.328125 
Q 17.53125 52.734375 16.796875 39.40625 
Q 19.671875 43.65625 24.015625 45.921875 
Q 28.375 48.1875 33.59375 48.1875 
Q 44.578125 48.1875 50.953125 41.515625 
Q 57.328125 34.859375 57.328125 23.390625 
Q 57.328125 12.15625 50.6875 5.359375 
Q 44.046875 -1.421875 33.015625 -1.421875 
Q 20.359375 -1.421875 13.671875 8.265625 
Q 6.984375 17.96875 6.984375 36.375 
Q 6.984375 53.65625 15.1875 63.9375 
Q 23.390625 74.21875 37.203125 74.21875 
Q 40.921875 74.21875 44.703125 73.484375 
Q 48.484375 72.75 52.59375 71.296875 
z
" id="DejaVuSans-36"/>
      </defs>
      <g transform="translate(287.451509 317.076875)scale(0.2 -0.2)">
       <use xlink:href="#DejaVuSans-36"/>
      </g>
     </g>
    </g>
    <g id="xtick_5">
     <g id="line2d_9">
      <path clip-path="url(#p6871417c5f)" d="M 373.045346 294.88 
L 373.045346 24.84 
" style="fill:none;stroke:#b0b0b0;stroke-linecap:square;stroke-width:0.8;"/>
     </g>
     <g id="line2d_10">
      <g>
       <use style="stroke:#000000;stroke-width:0.8;" x="373.045346" xlink:href="#mf32fb3168a" y="294.88"/>
      </g>
     </g>
     <g id="text_5">
      <!-- 8 -->
      <defs>
       <path d="M 31.78125 34.625 
Q 24.75 34.625 20.71875 30.859375 
Q 16.703125 27.09375 16.703125 20.515625 
Q 16.703125 13.921875 20.71875 10.15625 
Q 24.75 6.390625 31.78125 6.390625 
Q 38.8125 6.390625 42.859375 10.171875 
Q 46.921875 13.96875 46.921875 20.515625 
Q 46.921875 27.09375 42.890625 30.859375 
Q 38.875 34.625 31.78125 34.625 
z
M 21.921875 38.8125 
Q 15.578125 40.375 12.03125 44.71875 
Q 8.5 49.078125 8.5 55.328125 
Q 8.5 64.0625 14.71875 69.140625 
Q 20.953125 74.21875 31.78125 74.21875 
Q 42.671875 74.21875 48.875 69.140625 
Q 55.078125 64.0625 55.078125 55.328125 
Q 55.078125 49.078125 51.53125 44.71875 
Q 48 40.375 41.703125 38.8125 
Q 48.828125 37.15625 52.796875 32.3125 
Q 56.78125 27.484375 56.78125 20.515625 
Q 56.78125 9.90625 50.3125 4.234375 
Q 43.84375 -1.421875 31.78125 -1.421875 
Q 19.734375 -1.421875 13.25 4.234375 
Q 6.78125 9.90625 6.78125 20.515625 
Q 6.78125 27.484375 10.78125 32.3125 
Q 14.796875 37.15625 21.921875 38.8125 
z
M 18.3125 54.390625 
Q 18.3125 48.734375 21.84375 45.5625 
Q 25.390625 42.390625 31.78125 42.390625 
Q 38.140625 42.390625 41.71875 45.5625 
Q 45.3125 48.734375 45.3125 54.390625 
Q 45.3125 60.0625 41.71875 63.234375 
Q 38.140625 66.40625 31.78125 66.40625 
Q 25.390625 66.40625 21.84375 63.234375 
Q 18.3125 60.0625 18.3125 54.390625 
z
" id="DejaVuSans-38"/>
      </defs>
      <g transform="translate(366.682846 317.076875)scale(0.2 -0.2)">
       <use xlink:href="#DejaVuSans-38"/>
      </g>
     </g>
    </g>
    <g id="text_6">
     <!-- log10(# f-evals / dimension) -->
     <defs>
      <path d="M 9.421875 75.984375 
L 18.40625 75.984375 
L 18.40625 0 
L 9.421875 0 
z
" id="DejaVuSans-6c"/>
      <path d="M 30.609375 48.390625 
Q 23.390625 48.390625 19.1875 42.75 
Q 14.984375 37.109375 14.984375 27.296875 
Q 14.984375 17.484375 19.15625 11.84375 
Q 23.34375 6.203125 30.609375 6.203125 
Q 37.796875 6.203125 41.984375 11.859375 
Q 46.1875 17.53125 46.1875 27.296875 
Q 46.1875 37.015625 41.984375 42.703125 
Q 37.796875 48.390625 30.609375 48.390625 
z
M 30.609375 56 
Q 42.328125 56 49.015625 48.375 
Q 55.71875 40.765625 55.71875 27.296875 
Q 55.71875 13.875 49.015625 6.21875 
Q 42.328125 -1.421875 30.609375 -1.421875 
Q 18.84375 -1.421875 12.171875 6.21875 
Q 5.515625 13.875 5.515625 27.296875 
Q 5.515625 40.765625 12.171875 48.375 
Q 18.84375 56 30.609375 56 
z
" id="DejaVuSans-6f"/>
      <path d="M 45.40625 27.984375 
Q 45.40625 37.75 41.375 43.109375 
Q 37.359375 48.484375 30.078125 48.484375 
Q 22.859375 48.484375 18.828125 43.109375 
Q 14.796875 37.75 14.796875 27.984375 
Q 14.796875 18.265625 18.828125 12.890625 
Q 22.859375 7.515625 30.078125 7.515625 
Q 37.359375 7.515625 41.375 12.890625 
Q 45.40625 18.265625 45.40625 27.984375 
z
M 54.390625 6.78125 
Q 54.390625 -7.171875 48.1875 -13.984375 
Q 42 -20.796875 29.203125 -20.796875 
Q 24.46875 -20.796875 20.265625 -20.09375 
Q 16.0625 -19.390625 12.109375 -17.921875 
L 12.109375 -9.1875 
Q 16.0625 -11.328125 19.921875 -12.34375 
Q 23.78125 -13.375 27.78125 -13.375 
Q 36.625 -13.375 41.015625 -8.765625 
Q 45.40625 -4.15625 45.40625 5.171875 
L 45.40625 9.625 
Q 42.625 4.78125 38.28125 2.390625 
Q 33.9375 0 27.875 0 
Q 17.828125 0 11.671875 7.65625 
Q 5.515625 15.328125 5.515625 27.984375 
Q 5.515625 40.671875 11.671875 48.328125 
Q 17.828125 56 27.875 56 
Q 33.9375 56 38.28125 53.609375 
Q 42.625 51.21875 45.40625 46.390625 
L 45.40625 54.6875 
L 54.390625 54.6875 
z
" id="DejaVuSans-67"/>
      <path d="M 12.40625 8.296875 
L 28.515625 8.296875 
L 28.515625 63.921875 
L 10.984375 60.40625 
L 10.984375 69.390625 
L 28.421875 72.90625 
L 38.28125 72.90625 
L 38.28125 8.296875 
L 54.390625 8.296875 
L 54.390625 0 
L 12.40625 0 
z
" id="DejaVuSans-31"/>
      <path d="M 31 75.875 
Q 24.46875 64.65625 21.28125 53.65625 
Q 18.109375 42.671875 18.109375 31.390625 
Q 18.109375 20.125 21.3125 9.0625 
Q 24.515625 -2 31 -13.1875 
L 23.1875 -13.1875 
Q 15.875 -1.703125 12.234375 9.375 
Q 8.59375 20.453125 8.59375 31.390625 
Q 8.59375 42.28125 12.203125 53.3125 
Q 15.828125 64.359375 23.1875 75.875 
z
" id="DejaVuSans-28"/>
      <path d="M 51.125 44 
L 36.921875 44 
L 32.8125 27.6875 
L 47.125 27.6875 
z
M 43.796875 71.78125 
L 38.71875 51.515625 
L 52.984375 51.515625 
L 58.109375 71.78125 
L 65.921875 71.78125 
L 60.890625 51.515625 
L 76.125 51.515625 
L 76.125 44 
L 58.984375 44 
L 54.984375 27.6875 
L 70.515625 27.6875 
L 70.515625 20.21875 
L 53.078125 20.21875 
L 48 0 
L 40.1875 0 
L 45.21875 20.21875 
L 30.90625 20.21875 
L 25.875 0 
L 18.015625 0 
L 23.09375 20.21875 
L 7.71875 20.21875 
L 7.71875 27.6875 
L 24.90625 27.6875 
L 29 44 
L 13.28125 44 
L 13.28125 51.515625 
L 30.90625 51.515625 
L 35.890625 71.78125 
z
" id="DejaVuSans-23"/>
      <path id="DejaVuSans-20"/>
      <path d="M 37.109375 75.984375 
L 37.109375 68.5 
L 28.515625 68.5 
Q 23.6875 68.5 21.796875 66.546875 
Q 19.921875 64.59375 19.921875 59.515625 
L 19.921875 54.6875 
L 34.71875 54.6875 
L 34.71875 47.703125 
L 19.921875 47.703125 
L 19.921875 0 
L 10.890625 0 
L 10.890625 47.703125 
L 2.296875 47.703125 
L 2.296875 54.6875 
L 10.890625 54.6875 
L 10.890625 58.5 
Q 10.890625 67.625 15.140625 71.796875 
Q 19.390625 75.984375 28.609375 75.984375 
z
" id="DejaVuSans-66"/>
      <path d="M 4.890625 31.390625 
L 31.203125 31.390625 
L 31.203125 23.390625 
L 4.890625 23.390625 
z
" id="DejaVuSans-2d"/>
      <path d="M 56.203125 29.59375 
L 56.203125 25.203125 
L 14.890625 25.203125 
Q 15.484375 15.921875 20.484375 11.0625 
Q 25.484375 6.203125 34.421875 6.203125 
Q 39.59375 6.203125 44.453125 7.46875 
Q 49.3125 8.734375 54.109375 11.28125 
L 54.109375 2.78125 
Q 49.265625 0.734375 44.1875 -0.34375 
Q 39.109375 -1.421875 33.890625 -1.421875 
Q 20.796875 -1.421875 13.15625 6.1875 
Q 5.515625 13.8125 5.515625 26.8125 
Q 5.515625 40.234375 12.765625 48.109375 
Q 20.015625 56 32.328125 56 
Q 43.359375 56 49.78125 48.890625 
Q 56.203125 41.796875 56.203125 29.59375 
z
M 47.21875 32.234375 
Q 47.125 39.59375 43.09375 43.984375 
Q 39.0625 48.390625 32.421875 48.390625 
Q 24.90625 48.390625 20.390625 44.140625 
Q 15.875 39.890625 15.1875 32.171875 
z
" id="DejaVuSans-65"/>
      <path d="M 2.984375 54.6875 
L 12.5 54.6875 
L 29.59375 8.796875 
L 46.6875 54.6875 
L 56.203125 54.6875 
L 35.6875 0 
L 23.484375 0 
z
" id="DejaVuSans-76"/>
      <path d="M 34.28125 27.484375 
Q 23.390625 27.484375 19.1875 25 
Q 14.984375 22.515625 14.984375 16.5 
Q 14.984375 11.71875 18.140625 8.90625 
Q 21.296875 6.109375 26.703125 6.109375 
Q 34.1875 6.109375 38.703125 11.40625 
Q 43.21875 16.703125 43.21875 25.484375 
L 43.21875 27.484375 
z
M 52.203125 31.203125 
L 52.203125 0 
L 43.21875 0 
L 43.21875 8.296875 
Q 40.140625 3.328125 35.546875 0.953125 
Q 30.953125 -1.421875 24.3125 -1.421875 
Q 15.921875 -1.421875 10.953125 3.296875 
Q 6 8.015625 6 15.921875 
Q 6 25.140625 12.171875 29.828125 
Q 18.359375 34.515625 30.609375 34.515625 
L 43.21875 34.515625 
L 43.21875 35.40625 
Q 43.21875 41.609375 39.140625 45 
Q 35.0625 48.390625 27.6875 48.390625 
Q 23 48.390625 18.546875 47.265625 
Q 14.109375 46.140625 10.015625 43.890625 
L 10.015625 52.203125 
Q 14.9375 54.109375 19.578125 55.046875 
Q 24.21875 56 28.609375 56 
Q 40.484375 56 46.34375 49.84375 
Q 52.203125 43.703125 52.203125 31.203125 
z
" id="DejaVuSans-61"/>
      <path d="M 44.28125 53.078125 
L 44.28125 44.578125 
Q 40.484375 46.53125 36.375 47.5 
Q 32.28125 48.484375 27.875 48.484375 
Q 21.1875 48.484375 17.84375 46.4375 
Q 14.5 44.390625 14.5 40.28125 
Q 14.5 37.15625 16.890625 35.375 
Q 19.28125 33.59375 26.515625 31.984375 
L 29.59375 31.296875 
Q 39.15625 29.25 43.1875 25.515625 
Q 47.21875 21.78125 47.21875 15.09375 
Q 47.21875 7.46875 41.1875 3.015625 
Q 35.15625 -1.421875 24.609375 -1.421875 
Q 20.21875 -1.421875 15.453125 -0.5625 
Q 10.6875 0.296875 5.421875 2 
L 5.421875 11.28125 
Q 10.40625 8.6875 15.234375 7.390625 
Q 20.0625 6.109375 24.8125 6.109375 
Q 31.15625 6.109375 34.5625 8.28125 
Q 37.984375 10.453125 37.984375 14.40625 
Q 37.984375 18.0625 35.515625 20.015625 
Q 33.0625 21.96875 24.703125 23.78125 
L 21.578125 24.515625 
Q 13.234375 26.265625 9.515625 29.90625 
Q 5.8125 33.546875 5.8125 39.890625 
Q 5.8125 47.609375 11.28125 51.796875 
Q 16.75 56 26.8125 56 
Q 31.78125 56 36.171875 55.265625 
Q 40.578125 54.546875 44.28125 53.078125 
z
" id="DejaVuSans-73"/>
      <path d="M 25.390625 72.90625 
L 33.6875 72.90625 
L 8.296875 -9.28125 
L 0 -9.28125 
z
" id="DejaVuSans-2f"/>
      <path d="M 45.40625 46.390625 
L 45.40625 75.984375 
L 54.390625 75.984375 
L 54.390625 0 
L 45.40625 0 
L 45.40625 8.203125 
Q 42.578125 3.328125 38.25 0.953125 
Q 33.9375 -1.421875 27.875 -1.421875 
Q 17.96875 -1.421875 11.734375 6.484375 
Q 5.515625 14.40625 5.515625 27.296875 
Q 5.515625 40.1875 11.734375 48.09375 
Q 17.96875 56 27.875 56 
Q 33.9375 56 38.25 53.625 
Q 42.578125 51.265625 45.40625 46.390625 
z
M 14.796875 27.296875 
Q 14.796875 17.390625 18.875 11.75 
Q 22.953125 6.109375 30.078125 6.109375 
Q 37.203125 6.109375 41.296875 11.75 
Q 45.40625 17.390625 45.40625 27.296875 
Q 45.40625 37.203125 41.296875 42.84375 
Q 37.203125 48.484375 30.078125 48.484375 
Q 22.953125 48.484375 18.875 42.84375 
Q 14.796875 37.203125 14.796875 27.296875 
z
" id="DejaVuSans-64"/>
      <path d="M 9.421875 54.6875 
L 18.40625 54.6875 
L 18.40625 0 
L 9.421875 0 
z
M 9.421875 75.984375 
L 18.40625 75.984375 
L 18.40625 64.59375 
L 9.421875 64.59375 
z
" id="DejaVuSans-69"/>
      <path d="M 52 44.1875 
Q 55.375 50.25 60.0625 53.125 
Q 64.75 56 71.09375 56 
Q 79.640625 56 84.28125 50.015625 
Q 88.921875 44.046875 88.921875 33.015625 
L 88.921875 0 
L 79.890625 0 
L 79.890625 32.71875 
Q 79.890625 40.578125 77.09375 44.375 
Q 74.3125 48.1875 68.609375 48.1875 
Q 61.625 48.1875 57.5625 43.546875 
Q 53.515625 38.921875 53.515625 30.90625 
L 53.515625 0 
L 44.484375 0 
L 44.484375 32.71875 
Q 44.484375 40.625 41.703125 44.40625 
Q 38.921875 48.1875 33.109375 48.1875 
Q 26.21875 48.1875 22.15625 43.53125 
Q 18.109375 38.875 18.109375 30.90625 
L 18.109375 0 
L 9.078125 0 
L 9.078125 54.6875 
L 18.109375 54.6875 
L 18.109375 46.1875 
Q 21.1875 51.21875 25.484375 53.609375 
Q 29.78125 56 35.6875 56 
Q 41.65625 56 45.828125 52.96875 
Q 50 49.953125 52 44.1875 
z
" id="DejaVuSans-6d"/>
      <path d="M 54.890625 33.015625 
L 54.890625 0 
L 45.90625 0 
L 45.90625 32.71875 
Q 45.90625 40.484375 42.875 44.328125 
Q 39.84375 48.1875 33.796875 48.1875 
Q 26.515625 48.1875 22.3125 43.546875 
Q 18.109375 38.921875 18.109375 30.90625 
L 18.109375 0 
L 9.078125 0 
L 9.078125 54.6875 
L 18.109375 54.6875 
L 18.109375 46.1875 
Q 21.34375 51.125 25.703125 53.5625 
Q 30.078125 56 35.796875 56 
Q 45.21875 56 50.046875 50.171875 
Q 54.890625 44.34375 54.890625 33.015625 
z
" id="DejaVuSans-6e"/>
      <path d="M 8.015625 75.875 
L 15.828125 75.875 
Q 23.140625 64.359375 26.78125 53.3125 
Q 30.421875 42.28125 30.421875 31.390625 
Q 30.421875 20.453125 26.78125 9.375 
Q 23.140625 -1.703125 15.828125 -13.1875 
L 8.015625 -13.1875 
Q 14.5 -2 17.703125 9.0625 
Q 20.90625 20.125 20.90625 31.390625 
Q 20.90625 42.671875 17.703125 53.65625 
Q 14.5 64.65625 8.015625 75.875 
z
" id="DejaVuSans-29"/>
     </defs>
     <g transform="translate(107.211219 338.153594)scale(0.17 -0.17)">
      <use xlink:href="#DejaVuSans-6c"/>
      <use x="27.783203" xlink:href="#DejaVuSans-6f"/>
      <use x="88.964844" xlink:href="#DejaVuSans-67"/>
      <use x="152.441406" xlink:href="#DejaVuSans-31"/>
      <use x="216.064453" xlink:href="#DejaVuSans-30"/>
      <use x="279.6875" xlink:href="#DejaVuSans-28"/>
      <use x="318.701172" xlink:href="#DejaVuSans-23"/>
      <use x="402.490234" xlink:href="#DejaVuSans-20"/>
      <use x="434.277344" xlink:href="#DejaVuSans-66"/>
      <use x="469.404297" xlink:href="#DejaVuSans-2d"/>
      <use x="505.488281" xlink:href="#DejaVuSans-65"/>
      <use x="567.011719" xlink:href="#DejaVuSans-76"/>
      <use x="626.191406" xlink:href="#DejaVuSans-61"/>
      <use x="687.470703" xlink:href="#DejaVuSans-6c"/>
      <use x="715.253906" xlink:href="#DejaVuSans-73"/>
      <use x="767.353516" xlink:href="#DejaVuSans-20"/>
      <use x="799.140625" xlink:href="#DejaVuSans-2f"/>
      <use x="832.832031" xlink:href="#DejaVuSans-20"/>
      <use x="864.619141" xlink:href="#DejaVuSans-64"/>
      <use x="928.095703" xlink:href="#DejaVuSans-69"/>
      <use x="955.878906" xlink:href="#DejaVuSans-6d"/>
      <use x="1053.291016" xlink:href="#DejaVuSans-65"/>
      <use x="1114.814453" xlink:href="#DejaVuSans-6e"/>
      <use x="1178.193359" xlink:href="#DejaVuSans-73"/>
      <use x="1230.292969" xlink:href="#DejaVuSans-69"/>
      <use x="1258.076172" xlink:href="#DejaVuSans-6f"/>
      <use x="1319.257812" xlink:href="#DejaVuSans-6e"/>
      <use x="1382.636719" xlink:href="#DejaVuSans-29"/>
     </g>
    </g>
   </g>
   <g id="matplotlib.axis_2">
    <g id="ytick_1">
     <g id="line2d_11">
      <path clip-path="url(#p6871417c5f)" d="M 56.12 294.88 
L 399.984 294.88 
" style="fill:none;stroke:#b0b0b0;stroke-linecap:square;stroke-width:0.8;"/>
     </g>
     <g id="line2d_12">
      <defs>
       <path d="M 0 0 
L -3.5 0 
" id="m3ca7b1a469" style="stroke:#000000;stroke-width:0.8;"/>
      </defs>
      <g>
       <use style="stroke:#000000;stroke-width:0.8;" x="56.12" xlink:href="#m3ca7b1a469" y="294.88"/>
      </g>
     </g>
     <g id="text_7">
      <!-- 0.0 -->
      <defs>
       <path d="M 10.6875 12.40625 
L 21 12.40625 
L 21 0 
L 10.6875 0 
z
" id="DejaVuSans-2e"/>
      </defs>
      <g transform="translate(23.675 300.95875)scale(0.16 -0.16)">
       <use xlink:href="#DejaVuSans-30"/>
       <use x="63.623047" xlink:href="#DejaVuSans-2e"/>
       <use x="95.410156" xlink:href="#DejaVuSans-30"/>
      </g>
     </g>
    </g>
    <g id="ytick_2">
     <g id="line2d_13">
      <path clip-path="url(#p6871417c5f)" d="M 56.12 241.406733 
L 399.984 241.406733 
" style="fill:none;stroke:#b0b0b0;stroke-linecap:square;stroke-width:0.8;"/>
     </g>
     <g id="line2d_14">
      <g>
       <use style="stroke:#000000;stroke-width:0.8;" x="56.12" xlink:href="#m3ca7b1a469" y="241.406733"/>
      </g>
     </g>
     <g id="text_8">
      <!-- 0.2 -->
      <g transform="translate(23.675 247.485483)scale(0.16 -0.16)">
       <use xlink:href="#DejaVuSans-30"/>
       <use x="63.623047" xlink:href="#DejaVuSans-2e"/>
       <use x="95.410156" xlink:href="#DejaVuSans-32"/>
      </g>
     </g>
    </g>
    <g id="ytick_3">
     <g id="line2d_15">
      <path clip-path="url(#p6871417c5f)" d="M 56.12 187.933465 
L 399.984 187.933465 
" style="fill:none;stroke:#b0b0b0;stroke-linecap:square;stroke-width:0.8;"/>
     </g>
     <g id="line2d_16">
      <g>
       <use style="stroke:#000000;stroke-width:0.8;" x="56.12" xlink:href="#m3ca7b1a469" y="187.933465"/>
      </g>
     </g>
     <g id="text_9">
      <!-- 0.4 -->
      <g transform="translate(23.675 194.012215)scale(0.16 -0.16)">
       <use xlink:href="#DejaVuSans-30"/>
       <use x="63.623047" xlink:href="#DejaVuSans-2e"/>
       <use x="95.410156" xlink:href="#DejaVuSans-34"/>
      </g>
     </g>
    </g>
    <g id="ytick_4">
     <g id="line2d_17">
      <path clip-path="url(#p6871417c5f)" d="M 56.12 134.460198 
L 399.984 134.460198 
" style="fill:none;stroke:#b0b0b0;stroke-linecap:square;stroke-width:0.8;"/>
     </g>
     <g id="line2d_18">
      <g>
       <use style="stroke:#000000;stroke-width:0.8;" x="56.12" xlink:href="#m3ca7b1a469" y="134.460198"/>
      </g>
     </g>
     <g id="text_10">
      <!-- 0.6 -->
      <g transform="translate(23.675 140.538948)scale(0.16 -0.16)">
       <use xlink:href="#DejaVuSans-30"/>
       <use x="63.623047" xlink:href="#DejaVuSans-2e"/>
       <use x="95.410156" xlink:href="#DejaVuSans-36"/>
      </g>
     </g>
    </g>
    <g id="ytick_5">
     <g id="line2d_19">
      <path clip-path="url(#p6871417c5f)" d="M 56.12 80.986931 
L 399.984 80.986931 
" style="fill:none;stroke:#b0b0b0;stroke-linecap:square;stroke-width:0.8;"/>
     </g>
     <g id="line2d_20">
      <g>
       <use style="stroke:#000000;stroke-width:0.8;" x="56.12" xlink:href="#m3ca7b1a469" y="80.986931"/>
      </g>
     </g>
     <g id="text_11">
      <!-- 0.8 -->
      <g transform="translate(23.675 87.065681)scale(0.16 -0.16)">
       <use xlink:href="#DejaVuSans-30"/>
       <use x="63.623047" xlink:href="#DejaVuSans-2e"/>
       <use x="95.410156" xlink:href="#DejaVuSans-38"/>
      </g>
     </g>
    </g>
    <g id="ytick_6">
     <g id="line2d_21">
      <path clip-path="url(#p6871417c5f)" d="M 56.12 27.513663 
L 399.984 27.513663 
" style="fill:none;stroke:#b0b0b0;stroke-linecap:square;stroke-width:0.8;"/>
     </g>
     <g id="line2d_22">
      <g>
       <use style="stroke:#000000;stroke-width:0.8;" x="56.12" xlink:href="#m3ca7b1a469" y="27.513663"/>
      </g>
     </g>
     <g id="text_12">
      <!-- 1.0 -->
      <g transform="translate(23.675 33.592413)scale(0.16 -0.16)">
       <use xlink:href="#DejaVuSans-31"/>
       <use x="63.623047" xlink:href="#DejaVuSans-2e"/>
       <use x="95.410156" xlink:href="#DejaVuSans-30"/>
      </g>
     </g>
    </g>
    <g id="text_13">
     <!-- Fraction of function,target pairs -->
     <defs>
      <path d="M 9.8125 72.90625 
L 51.703125 72.90625 
L 51.703125 64.59375 
L 19.671875 64.59375 
L 19.671875 43.109375 
L 48.578125 43.109375 
L 48.578125 34.8125 
L 19.671875 34.8125 
L 19.671875 0 
L 9.8125 0 
z
" id="DejaVuSans-46"/>
      <path d="M 41.109375 46.296875 
Q 39.59375 47.171875 37.8125 47.578125 
Q 36.03125 48 33.890625 48 
Q 26.265625 48 22.1875 43.046875 
Q 18.109375 38.09375 18.109375 28.8125 
L 18.109375 0 
L 9.078125 0 
L 9.078125 54.6875 
L 18.109375 54.6875 
L 18.109375 46.1875 
Q 20.953125 51.171875 25.484375 53.578125 
Q 30.03125 56 36.53125 56 
Q 37.453125 56 38.578125 55.875 
Q 39.703125 55.765625 41.0625 55.515625 
z
" id="DejaVuSans-72"/>
      <path d="M 48.78125 52.59375 
L 48.78125 44.1875 
Q 44.96875 46.296875 41.140625 47.34375 
Q 37.3125 48.390625 33.40625 48.390625 
Q 24.65625 48.390625 19.8125 42.84375 
Q 14.984375 37.3125 14.984375 27.296875 
Q 14.984375 17.28125 19.8125 11.734375 
Q 24.65625 6.203125 33.40625 6.203125 
Q 37.3125 6.203125 41.140625 7.25 
Q 44.96875 8.296875 48.78125 10.40625 
L 48.78125 2.09375 
Q 45.015625 0.34375 40.984375 -0.53125 
Q 36.96875 -1.421875 32.421875 -1.421875 
Q 20.0625 -1.421875 12.78125 6.34375 
Q 5.515625 14.109375 5.515625 27.296875 
Q 5.515625 40.671875 12.859375 48.328125 
Q 20.21875 56 33.015625 56 
Q 37.15625 56 41.109375 55.140625 
Q 45.0625 54.296875 48.78125 52.59375 
z
" id="DejaVuSans-63"/>
      <path d="M 18.3125 70.21875 
L 18.3125 54.6875 
L 36.8125 54.6875 
L 36.8125 47.703125 
L 18.3125 47.703125 
L 18.3125 18.015625 
Q 18.3125 11.328125 20.140625 9.421875 
Q 21.96875 7.515625 27.59375 7.515625 
L 36.8125 7.515625 
L 36.8125 0 
L 27.59375 0 
Q 17.1875 0 13.234375 3.875 
Q 9.28125 7.765625 9.28125 18.015625 
L 9.28125 47.703125 
L 2.6875 47.703125 
L 2.6875 54.6875 
L 9.28125 54.6875 
L 9.28125 70.21875 
z
" id="DejaVuSans-74"/>
      <path d="M 8.5 21.578125 
L 8.5 54.6875 
L 17.484375 54.6875 
L 17.484375 21.921875 
Q 17.484375 14.15625 20.5 10.265625 
Q 23.53125 6.390625 29.59375 6.390625 
Q 36.859375 6.390625 41.078125 11.03125 
Q 45.3125 15.671875 45.3125 23.6875 
L 45.3125 54.6875 
L 54.296875 54.6875 
L 54.296875 0 
L 45.3125 0 
L 45.3125 8.40625 
Q 42.046875 3.421875 37.71875 1 
Q 33.40625 -1.421875 27.6875 -1.421875 
Q 18.265625 -1.421875 13.375 4.4375 
Q 8.5 10.296875 8.5 21.578125 
z
M 31.109375 56 
z
" id="DejaVuSans-75"/>
      <path d="M 11.71875 12.40625 
L 22.015625 12.40625 
L 22.015625 4 
L 14.015625 -11.625 
L 7.71875 -11.625 
L 11.71875 4 
z
" id="DejaVuSans-2c"/>
      <path d="M 18.109375 8.203125 
L 18.109375 -20.796875 
L 9.078125 -20.796875 
L 9.078125 54.6875 
L 18.109375 54.6875 
L 18.109375 46.390625 
Q 20.953125 51.265625 25.265625 53.625 
Q 29.59375 56 35.59375 56 
Q 45.5625 56 51.78125 48.09375 
Q 58.015625 40.1875 58.015625 27.296875 
Q 58.015625 14.40625 51.78125 6.484375 
Q 45.5625 -1.421875 35.59375 -1.421875 
Q 29.59375 -1.421875 25.265625 0.953125 
Q 20.953125 3.328125 18.109375 8.203125 
z
M 48.6875 27.296875 
Q 48.6875 37.203125 44.609375 42.84375 
Q 40.53125 48.484375 33.40625 48.484375 
Q 26.265625 48.484375 22.1875 42.84375 
Q 18.109375 37.203125 18.109375 27.296875 
Q 18.109375 17.390625 22.1875 11.75 
Q 26.265625 6.109375 33.40625 6.109375 
Q 40.53125 6.109375 44.609375 11.75 
Q 48.6875 17.390625 48.6875 27.296875 
z
" id="DejaVuSans-70"/>
     </defs>
     <g transform="translate(16.139531 294.999375)rotate(-90)scale(0.17 -0.17)">
      <use xlink:href="#DejaVuSans-46"/>
      <use x="57.410156" xlink:href="#DejaVuSans-72"/>
      <use x="98.523438" xlink:href="#DejaVuSans-61"/>
      <use x="159.802734" xlink:href="#DejaVuSans-63"/>
      <use x="214.783203" xlink:href="#DejaVuSans-74"/>
      <use x="253.992188" xlink:href="#DejaVuSans-69"/>
      <use x="281.775391" xlink:href="#DejaVuSans-6f"/>
      <use x="342.957031" xlink:href="#DejaVuSans-6e"/>
      <use x="406.335938" xlink:href="#DejaVuSans-20"/>
      <use x="438.123047" xlink:href="#DejaVuSans-6f"/>
      <use x="499.304688" xlink:href="#DejaVuSans-66"/>
      <use x="534.509766" xlink:href="#DejaVuSans-20"/>
      <use x="566.296875" xlink:href="#DejaVuSans-66"/>
      <use x="601.501953" xlink:href="#DejaVuSans-75"/>
      <use x="664.880859" xlink:href="#DejaVuSans-6e"/>
      <use x="728.259766" xlink:href="#DejaVuSans-63"/>
      <use x="783.240234" xlink:href="#DejaVuSans-74"/>
      <use x="822.449219" xlink:href="#DejaVuSans-69"/>
      <use x="850.232422" xlink:href="#DejaVuSans-6f"/>
      <use x="911.414062" xlink:href="#DejaVuSans-6e"/>
      <use x="974.792969" xlink:href="#DejaVuSans-2c"/>
      <use x="1006.580078" xlink:href="#DejaVuSans-74"/>
      <use x="1045.789062" xlink:href="#DejaVuSans-61"/>
      <use x="1107.068359" xlink:href="#DejaVuSans-72"/>
      <use x="1148.166016" xlink:href="#DejaVuSans-67"/>
      <use x="1211.642578" xlink:href="#DejaVuSans-65"/>
      <use x="1273.166016" xlink:href="#DejaVuSans-74"/>
      <use x="1312.375" xlink:href="#DejaVuSans-20"/>
      <use x="1344.162109" xlink:href="#DejaVuSans-70"/>
      <use x="1407.638672" xlink:href="#DejaVuSans-61"/>
      <use x="1468.917969" xlink:href="#DejaVuSans-69"/>
      <use x="1496.701172" xlink:href="#DejaVuSans-72"/>
      <use x="1537.814453" xlink:href="#DejaVuSans-73"/>
     </g>
    </g>
   </g>
   <g id="line2d_23">
    <defs>
     <path d="M 0 1.5 
C 0.397805 1.5 0.77937 1.341951 1.06066 1.06066 
C 1.341951 0.77937 1.5 0.397805 1.5 0 
C 1.5 -0.397805 1.341951 -0.77937 1.06066 -1.06066 
C 0.77937 -1.341951 0.397805 -1.5 0 -1.5 
C -0.397805 -1.5 -0.77937 -1.341951 -1.06066 -1.06066 
C -1.341951 -0.77937 -1.5 -0.397805 -1.5 0 
C -1.5 0.397805 -1.341951 0.77937 -1.06066 1.06066 
C -0.77937 1.341951 -0.397805 1.5 0 1.5 
z
" id="m5fb5336328" style="stroke:#00bfbf;"/>
    </defs>
    <g>
     <use style="fill:#00bfbf;stroke:#00bfbf;" x="355.712587" xlink:href="#m5fb5336328" y="27.513663"/>
     <use style="fill:#00bfbf;stroke:#00bfbf;" x="355.712587" xlink:href="#m5fb5336328" y="27.513663"/>
    </g>
   </g>
   <g id="line2d_24">
    <path d="M 56.12 294.88 
L 56.12 276.007082 
L 68.045504 276.007082 
L 68.045504 275.482834 
L 75.021477 275.482834 
L 75.021477 274.434339 
L 79.971009 274.434339 
L 79.971009 273.910091 
L 83.810164 273.910091 
L 83.810164 271.288853 
L 86.946982 271.288853 
L 86.946982 270.764605 
L 89.599124 270.764605 
L 89.599124 267.619119 
L 93.922955 267.619119 
L 93.922955 267.094871 
L 102.711641 267.094871 
L 102.711641 266.570623 
L 108.500601 266.570623 
L 108.500601 266.046375 
L 109.300972 266.046375 
L 109.300972 264.99788 
L 111.500328 264.99788 
L 111.500328 264.473632 
L 115.747522 264.473632 
L 115.747522 263.425137 
L 117.773963 263.425137 
L 117.773963 262.900889 
L 121.226476 262.900889 
L 121.226476 262.376641 
L 121.991263 262.376641 
L 121.991263 261.852394 
L 123.425832 261.852394 
L 123.425832 260.803898 
L 126.56265 260.803898 
L 126.56265 258.706907 
L 131.512181 258.706907 
L 131.512181 258.18266 
L 136.675441 258.18266 
L 136.675441 257.658412 
L 138.052565 257.658412 
L 138.052565 255.561421 
L 145.842271 255.561421 
L 145.842271 255.037173 
L 150.485197 255.037173 
L 150.485197 254.512926 
L 153.249158 254.512926 
L 153.249158 253.988678 
L 153.96365 253.988678 
L 153.96365 253.46443 
L 155.092242 253.46443 
L 155.092242 252.940182 
L 160.041774 252.940182 
L 160.041774 252.415935 
L 163.616741 252.415935 
L 163.616741 251.891687 
L 164.397436 251.891687 
L 164.397436 251.367439 
L 165.083228 251.367439 
L 165.083228 250.843192 
L 167.395891 250.843192 
L 167.395891 250.318944 
L 170.514889 250.318944 
L 170.514889 248.746201 
L 172.008193 248.746201 
L 172.008193 248.221953 
L 172.251662 248.221953 
L 172.251662 246.124962 
L 173.058442 246.124962 
L 173.058442 245.076467 
L 174.138756 245.076467 
L 174.138756 244.552219 
L 178.416389 244.552219 
L 178.416389 241.93098 
L 180.97576 241.93098 
L 180.97576 240.882485 
L 182.395763 240.882485 
L 182.395763 240.358237 
L 183.551466 240.358237 
L 183.551466 238.785494 
L 184.974332 238.785494 
L 184.974332 238.261246 
L 188.508831 238.261246 
L 188.508831 237.736999 
L 189.146833 237.736999 
L 189.146833 237.212751 
L 190.022157 237.212751 
L 190.022157 236.164255 
L 190.221801 236.164255 
L 190.221801 235.640008 
L 191.479087 235.640008 
L 191.479087 235.11576 
L 196.132864 235.11576 
L 196.132864 233.018769 
L 196.701549 233.018769 
L 196.701549 232.494521 
L 199.078407 232.494521 
L 199.078407 231.970274 
L 200.756293 231.970274 
L 200.790845 230.921778 
L 205.411254 230.921778 
L 205.461025 229.873283 
L 206.010546 229.873283 
L 206.010546 229.349035 
L 206.190821 229.349035 
L 206.224414 226.727797 
L 206.764002 226.727797 
L 206.764002 225.679301 
L 207.281923 225.679301 
L 207.281923 224.630806 
L 208.904499 224.630806 
L 208.904499 224.106558 
L 209.290237 224.106558 
L 209.290237 223.058063 
L 209.434719 223.058063 
L 209.434719 222.533815 
L 209.617076 222.533815 
L 209.617076 221.485319 
L 210.15728 221.485319 
L 210.15728 219.388328 
L 212.355924 219.388328 
L 212.355924 218.864081 
L 212.544829 218.864081 
L 212.544829 218.339833 
L 214.589553 218.339833 
L 214.589553 217.815585 
L 215.817335 217.815585 
L 215.817335 217.291338 
L 216.662557 217.291338 
L 216.662557 216.76709 
L 217.850892 216.76709 
L 217.850892 216.242842 
L 218.41219 216.242842 
L 218.41219 214.145851 
L 220.635052 214.145851 
L 220.635052 212.04886 
L 221.444717 212.04886 
L 221.444717 211.524613 
L 222.076107 211.524613 
L 222.076107 209.95187 
L 222.584943 209.95187 
L 222.584943 208.379126 
L 224.070613 208.379126 
L 224.070613 207.854879 
L 225.017413 207.854879 
L 225.017413 205.23364 
L 225.358299 205.23364 
L 225.358299 204.709392 
L 227.668215 204.709392 
L 227.668215 204.185145 
L 227.893505 204.185145 
L 227.893505 202.612401 
L 281.889898 202.612401 
L 281.980254 198.942667 
L 282.005871 198.942667 
L 282.10558 194.224438 
L 282.1915 194.224438 
L 282.299652 191.078952 
L 282.31312 191.078952 
L 282.412371 187.409218 
L 282.427851 187.409218 
L 282.508297 183.739484 
L 282.550599 183.739484 
L 282.618705 181.118245 
L 293.842339 181.118245 
L 293.946543 174.303025 
L 294.018032 174.303025 
L 294.126705 165.390813 
L 294.148249 165.390813 
L 294.148249 164.866566 
L 300.820631 164.866566 
L 300.912793 162.769575 
L 300.942775 162.769575 
L 301.036853 149.663382 
L 305.797234 149.663382 
L 305.907454 144.420905 
L 305.913918 144.420905 
L 305.925002 141.799666 
L 309.644036 141.799666 
L 309.718337 135.508693 
L 312.751871 135.508693 
L 312.839373 128.169225 
L 315.395838 128.169225 
L 315.473874 122.926748 
L 317.689707 122.926748 
L 317.756814 114.014537 
L 319.745743 114.014537 
L 319.774155 108.77206 
L 321.52393 108.77206 
L 321.578619 99.859849 
L 323.161935 99.859849 
L 323.211665 94.093124 
L 324.659201 94.093124 
L 324.703054 90.42339 
L 326.053509 90.42339 
L 326.075414 85.70516 
L 327.328055 85.70516 
L 327.346346 82.035426 
L 328.494719 82.035426 
L 328.525103 79.414188 
L 329.621086 79.414188 
L 329.634303 75.744454 
L 330.658847 75.744454 
L 330.676829 72.074719 
L 331.644136 72.074719 
L 331.65837 68.404985 
L 332.576012 68.404985 
L 332.580383 65.783747 
L 333.429677 65.783747 
L 333.429677 65.783747 
" style="fill:none;stroke:#00bfbf;stroke-linecap:square;stroke-width:1.5;"/>
   </g>
   <g id="line2d_25">
    <defs>
     <path d="M -6 0 
L 6 0 
M 0 6 
L 0 -6 
" id="m08dc40ec74" style="stroke:#00bfbf;stroke-width:1.5;"/>
    </defs>
    <g>
     <use style="fill-opacity:0;stroke:#00bfbf;stroke-width:1.5;" x="191.479087" xlink:href="#m08dc40ec74" y="235.11576"/>
     <use style="fill-opacity:0;stroke:#00bfbf;stroke-width:1.5;" x="282.618705" xlink:href="#m08dc40ec74" y="181.118245"/>
     <use style="fill-opacity:0;stroke:#00bfbf;stroke-width:1.5;" x="332.580383" xlink:href="#m08dc40ec74" y="65.783747"/>
     <use style="fill-opacity:0;stroke:#00bfbf;stroke-width:1.5;" x="332.580383" xlink:href="#m08dc40ec74" y="65.783747"/>
     <use style="fill-opacity:0;stroke:#00bfbf;stroke-width:1.5;" x="333.429677" xlink:href="#m08dc40ec74" y="65.783747"/>
    </g>
   </g>
   <g id="line2d_26">
    <path style="fill:none;stroke:#00bfbf;stroke-linecap:square;stroke-width:1.5;"/>
    <g/>
   </g>
   <g id="line2d_27">
    <path clip-path="url(#p6871417c5f)" d="M 281.888522 202.612401 
" style="fill:none;stroke:#00bfbf;stroke-linecap:square;stroke-width:1.5;"/>
    <defs>
     <path d="M -12 12 
L 12 -12 
M -12 -12 
L 12 12 
" id="mb957eea860" style="stroke:#00bfbf;stroke-width:3;"/>
    </defs>
    <g clip-path="url(#p6871417c5f)">
     <use style="fill:#00bfbf;stroke:#00bfbf;stroke-width:3;" x="281.888522" xlink:href="#mb957eea860" y="202.612401"/>
    </g>
   </g>
   <g id="line2d_28">
    <defs>
     <path d="M 0 1.5 
C 0.397805 1.5 0.77937 1.341951 1.06066 1.06066 
C 1.341951 0.77937 1.5 0.397805 1.5 0 
C 1.5 -0.397805 1.341951 -0.77937 1.06066 -1.06066 
C 0.77937 -1.341951 0.397805 -1.5 0 -1.5 
C -0.397805 -1.5 -0.77937 -1.341951 -1.06066 -1.06066 
C -1.341951 -0.77937 -1.5 -0.397805 -1.5 0 
C -1.5 0.397805 -1.341951 0.77937 -1.06066 1.06066 
C -0.77937 1.341951 -0.397805 1.5 0 1.5 
z
" id="me9b861e0dc" style="stroke:#008000;"/>
    </defs>
    <g>
     <use style="fill:#008000;stroke:#008000;" x="341.888437" xlink:href="#me9b861e0dc" y="211.000365"/>
     <use style="fill:#008000;stroke:#008000;" x="341.888437" xlink:href="#me9b861e0dc" y="211.000365"/>
    </g>
   </g>
   <g id="line2d_29">
    <path d="M 49.144027 294.88 
L 49.144027 282.822302 
L 61.069532 282.822302 
L 61.069532 280.725312 
L 72.995036 280.725312 
L 72.995036 280.201064 
L 76.834191 280.201064 
L 76.834191 278.104073 
L 79.971009 278.104073 
L 79.971009 277.579825 
L 88.759695 277.579825 
L 88.759695 276.53133 
L 91.896513 276.53133 
L 91.896513 276.007082 
L 94.548655 276.007082 
L 94.548655 274.434339 
L 98.872486 274.434339 
L 98.872486 273.910091 
L 99.802705 273.910091 
L 99.802705 273.385844 
L 108.225317 273.385844 
L 108.225317 272.337348 
L 110.313314 272.337348 
L 110.313314 271.8131 
L 117.773963 271.8131 
L 117.773963 271.288853 
L 120.426105 271.288853 
L 120.426105 270.240357 
L 123.194891 270.240357 
L 123.194891 269.191862 
L 123.653714 269.191862 
L 123.653714 268.667614 
L 127.310805 268.667614 
L 127.310805 268.143366 
L 138.583472 268.143366 
L 138.583472 267.619119 
L 150.075824 267.619119 
L 150.075824 267.094871 
L 152.776636 267.094871 
L 152.776636 266.570623 
L 153.106716 266.570623 
L 153.106716 266.046375 
L 154.890799 266.046375 
L 154.890799 265.522128 
L 156.372461 265.522128 
L 156.372461 264.99788 
L 156.507137 264.99788 
L 156.507137 264.473632 
L 157.035543 264.473632 
L 157.035543 263.949385 
L 157.984582 263.949385 
L 157.984582 262.376641 
L 161.556989 262.376641 
L 161.631847 260.279651 
L 162.386888 260.279651 
L 162.386888 259.755403 
L 162.552891 259.755403 
L 162.552891 259.231155 
L 162.972543 259.231155 
L 162.972543 258.706907 
L 163.957225 258.706907 
L 163.957225 258.18266 
L 166.406201 258.18266 
L 166.406201 257.658412 
L 169.15509 257.658412 
L 169.15509 257.134164 
L 173.369592 257.134164 
L 173.369592 256.609917 
L 174.264668 256.609917 
L 174.264668 256.085669 
L 175.828266 256.085669 
L 175.828266 255.037173 
L 175.958689 255.037173 
L 175.958689 254.512926 
L 176.280485 254.512926 
L 176.280485 253.988678 
L 177.301631 253.988678 
L 177.301631 251.891687 
L 179.024984 251.891687 
L 179.052143 250.318944 
L 179.419074 250.318944 
L 179.419074 249.270448 
L 180.919045 249.270448 
L 180.919045 248.221953 
L 183.031835 248.221953 
L 183.031835 247.173458 
L 184.542605 247.173458 
L 184.542605 246.64921 
L 187.058024 246.64921 
L 187.058024 246.124962 
L 187.578321 246.124962 
L 187.578321 245.600714 
L 188.067283 245.600714 
L 188.067283 245.076467 
L 190.072285 245.076467 
L 190.072285 244.552219 
L 192.68966 244.552219 
L 192.68966 244.027971 
L 193.489658 244.027971 
L 193.489658 243.503724 
L 195.574193 243.503724 
L 195.574193 242.979476 
L 196.838821 242.979476 
L 196.838821 242.455228 
L 198.136573 242.455228 
L 198.219904 241.406733 
L 202.232163 241.406733 
L 202.232163 240.882485 
L 202.440171 240.882485 
L 202.440171 239.83399 
L 202.837445 239.83399 
L 202.837445 239.309742 
L 204.338626 239.309742 
L 204.338626 238.785494 
L 204.969749 238.785494 
L 204.989792 237.736999 
L 205.995437 237.736999 
L 205.995437 236.688503 
L 206.841522 236.688503 
L 206.841522 235.640008 
L 208.05334 235.640008 
L 208.05334 235.11576 
L 208.578342 235.11576 
L 208.578342 234.067265 
L 213.367371 234.067265 
L 213.367371 233.543017 
L 213.932826 233.543017 
L 213.932826 232.494521 
L 214.184687 232.494521 
L 214.184687 230.397531 
L 224.8256 230.397531 
L 224.8256 229.349035 
L 275.06595 229.349035 
L 275.131204 226.203549 
L 275.231038 226.203549 
L 275.341309 224.106558 
L 275.402519 224.106558 
L 275.402519 223.58231 
L 286.947728 223.58231 
L 287.031905 221.485319 
L 287.084783 221.485319 
L 287.084783 220.961072 
L 287.264028 220.961072 
L 287.264028 220.436824 
L 293.879921 220.436824 
L 293.949832 218.864081 
L 294.099178 218.864081 
L 294.099922 217.291338 
L 305.883073 217.291338 
L 305.883073 216.76709 
L 308.450006 216.76709 
L 308.450006 216.242842 
L 312.760891 216.242842 
L 312.760891 215.718594 
L 320.378842 215.718594 
L 320.378842 215.194347 
L 321.561751 215.194347 
L 321.561751 214.670099 
L 327.312616 214.670099 
L 327.334284 213.621604 
L 328.895869 213.621604 
L 328.895869 213.097356 
L 329.626538 213.097356 
L 329.626538 212.573108 
L 332.273541 212.573108 
L 332.273541 212.04886 
L 333.429677 212.04886 
L 333.429677 212.04886 
" style="fill:none;stroke:#008000;stroke-linecap:square;stroke-width:1.5;"/>
   </g>
   <g id="line2d_30">
    <defs>
     <path d="M -0 6 
L 6 -6 
L -6 -6 
z
" id="mb28a1987ad" style="stroke:#008000;stroke-linejoin:miter;stroke-width:1.5;"/>
    </defs>
    <g>
     <use style="fill-opacity:0;stroke:#008000;stroke-linejoin:miter;stroke-width:1.5;" x="127.310805" xlink:href="#mb28a1987ad" y="268.143366"/>
     <use style="fill-opacity:0;stroke:#008000;stroke-linejoin:miter;stroke-width:1.5;" x="195.574193" xlink:href="#mb28a1987ad" y="242.979476"/>
     <use style="fill-opacity:0;stroke:#008000;stroke-linejoin:miter;stroke-width:1.5;" x="224.8256" xlink:href="#mb28a1987ad" y="229.349035"/>
     <use style="fill-opacity:0;stroke:#008000;stroke-linejoin:miter;stroke-width:1.5;" x="312.760891" xlink:href="#mb28a1987ad" y="216.242842"/>
     <use style="fill-opacity:0;stroke:#008000;stroke-linejoin:miter;stroke-width:1.5;" x="332.273541" xlink:href="#mb28a1987ad" y="212.04886"/>
     <use style="fill-opacity:0;stroke:#008000;stroke-linejoin:miter;stroke-width:1.5;" x="333.429677" xlink:href="#mb28a1987ad" y="212.04886"/>
    </g>
   </g>
   <g id="line2d_31">
    <path style="fill:none;stroke:#008000;stroke-linecap:square;stroke-width:1.5;"/>
    <g/>
   </g>
   <g id="line2d_32">
    <path clip-path="url(#p6871417c5f)" d="M 274.912549 229.349035 
" style="fill:none;stroke:#008000;stroke-linecap:square;stroke-width:1.5;"/>
    <defs>
     <path d="M -12 12 
L 12 -12 
M -12 -12 
L 12 12 
" id="mc7959f5874" style="stroke:#008000;stroke-width:3;"/>
    </defs>
    <g clip-path="url(#p6871417c5f)">
     <use style="fill:#008000;stroke:#008000;stroke-width:3;" x="274.912549" xlink:href="#mc7959f5874" y="229.349035"/>
    </g>
   </g>
   <g id="line2d_33">
    <defs>
     <path d="M 0 1.5 
C 0.397805 1.5 0.77937 1.341951 1.06066 1.06066 
C 1.341951 0.77937 1.5 0.397805 1.5 0 
C 1.5 -0.397805 1.341951 -0.77937 1.06066 -1.06066 
C 0.77937 -1.341951 0.397805 -1.5 0 -1.5 
C -0.397805 -1.5 -0.77937 -1.341951 -1.06066 -1.06066 
C -1.341951 -0.77937 -1.5 -0.397805 -1.5 0 
C -1.5 0.397805 -1.341951 0.77937 -1.06066 1.06066 
C -0.77937 1.341951 -0.397805 1.5 0 1.5 
z
" id="m482ba744fc" style="stroke:#0000ff;"/>
    </defs>
    <g>
     <use style="fill:#0000ff;stroke:#0000ff;" x="328.262757" xlink:href="#m482ba744fc" y="221.485319"/>
     <use style="fill:#0000ff;stroke:#0000ff;" x="328.262757" xlink:href="#m482ba744fc" y="221.485319"/>
    </g>
   </g>
   <g id="line2d_34">
    <path d="M 40.355341 294.88 
L 40.355341 289.637523 
L 52.280845 289.637523 
L 52.280845 287.540532 
L 64.20635 287.540532 
L 64.20635 287.016284 
L 68.045504 287.016284 
L 68.045504 286.492036 
L 71.182322 286.492036 
L 71.182322 285.967789 
L 78.158295 285.967789 
L 78.158295 284.919293 
L 92.735942 284.919293 
L 92.735942 283.870798 
L 105.066285 283.870798 
L 105.066285 283.34655 
L 107.661173 283.34655 
L 107.661173 282.822302 
L 109.610977 282.822302 
L 109.610977 281.773807 
L 112.951406 281.773807 
L 112.951406 279.676816 
L 120.261464 279.676816 
L 120.261464 279.152568 
L 126.331709 279.152568 
L 126.331709 278.628321 
L 146.964332 278.628321 
L 146.964332 277.579825 
L 147.651244 277.579825 
L 147.651244 277.055578 
L 149.379579 277.055578 
L 149.379579 276.53133 
L 153.090361 276.53133 
L 153.090361 275.482834 
L 153.598202 275.482834 
L 153.598202 274.958587 
L 154.137731 274.958587 
L 154.137731 274.434339 
L 154.683241 274.434339 
L 154.683241 273.910091 
L 163.069006 273.910091 
L 163.069006 273.385844 
L 167.126638 273.385844 
L 167.126638 272.861596 
L 168.692268 272.861596 
L 168.692268 271.8131 
L 168.996786 271.8131 
L 168.996786 270.764605 
L 170.353676 270.764605 
L 170.353676 269.716109 
L 170.876553 269.716109 
L 170.876553 269.191862 
L 176.053708 269.191862 
L 176.053708 268.667614 
L 180.033133 268.667614 
L 180.033133 268.143366 
L 181.1544 268.143366 
L 181.1544 267.619119 
L 181.604753 267.619119 
L 181.604753 266.570623 
L 185.412999 266.570623 
L 185.412999 266.046375 
L 186.709164 266.046375 
L 186.709164 265.522128 
L 188.194296 265.522128 
L 188.194296 264.99788 
L 189.490493 264.99788 
L 189.490493 263.425137 
L 192.099045 263.425137 
L 192.099045 262.900889 
L 195.58527 262.900889 
L 195.58527 261.852394 
L 196.098641 261.852394 
L 196.098641 261.328146 
L 196.540275 261.328146 
L 196.540275 260.803898 
L 199.34827 260.803898 
L 199.34827 259.755403 
L 201.607247 259.755403 
L 201.607247 259.231155 
L 202.523138 259.231155 
L 202.523138 255.561421 
L 205.391305 255.561421 
L 205.391305 255.037173 
L 207.691483 255.037173 
L 207.691483 253.988678 
L 208.547094 253.988678 
L 208.547094 253.46443 
L 211.360306 253.46443 
L 211.410859 252.415935 
L 213.857381 252.415935 
L 213.857381 251.891687 
L 214.411843 251.891687 
L 214.411843 251.367439 
L 214.568903 251.367439 
L 214.568903 250.843192 
L 215.295137 250.843192 
L 215.295137 250.318944 
L 215.585831 250.318944 
L 215.585831 249.794696 
L 216.003996 249.794696 
L 216.003996 248.221953 
L 220.278969 248.221953 
L 220.278969 247.697705 
L 222.96539 247.697705 
L 222.96539 247.173458 
L 266.30844 247.173458 
L 266.409183 246.124962 
L 266.545439 246.124962 
L 266.620821 245.076467 
L 266.690748 245.076467 
L 266.719158 244.027971 
L 266.98988 244.027971 
L 266.98988 242.979476 
L 267.186223 242.979476 
L 267.186223 241.406733 
L 278.225892 241.406733 
L 278.225892 240.882485 
L 278.349589 240.882485 
L 278.403405 239.309742 
L 278.473864 239.309742 
L 278.499376 237.736999 
L 285.143224 237.736999 
L 285.225117 236.164255 
L 285.321645 236.164255 
L 285.386798 235.11576 
L 290.081238 235.11576 
L 290.100463 233.018769 
L 290.201347 233.018769 
L 290.201347 232.494521 
L 293.913937 232.494521 
L 293.914573 230.921778 
L 299.758828 230.921778 
L 299.758828 230.397531 
L 301.936301 230.397531 
L 301.936301 229.873283 
L 303.966202 229.873283 
L 303.982395 228.824787 
L 305.782156 228.824787 
L 305.789878 227.252044 
L 311.564468 227.252044 
L 311.564468 226.727797 
L 312.749085 226.727797 
L 312.749085 226.203549 
L 316.840121 226.203549 
L 316.840121 225.679301 
L 319.327737 225.679301 
L 319.327737 225.155053 
L 320.09139 225.155053 
L 320.09139 224.630806 
L 322.198236 224.630806 
L 322.198236 224.106558 
L 322.846959 224.106558 
L 322.846959 223.58231 
L 323.471993 223.58231 
L 323.471993 223.058063 
L 326.295982 223.058063 
L 326.295982 222.533815 
L 328.260753 222.533815 
L 328.262757 221.485319 
L 333.429677 221.485319 
L 333.429677 221.485319 
" style="fill:none;stroke:#0000ff;stroke-linecap:square;stroke-width:1.5;"/>
   </g>
   <g id="line2d_35">
    <defs>
     <path d="M 0 -6 
L -1.347084 -1.854102 
L -5.706339 -1.854102 
L -2.179628 0.708204 
L -3.526712 4.854102 
L -0 2.291796 
L 3.526712 4.854102 
L 2.179628 0.708204 
L 5.706339 -1.854102 
L 1.347084 -1.854102 
z
" id="m9d9c0be501" style="stroke:#0000ff;stroke-linejoin:bevel;stroke-width:1.5;"/>
    </defs>
    <g>
     <use style="fill-opacity:0;stroke:#0000ff;stroke-linejoin:bevel;stroke-width:1.5;" x="78.158295" xlink:href="#m9d9c0be501" y="284.919293"/>
     <use style="fill-opacity:0;stroke:#0000ff;stroke-linejoin:bevel;stroke-width:1.5;" x="167.126638" xlink:href="#m9d9c0be501" y="272.861596"/>
     <use style="fill-opacity:0;stroke:#0000ff;stroke-linejoin:bevel;stroke-width:1.5;" x="222.96539" xlink:href="#m9d9c0be501" y="247.697705"/>
     <use style="fill-opacity:0;stroke:#0000ff;stroke-linejoin:bevel;stroke-width:1.5;" x="285.386798" xlink:href="#m9d9c0be501" y="235.640008"/>
     <use style="fill-opacity:0;stroke:#0000ff;stroke-linejoin:bevel;stroke-width:1.5;" x="328.262757" xlink:href="#m9d9c0be501" y="221.485319"/>
     <use style="fill-opacity:0;stroke:#0000ff;stroke-linejoin:bevel;stroke-width:1.5;" x="333.429677" xlink:href="#m9d9c0be501" y="221.485319"/>
    </g>
   </g>
   <g id="line2d_36">
    <path style="fill:none;stroke:#0000ff;stroke-linecap:square;stroke-width:1.5;"/>
    <g/>
   </g>
   <g id="line2d_37">
    <path clip-path="url(#p6871417c5f)" d="M 266.123863 247.173458 
" style="fill:none;stroke:#0000ff;stroke-linecap:square;stroke-width:1.5;"/>
    <defs>
     <path d="M -12 12 
L 12 -12 
M -12 -12 
L 12 12 
" id="m07b29ef1e0" style="stroke:#0000ff;stroke-width:3;"/>
    </defs>
    <g clip-path="url(#p6871417c5f)">
     <use style="fill:#0000ff;stroke:#0000ff;stroke-width:3;" x="266.123863" xlink:href="#m07b29ef1e0" y="247.173458"/>
    </g>
   </g>
   <g id="line2d_38">
    <defs>
     <path d="M 0 1.5 
C 0.397805 1.5 0.77937 1.341951 1.06066 1.06066 
C 1.341951 0.77937 1.5 0.397805 1.5 0 
C 1.5 -0.397805 1.341951 -0.77937 1.06066 -1.06066 
C 0.77937 -1.341951 0.397805 -1.5 0 -1.5 
C -0.397805 -1.5 -0.77937 -1.341951 -1.06066 -1.06066 
C -1.341951 -0.77937 -1.5 -0.397805 -1.5 0 
C -1.5 0.397805 -1.341951 0.77937 -1.06066 1.06066 
C -0.77937 1.341951 -0.397805 1.5 0 1.5 
z
" id="mf6791049e4" style="stroke:#000000;"/>
    </defs>
    <g>
     <use style="stroke:#000000;" x="316.802487" xlink:href="#mf6791049e4" y="242.455228"/>
     <use style="stroke:#000000;" x="316.802487" xlink:href="#mf6791049e4" y="242.455228"/>
    </g>
   </g>
   <g id="line2d_39">
    <path d="M 91.896513 294.88 
L 91.896513 294.355752 
L 105.656224 294.355752 
L 105.656224 293.831505 
L 106.03857 293.831505 
L 106.03857 293.307257 
L 106.412604 293.307257 
L 106.412604 292.783009 
L 116.689057 292.783009 
L 116.689057 292.258761 
L 119.06263 292.258761 
L 119.06263 291.210266 
L 121.536482 291.210266 
L 121.536482 290.686018 
L 122.795033 290.686018 
L 122.795033 289.637523 
L 156.557371 289.637523 
L 156.557371 288.589027 
L 157.245657 288.589027 
L 157.245657 288.06478 
L 158.951048 288.06478 
L 158.951048 287.540532 
L 161.925617 287.540532 
L 161.925617 287.016284 
L 162.679865 287.016284 
L 162.679865 286.492036 
L 163.328141 286.492036 
L 163.328141 285.967789 
L 163.556736 285.967789 
L 163.556736 285.443541 
L 165.064883 285.443541 
L 165.064883 284.919293 
L 165.30186 284.919293 
L 165.30186 284.395046 
L 176.566089 284.395046 
L 176.566089 283.870798 
L 187.929069 283.870798 
L 188.00181 282.298055 
L 190.079435 282.298055 
L 190.079435 281.773807 
L 190.79349 281.773807 
L 190.79349 281.249559 
L 195.296352 281.249559 
L 195.296352 280.725312 
L 195.657781 280.725312 
L 195.658815 279.676816 
L 195.780353 279.676816 
L 195.780353 279.152568 
L 196.045158 279.152568 
L 196.045158 278.628321 
L 196.574611 278.628321 
L 196.574611 278.104073 
L 197.439456 278.104073 
L 197.439456 277.055578 
L 200.489066 277.055578 
L 200.570059 276.007082 
L 200.827624 276.007082 
L 200.827624 274.958587 
L 201.169406 274.958587 
L 201.169406 273.910091 
L 203.853355 273.910091 
L 203.853355 272.861596 
L 204.233034 272.861596 
L 204.233034 272.337348 
L 205.038399 272.337348 
L 205.038399 271.8131 
L 205.756669 271.8131 
L 205.756669 271.288853 
L 207.075557 271.288853 
L 207.075557 270.240357 
L 207.248227 270.240357 
L 207.248227 269.716109 
L 207.802066 269.716109 
L 207.802066 269.191862 
L 208.290087 269.191862 
L 208.290087 268.143366 
L 208.943703 268.143366 
L 208.943703 266.570623 
L 212.028149 266.570623 
L 212.028149 265.522128 
L 214.302021 265.522128 
L 214.302021 264.99788 
L 215.686166 264.99788 
L 215.686166 264.473632 
L 254.750221 264.473632 
L 254.750221 263.949385 
L 254.999138 263.949385 
L 255.07991 262.900889 
L 266.423273 262.900889 
L 266.498939 260.803898 
L 266.570284 260.803898 
L 266.570284 260.279651 
L 273.285764 260.279651 
L 273.389149 258.706907 
L 273.404515 258.706907 
L 273.404515 258.18266 
L 278.216114 258.18266 
L 278.274026 256.085669 
L 282.005276 256.085669 
L 282.045599 253.988678 
L 285.151276 253.988678 
L 285.175438 251.891687 
L 287.757411 251.891687 
L 287.789826 250.843192 
L 290.06941 250.843192 
L 290.08976 249.794696 
L 292.063512 249.794696 
L 292.098292 246.124962 
L 297.006607 246.124962 
L 297.006607 245.600714 
L 299.667474 245.600714 
L 299.66873 244.552219 
L 306.616489 244.552219 
L 306.616489 244.027971 
L 308.904253 244.027971 
L 308.904253 243.503724 
L 310.924471 243.503724 
L 310.924471 242.979476 
L 316.802487 242.979476 
L 316.802487 242.455228 
L 333.429677 242.455228 
L 333.429677 242.455228 
" style="fill:none;stroke:#000000;stroke-linecap:square;stroke-width:1.5;"/>
   </g>
   <g id="line2d_40">
    <defs>
     <path d="M 0 6 
C 1.591219 6 3.117479 5.367802 4.242641 4.242641 
C 5.367802 3.117479 6 1.591219 6 0 
C 6 -1.591219 5.367802 -3.117479 4.242641 -4.242641 
C 3.117479 -5.367802 1.591219 -6 0 -6 
C -1.591219 -6 -3.117479 -5.367802 -4.242641 -4.242641 
C -5.367802 -3.117479 -6 -1.591219 -6 0 
C -6 1.591219 -5.367802 3.117479 -4.242641 4.242641 
C -3.117479 5.367802 -1.591219 6 0 6 
z
" id="m8afba5efed" style="stroke:#000000;stroke-width:1.5;"/>
    </defs>
    <g>
     <use style="fill-opacity:0;stroke:#000000;stroke-width:1.5;" x="122.795033" xlink:href="#m8afba5efed" y="290.686018"/>
     <use style="fill-opacity:0;stroke:#000000;stroke-width:1.5;" x="208.943703" xlink:href="#m8afba5efed" y="268.143366"/>
     <use style="fill-opacity:0;stroke:#000000;stroke-width:1.5;" x="273.285764" xlink:href="#m8afba5efed" y="260.279651"/>
     <use style="fill-opacity:0;stroke:#000000;stroke-width:1.5;" x="316.802487" xlink:href="#m8afba5efed" y="242.455228"/>
     <use style="fill-opacity:0;stroke:#000000;stroke-width:1.5;" x="333.429677" xlink:href="#m8afba5efed" y="242.455228"/>
    </g>
   </g>
   <g id="line2d_41">
    <path style="fill:none;stroke:#000000;stroke-linecap:square;stroke-width:1.5;"/>
    <g/>
   </g>
   <g id="line2d_42">
    <path clip-path="url(#p6871417c5f)" d="M 254.198358 264.473632 
" style="fill:none;stroke:#000000;stroke-linecap:square;stroke-width:1.5;"/>
    <defs>
     <path d="M -12 12 
L 12 -12 
M -12 -12 
L 12 12 
" id="m2b108ce734" style="stroke:#000000;stroke-width:3;"/>
    </defs>
    <g clip-path="url(#p6871417c5f)">
     <use style="stroke:#000000;stroke-width:3;" x="254.198358" xlink:href="#m2b108ce734" y="264.473632"/>
    </g>
   </g>
   <g id="line2d_43">
    <defs>
     <path d="M 0 1.5 
C 0.397805 1.5 0.77937 1.341951 1.06066 1.06066 
C 1.341951 0.77937 1.5 0.397805 1.5 0 
C 1.5 -0.397805 1.341951 -0.77937 1.06066 -1.06066 
C 0.77937 -1.341951 0.397805 -1.5 0 -1.5 
C -0.397805 -1.5 -0.77937 -1.341951 -1.06066 -1.06066 
C -1.341951 -0.77937 -1.5 -0.397805 -1.5 0 
C -1.5 0.397805 -1.341951 0.77937 -1.06066 1.06066 
C -0.77937 1.341951 -0.397805 1.5 0 1.5 
z
" id="me7e5cdad4a" style="stroke:#ff0000;"/>
    </defs>
    <g>
     <use style="fill:#ff0000;stroke:#ff0000;" x="282.062496" xlink:href="#me7e5cdad4a" y="252.940182"/>
     <use style="fill:#ff0000;stroke:#ff0000;" x="282.062496" xlink:href="#me7e5cdad4a" y="252.940182"/>
    </g>
   </g>
   <g id="line2d_44">
    <path d="M 168.308947 294.88 
L 168.308947 294.355752 
L 183.208571 294.355752 
L 183.208571 293.307257 
L 184.182203 293.307257 
L 184.182203 292.258761 
L 187.167301 292.258761 
L 187.167301 290.686018 
L 189.940925 290.686018 
L 189.940925 290.161771 
L 193.518556 290.161771 
L 193.518556 289.637523 
L 194.175415 289.637523 
L 194.175415 289.113275 
L 194.204685 289.113275 
L 194.204685 288.06478 
L 194.409857 288.06478 
L 194.409857 287.016284 
L 195.43147 287.016284 
L 195.43147 285.967789 
L 196.001137 285.967789 
L 196.001137 285.443541 
L 196.961276 285.443541 
L 196.961276 283.34655 
L 198.112988 283.34655 
L 198.112988 282.822302 
L 199.032166 282.822302 
L 199.032166 282.298055 
L 199.512228 282.298055 
L 199.512228 281.249559 
L 199.620945 281.249559 
L 199.620945 280.201064 
L 199.787216 280.201064 
L 199.787216 279.152568 
L 200.394743 279.152568 
L 200.394743 278.628321 
L 200.669223 278.628321 
L 200.669223 278.104073 
L 201.287555 278.104073 
L 201.287555 277.579825 
L 201.503059 277.579825 
L 201.503059 277.055578 
L 202.13525 277.055578 
L 202.13525 276.007082 
L 202.579226 276.007082 
L 202.579226 274.958587 
L 202.935685 274.958587 
L 202.935685 274.434339 
L 202.977279 274.434339 
L 202.977279 273.910091 
L 203.767115 273.910091 
L 203.767115 273.385844 
L 204.25688 273.385844 
L 204.25688 272.861596 
L 206.900061 272.861596 
L 206.900061 272.337348 
L 211.857658 272.337348 
L 211.857658 271.8131 
L 211.947326 271.8131 
L 211.947326 271.288853 
L 212.42998 271.288853 
L 212.42998 270.764605 
L 213.627766 270.764605 
L 213.627766 270.240357 
L 243.51856 270.240357 
L 243.51856 269.716109 
L 243.565258 269.716109 
L 243.565258 268.667614 
L 243.718332 268.667614 
L 243.718332 268.143366 
L 243.759442 268.143366 
L 243.759442 267.094871 
L 243.800675 267.094871 
L 243.800675 266.570623 
L 243.90558 266.570623 
L 243.90558 265.522128 
L 243.938158 265.522128 
L 243.938158 264.473632 
L 254.832483 264.473632 
L 254.832483 263.949385 
L 254.984549 263.949385 
L 254.984549 263.425137 
L 254.997463 263.425137 
L 254.997463 262.900889 
L 255.013288 262.900889 
L 255.013288 262.376641 
L 255.040751 262.376641 
L 255.040751 261.852394 
L 255.265409 261.852394 
L 255.265409 261.328146 
L 261.698825 261.328146 
L 261.698825 260.803898 
L 261.702429 260.803898 
L 261.702429 260.279651 
L 261.735966 260.279651 
L 261.735966 259.755403 
L 266.443847 259.755403 
L 266.443847 259.231155 
L 266.496776 259.231155 
L 266.496776 258.706907 
L 266.503526 258.706907 
L 266.503526 258.18266 
L 266.507724 258.18266 
L 266.507724 257.658412 
L 266.546798 257.658412 
L 266.546798 257.134164 
L 270.267415 257.134164 
L 270.267415 256.609917 
L 270.309223 256.609917 
L 270.309223 256.085669 
L 273.347628 256.085669 
L 273.347628 255.561421 
L 275.978721 255.561421 
L 275.978721 255.037173 
L 278.266561 255.037173 
L 278.266561 254.512926 
L 280.245276 254.512926 
L 280.245276 253.988678 
L 280.269004 253.988678 
L 280.269004 253.46443 
L 282.062496 253.46443 
L 282.062496 252.940182 
L 333.429677 252.940182 
" style="fill:none;stroke:#ff0000;stroke-linecap:square;stroke-width:1.5;"/>
   </g>
   <g id="line2d_45">
    <defs>
     <path d="M -6 6 
L 6 6 
L 6 -6 
L -6 -6 
z
" id="mb45adb698d" style="stroke:#ff0000;stroke-linejoin:miter;stroke-width:1.5;"/>
    </defs>
    <g>
     <use style="fill-opacity:0;stroke:#ff0000;stroke-linejoin:miter;stroke-width:1.5;" x="243.938158" xlink:href="#mb45adb698d" y="265.522128"/>
     <use style="fill-opacity:0;stroke:#ff0000;stroke-linejoin:miter;stroke-width:1.5;" x="282.062496" xlink:href="#mb45adb698d" y="252.940182"/>
     <use style="fill-opacity:0;stroke:#ff0000;stroke-linejoin:miter;stroke-width:1.5;" x="282.062496" xlink:href="#mb45adb698d" y="252.940182"/>
     <use style="fill-opacity:0;stroke:#ff0000;stroke-linejoin:miter;stroke-width:1.5;" x="333.429677" xlink:href="#mb45adb698d" y="252.940182"/>
    </g>
   </g>
   <g id="line2d_46">
    <path style="fill:none;stroke:#ff0000;stroke-linecap:square;stroke-width:1.5;"/>
    <g/>
   </g>
   <g id="line2d_47">
    <path clip-path="url(#p6871417c5f)" d="M 242.272854 270.240357 
" style="fill:none;stroke:#ff0000;stroke-linecap:square;stroke-width:1.5;"/>
    <defs>
     <path d="M -12 12 
L 12 -12 
M -12 -12 
L 12 12 
" id="m7a17a19998" style="stroke:#ff0000;stroke-width:3;"/>
    </defs>
    <g clip-path="url(#p6871417c5f)">
     <use style="fill:#ff0000;stroke:#ff0000;stroke-width:3;" x="242.272854" xlink:href="#m7a17a19998" y="270.240357"/>
    </g>
   </g>
   <g id="line2d_48">
    <defs>
     <path d="M 0 1.5 
C 0.397805 1.5 0.77937 1.341951 1.06066 1.06066 
C 1.341951 0.77937 1.5 0.397805 1.5 0 
C 1.5 -0.397805 1.341951 -0.77937 1.06066 -1.06066 
C 0.77937 -1.341951 0.397805 -1.5 0 -1.5 
C -0.397805 -1.5 -0.77937 -1.341951 -1.06066 -1.06066 
C -1.341951 -0.77937 -1.5 -0.397805 -1.5 0 
C -1.5 0.397805 -1.341951 0.77937 -1.06066 1.06066 
C -0.77937 1.341951 -0.397805 1.5 0 1.5 
z
" id="m85268dc6cb" style="stroke:#bf00bf;"/>
    </defs>
    <g>
     <use style="fill:#bf00bf;stroke:#bf00bf;" x="268.351184" xlink:href="#m85268dc6cb" y="268.667614"/>
     <use style="fill:#bf00bf;stroke:#bf00bf;" x="268.351184" xlink:href="#m85268dc6cb" y="268.667614"/>
    </g>
   </g>
   <g id="line2d_49">
    <path d="M 180.646241 294.88 
L 180.646241 293.831505 
L 182.642561 293.831505 
L 182.642561 293.307257 
L 183.115609 293.307257 
L 183.115609 292.783009 
L 184.349558 292.783009 
L 184.349558 292.258761 
L 184.860475 292.258761 
L 184.860475 291.734514 
L 185.032896 291.734514 
L 185.032896 290.686018 
L 185.127997 290.686018 
L 185.127997 289.637523 
L 185.161325 289.637523 
L 185.161325 289.113275 
L 186.436615 289.113275 
L 186.436615 288.589027 
L 188.226169 288.589027 
L 188.226169 288.06478 
L 188.82041 288.06478 
L 188.82041 287.540532 
L 189.708786 287.540532 
L 189.708786 287.016284 
L 189.726306 287.016284 
L 189.726306 286.492036 
L 190.176372 286.492036 
L 190.176372 285.967789 
L 190.421608 285.967789 
L 190.421608 285.443541 
L 190.710317 285.443541 
L 190.710317 284.395046 
L 190.889566 284.395046 
L 190.889566 283.34655 
L 191.685085 283.34655 
L 191.685085 282.822302 
L 192.518482 282.822302 
L 192.518482 282.298055 
L 193.958856 282.298055 
L 193.958856 281.773807 
L 196.129093 281.773807 
L 196.129093 281.249559 
L 197.562506 281.249559 
L 197.562506 280.201064 
L 231.935172 280.201064 
L 231.935172 279.152568 
L 231.946401 279.152568 
L 231.946401 278.628321 
L 232.076038 278.628321 
L 232.076038 278.104073 
L 232.081234 278.104073 
L 232.081234 277.579825 
L 232.142786 277.579825 
L 232.142786 277.055578 
L 232.251776 277.055578 
L 232.251776 276.007082 
L 243.085076 276.007082 
L 243.085076 275.482834 
L 243.09095 275.482834 
L 243.09095 274.958587 
L 243.193982 274.958587 
L 243.193982 274.434339 
L 249.754519 274.434339 
L 249.754519 273.910091 
L 249.818087 273.910091 
L 249.818087 273.385844 
L 249.907338 273.385844 
L 249.907338 272.861596 
L 254.69459 272.861596 
L 254.69459 272.337348 
L 258.369434 272.337348 
L 258.369434 271.8131 
L 261.486886 271.8131 
L 261.486886 271.288853 
L 264.024988 271.288853 
L 264.024988 270.764605 
L 264.084319 270.764605 
L 264.084319 270.240357 
L 266.284121 270.240357 
L 266.284121 269.716109 
L 266.358809 269.716109 
L 266.358809 269.191862 
L 268.351184 269.191862 
L 268.351184 268.667614 
L 333.429677 268.667614 
" style="fill:none;stroke:#bf00bf;stroke-linecap:square;stroke-width:1.5;"/>
   </g>
   <g id="line2d_50">
    <defs>
     <path d="M -0 8.485281 
L 8.485281 0 
L 0 -8.485281 
L -8.485281 -0 
z
" id="m9cf3dad395" style="stroke:#bf00bf;stroke-linejoin:miter;stroke-width:1.5;"/>
    </defs>
    <g>
     <use style="fill-opacity:0;stroke:#bf00bf;stroke-linejoin:miter;stroke-width:1.5;" x="197.562506" xlink:href="#m9cf3dad395" y="280.201064"/>
     <use style="fill-opacity:0;stroke:#bf00bf;stroke-linejoin:miter;stroke-width:1.5;" x="268.351184" xlink:href="#m9cf3dad395" y="269.191862"/>
     <use style="fill-opacity:0;stroke:#bf00bf;stroke-linejoin:miter;stroke-width:1.5;" x="268.351184" xlink:href="#m9cf3dad395" y="268.667614"/>
     <use style="fill-opacity:0;stroke:#bf00bf;stroke-linejoin:miter;stroke-width:1.5;" x="333.429677" xlink:href="#m9cf3dad395" y="268.667614"/>
    </g>
   </g>
   <g id="line2d_51">
    <path style="fill:none;stroke:#bf00bf;stroke-linecap:square;stroke-width:1.5;"/>
    <g/>
   </g>
   <g id="line2d_52">
    <path clip-path="url(#p6871417c5f)" d="M 230.347349 280.201064 
" style="fill:none;stroke:#bf00bf;stroke-linecap:square;stroke-width:1.5;"/>
    <defs>
     <path d="M -12 12 
L 12 -12 
M -12 -12 
L 12 12 
" id="md76a871450" style="stroke:#bf00bf;stroke-width:3;"/>
    </defs>
    <g clip-path="url(#p6871417c5f)">
     <use style="fill:#bf00bf;stroke:#bf00bf;stroke-width:3;" x="230.347349" xlink:href="#md76a871450" y="280.201064"/>
    </g>
   </g>
   <g id="line2d_53">
    <path d="M 333.429677 268.667614 
L 363.933742 289.532673 
" style="fill:none;stroke:#bf00bf;stroke-linecap:square;stroke-width:1.5;"/>
    <g>
     <use style="fill-opacity:0;stroke:#bf00bf;stroke-linejoin:miter;stroke-width:1.5;" x="333.429677" xlink:href="#m9cf3dad395" y="268.667614"/>
     <use style="fill-opacity:0;stroke:#bf00bf;stroke-linejoin:miter;stroke-width:1.5;" x="363.933742" xlink:href="#m9cf3dad395" y="289.532673"/>
    </g>
   </g>
   <g id="line2d_54">
    <path d="M 333.429677 252.940182 
L 363.933742 238.198337 
" style="fill:none;stroke:#ff0000;stroke-linecap:square;stroke-width:1.5;"/>
    <g>
     <use style="fill-opacity:0;stroke:#ff0000;stroke-linejoin:miter;stroke-width:1.5;" x="333.429677" xlink:href="#mb45adb698d" y="252.940182"/>
     <use style="fill-opacity:0;stroke:#ff0000;stroke-linejoin:miter;stroke-width:1.5;" x="363.933742" xlink:href="#mb45adb698d" y="238.198337"/>
    </g>
   </g>
   <g id="line2d_55">
    <path d="M 333.429677 242.455228 
L 363.933742 186.864 
" style="fill:none;stroke:#000000;stroke-linecap:square;stroke-width:1.5;"/>
    <g>
     <use style="fill-opacity:0;stroke:#000000;stroke-width:1.5;" x="333.429677" xlink:href="#m8afba5efed" y="242.455228"/>
     <use style="fill-opacity:0;stroke:#000000;stroke-width:1.5;" x="363.933742" xlink:href="#m8afba5efed" y="186.864"/>
    </g>
   </g>
   <g id="line2d_56">
    <path d="M 333.429677 221.485319 
L 363.933742 135.529663 
" style="fill:none;stroke:#0000ff;stroke-linecap:square;stroke-width:1.5;"/>
    <g>
     <use style="fill-opacity:0;stroke:#0000ff;stroke-linejoin:bevel;stroke-width:1.5;" x="333.429677" xlink:href="#m9d9c0be501" y="221.485319"/>
     <use style="fill-opacity:0;stroke:#0000ff;stroke-linejoin:bevel;stroke-width:1.5;" x="363.933742" xlink:href="#m9d9c0be501" y="135.529663"/>
    </g>
   </g>
   <g id="line2d_57">
    <path d="M 333.429677 212.04886 
L 363.933742 84.195327 
" style="fill:none;stroke:#008000;stroke-linecap:square;stroke-width:1.5;"/>
    <g>
     <use style="fill-opacity:0;stroke:#008000;stroke-linejoin:miter;stroke-width:1.5;" x="333.429677" xlink:href="#mb28a1987ad" y="212.04886"/>
     <use style="fill-opacity:0;stroke:#008000;stroke-linejoin:miter;stroke-width:1.5;" x="363.933742" xlink:href="#mb28a1987ad" y="84.195327"/>
    </g>
   </g>
   <g id="line2d_58">
    <path d="M 333.429677 65.783747 
L 363.933742 32.86099 
" style="fill:none;stroke:#00bfbf;stroke-linecap:square;stroke-width:1.5;"/>
    <g>
     <use style="fill-opacity:0;stroke:#00bfbf;stroke-width:1.5;" x="333.429677" xlink:href="#m08dc40ec74" y="65.783747"/>
     <use style="fill-opacity:0;stroke:#00bfbf;stroke-width:1.5;" x="363.933742" xlink:href="#m08dc40ec74" y="32.86099"/>
    </g>
   </g>
   <g id="line2d_59">
    <path d="M 333.429677 294.88 
L 333.429677 27.513663 
" style="fill:none;stroke:#000000;stroke-linecap:square;stroke-width:1.5;"/>
   </g>
   <g id="patch_3">
    <path d="M 56.12 294.88 
L 56.12 24.84 
" style="fill:none;stroke:#000000;stroke-linecap:square;stroke-linejoin:miter;stroke-width:0.8;"/>
   </g>
   <g id="patch_4">
    <path d="M 399.984 294.88 
L 399.984 24.84 
" style="fill:none;stroke:#000000;stroke-linecap:square;stroke-linejoin:miter;stroke-width:0.8;"/>
   </g>
   <g id="patch_5">
    <path d="M 56.12 294.88 
L 399.984 294.88 
" style="fill:none;stroke:#000000;stroke-linecap:square;stroke-linejoin:miter;stroke-width:0.8;"/>
   </g>
   <g id="patch_6">
    <path d="M 56.12 24.84 
L 399.984 24.84 
" style="fill:none;stroke:#000000;stroke-linecap:square;stroke-linejoin:miter;stroke-width:0.8;"/>
   </g>
   <g id="text_14">
    <!-- 40-D -->
    <defs>
     <path d="M 19.671875 64.796875 
L 19.671875 8.109375 
L 31.59375 8.109375 
Q 46.6875 8.109375 53.6875 14.9375 
Q 60.6875 21.78125 60.6875 36.53125 
Q 60.6875 51.171875 53.6875 57.984375 
Q 46.6875 64.796875 31.59375 64.796875 
z
M 9.8125 72.90625 
L 30.078125 72.90625 
Q 51.265625 72.90625 61.171875 64.09375 
Q 71.09375 55.28125 71.09375 36.53125 
Q 71.09375 17.671875 61.125 8.828125 
Q 51.171875 0 30.078125 0 
L 9.8125 0 
z
" id="DejaVuSans-44"/>
    </defs>
    <g transform="translate(369.479935 294.223611)scale(0.17 -0.17)">
     <use xlink:href="#DejaVuSans-34"/>
     <use x="63.623047" xlink:href="#DejaVuSans-30"/>
     <use x="127.246094" xlink:href="#DejaVuSans-2d"/>
     <use x="163.330078" xlink:href="#DejaVuSans-44"/>
    </g>
   </g>
   <g id="text_15">
    <!-- 20-D -->
    <g transform="translate(369.479935 242.889274)scale(0.17 -0.17)">
     <use xlink:href="#DejaVuSans-32"/>
     <use x="63.623047" xlink:href="#DejaVuSans-30"/>
     <use x="127.246094" xlink:href="#DejaVuSans-2d"/>
     <use x="163.330078" xlink:href="#DejaVuSans-44"/>
    </g>
   </g>
   <g id="text_16">
    <!-- 10-D -->
    <g transform="translate(369.479935 191.554937)scale(0.17 -0.17)">
     <use xlink:href="#DejaVuSans-31"/>
     <use x="63.623047" xlink:href="#DejaVuSans-30"/>
     <use x="127.246094" xlink:href="#DejaVuSans-2d"/>
     <use x="163.330078" xlink:href="#DejaVuSans-44"/>
    </g>
   </g>
   <g id="text_17">
    <!-- 5-D -->
    <defs>
     <path d="M 10.796875 72.90625 
L 49.515625 72.90625 
L 49.515625 64.59375 
L 19.828125 64.59375 
L 19.828125 46.734375 
Q 21.96875 47.46875 24.109375 47.828125 
Q 26.265625 48.1875 28.421875 48.1875 
Q 40.625 48.1875 47.75 41.5 
Q 54.890625 34.8125 54.890625 23.390625 
Q 54.890625 11.625 47.5625 5.09375 
Q 40.234375 -1.421875 26.90625 -1.421875 
Q 22.3125 -1.421875 17.546875 -0.640625 
Q 12.796875 0.140625 7.71875 1.703125 
L 7.71875 11.625 
Q 12.109375 9.234375 16.796875 8.0625 
Q 21.484375 6.890625 26.703125 6.890625 
Q 35.15625 6.890625 40.078125 11.328125 
Q 45.015625 15.765625 45.015625 23.390625 
Q 45.015625 31 40.078125 35.4375 
Q 35.15625 39.890625 26.703125 39.890625 
Q 22.75 39.890625 18.8125 39.015625 
Q 14.890625 38.140625 10.796875 36.28125 
z
" id="DejaVuSans-35"/>
    </defs>
    <g transform="translate(369.479935 140.220601)scale(0.17 -0.17)">
     <use xlink:href="#DejaVuSans-35"/>
     <use x="63.623047" xlink:href="#DejaVuSans-2d"/>
     <use x="99.707031" xlink:href="#DejaVuSans-44"/>
    </g>
   </g>
   <g id="text_18">
    <!-- 3-D -->
    <defs>
     <path d="M 40.578125 39.3125 
Q 47.65625 37.796875 51.625 33 
Q 55.609375 28.21875 55.609375 21.1875 
Q 55.609375 10.40625 48.1875 4.484375 
Q 40.765625 -1.421875 27.09375 -1.421875 
Q 22.515625 -1.421875 17.65625 -0.515625 
Q 12.796875 0.390625 7.625 2.203125 
L 7.625 11.71875 
Q 11.71875 9.328125 16.59375 8.109375 
Q 21.484375 6.890625 26.8125 6.890625 
Q 36.078125 6.890625 40.9375 10.546875 
Q 45.796875 14.203125 45.796875 21.1875 
Q 45.796875 27.640625 41.28125 31.265625 
Q 36.765625 34.90625 28.71875 34.90625 
L 20.21875 34.90625 
L 20.21875 43.015625 
L 29.109375 43.015625 
Q 36.375 43.015625 40.234375 45.921875 
Q 44.09375 48.828125 44.09375 54.296875 
Q 44.09375 59.90625 40.109375 62.90625 
Q 36.140625 65.921875 28.71875 65.921875 
Q 24.65625 65.921875 20.015625 65.03125 
Q 15.375 64.15625 9.8125 62.3125 
L 9.8125 71.09375 
Q 15.4375 72.65625 20.34375 73.4375 
Q 25.25 74.21875 29.59375 74.21875 
Q 40.828125 74.21875 47.359375 69.109375 
Q 53.90625 64.015625 53.90625 55.328125 
Q 53.90625 49.265625 50.4375 45.09375 
Q 46.96875 40.921875 40.578125 39.3125 
z
" id="DejaVuSans-33"/>
    </defs>
    <g transform="translate(369.479935 88.886264)scale(0.17 -0.17)">
     <use xlink:href="#DejaVuSans-33"/>
     <use x="63.623047" xlink:href="#DejaVuSans-2d"/>
     <use x="99.707031" xlink:href="#DejaVuSans-44"/>
    </g>
   </g>
   <g id="text_19">
    <!-- 2-D -->
    <g transform="translate(369.479935 37.551928)scale(0.17 -0.17)">
     <use xlink:href="#DejaVuSans-32"/>
     <use x="63.623047" xlink:href="#DejaVuSans-2d"/>
     <use x="99.707031" xlink:href="#DejaVuSans-44"/>
    </g>
   </g>
   <g id="text_20">
    <!-- bbob f24 -->
    <defs>
     <path d="M 48.6875 27.296875 
Q 48.6875 37.203125 44.609375 42.84375 
Q 40.53125 48.484375 33.40625 48.484375 
Q 26.265625 48.484375 22.1875 42.84375 
Q 18.109375 37.203125 18.109375 27.296875 
Q 18.109375 17.390625 22.1875 11.75 
Q 26.265625 6.109375 33.40625 6.109375 
Q 40.53125 6.109375 44.609375 11.75 
Q 48.6875 17.390625 48.6875 27.296875 
z
M 18.109375 46.390625 
Q 20.953125 51.265625 25.265625 53.625 
Q 29.59375 56 35.59375 56 
Q 45.5625 56 51.78125 48.09375 
Q 58.015625 40.1875 58.015625 27.296875 
Q 58.015625 14.40625 51.78125 6.484375 
Q 45.5625 -1.421875 35.59375 -1.421875 
Q 29.59375 -1.421875 25.265625 0.953125 
Q 20.953125 3.328125 18.109375 8.203125 
L 18.109375 0 
L 9.078125 0 
L 9.078125 75.984375 
L 18.109375 75.984375 
z
" id="DejaVuSans-62"/>
    </defs>
    <g transform="translate(59.55864 35.290806)scale(0.102 -0.102)">
     <use xlink:href="#DejaVuSans-62"/>
     <use x="63.476562" xlink:href="#DejaVuSans-62"/>
     <use x="126.953125" xlink:href="#DejaVuSans-6f"/>
     <use x="188.134766" xlink:href="#DejaVuSans-62"/>
     <use x="251.611328" xlink:href="#DejaVuSans-20"/>
     <use x="283.398438" xlink:href="#DejaVuSans-66"/>
     <use x="318.603516" xlink:href="#DejaVuSans-32"/>
     <use x="382.226562" xlink:href="#DejaVuSans-34"/>
    </g>
    <!-- 51 targets: 100..1e-08 -->
    <defs>
     <path d="M 11.71875 12.40625 
L 22.015625 12.40625 
L 22.015625 0 
L 11.71875 0 
z
M 11.71875 51.703125 
L 22.015625 51.703125 
L 22.015625 39.3125 
L 11.71875 39.3125 
z
" id="DejaVuSans-3a"/>
    </defs>
    <g transform="translate(59.55864 46.712575)scale(0.102 -0.102)">
     <use xlink:href="#DejaVuSans-35"/>
     <use x="63.623047" xlink:href="#DejaVuSans-31"/>
     <use x="127.246094" xlink:href="#DejaVuSans-20"/>
     <use x="159.033203" xlink:href="#DejaVuSans-74"/>
     <use x="198.242188" xlink:href="#DejaVuSans-61"/>
     <use x="259.521484" xlink:href="#DejaVuSans-72"/>
     <use x="300.619141" xlink:href="#DejaVuSans-67"/>
     <use x="364.095703" xlink:href="#DejaVuSans-65"/>
     <use x="425.619141" xlink:href="#DejaVuSans-74"/>
     <use x="464.828125" xlink:href="#DejaVuSans-73"/>
     <use x="516.927734" xlink:href="#DejaVuSans-3a"/>
     <use x="550.619141" xlink:href="#DejaVuSans-20"/>
     <use x="582.40625" xlink:href="#DejaVuSans-31"/>
     <use x="646.029297" xlink:href="#DejaVuSans-30"/>
     <use x="709.652344" xlink:href="#DejaVuSans-30"/>
     <use x="773.275391" xlink:href="#DejaVuSans-2e"/>
     <use x="805.0625" xlink:href="#DejaVuSans-2e"/>
     <use x="836.849609" xlink:href="#DejaVuSans-31"/>
     <use x="900.472656" xlink:href="#DejaVuSans-65"/>
     <use x="961.996094" xlink:href="#DejaVuSans-2d"/>
     <use x="998.080078" xlink:href="#DejaVuSans-30"/>
     <use x="1061.703125" xlink:href="#DejaVuSans-38"/>
    </g>
    <!-- 15 instances -->
    <g transform="translate(59.55864 58.134344)scale(0.102 -0.102)">
     <use xlink:href="#DejaVuSans-31"/>
     <use x="63.623047" xlink:href="#DejaVuSans-35"/>
     <use x="127.246094" xlink:href="#DejaVuSans-20"/>
     <use x="159.033203" xlink:href="#DejaVuSans-69"/>
     <use x="186.816406" xlink:href="#DejaVuSans-6e"/>
     <use x="250.195312" xlink:href="#DejaVuSans-73"/>
     <use x="302.294922" xlink:href="#DejaVuSans-74"/>
     <use x="341.503906" xlink:href="#DejaVuSans-61"/>
     <use x="402.783203" xlink:href="#DejaVuSans-6e"/>
     <use x="466.162109" xlink:href="#DejaVuSans-63"/>
     <use x="521.142578" xlink:href="#DejaVuSans-65"/>
     <use x="582.666016" xlink:href="#DejaVuSans-73"/>
    </g>
   </g>
   <g id="text_21">
    <!-- v0.0.0 -->
    <g style="fill:#808080;" transform="translate(212.37075 290.099912)scale(0.1 -0.1)">
     <use xlink:href="#DejaVuSans-76"/>
     <use x="59.179688" xlink:href="#DejaVuSans-30"/>
     <use x="122.802734" xlink:href="#DejaVuSans-2e"/>
     <use x="154.589844" xlink:href="#DejaVuSans-30"/>
     <use x="218.212891" xlink:href="#DejaVuSans-2e"/>
     <use x="250" xlink:href="#DejaVuSans-30"/>
    </g>
   </g>
   <g id="text_22">
    <!-- 24 Lunacek bi-Rastrigin -->
    <defs>
     <path d="M 9.8125 72.90625 
L 19.671875 72.90625 
L 19.671875 8.296875 
L 55.171875 8.296875 
L 55.171875 0 
L 9.8125 0 
z
" id="DejaVuSans-4c"/>
     <path d="M 9.078125 75.984375 
L 18.109375 75.984375 
L 18.109375 31.109375 
L 44.921875 54.6875 
L 56.390625 54.6875 
L 27.390625 29.109375 
L 57.625 0 
L 45.90625 0 
L 18.109375 26.703125 
L 18.109375 0 
L 9.078125 0 
z
" id="DejaVuSans-6b"/>
     <path d="M 44.390625 34.1875 
Q 47.5625 33.109375 50.5625 29.59375 
Q 53.5625 26.078125 56.59375 19.921875 
L 66.609375 0 
L 56 0 
L 46.6875 18.703125 
Q 43.0625 26.03125 39.671875 28.421875 
Q 36.28125 30.8125 30.421875 30.8125 
L 19.671875 30.8125 
L 19.671875 0 
L 9.8125 0 
L 9.8125 72.90625 
L 32.078125 72.90625 
Q 44.578125 72.90625 50.734375 67.671875 
Q 56.890625 62.453125 56.890625 51.90625 
Q 56.890625 45.015625 53.6875 40.46875 
Q 50.484375 35.9375 44.390625 34.1875 
z
M 19.671875 64.796875 
L 19.671875 38.921875 
L 32.078125 38.921875 
Q 39.203125 38.921875 42.84375 42.21875 
Q 46.484375 45.515625 46.484375 51.90625 
Q 46.484375 58.296875 42.84375 61.546875 
Q 39.203125 64.796875 32.078125 64.796875 
z
" id="DejaVuSans-52"/>
    </defs>
    <g transform="translate(109.8645 18.84)scale(0.2 -0.2)">
     <use xlink:href="#DejaVuSans-32"/>
     <use x="63.623047" xlink:href="#DejaVuSans-34"/>
     <use x="127.246094" xlink:href="#DejaVuSans-20"/>
     <use x="159.033203" xlink:href="#DejaVuSans-4c"/>
     <use x="214.730469" xlink:href="#DejaVuSans-75"/>
     <use x="278.109375" xlink:href="#DejaVuSans-6e"/>
     <use x="341.488281" xlink:href="#DejaVuSans-61"/>
     <use x="402.767578" xlink:href="#DejaVuSans-63"/>
     <use x="457.748047" xlink:href="#DejaVuSans-65"/>
     <use x="519.271484" xlink:href="#DejaVuSans-6b"/>
     <use x="577.181641" xlink:href="#DejaVuSans-20"/>
     <use x="608.96875" xlink:href="#DejaVuSans-62"/>
     <use x="672.445312" xlink:href="#DejaVuSans-69"/>
     <use x="700.228516" xlink:href="#DejaVuSans-2d"/>
     <use x="736.3125" xlink:href="#DejaVuSans-52"/>
     <use x="805.763672" xlink:href="#DejaVuSans-61"/>
     <use x="867.042969" xlink:href="#DejaVuSans-73"/>
     <use x="919.142578" xlink:href="#DejaVuSans-74"/>
     <use x="958.351562" xlink:href="#DejaVuSans-72"/>
     <use x="999.464844" xlink:href="#DejaVuSans-69"/>
     <use x="1027.248047" xlink:href="#DejaVuSans-67"/>
     <use x="1090.724609" xlink:href="#DejaVuSans-69"/>
     <use x="1118.507812" xlink:href="#DejaVuSans-6e"/>
    </g>
   </g>
  </g>
 </g>
 <defs>
  <clipPath id="p6871417c5f">
   <rect height="270.04" width="343.864" x="56.12" y="24.84"/>
  </clipPath>
 </defs>
</svg>
