<?xml version="1.0" encoding="utf-8" standalone="no"?>
<!DOCTYPE svg PUBLIC "-//W3C//DTD SVG 1.1//EN"
  "http://www.w3.org/Graphics/SVG/1.1/DTD/svg11.dtd">
<!-- Created with matplotlib (http://matplotlib.org/) -->
<svg height="345.6pt" version="1.1" viewBox="0 0 460.8 345.6" width="460.8pt" xmlns="http://www.w3.org/2000/svg" xmlns:xlink="http://www.w3.org/1999/xlink">
 <defs>
  <style type="text/css">
*{stroke-linecap:butt;stroke-linejoin:round;}
  </style>
 </defs>
 <g id="figure_1">
  <g id="patch_1">
   <path d="M 0 345.6 
L 460.8 345.6 
L 460.8 0 
L 0 0 
z
" style="fill:#ffffff;"/>
  </g>
  <g id="axes_1">
   <g id="patch_2">
    <path d="M 56.12 294.88 
L 399.984 294.88 
L 399.984 24.84 
L 56.12 24.84 
z
" style="fill:#ffffff;"/>
   </g>
   <g id="matplotlib.axis_1">
    <g id="xtick_1">
     <g id="line2d_1">
      <path clip-path="url(#pa8a5304acc)" d="M 56.12 294.88 
L 56.12 24.84 
" style="fill:none;stroke:#b0b0b0;stroke-linecap:square;stroke-width:0.8;"/>
     </g>
     <g id="line2d_2">
      <defs>
       <path d="M 0 0 
L 0 3.5 
" id="m8b62ce7b76" style="stroke:#000000;stroke-width:0.8;"/>
      </defs>
      <g>
       <use style="stroke:#000000;stroke-width:0.8;" x="56.12" xlink:href="#m8b62ce7b76" y="294.88"/>
      </g>
     </g>
     <g id="text_1">
      <!-- 0 -->
      <defs>
       <path d="M 31.78125 66.40625 
Q 24.171875 66.40625 20.328125 58.90625 
Q 16.5 51.421875 16.5 36.375 
Q 16.5 21.390625 20.328125 13.890625 
Q 24.171875 6.390625 31.78125 6.390625 
Q 39.453125 6.390625 43.28125 13.890625 
Q 47.125 21.390625 47.125 36.375 
Q 47.125 51.421875 43.28125 58.90625 
Q 39.453125 66.40625 31.78125 66.40625 
z
M 31.78125 74.21875 
Q 44.046875 74.21875 50.515625 64.515625 
Q 56.984375 54.828125 56.984375 36.375 
Q 56.984375 17.96875 50.515625 8.265625 
Q 44.046875 -1.421875 31.78125 -1.421875 
Q 19.53125 -1.421875 13.0625 8.265625 
Q 6.59375 17.96875 6.59375 36.375 
Q 6.59375 54.828125 13.0625 64.515625 
Q 19.53125 74.21875 31.78125 74.21875 
z
" id="DejaVuSans-30"/>
      </defs>
      <g transform="translate(49.7575 317.076875)scale(0.2 -0.2)">
       <use xlink:href="#DejaVuSans-30"/>
      </g>
     </g>
    </g>
    <g id="xtick_2">
     <g id="line2d_3">
      <path clip-path="url(#pa8a5304acc)" d="M 135.351336 294.88 
L 135.351336 24.84 
" style="fill:none;stroke:#b0b0b0;stroke-linecap:square;stroke-width:0.8;"/>
     </g>
     <g id="line2d_4">
      <g>
       <use style="stroke:#000000;stroke-width:0.8;" x="135.351336" xlink:href="#m8b62ce7b76" y="294.88"/>
      </g>
     </g>
     <g id="text_2">
      <!-- 2 -->
      <defs>
       <path d="M 19.1875 8.296875 
L 53.609375 8.296875 
L 53.609375 0 
L 7.328125 0 
L 7.328125 8.296875 
Q 12.9375 14.109375 22.625 23.890625 
Q 32.328125 33.6875 34.8125 36.53125 
Q 39.546875 41.84375 41.421875 45.53125 
Q 43.3125 49.21875 43.3125 52.78125 
Q 43.3125 58.59375 39.234375 62.25 
Q 35.15625 65.921875 28.609375 65.921875 
Q 23.96875 65.921875 18.8125 64.3125 
Q 13.671875 62.703125 7.8125 59.421875 
L 7.8125 69.390625 
Q 13.765625 71.78125 18.9375 73 
Q 24.125 74.21875 28.421875 74.21875 
Q 39.75 74.21875 46.484375 68.546875 
Q 53.21875 62.890625 53.21875 53.421875 
Q 53.21875 48.921875 51.53125 44.890625 
Q 49.859375 40.875 45.40625 35.40625 
Q 44.1875 33.984375 37.640625 27.21875 
Q 31.109375 20.453125 19.1875 8.296875 
z
" id="DejaVuSans-32"/>
      </defs>
      <g transform="translate(128.988836 317.076875)scale(0.2 -0.2)">
       <use xlink:href="#DejaVuSans-32"/>
      </g>
     </g>
    </g>
    <g id="xtick_3">
     <g id="line2d_5">
      <path clip-path="url(#pa8a5304acc)" d="M 214.582673 294.88 
L 214.582673 24.84 
" style="fill:none;stroke:#b0b0b0;stroke-linecap:square;stroke-width:0.8;"/>
     </g>
     <g id="line2d_6">
      <g>
       <use style="stroke:#000000;stroke-width:0.8;" x="214.582673" xlink:href="#m8b62ce7b76" y="294.88"/>
      </g>
     </g>
     <g id="text_3">
      <!-- 4 -->
      <defs>
       <path d="M 37.796875 64.3125 
L 12.890625 25.390625 
L 37.796875 25.390625 
z
M 35.203125 72.90625 
L 47.609375 72.90625 
L 47.609375 25.390625 
L 58.015625 25.390625 
L 58.015625 17.1875 
L 47.609375 17.1875 
L 47.609375 0 
L 37.796875 0 
L 37.796875 17.1875 
L 4.890625 17.1875 
L 4.890625 26.703125 
z
" id="DejaVuSans-34"/>
      </defs>
      <g transform="translate(208.220173 317.076875)scale(0.2 -0.2)">
       <use xlink:href="#DejaVuSans-34"/>
      </g>
     </g>
    </g>
    <g id="xtick_4">
     <g id="line2d_7">
      <path clip-path="url(#pa8a5304acc)" d="M 293.814009 294.88 
L 293.814009 24.84 
" style="fill:none;stroke:#b0b0b0;stroke-linecap:square;stroke-width:0.8;"/>
     </g>
     <g id="line2d_8">
      <g>
       <use style="stroke:#000000;stroke-width:0.8;" x="293.814009" xlink:href="#m8b62ce7b76" y="294.88"/>
      </g>
     </g>
     <g id="text_4">
      <!-- 6 -->
      <defs>
       <path d="M 33.015625 40.375 
Q 26.375 40.375 22.484375 35.828125 
Q 18.609375 31.296875 18.609375 23.390625 
Q 18.609375 15.53125 22.484375 10.953125 
Q 26.375 6.390625 33.015625 6.390625 
Q 39.65625 6.390625 43.53125 10.953125 
Q 47.40625 15.53125 47.40625 23.390625 
Q 47.40625 31.296875 43.53125 35.828125 
Q 39.65625 40.375 33.015625 40.375 
z
M 52.59375 71.296875 
L 52.59375 62.3125 
Q 48.875 64.0625 45.09375 64.984375 
Q 41.3125 65.921875 37.59375 65.921875 
Q 27.828125 65.921875 22.671875 59.328125 
Q 17.53125 52.734375 16.796875 39.40625 
Q 19.671875 43.65625 24.015625 45.921875 
Q 28.375 48.1875 33.59375 48.1875 
Q 44.578125 48.1875 50.953125 41.515625 
Q 57.328125 34.859375 57.328125 23.390625 
Q 57.328125 12.15625 50.6875 5.359375 
Q 44.046875 -1.421875 33.015625 -1.421875 
Q 20.359375 -1.421875 13.671875 8.265625 
Q 6.984375 17.96875 6.984375 36.375 
Q 6.984375 53.65625 15.1875 63.9375 
Q 23.390625 74.21875 37.203125 74.21875 
Q 40.921875 74.21875 44.703125 73.484375 
Q 48.484375 72.75 52.59375 71.296875 
z
" id="DejaVuSans-36"/>
      </defs>
      <g transform="translate(287.451509 317.076875)scale(0.2 -0.2)">
       <use xlink:href="#DejaVuSans-36"/>
      </g>
     </g>
    </g>
    <g id="xtick_5">
     <g id="line2d_9">
      <path clip-path="url(#pa8a5304acc)" d="M 373.045346 294.88 
L 373.045346 24.84 
" style="fill:none;stroke:#b0b0b0;stroke-linecap:square;stroke-width:0.8;"/>
     </g>
     <g id="line2d_10">
      <g>
       <use style="stroke:#000000;stroke-width:0.8;" x="373.045346" xlink:href="#m8b62ce7b76" y="294.88"/>
      </g>
     </g>
     <g id="text_5">
      <!-- 8 -->
      <defs>
       <path d="M 31.78125 34.625 
Q 24.75 34.625 20.71875 30.859375 
Q 16.703125 27.09375 16.703125 20.515625 
Q 16.703125 13.921875 20.71875 10.15625 
Q 24.75 6.390625 31.78125 6.390625 
Q 38.8125 6.390625 42.859375 10.171875 
Q 46.921875 13.96875 46.921875 20.515625 
Q 46.921875 27.09375 42.890625 30.859375 
Q 38.875 34.625 31.78125 34.625 
z
M 21.921875 38.8125 
Q 15.578125 40.375 12.03125 44.71875 
Q 8.5 49.078125 8.5 55.328125 
Q 8.5 64.0625 14.71875 69.140625 
Q 20.953125 74.21875 31.78125 74.21875 
Q 42.671875 74.21875 48.875 69.140625 
Q 55.078125 64.0625 55.078125 55.328125 
Q 55.078125 49.078125 51.53125 44.71875 
Q 48 40.375 41.703125 38.8125 
Q 48.828125 37.15625 52.796875 32.3125 
Q 56.78125 27.484375 56.78125 20.515625 
Q 56.78125 9.90625 50.3125 4.234375 
Q 43.84375 -1.421875 31.78125 -1.421875 
Q 19.734375 -1.421875 13.25 4.234375 
Q 6.78125 9.90625 6.78125 20.515625 
Q 6.78125 27.484375 10.78125 32.3125 
Q 14.796875 37.15625 21.921875 38.8125 
z
M 18.3125 54.390625 
Q 18.3125 48.734375 21.84375 45.5625 
Q 25.390625 42.390625 31.78125 42.390625 
Q 38.140625 42.390625 41.71875 45.5625 
Q 45.3125 48.734375 45.3125 54.390625 
Q 45.3125 60.0625 41.71875 63.234375 
Q 38.140625 66.40625 31.78125 66.40625 
Q 25.390625 66.40625 21.84375 63.234375 
Q 18.3125 60.0625 18.3125 54.390625 
z
" id="DejaVuSans-38"/>
      </defs>
      <g transform="translate(366.682846 317.076875)scale(0.2 -0.2)">
       <use xlink:href="#DejaVuSans-38"/>
      </g>
     </g>
    </g>
    <g id="text_6">
     <!-- log10(# f-evals / dimension) -->
     <defs>
      <path d="M 9.421875 75.984375 
L 18.40625 75.984375 
L 18.40625 0 
L 9.421875 0 
z
" id="DejaVuSans-6c"/>
      <path d="M 30.609375 48.390625 
Q 23.390625 48.390625 19.1875 42.75 
Q 14.984375 37.109375 14.984375 27.296875 
Q 14.984375 17.484375 19.15625 11.84375 
Q 23.34375 6.203125 30.609375 6.203125 
Q 37.796875 6.203125 41.984375 11.859375 
Q 46.1875 17.53125 46.1875 27.296875 
Q 46.1875 37.015625 41.984375 42.703125 
Q 37.796875 48.390625 30.609375 48.390625 
z
M 30.609375 56 
Q 42.328125 56 49.015625 48.375 
Q 55.71875 40.765625 55.71875 27.296875 
Q 55.71875 13.875 49.015625 6.21875 
Q 42.328125 -1.421875 30.609375 -1.421875 
Q 18.84375 -1.421875 12.171875 6.21875 
Q 5.515625 13.875 5.515625 27.296875 
Q 5.515625 40.765625 12.171875 48.375 
Q 18.84375 56 30.609375 56 
z
" id="DejaVuSans-6f"/>
      <path d="M 45.40625 27.984375 
Q 45.40625 37.75 41.375 43.109375 
Q 37.359375 48.484375 30.078125 48.484375 
Q 22.859375 48.484375 18.828125 43.109375 
Q 14.796875 37.75 14.796875 27.984375 
Q 14.796875 18.265625 18.828125 12.890625 
Q 22.859375 7.515625 30.078125 7.515625 
Q 37.359375 7.515625 41.375 12.890625 
Q 45.40625 18.265625 45.40625 27.984375 
z
M 54.390625 6.78125 
Q 54.390625 -7.171875 48.1875 -13.984375 
Q 42 -20.796875 29.203125 -20.796875 
Q 24.46875 -20.796875 20.265625 -20.09375 
Q 16.0625 -19.390625 12.109375 -17.921875 
L 12.109375 -9.1875 
Q 16.0625 -11.328125 19.921875 -12.34375 
Q 23.78125 -13.375 27.78125 -13.375 
Q 36.625 -13.375 41.015625 -8.765625 
Q 45.40625 -4.15625 45.40625 5.171875 
L 45.40625 9.625 
Q 42.625 4.78125 38.28125 2.390625 
Q 33.9375 0 27.875 0 
Q 17.828125 0 11.671875 7.65625 
Q 5.515625 15.328125 5.515625 27.984375 
Q 5.515625 40.671875 11.671875 48.328125 
Q 17.828125 56 27.875 56 
Q 33.9375 56 38.28125 53.609375 
Q 42.625 51.21875 45.40625 46.390625 
L 45.40625 54.6875 
L 54.390625 54.6875 
z
" id="DejaVuSans-67"/>
      <path d="M 12.40625 8.296875 
L 28.515625 8.296875 
L 28.515625 63.921875 
L 10.984375 60.40625 
L 10.984375 69.390625 
L 28.421875 72.90625 
L 38.28125 72.90625 
L 38.28125 8.296875 
L 54.390625 8.296875 
L 54.390625 0 
L 12.40625 0 
z
" id="DejaVuSans-31"/>
      <path d="M 31 75.875 
Q 24.46875 64.65625 21.28125 53.65625 
Q 18.109375 42.671875 18.109375 31.390625 
Q 18.109375 20.125 21.3125 9.0625 
Q 24.515625 -2 31 -13.1875 
L 23.1875 -13.1875 
Q 15.875 -1.703125 12.234375 9.375 
Q 8.59375 20.453125 8.59375 31.390625 
Q 8.59375 42.28125 12.203125 53.3125 
Q 15.828125 64.359375 23.1875 75.875 
z
" id="DejaVuSans-28"/>
      <path d="M 51.125 44 
L 36.921875 44 
L 32.8125 27.6875 
L 47.125 27.6875 
z
M 43.796875 71.78125 
L 38.71875 51.515625 
L 52.984375 51.515625 
L 58.109375 71.78125 
L 65.921875 71.78125 
L 60.890625 51.515625 
L 76.125 51.515625 
L 76.125 44 
L 58.984375 44 
L 54.984375 27.6875 
L 70.515625 27.6875 
L 70.515625 20.21875 
L 53.078125 20.21875 
L 48 0 
L 40.1875 0 
L 45.21875 20.21875 
L 30.90625 20.21875 
L 25.875 0 
L 18.015625 0 
L 23.09375 20.21875 
L 7.71875 20.21875 
L 7.71875 27.6875 
L 24.90625 27.6875 
L 29 44 
L 13.28125 44 
L 13.28125 51.515625 
L 30.90625 51.515625 
L 35.890625 71.78125 
z
" id="DejaVuSans-23"/>
      <path id="DejaVuSans-20"/>
      <path d="M 37.109375 75.984375 
L 37.109375 68.5 
L 28.515625 68.5 
Q 23.6875 68.5 21.796875 66.546875 
Q 19.921875 64.59375 19.921875 59.515625 
L 19.921875 54.6875 
L 34.71875 54.6875 
L 34.71875 47.703125 
L 19.921875 47.703125 
L 19.921875 0 
L 10.890625 0 
L 10.890625 47.703125 
L 2.296875 47.703125 
L 2.296875 54.6875 
L 10.890625 54.6875 
L 10.890625 58.5 
Q 10.890625 67.625 15.140625 71.796875 
Q 19.390625 75.984375 28.609375 75.984375 
z
" id="DejaVuSans-66"/>
      <path d="M 4.890625 31.390625 
L 31.203125 31.390625 
L 31.203125 23.390625 
L 4.890625 23.390625 
z
" id="DejaVuSans-2d"/>
      <path d="M 56.203125 29.59375 
L 56.203125 25.203125 
L 14.890625 25.203125 
Q 15.484375 15.921875 20.484375 11.0625 
Q 25.484375 6.203125 34.421875 6.203125 
Q 39.59375 6.203125 44.453125 7.46875 
Q 49.3125 8.734375 54.109375 11.28125 
L 54.109375 2.78125 
Q 49.265625 0.734375 44.1875 -0.34375 
Q 39.109375 -1.421875 33.890625 -1.421875 
Q 20.796875 -1.421875 13.15625 6.1875 
Q 5.515625 13.8125 5.515625 26.8125 
Q 5.515625 40.234375 12.765625 48.109375 
Q 20.015625 56 32.328125 56 
Q 43.359375 56 49.78125 48.890625 
Q 56.203125 41.796875 56.203125 29.59375 
z
M 47.21875 32.234375 
Q 47.125 39.59375 43.09375 43.984375 
Q 39.0625 48.390625 32.421875 48.390625 
Q 24.90625 48.390625 20.390625 44.140625 
Q 15.875 39.890625 15.1875 32.171875 
z
" id="DejaVuSans-65"/>
      <path d="M 2.984375 54.6875 
L 12.5 54.6875 
L 29.59375 8.796875 
L 46.6875 54.6875 
L 56.203125 54.6875 
L 35.6875 0 
L 23.484375 0 
z
" id="DejaVuSans-76"/>
      <path d="M 34.28125 27.484375 
Q 23.390625 27.484375 19.1875 25 
Q 14.984375 22.515625 14.984375 16.5 
Q 14.984375 11.71875 18.140625 8.90625 
Q 21.296875 6.109375 26.703125 6.109375 
Q 34.1875 6.109375 38.703125 11.40625 
Q 43.21875 16.703125 43.21875 25.484375 
L 43.21875 27.484375 
z
M 52.203125 31.203125 
L 52.203125 0 
L 43.21875 0 
L 43.21875 8.296875 
Q 40.140625 3.328125 35.546875 0.953125 
Q 30.953125 -1.421875 24.3125 -1.421875 
Q 15.921875 -1.421875 10.953125 3.296875 
Q 6 8.015625 6 15.921875 
Q 6 25.140625 12.171875 29.828125 
Q 18.359375 34.515625 30.609375 34.515625 
L 43.21875 34.515625 
L 43.21875 35.40625 
Q 43.21875 41.609375 39.140625 45 
Q 35.0625 48.390625 27.6875 48.390625 
Q 23 48.390625 18.546875 47.265625 
Q 14.109375 46.140625 10.015625 43.890625 
L 10.015625 52.203125 
Q 14.9375 54.109375 19.578125 55.046875 
Q 24.21875 56 28.609375 56 
Q 40.484375 56 46.34375 49.84375 
Q 52.203125 43.703125 52.203125 31.203125 
z
" id="DejaVuSans-61"/>
      <path d="M 44.28125 53.078125 
L 44.28125 44.578125 
Q 40.484375 46.53125 36.375 47.5 
Q 32.28125 48.484375 27.875 48.484375 
Q 21.1875 48.484375 17.84375 46.4375 
Q 14.5 44.390625 14.5 40.28125 
Q 14.5 37.15625 16.890625 35.375 
Q 19.28125 33.59375 26.515625 31.984375 
L 29.59375 31.296875 
Q 39.15625 29.25 43.1875 25.515625 
Q 47.21875 21.78125 47.21875 15.09375 
Q 47.21875 7.46875 41.1875 3.015625 
Q 35.15625 -1.421875 24.609375 -1.421875 
Q 20.21875 -1.421875 15.453125 -0.5625 
Q 10.6875 0.296875 5.421875 2 
L 5.421875 11.28125 
Q 10.40625 8.6875 15.234375 7.390625 
Q 20.0625 6.109375 24.8125 6.109375 
Q 31.15625 6.109375 34.5625 8.28125 
Q 37.984375 10.453125 37.984375 14.40625 
Q 37.984375 18.0625 35.515625 20.015625 
Q 33.0625 21.96875 24.703125 23.78125 
L 21.578125 24.515625 
Q 13.234375 26.265625 9.515625 29.90625 
Q 5.8125 33.546875 5.8125 39.890625 
Q 5.8125 47.609375 11.28125 51.796875 
Q 16.75 56 26.8125 56 
Q 31.78125 56 36.171875 55.265625 
Q 40.578125 54.546875 44.28125 53.078125 
z
" id="DejaVuSans-73"/>
      <path d="M 25.390625 72.90625 
L 33.6875 72.90625 
L 8.296875 -9.28125 
L 0 -9.28125 
z
" id="DejaVuSans-2f"/>
      <path d="M 45.40625 46.390625 
L 45.40625 75.984375 
L 54.390625 75.984375 
L 54.390625 0 
L 45.40625 0 
L 45.40625 8.203125 
Q 42.578125 3.328125 38.25 0.953125 
Q 33.9375 -1.421875 27.875 -1.421875 
Q 17.96875 -1.421875 11.734375 6.484375 
Q 5.515625 14.40625 5.515625 27.296875 
Q 5.515625 40.1875 11.734375 48.09375 
Q 17.96875 56 27.875 56 
Q 33.9375 56 38.25 53.625 
Q 42.578125 51.265625 45.40625 46.390625 
z
M 14.796875 27.296875 
Q 14.796875 17.390625 18.875 11.75 
Q 22.953125 6.109375 30.078125 6.109375 
Q 37.203125 6.109375 41.296875 11.75 
Q 45.40625 17.390625 45.40625 27.296875 
Q 45.40625 37.203125 41.296875 42.84375 
Q 37.203125 48.484375 30.078125 48.484375 
Q 22.953125 48.484375 18.875 42.84375 
Q 14.796875 37.203125 14.796875 27.296875 
z
" id="DejaVuSans-64"/>
      <path d="M 9.421875 54.6875 
L 18.40625 54.6875 
L 18.40625 0 
L 9.421875 0 
z
M 9.421875 75.984375 
L 18.40625 75.984375 
L 18.40625 64.59375 
L 9.421875 64.59375 
z
" id="DejaVuSans-69"/>
      <path d="M 52 44.1875 
Q 55.375 50.25 60.0625 53.125 
Q 64.75 56 71.09375 56 
Q 79.640625 56 84.28125 50.015625 
Q 88.921875 44.046875 88.921875 33.015625 
L 88.921875 0 
L 79.890625 0 
L 79.890625 32.71875 
Q 79.890625 40.578125 77.09375 44.375 
Q 74.3125 48.1875 68.609375 48.1875 
Q 61.625 48.1875 57.5625 43.546875 
Q 53.515625 38.921875 53.515625 30.90625 
L 53.515625 0 
L 44.484375 0 
L 44.484375 32.71875 
Q 44.484375 40.625 41.703125 44.40625 
Q 38.921875 48.1875 33.109375 48.1875 
Q 26.21875 48.1875 22.15625 43.53125 
Q 18.109375 38.875 18.109375 30.90625 
L 18.109375 0 
L 9.078125 0 
L 9.078125 54.6875 
L 18.109375 54.6875 
L 18.109375 46.1875 
Q 21.1875 51.21875 25.484375 53.609375 
Q 29.78125 56 35.6875 56 
Q 41.65625 56 45.828125 52.96875 
Q 50 49.953125 52 44.1875 
z
" id="DejaVuSans-6d"/>
      <path d="M 54.890625 33.015625 
L 54.890625 0 
L 45.90625 0 
L 45.90625 32.71875 
Q 45.90625 40.484375 42.875 44.328125 
Q 39.84375 48.1875 33.796875 48.1875 
Q 26.515625 48.1875 22.3125 43.546875 
Q 18.109375 38.921875 18.109375 30.90625 
L 18.109375 0 
L 9.078125 0 
L 9.078125 54.6875 
L 18.109375 54.6875 
L 18.109375 46.1875 
Q 21.34375 51.125 25.703125 53.5625 
Q 30.078125 56 35.796875 56 
Q 45.21875 56 50.046875 50.171875 
Q 54.890625 44.34375 54.890625 33.015625 
z
" id="DejaVuSans-6e"/>
      <path d="M 8.015625 75.875 
L 15.828125 75.875 
Q 23.140625 64.359375 26.78125 53.3125 
Q 30.421875 42.28125 30.421875 31.390625 
Q 30.421875 20.453125 26.78125 9.375 
Q 23.140625 -1.703125 15.828125 -13.1875 
L 8.015625 -13.1875 
Q 14.5 -2 17.703125 9.0625 
Q 20.90625 20.125 20.90625 31.390625 
Q 20.90625 42.671875 17.703125 53.65625 
Q 14.5 64.65625 8.015625 75.875 
z
" id="DejaVuSans-29"/>
     </defs>
     <g transform="translate(107.211219 338.153594)scale(0.17 -0.17)">
      <use xlink:href="#DejaVuSans-6c"/>
      <use x="27.783203" xlink:href="#DejaVuSans-6f"/>
      <use x="88.964844" xlink:href="#DejaVuSans-67"/>
      <use x="152.441406" xlink:href="#DejaVuSans-31"/>
      <use x="216.064453" xlink:href="#DejaVuSans-30"/>
      <use x="279.6875" xlink:href="#DejaVuSans-28"/>
      <use x="318.701172" xlink:href="#DejaVuSans-23"/>
      <use x="402.490234" xlink:href="#DejaVuSans-20"/>
      <use x="434.277344" xlink:href="#DejaVuSans-66"/>
      <use x="469.404297" xlink:href="#DejaVuSans-2d"/>
      <use x="505.488281" xlink:href="#DejaVuSans-65"/>
      <use x="567.011719" xlink:href="#DejaVuSans-76"/>
      <use x="626.191406" xlink:href="#DejaVuSans-61"/>
      <use x="687.470703" xlink:href="#DejaVuSans-6c"/>
      <use x="715.253906" xlink:href="#DejaVuSans-73"/>
      <use x="767.353516" xlink:href="#DejaVuSans-20"/>
      <use x="799.140625" xlink:href="#DejaVuSans-2f"/>
      <use x="832.832031" xlink:href="#DejaVuSans-20"/>
      <use x="864.619141" xlink:href="#DejaVuSans-64"/>
      <use x="928.095703" xlink:href="#DejaVuSans-69"/>
      <use x="955.878906" xlink:href="#DejaVuSans-6d"/>
      <use x="1053.291016" xlink:href="#DejaVuSans-65"/>
      <use x="1114.814453" xlink:href="#DejaVuSans-6e"/>
      <use x="1178.193359" xlink:href="#DejaVuSans-73"/>
      <use x="1230.292969" xlink:href="#DejaVuSans-69"/>
      <use x="1258.076172" xlink:href="#DejaVuSans-6f"/>
      <use x="1319.257812" xlink:href="#DejaVuSans-6e"/>
      <use x="1382.636719" xlink:href="#DejaVuSans-29"/>
     </g>
    </g>
   </g>
   <g id="matplotlib.axis_2">
    <g id="ytick_1">
     <g id="line2d_11">
      <path clip-path="url(#pa8a5304acc)" d="M 56.12 294.88 
L 399.984 294.88 
" style="fill:none;stroke:#b0b0b0;stroke-linecap:square;stroke-width:0.8;"/>
     </g>
     <g id="line2d_12">
      <defs>
       <path d="M 0 0 
L -3.5 0 
" id="mce2795a0c3" style="stroke:#000000;stroke-width:0.8;"/>
      </defs>
      <g>
       <use style="stroke:#000000;stroke-width:0.8;" x="56.12" xlink:href="#mce2795a0c3" y="294.88"/>
      </g>
     </g>
     <g id="text_7">
      <!-- 0.0 -->
      <defs>
       <path d="M 10.6875 12.40625 
L 21 12.40625 
L 21 0 
L 10.6875 0 
z
" id="DejaVuSans-2e"/>
      </defs>
      <g transform="translate(23.675 300.95875)scale(0.16 -0.16)">
       <use xlink:href="#DejaVuSans-30"/>
       <use x="63.623047" xlink:href="#DejaVuSans-2e"/>
       <use x="95.410156" xlink:href="#DejaVuSans-30"/>
      </g>
     </g>
    </g>
    <g id="ytick_2">
     <g id="line2d_13">
      <path clip-path="url(#pa8a5304acc)" d="M 56.12 241.406733 
L 399.984 241.406733 
" style="fill:none;stroke:#b0b0b0;stroke-linecap:square;stroke-width:0.8;"/>
     </g>
     <g id="line2d_14">
      <g>
       <use style="stroke:#000000;stroke-width:0.8;" x="56.12" xlink:href="#mce2795a0c3" y="241.406733"/>
      </g>
     </g>
     <g id="text_8">
      <!-- 0.2 -->
      <g transform="translate(23.675 247.485483)scale(0.16 -0.16)">
       <use xlink:href="#DejaVuSans-30"/>
       <use x="63.623047" xlink:href="#DejaVuSans-2e"/>
       <use x="95.410156" xlink:href="#DejaVuSans-32"/>
      </g>
     </g>
    </g>
    <g id="ytick_3">
     <g id="line2d_15">
      <path clip-path="url(#pa8a5304acc)" d="M 56.12 187.933465 
L 399.984 187.933465 
" style="fill:none;stroke:#b0b0b0;stroke-linecap:square;stroke-width:0.8;"/>
     </g>
     <g id="line2d_16">
      <g>
       <use style="stroke:#000000;stroke-width:0.8;" x="56.12" xlink:href="#mce2795a0c3" y="187.933465"/>
      </g>
     </g>
     <g id="text_9">
      <!-- 0.4 -->
      <g transform="translate(23.675 194.012215)scale(0.16 -0.16)">
       <use xlink:href="#DejaVuSans-30"/>
       <use x="63.623047" xlink:href="#DejaVuSans-2e"/>
       <use x="95.410156" xlink:href="#DejaVuSans-34"/>
      </g>
     </g>
    </g>
    <g id="ytick_4">
     <g id="line2d_17">
      <path clip-path="url(#pa8a5304acc)" d="M 56.12 134.460198 
L 399.984 134.460198 
" style="fill:none;stroke:#b0b0b0;stroke-linecap:square;stroke-width:0.8;"/>
     </g>
     <g id="line2d_18">
      <g>
       <use style="stroke:#000000;stroke-width:0.8;" x="56.12" xlink:href="#mce2795a0c3" y="134.460198"/>
      </g>
     </g>
     <g id="text_10">
      <!-- 0.6 -->
      <g transform="translate(23.675 140.538948)scale(0.16 -0.16)">
       <use xlink:href="#DejaVuSans-30"/>
       <use x="63.623047" xlink:href="#DejaVuSans-2e"/>
       <use x="95.410156" xlink:href="#DejaVuSans-36"/>
      </g>
     </g>
    </g>
    <g id="ytick_5">
     <g id="line2d_19">
      <path clip-path="url(#pa8a5304acc)" d="M 56.12 80.986931 
L 399.984 80.986931 
" style="fill:none;stroke:#b0b0b0;stroke-linecap:square;stroke-width:0.8;"/>
     </g>
     <g id="line2d_20">
      <g>
       <use style="stroke:#000000;stroke-width:0.8;" x="56.12" xlink:href="#mce2795a0c3" y="80.986931"/>
      </g>
     </g>
     <g id="text_11">
      <!-- 0.8 -->
      <g transform="translate(23.675 87.065681)scale(0.16 -0.16)">
       <use xlink:href="#DejaVuSans-30"/>
       <use x="63.623047" xlink:href="#DejaVuSans-2e"/>
       <use x="95.410156" xlink:href="#DejaVuSans-38"/>
      </g>
     </g>
    </g>
    <g id="ytick_6">
     <g id="line2d_21">
      <path clip-path="url(#pa8a5304acc)" d="M 56.12 27.513663 
L 399.984 27.513663 
" style="fill:none;stroke:#b0b0b0;stroke-linecap:square;stroke-width:0.8;"/>
     </g>
     <g id="line2d_22">
      <g>
       <use style="stroke:#000000;stroke-width:0.8;" x="56.12" xlink:href="#mce2795a0c3" y="27.513663"/>
      </g>
     </g>
     <g id="text_12">
      <!-- 1.0 -->
      <g transform="translate(23.675 33.592413)scale(0.16 -0.16)">
       <use xlink:href="#DejaVuSans-31"/>
       <use x="63.623047" xlink:href="#DejaVuSans-2e"/>
       <use x="95.410156" xlink:href="#DejaVuSans-30"/>
      </g>
     </g>
    </g>
    <g id="text_13">
     <!-- Fraction of function,target pairs -->
     <defs>
      <path d="M 9.8125 72.90625 
L 51.703125 72.90625 
L 51.703125 64.59375 
L 19.671875 64.59375 
L 19.671875 43.109375 
L 48.578125 43.109375 
L 48.578125 34.8125 
L 19.671875 34.8125 
L 19.671875 0 
L 9.8125 0 
z
" id="DejaVuSans-46"/>
      <path d="M 41.109375 46.296875 
Q 39.59375 47.171875 37.8125 47.578125 
Q 36.03125 48 33.890625 48 
Q 26.265625 48 22.1875 43.046875 
Q 18.109375 38.09375 18.109375 28.8125 
L 18.109375 0 
L 9.078125 0 
L 9.078125 54.6875 
L 18.109375 54.6875 
L 18.109375 46.1875 
Q 20.953125 51.171875 25.484375 53.578125 
Q 30.03125 56 36.53125 56 
Q 37.453125 56 38.578125 55.875 
Q 39.703125 55.765625 41.0625 55.515625 
z
" id="DejaVuSans-72"/>
      <path d="M 48.78125 52.59375 
L 48.78125 44.1875 
Q 44.96875 46.296875 41.140625 47.34375 
Q 37.3125 48.390625 33.40625 48.390625 
Q 24.65625 48.390625 19.8125 42.84375 
Q 14.984375 37.3125 14.984375 27.296875 
Q 14.984375 17.28125 19.8125 11.734375 
Q 24.65625 6.203125 33.40625 6.203125 
Q 37.3125 6.203125 41.140625 7.25 
Q 44.96875 8.296875 48.78125 10.40625 
L 48.78125 2.09375 
Q 45.015625 0.34375 40.984375 -0.53125 
Q 36.96875 -1.421875 32.421875 -1.421875 
Q 20.0625 -1.421875 12.78125 6.34375 
Q 5.515625 14.109375 5.515625 27.296875 
Q 5.515625 40.671875 12.859375 48.328125 
Q 20.21875 56 33.015625 56 
Q 37.15625 56 41.109375 55.140625 
Q 45.0625 54.296875 48.78125 52.59375 
z
" id="DejaVuSans-63"/>
      <path d="M 18.3125 70.21875 
L 18.3125 54.6875 
L 36.8125 54.6875 
L 36.8125 47.703125 
L 18.3125 47.703125 
L 18.3125 18.015625 
Q 18.3125 11.328125 20.140625 9.421875 
Q 21.96875 7.515625 27.59375 7.515625 
L 36.8125 7.515625 
L 36.8125 0 
L 27.59375 0 
Q 17.1875 0 13.234375 3.875 
Q 9.28125 7.765625 9.28125 18.015625 
L 9.28125 47.703125 
L 2.6875 47.703125 
L 2.6875 54.6875 
L 9.28125 54.6875 
L 9.28125 70.21875 
z
" id="DejaVuSans-74"/>
      <path d="M 8.5 21.578125 
L 8.5 54.6875 
L 17.484375 54.6875 
L 17.484375 21.921875 
Q 17.484375 14.15625 20.5 10.265625 
Q 23.53125 6.390625 29.59375 6.390625 
Q 36.859375 6.390625 41.078125 11.03125 
Q 45.3125 15.671875 45.3125 23.6875 
L 45.3125 54.6875 
L 54.296875 54.6875 
L 54.296875 0 
L 45.3125 0 
L 45.3125 8.40625 
Q 42.046875 3.421875 37.71875 1 
Q 33.40625 -1.421875 27.6875 -1.421875 
Q 18.265625 -1.421875 13.375 4.4375 
Q 8.5 10.296875 8.5 21.578125 
z
M 31.109375 56 
z
" id="DejaVuSans-75"/>
      <path d="M 11.71875 12.40625 
L 22.015625 12.40625 
L 22.015625 4 
L 14.015625 -11.625 
L 7.71875 -11.625 
L 11.71875 4 
z
" id="DejaVuSans-2c"/>
      <path d="M 18.109375 8.203125 
L 18.109375 -20.796875 
L 9.078125 -20.796875 
L 9.078125 54.6875 
L 18.109375 54.6875 
L 18.109375 46.390625 
Q 20.953125 51.265625 25.265625 53.625 
Q 29.59375 56 35.59375 56 
Q 45.5625 56 51.78125 48.09375 
Q 58.015625 40.1875 58.015625 27.296875 
Q 58.015625 14.40625 51.78125 6.484375 
Q 45.5625 -1.421875 35.59375 -1.421875 
Q 29.59375 -1.421875 25.265625 0.953125 
Q 20.953125 3.328125 18.109375 8.203125 
z
M 48.6875 27.296875 
Q 48.6875 37.203125 44.609375 42.84375 
Q 40.53125 48.484375 33.40625 48.484375 
Q 26.265625 48.484375 22.1875 42.84375 
Q 18.109375 37.203125 18.109375 27.296875 
Q 18.109375 17.390625 22.1875 11.75 
Q 26.265625 6.109375 33.40625 6.109375 
Q 40.53125 6.109375 44.609375 11.75 
Q 48.6875 17.390625 48.6875 27.296875 
z
" id="DejaVuSans-70"/>
     </defs>
     <g transform="translate(16.139531 294.999375)rotate(-90)scale(0.17 -0.17)">
      <use xlink:href="#DejaVuSans-46"/>
      <use x="57.410156" xlink:href="#DejaVuSans-72"/>
      <use x="98.523438" xlink:href="#DejaVuSans-61"/>
      <use x="159.802734" xlink:href="#DejaVuSans-63"/>
      <use x="214.783203" xlink:href="#DejaVuSans-74"/>
      <use x="253.992188" xlink:href="#DejaVuSans-69"/>
      <use x="281.775391" xlink:href="#DejaVuSans-6f"/>
      <use x="342.957031" xlink:href="#DejaVuSans-6e"/>
      <use x="406.335938" xlink:href="#DejaVuSans-20"/>
      <use x="438.123047" xlink:href="#DejaVuSans-6f"/>
      <use x="499.304688" xlink:href="#DejaVuSans-66"/>
      <use x="534.509766" xlink:href="#DejaVuSans-20"/>
      <use x="566.296875" xlink:href="#DejaVuSans-66"/>
      <use x="601.501953" xlink:href="#DejaVuSans-75"/>
      <use x="664.880859" xlink:href="#DejaVuSans-6e"/>
      <use x="728.259766" xlink:href="#DejaVuSans-63"/>
      <use x="783.240234" xlink:href="#DejaVuSans-74"/>
      <use x="822.449219" xlink:href="#DejaVuSans-69"/>
      <use x="850.232422" xlink:href="#DejaVuSans-6f"/>
      <use x="911.414062" xlink:href="#DejaVuSans-6e"/>
      <use x="974.792969" xlink:href="#DejaVuSans-2c"/>
      <use x="1006.580078" xlink:href="#DejaVuSans-74"/>
      <use x="1045.789062" xlink:href="#DejaVuSans-61"/>
      <use x="1107.068359" xlink:href="#DejaVuSans-72"/>
      <use x="1148.166016" xlink:href="#DejaVuSans-67"/>
      <use x="1211.642578" xlink:href="#DejaVuSans-65"/>
      <use x="1273.166016" xlink:href="#DejaVuSans-74"/>
      <use x="1312.375" xlink:href="#DejaVuSans-20"/>
      <use x="1344.162109" xlink:href="#DejaVuSans-70"/>
      <use x="1407.638672" xlink:href="#DejaVuSans-61"/>
      <use x="1468.917969" xlink:href="#DejaVuSans-69"/>
      <use x="1496.701172" xlink:href="#DejaVuSans-72"/>
      <use x="1537.814453" xlink:href="#DejaVuSans-73"/>
     </g>
    </g>
   </g>
   <g id="line2d_23">
    <defs>
     <path d="M 0 1.5 
C 0.397805 1.5 0.77937 1.341951 1.06066 1.06066 
C 1.341951 0.77937 1.5 0.397805 1.5 0 
C 1.5 -0.397805 1.341951 -0.77937 1.06066 -1.06066 
C 0.77937 -1.341951 0.397805 -1.5 0 -1.5 
C -0.397805 -1.5 -0.77937 -1.341951 -1.06066 -1.06066 
C -1.341951 -0.77937 -1.5 -0.397805 -1.5 0 
C -1.5 0.397805 -1.341951 0.77937 -1.06066 1.06066 
C -0.77937 1.341951 -0.397805 1.5 0 1.5 
z
" id="mee2869ddeb" style="stroke:#00bfbf;"/>
    </defs>
    <g>
     <use style="fill:#00bfbf;stroke:#00bfbf;" x="354.488596" xlink:href="#mee2869ddeb" y="121.878253"/>
     <use style="fill:#00bfbf;stroke:#00bfbf;" x="354.488596" xlink:href="#mee2869ddeb" y="121.878253"/>
    </g>
   </g>
   <g id="line2d_24">
    <path d="M 104.865056 294.88 
L 104.865056 287.540532 
L 136.834012 287.540532 
L 136.834012 286.492036 
L 138.34418 286.492036 
L 138.34418 285.967789 
L 143.329818 285.967789 
L 143.329818 285.443541 
L 147.190601 285.443541 
L 147.190601 282.298055 
L 150.413659 282.298055 
L 150.413659 280.201064 
L 160.204854 280.201064 
L 160.204854 279.152568 
L 160.802998 279.152568 
L 160.802998 278.104073 
L 161.343105 278.104073 
L 161.343105 277.055578 
L 162.833793 277.055578 
L 162.833793 276.007082 
L 163.075876 276.007082 
L 163.144421 272.861596 
L 164.898888 272.861596 
L 164.898888 272.337348 
L 165.742729 272.337348 
L 165.830733 270.240357 
L 166.908161 270.240357 
L 166.908161 269.716109 
L 167.045034 269.716109 
L 167.045034 268.667614 
L 167.896144 268.667614 
L 167.896144 268.143366 
L 168.632701 268.143366 
L 168.632701 267.094871 
L 169.669888 267.094871 
L 169.669888 264.99788 
L 170.017473 264.99788 
L 170.017473 263.949385 
L 171.320324 263.949385 
L 171.320324 262.900889 
L 177.814658 262.900889 
L 177.814658 261.328146 
L 177.959848 261.328146 
L 177.959848 260.803898 
L 179.520604 260.803898 
L 179.520604 260.279651 
L 183.096313 260.279651 
L 183.096313 259.755403 
L 185.089351 259.755403 
L 185.089351 259.231155 
L 185.232052 259.231155 
L 185.232052 258.706907 
L 186.000957 258.706907 
L 186.000957 256.085669 
L 186.562471 256.085669 
L 186.562471 255.561421 
L 186.909705 255.561421 
L 186.961191 253.988678 
L 187.35088 253.988678 
L 187.35088 252.940182 
L 187.658044 252.940182 
L 187.740128 250.843192 
L 189.475693 250.843192 
L 189.475693 250.318944 
L 193.526748 250.318944 
L 193.596805 247.697705 
L 193.764942 247.697705 
L 193.764942 245.600714 
L 194.631274 245.600714 
L 194.631274 245.076467 
L 197.592554 245.076467 
L 197.698458 243.503724 
L 198.72745 243.503724 
L 198.72745 242.455228 
L 199.288944 242.455228 
L 199.288944 241.93098 
L 201.263692 241.93098 
L 201.263692 240.882485 
L 201.98706 240.882485 
L 201.98706 239.83399 
L 202.186251 239.83399 
L 202.186251 239.309742 
L 205.498989 239.309742 
L 205.498989 233.018769 
L 210.577119 233.018769 
L 210.577119 232.494521 
L 212.379406 232.494521 
L 212.379406 231.970274 
L 281.889107 231.970274 
L 281.996094 220.961072 
L 282.017589 220.961072 
L 282.090283 212.573108 
L 282.159013 212.573108 
L 282.188626 208.379126 
L 293.814319 208.379126 
L 293.915203 199.991163 
L 293.949803 199.991163 
L 293.964733 197.894172 
L 300.790194 197.894172 
L 300.890617 187.933465 
L 305.755146 187.933465 
L 305.815049 182.690988 
L 309.591248 182.690988 
L 309.639127 172.206034 
L 312.733479 172.206034 
L 312.765886 168.5363 
L 315.367729 168.5363 
L 315.408657 165.915061 
L 317.678519 165.915061 
L 317.702836 159.099841 
L 319.699469 159.099841 
L 319.721742 154.905859 
L 321.514978 154.905859 
L 321.534437 152.808868 
L 323.153796 152.808868 
L 323.171489 149.663382 
L 324.647978 149.663382 
L 324.666218 146.517896 
L 326.039091 146.517896 
L 326.041404 145.4694 
L 327.31476 145.4694 
L 327.31476 144.945152 
L 328.498329 144.945152 
L 328.498329 144.420905 
L 329.594445 144.420905 
L 329.607571 142.848162 
L 330.649608 142.848162 
L 330.651377 141.275418 
L 331.622975 141.275418 
L 331.633792 139.178427 
L 332.552548 139.178427 
L 332.552548 138.65418 
L 333.429677 138.65418 
L 333.429677 138.65418 
" style="fill:none;stroke:#00bfbf;stroke-linecap:square;stroke-width:1.5;"/>
   </g>
   <g id="line2d_25">
    <defs>
     <path d="M -6 0 
L 6 0 
M 0 6 
L 0 -6 
" id="m49d175849d" style="stroke:#00bfbf;stroke-width:1.5;"/>
    </defs>
    <g>
     <use style="fill-opacity:0;stroke:#00bfbf;stroke-width:1.5;" x="165.742729" xlink:href="#m49d175849d" y="271.8131"/>
     <use style="fill-opacity:0;stroke:#00bfbf;stroke-width:1.5;" x="212.379406" xlink:href="#m49d175849d" y="232.494521"/>
     <use style="fill-opacity:0;stroke:#00bfbf;stroke-width:1.5;" x="300.84507" xlink:href="#m49d175849d" y="193.175943"/>
     <use style="fill-opacity:0;stroke:#00bfbf;stroke-width:1.5;" x="332.552548" xlink:href="#m49d175849d" y="138.65418"/>
     <use style="fill-opacity:0;stroke:#00bfbf;stroke-width:1.5;" x="333.429677" xlink:href="#m49d175849d" y="138.65418"/>
    </g>
   </g>
   <g id="line2d_26">
    <path style="fill:none;stroke:#00bfbf;stroke-linecap:square;stroke-width:1.5;"/>
    <g/>
   </g>
   <g id="line2d_27">
    <path clip-path="url(#pa8a5304acc)" d="M 281.888522 231.970274 
" style="fill:none;stroke:#00bfbf;stroke-linecap:square;stroke-width:1.5;"/>
    <defs>
     <path d="M -12 12 
L 12 -12 
M -12 -12 
L 12 12 
" id="m4ee8567785" style="stroke:#00bfbf;stroke-width:3;"/>
    </defs>
    <g clip-path="url(#pa8a5304acc)">
     <use style="fill:#00bfbf;stroke:#00bfbf;stroke-width:3;" x="281.888522" xlink:href="#m4ee8567785" y="231.970274"/>
    </g>
   </g>
   <g id="line2d_28">
    <defs>
     <path d="M 0 1.5 
C 0.397805 1.5 0.77937 1.341951 1.06066 1.06066 
C 1.341951 0.77937 1.5 0.397805 1.5 0 
C 1.5 -0.397805 1.341951 -0.77937 1.06066 -1.06066 
C 0.77937 -1.341951 0.397805 -1.5 0 -1.5 
C -0.397805 -1.5 -0.77937 -1.341951 -1.06066 -1.06066 
C -1.341951 -0.77937 -1.5 -0.397805 -1.5 0 
C -1.5 0.397805 -1.341951 0.77937 -1.06066 1.06066 
C -0.77937 1.341951 -0.397805 1.5 0 1.5 
z
" id="m8b52a23ec6" style="stroke:#008000;"/>
    </defs>
    <g>
     <use style="fill:#008000;stroke:#008000;" x="340.791278" xlink:href="#m8b52a23ec6" y="153.333116"/>
     <use style="fill:#008000;stroke:#008000;" x="340.791278" xlink:href="#m8b52a23ec6" y="153.333116"/>
    </g>
   </g>
   <g id="line2d_29">
    <path d="M 180.29094 294.88 
L 180.29094 293.831505 
L 182.321122 293.831505 
L 182.321122 293.307257 
L 186.279548 293.307257 
L 186.279548 292.783009 
L 187.517595 292.783009 
L 187.517595 292.258761 
L 187.791913 292.258761 
L 187.791913 291.210266 
L 188.290795 291.210266 
L 188.290795 290.686018 
L 189.197066 290.686018 
L 189.197066 290.161771 
L 189.421318 290.161771 
L 189.421318 289.113275 
L 189.652457 289.113275 
L 189.652457 286.492036 
L 189.764446 286.492036 
L 189.764446 284.919293 
L 189.875711 284.919293 
L 189.875711 283.34655 
L 190.945958 283.34655 
L 190.945958 281.249559 
L 192.296223 281.249559 
L 192.296223 280.725312 
L 193.536495 280.725312 
L 193.536495 279.676816 
L 193.910487 279.676816 
L 193.997986 278.628321 
L 194.085042 278.628321 
L 194.085042 277.579825 
L 194.403001 277.579825 
L 194.403001 277.055578 
L 194.590994 277.055578 
L 194.590994 273.910091 
L 194.722469 273.910091 
L 194.722469 272.861596 
L 195.301981 272.861596 
L 195.400194 269.716109 
L 195.954294 269.716109 
L 195.954294 269.191862 
L 196.375823 269.191862 
L 196.375823 267.094871 
L 196.670715 267.094871 
L 196.670715 266.570623 
L 197.119618 266.570623 
L 197.119618 264.99788 
L 197.239469 264.99788 
L 197.248896 263.949385 
L 197.370972 263.949385 
L 197.370972 262.900889 
L 197.510762 262.900889 
L 197.510762 260.803898 
L 197.707637 260.803898 
L 197.707637 259.231155 
L 197.995781 259.231155 
L 197.995781 256.609917 
L 198.332354 256.609917 
L 198.332354 256.085669 
L 198.636407 256.085669 
L 198.636407 255.037173 
L 198.875268 255.037173 
L 198.875268 254.512926 
L 199.153092 254.512926 
L 199.153092 253.988678 
L 199.287549 253.988678 
L 199.287549 253.46443 
L 199.599996 253.46443 
L 199.599996 252.415935 
L 199.72286 252.415935 
L 199.812405 250.843192 
L 199.925702 250.843192 
L 199.925702 250.318944 
L 200.400367 250.318944 
L 200.400367 249.270448 
L 200.839356 249.270448 
L 200.839356 248.746201 
L 201.240044 248.746201 
L 201.240044 246.124962 
L 202.578996 246.124962 
L 202.578996 245.076467 
L 203.080882 245.076467 
L 203.080882 244.027971 
L 203.687788 244.027971 
L 203.687788 240.882485 
L 203.887559 240.882485 
L 203.974899 237.736999 
L 204.987789 237.736999 
L 204.987789 237.212751 
L 206.00677 237.212751 
L 206.00677 236.688503 
L 206.531157 236.688503 
L 206.531157 236.164255 
L 206.695205 236.164255 
L 206.695205 235.640008 
L 207.327448 235.640008 
L 207.327448 235.11576 
L 207.57915 235.11576 
L 207.57915 233.543017 
L 209.138237 233.543017 
L 209.138237 229.873283 
L 210.573499 229.873283 
L 210.573499 229.349035 
L 212.532558 229.349035 
L 212.532558 228.30054 
L 239.629333 228.30054 
L 239.629333 227.776292 
L 247.580603 227.776292 
L 247.580603 227.252044 
L 275.031709 227.252044 
L 275.123422 214.670099 
L 275.143193 214.670099 
L 275.252711 204.185145 
L 275.284629 204.185145 
L 275.36472 202.088154 
L 275.399576 202.088154 
L 275.399576 200.515411 
L 286.918607 200.515411 
L 287.025099 189.506209 
L 287.041277 189.506209 
L 287.065624 187.933465 
L 293.89406 187.933465 
L 293.938949 181.642493 
L 298.791527 181.642493 
L 298.87772 174.827272 
L 302.658065 174.827272 
L 302.671285 172.206034 
L 305.77619 172.206034 
L 305.815723 166.963557 
L 308.430772 166.963557 
L 308.457001 164.342318 
L 310.73133 164.342318 
L 310.746238 163.293823 
L 312.746277 163.293823 
L 312.753633 162.245327 
L 314.555915 162.245327 
L 314.573973 160.672584 
L 317.690282 160.672584 
L 317.69364 159.099841 
L 319.068566 159.099841 
L 319.068566 158.051345 
L 320.341699 158.051345 
L 320.341699 157.527098 
L 321.527078 157.527098 
L 321.527078 157.00285 
L 323.673716 157.00285 
L 323.673904 155.954354 
L 325.585811 155.954354 
L 325.585811 155.430107 
L 327.309502 155.430107 
L 327.309502 154.905859 
L 331.6297 154.905859 
L 331.6297 154.381611 
L 332.858265 154.381611 
L 332.858265 153.857364 
L 333.429677 153.857364 
L 333.429677 153.857364 
" style="fill:none;stroke:#008000;stroke-linecap:square;stroke-width:1.5;"/>
   </g>
   <g id="line2d_30">
    <defs>
     <path d="M -0 6 
L 6 -6 
L -6 -6 
z
" id="mcafed239cb" style="stroke:#008000;stroke-linejoin:miter;stroke-width:1.5;"/>
    </defs>
    <g>
     <use style="fill-opacity:0;stroke:#008000;stroke-linejoin:miter;stroke-width:1.5;" x="247.580603" xlink:href="#mcafed239cb" y="227.252044"/>
     <use style="fill-opacity:0;stroke:#008000;stroke-linejoin:miter;stroke-width:1.5;" x="305.796694" xlink:href="#mcafed239cb" y="168.012052"/>
     <use style="fill-opacity:0;stroke:#008000;stroke-linejoin:miter;stroke-width:1.5;" x="332.858265" xlink:href="#mcafed239cb" y="153.857364"/>
     <use style="fill-opacity:0;stroke:#008000;stroke-linejoin:miter;stroke-width:1.5;" x="333.429677" xlink:href="#mcafed239cb" y="153.857364"/>
    </g>
   </g>
   <g id="line2d_31">
    <path style="fill:none;stroke:#008000;stroke-linecap:square;stroke-width:1.5;"/>
    <g/>
   </g>
   <g id="line2d_32">
    <path clip-path="url(#pa8a5304acc)" d="M 274.912549 227.252044 
" style="fill:none;stroke:#008000;stroke-linecap:square;stroke-width:1.5;"/>
    <defs>
     <path d="M -12 12 
L 12 -12 
M -12 -12 
L 12 12 
" id="me89a250b0f" style="stroke:#008000;stroke-width:3;"/>
    </defs>
    <g clip-path="url(#pa8a5304acc)">
     <use style="fill:#008000;stroke:#008000;stroke-width:3;" x="274.912549" xlink:href="#me89a250b0f" y="227.252044"/>
    </g>
   </g>
   <g id="line2d_33">
    <defs>
     <path d="M 0 1.5 
C 0.397805 1.5 0.77937 1.341951 1.06066 1.06066 
C 1.341951 0.77937 1.5 0.397805 1.5 0 
C 1.5 -0.397805 1.341951 -0.77937 1.06066 -1.06066 
C 0.77937 -1.341951 0.397805 -1.5 0 -1.5 
C -0.397805 -1.5 -0.77937 -1.341951 -1.06066 -1.06066 
C -1.341951 -0.77937 -1.5 -0.397805 -1.5 0 
C -1.5 0.397805 -1.341951 0.77937 -1.06066 1.06066 
C -0.77937 1.341951 -0.397805 1.5 0 1.5 
z
" id="m520ad8073e" style="stroke:#0000ff;"/>
    </defs>
    <g>
     <use style="fill:#0000ff;stroke:#0000ff;" x="329.60169" xlink:href="#m520ad8073e" y="148.090639"/>
     <use style="fill:#0000ff;stroke:#0000ff;" x="329.60169" xlink:href="#m520ad8073e" y="148.090639"/>
    </g>
   </g>
   <g id="line2d_34">
    <path d="M 188.616562 294.88 
L 188.616562 294.355752 
L 188.836168 294.355752 
L 188.836168 293.307257 
L 189.684668 293.307257 
L 189.684668 292.783009 
L 189.804197 292.783009 
L 189.804197 292.258761 
L 189.980511 292.258761 
L 190.043658 290.161771 
L 190.73992 290.161771 
L 190.73992 289.113275 
L 190.999343 289.113275 
L 190.999343 288.06478 
L 191.139704 288.06478 
L 191.238883 284.395046 
L 191.324201 284.395046 
L 191.430257 282.822302 
L 191.46986 282.822302 
L 191.46986 282.298055 
L 191.632592 282.298055 
L 191.632592 281.249559 
L 191.855799 281.249559 
L 191.95351 280.201064 
L 192.04812 280.201064 
L 192.04812 277.055578 
L 192.358946 277.055578 
L 192.358946 276.53133 
L 192.710938 276.53133 
L 192.710938 276.007082 
L 192.966659 276.007082 
L 192.966659 275.482834 
L 193.127869 275.482834 
L 193.127869 274.958587 
L 193.282837 274.958587 
L 193.282837 274.434339 
L 193.6747 274.434339 
L 193.6747 273.910091 
L 193.852417 273.910091 
L 193.852417 272.337348 
L 193.991913 272.337348 
L 193.991913 271.8131 
L 194.204685 271.8131 
L 194.204685 271.288853 
L 194.405966 271.288853 
L 194.425965 270.240357 
L 194.541063 270.240357 
L 194.541063 269.191862 
L 194.66416 269.191862 
L 194.66416 268.143366 
L 194.845001 268.143366 
L 194.899101 267.094871 
L 195.011087 267.094871 
L 195.011087 266.570623 
L 195.190462 266.570623 
L 195.190462 265.522128 
L 195.628813 265.522128 
L 195.647441 262.900889 
L 195.756731 262.900889 
L 195.756731 261.852394 
L 195.871458 261.852394 
L 195.871458 261.328146 
L 196.191087 261.328146 
L 196.191087 260.803898 
L 196.306945 260.803898 
L 196.306945 260.279651 
L 196.457588 260.279651 
L 196.489135 259.231155 
L 197.119618 259.231155 
L 197.142391 257.134164 
L 197.255805 257.134164 
L 197.255805 256.609917 
L 197.405871 256.609917 
L 197.478555 255.561421 
L 197.606404 255.561421 
L 197.624855 253.46443 
L 197.762605 253.46443 
L 197.76992 250.318944 
L 197.984348 250.318944 
L 197.993375 248.746201 
L 198.178289 248.746201 
L 198.286871 247.173458 
L 198.496742 247.173458 
L 198.509008 245.600714 
L 198.91067 245.600714 
L 198.91067 245.076467 
L 199.155341 245.076467 
L 199.155341 244.552219 
L 199.449735 244.552219 
L 199.497763 243.503724 
L 199.744067 243.503724 
L 199.744067 242.455228 
L 200.111823 242.455228 
L 200.194608 241.406733 
L 200.346403 241.406733 
L 200.346403 240.358237 
L 200.644485 240.358237 
L 200.649126 237.736999 
L 200.905519 237.736999 
L 200.905519 237.212751 
L 201.060259 237.212751 
L 201.097974 236.164255 
L 201.407119 236.164255 
L 201.495698 234.591512 
L 201.884434 234.591512 
L 201.979188 232.494521 
L 202.036361 232.494521 
L 202.091923 229.873283 
L 202.817457 229.873283 
L 202.824274 227.776292 
L 204.106981 227.776292 
L 204.106981 226.203549 
L 204.373125 226.203549 
L 204.373125 224.630806 
L 266.342687 224.630806 
L 266.452989 213.621604 
L 266.458322 213.621604 
L 266.564332 204.185145 
L 266.611023 204.185145 
L 266.621623 202.612401 
L 278.180842 202.612401 
L 278.268616 191.603199 
L 285.132615 191.603199 
L 285.20766 184.787979 
L 290.040375 184.787979 
L 290.100668 180.06975 
L 293.889075 180.06975 
L 293.90736 177.972759 
L 297.019247 177.972759 
L 297.025044 175.875768 
L 299.661633 175.875768 
L 299.673431 172.206034 
L 301.941326 172.206034 
L 301.968972 166.963557 
L 303.976319 166.963557 
L 303.976319 166.439309 
L 305.777096 166.439309 
L 305.786261 164.342318 
L 307.413483 164.342318 
L 307.424191 161.721079 
L 308.907659 161.721079 
L 308.915299 159.099841 
L 310.287758 159.099841 
L 310.287758 158.575593 
L 311.560329 158.575593 
L 311.561882 157.527098 
L 312.744434 157.527098 
L 312.744434 157.00285 
L 313.851874 157.00285 
L 313.853743 155.430107 
L 315.878299 155.430107 
L 315.880356 154.381611 
L 318.525133 154.381611 
L 318.526732 153.333116 
L 319.326091 153.333116 
L 319.326091 152.808868 
L 320.089008 152.808868 
L 320.089008 152.28462 
L 321.522898 152.28462 
L 321.522898 151.760373 
L 324.073865 151.760373 
L 324.073865 151.236125 
L 324.655479 151.236125 
L 324.657834 149.663382 
L 329.166083 149.663382 
L 329.166386 148.614886 
L 329.60169 148.614886 
L 329.60169 148.090639 
L 333.429677 148.090639 
L 333.429677 148.090639 
" style="fill:none;stroke:#0000ff;stroke-linecap:square;stroke-width:1.5;"/>
   </g>
   <g id="line2d_35">
    <defs>
     <path d="M 0 -6 
L -1.347084 -1.854102 
L -5.706339 -1.854102 
L -2.179628 0.708204 
L -3.526712 4.854102 
L -0 2.291796 
L 3.526712 4.854102 
L 2.179628 0.708204 
L 5.706339 -1.854102 
L 1.347084 -1.854102 
z
" id="mb26d633147" style="stroke:#0000ff;stroke-linejoin:bevel;stroke-width:1.5;"/>
    </defs>
    <g>
     <use style="fill-opacity:0;stroke:#0000ff;stroke-linejoin:bevel;stroke-width:1.5;" x="204.373125" xlink:href="#mb26d633147" y="224.630806"/>
     <use style="fill-opacity:0;stroke:#0000ff;stroke-linejoin:bevel;stroke-width:1.5;" x="301.941326" xlink:href="#mb26d633147" y="172.206034"/>
     <use style="fill-opacity:0;stroke:#0000ff;stroke-linejoin:bevel;stroke-width:1.5;" x="329.60169" xlink:href="#mb26d633147" y="148.090639"/>
     <use style="fill-opacity:0;stroke:#0000ff;stroke-linejoin:bevel;stroke-width:1.5;" x="333.429677" xlink:href="#mb26d633147" y="148.090639"/>
    </g>
   </g>
   <g id="line2d_36">
    <path style="fill:none;stroke:#0000ff;stroke-linecap:square;stroke-width:1.5;"/>
    <g/>
   </g>
   <g id="line2d_37">
    <path clip-path="url(#pa8a5304acc)" d="M 266.123863 224.630806 
" style="fill:none;stroke:#0000ff;stroke-linecap:square;stroke-width:1.5;"/>
    <defs>
     <path d="M -12 12 
L 12 -12 
M -12 -12 
L 12 12 
" id="m5d1aa28cb8" style="stroke:#0000ff;stroke-width:3;"/>
    </defs>
    <g clip-path="url(#pa8a5304acc)">
     <use style="fill:#0000ff;stroke:#0000ff;stroke-width:3;" x="266.123863" xlink:href="#m5d1aa28cb8" y="224.630806"/>
    </g>
   </g>
   <g id="line2d_38">
    <defs>
     <path d="M 0 1.5 
C 0.397805 1.5 0.77937 1.341951 1.06066 1.06066 
C 1.341951 0.77937 1.5 0.397805 1.5 0 
C 1.5 -0.397805 1.341951 -0.77937 1.06066 -1.06066 
C 0.77937 -1.341951 0.397805 -1.5 0 -1.5 
C -0.397805 -1.5 -0.77937 -1.341951 -1.06066 -1.06066 
C -1.341951 -0.77937 -1.5 -0.397805 -1.5 0 
C -1.5 0.397805 -1.341951 0.77937 -1.06066 1.06066 
C -0.77937 1.341951 -0.397805 1.5 0 1.5 
z
" id="m850266c883" style="stroke:#000000;"/>
    </defs>
    <g>
     <use style="stroke:#000000;" x="325.759487" xlink:href="#m850266c883" y="163.81807"/>
     <use style="stroke:#000000;" x="325.759487" xlink:href="#m850266c883" y="163.81807"/>
    </g>
   </g>
   <g id="line2d_39">
    <path d="M 183.632754 294.88 
L 183.632754 293.831505 
L 184.349558 293.831505 
L 184.349558 293.307257 
L 184.968561 293.307257 
L 184.968561 292.783009 
L 185.411124 292.783009 
L 185.497167 291.734514 
L 185.616168 291.734514 
L 185.616168 291.210266 
L 185.829781 291.210266 
L 185.919224 290.161771 
L 186.002769 290.161771 
L 186.002769 288.589027 
L 186.222401 288.589027 
L 186.222401 288.06478 
L 186.460448 288.06478 
L 186.558963 284.919293 
L 186.743907 284.919293 
L 186.743907 283.870798 
L 186.885626 283.870798 
L 186.885626 282.822302 
L 187.140188 282.822302 
L 187.140188 281.773807 
L 187.293827 281.773807 
L 187.32741 280.725312 
L 187.764677 280.725312 
L 187.764677 279.676816 
L 187.972751 279.676816 
L 187.972751 279.152568 
L 188.143177 279.152568 
L 188.195891 278.104073 
L 188.27863 278.104073 
L 188.384653 276.007082 
L 188.477478 276.007082 
L 188.477478 275.482834 
L 188.714339 275.482834 
L 188.714339 274.958587 
L 188.848457 274.958587 
L 188.946456 272.861596 
L 189.03175 272.861596 
L 189.037826 271.288853 
L 189.152868 271.288853 
L 189.155886 270.240357 
L 189.295598 270.240357 
L 189.318027 268.143366 
L 189.520055 268.143366 
L 189.605498 267.094871 
L 189.759107 267.094871 
L 189.759107 266.570623 
L 189.911357 266.570623 
L 189.911357 266.046375 
L 190.055115 266.046375 
L 190.120842 262.900889 
L 190.291133 262.900889 
L 190.370029 261.328146 
L 190.427563 261.328146 
L 190.504442 260.279651 
L 190.544841 260.279651 
L 190.601794 258.706907 
L 190.677901 258.706907 
L 190.752297 257.658412 
L 190.977647 257.658412 
L 190.987143 256.609917 
L 191.151797 256.609917 
L 191.218825 255.037173 
L 191.415713 255.037173 
L 191.436864 253.46443 
L 191.533036 253.46443 
L 191.635204 252.415935 
L 191.706883 252.415935 
L 191.712084 250.843192 
L 191.920145 250.843192 
L 191.961201 248.221953 
L 192.153621 248.221953 
L 192.153621 247.697705 
L 192.372714 247.697705 
L 192.372714 246.64921 
L 192.726879 246.64921 
L 192.781946 245.600714 
L 192.987195 245.600714 
L 193.049859 244.027971 
L 193.1087 244.027971 
L 193.190024 242.455228 
L 193.412882 242.455228 
L 193.496301 241.406733 
L 193.555973 241.406733 
L 193.555973 240.882485 
L 193.732602 240.882485 
L 193.732602 239.83399 
L 193.953151 239.83399 
L 193.953151 239.309742 
L 194.106548 239.309742 
L 194.117857 238.261246 
L 194.563109 238.261246 
L 194.653205 236.688503 
L 194.723197 236.688503 
L 194.723197 235.640008 
L 195.043256 235.640008 
L 195.043256 234.591512 
L 195.505152 234.591512 
L 195.505152 234.067265 
L 195.704235 234.067265 
L 195.785484 232.494521 
L 195.999618 232.494521 
L 195.999618 231.970274 
L 196.152963 231.970274 
L 196.152963 231.446026 
L 196.534382 231.446026 
L 196.534382 230.921778 
L 234.028192 230.921778 
L 234.028192 229.873283 
L 254.530691 229.873283 
L 254.630373 224.630806 
L 254.647646 224.630806 
L 254.752087 214.670099 
L 254.763246 214.670099 
L 254.817968 212.573108 
L 266.305138 212.573108 
L 266.416086 199.466915 
L 266.42258 199.466915 
L 266.46534 197.894172 
L 273.20246 197.894172 
L 273.2902 192.651695 
L 278.176914 192.651695 
L 278.199374 187.933465 
L 281.972832 187.933465 
L 282.008632 184.787979 
L 285.112063 184.787979 
L 285.122433 181.642493 
L 287.746017 181.642493 
L 287.768432 178.497006 
L 290.039955 178.497006 
L 290.042543 177.448511 
L 292.059177 177.448511 
L 292.059177 176.924263 
L 293.868185 176.924263 
L 293.872348 175.875768 
L 295.499461 175.875768 
L 295.504907 174.303025 
L 296.99426 174.303025 
L 296.99426 173.778777 
L 298.366591 173.778777 
L 298.366591 173.254529 
L 300.824544 173.254529 
L 300.832008 172.206034 
L 301.932948 172.206034 
L 301.934245 170.109043 
L 302.972957 170.109043 
L 302.972957 169.584795 
L 303.956926 169.584795 
L 303.956926 169.060547 
L 305.765446 169.060547 
L 305.76822 168.012052 
L 307.403025 168.012052 
L 307.403025 167.487804 
L 308.166653 167.487804 
L 308.169184 166.439309 
L 314.371732 166.439309 
L 314.371732 165.915061 
L 316.797647 165.915061 
L 316.797647 165.390813 
L 318.103869 165.390813 
L 318.103869 164.866566 
L 321.515672 164.866566 
L 321.515672 164.342318 
L 325.759487 164.342318 
L 325.759487 163.81807 
L 333.429677 163.81807 
L 333.429677 163.81807 
" style="fill:none;stroke:#000000;stroke-linecap:square;stroke-width:1.5;"/>
   </g>
   <g id="line2d_40">
    <defs>
     <path d="M 0 6 
C 1.591219 6 3.117479 5.367802 4.242641 4.242641 
C 5.367802 3.117479 6 1.591219 6 0 
C 6 -1.591219 5.367802 -3.117479 4.242641 -4.242641 
C 3.117479 -5.367802 1.591219 -6 0 -6 
C -1.591219 -6 -3.117479 -5.367802 -4.242641 -4.242641 
C -5.367802 -3.117479 -6 -1.591219 -6 0 
C -6 1.591219 -5.367802 3.117479 -4.242641 4.242641 
C -3.117479 5.367802 -1.591219 6 0 6 
z
" id="m51452c470d" style="stroke:#000000;stroke-width:1.5;"/>
    </defs>
    <g>
     <use style="fill-opacity:0;stroke:#000000;stroke-width:1.5;" x="196.534382" xlink:href="#m51452c470d" y="231.446026"/>
     <use style="fill-opacity:0;stroke:#000000;stroke-width:1.5;" x="285.120785" xlink:href="#m51452c470d" y="182.16674"/>
     <use style="fill-opacity:0;stroke:#000000;stroke-width:1.5;" x="325.759487" xlink:href="#m51452c470d" y="163.81807"/>
     <use style="fill-opacity:0;stroke:#000000;stroke-width:1.5;" x="333.429677" xlink:href="#m51452c470d" y="163.81807"/>
    </g>
   </g>
   <g id="line2d_41">
    <path style="fill:none;stroke:#000000;stroke-linecap:square;stroke-width:1.5;"/>
    <g/>
   </g>
   <g id="line2d_42">
    <path clip-path="url(#pa8a5304acc)" d="M 254.198358 229.873283 
" style="fill:none;stroke:#000000;stroke-linecap:square;stroke-width:1.5;"/>
    <defs>
     <path d="M -12 12 
L 12 -12 
M -12 -12 
L 12 12 
" id="mc30c5d1488" style="stroke:#000000;stroke-width:3;"/>
    </defs>
    <g clip-path="url(#pa8a5304acc)">
     <use style="stroke:#000000;stroke-width:3;" x="254.198358" xlink:href="#mc30c5d1488" y="229.873283"/>
    </g>
   </g>
   <g id="line2d_43">
    <defs>
     <path d="M 0 1.5 
C 0.397805 1.5 0.77937 1.341951 1.06066 1.06066 
C 1.341951 0.77937 1.5 0.397805 1.5 0 
C 1.5 -0.397805 1.341951 -0.77937 1.06066 -1.06066 
C 0.77937 -1.341951 0.397805 -1.5 0 -1.5 
C -0.397805 -1.5 -0.77937 -1.341951 -1.06066 -1.06066 
C -1.341951 -0.77937 -1.5 -0.397805 -1.5 0 
C -1.5 0.397805 -1.341951 0.77937 -1.06066 1.06066 
C -0.77937 1.341951 -0.397805 1.5 0 1.5 
z
" id="m78e5297d41" style="stroke:#ff0000;"/>
    </defs>
    <g>
     <use style="fill:#ff0000;stroke:#ff0000;" x="293.84421" xlink:href="#m78e5297d41" y="174.303025"/>
     <use style="fill:#ff0000;stroke:#ff0000;" x="293.84421" xlink:href="#m78e5297d41" y="174.303025"/>
    </g>
   </g>
   <g id="line2d_44">
    <path d="M 177.172966 294.88 
L 177.172966 294.355752 
L 178.71231 294.355752 
L 178.800653 291.734514 
L 178.835039 291.734514 
L 178.835039 290.161771 
L 179.230321 290.161771 
L 179.333413 287.540532 
L 179.750137 287.540532 
L 179.782679 286.492036 
L 180.24838 286.492036 
L 180.301458 285.443541 
L 180.594218 285.443541 
L 180.628918 283.870798 
L 180.737521 283.870798 
L 180.816076 282.822302 
L 180.851554 282.822302 
L 180.962408 281.249559 
L 181.138783 281.249559 
L 181.162804 280.201064 
L 181.306228 280.201064 
L 181.332394 278.628321 
L 181.422478 278.628321 
L 181.422478 278.104073 
L 181.568452 278.104073 
L 181.631637 276.53133 
L 181.897037 276.53133 
L 181.969338 273.910091 
L 182.185568 273.910091 
L 182.296044 272.861596 
L 182.439279 272.861596 
L 182.506012 271.288853 
L 182.587961 271.288853 
L 182.684909 269.191862 
L 182.711255 269.191862 
L 182.818416 266.046375 
L 182.877181 266.046375 
L 182.877181 265.522128 
L 183.025373 265.522128 
L 183.128461 264.473632 
L 183.284066 264.473632 
L 183.37718 261.852394 
L 183.439327 261.852394 
L 183.539972 260.279651 
L 183.585904 260.279651 
L 183.585904 259.755403 
L 183.715729 259.755403 
L 183.715729 259.231155 
L 183.928589 259.231155 
L 183.949016 258.18266 
L 184.043685 258.18266 
L 184.138846 256.609917 
L 184.321611 256.609917 
L 184.321611 256.085669 
L 184.440071 256.085669 
L 184.497513 254.512926 
L 184.60593 254.512926 
L 184.653027 253.46443 
L 184.938712 253.46443 
L 184.968561 252.415935 
L 185.232052 252.415935 
L 185.232052 251.891687 
L 185.379216 251.891687 
L 185.463549 249.794696 
L 185.505561 249.794696 
L 185.50929 248.746201 
L 185.661506 248.746201 
L 185.718702 247.173458 
L 185.833441 247.173458 
L 185.889157 246.124962 
L 186.287569 246.124962 
L 186.31339 245.076467 
L 186.439264 245.076467 
L 186.439264 244.552219 
L 186.590509 244.552219 
L 186.631608 242.979476 
L 186.880461 242.979476 
L 186.880461 242.455228 
L 187.019356 242.455228 
L 187.019356 241.93098 
L 187.134252 241.93098 
L 187.243328 240.882485 
L 187.347529 240.882485 
L 187.347529 239.83399 
L 187.604478 239.83399 
L 187.604478 238.785494 
L 187.98002 238.785494 
L 188.063801 237.212751 
L 188.161565 237.212751 
L 188.161565 236.688503 
L 188.631341 236.688503 
L 188.631341 236.164255 
L 188.783841 236.164255 
L 188.783841 235.11576 
L 188.906711 235.11576 
L 188.906711 234.591512 
L 189.221376 234.591512 
L 189.221376 233.018769 
L 189.468289 233.018769 
L 189.468289 232.494521 
L 189.971162 232.494521 
L 189.971162 231.446026 
L 190.308775 231.446026 
L 190.308775 230.397531 
L 242.748571 230.397531 
L 242.859538 220.961072 
L 242.866687 220.961072 
L 242.973494 212.573108 
L 242.998221 212.573108 
L 243.058584 209.95187 
L 254.430649 209.95187 
L 254.541556 204.709392 
L 254.546007 204.709392 
L 254.599356 198.942667 
L 261.360793 198.942667 
L 261.446515 196.321429 
L 266.269861 196.321429 
L 266.306168 192.651695 
L 270.079915 192.651695 
L 270.123061 187.933465 
L 273.210217 187.933465 
L 273.239162 184.263731 
L 275.838076 184.263731 
L 275.866445 181.118245 
L 278.128191 181.118245 
L 278.136388 178.497006 
L 283.588707 178.497006 
L 283.597399 176.924263 
L 285.077929 176.924263 
L 285.077929 176.400016 
L 286.456408 176.400016 
L 286.456408 175.875768 
L 291.058916 175.875768 
L 291.058916 175.35152 
L 292.035776 175.35152 
L 292.035776 174.827272 
L 293.84421 174.827272 
L 293.84421 174.303025 
L 333.429677 174.303025 
L 333.429677 174.303025 
" style="fill:none;stroke:#ff0000;stroke-linecap:square;stroke-width:1.5;"/>
   </g>
   <g id="line2d_45">
    <defs>
     <path d="M -6 6 
L 6 6 
L 6 -6 
L -6 -6 
z
" id="md4a2c57b8e" style="stroke:#ff0000;stroke-linejoin:miter;stroke-width:1.5;"/>
    </defs>
    <g>
     <use style="fill-opacity:0;stroke:#ff0000;stroke-linejoin:miter;stroke-width:1.5;" x="190.308775" xlink:href="#md4a2c57b8e" y="230.397531"/>
     <use style="fill-opacity:0;stroke:#ff0000;stroke-linejoin:miter;stroke-width:1.5;" x="293.84421" xlink:href="#md4a2c57b8e" y="174.827272"/>
     <use style="fill-opacity:0;stroke:#ff0000;stroke-linejoin:miter;stroke-width:1.5;" x="293.84421" xlink:href="#md4a2c57b8e" y="174.303025"/>
     <use style="fill-opacity:0;stroke:#ff0000;stroke-linejoin:miter;stroke-width:1.5;" x="333.429677" xlink:href="#md4a2c57b8e" y="174.303025"/>
    </g>
   </g>
   <g id="line2d_46">
    <path style="fill:none;stroke:#ff0000;stroke-linecap:square;stroke-width:1.5;"/>
    <g/>
   </g>
   <g id="line2d_47">
    <path clip-path="url(#pa8a5304acc)" d="M 242.272854 230.397531 
" style="fill:none;stroke:#ff0000;stroke-linecap:square;stroke-width:1.5;"/>
    <defs>
     <path d="M -12 12 
L 12 -12 
M -12 -12 
L 12 12 
" id="m0c61ad2f5a" style="stroke:#ff0000;stroke-width:3;"/>
    </defs>
    <g clip-path="url(#pa8a5304acc)">
     <use style="fill:#ff0000;stroke:#ff0000;stroke-width:3;" x="242.272854" xlink:href="#m0c61ad2f5a" y="230.397531"/>
    </g>
   </g>
   <g id="line2d_48">
    <defs>
     <path d="M 0 1.5 
C 0.397805 1.5 0.77937 1.341951 1.06066 1.06066 
C 1.341951 0.77937 1.5 0.397805 1.5 0 
C 1.5 -0.397805 1.341951 -0.77937 1.06066 -1.06066 
C 0.77937 -1.341951 0.397805 -1.5 0 -1.5 
C -0.397805 -1.5 -0.77937 -1.341951 -1.06066 -1.06066 
C -1.341951 -0.77937 -1.5 -0.397805 -1.5 0 
C -1.5 0.397805 -1.341951 0.77937 -1.06066 1.06066 
C -0.77937 1.341951 -0.397805 1.5 0 1.5 
z
" id="m555d360c70" style="stroke:#bf00bf;"/>
    </defs>
    <g>
     <use style="fill:#bf00bf;stroke:#bf00bf;" x="310.26051" xlink:href="#m555d360c70" y="121.878253"/>
     <use style="fill:#bf00bf;stroke:#bf00bf;" x="310.26051" xlink:href="#m555d360c70" y="121.878253"/>
    </g>
   </g>
   <g id="line2d_49">
    <path d="M 168.700937 294.88 
L 168.700937 294.355752 
L 169.19885 294.355752 
L 169.19885 293.831505 
L 169.317526 293.831505 
L 169.317526 292.258761 
L 169.674569 292.258761 
L 169.702628 290.161771 
L 169.805122 290.161771 
L 169.915087 289.113275 
L 170.081585 289.113275 
L 170.081585 288.589027 
L 170.282668 288.589027 
L 170.282668 287.016284 
L 170.533822 287.016284 
L 170.533822 285.967789 
L 170.679021 285.967789 
L 170.753911 283.870798 
L 170.81096 283.870798 
L 170.81096 283.34655 
L 171.013488 283.34655 
L 171.1031 281.249559 
L 171.139674 281.249559 
L 171.191176 279.152568 
L 171.473822 279.152568 
L 171.498044 278.104073 
L 171.676031 278.104073 
L 171.769519 274.958587 
L 171.800569 274.958587 
L 171.800569 273.910091 
L 171.956009 273.910091 
L 171.97035 272.861596 
L 172.206274 272.861596 
L 172.266765 271.8131 
L 172.404096 271.8131 
L 172.428042 270.764605 
L 172.583869 270.764605 
L 172.665682 269.191862 
L 172.723603 269.191862 
L 172.814507 267.619119 
L 172.845675 267.619119 
L 172.845675 267.094871 
L 172.986203 267.094871 
L 172.986203 265.522128 
L 173.290434 265.522128 
L 173.314125 263.949385 
L 173.638702 263.949385 
L 173.671196 261.852394 
L 173.812527 261.852394 
L 173.856628 260.803898 
L 174.00464 260.803898 
L 174.021007 258.706907 
L 174.232378 258.706907 
L 174.232378 257.658412 
L 174.643981 257.658412 
L 174.677257 256.609917 
L 175.616131 256.609917 
L 175.616131 255.561421 
L 176.375334 255.561421 
L 176.375334 255.037173 
L 176.619312 255.037173 
L 176.619312 254.512926 
L 176.767929 254.512926 
L 176.767929 252.415935 
L 176.967428 252.415935 
L 176.967428 251.891687 
L 177.522034 251.891687 
L 177.522034 251.367439 
L 177.690276 251.367439 
L 177.746726 250.318944 
L 178.881695 250.318944 
L 178.881695 249.270448 
L 179.383397 249.270448 
L 179.383397 248.221953 
L 230.818949 248.221953 
L 230.907575 243.503724 
L 230.941049 243.503724 
L 231.04234 236.164255 
L 231.064236 236.164255 
L 231.163067 229.873283 
L 231.195 229.873283 
L 231.195 229.349035 
L 242.5196 229.349035 
L 242.623858 219.388328 
L 242.630734 219.388328 
L 242.72794 214.145851 
L 249.454713 214.145851 
L 249.536042 201.563906 
L 254.355263 201.563906 
L 254.427406 194.748686 
L 258.17726 194.748686 
L 258.210417 190.554704 
L 261.280381 190.554704 
L 261.327368 185.312227 
L 263.917413 185.312227 
L 263.953091 178.497006 
L 266.210995 178.497006 
L 266.227968 173.778777 
L 268.229946 173.778777 
L 268.25248 170.633291 
L 270.028701 170.633291 
L 270.051748 166.439309 
L 271.666229 166.439309 
L 271.679429 163.293823 
L 273.16073 163.293823 
L 273.17209 161.196832 
L 274.533178 161.196832 
L 274.547761 159.099841 
L 275.801821 159.099841 
L 275.809468 157.527098 
L 276.98682 157.527098 
L 276.994591 154.905859 
L 278.092988 154.905859 
L 278.103587 152.808868 
L 279.137296 152.808868 
L 279.146574 150.18763 
L 280.115164 150.18763 
L 280.12054 147.042143 
L 281.051698 147.042143 
L 281.052785 145.993648 
L 281.928786 145.993648 
L 281.934576 144.420905 
L 282.761689 144.420905 
L 282.768123 143.372409 
L 283.560528 143.372409 
L 283.56755 141.799666 
L 284.331742 141.799666 
L 284.331742 141.275418 
L 285.053153 141.275418 
L 285.058573 139.702675 
L 285.756391 139.702675 
L 285.761429 138.129932 
L 286.431167 138.129932 
L 286.436645 137.081437 
L 287.079422 137.081437 
L 287.079422 136.032941 
L 288.310992 136.032941 
L 288.312998 134.984446 
L 289.452237 134.984446 
L 289.45306 133.93595 
L 289.996696 133.93595 
L 290.00367 132.887455 
L 290.526912 132.887455 
L 290.526912 132.363207 
L 291.042734 132.363207 
L 291.042734 131.838959 
L 291.537151 131.838959 
L 291.537151 130.790464 
L 292.022773 130.790464 
L 292.02351 129.741969 
L 292.495131 129.741969 
L 292.495131 129.217721 
L 292.951864 129.217721 
L 292.952735 128.169225 
L 293.400701 128.169225 
L 293.400701 127.644978 
L 293.833342 127.644978 
L 293.833342 127.12073 
L 294.260039 127.12073 
L 294.260039 126.596482 
L 296.967632 126.596482 
L 296.968432 125.023739 
L 297.324409 125.023739 
L 297.324409 124.499491 
L 298.341602 124.499491 
L 298.341602 123.975244 
L 298.989806 123.975244 
L 298.992064 122.926748 
L 300.801969 122.926748 
L 300.801969 122.4025 
L 310.26051 122.4025 
L 310.26051 121.878253 
L 333.429677 121.878253 
L 333.429677 121.878253 
" style="fill:none;stroke:#bf00bf;stroke-linecap:square;stroke-width:1.5;"/>
   </g>
   <g id="line2d_50">
    <defs>
     <path d="M -0 8.485281 
L 8.485281 0 
L 0 -8.485281 
L -8.485281 -0 
z
" id="m363e0f1456" style="stroke:#bf00bf;stroke-linejoin:miter;stroke-width:1.5;"/>
    </defs>
    <g>
     <use style="fill-opacity:0;stroke:#bf00bf;stroke-linejoin:miter;stroke-width:1.5;" x="261.314528" xlink:href="#m363e0f1456" y="186.88497"/>
     <use style="fill-opacity:0;stroke:#bf00bf;stroke-linejoin:miter;stroke-width:1.5;" x="310.26051" xlink:href="#m363e0f1456" y="121.878253"/>
     <use style="fill-opacity:0;stroke:#bf00bf;stroke-linejoin:miter;stroke-width:1.5;" x="310.26051" xlink:href="#m363e0f1456" y="121.878253"/>
     <use style="fill-opacity:0;stroke:#bf00bf;stroke-linejoin:miter;stroke-width:1.5;" x="333.429677" xlink:href="#m363e0f1456" y="121.878253"/>
    </g>
   </g>
   <g id="line2d_51">
    <path style="fill:none;stroke:#bf00bf;stroke-linecap:square;stroke-width:1.5;"/>
    <g/>
   </g>
   <g id="line2d_52">
    <path clip-path="url(#pa8a5304acc)" d="M 230.347349 248.221953 
" style="fill:none;stroke:#bf00bf;stroke-linecap:square;stroke-width:1.5;"/>
    <defs>
     <path d="M -12 12 
L 12 -12 
M -12 -12 
L 12 12 
" id="m1b186d59e6" style="stroke:#bf00bf;stroke-width:3;"/>
    </defs>
    <g clip-path="url(#pa8a5304acc)">
     <use style="fill:#bf00bf;stroke:#bf00bf;stroke-width:3;" x="230.347349" xlink:href="#m1b186d59e6" y="248.221953"/>
    </g>
   </g>
   <g id="line2d_53">
    <path d="M 333.429677 174.303025 
L 363.933742 289.532673 
" style="fill:none;stroke:#ff0000;stroke-linecap:square;stroke-width:1.5;"/>
    <g>
     <use style="fill-opacity:0;stroke:#ff0000;stroke-linejoin:miter;stroke-width:1.5;" x="333.429677" xlink:href="#md4a2c57b8e" y="174.303025"/>
     <use style="fill-opacity:0;stroke:#ff0000;stroke-linejoin:miter;stroke-width:1.5;" x="363.933742" xlink:href="#md4a2c57b8e" y="289.532673"/>
    </g>
   </g>
   <g id="line2d_54">
    <path d="M 333.429677 163.81807 
L 363.933742 238.198337 
" style="fill:none;stroke:#000000;stroke-linecap:square;stroke-width:1.5;"/>
    <g>
     <use style="fill-opacity:0;stroke:#000000;stroke-width:1.5;" x="333.429677" xlink:href="#m51452c470d" y="163.81807"/>
     <use style="fill-opacity:0;stroke:#000000;stroke-width:1.5;" x="363.933742" xlink:href="#m51452c470d" y="238.198337"/>
    </g>
   </g>
   <g id="line2d_55">
    <path d="M 333.429677 153.857364 
L 363.933742 186.864 
" style="fill:none;stroke:#008000;stroke-linecap:square;stroke-width:1.5;"/>
    <g>
     <use style="fill-opacity:0;stroke:#008000;stroke-linejoin:miter;stroke-width:1.5;" x="333.429677" xlink:href="#mcafed239cb" y="153.857364"/>
     <use style="fill-opacity:0;stroke:#008000;stroke-linejoin:miter;stroke-width:1.5;" x="363.933742" xlink:href="#mcafed239cb" y="186.864"/>
    </g>
   </g>
   <g id="line2d_56">
    <path d="M 333.429677 148.090639 
L 363.933742 135.529663 
" style="fill:none;stroke:#0000ff;stroke-linecap:square;stroke-width:1.5;"/>
    <g>
     <use style="fill-opacity:0;stroke:#0000ff;stroke-linejoin:bevel;stroke-width:1.5;" x="333.429677" xlink:href="#mb26d633147" y="148.090639"/>
     <use style="fill-opacity:0;stroke:#0000ff;stroke-linejoin:bevel;stroke-width:1.5;" x="363.933742" xlink:href="#mb26d633147" y="135.529663"/>
    </g>
   </g>
   <g id="line2d_57">
    <path d="M 333.429677 138.65418 
L 363.933742 84.195327 
" style="fill:none;stroke:#00bfbf;stroke-linecap:square;stroke-width:1.5;"/>
    <g>
     <use style="fill-opacity:0;stroke:#00bfbf;stroke-width:1.5;" x="333.429677" xlink:href="#m49d175849d" y="138.65418"/>
     <use style="fill-opacity:0;stroke:#00bfbf;stroke-width:1.5;" x="363.933742" xlink:href="#m49d175849d" y="84.195327"/>
    </g>
   </g>
   <g id="line2d_58">
    <path d="M 333.429677 121.878253 
L 363.933742 32.86099 
" style="fill:none;stroke:#bf00bf;stroke-linecap:square;stroke-width:1.5;"/>
    <g>
     <use style="fill-opacity:0;stroke:#bf00bf;stroke-linejoin:miter;stroke-width:1.5;" x="333.429677" xlink:href="#m363e0f1456" y="121.878253"/>
     <use style="fill-opacity:0;stroke:#bf00bf;stroke-linejoin:miter;stroke-width:1.5;" x="363.933742" xlink:href="#m363e0f1456" y="32.86099"/>
    </g>
   </g>
   <g id="line2d_59">
    <path d="M 333.429677 294.88 
L 333.429677 27.513663 
" style="fill:none;stroke:#000000;stroke-linecap:square;stroke-width:1.5;"/>
   </g>
   <g id="patch_3">
    <path d="M 56.12 294.88 
L 56.12 24.84 
" style="fill:none;stroke:#000000;stroke-linecap:square;stroke-linejoin:miter;stroke-width:0.8;"/>
   </g>
   <g id="patch_4">
    <path d="M 399.984 294.88 
L 399.984 24.84 
" style="fill:none;stroke:#000000;stroke-linecap:square;stroke-linejoin:miter;stroke-width:0.8;"/>
   </g>
   <g id="patch_5">
    <path d="M 56.12 294.88 
L 399.984 294.88 
" style="fill:none;stroke:#000000;stroke-linecap:square;stroke-linejoin:miter;stroke-width:0.8;"/>
   </g>
   <g id="patch_6">
    <path d="M 56.12 24.84 
L 399.984 24.84 
" style="fill:none;stroke:#000000;stroke-linecap:square;stroke-linejoin:miter;stroke-width:0.8;"/>
   </g>
   <g id="text_14">
    <!-- 20-D -->
    <defs>
     <path d="M 19.671875 64.796875 
L 19.671875 8.109375 
L 31.59375 8.109375 
Q 46.6875 8.109375 53.6875 14.9375 
Q 60.6875 21.78125 60.6875 36.53125 
Q 60.6875 51.171875 53.6875 57.984375 
Q 46.6875 64.796875 31.59375 64.796875 
z
M 9.8125 72.90625 
L 30.078125 72.90625 
Q 51.265625 72.90625 61.171875 64.09375 
Q 71.09375 55.28125 71.09375 36.53125 
Q 71.09375 17.671875 61.125 8.828125 
Q 51.171875 0 30.078125 0 
L 9.8125 0 
z
" id="DejaVuSans-44"/>
    </defs>
    <g transform="translate(369.479935 294.223611)scale(0.17 -0.17)">
     <use xlink:href="#DejaVuSans-32"/>
     <use x="63.623047" xlink:href="#DejaVuSans-30"/>
     <use x="127.246094" xlink:href="#DejaVuSans-2d"/>
     <use x="163.330078" xlink:href="#DejaVuSans-44"/>
    </g>
   </g>
   <g id="text_15">
    <!-- 10-D -->
    <g transform="translate(369.479935 242.889274)scale(0.17 -0.17)">
     <use xlink:href="#DejaVuSans-31"/>
     <use x="63.623047" xlink:href="#DejaVuSans-30"/>
     <use x="127.246094" xlink:href="#DejaVuSans-2d"/>
     <use x="163.330078" xlink:href="#DejaVuSans-44"/>
    </g>
   </g>
   <g id="text_16">
    <!-- 3-D -->
    <defs>
     <path d="M 40.578125 39.3125 
Q 47.65625 37.796875 51.625 33 
Q 55.609375 28.21875 55.609375 21.1875 
Q 55.609375 10.40625 48.1875 4.484375 
Q 40.765625 -1.421875 27.09375 -1.421875 
Q 22.515625 -1.421875 17.65625 -0.515625 
Q 12.796875 0.390625 7.625 2.203125 
L 7.625 11.71875 
Q 11.71875 9.328125 16.59375 8.109375 
Q 21.484375 6.890625 26.8125 6.890625 
Q 36.078125 6.890625 40.9375 10.546875 
Q 45.796875 14.203125 45.796875 21.1875 
Q 45.796875 27.640625 41.28125 31.265625 
Q 36.765625 34.90625 28.71875 34.90625 
L 20.21875 34.90625 
L 20.21875 43.015625 
L 29.109375 43.015625 
Q 36.375 43.015625 40.234375 45.921875 
Q 44.09375 48.828125 44.09375 54.296875 
Q 44.09375 59.90625 40.109375 62.90625 
Q 36.140625 65.921875 28.71875 65.921875 
Q 24.65625 65.921875 20.015625 65.03125 
Q 15.375 64.15625 9.8125 62.3125 
L 9.8125 71.09375 
Q 15.4375 72.65625 20.34375 73.4375 
Q 25.25 74.21875 29.59375 74.21875 
Q 40.828125 74.21875 47.359375 69.109375 
Q 53.90625 64.015625 53.90625 55.328125 
Q 53.90625 49.265625 50.4375 45.09375 
Q 46.96875 40.921875 40.578125 39.3125 
z
" id="DejaVuSans-33"/>
    </defs>
    <g transform="translate(369.479935 191.554937)scale(0.17 -0.17)">
     <use xlink:href="#DejaVuSans-33"/>
     <use x="63.623047" xlink:href="#DejaVuSans-2d"/>
     <use x="99.707031" xlink:href="#DejaVuSans-44"/>
    </g>
   </g>
   <g id="text_17">
    <!-- 5-D -->
    <defs>
     <path d="M 10.796875 72.90625 
L 49.515625 72.90625 
L 49.515625 64.59375 
L 19.828125 64.59375 
L 19.828125 46.734375 
Q 21.96875 47.46875 24.109375 47.828125 
Q 26.265625 48.1875 28.421875 48.1875 
Q 40.625 48.1875 47.75 41.5 
Q 54.890625 34.8125 54.890625 23.390625 
Q 54.890625 11.625 47.5625 5.09375 
Q 40.234375 -1.421875 26.90625 -1.421875 
Q 22.3125 -1.421875 17.546875 -0.640625 
Q 12.796875 0.140625 7.71875 1.703125 
L 7.71875 11.625 
Q 12.109375 9.234375 16.796875 8.0625 
Q 21.484375 6.890625 26.703125 6.890625 
Q 35.15625 6.890625 40.078125 11.328125 
Q 45.015625 15.765625 45.015625 23.390625 
Q 45.015625 31 40.078125 35.4375 
Q 35.15625 39.890625 26.703125 39.890625 
Q 22.75 39.890625 18.8125 39.015625 
Q 14.890625 38.140625 10.796875 36.28125 
z
" id="DejaVuSans-35"/>
    </defs>
    <g transform="translate(369.479935 140.220601)scale(0.17 -0.17)">
     <use xlink:href="#DejaVuSans-35"/>
     <use x="63.623047" xlink:href="#DejaVuSans-2d"/>
     <use x="99.707031" xlink:href="#DejaVuSans-44"/>
    </g>
   </g>
   <g id="text_18">
    <!-- 2-D -->
    <g transform="translate(369.479935 88.886264)scale(0.17 -0.17)">
     <use xlink:href="#DejaVuSans-32"/>
     <use x="63.623047" xlink:href="#DejaVuSans-2d"/>
     <use x="99.707031" xlink:href="#DejaVuSans-44"/>
    </g>
   </g>
   <g id="text_19">
    <!-- 40-D -->
    <g transform="translate(369.479935 37.551928)scale(0.17 -0.17)">
     <use xlink:href="#DejaVuSans-34"/>
     <use x="63.623047" xlink:href="#DejaVuSans-30"/>
     <use x="127.246094" xlink:href="#DejaVuSans-2d"/>
     <use x="163.330078" xlink:href="#DejaVuSans-44"/>
    </g>
   </g>
   <g id="text_20">
    <!-- bbob f12 -->
    <defs>
     <path d="M 48.6875 27.296875 
Q 48.6875 37.203125 44.609375 42.84375 
Q 40.53125 48.484375 33.40625 48.484375 
Q 26.265625 48.484375 22.1875 42.84375 
Q 18.109375 37.203125 18.109375 27.296875 
Q 18.109375 17.390625 22.1875 11.75 
Q 26.265625 6.109375 33.40625 6.109375 
Q 40.53125 6.109375 44.609375 11.75 
Q 48.6875 17.390625 48.6875 27.296875 
z
M 18.109375 46.390625 
Q 20.953125 51.265625 25.265625 53.625 
Q 29.59375 56 35.59375 56 
Q 45.5625 56 51.78125 48.09375 
Q 58.015625 40.1875 58.015625 27.296875 
Q 58.015625 14.40625 51.78125 6.484375 
Q 45.5625 -1.421875 35.59375 -1.421875 
Q 29.59375 -1.421875 25.265625 0.953125 
Q 20.953125 3.328125 18.109375 8.203125 
L 18.109375 0 
L 9.078125 0 
L 9.078125 75.984375 
L 18.109375 75.984375 
z
" id="DejaVuSans-62"/>
    </defs>
    <g transform="translate(59.55864 35.290806)scale(0.102 -0.102)">
     <use xlink:href="#DejaVuSans-62"/>
     <use x="63.476562" xlink:href="#DejaVuSans-62"/>
     <use x="126.953125" xlink:href="#DejaVuSans-6f"/>
     <use x="188.134766" xlink:href="#DejaVuSans-62"/>
     <use x="251.611328" xlink:href="#DejaVuSans-20"/>
     <use x="283.398438" xlink:href="#DejaVuSans-66"/>
     <use x="318.603516" xlink:href="#DejaVuSans-31"/>
     <use x="382.226562" xlink:href="#DejaVuSans-32"/>
    </g>
    <!-- 51 targets: 100..1e-08 -->
    <defs>
     <path d="M 11.71875 12.40625 
L 22.015625 12.40625 
L 22.015625 0 
L 11.71875 0 
z
M 11.71875 51.703125 
L 22.015625 51.703125 
L 22.015625 39.3125 
L 11.71875 39.3125 
z
" id="DejaVuSans-3a"/>
    </defs>
    <g transform="translate(59.55864 46.712575)scale(0.102 -0.102)">
     <use xlink:href="#DejaVuSans-35"/>
     <use x="63.623047" xlink:href="#DejaVuSans-31"/>
     <use x="127.246094" xlink:href="#DejaVuSans-20"/>
     <use x="159.033203" xlink:href="#DejaVuSans-74"/>
     <use x="198.242188" xlink:href="#DejaVuSans-61"/>
     <use x="259.521484" xlink:href="#DejaVuSans-72"/>
     <use x="300.619141" xlink:href="#DejaVuSans-67"/>
     <use x="364.095703" xlink:href="#DejaVuSans-65"/>
     <use x="425.619141" xlink:href="#DejaVuSans-74"/>
     <use x="464.828125" xlink:href="#DejaVuSans-73"/>
     <use x="516.927734" xlink:href="#DejaVuSans-3a"/>
     <use x="550.619141" xlink:href="#DejaVuSans-20"/>
     <use x="582.40625" xlink:href="#DejaVuSans-31"/>
     <use x="646.029297" xlink:href="#DejaVuSans-30"/>
     <use x="709.652344" xlink:href="#DejaVuSans-30"/>
     <use x="773.275391" xlink:href="#DejaVuSans-2e"/>
     <use x="805.0625" xlink:href="#DejaVuSans-2e"/>
     <use x="836.849609" xlink:href="#DejaVuSans-31"/>
     <use x="900.472656" xlink:href="#DejaVuSans-65"/>
     <use x="961.996094" xlink:href="#DejaVuSans-2d"/>
     <use x="998.080078" xlink:href="#DejaVuSans-30"/>
     <use x="1061.703125" xlink:href="#DejaVuSans-38"/>
    </g>
    <!-- 15 instances -->
    <g transform="translate(59.55864 58.134344)scale(0.102 -0.102)">
     <use xlink:href="#DejaVuSans-31"/>
     <use x="63.623047" xlink:href="#DejaVuSans-35"/>
     <use x="127.246094" xlink:href="#DejaVuSans-20"/>
     <use x="159.033203" xlink:href="#DejaVuSans-69"/>
     <use x="186.816406" xlink:href="#DejaVuSans-6e"/>
     <use x="250.195312" xlink:href="#DejaVuSans-73"/>
     <use x="302.294922" xlink:href="#DejaVuSans-74"/>
     <use x="341.503906" xlink:href="#DejaVuSans-61"/>
     <use x="402.783203" xlink:href="#DejaVuSans-6e"/>
     <use x="466.162109" xlink:href="#DejaVuSans-63"/>
     <use x="521.142578" xlink:href="#DejaVuSans-65"/>
     <use x="582.666016" xlink:href="#DejaVuSans-73"/>
    </g>
   </g>
   <g id="text_21">
    <!-- v0.0.0 -->
    <g style="fill:#808080;" transform="translate(212.37075 290.099912)scale(0.1 -0.1)">
     <use xlink:href="#DejaVuSans-76"/>
     <use x="59.179688" xlink:href="#DejaVuSans-30"/>
     <use x="122.802734" xlink:href="#DejaVuSans-2e"/>
     <use x="154.589844" xlink:href="#DejaVuSans-30"/>
     <use x="218.212891" xlink:href="#DejaVuSans-2e"/>
     <use x="250" xlink:href="#DejaVuSans-30"/>
    </g>
   </g>
   <g id="text_22">
    <!-- 12 Bent cigar -->
    <defs>
     <path d="M 19.671875 34.8125 
L 19.671875 8.109375 
L 35.5 8.109375 
Q 43.453125 8.109375 47.28125 11.40625 
Q 51.125 14.703125 51.125 21.484375 
Q 51.125 28.328125 47.28125 31.5625 
Q 43.453125 34.8125 35.5 34.8125 
z
M 19.671875 64.796875 
L 19.671875 42.828125 
L 34.28125 42.828125 
Q 41.5 42.828125 45.03125 45.53125 
Q 48.578125 48.25 48.578125 53.8125 
Q 48.578125 59.328125 45.03125 62.0625 
Q 41.5 64.796875 34.28125 64.796875 
z
M 9.8125 72.90625 
L 35.015625 72.90625 
Q 46.296875 72.90625 52.390625 68.21875 
Q 58.5 63.53125 58.5 54.890625 
Q 58.5 48.1875 55.375 44.234375 
Q 52.25 40.28125 46.1875 39.3125 
Q 53.46875 37.75 57.5 32.78125 
Q 61.53125 27.828125 61.53125 20.40625 
Q 61.53125 10.640625 54.890625 5.3125 
Q 48.25 0 35.984375 0 
L 9.8125 0 
z
" id="DejaVuSans-42"/>
    </defs>
    <g transform="translate(160.834812 18.84)scale(0.2 -0.2)">
     <use xlink:href="#DejaVuSans-31"/>
     <use x="63.623047" xlink:href="#DejaVuSans-32"/>
     <use x="127.246094" xlink:href="#DejaVuSans-20"/>
     <use x="159.033203" xlink:href="#DejaVuSans-42"/>
     <use x="227.636719" xlink:href="#DejaVuSans-65"/>
     <use x="289.160156" xlink:href="#DejaVuSans-6e"/>
     <use x="352.539062" xlink:href="#DejaVuSans-74"/>
     <use x="391.748047" xlink:href="#DejaVuSans-20"/>
     <use x="423.535156" xlink:href="#DejaVuSans-63"/>
     <use x="478.515625" xlink:href="#DejaVuSans-69"/>
     <use x="506.298828" xlink:href="#DejaVuSans-67"/>
     <use x="569.775391" xlink:href="#DejaVuSans-61"/>
     <use x="631.054688" xlink:href="#DejaVuSans-72"/>
    </g>
   </g>
  </g>
 </g>
 <defs>
  <clipPath id="pa8a5304acc">
   <rect height="270.04" width="343.864" x="56.12" y="24.84"/>
  </clipPath>
 </defs>
</svg>
