<?xml version="1.0" encoding="utf-8" standalone="no"?>
<!DOCTYPE svg PUBLIC "-//W3C//DTD SVG 1.1//EN"
  "http://www.w3.org/Graphics/SVG/1.1/DTD/svg11.dtd">
<!-- Created with matplotlib (http://matplotlib.org/) -->
<svg height="345.6pt" version="1.1" viewBox="0 0 460.8 345.6" width="460.8pt" xmlns="http://www.w3.org/2000/svg" xmlns:xlink="http://www.w3.org/1999/xlink">
 <defs>
  <style type="text/css">
*{stroke-linecap:butt;stroke-linejoin:round;}
  </style>
 </defs>
 <g id="figure_1">
  <g id="patch_1">
   <path d="M 0 345.6 
L 460.8 345.6 
L 460.8 0 
L 0 0 
z
" style="fill:#ffffff;"/>
  </g>
  <g id="axes_1">
   <g id="patch_2">
    <path d="M 56.12 294.88 
L 399.984 294.88 
L 399.984 24.84 
L 56.12 24.84 
z
" style="fill:#ffffff;"/>
   </g>
   <g id="matplotlib.axis_1">
    <g id="xtick_1">
     <g id="line2d_1">
      <path clip-path="url(#pa2c4872290)" d="M 56.12 294.88 
L 56.12 24.84 
" style="fill:none;stroke:#b0b0b0;stroke-linecap:square;stroke-width:0.8;"/>
     </g>
     <g id="line2d_2">
      <defs>
       <path d="M 0 0 
L 0 3.5 
" id="me66b0aa878" style="stroke:#000000;stroke-width:0.8;"/>
      </defs>
      <g>
       <use style="stroke:#000000;stroke-width:0.8;" x="56.12" xlink:href="#me66b0aa878" y="294.88"/>
      </g>
     </g>
     <g id="text_1">
      <!-- 0 -->
      <defs>
       <path d="M 31.78125 66.40625 
Q 24.171875 66.40625 20.328125 58.90625 
Q 16.5 51.421875 16.5 36.375 
Q 16.5 21.390625 20.328125 13.890625 
Q 24.171875 6.390625 31.78125 6.390625 
Q 39.453125 6.390625 43.28125 13.890625 
Q 47.125 21.390625 47.125 36.375 
Q 47.125 51.421875 43.28125 58.90625 
Q 39.453125 66.40625 31.78125 66.40625 
z
M 31.78125 74.21875 
Q 44.046875 74.21875 50.515625 64.515625 
Q 56.984375 54.828125 56.984375 36.375 
Q 56.984375 17.96875 50.515625 8.265625 
Q 44.046875 -1.421875 31.78125 -1.421875 
Q 19.53125 -1.421875 13.0625 8.265625 
Q 6.59375 17.96875 6.59375 36.375 
Q 6.59375 54.828125 13.0625 64.515625 
Q 19.53125 74.21875 31.78125 74.21875 
z
" id="DejaVuSans-30"/>
      </defs>
      <g transform="translate(49.7575 317.076875)scale(0.2 -0.2)">
       <use xlink:href="#DejaVuSans-30"/>
      </g>
     </g>
    </g>
    <g id="xtick_2">
     <g id="line2d_3">
      <path clip-path="url(#pa2c4872290)" d="M 135.351336 294.88 
L 135.351336 24.84 
" style="fill:none;stroke:#b0b0b0;stroke-linecap:square;stroke-width:0.8;"/>
     </g>
     <g id="line2d_4">
      <g>
       <use style="stroke:#000000;stroke-width:0.8;" x="135.351336" xlink:href="#me66b0aa878" y="294.88"/>
      </g>
     </g>
     <g id="text_2">
      <!-- 2 -->
      <defs>
       <path d="M 19.1875 8.296875 
L 53.609375 8.296875 
L 53.609375 0 
L 7.328125 0 
L 7.328125 8.296875 
Q 12.9375 14.109375 22.625 23.890625 
Q 32.328125 33.6875 34.8125 36.53125 
Q 39.546875 41.84375 41.421875 45.53125 
Q 43.3125 49.21875 43.3125 52.78125 
Q 43.3125 58.59375 39.234375 62.25 
Q 35.15625 65.921875 28.609375 65.921875 
Q 23.96875 65.921875 18.8125 64.3125 
Q 13.671875 62.703125 7.8125 59.421875 
L 7.8125 69.390625 
Q 13.765625 71.78125 18.9375 73 
Q 24.125 74.21875 28.421875 74.21875 
Q 39.75 74.21875 46.484375 68.546875 
Q 53.21875 62.890625 53.21875 53.421875 
Q 53.21875 48.921875 51.53125 44.890625 
Q 49.859375 40.875 45.40625 35.40625 
Q 44.1875 33.984375 37.640625 27.21875 
Q 31.109375 20.453125 19.1875 8.296875 
z
" id="DejaVuSans-32"/>
      </defs>
      <g transform="translate(128.988836 317.076875)scale(0.2 -0.2)">
       <use xlink:href="#DejaVuSans-32"/>
      </g>
     </g>
    </g>
    <g id="xtick_3">
     <g id="line2d_5">
      <path clip-path="url(#pa2c4872290)" d="M 214.582673 294.88 
L 214.582673 24.84 
" style="fill:none;stroke:#b0b0b0;stroke-linecap:square;stroke-width:0.8;"/>
     </g>
     <g id="line2d_6">
      <g>
       <use style="stroke:#000000;stroke-width:0.8;" x="214.582673" xlink:href="#me66b0aa878" y="294.88"/>
      </g>
     </g>
     <g id="text_3">
      <!-- 4 -->
      <defs>
       <path d="M 37.796875 64.3125 
L 12.890625 25.390625 
L 37.796875 25.390625 
z
M 35.203125 72.90625 
L 47.609375 72.90625 
L 47.609375 25.390625 
L 58.015625 25.390625 
L 58.015625 17.1875 
L 47.609375 17.1875 
L 47.609375 0 
L 37.796875 0 
L 37.796875 17.1875 
L 4.890625 17.1875 
L 4.890625 26.703125 
z
" id="DejaVuSans-34"/>
      </defs>
      <g transform="translate(208.220173 317.076875)scale(0.2 -0.2)">
       <use xlink:href="#DejaVuSans-34"/>
      </g>
     </g>
    </g>
    <g id="xtick_4">
     <g id="line2d_7">
      <path clip-path="url(#pa2c4872290)" d="M 293.814009 294.88 
L 293.814009 24.84 
" style="fill:none;stroke:#b0b0b0;stroke-linecap:square;stroke-width:0.8;"/>
     </g>
     <g id="line2d_8">
      <g>
       <use style="stroke:#000000;stroke-width:0.8;" x="293.814009" xlink:href="#me66b0aa878" y="294.88"/>
      </g>
     </g>
     <g id="text_4">
      <!-- 6 -->
      <defs>
       <path d="M 33.015625 40.375 
Q 26.375 40.375 22.484375 35.828125 
Q 18.609375 31.296875 18.609375 23.390625 
Q 18.609375 15.53125 22.484375 10.953125 
Q 26.375 6.390625 33.015625 6.390625 
Q 39.65625 6.390625 43.53125 10.953125 
Q 47.40625 15.53125 47.40625 23.390625 
Q 47.40625 31.296875 43.53125 35.828125 
Q 39.65625 40.375 33.015625 40.375 
z
M 52.59375 71.296875 
L 52.59375 62.3125 
Q 48.875 64.0625 45.09375 64.984375 
Q 41.3125 65.921875 37.59375 65.921875 
Q 27.828125 65.921875 22.671875 59.328125 
Q 17.53125 52.734375 16.796875 39.40625 
Q 19.671875 43.65625 24.015625 45.921875 
Q 28.375 48.1875 33.59375 48.1875 
Q 44.578125 48.1875 50.953125 41.515625 
Q 57.328125 34.859375 57.328125 23.390625 
Q 57.328125 12.15625 50.6875 5.359375 
Q 44.046875 -1.421875 33.015625 -1.421875 
Q 20.359375 -1.421875 13.671875 8.265625 
Q 6.984375 17.96875 6.984375 36.375 
Q 6.984375 53.65625 15.1875 63.9375 
Q 23.390625 74.21875 37.203125 74.21875 
Q 40.921875 74.21875 44.703125 73.484375 
Q 48.484375 72.75 52.59375 71.296875 
z
" id="DejaVuSans-36"/>
      </defs>
      <g transform="translate(287.451509 317.076875)scale(0.2 -0.2)">
       <use xlink:href="#DejaVuSans-36"/>
      </g>
     </g>
    </g>
    <g id="xtick_5">
     <g id="line2d_9">
      <path clip-path="url(#pa2c4872290)" d="M 373.045346 294.88 
L 373.045346 24.84 
" style="fill:none;stroke:#b0b0b0;stroke-linecap:square;stroke-width:0.8;"/>
     </g>
     <g id="line2d_10">
      <g>
       <use style="stroke:#000000;stroke-width:0.8;" x="373.045346" xlink:href="#me66b0aa878" y="294.88"/>
      </g>
     </g>
     <g id="text_5">
      <!-- 8 -->
      <defs>
       <path d="M 31.78125 34.625 
Q 24.75 34.625 20.71875 30.859375 
Q 16.703125 27.09375 16.703125 20.515625 
Q 16.703125 13.921875 20.71875 10.15625 
Q 24.75 6.390625 31.78125 6.390625 
Q 38.8125 6.390625 42.859375 10.171875 
Q 46.921875 13.96875 46.921875 20.515625 
Q 46.921875 27.09375 42.890625 30.859375 
Q 38.875 34.625 31.78125 34.625 
z
M 21.921875 38.8125 
Q 15.578125 40.375 12.03125 44.71875 
Q 8.5 49.078125 8.5 55.328125 
Q 8.5 64.0625 14.71875 69.140625 
Q 20.953125 74.21875 31.78125 74.21875 
Q 42.671875 74.21875 48.875 69.140625 
Q 55.078125 64.0625 55.078125 55.328125 
Q 55.078125 49.078125 51.53125 44.71875 
Q 48 40.375 41.703125 38.8125 
Q 48.828125 37.15625 52.796875 32.3125 
Q 56.78125 27.484375 56.78125 20.515625 
Q 56.78125 9.90625 50.3125 4.234375 
Q 43.84375 -1.421875 31.78125 -1.421875 
Q 19.734375 -1.421875 13.25 4.234375 
Q 6.78125 9.90625 6.78125 20.515625 
Q 6.78125 27.484375 10.78125 32.3125 
Q 14.796875 37.15625 21.921875 38.8125 
z
M 18.3125 54.390625 
Q 18.3125 48.734375 21.84375 45.5625 
Q 25.390625 42.390625 31.78125 42.390625 
Q 38.140625 42.390625 41.71875 45.5625 
Q 45.3125 48.734375 45.3125 54.390625 
Q 45.3125 60.0625 41.71875 63.234375 
Q 38.140625 66.40625 31.78125 66.40625 
Q 25.390625 66.40625 21.84375 63.234375 
Q 18.3125 60.0625 18.3125 54.390625 
z
" id="DejaVuSans-38"/>
      </defs>
      <g transform="translate(366.682846 317.076875)scale(0.2 -0.2)">
       <use xlink:href="#DejaVuSans-38"/>
      </g>
     </g>
    </g>
    <g id="text_6">
     <!-- log10(# f-evals / dimension) -->
     <defs>
      <path d="M 9.421875 75.984375 
L 18.40625 75.984375 
L 18.40625 0 
L 9.421875 0 
z
" id="DejaVuSans-6c"/>
      <path d="M 30.609375 48.390625 
Q 23.390625 48.390625 19.1875 42.75 
Q 14.984375 37.109375 14.984375 27.296875 
Q 14.984375 17.484375 19.15625 11.84375 
Q 23.34375 6.203125 30.609375 6.203125 
Q 37.796875 6.203125 41.984375 11.859375 
Q 46.1875 17.53125 46.1875 27.296875 
Q 46.1875 37.015625 41.984375 42.703125 
Q 37.796875 48.390625 30.609375 48.390625 
z
M 30.609375 56 
Q 42.328125 56 49.015625 48.375 
Q 55.71875 40.765625 55.71875 27.296875 
Q 55.71875 13.875 49.015625 6.21875 
Q 42.328125 -1.421875 30.609375 -1.421875 
Q 18.84375 -1.421875 12.171875 6.21875 
Q 5.515625 13.875 5.515625 27.296875 
Q 5.515625 40.765625 12.171875 48.375 
Q 18.84375 56 30.609375 56 
z
" id="DejaVuSans-6f"/>
      <path d="M 45.40625 27.984375 
Q 45.40625 37.75 41.375 43.109375 
Q 37.359375 48.484375 30.078125 48.484375 
Q 22.859375 48.484375 18.828125 43.109375 
Q 14.796875 37.75 14.796875 27.984375 
Q 14.796875 18.265625 18.828125 12.890625 
Q 22.859375 7.515625 30.078125 7.515625 
Q 37.359375 7.515625 41.375 12.890625 
Q 45.40625 18.265625 45.40625 27.984375 
z
M 54.390625 6.78125 
Q 54.390625 -7.171875 48.1875 -13.984375 
Q 42 -20.796875 29.203125 -20.796875 
Q 24.46875 -20.796875 20.265625 -20.09375 
Q 16.0625 -19.390625 12.109375 -17.921875 
L 12.109375 -9.1875 
Q 16.0625 -11.328125 19.921875 -12.34375 
Q 23.78125 -13.375 27.78125 -13.375 
Q 36.625 -13.375 41.015625 -8.765625 
Q 45.40625 -4.15625 45.40625 5.171875 
L 45.40625 9.625 
Q 42.625 4.78125 38.28125 2.390625 
Q 33.9375 0 27.875 0 
Q 17.828125 0 11.671875 7.65625 
Q 5.515625 15.328125 5.515625 27.984375 
Q 5.515625 40.671875 11.671875 48.328125 
Q 17.828125 56 27.875 56 
Q 33.9375 56 38.28125 53.609375 
Q 42.625 51.21875 45.40625 46.390625 
L 45.40625 54.6875 
L 54.390625 54.6875 
z
" id="DejaVuSans-67"/>
      <path d="M 12.40625 8.296875 
L 28.515625 8.296875 
L 28.515625 63.921875 
L 10.984375 60.40625 
L 10.984375 69.390625 
L 28.421875 72.90625 
L 38.28125 72.90625 
L 38.28125 8.296875 
L 54.390625 8.296875 
L 54.390625 0 
L 12.40625 0 
z
" id="DejaVuSans-31"/>
      <path d="M 31 75.875 
Q 24.46875 64.65625 21.28125 53.65625 
Q 18.109375 42.671875 18.109375 31.390625 
Q 18.109375 20.125 21.3125 9.0625 
Q 24.515625 -2 31 -13.1875 
L 23.1875 -13.1875 
Q 15.875 -1.703125 12.234375 9.375 
Q 8.59375 20.453125 8.59375 31.390625 
Q 8.59375 42.28125 12.203125 53.3125 
Q 15.828125 64.359375 23.1875 75.875 
z
" id="DejaVuSans-28"/>
      <path d="M 51.125 44 
L 36.921875 44 
L 32.8125 27.6875 
L 47.125 27.6875 
z
M 43.796875 71.78125 
L 38.71875 51.515625 
L 52.984375 51.515625 
L 58.109375 71.78125 
L 65.921875 71.78125 
L 60.890625 51.515625 
L 76.125 51.515625 
L 76.125 44 
L 58.984375 44 
L 54.984375 27.6875 
L 70.515625 27.6875 
L 70.515625 20.21875 
L 53.078125 20.21875 
L 48 0 
L 40.1875 0 
L 45.21875 20.21875 
L 30.90625 20.21875 
L 25.875 0 
L 18.015625 0 
L 23.09375 20.21875 
L 7.71875 20.21875 
L 7.71875 27.6875 
L 24.90625 27.6875 
L 29 44 
L 13.28125 44 
L 13.28125 51.515625 
L 30.90625 51.515625 
L 35.890625 71.78125 
z
" id="DejaVuSans-23"/>
      <path id="DejaVuSans-20"/>
      <path d="M 37.109375 75.984375 
L 37.109375 68.5 
L 28.515625 68.5 
Q 23.6875 68.5 21.796875 66.546875 
Q 19.921875 64.59375 19.921875 59.515625 
L 19.921875 54.6875 
L 34.71875 54.6875 
L 34.71875 47.703125 
L 19.921875 47.703125 
L 19.921875 0 
L 10.890625 0 
L 10.890625 47.703125 
L 2.296875 47.703125 
L 2.296875 54.6875 
L 10.890625 54.6875 
L 10.890625 58.5 
Q 10.890625 67.625 15.140625 71.796875 
Q 19.390625 75.984375 28.609375 75.984375 
z
" id="DejaVuSans-66"/>
      <path d="M 4.890625 31.390625 
L 31.203125 31.390625 
L 31.203125 23.390625 
L 4.890625 23.390625 
z
" id="DejaVuSans-2d"/>
      <path d="M 56.203125 29.59375 
L 56.203125 25.203125 
L 14.890625 25.203125 
Q 15.484375 15.921875 20.484375 11.0625 
Q 25.484375 6.203125 34.421875 6.203125 
Q 39.59375 6.203125 44.453125 7.46875 
Q 49.3125 8.734375 54.109375 11.28125 
L 54.109375 2.78125 
Q 49.265625 0.734375 44.1875 -0.34375 
Q 39.109375 -1.421875 33.890625 -1.421875 
Q 20.796875 -1.421875 13.15625 6.1875 
Q 5.515625 13.8125 5.515625 26.8125 
Q 5.515625 40.234375 12.765625 48.109375 
Q 20.015625 56 32.328125 56 
Q 43.359375 56 49.78125 48.890625 
Q 56.203125 41.796875 56.203125 29.59375 
z
M 47.21875 32.234375 
Q 47.125 39.59375 43.09375 43.984375 
Q 39.0625 48.390625 32.421875 48.390625 
Q 24.90625 48.390625 20.390625 44.140625 
Q 15.875 39.890625 15.1875 32.171875 
z
" id="DejaVuSans-65"/>
      <path d="M 2.984375 54.6875 
L 12.5 54.6875 
L 29.59375 8.796875 
L 46.6875 54.6875 
L 56.203125 54.6875 
L 35.6875 0 
L 23.484375 0 
z
" id="DejaVuSans-76"/>
      <path d="M 34.28125 27.484375 
Q 23.390625 27.484375 19.1875 25 
Q 14.984375 22.515625 14.984375 16.5 
Q 14.984375 11.71875 18.140625 8.90625 
Q 21.296875 6.109375 26.703125 6.109375 
Q 34.1875 6.109375 38.703125 11.40625 
Q 43.21875 16.703125 43.21875 25.484375 
L 43.21875 27.484375 
z
M 52.203125 31.203125 
L 52.203125 0 
L 43.21875 0 
L 43.21875 8.296875 
Q 40.140625 3.328125 35.546875 0.953125 
Q 30.953125 -1.421875 24.3125 -1.421875 
Q 15.921875 -1.421875 10.953125 3.296875 
Q 6 8.015625 6 15.921875 
Q 6 25.140625 12.171875 29.828125 
Q 18.359375 34.515625 30.609375 34.515625 
L 43.21875 34.515625 
L 43.21875 35.40625 
Q 43.21875 41.609375 39.140625 45 
Q 35.0625 48.390625 27.6875 48.390625 
Q 23 48.390625 18.546875 47.265625 
Q 14.109375 46.140625 10.015625 43.890625 
L 10.015625 52.203125 
Q 14.9375 54.109375 19.578125 55.046875 
Q 24.21875 56 28.609375 56 
Q 40.484375 56 46.34375 49.84375 
Q 52.203125 43.703125 52.203125 31.203125 
z
" id="DejaVuSans-61"/>
      <path d="M 44.28125 53.078125 
L 44.28125 44.578125 
Q 40.484375 46.53125 36.375 47.5 
Q 32.28125 48.484375 27.875 48.484375 
Q 21.1875 48.484375 17.84375 46.4375 
Q 14.5 44.390625 14.5 40.28125 
Q 14.5 37.15625 16.890625 35.375 
Q 19.28125 33.59375 26.515625 31.984375 
L 29.59375 31.296875 
Q 39.15625 29.25 43.1875 25.515625 
Q 47.21875 21.78125 47.21875 15.09375 
Q 47.21875 7.46875 41.1875 3.015625 
Q 35.15625 -1.421875 24.609375 -1.421875 
Q 20.21875 -1.421875 15.453125 -0.5625 
Q 10.6875 0.296875 5.421875 2 
L 5.421875 11.28125 
Q 10.40625 8.6875 15.234375 7.390625 
Q 20.0625 6.109375 24.8125 6.109375 
Q 31.15625 6.109375 34.5625 8.28125 
Q 37.984375 10.453125 37.984375 14.40625 
Q 37.984375 18.0625 35.515625 20.015625 
Q 33.0625 21.96875 24.703125 23.78125 
L 21.578125 24.515625 
Q 13.234375 26.265625 9.515625 29.90625 
Q 5.8125 33.546875 5.8125 39.890625 
Q 5.8125 47.609375 11.28125 51.796875 
Q 16.75 56 26.8125 56 
Q 31.78125 56 36.171875 55.265625 
Q 40.578125 54.546875 44.28125 53.078125 
z
" id="DejaVuSans-73"/>
      <path d="M 25.390625 72.90625 
L 33.6875 72.90625 
L 8.296875 -9.28125 
L 0 -9.28125 
z
" id="DejaVuSans-2f"/>
      <path d="M 45.40625 46.390625 
L 45.40625 75.984375 
L 54.390625 75.984375 
L 54.390625 0 
L 45.40625 0 
L 45.40625 8.203125 
Q 42.578125 3.328125 38.25 0.953125 
Q 33.9375 -1.421875 27.875 -1.421875 
Q 17.96875 -1.421875 11.734375 6.484375 
Q 5.515625 14.40625 5.515625 27.296875 
Q 5.515625 40.1875 11.734375 48.09375 
Q 17.96875 56 27.875 56 
Q 33.9375 56 38.25 53.625 
Q 42.578125 51.265625 45.40625 46.390625 
z
M 14.796875 27.296875 
Q 14.796875 17.390625 18.875 11.75 
Q 22.953125 6.109375 30.078125 6.109375 
Q 37.203125 6.109375 41.296875 11.75 
Q 45.40625 17.390625 45.40625 27.296875 
Q 45.40625 37.203125 41.296875 42.84375 
Q 37.203125 48.484375 30.078125 48.484375 
Q 22.953125 48.484375 18.875 42.84375 
Q 14.796875 37.203125 14.796875 27.296875 
z
" id="DejaVuSans-64"/>
      <path d="M 9.421875 54.6875 
L 18.40625 54.6875 
L 18.40625 0 
L 9.421875 0 
z
M 9.421875 75.984375 
L 18.40625 75.984375 
L 18.40625 64.59375 
L 9.421875 64.59375 
z
" id="DejaVuSans-69"/>
      <path d="M 52 44.1875 
Q 55.375 50.25 60.0625 53.125 
Q 64.75 56 71.09375 56 
Q 79.640625 56 84.28125 50.015625 
Q 88.921875 44.046875 88.921875 33.015625 
L 88.921875 0 
L 79.890625 0 
L 79.890625 32.71875 
Q 79.890625 40.578125 77.09375 44.375 
Q 74.3125 48.1875 68.609375 48.1875 
Q 61.625 48.1875 57.5625 43.546875 
Q 53.515625 38.921875 53.515625 30.90625 
L 53.515625 0 
L 44.484375 0 
L 44.484375 32.71875 
Q 44.484375 40.625 41.703125 44.40625 
Q 38.921875 48.1875 33.109375 48.1875 
Q 26.21875 48.1875 22.15625 43.53125 
Q 18.109375 38.875 18.109375 30.90625 
L 18.109375 0 
L 9.078125 0 
L 9.078125 54.6875 
L 18.109375 54.6875 
L 18.109375 46.1875 
Q 21.1875 51.21875 25.484375 53.609375 
Q 29.78125 56 35.6875 56 
Q 41.65625 56 45.828125 52.96875 
Q 50 49.953125 52 44.1875 
z
" id="DejaVuSans-6d"/>
      <path d="M 54.890625 33.015625 
L 54.890625 0 
L 45.90625 0 
L 45.90625 32.71875 
Q 45.90625 40.484375 42.875 44.328125 
Q 39.84375 48.1875 33.796875 48.1875 
Q 26.515625 48.1875 22.3125 43.546875 
Q 18.109375 38.921875 18.109375 30.90625 
L 18.109375 0 
L 9.078125 0 
L 9.078125 54.6875 
L 18.109375 54.6875 
L 18.109375 46.1875 
Q 21.34375 51.125 25.703125 53.5625 
Q 30.078125 56 35.796875 56 
Q 45.21875 56 50.046875 50.171875 
Q 54.890625 44.34375 54.890625 33.015625 
z
" id="DejaVuSans-6e"/>
      <path d="M 8.015625 75.875 
L 15.828125 75.875 
Q 23.140625 64.359375 26.78125 53.3125 
Q 30.421875 42.28125 30.421875 31.390625 
Q 30.421875 20.453125 26.78125 9.375 
Q 23.140625 -1.703125 15.828125 -13.1875 
L 8.015625 -13.1875 
Q 14.5 -2 17.703125 9.0625 
Q 20.90625 20.125 20.90625 31.390625 
Q 20.90625 42.671875 17.703125 53.65625 
Q 14.5 64.65625 8.015625 75.875 
z
" id="DejaVuSans-29"/>
     </defs>
     <g transform="translate(107.211219 338.153594)scale(0.17 -0.17)">
      <use xlink:href="#DejaVuSans-6c"/>
      <use x="27.783203" xlink:href="#DejaVuSans-6f"/>
      <use x="88.964844" xlink:href="#DejaVuSans-67"/>
      <use x="152.441406" xlink:href="#DejaVuSans-31"/>
      <use x="216.064453" xlink:href="#DejaVuSans-30"/>
      <use x="279.6875" xlink:href="#DejaVuSans-28"/>
      <use x="318.701172" xlink:href="#DejaVuSans-23"/>
      <use x="402.490234" xlink:href="#DejaVuSans-20"/>
      <use x="434.277344" xlink:href="#DejaVuSans-66"/>
      <use x="469.404297" xlink:href="#DejaVuSans-2d"/>
      <use x="505.488281" xlink:href="#DejaVuSans-65"/>
      <use x="567.011719" xlink:href="#DejaVuSans-76"/>
      <use x="626.191406" xlink:href="#DejaVuSans-61"/>
      <use x="687.470703" xlink:href="#DejaVuSans-6c"/>
      <use x="715.253906" xlink:href="#DejaVuSans-73"/>
      <use x="767.353516" xlink:href="#DejaVuSans-20"/>
      <use x="799.140625" xlink:href="#DejaVuSans-2f"/>
      <use x="832.832031" xlink:href="#DejaVuSans-20"/>
      <use x="864.619141" xlink:href="#DejaVuSans-64"/>
      <use x="928.095703" xlink:href="#DejaVuSans-69"/>
      <use x="955.878906" xlink:href="#DejaVuSans-6d"/>
      <use x="1053.291016" xlink:href="#DejaVuSans-65"/>
      <use x="1114.814453" xlink:href="#DejaVuSans-6e"/>
      <use x="1178.193359" xlink:href="#DejaVuSans-73"/>
      <use x="1230.292969" xlink:href="#DejaVuSans-69"/>
      <use x="1258.076172" xlink:href="#DejaVuSans-6f"/>
      <use x="1319.257812" xlink:href="#DejaVuSans-6e"/>
      <use x="1382.636719" xlink:href="#DejaVuSans-29"/>
     </g>
    </g>
   </g>
   <g id="matplotlib.axis_2">
    <g id="ytick_1">
     <g id="line2d_11">
      <path clip-path="url(#pa2c4872290)" d="M 56.12 294.88 
L 399.984 294.88 
" style="fill:none;stroke:#b0b0b0;stroke-linecap:square;stroke-width:0.8;"/>
     </g>
     <g id="line2d_12">
      <defs>
       <path d="M 0 0 
L -3.5 0 
" id="m141751d706" style="stroke:#000000;stroke-width:0.8;"/>
      </defs>
      <g>
       <use style="stroke:#000000;stroke-width:0.8;" x="56.12" xlink:href="#m141751d706" y="294.88"/>
      </g>
     </g>
     <g id="text_7">
      <!-- 0.0 -->
      <defs>
       <path d="M 10.6875 12.40625 
L 21 12.40625 
L 21 0 
L 10.6875 0 
z
" id="DejaVuSans-2e"/>
      </defs>
      <g transform="translate(23.675 300.95875)scale(0.16 -0.16)">
       <use xlink:href="#DejaVuSans-30"/>
       <use x="63.623047" xlink:href="#DejaVuSans-2e"/>
       <use x="95.410156" xlink:href="#DejaVuSans-30"/>
      </g>
     </g>
    </g>
    <g id="ytick_2">
     <g id="line2d_13">
      <path clip-path="url(#pa2c4872290)" d="M 56.12 241.406733 
L 399.984 241.406733 
" style="fill:none;stroke:#b0b0b0;stroke-linecap:square;stroke-width:0.8;"/>
     </g>
     <g id="line2d_14">
      <g>
       <use style="stroke:#000000;stroke-width:0.8;" x="56.12" xlink:href="#m141751d706" y="241.406733"/>
      </g>
     </g>
     <g id="text_8">
      <!-- 0.2 -->
      <g transform="translate(23.675 247.485483)scale(0.16 -0.16)">
       <use xlink:href="#DejaVuSans-30"/>
       <use x="63.623047" xlink:href="#DejaVuSans-2e"/>
       <use x="95.410156" xlink:href="#DejaVuSans-32"/>
      </g>
     </g>
    </g>
    <g id="ytick_3">
     <g id="line2d_15">
      <path clip-path="url(#pa2c4872290)" d="M 56.12 187.933465 
L 399.984 187.933465 
" style="fill:none;stroke:#b0b0b0;stroke-linecap:square;stroke-width:0.8;"/>
     </g>
     <g id="line2d_16">
      <g>
       <use style="stroke:#000000;stroke-width:0.8;" x="56.12" xlink:href="#m141751d706" y="187.933465"/>
      </g>
     </g>
     <g id="text_9">
      <!-- 0.4 -->
      <g transform="translate(23.675 194.012215)scale(0.16 -0.16)">
       <use xlink:href="#DejaVuSans-30"/>
       <use x="63.623047" xlink:href="#DejaVuSans-2e"/>
       <use x="95.410156" xlink:href="#DejaVuSans-34"/>
      </g>
     </g>
    </g>
    <g id="ytick_4">
     <g id="line2d_17">
      <path clip-path="url(#pa2c4872290)" d="M 56.12 134.460198 
L 399.984 134.460198 
" style="fill:none;stroke:#b0b0b0;stroke-linecap:square;stroke-width:0.8;"/>
     </g>
     <g id="line2d_18">
      <g>
       <use style="stroke:#000000;stroke-width:0.8;" x="56.12" xlink:href="#m141751d706" y="134.460198"/>
      </g>
     </g>
     <g id="text_10">
      <!-- 0.6 -->
      <g transform="translate(23.675 140.538948)scale(0.16 -0.16)">
       <use xlink:href="#DejaVuSans-30"/>
       <use x="63.623047" xlink:href="#DejaVuSans-2e"/>
       <use x="95.410156" xlink:href="#DejaVuSans-36"/>
      </g>
     </g>
    </g>
    <g id="ytick_5">
     <g id="line2d_19">
      <path clip-path="url(#pa2c4872290)" d="M 56.12 80.986931 
L 399.984 80.986931 
" style="fill:none;stroke:#b0b0b0;stroke-linecap:square;stroke-width:0.8;"/>
     </g>
     <g id="line2d_20">
      <g>
       <use style="stroke:#000000;stroke-width:0.8;" x="56.12" xlink:href="#m141751d706" y="80.986931"/>
      </g>
     </g>
     <g id="text_11">
      <!-- 0.8 -->
      <g transform="translate(23.675 87.065681)scale(0.16 -0.16)">
       <use xlink:href="#DejaVuSans-30"/>
       <use x="63.623047" xlink:href="#DejaVuSans-2e"/>
       <use x="95.410156" xlink:href="#DejaVuSans-38"/>
      </g>
     </g>
    </g>
    <g id="ytick_6">
     <g id="line2d_21">
      <path clip-path="url(#pa2c4872290)" d="M 56.12 27.513663 
L 399.984 27.513663 
" style="fill:none;stroke:#b0b0b0;stroke-linecap:square;stroke-width:0.8;"/>
     </g>
     <g id="line2d_22">
      <g>
       <use style="stroke:#000000;stroke-width:0.8;" x="56.12" xlink:href="#m141751d706" y="27.513663"/>
      </g>
     </g>
     <g id="text_12">
      <!-- 1.0 -->
      <g transform="translate(23.675 33.592413)scale(0.16 -0.16)">
       <use xlink:href="#DejaVuSans-31"/>
       <use x="63.623047" xlink:href="#DejaVuSans-2e"/>
       <use x="95.410156" xlink:href="#DejaVuSans-30"/>
      </g>
     </g>
    </g>
    <g id="text_13">
     <!-- Fraction of function,target pairs -->
     <defs>
      <path d="M 9.8125 72.90625 
L 51.703125 72.90625 
L 51.703125 64.59375 
L 19.671875 64.59375 
L 19.671875 43.109375 
L 48.578125 43.109375 
L 48.578125 34.8125 
L 19.671875 34.8125 
L 19.671875 0 
L 9.8125 0 
z
" id="DejaVuSans-46"/>
      <path d="M 41.109375 46.296875 
Q 39.59375 47.171875 37.8125 47.578125 
Q 36.03125 48 33.890625 48 
Q 26.265625 48 22.1875 43.046875 
Q 18.109375 38.09375 18.109375 28.8125 
L 18.109375 0 
L 9.078125 0 
L 9.078125 54.6875 
L 18.109375 54.6875 
L 18.109375 46.1875 
Q 20.953125 51.171875 25.484375 53.578125 
Q 30.03125 56 36.53125 56 
Q 37.453125 56 38.578125 55.875 
Q 39.703125 55.765625 41.0625 55.515625 
z
" id="DejaVuSans-72"/>
      <path d="M 48.78125 52.59375 
L 48.78125 44.1875 
Q 44.96875 46.296875 41.140625 47.34375 
Q 37.3125 48.390625 33.40625 48.390625 
Q 24.65625 48.390625 19.8125 42.84375 
Q 14.984375 37.3125 14.984375 27.296875 
Q 14.984375 17.28125 19.8125 11.734375 
Q 24.65625 6.203125 33.40625 6.203125 
Q 37.3125 6.203125 41.140625 7.25 
Q 44.96875 8.296875 48.78125 10.40625 
L 48.78125 2.09375 
Q 45.015625 0.34375 40.984375 -0.53125 
Q 36.96875 -1.421875 32.421875 -1.421875 
Q 20.0625 -1.421875 12.78125 6.34375 
Q 5.515625 14.109375 5.515625 27.296875 
Q 5.515625 40.671875 12.859375 48.328125 
Q 20.21875 56 33.015625 56 
Q 37.15625 56 41.109375 55.140625 
Q 45.0625 54.296875 48.78125 52.59375 
z
" id="DejaVuSans-63"/>
      <path d="M 18.3125 70.21875 
L 18.3125 54.6875 
L 36.8125 54.6875 
L 36.8125 47.703125 
L 18.3125 47.703125 
L 18.3125 18.015625 
Q 18.3125 11.328125 20.140625 9.421875 
Q 21.96875 7.515625 27.59375 7.515625 
L 36.8125 7.515625 
L 36.8125 0 
L 27.59375 0 
Q 17.1875 0 13.234375 3.875 
Q 9.28125 7.765625 9.28125 18.015625 
L 9.28125 47.703125 
L 2.6875 47.703125 
L 2.6875 54.6875 
L 9.28125 54.6875 
L 9.28125 70.21875 
z
" id="DejaVuSans-74"/>
      <path d="M 8.5 21.578125 
L 8.5 54.6875 
L 17.484375 54.6875 
L 17.484375 21.921875 
Q 17.484375 14.15625 20.5 10.265625 
Q 23.53125 6.390625 29.59375 6.390625 
Q 36.859375 6.390625 41.078125 11.03125 
Q 45.3125 15.671875 45.3125 23.6875 
L 45.3125 54.6875 
L 54.296875 54.6875 
L 54.296875 0 
L 45.3125 0 
L 45.3125 8.40625 
Q 42.046875 3.421875 37.71875 1 
Q 33.40625 -1.421875 27.6875 -1.421875 
Q 18.265625 -1.421875 13.375 4.4375 
Q 8.5 10.296875 8.5 21.578125 
z
M 31.109375 56 
z
" id="DejaVuSans-75"/>
      <path d="M 11.71875 12.40625 
L 22.015625 12.40625 
L 22.015625 4 
L 14.015625 -11.625 
L 7.71875 -11.625 
L 11.71875 4 
z
" id="DejaVuSans-2c"/>
      <path d="M 18.109375 8.203125 
L 18.109375 -20.796875 
L 9.078125 -20.796875 
L 9.078125 54.6875 
L 18.109375 54.6875 
L 18.109375 46.390625 
Q 20.953125 51.265625 25.265625 53.625 
Q 29.59375 56 35.59375 56 
Q 45.5625 56 51.78125 48.09375 
Q 58.015625 40.1875 58.015625 27.296875 
Q 58.015625 14.40625 51.78125 6.484375 
Q 45.5625 -1.421875 35.59375 -1.421875 
Q 29.59375 -1.421875 25.265625 0.953125 
Q 20.953125 3.328125 18.109375 8.203125 
z
M 48.6875 27.296875 
Q 48.6875 37.203125 44.609375 42.84375 
Q 40.53125 48.484375 33.40625 48.484375 
Q 26.265625 48.484375 22.1875 42.84375 
Q 18.109375 37.203125 18.109375 27.296875 
Q 18.109375 17.390625 22.1875 11.75 
Q 26.265625 6.109375 33.40625 6.109375 
Q 40.53125 6.109375 44.609375 11.75 
Q 48.6875 17.390625 48.6875 27.296875 
z
" id="DejaVuSans-70"/>
     </defs>
     <g transform="translate(16.139531 294.999375)rotate(-90)scale(0.17 -0.17)">
      <use xlink:href="#DejaVuSans-46"/>
      <use x="57.410156" xlink:href="#DejaVuSans-72"/>
      <use x="98.523438" xlink:href="#DejaVuSans-61"/>
      <use x="159.802734" xlink:href="#DejaVuSans-63"/>
      <use x="214.783203" xlink:href="#DejaVuSans-74"/>
      <use x="253.992188" xlink:href="#DejaVuSans-69"/>
      <use x="281.775391" xlink:href="#DejaVuSans-6f"/>
      <use x="342.957031" xlink:href="#DejaVuSans-6e"/>
      <use x="406.335938" xlink:href="#DejaVuSans-20"/>
      <use x="438.123047" xlink:href="#DejaVuSans-6f"/>
      <use x="499.304688" xlink:href="#DejaVuSans-66"/>
      <use x="534.509766" xlink:href="#DejaVuSans-20"/>
      <use x="566.296875" xlink:href="#DejaVuSans-66"/>
      <use x="601.501953" xlink:href="#DejaVuSans-75"/>
      <use x="664.880859" xlink:href="#DejaVuSans-6e"/>
      <use x="728.259766" xlink:href="#DejaVuSans-63"/>
      <use x="783.240234" xlink:href="#DejaVuSans-74"/>
      <use x="822.449219" xlink:href="#DejaVuSans-69"/>
      <use x="850.232422" xlink:href="#DejaVuSans-6f"/>
      <use x="911.414062" xlink:href="#DejaVuSans-6e"/>
      <use x="974.792969" xlink:href="#DejaVuSans-2c"/>
      <use x="1006.580078" xlink:href="#DejaVuSans-74"/>
      <use x="1045.789062" xlink:href="#DejaVuSans-61"/>
      <use x="1107.068359" xlink:href="#DejaVuSans-72"/>
      <use x="1148.166016" xlink:href="#DejaVuSans-67"/>
      <use x="1211.642578" xlink:href="#DejaVuSans-65"/>
      <use x="1273.166016" xlink:href="#DejaVuSans-74"/>
      <use x="1312.375" xlink:href="#DejaVuSans-20"/>
      <use x="1344.162109" xlink:href="#DejaVuSans-70"/>
      <use x="1407.638672" xlink:href="#DejaVuSans-61"/>
      <use x="1468.917969" xlink:href="#DejaVuSans-69"/>
      <use x="1496.701172" xlink:href="#DejaVuSans-72"/>
      <use x="1537.814453" xlink:href="#DejaVuSans-73"/>
     </g>
    </g>
   </g>
   <g id="line2d_23">
    <defs>
     <path d="M 0 1.5 
C 0.397805 1.5 0.77937 1.341951 1.06066 1.06066 
C 1.341951 0.77937 1.5 0.397805 1.5 0 
C 1.5 -0.397805 1.341951 -0.77937 1.06066 -1.06066 
C 0.77937 -1.341951 0.397805 -1.5 0 -1.5 
C -0.397805 -1.5 -0.77937 -1.341951 -1.06066 -1.06066 
C -1.341951 -0.77937 -1.5 -0.397805 -1.5 0 
C -1.5 0.397805 -1.341951 0.77937 -1.06066 1.06066 
C -0.77937 1.341951 -0.397805 1.5 0 1.5 
z
" id="m40c97e0bb9" style="stroke:#00bfbf;"/>
    </defs>
    <g>
     <use style="fill:#00bfbf;stroke:#00bfbf;" x="347.386705" xlink:href="#m40c97e0bb9" y="27.513663"/>
     <use style="fill:#00bfbf;stroke:#00bfbf;" x="347.386705" xlink:href="#m40c97e0bb9" y="27.513663"/>
    </g>
   </g>
   <g id="line2d_24">
    <path d="M 56.12 294.88 
L 56.12 283.34655 
L 68.045504 283.34655 
L 68.045504 278.628321 
L 75.021477 278.628321 
L 75.021477 276.007082 
L 79.971009 276.007082 
L 79.971009 275.482834 
L 83.810164 275.482834 
L 83.810164 274.958587 
L 86.946982 274.958587 
L 86.946982 273.385844 
L 89.599124 273.385844 
L 89.599124 272.861596 
L 91.896513 272.861596 
L 91.896513 271.8131 
L 102.711641 271.8131 
L 102.711641 270.764605 
L 107.661173 270.764605 
L 107.661173 269.191862 
L 109.300972 269.191862 
L 109.300972 268.143366 
L 117.289287 268.143366 
L 117.289287 266.046375 
L 118.245359 266.046375 
L 118.245359 265.522128 
L 122.723495 265.522128 
L 122.723495 263.949385 
L 125.979378 263.949385 
L 125.979378 263.425137 
L 129.214792 263.425137 
L 129.214792 262.900889 
L 136.353845 262.900889 
L 136.353845 262.376641 
L 136.515394 262.376641 
L 136.515394 261.852394 
L 138.772539 261.852394 
L 138.772539 260.279651 
L 141.262751 260.279651 
L 141.262751 259.755403 
L 142.441628 259.755403 
L 142.441628 257.658412 
L 147.532997 257.658412 
L 147.617542 255.561421 
L 150.341822 255.561421 
L 150.341822 253.46443 
L 153.249158 253.46443 
L 153.249158 252.940182 
L 154.195368 252.940182 
L 154.195368 252.415935 
L 155.523735 252.415935 
L 155.523735 250.843192 
L 165.11376 250.843192 
L 165.11376 250.318944 
L 166.797873 250.318944 
L 166.797873 248.221953 
L 171.170808 248.221953 
L 171.170808 247.697705 
L 173.249609 247.697705 
L 173.249609 247.173458 
L 173.865801 247.173458 
L 173.865801 246.64921 
L 174.584272 246.64921 
L 174.584272 246.124962 
L 176.370577 246.124962 
L 176.370577 244.552219 
L 178.146781 244.552219 
L 178.146781 242.979476 
L 179.361422 242.979476 
L 179.361422 240.882485 
L 180.669724 240.882485 
L 180.768249 239.309742 
L 180.939322 239.309742 
L 180.939322 237.736999 
L 182.584646 237.736999 
L 182.584646 236.688503 
L 183.831226 236.688503 
L 183.831226 234.591512 
L 184.015237 234.591512 
L 184.015237 234.067265 
L 185.117986 234.067265 
L 185.117986 233.543017 
L 186.728281 233.543017 
L 186.728281 232.494521 
L 187.37599 232.494521 
L 187.37599 230.397531 
L 188.232537 230.397531 
L 188.232537 229.873283 
L 190.419155 229.873283 
L 190.496072 228.30054 
L 190.766039 228.30054 
L 190.766039 227.776292 
L 191.139704 227.776292 
L 191.139704 227.252044 
L 191.413067 227.252044 
L 191.413067 226.727797 
L 192.119372 226.727797 
L 192.132065 225.679301 
L 192.415201 225.679301 
L 192.415201 225.155053 
L 192.961824 225.155053 
L 192.961824 224.630806 
L 193.237683 224.630806 
L 193.237683 224.106558 
L 193.515044 224.106558 
L 193.515044 223.058063 
L 194.20356 223.058063 
L 194.20356 220.436824 
L 194.410412 220.436824 
L 194.410412 219.912576 
L 194.603821 219.912576 
L 194.603821 218.339833 
L 194.989608 218.339833 
L 194.989608 215.194347 
L 197.033951 215.194347 
L 197.033951 209.427622 
L 197.652493 209.427622 
L 197.652493 205.757888 
L 198.218419 205.757888 
L 198.218419 204.709392 
L 198.597241 204.709392 
L 198.658128 203.136649 
L 198.938028 203.136649 
L 198.938028 202.612401 
L 199.057211 202.612401 
L 199.057211 202.088154 
L 200.578603 202.088154 
L 200.578603 197.369924 
L 200.698552 197.369924 
L 200.698552 196.845677 
L 202.161478 196.845677 
L 202.161478 196.321429 
L 203.437507 196.321429 
L 203.437507 195.797181 
L 203.672657 195.797181 
L 203.672657 195.272933 
L 204.829802 195.272933 
L 204.829802 192.651695 
L 205.516482 192.651695 
L 205.516482 190.554704 
L 207.496235 190.554704 
L 207.496235 189.506209 
L 207.820428 189.506209 
L 207.820428 188.457713 
L 208.573463 188.457713 
L 208.573463 187.933465 
L 209.617076 187.933465 
L 209.617076 187.409218 
L 210.444144 187.409218 
L 210.444144 186.360722 
L 212.214351 186.360722 
L 212.214351 185.312227 
L 213.172397 185.312227 
L 213.172397 181.118245 
L 215.214394 181.118245 
L 215.214394 180.06975 
L 215.640279 180.06975 
L 215.727425 176.924263 
L 215.944968 176.924263 
L 215.944968 175.35152 
L 216.36732 175.35152 
L 216.36732 174.303025 
L 218.032057 174.303025 
L 218.032057 173.254529 
L 281.987748 173.254529 
L 282.090487 165.390813 
L 282.114955 165.390813 
L 282.202653 154.905859 
L 282.237115 154.905859 
L 282.303952 143.372409 
L 293.863711 143.372409 
L 293.971809 131.314712 
L 293.989206 131.314712 
L 294.027312 121.354005 
L 300.825874 121.354005 
L 300.921537 104.578078 
L 305.770523 104.578078 
L 305.844333 93.568876 
L 309.604391 93.568876 
L 309.664318 84.132417 
L 312.733451 84.132417 
L 312.786893 73.647463 
L 315.393345 73.647463 
L 315.42761 67.35649 
L 317.693503 67.35649 
L 317.718605 58.968526 
L 319.705762 58.968526 
L 319.738134 53.201802 
L 321.524494 53.201802 
L 321.547059 50.056315 
L 323.164698 50.056315 
L 323.182965 46.386581 
L 324.664422 46.386581 
L 324.67674 42.716847 
L 326.045569 42.716847 
L 326.047469 40.095609 
L 327.312463 40.095609 
L 327.314554 38.522865 
L 328.505591 38.522865 
L 328.505591 37.998618 
L 329.613802 37.998618 
L 329.613802 36.950122 
L 330.649484 36.950122 
L 330.655198 33.804636 
L 331.631299 33.804636 
L 331.631299 33.280388 
L 332.569317 33.280388 
L 332.569317 32.756141 
L 333.429677 32.756141 
L 333.429677 32.756141 
" style="fill:none;stroke:#00bfbf;stroke-linecap:square;stroke-width:1.5;"/>
   </g>
   <g id="line2d_25">
    <defs>
     <path d="M -6 0 
L 6 0 
M 0 6 
L 0 -6 
" id="m6fa3955092" style="stroke:#00bfbf;stroke-width:1.5;"/>
    </defs>
    <g>
     <use style="fill-opacity:0;stroke:#00bfbf;stroke-width:1.5;" x="155.523735" xlink:href="#m6fa3955092" y="250.843192"/>
     <use style="fill-opacity:0;stroke:#00bfbf;stroke-width:1.5;" x="212.214351" xlink:href="#m6fa3955092" y="185.312227"/>
     <use style="fill-opacity:0;stroke:#00bfbf;stroke-width:1.5;" x="309.649931" xlink:href="#m6fa3955092" y="88.850646"/>
     <use style="fill-opacity:0;stroke:#00bfbf;stroke-width:1.5;" x="332.569317" xlink:href="#m6fa3955092" y="32.756141"/>
     <use style="fill-opacity:0;stroke:#00bfbf;stroke-width:1.5;" x="333.429677" xlink:href="#m6fa3955092" y="32.756141"/>
    </g>
   </g>
   <g id="line2d_26">
    <path style="fill:none;stroke:#00bfbf;stroke-linecap:square;stroke-width:1.5;"/>
    <g/>
   </g>
   <g id="line2d_27">
    <path clip-path="url(#pa2c4872290)" d="M 281.888522 173.254529 
" style="fill:none;stroke:#00bfbf;stroke-linecap:square;stroke-width:1.5;"/>
    <defs>
     <path d="M -12 12 
L 12 -12 
M -12 -12 
L 12 12 
" id="mf4881f4de1" style="stroke:#00bfbf;stroke-width:3;"/>
    </defs>
    <g clip-path="url(#pa2c4872290)">
     <use style="fill:#00bfbf;stroke:#00bfbf;stroke-width:3;" x="281.888522" xlink:href="#mf4881f4de1" y="173.254529"/>
    </g>
   </g>
   <g id="line2d_28">
    <defs>
     <path d="M 0 1.5 
C 0.397805 1.5 0.77937 1.341951 1.06066 1.06066 
C 1.341951 0.77937 1.5 0.397805 1.5 0 
C 1.5 -0.397805 1.341951 -0.77937 1.06066 -1.06066 
C 0.77937 -1.341951 0.397805 -1.5 0 -1.5 
C -0.397805 -1.5 -0.77937 -1.341951 -1.06066 -1.06066 
C -1.341951 -0.77937 -1.5 -0.397805 -1.5 0 
C -1.5 0.397805 -1.341951 0.77937 -1.06066 1.06066 
C -0.77937 1.341951 -0.397805 1.5 0 1.5 
z
" id="m85b1505f6a" style="stroke:#008000;"/>
    </defs>
    <g>
     <use style="fill:#008000;stroke:#008000;" x="327.316718" xlink:href="#m85b1505f6a" y="27.513663"/>
     <use style="fill:#008000;stroke:#008000;" x="327.316718" xlink:href="#m85b1505f6a" y="27.513663"/>
    </g>
   </g>
   <g id="line2d_29">
    <path d="M 49.144027 294.88 
L 49.144027 288.06478 
L 61.069532 288.06478 
L 61.069532 287.540532 
L 68.045504 287.540532 
L 68.045504 286.492036 
L 72.995036 286.492036 
L 72.995036 283.870798 
L 76.834191 283.870798 
L 76.834191 283.34655 
L 79.971009 283.34655 
L 79.971009 281.249559 
L 84.92054 281.249559 
L 84.92054 279.676816 
L 90.399494 279.676816 
L 90.399494 279.152568 
L 91.896513 279.152568 
L 91.896513 278.628321 
L 97.889083 278.628321 
L 97.889083 278.104073 
L 105.848459 278.104073 
L 105.848459 277.579825 
L 106.47416 277.579825 
L 106.47416 277.055578 
L 111.269386 277.055578 
L 111.269386 276.007082 
L 120.426105 276.007082 
L 120.426105 275.482834 
L 130.478102 275.482834 
L 130.478102 274.434339 
L 131.076592 274.434339 
L 131.076592 273.910091 
L 131.654961 273.910091 
L 131.654961 273.385844 
L 132.622558 273.385844 
L 132.622558 272.861596 
L 134.529104 272.861596 
L 134.529104 271.8131 
L 135.579219 271.8131 
L 135.579219 270.764605 
L 137.403248 270.764605 
L 137.403248 270.240357 
L 143.365849 270.240357 
L 143.365849 269.716109 
L 146.089828 269.716109 
L 146.089828 268.143366 
L 146.811816 268.143366 
L 146.811816 267.094871 
L 148.706822 267.094871 
L 148.706822 266.570623 
L 151.524035 266.570623 
L 151.524035 265.522128 
L 156.473567 265.522128 
L 156.473567 264.99788 
L 158.289641 264.99788 
L 158.289641 263.425137 
L 159.543047 263.425137 
L 159.543047 262.376641 
L 162.670491 262.376641 
L 162.670491 261.852394 
L 162.995559 261.852394 
L 162.995559 260.803898 
L 164.237687 260.803898 
L 164.237687 260.279651 
L 167.466985 260.279651 
L 167.466985 259.231155 
L 168.797658 259.231155 
L 168.797658 258.706907 
L 170.108989 258.706907 
L 170.108989 258.18266 
L 170.736319 258.18266 
L 170.736319 255.561421 
L 171.056013 255.561421 
L 171.056013 255.037173 
L 171.22792 255.037173 
L 171.22792 254.512926 
L 173.619486 254.512926 
L 173.619486 253.988678 
L 175.172234 253.988678 
L 175.172234 253.46443 
L 179.124356 253.46443 
L 179.124356 252.415935 
L 179.401356 252.415935 
L 179.401356 250.318944 
L 180.40838 250.318944 
L 180.40838 249.794696 
L 186.846568 249.794696 
L 186.92116 247.173458 
L 187.148666 247.173458 
L 187.148666 245.600714 
L 189.725576 245.600714 
L 189.725576 243.503724 
L 190.444832 243.503724 
L 190.444832 242.979476 
L 192.640456 242.979476 
L 192.640456 242.455228 
L 193.67238 242.455228 
L 193.67238 240.882485 
L 194.054811 240.882485 
L 194.054811 239.83399 
L 195.203203 239.83399 
L 195.203203 238.261246 
L 195.940742 238.261246 
L 196.008398 236.164255 
L 197.722923 236.164255 
L 197.722923 235.640008 
L 198.046839 235.640008 
L 198.046839 234.591512 
L 200.37943 234.591512 
L 200.37943 233.543017 
L 202.677802 233.543017 
L 202.677802 231.446026 
L 203.201321 231.446026 
L 203.201321 230.397531 
L 203.585939 230.397531 
L 203.585939 229.873283 
L 204.051224 229.873283 
L 204.051224 229.349035 
L 204.359417 229.349035 
L 204.359417 227.776292 
L 204.676471 227.776292 
L 204.70297 225.679301 
L 205.015813 225.679301 
L 205.015813 224.630806 
L 205.250221 224.630806 
L 205.250221 222.533815 
L 205.500934 222.533815 
L 205.500934 220.436824 
L 205.700059 220.436824 
L 205.700059 219.912576 
L 206.975901 219.912576 
L 206.975901 219.388328 
L 207.297695 219.388328 
L 207.297695 218.339833 
L 207.499698 218.339833 
L 207.499698 217.815585 
L 207.711331 217.815585 
L 207.711331 216.76709 
L 207.83062 216.76709 
L 207.918703 214.670099 
L 207.981103 214.670099 
L 207.981103 214.145851 
L 208.321145 214.145851 
L 208.321145 213.097356 
L 208.698248 213.097356 
L 208.698248 212.573108 
L 209.37583 212.573108 
L 209.485696 208.379126 
L 209.608655 208.379126 
L 209.628553 203.136649 
L 210.178035 203.136649 
L 210.178035 202.612401 
L 210.904772 202.612401 
L 210.904772 202.088154 
L 211.840448 202.088154 
L 211.840448 201.563906 
L 212.205135 201.563906 
L 212.239342 196.845677 
L 212.33633 196.845677 
L 212.33633 196.321429 
L 212.857671 196.321429 
L 212.857671 195.272933 
L 213.85044 195.272933 
L 213.85044 192.651695 
L 214.176468 192.651695 
L 214.212836 188.457713 
L 214.326138 188.457713 
L 214.326138 187.933465 
L 215.103473 187.933465 
L 215.103473 186.88497 
L 215.555941 186.88497 
L 215.581935 185.312227 
L 215.969323 185.312227 
L 215.969323 184.787979 
L 216.840015 184.787979 
L 216.840015 183.215236 
L 217.155983 183.215236 
L 217.155983 182.690988 
L 217.713755 182.690988 
L 217.713755 182.16674 
L 275.017009 182.16674 
L 275.120328 177.972759 
L 275.136197 177.972759 
L 275.241101 172.206034 
L 275.255308 172.206034 
L 275.359658 153.333116 
L 275.400211 153.333116 
L 275.501761 137.605684 
L 286.914428 137.605684 
L 287.020401 127.644978 
L 287.026954 127.644978 
L 287.121496 111.917546 
L 287.144885 111.917546 
L 287.144885 111.393298 
L 293.904583 111.393298 
L 294.003506 89.374894 
L 298.79844 89.374894 
L 298.905863 73.123215 
L 302.612255 73.123215 
L 302.720014 60.017022 
L 305.788792 60.017022 
L 305.839145 51.629058 
L 308.430541 51.629058 
L 308.464164 43.765343 
L 310.709966 43.765343 
L 310.759715 40.619856 
L 312.74836 40.619856 
L 312.768878 37.47437 
L 314.554036 37.47437 
L 314.566555 34.853131 
L 316.191489 34.853131 
L 316.214182 32.231893 
L 317.694316 32.231893 
L 317.709312 30.65915 
L 319.059541 30.65915 
L 319.081231 29.610654 
L 320.344766 29.610654 
L 320.344779 28.562159 
L 321.541448 28.562159 
L 321.541448 28.037911 
L 327.316718 28.037911 
L 327.316718 27.513663 
L 333.429677 27.513663 
L 333.429677 27.513663 
" style="fill:none;stroke:#008000;stroke-linecap:square;stroke-width:1.5;"/>
   </g>
   <g id="line2d_30">
    <defs>
     <path d="M -0 6 
L 6 -6 
L -6 -6 
z
" id="me48d45eb33" style="stroke:#008000;stroke-linejoin:miter;stroke-width:1.5;"/>
    </defs>
    <g>
     <use style="fill-opacity:0;stroke:#008000;stroke-linejoin:miter;stroke-width:1.5;" x="106.47416" xlink:href="#me48d45eb33" y="277.579825"/>
     <use style="fill-opacity:0;stroke:#008000;stroke-linejoin:miter;stroke-width:1.5;" x="180.40838" xlink:href="#me48d45eb33" y="250.318944"/>
     <use style="fill-opacity:0;stroke:#008000;stroke-linejoin:miter;stroke-width:1.5;" x="217.713755" xlink:href="#me48d45eb33" y="182.690988"/>
     <use style="fill-opacity:0;stroke:#008000;stroke-linejoin:miter;stroke-width:1.5;" x="287.144885" xlink:href="#me48d45eb33" y="111.393298"/>
     <use style="fill-opacity:0;stroke:#008000;stroke-linejoin:miter;stroke-width:1.5;" x="327.316718" xlink:href="#me48d45eb33" y="27.513663"/>
     <use style="fill-opacity:0;stroke:#008000;stroke-linejoin:miter;stroke-width:1.5;" x="333.429677" xlink:href="#me48d45eb33" y="27.513663"/>
    </g>
   </g>
   <g id="line2d_31">
    <path style="fill:none;stroke:#008000;stroke-linecap:square;stroke-width:1.5;"/>
    <g/>
   </g>
   <g id="line2d_32">
    <path clip-path="url(#pa2c4872290)" d="M 274.912549 182.16674 
" style="fill:none;stroke:#008000;stroke-linecap:square;stroke-width:1.5;"/>
    <defs>
     <path d="M -12 12 
L 12 -12 
M -12 -12 
L 12 12 
" id="m8d9f664ca3" style="stroke:#008000;stroke-width:3;"/>
    </defs>
    <g clip-path="url(#pa2c4872290)">
     <use style="fill:#008000;stroke:#008000;stroke-width:3;" x="274.912549" xlink:href="#m8d9f664ca3" y="182.16674"/>
    </g>
   </g>
   <g id="line2d_33">
    <defs>
     <path d="M 0 1.5 
C 0.397805 1.5 0.77937 1.341951 1.06066 1.06066 
C 1.341951 0.77937 1.5 0.397805 1.5 0 
C 1.5 -0.397805 1.341951 -0.77937 1.06066 -1.06066 
C 0.77937 -1.341951 0.397805 -1.5 0 -1.5 
C -0.397805 -1.5 -0.77937 -1.341951 -1.06066 -1.06066 
C -1.341951 -0.77937 -1.5 -0.397805 -1.5 0 
C -1.5 0.397805 -1.341951 0.77937 -1.06066 1.06066 
C -0.77937 1.341951 -0.397805 1.5 0 1.5 
z
" id="me6328b370f" style="stroke:#0000ff;"/>
    </defs>
    <g>
     <use style="fill:#0000ff;stroke:#0000ff;" x="347.612811" xlink:href="#me6328b370f" y="27.513663"/>
     <use style="fill:#0000ff;stroke:#0000ff;" x="347.612811" xlink:href="#me6328b370f" y="27.513663"/>
    </g>
   </g>
   <g id="line2d_34">
    <path d="M 40.355341 294.88 
L 40.355341 294.355752 
L 71.182322 294.355752 
L 71.182322 292.258761 
L 85.759969 292.258761 
L 85.759969 291.210266 
L 86.946982 291.210266 
L 86.946982 290.161771 
L 119.927379 290.161771 
L 119.927379 289.113275 
L 121.069353 289.113275 
L 121.069353 288.589027 
L 121.991263 288.589027 
L 121.991263 288.06478 
L 122.140223 288.06478 
L 122.140223 287.540532 
L 122.57952 287.540532 
L 122.57952 287.016284 
L 122.866275 287.016284 
L 122.866275 286.492036 
L 128.306406 286.492036 
L 128.306406 285.967789 
L 129.794786 285.967789 
L 129.794786 285.443541 
L 131.425941 285.443541 
L 131.425941 283.870798 
L 132.595654 283.870798 
L 132.595654 283.34655 
L 132.836286 283.34655 
L 132.836286 282.298055 
L 133.766505 282.298055 
L 133.766505 281.773807 
L 133.916767 281.773807 
L 133.916767 281.249559 
L 134.862727 281.249559 
L 134.862727 280.725312 
L 145.578446 280.725312 
L 145.578446 280.201064 
L 153.574356 280.201064 
L 153.574356 279.152568 
L 159.543047 279.152568 
L 159.543047 277.579825 
L 161.546983 277.579825 
L 161.546983 277.055578 
L 166.428824 277.055578 
L 166.428824 276.53133 
L 166.94111 276.53133 
L 166.94111 275.482834 
L 167.374505 275.482834 
L 167.374505 274.958587 
L 167.963482 274.958587 
L 167.963482 274.434339 
L 170.648088 274.434339 
L 170.648088 273.910091 
L 171.076158 273.910091 
L 171.076158 273.385844 
L 171.736337 273.385844 
L 171.786086 270.764605 
L 172.11412 270.764605 
L 172.11412 270.240357 
L 173.725834 270.240357 
L 173.725834 269.716109 
L 177.756238 269.716109 
L 177.756238 269.191862 
L 178.235223 269.191862 
L 178.235223 268.667614 
L 178.910448 268.667614 
L 178.910448 268.143366 
L 179.127959 268.143366 
L 179.127959 267.619119 
L 182.863052 267.619119 
L 182.863052 265.522128 
L 183.649381 265.522128 
L 183.649381 264.99788 
L 184.116622 264.99788 
L 184.116622 263.425137 
L 184.806177 263.425137 
L 184.806177 262.900889 
L 185.129427 262.900889 
L 185.129427 261.852394 
L 187.270279 261.852394 
L 187.270279 261.328146 
L 187.384352 261.328146 
L 187.384352 260.279651 
L 188.653876 260.279651 
L 188.728262 258.706907 
L 189.763476 258.706907 
L 189.763476 257.658412 
L 190.720649 257.658412 
L 190.720649 257.134164 
L 190.909671 257.134164 
L 190.974933 255.561421 
L 194.0941 255.561421 
L 194.0941 253.988678 
L 194.410412 253.988678 
L 194.410412 252.940182 
L 195.285792 252.940182 
L 195.285792 252.415935 
L 196.840107 252.415935 
L 196.87674 250.318944 
L 198.213965 250.318944 
L 198.213965 249.794696 
L 198.531765 249.794696 
L 198.610306 248.221953 
L 198.731773 248.221953 
L 198.731773 247.697705 
L 200.294374 247.697705 
L 200.294374 247.173458 
L 200.515586 247.173458 
L 200.622811 245.076467 
L 200.786242 245.076467 
L 200.786242 244.552219 
L 201.463272 244.552219 
L 201.492753 243.503724 
L 202.315201 243.503724 
L 202.315201 242.979476 
L 202.816093 242.979476 
L 202.816093 242.455228 
L 203.571153 242.455228 
L 203.571153 241.406733 
L 205.454592 241.406733 
L 205.46161 239.83399 
L 205.882079 239.83399 
L 205.882079 238.261246 
L 206.474287 238.261246 
L 206.474287 237.212751 
L 207.717144 237.212751 
L 207.815329 236.164255 
L 208.502076 236.164255 
L 208.502076 232.494521 
L 209.332309 232.494521 
L 209.332309 231.970274 
L 209.809331 231.970274 
L 209.823857 230.397531 
L 210.402077 230.397531 
L 210.402077 229.873283 
L 266.401837 229.873283 
L 266.501834 225.155053 
L 266.52054 225.155053 
L 266.62804 221.485319 
L 266.63499 221.485319 
L 266.694776 219.912576 
L 266.746459 219.912576 
L 266.764172 217.291338 
L 278.202376 217.291338 
L 278.303303 205.757888 
L 278.348812 205.757888 
L 278.386509 202.612401 
L 285.089029 202.612401 
L 285.197408 195.797181 
L 285.210315 195.797181 
L 285.241435 193.70019 
L 290.051546 193.70019 
L 290.142718 181.118245 
L 293.875393 181.118245 
L 293.949677 169.060547 
L 297.007155 169.060547 
L 297.056188 161.721079 
L 299.646842 161.721079 
L 299.699099 150.711877 
L 301.94312 150.711877 
L 301.985283 142.848162 
L 303.960937 142.848162 
L 303.999151 135.508693 
L 305.770242 135.508693 
L 305.802814 125.547987 
L 307.407251 125.547987 
L 307.440554 120.829757 
L 308.904857 120.829757 
L 308.930628 117.160023 
L 310.277101 117.160023 
L 310.297815 110.869051 
L 311.550432 110.869051 
L 311.57706 103.005335 
L 312.738314 103.005335 
L 312.758192 94.617371 
L 313.848378 94.617371 
L 313.867996 91.996133 
L 314.890094 91.996133 
L 314.907251 87.802151 
L 315.86939 87.802151 
L 315.889763 83.608169 
L 316.803357 83.608169 
L 316.809824 82.035426 
L 317.68582 82.035426 
L 317.699048 78.88994 
L 318.520759 78.88994 
L 318.533208 76.268701 
L 319.32021 76.268701 
L 319.332273 73.647463 
L 320.08298 73.647463 
L 320.098929 71.026224 
L 320.817769 71.026224 
L 320.829014 66.832242 
L 321.516481 66.832242 
L 321.529531 64.735251 
L 322.192826 64.735251 
L 322.20405 62.114013 
L 322.842175 62.114013 
L 322.847499 60.017022 
L 323.468712 60.017022 
L 323.476877 57.920031 
L 324.068333 57.920031 
L 324.075178 55.82304 
L 324.654745 55.82304 
L 324.660347 53.726049 
L 325.218446 53.726049 
L 325.22188 52.153306 
L 325.762081 52.153306 
L 325.772651 50.056315 
L 326.291179 50.056315 
L 326.301239 47.959324 
L 326.803462 47.959324 
L 326.810825 45.862334 
L 327.307865 45.862334 
L 327.309727 44.813838 
L 327.788961 44.813838 
L 327.796557 43.765343 
L 329.164184 43.765343 
L 329.16925 42.716847 
L 329.600561 42.716847 
L 329.600935 41.144104 
L 330.024691 41.144104 
L 330.024691 40.619856 
L 331.238858 40.619856 
L 331.238858 40.095609 
L 331.627019 40.095609 
L 331.627019 39.571361 
L 332.37242 39.571361 
L 332.379618 37.998618 
L 332.736768 37.998618 
L 332.738977 36.425875 
L 333.094435 36.425875 
L 333.094435 35.901627 
L 333.429677 35.901627 
L 333.429677 35.901627 
" style="fill:none;stroke:#0000ff;stroke-linecap:square;stroke-width:1.5;"/>
   </g>
   <g id="line2d_35">
    <defs>
     <path d="M 0 -6 
L -1.347084 -1.854102 
L -5.706339 -1.854102 
L -2.179628 0.708204 
L -3.526712 4.854102 
L -0 2.291796 
L 3.526712 4.854102 
L 2.179628 0.708204 
L 5.706339 -1.854102 
L 1.347084 -1.854102 
z
" id="mbc4ab7c547" style="stroke:#0000ff;stroke-linejoin:bevel;stroke-width:1.5;"/>
    </defs>
    <g>
     <use style="fill-opacity:0;stroke:#0000ff;stroke-linejoin:bevel;stroke-width:1.5;" x="86.946982" xlink:href="#mbc4ab7c547" y="291.210266"/>
     <use style="fill-opacity:0;stroke:#0000ff;stroke-linejoin:bevel;stroke-width:1.5;" x="183.649381" xlink:href="#mbc4ab7c547" y="265.522128"/>
     <use style="fill-opacity:0;stroke:#0000ff;stroke-linejoin:bevel;stroke-width:1.5;" x="210.402077" xlink:href="#mbc4ab7c547" y="229.873283"/>
     <use style="fill-opacity:0;stroke:#0000ff;stroke-linejoin:bevel;stroke-width:1.5;" x="299.699099" xlink:href="#mbc4ab7c547" y="151.236125"/>
     <use style="fill-opacity:0;stroke:#0000ff;stroke-linejoin:bevel;stroke-width:1.5;" x="333.094435" xlink:href="#mbc4ab7c547" y="35.901627"/>
     <use style="fill-opacity:0;stroke:#0000ff;stroke-linejoin:bevel;stroke-width:1.5;" x="333.429677" xlink:href="#mbc4ab7c547" y="35.901627"/>
    </g>
   </g>
   <g id="line2d_36">
    <path style="fill:none;stroke:#0000ff;stroke-linecap:square;stroke-width:1.5;"/>
    <g/>
   </g>
   <g id="line2d_37">
    <path clip-path="url(#pa2c4872290)" d="M 266.123863 229.873283 
" style="fill:none;stroke:#0000ff;stroke-linecap:square;stroke-width:1.5;"/>
    <defs>
     <path d="M -12 12 
L 12 -12 
M -12 -12 
L 12 12 
" id="m36a2faf3e7" style="stroke:#0000ff;stroke-width:3;"/>
    </defs>
    <g clip-path="url(#pa2c4872290)">
     <use style="fill:#0000ff;stroke:#0000ff;stroke-width:3;" x="266.123863" xlink:href="#m36a2faf3e7" y="229.873283"/>
    </g>
   </g>
   <g id="line2d_38">
    <defs>
     <path d="M 0 1.5 
C 0.397805 1.5 0.77937 1.341951 1.06066 1.06066 
C 1.341951 0.77937 1.5 0.397805 1.5 0 
C 1.5 -0.397805 1.341951 -0.77937 1.06066 -1.06066 
C 0.77937 -1.341951 0.397805 -1.5 0 -1.5 
C -0.397805 -1.5 -0.77937 -1.341951 -1.06066 -1.06066 
C -1.341951 -0.77937 -1.5 -0.397805 -1.5 0 
C -1.5 0.397805 -1.341951 0.77937 -1.06066 1.06066 
C -0.77937 1.341951 -0.397805 1.5 0 1.5 
z
" id="mdb38add56a" style="stroke:#000000;"/>
    </defs>
    <g>
     <use style="stroke:#000000;" x="304.88296" xlink:href="#mdb38add56a" y="237.212751"/>
     <use style="stroke:#000000;" x="304.88296" xlink:href="#mdb38add56a" y="237.212751"/>
    </g>
   </g>
   <g id="line2d_39">
    <path d="M 124.940047 294.88 
L 124.940047 293.831505 
L 138.516805 293.831505 
L 138.516805 292.258761 
L 151.348405 292.258761 
L 151.348405 291.210266 
L 155.037536 291.210266 
L 155.037536 290.161771 
L 156.517196 290.161771 
L 156.517196 289.637523 
L 157.293783 289.637523 
L 157.293783 289.113275 
L 161.859402 289.113275 
L 161.859402 288.06478 
L 163.020842 288.06478 
L 163.027731 287.016284 
L 165.295824 287.016284 
L 165.295824 285.967789 
L 165.618761 285.967789 
L 165.618761 285.443541 
L 165.795585 285.443541 
L 165.795585 284.395046 
L 166.132377 284.395046 
L 166.132377 283.870798 
L 166.394878 283.870798 
L 166.394878 283.34655 
L 167.671514 283.34655 
L 167.781583 282.298055 
L 169.339015 282.298055 
L 169.339015 281.773807 
L 176.622437 281.773807 
L 176.622437 281.249559 
L 178.943251 281.249559 
L 178.943251 280.201064 
L 179.117149 280.201064 
L 179.117149 279.676816 
L 179.504752 279.676816 
L 179.504752 279.152568 
L 179.950912 279.152568 
L 179.950912 278.104073 
L 180.40838 278.104073 
L 180.40838 277.055578 
L 180.550745 277.055578 
L 180.550745 276.53133 
L 181.262133 276.53133 
L 181.262133 276.007082 
L 182.184437 276.007082 
L 182.184437 275.482834 
L 184.532083 275.482834 
L 184.532083 274.434339 
L 184.73026 274.434339 
L 184.73026 272.337348 
L 184.906881 272.337348 
L 184.906881 271.8131 
L 185.921044 271.8131 
L 185.921044 270.764605 
L 186.100329 270.764605 
L 186.100329 268.667614 
L 186.400359 268.667614 
L 186.400359 268.143366 
L 186.981743 268.143366 
L 186.981743 267.094871 
L 187.549089 267.094871 
L 187.646521 263.949385 
L 188.054959 263.949385 
L 188.054959 263.425137 
L 188.458639 263.425137 
L 188.458639 262.376641 
L 188.769963 262.376641 
L 188.769963 260.803898 
L 189.164934 260.803898 
L 189.164934 260.279651 
L 189.417852 260.279651 
L 189.417852 258.706907 
L 191.360068 258.706907 
L 191.360068 257.658412 
L 191.624753 257.658412 
L 191.624753 256.609917 
L 191.81966 256.609917 
L 191.81966 256.085669 
L 193.107501 256.085669 
L 193.107501 255.561421 
L 193.643352 255.561421 
L 193.643352 255.037173 
L 194.460354 255.037173 
L 194.460354 254.512926 
L 195.759814 254.512926 
L 195.759814 253.46443 
L 198.396535 253.46443 
L 198.396535 252.940182 
L 199.181471 252.940182 
L 199.181471 252.415935 
L 200.113419 252.415935 
L 200.113419 251.891687 
L 254.458108 251.891687 
L 254.527991 249.794696 
L 254.684348 249.794696 
L 254.684348 249.270448 
L 266.289468 249.270448 
L 266.376713 246.64921 
L 273.210416 246.64921 
L 273.263362 244.552219 
L 278.114673 244.552219 
L 278.147259 242.455228 
L 281.949731 242.455228 
L 281.963735 240.882485 
L 287.731239 240.882485 
L 287.731239 240.358237 
L 290.023887 240.358237 
L 290.023887 239.83399 
L 292.043139 239.83399 
L 292.043139 239.309742 
L 293.863248 239.309742 
L 293.863248 238.785494 
L 296.991872 238.785494 
L 296.991872 238.261246 
L 299.633979 238.261246 
L 299.633979 237.736999 
L 304.88296 237.736999 
L 304.88296 237.212751 
L 333.429677 237.212751 
L 333.429677 237.212751 
" style="fill:none;stroke:#000000;stroke-linecap:square;stroke-width:1.5;"/>
   </g>
   <g id="line2d_40">
    <defs>
     <path d="M 0 6 
C 1.591219 6 3.117479 5.367802 4.242641 4.242641 
C 5.367802 3.117479 6 1.591219 6 0 
C 6 -1.591219 5.367802 -3.117479 4.242641 -4.242641 
C 3.117479 -5.367802 1.591219 -6 0 -6 
C -1.591219 -6 -3.117479 -5.367802 -4.242641 -4.242641 
C -5.367802 -3.117479 -6 -1.591219 -6 0 
C -6 1.591219 -5.367802 3.117479 -4.242641 4.242641 
C -3.117479 5.367802 -1.591219 6 0 6 
z
" id="m0b3fb14010" style="stroke:#000000;stroke-width:1.5;"/>
    </defs>
    <g>
     <use style="fill-opacity:0;stroke:#000000;stroke-width:1.5;" x="200.113419" xlink:href="#m0b3fb14010" y="252.415935"/>
     <use style="fill-opacity:0;stroke:#000000;stroke-width:1.5;" x="254.684348" xlink:href="#m0b3fb14010" y="249.794696"/>
     <use style="fill-opacity:0;stroke:#000000;stroke-width:1.5;" x="304.88296" xlink:href="#m0b3fb14010" y="237.212751"/>
     <use style="fill-opacity:0;stroke:#000000;stroke-width:1.5;" x="304.88296" xlink:href="#m0b3fb14010" y="237.212751"/>
     <use style="fill-opacity:0;stroke:#000000;stroke-width:1.5;" x="333.429677" xlink:href="#m0b3fb14010" y="237.212751"/>
    </g>
   </g>
   <g id="line2d_41">
    <path style="fill:none;stroke:#000000;stroke-linecap:square;stroke-width:1.5;"/>
    <g/>
   </g>
   <g id="line2d_42">
    <path clip-path="url(#pa2c4872290)" d="M 254.198358 251.891687 
" style="fill:none;stroke:#000000;stroke-linecap:square;stroke-width:1.5;"/>
    <defs>
     <path d="M -12 12 
L 12 -12 
M -12 -12 
L 12 12 
" id="m82926f8997" style="stroke:#000000;stroke-width:3;"/>
    </defs>
    <g clip-path="url(#pa2c4872290)">
     <use style="stroke:#000000;stroke-width:3;" x="254.198358" xlink:href="#m82926f8997" y="251.891687"/>
    </g>
   </g>
   <g id="line2d_43">
    <defs>
     <path d="M 0 1.5 
C 0.397805 1.5 0.77937 1.341951 1.06066 1.06066 
C 1.341951 0.77937 1.5 0.397805 1.5 0 
C 1.5 -0.397805 1.341951 -0.77937 1.06066 -1.06066 
C 0.77937 -1.341951 0.397805 -1.5 0 -1.5 
C -0.397805 -1.5 -0.77937 -1.341951 -1.06066 -1.06066 
C -1.341951 -0.77937 -1.5 -0.397805 -1.5 0 
C -1.5 0.397805 -1.341951 0.77937 -1.06066 1.06066 
C -0.77937 1.341951 -0.397805 1.5 0 1.5 
z
" id="m49574ea380" style="stroke:#ff0000;"/>
    </defs>
    <g>
     <use style="fill:#ff0000;stroke:#ff0000;" x="287.71831" xlink:href="#m49574ea380" y="258.18266"/>
     <use style="fill:#ff0000;stroke:#ff0000;" x="287.71831" xlink:href="#m49574ea380" y="258.18266"/>
    </g>
   </g>
   <g id="line2d_44">
    <path d="M 167.626761 294.88 
L 167.626761 294.355752 
L 173.677688 294.355752 
L 173.677688 293.307257 
L 174.939455 293.307257 
L 174.939455 292.783009 
L 175.616959 292.783009 
L 175.616959 292.258761 
L 176.113366 292.258761 
L 176.113366 291.734514 
L 176.666136 291.734514 
L 176.666136 291.210266 
L 176.930629 291.210266 
L 176.930629 290.161771 
L 177.165397 290.161771 
L 177.165397 289.637523 
L 179.774875 289.637523 
L 179.774875 289.113275 
L 180.201485 289.113275 
L 180.201485 288.589027 
L 180.281257 288.589027 
L 180.281257 287.540532 
L 180.656133 287.540532 
L 180.656133 286.492036 
L 180.659841 286.492036 
L 180.659841 285.967789 
L 181.1544 285.967789 
L 181.1544 285.443541 
L 181.411835 285.443541 
L 181.411835 284.919293 
L 181.536773 284.919293 
L 181.536773 283.870798 
L 182.049318 283.870798 
L 182.049318 282.822302 
L 182.080069 282.822302 
L 182.080069 281.773807 
L 182.303908 281.773807 
L 182.303908 281.249559 
L 182.306154 281.249559 
L 182.306154 280.725312 
L 182.438165 280.725312 
L 182.438165 280.201064 
L 182.642011 280.201064 
L 182.642011 279.676816 
L 182.795509 279.676816 
L 182.795509 278.628321 
L 183.532653 278.628321 
L 183.532653 278.104073 
L 183.552511 278.104073 
L 183.552511 277.055578 
L 183.950037 277.055578 
L 183.950037 276.53133 
L 184.528136 276.53133 
L 184.528136 275.482834 
L 184.787715 275.482834 
L 184.787715 274.958587 
L 185.098901 274.958587 
L 185.098901 274.434339 
L 185.232052 274.434339 
L 185.232052 272.861596 
L 185.387668 272.861596 
L 185.387668 272.337348 
L 185.403621 272.337348 
L 185.403621 271.8131 
L 185.759177 271.8131 
L 185.759177 271.288853 
L 186.05794 271.288853 
L 186.05794 270.240357 
L 186.807133 270.240357 
L 186.807133 269.191862 
L 187.109635 269.191862 
L 187.109635 268.143366 
L 187.112183 268.143366 
L 187.112183 267.619119 
L 187.401899 267.619119 
L 187.401899 267.094871 
L 190.572647 267.094871 
L 190.572647 266.570623 
L 190.872169 266.570623 
L 190.872169 265.522128 
L 191.143736 265.522128 
L 191.143736 264.99788 
L 193.144027 264.99788 
L 193.144027 264.473632 
L 242.745358 264.473632 
L 242.745358 263.949385 
L 242.859638 263.949385 
L 242.859638 262.900889 
L 242.892696 262.900889 
L 242.892696 262.376641 
L 254.502418 262.376641 
L 254.502418 261.852394 
L 261.383436 261.852394 
L 261.383436 261.328146 
L 261.45612 261.328146 
L 261.45612 260.803898 
L 270.077092 260.803898 
L 270.077092 260.279651 
L 273.19495 260.279651 
L 273.19495 259.755403 
L 275.837039 259.755403 
L 275.837039 259.231155 
L 283.580267 259.231155 
L 283.580267 258.706907 
L 287.71831 258.706907 
L 287.71831 258.18266 
L 333.429677 258.18266 
" style="fill:none;stroke:#ff0000;stroke-linecap:square;stroke-width:1.5;"/>
   </g>
   <g id="line2d_45">
    <defs>
     <path d="M -6 6 
L 6 6 
L 6 -6 
L -6 -6 
z
" id="m3ec0ef835e" style="stroke:#ff0000;stroke-linejoin:miter;stroke-width:1.5;"/>
    </defs>
    <g>
     <use style="fill-opacity:0;stroke:#ff0000;stroke-linejoin:miter;stroke-width:1.5;" x="273.19495" xlink:href="#m3ec0ef835e" y="260.279651"/>
     <use style="fill-opacity:0;stroke:#ff0000;stroke-linejoin:miter;stroke-width:1.5;" x="287.71831" xlink:href="#m3ec0ef835e" y="258.18266"/>
     <use style="fill-opacity:0;stroke:#ff0000;stroke-linejoin:miter;stroke-width:1.5;" x="287.71831" xlink:href="#m3ec0ef835e" y="258.18266"/>
     <use style="fill-opacity:0;stroke:#ff0000;stroke-linejoin:miter;stroke-width:1.5;" x="333.429677" xlink:href="#m3ec0ef835e" y="258.18266"/>
    </g>
   </g>
   <g id="line2d_46">
    <path style="fill:none;stroke:#ff0000;stroke-linecap:square;stroke-width:1.5;"/>
    <g/>
   </g>
   <g id="line2d_47">
    <path clip-path="url(#pa2c4872290)" d="M 242.272854 264.473632 
" style="fill:none;stroke:#ff0000;stroke-linecap:square;stroke-width:1.5;"/>
    <defs>
     <path d="M -12 12 
L 12 -12 
M -12 -12 
L 12 12 
" id="mf5e35cd0ba" style="stroke:#ff0000;stroke-width:3;"/>
    </defs>
    <g clip-path="url(#pa2c4872290)">
     <use style="fill:#ff0000;stroke:#ff0000;stroke-width:3;" x="242.272854" xlink:href="#mf5e35cd0ba" y="264.473632"/>
    </g>
   </g>
   <g id="line2d_48">
    <defs>
     <path d="M 0 1.5 
C 0.397805 1.5 0.77937 1.341951 1.06066 1.06066 
C 1.341951 0.77937 1.5 0.397805 1.5 0 
C 1.5 -0.397805 1.341951 -0.77937 1.06066 -1.06066 
C 0.77937 -1.341951 0.397805 -1.5 0 -1.5 
C -0.397805 -1.5 -0.77937 -1.341951 -1.06066 -1.06066 
C -1.341951 -0.77937 -1.5 -0.397805 -1.5 0 
C -1.5 0.397805 -1.341951 0.77937 -1.06066 1.06066 
C -0.77937 1.341951 -0.397805 1.5 0 1.5 
z
" id="m24968319f8" style="stroke:#bf00bf;"/>
    </defs>
    <g>
     <use style="fill:#bf00bf;stroke:#bf00bf;" x="254.338607" xlink:href="#m24968319f8" y="273.910091"/>
     <use style="fill:#bf00bf;stroke:#bf00bf;" x="254.338607" xlink:href="#m24968319f8" y="273.910091"/>
    </g>
   </g>
   <g id="line2d_49">
    <path d="M 163.910397 294.88 
L 163.910397 293.831505 
L 165.862889 293.831505 
L 165.862889 293.307257 
L 167.046397 293.307257 
L 167.046397 292.783009 
L 168.194561 292.783009 
L 168.194561 291.734514 
L 168.595366 291.734514 
L 168.595366 291.210266 
L 168.633944 291.210266 
L 168.633944 290.686018 
L 169.105978 290.686018 
L 169.105978 290.161771 
L 169.641776 290.161771 
L 169.641776 289.637523 
L 169.809766 289.637523 
L 169.809766 289.113275 
L 170.425513 289.113275 
L 170.425513 288.589027 
L 170.546061 288.589027 
L 170.546061 288.06478 
L 170.55718 288.06478 
L 170.55718 287.540532 
L 171.081549 287.540532 
L 171.081549 287.016284 
L 171.553732 287.016284 
L 171.553732 286.492036 
L 171.871772 286.492036 
L 171.871772 285.443541 
L 172.080579 285.443541 
L 172.080579 284.919293 
L 172.208293 284.919293 
L 172.208293 284.395046 
L 172.256698 284.395046 
L 172.256698 283.870798 
L 172.462903 283.870798 
L 172.462903 282.822302 
L 172.797926 282.822302 
L 172.797926 281.773807 
L 173.181033 281.773807 
L 173.181033 281.249559 
L 173.839185 281.249559 
L 173.839185 279.152568 
L 174.208121 279.152568 
L 174.208121 278.104073 
L 175.313609 278.104073 
L 175.313609 277.579825 
L 176.548835 277.579825 
L 176.548835 277.055578 
L 177.702021 277.055578 
L 177.702021 276.53133 
L 230.980098 276.53133 
L 230.980098 276.007082 
L 230.999092 276.007082 
L 230.999092 275.482834 
L 249.435572 275.482834 
L 249.435572 274.958587 
L 249.462339 274.958587 
L 249.462339 274.434339 
L 254.338607 274.434339 
L 254.338607 273.910091 
L 333.429677 273.910091 
" style="fill:none;stroke:#bf00bf;stroke-linecap:square;stroke-width:1.5;"/>
   </g>
   <g id="line2d_50">
    <defs>
     <path d="M -0 8.485281 
L 8.485281 0 
L 0 -8.485281 
L -8.485281 -0 
z
" id="m15eb981b80" style="stroke:#bf00bf;stroke-linejoin:miter;stroke-width:1.5;"/>
    </defs>
    <g>
     <use style="fill-opacity:0;stroke:#bf00bf;stroke-linejoin:miter;stroke-width:1.5;" x="254.338607" xlink:href="#m15eb981b80" y="274.434339"/>
     <use style="fill-opacity:0;stroke:#bf00bf;stroke-linejoin:miter;stroke-width:1.5;" x="254.338607" xlink:href="#m15eb981b80" y="273.910091"/>
     <use style="fill-opacity:0;stroke:#bf00bf;stroke-linejoin:miter;stroke-width:1.5;" x="254.338607" xlink:href="#m15eb981b80" y="273.910091"/>
     <use style="fill-opacity:0;stroke:#bf00bf;stroke-linejoin:miter;stroke-width:1.5;" x="333.429677" xlink:href="#m15eb981b80" y="273.910091"/>
    </g>
   </g>
   <g id="line2d_51">
    <path style="fill:none;stroke:#bf00bf;stroke-linecap:square;stroke-width:1.5;"/>
    <g/>
   </g>
   <g id="line2d_52">
    <path clip-path="url(#pa2c4872290)" d="M 230.347349 276.53133 
" style="fill:none;stroke:#bf00bf;stroke-linecap:square;stroke-width:1.5;"/>
    <defs>
     <path d="M -12 12 
L 12 -12 
M -12 -12 
L 12 12 
" id="mb71897fa84" style="stroke:#bf00bf;stroke-width:3;"/>
    </defs>
    <g clip-path="url(#pa2c4872290)">
     <use style="fill:#bf00bf;stroke:#bf00bf;stroke-width:3;" x="230.347349" xlink:href="#mb71897fa84" y="276.53133"/>
    </g>
   </g>
   <g id="line2d_53">
    <path d="M 333.429677 273.910091 
L 363.933742 289.532673 
" style="fill:none;stroke:#bf00bf;stroke-linecap:square;stroke-width:1.5;"/>
    <g>
     <use style="fill-opacity:0;stroke:#bf00bf;stroke-linejoin:miter;stroke-width:1.5;" x="333.429677" xlink:href="#m15eb981b80" y="273.910091"/>
     <use style="fill-opacity:0;stroke:#bf00bf;stroke-linejoin:miter;stroke-width:1.5;" x="363.933742" xlink:href="#m15eb981b80" y="289.532673"/>
    </g>
   </g>
   <g id="line2d_54">
    <path d="M 333.429677 258.18266 
L 363.933742 238.198337 
" style="fill:none;stroke:#ff0000;stroke-linecap:square;stroke-width:1.5;"/>
    <g>
     <use style="fill-opacity:0;stroke:#ff0000;stroke-linejoin:miter;stroke-width:1.5;" x="333.429677" xlink:href="#m3ec0ef835e" y="258.18266"/>
     <use style="fill-opacity:0;stroke:#ff0000;stroke-linejoin:miter;stroke-width:1.5;" x="363.933742" xlink:href="#m3ec0ef835e" y="238.198337"/>
    </g>
   </g>
   <g id="line2d_55">
    <path d="M 333.429677 237.212751 
L 363.933742 186.864 
" style="fill:none;stroke:#000000;stroke-linecap:square;stroke-width:1.5;"/>
    <g>
     <use style="fill-opacity:0;stroke:#000000;stroke-width:1.5;" x="333.429677" xlink:href="#m0b3fb14010" y="237.212751"/>
     <use style="fill-opacity:0;stroke:#000000;stroke-width:1.5;" x="363.933742" xlink:href="#m0b3fb14010" y="186.864"/>
    </g>
   </g>
   <g id="line2d_56">
    <path d="M 333.429677 35.901627 
L 363.933742 135.529663 
" style="fill:none;stroke:#0000ff;stroke-linecap:square;stroke-width:1.5;"/>
    <g>
     <use style="fill-opacity:0;stroke:#0000ff;stroke-linejoin:bevel;stroke-width:1.5;" x="333.429677" xlink:href="#mbc4ab7c547" y="35.901627"/>
     <use style="fill-opacity:0;stroke:#0000ff;stroke-linejoin:bevel;stroke-width:1.5;" x="363.933742" xlink:href="#mbc4ab7c547" y="135.529663"/>
    </g>
   </g>
   <g id="line2d_57">
    <path d="M 333.429677 32.756141 
L 363.933742 84.195327 
" style="fill:none;stroke:#00bfbf;stroke-linecap:square;stroke-width:1.5;"/>
    <g>
     <use style="fill-opacity:0;stroke:#00bfbf;stroke-width:1.5;" x="333.429677" xlink:href="#m6fa3955092" y="32.756141"/>
     <use style="fill-opacity:0;stroke:#00bfbf;stroke-width:1.5;" x="363.933742" xlink:href="#m6fa3955092" y="84.195327"/>
    </g>
   </g>
   <g id="line2d_58">
    <path d="M 333.429677 27.513663 
L 363.933742 32.86099 
" style="fill:none;stroke:#008000;stroke-linecap:square;stroke-width:1.5;"/>
    <g>
     <use style="fill-opacity:0;stroke:#008000;stroke-linejoin:miter;stroke-width:1.5;" x="333.429677" xlink:href="#me48d45eb33" y="27.513663"/>
     <use style="fill-opacity:0;stroke:#008000;stroke-linejoin:miter;stroke-width:1.5;" x="363.933742" xlink:href="#me48d45eb33" y="32.86099"/>
    </g>
   </g>
   <g id="line2d_59">
    <path d="M 333.429677 294.88 
L 333.429677 27.513663 
" style="fill:none;stroke:#000000;stroke-linecap:square;stroke-width:1.5;"/>
   </g>
   <g id="patch_3">
    <path d="M 56.12 294.88 
L 56.12 24.84 
" style="fill:none;stroke:#000000;stroke-linecap:square;stroke-linejoin:miter;stroke-width:0.8;"/>
   </g>
   <g id="patch_4">
    <path d="M 399.984 294.88 
L 399.984 24.84 
" style="fill:none;stroke:#000000;stroke-linecap:square;stroke-linejoin:miter;stroke-width:0.8;"/>
   </g>
   <g id="patch_5">
    <path d="M 56.12 294.88 
L 399.984 294.88 
" style="fill:none;stroke:#000000;stroke-linecap:square;stroke-linejoin:miter;stroke-width:0.8;"/>
   </g>
   <g id="patch_6">
    <path d="M 56.12 24.84 
L 399.984 24.84 
" style="fill:none;stroke:#000000;stroke-linecap:square;stroke-linejoin:miter;stroke-width:0.8;"/>
   </g>
   <g id="text_14">
    <!-- 40-D -->
    <defs>
     <path d="M 19.671875 64.796875 
L 19.671875 8.109375 
L 31.59375 8.109375 
Q 46.6875 8.109375 53.6875 14.9375 
Q 60.6875 21.78125 60.6875 36.53125 
Q 60.6875 51.171875 53.6875 57.984375 
Q 46.6875 64.796875 31.59375 64.796875 
z
M 9.8125 72.90625 
L 30.078125 72.90625 
Q 51.265625 72.90625 61.171875 64.09375 
Q 71.09375 55.28125 71.09375 36.53125 
Q 71.09375 17.671875 61.125 8.828125 
Q 51.171875 0 30.078125 0 
L 9.8125 0 
z
" id="DejaVuSans-44"/>
    </defs>
    <g transform="translate(369.479935 294.223611)scale(0.17 -0.17)">
     <use xlink:href="#DejaVuSans-34"/>
     <use x="63.623047" xlink:href="#DejaVuSans-30"/>
     <use x="127.246094" xlink:href="#DejaVuSans-2d"/>
     <use x="163.330078" xlink:href="#DejaVuSans-44"/>
    </g>
   </g>
   <g id="text_15">
    <!-- 20-D -->
    <g transform="translate(369.479935 242.889274)scale(0.17 -0.17)">
     <use xlink:href="#DejaVuSans-32"/>
     <use x="63.623047" xlink:href="#DejaVuSans-30"/>
     <use x="127.246094" xlink:href="#DejaVuSans-2d"/>
     <use x="163.330078" xlink:href="#DejaVuSans-44"/>
    </g>
   </g>
   <g id="text_16">
    <!-- 10-D -->
    <g transform="translate(369.479935 191.554937)scale(0.17 -0.17)">
     <use xlink:href="#DejaVuSans-31"/>
     <use x="63.623047" xlink:href="#DejaVuSans-30"/>
     <use x="127.246094" xlink:href="#DejaVuSans-2d"/>
     <use x="163.330078" xlink:href="#DejaVuSans-44"/>
    </g>
   </g>
   <g id="text_17">
    <!-- 5-D -->
    <defs>
     <path d="M 10.796875 72.90625 
L 49.515625 72.90625 
L 49.515625 64.59375 
L 19.828125 64.59375 
L 19.828125 46.734375 
Q 21.96875 47.46875 24.109375 47.828125 
Q 26.265625 48.1875 28.421875 48.1875 
Q 40.625 48.1875 47.75 41.5 
Q 54.890625 34.8125 54.890625 23.390625 
Q 54.890625 11.625 47.5625 5.09375 
Q 40.234375 -1.421875 26.90625 -1.421875 
Q 22.3125 -1.421875 17.546875 -0.640625 
Q 12.796875 0.140625 7.71875 1.703125 
L 7.71875 11.625 
Q 12.109375 9.234375 16.796875 8.0625 
Q 21.484375 6.890625 26.703125 6.890625 
Q 35.15625 6.890625 40.078125 11.328125 
Q 45.015625 15.765625 45.015625 23.390625 
Q 45.015625 31 40.078125 35.4375 
Q 35.15625 39.890625 26.703125 39.890625 
Q 22.75 39.890625 18.8125 39.015625 
Q 14.890625 38.140625 10.796875 36.28125 
z
" id="DejaVuSans-35"/>
    </defs>
    <g transform="translate(369.479935 140.220601)scale(0.17 -0.17)">
     <use xlink:href="#DejaVuSans-35"/>
     <use x="63.623047" xlink:href="#DejaVuSans-2d"/>
     <use x="99.707031" xlink:href="#DejaVuSans-44"/>
    </g>
   </g>
   <g id="text_18">
    <!-- 2-D -->
    <g transform="translate(369.479935 88.886264)scale(0.17 -0.17)">
     <use xlink:href="#DejaVuSans-32"/>
     <use x="63.623047" xlink:href="#DejaVuSans-2d"/>
     <use x="99.707031" xlink:href="#DejaVuSans-44"/>
    </g>
   </g>
   <g id="text_19">
    <!-- 3-D -->
    <defs>
     <path d="M 40.578125 39.3125 
Q 47.65625 37.796875 51.625 33 
Q 55.609375 28.21875 55.609375 21.1875 
Q 55.609375 10.40625 48.1875 4.484375 
Q 40.765625 -1.421875 27.09375 -1.421875 
Q 22.515625 -1.421875 17.65625 -0.515625 
Q 12.796875 0.390625 7.625 2.203125 
L 7.625 11.71875 
Q 11.71875 9.328125 16.59375 8.109375 
Q 21.484375 6.890625 26.8125 6.890625 
Q 36.078125 6.890625 40.9375 10.546875 
Q 45.796875 14.203125 45.796875 21.1875 
Q 45.796875 27.640625 41.28125 31.265625 
Q 36.765625 34.90625 28.71875 34.90625 
L 20.21875 34.90625 
L 20.21875 43.015625 
L 29.109375 43.015625 
Q 36.375 43.015625 40.234375 45.921875 
Q 44.09375 48.828125 44.09375 54.296875 
Q 44.09375 59.90625 40.109375 62.90625 
Q 36.140625 65.921875 28.71875 65.921875 
Q 24.65625 65.921875 20.015625 65.03125 
Q 15.375 64.15625 9.8125 62.3125 
L 9.8125 71.09375 
Q 15.4375 72.65625 20.34375 73.4375 
Q 25.25 74.21875 29.59375 74.21875 
Q 40.828125 74.21875 47.359375 69.109375 
Q 53.90625 64.015625 53.90625 55.328125 
Q 53.90625 49.265625 50.4375 45.09375 
Q 46.96875 40.921875 40.578125 39.3125 
z
" id="DejaVuSans-33"/>
    </defs>
    <g transform="translate(369.479935 37.551928)scale(0.17 -0.17)">
     <use xlink:href="#DejaVuSans-33"/>
     <use x="63.623047" xlink:href="#DejaVuSans-2d"/>
     <use x="99.707031" xlink:href="#DejaVuSans-44"/>
    </g>
   </g>
   <g id="text_20">
    <!-- bbob f3 -->
    <defs>
     <path d="M 48.6875 27.296875 
Q 48.6875 37.203125 44.609375 42.84375 
Q 40.53125 48.484375 33.40625 48.484375 
Q 26.265625 48.484375 22.1875 42.84375 
Q 18.109375 37.203125 18.109375 27.296875 
Q 18.109375 17.390625 22.1875 11.75 
Q 26.265625 6.109375 33.40625 6.109375 
Q 40.53125 6.109375 44.609375 11.75 
Q 48.6875 17.390625 48.6875 27.296875 
z
M 18.109375 46.390625 
Q 20.953125 51.265625 25.265625 53.625 
Q 29.59375 56 35.59375 56 
Q 45.5625 56 51.78125 48.09375 
Q 58.015625 40.1875 58.015625 27.296875 
Q 58.015625 14.40625 51.78125 6.484375 
Q 45.5625 -1.421875 35.59375 -1.421875 
Q 29.59375 -1.421875 25.265625 0.953125 
Q 20.953125 3.328125 18.109375 8.203125 
L 18.109375 0 
L 9.078125 0 
L 9.078125 75.984375 
L 18.109375 75.984375 
z
" id="DejaVuSans-62"/>
    </defs>
    <g transform="translate(59.55864 35.290806)scale(0.102 -0.102)">
     <use xlink:href="#DejaVuSans-62"/>
     <use x="63.476562" xlink:href="#DejaVuSans-62"/>
     <use x="126.953125" xlink:href="#DejaVuSans-6f"/>
     <use x="188.134766" xlink:href="#DejaVuSans-62"/>
     <use x="251.611328" xlink:href="#DejaVuSans-20"/>
     <use x="283.398438" xlink:href="#DejaVuSans-66"/>
     <use x="318.603516" xlink:href="#DejaVuSans-33"/>
    </g>
    <!-- 51 targets: 100..1e-08 -->
    <defs>
     <path d="M 11.71875 12.40625 
L 22.015625 12.40625 
L 22.015625 0 
L 11.71875 0 
z
M 11.71875 51.703125 
L 22.015625 51.703125 
L 22.015625 39.3125 
L 11.71875 39.3125 
z
" id="DejaVuSans-3a"/>
    </defs>
    <g transform="translate(59.55864 46.712575)scale(0.102 -0.102)">
     <use xlink:href="#DejaVuSans-35"/>
     <use x="63.623047" xlink:href="#DejaVuSans-31"/>
     <use x="127.246094" xlink:href="#DejaVuSans-20"/>
     <use x="159.033203" xlink:href="#DejaVuSans-74"/>
     <use x="198.242188" xlink:href="#DejaVuSans-61"/>
     <use x="259.521484" xlink:href="#DejaVuSans-72"/>
     <use x="300.619141" xlink:href="#DejaVuSans-67"/>
     <use x="364.095703" xlink:href="#DejaVuSans-65"/>
     <use x="425.619141" xlink:href="#DejaVuSans-74"/>
     <use x="464.828125" xlink:href="#DejaVuSans-73"/>
     <use x="516.927734" xlink:href="#DejaVuSans-3a"/>
     <use x="550.619141" xlink:href="#DejaVuSans-20"/>
     <use x="582.40625" xlink:href="#DejaVuSans-31"/>
     <use x="646.029297" xlink:href="#DejaVuSans-30"/>
     <use x="709.652344" xlink:href="#DejaVuSans-30"/>
     <use x="773.275391" xlink:href="#DejaVuSans-2e"/>
     <use x="805.0625" xlink:href="#DejaVuSans-2e"/>
     <use x="836.849609" xlink:href="#DejaVuSans-31"/>
     <use x="900.472656" xlink:href="#DejaVuSans-65"/>
     <use x="961.996094" xlink:href="#DejaVuSans-2d"/>
     <use x="998.080078" xlink:href="#DejaVuSans-30"/>
     <use x="1061.703125" xlink:href="#DejaVuSans-38"/>
    </g>
    <!-- 15 instances -->
    <g transform="translate(59.55864 58.134344)scale(0.102 -0.102)">
     <use xlink:href="#DejaVuSans-31"/>
     <use x="63.623047" xlink:href="#DejaVuSans-35"/>
     <use x="127.246094" xlink:href="#DejaVuSans-20"/>
     <use x="159.033203" xlink:href="#DejaVuSans-69"/>
     <use x="186.816406" xlink:href="#DejaVuSans-6e"/>
     <use x="250.195312" xlink:href="#DejaVuSans-73"/>
     <use x="302.294922" xlink:href="#DejaVuSans-74"/>
     <use x="341.503906" xlink:href="#DejaVuSans-61"/>
     <use x="402.783203" xlink:href="#DejaVuSans-6e"/>
     <use x="466.162109" xlink:href="#DejaVuSans-63"/>
     <use x="521.142578" xlink:href="#DejaVuSans-65"/>
     <use x="582.666016" xlink:href="#DejaVuSans-73"/>
    </g>
   </g>
   <g id="text_21">
    <!-- v0.0.0 -->
    <g style="fill:#808080;" transform="translate(212.37075 290.099912)scale(0.1 -0.1)">
     <use xlink:href="#DejaVuSans-76"/>
     <use x="59.179688" xlink:href="#DejaVuSans-30"/>
     <use x="122.802734" xlink:href="#DejaVuSans-2e"/>
     <use x="154.589844" xlink:href="#DejaVuSans-30"/>
     <use x="218.212891" xlink:href="#DejaVuSans-2e"/>
     <use x="250" xlink:href="#DejaVuSans-30"/>
    </g>
   </g>
   <g id="text_22">
    <!-- 3 Rastrigin separable -->
    <defs>
     <path d="M 44.390625 34.1875 
Q 47.5625 33.109375 50.5625 29.59375 
Q 53.5625 26.078125 56.59375 19.921875 
L 66.609375 0 
L 56 0 
L 46.6875 18.703125 
Q 43.0625 26.03125 39.671875 28.421875 
Q 36.28125 30.8125 30.421875 30.8125 
L 19.671875 30.8125 
L 19.671875 0 
L 9.8125 0 
L 9.8125 72.90625 
L 32.078125 72.90625 
Q 44.578125 72.90625 50.734375 67.671875 
Q 56.890625 62.453125 56.890625 51.90625 
Q 56.890625 45.015625 53.6875 40.46875 
Q 50.484375 35.9375 44.390625 34.1875 
z
M 19.671875 64.796875 
L 19.671875 38.921875 
L 32.078125 38.921875 
Q 39.203125 38.921875 42.84375 42.21875 
Q 46.484375 45.515625 46.484375 51.90625 
Q 46.484375 58.296875 42.84375 61.546875 
Q 39.203125 64.796875 32.078125 64.796875 
z
" id="DejaVuSans-52"/>
    </defs>
    <g transform="translate(121.419188 18.84)scale(0.2 -0.2)">
     <use xlink:href="#DejaVuSans-33"/>
     <use x="63.623047" xlink:href="#DejaVuSans-20"/>
     <use x="95.410156" xlink:href="#DejaVuSans-52"/>
     <use x="164.861328" xlink:href="#DejaVuSans-61"/>
     <use x="226.140625" xlink:href="#DejaVuSans-73"/>
     <use x="278.240234" xlink:href="#DejaVuSans-74"/>
     <use x="317.449219" xlink:href="#DejaVuSans-72"/>
     <use x="358.5625" xlink:href="#DejaVuSans-69"/>
     <use x="386.345703" xlink:href="#DejaVuSans-67"/>
     <use x="449.822266" xlink:href="#DejaVuSans-69"/>
     <use x="477.605469" xlink:href="#DejaVuSans-6e"/>
     <use x="540.984375" xlink:href="#DejaVuSans-20"/>
     <use x="572.771484" xlink:href="#DejaVuSans-73"/>
     <use x="624.871094" xlink:href="#DejaVuSans-65"/>
     <use x="686.394531" xlink:href="#DejaVuSans-70"/>
     <use x="749.871094" xlink:href="#DejaVuSans-61"/>
     <use x="811.150391" xlink:href="#DejaVuSans-72"/>
     <use x="852.263672" xlink:href="#DejaVuSans-61"/>
     <use x="913.542969" xlink:href="#DejaVuSans-62"/>
     <use x="977.019531" xlink:href="#DejaVuSans-6c"/>
     <use x="1004.802734" xlink:href="#DejaVuSans-65"/>
    </g>
   </g>
  </g>
 </g>
 <defs>
  <clipPath id="pa2c4872290">
   <rect height="270.04" width="343.864" x="56.12" y="24.84"/>
  </clipPath>
 </defs>
</svg>
