<?xml version="1.0" encoding="utf-8" standalone="no"?>
<!DOCTYPE svg PUBLIC "-//W3C//DTD SVG 1.1//EN"
  "http://www.w3.org/Graphics/SVG/1.1/DTD/svg11.dtd">
<!-- Created with matplotlib (http://matplotlib.org/) -->
<svg height="345.6pt" version="1.1" viewBox="0 0 460.8 345.6" width="460.8pt" xmlns="http://www.w3.org/2000/svg" xmlns:xlink="http://www.w3.org/1999/xlink">
 <defs>
  <style type="text/css">
*{stroke-linecap:butt;stroke-linejoin:round;}
  </style>
 </defs>
 <g id="figure_1">
  <g id="patch_1">
   <path d="M 0 345.6 
L 460.8 345.6 
L 460.8 0 
L 0 0 
z
" style="fill:#ffffff;"/>
  </g>
  <g id="axes_1">
   <g id="patch_2">
    <path d="M 56.12 294.88 
L 399.984 294.88 
L 399.984 6.845228 
L 56.12 6.845228 
z
" style="fill:#ffffff;"/>
   </g>
   <g id="matplotlib.axis_1">
    <g id="xtick_1">
     <g id="line2d_1">
      <path clip-path="url(#p2e369dd59e)" d="M 56.12 294.88 
L 56.12 6.845228 
" style="fill:none;stroke:#b0b0b0;stroke-linecap:square;stroke-width:0.8;"/>
     </g>
     <g id="line2d_2">
      <defs>
       <path d="M 0 0 
L 0 3.5 
" id="m34d261ba8f" style="stroke:#000000;stroke-width:0.8;"/>
      </defs>
      <g>
       <use style="stroke:#000000;stroke-width:0.8;" x="56.12" xlink:href="#m34d261ba8f" y="294.88"/>
      </g>
     </g>
     <g id="text_1">
      <!-- 0 -->
      <defs>
       <path d="M 31.78125 66.40625 
Q 24.171875 66.40625 20.328125 58.90625 
Q 16.5 51.421875 16.5 36.375 
Q 16.5 21.390625 20.328125 13.890625 
Q 24.171875 6.390625 31.78125 6.390625 
Q 39.453125 6.390625 43.28125 13.890625 
Q 47.125 21.390625 47.125 36.375 
Q 47.125 51.421875 43.28125 58.90625 
Q 39.453125 66.40625 31.78125 66.40625 
z
M 31.78125 74.21875 
Q 44.046875 74.21875 50.515625 64.515625 
Q 56.984375 54.828125 56.984375 36.375 
Q 56.984375 17.96875 50.515625 8.265625 
Q 44.046875 -1.421875 31.78125 -1.421875 
Q 19.53125 -1.421875 13.0625 8.265625 
Q 6.59375 17.96875 6.59375 36.375 
Q 6.59375 54.828125 13.0625 64.515625 
Q 19.53125 74.21875 31.78125 74.21875 
z
" id="DejaVuSans-30"/>
      </defs>
      <g transform="translate(49.7575 317.076875)scale(0.2 -0.2)">
       <use xlink:href="#DejaVuSans-30"/>
      </g>
     </g>
    </g>
    <g id="xtick_2">
     <g id="line2d_3">
      <path clip-path="url(#p2e369dd59e)" d="M 135.351336 294.88 
L 135.351336 6.845228 
" style="fill:none;stroke:#b0b0b0;stroke-linecap:square;stroke-width:0.8;"/>
     </g>
     <g id="line2d_4">
      <g>
       <use style="stroke:#000000;stroke-width:0.8;" x="135.351336" xlink:href="#m34d261ba8f" y="294.88"/>
      </g>
     </g>
     <g id="text_2">
      <!-- 2 -->
      <defs>
       <path d="M 19.1875 8.296875 
L 53.609375 8.296875 
L 53.609375 0 
L 7.328125 0 
L 7.328125 8.296875 
Q 12.9375 14.109375 22.625 23.890625 
Q 32.328125 33.6875 34.8125 36.53125 
Q 39.546875 41.84375 41.421875 45.53125 
Q 43.3125 49.21875 43.3125 52.78125 
Q 43.3125 58.59375 39.234375 62.25 
Q 35.15625 65.921875 28.609375 65.921875 
Q 23.96875 65.921875 18.8125 64.3125 
Q 13.671875 62.703125 7.8125 59.421875 
L 7.8125 69.390625 
Q 13.765625 71.78125 18.9375 73 
Q 24.125 74.21875 28.421875 74.21875 
Q 39.75 74.21875 46.484375 68.546875 
Q 53.21875 62.890625 53.21875 53.421875 
Q 53.21875 48.921875 51.53125 44.890625 
Q 49.859375 40.875 45.40625 35.40625 
Q 44.1875 33.984375 37.640625 27.21875 
Q 31.109375 20.453125 19.1875 8.296875 
z
" id="DejaVuSans-32"/>
      </defs>
      <g transform="translate(128.988836 317.076875)scale(0.2 -0.2)">
       <use xlink:href="#DejaVuSans-32"/>
      </g>
     </g>
    </g>
    <g id="xtick_3">
     <g id="line2d_5">
      <path clip-path="url(#p2e369dd59e)" d="M 214.582673 294.88 
L 214.582673 6.845228 
" style="fill:none;stroke:#b0b0b0;stroke-linecap:square;stroke-width:0.8;"/>
     </g>
     <g id="line2d_6">
      <g>
       <use style="stroke:#000000;stroke-width:0.8;" x="214.582673" xlink:href="#m34d261ba8f" y="294.88"/>
      </g>
     </g>
     <g id="text_3">
      <!-- 4 -->
      <defs>
       <path d="M 37.796875 64.3125 
L 12.890625 25.390625 
L 37.796875 25.390625 
z
M 35.203125 72.90625 
L 47.609375 72.90625 
L 47.609375 25.390625 
L 58.015625 25.390625 
L 58.015625 17.1875 
L 47.609375 17.1875 
L 47.609375 0 
L 37.796875 0 
L 37.796875 17.1875 
L 4.890625 17.1875 
L 4.890625 26.703125 
z
" id="DejaVuSans-34"/>
      </defs>
      <g transform="translate(208.220173 317.076875)scale(0.2 -0.2)">
       <use xlink:href="#DejaVuSans-34"/>
      </g>
     </g>
    </g>
    <g id="xtick_4">
     <g id="line2d_7">
      <path clip-path="url(#p2e369dd59e)" d="M 293.814009 294.88 
L 293.814009 6.845228 
" style="fill:none;stroke:#b0b0b0;stroke-linecap:square;stroke-width:0.8;"/>
     </g>
     <g id="line2d_8">
      <g>
       <use style="stroke:#000000;stroke-width:0.8;" x="293.814009" xlink:href="#m34d261ba8f" y="294.88"/>
      </g>
     </g>
     <g id="text_4">
      <!-- 6 -->
      <defs>
       <path d="M 33.015625 40.375 
Q 26.375 40.375 22.484375 35.828125 
Q 18.609375 31.296875 18.609375 23.390625 
Q 18.609375 15.53125 22.484375 10.953125 
Q 26.375 6.390625 33.015625 6.390625 
Q 39.65625 6.390625 43.53125 10.953125 
Q 47.40625 15.53125 47.40625 23.390625 
Q 47.40625 31.296875 43.53125 35.828125 
Q 39.65625 40.375 33.015625 40.375 
z
M 52.59375 71.296875 
L 52.59375 62.3125 
Q 48.875 64.0625 45.09375 64.984375 
Q 41.3125 65.921875 37.59375 65.921875 
Q 27.828125 65.921875 22.671875 59.328125 
Q 17.53125 52.734375 16.796875 39.40625 
Q 19.671875 43.65625 24.015625 45.921875 
Q 28.375 48.1875 33.59375 48.1875 
Q 44.578125 48.1875 50.953125 41.515625 
Q 57.328125 34.859375 57.328125 23.390625 
Q 57.328125 12.15625 50.6875 5.359375 
Q 44.046875 -1.421875 33.015625 -1.421875 
Q 20.359375 -1.421875 13.671875 8.265625 
Q 6.984375 17.96875 6.984375 36.375 
Q 6.984375 53.65625 15.1875 63.9375 
Q 23.390625 74.21875 37.203125 74.21875 
Q 40.921875 74.21875 44.703125 73.484375 
Q 48.484375 72.75 52.59375 71.296875 
z
" id="DejaVuSans-36"/>
      </defs>
      <g transform="translate(287.451509 317.076875)scale(0.2 -0.2)">
       <use xlink:href="#DejaVuSans-36"/>
      </g>
     </g>
    </g>
    <g id="xtick_5">
     <g id="line2d_9">
      <path clip-path="url(#p2e369dd59e)" d="M 373.045346 294.88 
L 373.045346 6.845228 
" style="fill:none;stroke:#b0b0b0;stroke-linecap:square;stroke-width:0.8;"/>
     </g>
     <g id="line2d_10">
      <g>
       <use style="stroke:#000000;stroke-width:0.8;" x="373.045346" xlink:href="#m34d261ba8f" y="294.88"/>
      </g>
     </g>
     <g id="text_5">
      <!-- 8 -->
      <defs>
       <path d="M 31.78125 34.625 
Q 24.75 34.625 20.71875 30.859375 
Q 16.703125 27.09375 16.703125 20.515625 
Q 16.703125 13.921875 20.71875 10.15625 
Q 24.75 6.390625 31.78125 6.390625 
Q 38.8125 6.390625 42.859375 10.171875 
Q 46.921875 13.96875 46.921875 20.515625 
Q 46.921875 27.09375 42.890625 30.859375 
Q 38.875 34.625 31.78125 34.625 
z
M 21.921875 38.8125 
Q 15.578125 40.375 12.03125 44.71875 
Q 8.5 49.078125 8.5 55.328125 
Q 8.5 64.0625 14.71875 69.140625 
Q 20.953125 74.21875 31.78125 74.21875 
Q 42.671875 74.21875 48.875 69.140625 
Q 55.078125 64.0625 55.078125 55.328125 
Q 55.078125 49.078125 51.53125 44.71875 
Q 48 40.375 41.703125 38.8125 
Q 48.828125 37.15625 52.796875 32.3125 
Q 56.78125 27.484375 56.78125 20.515625 
Q 56.78125 9.90625 50.3125 4.234375 
Q 43.84375 -1.421875 31.78125 -1.421875 
Q 19.734375 -1.421875 13.25 4.234375 
Q 6.78125 9.90625 6.78125 20.515625 
Q 6.78125 27.484375 10.78125 32.3125 
Q 14.796875 37.15625 21.921875 38.8125 
z
M 18.3125 54.390625 
Q 18.3125 48.734375 21.84375 45.5625 
Q 25.390625 42.390625 31.78125 42.390625 
Q 38.140625 42.390625 41.71875 45.5625 
Q 45.3125 48.734375 45.3125 54.390625 
Q 45.3125 60.0625 41.71875 63.234375 
Q 38.140625 66.40625 31.78125 66.40625 
Q 25.390625 66.40625 21.84375 63.234375 
Q 18.3125 60.0625 18.3125 54.390625 
z
" id="DejaVuSans-38"/>
      </defs>
      <g transform="translate(366.682846 317.076875)scale(0.2 -0.2)">
       <use xlink:href="#DejaVuSans-38"/>
      </g>
     </g>
    </g>
    <g id="text_6">
     <!-- log10(# f-evals / dimension) -->
     <defs>
      <path d="M 9.421875 75.984375 
L 18.40625 75.984375 
L 18.40625 0 
L 9.421875 0 
z
" id="DejaVuSans-6c"/>
      <path d="M 30.609375 48.390625 
Q 23.390625 48.390625 19.1875 42.75 
Q 14.984375 37.109375 14.984375 27.296875 
Q 14.984375 17.484375 19.15625 11.84375 
Q 23.34375 6.203125 30.609375 6.203125 
Q 37.796875 6.203125 41.984375 11.859375 
Q 46.1875 17.53125 46.1875 27.296875 
Q 46.1875 37.015625 41.984375 42.703125 
Q 37.796875 48.390625 30.609375 48.390625 
z
M 30.609375 56 
Q 42.328125 56 49.015625 48.375 
Q 55.71875 40.765625 55.71875 27.296875 
Q 55.71875 13.875 49.015625 6.21875 
Q 42.328125 -1.421875 30.609375 -1.421875 
Q 18.84375 -1.421875 12.171875 6.21875 
Q 5.515625 13.875 5.515625 27.296875 
Q 5.515625 40.765625 12.171875 48.375 
Q 18.84375 56 30.609375 56 
z
" id="DejaVuSans-6f"/>
      <path d="M 45.40625 27.984375 
Q 45.40625 37.75 41.375 43.109375 
Q 37.359375 48.484375 30.078125 48.484375 
Q 22.859375 48.484375 18.828125 43.109375 
Q 14.796875 37.75 14.796875 27.984375 
Q 14.796875 18.265625 18.828125 12.890625 
Q 22.859375 7.515625 30.078125 7.515625 
Q 37.359375 7.515625 41.375 12.890625 
Q 45.40625 18.265625 45.40625 27.984375 
z
M 54.390625 6.78125 
Q 54.390625 -7.171875 48.1875 -13.984375 
Q 42 -20.796875 29.203125 -20.796875 
Q 24.46875 -20.796875 20.265625 -20.09375 
Q 16.0625 -19.390625 12.109375 -17.921875 
L 12.109375 -9.1875 
Q 16.0625 -11.328125 19.921875 -12.34375 
Q 23.78125 -13.375 27.78125 -13.375 
Q 36.625 -13.375 41.015625 -8.765625 
Q 45.40625 -4.15625 45.40625 5.171875 
L 45.40625 9.625 
Q 42.625 4.78125 38.28125 2.390625 
Q 33.9375 0 27.875 0 
Q 17.828125 0 11.671875 7.65625 
Q 5.515625 15.328125 5.515625 27.984375 
Q 5.515625 40.671875 11.671875 48.328125 
Q 17.828125 56 27.875 56 
Q 33.9375 56 38.28125 53.609375 
Q 42.625 51.21875 45.40625 46.390625 
L 45.40625 54.6875 
L 54.390625 54.6875 
z
" id="DejaVuSans-67"/>
      <path d="M 12.40625 8.296875 
L 28.515625 8.296875 
L 28.515625 63.921875 
L 10.984375 60.40625 
L 10.984375 69.390625 
L 28.421875 72.90625 
L 38.28125 72.90625 
L 38.28125 8.296875 
L 54.390625 8.296875 
L 54.390625 0 
L 12.40625 0 
z
" id="DejaVuSans-31"/>
      <path d="M 31 75.875 
Q 24.46875 64.65625 21.28125 53.65625 
Q 18.109375 42.671875 18.109375 31.390625 
Q 18.109375 20.125 21.3125 9.0625 
Q 24.515625 -2 31 -13.1875 
L 23.1875 -13.1875 
Q 15.875 -1.703125 12.234375 9.375 
Q 8.59375 20.453125 8.59375 31.390625 
Q 8.59375 42.28125 12.203125 53.3125 
Q 15.828125 64.359375 23.1875 75.875 
z
" id="DejaVuSans-28"/>
      <path d="M 51.125 44 
L 36.921875 44 
L 32.8125 27.6875 
L 47.125 27.6875 
z
M 43.796875 71.78125 
L 38.71875 51.515625 
L 52.984375 51.515625 
L 58.109375 71.78125 
L 65.921875 71.78125 
L 60.890625 51.515625 
L 76.125 51.515625 
L 76.125 44 
L 58.984375 44 
L 54.984375 27.6875 
L 70.515625 27.6875 
L 70.515625 20.21875 
L 53.078125 20.21875 
L 48 0 
L 40.1875 0 
L 45.21875 20.21875 
L 30.90625 20.21875 
L 25.875 0 
L 18.015625 0 
L 23.09375 20.21875 
L 7.71875 20.21875 
L 7.71875 27.6875 
L 24.90625 27.6875 
L 29 44 
L 13.28125 44 
L 13.28125 51.515625 
L 30.90625 51.515625 
L 35.890625 71.78125 
z
" id="DejaVuSans-23"/>
      <path id="DejaVuSans-20"/>
      <path d="M 37.109375 75.984375 
L 37.109375 68.5 
L 28.515625 68.5 
Q 23.6875 68.5 21.796875 66.546875 
Q 19.921875 64.59375 19.921875 59.515625 
L 19.921875 54.6875 
L 34.71875 54.6875 
L 34.71875 47.703125 
L 19.921875 47.703125 
L 19.921875 0 
L 10.890625 0 
L 10.890625 47.703125 
L 2.296875 47.703125 
L 2.296875 54.6875 
L 10.890625 54.6875 
L 10.890625 58.5 
Q 10.890625 67.625 15.140625 71.796875 
Q 19.390625 75.984375 28.609375 75.984375 
z
" id="DejaVuSans-66"/>
      <path d="M 4.890625 31.390625 
L 31.203125 31.390625 
L 31.203125 23.390625 
L 4.890625 23.390625 
z
" id="DejaVuSans-2d"/>
      <path d="M 56.203125 29.59375 
L 56.203125 25.203125 
L 14.890625 25.203125 
Q 15.484375 15.921875 20.484375 11.0625 
Q 25.484375 6.203125 34.421875 6.203125 
Q 39.59375 6.203125 44.453125 7.46875 
Q 49.3125 8.734375 54.109375 11.28125 
L 54.109375 2.78125 
Q 49.265625 0.734375 44.1875 -0.34375 
Q 39.109375 -1.421875 33.890625 -1.421875 
Q 20.796875 -1.421875 13.15625 6.1875 
Q 5.515625 13.8125 5.515625 26.8125 
Q 5.515625 40.234375 12.765625 48.109375 
Q 20.015625 56 32.328125 56 
Q 43.359375 56 49.78125 48.890625 
Q 56.203125 41.796875 56.203125 29.59375 
z
M 47.21875 32.234375 
Q 47.125 39.59375 43.09375 43.984375 
Q 39.0625 48.390625 32.421875 48.390625 
Q 24.90625 48.390625 20.390625 44.140625 
Q 15.875 39.890625 15.1875 32.171875 
z
" id="DejaVuSans-65"/>
      <path d="M 2.984375 54.6875 
L 12.5 54.6875 
L 29.59375 8.796875 
L 46.6875 54.6875 
L 56.203125 54.6875 
L 35.6875 0 
L 23.484375 0 
z
" id="DejaVuSans-76"/>
      <path d="M 34.28125 27.484375 
Q 23.390625 27.484375 19.1875 25 
Q 14.984375 22.515625 14.984375 16.5 
Q 14.984375 11.71875 18.140625 8.90625 
Q 21.296875 6.109375 26.703125 6.109375 
Q 34.1875 6.109375 38.703125 11.40625 
Q 43.21875 16.703125 43.21875 25.484375 
L 43.21875 27.484375 
z
M 52.203125 31.203125 
L 52.203125 0 
L 43.21875 0 
L 43.21875 8.296875 
Q 40.140625 3.328125 35.546875 0.953125 
Q 30.953125 -1.421875 24.3125 -1.421875 
Q 15.921875 -1.421875 10.953125 3.296875 
Q 6 8.015625 6 15.921875 
Q 6 25.140625 12.171875 29.828125 
Q 18.359375 34.515625 30.609375 34.515625 
L 43.21875 34.515625 
L 43.21875 35.40625 
Q 43.21875 41.609375 39.140625 45 
Q 35.0625 48.390625 27.6875 48.390625 
Q 23 48.390625 18.546875 47.265625 
Q 14.109375 46.140625 10.015625 43.890625 
L 10.015625 52.203125 
Q 14.9375 54.109375 19.578125 55.046875 
Q 24.21875 56 28.609375 56 
Q 40.484375 56 46.34375 49.84375 
Q 52.203125 43.703125 52.203125 31.203125 
z
" id="DejaVuSans-61"/>
      <path d="M 44.28125 53.078125 
L 44.28125 44.578125 
Q 40.484375 46.53125 36.375 47.5 
Q 32.28125 48.484375 27.875 48.484375 
Q 21.1875 48.484375 17.84375 46.4375 
Q 14.5 44.390625 14.5 40.28125 
Q 14.5 37.15625 16.890625 35.375 
Q 19.28125 33.59375 26.515625 31.984375 
L 29.59375 31.296875 
Q 39.15625 29.25 43.1875 25.515625 
Q 47.21875 21.78125 47.21875 15.09375 
Q 47.21875 7.46875 41.1875 3.015625 
Q 35.15625 -1.421875 24.609375 -1.421875 
Q 20.21875 -1.421875 15.453125 -0.5625 
Q 10.6875 0.296875 5.421875 2 
L 5.421875 11.28125 
Q 10.40625 8.6875 15.234375 7.390625 
Q 20.0625 6.109375 24.8125 6.109375 
Q 31.15625 6.109375 34.5625 8.28125 
Q 37.984375 10.453125 37.984375 14.40625 
Q 37.984375 18.0625 35.515625 20.015625 
Q 33.0625 21.96875 24.703125 23.78125 
L 21.578125 24.515625 
Q 13.234375 26.265625 9.515625 29.90625 
Q 5.8125 33.546875 5.8125 39.890625 
Q 5.8125 47.609375 11.28125 51.796875 
Q 16.75 56 26.8125 56 
Q 31.78125 56 36.171875 55.265625 
Q 40.578125 54.546875 44.28125 53.078125 
z
" id="DejaVuSans-73"/>
      <path d="M 25.390625 72.90625 
L 33.6875 72.90625 
L 8.296875 -9.28125 
L 0 -9.28125 
z
" id="DejaVuSans-2f"/>
      <path d="M 45.40625 46.390625 
L 45.40625 75.984375 
L 54.390625 75.984375 
L 54.390625 0 
L 45.40625 0 
L 45.40625 8.203125 
Q 42.578125 3.328125 38.25 0.953125 
Q 33.9375 -1.421875 27.875 -1.421875 
Q 17.96875 -1.421875 11.734375 6.484375 
Q 5.515625 14.40625 5.515625 27.296875 
Q 5.515625 40.1875 11.734375 48.09375 
Q 17.96875 56 27.875 56 
Q 33.9375 56 38.25 53.625 
Q 42.578125 51.265625 45.40625 46.390625 
z
M 14.796875 27.296875 
Q 14.796875 17.390625 18.875 11.75 
Q 22.953125 6.109375 30.078125 6.109375 
Q 37.203125 6.109375 41.296875 11.75 
Q 45.40625 17.390625 45.40625 27.296875 
Q 45.40625 37.203125 41.296875 42.84375 
Q 37.203125 48.484375 30.078125 48.484375 
Q 22.953125 48.484375 18.875 42.84375 
Q 14.796875 37.203125 14.796875 27.296875 
z
" id="DejaVuSans-64"/>
      <path d="M 9.421875 54.6875 
L 18.40625 54.6875 
L 18.40625 0 
L 9.421875 0 
z
M 9.421875 75.984375 
L 18.40625 75.984375 
L 18.40625 64.59375 
L 9.421875 64.59375 
z
" id="DejaVuSans-69"/>
      <path d="M 52 44.1875 
Q 55.375 50.25 60.0625 53.125 
Q 64.75 56 71.09375 56 
Q 79.640625 56 84.28125 50.015625 
Q 88.921875 44.046875 88.921875 33.015625 
L 88.921875 0 
L 79.890625 0 
L 79.890625 32.71875 
Q 79.890625 40.578125 77.09375 44.375 
Q 74.3125 48.1875 68.609375 48.1875 
Q 61.625 48.1875 57.5625 43.546875 
Q 53.515625 38.921875 53.515625 30.90625 
L 53.515625 0 
L 44.484375 0 
L 44.484375 32.71875 
Q 44.484375 40.625 41.703125 44.40625 
Q 38.921875 48.1875 33.109375 48.1875 
Q 26.21875 48.1875 22.15625 43.53125 
Q 18.109375 38.875 18.109375 30.90625 
L 18.109375 0 
L 9.078125 0 
L 9.078125 54.6875 
L 18.109375 54.6875 
L 18.109375 46.1875 
Q 21.1875 51.21875 25.484375 53.609375 
Q 29.78125 56 35.6875 56 
Q 41.65625 56 45.828125 52.96875 
Q 50 49.953125 52 44.1875 
z
" id="DejaVuSans-6d"/>
      <path d="M 54.890625 33.015625 
L 54.890625 0 
L 45.90625 0 
L 45.90625 32.71875 
Q 45.90625 40.484375 42.875 44.328125 
Q 39.84375 48.1875 33.796875 48.1875 
Q 26.515625 48.1875 22.3125 43.546875 
Q 18.109375 38.921875 18.109375 30.90625 
L 18.109375 0 
L 9.078125 0 
L 9.078125 54.6875 
L 18.109375 54.6875 
L 18.109375 46.1875 
Q 21.34375 51.125 25.703125 53.5625 
Q 30.078125 56 35.796875 56 
Q 45.21875 56 50.046875 50.171875 
Q 54.890625 44.34375 54.890625 33.015625 
z
" id="DejaVuSans-6e"/>
      <path d="M 8.015625 75.875 
L 15.828125 75.875 
Q 23.140625 64.359375 26.78125 53.3125 
Q 30.421875 42.28125 30.421875 31.390625 
Q 30.421875 20.453125 26.78125 9.375 
Q 23.140625 -1.703125 15.828125 -13.1875 
L 8.015625 -13.1875 
Q 14.5 -2 17.703125 9.0625 
Q 20.90625 20.125 20.90625 31.390625 
Q 20.90625 42.671875 17.703125 53.65625 
Q 14.5 64.65625 8.015625 75.875 
z
" id="DejaVuSans-29"/>
     </defs>
     <g transform="translate(107.211219 338.153594)scale(0.17 -0.17)">
      <use xlink:href="#DejaVuSans-6c"/>
      <use x="27.783203" xlink:href="#DejaVuSans-6f"/>
      <use x="88.964844" xlink:href="#DejaVuSans-67"/>
      <use x="152.441406" xlink:href="#DejaVuSans-31"/>
      <use x="216.064453" xlink:href="#DejaVuSans-30"/>
      <use x="279.6875" xlink:href="#DejaVuSans-28"/>
      <use x="318.701172" xlink:href="#DejaVuSans-23"/>
      <use x="402.490234" xlink:href="#DejaVuSans-20"/>
      <use x="434.277344" xlink:href="#DejaVuSans-66"/>
      <use x="469.404297" xlink:href="#DejaVuSans-2d"/>
      <use x="505.488281" xlink:href="#DejaVuSans-65"/>
      <use x="567.011719" xlink:href="#DejaVuSans-76"/>
      <use x="626.191406" xlink:href="#DejaVuSans-61"/>
      <use x="687.470703" xlink:href="#DejaVuSans-6c"/>
      <use x="715.253906" xlink:href="#DejaVuSans-73"/>
      <use x="767.353516" xlink:href="#DejaVuSans-20"/>
      <use x="799.140625" xlink:href="#DejaVuSans-2f"/>
      <use x="832.832031" xlink:href="#DejaVuSans-20"/>
      <use x="864.619141" xlink:href="#DejaVuSans-64"/>
      <use x="928.095703" xlink:href="#DejaVuSans-69"/>
      <use x="955.878906" xlink:href="#DejaVuSans-6d"/>
      <use x="1053.291016" xlink:href="#DejaVuSans-65"/>
      <use x="1114.814453" xlink:href="#DejaVuSans-6e"/>
      <use x="1178.193359" xlink:href="#DejaVuSans-73"/>
      <use x="1230.292969" xlink:href="#DejaVuSans-69"/>
      <use x="1258.076172" xlink:href="#DejaVuSans-6f"/>
      <use x="1319.257812" xlink:href="#DejaVuSans-6e"/>
      <use x="1382.636719" xlink:href="#DejaVuSans-29"/>
     </g>
    </g>
   </g>
   <g id="matplotlib.axis_2">
    <g id="ytick_1">
     <g id="line2d_11">
      <path clip-path="url(#p2e369dd59e)" d="M 56.12 294.88 
L 399.984 294.88 
" style="fill:none;stroke:#b0b0b0;stroke-linecap:square;stroke-width:0.8;"/>
     </g>
     <g id="line2d_12">
      <defs>
       <path d="M 0 0 
L -3.5 0 
" id="m9c6855f045" style="stroke:#000000;stroke-width:0.8;"/>
      </defs>
      <g>
       <use style="stroke:#000000;stroke-width:0.8;" x="56.12" xlink:href="#m9c6855f045" y="294.88"/>
      </g>
     </g>
     <g id="text_7">
      <!-- 0.0 -->
      <defs>
       <path d="M 10.6875 12.40625 
L 21 12.40625 
L 21 0 
L 10.6875 0 
z
" id="DejaVuSans-2e"/>
      </defs>
      <g transform="translate(23.675 300.95875)scale(0.16 -0.16)">
       <use xlink:href="#DejaVuSans-30"/>
       <use x="63.623047" xlink:href="#DejaVuSans-2e"/>
       <use x="95.410156" xlink:href="#DejaVuSans-30"/>
      </g>
     </g>
    </g>
    <g id="ytick_2">
     <g id="line2d_13">
      <path clip-path="url(#p2e369dd59e)" d="M 56.12 237.843411 
L 399.984 237.843411 
" style="fill:none;stroke:#b0b0b0;stroke-linecap:square;stroke-width:0.8;"/>
     </g>
     <g id="line2d_14">
      <g>
       <use style="stroke:#000000;stroke-width:0.8;" x="56.12" xlink:href="#m9c6855f045" y="237.843411"/>
      </g>
     </g>
     <g id="text_8">
      <!-- 0.2 -->
      <g transform="translate(23.675 243.922161)scale(0.16 -0.16)">
       <use xlink:href="#DejaVuSans-30"/>
       <use x="63.623047" xlink:href="#DejaVuSans-2e"/>
       <use x="95.410156" xlink:href="#DejaVuSans-32"/>
      </g>
     </g>
    </g>
    <g id="ytick_3">
     <g id="line2d_15">
      <path clip-path="url(#p2e369dd59e)" d="M 56.12 180.806823 
L 399.984 180.806823 
" style="fill:none;stroke:#b0b0b0;stroke-linecap:square;stroke-width:0.8;"/>
     </g>
     <g id="line2d_16">
      <g>
       <use style="stroke:#000000;stroke-width:0.8;" x="56.12" xlink:href="#m9c6855f045" y="180.806823"/>
      </g>
     </g>
     <g id="text_9">
      <!-- 0.4 -->
      <g transform="translate(23.675 186.885573)scale(0.16 -0.16)">
       <use xlink:href="#DejaVuSans-30"/>
       <use x="63.623047" xlink:href="#DejaVuSans-2e"/>
       <use x="95.410156" xlink:href="#DejaVuSans-34"/>
      </g>
     </g>
    </g>
    <g id="ytick_4">
     <g id="line2d_17">
      <path clip-path="url(#p2e369dd59e)" d="M 56.12 123.770234 
L 399.984 123.770234 
" style="fill:none;stroke:#b0b0b0;stroke-linecap:square;stroke-width:0.8;"/>
     </g>
     <g id="line2d_18">
      <g>
       <use style="stroke:#000000;stroke-width:0.8;" x="56.12" xlink:href="#m9c6855f045" y="123.770234"/>
      </g>
     </g>
     <g id="text_10">
      <!-- 0.6 -->
      <g transform="translate(23.675 129.848984)scale(0.16 -0.16)">
       <use xlink:href="#DejaVuSans-30"/>
       <use x="63.623047" xlink:href="#DejaVuSans-2e"/>
       <use x="95.410156" xlink:href="#DejaVuSans-36"/>
      </g>
     </g>
    </g>
    <g id="ytick_5">
     <g id="line2d_19">
      <path clip-path="url(#p2e369dd59e)" d="M 56.12 66.733646 
L 399.984 66.733646 
" style="fill:none;stroke:#b0b0b0;stroke-linecap:square;stroke-width:0.8;"/>
     </g>
     <g id="line2d_20">
      <g>
       <use style="stroke:#000000;stroke-width:0.8;" x="56.12" xlink:href="#m9c6855f045" y="66.733646"/>
      </g>
     </g>
     <g id="text_11">
      <!-- 0.8 -->
      <g transform="translate(23.675 72.812396)scale(0.16 -0.16)">
       <use xlink:href="#DejaVuSans-30"/>
       <use x="63.623047" xlink:href="#DejaVuSans-2e"/>
       <use x="95.410156" xlink:href="#DejaVuSans-38"/>
      </g>
     </g>
    </g>
    <g id="ytick_6">
     <g id="line2d_21">
      <path clip-path="url(#p2e369dd59e)" d="M 56.12 9.697057 
L 399.984 9.697057 
" style="fill:none;stroke:#b0b0b0;stroke-linecap:square;stroke-width:0.8;"/>
     </g>
     <g id="line2d_22">
      <g>
       <use style="stroke:#000000;stroke-width:0.8;" x="56.12" xlink:href="#m9c6855f045" y="9.697057"/>
      </g>
     </g>
     <g id="text_12">
      <!-- 1.0 -->
      <g transform="translate(23.675 15.775807)scale(0.16 -0.16)">
       <use xlink:href="#DejaVuSans-31"/>
       <use x="63.623047" xlink:href="#DejaVuSans-2e"/>
       <use x="95.410156" xlink:href="#DejaVuSans-30"/>
      </g>
     </g>
    </g>
    <g id="text_13">
     <!-- Fraction of function,target pairs -->
     <defs>
      <path d="M 9.8125 72.90625 
L 51.703125 72.90625 
L 51.703125 64.59375 
L 19.671875 64.59375 
L 19.671875 43.109375 
L 48.578125 43.109375 
L 48.578125 34.8125 
L 19.671875 34.8125 
L 19.671875 0 
L 9.8125 0 
z
" id="DejaVuSans-46"/>
      <path d="M 41.109375 46.296875 
Q 39.59375 47.171875 37.8125 47.578125 
Q 36.03125 48 33.890625 48 
Q 26.265625 48 22.1875 43.046875 
Q 18.109375 38.09375 18.109375 28.8125 
L 18.109375 0 
L 9.078125 0 
L 9.078125 54.6875 
L 18.109375 54.6875 
L 18.109375 46.1875 
Q 20.953125 51.171875 25.484375 53.578125 
Q 30.03125 56 36.53125 56 
Q 37.453125 56 38.578125 55.875 
Q 39.703125 55.765625 41.0625 55.515625 
z
" id="DejaVuSans-72"/>
      <path d="M 48.78125 52.59375 
L 48.78125 44.1875 
Q 44.96875 46.296875 41.140625 47.34375 
Q 37.3125 48.390625 33.40625 48.390625 
Q 24.65625 48.390625 19.8125 42.84375 
Q 14.984375 37.3125 14.984375 27.296875 
Q 14.984375 17.28125 19.8125 11.734375 
Q 24.65625 6.203125 33.40625 6.203125 
Q 37.3125 6.203125 41.140625 7.25 
Q 44.96875 8.296875 48.78125 10.40625 
L 48.78125 2.09375 
Q 45.015625 0.34375 40.984375 -0.53125 
Q 36.96875 -1.421875 32.421875 -1.421875 
Q 20.0625 -1.421875 12.78125 6.34375 
Q 5.515625 14.109375 5.515625 27.296875 
Q 5.515625 40.671875 12.859375 48.328125 
Q 20.21875 56 33.015625 56 
Q 37.15625 56 41.109375 55.140625 
Q 45.0625 54.296875 48.78125 52.59375 
z
" id="DejaVuSans-63"/>
      <path d="M 18.3125 70.21875 
L 18.3125 54.6875 
L 36.8125 54.6875 
L 36.8125 47.703125 
L 18.3125 47.703125 
L 18.3125 18.015625 
Q 18.3125 11.328125 20.140625 9.421875 
Q 21.96875 7.515625 27.59375 7.515625 
L 36.8125 7.515625 
L 36.8125 0 
L 27.59375 0 
Q 17.1875 0 13.234375 3.875 
Q 9.28125 7.765625 9.28125 18.015625 
L 9.28125 47.703125 
L 2.6875 47.703125 
L 2.6875 54.6875 
L 9.28125 54.6875 
L 9.28125 70.21875 
z
" id="DejaVuSans-74"/>
      <path d="M 8.5 21.578125 
L 8.5 54.6875 
L 17.484375 54.6875 
L 17.484375 21.921875 
Q 17.484375 14.15625 20.5 10.265625 
Q 23.53125 6.390625 29.59375 6.390625 
Q 36.859375 6.390625 41.078125 11.03125 
Q 45.3125 15.671875 45.3125 23.6875 
L 45.3125 54.6875 
L 54.296875 54.6875 
L 54.296875 0 
L 45.3125 0 
L 45.3125 8.40625 
Q 42.046875 3.421875 37.71875 1 
Q 33.40625 -1.421875 27.6875 -1.421875 
Q 18.265625 -1.421875 13.375 4.4375 
Q 8.5 10.296875 8.5 21.578125 
z
M 31.109375 56 
z
" id="DejaVuSans-75"/>
      <path d="M 11.71875 12.40625 
L 22.015625 12.40625 
L 22.015625 4 
L 14.015625 -11.625 
L 7.71875 -11.625 
L 11.71875 4 
z
" id="DejaVuSans-2c"/>
      <path d="M 18.109375 8.203125 
L 18.109375 -20.796875 
L 9.078125 -20.796875 
L 9.078125 54.6875 
L 18.109375 54.6875 
L 18.109375 46.390625 
Q 20.953125 51.265625 25.265625 53.625 
Q 29.59375 56 35.59375 56 
Q 45.5625 56 51.78125 48.09375 
Q 58.015625 40.1875 58.015625 27.296875 
Q 58.015625 14.40625 51.78125 6.484375 
Q 45.5625 -1.421875 35.59375 -1.421875 
Q 29.59375 -1.421875 25.265625 0.953125 
Q 20.953125 3.328125 18.109375 8.203125 
z
M 48.6875 27.296875 
Q 48.6875 37.203125 44.609375 42.84375 
Q 40.53125 48.484375 33.40625 48.484375 
Q 26.265625 48.484375 22.1875 42.84375 
Q 18.109375 37.203125 18.109375 27.296875 
Q 18.109375 17.390625 22.1875 11.75 
Q 26.265625 6.109375 33.40625 6.109375 
Q 40.53125 6.109375 44.609375 11.75 
Q 48.6875 17.390625 48.6875 27.296875 
z
" id="DejaVuSans-70"/>
     </defs>
     <g transform="translate(16.139531 286.001989)rotate(-90)scale(0.17 -0.17)">
      <use xlink:href="#DejaVuSans-46"/>
      <use x="57.410156" xlink:href="#DejaVuSans-72"/>
      <use x="98.523438" xlink:href="#DejaVuSans-61"/>
      <use x="159.802734" xlink:href="#DejaVuSans-63"/>
      <use x="214.783203" xlink:href="#DejaVuSans-74"/>
      <use x="253.992188" xlink:href="#DejaVuSans-69"/>
      <use x="281.775391" xlink:href="#DejaVuSans-6f"/>
      <use x="342.957031" xlink:href="#DejaVuSans-6e"/>
      <use x="406.335938" xlink:href="#DejaVuSans-20"/>
      <use x="438.123047" xlink:href="#DejaVuSans-6f"/>
      <use x="499.304688" xlink:href="#DejaVuSans-66"/>
      <use x="534.509766" xlink:href="#DejaVuSans-20"/>
      <use x="566.296875" xlink:href="#DejaVuSans-66"/>
      <use x="601.501953" xlink:href="#DejaVuSans-75"/>
      <use x="664.880859" xlink:href="#DejaVuSans-6e"/>
      <use x="728.259766" xlink:href="#DejaVuSans-63"/>
      <use x="783.240234" xlink:href="#DejaVuSans-74"/>
      <use x="822.449219" xlink:href="#DejaVuSans-69"/>
      <use x="850.232422" xlink:href="#DejaVuSans-6f"/>
      <use x="911.414062" xlink:href="#DejaVuSans-6e"/>
      <use x="974.792969" xlink:href="#DejaVuSans-2c"/>
      <use x="1006.580078" xlink:href="#DejaVuSans-74"/>
      <use x="1045.789062" xlink:href="#DejaVuSans-61"/>
      <use x="1107.068359" xlink:href="#DejaVuSans-72"/>
      <use x="1148.166016" xlink:href="#DejaVuSans-67"/>
      <use x="1211.642578" xlink:href="#DejaVuSans-65"/>
      <use x="1273.166016" xlink:href="#DejaVuSans-74"/>
      <use x="1312.375" xlink:href="#DejaVuSans-20"/>
      <use x="1344.162109" xlink:href="#DejaVuSans-70"/>
      <use x="1407.638672" xlink:href="#DejaVuSans-61"/>
      <use x="1468.917969" xlink:href="#DejaVuSans-69"/>
      <use x="1496.701172" xlink:href="#DejaVuSans-72"/>
      <use x="1537.814453" xlink:href="#DejaVuSans-73"/>
     </g>
    </g>
   </g>
   <g id="line2d_23">
    <defs>
     <path d="M 0 1.5 
C 0.397805 1.5 0.77937 1.341951 1.06066 1.06066 
C 1.341951 0.77937 1.5 0.397805 1.5 0 
C 1.5 -0.397805 1.341951 -0.77937 1.06066 -1.06066 
C 0.77937 -1.341951 0.397805 -1.5 0 -1.5 
C -0.397805 -1.5 -0.77937 -1.341951 -1.06066 -1.06066 
C -1.341951 -0.77937 -1.5 -0.397805 -1.5 0 
C -1.5 0.397805 -1.341951 0.77937 -1.06066 1.06066 
C -0.77937 1.341951 -0.397805 1.5 0 1.5 
z
" id="m9c12b453f1" style="stroke:#000080;"/>
    </defs>
    <g>
     <use style="fill:#000080;stroke:#000080;" x="241.841005" xlink:href="#m9c12b453f1" y="261.329066"/>
     <use style="fill:#000080;stroke:#000080;" x="241.841005" xlink:href="#m9c12b453f1" y="261.329066"/>
    </g>
   </g>
   <g id="line2d_24">
    <path d="M 151.939031 294.88 
L 151.939031 293.761636 
L 152.102266 293.761636 
L 152.102266 292.643271 
L 152.389047 292.643271 
L 152.389047 291.524907 
L 154.644044 291.524907 
L 154.644044 290.965724 
L 155.523735 290.965724 
L 155.523735 290.406542 
L 156.416346 290.406542 
L 156.416346 289.84736 
L 157.068848 289.84736 
L 157.068848 288.728995 
L 157.207059 288.728995 
L 157.207059 287.610631 
L 159.262457 287.610631 
L 159.262457 287.051449 
L 159.551479 287.051449 
L 159.551479 286.492266 
L 159.877132 286.492266 
L 159.877132 285.373902 
L 161.226875 285.373902 
L 161.226875 283.696355 
L 161.381043 283.696355 
L 161.381043 283.137173 
L 161.620016 283.137173 
L 161.620016 282.577991 
L 161.677848 282.577991 
L 161.677848 282.018808 
L 161.796631 282.018808 
L 161.796631 280.900444 
L 162.238508 280.900444 
L 162.238508 280.341262 
L 163.844842 280.341262 
L 163.844842 279.222897 
L 164.657822 279.222897 
L 164.657822 278.104533 
L 220.613617 278.104533 
L 220.613617 277.545351 
L 220.623188 277.545351 
L 220.623188 276.986168 
L 220.728892 276.986168 
L 220.728892 275.867804 
L 221.125291 275.867804 
L 221.125291 275.308622 
L 221.210359 275.308622 
L 221.210359 274.749439 
L 221.275021 274.749439 
L 221.275021 273.631075 
L 221.869409 273.631075 
L 221.869409 272.51271 
L 234.748545 272.51271 
L 234.748545 271.394346 
L 234.75792 271.394346 
L 234.75792 270.275981 
L 234.805652 270.275981 
L 234.805652 269.716799 
L 234.927715 269.716799 
L 234.927715 269.157617 
L 234.964221 269.157617 
L 234.964221 268.598435 
L 235.05261 268.598435 
L 235.05261 268.039252 
L 235.170963 268.039252 
L 235.170963 267.48007 
L 235.839794 267.48007 
L 235.839794 266.920888 
L 241.068684 266.920888 
L 241.068684 265.802523 
L 241.095013 265.802523 
L 241.095013 265.243341 
L 241.222202 265.243341 
L 241.222202 263.565795 
L 241.224798 263.565795 
L 241.224798 263.006612 
L 241.265399 263.006612 
L 241.265399 262.44743 
L 241.357295 262.44743 
L 241.357295 261.888248 
L 241.841005 261.888248 
L 241.841005 261.329066 
L 333.429677 261.329066 
" style="fill:none;stroke:#000080;stroke-linecap:square;stroke-width:1.5;"/>
   </g>
   <g id="line2d_25">
    <defs>
     <path d="M 0 6 
C 1.591219 6 3.117479 5.367802 4.242641 4.242641 
C 5.367802 3.117479 6 1.591219 6 0 
C 6 -1.591219 5.367802 -3.117479 4.242641 -4.242641 
C 3.117479 -5.367802 1.591219 -6 0 -6 
C -1.591219 -6 -3.117479 -5.367802 -4.242641 -4.242641 
C -5.367802 -3.117479 -6 -1.591219 -6 0 
C -6 1.591219 -5.367802 3.117479 -4.242641 4.242641 
C -3.117479 5.367802 -1.591219 6 0 6 
z
" id="m52733d2b7a" style="stroke:#000080;stroke-width:1.5;"/>
    </defs>
    <g>
     <use style="fill-opacity:0;stroke:#000080;stroke-width:1.5;" x="164.657822" xlink:href="#m52733d2b7a" y="278.104533"/>
     <use style="fill-opacity:0;stroke:#000080;stroke-width:1.5;" x="241.841005" xlink:href="#m52733d2b7a" y="261.888248"/>
     <use style="fill-opacity:0;stroke:#000080;stroke-width:1.5;" x="241.841005" xlink:href="#m52733d2b7a" y="261.329066"/>
     <use style="fill-opacity:0;stroke:#000080;stroke-width:1.5;" x="333.429677" xlink:href="#m52733d2b7a" y="261.329066"/>
    </g>
   </g>
   <g id="line2d_26">
    <path style="fill:none;stroke:#000080;stroke-linecap:square;stroke-width:1.5;"/>
    <g/>
   </g>
   <g id="line2d_27">
    <path clip-path="url(#p2e369dd59e)" d="M 230.347349 272.51271 
" style="fill:none;stroke:#000080;stroke-linecap:square;stroke-width:1.5;"/>
    <defs>
     <path d="M -12 12 
L 12 -12 
M -12 -12 
L 12 12 
" id="mc86d5fb38f" style="stroke:#000080;stroke-width:3;"/>
    </defs>
    <g clip-path="url(#p2e369dd59e)">
     <use style="fill:#000080;stroke:#000080;stroke-width:3;" x="230.347349" xlink:href="#mc86d5fb38f" y="272.51271"/>
    </g>
   </g>
   <g id="line2d_28">
    <defs>
     <path d="M 0 1.5 
C 0.397805 1.5 0.77937 1.341951 1.06066 1.06066 
C 1.341951 0.77937 1.5 0.397805 1.5 0 
C 1.5 -0.397805 1.341951 -0.77937 1.06066 -1.06066 
C 0.77937 -1.341951 0.397805 -1.5 0 -1.5 
C -0.397805 -1.5 -0.77937 -1.341951 -1.06066 -1.06066 
C -1.341951 -0.77937 -1.5 -0.397805 -1.5 0 
C -1.5 0.397805 -1.341951 0.77937 -1.06066 1.06066 
C -0.77937 1.341951 -0.397805 1.5 0 1.5 
z
" id="m3a1bcc698e" style="stroke:#ff00ff;"/>
    </defs>
    <g>
     <use style="fill:#ff00ff;stroke:#ff00ff;" x="241.393004" xlink:href="#m3a1bcc698e" y="261.329066"/>
     <use style="fill:#ff00ff;stroke:#ff00ff;" x="241.393004" xlink:href="#m3a1bcc698e" y="261.329066"/>
    </g>
   </g>
   <g id="line2d_29">
    <path d="M 143.018632 294.88 
L 143.018632 293.761636 
L 143.762567 293.761636 
L 143.762567 293.202453 
L 144.019165 293.202453 
L 144.019165 292.643271 
L 144.994192 292.643271 
L 144.994192 292.084089 
L 146.060616 292.084089 
L 146.060616 291.524907 
L 146.376227 291.524907 
L 146.376227 290.965724 
L 146.668337 290.965724 
L 146.668337 290.406542 
L 147.469315 290.406542 
L 147.469315 288.728995 
L 147.516038 288.728995 
L 147.516038 288.169813 
L 147.797919 288.169813 
L 147.797919 287.610631 
L 148.700223 287.610631 
L 148.700223 287.051449 
L 149.550019 287.051449 
L 149.550019 285.933084 
L 150.09896 285.933084 
L 150.09896 285.373902 
L 151.064304 285.373902 
L 151.064304 284.255537 
L 153.770104 284.255537 
L 153.770104 283.696355 
L 154.590704 283.696355 
L 154.590704 283.137173 
L 154.680444 283.137173 
L 154.680444 282.577991 
L 155.097703 282.577991 
L 155.097703 281.459626 
L 155.116803 281.459626 
L 155.116803 280.900444 
L 156.248641 280.900444 
L 156.248641 279.782079 
L 156.487003 279.782079 
L 156.487003 279.222897 
L 157.411124 279.222897 
L 157.411124 278.663715 
L 157.636369 278.663715 
L 157.636369 278.104533 
L 220.33725 278.104533 
L 220.33725 277.545351 
L 220.76094 277.545351 
L 220.76094 276.986168 
L 220.845612 276.986168 
L 220.845612 275.867804 
L 221.043761 275.867804 
L 221.043761 275.308622 
L 221.08649 275.308622 
L 221.08649 273.631075 
L 221.186465 273.631075 
L 221.186465 273.071893 
L 221.64611 273.071893 
L 221.64611 272.51271 
L 234.465654 272.51271 
L 234.465654 270.835164 
L 234.739564 270.835164 
L 234.739564 270.275981 
L 234.756669 270.275981 
L 234.756669 269.716799 
L 234.771895 269.716799 
L 234.771895 269.157617 
L 235.072309 269.157617 
L 235.072309 268.039252 
L 235.155514 268.039252 
L 235.155514 267.48007 
L 235.344858 267.48007 
L 235.344858 266.920888 
L 241.047857 266.920888 
L 241.047857 265.802523 
L 241.060046 265.802523 
L 241.060046 264.684159 
L 241.092139 264.684159 
L 241.092139 264.124977 
L 241.191358 264.124977 
L 241.191358 263.565795 
L 241.286383 263.565795 
L 241.286383 263.006612 
L 241.357459 263.006612 
L 241.357459 261.888248 
L 241.393004 261.888248 
L 241.393004 261.329066 
L 333.429677 261.329066 
" style="fill:none;stroke:#ff00ff;stroke-linecap:square;stroke-width:1.5;"/>
   </g>
   <g id="line2d_30">
    <defs>
     <path d="M -0 8.485281 
L 5.091169 0 
L 0 -8.485281 
L -5.091169 -0 
z
" id="mcbc1bbebf3" style="stroke:#ff00ff;stroke-linejoin:miter;stroke-width:1.5;"/>
    </defs>
    <g>
     <use style="fill-opacity:0;stroke:#ff00ff;stroke-linejoin:miter;stroke-width:1.5;" x="157.636369" xlink:href="#mcbc1bbebf3" y="278.104533"/>
     <use style="fill-opacity:0;stroke:#ff00ff;stroke-linejoin:miter;stroke-width:1.5;" x="241.393004" xlink:href="#mcbc1bbebf3" y="261.888248"/>
     <use style="fill-opacity:0;stroke:#ff00ff;stroke-linejoin:miter;stroke-width:1.5;" x="241.393004" xlink:href="#mcbc1bbebf3" y="261.329066"/>
     <use style="fill-opacity:0;stroke:#ff00ff;stroke-linejoin:miter;stroke-width:1.5;" x="241.393004" xlink:href="#mcbc1bbebf3" y="261.329066"/>
     <use style="fill-opacity:0;stroke:#ff00ff;stroke-linejoin:miter;stroke-width:1.5;" x="333.429677" xlink:href="#mcbc1bbebf3" y="261.329066"/>
    </g>
   </g>
   <g id="line2d_31">
    <path style="fill:none;stroke:#ff00ff;stroke-linecap:square;stroke-width:1.5;"/>
    <g/>
   </g>
   <g id="line2d_32">
    <path clip-path="url(#p2e369dd59e)" d="M 230.347349 272.51271 
" style="fill:none;stroke:#ff00ff;stroke-linecap:square;stroke-width:1.5;"/>
    <defs>
     <path d="M -12 12 
L 12 -12 
M -12 -12 
L 12 12 
" id="mb79e762d0a" style="stroke:#ff00ff;stroke-width:3;"/>
    </defs>
    <g clip-path="url(#p2e369dd59e)">
     <use style="fill:#ff00ff;stroke:#ff00ff;stroke-width:3;" x="230.347349" xlink:href="#mb79e762d0a" y="272.51271"/>
    </g>
   </g>
   <g id="line2d_33">
    <defs>
     <path d="M 0 1.5 
C 0.397805 1.5 0.77937 1.341951 1.06066 1.06066 
C 1.341951 0.77937 1.5 0.397805 1.5 0 
C 1.5 -0.397805 1.341951 -0.77937 1.06066 -1.06066 
C 0.77937 -1.341951 0.397805 -1.5 0 -1.5 
C -0.397805 -1.5 -0.77937 -1.341951 -1.06066 -1.06066 
C -1.341951 -0.77937 -1.5 -0.397805 -1.5 0 
C -1.5 0.397805 -1.341951 0.77937 -1.06066 1.06066 
C -0.77937 1.341951 -0.397805 1.5 0 1.5 
z
" id="m907b27ace7" style="stroke:#ffa500;"/>
    </defs>
    <g>
     <use style="fill:#ffa500;stroke:#ffa500;" x="252.854079" xlink:href="#m907b27ace7" y="9.697057"/>
     <use style="fill:#ffa500;stroke:#ffa500;" x="252.854079" xlink:href="#m907b27ace7" y="9.697057"/>
    </g>
   </g>
   <g id="line2d_34">
    <path d="M 191.996405 294.88 
L 191.996405 293.761636 
L 192.564324 293.761636 
L 192.564324 293.202453 
L 194.673466 293.202453 
L 194.673466 292.084089 
L 195.632437 292.084089 
L 195.632437 291.524907 
L 196.145178 291.524907 
L 196.255854 289.84736 
L 197.086116 289.84736 
L 197.086116 289.288178 
L 198.217306 289.288178 
L 198.217306 288.728995 
L 198.330953 288.728995 
L 198.330953 287.610631 
L 198.730044 287.610631 
L 198.730044 287.051449 
L 199.051696 287.051449 
L 199.051696 286.492266 
L 199.550604 286.492266 
L 199.630795 283.696355 
L 199.887547 283.696355 
L 199.902698 282.577991 
L 200.131162 282.577991 
L 200.131162 282.018808 
L 200.537201 282.018808 
L 200.540509 279.222897 
L 200.887604 279.222897 
L 200.887604 278.663715 
L 201.043638 278.663715 
L 201.097598 276.986168 
L 201.205198 276.986168 
L 201.205198 276.426986 
L 201.449066 276.426986 
L 201.449066 275.867804 
L 201.880295 275.867804 
L 201.898465 273.631075 
L 202.009585 273.631075 
L 202.009585 272.51271 
L 203.054115 272.51271 
L 203.054115 271.953528 
L 203.264161 271.953528 
L 203.359065 270.275981 
L 203.500529 270.275981 
L 203.500529 269.716799 
L 203.875329 269.716799 
L 203.875329 269.157617 
L 204.076591 269.157617 
L 204.076591 267.48007 
L 204.348349 267.48007 
L 204.348349 266.920888 
L 204.745741 266.920888 
L 204.799751 265.243341 
L 204.873569 265.243341 
L 204.873569 264.684159 
L 205.201368 264.684159 
L 205.201368 264.124977 
L 205.338534 264.124977 
L 205.338534 263.006612 
L 205.631351 263.006612 
L 205.723445 261.329066 
L 205.869664 261.329066 
L 205.918556 260.210701 
L 206.690124 260.210701 
L 206.690124 259.092337 
L 206.819879 259.092337 
L 206.85348 256.855608 
L 206.953086 256.855608 
L 206.975455 255.178061 
L 207.266794 255.178061 
L 207.266794 254.618879 
L 207.563634 254.618879 
L 207.563634 254.059696 
L 208.127987 254.059696 
L 208.224982 252.38215 
L 208.523009 252.38215 
L 208.523009 251.822967 
L 208.931043 251.822967 
L 208.943703 250.145421 
L 209.186255 250.145421 
L 209.186255 249.586238 
L 209.437271 249.586238 
L 209.437271 249.027056 
L 209.647702 249.027056 
L 209.673468 247.908692 
L 209.787406 247.908692 
L 209.787406 246.790327 
L 209.907369 246.790327 
L 209.907369 246.231145 
L 210.027062 246.231145 
L 210.027062 245.671963 
L 210.14114 245.671963 
L 210.211044 242.876052 
L 210.298551 242.876052 
L 210.298551 242.316869 
L 210.514248 242.316869 
L 210.571798 241.198505 
L 210.881249 241.198505 
L 210.881249 240.639323 
L 211.192149 240.639323 
L 211.192149 240.08014 
L 211.348372 240.08014 
L 211.348372 238.961776 
L 211.573522 238.961776 
L 211.573522 238.402594 
L 211.949231 238.402594 
L 211.949231 237.284229 
L 212.089214 237.284229 
L 212.172641 235.606682 
L 212.253104 235.606682 
L 212.354944 232.251589 
L 212.512066 232.251589 
L 212.615958 229.455678 
L 212.646503 229.455678 
L 212.735707 227.778131 
L 212.829119 227.778131 
L 212.829119 227.218949 
L 212.995106 227.218949 
L 213.047479 225.541402 
L 213.177439 225.541402 
L 213.197496 223.863855 
L 213.292429 223.863855 
L 213.292429 223.304673 
L 213.412181 223.304673 
L 213.412181 222.745491 
L 213.61048 222.745491 
L 213.652028 219.94958 
L 213.770845 219.94958 
L 213.811108 218.272033 
L 213.909076 218.272033 
L 214.008535 217.153669 
L 214.088399 217.153669 
L 214.159519 214.91694 
L 214.220774 214.91694 
L 214.314695 213.798575 
L 214.474026 213.798575 
L 214.527011 212.680211 
L 214.754719 212.680211 
L 214.754719 211.561846 
L 214.893324 211.561846 
L 214.893324 211.002664 
L 215.262257 211.002664 
L 215.362518 209.884299 
L 215.502448 209.884299 
L 215.608619 206.529206 
L 215.638175 206.529206 
L 215.638175 205.970024 
L 215.795142 205.970024 
L 215.901758 203.174112 
L 215.923337 203.174112 
L 216.020067 199.819019 
L 216.086644 199.819019 
L 216.162934 197.58229 
L 216.230837 197.58229 
L 216.317539 195.345561 
L 216.371972 195.345561 
L 216.418657 193.668014 
L 216.715987 193.668014 
L 216.715987 193.108832 
L 216.909812 193.108832 
L 216.909812 191.990468 
L 217.088841 191.990468 
L 217.147339 190.872103 
L 217.228374 190.872103 
L 217.242088 189.753739 
L 217.365614 189.753739 
L 217.474376 186.957828 
L 217.550124 186.957828 
L 217.575227 185.280281 
L 217.761949 185.280281 
L 217.863479 181.366005 
L 217.886284 181.366005 
L 217.979037 179.688458 
L 218.096279 179.688458 
L 218.173464 176.333365 
L 218.248705 176.333365 
L 218.300416 175.215 
L 218.39352 175.215 
L 218.482145 172.419089 
L 218.543277 172.419089 
L 218.602831 170.18236 
L 218.823213 170.18236 
L 218.823213 169.623178 
L 219.02892 169.623178 
L 219.05859 167.945631 
L 219.145183 167.945631 
L 219.207427 166.268085 
L 219.31263 166.268085 
L 219.390998 165.14972 
L 219.472378 165.14972 
L 219.567417 164.031356 
L 219.585821 164.031356 
L 219.654696 161.235444 
L 219.729994 161.235444 
L 219.791687 158.998715 
L 219.876195 158.998715 
L 219.913845 156.761987 
L 220.013511 156.761987 
L 220.082448 155.08444 
L 220.184747 155.08444 
L 220.250837 153.406893 
L 220.394843 153.406893 
L 220.394843 152.847711 
L 220.520668 152.847711 
L 220.624944 151.170164 
L 220.712214 151.170164 
L 220.712214 150.610982 
L 220.828388 150.610982 
L 220.898493 149.492617 
L 220.952874 149.492617 
L 220.952874 148.933435 
L 221.113819 148.933435 
L 221.113819 148.374253 
L 221.225451 148.374253 
L 221.302111 146.137524 
L 221.3877 146.137524 
L 221.423055 144.459977 
L 221.503905 144.459977 
L 221.503905 142.78243 
L 221.671939 142.78243 
L 221.723593 141.104884 
L 221.794054 141.104884 
L 221.896648 139.986519 
L 221.909746 139.986519 
L 221.909746 139.427337 
L 222.070541 139.427337 
L 222.180192 137.74979 
L 222.214619 137.74979 
L 222.239001 136.631426 
L 222.350928 136.631426 
L 222.372275 134.953879 
L 222.490785 134.953879 
L 222.507509 133.276332 
L 222.618139 133.276332 
L 222.618139 132.157968 
L 222.856764 132.157968 
L 222.856764 131.598786 
L 223.128702 131.598786 
L 223.236098 128.802874 
L 223.317734 128.802874 
L 223.409392 126.566145 
L 223.469131 126.566145 
L 223.510294 125.447781 
L 223.677769 125.447781 
L 223.709682 123.770234 
L 224.05435 123.770234 
L 224.062483 120.415141 
L 224.176491 120.415141 
L 224.280498 116.500865 
L 224.339001 116.500865 
L 224.406494 115.382501 
L 224.641279 115.382501 
L 224.674279 114.264136 
L 224.78251 114.264136 
L 224.78251 113.145772 
L 224.951338 113.145772 
L 225.046798 110.909043 
L 225.125518 110.909043 
L 225.23656 108.113132 
L 225.329672 108.113132 
L 225.43506 103.639674 
L 225.486532 103.639674 
L 225.590331 100.843762 
L 225.648577 100.843762 
L 225.730269 99.725398 
L 225.785173 99.725398 
L 225.819634 98.047851 
L 226.051664 98.047851 
L 226.051664 96.929487 
L 226.18489 96.929487 
L 226.18489 96.370304 
L 226.367166 96.370304 
L 226.367166 95.811122 
L 226.858743 95.811122 
L 226.858743 94.692758 
L 227.096766 94.692758 
L 227.096766 94.133576 
L 227.227862 94.133576 
L 227.270461 92.456029 
L 227.507805 92.456029 
L 227.507805 91.337664 
L 227.661298 91.337664 
L 227.72269 89.660118 
L 227.774716 89.660118 
L 227.873293 87.982571 
L 228.010493 87.982571 
L 228.055054 86.864206 
L 228.136398 86.864206 
L 228.185746 85.745842 
L 228.25113 85.745842 
L 228.25113 84.627477 
L 228.363828 84.627477 
L 228.454986 83.509113 
L 228.611448 83.509113 
L 228.65767 82.390748 
L 228.85199 82.390748 
L 228.85199 81.831566 
L 228.972986 81.831566 
L 228.972986 81.272384 
L 229.378962 81.272384 
L 229.454911 80.15402 
L 230.962992 80.15402 
L 230.962992 79.594837 
L 231.089945 79.594837 
L 231.089945 79.035655 
L 231.285055 79.035655 
L 231.285055 77.917291 
L 231.436975 77.917291 
L 231.436975 77.358108 
L 231.60024 77.358108 
L 231.60024 76.239744 
L 232.20228 76.239744 
L 232.297905 74.562197 
L 232.497979 74.562197 
L 232.497979 74.003015 
L 232.716484 74.003015 
L 232.774763 71.207104 
L 233.01531 71.207104 
L 233.02699 70.088739 
L 233.137575 70.088739 
L 233.137575 69.529557 
L 233.25052 69.529557 
L 233.302356 67.292828 
L 233.777825 67.292828 
L 233.777825 66.733646 
L 234.154139 66.733646 
L 234.226136 64.496917 
L 234.525448 64.496917 
L 234.622408 62.81937 
L 234.687825 62.81937 
L 234.687825 62.260188 
L 234.806237 62.260188 
L 234.916981 60.023459 
L 235.08249 60.023459 
L 235.189126 56.668365 
L 235.267737 56.668365 
L 235.267737 56.109183 
L 235.391633 56.109183 
L 235.427528 54.990819 
L 235.564899 54.990819 
L 235.572253 53.872454 
L 235.751787 53.872454 
L 235.795615 52.194907 
L 235.908236 52.194907 
L 235.939179 51.076543 
L 236.223264 51.076543 
L 236.29026 46.603085 
L 236.404153 46.603085 
L 236.404153 46.043903 
L 236.576572 46.043903 
L 236.598838 44.925538 
L 236.773284 44.925538 
L 236.837398 43.807174 
L 237.093259 43.807174 
L 237.093259 43.247992 
L 237.395608 43.247992 
L 237.395608 42.129627 
L 237.5693 42.129627 
L 237.5693 41.570445 
L 237.682517 41.570445 
L 237.79216 39.892898 
L 238.12114 39.892898 
L 238.224255 37.656169 
L 238.275239 37.656169 
L 238.36006 36.537805 
L 238.457118 36.537805 
L 238.502407 35.41944 
L 238.602768 35.41944 
L 238.6411 34.301076 
L 238.747099 34.301076 
L 238.795676 32.623529 
L 239.365512 32.623529 
L 239.365512 32.064347 
L 239.780124 32.064347 
L 239.780124 31.505165 
L 240.151945 31.505165 
L 240.23477 29.268436 
L 240.397604 29.268436 
L 240.397604 28.709253 
L 241.027283 28.709253 
L 241.116786 26.472524 
L 241.155209 26.472524 
L 241.155209 25.35416 
L 241.352677 25.35416 
L 241.352677 24.794978 
L 241.466671 24.794978 
L 241.555977 23.676613 
L 241.629335 23.676613 
L 241.695995 22.558249 
L 241.769849 22.558249 
L 241.84097 20.32152 
L 242.231788 20.32152 
L 242.231788 19.762337 
L 242.853626 19.762337 
L 242.882876 18.643973 
L 243.186324 18.643973 
L 243.186324 18.084791 
L 243.837882 18.084791 
L 243.837882 17.525609 
L 244.828081 17.525609 
L 244.828081 16.966426 
L 244.999772 16.966426 
L 245.090399 15.848062 
L 245.237153 15.848062 
L 245.237153 15.28888 
L 245.434032 15.28888 
L 245.434032 14.729697 
L 245.657729 14.729697 
L 245.657729 14.170515 
L 246.485762 14.170515 
L 246.485762 13.611333 
L 246.841245 13.611333 
L 246.841245 13.052151 
L 246.954677 13.052151 
L 246.954677 12.492968 
L 248.715632 12.492968 
L 248.715632 11.933786 
L 251.136082 11.933786 
L 251.136082 11.374604 
L 251.595865 11.374604 
L 251.595865 10.815422 
L 252.72668 10.815422 
L 252.72668 10.256239 
L 252.854079 10.256239 
L 252.854079 9.697057 
L 333.429677 9.697057 
L 333.429677 9.697057 
" style="fill:none;stroke:#ffa500;stroke-linecap:square;stroke-width:1.5;"/>
   </g>
   <g id="line2d_35">
    <defs>
     <path d="M 0 -6 
L -1.347084 -1.854102 
L -5.706339 -1.854102 
L -2.179628 0.708204 
L -3.526712 4.854102 
L -0 2.291796 
L 3.526712 4.854102 
L 2.179628 0.708204 
L 5.706339 -1.854102 
L 1.347084 -1.854102 
z
" id="mb2f2c351f1" style="stroke:#ffa500;stroke-linejoin:bevel;stroke-width:1.5;"/>
    </defs>
    <g>
     <use style="fill-opacity:0;stroke:#ffa500;stroke-linejoin:bevel;stroke-width:1.5;" x="215.602135" xlink:href="#mb2f2c351f1" y="207.64757"/>
     <use style="fill-opacity:0;stroke:#ffa500;stroke-linejoin:bevel;stroke-width:1.5;" x="252.854079" xlink:href="#mb2f2c351f1" y="10.256239"/>
     <use style="fill-opacity:0;stroke:#ffa500;stroke-linejoin:bevel;stroke-width:1.5;" x="252.854079" xlink:href="#mb2f2c351f1" y="9.697057"/>
     <use style="fill-opacity:0;stroke:#ffa500;stroke-linejoin:bevel;stroke-width:1.5;" x="333.429677" xlink:href="#mb2f2c351f1" y="9.697057"/>
    </g>
   </g>
   <g id="line2d_36">
    <path style="fill:none;stroke:#ffa500;stroke-linecap:square;stroke-width:1.5;"/>
    <g/>
   </g>
   <g id="line2d_37">
    <path clip-path="url(#p2e369dd59e)" d="M 230.347349 80.15402 
" style="fill:none;stroke:#ffa500;stroke-linecap:square;stroke-width:1.5;"/>
    <defs>
     <path d="M -12 12 
L 12 -12 
M -12 -12 
L 12 12 
" id="m4fdbf0903c" style="stroke:#ffa500;stroke-width:3;"/>
    </defs>
    <g clip-path="url(#p2e369dd59e)">
     <use style="fill:#ffa500;stroke:#ffa500;stroke-width:3;" x="230.347349" xlink:href="#m4fdbf0903c" y="80.15402"/>
    </g>
   </g>
   <g id="line2d_38">
    <defs>
     <path d="M 0 1.5 
C 0.397805 1.5 0.77937 1.341951 1.06066 1.06066 
C 1.341951 0.77937 1.5 0.397805 1.5 0 
C 1.5 -0.397805 1.341951 -0.77937 1.06066 -1.06066 
C 0.77937 -1.341951 0.397805 -1.5 0 -1.5 
C -0.397805 -1.5 -0.77937 -1.341951 -1.06066 -1.06066 
C -1.341951 -0.77937 -1.5 -0.397805 -1.5 0 
C -1.5 0.397805 -1.341951 0.77937 -1.06066 1.06066 
C -0.77937 1.341951 -0.397805 1.5 0 1.5 
z
" id="m929b4094a1" style="stroke:#6495ed;"/>
    </defs>
    <g>
     <use style="fill:#6495ed;stroke:#6495ed;" x="273.139087" xlink:href="#m929b4094a1" y="255.737243"/>
     <use style="fill:#6495ed;stroke:#6495ed;" x="273.139087" xlink:href="#m929b4094a1" y="255.737243"/>
    </g>
   </g>
   <g id="line2d_39">
    <path d="M 144.050324 294.88 
L 144.050324 294.320818 
L 145.358664 294.320818 
L 145.358664 293.761636 
L 145.497549 293.761636 
L 145.497549 292.643271 
L 146.968712 292.643271 
L 146.968712 292.084089 
L 147.319799 292.084089 
L 147.319799 291.524907 
L 148.128554 291.524907 
L 148.128554 290.965724 
L 148.412737 290.965724 
L 148.412737 289.84736 
L 149.463116 289.84736 
L 149.463116 288.728995 
L 149.926525 288.728995 
L 149.926525 288.169813 
L 150.062416 288.169813 
L 150.062416 287.610631 
L 150.848979 287.610631 
L 150.848979 286.492266 
L 151.463443 286.492266 
L 151.463443 285.373902 
L 152.793292 285.373902 
L 152.793292 284.81472 
L 153.439603 284.81472 
L 153.439603 284.255537 
L 153.672508 284.255537 
L 153.672508 283.696355 
L 154.036397 283.696355 
L 154.036397 283.137173 
L 154.105947 283.137173 
L 154.105947 282.577991 
L 154.137731 282.577991 
L 154.137731 281.459626 
L 154.195368 281.459626 
L 154.195368 280.341262 
L 154.861301 280.341262 
L 154.861301 279.782079 
L 155.130433 279.782079 
L 155.130433 278.104533 
L 155.659029 278.104533 
L 155.659029 277.545351 
L 156.012109 277.545351 
L 156.012109 276.986168 
L 156.248641 276.986168 
L 156.248641 276.426986 
L 157.032291 276.426986 
L 157.032291 275.867804 
L 158.064419 275.867804 
L 158.064419 275.308622 
L 158.401155 275.308622 
L 158.401155 274.749439 
L 159.04246 274.749439 
L 159.04246 273.631075 
L 159.333035 273.631075 
L 159.333035 273.071893 
L 161.003657 273.071893 
L 161.003657 271.953528 
L 161.501885 271.953528 
L 161.501885 271.394346 
L 162.982904 271.394346 
L 162.982904 270.835164 
L 164.809078 270.835164 
L 164.809078 269.716799 
L 167.008185 269.716799 
L 167.008185 269.157617 
L 167.981566 269.157617 
L 167.981566 268.039252 
L 230.585834 268.039252 
L 230.585834 267.48007 
L 230.608116 267.48007 
L 230.608116 266.920888 
L 230.622514 266.920888 
L 230.622514 266.361706 
L 230.655398 266.361706 
L 230.655398 265.802523 
L 230.686904 265.802523 
L 230.686904 265.243341 
L 230.722493 265.243341 
L 230.722493 264.684159 
L 230.800325 264.684159 
L 230.800325 263.006612 
L 230.812553 263.006612 
L 230.812553 262.44743 
L 242.42929 262.44743 
L 242.42929 261.888248 
L 242.440998 261.888248 
L 242.440998 261.329066 
L 242.443469 261.329066 
L 242.443469 260.769883 
L 242.464409 260.769883 
L 242.464409 260.210701 
L 242.500611 260.210701 
L 242.500611 259.651519 
L 242.507028 259.651519 
L 242.507028 259.092337 
L 242.514834 259.092337 
L 242.514834 258.533154 
L 249.405297 258.533154 
L 249.405297 257.973972 
L 249.410524 257.973972 
L 249.410524 257.41479 
L 258.104968 257.41479 
L 258.104968 256.855608 
L 258.131566 256.855608 
L 258.131566 256.296425 
L 273.139087 256.296425 
L 273.139087 255.737243 
L 333.429677 255.737243 
" style="fill:none;stroke:#6495ed;stroke-linecap:square;stroke-width:1.5;"/>
   </g>
   <g id="line2d_40">
    <defs>
     <path d="M -0 6 
L 6 -6 
L -6 -6 
z
" id="m15127fba5a" style="stroke:#6495ed;stroke-linejoin:miter;stroke-width:1.5;"/>
    </defs>
    <g>
     <use style="fill-opacity:0;stroke:#6495ed;stroke-linejoin:miter;stroke-width:1.5;" x="167.981566" xlink:href="#m15127fba5a" y="269.157617"/>
     <use style="fill-opacity:0;stroke:#6495ed;stroke-linejoin:miter;stroke-width:1.5;" x="258.131566" xlink:href="#m15127fba5a" y="256.855608"/>
     <use style="fill-opacity:0;stroke:#6495ed;stroke-linejoin:miter;stroke-width:1.5;" x="273.139087" xlink:href="#m15127fba5a" y="256.296425"/>
     <use style="fill-opacity:0;stroke:#6495ed;stroke-linejoin:miter;stroke-width:1.5;" x="273.139087" xlink:href="#m15127fba5a" y="255.737243"/>
     <use style="fill-opacity:0;stroke:#6495ed;stroke-linejoin:miter;stroke-width:1.5;" x="333.429677" xlink:href="#m15127fba5a" y="255.737243"/>
    </g>
   </g>
   <g id="line2d_41">
    <path style="fill:none;stroke:#6495ed;stroke-linecap:square;stroke-width:1.5;"/>
    <g/>
   </g>
   <g id="line2d_42">
    <path clip-path="url(#p2e369dd59e)" d="M 230.347349 268.039252 
" style="fill:none;stroke:#6495ed;stroke-linecap:square;stroke-width:1.5;"/>
    <defs>
     <path d="M -12 12 
L 12 -12 
M -12 -12 
L 12 12 
" id="mba1f8eee55" style="stroke:#6495ed;stroke-width:3;"/>
    </defs>
    <g clip-path="url(#p2e369dd59e)">
     <use style="fill:#6495ed;stroke:#6495ed;stroke-width:3;" x="230.347349" xlink:href="#mba1f8eee55" y="268.039252"/>
    </g>
   </g>
   <g id="line2d_43">
    <path d="M 333.429677 261.329066 
L 363.933742 289.176341 
" style="fill:none;stroke:#000080;stroke-linecap:square;stroke-width:1.5;"/>
    <g>
     <use style="fill-opacity:0;stroke:#000080;stroke-width:1.5;" x="333.429677" xlink:href="#m52733d2b7a" y="261.329066"/>
     <use style="fill-opacity:0;stroke:#000080;stroke-width:1.5;" x="363.933742" xlink:href="#m52733d2b7a" y="289.176341"/>
    </g>
   </g>
   <g id="line2d_44">
    <path d="M 333.429677 261.329066 
L 363.933742 197.917799 
" style="fill:none;stroke:#ff00ff;stroke-linecap:square;stroke-width:1.5;"/>
    <g>
     <use style="fill-opacity:0;stroke:#ff00ff;stroke-linejoin:miter;stroke-width:1.5;" x="333.429677" xlink:href="#mcbc1bbebf3" y="261.329066"/>
     <use style="fill-opacity:0;stroke:#ff00ff;stroke-linejoin:miter;stroke-width:1.5;" x="363.933742" xlink:href="#mcbc1bbebf3" y="197.917799"/>
    </g>
   </g>
   <g id="line2d_45">
    <path d="M 333.429677 255.737243 
L 363.933742 106.659258 
" style="fill:none;stroke:#6495ed;stroke-linecap:square;stroke-width:1.5;"/>
    <g>
     <use style="fill-opacity:0;stroke:#6495ed;stroke-linejoin:miter;stroke-width:1.5;" x="333.429677" xlink:href="#m15127fba5a" y="255.737243"/>
     <use style="fill-opacity:0;stroke:#6495ed;stroke-linejoin:miter;stroke-width:1.5;" x="363.933742" xlink:href="#m15127fba5a" y="106.659258"/>
    </g>
   </g>
   <g id="line2d_46">
    <path d="M 333.429677 9.697057 
L 363.933742 15.400716 
" style="fill:none;stroke:#ffa500;stroke-linecap:square;stroke-width:1.5;"/>
    <g>
     <use style="fill-opacity:0;stroke:#ffa500;stroke-linejoin:bevel;stroke-width:1.5;" x="333.429677" xlink:href="#mb2f2c351f1" y="9.697057"/>
     <use style="fill-opacity:0;stroke:#ffa500;stroke-linejoin:bevel;stroke-width:1.5;" x="363.933742" xlink:href="#mb2f2c351f1" y="15.400716"/>
    </g>
   </g>
   <g id="line2d_47">
    <path d="M 333.429677 294.88 
L 333.429677 9.697057 
" style="fill:none;stroke:#000000;stroke-linecap:square;stroke-width:1.5;"/>
   </g>
   <g id="patch_3">
    <path d="M 56.12 294.88 
L 56.12 6.845228 
" style="fill:none;stroke:#000000;stroke-linecap:square;stroke-linejoin:miter;stroke-width:0.8;"/>
   </g>
   <g id="patch_4">
    <path d="M 399.984 294.88 
L 399.984 6.845228 
" style="fill:none;stroke:#000000;stroke-linecap:square;stroke-linejoin:miter;stroke-width:0.8;"/>
   </g>
   <g id="patch_5">
    <path d="M 56.12 294.88 
L 399.984 294.88 
" style="fill:none;stroke:#000000;stroke-linecap:square;stroke-linejoin:miter;stroke-width:0.8;"/>
   </g>
   <g id="patch_6">
    <path d="M 56.12 6.845228 
L 399.984 6.845228 
" style="fill:none;stroke:#000000;stroke-linecap:square;stroke-linejoin:miter;stroke-width:0.8;"/>
   </g>
   <g id="text_14">
    <!-- f8 -->
    <g transform="translate(369.479935 293.867279)scale(0.17 -0.17)">
     <use xlink:href="#DejaVuSans-66"/>
     <use x="35.205078" xlink:href="#DejaVuSans-38"/>
    </g>
   </g>
   <g id="text_15">
    <!-- f9 -->
    <defs>
     <path d="M 10.984375 1.515625 
L 10.984375 10.5 
Q 14.703125 8.734375 18.5 7.8125 
Q 22.3125 6.890625 25.984375 6.890625 
Q 35.75 6.890625 40.890625 13.453125 
Q 46.046875 20.015625 46.78125 33.40625 
Q 43.953125 29.203125 39.59375 26.953125 
Q 35.25 24.703125 29.984375 24.703125 
Q 19.046875 24.703125 12.671875 31.3125 
Q 6.296875 37.9375 6.296875 49.421875 
Q 6.296875 60.640625 12.9375 67.421875 
Q 19.578125 74.21875 30.609375 74.21875 
Q 43.265625 74.21875 49.921875 64.515625 
Q 56.59375 54.828125 56.59375 36.375 
Q 56.59375 19.140625 48.40625 8.859375 
Q 40.234375 -1.421875 26.421875 -1.421875 
Q 22.703125 -1.421875 18.890625 -0.6875 
Q 15.09375 0.046875 10.984375 1.515625 
z
M 30.609375 32.421875 
Q 37.25 32.421875 41.125 36.953125 
Q 45.015625 41.5 45.015625 49.421875 
Q 45.015625 57.28125 41.125 61.84375 
Q 37.25 66.40625 30.609375 66.40625 
Q 23.96875 66.40625 20.09375 61.84375 
Q 16.21875 57.28125 16.21875 49.421875 
Q 16.21875 41.5 20.09375 36.953125 
Q 23.96875 32.421875 30.609375 32.421875 
z
" id="DejaVuSans-39"/>
    </defs>
    <g transform="translate(369.479935 202.608737)scale(0.17 -0.17)">
     <use xlink:href="#DejaVuSans-66"/>
     <use x="35.205078" xlink:href="#DejaVuSans-39"/>
    </g>
   </g>
   <g id="text_16">
    <!-- f7 -->
    <defs>
     <path d="M 8.203125 72.90625 
L 55.078125 72.90625 
L 55.078125 68.703125 
L 28.609375 0 
L 18.3125 0 
L 43.21875 64.59375 
L 8.203125 64.59375 
z
" id="DejaVuSans-37"/>
    </defs>
    <g transform="translate(369.479935 111.350195)scale(0.17 -0.17)">
     <use xlink:href="#DejaVuSans-66"/>
     <use x="35.205078" xlink:href="#DejaVuSans-37"/>
    </g>
   </g>
   <g id="text_17">
    <!-- f6 -->
    <g transform="translate(369.479935 20.091654)scale(0.17 -0.17)">
     <use xlink:href="#DejaVuSans-66"/>
     <use x="35.205078" xlink:href="#DejaVuSans-36"/>
    </g>
   </g>
   <g id="text_18">
    <!-- bbob -->
    <defs>
     <path d="M 48.6875 27.296875 
Q 48.6875 37.203125 44.609375 42.84375 
Q 40.53125 48.484375 33.40625 48.484375 
Q 26.265625 48.484375 22.1875 42.84375 
Q 18.109375 37.203125 18.109375 27.296875 
Q 18.109375 17.390625 22.1875 11.75 
Q 26.265625 6.109375 33.40625 6.109375 
Q 40.53125 6.109375 44.609375 11.75 
Q 48.6875 17.390625 48.6875 27.296875 
z
M 18.109375 46.390625 
Q 20.953125 51.265625 25.265625 53.625 
Q 29.59375 56 35.59375 56 
Q 45.5625 56 51.78125 48.09375 
Q 58.015625 40.1875 58.015625 27.296875 
Q 58.015625 14.40625 51.78125 6.484375 
Q 45.5625 -1.421875 35.59375 -1.421875 
Q 29.59375 -1.421875 25.265625 0.953125 
Q 20.953125 3.328125 18.109375 8.203125 
L 18.109375 0 
L 9.078125 0 
L 9.078125 75.984375 
L 18.109375 75.984375 
z
" id="DejaVuSans-62"/>
    </defs>
    <g transform="translate(59.55864 17.475982)scale(0.102 -0.102)">
     <use xlink:href="#DejaVuSans-62"/>
     <use x="63.476562" xlink:href="#DejaVuSans-62"/>
     <use x="126.953125" xlink:href="#DejaVuSans-6f"/>
     <use x="188.134766" xlink:href="#DejaVuSans-62"/>
    </g>
    <!-- Misc. moderate functions, 40-D -->
    <defs>
     <path d="M 9.8125 72.90625 
L 24.515625 72.90625 
L 43.109375 23.296875 
L 61.8125 72.90625 
L 76.515625 72.90625 
L 76.515625 0 
L 66.890625 0 
L 66.890625 64.015625 
L 48.09375 14.015625 
L 38.1875 14.015625 
L 19.390625 64.015625 
L 19.390625 0 
L 9.8125 0 
z
" id="DejaVuSans-4d"/>
     <path d="M 19.671875 64.796875 
L 19.671875 8.109375 
L 31.59375 8.109375 
Q 46.6875 8.109375 53.6875 14.9375 
Q 60.6875 21.78125 60.6875 36.53125 
Q 60.6875 51.171875 53.6875 57.984375 
Q 46.6875 64.796875 31.59375 64.796875 
z
M 9.8125 72.90625 
L 30.078125 72.90625 
Q 51.265625 72.90625 61.171875 64.09375 
Q 71.09375 55.28125 71.09375 36.53125 
Q 71.09375 17.671875 61.125 8.828125 
Q 51.171875 0 30.078125 0 
L 9.8125 0 
z
" id="DejaVuSans-44"/>
    </defs>
    <g transform="translate(59.55864 28.89775)scale(0.102 -0.102)">
     <use xlink:href="#DejaVuSans-4d"/>
     <use x="86.279297" xlink:href="#DejaVuSans-69"/>
     <use x="114.0625" xlink:href="#DejaVuSans-73"/>
     <use x="166.162109" xlink:href="#DejaVuSans-63"/>
     <use x="221.142578" xlink:href="#DejaVuSans-2e"/>
     <use x="252.929688" xlink:href="#DejaVuSans-20"/>
     <use x="284.716797" xlink:href="#DejaVuSans-6d"/>
     <use x="382.128906" xlink:href="#DejaVuSans-6f"/>
     <use x="443.310547" xlink:href="#DejaVuSans-64"/>
     <use x="506.787109" xlink:href="#DejaVuSans-65"/>
     <use x="568.310547" xlink:href="#DejaVuSans-72"/>
     <use x="609.423828" xlink:href="#DejaVuSans-61"/>
     <use x="670.703125" xlink:href="#DejaVuSans-74"/>
     <use x="709.912109" xlink:href="#DejaVuSans-65"/>
     <use x="771.435547" xlink:href="#DejaVuSans-20"/>
     <use x="803.222656" xlink:href="#DejaVuSans-66"/>
     <use x="838.427734" xlink:href="#DejaVuSans-75"/>
     <use x="901.806641" xlink:href="#DejaVuSans-6e"/>
     <use x="965.185547" xlink:href="#DejaVuSans-63"/>
     <use x="1020.166016" xlink:href="#DejaVuSans-74"/>
     <use x="1059.375" xlink:href="#DejaVuSans-69"/>
     <use x="1087.158203" xlink:href="#DejaVuSans-6f"/>
     <use x="1148.339844" xlink:href="#DejaVuSans-6e"/>
     <use x="1211.71875" xlink:href="#DejaVuSans-73"/>
     <use x="1263.818359" xlink:href="#DejaVuSans-2c"/>
     <use x="1295.605469" xlink:href="#DejaVuSans-20"/>
     <use x="1327.392578" xlink:href="#DejaVuSans-34"/>
     <use x="1391.015625" xlink:href="#DejaVuSans-30"/>
     <use x="1454.638672" xlink:href="#DejaVuSans-2d"/>
     <use x="1490.722656" xlink:href="#DejaVuSans-44"/>
    </g>
    <!-- 51 targets: 100..1e-08 -->
    <defs>
     <path d="M 10.796875 72.90625 
L 49.515625 72.90625 
L 49.515625 64.59375 
L 19.828125 64.59375 
L 19.828125 46.734375 
Q 21.96875 47.46875 24.109375 47.828125 
Q 26.265625 48.1875 28.421875 48.1875 
Q 40.625 48.1875 47.75 41.5 
Q 54.890625 34.8125 54.890625 23.390625 
Q 54.890625 11.625 47.5625 5.09375 
Q 40.234375 -1.421875 26.90625 -1.421875 
Q 22.3125 -1.421875 17.546875 -0.640625 
Q 12.796875 0.140625 7.71875 1.703125 
L 7.71875 11.625 
Q 12.109375 9.234375 16.796875 8.0625 
Q 21.484375 6.890625 26.703125 6.890625 
Q 35.15625 6.890625 40.078125 11.328125 
Q 45.015625 15.765625 45.015625 23.390625 
Q 45.015625 31 40.078125 35.4375 
Q 35.15625 39.890625 26.703125 39.890625 
Q 22.75 39.890625 18.8125 39.015625 
Q 14.890625 38.140625 10.796875 36.28125 
z
" id="DejaVuSans-35"/>
     <path d="M 11.71875 12.40625 
L 22.015625 12.40625 
L 22.015625 0 
L 11.71875 0 
z
M 11.71875 51.703125 
L 22.015625 51.703125 
L 22.015625 39.3125 
L 11.71875 39.3125 
z
" id="DejaVuSans-3a"/>
    </defs>
    <g transform="translate(59.55864 40.319519)scale(0.102 -0.102)">
     <use xlink:href="#DejaVuSans-35"/>
     <use x="63.623047" xlink:href="#DejaVuSans-31"/>
     <use x="127.246094" xlink:href="#DejaVuSans-20"/>
     <use x="159.033203" xlink:href="#DejaVuSans-74"/>
     <use x="198.242188" xlink:href="#DejaVuSans-61"/>
     <use x="259.521484" xlink:href="#DejaVuSans-72"/>
     <use x="300.619141" xlink:href="#DejaVuSans-67"/>
     <use x="364.095703" xlink:href="#DejaVuSans-65"/>
     <use x="425.619141" xlink:href="#DejaVuSans-74"/>
     <use x="464.828125" xlink:href="#DejaVuSans-73"/>
     <use x="516.927734" xlink:href="#DejaVuSans-3a"/>
     <use x="550.619141" xlink:href="#DejaVuSans-20"/>
     <use x="582.40625" xlink:href="#DejaVuSans-31"/>
     <use x="646.029297" xlink:href="#DejaVuSans-30"/>
     <use x="709.652344" xlink:href="#DejaVuSans-30"/>
     <use x="773.275391" xlink:href="#DejaVuSans-2e"/>
     <use x="805.0625" xlink:href="#DejaVuSans-2e"/>
     <use x="836.849609" xlink:href="#DejaVuSans-31"/>
     <use x="900.472656" xlink:href="#DejaVuSans-65"/>
     <use x="961.996094" xlink:href="#DejaVuSans-2d"/>
     <use x="998.080078" xlink:href="#DejaVuSans-30"/>
     <use x="1061.703125" xlink:href="#DejaVuSans-38"/>
    </g>
    <!-- 15 instances -->
    <g transform="translate(59.55864 51.741288)scale(0.102 -0.102)">
     <use xlink:href="#DejaVuSans-31"/>
     <use x="63.623047" xlink:href="#DejaVuSans-35"/>
     <use x="127.246094" xlink:href="#DejaVuSans-20"/>
     <use x="159.033203" xlink:href="#DejaVuSans-69"/>
     <use x="186.816406" xlink:href="#DejaVuSans-6e"/>
     <use x="250.195312" xlink:href="#DejaVuSans-73"/>
     <use x="302.294922" xlink:href="#DejaVuSans-74"/>
     <use x="341.503906" xlink:href="#DejaVuSans-61"/>
     <use x="402.783203" xlink:href="#DejaVuSans-6e"/>
     <use x="466.162109" xlink:href="#DejaVuSans-63"/>
     <use x="521.142578" xlink:href="#DejaVuSans-65"/>
     <use x="582.666016" xlink:href="#DejaVuSans-73"/>
    </g>
   </g>
   <g id="text_19">
    <!-- v0.0.0 -->
    <g style="fill:#808080;" transform="translate(212.37075 289.919965)scale(0.1 -0.1)">
     <use xlink:href="#DejaVuSans-76"/>
     <use x="59.179688" xlink:href="#DejaVuSans-30"/>
     <use x="122.802734" xlink:href="#DejaVuSans-2e"/>
     <use x="154.589844" xlink:href="#DejaVuSans-30"/>
     <use x="218.212891" xlink:href="#DejaVuSans-2e"/>
     <use x="250" xlink:href="#DejaVuSans-30"/>
    </g>
   </g>
  </g>
 </g>
 <defs>
  <clipPath id="p2e369dd59e">
   <rect height="288.034772" width="343.864" x="56.12" y="6.845228"/>
  </clipPath>
 </defs>
</svg>
