<?xml version="1.0" encoding="utf-8" standalone="no"?>
<!DOCTYPE svg PUBLIC "-//W3C//DTD SVG 1.1//EN"
  "http://www.w3.org/Graphics/SVG/1.1/DTD/svg11.dtd">
<!-- Created with matplotlib (http://matplotlib.org/) -->
<svg height="345.6pt" version="1.1" viewBox="0 0 460.8 345.6" width="460.8pt" xmlns="http://www.w3.org/2000/svg" xmlns:xlink="http://www.w3.org/1999/xlink">
 <defs>
  <style type="text/css">
*{stroke-linecap:butt;stroke-linejoin:round;}
  </style>
 </defs>
 <g id="figure_1">
  <g id="patch_1">
   <path d="M 0 345.6 
L 460.8 345.6 
L 460.8 0 
L 0 0 
z
" style="fill:#ffffff;"/>
  </g>
  <g id="axes_1">
   <g id="patch_2">
    <path d="M 56.12 294.88 
L 399.984 294.88 
L 399.984 6.845228 
L 56.12 6.845228 
z
" style="fill:#ffffff;"/>
   </g>
   <g id="matplotlib.axis_1">
    <g id="xtick_1">
     <g id="line2d_1">
      <path clip-path="url(#p5981db35ac)" d="M 56.12 294.88 
L 56.12 6.845228 
" style="fill:none;stroke:#b0b0b0;stroke-linecap:square;stroke-width:0.8;"/>
     </g>
     <g id="line2d_2">
      <defs>
       <path d="M 0 0 
L 0 3.5 
" id="m1e2ebd99cb" style="stroke:#000000;stroke-width:0.8;"/>
      </defs>
      <g>
       <use style="stroke:#000000;stroke-width:0.8;" x="56.12" xlink:href="#m1e2ebd99cb" y="294.88"/>
      </g>
     </g>
     <g id="text_1">
      <!-- 0 -->
      <defs>
       <path d="M 31.78125 66.40625 
Q 24.171875 66.40625 20.328125 58.90625 
Q 16.5 51.421875 16.5 36.375 
Q 16.5 21.390625 20.328125 13.890625 
Q 24.171875 6.390625 31.78125 6.390625 
Q 39.453125 6.390625 43.28125 13.890625 
Q 47.125 21.390625 47.125 36.375 
Q 47.125 51.421875 43.28125 58.90625 
Q 39.453125 66.40625 31.78125 66.40625 
z
M 31.78125 74.21875 
Q 44.046875 74.21875 50.515625 64.515625 
Q 56.984375 54.828125 56.984375 36.375 
Q 56.984375 17.96875 50.515625 8.265625 
Q 44.046875 -1.421875 31.78125 -1.421875 
Q 19.53125 -1.421875 13.0625 8.265625 
Q 6.59375 17.96875 6.59375 36.375 
Q 6.59375 54.828125 13.0625 64.515625 
Q 19.53125 74.21875 31.78125 74.21875 
z
" id="DejaVuSans-30"/>
      </defs>
      <g transform="translate(49.7575 317.076875)scale(0.2 -0.2)">
       <use xlink:href="#DejaVuSans-30"/>
      </g>
     </g>
    </g>
    <g id="xtick_2">
     <g id="line2d_3">
      <path clip-path="url(#p5981db35ac)" d="M 135.351336 294.88 
L 135.351336 6.845228 
" style="fill:none;stroke:#b0b0b0;stroke-linecap:square;stroke-width:0.8;"/>
     </g>
     <g id="line2d_4">
      <g>
       <use style="stroke:#000000;stroke-width:0.8;" x="135.351336" xlink:href="#m1e2ebd99cb" y="294.88"/>
      </g>
     </g>
     <g id="text_2">
      <!-- 2 -->
      <defs>
       <path d="M 19.1875 8.296875 
L 53.609375 8.296875 
L 53.609375 0 
L 7.328125 0 
L 7.328125 8.296875 
Q 12.9375 14.109375 22.625 23.890625 
Q 32.328125 33.6875 34.8125 36.53125 
Q 39.546875 41.84375 41.421875 45.53125 
Q 43.3125 49.21875 43.3125 52.78125 
Q 43.3125 58.59375 39.234375 62.25 
Q 35.15625 65.921875 28.609375 65.921875 
Q 23.96875 65.921875 18.8125 64.3125 
Q 13.671875 62.703125 7.8125 59.421875 
L 7.8125 69.390625 
Q 13.765625 71.78125 18.9375 73 
Q 24.125 74.21875 28.421875 74.21875 
Q 39.75 74.21875 46.484375 68.546875 
Q 53.21875 62.890625 53.21875 53.421875 
Q 53.21875 48.921875 51.53125 44.890625 
Q 49.859375 40.875 45.40625 35.40625 
Q 44.1875 33.984375 37.640625 27.21875 
Q 31.109375 20.453125 19.1875 8.296875 
z
" id="DejaVuSans-32"/>
      </defs>
      <g transform="translate(128.988836 317.076875)scale(0.2 -0.2)">
       <use xlink:href="#DejaVuSans-32"/>
      </g>
     </g>
    </g>
    <g id="xtick_3">
     <g id="line2d_5">
      <path clip-path="url(#p5981db35ac)" d="M 214.582673 294.88 
L 214.582673 6.845228 
" style="fill:none;stroke:#b0b0b0;stroke-linecap:square;stroke-width:0.8;"/>
     </g>
     <g id="line2d_6">
      <g>
       <use style="stroke:#000000;stroke-width:0.8;" x="214.582673" xlink:href="#m1e2ebd99cb" y="294.88"/>
      </g>
     </g>
     <g id="text_3">
      <!-- 4 -->
      <defs>
       <path d="M 37.796875 64.3125 
L 12.890625 25.390625 
L 37.796875 25.390625 
z
M 35.203125 72.90625 
L 47.609375 72.90625 
L 47.609375 25.390625 
L 58.015625 25.390625 
L 58.015625 17.1875 
L 47.609375 17.1875 
L 47.609375 0 
L 37.796875 0 
L 37.796875 17.1875 
L 4.890625 17.1875 
L 4.890625 26.703125 
z
" id="DejaVuSans-34"/>
      </defs>
      <g transform="translate(208.220173 317.076875)scale(0.2 -0.2)">
       <use xlink:href="#DejaVuSans-34"/>
      </g>
     </g>
    </g>
    <g id="xtick_4">
     <g id="line2d_7">
      <path clip-path="url(#p5981db35ac)" d="M 293.814009 294.88 
L 293.814009 6.845228 
" style="fill:none;stroke:#b0b0b0;stroke-linecap:square;stroke-width:0.8;"/>
     </g>
     <g id="line2d_8">
      <g>
       <use style="stroke:#000000;stroke-width:0.8;" x="293.814009" xlink:href="#m1e2ebd99cb" y="294.88"/>
      </g>
     </g>
     <g id="text_4">
      <!-- 6 -->
      <defs>
       <path d="M 33.015625 40.375 
Q 26.375 40.375 22.484375 35.828125 
Q 18.609375 31.296875 18.609375 23.390625 
Q 18.609375 15.53125 22.484375 10.953125 
Q 26.375 6.390625 33.015625 6.390625 
Q 39.65625 6.390625 43.53125 10.953125 
Q 47.40625 15.53125 47.40625 23.390625 
Q 47.40625 31.296875 43.53125 35.828125 
Q 39.65625 40.375 33.015625 40.375 
z
M 52.59375 71.296875 
L 52.59375 62.3125 
Q 48.875 64.0625 45.09375 64.984375 
Q 41.3125 65.921875 37.59375 65.921875 
Q 27.828125 65.921875 22.671875 59.328125 
Q 17.53125 52.734375 16.796875 39.40625 
Q 19.671875 43.65625 24.015625 45.921875 
Q 28.375 48.1875 33.59375 48.1875 
Q 44.578125 48.1875 50.953125 41.515625 
Q 57.328125 34.859375 57.328125 23.390625 
Q 57.328125 12.15625 50.6875 5.359375 
Q 44.046875 -1.421875 33.015625 -1.421875 
Q 20.359375 -1.421875 13.671875 8.265625 
Q 6.984375 17.96875 6.984375 36.375 
Q 6.984375 53.65625 15.1875 63.9375 
Q 23.390625 74.21875 37.203125 74.21875 
Q 40.921875 74.21875 44.703125 73.484375 
Q 48.484375 72.75 52.59375 71.296875 
z
" id="DejaVuSans-36"/>
      </defs>
      <g transform="translate(287.451509 317.076875)scale(0.2 -0.2)">
       <use xlink:href="#DejaVuSans-36"/>
      </g>
     </g>
    </g>
    <g id="xtick_5">
     <g id="line2d_9">
      <path clip-path="url(#p5981db35ac)" d="M 373.045346 294.88 
L 373.045346 6.845228 
" style="fill:none;stroke:#b0b0b0;stroke-linecap:square;stroke-width:0.8;"/>
     </g>
     <g id="line2d_10">
      <g>
       <use style="stroke:#000000;stroke-width:0.8;" x="373.045346" xlink:href="#m1e2ebd99cb" y="294.88"/>
      </g>
     </g>
     <g id="text_5">
      <!-- 8 -->
      <defs>
       <path d="M 31.78125 34.625 
Q 24.75 34.625 20.71875 30.859375 
Q 16.703125 27.09375 16.703125 20.515625 
Q 16.703125 13.921875 20.71875 10.15625 
Q 24.75 6.390625 31.78125 6.390625 
Q 38.8125 6.390625 42.859375 10.171875 
Q 46.921875 13.96875 46.921875 20.515625 
Q 46.921875 27.09375 42.890625 30.859375 
Q 38.875 34.625 31.78125 34.625 
z
M 21.921875 38.8125 
Q 15.578125 40.375 12.03125 44.71875 
Q 8.5 49.078125 8.5 55.328125 
Q 8.5 64.0625 14.71875 69.140625 
Q 20.953125 74.21875 31.78125 74.21875 
Q 42.671875 74.21875 48.875 69.140625 
Q 55.078125 64.0625 55.078125 55.328125 
Q 55.078125 49.078125 51.53125 44.71875 
Q 48 40.375 41.703125 38.8125 
Q 48.828125 37.15625 52.796875 32.3125 
Q 56.78125 27.484375 56.78125 20.515625 
Q 56.78125 9.90625 50.3125 4.234375 
Q 43.84375 -1.421875 31.78125 -1.421875 
Q 19.734375 -1.421875 13.25 4.234375 
Q 6.78125 9.90625 6.78125 20.515625 
Q 6.78125 27.484375 10.78125 32.3125 
Q 14.796875 37.15625 21.921875 38.8125 
z
M 18.3125 54.390625 
Q 18.3125 48.734375 21.84375 45.5625 
Q 25.390625 42.390625 31.78125 42.390625 
Q 38.140625 42.390625 41.71875 45.5625 
Q 45.3125 48.734375 45.3125 54.390625 
Q 45.3125 60.0625 41.71875 63.234375 
Q 38.140625 66.40625 31.78125 66.40625 
Q 25.390625 66.40625 21.84375 63.234375 
Q 18.3125 60.0625 18.3125 54.390625 
z
" id="DejaVuSans-38"/>
      </defs>
      <g transform="translate(366.682846 317.076875)scale(0.2 -0.2)">
       <use xlink:href="#DejaVuSans-38"/>
      </g>
     </g>
    </g>
    <g id="text_6">
     <!-- log10(# f-evals / dimension) -->
     <defs>
      <path d="M 9.421875 75.984375 
L 18.40625 75.984375 
L 18.40625 0 
L 9.421875 0 
z
" id="DejaVuSans-6c"/>
      <path d="M 30.609375 48.390625 
Q 23.390625 48.390625 19.1875 42.75 
Q 14.984375 37.109375 14.984375 27.296875 
Q 14.984375 17.484375 19.15625 11.84375 
Q 23.34375 6.203125 30.609375 6.203125 
Q 37.796875 6.203125 41.984375 11.859375 
Q 46.1875 17.53125 46.1875 27.296875 
Q 46.1875 37.015625 41.984375 42.703125 
Q 37.796875 48.390625 30.609375 48.390625 
z
M 30.609375 56 
Q 42.328125 56 49.015625 48.375 
Q 55.71875 40.765625 55.71875 27.296875 
Q 55.71875 13.875 49.015625 6.21875 
Q 42.328125 -1.421875 30.609375 -1.421875 
Q 18.84375 -1.421875 12.171875 6.21875 
Q 5.515625 13.875 5.515625 27.296875 
Q 5.515625 40.765625 12.171875 48.375 
Q 18.84375 56 30.609375 56 
z
" id="DejaVuSans-6f"/>
      <path d="M 45.40625 27.984375 
Q 45.40625 37.75 41.375 43.109375 
Q 37.359375 48.484375 30.078125 48.484375 
Q 22.859375 48.484375 18.828125 43.109375 
Q 14.796875 37.75 14.796875 27.984375 
Q 14.796875 18.265625 18.828125 12.890625 
Q 22.859375 7.515625 30.078125 7.515625 
Q 37.359375 7.515625 41.375 12.890625 
Q 45.40625 18.265625 45.40625 27.984375 
z
M 54.390625 6.78125 
Q 54.390625 -7.171875 48.1875 -13.984375 
Q 42 -20.796875 29.203125 -20.796875 
Q 24.46875 -20.796875 20.265625 -20.09375 
Q 16.0625 -19.390625 12.109375 -17.921875 
L 12.109375 -9.1875 
Q 16.0625 -11.328125 19.921875 -12.34375 
Q 23.78125 -13.375 27.78125 -13.375 
Q 36.625 -13.375 41.015625 -8.765625 
Q 45.40625 -4.15625 45.40625 5.171875 
L 45.40625 9.625 
Q 42.625 4.78125 38.28125 2.390625 
Q 33.9375 0 27.875 0 
Q 17.828125 0 11.671875 7.65625 
Q 5.515625 15.328125 5.515625 27.984375 
Q 5.515625 40.671875 11.671875 48.328125 
Q 17.828125 56 27.875 56 
Q 33.9375 56 38.28125 53.609375 
Q 42.625 51.21875 45.40625 46.390625 
L 45.40625 54.6875 
L 54.390625 54.6875 
z
" id="DejaVuSans-67"/>
      <path d="M 12.40625 8.296875 
L 28.515625 8.296875 
L 28.515625 63.921875 
L 10.984375 60.40625 
L 10.984375 69.390625 
L 28.421875 72.90625 
L 38.28125 72.90625 
L 38.28125 8.296875 
L 54.390625 8.296875 
L 54.390625 0 
L 12.40625 0 
z
" id="DejaVuSans-31"/>
      <path d="M 31 75.875 
Q 24.46875 64.65625 21.28125 53.65625 
Q 18.109375 42.671875 18.109375 31.390625 
Q 18.109375 20.125 21.3125 9.0625 
Q 24.515625 -2 31 -13.1875 
L 23.1875 -13.1875 
Q 15.875 -1.703125 12.234375 9.375 
Q 8.59375 20.453125 8.59375 31.390625 
Q 8.59375 42.28125 12.203125 53.3125 
Q 15.828125 64.359375 23.1875 75.875 
z
" id="DejaVuSans-28"/>
      <path d="M 51.125 44 
L 36.921875 44 
L 32.8125 27.6875 
L 47.125 27.6875 
z
M 43.796875 71.78125 
L 38.71875 51.515625 
L 52.984375 51.515625 
L 58.109375 71.78125 
L 65.921875 71.78125 
L 60.890625 51.515625 
L 76.125 51.515625 
L 76.125 44 
L 58.984375 44 
L 54.984375 27.6875 
L 70.515625 27.6875 
L 70.515625 20.21875 
L 53.078125 20.21875 
L 48 0 
L 40.1875 0 
L 45.21875 20.21875 
L 30.90625 20.21875 
L 25.875 0 
L 18.015625 0 
L 23.09375 20.21875 
L 7.71875 20.21875 
L 7.71875 27.6875 
L 24.90625 27.6875 
L 29 44 
L 13.28125 44 
L 13.28125 51.515625 
L 30.90625 51.515625 
L 35.890625 71.78125 
z
" id="DejaVuSans-23"/>
      <path id="DejaVuSans-20"/>
      <path d="M 37.109375 75.984375 
L 37.109375 68.5 
L 28.515625 68.5 
Q 23.6875 68.5 21.796875 66.546875 
Q 19.921875 64.59375 19.921875 59.515625 
L 19.921875 54.6875 
L 34.71875 54.6875 
L 34.71875 47.703125 
L 19.921875 47.703125 
L 19.921875 0 
L 10.890625 0 
L 10.890625 47.703125 
L 2.296875 47.703125 
L 2.296875 54.6875 
L 10.890625 54.6875 
L 10.890625 58.5 
Q 10.890625 67.625 15.140625 71.796875 
Q 19.390625 75.984375 28.609375 75.984375 
z
" id="DejaVuSans-66"/>
      <path d="M 4.890625 31.390625 
L 31.203125 31.390625 
L 31.203125 23.390625 
L 4.890625 23.390625 
z
" id="DejaVuSans-2d"/>
      <path d="M 56.203125 29.59375 
L 56.203125 25.203125 
L 14.890625 25.203125 
Q 15.484375 15.921875 20.484375 11.0625 
Q 25.484375 6.203125 34.421875 6.203125 
Q 39.59375 6.203125 44.453125 7.46875 
Q 49.3125 8.734375 54.109375 11.28125 
L 54.109375 2.78125 
Q 49.265625 0.734375 44.1875 -0.34375 
Q 39.109375 -1.421875 33.890625 -1.421875 
Q 20.796875 -1.421875 13.15625 6.1875 
Q 5.515625 13.8125 5.515625 26.8125 
Q 5.515625 40.234375 12.765625 48.109375 
Q 20.015625 56 32.328125 56 
Q 43.359375 56 49.78125 48.890625 
Q 56.203125 41.796875 56.203125 29.59375 
z
M 47.21875 32.234375 
Q 47.125 39.59375 43.09375 43.984375 
Q 39.0625 48.390625 32.421875 48.390625 
Q 24.90625 48.390625 20.390625 44.140625 
Q 15.875 39.890625 15.1875 32.171875 
z
" id="DejaVuSans-65"/>
      <path d="M 2.984375 54.6875 
L 12.5 54.6875 
L 29.59375 8.796875 
L 46.6875 54.6875 
L 56.203125 54.6875 
L 35.6875 0 
L 23.484375 0 
z
" id="DejaVuSans-76"/>
      <path d="M 34.28125 27.484375 
Q 23.390625 27.484375 19.1875 25 
Q 14.984375 22.515625 14.984375 16.5 
Q 14.984375 11.71875 18.140625 8.90625 
Q 21.296875 6.109375 26.703125 6.109375 
Q 34.1875 6.109375 38.703125 11.40625 
Q 43.21875 16.703125 43.21875 25.484375 
L 43.21875 27.484375 
z
M 52.203125 31.203125 
L 52.203125 0 
L 43.21875 0 
L 43.21875 8.296875 
Q 40.140625 3.328125 35.546875 0.953125 
Q 30.953125 -1.421875 24.3125 -1.421875 
Q 15.921875 -1.421875 10.953125 3.296875 
Q 6 8.015625 6 15.921875 
Q 6 25.140625 12.171875 29.828125 
Q 18.359375 34.515625 30.609375 34.515625 
L 43.21875 34.515625 
L 43.21875 35.40625 
Q 43.21875 41.609375 39.140625 45 
Q 35.0625 48.390625 27.6875 48.390625 
Q 23 48.390625 18.546875 47.265625 
Q 14.109375 46.140625 10.015625 43.890625 
L 10.015625 52.203125 
Q 14.9375 54.109375 19.578125 55.046875 
Q 24.21875 56 28.609375 56 
Q 40.484375 56 46.34375 49.84375 
Q 52.203125 43.703125 52.203125 31.203125 
z
" id="DejaVuSans-61"/>
      <path d="M 44.28125 53.078125 
L 44.28125 44.578125 
Q 40.484375 46.53125 36.375 47.5 
Q 32.28125 48.484375 27.875 48.484375 
Q 21.1875 48.484375 17.84375 46.4375 
Q 14.5 44.390625 14.5 40.28125 
Q 14.5 37.15625 16.890625 35.375 
Q 19.28125 33.59375 26.515625 31.984375 
L 29.59375 31.296875 
Q 39.15625 29.25 43.1875 25.515625 
Q 47.21875 21.78125 47.21875 15.09375 
Q 47.21875 7.46875 41.1875 3.015625 
Q 35.15625 -1.421875 24.609375 -1.421875 
Q 20.21875 -1.421875 15.453125 -0.5625 
Q 10.6875 0.296875 5.421875 2 
L 5.421875 11.28125 
Q 10.40625 8.6875 15.234375 7.390625 
Q 20.0625 6.109375 24.8125 6.109375 
Q 31.15625 6.109375 34.5625 8.28125 
Q 37.984375 10.453125 37.984375 14.40625 
Q 37.984375 18.0625 35.515625 20.015625 
Q 33.0625 21.96875 24.703125 23.78125 
L 21.578125 24.515625 
Q 13.234375 26.265625 9.515625 29.90625 
Q 5.8125 33.546875 5.8125 39.890625 
Q 5.8125 47.609375 11.28125 51.796875 
Q 16.75 56 26.8125 56 
Q 31.78125 56 36.171875 55.265625 
Q 40.578125 54.546875 44.28125 53.078125 
z
" id="DejaVuSans-73"/>
      <path d="M 25.390625 72.90625 
L 33.6875 72.90625 
L 8.296875 -9.28125 
L 0 -9.28125 
z
" id="DejaVuSans-2f"/>
      <path d="M 45.40625 46.390625 
L 45.40625 75.984375 
L 54.390625 75.984375 
L 54.390625 0 
L 45.40625 0 
L 45.40625 8.203125 
Q 42.578125 3.328125 38.25 0.953125 
Q 33.9375 -1.421875 27.875 -1.421875 
Q 17.96875 -1.421875 11.734375 6.484375 
Q 5.515625 14.40625 5.515625 27.296875 
Q 5.515625 40.1875 11.734375 48.09375 
Q 17.96875 56 27.875 56 
Q 33.9375 56 38.25 53.625 
Q 42.578125 51.265625 45.40625 46.390625 
z
M 14.796875 27.296875 
Q 14.796875 17.390625 18.875 11.75 
Q 22.953125 6.109375 30.078125 6.109375 
Q 37.203125 6.109375 41.296875 11.75 
Q 45.40625 17.390625 45.40625 27.296875 
Q 45.40625 37.203125 41.296875 42.84375 
Q 37.203125 48.484375 30.078125 48.484375 
Q 22.953125 48.484375 18.875 42.84375 
Q 14.796875 37.203125 14.796875 27.296875 
z
" id="DejaVuSans-64"/>
      <path d="M 9.421875 54.6875 
L 18.40625 54.6875 
L 18.40625 0 
L 9.421875 0 
z
M 9.421875 75.984375 
L 18.40625 75.984375 
L 18.40625 64.59375 
L 9.421875 64.59375 
z
" id="DejaVuSans-69"/>
      <path d="M 52 44.1875 
Q 55.375 50.25 60.0625 53.125 
Q 64.75 56 71.09375 56 
Q 79.640625 56 84.28125 50.015625 
Q 88.921875 44.046875 88.921875 33.015625 
L 88.921875 0 
L 79.890625 0 
L 79.890625 32.71875 
Q 79.890625 40.578125 77.09375 44.375 
Q 74.3125 48.1875 68.609375 48.1875 
Q 61.625 48.1875 57.5625 43.546875 
Q 53.515625 38.921875 53.515625 30.90625 
L 53.515625 0 
L 44.484375 0 
L 44.484375 32.71875 
Q 44.484375 40.625 41.703125 44.40625 
Q 38.921875 48.1875 33.109375 48.1875 
Q 26.21875 48.1875 22.15625 43.53125 
Q 18.109375 38.875 18.109375 30.90625 
L 18.109375 0 
L 9.078125 0 
L 9.078125 54.6875 
L 18.109375 54.6875 
L 18.109375 46.1875 
Q 21.1875 51.21875 25.484375 53.609375 
Q 29.78125 56 35.6875 56 
Q 41.65625 56 45.828125 52.96875 
Q 50 49.953125 52 44.1875 
z
" id="DejaVuSans-6d"/>
      <path d="M 54.890625 33.015625 
L 54.890625 0 
L 45.90625 0 
L 45.90625 32.71875 
Q 45.90625 40.484375 42.875 44.328125 
Q 39.84375 48.1875 33.796875 48.1875 
Q 26.515625 48.1875 22.3125 43.546875 
Q 18.109375 38.921875 18.109375 30.90625 
L 18.109375 0 
L 9.078125 0 
L 9.078125 54.6875 
L 18.109375 54.6875 
L 18.109375 46.1875 
Q 21.34375 51.125 25.703125 53.5625 
Q 30.078125 56 35.796875 56 
Q 45.21875 56 50.046875 50.171875 
Q 54.890625 44.34375 54.890625 33.015625 
z
" id="DejaVuSans-6e"/>
      <path d="M 8.015625 75.875 
L 15.828125 75.875 
Q 23.140625 64.359375 26.78125 53.3125 
Q 30.421875 42.28125 30.421875 31.390625 
Q 30.421875 20.453125 26.78125 9.375 
Q 23.140625 -1.703125 15.828125 -13.1875 
L 8.015625 -13.1875 
Q 14.5 -2 17.703125 9.0625 
Q 20.90625 20.125 20.90625 31.390625 
Q 20.90625 42.671875 17.703125 53.65625 
Q 14.5 64.65625 8.015625 75.875 
z
" id="DejaVuSans-29"/>
     </defs>
     <g transform="translate(107.211219 338.153594)scale(0.17 -0.17)">
      <use xlink:href="#DejaVuSans-6c"/>
      <use x="27.783203" xlink:href="#DejaVuSans-6f"/>
      <use x="88.964844" xlink:href="#DejaVuSans-67"/>
      <use x="152.441406" xlink:href="#DejaVuSans-31"/>
      <use x="216.064453" xlink:href="#DejaVuSans-30"/>
      <use x="279.6875" xlink:href="#DejaVuSans-28"/>
      <use x="318.701172" xlink:href="#DejaVuSans-23"/>
      <use x="402.490234" xlink:href="#DejaVuSans-20"/>
      <use x="434.277344" xlink:href="#DejaVuSans-66"/>
      <use x="469.404297" xlink:href="#DejaVuSans-2d"/>
      <use x="505.488281" xlink:href="#DejaVuSans-65"/>
      <use x="567.011719" xlink:href="#DejaVuSans-76"/>
      <use x="626.191406" xlink:href="#DejaVuSans-61"/>
      <use x="687.470703" xlink:href="#DejaVuSans-6c"/>
      <use x="715.253906" xlink:href="#DejaVuSans-73"/>
      <use x="767.353516" xlink:href="#DejaVuSans-20"/>
      <use x="799.140625" xlink:href="#DejaVuSans-2f"/>
      <use x="832.832031" xlink:href="#DejaVuSans-20"/>
      <use x="864.619141" xlink:href="#DejaVuSans-64"/>
      <use x="928.095703" xlink:href="#DejaVuSans-69"/>
      <use x="955.878906" xlink:href="#DejaVuSans-6d"/>
      <use x="1053.291016" xlink:href="#DejaVuSans-65"/>
      <use x="1114.814453" xlink:href="#DejaVuSans-6e"/>
      <use x="1178.193359" xlink:href="#DejaVuSans-73"/>
      <use x="1230.292969" xlink:href="#DejaVuSans-69"/>
      <use x="1258.076172" xlink:href="#DejaVuSans-6f"/>
      <use x="1319.257812" xlink:href="#DejaVuSans-6e"/>
      <use x="1382.636719" xlink:href="#DejaVuSans-29"/>
     </g>
    </g>
   </g>
   <g id="matplotlib.axis_2">
    <g id="ytick_1">
     <g id="line2d_11">
      <path clip-path="url(#p5981db35ac)" d="M 56.12 294.88 
L 399.984 294.88 
" style="fill:none;stroke:#b0b0b0;stroke-linecap:square;stroke-width:0.8;"/>
     </g>
     <g id="line2d_12">
      <defs>
       <path d="M 0 0 
L -3.5 0 
" id="mf4a960a35c" style="stroke:#000000;stroke-width:0.8;"/>
      </defs>
      <g>
       <use style="stroke:#000000;stroke-width:0.8;" x="56.12" xlink:href="#mf4a960a35c" y="294.88"/>
      </g>
     </g>
     <g id="text_7">
      <!-- 0.0 -->
      <defs>
       <path d="M 10.6875 12.40625 
L 21 12.40625 
L 21 0 
L 10.6875 0 
z
" id="DejaVuSans-2e"/>
      </defs>
      <g transform="translate(23.675 300.95875)scale(0.16 -0.16)">
       <use xlink:href="#DejaVuSans-30"/>
       <use x="63.623047" xlink:href="#DejaVuSans-2e"/>
       <use x="95.410156" xlink:href="#DejaVuSans-30"/>
      </g>
     </g>
    </g>
    <g id="ytick_2">
     <g id="line2d_13">
      <path clip-path="url(#p5981db35ac)" d="M 56.12 237.843411 
L 399.984 237.843411 
" style="fill:none;stroke:#b0b0b0;stroke-linecap:square;stroke-width:0.8;"/>
     </g>
     <g id="line2d_14">
      <g>
       <use style="stroke:#000000;stroke-width:0.8;" x="56.12" xlink:href="#mf4a960a35c" y="237.843411"/>
      </g>
     </g>
     <g id="text_8">
      <!-- 0.2 -->
      <g transform="translate(23.675 243.922161)scale(0.16 -0.16)">
       <use xlink:href="#DejaVuSans-30"/>
       <use x="63.623047" xlink:href="#DejaVuSans-2e"/>
       <use x="95.410156" xlink:href="#DejaVuSans-32"/>
      </g>
     </g>
    </g>
    <g id="ytick_3">
     <g id="line2d_15">
      <path clip-path="url(#p5981db35ac)" d="M 56.12 180.806823 
L 399.984 180.806823 
" style="fill:none;stroke:#b0b0b0;stroke-linecap:square;stroke-width:0.8;"/>
     </g>
     <g id="line2d_16">
      <g>
       <use style="stroke:#000000;stroke-width:0.8;" x="56.12" xlink:href="#mf4a960a35c" y="180.806823"/>
      </g>
     </g>
     <g id="text_9">
      <!-- 0.4 -->
      <g transform="translate(23.675 186.885573)scale(0.16 -0.16)">
       <use xlink:href="#DejaVuSans-30"/>
       <use x="63.623047" xlink:href="#DejaVuSans-2e"/>
       <use x="95.410156" xlink:href="#DejaVuSans-34"/>
      </g>
     </g>
    </g>
    <g id="ytick_4">
     <g id="line2d_17">
      <path clip-path="url(#p5981db35ac)" d="M 56.12 123.770234 
L 399.984 123.770234 
" style="fill:none;stroke:#b0b0b0;stroke-linecap:square;stroke-width:0.8;"/>
     </g>
     <g id="line2d_18">
      <g>
       <use style="stroke:#000000;stroke-width:0.8;" x="56.12" xlink:href="#mf4a960a35c" y="123.770234"/>
      </g>
     </g>
     <g id="text_10">
      <!-- 0.6 -->
      <g transform="translate(23.675 129.848984)scale(0.16 -0.16)">
       <use xlink:href="#DejaVuSans-30"/>
       <use x="63.623047" xlink:href="#DejaVuSans-2e"/>
       <use x="95.410156" xlink:href="#DejaVuSans-36"/>
      </g>
     </g>
    </g>
    <g id="ytick_5">
     <g id="line2d_19">
      <path clip-path="url(#p5981db35ac)" d="M 56.12 66.733646 
L 399.984 66.733646 
" style="fill:none;stroke:#b0b0b0;stroke-linecap:square;stroke-width:0.8;"/>
     </g>
     <g id="line2d_20">
      <g>
       <use style="stroke:#000000;stroke-width:0.8;" x="56.12" xlink:href="#mf4a960a35c" y="66.733646"/>
      </g>
     </g>
     <g id="text_11">
      <!-- 0.8 -->
      <g transform="translate(23.675 72.812396)scale(0.16 -0.16)">
       <use xlink:href="#DejaVuSans-30"/>
       <use x="63.623047" xlink:href="#DejaVuSans-2e"/>
       <use x="95.410156" xlink:href="#DejaVuSans-38"/>
      </g>
     </g>
    </g>
    <g id="ytick_6">
     <g id="line2d_21">
      <path clip-path="url(#p5981db35ac)" d="M 56.12 9.697057 
L 399.984 9.697057 
" style="fill:none;stroke:#b0b0b0;stroke-linecap:square;stroke-width:0.8;"/>
     </g>
     <g id="line2d_22">
      <g>
       <use style="stroke:#000000;stroke-width:0.8;" x="56.12" xlink:href="#mf4a960a35c" y="9.697057"/>
      </g>
     </g>
     <g id="text_12">
      <!-- 1.0 -->
      <g transform="translate(23.675 15.775807)scale(0.16 -0.16)">
       <use xlink:href="#DejaVuSans-31"/>
       <use x="63.623047" xlink:href="#DejaVuSans-2e"/>
       <use x="95.410156" xlink:href="#DejaVuSans-30"/>
      </g>
     </g>
    </g>
    <g id="text_13">
     <!-- Fraction of function,target pairs -->
     <defs>
      <path d="M 9.8125 72.90625 
L 51.703125 72.90625 
L 51.703125 64.59375 
L 19.671875 64.59375 
L 19.671875 43.109375 
L 48.578125 43.109375 
L 48.578125 34.8125 
L 19.671875 34.8125 
L 19.671875 0 
L 9.8125 0 
z
" id="DejaVuSans-46"/>
      <path d="M 41.109375 46.296875 
Q 39.59375 47.171875 37.8125 47.578125 
Q 36.03125 48 33.890625 48 
Q 26.265625 48 22.1875 43.046875 
Q 18.109375 38.09375 18.109375 28.8125 
L 18.109375 0 
L 9.078125 0 
L 9.078125 54.6875 
L 18.109375 54.6875 
L 18.109375 46.1875 
Q 20.953125 51.171875 25.484375 53.578125 
Q 30.03125 56 36.53125 56 
Q 37.453125 56 38.578125 55.875 
Q 39.703125 55.765625 41.0625 55.515625 
z
" id="DejaVuSans-72"/>
      <path d="M 48.78125 52.59375 
L 48.78125 44.1875 
Q 44.96875 46.296875 41.140625 47.34375 
Q 37.3125 48.390625 33.40625 48.390625 
Q 24.65625 48.390625 19.8125 42.84375 
Q 14.984375 37.3125 14.984375 27.296875 
Q 14.984375 17.28125 19.8125 11.734375 
Q 24.65625 6.203125 33.40625 6.203125 
Q 37.3125 6.203125 41.140625 7.25 
Q 44.96875 8.296875 48.78125 10.40625 
L 48.78125 2.09375 
Q 45.015625 0.34375 40.984375 -0.53125 
Q 36.96875 -1.421875 32.421875 -1.421875 
Q 20.0625 -1.421875 12.78125 6.34375 
Q 5.515625 14.109375 5.515625 27.296875 
Q 5.515625 40.671875 12.859375 48.328125 
Q 20.21875 56 33.015625 56 
Q 37.15625 56 41.109375 55.140625 
Q 45.0625 54.296875 48.78125 52.59375 
z
" id="DejaVuSans-63"/>
      <path d="M 18.3125 70.21875 
L 18.3125 54.6875 
L 36.8125 54.6875 
L 36.8125 47.703125 
L 18.3125 47.703125 
L 18.3125 18.015625 
Q 18.3125 11.328125 20.140625 9.421875 
Q 21.96875 7.515625 27.59375 7.515625 
L 36.8125 7.515625 
L 36.8125 0 
L 27.59375 0 
Q 17.1875 0 13.234375 3.875 
Q 9.28125 7.765625 9.28125 18.015625 
L 9.28125 47.703125 
L 2.6875 47.703125 
L 2.6875 54.6875 
L 9.28125 54.6875 
L 9.28125 70.21875 
z
" id="DejaVuSans-74"/>
      <path d="M 8.5 21.578125 
L 8.5 54.6875 
L 17.484375 54.6875 
L 17.484375 21.921875 
Q 17.484375 14.15625 20.5 10.265625 
Q 23.53125 6.390625 29.59375 6.390625 
Q 36.859375 6.390625 41.078125 11.03125 
Q 45.3125 15.671875 45.3125 23.6875 
L 45.3125 54.6875 
L 54.296875 54.6875 
L 54.296875 0 
L 45.3125 0 
L 45.3125 8.40625 
Q 42.046875 3.421875 37.71875 1 
Q 33.40625 -1.421875 27.6875 -1.421875 
Q 18.265625 -1.421875 13.375 4.4375 
Q 8.5 10.296875 8.5 21.578125 
z
M 31.109375 56 
z
" id="DejaVuSans-75"/>
      <path d="M 11.71875 12.40625 
L 22.015625 12.40625 
L 22.015625 4 
L 14.015625 -11.625 
L 7.71875 -11.625 
L 11.71875 4 
z
" id="DejaVuSans-2c"/>
      <path d="M 18.109375 8.203125 
L 18.109375 -20.796875 
L 9.078125 -20.796875 
L 9.078125 54.6875 
L 18.109375 54.6875 
L 18.109375 46.390625 
Q 20.953125 51.265625 25.265625 53.625 
Q 29.59375 56 35.59375 56 
Q 45.5625 56 51.78125 48.09375 
Q 58.015625 40.1875 58.015625 27.296875 
Q 58.015625 14.40625 51.78125 6.484375 
Q 45.5625 -1.421875 35.59375 -1.421875 
Q 29.59375 -1.421875 25.265625 0.953125 
Q 20.953125 3.328125 18.109375 8.203125 
z
M 48.6875 27.296875 
Q 48.6875 37.203125 44.609375 42.84375 
Q 40.53125 48.484375 33.40625 48.484375 
Q 26.265625 48.484375 22.1875 42.84375 
Q 18.109375 37.203125 18.109375 27.296875 
Q 18.109375 17.390625 22.1875 11.75 
Q 26.265625 6.109375 33.40625 6.109375 
Q 40.53125 6.109375 44.609375 11.75 
Q 48.6875 17.390625 48.6875 27.296875 
z
" id="DejaVuSans-70"/>
     </defs>
     <g transform="translate(16.139531 286.001989)rotate(-90)scale(0.17 -0.17)">
      <use xlink:href="#DejaVuSans-46"/>
      <use x="57.410156" xlink:href="#DejaVuSans-72"/>
      <use x="98.523438" xlink:href="#DejaVuSans-61"/>
      <use x="159.802734" xlink:href="#DejaVuSans-63"/>
      <use x="214.783203" xlink:href="#DejaVuSans-74"/>
      <use x="253.992188" xlink:href="#DejaVuSans-69"/>
      <use x="281.775391" xlink:href="#DejaVuSans-6f"/>
      <use x="342.957031" xlink:href="#DejaVuSans-6e"/>
      <use x="406.335938" xlink:href="#DejaVuSans-20"/>
      <use x="438.123047" xlink:href="#DejaVuSans-6f"/>
      <use x="499.304688" xlink:href="#DejaVuSans-66"/>
      <use x="534.509766" xlink:href="#DejaVuSans-20"/>
      <use x="566.296875" xlink:href="#DejaVuSans-66"/>
      <use x="601.501953" xlink:href="#DejaVuSans-75"/>
      <use x="664.880859" xlink:href="#DejaVuSans-6e"/>
      <use x="728.259766" xlink:href="#DejaVuSans-63"/>
      <use x="783.240234" xlink:href="#DejaVuSans-74"/>
      <use x="822.449219" xlink:href="#DejaVuSans-69"/>
      <use x="850.232422" xlink:href="#DejaVuSans-6f"/>
      <use x="911.414062" xlink:href="#DejaVuSans-6e"/>
      <use x="974.792969" xlink:href="#DejaVuSans-2c"/>
      <use x="1006.580078" xlink:href="#DejaVuSans-74"/>
      <use x="1045.789062" xlink:href="#DejaVuSans-61"/>
      <use x="1107.068359" xlink:href="#DejaVuSans-72"/>
      <use x="1148.166016" xlink:href="#DejaVuSans-67"/>
      <use x="1211.642578" xlink:href="#DejaVuSans-65"/>
      <use x="1273.166016" xlink:href="#DejaVuSans-74"/>
      <use x="1312.375" xlink:href="#DejaVuSans-20"/>
      <use x="1344.162109" xlink:href="#DejaVuSans-70"/>
      <use x="1407.638672" xlink:href="#DejaVuSans-61"/>
      <use x="1468.917969" xlink:href="#DejaVuSans-69"/>
      <use x="1496.701172" xlink:href="#DejaVuSans-72"/>
      <use x="1537.814453" xlink:href="#DejaVuSans-73"/>
     </g>
    </g>
   </g>
   <g id="line2d_23">
    <defs>
     <path d="M 0 1.5 
C 0.397805 1.5 0.77937 1.341951 1.06066 1.06066 
C 1.341951 0.77937 1.5 0.397805 1.5 0 
C 1.5 -0.397805 1.341951 -0.77937 1.06066 -1.06066 
C 0.77937 -1.341951 0.397805 -1.5 0 -1.5 
C -0.397805 -1.5 -0.77937 -1.341951 -1.06066 -1.06066 
C -1.341951 -0.77937 -1.5 -0.397805 -1.5 0 
C -1.5 0.397805 -1.341951 0.77937 -1.06066 1.06066 
C -0.77937 1.341951 -0.397805 1.5 0 1.5 
z
" id="me881b2aa44" style="stroke:#000080;"/>
    </defs>
    <g>
     <use style="fill:#000080;stroke:#000080;" x="321.202164" xlink:href="#me881b2aa44" y="177.451729"/>
     <use style="fill:#000080;stroke:#000080;" x="321.202164" xlink:href="#me881b2aa44" y="177.451729"/>
    </g>
   </g>
   <g id="line2d_24">
    <path d="M 28.429836 294.88 
L 28.429836 270.275981 
L 40.355341 270.275981 
L 40.355341 265.802523 
L 47.331314 265.802523 
L 47.331314 264.124977 
L 52.280845 264.124977 
L 52.280845 263.006612 
L 56.12 263.006612 
L 56.12 261.888248 
L 61.90896 261.888248 
L 61.90896 261.329066 
L 71.182322 261.329066 
L 71.182322 260.769883 
L 72.559446 260.769883 
L 72.559446 260.210701 
L 84.484951 260.210701 
L 84.484951 259.651519 
L 88.057358 259.651519 
L 88.057358 258.533154 
L 91.014019 258.533154 
L 91.014019 256.855608 
L 95.033331 256.855608 
L 95.033331 256.296425 
L 98.583322 256.296425 
L 98.583322 255.737243 
L 99.156871 255.737243 
L 99.156871 255.178061 
L 99.436631 255.178061 
L 99.436631 254.059696 
L 111.500328 254.059696 
L 111.500328 253.500514 
L 113.694177 253.500514 
L 113.694177 252.38215 
L 114.637146 252.38215 
L 114.637146 251.263785 
L 118.058348 251.263785 
L 118.058348 250.704603 
L 123.562923 250.704603 
L 123.562923 250.145421 
L 124.428341 250.145421 
L 124.428341 249.586238 
L 126.038603 249.586238 
L 126.038603 249.027056 
L 137.208725 249.027056 
L 137.208725 248.467874 
L 142.418825 248.467874 
L 142.418825 247.908692 
L 143.715018 247.908692 
L 143.715018 247.34951 
L 144.661936 247.34951 
L 144.661936 246.790327 
L 147.448035 246.790327 
L 147.448035 245.112781 
L 157.187728 245.112781 
L 157.187728 244.553598 
L 158.265434 244.553598 
L 158.265434 243.994416 
L 175.127975 243.994416 
L 175.127975 243.435234 
L 182.220591 243.435234 
L 182.220591 242.316869 
L 196.06536 242.316869 
L 196.06536 241.757687 
L 196.222126 241.757687 
L 196.222126 241.198505 
L 198.08608 241.198505 
L 198.188107 239.520958 
L 199.657442 239.520958 
L 199.657442 238.961776 
L 202.134541 238.961776 
L 202.134541 238.402594 
L 202.546011 238.402594 
L 202.546011 236.165865 
L 202.935685 236.165865 
L 203.038304 235.0475 
L 203.1704 235.0475 
L 203.1704 233.369954 
L 203.973624 233.369954 
L 203.973624 232.810771 
L 204.326347 232.810771 
L 204.326347 232.251589 
L 204.842535 232.251589 
L 204.842535 231.692407 
L 205.526388 231.692407 
L 205.526388 231.133225 
L 205.736541 231.133225 
L 205.736541 230.574042 
L 205.968587 230.574042 
L 205.968587 229.455678 
L 206.468222 229.455678 
L 206.468222 228.337313 
L 206.679233 228.337313 
L 206.777007 226.100584 
L 206.868841 226.100584 
L 206.868841 224.98222 
L 207.329721 224.98222 
L 207.329721 223.863855 
L 208.006001 223.863855 
L 208.006001 222.745491 
L 208.152631 222.745491 
L 208.152631 222.186309 
L 208.286118 222.186309 
L 208.394436 220.508762 
L 208.612455 220.508762 
L 208.612455 219.94958 
L 209.00377 219.94958 
L 209.08164 217.712851 
L 209.517134 217.712851 
L 209.544365 216.035304 
L 209.930608 216.035304 
L 209.930608 215.476122 
L 210.442831 215.476122 
L 210.548866 213.239393 
L 210.55539 213.239393 
L 210.55539 212.680211 
L 210.744378 212.680211 
L 210.744378 212.121028 
L 211.264179 212.121028 
L 211.276694 211.002664 
L 211.451772 211.002664 
L 211.557119 208.765935 
L 211.871762 208.765935 
L 211.951336 205.410841 
L 212.054076 205.410841 
L 212.062046 203.733295 
L 212.680261 203.733295 
L 212.70484 200.937384 
L 212.977455 200.937384 
L 212.977455 199.819019 
L 213.51482 199.819019 
L 213.51482 199.259837 
L 214.317753 199.259837 
L 214.317753 198.700655 
L 215.357749 198.700655 
L 215.357749 198.141472 
L 215.73515 198.141472 
L 215.73515 197.58229 
L 216.308904 197.58229 
L 216.308904 197.023108 
L 217.058623 197.023108 
L 217.165265 195.904743 
L 217.411654 195.904743 
L 217.411654 195.345561 
L 218.282525 195.345561 
L 218.282525 194.786379 
L 218.744438 194.786379 
L 218.744438 194.227197 
L 219.00532 194.227197 
L 219.00532 193.668014 
L 219.826288 193.668014 
L 219.826288 192.54965 
L 220.515794 192.54965 
L 220.515794 191.990468 
L 221.488767 191.990468 
L 221.488767 191.431285 
L 222.072768 191.431285 
L 222.072768 190.872103 
L 255.675349 190.872103 
L 255.697913 188.635374 
L 255.858789 188.635374 
L 255.872687 187.51701 
L 256.010495 187.51701 
L 256.010495 186.957828 
L 256.299968 186.957828 
L 256.299968 186.398645 
L 266.753062 186.398645 
L 266.753062 185.280281 
L 273.671304 185.280281 
L 273.671304 184.721099 
L 273.815193 184.721099 
L 273.829271 183.602734 
L 278.479738 183.602734 
L 278.479738 183.043552 
L 278.599322 183.043552 
L 278.599322 181.925187 
L 285.313447 181.925187 
L 285.393923 180.806823 
L 287.993891 180.806823 
L 287.993891 180.247641 
L 290.195747 180.247641 
L 290.195747 179.688458 
L 295.655849 179.688458 
L 295.655849 179.129276 
L 298.499065 179.129276 
L 298.499065 178.570094 
L 307.480638 178.570094 
L 307.480638 178.010912 
L 321.202164 178.010912 
L 321.202164 177.451729 
L 333.429677 177.451729 
L 333.429677 177.451729 
" style="fill:none;stroke:#000080;stroke-linecap:square;stroke-width:1.5;"/>
   </g>
   <g id="line2d_25">
    <defs>
     <path d="M 0 6 
C 1.591219 6 3.117479 5.367802 4.242641 4.242641 
C 5.367802 3.117479 6 1.591219 6 0 
C 6 -1.591219 5.367802 -3.117479 4.242641 -4.242641 
C 3.117479 -5.367802 1.591219 -6 0 -6 
C -1.591219 -6 -3.117479 -5.367802 -4.242641 -4.242641 
C -5.367802 -3.117479 -6 -1.591219 -6 0 
C -6 1.591219 -5.367802 3.117479 -4.242641 4.242641 
C -3.117479 5.367802 -1.591219 6 0 6 
z
" id="ma74e3b7dd9" style="stroke:#000080;stroke-width:1.5;"/>
    </defs>
    <g>
     <use style="fill-opacity:0;stroke:#000080;stroke-width:1.5;" x="118.058348" xlink:href="#ma74e3b7dd9" y="251.263785"/>
     <use style="fill-opacity:0;stroke:#000080;stroke-width:1.5;" x="204.842535" xlink:href="#ma74e3b7dd9" y="231.692407"/>
     <use style="fill-opacity:0;stroke:#000080;stroke-width:1.5;" x="219.826288" xlink:href="#ma74e3b7dd9" y="193.668014"/>
     <use style="fill-opacity:0;stroke:#000080;stroke-width:1.5;" x="321.202164" xlink:href="#ma74e3b7dd9" y="177.451729"/>
     <use style="fill-opacity:0;stroke:#000080;stroke-width:1.5;" x="321.202164" xlink:href="#ma74e3b7dd9" y="177.451729"/>
     <use style="fill-opacity:0;stroke:#000080;stroke-width:1.5;" x="333.429677" xlink:href="#ma74e3b7dd9" y="177.451729"/>
    </g>
   </g>
   <g id="line2d_26">
    <path style="fill:none;stroke:#000080;stroke-linecap:square;stroke-width:1.5;"/>
    <g/>
   </g>
   <g id="line2d_27">
    <path clip-path="url(#p5981db35ac)" d="M 254.198358 190.872103 
" style="fill:none;stroke:#000080;stroke-linecap:square;stroke-width:1.5;"/>
    <defs>
     <path d="M -12 12 
L 12 -12 
M -12 -12 
L 12 12 
" id="m9d43a1ff61" style="stroke:#000080;stroke-width:3;"/>
    </defs>
    <g clip-path="url(#p5981db35ac)">
     <use style="fill:#000080;stroke:#000080;stroke-width:3;" x="254.198358" xlink:href="#m9d43a1ff61" y="190.872103"/>
    </g>
   </g>
   <g id="line2d_28">
    <defs>
     <path d="M 0 1.5 
C 0.397805 1.5 0.77937 1.341951 1.06066 1.06066 
C 1.341951 0.77937 1.5 0.397805 1.5 0 
C 1.5 -0.397805 1.341951 -0.77937 1.06066 -1.06066 
C 0.77937 -1.341951 0.397805 -1.5 0 -1.5 
C -0.397805 -1.5 -0.77937 -1.341951 -1.06066 -1.06066 
C -1.341951 -0.77937 -1.5 -0.397805 -1.5 0 
C -1.5 0.397805 -1.341951 0.77937 -1.06066 1.06066 
C -0.77937 1.341951 -0.397805 1.5 0 1.5 
z
" id="me4fa3985c2" style="stroke:#ff00ff;"/>
    </defs>
    <g>
     <use style="fill:#ff00ff;stroke:#ff00ff;" x="296.960319" xlink:href="#me4fa3985c2" y="233.369954"/>
     <use style="fill:#ff00ff;stroke:#ff00ff;" x="296.960319" xlink:href="#me4fa3985c2" y="233.369954"/>
    </g>
   </g>
   <g id="line2d_29">
    <path d="M 28.429836 294.88 
L 28.429836 289.288178 
L 77.174892 289.288178 
L 77.174892 288.728995 
L 78.158295 288.728995 
L 78.158295 288.169813 
L 79.971009 288.169813 
L 79.971009 287.051449 
L 102.246616 287.051449 
L 102.246616 285.373902 
L 110.362401 285.373902 
L 110.362401 284.81472 
L 111.082375 284.81472 
L 111.082375 284.255537 
L 112.696514 284.255537 
L 112.696514 283.137173 
L 118.88434 283.137173 
L 118.88434 282.577991 
L 127.237437 282.577991 
L 127.237437 282.018808 
L 130.217301 282.018808 
L 130.217301 281.459626 
L 135.926577 281.459626 
L 135.926577 279.782079 
L 141.31149 279.782079 
L 141.31149 278.663715 
L 143.22127 278.663715 
L 143.22127 278.104533 
L 143.736167 278.104533 
L 143.736167 277.545351 
L 144.500954 277.545351 
L 144.500954 276.426986 
L 144.861069 276.426986 
L 144.861069 275.867804 
L 147.768684 275.867804 
L 147.768684 275.308622 
L 148.017674 275.308622 
L 148.017674 274.749439 
L 148.392593 274.749439 
L 148.392593 274.190257 
L 150.007454 274.190257 
L 150.007454 273.631075 
L 151.115996 273.631075 
L 151.115996 272.51271 
L 151.909483 272.51271 
L 151.909483 271.953528 
L 153.610112 271.953528 
L 153.610112 271.394346 
L 154.389905 271.394346 
L 154.389905 270.275981 
L 157.002989 270.275981 
L 157.002989 269.716799 
L 157.749065 269.716799 
L 157.749065 269.157617 
L 159.020739 269.157617 
L 159.020739 268.598435 
L 159.433057 268.598435 
L 159.450024 266.920888 
L 160.188615 266.920888 
L 160.188615 266.361706 
L 160.470603 266.361706 
L 160.470603 265.802523 
L 162.122747 265.802523 
L 162.122747 265.243341 
L 162.417839 265.243341 
L 162.524547 263.006612 
L 164.063475 263.006612 
L 164.063475 262.44743 
L 164.85559 262.44743 
L 164.85559 261.888248 
L 165.27166 261.888248 
L 165.27166 260.769883 
L 166.326785 260.769883 
L 166.326785 260.210701 
L 166.990415 260.210701 
L 166.990415 259.651519 
L 167.718772 259.651519 
L 167.718772 259.092337 
L 167.844165 259.092337 
L 167.844165 258.533154 
L 170.889641 258.533154 
L 170.889641 257.973972 
L 171.080471 257.973972 
L 171.080471 257.41479 
L 172.040856 257.41479 
L 172.040856 256.855608 
L 254.232905 256.855608 
L 254.335791 247.908692 
L 254.36744 247.908692 
L 254.36744 247.34951 
L 266.148706 247.34951 
L 266.180219 243.994416 
L 273.109594 243.994416 
L 273.126998 242.876052 
L 278.075378 242.876052 
L 278.083648 241.757687 
L 281.894378 241.757687 
L 281.915952 238.961776 
L 285.038227 238.961776 
L 285.053636 237.284229 
L 287.696863 237.284229 
L 287.696863 236.725047 
L 289.988978 236.725047 
L 289.99202 235.606682 
L 292.010372 235.606682 
L 292.010372 235.0475 
L 295.460256 235.0475 
L 295.460256 234.488318 
L 296.96025 234.488318 
L 296.960319 233.369954 
L 333.429677 233.369954 
L 333.429677 233.369954 
" style="fill:none;stroke:#ff00ff;stroke-linecap:square;stroke-width:1.5;"/>
   </g>
   <g id="line2d_30">
    <defs>
     <path d="M -0 8.485281 
L 5.091169 0 
L 0 -8.485281 
L -5.091169 -0 
z
" id="me962150532" style="stroke:#ff00ff;stroke-linejoin:miter;stroke-width:1.5;"/>
    </defs>
    <g>
     <use style="fill-opacity:0;stroke:#ff00ff;stroke-linejoin:miter;stroke-width:1.5;" x="144.861069" xlink:href="#me962150532" y="276.426986"/>
     <use style="fill-opacity:0;stroke:#ff00ff;stroke-linejoin:miter;stroke-width:1.5;" x="172.040856" xlink:href="#me962150532" y="256.855608"/>
     <use style="fill-opacity:0;stroke:#ff00ff;stroke-linejoin:miter;stroke-width:1.5;" x="266.180219" xlink:href="#me962150532" y="244.553598"/>
     <use style="fill-opacity:0;stroke:#ff00ff;stroke-linejoin:miter;stroke-width:1.5;" x="296.960319" xlink:href="#me962150532" y="233.369954"/>
     <use style="fill-opacity:0;stroke:#ff00ff;stroke-linejoin:miter;stroke-width:1.5;" x="333.429677" xlink:href="#me962150532" y="233.369954"/>
    </g>
   </g>
   <g id="line2d_31">
    <path style="fill:none;stroke:#ff00ff;stroke-linecap:square;stroke-width:1.5;"/>
    <g/>
   </g>
   <g id="line2d_32">
    <path clip-path="url(#p5981db35ac)" d="M 254.198358 256.855608 
" style="fill:none;stroke:#ff00ff;stroke-linecap:square;stroke-width:1.5;"/>
    <defs>
     <path d="M -12 12 
L 12 -12 
M -12 -12 
L 12 12 
" id="mc19fd9a9ed" style="stroke:#ff00ff;stroke-width:3;"/>
    </defs>
    <g clip-path="url(#p5981db35ac)">
     <use style="fill:#ff00ff;stroke:#ff00ff;stroke-width:3;" x="254.198358" xlink:href="#mc19fd9a9ed" y="256.855608"/>
    </g>
   </g>
   <g id="line2d_33">
    <defs>
     <path d="M 0 1.5 
C 0.397805 1.5 0.77937 1.341951 1.06066 1.06066 
C 1.341951 0.77937 1.5 0.397805 1.5 0 
C 1.5 -0.397805 1.341951 -0.77937 1.06066 -1.06066 
C 0.77937 -1.341951 0.397805 -1.5 0 -1.5 
C -0.397805 -1.5 -0.77937 -1.341951 -1.06066 -1.06066 
C -1.341951 -0.77937 -1.5 -0.397805 -1.5 0 
C -1.5 0.397805 -1.341951 0.77937 -1.06066 1.06066 
C -0.77937 1.341951 -0.397805 1.5 0 1.5 
z
" id="me75cf7c435" style="stroke:#ffa500;"/>
    </defs>
    <g>
     <use style="fill:#ffa500;stroke:#ffa500;" x="296.959556" xlink:href="#me75cf7c435" y="9.697057"/>
     <use style="fill:#ffa500;stroke:#ffa500;" x="296.959556" xlink:href="#me75cf7c435" y="9.697057"/>
    </g>
   </g>
   <g id="line2d_34">
    <path d="M 28.429836 294.88 
L 28.429836 288.169813 
L 47.331314 288.169813 
L 47.331314 287.051449 
L 56.12 287.051449 
L 56.12 286.492266 
L 61.90896 286.492266 
L 61.90896 285.933084 
L 64.20635 285.933084 
L 64.20635 284.81472 
L 66.232791 284.81472 
L 66.232791 284.255537 
L 80.810437 284.255537 
L 80.810437 282.018808 
L 95.388083 282.018808 
L 95.388083 280.900444 
L 98.872486 280.900444 
L 98.872486 280.341262 
L 99.982863 280.341262 
L 99.982863 279.782079 
L 105.265187 279.782079 
L 105.265187 279.222897 
L 107.137126 279.222897 
L 107.137126 278.663715 
L 109.763911 278.663715 
L 109.763911 278.104533 
L 110.654016 278.104533 
L 110.654016 277.545351 
L 118.973716 277.545351 
L 118.973716 276.986168 
L 127.51097 276.986168 
L 127.51097 276.426986 
L 130.764982 276.426986 
L 130.764982 275.308622 
L 132.915754 275.308622 
L 132.915754 274.749439 
L 136.190765 274.749439 
L 136.190765 273.631075 
L 136.483206 273.631075 
L 136.483206 272.51271 
L 137.993644 272.51271 
L 137.993644 271.394346 
L 142.487143 271.394346 
L 142.487143 270.835164 
L 144.419894 270.835164 
L 144.419894 269.157617 
L 144.741866 269.157617 
L 144.741866 267.48007 
L 146.894108 267.48007 
L 146.894108 266.920888 
L 147.901927 266.920888 
L 147.901927 266.361706 
L 148.198003 266.361706 
L 148.198003 265.802523 
L 150.641541 265.802523 
L 150.641541 265.243341 
L 151.804012 265.243341 
L 151.804012 262.44743 
L 152.053458 262.44743 
L 152.053458 261.888248 
L 153.176049 261.888248 
L 153.176049 261.329066 
L 154.424008 261.329066 
L 154.424008 260.769883 
L 157.427822 260.769883 
L 157.427822 260.210701 
L 157.935266 260.210701 
L 157.999964 259.092337 
L 158.731427 259.092337 
L 158.731427 257.41479 
L 159.210946 257.41479 
L 159.210946 256.855608 
L 159.32236 256.855608 
L 159.32236 256.296425 
L 159.543047 256.296425 
L 159.543047 255.737243 
L 160.912384 255.737243 
L 160.912384 255.178061 
L 162.202416 255.178061 
L 162.202416 254.618879 
L 162.32482 254.618879 
L 162.32482 252.941332 
L 162.861633 252.941332 
L 162.944882 250.704603 
L 163.348434 250.704603 
L 163.348434 249.586238 
L 163.722903 249.586238 
L 163.722903 248.467874 
L 164.880345 248.467874 
L 164.880345 247.908692 
L 165.854125 247.908692 
L 165.929931 243.994416 
L 166.080547 243.994416 
L 166.080547 243.435234 
L 166.394878 243.435234 
L 166.394878 242.876052 
L 167.411912 242.876052 
L 167.411912 242.316869 
L 167.973818 242.316869 
L 167.973818 241.198505 
L 168.48789 241.198505 
L 168.48789 240.639323 
L 168.687311 240.639323 
L 168.687311 240.08014 
L 168.991917 240.08014 
L 168.991917 239.520958 
L 169.132564 239.520958 
L 169.132564 238.402594 
L 169.415206 238.402594 
L 169.415206 236.165865 
L 169.985327 236.165865 
L 170.049559 233.929136 
L 170.245355 233.929136 
L 170.254408 232.810771 
L 170.824099 232.810771 
L 170.824099 231.692407 
L 171.502253 231.692407 
L 171.594595 228.896496 
L 171.678114 228.896496 
L 171.703091 227.778131 
L 172.275821 227.778131 
L 172.275821 225.541402 
L 172.938843 225.541402 
L 172.938843 224.423038 
L 173.050751 224.423038 
L 173.050751 223.304673 
L 173.714735 223.304673 
L 173.714735 222.745491 
L 174.019189 222.745491 
L 174.019189 222.186309 
L 174.200028 222.186309 
L 174.200028 221.627126 
L 175.028831 221.627126 
L 175.028831 221.067944 
L 177.867068 221.067944 
L 177.867068 220.508762 
L 178.277856 220.508762 
L 178.277856 219.94958 
L 178.444524 219.94958 
L 178.444524 218.831215 
L 178.745492 218.831215 
L 178.756538 215.476122 
L 179.433236 215.476122 
L 179.483593 214.357757 
L 179.97922 214.357757 
L 179.97922 213.798575 
L 180.28252 213.798575 
L 180.28252 213.239393 
L 180.580567 213.239393 
L 180.580567 211.561846 
L 180.817301 211.561846 
L 180.914987 209.884299 
L 180.966051 209.884299 
L 180.966051 209.325117 
L 181.522674 209.325117 
L 181.628133 208.206753 
L 181.774697 208.206753 
L 181.774697 207.64757 
L 182.039056 207.64757 
L 182.039056 205.970024 
L 182.424786 205.970024 
L 182.431477 203.733295 
L 182.756169 203.733295 
L 182.756169 202.61493 
L 183.237319 202.61493 
L 183.237319 202.055748 
L 183.572346 202.055748 
L 183.572346 201.496566 
L 183.752938 201.496566 
L 183.752938 200.937384 
L 184.025403 200.937384 
L 184.025403 199.259837 
L 184.31162 199.259837 
L 184.31162 198.700655 
L 184.472777 198.700655 
L 184.472777 197.023108 
L 184.70488 197.023108 
L 184.70488 195.904743 
L 184.825589 195.904743 
L 184.825589 195.345561 
L 184.947383 195.345561 
L 184.985869 193.108832 
L 185.068322 193.108832 
L 185.068322 191.431285 
L 185.846244 191.431285 
L 185.917403 190.312921 
L 186.082304 190.312921 
L 186.082304 188.076192 
L 186.587007 188.076192 
L 186.688284 186.398645 
L 186.707425 186.398645 
L 186.707425 185.839463 
L 187.530863 185.839463 
L 187.530863 184.161916 
L 188.678707 184.161916 
L 188.731354 180.806823 
L 189.09393 180.806823 
L 189.09393 180.247641 
L 189.503802 180.247641 
L 189.503802 179.129276 
L 189.804197 179.129276 
L 189.804197 178.570094 
L 190.230306 178.570094 
L 190.230306 178.010912 
L 190.666852 178.010912 
L 190.666852 176.333365 
L 254.225967 176.333365 
L 254.335961 159.557898 
L 254.338556 159.557898 
L 254.448377 140.545702 
L 254.449903 140.545702 
L 254.551807 125.447781 
L 254.563096 125.447781 
L 254.621613 116.500865 
L 266.166375 116.500865 
L 266.277178 86.864206 
L 266.277911 86.864206 
L 266.349243 76.239744 
L 273.123539 76.239744 
L 273.212935 58.345912 
L 273.242081 58.345912 
L 273.242081 57.78673 
L 278.072148 57.78673 
L 278.153493 40.45208 
L 281.908771 40.45208 
L 281.964818 29.268436 
L 285.042215 29.268436 
L 285.093131 20.32152 
L 287.691009 20.32152 
L 287.732013 16.407244 
L 289.9871 16.407244 
L 290.02574 13.611333 
L 292.014926 13.611333 
L 292.047669 11.933786 
L 293.824336 11.933786 
L 293.838296 10.815422 
L 295.465714 10.815422 
L 295.465714 10.256239 
L 296.959556 10.256239 
L 296.959556 9.697057 
L 333.429677 9.697057 
L 333.429677 9.697057 
" style="fill:none;stroke:#ffa500;stroke-linecap:square;stroke-width:1.5;"/>
   </g>
   <g id="line2d_35">
    <defs>
     <path d="M 0 -6 
L -1.347084 -1.854102 
L -5.706339 -1.854102 
L -2.179628 0.708204 
L -3.526712 4.854102 
L -0 2.291796 
L 3.526712 4.854102 
L 2.179628 0.708204 
L 5.706339 -1.854102 
L 1.347084 -1.854102 
z
" id="mf1d8fd2c70" style="stroke:#ffa500;stroke-linejoin:bevel;stroke-width:1.5;"/>
    </defs>
    <g>
     <use style="fill-opacity:0;stroke:#ffa500;stroke-linejoin:bevel;stroke-width:1.5;" x="64.20635" xlink:href="#mf1d8fd2c70" y="284.81472"/>
     <use style="fill-opacity:0;stroke:#ffa500;stroke-linejoin:bevel;stroke-width:1.5;" x="157.427822" xlink:href="#mf1d8fd2c70" y="260.210701"/>
     <use style="fill-opacity:0;stroke:#ffa500;stroke-linejoin:bevel;stroke-width:1.5;" x="190.666852" xlink:href="#mf1d8fd2c70" y="176.333365"/>
     <use style="fill-opacity:0;stroke:#ffa500;stroke-linejoin:bevel;stroke-width:1.5;" x="273.133719" xlink:href="#mf1d8fd2c70" y="75.121379"/>
     <use style="fill-opacity:0;stroke:#ffa500;stroke-linejoin:bevel;stroke-width:1.5;" x="296.959556" xlink:href="#mf1d8fd2c70" y="9.697057"/>
     <use style="fill-opacity:0;stroke:#ffa500;stroke-linejoin:bevel;stroke-width:1.5;" x="333.429677" xlink:href="#mf1d8fd2c70" y="9.697057"/>
    </g>
   </g>
   <g id="line2d_36">
    <path style="fill:none;stroke:#ffa500;stroke-linecap:square;stroke-width:1.5;"/>
    <g/>
   </g>
   <g id="line2d_37">
    <path clip-path="url(#p5981db35ac)" d="M 254.198358 176.333365 
" style="fill:none;stroke:#ffa500;stroke-linecap:square;stroke-width:1.5;"/>
    <defs>
     <path d="M -12 12 
L 12 -12 
M -12 -12 
L 12 12 
" id="m3b9b05639d" style="stroke:#ffa500;stroke-width:3;"/>
    </defs>
    <g clip-path="url(#p5981db35ac)">
     <use style="fill:#ffa500;stroke:#ffa500;stroke-width:3;" x="254.198358" xlink:href="#m3b9b05639d" y="176.333365"/>
    </g>
   </g>
   <g id="line2d_38">
    <defs>
     <path d="M 0 1.5 
C 0.397805 1.5 0.77937 1.341951 1.06066 1.06066 
C 1.341951 0.77937 1.5 0.397805 1.5 0 
C 1.5 -0.397805 1.341951 -0.77937 1.06066 -1.06066 
C 0.77937 -1.341951 0.397805 -1.5 0 -1.5 
C -0.397805 -1.5 -0.77937 -1.341951 -1.06066 -1.06066 
C -1.341951 -0.77937 -1.5 -0.397805 -1.5 0 
C -1.5 0.397805 -1.341951 0.77937 -1.06066 1.06066 
C -0.77937 1.341951 -0.397805 1.5 0 1.5 
z
" id="m938c7de983" style="stroke:#6495ed;"/>
    </defs>
    <g>
     <use style="fill:#6495ed;stroke:#6495ed;" x="310.920585" xlink:href="#m938c7de983" y="238.961776"/>
     <use style="fill:#6495ed;stroke:#6495ed;" x="310.920585" xlink:href="#m938c7de983" y="238.961776"/>
    </g>
   </g>
   <g id="line2d_39">
    <path d="M 102.246616 294.88 
L 102.246616 293.202453 
L 104.246851 293.202453 
L 104.246851 292.643271 
L 107.313588 292.643271 
L 107.313588 289.84736 
L 108.001874 289.84736 
L 108.001874 286.492266 
L 108.500601 286.492266 
L 108.500601 283.696355 
L 110.214719 283.696355 
L 110.214719 280.900444 
L 119.413762 280.900444 
L 119.413762 280.341262 
L 121.304503 280.341262 
L 121.304503 279.222897 
L 122.866275 279.222897 
L 122.866275 274.749439 
L 123.425832 274.749439 
L 123.425832 274.190257 
L 125.680156 274.190257 
L 125.680156 273.071893 
L 126.097625 273.071893 
L 126.097625 270.275981 
L 127.780222 270.275981 
L 127.780222 268.039252 
L 128.461173 268.039252 
L 128.461173 264.684159 
L 132.145561 264.684159 
L 132.145561 263.565795 
L 132.269486 263.565795 
L 132.269486 262.44743 
L 135.692038 262.44743 
L 135.692038 261.888248 
L 137.514869 261.888248 
L 137.514869 259.651519 
L 140.590892 259.651519 
L 140.590892 257.41479 
L 142.073102 257.41479 
L 142.073102 256.855608 
L 143.946241 256.855608 
L 143.946241 253.500514 
L 150.095309 253.500514 
L 150.095309 252.941332 
L 150.726225 252.941332 
L 150.726225 252.38215 
L 152.718216 252.38215 
L 152.718216 250.704603 
L 156.845866 250.704603 
L 156.845866 250.145421 
L 156.914784 250.145421 
L 156.914784 249.586238 
L 164.391074 249.586238 
L 164.391074 248.467874 
L 167.911707 248.467874 
L 167.911707 247.908692 
L 177.982965 247.908692 
L 177.982965 247.34951 
L 183.162687 247.34951 
L 183.162687 246.790327 
L 184.518263 246.790327 
L 184.518263 246.231145 
L 185.352894 246.231145 
L 185.352894 245.112781 
L 186.4039 245.112781 
L 186.4039 244.553598 
L 254.672469 244.553598 
L 254.672469 242.876052 
L 278.169125 242.876052 
L 278.169125 242.316869 
L 287.746017 242.316869 
L 287.746017 241.757687 
L 290.034855 241.757687 
L 290.034855 241.198505 
L 292.054642 241.198505 
L 292.054642 240.639323 
L 296.990856 240.639323 
L 296.990856 240.08014 
L 304.882318 240.08014 
L 304.882318 239.520958 
L 310.920585 239.520958 
L 310.920585 238.961776 
L 333.429677 238.961776 
" style="fill:none;stroke:#6495ed;stroke-linecap:square;stroke-width:1.5;"/>
   </g>
   <g id="line2d_40">
    <defs>
     <path d="M -0 6 
L 6 -6 
L -6 -6 
z
" id="m44c80844fb" style="stroke:#6495ed;stroke-linejoin:miter;stroke-width:1.5;"/>
    </defs>
    <g>
     <use style="fill-opacity:0;stroke:#6495ed;stroke-linejoin:miter;stroke-width:1.5;" x="137.514869" xlink:href="#m44c80844fb" y="259.651519"/>
     <use style="fill-opacity:0;stroke:#6495ed;stroke-linejoin:miter;stroke-width:1.5;" x="186.4039" xlink:href="#m44c80844fb" y="244.553598"/>
     <use style="fill-opacity:0;stroke:#6495ed;stroke-linejoin:miter;stroke-width:1.5;" x="278.169125" xlink:href="#m44c80844fb" y="242.316869"/>
     <use style="fill-opacity:0;stroke:#6495ed;stroke-linejoin:miter;stroke-width:1.5;" x="310.920585" xlink:href="#m44c80844fb" y="238.961776"/>
     <use style="fill-opacity:0;stroke:#6495ed;stroke-linejoin:miter;stroke-width:1.5;" x="333.429677" xlink:href="#m44c80844fb" y="238.961776"/>
    </g>
   </g>
   <g id="line2d_41">
    <path style="fill:none;stroke:#6495ed;stroke-linecap:square;stroke-width:1.5;"/>
    <g/>
   </g>
   <g id="line2d_42">
    <path clip-path="url(#p5981db35ac)" d="M 254.198358 244.553598 
" style="fill:none;stroke:#6495ed;stroke-linecap:square;stroke-width:1.5;"/>
    <defs>
     <path d="M -12 12 
L 12 -12 
M -12 -12 
L 12 12 
" id="mdfce714a57" style="stroke:#6495ed;stroke-width:3;"/>
    </defs>
    <g clip-path="url(#p5981db35ac)">
     <use style="fill:#6495ed;stroke:#6495ed;stroke-width:3;" x="254.198358" xlink:href="#mdfce714a57" y="244.553598"/>
    </g>
   </g>
   <g id="line2d_43">
    <defs>
     <path d="M 0 1.5 
C 0.397805 1.5 0.77937 1.341951 1.06066 1.06066 
C 1.341951 0.77937 1.5 0.397805 1.5 0 
C 1.5 -0.397805 1.341951 -0.77937 1.06066 -1.06066 
C 0.77937 -1.341951 0.397805 -1.5 0 -1.5 
C -0.397805 -1.5 -0.77937 -1.341951 -1.06066 -1.06066 
C -1.341951 -0.77937 -1.5 -0.397805 -1.5 0 
C -1.5 0.397805 -1.341951 0.77937 -1.06066 1.06066 
C -0.77937 1.341951 -0.397805 1.5 0 1.5 
z
" id="mbe2c5ed137" style="stroke:#ff0000;"/>
    </defs>
    <g>
     <use style="fill:#ff0000;stroke:#ff0000;" x="313.851477" xlink:href="#mbe2c5ed137" y="238.961776"/>
     <use style="fill:#ff0000;stroke:#ff0000;" x="313.851477" xlink:href="#mbe2c5ed137" y="238.961776"/>
    </g>
   </g>
   <g id="line2d_44">
    <path d="M 106.412604 294.88 
L 106.412604 294.320818 
L 112.567638 294.320818 
L 112.567638 293.761636 
L 116.689057 293.761636 
L 116.689057 292.643271 
L 118.522119 292.643271 
L 118.522119 292.084089 
L 119.06263 292.084089 
L 119.06263 290.406542 
L 120.589186 290.406542 
L 120.589186 289.84736 
L 130.538896 289.84736 
L 130.538896 289.288178 
L 156.048314 289.288178 
L 156.048314 288.169813 
L 160.613845 288.169813 
L 160.613845 285.933084 
L 163.328141 285.933084 
L 163.328141 285.373902 
L 163.556736 285.373902 
L 163.556736 284.81472 
L 165.138147 284.81472 
L 165.138147 284.255537 
L 165.30186 284.255537 
L 165.30186 283.696355 
L 176.031081 283.696355 
L 176.031081 282.577991 
L 176.566089 282.577991 
L 176.566089 282.018808 
L 187.46775 282.018808 
L 187.46775 281.459626 
L 188.00181 281.459626 
L 188.00181 280.900444 
L 189.046936 280.900444 
L 189.046936 280.341262 
L 190.079435 280.341262 
L 190.079435 279.782079 
L 190.79349 279.782079 
L 190.79349 279.222897 
L 194.766797 279.222897 
L 194.766797 278.663715 
L 195.296352 278.663715 
L 195.296352 278.104533 
L 195.658815 278.104533 
L 195.658815 277.545351 
L 196.045158 277.545351 
L 196.045158 276.426986 
L 197.439456 276.426986 
L 197.439456 275.867804 
L 198.363002 275.867804 
L 198.363002 275.308622 
L 198.889266 275.308622 
L 198.889266 274.190257 
L 203.52083 274.190257 
L 203.52083 273.631075 
L 203.912955 273.631075 
L 203.912955 273.071893 
L 204.233034 273.071893 
L 204.233034 271.953528 
L 206.642697 271.953528 
L 206.642697 269.716799 
L 207.075557 269.716799 
L 207.075557 269.157617 
L 207.230827 269.157617 
L 207.255603 267.48007 
L 208.125108 267.48007 
L 208.125108 266.920888 
L 208.943703 266.920888 
L 208.943703 266.361706 
L 209.35657 266.361706 
L 209.35657 265.802523 
L 210.757706 265.802523 
L 210.757706 265.243341 
L 214.302021 265.243341 
L 214.302021 264.684159 
L 215.686166 264.684159 
L 215.686166 264.124977 
L 254.774364 264.124977 
L 254.774364 263.565795 
L 254.940509 263.565795 
L 254.969782 262.44743 
L 255.096673 262.44743 
L 255.096673 261.888248 
L 266.455757 261.888248 
L 266.528911 259.092337 
L 273.293988 259.092337 
L 273.389149 256.296425 
L 278.199724 256.296425 
L 278.24549 253.500514 
L 282.039535 253.500514 
L 282.071976 251.263785 
L 285.118555 251.263785 
L 285.151276 249.586238 
L 287.763561 249.586238 
L 287.794186 248.467874 
L 290.058447 248.467874 
L 290.08976 247.34951 
L 292.063512 247.34951 
L 292.063512 246.790327 
L 293.874327 246.790327 
L 293.874327 246.231145 
L 295.504733 246.231145 
L 295.528183 243.994416 
L 297.026057 243.994416 
L 297.027522 242.876052 
L 298.374372 242.876052 
L 298.374372 242.316869 
L 299.665393 242.316869 
L 299.665393 241.757687 
L 304.903042 241.757687 
L 304.903042 241.198505 
L 305.783239 241.198505 
L 305.783239 240.639323 
L 309.605474 240.639323 
L 309.605474 240.08014 
L 310.927596 240.08014 
L 310.927596 239.520958 
L 313.851477 239.520958 
L 313.851477 238.961776 
L 333.429677 238.961776 
L 333.429677 238.961776 
" style="fill:none;stroke:#ff0000;stroke-linecap:square;stroke-width:1.5;"/>
   </g>
   <g id="line2d_45">
    <defs>
     <path d="M 0 -6 
L -5.196152 -3 
L -5.196152 3 
L -0 6 
L 5.196152 3 
L 5.196152 -3 
z
" id="mb66ff4ed02" style="stroke:#ff0000;stroke-linejoin:miter;stroke-width:1.5;"/>
    </defs>
    <g>
     <use style="fill-opacity:0;stroke:#ff0000;stroke-linejoin:miter;stroke-width:1.5;" x="176.566089" xlink:href="#mb66ff4ed02" y="282.018808"/>
     <use style="fill-opacity:0;stroke:#ff0000;stroke-linejoin:miter;stroke-width:1.5;" x="215.686166" xlink:href="#mb66ff4ed02" y="264.124977"/>
     <use style="fill-opacity:0;stroke:#ff0000;stroke-linejoin:miter;stroke-width:1.5;" x="298.374372" xlink:href="#mb66ff4ed02" y="242.316869"/>
     <use style="fill-opacity:0;stroke:#ff0000;stroke-linejoin:miter;stroke-width:1.5;" x="313.851477" xlink:href="#mb66ff4ed02" y="238.961776"/>
     <use style="fill-opacity:0;stroke:#ff0000;stroke-linejoin:miter;stroke-width:1.5;" x="333.429677" xlink:href="#mb66ff4ed02" y="238.961776"/>
    </g>
   </g>
   <g id="line2d_46">
    <path style="fill:none;stroke:#ff0000;stroke-linecap:square;stroke-width:1.5;"/>
    <g/>
   </g>
   <g id="line2d_47">
    <path clip-path="url(#p5981db35ac)" d="M 254.198358 264.124977 
" style="fill:none;stroke:#ff0000;stroke-linecap:square;stroke-width:1.5;"/>
    <defs>
     <path d="M -12 12 
L 12 -12 
M -12 -12 
L 12 12 
" id="m1fb972947d" style="stroke:#ff0000;stroke-width:3;"/>
    </defs>
    <g clip-path="url(#p5981db35ac)">
     <use style="fill:#ff0000;stroke:#ff0000;stroke-width:3;" x="254.198358" xlink:href="#m1fb972947d" y="264.124977"/>
    </g>
   </g>
   <g id="line2d_48">
    <path d="M 333.429677 238.961776 
L 363.933742 289.176341 
" style="fill:none;stroke:#ff0000;stroke-linecap:square;stroke-width:1.5;"/>
    <g>
     <use style="fill-opacity:0;stroke:#ff0000;stroke-linejoin:miter;stroke-width:1.5;" x="333.429677" xlink:href="#mb66ff4ed02" y="238.961776"/>
     <use style="fill-opacity:0;stroke:#ff0000;stroke-linejoin:miter;stroke-width:1.5;" x="363.933742" xlink:href="#mb66ff4ed02" y="289.176341"/>
    </g>
   </g>
   <g id="line2d_49">
    <path d="M 333.429677 238.961776 
L 363.933742 220.732435 
" style="fill:none;stroke:#6495ed;stroke-linecap:square;stroke-width:1.5;"/>
    <g>
     <use style="fill-opacity:0;stroke:#6495ed;stroke-linejoin:miter;stroke-width:1.5;" x="333.429677" xlink:href="#m44c80844fb" y="238.961776"/>
     <use style="fill-opacity:0;stroke:#6495ed;stroke-linejoin:miter;stroke-width:1.5;" x="363.933742" xlink:href="#m44c80844fb" y="220.732435"/>
    </g>
   </g>
   <g id="line2d_50">
    <path d="M 333.429677 233.369954 
L 363.933742 152.288529 
" style="fill:none;stroke:#ff00ff;stroke-linecap:square;stroke-width:1.5;"/>
    <g>
     <use style="fill-opacity:0;stroke:#ff00ff;stroke-linejoin:miter;stroke-width:1.5;" x="333.429677" xlink:href="#me962150532" y="233.369954"/>
     <use style="fill-opacity:0;stroke:#ff00ff;stroke-linejoin:miter;stroke-width:1.5;" x="363.933742" xlink:href="#me962150532" y="152.288529"/>
    </g>
   </g>
   <g id="line2d_51">
    <path d="M 333.429677 177.451729 
L 363.933742 83.844622 
" style="fill:none;stroke:#000080;stroke-linecap:square;stroke-width:1.5;"/>
    <g>
     <use style="fill-opacity:0;stroke:#000080;stroke-width:1.5;" x="333.429677" xlink:href="#ma74e3b7dd9" y="177.451729"/>
     <use style="fill-opacity:0;stroke:#000080;stroke-width:1.5;" x="363.933742" xlink:href="#ma74e3b7dd9" y="83.844622"/>
    </g>
   </g>
   <g id="line2d_52">
    <path d="M 333.429677 9.697057 
L 363.933742 15.400716 
" style="fill:none;stroke:#ffa500;stroke-linecap:square;stroke-width:1.5;"/>
    <g>
     <use style="fill-opacity:0;stroke:#ffa500;stroke-linejoin:bevel;stroke-width:1.5;" x="333.429677" xlink:href="#mf1d8fd2c70" y="9.697057"/>
     <use style="fill-opacity:0;stroke:#ffa500;stroke-linejoin:bevel;stroke-width:1.5;" x="363.933742" xlink:href="#mf1d8fd2c70" y="15.400716"/>
    </g>
   </g>
   <g id="line2d_53">
    <path d="M 333.429677 294.88 
L 333.429677 9.697057 
" style="fill:none;stroke:#000000;stroke-linecap:square;stroke-width:1.5;"/>
   </g>
   <g id="patch_3">
    <path d="M 56.12 294.88 
L 56.12 6.845228 
" style="fill:none;stroke:#000000;stroke-linecap:square;stroke-linejoin:miter;stroke-width:0.8;"/>
   </g>
   <g id="patch_4">
    <path d="M 399.984 294.88 
L 399.984 6.845228 
" style="fill:none;stroke:#000000;stroke-linecap:square;stroke-linejoin:miter;stroke-width:0.8;"/>
   </g>
   <g id="patch_5">
    <path d="M 56.12 294.88 
L 399.984 294.88 
" style="fill:none;stroke:#000000;stroke-linecap:square;stroke-linejoin:miter;stroke-width:0.8;"/>
   </g>
   <g id="patch_6">
    <path d="M 56.12 6.845228 
L 399.984 6.845228 
" style="fill:none;stroke:#000000;stroke-linecap:square;stroke-linejoin:miter;stroke-width:0.8;"/>
   </g>
   <g id="text_14">
    <!-- f24 -->
    <g transform="translate(369.479935 293.867279)scale(0.17 -0.17)">
     <use xlink:href="#DejaVuSans-66"/>
     <use x="35.205078" xlink:href="#DejaVuSans-32"/>
     <use x="98.828125" xlink:href="#DejaVuSans-34"/>
    </g>
   </g>
   <g id="text_15">
    <!-- f20 -->
    <g transform="translate(369.479935 225.423372)scale(0.17 -0.17)">
     <use xlink:href="#DejaVuSans-66"/>
     <use x="35.205078" xlink:href="#DejaVuSans-32"/>
     <use x="98.828125" xlink:href="#DejaVuSans-30"/>
    </g>
   </g>
   <g id="text_16">
    <!-- f22 -->
    <g transform="translate(369.479935 156.979466)scale(0.17 -0.17)">
     <use xlink:href="#DejaVuSans-66"/>
     <use x="35.205078" xlink:href="#DejaVuSans-32"/>
     <use x="98.828125" xlink:href="#DejaVuSans-32"/>
    </g>
   </g>
   <g id="text_17">
    <!-- f23 -->
    <defs>
     <path d="M 40.578125 39.3125 
Q 47.65625 37.796875 51.625 33 
Q 55.609375 28.21875 55.609375 21.1875 
Q 55.609375 10.40625 48.1875 4.484375 
Q 40.765625 -1.421875 27.09375 -1.421875 
Q 22.515625 -1.421875 17.65625 -0.515625 
Q 12.796875 0.390625 7.625 2.203125 
L 7.625 11.71875 
Q 11.71875 9.328125 16.59375 8.109375 
Q 21.484375 6.890625 26.8125 6.890625 
Q 36.078125 6.890625 40.9375 10.546875 
Q 45.796875 14.203125 45.796875 21.1875 
Q 45.796875 27.640625 41.28125 31.265625 
Q 36.765625 34.90625 28.71875 34.90625 
L 20.21875 34.90625 
L 20.21875 43.015625 
L 29.109375 43.015625 
Q 36.375 43.015625 40.234375 45.921875 
Q 44.09375 48.828125 44.09375 54.296875 
Q 44.09375 59.90625 40.109375 62.90625 
Q 36.140625 65.921875 28.71875 65.921875 
Q 24.65625 65.921875 20.015625 65.03125 
Q 15.375 64.15625 9.8125 62.3125 
L 9.8125 71.09375 
Q 15.4375 72.65625 20.34375 73.4375 
Q 25.25 74.21875 29.59375 74.21875 
Q 40.828125 74.21875 47.359375 69.109375 
Q 53.90625 64.015625 53.90625 55.328125 
Q 53.90625 49.265625 50.4375 45.09375 
Q 46.96875 40.921875 40.578125 39.3125 
z
" id="DejaVuSans-33"/>
    </defs>
    <g transform="translate(369.479935 88.53556)scale(0.17 -0.17)">
     <use xlink:href="#DejaVuSans-66"/>
     <use x="35.205078" xlink:href="#DejaVuSans-32"/>
     <use x="98.828125" xlink:href="#DejaVuSans-33"/>
    </g>
   </g>
   <g id="text_18">
    <!-- f21 -->
    <g transform="translate(369.479935 20.091654)scale(0.17 -0.17)">
     <use xlink:href="#DejaVuSans-66"/>
     <use x="35.205078" xlink:href="#DejaVuSans-32"/>
     <use x="98.828125" xlink:href="#DejaVuSans-31"/>
    </g>
   </g>
   <g id="text_19">
    <!-- bbob -->
    <defs>
     <path d="M 48.6875 27.296875 
Q 48.6875 37.203125 44.609375 42.84375 
Q 40.53125 48.484375 33.40625 48.484375 
Q 26.265625 48.484375 22.1875 42.84375 
Q 18.109375 37.203125 18.109375 27.296875 
Q 18.109375 17.390625 22.1875 11.75 
Q 26.265625 6.109375 33.40625 6.109375 
Q 40.53125 6.109375 44.609375 11.75 
Q 48.6875 17.390625 48.6875 27.296875 
z
M 18.109375 46.390625 
Q 20.953125 51.265625 25.265625 53.625 
Q 29.59375 56 35.59375 56 
Q 45.5625 56 51.78125 48.09375 
Q 58.015625 40.1875 58.015625 27.296875 
Q 58.015625 14.40625 51.78125 6.484375 
Q 45.5625 -1.421875 35.59375 -1.421875 
Q 29.59375 -1.421875 25.265625 0.953125 
Q 20.953125 3.328125 18.109375 8.203125 
L 18.109375 0 
L 9.078125 0 
L 9.078125 75.984375 
L 18.109375 75.984375 
z
" id="DejaVuSans-62"/>
    </defs>
    <g transform="translate(59.55864 17.475982)scale(0.102 -0.102)">
     <use xlink:href="#DejaVuSans-62"/>
     <use x="63.476562" xlink:href="#DejaVuSans-62"/>
     <use x="126.953125" xlink:href="#DejaVuSans-6f"/>
     <use x="188.134766" xlink:href="#DejaVuSans-62"/>
    </g>
    <!-- Weak structure functions, 10-D -->
    <defs>
     <path d="M 3.328125 72.90625 
L 13.28125 72.90625 
L 28.609375 11.28125 
L 43.890625 72.90625 
L 54.984375 72.90625 
L 70.3125 11.28125 
L 85.59375 72.90625 
L 95.609375 72.90625 
L 77.296875 0 
L 64.890625 0 
L 49.515625 63.28125 
L 33.984375 0 
L 21.578125 0 
z
" id="DejaVuSans-57"/>
     <path d="M 9.078125 75.984375 
L 18.109375 75.984375 
L 18.109375 31.109375 
L 44.921875 54.6875 
L 56.390625 54.6875 
L 27.390625 29.109375 
L 57.625 0 
L 45.90625 0 
L 18.109375 26.703125 
L 18.109375 0 
L 9.078125 0 
z
" id="DejaVuSans-6b"/>
     <path d="M 19.671875 64.796875 
L 19.671875 8.109375 
L 31.59375 8.109375 
Q 46.6875 8.109375 53.6875 14.9375 
Q 60.6875 21.78125 60.6875 36.53125 
Q 60.6875 51.171875 53.6875 57.984375 
Q 46.6875 64.796875 31.59375 64.796875 
z
M 9.8125 72.90625 
L 30.078125 72.90625 
Q 51.265625 72.90625 61.171875 64.09375 
Q 71.09375 55.28125 71.09375 36.53125 
Q 71.09375 17.671875 61.125 8.828125 
Q 51.171875 0 30.078125 0 
L 9.8125 0 
z
" id="DejaVuSans-44"/>
    </defs>
    <g transform="translate(59.55864 28.89775)scale(0.102 -0.102)">
     <use xlink:href="#DejaVuSans-57"/>
     <use x="98.798828" xlink:href="#DejaVuSans-65"/>
     <use x="160.322266" xlink:href="#DejaVuSans-61"/>
     <use x="221.601562" xlink:href="#DejaVuSans-6b"/>
     <use x="279.511719" xlink:href="#DejaVuSans-20"/>
     <use x="311.298828" xlink:href="#DejaVuSans-73"/>
     <use x="363.398438" xlink:href="#DejaVuSans-74"/>
     <use x="402.607422" xlink:href="#DejaVuSans-72"/>
     <use x="443.720703" xlink:href="#DejaVuSans-75"/>
     <use x="507.099609" xlink:href="#DejaVuSans-63"/>
     <use x="562.080078" xlink:href="#DejaVuSans-74"/>
     <use x="601.289062" xlink:href="#DejaVuSans-75"/>
     <use x="664.667969" xlink:href="#DejaVuSans-72"/>
     <use x="705.75" xlink:href="#DejaVuSans-65"/>
     <use x="767.273438" xlink:href="#DejaVuSans-20"/>
     <use x="799.060547" xlink:href="#DejaVuSans-66"/>
     <use x="834.265625" xlink:href="#DejaVuSans-75"/>
     <use x="897.644531" xlink:href="#DejaVuSans-6e"/>
     <use x="961.023438" xlink:href="#DejaVuSans-63"/>
     <use x="1016.003906" xlink:href="#DejaVuSans-74"/>
     <use x="1055.212891" xlink:href="#DejaVuSans-69"/>
     <use x="1082.996094" xlink:href="#DejaVuSans-6f"/>
     <use x="1144.177734" xlink:href="#DejaVuSans-6e"/>
     <use x="1207.556641" xlink:href="#DejaVuSans-73"/>
     <use x="1259.65625" xlink:href="#DejaVuSans-2c"/>
     <use x="1291.443359" xlink:href="#DejaVuSans-20"/>
     <use x="1323.230469" xlink:href="#DejaVuSans-31"/>
     <use x="1386.853516" xlink:href="#DejaVuSans-30"/>
     <use x="1450.476562" xlink:href="#DejaVuSans-2d"/>
     <use x="1486.560547" xlink:href="#DejaVuSans-44"/>
    </g>
    <!-- 51 targets: 100..1e-08 -->
    <defs>
     <path d="M 10.796875 72.90625 
L 49.515625 72.90625 
L 49.515625 64.59375 
L 19.828125 64.59375 
L 19.828125 46.734375 
Q 21.96875 47.46875 24.109375 47.828125 
Q 26.265625 48.1875 28.421875 48.1875 
Q 40.625 48.1875 47.75 41.5 
Q 54.890625 34.8125 54.890625 23.390625 
Q 54.890625 11.625 47.5625 5.09375 
Q 40.234375 -1.421875 26.90625 -1.421875 
Q 22.3125 -1.421875 17.546875 -0.640625 
Q 12.796875 0.140625 7.71875 1.703125 
L 7.71875 11.625 
Q 12.109375 9.234375 16.796875 8.0625 
Q 21.484375 6.890625 26.703125 6.890625 
Q 35.15625 6.890625 40.078125 11.328125 
Q 45.015625 15.765625 45.015625 23.390625 
Q 45.015625 31 40.078125 35.4375 
Q 35.15625 39.890625 26.703125 39.890625 
Q 22.75 39.890625 18.8125 39.015625 
Q 14.890625 38.140625 10.796875 36.28125 
z
" id="DejaVuSans-35"/>
     <path d="M 11.71875 12.40625 
L 22.015625 12.40625 
L 22.015625 0 
L 11.71875 0 
z
M 11.71875 51.703125 
L 22.015625 51.703125 
L 22.015625 39.3125 
L 11.71875 39.3125 
z
" id="DejaVuSans-3a"/>
    </defs>
    <g transform="translate(59.55864 40.319519)scale(0.102 -0.102)">
     <use xlink:href="#DejaVuSans-35"/>
     <use x="63.623047" xlink:href="#DejaVuSans-31"/>
     <use x="127.246094" xlink:href="#DejaVuSans-20"/>
     <use x="159.033203" xlink:href="#DejaVuSans-74"/>
     <use x="198.242188" xlink:href="#DejaVuSans-61"/>
     <use x="259.521484" xlink:href="#DejaVuSans-72"/>
     <use x="300.619141" xlink:href="#DejaVuSans-67"/>
     <use x="364.095703" xlink:href="#DejaVuSans-65"/>
     <use x="425.619141" xlink:href="#DejaVuSans-74"/>
     <use x="464.828125" xlink:href="#DejaVuSans-73"/>
     <use x="516.927734" xlink:href="#DejaVuSans-3a"/>
     <use x="550.619141" xlink:href="#DejaVuSans-20"/>
     <use x="582.40625" xlink:href="#DejaVuSans-31"/>
     <use x="646.029297" xlink:href="#DejaVuSans-30"/>
     <use x="709.652344" xlink:href="#DejaVuSans-30"/>
     <use x="773.275391" xlink:href="#DejaVuSans-2e"/>
     <use x="805.0625" xlink:href="#DejaVuSans-2e"/>
     <use x="836.849609" xlink:href="#DejaVuSans-31"/>
     <use x="900.472656" xlink:href="#DejaVuSans-65"/>
     <use x="961.996094" xlink:href="#DejaVuSans-2d"/>
     <use x="998.080078" xlink:href="#DejaVuSans-30"/>
     <use x="1061.703125" xlink:href="#DejaVuSans-38"/>
    </g>
    <!-- 15 instances -->
    <g transform="translate(59.55864 51.741288)scale(0.102 -0.102)">
     <use xlink:href="#DejaVuSans-31"/>
     <use x="63.623047" xlink:href="#DejaVuSans-35"/>
     <use x="127.246094" xlink:href="#DejaVuSans-20"/>
     <use x="159.033203" xlink:href="#DejaVuSans-69"/>
     <use x="186.816406" xlink:href="#DejaVuSans-6e"/>
     <use x="250.195312" xlink:href="#DejaVuSans-73"/>
     <use x="302.294922" xlink:href="#DejaVuSans-74"/>
     <use x="341.503906" xlink:href="#DejaVuSans-61"/>
     <use x="402.783203" xlink:href="#DejaVuSans-6e"/>
     <use x="466.162109" xlink:href="#DejaVuSans-63"/>
     <use x="521.142578" xlink:href="#DejaVuSans-65"/>
     <use x="582.666016" xlink:href="#DejaVuSans-73"/>
    </g>
   </g>
   <g id="text_20">
    <!-- v0.0.0 -->
    <g style="fill:#808080;" transform="translate(212.37075 289.919965)scale(0.1 -0.1)">
     <use xlink:href="#DejaVuSans-76"/>
     <use x="59.179688" xlink:href="#DejaVuSans-30"/>
     <use x="122.802734" xlink:href="#DejaVuSans-2e"/>
     <use x="154.589844" xlink:href="#DejaVuSans-30"/>
     <use x="218.212891" xlink:href="#DejaVuSans-2e"/>
     <use x="250" xlink:href="#DejaVuSans-30"/>
    </g>
   </g>
  </g>
 </g>
 <defs>
  <clipPath id="p5981db35ac">
   <rect height="288.034772" width="343.864" x="56.12" y="6.845228"/>
  </clipPath>
 </defs>
</svg>
