<?xml version="1.0" encoding="utf-8" standalone="no"?>
<!DOCTYPE svg PUBLIC "-//W3C//DTD SVG 1.1//EN"
  "http://www.w3.org/Graphics/SVG/1.1/DTD/svg11.dtd">
<!-- Created with matplotlib (http://matplotlib.org/) -->
<svg height="345.6pt" version="1.1" viewBox="0 0 460.8 345.6" width="460.8pt" xmlns="http://www.w3.org/2000/svg" xmlns:xlink="http://www.w3.org/1999/xlink">
 <defs>
  <style type="text/css">
*{stroke-linecap:butt;stroke-linejoin:round;}
  </style>
 </defs>
 <g id="figure_1">
  <g id="patch_1">
   <path d="M 0 345.6 
L 460.8 345.6 
L 460.8 0 
L 0 0 
z
" style="fill:#ffffff;"/>
  </g>
  <g id="axes_1">
   <g id="patch_2">
    <path d="M 56.12 294.88 
L 399.984 294.88 
L 399.984 6.845228 
L 56.12 6.845228 
z
" style="fill:#ffffff;"/>
   </g>
   <g id="matplotlib.axis_1">
    <g id="xtick_1">
     <g id="line2d_1">
      <path clip-path="url(#pc576f285d4)" d="M 56.12 294.88 
L 56.12 6.845228 
" style="fill:none;stroke:#b0b0b0;stroke-linecap:square;stroke-width:0.8;"/>
     </g>
     <g id="line2d_2">
      <defs>
       <path d="M 0 0 
L 0 3.5 
" id="m560da86867" style="stroke:#000000;stroke-width:0.8;"/>
      </defs>
      <g>
       <use style="stroke:#000000;stroke-width:0.8;" x="56.12" xlink:href="#m560da86867" y="294.88"/>
      </g>
     </g>
     <g id="text_1">
      <!-- 0 -->
      <defs>
       <path d="M 31.78125 66.40625 
Q 24.171875 66.40625 20.328125 58.90625 
Q 16.5 51.421875 16.5 36.375 
Q 16.5 21.390625 20.328125 13.890625 
Q 24.171875 6.390625 31.78125 6.390625 
Q 39.453125 6.390625 43.28125 13.890625 
Q 47.125 21.390625 47.125 36.375 
Q 47.125 51.421875 43.28125 58.90625 
Q 39.453125 66.40625 31.78125 66.40625 
z
M 31.78125 74.21875 
Q 44.046875 74.21875 50.515625 64.515625 
Q 56.984375 54.828125 56.984375 36.375 
Q 56.984375 17.96875 50.515625 8.265625 
Q 44.046875 -1.421875 31.78125 -1.421875 
Q 19.53125 -1.421875 13.0625 8.265625 
Q 6.59375 17.96875 6.59375 36.375 
Q 6.59375 54.828125 13.0625 64.515625 
Q 19.53125 74.21875 31.78125 74.21875 
z
" id="DejaVuSans-30"/>
      </defs>
      <g transform="translate(49.7575 317.076875)scale(0.2 -0.2)">
       <use xlink:href="#DejaVuSans-30"/>
      </g>
     </g>
    </g>
    <g id="xtick_2">
     <g id="line2d_3">
      <path clip-path="url(#pc576f285d4)" d="M 135.351336 294.88 
L 135.351336 6.845228 
" style="fill:none;stroke:#b0b0b0;stroke-linecap:square;stroke-width:0.8;"/>
     </g>
     <g id="line2d_4">
      <g>
       <use style="stroke:#000000;stroke-width:0.8;" x="135.351336" xlink:href="#m560da86867" y="294.88"/>
      </g>
     </g>
     <g id="text_2">
      <!-- 2 -->
      <defs>
       <path d="M 19.1875 8.296875 
L 53.609375 8.296875 
L 53.609375 0 
L 7.328125 0 
L 7.328125 8.296875 
Q 12.9375 14.109375 22.625 23.890625 
Q 32.328125 33.6875 34.8125 36.53125 
Q 39.546875 41.84375 41.421875 45.53125 
Q 43.3125 49.21875 43.3125 52.78125 
Q 43.3125 58.59375 39.234375 62.25 
Q 35.15625 65.921875 28.609375 65.921875 
Q 23.96875 65.921875 18.8125 64.3125 
Q 13.671875 62.703125 7.8125 59.421875 
L 7.8125 69.390625 
Q 13.765625 71.78125 18.9375 73 
Q 24.125 74.21875 28.421875 74.21875 
Q 39.75 74.21875 46.484375 68.546875 
Q 53.21875 62.890625 53.21875 53.421875 
Q 53.21875 48.921875 51.53125 44.890625 
Q 49.859375 40.875 45.40625 35.40625 
Q 44.1875 33.984375 37.640625 27.21875 
Q 31.109375 20.453125 19.1875 8.296875 
z
" id="DejaVuSans-32"/>
      </defs>
      <g transform="translate(128.988836 317.076875)scale(0.2 -0.2)">
       <use xlink:href="#DejaVuSans-32"/>
      </g>
     </g>
    </g>
    <g id="xtick_3">
     <g id="line2d_5">
      <path clip-path="url(#pc576f285d4)" d="M 214.582673 294.88 
L 214.582673 6.845228 
" style="fill:none;stroke:#b0b0b0;stroke-linecap:square;stroke-width:0.8;"/>
     </g>
     <g id="line2d_6">
      <g>
       <use style="stroke:#000000;stroke-width:0.8;" x="214.582673" xlink:href="#m560da86867" y="294.88"/>
      </g>
     </g>
     <g id="text_3">
      <!-- 4 -->
      <defs>
       <path d="M 37.796875 64.3125 
L 12.890625 25.390625 
L 37.796875 25.390625 
z
M 35.203125 72.90625 
L 47.609375 72.90625 
L 47.609375 25.390625 
L 58.015625 25.390625 
L 58.015625 17.1875 
L 47.609375 17.1875 
L 47.609375 0 
L 37.796875 0 
L 37.796875 17.1875 
L 4.890625 17.1875 
L 4.890625 26.703125 
z
" id="DejaVuSans-34"/>
      </defs>
      <g transform="translate(208.220173 317.076875)scale(0.2 -0.2)">
       <use xlink:href="#DejaVuSans-34"/>
      </g>
     </g>
    </g>
    <g id="xtick_4">
     <g id="line2d_7">
      <path clip-path="url(#pc576f285d4)" d="M 293.814009 294.88 
L 293.814009 6.845228 
" style="fill:none;stroke:#b0b0b0;stroke-linecap:square;stroke-width:0.8;"/>
     </g>
     <g id="line2d_8">
      <g>
       <use style="stroke:#000000;stroke-width:0.8;" x="293.814009" xlink:href="#m560da86867" y="294.88"/>
      </g>
     </g>
     <g id="text_4">
      <!-- 6 -->
      <defs>
       <path d="M 33.015625 40.375 
Q 26.375 40.375 22.484375 35.828125 
Q 18.609375 31.296875 18.609375 23.390625 
Q 18.609375 15.53125 22.484375 10.953125 
Q 26.375 6.390625 33.015625 6.390625 
Q 39.65625 6.390625 43.53125 10.953125 
Q 47.40625 15.53125 47.40625 23.390625 
Q 47.40625 31.296875 43.53125 35.828125 
Q 39.65625 40.375 33.015625 40.375 
z
M 52.59375 71.296875 
L 52.59375 62.3125 
Q 48.875 64.0625 45.09375 64.984375 
Q 41.3125 65.921875 37.59375 65.921875 
Q 27.828125 65.921875 22.671875 59.328125 
Q 17.53125 52.734375 16.796875 39.40625 
Q 19.671875 43.65625 24.015625 45.921875 
Q 28.375 48.1875 33.59375 48.1875 
Q 44.578125 48.1875 50.953125 41.515625 
Q 57.328125 34.859375 57.328125 23.390625 
Q 57.328125 12.15625 50.6875 5.359375 
Q 44.046875 -1.421875 33.015625 -1.421875 
Q 20.359375 -1.421875 13.671875 8.265625 
Q 6.984375 17.96875 6.984375 36.375 
Q 6.984375 53.65625 15.1875 63.9375 
Q 23.390625 74.21875 37.203125 74.21875 
Q 40.921875 74.21875 44.703125 73.484375 
Q 48.484375 72.75 52.59375 71.296875 
z
" id="DejaVuSans-36"/>
      </defs>
      <g transform="translate(287.451509 317.076875)scale(0.2 -0.2)">
       <use xlink:href="#DejaVuSans-36"/>
      </g>
     </g>
    </g>
    <g id="xtick_5">
     <g id="line2d_9">
      <path clip-path="url(#pc576f285d4)" d="M 373.045346 294.88 
L 373.045346 6.845228 
" style="fill:none;stroke:#b0b0b0;stroke-linecap:square;stroke-width:0.8;"/>
     </g>
     <g id="line2d_10">
      <g>
       <use style="stroke:#000000;stroke-width:0.8;" x="373.045346" xlink:href="#m560da86867" y="294.88"/>
      </g>
     </g>
     <g id="text_5">
      <!-- 8 -->
      <defs>
       <path d="M 31.78125 34.625 
Q 24.75 34.625 20.71875 30.859375 
Q 16.703125 27.09375 16.703125 20.515625 
Q 16.703125 13.921875 20.71875 10.15625 
Q 24.75 6.390625 31.78125 6.390625 
Q 38.8125 6.390625 42.859375 10.171875 
Q 46.921875 13.96875 46.921875 20.515625 
Q 46.921875 27.09375 42.890625 30.859375 
Q 38.875 34.625 31.78125 34.625 
z
M 21.921875 38.8125 
Q 15.578125 40.375 12.03125 44.71875 
Q 8.5 49.078125 8.5 55.328125 
Q 8.5 64.0625 14.71875 69.140625 
Q 20.953125 74.21875 31.78125 74.21875 
Q 42.671875 74.21875 48.875 69.140625 
Q 55.078125 64.0625 55.078125 55.328125 
Q 55.078125 49.078125 51.53125 44.71875 
Q 48 40.375 41.703125 38.8125 
Q 48.828125 37.15625 52.796875 32.3125 
Q 56.78125 27.484375 56.78125 20.515625 
Q 56.78125 9.90625 50.3125 4.234375 
Q 43.84375 -1.421875 31.78125 -1.421875 
Q 19.734375 -1.421875 13.25 4.234375 
Q 6.78125 9.90625 6.78125 20.515625 
Q 6.78125 27.484375 10.78125 32.3125 
Q 14.796875 37.15625 21.921875 38.8125 
z
M 18.3125 54.390625 
Q 18.3125 48.734375 21.84375 45.5625 
Q 25.390625 42.390625 31.78125 42.390625 
Q 38.140625 42.390625 41.71875 45.5625 
Q 45.3125 48.734375 45.3125 54.390625 
Q 45.3125 60.0625 41.71875 63.234375 
Q 38.140625 66.40625 31.78125 66.40625 
Q 25.390625 66.40625 21.84375 63.234375 
Q 18.3125 60.0625 18.3125 54.390625 
z
" id="DejaVuSans-38"/>
      </defs>
      <g transform="translate(366.682846 317.076875)scale(0.2 -0.2)">
       <use xlink:href="#DejaVuSans-38"/>
      </g>
     </g>
    </g>
    <g id="text_6">
     <!-- log10(# f-evals / dimension) -->
     <defs>
      <path d="M 9.421875 75.984375 
L 18.40625 75.984375 
L 18.40625 0 
L 9.421875 0 
z
" id="DejaVuSans-6c"/>
      <path d="M 30.609375 48.390625 
Q 23.390625 48.390625 19.1875 42.75 
Q 14.984375 37.109375 14.984375 27.296875 
Q 14.984375 17.484375 19.15625 11.84375 
Q 23.34375 6.203125 30.609375 6.203125 
Q 37.796875 6.203125 41.984375 11.859375 
Q 46.1875 17.53125 46.1875 27.296875 
Q 46.1875 37.015625 41.984375 42.703125 
Q 37.796875 48.390625 30.609375 48.390625 
z
M 30.609375 56 
Q 42.328125 56 49.015625 48.375 
Q 55.71875 40.765625 55.71875 27.296875 
Q 55.71875 13.875 49.015625 6.21875 
Q 42.328125 -1.421875 30.609375 -1.421875 
Q 18.84375 -1.421875 12.171875 6.21875 
Q 5.515625 13.875 5.515625 27.296875 
Q 5.515625 40.765625 12.171875 48.375 
Q 18.84375 56 30.609375 56 
z
" id="DejaVuSans-6f"/>
      <path d="M 45.40625 27.984375 
Q 45.40625 37.75 41.375 43.109375 
Q 37.359375 48.484375 30.078125 48.484375 
Q 22.859375 48.484375 18.828125 43.109375 
Q 14.796875 37.75 14.796875 27.984375 
Q 14.796875 18.265625 18.828125 12.890625 
Q 22.859375 7.515625 30.078125 7.515625 
Q 37.359375 7.515625 41.375 12.890625 
Q 45.40625 18.265625 45.40625 27.984375 
z
M 54.390625 6.78125 
Q 54.390625 -7.171875 48.1875 -13.984375 
Q 42 -20.796875 29.203125 -20.796875 
Q 24.46875 -20.796875 20.265625 -20.09375 
Q 16.0625 -19.390625 12.109375 -17.921875 
L 12.109375 -9.1875 
Q 16.0625 -11.328125 19.921875 -12.34375 
Q 23.78125 -13.375 27.78125 -13.375 
Q 36.625 -13.375 41.015625 -8.765625 
Q 45.40625 -4.15625 45.40625 5.171875 
L 45.40625 9.625 
Q 42.625 4.78125 38.28125 2.390625 
Q 33.9375 0 27.875 0 
Q 17.828125 0 11.671875 7.65625 
Q 5.515625 15.328125 5.515625 27.984375 
Q 5.515625 40.671875 11.671875 48.328125 
Q 17.828125 56 27.875 56 
Q 33.9375 56 38.28125 53.609375 
Q 42.625 51.21875 45.40625 46.390625 
L 45.40625 54.6875 
L 54.390625 54.6875 
z
" id="DejaVuSans-67"/>
      <path d="M 12.40625 8.296875 
L 28.515625 8.296875 
L 28.515625 63.921875 
L 10.984375 60.40625 
L 10.984375 69.390625 
L 28.421875 72.90625 
L 38.28125 72.90625 
L 38.28125 8.296875 
L 54.390625 8.296875 
L 54.390625 0 
L 12.40625 0 
z
" id="DejaVuSans-31"/>
      <path d="M 31 75.875 
Q 24.46875 64.65625 21.28125 53.65625 
Q 18.109375 42.671875 18.109375 31.390625 
Q 18.109375 20.125 21.3125 9.0625 
Q 24.515625 -2 31 -13.1875 
L 23.1875 -13.1875 
Q 15.875 -1.703125 12.234375 9.375 
Q 8.59375 20.453125 8.59375 31.390625 
Q 8.59375 42.28125 12.203125 53.3125 
Q 15.828125 64.359375 23.1875 75.875 
z
" id="DejaVuSans-28"/>
      <path d="M 51.125 44 
L 36.921875 44 
L 32.8125 27.6875 
L 47.125 27.6875 
z
M 43.796875 71.78125 
L 38.71875 51.515625 
L 52.984375 51.515625 
L 58.109375 71.78125 
L 65.921875 71.78125 
L 60.890625 51.515625 
L 76.125 51.515625 
L 76.125 44 
L 58.984375 44 
L 54.984375 27.6875 
L 70.515625 27.6875 
L 70.515625 20.21875 
L 53.078125 20.21875 
L 48 0 
L 40.1875 0 
L 45.21875 20.21875 
L 30.90625 20.21875 
L 25.875 0 
L 18.015625 0 
L 23.09375 20.21875 
L 7.71875 20.21875 
L 7.71875 27.6875 
L 24.90625 27.6875 
L 29 44 
L 13.28125 44 
L 13.28125 51.515625 
L 30.90625 51.515625 
L 35.890625 71.78125 
z
" id="DejaVuSans-23"/>
      <path id="DejaVuSans-20"/>
      <path d="M 37.109375 75.984375 
L 37.109375 68.5 
L 28.515625 68.5 
Q 23.6875 68.5 21.796875 66.546875 
Q 19.921875 64.59375 19.921875 59.515625 
L 19.921875 54.6875 
L 34.71875 54.6875 
L 34.71875 47.703125 
L 19.921875 47.703125 
L 19.921875 0 
L 10.890625 0 
L 10.890625 47.703125 
L 2.296875 47.703125 
L 2.296875 54.6875 
L 10.890625 54.6875 
L 10.890625 58.5 
Q 10.890625 67.625 15.140625 71.796875 
Q 19.390625 75.984375 28.609375 75.984375 
z
" id="DejaVuSans-66"/>
      <path d="M 4.890625 31.390625 
L 31.203125 31.390625 
L 31.203125 23.390625 
L 4.890625 23.390625 
z
" id="DejaVuSans-2d"/>
      <path d="M 56.203125 29.59375 
L 56.203125 25.203125 
L 14.890625 25.203125 
Q 15.484375 15.921875 20.484375 11.0625 
Q 25.484375 6.203125 34.421875 6.203125 
Q 39.59375 6.203125 44.453125 7.46875 
Q 49.3125 8.734375 54.109375 11.28125 
L 54.109375 2.78125 
Q 49.265625 0.734375 44.1875 -0.34375 
Q 39.109375 -1.421875 33.890625 -1.421875 
Q 20.796875 -1.421875 13.15625 6.1875 
Q 5.515625 13.8125 5.515625 26.8125 
Q 5.515625 40.234375 12.765625 48.109375 
Q 20.015625 56 32.328125 56 
Q 43.359375 56 49.78125 48.890625 
Q 56.203125 41.796875 56.203125 29.59375 
z
M 47.21875 32.234375 
Q 47.125 39.59375 43.09375 43.984375 
Q 39.0625 48.390625 32.421875 48.390625 
Q 24.90625 48.390625 20.390625 44.140625 
Q 15.875 39.890625 15.1875 32.171875 
z
" id="DejaVuSans-65"/>
      <path d="M 2.984375 54.6875 
L 12.5 54.6875 
L 29.59375 8.796875 
L 46.6875 54.6875 
L 56.203125 54.6875 
L 35.6875 0 
L 23.484375 0 
z
" id="DejaVuSans-76"/>
      <path d="M 34.28125 27.484375 
Q 23.390625 27.484375 19.1875 25 
Q 14.984375 22.515625 14.984375 16.5 
Q 14.984375 11.71875 18.140625 8.90625 
Q 21.296875 6.109375 26.703125 6.109375 
Q 34.1875 6.109375 38.703125 11.40625 
Q 43.21875 16.703125 43.21875 25.484375 
L 43.21875 27.484375 
z
M 52.203125 31.203125 
L 52.203125 0 
L 43.21875 0 
L 43.21875 8.296875 
Q 40.140625 3.328125 35.546875 0.953125 
Q 30.953125 -1.421875 24.3125 -1.421875 
Q 15.921875 -1.421875 10.953125 3.296875 
Q 6 8.015625 6 15.921875 
Q 6 25.140625 12.171875 29.828125 
Q 18.359375 34.515625 30.609375 34.515625 
L 43.21875 34.515625 
L 43.21875 35.40625 
Q 43.21875 41.609375 39.140625 45 
Q 35.0625 48.390625 27.6875 48.390625 
Q 23 48.390625 18.546875 47.265625 
Q 14.109375 46.140625 10.015625 43.890625 
L 10.015625 52.203125 
Q 14.9375 54.109375 19.578125 55.046875 
Q 24.21875 56 28.609375 56 
Q 40.484375 56 46.34375 49.84375 
Q 52.203125 43.703125 52.203125 31.203125 
z
" id="DejaVuSans-61"/>
      <path d="M 44.28125 53.078125 
L 44.28125 44.578125 
Q 40.484375 46.53125 36.375 47.5 
Q 32.28125 48.484375 27.875 48.484375 
Q 21.1875 48.484375 17.84375 46.4375 
Q 14.5 44.390625 14.5 40.28125 
Q 14.5 37.15625 16.890625 35.375 
Q 19.28125 33.59375 26.515625 31.984375 
L 29.59375 31.296875 
Q 39.15625 29.25 43.1875 25.515625 
Q 47.21875 21.78125 47.21875 15.09375 
Q 47.21875 7.46875 41.1875 3.015625 
Q 35.15625 -1.421875 24.609375 -1.421875 
Q 20.21875 -1.421875 15.453125 -0.5625 
Q 10.6875 0.296875 5.421875 2 
L 5.421875 11.28125 
Q 10.40625 8.6875 15.234375 7.390625 
Q 20.0625 6.109375 24.8125 6.109375 
Q 31.15625 6.109375 34.5625 8.28125 
Q 37.984375 10.453125 37.984375 14.40625 
Q 37.984375 18.0625 35.515625 20.015625 
Q 33.0625 21.96875 24.703125 23.78125 
L 21.578125 24.515625 
Q 13.234375 26.265625 9.515625 29.90625 
Q 5.8125 33.546875 5.8125 39.890625 
Q 5.8125 47.609375 11.28125 51.796875 
Q 16.75 56 26.8125 56 
Q 31.78125 56 36.171875 55.265625 
Q 40.578125 54.546875 44.28125 53.078125 
z
" id="DejaVuSans-73"/>
      <path d="M 25.390625 72.90625 
L 33.6875 72.90625 
L 8.296875 -9.28125 
L 0 -9.28125 
z
" id="DejaVuSans-2f"/>
      <path d="M 45.40625 46.390625 
L 45.40625 75.984375 
L 54.390625 75.984375 
L 54.390625 0 
L 45.40625 0 
L 45.40625 8.203125 
Q 42.578125 3.328125 38.25 0.953125 
Q 33.9375 -1.421875 27.875 -1.421875 
Q 17.96875 -1.421875 11.734375 6.484375 
Q 5.515625 14.40625 5.515625 27.296875 
Q 5.515625 40.1875 11.734375 48.09375 
Q 17.96875 56 27.875 56 
Q 33.9375 56 38.25 53.625 
Q 42.578125 51.265625 45.40625 46.390625 
z
M 14.796875 27.296875 
Q 14.796875 17.390625 18.875 11.75 
Q 22.953125 6.109375 30.078125 6.109375 
Q 37.203125 6.109375 41.296875 11.75 
Q 45.40625 17.390625 45.40625 27.296875 
Q 45.40625 37.203125 41.296875 42.84375 
Q 37.203125 48.484375 30.078125 48.484375 
Q 22.953125 48.484375 18.875 42.84375 
Q 14.796875 37.203125 14.796875 27.296875 
z
" id="DejaVuSans-64"/>
      <path d="M 9.421875 54.6875 
L 18.40625 54.6875 
L 18.40625 0 
L 9.421875 0 
z
M 9.421875 75.984375 
L 18.40625 75.984375 
L 18.40625 64.59375 
L 9.421875 64.59375 
z
" id="DejaVuSans-69"/>
      <path d="M 52 44.1875 
Q 55.375 50.25 60.0625 53.125 
Q 64.75 56 71.09375 56 
Q 79.640625 56 84.28125 50.015625 
Q 88.921875 44.046875 88.921875 33.015625 
L 88.921875 0 
L 79.890625 0 
L 79.890625 32.71875 
Q 79.890625 40.578125 77.09375 44.375 
Q 74.3125 48.1875 68.609375 48.1875 
Q 61.625 48.1875 57.5625 43.546875 
Q 53.515625 38.921875 53.515625 30.90625 
L 53.515625 0 
L 44.484375 0 
L 44.484375 32.71875 
Q 44.484375 40.625 41.703125 44.40625 
Q 38.921875 48.1875 33.109375 48.1875 
Q 26.21875 48.1875 22.15625 43.53125 
Q 18.109375 38.875 18.109375 30.90625 
L 18.109375 0 
L 9.078125 0 
L 9.078125 54.6875 
L 18.109375 54.6875 
L 18.109375 46.1875 
Q 21.1875 51.21875 25.484375 53.609375 
Q 29.78125 56 35.6875 56 
Q 41.65625 56 45.828125 52.96875 
Q 50 49.953125 52 44.1875 
z
" id="DejaVuSans-6d"/>
      <path d="M 54.890625 33.015625 
L 54.890625 0 
L 45.90625 0 
L 45.90625 32.71875 
Q 45.90625 40.484375 42.875 44.328125 
Q 39.84375 48.1875 33.796875 48.1875 
Q 26.515625 48.1875 22.3125 43.546875 
Q 18.109375 38.921875 18.109375 30.90625 
L 18.109375 0 
L 9.078125 0 
L 9.078125 54.6875 
L 18.109375 54.6875 
L 18.109375 46.1875 
Q 21.34375 51.125 25.703125 53.5625 
Q 30.078125 56 35.796875 56 
Q 45.21875 56 50.046875 50.171875 
Q 54.890625 44.34375 54.890625 33.015625 
z
" id="DejaVuSans-6e"/>
      <path d="M 8.015625 75.875 
L 15.828125 75.875 
Q 23.140625 64.359375 26.78125 53.3125 
Q 30.421875 42.28125 30.421875 31.390625 
Q 30.421875 20.453125 26.78125 9.375 
Q 23.140625 -1.703125 15.828125 -13.1875 
L 8.015625 -13.1875 
Q 14.5 -2 17.703125 9.0625 
Q 20.90625 20.125 20.90625 31.390625 
Q 20.90625 42.671875 17.703125 53.65625 
Q 14.5 64.65625 8.015625 75.875 
z
" id="DejaVuSans-29"/>
     </defs>
     <g transform="translate(107.211219 338.153594)scale(0.17 -0.17)">
      <use xlink:href="#DejaVuSans-6c"/>
      <use x="27.783203" xlink:href="#DejaVuSans-6f"/>
      <use x="88.964844" xlink:href="#DejaVuSans-67"/>
      <use x="152.441406" xlink:href="#DejaVuSans-31"/>
      <use x="216.064453" xlink:href="#DejaVuSans-30"/>
      <use x="279.6875" xlink:href="#DejaVuSans-28"/>
      <use x="318.701172" xlink:href="#DejaVuSans-23"/>
      <use x="402.490234" xlink:href="#DejaVuSans-20"/>
      <use x="434.277344" xlink:href="#DejaVuSans-66"/>
      <use x="469.404297" xlink:href="#DejaVuSans-2d"/>
      <use x="505.488281" xlink:href="#DejaVuSans-65"/>
      <use x="567.011719" xlink:href="#DejaVuSans-76"/>
      <use x="626.191406" xlink:href="#DejaVuSans-61"/>
      <use x="687.470703" xlink:href="#DejaVuSans-6c"/>
      <use x="715.253906" xlink:href="#DejaVuSans-73"/>
      <use x="767.353516" xlink:href="#DejaVuSans-20"/>
      <use x="799.140625" xlink:href="#DejaVuSans-2f"/>
      <use x="832.832031" xlink:href="#DejaVuSans-20"/>
      <use x="864.619141" xlink:href="#DejaVuSans-64"/>
      <use x="928.095703" xlink:href="#DejaVuSans-69"/>
      <use x="955.878906" xlink:href="#DejaVuSans-6d"/>
      <use x="1053.291016" xlink:href="#DejaVuSans-65"/>
      <use x="1114.814453" xlink:href="#DejaVuSans-6e"/>
      <use x="1178.193359" xlink:href="#DejaVuSans-73"/>
      <use x="1230.292969" xlink:href="#DejaVuSans-69"/>
      <use x="1258.076172" xlink:href="#DejaVuSans-6f"/>
      <use x="1319.257812" xlink:href="#DejaVuSans-6e"/>
      <use x="1382.636719" xlink:href="#DejaVuSans-29"/>
     </g>
    </g>
   </g>
   <g id="matplotlib.axis_2">
    <g id="ytick_1">
     <g id="line2d_11">
      <path clip-path="url(#pc576f285d4)" d="M 56.12 294.88 
L 399.984 294.88 
" style="fill:none;stroke:#b0b0b0;stroke-linecap:square;stroke-width:0.8;"/>
     </g>
     <g id="line2d_12">
      <defs>
       <path d="M 0 0 
L -3.5 0 
" id="mc3fd9d3151" style="stroke:#000000;stroke-width:0.8;"/>
      </defs>
      <g>
       <use style="stroke:#000000;stroke-width:0.8;" x="56.12" xlink:href="#mc3fd9d3151" y="294.88"/>
      </g>
     </g>
     <g id="text_7">
      <!-- 0.0 -->
      <defs>
       <path d="M 10.6875 12.40625 
L 21 12.40625 
L 21 0 
L 10.6875 0 
z
" id="DejaVuSans-2e"/>
      </defs>
      <g transform="translate(23.675 300.95875)scale(0.16 -0.16)">
       <use xlink:href="#DejaVuSans-30"/>
       <use x="63.623047" xlink:href="#DejaVuSans-2e"/>
       <use x="95.410156" xlink:href="#DejaVuSans-30"/>
      </g>
     </g>
    </g>
    <g id="ytick_2">
     <g id="line2d_13">
      <path clip-path="url(#pc576f285d4)" d="M 56.12 237.843411 
L 399.984 237.843411 
" style="fill:none;stroke:#b0b0b0;stroke-linecap:square;stroke-width:0.8;"/>
     </g>
     <g id="line2d_14">
      <g>
       <use style="stroke:#000000;stroke-width:0.8;" x="56.12" xlink:href="#mc3fd9d3151" y="237.843411"/>
      </g>
     </g>
     <g id="text_8">
      <!-- 0.2 -->
      <g transform="translate(23.675 243.922161)scale(0.16 -0.16)">
       <use xlink:href="#DejaVuSans-30"/>
       <use x="63.623047" xlink:href="#DejaVuSans-2e"/>
       <use x="95.410156" xlink:href="#DejaVuSans-32"/>
      </g>
     </g>
    </g>
    <g id="ytick_3">
     <g id="line2d_15">
      <path clip-path="url(#pc576f285d4)" d="M 56.12 180.806823 
L 399.984 180.806823 
" style="fill:none;stroke:#b0b0b0;stroke-linecap:square;stroke-width:0.8;"/>
     </g>
     <g id="line2d_16">
      <g>
       <use style="stroke:#000000;stroke-width:0.8;" x="56.12" xlink:href="#mc3fd9d3151" y="180.806823"/>
      </g>
     </g>
     <g id="text_9">
      <!-- 0.4 -->
      <g transform="translate(23.675 186.885573)scale(0.16 -0.16)">
       <use xlink:href="#DejaVuSans-30"/>
       <use x="63.623047" xlink:href="#DejaVuSans-2e"/>
       <use x="95.410156" xlink:href="#DejaVuSans-34"/>
      </g>
     </g>
    </g>
    <g id="ytick_4">
     <g id="line2d_17">
      <path clip-path="url(#pc576f285d4)" d="M 56.12 123.770234 
L 399.984 123.770234 
" style="fill:none;stroke:#b0b0b0;stroke-linecap:square;stroke-width:0.8;"/>
     </g>
     <g id="line2d_18">
      <g>
       <use style="stroke:#000000;stroke-width:0.8;" x="56.12" xlink:href="#mc3fd9d3151" y="123.770234"/>
      </g>
     </g>
     <g id="text_10">
      <!-- 0.6 -->
      <g transform="translate(23.675 129.848984)scale(0.16 -0.16)">
       <use xlink:href="#DejaVuSans-30"/>
       <use x="63.623047" xlink:href="#DejaVuSans-2e"/>
       <use x="95.410156" xlink:href="#DejaVuSans-36"/>
      </g>
     </g>
    </g>
    <g id="ytick_5">
     <g id="line2d_19">
      <path clip-path="url(#pc576f285d4)" d="M 56.12 66.733646 
L 399.984 66.733646 
" style="fill:none;stroke:#b0b0b0;stroke-linecap:square;stroke-width:0.8;"/>
     </g>
     <g id="line2d_20">
      <g>
       <use style="stroke:#000000;stroke-width:0.8;" x="56.12" xlink:href="#mc3fd9d3151" y="66.733646"/>
      </g>
     </g>
     <g id="text_11">
      <!-- 0.8 -->
      <g transform="translate(23.675 72.812396)scale(0.16 -0.16)">
       <use xlink:href="#DejaVuSans-30"/>
       <use x="63.623047" xlink:href="#DejaVuSans-2e"/>
       <use x="95.410156" xlink:href="#DejaVuSans-38"/>
      </g>
     </g>
    </g>
    <g id="ytick_6">
     <g id="line2d_21">
      <path clip-path="url(#pc576f285d4)" d="M 56.12 9.697057 
L 399.984 9.697057 
" style="fill:none;stroke:#b0b0b0;stroke-linecap:square;stroke-width:0.8;"/>
     </g>
     <g id="line2d_22">
      <g>
       <use style="stroke:#000000;stroke-width:0.8;" x="56.12" xlink:href="#mc3fd9d3151" y="9.697057"/>
      </g>
     </g>
     <g id="text_12">
      <!-- 1.0 -->
      <g transform="translate(23.675 15.775807)scale(0.16 -0.16)">
       <use xlink:href="#DejaVuSans-31"/>
       <use x="63.623047" xlink:href="#DejaVuSans-2e"/>
       <use x="95.410156" xlink:href="#DejaVuSans-30"/>
      </g>
     </g>
    </g>
    <g id="text_13">
     <!-- Fraction of function,target pairs -->
     <defs>
      <path d="M 9.8125 72.90625 
L 51.703125 72.90625 
L 51.703125 64.59375 
L 19.671875 64.59375 
L 19.671875 43.109375 
L 48.578125 43.109375 
L 48.578125 34.8125 
L 19.671875 34.8125 
L 19.671875 0 
L 9.8125 0 
z
" id="DejaVuSans-46"/>
      <path d="M 41.109375 46.296875 
Q 39.59375 47.171875 37.8125 47.578125 
Q 36.03125 48 33.890625 48 
Q 26.265625 48 22.1875 43.046875 
Q 18.109375 38.09375 18.109375 28.8125 
L 18.109375 0 
L 9.078125 0 
L 9.078125 54.6875 
L 18.109375 54.6875 
L 18.109375 46.1875 
Q 20.953125 51.171875 25.484375 53.578125 
Q 30.03125 56 36.53125 56 
Q 37.453125 56 38.578125 55.875 
Q 39.703125 55.765625 41.0625 55.515625 
z
" id="DejaVuSans-72"/>
      <path d="M 48.78125 52.59375 
L 48.78125 44.1875 
Q 44.96875 46.296875 41.140625 47.34375 
Q 37.3125 48.390625 33.40625 48.390625 
Q 24.65625 48.390625 19.8125 42.84375 
Q 14.984375 37.3125 14.984375 27.296875 
Q 14.984375 17.28125 19.8125 11.734375 
Q 24.65625 6.203125 33.40625 6.203125 
Q 37.3125 6.203125 41.140625 7.25 
Q 44.96875 8.296875 48.78125 10.40625 
L 48.78125 2.09375 
Q 45.015625 0.34375 40.984375 -0.53125 
Q 36.96875 -1.421875 32.421875 -1.421875 
Q 20.0625 -1.421875 12.78125 6.34375 
Q 5.515625 14.109375 5.515625 27.296875 
Q 5.515625 40.671875 12.859375 48.328125 
Q 20.21875 56 33.015625 56 
Q 37.15625 56 41.109375 55.140625 
Q 45.0625 54.296875 48.78125 52.59375 
z
" id="DejaVuSans-63"/>
      <path d="M 18.3125 70.21875 
L 18.3125 54.6875 
L 36.8125 54.6875 
L 36.8125 47.703125 
L 18.3125 47.703125 
L 18.3125 18.015625 
Q 18.3125 11.328125 20.140625 9.421875 
Q 21.96875 7.515625 27.59375 7.515625 
L 36.8125 7.515625 
L 36.8125 0 
L 27.59375 0 
Q 17.1875 0 13.234375 3.875 
Q 9.28125 7.765625 9.28125 18.015625 
L 9.28125 47.703125 
L 2.6875 47.703125 
L 2.6875 54.6875 
L 9.28125 54.6875 
L 9.28125 70.21875 
z
" id="DejaVuSans-74"/>
      <path d="M 8.5 21.578125 
L 8.5 54.6875 
L 17.484375 54.6875 
L 17.484375 21.921875 
Q 17.484375 14.15625 20.5 10.265625 
Q 23.53125 6.390625 29.59375 6.390625 
Q 36.859375 6.390625 41.078125 11.03125 
Q 45.3125 15.671875 45.3125 23.6875 
L 45.3125 54.6875 
L 54.296875 54.6875 
L 54.296875 0 
L 45.3125 0 
L 45.3125 8.40625 
Q 42.046875 3.421875 37.71875 1 
Q 33.40625 -1.421875 27.6875 -1.421875 
Q 18.265625 -1.421875 13.375 4.4375 
Q 8.5 10.296875 8.5 21.578125 
z
M 31.109375 56 
z
" id="DejaVuSans-75"/>
      <path d="M 11.71875 12.40625 
L 22.015625 12.40625 
L 22.015625 4 
L 14.015625 -11.625 
L 7.71875 -11.625 
L 11.71875 4 
z
" id="DejaVuSans-2c"/>
      <path d="M 18.109375 8.203125 
L 18.109375 -20.796875 
L 9.078125 -20.796875 
L 9.078125 54.6875 
L 18.109375 54.6875 
L 18.109375 46.390625 
Q 20.953125 51.265625 25.265625 53.625 
Q 29.59375 56 35.59375 56 
Q 45.5625 56 51.78125 48.09375 
Q 58.015625 40.1875 58.015625 27.296875 
Q 58.015625 14.40625 51.78125 6.484375 
Q 45.5625 -1.421875 35.59375 -1.421875 
Q 29.59375 -1.421875 25.265625 0.953125 
Q 20.953125 3.328125 18.109375 8.203125 
z
M 48.6875 27.296875 
Q 48.6875 37.203125 44.609375 42.84375 
Q 40.53125 48.484375 33.40625 48.484375 
Q 26.265625 48.484375 22.1875 42.84375 
Q 18.109375 37.203125 18.109375 27.296875 
Q 18.109375 17.390625 22.1875 11.75 
Q 26.265625 6.109375 33.40625 6.109375 
Q 40.53125 6.109375 44.609375 11.75 
Q 48.6875 17.390625 48.6875 27.296875 
z
" id="DejaVuSans-70"/>
     </defs>
     <g transform="translate(16.139531 286.001989)rotate(-90)scale(0.17 -0.17)">
      <use xlink:href="#DejaVuSans-46"/>
      <use x="57.410156" xlink:href="#DejaVuSans-72"/>
      <use x="98.523438" xlink:href="#DejaVuSans-61"/>
      <use x="159.802734" xlink:href="#DejaVuSans-63"/>
      <use x="214.783203" xlink:href="#DejaVuSans-74"/>
      <use x="253.992188" xlink:href="#DejaVuSans-69"/>
      <use x="281.775391" xlink:href="#DejaVuSans-6f"/>
      <use x="342.957031" xlink:href="#DejaVuSans-6e"/>
      <use x="406.335938" xlink:href="#DejaVuSans-20"/>
      <use x="438.123047" xlink:href="#DejaVuSans-6f"/>
      <use x="499.304688" xlink:href="#DejaVuSans-66"/>
      <use x="534.509766" xlink:href="#DejaVuSans-20"/>
      <use x="566.296875" xlink:href="#DejaVuSans-66"/>
      <use x="601.501953" xlink:href="#DejaVuSans-75"/>
      <use x="664.880859" xlink:href="#DejaVuSans-6e"/>
      <use x="728.259766" xlink:href="#DejaVuSans-63"/>
      <use x="783.240234" xlink:href="#DejaVuSans-74"/>
      <use x="822.449219" xlink:href="#DejaVuSans-69"/>
      <use x="850.232422" xlink:href="#DejaVuSans-6f"/>
      <use x="911.414062" xlink:href="#DejaVuSans-6e"/>
      <use x="974.792969" xlink:href="#DejaVuSans-2c"/>
      <use x="1006.580078" xlink:href="#DejaVuSans-74"/>
      <use x="1045.789062" xlink:href="#DejaVuSans-61"/>
      <use x="1107.068359" xlink:href="#DejaVuSans-72"/>
      <use x="1148.166016" xlink:href="#DejaVuSans-67"/>
      <use x="1211.642578" xlink:href="#DejaVuSans-65"/>
      <use x="1273.166016" xlink:href="#DejaVuSans-74"/>
      <use x="1312.375" xlink:href="#DejaVuSans-20"/>
      <use x="1344.162109" xlink:href="#DejaVuSans-70"/>
      <use x="1407.638672" xlink:href="#DejaVuSans-61"/>
      <use x="1468.917969" xlink:href="#DejaVuSans-69"/>
      <use x="1496.701172" xlink:href="#DejaVuSans-72"/>
      <use x="1537.814453" xlink:href="#DejaVuSans-73"/>
     </g>
    </g>
   </g>
   <g id="line2d_23">
    <defs>
     <path d="M 0 1.5 
C 0.397805 1.5 0.77937 1.341951 1.06066 1.06066 
C 1.341951 0.77937 1.5 0.397805 1.5 0 
C 1.5 -0.397805 1.341951 -0.77937 1.06066 -1.06066 
C 0.77937 -1.341951 0.397805 -1.5 0 -1.5 
C -0.397805 -1.5 -0.77937 -1.341951 -1.06066 -1.06066 
C -1.341951 -0.77937 -1.5 -0.397805 -1.5 0 
C -1.5 0.397805 -1.341951 0.77937 -1.06066 1.06066 
C -0.77937 1.341951 -0.397805 1.5 0 1.5 
z
" id="m8006eeaedd" style="stroke:#000080;"/>
    </defs>
    <g>
     <use style="fill:#000080;stroke:#000080;" x="288.904363" xlink:href="#m8006eeaedd" y="160.676262"/>
     <use style="fill:#000080;stroke:#000080;" x="288.904363" xlink:href="#m8006eeaedd" y="160.676262"/>
    </g>
   </g>
   <g id="line2d_24">
    <path d="M 4.578827 294.88 
L 4.578827 291.524907 
L 16.504332 291.524907 
L 16.504332 289.84736 
L 23.480305 289.84736 
L 23.480305 288.169813 
L 28.429836 288.169813 
L 28.429836 286.492266 
L 35.405809 286.492266 
L 35.405809 285.933084 
L 40.355341 285.933084 
L 40.355341 285.373902 
L 44.194496 285.373902 
L 44.194496 284.255537 
L 47.331314 284.255537 
L 47.331314 283.696355 
L 54.307286 283.696355 
L 54.307286 283.137173 
L 85.912902 283.137173 
L 85.912902 282.577991 
L 89.22644 282.577991 
L 89.22644 282.018808 
L 92.529893 282.018808 
L 92.529893 281.459626 
L 99.436631 281.459626 
L 99.436631 280.900444 
L 104.507141 280.900444 
L 104.507141 280.341262 
L 105.848459 280.341262 
L 105.848459 279.782079 
L 110.976281 279.782079 
L 110.976281 279.222897 
L 112.008883 279.222897 
L 112.008883 278.663715 
L 122.232673 278.663715 
L 122.232673 278.104533 
L 129.901391 278.104533 
L 129.901391 277.545351 
L 132.666187 277.545351 
L 132.666187 276.986168 
L 132.80639 276.986168 
L 132.86613 275.308622 
L 134.800664 275.308622 
L 134.800664 274.749439 
L 134.915747 274.749439 
L 134.915747 274.190257 
L 136.31322 274.190257 
L 136.31322 272.51271 
L 138.779589 272.51271 
L 138.779589 271.953528 
L 142.701713 271.953528 
L 142.701713 270.275981 
L 142.841432 270.275981 
L 142.841432 269.716799 
L 143.619523 269.716799 
L 143.619523 269.157617 
L 143.75729 269.157617 
L 143.75729 268.598435 
L 144.455405 268.598435 
L 144.455405 268.039252 
L 145.004012 268.039252 
L 145.004012 267.48007 
L 146.475651 267.48007 
L 146.475651 266.361706 
L 147.852082 266.361706 
L 147.955763 264.684159 
L 148.153097 264.684159 
L 148.153097 264.124977 
L 148.287463 264.124977 
L 148.287463 263.565795 
L 148.982985 263.565795 
L 149.087834 262.44743 
L 149.595186 262.44743 
L 149.595186 261.888248 
L 150.309397 261.888248 
L 150.309397 261.329066 
L 150.588401 261.329066 
L 150.588401 260.769883 
L 151.697891 260.769883 
L 151.697891 260.210701 
L 151.886467 260.210701 
L 151.916054 258.533154 
L 152.988821 258.533154 
L 152.988821 257.973972 
L 154.048009 257.973972 
L 154.048009 256.855608 
L 154.163691 256.855608 
L 154.163691 256.296425 
L 154.500493 256.296425 
L 154.500493 255.737243 
L 154.702806 255.737243 
L 154.702806 255.178061 
L 154.90829 255.178061 
L 154.90829 254.618879 
L 155.457023 254.618879 
L 155.457023 254.059696 
L 156.309814 254.059696 
L 156.416346 251.263785 
L 156.944236 251.263785 
L 156.944236 250.704603 
L 157.322593 250.704603 
L 157.322593 250.145421 
L 157.567922 250.145421 
L 157.567922 249.027056 
L 158.188047 249.027056 
L 158.188047 248.467874 
L 158.405661 248.467874 
L 158.461882 245.671963 
L 158.727006 245.671963 
L 158.727006 244.553598 
L 158.909536 244.553598 
L 158.909536 243.994416 
L 159.311678 243.994416 
L 159.422444 242.876052 
L 160.530432 242.876052 
L 160.530432 242.316869 
L 161.057803 242.316869 
L 161.057803 241.198505 
L 161.331707 241.198505 
L 161.422678 240.08014 
L 162.24031 240.08014 
L 162.24031 239.520958 
L 163.202471 239.520958 
L 163.239928 237.284229 
L 163.508245 237.284229 
L 163.508245 236.725047 
L 163.679854 236.725047 
L 163.679854 236.165865 
L 164.290568 236.165865 
L 164.340097 234.488318 
L 164.591915 234.488318 
L 164.591915 232.810771 
L 164.866425 232.810771 
L 164.866425 232.251589 
L 166.151056 232.251589 
L 166.261275 230.574042 
L 166.40903 230.574042 
L 166.476799 228.337313 
L 166.62412 228.337313 
L 166.62412 227.218949 
L 166.949337 227.218949 
L 166.949337 226.659767 
L 167.568672 226.659767 
L 167.568672 226.100584 
L 167.822027 226.100584 
L 167.901333 224.423038 
L 168.080693 224.423038 
L 168.080693 223.863855 
L 168.761502 223.863855 
L 168.845201 222.745491 
L 169.142221 222.745491 
L 169.142221 222.186309 
L 169.368817 222.186309 
L 169.368817 221.627126 
L 169.732974 221.627126 
L 169.732974 220.508762 
L 169.958877 220.508762 
L 169.958877 219.94958 
L 170.136349 219.94958 
L 170.136349 219.390397 
L 170.252145 219.390397 
L 170.258933 216.594486 
L 170.928847 216.594486 
L 170.928847 216.035304 
L 171.222217 216.035304 
L 171.222217 215.476122 
L 171.362805 215.476122 
L 171.362805 214.91694 
L 171.72907 214.91694 
L 171.72907 213.798575 
L 171.870742 213.798575 
L 171.870742 212.680211 
L 172.337071 212.680211 
L 172.338074 209.884299 
L 172.970753 209.884299 
L 172.970753 209.325117 
L 173.233442 209.325117 
L 173.233442 208.765935 
L 173.379343 208.765935 
L 173.379343 208.206753 
L 173.732305 208.206753 
L 173.732305 206.529206 
L 173.938101 206.529206 
L 173.938101 205.970024 
L 174.875576 205.970024 
L 174.892864 204.851659 
L 174.993652 204.851659 
L 174.993652 204.292477 
L 176.198464 204.292477 
L 176.250438 202.61493 
L 176.341217 202.61493 
L 176.428358 200.937384 
L 176.731477 200.937384 
L 176.731477 200.378201 
L 177.045364 200.378201 
L 177.045364 199.259837 
L 177.213026 199.259837 
L 177.213026 198.700655 
L 177.540562 198.700655 
L 177.604885 197.58229 
L 177.670439 197.58229 
L 177.670439 197.023108 
L 178.020464 197.023108 
L 178.020464 195.904743 
L 178.439604 195.904743 
L 178.439604 195.345561 
L 178.590789 195.345561 
L 178.590789 194.786379 
L 178.741347 194.786379 
L 178.821981 193.108832 
L 179.001866 193.108832 
L 179.001866 192.54965 
L 179.113093 192.54965 
L 179.113093 191.431285 
L 179.226292 191.431285 
L 179.300678 190.312921 
L 179.759255 190.312921 
L 179.759255 189.753739 
L 180.647478 189.753739 
L 180.647478 189.194556 
L 181.454958 189.194556 
L 181.454958 188.635374 
L 181.602414 188.635374 
L 181.602414 188.076192 
L 181.867109 188.076192 
L 181.867109 187.51701 
L 182.182741 187.51701 
L 182.182741 186.398645 
L 182.764919 186.398645 
L 182.764919 184.721099 
L 187.10921 184.721099 
L 187.10921 184.161916 
L 188.717821 184.161916 
L 188.717821 182.48437 
L 230.965598 182.48437 
L 231.023161 180.806823 
L 231.114167 180.806823 
L 231.124925 178.570094 
L 231.239784 178.570094 
L 231.279074 176.892547 
L 231.363518 176.892547 
L 231.463584 175.215 
L 231.504941 175.215 
L 231.504941 174.655818 
L 242.688838 174.655818 
L 242.702486 173.537454 
L 242.840022 173.537454 
L 242.861384 171.859907 
L 243.021545 171.859907 
L 243.021545 171.300725 
L 249.561381 171.300725 
L 249.643408 169.623178 
L 249.708292 169.623178 
L 249.708292 169.063996 
L 254.417336 169.063996 
L 254.495139 166.827267 
L 261.331318 166.827267 
L 261.331318 166.268085 
L 263.956833 166.268085 
L 263.990438 164.031356 
L 270.082345 164.031356 
L 270.082345 163.472173 
L 273.199333 163.472173 
L 273.199333 162.912991 
L 277.005401 162.912991 
L 277.005401 162.353809 
L 279.162698 162.353809 
L 279.162698 161.794627 
L 281.948289 161.794627 
L 281.948289 161.235444 
L 288.904363 161.235444 
L 288.904363 160.676262 
L 333.429677 160.676262 
L 333.429677 160.676262 
" style="fill:none;stroke:#000080;stroke-linecap:square;stroke-width:1.5;"/>
   </g>
   <g id="line2d_25">
    <defs>
     <path d="M 0 6 
C 1.591219 6 3.117479 5.367802 4.242641 4.242641 
C 5.367802 3.117479 6 1.591219 6 0 
C 6 -1.591219 5.367802 -3.117479 4.242641 -4.242641 
C 3.117479 -5.367802 1.591219 -6 0 -6 
C -1.591219 -6 -3.117479 -5.367802 -4.242641 -4.242641 
C -5.367802 -3.117479 -6 -1.591219 -6 0 
C -6 1.591219 -5.367802 3.117479 -4.242641 4.242641 
C -3.117479 5.367802 -1.591219 6 0 6 
z
" id="mb143aace94" style="stroke:#000080;stroke-width:1.5;"/>
    </defs>
    <g>
     <use style="fill-opacity:0;stroke:#000080;stroke-width:1.5;" x="129.901391" xlink:href="#mb143aace94" y="277.545351"/>
     <use style="fill-opacity:0;stroke:#000080;stroke-width:1.5;" x="166.62412" xlink:href="#mb143aace94" y="227.218949"/>
     <use style="fill-opacity:0;stroke:#000080;stroke-width:1.5;" x="182.182741" xlink:href="#mb143aace94" y="187.51701"/>
     <use style="fill-opacity:0;stroke:#000080;stroke-width:1.5;" x="281.948289" xlink:href="#mb143aace94" y="161.794627"/>
     <use style="fill-opacity:0;stroke:#000080;stroke-width:1.5;" x="288.904363" xlink:href="#mb143aace94" y="160.676262"/>
     <use style="fill-opacity:0;stroke:#000080;stroke-width:1.5;" x="333.429677" xlink:href="#mb143aace94" y="160.676262"/>
    </g>
   </g>
   <g id="line2d_26">
    <path style="fill:none;stroke:#000080;stroke-linecap:square;stroke-width:1.5;"/>
    <g/>
   </g>
   <g id="line2d_27">
    <path clip-path="url(#pc576f285d4)" d="M 230.347349 182.48437 
" style="fill:none;stroke:#000080;stroke-linecap:square;stroke-width:1.5;"/>
    <defs>
     <path d="M -12 12 
L 12 -12 
M -12 -12 
L 12 12 
" id="meebd12cafe" style="stroke:#000080;stroke-width:3;"/>
    </defs>
    <g clip-path="url(#pc576f285d4)">
     <use style="fill:#000080;stroke:#000080;stroke-width:3;" x="230.347349" xlink:href="#meebd12cafe" y="182.48437"/>
    </g>
   </g>
   <g id="line2d_28">
    <defs>
     <path d="M 0 1.5 
C 0.397805 1.5 0.77937 1.341951 1.06066 1.06066 
C 1.341951 0.77937 1.5 0.397805 1.5 0 
C 1.5 -0.397805 1.341951 -0.77937 1.06066 -1.06066 
C 0.77937 -1.341951 0.397805 -1.5 0 -1.5 
C -0.397805 -1.5 -0.77937 -1.341951 -1.06066 -1.06066 
C -1.341951 -0.77937 -1.5 -0.397805 -1.5 0 
C -1.5 0.397805 -1.341951 0.77937 -1.06066 1.06066 
C -0.77937 1.341951 -0.397805 1.5 0 1.5 
z
" id="m8a81f03903" style="stroke:#ff00ff;"/>
    </defs>
    <g>
     <use style="fill:#ff00ff;stroke:#ff00ff;" x="262.769186" xlink:href="#m8a81f03903" y="211.002664"/>
     <use style="fill:#ff00ff;stroke:#ff00ff;" x="262.769186" xlink:href="#m8a81f03903" y="211.002664"/>
    </g>
   </g>
   <g id="line2d_29">
    <path d="M 4.578827 294.88 
L 4.578827 265.243341 
L 16.504332 265.243341 
L 16.504332 263.565795 
L 32.268991 263.565795 
L 32.268991 263.006612 
L 35.405809 263.006612 
L 35.405809 262.44743 
L 42.381782 262.44743 
L 42.381782 261.888248 
L 49.983455 261.888248 
L 49.983455 261.329066 
L 129.759104 261.329066 
L 129.759104 260.769883 
L 139.031474 260.769883 
L 139.031474 259.651519 
L 146.863295 259.651519 
L 146.863295 259.092337 
L 148.818606 259.092337 
L 148.818606 258.533154 
L 150.915253 258.533154 
L 150.915253 257.41479 
L 154.004426 257.41479 
L 154.004426 256.855608 
L 154.963407 256.855608 
L 154.963407 256.296425 
L 163.874373 256.296425 
L 163.874373 255.737243 
L 174.785398 255.737243 
L 174.785398 254.059696 
L 175.479735 254.059696 
L 175.479735 253.500514 
L 177.102446 253.500514 
L 177.102446 252.941332 
L 179.191334 252.941332 
L 179.2719 250.704603 
L 179.41066 250.704603 
L 179.41066 250.145421 
L 180.443456 250.145421 
L 180.443456 249.027056 
L 180.691942 249.027056 
L 180.691942 248.467874 
L 181.169404 248.467874 
L 181.169404 247.908692 
L 181.452598 247.908692 
L 181.483844 246.790327 
L 182.602869 246.790327 
L 182.608939 245.671963 
L 183.155206 245.671963 
L 183.155206 245.112781 
L 183.551466 245.112781 
L 183.636913 242.316869 
L 184.408793 242.316869 
L 184.439078 240.639323 
L 185.072147 240.639323 
L 185.072147 240.08014 
L 185.508824 240.08014 
L 185.508824 238.961776 
L 186.121934 238.961776 
L 186.196891 235.0475 
L 186.615879 235.0475 
L 186.615879 234.488318 
L 186.777715 234.488318 
L 186.777715 233.929136 
L 188.499039 233.929136 
L 188.499039 233.369954 
L 188.892549 233.369954 
L 188.892549 232.810771 
L 189.286619 232.810771 
L 189.286619 232.251589 
L 189.57093 232.251589 
L 189.57093 231.692407 
L 189.683936 231.692407 
L 189.766024 230.01486 
L 190.08015 230.01486 
L 190.08015 228.896496 
L 190.777711 228.896496 
L 190.777711 228.337313 
L 191.096974 228.337313 
L 191.096974 226.659767 
L 192.89641 226.659767 
L 192.89641 226.100584 
L 193.151802 226.100584 
L 193.151802 225.541402 
L 193.936879 225.541402 
L 193.936879 224.98222 
L 194.132829 224.98222 
L 194.132829 224.423038 
L 194.414857 224.423038 
L 194.414857 223.863855 
L 196.193342 223.863855 
L 196.193342 223.304673 
L 197.321151 223.304673 
L 197.321151 222.745491 
L 198.174494 222.745491 
L 198.174494 222.186309 
L 198.353283 222.186309 
L 198.353283 221.627126 
L 199.456782 221.627126 
L 199.456782 221.067944 
L 199.739379 221.067944 
L 199.739379 220.508762 
L 200.190637 220.508762 
L 200.190637 219.94958 
L 205.70054 219.94958 
L 205.70054 219.390397 
L 214.745859 219.390397 
L 214.745859 218.831215 
L 221.057701 218.831215 
L 221.057701 218.272033 
L 221.734893 218.272033 
L 221.734893 217.712851 
L 223.331242 217.712851 
L 223.331242 217.153669 
L 229.217345 217.153669 
L 229.217345 215.476122 
L 236.183087 215.476122 
L 236.183087 214.91694 
L 238.247543 214.91694 
L 238.247543 214.357757 
L 238.499997 214.357757 
L 238.499997 213.798575 
L 246.672477 213.798575 
L 246.672477 212.680211 
L 251.421519 212.680211 
L 251.421519 212.121028 
L 256.844772 212.121028 
L 256.844772 211.561846 
L 262.769186 211.561846 
L 262.769186 211.002664 
L 333.429677 211.002664 
L 333.429677 211.002664 
" style="fill:none;stroke:#ff00ff;stroke-linecap:square;stroke-width:1.5;"/>
   </g>
   <g id="line2d_30">
    <defs>
     <path d="M -0 8.485281 
L 5.091169 0 
L 0 -8.485281 
L -5.091169 -0 
z
" id="maed9bf0d1e" style="stroke:#ff00ff;stroke-linejoin:miter;stroke-width:1.5;"/>
    </defs>
    <g>
     <use style="fill-opacity:0;stroke:#ff00ff;stroke-linejoin:miter;stroke-width:1.5;" x="163.874373" xlink:href="#maed9bf0d1e" y="255.737243"/>
     <use style="fill-opacity:0;stroke:#ff00ff;stroke-linejoin:miter;stroke-width:1.5;" x="223.331242" xlink:href="#maed9bf0d1e" y="217.153669"/>
     <use style="fill-opacity:0;stroke:#ff00ff;stroke-linejoin:miter;stroke-width:1.5;" x="262.769186" xlink:href="#maed9bf0d1e" y="211.002664"/>
     <use style="fill-opacity:0;stroke:#ff00ff;stroke-linejoin:miter;stroke-width:1.5;" x="262.769186" xlink:href="#maed9bf0d1e" y="211.002664"/>
     <use style="fill-opacity:0;stroke:#ff00ff;stroke-linejoin:miter;stroke-width:1.5;" x="333.429677" xlink:href="#maed9bf0d1e" y="211.002664"/>
    </g>
   </g>
   <g id="line2d_31">
    <path style="fill:none;stroke:#ff00ff;stroke-linecap:square;stroke-width:1.5;"/>
    <g/>
   </g>
   <g id="line2d_32">
    <path clip-path="url(#pc576f285d4)" d="M 230.347349 215.476122 
" style="fill:none;stroke:#ff00ff;stroke-linecap:square;stroke-width:1.5;"/>
    <defs>
     <path d="M -12 12 
L 12 -12 
M -12 -12 
L 12 12 
" id="m86f7a89c9e" style="stroke:#ff00ff;stroke-width:3;"/>
    </defs>
    <g clip-path="url(#pc576f285d4)">
     <use style="fill:#ff00ff;stroke:#ff00ff;stroke-width:3;" x="230.347349" xlink:href="#m86f7a89c9e" y="215.476122"/>
    </g>
   </g>
   <g id="line2d_33">
    <defs>
     <path d="M 0 1.5 
C 0.397805 1.5 0.77937 1.341951 1.06066 1.06066 
C 1.341951 0.77937 1.5 0.397805 1.5 0 
C 1.5 -0.397805 1.341951 -0.77937 1.06066 -1.06066 
C 0.77937 -1.341951 0.397805 -1.5 0 -1.5 
C -0.397805 -1.5 -0.77937 -1.341951 -1.06066 -1.06066 
C -1.341951 -0.77937 -1.5 -0.397805 -1.5 0 
C -1.5 0.397805 -1.341951 0.77937 -1.06066 1.06066 
C -0.77937 1.341951 -0.397805 1.5 0 1.5 
z
" id="mdb24f5da98" style="stroke:#ffa500;"/>
    </defs>
    <g>
     <use style="fill:#ffa500;stroke:#ffa500;" x="281.10823" xlink:href="#mdb24f5da98" y="205.410841"/>
     <use style="fill:#ffa500;stroke:#ffa500;" x="281.10823" xlink:href="#mdb24f5da98" y="205.410841"/>
    </g>
   </g>
   <g id="line2d_34">
    <path d="M 4.578827 294.88 
L 4.578827 288.169813 
L 16.504332 288.169813 
L 16.504332 287.610631 
L 28.429836 287.610631 
L 28.429836 287.051449 
L 40.355341 287.051449 
L 40.355341 285.373902 
L 45.834294 285.373902 
L 45.834294 284.81472 
L 48.708438 284.81472 
L 48.708438 284.255537 
L 54.307286 284.255537 
L 54.307286 283.137173 
L 103.551069 283.137173 
L 103.551069 282.577991 
L 109.687614 282.577991 
L 109.687614 280.900444 
L 112.502836 280.900444 
L 112.502836 280.341262 
L 119.326649 280.341262 
L 119.326649 279.782079 
L 126.12706 279.782079 
L 126.12706 278.663715 
L 140.954964 278.663715 
L 140.954964 278.104533 
L 146.189389 278.104533 
L 146.189389 277.545351 
L 148.161271 277.545351 
L 148.161271 275.867804 
L 150.349019 275.867804 
L 150.349019 275.308622 
L 154.341477 275.308622 
L 154.341477 274.749439 
L 154.91105 274.749439 
L 154.91105 274.190257 
L 155.124982 274.190257 
L 155.124982 273.631075 
L 158.153795 273.631075 
L 158.153795 272.51271 
L 158.91391 272.51271 
L 158.91391 271.953528 
L 159.360759 271.953528 
L 159.360759 270.835164 
L 160.368413 270.835164 
L 160.368413 270.275981 
L 161.272699 270.275981 
L 161.272699 269.716799 
L 161.528207 269.716799 
L 161.528207 269.157617 
L 161.822505 269.157617 
L 161.822505 268.598435 
L 162.292504 268.598435 
L 162.292504 268.039252 
L 162.735998 268.039252 
L 162.770989 266.920888 
L 163.611749 266.920888 
L 163.618405 264.684159 
L 163.750993 264.684159 
L 163.750993 264.124977 
L 163.921844 264.124977 
L 163.921844 263.006612 
L 164.642153 263.006612 
L 164.642153 262.44743 
L 164.816839 262.44743 
L 164.816839 261.888248 
L 165.129006 261.888248 
L 165.129006 261.329066 
L 165.581693 261.329066 
L 165.581693 260.769883 
L 166.311142 260.769883 
L 166.311142 260.210701 
L 166.461292 260.210701 
L 166.476799 257.973972 
L 167.316898 257.973972 
L 167.316898 256.296425 
L 168.048572 256.296425 
L 168.048572 255.737243 
L 168.258203 255.737243 
L 168.258203 254.618879 
L 168.48789 254.618879 
L 168.48789 254.059696 
L 168.773837 254.059696 
L 168.773837 252.941332 
L 169.541839 252.941332 
L 169.541839 252.38215 
L 169.669888 252.38215 
L 169.669888 251.822967 
L 170.193209 251.822967 
L 170.193209 251.263785 
L 170.596041 251.263785 
L 170.596041 249.586238 
L 170.776973 249.586238 
L 170.776973 249.027056 
L 171.195461 249.027056 
L 171.195461 248.467874 
L 172.256698 248.467874 
L 172.308983 247.34951 
L 172.843729 247.34951 
L 172.843729 246.790327 
L 173.12272 246.790327 
L 173.12272 246.231145 
L 173.636843 246.231145 
L 173.636843 245.112781 
L 173.970035 245.112781 
L 173.970035 244.553598 
L 174.175726 244.553598 
L 174.175726 243.994416 
L 174.314775 243.994416 
L 174.323708 242.876052 
L 175.565524 242.876052 
L 175.565524 241.757687 
L 175.787579 241.757687 
L 175.787579 241.198505 
L 175.95165 241.198505 
L 176.010853 238.961776 
L 176.143921 238.961776 
L 176.143921 237.843411 
L 176.515061 237.843411 
L 176.515061 237.284229 
L 176.939836 237.284229 
L 176.939836 236.725047 
L 177.618901 236.725047 
L 177.618901 236.165865 
L 177.767938 236.165865 
L 177.775246 233.929136 
L 178.589395 233.929136 
L 178.650615 232.810771 
L 178.88786 232.810771 
L 178.892654 230.01486 
L 179.031778 230.01486 
L 179.031778 229.455678 
L 179.29934 229.455678 
L 179.29934 228.896496 
L 180.305874 228.896496 
L 180.325416 227.218949 
L 182.430362 227.218949 
L 182.530416 225.541402 
L 182.584646 225.541402 
L 182.584646 224.98222 
L 182.796055 224.98222 
L 182.796055 224.423038 
L 183.088266 224.423038 
L 183.088266 223.304673 
L 183.32804 223.304673 
L 183.348136 221.067944 
L 183.461394 221.067944 
L 183.488151 219.94958 
L 184.301622 219.94958 
L 184.361022 218.831215 
L 184.755116 218.831215 
L 184.755116 218.272033 
L 185.035292 218.272033 
L 185.042478 216.594486 
L 186.290688 216.594486 
L 186.290688 216.035304 
L 187.569364 216.035304 
L 187.569364 215.476122 
L 189.125313 215.476122 
L 189.125313 214.357757 
L 192.86513 214.357757 
L 192.86513 213.798575 
L 201.694439 213.798575 
L 201.694439 213.239393 
L 231.386824 213.239393 
L 231.492358 212.121028 
L 231.830339 212.121028 
L 231.830339 211.561846 
L 232.192407 211.561846 
L 232.192407 211.002664 
L 242.879796 211.002664 
L 242.974171 209.884299 
L 243.220104 209.884299 
L 243.220104 208.765935 
L 249.886086 208.765935 
L 249.886086 208.206753 
L 254.678502 208.206753 
L 254.678502 207.088388 
L 268.365357 207.088388 
L 268.365357 206.529206 
L 281.10823 206.529206 
L 281.10823 205.410841 
L 333.429677 205.410841 
L 333.429677 205.410841 
" style="fill:none;stroke:#ffa500;stroke-linecap:square;stroke-width:1.5;"/>
   </g>
   <g id="line2d_35">
    <defs>
     <path d="M 0 -6 
L -1.347084 -1.854102 
L -5.706339 -1.854102 
L -2.179628 0.708204 
L -3.526712 4.854102 
L -0 2.291796 
L 3.526712 4.854102 
L 2.179628 0.708204 
L 5.706339 -1.854102 
L 1.347084 -1.854102 
z
" id="m7280a59d75" style="stroke:#ffa500;stroke-linejoin:bevel;stroke-width:1.5;"/>
    </defs>
    <g>
     <use style="fill-opacity:0;stroke:#ffa500;stroke-linejoin:bevel;stroke-width:1.5;" x="155.124982" xlink:href="#m7280a59d75" y="273.631075"/>
     <use style="fill-opacity:0;stroke:#ffa500;stroke-linejoin:bevel;stroke-width:1.5;" x="192.86513" xlink:href="#m7280a59d75" y="213.798575"/>
     <use style="fill-opacity:0;stroke:#ffa500;stroke-linejoin:bevel;stroke-width:1.5;" x="281.10823" xlink:href="#m7280a59d75" y="206.529206"/>
     <use style="fill-opacity:0;stroke:#ffa500;stroke-linejoin:bevel;stroke-width:1.5;" x="281.10823" xlink:href="#m7280a59d75" y="205.410841"/>
     <use style="fill-opacity:0;stroke:#ffa500;stroke-linejoin:bevel;stroke-width:1.5;" x="333.429677" xlink:href="#m7280a59d75" y="205.410841"/>
    </g>
   </g>
   <g id="line2d_36">
    <path style="fill:none;stroke:#ffa500;stroke-linecap:square;stroke-width:1.5;"/>
    <g/>
   </g>
   <g id="line2d_37">
    <path clip-path="url(#pc576f285d4)" d="M 230.347349 213.239393 
" style="fill:none;stroke:#ffa500;stroke-linecap:square;stroke-width:1.5;"/>
    <defs>
     <path d="M -12 12 
L 12 -12 
M -12 -12 
L 12 12 
" id="m012d340885" style="stroke:#ffa500;stroke-width:3;"/>
    </defs>
    <g clip-path="url(#pc576f285d4)">
     <use style="fill:#ffa500;stroke:#ffa500;stroke-width:3;" x="230.347349" xlink:href="#m012d340885" y="213.239393"/>
    </g>
   </g>
   <g id="line2d_38">
    <defs>
     <path d="M 0 1.5 
C 0.397805 1.5 0.77937 1.341951 1.06066 1.06066 
C 1.341951 0.77937 1.5 0.397805 1.5 0 
C 1.5 -0.397805 1.341951 -0.77937 1.06066 -1.06066 
C 0.77937 -1.341951 0.397805 -1.5 0 -1.5 
C -0.397805 -1.5 -0.77937 -1.341951 -1.06066 -1.06066 
C -1.341951 -0.77937 -1.5 -0.397805 -1.5 0 
C -1.5 0.397805 -1.341951 0.77937 -1.06066 1.06066 
C -0.77937 1.341951 -0.397805 1.5 0 1.5 
z
" id="mcd44206fb6" style="stroke:#6495ed;"/>
    </defs>
    <g>
     <use style="fill:#6495ed;stroke:#6495ed;" x="309.9372" xlink:href="#mcd44206fb6" y="9.697057"/>
     <use style="fill:#6495ed;stroke:#6495ed;" x="309.9372" xlink:href="#mcd44206fb6" y="9.697057"/>
    </g>
   </g>
   <g id="line2d_39">
    <path d="M 4.578827 294.88 
L 4.578827 273.631075 
L 16.504332 273.631075 
L 16.504332 273.071893 
L 23.480305 273.071893 
L 23.480305 270.835164 
L 28.429836 270.835164 
L 28.429836 269.716799 
L 38.057951 269.716799 
L 38.057951 269.157617 
L 40.355341 269.157617 
L 40.355341 268.598435 
L 52.280845 268.598435 
L 52.280845 268.039252 
L 61.283259 268.039252 
L 61.283259 267.48007 
L 86.946982 267.48007 
L 86.946982 266.920888 
L 98.140254 266.920888 
L 98.140254 265.802523 
L 104.194317 265.802523 
L 104.194317 264.684159 
L 105.265187 264.684159 
L 105.265187 264.124977 
L 118.081836 264.124977 
L 118.081836 263.565795 
L 118.658847 263.565795 
L 118.658847 263.006612 
L 119.672487 263.006612 
L 119.672487 262.44743 
L 125.128081 262.44743 
L 125.128081 261.888248 
L 127.926534 261.888248 
L 127.926534 261.329066 
L 133.239736 261.329066 
L 133.239736 260.210701 
L 134.359835 260.210701 
L 134.359835 259.092337 
L 135.152334 259.092337 
L 135.152334 258.533154 
L 137.185543 258.533154 
L 137.185543 257.973972 
L 137.904883 257.973972 
L 137.904883 257.41479 
L 138.581096 257.41479 
L 138.581096 256.855608 
L 139.14915 256.855608 
L 139.14915 255.737243 
L 141.53513 255.737243 
L 141.53513 255.178061 
L 141.985575 255.178061 
L 141.985575 254.059696 
L 142.447324 254.059696 
L 142.447324 253.500514 
L 143.084614 253.500514 
L 143.084614 252.941332 
L 143.587574 252.941332 
L 143.587574 252.38215 
L 146.046762 252.38215 
L 146.046762 250.145421 
L 146.321752 250.145421 
L 146.321752 249.586238 
L 147.095235 249.586238 
L 147.095235 249.027056 
L 147.634402 249.027056 
L 147.634402 247.908692 
L 148.14083 247.908692 
L 148.14083 246.790327 
L 149.871126 246.790327 
L 149.871126 246.231145 
L 150.040452 246.231145 
L 150.040452 245.671963 
L 150.233501 245.671963 
L 150.233501 245.112781 
L 151.436444 245.112781 
L 151.436444 244.553598 
L 151.939031 244.553598 
L 151.939031 243.994416 
L 152.102266 243.994416 
L 152.102266 242.316869 
L 152.573398 242.316869 
L 152.573398 241.198505 
L 153.090361 241.198505 
L 153.090361 240.08014 
L 153.622015 240.08014 
L 153.622015 239.520958 
L 153.831923 239.520958 
L 153.831923 238.961776 
L 154.024778 238.961776 
L 154.024778 237.843411 
L 155.890006 237.843411 
L 155.936871 236.725047 
L 156.662385 236.725047 
L 156.714653 233.929136 
L 156.927062 233.929136 
L 157.02497 232.810771 
L 157.066413 232.810771 
L 157.066413 231.692407 
L 157.72799 231.692407 
L 157.756084 230.574042 
L 157.967646 230.574042 
L 157.967646 230.01486 
L 158.151509 230.01486 
L 158.151509 229.455678 
L 158.782189 229.455678 
L 158.782189 228.896496 
L 158.933581 228.896496 
L 159.003343 227.778131 
L 159.10962 227.778131 
L 159.10962 227.218949 
L 159.42669 227.218949 
L 159.466975 226.100584 
L 159.804603 226.100584 
L 159.804603 225.541402 
L 159.97405 225.541402 
L 159.97405 224.98222 
L 160.109232 224.98222 
L 160.109232 224.423038 
L 160.546351 224.423038 
L 160.633645 222.745491 
L 160.887053 222.745491 
L 160.887053 222.186309 
L 161.044282 222.186309 
L 161.044282 221.627126 
L 162.015336 221.627126 
L 162.09732 219.94958 
L 162.685135 219.94958 
L 162.709708 218.831215 
L 162.913711 218.831215 
L 162.991534 216.035304 
L 163.105041 216.035304 
L 163.105041 215.476122 
L 163.44786 215.476122 
L 163.44786 214.91694 
L 163.630047 214.91694 
L 163.668245 213.239393 
L 164.00989 213.239393 
L 164.011516 212.121028 
L 164.202342 212.121028 
L 164.202342 211.561846 
L 164.720357 211.561846 
L 164.720357 211.002664 
L 164.8401 211.002664 
L 164.8401 210.443482 
L 165.090866 210.443482 
L 165.090866 209.884299 
L 165.405644 209.884299 
L 165.405644 208.765935 
L 165.522217 208.765935 
L 165.531151 207.088388 
L 165.916834 207.088388 
L 165.916834 205.970024 
L 166.48666 205.970024 
L 166.551319 204.292477 
L 166.646459 204.292477 
L 166.698006 202.61493 
L 166.913657 202.61493 
L 166.913657 202.055748 
L 167.31153 202.055748 
L 167.320924 200.378201 
L 167.423919 200.378201 
L 167.423919 199.259837 
L 167.693846 199.259837 
L 167.792029 198.141472 
L 167.946672 198.141472 
L 167.946672 197.023108 
L 168.144757 197.023108 
L 168.144757 196.463926 
L 168.267094 196.463926 
L 168.343115 195.345561 
L 168.660028 195.345561 
L 168.747925 193.108832 
L 168.832918 193.108832 
L 168.832918 192.54965 
L 169.219287 192.54965 
L 169.219287 191.990468 
L 169.95197 191.990468 
L 169.95197 191.431285 
L 170.293958 191.431285 
L 170.386264 188.076192 
L 170.701081 188.076192 
L 170.70549 186.957828 
L 171.025391 186.957828 
L 171.088017 185.839463 
L 171.228633 185.839463 
L 171.228633 185.280281 
L 171.482251 185.280281 
L 171.482251 183.602734 
L 171.674989 183.602734 
L 171.674989 183.043552 
L 171.850133 183.043552 
L 171.925239 181.366005 
L 172.107011 181.366005 
L 172.115135 180.247641 
L 172.222426 180.247641 
L 172.222426 179.688458 
L 172.892322 179.688458 
L 172.892322 179.129276 
L 173.069972 179.129276 
L 173.069972 178.570094 
L 173.237248 178.570094 
L 173.263861 176.892547 
L 173.428331 176.892547 
L 173.428331 176.333365 
L 173.730456 176.333365 
L 173.730456 175.774183 
L 174.184731 175.774183 
L 174.265564 174.655818 
L 174.41722 174.655818 
L 174.52612 173.537454 
L 174.593945 173.537454 
L 174.626441 171.859907 
L 174.956679 171.859907 
L 174.983341 170.18236 
L 175.32288 170.18236 
L 175.32288 169.623178 
L 175.527264 169.623178 
L 175.616959 167.945631 
L 175.811348 167.945631 
L 175.878379 166.827267 
L 176.143921 166.827267 
L 176.232065 164.031356 
L 176.299072 164.031356 
L 176.410174 161.235444 
L 176.457571 161.235444 
L 176.457571 160.676262 
L 176.685609 160.676262 
L 176.787287 157.880351 
L 176.842144 157.880351 
L 176.919114 156.202804 
L 177.075832 156.202804 
L 177.075832 154.525258 
L 177.238675 154.525258 
L 177.346138 152.288529 
L 177.758432 152.288529 
L 177.770861 151.170164 
L 177.900468 151.170164 
L 177.900468 150.610982 
L 178.336656 150.610982 
L 178.434682 148.374253 
L 178.474017 148.374253 
L 178.530754 147.255888 
L 178.597059 147.255888 
L 178.667967 145.578342 
L 178.829542 145.578342 
L 178.8995 143.900795 
L 179.173154 143.900795 
L 179.173154 143.341613 
L 179.379404 143.341613 
L 179.4339 141.664066 
L 179.494837 141.664066 
L 179.494837 141.104884 
L 179.694674 141.104884 
L 179.722754 139.986519 
L 179.820351 139.986519 
L 179.921912 138.868155 
L 180.017747 138.868155 
L 180.017747 138.308973 
L 180.405871 138.308973 
L 180.405871 137.74979 
L 180.639438 137.74979 
L 180.647478 136.072244 
L 180.948438 136.072244 
L 181.032692 132.71715 
L 181.262133 132.71715 
L 181.262133 132.157968 
L 181.421296 132.157968 
L 181.510917 131.039603 
L 181.549686 131.039603 
L 181.549686 130.480421 
L 181.891861 130.480421 
L 182.002518 128.243692 
L 182.022509 128.243692 
L 182.022509 127.68451 
L 182.173124 127.68451 
L 182.251038 126.566145 
L 182.405257 126.566145 
L 182.511007 124.888599 
L 182.775304 124.888599 
L 182.823321 123.770234 
L 182.901064 123.770234 
L 182.966574 120.974323 
L 183.199511 120.974323 
L 183.199511 120.415141 
L 183.351835 120.415141 
L 183.351835 119.855959 
L 183.934719 119.855959 
L 183.934719 119.296776 
L 184.313119 119.296776 
L 184.313119 118.737594 
L 184.729284 118.737594 
L 184.729284 118.178412 
L 184.870153 118.178412 
L 184.92618 116.500865 
L 185.023789 116.500865 
L 185.023789 115.941683 
L 185.283136 115.941683 
L 185.283136 115.382501 
L 185.507426 115.382501 
L 185.614778 113.145772 
L 186.184347 113.145772 
L 186.184347 112.586589 
L 186.41319 112.586589 
L 186.507577 109.790678 
L 186.545802 109.790678 
L 186.545802 109.231496 
L 186.941044 109.231496 
L 186.941044 108.672314 
L 187.394381 108.672314 
L 187.394381 107.553949 
L 188.153173 107.553949 
L 188.182329 106.435585 
L 189.024151 106.435585 
L 189.024151 105.876403 
L 189.528913 105.876403 
L 189.528913 105.31722 
L 190.285484 105.31722 
L 190.393206 104.198856 
L 191.295586 104.198856 
L 191.295586 103.639674 
L 191.513318 103.639674 
L 191.536976 102.521309 
L 191.782797 102.521309 
L 191.782797 101.962127 
L 231.005386 101.962127 
L 231.081918 100.843762 
L 231.30129 100.843762 
L 231.327834 99.166216 
L 231.520215 99.166216 
L 231.619984 95.25194 
L 231.636402 95.25194 
L 231.675052 92.456029 
L 231.77982 92.456029 
L 231.881215 89.100935 
L 231.94706 89.100935 
L 232.018493 86.864206 
L 232.059692 86.864206 
L 232.059692 86.305024 
L 242.753842 86.305024 
L 242.839822 84.627477 
L 242.876025 84.627477 
L 242.979374 80.713202 
L 242.997874 80.713202 
L 243.096314 76.798926 
L 243.163818 76.798926 
L 243.163818 76.239744 
L 249.639282 76.239744 
L 249.736366 74.003015 
L 249.769715 74.003015 
L 249.8479 68.970375 
L 254.520622 68.970375 
L 254.631607 62.260188 
L 254.637167 62.260188 
L 254.649607 61.141823 
L 258.304616 61.141823 
L 258.38498 56.668365 
L 261.388206 56.668365 
L 261.47182 53.313272 
L 264.035651 53.313272 
L 264.065796 49.958178 
L 266.273925 49.958178 
L 266.349608 45.484721 
L 268.32043 45.484721 
L 268.351112 42.688809 
L 270.116207 42.688809 
L 270.14494 39.333716 
L 271.742136 39.333716 
L 271.742136 37.656169 
L 273.231544 37.656169 
L 273.250661 35.41944 
L 274.608958 35.41944 
L 274.61623 34.301076 
L 275.861537 34.301076 
L 275.880103 33.182711 
L 278.141839 33.182711 
L 278.16261 30.945982 
L 279.180052 30.945982 
L 279.199008 27.031707 
L 280.171242 27.031707 
L 280.174293 25.35416 
L 281.083389 25.35416 
L 281.086824 24.235795 
L 281.96305 24.235795 
L 281.979176 22.558249 
L 282.809783 22.558249 
L 282.809783 21.999066 
L 283.598121 21.999066 
L 283.610753 20.880702 
L 285.096965 20.880702 
L 285.096965 20.32152 
L 285.791023 20.32152 
L 285.800677 19.203155 
L 287.110443 19.203155 
L 287.119384 16.966426 
L 288.339296 16.966426 
L 288.339296 16.407244 
L 288.920636 16.407244 
L 288.920636 15.848062 
L 294.696269 15.848062 
L 294.696269 15.28888 
L 295.094041 15.28888 
L 295.094041 14.729697 
L 296.983866 14.729697 
L 296.983866 14.170515 
L 297.339137 14.170515 
L 297.33999 13.052151 
L 298.363103 13.052151 
L 298.363103 12.492968 
L 299.634297 12.492968 
L 299.634297 11.933786 
L 301.92727 11.933786 
L 301.92727 11.374604 
L 303.948839 11.374604 
L 303.948839 10.815422 
L 304.880113 10.815422 
L 304.880113 10.256239 
L 309.9372 10.256239 
L 309.9372 9.697057 
L 333.429677 9.697057 
L 333.429677 9.697057 
" style="fill:none;stroke:#6495ed;stroke-linecap:square;stroke-width:1.5;"/>
   </g>
   <g id="line2d_40">
    <defs>
     <path d="M -0 6 
L 6 -6 
L -6 -6 
z
" id="macdfd87405" style="stroke:#6495ed;stroke-linejoin:miter;stroke-width:1.5;"/>
    </defs>
    <g>
     <use style="fill-opacity:0;stroke:#6495ed;stroke-linejoin:miter;stroke-width:1.5;" x="151.939031" xlink:href="#macdfd87405" y="243.994416"/>
     <use style="fill-opacity:0;stroke:#6495ed;stroke-linejoin:miter;stroke-width:1.5;" x="191.782797" xlink:href="#macdfd87405" y="102.521309"/>
     <use style="fill-opacity:0;stroke:#6495ed;stroke-linejoin:miter;stroke-width:1.5;" x="268.32043" xlink:href="#macdfd87405" y="44.925538"/>
     <use style="fill-opacity:0;stroke:#6495ed;stroke-linejoin:miter;stroke-width:1.5;" x="309.9372" xlink:href="#macdfd87405" y="9.697057"/>
     <use style="fill-opacity:0;stroke:#6495ed;stroke-linejoin:miter;stroke-width:1.5;" x="333.429677" xlink:href="#macdfd87405" y="9.697057"/>
    </g>
   </g>
   <g id="line2d_41">
    <path style="fill:none;stroke:#6495ed;stroke-linecap:square;stroke-width:1.5;"/>
    <g/>
   </g>
   <g id="line2d_42">
    <path clip-path="url(#pc576f285d4)" d="M 230.347349 101.962127 
" style="fill:none;stroke:#6495ed;stroke-linecap:square;stroke-width:1.5;"/>
    <defs>
     <path d="M -12 12 
L 12 -12 
M -12 -12 
L 12 12 
" id="md5f702b5dc" style="stroke:#6495ed;stroke-width:3;"/>
    </defs>
    <g clip-path="url(#pc576f285d4)">
     <use style="fill:#6495ed;stroke:#6495ed;stroke-width:3;" x="230.347349" xlink:href="#md5f702b5dc" y="101.962127"/>
    </g>
   </g>
   <g id="line2d_43">
    <defs>
     <path d="M 0 1.5 
C 0.397805 1.5 0.77937 1.341951 1.06066 1.06066 
C 1.341951 0.77937 1.5 0.397805 1.5 0 
C 1.5 -0.397805 1.341951 -0.77937 1.06066 -1.06066 
C 0.77937 -1.341951 0.397805 -1.5 0 -1.5 
C -0.397805 -1.5 -0.77937 -1.341951 -1.06066 -1.06066 
C -1.341951 -0.77937 -1.5 -0.397805 -1.5 0 
C -1.5 0.397805 -1.341951 0.77937 -1.06066 1.06066 
C -0.77937 1.341951 -0.397805 1.5 0 1.5 
z
" id="m91baa8e568" style="stroke:#ff0000;"/>
    </defs>
    <g>
     <use style="fill:#ff0000;stroke:#ff0000;" x="254.385821" xlink:href="#m91baa8e568" y="266.920888"/>
     <use style="fill:#ff0000;stroke:#ff0000;" x="254.385821" xlink:href="#m91baa8e568" y="266.920888"/>
    </g>
   </g>
   <g id="line2d_44">
    <path d="M 166.346673 294.88 
L 166.346673 293.202453 
L 167.066833 293.202453 
L 167.066833 292.643271 
L 168.345643 292.643271 
L 168.345643 291.524907 
L 169.470945 291.524907 
L 169.470945 290.965724 
L 169.736472 290.965724 
L 169.736472 290.406542 
L 171.161152 290.406542 
L 171.161152 289.84736 
L 171.496992 289.84736 
L 171.496992 289.288178 
L 171.647885 289.288178 
L 171.647885 288.728995 
L 171.68332 288.728995 
L 171.68332 288.169813 
L 172.881643 288.169813 
L 172.881643 287.610631 
L 173.202016 287.610631 
L 173.202016 286.492266 
L 173.366131 286.492266 
L 173.366131 285.933084 
L 173.709183 285.933084 
L 173.709183 284.81472 
L 173.970946 284.81472 
L 173.970946 283.696355 
L 174.239559 283.696355 
L 174.239559 282.577991 
L 174.393223 282.577991 
L 174.393223 281.459626 
L 174.809724 281.459626 
L 174.809724 280.900444 
L 174.854808 280.900444 
L 174.854808 280.341262 
L 175.110069 280.341262 
L 175.110069 279.222897 
L 175.352347 279.222897 
L 175.352347 278.663715 
L 175.830176 278.663715 
L 175.830176 278.104533 
L 176.039974 278.104533 
L 176.039974 277.545351 
L 176.077112 277.545351 
L 176.077112 276.426986 
L 176.537061 276.426986 
L 176.537061 275.867804 
L 177.11384 275.867804 
L 177.11384 274.749439 
L 177.545006 274.749439 
L 177.545006 274.190257 
L 177.668968 274.190257 
L 177.668968 272.51271 
L 178.265077 272.51271 
L 178.265077 271.953528 
L 181.947565 271.953528 
L 181.947565 271.394346 
L 182.265678 271.394346 
L 182.265678 270.835164 
L 184.318615 270.835164 
L 184.318615 269.716799 
L 231.039002 269.716799 
L 231.039002 269.157617 
L 231.066183 269.157617 
L 231.066183 268.598435 
L 249.524476 268.598435 
L 249.524476 268.039252 
L 249.5628 268.039252 
L 249.5628 267.48007 
L 254.385821 267.48007 
L 254.385821 266.920888 
L 333.429677 266.920888 
" style="fill:none;stroke:#ff0000;stroke-linecap:square;stroke-width:1.5;"/>
   </g>
   <g id="line2d_45">
    <defs>
     <path d="M 0 -6 
L -5.196152 -3 
L -5.196152 3 
L -0 6 
L 5.196152 3 
L 5.196152 -3 
z
" id="ma944564e06" style="stroke:#ff0000;stroke-linejoin:miter;stroke-width:1.5;"/>
    </defs>
    <g>
     <use style="fill-opacity:0;stroke:#ff0000;stroke-linejoin:miter;stroke-width:1.5;" x="184.318615" xlink:href="#ma944564e06" y="270.835164"/>
     <use style="fill-opacity:0;stroke:#ff0000;stroke-linejoin:miter;stroke-width:1.5;" x="254.385821" xlink:href="#ma944564e06" y="267.48007"/>
     <use style="fill-opacity:0;stroke:#ff0000;stroke-linejoin:miter;stroke-width:1.5;" x="254.385821" xlink:href="#ma944564e06" y="266.920888"/>
     <use style="fill-opacity:0;stroke:#ff0000;stroke-linejoin:miter;stroke-width:1.5;" x="333.429677" xlink:href="#ma944564e06" y="266.920888"/>
    </g>
   </g>
   <g id="line2d_46">
    <path style="fill:none;stroke:#ff0000;stroke-linecap:square;stroke-width:1.5;"/>
    <g/>
   </g>
   <g id="line2d_47">
    <path clip-path="url(#pc576f285d4)" d="M 230.347349 269.716799 
" style="fill:none;stroke:#ff0000;stroke-linecap:square;stroke-width:1.5;"/>
    <defs>
     <path d="M -12 12 
L 12 -12 
M -12 -12 
L 12 12 
" id="m64ca33a475" style="stroke:#ff0000;stroke-width:3;"/>
    </defs>
    <g clip-path="url(#pc576f285d4)">
     <use style="fill:#ff0000;stroke:#ff0000;stroke-width:3;" x="230.347349" xlink:href="#m64ca33a475" y="269.716799"/>
    </g>
   </g>
   <g id="line2d_48">
    <path d="M 333.429677 266.920888 
L 363.933742 289.176341 
" style="fill:none;stroke:#ff0000;stroke-linecap:square;stroke-width:1.5;"/>
    <g>
     <use style="fill-opacity:0;stroke:#ff0000;stroke-linejoin:miter;stroke-width:1.5;" x="333.429677" xlink:href="#ma944564e06" y="266.920888"/>
     <use style="fill-opacity:0;stroke:#ff0000;stroke-linejoin:miter;stroke-width:1.5;" x="363.933742" xlink:href="#ma944564e06" y="289.176341"/>
    </g>
   </g>
   <g id="line2d_49">
    <path d="M 333.429677 211.002664 
L 363.933742 220.732435 
" style="fill:none;stroke:#ff00ff;stroke-linecap:square;stroke-width:1.5;"/>
    <g>
     <use style="fill-opacity:0;stroke:#ff00ff;stroke-linejoin:miter;stroke-width:1.5;" x="333.429677" xlink:href="#maed9bf0d1e" y="211.002664"/>
     <use style="fill-opacity:0;stroke:#ff00ff;stroke-linejoin:miter;stroke-width:1.5;" x="363.933742" xlink:href="#maed9bf0d1e" y="220.732435"/>
    </g>
   </g>
   <g id="line2d_50">
    <path d="M 333.429677 205.410841 
L 363.933742 152.288529 
" style="fill:none;stroke:#ffa500;stroke-linecap:square;stroke-width:1.5;"/>
    <g>
     <use style="fill-opacity:0;stroke:#ffa500;stroke-linejoin:bevel;stroke-width:1.5;" x="333.429677" xlink:href="#m7280a59d75" y="205.410841"/>
     <use style="fill-opacity:0;stroke:#ffa500;stroke-linejoin:bevel;stroke-width:1.5;" x="363.933742" xlink:href="#m7280a59d75" y="152.288529"/>
    </g>
   </g>
   <g id="line2d_51">
    <path d="M 333.429677 160.676262 
L 363.933742 83.844622 
" style="fill:none;stroke:#000080;stroke-linecap:square;stroke-width:1.5;"/>
    <g>
     <use style="fill-opacity:0;stroke:#000080;stroke-width:1.5;" x="333.429677" xlink:href="#mb143aace94" y="160.676262"/>
     <use style="fill-opacity:0;stroke:#000080;stroke-width:1.5;" x="363.933742" xlink:href="#mb143aace94" y="83.844622"/>
    </g>
   </g>
   <g id="line2d_52">
    <path d="M 333.429677 9.697057 
L 363.933742 15.400716 
" style="fill:none;stroke:#6495ed;stroke-linecap:square;stroke-width:1.5;"/>
    <g>
     <use style="fill-opacity:0;stroke:#6495ed;stroke-linejoin:miter;stroke-width:1.5;" x="333.429677" xlink:href="#macdfd87405" y="9.697057"/>
     <use style="fill-opacity:0;stroke:#6495ed;stroke-linejoin:miter;stroke-width:1.5;" x="363.933742" xlink:href="#macdfd87405" y="15.400716"/>
    </g>
   </g>
   <g id="line2d_53">
    <path d="M 333.429677 294.88 
L 333.429677 9.697057 
" style="fill:none;stroke:#000000;stroke-linecap:square;stroke-width:1.5;"/>
   </g>
   <g id="patch_3">
    <path d="M 56.12 294.88 
L 56.12 6.845228 
" style="fill:none;stroke:#000000;stroke-linecap:square;stroke-linejoin:miter;stroke-width:0.8;"/>
   </g>
   <g id="patch_4">
    <path d="M 399.984 294.88 
L 399.984 6.845228 
" style="fill:none;stroke:#000000;stroke-linecap:square;stroke-linejoin:miter;stroke-width:0.8;"/>
   </g>
   <g id="patch_5">
    <path d="M 56.12 294.88 
L 399.984 294.88 
" style="fill:none;stroke:#000000;stroke-linecap:square;stroke-linejoin:miter;stroke-width:0.8;"/>
   </g>
   <g id="patch_6">
    <path d="M 56.12 6.845228 
L 399.984 6.845228 
" style="fill:none;stroke:#000000;stroke-linecap:square;stroke-linejoin:miter;stroke-width:0.8;"/>
   </g>
   <g id="text_14">
    <!-- f15 -->
    <defs>
     <path d="M 10.796875 72.90625 
L 49.515625 72.90625 
L 49.515625 64.59375 
L 19.828125 64.59375 
L 19.828125 46.734375 
Q 21.96875 47.46875 24.109375 47.828125 
Q 26.265625 48.1875 28.421875 48.1875 
Q 40.625 48.1875 47.75 41.5 
Q 54.890625 34.8125 54.890625 23.390625 
Q 54.890625 11.625 47.5625 5.09375 
Q 40.234375 -1.421875 26.90625 -1.421875 
Q 22.3125 -1.421875 17.546875 -0.640625 
Q 12.796875 0.140625 7.71875 1.703125 
L 7.71875 11.625 
Q 12.109375 9.234375 16.796875 8.0625 
Q 21.484375 6.890625 26.703125 6.890625 
Q 35.15625 6.890625 40.078125 11.328125 
Q 45.015625 15.765625 45.015625 23.390625 
Q 45.015625 31 40.078125 35.4375 
Q 35.15625 39.890625 26.703125 39.890625 
Q 22.75 39.890625 18.8125 39.015625 
Q 14.890625 38.140625 10.796875 36.28125 
z
" id="DejaVuSans-35"/>
    </defs>
    <g transform="translate(369.479935 293.867279)scale(0.17 -0.17)">
     <use xlink:href="#DejaVuSans-66"/>
     <use x="35.205078" xlink:href="#DejaVuSans-31"/>
     <use x="98.828125" xlink:href="#DejaVuSans-35"/>
    </g>
   </g>
   <g id="text_15">
    <!-- f19 -->
    <defs>
     <path d="M 10.984375 1.515625 
L 10.984375 10.5 
Q 14.703125 8.734375 18.5 7.8125 
Q 22.3125 6.890625 25.984375 6.890625 
Q 35.75 6.890625 40.890625 13.453125 
Q 46.046875 20.015625 46.78125 33.40625 
Q 43.953125 29.203125 39.59375 26.953125 
Q 35.25 24.703125 29.984375 24.703125 
Q 19.046875 24.703125 12.671875 31.3125 
Q 6.296875 37.9375 6.296875 49.421875 
Q 6.296875 60.640625 12.9375 67.421875 
Q 19.578125 74.21875 30.609375 74.21875 
Q 43.265625 74.21875 49.921875 64.515625 
Q 56.59375 54.828125 56.59375 36.375 
Q 56.59375 19.140625 48.40625 8.859375 
Q 40.234375 -1.421875 26.421875 -1.421875 
Q 22.703125 -1.421875 18.890625 -0.6875 
Q 15.09375 0.046875 10.984375 1.515625 
z
M 30.609375 32.421875 
Q 37.25 32.421875 41.125 36.953125 
Q 45.015625 41.5 45.015625 49.421875 
Q 45.015625 57.28125 41.125 61.84375 
Q 37.25 66.40625 30.609375 66.40625 
Q 23.96875 66.40625 20.09375 61.84375 
Q 16.21875 57.28125 16.21875 49.421875 
Q 16.21875 41.5 20.09375 36.953125 
Q 23.96875 32.421875 30.609375 32.421875 
z
" id="DejaVuSans-39"/>
    </defs>
    <g transform="translate(369.479935 225.423372)scale(0.17 -0.17)">
     <use xlink:href="#DejaVuSans-66"/>
     <use x="35.205078" xlink:href="#DejaVuSans-31"/>
     <use x="98.828125" xlink:href="#DejaVuSans-39"/>
    </g>
   </g>
   <g id="text_16">
    <!-- f16 -->
    <g transform="translate(369.479935 156.979466)scale(0.17 -0.17)">
     <use xlink:href="#DejaVuSans-66"/>
     <use x="35.205078" xlink:href="#DejaVuSans-31"/>
     <use x="98.828125" xlink:href="#DejaVuSans-36"/>
    </g>
   </g>
   <g id="text_17">
    <!-- f18 -->
    <g transform="translate(369.479935 88.53556)scale(0.17 -0.17)">
     <use xlink:href="#DejaVuSans-66"/>
     <use x="35.205078" xlink:href="#DejaVuSans-31"/>
     <use x="98.828125" xlink:href="#DejaVuSans-38"/>
    </g>
   </g>
   <g id="text_18">
    <!-- f17 -->
    <defs>
     <path d="M 8.203125 72.90625 
L 55.078125 72.90625 
L 55.078125 68.703125 
L 28.609375 0 
L 18.3125 0 
L 43.21875 64.59375 
L 8.203125 64.59375 
z
" id="DejaVuSans-37"/>
    </defs>
    <g transform="translate(369.479935 20.091654)scale(0.17 -0.17)">
     <use xlink:href="#DejaVuSans-66"/>
     <use x="35.205078" xlink:href="#DejaVuSans-31"/>
     <use x="98.828125" xlink:href="#DejaVuSans-37"/>
    </g>
   </g>
   <g id="text_19">
    <!-- bbob -->
    <defs>
     <path d="M 48.6875 27.296875 
Q 48.6875 37.203125 44.609375 42.84375 
Q 40.53125 48.484375 33.40625 48.484375 
Q 26.265625 48.484375 22.1875 42.84375 
Q 18.109375 37.203125 18.109375 27.296875 
Q 18.109375 17.390625 22.1875 11.75 
Q 26.265625 6.109375 33.40625 6.109375 
Q 40.53125 6.109375 44.609375 11.75 
Q 48.6875 17.390625 48.6875 27.296875 
z
M 18.109375 46.390625 
Q 20.953125 51.265625 25.265625 53.625 
Q 29.59375 56 35.59375 56 
Q 45.5625 56 51.78125 48.09375 
Q 58.015625 40.1875 58.015625 27.296875 
Q 58.015625 14.40625 51.78125 6.484375 
Q 45.5625 -1.421875 35.59375 -1.421875 
Q 29.59375 -1.421875 25.265625 0.953125 
Q 20.953125 3.328125 18.109375 8.203125 
L 18.109375 0 
L 9.078125 0 
L 9.078125 75.984375 
L 18.109375 75.984375 
z
" id="DejaVuSans-62"/>
    </defs>
    <g transform="translate(59.55864 17.475982)scale(0.102 -0.102)">
     <use xlink:href="#DejaVuSans-62"/>
     <use x="63.476562" xlink:href="#DejaVuSans-62"/>
     <use x="126.953125" xlink:href="#DejaVuSans-6f"/>
     <use x="188.134766" xlink:href="#DejaVuSans-62"/>
    </g>
    <!-- Multi-modal functions, 40-D -->
    <defs>
     <path d="M 9.8125 72.90625 
L 24.515625 72.90625 
L 43.109375 23.296875 
L 61.8125 72.90625 
L 76.515625 72.90625 
L 76.515625 0 
L 66.890625 0 
L 66.890625 64.015625 
L 48.09375 14.015625 
L 38.1875 14.015625 
L 19.390625 64.015625 
L 19.390625 0 
L 9.8125 0 
z
" id="DejaVuSans-4d"/>
     <path d="M 19.671875 64.796875 
L 19.671875 8.109375 
L 31.59375 8.109375 
Q 46.6875 8.109375 53.6875 14.9375 
Q 60.6875 21.78125 60.6875 36.53125 
Q 60.6875 51.171875 53.6875 57.984375 
Q 46.6875 64.796875 31.59375 64.796875 
z
M 9.8125 72.90625 
L 30.078125 72.90625 
Q 51.265625 72.90625 61.171875 64.09375 
Q 71.09375 55.28125 71.09375 36.53125 
Q 71.09375 17.671875 61.125 8.828125 
Q 51.171875 0 30.078125 0 
L 9.8125 0 
z
" id="DejaVuSans-44"/>
    </defs>
    <g transform="translate(59.55864 28.89775)scale(0.102 -0.102)">
     <use xlink:href="#DejaVuSans-4d"/>
     <use x="86.279297" xlink:href="#DejaVuSans-75"/>
     <use x="149.658203" xlink:href="#DejaVuSans-6c"/>
     <use x="177.441406" xlink:href="#DejaVuSans-74"/>
     <use x="216.650391" xlink:href="#DejaVuSans-69"/>
     <use x="244.433594" xlink:href="#DejaVuSans-2d"/>
     <use x="280.517578" xlink:href="#DejaVuSans-6d"/>
     <use x="377.929688" xlink:href="#DejaVuSans-6f"/>
     <use x="439.111328" xlink:href="#DejaVuSans-64"/>
     <use x="502.587891" xlink:href="#DejaVuSans-61"/>
     <use x="563.867188" xlink:href="#DejaVuSans-6c"/>
     <use x="591.650391" xlink:href="#DejaVuSans-20"/>
     <use x="623.4375" xlink:href="#DejaVuSans-66"/>
     <use x="658.642578" xlink:href="#DejaVuSans-75"/>
     <use x="722.021484" xlink:href="#DejaVuSans-6e"/>
     <use x="785.400391" xlink:href="#DejaVuSans-63"/>
     <use x="840.380859" xlink:href="#DejaVuSans-74"/>
     <use x="879.589844" xlink:href="#DejaVuSans-69"/>
     <use x="907.373047" xlink:href="#DejaVuSans-6f"/>
     <use x="968.554688" xlink:href="#DejaVuSans-6e"/>
     <use x="1031.933594" xlink:href="#DejaVuSans-73"/>
     <use x="1084.033203" xlink:href="#DejaVuSans-2c"/>
     <use x="1115.820312" xlink:href="#DejaVuSans-20"/>
     <use x="1147.607422" xlink:href="#DejaVuSans-34"/>
     <use x="1211.230469" xlink:href="#DejaVuSans-30"/>
     <use x="1274.853516" xlink:href="#DejaVuSans-2d"/>
     <use x="1310.9375" xlink:href="#DejaVuSans-44"/>
    </g>
    <!-- 51 targets: 100..1e-08 -->
    <defs>
     <path d="M 11.71875 12.40625 
L 22.015625 12.40625 
L 22.015625 0 
L 11.71875 0 
z
M 11.71875 51.703125 
L 22.015625 51.703125 
L 22.015625 39.3125 
L 11.71875 39.3125 
z
" id="DejaVuSans-3a"/>
    </defs>
    <g transform="translate(59.55864 40.319519)scale(0.102 -0.102)">
     <use xlink:href="#DejaVuSans-35"/>
     <use x="63.623047" xlink:href="#DejaVuSans-31"/>
     <use x="127.246094" xlink:href="#DejaVuSans-20"/>
     <use x="159.033203" xlink:href="#DejaVuSans-74"/>
     <use x="198.242188" xlink:href="#DejaVuSans-61"/>
     <use x="259.521484" xlink:href="#DejaVuSans-72"/>
     <use x="300.619141" xlink:href="#DejaVuSans-67"/>
     <use x="364.095703" xlink:href="#DejaVuSans-65"/>
     <use x="425.619141" xlink:href="#DejaVuSans-74"/>
     <use x="464.828125" xlink:href="#DejaVuSans-73"/>
     <use x="516.927734" xlink:href="#DejaVuSans-3a"/>
     <use x="550.619141" xlink:href="#DejaVuSans-20"/>
     <use x="582.40625" xlink:href="#DejaVuSans-31"/>
     <use x="646.029297" xlink:href="#DejaVuSans-30"/>
     <use x="709.652344" xlink:href="#DejaVuSans-30"/>
     <use x="773.275391" xlink:href="#DejaVuSans-2e"/>
     <use x="805.0625" xlink:href="#DejaVuSans-2e"/>
     <use x="836.849609" xlink:href="#DejaVuSans-31"/>
     <use x="900.472656" xlink:href="#DejaVuSans-65"/>
     <use x="961.996094" xlink:href="#DejaVuSans-2d"/>
     <use x="998.080078" xlink:href="#DejaVuSans-30"/>
     <use x="1061.703125" xlink:href="#DejaVuSans-38"/>
    </g>
    <!-- 15 instances -->
    <g transform="translate(59.55864 51.741288)scale(0.102 -0.102)">
     <use xlink:href="#DejaVuSans-31"/>
     <use x="63.623047" xlink:href="#DejaVuSans-35"/>
     <use x="127.246094" xlink:href="#DejaVuSans-20"/>
     <use x="159.033203" xlink:href="#DejaVuSans-69"/>
     <use x="186.816406" xlink:href="#DejaVuSans-6e"/>
     <use x="250.195312" xlink:href="#DejaVuSans-73"/>
     <use x="302.294922" xlink:href="#DejaVuSans-74"/>
     <use x="341.503906" xlink:href="#DejaVuSans-61"/>
     <use x="402.783203" xlink:href="#DejaVuSans-6e"/>
     <use x="466.162109" xlink:href="#DejaVuSans-63"/>
     <use x="521.142578" xlink:href="#DejaVuSans-65"/>
     <use x="582.666016" xlink:href="#DejaVuSans-73"/>
    </g>
   </g>
   <g id="text_20">
    <!-- v0.0.0 -->
    <g style="fill:#808080;" transform="translate(212.37075 289.919965)scale(0.1 -0.1)">
     <use xlink:href="#DejaVuSans-76"/>
     <use x="59.179688" xlink:href="#DejaVuSans-30"/>
     <use x="122.802734" xlink:href="#DejaVuSans-2e"/>
     <use x="154.589844" xlink:href="#DejaVuSans-30"/>
     <use x="218.212891" xlink:href="#DejaVuSans-2e"/>
     <use x="250" xlink:href="#DejaVuSans-30"/>
    </g>
   </g>
  </g>
 </g>
 <defs>
  <clipPath id="pc576f285d4">
   <rect height="288.034772" width="343.864" x="56.12" y="6.845228"/>
  </clipPath>
 </defs>
</svg>
