<?xml version="1.0" encoding="utf-8" standalone="no"?>
<!DOCTYPE svg PUBLIC "-//W3C//DTD SVG 1.1//EN"
  "http://www.w3.org/Graphics/SVG/1.1/DTD/svg11.dtd">
<!-- Created with matplotlib (http://matplotlib.org/) -->
<svg height="345.6pt" version="1.1" viewBox="0 0 460.8 345.6" width="460.8pt" xmlns="http://www.w3.org/2000/svg" xmlns:xlink="http://www.w3.org/1999/xlink">
 <defs>
  <style type="text/css">
*{stroke-linecap:butt;stroke-linejoin:round;}
  </style>
 </defs>
 <g id="figure_1">
  <g id="patch_1">
   <path d="M 0 345.6 
L 460.8 345.6 
L 460.8 0 
L 0 0 
z
" style="fill:#ffffff;"/>
  </g>
  <g id="axes_1">
   <g id="patch_2">
    <path d="M 56.12 294.88 
L 399.984 294.88 
L 399.984 24.84 
L 56.12 24.84 
z
" style="fill:#ffffff;"/>
   </g>
   <g id="matplotlib.axis_1">
    <g id="xtick_1">
     <g id="line2d_1">
      <path clip-path="url(#p809a6de29f)" d="M 56.12 294.88 
L 56.12 24.84 
" style="fill:none;stroke:#b0b0b0;stroke-linecap:square;stroke-width:0.8;"/>
     </g>
     <g id="line2d_2">
      <defs>
       <path d="M 0 0 
L 0 3.5 
" id="madbb976cc9" style="stroke:#000000;stroke-width:0.8;"/>
      </defs>
      <g>
       <use style="stroke:#000000;stroke-width:0.8;" x="56.12" xlink:href="#madbb976cc9" y="294.88"/>
      </g>
     </g>
     <g id="text_1">
      <!-- 0 -->
      <defs>
       <path d="M 31.78125 66.40625 
Q 24.171875 66.40625 20.328125 58.90625 
Q 16.5 51.421875 16.5 36.375 
Q 16.5 21.390625 20.328125 13.890625 
Q 24.171875 6.390625 31.78125 6.390625 
Q 39.453125 6.390625 43.28125 13.890625 
Q 47.125 21.390625 47.125 36.375 
Q 47.125 51.421875 43.28125 58.90625 
Q 39.453125 66.40625 31.78125 66.40625 
z
M 31.78125 74.21875 
Q 44.046875 74.21875 50.515625 64.515625 
Q 56.984375 54.828125 56.984375 36.375 
Q 56.984375 17.96875 50.515625 8.265625 
Q 44.046875 -1.421875 31.78125 -1.421875 
Q 19.53125 -1.421875 13.0625 8.265625 
Q 6.59375 17.96875 6.59375 36.375 
Q 6.59375 54.828125 13.0625 64.515625 
Q 19.53125 74.21875 31.78125 74.21875 
z
" id="DejaVuSans-30"/>
      </defs>
      <g transform="translate(49.7575 317.076875)scale(0.2 -0.2)">
       <use xlink:href="#DejaVuSans-30"/>
      </g>
     </g>
    </g>
    <g id="xtick_2">
     <g id="line2d_3">
      <path clip-path="url(#p809a6de29f)" d="M 135.351336 294.88 
L 135.351336 24.84 
" style="fill:none;stroke:#b0b0b0;stroke-linecap:square;stroke-width:0.8;"/>
     </g>
     <g id="line2d_4">
      <g>
       <use style="stroke:#000000;stroke-width:0.8;" x="135.351336" xlink:href="#madbb976cc9" y="294.88"/>
      </g>
     </g>
     <g id="text_2">
      <!-- 2 -->
      <defs>
       <path d="M 19.1875 8.296875 
L 53.609375 8.296875 
L 53.609375 0 
L 7.328125 0 
L 7.328125 8.296875 
Q 12.9375 14.109375 22.625 23.890625 
Q 32.328125 33.6875 34.8125 36.53125 
Q 39.546875 41.84375 41.421875 45.53125 
Q 43.3125 49.21875 43.3125 52.78125 
Q 43.3125 58.59375 39.234375 62.25 
Q 35.15625 65.921875 28.609375 65.921875 
Q 23.96875 65.921875 18.8125 64.3125 
Q 13.671875 62.703125 7.8125 59.421875 
L 7.8125 69.390625 
Q 13.765625 71.78125 18.9375 73 
Q 24.125 74.21875 28.421875 74.21875 
Q 39.75 74.21875 46.484375 68.546875 
Q 53.21875 62.890625 53.21875 53.421875 
Q 53.21875 48.921875 51.53125 44.890625 
Q 49.859375 40.875 45.40625 35.40625 
Q 44.1875 33.984375 37.640625 27.21875 
Q 31.109375 20.453125 19.1875 8.296875 
z
" id="DejaVuSans-32"/>
      </defs>
      <g transform="translate(128.988836 317.076875)scale(0.2 -0.2)">
       <use xlink:href="#DejaVuSans-32"/>
      </g>
     </g>
    </g>
    <g id="xtick_3">
     <g id="line2d_5">
      <path clip-path="url(#p809a6de29f)" d="M 214.582673 294.88 
L 214.582673 24.84 
" style="fill:none;stroke:#b0b0b0;stroke-linecap:square;stroke-width:0.8;"/>
     </g>
     <g id="line2d_6">
      <g>
       <use style="stroke:#000000;stroke-width:0.8;" x="214.582673" xlink:href="#madbb976cc9" y="294.88"/>
      </g>
     </g>
     <g id="text_3">
      <!-- 4 -->
      <defs>
       <path d="M 37.796875 64.3125 
L 12.890625 25.390625 
L 37.796875 25.390625 
z
M 35.203125 72.90625 
L 47.609375 72.90625 
L 47.609375 25.390625 
L 58.015625 25.390625 
L 58.015625 17.1875 
L 47.609375 17.1875 
L 47.609375 0 
L 37.796875 0 
L 37.796875 17.1875 
L 4.890625 17.1875 
L 4.890625 26.703125 
z
" id="DejaVuSans-34"/>
      </defs>
      <g transform="translate(208.220173 317.076875)scale(0.2 -0.2)">
       <use xlink:href="#DejaVuSans-34"/>
      </g>
     </g>
    </g>
    <g id="xtick_4">
     <g id="line2d_7">
      <path clip-path="url(#p809a6de29f)" d="M 293.814009 294.88 
L 293.814009 24.84 
" style="fill:none;stroke:#b0b0b0;stroke-linecap:square;stroke-width:0.8;"/>
     </g>
     <g id="line2d_8">
      <g>
       <use style="stroke:#000000;stroke-width:0.8;" x="293.814009" xlink:href="#madbb976cc9" y="294.88"/>
      </g>
     </g>
     <g id="text_4">
      <!-- 6 -->
      <defs>
       <path d="M 33.015625 40.375 
Q 26.375 40.375 22.484375 35.828125 
Q 18.609375 31.296875 18.609375 23.390625 
Q 18.609375 15.53125 22.484375 10.953125 
Q 26.375 6.390625 33.015625 6.390625 
Q 39.65625 6.390625 43.53125 10.953125 
Q 47.40625 15.53125 47.40625 23.390625 
Q 47.40625 31.296875 43.53125 35.828125 
Q 39.65625 40.375 33.015625 40.375 
z
M 52.59375 71.296875 
L 52.59375 62.3125 
Q 48.875 64.0625 45.09375 64.984375 
Q 41.3125 65.921875 37.59375 65.921875 
Q 27.828125 65.921875 22.671875 59.328125 
Q 17.53125 52.734375 16.796875 39.40625 
Q 19.671875 43.65625 24.015625 45.921875 
Q 28.375 48.1875 33.59375 48.1875 
Q 44.578125 48.1875 50.953125 41.515625 
Q 57.328125 34.859375 57.328125 23.390625 
Q 57.328125 12.15625 50.6875 5.359375 
Q 44.046875 -1.421875 33.015625 -1.421875 
Q 20.359375 -1.421875 13.671875 8.265625 
Q 6.984375 17.96875 6.984375 36.375 
Q 6.984375 53.65625 15.1875 63.9375 
Q 23.390625 74.21875 37.203125 74.21875 
Q 40.921875 74.21875 44.703125 73.484375 
Q 48.484375 72.75 52.59375 71.296875 
z
" id="DejaVuSans-36"/>
      </defs>
      <g transform="translate(287.451509 317.076875)scale(0.2 -0.2)">
       <use xlink:href="#DejaVuSans-36"/>
      </g>
     </g>
    </g>
    <g id="xtick_5">
     <g id="line2d_9">
      <path clip-path="url(#p809a6de29f)" d="M 373.045346 294.88 
L 373.045346 24.84 
" style="fill:none;stroke:#b0b0b0;stroke-linecap:square;stroke-width:0.8;"/>
     </g>
     <g id="line2d_10">
      <g>
       <use style="stroke:#000000;stroke-width:0.8;" x="373.045346" xlink:href="#madbb976cc9" y="294.88"/>
      </g>
     </g>
     <g id="text_5">
      <!-- 8 -->
      <defs>
       <path d="M 31.78125 34.625 
Q 24.75 34.625 20.71875 30.859375 
Q 16.703125 27.09375 16.703125 20.515625 
Q 16.703125 13.921875 20.71875 10.15625 
Q 24.75 6.390625 31.78125 6.390625 
Q 38.8125 6.390625 42.859375 10.171875 
Q 46.921875 13.96875 46.921875 20.515625 
Q 46.921875 27.09375 42.890625 30.859375 
Q 38.875 34.625 31.78125 34.625 
z
M 21.921875 38.8125 
Q 15.578125 40.375 12.03125 44.71875 
Q 8.5 49.078125 8.5 55.328125 
Q 8.5 64.0625 14.71875 69.140625 
Q 20.953125 74.21875 31.78125 74.21875 
Q 42.671875 74.21875 48.875 69.140625 
Q 55.078125 64.0625 55.078125 55.328125 
Q 55.078125 49.078125 51.53125 44.71875 
Q 48 40.375 41.703125 38.8125 
Q 48.828125 37.15625 52.796875 32.3125 
Q 56.78125 27.484375 56.78125 20.515625 
Q 56.78125 9.90625 50.3125 4.234375 
Q 43.84375 -1.421875 31.78125 -1.421875 
Q 19.734375 -1.421875 13.25 4.234375 
Q 6.78125 9.90625 6.78125 20.515625 
Q 6.78125 27.484375 10.78125 32.3125 
Q 14.796875 37.15625 21.921875 38.8125 
z
M 18.3125 54.390625 
Q 18.3125 48.734375 21.84375 45.5625 
Q 25.390625 42.390625 31.78125 42.390625 
Q 38.140625 42.390625 41.71875 45.5625 
Q 45.3125 48.734375 45.3125 54.390625 
Q 45.3125 60.0625 41.71875 63.234375 
Q 38.140625 66.40625 31.78125 66.40625 
Q 25.390625 66.40625 21.84375 63.234375 
Q 18.3125 60.0625 18.3125 54.390625 
z
" id="DejaVuSans-38"/>
      </defs>
      <g transform="translate(366.682846 317.076875)scale(0.2 -0.2)">
       <use xlink:href="#DejaVuSans-38"/>
      </g>
     </g>
    </g>
    <g id="text_6">
     <!-- log10(# f-evals / dimension) -->
     <defs>
      <path d="M 9.421875 75.984375 
L 18.40625 75.984375 
L 18.40625 0 
L 9.421875 0 
z
" id="DejaVuSans-6c"/>
      <path d="M 30.609375 48.390625 
Q 23.390625 48.390625 19.1875 42.75 
Q 14.984375 37.109375 14.984375 27.296875 
Q 14.984375 17.484375 19.15625 11.84375 
Q 23.34375 6.203125 30.609375 6.203125 
Q 37.796875 6.203125 41.984375 11.859375 
Q 46.1875 17.53125 46.1875 27.296875 
Q 46.1875 37.015625 41.984375 42.703125 
Q 37.796875 48.390625 30.609375 48.390625 
z
M 30.609375 56 
Q 42.328125 56 49.015625 48.375 
Q 55.71875 40.765625 55.71875 27.296875 
Q 55.71875 13.875 49.015625 6.21875 
Q 42.328125 -1.421875 30.609375 -1.421875 
Q 18.84375 -1.421875 12.171875 6.21875 
Q 5.515625 13.875 5.515625 27.296875 
Q 5.515625 40.765625 12.171875 48.375 
Q 18.84375 56 30.609375 56 
z
" id="DejaVuSans-6f"/>
      <path d="M 45.40625 27.984375 
Q 45.40625 37.75 41.375 43.109375 
Q 37.359375 48.484375 30.078125 48.484375 
Q 22.859375 48.484375 18.828125 43.109375 
Q 14.796875 37.75 14.796875 27.984375 
Q 14.796875 18.265625 18.828125 12.890625 
Q 22.859375 7.515625 30.078125 7.515625 
Q 37.359375 7.515625 41.375 12.890625 
Q 45.40625 18.265625 45.40625 27.984375 
z
M 54.390625 6.78125 
Q 54.390625 -7.171875 48.1875 -13.984375 
Q 42 -20.796875 29.203125 -20.796875 
Q 24.46875 -20.796875 20.265625 -20.09375 
Q 16.0625 -19.390625 12.109375 -17.921875 
L 12.109375 -9.1875 
Q 16.0625 -11.328125 19.921875 -12.34375 
Q 23.78125 -13.375 27.78125 -13.375 
Q 36.625 -13.375 41.015625 -8.765625 
Q 45.40625 -4.15625 45.40625 5.171875 
L 45.40625 9.625 
Q 42.625 4.78125 38.28125 2.390625 
Q 33.9375 0 27.875 0 
Q 17.828125 0 11.671875 7.65625 
Q 5.515625 15.328125 5.515625 27.984375 
Q 5.515625 40.671875 11.671875 48.328125 
Q 17.828125 56 27.875 56 
Q 33.9375 56 38.28125 53.609375 
Q 42.625 51.21875 45.40625 46.390625 
L 45.40625 54.6875 
L 54.390625 54.6875 
z
" id="DejaVuSans-67"/>
      <path d="M 12.40625 8.296875 
L 28.515625 8.296875 
L 28.515625 63.921875 
L 10.984375 60.40625 
L 10.984375 69.390625 
L 28.421875 72.90625 
L 38.28125 72.90625 
L 38.28125 8.296875 
L 54.390625 8.296875 
L 54.390625 0 
L 12.40625 0 
z
" id="DejaVuSans-31"/>
      <path d="M 31 75.875 
Q 24.46875 64.65625 21.28125 53.65625 
Q 18.109375 42.671875 18.109375 31.390625 
Q 18.109375 20.125 21.3125 9.0625 
Q 24.515625 -2 31 -13.1875 
L 23.1875 -13.1875 
Q 15.875 -1.703125 12.234375 9.375 
Q 8.59375 20.453125 8.59375 31.390625 
Q 8.59375 42.28125 12.203125 53.3125 
Q 15.828125 64.359375 23.1875 75.875 
z
" id="DejaVuSans-28"/>
      <path d="M 51.125 44 
L 36.921875 44 
L 32.8125 27.6875 
L 47.125 27.6875 
z
M 43.796875 71.78125 
L 38.71875 51.515625 
L 52.984375 51.515625 
L 58.109375 71.78125 
L 65.921875 71.78125 
L 60.890625 51.515625 
L 76.125 51.515625 
L 76.125 44 
L 58.984375 44 
L 54.984375 27.6875 
L 70.515625 27.6875 
L 70.515625 20.21875 
L 53.078125 20.21875 
L 48 0 
L 40.1875 0 
L 45.21875 20.21875 
L 30.90625 20.21875 
L 25.875 0 
L 18.015625 0 
L 23.09375 20.21875 
L 7.71875 20.21875 
L 7.71875 27.6875 
L 24.90625 27.6875 
L 29 44 
L 13.28125 44 
L 13.28125 51.515625 
L 30.90625 51.515625 
L 35.890625 71.78125 
z
" id="DejaVuSans-23"/>
      <path id="DejaVuSans-20"/>
      <path d="M 37.109375 75.984375 
L 37.109375 68.5 
L 28.515625 68.5 
Q 23.6875 68.5 21.796875 66.546875 
Q 19.921875 64.59375 19.921875 59.515625 
L 19.921875 54.6875 
L 34.71875 54.6875 
L 34.71875 47.703125 
L 19.921875 47.703125 
L 19.921875 0 
L 10.890625 0 
L 10.890625 47.703125 
L 2.296875 47.703125 
L 2.296875 54.6875 
L 10.890625 54.6875 
L 10.890625 58.5 
Q 10.890625 67.625 15.140625 71.796875 
Q 19.390625 75.984375 28.609375 75.984375 
z
" id="DejaVuSans-66"/>
      <path d="M 4.890625 31.390625 
L 31.203125 31.390625 
L 31.203125 23.390625 
L 4.890625 23.390625 
z
" id="DejaVuSans-2d"/>
      <path d="M 56.203125 29.59375 
L 56.203125 25.203125 
L 14.890625 25.203125 
Q 15.484375 15.921875 20.484375 11.0625 
Q 25.484375 6.203125 34.421875 6.203125 
Q 39.59375 6.203125 44.453125 7.46875 
Q 49.3125 8.734375 54.109375 11.28125 
L 54.109375 2.78125 
Q 49.265625 0.734375 44.1875 -0.34375 
Q 39.109375 -1.421875 33.890625 -1.421875 
Q 20.796875 -1.421875 13.15625 6.1875 
Q 5.515625 13.8125 5.515625 26.8125 
Q 5.515625 40.234375 12.765625 48.109375 
Q 20.015625 56 32.328125 56 
Q 43.359375 56 49.78125 48.890625 
Q 56.203125 41.796875 56.203125 29.59375 
z
M 47.21875 32.234375 
Q 47.125 39.59375 43.09375 43.984375 
Q 39.0625 48.390625 32.421875 48.390625 
Q 24.90625 48.390625 20.390625 44.140625 
Q 15.875 39.890625 15.1875 32.171875 
z
" id="DejaVuSans-65"/>
      <path d="M 2.984375 54.6875 
L 12.5 54.6875 
L 29.59375 8.796875 
L 46.6875 54.6875 
L 56.203125 54.6875 
L 35.6875 0 
L 23.484375 0 
z
" id="DejaVuSans-76"/>
      <path d="M 34.28125 27.484375 
Q 23.390625 27.484375 19.1875 25 
Q 14.984375 22.515625 14.984375 16.5 
Q 14.984375 11.71875 18.140625 8.90625 
Q 21.296875 6.109375 26.703125 6.109375 
Q 34.1875 6.109375 38.703125 11.40625 
Q 43.21875 16.703125 43.21875 25.484375 
L 43.21875 27.484375 
z
M 52.203125 31.203125 
L 52.203125 0 
L 43.21875 0 
L 43.21875 8.296875 
Q 40.140625 3.328125 35.546875 0.953125 
Q 30.953125 -1.421875 24.3125 -1.421875 
Q 15.921875 -1.421875 10.953125 3.296875 
Q 6 8.015625 6 15.921875 
Q 6 25.140625 12.171875 29.828125 
Q 18.359375 34.515625 30.609375 34.515625 
L 43.21875 34.515625 
L 43.21875 35.40625 
Q 43.21875 41.609375 39.140625 45 
Q 35.0625 48.390625 27.6875 48.390625 
Q 23 48.390625 18.546875 47.265625 
Q 14.109375 46.140625 10.015625 43.890625 
L 10.015625 52.203125 
Q 14.9375 54.109375 19.578125 55.046875 
Q 24.21875 56 28.609375 56 
Q 40.484375 56 46.34375 49.84375 
Q 52.203125 43.703125 52.203125 31.203125 
z
" id="DejaVuSans-61"/>
      <path d="M 44.28125 53.078125 
L 44.28125 44.578125 
Q 40.484375 46.53125 36.375 47.5 
Q 32.28125 48.484375 27.875 48.484375 
Q 21.1875 48.484375 17.84375 46.4375 
Q 14.5 44.390625 14.5 40.28125 
Q 14.5 37.15625 16.890625 35.375 
Q 19.28125 33.59375 26.515625 31.984375 
L 29.59375 31.296875 
Q 39.15625 29.25 43.1875 25.515625 
Q 47.21875 21.78125 47.21875 15.09375 
Q 47.21875 7.46875 41.1875 3.015625 
Q 35.15625 -1.421875 24.609375 -1.421875 
Q 20.21875 -1.421875 15.453125 -0.5625 
Q 10.6875 0.296875 5.421875 2 
L 5.421875 11.28125 
Q 10.40625 8.6875 15.234375 7.390625 
Q 20.0625 6.109375 24.8125 6.109375 
Q 31.15625 6.109375 34.5625 8.28125 
Q 37.984375 10.453125 37.984375 14.40625 
Q 37.984375 18.0625 35.515625 20.015625 
Q 33.0625 21.96875 24.703125 23.78125 
L 21.578125 24.515625 
Q 13.234375 26.265625 9.515625 29.90625 
Q 5.8125 33.546875 5.8125 39.890625 
Q 5.8125 47.609375 11.28125 51.796875 
Q 16.75 56 26.8125 56 
Q 31.78125 56 36.171875 55.265625 
Q 40.578125 54.546875 44.28125 53.078125 
z
" id="DejaVuSans-73"/>
      <path d="M 25.390625 72.90625 
L 33.6875 72.90625 
L 8.296875 -9.28125 
L 0 -9.28125 
z
" id="DejaVuSans-2f"/>
      <path d="M 45.40625 46.390625 
L 45.40625 75.984375 
L 54.390625 75.984375 
L 54.390625 0 
L 45.40625 0 
L 45.40625 8.203125 
Q 42.578125 3.328125 38.25 0.953125 
Q 33.9375 -1.421875 27.875 -1.421875 
Q 17.96875 -1.421875 11.734375 6.484375 
Q 5.515625 14.40625 5.515625 27.296875 
Q 5.515625 40.1875 11.734375 48.09375 
Q 17.96875 56 27.875 56 
Q 33.9375 56 38.25 53.625 
Q 42.578125 51.265625 45.40625 46.390625 
z
M 14.796875 27.296875 
Q 14.796875 17.390625 18.875 11.75 
Q 22.953125 6.109375 30.078125 6.109375 
Q 37.203125 6.109375 41.296875 11.75 
Q 45.40625 17.390625 45.40625 27.296875 
Q 45.40625 37.203125 41.296875 42.84375 
Q 37.203125 48.484375 30.078125 48.484375 
Q 22.953125 48.484375 18.875 42.84375 
Q 14.796875 37.203125 14.796875 27.296875 
z
" id="DejaVuSans-64"/>
      <path d="M 9.421875 54.6875 
L 18.40625 54.6875 
L 18.40625 0 
L 9.421875 0 
z
M 9.421875 75.984375 
L 18.40625 75.984375 
L 18.40625 64.59375 
L 9.421875 64.59375 
z
" id="DejaVuSans-69"/>
      <path d="M 52 44.1875 
Q 55.375 50.25 60.0625 53.125 
Q 64.75 56 71.09375 56 
Q 79.640625 56 84.28125 50.015625 
Q 88.921875 44.046875 88.921875 33.015625 
L 88.921875 0 
L 79.890625 0 
L 79.890625 32.71875 
Q 79.890625 40.578125 77.09375 44.375 
Q 74.3125 48.1875 68.609375 48.1875 
Q 61.625 48.1875 57.5625 43.546875 
Q 53.515625 38.921875 53.515625 30.90625 
L 53.515625 0 
L 44.484375 0 
L 44.484375 32.71875 
Q 44.484375 40.625 41.703125 44.40625 
Q 38.921875 48.1875 33.109375 48.1875 
Q 26.21875 48.1875 22.15625 43.53125 
Q 18.109375 38.875 18.109375 30.90625 
L 18.109375 0 
L 9.078125 0 
L 9.078125 54.6875 
L 18.109375 54.6875 
L 18.109375 46.1875 
Q 21.1875 51.21875 25.484375 53.609375 
Q 29.78125 56 35.6875 56 
Q 41.65625 56 45.828125 52.96875 
Q 50 49.953125 52 44.1875 
z
" id="DejaVuSans-6d"/>
      <path d="M 54.890625 33.015625 
L 54.890625 0 
L 45.90625 0 
L 45.90625 32.71875 
Q 45.90625 40.484375 42.875 44.328125 
Q 39.84375 48.1875 33.796875 48.1875 
Q 26.515625 48.1875 22.3125 43.546875 
Q 18.109375 38.921875 18.109375 30.90625 
L 18.109375 0 
L 9.078125 0 
L 9.078125 54.6875 
L 18.109375 54.6875 
L 18.109375 46.1875 
Q 21.34375 51.125 25.703125 53.5625 
Q 30.078125 56 35.796875 56 
Q 45.21875 56 50.046875 50.171875 
Q 54.890625 44.34375 54.890625 33.015625 
z
" id="DejaVuSans-6e"/>
      <path d="M 8.015625 75.875 
L 15.828125 75.875 
Q 23.140625 64.359375 26.78125 53.3125 
Q 30.421875 42.28125 30.421875 31.390625 
Q 30.421875 20.453125 26.78125 9.375 
Q 23.140625 -1.703125 15.828125 -13.1875 
L 8.015625 -13.1875 
Q 14.5 -2 17.703125 9.0625 
Q 20.90625 20.125 20.90625 31.390625 
Q 20.90625 42.671875 17.703125 53.65625 
Q 14.5 64.65625 8.015625 75.875 
z
" id="DejaVuSans-29"/>
     </defs>
     <g transform="translate(107.211219 338.153594)scale(0.17 -0.17)">
      <use xlink:href="#DejaVuSans-6c"/>
      <use x="27.783203" xlink:href="#DejaVuSans-6f"/>
      <use x="88.964844" xlink:href="#DejaVuSans-67"/>
      <use x="152.441406" xlink:href="#DejaVuSans-31"/>
      <use x="216.064453" xlink:href="#DejaVuSans-30"/>
      <use x="279.6875" xlink:href="#DejaVuSans-28"/>
      <use x="318.701172" xlink:href="#DejaVuSans-23"/>
      <use x="402.490234" xlink:href="#DejaVuSans-20"/>
      <use x="434.277344" xlink:href="#DejaVuSans-66"/>
      <use x="469.404297" xlink:href="#DejaVuSans-2d"/>
      <use x="505.488281" xlink:href="#DejaVuSans-65"/>
      <use x="567.011719" xlink:href="#DejaVuSans-76"/>
      <use x="626.191406" xlink:href="#DejaVuSans-61"/>
      <use x="687.470703" xlink:href="#DejaVuSans-6c"/>
      <use x="715.253906" xlink:href="#DejaVuSans-73"/>
      <use x="767.353516" xlink:href="#DejaVuSans-20"/>
      <use x="799.140625" xlink:href="#DejaVuSans-2f"/>
      <use x="832.832031" xlink:href="#DejaVuSans-20"/>
      <use x="864.619141" xlink:href="#DejaVuSans-64"/>
      <use x="928.095703" xlink:href="#DejaVuSans-69"/>
      <use x="955.878906" xlink:href="#DejaVuSans-6d"/>
      <use x="1053.291016" xlink:href="#DejaVuSans-65"/>
      <use x="1114.814453" xlink:href="#DejaVuSans-6e"/>
      <use x="1178.193359" xlink:href="#DejaVuSans-73"/>
      <use x="1230.292969" xlink:href="#DejaVuSans-69"/>
      <use x="1258.076172" xlink:href="#DejaVuSans-6f"/>
      <use x="1319.257812" xlink:href="#DejaVuSans-6e"/>
      <use x="1382.636719" xlink:href="#DejaVuSans-29"/>
     </g>
    </g>
   </g>
   <g id="matplotlib.axis_2">
    <g id="ytick_1">
     <g id="line2d_11">
      <path clip-path="url(#p809a6de29f)" d="M 56.12 294.88 
L 399.984 294.88 
" style="fill:none;stroke:#b0b0b0;stroke-linecap:square;stroke-width:0.8;"/>
     </g>
     <g id="line2d_12">
      <defs>
       <path d="M 0 0 
L -3.5 0 
" id="m9c2775d386" style="stroke:#000000;stroke-width:0.8;"/>
      </defs>
      <g>
       <use style="stroke:#000000;stroke-width:0.8;" x="56.12" xlink:href="#m9c2775d386" y="294.88"/>
      </g>
     </g>
     <g id="text_7">
      <!-- 0.0 -->
      <defs>
       <path d="M 10.6875 12.40625 
L 21 12.40625 
L 21 0 
L 10.6875 0 
z
" id="DejaVuSans-2e"/>
      </defs>
      <g transform="translate(23.675 300.95875)scale(0.16 -0.16)">
       <use xlink:href="#DejaVuSans-30"/>
       <use x="63.623047" xlink:href="#DejaVuSans-2e"/>
       <use x="95.410156" xlink:href="#DejaVuSans-30"/>
      </g>
     </g>
    </g>
    <g id="ytick_2">
     <g id="line2d_13">
      <path clip-path="url(#p809a6de29f)" d="M 56.12 241.406733 
L 399.984 241.406733 
" style="fill:none;stroke:#b0b0b0;stroke-linecap:square;stroke-width:0.8;"/>
     </g>
     <g id="line2d_14">
      <g>
       <use style="stroke:#000000;stroke-width:0.8;" x="56.12" xlink:href="#m9c2775d386" y="241.406733"/>
      </g>
     </g>
     <g id="text_8">
      <!-- 0.2 -->
      <g transform="translate(23.675 247.485483)scale(0.16 -0.16)">
       <use xlink:href="#DejaVuSans-30"/>
       <use x="63.623047" xlink:href="#DejaVuSans-2e"/>
       <use x="95.410156" xlink:href="#DejaVuSans-32"/>
      </g>
     </g>
    </g>
    <g id="ytick_3">
     <g id="line2d_15">
      <path clip-path="url(#p809a6de29f)" d="M 56.12 187.933465 
L 399.984 187.933465 
" style="fill:none;stroke:#b0b0b0;stroke-linecap:square;stroke-width:0.8;"/>
     </g>
     <g id="line2d_16">
      <g>
       <use style="stroke:#000000;stroke-width:0.8;" x="56.12" xlink:href="#m9c2775d386" y="187.933465"/>
      </g>
     </g>
     <g id="text_9">
      <!-- 0.4 -->
      <g transform="translate(23.675 194.012215)scale(0.16 -0.16)">
       <use xlink:href="#DejaVuSans-30"/>
       <use x="63.623047" xlink:href="#DejaVuSans-2e"/>
       <use x="95.410156" xlink:href="#DejaVuSans-34"/>
      </g>
     </g>
    </g>
    <g id="ytick_4">
     <g id="line2d_17">
      <path clip-path="url(#p809a6de29f)" d="M 56.12 134.460198 
L 399.984 134.460198 
" style="fill:none;stroke:#b0b0b0;stroke-linecap:square;stroke-width:0.8;"/>
     </g>
     <g id="line2d_18">
      <g>
       <use style="stroke:#000000;stroke-width:0.8;" x="56.12" xlink:href="#m9c2775d386" y="134.460198"/>
      </g>
     </g>
     <g id="text_10">
      <!-- 0.6 -->
      <g transform="translate(23.675 140.538948)scale(0.16 -0.16)">
       <use xlink:href="#DejaVuSans-30"/>
       <use x="63.623047" xlink:href="#DejaVuSans-2e"/>
       <use x="95.410156" xlink:href="#DejaVuSans-36"/>
      </g>
     </g>
    </g>
    <g id="ytick_5">
     <g id="line2d_19">
      <path clip-path="url(#p809a6de29f)" d="M 56.12 80.986931 
L 399.984 80.986931 
" style="fill:none;stroke:#b0b0b0;stroke-linecap:square;stroke-width:0.8;"/>
     </g>
     <g id="line2d_20">
      <g>
       <use style="stroke:#000000;stroke-width:0.8;" x="56.12" xlink:href="#m9c2775d386" y="80.986931"/>
      </g>
     </g>
     <g id="text_11">
      <!-- 0.8 -->
      <g transform="translate(23.675 87.065681)scale(0.16 -0.16)">
       <use xlink:href="#DejaVuSans-30"/>
       <use x="63.623047" xlink:href="#DejaVuSans-2e"/>
       <use x="95.410156" xlink:href="#DejaVuSans-38"/>
      </g>
     </g>
    </g>
    <g id="ytick_6">
     <g id="line2d_21">
      <path clip-path="url(#p809a6de29f)" d="M 56.12 27.513663 
L 399.984 27.513663 
" style="fill:none;stroke:#b0b0b0;stroke-linecap:square;stroke-width:0.8;"/>
     </g>
     <g id="line2d_22">
      <g>
       <use style="stroke:#000000;stroke-width:0.8;" x="56.12" xlink:href="#m9c2775d386" y="27.513663"/>
      </g>
     </g>
     <g id="text_12">
      <!-- 1.0 -->
      <g transform="translate(23.675 33.592413)scale(0.16 -0.16)">
       <use xlink:href="#DejaVuSans-31"/>
       <use x="63.623047" xlink:href="#DejaVuSans-2e"/>
       <use x="95.410156" xlink:href="#DejaVuSans-30"/>
      </g>
     </g>
    </g>
    <g id="text_13">
     <!-- Fraction of function,target pairs -->
     <defs>
      <path d="M 9.8125 72.90625 
L 51.703125 72.90625 
L 51.703125 64.59375 
L 19.671875 64.59375 
L 19.671875 43.109375 
L 48.578125 43.109375 
L 48.578125 34.8125 
L 19.671875 34.8125 
L 19.671875 0 
L 9.8125 0 
z
" id="DejaVuSans-46"/>
      <path d="M 41.109375 46.296875 
Q 39.59375 47.171875 37.8125 47.578125 
Q 36.03125 48 33.890625 48 
Q 26.265625 48 22.1875 43.046875 
Q 18.109375 38.09375 18.109375 28.8125 
L 18.109375 0 
L 9.078125 0 
L 9.078125 54.6875 
L 18.109375 54.6875 
L 18.109375 46.1875 
Q 20.953125 51.171875 25.484375 53.578125 
Q 30.03125 56 36.53125 56 
Q 37.453125 56 38.578125 55.875 
Q 39.703125 55.765625 41.0625 55.515625 
z
" id="DejaVuSans-72"/>
      <path d="M 48.78125 52.59375 
L 48.78125 44.1875 
Q 44.96875 46.296875 41.140625 47.34375 
Q 37.3125 48.390625 33.40625 48.390625 
Q 24.65625 48.390625 19.8125 42.84375 
Q 14.984375 37.3125 14.984375 27.296875 
Q 14.984375 17.28125 19.8125 11.734375 
Q 24.65625 6.203125 33.40625 6.203125 
Q 37.3125 6.203125 41.140625 7.25 
Q 44.96875 8.296875 48.78125 10.40625 
L 48.78125 2.09375 
Q 45.015625 0.34375 40.984375 -0.53125 
Q 36.96875 -1.421875 32.421875 -1.421875 
Q 20.0625 -1.421875 12.78125 6.34375 
Q 5.515625 14.109375 5.515625 27.296875 
Q 5.515625 40.671875 12.859375 48.328125 
Q 20.21875 56 33.015625 56 
Q 37.15625 56 41.109375 55.140625 
Q 45.0625 54.296875 48.78125 52.59375 
z
" id="DejaVuSans-63"/>
      <path d="M 18.3125 70.21875 
L 18.3125 54.6875 
L 36.8125 54.6875 
L 36.8125 47.703125 
L 18.3125 47.703125 
L 18.3125 18.015625 
Q 18.3125 11.328125 20.140625 9.421875 
Q 21.96875 7.515625 27.59375 7.515625 
L 36.8125 7.515625 
L 36.8125 0 
L 27.59375 0 
Q 17.1875 0 13.234375 3.875 
Q 9.28125 7.765625 9.28125 18.015625 
L 9.28125 47.703125 
L 2.6875 47.703125 
L 2.6875 54.6875 
L 9.28125 54.6875 
L 9.28125 70.21875 
z
" id="DejaVuSans-74"/>
      <path d="M 8.5 21.578125 
L 8.5 54.6875 
L 17.484375 54.6875 
L 17.484375 21.921875 
Q 17.484375 14.15625 20.5 10.265625 
Q 23.53125 6.390625 29.59375 6.390625 
Q 36.859375 6.390625 41.078125 11.03125 
Q 45.3125 15.671875 45.3125 23.6875 
L 45.3125 54.6875 
L 54.296875 54.6875 
L 54.296875 0 
L 45.3125 0 
L 45.3125 8.40625 
Q 42.046875 3.421875 37.71875 1 
Q 33.40625 -1.421875 27.6875 -1.421875 
Q 18.265625 -1.421875 13.375 4.4375 
Q 8.5 10.296875 8.5 21.578125 
z
M 31.109375 56 
z
" id="DejaVuSans-75"/>
      <path d="M 11.71875 12.40625 
L 22.015625 12.40625 
L 22.015625 4 
L 14.015625 -11.625 
L 7.71875 -11.625 
L 11.71875 4 
z
" id="DejaVuSans-2c"/>
      <path d="M 18.109375 8.203125 
L 18.109375 -20.796875 
L 9.078125 -20.796875 
L 9.078125 54.6875 
L 18.109375 54.6875 
L 18.109375 46.390625 
Q 20.953125 51.265625 25.265625 53.625 
Q 29.59375 56 35.59375 56 
Q 45.5625 56 51.78125 48.09375 
Q 58.015625 40.1875 58.015625 27.296875 
Q 58.015625 14.40625 51.78125 6.484375 
Q 45.5625 -1.421875 35.59375 -1.421875 
Q 29.59375 -1.421875 25.265625 0.953125 
Q 20.953125 3.328125 18.109375 8.203125 
z
M 48.6875 27.296875 
Q 48.6875 37.203125 44.609375 42.84375 
Q 40.53125 48.484375 33.40625 48.484375 
Q 26.265625 48.484375 22.1875 42.84375 
Q 18.109375 37.203125 18.109375 27.296875 
Q 18.109375 17.390625 22.1875 11.75 
Q 26.265625 6.109375 33.40625 6.109375 
Q 40.53125 6.109375 44.609375 11.75 
Q 48.6875 17.390625 48.6875 27.296875 
z
" id="DejaVuSans-70"/>
     </defs>
     <g transform="translate(16.139531 294.999375)rotate(-90)scale(0.17 -0.17)">
      <use xlink:href="#DejaVuSans-46"/>
      <use x="57.410156" xlink:href="#DejaVuSans-72"/>
      <use x="98.523438" xlink:href="#DejaVuSans-61"/>
      <use x="159.802734" xlink:href="#DejaVuSans-63"/>
      <use x="214.783203" xlink:href="#DejaVuSans-74"/>
      <use x="253.992188" xlink:href="#DejaVuSans-69"/>
      <use x="281.775391" xlink:href="#DejaVuSans-6f"/>
      <use x="342.957031" xlink:href="#DejaVuSans-6e"/>
      <use x="406.335938" xlink:href="#DejaVuSans-20"/>
      <use x="438.123047" xlink:href="#DejaVuSans-6f"/>
      <use x="499.304688" xlink:href="#DejaVuSans-66"/>
      <use x="534.509766" xlink:href="#DejaVuSans-20"/>
      <use x="566.296875" xlink:href="#DejaVuSans-66"/>
      <use x="601.501953" xlink:href="#DejaVuSans-75"/>
      <use x="664.880859" xlink:href="#DejaVuSans-6e"/>
      <use x="728.259766" xlink:href="#DejaVuSans-63"/>
      <use x="783.240234" xlink:href="#DejaVuSans-74"/>
      <use x="822.449219" xlink:href="#DejaVuSans-69"/>
      <use x="850.232422" xlink:href="#DejaVuSans-6f"/>
      <use x="911.414062" xlink:href="#DejaVuSans-6e"/>
      <use x="974.792969" xlink:href="#DejaVuSans-2c"/>
      <use x="1006.580078" xlink:href="#DejaVuSans-74"/>
      <use x="1045.789062" xlink:href="#DejaVuSans-61"/>
      <use x="1107.068359" xlink:href="#DejaVuSans-72"/>
      <use x="1148.166016" xlink:href="#DejaVuSans-67"/>
      <use x="1211.642578" xlink:href="#DejaVuSans-65"/>
      <use x="1273.166016" xlink:href="#DejaVuSans-74"/>
      <use x="1312.375" xlink:href="#DejaVuSans-20"/>
      <use x="1344.162109" xlink:href="#DejaVuSans-70"/>
      <use x="1407.638672" xlink:href="#DejaVuSans-61"/>
      <use x="1468.917969" xlink:href="#DejaVuSans-69"/>
      <use x="1496.701172" xlink:href="#DejaVuSans-72"/>
      <use x="1537.814453" xlink:href="#DejaVuSans-73"/>
     </g>
    </g>
   </g>
   <g id="line2d_23">
    <defs>
     <path d="M 0 1.5 
C 0.397805 1.5 0.77937 1.341951 1.06066 1.06066 
C 1.341951 0.77937 1.5 0.397805 1.5 0 
C 1.5 -0.397805 1.341951 -0.77937 1.06066 -1.06066 
C 0.77937 -1.341951 0.397805 -1.5 0 -1.5 
C -0.397805 -1.5 -0.77937 -1.341951 -1.06066 -1.06066 
C -1.341951 -0.77937 -1.5 -0.397805 -1.5 0 
C -1.5 0.397805 -1.341951 0.77937 -1.06066 1.06066 
C -0.77937 1.341951 -0.397805 1.5 0 1.5 
z
" id="m267511f324" style="stroke:#00bfbf;"/>
    </defs>
    <g>
     <use style="fill:#00bfbf;stroke:#00bfbf;" x="294.017385" xlink:href="#m267511f324" y="27.513663"/>
     <use style="fill:#00bfbf;stroke:#00bfbf;" x="294.017385" xlink:href="#m267511f324" y="27.513663"/>
    </g>
   </g>
   <g id="line2d_24">
    <path d="M 56.12 294.88 
L 56.12 282.298055 
L 68.045504 282.298055 
L 68.045504 280.201064 
L 75.021477 280.201064 
L 75.021477 279.676816 
L 79.971009 279.676816 
L 79.971009 279.152568 
L 83.810164 279.152568 
L 83.810164 277.579825 
L 86.946982 277.579825 
L 86.946982 277.055578 
L 97.375467 277.055578 
L 97.375467 276.53133 
L 100.24961 276.53133 
L 100.24961 276.007082 
L 104.865056 276.007082 
L 104.865056 275.482834 
L 110.065758 275.482834 
L 110.065758 274.958587 
L 117.773963 274.958587 
L 117.773963 274.434339 
L 120.426105 274.434339 
L 120.426105 273.385844 
L 127.402078 273.385844 
L 127.402078 272.861596 
L 127.673027 272.861596 
L 127.673027 272.337348 
L 129.214792 272.337348 
L 129.214792 271.288853 
L 133.728734 271.288853 
L 133.728734 270.764605 
L 134.286778 270.764605 
L 134.286778 270.240357 
L 135.522531 270.240357 
L 135.522531 269.191862 
L 136.834012 269.191862 
L 136.834012 267.094871 
L 137.454074 267.094871 
L 137.454074 266.570623 
L 138.912987 266.570623 
L 138.912987 265.522128 
L 139.052299 265.522128 
L 139.052299 264.99788 
L 139.327583 264.99788 
L 139.327583 264.473632 
L 139.598531 264.473632 
L 139.598531 262.376641 
L 141.744038 262.376641 
L 141.744038 261.328146 
L 145.174963 261.328146 
L 145.174963 260.803898 
L 147.448035 260.803898 
L 147.448035 260.279651 
L 149.756068 260.279651 
L 149.756068 258.18266 
L 153.550477 258.18266 
L 153.550477 257.658412 
L 155.523735 257.658412 
L 155.523735 257.134164 
L 157.437357 257.134164 
L 157.437357 256.085669 
L 158.046028 256.085669 
L 158.046028 255.561421 
L 159.500826 255.561421 
L 159.500826 255.037173 
L 162.013509 255.037173 
L 162.013509 252.940182 
L 162.446359 252.940182 
L 162.446359 252.415935 
L 163.946346 252.415935 
L 163.946346 251.367439 
L 164.173369 251.367439 
L 164.173369 250.843192 
L 165.052642 250.843192 
L 165.052642 249.794696 
L 167.947966 249.794696 
L 167.947966 249.270448 
L 168.731864 249.270448 
L 168.731864 248.221953 
L 172.251662 248.221953 
L 172.251662 247.697705 
L 172.806706 247.697705 
L 172.806706 247.173458 
L 173.532435 247.173458 
L 173.532435 246.124962 
L 175.052815 246.124962 
L 175.052815 245.600714 
L 176.777998 245.600714 
L 176.777998 243.503724 
L 178.640195 243.503724 
L 178.640195 241.93098 
L 178.80616 241.93098 
L 178.80616 240.882485 
L 180.97576 240.882485 
L 181.036319 237.736999 
L 181.324073 237.736999 
L 181.324073 235.11576 
L 182.507122 235.11576 
L 182.507122 234.591512 
L 184.683375 234.591512 
L 184.683375 233.543017 
L 186.693507 233.543017 
L 186.693507 232.494521 
L 187.080729 232.494521 
L 187.080729 231.970274 
L 187.967903 231.970274 
L 187.967903 230.921778 
L 189.01807 230.921778 
L 189.01807 230.397531 
L 189.423793 230.397531 
L 189.423793 229.349035 
L 190.036494 229.349035 
L 190.036494 225.679301 
L 191.934269 225.679301 
L 191.934269 223.58231 
L 192.595229 223.58231 
L 192.595229 222.533815 
L 192.883055 222.533815 
L 192.883055 218.339833 
L 193.338522 218.339833 
L 193.338522 216.76709 
L 194.062374 216.76709 
L 194.062374 216.242842 
L 194.197935 216.242842 
L 194.197935 214.145851 
L 195.456066 214.145851 
L 195.456066 212.04886 
L 195.920393 212.04886 
L 195.920393 211.524613 
L 196.599095 211.524613 
L 196.599095 210.476117 
L 197.256747 210.476117 
L 197.256747 209.95187 
L 197.611019 209.95187 
L 197.615632 207.330631 
L 198.562352 207.330631 
L 198.562352 206.282136 
L 199.677912 206.282136 
L 199.677912 204.709392 
L 199.848903 204.709392 
L 199.848903 202.088154 
L 200.37943 202.088154 
L 200.434335 196.845677 
L 201.563301 196.845677 
L 201.563301 195.797181 
L 201.70208 195.797181 
L 201.70208 193.70019 
L 202.81132 193.70019 
L 202.81132 192.651695 
L 203.259011 192.651695 
L 203.259011 192.127447 
L 204.390557 192.127447 
L 204.48364 191.078952 
L 204.711116 191.078952 
L 204.711116 190.030456 
L 204.823735 190.030456 
L 204.823735 189.506209 
L 205.52231 189.506209 
L 205.52231 188.981961 
L 206.120626 188.981961 
L 206.120626 188.457713 
L 206.647064 188.457713 
L 206.687947 187.409218 
L 207.815329 187.409218 
L 207.820428 185.312227 
L 207.980262 185.312227 
L 207.980262 184.787979 
L 208.235933 184.787979 
L 208.340115 180.06975 
L 208.350004 180.06975 
L 208.350004 179.545502 
L 208.51481 179.545502 
L 208.583219 178.497006 
L 208.702285 178.497006 
L 208.791648 174.827272 
L 209.357969 174.827272 
L 209.453274 172.206034 
L 209.529601 172.206034 
L 209.529601 169.584795 
L 209.674383 169.584795 
L 209.674383 169.060547 
L 209.967094 169.060547 
L 209.967094 168.5363 
L 210.252696 168.5363 
L 210.252696 166.439309 
L 210.655116 166.439309 
L 210.655116 165.915061 
L 210.780039 165.915061 
L 210.887009 163.293823 
L 210.91897 163.293823 
L 210.950872 161.196832 
L 211.316679 161.196832 
L 211.376897 155.954354 
L 211.541933 155.954354 
L 211.541933 154.905859 
L 211.711501 154.905859 
L 211.806786 151.760373 
L 211.88344 151.760373 
L 211.931678 148.614886 
L 212.047698 148.614886 
L 212.047698 148.090639 
L 212.412618 148.090639 
L 212.517692 142.848162 
L 212.743175 142.848162 
L 212.743175 140.751171 
L 212.897566 140.751171 
L 212.91653 139.178427 
L 213.031765 139.178427 
L 213.031765 138.129932 
L 213.196657 138.129932 
L 213.26366 133.411703 
L 213.44107 133.411703 
L 213.44107 132.887455 
L 213.71647 132.887455 
L 213.71647 132.363207 
L 213.896458 132.363207 
L 213.93759 131.314712 
L 214.155904 131.314712 
L 214.243864 127.12073 
L 214.299923 127.12073 
L 214.299923 125.547987 
L 214.499891 125.547987 
L 214.562015 122.926748 
L 214.75046 122.926748 
L 214.75046 120.829757 
L 214.943603 120.829757 
L 214.943603 120.30551 
L 215.117933 120.30551 
L 215.139601 119.257014 
L 215.302069 119.257014 
L 215.302069 115.58728 
L 215.413906 115.58728 
L 215.498941 110.344803 
L 215.544556 110.344803 
L 215.544556 109.296308 
L 215.973555 109.296308 
L 216.055875 105.626573 
L 216.297384 105.626573 
L 216.302055 104.05383 
L 216.543227 104.05383 
L 216.633566 103.005335 
L 216.689978 103.005335 
L 216.715835 101.956839 
L 216.861127 101.956839 
L 216.934816 99.335601 
L 217.156971 99.335601 
L 217.156971 98.811353 
L 217.364589 98.811353 
L 217.431785 95.665867 
L 217.479829 95.665867 
L 217.561052 90.947637 
L 217.789601 90.947637 
L 217.815284 88.850646 
L 217.97706 88.850646 
L 218.006695 87.802151 
L 218.248913 87.802151 
L 218.322441 83.608169 
L 218.430084 83.608169 
L 218.454829 78.88994 
L 218.563015 78.88994 
L 218.65831 74.695958 
L 218.713882 74.695958 
L 218.820456 67.35649 
L 218.887568 67.35649 
L 218.959756 65.783747 
L 219.314917 65.783747 
L 219.314917 65.259499 
L 219.454176 65.259499 
L 219.482669 62.638261 
L 219.660332 62.638261 
L 219.751029 59.492774 
L 219.786666 59.492774 
L 219.819691 58.444279 
L 220.120336 58.444279 
L 220.19251 57.395783 
L 220.275509 57.395783 
L 220.275509 56.871536 
L 220.409687 56.871536 
L 220.409687 56.347288 
L 220.654405 56.347288 
L 220.654405 54.250297 
L 220.869446 54.250297 
L 220.869446 53.726049 
L 221.073576 53.726049 
L 221.073576 52.677554 
L 221.388048 52.677554 
L 221.388048 52.153306 
L 221.819322 52.153306 
L 221.819322 49.532068 
L 222.41336 49.532068 
L 222.440624 47.959324 
L 222.655038 47.959324 
L 222.655038 47.435077 
L 223.101197 47.435077 
L 223.101197 45.862334 
L 223.624804 45.862334 
L 223.624804 43.765343 
L 282.034043 43.765343 
L 282.126396 42.192599 
L 282.145289 42.192599 
L 282.247666 34.328884 
L 282.258817 34.328884 
L 282.344647 29.610654 
L 282.38314 29.610654 
L 282.4609 28.562159 
L 293.972031 28.562159 
L 294.017385 27.513663 
L 333.429677 27.513663 
L 333.429677 27.513663 
" style="fill:none;stroke:#00bfbf;stroke-linecap:square;stroke-width:1.5;"/>
   </g>
   <g id="line2d_25">
    <defs>
     <path d="M -6 0 
L 6 0 
M 0 6 
L 0 -6 
" id="mda0b8ac60d" style="stroke:#00bfbf;stroke-width:1.5;"/>
    </defs>
    <g>
     <use style="fill-opacity:0;stroke:#00bfbf;stroke-width:1.5;" x="145.174963" xlink:href="#mda0b8ac60d" y="260.803898"/>
     <use style="fill-opacity:0;stroke:#00bfbf;stroke-width:1.5;" x="208.702285" xlink:href="#mda0b8ac60d" y="176.400016"/>
     <use style="fill-opacity:0;stroke:#00bfbf;stroke-width:1.5;" x="223.101197" xlink:href="#mda0b8ac60d" y="45.862334"/>
     <use style="fill-opacity:0;stroke:#00bfbf;stroke-width:1.5;" x="294.017385" xlink:href="#mda0b8ac60d" y="27.513663"/>
     <use style="fill-opacity:0;stroke:#00bfbf;stroke-width:1.5;" x="333.429677" xlink:href="#mda0b8ac60d" y="27.513663"/>
    </g>
   </g>
   <g id="line2d_26">
    <path style="fill:none;stroke:#00bfbf;stroke-linecap:square;stroke-width:1.5;"/>
    <g/>
   </g>
   <g id="line2d_27">
    <path clip-path="url(#p809a6de29f)" d="M 281.888522 43.765343 
" style="fill:none;stroke:#00bfbf;stroke-linecap:square;stroke-width:1.5;"/>
    <defs>
     <path d="M -12 12 
L 12 -12 
M -12 -12 
L 12 12 
" id="m58d9d99e1b" style="stroke:#00bfbf;stroke-width:3;"/>
    </defs>
    <g clip-path="url(#p809a6de29f)">
     <use style="fill:#00bfbf;stroke:#00bfbf;stroke-width:3;" x="281.888522" xlink:href="#m58d9d99e1b" y="43.765343"/>
    </g>
   </g>
   <g id="line2d_28">
    <defs>
     <path d="M 0 1.5 
C 0.397805 1.5 0.77937 1.341951 1.06066 1.06066 
C 1.341951 0.77937 1.5 0.397805 1.5 0 
C 1.5 -0.397805 1.341951 -0.77937 1.06066 -1.06066 
C 0.77937 -1.341951 0.397805 -1.5 0 -1.5 
C -0.397805 -1.5 -0.77937 -1.341951 -1.06066 -1.06066 
C -1.341951 -0.77937 -1.5 -0.397805 -1.5 0 
C -1.5 0.397805 -1.341951 0.77937 -1.06066 1.06066 
C -0.77937 1.341951 -0.397805 1.5 0 1.5 
z
" id="m3db3c9fe29" style="stroke:#008000;"/>
    </defs>
    <g>
     <use style="fill:#008000;stroke:#008000;" x="314.577947" xlink:href="#m3db3c9fe29" y="27.513663"/>
     <use style="fill:#008000;stroke:#008000;" x="314.577947" xlink:href="#m3db3c9fe29" y="27.513663"/>
    </g>
   </g>
   <g id="line2d_29">
    <path d="M 49.144027 294.88 
L 49.144027 291.734514 
L 61.069532 291.734514 
L 61.069532 290.686018 
L 68.045504 290.686018 
L 68.045504 289.113275 
L 76.834191 289.113275 
L 76.834191 287.540532 
L 86.946982 287.540532 
L 86.946982 287.016284 
L 90.399494 287.016284 
L 90.399494 286.492036 
L 97.889083 286.492036 
L 97.889083 285.967789 
L 104.524355 285.967789 
L 104.524355 285.443541 
L 105.199142 285.443541 
L 105.199142 284.395046 
L 107.661173 284.395046 
L 107.661173 283.34655 
L 110.797991 283.34655 
L 110.797991 282.822302 
L 120.697054 282.822302 
L 120.697054 281.773807 
L 124.536209 281.773807 
L 124.536209 280.725312 
L 127.310805 280.725312 
L 127.310805 279.676816 
L 128.716065 279.676816 
L 128.716065 279.152568 
L 129.539422 279.152568 
L 129.539422 278.628321 
L 130.478102 278.628321 
L 130.478102 278.104073 
L 130.779949 278.104073 
L 130.779949 277.579825 
L 136.568909 277.579825 
L 136.568909 276.53133 
L 138.392305 276.53133 
L 138.392305 276.007082 
L 141.140296 276.007082 
L 141.140296 274.434339 
L 142.173693 274.434339 
L 142.173693 273.910091 
L 144.74851 273.910091 
L 144.74851 272.861596 
L 145.400287 272.861596 
L 145.400287 272.337348 
L 146.752794 272.337348 
L 146.752794 271.288853 
L 148.653965 271.288853 
L 148.653965 270.764605 
L 148.864425 270.764605 
L 148.864425 270.240357 
L 151.834841 270.240357 
L 151.834841 269.716109 
L 153.106716 269.716109 
L 153.106716 269.191862 
L 156.904956 269.191862 
L 156.904956 268.667614 
L 163.087319 268.667614 
L 163.087319 267.619119 
L 164.065637 267.619119 
L 164.065637 267.094871 
L 165.396144 267.094871 
L 165.396144 266.570623 
L 165.595046 266.570623 
L 165.595046 266.046375 
L 167.017746 266.046375 
L 167.017746 265.522128 
L 167.956588 265.522128 
L 167.956588 264.473632 
L 168.797658 264.473632 
L 168.797658 263.425137 
L 169.583844 263.425137 
L 169.583844 262.900889 
L 170.305618 262.900889 
L 170.305618 262.376641 
L 171.747404 262.376641 
L 171.747404 261.852394 
L 173.865801 261.852394 
L 173.865801 261.328146 
L 175.397432 261.328146 
L 175.397432 260.803898 
L 175.68585 260.803898 
L 175.68585 259.755403 
L 176.248575 259.755403 
L 176.248575 258.706907 
L 179.507395 258.706907 
L 179.507395 257.134164 
L 180.019457 257.134164 
L 180.053627 254.512926 
L 180.138758 254.512926 
L 180.138758 253.988678 
L 181.750742 253.988678 
L 181.750742 253.46443 
L 182.246155 253.46443 
L 182.246155 252.940182 
L 183.659073 252.940182 
L 183.755691 251.891687 
L 184.377459 251.891687 
L 184.377459 251.367439 
L 185.650105 251.367439 
L 185.650105 250.843192 
L 186.439264 250.843192 
L 186.451037 249.794696 
L 187.006828 249.794696 
L 187.006828 248.746201 
L 187.199442 248.746201 
L 187.199442 248.221953 
L 187.68271 248.221953 
L 187.68271 247.697705 
L 190.5286 247.697705 
L 190.5286 246.64921 
L 190.841424 246.64921 
L 190.841424 246.124962 
L 191.126257 246.124962 
L 191.193385 244.552219 
L 191.936408 244.552219 
L 191.936408 244.027971 
L 192.178525 244.027971 
L 192.178525 243.503724 
L 192.636349 243.503724 
L 192.636349 242.455228 
L 193.082306 242.455228 
L 193.082306 241.93098 
L 193.297072 241.93098 
L 193.297072 241.406733 
L 193.857008 241.406733 
L 193.857008 240.882485 
L 194.160386 240.882485 
L 194.246626 239.83399 
L 195.598413 239.83399 
L 195.598413 239.309742 
L 196.957442 239.309742 
L 196.957442 238.785494 
L 197.138598 238.785494 
L 197.138598 237.212751 
L 197.729034 237.212751 
L 197.802194 234.067265 
L 198.329404 234.067265 
L 198.329404 233.018769 
L 199.553352 233.018769 
L 199.553352 232.494521 
L 200.032914 232.494521 
L 200.032914 228.824787 
L 200.3506 228.824787 
L 200.447382 227.776292 
L 200.494269 227.776292 
L 200.494269 226.203549 
L 201.054721 226.203549 
L 201.157647 224.630806 
L 201.757763 224.630806 
L 201.83253 222.009567 
L 202.894104 222.009567 
L 202.894104 221.485319 
L 203.776145 221.485319 
L 203.776145 220.961072 
L 203.928089 220.961072 
L 203.928089 219.388328 
L 204.106138 219.388328 
L 204.135634 215.194347 
L 205.624933 215.194347 
L 205.624933 214.670099 
L 206.021869 214.670099 
L 206.07649 212.04886 
L 206.586013 212.04886 
L 206.596964 210.476117 
L 206.742307 210.476117 
L 206.778451 209.427622 
L 206.961617 209.427622 
L 206.961617 207.854879 
L 207.278416 207.854879 
L 207.369364 202.612401 
L 207.823826 202.612401 
L 207.83062 201.039658 
L 207.96089 201.039658 
L 208.011379 198.942667 
L 208.145296 198.942667 
L 208.188595 197.369924 
L 208.283141 197.369924 
L 208.283141 196.321429 
L 208.501749 196.321429 
L 208.501749 194.748686 
L 208.656214 194.748686 
L 208.688557 193.175943 
L 208.777188 193.175943 
L 208.802887 191.603199 
L 208.991234 191.603199 
L 208.991234 190.030456 
L 209.254317 190.030456 
L 209.254317 189.506209 
L 209.531909 189.506209 
L 209.531909 188.981961 
L 209.732261 188.981961 
L 209.732261 187.933465 
L 209.948335 187.933465 
L 210.032218 186.88497 
L 210.105281 186.88497 
L 210.120154 185.312227 
L 210.480578 185.312227 
L 210.496585 181.642493 
L 210.592313 181.642493 
L 210.63565 180.593997 
L 210.825048 180.593997 
L 210.880609 178.497006 
L 211.123532 178.497006 
L 211.123532 177.448511 
L 211.465114 177.448511 
L 211.465114 175.875768 
L 211.821605 175.875768 
L 211.821605 175.35152 
L 212.056999 175.35152 
L 212.056999 173.778777 
L 212.203818 173.778777 
L 212.31148 171.681786 
L 212.335023 171.681786 
L 212.376799 169.584795 
L 212.794156 169.584795 
L 212.794156 169.060547 
L 212.987777 169.060547 
L 212.987777 166.963557 
L 213.135632 166.963557 
L 213.135632 165.390813 
L 213.525434 165.390813 
L 213.538846 163.81807 
L 213.683267 163.81807 
L 213.785688 158.575593 
L 213.858816 158.575593 
L 213.967335 155.954354 
L 214.143554 155.954354 
L 214.143554 154.905859 
L 214.69927 154.905859 
L 214.790169 153.857364 
L 214.820739 153.857364 
L 214.820739 152.808868 
L 214.972781 152.808868 
L 215.015337 151.760373 
L 215.483165 151.760373 
L 215.483165 150.711877 
L 215.649983 150.711877 
L 215.649983 150.18763 
L 215.871695 150.18763 
L 215.924822 146.517896 
L 216.297384 146.517896 
L 216.297384 145.993648 
L 216.778542 145.993648 
L 216.778542 145.4694 
L 274.98178 145.4694 
L 275.069326 143.372409 
L 275.095799 143.372409 
L 275.200272 125.023739 
L 275.218637 125.023739 
L 275.329592 106.675069 
L 275.33201 106.675069 
L 275.435296 93.568876 
L 275.469243 93.568876 
L 275.489187 90.947637 
L 286.927869 90.947637 
L 287.036957 76.268701 
L 287.044915 76.268701 
L 287.123983 68.929233 
L 293.871006 68.929233 
L 293.977508 52.677554 
L 293.987287 52.677554 
L 294.005173 50.580563 
L 298.809554 50.580563 
L 298.909539 41.144104 
L 302.640124 41.144104 
L 302.7122 36.425875 
L 305.784709 36.425875 
L 305.827304 31.707645 
L 308.437024 31.707645 
L 308.462964 29.086407 
L 310.731755 29.086407 
L 310.731755 28.562159 
L 314.549751 28.562159 
L 314.577947 27.513663 
L 333.429677 27.513663 
L 333.429677 27.513663 
" style="fill:none;stroke:#008000;stroke-linecap:square;stroke-width:1.5;"/>
   </g>
   <g id="line2d_30">
    <defs>
     <path d="M -0 6 
L 6 -6 
L -6 -6 
z
" id="mb860e1ec4a" style="stroke:#008000;stroke-linejoin:miter;stroke-width:1.5;"/>
    </defs>
    <g>
     <use style="fill-opacity:0;stroke:#008000;stroke-linejoin:miter;stroke-width:1.5;" x="120.697054" xlink:href="#mb860e1ec4a" y="281.773807"/>
     <use style="fill-opacity:0;stroke:#008000;stroke-linejoin:miter;stroke-width:1.5;" x="187.68271" xlink:href="#mb860e1ec4a" y="247.697705"/>
     <use style="fill-opacity:0;stroke:#008000;stroke-linejoin:miter;stroke-width:1.5;" x="216.778542" xlink:href="#mb860e1ec4a" y="145.4694"/>
     <use style="fill-opacity:0;stroke:#008000;stroke-linejoin:miter;stroke-width:1.5;" x="287.047838" xlink:href="#mb860e1ec4a" y="75.744454"/>
     <use style="fill-opacity:0;stroke:#008000;stroke-linejoin:miter;stroke-width:1.5;" x="314.577947" xlink:href="#mb860e1ec4a" y="27.513663"/>
     <use style="fill-opacity:0;stroke:#008000;stroke-linejoin:miter;stroke-width:1.5;" x="333.429677" xlink:href="#mb860e1ec4a" y="27.513663"/>
    </g>
   </g>
   <g id="line2d_31">
    <path style="fill:none;stroke:#008000;stroke-linecap:square;stroke-width:1.5;"/>
    <g/>
   </g>
   <g id="line2d_32">
    <path clip-path="url(#p809a6de29f)" d="M 274.912549 145.4694 
" style="fill:none;stroke:#008000;stroke-linecap:square;stroke-width:1.5;"/>
    <defs>
     <path d="M -12 12 
L 12 -12 
M -12 -12 
L 12 12 
" id="mba64fc3713" style="stroke:#008000;stroke-width:3;"/>
    </defs>
    <g clip-path="url(#p809a6de29f)">
     <use style="fill:#008000;stroke:#008000;stroke-width:3;" x="274.912549" xlink:href="#mba64fc3713" y="145.4694"/>
    </g>
   </g>
   <g id="line2d_33">
    <defs>
     <path d="M 0 1.5 
C 0.397805 1.5 0.77937 1.341951 1.06066 1.06066 
C 1.341951 0.77937 1.5 0.397805 1.5 0 
C 1.5 -0.397805 1.341951 -0.77937 1.06066 -1.06066 
C 0.77937 -1.341951 0.397805 -1.5 0 -1.5 
C -0.397805 -1.5 -0.77937 -1.341951 -1.06066 -1.06066 
C -1.341951 -0.77937 -1.5 -0.397805 -1.5 0 
C -1.5 0.397805 -1.341951 0.77937 -1.06066 1.06066 
C -0.77937 1.341951 -0.397805 1.5 0 1.5 
z
" id="m73b1939ea9" style="stroke:#0000ff;"/>
    </defs>
    <g>
     <use style="fill:#0000ff;stroke:#0000ff;" x="321.524962" xlink:href="#m73b1939ea9" y="27.513663"/>
     <use style="fill:#0000ff;stroke:#0000ff;" x="321.524962" xlink:href="#m73b1939ea9" y="27.513663"/>
    </g>
   </g>
   <g id="line2d_34">
    <path d="M 40.355341 294.88 
L 40.355341 293.831505 
L 76.131854 293.831505 
L 76.131854 292.783009 
L 78.158295 292.783009 
L 78.158295 291.734514 
L 85.759969 291.734514 
L 85.759969 291.210266 
L 90.0838 291.210266 
L 90.0838 290.686018 
L 96.410455 290.686018 
L 96.410455 290.161771 
L 103.386428 290.161771 
L 103.386428 289.637523 
L 106.226603 289.637523 
L 106.226603 289.113275 
L 114.865028 289.113275 
L 114.865028 288.589027 
L 121.536482 288.589027 
L 121.536482 287.540532 
L 122.57952 287.540532 
L 122.57952 287.016284 
L 125.252304 287.016284 
L 125.252304 285.443541 
L 128.306406 285.443541 
L 128.306406 284.395046 
L 131.076592 284.395046 
L 131.076592 283.870798 
L 132.433343 283.870798 
L 132.433343 283.34655 
L 138.19899 283.34655 
L 138.19899 282.822302 
L 140.127953 282.822302 
L 140.127953 281.773807 
L 141.091069 281.773807 
L 141.091069 280.725312 
L 152.286484 280.725312 
L 152.286484 280.201064 
L 156.983427 280.201064 
L 156.983427 279.676816 
L 158.009186 279.676816 
L 158.009186 279.152568 
L 158.942317 279.152568 
L 158.942317 278.628321 
L 160.951283 278.628321 
L 160.951283 278.104073 
L 163.703048 278.104073 
L 163.716287 276.53133 
L 166.212694 276.53133 
L 166.212694 276.007082 
L 169.599521 276.007082 
L 169.599521 275.482834 
L 171.786086 275.482834 
L 171.786086 274.434339 
L 171.983656 274.434339 
L 171.983656 272.861596 
L 172.356105 272.861596 
L 172.356105 271.8131 
L 173.321699 271.8131 
L 173.321699 271.288853 
L 174.235969 271.288853 
L 174.235969 270.240357 
L 174.759297 270.240357 
L 174.759297 269.191862 
L 175.408615 269.191862 
L 175.408615 268.667614 
L 175.621928 268.667614 
L 175.621928 268.143366 
L 176.781095 268.143366 
L 176.781095 267.619119 
L 179.10092 267.619119 
L 179.10092 266.570623 
L 180.696875 266.570623 
L 180.696875 264.99788 
L 181.388159 264.99788 
L 181.388159 264.473632 
L 182.198004 264.473632 
L 182.198004 263.949385 
L 182.705769 263.949385 
L 182.705769 263.425137 
L 184.112578 263.425137 
L 184.112578 262.900889 
L 185.379216 262.900889 
L 185.379216 260.803898 
L 186.414517 260.803898 
L 186.414517 260.279651 
L 186.833913 260.279651 
L 186.833913 259.755403 
L 187.616854 259.755403 
L 187.616854 259.231155 
L 188.024378 259.231155 
L 188.024378 258.18266 
L 191.619525 258.18266 
L 191.619525 257.134164 
L 196.249114 257.134164 
L 196.249114 256.609917 
L 196.587347 256.609917 
L 196.587347 256.085669 
L 197.377833 256.085669 
L 197.41334 253.46443 
L 197.810102 253.46443 
L 197.810102 251.891687 
L 198.056433 251.891687 
L 198.147905 250.318944 
L 198.253123 250.318944 
L 198.253123 249.794696 
L 199.182313 249.794696 
L 199.205879 247.697705 
L 199.534109 247.697705 
L 199.534109 247.173458 
L 199.823768 247.173458 
L 199.823768 246.64921 
L 200.130963 246.64921 
L 200.130963 245.600714 
L 200.919229 245.600714 
L 201.022461 243.503724 
L 201.745673 243.503724 
L 201.829642 241.93098 
L 201.917514 241.93098 
L 201.917514 241.406733 
L 202.116086 241.406733 
L 202.116086 240.882485 
L 202.509261 240.882485 
L 202.509261 240.358237 
L 203.243055 240.358237 
L 203.243055 239.309742 
L 203.517557 239.309742 
L 203.517557 238.785494 
L 203.637589 238.785494 
L 203.662274 236.164255 
L 204.096857 236.164255 
L 204.096857 235.640008 
L 204.540483 235.640008 
L 204.540483 234.591512 
L 204.894581 234.591512 
L 204.894581 234.067265 
L 205.095233 234.067265 
L 205.095233 233.018769 
L 205.341919 233.018769 
L 205.406562 231.970274 
L 205.909444 231.970274 
L 205.921972 230.397531 
L 206.500727 230.397531 
L 206.500727 229.349035 
L 206.855906 229.349035 
L 206.855906 228.824787 
L 207.014764 228.824787 
L 207.014764 228.30054 
L 207.219745 228.30054 
L 207.298746 226.727797 
L 207.474403 226.727797 
L 207.474403 225.155053 
L 207.805128 225.155053 
L 207.805128 224.630806 
L 208.065406 224.630806 
L 208.065406 224.106558 
L 208.187597 224.106558 
L 208.208543 222.533815 
L 208.476578 222.533815 
L 208.476578 222.009567 
L 208.805133 222.009567 
L 208.805133 220.961072 
L 208.968041 220.961072 
L 208.968041 219.388328 
L 209.217069 219.388328 
L 209.296789 216.242842 
L 209.74199 216.242842 
L 209.74199 215.718594 
L 210.234541 215.718594 
L 210.234541 215.194347 
L 210.618328 215.194347 
L 210.6469 212.573108 
L 211.019157 212.573108 
L 211.019157 210.476117 
L 211.361966 210.476117 
L 211.361966 209.95187 
L 211.718412 209.95187 
L 211.822144 208.903374 
L 212.502555 208.903374 
L 212.519632 205.23364 
L 213.633403 205.23364 
L 213.633403 204.709392 
L 214.441011 204.709392 
L 214.441011 203.660897 
L 215.55399 203.660897 
L 215.59362 202.088154 
L 216.600548 202.088154 
L 216.600548 201.039658 
L 216.766827 201.039658 
L 216.766827 200.515411 
L 266.424846 200.515411 
L 266.535699 193.70019 
L 266.570201 193.70019 
L 266.676925 186.360722 
L 266.683755 186.360722 
L 266.793454 177.448511 
L 266.802222 177.448511 
L 266.870462 173.254529 
L 266.927368 173.254529 
L 267.012801 169.060547 
L 278.224444 169.060547 
L 278.331591 157.527098 
L 278.337023 157.527098 
L 278.426346 140.226923 
L 278.45581 140.226923 
L 278.532145 136.032941 
L 285.142256 136.032941 
L 285.251943 121.878253 
L 285.256878 121.878253 
L 285.334256 115.58728 
L 290.062633 115.58728 
L 290.148816 102.481087 
L 290.176649 102.481087 
L 290.201449 99.859849 
L 293.884175 99.859849 
L 293.995111 86.753656 
L 294.008766 86.753656 
L 294.008766 86.229408 
L 297.015522 86.229408 
L 297.065778 77.317197 
L 299.655023 77.317197 
L 299.730941 68.929233 
L 301.949198 68.929233 
L 302.022346 60.017022 
L 303.965878 60.017022 
L 304.030407 50.580563 
L 305.775973 50.580563 
L 305.835989 43.241095 
L 307.430755 43.241095 
L 307.448557 40.095609 
L 308.911048 40.095609 
L 308.952033 37.47437 
L 310.304577 37.47437 
L 310.323347 35.377379 
L 311.557896 35.377379 
L 311.593383 33.280388 
L 312.75011 33.280388 
L 312.75011 32.756141 
L 313.864267 32.756141 
L 313.879141 31.183397 
L 314.892401 31.183397 
L 314.892401 30.65915 
L 316.81767 30.65915 
L 316.81767 30.134902 
L 318.52919 30.134902 
L 318.52919 29.610654 
L 320.091466 29.610654 
L 320.093737 28.562159 
L 320.827697 28.562159 
L 320.827697 28.037911 
L 321.524962 28.037911 
L 321.524962 27.513663 
L 333.429677 27.513663 
L 333.429677 27.513663 
" style="fill:none;stroke:#0000ff;stroke-linecap:square;stroke-width:1.5;"/>
   </g>
   <g id="line2d_35">
    <defs>
     <path d="M 0 -6 
L -1.347084 -1.854102 
L -5.706339 -1.854102 
L -2.179628 0.708204 
L -3.526712 4.854102 
L -0 2.291796 
L 3.526712 4.854102 
L 2.179628 0.708204 
L 5.706339 -1.854102 
L 1.347084 -1.854102 
z
" id="m6db97d7234" style="stroke:#0000ff;stroke-linejoin:bevel;stroke-width:1.5;"/>
    </defs>
    <g>
     <use style="fill-opacity:0;stroke:#0000ff;stroke-linejoin:bevel;stroke-width:1.5;" x="141.091069" xlink:href="#m6db97d7234" y="280.725312"/>
     <use style="fill-opacity:0;stroke:#0000ff;stroke-linejoin:bevel;stroke-width:1.5;" x="209.220829" xlink:href="#m6db97d7234" y="218.864081"/>
     <use style="fill-opacity:0;stroke:#0000ff;stroke-linejoin:bevel;stroke-width:1.5;" x="267.012801" xlink:href="#m6db97d7234" y="170.109043"/>
     <use style="fill-opacity:0;stroke:#0000ff;stroke-linejoin:bevel;stroke-width:1.5;" x="297.065778" xlink:href="#m6db97d7234" y="77.317197"/>
     <use style="fill-opacity:0;stroke:#0000ff;stroke-linejoin:bevel;stroke-width:1.5;" x="321.524962" xlink:href="#m6db97d7234" y="27.513663"/>
     <use style="fill-opacity:0;stroke:#0000ff;stroke-linejoin:bevel;stroke-width:1.5;" x="333.429677" xlink:href="#m6db97d7234" y="27.513663"/>
    </g>
   </g>
   <g id="line2d_36">
    <path style="fill:none;stroke:#0000ff;stroke-linecap:square;stroke-width:1.5;"/>
    <g/>
   </g>
   <g id="line2d_37">
    <path clip-path="url(#p809a6de29f)" d="M 266.123863 200.515411 
" style="fill:none;stroke:#0000ff;stroke-linecap:square;stroke-width:1.5;"/>
    <defs>
     <path d="M -12 12 
L 12 -12 
M -12 -12 
L 12 12 
" id="mb72f7468f5" style="stroke:#0000ff;stroke-width:3;"/>
    </defs>
    <g clip-path="url(#p809a6de29f)">
     <use style="fill:#0000ff;stroke:#0000ff;stroke-width:3;" x="266.123863" xlink:href="#mb72f7468f5" y="200.515411"/>
    </g>
   </g>
   <g id="line2d_38">
    <defs>
     <path d="M 0 1.5 
C 0.397805 1.5 0.77937 1.341951 1.06066 1.06066 
C 1.341951 0.77937 1.5 0.397805 1.5 0 
C 1.5 -0.397805 1.341951 -0.77937 1.06066 -1.06066 
C 0.77937 -1.341951 0.397805 -1.5 0 -1.5 
C -0.397805 -1.5 -0.77937 -1.341951 -1.06066 -1.06066 
C -1.341951 -0.77937 -1.5 -0.397805 -1.5 0 
C -1.5 0.397805 -1.341951 0.77937 -1.06066 1.06066 
C -0.77937 1.341951 -0.397805 1.5 0 1.5 
z
" id="m9a068d67b3" style="stroke:#000000;"/>
    </defs>
    <g>
     <use style="stroke:#000000;" x="329.383634" xlink:href="#m9a068d67b3" y="27.513663"/>
     <use style="stroke:#000000;" x="329.383634" xlink:href="#m9a068d67b3" y="27.513663"/>
    </g>
   </g>
   <g id="line2d_39">
    <path d="M 140.89274 294.88 
L 140.89274 294.355752 
L 144.277114 294.355752 
L 144.277114 293.831505 
L 146.964332 293.831505 
L 146.964332 293.307257 
L 147.173301 293.307257 
L 147.173301 292.783009 
L 148.001186 292.783009 
L 148.001186 292.258761 
L 154.627217 292.258761 
L 154.627217 291.734514 
L 156.597452 291.734514 
L 156.597452 290.686018 
L 159.167901 290.686018 
L 159.167901 289.113275 
L 161.28223 289.113275 
L 161.28223 288.589027 
L 161.66667 288.589027 
L 161.66667 288.06478 
L 161.910925 288.06478 
L 161.910925 286.492036 
L 165.795585 286.492036 
L 165.795585 285.443541 
L 167.544851 285.443541 
L 167.544851 284.919293 
L 167.79725 284.919293 
L 167.79725 284.395046 
L 170.026647 284.395046 
L 170.026647 283.870798 
L 170.577177 283.870798 
L 170.577177 282.822302 
L 171.773662 282.822302 
L 171.773662 282.298055 
L 172.872901 282.298055 
L 172.872901 281.773807 
L 174.633459 281.773807 
L 174.633459 280.725312 
L 176.462303 280.725312 
L 176.462303 280.201064 
L 178.402304 280.201064 
L 178.402304 279.152568 
L 180.17354 279.152568 
L 180.17354 278.628321 
L 181.878626 278.628321 
L 181.878626 277.579825 
L 184.755603 277.579825 
L 184.831408 276.53133 
L 185.411124 276.53133 
L 185.412999 274.958587 
L 185.732511 274.958587 
L 185.732511 273.910091 
L 186.297368 273.910091 
L 186.297368 273.385844 
L 186.43043 273.385844 
L 186.43043 272.861596 
L 186.771651 272.861596 
L 186.771651 272.337348 
L 186.885626 272.337348 
L 186.885626 271.8131 
L 187.672848 271.8131 
L 187.751589 270.764605 
L 188.074245 270.764605 
L 188.178338 268.667614 
L 188.319851 268.667614 
L 188.319851 268.143366 
L 188.703502 268.143366 
L 188.703502 267.094871 
L 188.983062 267.094871 
L 188.983062 266.570623 
L 189.234144 266.570623 
L 189.238648 264.99788 
L 189.474213 264.99788 
L 189.509714 262.900889 
L 189.702212 262.900889 
L 189.702212 262.376641 
L 189.852067 262.376641 
L 189.95749 260.279651 
L 190.14507 260.279651 
L 190.14507 259.755403 
L 190.417754 259.755403 
L 190.417754 259.231155 
L 190.56153 259.231155 
L 190.654413 257.658412 
L 190.81405 257.658412 
L 190.81405 256.609917 
L 191.802855 256.609917 
L 191.802855 255.561421 
L 192.316319 255.561421 
L 192.316319 255.037173 
L 192.658103 255.037173 
L 192.658103 254.512926 
L 193.325505 254.512926 
L 193.325505 253.988678 
L 194.081643 253.988678 
L 194.081643 252.940182 
L 194.371468 252.940182 
L 194.371468 251.891687 
L 194.690423 251.891687 
L 194.690423 250.843192 
L 194.950878 250.843192 
L 195.053966 249.270448 
L 195.481149 249.270448 
L 195.481149 248.746201 
L 195.957004 248.746201 
L 195.957004 248.221953 
L 196.330819 248.221953 
L 196.330819 247.697705 
L 196.491104 247.697705 
L 196.491104 246.124962 
L 196.664541 246.124962 
L 196.664541 245.600714 
L 196.945936 245.600714 
L 196.945936 245.076467 
L 197.141443 245.076467 
L 197.156609 242.979476 
L 198.053735 242.979476 
L 198.074407 241.93098 
L 198.172038 241.93098 
L 198.172038 241.406733 
L 198.632929 241.406733 
L 198.632929 239.83399 
L 198.797355 239.83399 
L 198.797355 239.309742 
L 199.931347 239.309742 
L 199.931347 238.261246 
L 200.117408 238.261246 
L 200.117408 237.736999 
L 200.554513 237.736999 
L 200.554513 236.688503 
L 201.739867 236.688503 
L 201.739867 236.164255 
L 202.140215 236.164255 
L 202.140215 234.591512 
L 202.856276 234.591512 
L 202.856276 234.067265 
L 204.667085 234.067265 
L 204.667085 233.543017 
L 204.882491 233.543017 
L 204.882491 231.446026 
L 205.591503 231.446026 
L 205.591503 230.397531 
L 206.06031 230.397531 
L 206.06031 228.824787 
L 206.279698 228.824787 
L 206.279698 228.30054 
L 207.012093 228.30054 
L 207.012093 227.776292 
L 254.603507 227.776292 
L 254.672837 226.727797 
L 254.721339 226.727797 
L 254.783845 224.106558 
L 254.844369 224.106558 
L 254.94354 219.388328 
L 254.958099 219.388328 
L 255.047319 216.242842 
L 255.082754 216.242842 
L 255.150541 214.670099 
L 255.216052 214.670099 
L 255.272167 213.097356 
L 266.38734 213.097356 
L 266.495606 209.427622 
L 266.499848 209.427622 
L 266.606541 204.185145 
L 266.626553 204.185145 
L 266.661524 201.039658 
L 273.275935 201.039658 
L 273.371015 194.224438 
L 273.423121 194.224438 
L 273.465269 192.127447 
L 278.184188 192.127447 
L 278.292399 183.215236 
L 278.302548 183.215236 
L 278.320298 178.497006 
L 282.003724 178.497006 
L 282.108712 167.487804 
L 285.126248 167.487804 
L 285.206434 157.00285 
L 287.758414 157.00285 
L 287.832519 148.090639 
L 290.045708 148.090639 
L 290.11087 139.178427 
L 292.064293 139.178427 
L 292.123989 131.314712 
L 293.871724 131.314712 
L 293.920128 123.975244 
L 295.506286 123.975244 
L 295.546323 116.635776 
L 297.000403 116.635776 
L 297.042933 111.393298 
L 298.371595 111.393298 
L 298.412991 105.626573 
L 299.644219 105.626573 
L 299.678666 103.005335 
L 300.834132 103.005335 
L 300.86371 97.762858 
L 301.948855 97.762858 
L 301.961456 95.141619 
L 302.986143 95.141619 
L 303.005763 89.899142 
L 303.961074 89.899142 
L 303.988264 86.753656 
L 304.895812 86.753656 
L 304.908487 83.083922 
L 305.769283 83.083922 
L 305.788413 77.841444 
L 306.606458 77.841444 
L 306.627467 74.17171 
L 307.413911 74.17171 
L 307.425641 71.550472 
L 308.170497 71.550472 
L 308.189638 67.35649 
L 308.902048 67.35649 
L 308.911096 64.735251 
L 309.602958 64.735251 
L 309.617316 63.162508 
L 310.276364 63.162508 
L 310.284319 61.589765 
L 310.924182 61.589765 
L 310.927183 60.017022 
L 311.554812 60.017022 
L 311.566459 57.920031 
L 312.158463 57.920031 
L 312.167372 56.347288 
L 312.737584 56.347288 
L 312.749477 54.250297 
L 313.302742 54.250297 
L 313.313946 52.677554 
L 313.850947 52.677554 
L 313.850947 52.153306 
L 314.375239 52.153306 
L 314.379592 51.104811 
L 314.888269 51.104811 
L 314.901015 45.862334 
L 315.387087 45.862334 
L 315.39677 42.192599 
L 315.88186 42.192599 
L 315.88186 41.668352 
L 316.350157 41.668352 
L 316.350157 41.144104 
L 316.801383 41.144104 
L 316.811206 40.095609 
L 317.246894 40.095609 
L 317.248706 39.047113 
L 317.679226 39.047113 
L 317.679226 38.522865 
L 318.110056 38.522865 
L 318.110056 37.998618 
L 318.923418 37.998618 
L 318.935051 35.901627 
L 319.707859 35.901627 
L 319.710017 34.853131 
L 320.090891 34.853131 
L 320.090891 34.328884 
L 320.459153 34.328884 
L 320.459153 33.804636 
L 320.824012 33.804636 
L 320.824012 33.280388 
L 321.170494 33.280388 
L 321.175116 32.231893 
L 322.189894 32.231893 
L 322.189894 31.707645 
L 322.519115 31.707645 
L 322.519115 31.183397 
L 323.154494 31.183397 
L 323.154494 30.65915 
L 323.775681 30.65915 
L 323.775681 30.134902 
L 324.071571 30.134902 
L 324.071571 29.610654 
L 324.36843 29.610654 
L 324.36843 29.086407 
L 325.766675 29.086407 
L 325.766675 28.562159 
L 327.054537 28.562159 
L 327.054537 28.037911 
L 329.383634 28.037911 
L 329.383634 27.513663 
L 333.429677 27.513663 
L 333.429677 27.513663 
" style="fill:none;stroke:#000000;stroke-linecap:square;stroke-width:1.5;"/>
   </g>
   <g id="line2d_40">
    <defs>
     <path d="M 0 6 
C 1.591219 6 3.117479 5.367802 4.242641 4.242641 
C 5.367802 3.117479 6 1.591219 6 0 
C 6 -1.591219 5.367802 -3.117479 4.242641 -4.242641 
C 3.117479 -5.367802 1.591219 -6 0 -6 
C -1.591219 -6 -3.117479 -5.367802 -4.242641 -4.242641 
C -5.367802 -3.117479 -6 -1.591219 -6 0 
C -6 1.591219 -5.367802 3.117479 -4.242641 4.242641 
C -3.117479 5.367802 -1.591219 6 0 6 
z
" id="mc42d1cb3a6" style="stroke:#000000;stroke-width:1.5;"/>
    </defs>
    <g>
     <use style="fill-opacity:0;stroke:#000000;stroke-width:1.5;" x="181.878626" xlink:href="#mc42d1cb3a6" y="278.628321"/>
     <use style="fill-opacity:0;stroke:#000000;stroke-width:1.5;" x="207.012093" xlink:href="#mc42d1cb3a6" y="227.776292"/>
     <use style="fill-opacity:0;stroke:#000000;stroke-width:1.5;" x="292.114298" xlink:href="#mc42d1cb3a6" y="133.411703"/>
     <use style="fill-opacity:0;stroke:#000000;stroke-width:1.5;" x="329.383634" xlink:href="#mc42d1cb3a6" y="27.513663"/>
     <use style="fill-opacity:0;stroke:#000000;stroke-width:1.5;" x="333.429677" xlink:href="#mc42d1cb3a6" y="27.513663"/>
    </g>
   </g>
   <g id="line2d_41">
    <path style="fill:none;stroke:#000000;stroke-linecap:square;stroke-width:1.5;"/>
    <g/>
   </g>
   <g id="line2d_42">
    <path clip-path="url(#p809a6de29f)" d="M 254.198358 227.776292 
" style="fill:none;stroke:#000000;stroke-linecap:square;stroke-width:1.5;"/>
    <defs>
     <path d="M -12 12 
L 12 -12 
M -12 -12 
L 12 12 
" id="me6976f985a" style="stroke:#000000;stroke-width:3;"/>
    </defs>
    <g clip-path="url(#p809a6de29f)">
     <use style="stroke:#000000;stroke-width:3;" x="254.198358" xlink:href="#me6976f985a" y="227.776292"/>
    </g>
   </g>
   <g id="line2d_43">
    <defs>
     <path d="M 0 1.5 
C 0.397805 1.5 0.77937 1.341951 1.06066 1.06066 
C 1.341951 0.77937 1.5 0.397805 1.5 0 
C 1.5 -0.397805 1.341951 -0.77937 1.06066 -1.06066 
C 0.77937 -1.341951 0.397805 -1.5 0 -1.5 
C -0.397805 -1.5 -0.77937 -1.341951 -1.06066 -1.06066 
C -1.341951 -0.77937 -1.5 -0.397805 -1.5 0 
C -1.5 0.397805 -1.341951 0.77937 -1.06066 1.06066 
C -0.77937 1.341951 -0.397805 1.5 0 1.5 
z
" id="m501d55049e" style="stroke:#ff0000;"/>
    </defs>
    <g>
     <use style="fill:#ff0000;stroke:#ff0000;" x="283.612428" xlink:href="#m501d55049e" y="247.697705"/>
     <use style="fill:#ff0000;stroke:#ff0000;" x="283.612428" xlink:href="#m501d55049e" y="247.697705"/>
    </g>
   </g>
   <g id="line2d_44">
    <path d="M 170.872188 294.88 
L 170.872188 294.355752 
L 174.594824 294.355752 
L 174.594824 293.831505 
L 175.376724 293.831505 
L 175.376724 293.307257 
L 175.894688 293.307257 
L 175.894688 292.783009 
L 176.264006 292.783009 
L 176.264006 291.734514 
L 176.859878 291.734514 
L 176.859878 291.210266 
L 178.286369 291.210266 
L 178.286369 290.686018 
L 178.673516 290.686018 
L 178.673516 290.161771 
L 178.960993 290.161771 
L 178.960993 289.637523 
L 179.298672 289.637523 
L 179.298672 289.113275 
L 180.107309 289.113275 
L 180.170998 288.06478 
L 180.640056 288.06478 
L 180.640056 286.492036 
L 180.757193 286.492036 
L 180.757193 285.443541 
L 181.059276 285.443541 
L 181.059276 284.395046 
L 181.666639 284.395046 
L 181.666639 283.870798 
L 182.012802 283.870798 
L 182.012802 283.34655 
L 182.57691 283.34655 
L 182.647517 282.298055 
L 182.876094 282.298055 
L 182.876094 281.773807 
L 183.164824 281.773807 
L 183.227742 279.152568 
L 183.485529 279.152568 
L 183.500204 278.104073 
L 183.636913 278.104073 
L 183.644187 276.007082 
L 183.922456 276.007082 
L 183.922456 275.482834 
L 184.079179 275.482834 
L 184.125717 273.910091 
L 184.242518 273.910091 
L 184.242518 273.385844 
L 184.574461 273.385844 
L 184.60593 271.8131 
L 184.717574 271.8131 
L 184.717574 271.288853 
L 185.168458 271.288853 
L 185.168458 270.764605 
L 185.353835 270.764605 
L 185.395177 269.191862 
L 185.702116 269.191862 
L 185.755502 268.143366 
L 187.218867 268.143366 
L 187.218867 267.094871 
L 187.49269 267.094871 
L 187.49269 266.570623 
L 187.70488 266.570623 
L 187.70488 266.046375 
L 188.607999 266.046375 
L 188.695757 264.99788 
L 188.967057 264.99788 
L 189.046177 263.949385 
L 189.683205 263.949385 
L 189.772937 262.900889 
L 190.754359 262.900889 
L 190.754359 262.376641 
L 190.915799 262.376641 
L 190.97154 261.328146 
L 191.365375 261.328146 
L 191.437524 259.755403 
L 191.65413 259.755403 
L 191.65413 259.231155 
L 192.025793 259.231155 
L 192.025793 258.706907 
L 192.776447 258.706907 
L 192.776447 257.134164 
L 193.151802 257.134164 
L 193.151802 256.085669 
L 242.971115 256.085669 
L 242.971115 255.561421 
L 243.138445 255.561421 
L 243.235582 253.46443 
L 254.662055 253.46443 
L 254.676067 252.415935 
L 261.410248 252.415935 
L 261.501263 249.794696 
L 273.247159 249.794696 
L 273.264078 248.221953 
L 283.612428 248.221953 
L 283.612428 247.697705 
L 333.429677 247.697705 
L 333.429677 247.697705 
" style="fill:none;stroke:#ff0000;stroke-linecap:square;stroke-width:1.5;"/>
   </g>
   <g id="line2d_45">
    <defs>
     <path d="M -6 6 
L 6 6 
L 6 -6 
L -6 -6 
z
" id="m633b2ff5f9" style="stroke:#ff0000;stroke-linejoin:miter;stroke-width:1.5;"/>
    </defs>
    <g>
     <use style="fill-opacity:0;stroke:#ff0000;stroke-linejoin:miter;stroke-width:1.5;" x="193.151802" xlink:href="#m633b2ff5f9" y="257.134164"/>
     <use style="fill-opacity:0;stroke:#ff0000;stroke-linejoin:miter;stroke-width:1.5;" x="261.501263" xlink:href="#m633b2ff5f9" y="249.794696"/>
     <use style="fill-opacity:0;stroke:#ff0000;stroke-linejoin:miter;stroke-width:1.5;" x="283.612428" xlink:href="#m633b2ff5f9" y="247.697705"/>
     <use style="fill-opacity:0;stroke:#ff0000;stroke-linejoin:miter;stroke-width:1.5;" x="333.429677" xlink:href="#m633b2ff5f9" y="247.697705"/>
    </g>
   </g>
   <g id="line2d_46">
    <path style="fill:none;stroke:#ff0000;stroke-linecap:square;stroke-width:1.5;"/>
    <g/>
   </g>
   <g id="line2d_47">
    <path clip-path="url(#p809a6de29f)" d="M 242.272854 256.085669 
" style="fill:none;stroke:#ff0000;stroke-linecap:square;stroke-width:1.5;"/>
    <defs>
     <path d="M -12 12 
L 12 -12 
M -12 -12 
L 12 12 
" id="m78dcfccbd3" style="stroke:#ff0000;stroke-width:3;"/>
    </defs>
    <g clip-path="url(#p809a6de29f)">
     <use style="fill:#ff0000;stroke:#ff0000;stroke-width:3;" x="242.272854" xlink:href="#m78dcfccbd3" y="256.085669"/>
    </g>
   </g>
   <g id="line2d_48">
    <defs>
     <path d="M 0 1.5 
C 0.397805 1.5 0.77937 1.341951 1.06066 1.06066 
C 1.341951 0.77937 1.5 0.397805 1.5 0 
C 1.5 -0.397805 1.341951 -0.77937 1.06066 -1.06066 
C 0.77937 -1.341951 0.397805 -1.5 0 -1.5 
C -0.397805 -1.5 -0.77937 -1.341951 -1.06066 -1.06066 
C -1.341951 -0.77937 -1.5 -0.397805 -1.5 0 
C -1.5 0.397805 -1.341951 0.77937 -1.06066 1.06066 
C -0.77937 1.341951 -0.397805 1.5 0 1.5 
z
" id="m42c948933a" style="stroke:#bf00bf;"/>
    </defs>
    <g>
     <use style="fill:#bf00bf;stroke:#bf00bf;" x="258.183703" xlink:href="#m42c948933a" y="268.667614"/>
     <use style="fill:#bf00bf;stroke:#bf00bf;" x="258.183703" xlink:href="#m42c948933a" y="268.667614"/>
    </g>
   </g>
   <g id="line2d_49">
    <path d="M 165.713293 294.88 
L 165.713293 293.831505 
L 166.346673 293.831505 
L 166.346673 293.307257 
L 167.528953 293.307257 
L 167.528953 292.783009 
L 168.345643 292.783009 
L 168.345643 292.258761 
L 168.620265 292.258761 
L 168.620265 291.734514 
L 169.347365 291.734514 
L 169.347365 290.686018 
L 169.695618 290.686018 
L 169.695618 289.637523 
L 169.736472 289.637523 
L 169.736472 289.113275 
L 170.517117 289.113275 
L 170.517117 288.06478 
L 171.68332 288.06478 
L 171.68332 287.540532 
L 172.297936 287.540532 
L 172.297936 287.016284 
L 172.724583 287.016284 
L 172.724583 286.492036 
L 173.709183 286.492036 
L 173.709183 285.443541 
L 173.970946 285.443541 
L 173.970946 284.395046 
L 174.360283 284.395046 
L 174.360283 283.870798 
L 174.971305 283.870798 
L 174.971305 283.34655 
L 175.352347 283.34655 
L 175.352347 282.822302 
L 175.400228 282.822302 
L 175.400228 281.773807 
L 175.411968 281.773807 
L 175.411968 281.249559 
L 175.813805 281.249559 
L 175.813805 280.725312 
L 176.039974 280.725312 
L 176.039974 280.201064 
L 176.077112 280.201064 
L 176.077112 279.152568 
L 176.464669 279.152568 
L 176.464669 278.628321 
L 176.498542 278.628321 
L 176.498542 278.104073 
L 176.537061 278.104073 
L 176.537061 277.579825 
L 177.446977 277.579825 
L 177.446977 277.055578 
L 177.545006 277.055578 
L 177.545006 276.53133 
L 177.668968 276.53133 
L 177.668968 276.007082 
L 178.880324 276.007082 
L 178.880324 274.958587 
L 180.523985 274.958587 
L 180.523985 274.434339 
L 181.947565 274.434339 
L 181.947565 273.910091 
L 182.892926 273.910091 
L 182.892926 272.861596 
L 183.322219 272.861596 
L 183.322219 272.337348 
L 184.318615 272.337348 
L 184.318615 271.8131 
L 231.066183 271.8131 
L 231.066183 271.288853 
L 231.161393 271.288853 
L 231.161393 270.764605 
L 231.255067 270.764605 
L 231.255067 270.240357 
L 231.493452 270.240357 
L 231.493452 269.716109 
L 242.645759 269.716109 
L 242.645759 269.191862 
L 258.183703 269.191862 
L 258.183703 268.667614 
L 333.429677 268.667614 
" style="fill:none;stroke:#bf00bf;stroke-linecap:square;stroke-width:1.5;"/>
   </g>
   <g id="line2d_50">
    <defs>
     <path d="M -0 8.485281 
L 8.485281 0 
L 0 -8.485281 
L -8.485281 -0 
z
" id="mf5d8ee2457" style="stroke:#bf00bf;stroke-linejoin:miter;stroke-width:1.5;"/>
    </defs>
    <g>
     <use style="fill-opacity:0;stroke:#bf00bf;stroke-linejoin:miter;stroke-width:1.5;" x="184.318615" xlink:href="#mf5d8ee2457" y="271.8131"/>
     <use style="fill-opacity:0;stroke:#bf00bf;stroke-linejoin:miter;stroke-width:1.5;" x="258.183703" xlink:href="#mf5d8ee2457" y="269.191862"/>
     <use style="fill-opacity:0;stroke:#bf00bf;stroke-linejoin:miter;stroke-width:1.5;" x="258.183703" xlink:href="#mf5d8ee2457" y="268.667614"/>
     <use style="fill-opacity:0;stroke:#bf00bf;stroke-linejoin:miter;stroke-width:1.5;" x="333.429677" xlink:href="#mf5d8ee2457" y="268.667614"/>
    </g>
   </g>
   <g id="line2d_51">
    <path style="fill:none;stroke:#bf00bf;stroke-linecap:square;stroke-width:1.5;"/>
    <g/>
   </g>
   <g id="line2d_52">
    <path clip-path="url(#p809a6de29f)" d="M 230.347349 271.8131 
" style="fill:none;stroke:#bf00bf;stroke-linecap:square;stroke-width:1.5;"/>
    <defs>
     <path d="M -12 12 
L 12 -12 
M -12 -12 
L 12 12 
" id="mec90004614" style="stroke:#bf00bf;stroke-width:3;"/>
    </defs>
    <g clip-path="url(#p809a6de29f)">
     <use style="fill:#bf00bf;stroke:#bf00bf;stroke-width:3;" x="230.347349" xlink:href="#mec90004614" y="271.8131"/>
    </g>
   </g>
   <g id="line2d_53">
    <path d="M 333.429677 268.667614 
L 363.933742 289.532673 
" style="fill:none;stroke:#bf00bf;stroke-linecap:square;stroke-width:1.5;"/>
    <g>
     <use style="fill-opacity:0;stroke:#bf00bf;stroke-linejoin:miter;stroke-width:1.5;" x="333.429677" xlink:href="#mf5d8ee2457" y="268.667614"/>
     <use style="fill-opacity:0;stroke:#bf00bf;stroke-linejoin:miter;stroke-width:1.5;" x="363.933742" xlink:href="#mf5d8ee2457" y="289.532673"/>
    </g>
   </g>
   <g id="line2d_54">
    <path d="M 333.429677 247.697705 
L 363.933742 238.198337 
" style="fill:none;stroke:#ff0000;stroke-linecap:square;stroke-width:1.5;"/>
    <g>
     <use style="fill-opacity:0;stroke:#ff0000;stroke-linejoin:miter;stroke-width:1.5;" x="333.429677" xlink:href="#m633b2ff5f9" y="247.697705"/>
     <use style="fill-opacity:0;stroke:#ff0000;stroke-linejoin:miter;stroke-width:1.5;" x="363.933742" xlink:href="#m633b2ff5f9" y="238.198337"/>
    </g>
   </g>
   <g id="line2d_55">
    <path d="M 333.429677 27.513663 
L 363.933742 186.864 
" style="fill:none;stroke:#000000;stroke-linecap:square;stroke-width:1.5;"/>
    <g>
     <use style="fill-opacity:0;stroke:#000000;stroke-width:1.5;" x="333.429677" xlink:href="#mc42d1cb3a6" y="27.513663"/>
     <use style="fill-opacity:0;stroke:#000000;stroke-width:1.5;" x="363.933742" xlink:href="#mc42d1cb3a6" y="186.864"/>
    </g>
   </g>
   <g id="line2d_56">
    <path d="M 333.429677 27.513663 
L 363.933742 135.529663 
" style="fill:none;stroke:#0000ff;stroke-linecap:square;stroke-width:1.5;"/>
    <g>
     <use style="fill-opacity:0;stroke:#0000ff;stroke-linejoin:bevel;stroke-width:1.5;" x="333.429677" xlink:href="#m6db97d7234" y="27.513663"/>
     <use style="fill-opacity:0;stroke:#0000ff;stroke-linejoin:bevel;stroke-width:1.5;" x="363.933742" xlink:href="#m6db97d7234" y="135.529663"/>
    </g>
   </g>
   <g id="line2d_57">
    <path d="M 333.429677 27.513663 
L 363.933742 84.195327 
" style="fill:none;stroke:#008000;stroke-linecap:square;stroke-width:1.5;"/>
    <g>
     <use style="fill-opacity:0;stroke:#008000;stroke-linejoin:miter;stroke-width:1.5;" x="333.429677" xlink:href="#mb860e1ec4a" y="27.513663"/>
     <use style="fill-opacity:0;stroke:#008000;stroke-linejoin:miter;stroke-width:1.5;" x="363.933742" xlink:href="#mb860e1ec4a" y="84.195327"/>
    </g>
   </g>
   <g id="line2d_58">
    <path d="M 333.429677 27.513663 
L 363.933742 32.86099 
" style="fill:none;stroke:#00bfbf;stroke-linecap:square;stroke-width:1.5;"/>
    <g>
     <use style="fill-opacity:0;stroke:#00bfbf;stroke-width:1.5;" x="333.429677" xlink:href="#mda0b8ac60d" y="27.513663"/>
     <use style="fill-opacity:0;stroke:#00bfbf;stroke-width:1.5;" x="363.933742" xlink:href="#mda0b8ac60d" y="32.86099"/>
    </g>
   </g>
   <g id="line2d_59">
    <path d="M 333.429677 294.88 
L 333.429677 27.513663 
" style="fill:none;stroke:#000000;stroke-linecap:square;stroke-width:1.5;"/>
   </g>
   <g id="patch_3">
    <path d="M 56.12 294.88 
L 56.12 24.84 
" style="fill:none;stroke:#000000;stroke-linecap:square;stroke-linejoin:miter;stroke-width:0.8;"/>
   </g>
   <g id="patch_4">
    <path d="M 399.984 294.88 
L 399.984 24.84 
" style="fill:none;stroke:#000000;stroke-linecap:square;stroke-linejoin:miter;stroke-width:0.8;"/>
   </g>
   <g id="patch_5">
    <path d="M 56.12 294.88 
L 399.984 294.88 
" style="fill:none;stroke:#000000;stroke-linecap:square;stroke-linejoin:miter;stroke-width:0.8;"/>
   </g>
   <g id="patch_6">
    <path d="M 56.12 24.84 
L 399.984 24.84 
" style="fill:none;stroke:#000000;stroke-linecap:square;stroke-linejoin:miter;stroke-width:0.8;"/>
   </g>
   <g id="text_14">
    <!-- 40-D -->
    <defs>
     <path d="M 19.671875 64.796875 
L 19.671875 8.109375 
L 31.59375 8.109375 
Q 46.6875 8.109375 53.6875 14.9375 
Q 60.6875 21.78125 60.6875 36.53125 
Q 60.6875 51.171875 53.6875 57.984375 
Q 46.6875 64.796875 31.59375 64.796875 
z
M 9.8125 72.90625 
L 30.078125 72.90625 
Q 51.265625 72.90625 61.171875 64.09375 
Q 71.09375 55.28125 71.09375 36.53125 
Q 71.09375 17.671875 61.125 8.828125 
Q 51.171875 0 30.078125 0 
L 9.8125 0 
z
" id="DejaVuSans-44"/>
    </defs>
    <g transform="translate(369.479935 294.223611)scale(0.17 -0.17)">
     <use xlink:href="#DejaVuSans-34"/>
     <use x="63.623047" xlink:href="#DejaVuSans-30"/>
     <use x="127.246094" xlink:href="#DejaVuSans-2d"/>
     <use x="163.330078" xlink:href="#DejaVuSans-44"/>
    </g>
   </g>
   <g id="text_15">
    <!-- 20-D -->
    <g transform="translate(369.479935 242.889274)scale(0.17 -0.17)">
     <use xlink:href="#DejaVuSans-32"/>
     <use x="63.623047" xlink:href="#DejaVuSans-30"/>
     <use x="127.246094" xlink:href="#DejaVuSans-2d"/>
     <use x="163.330078" xlink:href="#DejaVuSans-44"/>
    </g>
   </g>
   <g id="text_16">
    <!-- 10-D -->
    <g transform="translate(369.479935 191.554937)scale(0.17 -0.17)">
     <use xlink:href="#DejaVuSans-31"/>
     <use x="63.623047" xlink:href="#DejaVuSans-30"/>
     <use x="127.246094" xlink:href="#DejaVuSans-2d"/>
     <use x="163.330078" xlink:href="#DejaVuSans-44"/>
    </g>
   </g>
   <g id="text_17">
    <!-- 5-D -->
    <defs>
     <path d="M 10.796875 72.90625 
L 49.515625 72.90625 
L 49.515625 64.59375 
L 19.828125 64.59375 
L 19.828125 46.734375 
Q 21.96875 47.46875 24.109375 47.828125 
Q 26.265625 48.1875 28.421875 48.1875 
Q 40.625 48.1875 47.75 41.5 
Q 54.890625 34.8125 54.890625 23.390625 
Q 54.890625 11.625 47.5625 5.09375 
Q 40.234375 -1.421875 26.90625 -1.421875 
Q 22.3125 -1.421875 17.546875 -0.640625 
Q 12.796875 0.140625 7.71875 1.703125 
L 7.71875 11.625 
Q 12.109375 9.234375 16.796875 8.0625 
Q 21.484375 6.890625 26.703125 6.890625 
Q 35.15625 6.890625 40.078125 11.328125 
Q 45.015625 15.765625 45.015625 23.390625 
Q 45.015625 31 40.078125 35.4375 
Q 35.15625 39.890625 26.703125 39.890625 
Q 22.75 39.890625 18.8125 39.015625 
Q 14.890625 38.140625 10.796875 36.28125 
z
" id="DejaVuSans-35"/>
    </defs>
    <g transform="translate(369.479935 140.220601)scale(0.17 -0.17)">
     <use xlink:href="#DejaVuSans-35"/>
     <use x="63.623047" xlink:href="#DejaVuSans-2d"/>
     <use x="99.707031" xlink:href="#DejaVuSans-44"/>
    </g>
   </g>
   <g id="text_18">
    <!-- 3-D -->
    <defs>
     <path d="M 40.578125 39.3125 
Q 47.65625 37.796875 51.625 33 
Q 55.609375 28.21875 55.609375 21.1875 
Q 55.609375 10.40625 48.1875 4.484375 
Q 40.765625 -1.421875 27.09375 -1.421875 
Q 22.515625 -1.421875 17.65625 -0.515625 
Q 12.796875 0.390625 7.625 2.203125 
L 7.625 11.71875 
Q 11.71875 9.328125 16.59375 8.109375 
Q 21.484375 6.890625 26.8125 6.890625 
Q 36.078125 6.890625 40.9375 10.546875 
Q 45.796875 14.203125 45.796875 21.1875 
Q 45.796875 27.640625 41.28125 31.265625 
Q 36.765625 34.90625 28.71875 34.90625 
L 20.21875 34.90625 
L 20.21875 43.015625 
L 29.109375 43.015625 
Q 36.375 43.015625 40.234375 45.921875 
Q 44.09375 48.828125 44.09375 54.296875 
Q 44.09375 59.90625 40.109375 62.90625 
Q 36.140625 65.921875 28.71875 65.921875 
Q 24.65625 65.921875 20.015625 65.03125 
Q 15.375 64.15625 9.8125 62.3125 
L 9.8125 71.09375 
Q 15.4375 72.65625 20.34375 73.4375 
Q 25.25 74.21875 29.59375 74.21875 
Q 40.828125 74.21875 47.359375 69.109375 
Q 53.90625 64.015625 53.90625 55.328125 
Q 53.90625 49.265625 50.4375 45.09375 
Q 46.96875 40.921875 40.578125 39.3125 
z
" id="DejaVuSans-33"/>
    </defs>
    <g transform="translate(369.479935 88.886264)scale(0.17 -0.17)">
     <use xlink:href="#DejaVuSans-33"/>
     <use x="63.623047" xlink:href="#DejaVuSans-2d"/>
     <use x="99.707031" xlink:href="#DejaVuSans-44"/>
    </g>
   </g>
   <g id="text_19">
    <!-- 2-D -->
    <g transform="translate(369.479935 37.551928)scale(0.17 -0.17)">
     <use xlink:href="#DejaVuSans-32"/>
     <use x="63.623047" xlink:href="#DejaVuSans-2d"/>
     <use x="99.707031" xlink:href="#DejaVuSans-44"/>
    </g>
   </g>
   <g id="text_20">
    <!-- bbob f15 -->
    <defs>
     <path d="M 48.6875 27.296875 
Q 48.6875 37.203125 44.609375 42.84375 
Q 40.53125 48.484375 33.40625 48.484375 
Q 26.265625 48.484375 22.1875 42.84375 
Q 18.109375 37.203125 18.109375 27.296875 
Q 18.109375 17.390625 22.1875 11.75 
Q 26.265625 6.109375 33.40625 6.109375 
Q 40.53125 6.109375 44.609375 11.75 
Q 48.6875 17.390625 48.6875 27.296875 
z
M 18.109375 46.390625 
Q 20.953125 51.265625 25.265625 53.625 
Q 29.59375 56 35.59375 56 
Q 45.5625 56 51.78125 48.09375 
Q 58.015625 40.1875 58.015625 27.296875 
Q 58.015625 14.40625 51.78125 6.484375 
Q 45.5625 -1.421875 35.59375 -1.421875 
Q 29.59375 -1.421875 25.265625 0.953125 
Q 20.953125 3.328125 18.109375 8.203125 
L 18.109375 0 
L 9.078125 0 
L 9.078125 75.984375 
L 18.109375 75.984375 
z
" id="DejaVuSans-62"/>
    </defs>
    <g transform="translate(59.55864 35.290806)scale(0.102 -0.102)">
     <use xlink:href="#DejaVuSans-62"/>
     <use x="63.476562" xlink:href="#DejaVuSans-62"/>
     <use x="126.953125" xlink:href="#DejaVuSans-6f"/>
     <use x="188.134766" xlink:href="#DejaVuSans-62"/>
     <use x="251.611328" xlink:href="#DejaVuSans-20"/>
     <use x="283.398438" xlink:href="#DejaVuSans-66"/>
     <use x="318.603516" xlink:href="#DejaVuSans-31"/>
     <use x="382.226562" xlink:href="#DejaVuSans-35"/>
    </g>
    <!-- 51 targets: 100..1e-08 -->
    <defs>
     <path d="M 11.71875 12.40625 
L 22.015625 12.40625 
L 22.015625 0 
L 11.71875 0 
z
M 11.71875 51.703125 
L 22.015625 51.703125 
L 22.015625 39.3125 
L 11.71875 39.3125 
z
" id="DejaVuSans-3a"/>
    </defs>
    <g transform="translate(59.55864 46.712575)scale(0.102 -0.102)">
     <use xlink:href="#DejaVuSans-35"/>
     <use x="63.623047" xlink:href="#DejaVuSans-31"/>
     <use x="127.246094" xlink:href="#DejaVuSans-20"/>
     <use x="159.033203" xlink:href="#DejaVuSans-74"/>
     <use x="198.242188" xlink:href="#DejaVuSans-61"/>
     <use x="259.521484" xlink:href="#DejaVuSans-72"/>
     <use x="300.619141" xlink:href="#DejaVuSans-67"/>
     <use x="364.095703" xlink:href="#DejaVuSans-65"/>
     <use x="425.619141" xlink:href="#DejaVuSans-74"/>
     <use x="464.828125" xlink:href="#DejaVuSans-73"/>
     <use x="516.927734" xlink:href="#DejaVuSans-3a"/>
     <use x="550.619141" xlink:href="#DejaVuSans-20"/>
     <use x="582.40625" xlink:href="#DejaVuSans-31"/>
     <use x="646.029297" xlink:href="#DejaVuSans-30"/>
     <use x="709.652344" xlink:href="#DejaVuSans-30"/>
     <use x="773.275391" xlink:href="#DejaVuSans-2e"/>
     <use x="805.0625" xlink:href="#DejaVuSans-2e"/>
     <use x="836.849609" xlink:href="#DejaVuSans-31"/>
     <use x="900.472656" xlink:href="#DejaVuSans-65"/>
     <use x="961.996094" xlink:href="#DejaVuSans-2d"/>
     <use x="998.080078" xlink:href="#DejaVuSans-30"/>
     <use x="1061.703125" xlink:href="#DejaVuSans-38"/>
    </g>
    <!-- 15 instances -->
    <g transform="translate(59.55864 58.134344)scale(0.102 -0.102)">
     <use xlink:href="#DejaVuSans-31"/>
     <use x="63.623047" xlink:href="#DejaVuSans-35"/>
     <use x="127.246094" xlink:href="#DejaVuSans-20"/>
     <use x="159.033203" xlink:href="#DejaVuSans-69"/>
     <use x="186.816406" xlink:href="#DejaVuSans-6e"/>
     <use x="250.195312" xlink:href="#DejaVuSans-73"/>
     <use x="302.294922" xlink:href="#DejaVuSans-74"/>
     <use x="341.503906" xlink:href="#DejaVuSans-61"/>
     <use x="402.783203" xlink:href="#DejaVuSans-6e"/>
     <use x="466.162109" xlink:href="#DejaVuSans-63"/>
     <use x="521.142578" xlink:href="#DejaVuSans-65"/>
     <use x="582.666016" xlink:href="#DejaVuSans-73"/>
    </g>
   </g>
   <g id="text_21">
    <!-- v0.0.0 -->
    <g style="fill:#808080;" transform="translate(212.37075 290.099912)scale(0.1 -0.1)">
     <use xlink:href="#DejaVuSans-76"/>
     <use x="59.179688" xlink:href="#DejaVuSans-30"/>
     <use x="122.802734" xlink:href="#DejaVuSans-2e"/>
     <use x="154.589844" xlink:href="#DejaVuSans-30"/>
     <use x="218.212891" xlink:href="#DejaVuSans-2e"/>
     <use x="250" xlink:href="#DejaVuSans-30"/>
    </g>
   </g>
   <g id="text_22">
    <!-- 15 Rastrigin -->
    <defs>
     <path d="M 44.390625 34.1875 
Q 47.5625 33.109375 50.5625 29.59375 
Q 53.5625 26.078125 56.59375 19.921875 
L 66.609375 0 
L 56 0 
L 46.6875 18.703125 
Q 43.0625 26.03125 39.671875 28.421875 
Q 36.28125 30.8125 30.421875 30.8125 
L 19.671875 30.8125 
L 19.671875 0 
L 9.8125 0 
L 9.8125 72.90625 
L 32.078125 72.90625 
Q 44.578125 72.90625 50.734375 67.671875 
Q 56.890625 62.453125 56.890625 51.90625 
Q 56.890625 45.015625 53.6875 40.46875 
Q 50.484375 35.9375 44.390625 34.1875 
z
M 19.671875 64.796875 
L 19.671875 38.921875 
L 32.078125 38.921875 
Q 39.203125 38.921875 42.84375 42.21875 
Q 46.484375 45.515625 46.484375 51.90625 
Q 46.484375 58.296875 42.84375 61.546875 
Q 39.203125 64.796875 32.078125 64.796875 
z
" id="DejaVuSans-52"/>
    </defs>
    <g transform="translate(167.592625 18.84)scale(0.2 -0.2)">
     <use xlink:href="#DejaVuSans-31"/>
     <use x="63.623047" xlink:href="#DejaVuSans-35"/>
     <use x="127.246094" xlink:href="#DejaVuSans-20"/>
     <use x="159.033203" xlink:href="#DejaVuSans-52"/>
     <use x="228.484375" xlink:href="#DejaVuSans-61"/>
     <use x="289.763672" xlink:href="#DejaVuSans-73"/>
     <use x="341.863281" xlink:href="#DejaVuSans-74"/>
     <use x="381.072266" xlink:href="#DejaVuSans-72"/>
     <use x="422.185547" xlink:href="#DejaVuSans-69"/>
     <use x="449.96875" xlink:href="#DejaVuSans-67"/>
     <use x="513.445312" xlink:href="#DejaVuSans-69"/>
     <use x="541.228516" xlink:href="#DejaVuSans-6e"/>
    </g>
   </g>
  </g>
 </g>
 <defs>
  <clipPath id="p809a6de29f">
   <rect height="270.04" width="343.864" x="56.12" y="24.84"/>
  </clipPath>
 </defs>
</svg>
