<?xml version="1.0" encoding="utf-8" standalone="no"?>
<!DOCTYPE svg PUBLIC "-//W3C//DTD SVG 1.1//EN"
  "http://www.w3.org/Graphics/SVG/1.1/DTD/svg11.dtd">
<!-- Created with matplotlib (http://matplotlib.org/) -->
<svg height="345.6pt" version="1.1" viewBox="0 0 460.8 345.6" width="460.8pt" xmlns="http://www.w3.org/2000/svg" xmlns:xlink="http://www.w3.org/1999/xlink">
 <defs>
  <style type="text/css">
*{stroke-linecap:butt;stroke-linejoin:round;}
  </style>
 </defs>
 <g id="figure_1">
  <g id="patch_1">
   <path d="M 0 345.6 
L 460.8 345.6 
L 460.8 0 
L 0 0 
z
" style="fill:#ffffff;"/>
  </g>
  <g id="axes_1">
   <g id="patch_2">
    <path d="M 56.12 294.88 
L 399.984 294.88 
L 399.984 24.84 
L 56.12 24.84 
z
" style="fill:#ffffff;"/>
   </g>
   <g id="matplotlib.axis_1">
    <g id="xtick_1">
     <g id="line2d_1">
      <path clip-path="url(#pabf68c6041)" d="M 56.12 294.88 
L 56.12 24.84 
" style="fill:none;stroke:#b0b0b0;stroke-linecap:square;stroke-width:0.8;"/>
     </g>
     <g id="line2d_2">
      <defs>
       <path d="M 0 0 
L 0 3.5 
" id="m7e2c3f78fd" style="stroke:#000000;stroke-width:0.8;"/>
      </defs>
      <g>
       <use style="stroke:#000000;stroke-width:0.8;" x="56.12" xlink:href="#m7e2c3f78fd" y="294.88"/>
      </g>
     </g>
     <g id="text_1">
      <!-- 0 -->
      <defs>
       <path d="M 31.78125 66.40625 
Q 24.171875 66.40625 20.328125 58.90625 
Q 16.5 51.421875 16.5 36.375 
Q 16.5 21.390625 20.328125 13.890625 
Q 24.171875 6.390625 31.78125 6.390625 
Q 39.453125 6.390625 43.28125 13.890625 
Q 47.125 21.390625 47.125 36.375 
Q 47.125 51.421875 43.28125 58.90625 
Q 39.453125 66.40625 31.78125 66.40625 
z
M 31.78125 74.21875 
Q 44.046875 74.21875 50.515625 64.515625 
Q 56.984375 54.828125 56.984375 36.375 
Q 56.984375 17.96875 50.515625 8.265625 
Q 44.046875 -1.421875 31.78125 -1.421875 
Q 19.53125 -1.421875 13.0625 8.265625 
Q 6.59375 17.96875 6.59375 36.375 
Q 6.59375 54.828125 13.0625 64.515625 
Q 19.53125 74.21875 31.78125 74.21875 
z
" id="DejaVuSans-30"/>
      </defs>
      <g transform="translate(49.7575 317.076875)scale(0.2 -0.2)">
       <use xlink:href="#DejaVuSans-30"/>
      </g>
     </g>
    </g>
    <g id="xtick_2">
     <g id="line2d_3">
      <path clip-path="url(#pabf68c6041)" d="M 135.351336 294.88 
L 135.351336 24.84 
" style="fill:none;stroke:#b0b0b0;stroke-linecap:square;stroke-width:0.8;"/>
     </g>
     <g id="line2d_4">
      <g>
       <use style="stroke:#000000;stroke-width:0.8;" x="135.351336" xlink:href="#m7e2c3f78fd" y="294.88"/>
      </g>
     </g>
     <g id="text_2">
      <!-- 2 -->
      <defs>
       <path d="M 19.1875 8.296875 
L 53.609375 8.296875 
L 53.609375 0 
L 7.328125 0 
L 7.328125 8.296875 
Q 12.9375 14.109375 22.625 23.890625 
Q 32.328125 33.6875 34.8125 36.53125 
Q 39.546875 41.84375 41.421875 45.53125 
Q 43.3125 49.21875 43.3125 52.78125 
Q 43.3125 58.59375 39.234375 62.25 
Q 35.15625 65.921875 28.609375 65.921875 
Q 23.96875 65.921875 18.8125 64.3125 
Q 13.671875 62.703125 7.8125 59.421875 
L 7.8125 69.390625 
Q 13.765625 71.78125 18.9375 73 
Q 24.125 74.21875 28.421875 74.21875 
Q 39.75 74.21875 46.484375 68.546875 
Q 53.21875 62.890625 53.21875 53.421875 
Q 53.21875 48.921875 51.53125 44.890625 
Q 49.859375 40.875 45.40625 35.40625 
Q 44.1875 33.984375 37.640625 27.21875 
Q 31.109375 20.453125 19.1875 8.296875 
z
" id="DejaVuSans-32"/>
      </defs>
      <g transform="translate(128.988836 317.076875)scale(0.2 -0.2)">
       <use xlink:href="#DejaVuSans-32"/>
      </g>
     </g>
    </g>
    <g id="xtick_3">
     <g id="line2d_5">
      <path clip-path="url(#pabf68c6041)" d="M 214.582673 294.88 
L 214.582673 24.84 
" style="fill:none;stroke:#b0b0b0;stroke-linecap:square;stroke-width:0.8;"/>
     </g>
     <g id="line2d_6">
      <g>
       <use style="stroke:#000000;stroke-width:0.8;" x="214.582673" xlink:href="#m7e2c3f78fd" y="294.88"/>
      </g>
     </g>
     <g id="text_3">
      <!-- 4 -->
      <defs>
       <path d="M 37.796875 64.3125 
L 12.890625 25.390625 
L 37.796875 25.390625 
z
M 35.203125 72.90625 
L 47.609375 72.90625 
L 47.609375 25.390625 
L 58.015625 25.390625 
L 58.015625 17.1875 
L 47.609375 17.1875 
L 47.609375 0 
L 37.796875 0 
L 37.796875 17.1875 
L 4.890625 17.1875 
L 4.890625 26.703125 
z
" id="DejaVuSans-34"/>
      </defs>
      <g transform="translate(208.220173 317.076875)scale(0.2 -0.2)">
       <use xlink:href="#DejaVuSans-34"/>
      </g>
     </g>
    </g>
    <g id="xtick_4">
     <g id="line2d_7">
      <path clip-path="url(#pabf68c6041)" d="M 293.814009 294.88 
L 293.814009 24.84 
" style="fill:none;stroke:#b0b0b0;stroke-linecap:square;stroke-width:0.8;"/>
     </g>
     <g id="line2d_8">
      <g>
       <use style="stroke:#000000;stroke-width:0.8;" x="293.814009" xlink:href="#m7e2c3f78fd" y="294.88"/>
      </g>
     </g>
     <g id="text_4">
      <!-- 6 -->
      <defs>
       <path d="M 33.015625 40.375 
Q 26.375 40.375 22.484375 35.828125 
Q 18.609375 31.296875 18.609375 23.390625 
Q 18.609375 15.53125 22.484375 10.953125 
Q 26.375 6.390625 33.015625 6.390625 
Q 39.65625 6.390625 43.53125 10.953125 
Q 47.40625 15.53125 47.40625 23.390625 
Q 47.40625 31.296875 43.53125 35.828125 
Q 39.65625 40.375 33.015625 40.375 
z
M 52.59375 71.296875 
L 52.59375 62.3125 
Q 48.875 64.0625 45.09375 64.984375 
Q 41.3125 65.921875 37.59375 65.921875 
Q 27.828125 65.921875 22.671875 59.328125 
Q 17.53125 52.734375 16.796875 39.40625 
Q 19.671875 43.65625 24.015625 45.921875 
Q 28.375 48.1875 33.59375 48.1875 
Q 44.578125 48.1875 50.953125 41.515625 
Q 57.328125 34.859375 57.328125 23.390625 
Q 57.328125 12.15625 50.6875 5.359375 
Q 44.046875 -1.421875 33.015625 -1.421875 
Q 20.359375 -1.421875 13.671875 8.265625 
Q 6.984375 17.96875 6.984375 36.375 
Q 6.984375 53.65625 15.1875 63.9375 
Q 23.390625 74.21875 37.203125 74.21875 
Q 40.921875 74.21875 44.703125 73.484375 
Q 48.484375 72.75 52.59375 71.296875 
z
" id="DejaVuSans-36"/>
      </defs>
      <g transform="translate(287.451509 317.076875)scale(0.2 -0.2)">
       <use xlink:href="#DejaVuSans-36"/>
      </g>
     </g>
    </g>
    <g id="xtick_5">
     <g id="line2d_9">
      <path clip-path="url(#pabf68c6041)" d="M 373.045346 294.88 
L 373.045346 24.84 
" style="fill:none;stroke:#b0b0b0;stroke-linecap:square;stroke-width:0.8;"/>
     </g>
     <g id="line2d_10">
      <g>
       <use style="stroke:#000000;stroke-width:0.8;" x="373.045346" xlink:href="#m7e2c3f78fd" y="294.88"/>
      </g>
     </g>
     <g id="text_5">
      <!-- 8 -->
      <defs>
       <path d="M 31.78125 34.625 
Q 24.75 34.625 20.71875 30.859375 
Q 16.703125 27.09375 16.703125 20.515625 
Q 16.703125 13.921875 20.71875 10.15625 
Q 24.75 6.390625 31.78125 6.390625 
Q 38.8125 6.390625 42.859375 10.171875 
Q 46.921875 13.96875 46.921875 20.515625 
Q 46.921875 27.09375 42.890625 30.859375 
Q 38.875 34.625 31.78125 34.625 
z
M 21.921875 38.8125 
Q 15.578125 40.375 12.03125 44.71875 
Q 8.5 49.078125 8.5 55.328125 
Q 8.5 64.0625 14.71875 69.140625 
Q 20.953125 74.21875 31.78125 74.21875 
Q 42.671875 74.21875 48.875 69.140625 
Q 55.078125 64.0625 55.078125 55.328125 
Q 55.078125 49.078125 51.53125 44.71875 
Q 48 40.375 41.703125 38.8125 
Q 48.828125 37.15625 52.796875 32.3125 
Q 56.78125 27.484375 56.78125 20.515625 
Q 56.78125 9.90625 50.3125 4.234375 
Q 43.84375 -1.421875 31.78125 -1.421875 
Q 19.734375 -1.421875 13.25 4.234375 
Q 6.78125 9.90625 6.78125 20.515625 
Q 6.78125 27.484375 10.78125 32.3125 
Q 14.796875 37.15625 21.921875 38.8125 
z
M 18.3125 54.390625 
Q 18.3125 48.734375 21.84375 45.5625 
Q 25.390625 42.390625 31.78125 42.390625 
Q 38.140625 42.390625 41.71875 45.5625 
Q 45.3125 48.734375 45.3125 54.390625 
Q 45.3125 60.0625 41.71875 63.234375 
Q 38.140625 66.40625 31.78125 66.40625 
Q 25.390625 66.40625 21.84375 63.234375 
Q 18.3125 60.0625 18.3125 54.390625 
z
" id="DejaVuSans-38"/>
      </defs>
      <g transform="translate(366.682846 317.076875)scale(0.2 -0.2)">
       <use xlink:href="#DejaVuSans-38"/>
      </g>
     </g>
    </g>
    <g id="text_6">
     <!-- log10(# f-evals / dimension) -->
     <defs>
      <path d="M 9.421875 75.984375 
L 18.40625 75.984375 
L 18.40625 0 
L 9.421875 0 
z
" id="DejaVuSans-6c"/>
      <path d="M 30.609375 48.390625 
Q 23.390625 48.390625 19.1875 42.75 
Q 14.984375 37.109375 14.984375 27.296875 
Q 14.984375 17.484375 19.15625 11.84375 
Q 23.34375 6.203125 30.609375 6.203125 
Q 37.796875 6.203125 41.984375 11.859375 
Q 46.1875 17.53125 46.1875 27.296875 
Q 46.1875 37.015625 41.984375 42.703125 
Q 37.796875 48.390625 30.609375 48.390625 
z
M 30.609375 56 
Q 42.328125 56 49.015625 48.375 
Q 55.71875 40.765625 55.71875 27.296875 
Q 55.71875 13.875 49.015625 6.21875 
Q 42.328125 -1.421875 30.609375 -1.421875 
Q 18.84375 -1.421875 12.171875 6.21875 
Q 5.515625 13.875 5.515625 27.296875 
Q 5.515625 40.765625 12.171875 48.375 
Q 18.84375 56 30.609375 56 
z
" id="DejaVuSans-6f"/>
      <path d="M 45.40625 27.984375 
Q 45.40625 37.75 41.375 43.109375 
Q 37.359375 48.484375 30.078125 48.484375 
Q 22.859375 48.484375 18.828125 43.109375 
Q 14.796875 37.75 14.796875 27.984375 
Q 14.796875 18.265625 18.828125 12.890625 
Q 22.859375 7.515625 30.078125 7.515625 
Q 37.359375 7.515625 41.375 12.890625 
Q 45.40625 18.265625 45.40625 27.984375 
z
M 54.390625 6.78125 
Q 54.390625 -7.171875 48.1875 -13.984375 
Q 42 -20.796875 29.203125 -20.796875 
Q 24.46875 -20.796875 20.265625 -20.09375 
Q 16.0625 -19.390625 12.109375 -17.921875 
L 12.109375 -9.1875 
Q 16.0625 -11.328125 19.921875 -12.34375 
Q 23.78125 -13.375 27.78125 -13.375 
Q 36.625 -13.375 41.015625 -8.765625 
Q 45.40625 -4.15625 45.40625 5.171875 
L 45.40625 9.625 
Q 42.625 4.78125 38.28125 2.390625 
Q 33.9375 0 27.875 0 
Q 17.828125 0 11.671875 7.65625 
Q 5.515625 15.328125 5.515625 27.984375 
Q 5.515625 40.671875 11.671875 48.328125 
Q 17.828125 56 27.875 56 
Q 33.9375 56 38.28125 53.609375 
Q 42.625 51.21875 45.40625 46.390625 
L 45.40625 54.6875 
L 54.390625 54.6875 
z
" id="DejaVuSans-67"/>
      <path d="M 12.40625 8.296875 
L 28.515625 8.296875 
L 28.515625 63.921875 
L 10.984375 60.40625 
L 10.984375 69.390625 
L 28.421875 72.90625 
L 38.28125 72.90625 
L 38.28125 8.296875 
L 54.390625 8.296875 
L 54.390625 0 
L 12.40625 0 
z
" id="DejaVuSans-31"/>
      <path d="M 31 75.875 
Q 24.46875 64.65625 21.28125 53.65625 
Q 18.109375 42.671875 18.109375 31.390625 
Q 18.109375 20.125 21.3125 9.0625 
Q 24.515625 -2 31 -13.1875 
L 23.1875 -13.1875 
Q 15.875 -1.703125 12.234375 9.375 
Q 8.59375 20.453125 8.59375 31.390625 
Q 8.59375 42.28125 12.203125 53.3125 
Q 15.828125 64.359375 23.1875 75.875 
z
" id="DejaVuSans-28"/>
      <path d="M 51.125 44 
L 36.921875 44 
L 32.8125 27.6875 
L 47.125 27.6875 
z
M 43.796875 71.78125 
L 38.71875 51.515625 
L 52.984375 51.515625 
L 58.109375 71.78125 
L 65.921875 71.78125 
L 60.890625 51.515625 
L 76.125 51.515625 
L 76.125 44 
L 58.984375 44 
L 54.984375 27.6875 
L 70.515625 27.6875 
L 70.515625 20.21875 
L 53.078125 20.21875 
L 48 0 
L 40.1875 0 
L 45.21875 20.21875 
L 30.90625 20.21875 
L 25.875 0 
L 18.015625 0 
L 23.09375 20.21875 
L 7.71875 20.21875 
L 7.71875 27.6875 
L 24.90625 27.6875 
L 29 44 
L 13.28125 44 
L 13.28125 51.515625 
L 30.90625 51.515625 
L 35.890625 71.78125 
z
" id="DejaVuSans-23"/>
      <path id="DejaVuSans-20"/>
      <path d="M 37.109375 75.984375 
L 37.109375 68.5 
L 28.515625 68.5 
Q 23.6875 68.5 21.796875 66.546875 
Q 19.921875 64.59375 19.921875 59.515625 
L 19.921875 54.6875 
L 34.71875 54.6875 
L 34.71875 47.703125 
L 19.921875 47.703125 
L 19.921875 0 
L 10.890625 0 
L 10.890625 47.703125 
L 2.296875 47.703125 
L 2.296875 54.6875 
L 10.890625 54.6875 
L 10.890625 58.5 
Q 10.890625 67.625 15.140625 71.796875 
Q 19.390625 75.984375 28.609375 75.984375 
z
" id="DejaVuSans-66"/>
      <path d="M 4.890625 31.390625 
L 31.203125 31.390625 
L 31.203125 23.390625 
L 4.890625 23.390625 
z
" id="DejaVuSans-2d"/>
      <path d="M 56.203125 29.59375 
L 56.203125 25.203125 
L 14.890625 25.203125 
Q 15.484375 15.921875 20.484375 11.0625 
Q 25.484375 6.203125 34.421875 6.203125 
Q 39.59375 6.203125 44.453125 7.46875 
Q 49.3125 8.734375 54.109375 11.28125 
L 54.109375 2.78125 
Q 49.265625 0.734375 44.1875 -0.34375 
Q 39.109375 -1.421875 33.890625 -1.421875 
Q 20.796875 -1.421875 13.15625 6.1875 
Q 5.515625 13.8125 5.515625 26.8125 
Q 5.515625 40.234375 12.765625 48.109375 
Q 20.015625 56 32.328125 56 
Q 43.359375 56 49.78125 48.890625 
Q 56.203125 41.796875 56.203125 29.59375 
z
M 47.21875 32.234375 
Q 47.125 39.59375 43.09375 43.984375 
Q 39.0625 48.390625 32.421875 48.390625 
Q 24.90625 48.390625 20.390625 44.140625 
Q 15.875 39.890625 15.1875 32.171875 
z
" id="DejaVuSans-65"/>
      <path d="M 2.984375 54.6875 
L 12.5 54.6875 
L 29.59375 8.796875 
L 46.6875 54.6875 
L 56.203125 54.6875 
L 35.6875 0 
L 23.484375 0 
z
" id="DejaVuSans-76"/>
      <path d="M 34.28125 27.484375 
Q 23.390625 27.484375 19.1875 25 
Q 14.984375 22.515625 14.984375 16.5 
Q 14.984375 11.71875 18.140625 8.90625 
Q 21.296875 6.109375 26.703125 6.109375 
Q 34.1875 6.109375 38.703125 11.40625 
Q 43.21875 16.703125 43.21875 25.484375 
L 43.21875 27.484375 
z
M 52.203125 31.203125 
L 52.203125 0 
L 43.21875 0 
L 43.21875 8.296875 
Q 40.140625 3.328125 35.546875 0.953125 
Q 30.953125 -1.421875 24.3125 -1.421875 
Q 15.921875 -1.421875 10.953125 3.296875 
Q 6 8.015625 6 15.921875 
Q 6 25.140625 12.171875 29.828125 
Q 18.359375 34.515625 30.609375 34.515625 
L 43.21875 34.515625 
L 43.21875 35.40625 
Q 43.21875 41.609375 39.140625 45 
Q 35.0625 48.390625 27.6875 48.390625 
Q 23 48.390625 18.546875 47.265625 
Q 14.109375 46.140625 10.015625 43.890625 
L 10.015625 52.203125 
Q 14.9375 54.109375 19.578125 55.046875 
Q 24.21875 56 28.609375 56 
Q 40.484375 56 46.34375 49.84375 
Q 52.203125 43.703125 52.203125 31.203125 
z
" id="DejaVuSans-61"/>
      <path d="M 44.28125 53.078125 
L 44.28125 44.578125 
Q 40.484375 46.53125 36.375 47.5 
Q 32.28125 48.484375 27.875 48.484375 
Q 21.1875 48.484375 17.84375 46.4375 
Q 14.5 44.390625 14.5 40.28125 
Q 14.5 37.15625 16.890625 35.375 
Q 19.28125 33.59375 26.515625 31.984375 
L 29.59375 31.296875 
Q 39.15625 29.25 43.1875 25.515625 
Q 47.21875 21.78125 47.21875 15.09375 
Q 47.21875 7.46875 41.1875 3.015625 
Q 35.15625 -1.421875 24.609375 -1.421875 
Q 20.21875 -1.421875 15.453125 -0.5625 
Q 10.6875 0.296875 5.421875 2 
L 5.421875 11.28125 
Q 10.40625 8.6875 15.234375 7.390625 
Q 20.0625 6.109375 24.8125 6.109375 
Q 31.15625 6.109375 34.5625 8.28125 
Q 37.984375 10.453125 37.984375 14.40625 
Q 37.984375 18.0625 35.515625 20.015625 
Q 33.0625 21.96875 24.703125 23.78125 
L 21.578125 24.515625 
Q 13.234375 26.265625 9.515625 29.90625 
Q 5.8125 33.546875 5.8125 39.890625 
Q 5.8125 47.609375 11.28125 51.796875 
Q 16.75 56 26.8125 56 
Q 31.78125 56 36.171875 55.265625 
Q 40.578125 54.546875 44.28125 53.078125 
z
" id="DejaVuSans-73"/>
      <path d="M 25.390625 72.90625 
L 33.6875 72.90625 
L 8.296875 -9.28125 
L 0 -9.28125 
z
" id="DejaVuSans-2f"/>
      <path d="M 45.40625 46.390625 
L 45.40625 75.984375 
L 54.390625 75.984375 
L 54.390625 0 
L 45.40625 0 
L 45.40625 8.203125 
Q 42.578125 3.328125 38.25 0.953125 
Q 33.9375 -1.421875 27.875 -1.421875 
Q 17.96875 -1.421875 11.734375 6.484375 
Q 5.515625 14.40625 5.515625 27.296875 
Q 5.515625 40.1875 11.734375 48.09375 
Q 17.96875 56 27.875 56 
Q 33.9375 56 38.25 53.625 
Q 42.578125 51.265625 45.40625 46.390625 
z
M 14.796875 27.296875 
Q 14.796875 17.390625 18.875 11.75 
Q 22.953125 6.109375 30.078125 6.109375 
Q 37.203125 6.109375 41.296875 11.75 
Q 45.40625 17.390625 45.40625 27.296875 
Q 45.40625 37.203125 41.296875 42.84375 
Q 37.203125 48.484375 30.078125 48.484375 
Q 22.953125 48.484375 18.875 42.84375 
Q 14.796875 37.203125 14.796875 27.296875 
z
" id="DejaVuSans-64"/>
      <path d="M 9.421875 54.6875 
L 18.40625 54.6875 
L 18.40625 0 
L 9.421875 0 
z
M 9.421875 75.984375 
L 18.40625 75.984375 
L 18.40625 64.59375 
L 9.421875 64.59375 
z
" id="DejaVuSans-69"/>
      <path d="M 52 44.1875 
Q 55.375 50.25 60.0625 53.125 
Q 64.75 56 71.09375 56 
Q 79.640625 56 84.28125 50.015625 
Q 88.921875 44.046875 88.921875 33.015625 
L 88.921875 0 
L 79.890625 0 
L 79.890625 32.71875 
Q 79.890625 40.578125 77.09375 44.375 
Q 74.3125 48.1875 68.609375 48.1875 
Q 61.625 48.1875 57.5625 43.546875 
Q 53.515625 38.921875 53.515625 30.90625 
L 53.515625 0 
L 44.484375 0 
L 44.484375 32.71875 
Q 44.484375 40.625 41.703125 44.40625 
Q 38.921875 48.1875 33.109375 48.1875 
Q 26.21875 48.1875 22.15625 43.53125 
Q 18.109375 38.875 18.109375 30.90625 
L 18.109375 0 
L 9.078125 0 
L 9.078125 54.6875 
L 18.109375 54.6875 
L 18.109375 46.1875 
Q 21.1875 51.21875 25.484375 53.609375 
Q 29.78125 56 35.6875 56 
Q 41.65625 56 45.828125 52.96875 
Q 50 49.953125 52 44.1875 
z
" id="DejaVuSans-6d"/>
      <path d="M 54.890625 33.015625 
L 54.890625 0 
L 45.90625 0 
L 45.90625 32.71875 
Q 45.90625 40.484375 42.875 44.328125 
Q 39.84375 48.1875 33.796875 48.1875 
Q 26.515625 48.1875 22.3125 43.546875 
Q 18.109375 38.921875 18.109375 30.90625 
L 18.109375 0 
L 9.078125 0 
L 9.078125 54.6875 
L 18.109375 54.6875 
L 18.109375 46.1875 
Q 21.34375 51.125 25.703125 53.5625 
Q 30.078125 56 35.796875 56 
Q 45.21875 56 50.046875 50.171875 
Q 54.890625 44.34375 54.890625 33.015625 
z
" id="DejaVuSans-6e"/>
      <path d="M 8.015625 75.875 
L 15.828125 75.875 
Q 23.140625 64.359375 26.78125 53.3125 
Q 30.421875 42.28125 30.421875 31.390625 
Q 30.421875 20.453125 26.78125 9.375 
Q 23.140625 -1.703125 15.828125 -13.1875 
L 8.015625 -13.1875 
Q 14.5 -2 17.703125 9.0625 
Q 20.90625 20.125 20.90625 31.390625 
Q 20.90625 42.671875 17.703125 53.65625 
Q 14.5 64.65625 8.015625 75.875 
z
" id="DejaVuSans-29"/>
     </defs>
     <g transform="translate(107.211219 338.153594)scale(0.17 -0.17)">
      <use xlink:href="#DejaVuSans-6c"/>
      <use x="27.783203" xlink:href="#DejaVuSans-6f"/>
      <use x="88.964844" xlink:href="#DejaVuSans-67"/>
      <use x="152.441406" xlink:href="#DejaVuSans-31"/>
      <use x="216.064453" xlink:href="#DejaVuSans-30"/>
      <use x="279.6875" xlink:href="#DejaVuSans-28"/>
      <use x="318.701172" xlink:href="#DejaVuSans-23"/>
      <use x="402.490234" xlink:href="#DejaVuSans-20"/>
      <use x="434.277344" xlink:href="#DejaVuSans-66"/>
      <use x="469.404297" xlink:href="#DejaVuSans-2d"/>
      <use x="505.488281" xlink:href="#DejaVuSans-65"/>
      <use x="567.011719" xlink:href="#DejaVuSans-76"/>
      <use x="626.191406" xlink:href="#DejaVuSans-61"/>
      <use x="687.470703" xlink:href="#DejaVuSans-6c"/>
      <use x="715.253906" xlink:href="#DejaVuSans-73"/>
      <use x="767.353516" xlink:href="#DejaVuSans-20"/>
      <use x="799.140625" xlink:href="#DejaVuSans-2f"/>
      <use x="832.832031" xlink:href="#DejaVuSans-20"/>
      <use x="864.619141" xlink:href="#DejaVuSans-64"/>
      <use x="928.095703" xlink:href="#DejaVuSans-69"/>
      <use x="955.878906" xlink:href="#DejaVuSans-6d"/>
      <use x="1053.291016" xlink:href="#DejaVuSans-65"/>
      <use x="1114.814453" xlink:href="#DejaVuSans-6e"/>
      <use x="1178.193359" xlink:href="#DejaVuSans-73"/>
      <use x="1230.292969" xlink:href="#DejaVuSans-69"/>
      <use x="1258.076172" xlink:href="#DejaVuSans-6f"/>
      <use x="1319.257812" xlink:href="#DejaVuSans-6e"/>
      <use x="1382.636719" xlink:href="#DejaVuSans-29"/>
     </g>
    </g>
   </g>
   <g id="matplotlib.axis_2">
    <g id="ytick_1">
     <g id="line2d_11">
      <path clip-path="url(#pabf68c6041)" d="M 56.12 294.88 
L 399.984 294.88 
" style="fill:none;stroke:#b0b0b0;stroke-linecap:square;stroke-width:0.8;"/>
     </g>
     <g id="line2d_12">
      <defs>
       <path d="M 0 0 
L -3.5 0 
" id="m82e342170e" style="stroke:#000000;stroke-width:0.8;"/>
      </defs>
      <g>
       <use style="stroke:#000000;stroke-width:0.8;" x="56.12" xlink:href="#m82e342170e" y="294.88"/>
      </g>
     </g>
     <g id="text_7">
      <!-- 0.0 -->
      <defs>
       <path d="M 10.6875 12.40625 
L 21 12.40625 
L 21 0 
L 10.6875 0 
z
" id="DejaVuSans-2e"/>
      </defs>
      <g transform="translate(23.675 300.95875)scale(0.16 -0.16)">
       <use xlink:href="#DejaVuSans-30"/>
       <use x="63.623047" xlink:href="#DejaVuSans-2e"/>
       <use x="95.410156" xlink:href="#DejaVuSans-30"/>
      </g>
     </g>
    </g>
    <g id="ytick_2">
     <g id="line2d_13">
      <path clip-path="url(#pabf68c6041)" d="M 56.12 241.406733 
L 399.984 241.406733 
" style="fill:none;stroke:#b0b0b0;stroke-linecap:square;stroke-width:0.8;"/>
     </g>
     <g id="line2d_14">
      <g>
       <use style="stroke:#000000;stroke-width:0.8;" x="56.12" xlink:href="#m82e342170e" y="241.406733"/>
      </g>
     </g>
     <g id="text_8">
      <!-- 0.2 -->
      <g transform="translate(23.675 247.485483)scale(0.16 -0.16)">
       <use xlink:href="#DejaVuSans-30"/>
       <use x="63.623047" xlink:href="#DejaVuSans-2e"/>
       <use x="95.410156" xlink:href="#DejaVuSans-32"/>
      </g>
     </g>
    </g>
    <g id="ytick_3">
     <g id="line2d_15">
      <path clip-path="url(#pabf68c6041)" d="M 56.12 187.933465 
L 399.984 187.933465 
" style="fill:none;stroke:#b0b0b0;stroke-linecap:square;stroke-width:0.8;"/>
     </g>
     <g id="line2d_16">
      <g>
       <use style="stroke:#000000;stroke-width:0.8;" x="56.12" xlink:href="#m82e342170e" y="187.933465"/>
      </g>
     </g>
     <g id="text_9">
      <!-- 0.4 -->
      <g transform="translate(23.675 194.012215)scale(0.16 -0.16)">
       <use xlink:href="#DejaVuSans-30"/>
       <use x="63.623047" xlink:href="#DejaVuSans-2e"/>
       <use x="95.410156" xlink:href="#DejaVuSans-34"/>
      </g>
     </g>
    </g>
    <g id="ytick_4">
     <g id="line2d_17">
      <path clip-path="url(#pabf68c6041)" d="M 56.12 134.460198 
L 399.984 134.460198 
" style="fill:none;stroke:#b0b0b0;stroke-linecap:square;stroke-width:0.8;"/>
     </g>
     <g id="line2d_18">
      <g>
       <use style="stroke:#000000;stroke-width:0.8;" x="56.12" xlink:href="#m82e342170e" y="134.460198"/>
      </g>
     </g>
     <g id="text_10">
      <!-- 0.6 -->
      <g transform="translate(23.675 140.538948)scale(0.16 -0.16)">
       <use xlink:href="#DejaVuSans-30"/>
       <use x="63.623047" xlink:href="#DejaVuSans-2e"/>
       <use x="95.410156" xlink:href="#DejaVuSans-36"/>
      </g>
     </g>
    </g>
    <g id="ytick_5">
     <g id="line2d_19">
      <path clip-path="url(#pabf68c6041)" d="M 56.12 80.986931 
L 399.984 80.986931 
" style="fill:none;stroke:#b0b0b0;stroke-linecap:square;stroke-width:0.8;"/>
     </g>
     <g id="line2d_20">
      <g>
       <use style="stroke:#000000;stroke-width:0.8;" x="56.12" xlink:href="#m82e342170e" y="80.986931"/>
      </g>
     </g>
     <g id="text_11">
      <!-- 0.8 -->
      <g transform="translate(23.675 87.065681)scale(0.16 -0.16)">
       <use xlink:href="#DejaVuSans-30"/>
       <use x="63.623047" xlink:href="#DejaVuSans-2e"/>
       <use x="95.410156" xlink:href="#DejaVuSans-38"/>
      </g>
     </g>
    </g>
    <g id="ytick_6">
     <g id="line2d_21">
      <path clip-path="url(#pabf68c6041)" d="M 56.12 27.513663 
L 399.984 27.513663 
" style="fill:none;stroke:#b0b0b0;stroke-linecap:square;stroke-width:0.8;"/>
     </g>
     <g id="line2d_22">
      <g>
       <use style="stroke:#000000;stroke-width:0.8;" x="56.12" xlink:href="#m82e342170e" y="27.513663"/>
      </g>
     </g>
     <g id="text_12">
      <!-- 1.0 -->
      <g transform="translate(23.675 33.592413)scale(0.16 -0.16)">
       <use xlink:href="#DejaVuSans-31"/>
       <use x="63.623047" xlink:href="#DejaVuSans-2e"/>
       <use x="95.410156" xlink:href="#DejaVuSans-30"/>
      </g>
     </g>
    </g>
    <g id="text_13">
     <!-- Fraction of function,target pairs -->
     <defs>
      <path d="M 9.8125 72.90625 
L 51.703125 72.90625 
L 51.703125 64.59375 
L 19.671875 64.59375 
L 19.671875 43.109375 
L 48.578125 43.109375 
L 48.578125 34.8125 
L 19.671875 34.8125 
L 19.671875 0 
L 9.8125 0 
z
" id="DejaVuSans-46"/>
      <path d="M 41.109375 46.296875 
Q 39.59375 47.171875 37.8125 47.578125 
Q 36.03125 48 33.890625 48 
Q 26.265625 48 22.1875 43.046875 
Q 18.109375 38.09375 18.109375 28.8125 
L 18.109375 0 
L 9.078125 0 
L 9.078125 54.6875 
L 18.109375 54.6875 
L 18.109375 46.1875 
Q 20.953125 51.171875 25.484375 53.578125 
Q 30.03125 56 36.53125 56 
Q 37.453125 56 38.578125 55.875 
Q 39.703125 55.765625 41.0625 55.515625 
z
" id="DejaVuSans-72"/>
      <path d="M 48.78125 52.59375 
L 48.78125 44.1875 
Q 44.96875 46.296875 41.140625 47.34375 
Q 37.3125 48.390625 33.40625 48.390625 
Q 24.65625 48.390625 19.8125 42.84375 
Q 14.984375 37.3125 14.984375 27.296875 
Q 14.984375 17.28125 19.8125 11.734375 
Q 24.65625 6.203125 33.40625 6.203125 
Q 37.3125 6.203125 41.140625 7.25 
Q 44.96875 8.296875 48.78125 10.40625 
L 48.78125 2.09375 
Q 45.015625 0.34375 40.984375 -0.53125 
Q 36.96875 -1.421875 32.421875 -1.421875 
Q 20.0625 -1.421875 12.78125 6.34375 
Q 5.515625 14.109375 5.515625 27.296875 
Q 5.515625 40.671875 12.859375 48.328125 
Q 20.21875 56 33.015625 56 
Q 37.15625 56 41.109375 55.140625 
Q 45.0625 54.296875 48.78125 52.59375 
z
" id="DejaVuSans-63"/>
      <path d="M 18.3125 70.21875 
L 18.3125 54.6875 
L 36.8125 54.6875 
L 36.8125 47.703125 
L 18.3125 47.703125 
L 18.3125 18.015625 
Q 18.3125 11.328125 20.140625 9.421875 
Q 21.96875 7.515625 27.59375 7.515625 
L 36.8125 7.515625 
L 36.8125 0 
L 27.59375 0 
Q 17.1875 0 13.234375 3.875 
Q 9.28125 7.765625 9.28125 18.015625 
L 9.28125 47.703125 
L 2.6875 47.703125 
L 2.6875 54.6875 
L 9.28125 54.6875 
L 9.28125 70.21875 
z
" id="DejaVuSans-74"/>
      <path d="M 8.5 21.578125 
L 8.5 54.6875 
L 17.484375 54.6875 
L 17.484375 21.921875 
Q 17.484375 14.15625 20.5 10.265625 
Q 23.53125 6.390625 29.59375 6.390625 
Q 36.859375 6.390625 41.078125 11.03125 
Q 45.3125 15.671875 45.3125 23.6875 
L 45.3125 54.6875 
L 54.296875 54.6875 
L 54.296875 0 
L 45.3125 0 
L 45.3125 8.40625 
Q 42.046875 3.421875 37.71875 1 
Q 33.40625 -1.421875 27.6875 -1.421875 
Q 18.265625 -1.421875 13.375 4.4375 
Q 8.5 10.296875 8.5 21.578125 
z
M 31.109375 56 
z
" id="DejaVuSans-75"/>
      <path d="M 11.71875 12.40625 
L 22.015625 12.40625 
L 22.015625 4 
L 14.015625 -11.625 
L 7.71875 -11.625 
L 11.71875 4 
z
" id="DejaVuSans-2c"/>
      <path d="M 18.109375 8.203125 
L 18.109375 -20.796875 
L 9.078125 -20.796875 
L 9.078125 54.6875 
L 18.109375 54.6875 
L 18.109375 46.390625 
Q 20.953125 51.265625 25.265625 53.625 
Q 29.59375 56 35.59375 56 
Q 45.5625 56 51.78125 48.09375 
Q 58.015625 40.1875 58.015625 27.296875 
Q 58.015625 14.40625 51.78125 6.484375 
Q 45.5625 -1.421875 35.59375 -1.421875 
Q 29.59375 -1.421875 25.265625 0.953125 
Q 20.953125 3.328125 18.109375 8.203125 
z
M 48.6875 27.296875 
Q 48.6875 37.203125 44.609375 42.84375 
Q 40.53125 48.484375 33.40625 48.484375 
Q 26.265625 48.484375 22.1875 42.84375 
Q 18.109375 37.203125 18.109375 27.296875 
Q 18.109375 17.390625 22.1875 11.75 
Q 26.265625 6.109375 33.40625 6.109375 
Q 40.53125 6.109375 44.609375 11.75 
Q 48.6875 17.390625 48.6875 27.296875 
z
" id="DejaVuSans-70"/>
     </defs>
     <g transform="translate(16.139531 294.999375)rotate(-90)scale(0.17 -0.17)">
      <use xlink:href="#DejaVuSans-46"/>
      <use x="57.410156" xlink:href="#DejaVuSans-72"/>
      <use x="98.523438" xlink:href="#DejaVuSans-61"/>
      <use x="159.802734" xlink:href="#DejaVuSans-63"/>
      <use x="214.783203" xlink:href="#DejaVuSans-74"/>
      <use x="253.992188" xlink:href="#DejaVuSans-69"/>
      <use x="281.775391" xlink:href="#DejaVuSans-6f"/>
      <use x="342.957031" xlink:href="#DejaVuSans-6e"/>
      <use x="406.335938" xlink:href="#DejaVuSans-20"/>
      <use x="438.123047" xlink:href="#DejaVuSans-6f"/>
      <use x="499.304688" xlink:href="#DejaVuSans-66"/>
      <use x="534.509766" xlink:href="#DejaVuSans-20"/>
      <use x="566.296875" xlink:href="#DejaVuSans-66"/>
      <use x="601.501953" xlink:href="#DejaVuSans-75"/>
      <use x="664.880859" xlink:href="#DejaVuSans-6e"/>
      <use x="728.259766" xlink:href="#DejaVuSans-63"/>
      <use x="783.240234" xlink:href="#DejaVuSans-74"/>
      <use x="822.449219" xlink:href="#DejaVuSans-69"/>
      <use x="850.232422" xlink:href="#DejaVuSans-6f"/>
      <use x="911.414062" xlink:href="#DejaVuSans-6e"/>
      <use x="974.792969" xlink:href="#DejaVuSans-2c"/>
      <use x="1006.580078" xlink:href="#DejaVuSans-74"/>
      <use x="1045.789062" xlink:href="#DejaVuSans-61"/>
      <use x="1107.068359" xlink:href="#DejaVuSans-72"/>
      <use x="1148.166016" xlink:href="#DejaVuSans-67"/>
      <use x="1211.642578" xlink:href="#DejaVuSans-65"/>
      <use x="1273.166016" xlink:href="#DejaVuSans-74"/>
      <use x="1312.375" xlink:href="#DejaVuSans-20"/>
      <use x="1344.162109" xlink:href="#DejaVuSans-70"/>
      <use x="1407.638672" xlink:href="#DejaVuSans-61"/>
      <use x="1468.917969" xlink:href="#DejaVuSans-69"/>
      <use x="1496.701172" xlink:href="#DejaVuSans-72"/>
      <use x="1537.814453" xlink:href="#DejaVuSans-73"/>
     </g>
    </g>
   </g>
   <g id="line2d_23">
    <defs>
     <path d="M 0 1.5 
C 0.397805 1.5 0.77937 1.341951 1.06066 1.06066 
C 1.341951 0.77937 1.5 0.397805 1.5 0 
C 1.5 -0.397805 1.341951 -0.77937 1.06066 -1.06066 
C 0.77937 -1.341951 0.397805 -1.5 0 -1.5 
C -0.397805 -1.5 -0.77937 -1.341951 -1.06066 -1.06066 
C -1.341951 -0.77937 -1.5 -0.397805 -1.5 0 
C -1.5 0.397805 -1.341951 0.77937 -1.06066 1.06066 
C -0.77937 1.341951 -0.397805 1.5 0 1.5 
z
" id="m0ad093108b" style="stroke:#00bfbf;"/>
    </defs>
    <g>
     <use style="fill:#00bfbf;stroke:#00bfbf;" x="315.371145" xlink:href="#m0ad093108b" y="27.513663"/>
     <use style="fill:#00bfbf;stroke:#00bfbf;" x="315.371145" xlink:href="#m0ad093108b" y="27.513663"/>
    </g>
   </g>
   <g id="line2d_24">
    <path d="M 56.12 294.88 
L 56.12 283.870798 
L 68.045504 283.870798 
L 68.045504 279.676816 
L 75.021477 279.676816 
L 75.021477 278.104073 
L 79.971009 278.104073 
L 79.971009 277.055578 
L 83.810164 277.055578 
L 83.810164 276.53133 
L 86.946982 276.53133 
L 86.946982 276.007082 
L 91.896513 276.007082 
L 91.896513 271.8131 
L 93.922955 271.8131 
L 93.922955 265.522128 
L 98.872486 265.522128 
L 98.872486 263.949385 
L 102.711641 263.949385 
L 102.711641 261.328146 
L 103.822018 261.328146 
L 103.822018 260.803898 
L 104.865056 260.803898 
L 104.865056 259.755403 
L 106.778678 259.755403 
L 106.778678 256.609917 
L 107.661173 256.609917 
L 107.661173 256.085669 
L 111.500328 256.085669 
L 111.500328 255.561421 
L 112.824432 255.561421 
L 112.824432 253.46443 
L 114.053874 253.46443 
L 114.053874 252.415935 
L 115.20129 252.415935 
L 115.20129 251.367439 
L 116.276944 251.367439 
L 116.276944 250.318944 
L 117.289287 250.318944 
L 117.289287 249.794696 
L 117.773963 249.794696 
L 117.773963 248.746201 
L 120.01151 248.746201 
L 120.01151 247.697705 
L 127.126794 247.697705 
L 127.126794 246.64921 
L 131.512181 246.64921 
L 131.512181 246.124962 
L 135.859892 246.124962 
L 135.859892 244.027971 
L 136.026124 244.027971 
L 136.026124 243.503724 
L 136.515394 243.503724 
L 136.515394 242.979476 
L 137.301141 242.979476 
L 137.301141 240.882485 
L 138.052565 240.882485 
L 138.052565 239.309742 
L 138.772539 239.309742 
L 138.772539 237.212751 
L 139.327583 237.212751 
L 139.327583 235.640008 
L 139.46359 235.640008 
L 139.46359 233.543017 
L 140.641569 233.543017 
L 140.641569 232.494521 
L 141.505077 232.494521 
L 141.505077 229.873283 
L 141.624972 229.873283 
L 141.624972 228.30054 
L 146.120523 228.30054 
L 146.120523 227.776292 
L 146.66388 227.776292 
L 146.66388 227.252044 
L 148.759517 227.252044 
L 148.838258 223.058063 
L 150.124495 223.058063 
L 150.124495 220.961072 
L 152.053458 220.961072 
L 152.053458 218.864081 
L 152.755795 218.864081 
L 152.755795 218.339833 
L 153.610112 218.339833 
L 153.610112 217.291338 
L 156.048314 217.291338 
L 156.048314 216.242842 
L 157.002989 216.242842 
L 157.002989 214.670099 
L 157.767776 214.670099 
L 157.767776 214.145851 
L 157.907464 214.145851 
L 157.907464 213.621604 
L 159.66909 213.621604 
L 159.66909 212.04886 
L 160.000761 212.04886 
L 160.000761 209.427622 
L 162.552891 209.427622 
L 162.552891 208.903374 
L 164.837 208.903374 
L 164.837 207.854879 
L 165.505825 207.854879 
L 165.505825 207.330631 
L 166.908161 207.330631 
L 166.990415 204.709392 
L 169.122901 204.709392 
L 169.122901 195.797181 
L 169.386674 195.797181 
L 169.386674 195.272933 
L 170.714304 195.272933 
L 170.714304 194.748686 
L 176.147134 194.748686 
L 176.147134 194.224438 
L 179.546992 194.224438 
L 179.546992 186.360722 
L 180.939322 186.360722 
L 180.939322 184.787979 
L 181.096666 184.787979 
L 181.096666 183.215236 
L 181.793219 183.215236 
L 181.793219 182.690988 
L 182.29492 182.690988 
L 182.29492 181.118245 
L 182.891298 181.118245 
L 182.891298 179.545502 
L 183.181909 179.545502 
L 183.181909 177.448511 
L 183.759132 177.448511 
L 183.759132 170.109043 
L 184.663801 170.109043 
L 184.663801 160.148336 
L 187.258493 160.148336 
L 187.266913 150.711877 
L 188.160766 150.711877 
L 188.160766 150.18763 
L 188.367291 150.18763 
L 188.367291 148.614886 
L 188.842314 148.614886 
L 188.842314 147.042143 
L 189.048454 147.042143 
L 189.116622 139.702675 
L 189.549566 139.702675 
L 189.549566 133.411703 
L 191.882854 133.411703 
L 191.940685 132.363207 
L 193.02217 132.363207 
L 193.02217 122.4025 
L 193.857008 122.4025 
L 193.857008 121.878253 
L 194.27092 121.878253 
L 194.27092 120.829757 
L 194.746101 120.829757 
L 194.746101 119.781262 
L 194.951955 119.781262 
L 194.951955 118.208519 
L 195.612238 118.208519 
L 195.612238 114.538785 
L 195.818287 114.538785 
L 195.818287 114.014537 
L 196.026957 114.014537 
L 196.026957 113.490289 
L 196.784043 113.490289 
L 196.784043 111.917546 
L 198.826614 111.917546 
L 198.826614 110.344803 
L 199.372443 110.344803 
L 199.372443 109.820555 
L 200.582486 109.820555 
L 200.582486 108.247812 
L 200.970163 108.247812 
L 200.970163 107.723564 
L 202.232163 107.723564 
L 202.232163 107.199317 
L 209.146892 107.199317 
L 209.146892 106.150821 
L 209.31596 106.150821 
L 209.31596 99.859849 
L 281.888935 99.859849 
L 281.998111 60.54127 
L 282.002385 60.54127 
L 282.055559 54.250297 
L 282.140033 54.250297 
L 282.140033 52.153306 
L 293.816211 52.153306 
L 293.882743 36.950122 
L 300.81014 36.950122 
L 300.874246 32.756141 
L 305.750753 32.756141 
L 305.759099 30.65915 
L 309.583585 30.65915 
L 309.602075 29.086407 
L 312.725577 29.086407 
L 312.73844 28.037911 
L 315.371145 28.037911 
L 315.371145 27.513663 
L 333.429677 27.513663 
L 333.429677 27.513663 
" style="fill:none;stroke:#00bfbf;stroke-linecap:square;stroke-width:1.5;"/>
   </g>
   <g id="line2d_25">
    <defs>
     <path d="M -6 0 
L 6 0 
M 0 6 
L 0 -6 
" id="m8aa55d5e31" style="stroke:#00bfbf;stroke-width:1.5;"/>
    </defs>
    <g>
     <use style="fill-opacity:0;stroke:#00bfbf;stroke-width:1.5;" x="91.896513" xlink:href="#m8aa55d5e31" y="271.8131"/>
     <use style="fill-opacity:0;stroke:#00bfbf;stroke-width:1.5;" x="183.759132" xlink:href="#m8aa55d5e31" y="170.109043"/>
     <use style="fill-opacity:0;stroke:#00bfbf;stroke-width:1.5;" x="209.31596" xlink:href="#m8aa55d5e31" y="99.859849"/>
     <use style="fill-opacity:0;stroke:#00bfbf;stroke-width:1.5;" x="315.371145" xlink:href="#m8aa55d5e31" y="27.513663"/>
     <use style="fill-opacity:0;stroke:#00bfbf;stroke-width:1.5;" x="333.429677" xlink:href="#m8aa55d5e31" y="27.513663"/>
    </g>
   </g>
   <g id="line2d_26">
    <path style="fill:none;stroke:#00bfbf;stroke-linecap:square;stroke-width:1.5;"/>
    <g/>
   </g>
   <g id="line2d_27">
    <path clip-path="url(#pabf68c6041)" d="M 281.888522 99.859849 
" style="fill:none;stroke:#00bfbf;stroke-linecap:square;stroke-width:1.5;"/>
    <defs>
     <path d="M -12 12 
L 12 -12 
M -12 -12 
L 12 12 
" id="m97e38826f6" style="stroke:#00bfbf;stroke-width:3;"/>
    </defs>
    <g clip-path="url(#pabf68c6041)">
     <use style="fill:#00bfbf;stroke:#00bfbf;stroke-width:3;" x="281.888522" xlink:href="#m97e38826f6" y="99.859849"/>
    </g>
   </g>
   <g id="line2d_28">
    <defs>
     <path d="M 0 1.5 
C 0.397805 1.5 0.77937 1.341951 1.06066 1.06066 
C 1.341951 0.77937 1.5 0.397805 1.5 0 
C 1.5 -0.397805 1.341951 -0.77937 1.06066 -1.06066 
C 0.77937 -1.341951 0.397805 -1.5 0 -1.5 
C -0.397805 -1.5 -0.77937 -1.341951 -1.06066 -1.06066 
C -1.341951 -0.77937 -1.5 -0.397805 -1.5 0 
C -1.5 0.397805 -1.341951 0.77937 -1.06066 1.06066 
C -0.77937 1.341951 -0.397805 1.5 0 1.5 
z
" id="m4fda451ea1" style="stroke:#008000;"/>
    </defs>
    <g>
     <use style="fill:#008000;stroke:#008000;" x="324.649014" xlink:href="#m4fda451ea1" y="27.513663"/>
     <use style="fill:#008000;stroke:#008000;" x="324.649014" xlink:href="#m4fda451ea1" y="27.513663"/>
    </g>
   </g>
   <g id="line2d_29">
    <path d="M 49.144027 294.88 
L 49.144027 289.113275 
L 61.069532 289.113275 
L 61.069532 288.06478 
L 68.045504 288.06478 
L 68.045504 283.870798 
L 72.995036 283.870798 
L 72.995036 283.34655 
L 76.834191 283.34655 
L 76.834191 282.298055 
L 79.971009 282.298055 
L 79.971009 281.249559 
L 82.623151 281.249559 
L 82.623151 279.152568 
L 86.946982 279.152568 
L 86.946982 277.055578 
L 88.759695 277.055578 
L 88.759695 274.434339 
L 91.896513 274.434339 
L 91.896513 273.910091 
L 96.846045 273.910091 
L 96.846045 273.385844 
L 101.524628 273.385844 
L 101.524628 272.861596 
L 103.089785 272.861596 
L 103.089785 272.337348 
L 105.848459 272.337348 
L 105.848459 269.716109 
L 108.225317 269.716109 
L 108.225317 269.191862 
L 109.300972 269.191862 
L 109.300972 268.143366 
L 111.72821 268.143366 
L 111.72821 267.619119 
L 112.610704 267.619119 
L 112.610704 266.570623 
L 113.854971 266.570623 
L 113.854971 266.046375 
L 116.790561 266.046375 
L 116.790561 265.522128 
L 119.871061 265.522128 
L 119.871061 263.425137 
L 125.169588 263.425137 
L 125.169588 262.376641 
L 129.050151 262.376641 
L 129.050151 261.852394 
L 129.539422 261.852394 
L 129.539422 261.328146 
L 130.170864 261.328146 
L 130.170864 259.755403 
L 131.654961 259.755403 
L 131.654961 259.231155 
L 131.796566 259.231155 
L 131.796566 257.134164 
L 131.937015 257.134164 
L 131.937015 256.085669 
L 133.79164 256.085669 
L 133.79164 253.46443 
L 134.529104 253.46443 
L 134.529104 252.940182 
L 134.768065 252.940182 
L 134.768065 251.891687 
L 135.465655 251.891687 
L 135.465655 250.843192 
L 135.692038 250.843192 
L 135.692038 249.270448 
L 137.805719 249.270448 
L 137.805719 248.746201 
L 138.583472 248.746201 
L 138.583472 243.503724 
L 138.866299 243.503724 
L 138.866299 242.979476 
L 141.058173 242.979476 
L 141.058173 241.93098 
L 142.327309 241.93098 
L 142.327309 240.882485 
L 142.928414 240.882485 
L 142.928414 239.83399 
L 144.345252 239.83399 
L 144.345252 239.309742 
L 144.880856 239.309742 
L 144.880856 238.785494 
L 148.27935 238.785494 
L 148.27935 238.261246 
L 150.650971 238.261246 
L 150.650971 236.688503 
L 152.09685 236.688503 
L 152.09685 234.591512 
L 154.853918 234.591512 
L 154.853918 233.543017 
L 155.219216 233.543017 
L 155.219216 229.873283 
L 157.674016 229.873283 
L 157.674016 228.824787 
L 158.319851 228.824787 
L 158.319851 226.727797 
L 158.85476 226.727797 
L 158.913181 224.106558 
L 162.267327 224.106558 
L 162.267327 223.58231 
L 162.434481 223.58231 
L 162.481943 222.009567 
L 162.787293 222.009567 
L 162.787293 220.436824 
L 163.359697 220.436824 
L 163.359697 219.388328 
L 164.000672 219.388328 
L 164.000672 218.864081 
L 164.722957 218.864081 
L 164.722957 217.291338 
L 166.349512 217.291338 
L 166.349512 216.76709 
L 168.382262 216.76709 
L 168.382262 215.194347 
L 169.171162 215.194347 
L 169.171162 214.670099 
L 173.407308 214.670099 
L 173.407308 214.145851 
L 176.237925 214.145851 
L 176.237925 212.573108 
L 176.470713 212.573108 
L 176.470713 211.000365 
L 176.988347 211.000365 
L 176.988347 210.476117 
L 177.261527 210.476117 
L 177.261527 209.427622 
L 180.416737 209.427622 
L 180.416737 208.379126 
L 180.902806 208.379126 
L 180.919045 206.282136 
L 182.742305 206.282136 
L 182.742305 205.757888 
L 183.174792 205.757888 
L 183.174792 204.709392 
L 183.679823 204.709392 
L 183.679823 203.660897 
L 184.17045 203.660897 
L 184.17045 202.612401 
L 185.339091 202.612401 
L 185.339091 199.991163 
L 186.498044 199.991163 
L 186.498044 199.466915 
L 187.775577 199.466915 
L 187.775577 198.942667 
L 189.131734 198.942667 
L 189.131734 190.030456 
L 189.376701 190.030456 
L 189.376701 188.981961 
L 189.81775 188.981961 
L 189.914244 182.690988 
L 190.157882 182.690988 
L 190.157882 182.16674 
L 191.018305 182.16674 
L 191.018305 173.778777 
L 192.178525 173.778777 
L 192.229065 172.730281 
L 192.636349 172.730281 
L 192.636349 165.915061 
L 193.902857 165.915061 
L 193.925736 164.866566 
L 195.753305 164.866566 
L 195.753305 164.342318 
L 196.089235 164.342318 
L 196.089235 163.293823 
L 196.398941 163.293823 
L 196.398941 162.245327 
L 197.661696 162.245327 
L 197.732089 156.478602 
L 199.048725 156.478602 
L 199.048725 148.090639 
L 199.3655 148.090639 
L 199.3655 146.517896 
L 200.067615 146.517896 
L 200.067615 145.4694 
L 200.290163 145.4694 
L 200.290163 144.945152 
L 200.996711 144.945152 
L 200.996711 143.372409 
L 274.918776 143.372409 
L 275.029727 136.557189 
L 275.031402 136.557189 
L 275.135994 104.578078 
L 275.145298 104.578078 
L 275.145298 103.529583 
L 286.886554 103.529583 
L 286.957692 78.365692 
L 293.819485 78.365692 
L 293.884925 55.82304 
L 298.792927 55.82304 
L 298.822041 45.862334 
L 302.626212 45.862334 
L 302.644511 36.425875 
L 305.759116 36.425875 
L 305.77437 33.804636 
L 308.408461 33.804636 
L 308.419227 30.65915 
L 310.704424 30.65915 
L 310.705455 29.610654 
L 314.539971 29.610654 
L 314.539971 29.086407 
L 320.332117 29.086407 
L 320.332117 28.562159 
L 321.512027 28.562159 
L 321.512027 28.037911 
L 324.649014 28.037911 
L 324.649014 27.513663 
L 333.429677 27.513663 
L 333.429677 27.513663 
" style="fill:none;stroke:#008000;stroke-linecap:square;stroke-width:1.5;"/>
   </g>
   <g id="line2d_30">
    <defs>
     <path d="M -0 6 
L 6 -6 
L -6 -6 
z
" id="m911bcdc6d7" style="stroke:#008000;stroke-linejoin:miter;stroke-width:1.5;"/>
    </defs>
    <g>
     <use style="fill-opacity:0;stroke:#008000;stroke-linejoin:miter;stroke-width:1.5;" x="125.169588" xlink:href="#m911bcdc6d7" y="262.376641"/>
     <use style="fill-opacity:0;stroke:#008000;stroke-linejoin:miter;stroke-width:1.5;" x="176.470713" xlink:href="#m911bcdc6d7" y="212.573108"/>
     <use style="fill-opacity:0;stroke:#008000;stroke-linejoin:miter;stroke-width:1.5;" x="200.996711" xlink:href="#m911bcdc6d7" y="143.372409"/>
     <use style="fill-opacity:0;stroke:#008000;stroke-linejoin:miter;stroke-width:1.5;" x="302.644511" xlink:href="#m911bcdc6d7" y="37.998618"/>
     <use style="fill-opacity:0;stroke:#008000;stroke-linejoin:miter;stroke-width:1.5;" x="324.649014" xlink:href="#m911bcdc6d7" y="27.513663"/>
     <use style="fill-opacity:0;stroke:#008000;stroke-linejoin:miter;stroke-width:1.5;" x="333.429677" xlink:href="#m911bcdc6d7" y="27.513663"/>
    </g>
   </g>
   <g id="line2d_31">
    <path style="fill:none;stroke:#008000;stroke-linecap:square;stroke-width:1.5;"/>
    <g/>
   </g>
   <g id="line2d_32">
    <path clip-path="url(#pabf68c6041)" d="M 274.912549 143.372409 
" style="fill:none;stroke:#008000;stroke-linecap:square;stroke-width:1.5;"/>
    <defs>
     <path d="M -12 12 
L 12 -12 
M -12 -12 
L 12 12 
" id="ma5129ecdc2" style="stroke:#008000;stroke-width:3;"/>
    </defs>
    <g clip-path="url(#pabf68c6041)">
     <use style="fill:#008000;stroke:#008000;stroke-width:3;" x="274.912549" xlink:href="#ma5129ecdc2" y="143.372409"/>
    </g>
   </g>
   <g id="line2d_33">
    <defs>
     <path d="M 0 1.5 
C 0.397805 1.5 0.77937 1.341951 1.06066 1.06066 
C 1.341951 0.77937 1.5 0.397805 1.5 0 
C 1.5 -0.397805 1.341951 -0.77937 1.06066 -1.06066 
C 0.77937 -1.341951 0.397805 -1.5 0 -1.5 
C -0.397805 -1.5 -0.77937 -1.341951 -1.06066 -1.06066 
C -1.341951 -0.77937 -1.5 -0.397805 -1.5 0 
C -1.5 0.397805 -1.341951 0.77937 -1.06066 1.06066 
C -0.77937 1.341951 -0.397805 1.5 0 1.5 
z
" id="m31aa7998a7" style="stroke:#0000ff;"/>
    </defs>
    <g>
     <use style="fill:#0000ff;stroke:#0000ff;" x="331.620754" xlink:href="#m31aa7998a7" y="27.513663"/>
     <use style="fill:#0000ff;stroke:#0000ff;" x="331.620754" xlink:href="#m31aa7998a7" y="27.513663"/>
    </g>
   </g>
   <g id="line2d_34">
    <path d="M 40.355341 294.88 
L 40.355341 292.258761 
L 52.280845 292.258761 
L 52.280845 289.637523 
L 59.256818 289.637523 
L 59.256818 288.589027 
L 64.20635 288.589027 
L 64.20635 288.06478 
L 68.045504 288.06478 
L 68.045504 283.870798 
L 71.182322 283.870798 
L 71.182322 283.34655 
L 73.834464 283.34655 
L 73.834464 282.822302 
L 90.0838 282.822302 
L 90.0838 282.298055 
L 94.301099 282.298055 
L 94.301099 281.249559 
L 102.4807 281.249559 
L 102.4807 280.201064 
L 102.939523 280.201064 
L 102.939523 279.676816 
L 106.958836 279.676816 
L 106.958836 279.152568 
L 111.908367 279.152568 
L 111.908367 278.628321 
L 114.406204 278.628321 
L 114.406204 277.579825 
L 115.311933 277.579825 
L 115.311933 277.055578 
L 116.58695 277.055578 
L 116.58695 276.53133 
L 119.757871 276.53133 
L 119.757871 274.958587 
L 120.426105 274.958587 
L 120.426105 274.434339 
L 120.910781 274.434339 
L 120.910781 272.861596 
L 121.689415 272.861596 
L 121.689415 272.337348 
L 121.991263 272.337348 
L 121.991263 271.288853 
L 123.562923 271.288853 
L 123.562923 270.764605 
L 124.363294 270.764605 
L 124.363294 270.240357 
L 125.375637 270.240357 
L 125.375637 269.716109 
L 128.917294 269.716109 
L 128.917294 269.191862 
L 130.447623 269.191862 
L 130.447623 268.143366 
L 132.35161 268.143366 
L 132.35161 267.619119 
L 132.836286 267.619119 
L 132.836286 267.094871 
L 132.994857 267.094871 
L 133.073598 266.046375 
L 135.003752 266.046375 
L 135.003752 265.522128 
L 136.547523 265.522128 
L 136.547523 264.99788 
L 139.97083 264.99788 
L 139.97083 263.425137 
L 140.89274 263.425137 
L 140.89274 262.376641 
L 141.577115 262.376641 
L 141.577115 260.803898 
L 143.002096 260.803898 
L 143.002096 260.279651 
L 146.138914 260.279651 
L 146.138914 259.755403 
L 146.321752 259.755403 
L 146.321752 259.231155 
L 148.246857 259.231155 
L 148.246857 256.609917 
L 153.065801 256.609917 
L 153.163834 255.037173 
L 153.526565 255.037173 
L 153.526565 254.512926 
L 156.627452 254.512926 
L 156.627452 253.988678 
L 157.879617 253.988678 
L 157.879617 252.940182 
L 158.784393 252.940182 
L 158.889837 251.367439 
L 159.0468 251.367439 
L 159.0468 250.843192 
L 163.027731 250.843192 
L 163.027731 250.318944 
L 163.287483 250.318944 
L 163.287483 249.270448 
L 164.301765 249.270448 
L 164.301765 247.697705 
L 164.805973 247.697705 
L 164.805973 246.124962 
L 168.482875 246.124962 
L 168.482875 245.600714 
L 168.908932 245.600714 
L 169.00652 244.027971 
L 169.777229 244.027971 
L 169.777229 243.503724 
L 170.398609 243.503724 
L 170.398609 241.93098 
L 172.459917 241.93098 
L 172.539349 239.83399 
L 173.000675 239.83399 
L 173.000675 239.309742 
L 173.146643 239.309742 
L 173.146643 238.785494 
L 174.59834 238.785494 
L 174.59834 237.736999 
L 175.68805 237.736999 
L 175.68805 237.212751 
L 176.246446 237.212751 
L 176.246446 236.688503 
L 177.166911 236.688503 
L 177.166911 235.11576 
L 177.977189 235.11576 
L 177.977189 234.591512 
L 178.410756 234.591512 
L 178.410756 231.970274 
L 178.98689 231.970274 
L 179.068417 229.873283 
L 180.348082 229.873283 
L 180.348082 227.252044 
L 180.493441 227.252044 
L 180.493441 225.155053 
L 181.019384 225.155053 
L 181.019384 224.630806 
L 181.753835 224.630806 
L 181.753835 224.106558 
L 182.01166 224.106558 
L 182.01166 223.058063 
L 182.489353 223.058063 
L 182.489353 222.533815 
L 182.788959 222.533815 
L 182.788959 220.436824 
L 183.0146 220.436824 
L 183.0146 218.864081 
L 185.517679 218.864081 
L 185.517679 218.339833 
L 186.587007 218.339833 
L 186.667379 211.000365 
L 187.25007 211.000365 
L 187.25007 209.95187 
L 190.057978 209.95187 
L 190.057978 209.427622 
L 190.637814 209.427622 
L 190.637814 208.903374 
L 192.086328 208.903374 
L 192.086328 207.330631 
L 194.644436 207.330631 
L 194.683861 197.369924 
L 266.201248 197.369924 
L 266.308236 182.690988 
L 266.329432 182.690988 
L 266.403767 164.342318 
L 278.108073 164.342318 
L 278.189889 140.226923 
L 285.060299 140.226923 
L 285.115304 125.547987 
L 290.001097 125.547987 
L 290.042388 109.296308 
L 293.845551 109.296308 
L 293.870373 97.23861 
L 296.979123 97.23861 
L 296.997813 90.42339 
L 299.627228 90.42339 
L 299.643252 83.083922 
L 301.917018 83.083922 
L 301.93409 76.268701 
L 303.945675 76.268701 
L 303.958144 68.929233 
L 305.752846 68.929233 
L 305.766569 62.638261 
L 307.39476 62.638261 
L 307.404965 56.871536 
L 308.890494 56.871536 
L 308.898832 53.201802 
L 310.26653 53.201802 
L 310.274228 49.00782 
L 311.540616 49.00782 
L 311.545412 47.435077 
L 312.724537 47.435077 
L 312.734306 44.28959 
L 313.83649 44.28959 
L 313.842784 41.144104 
L 314.878905 41.144104 
L 314.884793 40.095609 
L 315.858153 40.095609 
L 315.867314 37.998618 
L 316.796745 37.998618 
L 316.796745 36.950122 
L 317.678529 36.950122 
L 317.678529 36.425875 
L 318.513123 36.425875 
L 318.515746 35.377379 
L 320.077002 35.377379 
L 320.077002 33.804636 
L 320.808927 33.804636 
L 320.813124 32.756141 
L 321.510981 32.756141 
L 321.510981 31.183397 
L 322.185972 31.183397 
L 322.189358 30.134902 
L 322.834583 30.134902 
L 322.834583 29.610654 
L 326.288986 29.610654 
L 326.288986 29.086407 
L 327.782878 29.086407 
L 327.782878 28.562159 
L 330.019514 28.562159 
L 330.019514 28.037911 
L 331.620754 28.037911 
L 331.620754 27.513663 
L 333.429677 27.513663 
L 333.429677 27.513663 
" style="fill:none;stroke:#0000ff;stroke-linecap:square;stroke-width:1.5;"/>
   </g>
   <g id="line2d_35">
    <defs>
     <path d="M 0 -6 
L -1.347084 -1.854102 
L -5.706339 -1.854102 
L -2.179628 0.708204 
L -3.526712 4.854102 
L -0 2.291796 
L 3.526712 4.854102 
L 2.179628 0.708204 
L 5.706339 -1.854102 
L 1.347084 -1.854102 
z
" id="m8107a818bb" style="stroke:#0000ff;stroke-linejoin:bevel;stroke-width:1.5;"/>
    </defs>
    <g>
     <use style="fill-opacity:0;stroke:#0000ff;stroke-linejoin:bevel;stroke-width:1.5;" x="136.547523" xlink:href="#m8107a818bb" y="265.522128"/>
     <use style="fill-opacity:0;stroke:#0000ff;stroke-linejoin:bevel;stroke-width:1.5;" x="194.683861" xlink:href="#m8107a818bb" y="198.41842"/>
     <use style="fill-opacity:0;stroke:#0000ff;stroke-linejoin:bevel;stroke-width:1.5;" x="266.403767" xlink:href="#m8107a818bb" y="164.866566"/>
     <use style="fill-opacity:0;stroke:#0000ff;stroke-linejoin:bevel;stroke-width:1.5;" x="316.796745" xlink:href="#m8107a818bb" y="37.998618"/>
     <use style="fill-opacity:0;stroke:#0000ff;stroke-linejoin:bevel;stroke-width:1.5;" x="331.620754" xlink:href="#m8107a818bb" y="27.513663"/>
     <use style="fill-opacity:0;stroke:#0000ff;stroke-linejoin:bevel;stroke-width:1.5;" x="333.429677" xlink:href="#m8107a818bb" y="27.513663"/>
    </g>
   </g>
   <g id="line2d_36">
    <path style="fill:none;stroke:#0000ff;stroke-linecap:square;stroke-width:1.5;"/>
    <g/>
   </g>
   <g id="line2d_37">
    <path clip-path="url(#pabf68c6041)" d="M 266.123863 197.369924 
" style="fill:none;stroke:#0000ff;stroke-linecap:square;stroke-width:1.5;"/>
    <defs>
     <path d="M -12 12 
L 12 -12 
M -12 -12 
L 12 12 
" id="m8fa4c60e89" style="stroke:#0000ff;stroke-width:3;"/>
    </defs>
    <g clip-path="url(#pabf68c6041)">
     <use style="fill:#0000ff;stroke:#0000ff;stroke-width:3;" x="266.123863" xlink:href="#m8fa4c60e89" y="197.369924"/>
    </g>
   </g>
   <g id="line2d_38">
    <defs>
     <path d="M 0 1.5 
C 0.397805 1.5 0.77937 1.341951 1.06066 1.06066 
C 1.341951 0.77937 1.5 0.397805 1.5 0 
C 1.5 -0.397805 1.341951 -0.77937 1.06066 -1.06066 
C 0.77937 -1.341951 0.397805 -1.5 0 -1.5 
C -0.397805 -1.5 -0.77937 -1.341951 -1.06066 -1.06066 
C -1.341951 -0.77937 -1.5 -0.397805 -1.5 0 
C -1.5 0.397805 -1.341951 0.77937 -1.06066 1.06066 
C -0.77937 1.341951 -0.397805 1.5 0 1.5 
z
" id="mdbeacb6b03" style="stroke:#000000;"/>
    </defs>
    <g>
     <use style="stroke:#000000;" x="315.381332" xlink:href="#mdbeacb6b03" y="184.787979"/>
     <use style="stroke:#000000;" x="315.381332" xlink:href="#mdbeacb6b03" y="184.787979"/>
    </g>
   </g>
   <g id="line2d_39">
    <path d="M 79.971009 294.88 
L 79.971009 293.831505 
L 83.107827 293.831505 
L 83.107827 293.307257 
L 84.484951 293.307257 
L 84.484951 292.783009 
L 87.511126 292.783009 
L 87.511126 292.258761 
L 105.265187 292.258761 
L 105.265187 291.210266 
L 106.778678 291.210266 
L 106.778678 290.161771 
L 108.33596 290.161771 
L 108.33596 289.637523 
L 109.915496 289.637523 
L 109.915496 289.113275 
L 111.908367 289.113275 
L 111.908367 288.589027 
L 112.824432 288.589027 
L 112.824432 288.06478 
L 115.531106 288.06478 
L 115.531106 287.540532 
L 123.562923 287.540532 
L 123.562923 285.967789 
L 129.889579 285.967789 
L 129.889579 285.443541 
L 131.252153 285.443541 
L 131.252153 284.395046 
L 131.640736 284.395046 
L 131.640736 283.870798 
L 132.595654 283.870798 
L 132.595654 283.34655 
L 134.862727 283.34655 
L 134.862727 282.822302 
L 135.624435 282.822302 
L 135.624435 282.298055 
L 137.331837 282.298055 
L 137.331837 281.773807 
L 138.052565 281.773807 
L 138.052565 281.249559 
L 142.003116 281.249559 
L 142.003116 280.201064 
L 142.281368 280.201064 
L 142.281368 279.676816 
L 142.555192 279.676816 
L 142.555192 279.152568 
L 142.86924 279.152568 
L 142.86924 278.628321 
L 145.82356 278.628321 
L 145.82356 277.579825 
L 146.046762 277.579825 
L 146.046762 277.055578 
L 147.086539 277.055578 
L 147.086539 276.53133 
L 148.181687 276.53133 
L 148.181687 276.007082 
L 151.524035 276.007082 
L 151.524035 275.482834 
L 152.157415 275.482834 
L 152.157415 274.434339 
L 153.705102 274.434339 
L 153.705102 273.910091 
L 154.137731 273.910091 
L 154.137731 273.385844 
L 154.683241 273.385844 
L 154.783626 271.8131 
L 155.298551 271.8131 
L 155.298551 271.288853 
L 156.707196 271.288853 
L 156.707196 270.764605 
L 158.201729 270.764605 
L 158.201729 270.240357 
L 158.784393 270.240357 
L 158.784393 269.716109 
L 158.924841 269.716109 
L 158.924841 269.191862 
L 159.072822 269.191862 
L 159.072822 268.667614 
L 159.458502 268.667614 
L 159.458502 268.143366 
L 159.976106 268.143366 
L 159.976106 266.570623 
L 160.645515 266.570623 
L 160.645515 264.99788 
L 160.857778 264.99788 
L 160.857778 264.473632 
L 162.34633 264.473632 
L 162.34633 263.949385 
L 163.171763 263.949385 
L 163.171763 263.425137 
L 163.643343 263.425137 
L 163.643343 262.376641 
L 164.429209 262.376641 
L 164.429209 261.852394 
L 165.505825 261.852394 
L 165.505825 261.328146 
L 165.754489 261.328146 
L 165.754489 260.803898 
L 166.383548 260.803898 
L 166.383548 259.755403 
L 167.454565 259.755403 
L 167.502423 256.085669 
L 168.908932 256.085669 
L 168.908932 255.561421 
L 170.317645 255.561421 
L 170.317645 255.037173 
L 171.451675 255.037173 
L 171.556879 253.46443 
L 171.590408 253.46443 
L 171.590408 252.940182 
L 172.0938 252.940182 
L 172.0938 252.415935 
L 173.18485 252.415935 
L 173.188666 250.318944 
L 173.393489 250.318944 
L 173.393489 249.794696 
L 173.971858 249.794696 
L 173.971858 249.270448 
L 175.155225 249.270448 
L 175.155225 247.697705 
L 175.6451 247.697705 
L 175.6451 245.600714 
L 176.824393 245.600714 
L 176.824393 245.076467 
L 177.200187 245.076467 
L 177.200187 244.027971 
L 177.881598 244.027971 
L 177.881598 243.503724 
L 178.175361 243.503724 
L 178.175361 242.979476 
L 180.254707 242.979476 
L 180.254707 242.455228 
L 181.489733 242.455228 
L 181.489733 241.93098 
L 181.674796 241.93098 
L 181.674796 240.882485 
L 182.326357 240.882485 
L 182.326357 240.358237 
L 182.553679 240.358237 
L 182.617765 239.309742 
L 182.736465 239.309742 
L 182.736465 238.785494 
L 182.85 238.785494 
L 182.85 238.261246 
L 183.337033 238.261246 
L 183.337033 237.736999 
L 183.674292 237.736999 
L 183.674292 237.212751 
L 184.474757 237.212751 
L 184.474757 236.688503 
L 184.951236 236.688503 
L 184.951236 236.164255 
L 186.532631 236.164255 
L 186.532631 235.11576 
L 189.791119 235.11576 
L 189.791119 233.543017 
L 193.197181 233.543017 
L 193.197181 233.018769 
L 254.376399 233.018769 
L 254.481411 228.824787 
L 254.509989 228.824787 
L 254.539296 226.203549 
L 254.671029 226.203549 
L 254.671029 225.679301 
L 266.234324 225.679301 
L 266.305121 217.291338 
L 266.361821 217.291338 
L 266.370287 215.718594 
L 273.18092 215.718594 
L 273.210416 213.621604 
L 278.104686 213.621604 
L 278.1671 209.427622 
L 281.932792 209.427622 
L 281.987516 206.282136 
L 285.076494 206.282136 
L 285.107874 202.088154 
L 287.712279 202.088154 
L 287.745806 199.466915 
L 290.019855 199.466915 
L 290.036809 197.369924 
L 292.041457 197.369924 
L 292.041457 196.845677 
L 293.838392 196.845677 
L 293.86262 193.175943 
L 295.478183 193.175943 
L 295.478183 192.651695 
L 296.974783 192.651695 
L 296.974783 192.127447 
L 298.348581 192.127447 
L 298.355664 191.078952 
L 299.637182 191.078952 
L 299.638406 190.030456 
L 300.814005 190.030456 
L 300.814097 188.981961 
L 301.921884 188.981961 
L 301.921884 188.457713 
L 302.961486 188.457713 
L 302.967353 187.409218 
L 307.392297 187.409218 
L 307.392297 186.88497 
L 312.724439 186.88497 
L 312.724439 186.360722 
L 313.836156 186.360722 
L 313.836156 185.312227 
L 315.381332 185.312227 
L 315.381332 184.787979 
L 333.429677 184.787979 
L 333.429677 184.787979 
" style="fill:none;stroke:#000000;stroke-linecap:square;stroke-width:1.5;"/>
   </g>
   <g id="line2d_40">
    <defs>
     <path d="M 0 6 
C 1.591219 6 3.117479 5.367802 4.242641 4.242641 
C 5.367802 3.117479 6 1.591219 6 0 
C 6 -1.591219 5.367802 -3.117479 4.242641 -4.242641 
C 3.117479 -5.367802 1.591219 -6 0 -6 
C -1.591219 -6 -3.117479 -5.367802 -4.242641 -4.242641 
C -5.367802 -3.117479 -6 -1.591219 -6 0 
C -6 1.591219 -5.367802 3.117479 -4.242641 4.242641 
C -3.117479 5.367802 -1.591219 6 0 6 
z
" id="m7f85c61dfb" style="stroke:#000000;stroke-width:1.5;"/>
    </defs>
    <g>
     <use style="fill-opacity:0;stroke:#000000;stroke-width:1.5;" x="193.197181" xlink:href="#m7f85c61dfb" y="233.543017"/>
     <use style="fill-opacity:0;stroke:#000000;stroke-width:1.5;" x="254.671029" xlink:href="#m7f85c61dfb" y="226.203549"/>
     <use style="fill-opacity:0;stroke:#000000;stroke-width:1.5;" x="315.381332" xlink:href="#m7f85c61dfb" y="184.787979"/>
     <use style="fill-opacity:0;stroke:#000000;stroke-width:1.5;" x="315.381332" xlink:href="#m7f85c61dfb" y="184.787979"/>
     <use style="fill-opacity:0;stroke:#000000;stroke-width:1.5;" x="333.429677" xlink:href="#m7f85c61dfb" y="184.787979"/>
    </g>
   </g>
   <g id="line2d_41">
    <path style="fill:none;stroke:#000000;stroke-linecap:square;stroke-width:1.5;"/>
    <g/>
   </g>
   <g id="line2d_42">
    <path clip-path="url(#pabf68c6041)" d="M 254.198358 233.018769 
" style="fill:none;stroke:#000000;stroke-linecap:square;stroke-width:1.5;"/>
    <defs>
     <path d="M -12 12 
L 12 -12 
M -12 -12 
L 12 12 
" id="m281f46fd3f" style="stroke:#000000;stroke-width:3;"/>
    </defs>
    <g clip-path="url(#pabf68c6041)">
     <use style="stroke:#000000;stroke-width:3;" x="254.198358" xlink:href="#m281f46fd3f" y="233.018769"/>
    </g>
   </g>
   <g id="line2d_43">
    <defs>
     <path d="M 0 1.5 
C 0.397805 1.5 0.77937 1.341951 1.06066 1.06066 
C 1.341951 0.77937 1.5 0.397805 1.5 0 
C 1.5 -0.397805 1.341951 -0.77937 1.06066 -1.06066 
C 0.77937 -1.341951 0.397805 -1.5 0 -1.5 
C -0.397805 -1.5 -0.77937 -1.341951 -1.06066 -1.06066 
C -1.341951 -0.77937 -1.5 -0.397805 -1.5 0 
C -1.5 0.397805 -1.341951 0.77937 -1.06066 1.06066 
C -0.77937 1.341951 -0.397805 1.5 0 1.5 
z
" id="mba9b2717ea" style="stroke:#ff0000;"/>
    </defs>
    <g>
     <use style="fill:#ff0000;stroke:#ff0000;" x="280.122759" xlink:href="#mba9b2717ea" y="242.455228"/>
     <use style="fill:#ff0000;stroke:#ff0000;" x="280.122759" xlink:href="#mba9b2717ea" y="242.455228"/>
    </g>
   </g>
   <g id="line2d_44">
    <path d="M 132.876066 294.88 
L 132.876066 294.355752 
L 140.049571 294.355752 
L 140.049571 293.307257 
L 144.236101 293.307257 
L 144.236101 292.783009 
L 147.294037 292.783009 
L 147.294037 292.258761 
L 147.935077 292.258761 
L 147.935077 291.734514 
L 148.838258 291.734514 
L 148.838258 291.210266 
L 149.072341 291.210266 
L 149.072341 290.686018 
L 149.793268 290.686018 
L 149.793268 290.161771 
L 150.577754 290.161771 
L 150.577754 289.637523 
L 151.019378 289.637523 
L 151.019378 289.113275 
L 151.157238 289.113275 
L 151.157238 288.589027 
L 151.577717 288.589027 
L 151.577717 288.06478 
L 152.007778 288.06478 
L 152.007778 287.016284 
L 152.611294 287.016284 
L 152.611294 286.492036 
L 153.69918 286.492036 
L 153.69918 285.443541 
L 154.287189 285.443541 
L 154.287189 284.919293 
L 155.114076 284.919293 
L 155.114076 283.870798 
L 156.146201 283.870798 
L 156.182124 282.298055 
L 156.88036 282.298055 
L 156.88036 281.773807 
L 157.129604 281.773807 
L 157.129604 280.725312 
L 158.500008 280.725312 
L 158.500008 280.201064 
L 158.788799 280.201064 
L 158.788799 279.676816 
L 159.228133 279.676816 
L 159.228133 278.628321 
L 159.407575 278.628321 
L 159.407575 277.579825 
L 159.593575 277.579825 
L 159.593575 277.055578 
L 160.208911 277.055578 
L 160.253478 274.958587 
L 160.52645 274.958587 
L 160.52645 274.434339 
L 162.378546 274.434339 
L 162.378546 273.910091 
L 162.620022 273.910091 
L 162.620022 273.385844 
L 162.969088 273.385844 
L 163.058696 272.337348 
L 163.351813 272.337348 
L 163.456259 271.288853 
L 163.732822 271.288853 
L 163.732822 270.764605 
L 164.092633 270.764605 
L 164.092633 269.716109 
L 164.438729 269.716109 
L 164.438729 268.667614 
L 164.665651 268.667614 
L 164.665651 268.143366 
L 165.238379 268.143366 
L 165.238379 267.619119 
L 166.516208 267.619119 
L 166.516208 267.094871 
L 167.718772 267.094871 
L 167.718772 266.570623 
L 167.883164 266.570623 
L 167.883164 266.046375 
L 168.148593 266.046375 
L 168.148593 265.522128 
L 168.482875 265.522128 
L 168.482875 264.473632 
L 168.911378 264.473632 
L 168.911378 262.900889 
L 170.376157 262.900889 
L 170.376157 262.376641 
L 170.534935 262.376641 
L 170.639241 260.803898 
L 171.613422 260.803898 
L 171.613422 260.279651 
L 172.073456 260.279651 
L 172.073456 259.755403 
L 172.199202 259.755403 
L 172.199202 259.231155 
L 172.40809 259.231155 
L 172.40809 258.706907 
L 172.519526 258.706907 
L 172.519526 258.18266 
L 172.812557 258.18266 
L 172.812557 257.658412 
L 174.474855 257.658412 
L 174.474855 257.134164 
L 175.873483 257.134164 
L 175.938647 255.561421 
L 177.729884 255.561421 
L 177.729884 255.037173 
L 178.524459 255.037173 
L 178.524459 254.512926 
L 178.79239 254.512926 
L 178.79239 253.988678 
L 179.469031 253.988678 
L 179.469031 252.415935 
L 182.103948 252.415935 
L 182.103948 251.367439 
L 185.849901 251.367439 
L 185.849901 250.843192 
L 242.602655 250.843192 
L 242.672221 248.746201 
L 242.908687 248.746201 
L 242.908687 247.697705 
L 254.364748 247.697705 
L 254.364748 247.173458 
L 254.519212 247.173458 
L 254.519212 246.64921 
L 261.308486 246.64921 
L 261.319727 245.600714 
L 266.206908 245.600714 
L 266.233024 244.027971 
L 273.171316 244.027971 
L 273.207453 242.979476 
L 280.122759 242.979476 
L 280.122759 242.455228 
L 333.429677 242.455228 
L 333.429677 242.455228 
" style="fill:none;stroke:#ff0000;stroke-linecap:square;stroke-width:1.5;"/>
   </g>
   <g id="line2d_45">
    <defs>
     <path d="M -6 6 
L 6 6 
L 6 -6 
L -6 -6 
z
" id="md3166db684" style="stroke:#ff0000;stroke-linejoin:miter;stroke-width:1.5;"/>
    </defs>
    <g>
     <use style="fill-opacity:0;stroke:#ff0000;stroke-linejoin:miter;stroke-width:1.5;" x="185.849901" xlink:href="#md3166db684" y="251.367439"/>
     <use style="fill-opacity:0;stroke:#ff0000;stroke-linejoin:miter;stroke-width:1.5;" x="266.233024" xlink:href="#md3166db684" y="244.552219"/>
     <use style="fill-opacity:0;stroke:#ff0000;stroke-linejoin:miter;stroke-width:1.5;" x="280.122759" xlink:href="#md3166db684" y="242.455228"/>
     <use style="fill-opacity:0;stroke:#ff0000;stroke-linejoin:miter;stroke-width:1.5;" x="280.122759" xlink:href="#md3166db684" y="242.455228"/>
     <use style="fill-opacity:0;stroke:#ff0000;stroke-linejoin:miter;stroke-width:1.5;" x="333.429677" xlink:href="#md3166db684" y="242.455228"/>
    </g>
   </g>
   <g id="line2d_46">
    <path style="fill:none;stroke:#ff0000;stroke-linecap:square;stroke-width:1.5;"/>
    <g/>
   </g>
   <g id="line2d_47">
    <path clip-path="url(#pabf68c6041)" d="M 242.272854 250.843192 
" style="fill:none;stroke:#ff0000;stroke-linecap:square;stroke-width:1.5;"/>
    <defs>
     <path d="M -12 12 
L 12 -12 
M -12 -12 
L 12 12 
" id="mb522748713" style="stroke:#ff0000;stroke-width:3;"/>
    </defs>
    <g clip-path="url(#pabf68c6041)">
     <use style="fill:#ff0000;stroke:#ff0000;stroke-width:3;" x="242.272854" xlink:href="#mb522748713" y="250.843192"/>
    </g>
   </g>
   <g id="line2d_48">
    <defs>
     <path d="M 0 1.5 
C 0.397805 1.5 0.77937 1.341951 1.06066 1.06066 
C 1.341951 0.77937 1.5 0.397805 1.5 0 
C 1.5 -0.397805 1.341951 -0.77937 1.06066 -1.06066 
C 0.77937 -1.341951 0.397805 -1.5 0 -1.5 
C -0.397805 -1.5 -0.77937 -1.341951 -1.06066 -1.06066 
C -1.341951 -0.77937 -1.5 -0.397805 -1.5 0 
C -1.5 0.397805 -1.341951 0.77937 -1.06066 1.06066 
C -0.77937 1.341951 -0.397805 1.5 0 1.5 
z
" id="m79b131818c" style="stroke:#bf00bf;"/>
    </defs>
    <g>
     <use style="fill:#bf00bf;stroke:#bf00bf;" x="263.893706" xlink:href="#m79b131818c" y="258.18266"/>
     <use style="fill:#bf00bf;stroke:#bf00bf;" x="263.893706" xlink:href="#m79b131818c" y="258.18266"/>
    </g>
   </g>
   <g id="line2d_49">
    <path d="M 143.512793 294.88 
L 143.512793 294.355752 
L 145.497549 294.355752 
L 145.497549 293.831505 
L 148.128554 293.831505 
L 148.128554 292.258761 
L 148.283407 292.258761 
L 148.283407 291.734514 
L 148.412737 291.734514 
L 148.412737 291.210266 
L 148.513104 291.210266 
L 148.513104 290.686018 
L 149.617725 290.686018 
L 149.617725 290.161771 
L 149.860025 290.161771 
L 149.860025 289.113275 
L 150.062416 289.113275 
L 150.062416 288.589027 
L 150.577754 288.589027 
L 150.577754 287.540532 
L 152.456023 287.540532 
L 152.456023 286.492036 
L 152.50053 286.492036 
L 152.50053 285.967789 
L 152.793292 285.967789 
L 152.793292 285.443541 
L 153.206549 285.443541 
L 153.206549 284.919293 
L 153.672508 284.919293 
L 153.672508 284.395046 
L 154.036397 284.395046 
L 154.036397 283.34655 
L 154.330062 283.34655 
L 154.330062 282.298055 
L 154.494839 282.298055 
L 154.494839 281.249559 
L 154.7558 281.249559 
L 154.7558 280.725312 
L 155.130433 280.725312 
L 155.130433 280.201064 
L 156.380909 280.201064 
L 156.380909 279.676816 
L 157.032291 279.676816 
L 157.032291 279.152568 
L 158.19717 279.152568 
L 158.19717 278.628321 
L 158.401155 278.628321 
L 158.401155 278.104073 
L 159.04246 278.104073 
L 159.04246 277.055578 
L 159.986383 277.055578 
L 159.986383 276.53133 
L 160.44061 276.53133 
L 160.44061 275.482834 
L 160.761798 275.482834 
L 160.761798 274.958587 
L 160.959052 274.958587 
L 160.959052 274.434339 
L 160.997845 274.434339 
L 160.997845 273.910091 
L 161.003657 273.910091 
L 161.003657 272.861596 
L 161.205831 272.861596 
L 161.205831 272.337348 
L 161.48306 272.337348 
L 161.48306 271.8131 
L 161.501885 271.8131 
L 161.501885 271.288853 
L 162.173488 271.288853 
L 162.173488 270.764605 
L 162.512132 270.764605 
L 162.512132 270.240357 
L 164.715674 270.240357 
L 164.715674 269.716109 
L 166.174016 269.716109 
L 166.174016 268.667614 
L 167.008185 268.667614 
L 167.008185 268.143366 
L 169.030831 268.143366 
L 169.030831 267.619119 
L 230.686904 267.619119 
L 230.686904 267.094871 
L 230.722493 267.094871 
L 230.722493 266.570623 
L 230.775304 266.570623 
L 230.775304 266.046375 
L 230.812553 266.046375 
L 230.812553 265.522128 
L 242.42946 265.522128 
L 242.42946 264.99788 
L 242.443469 264.99788 
L 242.443469 264.473632 
L 242.461448 264.473632 
L 242.461448 263.949385 
L 242.500611 263.949385 
L 242.500611 262.900889 
L 242.500832 262.900889 
L 242.500832 262.376641 
L 242.514834 262.376641 
L 242.514834 261.852394 
L 249.401 261.852394 
L 249.401 260.279651 
L 249.401147 260.279651 
L 249.401147 259.755403 
L 254.312614 259.755403 
L 254.312614 259.231155 
L 258.113199 259.231155 
L 258.113199 258.706907 
L 263.893706 258.706907 
L 263.893706 258.18266 
L 333.429677 258.18266 
" style="fill:none;stroke:#bf00bf;stroke-linecap:square;stroke-width:1.5;"/>
   </g>
   <g id="line2d_50">
    <defs>
     <path d="M -0 8.485281 
L 8.485281 0 
L 0 -8.485281 
L -8.485281 -0 
z
" id="m37022392fb" style="stroke:#bf00bf;stroke-linejoin:miter;stroke-width:1.5;"/>
    </defs>
    <g>
     <use style="fill-opacity:0;stroke:#bf00bf;stroke-linejoin:miter;stroke-width:1.5;" x="164.715674" xlink:href="#m37022392fb" y="270.240357"/>
     <use style="fill-opacity:0;stroke:#bf00bf;stroke-linejoin:miter;stroke-width:1.5;" x="230.812553" xlink:href="#m37022392fb" y="266.046375"/>
     <use style="fill-opacity:0;stroke:#bf00bf;stroke-linejoin:miter;stroke-width:1.5;" x="263.893706" xlink:href="#m37022392fb" y="258.706907"/>
     <use style="fill-opacity:0;stroke:#bf00bf;stroke-linejoin:miter;stroke-width:1.5;" x="263.893706" xlink:href="#m37022392fb" y="258.18266"/>
     <use style="fill-opacity:0;stroke:#bf00bf;stroke-linejoin:miter;stroke-width:1.5;" x="333.429677" xlink:href="#m37022392fb" y="258.18266"/>
    </g>
   </g>
   <g id="line2d_51">
    <path style="fill:none;stroke:#bf00bf;stroke-linecap:square;stroke-width:1.5;"/>
    <g/>
   </g>
   <g id="line2d_52">
    <path clip-path="url(#pabf68c6041)" d="M 230.347349 267.619119 
" style="fill:none;stroke:#bf00bf;stroke-linecap:square;stroke-width:1.5;"/>
    <defs>
     <path d="M -12 12 
L 12 -12 
M -12 -12 
L 12 12 
" id="mb3b80cdbae" style="stroke:#bf00bf;stroke-width:3;"/>
    </defs>
    <g clip-path="url(#pabf68c6041)">
     <use style="fill:#bf00bf;stroke:#bf00bf;stroke-width:3;" x="230.347349" xlink:href="#mb3b80cdbae" y="267.619119"/>
    </g>
   </g>
   <g id="line2d_53">
    <path d="M 333.429677 258.18266 
L 363.933742 289.532673 
" style="fill:none;stroke:#bf00bf;stroke-linecap:square;stroke-width:1.5;"/>
    <g>
     <use style="fill-opacity:0;stroke:#bf00bf;stroke-linejoin:miter;stroke-width:1.5;" x="333.429677" xlink:href="#m37022392fb" y="258.18266"/>
     <use style="fill-opacity:0;stroke:#bf00bf;stroke-linejoin:miter;stroke-width:1.5;" x="363.933742" xlink:href="#m37022392fb" y="289.532673"/>
    </g>
   </g>
   <g id="line2d_54">
    <path d="M 333.429677 242.455228 
L 363.933742 238.198337 
" style="fill:none;stroke:#ff0000;stroke-linecap:square;stroke-width:1.5;"/>
    <g>
     <use style="fill-opacity:0;stroke:#ff0000;stroke-linejoin:miter;stroke-width:1.5;" x="333.429677" xlink:href="#md3166db684" y="242.455228"/>
     <use style="fill-opacity:0;stroke:#ff0000;stroke-linejoin:miter;stroke-width:1.5;" x="363.933742" xlink:href="#md3166db684" y="238.198337"/>
    </g>
   </g>
   <g id="line2d_55">
    <path d="M 333.429677 184.787979 
L 363.933742 186.864 
" style="fill:none;stroke:#000000;stroke-linecap:square;stroke-width:1.5;"/>
    <g>
     <use style="fill-opacity:0;stroke:#000000;stroke-width:1.5;" x="333.429677" xlink:href="#m7f85c61dfb" y="184.787979"/>
     <use style="fill-opacity:0;stroke:#000000;stroke-width:1.5;" x="363.933742" xlink:href="#m7f85c61dfb" y="186.864"/>
    </g>
   </g>
   <g id="line2d_56">
    <path d="M 333.429677 27.513663 
L 363.933742 135.529663 
" style="fill:none;stroke:#0000ff;stroke-linecap:square;stroke-width:1.5;"/>
    <g>
     <use style="fill-opacity:0;stroke:#0000ff;stroke-linejoin:bevel;stroke-width:1.5;" x="333.429677" xlink:href="#m8107a818bb" y="27.513663"/>
     <use style="fill-opacity:0;stroke:#0000ff;stroke-linejoin:bevel;stroke-width:1.5;" x="363.933742" xlink:href="#m8107a818bb" y="135.529663"/>
    </g>
   </g>
   <g id="line2d_57">
    <path d="M 333.429677 27.513663 
L 363.933742 84.195327 
" style="fill:none;stroke:#008000;stroke-linecap:square;stroke-width:1.5;"/>
    <g>
     <use style="fill-opacity:0;stroke:#008000;stroke-linejoin:miter;stroke-width:1.5;" x="333.429677" xlink:href="#m911bcdc6d7" y="27.513663"/>
     <use style="fill-opacity:0;stroke:#008000;stroke-linejoin:miter;stroke-width:1.5;" x="363.933742" xlink:href="#m911bcdc6d7" y="84.195327"/>
    </g>
   </g>
   <g id="line2d_58">
    <path d="M 333.429677 27.513663 
L 363.933742 32.86099 
" style="fill:none;stroke:#00bfbf;stroke-linecap:square;stroke-width:1.5;"/>
    <g>
     <use style="fill-opacity:0;stroke:#00bfbf;stroke-width:1.5;" x="333.429677" xlink:href="#m8aa55d5e31" y="27.513663"/>
     <use style="fill-opacity:0;stroke:#00bfbf;stroke-width:1.5;" x="363.933742" xlink:href="#m8aa55d5e31" y="32.86099"/>
    </g>
   </g>
   <g id="line2d_59">
    <path d="M 333.429677 294.88 
L 333.429677 27.513663 
" style="fill:none;stroke:#000000;stroke-linecap:square;stroke-width:1.5;"/>
   </g>
   <g id="patch_3">
    <path d="M 56.12 294.88 
L 56.12 24.84 
" style="fill:none;stroke:#000000;stroke-linecap:square;stroke-linejoin:miter;stroke-width:0.8;"/>
   </g>
   <g id="patch_4">
    <path d="M 399.984 294.88 
L 399.984 24.84 
" style="fill:none;stroke:#000000;stroke-linecap:square;stroke-linejoin:miter;stroke-width:0.8;"/>
   </g>
   <g id="patch_5">
    <path d="M 56.12 294.88 
L 399.984 294.88 
" style="fill:none;stroke:#000000;stroke-linecap:square;stroke-linejoin:miter;stroke-width:0.8;"/>
   </g>
   <g id="patch_6">
    <path d="M 56.12 24.84 
L 399.984 24.84 
" style="fill:none;stroke:#000000;stroke-linecap:square;stroke-linejoin:miter;stroke-width:0.8;"/>
   </g>
   <g id="text_14">
    <!-- 40-D -->
    <defs>
     <path d="M 19.671875 64.796875 
L 19.671875 8.109375 
L 31.59375 8.109375 
Q 46.6875 8.109375 53.6875 14.9375 
Q 60.6875 21.78125 60.6875 36.53125 
Q 60.6875 51.171875 53.6875 57.984375 
Q 46.6875 64.796875 31.59375 64.796875 
z
M 9.8125 72.90625 
L 30.078125 72.90625 
Q 51.265625 72.90625 61.171875 64.09375 
Q 71.09375 55.28125 71.09375 36.53125 
Q 71.09375 17.671875 61.125 8.828125 
Q 51.171875 0 30.078125 0 
L 9.8125 0 
z
" id="DejaVuSans-44"/>
    </defs>
    <g transform="translate(369.479935 294.223611)scale(0.17 -0.17)">
     <use xlink:href="#DejaVuSans-34"/>
     <use x="63.623047" xlink:href="#DejaVuSans-30"/>
     <use x="127.246094" xlink:href="#DejaVuSans-2d"/>
     <use x="163.330078" xlink:href="#DejaVuSans-44"/>
    </g>
   </g>
   <g id="text_15">
    <!-- 20-D -->
    <g transform="translate(369.479935 242.889274)scale(0.17 -0.17)">
     <use xlink:href="#DejaVuSans-32"/>
     <use x="63.623047" xlink:href="#DejaVuSans-30"/>
     <use x="127.246094" xlink:href="#DejaVuSans-2d"/>
     <use x="163.330078" xlink:href="#DejaVuSans-44"/>
    </g>
   </g>
   <g id="text_16">
    <!-- 10-D -->
    <g transform="translate(369.479935 191.554937)scale(0.17 -0.17)">
     <use xlink:href="#DejaVuSans-31"/>
     <use x="63.623047" xlink:href="#DejaVuSans-30"/>
     <use x="127.246094" xlink:href="#DejaVuSans-2d"/>
     <use x="163.330078" xlink:href="#DejaVuSans-44"/>
    </g>
   </g>
   <g id="text_17">
    <!-- 5-D -->
    <defs>
     <path d="M 10.796875 72.90625 
L 49.515625 72.90625 
L 49.515625 64.59375 
L 19.828125 64.59375 
L 19.828125 46.734375 
Q 21.96875 47.46875 24.109375 47.828125 
Q 26.265625 48.1875 28.421875 48.1875 
Q 40.625 48.1875 47.75 41.5 
Q 54.890625 34.8125 54.890625 23.390625 
Q 54.890625 11.625 47.5625 5.09375 
Q 40.234375 -1.421875 26.90625 -1.421875 
Q 22.3125 -1.421875 17.546875 -0.640625 
Q 12.796875 0.140625 7.71875 1.703125 
L 7.71875 11.625 
Q 12.109375 9.234375 16.796875 8.0625 
Q 21.484375 6.890625 26.703125 6.890625 
Q 35.15625 6.890625 40.078125 11.328125 
Q 45.015625 15.765625 45.015625 23.390625 
Q 45.015625 31 40.078125 35.4375 
Q 35.15625 39.890625 26.703125 39.890625 
Q 22.75 39.890625 18.8125 39.015625 
Q 14.890625 38.140625 10.796875 36.28125 
z
" id="DejaVuSans-35"/>
    </defs>
    <g transform="translate(369.479935 140.220601)scale(0.17 -0.17)">
     <use xlink:href="#DejaVuSans-35"/>
     <use x="63.623047" xlink:href="#DejaVuSans-2d"/>
     <use x="99.707031" xlink:href="#DejaVuSans-44"/>
    </g>
   </g>
   <g id="text_18">
    <!-- 3-D -->
    <defs>
     <path d="M 40.578125 39.3125 
Q 47.65625 37.796875 51.625 33 
Q 55.609375 28.21875 55.609375 21.1875 
Q 55.609375 10.40625 48.1875 4.484375 
Q 40.765625 -1.421875 27.09375 -1.421875 
Q 22.515625 -1.421875 17.65625 -0.515625 
Q 12.796875 0.390625 7.625 2.203125 
L 7.625 11.71875 
Q 11.71875 9.328125 16.59375 8.109375 
Q 21.484375 6.890625 26.8125 6.890625 
Q 36.078125 6.890625 40.9375 10.546875 
Q 45.796875 14.203125 45.796875 21.1875 
Q 45.796875 27.640625 41.28125 31.265625 
Q 36.765625 34.90625 28.71875 34.90625 
L 20.21875 34.90625 
L 20.21875 43.015625 
L 29.109375 43.015625 
Q 36.375 43.015625 40.234375 45.921875 
Q 44.09375 48.828125 44.09375 54.296875 
Q 44.09375 59.90625 40.109375 62.90625 
Q 36.140625 65.921875 28.71875 65.921875 
Q 24.65625 65.921875 20.015625 65.03125 
Q 15.375 64.15625 9.8125 62.3125 
L 9.8125 71.09375 
Q 15.4375 72.65625 20.34375 73.4375 
Q 25.25 74.21875 29.59375 74.21875 
Q 40.828125 74.21875 47.359375 69.109375 
Q 53.90625 64.015625 53.90625 55.328125 
Q 53.90625 49.265625 50.4375 45.09375 
Q 46.96875 40.921875 40.578125 39.3125 
z
" id="DejaVuSans-33"/>
    </defs>
    <g transform="translate(369.479935 88.886264)scale(0.17 -0.17)">
     <use xlink:href="#DejaVuSans-33"/>
     <use x="63.623047" xlink:href="#DejaVuSans-2d"/>
     <use x="99.707031" xlink:href="#DejaVuSans-44"/>
    </g>
   </g>
   <g id="text_19">
    <!-- 2-D -->
    <g transform="translate(369.479935 37.551928)scale(0.17 -0.17)">
     <use xlink:href="#DejaVuSans-32"/>
     <use x="63.623047" xlink:href="#DejaVuSans-2d"/>
     <use x="99.707031" xlink:href="#DejaVuSans-44"/>
    </g>
   </g>
   <g id="text_20">
    <!-- bbob f7 -->
    <defs>
     <path d="M 48.6875 27.296875 
Q 48.6875 37.203125 44.609375 42.84375 
Q 40.53125 48.484375 33.40625 48.484375 
Q 26.265625 48.484375 22.1875 42.84375 
Q 18.109375 37.203125 18.109375 27.296875 
Q 18.109375 17.390625 22.1875 11.75 
Q 26.265625 6.109375 33.40625 6.109375 
Q 40.53125 6.109375 44.609375 11.75 
Q 48.6875 17.390625 48.6875 27.296875 
z
M 18.109375 46.390625 
Q 20.953125 51.265625 25.265625 53.625 
Q 29.59375 56 35.59375 56 
Q 45.5625 56 51.78125 48.09375 
Q 58.015625 40.1875 58.015625 27.296875 
Q 58.015625 14.40625 51.78125 6.484375 
Q 45.5625 -1.421875 35.59375 -1.421875 
Q 29.59375 -1.421875 25.265625 0.953125 
Q 20.953125 3.328125 18.109375 8.203125 
L 18.109375 0 
L 9.078125 0 
L 9.078125 75.984375 
L 18.109375 75.984375 
z
" id="DejaVuSans-62"/>
     <path d="M 8.203125 72.90625 
L 55.078125 72.90625 
L 55.078125 68.703125 
L 28.609375 0 
L 18.3125 0 
L 43.21875 64.59375 
L 8.203125 64.59375 
z
" id="DejaVuSans-37"/>
    </defs>
    <g transform="translate(59.55864 35.290806)scale(0.102 -0.102)">
     <use xlink:href="#DejaVuSans-62"/>
     <use x="63.476562" xlink:href="#DejaVuSans-62"/>
     <use x="126.953125" xlink:href="#DejaVuSans-6f"/>
     <use x="188.134766" xlink:href="#DejaVuSans-62"/>
     <use x="251.611328" xlink:href="#DejaVuSans-20"/>
     <use x="283.398438" xlink:href="#DejaVuSans-66"/>
     <use x="318.603516" xlink:href="#DejaVuSans-37"/>
    </g>
    <!-- 51 targets: 100..1e-08 -->
    <defs>
     <path d="M 11.71875 12.40625 
L 22.015625 12.40625 
L 22.015625 0 
L 11.71875 0 
z
M 11.71875 51.703125 
L 22.015625 51.703125 
L 22.015625 39.3125 
L 11.71875 39.3125 
z
" id="DejaVuSans-3a"/>
    </defs>
    <g transform="translate(59.55864 46.712575)scale(0.102 -0.102)">
     <use xlink:href="#DejaVuSans-35"/>
     <use x="63.623047" xlink:href="#DejaVuSans-31"/>
     <use x="127.246094" xlink:href="#DejaVuSans-20"/>
     <use x="159.033203" xlink:href="#DejaVuSans-74"/>
     <use x="198.242188" xlink:href="#DejaVuSans-61"/>
     <use x="259.521484" xlink:href="#DejaVuSans-72"/>
     <use x="300.619141" xlink:href="#DejaVuSans-67"/>
     <use x="364.095703" xlink:href="#DejaVuSans-65"/>
     <use x="425.619141" xlink:href="#DejaVuSans-74"/>
     <use x="464.828125" xlink:href="#DejaVuSans-73"/>
     <use x="516.927734" xlink:href="#DejaVuSans-3a"/>
     <use x="550.619141" xlink:href="#DejaVuSans-20"/>
     <use x="582.40625" xlink:href="#DejaVuSans-31"/>
     <use x="646.029297" xlink:href="#DejaVuSans-30"/>
     <use x="709.652344" xlink:href="#DejaVuSans-30"/>
     <use x="773.275391" xlink:href="#DejaVuSans-2e"/>
     <use x="805.0625" xlink:href="#DejaVuSans-2e"/>
     <use x="836.849609" xlink:href="#DejaVuSans-31"/>
     <use x="900.472656" xlink:href="#DejaVuSans-65"/>
     <use x="961.996094" xlink:href="#DejaVuSans-2d"/>
     <use x="998.080078" xlink:href="#DejaVuSans-30"/>
     <use x="1061.703125" xlink:href="#DejaVuSans-38"/>
    </g>
    <!-- 15 instances -->
    <g transform="translate(59.55864 58.134344)scale(0.102 -0.102)">
     <use xlink:href="#DejaVuSans-31"/>
     <use x="63.623047" xlink:href="#DejaVuSans-35"/>
     <use x="127.246094" xlink:href="#DejaVuSans-20"/>
     <use x="159.033203" xlink:href="#DejaVuSans-69"/>
     <use x="186.816406" xlink:href="#DejaVuSans-6e"/>
     <use x="250.195312" xlink:href="#DejaVuSans-73"/>
     <use x="302.294922" xlink:href="#DejaVuSans-74"/>
     <use x="341.503906" xlink:href="#DejaVuSans-61"/>
     <use x="402.783203" xlink:href="#DejaVuSans-6e"/>
     <use x="466.162109" xlink:href="#DejaVuSans-63"/>
     <use x="521.142578" xlink:href="#DejaVuSans-65"/>
     <use x="582.666016" xlink:href="#DejaVuSans-73"/>
    </g>
   </g>
   <g id="text_21">
    <!-- v0.0.0 -->
    <g style="fill:#808080;" transform="translate(212.37075 290.099912)scale(0.1 -0.1)">
     <use xlink:href="#DejaVuSans-76"/>
     <use x="59.179688" xlink:href="#DejaVuSans-30"/>
     <use x="122.802734" xlink:href="#DejaVuSans-2e"/>
     <use x="154.589844" xlink:href="#DejaVuSans-30"/>
     <use x="218.212891" xlink:href="#DejaVuSans-2e"/>
     <use x="250" xlink:href="#DejaVuSans-30"/>
    </g>
   </g>
   <g id="text_22">
    <!-- 7 Step-ellipsoid -->
    <defs>
     <path d="M 53.515625 70.515625 
L 53.515625 60.890625 
Q 47.90625 63.578125 42.921875 64.890625 
Q 37.9375 66.21875 33.296875 66.21875 
Q 25.25 66.21875 20.875 63.09375 
Q 16.5 59.96875 16.5 54.203125 
Q 16.5 49.359375 19.40625 46.890625 
Q 22.3125 44.4375 30.421875 42.921875 
L 36.375 41.703125 
Q 47.40625 39.59375 52.65625 34.296875 
Q 57.90625 29 57.90625 20.125 
Q 57.90625 9.515625 50.796875 4.046875 
Q 43.703125 -1.421875 29.984375 -1.421875 
Q 24.8125 -1.421875 18.96875 -0.25 
Q 13.140625 0.921875 6.890625 3.21875 
L 6.890625 13.375 
Q 12.890625 10.015625 18.65625 8.296875 
Q 24.421875 6.59375 29.984375 6.59375 
Q 38.421875 6.59375 43.015625 9.90625 
Q 47.609375 13.234375 47.609375 19.390625 
Q 47.609375 24.75 44.3125 27.78125 
Q 41.015625 30.8125 33.5 32.328125 
L 27.484375 33.5 
Q 16.453125 35.6875 11.515625 40.375 
Q 6.59375 45.0625 6.59375 53.421875 
Q 6.59375 63.09375 13.40625 68.65625 
Q 20.21875 74.21875 32.171875 74.21875 
Q 37.3125 74.21875 42.625 73.28125 
Q 47.953125 72.359375 53.515625 70.515625 
z
" id="DejaVuSans-53"/>
    </defs>
    <g transform="translate(150.842625 18.84)scale(0.2 -0.2)">
     <use xlink:href="#DejaVuSans-37"/>
     <use x="63.623047" xlink:href="#DejaVuSans-20"/>
     <use x="95.410156" xlink:href="#DejaVuSans-53"/>
     <use x="158.886719" xlink:href="#DejaVuSans-74"/>
     <use x="198.095703" xlink:href="#DejaVuSans-65"/>
     <use x="259.619141" xlink:href="#DejaVuSans-70"/>
     <use x="323.095703" xlink:href="#DejaVuSans-2d"/>
     <use x="359.179688" xlink:href="#DejaVuSans-65"/>
     <use x="420.703125" xlink:href="#DejaVuSans-6c"/>
     <use x="448.486328" xlink:href="#DejaVuSans-6c"/>
     <use x="476.269531" xlink:href="#DejaVuSans-69"/>
     <use x="504.052734" xlink:href="#DejaVuSans-70"/>
     <use x="567.529297" xlink:href="#DejaVuSans-73"/>
     <use x="619.628906" xlink:href="#DejaVuSans-6f"/>
     <use x="680.810547" xlink:href="#DejaVuSans-69"/>
     <use x="708.59375" xlink:href="#DejaVuSans-64"/>
    </g>
   </g>
  </g>
 </g>
 <defs>
  <clipPath id="pabf68c6041">
   <rect height="270.04" width="343.864" x="56.12" y="24.84"/>
  </clipPath>
 </defs>
</svg>
