<?xml version="1.0" encoding="utf-8" standalone="no"?>
<!DOCTYPE svg PUBLIC "-//W3C//DTD SVG 1.1//EN"
  "http://www.w3.org/Graphics/SVG/1.1/DTD/svg11.dtd">
<!-- Created with matplotlib (http://matplotlib.org/) -->
<svg height="345.6pt" version="1.1" viewBox="0 0 460.8 345.6" width="460.8pt" xmlns="http://www.w3.org/2000/svg" xmlns:xlink="http://www.w3.org/1999/xlink">
 <defs>
  <style type="text/css">
*{stroke-linecap:butt;stroke-linejoin:round;}
  </style>
 </defs>
 <g id="figure_1">
  <g id="patch_1">
   <path d="M 0 345.6 
L 460.8 345.6 
L 460.8 0 
L 0 0 
z
" style="fill:#ffffff;"/>
  </g>
  <g id="axes_1">
   <g id="patch_2">
    <path d="M 56.12 294.88 
L 399.984 294.88 
L 399.984 6.845228 
L 56.12 6.845228 
z
" style="fill:#ffffff;"/>
   </g>
   <g id="matplotlib.axis_1">
    <g id="xtick_1">
     <g id="line2d_1">
      <path clip-path="url(#pa5a9b9c8d5)" d="M 56.12 294.88 
L 56.12 6.845228 
" style="fill:none;stroke:#b0b0b0;stroke-linecap:square;stroke-width:0.8;"/>
     </g>
     <g id="line2d_2">
      <defs>
       <path d="M 0 0 
L 0 3.5 
" id="m0d2aac55e3" style="stroke:#000000;stroke-width:0.8;"/>
      </defs>
      <g>
       <use style="stroke:#000000;stroke-width:0.8;" x="56.12" xlink:href="#m0d2aac55e3" y="294.88"/>
      </g>
     </g>
     <g id="text_1">
      <!-- 0 -->
      <defs>
       <path d="M 31.78125 66.40625 
Q 24.171875 66.40625 20.328125 58.90625 
Q 16.5 51.421875 16.5 36.375 
Q 16.5 21.390625 20.328125 13.890625 
Q 24.171875 6.390625 31.78125 6.390625 
Q 39.453125 6.390625 43.28125 13.890625 
Q 47.125 21.390625 47.125 36.375 
Q 47.125 51.421875 43.28125 58.90625 
Q 39.453125 66.40625 31.78125 66.40625 
z
M 31.78125 74.21875 
Q 44.046875 74.21875 50.515625 64.515625 
Q 56.984375 54.828125 56.984375 36.375 
Q 56.984375 17.96875 50.515625 8.265625 
Q 44.046875 -1.421875 31.78125 -1.421875 
Q 19.53125 -1.421875 13.0625 8.265625 
Q 6.59375 17.96875 6.59375 36.375 
Q 6.59375 54.828125 13.0625 64.515625 
Q 19.53125 74.21875 31.78125 74.21875 
z
" id="DejaVuSans-30"/>
      </defs>
      <g transform="translate(49.7575 317.076875)scale(0.2 -0.2)">
       <use xlink:href="#DejaVuSans-30"/>
      </g>
     </g>
    </g>
    <g id="xtick_2">
     <g id="line2d_3">
      <path clip-path="url(#pa5a9b9c8d5)" d="M 135.351336 294.88 
L 135.351336 6.845228 
" style="fill:none;stroke:#b0b0b0;stroke-linecap:square;stroke-width:0.8;"/>
     </g>
     <g id="line2d_4">
      <g>
       <use style="stroke:#000000;stroke-width:0.8;" x="135.351336" xlink:href="#m0d2aac55e3" y="294.88"/>
      </g>
     </g>
     <g id="text_2">
      <!-- 2 -->
      <defs>
       <path d="M 19.1875 8.296875 
L 53.609375 8.296875 
L 53.609375 0 
L 7.328125 0 
L 7.328125 8.296875 
Q 12.9375 14.109375 22.625 23.890625 
Q 32.328125 33.6875 34.8125 36.53125 
Q 39.546875 41.84375 41.421875 45.53125 
Q 43.3125 49.21875 43.3125 52.78125 
Q 43.3125 58.59375 39.234375 62.25 
Q 35.15625 65.921875 28.609375 65.921875 
Q 23.96875 65.921875 18.8125 64.3125 
Q 13.671875 62.703125 7.8125 59.421875 
L 7.8125 69.390625 
Q 13.765625 71.78125 18.9375 73 
Q 24.125 74.21875 28.421875 74.21875 
Q 39.75 74.21875 46.484375 68.546875 
Q 53.21875 62.890625 53.21875 53.421875 
Q 53.21875 48.921875 51.53125 44.890625 
Q 49.859375 40.875 45.40625 35.40625 
Q 44.1875 33.984375 37.640625 27.21875 
Q 31.109375 20.453125 19.1875 8.296875 
z
" id="DejaVuSans-32"/>
      </defs>
      <g transform="translate(128.988836 317.076875)scale(0.2 -0.2)">
       <use xlink:href="#DejaVuSans-32"/>
      </g>
     </g>
    </g>
    <g id="xtick_3">
     <g id="line2d_5">
      <path clip-path="url(#pa5a9b9c8d5)" d="M 214.582673 294.88 
L 214.582673 6.845228 
" style="fill:none;stroke:#b0b0b0;stroke-linecap:square;stroke-width:0.8;"/>
     </g>
     <g id="line2d_6">
      <g>
       <use style="stroke:#000000;stroke-width:0.8;" x="214.582673" xlink:href="#m0d2aac55e3" y="294.88"/>
      </g>
     </g>
     <g id="text_3">
      <!-- 4 -->
      <defs>
       <path d="M 37.796875 64.3125 
L 12.890625 25.390625 
L 37.796875 25.390625 
z
M 35.203125 72.90625 
L 47.609375 72.90625 
L 47.609375 25.390625 
L 58.015625 25.390625 
L 58.015625 17.1875 
L 47.609375 17.1875 
L 47.609375 0 
L 37.796875 0 
L 37.796875 17.1875 
L 4.890625 17.1875 
L 4.890625 26.703125 
z
" id="DejaVuSans-34"/>
      </defs>
      <g transform="translate(208.220173 317.076875)scale(0.2 -0.2)">
       <use xlink:href="#DejaVuSans-34"/>
      </g>
     </g>
    </g>
    <g id="xtick_4">
     <g id="line2d_7">
      <path clip-path="url(#pa5a9b9c8d5)" d="M 293.814009 294.88 
L 293.814009 6.845228 
" style="fill:none;stroke:#b0b0b0;stroke-linecap:square;stroke-width:0.8;"/>
     </g>
     <g id="line2d_8">
      <g>
       <use style="stroke:#000000;stroke-width:0.8;" x="293.814009" xlink:href="#m0d2aac55e3" y="294.88"/>
      </g>
     </g>
     <g id="text_4">
      <!-- 6 -->
      <defs>
       <path d="M 33.015625 40.375 
Q 26.375 40.375 22.484375 35.828125 
Q 18.609375 31.296875 18.609375 23.390625 
Q 18.609375 15.53125 22.484375 10.953125 
Q 26.375 6.390625 33.015625 6.390625 
Q 39.65625 6.390625 43.53125 10.953125 
Q 47.40625 15.53125 47.40625 23.390625 
Q 47.40625 31.296875 43.53125 35.828125 
Q 39.65625 40.375 33.015625 40.375 
z
M 52.59375 71.296875 
L 52.59375 62.3125 
Q 48.875 64.0625 45.09375 64.984375 
Q 41.3125 65.921875 37.59375 65.921875 
Q 27.828125 65.921875 22.671875 59.328125 
Q 17.53125 52.734375 16.796875 39.40625 
Q 19.671875 43.65625 24.015625 45.921875 
Q 28.375 48.1875 33.59375 48.1875 
Q 44.578125 48.1875 50.953125 41.515625 
Q 57.328125 34.859375 57.328125 23.390625 
Q 57.328125 12.15625 50.6875 5.359375 
Q 44.046875 -1.421875 33.015625 -1.421875 
Q 20.359375 -1.421875 13.671875 8.265625 
Q 6.984375 17.96875 6.984375 36.375 
Q 6.984375 53.65625 15.1875 63.9375 
Q 23.390625 74.21875 37.203125 74.21875 
Q 40.921875 74.21875 44.703125 73.484375 
Q 48.484375 72.75 52.59375 71.296875 
z
" id="DejaVuSans-36"/>
      </defs>
      <g transform="translate(287.451509 317.076875)scale(0.2 -0.2)">
       <use xlink:href="#DejaVuSans-36"/>
      </g>
     </g>
    </g>
    <g id="xtick_5">
     <g id="line2d_9">
      <path clip-path="url(#pa5a9b9c8d5)" d="M 373.045346 294.88 
L 373.045346 6.845228 
" style="fill:none;stroke:#b0b0b0;stroke-linecap:square;stroke-width:0.8;"/>
     </g>
     <g id="line2d_10">
      <g>
       <use style="stroke:#000000;stroke-width:0.8;" x="373.045346" xlink:href="#m0d2aac55e3" y="294.88"/>
      </g>
     </g>
     <g id="text_5">
      <!-- 8 -->
      <defs>
       <path d="M 31.78125 34.625 
Q 24.75 34.625 20.71875 30.859375 
Q 16.703125 27.09375 16.703125 20.515625 
Q 16.703125 13.921875 20.71875 10.15625 
Q 24.75 6.390625 31.78125 6.390625 
Q 38.8125 6.390625 42.859375 10.171875 
Q 46.921875 13.96875 46.921875 20.515625 
Q 46.921875 27.09375 42.890625 30.859375 
Q 38.875 34.625 31.78125 34.625 
z
M 21.921875 38.8125 
Q 15.578125 40.375 12.03125 44.71875 
Q 8.5 49.078125 8.5 55.328125 
Q 8.5 64.0625 14.71875 69.140625 
Q 20.953125 74.21875 31.78125 74.21875 
Q 42.671875 74.21875 48.875 69.140625 
Q 55.078125 64.0625 55.078125 55.328125 
Q 55.078125 49.078125 51.53125 44.71875 
Q 48 40.375 41.703125 38.8125 
Q 48.828125 37.15625 52.796875 32.3125 
Q 56.78125 27.484375 56.78125 20.515625 
Q 56.78125 9.90625 50.3125 4.234375 
Q 43.84375 -1.421875 31.78125 -1.421875 
Q 19.734375 -1.421875 13.25 4.234375 
Q 6.78125 9.90625 6.78125 20.515625 
Q 6.78125 27.484375 10.78125 32.3125 
Q 14.796875 37.15625 21.921875 38.8125 
z
M 18.3125 54.390625 
Q 18.3125 48.734375 21.84375 45.5625 
Q 25.390625 42.390625 31.78125 42.390625 
Q 38.140625 42.390625 41.71875 45.5625 
Q 45.3125 48.734375 45.3125 54.390625 
Q 45.3125 60.0625 41.71875 63.234375 
Q 38.140625 66.40625 31.78125 66.40625 
Q 25.390625 66.40625 21.84375 63.234375 
Q 18.3125 60.0625 18.3125 54.390625 
z
" id="DejaVuSans-38"/>
      </defs>
      <g transform="translate(366.682846 317.076875)scale(0.2 -0.2)">
       <use xlink:href="#DejaVuSans-38"/>
      </g>
     </g>
    </g>
    <g id="text_6">
     <!-- log10(# f-evals / dimension) -->
     <defs>
      <path d="M 9.421875 75.984375 
L 18.40625 75.984375 
L 18.40625 0 
L 9.421875 0 
z
" id="DejaVuSans-6c"/>
      <path d="M 30.609375 48.390625 
Q 23.390625 48.390625 19.1875 42.75 
Q 14.984375 37.109375 14.984375 27.296875 
Q 14.984375 17.484375 19.15625 11.84375 
Q 23.34375 6.203125 30.609375 6.203125 
Q 37.796875 6.203125 41.984375 11.859375 
Q 46.1875 17.53125 46.1875 27.296875 
Q 46.1875 37.015625 41.984375 42.703125 
Q 37.796875 48.390625 30.609375 48.390625 
z
M 30.609375 56 
Q 42.328125 56 49.015625 48.375 
Q 55.71875 40.765625 55.71875 27.296875 
Q 55.71875 13.875 49.015625 6.21875 
Q 42.328125 -1.421875 30.609375 -1.421875 
Q 18.84375 -1.421875 12.171875 6.21875 
Q 5.515625 13.875 5.515625 27.296875 
Q 5.515625 40.765625 12.171875 48.375 
Q 18.84375 56 30.609375 56 
z
" id="DejaVuSans-6f"/>
      <path d="M 45.40625 27.984375 
Q 45.40625 37.75 41.375 43.109375 
Q 37.359375 48.484375 30.078125 48.484375 
Q 22.859375 48.484375 18.828125 43.109375 
Q 14.796875 37.75 14.796875 27.984375 
Q 14.796875 18.265625 18.828125 12.890625 
Q 22.859375 7.515625 30.078125 7.515625 
Q 37.359375 7.515625 41.375 12.890625 
Q 45.40625 18.265625 45.40625 27.984375 
z
M 54.390625 6.78125 
Q 54.390625 -7.171875 48.1875 -13.984375 
Q 42 -20.796875 29.203125 -20.796875 
Q 24.46875 -20.796875 20.265625 -20.09375 
Q 16.0625 -19.390625 12.109375 -17.921875 
L 12.109375 -9.1875 
Q 16.0625 -11.328125 19.921875 -12.34375 
Q 23.78125 -13.375 27.78125 -13.375 
Q 36.625 -13.375 41.015625 -8.765625 
Q 45.40625 -4.15625 45.40625 5.171875 
L 45.40625 9.625 
Q 42.625 4.78125 38.28125 2.390625 
Q 33.9375 0 27.875 0 
Q 17.828125 0 11.671875 7.65625 
Q 5.515625 15.328125 5.515625 27.984375 
Q 5.515625 40.671875 11.671875 48.328125 
Q 17.828125 56 27.875 56 
Q 33.9375 56 38.28125 53.609375 
Q 42.625 51.21875 45.40625 46.390625 
L 45.40625 54.6875 
L 54.390625 54.6875 
z
" id="DejaVuSans-67"/>
      <path d="M 12.40625 8.296875 
L 28.515625 8.296875 
L 28.515625 63.921875 
L 10.984375 60.40625 
L 10.984375 69.390625 
L 28.421875 72.90625 
L 38.28125 72.90625 
L 38.28125 8.296875 
L 54.390625 8.296875 
L 54.390625 0 
L 12.40625 0 
z
" id="DejaVuSans-31"/>
      <path d="M 31 75.875 
Q 24.46875 64.65625 21.28125 53.65625 
Q 18.109375 42.671875 18.109375 31.390625 
Q 18.109375 20.125 21.3125 9.0625 
Q 24.515625 -2 31 -13.1875 
L 23.1875 -13.1875 
Q 15.875 -1.703125 12.234375 9.375 
Q 8.59375 20.453125 8.59375 31.390625 
Q 8.59375 42.28125 12.203125 53.3125 
Q 15.828125 64.359375 23.1875 75.875 
z
" id="DejaVuSans-28"/>
      <path d="M 51.125 44 
L 36.921875 44 
L 32.8125 27.6875 
L 47.125 27.6875 
z
M 43.796875 71.78125 
L 38.71875 51.515625 
L 52.984375 51.515625 
L 58.109375 71.78125 
L 65.921875 71.78125 
L 60.890625 51.515625 
L 76.125 51.515625 
L 76.125 44 
L 58.984375 44 
L 54.984375 27.6875 
L 70.515625 27.6875 
L 70.515625 20.21875 
L 53.078125 20.21875 
L 48 0 
L 40.1875 0 
L 45.21875 20.21875 
L 30.90625 20.21875 
L 25.875 0 
L 18.015625 0 
L 23.09375 20.21875 
L 7.71875 20.21875 
L 7.71875 27.6875 
L 24.90625 27.6875 
L 29 44 
L 13.28125 44 
L 13.28125 51.515625 
L 30.90625 51.515625 
L 35.890625 71.78125 
z
" id="DejaVuSans-23"/>
      <path id="DejaVuSans-20"/>
      <path d="M 37.109375 75.984375 
L 37.109375 68.5 
L 28.515625 68.5 
Q 23.6875 68.5 21.796875 66.546875 
Q 19.921875 64.59375 19.921875 59.515625 
L 19.921875 54.6875 
L 34.71875 54.6875 
L 34.71875 47.703125 
L 19.921875 47.703125 
L 19.921875 0 
L 10.890625 0 
L 10.890625 47.703125 
L 2.296875 47.703125 
L 2.296875 54.6875 
L 10.890625 54.6875 
L 10.890625 58.5 
Q 10.890625 67.625 15.140625 71.796875 
Q 19.390625 75.984375 28.609375 75.984375 
z
" id="DejaVuSans-66"/>
      <path d="M 4.890625 31.390625 
L 31.203125 31.390625 
L 31.203125 23.390625 
L 4.890625 23.390625 
z
" id="DejaVuSans-2d"/>
      <path d="M 56.203125 29.59375 
L 56.203125 25.203125 
L 14.890625 25.203125 
Q 15.484375 15.921875 20.484375 11.0625 
Q 25.484375 6.203125 34.421875 6.203125 
Q 39.59375 6.203125 44.453125 7.46875 
Q 49.3125 8.734375 54.109375 11.28125 
L 54.109375 2.78125 
Q 49.265625 0.734375 44.1875 -0.34375 
Q 39.109375 -1.421875 33.890625 -1.421875 
Q 20.796875 -1.421875 13.15625 6.1875 
Q 5.515625 13.8125 5.515625 26.8125 
Q 5.515625 40.234375 12.765625 48.109375 
Q 20.015625 56 32.328125 56 
Q 43.359375 56 49.78125 48.890625 
Q 56.203125 41.796875 56.203125 29.59375 
z
M 47.21875 32.234375 
Q 47.125 39.59375 43.09375 43.984375 
Q 39.0625 48.390625 32.421875 48.390625 
Q 24.90625 48.390625 20.390625 44.140625 
Q 15.875 39.890625 15.1875 32.171875 
z
" id="DejaVuSans-65"/>
      <path d="M 2.984375 54.6875 
L 12.5 54.6875 
L 29.59375 8.796875 
L 46.6875 54.6875 
L 56.203125 54.6875 
L 35.6875 0 
L 23.484375 0 
z
" id="DejaVuSans-76"/>
      <path d="M 34.28125 27.484375 
Q 23.390625 27.484375 19.1875 25 
Q 14.984375 22.515625 14.984375 16.5 
Q 14.984375 11.71875 18.140625 8.90625 
Q 21.296875 6.109375 26.703125 6.109375 
Q 34.1875 6.109375 38.703125 11.40625 
Q 43.21875 16.703125 43.21875 25.484375 
L 43.21875 27.484375 
z
M 52.203125 31.203125 
L 52.203125 0 
L 43.21875 0 
L 43.21875 8.296875 
Q 40.140625 3.328125 35.546875 0.953125 
Q 30.953125 -1.421875 24.3125 -1.421875 
Q 15.921875 -1.421875 10.953125 3.296875 
Q 6 8.015625 6 15.921875 
Q 6 25.140625 12.171875 29.828125 
Q 18.359375 34.515625 30.609375 34.515625 
L 43.21875 34.515625 
L 43.21875 35.40625 
Q 43.21875 41.609375 39.140625 45 
Q 35.0625 48.390625 27.6875 48.390625 
Q 23 48.390625 18.546875 47.265625 
Q 14.109375 46.140625 10.015625 43.890625 
L 10.015625 52.203125 
Q 14.9375 54.109375 19.578125 55.046875 
Q 24.21875 56 28.609375 56 
Q 40.484375 56 46.34375 49.84375 
Q 52.203125 43.703125 52.203125 31.203125 
z
" id="DejaVuSans-61"/>
      <path d="M 44.28125 53.078125 
L 44.28125 44.578125 
Q 40.484375 46.53125 36.375 47.5 
Q 32.28125 48.484375 27.875 48.484375 
Q 21.1875 48.484375 17.84375 46.4375 
Q 14.5 44.390625 14.5 40.28125 
Q 14.5 37.15625 16.890625 35.375 
Q 19.28125 33.59375 26.515625 31.984375 
L 29.59375 31.296875 
Q 39.15625 29.25 43.1875 25.515625 
Q 47.21875 21.78125 47.21875 15.09375 
Q 47.21875 7.46875 41.1875 3.015625 
Q 35.15625 -1.421875 24.609375 -1.421875 
Q 20.21875 -1.421875 15.453125 -0.5625 
Q 10.6875 0.296875 5.421875 2 
L 5.421875 11.28125 
Q 10.40625 8.6875 15.234375 7.390625 
Q 20.0625 6.109375 24.8125 6.109375 
Q 31.15625 6.109375 34.5625 8.28125 
Q 37.984375 10.453125 37.984375 14.40625 
Q 37.984375 18.0625 35.515625 20.015625 
Q 33.0625 21.96875 24.703125 23.78125 
L 21.578125 24.515625 
Q 13.234375 26.265625 9.515625 29.90625 
Q 5.8125 33.546875 5.8125 39.890625 
Q 5.8125 47.609375 11.28125 51.796875 
Q 16.75 56 26.8125 56 
Q 31.78125 56 36.171875 55.265625 
Q 40.578125 54.546875 44.28125 53.078125 
z
" id="DejaVuSans-73"/>
      <path d="M 25.390625 72.90625 
L 33.6875 72.90625 
L 8.296875 -9.28125 
L 0 -9.28125 
z
" id="DejaVuSans-2f"/>
      <path d="M 45.40625 46.390625 
L 45.40625 75.984375 
L 54.390625 75.984375 
L 54.390625 0 
L 45.40625 0 
L 45.40625 8.203125 
Q 42.578125 3.328125 38.25 0.953125 
Q 33.9375 -1.421875 27.875 -1.421875 
Q 17.96875 -1.421875 11.734375 6.484375 
Q 5.515625 14.40625 5.515625 27.296875 
Q 5.515625 40.1875 11.734375 48.09375 
Q 17.96875 56 27.875 56 
Q 33.9375 56 38.25 53.625 
Q 42.578125 51.265625 45.40625 46.390625 
z
M 14.796875 27.296875 
Q 14.796875 17.390625 18.875 11.75 
Q 22.953125 6.109375 30.078125 6.109375 
Q 37.203125 6.109375 41.296875 11.75 
Q 45.40625 17.390625 45.40625 27.296875 
Q 45.40625 37.203125 41.296875 42.84375 
Q 37.203125 48.484375 30.078125 48.484375 
Q 22.953125 48.484375 18.875 42.84375 
Q 14.796875 37.203125 14.796875 27.296875 
z
" id="DejaVuSans-64"/>
      <path d="M 9.421875 54.6875 
L 18.40625 54.6875 
L 18.40625 0 
L 9.421875 0 
z
M 9.421875 75.984375 
L 18.40625 75.984375 
L 18.40625 64.59375 
L 9.421875 64.59375 
z
" id="DejaVuSans-69"/>
      <path d="M 52 44.1875 
Q 55.375 50.25 60.0625 53.125 
Q 64.75 56 71.09375 56 
Q 79.640625 56 84.28125 50.015625 
Q 88.921875 44.046875 88.921875 33.015625 
L 88.921875 0 
L 79.890625 0 
L 79.890625 32.71875 
Q 79.890625 40.578125 77.09375 44.375 
Q 74.3125 48.1875 68.609375 48.1875 
Q 61.625 48.1875 57.5625 43.546875 
Q 53.515625 38.921875 53.515625 30.90625 
L 53.515625 0 
L 44.484375 0 
L 44.484375 32.71875 
Q 44.484375 40.625 41.703125 44.40625 
Q 38.921875 48.1875 33.109375 48.1875 
Q 26.21875 48.1875 22.15625 43.53125 
Q 18.109375 38.875 18.109375 30.90625 
L 18.109375 0 
L 9.078125 0 
L 9.078125 54.6875 
L 18.109375 54.6875 
L 18.109375 46.1875 
Q 21.1875 51.21875 25.484375 53.609375 
Q 29.78125 56 35.6875 56 
Q 41.65625 56 45.828125 52.96875 
Q 50 49.953125 52 44.1875 
z
" id="DejaVuSans-6d"/>
      <path d="M 54.890625 33.015625 
L 54.890625 0 
L 45.90625 0 
L 45.90625 32.71875 
Q 45.90625 40.484375 42.875 44.328125 
Q 39.84375 48.1875 33.796875 48.1875 
Q 26.515625 48.1875 22.3125 43.546875 
Q 18.109375 38.921875 18.109375 30.90625 
L 18.109375 0 
L 9.078125 0 
L 9.078125 54.6875 
L 18.109375 54.6875 
L 18.109375 46.1875 
Q 21.34375 51.125 25.703125 53.5625 
Q 30.078125 56 35.796875 56 
Q 45.21875 56 50.046875 50.171875 
Q 54.890625 44.34375 54.890625 33.015625 
z
" id="DejaVuSans-6e"/>
      <path d="M 8.015625 75.875 
L 15.828125 75.875 
Q 23.140625 64.359375 26.78125 53.3125 
Q 30.421875 42.28125 30.421875 31.390625 
Q 30.421875 20.453125 26.78125 9.375 
Q 23.140625 -1.703125 15.828125 -13.1875 
L 8.015625 -13.1875 
Q 14.5 -2 17.703125 9.0625 
Q 20.90625 20.125 20.90625 31.390625 
Q 20.90625 42.671875 17.703125 53.65625 
Q 14.5 64.65625 8.015625 75.875 
z
" id="DejaVuSans-29"/>
     </defs>
     <g transform="translate(107.211219 338.153594)scale(0.17 -0.17)">
      <use xlink:href="#DejaVuSans-6c"/>
      <use x="27.783203" xlink:href="#DejaVuSans-6f"/>
      <use x="88.964844" xlink:href="#DejaVuSans-67"/>
      <use x="152.441406" xlink:href="#DejaVuSans-31"/>
      <use x="216.064453" xlink:href="#DejaVuSans-30"/>
      <use x="279.6875" xlink:href="#DejaVuSans-28"/>
      <use x="318.701172" xlink:href="#DejaVuSans-23"/>
      <use x="402.490234" xlink:href="#DejaVuSans-20"/>
      <use x="434.277344" xlink:href="#DejaVuSans-66"/>
      <use x="469.404297" xlink:href="#DejaVuSans-2d"/>
      <use x="505.488281" xlink:href="#DejaVuSans-65"/>
      <use x="567.011719" xlink:href="#DejaVuSans-76"/>
      <use x="626.191406" xlink:href="#DejaVuSans-61"/>
      <use x="687.470703" xlink:href="#DejaVuSans-6c"/>
      <use x="715.253906" xlink:href="#DejaVuSans-73"/>
      <use x="767.353516" xlink:href="#DejaVuSans-20"/>
      <use x="799.140625" xlink:href="#DejaVuSans-2f"/>
      <use x="832.832031" xlink:href="#DejaVuSans-20"/>
      <use x="864.619141" xlink:href="#DejaVuSans-64"/>
      <use x="928.095703" xlink:href="#DejaVuSans-69"/>
      <use x="955.878906" xlink:href="#DejaVuSans-6d"/>
      <use x="1053.291016" xlink:href="#DejaVuSans-65"/>
      <use x="1114.814453" xlink:href="#DejaVuSans-6e"/>
      <use x="1178.193359" xlink:href="#DejaVuSans-73"/>
      <use x="1230.292969" xlink:href="#DejaVuSans-69"/>
      <use x="1258.076172" xlink:href="#DejaVuSans-6f"/>
      <use x="1319.257812" xlink:href="#DejaVuSans-6e"/>
      <use x="1382.636719" xlink:href="#DejaVuSans-29"/>
     </g>
    </g>
   </g>
   <g id="matplotlib.axis_2">
    <g id="ytick_1">
     <g id="line2d_11">
      <path clip-path="url(#pa5a9b9c8d5)" d="M 56.12 294.88 
L 399.984 294.88 
" style="fill:none;stroke:#b0b0b0;stroke-linecap:square;stroke-width:0.8;"/>
     </g>
     <g id="line2d_12">
      <defs>
       <path d="M 0 0 
L -3.5 0 
" id="md748b689b1" style="stroke:#000000;stroke-width:0.8;"/>
      </defs>
      <g>
       <use style="stroke:#000000;stroke-width:0.8;" x="56.12" xlink:href="#md748b689b1" y="294.88"/>
      </g>
     </g>
     <g id="text_7">
      <!-- 0.0 -->
      <defs>
       <path d="M 10.6875 12.40625 
L 21 12.40625 
L 21 0 
L 10.6875 0 
z
" id="DejaVuSans-2e"/>
      </defs>
      <g transform="translate(23.675 300.95875)scale(0.16 -0.16)">
       <use xlink:href="#DejaVuSans-30"/>
       <use x="63.623047" xlink:href="#DejaVuSans-2e"/>
       <use x="95.410156" xlink:href="#DejaVuSans-30"/>
      </g>
     </g>
    </g>
    <g id="ytick_2">
     <g id="line2d_13">
      <path clip-path="url(#pa5a9b9c8d5)" d="M 56.12 237.843411 
L 399.984 237.843411 
" style="fill:none;stroke:#b0b0b0;stroke-linecap:square;stroke-width:0.8;"/>
     </g>
     <g id="line2d_14">
      <g>
       <use style="stroke:#000000;stroke-width:0.8;" x="56.12" xlink:href="#md748b689b1" y="237.843411"/>
      </g>
     </g>
     <g id="text_8">
      <!-- 0.2 -->
      <g transform="translate(23.675 243.922161)scale(0.16 -0.16)">
       <use xlink:href="#DejaVuSans-30"/>
       <use x="63.623047" xlink:href="#DejaVuSans-2e"/>
       <use x="95.410156" xlink:href="#DejaVuSans-32"/>
      </g>
     </g>
    </g>
    <g id="ytick_3">
     <g id="line2d_15">
      <path clip-path="url(#pa5a9b9c8d5)" d="M 56.12 180.806823 
L 399.984 180.806823 
" style="fill:none;stroke:#b0b0b0;stroke-linecap:square;stroke-width:0.8;"/>
     </g>
     <g id="line2d_16">
      <g>
       <use style="stroke:#000000;stroke-width:0.8;" x="56.12" xlink:href="#md748b689b1" y="180.806823"/>
      </g>
     </g>
     <g id="text_9">
      <!-- 0.4 -->
      <g transform="translate(23.675 186.885573)scale(0.16 -0.16)">
       <use xlink:href="#DejaVuSans-30"/>
       <use x="63.623047" xlink:href="#DejaVuSans-2e"/>
       <use x="95.410156" xlink:href="#DejaVuSans-34"/>
      </g>
     </g>
    </g>
    <g id="ytick_4">
     <g id="line2d_17">
      <path clip-path="url(#pa5a9b9c8d5)" d="M 56.12 123.770234 
L 399.984 123.770234 
" style="fill:none;stroke:#b0b0b0;stroke-linecap:square;stroke-width:0.8;"/>
     </g>
     <g id="line2d_18">
      <g>
       <use style="stroke:#000000;stroke-width:0.8;" x="56.12" xlink:href="#md748b689b1" y="123.770234"/>
      </g>
     </g>
     <g id="text_10">
      <!-- 0.6 -->
      <g transform="translate(23.675 129.848984)scale(0.16 -0.16)">
       <use xlink:href="#DejaVuSans-30"/>
       <use x="63.623047" xlink:href="#DejaVuSans-2e"/>
       <use x="95.410156" xlink:href="#DejaVuSans-36"/>
      </g>
     </g>
    </g>
    <g id="ytick_5">
     <g id="line2d_19">
      <path clip-path="url(#pa5a9b9c8d5)" d="M 56.12 66.733646 
L 399.984 66.733646 
" style="fill:none;stroke:#b0b0b0;stroke-linecap:square;stroke-width:0.8;"/>
     </g>
     <g id="line2d_20">
      <g>
       <use style="stroke:#000000;stroke-width:0.8;" x="56.12" xlink:href="#md748b689b1" y="66.733646"/>
      </g>
     </g>
     <g id="text_11">
      <!-- 0.8 -->
      <g transform="translate(23.675 72.812396)scale(0.16 -0.16)">
       <use xlink:href="#DejaVuSans-30"/>
       <use x="63.623047" xlink:href="#DejaVuSans-2e"/>
       <use x="95.410156" xlink:href="#DejaVuSans-38"/>
      </g>
     </g>
    </g>
    <g id="ytick_6">
     <g id="line2d_21">
      <path clip-path="url(#pa5a9b9c8d5)" d="M 56.12 9.697057 
L 399.984 9.697057 
" style="fill:none;stroke:#b0b0b0;stroke-linecap:square;stroke-width:0.8;"/>
     </g>
     <g id="line2d_22">
      <g>
       <use style="stroke:#000000;stroke-width:0.8;" x="56.12" xlink:href="#md748b689b1" y="9.697057"/>
      </g>
     </g>
     <g id="text_12">
      <!-- 1.0 -->
      <g transform="translate(23.675 15.775807)scale(0.16 -0.16)">
       <use xlink:href="#DejaVuSans-31"/>
       <use x="63.623047" xlink:href="#DejaVuSans-2e"/>
       <use x="95.410156" xlink:href="#DejaVuSans-30"/>
      </g>
     </g>
    </g>
    <g id="text_13">
     <!-- Fraction of function,target pairs -->
     <defs>
      <path d="M 9.8125 72.90625 
L 51.703125 72.90625 
L 51.703125 64.59375 
L 19.671875 64.59375 
L 19.671875 43.109375 
L 48.578125 43.109375 
L 48.578125 34.8125 
L 19.671875 34.8125 
L 19.671875 0 
L 9.8125 0 
z
" id="DejaVuSans-46"/>
      <path d="M 41.109375 46.296875 
Q 39.59375 47.171875 37.8125 47.578125 
Q 36.03125 48 33.890625 48 
Q 26.265625 48 22.1875 43.046875 
Q 18.109375 38.09375 18.109375 28.8125 
L 18.109375 0 
L 9.078125 0 
L 9.078125 54.6875 
L 18.109375 54.6875 
L 18.109375 46.1875 
Q 20.953125 51.171875 25.484375 53.578125 
Q 30.03125 56 36.53125 56 
Q 37.453125 56 38.578125 55.875 
Q 39.703125 55.765625 41.0625 55.515625 
z
" id="DejaVuSans-72"/>
      <path d="M 48.78125 52.59375 
L 48.78125 44.1875 
Q 44.96875 46.296875 41.140625 47.34375 
Q 37.3125 48.390625 33.40625 48.390625 
Q 24.65625 48.390625 19.8125 42.84375 
Q 14.984375 37.3125 14.984375 27.296875 
Q 14.984375 17.28125 19.8125 11.734375 
Q 24.65625 6.203125 33.40625 6.203125 
Q 37.3125 6.203125 41.140625 7.25 
Q 44.96875 8.296875 48.78125 10.40625 
L 48.78125 2.09375 
Q 45.015625 0.34375 40.984375 -0.53125 
Q 36.96875 -1.421875 32.421875 -1.421875 
Q 20.0625 -1.421875 12.78125 6.34375 
Q 5.515625 14.109375 5.515625 27.296875 
Q 5.515625 40.671875 12.859375 48.328125 
Q 20.21875 56 33.015625 56 
Q 37.15625 56 41.109375 55.140625 
Q 45.0625 54.296875 48.78125 52.59375 
z
" id="DejaVuSans-63"/>
      <path d="M 18.3125 70.21875 
L 18.3125 54.6875 
L 36.8125 54.6875 
L 36.8125 47.703125 
L 18.3125 47.703125 
L 18.3125 18.015625 
Q 18.3125 11.328125 20.140625 9.421875 
Q 21.96875 7.515625 27.59375 7.515625 
L 36.8125 7.515625 
L 36.8125 0 
L 27.59375 0 
Q 17.1875 0 13.234375 3.875 
Q 9.28125 7.765625 9.28125 18.015625 
L 9.28125 47.703125 
L 2.6875 47.703125 
L 2.6875 54.6875 
L 9.28125 54.6875 
L 9.28125 70.21875 
z
" id="DejaVuSans-74"/>
      <path d="M 8.5 21.578125 
L 8.5 54.6875 
L 17.484375 54.6875 
L 17.484375 21.921875 
Q 17.484375 14.15625 20.5 10.265625 
Q 23.53125 6.390625 29.59375 6.390625 
Q 36.859375 6.390625 41.078125 11.03125 
Q 45.3125 15.671875 45.3125 23.6875 
L 45.3125 54.6875 
L 54.296875 54.6875 
L 54.296875 0 
L 45.3125 0 
L 45.3125 8.40625 
Q 42.046875 3.421875 37.71875 1 
Q 33.40625 -1.421875 27.6875 -1.421875 
Q 18.265625 -1.421875 13.375 4.4375 
Q 8.5 10.296875 8.5 21.578125 
z
M 31.109375 56 
z
" id="DejaVuSans-75"/>
      <path d="M 11.71875 12.40625 
L 22.015625 12.40625 
L 22.015625 4 
L 14.015625 -11.625 
L 7.71875 -11.625 
L 11.71875 4 
z
" id="DejaVuSans-2c"/>
      <path d="M 18.109375 8.203125 
L 18.109375 -20.796875 
L 9.078125 -20.796875 
L 9.078125 54.6875 
L 18.109375 54.6875 
L 18.109375 46.390625 
Q 20.953125 51.265625 25.265625 53.625 
Q 29.59375 56 35.59375 56 
Q 45.5625 56 51.78125 48.09375 
Q 58.015625 40.1875 58.015625 27.296875 
Q 58.015625 14.40625 51.78125 6.484375 
Q 45.5625 -1.421875 35.59375 -1.421875 
Q 29.59375 -1.421875 25.265625 0.953125 
Q 20.953125 3.328125 18.109375 8.203125 
z
M 48.6875 27.296875 
Q 48.6875 37.203125 44.609375 42.84375 
Q 40.53125 48.484375 33.40625 48.484375 
Q 26.265625 48.484375 22.1875 42.84375 
Q 18.109375 37.203125 18.109375 27.296875 
Q 18.109375 17.390625 22.1875 11.75 
Q 26.265625 6.109375 33.40625 6.109375 
Q 40.53125 6.109375 44.609375 11.75 
Q 48.6875 17.390625 48.6875 27.296875 
z
" id="DejaVuSans-70"/>
     </defs>
     <g transform="translate(16.139531 286.001989)rotate(-90)scale(0.17 -0.17)">
      <use xlink:href="#DejaVuSans-46"/>
      <use x="57.410156" xlink:href="#DejaVuSans-72"/>
      <use x="98.523438" xlink:href="#DejaVuSans-61"/>
      <use x="159.802734" xlink:href="#DejaVuSans-63"/>
      <use x="214.783203" xlink:href="#DejaVuSans-74"/>
      <use x="253.992188" xlink:href="#DejaVuSans-69"/>
      <use x="281.775391" xlink:href="#DejaVuSans-6f"/>
      <use x="342.957031" xlink:href="#DejaVuSans-6e"/>
      <use x="406.335938" xlink:href="#DejaVuSans-20"/>
      <use x="438.123047" xlink:href="#DejaVuSans-6f"/>
      <use x="499.304688" xlink:href="#DejaVuSans-66"/>
      <use x="534.509766" xlink:href="#DejaVuSans-20"/>
      <use x="566.296875" xlink:href="#DejaVuSans-66"/>
      <use x="601.501953" xlink:href="#DejaVuSans-75"/>
      <use x="664.880859" xlink:href="#DejaVuSans-6e"/>
      <use x="728.259766" xlink:href="#DejaVuSans-63"/>
      <use x="783.240234" xlink:href="#DejaVuSans-74"/>
      <use x="822.449219" xlink:href="#DejaVuSans-69"/>
      <use x="850.232422" xlink:href="#DejaVuSans-6f"/>
      <use x="911.414062" xlink:href="#DejaVuSans-6e"/>
      <use x="974.792969" xlink:href="#DejaVuSans-2c"/>
      <use x="1006.580078" xlink:href="#DejaVuSans-74"/>
      <use x="1045.789062" xlink:href="#DejaVuSans-61"/>
      <use x="1107.068359" xlink:href="#DejaVuSans-72"/>
      <use x="1148.166016" xlink:href="#DejaVuSans-67"/>
      <use x="1211.642578" xlink:href="#DejaVuSans-65"/>
      <use x="1273.166016" xlink:href="#DejaVuSans-74"/>
      <use x="1312.375" xlink:href="#DejaVuSans-20"/>
      <use x="1344.162109" xlink:href="#DejaVuSans-70"/>
      <use x="1407.638672" xlink:href="#DejaVuSans-61"/>
      <use x="1468.917969" xlink:href="#DejaVuSans-69"/>
      <use x="1496.701172" xlink:href="#DejaVuSans-72"/>
      <use x="1537.814453" xlink:href="#DejaVuSans-73"/>
     </g>
    </g>
   </g>
   <g id="line2d_23">
    <defs>
     <path d="M 0 1.5 
C 0.397805 1.5 0.77937 1.341951 1.06066 1.06066 
C 1.341951 0.77937 1.5 0.397805 1.5 0 
C 1.5 -0.397805 1.341951 -0.77937 1.06066 -1.06066 
C 0.77937 -1.341951 0.397805 -1.5 0 -1.5 
C -0.397805 -1.5 -0.77937 -1.341951 -1.06066 -1.06066 
C -1.341951 -0.77937 -1.5 -0.397805 -1.5 0 
C -1.5 0.397805 -1.341951 0.77937 -1.06066 1.06066 
C -0.77937 1.341951 -0.397805 1.5 0 1.5 
z
" id="m9cde08d2dd" style="stroke:#000080;"/>
    </defs>
    <g>
     <use style="fill:#000080;stroke:#000080;" x="206.945534" xlink:href="#m9cde08d2dd" y="9.697057"/>
     <use style="fill:#000080;stroke:#000080;" x="206.945534" xlink:href="#m9cde08d2dd" y="9.697057"/>
    </g>
   </g>
   <g id="line2d_24">
    <path d="M 49.144027 294.88 
L 49.144027 269.716799 
L 61.069532 269.716799 
L 61.069532 266.361706 
L 68.045504 266.361706 
L 68.045504 264.124977 
L 72.995036 264.124977 
L 72.995036 263.565795 
L 76.834191 263.565795 
L 76.834191 262.44743 
L 79.971009 262.44743 
L 79.971009 259.651519 
L 82.623151 259.651519 
L 82.623151 258.533154 
L 91.896513 258.533154 
L 91.896513 257.41479 
L 94.548655 257.41479 
L 94.548655 256.855608 
L 96.846045 256.855608 
L 96.846045 256.296425 
L 101.524628 256.296425 
L 101.524628 255.737243 
L 107.077901 255.737243 
L 107.077901 255.178061 
L 108.771549 255.178061 
L 108.771549 254.618879 
L 109.300972 254.618879 
L 109.300972 254.059696 
L 118.704183 254.059696 
L 118.704183 251.263785 
L 124.961042 251.263785 
L 124.961042 250.704603 
L 125.979378 250.704603 
L 125.979378 250.145421 
L 129.214792 250.145421 
L 129.214792 249.027056 
L 129.858039 249.027056 
L 129.858039 247.34951 
L 130.170864 247.34951 
L 130.170864 246.231145 
L 130.478102 246.231145 
L 130.478102 245.112781 
L 130.629687 245.112781 
L 130.629687 244.553598 
L 131.937015 244.553598 
L 131.937015 243.994416 
L 132.35161 243.994416 
L 132.35161 242.876052 
L 132.487617 242.876052 
L 132.487617 241.757687 
L 132.756449 241.757687 
L 132.756449 239.520958 
L 132.889306 239.520958 
L 132.889306 237.284229 
L 133.15198 237.284229 
L 133.15198 236.165865 
L 133.665597 236.165865 
L 133.665597 235.0475 
L 134.04099 235.0475 
L 134.04099 234.488318 
L 136.675441 234.488318 
L 136.675441 232.251589 
L 137.805719 232.251589 
L 137.805719 231.692407 
L 138.19899 231.692407 
L 138.19899 230.574042 
L 139.327583 230.574042 
L 139.327583 228.896496 
L 139.776821 228.896496 
L 139.776821 225.541402 
L 145.717145 225.541402 
L 145.717145 224.423038 
L 147.561225 224.423038 
L 147.561225 223.304673 
L 150.977803 223.304673 
L 150.977803 221.627126 
L 156.031083 221.627126 
L 156.031083 221.067944 
L 157.922915 221.067944 
L 157.922915 220.508762 
L 158.289641 220.508762 
L 158.289641 219.94958 
L 159.571136 219.94958 
L 159.655131 218.272033 
L 159.987068 218.272033 
L 159.987068 217.712851 
L 160.868192 217.712851 
L 160.946101 214.91694 
L 161.976942 214.91694 
L 161.976942 214.357757 
L 162.315251 214.357757 
L 162.315251 212.680211 
L 163.0415 212.680211 
L 163.0415 212.121028 
L 164.597679 212.121028 
L 164.597679 211.561846 
L 166.500268 211.561846 
L 166.500268 209.884299 
L 166.779423 209.884299 
L 166.779423 208.206753 
L 167.360233 208.206753 
L 167.360233 207.64757 
L 169.739969 207.64757 
L 169.739969 206.529206 
L 171.170808 206.529206 
L 171.170808 205.970024 
L 171.426331 205.970024 
L 171.468551 203.174112 
L 171.622479 203.174112 
L 171.622479 200.378201 
L 172.793697 200.378201 
L 172.793697 198.141472 
L 173.419862 198.141472 
L 173.419862 197.58229 
L 174.747684 197.58229 
L 174.747684 196.463926 
L 175.508935 196.463926 
L 175.520046 195.345561 
L 176.001945 195.345561 
L 176.001945 194.227197 
L 176.565044 194.227197 
L 176.565044 193.668014 
L 177.221328 193.668014 
L 177.221328 191.990468 
L 177.341643 191.990468 
L 177.381561 189.194556 
L 177.872881 189.194556 
L 177.872881 188.635374 
L 178.170601 188.635374 
L 178.218141 187.51701 
L 179.115346 187.51701 
L 179.115346 186.957828 
L 179.330298 186.957828 
L 179.330298 185.839463 
L 179.595265 185.839463 
L 179.595265 181.925187 
L 179.959495 181.925187 
L 179.959495 180.806823 
L 180.47513 180.806823 
L 180.47513 180.247641 
L 180.788704 180.247641 
L 180.788704 179.688458 
L 181.096666 179.688458 
L 181.184793 177.451729 
L 181.320109 177.451729 
L 181.320109 176.333365 
L 181.493658 176.333365 
L 181.595393 174.655818 
L 181.73527 174.655818 
L 181.73527 173.537454 
L 182.155761 173.537454 
L 182.155761 172.419089 
L 182.64715 172.419089 
L 182.64715 169.623178 
L 183.238738 169.623178 
L 183.330686 166.827267 
L 183.652151 166.827267 
L 183.652151 165.708902 
L 184.7582 165.708902 
L 184.7582 165.14972 
L 185.124343 165.14972 
L 185.156092 164.031356 
L 185.357911 164.031356 
L 185.357911 162.353809 
L 185.754583 162.353809 
L 185.754583 160.11708 
L 186.214051 160.11708 
L 186.25576 155.08444 
L 186.788969 155.08444 
L 186.788969 153.966075 
L 187.484381 153.966075 
L 187.484381 152.847711 
L 187.633342 152.847711 
L 187.633342 151.729346 
L 187.927449 151.729346 
L 187.927449 151.170164 
L 188.099392 151.170164 
L 188.147443 149.492617 
L 188.327767 149.492617 
L 188.327767 148.933435 
L 188.469631 148.933435 
L 188.469631 147.815071 
L 188.91895 147.815071 
L 188.985094 144.459977 
L 189.202081 144.459977 
L 189.297095 142.78243 
L 189.549566 142.78243 
L 189.642685 139.986519 
L 189.715845 139.986519 
L 189.740163 138.308973 
L 190.398118 138.308973 
L 190.398118 137.74979 
L 190.782058 137.74979 
L 190.886952 136.631426 
L 191.264701 136.631426 
L 191.357856 132.71715 
L 191.402039 132.71715 
L 191.472497 129.921239 
L 191.573277 129.921239 
L 191.573277 129.362057 
L 191.915006 129.362057 
L 191.915006 126.006963 
L 192.068508 126.006963 
L 192.068508 124.888599 
L 192.350596 124.888599 
L 192.350596 123.770234 
L 192.533363 123.770234 
L 192.615801 122.65187 
L 192.783575 122.65187 
L 192.783575 120.974323 
L 192.998057 120.974323 
L 192.998057 119.296776 
L 193.197976 119.296776 
L 193.197976 118.737594 
L 193.430932 118.737594 
L 193.430932 118.178412 
L 193.841698 118.178412 
L 193.906673 114.264136 
L 194.11145 114.264136 
L 194.11145 113.145772 
L 194.287719 113.145772 
L 194.365898 110.909043 
L 194.914219 110.909043 
L 194.914219 110.349861 
L 195.114527 110.349861 
L 195.114527 108.672314 
L 195.504805 108.672314 
L 195.504805 108.113132 
L 195.859202 108.113132 
L 195.954294 105.876403 
L 196.079151 105.876403 
L 196.079151 104.198856 
L 196.372518 104.198856 
L 196.418732 102.521309 
L 196.540275 102.521309 
L 196.641452 98.607033 
L 196.780816 98.607033 
L 196.825947 95.811122 
L 197.011671 95.811122 
L 197.011671 93.574393 
L 197.122783 93.574393 
L 197.185955 89.100935 
L 197.342878 89.100935 
L 197.392792 84.627477 
L 197.82955 84.627477 
L 197.926462 81.272384 
L 198.067819 81.272384 
L 198.067819 80.713202 
L 198.273261 80.713202 
L 198.273261 79.594837 
L 198.920934 79.594837 
L 198.920934 76.239744 
L 199.144653 76.239744 
L 199.144653 75.680562 
L 199.418195 75.680562 
L 199.437568 72.88465 
L 199.804284 72.88465 
L 199.831339 70.647921 
L 199.971349 70.647921 
L 199.971349 70.088739 
L 200.255909 70.088739 
L 200.255909 69.529557 
L 200.376811 69.529557 
L 200.423891 67.85201 
L 200.489066 67.85201 
L 200.489066 65.615281 
L 200.672827 65.615281 
L 200.780615 63.378552 
L 200.900439 63.378552 
L 200.900439 62.260188 
L 201.019434 62.260188 
L 201.039607 60.023459 
L 201.137612 60.023459 
L 201.207632 57.78673 
L 201.277368 57.78673 
L 201.354247 56.109183 
L 201.430785 56.109183 
L 201.51434 52.194907 
L 201.59749 52.194907 
L 201.59749 51.076543 
L 201.854176 51.076543 
L 201.854176 50.517361 
L 202.009704 50.517361 
L 202.014467 48.839814 
L 202.435525 48.839814 
L 202.518976 47.162267 
L 202.860131 47.162267 
L 202.860131 46.603085 
L 202.973113 46.603085 
L 202.988872 43.247992 
L 203.154584 43.247992 
L 203.154584 42.688809 
L 203.3143 42.688809 
L 203.369412 40.45208 
L 203.487855 40.45208 
L 203.577243 38.774534 
L 203.661841 38.774534 
L 203.741718 36.537805 
L 203.844793 36.537805 
L 203.949382 35.41944 
L 204.000379 35.41944 
L 204.055455 33.741894 
L 204.120893 33.741894 
L 204.177685 31.505165 
L 204.236383 31.505165 
L 204.319892 29.268436 
L 204.353182 29.268436 
L 204.390557 27.031707 
L 204.578275 27.031707 
L 204.619258 25.913342 
L 204.836877 25.913342 
L 204.903441 23.676613 
L 205.075712 23.676613 
L 205.1731 20.32152 
L 205.230479 20.32152 
L 205.230479 19.762337 
L 205.803542 19.762337 
L 205.902607 16.966426 
L 206.031299 16.966426 
L 206.031299 16.407244 
L 206.551291 16.407244 
L 206.622487 10.815422 
L 206.945534 10.815422 
L 206.945534 9.697057 
L 333.429677 9.697057 
L 333.429677 9.697057 
" style="fill:none;stroke:#000080;stroke-linecap:square;stroke-width:1.5;"/>
   </g>
   <g id="line2d_25">
    <defs>
     <path d="M 0 6 
C 1.591219 6 3.117479 5.367802 4.242641 4.242641 
C 5.367802 3.117479 6 1.591219 6 0 
C 6 -1.591219 5.367802 -3.117479 4.242641 -4.242641 
C 3.117479 -5.367802 1.591219 -6 0 -6 
C -1.591219 -6 -3.117479 -5.367802 -4.242641 -4.242641 
C -5.367802 -3.117479 -6 -1.591219 -6 0 
C -6 1.591219 -5.367802 3.117479 -4.242641 4.242641 
C -3.117479 5.367802 -1.591219 6 0 6 
z
" id="m54c3a23ad4" style="stroke:#000080;stroke-width:1.5;"/>
    </defs>
    <g>
     <use style="fill-opacity:0;stroke:#000080;stroke-width:1.5;" x="82.623151" xlink:href="#m54c3a23ad4" y="259.651519"/>
     <use style="fill-opacity:0;stroke:#000080;stroke-width:1.5;" x="173.419862" xlink:href="#m54c3a23ad4" y="198.141472"/>
     <use style="fill-opacity:0;stroke:#000080;stroke-width:1.5;" x="195.504805" xlink:href="#m54c3a23ad4" y="108.672314"/>
     <use style="fill-opacity:0;stroke:#000080;stroke-width:1.5;" x="206.945534" xlink:href="#m54c3a23ad4" y="10.815422"/>
     <use style="fill-opacity:0;stroke:#000080;stroke-width:1.5;" x="206.945534" xlink:href="#m54c3a23ad4" y="9.697057"/>
     <use style="fill-opacity:0;stroke:#000080;stroke-width:1.5;" x="333.429677" xlink:href="#m54c3a23ad4" y="9.697057"/>
    </g>
   </g>
   <g id="line2d_26">
    <path style="fill:none;stroke:#000080;stroke-linecap:square;stroke-width:1.5;"/>
    <g/>
   </g>
   <g id="line2d_27">
    <defs>
     <path d="M 0 1.5 
C 0.397805 1.5 0.77937 1.341951 1.06066 1.06066 
C 1.341951 0.77937 1.5 0.397805 1.5 0 
C 1.5 -0.397805 1.341951 -0.77937 1.06066 -1.06066 
C 0.77937 -1.341951 0.397805 -1.5 0 -1.5 
C -0.397805 -1.5 -0.77937 -1.341951 -1.06066 -1.06066 
C -1.341951 -0.77937 -1.5 -0.397805 -1.5 0 
C -1.5 0.397805 -1.341951 0.77937 -1.06066 1.06066 
C -0.77937 1.341951 -0.397805 1.5 0 1.5 
z
" id="m7a1a79efe2" style="stroke:#ff00ff;"/>
    </defs>
    <g>
     <use style="fill:#ff00ff;stroke:#ff00ff;" x="346.250418" xlink:href="#m7a1a79efe2" y="194.227197"/>
     <use style="fill:#ff00ff;stroke:#ff00ff;" x="346.250418" xlink:href="#m7a1a79efe2" y="194.227197"/>
    </g>
   </g>
   <g id="line2d_28">
    <path d="M 163.62783 294.88 
L 163.62783 293.761636 
L 172.871606 293.761636 
L 172.871606 292.643271 
L 173.344402 292.643271 
L 173.344402 290.965724 
L 175.386242 290.965724 
L 175.386242 289.84736 
L 179.151358 289.84736 
L 179.151358 288.169813 
L 179.551386 288.169813 
L 179.551386 287.610631 
L 183.933698 287.610631 
L 183.933698 285.933084 
L 184.136827 285.933084 
L 184.136827 284.255537 
L 188.152773 284.255537 
L 188.152773 283.696355 
L 190.841424 283.696355 
L 190.841424 281.459626 
L 196.129512 281.459626 
L 196.129512 280.900444 
L 215.937549 280.900444 
L 215.937549 280.341262 
L 217.596708 280.341262 
L 217.596708 279.782079 
L 220.60679 279.782079 
L 220.60679 279.222897 
L 222.133887 279.222897 
L 222.133887 278.663715 
L 222.454058 278.663715 
L 222.454058 278.104533 
L 224.816744 278.104533 
L 224.925861 276.986168 
L 225.255291 276.986168 
L 225.255291 276.426986 
L 226.25688 276.426986 
L 226.25688 275.308622 
L 227.325744 275.308622 
L 227.343235 273.631075 
L 227.483071 273.631075 
L 227.483071 272.51271 
L 227.602417 272.51271 
L 227.602417 271.953528 
L 227.780163 271.953528 
L 227.780163 270.275981 
L 228.079019 270.275981 
L 228.079019 269.716799 
L 228.968526 269.716799 
L 228.968526 269.157617 
L 229.558275 269.157617 
L 229.656461 267.48007 
L 229.860611 267.48007 
L 229.860611 266.361706 
L 230.12104 266.361706 
L 230.212377 263.565795 
L 230.663277 263.565795 
L 230.663277 263.006612 
L 231.051211 263.006612 
L 231.051211 262.44743 
L 231.254355 262.44743 
L 231.254355 261.888248 
L 231.52382 261.888248 
L 231.52382 261.329066 
L 231.909377 261.329066 
L 231.909377 260.210701 
L 232.059552 260.210701 
L 232.059552 259.651519 
L 232.44804 259.651519 
L 232.44804 259.092337 
L 232.695573 259.092337 
L 232.695573 258.533154 
L 232.818017 258.533154 
L 232.818017 257.41479 
L 233.181761 257.41479 
L 233.181761 255.737243 
L 233.448557 255.737243 
L 233.448557 255.178061 
L 233.560827 255.178061 
L 233.565014 252.941332 
L 233.825601 252.941332 
L 233.829724 251.822967 
L 234.739084 251.822967 
L 234.816749 250.704603 
L 234.901812 250.704603 
L 234.901812 250.145421 
L 235.032643 250.145421 
L 235.032643 249.586238 
L 235.228943 249.586238 
L 235.228943 247.908692 
L 235.446581 247.908692 
L 235.446581 247.34951 
L 235.821447 247.34951 
L 235.821447 246.790327 
L 235.987194 246.790327 
L 235.987194 246.231145 
L 236.278259 246.231145 
L 236.366438 244.553598 
L 236.641665 244.553598 
L 236.641665 243.994416 
L 237.23499 243.994416 
L 237.23622 242.316869 
L 238.494937 242.316869 
L 238.494937 241.757687 
L 238.661564 241.757687 
L 238.661564 240.639323 
L 238.847321 240.639323 
L 238.856836 238.961776 
L 239.938967 238.961776 
L 239.938967 238.402594 
L 240.475409 238.402594 
L 240.475409 237.843411 
L 240.8233 237.843411 
L 240.8233 237.284229 
L 242.958428 237.284229 
L 242.958428 236.725047 
L 247.615616 236.725047 
L 247.615616 236.165865 
L 270.635582 236.165865 
L 270.635582 235.606682 
L 274.364062 235.606682 
L 274.364062 234.488318 
L 274.999249 234.488318 
L 275.000276 233.369954 
L 275.511235 233.369954 
L 275.511235 232.810771 
L 276.147434 232.810771 
L 276.206868 231.133225 
L 276.286712 231.133225 
L 276.37515 230.01486 
L 276.401568 230.01486 
L 276.401568 228.896496 
L 276.528493 228.896496 
L 276.622368 227.778131 
L 276.679038 227.778131 
L 276.715827 226.659767 
L 276.810413 226.659767 
L 276.810413 226.100584 
L 276.952594 226.100584 
L 277.030078 223.863855 
L 277.408122 223.863855 
L 277.408122 223.304673 
L 279.262701 223.304673 
L 279.262701 222.745491 
L 287.65492 222.745491 
L 287.729949 221.067944 
L 287.844034 221.067944 
L 287.95245 218.272033 
L 288.032329 218.272033 
L 288.032329 216.594486 
L 294.444265 216.594486 
L 294.54921 215.476122 
L 299.371056 215.476122 
L 299.371056 214.357757 
L 299.621917 214.357757 
L 299.621917 213.798575 
L 302.886466 213.798575 
L 302.95722 212.680211 
L 303.016128 212.680211 
L 303.090415 211.561846 
L 303.292792 211.561846 
L 303.292792 211.002664 
L 306.084729 211.002664 
L 306.122686 209.884299 
L 308.724464 209.884299 
L 308.724464 209.325117 
L 312.971886 209.325117 
L 313.01135 208.206753 
L 314.75209 208.206753 
L 314.794707 206.529206 
L 316.378067 206.529206 
L 316.485124 204.851659 
L 317.869927 204.851659 
L 317.869927 204.292477 
L 320.566823 204.292477 
L 320.566823 203.733295 
L 321.682308 203.733295 
L 321.682308 203.174112 
L 323.863459 203.174112 
L 323.863459 202.61493 
L 325.694585 202.61493 
L 325.712 201.496566 
L 327.404797 201.496566 
L 327.404797 200.937384 
L 328.200109 200.937384 
L 328.205582 199.819019 
L 328.97468 199.819019 
L 328.97468 199.259837 
L 330.391529 199.259837 
L 330.391529 198.700655 
L 331.716163 198.700655 
L 331.716163 198.141472 
L 333.429677 198.141472 
L 333.429677 198.141472 
" style="fill:none;stroke:#ff00ff;stroke-linecap:square;stroke-width:1.5;"/>
   </g>
   <g id="line2d_29">
    <defs>
     <path d="M -0 8.485281 
L 5.091169 0 
L 0 -8.485281 
L -5.091169 -0 
z
" id="mb45c76a40c" style="stroke:#ff00ff;stroke-linejoin:miter;stroke-width:1.5;"/>
    </defs>
    <g>
     <use style="fill-opacity:0;stroke:#ff00ff;stroke-linejoin:miter;stroke-width:1.5;" x="231.909377" xlink:href="#mb45c76a40c" y="260.210701"/>
     <use style="fill-opacity:0;stroke:#ff00ff;stroke-linejoin:miter;stroke-width:1.5;" x="287.95245" xlink:href="#mb45c76a40c" y="218.272033"/>
     <use style="fill-opacity:0;stroke:#ff00ff;stroke-linejoin:miter;stroke-width:1.5;" x="331.716163" xlink:href="#mb45c76a40c" y="198.141472"/>
     <use style="fill-opacity:0;stroke:#ff00ff;stroke-linejoin:miter;stroke-width:1.5;" x="333.429677" xlink:href="#mb45c76a40c" y="198.141472"/>
    </g>
   </g>
   <g id="line2d_30">
    <path style="fill:none;stroke:#ff00ff;stroke-linecap:square;stroke-width:1.5;"/>
    <g/>
   </g>
   <g id="line2d_31">
    <path clip-path="url(#pa5a9b9c8d5)" d="M 274.912549 234.488318 
" style="fill:none;stroke:#ff00ff;stroke-linecap:square;stroke-width:1.5;"/>
    <defs>
     <path d="M -12 12 
L 12 -12 
M -12 -12 
L 12 12 
" id="m9a00707720" style="stroke:#ff00ff;stroke-width:3;"/>
    </defs>
    <g clip-path="url(#pa5a9b9c8d5)">
     <use style="fill:#ff00ff;stroke:#ff00ff;stroke-width:3;" x="274.912549" xlink:href="#m9a00707720" y="234.488318"/>
    </g>
   </g>
   <g id="line2d_32">
    <defs>
     <path d="M 0 1.5 
C 0.397805 1.5 0.77937 1.341951 1.06066 1.06066 
C 1.341951 0.77937 1.5 0.397805 1.5 0 
C 1.5 -0.397805 1.341951 -0.77937 1.06066 -1.06066 
C 0.77937 -1.341951 0.397805 -1.5 0 -1.5 
C -0.397805 -1.5 -0.77937 -1.341951 -1.06066 -1.06066 
C -1.341951 -0.77937 -1.5 -0.397805 -1.5 0 
C -1.5 0.397805 -1.341951 0.77937 -1.06066 1.06066 
C -0.77937 1.341951 -0.397805 1.5 0 1.5 
z
" id="m3d86813967" style="stroke:#ffa500;"/>
    </defs>
    <g>
     <use style="fill:#ffa500;stroke:#ffa500;" x="326.467336" xlink:href="#m3d86813967" y="9.697057"/>
     <use style="fill:#ffa500;stroke:#ffa500;" x="326.467336" xlink:href="#m3d86813967" y="9.697057"/>
    </g>
   </g>
   <g id="line2d_33">
    <path d="M 49.144027 294.88 
L 49.144027 289.288178 
L 61.069532 289.288178 
L 61.069532 288.169813 
L 68.045504 288.169813 
L 68.045504 283.696355 
L 72.995036 283.696355 
L 72.995036 282.018808 
L 84.92054 282.018808 
L 84.92054 281.459626 
L 90.399494 281.459626 
L 90.399494 280.900444 
L 102.324999 280.900444 
L 102.324999 279.782079 
L 105.848459 279.782079 
L 105.848459 278.663715 
L 106.47416 278.663715 
L 106.47416 278.104533 
L 107.077901 278.104533 
L 107.077901 276.986168 
L 111.269386 276.986168 
L 111.269386 276.426986 
L 120.426105 276.426986 
L 120.426105 275.867804 
L 129.050151 275.867804 
L 129.050151 275.308622 
L 129.214792 275.308622 
L 129.214792 274.749439 
L 130.478102 274.749439 
L 130.478102 273.631075 
L 131.076592 273.631075 
L 131.076592 273.071893 
L 131.654961 273.071893 
L 131.654961 272.51271 
L 132.214518 272.51271 
L 132.214518 271.394346 
L 134.529104 271.394346 
L 134.529104 270.835164 
L 137.403248 270.835164 
L 137.403248 270.275981 
L 138.101512 270.275981 
L 138.101512 269.716799 
L 139.327583 269.716799 
L 139.327583 269.157617 
L 142.555192 269.157617 
L 142.555192 268.598435 
L 143.932316 268.598435 
L 143.932316 266.920888 
L 146.811816 266.920888 
L 146.811816 265.802523 
L 151.524035 265.802523 
L 151.524035 264.124977 
L 155.612283 264.124977 
L 155.612283 263.006612 
L 156.473567 263.006612 
L 156.473567 262.44743 
L 159.543047 262.44743 
L 159.543047 261.888248 
L 160.096306 261.888248 
L 160.096306 261.329066 
L 162.670491 261.329066 
L 162.670491 260.210701 
L 164.57671 260.210701 
L 164.57671 259.092337 
L 167.466985 259.092337 
L 167.466985 258.533154 
L 168.797658 258.533154 
L 168.797658 257.41479 
L 169.187218 257.41479 
L 169.187218 256.855608 
L 170.455356 256.855608 
L 170.455356 256.296425 
L 170.736319 256.296425 
L 170.736319 255.178061 
L 171.22792 255.178061 
L 171.22792 253.500514 
L 171.733569 253.500514 
L 171.733569 252.38215 
L 172.897497 252.38215 
L 172.897497 251.263785 
L 173.369592 251.263785 
L 173.369592 250.704603 
L 173.619486 250.704603 
L 173.619486 250.145421 
L 175.172234 250.145421 
L 175.172234 247.908692 
L 179.124356 247.908692 
L 179.124356 247.34951 
L 179.401356 247.34951 
L 179.401356 246.790327 
L 180.40838 246.790327 
L 180.40838 246.231145 
L 186.92116 246.231145 
L 186.92116 245.671963 
L 187.148666 245.671963 
L 187.148666 244.553598 
L 189.470757 244.553598 
L 189.470757 243.994416 
L 189.725576 243.994416 
L 189.725576 242.316869 
L 190.950489 242.316869 
L 190.950489 241.757687 
L 192.093959 241.757687 
L 192.174306 240.639323 
L 192.640456 240.639323 
L 192.640456 240.08014 
L 193.67238 240.08014 
L 193.67238 238.961776 
L 194.054811 238.961776 
L 194.054811 235.606682 
L 195.203203 235.606682 
L 195.203203 235.0475 
L 196.922262 235.0475 
L 196.922262 234.488318 
L 198.013819 234.488318 
L 198.013819 233.369954 
L 199.031741 233.369954 
L 199.031741 231.133225 
L 200.30595 231.133225 
L 200.37943 229.455678 
L 202.407617 229.455678 
L 202.407617 228.337313 
L 203.585939 228.337313 
L 203.585939 226.100584 
L 204.051224 226.100584 
L 204.051224 225.541402 
L 204.359417 225.541402 
L 204.446467 223.863855 
L 204.522791 223.863855 
L 204.522791 223.304673 
L 204.676471 223.304673 
L 204.676471 222.745491 
L 204.885313 222.745491 
L 204.885313 222.186309 
L 205.015813 222.186309 
L 205.015813 220.508762 
L 205.250221 220.508762 
L 205.254166 216.594486 
L 205.500934 216.594486 
L 205.500934 216.035304 
L 205.700059 216.035304 
L 205.700059 215.476122 
L 206.586013 215.476122 
L 206.586013 214.91694 
L 206.975901 214.91694 
L 206.975901 214.357757 
L 207.197559 214.357757 
L 207.197559 213.798575 
L 207.388541 213.798575 
L 207.388541 213.239393 
L 207.711331 213.239393 
L 207.711331 212.680211 
L 207.83062 212.680211 
L 207.83062 212.121028 
L 208.698248 212.121028 
L 208.698248 211.561846 
L 208.903701 211.561846 
L 208.903701 211.002664 
L 209.230851 211.002664 
L 209.308948 209.884299 
L 209.37583 209.884299 
L 209.485696 206.529206 
L 209.5826 206.529206 
L 209.628553 202.055748 
L 210.09784 202.055748 
L 210.178035 200.378201 
L 211.447231 200.378201 
L 211.447231 199.819019 
L 211.724372 199.819019 
L 211.724372 199.259837 
L 212.054342 199.259837 
L 212.054342 198.700655 
L 212.205135 198.700655 
L 212.239342 196.463926 
L 212.33633 196.463926 
L 212.33633 195.345561 
L 213.373525 195.345561 
L 213.439844 193.108832 
L 213.85044 193.108832 
L 213.85044 191.431285 
L 214.176468 191.431285 
L 214.212836 188.076192 
L 214.326138 188.076192 
L 214.326138 186.398645 
L 214.889606 186.398645 
L 214.889606 185.839463 
L 215.016456 185.839463 
L 215.103473 184.721099 
L 215.145707 184.721099 
L 215.145707 184.161916 
L 215.555941 184.161916 
L 215.581935 183.043552 
L 215.969323 183.043552 
L 215.969323 181.925187 
L 216.180712 181.925187 
L 216.180712 181.366005 
L 216.840015 181.366005 
L 216.840015 180.247641 
L 217.713755 180.247641 
L 217.713755 179.688458 
L 274.978146 179.688458 
L 275.087013 176.333365 
L 275.09648 176.333365 
L 275.206024 165.14972 
L 275.210015 165.14972 
L 275.295267 149.492617 
L 275.324385 149.492617 
L 275.433894 135.513061 
L 275.436498 135.513061 
L 275.491217 128.802874 
L 286.914428 128.802874 
L 287.020401 113.145772 
L 287.028826 113.145772 
L 287.12982 87.982571 
L 293.879578 87.982571 
L 293.990455 68.411192 
L 293.992589 68.411192 
L 294.019188 62.81937 
L 298.828033 62.81937 
L 298.91006 51.635725 
L 302.654312 51.635725 
L 302.726103 39.892898 
L 305.788792 39.892898 
L 305.830459 32.623529 
L 308.432714 32.623529 
L 308.479899 28.150071 
L 310.726528 28.150071 
L 310.756241 24.235795 
L 312.744189 24.235795 
L 312.774514 20.32152 
L 314.554036 20.32152 
L 314.588055 17.525609 
L 316.195994 17.525609 
L 316.214182 15.848062 
L 317.697256 15.848062 
L 317.697256 15.28888 
L 319.062023 15.28888 
L 319.069729 13.611333 
L 320.341301 13.611333 
L 320.349502 12.492968 
L 322.638293 12.492968 
L 322.638538 11.374604 
L 323.677107 11.374604 
L 323.677107 10.815422 
L 325.590095 10.815422 
L 325.590095 10.256239 
L 326.467336 10.256239 
L 326.467336 9.697057 
L 333.429677 9.697057 
L 333.429677 9.697057 
" style="fill:none;stroke:#ffa500;stroke-linecap:square;stroke-width:1.5;"/>
   </g>
   <g id="line2d_34">
    <defs>
     <path d="M 0 -6 
L -1.347084 -1.854102 
L -5.706339 -1.854102 
L -2.179628 0.708204 
L -3.526712 4.854102 
L -0 2.291796 
L 3.526712 4.854102 
L 2.179628 0.708204 
L 5.706339 -1.854102 
L 1.347084 -1.854102 
z
" id="m21a0d8e9dc" style="stroke:#ffa500;stroke-linejoin:bevel;stroke-width:1.5;"/>
    </defs>
    <g>
     <use style="fill-opacity:0;stroke:#ffa500;stroke-linejoin:bevel;stroke-width:1.5;" x="138.101512" xlink:href="#m21a0d8e9dc" y="270.275981"/>
     <use style="fill-opacity:0;stroke:#ffa500;stroke-linejoin:bevel;stroke-width:1.5;" x="210.178035" xlink:href="#m21a0d8e9dc" y="201.496566"/>
     <use style="fill-opacity:0;stroke:#ffa500;stroke-linejoin:bevel;stroke-width:1.5;" x="275.413686" xlink:href="#m21a0d8e9dc" y="138.868155"/>
     <use style="fill-opacity:0;stroke:#ffa500;stroke-linejoin:bevel;stroke-width:1.5;" x="316.21041" xlink:href="#m21a0d8e9dc" y="16.407244"/>
     <use style="fill-opacity:0;stroke:#ffa500;stroke-linejoin:bevel;stroke-width:1.5;" x="326.467336" xlink:href="#m21a0d8e9dc" y="9.697057"/>
     <use style="fill-opacity:0;stroke:#ffa500;stroke-linejoin:bevel;stroke-width:1.5;" x="333.429677" xlink:href="#m21a0d8e9dc" y="9.697057"/>
    </g>
   </g>
   <g id="line2d_35">
    <path style="fill:none;stroke:#ffa500;stroke-linecap:square;stroke-width:1.5;"/>
    <g/>
   </g>
   <g id="line2d_36">
    <path clip-path="url(#pa5a9b9c8d5)" d="M 274.912549 179.688458 
" style="fill:none;stroke:#ffa500;stroke-linecap:square;stroke-width:1.5;"/>
    <defs>
     <path d="M -12 12 
L 12 -12 
M -12 -12 
L 12 12 
" id="me92bc7d959" style="stroke:#ffa500;stroke-width:3;"/>
    </defs>
    <g clip-path="url(#pa5a9b9c8d5)">
     <use style="fill:#ffa500;stroke:#ffa500;stroke-width:3;" x="274.912549" xlink:href="#me92bc7d959" y="179.688458"/>
    </g>
   </g>
   <g id="line2d_37">
    <defs>
     <path d="M 0 1.5 
C 0.397805 1.5 0.77937 1.341951 1.06066 1.06066 
C 1.341951 0.77937 1.5 0.397805 1.5 0 
C 1.5 -0.397805 1.341951 -0.77937 1.06066 -1.06066 
C 0.77937 -1.341951 0.397805 -1.5 0 -1.5 
C -0.397805 -1.5 -0.77937 -1.341951 -1.06066 -1.06066 
C -1.341951 -0.77937 -1.5 -0.397805 -1.5 0 
C -1.5 0.397805 -1.341951 0.77937 -1.06066 1.06066 
C -0.77937 1.341951 -0.397805 1.5 0 1.5 
z
" id="mb5ae97eedd" style="stroke:#6495ed;"/>
    </defs>
    <g>
     <use style="fill:#6495ed;stroke:#6495ed;" x="325.574563" xlink:href="#mb5ae97eedd" y="238.961776"/>
     <use style="fill:#6495ed;stroke:#6495ed;" x="325.574563" xlink:href="#mb5ae97eedd" y="238.961776"/>
    </g>
   </g>
   <g id="line2d_38">
    <path d="M 49.144027 294.88 
L 49.144027 290.406542 
L 61.069532 290.406542 
L 61.069532 289.84736 
L 68.045504 289.84736 
L 68.045504 286.492266 
L 72.995036 286.492266 
L 72.995036 283.696355 
L 86.946982 283.696355 
L 86.946982 283.137173 
L 88.759695 283.137173 
L 88.759695 282.018808 
L 91.896513 282.018808 
L 91.896513 279.782079 
L 93.273637 279.782079 
L 93.273637 279.222897 
L 95.735668 279.222897 
L 95.735668 278.663715 
L 100.6852 278.663715 
L 100.6852 277.545351 
L 102.324999 277.545351 
L 102.324999 276.986168 
L 104.524355 276.986168 
L 104.524355 275.867804 
L 107.077901 275.867804 
L 107.077901 274.749439 
L 109.814588 274.749439 
L 109.814588 274.190257 
L 129.050151 274.190257 
L 129.050151 273.071893 
L 133.021144 273.071893 
L 133.021144 272.51271 
L 138.003478 272.51271 
L 138.003478 271.394346 
L 139.687907 271.394346 
L 139.687907 269.716799 
L 141.058173 269.716799 
L 141.058173 268.598435 
L 141.22203 268.598435 
L 141.22203 268.039252 
L 141.384341 268.039252 
L 141.384341 267.48007 
L 150.124495 267.48007 
L 150.124495 266.920888 
L 159.288155 266.920888 
L 159.288155 266.361706 
L 159.8219 266.361706 
L 159.8219 265.802523 
L 162.505625 265.802523 
L 162.505625 265.243341 
L 164.867972 265.243341 
L 164.867972 264.124977 
L 165.052642 264.124977 
L 165.052642 263.006612 
L 166.462703 263.006612 
L 166.462703 262.44743 
L 168.731864 262.44743 
L 168.731864 261.329066 
L 171.056013 261.329066 
L 171.056013 260.210701 
L 175.408615 260.210701 
L 175.408615 259.092337 
L 176.19526 259.092337 
L 176.19526 257.973972 
L 177.12042 257.973972 
L 177.12042 256.855608 
L 177.500764 256.855608 
L 177.500764 256.296425 
L 177.619146 256.296425 
L 177.619146 255.737243 
L 178.925035 255.737243 
L 178.925035 255.178061 
L 180.374907 255.178061 
L 180.374907 254.618879 
L 181.414989 254.618879 
L 181.414989 253.500514 
L 183.471192 253.500514 
L 183.471192 252.941332 
L 185.87669 252.941332 
L 185.87669 252.38215 
L 186.702207 252.38215 
L 186.702207 250.704603 
L 187.583831 250.704603 
L 187.583831 249.586238 
L 190.351277 249.586238 
L 190.351277 249.027056 
L 191.171038 249.027056 
L 191.171038 248.467874 
L 200.618679 248.467874 
L 200.618679 247.908692 
L 275.014341 247.908692 
L 275.014341 247.34951 
L 275.018479 247.34951 
L 275.018479 245.671963 
L 275.033794 245.671963 
L 275.033794 245.112781 
L 286.954292 245.112781 
L 286.954292 244.553598 
L 293.832495 244.553598 
L 293.832495 243.994416 
L 298.779396 243.994416 
L 298.779396 242.876052 
L 298.790102 242.876052 
L 298.790102 242.316869 
L 305.750091 242.316869 
L 305.750091 241.757687 
L 308.406846 241.757687 
L 308.406846 241.198505 
L 310.696983 241.198505 
L 310.696983 240.639323 
L 314.53884 240.639323 
L 314.53884 240.08014 
L 322.618528 240.08014 
L 322.618528 239.520958 
L 325.574563 239.520958 
L 325.574563 238.961776 
L 333.429677 238.961776 
" style="fill:none;stroke:#6495ed;stroke-linecap:square;stroke-width:1.5;"/>
   </g>
   <g id="line2d_39">
    <defs>
     <path d="M -0 6 
L 6 -6 
L -6 -6 
z
" id="mace258b281" style="stroke:#6495ed;stroke-linejoin:miter;stroke-width:1.5;"/>
    </defs>
    <g>
     <use style="fill-opacity:0;stroke:#6495ed;stroke-linejoin:miter;stroke-width:1.5;" x="102.324999" xlink:href="#mace258b281" y="276.986168"/>
     <use style="fill-opacity:0;stroke:#6495ed;stroke-linejoin:miter;stroke-width:1.5;" x="166.462703" xlink:href="#mace258b281" y="262.44743"/>
     <use style="fill-opacity:0;stroke:#6495ed;stroke-linejoin:miter;stroke-width:1.5;" x="200.618679" xlink:href="#mace258b281" y="248.467874"/>
     <use style="fill-opacity:0;stroke:#6495ed;stroke-linejoin:miter;stroke-width:1.5;" x="298.790102" xlink:href="#mace258b281" y="242.316869"/>
     <use style="fill-opacity:0;stroke:#6495ed;stroke-linejoin:miter;stroke-width:1.5;" x="325.574563" xlink:href="#mace258b281" y="238.961776"/>
     <use style="fill-opacity:0;stroke:#6495ed;stroke-linejoin:miter;stroke-width:1.5;" x="333.429677" xlink:href="#mace258b281" y="238.961776"/>
    </g>
   </g>
   <g id="line2d_40">
    <path style="fill:none;stroke:#6495ed;stroke-linecap:square;stroke-width:1.5;"/>
    <g/>
   </g>
   <g id="line2d_41">
    <path clip-path="url(#pa5a9b9c8d5)" d="M 274.912549 247.908692 
" style="fill:none;stroke:#6495ed;stroke-linecap:square;stroke-width:1.5;"/>
    <defs>
     <path d="M -12 12 
L 12 -12 
M -12 -12 
L 12 12 
" id="maac2f85b61" style="stroke:#6495ed;stroke-width:3;"/>
    </defs>
    <g clip-path="url(#pa5a9b9c8d5)">
     <use style="fill:#6495ed;stroke:#6495ed;stroke-width:3;" x="274.912549" xlink:href="#maac2f85b61" y="247.908692"/>
    </g>
   </g>
   <g id="line2d_42">
    <defs>
     <path d="M 0 1.5 
C 0.397805 1.5 0.77937 1.341951 1.06066 1.06066 
C 1.341951 0.77937 1.5 0.397805 1.5 0 
C 1.5 -0.397805 1.341951 -0.77937 1.06066 -1.06066 
C 0.77937 -1.341951 0.397805 -1.5 0 -1.5 
C -0.397805 -1.5 -0.77937 -1.341951 -1.06066 -1.06066 
C -1.341951 -0.77937 -1.5 -0.397805 -1.5 0 
C -1.5 0.397805 -1.341951 0.77937 -1.06066 1.06066 
C -0.77937 1.341951 -0.397805 1.5 0 1.5 
z
" id="m06895b8de3" style="stroke:#ff0000;"/>
    </defs>
    <g>
     <use style="fill:#ff0000;stroke:#ff0000;" x="148.440899" xlink:href="#m06895b8de3" y="9.697057"/>
     <use style="fill:#ff0000;stroke:#ff0000;" x="148.440899" xlink:href="#m06895b8de3" y="9.697057"/>
    </g>
   </g>
   <g id="line2d_43">
    <path d="M 49.144027 294.88 
L 49.144027 287.610631 
L 61.069532 287.610631 
L 61.069532 287.051449 
L 68.045504 287.051449 
L 68.045504 286.492266 
L 72.995036 286.492266 
L 72.995036 285.933084 
L 79.971009 285.933084 
L 79.971009 284.255537 
L 88.759695 284.255537 
L 88.759695 283.696355 
L 116.790561 283.696355 
L 116.790561 283.137173 
L 128.716065 283.137173 
L 128.716065 282.577991 
L 128.883919 282.577991 
L 128.883919 280.900444 
L 129.050151 280.900444 
L 129.050151 280.341262 
L 129.377872 280.341262 
L 129.377872 279.222897 
L 129.699468 279.222897 
L 129.699468 278.663715 
L 129.858039 278.663715 
L 129.858039 278.104533 
L 130.015162 278.104533 
L 130.015162 277.545351 
L 130.92891 277.545351 
L 130.92891 276.986168 
L 131.076592 276.986168 
L 131.076592 275.867804 
L 131.512181 275.867804 
L 131.512181 274.749439 
L 131.654961 274.749439 
L 131.654961 274.190257 
L 132.076326 274.190257 
L 132.076326 273.631075 
L 132.756449 273.631075 
L 132.756449 273.071893 
L 132.889306 273.071893 
L 132.889306 272.51271 
L 133.538623 272.51271 
L 133.538623 271.953528 
L 133.665597 271.953528 
L 133.665597 270.275981 
L 134.408368 270.275981 
L 134.408368 269.716799 
L 135.003752 269.716799 
L 135.003752 269.157617 
L 140.386678 269.157617 
L 140.386678 268.039252 
L 140.641569 268.039252 
L 140.641569 267.48007 
L 140.725701 267.48007 
L 140.725701 265.802523 
L 140.809423 265.802523 
L 140.809423 262.44743 
L 140.89274 262.44743 
L 140.89274 259.092337 
L 141.058173 259.092337 
L 141.058173 242.316869 
L 141.464926 242.316869 
L 141.464926 241.198505 
L 141.545135 241.198505 
L 141.545135 226.100584 
L 141.624972 226.100584 
L 141.624972 223.863855 
L 142.250673 223.863855 
L 142.250673 207.64757 
L 142.327309 207.64757 
L 142.327309 207.088388 
L 142.403606 207.088388 
L 142.403606 205.970024 
L 143.075465 205.970024 
L 143.075465 205.410841 
L 143.148522 205.410841 
L 143.148522 190.312921 
L 143.580466 190.312921 
L 143.580466 188.635374 
L 143.792438 188.635374 
L 143.792438 185.280281 
L 143.862519 185.280281 
L 143.862519 184.161916 
L 144.00183 184.161916 
L 144.00183 183.602734 
L 144.208705 183.602734 
L 144.208705 183.043552 
L 144.277114 183.043552 
L 144.277114 166.827267 
L 144.681953 166.827267 
L 144.681953 164.590538 
L 145.077485 164.590538 
L 145.077485 163.472173 
L 146.273185 163.472173 
L 146.273185 162.912991 
L 146.514661 162.912991 
L 146.514661 161.794627 
L 146.811816 161.794627 
L 146.811816 151.170164 
L 147.391159 151.170164 
L 147.391159 137.190608 
L 147.448035 137.190608 
L 147.448035 122.092688 
L 147.617542 122.092688 
L 147.617542 103.639674 
L 147.673676 103.639674 
L 147.673676 89.100935 
L 147.840985 89.100935 
L 147.840985 74.562197 
L 147.896396 74.562197 
L 147.896396 52.194907 
L 148.170801 52.194907 
L 148.170801 37.096987 
L 148.440899 37.096987 
L 148.440899 9.697057 
L 333.429677 9.697057 
" style="fill:none;stroke:#ff0000;stroke-linecap:square;stroke-width:1.5;"/>
   </g>
   <g id="line2d_44">
    <defs>
     <path d="M 0 -6 
L -5.196152 -3 
L -5.196152 3 
L -0 6 
L 5.196152 3 
L 5.196152 -3 
z
" id="m00a8ef5557" style="stroke:#ff0000;stroke-linejoin:miter;stroke-width:1.5;"/>
    </defs>
    <g>
     <use style="fill-opacity:0;stroke:#ff0000;stroke-linejoin:miter;stroke-width:1.5;" x="140.89274" xlink:href="#m00a8ef5557" y="262.44743"/>
     <use style="fill-opacity:0;stroke:#ff0000;stroke-linejoin:miter;stroke-width:1.5;" x="147.391159" xlink:href="#m00a8ef5557" y="137.190608"/>
     <use style="fill-opacity:0;stroke:#ff0000;stroke-linejoin:miter;stroke-width:1.5;" x="148.440899" xlink:href="#m00a8ef5557" y="37.096987"/>
     <use style="fill-opacity:0;stroke:#ff0000;stroke-linejoin:miter;stroke-width:1.5;" x="148.440899" xlink:href="#m00a8ef5557" y="9.697057"/>
     <use style="fill-opacity:0;stroke:#ff0000;stroke-linejoin:miter;stroke-width:1.5;" x="148.440899" xlink:href="#m00a8ef5557" y="9.697057"/>
     <use style="fill-opacity:0;stroke:#ff0000;stroke-linejoin:miter;stroke-width:1.5;" x="333.429677" xlink:href="#m00a8ef5557" y="9.697057"/>
    </g>
   </g>
   <g id="line2d_45">
    <path style="fill:none;stroke:#ff0000;stroke-linecap:square;stroke-width:1.5;"/>
    <g/>
   </g>
   <g id="line2d_46">
    <path d="M 333.429677 238.961776 
L 363.933742 289.176341 
" style="fill:none;stroke:#6495ed;stroke-linecap:square;stroke-width:1.5;"/>
    <g>
     <use style="fill-opacity:0;stroke:#6495ed;stroke-linejoin:miter;stroke-width:1.5;" x="333.429677" xlink:href="#mace258b281" y="238.961776"/>
     <use style="fill-opacity:0;stroke:#6495ed;stroke-linejoin:miter;stroke-width:1.5;" x="363.933742" xlink:href="#mace258b281" y="289.176341"/>
    </g>
   </g>
   <g id="line2d_47">
    <path d="M 333.429677 198.141472 
L 363.933742 220.732435 
" style="fill:none;stroke:#ff00ff;stroke-linecap:square;stroke-width:1.5;"/>
    <g>
     <use style="fill-opacity:0;stroke:#ff00ff;stroke-linejoin:miter;stroke-width:1.5;" x="333.429677" xlink:href="#mb45c76a40c" y="198.141472"/>
     <use style="fill-opacity:0;stroke:#ff00ff;stroke-linejoin:miter;stroke-width:1.5;" x="363.933742" xlink:href="#mb45c76a40c" y="220.732435"/>
    </g>
   </g>
   <g id="line2d_48">
    <path d="M 333.429677 9.697057 
L 363.933742 152.288529 
" style="fill:none;stroke:#ffa500;stroke-linecap:square;stroke-width:1.5;"/>
    <g>
     <use style="fill-opacity:0;stroke:#ffa500;stroke-linejoin:bevel;stroke-width:1.5;" x="333.429677" xlink:href="#m21a0d8e9dc" y="9.697057"/>
     <use style="fill-opacity:0;stroke:#ffa500;stroke-linejoin:bevel;stroke-width:1.5;" x="363.933742" xlink:href="#m21a0d8e9dc" y="152.288529"/>
    </g>
   </g>
   <g id="line2d_49">
    <path d="M 333.429677 9.697057 
L 363.933742 83.844622 
" style="fill:none;stroke:#000080;stroke-linecap:square;stroke-width:1.5;"/>
    <g>
     <use style="fill-opacity:0;stroke:#000080;stroke-width:1.5;" x="333.429677" xlink:href="#m54c3a23ad4" y="9.697057"/>
     <use style="fill-opacity:0;stroke:#000080;stroke-width:1.5;" x="363.933742" xlink:href="#m54c3a23ad4" y="83.844622"/>
    </g>
   </g>
   <g id="line2d_50">
    <path d="M 333.429677 9.697057 
L 363.933742 15.400716 
" style="fill:none;stroke:#ff0000;stroke-linecap:square;stroke-width:1.5;"/>
    <g>
     <use style="fill-opacity:0;stroke:#ff0000;stroke-linejoin:miter;stroke-width:1.5;" x="333.429677" xlink:href="#m00a8ef5557" y="9.697057"/>
     <use style="fill-opacity:0;stroke:#ff0000;stroke-linejoin:miter;stroke-width:1.5;" x="363.933742" xlink:href="#m00a8ef5557" y="15.400716"/>
    </g>
   </g>
   <g id="line2d_51">
    <path d="M 333.429677 294.88 
L 333.429677 9.697057 
" style="fill:none;stroke:#000000;stroke-linecap:square;stroke-width:1.5;"/>
   </g>
   <g id="patch_3">
    <path d="M 56.12 294.88 
L 56.12 6.845228 
" style="fill:none;stroke:#000000;stroke-linecap:square;stroke-linejoin:miter;stroke-width:0.8;"/>
   </g>
   <g id="patch_4">
    <path d="M 399.984 294.88 
L 399.984 6.845228 
" style="fill:none;stroke:#000000;stroke-linecap:square;stroke-linejoin:miter;stroke-width:0.8;"/>
   </g>
   <g id="patch_5">
    <path d="M 56.12 294.88 
L 399.984 294.88 
" style="fill:none;stroke:#000000;stroke-linecap:square;stroke-linejoin:miter;stroke-width:0.8;"/>
   </g>
   <g id="patch_6">
    <path d="M 56.12 6.845228 
L 399.984 6.845228 
" style="fill:none;stroke:#000000;stroke-linecap:square;stroke-linejoin:miter;stroke-width:0.8;"/>
   </g>
   <g id="text_14">
    <!-- f4 -->
    <g transform="translate(369.479935 293.867279)scale(0.17 -0.17)">
     <use xlink:href="#DejaVuSans-66"/>
     <use x="35.205078" xlink:href="#DejaVuSans-34"/>
    </g>
   </g>
   <g id="text_15">
    <!-- f2 -->
    <g transform="translate(369.479935 225.423372)scale(0.17 -0.17)">
     <use xlink:href="#DejaVuSans-66"/>
     <use x="35.205078" xlink:href="#DejaVuSans-32"/>
    </g>
   </g>
   <g id="text_16">
    <!-- f3 -->
    <defs>
     <path d="M 40.578125 39.3125 
Q 47.65625 37.796875 51.625 33 
Q 55.609375 28.21875 55.609375 21.1875 
Q 55.609375 10.40625 48.1875 4.484375 
Q 40.765625 -1.421875 27.09375 -1.421875 
Q 22.515625 -1.421875 17.65625 -0.515625 
Q 12.796875 0.390625 7.625 2.203125 
L 7.625 11.71875 
Q 11.71875 9.328125 16.59375 8.109375 
Q 21.484375 6.890625 26.8125 6.890625 
Q 36.078125 6.890625 40.9375 10.546875 
Q 45.796875 14.203125 45.796875 21.1875 
Q 45.796875 27.640625 41.28125 31.265625 
Q 36.765625 34.90625 28.71875 34.90625 
L 20.21875 34.90625 
L 20.21875 43.015625 
L 29.109375 43.015625 
Q 36.375 43.015625 40.234375 45.921875 
Q 44.09375 48.828125 44.09375 54.296875 
Q 44.09375 59.90625 40.109375 62.90625 
Q 36.140625 65.921875 28.71875 65.921875 
Q 24.65625 65.921875 20.015625 65.03125 
Q 15.375 64.15625 9.8125 62.3125 
L 9.8125 71.09375 
Q 15.4375 72.65625 20.34375 73.4375 
Q 25.25 74.21875 29.59375 74.21875 
Q 40.828125 74.21875 47.359375 69.109375 
Q 53.90625 64.015625 53.90625 55.328125 
Q 53.90625 49.265625 50.4375 45.09375 
Q 46.96875 40.921875 40.578125 39.3125 
z
" id="DejaVuSans-33"/>
    </defs>
    <g transform="translate(369.479935 156.979466)scale(0.17 -0.17)">
     <use xlink:href="#DejaVuSans-66"/>
     <use x="35.205078" xlink:href="#DejaVuSans-33"/>
    </g>
   </g>
   <g id="text_17">
    <!-- f1 -->
    <g transform="translate(369.479935 88.53556)scale(0.17 -0.17)">
     <use xlink:href="#DejaVuSans-66"/>
     <use x="35.205078" xlink:href="#DejaVuSans-31"/>
    </g>
   </g>
   <g id="text_18">
    <!-- f5 -->
    <defs>
     <path d="M 10.796875 72.90625 
L 49.515625 72.90625 
L 49.515625 64.59375 
L 19.828125 64.59375 
L 19.828125 46.734375 
Q 21.96875 47.46875 24.109375 47.828125 
Q 26.265625 48.1875 28.421875 48.1875 
Q 40.625 48.1875 47.75 41.5 
Q 54.890625 34.8125 54.890625 23.390625 
Q 54.890625 11.625 47.5625 5.09375 
Q 40.234375 -1.421875 26.90625 -1.421875 
Q 22.3125 -1.421875 17.546875 -0.640625 
Q 12.796875 0.140625 7.71875 1.703125 
L 7.71875 11.625 
Q 12.109375 9.234375 16.796875 8.0625 
Q 21.484375 6.890625 26.703125 6.890625 
Q 35.15625 6.890625 40.078125 11.328125 
Q 45.015625 15.765625 45.015625 23.390625 
Q 45.015625 31 40.078125 35.4375 
Q 35.15625 39.890625 26.703125 39.890625 
Q 22.75 39.890625 18.8125 39.015625 
Q 14.890625 38.140625 10.796875 36.28125 
z
" id="DejaVuSans-35"/>
    </defs>
    <g transform="translate(369.479935 20.091654)scale(0.17 -0.17)">
     <use xlink:href="#DejaVuSans-66"/>
     <use x="35.205078" xlink:href="#DejaVuSans-35"/>
    </g>
   </g>
   <g id="text_19">
    <!-- bbob -->
    <defs>
     <path d="M 48.6875 27.296875 
Q 48.6875 37.203125 44.609375 42.84375 
Q 40.53125 48.484375 33.40625 48.484375 
Q 26.265625 48.484375 22.1875 42.84375 
Q 18.109375 37.203125 18.109375 27.296875 
Q 18.109375 17.390625 22.1875 11.75 
Q 26.265625 6.109375 33.40625 6.109375 
Q 40.53125 6.109375 44.609375 11.75 
Q 48.6875 17.390625 48.6875 27.296875 
z
M 18.109375 46.390625 
Q 20.953125 51.265625 25.265625 53.625 
Q 29.59375 56 35.59375 56 
Q 45.5625 56 51.78125 48.09375 
Q 58.015625 40.1875 58.015625 27.296875 
Q 58.015625 14.40625 51.78125 6.484375 
Q 45.5625 -1.421875 35.59375 -1.421875 
Q 29.59375 -1.421875 25.265625 0.953125 
Q 20.953125 3.328125 18.109375 8.203125 
L 18.109375 0 
L 9.078125 0 
L 9.078125 75.984375 
L 18.109375 75.984375 
z
" id="DejaVuSans-62"/>
    </defs>
    <g transform="translate(59.55864 17.475982)scale(0.102 -0.102)">
     <use xlink:href="#DejaVuSans-62"/>
     <use x="63.476562" xlink:href="#DejaVuSans-62"/>
     <use x="126.953125" xlink:href="#DejaVuSans-6f"/>
     <use x="188.134766" xlink:href="#DejaVuSans-62"/>
    </g>
    <!-- Separable functions, 3-D -->
    <defs>
     <path d="M 53.515625 70.515625 
L 53.515625 60.890625 
Q 47.90625 63.578125 42.921875 64.890625 
Q 37.9375 66.21875 33.296875 66.21875 
Q 25.25 66.21875 20.875 63.09375 
Q 16.5 59.96875 16.5 54.203125 
Q 16.5 49.359375 19.40625 46.890625 
Q 22.3125 44.4375 30.421875 42.921875 
L 36.375 41.703125 
Q 47.40625 39.59375 52.65625 34.296875 
Q 57.90625 29 57.90625 20.125 
Q 57.90625 9.515625 50.796875 4.046875 
Q 43.703125 -1.421875 29.984375 -1.421875 
Q 24.8125 -1.421875 18.96875 -0.25 
Q 13.140625 0.921875 6.890625 3.21875 
L 6.890625 13.375 
Q 12.890625 10.015625 18.65625 8.296875 
Q 24.421875 6.59375 29.984375 6.59375 
Q 38.421875 6.59375 43.015625 9.90625 
Q 47.609375 13.234375 47.609375 19.390625 
Q 47.609375 24.75 44.3125 27.78125 
Q 41.015625 30.8125 33.5 32.328125 
L 27.484375 33.5 
Q 16.453125 35.6875 11.515625 40.375 
Q 6.59375 45.0625 6.59375 53.421875 
Q 6.59375 63.09375 13.40625 68.65625 
Q 20.21875 74.21875 32.171875 74.21875 
Q 37.3125 74.21875 42.625 73.28125 
Q 47.953125 72.359375 53.515625 70.515625 
z
" id="DejaVuSans-53"/>
     <path d="M 19.671875 64.796875 
L 19.671875 8.109375 
L 31.59375 8.109375 
Q 46.6875 8.109375 53.6875 14.9375 
Q 60.6875 21.78125 60.6875 36.53125 
Q 60.6875 51.171875 53.6875 57.984375 
Q 46.6875 64.796875 31.59375 64.796875 
z
M 9.8125 72.90625 
L 30.078125 72.90625 
Q 51.265625 72.90625 61.171875 64.09375 
Q 71.09375 55.28125 71.09375 36.53125 
Q 71.09375 17.671875 61.125 8.828125 
Q 51.171875 0 30.078125 0 
L 9.8125 0 
z
" id="DejaVuSans-44"/>
    </defs>
    <g transform="translate(59.55864 28.89775)scale(0.102 -0.102)">
     <use xlink:href="#DejaVuSans-53"/>
     <use x="63.476562" xlink:href="#DejaVuSans-65"/>
     <use x="125" xlink:href="#DejaVuSans-70"/>
     <use x="188.476562" xlink:href="#DejaVuSans-61"/>
     <use x="249.755859" xlink:href="#DejaVuSans-72"/>
     <use x="290.869141" xlink:href="#DejaVuSans-61"/>
     <use x="352.148438" xlink:href="#DejaVuSans-62"/>
     <use x="415.625" xlink:href="#DejaVuSans-6c"/>
     <use x="443.408203" xlink:href="#DejaVuSans-65"/>
     <use x="504.931641" xlink:href="#DejaVuSans-20"/>
     <use x="536.71875" xlink:href="#DejaVuSans-66"/>
     <use x="571.923828" xlink:href="#DejaVuSans-75"/>
     <use x="635.302734" xlink:href="#DejaVuSans-6e"/>
     <use x="698.681641" xlink:href="#DejaVuSans-63"/>
     <use x="753.662109" xlink:href="#DejaVuSans-74"/>
     <use x="792.871094" xlink:href="#DejaVuSans-69"/>
     <use x="820.654297" xlink:href="#DejaVuSans-6f"/>
     <use x="881.835938" xlink:href="#DejaVuSans-6e"/>
     <use x="945.214844" xlink:href="#DejaVuSans-73"/>
     <use x="997.314453" xlink:href="#DejaVuSans-2c"/>
     <use x="1029.101562" xlink:href="#DejaVuSans-20"/>
     <use x="1060.888672" xlink:href="#DejaVuSans-33"/>
     <use x="1124.511719" xlink:href="#DejaVuSans-2d"/>
     <use x="1160.595703" xlink:href="#DejaVuSans-44"/>
    </g>
    <!-- 51 targets: 100..1e-08 -->
    <defs>
     <path d="M 11.71875 12.40625 
L 22.015625 12.40625 
L 22.015625 0 
L 11.71875 0 
z
M 11.71875 51.703125 
L 22.015625 51.703125 
L 22.015625 39.3125 
L 11.71875 39.3125 
z
" id="DejaVuSans-3a"/>
    </defs>
    <g transform="translate(59.55864 40.319519)scale(0.102 -0.102)">
     <use xlink:href="#DejaVuSans-35"/>
     <use x="63.623047" xlink:href="#DejaVuSans-31"/>
     <use x="127.246094" xlink:href="#DejaVuSans-20"/>
     <use x="159.033203" xlink:href="#DejaVuSans-74"/>
     <use x="198.242188" xlink:href="#DejaVuSans-61"/>
     <use x="259.521484" xlink:href="#DejaVuSans-72"/>
     <use x="300.619141" xlink:href="#DejaVuSans-67"/>
     <use x="364.095703" xlink:href="#DejaVuSans-65"/>
     <use x="425.619141" xlink:href="#DejaVuSans-74"/>
     <use x="464.828125" xlink:href="#DejaVuSans-73"/>
     <use x="516.927734" xlink:href="#DejaVuSans-3a"/>
     <use x="550.619141" xlink:href="#DejaVuSans-20"/>
     <use x="582.40625" xlink:href="#DejaVuSans-31"/>
     <use x="646.029297" xlink:href="#DejaVuSans-30"/>
     <use x="709.652344" xlink:href="#DejaVuSans-30"/>
     <use x="773.275391" xlink:href="#DejaVuSans-2e"/>
     <use x="805.0625" xlink:href="#DejaVuSans-2e"/>
     <use x="836.849609" xlink:href="#DejaVuSans-31"/>
     <use x="900.472656" xlink:href="#DejaVuSans-65"/>
     <use x="961.996094" xlink:href="#DejaVuSans-2d"/>
     <use x="998.080078" xlink:href="#DejaVuSans-30"/>
     <use x="1061.703125" xlink:href="#DejaVuSans-38"/>
    </g>
    <!-- 15 instances -->
    <g transform="translate(59.55864 51.741288)scale(0.102 -0.102)">
     <use xlink:href="#DejaVuSans-31"/>
     <use x="63.623047" xlink:href="#DejaVuSans-35"/>
     <use x="127.246094" xlink:href="#DejaVuSans-20"/>
     <use x="159.033203" xlink:href="#DejaVuSans-69"/>
     <use x="186.816406" xlink:href="#DejaVuSans-6e"/>
     <use x="250.195312" xlink:href="#DejaVuSans-73"/>
     <use x="302.294922" xlink:href="#DejaVuSans-74"/>
     <use x="341.503906" xlink:href="#DejaVuSans-61"/>
     <use x="402.783203" xlink:href="#DejaVuSans-6e"/>
     <use x="466.162109" xlink:href="#DejaVuSans-63"/>
     <use x="521.142578" xlink:href="#DejaVuSans-65"/>
     <use x="582.666016" xlink:href="#DejaVuSans-73"/>
    </g>
   </g>
   <g id="text_20">
    <!-- v0.0.0 -->
    <g style="fill:#808080;" transform="translate(212.37075 289.919965)scale(0.1 -0.1)">
     <use xlink:href="#DejaVuSans-76"/>
     <use x="59.179688" xlink:href="#DejaVuSans-30"/>
     <use x="122.802734" xlink:href="#DejaVuSans-2e"/>
     <use x="154.589844" xlink:href="#DejaVuSans-30"/>
     <use x="218.212891" xlink:href="#DejaVuSans-2e"/>
     <use x="250" xlink:href="#DejaVuSans-30"/>
    </g>
   </g>
  </g>
 </g>
 <defs>
  <clipPath id="pa5a9b9c8d5">
   <rect height="288.034772" width="343.864" x="56.12" y="6.845228"/>
  </clipPath>
 </defs>
</svg>
