<?xml version="1.0" encoding="utf-8" standalone="no"?>
<!DOCTYPE svg PUBLIC "-//W3C//DTD SVG 1.1//EN"
  "http://www.w3.org/Graphics/SVG/1.1/DTD/svg11.dtd">
<!-- Created with matplotlib (http://matplotlib.org/) -->
<svg height="345.6pt" version="1.1" viewBox="0 0 460.8 345.6" width="460.8pt" xmlns="http://www.w3.org/2000/svg" xmlns:xlink="http://www.w3.org/1999/xlink">
 <defs>
  <style type="text/css">
*{stroke-linecap:butt;stroke-linejoin:round;}
  </style>
 </defs>
 <g id="figure_1">
  <g id="patch_1">
   <path d="M 0 345.6 
L 460.8 345.6 
L 460.8 0 
L 0 0 
z
" style="fill:#ffffff;"/>
  </g>
  <g id="axes_1">
   <g id="patch_2">
    <path d="M 56.12 294.88 
L 399.984 294.88 
L 399.984 6.845228 
L 56.12 6.845228 
z
" style="fill:#ffffff;"/>
   </g>
   <g id="matplotlib.axis_1">
    <g id="xtick_1">
     <g id="line2d_1">
      <path clip-path="url(#p4b8cc7dbf2)" d="M 56.12 294.88 
L 56.12 6.845228 
" style="fill:none;stroke:#b0b0b0;stroke-linecap:square;stroke-width:0.8;"/>
     </g>
     <g id="line2d_2">
      <defs>
       <path d="M 0 0 
L 0 3.5 
" id="m57af268368" style="stroke:#000000;stroke-width:0.8;"/>
      </defs>
      <g>
       <use style="stroke:#000000;stroke-width:0.8;" x="56.12" xlink:href="#m57af268368" y="294.88"/>
      </g>
     </g>
     <g id="text_1">
      <!-- 0 -->
      <defs>
       <path d="M 31.78125 66.40625 
Q 24.171875 66.40625 20.328125 58.90625 
Q 16.5 51.421875 16.5 36.375 
Q 16.5 21.390625 20.328125 13.890625 
Q 24.171875 6.390625 31.78125 6.390625 
Q 39.453125 6.390625 43.28125 13.890625 
Q 47.125 21.390625 47.125 36.375 
Q 47.125 51.421875 43.28125 58.90625 
Q 39.453125 66.40625 31.78125 66.40625 
z
M 31.78125 74.21875 
Q 44.046875 74.21875 50.515625 64.515625 
Q 56.984375 54.828125 56.984375 36.375 
Q 56.984375 17.96875 50.515625 8.265625 
Q 44.046875 -1.421875 31.78125 -1.421875 
Q 19.53125 -1.421875 13.0625 8.265625 
Q 6.59375 17.96875 6.59375 36.375 
Q 6.59375 54.828125 13.0625 64.515625 
Q 19.53125 74.21875 31.78125 74.21875 
z
" id="DejaVuSans-30"/>
      </defs>
      <g transform="translate(49.7575 317.076875)scale(0.2 -0.2)">
       <use xlink:href="#DejaVuSans-30"/>
      </g>
     </g>
    </g>
    <g id="xtick_2">
     <g id="line2d_3">
      <path clip-path="url(#p4b8cc7dbf2)" d="M 135.351336 294.88 
L 135.351336 6.845228 
" style="fill:none;stroke:#b0b0b0;stroke-linecap:square;stroke-width:0.8;"/>
     </g>
     <g id="line2d_4">
      <g>
       <use style="stroke:#000000;stroke-width:0.8;" x="135.351336" xlink:href="#m57af268368" y="294.88"/>
      </g>
     </g>
     <g id="text_2">
      <!-- 2 -->
      <defs>
       <path d="M 19.1875 8.296875 
L 53.609375 8.296875 
L 53.609375 0 
L 7.328125 0 
L 7.328125 8.296875 
Q 12.9375 14.109375 22.625 23.890625 
Q 32.328125 33.6875 34.8125 36.53125 
Q 39.546875 41.84375 41.421875 45.53125 
Q 43.3125 49.21875 43.3125 52.78125 
Q 43.3125 58.59375 39.234375 62.25 
Q 35.15625 65.921875 28.609375 65.921875 
Q 23.96875 65.921875 18.8125 64.3125 
Q 13.671875 62.703125 7.8125 59.421875 
L 7.8125 69.390625 
Q 13.765625 71.78125 18.9375 73 
Q 24.125 74.21875 28.421875 74.21875 
Q 39.75 74.21875 46.484375 68.546875 
Q 53.21875 62.890625 53.21875 53.421875 
Q 53.21875 48.921875 51.53125 44.890625 
Q 49.859375 40.875 45.40625 35.40625 
Q 44.1875 33.984375 37.640625 27.21875 
Q 31.109375 20.453125 19.1875 8.296875 
z
" id="DejaVuSans-32"/>
      </defs>
      <g transform="translate(128.988836 317.076875)scale(0.2 -0.2)">
       <use xlink:href="#DejaVuSans-32"/>
      </g>
     </g>
    </g>
    <g id="xtick_3">
     <g id="line2d_5">
      <path clip-path="url(#p4b8cc7dbf2)" d="M 214.582673 294.88 
L 214.582673 6.845228 
" style="fill:none;stroke:#b0b0b0;stroke-linecap:square;stroke-width:0.8;"/>
     </g>
     <g id="line2d_6">
      <g>
       <use style="stroke:#000000;stroke-width:0.8;" x="214.582673" xlink:href="#m57af268368" y="294.88"/>
      </g>
     </g>
     <g id="text_3">
      <!-- 4 -->
      <defs>
       <path d="M 37.796875 64.3125 
L 12.890625 25.390625 
L 37.796875 25.390625 
z
M 35.203125 72.90625 
L 47.609375 72.90625 
L 47.609375 25.390625 
L 58.015625 25.390625 
L 58.015625 17.1875 
L 47.609375 17.1875 
L 47.609375 0 
L 37.796875 0 
L 37.796875 17.1875 
L 4.890625 17.1875 
L 4.890625 26.703125 
z
" id="DejaVuSans-34"/>
      </defs>
      <g transform="translate(208.220173 317.076875)scale(0.2 -0.2)">
       <use xlink:href="#DejaVuSans-34"/>
      </g>
     </g>
    </g>
    <g id="xtick_4">
     <g id="line2d_7">
      <path clip-path="url(#p4b8cc7dbf2)" d="M 293.814009 294.88 
L 293.814009 6.845228 
" style="fill:none;stroke:#b0b0b0;stroke-linecap:square;stroke-width:0.8;"/>
     </g>
     <g id="line2d_8">
      <g>
       <use style="stroke:#000000;stroke-width:0.8;" x="293.814009" xlink:href="#m57af268368" y="294.88"/>
      </g>
     </g>
     <g id="text_4">
      <!-- 6 -->
      <defs>
       <path d="M 33.015625 40.375 
Q 26.375 40.375 22.484375 35.828125 
Q 18.609375 31.296875 18.609375 23.390625 
Q 18.609375 15.53125 22.484375 10.953125 
Q 26.375 6.390625 33.015625 6.390625 
Q 39.65625 6.390625 43.53125 10.953125 
Q 47.40625 15.53125 47.40625 23.390625 
Q 47.40625 31.296875 43.53125 35.828125 
Q 39.65625 40.375 33.015625 40.375 
z
M 52.59375 71.296875 
L 52.59375 62.3125 
Q 48.875 64.0625 45.09375 64.984375 
Q 41.3125 65.921875 37.59375 65.921875 
Q 27.828125 65.921875 22.671875 59.328125 
Q 17.53125 52.734375 16.796875 39.40625 
Q 19.671875 43.65625 24.015625 45.921875 
Q 28.375 48.1875 33.59375 48.1875 
Q 44.578125 48.1875 50.953125 41.515625 
Q 57.328125 34.859375 57.328125 23.390625 
Q 57.328125 12.15625 50.6875 5.359375 
Q 44.046875 -1.421875 33.015625 -1.421875 
Q 20.359375 -1.421875 13.671875 8.265625 
Q 6.984375 17.96875 6.984375 36.375 
Q 6.984375 53.65625 15.1875 63.9375 
Q 23.390625 74.21875 37.203125 74.21875 
Q 40.921875 74.21875 44.703125 73.484375 
Q 48.484375 72.75 52.59375 71.296875 
z
" id="DejaVuSans-36"/>
      </defs>
      <g transform="translate(287.451509 317.076875)scale(0.2 -0.2)">
       <use xlink:href="#DejaVuSans-36"/>
      </g>
     </g>
    </g>
    <g id="xtick_5">
     <g id="line2d_9">
      <path clip-path="url(#p4b8cc7dbf2)" d="M 373.045346 294.88 
L 373.045346 6.845228 
" style="fill:none;stroke:#b0b0b0;stroke-linecap:square;stroke-width:0.8;"/>
     </g>
     <g id="line2d_10">
      <g>
       <use style="stroke:#000000;stroke-width:0.8;" x="373.045346" xlink:href="#m57af268368" y="294.88"/>
      </g>
     </g>
     <g id="text_5">
      <!-- 8 -->
      <defs>
       <path d="M 31.78125 34.625 
Q 24.75 34.625 20.71875 30.859375 
Q 16.703125 27.09375 16.703125 20.515625 
Q 16.703125 13.921875 20.71875 10.15625 
Q 24.75 6.390625 31.78125 6.390625 
Q 38.8125 6.390625 42.859375 10.171875 
Q 46.921875 13.96875 46.921875 20.515625 
Q 46.921875 27.09375 42.890625 30.859375 
Q 38.875 34.625 31.78125 34.625 
z
M 21.921875 38.8125 
Q 15.578125 40.375 12.03125 44.71875 
Q 8.5 49.078125 8.5 55.328125 
Q 8.5 64.0625 14.71875 69.140625 
Q 20.953125 74.21875 31.78125 74.21875 
Q 42.671875 74.21875 48.875 69.140625 
Q 55.078125 64.0625 55.078125 55.328125 
Q 55.078125 49.078125 51.53125 44.71875 
Q 48 40.375 41.703125 38.8125 
Q 48.828125 37.15625 52.796875 32.3125 
Q 56.78125 27.484375 56.78125 20.515625 
Q 56.78125 9.90625 50.3125 4.234375 
Q 43.84375 -1.421875 31.78125 -1.421875 
Q 19.734375 -1.421875 13.25 4.234375 
Q 6.78125 9.90625 6.78125 20.515625 
Q 6.78125 27.484375 10.78125 32.3125 
Q 14.796875 37.15625 21.921875 38.8125 
z
M 18.3125 54.390625 
Q 18.3125 48.734375 21.84375 45.5625 
Q 25.390625 42.390625 31.78125 42.390625 
Q 38.140625 42.390625 41.71875 45.5625 
Q 45.3125 48.734375 45.3125 54.390625 
Q 45.3125 60.0625 41.71875 63.234375 
Q 38.140625 66.40625 31.78125 66.40625 
Q 25.390625 66.40625 21.84375 63.234375 
Q 18.3125 60.0625 18.3125 54.390625 
z
" id="DejaVuSans-38"/>
      </defs>
      <g transform="translate(366.682846 317.076875)scale(0.2 -0.2)">
       <use xlink:href="#DejaVuSans-38"/>
      </g>
     </g>
    </g>
    <g id="text_6">
     <!-- log10(# f-evals / dimension) -->
     <defs>
      <path d="M 9.421875 75.984375 
L 18.40625 75.984375 
L 18.40625 0 
L 9.421875 0 
z
" id="DejaVuSans-6c"/>
      <path d="M 30.609375 48.390625 
Q 23.390625 48.390625 19.1875 42.75 
Q 14.984375 37.109375 14.984375 27.296875 
Q 14.984375 17.484375 19.15625 11.84375 
Q 23.34375 6.203125 30.609375 6.203125 
Q 37.796875 6.203125 41.984375 11.859375 
Q 46.1875 17.53125 46.1875 27.296875 
Q 46.1875 37.015625 41.984375 42.703125 
Q 37.796875 48.390625 30.609375 48.390625 
z
M 30.609375 56 
Q 42.328125 56 49.015625 48.375 
Q 55.71875 40.765625 55.71875 27.296875 
Q 55.71875 13.875 49.015625 6.21875 
Q 42.328125 -1.421875 30.609375 -1.421875 
Q 18.84375 -1.421875 12.171875 6.21875 
Q 5.515625 13.875 5.515625 27.296875 
Q 5.515625 40.765625 12.171875 48.375 
Q 18.84375 56 30.609375 56 
z
" id="DejaVuSans-6f"/>
      <path d="M 45.40625 27.984375 
Q 45.40625 37.75 41.375 43.109375 
Q 37.359375 48.484375 30.078125 48.484375 
Q 22.859375 48.484375 18.828125 43.109375 
Q 14.796875 37.75 14.796875 27.984375 
Q 14.796875 18.265625 18.828125 12.890625 
Q 22.859375 7.515625 30.078125 7.515625 
Q 37.359375 7.515625 41.375 12.890625 
Q 45.40625 18.265625 45.40625 27.984375 
z
M 54.390625 6.78125 
Q 54.390625 -7.171875 48.1875 -13.984375 
Q 42 -20.796875 29.203125 -20.796875 
Q 24.46875 -20.796875 20.265625 -20.09375 
Q 16.0625 -19.390625 12.109375 -17.921875 
L 12.109375 -9.1875 
Q 16.0625 -11.328125 19.921875 -12.34375 
Q 23.78125 -13.375 27.78125 -13.375 
Q 36.625 -13.375 41.015625 -8.765625 
Q 45.40625 -4.15625 45.40625 5.171875 
L 45.40625 9.625 
Q 42.625 4.78125 38.28125 2.390625 
Q 33.9375 0 27.875 0 
Q 17.828125 0 11.671875 7.65625 
Q 5.515625 15.328125 5.515625 27.984375 
Q 5.515625 40.671875 11.671875 48.328125 
Q 17.828125 56 27.875 56 
Q 33.9375 56 38.28125 53.609375 
Q 42.625 51.21875 45.40625 46.390625 
L 45.40625 54.6875 
L 54.390625 54.6875 
z
" id="DejaVuSans-67"/>
      <path d="M 12.40625 8.296875 
L 28.515625 8.296875 
L 28.515625 63.921875 
L 10.984375 60.40625 
L 10.984375 69.390625 
L 28.421875 72.90625 
L 38.28125 72.90625 
L 38.28125 8.296875 
L 54.390625 8.296875 
L 54.390625 0 
L 12.40625 0 
z
" id="DejaVuSans-31"/>
      <path d="M 31 75.875 
Q 24.46875 64.65625 21.28125 53.65625 
Q 18.109375 42.671875 18.109375 31.390625 
Q 18.109375 20.125 21.3125 9.0625 
Q 24.515625 -2 31 -13.1875 
L 23.1875 -13.1875 
Q 15.875 -1.703125 12.234375 9.375 
Q 8.59375 20.453125 8.59375 31.390625 
Q 8.59375 42.28125 12.203125 53.3125 
Q 15.828125 64.359375 23.1875 75.875 
z
" id="DejaVuSans-28"/>
      <path d="M 51.125 44 
L 36.921875 44 
L 32.8125 27.6875 
L 47.125 27.6875 
z
M 43.796875 71.78125 
L 38.71875 51.515625 
L 52.984375 51.515625 
L 58.109375 71.78125 
L 65.921875 71.78125 
L 60.890625 51.515625 
L 76.125 51.515625 
L 76.125 44 
L 58.984375 44 
L 54.984375 27.6875 
L 70.515625 27.6875 
L 70.515625 20.21875 
L 53.078125 20.21875 
L 48 0 
L 40.1875 0 
L 45.21875 20.21875 
L 30.90625 20.21875 
L 25.875 0 
L 18.015625 0 
L 23.09375 20.21875 
L 7.71875 20.21875 
L 7.71875 27.6875 
L 24.90625 27.6875 
L 29 44 
L 13.28125 44 
L 13.28125 51.515625 
L 30.90625 51.515625 
L 35.890625 71.78125 
z
" id="DejaVuSans-23"/>
      <path id="DejaVuSans-20"/>
      <path d="M 37.109375 75.984375 
L 37.109375 68.5 
L 28.515625 68.5 
Q 23.6875 68.5 21.796875 66.546875 
Q 19.921875 64.59375 19.921875 59.515625 
L 19.921875 54.6875 
L 34.71875 54.6875 
L 34.71875 47.703125 
L 19.921875 47.703125 
L 19.921875 0 
L 10.890625 0 
L 10.890625 47.703125 
L 2.296875 47.703125 
L 2.296875 54.6875 
L 10.890625 54.6875 
L 10.890625 58.5 
Q 10.890625 67.625 15.140625 71.796875 
Q 19.390625 75.984375 28.609375 75.984375 
z
" id="DejaVuSans-66"/>
      <path d="M 4.890625 31.390625 
L 31.203125 31.390625 
L 31.203125 23.390625 
L 4.890625 23.390625 
z
" id="DejaVuSans-2d"/>
      <path d="M 56.203125 29.59375 
L 56.203125 25.203125 
L 14.890625 25.203125 
Q 15.484375 15.921875 20.484375 11.0625 
Q 25.484375 6.203125 34.421875 6.203125 
Q 39.59375 6.203125 44.453125 7.46875 
Q 49.3125 8.734375 54.109375 11.28125 
L 54.109375 2.78125 
Q 49.265625 0.734375 44.1875 -0.34375 
Q 39.109375 -1.421875 33.890625 -1.421875 
Q 20.796875 -1.421875 13.15625 6.1875 
Q 5.515625 13.8125 5.515625 26.8125 
Q 5.515625 40.234375 12.765625 48.109375 
Q 20.015625 56 32.328125 56 
Q 43.359375 56 49.78125 48.890625 
Q 56.203125 41.796875 56.203125 29.59375 
z
M 47.21875 32.234375 
Q 47.125 39.59375 43.09375 43.984375 
Q 39.0625 48.390625 32.421875 48.390625 
Q 24.90625 48.390625 20.390625 44.140625 
Q 15.875 39.890625 15.1875 32.171875 
z
" id="DejaVuSans-65"/>
      <path d="M 2.984375 54.6875 
L 12.5 54.6875 
L 29.59375 8.796875 
L 46.6875 54.6875 
L 56.203125 54.6875 
L 35.6875 0 
L 23.484375 0 
z
" id="DejaVuSans-76"/>
      <path d="M 34.28125 27.484375 
Q 23.390625 27.484375 19.1875 25 
Q 14.984375 22.515625 14.984375 16.5 
Q 14.984375 11.71875 18.140625 8.90625 
Q 21.296875 6.109375 26.703125 6.109375 
Q 34.1875 6.109375 38.703125 11.40625 
Q 43.21875 16.703125 43.21875 25.484375 
L 43.21875 27.484375 
z
M 52.203125 31.203125 
L 52.203125 0 
L 43.21875 0 
L 43.21875 8.296875 
Q 40.140625 3.328125 35.546875 0.953125 
Q 30.953125 -1.421875 24.3125 -1.421875 
Q 15.921875 -1.421875 10.953125 3.296875 
Q 6 8.015625 6 15.921875 
Q 6 25.140625 12.171875 29.828125 
Q 18.359375 34.515625 30.609375 34.515625 
L 43.21875 34.515625 
L 43.21875 35.40625 
Q 43.21875 41.609375 39.140625 45 
Q 35.0625 48.390625 27.6875 48.390625 
Q 23 48.390625 18.546875 47.265625 
Q 14.109375 46.140625 10.015625 43.890625 
L 10.015625 52.203125 
Q 14.9375 54.109375 19.578125 55.046875 
Q 24.21875 56 28.609375 56 
Q 40.484375 56 46.34375 49.84375 
Q 52.203125 43.703125 52.203125 31.203125 
z
" id="DejaVuSans-61"/>
      <path d="M 44.28125 53.078125 
L 44.28125 44.578125 
Q 40.484375 46.53125 36.375 47.5 
Q 32.28125 48.484375 27.875 48.484375 
Q 21.1875 48.484375 17.84375 46.4375 
Q 14.5 44.390625 14.5 40.28125 
Q 14.5 37.15625 16.890625 35.375 
Q 19.28125 33.59375 26.515625 31.984375 
L 29.59375 31.296875 
Q 39.15625 29.25 43.1875 25.515625 
Q 47.21875 21.78125 47.21875 15.09375 
Q 47.21875 7.46875 41.1875 3.015625 
Q 35.15625 -1.421875 24.609375 -1.421875 
Q 20.21875 -1.421875 15.453125 -0.5625 
Q 10.6875 0.296875 5.421875 2 
L 5.421875 11.28125 
Q 10.40625 8.6875 15.234375 7.390625 
Q 20.0625 6.109375 24.8125 6.109375 
Q 31.15625 6.109375 34.5625 8.28125 
Q 37.984375 10.453125 37.984375 14.40625 
Q 37.984375 18.0625 35.515625 20.015625 
Q 33.0625 21.96875 24.703125 23.78125 
L 21.578125 24.515625 
Q 13.234375 26.265625 9.515625 29.90625 
Q 5.8125 33.546875 5.8125 39.890625 
Q 5.8125 47.609375 11.28125 51.796875 
Q 16.75 56 26.8125 56 
Q 31.78125 56 36.171875 55.265625 
Q 40.578125 54.546875 44.28125 53.078125 
z
" id="DejaVuSans-73"/>
      <path d="M 25.390625 72.90625 
L 33.6875 72.90625 
L 8.296875 -9.28125 
L 0 -9.28125 
z
" id="DejaVuSans-2f"/>
      <path d="M 45.40625 46.390625 
L 45.40625 75.984375 
L 54.390625 75.984375 
L 54.390625 0 
L 45.40625 0 
L 45.40625 8.203125 
Q 42.578125 3.328125 38.25 0.953125 
Q 33.9375 -1.421875 27.875 -1.421875 
Q 17.96875 -1.421875 11.734375 6.484375 
Q 5.515625 14.40625 5.515625 27.296875 
Q 5.515625 40.1875 11.734375 48.09375 
Q 17.96875 56 27.875 56 
Q 33.9375 56 38.25 53.625 
Q 42.578125 51.265625 45.40625 46.390625 
z
M 14.796875 27.296875 
Q 14.796875 17.390625 18.875 11.75 
Q 22.953125 6.109375 30.078125 6.109375 
Q 37.203125 6.109375 41.296875 11.75 
Q 45.40625 17.390625 45.40625 27.296875 
Q 45.40625 37.203125 41.296875 42.84375 
Q 37.203125 48.484375 30.078125 48.484375 
Q 22.953125 48.484375 18.875 42.84375 
Q 14.796875 37.203125 14.796875 27.296875 
z
" id="DejaVuSans-64"/>
      <path d="M 9.421875 54.6875 
L 18.40625 54.6875 
L 18.40625 0 
L 9.421875 0 
z
M 9.421875 75.984375 
L 18.40625 75.984375 
L 18.40625 64.59375 
L 9.421875 64.59375 
z
" id="DejaVuSans-69"/>
      <path d="M 52 44.1875 
Q 55.375 50.25 60.0625 53.125 
Q 64.75 56 71.09375 56 
Q 79.640625 56 84.28125 50.015625 
Q 88.921875 44.046875 88.921875 33.015625 
L 88.921875 0 
L 79.890625 0 
L 79.890625 32.71875 
Q 79.890625 40.578125 77.09375 44.375 
Q 74.3125 48.1875 68.609375 48.1875 
Q 61.625 48.1875 57.5625 43.546875 
Q 53.515625 38.921875 53.515625 30.90625 
L 53.515625 0 
L 44.484375 0 
L 44.484375 32.71875 
Q 44.484375 40.625 41.703125 44.40625 
Q 38.921875 48.1875 33.109375 48.1875 
Q 26.21875 48.1875 22.15625 43.53125 
Q 18.109375 38.875 18.109375 30.90625 
L 18.109375 0 
L 9.078125 0 
L 9.078125 54.6875 
L 18.109375 54.6875 
L 18.109375 46.1875 
Q 21.1875 51.21875 25.484375 53.609375 
Q 29.78125 56 35.6875 56 
Q 41.65625 56 45.828125 52.96875 
Q 50 49.953125 52 44.1875 
z
" id="DejaVuSans-6d"/>
      <path d="M 54.890625 33.015625 
L 54.890625 0 
L 45.90625 0 
L 45.90625 32.71875 
Q 45.90625 40.484375 42.875 44.328125 
Q 39.84375 48.1875 33.796875 48.1875 
Q 26.515625 48.1875 22.3125 43.546875 
Q 18.109375 38.921875 18.109375 30.90625 
L 18.109375 0 
L 9.078125 0 
L 9.078125 54.6875 
L 18.109375 54.6875 
L 18.109375 46.1875 
Q 21.34375 51.125 25.703125 53.5625 
Q 30.078125 56 35.796875 56 
Q 45.21875 56 50.046875 50.171875 
Q 54.890625 44.34375 54.890625 33.015625 
z
" id="DejaVuSans-6e"/>
      <path d="M 8.015625 75.875 
L 15.828125 75.875 
Q 23.140625 64.359375 26.78125 53.3125 
Q 30.421875 42.28125 30.421875 31.390625 
Q 30.421875 20.453125 26.78125 9.375 
Q 23.140625 -1.703125 15.828125 -13.1875 
L 8.015625 -13.1875 
Q 14.5 -2 17.703125 9.0625 
Q 20.90625 20.125 20.90625 31.390625 
Q 20.90625 42.671875 17.703125 53.65625 
Q 14.5 64.65625 8.015625 75.875 
z
" id="DejaVuSans-29"/>
     </defs>
     <g transform="translate(107.211219 338.153594)scale(0.17 -0.17)">
      <use xlink:href="#DejaVuSans-6c"/>
      <use x="27.783203" xlink:href="#DejaVuSans-6f"/>
      <use x="88.964844" xlink:href="#DejaVuSans-67"/>
      <use x="152.441406" xlink:href="#DejaVuSans-31"/>
      <use x="216.064453" xlink:href="#DejaVuSans-30"/>
      <use x="279.6875" xlink:href="#DejaVuSans-28"/>
      <use x="318.701172" xlink:href="#DejaVuSans-23"/>
      <use x="402.490234" xlink:href="#DejaVuSans-20"/>
      <use x="434.277344" xlink:href="#DejaVuSans-66"/>
      <use x="469.404297" xlink:href="#DejaVuSans-2d"/>
      <use x="505.488281" xlink:href="#DejaVuSans-65"/>
      <use x="567.011719" xlink:href="#DejaVuSans-76"/>
      <use x="626.191406" xlink:href="#DejaVuSans-61"/>
      <use x="687.470703" xlink:href="#DejaVuSans-6c"/>
      <use x="715.253906" xlink:href="#DejaVuSans-73"/>
      <use x="767.353516" xlink:href="#DejaVuSans-20"/>
      <use x="799.140625" xlink:href="#DejaVuSans-2f"/>
      <use x="832.832031" xlink:href="#DejaVuSans-20"/>
      <use x="864.619141" xlink:href="#DejaVuSans-64"/>
      <use x="928.095703" xlink:href="#DejaVuSans-69"/>
      <use x="955.878906" xlink:href="#DejaVuSans-6d"/>
      <use x="1053.291016" xlink:href="#DejaVuSans-65"/>
      <use x="1114.814453" xlink:href="#DejaVuSans-6e"/>
      <use x="1178.193359" xlink:href="#DejaVuSans-73"/>
      <use x="1230.292969" xlink:href="#DejaVuSans-69"/>
      <use x="1258.076172" xlink:href="#DejaVuSans-6f"/>
      <use x="1319.257812" xlink:href="#DejaVuSans-6e"/>
      <use x="1382.636719" xlink:href="#DejaVuSans-29"/>
     </g>
    </g>
   </g>
   <g id="matplotlib.axis_2">
    <g id="ytick_1">
     <g id="line2d_11">
      <path clip-path="url(#p4b8cc7dbf2)" d="M 56.12 294.88 
L 399.984 294.88 
" style="fill:none;stroke:#b0b0b0;stroke-linecap:square;stroke-width:0.8;"/>
     </g>
     <g id="line2d_12">
      <defs>
       <path d="M 0 0 
L -3.5 0 
" id="m11b5b53540" style="stroke:#000000;stroke-width:0.8;"/>
      </defs>
      <g>
       <use style="stroke:#000000;stroke-width:0.8;" x="56.12" xlink:href="#m11b5b53540" y="294.88"/>
      </g>
     </g>
     <g id="text_7">
      <!-- 0.0 -->
      <defs>
       <path d="M 10.6875 12.40625 
L 21 12.40625 
L 21 0 
L 10.6875 0 
z
" id="DejaVuSans-2e"/>
      </defs>
      <g transform="translate(23.675 300.95875)scale(0.16 -0.16)">
       <use xlink:href="#DejaVuSans-30"/>
       <use x="63.623047" xlink:href="#DejaVuSans-2e"/>
       <use x="95.410156" xlink:href="#DejaVuSans-30"/>
      </g>
     </g>
    </g>
    <g id="ytick_2">
     <g id="line2d_13">
      <path clip-path="url(#p4b8cc7dbf2)" d="M 56.12 237.843411 
L 399.984 237.843411 
" style="fill:none;stroke:#b0b0b0;stroke-linecap:square;stroke-width:0.8;"/>
     </g>
     <g id="line2d_14">
      <g>
       <use style="stroke:#000000;stroke-width:0.8;" x="56.12" xlink:href="#m11b5b53540" y="237.843411"/>
      </g>
     </g>
     <g id="text_8">
      <!-- 0.2 -->
      <g transform="translate(23.675 243.922161)scale(0.16 -0.16)">
       <use xlink:href="#DejaVuSans-30"/>
       <use x="63.623047" xlink:href="#DejaVuSans-2e"/>
       <use x="95.410156" xlink:href="#DejaVuSans-32"/>
      </g>
     </g>
    </g>
    <g id="ytick_3">
     <g id="line2d_15">
      <path clip-path="url(#p4b8cc7dbf2)" d="M 56.12 180.806823 
L 399.984 180.806823 
" style="fill:none;stroke:#b0b0b0;stroke-linecap:square;stroke-width:0.8;"/>
     </g>
     <g id="line2d_16">
      <g>
       <use style="stroke:#000000;stroke-width:0.8;" x="56.12" xlink:href="#m11b5b53540" y="180.806823"/>
      </g>
     </g>
     <g id="text_9">
      <!-- 0.4 -->
      <g transform="translate(23.675 186.885573)scale(0.16 -0.16)">
       <use xlink:href="#DejaVuSans-30"/>
       <use x="63.623047" xlink:href="#DejaVuSans-2e"/>
       <use x="95.410156" xlink:href="#DejaVuSans-34"/>
      </g>
     </g>
    </g>
    <g id="ytick_4">
     <g id="line2d_17">
      <path clip-path="url(#p4b8cc7dbf2)" d="M 56.12 123.770234 
L 399.984 123.770234 
" style="fill:none;stroke:#b0b0b0;stroke-linecap:square;stroke-width:0.8;"/>
     </g>
     <g id="line2d_18">
      <g>
       <use style="stroke:#000000;stroke-width:0.8;" x="56.12" xlink:href="#m11b5b53540" y="123.770234"/>
      </g>
     </g>
     <g id="text_10">
      <!-- 0.6 -->
      <g transform="translate(23.675 129.848984)scale(0.16 -0.16)">
       <use xlink:href="#DejaVuSans-30"/>
       <use x="63.623047" xlink:href="#DejaVuSans-2e"/>
       <use x="95.410156" xlink:href="#DejaVuSans-36"/>
      </g>
     </g>
    </g>
    <g id="ytick_5">
     <g id="line2d_19">
      <path clip-path="url(#p4b8cc7dbf2)" d="M 56.12 66.733646 
L 399.984 66.733646 
" style="fill:none;stroke:#b0b0b0;stroke-linecap:square;stroke-width:0.8;"/>
     </g>
     <g id="line2d_20">
      <g>
       <use style="stroke:#000000;stroke-width:0.8;" x="56.12" xlink:href="#m11b5b53540" y="66.733646"/>
      </g>
     </g>
     <g id="text_11">
      <!-- 0.8 -->
      <g transform="translate(23.675 72.812396)scale(0.16 -0.16)">
       <use xlink:href="#DejaVuSans-30"/>
       <use x="63.623047" xlink:href="#DejaVuSans-2e"/>
       <use x="95.410156" xlink:href="#DejaVuSans-38"/>
      </g>
     </g>
    </g>
    <g id="ytick_6">
     <g id="line2d_21">
      <path clip-path="url(#p4b8cc7dbf2)" d="M 56.12 9.697057 
L 399.984 9.697057 
" style="fill:none;stroke:#b0b0b0;stroke-linecap:square;stroke-width:0.8;"/>
     </g>
     <g id="line2d_22">
      <g>
       <use style="stroke:#000000;stroke-width:0.8;" x="56.12" xlink:href="#m11b5b53540" y="9.697057"/>
      </g>
     </g>
     <g id="text_12">
      <!-- 1.0 -->
      <g transform="translate(23.675 15.775807)scale(0.16 -0.16)">
       <use xlink:href="#DejaVuSans-31"/>
       <use x="63.623047" xlink:href="#DejaVuSans-2e"/>
       <use x="95.410156" xlink:href="#DejaVuSans-30"/>
      </g>
     </g>
    </g>
    <g id="text_13">
     <!-- Fraction of function,target pairs -->
     <defs>
      <path d="M 9.8125 72.90625 
L 51.703125 72.90625 
L 51.703125 64.59375 
L 19.671875 64.59375 
L 19.671875 43.109375 
L 48.578125 43.109375 
L 48.578125 34.8125 
L 19.671875 34.8125 
L 19.671875 0 
L 9.8125 0 
z
" id="DejaVuSans-46"/>
      <path d="M 41.109375 46.296875 
Q 39.59375 47.171875 37.8125 47.578125 
Q 36.03125 48 33.890625 48 
Q 26.265625 48 22.1875 43.046875 
Q 18.109375 38.09375 18.109375 28.8125 
L 18.109375 0 
L 9.078125 0 
L 9.078125 54.6875 
L 18.109375 54.6875 
L 18.109375 46.1875 
Q 20.953125 51.171875 25.484375 53.578125 
Q 30.03125 56 36.53125 56 
Q 37.453125 56 38.578125 55.875 
Q 39.703125 55.765625 41.0625 55.515625 
z
" id="DejaVuSans-72"/>
      <path d="M 48.78125 52.59375 
L 48.78125 44.1875 
Q 44.96875 46.296875 41.140625 47.34375 
Q 37.3125 48.390625 33.40625 48.390625 
Q 24.65625 48.390625 19.8125 42.84375 
Q 14.984375 37.3125 14.984375 27.296875 
Q 14.984375 17.28125 19.8125 11.734375 
Q 24.65625 6.203125 33.40625 6.203125 
Q 37.3125 6.203125 41.140625 7.25 
Q 44.96875 8.296875 48.78125 10.40625 
L 48.78125 2.09375 
Q 45.015625 0.34375 40.984375 -0.53125 
Q 36.96875 -1.421875 32.421875 -1.421875 
Q 20.0625 -1.421875 12.78125 6.34375 
Q 5.515625 14.109375 5.515625 27.296875 
Q 5.515625 40.671875 12.859375 48.328125 
Q 20.21875 56 33.015625 56 
Q 37.15625 56 41.109375 55.140625 
Q 45.0625 54.296875 48.78125 52.59375 
z
" id="DejaVuSans-63"/>
      <path d="M 18.3125 70.21875 
L 18.3125 54.6875 
L 36.8125 54.6875 
L 36.8125 47.703125 
L 18.3125 47.703125 
L 18.3125 18.015625 
Q 18.3125 11.328125 20.140625 9.421875 
Q 21.96875 7.515625 27.59375 7.515625 
L 36.8125 7.515625 
L 36.8125 0 
L 27.59375 0 
Q 17.1875 0 13.234375 3.875 
Q 9.28125 7.765625 9.28125 18.015625 
L 9.28125 47.703125 
L 2.6875 47.703125 
L 2.6875 54.6875 
L 9.28125 54.6875 
L 9.28125 70.21875 
z
" id="DejaVuSans-74"/>
      <path d="M 8.5 21.578125 
L 8.5 54.6875 
L 17.484375 54.6875 
L 17.484375 21.921875 
Q 17.484375 14.15625 20.5 10.265625 
Q 23.53125 6.390625 29.59375 6.390625 
Q 36.859375 6.390625 41.078125 11.03125 
Q 45.3125 15.671875 45.3125 23.6875 
L 45.3125 54.6875 
L 54.296875 54.6875 
L 54.296875 0 
L 45.3125 0 
L 45.3125 8.40625 
Q 42.046875 3.421875 37.71875 1 
Q 33.40625 -1.421875 27.6875 -1.421875 
Q 18.265625 -1.421875 13.375 4.4375 
Q 8.5 10.296875 8.5 21.578125 
z
M 31.109375 56 
z
" id="DejaVuSans-75"/>
      <path d="M 11.71875 12.40625 
L 22.015625 12.40625 
L 22.015625 4 
L 14.015625 -11.625 
L 7.71875 -11.625 
L 11.71875 4 
z
" id="DejaVuSans-2c"/>
      <path d="M 18.109375 8.203125 
L 18.109375 -20.796875 
L 9.078125 -20.796875 
L 9.078125 54.6875 
L 18.109375 54.6875 
L 18.109375 46.390625 
Q 20.953125 51.265625 25.265625 53.625 
Q 29.59375 56 35.59375 56 
Q 45.5625 56 51.78125 48.09375 
Q 58.015625 40.1875 58.015625 27.296875 
Q 58.015625 14.40625 51.78125 6.484375 
Q 45.5625 -1.421875 35.59375 -1.421875 
Q 29.59375 -1.421875 25.265625 0.953125 
Q 20.953125 3.328125 18.109375 8.203125 
z
M 48.6875 27.296875 
Q 48.6875 37.203125 44.609375 42.84375 
Q 40.53125 48.484375 33.40625 48.484375 
Q 26.265625 48.484375 22.1875 42.84375 
Q 18.109375 37.203125 18.109375 27.296875 
Q 18.109375 17.390625 22.1875 11.75 
Q 26.265625 6.109375 33.40625 6.109375 
Q 40.53125 6.109375 44.609375 11.75 
Q 48.6875 17.390625 48.6875 27.296875 
z
" id="DejaVuSans-70"/>
     </defs>
     <g transform="translate(16.139531 286.001989)rotate(-90)scale(0.17 -0.17)">
      <use xlink:href="#DejaVuSans-46"/>
      <use x="57.410156" xlink:href="#DejaVuSans-72"/>
      <use x="98.523438" xlink:href="#DejaVuSans-61"/>
      <use x="159.802734" xlink:href="#DejaVuSans-63"/>
      <use x="214.783203" xlink:href="#DejaVuSans-74"/>
      <use x="253.992188" xlink:href="#DejaVuSans-69"/>
      <use x="281.775391" xlink:href="#DejaVuSans-6f"/>
      <use x="342.957031" xlink:href="#DejaVuSans-6e"/>
      <use x="406.335938" xlink:href="#DejaVuSans-20"/>
      <use x="438.123047" xlink:href="#DejaVuSans-6f"/>
      <use x="499.304688" xlink:href="#DejaVuSans-66"/>
      <use x="534.509766" xlink:href="#DejaVuSans-20"/>
      <use x="566.296875" xlink:href="#DejaVuSans-66"/>
      <use x="601.501953" xlink:href="#DejaVuSans-75"/>
      <use x="664.880859" xlink:href="#DejaVuSans-6e"/>
      <use x="728.259766" xlink:href="#DejaVuSans-63"/>
      <use x="783.240234" xlink:href="#DejaVuSans-74"/>
      <use x="822.449219" xlink:href="#DejaVuSans-69"/>
      <use x="850.232422" xlink:href="#DejaVuSans-6f"/>
      <use x="911.414062" xlink:href="#DejaVuSans-6e"/>
      <use x="974.792969" xlink:href="#DejaVuSans-2c"/>
      <use x="1006.580078" xlink:href="#DejaVuSans-74"/>
      <use x="1045.789062" xlink:href="#DejaVuSans-61"/>
      <use x="1107.068359" xlink:href="#DejaVuSans-72"/>
      <use x="1148.166016" xlink:href="#DejaVuSans-67"/>
      <use x="1211.642578" xlink:href="#DejaVuSans-65"/>
      <use x="1273.166016" xlink:href="#DejaVuSans-74"/>
      <use x="1312.375" xlink:href="#DejaVuSans-20"/>
      <use x="1344.162109" xlink:href="#DejaVuSans-70"/>
      <use x="1407.638672" xlink:href="#DejaVuSans-61"/>
      <use x="1468.917969" xlink:href="#DejaVuSans-69"/>
      <use x="1496.701172" xlink:href="#DejaVuSans-72"/>
      <use x="1537.814453" xlink:href="#DejaVuSans-73"/>
     </g>
    </g>
   </g>
   <g id="line2d_23">
    <defs>
     <path d="M 0 1.5 
C 0.397805 1.5 0.77937 1.341951 1.06066 1.06066 
C 1.341951 0.77937 1.5 0.397805 1.5 0 
C 1.5 -0.397805 1.341951 -0.77937 1.06066 -1.06066 
C 0.77937 -1.341951 0.397805 -1.5 0 -1.5 
C -0.397805 -1.5 -0.77937 -1.341951 -1.06066 -1.06066 
C -1.341951 -0.77937 -1.5 -0.397805 -1.5 0 
C -1.5 0.397805 -1.341951 0.77937 -1.06066 1.06066 
C -0.77937 1.341951 -0.397805 1.5 0 1.5 
z
" id="m0980a62d26" style="stroke:#000080;"/>
    </defs>
    <g>
     <use style="fill:#000080;stroke:#000080;" x="195.090328" xlink:href="#m0980a62d26" y="9.697057"/>
     <use style="fill:#000080;stroke:#000080;" x="195.090328" xlink:href="#m0980a62d26" y="9.697057"/>
    </g>
   </g>
   <g id="line2d_24">
    <path d="M 28.429836 294.88 
L 28.429836 285.373902 
L 40.355341 285.373902 
L 40.355341 283.696355 
L 52.280845 283.696355 
L 52.280845 281.459626 
L 77.174892 281.459626 
L 77.174892 279.782079 
L 78.158295 279.782079 
L 78.158295 278.663715 
L 108.169728 278.663715 
L 108.169728 278.104533 
L 110.362401 278.104533 
L 110.362401 277.545351 
L 111.637419 277.545351 
L 111.637419 276.426986 
L 111.908367 276.426986 
L 111.908367 275.867804 
L 114.053874 275.867804 
L 114.053874 275.308622 
L 114.977847 275.308622 
L 114.977847 274.190257 
L 115.747522 274.190257 
L 115.747522 273.071893 
L 117.678114 273.071893 
L 117.678114 272.51271 
L 119.672487 272.51271 
L 119.672487 271.953528 
L 122.065904 271.953528 
L 122.065904 271.394346 
L 124.166665 271.394346 
L 124.166665 270.835164 
L 135.003752 270.835164 
L 135.003752 270.275981 
L 139.838789 270.275981 
L 139.838789 269.157617 
L 141.480998 269.157617 
L 141.480998 268.598435 
L 141.767752 268.598435 
L 141.767752 268.039252 
L 143.651414 268.039252 
L 143.651414 267.48007 
L 144.440195 267.48007 
L 144.440195 266.920888 
L 145.559445 266.920888 
L 145.654238 265.802523 
L 145.898283 265.802523 
L 145.898283 265.243341 
L 147.499063 265.243341 
L 147.499063 264.684159 
L 147.751956 264.684159 
L 147.835434 262.44743 
L 148.947893 262.44743 
L 148.947893 261.888248 
L 149.303282 261.888248 
L 149.303282 260.769883 
L 149.711322 260.769883 
L 149.711322 260.210701 
L 150.022128 260.210701 
L 150.022128 258.533154 
L 150.182718 258.533154 
L 150.182718 257.41479 
L 150.71214 257.41479 
L 150.71214 256.296425 
L 153.090361 256.296425 
L 153.090361 255.737243 
L 154.275738 255.737243 
L 154.275738 254.618879 
L 154.492011 254.618879 
L 154.582267 253.500514 
L 155.923866 253.500514 
L 155.934271 251.822967 
L 156.243534 251.822967 
L 156.243534 251.263785 
L 156.934424 251.263785 
L 156.934424 250.704603 
L 157.236016 250.704603 
L 157.236016 249.586238 
L 157.52293 249.586238 
L 157.52293 249.027056 
L 157.898187 249.027056 
L 157.990736 247.34951 
L 158.793204 247.34951 
L 158.793204 246.231145 
L 158.924841 246.231145 
L 158.924841 245.671963 
L 159.36502 245.671963 
L 159.36502 245.112781 
L 159.744276 245.112781 
L 159.744276 244.553598 
L 159.893668 244.553598 
L 159.893668 243.435234 
L 160.172361 243.435234 
L 160.172361 242.876052 
L 161.175177 242.876052 
L 161.175177 242.316869 
L 161.696462 242.316869 
L 161.726202 240.639323 
L 162.064573 240.639323 
L 162.130005 239.520958 
L 162.644688 239.520958 
L 162.644688 238.961776 
L 163.062134 238.961776 
L 163.062134 238.402594 
L 163.260325 238.402594 
L 163.260325 237.843411 
L 163.49652 237.843411 
L 163.576761 236.725047 
L 164.063475 236.725047 
L 164.09587 235.606682 
L 164.186252 235.606682 
L 164.186252 235.0475 
L 164.555716 235.0475 
L 164.555716 234.488318 
L 164.718796 234.488318 
L 164.718796 233.929136 
L 164.886529 233.929136 
L 164.979011 232.810771 
L 165.089339 232.810771 
L 165.089339 232.251589 
L 165.253514 232.251589 
L 165.253514 231.692407 
L 165.624685 231.692407 
L 165.624685 231.133225 
L 165.801448 231.133225 
L 165.801448 230.574042 
L 165.953188 230.574042 
L 165.953188 229.455678 
L 166.309719 229.455678 
L 166.332469 228.337313 
L 166.530261 228.337313 
L 166.558332 227.218949 
L 166.681305 227.218949 
L 166.681305 226.659767 
L 166.797873 226.659767 
L 166.797873 226.100584 
L 167.411912 226.100584 
L 167.481169 224.98222 
L 167.734497 224.98222 
L 167.734497 224.423038 
L 167.927256 224.423038 
L 167.927256 223.863855 
L 168.199661 223.863855 
L 168.199661 223.304673 
L 168.972427 223.304673 
L 168.972427 222.186309 
L 169.166342 222.186309 
L 169.166342 219.390397 
L 169.319915 219.390397 
L 169.400946 216.035304 
L 169.495791 216.035304 
L 169.495791 214.357757 
L 169.823691 214.357757 
L 169.920855 212.680211 
L 169.9393 212.680211 
L 169.994518 210.443482 
L 170.072441 210.443482 
L 170.072441 209.884299 
L 170.907077 209.884299 
L 170.907077 209.325117 
L 171.396715 209.325117 
L 171.405181 207.64757 
L 171.752936 207.64757 
L 171.752936 206.529206 
L 171.942682 206.529206 
L 172.012279 204.851659 
L 172.158739 204.851659 
L 172.23957 203.733295 
L 172.467877 203.733295 
L 172.467877 203.174112 
L 173.408564 203.174112 
L 173.408564 202.055748 
L 173.6108 202.055748 
L 173.677688 200.378201 
L 173.829078 200.378201 
L 173.913425 198.700655 
L 174.033726 198.700655 
L 174.033726 198.141472 
L 174.207222 198.141472 
L 174.296897 197.023108 
L 174.411002 197.023108 
L 174.418108 195.904743 
L 174.591307 195.904743 
L 174.679007 194.786379 
L 174.911861 194.786379 
L 175.011679 193.108832 
L 175.185829 193.108832 
L 175.189227 191.990468 
L 175.415321 191.990468 
L 175.428726 190.872103 
L 175.535589 190.872103 
L 175.585453 188.635374 
L 175.671544 188.635374 
L 175.671544 188.076192 
L 176.163191 188.076192 
L 176.204869 184.721099 
L 176.351538 184.721099 
L 176.351538 184.161916 
L 176.619312 184.161916 
L 176.715942 182.48437 
L 176.731477 182.48437 
L 176.731477 181.925187 
L 176.938302 181.925187 
L 176.965896 180.247641 
L 177.21831 180.247641 
L 177.224346 178.010912 
L 177.523517 178.010912 
L 177.567947 176.892547 
L 177.644689 176.892547 
L 177.724022 174.655818 
L 178.223837 174.655818 
L 178.223837 174.096636 
L 178.489445 174.096636 
L 178.520261 171.859907 
L 178.662416 171.859907 
L 178.662416 171.300725 
L 179.024984 171.300725 
L 179.068417 169.623178 
L 179.216887 169.623178 
L 179.308032 167.386449 
L 179.494176 167.386449 
L 179.494176 166.827267 
L 180.053627 166.827267 
L 180.053627 165.14972 
L 180.297672 165.14972 
L 180.358146 161.235444 
L 180.525853 161.235444 
L 180.573116 160.11708 
L 180.652424 160.11708 
L 180.652424 158.998715 
L 181.120746 158.998715 
L 181.207154 156.202804 
L 181.257359 156.202804 
L 181.309799 153.406893 
L 181.38579 153.406893 
L 181.38579 152.847711 
L 181.78859 152.847711 
L 181.869413 147.815071 
L 182.002518 147.815071 
L 182.002518 146.696706 
L 182.139137 146.696706 
L 182.139137 146.137524 
L 182.265678 146.137524 
L 182.290425 145.019159 
L 182.409164 145.019159 
L 182.482685 142.223248 
L 182.721124 142.223248 
L 182.788959 137.74979 
L 182.993031 137.74979 
L 183.092022 136.072244 
L 183.228806 136.072244 
L 183.326453 133.835515 
L 183.557733 133.835515 
L 183.557733 133.276332 
L 183.690879 133.276332 
L 183.726073 131.039603 
L 183.872288 131.039603 
L 183.90302 129.362057 
L 184.017271 129.362057 
L 184.017271 128.802874 
L 184.157009 128.802874 
L 184.255558 127.125328 
L 184.383431 127.125328 
L 184.43114 125.447781 
L 184.498501 125.447781 
L 184.571508 124.329417 
L 184.916533 124.329417 
L 184.941603 121.533505 
L 185.093172 121.533505 
L 185.093172 120.974323 
L 185.271797 120.974323 
L 185.296355 119.296776 
L 185.426119 119.296776 
L 185.45981 117.060047 
L 185.610608 117.060047 
L 185.610608 115.941683 
L 185.734351 115.941683 
L 185.798641 113.704954 
L 185.864518 113.704954 
L 185.971941 109.790678 
L 186.042583 109.790678 
L 186.042583 109.231496 
L 186.268848 109.231496 
L 186.286678 108.113132 
L 186.660405 108.113132 
L 186.730018 106.435585 
L 186.80281 106.435585 
L 186.901109 103.639674 
L 187.106237 103.639674 
L 187.128313 101.402945 
L 187.221399 101.402945 
L 187.295507 98.607033 
L 187.359254 98.607033 
L 187.359254 98.047851 
L 187.562332 98.047851 
L 187.656398 95.25194 
L 187.841372 95.25194 
L 187.878779 94.133576 
L 188.136776 94.133576 
L 188.229353 90.2193 
L 188.256393 90.2193 
L 188.356233 86.864206 
L 188.381497 86.864206 
L 188.381497 86.305024 
L 188.493161 86.305024 
L 188.602548 84.068295 
L 188.714339 84.068295 
L 188.780758 82.390748 
L 188.911302 82.390748 
L 188.911302 81.831566 
L 189.025671 81.831566 
L 189.054524 78.476473 
L 189.155886 78.476473 
L 189.261151 73.443833 
L 189.344902 73.443833 
L 189.389602 72.325468 
L 189.593738 72.325468 
L 189.599619 70.647921 
L 189.937322 70.647921 
L 189.937322 70.088739 
L 190.136523 70.088739 
L 190.189161 67.292828 
L 190.306659 67.292828 
L 190.402328 64.496917 
L 190.483509 64.496917 
L 190.56014 62.260188 
L 190.610113 62.260188 
L 190.693082 61.141823 
L 190.848261 61.141823 
L 190.886497 58.905094 
L 190.981717 58.905094 
L 191.058866 56.109183 
L 191.197404 56.109183 
L 191.197404 54.431636 
L 191.341479 54.431636 
L 191.421003 51.076543 
L 191.467222 51.076543 
L 191.471178 48.839814 
L 191.644343 48.839814 
L 191.687364 44.925538 
L 191.922714 44.925538 
L 192.025155 41.011263 
L 192.059591 41.011263 
L 192.102858 36.537805 
L 192.172619 36.537805 
L 192.226962 34.860258 
L 192.356441 34.860258 
L 192.462563 32.623529 
L 192.475005 32.623529 
L 192.475005 32.064347 
L 192.591523 32.064347 
L 192.649487 30.3868 
L 192.703575 30.3868 
L 192.703575 29.827618 
L 192.840491 29.827618 
L 192.866042 27.590889 
L 192.953358 27.590889 
L 193.030602 25.913342 
L 193.088308 25.913342 
L 193.18167 24.235795 
L 193.217444 24.235795 
L 193.267403 21.439884 
L 193.416415 21.439884 
L 193.416415 20.880702 
L 193.540782 20.880702 
L 193.545458 19.762337 
L 193.65613 19.762337 
L 193.69325 16.966426 
L 193.848972 16.966426 
L 193.929165 14.170515 
L 194.06691 14.170515 
L 194.106548 13.052151 
L 194.212557 13.052151 
L 194.212557 11.933786 
L 194.335785 11.933786 
L 194.437066 10.815422 
L 195.017526 10.815422 
L 195.090328 9.697057 
L 333.429677 9.697057 
L 333.429677 9.697057 
" style="fill:none;stroke:#000080;stroke-linecap:square;stroke-width:1.5;"/>
   </g>
   <g id="line2d_25">
    <defs>
     <path d="M 0 6 
C 1.591219 6 3.117479 5.367802 4.242641 4.242641 
C 5.367802 3.117479 6 1.591219 6 0 
C 6 -1.591219 5.367802 -3.117479 4.242641 -4.242641 
C 3.117479 -5.367802 1.591219 -6 0 -6 
C -1.591219 -6 -3.117479 -5.367802 -4.242641 -4.242641 
C -5.367802 -3.117479 -6 -1.591219 -6 0 
C -6 1.591219 -5.367802 3.117479 -4.242641 4.242641 
C -3.117479 5.367802 -1.591219 6 0 6 
z
" id="md0c2d47888" style="stroke:#000080;stroke-width:1.5;"/>
    </defs>
    <g>
     <use style="fill-opacity:0;stroke:#000080;stroke-width:1.5;" x="145.559445" xlink:href="#md0c2d47888" y="266.920888"/>
     <use style="fill-opacity:0;stroke:#000080;stroke-width:1.5;" x="180.053627" xlink:href="#md0c2d47888" y="165.14972"/>
     <use style="fill-opacity:0;stroke:#000080;stroke-width:1.5;" x="191.341479" xlink:href="#md0c2d47888" y="54.431636"/>
     <use style="fill-opacity:0;stroke:#000080;stroke-width:1.5;" x="195.090328" xlink:href="#md0c2d47888" y="9.697057"/>
     <use style="fill-opacity:0;stroke:#000080;stroke-width:1.5;" x="195.090328" xlink:href="#md0c2d47888" y="9.697057"/>
     <use style="fill-opacity:0;stroke:#000080;stroke-width:1.5;" x="333.429677" xlink:href="#md0c2d47888" y="9.697057"/>
    </g>
   </g>
   <g id="line2d_26">
    <path style="fill:none;stroke:#000080;stroke-linecap:square;stroke-width:1.5;"/>
    <g/>
   </g>
   <g id="line2d_27">
    <defs>
     <path d="M 0 1.5 
C 0.397805 1.5 0.77937 1.341951 1.06066 1.06066 
C 1.341951 0.77937 1.5 0.397805 1.5 0 
C 1.5 -0.397805 1.341951 -0.77937 1.06066 -1.06066 
C 0.77937 -1.341951 0.397805 -1.5 0 -1.5 
C -0.397805 -1.5 -0.77937 -1.341951 -1.06066 -1.06066 
C -1.341951 -0.77937 -1.5 -0.397805 -1.5 0 
C -1.5 0.397805 -1.341951 0.77937 -1.06066 1.06066 
C -0.77937 1.341951 -0.397805 1.5 0 1.5 
z
" id="mc5464b0bc1" style="stroke:#ff00ff;"/>
    </defs>
    <g>
     <use style="fill:#ff00ff;stroke:#ff00ff;" x="320.778659" xlink:href="#mc5464b0bc1" y="255.737243"/>
     <use style="fill:#ff00ff;stroke:#ff00ff;" x="320.778659" xlink:href="#mc5464b0bc1" y="255.737243"/>
    </g>
   </g>
   <g id="line2d_28">
    <path d="M 225.367677 294.88 
L 225.367677 294.320818 
L 228.96609 294.320818 
L 228.96609 293.761636 
L 232.00389 293.761636 
L 232.00389 293.202453 
L 249.308807 293.202453 
L 249.308807 292.643271 
L 253.531918 292.643271 
L 253.531918 292.084089 
L 254.002088 292.084089 
L 254.002088 291.524907 
L 255.684741 291.524907 
L 255.684741 290.965724 
L 257.580605 290.965724 
L 257.580605 290.406542 
L 258.282272 290.406542 
L 258.282272 289.84736 
L 258.381827 289.84736 
L 258.381827 289.288178 
L 259.361091 289.288178 
L 259.361091 288.728995 
L 261.272822 288.728995 
L 261.272822 287.610631 
L 261.413715 287.610631 
L 261.413715 286.492266 
L 263.114141 286.492266 
L 263.114141 285.373902 
L 263.148813 285.373902 
L 263.148813 284.81472 
L 263.431616 284.81472 
L 263.431616 284.255537 
L 263.435418 284.255537 
L 263.435418 282.577991 
L 264.257004 282.577991 
L 264.257004 282.018808 
L 264.331689 282.018808 
L 264.331689 281.459626 
L 264.638512 281.459626 
L 264.638512 280.900444 
L 265.550704 280.900444 
L 265.550704 280.341262 
L 265.558386 280.341262 
L 265.558386 279.782079 
L 265.582994 279.782079 
L 265.582994 279.222897 
L 268.286711 279.222897 
L 268.286711 278.663715 
L 268.898157 278.663715 
L 268.898157 278.104533 
L 269.731308 278.104533 
L 269.731308 277.545351 
L 270.185229 277.545351 
L 270.185229 276.986168 
L 270.96658 276.986168 
L 270.96658 276.426986 
L 272.123984 276.426986 
L 272.123984 275.867804 
L 273.609699 275.867804 
L 273.609699 274.749439 
L 275.58679 274.749439 
L 275.58679 274.190257 
L 276.419892 274.190257 
L 276.419892 273.631075 
L 276.474731 273.631075 
L 276.474731 273.071893 
L 276.64923 273.071893 
L 276.64923 272.51271 
L 278.20637 272.51271 
L 278.20637 271.953528 
L 278.433174 271.953528 
L 278.433174 271.394346 
L 279.492373 271.394346 
L 279.492373 270.835164 
L 279.947466 270.835164 
L 279.947466 270.275981 
L 280.199613 270.275981 
L 280.199613 269.716799 
L 280.640554 269.716799 
L 280.640554 269.157617 
L 281.165901 269.157617 
L 281.165901 268.598435 
L 283.991754 268.598435 
L 283.991754 268.039252 
L 286.48827 268.039252 
L 286.48827 267.48007 
L 287.517805 267.48007 
L 287.517805 266.920888 
L 291.877248 266.920888 
L 291.877248 265.802523 
L 293.180633 265.802523 
L 293.180633 265.243341 
L 293.201355 265.243341 
L 293.201355 264.684159 
L 294.94978 264.684159 
L 294.94978 264.124977 
L 295.129119 264.124977 
L 295.129119 263.565795 
L 296.424649 263.565795 
L 296.424649 263.006612 
L 296.441812 263.006612 
L 296.441812 262.44743 
L 296.489371 262.44743 
L 296.489371 261.888248 
L 298.242173 261.888248 
L 298.242173 261.329066 
L 303.589141 261.329066 
L 303.589141 260.769883 
L 304.79838 260.769883 
L 304.79838 260.210701 
L 305.435922 260.210701 
L 305.435922 259.651519 
L 306.28993 259.651519 
L 306.28993 259.092337 
L 307.880414 259.092337 
L 307.880414 258.533154 
L 310.042022 258.533154 
L 310.042022 257.973972 
L 310.210628 257.973972 
L 310.210628 257.41479 
L 316.753238 257.41479 
L 316.753238 256.855608 
L 319.27953 256.855608 
L 319.27953 256.296425 
L 320.778659 256.296425 
L 320.778659 255.737243 
L 333.429677 255.737243 
" style="fill:none;stroke:#ff00ff;stroke-linecap:square;stroke-width:1.5;"/>
   </g>
   <g id="line2d_29">
    <defs>
     <path d="M -0 8.485281 
L 5.091169 0 
L 0 -8.485281 
L -5.091169 -0 
z
" id="m373adaaa18" style="stroke:#ff00ff;stroke-linejoin:miter;stroke-width:1.5;"/>
    </defs>
    <g>
     <use style="fill-opacity:0;stroke:#ff00ff;stroke-linejoin:miter;stroke-width:1.5;" x="258.282272" xlink:href="#m373adaaa18" y="289.84736"/>
     <use style="fill-opacity:0;stroke:#ff00ff;stroke-linejoin:miter;stroke-width:1.5;" x="296.489371" xlink:href="#m373adaaa18" y="261.888248"/>
     <use style="fill-opacity:0;stroke:#ff00ff;stroke-linejoin:miter;stroke-width:1.5;" x="320.778659" xlink:href="#m373adaaa18" y="255.737243"/>
     <use style="fill-opacity:0;stroke:#ff00ff;stroke-linejoin:miter;stroke-width:1.5;" x="333.429677" xlink:href="#m373adaaa18" y="255.737243"/>
    </g>
   </g>
   <g id="line2d_30">
    <path style="fill:none;stroke:#ff00ff;stroke-linecap:square;stroke-width:1.5;"/>
    <g/>
   </g>
   <g id="line2d_31">
    <path clip-path="url(#p4b8cc7dbf2)" d="M 254.198358 291.524907 
" style="fill:none;stroke:#ff00ff;stroke-linecap:square;stroke-width:1.5;"/>
    <defs>
     <path d="M -12 12 
L 12 -12 
M -12 -12 
L 12 12 
" id="m0f53b1a6df" style="stroke:#ff00ff;stroke-width:3;"/>
    </defs>
    <g clip-path="url(#p4b8cc7dbf2)">
     <use style="fill:#ff00ff;stroke:#ff00ff;stroke-width:3;" x="254.198358" xlink:href="#m0f53b1a6df" y="291.524907"/>
    </g>
   </g>
   <g id="line2d_32">
    <defs>
     <path d="M 0 1.5 
C 0.397805 1.5 0.77937 1.341951 1.06066 1.06066 
C 1.341951 0.77937 1.5 0.397805 1.5 0 
C 1.5 -0.397805 1.341951 -0.77937 1.06066 -1.06066 
C 0.77937 -1.341951 0.397805 -1.5 0 -1.5 
C -0.397805 -1.5 -0.77937 -1.341951 -1.06066 -1.06066 
C -1.341951 -0.77937 -1.5 -0.397805 -1.5 0 
C -1.5 0.397805 -1.341951 0.77937 -1.06066 1.06066 
C -0.77937 1.341951 -0.397805 1.5 0 1.5 
z
" id="m0974b52bee" style="stroke:#ffa500;"/>
    </defs>
    <g>
     <use style="fill:#ffa500;stroke:#ffa500;" x="321.166662" xlink:href="#m0974b52bee" y="233.369954"/>
     <use style="fill:#ffa500;stroke:#ffa500;" x="321.166662" xlink:href="#m0974b52bee" y="233.369954"/>
    </g>
   </g>
   <g id="line2d_33">
    <path d="M 138.516805 294.88 
L 138.516805 294.320818 
L 146.894108 294.320818 
L 146.894108 293.202453 
L 150.456617 293.202453 
L 150.456617 292.643271 
L 151.348405 292.643271 
L 151.348405 292.084089 
L 154.010244 292.084089 
L 154.010244 291.524907 
L 155.037536 291.524907 
L 155.037536 290.965724 
L 156.766763 290.965724 
L 156.766763 290.406542 
L 157.293783 290.406542 
L 157.293783 288.728995 
L 159.610385 288.728995 
L 159.610385 288.169813 
L 161.903574 288.169813 
L 161.903574 287.610631 
L 163.020842 287.610631 
L 163.020842 286.492266 
L 165.618761 286.492266 
L 165.618761 285.933084 
L 165.795585 285.933084 
L 165.795585 285.373902 
L 166.394878 285.373902 
L 166.394878 284.81472 
L 167.240238 284.81472 
L 167.240238 283.696355 
L 167.671514 283.696355 
L 167.781583 282.018808 
L 171.10633 282.018808 
L 171.10633 281.459626 
L 176.597416 281.459626 
L 176.622437 280.341262 
L 178.05213 280.341262 
L 178.100955 279.222897 
L 179.117149 279.222897 
L 179.117149 278.663715 
L 179.504752 278.663715 
L 179.504752 278.104533 
L 179.950912 278.104533 
L 179.950912 277.545351 
L 180.40838 277.545351 
L 180.40838 276.426986 
L 181.262133 276.426986 
L 181.262133 274.749439 
L 183.943911 274.749439 
L 183.943911 274.190257 
L 184.301622 274.190257 
L 184.301622 273.631075 
L 184.718551 273.631075 
L 184.718551 273.071893 
L 185.347249 273.071893 
L 185.347249 271.953528 
L 185.750906 271.953528 
L 185.750906 270.835164 
L 185.921044 270.835164 
L 185.921044 270.275981 
L 186.094924 270.275981 
L 186.200922 269.157617 
L 186.220612 269.157617 
L 186.220612 268.598435 
L 186.400359 268.598435 
L 186.44986 267.48007 
L 187.56895 267.48007 
L 187.646521 265.243341 
L 188.854599 265.243341 
L 188.854599 264.684159 
L 189.26265 264.684159 
L 189.26265 264.124977 
L 189.475693 264.124977 
L 189.475693 263.565795 
L 189.706595 263.565795 
L 189.706595 263.006612 
L 190.996633 263.006612 
L 190.996633 262.44743 
L 191.81966 262.44743 
L 191.81966 261.329066 
L 192.632242 261.329066 
L 192.632242 260.769883 
L 193.738381 260.769883 
L 193.738381 260.210701 
L 194.317916 260.210701 
L 194.317916 259.092337 
L 194.460354 259.092337 
L 194.460354 258.533154 
L 195.141533 258.533154 
L 195.141533 257.973972 
L 195.295296 257.973972 
L 195.295296 257.41479 
L 197.272753 257.41479 
L 197.272753 256.855608 
L 197.4292 256.855608 
L 197.4292 255.737243 
L 198.396535 255.737243 
L 198.396535 255.178061 
L 200.113419 255.178061 
L 200.113419 254.618879 
L 254.458108 254.618879 
L 254.552177 250.704603 
L 254.627252 250.704603 
L 254.684348 249.586238 
L 254.887267 249.586238 
L 254.887267 249.027056 
L 266.276479 249.027056 
L 266.368574 246.790327 
L 266.471765 246.790327 
L 266.471765 245.671963 
L 273.186855 245.671963 
L 273.243992 243.435234 
L 278.105269 243.435234 
L 278.105269 242.876052 
L 281.986824 242.876052 
L 281.986824 242.316869 
L 285.090663 242.316869 
L 285.090663 241.757687 
L 287.71483 241.757687 
L 287.747755 240.639323 
L 290.013153 240.639323 
L 290.023887 239.520958 
L 292.055995 239.520958 
L 292.055995 238.961776 
L 293.840179 238.961776 
L 293.863248 237.284229 
L 295.481675 237.284229 
L 295.481675 236.725047 
L 296.976375 236.725047 
L 296.976375 236.165865 
L 298.356936 236.165865 
L 298.356936 235.606682 
L 299.624872 235.606682 
L 299.624872 235.0475 
L 300.816158 235.0475 
L 300.816158 234.488318 
L 306.596897 234.488318 
L 306.596897 233.929136 
L 321.166662 233.929136 
L 321.166662 233.369954 
L 333.429677 233.369954 
L 333.429677 233.369954 
" style="fill:none;stroke:#ffa500;stroke-linecap:square;stroke-width:1.5;"/>
   </g>
   <g id="line2d_34">
    <defs>
     <path d="M 0 -6 
L -1.347084 -1.854102 
L -5.706339 -1.854102 
L -2.179628 0.708204 
L -3.526712 4.854102 
L -0 2.291796 
L 3.526712 4.854102 
L 2.179628 0.708204 
L 5.706339 -1.854102 
L 1.347084 -1.854102 
z
" id="m82e5d61f7b" style="stroke:#ffa500;stroke-linejoin:bevel;stroke-width:1.5;"/>
    </defs>
    <g>
     <use style="fill-opacity:0;stroke:#ffa500;stroke-linejoin:bevel;stroke-width:1.5;" x="197.4292" xlink:href="#m82e5d61f7b" y="255.737243"/>
     <use style="fill-opacity:0;stroke:#ffa500;stroke-linejoin:bevel;stroke-width:1.5;" x="273.243992" xlink:href="#m82e5d61f7b" y="243.994416"/>
     <use style="fill-opacity:0;stroke:#ffa500;stroke-linejoin:bevel;stroke-width:1.5;" x="321.166662" xlink:href="#m82e5d61f7b" y="233.929136"/>
     <use style="fill-opacity:0;stroke:#ffa500;stroke-linejoin:bevel;stroke-width:1.5;" x="321.166662" xlink:href="#m82e5d61f7b" y="233.369954"/>
     <use style="fill-opacity:0;stroke:#ffa500;stroke-linejoin:bevel;stroke-width:1.5;" x="333.429677" xlink:href="#m82e5d61f7b" y="233.369954"/>
    </g>
   </g>
   <g id="line2d_35">
    <path style="fill:none;stroke:#ffa500;stroke-linecap:square;stroke-width:1.5;"/>
    <g/>
   </g>
   <g id="line2d_36">
    <path clip-path="url(#p4b8cc7dbf2)" d="M 254.198358 254.618879 
" style="fill:none;stroke:#ffa500;stroke-linecap:square;stroke-width:1.5;"/>
    <defs>
     <path d="M -12 12 
L 12 -12 
M -12 -12 
L 12 12 
" id="mc0871abeac" style="stroke:#ffa500;stroke-width:3;"/>
    </defs>
    <g clip-path="url(#p4b8cc7dbf2)">
     <use style="fill:#ffa500;stroke:#ffa500;stroke-width:3;" x="254.198358" xlink:href="#mc0871abeac" y="254.618879"/>
    </g>
   </g>
   <g id="line2d_37">
    <defs>
     <path d="M 0 1.5 
C 0.397805 1.5 0.77937 1.341951 1.06066 1.06066 
C 1.341951 0.77937 1.5 0.397805 1.5 0 
C 1.5 -0.397805 1.341951 -0.77937 1.06066 -1.06066 
C 0.77937 -1.341951 0.397805 -1.5 0 -1.5 
C -0.397805 -1.5 -0.77937 -1.341951 -1.06066 -1.06066 
C -1.341951 -0.77937 -1.5 -0.397805 -1.5 0 
C -1.5 0.397805 -1.341951 0.77937 -1.06066 1.06066 
C -0.77937 1.341951 -0.397805 1.5 0 1.5 
z
" id="m2345e0b153" style="stroke:#6495ed;"/>
    </defs>
    <g>
     <use style="fill:#6495ed;stroke:#6495ed;" x="295.49062" xlink:href="#m2345e0b153" y="255.737243"/>
     <use style="fill:#6495ed;stroke:#6495ed;" x="295.49062" xlink:href="#m2345e0b153" y="255.737243"/>
    </g>
   </g>
   <g id="line2d_38">
    <path d="M 146.502667 294.88 
L 146.502667 294.320818 
L 151.68458 294.320818 
L 151.68458 293.761636 
L 155.168539 293.761636 
L 155.168539 292.084089 
L 158.589384 292.084089 
L 158.589384 291.524907 
L 158.907348 291.524907 
L 158.907348 290.406542 
L 159.228133 290.406542 
L 159.228133 289.84736 
L 160.382475 289.84736 
L 160.382475 288.169813 
L 160.478592 288.169813 
L 160.478592 287.610631 
L 162.417839 287.610631 
L 162.417839 286.492266 
L 168.572927 286.492266 
L 168.572927 285.373902 
L 169.60892 285.373902 
L 169.60892 284.81472 
L 169.943909 284.81472 
L 169.943909 283.696355 
L 170.554957 283.696355 
L 170.554957 283.137173 
L 170.62596 283.137173 
L 170.62596 282.577991 
L 175.311079 282.577991 
L 175.311079 282.018808 
L 176.867582 282.018808 
L 176.867582 281.459626 
L 177.591597 281.459626 
L 177.591597 280.900444 
L 179.14956 280.900444 
L 179.14956 280.341262 
L 179.35609 280.341262 
L 179.35609 279.222897 
L 180.900369 279.222897 
L 180.900369 278.663715 
L 181.721334 278.663715 
L 181.721334 277.545351 
L 181.723657 277.545351 
L 181.723657 276.426986 
L 183.066253 276.426986 
L 183.066253 275.867804 
L 183.175504 275.867804 
L 183.175504 275.308622 
L 183.230935 275.308622 
L 183.230935 274.749439 
L 183.438276 274.749439 
L 183.438276 273.071893 
L 183.808601 273.071893 
L 183.808601 272.51271 
L 184.54392 272.51271 
L 184.54392 271.953528 
L 185.826121 271.953528 
L 185.826121 271.394346 
L 185.975571 271.394346 
L 185.975571 269.716799 
L 186.474557 269.716799 
L 186.474557 268.598435 
L 186.5379 268.598435 
L 186.5379 268.039252 
L 187.255124 268.039252 
L 187.255124 267.48007 
L 187.946879 267.48007 
L 187.946879 266.920888 
L 188.230945 266.920888 
L 188.230945 266.361706 
L 188.799248 266.361706 
L 188.799248 265.802523 
L 189.198069 265.802523 
L 189.198069 265.243341 
L 190.344709 265.243341 
L 190.344709 264.684159 
L 190.365811 264.684159 
L 190.365811 264.124977 
L 192.306274 264.124977 
L 192.306274 263.006612 
L 192.694982 263.006612 
L 192.694982 261.888248 
L 193.410526 261.888248 
L 193.410526 261.329066 
L 195.651578 261.329066 
L 195.651578 260.769883 
L 195.745422 260.769883 
L 195.745422 259.651519 
L 254.516206 259.651519 
L 254.516206 259.092337 
L 254.764578 259.092337 
L 254.764578 258.533154 
L 266.325266 258.533154 
L 266.325266 257.973972 
L 273.234366 257.973972 
L 273.234366 257.41479 
L 282.003266 257.41479 
L 282.003266 256.855608 
L 293.854496 256.855608 
L 293.854496 256.296425 
L 295.49062 256.296425 
L 295.49062 255.737243 
L 333.429677 255.737243 
" style="fill:none;stroke:#6495ed;stroke-linecap:square;stroke-width:1.5;"/>
   </g>
   <g id="line2d_39">
    <defs>
     <path d="M -0 6 
L 6 -6 
L -6 -6 
z
" id="m014d3771e4" style="stroke:#6495ed;stroke-linejoin:miter;stroke-width:1.5;"/>
    </defs>
    <g>
     <use style="fill-opacity:0;stroke:#6495ed;stroke-linejoin:miter;stroke-width:1.5;" x="195.745422" xlink:href="#m014d3771e4" y="260.769883"/>
     <use style="fill-opacity:0;stroke:#6495ed;stroke-linejoin:miter;stroke-width:1.5;" x="195.745422" xlink:href="#m014d3771e4" y="259.651519"/>
     <use style="fill-opacity:0;stroke:#6495ed;stroke-linejoin:miter;stroke-width:1.5;" x="295.49062" xlink:href="#m014d3771e4" y="256.296425"/>
     <use style="fill-opacity:0;stroke:#6495ed;stroke-linejoin:miter;stroke-width:1.5;" x="295.49062" xlink:href="#m014d3771e4" y="255.737243"/>
     <use style="fill-opacity:0;stroke:#6495ed;stroke-linejoin:miter;stroke-width:1.5;" x="333.429677" xlink:href="#m014d3771e4" y="255.737243"/>
    </g>
   </g>
   <g id="line2d_40">
    <path style="fill:none;stroke:#6495ed;stroke-linecap:square;stroke-width:1.5;"/>
    <g/>
   </g>
   <g id="line2d_41">
    <path clip-path="url(#p4b8cc7dbf2)" d="M 254.198358 259.651519 
" style="fill:none;stroke:#6495ed;stroke-linecap:square;stroke-width:1.5;"/>
    <defs>
     <path d="M -12 12 
L 12 -12 
M -12 -12 
L 12 12 
" id="m44150a0a02" style="stroke:#6495ed;stroke-width:3;"/>
    </defs>
    <g clip-path="url(#p4b8cc7dbf2)">
     <use style="fill:#6495ed;stroke:#6495ed;stroke-width:3;" x="254.198358" xlink:href="#m44150a0a02" y="259.651519"/>
    </g>
   </g>
   <g id="line2d_42">
    <defs>
     <path d="M 0 1.5 
C 0.397805 1.5 0.77937 1.341951 1.06066 1.06066 
C 1.341951 0.77937 1.5 0.397805 1.5 0 
C 1.5 -0.397805 1.341951 -0.77937 1.06066 -1.06066 
C 0.77937 -1.341951 0.397805 -1.5 0 -1.5 
C -0.397805 -1.5 -0.77937 -1.341951 -1.06066 -1.06066 
C -1.341951 -0.77937 -1.5 -0.397805 -1.5 0 
C -1.5 0.397805 -1.341951 0.77937 -1.06066 1.06066 
C -0.77937 1.341951 -0.397805 1.5 0 1.5 
z
" id="mba8751105c" style="stroke:#ff0000;"/>
    </defs>
    <g>
     <use style="fill:#ff0000;stroke:#ff0000;" x="144.741866" xlink:href="#mba8751105c" y="9.697057"/>
     <use style="fill:#ff0000;stroke:#ff0000;" x="144.741866" xlink:href="#mba8751105c" y="9.697057"/>
    </g>
   </g>
   <g id="line2d_43">
    <path d="M 115.20129 294.88 
L 115.20129 294.320818 
L 119.757871 294.320818 
L 119.757871 293.761636 
L 119.842834 293.761636 
L 119.842834 293.202453 
L 120.178549 293.202453 
L 120.178549 292.084089 
L 120.67015 292.084089 
L 120.67015 291.524907 
L 120.750735 291.524907 
L 120.750735 290.965724 
L 121.304503 290.965724 
L 121.304503 290.406542 
L 123.28764 290.406542 
L 123.28764 289.288178 
L 123.425832 289.288178 
L 123.425832 288.728995 
L 124.87691 288.728995 
L 124.87691 288.169813 
L 126.733844 288.169813 
L 126.733844 287.051449 
L 126.847034 287.051449 
L 126.847034 285.373902 
L 127.237437 285.373902 
L 127.237437 284.81472 
L 127.45661 284.81472 
L 127.45661 284.255537 
L 128.461173 284.255537 
L 128.461173 283.696355 
L 129.017032 283.696355 
L 129.017032 282.577991 
L 129.794786 282.577991 
L 129.794786 282.018808 
L 131.252153 282.018808 
L 131.252153 281.459626 
L 131.852883 281.459626 
L 131.852883 279.782079 
L 131.937015 279.782079 
L 131.937015 279.222897 
L 132.145561 279.222897 
L 132.145561 278.663715 
L 132.228277 278.663715 
L 132.228277 277.545351 
L 132.392525 277.545351 
L 132.392525 276.426986 
L 132.55522 276.426986 
L 132.55522 275.867804 
L 132.915754 275.867804 
L 132.915754 274.749439 
L 133.614919 274.749439 
L 133.614919 274.190257 
L 133.690879 274.190257 
L 133.690879 273.071893 
L 134.176608 273.071893 
L 134.176608 271.953528 
L 135.247796 271.953528 
L 135.247796 271.394346 
L 135.385712 271.394346 
L 135.385712 270.835164 
L 135.692038 270.835164 
L 135.692038 269.716799 
L 136.059178 269.716799 
L 136.059178 269.157617 
L 136.190765 269.157617 
L 136.190765 247.34951 
L 136.675441 247.34951 
L 136.675441 245.112781 
L 137.270391 245.112781 
L 137.270391 230.574042 
L 137.514869 230.574042 
L 137.514869 230.01486 
L 138.630934 230.01486 
L 138.630934 212.121028 
L 139.436475 212.121028 
L 139.436475 194.227197 
L 139.865278 194.227197 
L 139.865278 193.668014 
L 139.918135 193.668014 
L 139.918135 179.688458 
L 140.36098 179.688458 
L 140.36098 168.504814 
L 140.61625 168.504814 
L 140.61625 165.708902 
L 140.666852 165.708902 
L 140.666852 149.492617 
L 140.842798 149.492617 
L 140.842798 146.696706 
L 141.23833 146.696706 
L 141.23833 144.459977 
L 141.335808 144.459977 
L 141.335808 143.900795 
L 141.815083 143.900795 
L 141.815083 143.341613 
L 142.441628 143.341613 
L 142.441628 141.664066 
L 142.487143 141.664066 
L 142.487143 106.435585 
L 142.757737 106.435585 
L 142.757737 89.660118 
L 142.891454 89.660118 
L 142.891454 69.529557 
L 143.068142 69.529557 
L 143.068142 54.431636 
L 143.480644 54.431636 
L 143.480644 37.656169 
L 143.841525 37.656169 
L 143.841525 21.439884 
L 144.741866 21.439884 
L 144.741866 9.697057 
L 333.429677 9.697057 
" style="fill:none;stroke:#ff0000;stroke-linecap:square;stroke-width:1.5;"/>
   </g>
   <g id="line2d_44">
    <defs>
     <path d="M 0 -6 
L -5.196152 -3 
L -5.196152 3 
L -0 6 
L 5.196152 3 
L 5.196152 -3 
z
" id="m63da3f7319" style="stroke:#ff0000;stroke-linejoin:miter;stroke-width:1.5;"/>
    </defs>
    <g>
     <use style="fill-opacity:0;stroke:#ff0000;stroke-linejoin:miter;stroke-width:1.5;" x="142.487143" xlink:href="#m63da3f7319" y="141.664066"/>
     <use style="fill-opacity:0;stroke:#ff0000;stroke-linejoin:miter;stroke-width:1.5;" x="144.741866" xlink:href="#m63da3f7319" y="21.439884"/>
     <use style="fill-opacity:0;stroke:#ff0000;stroke-linejoin:miter;stroke-width:1.5;" x="144.741866" xlink:href="#m63da3f7319" y="9.697057"/>
     <use style="fill-opacity:0;stroke:#ff0000;stroke-linejoin:miter;stroke-width:1.5;" x="144.741866" xlink:href="#m63da3f7319" y="9.697057"/>
     <use style="fill-opacity:0;stroke:#ff0000;stroke-linejoin:miter;stroke-width:1.5;" x="333.429677" xlink:href="#m63da3f7319" y="9.697057"/>
    </g>
   </g>
   <g id="line2d_45">
    <path style="fill:none;stroke:#ff0000;stroke-linecap:square;stroke-width:1.5;"/>
    <g/>
   </g>
   <g id="line2d_46">
    <path d="M 333.429677 255.737243 
L 363.933742 289.176341 
" style="fill:none;stroke:#ff00ff;stroke-linecap:square;stroke-width:1.5;"/>
    <g>
     <use style="fill-opacity:0;stroke:#ff00ff;stroke-linejoin:miter;stroke-width:1.5;" x="333.429677" xlink:href="#m373adaaa18" y="255.737243"/>
     <use style="fill-opacity:0;stroke:#ff00ff;stroke-linejoin:miter;stroke-width:1.5;" x="363.933742" xlink:href="#m373adaaa18" y="289.176341"/>
    </g>
   </g>
   <g id="line2d_47">
    <path d="M 333.429677 255.737243 
L 363.933742 220.732435 
" style="fill:none;stroke:#6495ed;stroke-linecap:square;stroke-width:1.5;"/>
    <g>
     <use style="fill-opacity:0;stroke:#6495ed;stroke-linejoin:miter;stroke-width:1.5;" x="333.429677" xlink:href="#m014d3771e4" y="255.737243"/>
     <use style="fill-opacity:0;stroke:#6495ed;stroke-linejoin:miter;stroke-width:1.5;" x="363.933742" xlink:href="#m014d3771e4" y="220.732435"/>
    </g>
   </g>
   <g id="line2d_48">
    <path d="M 333.429677 233.369954 
L 363.933742 152.288529 
" style="fill:none;stroke:#ffa500;stroke-linecap:square;stroke-width:1.5;"/>
    <g>
     <use style="fill-opacity:0;stroke:#ffa500;stroke-linejoin:bevel;stroke-width:1.5;" x="333.429677" xlink:href="#m82e5d61f7b" y="233.369954"/>
     <use style="fill-opacity:0;stroke:#ffa500;stroke-linejoin:bevel;stroke-width:1.5;" x="363.933742" xlink:href="#m82e5d61f7b" y="152.288529"/>
    </g>
   </g>
   <g id="line2d_49">
    <path d="M 333.429677 9.697057 
L 363.933742 83.844622 
" style="fill:none;stroke:#000080;stroke-linecap:square;stroke-width:1.5;"/>
    <g>
     <use style="fill-opacity:0;stroke:#000080;stroke-width:1.5;" x="333.429677" xlink:href="#md0c2d47888" y="9.697057"/>
     <use style="fill-opacity:0;stroke:#000080;stroke-width:1.5;" x="363.933742" xlink:href="#md0c2d47888" y="83.844622"/>
    </g>
   </g>
   <g id="line2d_50">
    <path d="M 333.429677 9.697057 
L 363.933742 15.400716 
" style="fill:none;stroke:#ff0000;stroke-linecap:square;stroke-width:1.5;"/>
    <g>
     <use style="fill-opacity:0;stroke:#ff0000;stroke-linejoin:miter;stroke-width:1.5;" x="333.429677" xlink:href="#m63da3f7319" y="9.697057"/>
     <use style="fill-opacity:0;stroke:#ff0000;stroke-linejoin:miter;stroke-width:1.5;" x="363.933742" xlink:href="#m63da3f7319" y="15.400716"/>
    </g>
   </g>
   <g id="line2d_51">
    <path d="M 333.429677 294.88 
L 333.429677 9.697057 
" style="fill:none;stroke:#000000;stroke-linecap:square;stroke-width:1.5;"/>
   </g>
   <g id="patch_3">
    <path d="M 56.12 294.88 
L 56.12 6.845228 
" style="fill:none;stroke:#000000;stroke-linecap:square;stroke-linejoin:miter;stroke-width:0.8;"/>
   </g>
   <g id="patch_4">
    <path d="M 399.984 294.88 
L 399.984 6.845228 
" style="fill:none;stroke:#000000;stroke-linecap:square;stroke-linejoin:miter;stroke-width:0.8;"/>
   </g>
   <g id="patch_5">
    <path d="M 56.12 294.88 
L 399.984 294.88 
" style="fill:none;stroke:#000000;stroke-linecap:square;stroke-linejoin:miter;stroke-width:0.8;"/>
   </g>
   <g id="patch_6">
    <path d="M 56.12 6.845228 
L 399.984 6.845228 
" style="fill:none;stroke:#000000;stroke-linecap:square;stroke-linejoin:miter;stroke-width:0.8;"/>
   </g>
   <g id="text_14">
    <!-- f2 -->
    <g transform="translate(369.479935 293.867279)scale(0.17 -0.17)">
     <use xlink:href="#DejaVuSans-66"/>
     <use x="35.205078" xlink:href="#DejaVuSans-32"/>
    </g>
   </g>
   <g id="text_15">
    <!-- f4 -->
    <g transform="translate(369.479935 225.423372)scale(0.17 -0.17)">
     <use xlink:href="#DejaVuSans-66"/>
     <use x="35.205078" xlink:href="#DejaVuSans-34"/>
    </g>
   </g>
   <g id="text_16">
    <!-- f3 -->
    <defs>
     <path d="M 40.578125 39.3125 
Q 47.65625 37.796875 51.625 33 
Q 55.609375 28.21875 55.609375 21.1875 
Q 55.609375 10.40625 48.1875 4.484375 
Q 40.765625 -1.421875 27.09375 -1.421875 
Q 22.515625 -1.421875 17.65625 -0.515625 
Q 12.796875 0.390625 7.625 2.203125 
L 7.625 11.71875 
Q 11.71875 9.328125 16.59375 8.109375 
Q 21.484375 6.890625 26.8125 6.890625 
Q 36.078125 6.890625 40.9375 10.546875 
Q 45.796875 14.203125 45.796875 21.1875 
Q 45.796875 27.640625 41.28125 31.265625 
Q 36.765625 34.90625 28.71875 34.90625 
L 20.21875 34.90625 
L 20.21875 43.015625 
L 29.109375 43.015625 
Q 36.375 43.015625 40.234375 45.921875 
Q 44.09375 48.828125 44.09375 54.296875 
Q 44.09375 59.90625 40.109375 62.90625 
Q 36.140625 65.921875 28.71875 65.921875 
Q 24.65625 65.921875 20.015625 65.03125 
Q 15.375 64.15625 9.8125 62.3125 
L 9.8125 71.09375 
Q 15.4375 72.65625 20.34375 73.4375 
Q 25.25 74.21875 29.59375 74.21875 
Q 40.828125 74.21875 47.359375 69.109375 
Q 53.90625 64.015625 53.90625 55.328125 
Q 53.90625 49.265625 50.4375 45.09375 
Q 46.96875 40.921875 40.578125 39.3125 
z
" id="DejaVuSans-33"/>
    </defs>
    <g transform="translate(369.479935 156.979466)scale(0.17 -0.17)">
     <use xlink:href="#DejaVuSans-66"/>
     <use x="35.205078" xlink:href="#DejaVuSans-33"/>
    </g>
   </g>
   <g id="text_17">
    <!-- f1 -->
    <g transform="translate(369.479935 88.53556)scale(0.17 -0.17)">
     <use xlink:href="#DejaVuSans-66"/>
     <use x="35.205078" xlink:href="#DejaVuSans-31"/>
    </g>
   </g>
   <g id="text_18">
    <!-- f5 -->
    <defs>
     <path d="M 10.796875 72.90625 
L 49.515625 72.90625 
L 49.515625 64.59375 
L 19.828125 64.59375 
L 19.828125 46.734375 
Q 21.96875 47.46875 24.109375 47.828125 
Q 26.265625 48.1875 28.421875 48.1875 
Q 40.625 48.1875 47.75 41.5 
Q 54.890625 34.8125 54.890625 23.390625 
Q 54.890625 11.625 47.5625 5.09375 
Q 40.234375 -1.421875 26.90625 -1.421875 
Q 22.3125 -1.421875 17.546875 -0.640625 
Q 12.796875 0.140625 7.71875 1.703125 
L 7.71875 11.625 
Q 12.109375 9.234375 16.796875 8.0625 
Q 21.484375 6.890625 26.703125 6.890625 
Q 35.15625 6.890625 40.078125 11.328125 
Q 45.015625 15.765625 45.015625 23.390625 
Q 45.015625 31 40.078125 35.4375 
Q 35.15625 39.890625 26.703125 39.890625 
Q 22.75 39.890625 18.8125 39.015625 
Q 14.890625 38.140625 10.796875 36.28125 
z
" id="DejaVuSans-35"/>
    </defs>
    <g transform="translate(369.479935 20.091654)scale(0.17 -0.17)">
     <use xlink:href="#DejaVuSans-66"/>
     <use x="35.205078" xlink:href="#DejaVuSans-35"/>
    </g>
   </g>
   <g id="text_19">
    <!-- bbob -->
    <defs>
     <path d="M 48.6875 27.296875 
Q 48.6875 37.203125 44.609375 42.84375 
Q 40.53125 48.484375 33.40625 48.484375 
Q 26.265625 48.484375 22.1875 42.84375 
Q 18.109375 37.203125 18.109375 27.296875 
Q 18.109375 17.390625 22.1875 11.75 
Q 26.265625 6.109375 33.40625 6.109375 
Q 40.53125 6.109375 44.609375 11.75 
Q 48.6875 17.390625 48.6875 27.296875 
z
M 18.109375 46.390625 
Q 20.953125 51.265625 25.265625 53.625 
Q 29.59375 56 35.59375 56 
Q 45.5625 56 51.78125 48.09375 
Q 58.015625 40.1875 58.015625 27.296875 
Q 58.015625 14.40625 51.78125 6.484375 
Q 45.5625 -1.421875 35.59375 -1.421875 
Q 29.59375 -1.421875 25.265625 0.953125 
Q 20.953125 3.328125 18.109375 8.203125 
L 18.109375 0 
L 9.078125 0 
L 9.078125 75.984375 
L 18.109375 75.984375 
z
" id="DejaVuSans-62"/>
    </defs>
    <g transform="translate(59.55864 17.475982)scale(0.102 -0.102)">
     <use xlink:href="#DejaVuSans-62"/>
     <use x="63.476562" xlink:href="#DejaVuSans-62"/>
     <use x="126.953125" xlink:href="#DejaVuSans-6f"/>
     <use x="188.134766" xlink:href="#DejaVuSans-62"/>
    </g>
    <!-- Separable functions, 10-D -->
    <defs>
     <path d="M 53.515625 70.515625 
L 53.515625 60.890625 
Q 47.90625 63.578125 42.921875 64.890625 
Q 37.9375 66.21875 33.296875 66.21875 
Q 25.25 66.21875 20.875 63.09375 
Q 16.5 59.96875 16.5 54.203125 
Q 16.5 49.359375 19.40625 46.890625 
Q 22.3125 44.4375 30.421875 42.921875 
L 36.375 41.703125 
Q 47.40625 39.59375 52.65625 34.296875 
Q 57.90625 29 57.90625 20.125 
Q 57.90625 9.515625 50.796875 4.046875 
Q 43.703125 -1.421875 29.984375 -1.421875 
Q 24.8125 -1.421875 18.96875 -0.25 
Q 13.140625 0.921875 6.890625 3.21875 
L 6.890625 13.375 
Q 12.890625 10.015625 18.65625 8.296875 
Q 24.421875 6.59375 29.984375 6.59375 
Q 38.421875 6.59375 43.015625 9.90625 
Q 47.609375 13.234375 47.609375 19.390625 
Q 47.609375 24.75 44.3125 27.78125 
Q 41.015625 30.8125 33.5 32.328125 
L 27.484375 33.5 
Q 16.453125 35.6875 11.515625 40.375 
Q 6.59375 45.0625 6.59375 53.421875 
Q 6.59375 63.09375 13.40625 68.65625 
Q 20.21875 74.21875 32.171875 74.21875 
Q 37.3125 74.21875 42.625 73.28125 
Q 47.953125 72.359375 53.515625 70.515625 
z
" id="DejaVuSans-53"/>
     <path d="M 19.671875 64.796875 
L 19.671875 8.109375 
L 31.59375 8.109375 
Q 46.6875 8.109375 53.6875 14.9375 
Q 60.6875 21.78125 60.6875 36.53125 
Q 60.6875 51.171875 53.6875 57.984375 
Q 46.6875 64.796875 31.59375 64.796875 
z
M 9.8125 72.90625 
L 30.078125 72.90625 
Q 51.265625 72.90625 61.171875 64.09375 
Q 71.09375 55.28125 71.09375 36.53125 
Q 71.09375 17.671875 61.125 8.828125 
Q 51.171875 0 30.078125 0 
L 9.8125 0 
z
" id="DejaVuSans-44"/>
    </defs>
    <g transform="translate(59.55864 28.89775)scale(0.102 -0.102)">
     <use xlink:href="#DejaVuSans-53"/>
     <use x="63.476562" xlink:href="#DejaVuSans-65"/>
     <use x="125" xlink:href="#DejaVuSans-70"/>
     <use x="188.476562" xlink:href="#DejaVuSans-61"/>
     <use x="249.755859" xlink:href="#DejaVuSans-72"/>
     <use x="290.869141" xlink:href="#DejaVuSans-61"/>
     <use x="352.148438" xlink:href="#DejaVuSans-62"/>
     <use x="415.625" xlink:href="#DejaVuSans-6c"/>
     <use x="443.408203" xlink:href="#DejaVuSans-65"/>
     <use x="504.931641" xlink:href="#DejaVuSans-20"/>
     <use x="536.71875" xlink:href="#DejaVuSans-66"/>
     <use x="571.923828" xlink:href="#DejaVuSans-75"/>
     <use x="635.302734" xlink:href="#DejaVuSans-6e"/>
     <use x="698.681641" xlink:href="#DejaVuSans-63"/>
     <use x="753.662109" xlink:href="#DejaVuSans-74"/>
     <use x="792.871094" xlink:href="#DejaVuSans-69"/>
     <use x="820.654297" xlink:href="#DejaVuSans-6f"/>
     <use x="881.835938" xlink:href="#DejaVuSans-6e"/>
     <use x="945.214844" xlink:href="#DejaVuSans-73"/>
     <use x="997.314453" xlink:href="#DejaVuSans-2c"/>
     <use x="1029.101562" xlink:href="#DejaVuSans-20"/>
     <use x="1060.888672" xlink:href="#DejaVuSans-31"/>
     <use x="1124.511719" xlink:href="#DejaVuSans-30"/>
     <use x="1188.134766" xlink:href="#DejaVuSans-2d"/>
     <use x="1224.21875" xlink:href="#DejaVuSans-44"/>
    </g>
    <!-- 51 targets: 100..1e-08 -->
    <defs>
     <path d="M 11.71875 12.40625 
L 22.015625 12.40625 
L 22.015625 0 
L 11.71875 0 
z
M 11.71875 51.703125 
L 22.015625 51.703125 
L 22.015625 39.3125 
L 11.71875 39.3125 
z
" id="DejaVuSans-3a"/>
    </defs>
    <g transform="translate(59.55864 40.319519)scale(0.102 -0.102)">
     <use xlink:href="#DejaVuSans-35"/>
     <use x="63.623047" xlink:href="#DejaVuSans-31"/>
     <use x="127.246094" xlink:href="#DejaVuSans-20"/>
     <use x="159.033203" xlink:href="#DejaVuSans-74"/>
     <use x="198.242188" xlink:href="#DejaVuSans-61"/>
     <use x="259.521484" xlink:href="#DejaVuSans-72"/>
     <use x="300.619141" xlink:href="#DejaVuSans-67"/>
     <use x="364.095703" xlink:href="#DejaVuSans-65"/>
     <use x="425.619141" xlink:href="#DejaVuSans-74"/>
     <use x="464.828125" xlink:href="#DejaVuSans-73"/>
     <use x="516.927734" xlink:href="#DejaVuSans-3a"/>
     <use x="550.619141" xlink:href="#DejaVuSans-20"/>
     <use x="582.40625" xlink:href="#DejaVuSans-31"/>
     <use x="646.029297" xlink:href="#DejaVuSans-30"/>
     <use x="709.652344" xlink:href="#DejaVuSans-30"/>
     <use x="773.275391" xlink:href="#DejaVuSans-2e"/>
     <use x="805.0625" xlink:href="#DejaVuSans-2e"/>
     <use x="836.849609" xlink:href="#DejaVuSans-31"/>
     <use x="900.472656" xlink:href="#DejaVuSans-65"/>
     <use x="961.996094" xlink:href="#DejaVuSans-2d"/>
     <use x="998.080078" xlink:href="#DejaVuSans-30"/>
     <use x="1061.703125" xlink:href="#DejaVuSans-38"/>
    </g>
    <!-- 15 instances -->
    <g transform="translate(59.55864 51.741288)scale(0.102 -0.102)">
     <use xlink:href="#DejaVuSans-31"/>
     <use x="63.623047" xlink:href="#DejaVuSans-35"/>
     <use x="127.246094" xlink:href="#DejaVuSans-20"/>
     <use x="159.033203" xlink:href="#DejaVuSans-69"/>
     <use x="186.816406" xlink:href="#DejaVuSans-6e"/>
     <use x="250.195312" xlink:href="#DejaVuSans-73"/>
     <use x="302.294922" xlink:href="#DejaVuSans-74"/>
     <use x="341.503906" xlink:href="#DejaVuSans-61"/>
     <use x="402.783203" xlink:href="#DejaVuSans-6e"/>
     <use x="466.162109" xlink:href="#DejaVuSans-63"/>
     <use x="521.142578" xlink:href="#DejaVuSans-65"/>
     <use x="582.666016" xlink:href="#DejaVuSans-73"/>
    </g>
   </g>
   <g id="text_20">
    <!-- v0.0.0 -->
    <g style="fill:#808080;" transform="translate(212.37075 289.919965)scale(0.1 -0.1)">
     <use xlink:href="#DejaVuSans-76"/>
     <use x="59.179688" xlink:href="#DejaVuSans-30"/>
     <use x="122.802734" xlink:href="#DejaVuSans-2e"/>
     <use x="154.589844" xlink:href="#DejaVuSans-30"/>
     <use x="218.212891" xlink:href="#DejaVuSans-2e"/>
     <use x="250" xlink:href="#DejaVuSans-30"/>
    </g>
   </g>
  </g>
 </g>
 <defs>
  <clipPath id="p4b8cc7dbf2">
   <rect height="288.034772" width="343.864" x="56.12" y="6.845228"/>
  </clipPath>
 </defs>
</svg>
