<?xml version="1.0" encoding="utf-8" standalone="no"?>
<!DOCTYPE svg PUBLIC "-//W3C//DTD SVG 1.1//EN"
  "http://www.w3.org/Graphics/SVG/1.1/DTD/svg11.dtd">
<!-- Created with matplotlib (http://matplotlib.org/) -->
<svg height="345.6pt" version="1.1" viewBox="0 0 460.8 345.6" width="460.8pt" xmlns="http://www.w3.org/2000/svg" xmlns:xlink="http://www.w3.org/1999/xlink">
 <defs>
  <style type="text/css">
*{stroke-linecap:butt;stroke-linejoin:round;}
  </style>
 </defs>
 <g id="figure_1">
  <g id="patch_1">
   <path d="M 0 345.6 
L 460.8 345.6 
L 460.8 0 
L 0 0 
z
" style="fill:#ffffff;"/>
  </g>
  <g id="axes_1">
   <g id="patch_2">
    <path d="M 56.12 294.88 
L 399.984 294.88 
L 399.984 6.845228 
L 56.12 6.845228 
z
" style="fill:#ffffff;"/>
   </g>
   <g id="matplotlib.axis_1">
    <g id="xtick_1">
     <g id="line2d_1">
      <path clip-path="url(#p7aecb09baa)" d="M 56.12 294.88 
L 56.12 6.845228 
" style="fill:none;stroke:#b0b0b0;stroke-linecap:square;stroke-width:0.8;"/>
     </g>
     <g id="line2d_2">
      <defs>
       <path d="M 0 0 
L 0 3.5 
" id="m3145b7c984" style="stroke:#000000;stroke-width:0.8;"/>
      </defs>
      <g>
       <use style="stroke:#000000;stroke-width:0.8;" x="56.12" xlink:href="#m3145b7c984" y="294.88"/>
      </g>
     </g>
     <g id="text_1">
      <!-- 0 -->
      <defs>
       <path d="M 31.78125 66.40625 
Q 24.171875 66.40625 20.328125 58.90625 
Q 16.5 51.421875 16.5 36.375 
Q 16.5 21.390625 20.328125 13.890625 
Q 24.171875 6.390625 31.78125 6.390625 
Q 39.453125 6.390625 43.28125 13.890625 
Q 47.125 21.390625 47.125 36.375 
Q 47.125 51.421875 43.28125 58.90625 
Q 39.453125 66.40625 31.78125 66.40625 
z
M 31.78125 74.21875 
Q 44.046875 74.21875 50.515625 64.515625 
Q 56.984375 54.828125 56.984375 36.375 
Q 56.984375 17.96875 50.515625 8.265625 
Q 44.046875 -1.421875 31.78125 -1.421875 
Q 19.53125 -1.421875 13.0625 8.265625 
Q 6.59375 17.96875 6.59375 36.375 
Q 6.59375 54.828125 13.0625 64.515625 
Q 19.53125 74.21875 31.78125 74.21875 
z
" id="DejaVuSans-30"/>
      </defs>
      <g transform="translate(49.7575 317.076875)scale(0.2 -0.2)">
       <use xlink:href="#DejaVuSans-30"/>
      </g>
     </g>
    </g>
    <g id="xtick_2">
     <g id="line2d_3">
      <path clip-path="url(#p7aecb09baa)" d="M 135.351336 294.88 
L 135.351336 6.845228 
" style="fill:none;stroke:#b0b0b0;stroke-linecap:square;stroke-width:0.8;"/>
     </g>
     <g id="line2d_4">
      <g>
       <use style="stroke:#000000;stroke-width:0.8;" x="135.351336" xlink:href="#m3145b7c984" y="294.88"/>
      </g>
     </g>
     <g id="text_2">
      <!-- 2 -->
      <defs>
       <path d="M 19.1875 8.296875 
L 53.609375 8.296875 
L 53.609375 0 
L 7.328125 0 
L 7.328125 8.296875 
Q 12.9375 14.109375 22.625 23.890625 
Q 32.328125 33.6875 34.8125 36.53125 
Q 39.546875 41.84375 41.421875 45.53125 
Q 43.3125 49.21875 43.3125 52.78125 
Q 43.3125 58.59375 39.234375 62.25 
Q 35.15625 65.921875 28.609375 65.921875 
Q 23.96875 65.921875 18.8125 64.3125 
Q 13.671875 62.703125 7.8125 59.421875 
L 7.8125 69.390625 
Q 13.765625 71.78125 18.9375 73 
Q 24.125 74.21875 28.421875 74.21875 
Q 39.75 74.21875 46.484375 68.546875 
Q 53.21875 62.890625 53.21875 53.421875 
Q 53.21875 48.921875 51.53125 44.890625 
Q 49.859375 40.875 45.40625 35.40625 
Q 44.1875 33.984375 37.640625 27.21875 
Q 31.109375 20.453125 19.1875 8.296875 
z
" id="DejaVuSans-32"/>
      </defs>
      <g transform="translate(128.988836 317.076875)scale(0.2 -0.2)">
       <use xlink:href="#DejaVuSans-32"/>
      </g>
     </g>
    </g>
    <g id="xtick_3">
     <g id="line2d_5">
      <path clip-path="url(#p7aecb09baa)" d="M 214.582673 294.88 
L 214.582673 6.845228 
" style="fill:none;stroke:#b0b0b0;stroke-linecap:square;stroke-width:0.8;"/>
     </g>
     <g id="line2d_6">
      <g>
       <use style="stroke:#000000;stroke-width:0.8;" x="214.582673" xlink:href="#m3145b7c984" y="294.88"/>
      </g>
     </g>
     <g id="text_3">
      <!-- 4 -->
      <defs>
       <path d="M 37.796875 64.3125 
L 12.890625 25.390625 
L 37.796875 25.390625 
z
M 35.203125 72.90625 
L 47.609375 72.90625 
L 47.609375 25.390625 
L 58.015625 25.390625 
L 58.015625 17.1875 
L 47.609375 17.1875 
L 47.609375 0 
L 37.796875 0 
L 37.796875 17.1875 
L 4.890625 17.1875 
L 4.890625 26.703125 
z
" id="DejaVuSans-34"/>
      </defs>
      <g transform="translate(208.220173 317.076875)scale(0.2 -0.2)">
       <use xlink:href="#DejaVuSans-34"/>
      </g>
     </g>
    </g>
    <g id="xtick_4">
     <g id="line2d_7">
      <path clip-path="url(#p7aecb09baa)" d="M 293.814009 294.88 
L 293.814009 6.845228 
" style="fill:none;stroke:#b0b0b0;stroke-linecap:square;stroke-width:0.8;"/>
     </g>
     <g id="line2d_8">
      <g>
       <use style="stroke:#000000;stroke-width:0.8;" x="293.814009" xlink:href="#m3145b7c984" y="294.88"/>
      </g>
     </g>
     <g id="text_4">
      <!-- 6 -->
      <defs>
       <path d="M 33.015625 40.375 
Q 26.375 40.375 22.484375 35.828125 
Q 18.609375 31.296875 18.609375 23.390625 
Q 18.609375 15.53125 22.484375 10.953125 
Q 26.375 6.390625 33.015625 6.390625 
Q 39.65625 6.390625 43.53125 10.953125 
Q 47.40625 15.53125 47.40625 23.390625 
Q 47.40625 31.296875 43.53125 35.828125 
Q 39.65625 40.375 33.015625 40.375 
z
M 52.59375 71.296875 
L 52.59375 62.3125 
Q 48.875 64.0625 45.09375 64.984375 
Q 41.3125 65.921875 37.59375 65.921875 
Q 27.828125 65.921875 22.671875 59.328125 
Q 17.53125 52.734375 16.796875 39.40625 
Q 19.671875 43.65625 24.015625 45.921875 
Q 28.375 48.1875 33.59375 48.1875 
Q 44.578125 48.1875 50.953125 41.515625 
Q 57.328125 34.859375 57.328125 23.390625 
Q 57.328125 12.15625 50.6875 5.359375 
Q 44.046875 -1.421875 33.015625 -1.421875 
Q 20.359375 -1.421875 13.671875 8.265625 
Q 6.984375 17.96875 6.984375 36.375 
Q 6.984375 53.65625 15.1875 63.9375 
Q 23.390625 74.21875 37.203125 74.21875 
Q 40.921875 74.21875 44.703125 73.484375 
Q 48.484375 72.75 52.59375 71.296875 
z
" id="DejaVuSans-36"/>
      </defs>
      <g transform="translate(287.451509 317.076875)scale(0.2 -0.2)">
       <use xlink:href="#DejaVuSans-36"/>
      </g>
     </g>
    </g>
    <g id="xtick_5">
     <g id="line2d_9">
      <path clip-path="url(#p7aecb09baa)" d="M 373.045346 294.88 
L 373.045346 6.845228 
" style="fill:none;stroke:#b0b0b0;stroke-linecap:square;stroke-width:0.8;"/>
     </g>
     <g id="line2d_10">
      <g>
       <use style="stroke:#000000;stroke-width:0.8;" x="373.045346" xlink:href="#m3145b7c984" y="294.88"/>
      </g>
     </g>
     <g id="text_5">
      <!-- 8 -->
      <defs>
       <path d="M 31.78125 34.625 
Q 24.75 34.625 20.71875 30.859375 
Q 16.703125 27.09375 16.703125 20.515625 
Q 16.703125 13.921875 20.71875 10.15625 
Q 24.75 6.390625 31.78125 6.390625 
Q 38.8125 6.390625 42.859375 10.171875 
Q 46.921875 13.96875 46.921875 20.515625 
Q 46.921875 27.09375 42.890625 30.859375 
Q 38.875 34.625 31.78125 34.625 
z
M 21.921875 38.8125 
Q 15.578125 40.375 12.03125 44.71875 
Q 8.5 49.078125 8.5 55.328125 
Q 8.5 64.0625 14.71875 69.140625 
Q 20.953125 74.21875 31.78125 74.21875 
Q 42.671875 74.21875 48.875 69.140625 
Q 55.078125 64.0625 55.078125 55.328125 
Q 55.078125 49.078125 51.53125 44.71875 
Q 48 40.375 41.703125 38.8125 
Q 48.828125 37.15625 52.796875 32.3125 
Q 56.78125 27.484375 56.78125 20.515625 
Q 56.78125 9.90625 50.3125 4.234375 
Q 43.84375 -1.421875 31.78125 -1.421875 
Q 19.734375 -1.421875 13.25 4.234375 
Q 6.78125 9.90625 6.78125 20.515625 
Q 6.78125 27.484375 10.78125 32.3125 
Q 14.796875 37.15625 21.921875 38.8125 
z
M 18.3125 54.390625 
Q 18.3125 48.734375 21.84375 45.5625 
Q 25.390625 42.390625 31.78125 42.390625 
Q 38.140625 42.390625 41.71875 45.5625 
Q 45.3125 48.734375 45.3125 54.390625 
Q 45.3125 60.0625 41.71875 63.234375 
Q 38.140625 66.40625 31.78125 66.40625 
Q 25.390625 66.40625 21.84375 63.234375 
Q 18.3125 60.0625 18.3125 54.390625 
z
" id="DejaVuSans-38"/>
      </defs>
      <g transform="translate(366.682846 317.076875)scale(0.2 -0.2)">
       <use xlink:href="#DejaVuSans-38"/>
      </g>
     </g>
    </g>
    <g id="text_6">
     <!-- log10(# f-evals / dimension) -->
     <defs>
      <path d="M 9.421875 75.984375 
L 18.40625 75.984375 
L 18.40625 0 
L 9.421875 0 
z
" id="DejaVuSans-6c"/>
      <path d="M 30.609375 48.390625 
Q 23.390625 48.390625 19.1875 42.75 
Q 14.984375 37.109375 14.984375 27.296875 
Q 14.984375 17.484375 19.15625 11.84375 
Q 23.34375 6.203125 30.609375 6.203125 
Q 37.796875 6.203125 41.984375 11.859375 
Q 46.1875 17.53125 46.1875 27.296875 
Q 46.1875 37.015625 41.984375 42.703125 
Q 37.796875 48.390625 30.609375 48.390625 
z
M 30.609375 56 
Q 42.328125 56 49.015625 48.375 
Q 55.71875 40.765625 55.71875 27.296875 
Q 55.71875 13.875 49.015625 6.21875 
Q 42.328125 -1.421875 30.609375 -1.421875 
Q 18.84375 -1.421875 12.171875 6.21875 
Q 5.515625 13.875 5.515625 27.296875 
Q 5.515625 40.765625 12.171875 48.375 
Q 18.84375 56 30.609375 56 
z
" id="DejaVuSans-6f"/>
      <path d="M 45.40625 27.984375 
Q 45.40625 37.75 41.375 43.109375 
Q 37.359375 48.484375 30.078125 48.484375 
Q 22.859375 48.484375 18.828125 43.109375 
Q 14.796875 37.75 14.796875 27.984375 
Q 14.796875 18.265625 18.828125 12.890625 
Q 22.859375 7.515625 30.078125 7.515625 
Q 37.359375 7.515625 41.375 12.890625 
Q 45.40625 18.265625 45.40625 27.984375 
z
M 54.390625 6.78125 
Q 54.390625 -7.171875 48.1875 -13.984375 
Q 42 -20.796875 29.203125 -20.796875 
Q 24.46875 -20.796875 20.265625 -20.09375 
Q 16.0625 -19.390625 12.109375 -17.921875 
L 12.109375 -9.1875 
Q 16.0625 -11.328125 19.921875 -12.34375 
Q 23.78125 -13.375 27.78125 -13.375 
Q 36.625 -13.375 41.015625 -8.765625 
Q 45.40625 -4.15625 45.40625 5.171875 
L 45.40625 9.625 
Q 42.625 4.78125 38.28125 2.390625 
Q 33.9375 0 27.875 0 
Q 17.828125 0 11.671875 7.65625 
Q 5.515625 15.328125 5.515625 27.984375 
Q 5.515625 40.671875 11.671875 48.328125 
Q 17.828125 56 27.875 56 
Q 33.9375 56 38.28125 53.609375 
Q 42.625 51.21875 45.40625 46.390625 
L 45.40625 54.6875 
L 54.390625 54.6875 
z
" id="DejaVuSans-67"/>
      <path d="M 12.40625 8.296875 
L 28.515625 8.296875 
L 28.515625 63.921875 
L 10.984375 60.40625 
L 10.984375 69.390625 
L 28.421875 72.90625 
L 38.28125 72.90625 
L 38.28125 8.296875 
L 54.390625 8.296875 
L 54.390625 0 
L 12.40625 0 
z
" id="DejaVuSans-31"/>
      <path d="M 31 75.875 
Q 24.46875 64.65625 21.28125 53.65625 
Q 18.109375 42.671875 18.109375 31.390625 
Q 18.109375 20.125 21.3125 9.0625 
Q 24.515625 -2 31 -13.1875 
L 23.1875 -13.1875 
Q 15.875 -1.703125 12.234375 9.375 
Q 8.59375 20.453125 8.59375 31.390625 
Q 8.59375 42.28125 12.203125 53.3125 
Q 15.828125 64.359375 23.1875 75.875 
z
" id="DejaVuSans-28"/>
      <path d="M 51.125 44 
L 36.921875 44 
L 32.8125 27.6875 
L 47.125 27.6875 
z
M 43.796875 71.78125 
L 38.71875 51.515625 
L 52.984375 51.515625 
L 58.109375 71.78125 
L 65.921875 71.78125 
L 60.890625 51.515625 
L 76.125 51.515625 
L 76.125 44 
L 58.984375 44 
L 54.984375 27.6875 
L 70.515625 27.6875 
L 70.515625 20.21875 
L 53.078125 20.21875 
L 48 0 
L 40.1875 0 
L 45.21875 20.21875 
L 30.90625 20.21875 
L 25.875 0 
L 18.015625 0 
L 23.09375 20.21875 
L 7.71875 20.21875 
L 7.71875 27.6875 
L 24.90625 27.6875 
L 29 44 
L 13.28125 44 
L 13.28125 51.515625 
L 30.90625 51.515625 
L 35.890625 71.78125 
z
" id="DejaVuSans-23"/>
      <path id="DejaVuSans-20"/>
      <path d="M 37.109375 75.984375 
L 37.109375 68.5 
L 28.515625 68.5 
Q 23.6875 68.5 21.796875 66.546875 
Q 19.921875 64.59375 19.921875 59.515625 
L 19.921875 54.6875 
L 34.71875 54.6875 
L 34.71875 47.703125 
L 19.921875 47.703125 
L 19.921875 0 
L 10.890625 0 
L 10.890625 47.703125 
L 2.296875 47.703125 
L 2.296875 54.6875 
L 10.890625 54.6875 
L 10.890625 58.5 
Q 10.890625 67.625 15.140625 71.796875 
Q 19.390625 75.984375 28.609375 75.984375 
z
" id="DejaVuSans-66"/>
      <path d="M 4.890625 31.390625 
L 31.203125 31.390625 
L 31.203125 23.390625 
L 4.890625 23.390625 
z
" id="DejaVuSans-2d"/>
      <path d="M 56.203125 29.59375 
L 56.203125 25.203125 
L 14.890625 25.203125 
Q 15.484375 15.921875 20.484375 11.0625 
Q 25.484375 6.203125 34.421875 6.203125 
Q 39.59375 6.203125 44.453125 7.46875 
Q 49.3125 8.734375 54.109375 11.28125 
L 54.109375 2.78125 
Q 49.265625 0.734375 44.1875 -0.34375 
Q 39.109375 -1.421875 33.890625 -1.421875 
Q 20.796875 -1.421875 13.15625 6.1875 
Q 5.515625 13.8125 5.515625 26.8125 
Q 5.515625 40.234375 12.765625 48.109375 
Q 20.015625 56 32.328125 56 
Q 43.359375 56 49.78125 48.890625 
Q 56.203125 41.796875 56.203125 29.59375 
z
M 47.21875 32.234375 
Q 47.125 39.59375 43.09375 43.984375 
Q 39.0625 48.390625 32.421875 48.390625 
Q 24.90625 48.390625 20.390625 44.140625 
Q 15.875 39.890625 15.1875 32.171875 
z
" id="DejaVuSans-65"/>
      <path d="M 2.984375 54.6875 
L 12.5 54.6875 
L 29.59375 8.796875 
L 46.6875 54.6875 
L 56.203125 54.6875 
L 35.6875 0 
L 23.484375 0 
z
" id="DejaVuSans-76"/>
      <path d="M 34.28125 27.484375 
Q 23.390625 27.484375 19.1875 25 
Q 14.984375 22.515625 14.984375 16.5 
Q 14.984375 11.71875 18.140625 8.90625 
Q 21.296875 6.109375 26.703125 6.109375 
Q 34.1875 6.109375 38.703125 11.40625 
Q 43.21875 16.703125 43.21875 25.484375 
L 43.21875 27.484375 
z
M 52.203125 31.203125 
L 52.203125 0 
L 43.21875 0 
L 43.21875 8.296875 
Q 40.140625 3.328125 35.546875 0.953125 
Q 30.953125 -1.421875 24.3125 -1.421875 
Q 15.921875 -1.421875 10.953125 3.296875 
Q 6 8.015625 6 15.921875 
Q 6 25.140625 12.171875 29.828125 
Q 18.359375 34.515625 30.609375 34.515625 
L 43.21875 34.515625 
L 43.21875 35.40625 
Q 43.21875 41.609375 39.140625 45 
Q 35.0625 48.390625 27.6875 48.390625 
Q 23 48.390625 18.546875 47.265625 
Q 14.109375 46.140625 10.015625 43.890625 
L 10.015625 52.203125 
Q 14.9375 54.109375 19.578125 55.046875 
Q 24.21875 56 28.609375 56 
Q 40.484375 56 46.34375 49.84375 
Q 52.203125 43.703125 52.203125 31.203125 
z
" id="DejaVuSans-61"/>
      <path d="M 44.28125 53.078125 
L 44.28125 44.578125 
Q 40.484375 46.53125 36.375 47.5 
Q 32.28125 48.484375 27.875 48.484375 
Q 21.1875 48.484375 17.84375 46.4375 
Q 14.5 44.390625 14.5 40.28125 
Q 14.5 37.15625 16.890625 35.375 
Q 19.28125 33.59375 26.515625 31.984375 
L 29.59375 31.296875 
Q 39.15625 29.25 43.1875 25.515625 
Q 47.21875 21.78125 47.21875 15.09375 
Q 47.21875 7.46875 41.1875 3.015625 
Q 35.15625 -1.421875 24.609375 -1.421875 
Q 20.21875 -1.421875 15.453125 -0.5625 
Q 10.6875 0.296875 5.421875 2 
L 5.421875 11.28125 
Q 10.40625 8.6875 15.234375 7.390625 
Q 20.0625 6.109375 24.8125 6.109375 
Q 31.15625 6.109375 34.5625 8.28125 
Q 37.984375 10.453125 37.984375 14.40625 
Q 37.984375 18.0625 35.515625 20.015625 
Q 33.0625 21.96875 24.703125 23.78125 
L 21.578125 24.515625 
Q 13.234375 26.265625 9.515625 29.90625 
Q 5.8125 33.546875 5.8125 39.890625 
Q 5.8125 47.609375 11.28125 51.796875 
Q 16.75 56 26.8125 56 
Q 31.78125 56 36.171875 55.265625 
Q 40.578125 54.546875 44.28125 53.078125 
z
" id="DejaVuSans-73"/>
      <path d="M 25.390625 72.90625 
L 33.6875 72.90625 
L 8.296875 -9.28125 
L 0 -9.28125 
z
" id="DejaVuSans-2f"/>
      <path d="M 45.40625 46.390625 
L 45.40625 75.984375 
L 54.390625 75.984375 
L 54.390625 0 
L 45.40625 0 
L 45.40625 8.203125 
Q 42.578125 3.328125 38.25 0.953125 
Q 33.9375 -1.421875 27.875 -1.421875 
Q 17.96875 -1.421875 11.734375 6.484375 
Q 5.515625 14.40625 5.515625 27.296875 
Q 5.515625 40.1875 11.734375 48.09375 
Q 17.96875 56 27.875 56 
Q 33.9375 56 38.25 53.625 
Q 42.578125 51.265625 45.40625 46.390625 
z
M 14.796875 27.296875 
Q 14.796875 17.390625 18.875 11.75 
Q 22.953125 6.109375 30.078125 6.109375 
Q 37.203125 6.109375 41.296875 11.75 
Q 45.40625 17.390625 45.40625 27.296875 
Q 45.40625 37.203125 41.296875 42.84375 
Q 37.203125 48.484375 30.078125 48.484375 
Q 22.953125 48.484375 18.875 42.84375 
Q 14.796875 37.203125 14.796875 27.296875 
z
" id="DejaVuSans-64"/>
      <path d="M 9.421875 54.6875 
L 18.40625 54.6875 
L 18.40625 0 
L 9.421875 0 
z
M 9.421875 75.984375 
L 18.40625 75.984375 
L 18.40625 64.59375 
L 9.421875 64.59375 
z
" id="DejaVuSans-69"/>
      <path d="M 52 44.1875 
Q 55.375 50.25 60.0625 53.125 
Q 64.75 56 71.09375 56 
Q 79.640625 56 84.28125 50.015625 
Q 88.921875 44.046875 88.921875 33.015625 
L 88.921875 0 
L 79.890625 0 
L 79.890625 32.71875 
Q 79.890625 40.578125 77.09375 44.375 
Q 74.3125 48.1875 68.609375 48.1875 
Q 61.625 48.1875 57.5625 43.546875 
Q 53.515625 38.921875 53.515625 30.90625 
L 53.515625 0 
L 44.484375 0 
L 44.484375 32.71875 
Q 44.484375 40.625 41.703125 44.40625 
Q 38.921875 48.1875 33.109375 48.1875 
Q 26.21875 48.1875 22.15625 43.53125 
Q 18.109375 38.875 18.109375 30.90625 
L 18.109375 0 
L 9.078125 0 
L 9.078125 54.6875 
L 18.109375 54.6875 
L 18.109375 46.1875 
Q 21.1875 51.21875 25.484375 53.609375 
Q 29.78125 56 35.6875 56 
Q 41.65625 56 45.828125 52.96875 
Q 50 49.953125 52 44.1875 
z
" id="DejaVuSans-6d"/>
      <path d="M 54.890625 33.015625 
L 54.890625 0 
L 45.90625 0 
L 45.90625 32.71875 
Q 45.90625 40.484375 42.875 44.328125 
Q 39.84375 48.1875 33.796875 48.1875 
Q 26.515625 48.1875 22.3125 43.546875 
Q 18.109375 38.921875 18.109375 30.90625 
L 18.109375 0 
L 9.078125 0 
L 9.078125 54.6875 
L 18.109375 54.6875 
L 18.109375 46.1875 
Q 21.34375 51.125 25.703125 53.5625 
Q 30.078125 56 35.796875 56 
Q 45.21875 56 50.046875 50.171875 
Q 54.890625 44.34375 54.890625 33.015625 
z
" id="DejaVuSans-6e"/>
      <path d="M 8.015625 75.875 
L 15.828125 75.875 
Q 23.140625 64.359375 26.78125 53.3125 
Q 30.421875 42.28125 30.421875 31.390625 
Q 30.421875 20.453125 26.78125 9.375 
Q 23.140625 -1.703125 15.828125 -13.1875 
L 8.015625 -13.1875 
Q 14.5 -2 17.703125 9.0625 
Q 20.90625 20.125 20.90625 31.390625 
Q 20.90625 42.671875 17.703125 53.65625 
Q 14.5 64.65625 8.015625 75.875 
z
" id="DejaVuSans-29"/>
     </defs>
     <g transform="translate(107.211219 338.153594)scale(0.17 -0.17)">
      <use xlink:href="#DejaVuSans-6c"/>
      <use x="27.783203" xlink:href="#DejaVuSans-6f"/>
      <use x="88.964844" xlink:href="#DejaVuSans-67"/>
      <use x="152.441406" xlink:href="#DejaVuSans-31"/>
      <use x="216.064453" xlink:href="#DejaVuSans-30"/>
      <use x="279.6875" xlink:href="#DejaVuSans-28"/>
      <use x="318.701172" xlink:href="#DejaVuSans-23"/>
      <use x="402.490234" xlink:href="#DejaVuSans-20"/>
      <use x="434.277344" xlink:href="#DejaVuSans-66"/>
      <use x="469.404297" xlink:href="#DejaVuSans-2d"/>
      <use x="505.488281" xlink:href="#DejaVuSans-65"/>
      <use x="567.011719" xlink:href="#DejaVuSans-76"/>
      <use x="626.191406" xlink:href="#DejaVuSans-61"/>
      <use x="687.470703" xlink:href="#DejaVuSans-6c"/>
      <use x="715.253906" xlink:href="#DejaVuSans-73"/>
      <use x="767.353516" xlink:href="#DejaVuSans-20"/>
      <use x="799.140625" xlink:href="#DejaVuSans-2f"/>
      <use x="832.832031" xlink:href="#DejaVuSans-20"/>
      <use x="864.619141" xlink:href="#DejaVuSans-64"/>
      <use x="928.095703" xlink:href="#DejaVuSans-69"/>
      <use x="955.878906" xlink:href="#DejaVuSans-6d"/>
      <use x="1053.291016" xlink:href="#DejaVuSans-65"/>
      <use x="1114.814453" xlink:href="#DejaVuSans-6e"/>
      <use x="1178.193359" xlink:href="#DejaVuSans-73"/>
      <use x="1230.292969" xlink:href="#DejaVuSans-69"/>
      <use x="1258.076172" xlink:href="#DejaVuSans-6f"/>
      <use x="1319.257812" xlink:href="#DejaVuSans-6e"/>
      <use x="1382.636719" xlink:href="#DejaVuSans-29"/>
     </g>
    </g>
   </g>
   <g id="matplotlib.axis_2">
    <g id="ytick_1">
     <g id="line2d_11">
      <path clip-path="url(#p7aecb09baa)" d="M 56.12 294.88 
L 399.984 294.88 
" style="fill:none;stroke:#b0b0b0;stroke-linecap:square;stroke-width:0.8;"/>
     </g>
     <g id="line2d_12">
      <defs>
       <path d="M 0 0 
L -3.5 0 
" id="m19981724d1" style="stroke:#000000;stroke-width:0.8;"/>
      </defs>
      <g>
       <use style="stroke:#000000;stroke-width:0.8;" x="56.12" xlink:href="#m19981724d1" y="294.88"/>
      </g>
     </g>
     <g id="text_7">
      <!-- 0.0 -->
      <defs>
       <path d="M 10.6875 12.40625 
L 21 12.40625 
L 21 0 
L 10.6875 0 
z
" id="DejaVuSans-2e"/>
      </defs>
      <g transform="translate(23.675 300.95875)scale(0.16 -0.16)">
       <use xlink:href="#DejaVuSans-30"/>
       <use x="63.623047" xlink:href="#DejaVuSans-2e"/>
       <use x="95.410156" xlink:href="#DejaVuSans-30"/>
      </g>
     </g>
    </g>
    <g id="ytick_2">
     <g id="line2d_13">
      <path clip-path="url(#p7aecb09baa)" d="M 56.12 237.843411 
L 399.984 237.843411 
" style="fill:none;stroke:#b0b0b0;stroke-linecap:square;stroke-width:0.8;"/>
     </g>
     <g id="line2d_14">
      <g>
       <use style="stroke:#000000;stroke-width:0.8;" x="56.12" xlink:href="#m19981724d1" y="237.843411"/>
      </g>
     </g>
     <g id="text_8">
      <!-- 0.2 -->
      <g transform="translate(23.675 243.922161)scale(0.16 -0.16)">
       <use xlink:href="#DejaVuSans-30"/>
       <use x="63.623047" xlink:href="#DejaVuSans-2e"/>
       <use x="95.410156" xlink:href="#DejaVuSans-32"/>
      </g>
     </g>
    </g>
    <g id="ytick_3">
     <g id="line2d_15">
      <path clip-path="url(#p7aecb09baa)" d="M 56.12 180.806823 
L 399.984 180.806823 
" style="fill:none;stroke:#b0b0b0;stroke-linecap:square;stroke-width:0.8;"/>
     </g>
     <g id="line2d_16">
      <g>
       <use style="stroke:#000000;stroke-width:0.8;" x="56.12" xlink:href="#m19981724d1" y="180.806823"/>
      </g>
     </g>
     <g id="text_9">
      <!-- 0.4 -->
      <g transform="translate(23.675 186.885573)scale(0.16 -0.16)">
       <use xlink:href="#DejaVuSans-30"/>
       <use x="63.623047" xlink:href="#DejaVuSans-2e"/>
       <use x="95.410156" xlink:href="#DejaVuSans-34"/>
      </g>
     </g>
    </g>
    <g id="ytick_4">
     <g id="line2d_17">
      <path clip-path="url(#p7aecb09baa)" d="M 56.12 123.770234 
L 399.984 123.770234 
" style="fill:none;stroke:#b0b0b0;stroke-linecap:square;stroke-width:0.8;"/>
     </g>
     <g id="line2d_18">
      <g>
       <use style="stroke:#000000;stroke-width:0.8;" x="56.12" xlink:href="#m19981724d1" y="123.770234"/>
      </g>
     </g>
     <g id="text_10">
      <!-- 0.6 -->
      <g transform="translate(23.675 129.848984)scale(0.16 -0.16)">
       <use xlink:href="#DejaVuSans-30"/>
       <use x="63.623047" xlink:href="#DejaVuSans-2e"/>
       <use x="95.410156" xlink:href="#DejaVuSans-36"/>
      </g>
     </g>
    </g>
    <g id="ytick_5">
     <g id="line2d_19">
      <path clip-path="url(#p7aecb09baa)" d="M 56.12 66.733646 
L 399.984 66.733646 
" style="fill:none;stroke:#b0b0b0;stroke-linecap:square;stroke-width:0.8;"/>
     </g>
     <g id="line2d_20">
      <g>
       <use style="stroke:#000000;stroke-width:0.8;" x="56.12" xlink:href="#m19981724d1" y="66.733646"/>
      </g>
     </g>
     <g id="text_11">
      <!-- 0.8 -->
      <g transform="translate(23.675 72.812396)scale(0.16 -0.16)">
       <use xlink:href="#DejaVuSans-30"/>
       <use x="63.623047" xlink:href="#DejaVuSans-2e"/>
       <use x="95.410156" xlink:href="#DejaVuSans-38"/>
      </g>
     </g>
    </g>
    <g id="ytick_6">
     <g id="line2d_21">
      <path clip-path="url(#p7aecb09baa)" d="M 56.12 9.697057 
L 399.984 9.697057 
" style="fill:none;stroke:#b0b0b0;stroke-linecap:square;stroke-width:0.8;"/>
     </g>
     <g id="line2d_22">
      <g>
       <use style="stroke:#000000;stroke-width:0.8;" x="56.12" xlink:href="#m19981724d1" y="9.697057"/>
      </g>
     </g>
     <g id="text_12">
      <!-- 1.0 -->
      <g transform="translate(23.675 15.775807)scale(0.16 -0.16)">
       <use xlink:href="#DejaVuSans-31"/>
       <use x="63.623047" xlink:href="#DejaVuSans-2e"/>
       <use x="95.410156" xlink:href="#DejaVuSans-30"/>
      </g>
     </g>
    </g>
    <g id="text_13">
     <!-- Fraction of function,target pairs -->
     <defs>
      <path d="M 9.8125 72.90625 
L 51.703125 72.90625 
L 51.703125 64.59375 
L 19.671875 64.59375 
L 19.671875 43.109375 
L 48.578125 43.109375 
L 48.578125 34.8125 
L 19.671875 34.8125 
L 19.671875 0 
L 9.8125 0 
z
" id="DejaVuSans-46"/>
      <path d="M 41.109375 46.296875 
Q 39.59375 47.171875 37.8125 47.578125 
Q 36.03125 48 33.890625 48 
Q 26.265625 48 22.1875 43.046875 
Q 18.109375 38.09375 18.109375 28.8125 
L 18.109375 0 
L 9.078125 0 
L 9.078125 54.6875 
L 18.109375 54.6875 
L 18.109375 46.1875 
Q 20.953125 51.171875 25.484375 53.578125 
Q 30.03125 56 36.53125 56 
Q 37.453125 56 38.578125 55.875 
Q 39.703125 55.765625 41.0625 55.515625 
z
" id="DejaVuSans-72"/>
      <path d="M 48.78125 52.59375 
L 48.78125 44.1875 
Q 44.96875 46.296875 41.140625 47.34375 
Q 37.3125 48.390625 33.40625 48.390625 
Q 24.65625 48.390625 19.8125 42.84375 
Q 14.984375 37.3125 14.984375 27.296875 
Q 14.984375 17.28125 19.8125 11.734375 
Q 24.65625 6.203125 33.40625 6.203125 
Q 37.3125 6.203125 41.140625 7.25 
Q 44.96875 8.296875 48.78125 10.40625 
L 48.78125 2.09375 
Q 45.015625 0.34375 40.984375 -0.53125 
Q 36.96875 -1.421875 32.421875 -1.421875 
Q 20.0625 -1.421875 12.78125 6.34375 
Q 5.515625 14.109375 5.515625 27.296875 
Q 5.515625 40.671875 12.859375 48.328125 
Q 20.21875 56 33.015625 56 
Q 37.15625 56 41.109375 55.140625 
Q 45.0625 54.296875 48.78125 52.59375 
z
" id="DejaVuSans-63"/>
      <path d="M 18.3125 70.21875 
L 18.3125 54.6875 
L 36.8125 54.6875 
L 36.8125 47.703125 
L 18.3125 47.703125 
L 18.3125 18.015625 
Q 18.3125 11.328125 20.140625 9.421875 
Q 21.96875 7.515625 27.59375 7.515625 
L 36.8125 7.515625 
L 36.8125 0 
L 27.59375 0 
Q 17.1875 0 13.234375 3.875 
Q 9.28125 7.765625 9.28125 18.015625 
L 9.28125 47.703125 
L 2.6875 47.703125 
L 2.6875 54.6875 
L 9.28125 54.6875 
L 9.28125 70.21875 
z
" id="DejaVuSans-74"/>
      <path d="M 8.5 21.578125 
L 8.5 54.6875 
L 17.484375 54.6875 
L 17.484375 21.921875 
Q 17.484375 14.15625 20.5 10.265625 
Q 23.53125 6.390625 29.59375 6.390625 
Q 36.859375 6.390625 41.078125 11.03125 
Q 45.3125 15.671875 45.3125 23.6875 
L 45.3125 54.6875 
L 54.296875 54.6875 
L 54.296875 0 
L 45.3125 0 
L 45.3125 8.40625 
Q 42.046875 3.421875 37.71875 1 
Q 33.40625 -1.421875 27.6875 -1.421875 
Q 18.265625 -1.421875 13.375 4.4375 
Q 8.5 10.296875 8.5 21.578125 
z
M 31.109375 56 
z
" id="DejaVuSans-75"/>
      <path d="M 11.71875 12.40625 
L 22.015625 12.40625 
L 22.015625 4 
L 14.015625 -11.625 
L 7.71875 -11.625 
L 11.71875 4 
z
" id="DejaVuSans-2c"/>
      <path d="M 18.109375 8.203125 
L 18.109375 -20.796875 
L 9.078125 -20.796875 
L 9.078125 54.6875 
L 18.109375 54.6875 
L 18.109375 46.390625 
Q 20.953125 51.265625 25.265625 53.625 
Q 29.59375 56 35.59375 56 
Q 45.5625 56 51.78125 48.09375 
Q 58.015625 40.1875 58.015625 27.296875 
Q 58.015625 14.40625 51.78125 6.484375 
Q 45.5625 -1.421875 35.59375 -1.421875 
Q 29.59375 -1.421875 25.265625 0.953125 
Q 20.953125 3.328125 18.109375 8.203125 
z
M 48.6875 27.296875 
Q 48.6875 37.203125 44.609375 42.84375 
Q 40.53125 48.484375 33.40625 48.484375 
Q 26.265625 48.484375 22.1875 42.84375 
Q 18.109375 37.203125 18.109375 27.296875 
Q 18.109375 17.390625 22.1875 11.75 
Q 26.265625 6.109375 33.40625 6.109375 
Q 40.53125 6.109375 44.609375 11.75 
Q 48.6875 17.390625 48.6875 27.296875 
z
" id="DejaVuSans-70"/>
     </defs>
     <g transform="translate(16.139531 286.001989)rotate(-90)scale(0.17 -0.17)">
      <use xlink:href="#DejaVuSans-46"/>
      <use x="57.410156" xlink:href="#DejaVuSans-72"/>
      <use x="98.523438" xlink:href="#DejaVuSans-61"/>
      <use x="159.802734" xlink:href="#DejaVuSans-63"/>
      <use x="214.783203" xlink:href="#DejaVuSans-74"/>
      <use x="253.992188" xlink:href="#DejaVuSans-69"/>
      <use x="281.775391" xlink:href="#DejaVuSans-6f"/>
      <use x="342.957031" xlink:href="#DejaVuSans-6e"/>
      <use x="406.335938" xlink:href="#DejaVuSans-20"/>
      <use x="438.123047" xlink:href="#DejaVuSans-6f"/>
      <use x="499.304688" xlink:href="#DejaVuSans-66"/>
      <use x="534.509766" xlink:href="#DejaVuSans-20"/>
      <use x="566.296875" xlink:href="#DejaVuSans-66"/>
      <use x="601.501953" xlink:href="#DejaVuSans-75"/>
      <use x="664.880859" xlink:href="#DejaVuSans-6e"/>
      <use x="728.259766" xlink:href="#DejaVuSans-63"/>
      <use x="783.240234" xlink:href="#DejaVuSans-74"/>
      <use x="822.449219" xlink:href="#DejaVuSans-69"/>
      <use x="850.232422" xlink:href="#DejaVuSans-6f"/>
      <use x="911.414062" xlink:href="#DejaVuSans-6e"/>
      <use x="974.792969" xlink:href="#DejaVuSans-2c"/>
      <use x="1006.580078" xlink:href="#DejaVuSans-74"/>
      <use x="1045.789062" xlink:href="#DejaVuSans-61"/>
      <use x="1107.068359" xlink:href="#DejaVuSans-72"/>
      <use x="1148.166016" xlink:href="#DejaVuSans-67"/>
      <use x="1211.642578" xlink:href="#DejaVuSans-65"/>
      <use x="1273.166016" xlink:href="#DejaVuSans-74"/>
      <use x="1312.375" xlink:href="#DejaVuSans-20"/>
      <use x="1344.162109" xlink:href="#DejaVuSans-70"/>
      <use x="1407.638672" xlink:href="#DejaVuSans-61"/>
      <use x="1468.917969" xlink:href="#DejaVuSans-69"/>
      <use x="1496.701172" xlink:href="#DejaVuSans-72"/>
      <use x="1537.814453" xlink:href="#DejaVuSans-73"/>
     </g>
    </g>
   </g>
   <g id="line2d_23">
    <defs>
     <path d="M 0 1.5 
C 0.397805 1.5 0.77937 1.341951 1.06066 1.06066 
C 1.341951 0.77937 1.5 0.397805 1.5 0 
C 1.5 -0.397805 1.341951 -0.77937 1.06066 -1.06066 
C 0.77937 -1.341951 0.397805 -1.5 0 -1.5 
C -0.397805 -1.5 -0.77937 -1.341951 -1.06066 -1.06066 
C -1.341951 -0.77937 -1.5 -0.397805 -1.5 0 
C -1.5 0.397805 -1.341951 0.77937 -1.06066 1.06066 
C -0.77937 1.341951 -0.397805 1.5 0 1.5 
z
" id="ma2bf45f2fa" style="stroke:#000080;"/>
    </defs>
    <g>
     <use style="fill:#000080;stroke:#000080;" x="265.950687" xlink:href="#ma2bf45f2fa" y="127.125328"/>
     <use style="fill:#000080;stroke:#000080;" x="265.950687" xlink:href="#ma2bf45f2fa" y="127.125328"/>
    </g>
   </g>
   <g id="line2d_24">
    <path d="M 160.982338 294.88 
L 160.982338 293.761636 
L 162.331993 293.761636 
L 162.331993 292.643271 
L 163.887481 292.643271 
L 163.887481 292.084089 
L 164.166924 292.084089 
L 164.166924 290.965724 
L 164.997449 290.965724 
L 164.997449 290.406542 
L 165.446086 290.406542 
L 165.446086 289.84736 
L 165.807309 289.84736 
L 165.807309 288.728995 
L 166.235572 288.728995 
L 166.235572 287.610631 
L 166.836554 287.610631 
L 166.930134 286.492266 
L 167.126638 286.492266 
L 167.126638 285.933084 
L 167.896144 285.933084 
L 167.896144 285.373902 
L 168.40747 285.373902 
L 168.40747 284.81472 
L 168.582904 284.81472 
L 168.582904 284.255537 
L 169.358095 284.255537 
L 169.358095 283.696355 
L 169.753951 283.696355 
L 169.767922 282.577991 
L 170.02206 282.577991 
L 170.02206 282.018808 
L 170.295087 282.018808 
L 170.389632 280.900444 
L 170.679021 280.900444 
L 170.679021 280.341262 
L 170.837227 280.341262 
L 170.837227 279.782079 
L 171.157932 279.782079 
L 171.226494 277.545351 
L 171.417874 277.545351 
L 171.417874 276.426986 
L 171.761229 276.426986 
L 171.761229 275.867804 
L 172.044934 275.867804 
L 172.105995 274.749439 
L 172.40809 274.749439 
L 172.40809 273.071893 
L 172.872901 273.071893 
L 172.872901 270.835164 
L 173.043056 270.835164 
L 173.112183 269.157617 
L 173.165757 269.157617 
L 173.165757 268.598435 
L 175.428726 268.598435 
L 175.428726 267.48007 
L 175.631863 267.48007 
L 175.631863 266.920888 
L 176.613059 266.920888 
L 176.715942 265.802523 
L 176.734582 265.802523 
L 176.734582 264.684159 
L 177.718158 264.684159 
L 177.718158 263.565795 
L 178.269338 263.565795 
L 178.269338 263.006612 
L 178.531453 263.006612 
L 178.531453 262.44743 
L 179.2652 262.44743 
L 179.2652 261.329066 
L 196.699603 261.329066 
L 196.699603 260.769883 
L 197.418939 260.769883 
L 197.418939 260.210701 
L 197.746133 260.210701 
L 197.746133 259.651519 
L 198.558859 259.651519 
L 198.558859 258.533154 
L 198.940591 258.533154 
L 198.940591 257.41479 
L 199.491973 257.41479 
L 199.602462 256.296425 
L 200.269092 256.296425 
L 200.269092 255.737243 
L 209.667059 255.737243 
L 209.667059 254.059696 
L 210.867803 254.059696 
L 210.867803 253.500514 
L 211.185547 253.500514 
L 211.185547 252.941332 
L 211.394301 252.941332 
L 211.420373 251.822967 
L 211.794651 251.822967 
L 211.794651 251.263785 
L 211.975377 251.263785 
L 211.975377 250.704603 
L 213.089282 250.704603 
L 213.089282 250.145421 
L 217.253288 250.145421 
L 217.253288 249.586238 
L 217.856867 249.586238 
L 217.856867 248.467874 
L 218.101468 248.467874 
L 218.182328 246.790327 
L 218.285023 246.790327 
L 218.342641 245.112781 
L 218.605555 245.112781 
L 218.605555 244.553598 
L 220.295517 244.553598 
L 220.295517 243.994416 
L 221.338861 243.994416 
L 221.338861 243.435234 
L 221.523742 243.435234 
L 221.523742 242.316869 
L 221.678888 242.316869 
L 221.678888 241.198505 
L 221.948082 241.198505 
L 222.015453 239.520958 
L 222.193904 239.520958 
L 222.193904 238.961776 
L 223.994321 238.961776 
L 223.994321 238.402594 
L 224.314685 238.402594 
L 224.378282 237.284229 
L 224.472464 237.284229 
L 224.472464 236.725047 
L 224.773663 236.725047 
L 224.855676 234.488318 
L 225.044972 234.488318 
L 225.044972 233.929136 
L 225.20272 233.929136 
L 225.20272 233.369954 
L 226.547188 233.369954 
L 226.547188 232.810771 
L 226.928814 232.810771 
L 226.928814 232.251589 
L 227.122642 232.251589 
L 227.218991 230.574042 
L 227.258401 230.574042 
L 227.258401 230.01486 
L 227.37642 230.01486 
L 227.460296 228.896496 
L 227.593589 228.896496 
L 227.593589 228.337313 
L 227.795922 228.337313 
L 227.795922 227.778131 
L 229.516628 227.778131 
L 229.516628 227.218949 
L 229.662478 227.218949 
L 229.749769 226.100584 
L 229.847249 226.100584 
L 229.868208 224.423038 
L 230.044212 224.423038 
L 230.134748 222.745491 
L 230.388986 222.745491 
L 230.388986 222.186309 
L 232.92009 222.186309 
L 232.92009 221.067944 
L 233.039971 221.067944 
L 233.118063 219.390397 
L 233.174211 219.390397 
L 233.174211 218.272033 
L 233.360289 218.272033 
L 233.360289 217.153669 
L 233.941069 217.153669 
L 233.941069 216.594486 
L 235.64394 216.594486 
L 235.64394 216.035304 
L 235.835593 216.035304 
L 235.946288 214.91694 
L 236.035818 214.91694 
L 236.046 213.239393 
L 236.201351 213.239393 
L 236.274359 211.561846 
L 237.1051 211.561846 
L 237.1051 211.002664 
L 238.707543 211.002664 
L 238.707543 210.443482 
L 239.024722 210.443482 
L 239.024722 209.884299 
L 239.169899 209.884299 
L 239.239979 207.64757 
L 239.313044 207.64757 
L 239.341139 206.529206 
L 239.997848 206.529206 
L 239.997848 205.410841 
L 241.735731 205.410841 
L 241.765951 203.174112 
L 241.961029 203.174112 
L 242.030755 202.055748 
L 242.109304 202.055748 
L 242.17082 200.937384 
L 242.314628 200.937384 
L 242.314628 199.819019 
L 244.623899 199.819019 
L 244.734239 198.141472 
L 244.83101 198.141472 
L 244.903867 195.345561 
L 244.991878 195.345561 
L 244.991878 194.786379 
L 245.486846 194.786379 
L 245.486846 194.227197 
L 247.166206 194.227197 
L 247.255404 191.990468 
L 247.285103 191.990468 
L 247.374968 190.872103 
L 247.413039 190.872103 
L 247.461362 189.194556 
L 247.5378 189.194556 
L 247.5378 188.635374 
L 249.598774 188.635374 
L 249.67512 186.398645 
L 249.718658 186.398645 
L 249.803361 185.280281 
L 249.844582 185.280281 
L 249.888313 183.602734 
L 250.2049 183.602734 
L 250.2049 183.043552 
L 251.732167 183.043552 
L 251.837205 180.806823 
L 251.861739 180.806823 
L 251.861739 179.688458 
L 252.050834 179.688458 
L 252.050834 178.570094 
L 252.222596 178.570094 
L 252.222596 177.451729 
L 253.767339 177.451729 
L 253.844646 175.215 
L 253.925592 175.215 
L 254.020768 172.978271 
L 254.235223 172.978271 
L 254.235223 171.859907 
L 255.668353 171.859907 
L 255.754226 169.063996 
L 255.825873 169.063996 
L 255.882003 167.386449 
L 256.156531 167.386449 
L 256.198121 166.268085 
L 257.368962 166.268085 
L 257.467727 162.912991 
L 257.531234 162.912991 
L 257.628989 161.235444 
L 257.642459 161.235444 
L 257.642459 160.676262 
L 259.000512 160.676262 
L 259.019086 157.880351 
L 259.120426 157.880351 
L 259.193397 156.202804 
L 259.287754 156.202804 
L 259.287754 155.08444 
L 260.517462 155.08444 
L 260.620491 151.729346 
L 260.640024 151.729346 
L 260.640024 151.170164 
L 260.822375 151.170164 
L 260.822375 150.0518 
L 260.945256 150.0518 
L 260.945256 149.492617 
L 261.856841 149.492617 
L 261.966421 146.137524 
L 262.015337 146.137524 
L 262.080118 144.459977 
L 262.231531 144.459977 
L 262.231531 143.900795 
L 263.155755 143.900795 
L 263.236911 142.78243 
L 263.267528 142.78243 
L 263.340597 141.104884 
L 263.454536 141.104884 
L 263.491727 139.427337 
L 263.592917 139.427337 
L 263.592917 138.308973 
L 264.350066 138.308973 
L 264.452319 137.190608 
L 264.481228 137.190608 
L 264.572128 134.394697 
L 264.683197 134.394697 
L 264.752258 133.276332 
L 264.818648 133.276332 
L 264.818648 132.71715 
L 265.513184 132.71715 
L 265.565959 131.598786 
L 265.653706 131.598786 
L 265.655209 129.921239 
L 265.803241 129.921239 
L 265.881066 127.68451 
L 265.950687 127.68451 
L 265.950687 127.125328 
L 333.429677 127.125328 
L 333.429677 127.125328 
" style="fill:none;stroke:#000080;stroke-linecap:square;stroke-width:1.5;"/>
   </g>
   <g id="line2d_25">
    <defs>
     <path d="M 0 6 
C 1.591219 6 3.117479 5.367802 4.242641 4.242641 
C 5.367802 3.117479 6 1.591219 6 0 
C 6 -1.591219 5.367802 -3.117479 4.242641 -4.242641 
C 3.117479 -5.367802 1.591219 -6 0 -6 
C -1.591219 -6 -3.117479 -5.367802 -4.242641 -4.242641 
C -5.367802 -3.117479 -6 -1.591219 -6 0 
C -6 1.591219 -5.367802 3.117479 -4.242641 4.242641 
C -3.117479 5.367802 -1.591219 6 0 6 
z
" id="me75c403d1d" style="stroke:#000080;stroke-width:1.5;"/>
    </defs>
    <g>
     <use style="fill-opacity:0;stroke:#000080;stroke-width:1.5;" x="233.039971" xlink:href="#me75c403d1d" y="221.067944"/>
     <use style="fill-opacity:0;stroke:#000080;stroke-width:1.5;" x="265.950687" xlink:href="#me75c403d1d" y="127.125328"/>
     <use style="fill-opacity:0;stroke:#000080;stroke-width:1.5;" x="265.950687" xlink:href="#me75c403d1d" y="127.125328"/>
     <use style="fill-opacity:0;stroke:#000080;stroke-width:1.5;" x="333.429677" xlink:href="#me75c403d1d" y="127.125328"/>
    </g>
   </g>
   <g id="line2d_26">
    <path style="fill:none;stroke:#000080;stroke-linecap:square;stroke-width:1.5;"/>
    <g/>
   </g>
   <g id="line2d_27">
    <path clip-path="url(#p7aecb09baa)" d="M 254.198358 172.978271 
" style="fill:none;stroke:#000080;stroke-linecap:square;stroke-width:1.5;"/>
    <defs>
     <path d="M -12 12 
L 12 -12 
M -12 -12 
L 12 12 
" id="m6a3e2179d4" style="stroke:#000080;stroke-width:3;"/>
    </defs>
    <g clip-path="url(#p7aecb09baa)">
     <use style="fill:#000080;stroke:#000080;stroke-width:3;" x="254.198358" xlink:href="#m6a3e2179d4" y="172.978271"/>
    </g>
   </g>
   <g id="line2d_28">
    <defs>
     <path d="M 0 1.5 
C 0.397805 1.5 0.77937 1.341951 1.06066 1.06066 
C 1.341951 0.77937 1.5 0.397805 1.5 0 
C 1.5 -0.397805 1.341951 -0.77937 1.06066 -1.06066 
C 0.77937 -1.341951 0.397805 -1.5 0 -1.5 
C -0.397805 -1.5 -0.77937 -1.341951 -1.06066 -1.06066 
C -1.341951 -0.77937 -1.5 -0.397805 -1.5 0 
C -1.5 0.397805 -1.341951 0.77937 -1.06066 1.06066 
C -0.77937 1.341951 -0.397805 1.5 0 1.5 
z
" id="mcdf5b4576c" style="stroke:#ff00ff;"/>
    </defs>
    <g>
     <use style="fill:#ff00ff;stroke:#ff00ff;" x="265.958055" xlink:href="#mcdf5b4576c" y="127.125328"/>
     <use style="fill:#ff00ff;stroke:#ff00ff;" x="265.958055" xlink:href="#mcdf5b4576c" y="127.125328"/>
    </g>
   </g>
   <g id="line2d_29">
    <path d="M 97.685473 294.88 
L 97.685473 294.320818 
L 129.410304 294.320818 
L 129.410304 293.761636 
L 133.42354 293.761636 
L 133.42354 293.202453 
L 134.898092 293.202453 
L 134.898092 292.643271 
L 135.178422 292.643271 
L 135.178422 292.084089 
L 142.096368 292.084089 
L 142.096368 291.524907 
L 142.935796 291.524907 
L 142.935796 290.965724 
L 143.672641 290.965724 
L 143.778387 289.84736 
L 144.781692 289.84736 
L 144.781692 289.288178 
L 145.406682 289.288178 
L 145.406682 288.728995 
L 146.6817 288.728995 
L 146.6817 287.051449 
L 147.48207 287.051449 
L 147.48207 285.933084 
L 147.968163 285.933084 
L 147.968163 284.81472 
L 149.303282 284.81472 
L 149.303282 284.255537 
L 149.770957 284.255537 
L 149.770957 283.696355 
L 154.905529 283.696355 
L 154.949644 280.900444 
L 155.15766 280.900444 
L 155.15766 280.341262 
L 155.491745 280.341262 
L 155.491745 279.782079 
L 157.446886 279.782079 
L 157.446886 279.222897 
L 157.777124 279.222897 
L 157.777124 278.663715 
L 158.793204 278.663715 
L 158.85476 277.545351 
L 159.727596 277.545351 
L 159.727596 276.986168 
L 160.637603 276.986168 
L 160.637603 276.426986 
L 161.471754 276.426986 
L 161.471754 274.749439 
L 161.976942 274.749439 
L 161.976942 274.190257 
L 162.238508 274.190257 
L 162.310465 272.51271 
L 163.355193 272.51271 
L 163.375453 270.275981 
L 165.058763 270.275981 
L 165.058763 269.716799 
L 167.744971 269.716799 
L 167.744971 269.157617 
L 167.999632 269.157617 
L 167.999632 268.039252 
L 168.904038 268.039252 
L 168.938266 265.802523 
L 169.637086 265.802523 
L 169.637086 265.243341 
L 170.815341 265.243341 
L 170.815341 264.684159 
L 172.969787 264.684159 
L 173.019952 263.006612 
L 175.979249 263.006612 
L 176.076306 261.329066 
L 195.283679 261.329066 
L 195.283679 260.769883 
L 196.384413 260.769883 
L 196.429937 259.651519 
L 197.140495 259.651519 
L 197.140495 258.533154 
L 197.267106 258.533154 
L 197.267106 257.973972 
L 197.777233 257.973972 
L 197.777233 257.41479 
L 200.275416 257.41479 
L 200.275416 256.855608 
L 202.940425 256.855608 
L 202.940425 255.737243 
L 210.184405 255.737243 
L 210.286298 254.059696 
L 210.556695 254.059696 
L 210.556695 251.822967 
L 210.791195 251.822967 
L 210.791195 251.263785 
L 213.164926 251.263785 
L 213.164926 250.145421 
L 217.145116 250.145421 
L 217.145116 249.027056 
L 217.317983 249.027056 
L 217.317983 247.908692 
L 217.498137 247.908692 
L 217.540492 246.231145 
L 217.619124 246.231145 
L 217.619124 245.671963 
L 217.904023 245.671963 
L 217.904023 245.112781 
L 218.827717 245.112781 
L 218.827717 244.553598 
L 221.224632 244.553598 
L 221.247539 240.639323 
L 221.375533 240.639323 
L 221.375533 240.08014 
L 221.773846 240.08014 
L 221.773846 238.961776 
L 223.524828 238.961776 
L 223.524828 238.402594 
L 224.029728 238.402594 
L 224.132944 236.725047 
L 224.161758 236.725047 
L 224.161758 236.165865 
L 224.474013 236.165865 
L 224.523321 235.0475 
L 224.68858 235.0475 
L 224.76605 233.369954 
L 226.468216 233.369954 
L 226.468216 232.810771 
L 226.661817 232.810771 
L 226.661817 232.251589 
L 226.889986 232.251589 
L 226.889986 231.692407 
L 227.223943 231.692407 
L 227.258895 230.574042 
L 227.36251 230.574042 
L 227.448246 228.896496 
L 227.501432 228.896496 
L 227.501432 227.778131 
L 229.382201 227.778131 
L 229.382201 226.100584 
L 229.851075 226.100584 
L 229.851075 225.541402 
L 230.047714 225.541402 
L 230.145893 224.423038 
L 230.19276 224.423038 
L 230.19276 223.863855 
L 230.312888 223.863855 
L 230.312888 223.304673 
L 230.444642 223.304673 
L 230.444642 222.745491 
L 230.785991 222.745491 
L 230.785991 222.186309 
L 232.629041 222.186309 
L 232.629041 221.627126 
L 232.803425 221.627126 
L 232.877369 220.508762 
L 233.074774 220.508762 
L 233.074774 219.94958 
L 233.189853 219.94958 
L 233.263087 217.712851 
L 233.450281 217.712851 
L 233.450281 217.153669 
L 233.6102 217.153669 
L 233.6102 216.594486 
L 235.76612 216.594486 
L 235.782888 215.476122 
L 235.896713 215.476122 
L 235.896713 214.91694 
L 236.012365 214.91694 
L 236.012365 214.357757 
L 236.190966 214.357757 
L 236.29658 212.680211 
L 236.364239 212.680211 
L 236.364239 212.121028 
L 236.5231 212.121028 
L 236.5231 211.002664 
L 238.856333 211.002664 
L 238.856333 210.443482 
L 239.037601 210.443482 
L 239.052047 209.325117 
L 239.166437 209.325117 
L 239.204399 207.088388 
L 239.380998 207.088388 
L 239.387998 205.410841 
L 241.619607 205.410841 
L 241.619607 204.851659 
L 241.864119 204.851659 
L 241.911623 202.61493 
L 241.985679 202.61493 
L 242.051611 201.496566 
L 242.331097 201.496566 
L 242.393671 199.819019 
L 244.39706 199.819019 
L 244.432788 198.700655 
L 244.596023 198.700655 
L 244.683525 196.463926 
L 244.853711 196.463926 
L 244.853711 195.904743 
L 245.052001 195.904743 
L 245.115532 194.227197 
L 247.026864 194.227197 
L 247.026864 193.668014 
L 247.216156 193.668014 
L 247.271675 190.872103 
L 247.451943 190.872103 
L 247.526344 188.635374 
L 249.471711 188.635374 
L 249.471711 188.076192 
L 249.614726 188.076192 
L 249.667778 186.398645 
L 249.737398 186.398645 
L 249.815707 184.721099 
L 249.855658 184.721099 
L 249.938898 183.602734 
L 250.028534 183.602734 
L 250.028534 183.043552 
L 251.86962 183.043552 
L 251.86962 182.48437 
L 251.996678 182.48437 
L 252.106453 179.688458 
L 252.140576 179.688458 
L 252.149067 177.451729 
L 253.743577 177.451729 
L 253.80093 175.215 
L 253.966133 175.215 
L 254.058969 172.978271 
L 254.11262 172.978271 
L 254.196896 171.859907 
L 255.598488 171.859907 
L 255.622801 170.18236 
L 255.790463 170.18236 
L 255.861179 168.504814 
L 255.924386 168.504814 
L 255.988074 166.268085 
L 257.393471 166.268085 
L 257.393471 165.708902 
L 257.515947 165.708902 
L 257.611475 162.912991 
L 257.673499 162.912991 
L 257.728771 160.676262 
L 259.048183 160.676262 
L 259.148423 158.439533 
L 259.168953 158.439533 
L 259.180651 157.321169 
L 259.297453 157.321169 
L 259.37001 155.08444 
L 260.368509 155.08444 
L 260.368509 154.525258 
L 260.57074 154.525258 
L 260.65703 152.288529 
L 260.692359 152.288529 
L 260.774849 150.0518 
L 260.830919 150.0518 
L 260.830919 149.492617 
L 261.736838 149.492617 
L 261.736838 148.933435 
L 261.971678 148.933435 
L 262.067969 146.696706 
L 262.084927 146.696706 
L 262.177407 144.459977 
L 262.303133 144.459977 
L 262.303133 143.900795 
L 263.252674 143.900795 
L 263.354891 139.986519 
L 263.596305 139.986519 
L 263.596305 138.308973 
L 264.488457 138.308973 
L 264.528447 136.631426 
L 264.606494 136.631426 
L 264.676237 133.835515 
L 264.727682 133.835515 
L 264.836272 132.71715 
L 265.500576 132.71715 
L 265.500576 132.157968 
L 265.624524 132.157968 
L 265.649815 131.039603 
L 265.763616 131.039603 
L 265.790791 128.243692 
L 265.958055 128.243692 
L 265.958055 127.125328 
L 333.429677 127.125328 
L 333.429677 127.125328 
" style="fill:none;stroke:#ff00ff;stroke-linecap:square;stroke-width:1.5;"/>
   </g>
   <g id="line2d_30">
    <defs>
     <path d="M -0 8.485281 
L 5.091169 0 
L 0 -8.485281 
L -5.091169 -0 
z
" id="m6500b1e665" style="stroke:#ff00ff;stroke-linejoin:miter;stroke-width:1.5;"/>
    </defs>
    <g>
     <use style="fill-opacity:0;stroke:#ff00ff;stroke-linejoin:miter;stroke-width:1.5;" x="176.076306" xlink:href="#m6500b1e665" y="262.44743"/>
     <use style="fill-opacity:0;stroke:#ff00ff;stroke-linejoin:miter;stroke-width:1.5;" x="236.5231" xlink:href="#m6500b1e665" y="212.121028"/>
     <use style="fill-opacity:0;stroke:#ff00ff;stroke-linejoin:miter;stroke-width:1.5;" x="265.958055" xlink:href="#m6500b1e665" y="128.243692"/>
     <use style="fill-opacity:0;stroke:#ff00ff;stroke-linejoin:miter;stroke-width:1.5;" x="265.958055" xlink:href="#m6500b1e665" y="127.125328"/>
     <use style="fill-opacity:0;stroke:#ff00ff;stroke-linejoin:miter;stroke-width:1.5;" x="333.429677" xlink:href="#m6500b1e665" y="127.125328"/>
    </g>
   </g>
   <g id="line2d_31">
    <path style="fill:none;stroke:#ff00ff;stroke-linecap:square;stroke-width:1.5;"/>
    <g/>
   </g>
   <g id="line2d_32">
    <path clip-path="url(#p7aecb09baa)" d="M 254.198358 171.859907 
" style="fill:none;stroke:#ff00ff;stroke-linecap:square;stroke-width:1.5;"/>
    <defs>
     <path d="M -12 12 
L 12 -12 
M -12 -12 
L 12 12 
" id="mc91eacc4ff" style="stroke:#ff00ff;stroke-width:3;"/>
    </defs>
    <g clip-path="url(#p7aecb09baa)">
     <use style="fill:#ff00ff;stroke:#ff00ff;stroke-width:3;" x="254.198358" xlink:href="#mc91eacc4ff" y="171.859907"/>
    </g>
   </g>
   <g id="line2d_33">
    <defs>
     <path d="M 0 1.5 
C 0.397805 1.5 0.77937 1.341951 1.06066 1.06066 
C 1.341951 0.77937 1.5 0.397805 1.5 0 
C 1.5 -0.397805 1.341951 -0.77937 1.06066 -1.06066 
C 0.77937 -1.341951 0.397805 -1.5 0 -1.5 
C -0.397805 -1.5 -0.77937 -1.341951 -1.06066 -1.06066 
C -1.341951 -0.77937 -1.5 -0.397805 -1.5 0 
C -1.5 0.397805 -1.341951 0.77937 -1.06066 1.06066 
C -0.77937 1.341951 -0.397805 1.5 0 1.5 
z
" id="m174707f1ef" style="stroke:#ffa500;"/>
    </defs>
    <g>
     <use style="fill:#ffa500;stroke:#ffa500;" x="232.428741" xlink:href="#m174707f1ef" y="9.697057"/>
     <use style="fill:#ffa500;stroke:#ffa500;" x="232.428741" xlink:href="#m174707f1ef" y="9.697057"/>
    </g>
   </g>
   <g id="line2d_34">
    <path d="M 186.928601 294.88 
L 186.928601 294.320818 
L 191.810613 294.320818 
L 191.889289 292.643271 
L 192.859962 292.643271 
L 192.859962 292.084089 
L 193.163755 292.084089 
L 193.163755 290.406542 
L 193.997606 290.406542 
L 193.997606 289.84736 
L 194.788556 289.84736 
L 194.899101 288.728995 
L 194.963798 288.728995 
L 194.963798 288.169813 
L 195.734105 288.169813 
L 195.734105 287.610631 
L 196.331813 287.610631 
L 196.331813 286.492266 
L 196.523573 286.492266 
L 196.523573 285.933084 
L 196.673313 285.933084 
L 196.673313 285.373902 
L 196.810165 285.373902 
L 196.810165 284.81472 
L 197.244498 284.81472 
L 197.244498 284.255537 
L 197.939141 284.255537 
L 197.939141 283.137173 
L 198.081591 283.137173 
L 198.081591 282.577991 
L 198.349748 282.577991 
L 198.349748 281.459626 
L 199.163775 281.459626 
L 199.163775 280.900444 
L 199.777456 280.900444 
L 199.788843 279.782079 
L 199.897447 279.782079 
L 199.988502 278.104533 
L 200.042263 278.104533 
L 200.070281 276.986168 
L 200.478133 276.986168 
L 200.478133 276.426986 
L 200.603436 276.426986 
L 200.603436 275.867804 
L 200.720902 275.867804 
L 200.720902 274.749439 
L 201.455156 274.749439 
L 201.455156 274.190257 
L 201.90242 274.190257 
L 201.925415 270.835164 
L 202.263173 270.835164 
L 202.263173 270.275981 
L 202.569545 270.275981 
L 202.677802 268.598435 
L 202.769664 268.598435 
L 202.876673 266.361706 
L 202.897045 266.361706 
L 202.897045 265.243341 
L 203.237733 265.243341 
L 203.282918 262.44743 
L 203.428297 262.44743 
L 203.428297 261.888248 
L 203.712185 261.888248 
L 203.712185 261.329066 
L 203.954489 261.329066 
L 204.008651 260.210701 
L 204.15436 260.210701 
L 204.15436 259.092337 
L 204.340706 259.092337 
L 204.38869 255.178061 
L 204.502197 255.178061 
L 204.562675 253.500514 
L 204.755643 253.500514 
L 204.755643 252.38215 
L 204.871603 252.38215 
L 204.871603 251.263785 
L 205.010812 251.263785 
L 205.070728 249.027056 
L 205.150094 249.027056 
L 205.150094 248.467874 
L 205.378384 248.467874 
L 205.378384 247.908692 
L 205.491403 247.908692 
L 205.491403 247.34951 
L 205.860955 247.34951 
L 205.860955 246.790327 
L 205.98561 246.790327 
L 206.082883 243.994416 
L 206.372 243.994416 
L 206.444493 240.639323 
L 206.494121 240.639323 
L 206.494121 239.520958 
L 207.007818 239.520958 
L 207.055317 238.402594 
L 207.402475 238.402594 
L 207.466079 236.725047 
L 207.688914 236.725047 
L 207.796452 233.929136 
L 207.820428 233.929136 
L 207.831639 232.251589 
L 207.958025 232.251589 
L 207.958025 231.692407 
L 208.114086 231.692407 
L 208.114086 231.133225 
L 208.227472 231.133225 
L 208.294551 230.01486 
L 208.546117 230.01486 
L 208.546117 227.778131 
L 208.776224 227.778131 
L 208.776224 227.218949 
L 208.927937 227.218949 
L 209.038 226.100584 
L 209.118079 226.100584 
L 209.118079 225.541402 
L 209.381262 225.541402 
L 209.455128 223.304673 
L 209.513439 223.304673 
L 209.513439 222.745491 
L 209.687652 222.745491 
L 209.727395 221.627126 
L 209.909852 221.627126 
L 209.940525 220.508762 
L 210.080564 220.508762 
L 210.097095 218.831215 
L 210.249598 218.831215 
L 210.297779 216.594486 
L 210.363863 216.594486 
L 210.363863 215.476122 
L 210.488729 215.476122 
L 210.532328 214.357757 
L 210.660736 214.357757 
L 210.71209 213.239393 
L 210.789479 213.239393 
L 210.897669 209.325117 
L 211.081267 209.325117 
L 211.081267 208.765935 
L 211.198119 208.765935 
L 211.294615 207.088388 
L 211.464151 207.088388 
L 211.535773 205.970024 
L 211.580488 205.970024 
L 211.580488 204.851659 
L 211.696451 204.851659 
L 211.747244 203.733295 
L 211.840313 203.733295 
L 211.911193 201.496566 
L 211.966566 201.496566 
L 211.998585 199.819019 
L 212.145505 199.819019 
L 212.145505 198.700655 
L 212.266397 198.700655 
L 212.303363 197.023108 
L 212.38879 197.023108 
L 212.486626 195.345561 
L 212.665265 195.345561 
L 212.665265 194.227197 
L 212.87326 194.227197 
L 212.87326 193.668014 
L 212.986896 193.668014 
L 213.087405 190.872103 
L 213.173891 190.872103 
L 213.19703 187.51701 
L 213.302625 187.51701 
L 213.32189 185.839463 
L 213.443276 185.839463 
L 213.48257 184.721099 
L 213.565272 184.721099 
L 213.565272 184.161916 
L 213.791574 184.161916 
L 213.888578 182.48437 
L 213.919719 182.48437 
L 213.9886 180.806823 
L 214.05011 180.806823 
L 214.08592 178.010912 
L 214.323343 178.010912 
L 214.432683 174.096636 
L 214.444827 174.096636 
L 214.494012 172.978271 
L 214.584049 172.978271 
L 214.682515 169.063996 
L 214.73546 169.063996 
L 214.806593 167.386449 
L 214.994408 167.386449 
L 215.081203 165.14972 
L 215.157581 165.14972 
L 215.258783 163.472173 
L 215.269367 163.472173 
L 215.346233 161.794627 
L 215.493068 161.794627 
L 215.595566 158.998715 
L 215.640926 158.998715 
L 215.691006 156.202804 
L 215.887012 156.202804 
L 215.887012 155.08444 
L 216.011281 155.08444 
L 216.032486 153.406893 
L 216.133402 153.406893 
L 216.230603 152.288529 
L 216.244667 152.288529 
L 216.340312 148.933435 
L 216.374763 148.933435 
L 216.374763 148.374253 
L 216.531556 148.374253 
L 216.531556 147.815071 
L 216.705497 147.815071 
L 216.781671 146.137524 
L 216.843032 146.137524 
L 216.868058 144.459977 
L 217.028799 144.459977 
L 217.081551 142.78243 
L 217.238845 142.78243 
L 217.346138 139.986519 
L 217.353755 139.986519 
L 217.459754 138.308973 
L 217.558447 138.308973 
L 217.639878 136.072244 
L 217.71146 136.072244 
L 217.793028 134.394697 
L 217.836373 134.394697 
L 217.836373 133.835515 
L 217.949071 133.835515 
L 218.002747 129.921239 
L 218.071434 129.921239 
L 218.181491 127.68451 
L 218.198511 127.68451 
L 218.298891 125.447781 
L 218.50887 125.447781 
L 218.606099 122.65187 
L 218.778445 122.65187 
L 218.882477 119.855959 
L 218.958689 119.855959 
L 219.049966 117.060047 
L 219.096085 117.060047 
L 219.096085 116.500865 
L 219.278812 116.500865 
L 219.38768 113.145772 
L 219.397047 113.145772 
L 219.469982 109.790678 
L 219.531 109.790678 
L 219.637776 107.553949 
L 219.677231 107.553949 
L 219.695135 104.198856 
L 219.788446 104.198856 
L 219.895662 99.725398 
L 220.033826 99.725398 
L 220.119338 96.929487 
L 220.21832 96.929487 
L 220.288603 95.25194 
L 220.38711 95.25194 
L 220.484567 94.133576 
L 220.54526 94.133576 
L 220.654889 89.660118 
L 220.773671 89.660118 
L 220.858698 87.423389 
L 220.988184 87.423389 
L 221.097863 84.627477 
L 221.144688 84.627477 
L 221.144688 84.068295 
L 221.28324 84.068295 
L 221.28324 83.509113 
L 221.80101 83.509113 
L 221.884272 81.272384 
L 221.983703 81.272384 
L 222.067646 79.594837 
L 222.108576 79.594837 
L 222.13433 77.917291 
L 222.304312 77.917291 
L 222.375994 74.003015 
L 222.43997 74.003015 
L 222.545349 71.207104 
L 222.599201 71.207104 
L 222.654177 67.85201 
L 222.812726 67.85201 
L 222.864474 64.496917 
L 222.949317 64.496917 
L 222.949317 63.378552 
L 223.155431 63.378552 
L 223.155431 62.81937 
L 223.389037 62.81937 
L 223.413563 59.464277 
L 223.646151 59.464277 
L 223.681672 56.668365 
L 223.78941 56.668365 
L 223.858788 54.990819 
L 224.062682 54.990819 
L 224.140448 53.872454 
L 224.245948 53.872454 
L 224.353925 51.635725 
L 224.46336 51.635725 
L 224.46336 50.517361 
L 224.728313 50.517361 
L 224.786979 48.280632 
L 225.051339 48.280632 
L 225.051339 47.162267 
L 225.216264 47.162267 
L 225.216264 46.603085 
L 225.595593 46.603085 
L 225.63546 45.484721 
L 225.718339 45.484721 
L 225.800284 43.247992 
L 226.227876 43.247992 
L 226.305345 42.129627 
L 226.393902 42.129627 
L 226.393902 41.570445 
L 226.632463 41.570445 
L 226.740417 39.892898 
L 226.748563 39.892898 
L 226.833691 38.215351 
L 227.42885 38.215351 
L 227.473477 37.096987 
L 227.627477 37.096987 
L 227.627477 36.537805 
L 227.772598 36.537805 
L 227.837856 33.741894 
L 228.015774 33.741894 
L 228.015774 33.182711 
L 228.337279 33.182711 
L 228.403208 30.945982 
L 228.600559 30.945982 
L 228.634347 27.590889 
L 228.872771 27.590889 
L 228.872771 27.031707 
L 228.99768 27.031707 
L 229.093286 25.913342 
L 229.201022 25.913342 
L 229.218079 24.794978 
L 229.468604 24.794978 
L 229.468604 24.235795 
L 229.689956 24.235795 
L 229.701392 21.999066 
L 229.846824 21.999066 
L 229.877405 20.32152 
L 230.140879 20.32152 
L 230.250991 17.525609 
L 230.300471 17.525609 
L 230.300471 16.966426 
L 230.505439 16.966426 
L 230.505439 15.848062 
L 230.993376 15.848062 
L 230.993376 15.28888 
L 231.262622 15.28888 
L 231.262622 14.170515 
L 231.443724 14.170515 
L 231.474303 12.492968 
L 232.023629 12.492968 
L 232.023629 11.374604 
L 232.148163 11.374604 
L 232.148163 10.815422 
L 232.34267 10.815422 
L 232.428741 9.697057 
L 333.429677 9.697057 
L 333.429677 9.697057 
" style="fill:none;stroke:#ffa500;stroke-linecap:square;stroke-width:1.5;"/>
   </g>
   <g id="line2d_35">
    <defs>
     <path d="M 0 -6 
L -1.347084 -1.854102 
L -5.706339 -1.854102 
L -2.179628 0.708204 
L -3.526712 4.854102 
L -0 2.291796 
L 3.526712 4.854102 
L 2.179628 0.708204 
L 5.706339 -1.854102 
L 1.347084 -1.854102 
z
" id="m79f22aa81f" style="stroke:#ffa500;stroke-linejoin:bevel;stroke-width:1.5;"/>
    </defs>
    <g>
     <use style="fill-opacity:0;stroke:#ffa500;stroke-linejoin:bevel;stroke-width:1.5;" x="221.144688" xlink:href="#m79f22aa81f" y="84.627477"/>
     <use style="fill-opacity:0;stroke:#ffa500;stroke-linejoin:bevel;stroke-width:1.5;" x="232.428741" xlink:href="#m79f22aa81f" y="9.697057"/>
     <use style="fill-opacity:0;stroke:#ffa500;stroke-linejoin:bevel;stroke-width:1.5;" x="232.428741" xlink:href="#m79f22aa81f" y="9.697057"/>
     <use style="fill-opacity:0;stroke:#ffa500;stroke-linejoin:bevel;stroke-width:1.5;" x="333.429677" xlink:href="#m79f22aa81f" y="9.697057"/>
    </g>
   </g>
   <g id="line2d_36">
    <path style="fill:none;stroke:#ffa500;stroke-linecap:square;stroke-width:1.5;"/>
    <g/>
   </g>
   <g id="line2d_37">
    <defs>
     <path d="M 0 1.5 
C 0.397805 1.5 0.77937 1.341951 1.06066 1.06066 
C 1.341951 0.77937 1.5 0.397805 1.5 0 
C 1.5 -0.397805 1.341951 -0.77937 1.06066 -1.06066 
C 0.77937 -1.341951 0.397805 -1.5 0 -1.5 
C -0.397805 -1.5 -0.77937 -1.341951 -1.06066 -1.06066 
C -1.341951 -0.77937 -1.5 -0.397805 -1.5 0 
C -1.5 0.397805 -1.341951 0.77937 -1.06066 1.06066 
C -0.77937 1.341951 -0.397805 1.5 0 1.5 
z
" id="mc27026416b" style="stroke:#6495ed;"/>
    </defs>
    <g>
     <use style="fill:#6495ed;stroke:#6495ed;" x="322.515739" xlink:href="#mc27026416b" y="177.451729"/>
     <use style="fill:#6495ed;stroke:#6495ed;" x="322.515739" xlink:href="#mc27026416b" y="177.451729"/>
    </g>
   </g>
   <g id="line2d_38">
    <path d="M 73.834464 294.88 
L 73.834464 294.320818 
L 79.971009 294.320818 
L 79.971009 293.761636 
L 83.107827 293.761636 
L 83.107827 293.202453 
L 84.484951 293.202453 
L 84.484951 292.643271 
L 87.511126 292.643271 
L 87.511126 291.524907 
L 105.265187 291.524907 
L 105.265187 290.965724 
L 106.778678 290.965724 
L 106.778678 289.84736 
L 108.33596 289.84736 
L 108.33596 289.288178 
L 112.567638 289.288178 
L 112.567638 288.728995 
L 122.507079 288.728995 
L 122.507079 287.610631 
L 123.562923 287.610631 
L 123.562923 287.051449 
L 129.889579 287.051449 
L 129.889579 286.492266 
L 130.674904 286.492266 
L 130.674904 285.933084 
L 132.595654 285.933084 
L 132.595654 284.81472 
L 135.624435 284.81472 
L 135.624435 283.696355 
L 137.423596 283.696355 
L 137.423596 283.137173 
L 137.725974 283.137173 
L 137.725974 282.018808 
L 138.052565 282.018808 
L 138.052565 281.459626 
L 142.003116 281.459626 
L 142.026477 279.782079 
L 142.86924 279.782079 
L 142.86924 279.222897 
L 145.82356 279.222897 
L 145.82356 277.545351 
L 146.046762 277.545351 
L 146.046762 276.986168 
L 149.72625 276.986168 
L 149.72625 276.426986 
L 150.095309 276.426986 
L 150.095309 275.867804 
L 151.115996 275.867804 
L 151.115996 274.749439 
L 151.524035 274.749439 
L 151.524035 274.190257 
L 152.157415 274.190257 
L 152.157415 273.631075 
L 153.004245 273.631075 
L 153.004245 273.071893 
L 153.705102 273.071893 
L 153.705102 271.953528 
L 154.137731 271.953528 
L 154.137731 271.394346 
L 155.819467 271.394346 
L 155.840397 270.275981 
L 156.707196 270.275981 
L 156.707196 269.716799 
L 158.201729 269.716799 
L 158.201729 269.157617 
L 158.784393 269.157617 
L 158.784393 268.039252 
L 159.458502 268.039252 
L 159.458502 267.48007 
L 159.976106 267.48007 
L 159.976106 265.802523 
L 160.374441 265.802523 
L 160.374441 265.243341 
L 160.857778 265.243341 
L 160.857778 264.684159 
L 163.267119 264.684159 
L 163.294266 263.565795 
L 163.887481 263.565795 
L 163.887481 262.44743 
L 164.429209 262.44743 
L 164.536799 261.329066 
L 165.505825 261.329066 
L 165.505825 259.092337 
L 165.958998 259.092337 
L 165.958998 258.533154 
L 166.653433 258.533154 
L 166.653433 257.973972 
L 166.908161 257.973972 
L 166.919151 256.855608 
L 167.454565 256.855608 
L 167.502423 255.737243 
L 168.009947 255.737243 
L 168.009947 254.618879 
L 168.652579 254.618879 
L 168.712077 253.500514 
L 168.908932 253.500514 
L 168.908932 252.941332 
L 169.744631 252.941332 
L 169.744631 252.38215 
L 170.317645 252.38215 
L 170.32666 251.263785 
L 171.217939 251.263785 
L 171.217939 250.145421 
L 171.556879 250.145421 
L 171.556879 249.027056 
L 173.188666 249.027056 
L 173.188666 247.34951 
L 173.832754 247.34951 
L 173.909766 246.231145 
L 173.971858 246.231145 
L 173.971858 245.671963 
L 175.155225 245.671963 
L 175.155225 245.112781 
L 175.6451 245.112781 
L 175.6451 244.553598 
L 176.824393 244.553598 
L 176.824393 243.994416 
L 177.200187 243.994416 
L 177.200187 243.435234 
L 177.350632 243.435234 
L 177.350632 242.876052 
L 177.881598 242.876052 
L 177.881598 240.639323 
L 178.175361 240.639323 
L 178.175361 240.08014 
L 178.562193 240.08014 
L 178.562193 239.520958 
L 179.324066 239.520958 
L 179.324066 237.843411 
L 180.290098 237.843411 
L 180.290098 237.284229 
L 180.966051 237.284229 
L 180.966051 236.165865 
L 181.674796 236.165865 
L 181.753835 235.0475 
L 182.326357 235.0475 
L 182.326357 233.929136 
L 182.60011 233.929136 
L 182.60011 233.369954 
L 183.337033 233.369954 
L 183.337033 232.251589 
L 184.474757 232.251589 
L 184.474757 231.692407 
L 186.532631 231.692407 
L 186.532631 231.133225 
L 186.695247 231.133225 
L 186.695247 230.574042 
L 187.751589 230.574042 
L 187.751589 228.896496 
L 187.880404 228.896496 
L 187.880404 227.218949 
L 189.791119 227.218949 
L 189.791119 226.659767 
L 192.855096 226.659767 
L 192.855096 226.100584 
L 254.318919 226.100584 
L 254.353873 224.98222 
L 254.451734 224.98222 
L 254.556323 219.94958 
L 254.664534 219.94958 
L 254.687726 218.272033 
L 266.240443 218.272033 
L 266.287543 214.91694 
L 266.358224 214.91694 
L 266.358529 213.239393 
L 273.18092 213.239393 
L 273.261283 207.64757 
L 278.116267 207.64757 
L 278.166947 202.61493 
L 281.937218 202.61493 
L 281.984101 199.819019 
L 285.077672 199.819019 
L 285.105026 197.58229 
L 287.709115 197.58229 
L 287.745806 194.786379 
L 290.01786 194.786379 
L 290.036809 193.668014 
L 292.054478 193.668014 
L 292.054478 193.108832 
L 293.844737 193.108832 
L 293.854702 191.431285 
L 295.473962 191.431285 
L 295.498893 187.51701 
L 296.974611 187.51701 
L 296.990733 185.839463 
L 298.348581 185.839463 
L 298.364232 184.161916 
L 299.636707 184.161916 
L 299.636707 183.602734 
L 301.920921 183.602734 
L 301.920921 183.043552 
L 303.945937 183.043552 
L 303.953016 181.925187 
L 304.88224 181.925187 
L 304.88224 181.366005 
L 306.595348 181.366005 
L 306.595348 180.806823 
L 307.393296 180.806823 
L 307.393296 180.247641 
L 308.15652 180.247641 
L 308.158411 179.129276 
L 310.92053 179.129276 
L 310.92053 178.570094 
L 314.883008 178.570094 
L 314.883008 178.010912 
L 322.515739 178.010912 
L 322.515739 177.451729 
L 333.429677 177.451729 
L 333.429677 177.451729 
" style="fill:none;stroke:#6495ed;stroke-linecap:square;stroke-width:1.5;"/>
   </g>
   <g id="line2d_39">
    <defs>
     <path d="M -0 6 
L 6 -6 
L -6 -6 
z
" id="m76d10380f7" style="stroke:#6495ed;stroke-linejoin:miter;stroke-width:1.5;"/>
    </defs>
    <g>
     <use style="fill-opacity:0;stroke:#6495ed;stroke-linejoin:miter;stroke-width:1.5;" x="154.137731" xlink:href="#m76d10380f7" y="271.953528"/>
     <use style="fill-opacity:0;stroke:#6495ed;stroke-linejoin:miter;stroke-width:1.5;" x="192.855096" xlink:href="#m76d10380f7" y="226.100584"/>
     <use style="fill-opacity:0;stroke:#6495ed;stroke-linejoin:miter;stroke-width:1.5;" x="303.945937" xlink:href="#m76d10380f7" y="183.043552"/>
     <use style="fill-opacity:0;stroke:#6495ed;stroke-linejoin:miter;stroke-width:1.5;" x="322.515739" xlink:href="#m76d10380f7" y="177.451729"/>
     <use style="fill-opacity:0;stroke:#6495ed;stroke-linejoin:miter;stroke-width:1.5;" x="333.429677" xlink:href="#m76d10380f7" y="177.451729"/>
    </g>
   </g>
   <g id="line2d_40">
    <path style="fill:none;stroke:#6495ed;stroke-linecap:square;stroke-width:1.5;"/>
    <g/>
   </g>
   <g id="line2d_41">
    <path clip-path="url(#p7aecb09baa)" d="M 254.198358 226.100584 
" style="fill:none;stroke:#6495ed;stroke-linecap:square;stroke-width:1.5;"/>
    <defs>
     <path d="M -12 12 
L 12 -12 
M -12 -12 
L 12 12 
" id="m6944542cd3" style="stroke:#6495ed;stroke-width:3;"/>
    </defs>
    <g clip-path="url(#p7aecb09baa)">
     <use style="fill:#6495ed;stroke:#6495ed;stroke-width:3;" x="254.198358" xlink:href="#m6944542cd3" y="226.100584"/>
    </g>
   </g>
   <g id="line2d_42">
    <path d="M 333.429677 177.451729 
L 363.933742 289.176341 
" style="fill:none;stroke:#6495ed;stroke-linecap:square;stroke-width:1.5;"/>
    <g>
     <use style="fill-opacity:0;stroke:#6495ed;stroke-linejoin:miter;stroke-width:1.5;" x="333.429677" xlink:href="#m76d10380f7" y="177.451729"/>
     <use style="fill-opacity:0;stroke:#6495ed;stroke-linejoin:miter;stroke-width:1.5;" x="363.933742" xlink:href="#m76d10380f7" y="289.176341"/>
    </g>
   </g>
   <g id="line2d_43">
    <path d="M 333.429677 127.125328 
L 363.933742 197.917799 
" style="fill:none;stroke:#ff00ff;stroke-linecap:square;stroke-width:1.5;"/>
    <g>
     <use style="fill-opacity:0;stroke:#ff00ff;stroke-linejoin:miter;stroke-width:1.5;" x="333.429677" xlink:href="#m6500b1e665" y="127.125328"/>
     <use style="fill-opacity:0;stroke:#ff00ff;stroke-linejoin:miter;stroke-width:1.5;" x="363.933742" xlink:href="#m6500b1e665" y="197.917799"/>
    </g>
   </g>
   <g id="line2d_44">
    <path d="M 333.429677 127.125328 
L 363.933742 106.659258 
" style="fill:none;stroke:#000080;stroke-linecap:square;stroke-width:1.5;"/>
    <g>
     <use style="fill-opacity:0;stroke:#000080;stroke-width:1.5;" x="333.429677" xlink:href="#me75c403d1d" y="127.125328"/>
     <use style="fill-opacity:0;stroke:#000080;stroke-width:1.5;" x="363.933742" xlink:href="#me75c403d1d" y="106.659258"/>
    </g>
   </g>
   <g id="line2d_45">
    <path d="M 333.429677 9.697057 
L 363.933742 15.400716 
" style="fill:none;stroke:#ffa500;stroke-linecap:square;stroke-width:1.5;"/>
    <g>
     <use style="fill-opacity:0;stroke:#ffa500;stroke-linejoin:bevel;stroke-width:1.5;" x="333.429677" xlink:href="#m79f22aa81f" y="9.697057"/>
     <use style="fill-opacity:0;stroke:#ffa500;stroke-linejoin:bevel;stroke-width:1.5;" x="363.933742" xlink:href="#m79f22aa81f" y="15.400716"/>
    </g>
   </g>
   <g id="line2d_46">
    <path d="M 333.429677 294.88 
L 333.429677 9.697057 
" style="fill:none;stroke:#000000;stroke-linecap:square;stroke-width:1.5;"/>
   </g>
   <g id="patch_3">
    <path d="M 56.12 294.88 
L 56.12 6.845228 
" style="fill:none;stroke:#000000;stroke-linecap:square;stroke-linejoin:miter;stroke-width:0.8;"/>
   </g>
   <g id="patch_4">
    <path d="M 399.984 294.88 
L 399.984 6.845228 
" style="fill:none;stroke:#000000;stroke-linecap:square;stroke-linejoin:miter;stroke-width:0.8;"/>
   </g>
   <g id="patch_5">
    <path d="M 56.12 294.88 
L 399.984 294.88 
" style="fill:none;stroke:#000000;stroke-linecap:square;stroke-linejoin:miter;stroke-width:0.8;"/>
   </g>
   <g id="patch_6">
    <path d="M 56.12 6.845228 
L 399.984 6.845228 
" style="fill:none;stroke:#000000;stroke-linecap:square;stroke-linejoin:miter;stroke-width:0.8;"/>
   </g>
   <g id="text_14">
    <!-- f7 -->
    <defs>
     <path d="M 8.203125 72.90625 
L 55.078125 72.90625 
L 55.078125 68.703125 
L 28.609375 0 
L 18.3125 0 
L 43.21875 64.59375 
L 8.203125 64.59375 
z
" id="DejaVuSans-37"/>
    </defs>
    <g transform="translate(369.479935 293.867279)scale(0.17 -0.17)">
     <use xlink:href="#DejaVuSans-66"/>
     <use x="35.205078" xlink:href="#DejaVuSans-37"/>
    </g>
   </g>
   <g id="text_15">
    <!-- f9 -->
    <defs>
     <path d="M 10.984375 1.515625 
L 10.984375 10.5 
Q 14.703125 8.734375 18.5 7.8125 
Q 22.3125 6.890625 25.984375 6.890625 
Q 35.75 6.890625 40.890625 13.453125 
Q 46.046875 20.015625 46.78125 33.40625 
Q 43.953125 29.203125 39.59375 26.953125 
Q 35.25 24.703125 29.984375 24.703125 
Q 19.046875 24.703125 12.671875 31.3125 
Q 6.296875 37.9375 6.296875 49.421875 
Q 6.296875 60.640625 12.9375 67.421875 
Q 19.578125 74.21875 30.609375 74.21875 
Q 43.265625 74.21875 49.921875 64.515625 
Q 56.59375 54.828125 56.59375 36.375 
Q 56.59375 19.140625 48.40625 8.859375 
Q 40.234375 -1.421875 26.421875 -1.421875 
Q 22.703125 -1.421875 18.890625 -0.6875 
Q 15.09375 0.046875 10.984375 1.515625 
z
M 30.609375 32.421875 
Q 37.25 32.421875 41.125 36.953125 
Q 45.015625 41.5 45.015625 49.421875 
Q 45.015625 57.28125 41.125 61.84375 
Q 37.25 66.40625 30.609375 66.40625 
Q 23.96875 66.40625 20.09375 61.84375 
Q 16.21875 57.28125 16.21875 49.421875 
Q 16.21875 41.5 20.09375 36.953125 
Q 23.96875 32.421875 30.609375 32.421875 
z
" id="DejaVuSans-39"/>
    </defs>
    <g transform="translate(369.479935 202.608737)scale(0.17 -0.17)">
     <use xlink:href="#DejaVuSans-66"/>
     <use x="35.205078" xlink:href="#DejaVuSans-39"/>
    </g>
   </g>
   <g id="text_16">
    <!-- f8 -->
    <g transform="translate(369.479935 111.350195)scale(0.17 -0.17)">
     <use xlink:href="#DejaVuSans-66"/>
     <use x="35.205078" xlink:href="#DejaVuSans-38"/>
    </g>
   </g>
   <g id="text_17">
    <!-- f6 -->
    <g transform="translate(369.479935 20.091654)scale(0.17 -0.17)">
     <use xlink:href="#DejaVuSans-66"/>
     <use x="35.205078" xlink:href="#DejaVuSans-36"/>
    </g>
   </g>
   <g id="text_18">
    <!-- bbob -->
    <defs>
     <path d="M 48.6875 27.296875 
Q 48.6875 37.203125 44.609375 42.84375 
Q 40.53125 48.484375 33.40625 48.484375 
Q 26.265625 48.484375 22.1875 42.84375 
Q 18.109375 37.203125 18.109375 27.296875 
Q 18.109375 17.390625 22.1875 11.75 
Q 26.265625 6.109375 33.40625 6.109375 
Q 40.53125 6.109375 44.609375 11.75 
Q 48.6875 17.390625 48.6875 27.296875 
z
M 18.109375 46.390625 
Q 20.953125 51.265625 25.265625 53.625 
Q 29.59375 56 35.59375 56 
Q 45.5625 56 51.78125 48.09375 
Q 58.015625 40.1875 58.015625 27.296875 
Q 58.015625 14.40625 51.78125 6.484375 
Q 45.5625 -1.421875 35.59375 -1.421875 
Q 29.59375 -1.421875 25.265625 0.953125 
Q 20.953125 3.328125 18.109375 8.203125 
L 18.109375 0 
L 9.078125 0 
L 9.078125 75.984375 
L 18.109375 75.984375 
z
" id="DejaVuSans-62"/>
    </defs>
    <g transform="translate(59.55864 17.475982)scale(0.102 -0.102)">
     <use xlink:href="#DejaVuSans-62"/>
     <use x="63.476562" xlink:href="#DejaVuSans-62"/>
     <use x="126.953125" xlink:href="#DejaVuSans-6f"/>
     <use x="188.134766" xlink:href="#DejaVuSans-62"/>
    </g>
    <!-- Misc. moderate functions, 10-D -->
    <defs>
     <path d="M 9.8125 72.90625 
L 24.515625 72.90625 
L 43.109375 23.296875 
L 61.8125 72.90625 
L 76.515625 72.90625 
L 76.515625 0 
L 66.890625 0 
L 66.890625 64.015625 
L 48.09375 14.015625 
L 38.1875 14.015625 
L 19.390625 64.015625 
L 19.390625 0 
L 9.8125 0 
z
" id="DejaVuSans-4d"/>
     <path d="M 19.671875 64.796875 
L 19.671875 8.109375 
L 31.59375 8.109375 
Q 46.6875 8.109375 53.6875 14.9375 
Q 60.6875 21.78125 60.6875 36.53125 
Q 60.6875 51.171875 53.6875 57.984375 
Q 46.6875 64.796875 31.59375 64.796875 
z
M 9.8125 72.90625 
L 30.078125 72.90625 
Q 51.265625 72.90625 61.171875 64.09375 
Q 71.09375 55.28125 71.09375 36.53125 
Q 71.09375 17.671875 61.125 8.828125 
Q 51.171875 0 30.078125 0 
L 9.8125 0 
z
" id="DejaVuSans-44"/>
    </defs>
    <g transform="translate(59.55864 28.89775)scale(0.102 -0.102)">
     <use xlink:href="#DejaVuSans-4d"/>
     <use x="86.279297" xlink:href="#DejaVuSans-69"/>
     <use x="114.0625" xlink:href="#DejaVuSans-73"/>
     <use x="166.162109" xlink:href="#DejaVuSans-63"/>
     <use x="221.142578" xlink:href="#DejaVuSans-2e"/>
     <use x="252.929688" xlink:href="#DejaVuSans-20"/>
     <use x="284.716797" xlink:href="#DejaVuSans-6d"/>
     <use x="382.128906" xlink:href="#DejaVuSans-6f"/>
     <use x="443.310547" xlink:href="#DejaVuSans-64"/>
     <use x="506.787109" xlink:href="#DejaVuSans-65"/>
     <use x="568.310547" xlink:href="#DejaVuSans-72"/>
     <use x="609.423828" xlink:href="#DejaVuSans-61"/>
     <use x="670.703125" xlink:href="#DejaVuSans-74"/>
     <use x="709.912109" xlink:href="#DejaVuSans-65"/>
     <use x="771.435547" xlink:href="#DejaVuSans-20"/>
     <use x="803.222656" xlink:href="#DejaVuSans-66"/>
     <use x="838.427734" xlink:href="#DejaVuSans-75"/>
     <use x="901.806641" xlink:href="#DejaVuSans-6e"/>
     <use x="965.185547" xlink:href="#DejaVuSans-63"/>
     <use x="1020.166016" xlink:href="#DejaVuSans-74"/>
     <use x="1059.375" xlink:href="#DejaVuSans-69"/>
     <use x="1087.158203" xlink:href="#DejaVuSans-6f"/>
     <use x="1148.339844" xlink:href="#DejaVuSans-6e"/>
     <use x="1211.71875" xlink:href="#DejaVuSans-73"/>
     <use x="1263.818359" xlink:href="#DejaVuSans-2c"/>
     <use x="1295.605469" xlink:href="#DejaVuSans-20"/>
     <use x="1327.392578" xlink:href="#DejaVuSans-31"/>
     <use x="1391.015625" xlink:href="#DejaVuSans-30"/>
     <use x="1454.638672" xlink:href="#DejaVuSans-2d"/>
     <use x="1490.722656" xlink:href="#DejaVuSans-44"/>
    </g>
    <!-- 51 targets: 100..1e-08 -->
    <defs>
     <path d="M 10.796875 72.90625 
L 49.515625 72.90625 
L 49.515625 64.59375 
L 19.828125 64.59375 
L 19.828125 46.734375 
Q 21.96875 47.46875 24.109375 47.828125 
Q 26.265625 48.1875 28.421875 48.1875 
Q 40.625 48.1875 47.75 41.5 
Q 54.890625 34.8125 54.890625 23.390625 
Q 54.890625 11.625 47.5625 5.09375 
Q 40.234375 -1.421875 26.90625 -1.421875 
Q 22.3125 -1.421875 17.546875 -0.640625 
Q 12.796875 0.140625 7.71875 1.703125 
L 7.71875 11.625 
Q 12.109375 9.234375 16.796875 8.0625 
Q 21.484375 6.890625 26.703125 6.890625 
Q 35.15625 6.890625 40.078125 11.328125 
Q 45.015625 15.765625 45.015625 23.390625 
Q 45.015625 31 40.078125 35.4375 
Q 35.15625 39.890625 26.703125 39.890625 
Q 22.75 39.890625 18.8125 39.015625 
Q 14.890625 38.140625 10.796875 36.28125 
z
" id="DejaVuSans-35"/>
     <path d="M 11.71875 12.40625 
L 22.015625 12.40625 
L 22.015625 0 
L 11.71875 0 
z
M 11.71875 51.703125 
L 22.015625 51.703125 
L 22.015625 39.3125 
L 11.71875 39.3125 
z
" id="DejaVuSans-3a"/>
    </defs>
    <g transform="translate(59.55864 40.319519)scale(0.102 -0.102)">
     <use xlink:href="#DejaVuSans-35"/>
     <use x="63.623047" xlink:href="#DejaVuSans-31"/>
     <use x="127.246094" xlink:href="#DejaVuSans-20"/>
     <use x="159.033203" xlink:href="#DejaVuSans-74"/>
     <use x="198.242188" xlink:href="#DejaVuSans-61"/>
     <use x="259.521484" xlink:href="#DejaVuSans-72"/>
     <use x="300.619141" xlink:href="#DejaVuSans-67"/>
     <use x="364.095703" xlink:href="#DejaVuSans-65"/>
     <use x="425.619141" xlink:href="#DejaVuSans-74"/>
     <use x="464.828125" xlink:href="#DejaVuSans-73"/>
     <use x="516.927734" xlink:href="#DejaVuSans-3a"/>
     <use x="550.619141" xlink:href="#DejaVuSans-20"/>
     <use x="582.40625" xlink:href="#DejaVuSans-31"/>
     <use x="646.029297" xlink:href="#DejaVuSans-30"/>
     <use x="709.652344" xlink:href="#DejaVuSans-30"/>
     <use x="773.275391" xlink:href="#DejaVuSans-2e"/>
     <use x="805.0625" xlink:href="#DejaVuSans-2e"/>
     <use x="836.849609" xlink:href="#DejaVuSans-31"/>
     <use x="900.472656" xlink:href="#DejaVuSans-65"/>
     <use x="961.996094" xlink:href="#DejaVuSans-2d"/>
     <use x="998.080078" xlink:href="#DejaVuSans-30"/>
     <use x="1061.703125" xlink:href="#DejaVuSans-38"/>
    </g>
    <!-- 15 instances -->
    <g transform="translate(59.55864 51.741288)scale(0.102 -0.102)">
     <use xlink:href="#DejaVuSans-31"/>
     <use x="63.623047" xlink:href="#DejaVuSans-35"/>
     <use x="127.246094" xlink:href="#DejaVuSans-20"/>
     <use x="159.033203" xlink:href="#DejaVuSans-69"/>
     <use x="186.816406" xlink:href="#DejaVuSans-6e"/>
     <use x="250.195312" xlink:href="#DejaVuSans-73"/>
     <use x="302.294922" xlink:href="#DejaVuSans-74"/>
     <use x="341.503906" xlink:href="#DejaVuSans-61"/>
     <use x="402.783203" xlink:href="#DejaVuSans-6e"/>
     <use x="466.162109" xlink:href="#DejaVuSans-63"/>
     <use x="521.142578" xlink:href="#DejaVuSans-65"/>
     <use x="582.666016" xlink:href="#DejaVuSans-73"/>
    </g>
   </g>
   <g id="text_19">
    <!-- v0.0.0 -->
    <g style="fill:#808080;" transform="translate(212.37075 289.919965)scale(0.1 -0.1)">
     <use xlink:href="#DejaVuSans-76"/>
     <use x="59.179688" xlink:href="#DejaVuSans-30"/>
     <use x="122.802734" xlink:href="#DejaVuSans-2e"/>
     <use x="154.589844" xlink:href="#DejaVuSans-30"/>
     <use x="218.212891" xlink:href="#DejaVuSans-2e"/>
     <use x="250" xlink:href="#DejaVuSans-30"/>
    </g>
   </g>
  </g>
 </g>
 <defs>
  <clipPath id="p7aecb09baa">
   <rect height="288.034772" width="343.864" x="56.12" y="6.845228"/>
  </clipPath>
 </defs>
</svg>
