<?xml version="1.0" encoding="utf-8" standalone="no"?>
<!DOCTYPE svg PUBLIC "-//W3C//DTD SVG 1.1//EN"
  "http://www.w3.org/Graphics/SVG/1.1/DTD/svg11.dtd">
<!-- Created with matplotlib (http://matplotlib.org/) -->
<svg height="345.6pt" version="1.1" viewBox="0 0 460.8 345.6" width="460.8pt" xmlns="http://www.w3.org/2000/svg" xmlns:xlink="http://www.w3.org/1999/xlink">
 <defs>
  <style type="text/css">
*{stroke-linecap:butt;stroke-linejoin:round;}
  </style>
 </defs>
 <g id="figure_1">
  <g id="patch_1">
   <path d="M 0 345.6 
L 460.8 345.6 
L 460.8 0 
L 0 0 
z
" style="fill:#ffffff;"/>
  </g>
  <g id="axes_1">
   <g id="patch_2">
    <path d="M 56.12 294.88 
L 399.984 294.88 
L 399.984 24.84 
L 56.12 24.84 
z
" style="fill:#ffffff;"/>
   </g>
   <g id="matplotlib.axis_1">
    <g id="xtick_1">
     <g id="line2d_1">
      <path clip-path="url(#p8e2e060cad)" d="M 56.12 294.88 
L 56.12 24.84 
" style="fill:none;stroke:#b0b0b0;stroke-linecap:square;stroke-width:0.8;"/>
     </g>
     <g id="line2d_2">
      <defs>
       <path d="M 0 0 
L 0 3.5 
" id="me4b73dfcdd" style="stroke:#000000;stroke-width:0.8;"/>
      </defs>
      <g>
       <use style="stroke:#000000;stroke-width:0.8;" x="56.12" xlink:href="#me4b73dfcdd" y="294.88"/>
      </g>
     </g>
     <g id="text_1">
      <!-- 0 -->
      <defs>
       <path d="M 31.78125 66.40625 
Q 24.171875 66.40625 20.328125 58.90625 
Q 16.5 51.421875 16.5 36.375 
Q 16.5 21.390625 20.328125 13.890625 
Q 24.171875 6.390625 31.78125 6.390625 
Q 39.453125 6.390625 43.28125 13.890625 
Q 47.125 21.390625 47.125 36.375 
Q 47.125 51.421875 43.28125 58.90625 
Q 39.453125 66.40625 31.78125 66.40625 
z
M 31.78125 74.21875 
Q 44.046875 74.21875 50.515625 64.515625 
Q 56.984375 54.828125 56.984375 36.375 
Q 56.984375 17.96875 50.515625 8.265625 
Q 44.046875 -1.421875 31.78125 -1.421875 
Q 19.53125 -1.421875 13.0625 8.265625 
Q 6.59375 17.96875 6.59375 36.375 
Q 6.59375 54.828125 13.0625 64.515625 
Q 19.53125 74.21875 31.78125 74.21875 
z
" id="DejaVuSans-30"/>
      </defs>
      <g transform="translate(49.7575 317.076875)scale(0.2 -0.2)">
       <use xlink:href="#DejaVuSans-30"/>
      </g>
     </g>
    </g>
    <g id="xtick_2">
     <g id="line2d_3">
      <path clip-path="url(#p8e2e060cad)" d="M 135.351336 294.88 
L 135.351336 24.84 
" style="fill:none;stroke:#b0b0b0;stroke-linecap:square;stroke-width:0.8;"/>
     </g>
     <g id="line2d_4">
      <g>
       <use style="stroke:#000000;stroke-width:0.8;" x="135.351336" xlink:href="#me4b73dfcdd" y="294.88"/>
      </g>
     </g>
     <g id="text_2">
      <!-- 2 -->
      <defs>
       <path d="M 19.1875 8.296875 
L 53.609375 8.296875 
L 53.609375 0 
L 7.328125 0 
L 7.328125 8.296875 
Q 12.9375 14.109375 22.625 23.890625 
Q 32.328125 33.6875 34.8125 36.53125 
Q 39.546875 41.84375 41.421875 45.53125 
Q 43.3125 49.21875 43.3125 52.78125 
Q 43.3125 58.59375 39.234375 62.25 
Q 35.15625 65.921875 28.609375 65.921875 
Q 23.96875 65.921875 18.8125 64.3125 
Q 13.671875 62.703125 7.8125 59.421875 
L 7.8125 69.390625 
Q 13.765625 71.78125 18.9375 73 
Q 24.125 74.21875 28.421875 74.21875 
Q 39.75 74.21875 46.484375 68.546875 
Q 53.21875 62.890625 53.21875 53.421875 
Q 53.21875 48.921875 51.53125 44.890625 
Q 49.859375 40.875 45.40625 35.40625 
Q 44.1875 33.984375 37.640625 27.21875 
Q 31.109375 20.453125 19.1875 8.296875 
z
" id="DejaVuSans-32"/>
      </defs>
      <g transform="translate(128.988836 317.076875)scale(0.2 -0.2)">
       <use xlink:href="#DejaVuSans-32"/>
      </g>
     </g>
    </g>
    <g id="xtick_3">
     <g id="line2d_5">
      <path clip-path="url(#p8e2e060cad)" d="M 214.582673 294.88 
L 214.582673 24.84 
" style="fill:none;stroke:#b0b0b0;stroke-linecap:square;stroke-width:0.8;"/>
     </g>
     <g id="line2d_6">
      <g>
       <use style="stroke:#000000;stroke-width:0.8;" x="214.582673" xlink:href="#me4b73dfcdd" y="294.88"/>
      </g>
     </g>
     <g id="text_3">
      <!-- 4 -->
      <defs>
       <path d="M 37.796875 64.3125 
L 12.890625 25.390625 
L 37.796875 25.390625 
z
M 35.203125 72.90625 
L 47.609375 72.90625 
L 47.609375 25.390625 
L 58.015625 25.390625 
L 58.015625 17.1875 
L 47.609375 17.1875 
L 47.609375 0 
L 37.796875 0 
L 37.796875 17.1875 
L 4.890625 17.1875 
L 4.890625 26.703125 
z
" id="DejaVuSans-34"/>
      </defs>
      <g transform="translate(208.220173 317.076875)scale(0.2 -0.2)">
       <use xlink:href="#DejaVuSans-34"/>
      </g>
     </g>
    </g>
    <g id="xtick_4">
     <g id="line2d_7">
      <path clip-path="url(#p8e2e060cad)" d="M 293.814009 294.88 
L 293.814009 24.84 
" style="fill:none;stroke:#b0b0b0;stroke-linecap:square;stroke-width:0.8;"/>
     </g>
     <g id="line2d_8">
      <g>
       <use style="stroke:#000000;stroke-width:0.8;" x="293.814009" xlink:href="#me4b73dfcdd" y="294.88"/>
      </g>
     </g>
     <g id="text_4">
      <!-- 6 -->
      <defs>
       <path d="M 33.015625 40.375 
Q 26.375 40.375 22.484375 35.828125 
Q 18.609375 31.296875 18.609375 23.390625 
Q 18.609375 15.53125 22.484375 10.953125 
Q 26.375 6.390625 33.015625 6.390625 
Q 39.65625 6.390625 43.53125 10.953125 
Q 47.40625 15.53125 47.40625 23.390625 
Q 47.40625 31.296875 43.53125 35.828125 
Q 39.65625 40.375 33.015625 40.375 
z
M 52.59375 71.296875 
L 52.59375 62.3125 
Q 48.875 64.0625 45.09375 64.984375 
Q 41.3125 65.921875 37.59375 65.921875 
Q 27.828125 65.921875 22.671875 59.328125 
Q 17.53125 52.734375 16.796875 39.40625 
Q 19.671875 43.65625 24.015625 45.921875 
Q 28.375 48.1875 33.59375 48.1875 
Q 44.578125 48.1875 50.953125 41.515625 
Q 57.328125 34.859375 57.328125 23.390625 
Q 57.328125 12.15625 50.6875 5.359375 
Q 44.046875 -1.421875 33.015625 -1.421875 
Q 20.359375 -1.421875 13.671875 8.265625 
Q 6.984375 17.96875 6.984375 36.375 
Q 6.984375 53.65625 15.1875 63.9375 
Q 23.390625 74.21875 37.203125 74.21875 
Q 40.921875 74.21875 44.703125 73.484375 
Q 48.484375 72.75 52.59375 71.296875 
z
" id="DejaVuSans-36"/>
      </defs>
      <g transform="translate(287.451509 317.076875)scale(0.2 -0.2)">
       <use xlink:href="#DejaVuSans-36"/>
      </g>
     </g>
    </g>
    <g id="xtick_5">
     <g id="line2d_9">
      <path clip-path="url(#p8e2e060cad)" d="M 373.045346 294.88 
L 373.045346 24.84 
" style="fill:none;stroke:#b0b0b0;stroke-linecap:square;stroke-width:0.8;"/>
     </g>
     <g id="line2d_10">
      <g>
       <use style="stroke:#000000;stroke-width:0.8;" x="373.045346" xlink:href="#me4b73dfcdd" y="294.88"/>
      </g>
     </g>
     <g id="text_5">
      <!-- 8 -->
      <defs>
       <path d="M 31.78125 34.625 
Q 24.75 34.625 20.71875 30.859375 
Q 16.703125 27.09375 16.703125 20.515625 
Q 16.703125 13.921875 20.71875 10.15625 
Q 24.75 6.390625 31.78125 6.390625 
Q 38.8125 6.390625 42.859375 10.171875 
Q 46.921875 13.96875 46.921875 20.515625 
Q 46.921875 27.09375 42.890625 30.859375 
Q 38.875 34.625 31.78125 34.625 
z
M 21.921875 38.8125 
Q 15.578125 40.375 12.03125 44.71875 
Q 8.5 49.078125 8.5 55.328125 
Q 8.5 64.0625 14.71875 69.140625 
Q 20.953125 74.21875 31.78125 74.21875 
Q 42.671875 74.21875 48.875 69.140625 
Q 55.078125 64.0625 55.078125 55.328125 
Q 55.078125 49.078125 51.53125 44.71875 
Q 48 40.375 41.703125 38.8125 
Q 48.828125 37.15625 52.796875 32.3125 
Q 56.78125 27.484375 56.78125 20.515625 
Q 56.78125 9.90625 50.3125 4.234375 
Q 43.84375 -1.421875 31.78125 -1.421875 
Q 19.734375 -1.421875 13.25 4.234375 
Q 6.78125 9.90625 6.78125 20.515625 
Q 6.78125 27.484375 10.78125 32.3125 
Q 14.796875 37.15625 21.921875 38.8125 
z
M 18.3125 54.390625 
Q 18.3125 48.734375 21.84375 45.5625 
Q 25.390625 42.390625 31.78125 42.390625 
Q 38.140625 42.390625 41.71875 45.5625 
Q 45.3125 48.734375 45.3125 54.390625 
Q 45.3125 60.0625 41.71875 63.234375 
Q 38.140625 66.40625 31.78125 66.40625 
Q 25.390625 66.40625 21.84375 63.234375 
Q 18.3125 60.0625 18.3125 54.390625 
z
" id="DejaVuSans-38"/>
      </defs>
      <g transform="translate(366.682846 317.076875)scale(0.2 -0.2)">
       <use xlink:href="#DejaVuSans-38"/>
      </g>
     </g>
    </g>
    <g id="text_6">
     <!-- log10(# f-evals / dimension) -->
     <defs>
      <path d="M 9.421875 75.984375 
L 18.40625 75.984375 
L 18.40625 0 
L 9.421875 0 
z
" id="DejaVuSans-6c"/>
      <path d="M 30.609375 48.390625 
Q 23.390625 48.390625 19.1875 42.75 
Q 14.984375 37.109375 14.984375 27.296875 
Q 14.984375 17.484375 19.15625 11.84375 
Q 23.34375 6.203125 30.609375 6.203125 
Q 37.796875 6.203125 41.984375 11.859375 
Q 46.1875 17.53125 46.1875 27.296875 
Q 46.1875 37.015625 41.984375 42.703125 
Q 37.796875 48.390625 30.609375 48.390625 
z
M 30.609375 56 
Q 42.328125 56 49.015625 48.375 
Q 55.71875 40.765625 55.71875 27.296875 
Q 55.71875 13.875 49.015625 6.21875 
Q 42.328125 -1.421875 30.609375 -1.421875 
Q 18.84375 -1.421875 12.171875 6.21875 
Q 5.515625 13.875 5.515625 27.296875 
Q 5.515625 40.765625 12.171875 48.375 
Q 18.84375 56 30.609375 56 
z
" id="DejaVuSans-6f"/>
      <path d="M 45.40625 27.984375 
Q 45.40625 37.75 41.375 43.109375 
Q 37.359375 48.484375 30.078125 48.484375 
Q 22.859375 48.484375 18.828125 43.109375 
Q 14.796875 37.75 14.796875 27.984375 
Q 14.796875 18.265625 18.828125 12.890625 
Q 22.859375 7.515625 30.078125 7.515625 
Q 37.359375 7.515625 41.375 12.890625 
Q 45.40625 18.265625 45.40625 27.984375 
z
M 54.390625 6.78125 
Q 54.390625 -7.171875 48.1875 -13.984375 
Q 42 -20.796875 29.203125 -20.796875 
Q 24.46875 -20.796875 20.265625 -20.09375 
Q 16.0625 -19.390625 12.109375 -17.921875 
L 12.109375 -9.1875 
Q 16.0625 -11.328125 19.921875 -12.34375 
Q 23.78125 -13.375 27.78125 -13.375 
Q 36.625 -13.375 41.015625 -8.765625 
Q 45.40625 -4.15625 45.40625 5.171875 
L 45.40625 9.625 
Q 42.625 4.78125 38.28125 2.390625 
Q 33.9375 0 27.875 0 
Q 17.828125 0 11.671875 7.65625 
Q 5.515625 15.328125 5.515625 27.984375 
Q 5.515625 40.671875 11.671875 48.328125 
Q 17.828125 56 27.875 56 
Q 33.9375 56 38.28125 53.609375 
Q 42.625 51.21875 45.40625 46.390625 
L 45.40625 54.6875 
L 54.390625 54.6875 
z
" id="DejaVuSans-67"/>
      <path d="M 12.40625 8.296875 
L 28.515625 8.296875 
L 28.515625 63.921875 
L 10.984375 60.40625 
L 10.984375 69.390625 
L 28.421875 72.90625 
L 38.28125 72.90625 
L 38.28125 8.296875 
L 54.390625 8.296875 
L 54.390625 0 
L 12.40625 0 
z
" id="DejaVuSans-31"/>
      <path d="M 31 75.875 
Q 24.46875 64.65625 21.28125 53.65625 
Q 18.109375 42.671875 18.109375 31.390625 
Q 18.109375 20.125 21.3125 9.0625 
Q 24.515625 -2 31 -13.1875 
L 23.1875 -13.1875 
Q 15.875 -1.703125 12.234375 9.375 
Q 8.59375 20.453125 8.59375 31.390625 
Q 8.59375 42.28125 12.203125 53.3125 
Q 15.828125 64.359375 23.1875 75.875 
z
" id="DejaVuSans-28"/>
      <path d="M 51.125 44 
L 36.921875 44 
L 32.8125 27.6875 
L 47.125 27.6875 
z
M 43.796875 71.78125 
L 38.71875 51.515625 
L 52.984375 51.515625 
L 58.109375 71.78125 
L 65.921875 71.78125 
L 60.890625 51.515625 
L 76.125 51.515625 
L 76.125 44 
L 58.984375 44 
L 54.984375 27.6875 
L 70.515625 27.6875 
L 70.515625 20.21875 
L 53.078125 20.21875 
L 48 0 
L 40.1875 0 
L 45.21875 20.21875 
L 30.90625 20.21875 
L 25.875 0 
L 18.015625 0 
L 23.09375 20.21875 
L 7.71875 20.21875 
L 7.71875 27.6875 
L 24.90625 27.6875 
L 29 44 
L 13.28125 44 
L 13.28125 51.515625 
L 30.90625 51.515625 
L 35.890625 71.78125 
z
" id="DejaVuSans-23"/>
      <path id="DejaVuSans-20"/>
      <path d="M 37.109375 75.984375 
L 37.109375 68.5 
L 28.515625 68.5 
Q 23.6875 68.5 21.796875 66.546875 
Q 19.921875 64.59375 19.921875 59.515625 
L 19.921875 54.6875 
L 34.71875 54.6875 
L 34.71875 47.703125 
L 19.921875 47.703125 
L 19.921875 0 
L 10.890625 0 
L 10.890625 47.703125 
L 2.296875 47.703125 
L 2.296875 54.6875 
L 10.890625 54.6875 
L 10.890625 58.5 
Q 10.890625 67.625 15.140625 71.796875 
Q 19.390625 75.984375 28.609375 75.984375 
z
" id="DejaVuSans-66"/>
      <path d="M 4.890625 31.390625 
L 31.203125 31.390625 
L 31.203125 23.390625 
L 4.890625 23.390625 
z
" id="DejaVuSans-2d"/>
      <path d="M 56.203125 29.59375 
L 56.203125 25.203125 
L 14.890625 25.203125 
Q 15.484375 15.921875 20.484375 11.0625 
Q 25.484375 6.203125 34.421875 6.203125 
Q 39.59375 6.203125 44.453125 7.46875 
Q 49.3125 8.734375 54.109375 11.28125 
L 54.109375 2.78125 
Q 49.265625 0.734375 44.1875 -0.34375 
Q 39.109375 -1.421875 33.890625 -1.421875 
Q 20.796875 -1.421875 13.15625 6.1875 
Q 5.515625 13.8125 5.515625 26.8125 
Q 5.515625 40.234375 12.765625 48.109375 
Q 20.015625 56 32.328125 56 
Q 43.359375 56 49.78125 48.890625 
Q 56.203125 41.796875 56.203125 29.59375 
z
M 47.21875 32.234375 
Q 47.125 39.59375 43.09375 43.984375 
Q 39.0625 48.390625 32.421875 48.390625 
Q 24.90625 48.390625 20.390625 44.140625 
Q 15.875 39.890625 15.1875 32.171875 
z
" id="DejaVuSans-65"/>
      <path d="M 2.984375 54.6875 
L 12.5 54.6875 
L 29.59375 8.796875 
L 46.6875 54.6875 
L 56.203125 54.6875 
L 35.6875 0 
L 23.484375 0 
z
" id="DejaVuSans-76"/>
      <path d="M 34.28125 27.484375 
Q 23.390625 27.484375 19.1875 25 
Q 14.984375 22.515625 14.984375 16.5 
Q 14.984375 11.71875 18.140625 8.90625 
Q 21.296875 6.109375 26.703125 6.109375 
Q 34.1875 6.109375 38.703125 11.40625 
Q 43.21875 16.703125 43.21875 25.484375 
L 43.21875 27.484375 
z
M 52.203125 31.203125 
L 52.203125 0 
L 43.21875 0 
L 43.21875 8.296875 
Q 40.140625 3.328125 35.546875 0.953125 
Q 30.953125 -1.421875 24.3125 -1.421875 
Q 15.921875 -1.421875 10.953125 3.296875 
Q 6 8.015625 6 15.921875 
Q 6 25.140625 12.171875 29.828125 
Q 18.359375 34.515625 30.609375 34.515625 
L 43.21875 34.515625 
L 43.21875 35.40625 
Q 43.21875 41.609375 39.140625 45 
Q 35.0625 48.390625 27.6875 48.390625 
Q 23 48.390625 18.546875 47.265625 
Q 14.109375 46.140625 10.015625 43.890625 
L 10.015625 52.203125 
Q 14.9375 54.109375 19.578125 55.046875 
Q 24.21875 56 28.609375 56 
Q 40.484375 56 46.34375 49.84375 
Q 52.203125 43.703125 52.203125 31.203125 
z
" id="DejaVuSans-61"/>
      <path d="M 44.28125 53.078125 
L 44.28125 44.578125 
Q 40.484375 46.53125 36.375 47.5 
Q 32.28125 48.484375 27.875 48.484375 
Q 21.1875 48.484375 17.84375 46.4375 
Q 14.5 44.390625 14.5 40.28125 
Q 14.5 37.15625 16.890625 35.375 
Q 19.28125 33.59375 26.515625 31.984375 
L 29.59375 31.296875 
Q 39.15625 29.25 43.1875 25.515625 
Q 47.21875 21.78125 47.21875 15.09375 
Q 47.21875 7.46875 41.1875 3.015625 
Q 35.15625 -1.421875 24.609375 -1.421875 
Q 20.21875 -1.421875 15.453125 -0.5625 
Q 10.6875 0.296875 5.421875 2 
L 5.421875 11.28125 
Q 10.40625 8.6875 15.234375 7.390625 
Q 20.0625 6.109375 24.8125 6.109375 
Q 31.15625 6.109375 34.5625 8.28125 
Q 37.984375 10.453125 37.984375 14.40625 
Q 37.984375 18.0625 35.515625 20.015625 
Q 33.0625 21.96875 24.703125 23.78125 
L 21.578125 24.515625 
Q 13.234375 26.265625 9.515625 29.90625 
Q 5.8125 33.546875 5.8125 39.890625 
Q 5.8125 47.609375 11.28125 51.796875 
Q 16.75 56 26.8125 56 
Q 31.78125 56 36.171875 55.265625 
Q 40.578125 54.546875 44.28125 53.078125 
z
" id="DejaVuSans-73"/>
      <path d="M 25.390625 72.90625 
L 33.6875 72.90625 
L 8.296875 -9.28125 
L 0 -9.28125 
z
" id="DejaVuSans-2f"/>
      <path d="M 45.40625 46.390625 
L 45.40625 75.984375 
L 54.390625 75.984375 
L 54.390625 0 
L 45.40625 0 
L 45.40625 8.203125 
Q 42.578125 3.328125 38.25 0.953125 
Q 33.9375 -1.421875 27.875 -1.421875 
Q 17.96875 -1.421875 11.734375 6.484375 
Q 5.515625 14.40625 5.515625 27.296875 
Q 5.515625 40.1875 11.734375 48.09375 
Q 17.96875 56 27.875 56 
Q 33.9375 56 38.25 53.625 
Q 42.578125 51.265625 45.40625 46.390625 
z
M 14.796875 27.296875 
Q 14.796875 17.390625 18.875 11.75 
Q 22.953125 6.109375 30.078125 6.109375 
Q 37.203125 6.109375 41.296875 11.75 
Q 45.40625 17.390625 45.40625 27.296875 
Q 45.40625 37.203125 41.296875 42.84375 
Q 37.203125 48.484375 30.078125 48.484375 
Q 22.953125 48.484375 18.875 42.84375 
Q 14.796875 37.203125 14.796875 27.296875 
z
" id="DejaVuSans-64"/>
      <path d="M 9.421875 54.6875 
L 18.40625 54.6875 
L 18.40625 0 
L 9.421875 0 
z
M 9.421875 75.984375 
L 18.40625 75.984375 
L 18.40625 64.59375 
L 9.421875 64.59375 
z
" id="DejaVuSans-69"/>
      <path d="M 52 44.1875 
Q 55.375 50.25 60.0625 53.125 
Q 64.75 56 71.09375 56 
Q 79.640625 56 84.28125 50.015625 
Q 88.921875 44.046875 88.921875 33.015625 
L 88.921875 0 
L 79.890625 0 
L 79.890625 32.71875 
Q 79.890625 40.578125 77.09375 44.375 
Q 74.3125 48.1875 68.609375 48.1875 
Q 61.625 48.1875 57.5625 43.546875 
Q 53.515625 38.921875 53.515625 30.90625 
L 53.515625 0 
L 44.484375 0 
L 44.484375 32.71875 
Q 44.484375 40.625 41.703125 44.40625 
Q 38.921875 48.1875 33.109375 48.1875 
Q 26.21875 48.1875 22.15625 43.53125 
Q 18.109375 38.875 18.109375 30.90625 
L 18.109375 0 
L 9.078125 0 
L 9.078125 54.6875 
L 18.109375 54.6875 
L 18.109375 46.1875 
Q 21.1875 51.21875 25.484375 53.609375 
Q 29.78125 56 35.6875 56 
Q 41.65625 56 45.828125 52.96875 
Q 50 49.953125 52 44.1875 
z
" id="DejaVuSans-6d"/>
      <path d="M 54.890625 33.015625 
L 54.890625 0 
L 45.90625 0 
L 45.90625 32.71875 
Q 45.90625 40.484375 42.875 44.328125 
Q 39.84375 48.1875 33.796875 48.1875 
Q 26.515625 48.1875 22.3125 43.546875 
Q 18.109375 38.921875 18.109375 30.90625 
L 18.109375 0 
L 9.078125 0 
L 9.078125 54.6875 
L 18.109375 54.6875 
L 18.109375 46.1875 
Q 21.34375 51.125 25.703125 53.5625 
Q 30.078125 56 35.796875 56 
Q 45.21875 56 50.046875 50.171875 
Q 54.890625 44.34375 54.890625 33.015625 
z
" id="DejaVuSans-6e"/>
      <path d="M 8.015625 75.875 
L 15.828125 75.875 
Q 23.140625 64.359375 26.78125 53.3125 
Q 30.421875 42.28125 30.421875 31.390625 
Q 30.421875 20.453125 26.78125 9.375 
Q 23.140625 -1.703125 15.828125 -13.1875 
L 8.015625 -13.1875 
Q 14.5 -2 17.703125 9.0625 
Q 20.90625 20.125 20.90625 31.390625 
Q 20.90625 42.671875 17.703125 53.65625 
Q 14.5 64.65625 8.015625 75.875 
z
" id="DejaVuSans-29"/>
     </defs>
     <g transform="translate(107.211219 338.153594)scale(0.17 -0.17)">
      <use xlink:href="#DejaVuSans-6c"/>
      <use x="27.783203" xlink:href="#DejaVuSans-6f"/>
      <use x="88.964844" xlink:href="#DejaVuSans-67"/>
      <use x="152.441406" xlink:href="#DejaVuSans-31"/>
      <use x="216.064453" xlink:href="#DejaVuSans-30"/>
      <use x="279.6875" xlink:href="#DejaVuSans-28"/>
      <use x="318.701172" xlink:href="#DejaVuSans-23"/>
      <use x="402.490234" xlink:href="#DejaVuSans-20"/>
      <use x="434.277344" xlink:href="#DejaVuSans-66"/>
      <use x="469.404297" xlink:href="#DejaVuSans-2d"/>
      <use x="505.488281" xlink:href="#DejaVuSans-65"/>
      <use x="567.011719" xlink:href="#DejaVuSans-76"/>
      <use x="626.191406" xlink:href="#DejaVuSans-61"/>
      <use x="687.470703" xlink:href="#DejaVuSans-6c"/>
      <use x="715.253906" xlink:href="#DejaVuSans-73"/>
      <use x="767.353516" xlink:href="#DejaVuSans-20"/>
      <use x="799.140625" xlink:href="#DejaVuSans-2f"/>
      <use x="832.832031" xlink:href="#DejaVuSans-20"/>
      <use x="864.619141" xlink:href="#DejaVuSans-64"/>
      <use x="928.095703" xlink:href="#DejaVuSans-69"/>
      <use x="955.878906" xlink:href="#DejaVuSans-6d"/>
      <use x="1053.291016" xlink:href="#DejaVuSans-65"/>
      <use x="1114.814453" xlink:href="#DejaVuSans-6e"/>
      <use x="1178.193359" xlink:href="#DejaVuSans-73"/>
      <use x="1230.292969" xlink:href="#DejaVuSans-69"/>
      <use x="1258.076172" xlink:href="#DejaVuSans-6f"/>
      <use x="1319.257812" xlink:href="#DejaVuSans-6e"/>
      <use x="1382.636719" xlink:href="#DejaVuSans-29"/>
     </g>
    </g>
   </g>
   <g id="matplotlib.axis_2">
    <g id="ytick_1">
     <g id="line2d_11">
      <path clip-path="url(#p8e2e060cad)" d="M 56.12 294.88 
L 399.984 294.88 
" style="fill:none;stroke:#b0b0b0;stroke-linecap:square;stroke-width:0.8;"/>
     </g>
     <g id="line2d_12">
      <defs>
       <path d="M 0 0 
L -3.5 0 
" id="m4b700245ff" style="stroke:#000000;stroke-width:0.8;"/>
      </defs>
      <g>
       <use style="stroke:#000000;stroke-width:0.8;" x="56.12" xlink:href="#m4b700245ff" y="294.88"/>
      </g>
     </g>
     <g id="text_7">
      <!-- 0.0 -->
      <defs>
       <path d="M 10.6875 12.40625 
L 21 12.40625 
L 21 0 
L 10.6875 0 
z
" id="DejaVuSans-2e"/>
      </defs>
      <g transform="translate(23.675 300.95875)scale(0.16 -0.16)">
       <use xlink:href="#DejaVuSans-30"/>
       <use x="63.623047" xlink:href="#DejaVuSans-2e"/>
       <use x="95.410156" xlink:href="#DejaVuSans-30"/>
      </g>
     </g>
    </g>
    <g id="ytick_2">
     <g id="line2d_13">
      <path clip-path="url(#p8e2e060cad)" d="M 56.12 241.406733 
L 399.984 241.406733 
" style="fill:none;stroke:#b0b0b0;stroke-linecap:square;stroke-width:0.8;"/>
     </g>
     <g id="line2d_14">
      <g>
       <use style="stroke:#000000;stroke-width:0.8;" x="56.12" xlink:href="#m4b700245ff" y="241.406733"/>
      </g>
     </g>
     <g id="text_8">
      <!-- 0.2 -->
      <g transform="translate(23.675 247.485483)scale(0.16 -0.16)">
       <use xlink:href="#DejaVuSans-30"/>
       <use x="63.623047" xlink:href="#DejaVuSans-2e"/>
       <use x="95.410156" xlink:href="#DejaVuSans-32"/>
      </g>
     </g>
    </g>
    <g id="ytick_3">
     <g id="line2d_15">
      <path clip-path="url(#p8e2e060cad)" d="M 56.12 187.933465 
L 399.984 187.933465 
" style="fill:none;stroke:#b0b0b0;stroke-linecap:square;stroke-width:0.8;"/>
     </g>
     <g id="line2d_16">
      <g>
       <use style="stroke:#000000;stroke-width:0.8;" x="56.12" xlink:href="#m4b700245ff" y="187.933465"/>
      </g>
     </g>
     <g id="text_9">
      <!-- 0.4 -->
      <g transform="translate(23.675 194.012215)scale(0.16 -0.16)">
       <use xlink:href="#DejaVuSans-30"/>
       <use x="63.623047" xlink:href="#DejaVuSans-2e"/>
       <use x="95.410156" xlink:href="#DejaVuSans-34"/>
      </g>
     </g>
    </g>
    <g id="ytick_4">
     <g id="line2d_17">
      <path clip-path="url(#p8e2e060cad)" d="M 56.12 134.460198 
L 399.984 134.460198 
" style="fill:none;stroke:#b0b0b0;stroke-linecap:square;stroke-width:0.8;"/>
     </g>
     <g id="line2d_18">
      <g>
       <use style="stroke:#000000;stroke-width:0.8;" x="56.12" xlink:href="#m4b700245ff" y="134.460198"/>
      </g>
     </g>
     <g id="text_10">
      <!-- 0.6 -->
      <g transform="translate(23.675 140.538948)scale(0.16 -0.16)">
       <use xlink:href="#DejaVuSans-30"/>
       <use x="63.623047" xlink:href="#DejaVuSans-2e"/>
       <use x="95.410156" xlink:href="#DejaVuSans-36"/>
      </g>
     </g>
    </g>
    <g id="ytick_5">
     <g id="line2d_19">
      <path clip-path="url(#p8e2e060cad)" d="M 56.12 80.986931 
L 399.984 80.986931 
" style="fill:none;stroke:#b0b0b0;stroke-linecap:square;stroke-width:0.8;"/>
     </g>
     <g id="line2d_20">
      <g>
       <use style="stroke:#000000;stroke-width:0.8;" x="56.12" xlink:href="#m4b700245ff" y="80.986931"/>
      </g>
     </g>
     <g id="text_11">
      <!-- 0.8 -->
      <g transform="translate(23.675 87.065681)scale(0.16 -0.16)">
       <use xlink:href="#DejaVuSans-30"/>
       <use x="63.623047" xlink:href="#DejaVuSans-2e"/>
       <use x="95.410156" xlink:href="#DejaVuSans-38"/>
      </g>
     </g>
    </g>
    <g id="ytick_6">
     <g id="line2d_21">
      <path clip-path="url(#p8e2e060cad)" d="M 56.12 27.513663 
L 399.984 27.513663 
" style="fill:none;stroke:#b0b0b0;stroke-linecap:square;stroke-width:0.8;"/>
     </g>
     <g id="line2d_22">
      <g>
       <use style="stroke:#000000;stroke-width:0.8;" x="56.12" xlink:href="#m4b700245ff" y="27.513663"/>
      </g>
     </g>
     <g id="text_12">
      <!-- 1.0 -->
      <g transform="translate(23.675 33.592413)scale(0.16 -0.16)">
       <use xlink:href="#DejaVuSans-31"/>
       <use x="63.623047" xlink:href="#DejaVuSans-2e"/>
       <use x="95.410156" xlink:href="#DejaVuSans-30"/>
      </g>
     </g>
    </g>
    <g id="text_13">
     <!-- Fraction of function,target pairs -->
     <defs>
      <path d="M 9.8125 72.90625 
L 51.703125 72.90625 
L 51.703125 64.59375 
L 19.671875 64.59375 
L 19.671875 43.109375 
L 48.578125 43.109375 
L 48.578125 34.8125 
L 19.671875 34.8125 
L 19.671875 0 
L 9.8125 0 
z
" id="DejaVuSans-46"/>
      <path d="M 41.109375 46.296875 
Q 39.59375 47.171875 37.8125 47.578125 
Q 36.03125 48 33.890625 48 
Q 26.265625 48 22.1875 43.046875 
Q 18.109375 38.09375 18.109375 28.8125 
L 18.109375 0 
L 9.078125 0 
L 9.078125 54.6875 
L 18.109375 54.6875 
L 18.109375 46.1875 
Q 20.953125 51.171875 25.484375 53.578125 
Q 30.03125 56 36.53125 56 
Q 37.453125 56 38.578125 55.875 
Q 39.703125 55.765625 41.0625 55.515625 
z
" id="DejaVuSans-72"/>
      <path d="M 48.78125 52.59375 
L 48.78125 44.1875 
Q 44.96875 46.296875 41.140625 47.34375 
Q 37.3125 48.390625 33.40625 48.390625 
Q 24.65625 48.390625 19.8125 42.84375 
Q 14.984375 37.3125 14.984375 27.296875 
Q 14.984375 17.28125 19.8125 11.734375 
Q 24.65625 6.203125 33.40625 6.203125 
Q 37.3125 6.203125 41.140625 7.25 
Q 44.96875 8.296875 48.78125 10.40625 
L 48.78125 2.09375 
Q 45.015625 0.34375 40.984375 -0.53125 
Q 36.96875 -1.421875 32.421875 -1.421875 
Q 20.0625 -1.421875 12.78125 6.34375 
Q 5.515625 14.109375 5.515625 27.296875 
Q 5.515625 40.671875 12.859375 48.328125 
Q 20.21875 56 33.015625 56 
Q 37.15625 56 41.109375 55.140625 
Q 45.0625 54.296875 48.78125 52.59375 
z
" id="DejaVuSans-63"/>
      <path d="M 18.3125 70.21875 
L 18.3125 54.6875 
L 36.8125 54.6875 
L 36.8125 47.703125 
L 18.3125 47.703125 
L 18.3125 18.015625 
Q 18.3125 11.328125 20.140625 9.421875 
Q 21.96875 7.515625 27.59375 7.515625 
L 36.8125 7.515625 
L 36.8125 0 
L 27.59375 0 
Q 17.1875 0 13.234375 3.875 
Q 9.28125 7.765625 9.28125 18.015625 
L 9.28125 47.703125 
L 2.6875 47.703125 
L 2.6875 54.6875 
L 9.28125 54.6875 
L 9.28125 70.21875 
z
" id="DejaVuSans-74"/>
      <path d="M 8.5 21.578125 
L 8.5 54.6875 
L 17.484375 54.6875 
L 17.484375 21.921875 
Q 17.484375 14.15625 20.5 10.265625 
Q 23.53125 6.390625 29.59375 6.390625 
Q 36.859375 6.390625 41.078125 11.03125 
Q 45.3125 15.671875 45.3125 23.6875 
L 45.3125 54.6875 
L 54.296875 54.6875 
L 54.296875 0 
L 45.3125 0 
L 45.3125 8.40625 
Q 42.046875 3.421875 37.71875 1 
Q 33.40625 -1.421875 27.6875 -1.421875 
Q 18.265625 -1.421875 13.375 4.4375 
Q 8.5 10.296875 8.5 21.578125 
z
M 31.109375 56 
z
" id="DejaVuSans-75"/>
      <path d="M 11.71875 12.40625 
L 22.015625 12.40625 
L 22.015625 4 
L 14.015625 -11.625 
L 7.71875 -11.625 
L 11.71875 4 
z
" id="DejaVuSans-2c"/>
      <path d="M 18.109375 8.203125 
L 18.109375 -20.796875 
L 9.078125 -20.796875 
L 9.078125 54.6875 
L 18.109375 54.6875 
L 18.109375 46.390625 
Q 20.953125 51.265625 25.265625 53.625 
Q 29.59375 56 35.59375 56 
Q 45.5625 56 51.78125 48.09375 
Q 58.015625 40.1875 58.015625 27.296875 
Q 58.015625 14.40625 51.78125 6.484375 
Q 45.5625 -1.421875 35.59375 -1.421875 
Q 29.59375 -1.421875 25.265625 0.953125 
Q 20.953125 3.328125 18.109375 8.203125 
z
M 48.6875 27.296875 
Q 48.6875 37.203125 44.609375 42.84375 
Q 40.53125 48.484375 33.40625 48.484375 
Q 26.265625 48.484375 22.1875 42.84375 
Q 18.109375 37.203125 18.109375 27.296875 
Q 18.109375 17.390625 22.1875 11.75 
Q 26.265625 6.109375 33.40625 6.109375 
Q 40.53125 6.109375 44.609375 11.75 
Q 48.6875 17.390625 48.6875 27.296875 
z
" id="DejaVuSans-70"/>
     </defs>
     <g transform="translate(16.139531 294.999375)rotate(-90)scale(0.17 -0.17)">
      <use xlink:href="#DejaVuSans-46"/>
      <use x="57.410156" xlink:href="#DejaVuSans-72"/>
      <use x="98.523438" xlink:href="#DejaVuSans-61"/>
      <use x="159.802734" xlink:href="#DejaVuSans-63"/>
      <use x="214.783203" xlink:href="#DejaVuSans-74"/>
      <use x="253.992188" xlink:href="#DejaVuSans-69"/>
      <use x="281.775391" xlink:href="#DejaVuSans-6f"/>
      <use x="342.957031" xlink:href="#DejaVuSans-6e"/>
      <use x="406.335938" xlink:href="#DejaVuSans-20"/>
      <use x="438.123047" xlink:href="#DejaVuSans-6f"/>
      <use x="499.304688" xlink:href="#DejaVuSans-66"/>
      <use x="534.509766" xlink:href="#DejaVuSans-20"/>
      <use x="566.296875" xlink:href="#DejaVuSans-66"/>
      <use x="601.501953" xlink:href="#DejaVuSans-75"/>
      <use x="664.880859" xlink:href="#DejaVuSans-6e"/>
      <use x="728.259766" xlink:href="#DejaVuSans-63"/>
      <use x="783.240234" xlink:href="#DejaVuSans-74"/>
      <use x="822.449219" xlink:href="#DejaVuSans-69"/>
      <use x="850.232422" xlink:href="#DejaVuSans-6f"/>
      <use x="911.414062" xlink:href="#DejaVuSans-6e"/>
      <use x="974.792969" xlink:href="#DejaVuSans-2c"/>
      <use x="1006.580078" xlink:href="#DejaVuSans-74"/>
      <use x="1045.789062" xlink:href="#DejaVuSans-61"/>
      <use x="1107.068359" xlink:href="#DejaVuSans-72"/>
      <use x="1148.166016" xlink:href="#DejaVuSans-67"/>
      <use x="1211.642578" xlink:href="#DejaVuSans-65"/>
      <use x="1273.166016" xlink:href="#DejaVuSans-74"/>
      <use x="1312.375" xlink:href="#DejaVuSans-20"/>
      <use x="1344.162109" xlink:href="#DejaVuSans-70"/>
      <use x="1407.638672" xlink:href="#DejaVuSans-61"/>
      <use x="1468.917969" xlink:href="#DejaVuSans-69"/>
      <use x="1496.701172" xlink:href="#DejaVuSans-72"/>
      <use x="1537.814453" xlink:href="#DejaVuSans-73"/>
     </g>
    </g>
   </g>
   <g id="line2d_23">
    <defs>
     <path d="M 0 1.5 
C 0.397805 1.5 0.77937 1.341951 1.06066 1.06066 
C 1.341951 0.77937 1.5 0.397805 1.5 0 
C 1.5 -0.397805 1.341951 -0.77937 1.06066 -1.06066 
C 0.77937 -1.341951 0.397805 -1.5 0 -1.5 
C -0.397805 -1.5 -0.77937 -1.341951 -1.06066 -1.06066 
C -1.341951 -0.77937 -1.5 -0.397805 -1.5 0 
C -1.5 0.397805 -1.341951 0.77937 -1.06066 1.06066 
C -0.77937 1.341951 -0.397805 1.5 0 1.5 
z
" id="m9ba33e4c45" style="stroke:#00bfbf;"/>
    </defs>
    <g>
     <use style="fill:#00bfbf;stroke:#00bfbf;" x="294.453523" xlink:href="#m9ba33e4c45" y="27.513663"/>
     <use style="fill:#00bfbf;stroke:#00bfbf;" x="294.453523" xlink:href="#m9ba33e4c45" y="27.513663"/>
    </g>
   </g>
   <g id="line2d_24">
    <path d="M 56.12 294.88 
L 56.12 281.249559 
L 68.045504 281.249559 
L 68.045504 277.055578 
L 75.021477 277.055578 
L 75.021477 274.434339 
L 79.971009 274.434339 
L 79.971009 271.8131 
L 83.810164 271.8131 
L 83.810164 269.716109 
L 86.946982 269.716109 
L 86.946982 262.376641 
L 89.599124 262.376641 
L 89.599124 261.852394 
L 93.922955 261.852394 
L 93.922955 260.803898 
L 97.375467 260.803898 
L 97.375467 259.755403 
L 101.524628 259.755403 
L 101.524628 259.231155 
L 103.822018 259.231155 
L 103.822018 258.706907 
L 117.773963 258.706907 
L 117.773963 256.609917 
L 118.704183 256.609917 
L 118.704183 256.085669 
L 119.151088 256.085669 
L 119.151088 255.561421 
L 120.01151 255.561421 
L 120.01151 255.037173 
L 121.226476 255.037173 
L 121.226476 253.988678 
L 132.55522 253.988678 
L 132.55522 253.46443 
L 132.756449 253.46443 
L 132.756449 252.940182 
L 133.728734 252.940182 
L 133.728734 252.415935 
L 134.102767 252.415935 
L 134.102767 251.891687 
L 139.997117 251.891687 
L 139.997117 251.367439 
L 143.437686 251.367439 
L 143.437686 250.318944 
L 143.651414 250.318944 
L 143.651414 249.794696 
L 151.790783 249.794696 
L 151.790783 247.697705 
L 155.840397 247.697705 
L 155.840397 246.64921 
L 156.707196 246.64921 
L 156.707196 245.076467 
L 159.794217 245.076467 
L 159.794217 244.552219 
L 163.24673 244.552219 
L 163.24673 243.503724 
L 166.034344 243.503724 
L 166.034344 242.979476 
L 166.178318 242.979476 
L 166.178318 242.455228 
L 167.180827 242.455228 
L 167.180827 241.406733 
L 168.879547 241.406733 
L 168.879547 240.358237 
L 170.492588 240.358237 
L 170.492588 239.83399 
L 174.138756 239.83399 
L 174.138756 237.212751 
L 174.442958 237.212751 
L 174.442958 236.688503 
L 180.470965 236.688503 
L 180.470965 235.640008 
L 182.869574 235.640008 
L 182.869574 234.067265 
L 183.759132 234.067265 
L 183.759132 233.543017 
L 188.610335 233.543017 
L 188.610335 233.018769 
L 190.243055 233.018769 
L 190.243055 232.494521 
L 193.154193 232.494521 
L 193.154193 231.970274 
L 196.701549 231.970274 
L 196.701549 230.397531 
L 197.219028 230.397531 
L 197.219028 228.824787 
L 206.319237 228.824787 
L 206.319237 227.776292 
L 208.460869 227.776292 
L 208.460869 227.252044 
L 212.410666 227.252044 
L 212.410666 226.727797 
L 213.371064 226.727797 
L 213.371064 225.679301 
L 213.614848 225.679301 
L 213.614848 225.155053 
L 214.076354 225.155053 
L 214.076354 223.58231 
L 215.179531 223.58231 
L 215.179531 222.533815 
L 216.27245 222.533815 
L 216.27245 222.009567 
L 217.283901 222.009567 
L 217.283901 221.485319 
L 217.758158 221.485319 
L 217.758158 220.961072 
L 217.8708 220.961072 
L 217.950203 219.912576 
L 218.006695 219.912576 
L 218.006695 219.388328 
L 218.489139 219.388328 
L 218.489139 218.864081 
L 218.727409 218.864081 
L 218.727409 217.815585 
L 219.639828 217.815585 
L 219.64111 216.242842 
L 220.871834 216.242842 
L 220.871834 215.718594 
L 221.27298 215.718594 
L 221.375301 214.670099 
L 221.62847 214.670099 
L 221.698013 212.573108 
L 222.231227 212.573108 
L 222.291786 210.476117 
L 222.410086 210.476117 
L 222.410086 209.95187 
L 222.567646 209.95187 
L 222.567646 209.427622 
L 223.026583 209.427622 
L 223.026583 208.379126 
L 223.15564 208.379126 
L 223.236982 205.757888 
L 223.366541 205.757888 
L 223.462304 203.660897 
L 223.85116 203.660897 
L 223.876239 202.612401 
L 224.023964 202.612401 
L 224.023964 200.515411 
L 224.153671 200.515411 
L 224.257913 199.466915 
L 224.611145 199.466915 
L 224.611145 195.272933 
L 224.767002 195.272933 
L 224.767002 194.224438 
L 224.880847 194.224438 
L 224.880847 193.175943 
L 225.168719 193.175943 
L 225.168719 192.651695 
L 225.357379 192.651695 
L 225.357379 192.127447 
L 225.485665 192.127447 
L 225.513942 190.554704 
L 225.729504 190.554704 
L 225.729504 190.030456 
L 225.869345 190.030456 
L 225.956616 187.933465 
L 226.339607 187.933465 
L 226.339607 187.409218 
L 226.79228 187.409218 
L 226.868266 184.263731 
L 226.981619 184.263731 
L 226.981619 183.739484 
L 227.127455 183.739484 
L 227.127455 182.690988 
L 227.345147 182.690988 
L 227.362346 181.642493 
L 227.617479 181.642493 
L 227.617479 181.118245 
L 227.963999 181.118245 
L 228.060164 179.021254 
L 228.105694 179.021254 
L 228.105694 178.497006 
L 228.218995 178.497006 
L 228.308327 174.303025 
L 228.438001 174.303025 
L 228.524675 172.206034 
L 228.675502 172.206034 
L 228.722461 171.157538 
L 228.866322 171.157538 
L 228.866322 166.963557 
L 229.227777 166.963557 
L 229.322263 163.293823 
L 229.569559 163.293823 
L 229.569559 162.769575 
L 229.775685 162.769575 
L 229.775685 161.721079 
L 230.090099 161.721079 
L 230.090099 161.196832 
L 230.212608 161.196832 
L 230.281829 157.00285 
L 230.338383 157.00285 
L 230.347332 154.905859 
L 230.519208 154.905859 
L 230.536914 152.808868 
L 230.674534 152.808868 
L 230.674534 151.236125 
L 230.97839 151.236125 
L 231.089483 149.663382 
L 231.108588 149.663382 
L 231.212957 147.566391 
L 231.48822 147.566391 
L 231.528105 145.993648 
L 231.635715 145.993648 
L 231.729961 142.323914 
L 231.784489 142.323914 
L 231.835058 140.226923 
L 231.915661 140.226923 
L 231.990259 139.178427 
L 232.035237 139.178427 
L 232.035237 138.65418 
L 232.197305 138.65418 
L 232.223243 137.605684 
L 232.433619 137.605684 
L 232.470156 134.460198 
L 232.694973 134.460198 
L 232.762686 130.790464 
L 232.897318 130.790464 
L 232.986688 127.12073 
L 233.027961 127.12073 
L 233.094379 125.547987 
L 233.415768 125.547987 
L 233.456026 123.975244 
L 233.58251 123.975244 
L 233.666129 119.781262 
L 233.764021 119.781262 
L 233.839464 116.635776 
L 234.120846 116.635776 
L 234.162246 113.490289 
L 234.328493 113.490289 
L 234.358499 111.393298 
L 234.543374 111.393298 
L 234.572469 108.77206 
L 234.732685 108.77206 
L 234.789659 106.150821 
L 234.908853 106.150821 
L 234.98891 103.529583 
L 235.056562 103.529583 
L 235.109867 100.384096 
L 235.211834 100.384096 
L 235.305464 96.714362 
L 235.495291 96.714362 
L 235.603121 93.044628 
L 235.835793 93.044628 
L 235.931072 91.471885 
L 236.036213 91.471885 
L 236.095443 86.753656 
L 236.166742 86.753656 
L 236.242633 83.608169 
L 236.329374 83.608169 
L 236.335692 82.559674 
L 236.475066 82.559674 
L 236.504923 80.986931 
L 236.609016 80.986931 
L 236.609016 80.462683 
L 236.739559 80.462683 
L 236.836112 78.365692 
L 236.87477 78.365692 
L 236.959327 75.220206 
L 237.119312 75.220206 
L 237.228071 72.598967 
L 237.237295 72.598967 
L 237.32147 69.977729 
L 237.477229 69.977729 
L 237.580592 63.162508 
L 237.664906 63.162508 
L 237.684236 61.589765 
L 237.818938 61.589765 
L 237.922046 57.920031 
L 238.073803 57.920031 
L 238.119421 55.298792 
L 238.333603 55.298792 
L 238.430671 54.250297 
L 238.551988 54.250297 
L 238.551988 53.726049 
L 238.705087 53.726049 
L 238.705087 53.201802 
L 238.856836 53.201802 
L 238.856836 51.629058 
L 239.0625 51.629058 
L 239.118805 50.580563 
L 239.270242 50.580563 
L 239.33363 46.910829 
L 239.44471 46.910829 
L 239.44471 45.338086 
L 239.89385 45.338086 
L 239.89385 44.28959 
L 282.394003 44.28959 
L 282.487075 43.241095 
L 282.574323 43.241095 
L 282.653957 41.144104 
L 282.700498 41.144104 
L 282.799177 38.522865 
L 282.865528 38.522865 
L 282.954506 34.853131 
L 283.046049 34.853131 
L 283.143572 30.134902 
L 283.205232 30.134902 
L 283.232877 29.086407 
L 294.235586 29.086407 
L 294.246914 28.037911 
L 294.453523 28.037911 
L 294.453523 27.513663 
L 333.429677 27.513663 
L 333.429677 27.513663 
" style="fill:none;stroke:#00bfbf;stroke-linecap:square;stroke-width:1.5;"/>
   </g>
   <g id="line2d_25">
    <defs>
     <path d="M -6 0 
L 6 0 
M 0 6 
L 0 -6 
" id="md850d84563" style="stroke:#00bfbf;stroke-width:1.5;"/>
    </defs>
    <g>
     <use style="fill-opacity:0;stroke:#00bfbf;stroke-width:1.5;" x="120.01151" xlink:href="#md850d84563" y="255.037173"/>
     <use style="fill-opacity:0;stroke:#00bfbf;stroke-width:1.5;" x="197.219028" xlink:href="#md850d84563" y="228.824787"/>
     <use style="fill-opacity:0;stroke:#00bfbf;stroke-width:1.5;" x="239.89385" xlink:href="#md850d84563" y="45.338086"/>
     <use style="fill-opacity:0;stroke:#00bfbf;stroke-width:1.5;" x="294.453523" xlink:href="#md850d84563" y="27.513663"/>
     <use style="fill-opacity:0;stroke:#00bfbf;stroke-width:1.5;" x="333.429677" xlink:href="#md850d84563" y="27.513663"/>
    </g>
   </g>
   <g id="line2d_26">
    <path style="fill:none;stroke:#00bfbf;stroke-linecap:square;stroke-width:1.5;"/>
    <g/>
   </g>
   <g id="line2d_27">
    <path clip-path="url(#p8e2e060cad)" d="M 281.888522 44.28959 
" style="fill:none;stroke:#00bfbf;stroke-linecap:square;stroke-width:1.5;"/>
    <defs>
     <path d="M -12 12 
L 12 -12 
M -12 -12 
L 12 12 
" id="m6d3482fd15" style="stroke:#00bfbf;stroke-width:3;"/>
    </defs>
    <g clip-path="url(#p8e2e060cad)">
     <use style="fill:#00bfbf;stroke:#00bfbf;stroke-width:3;" x="281.888522" xlink:href="#m6d3482fd15" y="44.28959"/>
    </g>
   </g>
   <g id="line2d_28">
    <defs>
     <path d="M 0 1.5 
C 0.397805 1.5 0.77937 1.341951 1.06066 1.06066 
C 1.341951 0.77937 1.5 0.397805 1.5 0 
C 1.5 -0.397805 1.341951 -0.77937 1.06066 -1.06066 
C 0.77937 -1.341951 0.397805 -1.5 0 -1.5 
C -0.397805 -1.5 -0.77937 -1.341951 -1.06066 -1.06066 
C -1.341951 -0.77937 -1.5 -0.397805 -1.5 0 
C -1.5 0.397805 -1.341951 0.77937 -1.06066 1.06066 
C -0.77937 1.341951 -0.397805 1.5 0 1.5 
z
" id="m26eae45c0e" style="stroke:#008000;"/>
    </defs>
    <g>
     <use style="fill:#008000;stroke:#008000;" x="312.89348" xlink:href="#m26eae45c0e" y="27.513663"/>
     <use style="fill:#008000;stroke:#008000;" x="312.89348" xlink:href="#m26eae45c0e" y="27.513663"/>
    </g>
   </g>
   <g id="line2d_29">
    <path d="M 49.144027 294.88 
L 49.144027 279.676816 
L 61.069532 279.676816 
L 61.069532 272.861596 
L 68.045504 272.861596 
L 68.045504 271.288853 
L 72.995036 271.288853 
L 72.995036 270.764605 
L 76.834191 270.764605 
L 76.834191 268.667614 
L 79.971009 268.667614 
L 79.971009 268.143366 
L 82.623151 268.143366 
L 82.623151 264.99788 
L 86.946982 264.99788 
L 86.946982 264.473632 
L 88.759695 264.473632 
L 88.759695 263.949385 
L 90.399494 263.949385 
L 90.399494 262.900889 
L 91.896513 262.900889 
L 91.896513 261.852394 
L 93.273637 261.852394 
L 93.273637 261.328146 
L 95.735668 261.328146 
L 95.735668 260.803898 
L 102.324999 260.803898 
L 102.324999 259.755403 
L 103.089785 259.755403 
L 103.089785 259.231155 
L 104.524355 259.231155 
L 104.524355 257.658412 
L 111.72821 257.658412 
L 111.72821 256.609917 
L 113.035537 256.609917 
L 113.035537 256.085669 
L 114.637146 256.085669 
L 114.637146 254.512926 
L 115.385301 254.512926 
L 115.385301 252.940182 
L 117.452368 252.940182 
L 117.452368 252.415935 
L 120.426105 252.415935 
L 120.426105 251.891687 
L 121.226476 251.891687 
L 121.226476 250.843192 
L 123.878618 250.843192 
L 123.878618 250.318944 
L 134.648999 250.318944 
L 134.648999 248.221953 
L 137.095092 248.221953 
L 137.095092 247.697705 
L 139.418374 247.697705 
L 139.418374 247.173458 
L 140.386678 247.173458 
L 140.386678 245.600714 
L 150.31781 245.600714 
L 150.31781 244.552219 
L 153.147534 244.552219 
L 153.147534 244.027971 
L 170.425513 244.027971 
L 170.425513 242.979476 
L 174.584272 242.979476 
L 174.584272 241.406733 
L 192.660975 241.406733 
L 192.660975 240.882485 
L 193.289165 240.882485 
L 193.289165 240.358237 
L 194.365898 240.358237 
L 194.365898 239.83399 
L 196.062332 239.83399 
L 196.109385 237.736999 
L 196.540275 237.736999 
L 196.540275 237.212751 
L 198.555074 237.212751 
L 198.555074 236.164255 
L 199.026076 236.164255 
L 199.026076 234.591512 
L 200.483861 234.591512 
L 200.483861 234.067265 
L 205.362318 234.067265 
L 205.362318 233.543017 
L 206.607907 233.543017 
L 206.607907 233.018769 
L 208.10523 233.018769 
L 208.10523 231.970274 
L 209.903229 231.970274 
L 209.903229 230.397531 
L 211.857926 230.397531 
L 211.879414 228.30054 
L 213.025488 228.30054 
L 213.085654 227.252044 
L 213.154336 227.252044 
L 213.212811 226.203549 
L 213.271089 226.203549 
L 213.271089 225.679301 
L 213.482692 225.679301 
L 213.482692 225.155053 
L 213.760441 225.155053 
L 213.760441 224.630806 
L 214.630779 224.630806 
L 214.630779 224.106558 
L 214.923374 224.106558 
L 214.923374 223.58231 
L 215.482077 223.58231 
L 215.586264 222.009567 
L 215.757447 222.009567 
L 215.757447 220.961072 
L 215.9227 220.961072 
L 215.962973 218.864081 
L 216.158748 218.864081 
L 216.158748 218.339833 
L 216.604016 218.339833 
L 216.604016 217.815585 
L 216.989253 217.815585 
L 216.989253 217.291338 
L 217.403088 217.291338 
L 217.403088 216.76709 
L 217.787221 216.76709 
L 217.868905 215.718594 
L 217.942656 215.718594 
L 217.942656 215.194347 
L 218.164827 215.194347 
L 218.164827 214.670099 
L 218.370366 214.670099 
L 218.397035 213.621604 
L 218.559829 213.621604 
L 218.647899 210.476117 
L 218.736421 210.476117 
L 218.838826 209.427622 
L 219.072776 209.427622 
L 219.098379 208.379126 
L 219.481375 208.379126 
L 219.544244 206.806383 
L 219.625716 206.806383 
L 219.625716 206.282136 
L 220.011503 206.282136 
L 220.011503 205.23364 
L 220.206991 205.23364 
L 220.206991 204.709392 
L 221.000668 204.709392 
L 221.000668 203.660897 
L 221.486617 203.660897 
L 221.486617 203.136649 
L 221.627328 203.136649 
L 221.731354 201.039658 
L 221.748 201.039658 
L 221.85055 199.466915 
L 221.864077 199.466915 
L 221.864077 198.942667 
L 222.053833 198.942667 
L 222.053833 198.41842 
L 222.168609 198.41842 
L 222.1841 195.797181 
L 222.544555 195.797181 
L 222.5799 193.70019 
L 222.671173 193.70019 
L 222.671173 193.175943 
L 223.011129 193.175943 
L 223.032199 192.127447 
L 223.172009 192.127447 
L 223.279585 190.554704 
L 223.330708 190.554704 
L 223.330708 190.030456 
L 223.652584 190.030456 
L 223.699237 187.933465 
L 223.863203 187.933465 
L 223.949262 186.360722 
L 224.065326 186.360722 
L 224.065326 185.836474 
L 224.467751 185.836474 
L 224.572681 182.690988 
L 224.698649 182.690988 
L 224.698649 182.16674 
L 224.862241 182.16674 
L 224.862241 181.118245 
L 225.053649 181.118245 
L 225.053649 180.593997 
L 225.171819 180.593997 
L 225.171819 180.06975 
L 225.289183 180.06975 
L 225.341429 178.497006 
L 225.534892 178.497006 
L 225.534892 177.448511 
L 225.652224 177.448511 
L 225.693764 176.400016 
L 225.824946 176.400016 
L 225.824946 175.875768 
L 225.942695 175.875768 
L 225.958097 174.303025 
L 226.397712 174.303025 
L 226.484648 172.730281 
L 226.540263 172.730281 
L 226.540263 172.206034 
L 226.658918 172.206034 
L 226.732664 169.584795 
L 226.801021 169.584795 
L 226.801585 168.012052 
L 227.043994 168.012052 
L 227.043994 167.487804 
L 227.187375 167.487804 
L 227.187375 166.963557 
L 227.585726 166.963557 
L 227.675451 164.866566 
L 227.714525 164.866566 
L 227.787619 162.769575 
L 228.006104 162.769575 
L 228.04968 161.196832 
L 228.254524 161.196832 
L 228.363506 159.624089 
L 228.38666 159.624089 
L 228.425693 157.527098 
L 228.6099 157.527098 
L 228.6099 157.00285 
L 228.831784 157.00285 
L 228.831784 156.478602 
L 229.201561 156.478602 
L 229.201561 155.954354 
L 229.33346 155.954354 
L 229.435353 154.905859 
L 229.473529 154.905859 
L 229.473529 154.381611 
L 229.637347 154.381611 
L 229.643083 153.333116 
L 230.047433 153.333116 
L 230.082413 152.28462 
L 230.188778 152.28462 
L 230.19063 151.236125 
L 230.379876 151.236125 
L 230.379876 150.18763 
L 230.581099 150.18763 
L 230.627655 149.139134 
L 230.759852 149.139134 
L 230.759852 148.614886 
L 230.932775 148.614886 
L 231.016825 144.945152 
L 231.065738 144.945152 
L 231.139505 143.372409 
L 231.2003 143.372409 
L 231.200737 142.323914 
L 231.315614 142.323914 
L 231.315614 140.751171 
L 231.465879 140.751171 
L 231.465879 140.226923 
L 231.712594 140.226923 
L 231.739696 137.605684 
L 231.98588 137.605684 
L 231.98588 137.081437 
L 232.351533 137.081437 
L 232.351533 136.032941 
L 232.56338 136.032941 
L 232.56338 135.508693 
L 232.687566 135.508693 
L 232.77783 133.411703 
L 233.013232 133.411703 
L 233.015197 131.838959 
L 233.142416 131.838959 
L 233.191875 129.741969 
L 233.696556 129.741969 
L 233.696556 129.217721 
L 233.818853 129.217721 
L 233.818853 128.693473 
L 233.973764 128.693473 
L 234.007918 127.12073 
L 234.138706 127.12073 
L 234.155996 126.072235 
L 234.369397 126.072235 
L 234.369397 125.547987 
L 234.87468 125.547987 
L 234.91589 124.499491 
L 235.31131 124.499491 
L 235.31131 122.926748 
L 236.851366 122.926748 
L 236.851366 122.4025 
L 237.899877 122.4025 
L 237.899877 121.878253 
L 275.35721 121.878253 
L 275.456479 119.257014 
L 275.505883 119.257014 
L 275.606019 115.063032 
L 275.628413 115.063032 
L 275.734993 111.917546 
L 275.747617 111.917546 
L 275.805801 108.247812 
L 275.861411 108.247812 
L 275.947132 104.05383 
L 275.977886 104.05383 
L 276.029493 99.859849 
L 276.091939 99.859849 
L 276.199782 96.190115 
L 276.204379 96.190115 
L 276.304478 90.947637 
L 276.321035 90.947637 
L 276.423107 83.608169 
L 276.459188 83.608169 
L 276.552565 81.511178 
L 276.579852 81.511178 
L 276.579852 79.938435 
L 287.07474 79.938435 
L 287.178907 76.792949 
L 287.188586 76.792949 
L 287.291046 71.550472 
L 287.323425 71.550472 
L 287.411597 64.735251 
L 287.44061 64.735251 
L 287.547067 58.444279 
L 287.56347 58.444279 
L 287.575342 56.347288 
L 287.724231 56.347288 
L 287.724231 55.82304 
L 294.023086 55.82304 
L 294.121016 52.153306 
L 294.136163 52.153306 
L 294.231606 46.910829 
L 294.267683 46.910829 
L 294.337041 43.765343 
L 294.409854 43.765343 
L 294.409854 43.241095 
L 298.980786 43.241095 
L 299.087493 39.047113 
L 299.108408 39.047113 
L 299.166354 36.425875 
L 302.720896 36.425875 
L 302.831978 33.804636 
L 302.84647 33.804636 
L 302.84647 33.280388 
L 305.928914 33.280388 
L 305.990686 31.183397 
L 308.513478 31.183397 
L 308.585585 29.086407 
L 310.786398 29.086407 
L 310.860337 28.037911 
L 312.89348 28.037911 
L 312.89348 27.513663 
L 333.429677 27.513663 
L 333.429677 27.513663 
" style="fill:none;stroke:#008000;stroke-linecap:square;stroke-width:1.5;"/>
   </g>
   <g id="line2d_30">
    <defs>
     <path d="M -0 6 
L 6 -6 
L -6 -6 
z
" id="ma8ea4a5ae4" style="stroke:#008000;stroke-linejoin:miter;stroke-width:1.5;"/>
    </defs>
    <g>
     <use style="fill-opacity:0;stroke:#008000;stroke-linejoin:miter;stroke-width:1.5;" x="123.878618" xlink:href="#ma8ea4a5ae4" y="250.318944"/>
     <use style="fill-opacity:0;stroke:#008000;stroke-linejoin:miter;stroke-width:1.5;" x="214.923374" xlink:href="#ma8ea4a5ae4" y="224.106558"/>
     <use style="fill-opacity:0;stroke:#008000;stroke-linejoin:miter;stroke-width:1.5;" x="275.35721" xlink:href="#ma8ea4a5ae4" y="121.354005"/>
     <use style="fill-opacity:0;stroke:#008000;stroke-linejoin:miter;stroke-width:1.5;" x="302.810621" xlink:href="#ma8ea4a5ae4" y="34.853131"/>
     <use style="fill-opacity:0;stroke:#008000;stroke-linejoin:miter;stroke-width:1.5;" x="312.89348" xlink:href="#ma8ea4a5ae4" y="27.513663"/>
     <use style="fill-opacity:0;stroke:#008000;stroke-linejoin:miter;stroke-width:1.5;" x="333.429677" xlink:href="#ma8ea4a5ae4" y="27.513663"/>
    </g>
   </g>
   <g id="line2d_31">
    <path style="fill:none;stroke:#008000;stroke-linecap:square;stroke-width:1.5;"/>
    <g/>
   </g>
   <g id="line2d_32">
    <path clip-path="url(#p8e2e060cad)" d="M 274.912549 121.878253 
" style="fill:none;stroke:#008000;stroke-linecap:square;stroke-width:1.5;"/>
    <defs>
     <path d="M -12 12 
L 12 -12 
M -12 -12 
L 12 12 
" id="m4910adb2f6" style="stroke:#008000;stroke-width:3;"/>
    </defs>
    <g clip-path="url(#p8e2e060cad)">
     <use style="fill:#008000;stroke:#008000;stroke-width:3;" x="274.912549" xlink:href="#m4910adb2f6" y="121.878253"/>
    </g>
   </g>
   <g id="line2d_33">
    <defs>
     <path d="M 0 1.5 
C 0.397805 1.5 0.77937 1.341951 1.06066 1.06066 
C 1.341951 0.77937 1.5 0.397805 1.5 0 
C 1.5 -0.397805 1.341951 -0.77937 1.06066 -1.06066 
C 0.77937 -1.341951 0.397805 -1.5 0 -1.5 
C -0.397805 -1.5 -0.77937 -1.341951 -1.06066 -1.06066 
C -1.341951 -0.77937 -1.5 -0.397805 -1.5 0 
C -1.5 0.397805 -1.341951 0.77937 -1.06066 1.06066 
C -0.77937 1.341951 -0.397805 1.5 0 1.5 
z
" id="meb5e429628" style="stroke:#0000ff;"/>
    </defs>
    <g>
     <use style="fill:#0000ff;stroke:#0000ff;" x="317.760602" xlink:href="#meb5e429628" y="27.513663"/>
     <use style="fill:#0000ff;stroke:#0000ff;" x="317.760602" xlink:href="#meb5e429628" y="27.513663"/>
    </g>
   </g>
   <g id="line2d_34">
    <path d="M 40.355341 294.88 
L 40.355341 268.667614 
L 52.280845 268.667614 
L 52.280845 267.619119 
L 59.256818 267.619119 
L 59.256818 266.046375 
L 71.182322 266.046375 
L 71.182322 263.425137 
L 76.131854 263.425137 
L 76.131854 262.900889 
L 78.158295 262.900889 
L 78.158295 261.852394 
L 79.971009 261.852394 
L 79.971009 259.231155 
L 97.685473 259.231155 
L 97.685473 258.18266 
L 99.436631 258.18266 
L 99.436631 257.658412 
L 103.386428 257.658412 
L 103.386428 255.561421 
L 105.066285 255.561421 
L 105.066285 253.988678 
L 110.214719 253.988678 
L 110.214719 253.46443 
L 111.362135 253.46443 
L 111.362135 252.940182 
L 127.780222 252.940182 
L 127.780222 252.415935 
L 129.312825 252.415935 
L 129.312825 251.891687 
L 139.272877 251.891687 
L 139.272877 250.843192 
L 142.957925 250.843192 
L 142.957925 249.794696 
L 145.271892 249.794696 
L 145.271892 249.270448 
L 165.547519 249.270448 
L 165.547519 248.746201 
L 168.751629 248.746201 
L 168.751629 246.124962 
L 173.666558 246.124962 
L 173.666558 245.600714 
L 174.870387 245.600714 
L 174.870387 244.027971 
L 183.372958 244.027971 
L 183.372958 242.979476 
L 185.573497 242.979476 
L 185.573497 242.455228 
L 194.677297 242.455228 
L 194.677297 241.93098 
L 199.309857 241.93098 
L 199.309857 241.406733 
L 204.446467 241.406733 
L 204.446467 240.882485 
L 206.069343 240.882485 
L 206.069343 240.358237 
L 207.119153 240.358237 
L 207.119153 238.785494 
L 208.659128 238.785494 
L 208.659128 238.261246 
L 209.285556 238.261246 
L 209.285556 237.736999 
L 209.40592 237.736999 
L 209.40592 236.688503 
L 209.669806 236.688503 
L 209.669806 236.164255 
L 210.007994 236.164255 
L 210.007994 235.640008 
L 210.582764 235.640008 
L 210.582764 235.11576 
L 211.500823 235.11576 
L 211.500823 234.591512 
L 211.922844 234.591512 
L 211.922844 234.067265 
L 212.476906 234.067265 
L 212.476906 233.543017 
L 213.44107 233.543017 
L 213.44107 233.018769 
L 213.599918 233.018769 
L 213.599918 232.494521 
L 213.77968 232.494521 
L 213.77968 231.970274 
L 214.969866 231.970274 
L 214.969866 231.446026 
L 215.517528 231.446026 
L 215.611132 229.873283 
L 215.911874 229.873283 
L 215.911874 228.30054 
L 216.109488 228.30054 
L 216.109488 227.776292 
L 216.226851 227.776292 
L 216.226851 227.252044 
L 216.370731 227.252044 
L 216.461052 226.203549 
L 216.747419 226.203549 
L 216.755306 223.58231 
L 217.273899 223.58231 
L 217.27743 222.009567 
L 217.525709 222.009567 
L 217.525709 219.912576 
L 217.708017 219.912576 
L 217.807013 217.815585 
L 217.846338 217.815585 
L 217.846338 216.76709 
L 217.970561 216.76709 
L 217.970561 215.718594 
L 218.140407 215.718594 
L 218.140407 214.670099 
L 218.254195 214.670099 
L 218.254195 214.145851 
L 218.381038 214.145851 
L 218.381038 213.621604 
L 218.822339 213.621604 
L 218.822339 213.097356 
L 219.204797 213.097356 
L 219.305506 211.524613 
L 219.457546 211.524613 
L 219.457546 211.000365 
L 219.969286 211.000365 
L 219.992418 209.95187 
L 220.538446 209.95187 
L 220.594825 208.379126 
L 220.858698 208.379126 
L 220.858698 207.854879 
L 221.224632 207.854879 
L 221.224632 206.806383 
L 221.347688 206.806383 
L 221.347688 206.282136 
L 222.03867 206.282136 
L 222.03867 205.757888 
L 222.27177 205.757888 
L 222.27177 205.23364 
L 222.918821 205.23364 
L 222.966658 204.185145 
L 223.255491 204.185145 
L 223.303645 203.136649 
L 223.519917 203.136649 
L 223.519917 202.088154 
L 223.838305 202.088154 
L 223.926488 200.515411 
L 224.128796 200.515411 
L 224.212754 198.942667 
L 224.423399 198.942667 
L 224.423399 198.41842 
L 224.840518 198.41842 
L 224.840518 197.369924 
L 224.998641 197.369924 
L 224.998641 196.845677 
L 225.288813 196.845677 
L 225.288813 196.321429 
L 225.530886 196.321429 
L 225.5338 194.224438 
L 226.027001 194.224438 
L 226.027001 193.70019 
L 226.354716 193.70019 
L 226.395981 192.651695 
L 226.511274 192.651695 
L 226.511274 192.127447 
L 226.728021 192.127447 
L 226.728021 191.603199 
L 227.047773 191.603199 
L 227.156144 190.554704 
L 227.323994 190.554704 
L 227.352848 186.360722 
L 227.543441 186.360722 
L 227.543441 185.836474 
L 227.724574 185.836474 
L 227.724574 185.312227 
L 228.100049 185.312227 
L 228.100049 184.787979 
L 228.284447 184.787979 
L 228.365874 183.215236 
L 228.475485 183.215236 
L 228.477634 181.642493 
L 228.70233 181.642493 
L 228.70233 181.118245 
L 228.904981 181.118245 
L 228.904981 180.593997 
L 229.199403 180.593997 
L 229.24877 179.545502 
L 229.361079 179.545502 
L 229.418413 177.972759 
L 229.539436 177.972759 
L 229.539436 177.448511 
L 229.699963 177.448511 
L 229.805681 175.35152 
L 229.854191 175.35152 
L 229.854191 174.303025 
L 230.017435 174.303025 
L 230.017435 173.254529 
L 230.244623 173.254529 
L 230.244623 172.730281 
L 230.35944 172.730281 
L 230.35944 172.206034 
L 230.492614 172.206034 
L 230.492614 171.157538 
L 230.635056 171.157538 
L 230.635056 170.633291 
L 230.80262 170.633291 
L 230.903394 169.060547 
L 231.511647 169.060547 
L 231.511647 168.5363 
L 231.878681 168.5363 
L 231.878681 168.012052 
L 232.450314 168.012052 
L 232.450314 167.487804 
L 232.656624 167.487804 
L 232.656624 166.963557 
L 233.032319 166.963557 
L 233.102121 165.915061 
L 233.986914 165.915061 
L 234.062718 164.342318 
L 234.473886 164.342318 
L 234.473886 163.81807 
L 235.568201 163.81807 
L 235.568201 163.293823 
L 235.828988 163.293823 
L 235.828988 162.769575 
L 266.758568 162.769575 
L 266.758568 162.245327 
L 266.917743 162.245327 
L 266.981927 160.148336 
L 267.039152 160.148336 
L 267.094073 158.051345 
L 267.152547 158.051345 
L 267.263365 154.905859 
L 267.30367 154.905859 
L 267.401418 152.808868 
L 267.418246 152.808868 
L 267.512459 146.517896 
L 267.567189 146.517896 
L 267.677074 144.420905 
L 267.728338 144.420905 
L 267.823585 141.799666 
L 267.860392 141.799666 
L 267.934142 139.178427 
L 267.985511 139.178427 
L 268.096202 134.984446 
L 268.201489 134.984446 
L 268.28363 131.838959 
L 268.32734 131.838959 
L 268.422738 130.266216 
L 268.47018 130.266216 
L 268.552486 129.217721 
L 268.660817 129.217721 
L 268.660817 128.693473 
L 268.887354 128.693473 
L 268.887354 128.169225 
L 278.52254 128.169225 
L 278.62529 126.596482 
L 278.700083 126.596482 
L 278.77226 124.499491 
L 278.812943 124.499491 
L 278.853332 118.208519 
L 278.964216 118.208519 
L 279.073173 112.966042 
L 279.093117 112.966042 
L 279.148244 110.344803 
L 279.205994 110.344803 
L 279.262492 107.199317 
L 279.334636 107.199317 
L 279.422625 104.578078 
L 285.328611 104.578078 
L 285.435955 101.432592 
L 285.442103 101.432592 
L 285.544281 98.811353 
L 285.558899 98.811353 
L 285.668533 94.617371 
L 285.673438 94.617371 
L 285.77318 87.277903 
L 285.816921 87.277903 
L 285.913211 84.656665 
L 285.938095 84.656665 
L 285.952914 81.511178 
L 290.217165 81.511178 
L 290.327797 76.792949 
L 290.351749 76.792949 
L 290.450463 71.026224 
L 290.468462 71.026224 
L 290.521227 68.404985 
L 290.585384 68.404985 
L 290.663937 66.832242 
L 294.002294 66.832242 
L 294.111946 62.638261 
L 294.116186 62.638261 
L 294.225849 59.492774 
L 294.245934 59.492774 
L 294.337434 57.395783 
L 294.367469 57.395783 
L 294.403378 55.82304 
L 297.15485 55.82304 
L 297.252712 53.201802 
L 297.269362 53.201802 
L 297.35596 47.435077 
L 297.407562 47.435077 
L 297.420882 46.386581 
L 299.776404 46.386581 
L 299.88159 43.241095 
L 299.888012 43.241095 
L 299.896355 42.192599 
L 302.0676 42.192599 
L 302.129657 40.095609 
L 302.230806 40.095609 
L 302.266153 39.047113 
L 304.092491 39.047113 
L 304.143898 37.47437 
L 304.252335 37.47437 
L 304.252335 36.950122 
L 305.903357 36.950122 
L 305.998413 34.853131 
L 306.015014 34.853131 
L 306.032772 33.804636 
L 307.525992 33.804636 
L 307.619218 31.707645 
L 307.637304 31.707645 
L 307.637304 31.183397 
L 308.984642 31.183397 
L 309.026032 30.134902 
L 310.39493 30.134902 
L 310.417139 28.562159 
L 312.838167 28.562159 
L 312.838167 28.037911 
L 317.760602 28.037911 
L 317.760602 27.513663 
L 333.429677 27.513663 
L 333.429677 27.513663 
" style="fill:none;stroke:#0000ff;stroke-linecap:square;stroke-width:1.5;"/>
   </g>
   <g id="line2d_35">
    <defs>
     <path d="M 0 -6 
L -1.347084 -1.854102 
L -5.706339 -1.854102 
L -2.179628 0.708204 
L -3.526712 4.854102 
L -0 2.291796 
L 3.526712 4.854102 
L 2.179628 0.708204 
L 5.706339 -1.854102 
L 1.347084 -1.854102 
z
" id="m5f2bf057dd" style="stroke:#0000ff;stroke-linejoin:bevel;stroke-width:1.5;"/>
    </defs>
    <g>
     <use style="fill-opacity:0;stroke:#0000ff;stroke-linejoin:bevel;stroke-width:1.5;" x="79.971009" xlink:href="#m5f2bf057dd" y="259.231155"/>
     <use style="fill-opacity:0;stroke:#0000ff;stroke-linejoin:bevel;stroke-width:1.5;" x="199.309857" xlink:href="#m5f2bf057dd" y="241.406733"/>
     <use style="fill-opacity:0;stroke:#0000ff;stroke-linejoin:bevel;stroke-width:1.5;" x="235.828988" xlink:href="#m5f2bf057dd" y="162.769575"/>
     <use style="fill-opacity:0;stroke:#0000ff;stroke-linejoin:bevel;stroke-width:1.5;" x="297.202514" xlink:href="#m5f2bf057dd" y="54.774545"/>
     <use style="fill-opacity:0;stroke:#0000ff;stroke-linejoin:bevel;stroke-width:1.5;" x="317.760602" xlink:href="#m5f2bf057dd" y="27.513663"/>
     <use style="fill-opacity:0;stroke:#0000ff;stroke-linejoin:bevel;stroke-width:1.5;" x="333.429677" xlink:href="#m5f2bf057dd" y="27.513663"/>
    </g>
   </g>
   <g id="line2d_36">
    <path style="fill:none;stroke:#0000ff;stroke-linecap:square;stroke-width:1.5;"/>
    <g/>
   </g>
   <g id="line2d_37">
    <path clip-path="url(#p8e2e060cad)" d="M 266.123863 162.769575 
" style="fill:none;stroke:#0000ff;stroke-linecap:square;stroke-width:1.5;"/>
    <defs>
     <path d="M -12 12 
L 12 -12 
M -12 -12 
L 12 12 
" id="mcb53f7b3fd" style="stroke:#0000ff;stroke-width:3;"/>
    </defs>
    <g clip-path="url(#p8e2e060cad)">
     <use style="fill:#0000ff;stroke:#0000ff;stroke-width:3;" x="266.123863" xlink:href="#mcb53f7b3fd" y="162.769575"/>
    </g>
   </g>
   <g id="line2d_38">
    <defs>
     <path d="M 0 1.5 
C 0.397805 1.5 0.77937 1.341951 1.06066 1.06066 
C 1.341951 0.77937 1.5 0.397805 1.5 0 
C 1.5 -0.397805 1.341951 -0.77937 1.06066 -1.06066 
C 0.77937 -1.341951 0.397805 -1.5 0 -1.5 
C -0.397805 -1.5 -0.77937 -1.341951 -1.06066 -1.06066 
C -1.341951 -0.77937 -1.5 -0.397805 -1.5 0 
C -1.5 0.397805 -1.341951 0.77937 -1.06066 1.06066 
C -0.77937 1.341951 -0.397805 1.5 0 1.5 
z
" id="m3a03ee036c" style="stroke:#000000;"/>
    </defs>
    <g>
     <use style="stroke:#000000;" x="309.667869" xlink:href="#m3a03ee036c" y="184.787979"/>
     <use style="stroke:#000000;" x="309.667869" xlink:href="#m3a03ee036c" y="184.787979"/>
    </g>
   </g>
   <g id="line2d_39">
    <path d="M 28.429836 294.88 
L 28.429836 271.8131 
L 40.355341 271.8131 
L 40.355341 268.143366 
L 47.331314 268.143366 
L 47.331314 267.619119 
L 56.12 267.619119 
L 56.12 266.570623 
L 59.256818 266.570623 
L 59.256818 266.046375 
L 61.90896 266.046375 
L 61.90896 264.473632 
L 64.20635 264.473632 
L 64.20635 262.376641 
L 66.232791 262.376641 
L 66.232791 260.803898 
L 69.685303 260.803898 
L 69.685303 260.279651 
L 72.559446 260.279651 
L 72.559446 259.231155 
L 79.971009 259.231155 
L 79.971009 258.706907 
L 88.057358 258.706907 
L 88.057358 257.658412 
L 91.014019 257.658412 
L 91.014019 256.609917 
L 98.583322 256.609917 
L 98.583322 256.085669 
L 103.605601 256.085669 
L 103.605601 255.561421 
L 111.637419 255.561421 
L 111.637419 255.037173 
L 113.694177 255.037173 
L 113.694177 254.512926 
L 114.637146 254.512926 
L 114.637146 253.988678 
L 121.148094 253.988678 
L 121.148094 253.46443 
L 123.007879 253.46443 
L 123.007879 252.940182 
L 123.562923 252.940182 
L 123.562923 251.891687 
L 126.038603 251.891687 
L 126.038603 251.367439 
L 142.418825 251.367439 
L 142.418825 250.318944 
L 143.715018 250.318944 
L 143.715018 249.794696 
L 146.24885 249.794696 
L 146.24885 249.270448 
L 158.265434 249.270448 
L 158.265434 248.746201 
L 175.127975 248.746201 
L 175.127975 247.697705 
L 177.647634 247.697705 
L 177.647634 246.124962 
L 179.971504 246.124962 
L 179.971504 245.600714 
L 193.940591 245.600714 
L 193.940591 244.027971 
L 195.276283 244.027971 
L 195.276283 243.503724 
L 202.134541 243.503724 
L 202.134541 242.979476 
L 202.546011 242.979476 
L 202.546011 241.93098 
L 202.935685 241.93098 
L 202.935685 240.882485 
L 203.1704 240.882485 
L 203.1704 240.358237 
L 203.729653 240.358237 
L 203.729653 239.83399 
L 203.973624 239.83399 
L 203.973624 239.309742 
L 204.842535 239.309742 
L 204.842535 238.785494 
L 205.496655 238.785494 
L 205.526388 237.736999 
L 205.683521 237.736999 
L 205.736541 236.164255 
L 205.822065 236.164255 
L 205.822065 235.640008 
L 205.968587 235.640008 
L 205.968587 235.11576 
L 206.328691 235.11576 
L 206.328691 234.067265 
L 206.468222 234.067265 
L 206.468222 233.543017 
L 206.679233 233.543017 
L 206.679233 232.494521 
L 207.499871 232.494521 
L 207.605496 231.446026 
L 208.006001 231.446026 
L 208.006001 230.921778 
L 208.214024 230.921778 
L 208.286118 229.349035 
L 208.394436 229.349035 
L 208.394436 228.824787 
L 208.541718 228.824787 
L 208.612455 227.776292 
L 208.930326 227.776292 
L 208.930326 227.252044 
L 209.050819 227.252044 
L 209.08164 225.679301 
L 209.271974 225.679301 
L 209.271974 224.630806 
L 209.517134 224.630806 
L 209.544365 223.58231 
L 209.854231 223.58231 
L 209.930608 221.485319 
L 210.14036 221.485319 
L 210.142142 219.388328 
L 210.744378 219.388328 
L 210.744378 218.864081 
L 211.07494 218.864081 
L 211.07494 217.815585 
L 211.276694 217.815585 
L 211.276694 217.291338 
L 211.513166 217.291338 
L 211.513166 216.76709 
L 211.657339 216.76709 
L 211.657339 215.718594 
L 211.951336 215.718594 
L 212.062046 214.670099 
L 212.701002 214.670099 
L 212.749684 213.621604 
L 213.712127 213.621604 
L 213.712127 213.097356 
L 214.281373 213.097356 
L 214.317753 211.000365 
L 214.501965 211.000365 
L 214.58164 209.427622 
L 214.985671 209.427622 
L 215.086216 208.379126 
L 215.715509 208.379126 
L 215.715509 207.330631 
L 215.912511 207.330631 
L 215.912511 206.806383 
L 216.308904 206.806383 
L 216.308904 205.757888 
L 217.021036 205.757888 
L 217.058623 204.709392 
L 217.165265 204.709392 
L 217.165265 204.185145 
L 217.411654 204.185145 
L 217.411654 203.660897 
L 217.688494 203.660897 
L 217.688494 202.612401 
L 217.805586 202.612401 
L 217.805586 202.088154 
L 218.27864 202.088154 
L 218.27864 201.039658 
L 219.00532 201.039658 
L 219.086819 199.466915 
L 219.826288 199.466915 
L 219.920407 198.41842 
L 220.515794 198.41842 
L 220.515794 197.894172 
L 221.488767 197.894172 
L 221.488767 197.369924 
L 222.072768 197.369924 
L 222.072768 196.845677 
L 255.373442 196.845677 
L 255.373442 196.321429 
L 255.890722 196.321429 
L 255.890722 194.748686 
L 256.010495 194.748686 
L 256.010495 194.224438 
L 266.718975 194.224438 
L 266.718975 193.70019 
L 266.974101 193.70019 
L 266.974101 192.651695 
L 267.131255 192.651695 
L 267.131255 192.127447 
L 273.671304 192.127447 
L 273.777941 190.554704 
L 278.488319 190.554704 
L 278.520607 189.506209 
L 282.329884 189.506209 
L 282.329884 188.981961 
L 290.134342 188.981961 
L 290.134342 188.457713 
L 290.252046 188.457713 
L 290.252046 187.933465 
L 292.24791 187.933465 
L 292.24791 187.409218 
L 299.761918 187.409218 
L 299.761918 186.88497 
L 303.074406 186.88497 
L 303.074406 186.360722 
L 307.480638 186.360722 
L 307.480638 185.836474 
L 308.241032 185.836474 
L 308.241032 185.312227 
L 309.667869 185.312227 
L 309.667869 184.787979 
L 333.429677 184.787979 
L 333.429677 184.787979 
" style="fill:none;stroke:#000000;stroke-linecap:square;stroke-width:1.5;"/>
   </g>
   <g id="line2d_40">
    <defs>
     <path d="M 0 6 
C 1.591219 6 3.117479 5.367802 4.242641 4.242641 
C 5.367802 3.117479 6 1.591219 6 0 
C 6 -1.591219 5.367802 -3.117479 4.242641 -4.242641 
C 3.117479 -5.367802 1.591219 -6 0 -6 
C -1.591219 -6 -3.117479 -5.367802 -4.242641 -4.242641 
C -5.367802 -3.117479 -6 -1.591219 -6 0 
C -6 1.591219 -5.367802 3.117479 -4.242641 4.242641 
C -3.117479 5.367802 -1.591219 6 0 6 
z
" id="m0690283997" style="stroke:#000000;stroke-width:1.5;"/>
    </defs>
    <g>
     <use style="fill-opacity:0;stroke:#000000;stroke-width:1.5;" x="126.038603" xlink:href="#m0690283997" y="251.367439"/>
     <use style="fill-opacity:0;stroke:#000000;stroke-width:1.5;" x="179.971504" xlink:href="#m0690283997" y="245.600714"/>
     <use style="fill-opacity:0;stroke:#000000;stroke-width:1.5;" x="255.890722" xlink:href="#m0690283997" y="196.321429"/>
     <use style="fill-opacity:0;stroke:#000000;stroke-width:1.5;" x="309.667869" xlink:href="#m0690283997" y="184.787979"/>
     <use style="fill-opacity:0;stroke:#000000;stroke-width:1.5;" x="309.667869" xlink:href="#m0690283997" y="184.787979"/>
     <use style="fill-opacity:0;stroke:#000000;stroke-width:1.5;" x="333.429677" xlink:href="#m0690283997" y="184.787979"/>
    </g>
   </g>
   <g id="line2d_41">
    <path style="fill:none;stroke:#000000;stroke-linecap:square;stroke-width:1.5;"/>
    <g/>
   </g>
   <g id="line2d_42">
    <path clip-path="url(#p8e2e060cad)" d="M 254.198358 196.845677 
" style="fill:none;stroke:#000000;stroke-linecap:square;stroke-width:1.5;"/>
    <defs>
     <path d="M -12 12 
L 12 -12 
M -12 -12 
L 12 12 
" id="m1ad05789b1" style="stroke:#000000;stroke-width:3;"/>
    </defs>
    <g clip-path="url(#p8e2e060cad)">
     <use style="stroke:#000000;stroke-width:3;" x="254.198358" xlink:href="#m1ad05789b1" y="196.845677"/>
    </g>
   </g>
   <g id="line2d_43">
    <defs>
     <path d="M 0 1.5 
C 0.397805 1.5 0.77937 1.341951 1.06066 1.06066 
C 1.341951 0.77937 1.5 0.397805 1.5 0 
C 1.5 -0.397805 1.341951 -0.77937 1.06066 -1.06066 
C 0.77937 -1.341951 0.397805 -1.5 0 -1.5 
C -0.397805 -1.5 -0.77937 -1.341951 -1.06066 -1.06066 
C -1.341951 -0.77937 -1.5 -0.397805 -1.5 0 
C -1.5 0.397805 -1.341951 0.77937 -1.06066 1.06066 
C -0.77937 1.341951 -0.397805 1.5 0 1.5 
z
" id="ma5868165e9" style="stroke:#ff0000;"/>
    </defs>
    <g>
     <use style="fill:#ff0000;stroke:#ff0000;" x="290.1209" xlink:href="#ma5868165e9" y="184.787979"/>
     <use style="fill:#ff0000;stroke:#ff0000;" x="290.1209" xlink:href="#ma5868165e9" y="184.787979"/>
    </g>
   </g>
   <g id="line2d_44">
    <path d="M 16.504332 294.88 
L 16.504332 271.288853 
L 28.429836 271.288853 
L 28.429836 268.143366 
L 35.405809 268.143366 
L 35.405809 267.094871 
L 47.331314 267.094871 
L 47.331314 266.046375 
L 57.759799 266.046375 
L 57.759799 264.99788 
L 60.633942 264.99788 
L 60.633942 264.473632 
L 65.249388 264.473632 
L 65.249388 263.949385 
L 68.884933 263.949385 
L 68.884933 262.376641 
L 70.45009 262.376641 
L 70.45009 261.852394 
L 72.559446 261.852394 
L 72.559446 259.755403 
L 75.585622 259.755403 
L 75.585622 259.231155 
L 84.150865 259.231155 
L 84.150865 258.706907 
L 86.657818 258.706907 
L 86.657818 258.18266 
L 88.586781 258.18266 
L 88.586781 257.658412 
L 89.599124 257.658412 
L 89.599124 256.609917 
L 129.723347 256.609917 
L 129.723347 256.085669 
L 138.588225 256.085669 
L 138.588225 255.037173 
L 141.396453 255.037173 
L 141.396453 254.512926 
L 143.736167 254.512926 
L 143.736167 253.988678 
L 144.348652 253.988678 
L 144.348652 253.46443 
L 147.345523 253.46443 
L 147.345523 252.940182 
L 152.209159 252.940182 
L 152.209159 252.415935 
L 157.916737 252.415935 
L 157.916737 251.891687 
L 159.731768 251.891687 
L 159.731768 251.367439 
L 169.688604 251.367439 
L 169.688604 250.843192 
L 180.611577 250.843192 
L 180.611577 250.318944 
L 191.033865 250.318944 
L 191.033865 248.746201 
L 192.833184 248.746201 
L 192.833184 247.697705 
L 200.396705 247.697705 
L 200.396705 247.173458 
L 200.915041 247.173458 
L 200.915041 246.64921 
L 201.358206 246.64921 
L 201.358206 246.124962 
L 201.574664 246.124962 
L 201.574664 245.600714 
L 201.70208 245.600714 
L 201.70208 245.076467 
L 202.0128 245.076467 
L 202.0128 244.552219 
L 202.220873 244.552219 
L 202.220873 244.027971 
L 202.795625 244.027971 
L 202.833813 242.979476 
L 203.334602 242.979476 
L 203.381843 241.406733 
L 203.618726 241.406733 
L 203.677846 239.83399 
L 203.927663 239.83399 
L 203.927663 239.309742 
L 204.363468 239.309742 
L 204.391179 238.261246 
L 204.522894 238.261246 
L 204.606666 237.212751 
L 204.874023 237.212751 
L 204.881584 234.591512 
L 205.184294 234.591512 
L 205.264618 233.543017 
L 205.303902 233.543017 
L 205.347806 231.970274 
L 206.088803 231.970274 
L 206.088803 230.921778 
L 206.212944 230.921778 
L 206.212944 229.873283 
L 206.664246 229.873283 
L 206.746105 228.30054 
L 206.87342 228.30054 
L 206.87342 227.776292 
L 207.631285 227.776292 
L 207.631285 227.252044 
L 207.812779 227.252044 
L 207.812779 226.203549 
L 207.952714 226.203549 
L 207.960047 224.630806 
L 208.1206 224.630806 
L 208.1206 224.106558 
L 208.253341 224.106558 
L 208.253341 223.58231 
L 208.394683 223.58231 
L 208.429161 220.436824 
L 208.580293 220.436824 
L 208.580293 219.912576 
L 208.77116 219.912576 
L 208.877195 217.815585 
L 208.964226 217.815585 
L 208.964226 217.291338 
L 209.51852 217.291338 
L 209.59134 215.194347 
L 209.971369 215.194347 
L 209.971369 214.670099 
L 210.361885 214.670099 
L 210.361885 213.621604 
L 210.536028 213.621604 
L 210.644737 211.524613 
L 211.108871 211.524613 
L 211.108871 211.000365 
L 211.292324 211.000365 
L 211.292324 210.476117 
L 211.964162 210.476117 
L 211.964162 209.95187 
L 212.084739 209.95187 
L 212.141936 208.903374 
L 212.2106 208.903374 
L 212.2106 208.379126 
L 212.334566 208.379126 
L 212.334566 207.330631 
L 212.799374 207.330631 
L 212.855008 206.282136 
L 213.00878 206.282136 
L 213.00878 205.757888 
L 213.236704 205.757888 
L 213.236704 204.709392 
L 213.395967 204.709392 
L 213.395967 204.185145 
L 213.745756 204.185145 
L 213.745756 203.660897 
L 213.968286 203.660897 
L 213.968286 203.136649 
L 214.704396 203.136649 
L 214.704396 202.612401 
L 216.08491 202.612401 
L 216.08491 201.563906 
L 217.707013 201.563906 
L 217.707013 201.039658 
L 218.403788 201.039658 
L 218.403788 200.515411 
L 219.310212 200.515411 
L 219.310212 199.991163 
L 224.668584 199.991163 
L 224.668584 199.466915 
L 224.858138 199.466915 
L 224.858138 198.942667 
L 224.995635 198.942667 
L 224.995635 198.41842 
L 225.69671 198.41842 
L 225.69671 197.369924 
L 225.945243 197.369924 
L 225.945243 196.845677 
L 226.592018 196.845677 
L 226.592018 195.272933 
L 244.166712 195.272933 
L 244.166712 194.748686 
L 244.472456 194.748686 
L 244.472456 194.224438 
L 244.615958 194.224438 
L 244.721933 193.175943 
L 244.822096 193.175943 
L 244.822096 192.651695 
L 245.16198 192.651695 
L 245.217482 191.078952 
L 245.430016 191.078952 
L 245.430016 190.554704 
L 246.108399 190.554704 
L 246.108399 190.030456 
L 246.29339 190.030456 
L 246.29339 189.506209 
L 255.371224 189.506209 
L 255.371224 188.981961 
L 255.520151 188.981961 
L 255.520151 188.457713 
L 255.63553 188.457713 
L 255.63553 187.933465 
L 256.325803 187.933465 
L 256.325803 187.409218 
L 261.854256 187.409218 
L 261.965057 186.360722 
L 262.032777 186.360722 
L 262.032777 185.836474 
L 266.720288 185.836474 
L 266.720288 185.312227 
L 290.1209 185.312227 
L 290.1209 184.787979 
L 333.429677 184.787979 
L 333.429677 184.787979 
" style="fill:none;stroke:#ff0000;stroke-linecap:square;stroke-width:1.5;"/>
   </g>
   <g id="line2d_45">
    <defs>
     <path d="M -6 6 
L 6 6 
L 6 -6 
L -6 -6 
z
" id="m99ac18aa2a" style="stroke:#ff0000;stroke-linejoin:miter;stroke-width:1.5;"/>
    </defs>
    <g>
     <use style="fill-opacity:0;stroke:#ff0000;stroke-linejoin:miter;stroke-width:1.5;" x="89.599124" xlink:href="#m99ac18aa2a" y="256.609917"/>
     <use style="fill-opacity:0;stroke:#ff0000;stroke-linejoin:miter;stroke-width:1.5;" x="180.611577" xlink:href="#m99ac18aa2a" y="250.318944"/>
     <use style="fill-opacity:0;stroke:#ff0000;stroke-linejoin:miter;stroke-width:1.5;" x="246.108399" xlink:href="#m99ac18aa2a" y="190.554704"/>
     <use style="fill-opacity:0;stroke:#ff0000;stroke-linejoin:miter;stroke-width:1.5;" x="290.1209" xlink:href="#m99ac18aa2a" y="185.312227"/>
     <use style="fill-opacity:0;stroke:#ff0000;stroke-linejoin:miter;stroke-width:1.5;" x="290.1209" xlink:href="#m99ac18aa2a" y="184.787979"/>
     <use style="fill-opacity:0;stroke:#ff0000;stroke-linejoin:miter;stroke-width:1.5;" x="333.429677" xlink:href="#m99ac18aa2a" y="184.787979"/>
    </g>
   </g>
   <g id="line2d_46">
    <path style="fill:none;stroke:#ff0000;stroke-linecap:square;stroke-width:1.5;"/>
    <g/>
   </g>
   <g id="line2d_47">
    <path clip-path="url(#p8e2e060cad)" d="M 242.272854 195.272933 
" style="fill:none;stroke:#ff0000;stroke-linecap:square;stroke-width:1.5;"/>
    <defs>
     <path d="M -12 12 
L 12 -12 
M -12 -12 
L 12 12 
" id="m5498323784" style="stroke:#ff0000;stroke-width:3;"/>
    </defs>
    <g clip-path="url(#p8e2e060cad)">
     <use style="fill:#ff0000;stroke:#ff0000;stroke-width:3;" x="242.272854" xlink:href="#m5498323784" y="195.272933"/>
    </g>
   </g>
   <g id="line2d_48">
    <defs>
     <path d="M 0 1.5 
C 0.397805 1.5 0.77937 1.341951 1.06066 1.06066 
C 1.341951 0.77937 1.5 0.397805 1.5 0 
C 1.5 -0.397805 1.341951 -0.77937 1.06066 -1.06066 
C 0.77937 -1.341951 0.397805 -1.5 0 -1.5 
C -0.397805 -1.5 -0.77937 -1.341951 -1.06066 -1.06066 
C -1.341951 -0.77937 -1.5 -0.397805 -1.5 0 
C -1.5 0.397805 -1.341951 0.77937 -1.06066 1.06066 
C -0.77937 1.341951 -0.397805 1.5 0 1.5 
z
" id="m5a3607d0cb" style="stroke:#bf00bf;"/>
    </defs>
    <g>
     <use style="fill:#bf00bf;stroke:#bf00bf;" x="244.996784" xlink:href="#m5a3607d0cb" y="190.030456"/>
     <use style="fill:#bf00bf;stroke:#bf00bf;" x="244.996784" xlink:href="#m5a3607d0cb" y="190.030456"/>
    </g>
   </g>
   <g id="line2d_49">
    <path d="M 4.578827 294.88 
L 4.578827 269.716109 
L 16.504332 269.716109 
L 16.504332 267.094871 
L 23.480305 267.094871 
L 23.480305 266.046375 
L 28.429836 266.046375 
L 28.429836 265.522128 
L 38.057951 265.522128 
L 38.057951 264.99788 
L 44.194496 264.99788 
L 44.194496 264.473632 
L 45.834294 264.473632 
L 45.834294 263.425137 
L 55.237506 263.425137 
L 55.237506 262.900889 
L 73.524458 262.900889 
L 73.524458 261.852394 
L 83.286117 261.852394 
L 83.286117 260.803898 
L 85.912902 260.803898 
L 85.912902 260.279651 
L 94.39435 260.279651 
L 94.39435 259.755403 
L 96.65683 259.755403 
L 96.65683 259.231155 
L 98.872486 259.231155 
L 98.872486 258.18266 
L 114.464231 258.18266 
L 114.464231 257.658412 
L 156.449187 257.658412 
L 156.449187 257.134164 
L 158.385376 257.134164 
L 158.385376 255.561421 
L 163.514942 255.561421 
L 163.514942 255.037173 
L 172.956256 255.037173 
L 172.956256 254.512926 
L 180.143004 254.512926 
L 180.143004 253.46443 
L 181.047197 253.46443 
L 181.047197 252.415935 
L 182.326918 252.415935 
L 182.326918 251.367439 
L 182.563639 251.367439 
L 182.563639 250.318944 
L 183.031296 250.318944 
L 183.031296 249.794696 
L 183.301033 249.794696 
L 183.323807 248.746201 
L 183.733827 248.746201 
L 183.733827 248.221953 
L 184.315117 248.221953 
L 184.315117 246.64921 
L 184.610351 246.64921 
L 184.610351 245.600714 
L 184.84401 245.600714 
L 184.84401 245.076467 
L 185.076928 245.076467 
L 185.076928 244.552219 
L 185.564206 244.552219 
L 185.564206 244.027971 
L 185.688282 244.027971 
L 185.688282 242.979476 
L 185.921954 242.979476 
L 185.921954 242.455228 
L 186.057489 242.455228 
L 186.057489 241.93098 
L 186.631608 241.93098 
L 186.631608 240.882485 
L 186.958192 240.882485 
L 186.958192 239.83399 
L 187.626749 239.83399 
L 187.626749 239.309742 
L 187.99697 239.309742 
L 188.102733 237.212751 
L 188.457853 237.212751 
L 188.457853 236.688503 
L 189.101119 236.688503 
L 189.129091 235.640008 
L 189.854602 235.640008 
L 189.854602 235.11576 
L 190.907627 235.11576 
L 190.959999 233.543017 
L 191.057516 233.543017 
L 191.057516 232.494521 
L 191.285594 232.494521 
L 191.285594 231.970274 
L 191.915649 231.970274 
L 191.915649 230.921778 
L 192.990515 230.921778 
L 192.990515 230.397531 
L 194.657314 230.397531 
L 194.657314 229.873283 
L 195.251164 229.873283 
L 195.251164 229.349035 
L 199.410301 229.349035 
L 199.410301 228.824787 
L 199.874608 228.824787 
L 199.874608 228.30054 
L 200.694118 228.30054 
L 200.694118 227.776292 
L 200.91466 227.776292 
L 200.967317 226.727797 
L 201.108708 226.727797 
L 201.108708 224.630806 
L 201.225965 224.630806 
L 201.225965 224.106558 
L 201.33927 224.106558 
L 201.33927 223.58231 
L 202.037966 223.58231 
L 202.037966 223.058063 
L 202.192262 223.058063 
L 202.201981 222.009567 
L 202.331339 222.009567 
L 202.331339 221.485319 
L 202.728935 221.485319 
L 202.728935 220.961072 
L 202.963257 220.961072 
L 203.014729 218.339833 
L 203.118219 218.339833 
L 203.118219 217.815585 
L 203.230912 217.815585 
L 203.301489 216.76709 
L 203.51543 216.76709 
L 203.61596 214.670099 
L 203.947467 214.670099 
L 203.947467 214.145851 
L 204.489983 214.145851 
L 204.594372 211.000365 
L 204.607895 211.000365 
L 204.607895 210.476117 
L 204.968897 210.476117 
L 204.968897 209.95187 
L 205.15188 209.95187 
L 205.15188 208.903374 
L 205.332791 208.903374 
L 205.441573 207.330631 
L 205.46731 207.330631 
L 205.46731 206.806383 
L 205.695926 206.806383 
L 205.772467 205.23364 
L 206.842826 205.23364 
L 206.860623 203.660897 
L 208.984486 203.660897 
L 208.984486 203.136649 
L 209.28661 203.136649 
L 209.28661 202.612401 
L 209.409406 202.612401 
L 209.409406 202.088154 
L 209.538369 202.088154 
L 209.538369 201.563906 
L 209.649535 201.563906 
L 209.743471 199.991163 
L 209.974855 199.991163 
L 209.974855 199.466915 
L 210.20938 199.466915 
L 210.20938 198.942667 
L 210.374853 198.942667 
L 210.374853 198.41842 
L 210.606409 198.41842 
L 210.606409 197.894172 
L 210.755342 197.894172 
L 210.755342 197.369924 
L 211.182717 197.369924 
L 211.182717 196.845677 
L 231.601407 196.845677 
L 231.601407 196.321429 
L 231.764077 196.321429 
L 231.764077 195.797181 
L 232.07498 195.797181 
L 232.07498 195.272933 
L 232.205199 195.272933 
L 232.205199 194.748686 
L 232.450725 194.748686 
L 232.450725 194.224438 
L 234.15396 194.224438 
L 234.15396 193.70019 
L 243.940703 193.70019 
L 243.940703 193.175943 
L 244.098055 193.175943 
L 244.098055 192.127447 
L 244.451989 192.127447 
L 244.451989 191.603199 
L 244.996784 191.603199 
L 244.996784 190.030456 
L 333.429677 190.030456 
L 333.429677 190.030456 
" style="fill:none;stroke:#bf00bf;stroke-linecap:square;stroke-width:1.5;"/>
   </g>
   <g id="line2d_50">
    <defs>
     <path d="M -0 8.485281 
L 8.485281 0 
L 0 -8.485281 
L -8.485281 -0 
z
" id="m672612a407" style="stroke:#bf00bf;stroke-linejoin:miter;stroke-width:1.5;"/>
    </defs>
    <g>
     <use style="fill-opacity:0;stroke:#bf00bf;stroke-linejoin:miter;stroke-width:1.5;" x="73.524458" xlink:href="#m672612a407" y="261.852394"/>
     <use style="fill-opacity:0;stroke:#bf00bf;stroke-linejoin:miter;stroke-width:1.5;" x="114.464231" xlink:href="#m672612a407" y="257.658412"/>
     <use style="fill-opacity:0;stroke:#bf00bf;stroke-linejoin:miter;stroke-width:1.5;" x="203.947467" xlink:href="#m672612a407" y="214.145851"/>
     <use style="fill-opacity:0;stroke:#bf00bf;stroke-linejoin:miter;stroke-width:1.5;" x="244.996784" xlink:href="#m672612a407" y="190.030456"/>
     <use style="fill-opacity:0;stroke:#bf00bf;stroke-linejoin:miter;stroke-width:1.5;" x="244.996784" xlink:href="#m672612a407" y="190.030456"/>
     <use style="fill-opacity:0;stroke:#bf00bf;stroke-linejoin:miter;stroke-width:1.5;" x="333.429677" xlink:href="#m672612a407" y="190.030456"/>
    </g>
   </g>
   <g id="line2d_51">
    <path style="fill:none;stroke:#bf00bf;stroke-linecap:square;stroke-width:1.5;"/>
    <g/>
   </g>
   <g id="line2d_52">
    <path clip-path="url(#p8e2e060cad)" d="M 230.347349 196.845677 
" style="fill:none;stroke:#bf00bf;stroke-linecap:square;stroke-width:1.5;"/>
    <defs>
     <path d="M -12 12 
L 12 -12 
M -12 -12 
L 12 12 
" id="mc13a061bd5" style="stroke:#bf00bf;stroke-width:3;"/>
    </defs>
    <g clip-path="url(#p8e2e060cad)">
     <use style="fill:#bf00bf;stroke:#bf00bf;stroke-width:3;" x="230.347349" xlink:href="#mc13a061bd5" y="196.845677"/>
    </g>
   </g>
   <g id="line2d_53">
    <path d="M 333.429677 190.030456 
L 363.933742 289.532673 
" style="fill:none;stroke:#bf00bf;stroke-linecap:square;stroke-width:1.5;"/>
    <g>
     <use style="fill-opacity:0;stroke:#bf00bf;stroke-linejoin:miter;stroke-width:1.5;" x="333.429677" xlink:href="#m672612a407" y="190.030456"/>
     <use style="fill-opacity:0;stroke:#bf00bf;stroke-linejoin:miter;stroke-width:1.5;" x="363.933742" xlink:href="#m672612a407" y="289.532673"/>
    </g>
   </g>
   <g id="line2d_54">
    <path d="M 333.429677 184.787979 
L 363.933742 238.198337 
" style="fill:none;stroke:#000000;stroke-linecap:square;stroke-width:1.5;"/>
    <g>
     <use style="fill-opacity:0;stroke:#000000;stroke-width:1.5;" x="333.429677" xlink:href="#m0690283997" y="184.787979"/>
     <use style="fill-opacity:0;stroke:#000000;stroke-width:1.5;" x="363.933742" xlink:href="#m0690283997" y="238.198337"/>
    </g>
   </g>
   <g id="line2d_55">
    <path d="M 333.429677 184.787979 
L 363.933742 186.864 
" style="fill:none;stroke:#ff0000;stroke-linecap:square;stroke-width:1.5;"/>
    <g>
     <use style="fill-opacity:0;stroke:#ff0000;stroke-linejoin:miter;stroke-width:1.5;" x="333.429677" xlink:href="#m99ac18aa2a" y="184.787979"/>
     <use style="fill-opacity:0;stroke:#ff0000;stroke-linejoin:miter;stroke-width:1.5;" x="363.933742" xlink:href="#m99ac18aa2a" y="186.864"/>
    </g>
   </g>
   <g id="line2d_56">
    <path d="M 333.429677 27.513663 
L 363.933742 135.529663 
" style="fill:none;stroke:#0000ff;stroke-linecap:square;stroke-width:1.5;"/>
    <g>
     <use style="fill-opacity:0;stroke:#0000ff;stroke-linejoin:bevel;stroke-width:1.5;" x="333.429677" xlink:href="#m5f2bf057dd" y="27.513663"/>
     <use style="fill-opacity:0;stroke:#0000ff;stroke-linejoin:bevel;stroke-width:1.5;" x="363.933742" xlink:href="#m5f2bf057dd" y="135.529663"/>
    </g>
   </g>
   <g id="line2d_57">
    <path d="M 333.429677 27.513663 
L 363.933742 84.195327 
" style="fill:none;stroke:#008000;stroke-linecap:square;stroke-width:1.5;"/>
    <g>
     <use style="fill-opacity:0;stroke:#008000;stroke-linejoin:miter;stroke-width:1.5;" x="333.429677" xlink:href="#ma8ea4a5ae4" y="27.513663"/>
     <use style="fill-opacity:0;stroke:#008000;stroke-linejoin:miter;stroke-width:1.5;" x="363.933742" xlink:href="#ma8ea4a5ae4" y="84.195327"/>
    </g>
   </g>
   <g id="line2d_58">
    <path d="M 333.429677 27.513663 
L 363.933742 32.86099 
" style="fill:none;stroke:#00bfbf;stroke-linecap:square;stroke-width:1.5;"/>
    <g>
     <use style="fill-opacity:0;stroke:#00bfbf;stroke-width:1.5;" x="333.429677" xlink:href="#md850d84563" y="27.513663"/>
     <use style="fill-opacity:0;stroke:#00bfbf;stroke-width:1.5;" x="363.933742" xlink:href="#md850d84563" y="32.86099"/>
    </g>
   </g>
   <g id="line2d_59">
    <path d="M 333.429677 294.88 
L 333.429677 27.513663 
" style="fill:none;stroke:#000000;stroke-linecap:square;stroke-width:1.5;"/>
   </g>
   <g id="patch_3">
    <path d="M 56.12 294.88 
L 56.12 24.84 
" style="fill:none;stroke:#000000;stroke-linecap:square;stroke-linejoin:miter;stroke-width:0.8;"/>
   </g>
   <g id="patch_4">
    <path d="M 399.984 294.88 
L 399.984 24.84 
" style="fill:none;stroke:#000000;stroke-linecap:square;stroke-linejoin:miter;stroke-width:0.8;"/>
   </g>
   <g id="patch_5">
    <path d="M 56.12 294.88 
L 399.984 294.88 
" style="fill:none;stroke:#000000;stroke-linecap:square;stroke-linejoin:miter;stroke-width:0.8;"/>
   </g>
   <g id="patch_6">
    <path d="M 56.12 24.84 
L 399.984 24.84 
" style="fill:none;stroke:#000000;stroke-linecap:square;stroke-linejoin:miter;stroke-width:0.8;"/>
   </g>
   <g id="text_14">
    <!-- 40-D -->
    <defs>
     <path d="M 19.671875 64.796875 
L 19.671875 8.109375 
L 31.59375 8.109375 
Q 46.6875 8.109375 53.6875 14.9375 
Q 60.6875 21.78125 60.6875 36.53125 
Q 60.6875 51.171875 53.6875 57.984375 
Q 46.6875 64.796875 31.59375 64.796875 
z
M 9.8125 72.90625 
L 30.078125 72.90625 
Q 51.265625 72.90625 61.171875 64.09375 
Q 71.09375 55.28125 71.09375 36.53125 
Q 71.09375 17.671875 61.125 8.828125 
Q 51.171875 0 30.078125 0 
L 9.8125 0 
z
" id="DejaVuSans-44"/>
    </defs>
    <g transform="translate(369.479935 294.223611)scale(0.17 -0.17)">
     <use xlink:href="#DejaVuSans-34"/>
     <use x="63.623047" xlink:href="#DejaVuSans-30"/>
     <use x="127.246094" xlink:href="#DejaVuSans-2d"/>
     <use x="163.330078" xlink:href="#DejaVuSans-44"/>
    </g>
   </g>
   <g id="text_15">
    <!-- 10-D -->
    <g transform="translate(369.479935 242.889274)scale(0.17 -0.17)">
     <use xlink:href="#DejaVuSans-31"/>
     <use x="63.623047" xlink:href="#DejaVuSans-30"/>
     <use x="127.246094" xlink:href="#DejaVuSans-2d"/>
     <use x="163.330078" xlink:href="#DejaVuSans-44"/>
    </g>
   </g>
   <g id="text_16">
    <!-- 20-D -->
    <g transform="translate(369.479935 191.554937)scale(0.17 -0.17)">
     <use xlink:href="#DejaVuSans-32"/>
     <use x="63.623047" xlink:href="#DejaVuSans-30"/>
     <use x="127.246094" xlink:href="#DejaVuSans-2d"/>
     <use x="163.330078" xlink:href="#DejaVuSans-44"/>
    </g>
   </g>
   <g id="text_17">
    <!-- 5-D -->
    <defs>
     <path d="M 10.796875 72.90625 
L 49.515625 72.90625 
L 49.515625 64.59375 
L 19.828125 64.59375 
L 19.828125 46.734375 
Q 21.96875 47.46875 24.109375 47.828125 
Q 26.265625 48.1875 28.421875 48.1875 
Q 40.625 48.1875 47.75 41.5 
Q 54.890625 34.8125 54.890625 23.390625 
Q 54.890625 11.625 47.5625 5.09375 
Q 40.234375 -1.421875 26.90625 -1.421875 
Q 22.3125 -1.421875 17.546875 -0.640625 
Q 12.796875 0.140625 7.71875 1.703125 
L 7.71875 11.625 
Q 12.109375 9.234375 16.796875 8.0625 
Q 21.484375 6.890625 26.703125 6.890625 
Q 35.15625 6.890625 40.078125 11.328125 
Q 45.015625 15.765625 45.015625 23.390625 
Q 45.015625 31 40.078125 35.4375 
Q 35.15625 39.890625 26.703125 39.890625 
Q 22.75 39.890625 18.8125 39.015625 
Q 14.890625 38.140625 10.796875 36.28125 
z
" id="DejaVuSans-35"/>
    </defs>
    <g transform="translate(369.479935 140.220601)scale(0.17 -0.17)">
     <use xlink:href="#DejaVuSans-35"/>
     <use x="63.623047" xlink:href="#DejaVuSans-2d"/>
     <use x="99.707031" xlink:href="#DejaVuSans-44"/>
    </g>
   </g>
   <g id="text_18">
    <!-- 3-D -->
    <defs>
     <path d="M 40.578125 39.3125 
Q 47.65625 37.796875 51.625 33 
Q 55.609375 28.21875 55.609375 21.1875 
Q 55.609375 10.40625 48.1875 4.484375 
Q 40.765625 -1.421875 27.09375 -1.421875 
Q 22.515625 -1.421875 17.65625 -0.515625 
Q 12.796875 0.390625 7.625 2.203125 
L 7.625 11.71875 
Q 11.71875 9.328125 16.59375 8.109375 
Q 21.484375 6.890625 26.8125 6.890625 
Q 36.078125 6.890625 40.9375 10.546875 
Q 45.796875 14.203125 45.796875 21.1875 
Q 45.796875 27.640625 41.28125 31.265625 
Q 36.765625 34.90625 28.71875 34.90625 
L 20.21875 34.90625 
L 20.21875 43.015625 
L 29.109375 43.015625 
Q 36.375 43.015625 40.234375 45.921875 
Q 44.09375 48.828125 44.09375 54.296875 
Q 44.09375 59.90625 40.109375 62.90625 
Q 36.140625 65.921875 28.71875 65.921875 
Q 24.65625 65.921875 20.015625 65.03125 
Q 15.375 64.15625 9.8125 62.3125 
L 9.8125 71.09375 
Q 15.4375 72.65625 20.34375 73.4375 
Q 25.25 74.21875 29.59375 74.21875 
Q 40.828125 74.21875 47.359375 69.109375 
Q 53.90625 64.015625 53.90625 55.328125 
Q 53.90625 49.265625 50.4375 45.09375 
Q 46.96875 40.921875 40.578125 39.3125 
z
" id="DejaVuSans-33"/>
    </defs>
    <g transform="translate(369.479935 88.886264)scale(0.17 -0.17)">
     <use xlink:href="#DejaVuSans-33"/>
     <use x="63.623047" xlink:href="#DejaVuSans-2d"/>
     <use x="99.707031" xlink:href="#DejaVuSans-44"/>
    </g>
   </g>
   <g id="text_19">
    <!-- 2-D -->
    <g transform="translate(369.479935 37.551928)scale(0.17 -0.17)">
     <use xlink:href="#DejaVuSans-32"/>
     <use x="63.623047" xlink:href="#DejaVuSans-2d"/>
     <use x="99.707031" xlink:href="#DejaVuSans-44"/>
    </g>
   </g>
   <g id="text_20">
    <!-- bbob f23 -->
    <defs>
     <path d="M 48.6875 27.296875 
Q 48.6875 37.203125 44.609375 42.84375 
Q 40.53125 48.484375 33.40625 48.484375 
Q 26.265625 48.484375 22.1875 42.84375 
Q 18.109375 37.203125 18.109375 27.296875 
Q 18.109375 17.390625 22.1875 11.75 
Q 26.265625 6.109375 33.40625 6.109375 
Q 40.53125 6.109375 44.609375 11.75 
Q 48.6875 17.390625 48.6875 27.296875 
z
M 18.109375 46.390625 
Q 20.953125 51.265625 25.265625 53.625 
Q 29.59375 56 35.59375 56 
Q 45.5625 56 51.78125 48.09375 
Q 58.015625 40.1875 58.015625 27.296875 
Q 58.015625 14.40625 51.78125 6.484375 
Q 45.5625 -1.421875 35.59375 -1.421875 
Q 29.59375 -1.421875 25.265625 0.953125 
Q 20.953125 3.328125 18.109375 8.203125 
L 18.109375 0 
L 9.078125 0 
L 9.078125 75.984375 
L 18.109375 75.984375 
z
" id="DejaVuSans-62"/>
    </defs>
    <g transform="translate(59.55864 35.290806)scale(0.102 -0.102)">
     <use xlink:href="#DejaVuSans-62"/>
     <use x="63.476562" xlink:href="#DejaVuSans-62"/>
     <use x="126.953125" xlink:href="#DejaVuSans-6f"/>
     <use x="188.134766" xlink:href="#DejaVuSans-62"/>
     <use x="251.611328" xlink:href="#DejaVuSans-20"/>
     <use x="283.398438" xlink:href="#DejaVuSans-66"/>
     <use x="318.603516" xlink:href="#DejaVuSans-32"/>
     <use x="382.226562" xlink:href="#DejaVuSans-33"/>
    </g>
    <!-- 51 targets: 100..1e-08 -->
    <defs>
     <path d="M 11.71875 12.40625 
L 22.015625 12.40625 
L 22.015625 0 
L 11.71875 0 
z
M 11.71875 51.703125 
L 22.015625 51.703125 
L 22.015625 39.3125 
L 11.71875 39.3125 
z
" id="DejaVuSans-3a"/>
    </defs>
    <g transform="translate(59.55864 46.712575)scale(0.102 -0.102)">
     <use xlink:href="#DejaVuSans-35"/>
     <use x="63.623047" xlink:href="#DejaVuSans-31"/>
     <use x="127.246094" xlink:href="#DejaVuSans-20"/>
     <use x="159.033203" xlink:href="#DejaVuSans-74"/>
     <use x="198.242188" xlink:href="#DejaVuSans-61"/>
     <use x="259.521484" xlink:href="#DejaVuSans-72"/>
     <use x="300.619141" xlink:href="#DejaVuSans-67"/>
     <use x="364.095703" xlink:href="#DejaVuSans-65"/>
     <use x="425.619141" xlink:href="#DejaVuSans-74"/>
     <use x="464.828125" xlink:href="#DejaVuSans-73"/>
     <use x="516.927734" xlink:href="#DejaVuSans-3a"/>
     <use x="550.619141" xlink:href="#DejaVuSans-20"/>
     <use x="582.40625" xlink:href="#DejaVuSans-31"/>
     <use x="646.029297" xlink:href="#DejaVuSans-30"/>
     <use x="709.652344" xlink:href="#DejaVuSans-30"/>
     <use x="773.275391" xlink:href="#DejaVuSans-2e"/>
     <use x="805.0625" xlink:href="#DejaVuSans-2e"/>
     <use x="836.849609" xlink:href="#DejaVuSans-31"/>
     <use x="900.472656" xlink:href="#DejaVuSans-65"/>
     <use x="961.996094" xlink:href="#DejaVuSans-2d"/>
     <use x="998.080078" xlink:href="#DejaVuSans-30"/>
     <use x="1061.703125" xlink:href="#DejaVuSans-38"/>
    </g>
    <!-- 15 instances -->
    <g transform="translate(59.55864 58.134344)scale(0.102 -0.102)">
     <use xlink:href="#DejaVuSans-31"/>
     <use x="63.623047" xlink:href="#DejaVuSans-35"/>
     <use x="127.246094" xlink:href="#DejaVuSans-20"/>
     <use x="159.033203" xlink:href="#DejaVuSans-69"/>
     <use x="186.816406" xlink:href="#DejaVuSans-6e"/>
     <use x="250.195312" xlink:href="#DejaVuSans-73"/>
     <use x="302.294922" xlink:href="#DejaVuSans-74"/>
     <use x="341.503906" xlink:href="#DejaVuSans-61"/>
     <use x="402.783203" xlink:href="#DejaVuSans-6e"/>
     <use x="466.162109" xlink:href="#DejaVuSans-63"/>
     <use x="521.142578" xlink:href="#DejaVuSans-65"/>
     <use x="582.666016" xlink:href="#DejaVuSans-73"/>
    </g>
   </g>
   <g id="text_21">
    <!-- v0.0.0 -->
    <g style="fill:#808080;" transform="translate(212.37075 290.099912)scale(0.1 -0.1)">
     <use xlink:href="#DejaVuSans-76"/>
     <use x="59.179688" xlink:href="#DejaVuSans-30"/>
     <use x="122.802734" xlink:href="#DejaVuSans-2e"/>
     <use x="154.589844" xlink:href="#DejaVuSans-30"/>
     <use x="218.212891" xlink:href="#DejaVuSans-2e"/>
     <use x="250" xlink:href="#DejaVuSans-30"/>
    </g>
   </g>
   <g id="text_22">
    <!-- 23 Katsuuras -->
    <defs>
     <path d="M 9.8125 72.90625 
L 19.671875 72.90625 
L 19.671875 42.09375 
L 52.390625 72.90625 
L 65.09375 72.90625 
L 28.90625 38.921875 
L 67.671875 0 
L 54.6875 0 
L 19.671875 35.109375 
L 19.671875 0 
L 9.8125 0 
z
" id="DejaVuSans-4b"/>
    </defs>
    <g transform="translate(162.211375 18.84)scale(0.2 -0.2)">
     <use xlink:href="#DejaVuSans-32"/>
     <use x="63.623047" xlink:href="#DejaVuSans-33"/>
     <use x="127.246094" xlink:href="#DejaVuSans-20"/>
     <use x="159.033203" xlink:href="#DejaVuSans-4b"/>
     <use x="224.59375" xlink:href="#DejaVuSans-61"/>
     <use x="285.873047" xlink:href="#DejaVuSans-74"/>
     <use x="325.082031" xlink:href="#DejaVuSans-73"/>
     <use x="377.181641" xlink:href="#DejaVuSans-75"/>
     <use x="440.560547" xlink:href="#DejaVuSans-75"/>
     <use x="503.939453" xlink:href="#DejaVuSans-72"/>
     <use x="545.052734" xlink:href="#DejaVuSans-61"/>
     <use x="606.332031" xlink:href="#DejaVuSans-73"/>
    </g>
   </g>
  </g>
 </g>
 <defs>
  <clipPath id="p8e2e060cad">
   <rect height="270.04" width="343.864" x="56.12" y="24.84"/>
  </clipPath>
 </defs>
</svg>
