<?xml version="1.0" encoding="utf-8" standalone="no"?>
<!DOCTYPE svg PUBLIC "-//W3C//DTD SVG 1.1//EN"
  "http://www.w3.org/Graphics/SVG/1.1/DTD/svg11.dtd">
<!-- Created with matplotlib (http://matplotlib.org/) -->
<svg height="345.6pt" version="1.1" viewBox="0 0 460.8 345.6" width="460.8pt" xmlns="http://www.w3.org/2000/svg" xmlns:xlink="http://www.w3.org/1999/xlink">
 <defs>
  <style type="text/css">
*{stroke-linecap:butt;stroke-linejoin:round;}
  </style>
 </defs>
 <g id="figure_1">
  <g id="patch_1">
   <path d="M 0 345.6 
L 460.8 345.6 
L 460.8 0 
L 0 0 
z
" style="fill:#ffffff;"/>
  </g>
  <g id="axes_1">
   <g id="patch_2">
    <path d="M 56.12 294.88 
L 399.984 294.88 
L 399.984 6.845228 
L 56.12 6.845228 
z
" style="fill:#ffffff;"/>
   </g>
   <g id="matplotlib.axis_1">
    <g id="xtick_1">
     <g id="line2d_1">
      <path clip-path="url(#p23207ba58d)" d="M 56.12 294.88 
L 56.12 6.845228 
" style="fill:none;stroke:#b0b0b0;stroke-linecap:square;stroke-width:0.8;"/>
     </g>
     <g id="line2d_2">
      <defs>
       <path d="M 0 0 
L 0 3.5 
" id="m171b84dad1" style="stroke:#000000;stroke-width:0.8;"/>
      </defs>
      <g>
       <use style="stroke:#000000;stroke-width:0.8;" x="56.12" xlink:href="#m171b84dad1" y="294.88"/>
      </g>
     </g>
     <g id="text_1">
      <!-- 0 -->
      <defs>
       <path d="M 31.78125 66.40625 
Q 24.171875 66.40625 20.328125 58.90625 
Q 16.5 51.421875 16.5 36.375 
Q 16.5 21.390625 20.328125 13.890625 
Q 24.171875 6.390625 31.78125 6.390625 
Q 39.453125 6.390625 43.28125 13.890625 
Q 47.125 21.390625 47.125 36.375 
Q 47.125 51.421875 43.28125 58.90625 
Q 39.453125 66.40625 31.78125 66.40625 
z
M 31.78125 74.21875 
Q 44.046875 74.21875 50.515625 64.515625 
Q 56.984375 54.828125 56.984375 36.375 
Q 56.984375 17.96875 50.515625 8.265625 
Q 44.046875 -1.421875 31.78125 -1.421875 
Q 19.53125 -1.421875 13.0625 8.265625 
Q 6.59375 17.96875 6.59375 36.375 
Q 6.59375 54.828125 13.0625 64.515625 
Q 19.53125 74.21875 31.78125 74.21875 
z
" id="DejaVuSans-30"/>
      </defs>
      <g transform="translate(49.7575 317.076875)scale(0.2 -0.2)">
       <use xlink:href="#DejaVuSans-30"/>
      </g>
     </g>
    </g>
    <g id="xtick_2">
     <g id="line2d_3">
      <path clip-path="url(#p23207ba58d)" d="M 135.351336 294.88 
L 135.351336 6.845228 
" style="fill:none;stroke:#b0b0b0;stroke-linecap:square;stroke-width:0.8;"/>
     </g>
     <g id="line2d_4">
      <g>
       <use style="stroke:#000000;stroke-width:0.8;" x="135.351336" xlink:href="#m171b84dad1" y="294.88"/>
      </g>
     </g>
     <g id="text_2">
      <!-- 2 -->
      <defs>
       <path d="M 19.1875 8.296875 
L 53.609375 8.296875 
L 53.609375 0 
L 7.328125 0 
L 7.328125 8.296875 
Q 12.9375 14.109375 22.625 23.890625 
Q 32.328125 33.6875 34.8125 36.53125 
Q 39.546875 41.84375 41.421875 45.53125 
Q 43.3125 49.21875 43.3125 52.78125 
Q 43.3125 58.59375 39.234375 62.25 
Q 35.15625 65.921875 28.609375 65.921875 
Q 23.96875 65.921875 18.8125 64.3125 
Q 13.671875 62.703125 7.8125 59.421875 
L 7.8125 69.390625 
Q 13.765625 71.78125 18.9375 73 
Q 24.125 74.21875 28.421875 74.21875 
Q 39.75 74.21875 46.484375 68.546875 
Q 53.21875 62.890625 53.21875 53.421875 
Q 53.21875 48.921875 51.53125 44.890625 
Q 49.859375 40.875 45.40625 35.40625 
Q 44.1875 33.984375 37.640625 27.21875 
Q 31.109375 20.453125 19.1875 8.296875 
z
" id="DejaVuSans-32"/>
      </defs>
      <g transform="translate(128.988836 317.076875)scale(0.2 -0.2)">
       <use xlink:href="#DejaVuSans-32"/>
      </g>
     </g>
    </g>
    <g id="xtick_3">
     <g id="line2d_5">
      <path clip-path="url(#p23207ba58d)" d="M 214.582673 294.88 
L 214.582673 6.845228 
" style="fill:none;stroke:#b0b0b0;stroke-linecap:square;stroke-width:0.8;"/>
     </g>
     <g id="line2d_6">
      <g>
       <use style="stroke:#000000;stroke-width:0.8;" x="214.582673" xlink:href="#m171b84dad1" y="294.88"/>
      </g>
     </g>
     <g id="text_3">
      <!-- 4 -->
      <defs>
       <path d="M 37.796875 64.3125 
L 12.890625 25.390625 
L 37.796875 25.390625 
z
M 35.203125 72.90625 
L 47.609375 72.90625 
L 47.609375 25.390625 
L 58.015625 25.390625 
L 58.015625 17.1875 
L 47.609375 17.1875 
L 47.609375 0 
L 37.796875 0 
L 37.796875 17.1875 
L 4.890625 17.1875 
L 4.890625 26.703125 
z
" id="DejaVuSans-34"/>
      </defs>
      <g transform="translate(208.220173 317.076875)scale(0.2 -0.2)">
       <use xlink:href="#DejaVuSans-34"/>
      </g>
     </g>
    </g>
    <g id="xtick_4">
     <g id="line2d_7">
      <path clip-path="url(#p23207ba58d)" d="M 293.814009 294.88 
L 293.814009 6.845228 
" style="fill:none;stroke:#b0b0b0;stroke-linecap:square;stroke-width:0.8;"/>
     </g>
     <g id="line2d_8">
      <g>
       <use style="stroke:#000000;stroke-width:0.8;" x="293.814009" xlink:href="#m171b84dad1" y="294.88"/>
      </g>
     </g>
     <g id="text_4">
      <!-- 6 -->
      <defs>
       <path d="M 33.015625 40.375 
Q 26.375 40.375 22.484375 35.828125 
Q 18.609375 31.296875 18.609375 23.390625 
Q 18.609375 15.53125 22.484375 10.953125 
Q 26.375 6.390625 33.015625 6.390625 
Q 39.65625 6.390625 43.53125 10.953125 
Q 47.40625 15.53125 47.40625 23.390625 
Q 47.40625 31.296875 43.53125 35.828125 
Q 39.65625 40.375 33.015625 40.375 
z
M 52.59375 71.296875 
L 52.59375 62.3125 
Q 48.875 64.0625 45.09375 64.984375 
Q 41.3125 65.921875 37.59375 65.921875 
Q 27.828125 65.921875 22.671875 59.328125 
Q 17.53125 52.734375 16.796875 39.40625 
Q 19.671875 43.65625 24.015625 45.921875 
Q 28.375 48.1875 33.59375 48.1875 
Q 44.578125 48.1875 50.953125 41.515625 
Q 57.328125 34.859375 57.328125 23.390625 
Q 57.328125 12.15625 50.6875 5.359375 
Q 44.046875 -1.421875 33.015625 -1.421875 
Q 20.359375 -1.421875 13.671875 8.265625 
Q 6.984375 17.96875 6.984375 36.375 
Q 6.984375 53.65625 15.1875 63.9375 
Q 23.390625 74.21875 37.203125 74.21875 
Q 40.921875 74.21875 44.703125 73.484375 
Q 48.484375 72.75 52.59375 71.296875 
z
" id="DejaVuSans-36"/>
      </defs>
      <g transform="translate(287.451509 317.076875)scale(0.2 -0.2)">
       <use xlink:href="#DejaVuSans-36"/>
      </g>
     </g>
    </g>
    <g id="xtick_5">
     <g id="line2d_9">
      <path clip-path="url(#p23207ba58d)" d="M 373.045346 294.88 
L 373.045346 6.845228 
" style="fill:none;stroke:#b0b0b0;stroke-linecap:square;stroke-width:0.8;"/>
     </g>
     <g id="line2d_10">
      <g>
       <use style="stroke:#000000;stroke-width:0.8;" x="373.045346" xlink:href="#m171b84dad1" y="294.88"/>
      </g>
     </g>
     <g id="text_5">
      <!-- 8 -->
      <defs>
       <path d="M 31.78125 34.625 
Q 24.75 34.625 20.71875 30.859375 
Q 16.703125 27.09375 16.703125 20.515625 
Q 16.703125 13.921875 20.71875 10.15625 
Q 24.75 6.390625 31.78125 6.390625 
Q 38.8125 6.390625 42.859375 10.171875 
Q 46.921875 13.96875 46.921875 20.515625 
Q 46.921875 27.09375 42.890625 30.859375 
Q 38.875 34.625 31.78125 34.625 
z
M 21.921875 38.8125 
Q 15.578125 40.375 12.03125 44.71875 
Q 8.5 49.078125 8.5 55.328125 
Q 8.5 64.0625 14.71875 69.140625 
Q 20.953125 74.21875 31.78125 74.21875 
Q 42.671875 74.21875 48.875 69.140625 
Q 55.078125 64.0625 55.078125 55.328125 
Q 55.078125 49.078125 51.53125 44.71875 
Q 48 40.375 41.703125 38.8125 
Q 48.828125 37.15625 52.796875 32.3125 
Q 56.78125 27.484375 56.78125 20.515625 
Q 56.78125 9.90625 50.3125 4.234375 
Q 43.84375 -1.421875 31.78125 -1.421875 
Q 19.734375 -1.421875 13.25 4.234375 
Q 6.78125 9.90625 6.78125 20.515625 
Q 6.78125 27.484375 10.78125 32.3125 
Q 14.796875 37.15625 21.921875 38.8125 
z
M 18.3125 54.390625 
Q 18.3125 48.734375 21.84375 45.5625 
Q 25.390625 42.390625 31.78125 42.390625 
Q 38.140625 42.390625 41.71875 45.5625 
Q 45.3125 48.734375 45.3125 54.390625 
Q 45.3125 60.0625 41.71875 63.234375 
Q 38.140625 66.40625 31.78125 66.40625 
Q 25.390625 66.40625 21.84375 63.234375 
Q 18.3125 60.0625 18.3125 54.390625 
z
" id="DejaVuSans-38"/>
      </defs>
      <g transform="translate(366.682846 317.076875)scale(0.2 -0.2)">
       <use xlink:href="#DejaVuSans-38"/>
      </g>
     </g>
    </g>
    <g id="text_6">
     <!-- log10(# f-evals / dimension) -->
     <defs>
      <path d="M 9.421875 75.984375 
L 18.40625 75.984375 
L 18.40625 0 
L 9.421875 0 
z
" id="DejaVuSans-6c"/>
      <path d="M 30.609375 48.390625 
Q 23.390625 48.390625 19.1875 42.75 
Q 14.984375 37.109375 14.984375 27.296875 
Q 14.984375 17.484375 19.15625 11.84375 
Q 23.34375 6.203125 30.609375 6.203125 
Q 37.796875 6.203125 41.984375 11.859375 
Q 46.1875 17.53125 46.1875 27.296875 
Q 46.1875 37.015625 41.984375 42.703125 
Q 37.796875 48.390625 30.609375 48.390625 
z
M 30.609375 56 
Q 42.328125 56 49.015625 48.375 
Q 55.71875 40.765625 55.71875 27.296875 
Q 55.71875 13.875 49.015625 6.21875 
Q 42.328125 -1.421875 30.609375 -1.421875 
Q 18.84375 -1.421875 12.171875 6.21875 
Q 5.515625 13.875 5.515625 27.296875 
Q 5.515625 40.765625 12.171875 48.375 
Q 18.84375 56 30.609375 56 
z
" id="DejaVuSans-6f"/>
      <path d="M 45.40625 27.984375 
Q 45.40625 37.75 41.375 43.109375 
Q 37.359375 48.484375 30.078125 48.484375 
Q 22.859375 48.484375 18.828125 43.109375 
Q 14.796875 37.75 14.796875 27.984375 
Q 14.796875 18.265625 18.828125 12.890625 
Q 22.859375 7.515625 30.078125 7.515625 
Q 37.359375 7.515625 41.375 12.890625 
Q 45.40625 18.265625 45.40625 27.984375 
z
M 54.390625 6.78125 
Q 54.390625 -7.171875 48.1875 -13.984375 
Q 42 -20.796875 29.203125 -20.796875 
Q 24.46875 -20.796875 20.265625 -20.09375 
Q 16.0625 -19.390625 12.109375 -17.921875 
L 12.109375 -9.1875 
Q 16.0625 -11.328125 19.921875 -12.34375 
Q 23.78125 -13.375 27.78125 -13.375 
Q 36.625 -13.375 41.015625 -8.765625 
Q 45.40625 -4.15625 45.40625 5.171875 
L 45.40625 9.625 
Q 42.625 4.78125 38.28125 2.390625 
Q 33.9375 0 27.875 0 
Q 17.828125 0 11.671875 7.65625 
Q 5.515625 15.328125 5.515625 27.984375 
Q 5.515625 40.671875 11.671875 48.328125 
Q 17.828125 56 27.875 56 
Q 33.9375 56 38.28125 53.609375 
Q 42.625 51.21875 45.40625 46.390625 
L 45.40625 54.6875 
L 54.390625 54.6875 
z
" id="DejaVuSans-67"/>
      <path d="M 12.40625 8.296875 
L 28.515625 8.296875 
L 28.515625 63.921875 
L 10.984375 60.40625 
L 10.984375 69.390625 
L 28.421875 72.90625 
L 38.28125 72.90625 
L 38.28125 8.296875 
L 54.390625 8.296875 
L 54.390625 0 
L 12.40625 0 
z
" id="DejaVuSans-31"/>
      <path d="M 31 75.875 
Q 24.46875 64.65625 21.28125 53.65625 
Q 18.109375 42.671875 18.109375 31.390625 
Q 18.109375 20.125 21.3125 9.0625 
Q 24.515625 -2 31 -13.1875 
L 23.1875 -13.1875 
Q 15.875 -1.703125 12.234375 9.375 
Q 8.59375 20.453125 8.59375 31.390625 
Q 8.59375 42.28125 12.203125 53.3125 
Q 15.828125 64.359375 23.1875 75.875 
z
" id="DejaVuSans-28"/>
      <path d="M 51.125 44 
L 36.921875 44 
L 32.8125 27.6875 
L 47.125 27.6875 
z
M 43.796875 71.78125 
L 38.71875 51.515625 
L 52.984375 51.515625 
L 58.109375 71.78125 
L 65.921875 71.78125 
L 60.890625 51.515625 
L 76.125 51.515625 
L 76.125 44 
L 58.984375 44 
L 54.984375 27.6875 
L 70.515625 27.6875 
L 70.515625 20.21875 
L 53.078125 20.21875 
L 48 0 
L 40.1875 0 
L 45.21875 20.21875 
L 30.90625 20.21875 
L 25.875 0 
L 18.015625 0 
L 23.09375 20.21875 
L 7.71875 20.21875 
L 7.71875 27.6875 
L 24.90625 27.6875 
L 29 44 
L 13.28125 44 
L 13.28125 51.515625 
L 30.90625 51.515625 
L 35.890625 71.78125 
z
" id="DejaVuSans-23"/>
      <path id="DejaVuSans-20"/>
      <path d="M 37.109375 75.984375 
L 37.109375 68.5 
L 28.515625 68.5 
Q 23.6875 68.5 21.796875 66.546875 
Q 19.921875 64.59375 19.921875 59.515625 
L 19.921875 54.6875 
L 34.71875 54.6875 
L 34.71875 47.703125 
L 19.921875 47.703125 
L 19.921875 0 
L 10.890625 0 
L 10.890625 47.703125 
L 2.296875 47.703125 
L 2.296875 54.6875 
L 10.890625 54.6875 
L 10.890625 58.5 
Q 10.890625 67.625 15.140625 71.796875 
Q 19.390625 75.984375 28.609375 75.984375 
z
" id="DejaVuSans-66"/>
      <path d="M 4.890625 31.390625 
L 31.203125 31.390625 
L 31.203125 23.390625 
L 4.890625 23.390625 
z
" id="DejaVuSans-2d"/>
      <path d="M 56.203125 29.59375 
L 56.203125 25.203125 
L 14.890625 25.203125 
Q 15.484375 15.921875 20.484375 11.0625 
Q 25.484375 6.203125 34.421875 6.203125 
Q 39.59375 6.203125 44.453125 7.46875 
Q 49.3125 8.734375 54.109375 11.28125 
L 54.109375 2.78125 
Q 49.265625 0.734375 44.1875 -0.34375 
Q 39.109375 -1.421875 33.890625 -1.421875 
Q 20.796875 -1.421875 13.15625 6.1875 
Q 5.515625 13.8125 5.515625 26.8125 
Q 5.515625 40.234375 12.765625 48.109375 
Q 20.015625 56 32.328125 56 
Q 43.359375 56 49.78125 48.890625 
Q 56.203125 41.796875 56.203125 29.59375 
z
M 47.21875 32.234375 
Q 47.125 39.59375 43.09375 43.984375 
Q 39.0625 48.390625 32.421875 48.390625 
Q 24.90625 48.390625 20.390625 44.140625 
Q 15.875 39.890625 15.1875 32.171875 
z
" id="DejaVuSans-65"/>
      <path d="M 2.984375 54.6875 
L 12.5 54.6875 
L 29.59375 8.796875 
L 46.6875 54.6875 
L 56.203125 54.6875 
L 35.6875 0 
L 23.484375 0 
z
" id="DejaVuSans-76"/>
      <path d="M 34.28125 27.484375 
Q 23.390625 27.484375 19.1875 25 
Q 14.984375 22.515625 14.984375 16.5 
Q 14.984375 11.71875 18.140625 8.90625 
Q 21.296875 6.109375 26.703125 6.109375 
Q 34.1875 6.109375 38.703125 11.40625 
Q 43.21875 16.703125 43.21875 25.484375 
L 43.21875 27.484375 
z
M 52.203125 31.203125 
L 52.203125 0 
L 43.21875 0 
L 43.21875 8.296875 
Q 40.140625 3.328125 35.546875 0.953125 
Q 30.953125 -1.421875 24.3125 -1.421875 
Q 15.921875 -1.421875 10.953125 3.296875 
Q 6 8.015625 6 15.921875 
Q 6 25.140625 12.171875 29.828125 
Q 18.359375 34.515625 30.609375 34.515625 
L 43.21875 34.515625 
L 43.21875 35.40625 
Q 43.21875 41.609375 39.140625 45 
Q 35.0625 48.390625 27.6875 48.390625 
Q 23 48.390625 18.546875 47.265625 
Q 14.109375 46.140625 10.015625 43.890625 
L 10.015625 52.203125 
Q 14.9375 54.109375 19.578125 55.046875 
Q 24.21875 56 28.609375 56 
Q 40.484375 56 46.34375 49.84375 
Q 52.203125 43.703125 52.203125 31.203125 
z
" id="DejaVuSans-61"/>
      <path d="M 44.28125 53.078125 
L 44.28125 44.578125 
Q 40.484375 46.53125 36.375 47.5 
Q 32.28125 48.484375 27.875 48.484375 
Q 21.1875 48.484375 17.84375 46.4375 
Q 14.5 44.390625 14.5 40.28125 
Q 14.5 37.15625 16.890625 35.375 
Q 19.28125 33.59375 26.515625 31.984375 
L 29.59375 31.296875 
Q 39.15625 29.25 43.1875 25.515625 
Q 47.21875 21.78125 47.21875 15.09375 
Q 47.21875 7.46875 41.1875 3.015625 
Q 35.15625 -1.421875 24.609375 -1.421875 
Q 20.21875 -1.421875 15.453125 -0.5625 
Q 10.6875 0.296875 5.421875 2 
L 5.421875 11.28125 
Q 10.40625 8.6875 15.234375 7.390625 
Q 20.0625 6.109375 24.8125 6.109375 
Q 31.15625 6.109375 34.5625 8.28125 
Q 37.984375 10.453125 37.984375 14.40625 
Q 37.984375 18.0625 35.515625 20.015625 
Q 33.0625 21.96875 24.703125 23.78125 
L 21.578125 24.515625 
Q 13.234375 26.265625 9.515625 29.90625 
Q 5.8125 33.546875 5.8125 39.890625 
Q 5.8125 47.609375 11.28125 51.796875 
Q 16.75 56 26.8125 56 
Q 31.78125 56 36.171875 55.265625 
Q 40.578125 54.546875 44.28125 53.078125 
z
" id="DejaVuSans-73"/>
      <path d="M 25.390625 72.90625 
L 33.6875 72.90625 
L 8.296875 -9.28125 
L 0 -9.28125 
z
" id="DejaVuSans-2f"/>
      <path d="M 45.40625 46.390625 
L 45.40625 75.984375 
L 54.390625 75.984375 
L 54.390625 0 
L 45.40625 0 
L 45.40625 8.203125 
Q 42.578125 3.328125 38.25 0.953125 
Q 33.9375 -1.421875 27.875 -1.421875 
Q 17.96875 -1.421875 11.734375 6.484375 
Q 5.515625 14.40625 5.515625 27.296875 
Q 5.515625 40.1875 11.734375 48.09375 
Q 17.96875 56 27.875 56 
Q 33.9375 56 38.25 53.625 
Q 42.578125 51.265625 45.40625 46.390625 
z
M 14.796875 27.296875 
Q 14.796875 17.390625 18.875 11.75 
Q 22.953125 6.109375 30.078125 6.109375 
Q 37.203125 6.109375 41.296875 11.75 
Q 45.40625 17.390625 45.40625 27.296875 
Q 45.40625 37.203125 41.296875 42.84375 
Q 37.203125 48.484375 30.078125 48.484375 
Q 22.953125 48.484375 18.875 42.84375 
Q 14.796875 37.203125 14.796875 27.296875 
z
" id="DejaVuSans-64"/>
      <path d="M 9.421875 54.6875 
L 18.40625 54.6875 
L 18.40625 0 
L 9.421875 0 
z
M 9.421875 75.984375 
L 18.40625 75.984375 
L 18.40625 64.59375 
L 9.421875 64.59375 
z
" id="DejaVuSans-69"/>
      <path d="M 52 44.1875 
Q 55.375 50.25 60.0625 53.125 
Q 64.75 56 71.09375 56 
Q 79.640625 56 84.28125 50.015625 
Q 88.921875 44.046875 88.921875 33.015625 
L 88.921875 0 
L 79.890625 0 
L 79.890625 32.71875 
Q 79.890625 40.578125 77.09375 44.375 
Q 74.3125 48.1875 68.609375 48.1875 
Q 61.625 48.1875 57.5625 43.546875 
Q 53.515625 38.921875 53.515625 30.90625 
L 53.515625 0 
L 44.484375 0 
L 44.484375 32.71875 
Q 44.484375 40.625 41.703125 44.40625 
Q 38.921875 48.1875 33.109375 48.1875 
Q 26.21875 48.1875 22.15625 43.53125 
Q 18.109375 38.875 18.109375 30.90625 
L 18.109375 0 
L 9.078125 0 
L 9.078125 54.6875 
L 18.109375 54.6875 
L 18.109375 46.1875 
Q 21.1875 51.21875 25.484375 53.609375 
Q 29.78125 56 35.6875 56 
Q 41.65625 56 45.828125 52.96875 
Q 50 49.953125 52 44.1875 
z
" id="DejaVuSans-6d"/>
      <path d="M 54.890625 33.015625 
L 54.890625 0 
L 45.90625 0 
L 45.90625 32.71875 
Q 45.90625 40.484375 42.875 44.328125 
Q 39.84375 48.1875 33.796875 48.1875 
Q 26.515625 48.1875 22.3125 43.546875 
Q 18.109375 38.921875 18.109375 30.90625 
L 18.109375 0 
L 9.078125 0 
L 9.078125 54.6875 
L 18.109375 54.6875 
L 18.109375 46.1875 
Q 21.34375 51.125 25.703125 53.5625 
Q 30.078125 56 35.796875 56 
Q 45.21875 56 50.046875 50.171875 
Q 54.890625 44.34375 54.890625 33.015625 
z
" id="DejaVuSans-6e"/>
      <path d="M 8.015625 75.875 
L 15.828125 75.875 
Q 23.140625 64.359375 26.78125 53.3125 
Q 30.421875 42.28125 30.421875 31.390625 
Q 30.421875 20.453125 26.78125 9.375 
Q 23.140625 -1.703125 15.828125 -13.1875 
L 8.015625 -13.1875 
Q 14.5 -2 17.703125 9.0625 
Q 20.90625 20.125 20.90625 31.390625 
Q 20.90625 42.671875 17.703125 53.65625 
Q 14.5 64.65625 8.015625 75.875 
z
" id="DejaVuSans-29"/>
     </defs>
     <g transform="translate(107.211219 338.153594)scale(0.17 -0.17)">
      <use xlink:href="#DejaVuSans-6c"/>
      <use x="27.783203" xlink:href="#DejaVuSans-6f"/>
      <use x="88.964844" xlink:href="#DejaVuSans-67"/>
      <use x="152.441406" xlink:href="#DejaVuSans-31"/>
      <use x="216.064453" xlink:href="#DejaVuSans-30"/>
      <use x="279.6875" xlink:href="#DejaVuSans-28"/>
      <use x="318.701172" xlink:href="#DejaVuSans-23"/>
      <use x="402.490234" xlink:href="#DejaVuSans-20"/>
      <use x="434.277344" xlink:href="#DejaVuSans-66"/>
      <use x="469.404297" xlink:href="#DejaVuSans-2d"/>
      <use x="505.488281" xlink:href="#DejaVuSans-65"/>
      <use x="567.011719" xlink:href="#DejaVuSans-76"/>
      <use x="626.191406" xlink:href="#DejaVuSans-61"/>
      <use x="687.470703" xlink:href="#DejaVuSans-6c"/>
      <use x="715.253906" xlink:href="#DejaVuSans-73"/>
      <use x="767.353516" xlink:href="#DejaVuSans-20"/>
      <use x="799.140625" xlink:href="#DejaVuSans-2f"/>
      <use x="832.832031" xlink:href="#DejaVuSans-20"/>
      <use x="864.619141" xlink:href="#DejaVuSans-64"/>
      <use x="928.095703" xlink:href="#DejaVuSans-69"/>
      <use x="955.878906" xlink:href="#DejaVuSans-6d"/>
      <use x="1053.291016" xlink:href="#DejaVuSans-65"/>
      <use x="1114.814453" xlink:href="#DejaVuSans-6e"/>
      <use x="1178.193359" xlink:href="#DejaVuSans-73"/>
      <use x="1230.292969" xlink:href="#DejaVuSans-69"/>
      <use x="1258.076172" xlink:href="#DejaVuSans-6f"/>
      <use x="1319.257812" xlink:href="#DejaVuSans-6e"/>
      <use x="1382.636719" xlink:href="#DejaVuSans-29"/>
     </g>
    </g>
   </g>
   <g id="matplotlib.axis_2">
    <g id="ytick_1">
     <g id="line2d_11">
      <path clip-path="url(#p23207ba58d)" d="M 56.12 294.88 
L 399.984 294.88 
" style="fill:none;stroke:#b0b0b0;stroke-linecap:square;stroke-width:0.8;"/>
     </g>
     <g id="line2d_12">
      <defs>
       <path d="M 0 0 
L -3.5 0 
" id="m5fa1c178f3" style="stroke:#000000;stroke-width:0.8;"/>
      </defs>
      <g>
       <use style="stroke:#000000;stroke-width:0.8;" x="56.12" xlink:href="#m5fa1c178f3" y="294.88"/>
      </g>
     </g>
     <g id="text_7">
      <!-- 0.0 -->
      <defs>
       <path d="M 10.6875 12.40625 
L 21 12.40625 
L 21 0 
L 10.6875 0 
z
" id="DejaVuSans-2e"/>
      </defs>
      <g transform="translate(23.675 300.95875)scale(0.16 -0.16)">
       <use xlink:href="#DejaVuSans-30"/>
       <use x="63.623047" xlink:href="#DejaVuSans-2e"/>
       <use x="95.410156" xlink:href="#DejaVuSans-30"/>
      </g>
     </g>
    </g>
    <g id="ytick_2">
     <g id="line2d_13">
      <path clip-path="url(#p23207ba58d)" d="M 56.12 237.843411 
L 399.984 237.843411 
" style="fill:none;stroke:#b0b0b0;stroke-linecap:square;stroke-width:0.8;"/>
     </g>
     <g id="line2d_14">
      <g>
       <use style="stroke:#000000;stroke-width:0.8;" x="56.12" xlink:href="#m5fa1c178f3" y="237.843411"/>
      </g>
     </g>
     <g id="text_8">
      <!-- 0.2 -->
      <g transform="translate(23.675 243.922161)scale(0.16 -0.16)">
       <use xlink:href="#DejaVuSans-30"/>
       <use x="63.623047" xlink:href="#DejaVuSans-2e"/>
       <use x="95.410156" xlink:href="#DejaVuSans-32"/>
      </g>
     </g>
    </g>
    <g id="ytick_3">
     <g id="line2d_15">
      <path clip-path="url(#p23207ba58d)" d="M 56.12 180.806823 
L 399.984 180.806823 
" style="fill:none;stroke:#b0b0b0;stroke-linecap:square;stroke-width:0.8;"/>
     </g>
     <g id="line2d_16">
      <g>
       <use style="stroke:#000000;stroke-width:0.8;" x="56.12" xlink:href="#m5fa1c178f3" y="180.806823"/>
      </g>
     </g>
     <g id="text_9">
      <!-- 0.4 -->
      <g transform="translate(23.675 186.885573)scale(0.16 -0.16)">
       <use xlink:href="#DejaVuSans-30"/>
       <use x="63.623047" xlink:href="#DejaVuSans-2e"/>
       <use x="95.410156" xlink:href="#DejaVuSans-34"/>
      </g>
     </g>
    </g>
    <g id="ytick_4">
     <g id="line2d_17">
      <path clip-path="url(#p23207ba58d)" d="M 56.12 123.770234 
L 399.984 123.770234 
" style="fill:none;stroke:#b0b0b0;stroke-linecap:square;stroke-width:0.8;"/>
     </g>
     <g id="line2d_18">
      <g>
       <use style="stroke:#000000;stroke-width:0.8;" x="56.12" xlink:href="#m5fa1c178f3" y="123.770234"/>
      </g>
     </g>
     <g id="text_10">
      <!-- 0.6 -->
      <g transform="translate(23.675 129.848984)scale(0.16 -0.16)">
       <use xlink:href="#DejaVuSans-30"/>
       <use x="63.623047" xlink:href="#DejaVuSans-2e"/>
       <use x="95.410156" xlink:href="#DejaVuSans-36"/>
      </g>
     </g>
    </g>
    <g id="ytick_5">
     <g id="line2d_19">
      <path clip-path="url(#p23207ba58d)" d="M 56.12 66.733646 
L 399.984 66.733646 
" style="fill:none;stroke:#b0b0b0;stroke-linecap:square;stroke-width:0.8;"/>
     </g>
     <g id="line2d_20">
      <g>
       <use style="stroke:#000000;stroke-width:0.8;" x="56.12" xlink:href="#m5fa1c178f3" y="66.733646"/>
      </g>
     </g>
     <g id="text_11">
      <!-- 0.8 -->
      <g transform="translate(23.675 72.812396)scale(0.16 -0.16)">
       <use xlink:href="#DejaVuSans-30"/>
       <use x="63.623047" xlink:href="#DejaVuSans-2e"/>
       <use x="95.410156" xlink:href="#DejaVuSans-38"/>
      </g>
     </g>
    </g>
    <g id="ytick_6">
     <g id="line2d_21">
      <path clip-path="url(#p23207ba58d)" d="M 56.12 9.697057 
L 399.984 9.697057 
" style="fill:none;stroke:#b0b0b0;stroke-linecap:square;stroke-width:0.8;"/>
     </g>
     <g id="line2d_22">
      <g>
       <use style="stroke:#000000;stroke-width:0.8;" x="56.12" xlink:href="#m5fa1c178f3" y="9.697057"/>
      </g>
     </g>
     <g id="text_12">
      <!-- 1.0 -->
      <g transform="translate(23.675 15.775807)scale(0.16 -0.16)">
       <use xlink:href="#DejaVuSans-31"/>
       <use x="63.623047" xlink:href="#DejaVuSans-2e"/>
       <use x="95.410156" xlink:href="#DejaVuSans-30"/>
      </g>
     </g>
    </g>
    <g id="text_13">
     <!-- Fraction of function,target pairs -->
     <defs>
      <path d="M 9.8125 72.90625 
L 51.703125 72.90625 
L 51.703125 64.59375 
L 19.671875 64.59375 
L 19.671875 43.109375 
L 48.578125 43.109375 
L 48.578125 34.8125 
L 19.671875 34.8125 
L 19.671875 0 
L 9.8125 0 
z
" id="DejaVuSans-46"/>
      <path d="M 41.109375 46.296875 
Q 39.59375 47.171875 37.8125 47.578125 
Q 36.03125 48 33.890625 48 
Q 26.265625 48 22.1875 43.046875 
Q 18.109375 38.09375 18.109375 28.8125 
L 18.109375 0 
L 9.078125 0 
L 9.078125 54.6875 
L 18.109375 54.6875 
L 18.109375 46.1875 
Q 20.953125 51.171875 25.484375 53.578125 
Q 30.03125 56 36.53125 56 
Q 37.453125 56 38.578125 55.875 
Q 39.703125 55.765625 41.0625 55.515625 
z
" id="DejaVuSans-72"/>
      <path d="M 48.78125 52.59375 
L 48.78125 44.1875 
Q 44.96875 46.296875 41.140625 47.34375 
Q 37.3125 48.390625 33.40625 48.390625 
Q 24.65625 48.390625 19.8125 42.84375 
Q 14.984375 37.3125 14.984375 27.296875 
Q 14.984375 17.28125 19.8125 11.734375 
Q 24.65625 6.203125 33.40625 6.203125 
Q 37.3125 6.203125 41.140625 7.25 
Q 44.96875 8.296875 48.78125 10.40625 
L 48.78125 2.09375 
Q 45.015625 0.34375 40.984375 -0.53125 
Q 36.96875 -1.421875 32.421875 -1.421875 
Q 20.0625 -1.421875 12.78125 6.34375 
Q 5.515625 14.109375 5.515625 27.296875 
Q 5.515625 40.671875 12.859375 48.328125 
Q 20.21875 56 33.015625 56 
Q 37.15625 56 41.109375 55.140625 
Q 45.0625 54.296875 48.78125 52.59375 
z
" id="DejaVuSans-63"/>
      <path d="M 18.3125 70.21875 
L 18.3125 54.6875 
L 36.8125 54.6875 
L 36.8125 47.703125 
L 18.3125 47.703125 
L 18.3125 18.015625 
Q 18.3125 11.328125 20.140625 9.421875 
Q 21.96875 7.515625 27.59375 7.515625 
L 36.8125 7.515625 
L 36.8125 0 
L 27.59375 0 
Q 17.1875 0 13.234375 3.875 
Q 9.28125 7.765625 9.28125 18.015625 
L 9.28125 47.703125 
L 2.6875 47.703125 
L 2.6875 54.6875 
L 9.28125 54.6875 
L 9.28125 70.21875 
z
" id="DejaVuSans-74"/>
      <path d="M 8.5 21.578125 
L 8.5 54.6875 
L 17.484375 54.6875 
L 17.484375 21.921875 
Q 17.484375 14.15625 20.5 10.265625 
Q 23.53125 6.390625 29.59375 6.390625 
Q 36.859375 6.390625 41.078125 11.03125 
Q 45.3125 15.671875 45.3125 23.6875 
L 45.3125 54.6875 
L 54.296875 54.6875 
L 54.296875 0 
L 45.3125 0 
L 45.3125 8.40625 
Q 42.046875 3.421875 37.71875 1 
Q 33.40625 -1.421875 27.6875 -1.421875 
Q 18.265625 -1.421875 13.375 4.4375 
Q 8.5 10.296875 8.5 21.578125 
z
M 31.109375 56 
z
" id="DejaVuSans-75"/>
      <path d="M 11.71875 12.40625 
L 22.015625 12.40625 
L 22.015625 4 
L 14.015625 -11.625 
L 7.71875 -11.625 
L 11.71875 4 
z
" id="DejaVuSans-2c"/>
      <path d="M 18.109375 8.203125 
L 18.109375 -20.796875 
L 9.078125 -20.796875 
L 9.078125 54.6875 
L 18.109375 54.6875 
L 18.109375 46.390625 
Q 20.953125 51.265625 25.265625 53.625 
Q 29.59375 56 35.59375 56 
Q 45.5625 56 51.78125 48.09375 
Q 58.015625 40.1875 58.015625 27.296875 
Q 58.015625 14.40625 51.78125 6.484375 
Q 45.5625 -1.421875 35.59375 -1.421875 
Q 29.59375 -1.421875 25.265625 0.953125 
Q 20.953125 3.328125 18.109375 8.203125 
z
M 48.6875 27.296875 
Q 48.6875 37.203125 44.609375 42.84375 
Q 40.53125 48.484375 33.40625 48.484375 
Q 26.265625 48.484375 22.1875 42.84375 
Q 18.109375 37.203125 18.109375 27.296875 
Q 18.109375 17.390625 22.1875 11.75 
Q 26.265625 6.109375 33.40625 6.109375 
Q 40.53125 6.109375 44.609375 11.75 
Q 48.6875 17.390625 48.6875 27.296875 
z
" id="DejaVuSans-70"/>
     </defs>
     <g transform="translate(16.139531 286.001989)rotate(-90)scale(0.17 -0.17)">
      <use xlink:href="#DejaVuSans-46"/>
      <use x="57.410156" xlink:href="#DejaVuSans-72"/>
      <use x="98.523438" xlink:href="#DejaVuSans-61"/>
      <use x="159.802734" xlink:href="#DejaVuSans-63"/>
      <use x="214.783203" xlink:href="#DejaVuSans-74"/>
      <use x="253.992188" xlink:href="#DejaVuSans-69"/>
      <use x="281.775391" xlink:href="#DejaVuSans-6f"/>
      <use x="342.957031" xlink:href="#DejaVuSans-6e"/>
      <use x="406.335938" xlink:href="#DejaVuSans-20"/>
      <use x="438.123047" xlink:href="#DejaVuSans-6f"/>
      <use x="499.304688" xlink:href="#DejaVuSans-66"/>
      <use x="534.509766" xlink:href="#DejaVuSans-20"/>
      <use x="566.296875" xlink:href="#DejaVuSans-66"/>
      <use x="601.501953" xlink:href="#DejaVuSans-75"/>
      <use x="664.880859" xlink:href="#DejaVuSans-6e"/>
      <use x="728.259766" xlink:href="#DejaVuSans-63"/>
      <use x="783.240234" xlink:href="#DejaVuSans-74"/>
      <use x="822.449219" xlink:href="#DejaVuSans-69"/>
      <use x="850.232422" xlink:href="#DejaVuSans-6f"/>
      <use x="911.414062" xlink:href="#DejaVuSans-6e"/>
      <use x="974.792969" xlink:href="#DejaVuSans-2c"/>
      <use x="1006.580078" xlink:href="#DejaVuSans-74"/>
      <use x="1045.789062" xlink:href="#DejaVuSans-61"/>
      <use x="1107.068359" xlink:href="#DejaVuSans-72"/>
      <use x="1148.166016" xlink:href="#DejaVuSans-67"/>
      <use x="1211.642578" xlink:href="#DejaVuSans-65"/>
      <use x="1273.166016" xlink:href="#DejaVuSans-74"/>
      <use x="1312.375" xlink:href="#DejaVuSans-20"/>
      <use x="1344.162109" xlink:href="#DejaVuSans-70"/>
      <use x="1407.638672" xlink:href="#DejaVuSans-61"/>
      <use x="1468.917969" xlink:href="#DejaVuSans-69"/>
      <use x="1496.701172" xlink:href="#DejaVuSans-72"/>
      <use x="1537.814453" xlink:href="#DejaVuSans-73"/>
     </g>
    </g>
   </g>
   <g id="line2d_23">
    <defs>
     <path d="M 0 1.5 
C 0.397805 1.5 0.77937 1.341951 1.06066 1.06066 
C 1.341951 0.77937 1.5 0.397805 1.5 0 
C 1.5 -0.397805 1.341951 -0.77937 1.06066 -1.06066 
C 0.77937 -1.341951 0.397805 -1.5 0 -1.5 
C -0.397805 -1.5 -0.77937 -1.341951 -1.06066 -1.06066 
C -1.341951 -0.77937 -1.5 -0.397805 -1.5 0 
C -1.5 0.397805 -1.341951 0.77937 -1.06066 1.06066 
C -0.77937 1.341951 -0.397805 1.5 0 1.5 
z
" id="m0059c669eb" style="stroke:#000080;"/>
    </defs>
    <g>
     <use style="fill:#000080;stroke:#000080;" x="301.868375" xlink:href="#m0059c669eb" y="26.472524"/>
     <use style="fill:#000080;stroke:#000080;" x="301.868375" xlink:href="#m0059c669eb" y="26.472524"/>
    </g>
   </g>
   <g id="line2d_24">
    <path d="M 101.025901 294.88 
L 101.025901 294.320818 
L 126.56265 294.320818 
L 126.56265 292.084089 
L 130.447623 292.084089 
L 130.447623 291.524907 
L 146.24885 291.524907 
L 146.24885 289.84736 
L 148.600945 289.84736 
L 148.600945 289.288178 
L 154.206873 289.288178 
L 154.206873 288.728995 
L 154.638437 288.728995 
L 154.638437 288.169813 
L 155.934271 288.169813 
L 155.934271 287.051449 
L 156.385976 287.051449 
L 156.385976 286.492266 
L 157.370505 286.492266 
L 157.370505 283.696355 
L 157.579743 283.696355 
L 157.579743 283.137173 
L 160.204854 283.137173 
L 160.204854 282.577991 
L 162.60944 282.577991 
L 162.60944 282.018808 
L 163.422636 282.018808 
L 163.422636 280.900444 
L 164.568315 280.900444 
L 164.568315 280.341262 
L 164.706306 280.341262 
L 164.706306 279.782079 
L 165.701505 279.782079 
L 165.701505 279.222897 
L 165.993814 279.222897 
L 166.086313 278.104533 
L 166.698006 278.104533 
L 166.698006 277.545351 
L 167.481169 277.545351 
L 167.481169 276.986168 
L 167.650468 276.986168 
L 167.650468 276.426986 
L 168.117879 276.426986 
L 168.117879 275.867804 
L 168.820626 275.867804 
L 168.820626 275.308622 
L 169.151874 275.308622 
L 169.151874 274.190257 
L 169.907008 274.190257 
L 169.971532 273.071893 
L 170.227236 273.071893 
L 170.236298 270.275981 
L 170.443425 270.275981 
L 170.55051 269.157617 
L 171.076158 269.157617 
L 171.076158 268.598435 
L 171.196532 268.598435 
L 171.264941 267.48007 
L 171.586221 267.48007 
L 171.586221 266.920888 
L 171.802637 266.920888 
L 171.802637 266.361706 
L 172.138472 266.361706 
L 172.19516 265.243341 
L 172.499679 265.243341 
L 172.499679 264.684159 
L 172.728502 264.684159 
L 172.728502 263.006612 
L 173.389718 263.006612 
L 173.389718 262.44743 
L 174.386106 262.44743 
L 174.386106 261.888248 
L 174.717453 261.888248 
L 174.717453 261.329066 
L 175.826084 261.329066 
L 175.826084 260.769883 
L 177.020952 260.769883 
L 177.020952 259.651519 
L 177.37159 259.651519 
L 177.37159 259.092337 
L 177.709358 259.092337 
L 177.709358 257.41479 
L 177.97141 257.41479 
L 177.988739 255.737243 
L 178.839161 255.737243 
L 178.839161 255.178061 
L 179.305358 255.178061 
L 179.305358 254.618879 
L 182.007089 254.618879 
L 182.007089 253.500514 
L 183.394056 253.500514 
L 183.394056 251.822967 
L 184.289617 251.822967 
L 184.289617 251.263785 
L 186.143512 251.263785 
L 186.143512 250.704603 
L 187.676136 250.704603 
L 187.676136 250.145421 
L 192.363954 250.145421 
L 192.363954 249.027056 
L 193.365707 249.027056 
L 193.365707 248.467874 
L 193.799524 248.467874 
L 193.799524 247.908692 
L 194.359211 247.908692 
L 194.359211 247.34951 
L 195.207448 247.34951 
L 195.207448 246.790327 
L 196.318886 246.790327 
L 196.318886 246.231145 
L 196.78598 246.231145 
L 196.78598 245.671963 
L 197.550935 245.671963 
L 197.550935 245.112781 
L 198.363002 245.112781 
L 198.363002 244.553598 
L 200.763209 244.553598 
L 200.763209 243.994416 
L 201.322545 243.994416 
L 201.322545 241.757687 
L 202.244856 241.757687 
L 202.271621 240.639323 
L 203.140315 240.639323 
L 203.140315 239.520958 
L 204.339458 239.520958 
L 204.339458 238.961776 
L 205.877514 238.961776 
L 205.877514 238.402594 
L 206.555681 238.402594 
L 206.555681 237.843411 
L 206.787836 237.843411 
L 206.787836 237.284229 
L 207.106404 237.284229 
L 207.138257 235.606682 
L 207.773464 235.606682 
L 207.849969 234.488318 
L 208.127611 234.488318 
L 208.127611 233.929136 
L 208.243396 233.929136 
L 208.243396 233.369954 
L 210.500075 233.369954 
L 210.500075 232.810771 
L 211.292115 232.810771 
L 211.292115 231.133225 
L 211.970171 231.133225 
L 211.970171 230.01486 
L 212.333193 230.01486 
L 212.333193 228.896496 
L 213.239123 228.896496 
L 213.239123 228.337313 
L 213.471195 228.337313 
L 213.471195 227.778131 
L 215.520135 227.778131 
L 215.604648 225.541402 
L 216.358942 225.541402 
L 216.358942 224.98222 
L 216.920103 224.98222 
L 216.920103 224.423038 
L 217.565103 224.423038 
L 217.565103 223.304673 
L 217.727518 223.304673 
L 217.727518 222.745491 
L 218.046693 222.745491 
L 218.046693 222.186309 
L 220.605012 222.186309 
L 220.605012 221.627126 
L 220.953528 221.627126 
L 220.953528 221.067944 
L 221.569195 221.067944 
L 221.569195 220.508762 
L 221.804629 220.508762 
L 221.857916 217.153669 
L 222.209594 217.153669 
L 222.209594 216.594486 
L 225.536712 216.594486 
L 225.536712 216.035304 
L 226.005402 216.035304 
L 226.005402 215.476122 
L 226.490619 215.476122 
L 226.490619 214.357757 
L 226.732437 214.357757 
L 226.815111 212.121028 
L 227.078093 212.121028 
L 227.078093 211.561846 
L 227.204457 211.561846 
L 227.204457 211.002664 
L 230.213024 211.002664 
L 230.213024 209.325117 
L 231.004641 209.325117 
L 231.004641 207.64757 
L 231.18676 207.64757 
L 231.18676 207.088388 
L 231.730215 207.088388 
L 231.781957 205.410841 
L 234.236625 205.410841 
L 234.325763 204.292477 
L 234.53442 204.292477 
L 234.53442 203.174112 
L 234.747399 203.174112 
L 234.838602 202.055748 
L 235.199484 202.055748 
L 235.309797 200.378201 
L 235.381236 200.378201 
L 235.381236 199.819019 
L 237.8791 199.819019 
L 237.8791 198.700655 
L 238.404236 198.700655 
L 238.404236 197.023108 
L 238.659979 197.023108 
L 238.659979 195.345561 
L 238.780117 195.345561 
L 238.780117 194.786379 
L 239.378474 194.786379 
L 239.378474 194.227197 
L 241.57609 194.227197 
L 241.57609 193.668014 
L 241.799938 193.668014 
L 241.849524 191.990468 
L 242.100895 191.990468 
L 242.110624 190.872103 
L 242.231633 190.872103 
L 242.231633 189.753739 
L 242.350016 189.753739 
L 242.350016 188.635374 
L 244.65191 188.635374 
L 244.73907 186.398645 
L 244.839193 186.398645 
L 244.839193 185.280281 
L 245.041107 185.280281 
L 245.075641 183.602734 
L 245.638329 183.602734 
L 245.638329 183.043552 
L 247.30448 183.043552 
L 247.30448 182.48437 
L 247.466045 182.48437 
L 247.575513 180.247641 
L 247.926379 180.247641 
L 247.926379 179.129276 
L 248.193718 179.129276 
L 248.193718 178.570094 
L 248.344569 178.570094 
L 248.344569 177.451729 
L 249.537887 177.451729 
L 249.537887 176.892547 
L 249.745334 176.892547 
L 249.841435 175.774183 
L 249.923067 175.774183 
L 250.00686 174.096636 
L 250.059287 174.096636 
L 250.166448 172.978271 
L 250.802054 172.978271 
L 250.802054 171.859907 
L 251.774093 171.859907 
L 251.795156 170.741543 
L 252.084328 170.741543 
L 252.170876 169.623178 
L 252.230237 169.623178 
L 252.230237 167.386449 
L 252.591386 167.386449 
L 252.591386 166.268085 
L 254.159897 166.268085 
L 254.262636 164.031356 
L 254.363811 164.031356 
L 254.363811 163.472173 
L 254.515479 163.472173 
L 254.515479 162.912991 
L 254.627135 162.912991 
L 254.640018 161.794627 
L 254.966969 161.794627 
L 254.966969 160.676262 
L 256.04646 160.676262 
L 256.04646 160.11708 
L 256.174915 160.11708 
L 256.20146 157.321169 
L 256.369215 157.321169 
L 256.470826 155.643622 
L 256.718335 155.643622 
L 256.718335 155.08444 
L 257.619882 155.08444 
L 257.619882 154.525258 
L 257.78599 154.525258 
L 257.792022 152.847711 
L 258.070553 152.847711 
L 258.132315 150.610982 
L 258.253548 150.610982 
L 258.253548 150.0518 
L 258.398157 150.0518 
L 258.398157 149.492617 
L 259.320821 149.492617 
L 259.399181 147.255888 
L 259.52608 147.255888 
L 259.560431 145.578342 
L 259.731963 145.578342 
L 259.731963 145.019159 
L 259.986908 145.019159 
L 259.986908 143.900795 
L 260.759558 143.900795 
L 260.759558 143.341613 
L 260.929696 143.341613 
L 260.929696 142.78243 
L 261.177342 142.78243 
L 261.239797 140.545702 
L 261.315365 140.545702 
L 261.34042 138.868155 
L 261.492961 138.868155 
L 261.492961 138.308973 
L 262.14021 138.308973 
L 262.184525 136.631426 
L 262.304207 136.631426 
L 262.304207 136.072244 
L 262.566043 136.072244 
L 262.639049 133.835515 
L 262.706082 133.835515 
L 262.706082 133.276332 
L 262.890728 133.276332 
L 262.890728 132.71715 
L 263.36065 132.71715 
L 263.433788 131.598786 
L 263.578461 131.598786 
L 263.677755 129.921239 
L 263.728058 129.921239 
L 263.728058 128.802874 
L 263.919797 128.802874 
L 263.919797 127.68451 
L 264.063326 127.68451 
L 264.063326 127.125328 
L 264.570829 127.125328 
L 264.6788 125.447781 
L 264.849728 125.447781 
L 264.960424 123.211052 
L 265.038812 123.211052 
L 265.078312 121.533505 
L 265.663675 121.533505 
L 265.663675 120.974323 
L 265.932186 120.974323 
L 265.932186 119.855959 
L 266.045004 119.855959 
L 266.066596 117.060047 
L 266.182723 117.060047 
L 266.182723 115.941683 
L 266.858744 115.941683 
L 266.912009 114.264136 
L 267.024512 114.264136 
L 267.071145 112.027407 
L 267.240114 112.027407 
L 267.253427 110.349861 
L 267.761392 110.349861 
L 267.761392 109.790678 
L 267.93648 109.790678 
L 268.021588 106.994767 
L 268.0805 106.994767 
L 268.0805 105.876403 
L 268.245057 105.876403 
L 268.245057 105.31722 
L 268.358841 105.31722 
L 268.358841 104.758038 
L 268.824662 104.758038 
L 268.925042 101.402945 
L 268.949148 101.402945 
L 268.956358 99.725398 
L 269.178342 99.725398 
L 269.178342 99.166216 
L 269.555311 99.166216 
L 269.555311 98.607033 
L 269.747072 98.607033 
L 269.817814 96.929487 
L 269.871254 96.929487 
L 269.883426 95.25194 
L 270.016651 95.25194 
L 270.016651 94.692758 
L 270.142287 94.692758 
L 270.142287 93.574393 
L 270.628971 93.574393 
L 270.706733 90.778482 
L 270.76135 90.778482 
L 270.870275 87.982571 
L 271.183154 87.982571 
L 271.183154 87.423389 
L 271.359442 87.423389 
L 271.442797 84.627477 
L 271.519061 84.627477 
L 271.599646 82.949931 
L 271.846463 82.949931 
L 271.846463 82.390748 
L 272.095773 82.390748 
L 272.095773 81.831566 
L 272.354894 81.831566 
L 272.442227 77.917291 
L 272.487618 77.917291 
L 272.487618 77.358108 
L 272.601483 77.358108 
L 272.601483 76.798926 
L 272.871504 76.798926 
L 272.906779 75.121379 
L 273.081778 75.121379 
L 273.159953 72.325468 
L 273.222202 72.325468 
L 273.332952 71.207104 
L 273.649083 71.207104 
L 273.744448 69.529557 
L 273.852995 69.529557 
L 273.926855 65.615281 
L 274.30561 65.615281 
L 274.387797 64.496917 
L 274.457832 64.496917 
L 274.534717 61.701006 
L 274.584872 61.701006 
L 274.622623 60.023459 
L 274.854309 60.023459 
L 274.854309 59.464277 
L 275.025889 59.464277 
L 275.134333 56.109183 
L 275.180963 56.109183 
L 275.199653 54.990819 
L 275.306869 54.990819 
L 275.306869 54.431636 
L 275.539476 54.431636 
L 275.635379 52.75409 
L 275.654947 52.75409 
L 275.654947 51.076543 
L 275.804282 51.076543 
L 275.804282 50.517361 
L 275.945256 50.517361 
L 275.948172 48.839814 
L 276.24944 48.839814 
L 276.33874 46.603085 
L 276.364679 46.603085 
L 276.466801 43.807174 
L 276.574957 43.807174 
L 276.574957 43.247992 
L 276.772471 43.247992 
L 276.882651 42.129627 
L 276.893456 42.129627 
L 276.998276 38.774534 
L 277.020884 38.774534 
L 277.076374 37.656169 
L 277.340273 37.656169 
L 277.340273 37.096987 
L 277.479107 37.096987 
L 277.531155 33.182711 
L 277.593243 33.182711 
L 277.593243 32.623529 
L 277.810112 32.623529 
L 277.921006 30.945982 
L 278.000953 30.945982 
L 278.000953 29.268436 
L 284.975201 29.268436 
L 284.993079 27.590889 
L 296.931208 27.590889 
L 296.931208 27.031707 
L 301.868375 27.031707 
L 301.868375 26.472524 
L 333.429677 26.472524 
L 333.429677 26.472524 
" style="fill:none;stroke:#000080;stroke-linecap:square;stroke-width:1.5;"/>
   </g>
   <g id="line2d_25">
    <defs>
     <path d="M 0 6 
C 1.591219 6 3.117479 5.367802 4.242641 4.242641 
C 5.367802 3.117479 6 1.591219 6 0 
C 6 -1.591219 5.367802 -3.117479 4.242641 -4.242641 
C 3.117479 -5.367802 1.591219 -6 0 -6 
C -1.591219 -6 -3.117479 -5.367802 -4.242641 -4.242641 
C -5.367802 -3.117479 -6 -1.591219 -6 0 
C -6 1.591219 -5.367802 3.117479 -4.242641 4.242641 
C -3.117479 5.367802 -1.591219 6 0 6 
z
" id="m5a442a6bfe" style="stroke:#000080;stroke-width:1.5;"/>
    </defs>
    <g>
     <use style="fill-opacity:0;stroke:#000080;stroke-width:1.5;" x="225.536712" xlink:href="#m5a442a6bfe" y="216.035304"/>
     <use style="fill-opacity:0;stroke:#000080;stroke-width:1.5;" x="259.399181" xlink:href="#m5a442a6bfe" y="147.255888"/>
     <use style="fill-opacity:0;stroke:#000080;stroke-width:1.5;" x="301.868375" xlink:href="#m5a442a6bfe" y="27.031707"/>
     <use style="fill-opacity:0;stroke:#000080;stroke-width:1.5;" x="301.868375" xlink:href="#m5a442a6bfe" y="26.472524"/>
     <use style="fill-opacity:0;stroke:#000080;stroke-width:1.5;" x="333.429677" xlink:href="#m5a442a6bfe" y="26.472524"/>
    </g>
   </g>
   <g id="line2d_26">
    <path style="fill:none;stroke:#000080;stroke-linecap:square;stroke-width:1.5;"/>
    <g/>
   </g>
   <g id="line2d_27">
    <path clip-path="url(#p23207ba58d)" d="M 266.123863 117.060047 
" style="fill:none;stroke:#000080;stroke-linecap:square;stroke-width:1.5;"/>
    <defs>
     <path d="M -12 12 
L 12 -12 
M -12 -12 
L 12 12 
" id="me0850a7ee5" style="stroke:#000080;stroke-width:3;"/>
    </defs>
    <g clip-path="url(#p23207ba58d)">
     <use style="fill:#000080;stroke:#000080;stroke-width:3;" x="266.123863" xlink:href="#me0850a7ee5" y="117.060047"/>
    </g>
   </g>
   <g id="line2d_28">
    <defs>
     <path d="M 0 1.5 
C 0.397805 1.5 0.77937 1.341951 1.06066 1.06066 
C 1.341951 0.77937 1.5 0.397805 1.5 0 
C 1.5 -0.397805 1.341951 -0.77937 1.06066 -1.06066 
C 0.77937 -1.341951 0.397805 -1.5 0 -1.5 
C -0.397805 -1.5 -0.77937 -1.341951 -1.06066 -1.06066 
C -1.341951 -0.77937 -1.5 -0.397805 -1.5 0 
C -1.5 0.397805 -1.341951 0.77937 -1.06066 1.06066 
C -0.77937 1.341951 -0.397805 1.5 0 1.5 
z
" id="m422e529c67" style="stroke:#ff00ff;"/>
    </defs>
    <g>
     <use style="fill:#ff00ff;stroke:#ff00ff;" x="299.598552" xlink:href="#m422e529c67" y="26.472524"/>
     <use style="fill:#ff00ff;stroke:#ff00ff;" x="299.598552" xlink:href="#m422e529c67" y="26.472524"/>
    </g>
   </g>
   <g id="line2d_29">
    <path d="M 40.355341 294.88 
L 40.355341 293.202453 
L 68.045504 293.202453 
L 68.045504 292.643271 
L 76.131854 292.643271 
L 76.131854 292.084089 
L 83.107827 292.084089 
L 83.107827 290.965724 
L 84.484951 290.965724 
L 84.484951 290.406542 
L 88.057358 290.406542 
L 88.057358 289.288178 
L 91.014019 289.288178 
L 91.014019 288.728995 
L 97.059773 288.728995 
L 97.059773 287.610631 
L 98.872486 287.610631 
L 98.872486 287.051449 
L 99.436631 287.051449 
L 99.436631 285.933084 
L 100.512285 285.933084 
L 100.512285 285.373902 
L 102.939523 285.373902 
L 102.939523 283.696355 
L 103.822018 283.696355 
L 103.822018 283.137173 
L 110.797991 283.137173 
L 110.797991 282.577991 
L 112.175115 282.577991 
L 112.175115 282.018808 
L 115.531106 282.018808 
L 115.531106 280.341262 
L 122.434331 280.341262 
L 122.434331 279.782079 
L 123.28764 279.782079 
L 123.28764 278.663715 
L 123.698931 278.663715 
L 123.698931 277.545351 
L 125.128081 277.545351 
L 125.128081 276.986168 
L 126.790532 276.986168 
L 126.790532 275.867804 
L 127.780222 275.867804 
L 127.780222 275.308622 
L 128.716065 275.308622 
L 128.716065 274.749439 
L 130.538896 274.749439 
L 130.629687 273.071893 
L 138.08195 273.071893 
L 138.08195 271.394346 
L 139.812259 271.394346 
L 139.812259 270.835164 
L 141.767752 270.835164 
L 141.767752 270.275981 
L 142.373128 270.275981 
L 142.373128 269.157617 
L 142.957925 269.157617 
L 142.957925 268.039252 
L 143.39462 268.039252 
L 143.39462 267.48007 
L 146.102113 267.48007 
L 146.102113 266.920888 
L 147.68488 266.920888 
L 147.68488 266.361706 
L 151.764293 266.361706 
L 151.764293 265.802523 
L 154.068309 265.802523 
L 154.068309 265.243341 
L 155.470386 265.243341 
L 155.470386 264.684159 
L 156.223088 264.684159 
L 156.223088 263.565795 
L 157.022529 263.565795 
L 157.022529 263.006612 
L 157.953776 263.006612 
L 157.953776 262.44743 
L 159.643955 262.44743 
L 159.643955 261.888248 
L 160.221077 261.888248 
L 160.221077 261.329066 
L 161.289851 261.329066 
L 161.289851 260.769883 
L 162.623548 260.769883 
L 162.623548 259.651519 
L 162.958718 259.651519 
L 162.958718 259.092337 
L 165.713293 259.092337 
L 165.713293 258.533154 
L 166.178318 258.533154 
L 166.178318 257.41479 
L 166.575153 257.41479 
L 166.575153 256.855608 
L 167.534254 256.855608 
L 167.534254 256.296425 
L 168.928494 256.296425 
L 168.928494 255.737243 
L 169.400946 255.737243 
L 169.400946 254.059696 
L 170.017473 254.059696 
L 170.017473 252.941332 
L 170.136349 252.941332 
L 170.136349 252.38215 
L 176.15677 252.38215 
L 176.220872 250.704603 
L 177.203208 250.704603 
L 177.203208 250.145421 
L 178.382565 250.145421 
L 178.382565 249.586238 
L 189.237147 249.586238 
L 189.237147 248.467874 
L 189.392578 248.467874 
L 189.392578 247.908692 
L 190.504442 247.908692 
L 190.504442 247.34951 
L 192.401467 247.34951 
L 192.401467 246.790327 
L 194.307856 246.790327 
L 194.307856 246.231145 
L 195.203203 246.231145 
L 195.203203 245.671963 
L 195.57073 245.671963 
L 195.57073 245.112781 
L 196.019873 245.112781 
L 196.019873 243.994416 
L 198.987504 243.994416 
L 198.987504 243.435234 
L 199.436462 243.435234 
L 199.436462 242.876052 
L 199.60164 242.876052 
L 199.60164 242.316869 
L 200.976994 242.316869 
L 200.976994 239.520958 
L 202.208163 239.520958 
L 202.208163 238.961776 
L 203.919991 238.961776 
L 203.919991 237.843411 
L 205.203594 237.843411 
L 205.308917 236.725047 
L 205.704288 236.725047 
L 205.704288 236.165865 
L 205.882079 236.165865 
L 205.882079 235.0475 
L 206.43455 235.0475 
L 206.43455 234.488318 
L 207.104279 234.488318 
L 207.104279 233.929136 
L 208.483447 233.929136 
L 208.523621 232.810771 
L 209.807515 232.810771 
L 209.807515 232.251589 
L 210.424 232.251589 
L 210.424 231.692407 
L 210.982716 231.692407 
L 210.982716 231.133225 
L 211.132225 231.133225 
L 211.132225 230.574042 
L 211.300446 230.574042 
L 211.300446 230.01486 
L 211.670386 230.01486 
L 211.670386 229.455678 
L 212.310433 229.455678 
L 212.310433 228.896496 
L 213.063367 228.896496 
L 213.063367 228.337313 
L 213.262174 228.337313 
L 213.262174 227.778131 
L 214.516479 227.778131 
L 214.516479 226.659767 
L 215.095236 226.659767 
L 215.152588 225.541402 
L 215.602054 225.541402 
L 215.662915 223.304673 
L 216.687238 223.304673 
L 216.687238 222.186309 
L 219.353032 222.186309 
L 219.353032 221.627126 
L 219.707146 221.627126 
L 219.707146 221.067944 
L 220.373599 221.067944 
L 220.373599 219.94958 
L 220.741226 219.94958 
L 220.741226 219.390397 
L 221.031761 219.390397 
L 221.031761 218.272033 
L 222.102354 218.272033 
L 222.102354 217.712851 
L 222.230786 217.712851 
L 222.230786 217.153669 
L 222.958624 217.153669 
L 222.958624 216.594486 
L 224.74357 216.594486 
L 224.74357 215.476122 
L 225.896286 215.476122 
L 225.896286 214.91694 
L 226.011778 214.91694 
L 226.011778 214.357757 
L 226.439911 214.357757 
L 226.439911 212.680211 
L 226.90008 212.680211 
L 226.91252 211.561846 
L 227.343672 211.561846 
L 227.343672 211.002664 
L 229.710821 211.002664 
L 229.710821 210.443482 
L 230.243238 210.443482 
L 230.243238 209.884299 
L 230.510893 209.884299 
L 230.510893 209.325117 
L 230.719311 209.325117 
L 230.719311 208.765935 
L 230.934815 208.765935 
L 230.934815 207.64757 
L 231.556097 207.64757 
L 231.626773 205.410841 
L 233.757023 205.410841 
L 233.805499 203.733295 
L 233.938053 203.733295 
L 233.938053 203.174112 
L 234.135099 203.174112 
L 234.135099 202.61493 
L 234.368961 202.61493 
L 234.368961 202.055748 
L 234.607855 202.055748 
L 234.607855 201.496566 
L 234.837542 201.496566 
L 234.86572 199.819019 
L 237.441269 199.819019 
L 237.441269 199.259837 
L 237.836225 199.259837 
L 237.836225 198.700655 
L 238.1231 198.700655 
L 238.189192 197.58229 
L 238.302425 197.58229 
L 238.302425 196.463926 
L 238.515725 196.463926 
L 238.515725 195.904743 
L 238.906788 195.904743 
L 238.906788 195.345561 
L 239.383847 195.345561 
L 239.383847 194.227197 
L 241.29489 194.227197 
L 241.29489 193.668014 
L 241.510033 193.668014 
L 241.595142 192.54965 
L 241.944202 192.54965 
L 241.944202 191.431285 
L 242.074182 191.431285 
L 242.137558 189.194556 
L 242.687596 189.194556 
L 242.687596 188.635374 
L 243.911509 188.635374 
L 243.911509 187.51701 
L 244.052954 187.51701 
L 244.052954 186.957828 
L 244.441345 186.957828 
L 244.441345 186.398645 
L 244.554907 186.398645 
L 244.554907 185.280281 
L 244.723798 185.280281 
L 244.723798 184.721099 
L 245.008382 184.721099 
L 245.076109 183.043552 
L 246.888015 183.043552 
L 246.888015 182.48437 
L 247.006231 182.48437 
L 247.055813 180.247641 
L 247.29081 180.247641 
L 247.29081 179.129276 
L 247.405584 179.129276 
L 247.497567 178.010912 
L 247.902184 178.010912 
L 247.902184 177.451729 
L 249.305606 177.451729 
L 249.305606 176.892547 
L 249.425545 176.892547 
L 249.521908 175.215 
L 249.573941 175.215 
L 249.573941 174.655818 
L 249.913889 174.655818 
L 249.913889 173.537454 
L 250.100905 173.537454 
L 250.189399 171.859907 
L 251.573018 171.859907 
L 251.573018 170.741543 
L 251.881829 170.741543 
L 251.978483 167.945631 
L 252.048261 167.945631 
L 252.048261 167.386449 
L 252.403053 167.386449 
L 252.403053 166.827267 
L 252.584358 166.827267 
L 252.584358 166.268085 
L 253.604553 166.268085 
L 253.604553 165.708902 
L 253.883449 165.708902 
L 253.953747 164.590538 
L 254.048281 164.590538 
L 254.048281 164.031356 
L 254.206253 164.031356 
L 254.217393 162.353809 
L 254.427016 162.353809 
L 254.427016 161.794627 
L 254.629887 161.794627 
L 254.629887 161.235444 
L 254.780236 161.235444 
L 254.780236 160.676262 
L 255.681964 160.676262 
L 255.681964 160.11708 
L 255.87726 160.11708 
L 255.962068 158.998715 
L 256.056223 158.998715 
L 256.156746 157.880351 
L 256.276701 157.880351 
L 256.28225 156.202804 
L 256.579872 156.202804 
L 256.579872 155.643622 
L 256.829962 155.643622 
L 256.829962 155.08444 
L 257.545715 155.08444 
L 257.545715 153.966075 
L 257.663487 153.966075 
L 257.727846 152.847711 
L 257.956761 152.847711 
L 257.956761 151.170164 
L 258.089829 151.170164 
L 258.089829 150.0518 
L 258.406781 150.0518 
L 258.406781 149.492617 
L 259.21868 149.492617 
L 259.29863 146.696706 
L 259.345178 146.696706 
L 259.35181 145.578342 
L 259.553325 145.578342 
L 259.658165 143.900795 
L 260.709855 143.900795 
L 260.813803 141.104884 
L 261.098952 141.104884 
L 261.098952 139.986519 
L 261.349005 139.986519 
L 261.349005 139.427337 
L 261.57348 139.427337 
L 261.57348 138.308973 
L 262.123112 138.308973 
L 262.146628 136.072244 
L 262.318508 136.072244 
L 262.413587 134.394697 
L 262.482948 134.394697 
L 262.482948 133.835515 
L 262.763278 133.835515 
L 262.763278 132.71715 
L 263.390281 132.71715 
L 263.463816 131.039603 
L 263.625912 131.039603 
L 263.673867 128.802874 
L 263.990484 128.802874 
L 263.990484 127.125328 
L 264.422374 127.125328 
L 264.522027 125.447781 
L 264.577719 125.447781 
L 264.6724 123.770234 
L 264.758368 123.770234 
L 264.853359 122.65187 
L 264.878828 122.65187 
L 264.878828 122.092688 
L 265.015598 122.092688 
L 265.015598 121.533505 
L 265.690444 121.533505 
L 265.79272 118.737594 
L 265.850467 118.737594 
L 265.940953 117.060047 
L 265.964585 117.060047 
L 265.964585 116.500865 
L 266.076984 116.500865 
L 266.076984 115.941683 
L 266.611843 115.941683 
L 266.611843 114.264136 
L 266.824652 114.264136 
L 266.880393 112.027407 
L 266.955472 112.027407 
L 267.056354 110.349861 
L 267.690415 110.349861 
L 267.690415 109.790678 
L 267.831921 109.790678 
L 267.868151 108.113132 
L 267.95567 108.113132 
L 267.968441 105.876403 
L 268.297176 105.876403 
L 268.297176 104.758038 
L 268.579998 104.758038 
L 268.579998 104.198856 
L 268.765504 104.198856 
L 268.876523 100.28458 
L 268.965404 100.28458 
L 268.965404 99.725398 
L 269.151439 99.725398 
L 269.151439 99.166216 
L 269.481979 99.166216 
L 269.577734 98.047851 
L 269.64093 98.047851 
L 269.702413 96.929487 
L 269.813593 96.929487 
L 269.896447 95.25194 
L 270.01075 95.25194 
L 270.120643 93.574393 
L 270.479919 93.574393 
L 270.570743 89.660118 
L 270.604006 89.660118 
L 270.712796 87.982571 
L 271.246453 87.982571 
L 271.347687 86.305024 
L 271.386149 86.305024 
L 271.434358 82.390748 
L 272.031306 82.390748 
L 272.117015 80.15402 
L 272.152633 80.15402 
L 272.213001 76.798926 
L 272.814806 76.798926 
L 272.925189 75.121379 
L 272.996555 75.121379 
L 273.036019 73.443833 
L 273.139344 73.443833 
L 273.225755 71.207104 
L 273.456615 71.207104 
L 273.560199 70.088739 
L 273.667292 70.088739 
L 273.76375 67.292828 
L 273.968105 67.292828 
L 273.970765 65.615281 
L 274.342955 65.615281 
L 274.451407 61.141823 
L 274.466457 61.141823 
L 274.466457 60.582641 
L 274.660921 60.582641 
L 274.660921 60.023459 
L 274.869197 60.023459 
L 274.956712 58.905094 
L 275.01405 58.905094 
L 275.101058 56.109183 
L 275.131866 56.109183 
L 275.149469 54.990819 
L 275.301925 54.990819 
L 275.301925 54.431636 
L 275.441674 54.431636 
L 275.5127 53.313272 
L 275.659138 53.313272 
L 275.725336 51.076543 
L 275.782548 51.076543 
L 275.813179 48.839814 
L 276.039954 48.839814 
L 276.039954 47.72145 
L 276.199644 47.72145 
L 276.255609 45.484721 
L 276.372836 45.484721 
L 276.417632 43.247992 
L 276.821229 43.247992 
L 276.882798 39.333716 
L 277.009465 39.333716 
L 277.06705 38.215351 
L 277.135006 38.215351 
L 277.135006 37.656169 
L 277.402749 37.656169 
L 277.492103 32.623529 
L 277.6559 32.623529 
L 277.6559 32.064347 
L 277.929428 32.064347 
L 278.03954 29.827618 
L 284.842725 29.827618 
L 284.842725 28.709253 
L 285.018789 28.709253 
L 285.018789 28.150071 
L 289.931064 28.150071 
L 289.931064 27.590889 
L 293.778038 27.590889 
L 293.778038 27.031707 
L 299.598552 27.031707 
L 299.598552 26.472524 
L 333.429677 26.472524 
L 333.429677 26.472524 
" style="fill:none;stroke:#ff00ff;stroke-linecap:square;stroke-width:1.5;"/>
   </g>
   <g id="line2d_30">
    <defs>
     <path d="M -0 8.485281 
L 5.091169 0 
L 0 -8.485281 
L -5.091169 -0 
z
" id="md5699fb91e" style="stroke:#ff00ff;stroke-linejoin:miter;stroke-width:1.5;"/>
    </defs>
    <g>
     <use style="fill-opacity:0;stroke:#ff00ff;stroke-linejoin:miter;stroke-width:1.5;" x="138.08195" xlink:href="#md5699fb91e" y="273.071893"/>
     <use style="fill-opacity:0;stroke:#ff00ff;stroke-linejoin:miter;stroke-width:1.5;" x="205.882079" xlink:href="#md5699fb91e" y="236.165865"/>
     <use style="fill-opacity:0;stroke:#ff00ff;stroke-linejoin:miter;stroke-width:1.5;" x="262.763278" xlink:href="#md5699fb91e" y="132.71715"/>
     <use style="fill-opacity:0;stroke:#ff00ff;stroke-linejoin:miter;stroke-width:1.5;" x="299.598552" xlink:href="#md5699fb91e" y="27.031707"/>
     <use style="fill-opacity:0;stroke:#ff00ff;stroke-linejoin:miter;stroke-width:1.5;" x="299.598552" xlink:href="#md5699fb91e" y="26.472524"/>
     <use style="fill-opacity:0;stroke:#ff00ff;stroke-linejoin:miter;stroke-width:1.5;" x="333.429677" xlink:href="#md5699fb91e" y="26.472524"/>
    </g>
   </g>
   <g id="line2d_31">
    <path style="fill:none;stroke:#ff00ff;stroke-linecap:square;stroke-width:1.5;"/>
    <g/>
   </g>
   <g id="line2d_32">
    <path clip-path="url(#p23207ba58d)" d="M 266.123863 115.941683 
" style="fill:none;stroke:#ff00ff;stroke-linecap:square;stroke-width:1.5;"/>
    <defs>
     <path d="M -12 12 
L 12 -12 
M -12 -12 
L 12 12 
" id="m406eef0d5b" style="stroke:#ff00ff;stroke-width:3;"/>
    </defs>
    <g clip-path="url(#p23207ba58d)">
     <use style="fill:#ff00ff;stroke:#ff00ff;stroke-width:3;" x="266.123863" xlink:href="#m406eef0d5b" y="115.941683"/>
    </g>
   </g>
   <g id="line2d_33">
    <defs>
     <path d="M 0 1.5 
C 0.397805 1.5 0.77937 1.341951 1.06066 1.06066 
C 1.341951 0.77937 1.5 0.397805 1.5 0 
C 1.5 -0.397805 1.341951 -0.77937 1.06066 -1.06066 
C 0.77937 -1.341951 0.397805 -1.5 0 -1.5 
C -0.397805 -1.5 -0.77937 -1.341951 -1.06066 -1.06066 
C -1.341951 -0.77937 -1.5 -0.397805 -1.5 0 
C -1.5 0.397805 -1.341951 0.77937 -1.06066 1.06066 
C -0.77937 1.341951 -0.397805 1.5 0 1.5 
z
" id="m3d3926bf29" style="stroke:#ffa500;"/>
    </defs>
    <g>
     <use style="fill:#ffa500;stroke:#ffa500;" x="227.012723" xlink:href="#m3d3926bf29" y="9.697057"/>
     <use style="fill:#ffa500;stroke:#ffa500;" x="227.012723" xlink:href="#m3d3926bf29" y="9.697057"/>
    </g>
   </g>
   <g id="line2d_34">
    <path d="M 101.025901 294.88 
L 101.025901 293.761636 
L 120.261464 293.761636 
L 120.261464 293.202453 
L 122.287906 293.202453 
L 122.287906 291.524907 
L 123.28764 291.524907 
L 123.28764 290.965724 
L 126.903352 290.965724 
L 126.903352 290.406542 
L 127.015436 290.406542 
L 127.015436 287.610631 
L 128.409739 287.610631 
L 128.409739 286.492266 
L 130.538896 286.492266 
L 130.538896 285.933084 
L 131.768338 285.933084 
L 131.768338 285.373902 
L 134.577163 285.373902 
L 134.577163 283.696355 
L 137.484499 283.696355 
L 137.484499 283.137173 
L 137.665922 283.137173 
L 137.665922 282.577991 
L 138.716037 282.577991 
L 138.716037 282.018808 
L 142.049805 282.018808 
L 142.049805 281.459626 
L 145.425852 281.459626 
L 145.425852 280.900444 
L 146.788232 280.900444 
L 146.788232 279.782079 
L 151.443198 279.782079 
L 151.443198 279.222897 
L 162.917177 279.222897 
L 162.917177 278.663715 
L 169.627702 278.663715 
L 169.627702 278.104533 
L 170.38065 278.104533 
L 170.38065 276.986168 
L 174.019189 276.986168 
L 174.019189 275.308622 
L 179.712311 275.308622 
L 179.712311 274.749439 
L 180.453464 274.749439 
L 180.453464 273.631075 
L 182.252164 273.631075 
L 182.310646 272.51271 
L 183.250081 272.51271 
L 183.250081 271.953528 
L 183.494964 271.953528 
L 183.494964 270.275981 
L 184.22545 270.275981 
L 184.269591 269.157617 
L 185.356657 269.157617 
L 185.356657 266.361706 
L 185.893716 266.361706 
L 185.915582 263.565795 
L 186.930318 263.565795 
L 186.930318 263.006612 
L 187.131707 263.006612 
L 187.155445 261.329066 
L 187.933928 261.329066 
L 187.933928 260.769883 
L 188.091905 260.769883 
L 188.091905 260.210701 
L 188.510397 260.210701 
L 188.510397 259.651519 
L 188.737537 259.651519 
L 188.737537 258.533154 
L 189.332963 258.533154 
L 189.332963 257.973972 
L 189.922902 257.973972 
L 189.945969 254.618879 
L 190.137948 254.618879 
L 190.220383 252.941332 
L 191.230863 252.941332 
L 191.260252 251.822967 
L 191.342808 251.822967 
L 191.342808 251.263785 
L 192.463808 251.263785 
L 192.540799 250.145421 
L 192.774614 250.145421 
L 192.774614 249.586238 
L 192.961824 249.586238 
L 192.961824 249.027056 
L 193.377513 249.027056 
L 193.377513 248.467874 
L 194.633468 248.467874 
L 194.633468 247.908692 
L 194.916378 247.908692 
L 194.978859 246.231145 
L 195.228657 246.231145 
L 195.228657 245.671963 
L 196.058292 245.671963 
L 196.058292 244.553598 
L 196.493074 244.553598 
L 196.493074 243.435234 
L 196.913295 243.435234 
L 196.913295 242.876052 
L 197.195411 242.876052 
L 197.195411 242.316869 
L 197.54723 242.316869 
L 197.54723 240.639323 
L 197.780888 240.639323 
L 197.780888 239.520958 
L 198.079796 239.520958 
L 198.079796 238.961776 
L 198.944861 238.961776 
L 199.05212 237.284229 
L 199.173889 237.284229 
L 199.204197 236.165865 
L 199.369944 236.165865 
L 199.428161 231.692407 
L 199.563789 231.692407 
L 199.609858 230.574042 
L 199.737544 230.574042 
L 199.737544 229.455678 
L 199.943438 229.455678 
L 199.943438 228.896496 
L 200.235852 228.896496 
L 200.235852 228.337313 
L 200.518704 228.337313 
L 200.518704 227.778131 
L 200.690839 227.778131 
L 200.690839 227.218949 
L 200.855157 227.218949 
L 200.855157 225.541402 
L 201.180658 225.541402 
L 201.180658 224.98222 
L 201.427828 224.98222 
L 201.427828 224.423038 
L 202.172807 224.423038 
L 202.172807 223.304673 
L 202.691544 223.304673 
L 202.691544 222.745491 
L 202.80518 222.745491 
L 202.80518 221.627126 
L 203.077301 221.627126 
L 203.077301 221.067944 
L 203.193763 221.067944 
L 203.288226 219.390397 
L 203.805783 219.390397 
L 203.808358 218.272033 
L 203.944274 218.272033 
L 203.944274 217.153669 
L 204.25688 217.153669 
L 204.25688 216.594486 
L 204.373125 216.594486 
L 204.398022 214.357757 
L 204.496013 214.357757 
L 204.530611 212.680211 
L 204.731869 212.680211 
L 204.731869 211.561846 
L 205.08687 211.561846 
L 205.12984 209.884299 
L 205.249826 209.884299 
L 205.249826 209.325117 
L 205.455762 209.325117 
L 205.455762 208.765935 
L 205.730786 208.765935 
L 205.730786 207.64757 
L 206.082883 207.64757 
L 206.1493 204.292477 
L 206.367009 204.292477 
L 206.367009 203.733295 
L 206.535918 203.733295 
L 206.535918 203.174112 
L 206.764002 203.174112 
L 206.77809 200.378201 
L 206.879613 200.378201 
L 206.879613 198.700655 
L 207.052119 198.700655 
L 207.158401 194.786379 
L 207.174286 194.786379 
L 207.285078 193.108832 
L 207.306101 193.108832 
L 207.400386 189.753739 
L 207.519076 189.753739 
L 207.606012 188.635374 
L 208.075454 188.635374 
L 208.181608 185.839463 
L 208.373222 185.839463 
L 208.429407 184.721099 
L 208.574439 184.721099 
L 208.6465 183.043552 
L 208.697925 183.043552 
L 208.798392 180.806823 
L 208.946091 180.806823 
L 208.946091 180.247641 
L 209.1417 180.247641 
L 209.224588 178.570094 
L 209.302402 178.570094 
L 209.339777 176.333365 
L 209.426363 176.333365 
L 209.426363 175.215 
L 209.542059 175.215 
L 209.542059 174.655818 
L 209.99542 174.655818 
L 209.99542 174.096636 
L 210.118964 174.096636 
L 210.204388 170.741543 
L 210.310575 170.741543 
L 210.415234 169.623178 
L 210.452021 169.623178 
L 210.494839 167.945631 
L 211.012383 167.945631 
L 211.012383 167.386449 
L 211.12886 167.386449 
L 211.140633 166.268085 
L 211.242048 166.268085 
L 211.305442 163.472173 
L 211.482703 163.472173 
L 211.482703 160.676262 
L 211.659787 160.676262 
L 211.665495 158.439533 
L 211.784127 158.439533 
L 211.893903 156.202804 
L 211.906772 156.202804 
L 211.906772 154.525258 
L 212.026952 154.525258 
L 212.026952 152.847711 
L 212.161356 152.847711 
L 212.239605 149.492617 
L 212.468349 149.492617 
L 212.560704 146.696706 
L 212.697931 146.696706 
L 212.802808 145.578342 
L 212.885037 145.578342 
L 212.985764 142.78243 
L 213.052087 142.78243 
L 213.154834 139.427337 
L 213.22349 139.427337 
L 213.321519 137.190608 
L 213.382136 137.190608 
L 213.437392 135.513061 
L 213.546644 135.513061 
L 213.657385 131.598786 
L 213.719003 131.598786 
L 213.719003 131.039603 
L 213.838707 131.039603 
L 213.838707 129.362057 
L 214.018849 129.362057 
L 214.018849 126.566145 
L 214.132961 126.566145 
L 214.16613 125.447781 
L 214.285575 125.447781 
L 214.387499 121.533505 
L 214.397937 121.533505 
L 214.429906 119.855959 
L 214.677383 119.855959 
L 214.717033 117.61923 
L 214.806253 117.61923 
L 214.806253 116.500865 
L 214.930794 116.500865 
L 215.030319 111.468225 
L 215.116599 111.468225 
L 215.116599 110.909043 
L 215.339319 110.909043 
L 215.339319 108.113132 
L 215.602054 108.113132 
L 215.663561 105.876403 
L 215.722273 105.876403 
L 215.722273 105.31722 
L 215.847414 105.31722 
L 215.885098 104.198856 
L 215.979267 104.198856 
L 216.02869 101.962127 
L 216.137803 101.962127 
L 216.137803 101.402945 
L 216.317306 101.402945 
L 216.412858 99.725398 
L 216.498649 99.725398 
L 216.516494 98.047851 
L 216.664692 98.047851 
L 216.772887 94.692758 
L 216.849066 94.692758 
L 216.905077 93.574393 
L 216.980674 93.574393 
L 217.083337 90.778482 
L 217.172371 90.778482 
L 217.172371 89.660118 
L 217.346138 89.660118 
L 217.38536 88.541753 
L 217.577251 88.541753 
L 217.651109 86.305024 
L 217.714329 86.305024 
L 217.748714 85.18666 
L 217.867957 85.18666 
L 217.867957 84.627477 
L 218.006695 84.627477 
L 218.099505 81.272384 
L 218.263088 81.272384 
L 218.304712 79.594837 
L 218.474051 79.594837 
L 218.474051 78.476473 
L 218.590024 78.476473 
L 218.693843 77.358108 
L 218.7128 77.358108 
L 218.805118 74.003015 
L 218.884085 74.003015 
L 218.884085 72.88465 
L 219.030846 72.88465 
L 219.119363 71.207104 
L 219.142609 71.207104 
L 219.213738 68.411192 
L 219.351989 68.411192 
L 219.354075 65.056099 
L 219.548026 65.056099 
L 219.632902 61.701006 
L 219.728081 61.701006 
L 219.728081 61.141823 
L 219.8724 61.141823 
L 219.960226 58.345912 
L 220.220056 58.345912 
L 220.327335 53.313272 
L 220.335711 53.313272 
L 220.444231 49.958178 
L 220.591428 49.958178 
L 220.631179 47.72145 
L 220.715225 47.72145 
L 220.756615 46.603085 
L 220.8434 46.603085 
L 220.8434 46.043903 
L 220.956854 46.043903 
L 221.00667 43.807174 
L 221.099276 43.807174 
L 221.20591 41.570445 
L 221.244268 41.570445 
L 221.308629 39.892898 
L 221.537987 39.892898 
L 221.638292 38.215351 
L 221.855661 38.215351 
L 221.966685 37.096987 
L 221.981912 37.096987 
L 222.061409 35.41944 
L 222.161818 35.41944 
L 222.196778 34.301076 
L 222.273971 34.301076 
L 222.368773 33.182711 
L 222.393704 33.182711 
L 222.463492 30.945982 
L 222.53083 30.945982 
L 222.629837 28.150071 
L 222.654822 28.150071 
L 222.654822 27.590889 
L 223.110632 27.590889 
L 223.189684 24.794978 
L 223.235109 24.794978 
L 223.235109 24.235795 
L 223.722178 24.235795 
L 223.722178 23.676613 
L 223.92329 23.676613 
L 224.030523 21.439884 
L 224.07854 21.439884 
L 224.134722 19.762337 
L 224.194263 19.762337 
L 224.260658 18.643973 
L 224.35412 18.643973 
L 224.430001 17.525609 
L 224.507867 17.525609 
L 224.603074 14.729697 
L 224.682842 14.729697 
L 224.682842 14.170515 
L 224.882171 14.170515 
L 224.982856 12.492968 
L 225.076974 12.492968 
L 225.076974 11.933786 
L 226.252341 11.933786 
L 226.252341 11.374604 
L 226.582685 11.374604 
L 226.582685 10.256239 
L 227.012723 10.256239 
L 227.012723 9.697057 
L 333.429677 9.697057 
L 333.429677 9.697057 
" style="fill:none;stroke:#ffa500;stroke-linecap:square;stroke-width:1.5;"/>
   </g>
   <g id="line2d_35">
    <defs>
     <path d="M 0 -6 
L -1.347084 -1.854102 
L -5.706339 -1.854102 
L -2.179628 0.708204 
L -3.526712 4.854102 
L -0 2.291796 
L 3.526712 4.854102 
L 2.179628 0.708204 
L 5.706339 -1.854102 
L 1.347084 -1.854102 
z
" id="m5abbfdd438" style="stroke:#ffa500;stroke-linejoin:bevel;stroke-width:1.5;"/>
    </defs>
    <g>
     <use style="fill-opacity:0;stroke:#ffa500;stroke-linejoin:bevel;stroke-width:1.5;" x="209.1417" xlink:href="#m5abbfdd438" y="180.247641"/>
     <use style="fill-opacity:0;stroke:#ffa500;stroke-linejoin:bevel;stroke-width:1.5;" x="227.012723" xlink:href="#m5abbfdd438" y="10.256239"/>
     <use style="fill-opacity:0;stroke:#ffa500;stroke-linejoin:bevel;stroke-width:1.5;" x="227.012723" xlink:href="#m5abbfdd438" y="9.697057"/>
     <use style="fill-opacity:0;stroke:#ffa500;stroke-linejoin:bevel;stroke-width:1.5;" x="227.012723" xlink:href="#m5abbfdd438" y="9.697057"/>
     <use style="fill-opacity:0;stroke:#ffa500;stroke-linejoin:bevel;stroke-width:1.5;" x="333.429677" xlink:href="#m5abbfdd438" y="9.697057"/>
    </g>
   </g>
   <g id="line2d_36">
    <path style="fill:none;stroke:#ffa500;stroke-linecap:square;stroke-width:1.5;"/>
    <g/>
   </g>
   <g id="line2d_37">
    <defs>
     <path d="M 0 1.5 
C 0.397805 1.5 0.77937 1.341951 1.06066 1.06066 
C 1.341951 0.77937 1.5 0.397805 1.5 0 
C 1.5 -0.397805 1.341951 -0.77937 1.06066 -1.06066 
C 0.77937 -1.341951 0.397805 -1.5 0 -1.5 
C -0.397805 -1.5 -0.77937 -1.341951 -1.06066 -1.06066 
C -1.341951 -0.77937 -1.5 -0.397805 -1.5 0 
C -1.5 0.397805 -1.341951 0.77937 -1.06066 1.06066 
C -0.77937 1.341951 -0.397805 1.5 0 1.5 
z
" id="mcf1a746c09" style="stroke:#6495ed;"/>
    </defs>
    <g>
     <use style="fill:#6495ed;stroke:#6495ed;" x="328.256517" xlink:href="#mcf1a746c09" y="9.697057"/>
     <use style="fill:#6495ed;stroke:#6495ed;" x="328.256517" xlink:href="#mcf1a746c09" y="9.697057"/>
    </g>
   </g>
   <g id="line2d_38">
    <path d="M 40.355341 294.88 
L 40.355341 291.524907 
L 52.280845 291.524907 
L 52.280845 290.406542 
L 68.045504 290.406542 
L 68.045504 288.169813 
L 71.182322 288.169813 
L 71.182322 287.610631 
L 73.834464 287.610631 
L 73.834464 286.492266 
L 86.946982 286.492266 
L 86.946982 285.933084 
L 97.685473 285.933084 
L 97.685473 285.373902 
L 102.4807 285.373902 
L 102.4807 284.81472 
L 103.386428 284.81472 
L 103.386428 284.255537 
L 104.246851 284.255537 
L 104.246851 283.137173 
L 104.661446 283.137173 
L 104.661446 282.577991 
L 106.958836 282.577991 
L 106.958836 281.459626 
L 111.908367 281.459626 
L 111.908367 280.341262 
L 116.58695 280.341262 
L 116.58695 279.782079 
L 119.757871 279.782079 
L 119.757871 278.104533 
L 120.426105 278.104533 
L 120.426105 277.545351 
L 121.069353 277.545351 
L 121.069353 276.426986 
L 121.689415 276.426986 
L 121.689415 274.749439 
L 122.723495 274.749439 
L 122.723495 273.631075 
L 124.100619 273.631075 
L 124.100619 272.51271 
L 124.87691 272.51271 
L 124.87691 271.394346 
L 126.215065 271.394346 
L 126.215065 270.835164 
L 127.347373 270.835164 
L 127.347373 269.716799 
L 130.447623 269.716799 
L 130.447623 267.48007 
L 132.836286 267.48007 
L 132.836286 265.802523 
L 132.994857 265.802523 
L 132.994857 264.684159 
L 136.547523 264.684159 
L 136.547523 264.124977 
L 139.052299 264.124977 
L 139.052299 263.565795 
L 141.577115 263.565795 
L 141.577115 261.888248 
L 143.60888 261.888248 
L 143.60888 261.329066 
L 146.138914 261.329066 
L 146.138914 259.651519 
L 147.413932 259.651519 
L 147.413932 258.533154 
L 148.181687 258.533154 
L 148.246857 256.296425 
L 148.727919 256.296425 
L 148.727919 254.618879 
L 153.065801 254.618879 
L 153.163834 253.500514 
L 155.682795 253.500514 
L 155.682795 251.263785 
L 157.879617 251.263785 
L 157.879617 250.145421 
L 158.784393 250.145421 
L 158.784393 248.467874 
L 159.0468 248.467874 
L 159.0468 247.908692 
L 163.027731 247.908692 
L 163.027731 247.34951 
L 164.301765 247.34951 
L 164.301765 245.112781 
L 164.681299 245.112781 
L 164.681299 244.553598 
L 164.805973 244.553598 
L 164.805973 243.435234 
L 166.552722 243.435234 
L 166.552722 242.876052 
L 168.47284 242.876052 
L 168.47284 241.198505 
L 169.00652 241.198505 
L 169.00652 240.08014 
L 170.398609 240.08014 
L 170.398609 238.961776 
L 170.612669 238.961776 
L 170.612669 237.843411 
L 172.235538 237.843411 
L 172.235538 237.284229 
L 172.459917 237.284229 
L 172.539349 236.165865 
L 173.000675 236.165865 
L 173.000675 235.606682 
L 173.18485 235.606682 
L 173.18485 233.369954 
L 174.59834 233.369954 
L 174.59834 232.251589 
L 175.68805 232.251589 
L 175.68805 231.692407 
L 175.976005 231.692407 
L 175.976005 230.574042 
L 176.606803 230.574042 
L 176.606803 229.455678 
L 177.002619 229.455678 
L 177.088004 227.778131 
L 177.166911 227.778131 
L 177.166911 225.541402 
L 177.977189 225.541402 
L 177.977189 224.423038 
L 178.393847 224.423038 
L 178.410756 222.186309 
L 178.98689 222.186309 
L 179.068417 220.508762 
L 180.125165 220.508762 
L 180.125165 219.94958 
L 180.62768 219.94958 
L 180.62768 219.390397 
L 181.019384 219.390397 
L 181.019384 218.831215 
L 182.01166 218.831215 
L 182.01166 217.712851 
L 182.489353 217.712851 
L 182.489353 217.153669 
L 182.788959 217.153669 
L 182.788959 216.594486 
L 183.0146 216.594486 
L 183.0146 216.035304 
L 183.839447 216.035304 
L 183.839447 214.91694 
L 186.523844 214.91694 
L 186.587007 213.239393 
L 186.667379 213.239393 
L 186.667379 202.61493 
L 187.849511 202.61493 
L 187.849511 200.937384 
L 188.175144 200.937384 
L 188.175144 200.378201 
L 190.637814 200.378201 
L 190.637814 199.819019 
L 191.206779 199.819019 
L 191.206779 199.259837 
L 192.086328 199.259837 
L 192.086328 198.700655 
L 192.403965 198.700655 
L 192.403965 197.023108 
L 194.644436 197.023108 
L 194.683861 187.51701 
L 266.22042 187.51701 
L 266.329432 171.300725 
L 266.35342 171.300725 
L 266.392355 159.557898 
L 278.101779 159.557898 
L 278.18383 144.459977 
L 285.060299 144.459977 
L 285.115304 121.533505 
L 290.001097 121.533505 
L 290.045276 109.231496 
L 293.834509 109.231496 
L 293.870373 96.929487 
L 296.968333 96.929487 
L 296.997813 81.831566 
L 299.62551 81.831566 
L 299.6416 71.207104 
L 301.913494 71.207104 
L 301.934167 62.81937 
L 303.944338 62.81937 
L 303.956789 54.990819 
L 305.756504 54.990819 
L 305.766569 50.517361 
L 307.39476 50.517361 
L 307.403912 39.892898 
L 308.890494 39.892898 
L 308.898884 35.41944 
L 310.26653 35.41944 
L 310.26653 33.741894 
L 311.540616 33.741894 
L 311.547764 31.505165 
L 312.726821 31.505165 
L 312.733493 28.150071 
L 313.83649 28.150071 
L 313.842746 25.913342 
L 314.878905 25.913342 
L 314.884793 22.558249 
L 315.861753 22.558249 
L 315.867314 21.439884 
L 316.791476 21.439884 
L 316.796745 19.762337 
L 317.673524 19.762337 
L 317.678529 17.525609 
L 318.514988 17.525609 
L 318.517315 15.28888 
L 319.312551 15.28888 
L 319.312551 14.729697 
L 320.077002 14.729697 
L 320.081355 13.052151 
L 320.813099 13.052151 
L 320.813099 12.492968 
L 322.185507 12.492968 
L 322.185507 11.933786 
L 323.460059 11.933786 
L 323.460059 11.374604 
L 324.650005 11.374604 
L 324.650005 10.815422 
L 327.29992 10.815422 
L 327.29992 10.256239 
L 328.256517 10.256239 
L 328.256517 9.697057 
L 333.429677 9.697057 
L 333.429677 9.697057 
" style="fill:none;stroke:#6495ed;stroke-linecap:square;stroke-width:1.5;"/>
   </g>
   <g id="line2d_39">
    <defs>
     <path d="M -0 6 
L 6 -6 
L -6 -6 
z
" id="m1fc77c2c3a" style="stroke:#6495ed;stroke-linejoin:miter;stroke-width:1.5;"/>
    </defs>
    <g>
     <use style="fill-opacity:0;stroke:#6495ed;stroke-linejoin:miter;stroke-width:1.5;" x="104.661446" xlink:href="#m1fc77c2c3a" y="282.577991"/>
     <use style="fill-opacity:0;stroke:#6495ed;stroke-linejoin:miter;stroke-width:1.5;" x="159.0468" xlink:href="#m1fc77c2c3a" y="248.467874"/>
     <use style="fill-opacity:0;stroke:#6495ed;stroke-linejoin:miter;stroke-width:1.5;" x="194.683861" xlink:href="#m1fc77c2c3a" y="187.51701"/>
     <use style="fill-opacity:0;stroke:#6495ed;stroke-linejoin:miter;stroke-width:1.5;" x="290.020284" xlink:href="#m1fc77c2c3a" y="115.382501"/>
     <use style="fill-opacity:0;stroke:#6495ed;stroke-linejoin:miter;stroke-width:1.5;" x="328.256517" xlink:href="#m1fc77c2c3a" y="9.697057"/>
     <use style="fill-opacity:0;stroke:#6495ed;stroke-linejoin:miter;stroke-width:1.5;" x="333.429677" xlink:href="#m1fc77c2c3a" y="9.697057"/>
    </g>
   </g>
   <g id="line2d_40">
    <path style="fill:none;stroke:#6495ed;stroke-linecap:square;stroke-width:1.5;"/>
    <g/>
   </g>
   <g id="line2d_41">
    <path clip-path="url(#p23207ba58d)" d="M 266.123863 187.51701 
" style="fill:none;stroke:#6495ed;stroke-linecap:square;stroke-width:1.5;"/>
    <defs>
     <path d="M -12 12 
L 12 -12 
M -12 -12 
L 12 12 
" id="mc86a505e56" style="stroke:#6495ed;stroke-width:3;"/>
    </defs>
    <g clip-path="url(#p23207ba58d)">
     <use style="fill:#6495ed;stroke:#6495ed;stroke-width:3;" x="266.123863" xlink:href="#mc86a505e56" y="187.51701"/>
    </g>
   </g>
   <g id="line2d_42">
    <path d="M 333.429677 26.472524 
L 363.933742 289.176341 
" style="fill:none;stroke:#000080;stroke-linecap:square;stroke-width:1.5;"/>
    <g>
     <use style="fill-opacity:0;stroke:#000080;stroke-width:1.5;" x="333.429677" xlink:href="#m5a442a6bfe" y="26.472524"/>
     <use style="fill-opacity:0;stroke:#000080;stroke-width:1.5;" x="363.933742" xlink:href="#m5a442a6bfe" y="289.176341"/>
    </g>
   </g>
   <g id="line2d_43">
    <path d="M 333.429677 26.472524 
L 363.933742 197.917799 
" style="fill:none;stroke:#ff00ff;stroke-linecap:square;stroke-width:1.5;"/>
    <g>
     <use style="fill-opacity:0;stroke:#ff00ff;stroke-linejoin:miter;stroke-width:1.5;" x="333.429677" xlink:href="#md5699fb91e" y="26.472524"/>
     <use style="fill-opacity:0;stroke:#ff00ff;stroke-linejoin:miter;stroke-width:1.5;" x="363.933742" xlink:href="#md5699fb91e" y="197.917799"/>
    </g>
   </g>
   <g id="line2d_44">
    <path d="M 333.429677 9.697057 
L 363.933742 106.659258 
" style="fill:none;stroke:#6495ed;stroke-linecap:square;stroke-width:1.5;"/>
    <g>
     <use style="fill-opacity:0;stroke:#6495ed;stroke-linejoin:miter;stroke-width:1.5;" x="333.429677" xlink:href="#m1fc77c2c3a" y="9.697057"/>
     <use style="fill-opacity:0;stroke:#6495ed;stroke-linejoin:miter;stroke-width:1.5;" x="363.933742" xlink:href="#m1fc77c2c3a" y="106.659258"/>
    </g>
   </g>
   <g id="line2d_45">
    <path d="M 333.429677 9.697057 
L 363.933742 15.400716 
" style="fill:none;stroke:#ffa500;stroke-linecap:square;stroke-width:1.5;"/>
    <g>
     <use style="fill-opacity:0;stroke:#ffa500;stroke-linejoin:bevel;stroke-width:1.5;" x="333.429677" xlink:href="#m5abbfdd438" y="9.697057"/>
     <use style="fill-opacity:0;stroke:#ffa500;stroke-linejoin:bevel;stroke-width:1.5;" x="363.933742" xlink:href="#m5abbfdd438" y="15.400716"/>
    </g>
   </g>
   <g id="line2d_46">
    <path d="M 333.429677 294.88 
L 333.429677 9.697057 
" style="fill:none;stroke:#000000;stroke-linecap:square;stroke-width:1.5;"/>
   </g>
   <g id="patch_3">
    <path d="M 56.12 294.88 
L 56.12 6.845228 
" style="fill:none;stroke:#000000;stroke-linecap:square;stroke-linejoin:miter;stroke-width:0.8;"/>
   </g>
   <g id="patch_4">
    <path d="M 399.984 294.88 
L 399.984 6.845228 
" style="fill:none;stroke:#000000;stroke-linecap:square;stroke-linejoin:miter;stroke-width:0.8;"/>
   </g>
   <g id="patch_5">
    <path d="M 56.12 294.88 
L 399.984 294.88 
" style="fill:none;stroke:#000000;stroke-linecap:square;stroke-linejoin:miter;stroke-width:0.8;"/>
   </g>
   <g id="patch_6">
    <path d="M 56.12 6.845228 
L 399.984 6.845228 
" style="fill:none;stroke:#000000;stroke-linecap:square;stroke-linejoin:miter;stroke-width:0.8;"/>
   </g>
   <g id="text_14">
    <!-- f8 -->
    <g transform="translate(369.479935 293.867279)scale(0.17 -0.17)">
     <use xlink:href="#DejaVuSans-66"/>
     <use x="35.205078" xlink:href="#DejaVuSans-38"/>
    </g>
   </g>
   <g id="text_15">
    <!-- f9 -->
    <defs>
     <path d="M 10.984375 1.515625 
L 10.984375 10.5 
Q 14.703125 8.734375 18.5 7.8125 
Q 22.3125 6.890625 25.984375 6.890625 
Q 35.75 6.890625 40.890625 13.453125 
Q 46.046875 20.015625 46.78125 33.40625 
Q 43.953125 29.203125 39.59375 26.953125 
Q 35.25 24.703125 29.984375 24.703125 
Q 19.046875 24.703125 12.671875 31.3125 
Q 6.296875 37.9375 6.296875 49.421875 
Q 6.296875 60.640625 12.9375 67.421875 
Q 19.578125 74.21875 30.609375 74.21875 
Q 43.265625 74.21875 49.921875 64.515625 
Q 56.59375 54.828125 56.59375 36.375 
Q 56.59375 19.140625 48.40625 8.859375 
Q 40.234375 -1.421875 26.421875 -1.421875 
Q 22.703125 -1.421875 18.890625 -0.6875 
Q 15.09375 0.046875 10.984375 1.515625 
z
M 30.609375 32.421875 
Q 37.25 32.421875 41.125 36.953125 
Q 45.015625 41.5 45.015625 49.421875 
Q 45.015625 57.28125 41.125 61.84375 
Q 37.25 66.40625 30.609375 66.40625 
Q 23.96875 66.40625 20.09375 61.84375 
Q 16.21875 57.28125 16.21875 49.421875 
Q 16.21875 41.5 20.09375 36.953125 
Q 23.96875 32.421875 30.609375 32.421875 
z
" id="DejaVuSans-39"/>
    </defs>
    <g transform="translate(369.479935 202.608737)scale(0.17 -0.17)">
     <use xlink:href="#DejaVuSans-66"/>
     <use x="35.205078" xlink:href="#DejaVuSans-39"/>
    </g>
   </g>
   <g id="text_16">
    <!-- f7 -->
    <defs>
     <path d="M 8.203125 72.90625 
L 55.078125 72.90625 
L 55.078125 68.703125 
L 28.609375 0 
L 18.3125 0 
L 43.21875 64.59375 
L 8.203125 64.59375 
z
" id="DejaVuSans-37"/>
    </defs>
    <g transform="translate(369.479935 111.350195)scale(0.17 -0.17)">
     <use xlink:href="#DejaVuSans-66"/>
     <use x="35.205078" xlink:href="#DejaVuSans-37"/>
    </g>
   </g>
   <g id="text_17">
    <!-- f6 -->
    <g transform="translate(369.479935 20.091654)scale(0.17 -0.17)">
     <use xlink:href="#DejaVuSans-66"/>
     <use x="35.205078" xlink:href="#DejaVuSans-36"/>
    </g>
   </g>
   <g id="text_18">
    <!-- bbob -->
    <defs>
     <path d="M 48.6875 27.296875 
Q 48.6875 37.203125 44.609375 42.84375 
Q 40.53125 48.484375 33.40625 48.484375 
Q 26.265625 48.484375 22.1875 42.84375 
Q 18.109375 37.203125 18.109375 27.296875 
Q 18.109375 17.390625 22.1875 11.75 
Q 26.265625 6.109375 33.40625 6.109375 
Q 40.53125 6.109375 44.609375 11.75 
Q 48.6875 17.390625 48.6875 27.296875 
z
M 18.109375 46.390625 
Q 20.953125 51.265625 25.265625 53.625 
Q 29.59375 56 35.59375 56 
Q 45.5625 56 51.78125 48.09375 
Q 58.015625 40.1875 58.015625 27.296875 
Q 58.015625 14.40625 51.78125 6.484375 
Q 45.5625 -1.421875 35.59375 -1.421875 
Q 29.59375 -1.421875 25.265625 0.953125 
Q 20.953125 3.328125 18.109375 8.203125 
L 18.109375 0 
L 9.078125 0 
L 9.078125 75.984375 
L 18.109375 75.984375 
z
" id="DejaVuSans-62"/>
    </defs>
    <g transform="translate(59.55864 17.475982)scale(0.102 -0.102)">
     <use xlink:href="#DejaVuSans-62"/>
     <use x="63.476562" xlink:href="#DejaVuSans-62"/>
     <use x="126.953125" xlink:href="#DejaVuSans-6f"/>
     <use x="188.134766" xlink:href="#DejaVuSans-62"/>
    </g>
    <!-- Misc. moderate functions, 5-D -->
    <defs>
     <path d="M 9.8125 72.90625 
L 24.515625 72.90625 
L 43.109375 23.296875 
L 61.8125 72.90625 
L 76.515625 72.90625 
L 76.515625 0 
L 66.890625 0 
L 66.890625 64.015625 
L 48.09375 14.015625 
L 38.1875 14.015625 
L 19.390625 64.015625 
L 19.390625 0 
L 9.8125 0 
z
" id="DejaVuSans-4d"/>
     <path d="M 10.796875 72.90625 
L 49.515625 72.90625 
L 49.515625 64.59375 
L 19.828125 64.59375 
L 19.828125 46.734375 
Q 21.96875 47.46875 24.109375 47.828125 
Q 26.265625 48.1875 28.421875 48.1875 
Q 40.625 48.1875 47.75 41.5 
Q 54.890625 34.8125 54.890625 23.390625 
Q 54.890625 11.625 47.5625 5.09375 
Q 40.234375 -1.421875 26.90625 -1.421875 
Q 22.3125 -1.421875 17.546875 -0.640625 
Q 12.796875 0.140625 7.71875 1.703125 
L 7.71875 11.625 
Q 12.109375 9.234375 16.796875 8.0625 
Q 21.484375 6.890625 26.703125 6.890625 
Q 35.15625 6.890625 40.078125 11.328125 
Q 45.015625 15.765625 45.015625 23.390625 
Q 45.015625 31 40.078125 35.4375 
Q 35.15625 39.890625 26.703125 39.890625 
Q 22.75 39.890625 18.8125 39.015625 
Q 14.890625 38.140625 10.796875 36.28125 
z
" id="DejaVuSans-35"/>
     <path d="M 19.671875 64.796875 
L 19.671875 8.109375 
L 31.59375 8.109375 
Q 46.6875 8.109375 53.6875 14.9375 
Q 60.6875 21.78125 60.6875 36.53125 
Q 60.6875 51.171875 53.6875 57.984375 
Q 46.6875 64.796875 31.59375 64.796875 
z
M 9.8125 72.90625 
L 30.078125 72.90625 
Q 51.265625 72.90625 61.171875 64.09375 
Q 71.09375 55.28125 71.09375 36.53125 
Q 71.09375 17.671875 61.125 8.828125 
Q 51.171875 0 30.078125 0 
L 9.8125 0 
z
" id="DejaVuSans-44"/>
    </defs>
    <g transform="translate(59.55864 28.89775)scale(0.102 -0.102)">
     <use xlink:href="#DejaVuSans-4d"/>
     <use x="86.279297" xlink:href="#DejaVuSans-69"/>
     <use x="114.0625" xlink:href="#DejaVuSans-73"/>
     <use x="166.162109" xlink:href="#DejaVuSans-63"/>
     <use x="221.142578" xlink:href="#DejaVuSans-2e"/>
     <use x="252.929688" xlink:href="#DejaVuSans-20"/>
     <use x="284.716797" xlink:href="#DejaVuSans-6d"/>
     <use x="382.128906" xlink:href="#DejaVuSans-6f"/>
     <use x="443.310547" xlink:href="#DejaVuSans-64"/>
     <use x="506.787109" xlink:href="#DejaVuSans-65"/>
     <use x="568.310547" xlink:href="#DejaVuSans-72"/>
     <use x="609.423828" xlink:href="#DejaVuSans-61"/>
     <use x="670.703125" xlink:href="#DejaVuSans-74"/>
     <use x="709.912109" xlink:href="#DejaVuSans-65"/>
     <use x="771.435547" xlink:href="#DejaVuSans-20"/>
     <use x="803.222656" xlink:href="#DejaVuSans-66"/>
     <use x="838.427734" xlink:href="#DejaVuSans-75"/>
     <use x="901.806641" xlink:href="#DejaVuSans-6e"/>
     <use x="965.185547" xlink:href="#DejaVuSans-63"/>
     <use x="1020.166016" xlink:href="#DejaVuSans-74"/>
     <use x="1059.375" xlink:href="#DejaVuSans-69"/>
     <use x="1087.158203" xlink:href="#DejaVuSans-6f"/>
     <use x="1148.339844" xlink:href="#DejaVuSans-6e"/>
     <use x="1211.71875" xlink:href="#DejaVuSans-73"/>
     <use x="1263.818359" xlink:href="#DejaVuSans-2c"/>
     <use x="1295.605469" xlink:href="#DejaVuSans-20"/>
     <use x="1327.392578" xlink:href="#DejaVuSans-35"/>
     <use x="1391.015625" xlink:href="#DejaVuSans-2d"/>
     <use x="1427.099609" xlink:href="#DejaVuSans-44"/>
    </g>
    <!-- 51 targets: 100..1e-08 -->
    <defs>
     <path d="M 11.71875 12.40625 
L 22.015625 12.40625 
L 22.015625 0 
L 11.71875 0 
z
M 11.71875 51.703125 
L 22.015625 51.703125 
L 22.015625 39.3125 
L 11.71875 39.3125 
z
" id="DejaVuSans-3a"/>
    </defs>
    <g transform="translate(59.55864 40.319519)scale(0.102 -0.102)">
     <use xlink:href="#DejaVuSans-35"/>
     <use x="63.623047" xlink:href="#DejaVuSans-31"/>
     <use x="127.246094" xlink:href="#DejaVuSans-20"/>
     <use x="159.033203" xlink:href="#DejaVuSans-74"/>
     <use x="198.242188" xlink:href="#DejaVuSans-61"/>
     <use x="259.521484" xlink:href="#DejaVuSans-72"/>
     <use x="300.619141" xlink:href="#DejaVuSans-67"/>
     <use x="364.095703" xlink:href="#DejaVuSans-65"/>
     <use x="425.619141" xlink:href="#DejaVuSans-74"/>
     <use x="464.828125" xlink:href="#DejaVuSans-73"/>
     <use x="516.927734" xlink:href="#DejaVuSans-3a"/>
     <use x="550.619141" xlink:href="#DejaVuSans-20"/>
     <use x="582.40625" xlink:href="#DejaVuSans-31"/>
     <use x="646.029297" xlink:href="#DejaVuSans-30"/>
     <use x="709.652344" xlink:href="#DejaVuSans-30"/>
     <use x="773.275391" xlink:href="#DejaVuSans-2e"/>
     <use x="805.0625" xlink:href="#DejaVuSans-2e"/>
     <use x="836.849609" xlink:href="#DejaVuSans-31"/>
     <use x="900.472656" xlink:href="#DejaVuSans-65"/>
     <use x="961.996094" xlink:href="#DejaVuSans-2d"/>
     <use x="998.080078" xlink:href="#DejaVuSans-30"/>
     <use x="1061.703125" xlink:href="#DejaVuSans-38"/>
    </g>
    <!-- 15 instances -->
    <g transform="translate(59.55864 51.741288)scale(0.102 -0.102)">
     <use xlink:href="#DejaVuSans-31"/>
     <use x="63.623047" xlink:href="#DejaVuSans-35"/>
     <use x="127.246094" xlink:href="#DejaVuSans-20"/>
     <use x="159.033203" xlink:href="#DejaVuSans-69"/>
     <use x="186.816406" xlink:href="#DejaVuSans-6e"/>
     <use x="250.195312" xlink:href="#DejaVuSans-73"/>
     <use x="302.294922" xlink:href="#DejaVuSans-74"/>
     <use x="341.503906" xlink:href="#DejaVuSans-61"/>
     <use x="402.783203" xlink:href="#DejaVuSans-6e"/>
     <use x="466.162109" xlink:href="#DejaVuSans-63"/>
     <use x="521.142578" xlink:href="#DejaVuSans-65"/>
     <use x="582.666016" xlink:href="#DejaVuSans-73"/>
    </g>
   </g>
   <g id="text_19">
    <!-- v0.0.0 -->
    <g style="fill:#808080;" transform="translate(212.37075 289.919965)scale(0.1 -0.1)">
     <use xlink:href="#DejaVuSans-76"/>
     <use x="59.179688" xlink:href="#DejaVuSans-30"/>
     <use x="122.802734" xlink:href="#DejaVuSans-2e"/>
     <use x="154.589844" xlink:href="#DejaVuSans-30"/>
     <use x="218.212891" xlink:href="#DejaVuSans-2e"/>
     <use x="250" xlink:href="#DejaVuSans-30"/>
    </g>
   </g>
  </g>
 </g>
 <defs>
  <clipPath id="p23207ba58d">
   <rect height="288.034772" width="343.864" x="56.12" y="6.845228"/>
  </clipPath>
 </defs>
</svg>
