<?xml version="1.0" encoding="utf-8" standalone="no"?>
<!DOCTYPE svg PUBLIC "-//W3C//DTD SVG 1.1//EN"
  "http://www.w3.org/Graphics/SVG/1.1/DTD/svg11.dtd">
<!-- Created with matplotlib (http://matplotlib.org/) -->
<svg height="345.6pt" version="1.1" viewBox="0 0 460.8 345.6" width="460.8pt" xmlns="http://www.w3.org/2000/svg" xmlns:xlink="http://www.w3.org/1999/xlink">
 <defs>
  <style type="text/css">
*{stroke-linecap:butt;stroke-linejoin:round;}
  </style>
 </defs>
 <g id="figure_1">
  <g id="patch_1">
   <path d="M 0 345.6 
L 460.8 345.6 
L 460.8 0 
L 0 0 
z
" style="fill:#ffffff;"/>
  </g>
  <g id="axes_1">
   <g id="patch_2">
    <path d="M 56.12 294.88 
L 399.984 294.88 
L 399.984 6.845228 
L 56.12 6.845228 
z
" style="fill:#ffffff;"/>
   </g>
   <g id="matplotlib.axis_1">
    <g id="xtick_1">
     <g id="line2d_1">
      <path clip-path="url(#pb608daa4b3)" d="M 56.12 294.88 
L 56.12 6.845228 
" style="fill:none;stroke:#b0b0b0;stroke-linecap:square;stroke-width:0.8;"/>
     </g>
     <g id="line2d_2">
      <defs>
       <path d="M 0 0 
L 0 3.5 
" id="mf0653ba57b" style="stroke:#000000;stroke-width:0.8;"/>
      </defs>
      <g>
       <use style="stroke:#000000;stroke-width:0.8;" x="56.12" xlink:href="#mf0653ba57b" y="294.88"/>
      </g>
     </g>
     <g id="text_1">
      <!-- 0 -->
      <defs>
       <path d="M 31.78125 66.40625 
Q 24.171875 66.40625 20.328125 58.90625 
Q 16.5 51.421875 16.5 36.375 
Q 16.5 21.390625 20.328125 13.890625 
Q 24.171875 6.390625 31.78125 6.390625 
Q 39.453125 6.390625 43.28125 13.890625 
Q 47.125 21.390625 47.125 36.375 
Q 47.125 51.421875 43.28125 58.90625 
Q 39.453125 66.40625 31.78125 66.40625 
z
M 31.78125 74.21875 
Q 44.046875 74.21875 50.515625 64.515625 
Q 56.984375 54.828125 56.984375 36.375 
Q 56.984375 17.96875 50.515625 8.265625 
Q 44.046875 -1.421875 31.78125 -1.421875 
Q 19.53125 -1.421875 13.0625 8.265625 
Q 6.59375 17.96875 6.59375 36.375 
Q 6.59375 54.828125 13.0625 64.515625 
Q 19.53125 74.21875 31.78125 74.21875 
z
" id="DejaVuSans-30"/>
      </defs>
      <g transform="translate(49.7575 317.076875)scale(0.2 -0.2)">
       <use xlink:href="#DejaVuSans-30"/>
      </g>
     </g>
    </g>
    <g id="xtick_2">
     <g id="line2d_3">
      <path clip-path="url(#pb608daa4b3)" d="M 135.351336 294.88 
L 135.351336 6.845228 
" style="fill:none;stroke:#b0b0b0;stroke-linecap:square;stroke-width:0.8;"/>
     </g>
     <g id="line2d_4">
      <g>
       <use style="stroke:#000000;stroke-width:0.8;" x="135.351336" xlink:href="#mf0653ba57b" y="294.88"/>
      </g>
     </g>
     <g id="text_2">
      <!-- 2 -->
      <defs>
       <path d="M 19.1875 8.296875 
L 53.609375 8.296875 
L 53.609375 0 
L 7.328125 0 
L 7.328125 8.296875 
Q 12.9375 14.109375 22.625 23.890625 
Q 32.328125 33.6875 34.8125 36.53125 
Q 39.546875 41.84375 41.421875 45.53125 
Q 43.3125 49.21875 43.3125 52.78125 
Q 43.3125 58.59375 39.234375 62.25 
Q 35.15625 65.921875 28.609375 65.921875 
Q 23.96875 65.921875 18.8125 64.3125 
Q 13.671875 62.703125 7.8125 59.421875 
L 7.8125 69.390625 
Q 13.765625 71.78125 18.9375 73 
Q 24.125 74.21875 28.421875 74.21875 
Q 39.75 74.21875 46.484375 68.546875 
Q 53.21875 62.890625 53.21875 53.421875 
Q 53.21875 48.921875 51.53125 44.890625 
Q 49.859375 40.875 45.40625 35.40625 
Q 44.1875 33.984375 37.640625 27.21875 
Q 31.109375 20.453125 19.1875 8.296875 
z
" id="DejaVuSans-32"/>
      </defs>
      <g transform="translate(128.988836 317.076875)scale(0.2 -0.2)">
       <use xlink:href="#DejaVuSans-32"/>
      </g>
     </g>
    </g>
    <g id="xtick_3">
     <g id="line2d_5">
      <path clip-path="url(#pb608daa4b3)" d="M 214.582673 294.88 
L 214.582673 6.845228 
" style="fill:none;stroke:#b0b0b0;stroke-linecap:square;stroke-width:0.8;"/>
     </g>
     <g id="line2d_6">
      <g>
       <use style="stroke:#000000;stroke-width:0.8;" x="214.582673" xlink:href="#mf0653ba57b" y="294.88"/>
      </g>
     </g>
     <g id="text_3">
      <!-- 4 -->
      <defs>
       <path d="M 37.796875 64.3125 
L 12.890625 25.390625 
L 37.796875 25.390625 
z
M 35.203125 72.90625 
L 47.609375 72.90625 
L 47.609375 25.390625 
L 58.015625 25.390625 
L 58.015625 17.1875 
L 47.609375 17.1875 
L 47.609375 0 
L 37.796875 0 
L 37.796875 17.1875 
L 4.890625 17.1875 
L 4.890625 26.703125 
z
" id="DejaVuSans-34"/>
      </defs>
      <g transform="translate(208.220173 317.076875)scale(0.2 -0.2)">
       <use xlink:href="#DejaVuSans-34"/>
      </g>
     </g>
    </g>
    <g id="xtick_4">
     <g id="line2d_7">
      <path clip-path="url(#pb608daa4b3)" d="M 293.814009 294.88 
L 293.814009 6.845228 
" style="fill:none;stroke:#b0b0b0;stroke-linecap:square;stroke-width:0.8;"/>
     </g>
     <g id="line2d_8">
      <g>
       <use style="stroke:#000000;stroke-width:0.8;" x="293.814009" xlink:href="#mf0653ba57b" y="294.88"/>
      </g>
     </g>
     <g id="text_4">
      <!-- 6 -->
      <defs>
       <path d="M 33.015625 40.375 
Q 26.375 40.375 22.484375 35.828125 
Q 18.609375 31.296875 18.609375 23.390625 
Q 18.609375 15.53125 22.484375 10.953125 
Q 26.375 6.390625 33.015625 6.390625 
Q 39.65625 6.390625 43.53125 10.953125 
Q 47.40625 15.53125 47.40625 23.390625 
Q 47.40625 31.296875 43.53125 35.828125 
Q 39.65625 40.375 33.015625 40.375 
z
M 52.59375 71.296875 
L 52.59375 62.3125 
Q 48.875 64.0625 45.09375 64.984375 
Q 41.3125 65.921875 37.59375 65.921875 
Q 27.828125 65.921875 22.671875 59.328125 
Q 17.53125 52.734375 16.796875 39.40625 
Q 19.671875 43.65625 24.015625 45.921875 
Q 28.375 48.1875 33.59375 48.1875 
Q 44.578125 48.1875 50.953125 41.515625 
Q 57.328125 34.859375 57.328125 23.390625 
Q 57.328125 12.15625 50.6875 5.359375 
Q 44.046875 -1.421875 33.015625 -1.421875 
Q 20.359375 -1.421875 13.671875 8.265625 
Q 6.984375 17.96875 6.984375 36.375 
Q 6.984375 53.65625 15.1875 63.9375 
Q 23.390625 74.21875 37.203125 74.21875 
Q 40.921875 74.21875 44.703125 73.484375 
Q 48.484375 72.75 52.59375 71.296875 
z
" id="DejaVuSans-36"/>
      </defs>
      <g transform="translate(287.451509 317.076875)scale(0.2 -0.2)">
       <use xlink:href="#DejaVuSans-36"/>
      </g>
     </g>
    </g>
    <g id="xtick_5">
     <g id="line2d_9">
      <path clip-path="url(#pb608daa4b3)" d="M 373.045346 294.88 
L 373.045346 6.845228 
" style="fill:none;stroke:#b0b0b0;stroke-linecap:square;stroke-width:0.8;"/>
     </g>
     <g id="line2d_10">
      <g>
       <use style="stroke:#000000;stroke-width:0.8;" x="373.045346" xlink:href="#mf0653ba57b" y="294.88"/>
      </g>
     </g>
     <g id="text_5">
      <!-- 8 -->
      <defs>
       <path d="M 31.78125 34.625 
Q 24.75 34.625 20.71875 30.859375 
Q 16.703125 27.09375 16.703125 20.515625 
Q 16.703125 13.921875 20.71875 10.15625 
Q 24.75 6.390625 31.78125 6.390625 
Q 38.8125 6.390625 42.859375 10.171875 
Q 46.921875 13.96875 46.921875 20.515625 
Q 46.921875 27.09375 42.890625 30.859375 
Q 38.875 34.625 31.78125 34.625 
z
M 21.921875 38.8125 
Q 15.578125 40.375 12.03125 44.71875 
Q 8.5 49.078125 8.5 55.328125 
Q 8.5 64.0625 14.71875 69.140625 
Q 20.953125 74.21875 31.78125 74.21875 
Q 42.671875 74.21875 48.875 69.140625 
Q 55.078125 64.0625 55.078125 55.328125 
Q 55.078125 49.078125 51.53125 44.71875 
Q 48 40.375 41.703125 38.8125 
Q 48.828125 37.15625 52.796875 32.3125 
Q 56.78125 27.484375 56.78125 20.515625 
Q 56.78125 9.90625 50.3125 4.234375 
Q 43.84375 -1.421875 31.78125 -1.421875 
Q 19.734375 -1.421875 13.25 4.234375 
Q 6.78125 9.90625 6.78125 20.515625 
Q 6.78125 27.484375 10.78125 32.3125 
Q 14.796875 37.15625 21.921875 38.8125 
z
M 18.3125 54.390625 
Q 18.3125 48.734375 21.84375 45.5625 
Q 25.390625 42.390625 31.78125 42.390625 
Q 38.140625 42.390625 41.71875 45.5625 
Q 45.3125 48.734375 45.3125 54.390625 
Q 45.3125 60.0625 41.71875 63.234375 
Q 38.140625 66.40625 31.78125 66.40625 
Q 25.390625 66.40625 21.84375 63.234375 
Q 18.3125 60.0625 18.3125 54.390625 
z
" id="DejaVuSans-38"/>
      </defs>
      <g transform="translate(366.682846 317.076875)scale(0.2 -0.2)">
       <use xlink:href="#DejaVuSans-38"/>
      </g>
     </g>
    </g>
    <g id="text_6">
     <!-- log10(# f-evals / dimension) -->
     <defs>
      <path d="M 9.421875 75.984375 
L 18.40625 75.984375 
L 18.40625 0 
L 9.421875 0 
z
" id="DejaVuSans-6c"/>
      <path d="M 30.609375 48.390625 
Q 23.390625 48.390625 19.1875 42.75 
Q 14.984375 37.109375 14.984375 27.296875 
Q 14.984375 17.484375 19.15625 11.84375 
Q 23.34375 6.203125 30.609375 6.203125 
Q 37.796875 6.203125 41.984375 11.859375 
Q 46.1875 17.53125 46.1875 27.296875 
Q 46.1875 37.015625 41.984375 42.703125 
Q 37.796875 48.390625 30.609375 48.390625 
z
M 30.609375 56 
Q 42.328125 56 49.015625 48.375 
Q 55.71875 40.765625 55.71875 27.296875 
Q 55.71875 13.875 49.015625 6.21875 
Q 42.328125 -1.421875 30.609375 -1.421875 
Q 18.84375 -1.421875 12.171875 6.21875 
Q 5.515625 13.875 5.515625 27.296875 
Q 5.515625 40.765625 12.171875 48.375 
Q 18.84375 56 30.609375 56 
z
" id="DejaVuSans-6f"/>
      <path d="M 45.40625 27.984375 
Q 45.40625 37.75 41.375 43.109375 
Q 37.359375 48.484375 30.078125 48.484375 
Q 22.859375 48.484375 18.828125 43.109375 
Q 14.796875 37.75 14.796875 27.984375 
Q 14.796875 18.265625 18.828125 12.890625 
Q 22.859375 7.515625 30.078125 7.515625 
Q 37.359375 7.515625 41.375 12.890625 
Q 45.40625 18.265625 45.40625 27.984375 
z
M 54.390625 6.78125 
Q 54.390625 -7.171875 48.1875 -13.984375 
Q 42 -20.796875 29.203125 -20.796875 
Q 24.46875 -20.796875 20.265625 -20.09375 
Q 16.0625 -19.390625 12.109375 -17.921875 
L 12.109375 -9.1875 
Q 16.0625 -11.328125 19.921875 -12.34375 
Q 23.78125 -13.375 27.78125 -13.375 
Q 36.625 -13.375 41.015625 -8.765625 
Q 45.40625 -4.15625 45.40625 5.171875 
L 45.40625 9.625 
Q 42.625 4.78125 38.28125 2.390625 
Q 33.9375 0 27.875 0 
Q 17.828125 0 11.671875 7.65625 
Q 5.515625 15.328125 5.515625 27.984375 
Q 5.515625 40.671875 11.671875 48.328125 
Q 17.828125 56 27.875 56 
Q 33.9375 56 38.28125 53.609375 
Q 42.625 51.21875 45.40625 46.390625 
L 45.40625 54.6875 
L 54.390625 54.6875 
z
" id="DejaVuSans-67"/>
      <path d="M 12.40625 8.296875 
L 28.515625 8.296875 
L 28.515625 63.921875 
L 10.984375 60.40625 
L 10.984375 69.390625 
L 28.421875 72.90625 
L 38.28125 72.90625 
L 38.28125 8.296875 
L 54.390625 8.296875 
L 54.390625 0 
L 12.40625 0 
z
" id="DejaVuSans-31"/>
      <path d="M 31 75.875 
Q 24.46875 64.65625 21.28125 53.65625 
Q 18.109375 42.671875 18.109375 31.390625 
Q 18.109375 20.125 21.3125 9.0625 
Q 24.515625 -2 31 -13.1875 
L 23.1875 -13.1875 
Q 15.875 -1.703125 12.234375 9.375 
Q 8.59375 20.453125 8.59375 31.390625 
Q 8.59375 42.28125 12.203125 53.3125 
Q 15.828125 64.359375 23.1875 75.875 
z
" id="DejaVuSans-28"/>
      <path d="M 51.125 44 
L 36.921875 44 
L 32.8125 27.6875 
L 47.125 27.6875 
z
M 43.796875 71.78125 
L 38.71875 51.515625 
L 52.984375 51.515625 
L 58.109375 71.78125 
L 65.921875 71.78125 
L 60.890625 51.515625 
L 76.125 51.515625 
L 76.125 44 
L 58.984375 44 
L 54.984375 27.6875 
L 70.515625 27.6875 
L 70.515625 20.21875 
L 53.078125 20.21875 
L 48 0 
L 40.1875 0 
L 45.21875 20.21875 
L 30.90625 20.21875 
L 25.875 0 
L 18.015625 0 
L 23.09375 20.21875 
L 7.71875 20.21875 
L 7.71875 27.6875 
L 24.90625 27.6875 
L 29 44 
L 13.28125 44 
L 13.28125 51.515625 
L 30.90625 51.515625 
L 35.890625 71.78125 
z
" id="DejaVuSans-23"/>
      <path id="DejaVuSans-20"/>
      <path d="M 37.109375 75.984375 
L 37.109375 68.5 
L 28.515625 68.5 
Q 23.6875 68.5 21.796875 66.546875 
Q 19.921875 64.59375 19.921875 59.515625 
L 19.921875 54.6875 
L 34.71875 54.6875 
L 34.71875 47.703125 
L 19.921875 47.703125 
L 19.921875 0 
L 10.890625 0 
L 10.890625 47.703125 
L 2.296875 47.703125 
L 2.296875 54.6875 
L 10.890625 54.6875 
L 10.890625 58.5 
Q 10.890625 67.625 15.140625 71.796875 
Q 19.390625 75.984375 28.609375 75.984375 
z
" id="DejaVuSans-66"/>
      <path d="M 4.890625 31.390625 
L 31.203125 31.390625 
L 31.203125 23.390625 
L 4.890625 23.390625 
z
" id="DejaVuSans-2d"/>
      <path d="M 56.203125 29.59375 
L 56.203125 25.203125 
L 14.890625 25.203125 
Q 15.484375 15.921875 20.484375 11.0625 
Q 25.484375 6.203125 34.421875 6.203125 
Q 39.59375 6.203125 44.453125 7.46875 
Q 49.3125 8.734375 54.109375 11.28125 
L 54.109375 2.78125 
Q 49.265625 0.734375 44.1875 -0.34375 
Q 39.109375 -1.421875 33.890625 -1.421875 
Q 20.796875 -1.421875 13.15625 6.1875 
Q 5.515625 13.8125 5.515625 26.8125 
Q 5.515625 40.234375 12.765625 48.109375 
Q 20.015625 56 32.328125 56 
Q 43.359375 56 49.78125 48.890625 
Q 56.203125 41.796875 56.203125 29.59375 
z
M 47.21875 32.234375 
Q 47.125 39.59375 43.09375 43.984375 
Q 39.0625 48.390625 32.421875 48.390625 
Q 24.90625 48.390625 20.390625 44.140625 
Q 15.875 39.890625 15.1875 32.171875 
z
" id="DejaVuSans-65"/>
      <path d="M 2.984375 54.6875 
L 12.5 54.6875 
L 29.59375 8.796875 
L 46.6875 54.6875 
L 56.203125 54.6875 
L 35.6875 0 
L 23.484375 0 
z
" id="DejaVuSans-76"/>
      <path d="M 34.28125 27.484375 
Q 23.390625 27.484375 19.1875 25 
Q 14.984375 22.515625 14.984375 16.5 
Q 14.984375 11.71875 18.140625 8.90625 
Q 21.296875 6.109375 26.703125 6.109375 
Q 34.1875 6.109375 38.703125 11.40625 
Q 43.21875 16.703125 43.21875 25.484375 
L 43.21875 27.484375 
z
M 52.203125 31.203125 
L 52.203125 0 
L 43.21875 0 
L 43.21875 8.296875 
Q 40.140625 3.328125 35.546875 0.953125 
Q 30.953125 -1.421875 24.3125 -1.421875 
Q 15.921875 -1.421875 10.953125 3.296875 
Q 6 8.015625 6 15.921875 
Q 6 25.140625 12.171875 29.828125 
Q 18.359375 34.515625 30.609375 34.515625 
L 43.21875 34.515625 
L 43.21875 35.40625 
Q 43.21875 41.609375 39.140625 45 
Q 35.0625 48.390625 27.6875 48.390625 
Q 23 48.390625 18.546875 47.265625 
Q 14.109375 46.140625 10.015625 43.890625 
L 10.015625 52.203125 
Q 14.9375 54.109375 19.578125 55.046875 
Q 24.21875 56 28.609375 56 
Q 40.484375 56 46.34375 49.84375 
Q 52.203125 43.703125 52.203125 31.203125 
z
" id="DejaVuSans-61"/>
      <path d="M 44.28125 53.078125 
L 44.28125 44.578125 
Q 40.484375 46.53125 36.375 47.5 
Q 32.28125 48.484375 27.875 48.484375 
Q 21.1875 48.484375 17.84375 46.4375 
Q 14.5 44.390625 14.5 40.28125 
Q 14.5 37.15625 16.890625 35.375 
Q 19.28125 33.59375 26.515625 31.984375 
L 29.59375 31.296875 
Q 39.15625 29.25 43.1875 25.515625 
Q 47.21875 21.78125 47.21875 15.09375 
Q 47.21875 7.46875 41.1875 3.015625 
Q 35.15625 -1.421875 24.609375 -1.421875 
Q 20.21875 -1.421875 15.453125 -0.5625 
Q 10.6875 0.296875 5.421875 2 
L 5.421875 11.28125 
Q 10.40625 8.6875 15.234375 7.390625 
Q 20.0625 6.109375 24.8125 6.109375 
Q 31.15625 6.109375 34.5625 8.28125 
Q 37.984375 10.453125 37.984375 14.40625 
Q 37.984375 18.0625 35.515625 20.015625 
Q 33.0625 21.96875 24.703125 23.78125 
L 21.578125 24.515625 
Q 13.234375 26.265625 9.515625 29.90625 
Q 5.8125 33.546875 5.8125 39.890625 
Q 5.8125 47.609375 11.28125 51.796875 
Q 16.75 56 26.8125 56 
Q 31.78125 56 36.171875 55.265625 
Q 40.578125 54.546875 44.28125 53.078125 
z
" id="DejaVuSans-73"/>
      <path d="M 25.390625 72.90625 
L 33.6875 72.90625 
L 8.296875 -9.28125 
L 0 -9.28125 
z
" id="DejaVuSans-2f"/>
      <path d="M 45.40625 46.390625 
L 45.40625 75.984375 
L 54.390625 75.984375 
L 54.390625 0 
L 45.40625 0 
L 45.40625 8.203125 
Q 42.578125 3.328125 38.25 0.953125 
Q 33.9375 -1.421875 27.875 -1.421875 
Q 17.96875 -1.421875 11.734375 6.484375 
Q 5.515625 14.40625 5.515625 27.296875 
Q 5.515625 40.1875 11.734375 48.09375 
Q 17.96875 56 27.875 56 
Q 33.9375 56 38.25 53.625 
Q 42.578125 51.265625 45.40625 46.390625 
z
M 14.796875 27.296875 
Q 14.796875 17.390625 18.875 11.75 
Q 22.953125 6.109375 30.078125 6.109375 
Q 37.203125 6.109375 41.296875 11.75 
Q 45.40625 17.390625 45.40625 27.296875 
Q 45.40625 37.203125 41.296875 42.84375 
Q 37.203125 48.484375 30.078125 48.484375 
Q 22.953125 48.484375 18.875 42.84375 
Q 14.796875 37.203125 14.796875 27.296875 
z
" id="DejaVuSans-64"/>
      <path d="M 9.421875 54.6875 
L 18.40625 54.6875 
L 18.40625 0 
L 9.421875 0 
z
M 9.421875 75.984375 
L 18.40625 75.984375 
L 18.40625 64.59375 
L 9.421875 64.59375 
z
" id="DejaVuSans-69"/>
      <path d="M 52 44.1875 
Q 55.375 50.25 60.0625 53.125 
Q 64.75 56 71.09375 56 
Q 79.640625 56 84.28125 50.015625 
Q 88.921875 44.046875 88.921875 33.015625 
L 88.921875 0 
L 79.890625 0 
L 79.890625 32.71875 
Q 79.890625 40.578125 77.09375 44.375 
Q 74.3125 48.1875 68.609375 48.1875 
Q 61.625 48.1875 57.5625 43.546875 
Q 53.515625 38.921875 53.515625 30.90625 
L 53.515625 0 
L 44.484375 0 
L 44.484375 32.71875 
Q 44.484375 40.625 41.703125 44.40625 
Q 38.921875 48.1875 33.109375 48.1875 
Q 26.21875 48.1875 22.15625 43.53125 
Q 18.109375 38.875 18.109375 30.90625 
L 18.109375 0 
L 9.078125 0 
L 9.078125 54.6875 
L 18.109375 54.6875 
L 18.109375 46.1875 
Q 21.1875 51.21875 25.484375 53.609375 
Q 29.78125 56 35.6875 56 
Q 41.65625 56 45.828125 52.96875 
Q 50 49.953125 52 44.1875 
z
" id="DejaVuSans-6d"/>
      <path d="M 54.890625 33.015625 
L 54.890625 0 
L 45.90625 0 
L 45.90625 32.71875 
Q 45.90625 40.484375 42.875 44.328125 
Q 39.84375 48.1875 33.796875 48.1875 
Q 26.515625 48.1875 22.3125 43.546875 
Q 18.109375 38.921875 18.109375 30.90625 
L 18.109375 0 
L 9.078125 0 
L 9.078125 54.6875 
L 18.109375 54.6875 
L 18.109375 46.1875 
Q 21.34375 51.125 25.703125 53.5625 
Q 30.078125 56 35.796875 56 
Q 45.21875 56 50.046875 50.171875 
Q 54.890625 44.34375 54.890625 33.015625 
z
" id="DejaVuSans-6e"/>
      <path d="M 8.015625 75.875 
L 15.828125 75.875 
Q 23.140625 64.359375 26.78125 53.3125 
Q 30.421875 42.28125 30.421875 31.390625 
Q 30.421875 20.453125 26.78125 9.375 
Q 23.140625 -1.703125 15.828125 -13.1875 
L 8.015625 -13.1875 
Q 14.5 -2 17.703125 9.0625 
Q 20.90625 20.125 20.90625 31.390625 
Q 20.90625 42.671875 17.703125 53.65625 
Q 14.5 64.65625 8.015625 75.875 
z
" id="DejaVuSans-29"/>
     </defs>
     <g transform="translate(107.211219 338.153594)scale(0.17 -0.17)">
      <use xlink:href="#DejaVuSans-6c"/>
      <use x="27.783203" xlink:href="#DejaVuSans-6f"/>
      <use x="88.964844" xlink:href="#DejaVuSans-67"/>
      <use x="152.441406" xlink:href="#DejaVuSans-31"/>
      <use x="216.064453" xlink:href="#DejaVuSans-30"/>
      <use x="279.6875" xlink:href="#DejaVuSans-28"/>
      <use x="318.701172" xlink:href="#DejaVuSans-23"/>
      <use x="402.490234" xlink:href="#DejaVuSans-20"/>
      <use x="434.277344" xlink:href="#DejaVuSans-66"/>
      <use x="469.404297" xlink:href="#DejaVuSans-2d"/>
      <use x="505.488281" xlink:href="#DejaVuSans-65"/>
      <use x="567.011719" xlink:href="#DejaVuSans-76"/>
      <use x="626.191406" xlink:href="#DejaVuSans-61"/>
      <use x="687.470703" xlink:href="#DejaVuSans-6c"/>
      <use x="715.253906" xlink:href="#DejaVuSans-73"/>
      <use x="767.353516" xlink:href="#DejaVuSans-20"/>
      <use x="799.140625" xlink:href="#DejaVuSans-2f"/>
      <use x="832.832031" xlink:href="#DejaVuSans-20"/>
      <use x="864.619141" xlink:href="#DejaVuSans-64"/>
      <use x="928.095703" xlink:href="#DejaVuSans-69"/>
      <use x="955.878906" xlink:href="#DejaVuSans-6d"/>
      <use x="1053.291016" xlink:href="#DejaVuSans-65"/>
      <use x="1114.814453" xlink:href="#DejaVuSans-6e"/>
      <use x="1178.193359" xlink:href="#DejaVuSans-73"/>
      <use x="1230.292969" xlink:href="#DejaVuSans-69"/>
      <use x="1258.076172" xlink:href="#DejaVuSans-6f"/>
      <use x="1319.257812" xlink:href="#DejaVuSans-6e"/>
      <use x="1382.636719" xlink:href="#DejaVuSans-29"/>
     </g>
    </g>
   </g>
   <g id="matplotlib.axis_2">
    <g id="ytick_1">
     <g id="line2d_11">
      <path clip-path="url(#pb608daa4b3)" d="M 56.12 294.88 
L 399.984 294.88 
" style="fill:none;stroke:#b0b0b0;stroke-linecap:square;stroke-width:0.8;"/>
     </g>
     <g id="line2d_12">
      <defs>
       <path d="M 0 0 
L -3.5 0 
" id="m82a3e3990f" style="stroke:#000000;stroke-width:0.8;"/>
      </defs>
      <g>
       <use style="stroke:#000000;stroke-width:0.8;" x="56.12" xlink:href="#m82a3e3990f" y="294.88"/>
      </g>
     </g>
     <g id="text_7">
      <!-- 0.0 -->
      <defs>
       <path d="M 10.6875 12.40625 
L 21 12.40625 
L 21 0 
L 10.6875 0 
z
" id="DejaVuSans-2e"/>
      </defs>
      <g transform="translate(23.675 300.95875)scale(0.16 -0.16)">
       <use xlink:href="#DejaVuSans-30"/>
       <use x="63.623047" xlink:href="#DejaVuSans-2e"/>
       <use x="95.410156" xlink:href="#DejaVuSans-30"/>
      </g>
     </g>
    </g>
    <g id="ytick_2">
     <g id="line2d_13">
      <path clip-path="url(#pb608daa4b3)" d="M 56.12 237.843411 
L 399.984 237.843411 
" style="fill:none;stroke:#b0b0b0;stroke-linecap:square;stroke-width:0.8;"/>
     </g>
     <g id="line2d_14">
      <g>
       <use style="stroke:#000000;stroke-width:0.8;" x="56.12" xlink:href="#m82a3e3990f" y="237.843411"/>
      </g>
     </g>
     <g id="text_8">
      <!-- 0.2 -->
      <g transform="translate(23.675 243.922161)scale(0.16 -0.16)">
       <use xlink:href="#DejaVuSans-30"/>
       <use x="63.623047" xlink:href="#DejaVuSans-2e"/>
       <use x="95.410156" xlink:href="#DejaVuSans-32"/>
      </g>
     </g>
    </g>
    <g id="ytick_3">
     <g id="line2d_15">
      <path clip-path="url(#pb608daa4b3)" d="M 56.12 180.806823 
L 399.984 180.806823 
" style="fill:none;stroke:#b0b0b0;stroke-linecap:square;stroke-width:0.8;"/>
     </g>
     <g id="line2d_16">
      <g>
       <use style="stroke:#000000;stroke-width:0.8;" x="56.12" xlink:href="#m82a3e3990f" y="180.806823"/>
      </g>
     </g>
     <g id="text_9">
      <!-- 0.4 -->
      <g transform="translate(23.675 186.885573)scale(0.16 -0.16)">
       <use xlink:href="#DejaVuSans-30"/>
       <use x="63.623047" xlink:href="#DejaVuSans-2e"/>
       <use x="95.410156" xlink:href="#DejaVuSans-34"/>
      </g>
     </g>
    </g>
    <g id="ytick_4">
     <g id="line2d_17">
      <path clip-path="url(#pb608daa4b3)" d="M 56.12 123.770234 
L 399.984 123.770234 
" style="fill:none;stroke:#b0b0b0;stroke-linecap:square;stroke-width:0.8;"/>
     </g>
     <g id="line2d_18">
      <g>
       <use style="stroke:#000000;stroke-width:0.8;" x="56.12" xlink:href="#m82a3e3990f" y="123.770234"/>
      </g>
     </g>
     <g id="text_10">
      <!-- 0.6 -->
      <g transform="translate(23.675 129.848984)scale(0.16 -0.16)">
       <use xlink:href="#DejaVuSans-30"/>
       <use x="63.623047" xlink:href="#DejaVuSans-2e"/>
       <use x="95.410156" xlink:href="#DejaVuSans-36"/>
      </g>
     </g>
    </g>
    <g id="ytick_5">
     <g id="line2d_19">
      <path clip-path="url(#pb608daa4b3)" d="M 56.12 66.733646 
L 399.984 66.733646 
" style="fill:none;stroke:#b0b0b0;stroke-linecap:square;stroke-width:0.8;"/>
     </g>
     <g id="line2d_20">
      <g>
       <use style="stroke:#000000;stroke-width:0.8;" x="56.12" xlink:href="#m82a3e3990f" y="66.733646"/>
      </g>
     </g>
     <g id="text_11">
      <!-- 0.8 -->
      <g transform="translate(23.675 72.812396)scale(0.16 -0.16)">
       <use xlink:href="#DejaVuSans-30"/>
       <use x="63.623047" xlink:href="#DejaVuSans-2e"/>
       <use x="95.410156" xlink:href="#DejaVuSans-38"/>
      </g>
     </g>
    </g>
    <g id="ytick_6">
     <g id="line2d_21">
      <path clip-path="url(#pb608daa4b3)" d="M 56.12 9.697057 
L 399.984 9.697057 
" style="fill:none;stroke:#b0b0b0;stroke-linecap:square;stroke-width:0.8;"/>
     </g>
     <g id="line2d_22">
      <g>
       <use style="stroke:#000000;stroke-width:0.8;" x="56.12" xlink:href="#m82a3e3990f" y="9.697057"/>
      </g>
     </g>
     <g id="text_12">
      <!-- 1.0 -->
      <g transform="translate(23.675 15.775807)scale(0.16 -0.16)">
       <use xlink:href="#DejaVuSans-31"/>
       <use x="63.623047" xlink:href="#DejaVuSans-2e"/>
       <use x="95.410156" xlink:href="#DejaVuSans-30"/>
      </g>
     </g>
    </g>
    <g id="text_13">
     <!-- Fraction of function,target pairs -->
     <defs>
      <path d="M 9.8125 72.90625 
L 51.703125 72.90625 
L 51.703125 64.59375 
L 19.671875 64.59375 
L 19.671875 43.109375 
L 48.578125 43.109375 
L 48.578125 34.8125 
L 19.671875 34.8125 
L 19.671875 0 
L 9.8125 0 
z
" id="DejaVuSans-46"/>
      <path d="M 41.109375 46.296875 
Q 39.59375 47.171875 37.8125 47.578125 
Q 36.03125 48 33.890625 48 
Q 26.265625 48 22.1875 43.046875 
Q 18.109375 38.09375 18.109375 28.8125 
L 18.109375 0 
L 9.078125 0 
L 9.078125 54.6875 
L 18.109375 54.6875 
L 18.109375 46.1875 
Q 20.953125 51.171875 25.484375 53.578125 
Q 30.03125 56 36.53125 56 
Q 37.453125 56 38.578125 55.875 
Q 39.703125 55.765625 41.0625 55.515625 
z
" id="DejaVuSans-72"/>
      <path d="M 48.78125 52.59375 
L 48.78125 44.1875 
Q 44.96875 46.296875 41.140625 47.34375 
Q 37.3125 48.390625 33.40625 48.390625 
Q 24.65625 48.390625 19.8125 42.84375 
Q 14.984375 37.3125 14.984375 27.296875 
Q 14.984375 17.28125 19.8125 11.734375 
Q 24.65625 6.203125 33.40625 6.203125 
Q 37.3125 6.203125 41.140625 7.25 
Q 44.96875 8.296875 48.78125 10.40625 
L 48.78125 2.09375 
Q 45.015625 0.34375 40.984375 -0.53125 
Q 36.96875 -1.421875 32.421875 -1.421875 
Q 20.0625 -1.421875 12.78125 6.34375 
Q 5.515625 14.109375 5.515625 27.296875 
Q 5.515625 40.671875 12.859375 48.328125 
Q 20.21875 56 33.015625 56 
Q 37.15625 56 41.109375 55.140625 
Q 45.0625 54.296875 48.78125 52.59375 
z
" id="DejaVuSans-63"/>
      <path d="M 18.3125 70.21875 
L 18.3125 54.6875 
L 36.8125 54.6875 
L 36.8125 47.703125 
L 18.3125 47.703125 
L 18.3125 18.015625 
Q 18.3125 11.328125 20.140625 9.421875 
Q 21.96875 7.515625 27.59375 7.515625 
L 36.8125 7.515625 
L 36.8125 0 
L 27.59375 0 
Q 17.1875 0 13.234375 3.875 
Q 9.28125 7.765625 9.28125 18.015625 
L 9.28125 47.703125 
L 2.6875 47.703125 
L 2.6875 54.6875 
L 9.28125 54.6875 
L 9.28125 70.21875 
z
" id="DejaVuSans-74"/>
      <path d="M 8.5 21.578125 
L 8.5 54.6875 
L 17.484375 54.6875 
L 17.484375 21.921875 
Q 17.484375 14.15625 20.5 10.265625 
Q 23.53125 6.390625 29.59375 6.390625 
Q 36.859375 6.390625 41.078125 11.03125 
Q 45.3125 15.671875 45.3125 23.6875 
L 45.3125 54.6875 
L 54.296875 54.6875 
L 54.296875 0 
L 45.3125 0 
L 45.3125 8.40625 
Q 42.046875 3.421875 37.71875 1 
Q 33.40625 -1.421875 27.6875 -1.421875 
Q 18.265625 -1.421875 13.375 4.4375 
Q 8.5 10.296875 8.5 21.578125 
z
M 31.109375 56 
z
" id="DejaVuSans-75"/>
      <path d="M 11.71875 12.40625 
L 22.015625 12.40625 
L 22.015625 4 
L 14.015625 -11.625 
L 7.71875 -11.625 
L 11.71875 4 
z
" id="DejaVuSans-2c"/>
      <path d="M 18.109375 8.203125 
L 18.109375 -20.796875 
L 9.078125 -20.796875 
L 9.078125 54.6875 
L 18.109375 54.6875 
L 18.109375 46.390625 
Q 20.953125 51.265625 25.265625 53.625 
Q 29.59375 56 35.59375 56 
Q 45.5625 56 51.78125 48.09375 
Q 58.015625 40.1875 58.015625 27.296875 
Q 58.015625 14.40625 51.78125 6.484375 
Q 45.5625 -1.421875 35.59375 -1.421875 
Q 29.59375 -1.421875 25.265625 0.953125 
Q 20.953125 3.328125 18.109375 8.203125 
z
M 48.6875 27.296875 
Q 48.6875 37.203125 44.609375 42.84375 
Q 40.53125 48.484375 33.40625 48.484375 
Q 26.265625 48.484375 22.1875 42.84375 
Q 18.109375 37.203125 18.109375 27.296875 
Q 18.109375 17.390625 22.1875 11.75 
Q 26.265625 6.109375 33.40625 6.109375 
Q 40.53125 6.109375 44.609375 11.75 
Q 48.6875 17.390625 48.6875 27.296875 
z
" id="DejaVuSans-70"/>
     </defs>
     <g transform="translate(16.139531 286.001989)rotate(-90)scale(0.17 -0.17)">
      <use xlink:href="#DejaVuSans-46"/>
      <use x="57.410156" xlink:href="#DejaVuSans-72"/>
      <use x="98.523438" xlink:href="#DejaVuSans-61"/>
      <use x="159.802734" xlink:href="#DejaVuSans-63"/>
      <use x="214.783203" xlink:href="#DejaVuSans-74"/>
      <use x="253.992188" xlink:href="#DejaVuSans-69"/>
      <use x="281.775391" xlink:href="#DejaVuSans-6f"/>
      <use x="342.957031" xlink:href="#DejaVuSans-6e"/>
      <use x="406.335938" xlink:href="#DejaVuSans-20"/>
      <use x="438.123047" xlink:href="#DejaVuSans-6f"/>
      <use x="499.304688" xlink:href="#DejaVuSans-66"/>
      <use x="534.509766" xlink:href="#DejaVuSans-20"/>
      <use x="566.296875" xlink:href="#DejaVuSans-66"/>
      <use x="601.501953" xlink:href="#DejaVuSans-75"/>
      <use x="664.880859" xlink:href="#DejaVuSans-6e"/>
      <use x="728.259766" xlink:href="#DejaVuSans-63"/>
      <use x="783.240234" xlink:href="#DejaVuSans-74"/>
      <use x="822.449219" xlink:href="#DejaVuSans-69"/>
      <use x="850.232422" xlink:href="#DejaVuSans-6f"/>
      <use x="911.414062" xlink:href="#DejaVuSans-6e"/>
      <use x="974.792969" xlink:href="#DejaVuSans-2c"/>
      <use x="1006.580078" xlink:href="#DejaVuSans-74"/>
      <use x="1045.789062" xlink:href="#DejaVuSans-61"/>
      <use x="1107.068359" xlink:href="#DejaVuSans-72"/>
      <use x="1148.166016" xlink:href="#DejaVuSans-67"/>
      <use x="1211.642578" xlink:href="#DejaVuSans-65"/>
      <use x="1273.166016" xlink:href="#DejaVuSans-74"/>
      <use x="1312.375" xlink:href="#DejaVuSans-20"/>
      <use x="1344.162109" xlink:href="#DejaVuSans-70"/>
      <use x="1407.638672" xlink:href="#DejaVuSans-61"/>
      <use x="1468.917969" xlink:href="#DejaVuSans-69"/>
      <use x="1496.701172" xlink:href="#DejaVuSans-72"/>
      <use x="1537.814453" xlink:href="#DejaVuSans-73"/>
     </g>
    </g>
   </g>
   <g id="line2d_23">
    <defs>
     <path d="M 0 1.5 
C 0.397805 1.5 0.77937 1.341951 1.06066 1.06066 
C 1.341951 0.77937 1.5 0.397805 1.5 0 
C 1.5 -0.397805 1.341951 -0.77937 1.06066 -1.06066 
C 0.77937 -1.341951 0.397805 -1.5 0 -1.5 
C -0.397805 -1.5 -0.77937 -1.341951 -1.06066 -1.06066 
C -1.341951 -0.77937 -1.5 -0.397805 -1.5 0 
C -1.5 0.397805 -1.341951 0.77937 -1.06066 1.06066 
C -0.77937 1.341951 -0.397805 1.5 0 1.5 
z
" id="m582dbf32a9" style="stroke:#000080;"/>
    </defs>
    <g>
     <use style="fill:#000080;stroke:#000080;" x="253.26281" xlink:href="#m582dbf32a9" y="183.043552"/>
     <use style="fill:#000080;stroke:#000080;" x="253.26281" xlink:href="#m582dbf32a9" y="183.043552"/>
    </g>
   </g>
   <g id="line2d_24">
    <path d="M 156.110202 294.88 
L 156.110202 293.761636 
L 158.797609 293.761636 
L 158.881074 292.643271 
L 159.555693 292.643271 
L 159.555693 291.524907 
L 160.755904 291.524907 
L 160.755904 290.965724 
L 162.59532 290.965724 
L 162.59532 290.406542 
L 163.499871 290.406542 
L 163.499871 289.84736 
L 164.938997 289.84736 
L 165.040392 288.169813 
L 165.377128 288.169813 
L 165.377128 287.610631 
L 165.544544 287.610631 
L 165.544544 287.051449 
L 166.169714 287.051449 
L 166.169714 286.492266 
L 166.349512 286.492266 
L 166.349512 285.933084 
L 166.695223 285.933084 
L 166.695223 284.81472 
L 167.5951 284.81472 
L 167.637301 283.696355 
L 167.718772 283.696355 
L 167.718772 282.577991 
L 168.270903 282.577991 
L 168.270903 281.459626 
L 168.650096 281.459626 
L 168.650096 280.900444 
L 169.072081 280.900444 
L 169.07935 278.104533 
L 169.538302 278.104533 
L 169.538302 277.545351 
L 169.753951 277.545351 
L 169.753951 276.986168 
L 170.342424 276.986168 
L 170.391877 275.867804 
L 170.878735 275.867804 
L 170.911433 274.749439 
L 171.065369 274.749439 
L 171.065369 274.190257 
L 172.775467 274.190257 
L 172.775467 273.631075 
L 173.285692 273.631075 
L 173.285692 272.51271 
L 195.188338 272.51271 
L 195.188338 271.953528 
L 195.420469 271.953528 
L 195.420469 271.394346 
L 195.557219 271.394346 
L 195.557219 270.835164 
L 195.683604 270.835164 
L 195.750049 269.716799 
L 195.824942 269.716799 
L 195.824942 269.157617 
L 196.262592 269.157617 
L 196.262592 268.598435 
L 197.018199 268.598435 
L 197.018199 268.039252 
L 197.717269 268.039252 
L 197.717269 266.920888 
L 217.640166 266.920888 
L 217.69151 265.802523 
L 218.336141 265.802523 
L 218.336141 264.124977 
L 218.470209 264.124977 
L 218.531451 261.888248 
L 218.666861 261.888248 
L 218.666861 261.329066 
L 227.205118 261.329066 
L 227.205118 260.769883 
L 227.494204 260.769883 
L 227.494204 259.092337 
L 227.660735 259.092337 
L 227.660735 258.533154 
L 227.815148 258.533154 
L 227.876432 257.41479 
L 228.142032 257.41479 
L 228.239154 255.737243 
L 232.340341 255.737243 
L 232.405981 254.059696 
L 232.49599 254.059696 
L 232.538819 252.941332 
L 232.673284 252.941332 
L 232.748865 251.822967 
L 232.916178 251.822967 
L 232.96099 250.145421 
L 235.148383 250.145421 
L 235.195799 247.34951 
L 235.272312 247.34951 
L 235.308456 246.231145 
L 235.40382 246.231145 
L 235.454527 245.112781 
L 235.684864 245.112781 
L 235.684864 244.553598 
L 236.7322 244.553598 
L 236.832808 242.316869 
L 236.888751 242.316869 
L 236.888751 241.757687 
L 237.000047 241.757687 
L 237.004955 240.639323 
L 237.236465 240.639323 
L 237.248865 238.961776 
L 238.015641 238.961776 
L 238.109124 236.725047 
L 238.315813 236.725047 
L 238.365545 233.929136 
L 238.507932 233.929136 
L 238.507932 233.369954 
L 239.300166 233.369954 
L 239.359246 232.251589 
L 239.41719 232.251589 
L 239.517478 230.01486 
L 239.563094 230.01486 
L 239.659534 228.337313 
L 239.772277 228.337313 
L 239.772277 227.778131 
L 240.716054 227.778131 
L 240.813939 224.98222 
L 240.843465 224.98222 
L 240.951558 223.304673 
L 240.957205 223.304673 
L 241.039135 222.186309 
L 242.331645 222.186309 
L 242.400743 218.831215 
L 242.459049 218.831215 
L 242.502224 217.712851 
L 242.616405 217.712851 
L 242.64101 216.594486 
L 243.988327 216.594486 
L 244.081135 214.91694 
L 244.112022 214.91694 
L 244.112022 214.357757 
L 244.275067 214.357757 
L 244.289059 213.239393 
L 244.423529 213.239393 
L 244.512152 211.002664 
L 245.839299 211.002664 
L 245.949751 208.206753 
L 246.034575 208.206753 
L 246.1129 206.529206 
L 246.161525 206.529206 
L 246.161525 205.970024 
L 246.301655 205.970024 
L 246.301655 205.410841 
L 247.729403 205.410841 
L 247.809976 202.61493 
L 247.853442 202.61493 
L 247.940568 199.819019 
L 249.623595 199.819019 
L 249.673016 195.904743 
L 249.753266 195.904743 
L 249.841967 194.227197 
L 251.243514 194.227197 
L 251.252173 191.990468 
L 251.358874 191.990468 
L 251.423303 189.194556 
L 251.513091 189.194556 
L 251.513091 188.635374 
L 252.98771 188.635374 
L 253.071587 186.957828 
L 253.102145 186.957828 
L 253.167336 183.602734 
L 253.26281 183.602734 
L 253.26281 183.043552 
L 333.429677 183.043552 
L 333.429677 183.043552 
" style="fill:none;stroke:#000080;stroke-linecap:square;stroke-width:1.5;"/>
   </g>
   <g id="line2d_25">
    <defs>
     <path d="M 0 6 
C 1.591219 6 3.117479 5.367802 4.242641 4.242641 
C 5.367802 3.117479 6 1.591219 6 0 
C 6 -1.591219 5.367802 -3.117479 4.242641 -4.242641 
C 3.117479 -5.367802 1.591219 -6 0 -6 
C -1.591219 -6 -3.117479 -5.367802 -4.242641 -4.242641 
C -5.367802 -3.117479 -6 -1.591219 -6 0 
C -6 1.591219 -5.367802 3.117479 -4.242641 4.242641 
C -3.117479 5.367802 -1.591219 6 0 6 
z
" id="m365b89368e" style="stroke:#000080;stroke-width:1.5;"/>
    </defs>
    <g>
     <use style="fill-opacity:0;stroke:#000080;stroke-width:1.5;" x="242.459049" xlink:href="#m365b89368e" y="218.272033"/>
     <use style="fill-opacity:0;stroke:#000080;stroke-width:1.5;" x="253.26281" xlink:href="#m365b89368e" y="183.043552"/>
     <use style="fill-opacity:0;stroke:#000080;stroke-width:1.5;" x="253.26281" xlink:href="#m365b89368e" y="183.043552"/>
     <use style="fill-opacity:0;stroke:#000080;stroke-width:1.5;" x="333.429677" xlink:href="#m365b89368e" y="183.043552"/>
    </g>
   </g>
   <g id="line2d_26">
    <path style="fill:none;stroke:#000080;stroke-linecap:square;stroke-width:1.5;"/>
    <g/>
   </g>
   <g id="line2d_27">
    <path clip-path="url(#pb608daa4b3)" d="M 242.272854 222.186309 
" style="fill:none;stroke:#000080;stroke-linecap:square;stroke-width:1.5;"/>
    <defs>
     <path d="M -12 12 
L 12 -12 
M -12 -12 
L 12 12 
" id="mb8b3e85fbe" style="stroke:#000080;stroke-width:3;"/>
    </defs>
    <g clip-path="url(#pb608daa4b3)">
     <use style="fill:#000080;stroke:#000080;stroke-width:3;" x="242.272854" xlink:href="#mb8b3e85fbe" y="222.186309"/>
    </g>
   </g>
   <g id="line2d_28">
    <defs>
     <path d="M 0 1.5 
C 0.397805 1.5 0.77937 1.341951 1.06066 1.06066 
C 1.341951 0.77937 1.5 0.397805 1.5 0 
C 1.5 -0.397805 1.341951 -0.77937 1.06066 -1.06066 
C 0.77937 -1.341951 0.397805 -1.5 0 -1.5 
C -0.397805 -1.5 -0.77937 -1.341951 -1.06066 -1.06066 
C -1.341951 -0.77937 -1.5 -0.397805 -1.5 0 
C -1.5 0.397805 -1.341951 0.77937 -1.06066 1.06066 
C -0.77937 1.341951 -0.397805 1.5 0 1.5 
z
" id="meb7d98c0b3" style="stroke:#ff00ff;"/>
    </defs>
    <g>
     <use style="fill:#ff00ff;stroke:#ff00ff;" x="253.270003" xlink:href="#meb7d98c0b3" y="183.043552"/>
     <use style="fill:#ff00ff;stroke:#ff00ff;" x="253.270003" xlink:href="#meb7d98c0b3" y="183.043552"/>
    </g>
   </g>
   <g id="line2d_29">
    <path d="M 149.741166 294.88 
L 149.741166 294.320818 
L 149.904387 294.320818 
L 149.904387 293.761636 
L 150.641541 293.761636 
L 150.641541 292.084089 
L 150.887379 292.084089 
L 150.887379 290.965724 
L 151.883176 290.965724 
L 151.981621 289.84736 
L 152.799533 289.84736 
L 152.799533 289.288178 
L 153.728767 289.288178 
L 153.728767 288.169813 
L 153.946144 288.169813 
L 153.946144 287.610631 
L 154.688833 287.610631 
L 154.688833 286.492266 
L 155.190276 286.492266 
L 155.190276 285.933084 
L 155.939471 285.933084 
L 155.939471 284.255537 
L 156.05348 284.255537 
L 156.05348 283.696355 
L 157.168375 283.696355 
L 157.168375 283.137173 
L 157.70689 283.137173 
L 157.70689 282.577991 
L 158.473105 282.577991 
L 158.473105 282.018808 
L 158.678299 282.018808 
L 158.784393 280.341262 
L 158.93795 280.341262 
L 158.93795 279.782079 
L 160.245384 279.782079 
L 160.245384 279.222897 
L 160.665279 279.222897 
L 160.665279 278.663715 
L 161.411333 278.663715 
L 161.464213 277.545351 
L 162.053644 277.545351 
L 162.053644 276.986168 
L 163.164931 276.986168 
L 163.164931 276.426986 
L 163.361949 276.426986 
L 163.375453 274.749439 
L 163.769144 274.749439 
L 163.769144 274.190257 
L 164.969786 274.190257 
L 164.969786 273.071893 
L 167.312872 273.071893 
L 167.312872 272.51271 
L 191.214142 272.51271 
L 191.214142 271.953528 
L 191.872552 271.953528 
L 191.872552 270.835164 
L 193.997037 270.835164 
L 193.997037 270.275981 
L 194.407633 270.275981 
L 194.407633 269.716799 
L 195.885235 269.716799 
L 195.939217 268.598435 
L 196.59518 268.598435 
L 196.59518 268.039252 
L 196.917138 268.039252 
L 196.917138 267.48007 
L 197.233182 267.48007 
L 197.233182 266.920888 
L 217.339983 266.920888 
L 217.339983 265.243341 
L 217.452329 265.243341 
L 217.452329 264.684159 
L 218.287381 264.684159 
L 218.287381 264.124977 
L 218.529126 264.124977 
L 218.613859 262.44743 
L 218.764283 262.44743 
L 218.820456 261.329066 
L 227.194127 261.329066 
L 227.304868 259.651519 
L 227.460133 259.651519 
L 227.460133 259.092337 
L 227.747322 259.092337 
L 227.752124 256.855608 
L 228.015932 256.855608 
L 228.015932 256.296425 
L 228.128649 256.296425 
L 228.128649 255.737243 
L 232.125153 255.737243 
L 232.215034 254.618879 
L 232.243164 254.618879 
L 232.243164 252.941332 
L 232.619757 252.941332 
L 232.721191 250.704603 
L 233.102062 250.704603 
L 233.102062 250.145421 
L 235.156659 250.145421 
L 235.176474 249.027056 
L 235.37281 249.027056 
L 235.471601 245.671963 
L 235.54634 245.671963 
L 235.54634 245.112781 
L 235.697778 245.112781 
L 235.697778 244.553598 
L 236.643606 244.553598 
L 236.677794 243.435234 
L 236.8472 243.435234 
L 236.896936 241.757687 
L 237.032368 241.757687 
L 237.093201 240.08014 
L 237.279802 240.08014 
L 237.279802 238.961776 
L 237.999548 238.961776 
L 238.084517 235.0475 
L 238.205719 235.0475 
L 238.205719 234.488318 
L 238.323476 234.488318 
L 238.323476 233.929136 
L 238.549595 233.929136 
L 238.549595 233.369954 
L 239.19395 233.369954 
L 239.303315 232.251589 
L 239.359287 232.251589 
L 239.430265 230.574042 
L 239.538708 230.574042 
L 239.616823 228.896496 
L 239.65653 228.896496 
L 239.65653 228.337313 
L 239.833845 228.337313 
L 239.833845 227.778131 
L 240.819107 227.778131 
L 240.918754 226.100584 
L 241.105917 226.100584 
L 241.192274 223.863855 
L 241.25131 223.863855 
L 241.25131 222.186309 
L 242.167496 222.186309 
L 242.167496 220.508762 
L 242.523636 220.508762 
L 242.580108 218.831215 
L 242.744236 218.831215 
L 242.800524 216.594486 
L 243.985243 216.594486 
L 243.985243 216.035304 
L 244.13634 216.035304 
L 244.20266 214.91694 
L 244.266673 214.91694 
L 244.303223 212.680211 
L 244.400922 212.680211 
L 244.48243 211.002664 
L 245.711883 211.002664 
L 245.761991 209.325117 
L 245.947722 209.325117 
L 246.050771 207.088388 
L 246.169429 207.088388 
L 246.202457 205.410841 
L 247.595879 205.410841 
L 247.666644 202.055748 
L 247.776073 202.055748 
L 247.834749 200.937384 
L 248.067989 200.937384 
L 248.067989 199.819019 
L 249.454991 199.819019 
L 249.454991 199.259837 
L 249.64134 199.259837 
L 249.64134 198.141472 
L 249.762086 198.141472 
L 249.844848 194.227197 
L 251.357779 194.227197 
L 251.427285 191.431285 
L 251.473749 191.431285 
L 251.52662 189.753739 
L 251.597611 189.753739 
L 251.612674 188.635374 
L 252.889319 188.635374 
L 252.989205 185.280281 
L 253.073038 185.280281 
L 253.073038 184.721099 
L 253.225274 184.721099 
L 253.270003 183.043552 
L 333.429677 183.043552 
L 333.429677 183.043552 
" style="fill:none;stroke:#ff00ff;stroke-linecap:square;stroke-width:1.5;"/>
   </g>
   <g id="line2d_30">
    <defs>
     <path d="M -0 8.485281 
L 5.091169 0 
L 0 -8.485281 
L -5.091169 -0 
z
" id="m65645e8c91" style="stroke:#ff00ff;stroke-linejoin:miter;stroke-width:1.5;"/>
    </defs>
    <g>
     <use style="fill-opacity:0;stroke:#ff00ff;stroke-linejoin:miter;stroke-width:1.5;" x="197.233182" xlink:href="#m65645e8c91" y="266.920888"/>
     <use style="fill-opacity:0;stroke:#ff00ff;stroke-linejoin:miter;stroke-width:1.5;" x="253.270003" xlink:href="#m65645e8c91" y="183.602734"/>
     <use style="fill-opacity:0;stroke:#ff00ff;stroke-linejoin:miter;stroke-width:1.5;" x="253.270003" xlink:href="#m65645e8c91" y="183.043552"/>
     <use style="fill-opacity:0;stroke:#ff00ff;stroke-linejoin:miter;stroke-width:1.5;" x="333.429677" xlink:href="#m65645e8c91" y="183.043552"/>
    </g>
   </g>
   <g id="line2d_31">
    <path style="fill:none;stroke:#ff00ff;stroke-linecap:square;stroke-width:1.5;"/>
    <g/>
   </g>
   <g id="line2d_32">
    <path clip-path="url(#pb608daa4b3)" d="M 242.272854 220.508762 
" style="fill:none;stroke:#ff00ff;stroke-linecap:square;stroke-width:1.5;"/>
    <defs>
     <path d="M -12 12 
L 12 -12 
M -12 -12 
L 12 12 
" id="m42ada8867c" style="stroke:#ff00ff;stroke-width:3;"/>
    </defs>
    <g clip-path="url(#pb608daa4b3)">
     <use style="fill:#ff00ff;stroke:#ff00ff;stroke-width:3;" x="242.272854" xlink:href="#m42ada8867c" y="220.508762"/>
    </g>
   </g>
   <g id="line2d_33">
    <defs>
     <path d="M 0 1.5 
C 0.397805 1.5 0.77937 1.341951 1.06066 1.06066 
C 1.341951 0.77937 1.5 0.397805 1.5 0 
C 1.5 -0.397805 1.341951 -0.77937 1.06066 -1.06066 
C 0.77937 -1.341951 0.397805 -1.5 0 -1.5 
C -0.397805 -1.5 -0.77937 -1.341951 -1.06066 -1.06066 
C -1.341951 -0.77937 -1.5 -0.397805 -1.5 0 
C -1.5 0.397805 -1.341951 0.77937 -1.06066 1.06066 
C -0.77937 1.341951 -0.397805 1.5 0 1.5 
z
" id="m499e5b3ae5" style="stroke:#ffa500;"/>
    </defs>
    <g>
     <use style="fill:#ffa500;stroke:#ffa500;" x="225.096408" xlink:href="#m499e5b3ae5" y="9.697057"/>
     <use style="fill:#ffa500;stroke:#ffa500;" x="225.096408" xlink:href="#m499e5b3ae5" y="9.697057"/>
    </g>
   </g>
   <g id="line2d_34">
    <path d="M 185.69935 294.88 
L 185.69935 294.320818 
L 186.408324 294.320818 
L 186.408324 293.761636 
L 186.572991 293.761636 
L 186.587007 292.643271 
L 187.469414 292.643271 
L 187.469414 292.084089 
L 187.582179 292.084089 
L 187.582179 291.524907 
L 188.243674 291.524907 
L 188.243674 290.965724 
L 188.436634 290.965724 
L 188.436634 290.406542 
L 188.618118 290.406542 
L 188.618118 289.84736 
L 188.831557 289.84736 
L 188.831557 289.288178 
L 189.162672 289.288178 
L 189.162672 288.728995 
L 190.110857 288.728995 
L 190.160016 287.610631 
L 190.468142 287.610631 
L 190.468142 287.051449 
L 190.606648 287.051449 
L 190.606648 286.492266 
L 191.456009 286.492266 
L 191.456009 285.373902 
L 191.682155 285.373902 
L 191.682155 284.81472 
L 191.880923 284.81472 
L 191.880923 284.255537 
L 192.35832 284.255537 
L 192.35832 283.696355 
L 192.561849 283.696355 
L 192.631009 282.018808 
L 193.284617 282.018808 
L 193.32373 279.782079 
L 193.753976 279.782079 
L 193.753976 278.663715 
L 194.19681 278.663715 
L 194.230536 275.867804 
L 194.358096 275.867804 
L 194.358096 275.308622 
L 194.636211 275.308622 
L 194.636211 274.749439 
L 195.037363 274.749439 
L 195.114883 273.071893 
L 195.408936 273.071893 
L 195.408936 272.51271 
L 195.573328 272.51271 
L 195.578521 270.835164 
L 195.722781 270.835164 
L 195.722781 270.275981 
L 196.201606 270.275981 
L 196.201606 269.716799 
L 196.434878 269.716799 
L 196.485194 268.039252 
L 196.621101 268.039252 
L 196.623056 266.361706 
L 196.813548 266.361706 
L 196.813548 265.243341 
L 197.17886 265.243341 
L 197.276517 263.006612 
L 197.353496 263.006612 
L 197.404003 261.329066 
L 197.550009 261.329066 
L 197.629003 260.210701 
L 197.711766 260.210701 
L 197.711766 259.092337 
L 197.829246 259.092337 
L 197.899714 257.973972 
L 198.098642 257.973972 
L 198.098642 257.41479 
L 198.393008 257.41479 
L 198.393008 256.296425 
L 198.528266 256.296425 
L 198.569335 254.618879 
L 198.699755 254.618879 
L 198.699755 253.500514 
L 199.198729 253.500514 
L 199.240329 251.263785 
L 199.559258 251.263785 
L 199.559258 250.145421 
L 199.673001 250.145421 
L 199.754661 248.467874 
L 200.078278 248.467874 
L 200.144109 246.790327 
L 200.2999 246.790327 
L 200.402982 245.671963 
L 200.478133 245.671963 
L 200.500771 241.757687 
L 200.67656 241.757687 
L 200.690453 240.639323 
L 200.975097 240.639323 
L 201.004668 238.402594 
L 201.234937 238.402594 
L 201.234937 237.843411 
L 201.417107 237.843411 
L 201.452573 236.165865 
L 201.579793 236.165865 
L 201.641228 234.488318 
L 201.765617 234.488318 
L 201.866069 232.810771 
L 201.997075 232.810771 
L 202.011371 231.692407 
L 202.258948 231.692407 
L 202.280416 230.01486 
L 202.380364 230.01486 
L 202.380364 229.455678 
L 202.498151 229.455678 
L 202.551205 227.218949 
L 202.708363 227.218949 
L 202.727564 224.423038 
L 202.863078 224.423038 
L 202.964778 223.304673 
L 203.031572 223.304673 
L 203.112859 221.067944 
L 203.284909 221.067944 
L 203.357743 219.390397 
L 203.405251 219.390397 
L 203.431587 216.594486 
L 203.547971 216.594486 
L 203.640514 214.91694 
L 203.676549 214.91694 
L 203.692433 212.680211 
L 203.789038 212.680211 
L 203.854639 211.002664 
L 204.026138 211.002664 
L 204.091793 208.206753 
L 204.751378 208.206753 
L 204.814024 205.970024 
L 205.016513 205.970024 
L 205.108965 204.292477 
L 205.179837 204.292477 
L 205.262252 203.174112 
L 205.391598 203.174112 
L 205.423564 201.496566 
L 205.508613 201.496566 
L 205.54298 199.259837 
L 205.769596 199.259837 
L 205.769596 198.700655 
L 206.028093 198.700655 
L 206.110213 194.227197 
L 206.272449 194.227197 
L 206.333694 193.108832 
L 206.524379 193.108832 
L 206.630137 191.990468 
L 206.677327 191.990468 
L 206.695567 190.872103 
L 206.807042 190.872103 
L 206.807042 190.312921 
L 206.947858 190.312921 
L 206.983217 189.194556 
L 207.072629 189.194556 
L 207.072629 188.076192 
L 207.270084 188.076192 
L 207.286656 186.957828 
L 207.381832 186.957828 
L 207.482203 185.280281 
L 207.525819 185.280281 
L 207.590261 183.043552 
L 207.769886 183.043552 
L 207.876412 181.925187 
L 207.934999 181.925187 
L 208.025909 180.806823 
L 208.103809 180.806823 
L 208.103809 180.247641 
L 208.329725 180.247641 
L 208.329725 179.688458 
L 208.696714 179.688458 
L 208.788998 178.010912 
L 208.824139 178.010912 
L 208.929371 176.333365 
L 209.053903 176.333365 
L 209.053903 175.215 
L 209.169531 175.215 
L 209.269163 172.419089 
L 209.391734 172.419089 
L 209.488704 169.623178 
L 209.535831 169.623178 
L 209.58651 167.386449 
L 209.773646 167.386449 
L 209.871886 165.14972 
L 209.952014 165.14972 
L 210.059988 163.472173 
L 210.167735 163.472173 
L 210.228338 159.557898 
L 210.576902 159.557898 
L 210.657926 157.880351 
L 210.764151 157.880351 
L 210.836388 155.08444 
L 210.876555 155.08444 
L 210.981443 152.288529 
L 211.047282 152.288529 
L 211.13664 151.170164 
L 211.199795 151.170164 
L 211.248941 148.374253 
L 211.343699 148.374253 
L 211.390573 147.255888 
L 211.48641 147.255888 
L 211.541728 145.578342 
L 211.733443 145.578342 
L 211.789795 143.341613 
L 211.87881 143.341613 
L 211.989186 139.986519 
L 212.008778 139.986519 
L 212.118723 138.868155 
L 212.150064 138.868155 
L 212.22718 136.072244 
L 212.286856 136.072244 
L 212.38879 132.71715 
L 212.42803 132.71715 
L 212.524093 127.68451 
L 212.592216 127.68451 
L 212.592216 127.125328 
L 212.712514 127.125328 
L 212.788874 125.447781 
L 212.841878 125.447781 
L 212.947398 122.092688 
L 213.032895 122.092688 
L 213.126209 120.415141 
L 213.154834 120.415141 
L 213.244331 118.178412 
L 213.458894 118.178412 
L 213.565637 113.145772 
L 213.665734 113.145772 
L 213.713213 110.909043 
L 213.837809 110.909043 
L 213.890011 107.553949 
L 213.968642 107.553949 
L 213.999994 105.876403 
L 214.279097 105.876403 
L 214.323169 101.962127 
L 214.464068 101.962127 
L 214.546849 99.725398 
L 214.59368 99.725398 
L 214.669852 95.25194 
L 214.7794 95.25194 
L 214.889268 92.456029 
L 214.997096 92.456029 
L 215.100246 89.660118 
L 215.113763 89.660118 
L 215.217379 87.982571 
L 215.264076 87.982571 
L 215.363176 85.18666 
L 215.37961 85.18666 
L 215.488172 81.831566 
L 215.539024 81.831566 
L 215.539024 80.713202 
L 215.689393 80.713202 
L 215.799711 77.358108 
L 215.852209 77.358108 
L 215.902316 75.121379 
L 216.007164 75.121379 
L 216.111849 70.088739 
L 216.224661 70.088739 
L 216.235918 68.411192 
L 216.40899 68.411192 
L 216.478012 63.937735 
L 216.54246 63.937735 
L 216.54246 63.378552 
L 216.697739 63.378552 
L 216.765311 60.023459 
L 216.944567 60.023459 
L 217.041033 57.78673 
L 217.105193 57.78673 
L 217.216125 53.872454 
L 217.259032 53.872454 
L 217.3284 48.839814 
L 217.3741 48.839814 
L 217.3741 48.280632 
L 217.507284 48.280632 
L 217.562354 47.162267 
L 217.63008 47.162267 
L 217.698689 43.807174 
L 217.743561 43.807174 
L 217.837369 42.129627 
L 217.989203 42.129627 
L 218.066095 40.45208 
L 218.119548 40.45208 
L 218.119548 39.892898 
L 218.27739 39.892898 
L 218.3809 35.978622 
L 218.648261 35.978622 
L 218.648261 35.41944 
L 218.759425 35.41944 
L 218.821128 33.741894 
L 218.919823 33.741894 
L 218.919823 33.182711 
L 219.108257 33.182711 
L 219.144853 31.505165 
L 219.263877 31.505165 
L 219.323148 30.3868 
L 219.529322 30.3868 
L 219.613392 29.268436 
L 219.731397 29.268436 
L 219.739686 28.150071 
L 219.901346 28.150071 
L 219.962114 25.913342 
L 220.038964 25.913342 
L 220.038964 24.794978 
L 220.240995 24.794978 
L 220.333371 21.999066 
L 220.35774 21.999066 
L 220.43701 20.880702 
L 220.4693 20.880702 
L 220.4693 19.762337 
L 220.668664 19.762337 
L 220.668664 19.203155 
L 221.046774 19.203155 
L 221.078059 18.084791 
L 221.323868 18.084791 
L 221.323868 17.525609 
L 222.195452 17.525609 
L 222.306289 16.407244 
L 222.63113 16.407244 
L 222.63113 15.848062 
L 222.777714 15.848062 
L 222.777714 14.729697 
L 223.030058 14.729697 
L 223.030058 13.611333 
L 223.303438 13.611333 
L 223.303438 13.052151 
L 223.979879 13.052151 
L 223.979879 12.492968 
L 224.093098 12.492968 
L 224.093098 11.374604 
L 224.215211 11.374604 
L 224.215211 10.815422 
L 224.811206 10.815422 
L 224.811206 10.256239 
L 225.096408 10.256239 
L 225.096408 9.697057 
L 333.429677 9.697057 
L 333.429677 9.697057 
" style="fill:none;stroke:#ffa500;stroke-linecap:square;stroke-width:1.5;"/>
   </g>
   <g id="line2d_35">
    <defs>
     <path d="M 0 -6 
L -1.347084 -1.854102 
L -5.706339 -1.854102 
L -2.179628 0.708204 
L -3.526712 4.854102 
L -0 2.291796 
L 3.526712 4.854102 
L 2.179628 0.708204 
L 5.706339 -1.854102 
L 1.347084 -1.854102 
z
" id="mce8e17cbac" style="stroke:#ffa500;stroke-linejoin:bevel;stroke-width:1.5;"/>
    </defs>
    <g>
     <use style="fill-opacity:0;stroke:#ffa500;stroke-linejoin:bevel;stroke-width:1.5;" x="202.727564" xlink:href="#mce8e17cbac" y="225.541402"/>
     <use style="fill-opacity:0;stroke:#ffa500;stroke-linejoin:bevel;stroke-width:1.5;" x="225.096408" xlink:href="#mce8e17cbac" y="10.256239"/>
     <use style="fill-opacity:0;stroke:#ffa500;stroke-linejoin:bevel;stroke-width:1.5;" x="225.096408" xlink:href="#mce8e17cbac" y="9.697057"/>
     <use style="fill-opacity:0;stroke:#ffa500;stroke-linejoin:bevel;stroke-width:1.5;" x="333.429677" xlink:href="#mce8e17cbac" y="9.697057"/>
    </g>
   </g>
   <g id="line2d_36">
    <path style="fill:none;stroke:#ffa500;stroke-linecap:square;stroke-width:1.5;"/>
    <g/>
   </g>
   <g id="line2d_37">
    <defs>
     <path d="M 0 1.5 
C 0.397805 1.5 0.77937 1.341951 1.06066 1.06066 
C 1.341951 0.77937 1.5 0.397805 1.5 0 
C 1.5 -0.397805 1.341951 -0.77937 1.06066 -1.06066 
C 0.77937 -1.341951 0.397805 -1.5 0 -1.5 
C -0.397805 -1.5 -0.77937 -1.341951 -1.06066 -1.06066 
C -1.341951 -0.77937 -1.5 -0.397805 -1.5 0 
C -1.5 0.397805 -1.341951 0.77937 -1.06066 1.06066 
C -0.77937 1.341951 -0.397805 1.5 0 1.5 
z
" id="m6b198186e5" style="stroke:#6495ed;"/>
    </defs>
    <g>
     <use style="fill:#6495ed;stroke:#6495ed;" x="266.285037" xlink:href="#m6b198186e5" y="238.961776"/>
     <use style="fill:#6495ed;stroke:#6495ed;" x="266.285037" xlink:href="#m6b198186e5" y="238.961776"/>
    </g>
   </g>
   <g id="line2d_38">
    <path d="M 140.049571 294.88 
L 140.049571 294.320818 
L 144.25662 294.320818 
L 144.25662 293.761636 
L 147.294037 293.761636 
L 147.294037 293.202453 
L 147.935077 293.202453 
L 147.935077 292.643271 
L 148.050602 292.643271 
L 148.050602 291.524907 
L 148.838258 291.524907 
L 148.838258 290.965724 
L 149.658971 290.965724 
L 149.658971 290.406542 
L 150.577754 290.406542 
L 150.577754 289.84736 
L 151.019378 289.84736 
L 151.019378 288.728995 
L 151.157238 288.728995 
L 151.157238 288.169813 
L 152.24142 288.169813 
L 152.24142 287.051449 
L 152.611294 287.051449 
L 152.611294 286.492266 
L 153.56242 286.492266 
L 153.56242 284.81472 
L 154.287189 284.81472 
L 154.287189 284.255537 
L 154.894483 284.255537 
L 154.894483 282.577991 
L 155.114076 282.577991 
L 155.114076 282.018808 
L 155.661671 282.018808 
L 155.661671 280.341262 
L 155.923866 280.341262 
L 155.923866 279.782079 
L 156.146201 279.782079 
L 156.248641 278.663715 
L 156.481966 278.663715 
L 156.481966 278.104533 
L 158.500008 278.104533 
L 158.500008 277.545351 
L 159.228133 277.545351 
L 159.228133 276.986168 
L 160.208911 276.986168 
L 160.301965 275.308622 
L 160.52645 275.308622 
L 160.52645 274.190257 
L 160.838234 274.190257 
L 160.838234 273.071893 
L 160.986217 273.071893 
L 160.986217 272.51271 
L 162.969088 272.51271 
L 162.969088 271.953528 
L 163.192241 271.953528 
L 163.192241 271.394346 
L 163.351813 271.394346 
L 163.351813 269.716799 
L 164.092633 269.716799 
L 164.092633 269.157617 
L 164.205558 269.157617 
L 164.205558 268.598435 
L 165.821953 268.598435 
L 165.821953 268.039252 
L 166.642272 268.039252 
L 166.642272 267.48007 
L 166.79234 267.48007 
L 166.79234 266.361706 
L 167.080443 266.361706 
L 167.080443 265.802523 
L 167.520998 265.802523 
L 167.520998 265.243341 
L 167.718772 265.243341 
L 167.718772 264.684159 
L 168.148593 264.684159 
L 168.148593 263.565795 
L 168.339322 263.565795 
L 168.339322 263.006612 
L 168.482875 263.006612 
L 168.577916 261.888248 
L 168.694745 261.888248 
L 168.694745 261.329066 
L 168.840289 261.329066 
L 168.840289 260.769883 
L 169.934691 260.769883 
L 169.934691 260.210701 
L 170.376157 260.210701 
L 170.376157 259.651519 
L 170.534935 259.651519 
L 170.639241 258.533154 
L 171.613422 258.533154 
L 171.613422 257.41479 
L 172.156714 257.41479 
L 172.199202 255.737243 
L 172.519526 255.737243 
L 172.519526 255.178061 
L 172.812557 255.178061 
L 172.812557 254.618879 
L 173.753549 254.618879 
L 173.753549 254.059696 
L 174.755814 254.059696 
L 174.755814 253.500514 
L 175.938647 253.500514 
L 175.938647 252.941332 
L 177.729884 252.941332 
L 177.729884 252.38215 
L 178.524459 252.38215 
L 178.524459 251.822967 
L 179.119852 251.822967 
L 179.119852 251.263785 
L 179.469031 251.263785 
L 179.469031 250.145421 
L 182.103948 250.145421 
L 182.103948 249.586238 
L 242.485494 249.586238 
L 242.538364 247.908692 
L 242.604039 247.908692 
L 242.705406 245.112781 
L 254.357948 245.112781 
L 254.411916 242.316869 
L 261.284969 242.316869 
L 261.319727 241.198505 
L 266.206908 241.198505 
L 266.285037 238.961776 
L 333.429677 238.961776 
L 333.429677 238.961776 
" style="fill:none;stroke:#6495ed;stroke-linecap:square;stroke-width:1.5;"/>
   </g>
   <g id="line2d_39">
    <defs>
     <path d="M -0 6 
L 6 -6 
L -6 -6 
z
" id="me6fcd91ce3" style="stroke:#6495ed;stroke-linejoin:miter;stroke-width:1.5;"/>
    </defs>
    <g>
     <use style="fill-opacity:0;stroke:#6495ed;stroke-linejoin:miter;stroke-width:1.5;" x="182.103948" xlink:href="#me6fcd91ce3" y="250.145421"/>
     <use style="fill-opacity:0;stroke:#6495ed;stroke-linejoin:miter;stroke-width:1.5;" x="254.411916" xlink:href="#me6fcd91ce3" y="242.316869"/>
     <use style="fill-opacity:0;stroke:#6495ed;stroke-linejoin:miter;stroke-width:1.5;" x="266.285037" xlink:href="#me6fcd91ce3" y="238.961776"/>
     <use style="fill-opacity:0;stroke:#6495ed;stroke-linejoin:miter;stroke-width:1.5;" x="266.285037" xlink:href="#me6fcd91ce3" y="238.961776"/>
     <use style="fill-opacity:0;stroke:#6495ed;stroke-linejoin:miter;stroke-width:1.5;" x="333.429677" xlink:href="#me6fcd91ce3" y="238.961776"/>
    </g>
   </g>
   <g id="line2d_40">
    <path style="fill:none;stroke:#6495ed;stroke-linecap:square;stroke-width:1.5;"/>
    <g/>
   </g>
   <g id="line2d_41">
    <path clip-path="url(#pb608daa4b3)" d="M 242.272854 249.586238 
" style="fill:none;stroke:#6495ed;stroke-linecap:square;stroke-width:1.5;"/>
    <defs>
     <path d="M -12 12 
L 12 -12 
M -12 -12 
L 12 12 
" id="ma95b66f04f" style="stroke:#6495ed;stroke-width:3;"/>
    </defs>
    <g clip-path="url(#pb608daa4b3)">
     <use style="fill:#6495ed;stroke:#6495ed;stroke-width:3;" x="242.272854" xlink:href="#ma95b66f04f" y="249.586238"/>
    </g>
   </g>
   <g id="line2d_42">
    <path d="M 333.429677 238.961776 
L 363.933742 289.176341 
" style="fill:none;stroke:#6495ed;stroke-linecap:square;stroke-width:1.5;"/>
    <g>
     <use style="fill-opacity:0;stroke:#6495ed;stroke-linejoin:miter;stroke-width:1.5;" x="333.429677" xlink:href="#me6fcd91ce3" y="238.961776"/>
     <use style="fill-opacity:0;stroke:#6495ed;stroke-linejoin:miter;stroke-width:1.5;" x="363.933742" xlink:href="#me6fcd91ce3" y="289.176341"/>
    </g>
   </g>
   <g id="line2d_43">
    <path d="M 333.429677 183.043552 
L 363.933742 197.917799 
" style="fill:none;stroke:#ff00ff;stroke-linecap:square;stroke-width:1.5;"/>
    <g>
     <use style="fill-opacity:0;stroke:#ff00ff;stroke-linejoin:miter;stroke-width:1.5;" x="333.429677" xlink:href="#m65645e8c91" y="183.043552"/>
     <use style="fill-opacity:0;stroke:#ff00ff;stroke-linejoin:miter;stroke-width:1.5;" x="363.933742" xlink:href="#m65645e8c91" y="197.917799"/>
    </g>
   </g>
   <g id="line2d_44">
    <path d="M 333.429677 183.043552 
L 363.933742 106.659258 
" style="fill:none;stroke:#000080;stroke-linecap:square;stroke-width:1.5;"/>
    <g>
     <use style="fill-opacity:0;stroke:#000080;stroke-width:1.5;" x="333.429677" xlink:href="#m365b89368e" y="183.043552"/>
     <use style="fill-opacity:0;stroke:#000080;stroke-width:1.5;" x="363.933742" xlink:href="#m365b89368e" y="106.659258"/>
    </g>
   </g>
   <g id="line2d_45">
    <path d="M 333.429677 9.697057 
L 363.933742 15.400716 
" style="fill:none;stroke:#ffa500;stroke-linecap:square;stroke-width:1.5;"/>
    <g>
     <use style="fill-opacity:0;stroke:#ffa500;stroke-linejoin:bevel;stroke-width:1.5;" x="333.429677" xlink:href="#mce8e17cbac" y="9.697057"/>
     <use style="fill-opacity:0;stroke:#ffa500;stroke-linejoin:bevel;stroke-width:1.5;" x="363.933742" xlink:href="#mce8e17cbac" y="15.400716"/>
    </g>
   </g>
   <g id="line2d_46">
    <path d="M 333.429677 294.88 
L 333.429677 9.697057 
" style="fill:none;stroke:#000000;stroke-linecap:square;stroke-width:1.5;"/>
   </g>
   <g id="patch_3">
    <path d="M 56.12 294.88 
L 56.12 6.845228 
" style="fill:none;stroke:#000000;stroke-linecap:square;stroke-linejoin:miter;stroke-width:0.8;"/>
   </g>
   <g id="patch_4">
    <path d="M 399.984 294.88 
L 399.984 6.845228 
" style="fill:none;stroke:#000000;stroke-linecap:square;stroke-linejoin:miter;stroke-width:0.8;"/>
   </g>
   <g id="patch_5">
    <path d="M 56.12 294.88 
L 399.984 294.88 
" style="fill:none;stroke:#000000;stroke-linecap:square;stroke-linejoin:miter;stroke-width:0.8;"/>
   </g>
   <g id="patch_6">
    <path d="M 56.12 6.845228 
L 399.984 6.845228 
" style="fill:none;stroke:#000000;stroke-linecap:square;stroke-linejoin:miter;stroke-width:0.8;"/>
   </g>
   <g id="text_14">
    <!-- f7 -->
    <defs>
     <path d="M 8.203125 72.90625 
L 55.078125 72.90625 
L 55.078125 68.703125 
L 28.609375 0 
L 18.3125 0 
L 43.21875 64.59375 
L 8.203125 64.59375 
z
" id="DejaVuSans-37"/>
    </defs>
    <g transform="translate(369.479935 293.867279)scale(0.17 -0.17)">
     <use xlink:href="#DejaVuSans-66"/>
     <use x="35.205078" xlink:href="#DejaVuSans-37"/>
    </g>
   </g>
   <g id="text_15">
    <!-- f9 -->
    <defs>
     <path d="M 10.984375 1.515625 
L 10.984375 10.5 
Q 14.703125 8.734375 18.5 7.8125 
Q 22.3125 6.890625 25.984375 6.890625 
Q 35.75 6.890625 40.890625 13.453125 
Q 46.046875 20.015625 46.78125 33.40625 
Q 43.953125 29.203125 39.59375 26.953125 
Q 35.25 24.703125 29.984375 24.703125 
Q 19.046875 24.703125 12.671875 31.3125 
Q 6.296875 37.9375 6.296875 49.421875 
Q 6.296875 60.640625 12.9375 67.421875 
Q 19.578125 74.21875 30.609375 74.21875 
Q 43.265625 74.21875 49.921875 64.515625 
Q 56.59375 54.828125 56.59375 36.375 
Q 56.59375 19.140625 48.40625 8.859375 
Q 40.234375 -1.421875 26.421875 -1.421875 
Q 22.703125 -1.421875 18.890625 -0.6875 
Q 15.09375 0.046875 10.984375 1.515625 
z
M 30.609375 32.421875 
Q 37.25 32.421875 41.125 36.953125 
Q 45.015625 41.5 45.015625 49.421875 
Q 45.015625 57.28125 41.125 61.84375 
Q 37.25 66.40625 30.609375 66.40625 
Q 23.96875 66.40625 20.09375 61.84375 
Q 16.21875 57.28125 16.21875 49.421875 
Q 16.21875 41.5 20.09375 36.953125 
Q 23.96875 32.421875 30.609375 32.421875 
z
" id="DejaVuSans-39"/>
    </defs>
    <g transform="translate(369.479935 202.608737)scale(0.17 -0.17)">
     <use xlink:href="#DejaVuSans-66"/>
     <use x="35.205078" xlink:href="#DejaVuSans-39"/>
    </g>
   </g>
   <g id="text_16">
    <!-- f8 -->
    <g transform="translate(369.479935 111.350195)scale(0.17 -0.17)">
     <use xlink:href="#DejaVuSans-66"/>
     <use x="35.205078" xlink:href="#DejaVuSans-38"/>
    </g>
   </g>
   <g id="text_17">
    <!-- f6 -->
    <g transform="translate(369.479935 20.091654)scale(0.17 -0.17)">
     <use xlink:href="#DejaVuSans-66"/>
     <use x="35.205078" xlink:href="#DejaVuSans-36"/>
    </g>
   </g>
   <g id="text_18">
    <!-- bbob -->
    <defs>
     <path d="M 48.6875 27.296875 
Q 48.6875 37.203125 44.609375 42.84375 
Q 40.53125 48.484375 33.40625 48.484375 
Q 26.265625 48.484375 22.1875 42.84375 
Q 18.109375 37.203125 18.109375 27.296875 
Q 18.109375 17.390625 22.1875 11.75 
Q 26.265625 6.109375 33.40625 6.109375 
Q 40.53125 6.109375 44.609375 11.75 
Q 48.6875 17.390625 48.6875 27.296875 
z
M 18.109375 46.390625 
Q 20.953125 51.265625 25.265625 53.625 
Q 29.59375 56 35.59375 56 
Q 45.5625 56 51.78125 48.09375 
Q 58.015625 40.1875 58.015625 27.296875 
Q 58.015625 14.40625 51.78125 6.484375 
Q 45.5625 -1.421875 35.59375 -1.421875 
Q 29.59375 -1.421875 25.265625 0.953125 
Q 20.953125 3.328125 18.109375 8.203125 
L 18.109375 0 
L 9.078125 0 
L 9.078125 75.984375 
L 18.109375 75.984375 
z
" id="DejaVuSans-62"/>
    </defs>
    <g transform="translate(59.55864 17.475982)scale(0.102 -0.102)">
     <use xlink:href="#DejaVuSans-62"/>
     <use x="63.476562" xlink:href="#DejaVuSans-62"/>
     <use x="126.953125" xlink:href="#DejaVuSans-6f"/>
     <use x="188.134766" xlink:href="#DejaVuSans-62"/>
    </g>
    <!-- Misc. moderate functions, 20-D -->
    <defs>
     <path d="M 9.8125 72.90625 
L 24.515625 72.90625 
L 43.109375 23.296875 
L 61.8125 72.90625 
L 76.515625 72.90625 
L 76.515625 0 
L 66.890625 0 
L 66.890625 64.015625 
L 48.09375 14.015625 
L 38.1875 14.015625 
L 19.390625 64.015625 
L 19.390625 0 
L 9.8125 0 
z
" id="DejaVuSans-4d"/>
     <path d="M 19.671875 64.796875 
L 19.671875 8.109375 
L 31.59375 8.109375 
Q 46.6875 8.109375 53.6875 14.9375 
Q 60.6875 21.78125 60.6875 36.53125 
Q 60.6875 51.171875 53.6875 57.984375 
Q 46.6875 64.796875 31.59375 64.796875 
z
M 9.8125 72.90625 
L 30.078125 72.90625 
Q 51.265625 72.90625 61.171875 64.09375 
Q 71.09375 55.28125 71.09375 36.53125 
Q 71.09375 17.671875 61.125 8.828125 
Q 51.171875 0 30.078125 0 
L 9.8125 0 
z
" id="DejaVuSans-44"/>
    </defs>
    <g transform="translate(59.55864 28.89775)scale(0.102 -0.102)">
     <use xlink:href="#DejaVuSans-4d"/>
     <use x="86.279297" xlink:href="#DejaVuSans-69"/>
     <use x="114.0625" xlink:href="#DejaVuSans-73"/>
     <use x="166.162109" xlink:href="#DejaVuSans-63"/>
     <use x="221.142578" xlink:href="#DejaVuSans-2e"/>
     <use x="252.929688" xlink:href="#DejaVuSans-20"/>
     <use x="284.716797" xlink:href="#DejaVuSans-6d"/>
     <use x="382.128906" xlink:href="#DejaVuSans-6f"/>
     <use x="443.310547" xlink:href="#DejaVuSans-64"/>
     <use x="506.787109" xlink:href="#DejaVuSans-65"/>
     <use x="568.310547" xlink:href="#DejaVuSans-72"/>
     <use x="609.423828" xlink:href="#DejaVuSans-61"/>
     <use x="670.703125" xlink:href="#DejaVuSans-74"/>
     <use x="709.912109" xlink:href="#DejaVuSans-65"/>
     <use x="771.435547" xlink:href="#DejaVuSans-20"/>
     <use x="803.222656" xlink:href="#DejaVuSans-66"/>
     <use x="838.427734" xlink:href="#DejaVuSans-75"/>
     <use x="901.806641" xlink:href="#DejaVuSans-6e"/>
     <use x="965.185547" xlink:href="#DejaVuSans-63"/>
     <use x="1020.166016" xlink:href="#DejaVuSans-74"/>
     <use x="1059.375" xlink:href="#DejaVuSans-69"/>
     <use x="1087.158203" xlink:href="#DejaVuSans-6f"/>
     <use x="1148.339844" xlink:href="#DejaVuSans-6e"/>
     <use x="1211.71875" xlink:href="#DejaVuSans-73"/>
     <use x="1263.818359" xlink:href="#DejaVuSans-2c"/>
     <use x="1295.605469" xlink:href="#DejaVuSans-20"/>
     <use x="1327.392578" xlink:href="#DejaVuSans-32"/>
     <use x="1391.015625" xlink:href="#DejaVuSans-30"/>
     <use x="1454.638672" xlink:href="#DejaVuSans-2d"/>
     <use x="1490.722656" xlink:href="#DejaVuSans-44"/>
    </g>
    <!-- 51 targets: 100..1e-08 -->
    <defs>
     <path d="M 10.796875 72.90625 
L 49.515625 72.90625 
L 49.515625 64.59375 
L 19.828125 64.59375 
L 19.828125 46.734375 
Q 21.96875 47.46875 24.109375 47.828125 
Q 26.265625 48.1875 28.421875 48.1875 
Q 40.625 48.1875 47.75 41.5 
Q 54.890625 34.8125 54.890625 23.390625 
Q 54.890625 11.625 47.5625 5.09375 
Q 40.234375 -1.421875 26.90625 -1.421875 
Q 22.3125 -1.421875 17.546875 -0.640625 
Q 12.796875 0.140625 7.71875 1.703125 
L 7.71875 11.625 
Q 12.109375 9.234375 16.796875 8.0625 
Q 21.484375 6.890625 26.703125 6.890625 
Q 35.15625 6.890625 40.078125 11.328125 
Q 45.015625 15.765625 45.015625 23.390625 
Q 45.015625 31 40.078125 35.4375 
Q 35.15625 39.890625 26.703125 39.890625 
Q 22.75 39.890625 18.8125 39.015625 
Q 14.890625 38.140625 10.796875 36.28125 
z
" id="DejaVuSans-35"/>
     <path d="M 11.71875 12.40625 
L 22.015625 12.40625 
L 22.015625 0 
L 11.71875 0 
z
M 11.71875 51.703125 
L 22.015625 51.703125 
L 22.015625 39.3125 
L 11.71875 39.3125 
z
" id="DejaVuSans-3a"/>
    </defs>
    <g transform="translate(59.55864 40.319519)scale(0.102 -0.102)">
     <use xlink:href="#DejaVuSans-35"/>
     <use x="63.623047" xlink:href="#DejaVuSans-31"/>
     <use x="127.246094" xlink:href="#DejaVuSans-20"/>
     <use x="159.033203" xlink:href="#DejaVuSans-74"/>
     <use x="198.242188" xlink:href="#DejaVuSans-61"/>
     <use x="259.521484" xlink:href="#DejaVuSans-72"/>
     <use x="300.619141" xlink:href="#DejaVuSans-67"/>
     <use x="364.095703" xlink:href="#DejaVuSans-65"/>
     <use x="425.619141" xlink:href="#DejaVuSans-74"/>
     <use x="464.828125" xlink:href="#DejaVuSans-73"/>
     <use x="516.927734" xlink:href="#DejaVuSans-3a"/>
     <use x="550.619141" xlink:href="#DejaVuSans-20"/>
     <use x="582.40625" xlink:href="#DejaVuSans-31"/>
     <use x="646.029297" xlink:href="#DejaVuSans-30"/>
     <use x="709.652344" xlink:href="#DejaVuSans-30"/>
     <use x="773.275391" xlink:href="#DejaVuSans-2e"/>
     <use x="805.0625" xlink:href="#DejaVuSans-2e"/>
     <use x="836.849609" xlink:href="#DejaVuSans-31"/>
     <use x="900.472656" xlink:href="#DejaVuSans-65"/>
     <use x="961.996094" xlink:href="#DejaVuSans-2d"/>
     <use x="998.080078" xlink:href="#DejaVuSans-30"/>
     <use x="1061.703125" xlink:href="#DejaVuSans-38"/>
    </g>
    <!-- 15 instances -->
    <g transform="translate(59.55864 51.741288)scale(0.102 -0.102)">
     <use xlink:href="#DejaVuSans-31"/>
     <use x="63.623047" xlink:href="#DejaVuSans-35"/>
     <use x="127.246094" xlink:href="#DejaVuSans-20"/>
     <use x="159.033203" xlink:href="#DejaVuSans-69"/>
     <use x="186.816406" xlink:href="#DejaVuSans-6e"/>
     <use x="250.195312" xlink:href="#DejaVuSans-73"/>
     <use x="302.294922" xlink:href="#DejaVuSans-74"/>
     <use x="341.503906" xlink:href="#DejaVuSans-61"/>
     <use x="402.783203" xlink:href="#DejaVuSans-6e"/>
     <use x="466.162109" xlink:href="#DejaVuSans-63"/>
     <use x="521.142578" xlink:href="#DejaVuSans-65"/>
     <use x="582.666016" xlink:href="#DejaVuSans-73"/>
    </g>
   </g>
   <g id="text_19">
    <!-- v0.0.0 -->
    <g style="fill:#808080;" transform="translate(212.37075 289.919965)scale(0.1 -0.1)">
     <use xlink:href="#DejaVuSans-76"/>
     <use x="59.179688" xlink:href="#DejaVuSans-30"/>
     <use x="122.802734" xlink:href="#DejaVuSans-2e"/>
     <use x="154.589844" xlink:href="#DejaVuSans-30"/>
     <use x="218.212891" xlink:href="#DejaVuSans-2e"/>
     <use x="250" xlink:href="#DejaVuSans-30"/>
    </g>
   </g>
  </g>
 </g>
 <defs>
  <clipPath id="pb608daa4b3">
   <rect height="288.034772" width="343.864" x="56.12" y="6.845228"/>
  </clipPath>
 </defs>
</svg>
