<?xml version="1.0" encoding="utf-8" standalone="no"?>
<!DOCTYPE svg PUBLIC "-//W3C//DTD SVG 1.1//EN"
  "http://www.w3.org/Graphics/SVG/1.1/DTD/svg11.dtd">
<!-- Created with matplotlib (http://matplotlib.org/) -->
<svg height="345.6pt" version="1.1" viewBox="0 0 460.8 345.6" width="460.8pt" xmlns="http://www.w3.org/2000/svg" xmlns:xlink="http://www.w3.org/1999/xlink">
 <defs>
  <style type="text/css">
*{stroke-linecap:butt;stroke-linejoin:round;}
  </style>
 </defs>
 <g id="figure_1">
  <g id="patch_1">
   <path d="M 0 345.6 
L 460.8 345.6 
L 460.8 0 
L 0 0 
z
" style="fill:#ffffff;"/>
  </g>
  <g id="axes_1">
   <g id="patch_2">
    <path d="M 56.12 294.88 
L 399.984 294.88 
L 399.984 6.845228 
L 56.12 6.845228 
z
" style="fill:#ffffff;"/>
   </g>
   <g id="matplotlib.axis_1">
    <g id="xtick_1">
     <g id="line2d_1">
      <path clip-path="url(#pb668777d92)" d="M 56.12 294.88 
L 56.12 6.845228 
" style="fill:none;stroke:#b0b0b0;stroke-linecap:square;stroke-width:0.8;"/>
     </g>
     <g id="line2d_2">
      <defs>
       <path d="M 0 0 
L 0 3.5 
" id="m0084c708b4" style="stroke:#000000;stroke-width:0.8;"/>
      </defs>
      <g>
       <use style="stroke:#000000;stroke-width:0.8;" x="56.12" xlink:href="#m0084c708b4" y="294.88"/>
      </g>
     </g>
     <g id="text_1">
      <!-- 0 -->
      <defs>
       <path d="M 31.78125 66.40625 
Q 24.171875 66.40625 20.328125 58.90625 
Q 16.5 51.421875 16.5 36.375 
Q 16.5 21.390625 20.328125 13.890625 
Q 24.171875 6.390625 31.78125 6.390625 
Q 39.453125 6.390625 43.28125 13.890625 
Q 47.125 21.390625 47.125 36.375 
Q 47.125 51.421875 43.28125 58.90625 
Q 39.453125 66.40625 31.78125 66.40625 
z
M 31.78125 74.21875 
Q 44.046875 74.21875 50.515625 64.515625 
Q 56.984375 54.828125 56.984375 36.375 
Q 56.984375 17.96875 50.515625 8.265625 
Q 44.046875 -1.421875 31.78125 -1.421875 
Q 19.53125 -1.421875 13.0625 8.265625 
Q 6.59375 17.96875 6.59375 36.375 
Q 6.59375 54.828125 13.0625 64.515625 
Q 19.53125 74.21875 31.78125 74.21875 
z
" id="DejaVuSans-30"/>
      </defs>
      <g transform="translate(49.7575 317.076875)scale(0.2 -0.2)">
       <use xlink:href="#DejaVuSans-30"/>
      </g>
     </g>
    </g>
    <g id="xtick_2">
     <g id="line2d_3">
      <path clip-path="url(#pb668777d92)" d="M 135.351336 294.88 
L 135.351336 6.845228 
" style="fill:none;stroke:#b0b0b0;stroke-linecap:square;stroke-width:0.8;"/>
     </g>
     <g id="line2d_4">
      <g>
       <use style="stroke:#000000;stroke-width:0.8;" x="135.351336" xlink:href="#m0084c708b4" y="294.88"/>
      </g>
     </g>
     <g id="text_2">
      <!-- 2 -->
      <defs>
       <path d="M 19.1875 8.296875 
L 53.609375 8.296875 
L 53.609375 0 
L 7.328125 0 
L 7.328125 8.296875 
Q 12.9375 14.109375 22.625 23.890625 
Q 32.328125 33.6875 34.8125 36.53125 
Q 39.546875 41.84375 41.421875 45.53125 
Q 43.3125 49.21875 43.3125 52.78125 
Q 43.3125 58.59375 39.234375 62.25 
Q 35.15625 65.921875 28.609375 65.921875 
Q 23.96875 65.921875 18.8125 64.3125 
Q 13.671875 62.703125 7.8125 59.421875 
L 7.8125 69.390625 
Q 13.765625 71.78125 18.9375 73 
Q 24.125 74.21875 28.421875 74.21875 
Q 39.75 74.21875 46.484375 68.546875 
Q 53.21875 62.890625 53.21875 53.421875 
Q 53.21875 48.921875 51.53125 44.890625 
Q 49.859375 40.875 45.40625 35.40625 
Q 44.1875 33.984375 37.640625 27.21875 
Q 31.109375 20.453125 19.1875 8.296875 
z
" id="DejaVuSans-32"/>
      </defs>
      <g transform="translate(128.988836 317.076875)scale(0.2 -0.2)">
       <use xlink:href="#DejaVuSans-32"/>
      </g>
     </g>
    </g>
    <g id="xtick_3">
     <g id="line2d_5">
      <path clip-path="url(#pb668777d92)" d="M 214.582673 294.88 
L 214.582673 6.845228 
" style="fill:none;stroke:#b0b0b0;stroke-linecap:square;stroke-width:0.8;"/>
     </g>
     <g id="line2d_6">
      <g>
       <use style="stroke:#000000;stroke-width:0.8;" x="214.582673" xlink:href="#m0084c708b4" y="294.88"/>
      </g>
     </g>
     <g id="text_3">
      <!-- 4 -->
      <defs>
       <path d="M 37.796875 64.3125 
L 12.890625 25.390625 
L 37.796875 25.390625 
z
M 35.203125 72.90625 
L 47.609375 72.90625 
L 47.609375 25.390625 
L 58.015625 25.390625 
L 58.015625 17.1875 
L 47.609375 17.1875 
L 47.609375 0 
L 37.796875 0 
L 37.796875 17.1875 
L 4.890625 17.1875 
L 4.890625 26.703125 
z
" id="DejaVuSans-34"/>
      </defs>
      <g transform="translate(208.220173 317.076875)scale(0.2 -0.2)">
       <use xlink:href="#DejaVuSans-34"/>
      </g>
     </g>
    </g>
    <g id="xtick_4">
     <g id="line2d_7">
      <path clip-path="url(#pb668777d92)" d="M 293.814009 294.88 
L 293.814009 6.845228 
" style="fill:none;stroke:#b0b0b0;stroke-linecap:square;stroke-width:0.8;"/>
     </g>
     <g id="line2d_8">
      <g>
       <use style="stroke:#000000;stroke-width:0.8;" x="293.814009" xlink:href="#m0084c708b4" y="294.88"/>
      </g>
     </g>
     <g id="text_4">
      <!-- 6 -->
      <defs>
       <path d="M 33.015625 40.375 
Q 26.375 40.375 22.484375 35.828125 
Q 18.609375 31.296875 18.609375 23.390625 
Q 18.609375 15.53125 22.484375 10.953125 
Q 26.375 6.390625 33.015625 6.390625 
Q 39.65625 6.390625 43.53125 10.953125 
Q 47.40625 15.53125 47.40625 23.390625 
Q 47.40625 31.296875 43.53125 35.828125 
Q 39.65625 40.375 33.015625 40.375 
z
M 52.59375 71.296875 
L 52.59375 62.3125 
Q 48.875 64.0625 45.09375 64.984375 
Q 41.3125 65.921875 37.59375 65.921875 
Q 27.828125 65.921875 22.671875 59.328125 
Q 17.53125 52.734375 16.796875 39.40625 
Q 19.671875 43.65625 24.015625 45.921875 
Q 28.375 48.1875 33.59375 48.1875 
Q 44.578125 48.1875 50.953125 41.515625 
Q 57.328125 34.859375 57.328125 23.390625 
Q 57.328125 12.15625 50.6875 5.359375 
Q 44.046875 -1.421875 33.015625 -1.421875 
Q 20.359375 -1.421875 13.671875 8.265625 
Q 6.984375 17.96875 6.984375 36.375 
Q 6.984375 53.65625 15.1875 63.9375 
Q 23.390625 74.21875 37.203125 74.21875 
Q 40.921875 74.21875 44.703125 73.484375 
Q 48.484375 72.75 52.59375 71.296875 
z
" id="DejaVuSans-36"/>
      </defs>
      <g transform="translate(287.451509 317.076875)scale(0.2 -0.2)">
       <use xlink:href="#DejaVuSans-36"/>
      </g>
     </g>
    </g>
    <g id="xtick_5">
     <g id="line2d_9">
      <path clip-path="url(#pb668777d92)" d="M 373.045346 294.88 
L 373.045346 6.845228 
" style="fill:none;stroke:#b0b0b0;stroke-linecap:square;stroke-width:0.8;"/>
     </g>
     <g id="line2d_10">
      <g>
       <use style="stroke:#000000;stroke-width:0.8;" x="373.045346" xlink:href="#m0084c708b4" y="294.88"/>
      </g>
     </g>
     <g id="text_5">
      <!-- 8 -->
      <defs>
       <path d="M 31.78125 34.625 
Q 24.75 34.625 20.71875 30.859375 
Q 16.703125 27.09375 16.703125 20.515625 
Q 16.703125 13.921875 20.71875 10.15625 
Q 24.75 6.390625 31.78125 6.390625 
Q 38.8125 6.390625 42.859375 10.171875 
Q 46.921875 13.96875 46.921875 20.515625 
Q 46.921875 27.09375 42.890625 30.859375 
Q 38.875 34.625 31.78125 34.625 
z
M 21.921875 38.8125 
Q 15.578125 40.375 12.03125 44.71875 
Q 8.5 49.078125 8.5 55.328125 
Q 8.5 64.0625 14.71875 69.140625 
Q 20.953125 74.21875 31.78125 74.21875 
Q 42.671875 74.21875 48.875 69.140625 
Q 55.078125 64.0625 55.078125 55.328125 
Q 55.078125 49.078125 51.53125 44.71875 
Q 48 40.375 41.703125 38.8125 
Q 48.828125 37.15625 52.796875 32.3125 
Q 56.78125 27.484375 56.78125 20.515625 
Q 56.78125 9.90625 50.3125 4.234375 
Q 43.84375 -1.421875 31.78125 -1.421875 
Q 19.734375 -1.421875 13.25 4.234375 
Q 6.78125 9.90625 6.78125 20.515625 
Q 6.78125 27.484375 10.78125 32.3125 
Q 14.796875 37.15625 21.921875 38.8125 
z
M 18.3125 54.390625 
Q 18.3125 48.734375 21.84375 45.5625 
Q 25.390625 42.390625 31.78125 42.390625 
Q 38.140625 42.390625 41.71875 45.5625 
Q 45.3125 48.734375 45.3125 54.390625 
Q 45.3125 60.0625 41.71875 63.234375 
Q 38.140625 66.40625 31.78125 66.40625 
Q 25.390625 66.40625 21.84375 63.234375 
Q 18.3125 60.0625 18.3125 54.390625 
z
" id="DejaVuSans-38"/>
      </defs>
      <g transform="translate(366.682846 317.076875)scale(0.2 -0.2)">
       <use xlink:href="#DejaVuSans-38"/>
      </g>
     </g>
    </g>
    <g id="text_6">
     <!-- log10(# f-evals / dimension) -->
     <defs>
      <path d="M 9.421875 75.984375 
L 18.40625 75.984375 
L 18.40625 0 
L 9.421875 0 
z
" id="DejaVuSans-6c"/>
      <path d="M 30.609375 48.390625 
Q 23.390625 48.390625 19.1875 42.75 
Q 14.984375 37.109375 14.984375 27.296875 
Q 14.984375 17.484375 19.15625 11.84375 
Q 23.34375 6.203125 30.609375 6.203125 
Q 37.796875 6.203125 41.984375 11.859375 
Q 46.1875 17.53125 46.1875 27.296875 
Q 46.1875 37.015625 41.984375 42.703125 
Q 37.796875 48.390625 30.609375 48.390625 
z
M 30.609375 56 
Q 42.328125 56 49.015625 48.375 
Q 55.71875 40.765625 55.71875 27.296875 
Q 55.71875 13.875 49.015625 6.21875 
Q 42.328125 -1.421875 30.609375 -1.421875 
Q 18.84375 -1.421875 12.171875 6.21875 
Q 5.515625 13.875 5.515625 27.296875 
Q 5.515625 40.765625 12.171875 48.375 
Q 18.84375 56 30.609375 56 
z
" id="DejaVuSans-6f"/>
      <path d="M 45.40625 27.984375 
Q 45.40625 37.75 41.375 43.109375 
Q 37.359375 48.484375 30.078125 48.484375 
Q 22.859375 48.484375 18.828125 43.109375 
Q 14.796875 37.75 14.796875 27.984375 
Q 14.796875 18.265625 18.828125 12.890625 
Q 22.859375 7.515625 30.078125 7.515625 
Q 37.359375 7.515625 41.375 12.890625 
Q 45.40625 18.265625 45.40625 27.984375 
z
M 54.390625 6.78125 
Q 54.390625 -7.171875 48.1875 -13.984375 
Q 42 -20.796875 29.203125 -20.796875 
Q 24.46875 -20.796875 20.265625 -20.09375 
Q 16.0625 -19.390625 12.109375 -17.921875 
L 12.109375 -9.1875 
Q 16.0625 -11.328125 19.921875 -12.34375 
Q 23.78125 -13.375 27.78125 -13.375 
Q 36.625 -13.375 41.015625 -8.765625 
Q 45.40625 -4.15625 45.40625 5.171875 
L 45.40625 9.625 
Q 42.625 4.78125 38.28125 2.390625 
Q 33.9375 0 27.875 0 
Q 17.828125 0 11.671875 7.65625 
Q 5.515625 15.328125 5.515625 27.984375 
Q 5.515625 40.671875 11.671875 48.328125 
Q 17.828125 56 27.875 56 
Q 33.9375 56 38.28125 53.609375 
Q 42.625 51.21875 45.40625 46.390625 
L 45.40625 54.6875 
L 54.390625 54.6875 
z
" id="DejaVuSans-67"/>
      <path d="M 12.40625 8.296875 
L 28.515625 8.296875 
L 28.515625 63.921875 
L 10.984375 60.40625 
L 10.984375 69.390625 
L 28.421875 72.90625 
L 38.28125 72.90625 
L 38.28125 8.296875 
L 54.390625 8.296875 
L 54.390625 0 
L 12.40625 0 
z
" id="DejaVuSans-31"/>
      <path d="M 31 75.875 
Q 24.46875 64.65625 21.28125 53.65625 
Q 18.109375 42.671875 18.109375 31.390625 
Q 18.109375 20.125 21.3125 9.0625 
Q 24.515625 -2 31 -13.1875 
L 23.1875 -13.1875 
Q 15.875 -1.703125 12.234375 9.375 
Q 8.59375 20.453125 8.59375 31.390625 
Q 8.59375 42.28125 12.203125 53.3125 
Q 15.828125 64.359375 23.1875 75.875 
z
" id="DejaVuSans-28"/>
      <path d="M 51.125 44 
L 36.921875 44 
L 32.8125 27.6875 
L 47.125 27.6875 
z
M 43.796875 71.78125 
L 38.71875 51.515625 
L 52.984375 51.515625 
L 58.109375 71.78125 
L 65.921875 71.78125 
L 60.890625 51.515625 
L 76.125 51.515625 
L 76.125 44 
L 58.984375 44 
L 54.984375 27.6875 
L 70.515625 27.6875 
L 70.515625 20.21875 
L 53.078125 20.21875 
L 48 0 
L 40.1875 0 
L 45.21875 20.21875 
L 30.90625 20.21875 
L 25.875 0 
L 18.015625 0 
L 23.09375 20.21875 
L 7.71875 20.21875 
L 7.71875 27.6875 
L 24.90625 27.6875 
L 29 44 
L 13.28125 44 
L 13.28125 51.515625 
L 30.90625 51.515625 
L 35.890625 71.78125 
z
" id="DejaVuSans-23"/>
      <path id="DejaVuSans-20"/>
      <path d="M 37.109375 75.984375 
L 37.109375 68.5 
L 28.515625 68.5 
Q 23.6875 68.5 21.796875 66.546875 
Q 19.921875 64.59375 19.921875 59.515625 
L 19.921875 54.6875 
L 34.71875 54.6875 
L 34.71875 47.703125 
L 19.921875 47.703125 
L 19.921875 0 
L 10.890625 0 
L 10.890625 47.703125 
L 2.296875 47.703125 
L 2.296875 54.6875 
L 10.890625 54.6875 
L 10.890625 58.5 
Q 10.890625 67.625 15.140625 71.796875 
Q 19.390625 75.984375 28.609375 75.984375 
z
" id="DejaVuSans-66"/>
      <path d="M 4.890625 31.390625 
L 31.203125 31.390625 
L 31.203125 23.390625 
L 4.890625 23.390625 
z
" id="DejaVuSans-2d"/>
      <path d="M 56.203125 29.59375 
L 56.203125 25.203125 
L 14.890625 25.203125 
Q 15.484375 15.921875 20.484375 11.0625 
Q 25.484375 6.203125 34.421875 6.203125 
Q 39.59375 6.203125 44.453125 7.46875 
Q 49.3125 8.734375 54.109375 11.28125 
L 54.109375 2.78125 
Q 49.265625 0.734375 44.1875 -0.34375 
Q 39.109375 -1.421875 33.890625 -1.421875 
Q 20.796875 -1.421875 13.15625 6.1875 
Q 5.515625 13.8125 5.515625 26.8125 
Q 5.515625 40.234375 12.765625 48.109375 
Q 20.015625 56 32.328125 56 
Q 43.359375 56 49.78125 48.890625 
Q 56.203125 41.796875 56.203125 29.59375 
z
M 47.21875 32.234375 
Q 47.125 39.59375 43.09375 43.984375 
Q 39.0625 48.390625 32.421875 48.390625 
Q 24.90625 48.390625 20.390625 44.140625 
Q 15.875 39.890625 15.1875 32.171875 
z
" id="DejaVuSans-65"/>
      <path d="M 2.984375 54.6875 
L 12.5 54.6875 
L 29.59375 8.796875 
L 46.6875 54.6875 
L 56.203125 54.6875 
L 35.6875 0 
L 23.484375 0 
z
" id="DejaVuSans-76"/>
      <path d="M 34.28125 27.484375 
Q 23.390625 27.484375 19.1875 25 
Q 14.984375 22.515625 14.984375 16.5 
Q 14.984375 11.71875 18.140625 8.90625 
Q 21.296875 6.109375 26.703125 6.109375 
Q 34.1875 6.109375 38.703125 11.40625 
Q 43.21875 16.703125 43.21875 25.484375 
L 43.21875 27.484375 
z
M 52.203125 31.203125 
L 52.203125 0 
L 43.21875 0 
L 43.21875 8.296875 
Q 40.140625 3.328125 35.546875 0.953125 
Q 30.953125 -1.421875 24.3125 -1.421875 
Q 15.921875 -1.421875 10.953125 3.296875 
Q 6 8.015625 6 15.921875 
Q 6 25.140625 12.171875 29.828125 
Q 18.359375 34.515625 30.609375 34.515625 
L 43.21875 34.515625 
L 43.21875 35.40625 
Q 43.21875 41.609375 39.140625 45 
Q 35.0625 48.390625 27.6875 48.390625 
Q 23 48.390625 18.546875 47.265625 
Q 14.109375 46.140625 10.015625 43.890625 
L 10.015625 52.203125 
Q 14.9375 54.109375 19.578125 55.046875 
Q 24.21875 56 28.609375 56 
Q 40.484375 56 46.34375 49.84375 
Q 52.203125 43.703125 52.203125 31.203125 
z
" id="DejaVuSans-61"/>
      <path d="M 44.28125 53.078125 
L 44.28125 44.578125 
Q 40.484375 46.53125 36.375 47.5 
Q 32.28125 48.484375 27.875 48.484375 
Q 21.1875 48.484375 17.84375 46.4375 
Q 14.5 44.390625 14.5 40.28125 
Q 14.5 37.15625 16.890625 35.375 
Q 19.28125 33.59375 26.515625 31.984375 
L 29.59375 31.296875 
Q 39.15625 29.25 43.1875 25.515625 
Q 47.21875 21.78125 47.21875 15.09375 
Q 47.21875 7.46875 41.1875 3.015625 
Q 35.15625 -1.421875 24.609375 -1.421875 
Q 20.21875 -1.421875 15.453125 -0.5625 
Q 10.6875 0.296875 5.421875 2 
L 5.421875 11.28125 
Q 10.40625 8.6875 15.234375 7.390625 
Q 20.0625 6.109375 24.8125 6.109375 
Q 31.15625 6.109375 34.5625 8.28125 
Q 37.984375 10.453125 37.984375 14.40625 
Q 37.984375 18.0625 35.515625 20.015625 
Q 33.0625 21.96875 24.703125 23.78125 
L 21.578125 24.515625 
Q 13.234375 26.265625 9.515625 29.90625 
Q 5.8125 33.546875 5.8125 39.890625 
Q 5.8125 47.609375 11.28125 51.796875 
Q 16.75 56 26.8125 56 
Q 31.78125 56 36.171875 55.265625 
Q 40.578125 54.546875 44.28125 53.078125 
z
" id="DejaVuSans-73"/>
      <path d="M 25.390625 72.90625 
L 33.6875 72.90625 
L 8.296875 -9.28125 
L 0 -9.28125 
z
" id="DejaVuSans-2f"/>
      <path d="M 45.40625 46.390625 
L 45.40625 75.984375 
L 54.390625 75.984375 
L 54.390625 0 
L 45.40625 0 
L 45.40625 8.203125 
Q 42.578125 3.328125 38.25 0.953125 
Q 33.9375 -1.421875 27.875 -1.421875 
Q 17.96875 -1.421875 11.734375 6.484375 
Q 5.515625 14.40625 5.515625 27.296875 
Q 5.515625 40.1875 11.734375 48.09375 
Q 17.96875 56 27.875 56 
Q 33.9375 56 38.25 53.625 
Q 42.578125 51.265625 45.40625 46.390625 
z
M 14.796875 27.296875 
Q 14.796875 17.390625 18.875 11.75 
Q 22.953125 6.109375 30.078125 6.109375 
Q 37.203125 6.109375 41.296875 11.75 
Q 45.40625 17.390625 45.40625 27.296875 
Q 45.40625 37.203125 41.296875 42.84375 
Q 37.203125 48.484375 30.078125 48.484375 
Q 22.953125 48.484375 18.875 42.84375 
Q 14.796875 37.203125 14.796875 27.296875 
z
" id="DejaVuSans-64"/>
      <path d="M 9.421875 54.6875 
L 18.40625 54.6875 
L 18.40625 0 
L 9.421875 0 
z
M 9.421875 75.984375 
L 18.40625 75.984375 
L 18.40625 64.59375 
L 9.421875 64.59375 
z
" id="DejaVuSans-69"/>
      <path d="M 52 44.1875 
Q 55.375 50.25 60.0625 53.125 
Q 64.75 56 71.09375 56 
Q 79.640625 56 84.28125 50.015625 
Q 88.921875 44.046875 88.921875 33.015625 
L 88.921875 0 
L 79.890625 0 
L 79.890625 32.71875 
Q 79.890625 40.578125 77.09375 44.375 
Q 74.3125 48.1875 68.609375 48.1875 
Q 61.625 48.1875 57.5625 43.546875 
Q 53.515625 38.921875 53.515625 30.90625 
L 53.515625 0 
L 44.484375 0 
L 44.484375 32.71875 
Q 44.484375 40.625 41.703125 44.40625 
Q 38.921875 48.1875 33.109375 48.1875 
Q 26.21875 48.1875 22.15625 43.53125 
Q 18.109375 38.875 18.109375 30.90625 
L 18.109375 0 
L 9.078125 0 
L 9.078125 54.6875 
L 18.109375 54.6875 
L 18.109375 46.1875 
Q 21.1875 51.21875 25.484375 53.609375 
Q 29.78125 56 35.6875 56 
Q 41.65625 56 45.828125 52.96875 
Q 50 49.953125 52 44.1875 
z
" id="DejaVuSans-6d"/>
      <path d="M 54.890625 33.015625 
L 54.890625 0 
L 45.90625 0 
L 45.90625 32.71875 
Q 45.90625 40.484375 42.875 44.328125 
Q 39.84375 48.1875 33.796875 48.1875 
Q 26.515625 48.1875 22.3125 43.546875 
Q 18.109375 38.921875 18.109375 30.90625 
L 18.109375 0 
L 9.078125 0 
L 9.078125 54.6875 
L 18.109375 54.6875 
L 18.109375 46.1875 
Q 21.34375 51.125 25.703125 53.5625 
Q 30.078125 56 35.796875 56 
Q 45.21875 56 50.046875 50.171875 
Q 54.890625 44.34375 54.890625 33.015625 
z
" id="DejaVuSans-6e"/>
      <path d="M 8.015625 75.875 
L 15.828125 75.875 
Q 23.140625 64.359375 26.78125 53.3125 
Q 30.421875 42.28125 30.421875 31.390625 
Q 30.421875 20.453125 26.78125 9.375 
Q 23.140625 -1.703125 15.828125 -13.1875 
L 8.015625 -13.1875 
Q 14.5 -2 17.703125 9.0625 
Q 20.90625 20.125 20.90625 31.390625 
Q 20.90625 42.671875 17.703125 53.65625 
Q 14.5 64.65625 8.015625 75.875 
z
" id="DejaVuSans-29"/>
     </defs>
     <g transform="translate(107.211219 338.153594)scale(0.17 -0.17)">
      <use xlink:href="#DejaVuSans-6c"/>
      <use x="27.783203" xlink:href="#DejaVuSans-6f"/>
      <use x="88.964844" xlink:href="#DejaVuSans-67"/>
      <use x="152.441406" xlink:href="#DejaVuSans-31"/>
      <use x="216.064453" xlink:href="#DejaVuSans-30"/>
      <use x="279.6875" xlink:href="#DejaVuSans-28"/>
      <use x="318.701172" xlink:href="#DejaVuSans-23"/>
      <use x="402.490234" xlink:href="#DejaVuSans-20"/>
      <use x="434.277344" xlink:href="#DejaVuSans-66"/>
      <use x="469.404297" xlink:href="#DejaVuSans-2d"/>
      <use x="505.488281" xlink:href="#DejaVuSans-65"/>
      <use x="567.011719" xlink:href="#DejaVuSans-76"/>
      <use x="626.191406" xlink:href="#DejaVuSans-61"/>
      <use x="687.470703" xlink:href="#DejaVuSans-6c"/>
      <use x="715.253906" xlink:href="#DejaVuSans-73"/>
      <use x="767.353516" xlink:href="#DejaVuSans-20"/>
      <use x="799.140625" xlink:href="#DejaVuSans-2f"/>
      <use x="832.832031" xlink:href="#DejaVuSans-20"/>
      <use x="864.619141" xlink:href="#DejaVuSans-64"/>
      <use x="928.095703" xlink:href="#DejaVuSans-69"/>
      <use x="955.878906" xlink:href="#DejaVuSans-6d"/>
      <use x="1053.291016" xlink:href="#DejaVuSans-65"/>
      <use x="1114.814453" xlink:href="#DejaVuSans-6e"/>
      <use x="1178.193359" xlink:href="#DejaVuSans-73"/>
      <use x="1230.292969" xlink:href="#DejaVuSans-69"/>
      <use x="1258.076172" xlink:href="#DejaVuSans-6f"/>
      <use x="1319.257812" xlink:href="#DejaVuSans-6e"/>
      <use x="1382.636719" xlink:href="#DejaVuSans-29"/>
     </g>
    </g>
   </g>
   <g id="matplotlib.axis_2">
    <g id="ytick_1">
     <g id="line2d_11">
      <path clip-path="url(#pb668777d92)" d="M 56.12 294.88 
L 399.984 294.88 
" style="fill:none;stroke:#b0b0b0;stroke-linecap:square;stroke-width:0.8;"/>
     </g>
     <g id="line2d_12">
      <defs>
       <path d="M 0 0 
L -3.5 0 
" id="mfb2eeb4be5" style="stroke:#000000;stroke-width:0.8;"/>
      </defs>
      <g>
       <use style="stroke:#000000;stroke-width:0.8;" x="56.12" xlink:href="#mfb2eeb4be5" y="294.88"/>
      </g>
     </g>
     <g id="text_7">
      <!-- 0.0 -->
      <defs>
       <path d="M 10.6875 12.40625 
L 21 12.40625 
L 21 0 
L 10.6875 0 
z
" id="DejaVuSans-2e"/>
      </defs>
      <g transform="translate(23.675 300.95875)scale(0.16 -0.16)">
       <use xlink:href="#DejaVuSans-30"/>
       <use x="63.623047" xlink:href="#DejaVuSans-2e"/>
       <use x="95.410156" xlink:href="#DejaVuSans-30"/>
      </g>
     </g>
    </g>
    <g id="ytick_2">
     <g id="line2d_13">
      <path clip-path="url(#pb668777d92)" d="M 56.12 237.843411 
L 399.984 237.843411 
" style="fill:none;stroke:#b0b0b0;stroke-linecap:square;stroke-width:0.8;"/>
     </g>
     <g id="line2d_14">
      <g>
       <use style="stroke:#000000;stroke-width:0.8;" x="56.12" xlink:href="#mfb2eeb4be5" y="237.843411"/>
      </g>
     </g>
     <g id="text_8">
      <!-- 0.2 -->
      <g transform="translate(23.675 243.922161)scale(0.16 -0.16)">
       <use xlink:href="#DejaVuSans-30"/>
       <use x="63.623047" xlink:href="#DejaVuSans-2e"/>
       <use x="95.410156" xlink:href="#DejaVuSans-32"/>
      </g>
     </g>
    </g>
    <g id="ytick_3">
     <g id="line2d_15">
      <path clip-path="url(#pb668777d92)" d="M 56.12 180.806823 
L 399.984 180.806823 
" style="fill:none;stroke:#b0b0b0;stroke-linecap:square;stroke-width:0.8;"/>
     </g>
     <g id="line2d_16">
      <g>
       <use style="stroke:#000000;stroke-width:0.8;" x="56.12" xlink:href="#mfb2eeb4be5" y="180.806823"/>
      </g>
     </g>
     <g id="text_9">
      <!-- 0.4 -->
      <g transform="translate(23.675 186.885573)scale(0.16 -0.16)">
       <use xlink:href="#DejaVuSans-30"/>
       <use x="63.623047" xlink:href="#DejaVuSans-2e"/>
       <use x="95.410156" xlink:href="#DejaVuSans-34"/>
      </g>
     </g>
    </g>
    <g id="ytick_4">
     <g id="line2d_17">
      <path clip-path="url(#pb668777d92)" d="M 56.12 123.770234 
L 399.984 123.770234 
" style="fill:none;stroke:#b0b0b0;stroke-linecap:square;stroke-width:0.8;"/>
     </g>
     <g id="line2d_18">
      <g>
       <use style="stroke:#000000;stroke-width:0.8;" x="56.12" xlink:href="#mfb2eeb4be5" y="123.770234"/>
      </g>
     </g>
     <g id="text_10">
      <!-- 0.6 -->
      <g transform="translate(23.675 129.848984)scale(0.16 -0.16)">
       <use xlink:href="#DejaVuSans-30"/>
       <use x="63.623047" xlink:href="#DejaVuSans-2e"/>
       <use x="95.410156" xlink:href="#DejaVuSans-36"/>
      </g>
     </g>
    </g>
    <g id="ytick_5">
     <g id="line2d_19">
      <path clip-path="url(#pb668777d92)" d="M 56.12 66.733646 
L 399.984 66.733646 
" style="fill:none;stroke:#b0b0b0;stroke-linecap:square;stroke-width:0.8;"/>
     </g>
     <g id="line2d_20">
      <g>
       <use style="stroke:#000000;stroke-width:0.8;" x="56.12" xlink:href="#mfb2eeb4be5" y="66.733646"/>
      </g>
     </g>
     <g id="text_11">
      <!-- 0.8 -->
      <g transform="translate(23.675 72.812396)scale(0.16 -0.16)">
       <use xlink:href="#DejaVuSans-30"/>
       <use x="63.623047" xlink:href="#DejaVuSans-2e"/>
       <use x="95.410156" xlink:href="#DejaVuSans-38"/>
      </g>
     </g>
    </g>
    <g id="ytick_6">
     <g id="line2d_21">
      <path clip-path="url(#pb668777d92)" d="M 56.12 9.697057 
L 399.984 9.697057 
" style="fill:none;stroke:#b0b0b0;stroke-linecap:square;stroke-width:0.8;"/>
     </g>
     <g id="line2d_22">
      <g>
       <use style="stroke:#000000;stroke-width:0.8;" x="56.12" xlink:href="#mfb2eeb4be5" y="9.697057"/>
      </g>
     </g>
     <g id="text_12">
      <!-- 1.0 -->
      <g transform="translate(23.675 15.775807)scale(0.16 -0.16)">
       <use xlink:href="#DejaVuSans-31"/>
       <use x="63.623047" xlink:href="#DejaVuSans-2e"/>
       <use x="95.410156" xlink:href="#DejaVuSans-30"/>
      </g>
     </g>
    </g>
    <g id="text_13">
     <!-- Fraction of function,target pairs -->
     <defs>
      <path d="M 9.8125 72.90625 
L 51.703125 72.90625 
L 51.703125 64.59375 
L 19.671875 64.59375 
L 19.671875 43.109375 
L 48.578125 43.109375 
L 48.578125 34.8125 
L 19.671875 34.8125 
L 19.671875 0 
L 9.8125 0 
z
" id="DejaVuSans-46"/>
      <path d="M 41.109375 46.296875 
Q 39.59375 47.171875 37.8125 47.578125 
Q 36.03125 48 33.890625 48 
Q 26.265625 48 22.1875 43.046875 
Q 18.109375 38.09375 18.109375 28.8125 
L 18.109375 0 
L 9.078125 0 
L 9.078125 54.6875 
L 18.109375 54.6875 
L 18.109375 46.1875 
Q 20.953125 51.171875 25.484375 53.578125 
Q 30.03125 56 36.53125 56 
Q 37.453125 56 38.578125 55.875 
Q 39.703125 55.765625 41.0625 55.515625 
z
" id="DejaVuSans-72"/>
      <path d="M 48.78125 52.59375 
L 48.78125 44.1875 
Q 44.96875 46.296875 41.140625 47.34375 
Q 37.3125 48.390625 33.40625 48.390625 
Q 24.65625 48.390625 19.8125 42.84375 
Q 14.984375 37.3125 14.984375 27.296875 
Q 14.984375 17.28125 19.8125 11.734375 
Q 24.65625 6.203125 33.40625 6.203125 
Q 37.3125 6.203125 41.140625 7.25 
Q 44.96875 8.296875 48.78125 10.40625 
L 48.78125 2.09375 
Q 45.015625 0.34375 40.984375 -0.53125 
Q 36.96875 -1.421875 32.421875 -1.421875 
Q 20.0625 -1.421875 12.78125 6.34375 
Q 5.515625 14.109375 5.515625 27.296875 
Q 5.515625 40.671875 12.859375 48.328125 
Q 20.21875 56 33.015625 56 
Q 37.15625 56 41.109375 55.140625 
Q 45.0625 54.296875 48.78125 52.59375 
z
" id="DejaVuSans-63"/>
      <path d="M 18.3125 70.21875 
L 18.3125 54.6875 
L 36.8125 54.6875 
L 36.8125 47.703125 
L 18.3125 47.703125 
L 18.3125 18.015625 
Q 18.3125 11.328125 20.140625 9.421875 
Q 21.96875 7.515625 27.59375 7.515625 
L 36.8125 7.515625 
L 36.8125 0 
L 27.59375 0 
Q 17.1875 0 13.234375 3.875 
Q 9.28125 7.765625 9.28125 18.015625 
L 9.28125 47.703125 
L 2.6875 47.703125 
L 2.6875 54.6875 
L 9.28125 54.6875 
L 9.28125 70.21875 
z
" id="DejaVuSans-74"/>
      <path d="M 8.5 21.578125 
L 8.5 54.6875 
L 17.484375 54.6875 
L 17.484375 21.921875 
Q 17.484375 14.15625 20.5 10.265625 
Q 23.53125 6.390625 29.59375 6.390625 
Q 36.859375 6.390625 41.078125 11.03125 
Q 45.3125 15.671875 45.3125 23.6875 
L 45.3125 54.6875 
L 54.296875 54.6875 
L 54.296875 0 
L 45.3125 0 
L 45.3125 8.40625 
Q 42.046875 3.421875 37.71875 1 
Q 33.40625 -1.421875 27.6875 -1.421875 
Q 18.265625 -1.421875 13.375 4.4375 
Q 8.5 10.296875 8.5 21.578125 
z
M 31.109375 56 
z
" id="DejaVuSans-75"/>
      <path d="M 11.71875 12.40625 
L 22.015625 12.40625 
L 22.015625 4 
L 14.015625 -11.625 
L 7.71875 -11.625 
L 11.71875 4 
z
" id="DejaVuSans-2c"/>
      <path d="M 18.109375 8.203125 
L 18.109375 -20.796875 
L 9.078125 -20.796875 
L 9.078125 54.6875 
L 18.109375 54.6875 
L 18.109375 46.390625 
Q 20.953125 51.265625 25.265625 53.625 
Q 29.59375 56 35.59375 56 
Q 45.5625 56 51.78125 48.09375 
Q 58.015625 40.1875 58.015625 27.296875 
Q 58.015625 14.40625 51.78125 6.484375 
Q 45.5625 -1.421875 35.59375 -1.421875 
Q 29.59375 -1.421875 25.265625 0.953125 
Q 20.953125 3.328125 18.109375 8.203125 
z
M 48.6875 27.296875 
Q 48.6875 37.203125 44.609375 42.84375 
Q 40.53125 48.484375 33.40625 48.484375 
Q 26.265625 48.484375 22.1875 42.84375 
Q 18.109375 37.203125 18.109375 27.296875 
Q 18.109375 17.390625 22.1875 11.75 
Q 26.265625 6.109375 33.40625 6.109375 
Q 40.53125 6.109375 44.609375 11.75 
Q 48.6875 17.390625 48.6875 27.296875 
z
" id="DejaVuSans-70"/>
     </defs>
     <g transform="translate(16.139531 286.001989)rotate(-90)scale(0.17 -0.17)">
      <use xlink:href="#DejaVuSans-46"/>
      <use x="57.410156" xlink:href="#DejaVuSans-72"/>
      <use x="98.523438" xlink:href="#DejaVuSans-61"/>
      <use x="159.802734" xlink:href="#DejaVuSans-63"/>
      <use x="214.783203" xlink:href="#DejaVuSans-74"/>
      <use x="253.992188" xlink:href="#DejaVuSans-69"/>
      <use x="281.775391" xlink:href="#DejaVuSans-6f"/>
      <use x="342.957031" xlink:href="#DejaVuSans-6e"/>
      <use x="406.335938" xlink:href="#DejaVuSans-20"/>
      <use x="438.123047" xlink:href="#DejaVuSans-6f"/>
      <use x="499.304688" xlink:href="#DejaVuSans-66"/>
      <use x="534.509766" xlink:href="#DejaVuSans-20"/>
      <use x="566.296875" xlink:href="#DejaVuSans-66"/>
      <use x="601.501953" xlink:href="#DejaVuSans-75"/>
      <use x="664.880859" xlink:href="#DejaVuSans-6e"/>
      <use x="728.259766" xlink:href="#DejaVuSans-63"/>
      <use x="783.240234" xlink:href="#DejaVuSans-74"/>
      <use x="822.449219" xlink:href="#DejaVuSans-69"/>
      <use x="850.232422" xlink:href="#DejaVuSans-6f"/>
      <use x="911.414062" xlink:href="#DejaVuSans-6e"/>
      <use x="974.792969" xlink:href="#DejaVuSans-2c"/>
      <use x="1006.580078" xlink:href="#DejaVuSans-74"/>
      <use x="1045.789062" xlink:href="#DejaVuSans-61"/>
      <use x="1107.068359" xlink:href="#DejaVuSans-72"/>
      <use x="1148.166016" xlink:href="#DejaVuSans-67"/>
      <use x="1211.642578" xlink:href="#DejaVuSans-65"/>
      <use x="1273.166016" xlink:href="#DejaVuSans-74"/>
      <use x="1312.375" xlink:href="#DejaVuSans-20"/>
      <use x="1344.162109" xlink:href="#DejaVuSans-70"/>
      <use x="1407.638672" xlink:href="#DejaVuSans-61"/>
      <use x="1468.917969" xlink:href="#DejaVuSans-69"/>
      <use x="1496.701172" xlink:href="#DejaVuSans-72"/>
      <use x="1537.814453" xlink:href="#DejaVuSans-73"/>
     </g>
    </g>
   </g>
   <g id="line2d_23">
    <defs>
     <path d="M 0 1.5 
C 0.397805 1.5 0.77937 1.341951 1.06066 1.06066 
C 1.341951 0.77937 1.5 0.397805 1.5 0 
C 1.5 -0.397805 1.341951 -0.77937 1.06066 -1.06066 
C 0.77937 -1.341951 0.397805 -1.5 0 -1.5 
C -0.397805 -1.5 -0.77937 -1.341951 -1.06066 -1.06066 
C -1.341951 -0.77937 -1.5 -0.397805 -1.5 0 
C -1.5 0.397805 -1.341951 0.77937 -1.06066 1.06066 
C -0.77937 1.341951 -0.397805 1.5 0 1.5 
z
" id="m6682abae00" style="stroke:#000080;"/>
    </defs>
    <g>
     <use style="fill:#000080;stroke:#000080;" x="337.420908" xlink:href="#m6682abae00" y="9.697057"/>
     <use style="fill:#000080;stroke:#000080;" x="337.420908" xlink:href="#m6682abae00" y="9.697057"/>
    </g>
   </g>
   <g id="line2d_24">
    <path d="M 40.355341 294.88 
L 40.355341 281.459626 
L 59.256818 281.459626 
L 59.256818 279.782079 
L 64.20635 279.782079 
L 64.20635 278.104533 
L 71.182322 278.104533 
L 71.182322 277.545351 
L 73.834464 277.545351 
L 73.834464 276.986168 
L 84.484951 276.986168 
L 84.484951 276.426986 
L 86.946982 276.426986 
L 86.946982 275.867804 
L 89.100397 275.867804 
L 89.100397 275.308622 
L 98.289215 275.308622 
L 98.289215 274.749439 
L 99.436631 274.749439 
L 99.436631 274.190257 
L 99.982863 274.190257 
L 99.982863 273.631075 
L 111.362135 273.631075 
L 111.362135 273.071893 
L 116.991789 273.071893 
L 116.991789 272.51271 
L 117.387321 272.51271 
L 117.387321 271.953528 
L 119.927379 271.953528 
L 119.927379 270.835164 
L 120.095232 270.835164 
L 120.095232 269.716799 
L 121.382177 269.716799 
L 121.382177 269.157617 
L 121.689415 269.157617 
L 121.689415 268.598435 
L 125.375637 268.598435 
L 125.375637 268.039252 
L 125.498092 268.039252 
L 125.498092 267.48007 
L 127.015436 267.48007 
L 127.015436 266.920888 
L 130.809845 266.920888 
L 130.809845 265.243341 
L 134.359835 265.243341 
L 134.359835 264.684159 
L 135.959823 264.684159 
L 135.959823 263.565795 
L 136.739045 263.565795 
L 136.739045 262.44743 
L 137.239585 262.44743 
L 137.239585 261.888248 
L 142.235304 261.888248 
L 142.235304 260.769883 
L 150.61322 260.769883 
L 150.61322 260.210701 
L 151.253087 260.210701 
L 151.253087 259.651519 
L 151.870007 259.651519 
L 151.870007 259.092337 
L 152.209159 259.092337 
L 152.209159 258.533154 
L 153.236995 258.533154 
L 153.236995 257.973972 
L 154.927601 257.973972 
L 154.927601 256.855608 
L 155.913454 256.855608 
L 155.913454 256.296425 
L 160.382475 256.296425 
L 160.382475 255.737243 
L 161.962293 255.737243 
L 161.962293 254.059696 
L 164.250521 254.059696 
L 164.250521 252.941332 
L 165.595046 252.941332 
L 165.595046 252.38215 
L 166.541495 252.38215 
L 166.541495 251.263785 
L 167.459889 251.263785 
L 167.459889 250.704603 
L 167.973818 250.704603 
L 167.973818 249.586238 
L 168.31148 249.586238 
L 168.31148 249.027056 
L 171.644755 249.027056 
L 171.644755 248.467874 
L 172.267772 248.467874 
L 172.267772 247.908692 
L 172.451954 247.908692 
L 172.451954 246.231145 
L 172.884556 246.231145 
L 172.884556 245.112781 
L 173.821724 245.112781 
L 173.821724 244.553598 
L 173.960917 244.553598 
L 174.026459 243.435234 
L 174.745361 243.435234 
L 174.745361 242.876052 
L 176.0149 242.876052 
L 176.0149 242.316869 
L 176.27836 242.316869 
L 176.27836 241.757687 
L 177.033162 241.757687 
L 177.033162 241.198505 
L 177.185069 241.198505 
L 177.185069 240.639323 
L 177.329649 240.639323 
L 177.329649 240.08014 
L 178.309052 240.08014 
L 178.309052 239.520958 
L 178.466999 239.520958 
L 178.466999 238.961776 
L 179.358756 238.961776 
L 179.358756 238.402594 
L 179.633786 238.402594 
L 179.633786 237.284229 
L 179.883816 237.284229 
L 179.883816 235.606682 
L 180.72152 235.606682 
L 180.72152 235.0475 
L 181.019384 235.0475 
L 181.019384 234.488318 
L 181.525025 234.488318 
L 181.56728 232.810771 
L 181.841745 232.810771 
L 181.841745 231.692407 
L 182.007089 231.692407 
L 182.007089 231.133225 
L 183.237319 231.133225 
L 183.237319 230.574042 
L 183.38562 230.574042 
L 183.38562 230.01486 
L 183.896878 230.01486 
L 183.896878 229.455678 
L 185.129427 229.455678 
L 185.129427 228.337313 
L 185.554911 228.337313 
L 185.554911 227.778131 
L 185.846244 227.778131 
L 185.846244 226.659767 
L 186.035351 226.659767 
L 186.035351 225.541402 
L 186.988588 225.541402 
L 186.988588 224.98222 
L 188.085485 224.98222 
L 188.085485 224.423038 
L 188.327767 224.423038 
L 188.327767 223.863855 
L 189.110574 223.863855 
L 189.110574 223.304673 
L 189.570193 223.304673 
L 189.573138 222.186309 
L 189.713898 222.186309 
L 189.713898 220.508762 
L 190.06084 220.508762 
L 190.06084 219.94958 
L 190.643349 219.94958 
L 190.643349 219.390397 
L 191.045356 219.390397 
L 191.091247 218.272033 
L 191.387913 218.272033 
L 191.387913 217.712851 
L 192.182742 217.712851 
L 192.182742 216.594486 
L 192.572983 216.594486 
L 192.572983 213.798575 
L 193.113494 213.798575 
L 193.113494 212.680211 
L 193.625912 212.680211 
L 193.721037 211.561846 
L 193.980521 211.561846 
L 193.980521 211.002664 
L 194.10768 211.002664 
L 194.10768 210.443482 
L 194.35029 210.443482 
L 194.35029 209.325117 
L 195.300574 209.325117 
L 195.367986 208.206753 
L 195.516621 208.206753 
L 195.516621 207.088388 
L 195.785484 207.088388 
L 195.785484 206.529206 
L 196.1067 206.529206 
L 196.1067 205.970024 
L 196.714192 205.970024 
L 196.743331 204.292477 
L 197.351623 204.292477 
L 197.351623 203.174112 
L 197.523132 203.174112 
L 197.571294 202.055748 
L 197.663536 202.055748 
L 197.73331 199.259837 
L 197.951811 199.259837 
L 197.951811 198.700655 
L 198.812851 198.700655 
L 198.812851 197.58229 
L 199.249559 197.58229 
L 199.249559 197.023108 
L 199.861052 197.023108 
L 199.927315 195.904743 
L 200.004568 195.904743 
L 200.004568 195.345561 
L 200.181898 195.345561 
L 200.181898 194.227197 
L 200.332229 194.227197 
L 200.346403 192.54965 
L 200.625909 192.54965 
L 200.625909 191.990468 
L 200.750912 191.990468 
L 200.750912 191.431285 
L 201.267423 191.431285 
L 201.35969 189.753739 
L 201.594075 189.753739 
L 201.594075 189.194556 
L 201.731154 189.194556 
L 201.731154 188.635374 
L 201.910328 188.635374 
L 201.969163 185.839463 
L 202.174222 185.839463 
L 202.174222 185.280281 
L 202.446675 185.280281 
L 202.455033 183.602734 
L 202.927558 183.602734 
L 203.030225 180.806823 
L 203.066552 180.806823 
L 203.066552 180.247641 
L 203.217761 180.247641 
L 203.23374 178.570094 
L 203.337248 178.570094 
L 203.337248 177.451729 
L 204.014376 177.451729 
L 204.122157 175.215 
L 204.305724 175.215 
L 204.305724 174.655818 
L 204.581147 174.655818 
L 204.581147 174.096636 
L 204.804915 174.096636 
L 204.804915 172.978271 
L 205.670818 172.978271 
L 205.670818 172.419089 
L 205.861526 172.419089 
L 205.861526 171.859907 
L 206.009413 171.859907 
L 206.009413 170.741543 
L 206.202026 170.741543 
L 206.202026 170.18236 
L 206.43234 170.18236 
L 206.43234 169.623178 
L 206.947321 169.623178 
L 206.947321 169.063996 
L 207.614268 169.063996 
L 207.614268 168.504814 
L 207.918027 168.504814 
L 207.918027 167.945631 
L 208.249363 167.945631 
L 208.249363 167.386449 
L 208.482466 167.386449 
L 208.59297 166.268085 
L 209.248063 166.268085 
L 209.248063 165.708902 
L 209.486622 165.708902 
L 209.486622 165.14972 
L 209.977441 165.14972 
L 209.977441 164.590538 
L 210.576685 164.590538 
L 210.576685 163.472173 
L 210.966589 163.472173 
L 210.966589 162.353809 
L 211.802742 162.353809 
L 211.802742 161.794627 
L 212.552188 161.794627 
L 212.598589 160.11708 
L 212.67411 160.11708 
L 212.67411 159.557898 
L 213.792655 159.557898 
L 213.809939 158.439533 
L 215.239584 158.439533 
L 215.332073 157.321169 
L 215.373531 157.321169 
L 215.373531 156.202804 
L 216.236855 156.202804 
L 216.236855 155.08444 
L 216.706105 155.08444 
L 216.706105 154.525258 
L 218.235839 154.525258 
L 218.235839 153.966075 
L 219.193746 153.966075 
L 219.193746 153.406893 
L 220.617616 153.406893 
L 220.617616 152.847711 
L 221.407498 152.847711 
L 221.407498 151.729346 
L 266.495572 151.729346 
L 266.604399 148.374253 
L 266.617377 148.374253 
L 266.716964 145.578342 
L 266.769807 145.578342 
L 266.871845 141.664066 
L 266.919781 141.664066 
L 267.023614 136.631426 
L 267.042251 136.631426 
L 267.087177 131.598786 
L 267.257245 131.598786 
L 267.257245 131.039603 
L 278.26775 131.039603 
L 278.37537 127.68451 
L 278.386813 127.68451 
L 278.492872 124.329417 
L 278.516497 124.329417 
L 278.602696 120.415141 
L 278.677306 120.415141 
L 278.699023 118.737594 
L 285.182412 118.737594 
L 285.280084 114.823318 
L 285.297332 114.823318 
L 285.396196 109.231496 
L 285.417937 109.231496 
L 285.461158 106.994767 
L 290.144422 106.994767 
L 290.238773 101.962127 
L 290.265293 101.962127 
L 290.302766 99.725398 
L 293.939746 99.725398 
L 294.046755 93.015211 
L 294.05851 93.015211 
L 294.067959 91.337664 
L 297.087241 91.337664 
L 297.170133 86.305024 
L 299.711853 86.305024 
L 299.776633 81.831566 
L 301.975641 81.831566 
L 302.059522 74.562197 
L 304.011551 74.562197 
L 304.068353 70.088739 
L 305.797829 70.088739 
L 305.866965 65.615281 
L 307.445737 65.615281 
L 307.495218 58.345912 
L 308.944683 58.345912 
L 308.986343 55.550001 
L 310.312179 55.550001 
L 310.347917 53.872454 
L 311.570152 53.872454 
L 311.619612 49.398996 
L 312.775446 49.398996 
L 312.803555 44.925538 
L 313.873723 44.925538 
L 313.905638 42.129627 
L 314.91383 42.129627 
L 314.92432 41.011263 
L 315.894855 41.011263 
L 315.923235 38.774534 
L 316.838437 38.774534 
L 316.841631 37.656169 
L 317.710012 37.656169 
L 317.723513 36.537805 
L 318.543545 36.537805 
L 318.562541 33.741894 
L 319.35114 33.741894 
L 319.35114 33.182711 
L 320.108643 33.182711 
L 320.111884 31.505165 
L 320.833677 31.505165 
L 320.852682 28.709253 
L 321.553366 28.709253 
L 321.553366 28.150071 
L 322.210581 28.150071 
L 322.217043 26.472524 
L 322.861622 26.472524 
L 322.875603 24.794978 
L 323.49649 24.794978 
L 323.501221 23.676613 
L 324.089559 23.676613 
L 324.103337 22.558249 
L 324.666472 22.558249 
L 324.668374 21.439884 
L 325.237084 21.439884 
L 325.237084 20.880702 
L 326.310274 20.880702 
L 326.310274 20.32152 
L 327.32659 20.32152 
L 327.327154 19.203155 
L 327.804379 19.203155 
L 327.804379 18.643973 
L 328.269927 18.643973 
L 328.275057 16.966426 
L 329.176026 16.966426 
L 329.179887 15.848062 
L 329.614854 15.848062 
L 329.614854 15.28888 
L 330.862031 15.28888 
L 330.86249 14.170515 
L 332.01627 14.170515 
L 332.022909 12.492968 
L 333.106002 12.492968 
L 333.106002 11.933786 
L 333.429677 11.933786 
L 333.429677 11.933786 
" style="fill:none;stroke:#000080;stroke-linecap:square;stroke-width:1.5;"/>
   </g>
   <g id="line2d_25">
    <defs>
     <path d="M 0 6 
C 1.591219 6 3.117479 5.367802 4.242641 4.242641 
C 5.367802 3.117479 6 1.591219 6 0 
C 6 -1.591219 5.367802 -3.117479 4.242641 -4.242641 
C 3.117479 -5.367802 1.591219 -6 0 -6 
C -1.591219 -6 -3.117479 -5.367802 -4.242641 -4.242641 
C -5.367802 -3.117479 -6 -1.591219 -6 0 
C -6 1.591219 -5.367802 3.117479 -4.242641 4.242641 
C -3.117479 5.367802 -1.591219 6 0 6 
z
" id="m6c36e7c989" style="stroke:#000080;stroke-width:1.5;"/>
    </defs>
    <g>
     <use style="fill-opacity:0;stroke:#000080;stroke-width:1.5;" x="150.61322" xlink:href="#m6c36e7c989" y="260.769883"/>
     <use style="fill-opacity:0;stroke:#000080;stroke-width:1.5;" x="203.217761" xlink:href="#m6c36e7c989" y="179.688458"/>
     <use style="fill-opacity:0;stroke:#000080;stroke-width:1.5;" x="267.257245" xlink:href="#m6c36e7c989" y="131.039603"/>
     <use style="fill-opacity:0;stroke:#000080;stroke-width:1.5;" x="317.723513" xlink:href="#m6c36e7c989" y="36.537805"/>
     <use style="fill-opacity:0;stroke:#000080;stroke-width:1.5;" x="333.106002" xlink:href="#m6c36e7c989" y="11.933786"/>
     <use style="fill-opacity:0;stroke:#000080;stroke-width:1.5;" x="333.429677" xlink:href="#m6c36e7c989" y="11.933786"/>
    </g>
   </g>
   <g id="line2d_26">
    <path style="fill:none;stroke:#000080;stroke-linecap:square;stroke-width:1.5;"/>
    <g/>
   </g>
   <g id="line2d_27">
    <path clip-path="url(#pb668777d92)" d="M 266.123863 151.729346 
" style="fill:none;stroke:#000080;stroke-linecap:square;stroke-width:1.5;"/>
    <defs>
     <path d="M -12 12 
L 12 -12 
M -12 -12 
L 12 12 
" id="m048f8ea002" style="stroke:#000080;stroke-width:3;"/>
    </defs>
    <g clip-path="url(#pb668777d92)">
     <use style="fill:#000080;stroke:#000080;stroke-width:3;" x="266.123863" xlink:href="#m048f8ea002" y="151.729346"/>
    </g>
   </g>
   <g id="line2d_28">
    <defs>
     <path d="M 0 1.5 
C 0.397805 1.5 0.77937 1.341951 1.06066 1.06066 
C 1.341951 0.77937 1.5 0.397805 1.5 0 
C 1.5 -0.397805 1.341951 -0.77937 1.06066 -1.06066 
C 0.77937 -1.341951 0.397805 -1.5 0 -1.5 
C -0.397805 -1.5 -0.77937 -1.341951 -1.06066 -1.06066 
C -1.341951 -0.77937 -1.5 -0.397805 -1.5 0 
C -1.5 0.397805 -1.341951 0.77937 -1.06066 1.06066 
C -0.77937 1.341951 -0.397805 1.5 0 1.5 
z
" id="m08937c7ac1" style="stroke:#ff00ff;"/>
    </defs>
    <g>
     <use style="fill:#ff00ff;stroke:#ff00ff;" x="307.572568" xlink:href="#m08937c7ac1" y="9.697057"/>
     <use style="fill:#ff00ff;stroke:#ff00ff;" x="307.572568" xlink:href="#m08937c7ac1" y="9.697057"/>
    </g>
   </g>
   <g id="line2d_29">
    <path d="M 40.355341 294.88 
L 40.355341 264.684159 
L 52.280845 264.684159 
L 52.280845 262.44743 
L 59.256818 262.44743 
L 59.256818 259.092337 
L 64.20635 259.092337 
L 64.20635 258.533154 
L 68.045504 258.533154 
L 68.045504 257.973972 
L 71.182322 257.973972 
L 71.182322 256.296425 
L 73.834464 256.296425 
L 73.834464 255.737243 
L 76.131854 255.737243 
L 76.131854 254.618879 
L 78.158295 254.618879 
L 78.158295 252.941332 
L 81.610808 252.941332 
L 81.610808 251.822967 
L 83.107827 251.822967 
L 83.107827 251.263785 
L 90.0838 251.263785 
L 90.0838 250.145421 
L 94.301099 250.145421 
L 94.301099 249.027056 
L 95.033331 249.027056 
L 95.033331 247.908692 
L 105.066285 247.908692 
L 105.066285 247.34951 
L 105.461817 247.34951 
L 105.461817 246.231145 
L 108.33596 246.231145 
L 108.33596 245.671963 
L 110.214719 245.671963 
L 110.214719 244.553598 
L 121.536482 244.553598 
L 121.536482 243.994416 
L 131.339267 243.994416 
L 131.339267 242.316869 
L 134.577163 242.316869 
L 134.577163 241.198505 
L 135.213144 241.198505 
L 135.213144 240.639323 
L 142.690486 240.639323 
L 142.690486 240.08014 
L 144.959777 240.08014 
L 144.959777 239.520958 
L 145.271892 239.520958 
L 145.271892 238.961776 
L 146.6817 238.961776 
L 146.6817 238.402594 
L 151.307619 238.402594 
L 151.307619 237.284229 
L 157.786467 237.284229 
L 157.786467 236.165865 
L 158.642788 236.165865 
L 158.642788 235.606682 
L 158.889837 235.606682 
L 158.889837 235.0475 
L 160.253478 235.0475 
L 160.253478 234.488318 
L 160.621768 234.488318 
L 160.621768 233.369954 
L 160.889003 233.369954 
L 160.889003 232.251589 
L 165.889154 232.251589 
L 165.889154 231.692407 
L 167.353092 231.692407 
L 167.353092 229.455678 
L 174.243148 229.455678 
L 174.243148 228.896496 
L 176.18244 228.896496 
L 176.265601 227.218949 
L 177.837971 227.218949 
L 177.837971 226.100584 
L 183.317984 226.100584 
L 183.317984 225.541402 
L 183.744676 225.541402 
L 183.744676 224.98222 
L 184.669676 224.98222 
L 184.669676 224.423038 
L 185.197912 224.423038 
L 185.197912 223.863855 
L 186.684802 223.863855 
L 186.684802 223.304673 
L 190.157882 223.304673 
L 190.157882 221.627126 
L 190.980361 221.627126 
L 190.980361 221.067944 
L 192.441391 221.067944 
L 192.441391 219.94958 
L 193.56298 219.94958 
L 193.56298 219.390397 
L 194.082776 219.390397 
L 194.116726 218.272033 
L 196.982345 218.272033 
L 196.982345 217.712851 
L 198.153271 217.712851 
L 198.153271 217.153669 
L 199.893407 217.153669 
L 199.893407 216.594486 
L 200.622811 216.594486 
L 200.622811 216.035304 
L 200.792379 216.035304 
L 200.792379 215.476122 
L 201.265931 215.476122 
L 201.265931 214.91694 
L 201.541285 214.91694 
L 201.541285 214.357757 
L 201.898825 214.357757 
L 201.898825 213.798575 
L 202.044921 213.798575 
L 202.044921 212.121028 
L 202.790163 212.121028 
L 202.852875 209.884299 
L 203.382173 209.884299 
L 203.382173 208.765935 
L 204.59099 208.765935 
L 204.59099 208.206753 
L 204.930799 208.206753 
L 205.018613 205.970024 
L 205.228504 205.970024 
L 205.228504 204.851659 
L 205.850097 204.851659 
L 205.850097 202.61493 
L 206.196425 202.61493 
L 206.196425 200.378201 
L 206.391398 200.378201 
L 206.391398 199.819019 
L 206.50513 199.819019 
L 206.50513 197.023108 
L 206.656339 197.023108 
L 206.656339 196.463926 
L 207.319752 196.463926 
L 207.319752 194.786379 
L 207.62149 194.786379 
L 207.62149 194.227197 
L 207.930188 194.227197 
L 207.930188 191.990468 
L 209.122806 191.990468 
L 209.122806 190.872103 
L 209.503272 190.872103 
L 209.520829 189.753739 
L 209.757484 189.753739 
L 209.757484 188.635374 
L 210.028631 188.635374 
L 210.028631 188.076192 
L 210.148377 188.076192 
L 210.148377 185.280281 
L 211.131384 185.280281 
L 211.131384 183.602734 
L 211.334559 183.602734 
L 211.334559 183.043552 
L 211.450534 183.043552 
L 211.450534 182.48437 
L 211.639384 182.48437 
L 211.639384 180.806823 
L 212.302578 180.806823 
L 212.302578 180.247641 
L 212.443429 180.247641 
L 212.443429 179.688458 
L 213.099412 179.688458 
L 213.099412 178.570094 
L 213.822891 178.570094 
L 213.822891 178.010912 
L 214.604681 178.010912 
L 214.604681 177.451729 
L 216.372592 177.451729 
L 216.372592 176.333365 
L 216.902071 176.333365 
L 216.902071 175.215 
L 217.108313 175.215 
L 217.108313 173.537454 
L 217.476921 173.537454 
L 217.476921 172.419089 
L 219.145249 172.419089 
L 219.23108 171.300725 
L 219.439392 171.300725 
L 219.439392 170.741543 
L 220.524809 170.741543 
L 220.524809 170.18236 
L 221.330029 170.18236 
L 221.330029 169.623178 
L 225.024917 169.623178 
L 225.024917 169.063996 
L 225.166115 169.063996 
L 225.166115 168.504814 
L 225.91268 168.504814 
L 225.91268 167.945631 
L 226.59433 167.945631 
L 226.59433 167.386449 
L 227.323666 167.386449 
L 227.323666 166.827267 
L 228.11792 166.827267 
L 228.11792 165.708902 
L 228.412452 165.708902 
L 228.412452 164.590538 
L 228.96773 164.590538 
L 228.96773 163.472173 
L 229.939812 163.472173 
L 229.939812 162.912991 
L 230.121226 162.912991 
L 230.121226 162.353809 
L 231.988632 162.353809 
L 231.988632 161.794627 
L 233.404134 161.794627 
L 233.404134 160.676262 
L 233.528367 160.676262 
L 233.528367 159.557898 
L 233.934031 159.557898 
L 234.024302 158.439533 
L 234.918353 158.439533 
L 234.918353 157.880351 
L 236.45288 157.880351 
L 236.45288 156.761987 
L 237.250846 156.761987 
L 237.250846 156.202804 
L 238.707797 156.202804 
L 238.710844 155.08444 
L 239.835351 155.08444 
L 239.922986 153.966075 
L 241.050591 153.966075 
L 241.050591 153.406893 
L 241.258283 153.406893 
L 241.258283 151.729346 
L 242.04143 151.729346 
L 242.04143 150.610982 
L 242.191991 150.610982 
L 242.191991 150.0518 
L 243.282486 150.0518 
L 243.282486 149.492617 
L 244.242538 149.492617 
L 244.275159 147.815071 
L 244.46814 147.815071 
L 244.46814 147.255888 
L 245.481649 147.255888 
L 245.489986 145.578342 
L 245.777211 145.578342 
L 245.777211 144.459977 
L 247.013128 144.459977 
L 247.013128 143.341613 
L 247.171953 143.341613 
L 247.171953 142.78243 
L 248.124798 142.78243 
L 248.124798 142.223248 
L 248.51854 142.223248 
L 248.51854 141.664066 
L 249.604528 141.664066 
L 249.604528 140.545702 
L 250.0732 140.545702 
L 250.0732 139.986519 
L 251.012454 139.986519 
L 251.012454 138.868155 
L 251.197795 138.868155 
L 251.272518 137.74979 
L 251.525736 137.74979 
L 251.576785 136.631426 
L 253.504389 136.631426 
L 253.504389 135.513061 
L 254.125928 135.513061 
L 254.125928 134.394697 
L 256.022152 134.394697 
L 256.022152 133.276332 
L 257.032984 133.276332 
L 257.032984 132.71715 
L 257.178052 132.71715 
L 257.178052 132.157968 
L 257.528143 132.157968 
L 257.528143 131.598786 
L 257.644177 131.598786 
L 257.644177 131.039603 
L 259.230498 131.039603 
L 259.230498 130.480421 
L 260.517557 130.480421 
L 260.517557 129.921239 
L 260.699529 129.921239 
L 260.699529 129.362057 
L 261.867972 129.362057 
L 261.867972 128.802874 
L 266.522322 128.802874 
L 266.599982 125.447781 
L 266.634054 125.447781 
L 266.739057 120.415141 
L 266.753195 120.415141 
L 266.842367 113.145772 
L 266.893675 113.145772 
L 266.964339 111.468225 
L 267.052882 111.468225 
L 267.052882 110.909043 
L 267.247094 110.909043 
L 267.247094 109.790678 
L 267.490988 109.790678 
L 267.492799 108.672314 
L 267.645889 108.672314 
L 267.645889 108.113132 
L 267.94894 108.113132 
L 267.94894 106.994767 
L 268.138737 106.994767 
L 268.138737 106.435585 
L 268.35807 106.435585 
L 268.35807 105.31722 
L 268.491003 105.31722 
L 268.587797 103.080491 
L 268.693655 103.080491 
L 268.702513 101.962127 
L 268.856294 101.962127 
L 268.856294 100.843762 
L 269.0691 100.843762 
L 269.160599 99.166216 
L 269.502364 99.166216 
L 269.502364 98.607033 
L 269.737661 98.607033 
L 269.737661 97.488669 
L 269.946875 97.488669 
L 269.946875 96.929487 
L 270.382555 96.929487 
L 270.425298 94.692758 
L 270.656372 94.692758 
L 270.656372 93.574393 
L 271.0608 93.574393 
L 271.0608 93.015211 
L 271.303473 93.015211 
L 271.303473 91.896847 
L 271.730541 91.896847 
L 271.79097 90.778482 
L 272.178754 90.778482 
L 272.269584 88.541753 
L 272.557801 88.541753 
L 272.597693 87.423389 
L 272.871609 87.423389 
L 272.871725 86.305024 
L 273.4846 86.305024 
L 273.4846 85.18666 
L 274.097511 85.18666 
L 274.097511 84.068295 
L 274.751344 84.068295 
L 274.751344 82.949931 
L 274.930178 82.949931 
L 274.94564 81.272384 
L 275.329464 81.272384 
L 275.329464 80.713202 
L 276.052683 80.713202 
L 276.052683 80.15402 
L 276.681302 80.15402 
L 276.681302 79.594837 
L 278.265524 79.594837 
L 278.376333 75.121379 
L 278.378595 75.121379 
L 278.457826 69.529557 
L 278.550905 69.529557 
L 278.620147 68.411192 
L 278.676344 68.411192 
L 278.676344 67.85201 
L 278.883862 67.85201 
L 278.968962 65.056099 
L 279.079186 65.056099 
L 279.086283 63.937735 
L 279.19341 63.937735 
L 279.288063 62.260188 
L 279.518225 62.260188 
L 279.606492 61.141823 
L 279.63981 61.141823 
L 279.63981 60.023459 
L 279.821414 60.023459 
L 279.83001 58.905094 
L 279.950975 58.905094 
L 279.950975 58.345912 
L 280.066842 58.345912 
L 280.082259 57.227548 
L 280.19096 57.227548 
L 280.19096 56.668365 
L 280.30983 56.668365 
L 280.334027 55.550001 
L 280.503772 55.550001 
L 280.516507 53.872454 
L 280.639018 53.872454 
L 280.639018 52.75409 
L 281.565355 52.75409 
L 281.565355 52.194907 
L 281.87406 52.194907 
L 281.87406 51.635725 
L 282.635111 51.635725 
L 282.635111 51.076543 
L 282.898322 51.076543 
L 282.898322 50.517361 
L 283.260652 50.517361 
L 283.351673 49.398996 
L 285.18381 49.398996 
L 285.28579 42.129627 
L 285.298721 42.129627 
L 285.298721 41.570445 
L 285.425682 41.570445 
L 285.524204 39.892898 
L 285.547787 39.892898 
L 285.570593 38.774534 
L 285.789919 38.774534 
L 285.851107 37.096987 
L 285.92852 37.096987 
L 285.985183 35.978622 
L 286.384772 35.978622 
L 286.495224 34.301076 
L 286.581737 34.301076 
L 286.581737 33.741894 
L 287.145353 33.741894 
L 287.145353 33.182711 
L 287.46407 33.182711 
L 287.46407 32.064347 
L 287.580041 32.064347 
L 287.580041 31.505165 
L 288.946786 31.505165 
L 289.005478 30.3868 
L 289.304433 30.3868 
L 289.304433 29.827618 
L 290.115299 29.827618 
L 290.15733 27.590889 
L 290.252982 27.590889 
L 290.291216 26.472524 
L 290.368186 26.472524 
L 290.448748 24.794978 
L 290.497485 24.794978 
L 290.505845 23.676613 
L 290.883699 23.676613 
L 290.883699 23.117431 
L 291.318375 23.117431 
L 291.423117 21.999066 
L 291.72899 21.999066 
L 291.72899 21.439884 
L 291.925573 21.439884 
L 291.925573 20.880702 
L 292.044178 20.880702 
L 292.044178 20.32152 
L 293.94351 20.32152 
L 293.94351 19.762337 
L 294.206494 19.762337 
L 294.206494 19.203155 
L 294.323871 19.203155 
L 294.323871 18.643973 
L 294.843709 18.643973 
L 294.843709 18.084791 
L 294.96161 18.084791 
L 294.96161 17.525609 
L 295.307683 17.525609 
L 295.355438 16.407244 
L 295.637897 16.407244 
L 295.747065 15.28888 
L 296.334957 15.28888 
L 296.334957 14.729697 
L 297.211916 14.729697 
L 297.211916 14.170515 
L 297.793707 14.170515 
L 297.793707 13.611333 
L 297.953466 13.611333 
L 297.953466 13.052151 
L 299.999116 13.052151 
L 299.999116 12.492968 
L 302.276475 12.492968 
L 302.276475 11.933786 
L 303.24232 11.933786 
L 303.24232 11.374604 
L 303.984258 11.374604 
L 303.984258 10.815422 
L 306.015498 10.815422 
L 306.015498 10.256239 
L 307.572568 10.256239 
L 307.572568 9.697057 
L 333.429677 9.697057 
L 333.429677 9.697057 
" style="fill:none;stroke:#ff00ff;stroke-linecap:square;stroke-width:1.5;"/>
   </g>
   <g id="line2d_30">
    <defs>
     <path d="M -0 8.485281 
L 5.091169 0 
L 0 -8.485281 
L -5.091169 -0 
z
" id="m7cea9bb3a8" style="stroke:#ff00ff;stroke-linejoin:miter;stroke-width:1.5;"/>
    </defs>
    <g>
     <use style="fill-opacity:0;stroke:#ff00ff;stroke-linejoin:miter;stroke-width:1.5;" x="73.834464" xlink:href="#m7cea9bb3a8" y="255.737243"/>
     <use style="fill-opacity:0;stroke:#ff00ff;stroke-linejoin:miter;stroke-width:1.5;" x="167.353092" xlink:href="#m7cea9bb3a8" y="229.455678"/>
     <use style="fill-opacity:0;stroke:#ff00ff;stroke-linejoin:miter;stroke-width:1.5;" x="214.604681" xlink:href="#m7cea9bb3a8" y="177.451729"/>
     <use style="fill-opacity:0;stroke:#ff00ff;stroke-linejoin:miter;stroke-width:1.5;" x="272.871725" xlink:href="#m7cea9bb3a8" y="86.305024"/>
     <use style="fill-opacity:0;stroke:#ff00ff;stroke-linejoin:miter;stroke-width:1.5;" x="307.572568" xlink:href="#m7cea9bb3a8" y="9.697057"/>
     <use style="fill-opacity:0;stroke:#ff00ff;stroke-linejoin:miter;stroke-width:1.5;" x="333.429677" xlink:href="#m7cea9bb3a8" y="9.697057"/>
    </g>
   </g>
   <g id="line2d_31">
    <path style="fill:none;stroke:#ff00ff;stroke-linecap:square;stroke-width:1.5;"/>
    <g/>
   </g>
   <g id="line2d_32">
    <path clip-path="url(#pb668777d92)" d="M 266.123863 128.802874 
" style="fill:none;stroke:#ff00ff;stroke-linecap:square;stroke-width:1.5;"/>
    <defs>
     <path d="M -12 12 
L 12 -12 
M -12 -12 
L 12 12 
" id="m92dedd405a" style="stroke:#ff00ff;stroke-width:3;"/>
    </defs>
    <g clip-path="url(#pb668777d92)">
     <use style="fill:#ff00ff;stroke:#ff00ff;stroke-width:3;" x="266.123863" xlink:href="#m92dedd405a" y="128.802874"/>
    </g>
   </g>
   <g id="line2d_33">
    <defs>
     <path d="M 0 1.5 
C 0.397805 1.5 0.77937 1.341951 1.06066 1.06066 
C 1.341951 0.77937 1.5 0.397805 1.5 0 
C 1.5 -0.397805 1.341951 -0.77937 1.06066 -1.06066 
C 0.77937 -1.341951 0.397805 -1.5 0 -1.5 
C -0.397805 -1.5 -0.77937 -1.341951 -1.06066 -1.06066 
C -1.341951 -0.77937 -1.5 -0.397805 -1.5 0 
C -1.5 0.397805 -1.341951 0.77937 -1.06066 1.06066 
C -0.77937 1.341951 -0.397805 1.5 0 1.5 
z
" id="m4ffbedb709" style="stroke:#ffa500;"/>
    </defs>
    <g>
     <use style="fill:#ffa500;stroke:#ffa500;" x="293.989608" xlink:href="#m4ffbedb709" y="9.697057"/>
     <use style="fill:#ffa500;stroke:#ffa500;" x="293.989608" xlink:href="#m4ffbedb709" y="9.697057"/>
    </g>
   </g>
   <g id="line2d_34">
    <path d="M 40.355341 294.88 
L 40.355341 285.373902 
L 52.280845 285.373902 
L 52.280845 281.459626 
L 59.256818 281.459626 
L 59.256818 280.341262 
L 68.045504 280.341262 
L 68.045504 278.663715 
L 71.182322 278.663715 
L 71.182322 277.545351 
L 73.834464 277.545351 
L 73.834464 276.986168 
L 78.158295 276.986168 
L 78.158295 276.426986 
L 84.484951 276.426986 
L 84.484951 274.749439 
L 86.946982 274.749439 
L 86.946982 273.631075 
L 93.536312 273.631075 
L 93.536312 273.071893 
L 95.033331 273.071893 
L 95.033331 272.51271 
L 104.246851 272.51271 
L 104.246851 271.953528 
L 106.596615 271.953528 
L 106.596615 271.394346 
L 109.300972 271.394346 
L 109.300972 270.835164 
L 116.790561 270.835164 
L 116.790561 269.157617 
L 117.964074 269.157617 
L 117.964074 268.598435 
L 122.140223 268.598435 
L 122.140223 268.039252 
L 125.252304 268.039252 
L 125.252304 267.48007 
L 135.556566 267.48007 
L 135.556566 266.920888 
L 140.641569 266.920888 
L 140.641569 265.243341 
L 141.815083 265.243341 
L 141.815083 264.684159 
L 143.523496 264.684159 
L 143.523496 264.124977 
L 151.577717 264.124977 
L 151.577717 263.565795 
L 155.724963 263.565795 
L 155.724963 263.006612 
L 156.182124 263.006612 
L 156.182124 261.329066 
L 160.156092 261.329066 
L 160.156092 260.769883 
L 160.478592 260.769883 
L 160.478592 260.210701 
L 161.829891 260.210701 
L 161.829891 257.41479 
L 166.258421 257.41479 
L 166.258421 256.855608 
L 169.084195 256.855608 
L 169.084195 256.296425 
L 169.457916 256.296425 
L 169.457916 255.737243 
L 170.577177 255.737243 
L 170.577177 254.618879 
L 170.928847 254.618879 
L 170.928847 254.059696 
L 171.711408 254.059696 
L 171.711408 252.38215 
L 173.479993 252.38215 
L 173.479993 250.704603 
L 174.626441 250.704603 
L 174.626441 249.586238 
L 178.91592 249.586238 
L 178.91592 247.908692 
L 179.117149 247.908692 
L 179.117149 247.34951 
L 179.289306 247.34951 
L 179.289306 246.790327 
L 182.319626 246.790327 
L 182.319626 246.231145 
L 183.151999 246.231145 
L 183.151999 245.112781 
L 185.360419 245.112781 
L 185.360419 243.994416 
L 185.484101 243.994416 
L 185.484101 243.435234 
L 186.435731 243.435234 
L 186.435731 241.757687 
L 187.056888 241.757687 
L 187.056888 239.520958 
L 187.517595 239.520958 
L 187.517595 238.961776 
L 188.814641 238.961776 
L 188.814641 238.402594 
L 189.478654 238.402594 
L 189.478654 237.843411 
L 189.902693 237.843411 
L 189.902693 237.284229 
L 190.083723 237.284229 
L 190.160728 235.606682 
L 190.322171 235.606682 
L 190.386888 233.369954 
L 190.985786 233.369954 
L 190.985786 232.810771 
L 191.268259 232.810771 
L 191.268259 232.251589 
L 191.754936 232.251589 
L 191.754936 230.574042 
L 193.81794 230.574042 
L 193.81794 230.01486 
L 194.073711 230.01486 
L 194.143838 228.337313 
L 194.209183 228.337313 
L 194.227166 225.541402 
L 194.461462 225.541402 
L 194.556498 224.423038 
L 194.731926 224.423038 
L 194.731926 223.863855 
L 194.901262 223.863855 
L 194.901262 223.304673 
L 195.243488 223.304673 
L 195.336419 222.186309 
L 195.635025 222.186309 
L 195.676377 219.390397 
L 195.844893 219.390397 
L 195.844893 218.831215 
L 196.316896 218.831215 
L 196.316896 218.272033 
L 196.897913 218.272033 
L 196.897913 217.153669 
L 197.244498 217.153669 
L 197.282161 214.91694 
L 197.357243 214.91694 
L 197.364733 213.239393 
L 198.047439 213.239393 
L 198.047439 212.121028 
L 198.308151 212.121028 
L 198.308151 211.002664 
L 198.438799 211.002664 
L 198.438799 210.443482 
L 199.168833 210.443482 
L 199.168833 209.325117 
L 199.368277 209.325117 
L 199.368277 208.765935 
L 200.237436 208.765935 
L 200.262765 205.970024 
L 200.402982 205.970024 
L 200.402982 205.410841 
L 200.546735 205.410841 
L 200.588696 204.292477 
L 200.775497 204.292477 
L 200.809244 203.174112 
L 200.91466 203.174112 
L 200.91466 202.61493 
L 201.066299 202.61493 
L 201.066299 201.496566 
L 201.265931 201.496566 
L 201.265931 200.378201 
L 201.608709 200.378201 
L 201.630639 198.700655 
L 201.768878 198.700655 
L 201.844078 197.58229 
L 202.411806 197.58229 
L 202.411806 196.463926 
L 202.662673 196.463926 
L 202.761457 194.786379 
L 202.88007 194.786379 
L 202.98302 192.54965 
L 203.129606 192.54965 
L 203.129606 191.990468 
L 203.366331 191.990468 
L 203.423032 190.312921 
L 203.631087 190.312921 
L 203.631087 189.194556 
L 203.881579 189.194556 
L 203.881579 188.076192 
L 204.320725 188.076192 
L 204.429093 185.839463 
L 204.731869 185.839463 
L 204.731869 185.280281 
L 205.253377 185.280281 
L 205.35016 181.366005 
L 205.446401 181.366005 
L 205.544435 179.129276 
L 205.971993 179.129276 
L 205.971993 176.333365 
L 206.1043 176.333365 
L 206.191942 172.419089 
L 206.221057 172.419089 
L 206.270217 170.741543 
L 206.618115 170.741543 
L 206.72167 167.386449 
L 206.76075 167.386449 
L 206.835405 166.268085 
L 206.991243 166.268085 
L 207.092583 165.14972 
L 207.408742 165.14972 
L 207.432742 162.353809 
L 207.556388 162.353809 
L 207.601882 160.11708 
L 207.702778 160.11708 
L 207.702778 158.998715 
L 207.882508 158.998715 
L 207.883524 156.202804 
L 208.035225 156.202804 
L 208.035225 155.643622 
L 208.267254 155.643622 
L 208.267254 153.406893 
L 208.379145 153.406893 
L 208.466762 151.170164 
L 208.614402 151.170164 
L 208.666894 149.492617 
L 208.749198 149.492617 
L 208.749198 148.933435 
L 208.863766 148.933435 
L 208.916461 147.815071 
L 209.050819 147.815071 
L 209.073584 146.696706 
L 209.19261 146.696706 
L 209.297724 144.459977 
L 209.574315 144.459977 
L 209.574315 143.900795 
L 209.699995 143.900795 
L 209.799338 142.78243 
L 209.862835 142.78243 
L 209.922489 140.545702 
L 210.126099 140.545702 
L 210.151048 139.427337 
L 210.355507 139.427337 
L 210.355507 137.190608 
L 210.52623 137.190608 
L 210.52623 136.631426 
L 210.699589 136.631426 
L 210.699589 136.072244 
L 210.919822 136.072244 
L 211.019157 134.394697 
L 211.260423 134.394697 
L 211.338714 131.598786 
L 211.379385 131.598786 
L 211.464564 129.362057 
L 211.562452 129.362057 
L 211.562452 128.802874 
L 211.702961 128.802874 
L 211.702961 127.68451 
L 211.829414 127.68451 
L 211.829414 127.125328 
L 211.945321 127.125328 
L 212.0469 122.092688 
L 212.135194 122.092688 
L 212.135194 121.533505 
L 212.288429 121.533505 
L 212.367669 119.855959 
L 212.423935 119.855959 
L 212.466792 115.941683 
L 212.741644 115.941683 
L 212.850823 113.704954 
L 212.905533 113.704954 
L 212.987274 109.790678 
L 213.262917 109.790678 
L 213.262917 106.994767 
L 213.491738 106.994767 
L 213.491738 105.876403 
L 213.702352 105.876403 
L 213.702352 104.758038 
L 213.926869 104.758038 
L 214.025248 100.843762 
L 214.063592 100.843762 
L 214.063592 97.488669 
L 214.336613 97.488669 
L 214.336613 96.929487 
L 214.492974 96.929487 
L 214.525458 95.811122 
L 214.800139 95.811122 
L 214.900419 94.133576 
L 215.045734 94.133576 
L 215.085882 93.015211 
L 215.359723 93.015211 
L 215.359723 92.456029 
L 215.661622 92.456029 
L 215.661622 91.896847 
L 215.778859 91.896847 
L 215.81221 90.2193 
L 215.9106 90.2193 
L 215.988148 87.423389 
L 216.390568 87.423389 
L 216.493723 86.305024 
L 216.611561 86.305024 
L 216.644558 84.627477 
L 216.76319 84.627477 
L 216.859318 79.594837 
L 217.299188 79.594837 
L 217.346138 77.358108 
L 217.520488 77.358108 
L 217.60614 75.680562 
L 217.721211 75.680562 
L 217.81614 73.443833 
L 217.840644 73.443833 
L 217.840644 72.88465 
L 218.108478 72.88465 
L 218.191816 71.207104 
L 218.368893 71.207104 
L 218.452631 70.088739 
L 218.560011 70.088739 
L 218.604738 68.970375 
L 219.050497 68.970375 
L 219.079666 65.056099 
L 219.671856 65.056099 
L 219.715829 63.378552 
L 219.976833 63.378552 
L 219.976833 62.260188 
L 220.37753 62.260188 
L 220.37753 61.701006 
L 221.467563 61.701006 
L 221.467563 61.141823 
L 221.594395 61.141823 
L 221.657918 60.023459 
L 266.379273 60.023459 
L 266.471512 58.345912 
L 266.49409 58.345912 
L 266.598509 54.431636 
L 266.61818 54.431636 
L 266.716432 46.603085 
L 266.73733 46.603085 
L 266.841707 41.011263 
L 266.851308 41.011263 
L 266.937152 37.096987 
L 266.979832 37.096987 
L 267.077022 31.505165 
L 267.096382 31.505165 
L 267.205816 26.472524 
L 267.208627 26.472524 
L 267.288305 23.676613 
L 278.31015 23.676613 
L 278.419612 21.439884 
L 278.423232 21.439884 
L 278.533467 15.848062 
L 278.542548 15.848062 
L 278.619465 12.492968 
L 278.679462 12.492968 
L 278.679462 11.933786 
L 285.272284 11.933786 
L 285.378474 10.815422 
L 285.383451 10.815422 
L 285.383451 10.256239 
L 293.989608 10.256239 
L 293.989608 9.697057 
L 333.429677 9.697057 
L 333.429677 9.697057 
" style="fill:none;stroke:#ffa500;stroke-linecap:square;stroke-width:1.5;"/>
   </g>
   <g id="line2d_35">
    <defs>
     <path d="M 0 -6 
L -1.347084 -1.854102 
L -5.706339 -1.854102 
L -2.179628 0.708204 
L -3.526712 4.854102 
L -0 2.291796 
L 3.526712 4.854102 
L 2.179628 0.708204 
L 5.706339 -1.854102 
L 1.347084 -1.854102 
z
" id="m50a04c769f" style="stroke:#ffa500;stroke-linejoin:bevel;stroke-width:1.5;"/>
    </defs>
    <g>
     <use style="fill-opacity:0;stroke:#ffa500;stroke-linejoin:bevel;stroke-width:1.5;" x="86.946982" xlink:href="#m50a04c769f" y="273.631075"/>
     <use style="fill-opacity:0;stroke:#ffa500;stroke-linejoin:bevel;stroke-width:1.5;" x="189.902693" xlink:href="#m50a04c769f" y="237.843411"/>
     <use style="fill-opacity:0;stroke:#ffa500;stroke-linejoin:bevel;stroke-width:1.5;" x="216.826127" xlink:href="#m50a04c769f" y="82.390748"/>
     <use style="fill-opacity:0;stroke:#ffa500;stroke-linejoin:bevel;stroke-width:1.5;" x="267.120364" xlink:href="#m50a04c769f" y="30.3868"/>
     <use style="fill-opacity:0;stroke:#ffa500;stroke-linejoin:bevel;stroke-width:1.5;" x="293.989608" xlink:href="#m50a04c769f" y="9.697057"/>
     <use style="fill-opacity:0;stroke:#ffa500;stroke-linejoin:bevel;stroke-width:1.5;" x="333.429677" xlink:href="#m50a04c769f" y="9.697057"/>
    </g>
   </g>
   <g id="line2d_36">
    <path style="fill:none;stroke:#ffa500;stroke-linecap:square;stroke-width:1.5;"/>
    <g/>
   </g>
   <g id="line2d_37">
    <path clip-path="url(#pb668777d92)" d="M 266.123863 60.023459 
" style="fill:none;stroke:#ffa500;stroke-linecap:square;stroke-width:1.5;"/>
    <defs>
     <path d="M -12 12 
L 12 -12 
M -12 -12 
L 12 12 
" id="m7c77c12738" style="stroke:#ffa500;stroke-width:3;"/>
    </defs>
    <g clip-path="url(#pb668777d92)">
     <use style="fill:#ffa500;stroke:#ffa500;stroke-width:3;" x="266.123863" xlink:href="#m7c77c12738" y="60.023459"/>
    </g>
   </g>
   <g id="line2d_38">
    <defs>
     <path d="M 0 1.5 
C 0.397805 1.5 0.77937 1.341951 1.06066 1.06066 
C 1.341951 0.77937 1.5 0.397805 1.5 0 
C 1.5 -0.397805 1.341951 -0.77937 1.06066 -1.06066 
C 0.77937 -1.341951 0.397805 -1.5 0 -1.5 
C -0.397805 -1.5 -0.77937 -1.341951 -1.06066 -1.06066 
C -1.341951 -0.77937 -1.5 -0.397805 -1.5 0 
C -1.5 0.397805 -1.341951 0.77937 -1.06066 1.06066 
C -0.77937 1.341951 -0.397805 1.5 0 1.5 
z
" id="m6da26b872f" style="stroke:#6495ed;"/>
    </defs>
    <g>
     <use style="fill:#6495ed;stroke:#6495ed;" x="219.433683" xlink:href="#m6da26b872f" y="9.697057"/>
     <use style="fill:#6495ed;stroke:#6495ed;" x="219.433683" xlink:href="#m6da26b872f" y="9.697057"/>
    </g>
   </g>
   <g id="line2d_39">
    <path d="M 40.355341 294.88 
L 40.355341 269.716799 
L 52.280845 269.716799 
L 52.280845 266.920888 
L 68.045504 266.920888 
L 68.045504 264.684159 
L 76.131854 264.684159 
L 76.131854 263.006612 
L 78.158295 263.006612 
L 78.158295 262.44743 
L 81.610808 262.44743 
L 81.610808 261.888248 
L 91.896513 261.888248 
L 91.896513 261.329066 
L 94.301099 261.329066 
L 94.301099 260.210701 
L 100.512285 260.210701 
L 100.512285 259.651519 
L 101.025901 259.651519 
L 101.025901 258.533154 
L 111.362135 258.533154 
L 111.362135 256.855608 
L 118.522119 256.855608 
L 118.522119 256.296425 
L 120.261464 256.296425 
L 120.261464 255.737243 
L 121.069353 255.737243 
L 121.069353 254.618879 
L 121.689415 254.618879 
L 121.689415 252.941332 
L 127.886754 252.941332 
L 127.886754 252.38215 
L 132.269486 252.38215 
L 132.269486 251.822967 
L 133.15198 251.822967 
L 133.15198 251.263785 
L 133.8418 251.263785 
L 133.8418 250.704603 
L 134.505025 250.704603 
L 134.505025 246.231145 
L 135.003752 246.231145 
L 135.003752 245.671963 
L 138.31524 245.671963 
L 138.31524 245.112781 
L 144.071065 245.112781 
L 144.071065 244.553598 
L 144.194991 244.553598 
L 144.194991 242.876052 
L 147.48207 242.876052 
L 147.48207 242.316869 
L 148.91664 242.316869 
L 148.91664 241.757687 
L 153.858349 241.757687 
L 153.858349 241.198505 
L 155.168539 241.198505 
L 155.168539 240.639323 
L 155.850853 240.639323 
L 155.850853 240.08014 
L 157.15869 240.08014 
L 157.15869 239.520958 
L 158.802012 239.520958 
L 158.802012 238.961776 
L 160.842144 238.961776 
L 160.842144 238.402594 
L 162.567046 238.402594 
L 162.567046 237.843411 
L 164.81839 237.843411 
L 164.81839 237.284229 
L 165.125958 237.284229 
L 165.125958 236.725047 
L 168.117879 236.725047 
L 168.117879 235.606682 
L 169.646464 235.606682 
L 169.646464 235.0475 
L 170.362672 235.0475 
L 170.362672 233.929136 
L 170.532709 233.929136 
L 170.532709 232.810771 
L 172.515558 232.810771 
L 172.515558 232.251589 
L 173.404796 232.251589 
L 173.404796 231.692407 
L 173.636843 231.692407 
L 173.636843 231.133225 
L 174.471314 231.133225 
L 174.471314 230.574042 
L 175.68145 230.574042 
L 175.68145 229.455678 
L 176.0149 229.455678 
L 176.0149 228.896496 
L 176.762505 228.896496 
L 176.762505 227.218949 
L 176.990387 227.218949 
L 177.094086 225.541402 
L 179.385393 225.541402 
L 179.385393 223.863855 
L 179.586498 223.863855 
L 179.586498 223.304673 
L 179.816457 223.304673 
L 179.816457 222.745491 
L 180.247114 222.745491 
L 180.247114 222.186309 
L 181.307419 222.186309 
L 181.307419 221.627126 
L 182.25667 221.627126 
L 182.25667 221.067944 
L 182.36893 221.067944 
L 182.36893 220.508762 
L 183.156275 220.508762 
L 183.156275 219.94958 
L 183.419338 219.94958 
L 183.419338 219.390397 
L 183.699166 219.390397 
L 183.699166 217.712851 
L 183.818889 217.712851 
L 183.818889 216.035304 
L 184.007101 216.035304 
L 184.007101 215.476122 
L 184.325607 215.476122 
L 184.325607 214.91694 
L 184.441063 214.91694 
L 184.441063 214.357757 
L 185.02235 214.357757 
L 185.117986 212.680211 
L 185.307678 212.680211 
L 185.307678 212.121028 
L 186.197339 212.121028 
L 186.268848 210.443482 
L 186.421591 210.443482 
L 186.421591 209.325117 
L 186.906267 209.325117 
L 186.906267 208.765935 
L 187.033014 208.765935 
L 187.033014 208.206753 
L 187.344178 208.206753 
L 187.344178 207.088388 
L 187.491029 207.088388 
L 187.491029 206.529206 
L 187.623451 206.529206 
L 187.623451 205.410841 
L 188.030821 205.410841 
L 188.030821 204.851659 
L 188.16556 204.851659 
L 188.16556 204.292477 
L 188.438206 204.292477 
L 188.438206 203.174112 
L 188.955615 203.174112 
L 189.037826 201.496566 
L 189.713898 201.496566 
L 189.713898 200.378201 
L 190.152189 200.378201 
L 190.157882 199.259837 
L 190.389696 199.259837 
L 190.389696 198.141472 
L 190.507231 198.141472 
L 190.507231 197.58229 
L 190.988499 197.58229 
L 190.988499 196.463926 
L 191.102027 196.463926 
L 191.102027 195.904743 
L 191.278928 195.904743 
L 191.278928 195.345561 
L 191.443468 195.345561 
L 191.443468 194.786379 
L 192.913393 194.786379 
L 192.913393 194.227197 
L 193.457579 194.227197 
L 193.565315 192.54965 
L 193.748779 192.54965 
L 193.748779 190.872103 
L 194.233905 190.872103 
L 194.272041 188.635374 
L 194.381491 188.635374 
L 194.461462 186.398645 
L 194.705725 186.398645 
L 194.775504 184.161916 
L 195.292129 184.161916 
L 195.292129 183.043552 
L 195.554099 183.043552 
L 195.554099 182.48437 
L 195.867373 182.48437 
L 195.867373 181.925187 
L 196.277057 181.925187 
L 196.277057 180.806823 
L 196.43389 180.806823 
L 196.43389 180.247641 
L 197.009123 180.247641 
L 197.011034 179.129276 
L 197.267106 179.129276 
L 197.267106 178.010912 
L 197.537966 178.010912 
L 197.626699 176.333365 
L 197.968087 176.333365 
L 197.968087 175.215 
L 198.217528 175.215 
L 198.325864 172.419089 
L 198.422962 172.419089 
L 198.422962 171.859907 
L 198.842083 171.859907 
L 198.842083 170.741543 
L 199.057211 170.741543 
L 199.094499 169.623178 
L 199.30484 169.623178 
L 199.30484 169.063996 
L 199.636127 169.063996 
L 199.636127 168.504814 
L 199.857813 168.504814 
L 199.925702 167.386449 
L 200.11661 167.386449 
L 200.197784 164.590538 
L 200.31962 164.590538 
L 200.31962 164.031356 
L 200.52961 164.031356 
L 200.534282 162.353809 
L 200.844455 162.353809 
L 200.844455 161.794627 
L 201.004289 161.794627 
L 201.004289 161.235444 
L 201.353752 161.235444 
L 201.448513 156.761987 
L 201.503059 156.761987 
L 201.577962 155.643622 
L 201.67587 155.643622 
L 201.67587 155.08444 
L 202.05205 155.08444 
L 202.143052 151.729346 
L 202.36987 151.729346 
L 202.374069 150.0518 
L 202.614447 150.0518 
L 202.614447 149.492617 
L 202.747771 149.492617 
L 202.812002 147.815071 
L 203.116209 147.815071 
L 203.116209 146.696706 
L 203.32004 146.696706 
L 203.32004 146.137524 
L 204.134792 146.137524 
L 204.143632 143.900795 
L 204.331967 143.900795 
L 204.421641 141.664066 
L 204.47745 141.664066 
L 204.587299 139.986519 
L 204.670759 139.986519 
L 204.775734 138.868155 
L 204.927181 138.868155 
L 205.028209 137.74979 
L 205.258111 137.74979 
L 205.358397 135.513061 
L 205.380734 135.513061 
L 205.380734 134.953879 
L 205.603684 134.953879 
L 205.712357 133.276332 
L 205.839805 133.276332 
L 205.864953 132.157968 
L 206.077243 132.157968 
L 206.077243 129.921239 
L 206.303655 129.921239 
L 206.398044 126.566145 
L 206.515032 126.566145 
L 206.539213 124.329417 
L 206.824606 124.329417 
L 206.824606 122.65187 
L 207.024377 122.65187 
L 207.090456 118.737594 
L 207.30505 118.737594 
L 207.30505 117.060047 
L 207.666812 117.060047 
L 207.666812 116.500865 
L 207.878444 116.500865 
L 207.878444 115.941683 
L 208.012051 115.941683 
L 208.012051 114.823318 
L 208.123605 114.823318 
L 208.12661 113.145772 
L 208.335663 113.145772 
L 208.335663 112.586589 
L 208.716324 112.586589 
L 208.807059 109.790678 
L 208.978529 109.790678 
L 209.053666 107.553949 
L 209.124696 107.553949 
L 209.216129 104.758038 
L 209.245247 104.758038 
L 209.245247 103.639674 
L 209.408709 103.639674 
L 209.408709 102.521309 
L 209.799338 102.521309 
L 209.799338 101.962127 
L 209.914366 101.962127 
L 209.914366 101.402945 
L 210.152829 101.402945 
L 210.187515 99.166216 
L 210.291157 99.166216 
L 210.399444 95.811122 
L 210.758136 95.811122 
L 210.831896 94.692758 
L 210.935992 94.692758 
L 210.935992 94.133576 
L 211.12213 94.133576 
L 211.185966 92.456029 
L 211.352835 92.456029 
L 211.352835 91.896847 
L 211.499999 91.896847 
L 211.563272 90.778482 
L 211.645915 90.778482 
L 211.733849 86.864206 
L 211.861689 86.864206 
L 211.861689 86.305024 
L 211.982983 86.305024 
L 212.084341 82.949931 
L 212.610942 82.949931 
L 212.687177 80.15402 
L 212.740878 80.15402 
L 212.846256 77.358108 
L 212.895668 77.358108 
L 212.950236 75.680562 
L 213.133136 75.680562 
L 213.154087 73.443833 
L 213.255485 73.443833 
L 213.285937 71.207104 
L 213.475599 71.207104 
L 213.572207 70.088739 
L 213.700179 70.088739 
L 213.753702 68.411192 
L 213.910418 68.411192 
L 214.019561 64.496917 
L 214.096188 64.496917 
L 214.096188 63.937735 
L 214.351964 63.937735 
L 214.406977 61.701006 
L 214.463201 61.701006 
L 214.555123 60.023459 
L 214.595744 60.023459 
L 214.595744 59.464277 
L 214.782461 59.464277 
L 214.874727 58.345912 
L 214.940234 58.345912 
L 214.940234 57.78673 
L 215.076522 57.78673 
L 215.181857 54.431636 
L 215.273334 54.431636 
L 215.3663 53.313272 
L 215.426688 53.313272 
L 215.496005 49.958178 
L 215.649983 49.958178 
L 215.708742 48.280632 
L 215.801955 48.280632 
L 215.90614 46.043903 
L 215.979267 46.043903 
L 216.088693 43.247992 
L 216.114525 43.247992 
L 216.172348 39.333716 
L 216.35708 39.333716 
L 216.35708 38.215351 
L 216.541692 38.215351 
L 216.640895 36.537805 
L 216.661643 36.537805 
L 216.661643 35.978622 
L 216.788029 35.978622 
L 216.892446 32.064347 
L 217.002213 32.064347 
L 217.054748 29.268436 
L 217.172963 29.268436 
L 217.232652 25.35416 
L 217.323266 25.35416 
L 217.323266 24.235795 
L 217.44257 24.235795 
L 217.44257 23.117431 
L 217.562789 23.117431 
L 217.645926 19.762337 
L 217.676425 19.762337 
L 217.676425 18.643973 
L 217.818991 18.643973 
L 217.83267 17.525609 
L 218.12529 17.525609 
L 218.171159 16.407244 
L 218.291958 16.407244 
L 218.291958 15.28888 
L 218.407507 15.28888 
L 218.495993 14.170515 
L 218.710093 14.170515 
L 218.717671 13.052151 
L 218.94561 13.052151 
L 219.002126 10.815422 
L 219.433683 10.815422 
L 219.433683 9.697057 
L 333.429677 9.697057 
L 333.429677 9.697057 
" style="fill:none;stroke:#6495ed;stroke-linecap:square;stroke-width:1.5;"/>
   </g>
   <g id="line2d_40">
    <defs>
     <path d="M -0 6 
L 6 -6 
L -6 -6 
z
" id="mc3938ca476" style="stroke:#6495ed;stroke-linejoin:miter;stroke-width:1.5;"/>
    </defs>
    <g>
     <use style="fill-opacity:0;stroke:#6495ed;stroke-linejoin:miter;stroke-width:1.5;" x="148.91664" xlink:href="#mc3938ca476" y="241.757687"/>
     <use style="fill-opacity:0;stroke:#6495ed;stroke-linejoin:miter;stroke-width:1.5;" x="200.154857" xlink:href="#mc3938ca476" y="166.827267"/>
     <use style="fill-opacity:0;stroke:#6495ed;stroke-linejoin:miter;stroke-width:1.5;" x="219.433683" xlink:href="#mc3938ca476" y="10.815422"/>
     <use style="fill-opacity:0;stroke:#6495ed;stroke-linejoin:miter;stroke-width:1.5;" x="219.433683" xlink:href="#mc3938ca476" y="9.697057"/>
     <use style="fill-opacity:0;stroke:#6495ed;stroke-linejoin:miter;stroke-width:1.5;" x="219.433683" xlink:href="#mc3938ca476" y="9.697057"/>
     <use style="fill-opacity:0;stroke:#6495ed;stroke-linejoin:miter;stroke-width:1.5;" x="333.429677" xlink:href="#mc3938ca476" y="9.697057"/>
    </g>
   </g>
   <g id="line2d_41">
    <path style="fill:none;stroke:#6495ed;stroke-linecap:square;stroke-width:1.5;"/>
    <g/>
   </g>
   <g id="line2d_42">
    <defs>
     <path d="M 0 1.5 
C 0.397805 1.5 0.77937 1.341951 1.06066 1.06066 
C 1.341951 0.77937 1.5 0.397805 1.5 0 
C 1.5 -0.397805 1.341951 -0.77937 1.06066 -1.06066 
C 0.77937 -1.341951 0.397805 -1.5 0 -1.5 
C -0.397805 -1.5 -0.77937 -1.341951 -1.06066 -1.06066 
C -1.341951 -0.77937 -1.5 -0.397805 -1.5 0 
C -1.5 0.397805 -1.341951 0.77937 -1.06066 1.06066 
C -0.77937 1.341951 -0.397805 1.5 0 1.5 
z
" id="mef3c85acf2" style="stroke:#ff0000;"/>
    </defs>
    <g>
     <use style="fill:#ff0000;stroke:#ff0000;" x="320.816511" xlink:href="#mef3c85acf2" y="9.697057"/>
     <use style="fill:#ff0000;stroke:#ff0000;" x="320.816511" xlink:href="#mef3c85acf2" y="9.697057"/>
    </g>
   </g>
   <g id="line2d_43">
    <path d="M 40.355341 294.88 
L 40.355341 293.761636 
L 59.256818 293.761636 
L 59.256818 293.202453 
L 64.20635 293.202453 
L 64.20635 291.524907 
L 73.834464 291.524907 
L 73.834464 289.84736 
L 76.131854 289.84736 
L 76.131854 288.728995 
L 85.759969 288.728995 
L 85.759969 288.169813 
L 90.0838 288.169813 
L 90.0838 287.610631 
L 96.410455 287.610631 
L 96.410455 287.051449 
L 121.536482 287.051449 
L 121.536482 286.492266 
L 125.252304 286.492266 
L 125.252304 285.933084 
L 128.202449 285.933084 
L 128.306406 284.255537 
L 131.076592 284.255537 
L 131.076592 283.696355 
L 131.937015 283.696355 
L 131.937015 282.577991 
L 138.99671 282.577991 
L 138.99671 282.018808 
L 141.091069 282.018808 
L 141.091069 280.900444 
L 144.561499 280.900444 
L 144.561499 280.341262 
L 145.038338 280.341262 
L 145.038338 279.782079 
L 147.818771 279.782079 
L 147.818771 279.222897 
L 148.40871 279.222897 
L 148.40871 278.104533 
L 151.948869 278.104533 
L 151.948869 276.986168 
L 152.286484 276.986168 
L 152.286484 275.867804 
L 156.983427 275.867804 
L 156.983427 275.308622 
L 158.009186 275.308622 
L 158.009186 274.749439 
L 163.703048 274.749439 
L 163.703048 273.631075 
L 164.108811 273.631075 
L 164.108811 273.071893 
L 167.994472 273.071893 
L 167.994472 272.51271 
L 172.138472 272.51271 
L 172.138472 271.953528 
L 172.356105 271.953528 
L 172.356105 271.394346 
L 172.720662 271.394346 
L 172.720662 270.835164 
L 173.321699 270.835164 
L 173.321699 269.716799 
L 174.228787 269.716799 
L 174.235969 268.598435 
L 175.621928 268.598435 
L 175.621928 268.039252 
L 176.443365 268.039252 
L 176.443365 267.48007 
L 176.781095 267.48007 
L 176.781095 266.361706 
L 177.679993 266.361706 
L 177.679993 265.802523 
L 178.673516 265.802523 
L 178.673516 265.243341 
L 181.388159 265.243341 
L 181.388159 264.124977 
L 182.198004 264.124977 
L 182.198004 263.565795 
L 182.36893 263.565795 
L 182.36893 263.006612 
L 182.705769 263.006612 
L 182.705769 262.44743 
L 183.061954 262.44743 
L 183.061954 261.888248 
L 183.810659 261.888248 
L 183.810659 261.329066 
L 184.112578 261.329066 
L 184.112578 260.769883 
L 185.379216 260.769883 
L 185.379216 260.210701 
L 186.414517 260.210701 
L 186.414517 259.651519 
L 186.833913 259.651519 
L 186.833913 257.973972 
L 187.616854 257.973972 
L 187.616854 257.41479 
L 189.416366 257.41479 
L 189.416366 256.296425 
L 191.619525 256.296425 
L 191.619525 255.178061 
L 193.427009 255.178061 
L 193.47167 254.059696 
L 196.587347 254.059696 
L 196.68695 251.263785 
L 197.377833 251.263785 
L 197.41334 249.027056 
L 197.810102 249.027056 
L 197.810102 248.467874 
L 197.922837 248.467874 
L 197.922837 247.908692 
L 198.056433 247.908692 
L 198.131799 246.790327 
L 198.277996 246.790327 
L 198.277996 246.231145 
L 198.487976 246.231145 
L 198.487976 245.671963 
L 199.182313 245.671963 
L 199.205879 243.994416 
L 199.599996 243.994416 
L 199.599996 243.435234 
L 200.919229 243.435234 
L 201.022461 239.520958 
L 201.052706 239.520958 
L 201.052706 238.961776 
L 201.258467 238.961776 
L 201.258467 237.843411 
L 201.917514 237.843411 
L 201.917514 236.725047 
L 203.205766 236.725047 
L 203.257682 234.488318 
L 203.659677 234.488318 
L 203.662274 232.810771 
L 203.913595 232.810771 
L 203.913595 232.251589 
L 204.096857 232.251589 
L 204.096857 231.692407 
L 204.540483 231.692407 
L 204.556514 230.574042 
L 205.010212 230.574042 
L 205.098817 228.337313 
L 205.341919 228.337313 
L 205.406562 227.218949 
L 205.738843 227.218949 
L 205.738843 226.100584 
L 205.909444 226.100584 
L 205.909444 225.541402 
L 206.674875 225.541402 
L 206.674875 224.98222 
L 207.014764 224.98222 
L 207.014764 223.304673 
L 207.219745 223.304673 
L 207.219745 222.745491 
L 207.396206 222.745491 
L 207.396206 222.186309 
L 208.065406 222.186309 
L 208.142628 221.067944 
L 208.187597 221.067944 
L 208.24638 219.390397 
L 208.476578 219.390397 
L 208.476578 218.831215 
L 208.805133 218.831215 
L 208.806096 217.712851 
L 208.968041 217.712851 
L 208.968041 216.594486 
L 209.296789 216.594486 
L 209.296789 216.035304 
L 209.74199 216.035304 
L 209.74199 214.91694 
L 210.234541 214.91694 
L 210.234541 214.357757 
L 210.607927 214.357757 
L 210.6469 210.443482 
L 210.836174 210.443482 
L 210.836174 209.325117 
L 211.019157 209.325117 
L 211.019157 207.088388 
L 212.502555 207.088388 
L 212.519632 205.410841 
L 212.76843 205.410841 
L 212.76843 204.292477 
L 213.633403 204.292477 
L 213.633403 203.174112 
L 213.812098 203.174112 
L 213.812098 201.496566 
L 214.583361 201.496566 
L 214.583361 200.937384 
L 215.55399 200.937384 
L 215.59362 199.819019 
L 216.600548 199.819019 
L 216.600548 199.259837 
L 216.811623 199.259837 
L 216.811623 198.141472 
L 266.424846 198.141472 
L 266.518758 192.54965 
L 266.545103 192.54965 
L 266.653418 186.398645 
L 266.658722 186.398645 
L 266.745198 172.978271 
L 266.779349 172.978271 
L 266.870462 164.031356 
L 266.919255 164.031356 
L 267.012801 159.557898 
L 278.230813 159.557898 
L 278.337023 146.696706 
L 278.343671 146.696706 
L 278.450584 126.566145 
L 278.45581 126.566145 
L 278.526339 122.092688 
L 285.144956 122.092688 
L 285.251954 100.843762 
L 285.256878 100.843762 
L 285.344786 93.574393 
L 290.062633 93.574393 
L 290.16458 79.594837 
L 290.194715 79.594837 
L 290.201449 77.917291 
L 293.884271 77.917291 
L 293.983885 65.615281 
L 297.009322 65.615281 
L 297.105996 53.313272 
L 299.655023 53.313272 
L 299.720096 44.925538 
L 301.961911 44.925538 
L 302.013777 38.215351 
L 303.980104 38.215351 
L 304.027887 34.301076 
L 305.780684 34.301076 
L 305.83052 28.709253 
L 307.414851 28.709253 
L 307.448489 25.35416 
L 308.914301 25.35416 
L 308.93037 23.676613 
L 310.305915 23.676613 
L 310.312068 22.558249 
L 311.570699 22.558249 
L 311.59159 19.762337 
L 312.744416 19.762337 
L 312.764809 18.084791 
L 313.850309 18.084791 
L 313.865378 14.729697 
L 314.895717 14.729697 
L 314.9209 13.052151 
L 315.900049 13.052151 
L 315.900049 12.492968 
L 316.81173 12.492968 
L 316.81173 11.933786 
L 317.687629 11.933786 
L 317.687629 11.374604 
L 319.328454 11.374604 
L 319.328454 10.815422 
L 320.105347 10.815422 
L 320.105347 10.256239 
L 320.816511 10.256239 
L 320.816511 9.697057 
L 333.429677 9.697057 
L 333.429677 9.697057 
" style="fill:none;stroke:#ff0000;stroke-linecap:square;stroke-width:1.5;"/>
   </g>
   <g id="line2d_44">
    <defs>
     <path d="M 0 -6 
L -5.196152 -3 
L -5.196152 3 
L -0 6 
L 5.196152 3 
L 5.196152 -3 
z
" id="m963a6ccfdc" style="stroke:#ff0000;stroke-linejoin:miter;stroke-width:1.5;"/>
    </defs>
    <g>
     <use style="fill-opacity:0;stroke:#ff0000;stroke-linejoin:miter;stroke-width:1.5;" x="90.0838" xlink:href="#m963a6ccfdc" y="287.610631"/>
     <use style="fill-opacity:0;stroke:#ff0000;stroke-linejoin:miter;stroke-width:1.5;" x="184.112578" xlink:href="#m963a6ccfdc" y="261.329066"/>
     <use style="fill-opacity:0;stroke:#ff0000;stroke-linejoin:miter;stroke-width:1.5;" x="216.811623" xlink:href="#m963a6ccfdc" y="198.141472"/>
     <use style="fill-opacity:0;stroke:#ff0000;stroke-linejoin:miter;stroke-width:1.5;" x="293.90632" xlink:href="#m963a6ccfdc" y="74.562197"/>
     <use style="fill-opacity:0;stroke:#ff0000;stroke-linejoin:miter;stroke-width:1.5;" x="320.816511" xlink:href="#m963a6ccfdc" y="9.697057"/>
     <use style="fill-opacity:0;stroke:#ff0000;stroke-linejoin:miter;stroke-width:1.5;" x="333.429677" xlink:href="#m963a6ccfdc" y="9.697057"/>
    </g>
   </g>
   <g id="line2d_45">
    <path style="fill:none;stroke:#ff0000;stroke-linecap:square;stroke-width:1.5;"/>
    <g/>
   </g>
   <g id="line2d_46">
    <path clip-path="url(#pb668777d92)" d="M 266.123863 198.141472 
" style="fill:none;stroke:#ff0000;stroke-linecap:square;stroke-width:1.5;"/>
    <defs>
     <path d="M -12 12 
L 12 -12 
M -12 -12 
L 12 12 
" id="md478c0641e" style="stroke:#ff0000;stroke-width:3;"/>
    </defs>
    <g clip-path="url(#pb668777d92)">
     <use style="fill:#ff0000;stroke:#ff0000;stroke-width:3;" x="266.123863" xlink:href="#md478c0641e" y="198.141472"/>
    </g>
   </g>
   <g id="line2d_47">
    <path d="M 333.429677 11.933786 
L 363.933742 289.176341 
" style="fill:none;stroke:#000080;stroke-linecap:square;stroke-width:1.5;"/>
    <g>
     <use style="fill-opacity:0;stroke:#000080;stroke-width:1.5;" x="333.429677" xlink:href="#m6c36e7c989" y="11.933786"/>
     <use style="fill-opacity:0;stroke:#000080;stroke-width:1.5;" x="363.933742" xlink:href="#m6c36e7c989" y="289.176341"/>
    </g>
   </g>
   <g id="line2d_48">
    <path d="M 333.429677 9.697057 
L 363.933742 220.732435 
" style="fill:none;stroke:#ff0000;stroke-linecap:square;stroke-width:1.5;"/>
    <g>
     <use style="fill-opacity:0;stroke:#ff0000;stroke-linejoin:miter;stroke-width:1.5;" x="333.429677" xlink:href="#m963a6ccfdc" y="9.697057"/>
     <use style="fill-opacity:0;stroke:#ff0000;stroke-linejoin:miter;stroke-width:1.5;" x="363.933742" xlink:href="#m963a6ccfdc" y="220.732435"/>
    </g>
   </g>
   <g id="line2d_49">
    <path d="M 333.429677 9.697057 
L 363.933742 152.288529 
" style="fill:none;stroke:#ff00ff;stroke-linecap:square;stroke-width:1.5;"/>
    <g>
     <use style="fill-opacity:0;stroke:#ff00ff;stroke-linejoin:miter;stroke-width:1.5;" x="333.429677" xlink:href="#m7cea9bb3a8" y="9.697057"/>
     <use style="fill-opacity:0;stroke:#ff00ff;stroke-linejoin:miter;stroke-width:1.5;" x="363.933742" xlink:href="#m7cea9bb3a8" y="152.288529"/>
    </g>
   </g>
   <g id="line2d_50">
    <path d="M 333.429677 9.697057 
L 363.933742 83.844622 
" style="fill:none;stroke:#ffa500;stroke-linecap:square;stroke-width:1.5;"/>
    <g>
     <use style="fill-opacity:0;stroke:#ffa500;stroke-linejoin:bevel;stroke-width:1.5;" x="333.429677" xlink:href="#m50a04c769f" y="9.697057"/>
     <use style="fill-opacity:0;stroke:#ffa500;stroke-linejoin:bevel;stroke-width:1.5;" x="363.933742" xlink:href="#m50a04c769f" y="83.844622"/>
    </g>
   </g>
   <g id="line2d_51">
    <path d="M 333.429677 9.697057 
L 363.933742 15.400716 
" style="fill:none;stroke:#6495ed;stroke-linecap:square;stroke-width:1.5;"/>
    <g>
     <use style="fill-opacity:0;stroke:#6495ed;stroke-linejoin:miter;stroke-width:1.5;" x="333.429677" xlink:href="#mc3938ca476" y="9.697057"/>
     <use style="fill-opacity:0;stroke:#6495ed;stroke-linejoin:miter;stroke-width:1.5;" x="363.933742" xlink:href="#mc3938ca476" y="15.400716"/>
    </g>
   </g>
   <g id="line2d_52">
    <path d="M 333.429677 294.88 
L 333.429677 9.697057 
" style="fill:none;stroke:#000000;stroke-linecap:square;stroke-width:1.5;"/>
   </g>
   <g id="patch_3">
    <path d="M 56.12 294.88 
L 56.12 6.845228 
" style="fill:none;stroke:#000000;stroke-linecap:square;stroke-linejoin:miter;stroke-width:0.8;"/>
   </g>
   <g id="patch_4">
    <path d="M 399.984 294.88 
L 399.984 6.845228 
" style="fill:none;stroke:#000000;stroke-linecap:square;stroke-linejoin:miter;stroke-width:0.8;"/>
   </g>
   <g id="patch_5">
    <path d="M 56.12 294.88 
L 399.984 294.88 
" style="fill:none;stroke:#000000;stroke-linecap:square;stroke-linejoin:miter;stroke-width:0.8;"/>
   </g>
   <g id="patch_6">
    <path d="M 56.12 6.845228 
L 399.984 6.845228 
" style="fill:none;stroke:#000000;stroke-linecap:square;stroke-linejoin:miter;stroke-width:0.8;"/>
   </g>
   <g id="text_14">
    <!-- f18 -->
    <g transform="translate(369.479935 293.867279)scale(0.17 -0.17)">
     <use xlink:href="#DejaVuSans-66"/>
     <use x="35.205078" xlink:href="#DejaVuSans-31"/>
     <use x="98.828125" xlink:href="#DejaVuSans-38"/>
    </g>
   </g>
   <g id="text_15">
    <!-- f15 -->
    <defs>
     <path d="M 10.796875 72.90625 
L 49.515625 72.90625 
L 49.515625 64.59375 
L 19.828125 64.59375 
L 19.828125 46.734375 
Q 21.96875 47.46875 24.109375 47.828125 
Q 26.265625 48.1875 28.421875 48.1875 
Q 40.625 48.1875 47.75 41.5 
Q 54.890625 34.8125 54.890625 23.390625 
Q 54.890625 11.625 47.5625 5.09375 
Q 40.234375 -1.421875 26.90625 -1.421875 
Q 22.3125 -1.421875 17.546875 -0.640625 
Q 12.796875 0.140625 7.71875 1.703125 
L 7.71875 11.625 
Q 12.109375 9.234375 16.796875 8.0625 
Q 21.484375 6.890625 26.703125 6.890625 
Q 35.15625 6.890625 40.078125 11.328125 
Q 45.015625 15.765625 45.015625 23.390625 
Q 45.015625 31 40.078125 35.4375 
Q 35.15625 39.890625 26.703125 39.890625 
Q 22.75 39.890625 18.8125 39.015625 
Q 14.890625 38.140625 10.796875 36.28125 
z
" id="DejaVuSans-35"/>
    </defs>
    <g transform="translate(369.479935 225.423372)scale(0.17 -0.17)">
     <use xlink:href="#DejaVuSans-66"/>
     <use x="35.205078" xlink:href="#DejaVuSans-31"/>
     <use x="98.828125" xlink:href="#DejaVuSans-35"/>
    </g>
   </g>
   <g id="text_16">
    <!-- f19 -->
    <defs>
     <path d="M 10.984375 1.515625 
L 10.984375 10.5 
Q 14.703125 8.734375 18.5 7.8125 
Q 22.3125 6.890625 25.984375 6.890625 
Q 35.75 6.890625 40.890625 13.453125 
Q 46.046875 20.015625 46.78125 33.40625 
Q 43.953125 29.203125 39.59375 26.953125 
Q 35.25 24.703125 29.984375 24.703125 
Q 19.046875 24.703125 12.671875 31.3125 
Q 6.296875 37.9375 6.296875 49.421875 
Q 6.296875 60.640625 12.9375 67.421875 
Q 19.578125 74.21875 30.609375 74.21875 
Q 43.265625 74.21875 49.921875 64.515625 
Q 56.59375 54.828125 56.59375 36.375 
Q 56.59375 19.140625 48.40625 8.859375 
Q 40.234375 -1.421875 26.421875 -1.421875 
Q 22.703125 -1.421875 18.890625 -0.6875 
Q 15.09375 0.046875 10.984375 1.515625 
z
M 30.609375 32.421875 
Q 37.25 32.421875 41.125 36.953125 
Q 45.015625 41.5 45.015625 49.421875 
Q 45.015625 57.28125 41.125 61.84375 
Q 37.25 66.40625 30.609375 66.40625 
Q 23.96875 66.40625 20.09375 61.84375 
Q 16.21875 57.28125 16.21875 49.421875 
Q 16.21875 41.5 20.09375 36.953125 
Q 23.96875 32.421875 30.609375 32.421875 
z
" id="DejaVuSans-39"/>
    </defs>
    <g transform="translate(369.479935 156.979466)scale(0.17 -0.17)">
     <use xlink:href="#DejaVuSans-66"/>
     <use x="35.205078" xlink:href="#DejaVuSans-31"/>
     <use x="98.828125" xlink:href="#DejaVuSans-39"/>
    </g>
   </g>
   <g id="text_17">
    <!-- f16 -->
    <g transform="translate(369.479935 88.53556)scale(0.17 -0.17)">
     <use xlink:href="#DejaVuSans-66"/>
     <use x="35.205078" xlink:href="#DejaVuSans-31"/>
     <use x="98.828125" xlink:href="#DejaVuSans-36"/>
    </g>
   </g>
   <g id="text_18">
    <!-- f17 -->
    <defs>
     <path d="M 8.203125 72.90625 
L 55.078125 72.90625 
L 55.078125 68.703125 
L 28.609375 0 
L 18.3125 0 
L 43.21875 64.59375 
L 8.203125 64.59375 
z
" id="DejaVuSans-37"/>
    </defs>
    <g transform="translate(369.479935 20.091654)scale(0.17 -0.17)">
     <use xlink:href="#DejaVuSans-66"/>
     <use x="35.205078" xlink:href="#DejaVuSans-31"/>
     <use x="98.828125" xlink:href="#DejaVuSans-37"/>
    </g>
   </g>
   <g id="text_19">
    <!-- bbob -->
    <defs>
     <path d="M 48.6875 27.296875 
Q 48.6875 37.203125 44.609375 42.84375 
Q 40.53125 48.484375 33.40625 48.484375 
Q 26.265625 48.484375 22.1875 42.84375 
Q 18.109375 37.203125 18.109375 27.296875 
Q 18.109375 17.390625 22.1875 11.75 
Q 26.265625 6.109375 33.40625 6.109375 
Q 40.53125 6.109375 44.609375 11.75 
Q 48.6875 17.390625 48.6875 27.296875 
z
M 18.109375 46.390625 
Q 20.953125 51.265625 25.265625 53.625 
Q 29.59375 56 35.59375 56 
Q 45.5625 56 51.78125 48.09375 
Q 58.015625 40.1875 58.015625 27.296875 
Q 58.015625 14.40625 51.78125 6.484375 
Q 45.5625 -1.421875 35.59375 -1.421875 
Q 29.59375 -1.421875 25.265625 0.953125 
Q 20.953125 3.328125 18.109375 8.203125 
L 18.109375 0 
L 9.078125 0 
L 9.078125 75.984375 
L 18.109375 75.984375 
z
" id="DejaVuSans-62"/>
    </defs>
    <g transform="translate(59.55864 17.475982)scale(0.102 -0.102)">
     <use xlink:href="#DejaVuSans-62"/>
     <use x="63.476562" xlink:href="#DejaVuSans-62"/>
     <use x="126.953125" xlink:href="#DejaVuSans-6f"/>
     <use x="188.134766" xlink:href="#DejaVuSans-62"/>
    </g>
    <!-- Multi-modal functions, 5-D -->
    <defs>
     <path d="M 9.8125 72.90625 
L 24.515625 72.90625 
L 43.109375 23.296875 
L 61.8125 72.90625 
L 76.515625 72.90625 
L 76.515625 0 
L 66.890625 0 
L 66.890625 64.015625 
L 48.09375 14.015625 
L 38.1875 14.015625 
L 19.390625 64.015625 
L 19.390625 0 
L 9.8125 0 
z
" id="DejaVuSans-4d"/>
     <path d="M 19.671875 64.796875 
L 19.671875 8.109375 
L 31.59375 8.109375 
Q 46.6875 8.109375 53.6875 14.9375 
Q 60.6875 21.78125 60.6875 36.53125 
Q 60.6875 51.171875 53.6875 57.984375 
Q 46.6875 64.796875 31.59375 64.796875 
z
M 9.8125 72.90625 
L 30.078125 72.90625 
Q 51.265625 72.90625 61.171875 64.09375 
Q 71.09375 55.28125 71.09375 36.53125 
Q 71.09375 17.671875 61.125 8.828125 
Q 51.171875 0 30.078125 0 
L 9.8125 0 
z
" id="DejaVuSans-44"/>
    </defs>
    <g transform="translate(59.55864 28.89775)scale(0.102 -0.102)">
     <use xlink:href="#DejaVuSans-4d"/>
     <use x="86.279297" xlink:href="#DejaVuSans-75"/>
     <use x="149.658203" xlink:href="#DejaVuSans-6c"/>
     <use x="177.441406" xlink:href="#DejaVuSans-74"/>
     <use x="216.650391" xlink:href="#DejaVuSans-69"/>
     <use x="244.433594" xlink:href="#DejaVuSans-2d"/>
     <use x="280.517578" xlink:href="#DejaVuSans-6d"/>
     <use x="377.929688" xlink:href="#DejaVuSans-6f"/>
     <use x="439.111328" xlink:href="#DejaVuSans-64"/>
     <use x="502.587891" xlink:href="#DejaVuSans-61"/>
     <use x="563.867188" xlink:href="#DejaVuSans-6c"/>
     <use x="591.650391" xlink:href="#DejaVuSans-20"/>
     <use x="623.4375" xlink:href="#DejaVuSans-66"/>
     <use x="658.642578" xlink:href="#DejaVuSans-75"/>
     <use x="722.021484" xlink:href="#DejaVuSans-6e"/>
     <use x="785.400391" xlink:href="#DejaVuSans-63"/>
     <use x="840.380859" xlink:href="#DejaVuSans-74"/>
     <use x="879.589844" xlink:href="#DejaVuSans-69"/>
     <use x="907.373047" xlink:href="#DejaVuSans-6f"/>
     <use x="968.554688" xlink:href="#DejaVuSans-6e"/>
     <use x="1031.933594" xlink:href="#DejaVuSans-73"/>
     <use x="1084.033203" xlink:href="#DejaVuSans-2c"/>
     <use x="1115.820312" xlink:href="#DejaVuSans-20"/>
     <use x="1147.607422" xlink:href="#DejaVuSans-35"/>
     <use x="1211.230469" xlink:href="#DejaVuSans-2d"/>
     <use x="1247.314453" xlink:href="#DejaVuSans-44"/>
    </g>
    <!-- 51 targets: 100..1e-08 -->
    <defs>
     <path d="M 11.71875 12.40625 
L 22.015625 12.40625 
L 22.015625 0 
L 11.71875 0 
z
M 11.71875 51.703125 
L 22.015625 51.703125 
L 22.015625 39.3125 
L 11.71875 39.3125 
z
" id="DejaVuSans-3a"/>
    </defs>
    <g transform="translate(59.55864 40.319519)scale(0.102 -0.102)">
     <use xlink:href="#DejaVuSans-35"/>
     <use x="63.623047" xlink:href="#DejaVuSans-31"/>
     <use x="127.246094" xlink:href="#DejaVuSans-20"/>
     <use x="159.033203" xlink:href="#DejaVuSans-74"/>
     <use x="198.242188" xlink:href="#DejaVuSans-61"/>
     <use x="259.521484" xlink:href="#DejaVuSans-72"/>
     <use x="300.619141" xlink:href="#DejaVuSans-67"/>
     <use x="364.095703" xlink:href="#DejaVuSans-65"/>
     <use x="425.619141" xlink:href="#DejaVuSans-74"/>
     <use x="464.828125" xlink:href="#DejaVuSans-73"/>
     <use x="516.927734" xlink:href="#DejaVuSans-3a"/>
     <use x="550.619141" xlink:href="#DejaVuSans-20"/>
     <use x="582.40625" xlink:href="#DejaVuSans-31"/>
     <use x="646.029297" xlink:href="#DejaVuSans-30"/>
     <use x="709.652344" xlink:href="#DejaVuSans-30"/>
     <use x="773.275391" xlink:href="#DejaVuSans-2e"/>
     <use x="805.0625" xlink:href="#DejaVuSans-2e"/>
     <use x="836.849609" xlink:href="#DejaVuSans-31"/>
     <use x="900.472656" xlink:href="#DejaVuSans-65"/>
     <use x="961.996094" xlink:href="#DejaVuSans-2d"/>
     <use x="998.080078" xlink:href="#DejaVuSans-30"/>
     <use x="1061.703125" xlink:href="#DejaVuSans-38"/>
    </g>
    <!-- 15 instances -->
    <g transform="translate(59.55864 51.741288)scale(0.102 -0.102)">
     <use xlink:href="#DejaVuSans-31"/>
     <use x="63.623047" xlink:href="#DejaVuSans-35"/>
     <use x="127.246094" xlink:href="#DejaVuSans-20"/>
     <use x="159.033203" xlink:href="#DejaVuSans-69"/>
     <use x="186.816406" xlink:href="#DejaVuSans-6e"/>
     <use x="250.195312" xlink:href="#DejaVuSans-73"/>
     <use x="302.294922" xlink:href="#DejaVuSans-74"/>
     <use x="341.503906" xlink:href="#DejaVuSans-61"/>
     <use x="402.783203" xlink:href="#DejaVuSans-6e"/>
     <use x="466.162109" xlink:href="#DejaVuSans-63"/>
     <use x="521.142578" xlink:href="#DejaVuSans-65"/>
     <use x="582.666016" xlink:href="#DejaVuSans-73"/>
    </g>
   </g>
   <g id="text_20">
    <!-- v0.0.0 -->
    <g style="fill:#808080;" transform="translate(212.37075 289.919965)scale(0.1 -0.1)">
     <use xlink:href="#DejaVuSans-76"/>
     <use x="59.179688" xlink:href="#DejaVuSans-30"/>
     <use x="122.802734" xlink:href="#DejaVuSans-2e"/>
     <use x="154.589844" xlink:href="#DejaVuSans-30"/>
     <use x="218.212891" xlink:href="#DejaVuSans-2e"/>
     <use x="250" xlink:href="#DejaVuSans-30"/>
    </g>
   </g>
  </g>
 </g>
 <defs>
  <clipPath id="pb668777d92">
   <rect height="288.034772" width="343.864" x="56.12" y="6.845228"/>
  </clipPath>
 </defs>
</svg>
