<?xml version="1.0" encoding="utf-8" standalone="no"?>
<!DOCTYPE svg PUBLIC "-//W3C//DTD SVG 1.1//EN"
  "http://www.w3.org/Graphics/SVG/1.1/DTD/svg11.dtd">
<!-- Created with matplotlib (http://matplotlib.org/) -->
<svg height="345.6pt" version="1.1" viewBox="0 0 460.8 345.6" width="460.8pt" xmlns="http://www.w3.org/2000/svg" xmlns:xlink="http://www.w3.org/1999/xlink">
 <defs>
  <style type="text/css">
*{stroke-linecap:butt;stroke-linejoin:round;}
  </style>
 </defs>
 <g id="figure_1">
  <g id="patch_1">
   <path d="M 0 345.6 
L 460.8 345.6 
L 460.8 0 
L 0 0 
z
" style="fill:#ffffff;"/>
  </g>
  <g id="axes_1">
   <g id="patch_2">
    <path d="M 56.12 294.88 
L 399.984 294.88 
L 399.984 6.845228 
L 56.12 6.845228 
z
" style="fill:#ffffff;"/>
   </g>
   <g id="matplotlib.axis_1">
    <g id="xtick_1">
     <g id="line2d_1">
      <path clip-path="url(#p32087583a7)" d="M 56.12 294.88 
L 56.12 6.845228 
" style="fill:none;stroke:#b0b0b0;stroke-linecap:square;stroke-width:0.8;"/>
     </g>
     <g id="line2d_2">
      <defs>
       <path d="M 0 0 
L 0 3.5 
" id="m9038140a75" style="stroke:#000000;stroke-width:0.8;"/>
      </defs>
      <g>
       <use style="stroke:#000000;stroke-width:0.8;" x="56.12" xlink:href="#m9038140a75" y="294.88"/>
      </g>
     </g>
     <g id="text_1">
      <!-- 0 -->
      <defs>
       <path d="M 31.78125 66.40625 
Q 24.171875 66.40625 20.328125 58.90625 
Q 16.5 51.421875 16.5 36.375 
Q 16.5 21.390625 20.328125 13.890625 
Q 24.171875 6.390625 31.78125 6.390625 
Q 39.453125 6.390625 43.28125 13.890625 
Q 47.125 21.390625 47.125 36.375 
Q 47.125 51.421875 43.28125 58.90625 
Q 39.453125 66.40625 31.78125 66.40625 
z
M 31.78125 74.21875 
Q 44.046875 74.21875 50.515625 64.515625 
Q 56.984375 54.828125 56.984375 36.375 
Q 56.984375 17.96875 50.515625 8.265625 
Q 44.046875 -1.421875 31.78125 -1.421875 
Q 19.53125 -1.421875 13.0625 8.265625 
Q 6.59375 17.96875 6.59375 36.375 
Q 6.59375 54.828125 13.0625 64.515625 
Q 19.53125 74.21875 31.78125 74.21875 
z
" id="DejaVuSans-30"/>
      </defs>
      <g transform="translate(49.7575 317.076875)scale(0.2 -0.2)">
       <use xlink:href="#DejaVuSans-30"/>
      </g>
     </g>
    </g>
    <g id="xtick_2">
     <g id="line2d_3">
      <path clip-path="url(#p32087583a7)" d="M 135.351336 294.88 
L 135.351336 6.845228 
" style="fill:none;stroke:#b0b0b0;stroke-linecap:square;stroke-width:0.8;"/>
     </g>
     <g id="line2d_4">
      <g>
       <use style="stroke:#000000;stroke-width:0.8;" x="135.351336" xlink:href="#m9038140a75" y="294.88"/>
      </g>
     </g>
     <g id="text_2">
      <!-- 2 -->
      <defs>
       <path d="M 19.1875 8.296875 
L 53.609375 8.296875 
L 53.609375 0 
L 7.328125 0 
L 7.328125 8.296875 
Q 12.9375 14.109375 22.625 23.890625 
Q 32.328125 33.6875 34.8125 36.53125 
Q 39.546875 41.84375 41.421875 45.53125 
Q 43.3125 49.21875 43.3125 52.78125 
Q 43.3125 58.59375 39.234375 62.25 
Q 35.15625 65.921875 28.609375 65.921875 
Q 23.96875 65.921875 18.8125 64.3125 
Q 13.671875 62.703125 7.8125 59.421875 
L 7.8125 69.390625 
Q 13.765625 71.78125 18.9375 73 
Q 24.125 74.21875 28.421875 74.21875 
Q 39.75 74.21875 46.484375 68.546875 
Q 53.21875 62.890625 53.21875 53.421875 
Q 53.21875 48.921875 51.53125 44.890625 
Q 49.859375 40.875 45.40625 35.40625 
Q 44.1875 33.984375 37.640625 27.21875 
Q 31.109375 20.453125 19.1875 8.296875 
z
" id="DejaVuSans-32"/>
      </defs>
      <g transform="translate(128.988836 317.076875)scale(0.2 -0.2)">
       <use xlink:href="#DejaVuSans-32"/>
      </g>
     </g>
    </g>
    <g id="xtick_3">
     <g id="line2d_5">
      <path clip-path="url(#p32087583a7)" d="M 214.582673 294.88 
L 214.582673 6.845228 
" style="fill:none;stroke:#b0b0b0;stroke-linecap:square;stroke-width:0.8;"/>
     </g>
     <g id="line2d_6">
      <g>
       <use style="stroke:#000000;stroke-width:0.8;" x="214.582673" xlink:href="#m9038140a75" y="294.88"/>
      </g>
     </g>
     <g id="text_3">
      <!-- 4 -->
      <defs>
       <path d="M 37.796875 64.3125 
L 12.890625 25.390625 
L 37.796875 25.390625 
z
M 35.203125 72.90625 
L 47.609375 72.90625 
L 47.609375 25.390625 
L 58.015625 25.390625 
L 58.015625 17.1875 
L 47.609375 17.1875 
L 47.609375 0 
L 37.796875 0 
L 37.796875 17.1875 
L 4.890625 17.1875 
L 4.890625 26.703125 
z
" id="DejaVuSans-34"/>
      </defs>
      <g transform="translate(208.220173 317.076875)scale(0.2 -0.2)">
       <use xlink:href="#DejaVuSans-34"/>
      </g>
     </g>
    </g>
    <g id="xtick_4">
     <g id="line2d_7">
      <path clip-path="url(#p32087583a7)" d="M 293.814009 294.88 
L 293.814009 6.845228 
" style="fill:none;stroke:#b0b0b0;stroke-linecap:square;stroke-width:0.8;"/>
     </g>
     <g id="line2d_8">
      <g>
       <use style="stroke:#000000;stroke-width:0.8;" x="293.814009" xlink:href="#m9038140a75" y="294.88"/>
      </g>
     </g>
     <g id="text_4">
      <!-- 6 -->
      <defs>
       <path d="M 33.015625 40.375 
Q 26.375 40.375 22.484375 35.828125 
Q 18.609375 31.296875 18.609375 23.390625 
Q 18.609375 15.53125 22.484375 10.953125 
Q 26.375 6.390625 33.015625 6.390625 
Q 39.65625 6.390625 43.53125 10.953125 
Q 47.40625 15.53125 47.40625 23.390625 
Q 47.40625 31.296875 43.53125 35.828125 
Q 39.65625 40.375 33.015625 40.375 
z
M 52.59375 71.296875 
L 52.59375 62.3125 
Q 48.875 64.0625 45.09375 64.984375 
Q 41.3125 65.921875 37.59375 65.921875 
Q 27.828125 65.921875 22.671875 59.328125 
Q 17.53125 52.734375 16.796875 39.40625 
Q 19.671875 43.65625 24.015625 45.921875 
Q 28.375 48.1875 33.59375 48.1875 
Q 44.578125 48.1875 50.953125 41.515625 
Q 57.328125 34.859375 57.328125 23.390625 
Q 57.328125 12.15625 50.6875 5.359375 
Q 44.046875 -1.421875 33.015625 -1.421875 
Q 20.359375 -1.421875 13.671875 8.265625 
Q 6.984375 17.96875 6.984375 36.375 
Q 6.984375 53.65625 15.1875 63.9375 
Q 23.390625 74.21875 37.203125 74.21875 
Q 40.921875 74.21875 44.703125 73.484375 
Q 48.484375 72.75 52.59375 71.296875 
z
" id="DejaVuSans-36"/>
      </defs>
      <g transform="translate(287.451509 317.076875)scale(0.2 -0.2)">
       <use xlink:href="#DejaVuSans-36"/>
      </g>
     </g>
    </g>
    <g id="xtick_5">
     <g id="line2d_9">
      <path clip-path="url(#p32087583a7)" d="M 373.045346 294.88 
L 373.045346 6.845228 
" style="fill:none;stroke:#b0b0b0;stroke-linecap:square;stroke-width:0.8;"/>
     </g>
     <g id="line2d_10">
      <g>
       <use style="stroke:#000000;stroke-width:0.8;" x="373.045346" xlink:href="#m9038140a75" y="294.88"/>
      </g>
     </g>
     <g id="text_5">
      <!-- 8 -->
      <defs>
       <path d="M 31.78125 34.625 
Q 24.75 34.625 20.71875 30.859375 
Q 16.703125 27.09375 16.703125 20.515625 
Q 16.703125 13.921875 20.71875 10.15625 
Q 24.75 6.390625 31.78125 6.390625 
Q 38.8125 6.390625 42.859375 10.171875 
Q 46.921875 13.96875 46.921875 20.515625 
Q 46.921875 27.09375 42.890625 30.859375 
Q 38.875 34.625 31.78125 34.625 
z
M 21.921875 38.8125 
Q 15.578125 40.375 12.03125 44.71875 
Q 8.5 49.078125 8.5 55.328125 
Q 8.5 64.0625 14.71875 69.140625 
Q 20.953125 74.21875 31.78125 74.21875 
Q 42.671875 74.21875 48.875 69.140625 
Q 55.078125 64.0625 55.078125 55.328125 
Q 55.078125 49.078125 51.53125 44.71875 
Q 48 40.375 41.703125 38.8125 
Q 48.828125 37.15625 52.796875 32.3125 
Q 56.78125 27.484375 56.78125 20.515625 
Q 56.78125 9.90625 50.3125 4.234375 
Q 43.84375 -1.421875 31.78125 -1.421875 
Q 19.734375 -1.421875 13.25 4.234375 
Q 6.78125 9.90625 6.78125 20.515625 
Q 6.78125 27.484375 10.78125 32.3125 
Q 14.796875 37.15625 21.921875 38.8125 
z
M 18.3125 54.390625 
Q 18.3125 48.734375 21.84375 45.5625 
Q 25.390625 42.390625 31.78125 42.390625 
Q 38.140625 42.390625 41.71875 45.5625 
Q 45.3125 48.734375 45.3125 54.390625 
Q 45.3125 60.0625 41.71875 63.234375 
Q 38.140625 66.40625 31.78125 66.40625 
Q 25.390625 66.40625 21.84375 63.234375 
Q 18.3125 60.0625 18.3125 54.390625 
z
" id="DejaVuSans-38"/>
      </defs>
      <g transform="translate(366.682846 317.076875)scale(0.2 -0.2)">
       <use xlink:href="#DejaVuSans-38"/>
      </g>
     </g>
    </g>
    <g id="text_6">
     <!-- log10(# f-evals / dimension) -->
     <defs>
      <path d="M 9.421875 75.984375 
L 18.40625 75.984375 
L 18.40625 0 
L 9.421875 0 
z
" id="DejaVuSans-6c"/>
      <path d="M 30.609375 48.390625 
Q 23.390625 48.390625 19.1875 42.75 
Q 14.984375 37.109375 14.984375 27.296875 
Q 14.984375 17.484375 19.15625 11.84375 
Q 23.34375 6.203125 30.609375 6.203125 
Q 37.796875 6.203125 41.984375 11.859375 
Q 46.1875 17.53125 46.1875 27.296875 
Q 46.1875 37.015625 41.984375 42.703125 
Q 37.796875 48.390625 30.609375 48.390625 
z
M 30.609375 56 
Q 42.328125 56 49.015625 48.375 
Q 55.71875 40.765625 55.71875 27.296875 
Q 55.71875 13.875 49.015625 6.21875 
Q 42.328125 -1.421875 30.609375 -1.421875 
Q 18.84375 -1.421875 12.171875 6.21875 
Q 5.515625 13.875 5.515625 27.296875 
Q 5.515625 40.765625 12.171875 48.375 
Q 18.84375 56 30.609375 56 
z
" id="DejaVuSans-6f"/>
      <path d="M 45.40625 27.984375 
Q 45.40625 37.75 41.375 43.109375 
Q 37.359375 48.484375 30.078125 48.484375 
Q 22.859375 48.484375 18.828125 43.109375 
Q 14.796875 37.75 14.796875 27.984375 
Q 14.796875 18.265625 18.828125 12.890625 
Q 22.859375 7.515625 30.078125 7.515625 
Q 37.359375 7.515625 41.375 12.890625 
Q 45.40625 18.265625 45.40625 27.984375 
z
M 54.390625 6.78125 
Q 54.390625 -7.171875 48.1875 -13.984375 
Q 42 -20.796875 29.203125 -20.796875 
Q 24.46875 -20.796875 20.265625 -20.09375 
Q 16.0625 -19.390625 12.109375 -17.921875 
L 12.109375 -9.1875 
Q 16.0625 -11.328125 19.921875 -12.34375 
Q 23.78125 -13.375 27.78125 -13.375 
Q 36.625 -13.375 41.015625 -8.765625 
Q 45.40625 -4.15625 45.40625 5.171875 
L 45.40625 9.625 
Q 42.625 4.78125 38.28125 2.390625 
Q 33.9375 0 27.875 0 
Q 17.828125 0 11.671875 7.65625 
Q 5.515625 15.328125 5.515625 27.984375 
Q 5.515625 40.671875 11.671875 48.328125 
Q 17.828125 56 27.875 56 
Q 33.9375 56 38.28125 53.609375 
Q 42.625 51.21875 45.40625 46.390625 
L 45.40625 54.6875 
L 54.390625 54.6875 
z
" id="DejaVuSans-67"/>
      <path d="M 12.40625 8.296875 
L 28.515625 8.296875 
L 28.515625 63.921875 
L 10.984375 60.40625 
L 10.984375 69.390625 
L 28.421875 72.90625 
L 38.28125 72.90625 
L 38.28125 8.296875 
L 54.390625 8.296875 
L 54.390625 0 
L 12.40625 0 
z
" id="DejaVuSans-31"/>
      <path d="M 31 75.875 
Q 24.46875 64.65625 21.28125 53.65625 
Q 18.109375 42.671875 18.109375 31.390625 
Q 18.109375 20.125 21.3125 9.0625 
Q 24.515625 -2 31 -13.1875 
L 23.1875 -13.1875 
Q 15.875 -1.703125 12.234375 9.375 
Q 8.59375 20.453125 8.59375 31.390625 
Q 8.59375 42.28125 12.203125 53.3125 
Q 15.828125 64.359375 23.1875 75.875 
z
" id="DejaVuSans-28"/>
      <path d="M 51.125 44 
L 36.921875 44 
L 32.8125 27.6875 
L 47.125 27.6875 
z
M 43.796875 71.78125 
L 38.71875 51.515625 
L 52.984375 51.515625 
L 58.109375 71.78125 
L 65.921875 71.78125 
L 60.890625 51.515625 
L 76.125 51.515625 
L 76.125 44 
L 58.984375 44 
L 54.984375 27.6875 
L 70.515625 27.6875 
L 70.515625 20.21875 
L 53.078125 20.21875 
L 48 0 
L 40.1875 0 
L 45.21875 20.21875 
L 30.90625 20.21875 
L 25.875 0 
L 18.015625 0 
L 23.09375 20.21875 
L 7.71875 20.21875 
L 7.71875 27.6875 
L 24.90625 27.6875 
L 29 44 
L 13.28125 44 
L 13.28125 51.515625 
L 30.90625 51.515625 
L 35.890625 71.78125 
z
" id="DejaVuSans-23"/>
      <path id="DejaVuSans-20"/>
      <path d="M 37.109375 75.984375 
L 37.109375 68.5 
L 28.515625 68.5 
Q 23.6875 68.5 21.796875 66.546875 
Q 19.921875 64.59375 19.921875 59.515625 
L 19.921875 54.6875 
L 34.71875 54.6875 
L 34.71875 47.703125 
L 19.921875 47.703125 
L 19.921875 0 
L 10.890625 0 
L 10.890625 47.703125 
L 2.296875 47.703125 
L 2.296875 54.6875 
L 10.890625 54.6875 
L 10.890625 58.5 
Q 10.890625 67.625 15.140625 71.796875 
Q 19.390625 75.984375 28.609375 75.984375 
z
" id="DejaVuSans-66"/>
      <path d="M 4.890625 31.390625 
L 31.203125 31.390625 
L 31.203125 23.390625 
L 4.890625 23.390625 
z
" id="DejaVuSans-2d"/>
      <path d="M 56.203125 29.59375 
L 56.203125 25.203125 
L 14.890625 25.203125 
Q 15.484375 15.921875 20.484375 11.0625 
Q 25.484375 6.203125 34.421875 6.203125 
Q 39.59375 6.203125 44.453125 7.46875 
Q 49.3125 8.734375 54.109375 11.28125 
L 54.109375 2.78125 
Q 49.265625 0.734375 44.1875 -0.34375 
Q 39.109375 -1.421875 33.890625 -1.421875 
Q 20.796875 -1.421875 13.15625 6.1875 
Q 5.515625 13.8125 5.515625 26.8125 
Q 5.515625 40.234375 12.765625 48.109375 
Q 20.015625 56 32.328125 56 
Q 43.359375 56 49.78125 48.890625 
Q 56.203125 41.796875 56.203125 29.59375 
z
M 47.21875 32.234375 
Q 47.125 39.59375 43.09375 43.984375 
Q 39.0625 48.390625 32.421875 48.390625 
Q 24.90625 48.390625 20.390625 44.140625 
Q 15.875 39.890625 15.1875 32.171875 
z
" id="DejaVuSans-65"/>
      <path d="M 2.984375 54.6875 
L 12.5 54.6875 
L 29.59375 8.796875 
L 46.6875 54.6875 
L 56.203125 54.6875 
L 35.6875 0 
L 23.484375 0 
z
" id="DejaVuSans-76"/>
      <path d="M 34.28125 27.484375 
Q 23.390625 27.484375 19.1875 25 
Q 14.984375 22.515625 14.984375 16.5 
Q 14.984375 11.71875 18.140625 8.90625 
Q 21.296875 6.109375 26.703125 6.109375 
Q 34.1875 6.109375 38.703125 11.40625 
Q 43.21875 16.703125 43.21875 25.484375 
L 43.21875 27.484375 
z
M 52.203125 31.203125 
L 52.203125 0 
L 43.21875 0 
L 43.21875 8.296875 
Q 40.140625 3.328125 35.546875 0.953125 
Q 30.953125 -1.421875 24.3125 -1.421875 
Q 15.921875 -1.421875 10.953125 3.296875 
Q 6 8.015625 6 15.921875 
Q 6 25.140625 12.171875 29.828125 
Q 18.359375 34.515625 30.609375 34.515625 
L 43.21875 34.515625 
L 43.21875 35.40625 
Q 43.21875 41.609375 39.140625 45 
Q 35.0625 48.390625 27.6875 48.390625 
Q 23 48.390625 18.546875 47.265625 
Q 14.109375 46.140625 10.015625 43.890625 
L 10.015625 52.203125 
Q 14.9375 54.109375 19.578125 55.046875 
Q 24.21875 56 28.609375 56 
Q 40.484375 56 46.34375 49.84375 
Q 52.203125 43.703125 52.203125 31.203125 
z
" id="DejaVuSans-61"/>
      <path d="M 44.28125 53.078125 
L 44.28125 44.578125 
Q 40.484375 46.53125 36.375 47.5 
Q 32.28125 48.484375 27.875 48.484375 
Q 21.1875 48.484375 17.84375 46.4375 
Q 14.5 44.390625 14.5 40.28125 
Q 14.5 37.15625 16.890625 35.375 
Q 19.28125 33.59375 26.515625 31.984375 
L 29.59375 31.296875 
Q 39.15625 29.25 43.1875 25.515625 
Q 47.21875 21.78125 47.21875 15.09375 
Q 47.21875 7.46875 41.1875 3.015625 
Q 35.15625 -1.421875 24.609375 -1.421875 
Q 20.21875 -1.421875 15.453125 -0.5625 
Q 10.6875 0.296875 5.421875 2 
L 5.421875 11.28125 
Q 10.40625 8.6875 15.234375 7.390625 
Q 20.0625 6.109375 24.8125 6.109375 
Q 31.15625 6.109375 34.5625 8.28125 
Q 37.984375 10.453125 37.984375 14.40625 
Q 37.984375 18.0625 35.515625 20.015625 
Q 33.0625 21.96875 24.703125 23.78125 
L 21.578125 24.515625 
Q 13.234375 26.265625 9.515625 29.90625 
Q 5.8125 33.546875 5.8125 39.890625 
Q 5.8125 47.609375 11.28125 51.796875 
Q 16.75 56 26.8125 56 
Q 31.78125 56 36.171875 55.265625 
Q 40.578125 54.546875 44.28125 53.078125 
z
" id="DejaVuSans-73"/>
      <path d="M 25.390625 72.90625 
L 33.6875 72.90625 
L 8.296875 -9.28125 
L 0 -9.28125 
z
" id="DejaVuSans-2f"/>
      <path d="M 45.40625 46.390625 
L 45.40625 75.984375 
L 54.390625 75.984375 
L 54.390625 0 
L 45.40625 0 
L 45.40625 8.203125 
Q 42.578125 3.328125 38.25 0.953125 
Q 33.9375 -1.421875 27.875 -1.421875 
Q 17.96875 -1.421875 11.734375 6.484375 
Q 5.515625 14.40625 5.515625 27.296875 
Q 5.515625 40.1875 11.734375 48.09375 
Q 17.96875 56 27.875 56 
Q 33.9375 56 38.25 53.625 
Q 42.578125 51.265625 45.40625 46.390625 
z
M 14.796875 27.296875 
Q 14.796875 17.390625 18.875 11.75 
Q 22.953125 6.109375 30.078125 6.109375 
Q 37.203125 6.109375 41.296875 11.75 
Q 45.40625 17.390625 45.40625 27.296875 
Q 45.40625 37.203125 41.296875 42.84375 
Q 37.203125 48.484375 30.078125 48.484375 
Q 22.953125 48.484375 18.875 42.84375 
Q 14.796875 37.203125 14.796875 27.296875 
z
" id="DejaVuSans-64"/>
      <path d="M 9.421875 54.6875 
L 18.40625 54.6875 
L 18.40625 0 
L 9.421875 0 
z
M 9.421875 75.984375 
L 18.40625 75.984375 
L 18.40625 64.59375 
L 9.421875 64.59375 
z
" id="DejaVuSans-69"/>
      <path d="M 52 44.1875 
Q 55.375 50.25 60.0625 53.125 
Q 64.75 56 71.09375 56 
Q 79.640625 56 84.28125 50.015625 
Q 88.921875 44.046875 88.921875 33.015625 
L 88.921875 0 
L 79.890625 0 
L 79.890625 32.71875 
Q 79.890625 40.578125 77.09375 44.375 
Q 74.3125 48.1875 68.609375 48.1875 
Q 61.625 48.1875 57.5625 43.546875 
Q 53.515625 38.921875 53.515625 30.90625 
L 53.515625 0 
L 44.484375 0 
L 44.484375 32.71875 
Q 44.484375 40.625 41.703125 44.40625 
Q 38.921875 48.1875 33.109375 48.1875 
Q 26.21875 48.1875 22.15625 43.53125 
Q 18.109375 38.875 18.109375 30.90625 
L 18.109375 0 
L 9.078125 0 
L 9.078125 54.6875 
L 18.109375 54.6875 
L 18.109375 46.1875 
Q 21.1875 51.21875 25.484375 53.609375 
Q 29.78125 56 35.6875 56 
Q 41.65625 56 45.828125 52.96875 
Q 50 49.953125 52 44.1875 
z
" id="DejaVuSans-6d"/>
      <path d="M 54.890625 33.015625 
L 54.890625 0 
L 45.90625 0 
L 45.90625 32.71875 
Q 45.90625 40.484375 42.875 44.328125 
Q 39.84375 48.1875 33.796875 48.1875 
Q 26.515625 48.1875 22.3125 43.546875 
Q 18.109375 38.921875 18.109375 30.90625 
L 18.109375 0 
L 9.078125 0 
L 9.078125 54.6875 
L 18.109375 54.6875 
L 18.109375 46.1875 
Q 21.34375 51.125 25.703125 53.5625 
Q 30.078125 56 35.796875 56 
Q 45.21875 56 50.046875 50.171875 
Q 54.890625 44.34375 54.890625 33.015625 
z
" id="DejaVuSans-6e"/>
      <path d="M 8.015625 75.875 
L 15.828125 75.875 
Q 23.140625 64.359375 26.78125 53.3125 
Q 30.421875 42.28125 30.421875 31.390625 
Q 30.421875 20.453125 26.78125 9.375 
Q 23.140625 -1.703125 15.828125 -13.1875 
L 8.015625 -13.1875 
Q 14.5 -2 17.703125 9.0625 
Q 20.90625 20.125 20.90625 31.390625 
Q 20.90625 42.671875 17.703125 53.65625 
Q 14.5 64.65625 8.015625 75.875 
z
" id="DejaVuSans-29"/>
     </defs>
     <g transform="translate(107.211219 338.153594)scale(0.17 -0.17)">
      <use xlink:href="#DejaVuSans-6c"/>
      <use x="27.783203" xlink:href="#DejaVuSans-6f"/>
      <use x="88.964844" xlink:href="#DejaVuSans-67"/>
      <use x="152.441406" xlink:href="#DejaVuSans-31"/>
      <use x="216.064453" xlink:href="#DejaVuSans-30"/>
      <use x="279.6875" xlink:href="#DejaVuSans-28"/>
      <use x="318.701172" xlink:href="#DejaVuSans-23"/>
      <use x="402.490234" xlink:href="#DejaVuSans-20"/>
      <use x="434.277344" xlink:href="#DejaVuSans-66"/>
      <use x="469.404297" xlink:href="#DejaVuSans-2d"/>
      <use x="505.488281" xlink:href="#DejaVuSans-65"/>
      <use x="567.011719" xlink:href="#DejaVuSans-76"/>
      <use x="626.191406" xlink:href="#DejaVuSans-61"/>
      <use x="687.470703" xlink:href="#DejaVuSans-6c"/>
      <use x="715.253906" xlink:href="#DejaVuSans-73"/>
      <use x="767.353516" xlink:href="#DejaVuSans-20"/>
      <use x="799.140625" xlink:href="#DejaVuSans-2f"/>
      <use x="832.832031" xlink:href="#DejaVuSans-20"/>
      <use x="864.619141" xlink:href="#DejaVuSans-64"/>
      <use x="928.095703" xlink:href="#DejaVuSans-69"/>
      <use x="955.878906" xlink:href="#DejaVuSans-6d"/>
      <use x="1053.291016" xlink:href="#DejaVuSans-65"/>
      <use x="1114.814453" xlink:href="#DejaVuSans-6e"/>
      <use x="1178.193359" xlink:href="#DejaVuSans-73"/>
      <use x="1230.292969" xlink:href="#DejaVuSans-69"/>
      <use x="1258.076172" xlink:href="#DejaVuSans-6f"/>
      <use x="1319.257812" xlink:href="#DejaVuSans-6e"/>
      <use x="1382.636719" xlink:href="#DejaVuSans-29"/>
     </g>
    </g>
   </g>
   <g id="matplotlib.axis_2">
    <g id="ytick_1">
     <g id="line2d_11">
      <path clip-path="url(#p32087583a7)" d="M 56.12 294.88 
L 399.984 294.88 
" style="fill:none;stroke:#b0b0b0;stroke-linecap:square;stroke-width:0.8;"/>
     </g>
     <g id="line2d_12">
      <defs>
       <path d="M 0 0 
L -3.5 0 
" id="mcab75fe34e" style="stroke:#000000;stroke-width:0.8;"/>
      </defs>
      <g>
       <use style="stroke:#000000;stroke-width:0.8;" x="56.12" xlink:href="#mcab75fe34e" y="294.88"/>
      </g>
     </g>
     <g id="text_7">
      <!-- 0.0 -->
      <defs>
       <path d="M 10.6875 12.40625 
L 21 12.40625 
L 21 0 
L 10.6875 0 
z
" id="DejaVuSans-2e"/>
      </defs>
      <g transform="translate(23.675 300.95875)scale(0.16 -0.16)">
       <use xlink:href="#DejaVuSans-30"/>
       <use x="63.623047" xlink:href="#DejaVuSans-2e"/>
       <use x="95.410156" xlink:href="#DejaVuSans-30"/>
      </g>
     </g>
    </g>
    <g id="ytick_2">
     <g id="line2d_13">
      <path clip-path="url(#p32087583a7)" d="M 56.12 237.843411 
L 399.984 237.843411 
" style="fill:none;stroke:#b0b0b0;stroke-linecap:square;stroke-width:0.8;"/>
     </g>
     <g id="line2d_14">
      <g>
       <use style="stroke:#000000;stroke-width:0.8;" x="56.12" xlink:href="#mcab75fe34e" y="237.843411"/>
      </g>
     </g>
     <g id="text_8">
      <!-- 0.2 -->
      <g transform="translate(23.675 243.922161)scale(0.16 -0.16)">
       <use xlink:href="#DejaVuSans-30"/>
       <use x="63.623047" xlink:href="#DejaVuSans-2e"/>
       <use x="95.410156" xlink:href="#DejaVuSans-32"/>
      </g>
     </g>
    </g>
    <g id="ytick_3">
     <g id="line2d_15">
      <path clip-path="url(#p32087583a7)" d="M 56.12 180.806823 
L 399.984 180.806823 
" style="fill:none;stroke:#b0b0b0;stroke-linecap:square;stroke-width:0.8;"/>
     </g>
     <g id="line2d_16">
      <g>
       <use style="stroke:#000000;stroke-width:0.8;" x="56.12" xlink:href="#mcab75fe34e" y="180.806823"/>
      </g>
     </g>
     <g id="text_9">
      <!-- 0.4 -->
      <g transform="translate(23.675 186.885573)scale(0.16 -0.16)">
       <use xlink:href="#DejaVuSans-30"/>
       <use x="63.623047" xlink:href="#DejaVuSans-2e"/>
       <use x="95.410156" xlink:href="#DejaVuSans-34"/>
      </g>
     </g>
    </g>
    <g id="ytick_4">
     <g id="line2d_17">
      <path clip-path="url(#p32087583a7)" d="M 56.12 123.770234 
L 399.984 123.770234 
" style="fill:none;stroke:#b0b0b0;stroke-linecap:square;stroke-width:0.8;"/>
     </g>
     <g id="line2d_18">
      <g>
       <use style="stroke:#000000;stroke-width:0.8;" x="56.12" xlink:href="#mcab75fe34e" y="123.770234"/>
      </g>
     </g>
     <g id="text_10">
      <!-- 0.6 -->
      <g transform="translate(23.675 129.848984)scale(0.16 -0.16)">
       <use xlink:href="#DejaVuSans-30"/>
       <use x="63.623047" xlink:href="#DejaVuSans-2e"/>
       <use x="95.410156" xlink:href="#DejaVuSans-36"/>
      </g>
     </g>
    </g>
    <g id="ytick_5">
     <g id="line2d_19">
      <path clip-path="url(#p32087583a7)" d="M 56.12 66.733646 
L 399.984 66.733646 
" style="fill:none;stroke:#b0b0b0;stroke-linecap:square;stroke-width:0.8;"/>
     </g>
     <g id="line2d_20">
      <g>
       <use style="stroke:#000000;stroke-width:0.8;" x="56.12" xlink:href="#mcab75fe34e" y="66.733646"/>
      </g>
     </g>
     <g id="text_11">
      <!-- 0.8 -->
      <g transform="translate(23.675 72.812396)scale(0.16 -0.16)">
       <use xlink:href="#DejaVuSans-30"/>
       <use x="63.623047" xlink:href="#DejaVuSans-2e"/>
       <use x="95.410156" xlink:href="#DejaVuSans-38"/>
      </g>
     </g>
    </g>
    <g id="ytick_6">
     <g id="line2d_21">
      <path clip-path="url(#p32087583a7)" d="M 56.12 9.697057 
L 399.984 9.697057 
" style="fill:none;stroke:#b0b0b0;stroke-linecap:square;stroke-width:0.8;"/>
     </g>
     <g id="line2d_22">
      <g>
       <use style="stroke:#000000;stroke-width:0.8;" x="56.12" xlink:href="#mcab75fe34e" y="9.697057"/>
      </g>
     </g>
     <g id="text_12">
      <!-- 1.0 -->
      <g transform="translate(23.675 15.775807)scale(0.16 -0.16)">
       <use xlink:href="#DejaVuSans-31"/>
       <use x="63.623047" xlink:href="#DejaVuSans-2e"/>
       <use x="95.410156" xlink:href="#DejaVuSans-30"/>
      </g>
     </g>
    </g>
    <g id="text_13">
     <!-- Fraction of function,target pairs -->
     <defs>
      <path d="M 9.8125 72.90625 
L 51.703125 72.90625 
L 51.703125 64.59375 
L 19.671875 64.59375 
L 19.671875 43.109375 
L 48.578125 43.109375 
L 48.578125 34.8125 
L 19.671875 34.8125 
L 19.671875 0 
L 9.8125 0 
z
" id="DejaVuSans-46"/>
      <path d="M 41.109375 46.296875 
Q 39.59375 47.171875 37.8125 47.578125 
Q 36.03125 48 33.890625 48 
Q 26.265625 48 22.1875 43.046875 
Q 18.109375 38.09375 18.109375 28.8125 
L 18.109375 0 
L 9.078125 0 
L 9.078125 54.6875 
L 18.109375 54.6875 
L 18.109375 46.1875 
Q 20.953125 51.171875 25.484375 53.578125 
Q 30.03125 56 36.53125 56 
Q 37.453125 56 38.578125 55.875 
Q 39.703125 55.765625 41.0625 55.515625 
z
" id="DejaVuSans-72"/>
      <path d="M 48.78125 52.59375 
L 48.78125 44.1875 
Q 44.96875 46.296875 41.140625 47.34375 
Q 37.3125 48.390625 33.40625 48.390625 
Q 24.65625 48.390625 19.8125 42.84375 
Q 14.984375 37.3125 14.984375 27.296875 
Q 14.984375 17.28125 19.8125 11.734375 
Q 24.65625 6.203125 33.40625 6.203125 
Q 37.3125 6.203125 41.140625 7.25 
Q 44.96875 8.296875 48.78125 10.40625 
L 48.78125 2.09375 
Q 45.015625 0.34375 40.984375 -0.53125 
Q 36.96875 -1.421875 32.421875 -1.421875 
Q 20.0625 -1.421875 12.78125 6.34375 
Q 5.515625 14.109375 5.515625 27.296875 
Q 5.515625 40.671875 12.859375 48.328125 
Q 20.21875 56 33.015625 56 
Q 37.15625 56 41.109375 55.140625 
Q 45.0625 54.296875 48.78125 52.59375 
z
" id="DejaVuSans-63"/>
      <path d="M 18.3125 70.21875 
L 18.3125 54.6875 
L 36.8125 54.6875 
L 36.8125 47.703125 
L 18.3125 47.703125 
L 18.3125 18.015625 
Q 18.3125 11.328125 20.140625 9.421875 
Q 21.96875 7.515625 27.59375 7.515625 
L 36.8125 7.515625 
L 36.8125 0 
L 27.59375 0 
Q 17.1875 0 13.234375 3.875 
Q 9.28125 7.765625 9.28125 18.015625 
L 9.28125 47.703125 
L 2.6875 47.703125 
L 2.6875 54.6875 
L 9.28125 54.6875 
L 9.28125 70.21875 
z
" id="DejaVuSans-74"/>
      <path d="M 8.5 21.578125 
L 8.5 54.6875 
L 17.484375 54.6875 
L 17.484375 21.921875 
Q 17.484375 14.15625 20.5 10.265625 
Q 23.53125 6.390625 29.59375 6.390625 
Q 36.859375 6.390625 41.078125 11.03125 
Q 45.3125 15.671875 45.3125 23.6875 
L 45.3125 54.6875 
L 54.296875 54.6875 
L 54.296875 0 
L 45.3125 0 
L 45.3125 8.40625 
Q 42.046875 3.421875 37.71875 1 
Q 33.40625 -1.421875 27.6875 -1.421875 
Q 18.265625 -1.421875 13.375 4.4375 
Q 8.5 10.296875 8.5 21.578125 
z
M 31.109375 56 
z
" id="DejaVuSans-75"/>
      <path d="M 11.71875 12.40625 
L 22.015625 12.40625 
L 22.015625 4 
L 14.015625 -11.625 
L 7.71875 -11.625 
L 11.71875 4 
z
" id="DejaVuSans-2c"/>
      <path d="M 18.109375 8.203125 
L 18.109375 -20.796875 
L 9.078125 -20.796875 
L 9.078125 54.6875 
L 18.109375 54.6875 
L 18.109375 46.390625 
Q 20.953125 51.265625 25.265625 53.625 
Q 29.59375 56 35.59375 56 
Q 45.5625 56 51.78125 48.09375 
Q 58.015625 40.1875 58.015625 27.296875 
Q 58.015625 14.40625 51.78125 6.484375 
Q 45.5625 -1.421875 35.59375 -1.421875 
Q 29.59375 -1.421875 25.265625 0.953125 
Q 20.953125 3.328125 18.109375 8.203125 
z
M 48.6875 27.296875 
Q 48.6875 37.203125 44.609375 42.84375 
Q 40.53125 48.484375 33.40625 48.484375 
Q 26.265625 48.484375 22.1875 42.84375 
Q 18.109375 37.203125 18.109375 27.296875 
Q 18.109375 17.390625 22.1875 11.75 
Q 26.265625 6.109375 33.40625 6.109375 
Q 40.53125 6.109375 44.609375 11.75 
Q 48.6875 17.390625 48.6875 27.296875 
z
" id="DejaVuSans-70"/>
     </defs>
     <g transform="translate(16.139531 286.001989)rotate(-90)scale(0.17 -0.17)">
      <use xlink:href="#DejaVuSans-46"/>
      <use x="57.410156" xlink:href="#DejaVuSans-72"/>
      <use x="98.523438" xlink:href="#DejaVuSans-61"/>
      <use x="159.802734" xlink:href="#DejaVuSans-63"/>
      <use x="214.783203" xlink:href="#DejaVuSans-74"/>
      <use x="253.992188" xlink:href="#DejaVuSans-69"/>
      <use x="281.775391" xlink:href="#DejaVuSans-6f"/>
      <use x="342.957031" xlink:href="#DejaVuSans-6e"/>
      <use x="406.335938" xlink:href="#DejaVuSans-20"/>
      <use x="438.123047" xlink:href="#DejaVuSans-6f"/>
      <use x="499.304688" xlink:href="#DejaVuSans-66"/>
      <use x="534.509766" xlink:href="#DejaVuSans-20"/>
      <use x="566.296875" xlink:href="#DejaVuSans-66"/>
      <use x="601.501953" xlink:href="#DejaVuSans-75"/>
      <use x="664.880859" xlink:href="#DejaVuSans-6e"/>
      <use x="728.259766" xlink:href="#DejaVuSans-63"/>
      <use x="783.240234" xlink:href="#DejaVuSans-74"/>
      <use x="822.449219" xlink:href="#DejaVuSans-69"/>
      <use x="850.232422" xlink:href="#DejaVuSans-6f"/>
      <use x="911.414062" xlink:href="#DejaVuSans-6e"/>
      <use x="974.792969" xlink:href="#DejaVuSans-2c"/>
      <use x="1006.580078" xlink:href="#DejaVuSans-74"/>
      <use x="1045.789062" xlink:href="#DejaVuSans-61"/>
      <use x="1107.068359" xlink:href="#DejaVuSans-72"/>
      <use x="1148.166016" xlink:href="#DejaVuSans-67"/>
      <use x="1211.642578" xlink:href="#DejaVuSans-65"/>
      <use x="1273.166016" xlink:href="#DejaVuSans-74"/>
      <use x="1312.375" xlink:href="#DejaVuSans-20"/>
      <use x="1344.162109" xlink:href="#DejaVuSans-70"/>
      <use x="1407.638672" xlink:href="#DejaVuSans-61"/>
      <use x="1468.917969" xlink:href="#DejaVuSans-69"/>
      <use x="1496.701172" xlink:href="#DejaVuSans-72"/>
      <use x="1537.814453" xlink:href="#DejaVuSans-73"/>
     </g>
    </g>
   </g>
   <g id="line2d_23">
    <defs>
     <path d="M 0 1.5 
C 0.397805 1.5 0.77937 1.341951 1.06066 1.06066 
C 1.341951 0.77937 1.5 0.397805 1.5 0 
C 1.5 -0.397805 1.341951 -0.77937 1.06066 -1.06066 
C 0.77937 -1.341951 0.397805 -1.5 0 -1.5 
C -0.397805 -1.5 -0.77937 -1.341951 -1.06066 -1.06066 
C -1.341951 -0.77937 -1.5 -0.397805 -1.5 0 
C -1.5 0.397805 -1.341951 0.77937 -1.06066 1.06066 
C -0.77937 1.341951 -0.397805 1.5 0 1.5 
z
" id="m5f53b336b8" style="stroke:#000080;"/>
    </defs>
    <g>
     <use style="fill:#000080;stroke:#000080;" x="204.305724" xlink:href="#m5f53b336b8" y="9.697057"/>
     <use style="fill:#000080;stroke:#000080;" x="204.305724" xlink:href="#m5f53b336b8" y="9.697057"/>
    </g>
   </g>
   <g id="line2d_24">
    <path d="M 40.355341 294.88 
L 40.355341 279.222897 
L 52.280845 279.222897 
L 52.280845 276.426986 
L 59.256818 276.426986 
L 59.256818 273.071893 
L 68.045504 273.071893 
L 68.045504 272.51271 
L 79.971009 272.51271 
L 79.971009 271.953528 
L 85.759969 271.953528 
L 85.759969 271.394346 
L 86.946982 271.394346 
L 86.946982 270.835164 
L 88.057358 270.835164 
L 88.057358 270.275981 
L 92.735942 270.275981 
L 92.735942 269.157617 
L 93.536312 269.157617 
L 93.536312 268.039252 
L 99.982863 268.039252 
L 99.982863 267.48007 
L 109.915496 267.48007 
L 109.915496 266.920888 
L 115.311933 266.920888 
L 115.311933 266.361706 
L 117.190692 266.361706 
L 117.190692 265.243341 
L 119.757871 265.243341 
L 119.757871 264.124977 
L 119.927379 264.124977 
L 119.927379 263.565795 
L 120.750735 263.565795 
L 120.750735 263.006612 
L 120.910781 263.006612 
L 120.910781 259.092337 
L 121.069353 259.092337 
L 121.069353 258.533154 
L 121.226476 258.533154 
L 121.226476 257.973972 
L 122.57952 257.973972 
L 122.57952 255.178061 
L 123.698931 255.178061 
L 123.698931 253.500514 
L 128.202449 253.500514 
L 128.202449 252.941332 
L 128.614561 252.941332 
L 128.614561 252.38215 
L 129.699468 252.38215 
L 129.699468 251.822967 
L 131.597991 251.822967 
L 131.597991 251.263785 
L 137.053585 251.263785 
L 137.053585 249.586238 
L 138.08195 249.586238 
L 138.08195 247.908692 
L 139.812259 247.908692 
L 139.812259 247.34951 
L 142.235304 247.34951 
L 142.235304 246.790327 
L 144.153781 246.790327 
L 144.153781 246.231145 
L 146.929256 246.231145 
L 146.929256 245.671963 
L 148.947893 245.671963 
L 148.947893 245.112781 
L 149.103313 245.112781 
L 149.103313 244.553598 
L 150.470913 244.553598 
L 150.470913 243.994416 
L 150.61322 243.994416 
L 150.61322 243.435234 
L 150.950031 243.435234 
L 150.950031 242.316869 
L 152.491002 242.316869 
L 152.491002 241.198505 
L 152.818244 241.198505 
L 152.843161 238.402594 
L 154.160809 238.402594 
L 154.160809 237.843411 
L 155.320124 237.843411 
L 155.320124 237.284229 
L 156.466845 237.284229 
L 156.466845 236.725047 
L 157.351356 236.725047 
L 157.351356 235.606682 
L 157.50395 235.606682 
L 157.50395 235.0475 
L 157.879617 235.0475 
L 157.879617 233.929136 
L 159.167901 233.929136 
L 159.167901 232.810771 
L 161.090594 232.810771 
L 161.090594 232.251589 
L 161.800329 232.251589 
L 161.829891 228.337313 
L 163.096468 228.337313 
L 163.096468 227.218949 
L 163.462976 227.218949 
L 163.462976 226.659767 
L 164.276162 226.659767 
L 164.276162 224.98222 
L 165.077115 224.98222 
L 165.077115 224.423038 
L 166.040126 224.423038 
L 166.040126 223.304673 
L 166.642272 223.304673 
L 166.742463 221.627126 
L 168.341851 221.627126 
L 168.341851 221.067944 
L 168.642643 221.067944 
L 168.642643 219.94958 
L 169.457916 219.94958 
L 169.524143 217.712851 
L 169.953121 217.712851 
L 169.953121 216.594486 
L 171.299044 216.594486 
L 171.409413 213.239393 
L 171.417874 213.239393 
L 171.417874 212.121028 
L 171.561073 212.121028 
L 171.561073 208.765935 
L 172.547272 208.765935 
L 172.547272 208.206753 
L 172.798902 208.206753 
L 172.798902 207.64757 
L 172.946584 207.64757 
L 173.000675 206.529206 
L 173.154291 206.529206 
L 173.154291 204.851659 
L 173.509979 204.851659 
L 173.509979 202.055748 
L 173.975503 202.055748 
L 173.975503 201.496566 
L 174.221602 201.496566 
L 174.221602 200.937384 
L 174.925663 200.937384 
L 174.946346 199.259837 
L 175.287453 199.259837 
L 175.287453 198.700655 
L 175.674846 198.700655 
L 175.674846 197.58229 
L 176.098874 197.58229 
L 176.098874 195.904743 
L 176.575493 195.904743 
L 176.575493 195.345561 
L 176.706614 195.345561 
L 176.706614 194.227197 
L 177.045364 194.227197 
L 177.045364 193.668014 
L 177.335647 193.668014 
L 177.419398 192.54965 
L 177.53834 192.54965 
L 177.638798 191.431285 
L 177.715225 191.431285 
L 177.715225 189.753739 
L 178.143921 189.753739 
L 178.143921 188.635374 
L 178.376921 188.635374 
L 178.410756 185.839463 
L 178.517462 185.839463 
L 178.517462 185.280281 
L 179.014109 185.280281 
L 179.079258 183.602734 
L 179.602275 183.602734 
L 179.602275 182.48437 
L 180.393325 182.48437 
L 180.393325 181.925187 
L 180.667254 181.925187 
L 180.765793 179.129276 
L 180.780525 179.129276 
L 180.780525 178.010912 
L 181.65148 178.010912 
L 181.65148 177.451729 
L 181.809409 177.451729 
L 181.809409 176.892547 
L 182.01166 176.892547 
L 182.116443 174.655818 
L 182.193483 174.655818 
L 182.283679 173.537454 
L 182.723316 173.537454 
L 182.832582 171.300725 
L 183.079142 171.300725 
L 183.147722 167.386449 
L 183.330686 167.386449 
L 183.330686 166.268085 
L 183.482383 166.268085 
L 183.499156 164.590538 
L 184.273598 164.590538 
L 184.273598 164.031356 
L 184.389402 164.031356 
L 184.417239 162.912991 
L 184.626551 162.912991 
L 184.712693 161.794627 
L 185.178915 161.794627 
L 185.178915 161.235444 
L 185.303904 161.235444 
L 185.303904 160.11708 
L 185.599483 160.11708 
L 185.621726 158.439533 
L 185.747229 158.439533 
L 185.791306 157.321169 
L 185.981014 157.321169 
L 186.002769 155.08444 
L 186.211665 155.08444 
L 186.290242 151.729346 
L 186.44986 151.729346 
L 186.555455 150.610982 
L 186.565978 150.610982 
L 186.565978 150.0518 
L 186.992009 150.0518 
L 186.992009 148.374253 
L 187.107936 148.374253 
L 187.107936 146.696706 
L 187.287102 146.696706 
L 187.310627 145.019159 
L 187.570604 145.019159 
L 187.570604 143.900795 
L 187.924209 143.900795 
L 187.924209 143.341613 
L 188.053351 143.341613 
L 188.053351 142.78243 
L 188.178338 142.78243 
L 188.178338 141.664066 
L 188.353073 141.664066 
L 188.453926 138.308973 
L 188.513529 138.308973 
L 188.513529 136.072244 
L 188.650769 136.072244 
L 188.728262 134.953879 
L 188.839241 134.953879 
L 188.839241 133.835515 
L 189.368757 133.835515 
L 189.368757 132.71715 
L 189.611374 132.71715 
L 189.611374 130.480421 
L 189.78094 130.480421 
L 189.78094 127.125328 
L 189.95173 127.125328 
L 189.95173 126.566145 
L 190.11799 126.566145 
L 190.166418 124.888599 
L 190.234556 124.888599 
L 190.316532 122.65187 
L 190.400925 122.65187 
L 190.462551 120.974323 
L 190.706871 120.974323 
L 190.734417 117.61923 
L 190.926009 117.61923 
L 190.926009 115.382501 
L 191.206779 115.382501 
L 191.302911 112.586589 
L 191.477769 112.586589 
L 191.477769 112.027407 
L 191.697777 112.027407 
L 191.697777 110.909043 
L 191.889289 110.909043 
L 191.889289 110.349861 
L 192.060865 110.349861 
L 192.149819 109.231496 
L 192.298736 109.231496 
L 192.298736 108.672314 
L 192.436406 108.672314 
L 192.496136 105.876403 
L 192.728104 105.876403 
L 192.728104 104.758038 
L 193.019761 104.758038 
L 193.03903 103.639674 
L 193.142233 103.639674 
L 193.173312 101.962127 
L 193.25671 101.962127 
L 193.363344 100.28458 
L 193.45523 100.28458 
L 193.476364 96.370304 
L 193.653808 96.370304 
L 193.663096 93.574393 
L 193.85012 93.574393 
L 193.875362 90.778482 
L 194.064642 90.778482 
L 194.064642 90.2193 
L 194.368126 90.2193 
L 194.399294 89.100935 
L 194.567515 89.100935 
L 194.567515 88.541753 
L 194.74937 88.541753 
L 194.74937 87.423389 
L 194.983159 87.423389 
L 194.983159 86.864206 
L 195.164951 86.864206 
L 195.232896 83.509113 
L 195.593572 83.509113 
L 195.678442 81.272384 
L 195.90002 81.272384 
L 195.90002 80.713202 
L 196.056272 80.713202 
L 196.056272 80.15402 
L 196.420051 80.15402 
L 196.520624 69.529557 
L 196.604966 69.529557 
L 196.604966 68.411192 
L 196.758852 68.411192 
L 196.758852 66.733646 
L 196.940181 66.733646 
L 196.945936 65.056099 
L 197.121517 65.056099 
L 197.174601 63.937735 
L 197.265223 63.937735 
L 197.344127 61.701006 
L 197.383444 61.701006 
L 197.448773 60.023459 
L 197.500858 60.023459 
L 197.611942 58.345912 
L 197.757116 58.345912 
L 197.757116 57.78673 
L 197.986154 57.78673 
L 198.092362 54.990819 
L 198.151483 54.990819 
L 198.206835 49.958178 
L 198.400061 49.958178 
L 198.472184 47.72145 
L 198.544006 47.72145 
L 198.566717 45.484721 
L 198.764596 45.484721 
L 198.773223 43.247992 
L 198.91067 43.247992 
L 199.011338 42.129627 
L 199.024943 42.129627 
L 199.086031 40.45208 
L 199.221012 40.45208 
L 199.268006 36.537805 
L 199.515945 36.537805 
L 199.550604 33.182711 
L 199.696722 33.182711 
L 199.77176 31.505165 
L 199.956325 31.505165 
L 199.956325 30.945982 
L 200.110227 30.945982 
L 200.165997 28.150071 
L 200.245355 28.150071 
L 200.305424 26.472524 
L 200.464068 26.472524 
L 200.548291 24.794978 
L 200.6352 24.794978 
L 200.6352 22.558249 
L 200.798514 22.558249 
L 200.798514 21.999066 
L 200.913137 21.999066 
L 200.913137 21.439884 
L 201.125078 21.439884 
L 201.125078 20.880702 
L 201.291281 20.880702 
L 201.374526 18.643973 
L 201.776123 18.643973 
L 201.776123 18.084791 
L 201.937618 18.084791 
L 201.937618 16.966426 
L 202.247675 16.966426 
L 202.247675 15.848062 
L 202.993821 15.848062 
L 203.050416 13.611333 
L 203.73741 13.611333 
L 203.73741 12.492968 
L 204.011832 12.492968 
L 204.011832 11.933786 
L 204.281946 11.933786 
L 204.305724 9.697057 
L 333.429677 9.697057 
L 333.429677 9.697057 
" style="fill:none;stroke:#000080;stroke-linecap:square;stroke-width:1.5;"/>
   </g>
   <g id="line2d_25">
    <defs>
     <path d="M 0 6 
C 1.591219 6 3.117479 5.367802 4.242641 4.242641 
C 5.367802 3.117479 6 1.591219 6 0 
C 6 -1.591219 5.367802 -3.117479 4.242641 -4.242641 
C 3.117479 -5.367802 1.591219 -6 0 -6 
C -1.591219 -6 -3.117479 -5.367802 -4.242641 -4.242641 
C -5.367802 -3.117479 -6 -1.591219 -6 0 
C -6 1.591219 -5.367802 3.117479 -4.242641 4.242641 
C -3.117479 5.367802 -1.591219 6 0 6 
z
" id="m1696d917c8" style="stroke:#000080;stroke-width:1.5;"/>
    </defs>
    <g>
     <use style="fill-opacity:0;stroke:#000080;stroke-width:1.5;" x="159.167901" xlink:href="#m1696d917c8" y="233.929136"/>
     <use style="fill-opacity:0;stroke:#000080;stroke-width:1.5;" x="192.149819" xlink:href="#m1696d917c8" y="109.231496"/>
     <use style="fill-opacity:0;stroke:#000080;stroke-width:1.5;" x="201.374526" xlink:href="#m1696d917c8" y="20.32152"/>
     <use style="fill-opacity:0;stroke:#000080;stroke-width:1.5;" x="204.305724" xlink:href="#m1696d917c8" y="9.697057"/>
     <use style="fill-opacity:0;stroke:#000080;stroke-width:1.5;" x="204.305724" xlink:href="#m1696d917c8" y="9.697057"/>
     <use style="fill-opacity:0;stroke:#000080;stroke-width:1.5;" x="333.429677" xlink:href="#m1696d917c8" y="9.697057"/>
    </g>
   </g>
   <g id="line2d_26">
    <path style="fill:none;stroke:#000080;stroke-linecap:square;stroke-width:1.5;"/>
    <g/>
   </g>
   <g id="line2d_27">
    <defs>
     <path d="M 0 1.5 
C 0.397805 1.5 0.77937 1.341951 1.06066 1.06066 
C 1.341951 0.77937 1.5 0.397805 1.5 0 
C 1.5 -0.397805 1.341951 -0.77937 1.06066 -1.06066 
C 0.77937 -1.341951 0.397805 -1.5 0 -1.5 
C -0.397805 -1.5 -0.77937 -1.341951 -1.06066 -1.06066 
C -1.341951 -0.77937 -1.5 -0.397805 -1.5 0 
C -1.5 0.397805 -1.341951 0.77937 -1.06066 1.06066 
C -0.77937 1.341951 -0.397805 1.5 0 1.5 
z
" id="mf3d5da1530" style="stroke:#ff00ff;"/>
    </defs>
    <g>
     <use style="fill:#ff00ff;stroke:#ff00ff;" x="336.600737" xlink:href="#mf3d5da1530" y="211.002664"/>
     <use style="fill:#ff00ff;stroke:#ff00ff;" x="336.600737" xlink:href="#mf3d5da1530" y="211.002664"/>
    </g>
   </g>
   <g id="line2d_28">
    <path d="M 213.590443 294.88 
L 213.590443 293.761636 
L 214.938211 293.761636 
L 214.938211 293.202453 
L 215.927156 293.202453 
L 215.927156 292.084089 
L 216.8376 292.084089 
L 216.8376 291.524907 
L 220.917849 291.524907 
L 220.917849 290.965724 
L 221.998914 290.965724 
L 221.998914 290.406542 
L 222.163589 290.406542 
L 222.163589 289.288178 
L 223.048475 289.288178 
L 223.048475 287.610631 
L 223.898079 287.610631 
L 223.911689 286.492266 
L 224.161955 286.492266 
L 224.161955 285.933084 
L 224.821172 285.933084 
L 224.821172 285.373902 
L 226.682778 285.373902 
L 226.682778 284.81472 
L 228.385323 284.81472 
L 228.385323 283.696355 
L 230.162735 283.696355 
L 230.162735 283.137173 
L 231.022119 283.137173 
L 231.022119 281.459626 
L 235.457289 281.459626 
L 235.457289 280.900444 
L 241.861934 280.900444 
L 241.861934 280.341262 
L 242.254245 280.341262 
L 242.254245 279.222897 
L 243.801289 279.222897 
L 243.801289 278.663715 
L 246.589249 278.663715 
L 246.589249 278.104533 
L 250.419469 278.104533 
L 250.419469 277.545351 
L 250.653186 277.545351 
L 250.653186 275.867804 
L 253.438846 275.867804 
L 253.438846 274.749439 
L 256.788335 274.749439 
L 256.788335 273.071893 
L 258.719693 273.071893 
L 258.719693 272.51271 
L 259.081143 272.51271 
L 259.081143 271.953528 
L 259.629179 271.953528 
L 259.629179 271.394346 
L 261.908905 271.394346 
L 261.908905 269.157617 
L 264.88763 269.157617 
L 264.88763 268.598435 
L 267.123643 268.598435 
L 267.158008 267.48007 
L 267.446548 267.48007 
L 267.54208 266.361706 
L 267.867296 266.361706 
L 267.867296 265.802523 
L 268.596025 265.802523 
L 268.596025 265.243341 
L 270.193644 265.243341 
L 270.193644 264.684159 
L 270.378001 264.684159 
L 270.378001 262.44743 
L 271.004575 262.44743 
L 271.004575 261.888248 
L 271.601523 261.888248 
L 271.601523 261.329066 
L 272.067565 261.329066 
L 272.067565 259.651519 
L 272.235015 259.651519 
L 272.305813 258.533154 
L 273.573862 258.533154 
L 273.573862 257.41479 
L 274.373296 257.41479 
L 274.398032 255.178061 
L 274.743391 255.178061 
L 274.743391 253.500514 
L 275.79432 253.500514 
L 275.79432 252.941332 
L 276.469838 252.941332 
L 276.469838 252.38215 
L 277.355739 252.38215 
L 277.355739 251.263785 
L 277.541614 251.263785 
L 277.541614 250.704603 
L 277.726449 250.704603 
L 277.726449 250.145421 
L 278.082377 250.145421 
L 278.082377 249.586238 
L 278.556519 249.586238 
L 278.606678 248.467874 
L 278.723417 248.467874 
L 278.784035 247.34951 
L 278.943158 247.34951 
L 278.943158 246.790327 
L 280.785974 246.790327 
L 280.785974 246.231145 
L 282.174502 246.231145 
L 282.174502 245.671963 
L 282.687098 245.671963 
L 282.687098 245.112781 
L 283.100316 245.112781 
L 283.120489 243.435234 
L 283.373283 243.435234 
L 283.373283 242.876052 
L 283.631554 242.876052 
L 283.631554 242.316869 
L 283.988593 242.316869 
L 283.988593 241.198505 
L 284.110265 241.198505 
L 284.110265 240.08014 
L 284.334243 240.08014 
L 284.334243 239.520958 
L 285.626329 239.520958 
L 285.730715 237.843411 
L 286.491533 237.843411 
L 286.491533 237.284229 
L 286.897222 237.284229 
L 286.897222 236.725047 
L 287.882237 236.725047 
L 287.882237 236.165865 
L 289.203227 236.165865 
L 289.203227 235.606682 
L 290.42757 235.606682 
L 290.42757 235.0475 
L 292.160777 235.0475 
L 292.160777 234.488318 
L 293.03091 234.488318 
L 293.03091 233.369954 
L 294.111668 233.369954 
L 294.220291 231.133225 
L 296.608766 231.133225 
L 296.608766 230.574042 
L 297.912231 230.574042 
L 297.912231 230.01486 
L 298.438524 230.01486 
L 298.438524 229.455678 
L 298.985482 229.455678 
L 298.985482 228.896496 
L 299.863128 228.896496 
L 299.863128 228.337313 
L 299.978654 228.337313 
L 299.978654 227.218949 
L 301.210533 227.218949 
L 301.210533 226.659767 
L 301.729573 226.659767 
L 301.729573 225.541402 
L 302.229532 225.541402 
L 302.229532 224.423038 
L 306.003357 224.423038 
L 306.003357 223.304673 
L 306.880386 223.304673 
L 306.880386 222.186309 
L 307.02778 222.186309 
L 307.02778 221.627126 
L 307.565186 221.627126 
L 307.565186 221.067944 
L 308.419541 221.067944 
L 308.419541 220.508762 
L 309.046793 220.508762 
L 309.046793 219.94958 
L 309.956478 219.94958 
L 309.956478 219.390397 
L 310.410866 219.390397 
L 310.410866 218.831215 
L 311.674689 218.831215 
L 311.674689 218.272033 
L 313.945391 218.272033 
L 313.945391 217.712851 
L 314.54773 217.712851 
L 314.54773 217.153669 
L 314.981422 217.153669 
L 314.981422 216.594486 
L 315.966139 216.594486 
L 315.966139 216.035304 
L 316.890386 216.035304 
L 316.921901 214.91694 
L 319.425257 214.91694 
L 319.425257 214.357757 
L 320.912273 214.357757 
L 320.912273 213.798575 
L 324.459738 213.798575 
L 324.459738 213.239393 
L 325.02976 213.239393 
L 325.02976 212.680211 
L 326.342982 212.680211 
L 326.342982 212.121028 
L 327.351778 212.121028 
L 327.351778 211.561846 
L 333.429677 211.561846 
L 333.429677 211.561846 
" style="fill:none;stroke:#ff00ff;stroke-linecap:square;stroke-width:1.5;"/>
   </g>
   <g id="line2d_29">
    <defs>
     <path d="M -0 8.485281 
L 5.091169 0 
L 0 -8.485281 
L -5.091169 -0 
z
" id="mb23d9421b0" style="stroke:#ff00ff;stroke-linejoin:miter;stroke-width:1.5;"/>
    </defs>
    <g>
     <use style="fill-opacity:0;stroke:#ff00ff;stroke-linejoin:miter;stroke-width:1.5;" x="293.03091" xlink:href="#mb23d9421b0" y="234.488318"/>
     <use style="fill-opacity:0;stroke:#ff00ff;stroke-linejoin:miter;stroke-width:1.5;" x="327.351778" xlink:href="#mb23d9421b0" y="211.561846"/>
     <use style="fill-opacity:0;stroke:#ff00ff;stroke-linejoin:miter;stroke-width:1.5;" x="327.351778" xlink:href="#mb23d9421b0" y="211.561846"/>
     <use style="fill-opacity:0;stroke:#ff00ff;stroke-linejoin:miter;stroke-width:1.5;" x="333.429677" xlink:href="#mb23d9421b0" y="211.561846"/>
    </g>
   </g>
   <g id="line2d_30">
    <path style="fill:none;stroke:#ff00ff;stroke-linecap:square;stroke-width:1.5;"/>
    <g/>
   </g>
   <g id="line2d_31">
    <path clip-path="url(#p32087583a7)" d="M 266.123863 268.598435 
" style="fill:none;stroke:#ff00ff;stroke-linecap:square;stroke-width:1.5;"/>
    <defs>
     <path d="M -12 12 
L 12 -12 
M -12 -12 
L 12 12 
" id="md379dafb64" style="stroke:#ff00ff;stroke-width:3;"/>
    </defs>
    <g clip-path="url(#p32087583a7)">
     <use style="fill:#ff00ff;stroke:#ff00ff;stroke-width:3;" x="266.123863" xlink:href="#md379dafb64" y="268.598435"/>
    </g>
   </g>
   <g id="line2d_32">
    <defs>
     <path d="M 0 1.5 
C 0.397805 1.5 0.77937 1.341951 1.06066 1.06066 
C 1.341951 0.77937 1.5 0.397805 1.5 0 
C 1.5 -0.397805 1.341951 -0.77937 1.06066 -1.06066 
C 0.77937 -1.341951 0.397805 -1.5 0 -1.5 
C -0.397805 -1.5 -0.77937 -1.341951 -1.06066 -1.06066 
C -1.341951 -0.77937 -1.5 -0.397805 -1.5 0 
C -1.5 0.397805 -1.341951 0.77937 -1.06066 1.06066 
C -0.77937 1.341951 -0.397805 1.5 0 1.5 
z
" id="mac36bb8bf5" style="stroke:#ffa500;"/>
    </defs>
    <g>
     <use style="fill:#ffa500;stroke:#ffa500;" x="344.479571" xlink:href="#mac36bb8bf5" y="9.697057"/>
     <use style="fill:#ffa500;stroke:#ffa500;" x="344.479571" xlink:href="#mac36bb8bf5" y="9.697057"/>
    </g>
   </g>
   <g id="line2d_33">
    <path d="M 40.355341 294.88 
L 40.355341 293.761636 
L 52.280845 293.761636 
L 52.280845 293.202453 
L 86.946982 293.202453 
L 86.946982 292.643271 
L 105.848459 292.643271 
L 105.848459 292.084089 
L 117.581728 292.084089 
L 117.581728 289.84736 
L 119.927379 289.84736 
L 119.927379 288.169813 
L 121.991263 288.169813 
L 121.991263 287.051449 
L 122.140223 287.051449 
L 122.140223 285.933084 
L 122.866275 285.933084 
L 122.866275 284.81472 
L 128.306406 284.81472 
L 128.306406 283.696355 
L 131.425941 283.696355 
L 131.425941 282.577991 
L 132.595654 282.577991 
L 132.595654 282.018808 
L 132.836286 282.018808 
L 132.836286 280.341262 
L 133.766505 280.341262 
L 133.766505 279.222897 
L 145.578446 279.222897 
L 145.578446 278.104533 
L 148.440899 278.104533 
L 148.440899 277.545351 
L 159.543047 277.545351 
L 159.543047 275.867804 
L 160.494559 275.867804 
L 160.494559 275.308622 
L 164.147575 275.308622 
L 164.147575 274.190257 
L 166.428824 274.190257 
L 166.428824 273.631075 
L 167.671514 273.631075 
L 167.765902 272.51271 
L 168.00479 272.51271 
L 168.00479 271.953528 
L 170.648088 271.953528 
L 170.648088 271.394346 
L 170.789041 271.394346 
L 170.789041 270.835164 
L 171.736337 270.835164 
L 171.736337 270.275981 
L 172.11412 270.275981 
L 172.11412 269.157617 
L 173.261012 269.157617 
L 173.261012 268.039252 
L 175.212988 268.039252 
L 175.280697 266.920888 
L 175.930515 266.920888 
L 175.930515 266.361706 
L 181.786275 266.361706 
L 181.786275 265.243341 
L 182.863052 265.243341 
L 182.863052 264.124977 
L 183.649381 264.124977 
L 183.649381 261.888248 
L 184.116622 261.888248 
L 184.116622 260.210701 
L 185.129427 260.210701 
L 185.129427 259.651519 
L 185.416748 259.651519 
L 185.416748 257.973972 
L 187.270279 257.973972 
L 187.270279 255.737243 
L 188.653876 255.737243 
L 188.653876 255.178061 
L 189.763476 255.178061 
L 189.763476 253.500514 
L 190.720649 253.500514 
L 190.720649 252.38215 
L 190.909671 252.38215 
L 190.909671 251.822967 
L 194.410412 251.822967 
L 194.410412 251.263785 
L 194.877482 251.263785 
L 194.877482 250.704603 
L 194.991757 250.704603 
L 194.991757 250.145421 
L 195.285792 250.145421 
L 195.285792 249.586238 
L 196.770483 249.586238 
L 196.770483 249.027056 
L 198.213965 249.027056 
L 198.213965 247.908692 
L 198.544006 247.908692 
L 198.544006 247.34951 
L 198.731773 247.34951 
L 198.731773 246.231145 
L 199.604928 246.231145 
L 199.604928 245.112781 
L 200.622811 245.112781 
L 200.622811 244.553598 
L 200.786242 244.553598 
L 200.786242 243.435234 
L 201.492753 243.435234 
L 201.492753 242.316869 
L 201.927569 242.316869 
L 201.927569 241.757687 
L 202.08054 241.757687 
L 202.08054 241.198505 
L 202.816093 241.198505 
L 202.816093 240.639323 
L 203.50446 240.639323 
L 203.54503 239.520958 
L 205.454592 239.520958 
L 205.46161 237.843411 
L 205.764139 237.843411 
L 205.764139 236.725047 
L 206.474287 236.725047 
L 206.474287 236.165865 
L 207.132953 236.165865 
L 207.132953 234.488318 
L 208.502076 234.488318 
L 208.502076 233.929136 
L 209.524523 233.929136 
L 209.524523 233.369954 
L 209.809331 233.369954 
L 209.809331 232.810771 
L 210.561042 232.810771 
L 210.561042 232.251589 
L 266.325963 232.251589 
L 266.411315 229.455678 
L 266.462877 229.455678 
L 266.570905 222.745491 
L 266.585751 222.745491 
L 266.63499 217.712851 
L 266.717629 217.712851 
L 266.764172 214.91694 
L 278.202376 214.91694 
L 278.306829 205.970024 
L 278.315775 205.970024 
L 278.386509 199.259837 
L 285.116319 199.259837 
L 285.225548 189.194556 
L 285.235385 189.194556 
L 285.241435 186.957828 
L 290.046672 186.957828 
L 290.142718 175.215 
L 293.875393 175.215 
L 293.949677 161.794627 
L 297.007155 161.794627 
L 297.056188 151.170164 
L 299.646842 151.170164 
L 299.695931 142.78243 
L 301.938756 142.78243 
L 301.985283 131.039603 
L 303.960937 131.039603 
L 303.999151 121.533505 
L 305.770242 121.533505 
L 305.799838 115.941683 
L 307.407251 115.941683 
L 307.437515 108.113132 
L 308.901945 108.113132 
L 308.93248 103.639674 
L 310.279485 103.639674 
L 310.305773 96.370304 
L 311.550432 96.370304 
L 311.575026 90.2193 
L 312.73805 90.2193 
L 312.76084 85.18666 
L 313.845081 85.18666 
L 313.865904 79.035655 
L 314.886991 79.035655 
L 314.908927 74.003015 
L 315.86939 74.003015 
L 315.888527 70.088739 
L 316.798711 70.088739 
L 316.804719 66.733646 
L 317.682146 66.733646 
L 317.697062 63.378552 
L 318.520759 63.378552 
L 318.536561 59.464277 
L 319.3188 59.464277 
L 319.330175 56.109183 
L 320.085914 56.109183 
L 320.095867 54.431636 
L 320.816855 54.431636 
L 320.829014 49.958178 
L 321.51788 49.958178 
L 321.524644 48.839814 
L 322.192826 48.839814 
L 322.204907 44.366356 
L 322.842443 44.366356 
L 322.842443 43.807174 
L 323.464969 43.807174 
L 323.477278 38.774534 
L 324.068333 38.774534 
L 324.081201 36.537805 
L 324.654745 36.537805 
L 324.663483 33.741894 
L 325.217914 33.741894 
L 325.223868 32.064347 
L 325.762081 32.064347 
L 325.767366 29.827618 
L 326.292384 29.827618 
L 326.300565 27.031707 
L 326.803462 27.031707 
L 326.809675 25.35416 
L 327.309727 25.35416 
L 327.309727 24.794978 
L 327.786362 24.794978 
L 327.794599 21.439884 
L 328.26036 21.439884 
L 328.264904 20.32152 
L 328.717053 20.32152 
L 328.718099 19.203155 
L 330.02639 19.203155 
L 330.02639 18.643973 
L 331.239789 18.643973 
L 331.242125 17.525609 
L 331.628506 17.525609 
L 331.628506 16.966426 
L 332.002954 16.966426 
L 332.008253 15.28888 
L 333.429677 15.28888 
L 333.429677 15.28888 
" style="fill:none;stroke:#ffa500;stroke-linecap:square;stroke-width:1.5;"/>
   </g>
   <g id="line2d_34">
    <defs>
     <path d="M 0 -6 
L -1.347084 -1.854102 
L -5.706339 -1.854102 
L -2.179628 0.708204 
L -3.526712 4.854102 
L -0 2.291796 
L 3.526712 4.854102 
L 2.179628 0.708204 
L 5.706339 -1.854102 
L 1.347084 -1.854102 
z
" id="m096b1337b4" style="stroke:#ffa500;stroke-linejoin:bevel;stroke-width:1.5;"/>
    </defs>
    <g>
     <use style="fill-opacity:0;stroke:#ffa500;stroke-linejoin:bevel;stroke-width:1.5;" x="160.494559" xlink:href="#m096b1337b4" y="275.308622"/>
     <use style="fill-opacity:0;stroke:#ffa500;stroke-linejoin:bevel;stroke-width:1.5;" x="210.561042" xlink:href="#m096b1337b4" y="232.251589"/>
     <use style="fill-opacity:0;stroke:#ffa500;stroke-linejoin:bevel;stroke-width:1.5;" x="293.949677" xlink:href="#m096b1337b4" y="161.794627"/>
     <use style="fill-opacity:0;stroke:#ffa500;stroke-linejoin:bevel;stroke-width:1.5;" x="326.296521" xlink:href="#m096b1337b4" y="28.709253"/>
     <use style="fill-opacity:0;stroke:#ffa500;stroke-linejoin:bevel;stroke-width:1.5;" x="332.008253" xlink:href="#m096b1337b4" y="15.28888"/>
     <use style="fill-opacity:0;stroke:#ffa500;stroke-linejoin:bevel;stroke-width:1.5;" x="333.429677" xlink:href="#m096b1337b4" y="15.28888"/>
    </g>
   </g>
   <g id="line2d_35">
    <path style="fill:none;stroke:#ffa500;stroke-linecap:square;stroke-width:1.5;"/>
    <g/>
   </g>
   <g id="line2d_36">
    <path clip-path="url(#p32087583a7)" d="M 266.123863 232.251589 
" style="fill:none;stroke:#ffa500;stroke-linecap:square;stroke-width:1.5;"/>
    <defs>
     <path d="M -12 12 
L 12 -12 
M -12 -12 
L 12 12 
" id="m34438f6fe6" style="stroke:#ffa500;stroke-width:3;"/>
    </defs>
    <g clip-path="url(#p32087583a7)">
     <use style="fill:#ffa500;stroke:#ffa500;stroke-width:3;" x="266.123863" xlink:href="#m34438f6fe6" y="232.251589"/>
    </g>
   </g>
   <g id="line2d_37">
    <defs>
     <path d="M 0 1.5 
C 0.397805 1.5 0.77937 1.341951 1.06066 1.06066 
C 1.341951 0.77937 1.5 0.397805 1.5 0 
C 1.5 -0.397805 1.341951 -0.77937 1.06066 -1.06066 
C 0.77937 -1.341951 0.397805 -1.5 0 -1.5 
C -0.397805 -1.5 -0.77937 -1.341951 -1.06066 -1.06066 
C -1.341951 -0.77937 -1.5 -0.397805 -1.5 0 
C -1.5 0.397805 -1.341951 0.77937 -1.06066 1.06066 
C -0.77937 1.341951 -0.397805 1.5 0 1.5 
z
" id="maf7e29e66e" style="stroke:#6495ed;"/>
    </defs>
    <g>
     <use style="fill:#6495ed;stroke:#6495ed;" x="293.874077" xlink:href="#maf7e29e66e" y="250.145421"/>
     <use style="fill:#6495ed;stroke:#6495ed;" x="293.874077" xlink:href="#maf7e29e66e" y="250.145421"/>
    </g>
   </g>
   <g id="line2d_38">
    <path d="M 40.355341 294.88 
L 40.355341 294.320818 
L 52.280845 294.320818 
L 52.280845 293.761636 
L 59.256818 293.761636 
L 59.256818 292.643271 
L 78.158295 292.643271 
L 78.158295 291.524907 
L 94.301099 291.524907 
L 94.301099 290.406542 
L 100.512285 290.406542 
L 100.512285 289.84736 
L 120.910781 289.84736 
L 120.910781 289.288178 
L 121.226476 289.288178 
L 121.226476 288.728995 
L 122.140223 288.728995 
L 122.140223 288.169813 
L 125.002954 288.169813 
L 125.002954 287.610631 
L 125.498092 287.610631 
L 125.498092 286.492266 
L 130.355864 286.492266 
L 130.355864 285.373902 
L 131.768338 285.373902 
L 131.768338 284.81472 
L 133.8418 284.81472 
L 133.8418 283.137173 
L 138.14057 283.137173 
L 138.14057 282.018808 
L 146.894108 282.018808 
L 146.894108 281.459626 
L 148.473027 281.459626 
L 148.473027 280.900444 
L 153.881805 280.900444 
L 153.881805 279.782079 
L 154.638437 279.782079 
L 154.638437 279.222897 
L 157.042047 279.222897 
L 157.042047 278.104533 
L 158.247257 278.104533 
L 158.247257 276.986168 
L 160.430601 276.986168 
L 160.430601 275.308622 
L 161.365878 275.308622 
L 161.365878 274.749439 
L 167.331653 274.749439 
L 167.331653 274.190257 
L 167.438583 274.190257 
L 167.438583 273.631075 
L 171.66978 273.631075 
L 171.66978 273.071893 
L 172.275821 273.071893 
L 172.275821 272.51271 
L 174.654496 272.51271 
L 174.654496 271.394346 
L 175.415321 271.394346 
L 175.415321 270.275981 
L 176.650542 270.275981 
L 176.650542 269.716799 
L 176.663018 269.716799 
L 176.663018 268.039252 
L 179.438544 268.039252 
L 179.438544 267.48007 
L 180.135361 267.48007 
L 180.135361 266.920888 
L 180.800149 266.920888 
L 180.800149 266.361706 
L 181.004855 266.361706 
L 181.004855 265.802523 
L 181.1544 265.802523 
L 181.1544 265.243341 
L 183.785945 265.243341 
L 183.785945 264.684159 
L 184.325607 264.684159 
L 184.325607 264.124977 
L 187.940405 264.124977 
L 187.940405 263.565795 
L 191.793799 263.565795 
L 191.793799 262.44743 
L 192.373965 262.44743 
L 192.373965 261.888248 
L 193.060682 261.888248 
L 193.060682 261.329066 
L 193.845527 261.329066 
L 193.845527 260.769883 
L 193.912012 260.769883 
L 193.912012 260.210701 
L 195.670181 260.210701 
L 195.670181 259.092337 
L 195.715571 259.092337 
L 195.715571 257.41479 
L 196.502918 257.41479 
L 196.502918 256.855608 
L 203.741288 256.855608 
L 203.741288 256.296425 
L 204.189021 256.296425 
L 204.189021 255.737243 
L 266.305751 255.737243 
L 266.305751 255.178061 
L 266.397164 255.178061 
L 266.397164 254.618879 
L 266.575966 254.618879 
L 266.575966 254.059696 
L 266.577508 254.059696 
L 266.577508 252.941332 
L 278.140552 252.941332 
L 278.140552 252.38215 
L 278.276904 252.38215 
L 278.276904 251.263785 
L 278.277685 251.263785 
L 278.277685 250.704603 
L 293.874077 250.704603 
L 293.874077 250.145421 
L 333.429677 250.145421 
" style="fill:none;stroke:#6495ed;stroke-linecap:square;stroke-width:1.5;"/>
   </g>
   <g id="line2d_39">
    <defs>
     <path d="M -0 6 
L 6 -6 
L -6 -6 
z
" id="md83ca2933f" style="stroke:#6495ed;stroke-linejoin:miter;stroke-width:1.5;"/>
    </defs>
    <g>
     <use style="fill-opacity:0;stroke:#6495ed;stroke-linejoin:miter;stroke-width:1.5;" x="100.512285" xlink:href="#md83ca2933f" y="290.406542"/>
     <use style="fill-opacity:0;stroke:#6495ed;stroke-linejoin:miter;stroke-width:1.5;" x="160.430601" xlink:href="#md83ca2933f" y="275.308622"/>
     <use style="fill-opacity:0;stroke:#6495ed;stroke-linejoin:miter;stroke-width:1.5;" x="204.189021" xlink:href="#md83ca2933f" y="256.296425"/>
     <use style="fill-opacity:0;stroke:#6495ed;stroke-linejoin:miter;stroke-width:1.5;" x="278.277685" xlink:href="#md83ca2933f" y="251.263785"/>
     <use style="fill-opacity:0;stroke:#6495ed;stroke-linejoin:miter;stroke-width:1.5;" x="293.874077" xlink:href="#md83ca2933f" y="250.145421"/>
     <use style="fill-opacity:0;stroke:#6495ed;stroke-linejoin:miter;stroke-width:1.5;" x="333.429677" xlink:href="#md83ca2933f" y="250.145421"/>
    </g>
   </g>
   <g id="line2d_40">
    <path style="fill:none;stroke:#6495ed;stroke-linecap:square;stroke-width:1.5;"/>
    <g/>
   </g>
   <g id="line2d_41">
    <path clip-path="url(#p32087583a7)" d="M 266.123863 255.737243 
" style="fill:none;stroke:#6495ed;stroke-linecap:square;stroke-width:1.5;"/>
    <defs>
     <path d="M -12 12 
L 12 -12 
M -12 -12 
L 12 12 
" id="m0f12b4432a" style="stroke:#6495ed;stroke-width:3;"/>
    </defs>
    <g clip-path="url(#p32087583a7)">
     <use style="fill:#6495ed;stroke:#6495ed;stroke-width:3;" x="266.123863" xlink:href="#m0f12b4432a" y="255.737243"/>
    </g>
   </g>
   <g id="line2d_42">
    <defs>
     <path d="M 0 1.5 
C 0.397805 1.5 0.77937 1.341951 1.06066 1.06066 
C 1.341951 0.77937 1.5 0.397805 1.5 0 
C 1.5 -0.397805 1.341951 -0.77937 1.06066 -1.06066 
C 0.77937 -1.341951 0.397805 -1.5 0 -1.5 
C -0.397805 -1.5 -0.77937 -1.341951 -1.06066 -1.06066 
C -1.341951 -0.77937 -1.5 -0.397805 -1.5 0 
C -1.5 0.397805 -1.341951 0.77937 -1.06066 1.06066 
C -0.77937 1.341951 -0.397805 1.5 0 1.5 
z
" id="m43e13d67c8" style="stroke:#ff0000;"/>
    </defs>
    <g>
     <use style="fill:#ff0000;stroke:#ff0000;" x="147.448035" xlink:href="#m43e13d67c8" y="9.697057"/>
     <use style="fill:#ff0000;stroke:#ff0000;" x="147.448035" xlink:href="#m43e13d67c8" y="9.697057"/>
    </g>
   </g>
   <g id="line2d_43">
    <path d="M 40.355341 294.88 
L 40.355341 292.643271 
L 52.280845 292.643271 
L 52.280845 292.084089 
L 59.256818 292.084089 
L 59.256818 291.524907 
L 64.20635 291.524907 
L 64.20635 290.965724 
L 68.045504 290.965724 
L 68.045504 289.84736 
L 78.158295 289.84736 
L 78.158295 289.288178 
L 119.757871 289.288178 
L 119.757871 287.610631 
L 119.927379 287.610631 
L 119.927379 286.492266 
L 120.750735 286.492266 
L 120.750735 285.933084 
L 126.097625 285.933084 
L 126.097625 285.373902 
L 128.306406 285.373902 
L 128.306406 284.255537 
L 129.983852 284.255537 
L 129.983852 283.137173 
L 131.597991 283.137173 
L 131.597991 281.459626 
L 131.683376 281.459626 
L 131.683376 280.341262 
L 131.937015 280.341262 
L 131.937015 279.782079 
L 132.186969 279.782079 
L 132.186969 279.222897 
L 132.269486 279.222897 
L 132.269486 278.663715 
L 132.51469 278.663715 
L 132.51469 278.104533 
L 132.595654 278.104533 
L 132.595654 275.867804 
L 133.15198 275.867804 
L 133.15198 275.308622 
L 133.307682 275.308622 
L 133.307682 274.190257 
L 133.766505 274.190257 
L 133.766505 273.631075 
L 133.8418 273.631075 
L 133.8418 273.071893 
L 134.432583 273.071893 
L 134.432583 271.394346 
L 134.577163 271.394346 
L 134.577163 269.716799 
L 138.373071 269.716799 
L 138.373071 269.157617 
L 138.659348 269.157617 
L 138.659348 266.361706 
L 138.772539 266.361706 
L 138.772539 245.112781 
L 138.94094 245.112781 
L 138.94094 243.994416 
L 139.052299 243.994416 
L 139.052299 242.316869 
L 139.327583 242.316869 
L 139.327583 227.218949 
L 139.544682 227.218949 
L 139.544682 226.659767 
L 139.759075 226.659767 
L 139.759075 226.100584 
L 139.812259 226.100584 
L 139.812259 222.186309 
L 139.97083 222.186309 
L 139.97083 219.94958 
L 140.023364 219.94958 
L 140.023364 219.390397 
L 140.075738 219.390397 
L 140.075738 188.076192 
L 140.23191 188.076192 
L 140.23191 186.398645 
L 140.590892 186.398645 
L 140.590892 185.839463 
L 140.842798 185.839463 
L 140.842798 183.602734 
L 140.99219 183.602734 
L 140.99219 182.48437 
L 141.529123 182.48437 
L 141.529123 169.623178 
L 142.003116 169.623178 
L 142.003116 167.945631 
L 142.913639 167.945631 
L 142.913639 152.288529 
L 143.002096 152.288529 
L 143.002096 151.729346 
L 143.133935 151.729346 
L 143.133935 136.631426 
L 143.351446 136.631426 
L 143.351446 134.953879 
L 143.566241 134.953879 
L 143.566241 134.394697 
L 143.60888 134.394697 
L 143.60888 118.178412 
L 144.112473 118.178412 
L 144.112473 104.758038 
L 144.153781 104.758038 
L 144.153781 91.337664 
L 144.601744 91.337664 
L 144.601744 76.798926 
L 144.721918 76.798926 
L 144.721918 58.905094 
L 145.349044 58.905094 
L 145.349044 45.484721 
L 146.321752 45.484721 
L 146.321752 27.031707 
L 147.242397 27.031707 
L 147.242397 25.35416 
L 147.448035 25.35416 
L 147.448035 9.697057 
L 333.429677 9.697057 
" style="fill:none;stroke:#ff0000;stroke-linecap:square;stroke-width:1.5;"/>
   </g>
   <g id="line2d_44">
    <defs>
     <path d="M 0 -6 
L -5.196152 -3 
L -5.196152 3 
L -0 6 
L 5.196152 3 
L 5.196152 -3 
z
" id="m593692d15e" style="stroke:#ff0000;stroke-linejoin:miter;stroke-width:1.5;"/>
    </defs>
    <g>
     <use style="fill-opacity:0;stroke:#ff0000;stroke-linejoin:miter;stroke-width:1.5;" x="78.158295" xlink:href="#m593692d15e" y="289.84736"/>
     <use style="fill-opacity:0;stroke:#ff0000;stroke-linejoin:miter;stroke-width:1.5;" x="143.133935" xlink:href="#m593692d15e" y="151.729346"/>
     <use style="fill-opacity:0;stroke:#ff0000;stroke-linejoin:miter;stroke-width:1.5;" x="147.242397" xlink:href="#m593692d15e" y="25.35416"/>
     <use style="fill-opacity:0;stroke:#ff0000;stroke-linejoin:miter;stroke-width:1.5;" x="147.448035" xlink:href="#m593692d15e" y="9.697057"/>
     <use style="fill-opacity:0;stroke:#ff0000;stroke-linejoin:miter;stroke-width:1.5;" x="147.448035" xlink:href="#m593692d15e" y="9.697057"/>
     <use style="fill-opacity:0;stroke:#ff0000;stroke-linejoin:miter;stroke-width:1.5;" x="333.429677" xlink:href="#m593692d15e" y="9.697057"/>
    </g>
   </g>
   <g id="line2d_45">
    <path style="fill:none;stroke:#ff0000;stroke-linecap:square;stroke-width:1.5;"/>
    <g/>
   </g>
   <g id="line2d_46">
    <path d="M 333.429677 250.145421 
L 363.933742 289.176341 
" style="fill:none;stroke:#6495ed;stroke-linecap:square;stroke-width:1.5;"/>
    <g>
     <use style="fill-opacity:0;stroke:#6495ed;stroke-linejoin:miter;stroke-width:1.5;" x="333.429677" xlink:href="#md83ca2933f" y="250.145421"/>
     <use style="fill-opacity:0;stroke:#6495ed;stroke-linejoin:miter;stroke-width:1.5;" x="363.933742" xlink:href="#md83ca2933f" y="289.176341"/>
    </g>
   </g>
   <g id="line2d_47">
    <path d="M 333.429677 211.561846 
L 363.933742 220.732435 
" style="fill:none;stroke:#ff00ff;stroke-linecap:square;stroke-width:1.5;"/>
    <g>
     <use style="fill-opacity:0;stroke:#ff00ff;stroke-linejoin:miter;stroke-width:1.5;" x="333.429677" xlink:href="#mb23d9421b0" y="211.561846"/>
     <use style="fill-opacity:0;stroke:#ff00ff;stroke-linejoin:miter;stroke-width:1.5;" x="363.933742" xlink:href="#mb23d9421b0" y="220.732435"/>
    </g>
   </g>
   <g id="line2d_48">
    <path d="M 333.429677 15.28888 
L 363.933742 152.288529 
" style="fill:none;stroke:#ffa500;stroke-linecap:square;stroke-width:1.5;"/>
    <g>
     <use style="fill-opacity:0;stroke:#ffa500;stroke-linejoin:bevel;stroke-width:1.5;" x="333.429677" xlink:href="#m096b1337b4" y="15.28888"/>
     <use style="fill-opacity:0;stroke:#ffa500;stroke-linejoin:bevel;stroke-width:1.5;" x="363.933742" xlink:href="#m096b1337b4" y="152.288529"/>
    </g>
   </g>
   <g id="line2d_49">
    <path d="M 333.429677 9.697057 
L 363.933742 83.844622 
" style="fill:none;stroke:#000080;stroke-linecap:square;stroke-width:1.5;"/>
    <g>
     <use style="fill-opacity:0;stroke:#000080;stroke-width:1.5;" x="333.429677" xlink:href="#m1696d917c8" y="9.697057"/>
     <use style="fill-opacity:0;stroke:#000080;stroke-width:1.5;" x="363.933742" xlink:href="#m1696d917c8" y="83.844622"/>
    </g>
   </g>
   <g id="line2d_50">
    <path d="M 333.429677 9.697057 
L 363.933742 15.400716 
" style="fill:none;stroke:#ff0000;stroke-linecap:square;stroke-width:1.5;"/>
    <g>
     <use style="fill-opacity:0;stroke:#ff0000;stroke-linejoin:miter;stroke-width:1.5;" x="333.429677" xlink:href="#m593692d15e" y="9.697057"/>
     <use style="fill-opacity:0;stroke:#ff0000;stroke-linejoin:miter;stroke-width:1.5;" x="363.933742" xlink:href="#m593692d15e" y="15.400716"/>
    </g>
   </g>
   <g id="line2d_51">
    <path d="M 333.429677 294.88 
L 333.429677 9.697057 
" style="fill:none;stroke:#000000;stroke-linecap:square;stroke-width:1.5;"/>
   </g>
   <g id="patch_3">
    <path d="M 56.12 294.88 
L 56.12 6.845228 
" style="fill:none;stroke:#000000;stroke-linecap:square;stroke-linejoin:miter;stroke-width:0.8;"/>
   </g>
   <g id="patch_4">
    <path d="M 399.984 294.88 
L 399.984 6.845228 
" style="fill:none;stroke:#000000;stroke-linecap:square;stroke-linejoin:miter;stroke-width:0.8;"/>
   </g>
   <g id="patch_5">
    <path d="M 56.12 294.88 
L 399.984 294.88 
" style="fill:none;stroke:#000000;stroke-linecap:square;stroke-linejoin:miter;stroke-width:0.8;"/>
   </g>
   <g id="patch_6">
    <path d="M 56.12 6.845228 
L 399.984 6.845228 
" style="fill:none;stroke:#000000;stroke-linecap:square;stroke-linejoin:miter;stroke-width:0.8;"/>
   </g>
   <g id="text_14">
    <!-- f4 -->
    <g transform="translate(369.479935 293.867279)scale(0.17 -0.17)">
     <use xlink:href="#DejaVuSans-66"/>
     <use x="35.205078" xlink:href="#DejaVuSans-34"/>
    </g>
   </g>
   <g id="text_15">
    <!-- f2 -->
    <g transform="translate(369.479935 225.423372)scale(0.17 -0.17)">
     <use xlink:href="#DejaVuSans-66"/>
     <use x="35.205078" xlink:href="#DejaVuSans-32"/>
    </g>
   </g>
   <g id="text_16">
    <!-- f3 -->
    <defs>
     <path d="M 40.578125 39.3125 
Q 47.65625 37.796875 51.625 33 
Q 55.609375 28.21875 55.609375 21.1875 
Q 55.609375 10.40625 48.1875 4.484375 
Q 40.765625 -1.421875 27.09375 -1.421875 
Q 22.515625 -1.421875 17.65625 -0.515625 
Q 12.796875 0.390625 7.625 2.203125 
L 7.625 11.71875 
Q 11.71875 9.328125 16.59375 8.109375 
Q 21.484375 6.890625 26.8125 6.890625 
Q 36.078125 6.890625 40.9375 10.546875 
Q 45.796875 14.203125 45.796875 21.1875 
Q 45.796875 27.640625 41.28125 31.265625 
Q 36.765625 34.90625 28.71875 34.90625 
L 20.21875 34.90625 
L 20.21875 43.015625 
L 29.109375 43.015625 
Q 36.375 43.015625 40.234375 45.921875 
Q 44.09375 48.828125 44.09375 54.296875 
Q 44.09375 59.90625 40.109375 62.90625 
Q 36.140625 65.921875 28.71875 65.921875 
Q 24.65625 65.921875 20.015625 65.03125 
Q 15.375 64.15625 9.8125 62.3125 
L 9.8125 71.09375 
Q 15.4375 72.65625 20.34375 73.4375 
Q 25.25 74.21875 29.59375 74.21875 
Q 40.828125 74.21875 47.359375 69.109375 
Q 53.90625 64.015625 53.90625 55.328125 
Q 53.90625 49.265625 50.4375 45.09375 
Q 46.96875 40.921875 40.578125 39.3125 
z
" id="DejaVuSans-33"/>
    </defs>
    <g transform="translate(369.479935 156.979466)scale(0.17 -0.17)">
     <use xlink:href="#DejaVuSans-66"/>
     <use x="35.205078" xlink:href="#DejaVuSans-33"/>
    </g>
   </g>
   <g id="text_17">
    <!-- f1 -->
    <g transform="translate(369.479935 88.53556)scale(0.17 -0.17)">
     <use xlink:href="#DejaVuSans-66"/>
     <use x="35.205078" xlink:href="#DejaVuSans-31"/>
    </g>
   </g>
   <g id="text_18">
    <!-- f5 -->
    <defs>
     <path d="M 10.796875 72.90625 
L 49.515625 72.90625 
L 49.515625 64.59375 
L 19.828125 64.59375 
L 19.828125 46.734375 
Q 21.96875 47.46875 24.109375 47.828125 
Q 26.265625 48.1875 28.421875 48.1875 
Q 40.625 48.1875 47.75 41.5 
Q 54.890625 34.8125 54.890625 23.390625 
Q 54.890625 11.625 47.5625 5.09375 
Q 40.234375 -1.421875 26.90625 -1.421875 
Q 22.3125 -1.421875 17.546875 -0.640625 
Q 12.796875 0.140625 7.71875 1.703125 
L 7.71875 11.625 
Q 12.109375 9.234375 16.796875 8.0625 
Q 21.484375 6.890625 26.703125 6.890625 
Q 35.15625 6.890625 40.078125 11.328125 
Q 45.015625 15.765625 45.015625 23.390625 
Q 45.015625 31 40.078125 35.4375 
Q 35.15625 39.890625 26.703125 39.890625 
Q 22.75 39.890625 18.8125 39.015625 
Q 14.890625 38.140625 10.796875 36.28125 
z
" id="DejaVuSans-35"/>
    </defs>
    <g transform="translate(369.479935 20.091654)scale(0.17 -0.17)">
     <use xlink:href="#DejaVuSans-66"/>
     <use x="35.205078" xlink:href="#DejaVuSans-35"/>
    </g>
   </g>
   <g id="text_19">
    <!-- bbob -->
    <defs>
     <path d="M 48.6875 27.296875 
Q 48.6875 37.203125 44.609375 42.84375 
Q 40.53125 48.484375 33.40625 48.484375 
Q 26.265625 48.484375 22.1875 42.84375 
Q 18.109375 37.203125 18.109375 27.296875 
Q 18.109375 17.390625 22.1875 11.75 
Q 26.265625 6.109375 33.40625 6.109375 
Q 40.53125 6.109375 44.609375 11.75 
Q 48.6875 17.390625 48.6875 27.296875 
z
M 18.109375 46.390625 
Q 20.953125 51.265625 25.265625 53.625 
Q 29.59375 56 35.59375 56 
Q 45.5625 56 51.78125 48.09375 
Q 58.015625 40.1875 58.015625 27.296875 
Q 58.015625 14.40625 51.78125 6.484375 
Q 45.5625 -1.421875 35.59375 -1.421875 
Q 29.59375 -1.421875 25.265625 0.953125 
Q 20.953125 3.328125 18.109375 8.203125 
L 18.109375 0 
L 9.078125 0 
L 9.078125 75.984375 
L 18.109375 75.984375 
z
" id="DejaVuSans-62"/>
    </defs>
    <g transform="translate(59.55864 17.475982)scale(0.102 -0.102)">
     <use xlink:href="#DejaVuSans-62"/>
     <use x="63.476562" xlink:href="#DejaVuSans-62"/>
     <use x="126.953125" xlink:href="#DejaVuSans-6f"/>
     <use x="188.134766" xlink:href="#DejaVuSans-62"/>
    </g>
    <!-- Separable functions, 5-D -->
    <defs>
     <path d="M 53.515625 70.515625 
L 53.515625 60.890625 
Q 47.90625 63.578125 42.921875 64.890625 
Q 37.9375 66.21875 33.296875 66.21875 
Q 25.25 66.21875 20.875 63.09375 
Q 16.5 59.96875 16.5 54.203125 
Q 16.5 49.359375 19.40625 46.890625 
Q 22.3125 44.4375 30.421875 42.921875 
L 36.375 41.703125 
Q 47.40625 39.59375 52.65625 34.296875 
Q 57.90625 29 57.90625 20.125 
Q 57.90625 9.515625 50.796875 4.046875 
Q 43.703125 -1.421875 29.984375 -1.421875 
Q 24.8125 -1.421875 18.96875 -0.25 
Q 13.140625 0.921875 6.890625 3.21875 
L 6.890625 13.375 
Q 12.890625 10.015625 18.65625 8.296875 
Q 24.421875 6.59375 29.984375 6.59375 
Q 38.421875 6.59375 43.015625 9.90625 
Q 47.609375 13.234375 47.609375 19.390625 
Q 47.609375 24.75 44.3125 27.78125 
Q 41.015625 30.8125 33.5 32.328125 
L 27.484375 33.5 
Q 16.453125 35.6875 11.515625 40.375 
Q 6.59375 45.0625 6.59375 53.421875 
Q 6.59375 63.09375 13.40625 68.65625 
Q 20.21875 74.21875 32.171875 74.21875 
Q 37.3125 74.21875 42.625 73.28125 
Q 47.953125 72.359375 53.515625 70.515625 
z
" id="DejaVuSans-53"/>
     <path d="M 19.671875 64.796875 
L 19.671875 8.109375 
L 31.59375 8.109375 
Q 46.6875 8.109375 53.6875 14.9375 
Q 60.6875 21.78125 60.6875 36.53125 
Q 60.6875 51.171875 53.6875 57.984375 
Q 46.6875 64.796875 31.59375 64.796875 
z
M 9.8125 72.90625 
L 30.078125 72.90625 
Q 51.265625 72.90625 61.171875 64.09375 
Q 71.09375 55.28125 71.09375 36.53125 
Q 71.09375 17.671875 61.125 8.828125 
Q 51.171875 0 30.078125 0 
L 9.8125 0 
z
" id="DejaVuSans-44"/>
    </defs>
    <g transform="translate(59.55864 28.89775)scale(0.102 -0.102)">
     <use xlink:href="#DejaVuSans-53"/>
     <use x="63.476562" xlink:href="#DejaVuSans-65"/>
     <use x="125" xlink:href="#DejaVuSans-70"/>
     <use x="188.476562" xlink:href="#DejaVuSans-61"/>
     <use x="249.755859" xlink:href="#DejaVuSans-72"/>
     <use x="290.869141" xlink:href="#DejaVuSans-61"/>
     <use x="352.148438" xlink:href="#DejaVuSans-62"/>
     <use x="415.625" xlink:href="#DejaVuSans-6c"/>
     <use x="443.408203" xlink:href="#DejaVuSans-65"/>
     <use x="504.931641" xlink:href="#DejaVuSans-20"/>
     <use x="536.71875" xlink:href="#DejaVuSans-66"/>
     <use x="571.923828" xlink:href="#DejaVuSans-75"/>
     <use x="635.302734" xlink:href="#DejaVuSans-6e"/>
     <use x="698.681641" xlink:href="#DejaVuSans-63"/>
     <use x="753.662109" xlink:href="#DejaVuSans-74"/>
     <use x="792.871094" xlink:href="#DejaVuSans-69"/>
     <use x="820.654297" xlink:href="#DejaVuSans-6f"/>
     <use x="881.835938" xlink:href="#DejaVuSans-6e"/>
     <use x="945.214844" xlink:href="#DejaVuSans-73"/>
     <use x="997.314453" xlink:href="#DejaVuSans-2c"/>
     <use x="1029.101562" xlink:href="#DejaVuSans-20"/>
     <use x="1060.888672" xlink:href="#DejaVuSans-35"/>
     <use x="1124.511719" xlink:href="#DejaVuSans-2d"/>
     <use x="1160.595703" xlink:href="#DejaVuSans-44"/>
    </g>
    <!-- 51 targets: 100..1e-08 -->
    <defs>
     <path d="M 11.71875 12.40625 
L 22.015625 12.40625 
L 22.015625 0 
L 11.71875 0 
z
M 11.71875 51.703125 
L 22.015625 51.703125 
L 22.015625 39.3125 
L 11.71875 39.3125 
z
" id="DejaVuSans-3a"/>
    </defs>
    <g transform="translate(59.55864 40.319519)scale(0.102 -0.102)">
     <use xlink:href="#DejaVuSans-35"/>
     <use x="63.623047" xlink:href="#DejaVuSans-31"/>
     <use x="127.246094" xlink:href="#DejaVuSans-20"/>
     <use x="159.033203" xlink:href="#DejaVuSans-74"/>
     <use x="198.242188" xlink:href="#DejaVuSans-61"/>
     <use x="259.521484" xlink:href="#DejaVuSans-72"/>
     <use x="300.619141" xlink:href="#DejaVuSans-67"/>
     <use x="364.095703" xlink:href="#DejaVuSans-65"/>
     <use x="425.619141" xlink:href="#DejaVuSans-74"/>
     <use x="464.828125" xlink:href="#DejaVuSans-73"/>
     <use x="516.927734" xlink:href="#DejaVuSans-3a"/>
     <use x="550.619141" xlink:href="#DejaVuSans-20"/>
     <use x="582.40625" xlink:href="#DejaVuSans-31"/>
     <use x="646.029297" xlink:href="#DejaVuSans-30"/>
     <use x="709.652344" xlink:href="#DejaVuSans-30"/>
     <use x="773.275391" xlink:href="#DejaVuSans-2e"/>
     <use x="805.0625" xlink:href="#DejaVuSans-2e"/>
     <use x="836.849609" xlink:href="#DejaVuSans-31"/>
     <use x="900.472656" xlink:href="#DejaVuSans-65"/>
     <use x="961.996094" xlink:href="#DejaVuSans-2d"/>
     <use x="998.080078" xlink:href="#DejaVuSans-30"/>
     <use x="1061.703125" xlink:href="#DejaVuSans-38"/>
    </g>
    <!-- 15 instances -->
    <g transform="translate(59.55864 51.741288)scale(0.102 -0.102)">
     <use xlink:href="#DejaVuSans-31"/>
     <use x="63.623047" xlink:href="#DejaVuSans-35"/>
     <use x="127.246094" xlink:href="#DejaVuSans-20"/>
     <use x="159.033203" xlink:href="#DejaVuSans-69"/>
     <use x="186.816406" xlink:href="#DejaVuSans-6e"/>
     <use x="250.195312" xlink:href="#DejaVuSans-73"/>
     <use x="302.294922" xlink:href="#DejaVuSans-74"/>
     <use x="341.503906" xlink:href="#DejaVuSans-61"/>
     <use x="402.783203" xlink:href="#DejaVuSans-6e"/>
     <use x="466.162109" xlink:href="#DejaVuSans-63"/>
     <use x="521.142578" xlink:href="#DejaVuSans-65"/>
     <use x="582.666016" xlink:href="#DejaVuSans-73"/>
    </g>
   </g>
   <g id="text_20">
    <!-- v0.0.0 -->
    <g style="fill:#808080;" transform="translate(212.37075 289.919965)scale(0.1 -0.1)">
     <use xlink:href="#DejaVuSans-76"/>
     <use x="59.179688" xlink:href="#DejaVuSans-30"/>
     <use x="122.802734" xlink:href="#DejaVuSans-2e"/>
     <use x="154.589844" xlink:href="#DejaVuSans-30"/>
     <use x="218.212891" xlink:href="#DejaVuSans-2e"/>
     <use x="250" xlink:href="#DejaVuSans-30"/>
    </g>
   </g>
  </g>
 </g>
 <defs>
  <clipPath id="p32087583a7">
   <rect height="288.034772" width="343.864" x="56.12" y="6.845228"/>
  </clipPath>
 </defs>
</svg>
