<?xml version="1.0" encoding="utf-8" standalone="no"?>
<!DOCTYPE svg PUBLIC "-//W3C//DTD SVG 1.1//EN"
  "http://www.w3.org/Graphics/SVG/1.1/DTD/svg11.dtd">
<!-- Created with matplotlib (http://matplotlib.org/) -->
<svg height="345.6pt" version="1.1" viewBox="0 0 460.8 345.6" width="460.8pt" xmlns="http://www.w3.org/2000/svg" xmlns:xlink="http://www.w3.org/1999/xlink">
 <defs>
  <style type="text/css">
*{stroke-linecap:butt;stroke-linejoin:round;}
  </style>
 </defs>
 <g id="figure_1">
  <g id="patch_1">
   <path d="M 0 345.6 
L 460.8 345.6 
L 460.8 0 
L 0 0 
z
" style="fill:#ffffff;"/>
  </g>
  <g id="axes_1">
   <g id="patch_2">
    <path d="M 56.12 294.88 
L 399.984 294.88 
L 399.984 6.845228 
L 56.12 6.845228 
z
" style="fill:#ffffff;"/>
   </g>
   <g id="matplotlib.axis_1">
    <g id="xtick_1">
     <g id="line2d_1">
      <path clip-path="url(#p98a838a4bc)" d="M 56.12 294.88 
L 56.12 6.845228 
" style="fill:none;stroke:#b0b0b0;stroke-linecap:square;stroke-width:0.8;"/>
     </g>
     <g id="line2d_2">
      <defs>
       <path d="M 0 0 
L 0 3.5 
" id="m93cbb9962e" style="stroke:#000000;stroke-width:0.8;"/>
      </defs>
      <g>
       <use style="stroke:#000000;stroke-width:0.8;" x="56.12" xlink:href="#m93cbb9962e" y="294.88"/>
      </g>
     </g>
     <g id="text_1">
      <!-- 0 -->
      <defs>
       <path d="M 31.78125 66.40625 
Q 24.171875 66.40625 20.328125 58.90625 
Q 16.5 51.421875 16.5 36.375 
Q 16.5 21.390625 20.328125 13.890625 
Q 24.171875 6.390625 31.78125 6.390625 
Q 39.453125 6.390625 43.28125 13.890625 
Q 47.125 21.390625 47.125 36.375 
Q 47.125 51.421875 43.28125 58.90625 
Q 39.453125 66.40625 31.78125 66.40625 
z
M 31.78125 74.21875 
Q 44.046875 74.21875 50.515625 64.515625 
Q 56.984375 54.828125 56.984375 36.375 
Q 56.984375 17.96875 50.515625 8.265625 
Q 44.046875 -1.421875 31.78125 -1.421875 
Q 19.53125 -1.421875 13.0625 8.265625 
Q 6.59375 17.96875 6.59375 36.375 
Q 6.59375 54.828125 13.0625 64.515625 
Q 19.53125 74.21875 31.78125 74.21875 
z
" id="DejaVuSans-30"/>
      </defs>
      <g transform="translate(49.7575 317.076875)scale(0.2 -0.2)">
       <use xlink:href="#DejaVuSans-30"/>
      </g>
     </g>
    </g>
    <g id="xtick_2">
     <g id="line2d_3">
      <path clip-path="url(#p98a838a4bc)" d="M 135.351336 294.88 
L 135.351336 6.845228 
" style="fill:none;stroke:#b0b0b0;stroke-linecap:square;stroke-width:0.8;"/>
     </g>
     <g id="line2d_4">
      <g>
       <use style="stroke:#000000;stroke-width:0.8;" x="135.351336" xlink:href="#m93cbb9962e" y="294.88"/>
      </g>
     </g>
     <g id="text_2">
      <!-- 2 -->
      <defs>
       <path d="M 19.1875 8.296875 
L 53.609375 8.296875 
L 53.609375 0 
L 7.328125 0 
L 7.328125 8.296875 
Q 12.9375 14.109375 22.625 23.890625 
Q 32.328125 33.6875 34.8125 36.53125 
Q 39.546875 41.84375 41.421875 45.53125 
Q 43.3125 49.21875 43.3125 52.78125 
Q 43.3125 58.59375 39.234375 62.25 
Q 35.15625 65.921875 28.609375 65.921875 
Q 23.96875 65.921875 18.8125 64.3125 
Q 13.671875 62.703125 7.8125 59.421875 
L 7.8125 69.390625 
Q 13.765625 71.78125 18.9375 73 
Q 24.125 74.21875 28.421875 74.21875 
Q 39.75 74.21875 46.484375 68.546875 
Q 53.21875 62.890625 53.21875 53.421875 
Q 53.21875 48.921875 51.53125 44.890625 
Q 49.859375 40.875 45.40625 35.40625 
Q 44.1875 33.984375 37.640625 27.21875 
Q 31.109375 20.453125 19.1875 8.296875 
z
" id="DejaVuSans-32"/>
      </defs>
      <g transform="translate(128.988836 317.076875)scale(0.2 -0.2)">
       <use xlink:href="#DejaVuSans-32"/>
      </g>
     </g>
    </g>
    <g id="xtick_3">
     <g id="line2d_5">
      <path clip-path="url(#p98a838a4bc)" d="M 214.582673 294.88 
L 214.582673 6.845228 
" style="fill:none;stroke:#b0b0b0;stroke-linecap:square;stroke-width:0.8;"/>
     </g>
     <g id="line2d_6">
      <g>
       <use style="stroke:#000000;stroke-width:0.8;" x="214.582673" xlink:href="#m93cbb9962e" y="294.88"/>
      </g>
     </g>
     <g id="text_3">
      <!-- 4 -->
      <defs>
       <path d="M 37.796875 64.3125 
L 12.890625 25.390625 
L 37.796875 25.390625 
z
M 35.203125 72.90625 
L 47.609375 72.90625 
L 47.609375 25.390625 
L 58.015625 25.390625 
L 58.015625 17.1875 
L 47.609375 17.1875 
L 47.609375 0 
L 37.796875 0 
L 37.796875 17.1875 
L 4.890625 17.1875 
L 4.890625 26.703125 
z
" id="DejaVuSans-34"/>
      </defs>
      <g transform="translate(208.220173 317.076875)scale(0.2 -0.2)">
       <use xlink:href="#DejaVuSans-34"/>
      </g>
     </g>
    </g>
    <g id="xtick_4">
     <g id="line2d_7">
      <path clip-path="url(#p98a838a4bc)" d="M 293.814009 294.88 
L 293.814009 6.845228 
" style="fill:none;stroke:#b0b0b0;stroke-linecap:square;stroke-width:0.8;"/>
     </g>
     <g id="line2d_8">
      <g>
       <use style="stroke:#000000;stroke-width:0.8;" x="293.814009" xlink:href="#m93cbb9962e" y="294.88"/>
      </g>
     </g>
     <g id="text_4">
      <!-- 6 -->
      <defs>
       <path d="M 33.015625 40.375 
Q 26.375 40.375 22.484375 35.828125 
Q 18.609375 31.296875 18.609375 23.390625 
Q 18.609375 15.53125 22.484375 10.953125 
Q 26.375 6.390625 33.015625 6.390625 
Q 39.65625 6.390625 43.53125 10.953125 
Q 47.40625 15.53125 47.40625 23.390625 
Q 47.40625 31.296875 43.53125 35.828125 
Q 39.65625 40.375 33.015625 40.375 
z
M 52.59375 71.296875 
L 52.59375 62.3125 
Q 48.875 64.0625 45.09375 64.984375 
Q 41.3125 65.921875 37.59375 65.921875 
Q 27.828125 65.921875 22.671875 59.328125 
Q 17.53125 52.734375 16.796875 39.40625 
Q 19.671875 43.65625 24.015625 45.921875 
Q 28.375 48.1875 33.59375 48.1875 
Q 44.578125 48.1875 50.953125 41.515625 
Q 57.328125 34.859375 57.328125 23.390625 
Q 57.328125 12.15625 50.6875 5.359375 
Q 44.046875 -1.421875 33.015625 -1.421875 
Q 20.359375 -1.421875 13.671875 8.265625 
Q 6.984375 17.96875 6.984375 36.375 
Q 6.984375 53.65625 15.1875 63.9375 
Q 23.390625 74.21875 37.203125 74.21875 
Q 40.921875 74.21875 44.703125 73.484375 
Q 48.484375 72.75 52.59375 71.296875 
z
" id="DejaVuSans-36"/>
      </defs>
      <g transform="translate(287.451509 317.076875)scale(0.2 -0.2)">
       <use xlink:href="#DejaVuSans-36"/>
      </g>
     </g>
    </g>
    <g id="xtick_5">
     <g id="line2d_9">
      <path clip-path="url(#p98a838a4bc)" d="M 373.045346 294.88 
L 373.045346 6.845228 
" style="fill:none;stroke:#b0b0b0;stroke-linecap:square;stroke-width:0.8;"/>
     </g>
     <g id="line2d_10">
      <g>
       <use style="stroke:#000000;stroke-width:0.8;" x="373.045346" xlink:href="#m93cbb9962e" y="294.88"/>
      </g>
     </g>
     <g id="text_5">
      <!-- 8 -->
      <defs>
       <path d="M 31.78125 34.625 
Q 24.75 34.625 20.71875 30.859375 
Q 16.703125 27.09375 16.703125 20.515625 
Q 16.703125 13.921875 20.71875 10.15625 
Q 24.75 6.390625 31.78125 6.390625 
Q 38.8125 6.390625 42.859375 10.171875 
Q 46.921875 13.96875 46.921875 20.515625 
Q 46.921875 27.09375 42.890625 30.859375 
Q 38.875 34.625 31.78125 34.625 
z
M 21.921875 38.8125 
Q 15.578125 40.375 12.03125 44.71875 
Q 8.5 49.078125 8.5 55.328125 
Q 8.5 64.0625 14.71875 69.140625 
Q 20.953125 74.21875 31.78125 74.21875 
Q 42.671875 74.21875 48.875 69.140625 
Q 55.078125 64.0625 55.078125 55.328125 
Q 55.078125 49.078125 51.53125 44.71875 
Q 48 40.375 41.703125 38.8125 
Q 48.828125 37.15625 52.796875 32.3125 
Q 56.78125 27.484375 56.78125 20.515625 
Q 56.78125 9.90625 50.3125 4.234375 
Q 43.84375 -1.421875 31.78125 -1.421875 
Q 19.734375 -1.421875 13.25 4.234375 
Q 6.78125 9.90625 6.78125 20.515625 
Q 6.78125 27.484375 10.78125 32.3125 
Q 14.796875 37.15625 21.921875 38.8125 
z
M 18.3125 54.390625 
Q 18.3125 48.734375 21.84375 45.5625 
Q 25.390625 42.390625 31.78125 42.390625 
Q 38.140625 42.390625 41.71875 45.5625 
Q 45.3125 48.734375 45.3125 54.390625 
Q 45.3125 60.0625 41.71875 63.234375 
Q 38.140625 66.40625 31.78125 66.40625 
Q 25.390625 66.40625 21.84375 63.234375 
Q 18.3125 60.0625 18.3125 54.390625 
z
" id="DejaVuSans-38"/>
      </defs>
      <g transform="translate(366.682846 317.076875)scale(0.2 -0.2)">
       <use xlink:href="#DejaVuSans-38"/>
      </g>
     </g>
    </g>
    <g id="text_6">
     <!-- log10(# f-evals / dimension) -->
     <defs>
      <path d="M 9.421875 75.984375 
L 18.40625 75.984375 
L 18.40625 0 
L 9.421875 0 
z
" id="DejaVuSans-6c"/>
      <path d="M 30.609375 48.390625 
Q 23.390625 48.390625 19.1875 42.75 
Q 14.984375 37.109375 14.984375 27.296875 
Q 14.984375 17.484375 19.15625 11.84375 
Q 23.34375 6.203125 30.609375 6.203125 
Q 37.796875 6.203125 41.984375 11.859375 
Q 46.1875 17.53125 46.1875 27.296875 
Q 46.1875 37.015625 41.984375 42.703125 
Q 37.796875 48.390625 30.609375 48.390625 
z
M 30.609375 56 
Q 42.328125 56 49.015625 48.375 
Q 55.71875 40.765625 55.71875 27.296875 
Q 55.71875 13.875 49.015625 6.21875 
Q 42.328125 -1.421875 30.609375 -1.421875 
Q 18.84375 -1.421875 12.171875 6.21875 
Q 5.515625 13.875 5.515625 27.296875 
Q 5.515625 40.765625 12.171875 48.375 
Q 18.84375 56 30.609375 56 
z
" id="DejaVuSans-6f"/>
      <path d="M 45.40625 27.984375 
Q 45.40625 37.75 41.375 43.109375 
Q 37.359375 48.484375 30.078125 48.484375 
Q 22.859375 48.484375 18.828125 43.109375 
Q 14.796875 37.75 14.796875 27.984375 
Q 14.796875 18.265625 18.828125 12.890625 
Q 22.859375 7.515625 30.078125 7.515625 
Q 37.359375 7.515625 41.375 12.890625 
Q 45.40625 18.265625 45.40625 27.984375 
z
M 54.390625 6.78125 
Q 54.390625 -7.171875 48.1875 -13.984375 
Q 42 -20.796875 29.203125 -20.796875 
Q 24.46875 -20.796875 20.265625 -20.09375 
Q 16.0625 -19.390625 12.109375 -17.921875 
L 12.109375 -9.1875 
Q 16.0625 -11.328125 19.921875 -12.34375 
Q 23.78125 -13.375 27.78125 -13.375 
Q 36.625 -13.375 41.015625 -8.765625 
Q 45.40625 -4.15625 45.40625 5.171875 
L 45.40625 9.625 
Q 42.625 4.78125 38.28125 2.390625 
Q 33.9375 0 27.875 0 
Q 17.828125 0 11.671875 7.65625 
Q 5.515625 15.328125 5.515625 27.984375 
Q 5.515625 40.671875 11.671875 48.328125 
Q 17.828125 56 27.875 56 
Q 33.9375 56 38.28125 53.609375 
Q 42.625 51.21875 45.40625 46.390625 
L 45.40625 54.6875 
L 54.390625 54.6875 
z
" id="DejaVuSans-67"/>
      <path d="M 12.40625 8.296875 
L 28.515625 8.296875 
L 28.515625 63.921875 
L 10.984375 60.40625 
L 10.984375 69.390625 
L 28.421875 72.90625 
L 38.28125 72.90625 
L 38.28125 8.296875 
L 54.390625 8.296875 
L 54.390625 0 
L 12.40625 0 
z
" id="DejaVuSans-31"/>
      <path d="M 31 75.875 
Q 24.46875 64.65625 21.28125 53.65625 
Q 18.109375 42.671875 18.109375 31.390625 
Q 18.109375 20.125 21.3125 9.0625 
Q 24.515625 -2 31 -13.1875 
L 23.1875 -13.1875 
Q 15.875 -1.703125 12.234375 9.375 
Q 8.59375 20.453125 8.59375 31.390625 
Q 8.59375 42.28125 12.203125 53.3125 
Q 15.828125 64.359375 23.1875 75.875 
z
" id="DejaVuSans-28"/>
      <path d="M 51.125 44 
L 36.921875 44 
L 32.8125 27.6875 
L 47.125 27.6875 
z
M 43.796875 71.78125 
L 38.71875 51.515625 
L 52.984375 51.515625 
L 58.109375 71.78125 
L 65.921875 71.78125 
L 60.890625 51.515625 
L 76.125 51.515625 
L 76.125 44 
L 58.984375 44 
L 54.984375 27.6875 
L 70.515625 27.6875 
L 70.515625 20.21875 
L 53.078125 20.21875 
L 48 0 
L 40.1875 0 
L 45.21875 20.21875 
L 30.90625 20.21875 
L 25.875 0 
L 18.015625 0 
L 23.09375 20.21875 
L 7.71875 20.21875 
L 7.71875 27.6875 
L 24.90625 27.6875 
L 29 44 
L 13.28125 44 
L 13.28125 51.515625 
L 30.90625 51.515625 
L 35.890625 71.78125 
z
" id="DejaVuSans-23"/>
      <path id="DejaVuSans-20"/>
      <path d="M 37.109375 75.984375 
L 37.109375 68.5 
L 28.515625 68.5 
Q 23.6875 68.5 21.796875 66.546875 
Q 19.921875 64.59375 19.921875 59.515625 
L 19.921875 54.6875 
L 34.71875 54.6875 
L 34.71875 47.703125 
L 19.921875 47.703125 
L 19.921875 0 
L 10.890625 0 
L 10.890625 47.703125 
L 2.296875 47.703125 
L 2.296875 54.6875 
L 10.890625 54.6875 
L 10.890625 58.5 
Q 10.890625 67.625 15.140625 71.796875 
Q 19.390625 75.984375 28.609375 75.984375 
z
" id="DejaVuSans-66"/>
      <path d="M 4.890625 31.390625 
L 31.203125 31.390625 
L 31.203125 23.390625 
L 4.890625 23.390625 
z
" id="DejaVuSans-2d"/>
      <path d="M 56.203125 29.59375 
L 56.203125 25.203125 
L 14.890625 25.203125 
Q 15.484375 15.921875 20.484375 11.0625 
Q 25.484375 6.203125 34.421875 6.203125 
Q 39.59375 6.203125 44.453125 7.46875 
Q 49.3125 8.734375 54.109375 11.28125 
L 54.109375 2.78125 
Q 49.265625 0.734375 44.1875 -0.34375 
Q 39.109375 -1.421875 33.890625 -1.421875 
Q 20.796875 -1.421875 13.15625 6.1875 
Q 5.515625 13.8125 5.515625 26.8125 
Q 5.515625 40.234375 12.765625 48.109375 
Q 20.015625 56 32.328125 56 
Q 43.359375 56 49.78125 48.890625 
Q 56.203125 41.796875 56.203125 29.59375 
z
M 47.21875 32.234375 
Q 47.125 39.59375 43.09375 43.984375 
Q 39.0625 48.390625 32.421875 48.390625 
Q 24.90625 48.390625 20.390625 44.140625 
Q 15.875 39.890625 15.1875 32.171875 
z
" id="DejaVuSans-65"/>
      <path d="M 2.984375 54.6875 
L 12.5 54.6875 
L 29.59375 8.796875 
L 46.6875 54.6875 
L 56.203125 54.6875 
L 35.6875 0 
L 23.484375 0 
z
" id="DejaVuSans-76"/>
      <path d="M 34.28125 27.484375 
Q 23.390625 27.484375 19.1875 25 
Q 14.984375 22.515625 14.984375 16.5 
Q 14.984375 11.71875 18.140625 8.90625 
Q 21.296875 6.109375 26.703125 6.109375 
Q 34.1875 6.109375 38.703125 11.40625 
Q 43.21875 16.703125 43.21875 25.484375 
L 43.21875 27.484375 
z
M 52.203125 31.203125 
L 52.203125 0 
L 43.21875 0 
L 43.21875 8.296875 
Q 40.140625 3.328125 35.546875 0.953125 
Q 30.953125 -1.421875 24.3125 -1.421875 
Q 15.921875 -1.421875 10.953125 3.296875 
Q 6 8.015625 6 15.921875 
Q 6 25.140625 12.171875 29.828125 
Q 18.359375 34.515625 30.609375 34.515625 
L 43.21875 34.515625 
L 43.21875 35.40625 
Q 43.21875 41.609375 39.140625 45 
Q 35.0625 48.390625 27.6875 48.390625 
Q 23 48.390625 18.546875 47.265625 
Q 14.109375 46.140625 10.015625 43.890625 
L 10.015625 52.203125 
Q 14.9375 54.109375 19.578125 55.046875 
Q 24.21875 56 28.609375 56 
Q 40.484375 56 46.34375 49.84375 
Q 52.203125 43.703125 52.203125 31.203125 
z
" id="DejaVuSans-61"/>
      <path d="M 44.28125 53.078125 
L 44.28125 44.578125 
Q 40.484375 46.53125 36.375 47.5 
Q 32.28125 48.484375 27.875 48.484375 
Q 21.1875 48.484375 17.84375 46.4375 
Q 14.5 44.390625 14.5 40.28125 
Q 14.5 37.15625 16.890625 35.375 
Q 19.28125 33.59375 26.515625 31.984375 
L 29.59375 31.296875 
Q 39.15625 29.25 43.1875 25.515625 
Q 47.21875 21.78125 47.21875 15.09375 
Q 47.21875 7.46875 41.1875 3.015625 
Q 35.15625 -1.421875 24.609375 -1.421875 
Q 20.21875 -1.421875 15.453125 -0.5625 
Q 10.6875 0.296875 5.421875 2 
L 5.421875 11.28125 
Q 10.40625 8.6875 15.234375 7.390625 
Q 20.0625 6.109375 24.8125 6.109375 
Q 31.15625 6.109375 34.5625 8.28125 
Q 37.984375 10.453125 37.984375 14.40625 
Q 37.984375 18.0625 35.515625 20.015625 
Q 33.0625 21.96875 24.703125 23.78125 
L 21.578125 24.515625 
Q 13.234375 26.265625 9.515625 29.90625 
Q 5.8125 33.546875 5.8125 39.890625 
Q 5.8125 47.609375 11.28125 51.796875 
Q 16.75 56 26.8125 56 
Q 31.78125 56 36.171875 55.265625 
Q 40.578125 54.546875 44.28125 53.078125 
z
" id="DejaVuSans-73"/>
      <path d="M 25.390625 72.90625 
L 33.6875 72.90625 
L 8.296875 -9.28125 
L 0 -9.28125 
z
" id="DejaVuSans-2f"/>
      <path d="M 45.40625 46.390625 
L 45.40625 75.984375 
L 54.390625 75.984375 
L 54.390625 0 
L 45.40625 0 
L 45.40625 8.203125 
Q 42.578125 3.328125 38.25 0.953125 
Q 33.9375 -1.421875 27.875 -1.421875 
Q 17.96875 -1.421875 11.734375 6.484375 
Q 5.515625 14.40625 5.515625 27.296875 
Q 5.515625 40.1875 11.734375 48.09375 
Q 17.96875 56 27.875 56 
Q 33.9375 56 38.25 53.625 
Q 42.578125 51.265625 45.40625 46.390625 
z
M 14.796875 27.296875 
Q 14.796875 17.390625 18.875 11.75 
Q 22.953125 6.109375 30.078125 6.109375 
Q 37.203125 6.109375 41.296875 11.75 
Q 45.40625 17.390625 45.40625 27.296875 
Q 45.40625 37.203125 41.296875 42.84375 
Q 37.203125 48.484375 30.078125 48.484375 
Q 22.953125 48.484375 18.875 42.84375 
Q 14.796875 37.203125 14.796875 27.296875 
z
" id="DejaVuSans-64"/>
      <path d="M 9.421875 54.6875 
L 18.40625 54.6875 
L 18.40625 0 
L 9.421875 0 
z
M 9.421875 75.984375 
L 18.40625 75.984375 
L 18.40625 64.59375 
L 9.421875 64.59375 
z
" id="DejaVuSans-69"/>
      <path d="M 52 44.1875 
Q 55.375 50.25 60.0625 53.125 
Q 64.75 56 71.09375 56 
Q 79.640625 56 84.28125 50.015625 
Q 88.921875 44.046875 88.921875 33.015625 
L 88.921875 0 
L 79.890625 0 
L 79.890625 32.71875 
Q 79.890625 40.578125 77.09375 44.375 
Q 74.3125 48.1875 68.609375 48.1875 
Q 61.625 48.1875 57.5625 43.546875 
Q 53.515625 38.921875 53.515625 30.90625 
L 53.515625 0 
L 44.484375 0 
L 44.484375 32.71875 
Q 44.484375 40.625 41.703125 44.40625 
Q 38.921875 48.1875 33.109375 48.1875 
Q 26.21875 48.1875 22.15625 43.53125 
Q 18.109375 38.875 18.109375 30.90625 
L 18.109375 0 
L 9.078125 0 
L 9.078125 54.6875 
L 18.109375 54.6875 
L 18.109375 46.1875 
Q 21.1875 51.21875 25.484375 53.609375 
Q 29.78125 56 35.6875 56 
Q 41.65625 56 45.828125 52.96875 
Q 50 49.953125 52 44.1875 
z
" id="DejaVuSans-6d"/>
      <path d="M 54.890625 33.015625 
L 54.890625 0 
L 45.90625 0 
L 45.90625 32.71875 
Q 45.90625 40.484375 42.875 44.328125 
Q 39.84375 48.1875 33.796875 48.1875 
Q 26.515625 48.1875 22.3125 43.546875 
Q 18.109375 38.921875 18.109375 30.90625 
L 18.109375 0 
L 9.078125 0 
L 9.078125 54.6875 
L 18.109375 54.6875 
L 18.109375 46.1875 
Q 21.34375 51.125 25.703125 53.5625 
Q 30.078125 56 35.796875 56 
Q 45.21875 56 50.046875 50.171875 
Q 54.890625 44.34375 54.890625 33.015625 
z
" id="DejaVuSans-6e"/>
      <path d="M 8.015625 75.875 
L 15.828125 75.875 
Q 23.140625 64.359375 26.78125 53.3125 
Q 30.421875 42.28125 30.421875 31.390625 
Q 30.421875 20.453125 26.78125 9.375 
Q 23.140625 -1.703125 15.828125 -13.1875 
L 8.015625 -13.1875 
Q 14.5 -2 17.703125 9.0625 
Q 20.90625 20.125 20.90625 31.390625 
Q 20.90625 42.671875 17.703125 53.65625 
Q 14.5 64.65625 8.015625 75.875 
z
" id="DejaVuSans-29"/>
     </defs>
     <g transform="translate(107.211219 338.153594)scale(0.17 -0.17)">
      <use xlink:href="#DejaVuSans-6c"/>
      <use x="27.783203" xlink:href="#DejaVuSans-6f"/>
      <use x="88.964844" xlink:href="#DejaVuSans-67"/>
      <use x="152.441406" xlink:href="#DejaVuSans-31"/>
      <use x="216.064453" xlink:href="#DejaVuSans-30"/>
      <use x="279.6875" xlink:href="#DejaVuSans-28"/>
      <use x="318.701172" xlink:href="#DejaVuSans-23"/>
      <use x="402.490234" xlink:href="#DejaVuSans-20"/>
      <use x="434.277344" xlink:href="#DejaVuSans-66"/>
      <use x="469.404297" xlink:href="#DejaVuSans-2d"/>
      <use x="505.488281" xlink:href="#DejaVuSans-65"/>
      <use x="567.011719" xlink:href="#DejaVuSans-76"/>
      <use x="626.191406" xlink:href="#DejaVuSans-61"/>
      <use x="687.470703" xlink:href="#DejaVuSans-6c"/>
      <use x="715.253906" xlink:href="#DejaVuSans-73"/>
      <use x="767.353516" xlink:href="#DejaVuSans-20"/>
      <use x="799.140625" xlink:href="#DejaVuSans-2f"/>
      <use x="832.832031" xlink:href="#DejaVuSans-20"/>
      <use x="864.619141" xlink:href="#DejaVuSans-64"/>
      <use x="928.095703" xlink:href="#DejaVuSans-69"/>
      <use x="955.878906" xlink:href="#DejaVuSans-6d"/>
      <use x="1053.291016" xlink:href="#DejaVuSans-65"/>
      <use x="1114.814453" xlink:href="#DejaVuSans-6e"/>
      <use x="1178.193359" xlink:href="#DejaVuSans-73"/>
      <use x="1230.292969" xlink:href="#DejaVuSans-69"/>
      <use x="1258.076172" xlink:href="#DejaVuSans-6f"/>
      <use x="1319.257812" xlink:href="#DejaVuSans-6e"/>
      <use x="1382.636719" xlink:href="#DejaVuSans-29"/>
     </g>
    </g>
   </g>
   <g id="matplotlib.axis_2">
    <g id="ytick_1">
     <g id="line2d_11">
      <path clip-path="url(#p98a838a4bc)" d="M 56.12 294.88 
L 399.984 294.88 
" style="fill:none;stroke:#b0b0b0;stroke-linecap:square;stroke-width:0.8;"/>
     </g>
     <g id="line2d_12">
      <defs>
       <path d="M 0 0 
L -3.5 0 
" id="mf0bd2628bb" style="stroke:#000000;stroke-width:0.8;"/>
      </defs>
      <g>
       <use style="stroke:#000000;stroke-width:0.8;" x="56.12" xlink:href="#mf0bd2628bb" y="294.88"/>
      </g>
     </g>
     <g id="text_7">
      <!-- 0.0 -->
      <defs>
       <path d="M 10.6875 12.40625 
L 21 12.40625 
L 21 0 
L 10.6875 0 
z
" id="DejaVuSans-2e"/>
      </defs>
      <g transform="translate(23.675 300.95875)scale(0.16 -0.16)">
       <use xlink:href="#DejaVuSans-30"/>
       <use x="63.623047" xlink:href="#DejaVuSans-2e"/>
       <use x="95.410156" xlink:href="#DejaVuSans-30"/>
      </g>
     </g>
    </g>
    <g id="ytick_2">
     <g id="line2d_13">
      <path clip-path="url(#p98a838a4bc)" d="M 56.12 237.843411 
L 399.984 237.843411 
" style="fill:none;stroke:#b0b0b0;stroke-linecap:square;stroke-width:0.8;"/>
     </g>
     <g id="line2d_14">
      <g>
       <use style="stroke:#000000;stroke-width:0.8;" x="56.12" xlink:href="#mf0bd2628bb" y="237.843411"/>
      </g>
     </g>
     <g id="text_8">
      <!-- 0.2 -->
      <g transform="translate(23.675 243.922161)scale(0.16 -0.16)">
       <use xlink:href="#DejaVuSans-30"/>
       <use x="63.623047" xlink:href="#DejaVuSans-2e"/>
       <use x="95.410156" xlink:href="#DejaVuSans-32"/>
      </g>
     </g>
    </g>
    <g id="ytick_3">
     <g id="line2d_15">
      <path clip-path="url(#p98a838a4bc)" d="M 56.12 180.806823 
L 399.984 180.806823 
" style="fill:none;stroke:#b0b0b0;stroke-linecap:square;stroke-width:0.8;"/>
     </g>
     <g id="line2d_16">
      <g>
       <use style="stroke:#000000;stroke-width:0.8;" x="56.12" xlink:href="#mf0bd2628bb" y="180.806823"/>
      </g>
     </g>
     <g id="text_9">
      <!-- 0.4 -->
      <g transform="translate(23.675 186.885573)scale(0.16 -0.16)">
       <use xlink:href="#DejaVuSans-30"/>
       <use x="63.623047" xlink:href="#DejaVuSans-2e"/>
       <use x="95.410156" xlink:href="#DejaVuSans-34"/>
      </g>
     </g>
    </g>
    <g id="ytick_4">
     <g id="line2d_17">
      <path clip-path="url(#p98a838a4bc)" d="M 56.12 123.770234 
L 399.984 123.770234 
" style="fill:none;stroke:#b0b0b0;stroke-linecap:square;stroke-width:0.8;"/>
     </g>
     <g id="line2d_18">
      <g>
       <use style="stroke:#000000;stroke-width:0.8;" x="56.12" xlink:href="#mf0bd2628bb" y="123.770234"/>
      </g>
     </g>
     <g id="text_10">
      <!-- 0.6 -->
      <g transform="translate(23.675 129.848984)scale(0.16 -0.16)">
       <use xlink:href="#DejaVuSans-30"/>
       <use x="63.623047" xlink:href="#DejaVuSans-2e"/>
       <use x="95.410156" xlink:href="#DejaVuSans-36"/>
      </g>
     </g>
    </g>
    <g id="ytick_5">
     <g id="line2d_19">
      <path clip-path="url(#p98a838a4bc)" d="M 56.12 66.733646 
L 399.984 66.733646 
" style="fill:none;stroke:#b0b0b0;stroke-linecap:square;stroke-width:0.8;"/>
     </g>
     <g id="line2d_20">
      <g>
       <use style="stroke:#000000;stroke-width:0.8;" x="56.12" xlink:href="#mf0bd2628bb" y="66.733646"/>
      </g>
     </g>
     <g id="text_11">
      <!-- 0.8 -->
      <g transform="translate(23.675 72.812396)scale(0.16 -0.16)">
       <use xlink:href="#DejaVuSans-30"/>
       <use x="63.623047" xlink:href="#DejaVuSans-2e"/>
       <use x="95.410156" xlink:href="#DejaVuSans-38"/>
      </g>
     </g>
    </g>
    <g id="ytick_6">
     <g id="line2d_21">
      <path clip-path="url(#p98a838a4bc)" d="M 56.12 9.697057 
L 399.984 9.697057 
" style="fill:none;stroke:#b0b0b0;stroke-linecap:square;stroke-width:0.8;"/>
     </g>
     <g id="line2d_22">
      <g>
       <use style="stroke:#000000;stroke-width:0.8;" x="56.12" xlink:href="#mf0bd2628bb" y="9.697057"/>
      </g>
     </g>
     <g id="text_12">
      <!-- 1.0 -->
      <g transform="translate(23.675 15.775807)scale(0.16 -0.16)">
       <use xlink:href="#DejaVuSans-31"/>
       <use x="63.623047" xlink:href="#DejaVuSans-2e"/>
       <use x="95.410156" xlink:href="#DejaVuSans-30"/>
      </g>
     </g>
    </g>
    <g id="text_13">
     <!-- Fraction of function,target pairs -->
     <defs>
      <path d="M 9.8125 72.90625 
L 51.703125 72.90625 
L 51.703125 64.59375 
L 19.671875 64.59375 
L 19.671875 43.109375 
L 48.578125 43.109375 
L 48.578125 34.8125 
L 19.671875 34.8125 
L 19.671875 0 
L 9.8125 0 
z
" id="DejaVuSans-46"/>
      <path d="M 41.109375 46.296875 
Q 39.59375 47.171875 37.8125 47.578125 
Q 36.03125 48 33.890625 48 
Q 26.265625 48 22.1875 43.046875 
Q 18.109375 38.09375 18.109375 28.8125 
L 18.109375 0 
L 9.078125 0 
L 9.078125 54.6875 
L 18.109375 54.6875 
L 18.109375 46.1875 
Q 20.953125 51.171875 25.484375 53.578125 
Q 30.03125 56 36.53125 56 
Q 37.453125 56 38.578125 55.875 
Q 39.703125 55.765625 41.0625 55.515625 
z
" id="DejaVuSans-72"/>
      <path d="M 48.78125 52.59375 
L 48.78125 44.1875 
Q 44.96875 46.296875 41.140625 47.34375 
Q 37.3125 48.390625 33.40625 48.390625 
Q 24.65625 48.390625 19.8125 42.84375 
Q 14.984375 37.3125 14.984375 27.296875 
Q 14.984375 17.28125 19.8125 11.734375 
Q 24.65625 6.203125 33.40625 6.203125 
Q 37.3125 6.203125 41.140625 7.25 
Q 44.96875 8.296875 48.78125 10.40625 
L 48.78125 2.09375 
Q 45.015625 0.34375 40.984375 -0.53125 
Q 36.96875 -1.421875 32.421875 -1.421875 
Q 20.0625 -1.421875 12.78125 6.34375 
Q 5.515625 14.109375 5.515625 27.296875 
Q 5.515625 40.671875 12.859375 48.328125 
Q 20.21875 56 33.015625 56 
Q 37.15625 56 41.109375 55.140625 
Q 45.0625 54.296875 48.78125 52.59375 
z
" id="DejaVuSans-63"/>
      <path d="M 18.3125 70.21875 
L 18.3125 54.6875 
L 36.8125 54.6875 
L 36.8125 47.703125 
L 18.3125 47.703125 
L 18.3125 18.015625 
Q 18.3125 11.328125 20.140625 9.421875 
Q 21.96875 7.515625 27.59375 7.515625 
L 36.8125 7.515625 
L 36.8125 0 
L 27.59375 0 
Q 17.1875 0 13.234375 3.875 
Q 9.28125 7.765625 9.28125 18.015625 
L 9.28125 47.703125 
L 2.6875 47.703125 
L 2.6875 54.6875 
L 9.28125 54.6875 
L 9.28125 70.21875 
z
" id="DejaVuSans-74"/>
      <path d="M 8.5 21.578125 
L 8.5 54.6875 
L 17.484375 54.6875 
L 17.484375 21.921875 
Q 17.484375 14.15625 20.5 10.265625 
Q 23.53125 6.390625 29.59375 6.390625 
Q 36.859375 6.390625 41.078125 11.03125 
Q 45.3125 15.671875 45.3125 23.6875 
L 45.3125 54.6875 
L 54.296875 54.6875 
L 54.296875 0 
L 45.3125 0 
L 45.3125 8.40625 
Q 42.046875 3.421875 37.71875 1 
Q 33.40625 -1.421875 27.6875 -1.421875 
Q 18.265625 -1.421875 13.375 4.4375 
Q 8.5 10.296875 8.5 21.578125 
z
M 31.109375 56 
z
" id="DejaVuSans-75"/>
      <path d="M 11.71875 12.40625 
L 22.015625 12.40625 
L 22.015625 4 
L 14.015625 -11.625 
L 7.71875 -11.625 
L 11.71875 4 
z
" id="DejaVuSans-2c"/>
      <path d="M 18.109375 8.203125 
L 18.109375 -20.796875 
L 9.078125 -20.796875 
L 9.078125 54.6875 
L 18.109375 54.6875 
L 18.109375 46.390625 
Q 20.953125 51.265625 25.265625 53.625 
Q 29.59375 56 35.59375 56 
Q 45.5625 56 51.78125 48.09375 
Q 58.015625 40.1875 58.015625 27.296875 
Q 58.015625 14.40625 51.78125 6.484375 
Q 45.5625 -1.421875 35.59375 -1.421875 
Q 29.59375 -1.421875 25.265625 0.953125 
Q 20.953125 3.328125 18.109375 8.203125 
z
M 48.6875 27.296875 
Q 48.6875 37.203125 44.609375 42.84375 
Q 40.53125 48.484375 33.40625 48.484375 
Q 26.265625 48.484375 22.1875 42.84375 
Q 18.109375 37.203125 18.109375 27.296875 
Q 18.109375 17.390625 22.1875 11.75 
Q 26.265625 6.109375 33.40625 6.109375 
Q 40.53125 6.109375 44.609375 11.75 
Q 48.6875 17.390625 48.6875 27.296875 
z
" id="DejaVuSans-70"/>
     </defs>
     <g transform="translate(16.139531 286.001989)rotate(-90)scale(0.17 -0.17)">
      <use xlink:href="#DejaVuSans-46"/>
      <use x="57.410156" xlink:href="#DejaVuSans-72"/>
      <use x="98.523438" xlink:href="#DejaVuSans-61"/>
      <use x="159.802734" xlink:href="#DejaVuSans-63"/>
      <use x="214.783203" xlink:href="#DejaVuSans-74"/>
      <use x="253.992188" xlink:href="#DejaVuSans-69"/>
      <use x="281.775391" xlink:href="#DejaVuSans-6f"/>
      <use x="342.957031" xlink:href="#DejaVuSans-6e"/>
      <use x="406.335938" xlink:href="#DejaVuSans-20"/>
      <use x="438.123047" xlink:href="#DejaVuSans-6f"/>
      <use x="499.304688" xlink:href="#DejaVuSans-66"/>
      <use x="534.509766" xlink:href="#DejaVuSans-20"/>
      <use x="566.296875" xlink:href="#DejaVuSans-66"/>
      <use x="601.501953" xlink:href="#DejaVuSans-75"/>
      <use x="664.880859" xlink:href="#DejaVuSans-6e"/>
      <use x="728.259766" xlink:href="#DejaVuSans-63"/>
      <use x="783.240234" xlink:href="#DejaVuSans-74"/>
      <use x="822.449219" xlink:href="#DejaVuSans-69"/>
      <use x="850.232422" xlink:href="#DejaVuSans-6f"/>
      <use x="911.414062" xlink:href="#DejaVuSans-6e"/>
      <use x="974.792969" xlink:href="#DejaVuSans-2c"/>
      <use x="1006.580078" xlink:href="#DejaVuSans-74"/>
      <use x="1045.789062" xlink:href="#DejaVuSans-61"/>
      <use x="1107.068359" xlink:href="#DejaVuSans-72"/>
      <use x="1148.166016" xlink:href="#DejaVuSans-67"/>
      <use x="1211.642578" xlink:href="#DejaVuSans-65"/>
      <use x="1273.166016" xlink:href="#DejaVuSans-74"/>
      <use x="1312.375" xlink:href="#DejaVuSans-20"/>
      <use x="1344.162109" xlink:href="#DejaVuSans-70"/>
      <use x="1407.638672" xlink:href="#DejaVuSans-61"/>
      <use x="1468.917969" xlink:href="#DejaVuSans-69"/>
      <use x="1496.701172" xlink:href="#DejaVuSans-72"/>
      <use x="1537.814453" xlink:href="#DejaVuSans-73"/>
     </g>
    </g>
   </g>
   <g id="line2d_23">
    <defs>
     <path d="M 0 1.5 
C 0.397805 1.5 0.77937 1.341951 1.06066 1.06066 
C 1.341951 0.77937 1.5 0.397805 1.5 0 
C 1.5 -0.397805 1.341951 -0.77937 1.06066 -1.06066 
C 0.77937 -1.341951 0.397805 -1.5 0 -1.5 
C -0.397805 -1.5 -0.77937 -1.341951 -1.06066 -1.06066 
C -1.341951 -0.77937 -1.5 -0.397805 -1.5 0 
C -1.5 0.397805 -1.341951 0.77937 -1.06066 1.06066 
C -0.77937 1.341951 -0.397805 1.5 0 1.5 
z
" id="mc3a06a8369" style="stroke:#000080;"/>
    </defs>
    <g>
     <use style="fill:#000080;stroke:#000080;" x="301.02165" xlink:href="#mc3a06a8369" y="9.697057"/>
     <use style="fill:#000080;stroke:#000080;" x="301.02165" xlink:href="#mc3a06a8369" y="9.697057"/>
    </g>
   </g>
   <g id="line2d_24">
    <path d="M 56.12 294.88 
L 56.12 279.222897 
L 68.045504 279.222897 
L 68.045504 275.308622 
L 75.021477 275.308622 
L 75.021477 273.631075 
L 79.971009 273.631075 
L 79.971009 266.361706 
L 83.810164 266.361706 
L 83.810164 262.44743 
L 86.946982 262.44743 
L 86.946982 260.769883 
L 89.599124 260.769883 
L 89.599124 260.210701 
L 91.896513 260.210701 
L 91.896513 259.092337 
L 97.375467 259.092337 
L 97.375467 257.41479 
L 101.524628 257.41479 
L 101.524628 256.855608 
L 103.822018 256.855608 
L 103.822018 256.296425 
L 109.300972 256.296425 
L 109.300972 255.737243 
L 112.175115 255.737243 
L 112.175115 255.178061 
L 117.773963 255.178061 
L 117.773963 254.618879 
L 118.704183 254.618879 
L 118.704183 254.059696 
L 119.151088 254.059696 
L 119.151088 252.38215 
L 121.226476 252.38215 
L 121.226476 250.704603 
L 126.56265 250.704603 
L 126.56265 250.145421 
L 132.756449 250.145421 
L 132.756449 249.586238 
L 142.668011 249.586238 
L 142.668011 248.467874 
L 143.437686 248.467874 
L 143.437686 245.112781 
L 149.531165 245.112781 
L 149.531165 244.553598 
L 151.591111 244.553598 
L 151.591111 243.994416 
L 151.790783 243.994416 
L 151.790783 243.435234 
L 156.707196 243.435234 
L 156.707196 242.876052 
L 157.767776 242.876052 
L 157.767776 241.757687 
L 162.374969 241.757687 
L 162.374969 240.639323 
L 163.24673 240.639323 
L 163.24673 239.520958 
L 166.034344 239.520958 
L 166.034344 238.402594 
L 166.178318 238.402594 
L 166.178318 237.284229 
L 167.180827 237.284229 
L 167.180827 235.606682 
L 168.879547 235.606682 
L 168.879547 235.0475 
L 170.492588 235.0475 
L 170.492588 234.488318 
L 174.138756 234.488318 
L 174.138756 233.929136 
L 180.470965 233.929136 
L 180.470965 231.692407 
L 188.610335 231.692407 
L 188.610335 231.133225 
L 190.243055 231.133225 
L 190.243055 230.574042 
L 192.508554 230.574042 
L 192.508554 230.01486 
L 193.154193 230.01486 
L 193.154193 228.896496 
L 194.625787 228.896496 
L 194.625787 228.337313 
L 196.701549 228.337313 
L 196.701549 227.218949 
L 206.319237 227.218949 
L 206.319237 226.100584 
L 208.460869 226.100584 
L 208.460869 224.98222 
L 212.410666 224.98222 
L 212.410666 223.863855 
L 213.371064 223.863855 
L 213.371064 223.304673 
L 213.614848 223.304673 
L 213.614848 222.745491 
L 214.076354 222.745491 
L 214.076354 221.627126 
L 215.179531 221.627126 
L 215.179531 219.94958 
L 216.27245 219.94958 
L 216.27245 219.390397 
L 216.61523 219.390397 
L 216.61523 218.272033 
L 216.883718 218.272033 
L 216.883718 217.712851 
L 217.283901 217.712851 
L 217.283901 217.153669 
L 217.581298 217.153669 
L 217.581298 216.594486 
L 217.798166 216.594486 
L 217.8708 215.476122 
L 217.950203 215.476122 
L 217.950203 214.357757 
L 218.489139 214.357757 
L 218.489139 213.798575 
L 220.871834 213.798575 
L 220.871834 213.239393 
L 221.27298 213.239393 
L 221.375301 212.121028 
L 221.452798 212.121028 
L 221.452798 211.002664 
L 221.62847 211.002664 
L 221.62847 210.443482 
L 222.231227 210.443482 
L 222.291786 208.765935 
L 222.567646 208.765935 
L 222.567646 208.206753 
L 223.026583 208.206753 
L 223.026583 207.64757 
L 223.15564 207.64757 
L 223.236982 206.529206 
L 223.366541 206.529206 
L 223.462304 204.292477 
L 223.876239 204.292477 
L 223.876239 203.733295 
L 224.023964 203.733295 
L 224.023964 201.496566 
L 224.153671 201.496566 
L 224.257913 199.819019 
L 224.407271 199.819019 
L 224.407271 198.141472 
L 224.599615 198.141472 
L 224.599615 197.58229 
L 224.880847 197.58229 
L 224.946911 194.786379 
L 225.143594 194.786379 
L 225.168719 193.668014 
L 225.357379 193.668014 
L 225.357379 193.108832 
L 225.485665 193.108832 
L 225.503002 191.431285 
L 225.781629 191.431285 
L 225.781629 190.872103 
L 225.956616 190.872103 
L 225.956616 188.635374 
L 226.339607 188.635374 
L 226.392517 187.51701 
L 226.79228 187.51701 
L 226.79228 186.398645 
L 226.981619 186.398645 
L 226.981619 185.839463 
L 227.127455 185.839463 
L 227.127455 185.280281 
L 227.345147 185.280281 
L 227.362346 184.161916 
L 227.617479 184.161916 
L 227.617479 183.602734 
L 227.98138 183.602734 
L 228.059378 181.925187 
L 228.105694 181.925187 
L 228.105694 181.366005 
L 228.218995 181.366005 
L 228.308327 176.892547 
L 228.438001 176.892547 
L 228.524675 172.419089 
L 228.626895 172.419089 
L 228.722461 167.386449 
L 228.866322 167.386449 
L 228.866322 160.676262 
L 229.191015 160.676262 
L 229.227777 158.998715 
L 229.322263 158.998715 
L 229.322263 158.439533 
L 229.55227 158.439533 
L 229.600492 156.202804 
L 229.731518 156.202804 
L 229.775685 153.966075 
L 229.971635 153.966075 
L 229.971635 153.406893 
L 230.090099 153.406893 
L 230.090099 152.288529 
L 230.212608 152.288529 
L 230.281829 150.0518 
L 230.338383 150.0518 
L 230.434512 147.255888 
L 230.519208 147.255888 
L 230.536914 144.459977 
L 230.674534 144.459977 
L 230.689383 142.78243 
L 230.92457 142.78243 
L 230.97839 140.545702 
L 231.089483 140.545702 
L 231.187416 137.74979 
L 231.212957 137.74979 
L 231.212957 137.190608 
L 231.527462 137.190608 
L 231.635715 134.953879 
L 231.701996 134.953879 
L 231.784489 131.598786 
L 231.915661 131.598786 
L 231.929476 130.480421 
L 232.035237 130.480421 
L 232.035237 129.921239 
L 232.186796 129.921239 
L 232.223243 125.447781 
L 232.446416 125.447781 
L 232.470156 123.211052 
L 232.694973 123.211052 
L 232.713575 119.855959 
L 232.848591 119.855959 
L 232.897318 118.737594 
L 233.027961 118.737594 
L 233.094379 115.382501 
L 233.172809 115.382501 
L 233.172809 114.823318 
L 233.456026 114.823318 
L 233.516236 112.027407 
L 233.58251 112.027407 
L 233.666129 109.231496 
L 233.757249 109.231496 
L 233.839464 103.639674 
L 234.151767 103.639674 
L 234.173269 100.28458 
L 234.328493 100.28458 
L 234.366128 99.166216 
L 234.543374 99.166216 
L 234.572469 98.047851 
L 234.753473 98.047851 
L 234.789659 95.25194 
L 234.908853 95.25194 
L 234.98891 94.133576 
L 235.065981 94.133576 
L 235.143229 87.982571 
L 235.211834 87.982571 
L 235.305464 85.18666 
L 235.381646 85.18666 
L 235.381646 84.627477 
L 235.495291 84.627477 
L 235.603121 81.831566 
L 235.835793 81.831566 
L 235.931072 78.476473 
L 236.036213 78.476473 
L 236.095443 74.562197 
L 236.166742 74.562197 
L 236.243121 71.207104 
L 236.329374 71.207104 
L 236.396807 69.529557 
L 236.475066 69.529557 
L 236.475066 68.411192 
L 236.759008 68.411192 
L 236.778908 66.174463 
L 236.87477 66.174463 
L 236.942449 65.056099 
L 237.010796 65.056099 
L 237.119312 62.260188 
L 237.184188 62.260188 
L 237.286562 58.345912 
L 237.308617 58.345912 
L 237.416646 55.550001 
L 237.421208 55.550001 
L 237.491773 52.194907 
L 237.58014 52.194907 
L 237.684236 49.398996 
L 237.815371 49.398996 
L 237.917172 44.925538 
L 238.119421 44.925538 
L 238.119421 43.247992 
L 238.270323 43.247992 
L 238.270323 41.570445 
L 238.415176 41.570445 
L 238.433682 39.892898 
L 238.551988 39.892898 
L 238.551988 38.215351 
L 238.705087 38.215351 
L 238.705087 37.656169 
L 238.856836 37.656169 
L 238.873196 35.978622 
L 239.0625 35.978622 
L 239.118805 33.182711 
L 239.270242 33.182711 
L 239.334038 29.268436 
L 239.44471 29.268436 
L 239.44471 28.150071 
L 239.89385 28.150071 
L 239.89385 27.590889 
L 282.219437 27.590889 
L 282.219437 27.031707 
L 282.478465 27.031707 
L 282.574323 25.913342 
L 282.636142 25.913342 
L 282.743672 23.676613 
L 282.755881 23.676613 
L 282.858342 20.880702 
L 282.869201 20.880702 
L 282.967632 16.966426 
L 283.118634 16.966426 
L 283.221416 13.052151 
L 283.276007 13.052151 
L 283.280926 11.933786 
L 294.028587 11.933786 
L 294.028587 11.374604 
L 294.17189 11.374604 
L 294.17189 10.815422 
L 294.3001 10.815422 
L 294.3001 10.256239 
L 301.02165 10.256239 
L 301.02165 9.697057 
L 333.429677 9.697057 
L 333.429677 9.697057 
" style="fill:none;stroke:#000080;stroke-linecap:square;stroke-width:1.5;"/>
   </g>
   <g id="line2d_25">
    <defs>
     <path d="M 0 6 
C 1.591219 6 3.117479 5.367802 4.242641 4.242641 
C 5.367802 3.117479 6 1.591219 6 0 
C 6 -1.591219 5.367802 -3.117479 4.242641 -4.242641 
C 3.117479 -5.367802 1.591219 -6 0 -6 
C -1.591219 -6 -3.117479 -5.367802 -4.242641 -4.242641 
C -5.367802 -3.117479 -6 -1.591219 -6 0 
C -6 1.591219 -5.367802 3.117479 -4.242641 4.242641 
C -3.117479 5.367802 -1.591219 6 0 6 
z
" id="ma8ad178798" style="stroke:#000080;stroke-width:1.5;"/>
    </defs>
    <g>
     <use style="fill-opacity:0;stroke:#000080;stroke-width:1.5;" x="212.410666" xlink:href="#ma8ad178798" y="223.863855"/>
     <use style="fill-opacity:0;stroke:#000080;stroke-width:1.5;" x="234.908853" xlink:href="#ma8ad178798" y="94.692758"/>
     <use style="fill-opacity:0;stroke:#000080;stroke-width:1.5;" x="301.02165" xlink:href="#ma8ad178798" y="10.256239"/>
     <use style="fill-opacity:0;stroke:#000080;stroke-width:1.5;" x="301.02165" xlink:href="#ma8ad178798" y="9.697057"/>
     <use style="fill-opacity:0;stroke:#000080;stroke-width:1.5;" x="333.429677" xlink:href="#ma8ad178798" y="9.697057"/>
    </g>
   </g>
   <g id="line2d_26">
    <path style="fill:none;stroke:#000080;stroke-linecap:square;stroke-width:1.5;"/>
    <g/>
   </g>
   <g id="line2d_27">
    <path clip-path="url(#p98a838a4bc)" d="M 281.888522 27.590889 
" style="fill:none;stroke:#000080;stroke-linecap:square;stroke-width:1.5;"/>
    <defs>
     <path d="M -12 12 
L 12 -12 
M -12 -12 
L 12 12 
" id="m478a301208" style="stroke:#000080;stroke-width:3;"/>
    </defs>
    <g clip-path="url(#p98a838a4bc)">
     <use style="fill:#000080;stroke:#000080;stroke-width:3;" x="281.888522" xlink:href="#m478a301208" y="27.590889"/>
    </g>
   </g>
   <g id="line2d_28">
    <defs>
     <path d="M 0 1.5 
C 0.397805 1.5 0.77937 1.341951 1.06066 1.06066 
C 1.341951 0.77937 1.5 0.397805 1.5 0 
C 1.5 -0.397805 1.341951 -0.77937 1.06066 -1.06066 
C 0.77937 -1.341951 0.397805 -1.5 0 -1.5 
C -0.397805 -1.5 -0.77937 -1.341951 -1.06066 -1.06066 
C -1.341951 -0.77937 -1.5 -0.397805 -1.5 0 
C -1.5 0.397805 -1.341951 0.77937 -1.06066 1.06066 
C -0.77937 1.341951 -0.397805 1.5 0 1.5 
z
" id="md401ae82af" style="stroke:#ff00ff;"/>
    </defs>
    <g>
     <use style="fill:#ff00ff;stroke:#ff00ff;" x="321.654351" xlink:href="#md401ae82af" y="9.697057"/>
     <use style="fill:#ff00ff;stroke:#ff00ff;" x="321.654351" xlink:href="#md401ae82af" y="9.697057"/>
    </g>
   </g>
   <g id="line2d_29">
    <path d="M 56.12 294.88 
L 56.12 273.071893 
L 68.045504 273.071893 
L 68.045504 269.716799 
L 79.971009 269.716799 
L 79.971009 268.598435 
L 83.810164 268.598435 
L 83.810164 268.039252 
L 86.946982 268.039252 
L 86.946982 259.092337 
L 91.896513 259.092337 
L 91.896513 253.500514 
L 93.922955 253.500514 
L 93.922955 251.822967 
L 97.375467 251.822967 
L 97.375467 250.704603 
L 98.872486 250.704603 
L 98.872486 249.027056 
L 101.524628 249.027056 
L 101.524628 248.467874 
L 107.661173 248.467874 
L 107.661173 245.671963 
L 109.300972 245.671963 
L 109.300972 244.553598 
L 110.065758 244.553598 
L 110.065758 242.876052 
L 110.797991 242.876052 
L 110.797991 235.606682 
L 111.500328 235.606682 
L 111.500328 232.810771 
L 112.175115 232.810771 
L 112.175115 232.251589 
L 112.824432 232.251589 
L 112.824432 231.133225 
L 115.20129 231.133225 
L 115.20129 230.01486 
L 115.747522 230.01486 
L 115.747522 228.896496 
L 119.586677 228.896496 
L 119.586677 225.541402 
L 122.361274 225.541402 
L 122.361274 224.98222 
L 123.425832 224.98222 
L 123.425832 219.390397 
L 124.749936 219.390397 
L 124.749936 218.831215 
L 134.102767 218.831215 
L 134.102767 217.712851 
L 134.648999 217.712851 
L 134.648999 216.594486 
L 136.026124 216.594486 
L 136.026124 216.035304 
L 136.834012 216.035304 
L 136.834012 213.798575 
L 137.301141 213.798575 
L 137.301141 211.561846 
L 140.386678 211.561846 
L 140.386678 210.443482 
L 145.368278 210.443482 
L 145.368278 208.765935 
L 145.935523 208.765935 
L 145.935523 203.174112 
L 146.752794 203.174112 
L 146.752794 202.055748 
L 147.448035 202.055748 
L 147.448035 200.937384 
L 148.521108 200.937384 
L 148.521108 198.700655 
L 148.759517 198.700655 
L 148.759517 198.141472 
L 151.253087 198.141472 
L 151.253087 197.023108 
L 151.988164 197.023108 
L 152.053458 188.076192 
L 152.312182 188.076192 
L 152.312182 185.839463 
L 153.127137 185.839463 
L 153.127137 181.925187 
L 155.36319 181.925187 
L 155.36319 179.688458 
L 155.840397 179.688458 
L 155.840397 179.129276 
L 156.75685 179.129276 
L 156.75685 177.451729 
L 159.585164 177.451729 
L 159.585164 170.741543 
L 159.752609 170.741543 
L 159.752609 169.623178 
L 161.531964 169.623178 
L 161.531964 169.063996 
L 162.374969 169.063996 
L 162.374969 167.945631 
L 168.657545 167.945631 
L 168.707127 163.472173 
L 171.69893 163.472173 
L 171.69893 161.794627 
L 175.69135 161.794627 
L 175.69135 157.321169 
L 179.717534 157.321169 
L 179.717534 156.761987 
L 182.395763 156.761987 
L 182.395763 153.966075 
L 188.757618 153.966075 
L 188.757618 153.406893 
L 189.475693 153.406893 
L 189.475693 151.170164 
L 198.955105 151.170164 
L 198.955105 145.578342 
L 225.316862 145.578342 
L 225.316862 145.019159 
L 226.669148 145.019159 
L 226.669148 143.341613 
L 227.537446 143.341613 
L 227.537446 141.664066 
L 228.526205 141.664066 
L 228.526205 141.104884 
L 229.575318 141.104884 
L 229.575318 140.545702 
L 229.937839 140.545702 
L 229.937839 139.986519 
L 230.747305 139.986519 
L 230.747305 139.427337 
L 231.391342 139.427337 
L 231.463084 138.308973 
L 231.918174 138.308973 
L 231.918174 137.74979 
L 232.878319 137.74979 
L 232.878319 136.631426 
L 233.152358 136.631426 
L 233.152358 135.513061 
L 233.460046 135.513061 
L 233.5334 133.276332 
L 234.256814 133.276332 
L 234.256814 132.71715 
L 234.898819 132.71715 
L 234.898819 132.157968 
L 235.467206 132.157968 
L 235.533007 131.039603 
L 235.599064 131.039603 
L 235.6679 129.362057 
L 235.711287 129.362057 
L 235.711287 128.802874 
L 235.896214 128.802874 
L 235.896214 128.243692 
L 236.685842 128.243692 
L 236.685842 127.125328 
L 236.895478 127.125328 
L 236.895478 126.566145 
L 237.24928 126.566145 
L 237.24928 126.006963 
L 237.438535 126.006963 
L 237.438535 124.888599 
L 238.135183 124.888599 
L 238.135183 124.329417 
L 238.440562 124.329417 
L 238.440562 123.770234 
L 238.704664 123.770234 
L 238.704664 123.211052 
L 281.889382 123.211052 
L 281.968305 94.692758 
L 282.026705 94.692758 
L 282.026705 89.100935 
L 282.559602 89.100935 
L 282.623717 87.982571 
L 282.691962 87.982571 
L 282.763012 85.745842 
L 282.875961 85.745842 
L 282.935704 82.390748 
L 283.076199 82.390748 
L 283.103379 79.594837 
L 283.213135 79.594837 
L 283.232845 78.476473 
L 283.334221 78.476473 
L 283.334221 77.917291 
L 293.814457 77.917291 
L 293.883257 63.937735 
L 294.119337 63.937735 
L 294.228987 61.141823 
L 294.256827 61.141823 
L 294.346051 56.668365 
L 294.375001 56.668365 
L 294.461478 52.194907 
L 294.489078 52.194907 
L 294.503794 50.517361 
L 300.790275 50.517361 
L 300.836184 44.925538 
L 301.031629 44.925538 
L 301.130228 37.656169 
L 301.16291 37.656169 
L 301.242963 33.741894 
L 305.739875 33.741894 
L 305.774181 27.590889 
L 305.958253 27.590889 
L 306.057775 25.35416 
L 306.085587 25.35416 
L 306.085587 24.794978 
L 309.580619 24.794978 
L 309.606411 22.558249 
L 309.766157 22.558249 
L 309.851893 19.203155 
L 312.728282 19.203155 
L 312.738612 16.407244 
L 312.864374 16.407244 
L 312.921504 14.729697 
L 315.387454 14.729697 
L 315.387454 13.611333 
L 317.682369 13.611333 
L 317.682369 13.052151 
L 317.812855 13.052151 
L 317.812855 12.492968 
L 319.694638 12.492968 
L 319.694638 11.933786 
L 319.820692 11.933786 
L 319.821208 10.815422 
L 321.597329 10.815422 
L 321.654351 9.697057 
L 333.429677 9.697057 
L 333.429677 9.697057 
" style="fill:none;stroke:#ff00ff;stroke-linecap:square;stroke-width:1.5;"/>
   </g>
   <g id="line2d_30">
    <defs>
     <path d="M -0 8.485281 
L 5.091169 0 
L 0 -8.485281 
L -5.091169 -0 
z
" id="m082365cc4e" style="stroke:#ff00ff;stroke-linejoin:miter;stroke-width:1.5;"/>
    </defs>
    <g>
     <use style="fill-opacity:0;stroke:#ff00ff;stroke-linejoin:miter;stroke-width:1.5;" x="93.922955" xlink:href="#m082365cc4e" y="251.822967"/>
     <use style="fill-opacity:0;stroke:#ff00ff;stroke-linejoin:miter;stroke-width:1.5;" x="175.69135" xlink:href="#m082365cc4e" y="157.321169"/>
     <use style="fill-opacity:0;stroke:#ff00ff;stroke-linejoin:miter;stroke-width:1.5;" x="238.704664" xlink:href="#m082365cc4e" y="123.211052"/>
     <use style="fill-opacity:0;stroke:#ff00ff;stroke-linejoin:miter;stroke-width:1.5;" x="321.654351" xlink:href="#m082365cc4e" y="9.697057"/>
     <use style="fill-opacity:0;stroke:#ff00ff;stroke-linejoin:miter;stroke-width:1.5;" x="333.429677" xlink:href="#m082365cc4e" y="9.697057"/>
    </g>
   </g>
   <g id="line2d_31">
    <path style="fill:none;stroke:#ff00ff;stroke-linecap:square;stroke-width:1.5;"/>
    <g/>
   </g>
   <g id="line2d_32">
    <path clip-path="url(#p98a838a4bc)" d="M 281.888522 123.211052 
" style="fill:none;stroke:#ff00ff;stroke-linecap:square;stroke-width:1.5;"/>
    <defs>
     <path d="M -12 12 
L 12 -12 
M -12 -12 
L 12 12 
" id="meb45fdd899" style="stroke:#ff00ff;stroke-width:3;"/>
    </defs>
    <g clip-path="url(#p98a838a4bc)">
     <use style="fill:#ff00ff;stroke:#ff00ff;stroke-width:3;" x="281.888522" xlink:href="#meb45fdd899" y="123.211052"/>
    </g>
   </g>
   <g id="line2d_33">
    <defs>
     <path d="M 0 1.5 
C 0.397805 1.5 0.77937 1.341951 1.06066 1.06066 
C 1.341951 0.77937 1.5 0.397805 1.5 0 
C 1.5 -0.397805 1.341951 -0.77937 1.06066 -1.06066 
C 0.77937 -1.341951 0.397805 -1.5 0 -1.5 
C -0.397805 -1.5 -0.77937 -1.341951 -1.06066 -1.06066 
C -1.341951 -0.77937 -1.5 -0.397805 -1.5 0 
C -1.5 0.397805 -1.341951 0.77937 -1.06066 1.06066 
C -0.77937 1.341951 -0.397805 1.5 0 1.5 
z
" id="me72fe2f93f" style="stroke:#ffa500;"/>
    </defs>
    <g>
     <use style="fill:#ffa500;stroke:#ffa500;" x="323.149616" xlink:href="#me72fe2f93f" y="9.697057"/>
     <use style="fill:#ffa500;stroke:#ffa500;" x="323.149616" xlink:href="#me72fe2f93f" y="9.697057"/>
    </g>
   </g>
   <g id="line2d_34">
    <path d="M 56.12 294.88 
L 56.12 265.243341 
L 68.045504 265.243341 
L 68.045504 257.973972 
L 75.021477 257.973972 
L 75.021477 254.059696 
L 79.971009 254.059696 
L 79.971009 250.704603 
L 89.599124 250.704603 
L 89.599124 245.112781 
L 91.896513 245.112781 
L 91.896513 243.994416 
L 95.735668 243.994416 
L 95.735668 242.876052 
L 102.711641 242.876052 
L 102.711641 241.757687 
L 106.778678 241.757687 
L 106.778678 240.639323 
L 113.450132 240.639323 
L 113.450132 238.961776 
L 116.790561 238.961776 
L 116.790561 236.165865 
L 118.704183 236.165865 
L 118.704183 231.692407 
L 121.613118 231.692407 
L 121.613118 230.574042 
L 124.428341 230.574042 
L 124.428341 227.778131 
L 127.939774 227.778131 
L 127.939774 227.218949 
L 128.716065 227.218949 
L 128.716065 226.100584 
L 129.458837 226.100584 
L 129.458837 225.541402 
L 131.512181 225.541402 
L 131.512181 223.863855 
L 132.55522 223.863855 
L 132.55522 223.304673 
L 132.955351 223.304673 
L 132.955351 218.831215 
L 133.728734 218.831215 
L 133.728734 217.712851 
L 140.127953 217.712851 
L 140.127953 216.594486 
L 140.767613 216.594486 
L 140.767613 209.325117 
L 142.780095 209.325117 
L 142.780095 207.088388 
L 142.891454 207.088388 
L 142.891454 206.529206 
L 146.028272 206.529206 
L 146.028272 205.410841 
L 147.701674 205.410841 
L 147.701674 204.292477 
L 150.698043 204.292477 
L 150.698043 203.174112 
L 151.724483 203.174112 
L 151.724483 199.819019 
L 151.988164 199.819019 
L 151.988164 195.904743 
L 153.905229 195.904743 
L 153.905229 191.431285 
L 154.649649 191.431285 
L 154.649649 190.872103 
L 155.255322 190.872103 
L 155.255322 189.753739 
L 155.840397 189.753739 
L 155.840397 186.398645 
L 159.245304 186.398645 
L 159.245304 182.48437 
L 161.681572 182.48437 
L 161.681572 178.570094 
L 163.848126 178.570094 
L 163.848126 176.892547 
L 169.147048 176.892547 
L 169.171162 174.655818 
L 171.320324 174.655818 
L 171.320324 170.18236 
L 172.3521 170.18236 
L 172.3521 167.386449 
L 172.787188 167.386449 
L 172.787188 165.14972 
L 173.736925 165.14972 
L 173.736925 161.235444 
L 176.211272 161.235444 
L 176.211272 160.676262 
L 178.695695 160.676262 
L 178.695695 158.439533 
L 183.139164 158.439533 
L 183.139164 157.880351 
L 183.499156 157.880351 
L 183.499156 156.761987 
L 185.070235 156.761987 
L 185.070235 151.170164 
L 187.317342 151.170164 
L 187.317342 147.815071 
L 189.289613 147.815071 
L 189.289613 147.255888 
L 190.370029 147.255888 
L 190.370029 145.019159 
L 194.220425 145.019159 
L 194.220425 142.223248 
L 195.833641 142.223248 
L 195.833641 141.664066 
L 196.157984 141.664066 
L 196.157984 141.104884 
L 196.377475 141.104884 
L 196.377475 137.190608 
L 196.759821 137.190608 
L 196.759821 136.072244 
L 197.219028 136.072244 
L 197.242612 133.276332 
L 197.411473 133.276332 
L 197.411473 131.039603 
L 197.808277 131.039603 
L 197.808277 129.362057 
L 198.129113 129.362057 
L 198.173824 127.125328 
L 198.571081 127.125328 
L 198.571081 126.006963 
L 199.272196 126.006963 
L 199.272196 123.770234 
L 200.504671 123.770234 
L 200.504671 123.211052 
L 201.286065 123.211052 
L 201.286065 119.855959 
L 202.108272 119.855959 
L 202.108272 118.178412 
L 202.940425 118.178412 
L 202.940425 117.060047 
L 203.078644 117.060047 
L 203.078644 115.382501 
L 203.923827 115.382501 
L 203.923827 113.145772 
L 281.889692 113.145772 
L 281.993563 77.358108 
L 282.003854 77.358108 
L 282.062543 64.496917 
L 293.816383 64.496917 
L 293.906375 36.537805 
L 300.793371 36.537805 
L 300.85162 25.35416 
L 305.741759 25.35416 
L 305.783202 17.525609 
L 309.579629 17.525609 
L 309.611983 12.492968 
L 312.739041 12.492968 
L 312.739041 11.933786 
L 315.392614 11.933786 
L 315.394081 10.815422 
L 321.518141 10.815422 
L 321.518141 10.256239 
L 323.149616 10.256239 
L 323.149616 9.697057 
L 333.429677 9.697057 
L 333.429677 9.697057 
" style="fill:none;stroke:#ffa500;stroke-linecap:square;stroke-width:1.5;"/>
   </g>
   <g id="line2d_35">
    <defs>
     <path d="M 0 -6 
L -1.347084 -1.854102 
L -5.706339 -1.854102 
L -2.179628 0.708204 
L -3.526712 4.854102 
L -0 2.291796 
L 3.526712 4.854102 
L 2.179628 0.708204 
L 5.706339 -1.854102 
L 1.347084 -1.854102 
z
" id="m94909e162f" style="stroke:#ffa500;stroke-linejoin:bevel;stroke-width:1.5;"/>
    </defs>
    <g>
     <use style="fill-opacity:0;stroke:#ffa500;stroke-linejoin:bevel;stroke-width:1.5;" x="163.848126" xlink:href="#m94909e162f" y="178.570094"/>
     <use style="fill-opacity:0;stroke:#ffa500;stroke-linejoin:bevel;stroke-width:1.5;" x="203.923827" xlink:href="#m94909e162f" y="115.382501"/>
     <use style="fill-opacity:0;stroke:#ffa500;stroke-linejoin:bevel;stroke-width:1.5;" x="293.906375" xlink:href="#m94909e162f" y="37.096987"/>
     <use style="fill-opacity:0;stroke:#ffa500;stroke-linejoin:bevel;stroke-width:1.5;" x="323.149616" xlink:href="#m94909e162f" y="9.697057"/>
     <use style="fill-opacity:0;stroke:#ffa500;stroke-linejoin:bevel;stroke-width:1.5;" x="333.429677" xlink:href="#m94909e162f" y="9.697057"/>
    </g>
   </g>
   <g id="line2d_36">
    <path style="fill:none;stroke:#ffa500;stroke-linecap:square;stroke-width:1.5;"/>
    <g/>
   </g>
   <g id="line2d_37">
    <path clip-path="url(#p98a838a4bc)" d="M 281.888522 113.145772 
" style="fill:none;stroke:#ffa500;stroke-linecap:square;stroke-width:1.5;"/>
    <defs>
     <path d="M -12 12 
L 12 -12 
M -12 -12 
L 12 12 
" id="m1ddbe61d58" style="stroke:#ffa500;stroke-width:3;"/>
    </defs>
    <g clip-path="url(#p98a838a4bc)">
     <use style="fill:#ffa500;stroke:#ffa500;stroke-width:3;" x="281.888522" xlink:href="#m1ddbe61d58" y="113.145772"/>
    </g>
   </g>
   <g id="line2d_38">
    <defs>
     <path d="M 0 1.5 
C 0.397805 1.5 0.77937 1.341951 1.06066 1.06066 
C 1.341951 0.77937 1.5 0.397805 1.5 0 
C 1.5 -0.397805 1.341951 -0.77937 1.06066 -1.06066 
C 0.77937 -1.341951 0.397805 -1.5 0 -1.5 
C -0.397805 -1.5 -0.77937 -1.341951 -1.06066 -1.06066 
C -1.341951 -0.77937 -1.5 -0.397805 -1.5 0 
C -1.5 0.397805 -1.341951 0.77937 -1.06066 1.06066 
C -0.77937 1.341951 -0.397805 1.5 0 1.5 
z
" id="m4da2845fa4" style="stroke:#6495ed;"/>
    </defs>
    <g>
     <use style="fill:#6495ed;stroke:#6495ed;" x="335.086616" xlink:href="#m4da2845fa4" y="9.697057"/>
     <use style="fill:#6495ed;stroke:#6495ed;" x="335.086616" xlink:href="#m4da2845fa4" y="9.697057"/>
    </g>
   </g>
   <g id="line2d_39">
    <path d="M 56.12 294.88 
L 56.12 287.610631 
L 68.045504 287.610631 
L 68.045504 283.137173 
L 86.946982 283.137173 
L 86.946982 273.631075 
L 89.599124 273.631075 
L 89.599124 270.835164 
L 101.524628 270.835164 
L 101.524628 267.48007 
L 102.711641 267.48007 
L 102.711641 265.802523 
L 103.822018 265.802523 
L 103.822018 261.329066 
L 104.865056 261.329066 
L 104.865056 259.092337 
L 105.848459 259.092337 
L 105.848459 257.41479 
L 107.661173 257.41479 
L 107.661173 254.618879 
L 109.300972 254.618879 
L 109.300972 253.500514 
L 113.450132 253.500514 
L 113.450132 252.941332 
L 114.637146 252.941332 
L 114.637146 250.145421 
L 120.426105 250.145421 
L 120.426105 249.027056 
L 120.830944 249.027056 
L 120.830944 248.467874 
L 129.214792 248.467874 
L 129.214792 247.908692 
L 131.295765 247.908692 
L 131.295765 246.790327 
L 131.937015 246.790327 
L 131.937015 246.231145 
L 135.692038 246.231145 
L 135.692038 245.112781 
L 138.34418 245.112781 
L 138.34418 244.553598 
L 139.190491 244.553598 
L 139.190491 243.994416 
L 139.327583 243.994416 
L 139.327583 243.435234 
L 141.624972 243.435234 
L 141.624972 242.876052 
L 144.277114 242.876052 
L 144.277114 242.316869 
L 145.935523 242.316869 
L 145.935523 241.757687 
L 146.303556 241.757687 
L 146.303556 241.198505 
L 146.752794 241.198505 
L 146.752794 240.639323 
L 148.994666 240.639323 
L 148.994666 238.961776 
L 149.303282 238.961776 
L 149.303282 237.284229 
L 153.309845 237.284229 
L 153.309845 236.725047 
L 159.585164 236.725047 
L 159.585164 235.0475 
L 164.301765 235.0475 
L 164.301765 234.488318 
L 165.976415 234.488318 
L 165.976415 233.929136 
L 170.470259 233.929136 
L 170.470259 233.369954 
L 172.150635 233.369954 
L 172.150635 232.810771 
L 175.29083 232.810771 
L 175.29083 232.251589 
L 177.039265 232.251589 
L 177.039265 231.692407 
L 178.472614 231.692407 
L 178.472614 231.133225 
L 179.560171 231.133225 
L 179.560171 230.01486 
L 180.792793 230.01486 
L 180.792793 228.896496 
L 181.653813 228.896496 
L 181.688771 225.541402 
L 186.208084 225.541402 
L 186.208084 224.98222 
L 189.002858 224.98222 
L 189.002858 224.423038 
L 190.731664 224.423038 
L 190.731664 222.186309 
L 191.11953 222.186309 
L 191.11953 221.067944 
L 194.033997 221.067944 
L 194.033997 220.508762 
L 195.197896 220.508762 
L 195.197896 219.94958 
L 195.925483 219.94958 
L 195.925483 219.390397 
L 196.40719 219.390397 
L 196.40719 217.153669 
L 196.525539 217.153669 
L 196.525539 215.476122 
L 197.537039 215.476122 
L 197.537039 214.357757 
L 198.267341 214.357757 
L 198.267341 213.798575 
L 201.25996 213.798575 
L 201.25996 212.680211 
L 201.796393 212.680211 
L 201.796393 212.121028 
L 205.195877 212.121028 
L 205.195877 211.002664 
L 207.165816 211.002664 
L 207.165816 208.206753 
L 208.05334 208.206753 
L 208.05334 207.64757 
L 208.482956 207.64757 
L 208.482956 207.088388 
L 208.617322 207.088388 
L 208.617322 205.970024 
L 209.066473 205.970024 
L 209.066473 204.851659 
L 209.630847 204.851659 
L 209.630847 203.733295 
L 209.879124 203.733295 
L 209.879124 203.174112 
L 210.64863 203.174112 
L 210.739216 199.819019 
L 211.963762 199.819019 
L 211.993786 195.345561 
L 212.259703 195.345561 
L 212.259703 194.786379 
L 212.668342 194.786379 
L 212.668342 193.108832 
L 212.954397 193.108832 
L 212.954397 191.431285 
L 213.461282 191.431285 
L 213.461282 188.076192 
L 214.132961 188.076192 
L 214.132961 186.398645 
L 214.832048 186.398645 
L 214.832048 185.280281 
L 214.994072 185.280281 
L 214.994072 184.161916 
L 215.894028 184.161916 
L 215.894028 182.48437 
L 216.115784 182.48437 
L 216.115784 181.366005 
L 216.245917 181.366005 
L 216.348698 178.570094 
L 216.461669 178.570094 
L 216.461669 175.774183 
L 216.696065 175.774183 
L 216.696065 174.655818 
L 217.252993 174.655818 
L 217.252993 174.096636 
L 217.789601 174.096636 
L 217.789601 170.741543 
L 219.031643 170.741543 
L 219.133632 169.063996 
L 219.212686 169.063996 
L 219.212686 168.504814 
L 219.412646 168.504814 
L 219.413946 167.386449 
L 219.734458 167.386449 
L 219.734458 165.708902 
L 219.998949 165.708902 
L 219.998949 164.590538 
L 220.139031 164.590538 
L 220.139031 163.472173 
L 221.668406 163.472173 
L 221.668406 162.912991 
L 221.910589 162.912991 
L 221.910589 161.235444 
L 281.92973 161.235444 
L 282.015813 153.966075 
L 282.042775 153.966075 
L 282.148339 144.459977 
L 282.16013 144.459977 
L 282.268109 124.888599 
L 282.273258 124.888599 
L 282.357343 113.145772 
L 282.400284 113.145772 
L 282.400284 112.586589 
L 293.836481 112.586589 
L 293.944426 99.725398 
L 293.950367 99.725398 
L 294.050034 81.831566 
L 294.064571 81.831566 
L 294.064571 81.272384 
L 300.804972 81.272384 
L 300.915879 67.85201 
L 300.917461 67.85201 
L 300.946424 61.141823 
L 305.752215 61.141823 
L 305.857939 47.162267 
L 305.868905 47.162267 
L 305.868905 46.603085 
L 309.587671 46.603085 
L 309.683727 34.860258 
L 312.736784 34.860258 
L 312.790057 29.827618 
L 315.38464 29.827618 
L 315.44274 24.235795 
L 317.684393 24.235795 
L 317.723861 21.999066 
L 319.716303 21.999066 
L 319.733791 19.203155 
L 321.526535 19.203155 
L 321.556791 15.848062 
L 323.17088 15.848062 
L 323.17088 15.28888 
L 324.66892 15.28888 
L 324.671926 14.170515 
L 326.051387 14.170515 
L 326.051387 13.611333 
L 327.324402 13.611333 
L 327.324402 13.052151 
L 328.507334 13.052151 
L 328.515248 11.933786 
L 329.607732 11.933786 
L 329.607732 11.374604 
L 330.652976 11.374604 
L 330.652976 10.815422 
L 332.56416 10.815422 
L 332.56416 10.256239 
L 333.429677 10.256239 
L 333.429677 10.256239 
" style="fill:none;stroke:#6495ed;stroke-linecap:square;stroke-width:1.5;"/>
   </g>
   <g id="line2d_40">
    <defs>
     <path d="M -0 6 
L 6 -6 
L -6 -6 
z
" id="m5d0b81ff2b" style="stroke:#6495ed;stroke-linejoin:miter;stroke-width:1.5;"/>
    </defs>
    <g>
     <use style="fill-opacity:0;stroke:#6495ed;stroke-linejoin:miter;stroke-width:1.5;" x="165.976415" xlink:href="#m5d0b81ff2b" y="233.929136"/>
     <use style="fill-opacity:0;stroke:#6495ed;stroke-linejoin:miter;stroke-width:1.5;" x="221.910589" xlink:href="#m5d0b81ff2b" y="161.235444"/>
     <use style="fill-opacity:0;stroke:#6495ed;stroke-linejoin:miter;stroke-width:1.5;" x="309.67128" xlink:href="#m5d0b81ff2b" y="35.978622"/>
     <use style="fill-opacity:0;stroke:#6495ed;stroke-linejoin:miter;stroke-width:1.5;" x="332.56416" xlink:href="#m5d0b81ff2b" y="10.256239"/>
     <use style="fill-opacity:0;stroke:#6495ed;stroke-linejoin:miter;stroke-width:1.5;" x="333.429677" xlink:href="#m5d0b81ff2b" y="10.256239"/>
    </g>
   </g>
   <g id="line2d_41">
    <path style="fill:none;stroke:#6495ed;stroke-linecap:square;stroke-width:1.5;"/>
    <g/>
   </g>
   <g id="line2d_42">
    <path clip-path="url(#p98a838a4bc)" d="M 281.888522 161.235444 
" style="fill:none;stroke:#6495ed;stroke-linecap:square;stroke-width:1.5;"/>
    <defs>
     <path d="M -12 12 
L 12 -12 
M -12 -12 
L 12 12 
" id="mebb8c21722" style="stroke:#6495ed;stroke-width:3;"/>
    </defs>
    <g clip-path="url(#p98a838a4bc)">
     <use style="fill:#6495ed;stroke:#6495ed;stroke-width:3;" x="281.888522" xlink:href="#mebb8c21722" y="161.235444"/>
    </g>
   </g>
   <g id="line2d_43">
    <defs>
     <path d="M 0 1.5 
C 0.397805 1.5 0.77937 1.341951 1.06066 1.06066 
C 1.341951 0.77937 1.5 0.397805 1.5 0 
C 1.5 -0.397805 1.341951 -0.77937 1.06066 -1.06066 
C 0.77937 -1.341951 0.397805 -1.5 0 -1.5 
C -0.397805 -1.5 -0.77937 -1.341951 -1.06066 -1.06066 
C -1.341951 -0.77937 -1.5 -0.397805 -1.5 0 
C -1.5 0.397805 -1.341951 0.77937 -1.06066 1.06066 
C -0.77937 1.341951 -0.397805 1.5 0 1.5 
z
" id="mf02b8959c2" style="stroke:#ff0000;"/>
    </defs>
    <g>
     <use style="fill:#ff0000;stroke:#ff0000;" x="354.746424" xlink:href="#mf02b8959c2" y="9.697057"/>
     <use style="fill:#ff0000;stroke:#ff0000;" x="354.746424" xlink:href="#mf02b8959c2" y="9.697057"/>
    </g>
   </g>
   <g id="line2d_44">
    <path d="M 56.12 294.88 
L 56.12 276.986168 
L 68.045504 276.986168 
L 68.045504 274.749439 
L 75.021477 274.749439 
L 75.021477 271.394346 
L 79.971009 271.394346 
L 79.971009 270.275981 
L 83.810164 270.275981 
L 83.810164 268.039252 
L 86.946982 268.039252 
L 86.946982 266.920888 
L 89.599124 266.920888 
L 89.599124 266.361706 
L 108.500601 266.361706 
L 108.500601 265.802523 
L 111.500328 265.802523 
L 111.500328 265.243341 
L 115.747522 265.243341 
L 115.747522 264.124977 
L 117.773963 264.124977 
L 117.773963 262.44743 
L 119.586677 262.44743 
L 119.586677 261.329066 
L 121.226476 261.329066 
L 121.226476 259.651519 
L 121.991263 259.651519 
L 121.991263 259.092337 
L 122.361274 259.092337 
L 122.361274 258.533154 
L 123.425832 258.533154 
L 123.425832 256.855608 
L 126.56265 256.855608 
L 126.56265 255.737243 
L 127.402078 255.737243 
L 127.402078 255.178061 
L 131.076592 255.178061 
L 131.076592 254.059696 
L 136.675441 254.059696 
L 136.675441 252.38215 
L 138.052565 252.38215 
L 138.052565 251.263785 
L 145.842271 251.263785 
L 145.842271 250.145421 
L 153.96365 250.145421 
L 153.96365 249.586238 
L 156.253747 249.586238 
L 156.253747 249.027056 
L 163.616741 249.027056 
L 163.616741 247.908692 
L 165.083228 247.908692 
L 165.083228 246.790327 
L 170.514889 246.790327 
L 170.514889 244.553598 
L 172.008193 244.553598 
L 172.008193 243.435234 
L 172.251662 243.435234 
L 172.251662 242.876052 
L 173.058442 242.876052 
L 173.058442 241.757687 
L 174.138756 241.757687 
L 174.138756 240.639323 
L 178.416389 240.639323 
L 178.416389 238.402594 
L 179.401356 238.402594 
L 179.401356 237.843411 
L 180.97576 237.843411 
L 180.97576 237.284229 
L 184.136827 237.284229 
L 184.136827 236.165865 
L 188.508831 236.165865 
L 188.508831 235.606682 
L 189.146833 235.606682 
L 189.146833 234.488318 
L 190.221801 234.488318 
L 190.221801 233.369954 
L 191.882854 233.369954 
L 191.882854 231.692407 
L 196.132864 231.692407 
L 196.132864 228.896496 
L 197.195411 228.896496 
L 197.195411 228.337313 
L 197.331939 228.337313 
L 197.331939 227.778131 
L 199.857003 227.778131 
L 199.857003 226.659767 
L 200.756293 226.659767 
L 200.756293 226.100584 
L 201.731154 226.100584 
L 201.731154 225.541402 
L 202.698411 225.541402 
L 202.698411 224.423038 
L 205.031806 224.423038 
L 205.031806 222.745491 
L 206.764002 222.745491 
L 206.764002 222.186309 
L 207.741231 222.186309 
L 207.741231 221.067944 
L 208.904499 221.067944 
L 208.904499 219.94958 
L 209.290237 219.94958 
L 209.290237 219.390397 
L 209.434719 219.390397 
L 209.434719 218.831215 
L 209.617076 218.831215 
L 209.617076 217.712851 
L 210.15728 217.712851 
L 210.15728 216.035304 
L 212.544829 216.035304 
L 212.544829 214.91694 
L 215.817335 214.91694 
L 215.817335 214.357757 
L 216.662557 214.357757 
L 216.662557 213.798575 
L 217.615951 213.798575 
L 217.615951 212.680211 
L 217.850892 212.680211 
L 217.850892 212.121028 
L 219.59103 212.121028 
L 219.59103 211.561846 
L 220.635052 211.561846 
L 220.635052 210.443482 
L 221.444717 210.443482 
L 221.444717 208.765935 
L 222.076107 208.765935 
L 222.076107 207.64757 
L 222.584943 207.64757 
L 222.584943 205.970024 
L 225.017413 205.970024 
L 225.017413 203.174112 
L 225.358299 203.174112 
L 225.358299 201.496566 
L 226.174631 201.496566 
L 226.174631 200.937384 
L 226.827781 200.937384 
L 226.827781 198.700655 
L 281.915066 198.700655 
L 282.005871 191.990468 
L 282.050788 191.990468 
L 282.152542 185.839463 
L 282.18822 185.839463 
L 282.254304 184.161916 
L 282.342838 184.161916 
L 282.427851 176.333365 
L 282.508297 176.333365 
L 282.618705 172.978271 
L 293.835038 172.978271 
L 293.942462 167.945631 
L 294.027635 167.945631 
L 294.126705 160.676262 
L 294.178242 160.676262 
L 294.182991 158.439533 
L 300.809579 158.439533 
L 300.898779 155.08444 
L 300.942775 155.08444 
L 301.036853 144.459977 
L 305.794053 144.459977 
L 305.89658 135.513061 
L 305.907454 135.513061 
L 305.925002 131.598786 
L 309.618143 131.598786 
L 309.727223 124.329417 
L 312.751871 124.329417 
L 312.839373 115.941683 
L 315.395838 115.941683 
L 315.473874 103.639674 
L 317.679748 103.639674 
L 317.756814 97.488669 
L 319.713408 97.488669 
L 319.774155 87.423389 
L 321.553038 87.423389 
L 321.578619 81.272384 
L 323.173725 81.272384 
L 323.211665 73.443833 
L 324.680977 73.443833 
L 324.702249 68.970375 
L 326.034927 68.970375 
L 326.058999 67.292828 
L 327.308745 67.292828 
L 327.346346 62.260188 
L 328.512146 62.260188 
L 328.516649 58.905094 
L 329.624748 58.905094 
L 329.637095 56.668365 
L 330.646422 56.668365 
L 330.67066 52.75409 
L 331.642538 52.75409 
L 331.657832 49.398996 
L 332.558693 49.398996 
L 332.586413 46.603085 
L 333.429677 46.603085 
L 333.429677 46.603085 
" style="fill:none;stroke:#ff0000;stroke-linecap:square;stroke-width:1.5;"/>
   </g>
   <g id="line2d_45">
    <defs>
     <path d="M 0 -6 
L -5.196152 -3 
L -5.196152 3 
L -0 6 
L 5.196152 3 
L 5.196152 -3 
z
" id="me49b4b9a89" style="stroke:#ff0000;stroke-linejoin:miter;stroke-width:1.5;"/>
    </defs>
    <g>
     <use style="fill-opacity:0;stroke:#ff0000;stroke-linejoin:miter;stroke-width:1.5;" x="170.514889" xlink:href="#me49b4b9a89" y="244.553598"/>
     <use style="fill-opacity:0;stroke:#ff0000;stroke-linejoin:miter;stroke-width:1.5;" x="226.827781" xlink:href="#me49b4b9a89" y="200.937384"/>
     <use style="fill-opacity:0;stroke:#ff0000;stroke-linejoin:miter;stroke-width:1.5;" x="312.796839" xlink:href="#me49b4b9a89" y="122.092688"/>
     <use style="fill-opacity:0;stroke:#ff0000;stroke-linejoin:miter;stroke-width:1.5;" x="332.586413" xlink:href="#me49b4b9a89" y="46.603085"/>
     <use style="fill-opacity:0;stroke:#ff0000;stroke-linejoin:miter;stroke-width:1.5;" x="333.429677" xlink:href="#me49b4b9a89" y="46.603085"/>
    </g>
   </g>
   <g id="line2d_46">
    <path style="fill:none;stroke:#ff0000;stroke-linecap:square;stroke-width:1.5;"/>
    <g/>
   </g>
   <g id="line2d_47">
    <path clip-path="url(#p98a838a4bc)" d="M 281.888522 198.700655 
" style="fill:none;stroke:#ff0000;stroke-linecap:square;stroke-width:1.5;"/>
    <defs>
     <path d="M -12 12 
L 12 -12 
M -12 -12 
L 12 12 
" id="mb1cf75b1b1" style="stroke:#ff0000;stroke-width:3;"/>
    </defs>
    <g clip-path="url(#p98a838a4bc)">
     <use style="fill:#ff0000;stroke:#ff0000;stroke-width:3;" x="281.888522" xlink:href="#mb1cf75b1b1" y="198.700655"/>
    </g>
   </g>
   <g id="line2d_48">
    <path d="M 333.429677 46.603085 
L 363.933742 289.176341 
" style="fill:none;stroke:#ff0000;stroke-linecap:square;stroke-width:1.5;"/>
    <g>
     <use style="fill-opacity:0;stroke:#ff0000;stroke-linejoin:miter;stroke-width:1.5;" x="333.429677" xlink:href="#me49b4b9a89" y="46.603085"/>
     <use style="fill-opacity:0;stroke:#ff0000;stroke-linejoin:miter;stroke-width:1.5;" x="363.933742" xlink:href="#me49b4b9a89" y="289.176341"/>
    </g>
   </g>
   <g id="line2d_49">
    <path d="M 333.429677 10.256239 
L 363.933742 220.732435 
" style="fill:none;stroke:#6495ed;stroke-linecap:square;stroke-width:1.5;"/>
    <g>
     <use style="fill-opacity:0;stroke:#6495ed;stroke-linejoin:miter;stroke-width:1.5;" x="333.429677" xlink:href="#m5d0b81ff2b" y="10.256239"/>
     <use style="fill-opacity:0;stroke:#6495ed;stroke-linejoin:miter;stroke-width:1.5;" x="363.933742" xlink:href="#m5d0b81ff2b" y="220.732435"/>
    </g>
   </g>
   <g id="line2d_50">
    <path d="M 333.429677 9.697057 
L 363.933742 152.288529 
" style="fill:none;stroke:#ffa500;stroke-linecap:square;stroke-width:1.5;"/>
    <g>
     <use style="fill-opacity:0;stroke:#ffa500;stroke-linejoin:bevel;stroke-width:1.5;" x="333.429677" xlink:href="#m94909e162f" y="9.697057"/>
     <use style="fill-opacity:0;stroke:#ffa500;stroke-linejoin:bevel;stroke-width:1.5;" x="363.933742" xlink:href="#m94909e162f" y="152.288529"/>
    </g>
   </g>
   <g id="line2d_51">
    <path d="M 333.429677 9.697057 
L 363.933742 83.844622 
" style="fill:none;stroke:#ff00ff;stroke-linecap:square;stroke-width:1.5;"/>
    <g>
     <use style="fill-opacity:0;stroke:#ff00ff;stroke-linejoin:miter;stroke-width:1.5;" x="333.429677" xlink:href="#m082365cc4e" y="9.697057"/>
     <use style="fill-opacity:0;stroke:#ff00ff;stroke-linejoin:miter;stroke-width:1.5;" x="363.933742" xlink:href="#m082365cc4e" y="83.844622"/>
    </g>
   </g>
   <g id="line2d_52">
    <path d="M 333.429677 9.697057 
L 363.933742 15.400716 
" style="fill:none;stroke:#000080;stroke-linecap:square;stroke-width:1.5;"/>
    <g>
     <use style="fill-opacity:0;stroke:#000080;stroke-width:1.5;" x="333.429677" xlink:href="#ma8ad178798" y="9.697057"/>
     <use style="fill-opacity:0;stroke:#000080;stroke-width:1.5;" x="363.933742" xlink:href="#ma8ad178798" y="15.400716"/>
    </g>
   </g>
   <g id="line2d_53">
    <path d="M 333.429677 294.88 
L 333.429677 9.697057 
" style="fill:none;stroke:#000000;stroke-linecap:square;stroke-width:1.5;"/>
   </g>
   <g id="patch_3">
    <path d="M 56.12 294.88 
L 56.12 6.845228 
" style="fill:none;stroke:#000000;stroke-linecap:square;stroke-linejoin:miter;stroke-width:0.8;"/>
   </g>
   <g id="patch_4">
    <path d="M 399.984 294.88 
L 399.984 6.845228 
" style="fill:none;stroke:#000000;stroke-linecap:square;stroke-linejoin:miter;stroke-width:0.8;"/>
   </g>
   <g id="patch_5">
    <path d="M 56.12 294.88 
L 399.984 294.88 
" style="fill:none;stroke:#000000;stroke-linecap:square;stroke-linejoin:miter;stroke-width:0.8;"/>
   </g>
   <g id="patch_6">
    <path d="M 56.12 6.845228 
L 399.984 6.845228 
" style="fill:none;stroke:#000000;stroke-linecap:square;stroke-linejoin:miter;stroke-width:0.8;"/>
   </g>
   <g id="text_14">
    <!-- f24 -->
    <g transform="translate(369.479935 293.867279)scale(0.17 -0.17)">
     <use xlink:href="#DejaVuSans-66"/>
     <use x="35.205078" xlink:href="#DejaVuSans-32"/>
     <use x="98.828125" xlink:href="#DejaVuSans-34"/>
    </g>
   </g>
   <g id="text_15">
    <!-- f20 -->
    <g transform="translate(369.479935 225.423372)scale(0.17 -0.17)">
     <use xlink:href="#DejaVuSans-66"/>
     <use x="35.205078" xlink:href="#DejaVuSans-32"/>
     <use x="98.828125" xlink:href="#DejaVuSans-30"/>
    </g>
   </g>
   <g id="text_16">
    <!-- f21 -->
    <g transform="translate(369.479935 156.979466)scale(0.17 -0.17)">
     <use xlink:href="#DejaVuSans-66"/>
     <use x="35.205078" xlink:href="#DejaVuSans-32"/>
     <use x="98.828125" xlink:href="#DejaVuSans-31"/>
    </g>
   </g>
   <g id="text_17">
    <!-- f22 -->
    <g transform="translate(369.479935 88.53556)scale(0.17 -0.17)">
     <use xlink:href="#DejaVuSans-66"/>
     <use x="35.205078" xlink:href="#DejaVuSans-32"/>
     <use x="98.828125" xlink:href="#DejaVuSans-32"/>
    </g>
   </g>
   <g id="text_18">
    <!-- f23 -->
    <defs>
     <path d="M 40.578125 39.3125 
Q 47.65625 37.796875 51.625 33 
Q 55.609375 28.21875 55.609375 21.1875 
Q 55.609375 10.40625 48.1875 4.484375 
Q 40.765625 -1.421875 27.09375 -1.421875 
Q 22.515625 -1.421875 17.65625 -0.515625 
Q 12.796875 0.390625 7.625 2.203125 
L 7.625 11.71875 
Q 11.71875 9.328125 16.59375 8.109375 
Q 21.484375 6.890625 26.8125 6.890625 
Q 36.078125 6.890625 40.9375 10.546875 
Q 45.796875 14.203125 45.796875 21.1875 
Q 45.796875 27.640625 41.28125 31.265625 
Q 36.765625 34.90625 28.71875 34.90625 
L 20.21875 34.90625 
L 20.21875 43.015625 
L 29.109375 43.015625 
Q 36.375 43.015625 40.234375 45.921875 
Q 44.09375 48.828125 44.09375 54.296875 
Q 44.09375 59.90625 40.109375 62.90625 
Q 36.140625 65.921875 28.71875 65.921875 
Q 24.65625 65.921875 20.015625 65.03125 
Q 15.375 64.15625 9.8125 62.3125 
L 9.8125 71.09375 
Q 15.4375 72.65625 20.34375 73.4375 
Q 25.25 74.21875 29.59375 74.21875 
Q 40.828125 74.21875 47.359375 69.109375 
Q 53.90625 64.015625 53.90625 55.328125 
Q 53.90625 49.265625 50.4375 45.09375 
Q 46.96875 40.921875 40.578125 39.3125 
z
" id="DejaVuSans-33"/>
    </defs>
    <g transform="translate(369.479935 20.091654)scale(0.17 -0.17)">
     <use xlink:href="#DejaVuSans-66"/>
     <use x="35.205078" xlink:href="#DejaVuSans-32"/>
     <use x="98.828125" xlink:href="#DejaVuSans-33"/>
    </g>
   </g>
   <g id="text_19">
    <!-- bbob -->
    <defs>
     <path d="M 48.6875 27.296875 
Q 48.6875 37.203125 44.609375 42.84375 
Q 40.53125 48.484375 33.40625 48.484375 
Q 26.265625 48.484375 22.1875 42.84375 
Q 18.109375 37.203125 18.109375 27.296875 
Q 18.109375 17.390625 22.1875 11.75 
Q 26.265625 6.109375 33.40625 6.109375 
Q 40.53125 6.109375 44.609375 11.75 
Q 48.6875 17.390625 48.6875 27.296875 
z
M 18.109375 46.390625 
Q 20.953125 51.265625 25.265625 53.625 
Q 29.59375 56 35.59375 56 
Q 45.5625 56 51.78125 48.09375 
Q 58.015625 40.1875 58.015625 27.296875 
Q 58.015625 14.40625 51.78125 6.484375 
Q 45.5625 -1.421875 35.59375 -1.421875 
Q 29.59375 -1.421875 25.265625 0.953125 
Q 20.953125 3.328125 18.109375 8.203125 
L 18.109375 0 
L 9.078125 0 
L 9.078125 75.984375 
L 18.109375 75.984375 
z
" id="DejaVuSans-62"/>
    </defs>
    <g transform="translate(59.55864 17.475982)scale(0.102 -0.102)">
     <use xlink:href="#DejaVuSans-62"/>
     <use x="63.476562" xlink:href="#DejaVuSans-62"/>
     <use x="126.953125" xlink:href="#DejaVuSans-6f"/>
     <use x="188.134766" xlink:href="#DejaVuSans-62"/>
    </g>
    <!-- Weak structure functions, 2-D -->
    <defs>
     <path d="M 3.328125 72.90625 
L 13.28125 72.90625 
L 28.609375 11.28125 
L 43.890625 72.90625 
L 54.984375 72.90625 
L 70.3125 11.28125 
L 85.59375 72.90625 
L 95.609375 72.90625 
L 77.296875 0 
L 64.890625 0 
L 49.515625 63.28125 
L 33.984375 0 
L 21.578125 0 
z
" id="DejaVuSans-57"/>
     <path d="M 9.078125 75.984375 
L 18.109375 75.984375 
L 18.109375 31.109375 
L 44.921875 54.6875 
L 56.390625 54.6875 
L 27.390625 29.109375 
L 57.625 0 
L 45.90625 0 
L 18.109375 26.703125 
L 18.109375 0 
L 9.078125 0 
z
" id="DejaVuSans-6b"/>
     <path d="M 19.671875 64.796875 
L 19.671875 8.109375 
L 31.59375 8.109375 
Q 46.6875 8.109375 53.6875 14.9375 
Q 60.6875 21.78125 60.6875 36.53125 
Q 60.6875 51.171875 53.6875 57.984375 
Q 46.6875 64.796875 31.59375 64.796875 
z
M 9.8125 72.90625 
L 30.078125 72.90625 
Q 51.265625 72.90625 61.171875 64.09375 
Q 71.09375 55.28125 71.09375 36.53125 
Q 71.09375 17.671875 61.125 8.828125 
Q 51.171875 0 30.078125 0 
L 9.8125 0 
z
" id="DejaVuSans-44"/>
    </defs>
    <g transform="translate(59.55864 28.89775)scale(0.102 -0.102)">
     <use xlink:href="#DejaVuSans-57"/>
     <use x="98.798828" xlink:href="#DejaVuSans-65"/>
     <use x="160.322266" xlink:href="#DejaVuSans-61"/>
     <use x="221.601562" xlink:href="#DejaVuSans-6b"/>
     <use x="279.511719" xlink:href="#DejaVuSans-20"/>
     <use x="311.298828" xlink:href="#DejaVuSans-73"/>
     <use x="363.398438" xlink:href="#DejaVuSans-74"/>
     <use x="402.607422" xlink:href="#DejaVuSans-72"/>
     <use x="443.720703" xlink:href="#DejaVuSans-75"/>
     <use x="507.099609" xlink:href="#DejaVuSans-63"/>
     <use x="562.080078" xlink:href="#DejaVuSans-74"/>
     <use x="601.289062" xlink:href="#DejaVuSans-75"/>
     <use x="664.667969" xlink:href="#DejaVuSans-72"/>
     <use x="705.75" xlink:href="#DejaVuSans-65"/>
     <use x="767.273438" xlink:href="#DejaVuSans-20"/>
     <use x="799.060547" xlink:href="#DejaVuSans-66"/>
     <use x="834.265625" xlink:href="#DejaVuSans-75"/>
     <use x="897.644531" xlink:href="#DejaVuSans-6e"/>
     <use x="961.023438" xlink:href="#DejaVuSans-63"/>
     <use x="1016.003906" xlink:href="#DejaVuSans-74"/>
     <use x="1055.212891" xlink:href="#DejaVuSans-69"/>
     <use x="1082.996094" xlink:href="#DejaVuSans-6f"/>
     <use x="1144.177734" xlink:href="#DejaVuSans-6e"/>
     <use x="1207.556641" xlink:href="#DejaVuSans-73"/>
     <use x="1259.65625" xlink:href="#DejaVuSans-2c"/>
     <use x="1291.443359" xlink:href="#DejaVuSans-20"/>
     <use x="1323.230469" xlink:href="#DejaVuSans-32"/>
     <use x="1386.853516" xlink:href="#DejaVuSans-2d"/>
     <use x="1422.9375" xlink:href="#DejaVuSans-44"/>
    </g>
    <!-- 51 targets: 100..1e-08 -->
    <defs>
     <path d="M 10.796875 72.90625 
L 49.515625 72.90625 
L 49.515625 64.59375 
L 19.828125 64.59375 
L 19.828125 46.734375 
Q 21.96875 47.46875 24.109375 47.828125 
Q 26.265625 48.1875 28.421875 48.1875 
Q 40.625 48.1875 47.75 41.5 
Q 54.890625 34.8125 54.890625 23.390625 
Q 54.890625 11.625 47.5625 5.09375 
Q 40.234375 -1.421875 26.90625 -1.421875 
Q 22.3125 -1.421875 17.546875 -0.640625 
Q 12.796875 0.140625 7.71875 1.703125 
L 7.71875 11.625 
Q 12.109375 9.234375 16.796875 8.0625 
Q 21.484375 6.890625 26.703125 6.890625 
Q 35.15625 6.890625 40.078125 11.328125 
Q 45.015625 15.765625 45.015625 23.390625 
Q 45.015625 31 40.078125 35.4375 
Q 35.15625 39.890625 26.703125 39.890625 
Q 22.75 39.890625 18.8125 39.015625 
Q 14.890625 38.140625 10.796875 36.28125 
z
" id="DejaVuSans-35"/>
     <path d="M 11.71875 12.40625 
L 22.015625 12.40625 
L 22.015625 0 
L 11.71875 0 
z
M 11.71875 51.703125 
L 22.015625 51.703125 
L 22.015625 39.3125 
L 11.71875 39.3125 
z
" id="DejaVuSans-3a"/>
    </defs>
    <g transform="translate(59.55864 40.319519)scale(0.102 -0.102)">
     <use xlink:href="#DejaVuSans-35"/>
     <use x="63.623047" xlink:href="#DejaVuSans-31"/>
     <use x="127.246094" xlink:href="#DejaVuSans-20"/>
     <use x="159.033203" xlink:href="#DejaVuSans-74"/>
     <use x="198.242188" xlink:href="#DejaVuSans-61"/>
     <use x="259.521484" xlink:href="#DejaVuSans-72"/>
     <use x="300.619141" xlink:href="#DejaVuSans-67"/>
     <use x="364.095703" xlink:href="#DejaVuSans-65"/>
     <use x="425.619141" xlink:href="#DejaVuSans-74"/>
     <use x="464.828125" xlink:href="#DejaVuSans-73"/>
     <use x="516.927734" xlink:href="#DejaVuSans-3a"/>
     <use x="550.619141" xlink:href="#DejaVuSans-20"/>
     <use x="582.40625" xlink:href="#DejaVuSans-31"/>
     <use x="646.029297" xlink:href="#DejaVuSans-30"/>
     <use x="709.652344" xlink:href="#DejaVuSans-30"/>
     <use x="773.275391" xlink:href="#DejaVuSans-2e"/>
     <use x="805.0625" xlink:href="#DejaVuSans-2e"/>
     <use x="836.849609" xlink:href="#DejaVuSans-31"/>
     <use x="900.472656" xlink:href="#DejaVuSans-65"/>
     <use x="961.996094" xlink:href="#DejaVuSans-2d"/>
     <use x="998.080078" xlink:href="#DejaVuSans-30"/>
     <use x="1061.703125" xlink:href="#DejaVuSans-38"/>
    </g>
    <!-- 15 instances -->
    <g transform="translate(59.55864 51.741288)scale(0.102 -0.102)">
     <use xlink:href="#DejaVuSans-31"/>
     <use x="63.623047" xlink:href="#DejaVuSans-35"/>
     <use x="127.246094" xlink:href="#DejaVuSans-20"/>
     <use x="159.033203" xlink:href="#DejaVuSans-69"/>
     <use x="186.816406" xlink:href="#DejaVuSans-6e"/>
     <use x="250.195312" xlink:href="#DejaVuSans-73"/>
     <use x="302.294922" xlink:href="#DejaVuSans-74"/>
     <use x="341.503906" xlink:href="#DejaVuSans-61"/>
     <use x="402.783203" xlink:href="#DejaVuSans-6e"/>
     <use x="466.162109" xlink:href="#DejaVuSans-63"/>
     <use x="521.142578" xlink:href="#DejaVuSans-65"/>
     <use x="582.666016" xlink:href="#DejaVuSans-73"/>
    </g>
   </g>
   <g id="text_20">
    <!-- v0.0.0 -->
    <g style="fill:#808080;" transform="translate(212.37075 289.919965)scale(0.1 -0.1)">
     <use xlink:href="#DejaVuSans-76"/>
     <use x="59.179688" xlink:href="#DejaVuSans-30"/>
     <use x="122.802734" xlink:href="#DejaVuSans-2e"/>
     <use x="154.589844" xlink:href="#DejaVuSans-30"/>
     <use x="218.212891" xlink:href="#DejaVuSans-2e"/>
     <use x="250" xlink:href="#DejaVuSans-30"/>
    </g>
   </g>
  </g>
 </g>
 <defs>
  <clipPath id="p98a838a4bc">
   <rect height="288.034772" width="343.864" x="56.12" y="6.845228"/>
  </clipPath>
 </defs>
</svg>
