<?xml version="1.0" encoding="utf-8" standalone="no"?>
<!DOCTYPE svg PUBLIC "-//W3C//DTD SVG 1.1//EN"
  "http://www.w3.org/Graphics/SVG/1.1/DTD/svg11.dtd">
<!-- Created with matplotlib (http://matplotlib.org/) -->
<svg height="345.6pt" version="1.1" viewBox="0 0 460.8 345.6" width="460.8pt" xmlns="http://www.w3.org/2000/svg" xmlns:xlink="http://www.w3.org/1999/xlink">
 <defs>
  <style type="text/css">
*{stroke-linecap:butt;stroke-linejoin:round;}
  </style>
 </defs>
 <g id="figure_1">
  <g id="patch_1">
   <path d="M 0 345.6 
L 460.8 345.6 
L 460.8 0 
L 0 0 
z
" style="fill:#ffffff;"/>
  </g>
  <g id="axes_1">
   <g id="patch_2">
    <path d="M 56.12 294.88 
L 399.984 294.88 
L 399.984 6.845228 
L 56.12 6.845228 
z
" style="fill:#ffffff;"/>
   </g>
   <g id="matplotlib.axis_1">
    <g id="xtick_1">
     <g id="line2d_1">
      <path clip-path="url(#p785873a42e)" d="M 56.12 294.88 
L 56.12 6.845228 
" style="fill:none;stroke:#b0b0b0;stroke-linecap:square;stroke-width:0.8;"/>
     </g>
     <g id="line2d_2">
      <defs>
       <path d="M 0 0 
L 0 3.5 
" id="m339cfb9cfc" style="stroke:#000000;stroke-width:0.8;"/>
      </defs>
      <g>
       <use style="stroke:#000000;stroke-width:0.8;" x="56.12" xlink:href="#m339cfb9cfc" y="294.88"/>
      </g>
     </g>
     <g id="text_1">
      <!-- 0 -->
      <defs>
       <path d="M 31.78125 66.40625 
Q 24.171875 66.40625 20.328125 58.90625 
Q 16.5 51.421875 16.5 36.375 
Q 16.5 21.390625 20.328125 13.890625 
Q 24.171875 6.390625 31.78125 6.390625 
Q 39.453125 6.390625 43.28125 13.890625 
Q 47.125 21.390625 47.125 36.375 
Q 47.125 51.421875 43.28125 58.90625 
Q 39.453125 66.40625 31.78125 66.40625 
z
M 31.78125 74.21875 
Q 44.046875 74.21875 50.515625 64.515625 
Q 56.984375 54.828125 56.984375 36.375 
Q 56.984375 17.96875 50.515625 8.265625 
Q 44.046875 -1.421875 31.78125 -1.421875 
Q 19.53125 -1.421875 13.0625 8.265625 
Q 6.59375 17.96875 6.59375 36.375 
Q 6.59375 54.828125 13.0625 64.515625 
Q 19.53125 74.21875 31.78125 74.21875 
z
" id="DejaVuSans-30"/>
      </defs>
      <g transform="translate(49.7575 317.076875)scale(0.2 -0.2)">
       <use xlink:href="#DejaVuSans-30"/>
      </g>
     </g>
    </g>
    <g id="xtick_2">
     <g id="line2d_3">
      <path clip-path="url(#p785873a42e)" d="M 135.351336 294.88 
L 135.351336 6.845228 
" style="fill:none;stroke:#b0b0b0;stroke-linecap:square;stroke-width:0.8;"/>
     </g>
     <g id="line2d_4">
      <g>
       <use style="stroke:#000000;stroke-width:0.8;" x="135.351336" xlink:href="#m339cfb9cfc" y="294.88"/>
      </g>
     </g>
     <g id="text_2">
      <!-- 2 -->
      <defs>
       <path d="M 19.1875 8.296875 
L 53.609375 8.296875 
L 53.609375 0 
L 7.328125 0 
L 7.328125 8.296875 
Q 12.9375 14.109375 22.625 23.890625 
Q 32.328125 33.6875 34.8125 36.53125 
Q 39.546875 41.84375 41.421875 45.53125 
Q 43.3125 49.21875 43.3125 52.78125 
Q 43.3125 58.59375 39.234375 62.25 
Q 35.15625 65.921875 28.609375 65.921875 
Q 23.96875 65.921875 18.8125 64.3125 
Q 13.671875 62.703125 7.8125 59.421875 
L 7.8125 69.390625 
Q 13.765625 71.78125 18.9375 73 
Q 24.125 74.21875 28.421875 74.21875 
Q 39.75 74.21875 46.484375 68.546875 
Q 53.21875 62.890625 53.21875 53.421875 
Q 53.21875 48.921875 51.53125 44.890625 
Q 49.859375 40.875 45.40625 35.40625 
Q 44.1875 33.984375 37.640625 27.21875 
Q 31.109375 20.453125 19.1875 8.296875 
z
" id="DejaVuSans-32"/>
      </defs>
      <g transform="translate(128.988836 317.076875)scale(0.2 -0.2)">
       <use xlink:href="#DejaVuSans-32"/>
      </g>
     </g>
    </g>
    <g id="xtick_3">
     <g id="line2d_5">
      <path clip-path="url(#p785873a42e)" d="M 214.582673 294.88 
L 214.582673 6.845228 
" style="fill:none;stroke:#b0b0b0;stroke-linecap:square;stroke-width:0.8;"/>
     </g>
     <g id="line2d_6">
      <g>
       <use style="stroke:#000000;stroke-width:0.8;" x="214.582673" xlink:href="#m339cfb9cfc" y="294.88"/>
      </g>
     </g>
     <g id="text_3">
      <!-- 4 -->
      <defs>
       <path d="M 37.796875 64.3125 
L 12.890625 25.390625 
L 37.796875 25.390625 
z
M 35.203125 72.90625 
L 47.609375 72.90625 
L 47.609375 25.390625 
L 58.015625 25.390625 
L 58.015625 17.1875 
L 47.609375 17.1875 
L 47.609375 0 
L 37.796875 0 
L 37.796875 17.1875 
L 4.890625 17.1875 
L 4.890625 26.703125 
z
" id="DejaVuSans-34"/>
      </defs>
      <g transform="translate(208.220173 317.076875)scale(0.2 -0.2)">
       <use xlink:href="#DejaVuSans-34"/>
      </g>
     </g>
    </g>
    <g id="xtick_4">
     <g id="line2d_7">
      <path clip-path="url(#p785873a42e)" d="M 293.814009 294.88 
L 293.814009 6.845228 
" style="fill:none;stroke:#b0b0b0;stroke-linecap:square;stroke-width:0.8;"/>
     </g>
     <g id="line2d_8">
      <g>
       <use style="stroke:#000000;stroke-width:0.8;" x="293.814009" xlink:href="#m339cfb9cfc" y="294.88"/>
      </g>
     </g>
     <g id="text_4">
      <!-- 6 -->
      <defs>
       <path d="M 33.015625 40.375 
Q 26.375 40.375 22.484375 35.828125 
Q 18.609375 31.296875 18.609375 23.390625 
Q 18.609375 15.53125 22.484375 10.953125 
Q 26.375 6.390625 33.015625 6.390625 
Q 39.65625 6.390625 43.53125 10.953125 
Q 47.40625 15.53125 47.40625 23.390625 
Q 47.40625 31.296875 43.53125 35.828125 
Q 39.65625 40.375 33.015625 40.375 
z
M 52.59375 71.296875 
L 52.59375 62.3125 
Q 48.875 64.0625 45.09375 64.984375 
Q 41.3125 65.921875 37.59375 65.921875 
Q 27.828125 65.921875 22.671875 59.328125 
Q 17.53125 52.734375 16.796875 39.40625 
Q 19.671875 43.65625 24.015625 45.921875 
Q 28.375 48.1875 33.59375 48.1875 
Q 44.578125 48.1875 50.953125 41.515625 
Q 57.328125 34.859375 57.328125 23.390625 
Q 57.328125 12.15625 50.6875 5.359375 
Q 44.046875 -1.421875 33.015625 -1.421875 
Q 20.359375 -1.421875 13.671875 8.265625 
Q 6.984375 17.96875 6.984375 36.375 
Q 6.984375 53.65625 15.1875 63.9375 
Q 23.390625 74.21875 37.203125 74.21875 
Q 40.921875 74.21875 44.703125 73.484375 
Q 48.484375 72.75 52.59375 71.296875 
z
" id="DejaVuSans-36"/>
      </defs>
      <g transform="translate(287.451509 317.076875)scale(0.2 -0.2)">
       <use xlink:href="#DejaVuSans-36"/>
      </g>
     </g>
    </g>
    <g id="xtick_5">
     <g id="line2d_9">
      <path clip-path="url(#p785873a42e)" d="M 373.045346 294.88 
L 373.045346 6.845228 
" style="fill:none;stroke:#b0b0b0;stroke-linecap:square;stroke-width:0.8;"/>
     </g>
     <g id="line2d_10">
      <g>
       <use style="stroke:#000000;stroke-width:0.8;" x="373.045346" xlink:href="#m339cfb9cfc" y="294.88"/>
      </g>
     </g>
     <g id="text_5">
      <!-- 8 -->
      <defs>
       <path d="M 31.78125 34.625 
Q 24.75 34.625 20.71875 30.859375 
Q 16.703125 27.09375 16.703125 20.515625 
Q 16.703125 13.921875 20.71875 10.15625 
Q 24.75 6.390625 31.78125 6.390625 
Q 38.8125 6.390625 42.859375 10.171875 
Q 46.921875 13.96875 46.921875 20.515625 
Q 46.921875 27.09375 42.890625 30.859375 
Q 38.875 34.625 31.78125 34.625 
z
M 21.921875 38.8125 
Q 15.578125 40.375 12.03125 44.71875 
Q 8.5 49.078125 8.5 55.328125 
Q 8.5 64.0625 14.71875 69.140625 
Q 20.953125 74.21875 31.78125 74.21875 
Q 42.671875 74.21875 48.875 69.140625 
Q 55.078125 64.0625 55.078125 55.328125 
Q 55.078125 49.078125 51.53125 44.71875 
Q 48 40.375 41.703125 38.8125 
Q 48.828125 37.15625 52.796875 32.3125 
Q 56.78125 27.484375 56.78125 20.515625 
Q 56.78125 9.90625 50.3125 4.234375 
Q 43.84375 -1.421875 31.78125 -1.421875 
Q 19.734375 -1.421875 13.25 4.234375 
Q 6.78125 9.90625 6.78125 20.515625 
Q 6.78125 27.484375 10.78125 32.3125 
Q 14.796875 37.15625 21.921875 38.8125 
z
M 18.3125 54.390625 
Q 18.3125 48.734375 21.84375 45.5625 
Q 25.390625 42.390625 31.78125 42.390625 
Q 38.140625 42.390625 41.71875 45.5625 
Q 45.3125 48.734375 45.3125 54.390625 
Q 45.3125 60.0625 41.71875 63.234375 
Q 38.140625 66.40625 31.78125 66.40625 
Q 25.390625 66.40625 21.84375 63.234375 
Q 18.3125 60.0625 18.3125 54.390625 
z
" id="DejaVuSans-38"/>
      </defs>
      <g transform="translate(366.682846 317.076875)scale(0.2 -0.2)">
       <use xlink:href="#DejaVuSans-38"/>
      </g>
     </g>
    </g>
    <g id="text_6">
     <!-- log10(# f-evals / dimension) -->
     <defs>
      <path d="M 9.421875 75.984375 
L 18.40625 75.984375 
L 18.40625 0 
L 9.421875 0 
z
" id="DejaVuSans-6c"/>
      <path d="M 30.609375 48.390625 
Q 23.390625 48.390625 19.1875 42.75 
Q 14.984375 37.109375 14.984375 27.296875 
Q 14.984375 17.484375 19.15625 11.84375 
Q 23.34375 6.203125 30.609375 6.203125 
Q 37.796875 6.203125 41.984375 11.859375 
Q 46.1875 17.53125 46.1875 27.296875 
Q 46.1875 37.015625 41.984375 42.703125 
Q 37.796875 48.390625 30.609375 48.390625 
z
M 30.609375 56 
Q 42.328125 56 49.015625 48.375 
Q 55.71875 40.765625 55.71875 27.296875 
Q 55.71875 13.875 49.015625 6.21875 
Q 42.328125 -1.421875 30.609375 -1.421875 
Q 18.84375 -1.421875 12.171875 6.21875 
Q 5.515625 13.875 5.515625 27.296875 
Q 5.515625 40.765625 12.171875 48.375 
Q 18.84375 56 30.609375 56 
z
" id="DejaVuSans-6f"/>
      <path d="M 45.40625 27.984375 
Q 45.40625 37.75 41.375 43.109375 
Q 37.359375 48.484375 30.078125 48.484375 
Q 22.859375 48.484375 18.828125 43.109375 
Q 14.796875 37.75 14.796875 27.984375 
Q 14.796875 18.265625 18.828125 12.890625 
Q 22.859375 7.515625 30.078125 7.515625 
Q 37.359375 7.515625 41.375 12.890625 
Q 45.40625 18.265625 45.40625 27.984375 
z
M 54.390625 6.78125 
Q 54.390625 -7.171875 48.1875 -13.984375 
Q 42 -20.796875 29.203125 -20.796875 
Q 24.46875 -20.796875 20.265625 -20.09375 
Q 16.0625 -19.390625 12.109375 -17.921875 
L 12.109375 -9.1875 
Q 16.0625 -11.328125 19.921875 -12.34375 
Q 23.78125 -13.375 27.78125 -13.375 
Q 36.625 -13.375 41.015625 -8.765625 
Q 45.40625 -4.15625 45.40625 5.171875 
L 45.40625 9.625 
Q 42.625 4.78125 38.28125 2.390625 
Q 33.9375 0 27.875 0 
Q 17.828125 0 11.671875 7.65625 
Q 5.515625 15.328125 5.515625 27.984375 
Q 5.515625 40.671875 11.671875 48.328125 
Q 17.828125 56 27.875 56 
Q 33.9375 56 38.28125 53.609375 
Q 42.625 51.21875 45.40625 46.390625 
L 45.40625 54.6875 
L 54.390625 54.6875 
z
" id="DejaVuSans-67"/>
      <path d="M 12.40625 8.296875 
L 28.515625 8.296875 
L 28.515625 63.921875 
L 10.984375 60.40625 
L 10.984375 69.390625 
L 28.421875 72.90625 
L 38.28125 72.90625 
L 38.28125 8.296875 
L 54.390625 8.296875 
L 54.390625 0 
L 12.40625 0 
z
" id="DejaVuSans-31"/>
      <path d="M 31 75.875 
Q 24.46875 64.65625 21.28125 53.65625 
Q 18.109375 42.671875 18.109375 31.390625 
Q 18.109375 20.125 21.3125 9.0625 
Q 24.515625 -2 31 -13.1875 
L 23.1875 -13.1875 
Q 15.875 -1.703125 12.234375 9.375 
Q 8.59375 20.453125 8.59375 31.390625 
Q 8.59375 42.28125 12.203125 53.3125 
Q 15.828125 64.359375 23.1875 75.875 
z
" id="DejaVuSans-28"/>
      <path d="M 51.125 44 
L 36.921875 44 
L 32.8125 27.6875 
L 47.125 27.6875 
z
M 43.796875 71.78125 
L 38.71875 51.515625 
L 52.984375 51.515625 
L 58.109375 71.78125 
L 65.921875 71.78125 
L 60.890625 51.515625 
L 76.125 51.515625 
L 76.125 44 
L 58.984375 44 
L 54.984375 27.6875 
L 70.515625 27.6875 
L 70.515625 20.21875 
L 53.078125 20.21875 
L 48 0 
L 40.1875 0 
L 45.21875 20.21875 
L 30.90625 20.21875 
L 25.875 0 
L 18.015625 0 
L 23.09375 20.21875 
L 7.71875 20.21875 
L 7.71875 27.6875 
L 24.90625 27.6875 
L 29 44 
L 13.28125 44 
L 13.28125 51.515625 
L 30.90625 51.515625 
L 35.890625 71.78125 
z
" id="DejaVuSans-23"/>
      <path id="DejaVuSans-20"/>
      <path d="M 37.109375 75.984375 
L 37.109375 68.5 
L 28.515625 68.5 
Q 23.6875 68.5 21.796875 66.546875 
Q 19.921875 64.59375 19.921875 59.515625 
L 19.921875 54.6875 
L 34.71875 54.6875 
L 34.71875 47.703125 
L 19.921875 47.703125 
L 19.921875 0 
L 10.890625 0 
L 10.890625 47.703125 
L 2.296875 47.703125 
L 2.296875 54.6875 
L 10.890625 54.6875 
L 10.890625 58.5 
Q 10.890625 67.625 15.140625 71.796875 
Q 19.390625 75.984375 28.609375 75.984375 
z
" id="DejaVuSans-66"/>
      <path d="M 4.890625 31.390625 
L 31.203125 31.390625 
L 31.203125 23.390625 
L 4.890625 23.390625 
z
" id="DejaVuSans-2d"/>
      <path d="M 56.203125 29.59375 
L 56.203125 25.203125 
L 14.890625 25.203125 
Q 15.484375 15.921875 20.484375 11.0625 
Q 25.484375 6.203125 34.421875 6.203125 
Q 39.59375 6.203125 44.453125 7.46875 
Q 49.3125 8.734375 54.109375 11.28125 
L 54.109375 2.78125 
Q 49.265625 0.734375 44.1875 -0.34375 
Q 39.109375 -1.421875 33.890625 -1.421875 
Q 20.796875 -1.421875 13.15625 6.1875 
Q 5.515625 13.8125 5.515625 26.8125 
Q 5.515625 40.234375 12.765625 48.109375 
Q 20.015625 56 32.328125 56 
Q 43.359375 56 49.78125 48.890625 
Q 56.203125 41.796875 56.203125 29.59375 
z
M 47.21875 32.234375 
Q 47.125 39.59375 43.09375 43.984375 
Q 39.0625 48.390625 32.421875 48.390625 
Q 24.90625 48.390625 20.390625 44.140625 
Q 15.875 39.890625 15.1875 32.171875 
z
" id="DejaVuSans-65"/>
      <path d="M 2.984375 54.6875 
L 12.5 54.6875 
L 29.59375 8.796875 
L 46.6875 54.6875 
L 56.203125 54.6875 
L 35.6875 0 
L 23.484375 0 
z
" id="DejaVuSans-76"/>
      <path d="M 34.28125 27.484375 
Q 23.390625 27.484375 19.1875 25 
Q 14.984375 22.515625 14.984375 16.5 
Q 14.984375 11.71875 18.140625 8.90625 
Q 21.296875 6.109375 26.703125 6.109375 
Q 34.1875 6.109375 38.703125 11.40625 
Q 43.21875 16.703125 43.21875 25.484375 
L 43.21875 27.484375 
z
M 52.203125 31.203125 
L 52.203125 0 
L 43.21875 0 
L 43.21875 8.296875 
Q 40.140625 3.328125 35.546875 0.953125 
Q 30.953125 -1.421875 24.3125 -1.421875 
Q 15.921875 -1.421875 10.953125 3.296875 
Q 6 8.015625 6 15.921875 
Q 6 25.140625 12.171875 29.828125 
Q 18.359375 34.515625 30.609375 34.515625 
L 43.21875 34.515625 
L 43.21875 35.40625 
Q 43.21875 41.609375 39.140625 45 
Q 35.0625 48.390625 27.6875 48.390625 
Q 23 48.390625 18.546875 47.265625 
Q 14.109375 46.140625 10.015625 43.890625 
L 10.015625 52.203125 
Q 14.9375 54.109375 19.578125 55.046875 
Q 24.21875 56 28.609375 56 
Q 40.484375 56 46.34375 49.84375 
Q 52.203125 43.703125 52.203125 31.203125 
z
" id="DejaVuSans-61"/>
      <path d="M 44.28125 53.078125 
L 44.28125 44.578125 
Q 40.484375 46.53125 36.375 47.5 
Q 32.28125 48.484375 27.875 48.484375 
Q 21.1875 48.484375 17.84375 46.4375 
Q 14.5 44.390625 14.5 40.28125 
Q 14.5 37.15625 16.890625 35.375 
Q 19.28125 33.59375 26.515625 31.984375 
L 29.59375 31.296875 
Q 39.15625 29.25 43.1875 25.515625 
Q 47.21875 21.78125 47.21875 15.09375 
Q 47.21875 7.46875 41.1875 3.015625 
Q 35.15625 -1.421875 24.609375 -1.421875 
Q 20.21875 -1.421875 15.453125 -0.5625 
Q 10.6875 0.296875 5.421875 2 
L 5.421875 11.28125 
Q 10.40625 8.6875 15.234375 7.390625 
Q 20.0625 6.109375 24.8125 6.109375 
Q 31.15625 6.109375 34.5625 8.28125 
Q 37.984375 10.453125 37.984375 14.40625 
Q 37.984375 18.0625 35.515625 20.015625 
Q 33.0625 21.96875 24.703125 23.78125 
L 21.578125 24.515625 
Q 13.234375 26.265625 9.515625 29.90625 
Q 5.8125 33.546875 5.8125 39.890625 
Q 5.8125 47.609375 11.28125 51.796875 
Q 16.75 56 26.8125 56 
Q 31.78125 56 36.171875 55.265625 
Q 40.578125 54.546875 44.28125 53.078125 
z
" id="DejaVuSans-73"/>
      <path d="M 25.390625 72.90625 
L 33.6875 72.90625 
L 8.296875 -9.28125 
L 0 -9.28125 
z
" id="DejaVuSans-2f"/>
      <path d="M 45.40625 46.390625 
L 45.40625 75.984375 
L 54.390625 75.984375 
L 54.390625 0 
L 45.40625 0 
L 45.40625 8.203125 
Q 42.578125 3.328125 38.25 0.953125 
Q 33.9375 -1.421875 27.875 -1.421875 
Q 17.96875 -1.421875 11.734375 6.484375 
Q 5.515625 14.40625 5.515625 27.296875 
Q 5.515625 40.1875 11.734375 48.09375 
Q 17.96875 56 27.875 56 
Q 33.9375 56 38.25 53.625 
Q 42.578125 51.265625 45.40625 46.390625 
z
M 14.796875 27.296875 
Q 14.796875 17.390625 18.875 11.75 
Q 22.953125 6.109375 30.078125 6.109375 
Q 37.203125 6.109375 41.296875 11.75 
Q 45.40625 17.390625 45.40625 27.296875 
Q 45.40625 37.203125 41.296875 42.84375 
Q 37.203125 48.484375 30.078125 48.484375 
Q 22.953125 48.484375 18.875 42.84375 
Q 14.796875 37.203125 14.796875 27.296875 
z
" id="DejaVuSans-64"/>
      <path d="M 9.421875 54.6875 
L 18.40625 54.6875 
L 18.40625 0 
L 9.421875 0 
z
M 9.421875 75.984375 
L 18.40625 75.984375 
L 18.40625 64.59375 
L 9.421875 64.59375 
z
" id="DejaVuSans-69"/>
      <path d="M 52 44.1875 
Q 55.375 50.25 60.0625 53.125 
Q 64.75 56 71.09375 56 
Q 79.640625 56 84.28125 50.015625 
Q 88.921875 44.046875 88.921875 33.015625 
L 88.921875 0 
L 79.890625 0 
L 79.890625 32.71875 
Q 79.890625 40.578125 77.09375 44.375 
Q 74.3125 48.1875 68.609375 48.1875 
Q 61.625 48.1875 57.5625 43.546875 
Q 53.515625 38.921875 53.515625 30.90625 
L 53.515625 0 
L 44.484375 0 
L 44.484375 32.71875 
Q 44.484375 40.625 41.703125 44.40625 
Q 38.921875 48.1875 33.109375 48.1875 
Q 26.21875 48.1875 22.15625 43.53125 
Q 18.109375 38.875 18.109375 30.90625 
L 18.109375 0 
L 9.078125 0 
L 9.078125 54.6875 
L 18.109375 54.6875 
L 18.109375 46.1875 
Q 21.1875 51.21875 25.484375 53.609375 
Q 29.78125 56 35.6875 56 
Q 41.65625 56 45.828125 52.96875 
Q 50 49.953125 52 44.1875 
z
" id="DejaVuSans-6d"/>
      <path d="M 54.890625 33.015625 
L 54.890625 0 
L 45.90625 0 
L 45.90625 32.71875 
Q 45.90625 40.484375 42.875 44.328125 
Q 39.84375 48.1875 33.796875 48.1875 
Q 26.515625 48.1875 22.3125 43.546875 
Q 18.109375 38.921875 18.109375 30.90625 
L 18.109375 0 
L 9.078125 0 
L 9.078125 54.6875 
L 18.109375 54.6875 
L 18.109375 46.1875 
Q 21.34375 51.125 25.703125 53.5625 
Q 30.078125 56 35.796875 56 
Q 45.21875 56 50.046875 50.171875 
Q 54.890625 44.34375 54.890625 33.015625 
z
" id="DejaVuSans-6e"/>
      <path d="M 8.015625 75.875 
L 15.828125 75.875 
Q 23.140625 64.359375 26.78125 53.3125 
Q 30.421875 42.28125 30.421875 31.390625 
Q 30.421875 20.453125 26.78125 9.375 
Q 23.140625 -1.703125 15.828125 -13.1875 
L 8.015625 -13.1875 
Q 14.5 -2 17.703125 9.0625 
Q 20.90625 20.125 20.90625 31.390625 
Q 20.90625 42.671875 17.703125 53.65625 
Q 14.5 64.65625 8.015625 75.875 
z
" id="DejaVuSans-29"/>
     </defs>
     <g transform="translate(107.211219 338.153594)scale(0.17 -0.17)">
      <use xlink:href="#DejaVuSans-6c"/>
      <use x="27.783203" xlink:href="#DejaVuSans-6f"/>
      <use x="88.964844" xlink:href="#DejaVuSans-67"/>
      <use x="152.441406" xlink:href="#DejaVuSans-31"/>
      <use x="216.064453" xlink:href="#DejaVuSans-30"/>
      <use x="279.6875" xlink:href="#DejaVuSans-28"/>
      <use x="318.701172" xlink:href="#DejaVuSans-23"/>
      <use x="402.490234" xlink:href="#DejaVuSans-20"/>
      <use x="434.277344" xlink:href="#DejaVuSans-66"/>
      <use x="469.404297" xlink:href="#DejaVuSans-2d"/>
      <use x="505.488281" xlink:href="#DejaVuSans-65"/>
      <use x="567.011719" xlink:href="#DejaVuSans-76"/>
      <use x="626.191406" xlink:href="#DejaVuSans-61"/>
      <use x="687.470703" xlink:href="#DejaVuSans-6c"/>
      <use x="715.253906" xlink:href="#DejaVuSans-73"/>
      <use x="767.353516" xlink:href="#DejaVuSans-20"/>
      <use x="799.140625" xlink:href="#DejaVuSans-2f"/>
      <use x="832.832031" xlink:href="#DejaVuSans-20"/>
      <use x="864.619141" xlink:href="#DejaVuSans-64"/>
      <use x="928.095703" xlink:href="#DejaVuSans-69"/>
      <use x="955.878906" xlink:href="#DejaVuSans-6d"/>
      <use x="1053.291016" xlink:href="#DejaVuSans-65"/>
      <use x="1114.814453" xlink:href="#DejaVuSans-6e"/>
      <use x="1178.193359" xlink:href="#DejaVuSans-73"/>
      <use x="1230.292969" xlink:href="#DejaVuSans-69"/>
      <use x="1258.076172" xlink:href="#DejaVuSans-6f"/>
      <use x="1319.257812" xlink:href="#DejaVuSans-6e"/>
      <use x="1382.636719" xlink:href="#DejaVuSans-29"/>
     </g>
    </g>
   </g>
   <g id="matplotlib.axis_2">
    <g id="ytick_1">
     <g id="line2d_11">
      <path clip-path="url(#p785873a42e)" d="M 56.12 294.88 
L 399.984 294.88 
" style="fill:none;stroke:#b0b0b0;stroke-linecap:square;stroke-width:0.8;"/>
     </g>
     <g id="line2d_12">
      <defs>
       <path d="M 0 0 
L -3.5 0 
" id="m35143f0ea8" style="stroke:#000000;stroke-width:0.8;"/>
      </defs>
      <g>
       <use style="stroke:#000000;stroke-width:0.8;" x="56.12" xlink:href="#m35143f0ea8" y="294.88"/>
      </g>
     </g>
     <g id="text_7">
      <!-- 0.0 -->
      <defs>
       <path d="M 10.6875 12.40625 
L 21 12.40625 
L 21 0 
L 10.6875 0 
z
" id="DejaVuSans-2e"/>
      </defs>
      <g transform="translate(23.675 300.95875)scale(0.16 -0.16)">
       <use xlink:href="#DejaVuSans-30"/>
       <use x="63.623047" xlink:href="#DejaVuSans-2e"/>
       <use x="95.410156" xlink:href="#DejaVuSans-30"/>
      </g>
     </g>
    </g>
    <g id="ytick_2">
     <g id="line2d_13">
      <path clip-path="url(#p785873a42e)" d="M 56.12 237.843411 
L 399.984 237.843411 
" style="fill:none;stroke:#b0b0b0;stroke-linecap:square;stroke-width:0.8;"/>
     </g>
     <g id="line2d_14">
      <g>
       <use style="stroke:#000000;stroke-width:0.8;" x="56.12" xlink:href="#m35143f0ea8" y="237.843411"/>
      </g>
     </g>
     <g id="text_8">
      <!-- 0.2 -->
      <g transform="translate(23.675 243.922161)scale(0.16 -0.16)">
       <use xlink:href="#DejaVuSans-30"/>
       <use x="63.623047" xlink:href="#DejaVuSans-2e"/>
       <use x="95.410156" xlink:href="#DejaVuSans-32"/>
      </g>
     </g>
    </g>
    <g id="ytick_3">
     <g id="line2d_15">
      <path clip-path="url(#p785873a42e)" d="M 56.12 180.806823 
L 399.984 180.806823 
" style="fill:none;stroke:#b0b0b0;stroke-linecap:square;stroke-width:0.8;"/>
     </g>
     <g id="line2d_16">
      <g>
       <use style="stroke:#000000;stroke-width:0.8;" x="56.12" xlink:href="#m35143f0ea8" y="180.806823"/>
      </g>
     </g>
     <g id="text_9">
      <!-- 0.4 -->
      <g transform="translate(23.675 186.885573)scale(0.16 -0.16)">
       <use xlink:href="#DejaVuSans-30"/>
       <use x="63.623047" xlink:href="#DejaVuSans-2e"/>
       <use x="95.410156" xlink:href="#DejaVuSans-34"/>
      </g>
     </g>
    </g>
    <g id="ytick_4">
     <g id="line2d_17">
      <path clip-path="url(#p785873a42e)" d="M 56.12 123.770234 
L 399.984 123.770234 
" style="fill:none;stroke:#b0b0b0;stroke-linecap:square;stroke-width:0.8;"/>
     </g>
     <g id="line2d_18">
      <g>
       <use style="stroke:#000000;stroke-width:0.8;" x="56.12" xlink:href="#m35143f0ea8" y="123.770234"/>
      </g>
     </g>
     <g id="text_10">
      <!-- 0.6 -->
      <g transform="translate(23.675 129.848984)scale(0.16 -0.16)">
       <use xlink:href="#DejaVuSans-30"/>
       <use x="63.623047" xlink:href="#DejaVuSans-2e"/>
       <use x="95.410156" xlink:href="#DejaVuSans-36"/>
      </g>
     </g>
    </g>
    <g id="ytick_5">
     <g id="line2d_19">
      <path clip-path="url(#p785873a42e)" d="M 56.12 66.733646 
L 399.984 66.733646 
" style="fill:none;stroke:#b0b0b0;stroke-linecap:square;stroke-width:0.8;"/>
     </g>
     <g id="line2d_20">
      <g>
       <use style="stroke:#000000;stroke-width:0.8;" x="56.12" xlink:href="#m35143f0ea8" y="66.733646"/>
      </g>
     </g>
     <g id="text_11">
      <!-- 0.8 -->
      <g transform="translate(23.675 72.812396)scale(0.16 -0.16)">
       <use xlink:href="#DejaVuSans-30"/>
       <use x="63.623047" xlink:href="#DejaVuSans-2e"/>
       <use x="95.410156" xlink:href="#DejaVuSans-38"/>
      </g>
     </g>
    </g>
    <g id="ytick_6">
     <g id="line2d_21">
      <path clip-path="url(#p785873a42e)" d="M 56.12 9.697057 
L 399.984 9.697057 
" style="fill:none;stroke:#b0b0b0;stroke-linecap:square;stroke-width:0.8;"/>
     </g>
     <g id="line2d_22">
      <g>
       <use style="stroke:#000000;stroke-width:0.8;" x="56.12" xlink:href="#m35143f0ea8" y="9.697057"/>
      </g>
     </g>
     <g id="text_12">
      <!-- 1.0 -->
      <g transform="translate(23.675 15.775807)scale(0.16 -0.16)">
       <use xlink:href="#DejaVuSans-31"/>
       <use x="63.623047" xlink:href="#DejaVuSans-2e"/>
       <use x="95.410156" xlink:href="#DejaVuSans-30"/>
      </g>
     </g>
    </g>
    <g id="text_13">
     <!-- Fraction of function,target pairs -->
     <defs>
      <path d="M 9.8125 72.90625 
L 51.703125 72.90625 
L 51.703125 64.59375 
L 19.671875 64.59375 
L 19.671875 43.109375 
L 48.578125 43.109375 
L 48.578125 34.8125 
L 19.671875 34.8125 
L 19.671875 0 
L 9.8125 0 
z
" id="DejaVuSans-46"/>
      <path d="M 41.109375 46.296875 
Q 39.59375 47.171875 37.8125 47.578125 
Q 36.03125 48 33.890625 48 
Q 26.265625 48 22.1875 43.046875 
Q 18.109375 38.09375 18.109375 28.8125 
L 18.109375 0 
L 9.078125 0 
L 9.078125 54.6875 
L 18.109375 54.6875 
L 18.109375 46.1875 
Q 20.953125 51.171875 25.484375 53.578125 
Q 30.03125 56 36.53125 56 
Q 37.453125 56 38.578125 55.875 
Q 39.703125 55.765625 41.0625 55.515625 
z
" id="DejaVuSans-72"/>
      <path d="M 48.78125 52.59375 
L 48.78125 44.1875 
Q 44.96875 46.296875 41.140625 47.34375 
Q 37.3125 48.390625 33.40625 48.390625 
Q 24.65625 48.390625 19.8125 42.84375 
Q 14.984375 37.3125 14.984375 27.296875 
Q 14.984375 17.28125 19.8125 11.734375 
Q 24.65625 6.203125 33.40625 6.203125 
Q 37.3125 6.203125 41.140625 7.25 
Q 44.96875 8.296875 48.78125 10.40625 
L 48.78125 2.09375 
Q 45.015625 0.34375 40.984375 -0.53125 
Q 36.96875 -1.421875 32.421875 -1.421875 
Q 20.0625 -1.421875 12.78125 6.34375 
Q 5.515625 14.109375 5.515625 27.296875 
Q 5.515625 40.671875 12.859375 48.328125 
Q 20.21875 56 33.015625 56 
Q 37.15625 56 41.109375 55.140625 
Q 45.0625 54.296875 48.78125 52.59375 
z
" id="DejaVuSans-63"/>
      <path d="M 18.3125 70.21875 
L 18.3125 54.6875 
L 36.8125 54.6875 
L 36.8125 47.703125 
L 18.3125 47.703125 
L 18.3125 18.015625 
Q 18.3125 11.328125 20.140625 9.421875 
Q 21.96875 7.515625 27.59375 7.515625 
L 36.8125 7.515625 
L 36.8125 0 
L 27.59375 0 
Q 17.1875 0 13.234375 3.875 
Q 9.28125 7.765625 9.28125 18.015625 
L 9.28125 47.703125 
L 2.6875 47.703125 
L 2.6875 54.6875 
L 9.28125 54.6875 
L 9.28125 70.21875 
z
" id="DejaVuSans-74"/>
      <path d="M 8.5 21.578125 
L 8.5 54.6875 
L 17.484375 54.6875 
L 17.484375 21.921875 
Q 17.484375 14.15625 20.5 10.265625 
Q 23.53125 6.390625 29.59375 6.390625 
Q 36.859375 6.390625 41.078125 11.03125 
Q 45.3125 15.671875 45.3125 23.6875 
L 45.3125 54.6875 
L 54.296875 54.6875 
L 54.296875 0 
L 45.3125 0 
L 45.3125 8.40625 
Q 42.046875 3.421875 37.71875 1 
Q 33.40625 -1.421875 27.6875 -1.421875 
Q 18.265625 -1.421875 13.375 4.4375 
Q 8.5 10.296875 8.5 21.578125 
z
M 31.109375 56 
z
" id="DejaVuSans-75"/>
      <path d="M 11.71875 12.40625 
L 22.015625 12.40625 
L 22.015625 4 
L 14.015625 -11.625 
L 7.71875 -11.625 
L 11.71875 4 
z
" id="DejaVuSans-2c"/>
      <path d="M 18.109375 8.203125 
L 18.109375 -20.796875 
L 9.078125 -20.796875 
L 9.078125 54.6875 
L 18.109375 54.6875 
L 18.109375 46.390625 
Q 20.953125 51.265625 25.265625 53.625 
Q 29.59375 56 35.59375 56 
Q 45.5625 56 51.78125 48.09375 
Q 58.015625 40.1875 58.015625 27.296875 
Q 58.015625 14.40625 51.78125 6.484375 
Q 45.5625 -1.421875 35.59375 -1.421875 
Q 29.59375 -1.421875 25.265625 0.953125 
Q 20.953125 3.328125 18.109375 8.203125 
z
M 48.6875 27.296875 
Q 48.6875 37.203125 44.609375 42.84375 
Q 40.53125 48.484375 33.40625 48.484375 
Q 26.265625 48.484375 22.1875 42.84375 
Q 18.109375 37.203125 18.109375 27.296875 
Q 18.109375 17.390625 22.1875 11.75 
Q 26.265625 6.109375 33.40625 6.109375 
Q 40.53125 6.109375 44.609375 11.75 
Q 48.6875 17.390625 48.6875 27.296875 
z
" id="DejaVuSans-70"/>
     </defs>
     <g transform="translate(16.139531 286.001989)rotate(-90)scale(0.17 -0.17)">
      <use xlink:href="#DejaVuSans-46"/>
      <use x="57.410156" xlink:href="#DejaVuSans-72"/>
      <use x="98.523438" xlink:href="#DejaVuSans-61"/>
      <use x="159.802734" xlink:href="#DejaVuSans-63"/>
      <use x="214.783203" xlink:href="#DejaVuSans-74"/>
      <use x="253.992188" xlink:href="#DejaVuSans-69"/>
      <use x="281.775391" xlink:href="#DejaVuSans-6f"/>
      <use x="342.957031" xlink:href="#DejaVuSans-6e"/>
      <use x="406.335938" xlink:href="#DejaVuSans-20"/>
      <use x="438.123047" xlink:href="#DejaVuSans-6f"/>
      <use x="499.304688" xlink:href="#DejaVuSans-66"/>
      <use x="534.509766" xlink:href="#DejaVuSans-20"/>
      <use x="566.296875" xlink:href="#DejaVuSans-66"/>
      <use x="601.501953" xlink:href="#DejaVuSans-75"/>
      <use x="664.880859" xlink:href="#DejaVuSans-6e"/>
      <use x="728.259766" xlink:href="#DejaVuSans-63"/>
      <use x="783.240234" xlink:href="#DejaVuSans-74"/>
      <use x="822.449219" xlink:href="#DejaVuSans-69"/>
      <use x="850.232422" xlink:href="#DejaVuSans-6f"/>
      <use x="911.414062" xlink:href="#DejaVuSans-6e"/>
      <use x="974.792969" xlink:href="#DejaVuSans-2c"/>
      <use x="1006.580078" xlink:href="#DejaVuSans-74"/>
      <use x="1045.789062" xlink:href="#DejaVuSans-61"/>
      <use x="1107.068359" xlink:href="#DejaVuSans-72"/>
      <use x="1148.166016" xlink:href="#DejaVuSans-67"/>
      <use x="1211.642578" xlink:href="#DejaVuSans-65"/>
      <use x="1273.166016" xlink:href="#DejaVuSans-74"/>
      <use x="1312.375" xlink:href="#DejaVuSans-20"/>
      <use x="1344.162109" xlink:href="#DejaVuSans-70"/>
      <use x="1407.638672" xlink:href="#DejaVuSans-61"/>
      <use x="1468.917969" xlink:href="#DejaVuSans-69"/>
      <use x="1496.701172" xlink:href="#DejaVuSans-72"/>
      <use x="1537.814453" xlink:href="#DejaVuSans-73"/>
     </g>
    </g>
   </g>
   <g id="line2d_23">
    <defs>
     <path d="M 0 1.5 
C 0.397805 1.5 0.77937 1.341951 1.06066 1.06066 
C 1.341951 0.77937 1.5 0.397805 1.5 0 
C 1.5 -0.397805 1.341951 -0.77937 1.06066 -1.06066 
C 0.77937 -1.341951 0.397805 -1.5 0 -1.5 
C -0.397805 -1.5 -0.77937 -1.341951 -1.06066 -1.06066 
C -1.341951 -0.77937 -1.5 -0.397805 -1.5 0 
C -1.5 0.397805 -1.341951 0.77937 -1.06066 1.06066 
C -0.77937 1.341951 -0.397805 1.5 0 1.5 
z
" id="m25d6023aaf" style="stroke:#000080;"/>
    </defs>
    <g>
     <use style="fill:#000080;stroke:#000080;" x="339.631481" xlink:href="#m25d6023aaf" y="143.900795"/>
     <use style="fill:#000080;stroke:#000080;" x="339.631481" xlink:href="#m25d6023aaf" y="143.900795"/>
    </g>
   </g>
   <g id="line2d_24">
    <path d="M 182.321122 294.88 
L 182.321122 294.320818 
L 185.086166 294.320818 
L 185.086166 292.643271 
L 186.344797 292.643271 
L 186.344797 292.084089 
L 187.451103 292.084089 
L 187.517595 289.288178 
L 187.791913 289.288178 
L 187.791913 288.728995 
L 188.20599 288.728995 
L 188.290795 286.492266 
L 189.197066 286.492266 
L 189.197066 285.373902 
L 189.652457 285.373902 
L 189.652457 282.577991 
L 189.764446 282.577991 
L 189.764446 282.018808 
L 189.875711 282.018808 
L 189.875711 280.900444 
L 190.945958 280.900444 
L 190.945958 279.222897 
L 193.536495 279.222897 
L 193.536495 278.104533 
L 194.085042 278.104533 
L 194.085042 276.426986 
L 194.403001 276.426986 
L 194.403001 275.867804 
L 194.590994 275.867804 
L 194.590994 274.190257 
L 194.722469 274.190257 
L 194.722469 273.071893 
L 195.301981 273.071893 
L 195.34765 269.716799 
L 195.612238 269.716799 
L 195.612238 269.157617 
L 195.831936 269.157617 
L 195.831936 268.598435 
L 196.375823 268.598435 
L 196.375823 266.920888 
L 197.119618 266.920888 
L 197.119618 264.684159 
L 197.239469 264.684159 
L 197.239469 264.124977 
L 197.370972 264.124977 
L 197.370972 263.565795 
L 197.510762 263.565795 
L 197.510762 261.888248 
L 197.707637 261.888248 
L 197.707637 260.210701 
L 197.887157 260.210701 
L 197.995781 257.41479 
L 198.332354 257.41479 
L 198.332354 256.855608 
L 199.153092 256.855608 
L 199.153092 255.178061 
L 199.287549 255.178061 
L 199.287549 254.618879 
L 199.599996 254.618879 
L 199.599996 252.941332 
L 199.72286 252.941332 
L 199.812405 251.822967 
L 199.925702 251.822967 
L 199.925702 250.704603 
L 200.739633 250.704603 
L 200.839356 247.908692 
L 200.915676 247.908692 
L 200.915676 247.34951 
L 201.240044 247.34951 
L 201.240044 245.112781 
L 201.716623 245.112781 
L 201.716623 244.553598 
L 203.051761 244.553598 
L 203.080882 240.639323 
L 203.687788 240.639323 
L 203.687788 238.402594 
L 203.887559 238.402594 
L 203.974899 237.284229 
L 204.971754 237.284229 
L 204.987789 236.165865 
L 205.619141 236.165865 
L 205.619141 235.606682 
L 206.00677 235.606682 
L 206.00677 235.0475 
L 206.531157 235.0475 
L 206.531157 234.488318 
L 209.138237 234.488318 
L 209.138237 232.810771 
L 212.532558 232.810771 
L 212.532558 231.692407 
L 247.580603 231.692407 
L 247.580603 231.133225 
L 267.617146 231.133225 
L 267.617146 230.574042 
L 275.012254 230.574042 
L 275.12179 218.831215 
L 275.13742 218.831215 
L 275.247818 204.851659 
L 275.252711 204.851659 
L 275.316623 202.61493 
L 275.36472 202.61493 
L 275.399576 199.819019 
L 278.10959 199.819019 
L 278.10959 199.259837 
L 286.918607 199.259837 
L 287.025099 186.957828 
L 287.041277 186.957828 
L 287.041277 186.398645 
L 291.708282 186.398645 
L 291.708282 185.280281 
L 293.873635 185.280281 
L 293.928162 179.688458 
L 298.812694 179.688458 
L 298.87772 169.623178 
L 302.654017 169.623178 
L 302.694103 166.827267 
L 305.774582 166.827267 
L 305.796694 160.676262 
L 308.430772 160.676262 
L 308.430772 160.11708 
L 310.722094 160.11708 
L 310.723678 158.998715 
L 312.746277 158.998715 
L 312.753633 157.321169 
L 314.555596 157.321169 
L 314.562538 155.643622 
L 316.196531 155.643622 
L 316.209617 153.406893 
L 317.687854 153.406893 
L 317.69364 151.170164 
L 320.339585 151.170164 
L 320.340471 150.0518 
L 323.677802 150.0518 
L 323.677802 149.492617 
L 328.873238 149.492617 
L 328.873238 148.933435 
L 330.305429 148.933435 
L 330.311194 147.815071 
L 331.6297 147.815071 
L 331.6297 147.255888 
L 332.254947 147.255888 
L 332.254947 146.696706 
L 332.858265 146.696706 
L 332.858265 146.137524 
L 333.429677 146.137524 
L 333.429677 146.137524 
" style="fill:none;stroke:#000080;stroke-linecap:square;stroke-width:1.5;"/>
   </g>
   <g id="line2d_25">
    <defs>
     <path d="M 0 6 
C 1.591219 6 3.117479 5.367802 4.242641 4.242641 
C 5.367802 3.117479 6 1.591219 6 0 
C 6 -1.591219 5.367802 -3.117479 4.242641 -4.242641 
C 3.117479 -5.367802 1.591219 -6 0 -6 
C -1.591219 -6 -3.117479 -5.367802 -4.242641 -4.242641 
C -5.367802 -3.117479 -6 -1.591219 -6 0 
C -6 1.591219 -5.367802 3.117479 -4.242641 4.242641 
C -3.117479 5.367802 -1.591219 6 0 6 
z
" id="mdb56efcaee" style="stroke:#000080;stroke-width:1.5;"/>
    </defs>
    <g>
     <use style="fill-opacity:0;stroke:#000080;stroke-width:1.5;" x="267.617146" xlink:href="#mdb56efcaee" y="230.574042"/>
     <use style="fill-opacity:0;stroke:#000080;stroke-width:1.5;" x="305.78567" xlink:href="#mdb56efcaee" y="162.912991"/>
     <use style="fill-opacity:0;stroke:#000080;stroke-width:1.5;" x="332.858265" xlink:href="#mdb56efcaee" y="146.137524"/>
     <use style="fill-opacity:0;stroke:#000080;stroke-width:1.5;" x="333.429677" xlink:href="#mdb56efcaee" y="146.137524"/>
    </g>
   </g>
   <g id="line2d_26">
    <path style="fill:none;stroke:#000080;stroke-linecap:square;stroke-width:1.5;"/>
    <g/>
   </g>
   <g id="line2d_27">
    <path clip-path="url(#p785873a42e)" d="M 274.912549 230.574042 
" style="fill:none;stroke:#000080;stroke-linecap:square;stroke-width:1.5;"/>
    <defs>
     <path d="M -12 12 
L 12 -12 
M -12 -12 
L 12 12 
" id="mbc9680be3f" style="stroke:#000080;stroke-width:3;"/>
    </defs>
    <g clip-path="url(#p785873a42e)">
     <use style="fill:#000080;stroke:#000080;stroke-width:3;" x="274.912549" xlink:href="#mbc9680be3f" y="230.574042"/>
    </g>
   </g>
   <g id="line2d_28">
    <defs>
     <path d="M 0 1.5 
C 0.397805 1.5 0.77937 1.341951 1.06066 1.06066 
C 1.341951 0.77937 1.5 0.397805 1.5 0 
C 1.5 -0.397805 1.341951 -0.77937 1.06066 -1.06066 
C 0.77937 -1.341951 0.397805 -1.5 0 -1.5 
C -0.397805 -1.5 -0.77937 -1.341951 -1.06066 -1.06066 
C -1.341951 -0.77937 -1.5 -0.397805 -1.5 0 
C -1.5 0.397805 -1.341951 0.77937 -1.06066 1.06066 
C -0.77937 1.341951 -0.397805 1.5 0 1.5 
z
" id="m21641a4b26" style="stroke:#ff00ff;"/>
    </defs>
    <g>
     <use style="fill:#ff00ff;stroke:#ff00ff;" x="320.338522" xlink:href="#m21641a4b26" y="188.635374"/>
     <use style="fill:#ff00ff;stroke:#ff00ff;" x="320.338522" xlink:href="#m21641a4b26" y="188.635374"/>
    </g>
   </g>
   <g id="line2d_29">
    <path d="M 84.92054 294.88 
L 84.92054 293.761636 
L 105.199142 293.761636 
L 105.199142 292.643271 
L 122.482864 292.643271 
L 122.482864 292.084089 
L 126.56265 292.084089 
L 126.56265 290.965724 
L 130.015162 290.965724 
L 130.015162 289.84736 
L 134.408368 289.84736 
L 134.408368 289.288178 
L 134.768065 289.288178 
L 134.768065 288.169813 
L 137.60566 288.169813 
L 137.60566 287.610631 
L 138.101512 287.610631 
L 138.101512 287.051449 
L 140.725701 287.051449 
L 140.725701 285.373902 
L 141.464926 285.373902 
L 141.464926 283.696355 
L 141.940667 283.696355 
L 141.940667 283.137173 
L 142.250673 283.137173 
L 142.327309 282.018808 
L 148.600945 282.018808 
L 148.600945 280.900444 
L 148.864425 280.900444 
L 148.864425 279.222897 
L 149.928983 279.222897 
L 149.928983 278.104533 
L 151.657926 278.104533 
L 151.657926 277.545351 
L 153.188256 277.545351 
L 153.188256 276.986168 
L 155.753019 276.986168 
L 155.753019 276.426986 
L 157.953776 276.426986 
L 157.953776 275.308622 
L 163.404677 275.308622 
L 163.404677 274.749439 
L 164.555716 274.749439 
L 164.555716 274.190257 
L 165.194915 274.190257 
L 165.194915 273.071893 
L 167.413692 273.071893 
L 167.413692 272.51271 
L 167.783325 272.51271 
L 167.783325 271.394346 
L 169.025972 271.394346 
L 169.025972 270.835164 
L 169.72442 270.835164 
L 169.72442 269.716799 
L 169.879281 269.716799 
L 169.879281 269.157617 
L 170.260441 269.157617 
L 170.260441 268.039252 
L 173.644277 268.039252 
L 173.644277 267.48007 
L 174.120693 267.48007 
L 174.120693 266.920888 
L 175.206202 266.920888 
L 175.206202 266.361706 
L 175.352628 266.361706 
L 175.352628 265.802523 
L 176.669253 265.802523 
L 176.669253 264.124977 
L 176.947505 264.124977 
L 176.947505 263.565795 
L 180.164215 263.565795 
L 180.231918 262.44743 
L 181.032288 262.44743 
L 181.032288 261.888248 
L 181.7662 261.888248 
L 181.7662 260.210701 
L 182.253666 260.210701 
L 182.253666 259.651519 
L 182.894916 259.651519 
L 182.894916 258.533154 
L 183.274161 258.533154 
L 183.358879 257.41479 
L 183.638298 257.41479 
L 183.638298 256.296425 
L 185.687052 256.296425 
L 185.687052 255.178061 
L 185.815745 255.178061 
L 185.815745 254.618879 
L 186.058241 254.618879 
L 186.058241 253.500514 
L 186.374374 253.500514 
L 186.374374 251.822967 
L 186.661568 251.822967 
L 186.719594 250.704603 
L 186.881035 250.704603 
L 186.881035 250.145421 
L 189.086359 250.145421 
L 189.086359 248.467874 
L 189.46582 248.467874 
L 189.46582 247.908692 
L 190.542522 247.908692 
L 190.542522 246.231145 
L 191.040851 246.231145 
L 191.040851 245.671963 
L 191.485675 245.671963 
L 191.485675 243.994416 
L 192.013235 243.994416 
L 192.013235 242.876052 
L 192.885079 242.876052 
L 192.885079 241.757687 
L 193.233716 241.757687 
L 193.233716 241.198505 
L 194.860167 241.198505 
L 194.899822 238.402594 
L 195.0718 238.402594 
L 195.0718 237.843411 
L 195.80121 237.843411 
L 195.80121 236.725047 
L 197.100618 236.725047 
L 197.100618 235.0475 
L 197.753455 235.0475 
L 197.753455 233.929136 
L 199.124947 233.929136 
L 199.124947 232.810771 
L 199.594515 232.810771 
L 199.594515 232.251589 
L 199.747327 232.251589 
L 199.747327 231.133225 
L 200.374192 231.133225 
L 200.374192 230.574042 
L 200.548809 230.574042 
L 200.548809 230.01486 
L 201.740835 230.01486 
L 201.740835 228.337313 
L 202.009704 228.337313 
L 202.009704 227.218949 
L 202.979869 227.218949 
L 202.979869 226.659767 
L 204.122999 226.659767 
L 204.122999 226.100584 
L 204.267746 226.100584 
L 204.267746 225.541402 
L 204.812607 225.541402 
L 204.812607 224.423038 
L 205.190928 224.423038 
L 205.190928 223.863855 
L 205.790163 223.863855 
L 205.790163 223.304673 
L 207.518731 223.304673 
L 207.518731 222.186309 
L 213.622734 222.186309 
L 213.622734 219.94958 
L 275.066291 219.94958 
L 275.173519 209.884299 
L 275.18392 209.884299 
L 275.219415 208.206753 
L 275.393889 208.206753 
L 275.393889 207.088388 
L 286.920063 207.088388 
L 287.009707 202.61493 
L 287.080407 202.61493 
L 287.080407 202.055748 
L 293.876196 202.055748 
L 293.928652 197.023108 
L 298.80438 197.023108 
L 298.849599 194.227197 
L 302.655554 194.227197 
L 302.655554 193.668014 
L 305.788215 193.668014 
L 305.820695 191.990468 
L 308.432111 191.990468 
L 308.461265 190.872103 
L 310.728571 190.872103 
L 310.732137 189.753739 
L 314.562417 189.753739 
L 314.562417 189.194556 
L 320.338522 189.194556 
L 320.338522 188.635374 
L 333.429677 188.635374 
L 333.429677 188.635374 
" style="fill:none;stroke:#ff00ff;stroke-linecap:square;stroke-width:1.5;"/>
   </g>
   <g id="line2d_30">
    <defs>
     <path d="M -0 8.485281 
L 5.091169 0 
L 0 -8.485281 
L -5.091169 -0 
z
" id="mbda5901368" style="stroke:#ff00ff;stroke-linejoin:miter;stroke-width:1.5;"/>
    </defs>
    <g>
     <use style="fill-opacity:0;stroke:#ff00ff;stroke-linejoin:miter;stroke-width:1.5;" x="142.327309" xlink:href="#mbda5901368" y="282.577991"/>
     <use style="fill-opacity:0;stroke:#ff00ff;stroke-linejoin:miter;stroke-width:1.5;" x="202.979869" xlink:href="#mbda5901368" y="226.659767"/>
     <use style="fill-opacity:0;stroke:#ff00ff;stroke-linejoin:miter;stroke-width:1.5;" x="298.849599" xlink:href="#mbda5901368" y="194.786379"/>
     <use style="fill-opacity:0;stroke:#ff00ff;stroke-linejoin:miter;stroke-width:1.5;" x="320.338522" xlink:href="#mbda5901368" y="188.635374"/>
     <use style="fill-opacity:0;stroke:#ff00ff;stroke-linejoin:miter;stroke-width:1.5;" x="333.429677" xlink:href="#mbda5901368" y="188.635374"/>
    </g>
   </g>
   <g id="line2d_31">
    <path style="fill:none;stroke:#ff00ff;stroke-linecap:square;stroke-width:1.5;"/>
    <g/>
   </g>
   <g id="line2d_32">
    <path clip-path="url(#p785873a42e)" d="M 274.912549 219.94958 
" style="fill:none;stroke:#ff00ff;stroke-linecap:square;stroke-width:1.5;"/>
    <defs>
     <path d="M -12 12 
L 12 -12 
M -12 -12 
L 12 12 
" id="m11605a79d4" style="stroke:#ff00ff;stroke-width:3;"/>
    </defs>
    <g clip-path="url(#p785873a42e)">
     <use style="fill:#ff00ff;stroke:#ff00ff;stroke-width:3;" x="274.912549" xlink:href="#m11605a79d4" y="219.94958"/>
    </g>
   </g>
   <g id="line2d_33">
    <defs>
     <path d="M 0 1.5 
C 0.397805 1.5 0.77937 1.341951 1.06066 1.06066 
C 1.341951 0.77937 1.5 0.397805 1.5 0 
C 1.5 -0.397805 1.341951 -0.77937 1.06066 -1.06066 
C 0.77937 -1.341951 0.397805 -1.5 0 -1.5 
C -0.397805 -1.5 -0.77937 -1.341951 -1.06066 -1.06066 
C -1.341951 -0.77937 -1.5 -0.397805 -1.5 0 
C -1.5 0.397805 -1.341951 0.77937 -1.06066 1.06066 
C -0.77937 1.341951 -0.397805 1.5 0 1.5 
z
" id="m1d6656fa11" style="stroke:#ffa500;"/>
    </defs>
    <g>
     <use style="fill:#ffa500;stroke:#ffa500;" x="340.861603" xlink:href="#m1d6656fa11" y="127.125328"/>
     <use style="fill:#ffa500;stroke:#ffa500;" x="340.861603" xlink:href="#m1d6656fa11" y="127.125328"/>
    </g>
   </g>
   <g id="line2d_34">
    <path d="M 134.286778 294.88 
L 134.286778 293.202453 
L 148.600945 293.202453 
L 148.600945 292.643271 
L 181.462233 292.643271 
L 181.462233 292.084089 
L 184.868218 292.084089 
L 184.868218 289.84736 
L 187.120391 289.84736 
L 187.120391 289.288178 
L 189.50528 289.288178 
L 189.50528 288.169813 
L 217.129296 288.169813 
L 217.129296 287.051449 
L 217.371906 287.051449 
L 217.371906 284.81472 
L 219.916706 284.81472 
L 219.941924 282.018808 
L 221.000668 282.018808 
L 221.000668 280.900444 
L 222.883458 280.900444 
L 222.967503 279.782079 
L 224.41796 279.782079 
L 224.41796 279.222897 
L 225.143904 279.222897 
L 225.143904 278.663715 
L 225.347566 278.663715 
L 225.347566 277.545351 
L 225.539746 277.545351 
L 225.539746 276.986168 
L 226.368829 276.986168 
L 226.368829 276.426986 
L 227.146531 276.426986 
L 227.164757 275.308622 
L 227.948183 275.308622 
L 227.948183 274.749439 
L 228.360932 274.749439 
L 228.360932 274.190257 
L 228.507579 274.190257 
L 228.581962 273.071893 
L 228.770548 273.071893 
L 228.785626 271.953528 
L 229.04837 271.953528 
L 229.04837 271.394346 
L 229.232918 271.394346 
L 229.320315 269.157617 
L 229.496201 269.157617 
L 229.496201 268.598435 
L 229.701297 268.598435 
L 229.701297 268.039252 
L 229.899268 268.039252 
L 229.899268 266.920888 
L 230.14334 266.920888 
L 230.14334 265.802523 
L 230.382165 265.802523 
L 230.40047 263.565795 
L 230.515801 263.565795 
L 230.515801 263.006612 
L 231.91608 263.006612 
L 231.91608 262.44743 
L 232.094405 262.44743 
L 232.198542 260.769883 
L 232.604473 260.769883 
L 232.604473 260.210701 
L 232.779025 260.210701 
L 232.872378 259.092337 
L 234.271064 259.092337 
L 234.271064 258.533154 
L 234.929956 258.533154 
L 235.032992 256.855608 
L 235.535722 256.855608 
L 235.535722 256.296425 
L 235.720354 256.296425 
L 235.720354 255.737243 
L 236.276959 255.737243 
L 236.37355 253.500514 
L 236.630842 253.500514 
L 236.737502 251.263785 
L 237.291159 251.263785 
L 237.387722 248.467874 
L 239.429697 248.467874 
L 239.429697 247.908692 
L 241.143976 247.908692 
L 241.143976 247.34951 
L 243.690569 247.34951 
L 243.690569 246.790327 
L 246.295991 246.790327 
L 246.295991 246.231145 
L 246.665299 246.231145 
L 246.665299 245.112781 
L 247.702336 245.112781 
L 247.702336 243.994416 
L 248.262006 243.994416 
L 248.262006 243.435234 
L 248.857318 243.435234 
L 248.857318 241.757687 
L 249.493436 241.757687 
L 249.493436 241.198505 
L 275.662805 241.198505 
L 275.662805 240.639323 
L 275.81857 240.639323 
L 275.81857 239.520958 
L 276.142661 239.520958 
L 276.160528 237.843411 
L 276.448114 237.843411 
L 276.519313 235.606682 
L 276.574198 235.606682 
L 276.643789 234.488318 
L 276.753279 234.488318 
L 276.788952 233.369954 
L 276.878106 233.369954 
L 276.971868 231.692407 
L 277.032968 231.692407 
L 277.032968 231.133225 
L 277.240543 231.133225 
L 277.275851 230.01486 
L 277.377378 230.01486 
L 277.407065 228.896496 
L 277.640371 228.896496 
L 277.640371 228.337313 
L 277.843747 228.337313 
L 277.882357 226.100584 
L 277.957763 226.100584 
L 277.957763 225.541402 
L 278.332874 225.541402 
L 278.332874 224.98222 
L 287.51848 224.98222 
L 287.547958 223.304673 
L 287.638915 223.304673 
L 287.729394 220.508762 
L 287.777877 220.508762 
L 287.779734 218.831215 
L 287.905379 218.831215 
L 287.930909 216.035304 
L 288.041395 216.035304 
L 288.060251 213.239393 
L 288.206895 213.239393 
L 288.25597 212.121028 
L 288.366001 212.121028 
L 288.386957 211.002664 
L 288.543884 211.002664 
L 288.633071 208.765935 
L 288.697154 208.765935 
L 288.697154 207.64757 
L 290.264505 207.64757 
L 290.264505 207.088388 
L 291.271709 207.088388 
L 291.271709 205.970024 
L 292.577331 205.970024 
L 292.577331 205.410841 
L 294.331343 205.410841 
L 294.380313 202.61493 
L 294.446244 202.61493 
L 294.550254 200.378201 
L 294.601345 200.378201 
L 294.685867 198.700655 
L 294.738579 198.700655 
L 294.738579 198.141472 
L 295.031266 198.141472 
L 295.075473 195.345561 
L 297.84447 195.345561 
L 297.84447 194.786379 
L 299.116973 194.786379 
L 299.222188 193.108832 
L 299.239886 193.108832 
L 299.309872 191.431285 
L 299.376478 191.431285 
L 299.461588 188.635374 
L 299.544488 188.635374 
L 299.637606 185.280281 
L 302.994723 185.280281 
L 303.079414 181.925187 
L 303.131391 181.925187 
L 303.183975 178.010912 
L 303.296209 178.010912 
L 303.296209 177.451729 
L 304.204621 177.451729 
L 304.204621 176.892547 
L 306.066823 176.892547 
L 306.175645 171.300725 
L 306.180973 171.300725 
L 306.271477 169.623178 
L 306.338211 169.623178 
L 306.381812 167.945631 
L 307.084599 167.945631 
L 307.084599 167.386449 
L 308.651088 167.386449 
L 308.744158 166.268085 
L 308.766158 166.268085 
L 308.794008 164.031356 
L 308.896552 164.031356 
L 308.943655 162.912991 
L 310.916264 162.912991 
L 311.002847 158.998715 
L 311.089556 158.998715 
L 311.10052 157.321169 
L 311.707593 157.321169 
L 311.707593 156.761987 
L 311.909097 156.761987 
L 311.909097 156.202804 
L 312.934389 156.202804 
L 313.024097 151.729346 
L 313.104225 151.729346 
L 313.104225 151.170164 
L 314.700069 151.170164 
L 314.735191 150.0518 
L 314.889919 150.0518 
L 314.889919 149.492617 
L 316.368689 149.492617 
L 316.432439 146.696706 
L 316.497149 146.696706 
L 316.497149 146.137524 
L 317.860892 146.137524 
L 317.887295 145.019159 
L 317.989173 145.019159 
L 317.989173 144.459977 
L 319.193991 144.459977 
L 319.291164 141.664066 
L 319.315857 141.664066 
L 319.321064 139.986519 
L 320.548514 139.986519 
L 320.595382 138.868155 
L 320.906556 138.868155 
L 320.906556 138.308973 
L 322.781438 138.308973 
L 322.781438 137.74979 
L 323.779656 137.74979 
L 323.844568 136.631426 
L 324.144432 136.631426 
L 324.144432 136.072244 
L 326.629734 136.072244 
L 326.629734 135.513061 
L 328.258874 135.513061 
L 328.258874 134.394697 
L 329.013541 134.394697 
L 329.016504 133.276332 
L 329.690948 133.276332 
L 329.725864 132.157968 
L 330.381461 132.157968 
L 330.381461 131.598786 
L 331.060369 131.598786 
L 331.118025 130.480421 
L 331.716118 130.480421 
L 331.716118 129.921239 
L 333.429677 129.921239 
L 333.429677 129.921239 
" style="fill:none;stroke:#ffa500;stroke-linecap:square;stroke-width:1.5;"/>
   </g>
   <g id="line2d_35">
    <defs>
     <path d="M 0 -6 
L -1.347084 -1.854102 
L -5.706339 -1.854102 
L -2.179628 0.708204 
L -3.526712 4.854102 
L -0 2.291796 
L 3.526712 4.854102 
L 2.179628 0.708204 
L 5.706339 -1.854102 
L 1.347084 -1.854102 
z
" id="me5a84401e2" style="stroke:#ffa500;stroke-linejoin:bevel;stroke-width:1.5;"/>
    </defs>
    <g>
     <use style="fill-opacity:0;stroke:#ffa500;stroke-linejoin:bevel;stroke-width:1.5;" x="222.967503" xlink:href="#me5a84401e2" y="279.782079"/>
     <use style="fill-opacity:0;stroke:#ffa500;stroke-linejoin:bevel;stroke-width:1.5;" x="249.493436" xlink:href="#me5a84401e2" y="241.198505"/>
     <use style="fill-opacity:0;stroke:#ffa500;stroke-linejoin:bevel;stroke-width:1.5;" x="312.934389" xlink:href="#me5a84401e2" y="155.643622"/>
     <use style="fill-opacity:0;stroke:#ffa500;stroke-linejoin:bevel;stroke-width:1.5;" x="331.716118" xlink:href="#me5a84401e2" y="129.921239"/>
     <use style="fill-opacity:0;stroke:#ffa500;stroke-linejoin:bevel;stroke-width:1.5;" x="333.429677" xlink:href="#me5a84401e2" y="129.921239"/>
    </g>
   </g>
   <g id="line2d_36">
    <path style="fill:none;stroke:#ffa500;stroke-linecap:square;stroke-width:1.5;"/>
    <g/>
   </g>
   <g id="line2d_37">
    <path clip-path="url(#p785873a42e)" d="M 274.912549 241.198505 
" style="fill:none;stroke:#ffa500;stroke-linecap:square;stroke-width:1.5;"/>
    <defs>
     <path d="M -12 12 
L 12 -12 
M -12 -12 
L 12 12 
" id="mac72be5cd7" style="stroke:#ffa500;stroke-width:3;"/>
    </defs>
    <g clip-path="url(#p785873a42e)">
     <use style="fill:#ffa500;stroke:#ffa500;stroke-width:3;" x="274.912549" xlink:href="#mac72be5cd7" y="241.198505"/>
    </g>
   </g>
   <g id="line2d_38">
    <defs>
     <path d="M 0 1.5 
C 0.397805 1.5 0.77937 1.341951 1.06066 1.06066 
C 1.341951 0.77937 1.5 0.397805 1.5 0 
C 1.5 -0.397805 1.341951 -0.77937 1.06066 -1.06066 
C 0.77937 -1.341951 0.397805 -1.5 0 -1.5 
C -0.397805 -1.5 -0.77937 -1.341951 -1.06066 -1.06066 
C -1.341951 -0.77937 -1.5 -0.397805 -1.5 0 
C -1.5 0.397805 -1.341951 0.77937 -1.06066 1.06066 
C -0.77937 1.341951 -0.397805 1.5 0 1.5 
z
" id="m3df3ba7ed9" style="stroke:#6495ed;"/>
    </defs>
    <g>
     <use style="fill:#6495ed;stroke:#6495ed;" x="328.860274" xlink:href="#m3df3ba7ed9" y="227.778131"/>
     <use style="fill:#6495ed;stroke:#6495ed;" x="328.860274" xlink:href="#m3df3ba7ed9" y="227.778131"/>
    </g>
   </g>
   <g id="line2d_39">
    <path d="M 88.759695 294.88 
L 88.759695 293.202453 
L 119.586677 293.202453 
L 119.586677 288.728995 
L 125.375637 288.728995 
L 125.375637 287.610631 
L 131.076592 287.610631 
L 131.076592 285.933084 
L 139.865278 285.933084 
L 139.865278 284.81472 
L 140.975655 284.81472 
L 140.975655 283.696355 
L 147.896396 283.696355 
L 147.896396 282.018808 
L 149.731223 282.018808 
L 149.731223 280.341262 
L 155.037536 280.341262 
L 155.037536 279.782079 
L 156.574083 279.782079 
L 156.574083 278.663715 
L 158.076669 278.663715 
L 158.076669 276.426986 
L 159.000442 276.426986 
L 159.000442 275.308622 
L 159.849538 275.308622 
L 159.849538 273.631075 
L 163.337163 273.631075 
L 163.337163 272.51271 
L 164.344351 272.51271 
L 164.344351 271.953528 
L 167.466985 271.953528 
L 167.466985 270.835164 
L 168.731864 270.835164 
L 168.731864 270.275981 
L 169.505247 270.275981 
L 169.505247 269.716799 
L 170.260441 269.716799 
L 170.260441 269.157617 
L 172.702355 269.157617 
L 172.702355 268.039252 
L 175.61972 268.039252 
L 175.61972 267.48007 
L 176.098874 267.48007 
L 176.098874 264.124977 
L 176.710761 264.124977 
L 176.710761 263.565795 
L 178.556608 263.565795 
L 178.556608 263.006612 
L 178.970538 263.006612 
L 178.970538 262.44743 
L 180.61612 262.44743 
L 180.61612 261.888248 
L 187.578321 261.888248 
L 187.578321 260.769883 
L 188.152773 260.769883 
L 188.152773 259.651519 
L 188.500998 259.651519 
L 188.500998 259.092337 
L 274.930261 259.092337 
L 275.023267 250.704603 
L 275.048992 250.704603 
L 275.048992 249.586238 
L 281.593111 249.586238 
L 281.593111 249.027056 
L 286.846912 249.027056 
L 286.894633 243.994416 
L 298.767988 243.994416 
L 298.777334 242.316869 
L 302.604853 242.316869 
L 302.624185 240.08014 
L 305.442416 240.08014 
L 305.442416 239.520958 
L 305.742484 239.520958 
L 305.762347 236.725047 
L 308.394204 236.725047 
L 308.394204 235.606682 
L 310.691277 235.606682 
L 310.703225 233.369954 
L 312.728093 233.369954 
L 312.728093 232.810771 
L 314.539548 232.810771 
L 314.539548 232.251589 
L 319.050421 232.251589 
L 319.050421 231.692407 
L 320.318443 231.692407 
L 320.318443 231.133225 
L 321.505372 231.133225 
L 321.511745 229.455678 
L 322.621649 229.455678 
L 322.621649 228.337313 
L 328.860274 228.337313 
L 328.860274 227.778131 
L 333.429677 227.778131 
L 333.429677 227.778131 
" style="fill:none;stroke:#6495ed;stroke-linecap:square;stroke-width:1.5;"/>
   </g>
   <g id="line2d_40">
    <defs>
     <path d="M -0 6 
L 6 -6 
L -6 -6 
z
" id="me280b0078c" style="stroke:#6495ed;stroke-linejoin:miter;stroke-width:1.5;"/>
    </defs>
    <g>
     <use style="fill-opacity:0;stroke:#6495ed;stroke-linejoin:miter;stroke-width:1.5;" x="125.375637" xlink:href="#me280b0078c" y="287.610631"/>
     <use style="fill-opacity:0;stroke:#6495ed;stroke-linejoin:miter;stroke-width:1.5;" x="188.500998" xlink:href="#me280b0078c" y="259.651519"/>
     <use style="fill-opacity:0;stroke:#6495ed;stroke-linejoin:miter;stroke-width:1.5;" x="281.593111" xlink:href="#me280b0078c" y="249.586238"/>
     <use style="fill-opacity:0;stroke:#6495ed;stroke-linejoin:miter;stroke-width:1.5;" x="328.860274" xlink:href="#me280b0078c" y="227.778131"/>
     <use style="fill-opacity:0;stroke:#6495ed;stroke-linejoin:miter;stroke-width:1.5;" x="333.429677" xlink:href="#me280b0078c" y="227.778131"/>
    </g>
   </g>
   <g id="line2d_41">
    <path style="fill:none;stroke:#6495ed;stroke-linecap:square;stroke-width:1.5;"/>
    <g/>
   </g>
   <g id="line2d_42">
    <path clip-path="url(#p785873a42e)" d="M 274.912549 259.092337 
" style="fill:none;stroke:#6495ed;stroke-linecap:square;stroke-width:1.5;"/>
    <defs>
     <path d="M -12 12 
L 12 -12 
M -12 -12 
L 12 12 
" id="mf92b777c4b" style="stroke:#6495ed;stroke-width:3;"/>
    </defs>
    <g clip-path="url(#p785873a42e)">
     <use style="fill:#6495ed;stroke:#6495ed;stroke-width:3;" x="274.912549" xlink:href="#mf92b777c4b" y="259.092337"/>
    </g>
   </g>
   <g id="line2d_43">
    <defs>
     <path d="M 0 1.5 
C 0.397805 1.5 0.77937 1.341951 1.06066 1.06066 
C 1.341951 0.77937 1.5 0.397805 1.5 0 
C 1.5 -0.397805 1.341951 -0.77937 1.06066 -1.06066 
C 0.77937 -1.341951 0.397805 -1.5 0 -1.5 
C -0.397805 -1.5 -0.77937 -1.341951 -1.06066 -1.06066 
C -1.341951 -0.77937 -1.5 -0.397805 -1.5 0 
C -1.5 0.397805 -1.341951 0.77937 -1.06066 1.06066 
C -0.77937 1.341951 -0.397805 1.5 0 1.5 
z
" id="mf1a092f401" style="stroke:#ff0000;"/>
    </defs>
    <g>
     <use style="fill:#ff0000;stroke:#ff0000;" x="331.094818" xlink:href="#mf1a092f401" y="82.390748"/>
     <use style="fill:#ff0000;stroke:#ff0000;" x="331.094818" xlink:href="#mf1a092f401" y="82.390748"/>
    </g>
   </g>
   <g id="line2d_44">
    <path d="M 49.144027 294.88 
L 49.144027 269.716799 
L 61.069532 269.716799 
L 61.069532 264.124977 
L 72.995036 264.124977 
L 72.995036 259.651519 
L 76.834191 259.651519 
L 76.834191 259.092337 
L 79.971009 259.092337 
L 79.971009 257.973972 
L 82.623151 257.973972 
L 82.623151 256.296425 
L 88.759695 256.296425 
L 88.759695 254.059696 
L 93.273637 254.059696 
L 93.273637 252.941332 
L 94.548655 252.941332 
L 94.548655 252.38215 
L 97.889083 252.38215 
L 97.889083 251.822967 
L 105.848459 251.822967 
L 105.848459 250.145421 
L 106.47416 250.145421 
L 106.47416 249.586238 
L 107.077901 249.586238 
L 107.077901 249.027056 
L 108.225317 249.027056 
L 108.225317 247.908692 
L 109.300972 247.908692 
L 109.300972 244.553598 
L 110.313314 244.553598 
L 110.313314 242.876052 
L 111.269386 242.876052 
L 111.269386 242.316869 
L 112.175115 242.316869 
L 112.175115 241.757687 
L 113.035537 241.757687 
L 113.035537 241.198505 
L 125.375637 241.198505 
L 125.375637 240.639323 
L 128.546558 240.639323 
L 128.546558 239.520958 
L 129.214792 239.520958 
L 129.214792 237.284229 
L 129.539422 237.284229 
L 129.539422 236.725047 
L 129.699468 236.725047 
L 129.699468 235.0475 
L 132.076326 235.0475 
L 132.076326 234.488318 
L 134.408368 234.488318 
L 134.408368 233.929136 
L 135.465655 233.929136 
L 135.465655 232.810771 
L 135.579219 232.810771 
L 135.579219 230.01486 
L 135.804122 230.01486 
L 135.804122 228.337313 
L 139.508688 228.337313 
L 139.508688 227.778131 
L 139.865278 227.778131 
L 139.865278 227.218949 
L 142.630487 227.218949 
L 142.630487 226.100584 
L 142.780095 226.100584 
L 142.780095 225.541402 
L 144.880856 225.541402 
L 144.880856 224.423038 
L 145.077485 224.423038 
L 145.077485 223.863855 
L 145.336209 223.863855 
L 145.336209 223.304673 
L 146.273185 223.304673 
L 146.273185 222.745491 
L 150.365801 222.745491 
L 150.461384 221.067944 
L 151.966344 221.067944 
L 152.053458 218.272033 
L 152.609191 218.272033 
L 152.609191 213.239393 
L 152.776636 213.239393 
L 152.776636 211.561846 
L 161.755892 211.561846 
L 161.755892 211.002664 
L 162.315251 211.002664 
L 162.315251 208.206753 
L 167.126638 208.206753 
L 167.126638 207.64757 
L 167.449239 207.64757 
L 167.449239 205.410841 
L 167.573079 205.410841 
L 167.573079 204.851659 
L 169.583844 204.851659 
L 169.583844 204.292477 
L 170.09377 204.292477 
L 170.09377 203.733295 
L 171.608543 203.733295 
L 171.608543 202.61493 
L 173.693751 202.61493 
L 173.693751 201.496566 
L 174.144773 201.496566 
L 174.144773 200.937384 
L 174.93256 200.937384 
L 174.93256 199.259837 
L 175.104096 199.259837 
L 175.104096 198.141472 
L 175.22881 198.141472 
L 175.22881 196.463926 
L 175.386242 196.463926 
L 175.386242 195.345561 
L 175.61972 195.345561 
L 175.61972 194.227197 
L 175.762682 194.227197 
L 175.762682 193.108832 
L 176.824393 193.108832 
L 176.824393 192.54965 
L 177.211264 192.54965 
L 177.251486 191.431285 
L 177.687829 191.431285 
L 177.697618 188.635374 
L 178.943251 188.635374 
L 178.943251 186.957828 
L 180.002346 186.957828 
L 180.002346 186.398645 
L 181.657701 186.398645 
L 181.696529 184.161916 
L 182.395763 184.161916 
L 182.395763 183.602734 
L 182.713083 183.602734 
L 182.822413 180.247641 
L 183.024655 180.247641 
L 183.024655 179.688458 
L 183.61056 179.688458 
L 183.61056 178.570094 
L 183.865451 178.570094 
L 183.865451 178.010912 
L 185.432987 178.010912 
L 185.432987 177.451729 
L 186.094323 177.451729 
L 186.094323 176.333365 
L 187.114731 176.333365 
L 187.154315 174.655818 
L 187.473295 174.655818 
L 187.561781 171.859907 
L 187.808234 171.859907 
L 187.808234 170.741543 
L 188.216613 170.741543 
L 188.216613 170.18236 
L 188.791033 170.18236 
L 188.842314 167.945631 
L 188.94442 167.945631 
L 188.94442 166.268085 
L 189.066153 166.268085 
L 189.066153 165.14972 
L 189.272142 165.14972 
L 189.351863 163.472173 
L 189.967086 163.472173 
L 189.967086 161.794627 
L 190.514667 161.794627 
L 190.514667 161.235444 
L 190.717895 161.235444 
L 190.782058 158.998715 
L 191.446109 158.998715 
L 191.446109 157.321169 
L 191.690836 157.321169 
L 191.690836 156.202804 
L 192.308786 156.202804 
L 192.308786 155.08444 
L 192.525097 155.08444 
L 192.619913 152.847711 
L 192.677372 152.847711 
L 192.677372 152.288529 
L 192.828311 152.288529 
L 192.840491 150.0518 
L 193.205925 150.0518 
L 193.205925 149.492617 
L 194.11145 149.492617 
L 194.11145 148.374253 
L 195.082492 148.374253 
L 195.082492 147.255888 
L 195.294944 147.255888 
L 195.386198 142.78243 
L 195.811458 142.78243 
L 195.811458 142.223248 
L 195.998266 142.223248 
L 195.998266 141.664066 
L 196.477968 141.664066 
L 196.477968 140.545702 
L 197.119618 140.545702 
L 197.119618 139.986519 
L 197.336628 139.986519 
L 197.336628 138.308973 
L 197.581773 138.308973 
L 197.581773 137.74979 
L 197.96869 137.74979 
L 198.052836 135.513061 
L 199.028909 135.513061 
L 199.065693 134.394697 
L 199.256829 134.394697 
L 199.256829 133.276332 
L 199.605476 133.276332 
L 199.605476 132.71715 
L 200.128837 132.71715 
L 200.213656 131.039603 
L 201.235062 131.039603 
L 201.235062 130.480421 
L 201.570633 130.480421 
L 201.570633 129.921239 
L 201.97155 129.921239 
L 201.97155 129.362057 
L 202.349331 129.362057 
L 202.398305 127.68451 
L 203.087596 127.68451 
L 203.087596 126.566145 
L 203.601146 126.566145 
L 203.601146 126.006963 
L 203.889695 126.006963 
L 203.889695 122.65187 
L 204.085038 122.65187 
L 204.085038 122.092688 
L 209.369619 122.092688 
L 209.369619 120.974323 
L 233.297713 120.974323 
L 233.297713 120.415141 
L 245.469766 120.415141 
L 245.469766 118.737594 
L 245.833555 118.737594 
L 245.833555 117.61923 
L 256.545081 117.61923 
L 256.545081 117.060047 
L 256.713182 117.060047 
L 256.713182 115.941683 
L 260.727741 115.941683 
L 260.727741 115.382501 
L 265.560318 115.382501 
L 265.560318 114.823318 
L 267.253191 114.823318 
L 267.253191 113.145772 
L 269.391732 113.145772 
L 269.391732 112.586589 
L 272.250695 112.586589 
L 272.250695 112.027407 
L 273.235923 112.027407 
L 273.235923 110.349861 
L 274.095906 110.349861 
L 274.095906 109.790678 
L 275.16623 109.790678 
L 275.272098 108.113132 
L 275.289612 108.113132 
L 275.289612 107.553949 
L 277.429999 107.553949 
L 277.510634 106.435585 
L 277.62793 106.435585 
L 277.62793 105.876403 
L 277.891895 105.876403 
L 277.891895 105.31722 
L 282.815623 105.31722 
L 282.815623 104.758038 
L 284.374861 104.758038 
L 284.374861 104.198856 
L 285.619873 104.198856 
L 285.619873 103.639674 
L 288.421977 103.639674 
L 288.421977 103.080491 
L 290.140639 103.080491 
L 290.140639 102.521309 
L 291.239442 102.521309 
L 291.239442 101.962127 
L 293.011563 101.962127 
L 293.011563 101.402945 
L 293.403993 101.402945 
L 293.403993 100.843762 
L 293.899003 100.843762 
L 293.906192 99.166216 
L 294.886008 99.166216 
L 294.886008 98.047851 
L 295.086134 98.047851 
L 295.086134 97.488669 
L 297.576005 97.488669 
L 297.576005 96.929487 
L 298.165247 96.929487 
L 298.165247 96.370304 
L 301.104617 96.370304 
L 301.104617 95.811122 
L 301.449462 95.811122 
L 301.449462 94.133576 
L 302.357867 94.133576 
L 302.357867 93.574393 
L 302.653749 93.574393 
L 302.675226 91.337664 
L 304.957005 91.337664 
L 304.957005 90.778482 
L 305.774793 90.778482 
L 305.774793 90.2193 
L 306.912258 90.2193 
L 306.912258 89.660118 
L 307.575885 89.660118 
L 307.575885 88.541753 
L 308.439504 88.541753 
L 308.439504 87.982571 
L 310.715516 87.982571 
L 310.715516 87.423389 
L 311.899379 87.423389 
L 311.899379 86.864206 
L 312.182597 86.864206 
L 312.182597 86.305024 
L 312.75781 86.305024 
L 312.75781 85.745842 
L 316.201015 85.745842 
L 316.202638 84.627477 
L 317.696775 84.627477 
L 317.696775 84.068295 
L 322.160269 84.068295 
L 322.160269 83.509113 
L 326.814008 83.509113 
L 326.814008 82.949931 
L 331.094818 82.949931 
L 331.094818 82.390748 
L 333.429677 82.390748 
L 333.429677 82.390748 
" style="fill:none;stroke:#ff0000;stroke-linecap:square;stroke-width:1.5;"/>
   </g>
   <g id="line2d_45">
    <defs>
     <path d="M 0 -6 
L -5.196152 -3 
L -5.196152 3 
L -0 6 
L 5.196152 3 
L 5.196152 -3 
z
" id="m646b54d4ca" style="stroke:#ff0000;stroke-linejoin:miter;stroke-width:1.5;"/>
    </defs>
    <g>
     <use style="fill-opacity:0;stroke:#ff0000;stroke-linejoin:miter;stroke-width:1.5;" x="110.313314" xlink:href="#m646b54d4ca" y="244.553598"/>
     <use style="fill-opacity:0;stroke:#ff0000;stroke-linejoin:miter;stroke-width:1.5;" x="177.697618" xlink:href="#m646b54d4ca" y="189.194556"/>
     <use style="fill-opacity:0;stroke:#ff0000;stroke-linejoin:miter;stroke-width:1.5;" x="209.369619" xlink:href="#m646b54d4ca" y="122.092688"/>
     <use style="fill-opacity:0;stroke:#ff0000;stroke-linejoin:miter;stroke-width:1.5;" x="277.891895" xlink:href="#m646b54d4ca" y="105.31722"/>
     <use style="fill-opacity:0;stroke:#ff0000;stroke-linejoin:miter;stroke-width:1.5;" x="331.094818" xlink:href="#m646b54d4ca" y="82.390748"/>
     <use style="fill-opacity:0;stroke:#ff0000;stroke-linejoin:miter;stroke-width:1.5;" x="333.429677" xlink:href="#m646b54d4ca" y="82.390748"/>
    </g>
   </g>
   <g id="line2d_46">
    <path style="fill:none;stroke:#ff0000;stroke-linecap:square;stroke-width:1.5;"/>
    <g/>
   </g>
   <g id="line2d_47">
    <path clip-path="url(#p785873a42e)" d="M 274.912549 109.790678 
" style="fill:none;stroke:#ff0000;stroke-linecap:square;stroke-width:1.5;"/>
    <defs>
     <path d="M -12 12 
L 12 -12 
M -12 -12 
L 12 12 
" id="m4f8494f9c3" style="stroke:#ff0000;stroke-width:3;"/>
    </defs>
    <g clip-path="url(#p785873a42e)">
     <use style="fill:#ff0000;stroke:#ff0000;stroke-width:3;" x="274.912549" xlink:href="#m4f8494f9c3" y="109.790678"/>
    </g>
   </g>
   <g id="line2d_48">
    <path d="M 333.429677 227.778131 
L 363.933742 289.176341 
" style="fill:none;stroke:#6495ed;stroke-linecap:square;stroke-width:1.5;"/>
    <g>
     <use style="fill-opacity:0;stroke:#6495ed;stroke-linejoin:miter;stroke-width:1.5;" x="333.429677" xlink:href="#me280b0078c" y="227.778131"/>
     <use style="fill-opacity:0;stroke:#6495ed;stroke-linejoin:miter;stroke-width:1.5;" x="363.933742" xlink:href="#me280b0078c" y="289.176341"/>
    </g>
   </g>
   <g id="line2d_49">
    <path d="M 333.429677 188.635374 
L 363.933742 220.732435 
" style="fill:none;stroke:#ff00ff;stroke-linecap:square;stroke-width:1.5;"/>
    <g>
     <use style="fill-opacity:0;stroke:#ff00ff;stroke-linejoin:miter;stroke-width:1.5;" x="333.429677" xlink:href="#mbda5901368" y="188.635374"/>
     <use style="fill-opacity:0;stroke:#ff00ff;stroke-linejoin:miter;stroke-width:1.5;" x="363.933742" xlink:href="#mbda5901368" y="220.732435"/>
    </g>
   </g>
   <g id="line2d_50">
    <path d="M 333.429677 146.137524 
L 363.933742 152.288529 
" style="fill:none;stroke:#000080;stroke-linecap:square;stroke-width:1.5;"/>
    <g>
     <use style="fill-opacity:0;stroke:#000080;stroke-width:1.5;" x="333.429677" xlink:href="#mdb56efcaee" y="146.137524"/>
     <use style="fill-opacity:0;stroke:#000080;stroke-width:1.5;" x="363.933742" xlink:href="#mdb56efcaee" y="152.288529"/>
    </g>
   </g>
   <g id="line2d_51">
    <path d="M 333.429677 129.921239 
L 363.933742 83.844622 
" style="fill:none;stroke:#ffa500;stroke-linecap:square;stroke-width:1.5;"/>
    <g>
     <use style="fill-opacity:0;stroke:#ffa500;stroke-linejoin:bevel;stroke-width:1.5;" x="333.429677" xlink:href="#me5a84401e2" y="129.921239"/>
     <use style="fill-opacity:0;stroke:#ffa500;stroke-linejoin:bevel;stroke-width:1.5;" x="363.933742" xlink:href="#me5a84401e2" y="83.844622"/>
    </g>
   </g>
   <g id="line2d_52">
    <path d="M 333.429677 82.390748 
L 363.933742 15.400716 
" style="fill:none;stroke:#ff0000;stroke-linecap:square;stroke-width:1.5;"/>
    <g>
     <use style="fill-opacity:0;stroke:#ff0000;stroke-linejoin:miter;stroke-width:1.5;" x="333.429677" xlink:href="#m646b54d4ca" y="82.390748"/>
     <use style="fill-opacity:0;stroke:#ff0000;stroke-linejoin:miter;stroke-width:1.5;" x="363.933742" xlink:href="#m646b54d4ca" y="15.400716"/>
    </g>
   </g>
   <g id="line2d_53">
    <path d="M 333.429677 294.88 
L 333.429677 9.697057 
" style="fill:none;stroke:#000000;stroke-linecap:square;stroke-width:1.5;"/>
   </g>
   <g id="patch_3">
    <path d="M 56.12 294.88 
L 56.12 6.845228 
" style="fill:none;stroke:#000000;stroke-linecap:square;stroke-linejoin:miter;stroke-width:0.8;"/>
   </g>
   <g id="patch_4">
    <path d="M 399.984 294.88 
L 399.984 6.845228 
" style="fill:none;stroke:#000000;stroke-linecap:square;stroke-linejoin:miter;stroke-width:0.8;"/>
   </g>
   <g id="patch_5">
    <path d="M 56.12 294.88 
L 399.984 294.88 
" style="fill:none;stroke:#000000;stroke-linecap:square;stroke-linejoin:miter;stroke-width:0.8;"/>
   </g>
   <g id="patch_6">
    <path d="M 56.12 6.845228 
L 399.984 6.845228 
" style="fill:none;stroke:#000000;stroke-linecap:square;stroke-linejoin:miter;stroke-width:0.8;"/>
   </g>
   <g id="text_14">
    <!-- f11 -->
    <g transform="translate(369.479935 293.867279)scale(0.17 -0.17)">
     <use xlink:href="#DejaVuSans-66"/>
     <use x="35.205078" xlink:href="#DejaVuSans-31"/>
     <use x="98.828125" xlink:href="#DejaVuSans-31"/>
    </g>
   </g>
   <g id="text_15">
    <!-- f13 -->
    <defs>
     <path d="M 40.578125 39.3125 
Q 47.65625 37.796875 51.625 33 
Q 55.609375 28.21875 55.609375 21.1875 
Q 55.609375 10.40625 48.1875 4.484375 
Q 40.765625 -1.421875 27.09375 -1.421875 
Q 22.515625 -1.421875 17.65625 -0.515625 
Q 12.796875 0.390625 7.625 2.203125 
L 7.625 11.71875 
Q 11.71875 9.328125 16.59375 8.109375 
Q 21.484375 6.890625 26.8125 6.890625 
Q 36.078125 6.890625 40.9375 10.546875 
Q 45.796875 14.203125 45.796875 21.1875 
Q 45.796875 27.640625 41.28125 31.265625 
Q 36.765625 34.90625 28.71875 34.90625 
L 20.21875 34.90625 
L 20.21875 43.015625 
L 29.109375 43.015625 
Q 36.375 43.015625 40.234375 45.921875 
Q 44.09375 48.828125 44.09375 54.296875 
Q 44.09375 59.90625 40.109375 62.90625 
Q 36.140625 65.921875 28.71875 65.921875 
Q 24.65625 65.921875 20.015625 65.03125 
Q 15.375 64.15625 9.8125 62.3125 
L 9.8125 71.09375 
Q 15.4375 72.65625 20.34375 73.4375 
Q 25.25 74.21875 29.59375 74.21875 
Q 40.828125 74.21875 47.359375 69.109375 
Q 53.90625 64.015625 53.90625 55.328125 
Q 53.90625 49.265625 50.4375 45.09375 
Q 46.96875 40.921875 40.578125 39.3125 
z
" id="DejaVuSans-33"/>
    </defs>
    <g transform="translate(369.479935 225.423372)scale(0.17 -0.17)">
     <use xlink:href="#DejaVuSans-66"/>
     <use x="35.205078" xlink:href="#DejaVuSans-31"/>
     <use x="98.828125" xlink:href="#DejaVuSans-33"/>
    </g>
   </g>
   <g id="text_16">
    <!-- f12 -->
    <g transform="translate(369.479935 156.979466)scale(0.17 -0.17)">
     <use xlink:href="#DejaVuSans-66"/>
     <use x="35.205078" xlink:href="#DejaVuSans-31"/>
     <use x="98.828125" xlink:href="#DejaVuSans-32"/>
    </g>
   </g>
   <g id="text_17">
    <!-- f10 -->
    <g transform="translate(369.479935 88.53556)scale(0.17 -0.17)">
     <use xlink:href="#DejaVuSans-66"/>
     <use x="35.205078" xlink:href="#DejaVuSans-31"/>
     <use x="98.828125" xlink:href="#DejaVuSans-30"/>
    </g>
   </g>
   <g id="text_18">
    <!-- f14 -->
    <g transform="translate(369.479935 20.091654)scale(0.17 -0.17)">
     <use xlink:href="#DejaVuSans-66"/>
     <use x="35.205078" xlink:href="#DejaVuSans-31"/>
     <use x="98.828125" xlink:href="#DejaVuSans-34"/>
    </g>
   </g>
   <g id="text_19">
    <!-- bbob -->
    <defs>
     <path d="M 48.6875 27.296875 
Q 48.6875 37.203125 44.609375 42.84375 
Q 40.53125 48.484375 33.40625 48.484375 
Q 26.265625 48.484375 22.1875 42.84375 
Q 18.109375 37.203125 18.109375 27.296875 
Q 18.109375 17.390625 22.1875 11.75 
Q 26.265625 6.109375 33.40625 6.109375 
Q 40.53125 6.109375 44.609375 11.75 
Q 48.6875 17.390625 48.6875 27.296875 
z
M 18.109375 46.390625 
Q 20.953125 51.265625 25.265625 53.625 
Q 29.59375 56 35.59375 56 
Q 45.5625 56 51.78125 48.09375 
Q 58.015625 40.1875 58.015625 27.296875 
Q 58.015625 14.40625 51.78125 6.484375 
Q 45.5625 -1.421875 35.59375 -1.421875 
Q 29.59375 -1.421875 25.265625 0.953125 
Q 20.953125 3.328125 18.109375 8.203125 
L 18.109375 0 
L 9.078125 0 
L 9.078125 75.984375 
L 18.109375 75.984375 
z
" id="DejaVuSans-62"/>
    </defs>
    <g transform="translate(59.55864 17.475982)scale(0.102 -0.102)">
     <use xlink:href="#DejaVuSans-62"/>
     <use x="63.476562" xlink:href="#DejaVuSans-62"/>
     <use x="126.953125" xlink:href="#DejaVuSans-6f"/>
     <use x="188.134766" xlink:href="#DejaVuSans-62"/>
    </g>
    <!-- Ill-conditioned functions, 3-D -->
    <defs>
     <path d="M 9.8125 72.90625 
L 19.671875 72.90625 
L 19.671875 0 
L 9.8125 0 
z
" id="DejaVuSans-49"/>
     <path d="M 19.671875 64.796875 
L 19.671875 8.109375 
L 31.59375 8.109375 
Q 46.6875 8.109375 53.6875 14.9375 
Q 60.6875 21.78125 60.6875 36.53125 
Q 60.6875 51.171875 53.6875 57.984375 
Q 46.6875 64.796875 31.59375 64.796875 
z
M 9.8125 72.90625 
L 30.078125 72.90625 
Q 51.265625 72.90625 61.171875 64.09375 
Q 71.09375 55.28125 71.09375 36.53125 
Q 71.09375 17.671875 61.125 8.828125 
Q 51.171875 0 30.078125 0 
L 9.8125 0 
z
" id="DejaVuSans-44"/>
    </defs>
    <g transform="translate(59.55864 28.89775)scale(0.102 -0.102)">
     <use xlink:href="#DejaVuSans-49"/>
     <use x="29.492188" xlink:href="#DejaVuSans-6c"/>
     <use x="57.275391" xlink:href="#DejaVuSans-6c"/>
     <use x="85.058594" xlink:href="#DejaVuSans-2d"/>
     <use x="121.142578" xlink:href="#DejaVuSans-63"/>
     <use x="176.123047" xlink:href="#DejaVuSans-6f"/>
     <use x="237.304688" xlink:href="#DejaVuSans-6e"/>
     <use x="300.683594" xlink:href="#DejaVuSans-64"/>
     <use x="364.160156" xlink:href="#DejaVuSans-69"/>
     <use x="391.943359" xlink:href="#DejaVuSans-74"/>
     <use x="431.152344" xlink:href="#DejaVuSans-69"/>
     <use x="458.935547" xlink:href="#DejaVuSans-6f"/>
     <use x="520.117188" xlink:href="#DejaVuSans-6e"/>
     <use x="583.496094" xlink:href="#DejaVuSans-65"/>
     <use x="645.019531" xlink:href="#DejaVuSans-64"/>
     <use x="708.496094" xlink:href="#DejaVuSans-20"/>
     <use x="740.283203" xlink:href="#DejaVuSans-66"/>
     <use x="775.488281" xlink:href="#DejaVuSans-75"/>
     <use x="838.867188" xlink:href="#DejaVuSans-6e"/>
     <use x="902.246094" xlink:href="#DejaVuSans-63"/>
     <use x="957.226562" xlink:href="#DejaVuSans-74"/>
     <use x="996.435547" xlink:href="#DejaVuSans-69"/>
     <use x="1024.21875" xlink:href="#DejaVuSans-6f"/>
     <use x="1085.400391" xlink:href="#DejaVuSans-6e"/>
     <use x="1148.779297" xlink:href="#DejaVuSans-73"/>
     <use x="1200.878906" xlink:href="#DejaVuSans-2c"/>
     <use x="1232.666016" xlink:href="#DejaVuSans-20"/>
     <use x="1264.453125" xlink:href="#DejaVuSans-33"/>
     <use x="1328.076172" xlink:href="#DejaVuSans-2d"/>
     <use x="1364.160156" xlink:href="#DejaVuSans-44"/>
    </g>
    <!-- 51 targets: 100..1e-08 -->
    <defs>
     <path d="M 10.796875 72.90625 
L 49.515625 72.90625 
L 49.515625 64.59375 
L 19.828125 64.59375 
L 19.828125 46.734375 
Q 21.96875 47.46875 24.109375 47.828125 
Q 26.265625 48.1875 28.421875 48.1875 
Q 40.625 48.1875 47.75 41.5 
Q 54.890625 34.8125 54.890625 23.390625 
Q 54.890625 11.625 47.5625 5.09375 
Q 40.234375 -1.421875 26.90625 -1.421875 
Q 22.3125 -1.421875 17.546875 -0.640625 
Q 12.796875 0.140625 7.71875 1.703125 
L 7.71875 11.625 
Q 12.109375 9.234375 16.796875 8.0625 
Q 21.484375 6.890625 26.703125 6.890625 
Q 35.15625 6.890625 40.078125 11.328125 
Q 45.015625 15.765625 45.015625 23.390625 
Q 45.015625 31 40.078125 35.4375 
Q 35.15625 39.890625 26.703125 39.890625 
Q 22.75 39.890625 18.8125 39.015625 
Q 14.890625 38.140625 10.796875 36.28125 
z
" id="DejaVuSans-35"/>
     <path d="M 11.71875 12.40625 
L 22.015625 12.40625 
L 22.015625 0 
L 11.71875 0 
z
M 11.71875 51.703125 
L 22.015625 51.703125 
L 22.015625 39.3125 
L 11.71875 39.3125 
z
" id="DejaVuSans-3a"/>
    </defs>
    <g transform="translate(59.55864 40.319519)scale(0.102 -0.102)">
     <use xlink:href="#DejaVuSans-35"/>
     <use x="63.623047" xlink:href="#DejaVuSans-31"/>
     <use x="127.246094" xlink:href="#DejaVuSans-20"/>
     <use x="159.033203" xlink:href="#DejaVuSans-74"/>
     <use x="198.242188" xlink:href="#DejaVuSans-61"/>
     <use x="259.521484" xlink:href="#DejaVuSans-72"/>
     <use x="300.619141" xlink:href="#DejaVuSans-67"/>
     <use x="364.095703" xlink:href="#DejaVuSans-65"/>
     <use x="425.619141" xlink:href="#DejaVuSans-74"/>
     <use x="464.828125" xlink:href="#DejaVuSans-73"/>
     <use x="516.927734" xlink:href="#DejaVuSans-3a"/>
     <use x="550.619141" xlink:href="#DejaVuSans-20"/>
     <use x="582.40625" xlink:href="#DejaVuSans-31"/>
     <use x="646.029297" xlink:href="#DejaVuSans-30"/>
     <use x="709.652344" xlink:href="#DejaVuSans-30"/>
     <use x="773.275391" xlink:href="#DejaVuSans-2e"/>
     <use x="805.0625" xlink:href="#DejaVuSans-2e"/>
     <use x="836.849609" xlink:href="#DejaVuSans-31"/>
     <use x="900.472656" xlink:href="#DejaVuSans-65"/>
     <use x="961.996094" xlink:href="#DejaVuSans-2d"/>
     <use x="998.080078" xlink:href="#DejaVuSans-30"/>
     <use x="1061.703125" xlink:href="#DejaVuSans-38"/>
    </g>
    <!-- 15 instances -->
    <g transform="translate(59.55864 51.741288)scale(0.102 -0.102)">
     <use xlink:href="#DejaVuSans-31"/>
     <use x="63.623047" xlink:href="#DejaVuSans-35"/>
     <use x="127.246094" xlink:href="#DejaVuSans-20"/>
     <use x="159.033203" xlink:href="#DejaVuSans-69"/>
     <use x="186.816406" xlink:href="#DejaVuSans-6e"/>
     <use x="250.195312" xlink:href="#DejaVuSans-73"/>
     <use x="302.294922" xlink:href="#DejaVuSans-74"/>
     <use x="341.503906" xlink:href="#DejaVuSans-61"/>
     <use x="402.783203" xlink:href="#DejaVuSans-6e"/>
     <use x="466.162109" xlink:href="#DejaVuSans-63"/>
     <use x="521.142578" xlink:href="#DejaVuSans-65"/>
     <use x="582.666016" xlink:href="#DejaVuSans-73"/>
    </g>
   </g>
   <g id="text_20">
    <!-- v0.0.0 -->
    <g style="fill:#808080;" transform="translate(212.37075 289.919965)scale(0.1 -0.1)">
     <use xlink:href="#DejaVuSans-76"/>
     <use x="59.179688" xlink:href="#DejaVuSans-30"/>
     <use x="122.802734" xlink:href="#DejaVuSans-2e"/>
     <use x="154.589844" xlink:href="#DejaVuSans-30"/>
     <use x="218.212891" xlink:href="#DejaVuSans-2e"/>
     <use x="250" xlink:href="#DejaVuSans-30"/>
    </g>
   </g>
  </g>
 </g>
 <defs>
  <clipPath id="p785873a42e">
   <rect height="288.034772" width="343.864" x="56.12" y="6.845228"/>
  </clipPath>
 </defs>
</svg>
