<?xml version="1.0" encoding="utf-8" standalone="no"?>
<!DOCTYPE svg PUBLIC "-//W3C//DTD SVG 1.1//EN"
  "http://www.w3.org/Graphics/SVG/1.1/DTD/svg11.dtd">
<!-- Created with matplotlib (http://matplotlib.org/) -->
<svg height="345.6pt" version="1.1" viewBox="0 0 460.8 345.6" width="460.8pt" xmlns="http://www.w3.org/2000/svg" xmlns:xlink="http://www.w3.org/1999/xlink">
 <defs>
  <style type="text/css">
*{stroke-linecap:butt;stroke-linejoin:round;}
  </style>
 </defs>
 <g id="figure_1">
  <g id="patch_1">
   <path d="M 0 345.6 
L 460.8 345.6 
L 460.8 0 
L 0 0 
z
" style="fill:#ffffff;"/>
  </g>
  <g id="axes_1">
   <g id="patch_2">
    <path d="M 56.12 294.88 
L 399.984 294.88 
L 399.984 6.845228 
L 56.12 6.845228 
z
" style="fill:#ffffff;"/>
   </g>
   <g id="matplotlib.axis_1">
    <g id="xtick_1">
     <g id="line2d_1">
      <path clip-path="url(#p3186324cdf)" d="M 56.12 294.88 
L 56.12 6.845228 
" style="fill:none;stroke:#b0b0b0;stroke-linecap:square;stroke-width:0.8;"/>
     </g>
     <g id="line2d_2">
      <defs>
       <path d="M 0 0 
L 0 3.5 
" id="m652fb08944" style="stroke:#000000;stroke-width:0.8;"/>
      </defs>
      <g>
       <use style="stroke:#000000;stroke-width:0.8;" x="56.12" xlink:href="#m652fb08944" y="294.88"/>
      </g>
     </g>
     <g id="text_1">
      <!-- 0 -->
      <defs>
       <path d="M 31.78125 66.40625 
Q 24.171875 66.40625 20.328125 58.90625 
Q 16.5 51.421875 16.5 36.375 
Q 16.5 21.390625 20.328125 13.890625 
Q 24.171875 6.390625 31.78125 6.390625 
Q 39.453125 6.390625 43.28125 13.890625 
Q 47.125 21.390625 47.125 36.375 
Q 47.125 51.421875 43.28125 58.90625 
Q 39.453125 66.40625 31.78125 66.40625 
z
M 31.78125 74.21875 
Q 44.046875 74.21875 50.515625 64.515625 
Q 56.984375 54.828125 56.984375 36.375 
Q 56.984375 17.96875 50.515625 8.265625 
Q 44.046875 -1.421875 31.78125 -1.421875 
Q 19.53125 -1.421875 13.0625 8.265625 
Q 6.59375 17.96875 6.59375 36.375 
Q 6.59375 54.828125 13.0625 64.515625 
Q 19.53125 74.21875 31.78125 74.21875 
z
" id="DejaVuSans-30"/>
      </defs>
      <g transform="translate(49.7575 317.076875)scale(0.2 -0.2)">
       <use xlink:href="#DejaVuSans-30"/>
      </g>
     </g>
    </g>
    <g id="xtick_2">
     <g id="line2d_3">
      <path clip-path="url(#p3186324cdf)" d="M 135.351336 294.88 
L 135.351336 6.845228 
" style="fill:none;stroke:#b0b0b0;stroke-linecap:square;stroke-width:0.8;"/>
     </g>
     <g id="line2d_4">
      <g>
       <use style="stroke:#000000;stroke-width:0.8;" x="135.351336" xlink:href="#m652fb08944" y="294.88"/>
      </g>
     </g>
     <g id="text_2">
      <!-- 2 -->
      <defs>
       <path d="M 19.1875 8.296875 
L 53.609375 8.296875 
L 53.609375 0 
L 7.328125 0 
L 7.328125 8.296875 
Q 12.9375 14.109375 22.625 23.890625 
Q 32.328125 33.6875 34.8125 36.53125 
Q 39.546875 41.84375 41.421875 45.53125 
Q 43.3125 49.21875 43.3125 52.78125 
Q 43.3125 58.59375 39.234375 62.25 
Q 35.15625 65.921875 28.609375 65.921875 
Q 23.96875 65.921875 18.8125 64.3125 
Q 13.671875 62.703125 7.8125 59.421875 
L 7.8125 69.390625 
Q 13.765625 71.78125 18.9375 73 
Q 24.125 74.21875 28.421875 74.21875 
Q 39.75 74.21875 46.484375 68.546875 
Q 53.21875 62.890625 53.21875 53.421875 
Q 53.21875 48.921875 51.53125 44.890625 
Q 49.859375 40.875 45.40625 35.40625 
Q 44.1875 33.984375 37.640625 27.21875 
Q 31.109375 20.453125 19.1875 8.296875 
z
" id="DejaVuSans-32"/>
      </defs>
      <g transform="translate(128.988836 317.076875)scale(0.2 -0.2)">
       <use xlink:href="#DejaVuSans-32"/>
      </g>
     </g>
    </g>
    <g id="xtick_3">
     <g id="line2d_5">
      <path clip-path="url(#p3186324cdf)" d="M 214.582673 294.88 
L 214.582673 6.845228 
" style="fill:none;stroke:#b0b0b0;stroke-linecap:square;stroke-width:0.8;"/>
     </g>
     <g id="line2d_6">
      <g>
       <use style="stroke:#000000;stroke-width:0.8;" x="214.582673" xlink:href="#m652fb08944" y="294.88"/>
      </g>
     </g>
     <g id="text_3">
      <!-- 4 -->
      <defs>
       <path d="M 37.796875 64.3125 
L 12.890625 25.390625 
L 37.796875 25.390625 
z
M 35.203125 72.90625 
L 47.609375 72.90625 
L 47.609375 25.390625 
L 58.015625 25.390625 
L 58.015625 17.1875 
L 47.609375 17.1875 
L 47.609375 0 
L 37.796875 0 
L 37.796875 17.1875 
L 4.890625 17.1875 
L 4.890625 26.703125 
z
" id="DejaVuSans-34"/>
      </defs>
      <g transform="translate(208.220173 317.076875)scale(0.2 -0.2)">
       <use xlink:href="#DejaVuSans-34"/>
      </g>
     </g>
    </g>
    <g id="xtick_4">
     <g id="line2d_7">
      <path clip-path="url(#p3186324cdf)" d="M 293.814009 294.88 
L 293.814009 6.845228 
" style="fill:none;stroke:#b0b0b0;stroke-linecap:square;stroke-width:0.8;"/>
     </g>
     <g id="line2d_8">
      <g>
       <use style="stroke:#000000;stroke-width:0.8;" x="293.814009" xlink:href="#m652fb08944" y="294.88"/>
      </g>
     </g>
     <g id="text_4">
      <!-- 6 -->
      <defs>
       <path d="M 33.015625 40.375 
Q 26.375 40.375 22.484375 35.828125 
Q 18.609375 31.296875 18.609375 23.390625 
Q 18.609375 15.53125 22.484375 10.953125 
Q 26.375 6.390625 33.015625 6.390625 
Q 39.65625 6.390625 43.53125 10.953125 
Q 47.40625 15.53125 47.40625 23.390625 
Q 47.40625 31.296875 43.53125 35.828125 
Q 39.65625 40.375 33.015625 40.375 
z
M 52.59375 71.296875 
L 52.59375 62.3125 
Q 48.875 64.0625 45.09375 64.984375 
Q 41.3125 65.921875 37.59375 65.921875 
Q 27.828125 65.921875 22.671875 59.328125 
Q 17.53125 52.734375 16.796875 39.40625 
Q 19.671875 43.65625 24.015625 45.921875 
Q 28.375 48.1875 33.59375 48.1875 
Q 44.578125 48.1875 50.953125 41.515625 
Q 57.328125 34.859375 57.328125 23.390625 
Q 57.328125 12.15625 50.6875 5.359375 
Q 44.046875 -1.421875 33.015625 -1.421875 
Q 20.359375 -1.421875 13.671875 8.265625 
Q 6.984375 17.96875 6.984375 36.375 
Q 6.984375 53.65625 15.1875 63.9375 
Q 23.390625 74.21875 37.203125 74.21875 
Q 40.921875 74.21875 44.703125 73.484375 
Q 48.484375 72.75 52.59375 71.296875 
z
" id="DejaVuSans-36"/>
      </defs>
      <g transform="translate(287.451509 317.076875)scale(0.2 -0.2)">
       <use xlink:href="#DejaVuSans-36"/>
      </g>
     </g>
    </g>
    <g id="xtick_5">
     <g id="line2d_9">
      <path clip-path="url(#p3186324cdf)" d="M 373.045346 294.88 
L 373.045346 6.845228 
" style="fill:none;stroke:#b0b0b0;stroke-linecap:square;stroke-width:0.8;"/>
     </g>
     <g id="line2d_10">
      <g>
       <use style="stroke:#000000;stroke-width:0.8;" x="373.045346" xlink:href="#m652fb08944" y="294.88"/>
      </g>
     </g>
     <g id="text_5">
      <!-- 8 -->
      <defs>
       <path d="M 31.78125 34.625 
Q 24.75 34.625 20.71875 30.859375 
Q 16.703125 27.09375 16.703125 20.515625 
Q 16.703125 13.921875 20.71875 10.15625 
Q 24.75 6.390625 31.78125 6.390625 
Q 38.8125 6.390625 42.859375 10.171875 
Q 46.921875 13.96875 46.921875 20.515625 
Q 46.921875 27.09375 42.890625 30.859375 
Q 38.875 34.625 31.78125 34.625 
z
M 21.921875 38.8125 
Q 15.578125 40.375 12.03125 44.71875 
Q 8.5 49.078125 8.5 55.328125 
Q 8.5 64.0625 14.71875 69.140625 
Q 20.953125 74.21875 31.78125 74.21875 
Q 42.671875 74.21875 48.875 69.140625 
Q 55.078125 64.0625 55.078125 55.328125 
Q 55.078125 49.078125 51.53125 44.71875 
Q 48 40.375 41.703125 38.8125 
Q 48.828125 37.15625 52.796875 32.3125 
Q 56.78125 27.484375 56.78125 20.515625 
Q 56.78125 9.90625 50.3125 4.234375 
Q 43.84375 -1.421875 31.78125 -1.421875 
Q 19.734375 -1.421875 13.25 4.234375 
Q 6.78125 9.90625 6.78125 20.515625 
Q 6.78125 27.484375 10.78125 32.3125 
Q 14.796875 37.15625 21.921875 38.8125 
z
M 18.3125 54.390625 
Q 18.3125 48.734375 21.84375 45.5625 
Q 25.390625 42.390625 31.78125 42.390625 
Q 38.140625 42.390625 41.71875 45.5625 
Q 45.3125 48.734375 45.3125 54.390625 
Q 45.3125 60.0625 41.71875 63.234375 
Q 38.140625 66.40625 31.78125 66.40625 
Q 25.390625 66.40625 21.84375 63.234375 
Q 18.3125 60.0625 18.3125 54.390625 
z
" id="DejaVuSans-38"/>
      </defs>
      <g transform="translate(366.682846 317.076875)scale(0.2 -0.2)">
       <use xlink:href="#DejaVuSans-38"/>
      </g>
     </g>
    </g>
    <g id="text_6">
     <!-- log10(# f-evals / dimension) -->
     <defs>
      <path d="M 9.421875 75.984375 
L 18.40625 75.984375 
L 18.40625 0 
L 9.421875 0 
z
" id="DejaVuSans-6c"/>
      <path d="M 30.609375 48.390625 
Q 23.390625 48.390625 19.1875 42.75 
Q 14.984375 37.109375 14.984375 27.296875 
Q 14.984375 17.484375 19.15625 11.84375 
Q 23.34375 6.203125 30.609375 6.203125 
Q 37.796875 6.203125 41.984375 11.859375 
Q 46.1875 17.53125 46.1875 27.296875 
Q 46.1875 37.015625 41.984375 42.703125 
Q 37.796875 48.390625 30.609375 48.390625 
z
M 30.609375 56 
Q 42.328125 56 49.015625 48.375 
Q 55.71875 40.765625 55.71875 27.296875 
Q 55.71875 13.875 49.015625 6.21875 
Q 42.328125 -1.421875 30.609375 -1.421875 
Q 18.84375 -1.421875 12.171875 6.21875 
Q 5.515625 13.875 5.515625 27.296875 
Q 5.515625 40.765625 12.171875 48.375 
Q 18.84375 56 30.609375 56 
z
" id="DejaVuSans-6f"/>
      <path d="M 45.40625 27.984375 
Q 45.40625 37.75 41.375 43.109375 
Q 37.359375 48.484375 30.078125 48.484375 
Q 22.859375 48.484375 18.828125 43.109375 
Q 14.796875 37.75 14.796875 27.984375 
Q 14.796875 18.265625 18.828125 12.890625 
Q 22.859375 7.515625 30.078125 7.515625 
Q 37.359375 7.515625 41.375 12.890625 
Q 45.40625 18.265625 45.40625 27.984375 
z
M 54.390625 6.78125 
Q 54.390625 -7.171875 48.1875 -13.984375 
Q 42 -20.796875 29.203125 -20.796875 
Q 24.46875 -20.796875 20.265625 -20.09375 
Q 16.0625 -19.390625 12.109375 -17.921875 
L 12.109375 -9.1875 
Q 16.0625 -11.328125 19.921875 -12.34375 
Q 23.78125 -13.375 27.78125 -13.375 
Q 36.625 -13.375 41.015625 -8.765625 
Q 45.40625 -4.15625 45.40625 5.171875 
L 45.40625 9.625 
Q 42.625 4.78125 38.28125 2.390625 
Q 33.9375 0 27.875 0 
Q 17.828125 0 11.671875 7.65625 
Q 5.515625 15.328125 5.515625 27.984375 
Q 5.515625 40.671875 11.671875 48.328125 
Q 17.828125 56 27.875 56 
Q 33.9375 56 38.28125 53.609375 
Q 42.625 51.21875 45.40625 46.390625 
L 45.40625 54.6875 
L 54.390625 54.6875 
z
" id="DejaVuSans-67"/>
      <path d="M 12.40625 8.296875 
L 28.515625 8.296875 
L 28.515625 63.921875 
L 10.984375 60.40625 
L 10.984375 69.390625 
L 28.421875 72.90625 
L 38.28125 72.90625 
L 38.28125 8.296875 
L 54.390625 8.296875 
L 54.390625 0 
L 12.40625 0 
z
" id="DejaVuSans-31"/>
      <path d="M 31 75.875 
Q 24.46875 64.65625 21.28125 53.65625 
Q 18.109375 42.671875 18.109375 31.390625 
Q 18.109375 20.125 21.3125 9.0625 
Q 24.515625 -2 31 -13.1875 
L 23.1875 -13.1875 
Q 15.875 -1.703125 12.234375 9.375 
Q 8.59375 20.453125 8.59375 31.390625 
Q 8.59375 42.28125 12.203125 53.3125 
Q 15.828125 64.359375 23.1875 75.875 
z
" id="DejaVuSans-28"/>
      <path d="M 51.125 44 
L 36.921875 44 
L 32.8125 27.6875 
L 47.125 27.6875 
z
M 43.796875 71.78125 
L 38.71875 51.515625 
L 52.984375 51.515625 
L 58.109375 71.78125 
L 65.921875 71.78125 
L 60.890625 51.515625 
L 76.125 51.515625 
L 76.125 44 
L 58.984375 44 
L 54.984375 27.6875 
L 70.515625 27.6875 
L 70.515625 20.21875 
L 53.078125 20.21875 
L 48 0 
L 40.1875 0 
L 45.21875 20.21875 
L 30.90625 20.21875 
L 25.875 0 
L 18.015625 0 
L 23.09375 20.21875 
L 7.71875 20.21875 
L 7.71875 27.6875 
L 24.90625 27.6875 
L 29 44 
L 13.28125 44 
L 13.28125 51.515625 
L 30.90625 51.515625 
L 35.890625 71.78125 
z
" id="DejaVuSans-23"/>
      <path id="DejaVuSans-20"/>
      <path d="M 37.109375 75.984375 
L 37.109375 68.5 
L 28.515625 68.5 
Q 23.6875 68.5 21.796875 66.546875 
Q 19.921875 64.59375 19.921875 59.515625 
L 19.921875 54.6875 
L 34.71875 54.6875 
L 34.71875 47.703125 
L 19.921875 47.703125 
L 19.921875 0 
L 10.890625 0 
L 10.890625 47.703125 
L 2.296875 47.703125 
L 2.296875 54.6875 
L 10.890625 54.6875 
L 10.890625 58.5 
Q 10.890625 67.625 15.140625 71.796875 
Q 19.390625 75.984375 28.609375 75.984375 
z
" id="DejaVuSans-66"/>
      <path d="M 4.890625 31.390625 
L 31.203125 31.390625 
L 31.203125 23.390625 
L 4.890625 23.390625 
z
" id="DejaVuSans-2d"/>
      <path d="M 56.203125 29.59375 
L 56.203125 25.203125 
L 14.890625 25.203125 
Q 15.484375 15.921875 20.484375 11.0625 
Q 25.484375 6.203125 34.421875 6.203125 
Q 39.59375 6.203125 44.453125 7.46875 
Q 49.3125 8.734375 54.109375 11.28125 
L 54.109375 2.78125 
Q 49.265625 0.734375 44.1875 -0.34375 
Q 39.109375 -1.421875 33.890625 -1.421875 
Q 20.796875 -1.421875 13.15625 6.1875 
Q 5.515625 13.8125 5.515625 26.8125 
Q 5.515625 40.234375 12.765625 48.109375 
Q 20.015625 56 32.328125 56 
Q 43.359375 56 49.78125 48.890625 
Q 56.203125 41.796875 56.203125 29.59375 
z
M 47.21875 32.234375 
Q 47.125 39.59375 43.09375 43.984375 
Q 39.0625 48.390625 32.421875 48.390625 
Q 24.90625 48.390625 20.390625 44.140625 
Q 15.875 39.890625 15.1875 32.171875 
z
" id="DejaVuSans-65"/>
      <path d="M 2.984375 54.6875 
L 12.5 54.6875 
L 29.59375 8.796875 
L 46.6875 54.6875 
L 56.203125 54.6875 
L 35.6875 0 
L 23.484375 0 
z
" id="DejaVuSans-76"/>
      <path d="M 34.28125 27.484375 
Q 23.390625 27.484375 19.1875 25 
Q 14.984375 22.515625 14.984375 16.5 
Q 14.984375 11.71875 18.140625 8.90625 
Q 21.296875 6.109375 26.703125 6.109375 
Q 34.1875 6.109375 38.703125 11.40625 
Q 43.21875 16.703125 43.21875 25.484375 
L 43.21875 27.484375 
z
M 52.203125 31.203125 
L 52.203125 0 
L 43.21875 0 
L 43.21875 8.296875 
Q 40.140625 3.328125 35.546875 0.953125 
Q 30.953125 -1.421875 24.3125 -1.421875 
Q 15.921875 -1.421875 10.953125 3.296875 
Q 6 8.015625 6 15.921875 
Q 6 25.140625 12.171875 29.828125 
Q 18.359375 34.515625 30.609375 34.515625 
L 43.21875 34.515625 
L 43.21875 35.40625 
Q 43.21875 41.609375 39.140625 45 
Q 35.0625 48.390625 27.6875 48.390625 
Q 23 48.390625 18.546875 47.265625 
Q 14.109375 46.140625 10.015625 43.890625 
L 10.015625 52.203125 
Q 14.9375 54.109375 19.578125 55.046875 
Q 24.21875 56 28.609375 56 
Q 40.484375 56 46.34375 49.84375 
Q 52.203125 43.703125 52.203125 31.203125 
z
" id="DejaVuSans-61"/>
      <path d="M 44.28125 53.078125 
L 44.28125 44.578125 
Q 40.484375 46.53125 36.375 47.5 
Q 32.28125 48.484375 27.875 48.484375 
Q 21.1875 48.484375 17.84375 46.4375 
Q 14.5 44.390625 14.5 40.28125 
Q 14.5 37.15625 16.890625 35.375 
Q 19.28125 33.59375 26.515625 31.984375 
L 29.59375 31.296875 
Q 39.15625 29.25 43.1875 25.515625 
Q 47.21875 21.78125 47.21875 15.09375 
Q 47.21875 7.46875 41.1875 3.015625 
Q 35.15625 -1.421875 24.609375 -1.421875 
Q 20.21875 -1.421875 15.453125 -0.5625 
Q 10.6875 0.296875 5.421875 2 
L 5.421875 11.28125 
Q 10.40625 8.6875 15.234375 7.390625 
Q 20.0625 6.109375 24.8125 6.109375 
Q 31.15625 6.109375 34.5625 8.28125 
Q 37.984375 10.453125 37.984375 14.40625 
Q 37.984375 18.0625 35.515625 20.015625 
Q 33.0625 21.96875 24.703125 23.78125 
L 21.578125 24.515625 
Q 13.234375 26.265625 9.515625 29.90625 
Q 5.8125 33.546875 5.8125 39.890625 
Q 5.8125 47.609375 11.28125 51.796875 
Q 16.75 56 26.8125 56 
Q 31.78125 56 36.171875 55.265625 
Q 40.578125 54.546875 44.28125 53.078125 
z
" id="DejaVuSans-73"/>
      <path d="M 25.390625 72.90625 
L 33.6875 72.90625 
L 8.296875 -9.28125 
L 0 -9.28125 
z
" id="DejaVuSans-2f"/>
      <path d="M 45.40625 46.390625 
L 45.40625 75.984375 
L 54.390625 75.984375 
L 54.390625 0 
L 45.40625 0 
L 45.40625 8.203125 
Q 42.578125 3.328125 38.25 0.953125 
Q 33.9375 -1.421875 27.875 -1.421875 
Q 17.96875 -1.421875 11.734375 6.484375 
Q 5.515625 14.40625 5.515625 27.296875 
Q 5.515625 40.1875 11.734375 48.09375 
Q 17.96875 56 27.875 56 
Q 33.9375 56 38.25 53.625 
Q 42.578125 51.265625 45.40625 46.390625 
z
M 14.796875 27.296875 
Q 14.796875 17.390625 18.875 11.75 
Q 22.953125 6.109375 30.078125 6.109375 
Q 37.203125 6.109375 41.296875 11.75 
Q 45.40625 17.390625 45.40625 27.296875 
Q 45.40625 37.203125 41.296875 42.84375 
Q 37.203125 48.484375 30.078125 48.484375 
Q 22.953125 48.484375 18.875 42.84375 
Q 14.796875 37.203125 14.796875 27.296875 
z
" id="DejaVuSans-64"/>
      <path d="M 9.421875 54.6875 
L 18.40625 54.6875 
L 18.40625 0 
L 9.421875 0 
z
M 9.421875 75.984375 
L 18.40625 75.984375 
L 18.40625 64.59375 
L 9.421875 64.59375 
z
" id="DejaVuSans-69"/>
      <path d="M 52 44.1875 
Q 55.375 50.25 60.0625 53.125 
Q 64.75 56 71.09375 56 
Q 79.640625 56 84.28125 50.015625 
Q 88.921875 44.046875 88.921875 33.015625 
L 88.921875 0 
L 79.890625 0 
L 79.890625 32.71875 
Q 79.890625 40.578125 77.09375 44.375 
Q 74.3125 48.1875 68.609375 48.1875 
Q 61.625 48.1875 57.5625 43.546875 
Q 53.515625 38.921875 53.515625 30.90625 
L 53.515625 0 
L 44.484375 0 
L 44.484375 32.71875 
Q 44.484375 40.625 41.703125 44.40625 
Q 38.921875 48.1875 33.109375 48.1875 
Q 26.21875 48.1875 22.15625 43.53125 
Q 18.109375 38.875 18.109375 30.90625 
L 18.109375 0 
L 9.078125 0 
L 9.078125 54.6875 
L 18.109375 54.6875 
L 18.109375 46.1875 
Q 21.1875 51.21875 25.484375 53.609375 
Q 29.78125 56 35.6875 56 
Q 41.65625 56 45.828125 52.96875 
Q 50 49.953125 52 44.1875 
z
" id="DejaVuSans-6d"/>
      <path d="M 54.890625 33.015625 
L 54.890625 0 
L 45.90625 0 
L 45.90625 32.71875 
Q 45.90625 40.484375 42.875 44.328125 
Q 39.84375 48.1875 33.796875 48.1875 
Q 26.515625 48.1875 22.3125 43.546875 
Q 18.109375 38.921875 18.109375 30.90625 
L 18.109375 0 
L 9.078125 0 
L 9.078125 54.6875 
L 18.109375 54.6875 
L 18.109375 46.1875 
Q 21.34375 51.125 25.703125 53.5625 
Q 30.078125 56 35.796875 56 
Q 45.21875 56 50.046875 50.171875 
Q 54.890625 44.34375 54.890625 33.015625 
z
" id="DejaVuSans-6e"/>
      <path d="M 8.015625 75.875 
L 15.828125 75.875 
Q 23.140625 64.359375 26.78125 53.3125 
Q 30.421875 42.28125 30.421875 31.390625 
Q 30.421875 20.453125 26.78125 9.375 
Q 23.140625 -1.703125 15.828125 -13.1875 
L 8.015625 -13.1875 
Q 14.5 -2 17.703125 9.0625 
Q 20.90625 20.125 20.90625 31.390625 
Q 20.90625 42.671875 17.703125 53.65625 
Q 14.5 64.65625 8.015625 75.875 
z
" id="DejaVuSans-29"/>
     </defs>
     <g transform="translate(107.211219 338.153594)scale(0.17 -0.17)">
      <use xlink:href="#DejaVuSans-6c"/>
      <use x="27.783203" xlink:href="#DejaVuSans-6f"/>
      <use x="88.964844" xlink:href="#DejaVuSans-67"/>
      <use x="152.441406" xlink:href="#DejaVuSans-31"/>
      <use x="216.064453" xlink:href="#DejaVuSans-30"/>
      <use x="279.6875" xlink:href="#DejaVuSans-28"/>
      <use x="318.701172" xlink:href="#DejaVuSans-23"/>
      <use x="402.490234" xlink:href="#DejaVuSans-20"/>
      <use x="434.277344" xlink:href="#DejaVuSans-66"/>
      <use x="469.404297" xlink:href="#DejaVuSans-2d"/>
      <use x="505.488281" xlink:href="#DejaVuSans-65"/>
      <use x="567.011719" xlink:href="#DejaVuSans-76"/>
      <use x="626.191406" xlink:href="#DejaVuSans-61"/>
      <use x="687.470703" xlink:href="#DejaVuSans-6c"/>
      <use x="715.253906" xlink:href="#DejaVuSans-73"/>
      <use x="767.353516" xlink:href="#DejaVuSans-20"/>
      <use x="799.140625" xlink:href="#DejaVuSans-2f"/>
      <use x="832.832031" xlink:href="#DejaVuSans-20"/>
      <use x="864.619141" xlink:href="#DejaVuSans-64"/>
      <use x="928.095703" xlink:href="#DejaVuSans-69"/>
      <use x="955.878906" xlink:href="#DejaVuSans-6d"/>
      <use x="1053.291016" xlink:href="#DejaVuSans-65"/>
      <use x="1114.814453" xlink:href="#DejaVuSans-6e"/>
      <use x="1178.193359" xlink:href="#DejaVuSans-73"/>
      <use x="1230.292969" xlink:href="#DejaVuSans-69"/>
      <use x="1258.076172" xlink:href="#DejaVuSans-6f"/>
      <use x="1319.257812" xlink:href="#DejaVuSans-6e"/>
      <use x="1382.636719" xlink:href="#DejaVuSans-29"/>
     </g>
    </g>
   </g>
   <g id="matplotlib.axis_2">
    <g id="ytick_1">
     <g id="line2d_11">
      <path clip-path="url(#p3186324cdf)" d="M 56.12 294.88 
L 399.984 294.88 
" style="fill:none;stroke:#b0b0b0;stroke-linecap:square;stroke-width:0.8;"/>
     </g>
     <g id="line2d_12">
      <defs>
       <path d="M 0 0 
L -3.5 0 
" id="m6f824106f8" style="stroke:#000000;stroke-width:0.8;"/>
      </defs>
      <g>
       <use style="stroke:#000000;stroke-width:0.8;" x="56.12" xlink:href="#m6f824106f8" y="294.88"/>
      </g>
     </g>
     <g id="text_7">
      <!-- 0.0 -->
      <defs>
       <path d="M 10.6875 12.40625 
L 21 12.40625 
L 21 0 
L 10.6875 0 
z
" id="DejaVuSans-2e"/>
      </defs>
      <g transform="translate(23.675 300.95875)scale(0.16 -0.16)">
       <use xlink:href="#DejaVuSans-30"/>
       <use x="63.623047" xlink:href="#DejaVuSans-2e"/>
       <use x="95.410156" xlink:href="#DejaVuSans-30"/>
      </g>
     </g>
    </g>
    <g id="ytick_2">
     <g id="line2d_13">
      <path clip-path="url(#p3186324cdf)" d="M 56.12 237.843411 
L 399.984 237.843411 
" style="fill:none;stroke:#b0b0b0;stroke-linecap:square;stroke-width:0.8;"/>
     </g>
     <g id="line2d_14">
      <g>
       <use style="stroke:#000000;stroke-width:0.8;" x="56.12" xlink:href="#m6f824106f8" y="237.843411"/>
      </g>
     </g>
     <g id="text_8">
      <!-- 0.2 -->
      <g transform="translate(23.675 243.922161)scale(0.16 -0.16)">
       <use xlink:href="#DejaVuSans-30"/>
       <use x="63.623047" xlink:href="#DejaVuSans-2e"/>
       <use x="95.410156" xlink:href="#DejaVuSans-32"/>
      </g>
     </g>
    </g>
    <g id="ytick_3">
     <g id="line2d_15">
      <path clip-path="url(#p3186324cdf)" d="M 56.12 180.806823 
L 399.984 180.806823 
" style="fill:none;stroke:#b0b0b0;stroke-linecap:square;stroke-width:0.8;"/>
     </g>
     <g id="line2d_16">
      <g>
       <use style="stroke:#000000;stroke-width:0.8;" x="56.12" xlink:href="#m6f824106f8" y="180.806823"/>
      </g>
     </g>
     <g id="text_9">
      <!-- 0.4 -->
      <g transform="translate(23.675 186.885573)scale(0.16 -0.16)">
       <use xlink:href="#DejaVuSans-30"/>
       <use x="63.623047" xlink:href="#DejaVuSans-2e"/>
       <use x="95.410156" xlink:href="#DejaVuSans-34"/>
      </g>
     </g>
    </g>
    <g id="ytick_4">
     <g id="line2d_17">
      <path clip-path="url(#p3186324cdf)" d="M 56.12 123.770234 
L 399.984 123.770234 
" style="fill:none;stroke:#b0b0b0;stroke-linecap:square;stroke-width:0.8;"/>
     </g>
     <g id="line2d_18">
      <g>
       <use style="stroke:#000000;stroke-width:0.8;" x="56.12" xlink:href="#m6f824106f8" y="123.770234"/>
      </g>
     </g>
     <g id="text_10">
      <!-- 0.6 -->
      <g transform="translate(23.675 129.848984)scale(0.16 -0.16)">
       <use xlink:href="#DejaVuSans-30"/>
       <use x="63.623047" xlink:href="#DejaVuSans-2e"/>
       <use x="95.410156" xlink:href="#DejaVuSans-36"/>
      </g>
     </g>
    </g>
    <g id="ytick_5">
     <g id="line2d_19">
      <path clip-path="url(#p3186324cdf)" d="M 56.12 66.733646 
L 399.984 66.733646 
" style="fill:none;stroke:#b0b0b0;stroke-linecap:square;stroke-width:0.8;"/>
     </g>
     <g id="line2d_20">
      <g>
       <use style="stroke:#000000;stroke-width:0.8;" x="56.12" xlink:href="#m6f824106f8" y="66.733646"/>
      </g>
     </g>
     <g id="text_11">
      <!-- 0.8 -->
      <g transform="translate(23.675 72.812396)scale(0.16 -0.16)">
       <use xlink:href="#DejaVuSans-30"/>
       <use x="63.623047" xlink:href="#DejaVuSans-2e"/>
       <use x="95.410156" xlink:href="#DejaVuSans-38"/>
      </g>
     </g>
    </g>
    <g id="ytick_6">
     <g id="line2d_21">
      <path clip-path="url(#p3186324cdf)" d="M 56.12 9.697057 
L 399.984 9.697057 
" style="fill:none;stroke:#b0b0b0;stroke-linecap:square;stroke-width:0.8;"/>
     </g>
     <g id="line2d_22">
      <g>
       <use style="stroke:#000000;stroke-width:0.8;" x="56.12" xlink:href="#m6f824106f8" y="9.697057"/>
      </g>
     </g>
     <g id="text_12">
      <!-- 1.0 -->
      <g transform="translate(23.675 15.775807)scale(0.16 -0.16)">
       <use xlink:href="#DejaVuSans-31"/>
       <use x="63.623047" xlink:href="#DejaVuSans-2e"/>
       <use x="95.410156" xlink:href="#DejaVuSans-30"/>
      </g>
     </g>
    </g>
    <g id="text_13">
     <!-- Fraction of function,target pairs -->
     <defs>
      <path d="M 9.8125 72.90625 
L 51.703125 72.90625 
L 51.703125 64.59375 
L 19.671875 64.59375 
L 19.671875 43.109375 
L 48.578125 43.109375 
L 48.578125 34.8125 
L 19.671875 34.8125 
L 19.671875 0 
L 9.8125 0 
z
" id="DejaVuSans-46"/>
      <path d="M 41.109375 46.296875 
Q 39.59375 47.171875 37.8125 47.578125 
Q 36.03125 48 33.890625 48 
Q 26.265625 48 22.1875 43.046875 
Q 18.109375 38.09375 18.109375 28.8125 
L 18.109375 0 
L 9.078125 0 
L 9.078125 54.6875 
L 18.109375 54.6875 
L 18.109375 46.1875 
Q 20.953125 51.171875 25.484375 53.578125 
Q 30.03125 56 36.53125 56 
Q 37.453125 56 38.578125 55.875 
Q 39.703125 55.765625 41.0625 55.515625 
z
" id="DejaVuSans-72"/>
      <path d="M 48.78125 52.59375 
L 48.78125 44.1875 
Q 44.96875 46.296875 41.140625 47.34375 
Q 37.3125 48.390625 33.40625 48.390625 
Q 24.65625 48.390625 19.8125 42.84375 
Q 14.984375 37.3125 14.984375 27.296875 
Q 14.984375 17.28125 19.8125 11.734375 
Q 24.65625 6.203125 33.40625 6.203125 
Q 37.3125 6.203125 41.140625 7.25 
Q 44.96875 8.296875 48.78125 10.40625 
L 48.78125 2.09375 
Q 45.015625 0.34375 40.984375 -0.53125 
Q 36.96875 -1.421875 32.421875 -1.421875 
Q 20.0625 -1.421875 12.78125 6.34375 
Q 5.515625 14.109375 5.515625 27.296875 
Q 5.515625 40.671875 12.859375 48.328125 
Q 20.21875 56 33.015625 56 
Q 37.15625 56 41.109375 55.140625 
Q 45.0625 54.296875 48.78125 52.59375 
z
" id="DejaVuSans-63"/>
      <path d="M 18.3125 70.21875 
L 18.3125 54.6875 
L 36.8125 54.6875 
L 36.8125 47.703125 
L 18.3125 47.703125 
L 18.3125 18.015625 
Q 18.3125 11.328125 20.140625 9.421875 
Q 21.96875 7.515625 27.59375 7.515625 
L 36.8125 7.515625 
L 36.8125 0 
L 27.59375 0 
Q 17.1875 0 13.234375 3.875 
Q 9.28125 7.765625 9.28125 18.015625 
L 9.28125 47.703125 
L 2.6875 47.703125 
L 2.6875 54.6875 
L 9.28125 54.6875 
L 9.28125 70.21875 
z
" id="DejaVuSans-74"/>
      <path d="M 8.5 21.578125 
L 8.5 54.6875 
L 17.484375 54.6875 
L 17.484375 21.921875 
Q 17.484375 14.15625 20.5 10.265625 
Q 23.53125 6.390625 29.59375 6.390625 
Q 36.859375 6.390625 41.078125 11.03125 
Q 45.3125 15.671875 45.3125 23.6875 
L 45.3125 54.6875 
L 54.296875 54.6875 
L 54.296875 0 
L 45.3125 0 
L 45.3125 8.40625 
Q 42.046875 3.421875 37.71875 1 
Q 33.40625 -1.421875 27.6875 -1.421875 
Q 18.265625 -1.421875 13.375 4.4375 
Q 8.5 10.296875 8.5 21.578125 
z
M 31.109375 56 
z
" id="DejaVuSans-75"/>
      <path d="M 11.71875 12.40625 
L 22.015625 12.40625 
L 22.015625 4 
L 14.015625 -11.625 
L 7.71875 -11.625 
L 11.71875 4 
z
" id="DejaVuSans-2c"/>
      <path d="M 18.109375 8.203125 
L 18.109375 -20.796875 
L 9.078125 -20.796875 
L 9.078125 54.6875 
L 18.109375 54.6875 
L 18.109375 46.390625 
Q 20.953125 51.265625 25.265625 53.625 
Q 29.59375 56 35.59375 56 
Q 45.5625 56 51.78125 48.09375 
Q 58.015625 40.1875 58.015625 27.296875 
Q 58.015625 14.40625 51.78125 6.484375 
Q 45.5625 -1.421875 35.59375 -1.421875 
Q 29.59375 -1.421875 25.265625 0.953125 
Q 20.953125 3.328125 18.109375 8.203125 
z
M 48.6875 27.296875 
Q 48.6875 37.203125 44.609375 42.84375 
Q 40.53125 48.484375 33.40625 48.484375 
Q 26.265625 48.484375 22.1875 42.84375 
Q 18.109375 37.203125 18.109375 27.296875 
Q 18.109375 17.390625 22.1875 11.75 
Q 26.265625 6.109375 33.40625 6.109375 
Q 40.53125 6.109375 44.609375 11.75 
Q 48.6875 17.390625 48.6875 27.296875 
z
" id="DejaVuSans-70"/>
     </defs>
     <g transform="translate(16.139531 286.001989)rotate(-90)scale(0.17 -0.17)">
      <use xlink:href="#DejaVuSans-46"/>
      <use x="57.410156" xlink:href="#DejaVuSans-72"/>
      <use x="98.523438" xlink:href="#DejaVuSans-61"/>
      <use x="159.802734" xlink:href="#DejaVuSans-63"/>
      <use x="214.783203" xlink:href="#DejaVuSans-74"/>
      <use x="253.992188" xlink:href="#DejaVuSans-69"/>
      <use x="281.775391" xlink:href="#DejaVuSans-6f"/>
      <use x="342.957031" xlink:href="#DejaVuSans-6e"/>
      <use x="406.335938" xlink:href="#DejaVuSans-20"/>
      <use x="438.123047" xlink:href="#DejaVuSans-6f"/>
      <use x="499.304688" xlink:href="#DejaVuSans-66"/>
      <use x="534.509766" xlink:href="#DejaVuSans-20"/>
      <use x="566.296875" xlink:href="#DejaVuSans-66"/>
      <use x="601.501953" xlink:href="#DejaVuSans-75"/>
      <use x="664.880859" xlink:href="#DejaVuSans-6e"/>
      <use x="728.259766" xlink:href="#DejaVuSans-63"/>
      <use x="783.240234" xlink:href="#DejaVuSans-74"/>
      <use x="822.449219" xlink:href="#DejaVuSans-69"/>
      <use x="850.232422" xlink:href="#DejaVuSans-6f"/>
      <use x="911.414062" xlink:href="#DejaVuSans-6e"/>
      <use x="974.792969" xlink:href="#DejaVuSans-2c"/>
      <use x="1006.580078" xlink:href="#DejaVuSans-74"/>
      <use x="1045.789062" xlink:href="#DejaVuSans-61"/>
      <use x="1107.068359" xlink:href="#DejaVuSans-72"/>
      <use x="1148.166016" xlink:href="#DejaVuSans-67"/>
      <use x="1211.642578" xlink:href="#DejaVuSans-65"/>
      <use x="1273.166016" xlink:href="#DejaVuSans-74"/>
      <use x="1312.375" xlink:href="#DejaVuSans-20"/>
      <use x="1344.162109" xlink:href="#DejaVuSans-70"/>
      <use x="1407.638672" xlink:href="#DejaVuSans-61"/>
      <use x="1468.917969" xlink:href="#DejaVuSans-69"/>
      <use x="1496.701172" xlink:href="#DejaVuSans-72"/>
      <use x="1537.814453" xlink:href="#DejaVuSans-73"/>
     </g>
    </g>
   </g>
   <g id="line2d_23">
    <defs>
     <path d="M 0 1.5 
C 0.397805 1.5 0.77937 1.341951 1.06066 1.06066 
C 1.341951 0.77937 1.5 0.397805 1.5 0 
C 1.5 -0.397805 1.341951 -0.77937 1.06066 -1.06066 
C 0.77937 -1.341951 0.397805 -1.5 0 -1.5 
C -0.397805 -1.5 -0.77937 -1.341951 -1.06066 -1.06066 
C -1.341951 -0.77937 -1.5 -0.397805 -1.5 0 
C -1.5 0.397805 -1.341951 0.77937 -1.06066 1.06066 
C -0.77937 1.341951 -0.397805 1.5 0 1.5 
z
" id="m9a0575feff" style="stroke:#000080;"/>
    </defs>
    <g>
     <use style="fill:#000080;stroke:#000080;" x="352.335715" xlink:href="#m9a0575feff" y="110.349861"/>
     <use style="fill:#000080;stroke:#000080;" x="352.335715" xlink:href="#m9a0575feff" y="110.349861"/>
    </g>
   </g>
   <g id="line2d_24">
    <path d="M 104.865056 294.88 
L 104.865056 290.965724 
L 136.834012 290.965724 
L 136.834012 290.406542 
L 138.34418 290.406542 
L 138.34418 283.696355 
L 147.190601 283.696355 
L 147.190601 282.018808 
L 150.413659 282.018808 
L 150.413659 280.900444 
L 160.000761 280.900444 
L 160.000761 279.782079 
L 160.204854 279.782079 
L 160.204854 277.545351 
L 160.802998 277.545351 
L 160.802998 275.867804 
L 161.343105 275.867804 
L 161.343105 274.190257 
L 162.588256 274.190257 
L 162.588256 273.631075 
L 163.075876 273.631075 
L 163.144421 271.953528 
L 164.898888 271.953528 
L 164.898888 271.394346 
L 165.742729 271.394346 
L 165.830733 268.598435 
L 167.045034 268.598435 
L 167.045034 267.48007 
L 167.896144 267.48007 
L 167.896144 266.920888 
L 168.632701 266.920888 
L 168.632701 265.802523 
L 169.669888 265.802523 
L 169.669888 263.565795 
L 170.017473 263.565795 
L 170.017473 263.006612 
L 171.320324 263.006612 
L 171.320324 262.44743 
L 175.871851 262.44743 
L 175.871851 261.888248 
L 177.814658 261.888248 
L 177.814658 260.769883 
L 177.959848 260.769883 
L 177.959848 259.651519 
L 179.520604 259.651519 
L 179.520604 258.533154 
L 180.694408 258.533154 
L 180.694408 257.973972 
L 183.096313 257.973972 
L 183.096313 256.855608 
L 185.089351 256.855608 
L 185.127521 253.500514 
L 186.000957 253.500514 
L 186.000957 250.145421 
L 186.562471 250.145421 
L 186.562471 249.586238 
L 187.35088 249.586238 
L 187.35088 249.027056 
L 187.658044 249.027056 
L 187.658044 248.467874 
L 188.248445 248.467874 
L 188.248445 247.908692 
L 190.250134 247.908692 
L 190.250134 247.34951 
L 193.526748 247.34951 
L 193.596805 244.553598 
L 193.764942 244.553598 
L 193.764942 243.435234 
L 194.332436 243.435234 
L 194.332436 242.876052 
L 194.631274 242.876052 
L 194.631274 241.198505 
L 197.776319 241.198505 
L 197.776319 240.639323 
L 198.72745 240.639323 
L 198.72745 240.08014 
L 199.288944 240.08014 
L 199.288944 239.520958 
L 201.98706 239.520958 
L 201.98706 238.961776 
L 202.186251 238.961776 
L 202.186251 237.284229 
L 205.498989 237.284229 
L 205.498989 232.810771 
L 210.577119 232.810771 
L 210.577119 231.133225 
L 281.895368 231.133225 
L 281.996094 221.627126 
L 282.017009 221.627126 
L 282.090283 214.91694 
L 282.159013 214.91694 
L 282.188626 213.239393 
L 293.814319 213.239393 
L 293.915203 198.141472 
L 293.949803 198.141472 
L 293.964733 197.023108 
L 300.805992 197.023108 
L 300.890617 180.806823 
L 305.739677 180.806823 
L 305.807553 174.655818 
L 309.588283 174.655818 
L 309.639127 167.386449 
L 312.725915 167.386449 
L 312.765886 157.880351 
L 315.379066 157.880351 
L 315.410839 152.288529 
L 317.674027 152.288529 
L 317.702836 150.610982 
L 319.700769 150.610982 
L 319.723383 145.019159 
L 321.514348 145.019159 
L 321.534437 142.223248 
L 323.153796 142.223248 
L 323.171489 137.190608 
L 324.654792 137.190608 
L 324.666218 134.953879 
L 326.031005 134.953879 
L 326.041404 130.480421 
L 327.304479 130.480421 
L 327.31476 128.243692 
L 328.498329 128.243692 
L 328.498329 127.125328 
L 330.651377 127.125328 
L 330.651377 126.566145 
L 331.622975 126.566145 
L 331.622975 126.006963 
L 332.561543 126.006963 
L 332.562321 124.329417 
L 333.429677 124.329417 
L 333.429677 124.329417 
" style="fill:none;stroke:#000080;stroke-linecap:square;stroke-width:1.5;"/>
   </g>
   <g id="line2d_25">
    <defs>
     <path d="M 0 6 
C 1.591219 6 3.117479 5.367802 4.242641 4.242641 
C 5.367802 3.117479 6 1.591219 6 0 
C 6 -1.591219 5.367802 -3.117479 4.242641 -4.242641 
C 3.117479 -5.367802 1.591219 -6 0 -6 
C -1.591219 -6 -3.117479 -5.367802 -4.242641 -4.242641 
C -5.367802 -3.117479 -6 -1.591219 -6 0 
C -6 1.591219 -5.367802 3.117479 -4.242641 4.242641 
C -3.117479 5.367802 -1.591219 6 0 6 
z
" id="mdc0e654446" style="stroke:#000080;stroke-width:1.5;"/>
    </defs>
    <g>
     <use style="fill-opacity:0;stroke:#000080;stroke-width:1.5;" x="193.764942" xlink:href="#mdc0e654446" y="244.553598"/>
     <use style="fill-opacity:0;stroke:#000080;stroke-width:1.5;" x="293.915203" xlink:href="#mdc0e654446" y="199.819019"/>
     <use style="fill-opacity:0;stroke:#000080;stroke-width:1.5;" x="319.723383" xlink:href="#mdc0e654446" y="145.019159"/>
     <use style="fill-opacity:0;stroke:#000080;stroke-width:1.5;" x="332.562321" xlink:href="#mdc0e654446" y="124.329417"/>
     <use style="fill-opacity:0;stroke:#000080;stroke-width:1.5;" x="333.429677" xlink:href="#mdc0e654446" y="124.329417"/>
    </g>
   </g>
   <g id="line2d_26">
    <path style="fill:none;stroke:#000080;stroke-linecap:square;stroke-width:1.5;"/>
    <g/>
   </g>
   <g id="line2d_27">
    <path clip-path="url(#p3186324cdf)" d="M 281.888522 231.133225 
" style="fill:none;stroke:#000080;stroke-linecap:square;stroke-width:1.5;"/>
    <defs>
     <path d="M -12 12 
L 12 -12 
M -12 -12 
L 12 12 
" id="m45681aec1e" style="stroke:#000080;stroke-width:3;"/>
    </defs>
    <g clip-path="url(#p3186324cdf)">
     <use style="fill:#000080;stroke:#000080;stroke-width:3;" x="281.888522" xlink:href="#m45681aec1e" y="231.133225"/>
    </g>
   </g>
   <g id="line2d_28">
    <defs>
     <path d="M 0 1.5 
C 0.397805 1.5 0.77937 1.341951 1.06066 1.06066 
C 1.341951 0.77937 1.5 0.397805 1.5 0 
C 1.5 -0.397805 1.341951 -0.77937 1.06066 -1.06066 
C 0.77937 -1.341951 0.397805 -1.5 0 -1.5 
C -0.397805 -1.5 -0.77937 -1.341951 -1.06066 -1.06066 
C -1.341951 -0.77937 -1.5 -0.397805 -1.5 0 
C -1.5 0.397805 -1.341951 0.77937 -1.06066 1.06066 
C -0.77937 1.341951 -0.397805 1.5 0 1.5 
z
" id="mc43b2edb86" style="stroke:#ff00ff;"/>
    </defs>
    <g>
     <use style="fill:#ff00ff;stroke:#ff00ff;" x="339.226324" xlink:href="#mc43b2edb86" y="177.451729"/>
     <use style="fill:#ff00ff;stroke:#ff00ff;" x="339.226324" xlink:href="#mc43b2edb86" y="177.451729"/>
    </g>
   </g>
   <g id="line2d_29">
    <path d="M 56.12 294.88 
L 56.12 293.202453 
L 75.021477 293.202453 
L 75.021477 290.406542 
L 79.971009 290.406542 
L 79.971009 289.84736 
L 83.810164 289.84736 
L 83.810164 287.610631 
L 95.735668 287.610631 
L 95.735668 283.696355 
L 98.872486 283.696355 
L 98.872486 281.459626 
L 105.848459 281.459626 
L 105.848459 278.104533 
L 106.778678 278.104533 
L 106.778678 277.545351 
L 111.500328 277.545351 
L 111.500328 276.426986 
L 112.175115 276.426986 
L 112.175115 275.867804 
L 115.747522 275.867804 
L 115.747522 275.308622 
L 118.245359 275.308622 
L 118.245359 273.631075 
L 119.586677 273.631075 
L 119.586677 272.51271 
L 123.766534 272.51271 
L 123.766534 270.835164 
L 125.680156 270.835164 
L 125.680156 269.716799 
L 126.56265 269.716799 
L 126.56265 269.157617 
L 128.967235 269.157617 
L 128.967235 268.598435 
L 134.648999 268.598435 
L 134.648999 266.920888 
L 135.859892 266.920888 
L 135.859892 266.361706 
L 137.454074 266.361706 
L 137.454074 264.684159 
L 139.052299 264.684159 
L 139.052299 262.44743 
L 141.016963 262.44743 
L 141.016963 260.210701 
L 144.174398 260.210701 
L 144.277114 255.737243 
L 144.781692 255.737243 
L 144.781692 255.178061 
L 148.759517 255.178061 
L 148.838258 254.059696 
L 149.072341 254.059696 
L 149.072341 253.500514 
L 150.051438 253.500514 
L 150.051438 252.941332 
L 152.183306 252.941332 
L 152.183306 251.822967 
L 157.293783 251.822967 
L 157.293783 251.263785 
L 157.72096 251.263785 
L 157.72096 249.586238 
L 158.985929 249.586238 
L 158.985929 249.027056 
L 159.245304 249.027056 
L 159.245304 247.34951 
L 168.83046 247.34951 
L 168.83046 246.231145 
L 169.69328 246.231145 
L 169.69328 245.112781 
L 169.809766 245.112781 
L 169.809766 243.994416 
L 175.558877 243.994416 
L 175.558877 242.876052 
L 175.953275 242.876052 
L 175.953275 241.757687 
L 176.544126 241.757687 
L 176.544126 241.198505 
L 177.91642 241.198505 
L 177.91642 240.639323 
L 180.053627 240.639323 
L 180.053627 240.08014 
L 180.358146 240.08014 
L 180.40838 237.284229 
L 181.324073 237.284229 
L 181.324073 236.725047 
L 182.826045 236.725047 
L 182.826045 236.165865 
L 183.309511 236.165865 
L 183.309511 235.0475 
L 185.184616 235.0475 
L 185.241523 229.455678 
L 186.06426 229.455678 
L 186.06426 226.659767 
L 187.616854 226.659767 
L 187.616854 226.100584 
L 189.244652 226.100584 
L 189.244652 224.423038 
L 189.50528 224.423038 
L 189.50528 223.304673 
L 189.834675 223.304673 
L 189.834675 222.745491 
L 190.007807 222.745491 
L 190.007807 221.627126 
L 190.786632 221.627126 
L 190.786632 221.067944 
L 191.233536 221.067944 
L 191.233536 219.390397 
L 191.805441 219.390397 
L 191.805441 218.272033 
L 192.779503 218.272033 
L 192.779503 217.712851 
L 193.67238 217.712851 
L 193.67238 217.153669 
L 193.788005 217.153669 
L 193.788005 216.594486 
L 195.513494 216.594486 
L 195.513494 214.91694 
L 196.092595 214.91694 
L 196.122806 213.239393 
L 197.518494 213.239393 
L 197.518494 212.680211 
L 200.825328 212.680211 
L 200.825328 212.121028 
L 206.474287 212.121028 
L 206.474287 211.561846 
L 206.630683 211.561846 
L 206.630683 210.443482 
L 281.942769 210.443482 
L 282.048844 199.819019 
L 282.086882 199.819019 
L 282.086882 199.259837 
L 293.826685 199.259837 
L 293.894991 191.990468 
L 300.822268 191.990468 
L 300.862097 189.194556 
L 305.755154 189.194556 
L 305.789336 184.721099 
L 309.611117 184.721099 
L 309.611117 184.161916 
L 312.73262 184.161916 
L 312.741263 182.48437 
L 315.388559 182.48437 
L 315.398582 180.247641 
L 317.684358 180.247641 
L 317.691863 179.129276 
L 319.715325 179.129276 
L 319.715543 178.010912 
L 333.429677 178.010912 
L 333.429677 178.010912 
" style="fill:none;stroke:#ff00ff;stroke-linecap:square;stroke-width:1.5;"/>
   </g>
   <g id="line2d_30">
    <defs>
     <path d="M -0 8.485281 
L 5.091169 0 
L 0 -8.485281 
L -5.091169 -0 
z
" id="m57fb71bcb4" style="stroke:#ff00ff;stroke-linejoin:miter;stroke-width:1.5;"/>
    </defs>
    <g>
     <use style="fill-opacity:0;stroke:#ff00ff;stroke-linejoin:miter;stroke-width:1.5;" x="106.778678" xlink:href="#m57fb71bcb4" y="278.104533"/>
     <use style="fill-opacity:0;stroke:#ff00ff;stroke-linejoin:miter;stroke-width:1.5;" x="175.558877" xlink:href="#m57fb71bcb4" y="242.876052"/>
     <use style="fill-opacity:0;stroke:#ff00ff;stroke-linejoin:miter;stroke-width:1.5;" x="206.630683" xlink:href="#m57fb71bcb4" y="210.443482"/>
     <use style="fill-opacity:0;stroke:#ff00ff;stroke-linejoin:miter;stroke-width:1.5;" x="319.715543" xlink:href="#m57fb71bcb4" y="178.010912"/>
     <use style="fill-opacity:0;stroke:#ff00ff;stroke-linejoin:miter;stroke-width:1.5;" x="333.429677" xlink:href="#m57fb71bcb4" y="178.010912"/>
    </g>
   </g>
   <g id="line2d_31">
    <path style="fill:none;stroke:#ff00ff;stroke-linecap:square;stroke-width:1.5;"/>
    <g/>
   </g>
   <g id="line2d_32">
    <path clip-path="url(#p3186324cdf)" d="M 281.888522 210.443482 
" style="fill:none;stroke:#ff00ff;stroke-linecap:square;stroke-width:1.5;"/>
    <defs>
     <path d="M -12 12 
L 12 -12 
M -12 -12 
L 12 12 
" id="m71470cb7ce" style="stroke:#ff00ff;stroke-width:3;"/>
    </defs>
    <g clip-path="url(#p3186324cdf)">
     <use style="fill:#ff00ff;stroke:#ff00ff;stroke-width:3;" x="281.888522" xlink:href="#m71470cb7ce" y="210.443482"/>
    </g>
   </g>
   <g id="line2d_33">
    <defs>
     <path d="M 0 1.5 
C 0.397805 1.5 0.77937 1.341951 1.06066 1.06066 
C 1.341951 0.77937 1.5 0.397805 1.5 0 
C 1.5 -0.397805 1.341951 -0.77937 1.06066 -1.06066 
C 0.77937 -1.341951 0.397805 -1.5 0 -1.5 
C -0.397805 -1.5 -0.77937 -1.341951 -1.06066 -1.06066 
C -1.341951 -0.77937 -1.5 -0.397805 -1.5 0 
C -1.5 0.397805 -1.341951 0.77937 -1.06066 1.06066 
C -0.77937 1.341951 -0.397805 1.5 0 1.5 
z
" id="m63befe0634" style="stroke:#ffa500;"/>
    </defs>
    <g>
     <use style="fill:#ffa500;stroke:#ffa500;" x="362.445754" xlink:href="#m63befe0634" y="115.941683"/>
     <use style="fill:#ffa500;stroke:#ffa500;" x="362.445754" xlink:href="#m63befe0634" y="115.941683"/>
    </g>
   </g>
   <g id="line2d_34">
    <path d="M 109.300972 294.88 
L 109.300972 293.761636 
L 129.699468 293.761636 
L 129.699468 293.202453 
L 134.82729 293.202453 
L 134.82729 290.965724 
L 136.190765 290.965724 
L 136.190765 289.84736 
L 144.480724 289.84736 
L 144.480724 288.728995 
L 144.880856 288.728995 
L 144.880856 285.933084 
L 149.379579 285.933084 
L 149.379579 284.81472 
L 151.922622 284.81472 
L 151.922622 284.255537 
L 153.249158 284.255537 
L 153.249158 282.577991 
L 155.201134 282.577991 
L 155.201134 281.459626 
L 156.151337 281.459626 
L 156.151337 275.867804 
L 156.304725 275.867804 
L 156.304725 273.631075 
L 159.416073 273.631075 
L 159.416073 272.51271 
L 161.418898 272.51271 
L 161.418898 271.953528 
L 164.991305 271.953528 
L 164.991305 271.394346 
L 166.406201 271.394346 
L 166.462703 269.716799 
L 168.179252 269.716799 
L 168.179252 266.920888 
L 170.222703 266.920888 
L 170.267979 263.565795 
L 171.69893 263.565795 
L 171.69893 263.006612 
L 175.575492 263.006612 
L 175.575492 260.769883 
L 175.69135 260.769883 
L 175.69135 260.210701 
L 176.018138 260.210701 
L 176.018138 259.651519 
L 176.993446 259.651519 
L 176.993446 256.296425 
L 178.888545 256.296425 
L 178.888545 255.737243 
L 180.483455 255.737243 
L 180.483455 253.500514 
L 180.878419 253.500514 
L 180.878419 252.941332 
L 181.583685 252.941332 
L 181.583685 250.704603 
L 186.055231 250.704603 
L 186.055231 249.027056 
L 186.474557 249.027056 
L 186.474557 246.790327 
L 187.165608 246.790327 
L 187.165608 244.553598 
L 190.334852 244.553598 
L 190.334852 243.994416 
L 192.943678 243.994416 
L 192.943678 239.520958 
L 197.038721 239.520958 
L 197.038721 238.961776 
L 199.023243 238.961776 
L 199.023243 238.402594 
L 201.121316 238.402594 
L 201.121316 236.165865 
L 204.671371 236.165865 
L 204.671371 234.488318 
L 206.188019 234.488318 
L 206.188019 232.251589 
L 206.377545 232.251589 
L 206.377545 231.692407 
L 281.896297 231.692407 
L 281.986072 216.594486 
L 282.027252 216.594486 
L 282.098477 212.121028 
L 293.831841 212.121028 
L 293.919324 198.141472 
L 300.800216 198.141472 
L 300.860269 188.635374 
L 305.749206 188.635374 
L 305.79226 179.129276 
L 309.586426 179.129276 
L 309.620882 172.419089 
L 312.726695 172.419089 
L 312.750675 167.945631 
L 315.374865 167.945631 
L 315.397796 159.557898 
L 317.680087 159.557898 
L 317.69142 156.761987 
L 319.697092 156.761987 
L 319.714932 153.966075 
L 321.507755 153.966075 
L 321.525301 150.610982 
L 323.158288 150.610982 
L 323.163182 148.374253 
L 324.649158 148.374253 
L 324.658603 145.578342 
L 326.02351 145.578342 
L 326.034374 141.664066 
L 327.30696 141.664066 
L 327.308232 140.545702 
L 328.49424 140.545702 
L 328.49424 139.986519 
L 329.596653 139.986519 
L 329.603737 138.308973 
L 330.644564 138.308973 
L 330.644564 137.74979 
L 331.623875 137.74979 
L 331.628713 135.513061 
L 332.55161 135.513061 
L 332.55548 133.276332 
L 333.429677 133.276332 
L 333.429677 133.276332 
" style="fill:none;stroke:#ffa500;stroke-linecap:square;stroke-width:1.5;"/>
   </g>
   <g id="line2d_35">
    <defs>
     <path d="M 0 -6 
L -1.347084 -1.854102 
L -5.706339 -1.854102 
L -2.179628 0.708204 
L -3.526712 4.854102 
L -0 2.291796 
L 3.526712 4.854102 
L 2.179628 0.708204 
L 5.706339 -1.854102 
L 1.347084 -1.854102 
z
" id="m6ce5b4a8e0" style="stroke:#ffa500;stroke-linejoin:bevel;stroke-width:1.5;"/>
    </defs>
    <g>
     <use style="fill-opacity:0;stroke:#ffa500;stroke-linejoin:bevel;stroke-width:1.5;" x="192.943678" xlink:href="#m6ce5b4a8e0" y="243.994416"/>
     <use style="fill-opacity:0;stroke:#ffa500;stroke-linejoin:bevel;stroke-width:1.5;" x="281.931686" xlink:href="#m6ce5b4a8e0" y="226.659767"/>
     <use style="fill-opacity:0;stroke:#ffa500;stroke-linejoin:bevel;stroke-width:1.5;" x="329.596653" xlink:href="#m6ce5b4a8e0" y="139.427337"/>
     <use style="fill-opacity:0;stroke:#ffa500;stroke-linejoin:bevel;stroke-width:1.5;" x="332.55548" xlink:href="#m6ce5b4a8e0" y="133.276332"/>
     <use style="fill-opacity:0;stroke:#ffa500;stroke-linejoin:bevel;stroke-width:1.5;" x="333.429677" xlink:href="#m6ce5b4a8e0" y="133.276332"/>
    </g>
   </g>
   <g id="line2d_36">
    <path style="fill:none;stroke:#ffa500;stroke-linecap:square;stroke-width:1.5;"/>
    <g/>
   </g>
   <g id="line2d_37">
    <path clip-path="url(#p3186324cdf)" d="M 281.888522 231.692407 
" style="fill:none;stroke:#ffa500;stroke-linecap:square;stroke-width:1.5;"/>
    <defs>
     <path d="M -12 12 
L 12 -12 
M -12 -12 
L 12 12 
" id="m06c64ebf9c" style="stroke:#ffa500;stroke-width:3;"/>
    </defs>
    <g clip-path="url(#p3186324cdf)">
     <use style="fill:#ffa500;stroke:#ffa500;stroke-width:3;" x="281.888522" xlink:href="#m06c64ebf9c" y="231.692407"/>
    </g>
   </g>
   <g id="line2d_38">
    <defs>
     <path d="M 0 1.5 
C 0.397805 1.5 0.77937 1.341951 1.06066 1.06066 
C 1.341951 0.77937 1.5 0.397805 1.5 0 
C 1.5 -0.397805 1.341951 -0.77937 1.06066 -1.06066 
C 0.77937 -1.341951 0.397805 -1.5 0 -1.5 
C -0.397805 -1.5 -0.77937 -1.341951 -1.06066 -1.06066 
C -1.341951 -0.77937 -1.5 -0.397805 -1.5 0 
C -1.5 0.397805 -1.341951 0.77937 -1.06066 1.06066 
C -0.77937 1.341951 -0.397805 1.5 0 1.5 
z
" id="m1170557614" style="stroke:#6495ed;"/>
    </defs>
    <g>
     <use style="fill:#6495ed;stroke:#6495ed;" x="360.947906" xlink:href="#m1170557614" y="143.900795"/>
     <use style="fill:#6495ed;stroke:#6495ed;" x="360.947906" xlink:href="#m1170557614" y="143.900795"/>
    </g>
   </g>
   <g id="line2d_39">
    <path d="M 103.822018 294.88 
L 103.822018 293.761636 
L 125.979378 293.761636 
L 125.979378 291.524907 
L 127.402078 291.524907 
L 127.402078 290.406542 
L 138.488154 290.406542 
L 138.488154 289.84736 
L 142.441628 289.84736 
L 142.441628 285.373902 
L 145.559445 285.373902 
L 145.559445 284.81472 
L 152.247865 284.81472 
L 152.247865 283.696355 
L 152.37626 283.696355 
L 152.37626 283.137173 
L 155.99657 283.137173 
L 155.99657 281.459626 
L 156.202619 281.459626 
L 156.202619 280.341262 
L 156.855728 280.341262 
L 156.855728 279.222897 
L 157.579743 279.222897 
L 157.579743 276.986168 
L 157.767776 276.986168 
L 157.767776 274.190257 
L 163.110182 274.190257 
L 163.110182 267.48007 
L 166.434475 267.48007 
L 166.51902 264.684159 
L 166.825511 264.684159 
L 166.825511 263.565795 
L 167.870174 263.565795 
L 167.870174 261.888248 
L 171.277737 261.888248 
L 171.277737 260.769883 
L 172.669615 260.769883 
L 172.669615 260.210701 
L 176.050478 260.210701 
L 176.050478 259.651519 
L 176.402262 259.651519 
L 176.402262 258.533154 
L 176.762505 258.533154 
L 176.762505 257.41479 
L 179.520604 257.41479 
L 179.520604 255.737243 
L 179.639032 255.737243 
L 179.639032 254.618879 
L 183.790066 254.618879 
L 183.790066 254.059696 
L 185.855384 254.059696 
L 185.855384 252.941332 
L 186.421591 252.941332 
L 186.421591 251.822967 
L 187.097739 251.822967 
L 187.097739 250.704603 
L 187.772853 250.704603 
L 187.772853 249.586238 
L 188.773048 249.586238 
L 188.773048 249.027056 
L 191.656087 249.027056 
L 191.656087 248.467874 
L 192.489924 248.467874 
L 192.489924 241.757687 
L 193.100306 241.757687 
L 193.100306 240.639323 
L 193.314848 240.639323 
L 193.314848 240.08014 
L 195.245606 240.08014 
L 195.245606 239.520958 
L 198.809409 239.520958 
L 198.809409 237.843411 
L 199.230253 237.843411 
L 199.230253 237.284229 
L 208.837358 237.284229 
L 208.837358 236.725047 
L 209.469493 236.725047 
L 209.469493 236.165865 
L 281.893717 236.165865 
L 281.999992 221.627126 
L 282.025545 221.627126 
L 282.10174 220.508762 
L 293.822661 220.508762 
L 293.882674 213.239393 
L 293.936791 213.239393 
L 293.941369 211.002664 
L 300.804835 211.002664 
L 300.874999 202.61493 
L 305.743849 202.61493 
L 305.80332 197.023108 
L 309.58214 197.023108 
L 309.606858 191.431285 
L 312.731376 191.431285 
L 312.751224 186.957828 
L 315.377592 186.957828 
L 315.404125 184.161916 
L 317.676941 184.161916 
L 317.691832 181.366005 
L 319.70206 181.366005 
L 319.70206 180.806823 
L 321.513716 180.806823 
L 321.528813 177.451729 
L 323.154153 177.451729 
L 323.166375 176.333365 
L 324.648946 176.333365 
L 324.649308 175.215 
L 326.02546 175.215 
L 326.037785 173.537454 
L 327.299954 173.537454 
L 327.308468 171.300725 
L 328.486514 171.300725 
L 328.486514 170.741543 
L 329.595066 170.741543 
L 329.596494 169.063996 
L 330.637838 169.063996 
L 330.646194 166.827267 
L 331.622274 166.827267 
L 331.622274 165.14972 
L 332.552214 165.14972 
L 332.552214 162.912991 
L 333.429677 162.912991 
L 333.429677 162.912991 
" style="fill:none;stroke:#6495ed;stroke-linecap:square;stroke-width:1.5;"/>
   </g>
   <g id="line2d_40">
    <defs>
     <path d="M -0 6 
L 6 -6 
L -6 -6 
z
" id="m69fe031146" style="stroke:#6495ed;stroke-linejoin:miter;stroke-width:1.5;"/>
    </defs>
    <g>
     <use style="fill-opacity:0;stroke:#6495ed;stroke-linejoin:miter;stroke-width:1.5;" x="152.37626" xlink:href="#m69fe031146" y="283.696355"/>
     <use style="fill-opacity:0;stroke:#6495ed;stroke-linejoin:miter;stroke-width:1.5;" x="199.230253" xlink:href="#m69fe031146" y="237.284229"/>
     <use style="fill-opacity:0;stroke:#6495ed;stroke-linejoin:miter;stroke-width:1.5;" x="300.814127" xlink:href="#m69fe031146" y="208.765935"/>
     <use style="fill-opacity:0;stroke:#6495ed;stroke-linejoin:miter;stroke-width:1.5;" x="332.552214" xlink:href="#m69fe031146" y="162.912991"/>
     <use style="fill-opacity:0;stroke:#6495ed;stroke-linejoin:miter;stroke-width:1.5;" x="333.429677" xlink:href="#m69fe031146" y="162.912991"/>
    </g>
   </g>
   <g id="line2d_41">
    <path style="fill:none;stroke:#6495ed;stroke-linecap:square;stroke-width:1.5;"/>
    <g/>
   </g>
   <g id="line2d_42">
    <path clip-path="url(#p3186324cdf)" d="M 281.888522 236.165865 
" style="fill:none;stroke:#6495ed;stroke-linecap:square;stroke-width:1.5;"/>
    <defs>
     <path d="M -12 12 
L 12 -12 
M -12 -12 
L 12 12 
" id="m4ef98e1a4e" style="stroke:#6495ed;stroke-width:3;"/>
    </defs>
    <g clip-path="url(#p3186324cdf)">
     <use style="fill:#6495ed;stroke:#6495ed;stroke-width:3;" x="281.888522" xlink:href="#m4ef98e1a4e" y="236.165865"/>
    </g>
   </g>
   <g id="line2d_43">
    <defs>
     <path d="M 0 1.5 
C 0.397805 1.5 0.77937 1.341951 1.06066 1.06066 
C 1.341951 0.77937 1.5 0.397805 1.5 0 
C 1.5 -0.397805 1.341951 -0.77937 1.06066 -1.06066 
C 0.77937 -1.341951 0.397805 -1.5 0 -1.5 
C -0.397805 -1.5 -0.77937 -1.341951 -1.06066 -1.06066 
C -1.341951 -0.77937 -1.5 -0.397805 -1.5 0 
C -1.5 0.397805 -1.341951 0.77937 -1.06066 1.06066 
C -0.77937 1.341951 -0.397805 1.5 0 1.5 
z
" id="m7e36ba2316" style="stroke:#ff0000;"/>
    </defs>
    <g>
     <use style="fill:#ff0000;stroke:#ff0000;" x="349.876343" xlink:href="#m7e36ba2316" y="54.431636"/>
     <use style="fill:#ff0000;stroke:#ff0000;" x="349.876343" xlink:href="#m7e36ba2316" y="54.431636"/>
    </g>
   </g>
   <g id="line2d_44">
    <path d="M 56.12 294.88 
L 56.12 265.243341 
L 68.045504 265.243341 
L 68.045504 251.822967 
L 75.021477 251.822967 
L 75.021477 247.34951 
L 79.971009 247.34951 
L 79.971009 246.790327 
L 83.810164 246.790327 
L 83.810164 246.231145 
L 86.946982 246.231145 
L 86.946982 241.198505 
L 89.599124 241.198505 
L 89.599124 236.165865 
L 108.500601 236.165865 
L 108.500601 235.0475 
L 109.300972 235.0475 
L 109.300972 233.369954 
L 112.824432 233.369954 
L 112.824432 232.810771 
L 121.226476 232.810771 
L 121.226476 232.251589 
L 122.723495 232.251589 
L 122.723495 230.574042 
L 128.967235 230.574042 
L 128.967235 230.01486 
L 129.214792 230.01486 
L 129.214792 229.455678 
L 135.522531 229.455678 
L 135.522531 225.541402 
L 135.859892 225.541402 
L 135.859892 224.423038 
L 136.026124 224.423038 
L 136.026124 223.863855 
L 136.991135 223.863855 
L 136.991135 223.304673 
L 137.755922 223.304673 
L 137.755922 222.745491 
L 138.912987 222.745491 
L 138.912987 222.186309 
L 140.257802 222.186309 
L 140.257802 219.390397 
L 140.767613 219.390397 
L 140.767613 218.272033 
L 140.89274 218.272033 
L 140.89274 217.712851 
L 142.212226 217.712851 
L 142.212226 215.476122 
L 142.327309 215.476122 
L 142.327309 213.798575 
L 143.002096 213.798575 
L 143.002096 213.239393 
L 145.842271 213.239393 
L 145.842271 211.561846 
L 147.448035 211.561846 
L 147.448035 211.002664 
L 149.978069 211.002664 
L 149.978069 209.884299 
L 151.253087 209.884299 
L 151.253087 207.64757 
L 152.312182 207.64757 
L 152.37626 203.733295 
L 154.593515 203.733295 
L 154.593515 203.174112 
L 154.761369 203.174112 
L 154.761369 202.61493 
L 158.898594 202.61493 
L 158.898594 202.055748 
L 159.116105 202.055748 
L 159.116105 200.937384 
L 159.245304 200.937384 
L 159.245304 198.141472 
L 159.752609 198.141472 
L 159.752609 197.58229 
L 160.406555 197.58229 
L 160.406555 197.023108 
L 160.56623 197.023108 
L 160.56623 194.227197 
L 160.959052 194.227197 
L 160.959052 193.668014 
L 166.575153 193.668014 
L 166.575153 191.990468 
L 167.126638 191.990468 
L 167.126638 190.872103 
L 171.510668 190.872103 
L 171.510668 190.312921 
L 173.116015 190.312921 
L 173.154291 189.194556 
L 174.863464 189.194556 
L 174.863464 186.398645 
L 175.822811 186.398645 
L 175.822811 184.721099 
L 176.32294 184.721099 
L 176.32294 184.161916 
L 178.203893 184.161916 
L 178.203893 183.602734 
L 178.570568 183.602734 
L 178.640195 182.48437 
L 179.494176 182.48437 
L 179.494176 180.806823 
L 181.73527 180.806823 
L 181.73527 180.247641 
L 182.114172 180.247641 
L 182.114172 178.570094 
L 183.096313 178.570094 
L 183.096313 178.010912 
L 183.530561 178.010912 
L 183.530561 177.451729 
L 184.055863 177.451729 
L 184.096393 174.096636 
L 184.267587 174.096636 
L 184.267587 173.537454 
L 184.417239 173.537454 
L 184.506409 171.859907 
L 184.858539 171.859907 
L 184.868218 170.741543 
L 184.983946 170.741543 
L 184.983946 170.18236 
L 185.616168 170.18236 
L 185.616168 169.623178 
L 185.982828 169.623178 
L 186.010015 168.504814 
L 186.43043 168.504814 
L 186.43043 167.945631 
L 186.58 167.945631 
L 186.676093 165.708902 
L 187.476067 165.708902 
L 187.476067 164.590538 
L 187.674492 164.590538 
L 187.674492 162.353809 
L 188.773048 162.353809 
L 188.865341 160.676262 
L 189.131734 160.676262 
L 189.131734 159.557898 
L 189.542193 159.557898 
L 189.542193 155.643622 
L 189.95029 155.643622 
L 189.95029 154.525258 
L 190.419155 154.525258 
L 190.419155 152.847711 
L 190.977647 152.847711 
L 190.977647 151.170164 
L 191.366702 151.170164 
L 191.366702 150.0518 
L 191.70168 150.0518 
L 191.70168 148.374253 
L 191.97273 148.374253 
L 191.97273 147.815071 
L 192.220652 147.815071 
L 192.289938 146.137524 
L 193.058277 146.137524 
L 193.058277 145.019159 
L 194.045353 145.019159 
L 194.045353 142.78243 
L 194.962721 142.78243 
L 194.962721 141.664066 
L 195.128746 141.664066 
L 195.128746 140.545702 
L 195.382697 140.545702 
L 195.382697 139.986519 
L 195.674312 139.986519 
L 195.674312 139.427337 
L 195.915302 139.427337 
L 195.915302 138.308973 
L 196.127836 138.308973 
L 196.127836 137.190608 
L 196.73071 137.190608 
L 196.73071 134.394697 
L 197.564819 134.394697 
L 197.564819 133.835515 
L 197.684682 133.835515 
L 197.684682 132.71715 
L 198.070814 132.71715 
L 198.070814 131.598786 
L 198.200595 131.598786 
L 198.200595 131.039603 
L 198.391245 131.039603 
L 198.391245 130.480421 
L 198.51864 130.480421 
L 198.619011 129.362057 
L 199.200832 129.362057 
L 199.200832 128.802874 
L 200.418666 128.802874 
L 200.418666 123.770234 
L 200.539731 123.770234 
L 200.590248 119.855959 
L 200.920751 119.855959 
L 200.920751 118.737594 
L 201.068564 118.737594 
L 201.068564 117.61923 
L 201.256228 117.61923 
L 201.330724 114.823318 
L 201.43448 114.823318 
L 201.43448 113.145772 
L 202.445978 113.145772 
L 202.445978 112.027407 
L 204.37188 112.027407 
L 204.37188 110.349861 
L 205.425907 110.349861 
L 205.425907 109.790678 
L 207.350165 109.790678 
L 207.37634 108.113132 
L 209.175186 108.113132 
L 209.175186 106.435585 
L 216.043236 106.435585 
L 216.043236 105.876403 
L 240.25319 105.876403 
L 240.25319 104.198856 
L 263.738042 104.198856 
L 263.738042 103.080491 
L 272.572401 103.080491 
L 272.572401 102.521309 
L 273.348911 102.521309 
L 273.348911 101.962127 
L 273.815254 101.962127 
L 273.815254 101.402945 
L 281.968613 101.402945 
L 282.077559 96.929487 
L 282.095179 96.929487 
L 282.146034 94.133576 
L 284.734613 94.133576 
L 284.786795 91.337664 
L 293.854119 91.337664 
L 293.926829 83.509113 
L 294.000306 83.509113 
L 294.000306 82.390748 
L 300.445902 82.390748 
L 300.445902 81.831566 
L 300.816738 81.831566 
L 300.873561 76.798926 
L 305.779546 76.798926 
L 305.832923 72.325468 
L 309.594734 72.325468 
L 309.65344 69.529557 
L 312.753187 69.529557 
L 312.758691 67.292828 
L 315.390385 67.292828 
L 315.421074 65.615281 
L 317.691004 65.615281 
L 317.711795 63.378552 
L 319.709166 63.378552 
L 319.713916 62.260188 
L 323.158463 62.260188 
L 323.166819 60.582641 
L 326.037452 60.582641 
L 326.037452 60.023459 
L 327.304524 60.023459 
L 327.31109 58.345912 
L 329.604659 58.345912 
L 329.604659 57.78673 
L 330.655598 57.78673 
L 330.655598 57.227548 
L 333.429677 57.227548 
L 333.429677 57.227548 
" style="fill:none;stroke:#ff0000;stroke-linecap:square;stroke-width:1.5;"/>
   </g>
   <g id="line2d_45">
    <defs>
     <path d="M 0 -6 
L -5.196152 -3 
L -5.196152 3 
L -0 6 
L 5.196152 3 
L 5.196152 -3 
z
" id="ma5b93cb7a8" style="stroke:#ff0000;stroke-linejoin:miter;stroke-width:1.5;"/>
    </defs>
    <g>
     <use style="fill-opacity:0;stroke:#ff0000;stroke-linejoin:miter;stroke-width:1.5;" x="112.824432" xlink:href="#ma5b93cb7a8" y="232.810771"/>
     <use style="fill-opacity:0;stroke:#ff0000;stroke-linejoin:miter;stroke-width:1.5;" x="194.045353" xlink:href="#ma5b93cb7a8" y="142.78243"/>
     <use style="fill-opacity:0;stroke:#ff0000;stroke-linejoin:miter;stroke-width:1.5;" x="282.146034" xlink:href="#ma5b93cb7a8" y="94.133576"/>
     <use style="fill-opacity:0;stroke:#ff0000;stroke-linejoin:miter;stroke-width:1.5;" x="330.655598" xlink:href="#ma5b93cb7a8" y="57.227548"/>
     <use style="fill-opacity:0;stroke:#ff0000;stroke-linejoin:miter;stroke-width:1.5;" x="333.429677" xlink:href="#ma5b93cb7a8" y="57.227548"/>
    </g>
   </g>
   <g id="line2d_46">
    <path style="fill:none;stroke:#ff0000;stroke-linecap:square;stroke-width:1.5;"/>
    <g/>
   </g>
   <g id="line2d_47">
    <path clip-path="url(#p3186324cdf)" d="M 281.888522 101.402945 
" style="fill:none;stroke:#ff0000;stroke-linecap:square;stroke-width:1.5;"/>
    <defs>
     <path d="M -12 12 
L 12 -12 
M -12 -12 
L 12 12 
" id="m41105598f0" style="stroke:#ff0000;stroke-width:3;"/>
    </defs>
    <g clip-path="url(#p3186324cdf)">
     <use style="fill:#ff0000;stroke:#ff0000;stroke-width:3;" x="281.888522" xlink:href="#m41105598f0" y="101.402945"/>
    </g>
   </g>
   <g id="line2d_48">
    <path d="M 333.429677 178.010912 
L 363.933742 289.176341 
" style="fill:none;stroke:#ff00ff;stroke-linecap:square;stroke-width:1.5;"/>
    <g>
     <use style="fill-opacity:0;stroke:#ff00ff;stroke-linejoin:miter;stroke-width:1.5;" x="333.429677" xlink:href="#m57fb71bcb4" y="178.010912"/>
     <use style="fill-opacity:0;stroke:#ff00ff;stroke-linejoin:miter;stroke-width:1.5;" x="363.933742" xlink:href="#m57fb71bcb4" y="289.176341"/>
    </g>
   </g>
   <g id="line2d_49">
    <path d="M 333.429677 162.912991 
L 363.933742 220.732435 
" style="fill:none;stroke:#6495ed;stroke-linecap:square;stroke-width:1.5;"/>
    <g>
     <use style="fill-opacity:0;stroke:#6495ed;stroke-linejoin:miter;stroke-width:1.5;" x="333.429677" xlink:href="#m69fe031146" y="162.912991"/>
     <use style="fill-opacity:0;stroke:#6495ed;stroke-linejoin:miter;stroke-width:1.5;" x="363.933742" xlink:href="#m69fe031146" y="220.732435"/>
    </g>
   </g>
   <g id="line2d_50">
    <path d="M 333.429677 133.276332 
L 363.933742 152.288529 
" style="fill:none;stroke:#ffa500;stroke-linecap:square;stroke-width:1.5;"/>
    <g>
     <use style="fill-opacity:0;stroke:#ffa500;stroke-linejoin:bevel;stroke-width:1.5;" x="333.429677" xlink:href="#m6ce5b4a8e0" y="133.276332"/>
     <use style="fill-opacity:0;stroke:#ffa500;stroke-linejoin:bevel;stroke-width:1.5;" x="363.933742" xlink:href="#m6ce5b4a8e0" y="152.288529"/>
    </g>
   </g>
   <g id="line2d_51">
    <path d="M 333.429677 124.329417 
L 363.933742 83.844622 
" style="fill:none;stroke:#000080;stroke-linecap:square;stroke-width:1.5;"/>
    <g>
     <use style="fill-opacity:0;stroke:#000080;stroke-width:1.5;" x="333.429677" xlink:href="#mdc0e654446" y="124.329417"/>
     <use style="fill-opacity:0;stroke:#000080;stroke-width:1.5;" x="363.933742" xlink:href="#mdc0e654446" y="83.844622"/>
    </g>
   </g>
   <g id="line2d_52">
    <path d="M 333.429677 57.227548 
L 363.933742 15.400716 
" style="fill:none;stroke:#ff0000;stroke-linecap:square;stroke-width:1.5;"/>
    <g>
     <use style="fill-opacity:0;stroke:#ff0000;stroke-linejoin:miter;stroke-width:1.5;" x="333.429677" xlink:href="#ma5b93cb7a8" y="57.227548"/>
     <use style="fill-opacity:0;stroke:#ff0000;stroke-linejoin:miter;stroke-width:1.5;" x="363.933742" xlink:href="#ma5b93cb7a8" y="15.400716"/>
    </g>
   </g>
   <g id="line2d_53">
    <path d="M 333.429677 294.88 
L 333.429677 9.697057 
" style="fill:none;stroke:#000000;stroke-linecap:square;stroke-width:1.5;"/>
   </g>
   <g id="patch_3">
    <path d="M 56.12 294.88 
L 56.12 6.845228 
" style="fill:none;stroke:#000000;stroke-linecap:square;stroke-linejoin:miter;stroke-width:0.8;"/>
   </g>
   <g id="patch_4">
    <path d="M 399.984 294.88 
L 399.984 6.845228 
" style="fill:none;stroke:#000000;stroke-linecap:square;stroke-linejoin:miter;stroke-width:0.8;"/>
   </g>
   <g id="patch_5">
    <path d="M 56.12 294.88 
L 399.984 294.88 
" style="fill:none;stroke:#000000;stroke-linecap:square;stroke-linejoin:miter;stroke-width:0.8;"/>
   </g>
   <g id="patch_6">
    <path d="M 56.12 6.845228 
L 399.984 6.845228 
" style="fill:none;stroke:#000000;stroke-linecap:square;stroke-linejoin:miter;stroke-width:0.8;"/>
   </g>
   <g id="text_14">
    <!-- f13 -->
    <defs>
     <path d="M 40.578125 39.3125 
Q 47.65625 37.796875 51.625 33 
Q 55.609375 28.21875 55.609375 21.1875 
Q 55.609375 10.40625 48.1875 4.484375 
Q 40.765625 -1.421875 27.09375 -1.421875 
Q 22.515625 -1.421875 17.65625 -0.515625 
Q 12.796875 0.390625 7.625 2.203125 
L 7.625 11.71875 
Q 11.71875 9.328125 16.59375 8.109375 
Q 21.484375 6.890625 26.8125 6.890625 
Q 36.078125 6.890625 40.9375 10.546875 
Q 45.796875 14.203125 45.796875 21.1875 
Q 45.796875 27.640625 41.28125 31.265625 
Q 36.765625 34.90625 28.71875 34.90625 
L 20.21875 34.90625 
L 20.21875 43.015625 
L 29.109375 43.015625 
Q 36.375 43.015625 40.234375 45.921875 
Q 44.09375 48.828125 44.09375 54.296875 
Q 44.09375 59.90625 40.109375 62.90625 
Q 36.140625 65.921875 28.71875 65.921875 
Q 24.65625 65.921875 20.015625 65.03125 
Q 15.375 64.15625 9.8125 62.3125 
L 9.8125 71.09375 
Q 15.4375 72.65625 20.34375 73.4375 
Q 25.25 74.21875 29.59375 74.21875 
Q 40.828125 74.21875 47.359375 69.109375 
Q 53.90625 64.015625 53.90625 55.328125 
Q 53.90625 49.265625 50.4375 45.09375 
Q 46.96875 40.921875 40.578125 39.3125 
z
" id="DejaVuSans-33"/>
    </defs>
    <g transform="translate(369.479935 293.867279)scale(0.17 -0.17)">
     <use xlink:href="#DejaVuSans-66"/>
     <use x="35.205078" xlink:href="#DejaVuSans-31"/>
     <use x="98.828125" xlink:href="#DejaVuSans-33"/>
    </g>
   </g>
   <g id="text_15">
    <!-- f11 -->
    <g transform="translate(369.479935 225.423372)scale(0.17 -0.17)">
     <use xlink:href="#DejaVuSans-66"/>
     <use x="35.205078" xlink:href="#DejaVuSans-31"/>
     <use x="98.828125" xlink:href="#DejaVuSans-31"/>
    </g>
   </g>
   <g id="text_16">
    <!-- f10 -->
    <g transform="translate(369.479935 156.979466)scale(0.17 -0.17)">
     <use xlink:href="#DejaVuSans-66"/>
     <use x="35.205078" xlink:href="#DejaVuSans-31"/>
     <use x="98.828125" xlink:href="#DejaVuSans-30"/>
    </g>
   </g>
   <g id="text_17">
    <!-- f12 -->
    <g transform="translate(369.479935 88.53556)scale(0.17 -0.17)">
     <use xlink:href="#DejaVuSans-66"/>
     <use x="35.205078" xlink:href="#DejaVuSans-31"/>
     <use x="98.828125" xlink:href="#DejaVuSans-32"/>
    </g>
   </g>
   <g id="text_18">
    <!-- f14 -->
    <g transform="translate(369.479935 20.091654)scale(0.17 -0.17)">
     <use xlink:href="#DejaVuSans-66"/>
     <use x="35.205078" xlink:href="#DejaVuSans-31"/>
     <use x="98.828125" xlink:href="#DejaVuSans-34"/>
    </g>
   </g>
   <g id="text_19">
    <!-- bbob -->
    <defs>
     <path d="M 48.6875 27.296875 
Q 48.6875 37.203125 44.609375 42.84375 
Q 40.53125 48.484375 33.40625 48.484375 
Q 26.265625 48.484375 22.1875 42.84375 
Q 18.109375 37.203125 18.109375 27.296875 
Q 18.109375 17.390625 22.1875 11.75 
Q 26.265625 6.109375 33.40625 6.109375 
Q 40.53125 6.109375 44.609375 11.75 
Q 48.6875 17.390625 48.6875 27.296875 
z
M 18.109375 46.390625 
Q 20.953125 51.265625 25.265625 53.625 
Q 29.59375 56 35.59375 56 
Q 45.5625 56 51.78125 48.09375 
Q 58.015625 40.1875 58.015625 27.296875 
Q 58.015625 14.40625 51.78125 6.484375 
Q 45.5625 -1.421875 35.59375 -1.421875 
Q 29.59375 -1.421875 25.265625 0.953125 
Q 20.953125 3.328125 18.109375 8.203125 
L 18.109375 0 
L 9.078125 0 
L 9.078125 75.984375 
L 18.109375 75.984375 
z
" id="DejaVuSans-62"/>
    </defs>
    <g transform="translate(59.55864 17.475982)scale(0.102 -0.102)">
     <use xlink:href="#DejaVuSans-62"/>
     <use x="63.476562" xlink:href="#DejaVuSans-62"/>
     <use x="126.953125" xlink:href="#DejaVuSans-6f"/>
     <use x="188.134766" xlink:href="#DejaVuSans-62"/>
    </g>
    <!-- Ill-conditioned functions, 2-D -->
    <defs>
     <path d="M 9.8125 72.90625 
L 19.671875 72.90625 
L 19.671875 0 
L 9.8125 0 
z
" id="DejaVuSans-49"/>
     <path d="M 19.671875 64.796875 
L 19.671875 8.109375 
L 31.59375 8.109375 
Q 46.6875 8.109375 53.6875 14.9375 
Q 60.6875 21.78125 60.6875 36.53125 
Q 60.6875 51.171875 53.6875 57.984375 
Q 46.6875 64.796875 31.59375 64.796875 
z
M 9.8125 72.90625 
L 30.078125 72.90625 
Q 51.265625 72.90625 61.171875 64.09375 
Q 71.09375 55.28125 71.09375 36.53125 
Q 71.09375 17.671875 61.125 8.828125 
Q 51.171875 0 30.078125 0 
L 9.8125 0 
z
" id="DejaVuSans-44"/>
    </defs>
    <g transform="translate(59.55864 28.89775)scale(0.102 -0.102)">
     <use xlink:href="#DejaVuSans-49"/>
     <use x="29.492188" xlink:href="#DejaVuSans-6c"/>
     <use x="57.275391" xlink:href="#DejaVuSans-6c"/>
     <use x="85.058594" xlink:href="#DejaVuSans-2d"/>
     <use x="121.142578" xlink:href="#DejaVuSans-63"/>
     <use x="176.123047" xlink:href="#DejaVuSans-6f"/>
     <use x="237.304688" xlink:href="#DejaVuSans-6e"/>
     <use x="300.683594" xlink:href="#DejaVuSans-64"/>
     <use x="364.160156" xlink:href="#DejaVuSans-69"/>
     <use x="391.943359" xlink:href="#DejaVuSans-74"/>
     <use x="431.152344" xlink:href="#DejaVuSans-69"/>
     <use x="458.935547" xlink:href="#DejaVuSans-6f"/>
     <use x="520.117188" xlink:href="#DejaVuSans-6e"/>
     <use x="583.496094" xlink:href="#DejaVuSans-65"/>
     <use x="645.019531" xlink:href="#DejaVuSans-64"/>
     <use x="708.496094" xlink:href="#DejaVuSans-20"/>
     <use x="740.283203" xlink:href="#DejaVuSans-66"/>
     <use x="775.488281" xlink:href="#DejaVuSans-75"/>
     <use x="838.867188" xlink:href="#DejaVuSans-6e"/>
     <use x="902.246094" xlink:href="#DejaVuSans-63"/>
     <use x="957.226562" xlink:href="#DejaVuSans-74"/>
     <use x="996.435547" xlink:href="#DejaVuSans-69"/>
     <use x="1024.21875" xlink:href="#DejaVuSans-6f"/>
     <use x="1085.400391" xlink:href="#DejaVuSans-6e"/>
     <use x="1148.779297" xlink:href="#DejaVuSans-73"/>
     <use x="1200.878906" xlink:href="#DejaVuSans-2c"/>
     <use x="1232.666016" xlink:href="#DejaVuSans-20"/>
     <use x="1264.453125" xlink:href="#DejaVuSans-32"/>
     <use x="1328.076172" xlink:href="#DejaVuSans-2d"/>
     <use x="1364.160156" xlink:href="#DejaVuSans-44"/>
    </g>
    <!-- 51 targets: 100..1e-08 -->
    <defs>
     <path d="M 10.796875 72.90625 
L 49.515625 72.90625 
L 49.515625 64.59375 
L 19.828125 64.59375 
L 19.828125 46.734375 
Q 21.96875 47.46875 24.109375 47.828125 
Q 26.265625 48.1875 28.421875 48.1875 
Q 40.625 48.1875 47.75 41.5 
Q 54.890625 34.8125 54.890625 23.390625 
Q 54.890625 11.625 47.5625 5.09375 
Q 40.234375 -1.421875 26.90625 -1.421875 
Q 22.3125 -1.421875 17.546875 -0.640625 
Q 12.796875 0.140625 7.71875 1.703125 
L 7.71875 11.625 
Q 12.109375 9.234375 16.796875 8.0625 
Q 21.484375 6.890625 26.703125 6.890625 
Q 35.15625 6.890625 40.078125 11.328125 
Q 45.015625 15.765625 45.015625 23.390625 
Q 45.015625 31 40.078125 35.4375 
Q 35.15625 39.890625 26.703125 39.890625 
Q 22.75 39.890625 18.8125 39.015625 
Q 14.890625 38.140625 10.796875 36.28125 
z
" id="DejaVuSans-35"/>
     <path d="M 11.71875 12.40625 
L 22.015625 12.40625 
L 22.015625 0 
L 11.71875 0 
z
M 11.71875 51.703125 
L 22.015625 51.703125 
L 22.015625 39.3125 
L 11.71875 39.3125 
z
" id="DejaVuSans-3a"/>
    </defs>
    <g transform="translate(59.55864 40.319519)scale(0.102 -0.102)">
     <use xlink:href="#DejaVuSans-35"/>
     <use x="63.623047" xlink:href="#DejaVuSans-31"/>
     <use x="127.246094" xlink:href="#DejaVuSans-20"/>
     <use x="159.033203" xlink:href="#DejaVuSans-74"/>
     <use x="198.242188" xlink:href="#DejaVuSans-61"/>
     <use x="259.521484" xlink:href="#DejaVuSans-72"/>
     <use x="300.619141" xlink:href="#DejaVuSans-67"/>
     <use x="364.095703" xlink:href="#DejaVuSans-65"/>
     <use x="425.619141" xlink:href="#DejaVuSans-74"/>
     <use x="464.828125" xlink:href="#DejaVuSans-73"/>
     <use x="516.927734" xlink:href="#DejaVuSans-3a"/>
     <use x="550.619141" xlink:href="#DejaVuSans-20"/>
     <use x="582.40625" xlink:href="#DejaVuSans-31"/>
     <use x="646.029297" xlink:href="#DejaVuSans-30"/>
     <use x="709.652344" xlink:href="#DejaVuSans-30"/>
     <use x="773.275391" xlink:href="#DejaVuSans-2e"/>
     <use x="805.0625" xlink:href="#DejaVuSans-2e"/>
     <use x="836.849609" xlink:href="#DejaVuSans-31"/>
     <use x="900.472656" xlink:href="#DejaVuSans-65"/>
     <use x="961.996094" xlink:href="#DejaVuSans-2d"/>
     <use x="998.080078" xlink:href="#DejaVuSans-30"/>
     <use x="1061.703125" xlink:href="#DejaVuSans-38"/>
    </g>
    <!-- 15 instances -->
    <g transform="translate(59.55864 51.741288)scale(0.102 -0.102)">
     <use xlink:href="#DejaVuSans-31"/>
     <use x="63.623047" xlink:href="#DejaVuSans-35"/>
     <use x="127.246094" xlink:href="#DejaVuSans-20"/>
     <use x="159.033203" xlink:href="#DejaVuSans-69"/>
     <use x="186.816406" xlink:href="#DejaVuSans-6e"/>
     <use x="250.195312" xlink:href="#DejaVuSans-73"/>
     <use x="302.294922" xlink:href="#DejaVuSans-74"/>
     <use x="341.503906" xlink:href="#DejaVuSans-61"/>
     <use x="402.783203" xlink:href="#DejaVuSans-6e"/>
     <use x="466.162109" xlink:href="#DejaVuSans-63"/>
     <use x="521.142578" xlink:href="#DejaVuSans-65"/>
     <use x="582.666016" xlink:href="#DejaVuSans-73"/>
    </g>
   </g>
   <g id="text_20">
    <!-- v0.0.0 -->
    <g style="fill:#808080;" transform="translate(212.37075 289.919965)scale(0.1 -0.1)">
     <use xlink:href="#DejaVuSans-76"/>
     <use x="59.179688" xlink:href="#DejaVuSans-30"/>
     <use x="122.802734" xlink:href="#DejaVuSans-2e"/>
     <use x="154.589844" xlink:href="#DejaVuSans-30"/>
     <use x="218.212891" xlink:href="#DejaVuSans-2e"/>
     <use x="250" xlink:href="#DejaVuSans-30"/>
    </g>
   </g>
  </g>
 </g>
 <defs>
  <clipPath id="p3186324cdf">
   <rect height="288.034772" width="343.864" x="56.12" y="6.845228"/>
  </clipPath>
 </defs>
</svg>
