<?xml version="1.0" encoding="utf-8" standalone="no"?>
<!DOCTYPE svg PUBLIC "-//W3C//DTD SVG 1.1//EN"
  "http://www.w3.org/Graphics/SVG/1.1/DTD/svg11.dtd">
<!-- Created with matplotlib (http://matplotlib.org/) -->
<svg height="345.6pt" version="1.1" viewBox="0 0 460.8 345.6" width="460.8pt" xmlns="http://www.w3.org/2000/svg" xmlns:xlink="http://www.w3.org/1999/xlink">
 <defs>
  <style type="text/css">
*{stroke-linecap:butt;stroke-linejoin:round;}
  </style>
 </defs>
 <g id="figure_1">
  <g id="patch_1">
   <path d="M 0 345.6 
L 460.8 345.6 
L 460.8 0 
L 0 0 
z
" style="fill:#ffffff;"/>
  </g>
  <g id="axes_1">
   <g id="patch_2">
    <path d="M 56.12 294.88 
L 399.984 294.88 
L 399.984 6.845228 
L 56.12 6.845228 
z
" style="fill:#ffffff;"/>
   </g>
   <g id="matplotlib.axis_1">
    <g id="xtick_1">
     <g id="line2d_1">
      <path clip-path="url(#p3f9069f460)" d="M 56.12 294.88 
L 56.12 6.845228 
" style="fill:none;stroke:#b0b0b0;stroke-linecap:square;stroke-width:0.8;"/>
     </g>
     <g id="line2d_2">
      <defs>
       <path d="M 0 0 
L 0 3.5 
" id="m1a047d2885" style="stroke:#000000;stroke-width:0.8;"/>
      </defs>
      <g>
       <use style="stroke:#000000;stroke-width:0.8;" x="56.12" xlink:href="#m1a047d2885" y="294.88"/>
      </g>
     </g>
     <g id="text_1">
      <!-- 0 -->
      <defs>
       <path d="M 31.78125 66.40625 
Q 24.171875 66.40625 20.328125 58.90625 
Q 16.5 51.421875 16.5 36.375 
Q 16.5 21.390625 20.328125 13.890625 
Q 24.171875 6.390625 31.78125 6.390625 
Q 39.453125 6.390625 43.28125 13.890625 
Q 47.125 21.390625 47.125 36.375 
Q 47.125 51.421875 43.28125 58.90625 
Q 39.453125 66.40625 31.78125 66.40625 
z
M 31.78125 74.21875 
Q 44.046875 74.21875 50.515625 64.515625 
Q 56.984375 54.828125 56.984375 36.375 
Q 56.984375 17.96875 50.515625 8.265625 
Q 44.046875 -1.421875 31.78125 -1.421875 
Q 19.53125 -1.421875 13.0625 8.265625 
Q 6.59375 17.96875 6.59375 36.375 
Q 6.59375 54.828125 13.0625 64.515625 
Q 19.53125 74.21875 31.78125 74.21875 
z
" id="DejaVuSans-30"/>
      </defs>
      <g transform="translate(49.7575 317.076875)scale(0.2 -0.2)">
       <use xlink:href="#DejaVuSans-30"/>
      </g>
     </g>
    </g>
    <g id="xtick_2">
     <g id="line2d_3">
      <path clip-path="url(#p3f9069f460)" d="M 135.351336 294.88 
L 135.351336 6.845228 
" style="fill:none;stroke:#b0b0b0;stroke-linecap:square;stroke-width:0.8;"/>
     </g>
     <g id="line2d_4">
      <g>
       <use style="stroke:#000000;stroke-width:0.8;" x="135.351336" xlink:href="#m1a047d2885" y="294.88"/>
      </g>
     </g>
     <g id="text_2">
      <!-- 2 -->
      <defs>
       <path d="M 19.1875 8.296875 
L 53.609375 8.296875 
L 53.609375 0 
L 7.328125 0 
L 7.328125 8.296875 
Q 12.9375 14.109375 22.625 23.890625 
Q 32.328125 33.6875 34.8125 36.53125 
Q 39.546875 41.84375 41.421875 45.53125 
Q 43.3125 49.21875 43.3125 52.78125 
Q 43.3125 58.59375 39.234375 62.25 
Q 35.15625 65.921875 28.609375 65.921875 
Q 23.96875 65.921875 18.8125 64.3125 
Q 13.671875 62.703125 7.8125 59.421875 
L 7.8125 69.390625 
Q 13.765625 71.78125 18.9375 73 
Q 24.125 74.21875 28.421875 74.21875 
Q 39.75 74.21875 46.484375 68.546875 
Q 53.21875 62.890625 53.21875 53.421875 
Q 53.21875 48.921875 51.53125 44.890625 
Q 49.859375 40.875 45.40625 35.40625 
Q 44.1875 33.984375 37.640625 27.21875 
Q 31.109375 20.453125 19.1875 8.296875 
z
" id="DejaVuSans-32"/>
      </defs>
      <g transform="translate(128.988836 317.076875)scale(0.2 -0.2)">
       <use xlink:href="#DejaVuSans-32"/>
      </g>
     </g>
    </g>
    <g id="xtick_3">
     <g id="line2d_5">
      <path clip-path="url(#p3f9069f460)" d="M 214.582673 294.88 
L 214.582673 6.845228 
" style="fill:none;stroke:#b0b0b0;stroke-linecap:square;stroke-width:0.8;"/>
     </g>
     <g id="line2d_6">
      <g>
       <use style="stroke:#000000;stroke-width:0.8;" x="214.582673" xlink:href="#m1a047d2885" y="294.88"/>
      </g>
     </g>
     <g id="text_3">
      <!-- 4 -->
      <defs>
       <path d="M 37.796875 64.3125 
L 12.890625 25.390625 
L 37.796875 25.390625 
z
M 35.203125 72.90625 
L 47.609375 72.90625 
L 47.609375 25.390625 
L 58.015625 25.390625 
L 58.015625 17.1875 
L 47.609375 17.1875 
L 47.609375 0 
L 37.796875 0 
L 37.796875 17.1875 
L 4.890625 17.1875 
L 4.890625 26.703125 
z
" id="DejaVuSans-34"/>
      </defs>
      <g transform="translate(208.220173 317.076875)scale(0.2 -0.2)">
       <use xlink:href="#DejaVuSans-34"/>
      </g>
     </g>
    </g>
    <g id="xtick_4">
     <g id="line2d_7">
      <path clip-path="url(#p3f9069f460)" d="M 293.814009 294.88 
L 293.814009 6.845228 
" style="fill:none;stroke:#b0b0b0;stroke-linecap:square;stroke-width:0.8;"/>
     </g>
     <g id="line2d_8">
      <g>
       <use style="stroke:#000000;stroke-width:0.8;" x="293.814009" xlink:href="#m1a047d2885" y="294.88"/>
      </g>
     </g>
     <g id="text_4">
      <!-- 6 -->
      <defs>
       <path d="M 33.015625 40.375 
Q 26.375 40.375 22.484375 35.828125 
Q 18.609375 31.296875 18.609375 23.390625 
Q 18.609375 15.53125 22.484375 10.953125 
Q 26.375 6.390625 33.015625 6.390625 
Q 39.65625 6.390625 43.53125 10.953125 
Q 47.40625 15.53125 47.40625 23.390625 
Q 47.40625 31.296875 43.53125 35.828125 
Q 39.65625 40.375 33.015625 40.375 
z
M 52.59375 71.296875 
L 52.59375 62.3125 
Q 48.875 64.0625 45.09375 64.984375 
Q 41.3125 65.921875 37.59375 65.921875 
Q 27.828125 65.921875 22.671875 59.328125 
Q 17.53125 52.734375 16.796875 39.40625 
Q 19.671875 43.65625 24.015625 45.921875 
Q 28.375 48.1875 33.59375 48.1875 
Q 44.578125 48.1875 50.953125 41.515625 
Q 57.328125 34.859375 57.328125 23.390625 
Q 57.328125 12.15625 50.6875 5.359375 
Q 44.046875 -1.421875 33.015625 -1.421875 
Q 20.359375 -1.421875 13.671875 8.265625 
Q 6.984375 17.96875 6.984375 36.375 
Q 6.984375 53.65625 15.1875 63.9375 
Q 23.390625 74.21875 37.203125 74.21875 
Q 40.921875 74.21875 44.703125 73.484375 
Q 48.484375 72.75 52.59375 71.296875 
z
" id="DejaVuSans-36"/>
      </defs>
      <g transform="translate(287.451509 317.076875)scale(0.2 -0.2)">
       <use xlink:href="#DejaVuSans-36"/>
      </g>
     </g>
    </g>
    <g id="xtick_5">
     <g id="line2d_9">
      <path clip-path="url(#p3f9069f460)" d="M 373.045346 294.88 
L 373.045346 6.845228 
" style="fill:none;stroke:#b0b0b0;stroke-linecap:square;stroke-width:0.8;"/>
     </g>
     <g id="line2d_10">
      <g>
       <use style="stroke:#000000;stroke-width:0.8;" x="373.045346" xlink:href="#m1a047d2885" y="294.88"/>
      </g>
     </g>
     <g id="text_5">
      <!-- 8 -->
      <defs>
       <path d="M 31.78125 34.625 
Q 24.75 34.625 20.71875 30.859375 
Q 16.703125 27.09375 16.703125 20.515625 
Q 16.703125 13.921875 20.71875 10.15625 
Q 24.75 6.390625 31.78125 6.390625 
Q 38.8125 6.390625 42.859375 10.171875 
Q 46.921875 13.96875 46.921875 20.515625 
Q 46.921875 27.09375 42.890625 30.859375 
Q 38.875 34.625 31.78125 34.625 
z
M 21.921875 38.8125 
Q 15.578125 40.375 12.03125 44.71875 
Q 8.5 49.078125 8.5 55.328125 
Q 8.5 64.0625 14.71875 69.140625 
Q 20.953125 74.21875 31.78125 74.21875 
Q 42.671875 74.21875 48.875 69.140625 
Q 55.078125 64.0625 55.078125 55.328125 
Q 55.078125 49.078125 51.53125 44.71875 
Q 48 40.375 41.703125 38.8125 
Q 48.828125 37.15625 52.796875 32.3125 
Q 56.78125 27.484375 56.78125 20.515625 
Q 56.78125 9.90625 50.3125 4.234375 
Q 43.84375 -1.421875 31.78125 -1.421875 
Q 19.734375 -1.421875 13.25 4.234375 
Q 6.78125 9.90625 6.78125 20.515625 
Q 6.78125 27.484375 10.78125 32.3125 
Q 14.796875 37.15625 21.921875 38.8125 
z
M 18.3125 54.390625 
Q 18.3125 48.734375 21.84375 45.5625 
Q 25.390625 42.390625 31.78125 42.390625 
Q 38.140625 42.390625 41.71875 45.5625 
Q 45.3125 48.734375 45.3125 54.390625 
Q 45.3125 60.0625 41.71875 63.234375 
Q 38.140625 66.40625 31.78125 66.40625 
Q 25.390625 66.40625 21.84375 63.234375 
Q 18.3125 60.0625 18.3125 54.390625 
z
" id="DejaVuSans-38"/>
      </defs>
      <g transform="translate(366.682846 317.076875)scale(0.2 -0.2)">
       <use xlink:href="#DejaVuSans-38"/>
      </g>
     </g>
    </g>
    <g id="text_6">
     <!-- log10(# f-evals / dimension) -->
     <defs>
      <path d="M 9.421875 75.984375 
L 18.40625 75.984375 
L 18.40625 0 
L 9.421875 0 
z
" id="DejaVuSans-6c"/>
      <path d="M 30.609375 48.390625 
Q 23.390625 48.390625 19.1875 42.75 
Q 14.984375 37.109375 14.984375 27.296875 
Q 14.984375 17.484375 19.15625 11.84375 
Q 23.34375 6.203125 30.609375 6.203125 
Q 37.796875 6.203125 41.984375 11.859375 
Q 46.1875 17.53125 46.1875 27.296875 
Q 46.1875 37.015625 41.984375 42.703125 
Q 37.796875 48.390625 30.609375 48.390625 
z
M 30.609375 56 
Q 42.328125 56 49.015625 48.375 
Q 55.71875 40.765625 55.71875 27.296875 
Q 55.71875 13.875 49.015625 6.21875 
Q 42.328125 -1.421875 30.609375 -1.421875 
Q 18.84375 -1.421875 12.171875 6.21875 
Q 5.515625 13.875 5.515625 27.296875 
Q 5.515625 40.765625 12.171875 48.375 
Q 18.84375 56 30.609375 56 
z
" id="DejaVuSans-6f"/>
      <path d="M 45.40625 27.984375 
Q 45.40625 37.75 41.375 43.109375 
Q 37.359375 48.484375 30.078125 48.484375 
Q 22.859375 48.484375 18.828125 43.109375 
Q 14.796875 37.75 14.796875 27.984375 
Q 14.796875 18.265625 18.828125 12.890625 
Q 22.859375 7.515625 30.078125 7.515625 
Q 37.359375 7.515625 41.375 12.890625 
Q 45.40625 18.265625 45.40625 27.984375 
z
M 54.390625 6.78125 
Q 54.390625 -7.171875 48.1875 -13.984375 
Q 42 -20.796875 29.203125 -20.796875 
Q 24.46875 -20.796875 20.265625 -20.09375 
Q 16.0625 -19.390625 12.109375 -17.921875 
L 12.109375 -9.1875 
Q 16.0625 -11.328125 19.921875 -12.34375 
Q 23.78125 -13.375 27.78125 -13.375 
Q 36.625 -13.375 41.015625 -8.765625 
Q 45.40625 -4.15625 45.40625 5.171875 
L 45.40625 9.625 
Q 42.625 4.78125 38.28125 2.390625 
Q 33.9375 0 27.875 0 
Q 17.828125 0 11.671875 7.65625 
Q 5.515625 15.328125 5.515625 27.984375 
Q 5.515625 40.671875 11.671875 48.328125 
Q 17.828125 56 27.875 56 
Q 33.9375 56 38.28125 53.609375 
Q 42.625 51.21875 45.40625 46.390625 
L 45.40625 54.6875 
L 54.390625 54.6875 
z
" id="DejaVuSans-67"/>
      <path d="M 12.40625 8.296875 
L 28.515625 8.296875 
L 28.515625 63.921875 
L 10.984375 60.40625 
L 10.984375 69.390625 
L 28.421875 72.90625 
L 38.28125 72.90625 
L 38.28125 8.296875 
L 54.390625 8.296875 
L 54.390625 0 
L 12.40625 0 
z
" id="DejaVuSans-31"/>
      <path d="M 31 75.875 
Q 24.46875 64.65625 21.28125 53.65625 
Q 18.109375 42.671875 18.109375 31.390625 
Q 18.109375 20.125 21.3125 9.0625 
Q 24.515625 -2 31 -13.1875 
L 23.1875 -13.1875 
Q 15.875 -1.703125 12.234375 9.375 
Q 8.59375 20.453125 8.59375 31.390625 
Q 8.59375 42.28125 12.203125 53.3125 
Q 15.828125 64.359375 23.1875 75.875 
z
" id="DejaVuSans-28"/>
      <path d="M 51.125 44 
L 36.921875 44 
L 32.8125 27.6875 
L 47.125 27.6875 
z
M 43.796875 71.78125 
L 38.71875 51.515625 
L 52.984375 51.515625 
L 58.109375 71.78125 
L 65.921875 71.78125 
L 60.890625 51.515625 
L 76.125 51.515625 
L 76.125 44 
L 58.984375 44 
L 54.984375 27.6875 
L 70.515625 27.6875 
L 70.515625 20.21875 
L 53.078125 20.21875 
L 48 0 
L 40.1875 0 
L 45.21875 20.21875 
L 30.90625 20.21875 
L 25.875 0 
L 18.015625 0 
L 23.09375 20.21875 
L 7.71875 20.21875 
L 7.71875 27.6875 
L 24.90625 27.6875 
L 29 44 
L 13.28125 44 
L 13.28125 51.515625 
L 30.90625 51.515625 
L 35.890625 71.78125 
z
" id="DejaVuSans-23"/>
      <path id="DejaVuSans-20"/>
      <path d="M 37.109375 75.984375 
L 37.109375 68.5 
L 28.515625 68.5 
Q 23.6875 68.5 21.796875 66.546875 
Q 19.921875 64.59375 19.921875 59.515625 
L 19.921875 54.6875 
L 34.71875 54.6875 
L 34.71875 47.703125 
L 19.921875 47.703125 
L 19.921875 0 
L 10.890625 0 
L 10.890625 47.703125 
L 2.296875 47.703125 
L 2.296875 54.6875 
L 10.890625 54.6875 
L 10.890625 58.5 
Q 10.890625 67.625 15.140625 71.796875 
Q 19.390625 75.984375 28.609375 75.984375 
z
" id="DejaVuSans-66"/>
      <path d="M 4.890625 31.390625 
L 31.203125 31.390625 
L 31.203125 23.390625 
L 4.890625 23.390625 
z
" id="DejaVuSans-2d"/>
      <path d="M 56.203125 29.59375 
L 56.203125 25.203125 
L 14.890625 25.203125 
Q 15.484375 15.921875 20.484375 11.0625 
Q 25.484375 6.203125 34.421875 6.203125 
Q 39.59375 6.203125 44.453125 7.46875 
Q 49.3125 8.734375 54.109375 11.28125 
L 54.109375 2.78125 
Q 49.265625 0.734375 44.1875 -0.34375 
Q 39.109375 -1.421875 33.890625 -1.421875 
Q 20.796875 -1.421875 13.15625 6.1875 
Q 5.515625 13.8125 5.515625 26.8125 
Q 5.515625 40.234375 12.765625 48.109375 
Q 20.015625 56 32.328125 56 
Q 43.359375 56 49.78125 48.890625 
Q 56.203125 41.796875 56.203125 29.59375 
z
M 47.21875 32.234375 
Q 47.125 39.59375 43.09375 43.984375 
Q 39.0625 48.390625 32.421875 48.390625 
Q 24.90625 48.390625 20.390625 44.140625 
Q 15.875 39.890625 15.1875 32.171875 
z
" id="DejaVuSans-65"/>
      <path d="M 2.984375 54.6875 
L 12.5 54.6875 
L 29.59375 8.796875 
L 46.6875 54.6875 
L 56.203125 54.6875 
L 35.6875 0 
L 23.484375 0 
z
" id="DejaVuSans-76"/>
      <path d="M 34.28125 27.484375 
Q 23.390625 27.484375 19.1875 25 
Q 14.984375 22.515625 14.984375 16.5 
Q 14.984375 11.71875 18.140625 8.90625 
Q 21.296875 6.109375 26.703125 6.109375 
Q 34.1875 6.109375 38.703125 11.40625 
Q 43.21875 16.703125 43.21875 25.484375 
L 43.21875 27.484375 
z
M 52.203125 31.203125 
L 52.203125 0 
L 43.21875 0 
L 43.21875 8.296875 
Q 40.140625 3.328125 35.546875 0.953125 
Q 30.953125 -1.421875 24.3125 -1.421875 
Q 15.921875 -1.421875 10.953125 3.296875 
Q 6 8.015625 6 15.921875 
Q 6 25.140625 12.171875 29.828125 
Q 18.359375 34.515625 30.609375 34.515625 
L 43.21875 34.515625 
L 43.21875 35.40625 
Q 43.21875 41.609375 39.140625 45 
Q 35.0625 48.390625 27.6875 48.390625 
Q 23 48.390625 18.546875 47.265625 
Q 14.109375 46.140625 10.015625 43.890625 
L 10.015625 52.203125 
Q 14.9375 54.109375 19.578125 55.046875 
Q 24.21875 56 28.609375 56 
Q 40.484375 56 46.34375 49.84375 
Q 52.203125 43.703125 52.203125 31.203125 
z
" id="DejaVuSans-61"/>
      <path d="M 44.28125 53.078125 
L 44.28125 44.578125 
Q 40.484375 46.53125 36.375 47.5 
Q 32.28125 48.484375 27.875 48.484375 
Q 21.1875 48.484375 17.84375 46.4375 
Q 14.5 44.390625 14.5 40.28125 
Q 14.5 37.15625 16.890625 35.375 
Q 19.28125 33.59375 26.515625 31.984375 
L 29.59375 31.296875 
Q 39.15625 29.25 43.1875 25.515625 
Q 47.21875 21.78125 47.21875 15.09375 
Q 47.21875 7.46875 41.1875 3.015625 
Q 35.15625 -1.421875 24.609375 -1.421875 
Q 20.21875 -1.421875 15.453125 -0.5625 
Q 10.6875 0.296875 5.421875 2 
L 5.421875 11.28125 
Q 10.40625 8.6875 15.234375 7.390625 
Q 20.0625 6.109375 24.8125 6.109375 
Q 31.15625 6.109375 34.5625 8.28125 
Q 37.984375 10.453125 37.984375 14.40625 
Q 37.984375 18.0625 35.515625 20.015625 
Q 33.0625 21.96875 24.703125 23.78125 
L 21.578125 24.515625 
Q 13.234375 26.265625 9.515625 29.90625 
Q 5.8125 33.546875 5.8125 39.890625 
Q 5.8125 47.609375 11.28125 51.796875 
Q 16.75 56 26.8125 56 
Q 31.78125 56 36.171875 55.265625 
Q 40.578125 54.546875 44.28125 53.078125 
z
" id="DejaVuSans-73"/>
      <path d="M 25.390625 72.90625 
L 33.6875 72.90625 
L 8.296875 -9.28125 
L 0 -9.28125 
z
" id="DejaVuSans-2f"/>
      <path d="M 45.40625 46.390625 
L 45.40625 75.984375 
L 54.390625 75.984375 
L 54.390625 0 
L 45.40625 0 
L 45.40625 8.203125 
Q 42.578125 3.328125 38.25 0.953125 
Q 33.9375 -1.421875 27.875 -1.421875 
Q 17.96875 -1.421875 11.734375 6.484375 
Q 5.515625 14.40625 5.515625 27.296875 
Q 5.515625 40.1875 11.734375 48.09375 
Q 17.96875 56 27.875 56 
Q 33.9375 56 38.25 53.625 
Q 42.578125 51.265625 45.40625 46.390625 
z
M 14.796875 27.296875 
Q 14.796875 17.390625 18.875 11.75 
Q 22.953125 6.109375 30.078125 6.109375 
Q 37.203125 6.109375 41.296875 11.75 
Q 45.40625 17.390625 45.40625 27.296875 
Q 45.40625 37.203125 41.296875 42.84375 
Q 37.203125 48.484375 30.078125 48.484375 
Q 22.953125 48.484375 18.875 42.84375 
Q 14.796875 37.203125 14.796875 27.296875 
z
" id="DejaVuSans-64"/>
      <path d="M 9.421875 54.6875 
L 18.40625 54.6875 
L 18.40625 0 
L 9.421875 0 
z
M 9.421875 75.984375 
L 18.40625 75.984375 
L 18.40625 64.59375 
L 9.421875 64.59375 
z
" id="DejaVuSans-69"/>
      <path d="M 52 44.1875 
Q 55.375 50.25 60.0625 53.125 
Q 64.75 56 71.09375 56 
Q 79.640625 56 84.28125 50.015625 
Q 88.921875 44.046875 88.921875 33.015625 
L 88.921875 0 
L 79.890625 0 
L 79.890625 32.71875 
Q 79.890625 40.578125 77.09375 44.375 
Q 74.3125 48.1875 68.609375 48.1875 
Q 61.625 48.1875 57.5625 43.546875 
Q 53.515625 38.921875 53.515625 30.90625 
L 53.515625 0 
L 44.484375 0 
L 44.484375 32.71875 
Q 44.484375 40.625 41.703125 44.40625 
Q 38.921875 48.1875 33.109375 48.1875 
Q 26.21875 48.1875 22.15625 43.53125 
Q 18.109375 38.875 18.109375 30.90625 
L 18.109375 0 
L 9.078125 0 
L 9.078125 54.6875 
L 18.109375 54.6875 
L 18.109375 46.1875 
Q 21.1875 51.21875 25.484375 53.609375 
Q 29.78125 56 35.6875 56 
Q 41.65625 56 45.828125 52.96875 
Q 50 49.953125 52 44.1875 
z
" id="DejaVuSans-6d"/>
      <path d="M 54.890625 33.015625 
L 54.890625 0 
L 45.90625 0 
L 45.90625 32.71875 
Q 45.90625 40.484375 42.875 44.328125 
Q 39.84375 48.1875 33.796875 48.1875 
Q 26.515625 48.1875 22.3125 43.546875 
Q 18.109375 38.921875 18.109375 30.90625 
L 18.109375 0 
L 9.078125 0 
L 9.078125 54.6875 
L 18.109375 54.6875 
L 18.109375 46.1875 
Q 21.34375 51.125 25.703125 53.5625 
Q 30.078125 56 35.796875 56 
Q 45.21875 56 50.046875 50.171875 
Q 54.890625 44.34375 54.890625 33.015625 
z
" id="DejaVuSans-6e"/>
      <path d="M 8.015625 75.875 
L 15.828125 75.875 
Q 23.140625 64.359375 26.78125 53.3125 
Q 30.421875 42.28125 30.421875 31.390625 
Q 30.421875 20.453125 26.78125 9.375 
Q 23.140625 -1.703125 15.828125 -13.1875 
L 8.015625 -13.1875 
Q 14.5 -2 17.703125 9.0625 
Q 20.90625 20.125 20.90625 31.390625 
Q 20.90625 42.671875 17.703125 53.65625 
Q 14.5 64.65625 8.015625 75.875 
z
" id="DejaVuSans-29"/>
     </defs>
     <g transform="translate(107.211219 338.153594)scale(0.17 -0.17)">
      <use xlink:href="#DejaVuSans-6c"/>
      <use x="27.783203" xlink:href="#DejaVuSans-6f"/>
      <use x="88.964844" xlink:href="#DejaVuSans-67"/>
      <use x="152.441406" xlink:href="#DejaVuSans-31"/>
      <use x="216.064453" xlink:href="#DejaVuSans-30"/>
      <use x="279.6875" xlink:href="#DejaVuSans-28"/>
      <use x="318.701172" xlink:href="#DejaVuSans-23"/>
      <use x="402.490234" xlink:href="#DejaVuSans-20"/>
      <use x="434.277344" xlink:href="#DejaVuSans-66"/>
      <use x="469.404297" xlink:href="#DejaVuSans-2d"/>
      <use x="505.488281" xlink:href="#DejaVuSans-65"/>
      <use x="567.011719" xlink:href="#DejaVuSans-76"/>
      <use x="626.191406" xlink:href="#DejaVuSans-61"/>
      <use x="687.470703" xlink:href="#DejaVuSans-6c"/>
      <use x="715.253906" xlink:href="#DejaVuSans-73"/>
      <use x="767.353516" xlink:href="#DejaVuSans-20"/>
      <use x="799.140625" xlink:href="#DejaVuSans-2f"/>
      <use x="832.832031" xlink:href="#DejaVuSans-20"/>
      <use x="864.619141" xlink:href="#DejaVuSans-64"/>
      <use x="928.095703" xlink:href="#DejaVuSans-69"/>
      <use x="955.878906" xlink:href="#DejaVuSans-6d"/>
      <use x="1053.291016" xlink:href="#DejaVuSans-65"/>
      <use x="1114.814453" xlink:href="#DejaVuSans-6e"/>
      <use x="1178.193359" xlink:href="#DejaVuSans-73"/>
      <use x="1230.292969" xlink:href="#DejaVuSans-69"/>
      <use x="1258.076172" xlink:href="#DejaVuSans-6f"/>
      <use x="1319.257812" xlink:href="#DejaVuSans-6e"/>
      <use x="1382.636719" xlink:href="#DejaVuSans-29"/>
     </g>
    </g>
   </g>
   <g id="matplotlib.axis_2">
    <g id="ytick_1">
     <g id="line2d_11">
      <path clip-path="url(#p3f9069f460)" d="M 56.12 294.88 
L 399.984 294.88 
" style="fill:none;stroke:#b0b0b0;stroke-linecap:square;stroke-width:0.8;"/>
     </g>
     <g id="line2d_12">
      <defs>
       <path d="M 0 0 
L -3.5 0 
" id="m0b60056663" style="stroke:#000000;stroke-width:0.8;"/>
      </defs>
      <g>
       <use style="stroke:#000000;stroke-width:0.8;" x="56.12" xlink:href="#m0b60056663" y="294.88"/>
      </g>
     </g>
     <g id="text_7">
      <!-- 0.0 -->
      <defs>
       <path d="M 10.6875 12.40625 
L 21 12.40625 
L 21 0 
L 10.6875 0 
z
" id="DejaVuSans-2e"/>
      </defs>
      <g transform="translate(23.675 300.95875)scale(0.16 -0.16)">
       <use xlink:href="#DejaVuSans-30"/>
       <use x="63.623047" xlink:href="#DejaVuSans-2e"/>
       <use x="95.410156" xlink:href="#DejaVuSans-30"/>
      </g>
     </g>
    </g>
    <g id="ytick_2">
     <g id="line2d_13">
      <path clip-path="url(#p3f9069f460)" d="M 56.12 237.843411 
L 399.984 237.843411 
" style="fill:none;stroke:#b0b0b0;stroke-linecap:square;stroke-width:0.8;"/>
     </g>
     <g id="line2d_14">
      <g>
       <use style="stroke:#000000;stroke-width:0.8;" x="56.12" xlink:href="#m0b60056663" y="237.843411"/>
      </g>
     </g>
     <g id="text_8">
      <!-- 0.2 -->
      <g transform="translate(23.675 243.922161)scale(0.16 -0.16)">
       <use xlink:href="#DejaVuSans-30"/>
       <use x="63.623047" xlink:href="#DejaVuSans-2e"/>
       <use x="95.410156" xlink:href="#DejaVuSans-32"/>
      </g>
     </g>
    </g>
    <g id="ytick_3">
     <g id="line2d_15">
      <path clip-path="url(#p3f9069f460)" d="M 56.12 180.806823 
L 399.984 180.806823 
" style="fill:none;stroke:#b0b0b0;stroke-linecap:square;stroke-width:0.8;"/>
     </g>
     <g id="line2d_16">
      <g>
       <use style="stroke:#000000;stroke-width:0.8;" x="56.12" xlink:href="#m0b60056663" y="180.806823"/>
      </g>
     </g>
     <g id="text_9">
      <!-- 0.4 -->
      <g transform="translate(23.675 186.885573)scale(0.16 -0.16)">
       <use xlink:href="#DejaVuSans-30"/>
       <use x="63.623047" xlink:href="#DejaVuSans-2e"/>
       <use x="95.410156" xlink:href="#DejaVuSans-34"/>
      </g>
     </g>
    </g>
    <g id="ytick_4">
     <g id="line2d_17">
      <path clip-path="url(#p3f9069f460)" d="M 56.12 123.770234 
L 399.984 123.770234 
" style="fill:none;stroke:#b0b0b0;stroke-linecap:square;stroke-width:0.8;"/>
     </g>
     <g id="line2d_18">
      <g>
       <use style="stroke:#000000;stroke-width:0.8;" x="56.12" xlink:href="#m0b60056663" y="123.770234"/>
      </g>
     </g>
     <g id="text_10">
      <!-- 0.6 -->
      <g transform="translate(23.675 129.848984)scale(0.16 -0.16)">
       <use xlink:href="#DejaVuSans-30"/>
       <use x="63.623047" xlink:href="#DejaVuSans-2e"/>
       <use x="95.410156" xlink:href="#DejaVuSans-36"/>
      </g>
     </g>
    </g>
    <g id="ytick_5">
     <g id="line2d_19">
      <path clip-path="url(#p3f9069f460)" d="M 56.12 66.733646 
L 399.984 66.733646 
" style="fill:none;stroke:#b0b0b0;stroke-linecap:square;stroke-width:0.8;"/>
     </g>
     <g id="line2d_20">
      <g>
       <use style="stroke:#000000;stroke-width:0.8;" x="56.12" xlink:href="#m0b60056663" y="66.733646"/>
      </g>
     </g>
     <g id="text_11">
      <!-- 0.8 -->
      <g transform="translate(23.675 72.812396)scale(0.16 -0.16)">
       <use xlink:href="#DejaVuSans-30"/>
       <use x="63.623047" xlink:href="#DejaVuSans-2e"/>
       <use x="95.410156" xlink:href="#DejaVuSans-38"/>
      </g>
     </g>
    </g>
    <g id="ytick_6">
     <g id="line2d_21">
      <path clip-path="url(#p3f9069f460)" d="M 56.12 9.697057 
L 399.984 9.697057 
" style="fill:none;stroke:#b0b0b0;stroke-linecap:square;stroke-width:0.8;"/>
     </g>
     <g id="line2d_22">
      <g>
       <use style="stroke:#000000;stroke-width:0.8;" x="56.12" xlink:href="#m0b60056663" y="9.697057"/>
      </g>
     </g>
     <g id="text_12">
      <!-- 1.0 -->
      <g transform="translate(23.675 15.775807)scale(0.16 -0.16)">
       <use xlink:href="#DejaVuSans-31"/>
       <use x="63.623047" xlink:href="#DejaVuSans-2e"/>
       <use x="95.410156" xlink:href="#DejaVuSans-30"/>
      </g>
     </g>
    </g>
    <g id="text_13">
     <!-- Fraction of function,target pairs -->
     <defs>
      <path d="M 9.8125 72.90625 
L 51.703125 72.90625 
L 51.703125 64.59375 
L 19.671875 64.59375 
L 19.671875 43.109375 
L 48.578125 43.109375 
L 48.578125 34.8125 
L 19.671875 34.8125 
L 19.671875 0 
L 9.8125 0 
z
" id="DejaVuSans-46"/>
      <path d="M 41.109375 46.296875 
Q 39.59375 47.171875 37.8125 47.578125 
Q 36.03125 48 33.890625 48 
Q 26.265625 48 22.1875 43.046875 
Q 18.109375 38.09375 18.109375 28.8125 
L 18.109375 0 
L 9.078125 0 
L 9.078125 54.6875 
L 18.109375 54.6875 
L 18.109375 46.1875 
Q 20.953125 51.171875 25.484375 53.578125 
Q 30.03125 56 36.53125 56 
Q 37.453125 56 38.578125 55.875 
Q 39.703125 55.765625 41.0625 55.515625 
z
" id="DejaVuSans-72"/>
      <path d="M 48.78125 52.59375 
L 48.78125 44.1875 
Q 44.96875 46.296875 41.140625 47.34375 
Q 37.3125 48.390625 33.40625 48.390625 
Q 24.65625 48.390625 19.8125 42.84375 
Q 14.984375 37.3125 14.984375 27.296875 
Q 14.984375 17.28125 19.8125 11.734375 
Q 24.65625 6.203125 33.40625 6.203125 
Q 37.3125 6.203125 41.140625 7.25 
Q 44.96875 8.296875 48.78125 10.40625 
L 48.78125 2.09375 
Q 45.015625 0.34375 40.984375 -0.53125 
Q 36.96875 -1.421875 32.421875 -1.421875 
Q 20.0625 -1.421875 12.78125 6.34375 
Q 5.515625 14.109375 5.515625 27.296875 
Q 5.515625 40.671875 12.859375 48.328125 
Q 20.21875 56 33.015625 56 
Q 37.15625 56 41.109375 55.140625 
Q 45.0625 54.296875 48.78125 52.59375 
z
" id="DejaVuSans-63"/>
      <path d="M 18.3125 70.21875 
L 18.3125 54.6875 
L 36.8125 54.6875 
L 36.8125 47.703125 
L 18.3125 47.703125 
L 18.3125 18.015625 
Q 18.3125 11.328125 20.140625 9.421875 
Q 21.96875 7.515625 27.59375 7.515625 
L 36.8125 7.515625 
L 36.8125 0 
L 27.59375 0 
Q 17.1875 0 13.234375 3.875 
Q 9.28125 7.765625 9.28125 18.015625 
L 9.28125 47.703125 
L 2.6875 47.703125 
L 2.6875 54.6875 
L 9.28125 54.6875 
L 9.28125 70.21875 
z
" id="DejaVuSans-74"/>
      <path d="M 8.5 21.578125 
L 8.5 54.6875 
L 17.484375 54.6875 
L 17.484375 21.921875 
Q 17.484375 14.15625 20.5 10.265625 
Q 23.53125 6.390625 29.59375 6.390625 
Q 36.859375 6.390625 41.078125 11.03125 
Q 45.3125 15.671875 45.3125 23.6875 
L 45.3125 54.6875 
L 54.296875 54.6875 
L 54.296875 0 
L 45.3125 0 
L 45.3125 8.40625 
Q 42.046875 3.421875 37.71875 1 
Q 33.40625 -1.421875 27.6875 -1.421875 
Q 18.265625 -1.421875 13.375 4.4375 
Q 8.5 10.296875 8.5 21.578125 
z
M 31.109375 56 
z
" id="DejaVuSans-75"/>
      <path d="M 11.71875 12.40625 
L 22.015625 12.40625 
L 22.015625 4 
L 14.015625 -11.625 
L 7.71875 -11.625 
L 11.71875 4 
z
" id="DejaVuSans-2c"/>
      <path d="M 18.109375 8.203125 
L 18.109375 -20.796875 
L 9.078125 -20.796875 
L 9.078125 54.6875 
L 18.109375 54.6875 
L 18.109375 46.390625 
Q 20.953125 51.265625 25.265625 53.625 
Q 29.59375 56 35.59375 56 
Q 45.5625 56 51.78125 48.09375 
Q 58.015625 40.1875 58.015625 27.296875 
Q 58.015625 14.40625 51.78125 6.484375 
Q 45.5625 -1.421875 35.59375 -1.421875 
Q 29.59375 -1.421875 25.265625 0.953125 
Q 20.953125 3.328125 18.109375 8.203125 
z
M 48.6875 27.296875 
Q 48.6875 37.203125 44.609375 42.84375 
Q 40.53125 48.484375 33.40625 48.484375 
Q 26.265625 48.484375 22.1875 42.84375 
Q 18.109375 37.203125 18.109375 27.296875 
Q 18.109375 17.390625 22.1875 11.75 
Q 26.265625 6.109375 33.40625 6.109375 
Q 40.53125 6.109375 44.609375 11.75 
Q 48.6875 17.390625 48.6875 27.296875 
z
" id="DejaVuSans-70"/>
     </defs>
     <g transform="translate(16.139531 286.001989)rotate(-90)scale(0.17 -0.17)">
      <use xlink:href="#DejaVuSans-46"/>
      <use x="57.410156" xlink:href="#DejaVuSans-72"/>
      <use x="98.523438" xlink:href="#DejaVuSans-61"/>
      <use x="159.802734" xlink:href="#DejaVuSans-63"/>
      <use x="214.783203" xlink:href="#DejaVuSans-74"/>
      <use x="253.992188" xlink:href="#DejaVuSans-69"/>
      <use x="281.775391" xlink:href="#DejaVuSans-6f"/>
      <use x="342.957031" xlink:href="#DejaVuSans-6e"/>
      <use x="406.335938" xlink:href="#DejaVuSans-20"/>
      <use x="438.123047" xlink:href="#DejaVuSans-6f"/>
      <use x="499.304688" xlink:href="#DejaVuSans-66"/>
      <use x="534.509766" xlink:href="#DejaVuSans-20"/>
      <use x="566.296875" xlink:href="#DejaVuSans-66"/>
      <use x="601.501953" xlink:href="#DejaVuSans-75"/>
      <use x="664.880859" xlink:href="#DejaVuSans-6e"/>
      <use x="728.259766" xlink:href="#DejaVuSans-63"/>
      <use x="783.240234" xlink:href="#DejaVuSans-74"/>
      <use x="822.449219" xlink:href="#DejaVuSans-69"/>
      <use x="850.232422" xlink:href="#DejaVuSans-6f"/>
      <use x="911.414062" xlink:href="#DejaVuSans-6e"/>
      <use x="974.792969" xlink:href="#DejaVuSans-2c"/>
      <use x="1006.580078" xlink:href="#DejaVuSans-74"/>
      <use x="1045.789062" xlink:href="#DejaVuSans-61"/>
      <use x="1107.068359" xlink:href="#DejaVuSans-72"/>
      <use x="1148.166016" xlink:href="#DejaVuSans-67"/>
      <use x="1211.642578" xlink:href="#DejaVuSans-65"/>
      <use x="1273.166016" xlink:href="#DejaVuSans-74"/>
      <use x="1312.375" xlink:href="#DejaVuSans-20"/>
      <use x="1344.162109" xlink:href="#DejaVuSans-70"/>
      <use x="1407.638672" xlink:href="#DejaVuSans-61"/>
      <use x="1468.917969" xlink:href="#DejaVuSans-69"/>
      <use x="1496.701172" xlink:href="#DejaVuSans-72"/>
      <use x="1537.814453" xlink:href="#DejaVuSans-73"/>
     </g>
    </g>
   </g>
   <g id="line2d_23">
    <defs>
     <path d="M 0 1.5 
C 0.397805 1.5 0.77937 1.341951 1.06066 1.06066 
C 1.341951 0.77937 1.5 0.397805 1.5 0 
C 1.5 -0.397805 1.341951 -0.77937 1.06066 -1.06066 
C 0.77937 -1.341951 0.397805 -1.5 0 -1.5 
C -0.397805 -1.5 -0.77937 -1.341951 -1.06066 -1.06066 
C -1.341951 -0.77937 -1.5 -0.397805 -1.5 0 
C -1.5 0.397805 -1.341951 0.77937 -1.06066 1.06066 
C -0.77937 1.341951 -0.397805 1.5 0 1.5 
z
" id="md63477b645" style="stroke:#000080;"/>
    </defs>
    <g>
     <use style="fill:#000080;stroke:#000080;" x="258.479264" xlink:href="#md63477b645" y="183.043552"/>
     <use style="fill:#000080;stroke:#000080;" x="258.479264" xlink:href="#md63477b645" y="183.043552"/>
    </g>
   </g>
   <g id="line2d_24">
    <path d="M 4.578827 294.88 
L 4.578827 268.039252 
L 16.504332 268.039252 
L 16.504332 265.802523 
L 23.480305 265.802523 
L 23.480305 264.124977 
L 28.429836 264.124977 
L 28.429836 263.006612 
L 38.057951 263.006612 
L 38.057951 262.44743 
L 59.959155 262.44743 
L 59.959155 261.888248 
L 61.283259 261.888248 
L 61.283259 261.329066 
L 71.182322 261.329066 
L 71.182322 260.769883 
L 83.286117 260.769883 
L 83.286117 259.651519 
L 93.240519 259.651519 
L 93.240519 259.092337 
L 98.872486 259.092337 
L 98.872486 257.973972 
L 105.607828 257.973972 
L 105.607828 256.855608 
L 107.048212 256.855608 
L 107.048212 256.296425 
L 114.464231 256.296425 
L 114.464231 255.737243 
L 117.264691 255.737243 
L 117.264691 255.178061 
L 154.155042 255.178061 
L 154.155042 254.618879 
L 158.385376 254.618879 
L 158.385376 254.059696 
L 162.353495 254.059696 
L 162.353495 252.38215 
L 172.956256 252.38215 
L 172.956256 251.822967 
L 179.948336 251.822967 
L 179.948336 250.704603 
L 181.047197 250.704603 
L 181.047197 249.586238 
L 183.031296 249.586238 
L 183.031296 249.027056 
L 183.323807 249.027056 
L 183.369792 247.908692 
L 183.569216 247.908692 
L 183.569216 247.34951 
L 185.437824 247.34951 
L 185.437824 246.790327 
L 185.921954 246.790327 
L 185.921954 246.231145 
L 186.057489 246.231145 
L 186.057489 245.671963 
L 186.500978 245.671963 
L 186.500978 244.553598 
L 186.631608 244.553598 
L 186.631608 243.994416 
L 186.958192 243.994416 
L 186.958192 243.435234 
L 187.385188 243.435234 
L 187.385188 242.876052 
L 187.626749 242.876052 
L 187.626749 242.316869 
L 187.99697 242.316869 
L 188.052547 241.198505 
L 188.457853 241.198505 
L 188.457853 240.639323 
L 188.857669 240.639323 
L 188.857669 240.08014 
L 189.101119 240.08014 
L 189.129091 238.961776 
L 190.959999 238.961776 
L 190.959999 238.402594 
L 191.528108 238.402594 
L 191.528108 237.843411 
L 191.915649 237.843411 
L 191.915649 236.725047 
L 192.10667 236.725047 
L 192.10667 236.165865 
L 192.883662 236.165865 
L 192.883662 235.606682 
L 193.294404 235.606682 
L 193.294404 235.0475 
L 194.657314 235.0475 
L 194.657314 234.488318 
L 195.751334 234.488318 
L 195.751334 233.369954 
L 199.211976 233.369954 
L 199.211976 232.810771 
L 199.410301 232.810771 
L 199.410301 232.251589 
L 200.601691 232.251589 
L 200.694118 230.01486 
L 200.748414 230.01486 
L 200.834894 228.896496 
L 200.967317 228.896496 
L 200.967317 228.337313 
L 201.108708 228.337313 
L 201.200892 227.218949 
L 201.225965 227.218949 
L 201.225965 225.541402 
L 201.33927 225.541402 
L 201.33927 224.98222 
L 201.508761 224.98222 
L 201.576679 220.508762 
L 201.854356 220.508762 
L 201.854356 218.272033 
L 202.037966 218.272033 
L 202.037966 217.712851 
L 202.185897 217.712851 
L 202.201981 215.476122 
L 202.348864 215.476122 
L 202.348864 214.91694 
L 202.685705 214.91694 
L 202.728935 213.798575 
L 202.882277 213.798575 
L 202.882277 213.239393 
L 203.014729 213.239393 
L 203.014729 212.680211 
L 203.51543 212.680211 
L 203.51543 212.121028 
L 203.70215 212.121028 
L 203.70215 211.561846 
L 203.947467 211.561846 
L 203.972349 209.884299 
L 204.265814 209.884299 
L 204.265814 209.325117 
L 204.489983 209.325117 
L 204.520424 208.206753 
L 204.968897 208.206753 
L 204.968897 207.64757 
L 205.15188 207.64757 
L 205.190383 206.529206 
L 205.332791 206.529206 
L 205.332791 205.410841 
L 205.46731 205.410841 
L 205.46731 204.851659 
L 205.728052 204.851659 
L 205.772467 203.174112 
L 206.111057 203.174112 
L 206.111057 202.61493 
L 206.332999 202.61493 
L 206.332999 202.055748 
L 206.842826 202.055748 
L 206.860623 200.378201 
L 207.632187 200.378201 
L 207.632187 199.819019 
L 207.824123 199.819019 
L 207.824123 199.259837 
L 209.538369 199.259837 
L 209.538369 198.141472 
L 209.974855 198.141472 
L 209.974855 197.023108 
L 210.20938 197.023108 
L 210.20938 196.463926 
L 210.374853 196.463926 
L 210.385835 195.345561 
L 210.606409 195.345561 
L 210.606409 193.668014 
L 210.755342 193.668014 
L 210.755342 192.54965 
L 211.278883 192.54965 
L 211.278883 191.990468 
L 211.942212 191.990468 
L 211.942212 191.431285 
L 231.601407 191.431285 
L 231.601407 190.872103 
L 231.845138 190.872103 
L 231.845138 189.753739 
L 233.572257 189.753739 
L 233.572257 189.194556 
L 233.82256 189.194556 
L 233.82256 188.635374 
L 234.460385 188.635374 
L 234.460385 188.076192 
L 235.255285 188.076192 
L 235.255285 187.51701 
L 243.226844 187.51701 
L 243.226844 186.957828 
L 244.281222 186.957828 
L 244.281222 186.398645 
L 244.887648 186.398645 
L 244.887648 185.839463 
L 250.731806 185.839463 
L 250.731806 185.280281 
L 254.748797 185.280281 
L 254.748797 184.721099 
L 255.135151 184.721099 
L 255.135151 184.161916 
L 255.614175 184.161916 
L 255.614175 183.602734 
L 258.479264 183.602734 
L 258.479264 183.043552 
L 333.429677 183.043552 
L 333.429677 183.043552 
" style="fill:none;stroke:#000080;stroke-linecap:square;stroke-width:1.5;"/>
   </g>
   <g id="line2d_25">
    <defs>
     <path d="M 0 6 
C 1.591219 6 3.117479 5.367802 4.242641 4.242641 
C 5.367802 3.117479 6 1.591219 6 0 
C 6 -1.591219 5.367802 -3.117479 4.242641 -4.242641 
C 3.117479 -5.367802 1.591219 -6 0 -6 
C -1.591219 -6 -3.117479 -5.367802 -4.242641 -4.242641 
C -5.367802 -3.117479 -6 -1.591219 -6 0 
C -6 1.591219 -5.367802 3.117479 -4.242641 4.242641 
C -3.117479 5.367802 -1.591219 6 0 6 
z
" id="m95ec13bc62" style="stroke:#000080;stroke-width:1.5;"/>
    </defs>
    <g>
     <use style="fill-opacity:0;stroke:#000080;stroke-width:1.5;" x="117.264691" xlink:href="#m95ec13bc62" y="255.737243"/>
     <use style="fill-opacity:0;stroke:#000080;stroke-width:1.5;" x="195.751334" xlink:href="#m95ec13bc62" y="234.488318"/>
     <use style="fill-opacity:0;stroke:#000080;stroke-width:1.5;" x="211.942212" xlink:href="#m95ec13bc62" y="191.990468"/>
     <use style="fill-opacity:0;stroke:#000080;stroke-width:1.5;" x="258.479264" xlink:href="#m95ec13bc62" y="183.043552"/>
     <use style="fill-opacity:0;stroke:#000080;stroke-width:1.5;" x="333.429677" xlink:href="#m95ec13bc62" y="183.043552"/>
    </g>
   </g>
   <g id="line2d_26">
    <path style="fill:none;stroke:#000080;stroke-linecap:square;stroke-width:1.5;"/>
    <g/>
   </g>
   <g id="line2d_27">
    <path clip-path="url(#p3f9069f460)" d="M 230.347349 191.431285 
" style="fill:none;stroke:#000080;stroke-linecap:square;stroke-width:1.5;"/>
    <defs>
     <path d="M -12 12 
L 12 -12 
M -12 -12 
L 12 12 
" id="mcace5c2f68" style="stroke:#000080;stroke-width:3;"/>
    </defs>
    <g clip-path="url(#p3f9069f460)">
     <use style="fill:#000080;stroke:#000080;stroke-width:3;" x="230.347349" xlink:href="#mcace5c2f68" y="191.431285"/>
    </g>
   </g>
   <g id="line2d_28">
    <defs>
     <path d="M 0 1.5 
C 0.397805 1.5 0.77937 1.341951 1.06066 1.06066 
C 1.341951 0.77937 1.5 0.397805 1.5 0 
C 1.5 -0.397805 1.341951 -0.77937 1.06066 -1.06066 
C 0.77937 -1.341951 0.397805 -1.5 0 -1.5 
C -0.397805 -1.5 -0.77937 -1.341951 -1.06066 -1.06066 
C -1.341951 -0.77937 -1.5 -0.397805 -1.5 0 
C -1.5 0.397805 -1.341951 0.77937 -1.06066 1.06066 
C -0.77937 1.341951 -0.397805 1.5 0 1.5 
z
" id="m5a98cd6581" style="stroke:#ff00ff;"/>
    </defs>
    <g>
     <use style="fill:#ff00ff;stroke:#ff00ff;" x="273.115688" xlink:href="#m5a98cd6581" y="233.369954"/>
     <use style="fill:#ff00ff;stroke:#ff00ff;" x="273.115688" xlink:href="#m5a98cd6581" y="233.369954"/>
    </g>
   </g>
   <g id="line2d_29">
    <path d="M 4.578827 294.88 
L 4.578827 289.288178 
L 117.484799 289.288178 
L 117.484799 288.728995 
L 128.70341 288.728995 
L 128.70341 287.051449 
L 131.120651 287.051449 
L 131.120651 286.492266 
L 131.789513 286.492266 
L 131.789513 285.933084 
L 133.926115 285.933084 
L 133.926115 285.373902 
L 134.139727 285.373902 
L 134.139727 284.81472 
L 134.486943 284.81472 
L 134.486943 284.255537 
L 135.20447 284.255537 
L 135.20447 283.137173 
L 135.607493 283.137173 
L 135.607493 282.018808 
L 136.207142 282.018808 
L 136.207142 281.459626 
L 136.841902 281.459626 
L 136.841902 280.900444 
L 136.998954 280.900444 
L 136.998954 279.782079 
L 137.224162 279.782079 
L 137.224162 279.222897 
L 137.882621 279.222897 
L 137.882621 278.104533 
L 138.538262 278.104533 
L 138.538262 276.986168 
L 138.751372 276.986168 
L 138.751372 276.426986 
L 139.20425 276.426986 
L 139.20425 275.867804 
L 139.625393 275.867804 
L 139.625393 275.308622 
L 139.911537 275.308622 
L 139.951088 274.190257 
L 140.867787 274.190257 
L 140.867787 273.631075 
L 142.171764 273.631075 
L 142.171764 273.071893 
L 142.628608 273.071893 
L 142.628608 272.51271 
L 143.150344 272.51271 
L 143.150344 270.835164 
L 143.566241 270.835164 
L 143.566241 269.716799 
L 143.736167 269.716799 
L 143.736167 269.157617 
L 143.98795 269.157617 
L 143.98795 268.598435 
L 144.676951 268.598435 
L 144.676951 268.039252 
L 144.984366 268.039252 
L 144.984366 267.48007 
L 145.459347 267.48007 
L 145.478459 266.361706 
L 145.786077 266.361706 
L 145.786077 265.802523 
L 146.25798 265.802523 
L 146.362624 264.684159 
L 146.41697 264.684159 
L 146.484661 263.565795 
L 146.632651 263.565795 
L 146.632651 261.888248 
L 147.294037 261.888248 
L 147.294037 261.329066 
L 147.926795 261.329066 
L 147.926795 260.769883 
L 148.193925 260.769883 
L 148.193925 260.210701 
L 148.533107 260.210701 
L 148.533107 259.651519 
L 148.943989 259.651519 
L 148.943989 259.092337 
L 150.106259 259.092337 
L 150.106259 257.41479 
L 150.406489 257.41479 
L 150.44231 255.737243 
L 151.820535 255.737243 
L 151.820535 254.618879 
L 155.094973 254.618879 
L 155.094973 254.059696 
L 155.77228 254.059696 
L 155.77228 253.500514 
L 230.415449 253.500514 
L 230.525662 245.112781 
L 230.53128 245.112781 
L 230.593807 240.08014 
L 242.307744 240.08014 
L 242.380802 236.725047 
L 249.303886 236.725047 
L 249.311601 235.606682 
L 254.236227 235.606682 
L 254.245873 233.929136 
L 273.115688 233.929136 
L 273.115688 233.369954 
L 333.429677 233.369954 
L 333.429677 233.369954 
" style="fill:none;stroke:#ff00ff;stroke-linecap:square;stroke-width:1.5;"/>
   </g>
   <g id="line2d_30">
    <defs>
     <path d="M -0 8.485281 
L 5.091169 0 
L 0 -8.485281 
L -5.091169 -0 
z
" id="m77334b87b8" style="stroke:#ff00ff;stroke-linejoin:miter;stroke-width:1.5;"/>
    </defs>
    <g>
     <use style="fill-opacity:0;stroke:#ff00ff;stroke-linejoin:miter;stroke-width:1.5;" x="143.566241" xlink:href="#m77334b87b8" y="270.835164"/>
     <use style="fill-opacity:0;stroke:#ff00ff;stroke-linejoin:miter;stroke-width:1.5;" x="155.77228" xlink:href="#m77334b87b8" y="253.500514"/>
     <use style="fill-opacity:0;stroke:#ff00ff;stroke-linejoin:miter;stroke-width:1.5;" x="273.115688" xlink:href="#m77334b87b8" y="233.929136"/>
     <use style="fill-opacity:0;stroke:#ff00ff;stroke-linejoin:miter;stroke-width:1.5;" x="273.115688" xlink:href="#m77334b87b8" y="233.369954"/>
     <use style="fill-opacity:0;stroke:#ff00ff;stroke-linejoin:miter;stroke-width:1.5;" x="333.429677" xlink:href="#m77334b87b8" y="233.369954"/>
    </g>
   </g>
   <g id="line2d_31">
    <path style="fill:none;stroke:#ff00ff;stroke-linecap:square;stroke-width:1.5;"/>
    <g/>
   </g>
   <g id="line2d_32">
    <path clip-path="url(#p3f9069f460)" d="M 230.347349 253.500514 
" style="fill:none;stroke:#ff00ff;stroke-linecap:square;stroke-width:1.5;"/>
    <defs>
     <path d="M -12 12 
L 12 -12 
M -12 -12 
L 12 12 
" id="m7a9da90099" style="stroke:#ff00ff;stroke-width:3;"/>
    </defs>
    <g clip-path="url(#p3f9069f460)">
     <use style="fill:#ff00ff;stroke:#ff00ff;stroke-width:3;" x="230.347349" xlink:href="#m7a9da90099" y="253.500514"/>
    </g>
   </g>
   <g id="line2d_33">
    <defs>
     <path d="M 0 1.5 
C 0.397805 1.5 0.77937 1.341951 1.06066 1.06066 
C 1.341951 0.77937 1.5 0.397805 1.5 0 
C 1.5 -0.397805 1.341951 -0.77937 1.06066 -1.06066 
C 0.77937 -1.341951 0.397805 -1.5 0 -1.5 
C -0.397805 -1.5 -0.77937 -1.341951 -1.06066 -1.06066 
C -1.341951 -0.77937 -1.5 -0.397805 -1.5 0 
C -1.5 0.397805 -1.341951 0.77937 -1.06066 1.06066 
C -0.77937 1.341951 -0.397805 1.5 0 1.5 
z
" id="m209ad865d1" style="stroke:#ffa500;"/>
    </defs>
    <g>
     <use style="fill:#ffa500;stroke:#ffa500;" x="288.298715" xlink:href="#m209ad865d1" y="9.697057"/>
     <use style="fill:#ffa500;stroke:#ffa500;" x="288.298715" xlink:href="#m209ad865d1" y="9.697057"/>
    </g>
   </g>
   <g id="line2d_34">
    <path d="M 4.578827 294.88 
L 4.578827 289.288178 
L 124.605962 289.288178 
L 124.605962 288.728995 
L 127.415727 288.728995 
L 127.415727 287.610631 
L 128.319357 287.610631 
L 128.319357 287.051449 
L 130.720002 287.051449 
L 130.720002 286.492266 
L 131.436745 286.492266 
L 131.533674 284.81472 
L 132.796414 284.81472 
L 132.84624 283.137173 
L 134.756195 283.137173 
L 134.756195 282.577991 
L 134.986187 282.577991 
L 134.986187 282.018808 
L 136.361959 282.018808 
L 136.361959 281.459626 
L 137.560324 281.459626 
L 137.560324 280.341262 
L 137.785817 280.341262 
L 137.785817 279.782079 
L 138.111285 279.782079 
L 138.111285 279.222897 
L 138.545409 279.222897 
L 138.545409 278.663715 
L 138.849927 278.663715 
L 138.849927 278.104533 
L 139.531193 278.104533 
L 139.531193 277.545351 
L 139.652212 277.545351 
L 139.652212 276.426986 
L 140.127953 276.426986 
L 140.127953 274.190257 
L 140.874029 274.190257 
L 140.874029 273.071893 
L 141.152581 273.071893 
L 141.152581 272.51271 
L 141.31149 272.51271 
L 141.31149 271.394346 
L 141.432737 271.394346 
L 141.432737 269.716799 
L 142.298611 269.716799 
L 142.298611 269.157617 
L 142.712932 269.157617 
L 142.712932 268.598435 
L 142.897003 268.598435 
L 142.897003 268.039252 
L 144.034752 268.039252 
L 144.034752 267.48007 
L 144.230968 267.48007 
L 144.230968 265.802523 
L 144.949932 265.802523 
L 144.949932 265.243341 
L 145.174963 265.243341 
L 145.184681 264.124977 
L 145.502318 264.124977 
L 145.502318 263.565795 
L 145.687293 263.565795 
L 145.762608 262.44743 
L 145.991232 262.44743 
L 145.991232 261.329066 
L 146.148103 261.329066 
L 146.148103 260.769883 
L 146.990592 260.769883 
L 146.990592 259.651519 
L 147.332666 259.651519 
L 147.332666 259.092337 
L 147.731023 259.092337 
L 147.731023 258.533154 
L 148.108074 258.533154 
L 148.132647 257.41479 
L 148.680414 257.41479 
L 148.680414 256.855608 
L 149.700117 256.855608 
L 149.733709 255.737243 
L 149.88222 255.737243 
L 149.919148 254.059696 
L 151.133192 254.059696 
L 151.133192 253.500514 
L 152.62706 253.500514 
L 152.633362 252.38215 
L 152.880468 252.38215 
L 152.880468 251.822967 
L 153.427574 251.822967 
L 153.427574 251.263785 
L 154.429685 251.263785 
L 154.429685 250.704603 
L 155.621995 250.704603 
L 155.621995 250.145421 
L 155.769655 250.145421 
L 155.769655 249.586238 
L 156.8434 249.586238 
L 156.8434 249.027056 
L 157.153846 249.027056 
L 157.180473 246.790327 
L 157.272143 246.790327 
L 157.272143 246.231145 
L 158.990284 246.231145 
L 158.990284 245.671963 
L 159.744276 245.671963 
L 159.744276 244.553598 
L 160.062243 244.553598 
L 160.062243 243.994416 
L 160.356351 243.994416 
L 160.356351 243.435234 
L 161.48871 243.435234 
L 161.48871 242.876052 
L 163.484787 242.876052 
L 163.484787 241.198505 
L 164.065096 241.198505 
L 164.123358 238.961776 
L 164.446659 238.961776 
L 164.446659 238.402594 
L 164.897344 238.402594 
L 164.897344 237.843411 
L 165.332007 237.843411 
L 165.332007 237.284229 
L 166.410445 237.284229 
L 166.462703 234.488318 
L 166.614338 234.488318 
L 166.614338 233.929136 
L 167.155109 233.929136 
L 167.156463 232.810771 
L 167.423919 232.810771 
L 167.423919 231.692407 
L 167.953139 231.692407 
L 167.953139 230.574042 
L 168.149871 230.574042 
L 168.149871 230.01486 
L 168.635187 230.01486 
L 168.635187 228.337313 
L 169.01868 228.337313 
L 169.01868 227.778131 
L 169.219287 227.778131 
L 169.230097 226.659767 
L 169.346172 226.659767 
L 169.34975 224.98222 
L 170.500397 224.98222 
L 170.519346 223.304673 
L 170.772582 223.304673 
L 170.772582 222.745491 
L 171.02431 222.745491 
L 171.02431 222.186309 
L 171.280935 222.186309 
L 171.280935 221.067944 
L 171.797466 221.067944 
L 171.797466 219.94958 
L 172.053088 219.94958 
L 172.112089 218.272033 
L 172.405095 218.272033 
L 172.481798 217.153669 
L 173.180079 217.153669 
L 173.180079 216.035304 
L 174.096278 216.035304 
L 174.096278 215.476122 
L 174.388775 215.476122 
L 174.388775 214.91694 
L 174.689501 214.91694 
L 174.714835 213.798575 
L 174.998804 213.798575 
L 174.998804 212.680211 
L 175.229093 212.680211 
L 175.229093 212.121028 
L 175.853069 212.121028 
L 175.853069 211.561846 
L 230.427954 211.561846 
L 230.530361 198.700655 
L 230.569469 198.700655 
L 230.673471 191.431285 
L 230.708718 191.431285 
L 230.810577 183.602734 
L 230.827618 183.602734 
L 230.930342 177.451729 
L 230.956732 177.451729 
L 231.057072 174.096636 
L 231.068625 174.096636 
L 231.068625 173.537454 
L 242.31885 173.537454 
L 242.428931 158.998715 
L 242.430602 158.998715 
L 242.540414 144.459977 
L 242.544327 144.459977 
L 242.618733 137.74979 
L 249.29572 137.74979 
L 249.402489 118.178412 
L 249.406865 118.178412 
L 249.492627 109.231496 
L 254.234639 109.231496 
L 254.340876 89.660118 
L 254.351665 89.660118 
L 254.369867 86.864206 
L 258.074327 86.864206 
L 258.1767 69.529557 
L 261.201001 69.529557 
L 261.275445 60.023459 
L 263.847214 60.023459 
L 263.935271 49.958178 
L 266.149917 49.958178 
L 266.189559 43.807174 
L 268.173297 43.807174 
L 268.216065 38.774534 
L 269.981482 38.774534 
L 270.024504 32.623529 
L 271.619603 32.623529 
L 271.664359 28.709253 
L 273.115714 28.709253 
L 273.150467 22.558249 
L 274.505123 22.558249 
L 274.526188 19.762337 
L 275.765588 19.762337 
L 275.783657 17.525609 
L 276.95273 17.525609 
L 276.970263 16.407244 
L 278.092405 16.407244 
L 278.092405 15.848062 
L 279.110965 15.848062 
L 279.112447 14.729697 
L 280.102117 14.729697 
L 280.107984 13.611333 
L 281.028304 13.611333 
L 281.028304 13.052151 
L 281.900224 13.052151 
L 281.900224 12.492968 
L 283.552711 12.492968 
L 283.552711 11.933786 
L 285.739448 11.933786 
L 285.741307 10.815422 
L 288.295283 10.815422 
L 288.298715 9.697057 
L 333.429677 9.697057 
L 333.429677 9.697057 
" style="fill:none;stroke:#ffa500;stroke-linecap:square;stroke-width:1.5;"/>
   </g>
   <g id="line2d_35">
    <defs>
     <path d="M 0 -6 
L -1.347084 -1.854102 
L -5.706339 -1.854102 
L -2.179628 0.708204 
L -3.526712 4.854102 
L -0 2.291796 
L 3.526712 4.854102 
L 2.179628 0.708204 
L 5.706339 -1.854102 
L 1.347084 -1.854102 
z
" id="m566e7d6435" style="stroke:#ffa500;stroke-linejoin:bevel;stroke-width:1.5;"/>
    </defs>
    <g>
     <use style="fill-opacity:0;stroke:#ffa500;stroke-linejoin:bevel;stroke-width:1.5;" x="175.853069" xlink:href="#m566e7d6435" y="211.561846"/>
     <use style="fill-opacity:0;stroke:#ffa500;stroke-linejoin:bevel;stroke-width:1.5;" x="249.380171" xlink:href="#m566e7d6435" y="120.415141"/>
     <use style="fill-opacity:0;stroke:#ffa500;stroke-linejoin:bevel;stroke-width:1.5;" x="288.298715" xlink:href="#m566e7d6435" y="9.697057"/>
     <use style="fill-opacity:0;stroke:#ffa500;stroke-linejoin:bevel;stroke-width:1.5;" x="288.298715" xlink:href="#m566e7d6435" y="9.697057"/>
     <use style="fill-opacity:0;stroke:#ffa500;stroke-linejoin:bevel;stroke-width:1.5;" x="333.429677" xlink:href="#m566e7d6435" y="9.697057"/>
    </g>
   </g>
   <g id="line2d_36">
    <path style="fill:none;stroke:#ffa500;stroke-linecap:square;stroke-width:1.5;"/>
    <g/>
   </g>
   <g id="line2d_37">
    <path clip-path="url(#p3f9069f460)" d="M 230.347349 211.561846 
" style="fill:none;stroke:#ffa500;stroke-linecap:square;stroke-width:1.5;"/>
    <defs>
     <path d="M -12 12 
L 12 -12 
M -12 -12 
L 12 12 
" id="m21e44bfd0d" style="stroke:#ffa500;stroke-width:3;"/>
    </defs>
    <g clip-path="url(#p3f9069f460)">
     <use style="fill:#ffa500;stroke:#ffa500;stroke-width:3;" x="230.347349" xlink:href="#m21e44bfd0d" y="211.561846"/>
    </g>
   </g>
   <g id="line2d_38">
    <defs>
     <path d="M 0 1.5 
C 0.397805 1.5 0.77937 1.341951 1.06066 1.06066 
C 1.341951 0.77937 1.5 0.397805 1.5 0 
C 1.5 -0.397805 1.341951 -0.77937 1.06066 -1.06066 
C 0.77937 -1.341951 0.397805 -1.5 0 -1.5 
C -0.397805 -1.5 -0.77937 -1.341951 -1.06066 -1.06066 
C -1.341951 -0.77937 -1.5 -0.397805 -1.5 0 
C -1.5 0.397805 -1.341951 0.77937 -1.06066 1.06066 
C -0.77937 1.341951 -0.397805 1.5 0 1.5 
z
" id="m48d7660518" style="stroke:#6495ed;"/>
    </defs>
    <g>
     <use style="fill:#6495ed;stroke:#6495ed;" x="230.885544" xlink:href="#m48d7660518" y="244.553598"/>
     <use style="fill:#6495ed;stroke:#6495ed;" x="230.885544" xlink:href="#m48d7660518" y="244.553598"/>
    </g>
   </g>
   <g id="line2d_39">
    <path d="M 132.412946 294.88 
L 132.412946 293.761636 
L 134.468842 293.761636 
L 134.468842 293.202453 
L 135.161034 293.202453 
L 135.161034 291.524907 
L 135.385712 291.524907 
L 135.385712 288.728995 
L 136.133319 288.728995 
L 136.133319 288.169813 
L 136.370069 288.169813 
L 136.370069 287.610631 
L 136.402469 287.610631 
L 136.402469 285.373902 
L 136.539496 285.373902 
L 136.539496 284.81472 
L 137.763401 284.81472 
L 137.763401 284.255537 
L 137.770876 284.255537 
L 137.770876 281.459626 
L 137.815661 281.459626 
L 137.815661 279.782079 
L 137.971497 279.782079 
L 137.971497 276.986168 
L 138.552552 276.986168 
L 138.552552 274.749439 
L 139.732422 274.749439 
L 139.732422 273.631075 
L 139.85866 273.631075 
L 139.85866 271.394346 
L 140.010246 271.394346 
L 140.010246 270.835164 
L 140.373834 270.835164 
L 140.373834 269.716799 
L 140.489088 269.716799 
L 140.489088 269.157617 
L 140.527335 269.157617 
L 140.527335 268.039252 
L 140.660535 268.039252 
L 140.660535 267.48007 
L 141.03552 267.48007 
L 141.03552 264.124977 
L 141.262751 264.124977 
L 141.262751 263.565795 
L 141.323654 263.565795 
L 141.323654 262.44743 
L 141.499061 262.44743 
L 141.499061 261.329066 
L 141.630945 261.329066 
L 141.630945 260.769883 
L 141.714348 260.769883 
L 141.714348 259.092337 
L 141.832799 259.092337 
L 141.832799 257.41479 
L 141.95044 257.41479 
L 141.95044 255.737243 
L 142.00896 255.737243 
L 142.00896 255.178061 
L 142.333043 255.178061 
L 142.333043 254.618879 
L 142.378847 254.618879 
L 142.378847 253.500514 
L 142.401703 253.500514 
L 142.401703 252.941332 
L 142.712932 252.941332 
L 142.712932 252.38215 
L 143.172199 252.38215 
L 143.172199 251.822967 
L 144.460471 251.822967 
L 144.460471 250.704603 
L 144.681953 250.704603 
L 144.681953 250.145421 
L 167.668884 250.145421 
L 167.668884 249.586238 
L 168.58415 249.586238 
L 168.58415 248.467874 
L 171.006992 248.467874 
L 171.006992 247.908692 
L 171.75812 247.908692 
L 171.75812 247.34951 
L 172.183029 247.34951 
L 172.183029 246.790327 
L 174.216211 246.790327 
L 174.216211 246.231145 
L 175.324565 246.231145 
L 175.324565 245.671963 
L 176.454415 245.671963 
L 176.454415 245.112781 
L 230.885544 245.112781 
L 230.885544 244.553598 
L 333.429677 244.553598 
" style="fill:none;stroke:#6495ed;stroke-linecap:square;stroke-width:1.5;"/>
   </g>
   <g id="line2d_40">
    <defs>
     <path d="M -0 6 
L 6 -6 
L -6 -6 
z
" id="m49b58e8638" style="stroke:#6495ed;stroke-linejoin:miter;stroke-width:1.5;"/>
    </defs>
    <g>
     <use style="fill-opacity:0;stroke:#6495ed;stroke-linejoin:miter;stroke-width:1.5;" x="141.95044" xlink:href="#m49b58e8638" y="257.41479"/>
     <use style="fill-opacity:0;stroke:#6495ed;stroke-linejoin:miter;stroke-width:1.5;" x="176.454415" xlink:href="#m49b58e8638" y="245.671963"/>
     <use style="fill-opacity:0;stroke:#6495ed;stroke-linejoin:miter;stroke-width:1.5;" x="230.885544" xlink:href="#m49b58e8638" y="245.112781"/>
     <use style="fill-opacity:0;stroke:#6495ed;stroke-linejoin:miter;stroke-width:1.5;" x="230.885544" xlink:href="#m49b58e8638" y="244.553598"/>
     <use style="fill-opacity:0;stroke:#6495ed;stroke-linejoin:miter;stroke-width:1.5;" x="333.429677" xlink:href="#m49b58e8638" y="244.553598"/>
    </g>
   </g>
   <g id="line2d_41">
    <path style="fill:none;stroke:#6495ed;stroke-linecap:square;stroke-width:1.5;"/>
    <g/>
   </g>
   <g id="line2d_42">
    <path clip-path="url(#p3f9069f460)" d="M 230.347349 245.112781 
" style="fill:none;stroke:#6495ed;stroke-linecap:square;stroke-width:1.5;"/>
    <defs>
     <path d="M -12 12 
L 12 -12 
M -12 -12 
L 12 12 
" id="mb38dc20f0f" style="stroke:#6495ed;stroke-width:3;"/>
    </defs>
    <g clip-path="url(#p3f9069f460)">
     <use style="fill:#6495ed;stroke:#6495ed;stroke-width:3;" x="230.347349" xlink:href="#mb38dc20f0f" y="245.112781"/>
    </g>
   </g>
   <g id="line2d_43">
    <defs>
     <path d="M 0 1.5 
C 0.397805 1.5 0.77937 1.341951 1.06066 1.06066 
C 1.341951 0.77937 1.5 0.397805 1.5 0 
C 1.5 -0.397805 1.341951 -0.77937 1.06066 -1.06066 
C 0.77937 -1.341951 0.397805 -1.5 0 -1.5 
C -0.397805 -1.5 -0.77937 -1.341951 -1.06066 -1.06066 
C -1.341951 -0.77937 -1.5 -0.397805 -1.5 0 
C -1.5 0.397805 -1.341951 0.77937 -1.06066 1.06066 
C -0.77937 1.341951 -0.397805 1.5 0 1.5 
z
" id="m7b64b191fc" style="stroke:#ff0000;"/>
    </defs>
    <g>
     <use style="fill:#ff0000;stroke:#ff0000;" x="274.610009" xlink:href="#m7b64b191fc" y="266.920888"/>
     <use style="fill:#ff0000;stroke:#ff0000;" x="274.610009" xlink:href="#m7b64b191fc" y="266.920888"/>
    </g>
   </g>
   <g id="line2d_44">
    <path d="M 175.80971 294.88 
L 175.80971 294.320818 
L 182.378438 294.320818 
L 182.378438 293.761636 
L 182.642561 293.761636 
L 182.642561 292.643271 
L 184.349558 292.643271 
L 184.349558 291.524907 
L 185.127997 291.524907 
L 185.127997 290.965724 
L 185.161325 290.965724 
L 185.161325 290.406542 
L 185.244837 290.406542 
L 185.244837 289.84736 
L 186.436615 289.84736 
L 186.436615 289.288178 
L 187.580939 289.288178 
L 187.580939 288.728995 
L 188.226169 288.728995 
L 188.226169 288.169813 
L 189.59337 288.169813 
L 189.59337 287.051449 
L 189.726306 287.051449 
L 189.726306 285.933084 
L 190.151121 285.933084 
L 190.151121 285.373902 
L 190.176372 285.373902 
L 190.176372 283.696355 
L 190.421608 283.696355 
L 190.421608 283.137173 
L 190.889566 283.137173 
L 190.889566 282.018808 
L 191.685085 282.018808 
L 191.685085 281.459626 
L 192.370837 281.459626 
L 192.370837 279.782079 
L 192.518482 279.782079 
L 192.518482 279.222897 
L 192.972097 279.222897 
L 192.972097 278.663715 
L 193.958856 278.663715 
L 193.958856 277.545351 
L 197.562506 277.545351 
L 197.562506 276.986168 
L 231.821909 276.986168 
L 231.821909 276.426986 
L 231.935172 276.426986 
L 231.935172 275.867804 
L 231.946401 275.867804 
L 231.946401 275.308622 
L 232.081234 275.308622 
L 232.081234 274.749439 
L 243.09095 274.749439 
L 243.09095 274.190257 
L 243.193982 274.190257 
L 243.193982 273.631075 
L 249.754519 273.631075 
L 249.754519 273.071893 
L 249.798524 273.071893 
L 249.798524 270.835164 
L 249.868359 270.835164 
L 249.868359 270.275981 
L 249.939652 270.275981 
L 249.939652 269.716799 
L 254.647085 269.716799 
L 254.647085 269.157617 
L 264.084319 269.157617 
L 264.084319 268.598435 
L 264.111784 268.598435 
L 264.111784 268.039252 
L 268.304902 268.039252 
L 268.304902 267.48007 
L 274.610009 267.48007 
L 274.610009 266.920888 
L 333.429677 266.920888 
" style="fill:none;stroke:#ff0000;stroke-linecap:square;stroke-width:1.5;"/>
   </g>
   <g id="line2d_45">
    <defs>
     <path d="M 0 -6 
L -5.196152 -3 
L -5.196152 3 
L -0 6 
L 5.196152 3 
L 5.196152 -3 
z
" id="mf4cf034556" style="stroke:#ff0000;stroke-linejoin:miter;stroke-width:1.5;"/>
    </defs>
    <g>
     <use style="fill-opacity:0;stroke:#ff0000;stroke-linejoin:miter;stroke-width:1.5;" x="197.562506" xlink:href="#mf4cf034556" y="277.545351"/>
     <use style="fill-opacity:0;stroke:#ff0000;stroke-linejoin:miter;stroke-width:1.5;" x="274.610009" xlink:href="#mf4cf034556" y="267.48007"/>
     <use style="fill-opacity:0;stroke:#ff0000;stroke-linejoin:miter;stroke-width:1.5;" x="274.610009" xlink:href="#mf4cf034556" y="266.920888"/>
     <use style="fill-opacity:0;stroke:#ff0000;stroke-linejoin:miter;stroke-width:1.5;" x="333.429677" xlink:href="#mf4cf034556" y="266.920888"/>
    </g>
   </g>
   <g id="line2d_46">
    <path style="fill:none;stroke:#ff0000;stroke-linecap:square;stroke-width:1.5;"/>
    <g/>
   </g>
   <g id="line2d_47">
    <path clip-path="url(#p3f9069f460)" d="M 230.347349 276.986168 
" style="fill:none;stroke:#ff0000;stroke-linecap:square;stroke-width:1.5;"/>
    <defs>
     <path d="M -12 12 
L 12 -12 
M -12 -12 
L 12 12 
" id="mf023bdcc42" style="stroke:#ff0000;stroke-width:3;"/>
    </defs>
    <g clip-path="url(#p3f9069f460)">
     <use style="fill:#ff0000;stroke:#ff0000;stroke-width:3;" x="230.347349" xlink:href="#mf023bdcc42" y="276.986168"/>
    </g>
   </g>
   <g id="line2d_48">
    <path d="M 333.429677 266.920888 
L 363.933742 289.176341 
" style="fill:none;stroke:#ff0000;stroke-linecap:square;stroke-width:1.5;"/>
    <g>
     <use style="fill-opacity:0;stroke:#ff0000;stroke-linejoin:miter;stroke-width:1.5;" x="333.429677" xlink:href="#mf4cf034556" y="266.920888"/>
     <use style="fill-opacity:0;stroke:#ff0000;stroke-linejoin:miter;stroke-width:1.5;" x="363.933742" xlink:href="#mf4cf034556" y="289.176341"/>
    </g>
   </g>
   <g id="line2d_49">
    <path d="M 333.429677 244.553598 
L 363.933742 220.732435 
" style="fill:none;stroke:#6495ed;stroke-linecap:square;stroke-width:1.5;"/>
    <g>
     <use style="fill-opacity:0;stroke:#6495ed;stroke-linejoin:miter;stroke-width:1.5;" x="333.429677" xlink:href="#m49b58e8638" y="244.553598"/>
     <use style="fill-opacity:0;stroke:#6495ed;stroke-linejoin:miter;stroke-width:1.5;" x="363.933742" xlink:href="#m49b58e8638" y="220.732435"/>
    </g>
   </g>
   <g id="line2d_50">
    <path d="M 333.429677 233.369954 
L 363.933742 152.288529 
" style="fill:none;stroke:#ff00ff;stroke-linecap:square;stroke-width:1.5;"/>
    <g>
     <use style="fill-opacity:0;stroke:#ff00ff;stroke-linejoin:miter;stroke-width:1.5;" x="333.429677" xlink:href="#m77334b87b8" y="233.369954"/>
     <use style="fill-opacity:0;stroke:#ff00ff;stroke-linejoin:miter;stroke-width:1.5;" x="363.933742" xlink:href="#m77334b87b8" y="152.288529"/>
    </g>
   </g>
   <g id="line2d_51">
    <path d="M 333.429677 183.043552 
L 363.933742 83.844622 
" style="fill:none;stroke:#000080;stroke-linecap:square;stroke-width:1.5;"/>
    <g>
     <use style="fill-opacity:0;stroke:#000080;stroke-width:1.5;" x="333.429677" xlink:href="#m95ec13bc62" y="183.043552"/>
     <use style="fill-opacity:0;stroke:#000080;stroke-width:1.5;" x="363.933742" xlink:href="#m95ec13bc62" y="83.844622"/>
    </g>
   </g>
   <g id="line2d_52">
    <path d="M 333.429677 9.697057 
L 363.933742 15.400716 
" style="fill:none;stroke:#ffa500;stroke-linecap:square;stroke-width:1.5;"/>
    <g>
     <use style="fill-opacity:0;stroke:#ffa500;stroke-linejoin:bevel;stroke-width:1.5;" x="333.429677" xlink:href="#m566e7d6435" y="9.697057"/>
     <use style="fill-opacity:0;stroke:#ffa500;stroke-linejoin:bevel;stroke-width:1.5;" x="363.933742" xlink:href="#m566e7d6435" y="15.400716"/>
    </g>
   </g>
   <g id="line2d_53">
    <path d="M 333.429677 294.88 
L 333.429677 9.697057 
" style="fill:none;stroke:#000000;stroke-linecap:square;stroke-width:1.5;"/>
   </g>
   <g id="patch_3">
    <path d="M 56.12 294.88 
L 56.12 6.845228 
" style="fill:none;stroke:#000000;stroke-linecap:square;stroke-linejoin:miter;stroke-width:0.8;"/>
   </g>
   <g id="patch_4">
    <path d="M 399.984 294.88 
L 399.984 6.845228 
" style="fill:none;stroke:#000000;stroke-linecap:square;stroke-linejoin:miter;stroke-width:0.8;"/>
   </g>
   <g id="patch_5">
    <path d="M 56.12 294.88 
L 399.984 294.88 
" style="fill:none;stroke:#000000;stroke-linecap:square;stroke-linejoin:miter;stroke-width:0.8;"/>
   </g>
   <g id="patch_6">
    <path d="M 56.12 6.845228 
L 399.984 6.845228 
" style="fill:none;stroke:#000000;stroke-linecap:square;stroke-linejoin:miter;stroke-width:0.8;"/>
   </g>
   <g id="text_14">
    <!-- f24 -->
    <g transform="translate(369.479935 293.867279)scale(0.17 -0.17)">
     <use xlink:href="#DejaVuSans-66"/>
     <use x="35.205078" xlink:href="#DejaVuSans-32"/>
     <use x="98.828125" xlink:href="#DejaVuSans-34"/>
    </g>
   </g>
   <g id="text_15">
    <!-- f20 -->
    <g transform="translate(369.479935 225.423372)scale(0.17 -0.17)">
     <use xlink:href="#DejaVuSans-66"/>
     <use x="35.205078" xlink:href="#DejaVuSans-32"/>
     <use x="98.828125" xlink:href="#DejaVuSans-30"/>
    </g>
   </g>
   <g id="text_16">
    <!-- f22 -->
    <g transform="translate(369.479935 156.979466)scale(0.17 -0.17)">
     <use xlink:href="#DejaVuSans-66"/>
     <use x="35.205078" xlink:href="#DejaVuSans-32"/>
     <use x="98.828125" xlink:href="#DejaVuSans-32"/>
    </g>
   </g>
   <g id="text_17">
    <!-- f23 -->
    <defs>
     <path d="M 40.578125 39.3125 
Q 47.65625 37.796875 51.625 33 
Q 55.609375 28.21875 55.609375 21.1875 
Q 55.609375 10.40625 48.1875 4.484375 
Q 40.765625 -1.421875 27.09375 -1.421875 
Q 22.515625 -1.421875 17.65625 -0.515625 
Q 12.796875 0.390625 7.625 2.203125 
L 7.625 11.71875 
Q 11.71875 9.328125 16.59375 8.109375 
Q 21.484375 6.890625 26.8125 6.890625 
Q 36.078125 6.890625 40.9375 10.546875 
Q 45.796875 14.203125 45.796875 21.1875 
Q 45.796875 27.640625 41.28125 31.265625 
Q 36.765625 34.90625 28.71875 34.90625 
L 20.21875 34.90625 
L 20.21875 43.015625 
L 29.109375 43.015625 
Q 36.375 43.015625 40.234375 45.921875 
Q 44.09375 48.828125 44.09375 54.296875 
Q 44.09375 59.90625 40.109375 62.90625 
Q 36.140625 65.921875 28.71875 65.921875 
Q 24.65625 65.921875 20.015625 65.03125 
Q 15.375 64.15625 9.8125 62.3125 
L 9.8125 71.09375 
Q 15.4375 72.65625 20.34375 73.4375 
Q 25.25 74.21875 29.59375 74.21875 
Q 40.828125 74.21875 47.359375 69.109375 
Q 53.90625 64.015625 53.90625 55.328125 
Q 53.90625 49.265625 50.4375 45.09375 
Q 46.96875 40.921875 40.578125 39.3125 
z
" id="DejaVuSans-33"/>
    </defs>
    <g transform="translate(369.479935 88.53556)scale(0.17 -0.17)">
     <use xlink:href="#DejaVuSans-66"/>
     <use x="35.205078" xlink:href="#DejaVuSans-32"/>
     <use x="98.828125" xlink:href="#DejaVuSans-33"/>
    </g>
   </g>
   <g id="text_18">
    <!-- f21 -->
    <g transform="translate(369.479935 20.091654)scale(0.17 -0.17)">
     <use xlink:href="#DejaVuSans-66"/>
     <use x="35.205078" xlink:href="#DejaVuSans-32"/>
     <use x="98.828125" xlink:href="#DejaVuSans-31"/>
    </g>
   </g>
   <g id="text_19">
    <!-- bbob -->
    <defs>
     <path d="M 48.6875 27.296875 
Q 48.6875 37.203125 44.609375 42.84375 
Q 40.53125 48.484375 33.40625 48.484375 
Q 26.265625 48.484375 22.1875 42.84375 
Q 18.109375 37.203125 18.109375 27.296875 
Q 18.109375 17.390625 22.1875 11.75 
Q 26.265625 6.109375 33.40625 6.109375 
Q 40.53125 6.109375 44.609375 11.75 
Q 48.6875 17.390625 48.6875 27.296875 
z
M 18.109375 46.390625 
Q 20.953125 51.265625 25.265625 53.625 
Q 29.59375 56 35.59375 56 
Q 45.5625 56 51.78125 48.09375 
Q 58.015625 40.1875 58.015625 27.296875 
Q 58.015625 14.40625 51.78125 6.484375 
Q 45.5625 -1.421875 35.59375 -1.421875 
Q 29.59375 -1.421875 25.265625 0.953125 
Q 20.953125 3.328125 18.109375 8.203125 
L 18.109375 0 
L 9.078125 0 
L 9.078125 75.984375 
L 18.109375 75.984375 
z
" id="DejaVuSans-62"/>
    </defs>
    <g transform="translate(59.55864 17.475982)scale(0.102 -0.102)">
     <use xlink:href="#DejaVuSans-62"/>
     <use x="63.476562" xlink:href="#DejaVuSans-62"/>
     <use x="126.953125" xlink:href="#DejaVuSans-6f"/>
     <use x="188.134766" xlink:href="#DejaVuSans-62"/>
    </g>
    <!-- Weak structure functions, 40-D -->
    <defs>
     <path d="M 3.328125 72.90625 
L 13.28125 72.90625 
L 28.609375 11.28125 
L 43.890625 72.90625 
L 54.984375 72.90625 
L 70.3125 11.28125 
L 85.59375 72.90625 
L 95.609375 72.90625 
L 77.296875 0 
L 64.890625 0 
L 49.515625 63.28125 
L 33.984375 0 
L 21.578125 0 
z
" id="DejaVuSans-57"/>
     <path d="M 9.078125 75.984375 
L 18.109375 75.984375 
L 18.109375 31.109375 
L 44.921875 54.6875 
L 56.390625 54.6875 
L 27.390625 29.109375 
L 57.625 0 
L 45.90625 0 
L 18.109375 26.703125 
L 18.109375 0 
L 9.078125 0 
z
" id="DejaVuSans-6b"/>
     <path d="M 19.671875 64.796875 
L 19.671875 8.109375 
L 31.59375 8.109375 
Q 46.6875 8.109375 53.6875 14.9375 
Q 60.6875 21.78125 60.6875 36.53125 
Q 60.6875 51.171875 53.6875 57.984375 
Q 46.6875 64.796875 31.59375 64.796875 
z
M 9.8125 72.90625 
L 30.078125 72.90625 
Q 51.265625 72.90625 61.171875 64.09375 
Q 71.09375 55.28125 71.09375 36.53125 
Q 71.09375 17.671875 61.125 8.828125 
Q 51.171875 0 30.078125 0 
L 9.8125 0 
z
" id="DejaVuSans-44"/>
    </defs>
    <g transform="translate(59.55864 28.89775)scale(0.102 -0.102)">
     <use xlink:href="#DejaVuSans-57"/>
     <use x="98.798828" xlink:href="#DejaVuSans-65"/>
     <use x="160.322266" xlink:href="#DejaVuSans-61"/>
     <use x="221.601562" xlink:href="#DejaVuSans-6b"/>
     <use x="279.511719" xlink:href="#DejaVuSans-20"/>
     <use x="311.298828" xlink:href="#DejaVuSans-73"/>
     <use x="363.398438" xlink:href="#DejaVuSans-74"/>
     <use x="402.607422" xlink:href="#DejaVuSans-72"/>
     <use x="443.720703" xlink:href="#DejaVuSans-75"/>
     <use x="507.099609" xlink:href="#DejaVuSans-63"/>
     <use x="562.080078" xlink:href="#DejaVuSans-74"/>
     <use x="601.289062" xlink:href="#DejaVuSans-75"/>
     <use x="664.667969" xlink:href="#DejaVuSans-72"/>
     <use x="705.75" xlink:href="#DejaVuSans-65"/>
     <use x="767.273438" xlink:href="#DejaVuSans-20"/>
     <use x="799.060547" xlink:href="#DejaVuSans-66"/>
     <use x="834.265625" xlink:href="#DejaVuSans-75"/>
     <use x="897.644531" xlink:href="#DejaVuSans-6e"/>
     <use x="961.023438" xlink:href="#DejaVuSans-63"/>
     <use x="1016.003906" xlink:href="#DejaVuSans-74"/>
     <use x="1055.212891" xlink:href="#DejaVuSans-69"/>
     <use x="1082.996094" xlink:href="#DejaVuSans-6f"/>
     <use x="1144.177734" xlink:href="#DejaVuSans-6e"/>
     <use x="1207.556641" xlink:href="#DejaVuSans-73"/>
     <use x="1259.65625" xlink:href="#DejaVuSans-2c"/>
     <use x="1291.443359" xlink:href="#DejaVuSans-20"/>
     <use x="1323.230469" xlink:href="#DejaVuSans-34"/>
     <use x="1386.853516" xlink:href="#DejaVuSans-30"/>
     <use x="1450.476562" xlink:href="#DejaVuSans-2d"/>
     <use x="1486.560547" xlink:href="#DejaVuSans-44"/>
    </g>
    <!-- 51 targets: 100..1e-08 -->
    <defs>
     <path d="M 10.796875 72.90625 
L 49.515625 72.90625 
L 49.515625 64.59375 
L 19.828125 64.59375 
L 19.828125 46.734375 
Q 21.96875 47.46875 24.109375 47.828125 
Q 26.265625 48.1875 28.421875 48.1875 
Q 40.625 48.1875 47.75 41.5 
Q 54.890625 34.8125 54.890625 23.390625 
Q 54.890625 11.625 47.5625 5.09375 
Q 40.234375 -1.421875 26.90625 -1.421875 
Q 22.3125 -1.421875 17.546875 -0.640625 
Q 12.796875 0.140625 7.71875 1.703125 
L 7.71875 11.625 
Q 12.109375 9.234375 16.796875 8.0625 
Q 21.484375 6.890625 26.703125 6.890625 
Q 35.15625 6.890625 40.078125 11.328125 
Q 45.015625 15.765625 45.015625 23.390625 
Q 45.015625 31 40.078125 35.4375 
Q 35.15625 39.890625 26.703125 39.890625 
Q 22.75 39.890625 18.8125 39.015625 
Q 14.890625 38.140625 10.796875 36.28125 
z
" id="DejaVuSans-35"/>
     <path d="M 11.71875 12.40625 
L 22.015625 12.40625 
L 22.015625 0 
L 11.71875 0 
z
M 11.71875 51.703125 
L 22.015625 51.703125 
L 22.015625 39.3125 
L 11.71875 39.3125 
z
" id="DejaVuSans-3a"/>
    </defs>
    <g transform="translate(59.55864 40.319519)scale(0.102 -0.102)">
     <use xlink:href="#DejaVuSans-35"/>
     <use x="63.623047" xlink:href="#DejaVuSans-31"/>
     <use x="127.246094" xlink:href="#DejaVuSans-20"/>
     <use x="159.033203" xlink:href="#DejaVuSans-74"/>
     <use x="198.242188" xlink:href="#DejaVuSans-61"/>
     <use x="259.521484" xlink:href="#DejaVuSans-72"/>
     <use x="300.619141" xlink:href="#DejaVuSans-67"/>
     <use x="364.095703" xlink:href="#DejaVuSans-65"/>
     <use x="425.619141" xlink:href="#DejaVuSans-74"/>
     <use x="464.828125" xlink:href="#DejaVuSans-73"/>
     <use x="516.927734" xlink:href="#DejaVuSans-3a"/>
     <use x="550.619141" xlink:href="#DejaVuSans-20"/>
     <use x="582.40625" xlink:href="#DejaVuSans-31"/>
     <use x="646.029297" xlink:href="#DejaVuSans-30"/>
     <use x="709.652344" xlink:href="#DejaVuSans-30"/>
     <use x="773.275391" xlink:href="#DejaVuSans-2e"/>
     <use x="805.0625" xlink:href="#DejaVuSans-2e"/>
     <use x="836.849609" xlink:href="#DejaVuSans-31"/>
     <use x="900.472656" xlink:href="#DejaVuSans-65"/>
     <use x="961.996094" xlink:href="#DejaVuSans-2d"/>
     <use x="998.080078" xlink:href="#DejaVuSans-30"/>
     <use x="1061.703125" xlink:href="#DejaVuSans-38"/>
    </g>
    <!-- 15 instances -->
    <g transform="translate(59.55864 51.741288)scale(0.102 -0.102)">
     <use xlink:href="#DejaVuSans-31"/>
     <use x="63.623047" xlink:href="#DejaVuSans-35"/>
     <use x="127.246094" xlink:href="#DejaVuSans-20"/>
     <use x="159.033203" xlink:href="#DejaVuSans-69"/>
     <use x="186.816406" xlink:href="#DejaVuSans-6e"/>
     <use x="250.195312" xlink:href="#DejaVuSans-73"/>
     <use x="302.294922" xlink:href="#DejaVuSans-74"/>
     <use x="341.503906" xlink:href="#DejaVuSans-61"/>
     <use x="402.783203" xlink:href="#DejaVuSans-6e"/>
     <use x="466.162109" xlink:href="#DejaVuSans-63"/>
     <use x="521.142578" xlink:href="#DejaVuSans-65"/>
     <use x="582.666016" xlink:href="#DejaVuSans-73"/>
    </g>
   </g>
   <g id="text_20">
    <!-- v0.0.0 -->
    <g style="fill:#808080;" transform="translate(212.37075 289.919965)scale(0.1 -0.1)">
     <use xlink:href="#DejaVuSans-76"/>
     <use x="59.179688" xlink:href="#DejaVuSans-30"/>
     <use x="122.802734" xlink:href="#DejaVuSans-2e"/>
     <use x="154.589844" xlink:href="#DejaVuSans-30"/>
     <use x="218.212891" xlink:href="#DejaVuSans-2e"/>
     <use x="250" xlink:href="#DejaVuSans-30"/>
    </g>
   </g>
  </g>
 </g>
 <defs>
  <clipPath id="p3f9069f460">
   <rect height="288.034772" width="343.864" x="56.12" y="6.845228"/>
  </clipPath>
 </defs>
</svg>
